999
DXF file generated by netDxf https://github.com/haplokuon/netDxf, Copyright(C) Daniel Carvajal, Licensed under MIT
0
SECTION
2
HEADER
9
$ACADVER
1
AC1015
9
$DWGCODEPAGE
3
ANSI_1252
9
$HANDSEED
5
45
9
$ANGBASE
50
0.0
9
$ANGDIR
70
0
9
$ATTMODE
70
1
9
$AUNITS
70
0
9
$AUPREC
70
0
9
$CECOLOR
62
256
9
$CELTSCALE
40
1.0
9
$CELTYPE
6
ByLayer
9
$CELWEIGHT
370
-1
9
$CLAYER
8
0
9
$CMLJUST
70
0
9
$CMLSCALE
40
20.0
9
$CMLSTYLE
2
Standard
9
$DIMSTYLE
2
Standard
9
$TEXTSIZE
40
2.5
9
$TEXTSTYLE
7
Standard
9
$LUNITS
70
2
9
$LUPREC
70
4
9
$MIRRTEXT
70
0
9
$EXTNAMES
290
1
9
$INSBASE
10
0.0
20
0.0
30
0.0
9
$INSUNITS
70
0
9
$LTSCALE
40
1.0
9
$LWDISPLAY
290
0
9
$PDMODE
70
0
9
$PDSIZE
40
0.0
9
$PLINEGEN
70
0
9
$PSLTSCALE
70
1
9
$SPLINESEGS
70
8
9
$SURFU
70
6
9
$SURFV
70
6
9
$TDCREATE
40
2460823.48361535
9
$TDUCREATE
40
2460823.15028201
9
$TDUPDATE
40
2460823.48361535
9
$TDUUPDATE
40
2460823.15028201
9
$TDINDWG
40
0.0
9
$UCSORG
10
0.0
20
0.0
30
0.0
9
$UCSXDIR
10
1.0
20
0.0
30
0.0
9
$UCSYDIR
10
0.0
20
1.0
30
0.0
9
$DIMADEC
70
0
9
$DIMALT
70
0
9
$DIMALTD
70
2
9
$DIMALTF
40
25.4
9
$DIMALTRND
40
0.0
9
$DIMALTTD
70
2
9
$DIMALTTZ
70
0
9
$DIMALTU
70
2
9
$DIMALTZ
70
0
9
$DIMAPOST
1

9
$DIMATFIT
70
3
9
$DIMAUNIT
70
0
9
$DIMASZ
40
0.18
9
$DIMAZIN
70
0
9
$DIMSAH
70
0
9
$DIMBLK
1

9
$DIMLDRBLK
1

9
$DIMCEN
40
0.09
9
$DIMCLRD
70
0
9
$DIMCLRE
70
0
9
$DIMCLRT
70
0
9
$DIMDEC
70
4
9
$DIMDLE
40
0.0
9
$DIMDLI
40
0.38
9
$DIMDSEP
70
46
9
$DIMEXE
40
0.18
9
$DIMEXO
40
0.0625
9
$DIMFXLON
70
0
9
$DIMFXL
40
1.0
9
$DIMGAP
40
0.09
9
$DIMJUST
70
0
9
$DIMLFAC
40
1.0
9
$DIMLUNIT
70
2
9
$DIMLWD
70
-2
9
$DIMLWE
70
-2
9
$DIMPOST
1

9
$DIMRND
40
0.0
9
$DIMSCALE
40
1.0
9
$DIMSD1
70
0
9
$DIMSD2
70
0
9
$DIMSE1
70
0
9
$DIMSE2
70
0
9
$DIMSOXD
70
0
9
$DIMTAD
70
0
9
$DIMTDEC
70
4
9
$DIMTFAC
40
1.0
9
$DIMTIH
70
0
9
$DIMTIX
70
0
9
$DIMTM
40
0.0
9
$DIMTMOVE
70
0
9
$DIMTOFL
70
0
9
$DIMTOH
70
0
9
$DIMTOL
70
0
9
$DIMLIM
70
0
9
$DIMTOLJ
70
1
9
$DIMTP
40
0.0
9
$DIMTXT
40
0.18
9
$DIMTXTDIRECTION
70
0
9
$DIMTZIN
70
0
9
$DIMZIN
70
0
9
$DIMFRAC
70
0
9
$DIMLTYPE
6
ByBlock
9
$DIMLTEX1
6
ByBlock
9
$DIMLTEX2
6
ByBlock
0
ENDSEC
0
SECTION
2
CLASSES
0
CLASS
1
RASTERVARIABLES
2
AcDbRasterVariables
3
ISM
90
0
280
0
281
0
0
ENDSEC
0
SECTION
2
TABLES
0
TABLE
2
APPID
5
4
330
0
100
AcDbSymbolTable
70
5
0
APPID
5
19
330
4
100
AcDbSymbolTableRecord
100
AcDbRegAppTableRecord
2
ACAD
70
0
0
APPID
5
3F
330
4
100
AcDbSymbolTableRecord
100
AcDbRegAppTableRecord
2
AcCmTransparency
70
0
0
APPID
5
40
330
4
100
AcDbSymbolTableRecord
100
AcDbRegAppTableRecord
2
AcAecLayerStandard
70
0
0
APPID
5
41
330
4
100
AcDbSymbolTableRecord
100
AcDbRegAppTableRecord
2
GradientColor1ACI
70
0
0
APPID
5
42
330
4
100
AcDbSymbolTableRecord
100
AcDbRegAppTableRecord
2
GradientColor2ACI
70
0
0
ENDTAB
0
TABLE
2
VPORT
5
1
330
0
100
AcDbSymbolTable
70
1
0
VPORT
5
2
330
1
100
AcDbSymbolTableRecord
100
AcDbViewportTableRecord
2
*Active
70
0
10
0.0
20
0.0
11
1.0
21
1.0
12
0.0
22
0.0
13
0.0
23
0.0
14
0.5
24
0.5
15
10.0
25
10.0
16
0.0
26
0.0
36
1.0
17
0.0
27
0.0
37
0.0
40
10.0
41
1.0
75
0
76
1
0
ENDTAB
0
TABLE
2
LTYPE
5
7
330
0
100
AcDbSymbolTable
70
3
0
LTYPE
5
15
330
7
100
AcDbSymbolTableRecord
100
AcDbLinetypeTableRecord
2
Continuous
70
0
3
Solid line
72
65
73
0
40
0.0
0
LTYPE
5
16
330
7
100
AcDbSymbolTableRecord
100
AcDbLinetypeTableRecord
2
ByLayer
70
0
3

72
65
73
0
40
0.0
0
LTYPE
5
17
330
7
100
AcDbSymbolTableRecord
100
AcDbLinetypeTableRecord
2
ByBlock
70
0
3

72
65
73
0
40
0.0
0
ENDTAB
0
TABLE
2
LAYER
5
5
102
{ACAD_XDICTIONARY
360
6
102
}
330
0
100
AcDbSymbolTable
70
1
0
LAYER
5
14
330
5
100
AcDbSymbolTableRecord
100
AcDbLayerTableRecord
2
0
70
0
62
7
6
Continuous
290
1
370
-3
390
0
0
ENDTAB
0
TABLE
2
STYLE
5
8
330
0
100
AcDbSymbolTable
70
1
0
STYLE
5
18
330
8
100
AcDbSymbolTableRecord
100
AcDbTextStyleTableRecord
2
Standard
3
simplex.shx
70
0
71
0
40
0.0
41
1.0
42
0.0
50
0.0
0
ENDTAB
0
TABLE
2
DIMSTYLE
5
A
330
0
100
AcDbSymbolTable
70
1
100
AcDbDimStyleTable
0
DIMSTYLE
105
1A
330
A
100
AcDbSymbolTableRecord
100
AcDbDimStyleTableRecord
2
Standard
3

4

40
1.0
41
0.18
42
0.0625
43
0.38
44
0.18
45
0.0
46
0.0
47
0.0
48
0.0
49
1.0
70
0
71
0
72
0
73
0
74
0
75
0
76
0
77
0
78
0
79
0
140
0.18
141
0.09
143
25.4
144
1.0
146
1.0
147
0.09
148
0.0
170
0
171
2
172
0
174
0
175
0
176
0
177
0
178
0
179
0
271
4
272
4
273
2
274
2
275
0
276
0
277
2
278
46
279
0
280
0
281
0
282
0
283
1
284
0
285
0
286
0
289
3
290
0
294
0
340
18
173
0
345
17
346
17
347
17
371
-2
372
-2
0
ENDTAB
0
TABLE
2
VIEW
5
3
330
0
100
AcDbSymbolTable
70
0
0
ENDTAB
0
TABLE
2
UCS
5
C
330
0
100
AcDbSymbolTable
70
0
0
ENDTAB
0
TABLE
2
BLOCK_RECORD
5
D
330
0
100
AcDbSymbolTable
70
2
0
BLOCK_RECORD
5
1C
330
D
100
AcDbSymbolTableRecord
100
AcDbBlockTableRecord
2
*Model_Space
340
20
0
BLOCK_RECORD
5
39
330
D
100
AcDbSymbolTableRecord
100
AcDbBlockTableRecord
2
*Paper_Space
340
3E
0
ENDTAB
0
ENDSEC
0
SECTION
2
BLOCKS
0
BLOCK
5
1E
330
1C
100
AcDbEntity
67
0
8
0
100
AcDbBlockBegin
2
*Model_Space
70
0
10
0.0
20
0.0
30
0.0
3
*Model_Space
4

0
ENDBLK
5
1D
330
1C
100
AcDbEntity
8
0
100
AcDbBlockEnd
0
BLOCK
5
3B
330
39
100
AcDbEntity
67
1
8
0
100
AcDbBlockBegin
2
*Paper_Space
70
0
10
0.0
20
0.0
30
0.0
3
*Paper_Space
4

0
ENDBLK
5
3A
330
39
100
AcDbEntity
8
0
100
AcDbBlockEnd
0
ENDSEC
0
SECTION
2
ENTITIES
0
LWPOLYLINE
5
22
330
1C
100
AcDbEntity
67
0
8
0
62
256
6
ByLayer
370
-1
48
1.0
60
0
100
AcDbPolyline
90
105
70
1
38
0.0
39
0.0
10
65.5177993774414
20
67.4401016235352
40
0.0
41
0.0
42
0.0
10
65.5498962402344
20
67.4468002319336
40
0.0
41
0.0
42
0.0
10
65.9731979370117
20
67.000602722168
40
0.0
41
0.0
42
0.0
10
65.9804000854492
20
66.995002746582
40
0.0
41
0.0
42
0.0
10
65.9942016601562
20
66.9776992797852
40
0.0
41
0.0
42
0.0
10
66.1738967895508
20
66.9318008422852
40
0.0
41
0.0
42
0.0
10
66.1378021240234
20
66.5189971923828
40
0.0
41
0.0
42
0.0
10
66.1377029418945
20
66.4852981567383
40
0.0
41
0.0
42
0.0
10
66.1626968383789
20
66.4393005371094
40
0.0
41
0.0
42
0.0
10
66.2617034912109
20
65.9851989746094
40
0.0
41
0.0
42
0.0
10
66.4012985229492
20
65.5122985839844
40
0.0
41
0.0
42
0.0
10
66.4123992919922
20
65.4881973266602
40
0.0
41
0.0
42
0.0
10
66.499397277832
20
65.2711029052734
40
0.0
41
0.0
42
0.0
10
66.5962982177734
20
65.0130996704102
40
0.0
41
0.0
42
0.0
10
66.6022033691406
20
65.0009994506836
40
0.0
41
0.0
42
0.0
10
66.6232986450195
20
65.0009994506836
40
0.0
41
0.0
42
0.0
10
66.6231994628906
20
65.0151977539062
40
0.0
41
0.0
42
0.0
10
66.5942001342773
20
65.0766983032227
40
0.0
41
0.0
42
0.0
10
66.5002975463867
20
65.3258972167969
40
0.0
41
0.0
42
0.0
10
66.4256973266602
20
65.5115966796875
40
0.0
41
0.0
42
0.0
10
66.3956985473633
20
65.5774993896484
40
0.0
41
0.0
42
0.0
10
66.2665023803711
20
66.0147018432617
40
0.0
41
0.0
42
0.0
10
66.1717987060547
20
66.4490966796875
40
0.0
41
0.0
42
0.0
10
66.1585006713867
20
66.4862976074219
40
0.0
41
0.0
42
0.0
10
66.1455993652344
20
66.5098037719727
40
0.0
41
0.0
42
0.0
10
66.1849975585938
20
66.9559020996094
40
0.0
41
0.0
42
0.0
10
66.1848983764648
20
66.9785995483398
40
0.0
41
0.0
42
0.0
10
66.1220016479492
20
66.995002746582
40
0.0
41
0.0
42
0.0
10
66.1206970214844
20
67.008903503418
40
0.0
41
0.0
42
0.0
10
66.2490997314453
20
67.0705032348633
40
0.0
41
0.0
42
0.0
10
66.4946975708008
20
67.131103515625
40
0.0
41
0.0
42
0.0
10
66.5268020629883
20
67.1092987060547
40
0.0
41
0.0
42
0.0
10
66.9822998046875
20
67.0550003051758
40
0.0
41
0.0
42
0.0
10
67.4811019897461
20
67.0005035400391
40
0.0
41
0.0
42
0.0
10
68.0185012817383
20
67.0
40
0.0
41
0.0
42
0.0
10
68.4906997680664
20
67.065299987793
40
0.0
41
0.0
42
0.0
10
68.5160980224609
20
67.0654983520508
40
0.0
41
0.0
42
0.0
10
68.9890975952148
20
67.2456970214844
40
0.0
41
0.0
42
0.0
10
69.010498046875
20
67.2502975463867
40
0.0
41
0.0
42
0.0
10
69.3056030273438
20
67.4960021972656
40
0.0
41
0.0
42
0.0
10
69.477897644043
20
67.8193969726562
40
0.0
41
0.0
42
0.0
10
69.5026016235352
20
67.8326034545898
40
0.0
41
0.0
42
0.0
10
69.5475006103516
20
67.9674987792969
40
0.0
41
0.0
42
0.0
10
69.5707015991211
20
67.9898986816406
40
0.0
41
0.0
42
0.0
10
69.6260986328125
20
68.4217987060547
40
0.0
41
0.0
42
0.0
10
69.6633987426758
20
68.4858016967773
40
0.0
41
0.0
42
0.0
10
69.6731033325195
20
68.9179992675781
40
0.0
41
0.0
42
0.0
10
69.6905975341797
20
68.9826965332031
40
0.0
41
0.0
42
0.0
10
69.6904983520508
20
69.0195007324219
40
0.0
41
0.0
42
0.0
10
69.6740036010742
20
69.4038009643555
40
0.0
41
0.0
42
0.0
10
69.6875
20
69.4817962646484
40
0.0
41
0.0
42
0.0
10
69.6874008178711
20
69.5179977416992
40
0.0
41
0.0
42
0.0
10
69.6156997680664
20
69.8980026245117
40
0.0
41
0.0
42
0.0
10
69.6272964477539
20
69.9813995361328
40
0.0
41
0.0
42
0.0
10
69.627197265625
20
70.0149002075195
40
0.0
41
0.0
42
0.0
10
69.6205978393555
20
70.0280990600586
40
0.0
41
0.0
42
0.0
10
69.5037002563477
20
70.2211990356445
40
0.0
41
0.0
42
0.0
10
69.2102966308594
20
70.4711990356445
40
0.0
41
0.0
42
0.0
10
69.116096496582
20
70.5000991821289
40
0.0
41
0.0
42
0.0
10
69.0453033447266
20
70.5279006958008
40
0.0
41
0.0
42
0.0
10
69.0009002685547
20
70.5268020629883
40
0.0
41
0.0
42
0.0
10
68.5823974609375
20
70.6290969848633
40
0.0
41
0.0
42
0.0
10
68.5463027954102
20
70.6289978027344
40
0.0
41
0.0
42
0.0
10
68.5018997192383
20
70.6231002807617
40
0.0
41
0.0
42
0.0
10
68.0831985473633
20
70.6931991577148
40
0.0
41
0.0
42
0.0
10
68.0466995239258
20
70.6931991577148
40
0.0
41
0.0
42
0.0
10
67.9949035644531
20
70.684196472168
40
0.0
41
0.0
42
0.0
10
67.5839996337891
20
70.7233963012695
40
0.0
41
0.0
42
0.0
10
67.5464019775391
20
70.7232971191406
40
0.0
41
0.0
42
0.0
10
67.5101013183594
20
70.7182006835938
40
0.0
41
0.0
42
0.0
10
67.4843978881836
20
70.7089004516602
40
0.0
41
0.0
42
0.0
10
67.0121002197266
20
70.6757965087891
40
0.0
41
0.0
42
0.0
10
66.9904022216797
20
70.661003112793
40
0.0
41
0.0
42
0.0
10
66.6475982666016
20
70.5018997192383
40
0.0
41
0.0
42
0.0
10
66.627197265625
20
70.4860992431641
40
0.0
41
0.0
42
0.0
10
66.6238021850586
20
70.4804000854492
40
0.0
41
0.0
42
0.0
10
66.5174026489258
20
70.4039001464844
40
0.0
41
0.0
42
0.0
10
66.4975967407227
20
70.3719024658203
40
0.0
41
0.0
42
0.0
10
66.2485961914062
20
70.0101013183594
40
0.0
41
0.0
42
0.0
10
66.0572967529297
20
69.5140991210938
40
0.0
41
0.0
42
0.0
10
66.0005035400391
20
69.2258987426758
40
0.0
41
0.0
42
0.0
10
65.9572982788086
20
69.0169982910156
40
0.0
41
0.0
42
0.0
10
65.9443969726562
20
68.8554992675781
40
0.0
41
0.0
42
0.0
10
65.9067001342773
20
68.5189971923828
40
0.0
41
0.0
42
0.0
10
65.9105987548828
20
68.3290023803711
40
0.0
41
0.0
42
0.0
10
65.890998840332
20
68.0193023681641
40
0.0
41
0.0
42
0.0
10
65.8908996582031
20
67.9813003540039
40
0.0
41
0.0
42
0.0
10
65.9246978759766
20
67.720100402832
40
0.0
41
0.0
42
0.0
10
65.8161010742188
20
67.5141983032227
40
0.0
41
0.0
42
0.0
10
65.8007965087891
20
67.2518997192383
40
0.0
41
0.0
42
0.0
10
65.7919998168945
20
67.2487030029297
40
0.0
41
0.0
42
0.0
10
65.5723037719727
20
67.4801025390625
40
0.0
41
0.0
42
0.0
10
65.5435028076172
20
67.4800033569336
40
0.0
41
0.0
42
0.0
10
65.506103515625
20
67.4720993041992
40
0.0
41
0.0
42
0.0
10
65.486198425293
20
67.4859008789062
40
0.0
41
0.0
42
0.0
10
65.4787979125977
20
67.4876022338867
40
0.0
41
0.0
42
0.0
10
65.4561996459961
20
67.500602722168
40
0.0
41
0.0
42
0.0
10
65.0166015625
20
67.6449966430664
40
0.0
41
0.0
42
0.0
10
65.0009994506836
20
67.6449966430664
40
0.0
41
0.0
42
0.0
10
65.0009002685547
20
67.624397277832
40
0.0
41
0.0
42
0.0
10
65.3824996948242
20
67.4991989135742
40
0.0
41
0.0
42
0.0
10
65.4009017944336
20
67.4885025024414
40
0.0
41
0.0
42
0.0
10
65.4235000610352
20
67.4833984375
40
0.0
41
0.0
42
0.0
10
65.4865036010742
20
67.4402008056641
40
0.0
41
0.0
42
0.0
10
65.5177993774414
20
67.4401016235352
40
0.0
41
0.0
42
0.0
210
0.0
220
0.0
230
1.0
0
LWPOLYLINE
5
23
330
1C
100
AcDbEntity
67
0
8
0
62
256
6
ByLayer
370
-1
48
1.0
60
0
100
AcDbPolyline
90
75
70
1
38
0.0
39
0.0
10
65.0009002685547
20
73.8554000854492
40
0.0
41
0.0
42
0.0
10
65.013801574707
20
73.8469009399414
40
0.0
41
0.0
42
0.0
10
65.5080032348633
20
73.7015991210938
40
0.0
41
0.0
42
0.0
10
65.5429992675781
20
73.7014999389648
40
0.0
41
0.0
42
0.0
10
66.0174026489258
20
73.7884979248047
40
0.0
41
0.0
42
0.0
10
66.0779037475586
20
73.7922973632812
40
0.0
41
0.0
42
0.0
10
66.3470993041992
20
73.9747009277344
40
0.0
41
0.0
42
0.0
10
66.5102005004883
20
74.0800018310547
40
0.0
41
0.0
42
0.0
10
66.5668029785156
20
74.1036987304688
40
0.0
41
0.0
42
0.0
10
66.9206008911133
20
74.4328994750977
40
0.0
41
0.0
42
0.0
10
66.9272003173828
20
74.4356994628906
40
0.0
41
0.0
42
0.0
10
66.9942016601562
20
74.495002746582
40
0.0
41
0.0
42
0.0
10
67.0485000610352
20
74.5533981323242
40
0.0
41
0.0
42
0.0
10
67.4767990112305
20
74.992301940918
40
0.0
41
0.0
42
0.0
10
67.5016021728516
20
75.0413970947266
40
0.0
41
0.0
42
0.0
10
67.7772979736328
20
75.4859008789062
40
0.0
41
0.0
42
0.0
10
67.7771987915039
20
75.5180969238281
40
0.0
41
0.0
42
0.0
10
67.7227020263672
20
75.8329010009766
40
0.0
41
0.0
42
0.0
10
67.6611022949219
20
76.0101013183594
40
0.0
41
0.0
42
0.0
10
67.6128997802734
20
76.0771026611328
40
0.0
41
0.0
42
0.0
10
67.5029983520508
20
76.1878967285156
40
0.0
41
0.0
42
0.0
10
67.3223037719727
20
76.5084991455078
40
0.0
41
0.0
42
0.0
10
67.1140975952148
20
76.7966003417969
40
0.0
41
0.0
42
0.0
10
67.0045013427734
20
76.8982009887695
40
0.0
41
0.0
42
0.0
10
66.9172973632812
20
77.0063018798828
40
0.0
41
0.0
42
0.0
10
66.570198059082
20
77.3956985473633
40
0.0
41
0.0
42
0.0
10
66.5339965820312
20
77.4266967773438
40
0.0
41
0.0
42
0.0
10
66.5158004760742
20
77.4339981079102
40
0.0
41
0.0
42
0.0
10
66.4896011352539
20
77.4340972900391
40
0.0
41
0.0
42
0.0
10
66.4518966674805
20
77.4541015625
40
0.0
41
0.0
42
0.0
10
66.3758010864258
20
77.5018997192383
40
0.0
41
0.0
42
0.0
10
66.0142974853516
20
77.7132034301758
40
0.0
41
0.0
42
0.0
10
65.9809036254883
20
77.7130966186523
40
0.0
41
0.0
42
0.0
10
65.9206008911133
20
77.7079010009766
40
0.0
41
0.0
42
0.0
10
65.5195999145508
20
77.7194976806641
40
0.0
41
0.0
42
0.0
10
65.4835968017578
20
77.7193984985352
40
0.0
41
0.0
42
0.0
10
65.2574005126953
20
77.638801574707
40
0.0
41
0.0
42
0.0
10
65.0009994506836
20
77.5522994995117
40
0.0
41
0.0
42
0.0
10
65.0009994506836
20
77.4832992553711
40
0.0
41
0.0
42
0.0
10
65.0157012939453
20
77.4832000732422
40
0.0
41
0.0
42
0.0
10
65.0546035766602
20
77.4994964599609
40
0.0
41
0.0
42
0.0
10
65.5136032104492
20
77.6630020141602
40
0.0
41
0.0
42
0.0
10
65.7982025146484
20
77.6548004150391
40
0.0
41
0.0
42
0.0
10
65.8371963500977
20
77.654899597168
40
0.0
41
0.0
42
0.0
10
65.9899978637695
20
77.668098449707
40
0.0
41
0.0
42
0.0
10
66.2814025878906
20
77.497802734375
40
0.0
41
0.0
42
0.0
10
66.3408966064453
20
77.4604034423828
40
0.0
41
0.0
42
0.0
10
66.4201965332031
20
77.4182968139648
40
0.0
41
0.0
42
0.0
10
66.484001159668
20
77.4178009033203
40
0.0
41
0.0
42
0.0
10
66.5422973632812
20
77.3945007324219
40
0.0
41
0.0
42
0.0
10
66.899299621582
20
76.9934997558594
40
0.0
41
0.0
42
0.0
10
66.9953002929688
20
76.8746032714844
40
0.0
41
0.0
42
0.0
10
67.0380020141602
20
76.8349990844727
40
0.0
41
0.0
42
0.0
10
67.2865982055664
20
76.4912033081055
40
0.0
41
0.0
42
0.0
10
67.4968032836914
20
76.1179962158203
40
0.0
41
0.0
42
0.0
10
67.5379028320312
20
76.0764999389648
40
0.0
41
0.0
42
0.0
10
67.6003036499023
20
75.9897003173828
40
0.0
41
0.0
42
0.0
10
67.6259994506836
20
75.9152984619141
40
0.0
41
0.0
42
0.0
10
67.6969985961914
20
75.5070037841797
40
0.0
41
0.0
42
0.0
10
67.4982986450195
20
75.1865005493164
40
0.0
41
0.0
42
0.0
10
67.4084014892578
20
75.0075988769531
40
0.0
41
0.0
42
0.0
10
67.2407989501953
20
74.8358001708984
40
0.0
41
0.0
42
0.0
10
66.932502746582
20
74.5046997070312
40
0.0
41
0.0
42
0.0
10
66.9022979736328
20
74.4792022705078
40
0.0
41
0.0
42
0.0
10
66.5139007568359
20
74.1175994873047
40
0.0
41
0.0
42
0.0
10
66.4897994995117
20
74.1075973510742
40
0.0
41
0.0
42
0.0
10
66.3155975341797
20
73.9936981201172
40
0.0
41
0.0
42
0.0
10
66.0137023925781
20
73.7893981933594
40
0.0
41
0.0
42
0.0
10
65.9822998046875
20
73.7880020141602
40
0.0
41
0.0
42
0.0
10
65.5691986083984
20
73.7121963500977
40
0.0
41
0.0
42
0.0
10
65.5137023925781
20
73.7303009033203
40
0.0
41
0.0
42
0.0
10
65.0759963989258
20
73.8582992553711
40
0.0
41
0.0
42
0.0
10
65.0137023925781
20
73.899299621582
40
0.0
41
0.0
42
0.0
10
65.0009994506836
20
73.899299621582
40
0.0
41
0.0
42
0.0
10
65.0009002685547
20
73.8554000854492
40
0.0
41
0.0
42
0.0
210
0.0
220
0.0
230
1.0
0
LWPOLYLINE
5
24
330
1C
100
AcDbEntity
67
0
8
0
62
256
6
ByLayer
370
-1
48
1.0
60
0
100
AcDbPolyline
90
102
70
1
38
0.0
39
0.0
10
65.0152969360352
20
83.3765029907227
40
0.0
41
0.0
42
0.0
10
65.0767974853516
20
83.4056015014648
40
0.0
41
0.0
42
0.0
10
65.3077011108398
20
83.4922027587891
40
0.0
41
0.0
42
0.0
10
65.5117034912109
20
83.5739974975586
40
0.0
41
0.0
42
0.0
10
65.5775985717773
20
83.6039962768555
40
0.0
41
0.0
42
0.0
10
66.0119018554688
20
83.7323989868164
40
0.0
41
0.0
42
0.0
10
66.0547027587891
20
83.7555999755859
40
0.0
41
0.0
42
0.0
10
66.5071029663086
20
83.8542022705078
40
0.0
41
0.0
42
0.0
10
66.9558029174805
20
83.8149032592773
40
0.0
41
0.0
42
0.0
10
66.9785995483398
20
83.8149032592773
40
0.0
41
0.0
42
0.0
10
66.995002746582
20
83.8779983520508
40
0.0
41
0.0
42
0.0
10
67.0090026855469
20
83.8793029785156
40
0.0
41
0.0
42
0.0
10
67.0703964233398
20
83.750602722168
40
0.0
41
0.0
42
0.0
10
67.131103515625
20
83.5052032470703
40
0.0
41
0.0
42
0.0
10
67.1093978881836
20
83.4729995727539
40
0.0
41
0.0
42
0.0
10
67.0550003051758
20
83.0176010131836
40
0.0
41
0.0
42
0.0
10
67.0005035400391
20
82.518798828125
40
0.0
41
0.0
42
0.0
10
66.9999008178711
20
81.9813995361328
40
0.0
41
0.0
42
0.0
10
67.065299987793
20
81.5091018676758
40
0.0
41
0.0
42
0.0
10
67.0654983520508
20
81.4838027954102
40
0.0
41
0.0
42
0.0
10
67.2456970214844
20
81.0108032226562
40
0.0
41
0.0
42
0.0
10
67.2501983642578
20
80.9893035888672
40
0.0
41
0.0
42
0.0
10
67.4959030151367
20
80.6940994262695
40
0.0
41
0.0
42
0.0
10
67.8192977905273
20
80.5218963623047
40
0.0
41
0.0
42
0.0
10
67.8324966430664
20
80.497200012207
40
0.0
41
0.0
42
0.0
10
67.967399597168
20
80.4522018432617
40
0.0
41
0.0
42
0.0
10
67.9929962158203
20
80.4257965087891
40
0.0
41
0.0
42
0.0
10
68.0518035888672
20
80.3915023803711
40
0.0
41
0.0
42
0.0
10
68.4814987182617
20
80.3364028930664
40
0.0
41
0.0
42
0.0
10
68.9179000854492
20
80.3265991210938
40
0.0
41
0.0
42
0.0
10
68.9826965332031
20
80.3093032836914
40
0.0
41
0.0
42
0.0
10
69.0195007324219
20
80.309196472168
40
0.0
41
0.0
42
0.0
10
69.4038009643555
20
80.3256988525391
40
0.0
41
0.0
42
0.0
10
69.4817962646484
20
80.3124008178711
40
0.0
41
0.0
42
0.0
10
69.5179977416992
20
80.3123016357422
40
0.0
41
0.0
42
0.0
10
69.8980026245117
20
80.3840026855469
40
0.0
41
0.0
42
0.0
10
69.9813995361328
20
80.3723983764648
40
0.0
41
0.0
42
0.0
10
70.0149002075195
20
80.3724975585938
40
0.0
41
0.0
42
0.0
10
70.0280990600586
20
80.3790969848633
40
0.0
41
0.0
42
0.0
10
70.2212982177734
20
80.4962005615234
40
0.0
41
0.0
42
0.0
10
70.4711990356445
20
80.7894973754883
40
0.0
41
0.0
42
0.0
10
70.5000991821289
20
80.8836975097656
40
0.0
41
0.0
42
0.0
10
70.5279006958008
20
80.9545974731445
40
0.0
41
0.0
42
0.0
10
70.5268020629883
20
80.9990005493164
40
0.0
41
0.0
42
0.0
10
70.6290969848633
20
81.4175033569336
40
0.0
41
0.0
42
0.0
10
70.6289978027344
20
81.4535980224609
40
0.0
41
0.0
42
0.0
10
70.6231002807617
20
81.4980010986328
40
0.0
41
0.0
42
0.0
10
70.6931991577148
20
81.9167022705078
40
0.0
41
0.0
42
0.0
10
70.6930999755859
20
81.9532012939453
40
0.0
41
0.0
42
0.0
10
70.684196472168
20
82.004997253418
40
0.0
41
0.0
42
0.0
10
70.7233963012695
20
82.415901184082
40
0.0
41
0.0
42
0.0
10
70.7232971191406
20
82.453498840332
40
0.0
41
0.0
42
0.0
10
70.7182006835938
20
82.4897994995117
40
0.0
41
0.0
42
0.0
10
70.7089004516602
20
82.5155029296875
40
0.0
41
0.0
42
0.0
10
70.6756973266602
20
82.9878005981445
40
0.0
41
0.0
42
0.0
10
70.661003112793
20
83.0094985961914
40
0.0
41
0.0
42
0.0
10
70.5018997192383
20
83.3520965576172
40
0.0
41
0.0
42
0.0
10
70.4860000610352
20
83.3725967407227
40
0.0
41
0.0
42
0.0
10
70.4804000854492
20
83.3759002685547
40
0.0
41
0.0
42
0.0
10
70.4038009643555
20
83.4822998046875
40
0.0
41
0.0
42
0.0
10
70.3719024658203
20
83.5022964477539
40
0.0
41
0.0
42
0.0
10
70.0101013183594
20
83.7510986328125
40
0.0
41
0.0
42
0.0
10
69.5140991210938
20
83.9423980712891
40
0.0
41
0.0
42
0.0
10
69.2258987426758
20
83.9992980957031
40
0.0
41
0.0
42
0.0
10
69.0169982910156
20
84.0423965454102
40
0.0
41
0.0
42
0.0
10
68.8554992675781
20
84.0552978515625
40
0.0
41
0.0
42
0.0
10
68.5189971923828
20
84.0930023193359
40
0.0
41
0.0
42
0.0
10
68.3290023803711
20
84.0891036987305
40
0.0
41
0.0
42
0.0
10
68.0193023681641
20
84.1089019775391
40
0.0
41
0.0
42
0.0
10
67.9813003540039
20
84.1088027954102
40
0.0
41
0.0
42
0.0
10
67.7200012207031
20
84.0749969482422
40
0.0
41
0.0
42
0.0
10
67.5014038085938
20
84.1903991699219
40
0.0
41
0.0
42
0.0
10
67.4934005737305
20
84.2289962768555
40
0.0
41
0.0
42
0.0
10
67.4644012451172
20
84.4825973510742
40
0.0
41
0.0
42
0.0
10
67.4859008789062
20
84.5136032104492
40
0.0
41
0.0
42
0.0
10
67.4876022338867
20
84.5210037231445
40
0.0
41
0.0
42
0.0
10
67.500602722168
20
84.543701171875
40
0.0
41
0.0
42
0.0
10
67.6449966430664
20
84.9832992553711
40
0.0
41
0.0
42
0.0
10
67.6449966430664
20
84.9990005493164
40
0.0
41
0.0
42
0.0
10
67.624397277832
20
84.9990005493164
40
0.0
41
0.0
42
0.0
10
67.4991989135742
20
84.6172027587891
40
0.0
41
0.0
42
0.0
10
67.4886016845703
20
84.5988998413086
40
0.0
41
0.0
42
0.0
10
67.4833984375
20
84.576301574707
40
0.0
41
0.0
42
0.0
10
67.4360961914062
20
84.5074996948242
40
0.0
41
0.0
42
0.0
10
67.4243011474609
20
84.4924011230469
40
0.0
41
0.0
42
0.0
10
67.424201965332
20
84.4608001708984
40
0.0
41
0.0
42
0.0
10
67.4751968383789
20
84.0151977539062
40
0.0
41
0.0
42
0.0
10
66.9872970581055
20
84.0150985717773
40
0.0
41
0.0
42
0.0
10
66.9749984741211
20
84.0053024291992
40
0.0
41
0.0
42
0.0
10
66.9320983886719
20
83.825798034668
40
0.0
41
0.0
42
0.0
10
66.5189971923828
20
83.8620986938477
40
0.0
41
0.0
42
0.0
10
66.4822006225586
20
83.8619995117188
40
0.0
41
0.0
42
0.0
10
66.0512008666992
20
83.7680969238281
40
0.0
41
0.0
42
0.0
10
66.0139999389648
20
83.7529983520508
40
0.0
41
0.0
42
0.0
10
65.9879989624023
20
83.738899230957
40
0.0
41
0.0
42
0.0
10
65.5122985839844
20
83.598503112793
40
0.0
41
0.0
42
0.0
10
65.4881973266602
20
83.5873031616211
40
0.0
41
0.0
42
0.0
10
65.2639999389648
20
83.4975967407227
40
0.0
41
0.0
42
0.0
10
65.0130996704102
20
83.4033966064453
40
0.0
41
0.0
42
0.0
10
65.0009994506836
20
83.3975982666016
40
0.0
41
0.0
42
0.0
10
65.0009994506836
20
83.3766021728516
40
0.0
41
0.0
42
0.0
10
65.0152969360352
20
83.3765029907227
40
0.0
41
0.0
42
0.0
210
0.0
220
0.0
230
1.0
0
LWPOLYLINE
5
25
330
1C
100
AcDbEntity
67
0
8
0
62
256
6
ByLayer
370
-1
48
1.0
60
0
100
AcDbPolyline
90
60
70
1
38
0.0
39
0.0
10
65.9893035888672
20
68.0540008544922
40
0.0
41
0.0
42
0.0
10
65.9781036376953
20
68.4882965087891
40
0.0
41
0.0
42
0.0
10
65.9860000610352
20
68.5595016479492
40
0.0
41
0.0
42
0.0
10
66.0190963745117
20
68.9828033447266
40
0.0
41
0.0
42
0.0
10
66.1175003051758
20
69.4858016967773
40
0.0
41
0.0
42
0.0
10
66.2710037231445
20
69.8850021362305
40
0.0
41
0.0
42
0.0
10
66.3127975463867
20
69.9899978637695
40
0.0
41
0.0
42
0.0
10
66.5022964477539
20
70.2654037475586
40
0.0
41
0.0
42
0.0
10
66.5610961914062
20
70.3595962524414
40
0.0
41
0.0
42
0.0
10
66.6583023071289
20
70.4293975830078
40
0.0
41
0.0
42
0.0
10
66.6660995483398
20
70.443000793457
40
0.0
41
0.0
42
0.0
10
66.7373962402344
20
70.4980010986328
40
0.0
41
0.0
42
0.0
10
67.0095977783203
20
70.624397277832
40
0.0
41
0.0
42
0.0
10
67.0777969360352
20
70.6707992553711
40
0.0
41
0.0
42
0.0
10
67.5156021118164
20
70.7014999389648
40
0.0
41
0.0
42
0.0
10
67.5533981323242
20
70.715202331543
40
0.0
41
0.0
42
0.0
10
67.9806976318359
20
70.6744995117188
40
0.0
41
0.0
42
0.0
10
68.0268020629883
20
70.6754989624023
40
0.0
41
0.0
42
0.0
10
68.4816970825195
20
70.5995025634766
40
0.0
41
0.0
42
0.0
10
68.5208969116211
20
70.5994033813477
40
0.0
41
0.0
42
0.0
10
68.7987976074219
20
70.5316009521484
40
0.0
41
0.0
42
0.0
10
68.9358978271484
20
70.5
40
0.0
41
0.0
42
0.0
10
68.986701965332
20
70.481201171875
40
0.0
41
0.0
42
0.0
10
69.0673980712891
20
70.4564971923828
40
0.0
41
0.0
42
0.0
10
69.4961013793945
20
70.0912017822266
40
0.0
41
0.0
42
0.0
10
69.5440979003906
20
70.0119018554688
40
0.0
41
0.0
42
0.0
10
69.5533981323242
20
69.9934005737305
40
0.0
41
0.0
42
0.0
10
69.5521011352539
20
69.9414978027344
40
0.0
41
0.0
42
0.0
10
69.6355972290039
20
69.499397277832
40
0.0
41
0.0
42
0.0
10
69.63330078125
20
69.4853973388672
40
0.0
41
0.0
42
0.0
10
69.6332015991211
20
69.4475021362305
40
0.0
41
0.0
42
0.0
10
69.6520004272461
20
69.0119018554688
40
0.0
41
0.0
42
0.0
10
69.646598815918
20
68.9918975830078
40
0.0
41
0.0
42
0.0
10
69.6358032226562
20
68.5140991210938
40
0.0
41
0.0
42
0.0
10
69.6205978393555
20
68.4879989624023
40
0.0
41
0.0
42
0.0
10
69.5595016479492
20
68.0102005004883
40
0.0
41
0.0
42
0.0
10
69.5482025146484
20
67.9989013671875
40
0.0
41
0.0
42
0.0
10
69.4972991943359
20
67.845703125
40
0.0
41
0.0
42
0.0
10
69.4306030273438
20
67.8084030151367
40
0.0
41
0.0
42
0.0
10
69.2734985351562
20
67.5130004882812
40
0.0
41
0.0
42
0.0
10
68.9893035888672
20
67.2770004272461
40
0.0
41
0.0
42
0.0
10
68.9208984375
20
67.2629013061523
40
0.0
41
0.0
42
0.0
10
68.4853973388672
20
67.0969009399414
40
0.0
41
0.0
42
0.0
10
68.4162979125977
20
67.0973968505859
40
0.0
41
0.0
42
0.0
10
68.0030975341797
20
67.0399017333984
40
0.0
41
0.0
42
0.0
10
67.9713973999023
20
67.0456008911133
40
0.0
41
0.0
42
0.0
10
67.5167999267578
20
67.0463027954102
40
0.0
41
0.0
42
0.0
10
67.4477005004883
20
67.0671997070312
40
0.0
41
0.0
42
0.0
10
67.0176010131836
20
67.1141967773438
40
0.0
41
0.0
42
0.0
10
66.6146011352539
20
67.1623001098633
40
0.0
41
0.0
42
0.0
10
66.5134963989258
20
67.2309036254883
40
0.0
41
0.0
42
0.0
10
66.4824981689453
20
67.2309036254883
40
0.0
41
0.0
42
0.0
10
66.2929000854492
20
67.1839981079102
40
0.0
41
0.0
42
0.0
10
66.0715026855469
20
67.0780029296875
40
0.0
41
0.0
42
0.0
10
66.0796966552734
20
67.5118026733398
40
0.0
41
0.0
42
0.0
10
66.0414962768555
20
67.5522994995117
40
0.0
41
0.0
42
0.0
10
65.9990005493164
20
67.926399230957
40
0.0
41
0.0
42
0.0
10
65.9886016845703
20
68.0059967041016
40
0.0
41
0.0
42
0.0
10
65.9893035888672
20
68.0151977539062
40
0.0
41
0.0
42
0.0
10
65.9893035888672
20
68.0540008544922
40
0.0
41
0.0
42
0.0
210
0.0
220
0.0
230
1.0
0
LWPOLYLINE
5
26
330
1C
100
AcDbEntity
67
0
8
0
62
256
6
ByLayer
370
-1
48
1.0
60
0
100
AcDbPolyline
90
58
70
1
38
0.0
39
0.0
10
67.0456008911133
20
82.0283966064453
40
0.0
41
0.0
42
0.0
10
67.0463027954102
20
82.4831008911133
40
0.0
41
0.0
42
0.0
10
67.0671997070312
20
82.5521011352539
40
0.0
41
0.0
42
0.0
10
67.1141967773438
20
82.9822998046875
40
0.0
41
0.0
42
0.0
10
67.1623001098633
20
83.3852005004883
40
0.0
41
0.0
42
0.0
10
67.2309036254883
20
83.4863967895508
40
0.0
41
0.0
42
0.0
10
67.2309036254883
20
83.5174026489258
40
0.0
41
0.0
42
0.0
10
67.1838989257812
20
83.7070999145508
40
0.0
41
0.0
42
0.0
10
67.086799621582
20
83.9198989868164
40
0.0
41
0.0
42
0.0
10
67.5178985595703
20
83.9197998046875
40
0.0
41
0.0
42
0.0
10
67.9255981445312
20
84.0007019042969
40
0.0
41
0.0
42
0.0
10
68.005500793457
20
84.0110015869141
40
0.0
41
0.0
42
0.0
10
68.0541000366211
20
84.0103988647461
40
0.0
41
0.0
42
0.0
10
68.4882965087891
20
84.0216979980469
40
0.0
41
0.0
42
0.0
10
68.564697265625
20
84.013298034668
40
0.0
41
0.0
42
0.0
10
68.9601974487305
20
83.9804000854492
40
0.0
41
0.0
42
0.0
10
68.9843978881836
20
83.9803009033203
40
0.0
41
0.0
42
0.0
10
69.4857025146484
20
83.8822021484375
40
0.0
41
0.0
42
0.0
10
69.8850021362305
20
83.7286987304688
40
0.0
41
0.0
42
0.0
10
69.9898986816406
20
83.6867980957031
40
0.0
41
0.0
42
0.0
10
70.2654037475586
20
83.4974975585938
40
0.0
41
0.0
42
0.0
10
70.3594970703125
20
83.4385986328125
40
0.0
41
0.0
42
0.0
10
70.4292984008789
20
83.3414993286133
40
0.0
41
0.0
42
0.0
10
70.4429016113281
20
83.3336029052734
40
0.0
41
0.0
42
0.0
10
70.4980010986328
20
83.2623977661133
40
0.0
41
0.0
42
0.0
10
70.6242980957031
20
82.9903030395508
40
0.0
41
0.0
42
0.0
10
70.6707992553711
20
82.9220962524414
40
0.0
41
0.0
42
0.0
10
70.7014007568359
20
82.4842987060547
40
0.0
41
0.0
42
0.0
10
70.715202331543
20
82.4465026855469
40
0.0
41
0.0
42
0.0
10
70.6744995117188
20
82.0192031860352
40
0.0
41
0.0
42
0.0
10
70.6754989624023
20
81.9730987548828
40
0.0
41
0.0
42
0.0
10
70.5995025634766
20
81.5182037353516
40
0.0
41
0.0
42
0.0
10
70.5995025634766
20
81.4788970947266
40
0.0
41
0.0
42
0.0
10
70.5316009521484
20
81.2009963989258
40
0.0
41
0.0
42
0.0
10
70.5000991821289
20
81.0639038085938
40
0.0
41
0.0
42
0.0
10
70.481201171875
20
81.0131988525391
40
0.0
41
0.0
42
0.0
10
70.4565963745117
20
80.9324035644531
40
0.0
41
0.0
42
0.0
10
70.0911026000977
20
80.5037002563477
40
0.0
41
0.0
42
0.0
10
69.9942016601562
20
80.4462966918945
40
0.0
41
0.0
42
0.0
10
69.9414978027344
20
80.4476013183594
40
0.0
41
0.0
42
0.0
10
69.499397277832
20
80.3640975952148
40
0.0
41
0.0
42
0.0
10
69.4853973388672
20
80.3666000366211
40
0.0
41
0.0
42
0.0
10
69.4475021362305
20
80.3665008544922
40
0.0
41
0.0
42
0.0
10
69.0119018554688
20
80.3477020263672
40
0.0
41
0.0
42
0.0
10
68.9918975830078
20
80.3531036376953
40
0.0
41
0.0
42
0.0
10
68.5184020996094
20
80.3638000488281
40
0.0
41
0.0
42
0.0
10
68.0380020141602
20
80.4253005981445
40
0.0
41
0.0
42
0.0
10
68.0065994262695
20
80.443603515625
40
0.0
41
0.0
42
0.0
10
67.9990997314453
20
80.4514007568359
40
0.0
41
0.0
42
0.0
10
67.8455963134766
20
80.5025024414062
40
0.0
41
0.0
42
0.0
10
67.8082962036133
20
80.5692977905273
40
0.0
41
0.0
42
0.0
10
67.5130004882812
20
80.7263031005859
40
0.0
41
0.0
42
0.0
10
67.2770004272461
20
81.0105972290039
40
0.0
41
0.0
42
0.0
10
67.2628021240234
20
81.0790023803711
40
0.0
41
0.0
42
0.0
10
67.0969009399414
20
81.5145034790039
40
0.0
41
0.0
42
0.0
10
67.097297668457
20
81.5836029052734
40
0.0
41
0.0
42
0.0
10
67.0399017333984
20
81.996696472168
40
0.0
41
0.0
42
0.0
10
67.0456008911133
20
82.0283966064453
40
0.0
41
0.0
42
0.0
210
0.0
220
0.0
230
1.0
0
LWPOLYLINE
5
27
330
1C
100
AcDbEntity
67
0
8
0
62
256
6
ByLayer
370
-1
48
1.0
60
0
100
AcDbPolyline
90
265
70
1
38
0.0
39
0.0
10
70.0538024902344
20
74.8690032958984
40
0.0
41
0.0
42
0.0
10
70.4880981445312
20
74.6003036499023
40
0.0
41
0.0
42
0.0
10
70.5131988525391
20
74.5942001342773
40
0.0
41
0.0
42
0.0
10
70.7063980102539
20
74.4992980957031
40
0.0
41
0.0
42
0.0
10
70.9710998535156
20
74.3856964111328
40
0.0
41
0.0
42
0.0
10
70.9826965332031
20
74.3835983276367
40
0.0
41
0.0
42
0.0
10
71.0090026855469
20
74.3815002441406
40
0.0
41
0.0
42
0.0
10
71.4832000732422
20
74.2294998168945
40
0.0
41
0.0
42
0.0
10
71.5185012817383
20
74.2294006347656
40
0.0
41
0.0
42
0.0
10
71.9822006225586
20
74.1269989013672
40
0.0
41
0.0
42
0.0
10
71.9956970214844
20
74.1270980834961
40
0.0
41
0.0
42
0.0
10
72.2789001464844
20
74.0449981689453
40
0.0
41
0.0
42
0.0
10
72.3803024291992
20
74.0134963989258
40
0.0
41
0.0
42
0.0
10
72.3813018798828
20
74.0028991699219
40
0.0
41
0.0
42
0.0
10
72.3295974731445
20
73.975700378418
40
0.0
41
0.0
42
0.0
10
72.0029983520508
20
73.8517990112305
40
0.0
41
0.0
42
0.0
10
71.7266006469727
20
73.5050964355469
40
0.0
41
0.0
42
0.0
10
71.695198059082
20
73.4795989990234
40
0.0
41
0.0
42
0.0
10
71.4962997436523
20
73.2587966918945
40
0.0
41
0.0
42
0.0
10
71.3139038085938
20
73.0028991699219
40
0.0
41
0.0
42
0.0
10
71.2956008911133
20
72.9825973510742
40
0.0
41
0.0
42
0.0
10
71.0250015258789
20
72.5018997192383
40
0.0
41
0.0
42
0.0
10
71.0
20
72.4094009399414
40
0.0
41
0.0
42
0.0
10
70.8723983764648
20
72.0429992675781
40
0.0
41
0.0
42
0.0
10
70.8479995727539
20
72.0126037597656
40
0.0
41
0.0
42
0.0
10
70.847900390625
20
71.9820022583008
40
0.0
41
0.0
42
0.0
10
70.9297027587891
20
71.5712966918945
40
0.0
41
0.0
42
0.0
10
70.8963012695312
20
71.5205993652344
40
0.0
41
0.0
42
0.0
10
70.8859024047852
20
71.5108032226562
40
0.0
41
0.0
42
0.0
10
70.8858032226562
20
71.4903030395508
40
0.0
41
0.0
42
0.0
10
70.9121017456055
20
71.4701995849609
40
0.0
41
0.0
42
0.0
10
70.9887008666992
20
71.3926010131836
40
0.0
41
0.0
42
0.0
10
71.0147018432617
20
71.3925018310547
40
0.0
41
0.0
42
0.0
10
71.0720977783203
20
71.4229965209961
40
0.0
41
0.0
42
0.0
10
71.4815979003906
20
71.3582992553711
40
0.0
41
0.0
42
0.0
10
71.5147018432617
20
71.3582000732422
40
0.0
41
0.0
42
0.0
10
71.5777969360352
20
71.3917999267578
40
0.0
41
0.0
42
0.0
10
72.0137023925781
20
71.4815979003906
40
0.0
41
0.0
42
0.0
10
72.0235977172852
20
71.4857025146484
40
0.0
41
0.0
42
0.0
10
72.0752029418945
20
71.5201034545898
40
0.0
41
0.0
42
0.0
10
72.5106964111328
20
71.6915969848633
40
0.0
41
0.0
42
0.0
10
72.9822998046875
20
71.9689025878906
40
0.0
41
0.0
42
0.0
10
73.0086975097656
20
71.9937973022461
40
0.0
41
0.0
42
0.0
10
73.0227966308594
20
71.9989013671875
40
0.0
41
0.0
42
0.0
10
73.0595016479492
20
72.0214996337891
40
0.0
41
0.0
42
0.0
10
73.2378005981445
20
72.2029037475586
40
0.0
41
0.0
42
0.0
10
73.4987030029297
20
72.4246978759766
40
0.0
41
0.0
42
0.0
10
73.5355987548828
20
72.3498001098633
40
0.0
41
0.0
42
0.0
10
73.6788024902344
20
72.0005035400391
40
0.0
41
0.0
42
0.0
10
73.6782989501953
20
71.9551010131836
40
0.0
41
0.0
42
0.0
10
73.7226028442383
20
71.4934005737305
40
0.0
41
0.0
42
0.0
10
73.7225036621094
20
71.4567031860352
40
0.0
41
0.0
42
0.0
10
73.8030014038086
20
70.9845962524414
40
0.0
41
0.0
42
0.0
10
73.9367980957031
20
70.5085983276367
40
0.0
41
0.0
42
0.0
10
73.9385986328125
20
70.4842987060547
40
0.0
41
0.0
42
0.0
10
74.0
20
70.3113021850586
40
0.0
41
0.0
42
0.0
10
74.1983032226562
20
70.027702331543
40
0.0
41
0.0
42
0.0
10
74.2200012207031
20
69.9243011474609
40
0.0
41
0.0
42
0.0
10
74.4615020751953
20
69.6331024169922
40
0.0
41
0.0
42
0.0
10
74.4890975952148
20
69.6037979125977
40
0.0
41
0.0
42
0.0
10
74.5158996582031
20
69.6036987304688
40
0.0
41
0.0
42
0.0
10
74.8337020874023
20
69.7322006225586
40
0.0
41
0.0
42
0.0
10
75.0058975219727
20
69.7889022827148
40
0.0
41
0.0
42
0.0
10
75.0682983398438
20
69.8936004638672
40
0.0
41
0.0
42
0.0
10
75.0904006958008
20
69.9244003295898
40
0.0
41
0.0
42
0.0
10
75.1098022460938
20
69.9887008666992
40
0.0
41
0.0
42
0.0
10
75.3789978027344
20
70.4237976074219
40
0.0
41
0.0
42
0.0
10
75.3988037109375
20
70.4856033325195
40
0.0
41
0.0
42
0.0
10
75.4056015014648
20
70.5131988525391
40
0.0
41
0.0
42
0.0
10
75.5009002685547
20
70.7073974609375
40
0.0
41
0.0
42
0.0
10
75.6139984130859
20
70.9710998535156
40
0.0
41
0.0
42
0.0
10
75.61669921875
20
70.9850997924805
40
0.0
41
0.0
42
0.0
10
75.7686004638672
20
71.4589996337891
40
0.0
41
0.0
42
0.0
10
75.7704010009766
20
71.4832000732422
40
0.0
41
0.0
42
0.0
10
75.8751983642578
20
71.9570999145508
40
0.0
41
0.0
42
0.0
10
75.8747024536133
20
72.0026016235352
40
0.0
41
0.0
42
0.0
10
75.9545974731445
20
72.2785034179688
40
0.0
41
0.0
42
0.0
10
75.992301940918
20
72.3983001708984
40
0.0
41
0.0
42
0.0
10
76.0086975097656
20
72.3985977172852
40
0.0
41
0.0
42
0.0
10
76.040397644043
20
72.3069000244141
40
0.0
41
0.0
42
0.0
10
76.1596984863281
20
71.9927978515625
40
0.0
41
0.0
42
0.0
10
76.494499206543
20
71.7267990112305
40
0.0
41
0.0
42
0.0
10
76.5268020629883
20
71.6892013549805
40
0.0
41
0.0
42
0.0
10
76.7408981323242
20
71.4962005615234
40
0.0
41
0.0
42
0.0
10
76.9968032836914
20
71.3139038085938
40
0.0
41
0.0
42
0.0
10
77.0183029174805
20
71.2948989868164
40
0.0
41
0.0
42
0.0
10
77.4979019165039
20
71.0250015258789
40
0.0
41
0.0
42
0.0
10
77.5903015136719
20
71.0
40
0.0
41
0.0
42
0.0
10
77.9567031860352
20
70.8722991943359
40
0.0
41
0.0
42
0.0
10
77.9872970581055
20
70.8479995727539
40
0.0
41
0.0
42
0.0
10
78.0178985595703
20
70.847900390625
40
0.0
41
0.0
42
0.0
10
78.4284973144531
20
70.9297027587891
40
0.0
41
0.0
42
0.0
10
78.4791030883789
20
70.8962020874023
40
0.0
41
0.0
42
0.0
10
78.4889984130859
20
70.8859024047852
40
0.0
41
0.0
42
0.0
10
78.5094985961914
20
70.8859024047852
40
0.0
41
0.0
42
0.0
10
78.5295028686523
20
70.9122009277344
40
0.0
41
0.0
42
0.0
10
78.6072998046875
20
70.9887008666992
40
0.0
41
0.0
42
0.0
10
78.6072006225586
20
71.0147018432617
40
0.0
41
0.0
42
0.0
10
78.5766983032227
20
71.0720977783203
40
0.0
41
0.0
42
0.0
10
78.6416015625
20
71.4815979003906
40
0.0
41
0.0
42
0.0
10
78.6415023803711
20
71.5177993774414
40
0.0
41
0.0
42
0.0
10
78.5530014038086
20
71.9477005004883
40
0.0
41
0.0
42
0.0
10
78.5193023681641
20
72.0109024047852
40
0.0
41
0.0
42
0.0
10
78.5139999389648
20
72.0234985351562
40
0.0
41
0.0
42
0.0
10
78.4795989990234
20
72.0751037597656
40
0.0
41
0.0
42
0.0
10
78.3080978393555
20
72.5106964111328
40
0.0
41
0.0
42
0.0
10
78.0308990478516
20
72.9822006225586
40
0.0
41
0.0
42
0.0
10
78.0058975219727
20
73.008903503418
40
0.0
41
0.0
42
0.0
10
77.9928970336914
20
73.0473022460938
40
0.0
41
0.0
42
0.0
10
77.9802017211914
20
73.057502746582
40
0.0
41
0.0
42
0.0
10
77.5959014892578
20
73.508903503418
40
0.0
41
0.0
42
0.0
10
77.6501007080078
20
73.5357971191406
40
0.0
41
0.0
42
0.0
10
77.999397277832
20
73.6788024902344
40
0.0
41
0.0
42
0.0
10
78.0447006225586
20
73.6782989501953
40
0.0
41
0.0
42
0.0
10
78.5064010620117
20
73.7226028442383
40
0.0
41
0.0
42
0.0
10
78.5431976318359
20
73.7226028442383
40
0.0
41
0.0
42
0.0
10
79.0152969360352
20
73.8031005859375
40
0.0
41
0.0
42
0.0
10
79.4913024902344
20
73.9367980957031
40
0.0
41
0.0
42
0.0
10
79.5156021118164
20
73.9385986328125
40
0.0
41
0.0
42
0.0
10
79.6887969970703
20
74.0001983642578
40
0.0
41
0.0
42
0.0
10
79.9720993041992
20
74.1983032226562
40
0.0
41
0.0
42
0.0
10
80.0755004882812
20
74.2200012207031
40
0.0
41
0.0
42
0.0
10
80.3666000366211
20
74.4615020751953
40
0.0
41
0.0
42
0.0
10
80.3961029052734
20
74.4890975952148
40
0.0
41
0.0
42
0.0
10
80.3960037231445
20
74.5158996582031
40
0.0
41
0.0
42
0.0
10
80.2675018310547
20
74.8337020874023
40
0.0
41
0.0
42
0.0
10
80.2108993530273
20
75.0058975219727
40
0.0
41
0.0
42
0.0
10
80.106201171875
20
75.0681991577148
40
0.0
41
0.0
42
0.0
10
80.0755004882812
20
75.0904006958008
40
0.0
41
0.0
42
0.0
10
80.0111999511719
20
75.1098022460938
40
0.0
41
0.0
42
0.0
10
79.5759963989258
20
75.3789978027344
40
0.0
41
0.0
42
0.0
10
79.5142974853516
20
75.3988037109375
40
0.0
41
0.0
42
0.0
10
79.486701965332
20
75.4055023193359
40
0.0
41
0.0
42
0.0
10
79.2923965454102
20
75.5009002685547
40
0.0
41
0.0
42
0.0
10
79.0286026000977
20
75.6139984130859
40
0.0
41
0.0
42
0.0
10
79.0139007568359
20
75.6167984008789
40
0.0
41
0.0
42
0.0
10
78.540901184082
20
75.7686004638672
40
0.0
41
0.0
42
0.0
10
78.5166015625
20
75.7704010009766
40
0.0
41
0.0
42
0.0
10
78.0427017211914
20
75.8751983642578
40
0.0
41
0.0
42
0.0
10
78.0086975097656
20
75.8750991821289
40
0.0
41
0.0
42
0.0
10
77.6857986450195
20
75.9760971069336
40
0.0
41
0.0
42
0.0
10
77.6557006835938
20
75.9760971069336
40
0.0
41
0.0
42
0.0
10
77.6376037597656
20
75.9634017944336
40
0.0
41
0.0
42
0.0
10
77.6155014038086
20
75.9761962890625
40
0.0
41
0.0
42
0.0
10
77.6094970703125
20
75.9763031005859
40
0.0
41
0.0
42
0.0
10
77.609001159668
20
75.9800033569336
40
0.0
41
0.0
42
0.0
10
77.5876007080078
20
75.9925994873047
40
0.0
41
0.0
42
0.0
10
77.5891036987305
20
76.0035018920898
40
0.0
41
0.0
42
0.0
10
77.6695022583008
20
76.0242004394531
40
0.0
41
0.0
42
0.0
10
77.6899032592773
20
76.0392990112305
40
0.0
41
0.0
42
0.0
10
78.0071029663086
20
76.1596984863281
40
0.0
41
0.0
42
0.0
10
78.2732009887695
20
76.4947967529297
40
0.0
41
0.0
42
0.0
10
78.3046035766602
20
76.5203018188477
40
0.0
41
0.0
42
0.0
10
78.5035018920898
20
76.7409973144531
40
0.0
41
0.0
42
0.0
10
78.6858978271484
20
76.9969024658203
40
0.0
41
0.0
42
0.0
10
78.7048034667969
20
77.0183029174805
40
0.0
41
0.0
42
0.0
10
78.9747009277344
20
77.4980010986328
40
0.0
41
0.0
42
0.0
10
79.0
20
77.5912017822266
40
0.0
41
0.0
42
0.0
10
79.1274032592773
20
77.9568023681641
40
0.0
41
0.0
42
0.0
10
79.1519012451172
20
77.9872970581055
40
0.0
41
0.0
42
0.0
10
79.1518020629883
20
78.0178985595703
40
0.0
41
0.0
42
0.0
10
79.0699996948242
20
78.4284973144531
40
0.0
41
0.0
42
0.0
10
79.1035003662109
20
78.4791030883789
40
0.0
41
0.0
42
0.0
10
79.1139984130859
20
78.4889984130859
40
0.0
41
0.0
42
0.0
10
79.1138000488281
20
78.5094985961914
40
0.0
41
0.0
42
0.0
10
79.0876007080078
20
78.5295028686523
40
0.0
41
0.0
42
0.0
10
79.0111999511719
20
78.6072998046875
40
0.0
41
0.0
42
0.0
10
78.9851989746094
20
78.6072006225586
40
0.0
41
0.0
42
0.0
10
78.9278030395508
20
78.5765991210938
40
0.0
41
0.0
42
0.0
10
78.5183029174805
20
78.6416015625
40
0.0
41
0.0
42
0.0
10
78.4821014404297
20
78.6415023803711
40
0.0
41
0.0
42
0.0
10
78.0522003173828
20
78.5531005859375
40
0.0
41
0.0
42
0.0
10
77.988899230957
20
78.519401550293
40
0.0
41
0.0
42
0.0
10
77.9761962890625
20
78.5140991210938
40
0.0
41
0.0
42
0.0
10
77.9245986938477
20
78.4795989990234
40
0.0
41
0.0
42
0.0
10
77.4891967773438
20
78.3081970214844
40
0.0
41
0.0
42
0.0
10
77.0175018310547
20
78.0308990478516
40
0.0
41
0.0
42
0.0
10
76.9909973144531
20
78.0058975219727
40
0.0
41
0.0
42
0.0
10
76.9524993896484
20
77.9928970336914
40
0.0
41
0.0
42
0.0
10
76.9422988891602
20
77.9802017211914
40
0.0
41
0.0
42
0.0
10
76.4908981323242
20
77.5958023071289
40
0.0
41
0.0
42
0.0
10
76.4638977050781
20
77.6501007080078
40
0.0
41
0.0
42
0.0
10
76.3208999633789
20
77.999397277832
40
0.0
41
0.0
42
0.0
10
76.321403503418
20
78.0447006225586
40
0.0
41
0.0
42
0.0
10
76.2772979736328
20
78.5064010620117
40
0.0
41
0.0
42
0.0
10
76.277099609375
20
78.5431976318359
40
0.0
41
0.0
42
0.0
10
76.1967010498047
20
79.0152969360352
40
0.0
41
0.0
42
0.0
10
76.0628967285156
20
79.4913024902344
40
0.0
41
0.0
42
0.0
10
76.0610961914062
20
79.5156021118164
40
0.0
41
0.0
42
0.0
10
75.9994964599609
20
79.6887969970703
40
0.0
41
0.0
42
0.0
10
75.801399230957
20
79.9720993041992
40
0.0
41
0.0
42
0.0
10
75.7797012329102
20
80.0755004882812
40
0.0
41
0.0
42
0.0
10
75.538200378418
20
80.3666000366211
40
0.0
41
0.0
42
0.0
10
75.5108032226562
20
80.3961029052734
40
0.0
41
0.0
42
0.0
10
75.484001159668
20
80.3960037231445
40
0.0
41
0.0
42
0.0
10
75.1660995483398
20
80.2675018310547
40
0.0
41
0.0
42
0.0
10
74.9940032958984
20
80.2109985351562
40
0.0
41
0.0
42
0.0
10
74.9315032958984
20
80.106201171875
40
0.0
41
0.0
42
0.0
10
74.9093017578125
20
80.0755004882812
40
0.0
41
0.0
42
0.0
10
74.8691024780273
20
79.9461975097656
40
0.0
41
0.0
42
0.0
10
74.6003036499023
20
79.5118026733398
40
0.0
41
0.0
42
0.0
10
74.5942001342773
20
79.486701965332
40
0.0
41
0.0
42
0.0
10
74.499397277832
20
79.2934036254883
40
0.0
41
0.0
42
0.0
10
74.3856964111328
20
79.0287017822266
40
0.0
41
0.0
42
0.0
10
74.3835983276367
20
79.0171966552734
40
0.0
41
0.0
42
0.0
10
74.3815002441406
20
78.9908981323242
40
0.0
41
0.0
42
0.0
10
74.2294998168945
20
78.5167007446289
40
0.0
41
0.0
42
0.0
10
74.2294998168945
20
78.4813003540039
40
0.0
41
0.0
42
0.0
10
74.1269989013672
20
78.0177001953125
40
0.0
41
0.0
42
0.0
10
74.1270980834961
20
78.0040969848633
40
0.0
41
0.0
42
0.0
10
74.0449981689453
20
77.7210006713867
40
0.0
41
0.0
42
0.0
10
74.0134963989258
20
77.6195983886719
40
0.0
41
0.0
42
0.0
10
74.0028991699219
20
77.6185989379883
40
0.0
41
0.0
42
0.0
10
73.975700378418
20
77.6701965332031
40
0.0
41
0.0
42
0.0
10
73.8516998291016
20
77.9968032836914
40
0.0
41
0.0
42
0.0
10
73.504997253418
20
78.2731018066406
40
0.0
41
0.0
42
0.0
10
73.4795989990234
20
78.3046035766602
40
0.0
41
0.0
42
0.0
10
73.2586975097656
20
78.5035018920898
40
0.0
41
0.0
42
0.0
10
73.002799987793
20
78.6858978271484
40
0.0
41
0.0
42
0.0
10
72.9825973510742
20
78.7041015625
40
0.0
41
0.0
42
0.0
10
72.5018005371094
20
78.9747009277344
40
0.0
41
0.0
42
0.0
10
72.4089965820312
20
78.9999008178711
40
0.0
41
0.0
42
0.0
10
72.0429992675781
20
79.1274032592773
40
0.0
41
0.0
42
0.0
10
72.0126037597656
20
79.1519012451172
40
0.0
41
0.0
42
0.0
10
71.9820022583008
20
79.1518020629883
40
0.0
41
0.0
42
0.0
10
71.5712966918945
20
79.0699996948242
40
0.0
41
0.0
42
0.0
10
71.5205993652344
20
79.103401184082
40
0.0
41
0.0
42
0.0
10
71.5109024047852
20
79.113899230957
40
0.0
41
0.0
42
0.0
10
71.4901962280273
20
79.113899230957
40
0.0
41
0.0
42
0.0
10
71.4701995849609
20
79.0876007080078
40
0.0
41
0.0
42
0.0
10
71.3926010131836
20
79.0111999511719
40
0.0
41
0.0
42
0.0
10
71.3925018310547
20
78.9851989746094
40
0.0
41
0.0
42
0.0
10
71.4231033325195
20
78.9278030395508
40
0.0
41
0.0
42
0.0
10
71.3582992553711
20
78.5183029174805
40
0.0
41
0.0
42
0.0
10
71.3582000732422
20
78.4851989746094
40
0.0
41
0.0
42
0.0
10
71.3917007446289
20
78.4220962524414
40
0.0
41
0.0
42
0.0
10
71.4814987182617
20
77.9860992431641
40
0.0
41
0.0
42
0.0
10
71.4857025146484
20
77.9761962890625
40
0.0
41
0.0
42
0.0
10
71.5201034545898
20
77.9245986938477
40
0.0
41
0.0
42
0.0
10
71.6915969848633
20
77.4891967773438
40
0.0
41
0.0
42
0.0
10
71.9688034057617
20
77.0175018310547
40
0.0
41
0.0
42
0.0
10
71.9936981201172
20
76.9912033081055
40
0.0
41
0.0
42
0.0
10
71.9981994628906
20
76.9791030883789
40
0.0
41
0.0
42
0.0
10
72.2031021118164
20
76.7615966796875
40
0.0
41
0.0
42
0.0
10
72.4248962402344
20
76.5011978149414
40
0.0
41
0.0
42
0.0
10
72.3498001098633
20
76.4642028808594
40
0.0
41
0.0
42
0.0
10
72.0005035400391
20
76.3208999633789
40
0.0
41
0.0
42
0.0
10
71.9551010131836
20
76.321403503418
40
0.0
41
0.0
42
0.0
10
71.4934005737305
20
76.2772979736328
40
0.0
41
0.0
42
0.0
10
71.4567031860352
20
76.2771987915039
40
0.0
41
0.0
42
0.0
10
70.9845962524414
20
76.1967010498047
40
0.0
41
0.0
42
0.0
10
70.5085983276367
20
76.0628967285156
40
0.0
41
0.0
42
0.0
10
70.4842987060547
20
76.0610961914062
40
0.0
41
0.0
42
0.0
10
70.3114013671875
20
75.9998016357422
40
0.0
41
0.0
42
0.0
10
70.0278015136719
20
75.801399230957
40
0.0
41
0.0
42
0.0
10
69.9244003295898
20
75.7797012329102
40
0.0
41
0.0
42
0.0
10
69.6331024169922
20
75.5382995605469
40
0.0
41
0.0
42
0.0
10
69.6037979125977
20
75.5108032226562
40
0.0
41
0.0
42
0.0
10
69.6036987304688
20
75.484001159668
40
0.0
41
0.0
42
0.0
10
69.7322006225586
20
75.1660003662109
40
0.0
41
0.0
42
0.0
10
69.7888031005859
20
74.993896484375
40
0.0
41
0.0
42
0.0
10
69.8935012817383
20
74.9315032958984
40
0.0
41
0.0
42
0.0
10
69.9244003295898
20
74.9093017578125
40
0.0
41
0.0
42
0.0
10
69.986198425293
20
74.8907012939453
40
0.0
41
0.0
42
0.0
10
70.0538024902344
20
74.8690032958984
40
0.0
41
0.0
42
0.0
210
0.0
220
0.0
230
1.0
0
LWPOLYLINE
5
28
330
1C
100
AcDbEntity
67
0
8
0
62
256
6
ByLayer
370
-1
48
1.0
60
0
100
AcDbPolyline
90
330
70
1
38
0.0
39
0.0
10
69.83740234375
20
75.0058975219727
40
0.0
41
0.0
42
0.0
10
69.8125991821289
20
75.0814971923828
40
0.0
41
0.0
42
0.0
10
69.6445007324219
20
75.4972991943359
40
0.0
41
0.0
42
0.0
10
69.9856033325195
20
75.7801971435547
40
0.0
41
0.0
42
0.0
10
70.0390014648438
20
75.7913970947266
40
0.0
41
0.0
42
0.0
10
70.0749969482422
20
75.8050994873047
40
0.0
41
0.0
42
0.0
10
70.3466033935547
20
75.995002746582
40
0.0
41
0.0
42
0.0
10
70.5156021118164
20
76.0556030273438
40
0.0
41
0.0
42
0.0
10
70.581298828125
20
76.0605010986328
40
0.0
41
0.0
42
0.0
10
71.0152969360352
20
76.1826019287109
40
0.0
41
0.0
42
0.0
10
71.4445037841797
20
76.2556991577148
40
0.0
41
0.0
42
0.0
10
71.5192031860352
20
76.2540969848633
40
0.0
41
0.0
42
0.0
10
71.9251022338867
20
76.293098449707
40
0.0
41
0.0
42
0.0
10
71.9829025268555
20
76.2761993408203
40
0.0
41
0.0
42
0.0
10
72.0158004760742
20
76.2761993408203
40
0.0
41
0.0
42
0.0
10
72.3267974853516
20
76.4039001464844
40
0.0
41
0.0
42
0.0
10
72.4898986816406
20
76.4841995239258
40
0.0
41
0.0
42
0.0
10
72.4963989257812
20
76.4580001831055
40
0.0
41
0.0
42
0.0
10
72.5008010864258
20
76.4581985473633
40
0.0
41
0.0
42
0.0
10
72.5029983520508
20
76.4809036254883
40
0.0
41
0.0
42
0.0
10
72.5029983520508
20
76.5096969604492
40
0.0
41
0.0
42
0.0
10
72.0380020141602
20
76.9878997802734
40
0.0
41
0.0
42
0.0
10
72.0171966552734
20
77.0045013427734
40
0.0
41
0.0
42
0.0
10
71.9548034667969
20
77.0723037719727
40
0.0
41
0.0
42
0.0
10
71.6970977783203
20
77.5106964111328
40
0.0
41
0.0
42
0.0
10
71.5308990478516
20
77.9328002929688
40
0.0
41
0.0
42
0.0
10
71.5131988525391
20
77.9694976806641
40
0.0
41
0.0
42
0.0
10
71.4963989257812
20
77.995002746582
40
0.0
41
0.0
42
0.0
10
71.4886016845703
20
78.0137023925781
40
0.0
41
0.0
42
0.0
10
71.3908996582031
20
78.4877014160156
40
0.0
41
0.0
42
0.0
10
71.3806991577148
20
78.5071029663086
40
0.0
41
0.0
42
0.0
10
71.4517974853516
20
78.9565963745117
40
0.0
41
0.0
42
0.0
10
71.4518966674805
20
79.0018005371094
40
0.0
41
0.0
42
0.0
10
71.4756011962891
20
79.0251998901367
40
0.0
41
0.0
42
0.0
10
71.4952011108398
20
79.0510025024414
40
0.0
41
0.0
42
0.0
10
71.5429000854492
20
79.0509033203125
40
0.0
41
0.0
42
0.0
10
71.9934997558594
20
79.1406021118164
40
0.0
41
0.0
42
0.0
10
72.0062026977539
20
79.1303024291992
40
0.0
41
0.0
42
0.0
10
72.0271987915039
20
79.1207962036133
40
0.0
41
0.0
42
0.0
10
72.3740005493164
20
79.0
40
0.0
41
0.0
42
0.0
10
72.4626998901367
20
78.9758987426758
40
0.0
41
0.0
42
0.0
10
72.4906005859375
20
78.9588012695312
40
0.0
41
0.0
42
0.0
10
72.9272003173828
20
78.7135009765625
40
0.0
41
0.0
42
0.0
10
72.9831008911133
20
78.6633987426758
40
0.0
41
0.0
42
0.0
10
73.2175979614258
20
78.4962997436523
40
0.0
41
0.0
42
0.0
10
73.4301986694336
20
78.3051986694336
40
0.0
41
0.0
42
0.0
10
73.4947967529297
20
78.2248992919922
40
0.0
41
0.0
42
0.0
10
73.7829971313477
20
77.9960021972656
40
0.0
41
0.0
42
0.0
10
73.8175964355469
20
77.9654998779297
40
0.0
41
0.0
42
0.0
10
73.9338989257812
20
77.6594009399414
40
0.0
41
0.0
42
0.0
10
73.9576034545898
20
77.6195983886719
40
0.0
41
0.0
42
0.0
10
73.9842987060547
20
77.4854965209961
40
0.0
41
0.0
42
0.0
10
73.9926986694336
20
77.461799621582
40
0.0
41
0.0
42
0.0
10
73.9960021972656
20
77.4498977661133
40
0.0
41
0.0
42
0.0
10
74.0106964111328
20
77.4498977661133
40
0.0
41
0.0
42
0.0
10
74.0456008911133
20
77.4880981445312
40
0.0
41
0.0
42
0.0
10
74.0455017089844
20
77.5102996826172
40
0.0
41
0.0
42
0.0
10
74.0297012329102
20
77.5239028930664
40
0.0
41
0.0
42
0.0
10
74.1585998535156
20
77.9686965942383
40
0.0
41
0.0
42
0.0
10
74.1585006713867
20
78.007698059082
40
0.0
41
0.0
42
0.0
10
74.2490005493164
20
78.4171981811523
40
0.0
41
0.0
42
0.0
10
74.2489013671875
20
78.4539031982422
40
0.0
41
0.0
42
0.0
10
74.2452011108398
20
78.49169921875
40
0.0
41
0.0
42
0.0
10
74.3822021484375
20
78.9189987182617
40
0.0
41
0.0
42
0.0
10
74.3871994018555
20
78.9826965332031
40
0.0
41
0.0
42
0.0
10
74.394401550293
20
79.0220031738281
40
0.0
41
0.0
42
0.0
10
74.5008010864258
20
79.2680969238281
40
0.0
41
0.0
42
0.0
10
74.6031036376953
20
79.4769973754883
40
0.0
41
0.0
42
0.0
10
74.6057968139648
20
79.4880981445312
40
0.0
41
0.0
42
0.0
10
74.9001998901367
20
79.9636993408203
40
0.0
41
0.0
42
0.0
10
74.915901184082
20
80.0145034790039
40
0.0
41
0.0
42
0.0
10
74.9264984130859
20
80.0290985107422
40
0.0
41
0.0
42
0.0
10
75.0059967041016
20
80.1623001098633
40
0.0
41
0.0
42
0.0
10
75.0814971923828
20
80.1871032714844
40
0.0
41
0.0
42
0.0
10
75.4972991943359
20
80.3552017211914
40
0.0
41
0.0
42
0.0
10
75.7801971435547
20
80.0142974853516
40
0.0
41
0.0
42
0.0
10
75.7912979125977
20
79.9608001708984
40
0.0
41
0.0
42
0.0
10
75.8050003051758
20
79.9247970581055
40
0.0
41
0.0
42
0.0
10
75.995002746582
20
79.6530990600586
40
0.0
41
0.0
42
0.0
10
76.0556030273438
20
79.4843978881836
40
0.0
41
0.0
42
0.0
10
76.0607986450195
20
79.4173965454102
40
0.0
41
0.0
42
0.0
10
76.1826019287109
20
78.9845962524414
40
0.0
41
0.0
42
0.0
10
76.2556991577148
20
78.5553970336914
40
0.0
41
0.0
42
0.0
10
76.2540969848633
20
78.4806976318359
40
0.0
41
0.0
42
0.0
10
76.293098449707
20
78.0746994018555
40
0.0
41
0.0
42
0.0
10
76.2761993408203
20
78.0168991088867
40
0.0
41
0.0
42
0.0
10
76.2761993408203
20
77.9841003417969
40
0.0
41
0.0
42
0.0
10
76.4038009643555
20
77.6731033325195
40
0.0
41
0.0
42
0.0
10
76.4844970703125
20
77.5095977783203
40
0.0
41
0.0
42
0.0
10
76.4580001831055
20
77.5034027099609
40
0.0
41
0.0
42
0.0
10
76.4580993652344
20
77.4990005493164
40
0.0
41
0.0
42
0.0
10
76.4809036254883
20
77.4969024658203
40
0.0
41
0.0
42
0.0
10
76.5056991577148
20
77.4969024658203
40
0.0
41
0.0
42
0.0
10
76.5335998535156
20
77.5878982543945
40
0.0
41
0.0
42
0.0
10
76.9350967407227
20
77.9297027587891
40
0.0
41
0.0
42
0.0
10
76.9708023071289
20
77.9741973876953
40
0.0
41
0.0
42
0.0
10
77.0091018676758
20
77.986701965332
40
0.0
41
0.0
42
0.0
10
77.0724029541016
20
78.0448989868164
40
0.0
41
0.0
42
0.0
10
77.5106964111328
20
78.3026962280273
40
0.0
41
0.0
42
0.0
10
77.9328002929688
20
78.4688034057617
40
0.0
41
0.0
42
0.0
10
77.9694976806641
20
78.4865036010742
40
0.0
41
0.0
42
0.0
10
77.995002746582
20
78.5035018920898
40
0.0
41
0.0
42
0.0
10
78.0110015869141
20
78.5101013183594
40
0.0
41
0.0
42
0.0
10
78.0380020141602
20
78.5243988037109
40
0.0
41
0.0
42
0.0
10
78.5020980834961
20
78.6199035644531
40
0.0
41
0.0
42
0.0
10
78.9565963745117
20
78.5478973388672
40
0.0
41
0.0
42
0.0
10
79.0017013549805
20
78.5478973388672
40
0.0
41
0.0
42
0.0
10
79.0251007080078
20
78.5241012573242
40
0.0
41
0.0
42
0.0
10
79.0510025024414
20
78.5046005249023
40
0.0
41
0.0
42
0.0
10
79.0509033203125
20
78.4570007324219
40
0.0
41
0.0
42
0.0
10
79.1406021118164
20
78.0065002441406
40
0.0
41
0.0
42
0.0
10
79.1304016113281
20
77.9935989379883
40
0.0
41
0.0
42
0.0
10
79.1209030151367
20
77.9726028442383
40
0.0
41
0.0
42
0.0
10
79.0
20
77.6257019042969
40
0.0
41
0.0
42
0.0
10
78.9758987426758
20
77.5370025634766
40
0.0
41
0.0
42
0.0
10
78.9589004516602
20
77.5093002319336
40
0.0
41
0.0
42
0.0
10
78.7136001586914
20
77.0726013183594
40
0.0
41
0.0
42
0.0
10
78.6634979248047
20
77.0167007446289
40
0.0
41
0.0
42
0.0
10
78.4963989257812
20
76.7822036743164
40
0.0
41
0.0
42
0.0
10
78.3051986694336
20
76.5697021484375
40
0.0
41
0.0
42
0.0
10
78.2248992919922
20
76.5050964355469
40
0.0
41
0.0
42
0.0
10
77.9927978515625
20
76.2126007080078
40
0.0
41
0.0
42
0.0
10
77.7157974243164
20
76.1074981689453
40
0.0
41
0.0
42
0.0
10
77.6595001220703
20
76.0655975341797
40
0.0
41
0.0
42
0.0
10
77.5024032592773
20
76.0246963500977
40
0.0
41
0.0
42
0.0
10
77.488899230957
20
76.0167007446289
40
0.0
41
0.0
42
0.0
10
77.461799621582
20
76.0070037841797
40
0.0
41
0.0
42
0.0
10
77.4498977661133
20
76.0037994384766
40
0.0
41
0.0
42
0.0
10
77.4497985839844
20
75.9891967773438
40
0.0
41
0.0
42
0.0
10
77.4925003051758
20
75.9502029418945
40
0.0
41
0.0
42
0.0
10
77.6025009155273
20
75.885498046875
40
0.0
41
0.0
42
0.0
10
77.6300964355469
20
75.8855972290039
40
0.0
41
0.0
42
0.0
10
77.7009963989258
20
75.9349975585938
40
0.0
41
0.0
42
0.0
10
77.9832000732422
20
75.8468017578125
40
0.0
41
0.0
42
0.0
10
78.0188980102539
20
75.8468017578125
40
0.0
41
0.0
42
0.0
10
78.0587005615234
20
75.8507995605469
40
0.0
41
0.0
42
0.0
10
78.4830017089844
20
75.7571029663086
40
0.0
41
0.0
42
0.0
10
78.5490036010742
20
75.7519989013672
40
0.0
41
0.0
42
0.0
10
78.9850997924805
20
75.6121978759766
40
0.0
41
0.0
42
0.0
10
79.0220031738281
20
75.6053009033203
40
0.0
41
0.0
42
0.0
10
79.2682037353516
20
75.4990005493164
40
0.0
41
0.0
42
0.0
10
79.4775009155273
20
75.3963012695312
40
0.0
41
0.0
42
0.0
10
79.5136032104492
20
75.3855972290039
40
0.0
41
0.0
42
0.0
10
79.9886016845703
20
75.0915985107422
40
0.0
41
0.0
42
0.0
10
80.0142974853516
20
75.0839004516602
40
0.0
41
0.0
42
0.0
10
80.0290985107422
20
75.0733032226562
40
0.0
41
0.0
42
0.0
10
80.1623001098633
20
74.993896484375
40
0.0
41
0.0
42
0.0
10
80.1871032714844
20
74.9181976318359
40
0.0
41
0.0
42
0.0
10
80.3553009033203
20
74.5026016235352
40
0.0
41
0.0
42
0.0
10
80.0143966674805
20
74.2194976806641
40
0.0
41
0.0
42
0.0
10
79.9608993530273
20
74.2083969116211
40
0.0
41
0.0
42
0.0
10
79.9248962402344
20
74.1947021484375
40
0.0
41
0.0
42
0.0
10
79.6531982421875
20
74.0046997070312
40
0.0
41
0.0
42
0.0
10
79.4843978881836
20
73.9440994262695
40
0.0
41
0.0
42
0.0
10
79.4173965454102
20
73.9389038085938
40
0.0
41
0.0
42
0.0
10
78.9845962524414
20
73.8171005249023
40
0.0
41
0.0
42
0.0
10
78.5553970336914
20
73.7440032958984
40
0.0
41
0.0
42
0.0
10
78.4806976318359
20
73.7455978393555
40
0.0
41
0.0
42
0.0
10
78.0746002197266
20
73.7065963745117
40
0.0
41
0.0
42
0.0
10
78.0168991088867
20
73.723503112793
40
0.0
41
0.0
42
0.0
10
77.9841003417969
20
73.723503112793
40
0.0
41
0.0
42
0.0
10
77.6731033325195
20
73.5960006713867
40
0.0
41
0.0
42
0.0
10
77.5094985961914
20
73.5151977539062
40
0.0
41
0.0
42
0.0
10
77.3943023681641
20
74.0034027099609
40
0.0
41
0.0
42
0.0
10
77.0775985717773
20
74.10009765625
40
0.0
41
0.0
42
0.0
10
77.0140991210938
20
74.1280975341797
40
0.0
41
0.0
42
0.0
10
76.5756988525391
20
74.1889038085938
40
0.0
41
0.0
42
0.0
10
76.5579986572266
20
74.2046966552734
40
0.0
41
0.0
42
0.0
10
76.5335006713867
20
74.5080032348633
40
0.0
41
0.0
42
0.0
10
76.508903503418
20
74.5243988037109
40
0.0
41
0.0
42
0.0
10
76.0766983032227
20
74.7732009887695
40
0.0
41
0.0
42
0.0
10
76.0156021118164
20
74.7904968261719
40
0.0
41
0.0
42
0.0
10
75.9502029418945
20
74.7995986938477
40
0.0
41
0.0
42
0.0
10
75.9197006225586
20
74.7995986938477
40
0.0
41
0.0
42
0.0
10
75.6727981567383
20
74.5790023803711
40
0.0
41
0.0
42
0.0
10
75.6743011474609
20
74.5117034912109
40
0.0
41
0.0
42
0.0
10
75.4932022094727
20
74.2042007446289
40
0.0
41
0.0
42
0.0
10
75.450798034668
20
74.2077026367188
40
0.0
41
0.0
42
0.0
10
75.421501159668
20
74.2077026367188
40
0.0
41
0.0
42
0.0
10
75.3156967163086
20
74.0805969238281
40
0.0
41
0.0
42
0.0
10
75.3155975341797
20
74.0502014160156
40
0.0
41
0.0
42
0.0
10
75.328498840332
20
73.9832992553711
40
0.0
41
0.0
42
0.0
10
75.3357009887695
20
73.9283981323242
40
0.0
41
0.0
42
0.0
10
75.3105010986328
20
73.5193023681641
40
0.0
41
0.0
42
0.0
10
75.3104019165039
20
73.4823989868164
40
0.0
41
0.0
42
0.0
10
75.3252029418945
20
73.4199981689453
40
0.0
41
0.0
42
0.0
10
75.4375991821289
20
72.9852981567383
40
0.0
41
0.0
42
0.0
10
75.4880981445312
20
72.8003997802734
40
0.0
41
0.0
42
0.0
10
75.4952011108398
20
72.7789993286133
40
0.0
41
0.0
42
0.0
10
75.5095977783203
20
72.7789001464844
40
0.0
41
0.0
42
0.0
10
75.5858993530273
20
72.8787002563477
40
0.0
41
0.0
42
0.0
10
75.7031021118164
20
72.9889984130859
40
0.0
41
0.0
42
0.0
10
75.7030029296875
20
73.0118026733398
40
0.0
41
0.0
42
0.0
10
75.647102355957
20
73.0730972290039
40
0.0
41
0.0
42
0.0
10
75.6974029541016
20
73.481201171875
40
0.0
41
0.0
42
0.0
10
75.6973037719727
20
73.5186996459961
40
0.0
41
0.0
42
0.0
10
75.6391983032227
20
73.9929962158203
40
0.0
41
0.0
42
0.0
10
76.0024032592773
20
74.2432022094727
40
0.0
41
0.0
42
0.0
10
76.4465026855469
20
73.9977035522461
40
0.0
41
0.0
42
0.0
10
76.4904022216797
20
73.9664993286133
40
0.0
41
0.0
42
0.0
10
76.5513000488281
20
73.9393005371094
40
0.0
41
0.0
42
0.0
10
76.9820022583008
20
73.8563995361328
40
0.0
41
0.0
42
0.0
10
77.0158996582031
20
73.8563003540039
40
0.0
41
0.0
42
0.0
10
77.2177963256836
20
73.938102722168
40
0.0
41
0.0
42
0.0
10
77.4894027709961
20
73.4962005615234
40
0.0
41
0.0
42
0.0
10
77.5877990722656
20
73.4662017822266
40
0.0
41
0.0
42
0.0
10
77.9296035766602
20
73.064697265625
40
0.0
41
0.0
42
0.0
10
77.9741973876953
20
73.0289993286133
40
0.0
41
0.0
42
0.0
10
77.986701965332
20
72.9907989501953
40
0.0
41
0.0
42
0.0
10
78.0448989868164
20
72.9274978637695
40
0.0
41
0.0
42
0.0
10
78.3025970458984
20
72.4890975952148
40
0.0
41
0.0
42
0.0
10
78.4688034057617
20
72.0670013427734
40
0.0
41
0.0
42
0.0
10
78.4865036010742
20
72.0301971435547
40
0.0
41
0.0
42
0.0
10
78.5030975341797
20
72.0053024291992
40
0.0
41
0.0
42
0.0
10
78.5243988037109
20
71.9615020751953
40
0.0
41
0.0
42
0.0
10
78.620002746582
20
71.497802734375
40
0.0
41
0.0
42
0.0
10
78.5478973388672
20
71.0432968139648
40
0.0
41
0.0
42
0.0
10
78.5478973388672
20
70.9980010986328
40
0.0
41
0.0
42
0.0
10
78.5241012573242
20
70.9746017456055
40
0.0
41
0.0
42
0.0
10
78.5046005249023
20
70.9489974975586
40
0.0
41
0.0
42
0.0
10
78.4570007324219
20
70.9488983154297
40
0.0
41
0.0
42
0.0
10
78.0065002441406
20
70.8591003417969
40
0.0
41
0.0
42
0.0
10
77.9935989379883
20
70.8693008422852
40
0.0
41
0.0
42
0.0
10
77.9726028442383
20
70.8787994384766
40
0.0
41
0.0
42
0.0
10
77.6257019042969
20
70.9998016357422
40
0.0
41
0.0
42
0.0
10
77.5370025634766
20
71.0238037109375
40
0.0
41
0.0
42
0.0
10
77.5093002319336
20
71.040901184082
40
0.0
41
0.0
42
0.0
10
77.0726013183594
20
71.2862014770508
40
0.0
41
0.0
42
0.0
10
77.0167007446289
20
71.3363037109375
40
0.0
41
0.0
42
0.0
10
76.782096862793
20
71.5035018920898
40
0.0
41
0.0
42
0.0
10
76.5877990722656
20
71.678596496582
40
0.0
41
0.0
42
0.0
10
76.5053024291992
20
71.7745971679688
40
0.0
41
0.0
42
0.0
10
76.2126007080078
20
72.0070037841797
40
0.0
41
0.0
42
0.0
10
76.1063003540039
20
72.2869033813477
40
0.0
41
0.0
42
0.0
10
76.043098449707
20
72.4683990478516
40
0.0
41
0.0
42
0.0
10
76.0167007446289
20
72.5106964111328
40
0.0
41
0.0
42
0.0
10
76.0070037841797
20
72.5380020141602
40
0.0
41
0.0
42
0.0
10
76.0037994384766
20
72.5501022338867
40
0.0
41
0.0
42
0.0
10
75.9891967773438
20
72.5500030517578
40
0.0
41
0.0
42
0.0
10
75.9542999267578
20
72.5118026733398
40
0.0
41
0.0
42
0.0
10
75.9542007446289
20
72.489501953125
40
0.0
41
0.0
42
0.0
10
75.9700012207031
20
72.4757995605469
40
0.0
41
0.0
42
0.0
10
75.8413009643555
20
72.0311965942383
40
0.0
41
0.0
42
0.0
10
75.8412017822266
20
71.9981002807617
40
0.0
41
0.0
42
0.0
10
75.8463973999023
20
71.9849014282227
40
0.0
41
0.0
42
0.0
10
75.8507995605469
20
71.9412002563477
40
0.0
41
0.0
42
0.0
10
75.7571029663086
20
71.5168991088867
40
0.0
41
0.0
42
0.0
10
75.7519989013672
20
71.4508972167969
40
0.0
41
0.0
42
0.0
10
75.6121978759766
20
71.0148010253906
40
0.0
41
0.0
42
0.0
10
75.6053009033203
20
70.9777984619141
40
0.0
41
0.0
42
0.0
10
75.4990005493164
20
70.7315979003906
40
0.0
41
0.0
42
0.0
10
75.3964004516602
20
70.5223007202148
40
0.0
41
0.0
42
0.0
10
75.3856964111328
20
70.4862976074219
40
0.0
41
0.0
42
0.0
10
75.0916976928711
20
70.0112991333008
40
0.0
41
0.0
42
0.0
10
75.0839004516602
20
69.9856033325195
40
0.0
41
0.0
42
0.0
10
75.0733032226562
20
69.970703125
40
0.0
41
0.0
42
0.0
10
74.9940032958984
20
69.83740234375
40
0.0
41
0.0
42
0.0
10
74.9182968139648
20
69.8125991821289
40
0.0
41
0.0
42
0.0
10
74.5026016235352
20
69.644401550293
40
0.0
41
0.0
42
0.0
10
74.2194976806641
20
69.9854965209961
40
0.0
41
0.0
42
0.0
10
74.2083969116211
20
70.0390014648438
40
0.0
41
0.0
42
0.0
10
74.1946029663086
20
70.0749969482422
40
0.0
41
0.0
42
0.0
10
74.0046997070312
20
70.3466033935547
40
0.0
41
0.0
42
0.0
10
73.9440994262695
20
70.5155029296875
40
0.0
41
0.0
42
0.0
10
73.9392013549805
20
70.581298828125
40
0.0
41
0.0
42
0.0
10
73.8171005249023
20
71.0152969360352
40
0.0
41
0.0
42
0.0
10
73.7440032958984
20
71.4445037841797
40
0.0
41
0.0
42
0.0
10
73.7455978393555
20
71.5192031860352
40
0.0
41
0.0
42
0.0
10
73.7065963745117
20
71.9251022338867
40
0.0
41
0.0
42
0.0
10
73.723503112793
20
71.9830017089844
40
0.0
41
0.0
42
0.0
10
73.723503112793
20
72.0158004760742
40
0.0
41
0.0
42
0.0
10
73.5959014892578
20
72.3267974853516
40
0.0
41
0.0
42
0.0
10
73.5156021118164
20
72.4898986816406
40
0.0
41
0.0
42
0.0
10
73.5417022705078
20
72.4963989257812
40
0.0
41
0.0
42
0.0
10
73.5416030883789
20
72.5007019042969
40
0.0
41
0.0
42
0.0
10
73.5189971923828
20
72.5029983520508
40
0.0
41
0.0
42
0.0
10
73.4888000488281
20
72.5028991699219
40
0.0
41
0.0
42
0.0
10
73.0627975463867
20
72.0683975219727
40
0.0
41
0.0
42
0.0
10
73.010498046875
20
72.0362014770508
40
0.0
41
0.0
42
0.0
10
72.9953994750977
20
72.0173034667969
40
0.0
41
0.0
42
0.0
10
72.9275970458984
20
71.9548034667969
40
0.0
41
0.0
42
0.0
10
72.4891967773438
20
71.6970977783203
40
0.0
41
0.0
42
0.0
10
72.0670013427734
20
71.5308990478516
40
0.0
41
0.0
42
0.0
10
72.0302963256836
20
71.5131988525391
40
0.0
41
0.0
42
0.0
10
72.0047988891602
20
71.4963989257812
40
0.0
41
0.0
42
0.0
10
71.986198425293
20
71.4886016845703
40
0.0
41
0.0
42
0.0
10
71.5121994018555
20
71.390998840332
40
0.0
41
0.0
42
0.0
10
71.4927978515625
20
71.3805999755859
40
0.0
41
0.0
42
0.0
10
71.0432968139648
20
71.4517974853516
40
0.0
41
0.0
42
0.0
10
70.9980010986328
20
71.4517974853516
40
0.0
41
0.0
42
0.0
10
70.9746017456055
20
71.4756011962891
40
0.0
41
0.0
42
0.0
10
70.9489974975586
20
71.4952011108398
40
0.0
41
0.0
42
0.0
10
70.9487991333008
20
71.5429000854492
40
0.0
41
0.0
42
0.0
10
70.8591003417969
20
71.9934997558594
40
0.0
41
0.0
42
0.0
10
70.8694000244141
20
72.0063018798828
40
0.0
41
0.0
42
0.0
10
70.8788986206055
20
72.0271987915039
40
0.0
41
0.0
42
0.0
10
70.9999008178711
20
72.3740997314453
40
0.0
41
0.0
42
0.0
10
71.0238037109375
20
72.4627990722656
40
0.0
41
0.0
42
0.0
10
71.040901184082
20
72.4906005859375
40
0.0
41
0.0
42
0.0
10
71.2862014770508
20
72.9272994995117
40
0.0
41
0.0
42
0.0
10
71.3364028930664
20
72.9831008911133
40
0.0
41
0.0
42
0.0
10
71.5035018920898
20
73.2175979614258
40
0.0
41
0.0
42
0.0
10
71.6946029663086
20
73.4301986694336
40
0.0
41
0.0
42
0.0
10
71.77490234375
20
73.4949035644531
40
0.0
41
0.0
42
0.0
10
72.0037994384766
20
73.7829971313477
40
0.0
41
0.0
42
0.0
10
72.0342025756836
20
73.8175964355469
40
0.0
41
0.0
42
0.0
10
72.3404006958008
20
73.9338989257812
40
0.0
41
0.0
42
0.0
10
72.3802032470703
20
73.9576034545898
40
0.0
41
0.0
42
0.0
10
72.5142974853516
20
73.9842987060547
40
0.0
41
0.0
42
0.0
10
72.5380020141602
20
73.9926986694336
40
0.0
41
0.0
42
0.0
10
72.5501022338867
20
73.9961013793945
40
0.0
41
0.0
42
0.0
10
72.5500030517578
20
74.0105972290039
40
0.0
41
0.0
42
0.0
10
72.5118026733398
20
74.0456008911133
40
0.0
41
0.0
42
0.0
10
72.489501953125
20
74.0456008911133
40
0.0
41
0.0
42
0.0
10
72.4757995605469
20
74.0297012329102
40
0.0
41
0.0
42
0.0
10
72.0311965942383
20
74.1585998535156
40
0.0
41
0.0
42
0.0
10
71.9919967651367
20
74.1584014892578
40
0.0
41
0.0
42
0.0
10
71.5827026367188
20
74.2490005493164
40
0.0
41
0.0
42
0.0
10
71.5459976196289
20
74.2490005493164
40
0.0
41
0.0
42
0.0
10
71.5082015991211
20
74.2452011108398
40
0.0
41
0.0
42
0.0
10
71.0809020996094
20
74.3822021484375
40
0.0
41
0.0
42
0.0
10
71.0171966552734
20
74.3871994018555
40
0.0
41
0.0
42
0.0
10
70.9777984619141
20
74.394401550293
40
0.0
41
0.0
42
0.0
10
70.7315979003906
20
74.5007019042969
40
0.0
41
0.0
42
0.0
10
70.5227966308594
20
74.6031036376953
40
0.0
41
0.0
42
0.0
10
70.5117034912109
20
74.6057968139648
40
0.0
41
0.0
42
0.0
10
70.0361022949219
20
74.9001007080078
40
0.0
41
0.0
42
0.0
10
69.9854965209961
20
74.9158020019531
40
0.0
41
0.0
42
0.0
10
69.970703125
20
74.926399230957
40
0.0
41
0.0
42
0.0
10
69.83740234375
20
75.0058975219727
40
0.0
41
0.0
42
0.0
210
0.0
220
0.0
230
1.0
0
LWPOLYLINE
5
29
330
1C
100
AcDbEntity
67
0
8
0
62
256
6
ByLayer
370
-1
48
1.0
60
0
100
AcDbPolyline
90
75
70
1
38
0.0
39
0.0
10
72.2802963256836
20
65.4835968017578
40
0.0
41
0.0
42
0.0
10
72.3609008789062
20
65.2574005126953
40
0.0
41
0.0
42
0.0
10
72.4475021362305
20
65.0009994506836
40
0.0
41
0.0
42
0.0
10
72.5166015625
20
65.0009994506836
40
0.0
41
0.0
42
0.0
10
72.5165023803711
20
65.0157012939453
40
0.0
41
0.0
42
0.0
10
72.5002975463867
20
65.0546035766602
40
0.0
41
0.0
42
0.0
10
72.3367004394531
20
65.5136032104492
40
0.0
41
0.0
42
0.0
10
72.3449020385742
20
65.7982025146484
40
0.0
41
0.0
42
0.0
10
72.3448028564453
20
65.8371963500977
40
0.0
41
0.0
42
0.0
10
72.3315963745117
20
65.9899978637695
40
0.0
41
0.0
42
0.0
10
72.5019989013672
20
66.2814025878906
40
0.0
41
0.0
42
0.0
10
72.5392990112305
20
66.3410034179688
40
0.0
41
0.0
42
0.0
10
72.5813980102539
20
66.4201965332031
40
0.0
41
0.0
42
0.0
10
72.581901550293
20
66.4841003417969
40
0.0
41
0.0
42
0.0
10
72.6052017211914
20
66.5422973632812
40
0.0
41
0.0
42
0.0
10
73.0063018798828
20
66.8993988037109
40
0.0
41
0.0
42
0.0
10
73.1240005493164
20
66.994499206543
40
0.0
41
0.0
42
0.0
10
73.1417999267578
20
67.0195007324219
40
0.0
41
0.0
42
0.0
10
73.1660003662109
20
67.0390014648438
40
0.0
41
0.0
42
0.0
10
73.5085983276367
20
67.2865982055664
40
0.0
41
0.0
42
0.0
10
73.8817977905273
20
67.4969024658203
40
0.0
41
0.0
42
0.0
10
73.9233016967773
20
67.5379028320312
40
0.0
41
0.0
42
0.0
10
74.0102005004883
20
67.6004028320312
40
0.0
41
0.0
42
0.0
10
74.0845031738281
20
67.6260986328125
40
0.0
41
0.0
42
0.0
10
74.4928970336914
20
67.6968994140625
40
0.0
41
0.0
42
0.0
10
74.8133010864258
20
67.4981994628906
40
0.0
41
0.0
42
0.0
10
74.9922027587891
20
67.4083023071289
40
0.0
41
0.0
42
0.0
10
75.1640014648438
20
67.2406997680664
40
0.0
41
0.0
42
0.0
10
75.4955978393555
20
66.9320983886719
40
0.0
41
0.0
42
0.0
10
75.5593032836914
20
66.8481979370117
40
0.0
41
0.0
42
0.0
10
75.8901977539062
20
66.4928970336914
40
0.0
41
0.0
42
0.0
10
76.0059967041016
20
66.3154983520508
40
0.0
41
0.0
42
0.0
10
76.2107009887695
20
66.0130996704102
40
0.0
41
0.0
42
0.0
10
76.1905975341797
20
65.9515991210938
40
0.0
41
0.0
42
0.0
10
76.1904983520508
20
65.9169006347656
40
0.0
41
0.0
42
0.0
10
76.2664031982422
20
65.5034027099609
40
0.0
41
0.0
42
0.0
10
76.1414031982422
20
65.0761032104492
40
0.0
41
0.0
42
0.0
10
76.1006011962891
20
65.0137023925781
40
0.0
41
0.0
42
0.0
10
76.1006011962891
20
65.0009994506836
40
0.0
41
0.0
42
0.0
10
76.144401550293
20
65.0009994506836
40
0.0
41
0.0
42
0.0
10
76.1529006958008
20
65.0139007568359
40
0.0
41
0.0
42
0.0
10
76.2901000976562
20
65.4830017089844
40
0.0
41
0.0
42
0.0
10
76.2900009155273
20
65.5179977416992
40
0.0
41
0.0
42
0.0
10
76.206901550293
20
65.970703125
40
0.0
41
0.0
42
0.0
10
76.2110977172852
20
65.9832992553711
40
0.0
41
0.0
42
0.0
10
76.2110977172852
20
66.0193023681641
40
0.0
41
0.0
42
0.0
10
76.2073974609375
20
66.0779037475586
40
0.0
41
0.0
42
0.0
10
76.0251007080078
20
66.3470993041992
40
0.0
41
0.0
42
0.0
10
75.9216995239258
20
66.5068969726562
40
0.0
41
0.0
42
0.0
10
75.6686019897461
20
66.7787017822266
40
0.0
41
0.0
42
0.0
10
75.5043029785156
20
66.9946975708008
40
0.0
41
0.0
42
0.0
10
75.4462966918945
20
67.0485000610352
40
0.0
41
0.0
42
0.0
10
75.0075988769531
20
67.4767990112305
40
0.0
41
0.0
42
0.0
10
74.9582977294922
20
67.5016021728516
40
0.0
41
0.0
42
0.0
10
74.5139999389648
20
67.7772979736328
40
0.0
41
0.0
42
0.0
10
74.4817962646484
20
67.7772979736328
40
0.0
41
0.0
42
0.0
10
74.1669006347656
20
67.7227020263672
40
0.0
41
0.0
42
0.0
10
73.9897003173828
20
67.6611022949219
40
0.0
41
0.0
42
0.0
10
73.9226989746094
20
67.6129989624023
40
0.0
41
0.0
42
0.0
10
73.8117980957031
20
67.5029983520508
40
0.0
41
0.0
42
0.0
10
73.4913024902344
20
67.3224029541016
40
0.0
41
0.0
42
0.0
10
73.2020034790039
20
67.1132965087891
40
0.0
41
0.0
42
0.0
10
73.1489028930664
20
67.0703964233398
40
0.0
41
0.0
42
0.0
10
73.1026000976562
20
67.0054016113281
40
0.0
41
0.0
42
0.0
10
72.9934997558594
20
66.9173965454102
40
0.0
41
0.0
42
0.0
10
72.6039962768555
20
66.570198059082
40
0.0
41
0.0
42
0.0
10
72.572998046875
20
66.5339965820312
40
0.0
41
0.0
42
0.0
10
72.5656967163086
20
66.5158004760742
40
0.0
41
0.0
42
0.0
10
72.5655975341797
20
66.4897003173828
40
0.0
41
0.0
42
0.0
10
72.5456008911133
20
66.4520034790039
40
0.0
41
0.0
42
0.0
10
72.4979019165039
20
66.3759002685547
40
0.0
41
0.0
42
0.0
10
72.2866973876953
20
66.0142974853516
40
0.0
41
0.0
42
0.0
10
72.2865982055664
20
65.9809036254883
40
0.0
41
0.0
42
0.0
10
72.2918014526367
20
65.9206008911133
40
0.0
41
0.0
42
0.0
10
72.2802963256836
20
65.4835968017578
40
0.0
41
0.0
42
0.0
210
0.0
220
0.0
230
1.0
0
LWPOLYLINE
5
2A
330
1C
100
AcDbEntity
67
0
8
0
62
256
6
ByLayer
370
-1
48
1.0
60
0
100
AcDbPolyline
90
43
70
1
38
0.0
39
0.0
10
72.8787002563477
20
74.4139022827148
40
0.0
41
0.0
42
0.0
10
72.9889984130859
20
74.2967987060547
40
0.0
41
0.0
42
0.0
10
73.0118026733398
20
74.2967987060547
40
0.0
41
0.0
42
0.0
10
73.0730972290039
20
74.3526000976562
40
0.0
41
0.0
42
0.0
10
73.481201171875
20
74.3024978637695
40
0.0
41
0.0
42
0.0
10
73.5186996459961
20
74.3023986816406
40
0.0
41
0.0
42
0.0
10
73.9934997558594
20
74.3602981567383
40
0.0
41
0.0
42
0.0
10
74.243896484375
20
73.9984970092773
40
0.0
41
0.0
42
0.0
10
73.997802734375
20
73.5531997680664
40
0.0
41
0.0
42
0.0
10
73.9664993286133
20
73.5094985961914
40
0.0
41
0.0
42
0.0
10
73.9393005371094
20
73.448600769043
40
0.0
41
0.0
42
0.0
10
73.8553009033203
20
73.0122985839844
40
0.0
41
0.0
42
0.0
10
73.8460998535156
20
72.9972991943359
40
0.0
41
0.0
42
0.0
10
73.8466033935547
20
72.9657974243164
40
0.0
41
0.0
42
0.0
10
73.9940032958984
20
72.6089019775391
40
0.0
41
0.0
42
0.0
10
74.0044021606445
20
72.6089019775391
40
0.0
41
0.0
42
0.0
10
74.1001968383789
20
72.9223022460938
40
0.0
41
0.0
42
0.0
10
74.1280975341797
20
72.9858016967773
40
0.0
41
0.0
42
0.0
10
74.1889038085938
20
73.4243011474609
40
0.0
41
0.0
42
0.0
10
74.2048034667969
20
73.4417037963867
40
0.0
41
0.0
42
0.0
10
74.5080032348633
20
73.4663009643555
40
0.0
41
0.0
42
0.0
10
74.5243988037109
20
73.4909973144531
40
0.0
41
0.0
42
0.0
10
74.7733001708984
20
73.9232025146484
40
0.0
41
0.0
42
0.0
10
74.7906036376953
20
73.9842987060547
40
0.0
41
0.0
42
0.0
10
74.7995986938477
20
74.0495986938477
40
0.0
41
0.0
42
0.0
10
74.7994995117188
20
74.0801010131836
40
0.0
41
0.0
42
0.0
10
74.5790023803711
20
74.3268966674805
40
0.0
41
0.0
42
0.0
10
74.511100769043
20
74.3253021240234
40
0.0
41
0.0
42
0.0
10
74.2042007446289
20
74.5063018798828
40
0.0
41
0.0
42
0.0
10
74.2078018188477
20
74.5490036010742
40
0.0
41
0.0
42
0.0
10
74.2077026367188
20
74.5783004760742
40
0.0
41
0.0
42
0.0
10
74.0805969238281
20
74.684196472168
40
0.0
41
0.0
42
0.0
10
74.0502014160156
20
74.6840972900391
40
0.0
41
0.0
42
0.0
10
73.991096496582
20
74.6728973388672
40
0.0
41
0.0
42
0.0
10
73.5842971801758
20
74.6980972290039
40
0.0
41
0.0
42
0.0
10
73.5464019775391
20
74.697998046875
40
0.0
41
0.0
42
0.0
10
73.484001159668
20
74.689697265625
40
0.0
41
0.0
42
0.0
10
73.0500030517578
20
74.5774993896484
40
0.0
41
0.0
42
0.0
10
72.9851989746094
20
74.5621032714844
40
0.0
41
0.0
42
0.0
10
72.8003997802734
20
74.5115966796875
40
0.0
41
0.0
42
0.0
10
72.7789993286133
20
74.5046997070312
40
0.0
41
0.0
42
0.0
10
72.7789001464844
20
74.4903030395508
40
0.0
41
0.0
42
0.0
10
72.8787002563477
20
74.4139022827148
40
0.0
41
0.0
42
0.0
210
0.0
220
0.0
230
1.0
0
LWPOLYLINE
5
2B
330
1C
100
AcDbEntity
67
0
8
0
62
256
6
ByLayer
370
-1
48
1.0
60
0
100
AcDbPolyline
90
43
70
1
38
0.0
39
0.0
10
73.424201965332
20
75.8107986450195
40
0.0
41
0.0
42
0.0
10
73.4417037963867
20
75.7949981689453
40
0.0
41
0.0
42
0.0
10
73.4663009643555
20
75.4917984008789
40
0.0
41
0.0
42
0.0
10
73.4908981323242
20
75.4753036499023
40
0.0
41
0.0
42
0.0
10
73.9231033325195
20
75.2264022827148
40
0.0
41
0.0
42
0.0
10
73.9842987060547
20
75.209098815918
40
0.0
41
0.0
42
0.0
10
74.0495986938477
20
75.2003021240234
40
0.0
41
0.0
42
0.0
10
74.0801010131836
20
75.2002029418945
40
0.0
41
0.0
42
0.0
10
74.3268966674805
20
75.4207992553711
40
0.0
41
0.0
42
0.0
10
74.3253021240234
20
75.4887008666992
40
0.0
41
0.0
42
0.0
10
74.5064010620117
20
75.7955017089844
40
0.0
41
0.0
42
0.0
10
74.5490036010742
20
75.7920989990234
40
0.0
41
0.0
42
0.0
10
74.5783004760742
20
75.7920989990234
40
0.0
41
0.0
42
0.0
10
74.684196472168
20
75.9191970825195
40
0.0
41
0.0
42
0.0
10
74.6840972900391
20
75.9496002197266
40
0.0
41
0.0
42
0.0
10
74.6728973388672
20
76.0087966918945
40
0.0
41
0.0
42
0.0
10
74.6980972290039
20
76.4156036376953
40
0.0
41
0.0
42
0.0
10
74.697998046875
20
76.453498840332
40
0.0
41
0.0
42
0.0
10
74.6895980834961
20
76.5158996582031
40
0.0
41
0.0
42
0.0
10
74.5774993896484
20
76.9498977661133
40
0.0
41
0.0
42
0.0
10
74.5619964599609
20
77.0147018432617
40
0.0
41
0.0
42
0.0
10
74.5115966796875
20
77.1994018554688
40
0.0
41
0.0
42
0.0
10
74.5046997070312
20
77.2209014892578
40
0.0
41
0.0
42
0.0
10
74.4903030395508
20
77.2209014892578
40
0.0
41
0.0
42
0.0
10
74.4140014648438
20
77.1210021972656
40
0.0
41
0.0
42
0.0
10
74.2967987060547
20
77.0109024047852
40
0.0
41
0.0
42
0.0
10
74.2966995239258
20
76.9880981445312
40
0.0
41
0.0
42
0.0
10
74.3526000976562
20
76.9268035888672
40
0.0
41
0.0
42
0.0
10
74.3024978637695
20
76.5186996459961
40
0.0
41
0.0
42
0.0
10
74.3023986816406
20
76.481201171875
40
0.0
41
0.0
42
0.0
10
74.3603973388672
20
76.0065002441406
40
0.0
41
0.0
42
0.0
10
73.9984970092773
20
75.7557983398438
40
0.0
41
0.0
42
0.0
10
73.5531997680664
20
76.0020980834961
40
0.0
41
0.0
42
0.0
10
73.5114974975586
20
76.0317001342773
40
0.0
41
0.0
42
0.0
10
73.0785980224609
20
76.1153030395508
40
0.0
41
0.0
42
0.0
10
73.0102005004883
20
76.1456985473633
40
0.0
41
0.0
42
0.0
10
72.9971008300781
20
76.1537017822266
40
0.0
41
0.0
42
0.0
10
72.9671020507812
20
76.1536026000977
40
0.0
41
0.0
42
0.0
10
72.6089019775391
20
76.0058975219727
40
0.0
41
0.0
42
0.0
10
72.6088027954102
20
75.9953994750977
40
0.0
41
0.0
42
0.0
10
72.9223022460938
20
75.8994979858398
40
0.0
41
0.0
42
0.0
10
72.9857025146484
20
75.8715972900391
40
0.0
41
0.0
42
0.0
10
73.424201965332
20
75.8107986450195
40
0.0
41
0.0
42
0.0
210
0.0
220
0.0
230
1.0
0
LWPOLYLINE
5
2C
330
1C
100
AcDbEntity
67
0
8
0
62
256
6
ByLayer
370
-1
48
1.0
60
0
100
AcDbPolyline
90
33
70
1
38
0.0
39
0.0
10
73.0146026611328
20
74.5469970703125
40
0.0
41
0.0
42
0.0
10
73.515998840332
20
74.6762008666992
40
0.0
41
0.0
42
0.0
10
73.5315017700195
20
74.6781997680664
40
0.0
41
0.0
42
0.0
10
73.980598449707
20
74.6505966186523
40
0.0
41
0.0
42
0.0
10
74.0196990966797
20
74.6504974365234
40
0.0
41
0.0
42
0.0
10
74.1792984008789
20
74.5177993774414
40
0.0
41
0.0
42
0.0
10
74.1792984008789
20
74.49169921875
40
0.0
41
0.0
42
0.0
10
74.4857025146484
20
74.3110961914062
40
0.0
41
0.0
42
0.0
10
74.5167007446289
20
74.3108978271484
40
0.0
41
0.0
42
0.0
10
74.7788009643555
20
74.0178985595703
40
0.0
41
0.0
42
0.0
10
74.7699966430664
20
73.986701965332
40
0.0
41
0.0
42
0.0
10
74.4926986694336
20
73.5037994384766
40
0.0
41
0.0
42
0.0
10
74.1631011962891
20
73.4776000976562
40
0.0
41
0.0
42
0.0
10
74.0988998413086
20
73.0141983032227
40
0.0
41
0.0
42
0.0
10
74.0871963500977
20
72.9876022338867
40
0.0
41
0.0
42
0.0
10
74.0065002441406
20
72.7266006469727
40
0.0
41
0.0
42
0.0
10
73.9921035766602
20
72.7259979248047
40
0.0
41
0.0
42
0.0
10
73.8822021484375
20
72.9942016601562
40
0.0
41
0.0
42
0.0
10
73.9721984863281
20
73.4613037109375
40
0.0
41
0.0
42
0.0
10
73.9852981567383
20
73.4904022216797
40
0.0
41
0.0
42
0.0
10
74.002197265625
20
73.5141983032227
40
0.0
41
0.0
42
0.0
10
74.2624969482422
20
73.9853973388672
40
0.0
41
0.0
42
0.0
10
74.2623977661133
20
74.0133972167969
40
0.0
41
0.0
42
0.0
10
74.008903503418
20
74.3809967041016
40
0.0
41
0.0
42
0.0
10
73.981201171875
20
74.3808975219727
40
0.0
41
0.0
42
0.0
10
73.500602722168
20
74.3217010498047
40
0.0
41
0.0
42
0.0
10
73.043701171875
20
74.3778991699219
40
0.0
41
0.0
42
0.0
10
73.0131988525391
20
74.3778991699219
40
0.0
41
0.0
42
0.0
10
73.0005035400391
20
74.3662033081055
40
0.0
41
0.0
42
0.0
10
72.9614028930664
20
74.407600402832
40
0.0
41
0.0
42
0.0
10
72.8455963134766
20
74.4962997436523
40
0.0
41
0.0
42
0.0
10
72.8466033935547
20
74.5015029907227
40
0.0
41
0.0
42
0.0
10
73.0146026611328
20
74.5469970703125
40
0.0
41
0.0
42
0.0
210
0.0
220
0.0
230
1.0
0
LWPOLYLINE
5
2D
330
1C
100
AcDbEntity
67
0
8
0
62
256
6
ByLayer
370
-1
48
1.0
60
0
100
AcDbPolyline
90
34
70
1
38
0.0
39
0.0
10
72.7266006469727
20
75.9935989379883
40
0.0
41
0.0
42
0.0
10
72.7259979248047
20
76.0077972412109
40
0.0
41
0.0
42
0.0
10
72.9917984008789
20
76.1165008544922
40
0.0
41
0.0
42
0.0
10
73.0112991333008
20
76.1079025268555
40
0.0
41
0.0
42
0.0
10
73.4884033203125
20
76.015998840332
40
0.0
41
0.0
42
0.0
10
73.5140991210938
20
75.9977035522461
40
0.0
41
0.0
42
0.0
10
73.9853973388672
20
75.7373962402344
40
0.0
41
0.0
42
0.0
10
74.0133972167969
20
75.7372970581055
40
0.0
41
0.0
42
0.0
10
74.3808975219727
20
75.9903030395508
40
0.0
41
0.0
42
0.0
10
74.3808975219727
20
76.0186996459961
40
0.0
41
0.0
42
0.0
10
74.3217010498047
20
76.4992980957031
40
0.0
41
0.0
42
0.0
10
74.3778991699219
20
76.9561996459961
40
0.0
41
0.0
42
0.0
10
74.377799987793
20
76.9868011474609
40
0.0
41
0.0
42
0.0
10
74.366096496582
20
76.9996032714844
40
0.0
41
0.0
42
0.0
10
74.4076995849609
20
77.0383987426758
40
0.0
41
0.0
42
0.0
10
74.4963989257812
20
77.154296875
40
0.0
41
0.0
42
0.0
10
74.5016021728516
20
77.1531982421875
40
0.0
41
0.0
42
0.0
10
74.5469970703125
20
76.9852981567383
40
0.0
41
0.0
42
0.0
10
74.6762008666992
20
76.4839019775391
40
0.0
41
0.0
42
0.0
10
74.6781997680664
20
76.4683990478516
40
0.0
41
0.0
42
0.0
10
74.6505966186523
20
76.0193023681641
40
0.0
41
0.0
42
0.0
10
74.6505966186523
20
75.9801025390625
40
0.0
41
0.0
42
0.0
10
74.5177993774414
20
75.8206024169922
40
0.0
41
0.0
42
0.0
10
74.49169921875
20
75.8206024169922
40
0.0
41
0.0
42
0.0
10
74.3110961914062
20
75.5141983032227
40
0.0
41
0.0
42
0.0
10
74.3109970092773
20
75.4831008911133
40
0.0
41
0.0
42
0.0
10
74.0179977416992
20
75.2209014892578
40
0.0
41
0.0
42
0.0
10
73.986701965332
20
75.2297973632812
40
0.0
41
0.0
42
0.0
10
73.5037994384766
20
75.5072021484375
40
0.0
41
0.0
42
0.0
10
73.4776000976562
20
75.8365020751953
40
0.0
41
0.0
42
0.0
10
73.0140991210938
20
75.9008026123047
40
0.0
41
0.0
42
0.0
10
72.9876022338867
20
75.9123992919922
40
0.0
41
0.0
42
0.0
10
72.9058990478516
20
75.9371032714844
40
0.0
41
0.0
42
0.0
10
72.7266006469727
20
75.9935989379883
40
0.0
41
0.0
42
0.0
210
0.0
220
0.0
230
1.0
0
LWPOLYLINE
5
2E
330
1C
100
AcDbEntity
67
0
8
0
62
256
6
ByLayer
370
-1
48
1.0
60
0
100
AcDbPolyline
90
81
70
1
38
0.0
39
0.0
10
73.7883987426758
20
83.9832992553711
40
0.0
41
0.0
42
0.0
10
73.7921981811523
20
83.9219970703125
40
0.0
41
0.0
42
0.0
10
73.9746017456055
20
83.6526031494141
40
0.0
41
0.0
42
0.0
10
74.0800018310547
20
83.4897003173828
40
0.0
41
0.0
42
0.0
10
74.1035995483398
20
83.4329986572266
40
0.0
41
0.0
42
0.0
10
74.4328994750977
20
83.0792999267578
40
0.0
41
0.0
42
0.0
10
74.4356994628906
20
83.0726013183594
40
0.0
41
0.0
42
0.0
10
74.495002746582
20
83.0055999755859
40
0.0
41
0.0
42
0.0
10
74.5533981323242
20
82.9512023925781
40
0.0
41
0.0
42
0.0
10
74.9922027587891
20
82.5229034423828
40
0.0
41
0.0
42
0.0
10
75.0413970947266
20
82.4981994628906
40
0.0
41
0.0
42
0.0
10
75.4859008789062
20
82.2226028442383
40
0.0
41
0.0
42
0.0
10
75.5180969238281
20
82.2225036621094
40
0.0
41
0.0
42
0.0
10
75.8329010009766
20
82.277099609375
40
0.0
41
0.0
42
0.0
10
76.0080032348633
20
82.3379974365234
40
0.0
41
0.0
42
0.0
10
76.040901184082
20
82.3740005493164
40
0.0
41
0.0
42
0.0
10
76.1194000244141
20
82.4304962158203
40
0.0
41
0.0
42
0.0
10
76.1491012573242
20
82.4660034179688
40
0.0
41
0.0
42
0.0
10
76.1890029907227
20
82.4973983764648
40
0.0
41
0.0
42
0.0
10
76.5074005126953
20
82.6766967773438
40
0.0
41
0.0
42
0.0
10
76.5287017822266
20
82.6967010498047
40
0.0
41
0.0
42
0.0
10
76.8511962890625
20
82.9300003051758
40
0.0
41
0.0
42
0.0
10
76.8972015380859
20
82.994499206543
40
0.0
41
0.0
42
0.0
10
77.0064010620117
20
83.0823974609375
40
0.0
41
0.0
42
0.0
10
77.3956985473633
20
83.4296035766602
40
0.0
41
0.0
42
0.0
10
77.4268035888672
20
83.4658966064453
40
0.0
41
0.0
42
0.0
10
77.4339981079102
20
83.4841003417969
40
0.0
41
0.0
42
0.0
10
77.434196472168
20
83.5102996826172
40
0.0
41
0.0
42
0.0
10
77.4542007446289
20
83.5478973388672
40
0.0
41
0.0
42
0.0
10
77.5019989013672
20
83.6239013671875
40
0.0
41
0.0
42
0.0
10
77.7132034301758
20
83.9856033325195
40
0.0
41
0.0
42
0.0
10
77.7130966186523
20
84.0189971923828
40
0.0
41
0.0
42
0.0
10
77.7079010009766
20
84.0792007446289
40
0.0
41
0.0
42
0.0
10
77.7194976806641
20
84.4803009033203
40
0.0
41
0.0
42
0.0
10
77.7193984985352
20
84.5162963867188
40
0.0
41
0.0
42
0.0
10
77.638801574707
20
84.7424011230469
40
0.0
41
0.0
42
0.0
10
77.5522994995117
20
84.9990005493164
40
0.0
41
0.0
42
0.0
10
77.4832992553711
20
84.9990005493164
40
0.0
41
0.0
42
0.0
10
77.4832000732422
20
84.9841995239258
40
0.0
41
0.0
42
0.0
10
77.4994964599609
20
84.945198059082
40
0.0
41
0.0
42
0.0
10
77.6630020141602
20
84.4862976074219
40
0.0
41
0.0
42
0.0
10
77.6548004150391
20
84.2015991210938
40
0.0
41
0.0
42
0.0
10
77.654899597168
20
84.16259765625
40
0.0
41
0.0
42
0.0
10
77.668098449707
20
84.0099029541016
40
0.0
41
0.0
42
0.0
10
77.4979019165039
20
83.7183990478516
40
0.0
41
0.0
42
0.0
10
77.4604034423828
20
83.6587982177734
40
0.0
41
0.0
42
0.0
10
77.4182968139648
20
83.5796966552734
40
0.0
41
0.0
42
0.0
10
77.4179000854492
20
83.5158004760742
40
0.0
41
0.0
42
0.0
10
77.3945999145508
20
83.4574966430664
40
0.0
41
0.0
42
0.0
10
76.9934997558594
20
83.1004028320312
40
0.0
41
0.0
42
0.0
10
76.8758010864258
20
83.0054016113281
40
0.0
41
0.0
42
0.0
10
76.8576965332031
20
82.9798965454102
40
0.0
41
0.0
42
0.0
10
76.5018005371094
20
82.7227020263672
40
0.0
41
0.0
42
0.0
10
76.4925003051758
20
82.7136993408203
40
0.0
41
0.0
42
0.0
10
76.1169967651367
20
82.5024032592773
40
0.0
41
0.0
42
0.0
10
76.1057968139648
20
82.4935989379883
40
0.0
41
0.0
42
0.0
10
76.0940017700195
20
82.4794006347656
40
0.0
41
0.0
42
0.0
10
76.0074005126953
20
82.4172973632812
40
0.0
41
0.0
42
0.0
10
75.9918975830078
20
82.4001007080078
40
0.0
41
0.0
42
0.0
10
75.9152984619141
20
82.3737030029297
40
0.0
41
0.0
42
0.0
10
75.5070037841797
20
82.3026962280273
40
0.0
41
0.0
42
0.0
10
75.1865005493164
20
82.5016021728516
40
0.0
41
0.0
42
0.0
10
75.0075988769531
20
82.5914001464844
40
0.0
41
0.0
42
0.0
10
74.8357009887695
20
82.7590026855469
40
0.0
41
0.0
42
0.0
10
74.5046997070312
20
83.0672988891602
40
0.0
41
0.0
42
0.0
10
74.4792022705078
20
83.0975036621094
40
0.0
41
0.0
42
0.0
10
74.1175994873047
20
83.4859008789062
40
0.0
41
0.0
42
0.0
10
74.1074981689453
20
83.5101013183594
40
0.0
41
0.0
42
0.0
10
73.9935989379883
20
83.684196472168
40
0.0
41
0.0
42
0.0
10
73.7893981933594
20
83.986198425293
40
0.0
41
0.0
42
0.0
10
73.7880020141602
20
84.0176010131836
40
0.0
41
0.0
42
0.0
10
73.7121963500977
20
84.4307022094727
40
0.0
41
0.0
42
0.0
10
73.7304000854492
20
84.486198425293
40
0.0
41
0.0
42
0.0
10
73.8582992553711
20
84.9238967895508
40
0.0
41
0.0
42
0.0
10
73.899299621582
20
84.986198425293
40
0.0
41
0.0
42
0.0
10
73.899299621582
20
84.9990005493164
40
0.0
41
0.0
42
0.0
10
73.8554000854492
20
84.9990005493164
40
0.0
41
0.0
42
0.0
10
73.8469009399414
20
84.9860000610352
40
0.0
41
0.0
42
0.0
10
73.7015991210938
20
84.4918975830078
40
0.0
41
0.0
42
0.0
10
73.7014999389648
20
84.4588012695312
40
0.0
41
0.0
42
0.0
10
73.7883987426758
20
83.9832992553711
40
0.0
41
0.0
42
0.0
210
0.0
220
0.0
230
1.0
0
LWPOLYLINE
5
2F
330
1C
100
AcDbEntity
67
0
8
0
62
256
6
ByLayer
370
-1
48
1.0
60
0
100
AcDbPolyline
90
11
70
1
38
0.0
39
0.0
10
74.6168975830078
20
74.9692001342773
40
0.0
41
0.0
42
0.0
10
74.9688034057617
20
74.6174011230469
40
0.0
41
0.0
42
0.0
10
75.0309982299805
20
74.6174011230469
40
0.0
41
0.0
42
0.0
10
75.3825988769531
20
74.9690017700195
40
0.0
41
0.0
42
0.0
10
75.3831024169922
20
75.0112991333008
40
0.0
41
0.0
42
0.0
10
75.0112991333008
20
75.38330078125
40
0.0
41
0.0
42
0.0
10
74.9886016845703
20
75.3832015991211
40
0.0
41
0.0
42
0.0
10
74.673698425293
20
75.0683975219727
40
0.0
41
0.0
42
0.0
10
74.6536026000977
20
75.0654983520508
40
0.0
41
0.0
42
0.0
10
74.6166000366211
20
75.013298034668
40
0.0
41
0.0
42
0.0
10
74.6168975830078
20
74.9692001342773
40
0.0
41
0.0
42
0.0
210
0.0
220
0.0
230
1.0
0
LWPOLYLINE
5
30
330
1C
100
AcDbEntity
67
0
8
0
62
256
6
ByLayer
370
-1
48
1.0
60
0
100
AcDbPolyline
90
7
70
1
38
0.0
39
0.0
10
74.6524963378906
20
75.024299621582
40
0.0
41
0.0
42
0.0
10
74.6630020141602
20
75.0260009765625
40
0.0
41
0.0
42
0.0
10
75.0
20
75.3626022338867
40
0.0
41
0.0
42
0.0
10
75.3663024902344
20
74.9962005615234
40
0.0
41
0.0
42
0.0
10
75.0
20
74.6297988891602
40
0.0
41
0.0
42
0.0
10
74.6327972412109
20
74.9968032836914
40
0.0
41
0.0
42
0.0
10
74.6524963378906
20
75.024299621582
40
0.0
41
0.0
42
0.0
210
0.0
220
0.0
230
1.0
0
LWPOLYLINE
5
31
330
1C
100
AcDbEntity
67
0
8
0
62
256
6
ByLayer
370
-1
48
1.0
60
0
100
AcDbPolyline
90
43
70
1
38
0.0
39
0.0
10
75.2003021240234
20
75.9502029418945
40
0.0
41
0.0
42
0.0
10
75.2003021240234
20
75.9194030761719
40
0.0
41
0.0
42
0.0
10
75.4207992553711
20
75.6727981567383
40
0.0
41
0.0
42
0.0
10
75.4881973266602
20
75.6743011474609
40
0.0
41
0.0
42
0.0
10
75.7955017089844
20
75.4932022094727
40
0.0
41
0.0
42
0.0
10
75.7919998168945
20
75.450798034668
40
0.0
41
0.0
42
0.0
10
75.7919998168945
20
75.4214019775391
40
0.0
41
0.0
42
0.0
10
75.9191970825195
20
75.3156967163086
40
0.0
41
0.0
42
0.0
10
75.9496994018555
20
75.3155975341797
40
0.0
41
0.0
42
0.0
10
76.0166015625
20
75.328498840332
40
0.0
41
0.0
42
0.0
10
76.0715026855469
20
75.3357009887695
40
0.0
41
0.0
42
0.0
10
76.480598449707
20
75.3105010986328
40
0.0
41
0.0
42
0.0
10
76.5175018310547
20
75.3104019165039
40
0.0
41
0.0
42
0.0
10
76.5799026489258
20
75.3252029418945
40
0.0
41
0.0
42
0.0
10
77.0146026611328
20
75.4375991821289
40
0.0
41
0.0
42
0.0
10
77.1994018554688
20
75.4880981445312
40
0.0
41
0.0
42
0.0
10
77.2209014892578
20
75.4952011108398
40
0.0
41
0.0
42
0.0
10
77.2208023071289
20
75.5094985961914
40
0.0
41
0.0
42
0.0
10
77.1210021972656
20
75.5857009887695
40
0.0
41
0.0
42
0.0
10
77.0109024047852
20
75.7031021118164
40
0.0
41
0.0
42
0.0
10
76.9880981445312
20
75.7030029296875
40
0.0
41
0.0
42
0.0
10
76.9268035888672
20
75.647102355957
40
0.0
41
0.0
42
0.0
10
76.5186996459961
20
75.6974029541016
40
0.0
41
0.0
42
0.0
10
76.481201171875
20
75.6973037719727
40
0.0
41
0.0
42
0.0
10
76.0068969726562
20
75.6390991210938
40
0.0
41
0.0
42
0.0
10
75.7565002441406
20
76.0024032592773
40
0.0
41
0.0
42
0.0
10
76.0020980834961
20
76.4466018676758
40
0.0
41
0.0
42
0.0
10
76.0317001342773
20
76.4884033203125
40
0.0
41
0.0
42
0.0
10
76.1153030395508
20
76.9213027954102
40
0.0
41
0.0
42
0.0
10
76.1457977294922
20
76.9897003173828
40
0.0
41
0.0
42
0.0
10
76.1536026000977
20
77.0026016235352
40
0.0
41
0.0
42
0.0
10
76.1530990600586
20
77.0338973999023
40
0.0
41
0.0
42
0.0
10
76.0058975219727
20
77.390998840332
40
0.0
41
0.0
42
0.0
10
75.9953994750977
20
77.390998840332
40
0.0
41
0.0
42
0.0
10
75.8995971679688
20
77.0775985717773
40
0.0
41
0.0
42
0.0
10
75.871696472168
20
77.0141983032227
40
0.0
41
0.0
42
0.0
10
75.8107986450195
20
76.5756988525391
40
0.0
41
0.0
42
0.0
10
75.7950973510742
20
76.5579986572266
40
0.0
41
0.0
42
0.0
10
75.4917984008789
20
76.5335998535156
40
0.0
41
0.0
42
0.0
10
75.4753036499023
20
76.508903503418
40
0.0
41
0.0
42
0.0
10
75.2265014648438
20
76.0766983032227
40
0.0
41
0.0
42
0.0
10
75.2091979980469
20
76.0156021118164
40
0.0
41
0.0
42
0.0
10
75.2003021240234
20
75.9502029418945
40
0.0
41
0.0
42
0.0
210
0.0
220
0.0
230
1.0
0
LWPOLYLINE
5
32
330
1C
100
AcDbEntity
67
0
8
0
62
256
6
ByLayer
370
-1
48
1.0
60
0
100
AcDbPolyline
90
38
70
1
38
0.0
39
0.0
10
75.4820022583008
20
74.1792984008789
40
0.0
41
0.0
42
0.0
10
75.5080032348633
20
74.17919921875
40
0.0
41
0.0
42
0.0
10
75.6887969970703
20
74.4857025146484
40
0.0
41
0.0
42
0.0
10
75.6887969970703
20
74.5167007446289
40
0.0
41
0.0
42
0.0
10
75.9820022583008
20
74.7788009643555
40
0.0
41
0.0
42
0.0
10
76.0131988525391
20
74.7698974609375
40
0.0
41
0.0
42
0.0
10
76.4959030151367
20
74.4925994873047
40
0.0
41
0.0
42
0.0
10
76.522102355957
20
74.163200378418
40
0.0
41
0.0
42
0.0
10
76.9857025146484
20
74.0988998413086
40
0.0
41
0.0
42
0.0
10
77.0122985839844
20
74.0871963500977
40
0.0
41
0.0
42
0.0
10
77.2706985473633
20
74.0073013305664
40
0.0
41
0.0
42
0.0
10
77.2705993652344
20
74.0070037841797
40
0.0
41
0.0
42
0.0
10
77.3050003051758
20
73.9963989257812
40
0.0
41
0.0
42
0.0
10
77.3255996704102
20
73.9094009399414
40
0.0
41
0.0
42
0.0
10
77.2987976074219
20
73.8983001708984
40
0.0
41
0.0
42
0.0
10
77.2498016357422
20
73.9777984619141
40
0.0
41
0.0
42
0.0
10
77.2256011962891
20
73.9777984619141
40
0.0
41
0.0
42
0.0
10
76.995002746582
20
73.8842010498047
40
0.0
41
0.0
42
0.0
10
76.5385971069336
20
73.9721984863281
40
0.0
41
0.0
42
0.0
10
76.5093994140625
20
73.9851989746094
40
0.0
41
0.0
42
0.0
10
76.4856033325195
20
74.0020980834961
40
0.0
41
0.0
42
0.0
10
76.0145034790039
20
74.2624969482422
40
0.0
41
0.0
42
0.0
10
75.9865036010742
20
74.2624969482422
40
0.0
41
0.0
42
0.0
10
75.6190032958984
20
74.008903503418
40
0.0
41
0.0
42
0.0
10
75.618896484375
20
73.9811019897461
40
0.0
41
0.0
42
0.0
10
75.6781005859375
20
73.5
40
0.0
41
0.0
42
0.0
10
75.6218032836914
20
73.043701171875
40
0.0
41
0.0
42
0.0
10
75.6220016479492
20
73.0130004882812
40
0.0
41
0.0
42
0.0
10
75.63330078125
20
73.0001983642578
40
0.0
41
0.0
42
0.0
10
75.5922012329102
20
72.9615020751953
40
0.0
41
0.0
42
0.0
10
75.5035018920898
20
72.8455963134766
40
0.0
41
0.0
42
0.0
10
75.4982986450195
20
72.8467025756836
40
0.0
41
0.0
42
0.0
10
75.4526977539062
20
73.0146026611328
40
0.0
41
0.0
42
0.0
10
75.3251037597656
20
73.5096969604492
40
0.0
41
0.0
42
0.0
10
75.3526000976562
20
73.9555969238281
40
0.0
41
0.0
42
0.0
10
75.3525009155273
20
73.9934997558594
40
0.0
41
0.0
42
0.0
10
75.3490982055664
20
74.0195999145508
40
0.0
41
0.0
42
0.0
10
75.4820022583008
20
74.1792984008789
40
0.0
41
0.0
42
0.0
210
0.0
220
0.0
230
1.0
0
LWPOLYLINE
5
33
330
1C
100
AcDbEntity
67
0
8
0
62
256
6
ByLayer
370
-1
48
1.0
60
0
100
AcDbPolyline
90
33
70
1
38
0.0
39
0.0
10
75.2209014892578
20
75.9820022583008
40
0.0
41
0.0
42
0.0
10
75.2297973632812
20
76.0131988525391
40
0.0
41
0.0
42
0.0
10
75.5073013305664
20
76.4959030151367
40
0.0
41
0.0
42
0.0
10
75.8365020751953
20
76.522102355957
40
0.0
41
0.0
42
0.0
10
75.9008026123047
20
76.9857025146484
40
0.0
41
0.0
42
0.0
10
75.9124984741211
20
77.0122985839844
40
0.0
41
0.0
42
0.0
10
75.9934997558594
20
77.2733001708984
40
0.0
41
0.0
42
0.0
10
76.0078964233398
20
77.2739028930664
40
0.0
41
0.0
42
0.0
10
76.1165008544922
20
77.0080032348633
40
0.0
41
0.0
42
0.0
10
76.1079025268555
20
76.9886016845703
40
0.0
41
0.0
42
0.0
10
76.015998840332
20
76.5114974975586
40
0.0
41
0.0
42
0.0
10
75.9977035522461
20
76.4857025146484
40
0.0
41
0.0
42
0.0
10
75.7373962402344
20
76.0145034790039
40
0.0
41
0.0
42
0.0
10
75.7372970581055
20
75.9865036010742
40
0.0
41
0.0
42
0.0
10
75.9909973144531
20
75.6190032958984
40
0.0
41
0.0
42
0.0
10
76.018798828125
20
75.618896484375
40
0.0
41
0.0
42
0.0
10
76.4999008178711
20
75.6781005859375
40
0.0
41
0.0
42
0.0
10
76.9561996459961
20
75.6218032836914
40
0.0
41
0.0
42
0.0
10
76.9869003295898
20
75.6220016479492
40
0.0
41
0.0
42
0.0
10
76.9998016357422
20
75.63330078125
40
0.0
41
0.0
42
0.0
10
77.0382995605469
20
75.5921020507812
40
0.0
41
0.0
42
0.0
10
77.154296875
20
75.5035018920898
40
0.0
41
0.0
42
0.0
10
77.1531982421875
20
75.4982986450195
40
0.0
41
0.0
42
0.0
10
76.9852981567383
20
75.4526977539062
40
0.0
41
0.0
42
0.0
10
76.4903030395508
20
75.3249969482422
40
0.0
41
0.0
42
0.0
10
76.0442962646484
20
75.3526000976562
40
0.0
41
0.0
42
0.0
10
76.0063018798828
20
75.3526000976562
40
0.0
41
0.0
42
0.0
10
75.9802017211914
20
75.3489990234375
40
0.0
41
0.0
42
0.0
10
75.8206024169922
20
75.4820022583008
40
0.0
41
0.0
42
0.0
10
75.8205032348633
20
75.5078964233398
40
0.0
41
0.0
42
0.0
10
75.5141983032227
20
75.6887969970703
40
0.0
41
0.0
42
0.0
10
75.4830017089844
20
75.6886978149414
40
0.0
41
0.0
42
0.0
10
75.2209014892578
20
75.9820022583008
40
0.0
41
0.0
42
0.0
210
0.0
220
0.0
230
1.0
0
LWPOLYLINE
5
34
330
1C
100
AcDbEntity
67
0
8
0
62
256
6
ByLayer
370
-1
48
1.0
60
0
100
AcDbPolyline
90
99
70
1
38
0.0
39
0.0
10
79.3709030151367
20
68.5823974609375
40
0.0
41
0.0
42
0.0
10
79.3707962036133
20
68.5463027954102
40
0.0
41
0.0
42
0.0
10
79.3790969848633
20
68.4831008911133
40
0.0
41
0.0
42
0.0
10
79.3872985839844
20
68.434700012207
40
0.0
41
0.0
42
0.0
10
79.3179016113281
20
68.0182037353516
40
0.0
41
0.0
42
0.0
10
79.3178024291992
20
67.9837036132812
40
0.0
41
0.0
42
0.0
10
79.3318023681641
20
67.9455032348633
40
0.0
41
0.0
42
0.0
10
79.2911987304688
20
67.5189971923828
40
0.0
41
0.0
42
0.0
10
79.2910995483398
20
67.4806976318359
40
0.0
41
0.0
42
0.0
10
79.3238983154297
20
67.0121002197266
40
0.0
41
0.0
42
0.0
10
79.3386993408203
20
66.9903030395508
40
0.0
41
0.0
42
0.0
10
79.4971008300781
20
66.6493988037109
40
0.0
41
0.0
42
0.0
10
79.5623016357422
20
66.5908966064453
40
0.0
41
0.0
42
0.0
10
79.6312026977539
20
66.4951019287109
40
0.0
41
0.0
42
0.0
10
79.9897994995117
20
66.2485961914062
40
0.0
41
0.0
42
0.0
10
80.4858016967773
20
66.0572967529297
40
0.0
41
0.0
42
0.0
10
80.7739028930664
20
66.0005035400391
40
0.0
41
0.0
42
0.0
10
80.9829025268555
20
65.9572982788086
40
0.0
41
0.0
42
0.0
10
81.1442031860352
20
65.9443969726562
40
0.0
41
0.0
42
0.0
10
81.4809036254883
20
65.9067001342773
40
0.0
41
0.0
42
0.0
10
81.6707992553711
20
65.9105987548828
40
0.0
41
0.0
42
0.0
10
81.980598449707
20
65.890998840332
40
0.0
41
0.0
42
0.0
10
82.0186004638672
20
65.8908996582031
40
0.0
41
0.0
42
0.0
10
82.2797012329102
20
65.9245986938477
40
0.0
41
0.0
42
0.0
10
82.4984970092773
20
65.8093032836914
40
0.0
41
0.0
42
0.0
10
82.5063018798828
20
65.7706985473633
40
0.0
41
0.0
42
0.0
10
82.535400390625
20
65.5170974731445
40
0.0
41
0.0
42
0.0
10
82.5139007568359
20
65.4862976074219
40
0.0
41
0.0
42
0.0
10
82.5121994018555
20
65.4787979125977
40
0.0
41
0.0
42
0.0
10
82.4991989135742
20
65.4561996459961
40
0.0
41
0.0
42
0.0
10
82.3548965454102
20
65.0166015625
40
0.0
41
0.0
42
0.0
10
82.3548965454102
20
65.0009994506836
40
0.0
41
0.0
42
0.0
10
82.3752975463867
20
65.0009994506836
40
0.0
41
0.0
42
0.0
10
82.500602722168
20
65.3825988769531
40
0.0
41
0.0
42
0.0
10
82.5111999511719
20
65.4009017944336
40
0.0
41
0.0
42
0.0
10
82.5164031982422
20
65.4235992431641
40
0.0
41
0.0
42
0.0
10
82.5636978149414
20
65.4924011230469
40
0.0
41
0.0
42
0.0
10
82.5755996704102
20
65.5074005126953
40
0.0
41
0.0
42
0.0
10
82.5755004882812
20
65.5390014648438
40
0.0
41
0.0
42
0.0
10
82.5245971679688
20
65.9847030639648
40
0.0
41
0.0
42
0.0
10
83.0126037597656
20
65.9845962524414
40
0.0
41
0.0
42
0.0
10
83.0248031616211
20
65.994499206543
40
0.0
41
0.0
42
0.0
10
83.0679016113281
20
66.1738967895508
40
0.0
41
0.0
42
0.0
10
83.4809036254883
20
66.1378021240234
40
0.0
41
0.0
42
0.0
10
83.5146026611328
20
66.1377029418945
40
0.0
41
0.0
42
0.0
10
83.5604019165039
20
66.1626968383789
40
0.0
41
0.0
42
0.0
10
84.0147018432617
20
66.2617034912109
40
0.0
41
0.0
42
0.0
10
84.4876022338867
20
66.4012985229492
40
0.0
41
0.0
42
0.0
10
84.5117034912109
20
66.4123992919922
40
0.0
41
0.0
42
0.0
10
84.7287979125977
20
66.4994964599609
40
0.0
41
0.0
42
0.0
10
84.9868011474609
20
66.5962982177734
40
0.0
41
0.0
42
0.0
10
84.9990005493164
20
66.6022033691406
40
0.0
41
0.0
42
0.0
10
84.9990005493164
20
66.6232986450195
40
0.0
41
0.0
42
0.0
10
84.9847030639648
20
66.6232986450195
40
0.0
41
0.0
42
0.0
10
84.9231033325195
20
66.5942001342773
40
0.0
41
0.0
42
0.0
10
84.6738967895508
20
66.5003967285156
40
0.0
41
0.0
42
0.0
10
84.4882965087891
20
66.4257965087891
40
0.0
41
0.0
42
0.0
10
84.4223022460938
20
66.3956985473633
40
0.0
41
0.0
42
0.0
10
83.9851989746094
20
66.2665023803711
40
0.0
41
0.0
42
0.0
10
83.5506973266602
20
66.1717987060547
40
0.0
41
0.0
42
0.0
10
83.5136032104492
20
66.1585006713867
40
0.0
41
0.0
42
0.0
10
83.4900970458984
20
66.1455993652344
40
0.0
41
0.0
42
0.0
10
83.0439987182617
20
66.1849975585938
40
0.0
41
0.0
42
0.0
10
83.0212020874023
20
66.1849975585938
40
0.0
41
0.0
42
0.0
10
83.004997253418
20
66.1220016479492
40
0.0
41
0.0
42
0.0
10
82.991096496582
20
66.1206970214844
40
0.0
41
0.0
42
0.0
10
82.9292984008789
20
66.2490997314453
40
0.0
41
0.0
42
0.0
10
82.8686981201172
20
66.4946975708008
40
0.0
41
0.0
42
0.0
10
82.8904037475586
20
66.5268020629883
40
0.0
41
0.0
42
0.0
10
82.9447021484375
20
66.9822998046875
40
0.0
41
0.0
42
0.0
10
82.9991989135742
20
67.4811019897461
40
0.0
41
0.0
42
0.0
10
82.9997024536133
20
68.0185012817383
40
0.0
41
0.0
42
0.0
10
82.9344024658203
20
68.4906997680664
40
0.0
41
0.0
42
0.0
10
82.9343032836914
20
68.5160980224609
40
0.0
41
0.0
42
0.0
10
82.7539978027344
20
68.9889984130859
40
0.0
41
0.0
42
0.0
10
82.7494964599609
20
69.010498046875
40
0.0
41
0.0
42
0.0
10
82.5037994384766
20
69.3056030273438
40
0.0
41
0.0
42
0.0
10
82.1803970336914
20
69.477897644043
40
0.0
41
0.0
42
0.0
10
82.1671981811523
20
69.5026016235352
40
0.0
41
0.0
42
0.0
10
82.0324020385742
20
69.5475006103516
40
0.0
41
0.0
42
0.0
10
82.0099029541016
20
69.5707015991211
40
0.0
41
0.0
42
0.0
10
81.5780029296875
20
69.6259994506836
40
0.0
41
0.0
42
0.0
10
81.5140991210938
20
69.6633987426758
40
0.0
41
0.0
42
0.0
10
81.081901550293
20
69.6731033325195
40
0.0
41
0.0
42
0.0
10
81.0171966552734
20
69.6905975341797
40
0.0
41
0.0
42
0.0
10
80.9804000854492
20
69.6904983520508
40
0.0
41
0.0
42
0.0
10
80.5960006713867
20
69.6740036010742
40
0.0
41
0.0
42
0.0
10
80.5180969238281
20
69.6875
40
0.0
41
0.0
42
0.0
10
80.4819030761719
20
69.6874008178711
40
0.0
41
0.0
42
0.0
10
80.1017990112305
20
69.6156997680664
40
0.0
41
0.0
42
0.0
10
80.0185012817383
20
69.6272964477539
40
0.0
41
0.0
42
0.0
10
79.9849014282227
20
69.6272964477539
40
0.0
41
0.0
42
0.0
10
79.9717025756836
20
69.6206970214844
40
0.0
41
0.0
42
0.0
10
79.7785034179688
20
69.5037994384766
40
0.0
41
0.0
42
0.0
10
79.5285034179688
20
69.2104034423828
40
0.0
41
0.0
42
0.0
10
79.4998016357422
20
69.116096496582
40
0.0
41
0.0
42
0.0
10
79.4718017578125
20
69.0453033447266
40
0.0
41
0.0
42
0.0
10
79.472900390625
20
69.0009002685547
40
0.0
41
0.0
42
0.0
10
79.3709030151367
20
68.5823974609375
40
0.0
41
0.0
42
0.0
210
0.0
220
0.0
230
1.0
0
LWPOLYLINE
5
35
330
1C
100
AcDbEntity
67
0
8
0
62
256
6
ByLayer
370
-1
48
1.0
60
0
100
AcDbPolyline
90
59
70
1
38
0.0
39
0.0
10
79.4681015014648
20
68.7987976074219
40
0.0
41
0.0
42
0.0
10
79.4998016357422
20
68.9358978271484
40
0.0
41
0.0
42
0.0
10
79.5185012817383
20
68.986701965332
40
0.0
41
0.0
42
0.0
10
79.5431976318359
20
69.067497253418
40
0.0
41
0.0
42
0.0
10
79.9085998535156
20
69.4961013793945
40
0.0
41
0.0
42
0.0
10
79.9878997802734
20
69.5440979003906
40
0.0
41
0.0
42
0.0
10
80.0065994262695
20
69.5533981323242
40
0.0
41
0.0
42
0.0
10
80.0582962036133
20
69.5522003173828
40
0.0
41
0.0
42
0.0
10
80.5005035400391
20
69.6355972290039
40
0.0
41
0.0
42
0.0
10
80.5143966674805
20
69.63330078125
40
0.0
41
0.0
42
0.0
10
80.5522994995117
20
69.6332015991211
40
0.0
41
0.0
42
0.0
10
80.9879989624023
20
69.6520004272461
40
0.0
41
0.0
42
0.0
10
81.0078964233398
20
69.646598815918
40
0.0
41
0.0
42
0.0
10
81.4858016967773
20
69.6356964111328
40
0.0
41
0.0
42
0.0
10
81.5118026733398
20
69.6205978393555
40
0.0
41
0.0
42
0.0
10
81.9897003173828
20
69.5594024658203
40
0.0
41
0.0
42
0.0
10
82.0009994506836
20
69.5482025146484
40
0.0
41
0.0
42
0.0
10
82.1541976928711
20
69.4972991943359
40
0.0
41
0.0
42
0.0
10
82.1914978027344
20
69.4304962158203
40
0.0
41
0.0
42
0.0
10
82.486701965332
20
69.2733993530273
40
0.0
41
0.0
42
0.0
10
82.7227020263672
20
68.9893035888672
40
0.0
41
0.0
42
0.0
10
82.7368011474609
20
68.9207992553711
40
0.0
41
0.0
42
0.0
10
82.9028015136719
20
68.4852981567383
40
0.0
41
0.0
42
0.0
10
82.9022979736328
20
68.4162979125977
40
0.0
41
0.0
42
0.0
10
82.9598007202148
20
68.0030975341797
40
0.0
41
0.0
42
0.0
10
82.9541015625
20
67.9713973999023
40
0.0
41
0.0
42
0.0
10
82.9533996582031
20
67.5167999267578
40
0.0
41
0.0
42
0.0
10
82.932502746582
20
67.4477996826172
40
0.0
41
0.0
42
0.0
10
82.8855972290039
20
67.0176010131836
40
0.0
41
0.0
42
0.0
10
82.83740234375
20
66.6146011352539
40
0.0
41
0.0
42
0.0
10
82.7689971923828
20
66.5134963989258
40
0.0
41
0.0
42
0.0
10
82.7688980102539
20
66.4824981689453
40
0.0
41
0.0
42
0.0
10
82.815803527832
20
66.2927017211914
40
0.0
41
0.0
42
0.0
10
82.9131011962891
20
66.0798034667969
40
0.0
41
0.0
42
0.0
10
82.4820022583008
20
66.0799026489258
40
0.0
41
0.0
42
0.0
10
82.0743026733398
20
65.9990997314453
40
0.0
41
0.0
42
0.0
10
81.9944000244141
20
65.9887008666992
40
0.0
41
0.0
42
0.0
10
81.9457015991211
20
65.9893035888672
40
0.0
41
0.0
42
0.0
10
81.5115966796875
20
65.9781036376953
40
0.0
41
0.0
42
0.0
10
81.4402008056641
20
65.9860000610352
40
0.0
41
0.0
42
0.0
10
81.0395965576172
20
66.0195007324219
40
0.0
41
0.0
42
0.0
10
81.0154037475586
20
66.0193023681641
40
0.0
41
0.0
42
0.0
10
80.5140991210938
20
66.1174011230469
40
0.0
41
0.0
42
0.0
10
80.1147994995117
20
66.2710037231445
40
0.0
41
0.0
42
0.0
10
80.0099029541016
20
66.3127975463867
40
0.0
41
0.0
42
0.0
10
79.7310028076172
20
66.5046997070312
40
0.0
41
0.0
42
0.0
10
79.6776962280273
20
66.5787963867188
40
0.0
41
0.0
42
0.0
10
79.5027008056641
20
66.7354965209961
40
0.0
41
0.0
42
0.0
10
79.3753967285156
20
67.0094985961914
40
0.0
41
0.0
42
0.0
10
79.3289031982422
20
67.0777969360352
40
0.0
41
0.0
42
0.0
10
79.2995986938477
20
67.4980010986328
40
0.0
41
0.0
42
0.0
10
79.3395004272461
20
67.915901184082
40
0.0
41
0.0
42
0.0
10
79.3394012451172
20
67.9535980224609
40
0.0
41
0.0
42
0.0
10
79.3347015380859
20
67.9898986816406
40
0.0
41
0.0
42
0.0
10
79.3290023803711
20
68.0054016113281
40
0.0
41
0.0
42
0.0
10
79.4046020507812
20
68.4567031860352
40
0.0
41
0.0
42
0.0
10
79.4045028686523
20
68.4932022094727
40
0.0
41
0.0
42
0.0
10
79.4001007080078
20
68.5198974609375
40
0.0
41
0.0
42
0.0
10
79.4681015014648
20
68.7987976074219
40
0.0
41
0.0
42
0.0
210
0.0
220
0.0
230
1.0
0
LWPOLYLINE
5
36
330
1C
100
AcDbEntity
67
0
8
0
62
256
6
ByLayer
370
-1
48
1.0
60
0
100
AcDbPolyline
90
100
70
1
38
0.0
39
0.0
10
80.3723983764648
20
79.9849014282227
40
0.0
41
0.0
42
0.0
10
80.3790969848633
20
79.9717025756836
40
0.0
41
0.0
42
0.0
10
80.4961013793945
20
79.7785034179688
40
0.0
41
0.0
42
0.0
10
80.7893981933594
20
79.5285034179688
40
0.0
41
0.0
42
0.0
10
80.8835983276367
20
79.4997024536133
40
0.0
41
0.0
42
0.0
10
80.9545974731445
20
79.4718017578125
40
0.0
41
0.0
42
0.0
10
80.9990005493164
20
79.472900390625
40
0.0
41
0.0
42
0.0
10
81.4175033569336
20
79.3709030151367
40
0.0
41
0.0
42
0.0
10
81.4535980224609
20
79.3707962036133
40
0.0
41
0.0
42
0.0
10
81.5167999267578
20
79.3790969848633
40
0.0
41
0.0
42
0.0
10
81.5652008056641
20
79.3872985839844
40
0.0
41
0.0
42
0.0
10
81.9816970825195
20
79.3179016113281
40
0.0
41
0.0
42
0.0
10
82.0161972045898
20
79.3179016113281
40
0.0
41
0.0
42
0.0
10
82.0543975830078
20
79.3318023681641
40
0.0
41
0.0
42
0.0
10
82.4809036254883
20
79.2911987304688
40
0.0
41
0.0
42
0.0
10
82.5192031860352
20
79.2910995483398
40
0.0
41
0.0
42
0.0
10
82.9878005981445
20
79.3239974975586
40
0.0
41
0.0
42
0.0
10
83.0095977783203
20
79.3387985229492
40
0.0
41
0.0
42
0.0
10
83.3516006469727
20
79.497802734375
40
0.0
41
0.0
42
0.0
10
83.3761978149414
20
79.5193023681641
40
0.0
41
0.0
42
0.0
10
83.4080963134766
20
79.5617980957031
40
0.0
41
0.0
42
0.0
10
83.5046997070312
20
79.6313018798828
40
0.0
41
0.0
42
0.0
10
83.7511978149414
20
79.9897994995117
40
0.0
41
0.0
42
0.0
10
83.9423980712891
20
80.4858016967773
40
0.0
41
0.0
42
0.0
10
83.9992980957031
20
80.7739028930664
40
0.0
41
0.0
42
0.0
10
84.0423965454102
20
80.9829025268555
40
0.0
41
0.0
42
0.0
10
84.0552978515625
20
81.1443023681641
40
0.0
41
0.0
42
0.0
10
84.0930023193359
20
81.4809036254883
40
0.0
41
0.0
42
0.0
10
84.0891036987305
20
81.6707992553711
40
0.0
41
0.0
42
0.0
10
84.1089019775391
20
81.980598449707
40
0.0
41
0.0
42
0.0
10
84.1088027954102
20
82.0186004638672
40
0.0
41
0.0
42
0.0
10
84.0751037597656
20
82.2798004150391
40
0.0
41
0.0
42
0.0
10
84.1904983520508
20
82.4984970092773
40
0.0
41
0.0
42
0.0
10
84.2291030883789
20
82.5063018798828
40
0.0
41
0.0
42
0.0
10
84.4825973510742
20
82.5353012084961
40
0.0
41
0.0
42
0.0
10
84.5136032104492
20
82.513801574707
40
0.0
41
0.0
42
0.0
10
84.5210037231445
20
82.5121994018555
40
0.0
41
0.0
42
0.0
10
84.5436019897461
20
82.4991989135742
40
0.0
41
0.0
42
0.0
10
84.9832992553711
20
82.3548965454102
40
0.0
41
0.0
42
0.0
10
84.9990005493164
20
82.3548965454102
40
0.0
41
0.0
42
0.0
10
84.9989013671875
20
82.3752975463867
40
0.0
41
0.0
42
0.0
10
84.6172027587891
20
82.500602722168
40
0.0
41
0.0
42
0.0
10
84.5988998413086
20
82.511100769043
40
0.0
41
0.0
42
0.0
10
84.576301574707
20
82.5162963867188
40
0.0
41
0.0
42
0.0
10
84.5074996948242
20
82.5635986328125
40
0.0
41
0.0
42
0.0
10
84.4924011230469
20
82.5755996704102
40
0.0
41
0.0
42
0.0
10
84.4608001708984
20
82.5755004882812
40
0.0
41
0.0
42
0.0
10
84.0151977539062
20
82.5245971679688
40
0.0
41
0.0
42
0.0
10
84.0150985717773
20
83.0126037597656
40
0.0
41
0.0
42
0.0
10
84.0053024291992
20
83.0246963500977
40
0.0
41
0.0
42
0.0
10
83.825798034668
20
83.0678024291992
40
0.0
41
0.0
42
0.0
10
83.8620986938477
20
83.4809036254883
40
0.0
41
0.0
42
0.0
10
83.8619995117188
20
83.5177001953125
40
0.0
41
0.0
42
0.0
10
83.7680969238281
20
83.9486999511719
40
0.0
41
0.0
42
0.0
10
83.7529983520508
20
83.9859008789062
40
0.0
41
0.0
42
0.0
10
83.738899230957
20
84.0118026733398
40
0.0
41
0.0
42
0.0
10
83.5983963012695
20
84.4875030517578
40
0.0
41
0.0
42
0.0
10
83.5873031616211
20
84.5115966796875
40
0.0
41
0.0
42
0.0
10
83.4974975585938
20
84.7357025146484
40
0.0
41
0.0
42
0.0
10
83.4033966064453
20
84.9868011474609
40
0.0
41
0.0
42
0.0
10
83.3975982666016
20
84.9990005493164
40
0.0
41
0.0
42
0.0
10
83.3766021728516
20
84.9990005493164
40
0.0
41
0.0
42
0.0
10
83.3764038085938
20
84.9845962524414
40
0.0
41
0.0
42
0.0
10
83.4055023193359
20
84.9231033325195
40
0.0
41
0.0
42
0.0
10
83.4921035766602
20
84.6921005249023
40
0.0
41
0.0
42
0.0
10
83.5738983154297
20
84.4881973266602
40
0.0
41
0.0
42
0.0
10
83.6039962768555
20
84.4223022460938
40
0.0
41
0.0
42
0.0
10
83.7322998046875
20
83.9879989624023
40
0.0
41
0.0
42
0.0
10
83.7555999755859
20
83.945198059082
40
0.0
41
0.0
42
0.0
10
83.8541030883789
20
83.4934005737305
40
0.0
41
0.0
42
0.0
10
83.8149032592773
20
83.0439987182617
40
0.0
41
0.0
42
0.0
10
83.8147964477539
20
83.0212020874023
40
0.0
41
0.0
42
0.0
10
83.8779983520508
20
83.004997253418
40
0.0
41
0.0
42
0.0
10
83.8793029785156
20
82.991096496582
40
0.0
41
0.0
42
0.0
10
83.7507019042969
20
82.9292984008789
40
0.0
41
0.0
42
0.0
10
83.5052032470703
20
82.8685989379883
40
0.0
41
0.0
42
0.0
10
83.4729995727539
20
82.8904037475586
40
0.0
41
0.0
42
0.0
10
83.0176010131836
20
82.9447021484375
40
0.0
41
0.0
42
0.0
10
82.518798828125
20
82.9991989135742
40
0.0
41
0.0
42
0.0
10
81.9813995361328
20
82.9998016357422
40
0.0
41
0.0
42
0.0
10
81.5091018676758
20
82.9344024658203
40
0.0
41
0.0
42
0.0
10
81.4838027954102
20
82.9343032836914
40
0.0
41
0.0
42
0.0
10
81.0109024047852
20
82.7539978027344
40
0.0
41
0.0
42
0.0
10
80.9894027709961
20
82.7494964599609
40
0.0
41
0.0
42
0.0
10
80.6940994262695
20
82.5038986206055
40
0.0
41
0.0
42
0.0
10
80.5220031738281
20
82.1803970336914
40
0.0
41
0.0
42
0.0
10
80.497200012207
20
82.1672973632812
40
0.0
41
0.0
42
0.0
10
80.4522018432617
20
82.0324020385742
40
0.0
41
0.0
42
0.0
10
80.4257965087891
20
82.0068969726562
40
0.0
41
0.0
42
0.0
10
80.3915023803711
20
81.9480972290039
40
0.0
41
0.0
42
0.0
10
80.3364028930664
20
81.5184020996094
40
0.0
41
0.0
42
0.0
10
80.3265991210938
20
81.081901550293
40
0.0
41
0.0
42
0.0
10
80.3093032836914
20
81.0171966552734
40
0.0
41
0.0
42
0.0
10
80.309196472168
20
80.9804000854492
40
0.0
41
0.0
42
0.0
10
80.3256988525391
20
80.5960006713867
40
0.0
41
0.0
42
0.0
10
80.3124008178711
20
80.5180969238281
40
0.0
41
0.0
42
0.0
10
80.3123016357422
20
80.4819030761719
40
0.0
41
0.0
42
0.0
10
80.3840026855469
20
80.1018981933594
40
0.0
41
0.0
42
0.0
10
80.3723983764648
20
80.0108032226562
40
0.0
41
0.0
42
0.0
10
80.3723983764648
20
79.9849014282227
40
0.0
41
0.0
42
0.0
210
0.0
220
0.0
230
1.0
0
LWPOLYLINE
5
37
330
1C
100
AcDbEntity
67
0
8
0
62
256
6
ByLayer
370
-1
48
1.0
60
0
100
AcDbPolyline
90
61
70
1
38
0.0
39
0.0
10
80.3640975952148
20
80.5005035400391
40
0.0
41
0.0
42
0.0
10
80.3666000366211
20
80.5143966674805
40
0.0
41
0.0
42
0.0
10
80.3665008544922
20
80.5522994995117
40
0.0
41
0.0
42
0.0
10
80.3477020263672
20
80.9879989624023
40
0.0
41
0.0
42
0.0
10
80.3531036376953
20
81.0080032348633
40
0.0
41
0.0
42
0.0
10
80.3638000488281
20
81.4814987182617
40
0.0
41
0.0
42
0.0
10
80.4253997802734
20
81.9618988037109
40
0.0
41
0.0
42
0.0
10
80.443603515625
20
81.9929962158203
40
0.0
41
0.0
42
0.0
10
80.4514007568359
20
82.0007019042969
40
0.0
41
0.0
42
0.0
10
80.5026016235352
20
82.1541976928711
40
0.0
41
0.0
42
0.0
10
80.5692977905273
20
82.1915969848633
40
0.0
41
0.0
42
0.0
10
80.7263031005859
20
82.4868011474609
40
0.0
41
0.0
42
0.0
10
81.0105972290039
20
82.7227020263672
40
0.0
41
0.0
42
0.0
10
81.0791015625
20
82.7369003295898
40
0.0
41
0.0
42
0.0
10
81.5146026611328
20
82.9028015136719
40
0.0
41
0.0
42
0.0
10
81.5836029052734
20
82.9023971557617
40
0.0
41
0.0
42
0.0
10
81.996696472168
20
82.9598007202148
40
0.0
41
0.0
42
0.0
10
82.0283966064453
20
82.9541015625
40
0.0
41
0.0
42
0.0
10
82.4831008911133
20
82.9533996582031
40
0.0
41
0.0
42
0.0
10
82.552001953125
20
82.932502746582
40
0.0
41
0.0
42
0.0
10
82.9822998046875
20
82.8855972290039
40
0.0
41
0.0
42
0.0
10
83.3852005004883
20
82.83740234375
40
0.0
41
0.0
42
0.0
10
83.4863967895508
20
82.7689971923828
40
0.0
41
0.0
42
0.0
10
83.5174026489258
20
82.7688980102539
40
0.0
41
0.0
42
0.0
10
83.7070999145508
20
82.815803527832
40
0.0
41
0.0
42
0.0
10
83.9198989868164
20
82.9130020141602
40
0.0
41
0.0
42
0.0
10
83.9197006225586
20
82.4881973266602
40
0.0
41
0.0
42
0.0
10
83.9581985473633
20
82.4474029541016
40
0.0
41
0.0
42
0.0
10
84.0008010864258
20
82.0734024047852
40
0.0
41
0.0
42
0.0
10
84.0110015869141
20
81.9944000244141
40
0.0
41
0.0
42
0.0
10
84.0103988647461
20
81.9457015991211
40
0.0
41
0.0
42
0.0
10
84.0216979980469
20
81.5115966796875
40
0.0
41
0.0
42
0.0
10
84.013298034668
20
81.4352035522461
40
0.0
41
0.0
42
0.0
10
83.9804992675781
20
81.0174026489258
40
0.0
41
0.0
42
0.0
10
83.9761962890625
20
80.99169921875
40
0.0
41
0.0
42
0.0
10
83.8823013305664
20
80.5140991210938
40
0.0
41
0.0
42
0.0
10
83.7286987304688
20
80.1147994995117
40
0.0
41
0.0
42
0.0
10
83.686897277832
20
80.0100021362305
40
0.0
41
0.0
42
0.0
10
83.4952011108398
20
79.7310028076172
40
0.0
41
0.0
42
0.0
10
83.4216995239258
20
79.6782989501953
40
0.0
41
0.0
42
0.0
10
83.3411026000977
20
79.5706024169922
40
0.0
41
0.0
42
0.0
10
83.2630004882812
20
79.5020980834961
40
0.0
41
0.0
42
0.0
10
82.9904022216797
20
79.3753967285156
40
0.0
41
0.0
42
0.0
10
82.9220962524414
20
79.3290023803711
40
0.0
41
0.0
42
0.0
10
82.5027008056641
20
79.2995986938477
40
0.0
41
0.0
42
0.0
10
82.0839996337891
20
79.3395004272461
40
0.0
41
0.0
42
0.0
10
82.0463027954102
20
79.3394012451172
40
0.0
41
0.0
42
0.0
10
82.0100021362305
20
79.3347015380859
40
0.0
41
0.0
42
0.0
10
81.994499206543
20
79.3290023803711
40
0.0
41
0.0
42
0.0
10
81.5431976318359
20
79.4046020507812
40
0.0
41
0.0
42
0.0
10
81.5066986083984
20
79.4045028686523
40
0.0
41
0.0
42
0.0
10
81.4800033569336
20
79.4000015258789
40
0.0
41
0.0
42
0.0
10
81.2009963989258
20
79.4681015014648
40
0.0
41
0.0
42
0.0
10
81.0639038085938
20
79.4998016357422
40
0.0
41
0.0
42
0.0
10
81.0131988525391
20
79.5185012817383
40
0.0
41
0.0
42
0.0
10
80.9322967529297
20
79.5431976318359
40
0.0
41
0.0
42
0.0
10
80.5037002563477
20
79.9085006713867
40
0.0
41
0.0
42
0.0
10
80.4555969238281
20
79.9878997802734
40
0.0
41
0.0
42
0.0
10
80.4462966918945
20
80.0065002441406
40
0.0
41
0.0
42
0.0
10
80.4475021362305
20
80.0582962036133
40
0.0
41
0.0
42
0.0
10
80.3640975952148
20
80.5005035400391
40
0.0
41
0.0
42
0.0
210
0.0
220
0.0
230
1.0
0
LWPOLYLINE
5
38
330
1C
100
AcDbEntity
67
0
8
0
62
256
6
ByLayer
370
-1
48
1.0
60
0
100
AcDbPolyline
90
82
70
1
38
0.0
39
0.0
10
82.4973983764648
20
73.8106994628906
40
0.0
41
0.0
42
0.0
10
82.6766967773438
20
73.4924011230469
40
0.0
41
0.0
42
0.0
10
82.6967010498047
20
73.4710006713867
40
0.0
41
0.0
42
0.0
10
82.9299011230469
20
73.1484985351562
40
0.0
41
0.0
42
0.0
10
82.9944000244141
20
73.1025009155273
40
0.0
41
0.0
42
0.0
10
83.0823974609375
20
72.9934997558594
40
0.0
41
0.0
42
0.0
10
83.4297027587891
20
72.6038970947266
40
0.0
41
0.0
42
0.0
10
83.4658966064453
20
72.572998046875
40
0.0
41
0.0
42
0.0
10
83.4841003417969
20
72.5656967163086
40
0.0
41
0.0
42
0.0
10
83.5102005004883
20
72.5654983520508
40
0.0
41
0.0
42
0.0
10
83.5477981567383
20
72.5455017089844
40
0.0
41
0.0
42
0.0
10
83.6239013671875
20
72.4979019165039
40
0.0
41
0.0
42
0.0
10
83.9856033325195
20
72.2866973876953
40
0.0
41
0.0
42
0.0
10
84.0189971923828
20
72.2865982055664
40
0.0
41
0.0
42
0.0
10
84.0792007446289
20
72.2918014526367
40
0.0
41
0.0
42
0.0
10
84.4803009033203
20
72.280403137207
40
0.0
41
0.0
42
0.0
10
84.5162963867188
20
72.2802963256836
40
0.0
41
0.0
42
0.0
10
84.7424011230469
20
72.3609008789062
40
0.0
41
0.0
42
0.0
10
84.9990005493164
20
72.4475021362305
40
0.0
41
0.0
42
0.0
10
84.9990005493164
20
72.5166015625
40
0.0
41
0.0
42
0.0
10
84.9841003417969
20
72.5166015625
40
0.0
41
0.0
42
0.0
10
84.945198059082
20
72.5003967285156
40
0.0
41
0.0
42
0.0
10
84.4862976074219
20
72.3367004394531
40
0.0
41
0.0
42
0.0
10
84.2015991210938
20
72.3449020385742
40
0.0
41
0.0
42
0.0
10
84.16259765625
20
72.3448028564453
40
0.0
41
0.0
42
0.0
10
84.0099029541016
20
72.3315963745117
40
0.0
41
0.0
42
0.0
10
83.7183990478516
20
72.5019989013672
40
0.0
41
0.0
42
0.0
10
83.6587982177734
20
72.5392990112305
40
0.0
41
0.0
42
0.0
10
83.5795974731445
20
72.5813980102539
40
0.0
41
0.0
42
0.0
10
83.5158004760742
20
72.5818023681641
40
0.0
41
0.0
42
0.0
10
83.4573974609375
20
72.6052017211914
40
0.0
41
0.0
42
0.0
10
83.1004028320312
20
73.0063018798828
40
0.0
41
0.0
42
0.0
10
83.0054016113281
20
73.1240005493164
40
0.0
41
0.0
42
0.0
10
82.9798965454102
20
73.1420974731445
40
0.0
41
0.0
42
0.0
10
82.7225036621094
20
73.4979019165039
40
0.0
41
0.0
42
0.0
10
82.7136993408203
20
73.5074005126953
40
0.0
41
0.0
42
0.0
10
82.5024032592773
20
73.8827972412109
40
0.0
41
0.0
42
0.0
10
82.4935989379883
20
73.8939971923828
40
0.0
41
0.0
42
0.0
10
82.4794006347656
20
73.9057998657227
40
0.0
41
0.0
42
0.0
10
82.4171981811523
20
73.9924011230469
40
0.0
41
0.0
42
0.0
10
82.4001007080078
20
74.0080032348633
40
0.0
41
0.0
42
0.0
10
82.3735961914062
20
74.0845031738281
40
0.0
41
0.0
42
0.0
10
82.3028030395508
20
74.4928970336914
40
0.0
41
0.0
42
0.0
10
82.5016021728516
20
74.8133010864258
40
0.0
41
0.0
42
0.0
10
82.5914001464844
20
74.992301940918
40
0.0
41
0.0
42
0.0
10
82.7590026855469
20
75.1641006469727
40
0.0
41
0.0
42
0.0
10
83.0672988891602
20
75.4952011108398
40
0.0
41
0.0
42
0.0
10
83.0986022949219
20
75.5214996337891
40
0.0
41
0.0
42
0.0
10
83.1518020629883
20
75.5596008300781
40
0.0
41
0.0
42
0.0
10
83.5070037841797
20
75.8901977539062
40
0.0
41
0.0
42
0.0
10
83.6843032836914
20
76.006103515625
40
0.0
41
0.0
42
0.0
10
83.986701965332
20
76.2106018066406
40
0.0
41
0.0
42
0.0
10
84.0483016967773
20
76.1905975341797
40
0.0
41
0.0
42
0.0
10
84.0830001831055
20
76.1904983520508
40
0.0
41
0.0
42
0.0
10
84.4964981079102
20
76.2662963867188
40
0.0
41
0.0
42
0.0
10
84.9237976074219
20
76.1414031982422
40
0.0
41
0.0
42
0.0
10
84.986198425293
20
76.1006011962891
40
0.0
41
0.0
42
0.0
10
84.9990005493164
20
76.1006011962891
40
0.0
41
0.0
42
0.0
10
84.9989013671875
20
76.144401550293
40
0.0
41
0.0
42
0.0
10
84.9860000610352
20
76.1528015136719
40
0.0
41
0.0
42
0.0
10
84.5168991088867
20
76.2901000976562
40
0.0
41
0.0
42
0.0
10
84.4819030761719
20
76.2900009155273
40
0.0
41
0.0
42
0.0
10
84.0291976928711
20
76.206901550293
40
0.0
41
0.0
42
0.0
10
84.0166015625
20
76.2110977172852
40
0.0
41
0.0
42
0.0
10
83.980598449707
20
76.2110977172852
40
0.0
41
0.0
42
0.0
10
83.9219970703125
20
76.2074966430664
40
0.0
41
0.0
42
0.0
10
83.652702331543
20
76.0251998901367
40
0.0
41
0.0
42
0.0
10
83.4928970336914
20
75.9216995239258
40
0.0
41
0.0
42
0.0
10
83.2209014892578
20
75.6685028076172
40
0.0
41
0.0
42
0.0
10
83.0809020996094
20
75.5682983398438
40
0.0
41
0.0
42
0.0
10
83.0054016113281
20
75.5047988891602
40
0.0
41
0.0
42
0.0
10
82.951301574707
20
75.446403503418
40
0.0
41
0.0
42
0.0
10
82.5229034423828
20
75.0075988769531
40
0.0
41
0.0
42
0.0
10
82.4982986450195
20
74.9583969116211
40
0.0
41
0.0
42
0.0
10
82.2226028442383
20
74.5139999389648
40
0.0
41
0.0
42
0.0
10
82.2223968505859
20
74.4816970825195
40
0.0
41
0.0
42
0.0
10
82.277099609375
20
74.1669006347656
40
0.0
41
0.0
42
0.0
10
82.3378982543945
20
73.9917984008789
40
0.0
41
0.0
42
0.0
10
82.3740005493164
20
73.9588012695312
40
0.0
41
0.0
42
0.0
10
82.4303970336914
20
73.8803024291992
40
0.0
41
0.0
42
0.0
10
82.4658966064453
20
73.8506011962891
40
0.0
41
0.0
42
0.0
10
82.4973983764648
20
73.8106994628906
40
0.0
41
0.0
42
0.0
210
0.0
220
0.0
230
1.0
0
VIEWPORT
5
3D
330
39
100
AcDbEntity
67
1
8
0
62
256
6
ByLayer
370
-1
48
1.0
60
0
100
AcDbViewport
10
0.0
20
0.0
30
0.0
40
297.0
41
210.0
68
1
69
1
12
50.0
22
100.0
13
0.0
23
0.0
14
10.0
24
10.0
15
10.0
25
10.0
16
0.0
26
0.0
36
1.0
17
0.0
27
0.0
37
0.0
42
50.0
43
0.0
44
0.0
45
250.0
50
0.0
51
0.0
72
1000
90
819232
110
0.0
120
0.0
130
0.0
111
1.0
121
0.0
131
0.0
112
0.0
122
1.0
132
0.0
0
ENDSEC
0
SECTION
2
OBJECTS
0
DICTIONARY
5
43
330
0
100
AcDbDictionary
280
1
281
1
3
ACAD_GROUP
350
12
3
ACAD_LAYOUT
350
3C
3
ACAD_DGNDEFINITIONS
350
F
3
ACAD_DWFDEFINITIONS
350
10
3
ACAD_PDFDEFINITIONS
350
11
3
ACAD_MLINESTYLE
350
B
3
ACAD_IMAGE_DICT
350
E
3
ACAD_IMAGE_VARS
350
21
0
DICTIONARY
5
12
330
43
100
AcDbDictionary
280
1
281
1
0
DICTIONARY
5
3C
330
43
100
AcDbDictionary
280
1
281
1
3
Model
350
20
3
Layout1
350
3E
0
DICTIONARY
5
F
330
43
100
AcDbDictionary
280
1
281
1
0
DICTIONARY
5
10
330
43
100
AcDbDictionary
280
1
281
1
0
DICTIONARY
5
11
330
43
100
AcDbDictionary
280
1
281
1
0
DICTIONARY
5
B
330
43
100
AcDbDictionary
280
1
281
1
3
Standard
350
1B
0
DICTIONARY
5
E
330
43
100
AcDbDictionary
280
1
281
1
0
DICTIONARY
5
6
330
5
100
AcDbDictionary
280
1
281
1
3
ACAD_LAYERSTATES
360
44
0
DICTIONARY
5
44
330
6
100
AcDbDictionary
280
1
281
1
0
LAYOUT
5
20
330
3C
100
AcDbPlotSettings
1

2
none_device
4
ISO_A4_(210.00_x_297.00_MM)
6

40
7.5
41
20.0
42
7.5
43
20.0
44
210.0
45
297.0
46
0.0
47
0.0
48
0.0
49
0.0
140
0.0
141
0.0
142
1.0
143
1.0
70
11952
72
1
73
1
74
1
7

75
0
76
0
77
2
78
300
147
1.0
148
0.0
149
0.0
100
AcDbLayout
1
Model
71
0
10
-20.0
20
-7.5
11
277.0
21
202.5
12
0.0
22
0.0
32
0.0
14
25.7
24
19.5
34
0.0
15
231.3
25
175.5
35
0.0
146
0.0
13
0.0
23
0.0
33
0.0
16
1.0
26
0.0
36
0.0
17
0.0
27
1.0
37
0.0
76
0
330
1C
0
LAYOUT
5
3E
330
3C
100
AcDbPlotSettings
1

2
none_device
4
ISO_A4_(210.00_x_297.00_MM)
6

40
7.5
41
20.0
42
7.5
43
20.0
44
210.0
45
297.0
46
0.0
47
0.0
48
0.0
49
0.0
140
0.0
141
0.0
142
1.0
143
1.0
70
688
72
1
73
1
74
1
7

75
0
76
0
77
2
78
300
147
1.0
148
0.0
149
0.0
100
AcDbLayout
1
Layout1
71
1
10
-20.0
20
-7.5
11
277.0
21
202.5
12
0.0
22
0.0
32
0.0
14
25.7
24
19.5
34
0.0
15
231.3
25
175.5
35
0.0
146
0.0
13
0.0
23
0.0
33
0.0
16
1.0
26
0.0
36
0.0
17
0.0
27
1.0
37
0.0
76
0
330
39
0
MLINESTYLE
5
1B
330
B
100
AcDbMlineStyle
2
Standard
70
0
3

62
256
51
90.0
52
90.0
71
2
49
0.5
62
256
6
ByLayer
49
-0.5
62
256
6
ByLayer
0
RASTERVARIABLES
5
21
330
E
100
AcDbRasterVariables
90
0
70
1
71
1
72
0
0
ENDSEC
0
EOF
