999
DXF file generated by netDxf https://github.com/haplokuon/netDxf, Copyright(C) Daniel Carvajal, Licensed under MIT
0
SECTION
2
HEADER
9
$ACADVER
1
AC1015
9
$DWGCODEPAGE
3
ANSI_1252
9
$HANDSEED
5
40
9
$ANGBASE
50
0.0
9
$ANGDIR
70
0
9
$ATTMODE
70
1
9
$AUNITS
70
0
9
$AUPREC
70
0
9
$CECOLOR
62
256
9
$CELTSCALE
40
1.0
9
$CELTYPE
6
ByLayer
9
$CELWEIGHT
370
-1
9
$CLAYER
8
0
9
$CMLJUST
70
0
9
$CMLSCALE
40
20.0
9
$CMLSTYLE
2
Standard
9
$DIMSTYLE
2
Standard
9
$TEXTSIZE
40
2.5
9
$TEXTSTYLE
7
Standard
9
$LUNITS
70
2
9
$LUPREC
70
4
9
$MIRRTEXT
70
0
9
$EXTNAMES
290
1
9
$INSBASE
10
0.0
20
0.0
30
0.0
9
$INSUNITS
70
0
9
$LTSCALE
40
1.0
9
$LWDISPLAY
290
0
9
$PDMODE
70
0
9
$PDSIZE
40
0.0
9
$PLINEGEN
70
0
9
$PSLTSCALE
70
1
9
$SPLINESEGS
70
8
9
$SURFU
70
6
9
$SURFV
70
6
9
$TDCREATE
40
2460823.48368887
9
$TDUCREATE
40
2460823.15035553
9
$TDUPDATE
40
2460823.48368887
9
$TDUUPDATE
40
2460823.15035553
9
$TDINDWG
40
0.0
9
$UCSORG
10
0.0
20
0.0
30
0.0
9
$UCSXDIR
10
1.0
20
0.0
30
0.0
9
$UCSYDIR
10
0.0
20
1.0
30
0.0
9
$DIMADEC
70
0
9
$DIMALT
70
0
9
$DIMALTD
70
2
9
$DIMALTF
40
25.4
9
$DIMALTRND
40
0.0
9
$DIMALTTD
70
2
9
$DIMALTTZ
70
0
9
$DIMALTU
70
2
9
$DIMALTZ
70
0
9
$DIMAPOST
1

9
$DIMATFIT
70
3
9
$DIMAUNIT
70
0
9
$DIMASZ
40
0.18
9
$DIMAZIN
70
0
9
$DIMSAH
70
0
9
$DIMBLK
1

9
$DIMLDRBLK
1

9
$DIMCEN
40
0.09
9
$DIMCLRD
70
0
9
$DIMCLRE
70
0
9
$DIMCLRT
70
0
9
$DIMDEC
70
4
9
$DIMDLE
40
0.0
9
$DIMDLI
40
0.38
9
$DIMDSEP
70
46
9
$DIMEXE
40
0.18
9
$DIMEXO
40
0.0625
9
$DIMFXLON
70
0
9
$DIMFXL
40
1.0
9
$DIMGAP
40
0.09
9
$DIMJUST
70
0
9
$DIMLFAC
40
1.0
9
$DIMLUNIT
70
2
9
$DIMLWD
70
-2
9
$DIMLWE
70
-2
9
$DIMPOST
1

9
$DIMRND
40
0.0
9
$DIMSCALE
40
1.0
9
$DIMSD1
70
0
9
$DIMSD2
70
0
9
$DIMSE1
70
0
9
$DIMSE2
70
0
9
$DIMSOXD
70
0
9
$DIMTAD
70
0
9
$DIMTDEC
70
4
9
$DIMTFAC
40
1.0
9
$DIMTIH
70
0
9
$DIMTIX
70
0
9
$DIMTM
40
0.0
9
$DIMTMOVE
70
0
9
$DIMTOFL
70
0
9
$DIMTOH
70
0
9
$DIMTOL
70
0
9
$DIMLIM
70
0
9
$DIMTOLJ
70
1
9
$DIMTP
40
0.0
9
$DIMTXT
40
0.18
9
$DIMTXTDIRECTION
70
0
9
$DIMTZIN
70
0
9
$DIMZIN
70
0
9
$DIMFRAC
70
0
9
$DIMLTYPE
6
ByBlock
9
$DIMLTEX1
6
ByBlock
9
$DIMLTEX2
6
ByBlock
0
ENDSEC
0
SECTION
2
CLASSES
0
CLASS
1
RASTERVARIABLES
2
AcDbRasterVariables
3
ISM
90
0
280
0
281
0
0
ENDSEC
0
SECTION
2
TABLES
0
TABLE
2
APPID
5
4
330
0
100
AcDbSymbolTable
70
5
0
APPID
5
19
330
4
100
AcDbSymbolTableRecord
100
AcDbRegAppTableRecord
2
ACAD
70
0
0
APPID
5
3A
330
4
100
AcDbSymbolTableRecord
100
AcDbRegAppTableRecord
2
AcCmTransparency
70
0
0
APPID
5
3B
330
4
100
AcDbSymbolTableRecord
100
AcDbRegAppTableRecord
2
AcAecLayerStandard
70
0
0
APPID
5
3C
330
4
100
AcDbSymbolTableRecord
100
AcDbRegAppTableRecord
2
GradientColor1ACI
70
0
0
APPID
5
3D
330
4
100
AcDbSymbolTableRecord
100
AcDbRegAppTableRecord
2
GradientColor2ACI
70
0
0
ENDTAB
0
TABLE
2
VPORT
5
1
330
0
100
AcDbSymbolTable
70
1
0
VPORT
5
2
330
1
100
AcDbSymbolTableRecord
100
AcDbViewportTableRecord
2
*Active
70
0
10
0.0
20
0.0
11
1.0
21
1.0
12
0.0
22
0.0
13
0.0
23
0.0
14
0.5
24
0.5
15
10.0
25
10.0
16
0.0
26
0.0
36
1.0
17
0.0
27
0.0
37
0.0
40
10.0
41
1.0
75
0
76
1
0
ENDTAB
0
TABLE
2
LTYPE
5
7
330
0
100
AcDbSymbolTable
70
3
0
LTYPE
5
15
330
7
100
AcDbSymbolTableRecord
100
AcDbLinetypeTableRecord
2
Continuous
70
0
3
Solid line
72
65
73
0
40
0.0
0
LTYPE
5
16
330
7
100
AcDbSymbolTableRecord
100
AcDbLinetypeTableRecord
2
ByLayer
70
0
3

72
65
73
0
40
0.0
0
LTYPE
5
17
330
7
100
AcDbSymbolTableRecord
100
AcDbLinetypeTableRecord
2
ByBlock
70
0
3

72
65
73
0
40
0.0
0
ENDTAB
0
TABLE
2
LAYER
5
5
102
{ACAD_XDICTIONARY
360
6
102
}
330
0
100
AcDbSymbolTable
70
1
0
LAYER
5
14
330
5
100
AcDbSymbolTableRecord
100
AcDbLayerTableRecord
2
0
70
0
62
7
6
Continuous
290
1
370
-3
390
0
0
ENDTAB
0
TABLE
2
STYLE
5
8
330
0
100
AcDbSymbolTable
70
1
0
STYLE
5
18
330
8
100
AcDbSymbolTableRecord
100
AcDbTextStyleTableRecord
2
Standard
3
simplex.shx
70
0
71
0
40
0.0
41
1.0
42
0.0
50
0.0
0
ENDTAB
0
TABLE
2
DIMSTYLE
5
A
330
0
100
AcDbSymbolTable
70
1
100
AcDbDimStyleTable
0
DIMSTYLE
105
1A
330
A
100
AcDbSymbolTableRecord
100
AcDbDimStyleTableRecord
2
Standard
3

4

40
1.0
41
0.18
42
0.0625
43
0.38
44
0.18
45
0.0
46
0.0
47
0.0
48
0.0
49
1.0
70
0
71
0
72
0
73
0
74
0
75
0
76
0
77
0
78
0
79
0
140
0.18
141
0.09
143
25.4
144
1.0
146
1.0
147
0.09
148
0.0
170
0
171
2
172
0
174
0
175
0
176
0
177
0
178
0
179
0
271
4
272
4
273
2
274
2
275
0
276
0
277
2
278
46
279
0
280
0
281
0
282
0
283
1
284
0
285
0
286
0
289
3
290
0
294
0
340
18
173
0
345
17
346
17
347
17
371
-2
372
-2
0
ENDTAB
0
TABLE
2
VIEW
5
3
330
0
100
AcDbSymbolTable
70
0
0
ENDTAB
0
TABLE
2
UCS
5
C
330
0
100
AcDbSymbolTable
70
0
0
ENDTAB
0
TABLE
2
BLOCK_RECORD
5
D
330
0
100
AcDbSymbolTable
70
2
0
BLOCK_RECORD
5
1C
330
D
100
AcDbSymbolTableRecord
100
AcDbBlockTableRecord
2
*Model_Space
340
20
0
BLOCK_RECORD
5
34
330
D
100
AcDbSymbolTableRecord
100
AcDbBlockTableRecord
2
*Paper_Space
340
39
0
ENDTAB
0
ENDSEC
0
SECTION
2
BLOCKS
0
BLOCK
5
1E
330
1C
100
AcDbEntity
67
0
8
0
100
AcDbBlockBegin
2
*Model_Space
70
0
10
0.0
20
0.0
30
0.0
3
*Model_Space
4

0
ENDBLK
5
1D
330
1C
100
AcDbEntity
8
0
100
AcDbBlockEnd
0
BLOCK
5
36
330
34
100
AcDbEntity
67
1
8
0
100
AcDbBlockBegin
2
*Paper_Space
70
0
10
0.0
20
0.0
30
0.0
3
*Paper_Space
4

0
ENDBLK
5
35
330
34
100
AcDbEntity
8
0
100
AcDbBlockEnd
0
ENDSEC
0
SECTION
2
ENTITIES
0
LWPOLYLINE
5
22
330
1C
100
AcDbEntity
67
0
8
0
62
256
6
ByLayer
370
-1
48
1.0
60
0
100
AcDbPolyline
90
32
70
1
38
0.0
39
0.0
10
65.0009994506836
20
68.4626007080078
40
0.0
41
0.0
42
0.0
10
65.0095977783203
20
68.4625015258789
40
0.0
41
0.0
42
0.0
10
65.0311965942383
20
68.4909973144531
40
0.0
41
0.0
42
0.0
10
65.0464019775391
20
68.5230026245117
40
0.0
41
0.0
42
0.0
10
65.1811981201172
20
68.984001159668
40
0.0
41
0.0
42
0.0
10
65.2330017089844
20
69.4816970825195
40
0.0
41
0.0
42
0.0
10
65.244499206543
20
69.6658020019531
40
0.0
41
0.0
42
0.0
10
65.2511978149414
20
69.980598449707
40
0.0
41
0.0
42
0.0
10
65.2586975097656
20
70.165397644043
40
0.0
41
0.0
42
0.0
10
65.2585983276367
20
70.2044982910156
40
0.0
41
0.0
42
0.0
10
65.2449035644531
20
70.5195007324219
40
0.0
41
0.0
42
0.0
10
65.2444000244141
20
70.7033004760742
40
0.0
41
0.0
42
0.0
10
65.1956024169922
20
71.0169982910156
40
0.0
41
0.0
42
0.0
10
65.1731033325195
20
71.1997985839844
40
0.0
41
0.0
42
0.0
10
65.0514984130859
20
71.5112991333008
40
0.0
41
0.0
42
0.0
10
65.0071029663086
20
71.5989990234375
40
0.0
41
0.0
42
0.0
10
65.0009994506836
20
71.5989990234375
40
0.0
41
0.0
42
0.0
10
65.0009002685547
20
71.5197982788086
40
0.0
41
0.0
42
0.0
10
65.0167999267578
20
71.4885025024414
40
0.0
41
0.0
42
0.0
10
65.1566009521484
20
71.1300964355469
40
0.0
41
0.0
42
0.0
10
65.1747970581055
20
70.9828033447266
40
0.0
41
0.0
42
0.0
10
65.2300033569336
20
70.6266021728516
40
0.0
41
0.0
42
0.0
10
65.2304992675781
20
70.4804000854492
40
0.0
41
0.0
42
0.0
10
65.2453002929688
20
70.1440963745117
40
0.0
41
0.0
42
0.0
10
65.2401962280273
20
70.0193023681641
40
0.0
41
0.0
42
0.0
10
65.2324981689453
20
69.6641006469727
40
0.0
41
0.0
42
0.0
10
65.2233963012695
20
69.5182037353516
40
0.0
41
0.0
42
0.0
10
65.1714019775391
20
69.0158996582031
40
0.0
41
0.0
42
0.0
10
65.0357971191406
20
68.5524978637695
40
0.0
41
0.0
42
0.0
10
65.0150985717773
20
68.5090026855469
40
0.0
41
0.0
42
0.0
10
65.0009994506836
20
68.4903030395508
40
0.0
41
0.0
42
0.0
10
65.0009994506836
20
68.4626007080078
40
0.0
41
0.0
42
0.0
210
0.0
220
0.0
230
1.0
0
LWPOLYLINE
5
23
330
1C
100
AcDbEntity
67
0
8
0
62
256
6
ByLayer
370
-1
48
1.0
60
0
100
AcDbPolyline
90
44
70
1
38
0.0
39
0.0
10
65.0009994506836
20
78.8283996582031
40
0.0
41
0.0
42
0.0
10
65.0113983154297
20
78.8283996582031
40
0.0
41
0.0
42
0.0
10
65.146598815918
20
78.9614028930664
40
0.0
41
0.0
42
0.0
10
65.1734008789062
20
78.9922027587891
40
0.0
41
0.0
42
0.0
10
65.4604034423828
20
79.4886016845703
40
0.0
41
0.0
42
0.0
10
65.5002975463867
20
79.6108016967773
40
0.0
41
0.0
42
0.0
10
65.5875015258789
20
79.8052978515625
40
0.0
41
0.0
42
0.0
10
65.6428985595703
20
79.9952011108398
40
0.0
41
0.0
42
0.0
10
65.6990966796875
20
80.2983016967773
40
0.0
41
0.0
42
0.0
10
65.7247009277344
20
80.4823989868164
40
0.0
41
0.0
42
0.0
10
65.7712020874023
20
80.9816970825195
40
0.0
41
0.0
42
0.0
10
65.7867965698242
20
81.1899032592773
40
0.0
41
0.0
42
0.0
10
65.7934036254883
20
81.480598449707
40
0.0
41
0.0
42
0.0
10
65.8011016845703
20
81.7001037597656
40
0.0
41
0.0
42
0.0
10
65.8010025024414
20
81.7387008666992
40
0.0
41
0.0
42
0.0
10
65.7733001708984
20
82.0143966674805
40
0.0
41
0.0
42
0.0
10
65.5869979858398
20
82.426399230957
40
0.0
41
0.0
42
0.0
10
65.573600769043
20
82.5130004882812
40
0.0
41
0.0
42
0.0
10
65.5727005004883
20
82.5147018432617
40
0.0
41
0.0
42
0.0
10
65.5130004882812
20
82.551399230957
40
0.0
41
0.0
42
0.0
10
65.1411972045898
20
82.5916976928711
40
0.0
41
0.0
42
0.0
10
65.1046981811523
20
82.5915985107422
40
0.0
41
0.0
42
0.0
10
65.0009994506836
20
82.5687026977539
40
0.0
41
0.0
42
0.0
10
65.0008010864258
20
82.5407028198242
40
0.0
41
0.0
42
0.0
10
65.0177001953125
20
82.5408020019531
40
0.0
41
0.0
42
0.0
10
65.0801010131836
20
82.5544967651367
40
0.0
41
0.0
42
0.0
10
65.4869003295898
20
82.5105972290039
40
0.0
41
0.0
42
0.0
10
65.5124969482422
20
82.4949035644531
40
0.0
41
0.0
42
0.0
10
65.5175018310547
20
82.4688034057617
40
0.0
41
0.0
42
0.0
10
65.7360992431641
20
81.9853973388672
40
0.0
41
0.0
42
0.0
10
65.7684020996094
20
81.663200378418
40
0.0
41
0.0
42
0.0
10
65.7633972167969
20
81.5193023681641
40
0.0
41
0.0
42
0.0
10
65.7556991577148
20
81.1827011108398
40
0.0
41
0.0
42
0.0
10
65.7434997558594
20
81.0182037353516
40
0.0
41
0.0
42
0.0
10
65.6970977783203
20
80.5175018310547
40
0.0
41
0.0
42
0.0
10
65.6769027709961
20
80.3715972900391
40
0.0
41
0.0
42
0.0
10
65.6128005981445
20
80.0268020629883
40
0.0
41
0.0
42
0.0
10
65.5675964355469
20
79.8712005615234
40
0.0
41
0.0
42
0.0
10
65.4994964599609
20
79.7193984985352
40
0.0
41
0.0
42
0.0
10
65.4318008422852
20
79.5113983154297
40
0.0
41
0.0
42
0.0
10
65.1407012939453
20
79.007698059082
40
0.0
41
0.0
42
0.0
10
65.1064987182617
20
78.9684982299805
40
0.0
41
0.0
42
0.0
10
65.0009994506836
20
78.8647003173828
40
0.0
41
0.0
42
0.0
10
65.0009994506836
20
78.8283996582031
40
0.0
41
0.0
42
0.0
210
0.0
220
0.0
230
1.0
0
LWPOLYLINE
5
24
330
1C
100
AcDbEntity
67
0
8
0
62
256
6
ByLayer
370
-1
48
1.0
60
0
100
AcDbPolyline
90
580
70
1
38
0.0
39
0.0
10
66.6681976318359
20
71.9870986938477
40
0.0
41
0.0
42
0.0
10
66.8059997558594
20
71.7630004882812
40
0.0
41
0.0
42
0.0
10
67.0001983642578
20
71.493896484375
40
0.0
41
0.0
42
0.0
10
67.0509033203125
20
71.4471969604492
40
0.0
41
0.0
42
0.0
10
67.307502746582
20
71.2397003173828
40
0.0
41
0.0
42
0.0
10
67.4912033081055
20
71.1128005981445
40
0.0
41
0.0
42
0.0
10
67.6732025146484
20
71.0068969726562
40
0.0
41
0.0
42
0.0
10
67.8574981689453
20
70.91259765625
40
0.0
41
0.0
42
0.0
10
67.9876022338867
20
70.8495025634766
40
0.0
41
0.0
42
0.0
10
68.3019027709961
20
70.755500793457
40
0.0
41
0.0
42
0.0
10
68.4841003417969
20
70.6811981201172
40
0.0
41
0.0
42
0.0
10
68.7985992431641
20
70.678596496582
40
0.0
41
0.0
42
0.0
10
68.9835968017578
20
70.6130981445312
40
0.0
41
0.0
42
0.0
10
69.0134963989258
20
70.6129989624023
40
0.0
41
0.0
42
0.0
10
69.3682022094727
20
70.8556976318359
40
0.0
41
0.0
42
0.0
10
69.5150985717773
20
70.8595962524414
40
0.0
41
0.0
42
0.0
10
69.5955963134766
20
70.8966979980469
40
0.0
41
0.0
42
0.0
10
69.5954971313477
20
70.9210968017578
40
0.0
41
0.0
42
0.0
10
69.5810012817383
20
70.9959030151367
40
0.0
41
0.0
42
0.0
10
69.7319030761719
20
71.3011016845703
40
0.0
41
0.0
42
0.0
10
69.7548980712891
20
71.4848022460938
40
0.0
41
0.0
42
0.0
10
69.8765029907227
20
71.831901550293
40
0.0
41
0.0
42
0.0
10
69.9339981079102
20
71.9877014160156
40
0.0
41
0.0
42
0.0
10
70.0010986328125
20
72.1446990966797
40
0.0
41
0.0
42
0.0
10
70.1981964111328
20
72.4922027587891
40
0.0
41
0.0
42
0.0
10
70.5093002319336
20
72.8469009399414
40
0.0
41
0.0
42
0.0
10
70.9179992675781
20
72.9051971435547
40
0.0
41
0.0
42
0.0
10
71.0084991455078
20
72.9568023681641
40
0.0
41
0.0
42
0.0
10
71.3042984008789
20
72.9196014404297
40
0.0
41
0.0
42
0.0
10
71.3412017822266
20
72.9195022583008
40
0.0
41
0.0
42
0.0
10
71.5012969970703
20
72.9455032348633
40
0.0
41
0.0
42
0.0
10
71.7962036132812
20
72.9095001220703
40
0.0
41
0.0
42
0.0
10
71.8345031738281
20
72.9094009399414
40
0.0
41
0.0
42
0.0
10
71.9876022338867
20
72.9158020019531
40
0.0
41
0.0
42
0.0
10
72.3003997802734
20
72.8253021240234
40
0.0
41
0.0
42
0.0
10
72.4935989379883
20
72.7761993408203
40
0.0
41
0.0
42
0.0
10
72.6089019775391
20
72.5791015625
40
0.0
41
0.0
42
0.0
10
72.6377029418945
20
72.4839019775391
40
0.0
41
0.0
42
0.0
10
72.6628036499023
20
72.1880035400391
40
0.0
41
0.0
42
0.0
10
72.6426010131836
20
72.0186996459961
40
0.0
41
0.0
42
0.0
10
72.6425018310547
20
71.9806976318359
40
0.0
41
0.0
42
0.0
10
72.6630020141602
20
71.6934967041016
40
0.0
41
0.0
42
0.0
10
72.6251983642578
20
71.5158004760742
40
0.0
41
0.0
42
0.0
10
72.5483016967773
20
71.1119003295898
40
0.0
41
0.0
42
0.0
10
72.5482025146484
20
71.0752029418945
40
0.0
41
0.0
42
0.0
10
72.5566024780273
20
71.0082015991211
40
0.0
41
0.0
42
0.0
10
72.4974975585938
20
70.8868026733398
40
0.0
41
0.0
42
0.0
10
72.1565017700195
20
70.5046005249023
40
0.0
41
0.0
42
0.0
10
72.1195983886719
20
70.4751968383789
40
0.0
41
0.0
42
0.0
10
71.769401550293
20
70.3150024414062
40
0.0
41
0.0
42
0.0
10
71.4853973388672
20
70.2254028320312
40
0.0
41
0.0
42
0.0
10
71.3050003051758
20
70.1845016479492
40
0.0
41
0.0
42
0.0
10
70.9852981567383
20
70.0942001342773
40
0.0
41
0.0
42
0.0
10
70.6019973754883
20
69.9996032714844
40
0.0
41
0.0
42
0.0
10
70.5447006225586
20
69.9841003417969
40
0.0
41
0.0
42
0.0
10
70.4927978515625
20
69.9601974487305
40
0.0
41
0.0
42
0.0
10
70.1248016357422
20
69.5393981933594
40
0.0
41
0.0
42
0.0
10
70.094596862793
20
69.5109024047852
40
0.0
41
0.0
42
0.0
10
70.094596862793
20
69.4811019897461
40
0.0
41
0.0
42
0.0
10
70.1281967163086
20
69.1854019165039
40
0.0
41
0.0
42
0.0
10
70.0892028808594
20
69.0175018310547
40
0.0
41
0.0
42
0.0
10
70.0891036987305
20
68.9832992553711
40
0.0
41
0.0
42
0.0
10
70.1512985229492
20
68.7925033569336
40
0.0
41
0.0
42
0.0
10
70.196403503418
20
68.4852981567383
40
0.0
41
0.0
42
0.0
10
70.2666015625
20
68.3022003173828
40
0.0
41
0.0
42
0.0
10
70.3761978149414
20
67.9881973266602
40
0.0
41
0.0
42
0.0
10
70.4703979492188
20
67.8050003051758
40
0.0
41
0.0
42
0.0
10
70.497802734375
20
67.7578964233398
40
0.0
41
0.0
42
0.0
10
70.6666030883789
20
67.4924011230469
40
0.0
41
0.0
42
0.0
10
70.7705993652344
20
67.3701019287109
40
0.0
41
0.0
42
0.0
10
70.9928970336914
20
67.1397018432617
40
0.0
41
0.0
42
0.0
10
71.2474975585938
20
66.9973983764648
40
0.0
41
0.0
42
0.0
10
71.2996978759766
20
66.956901550293
40
0.0
41
0.0
42
0.0
10
71.4843978881836
20
66.9010009765625
40
0.0
41
0.0
42
0.0
10
71.7964019775391
20
66.8578033447266
40
0.0
41
0.0
42
0.0
10
71.8343963623047
20
66.8576965332031
40
0.0
41
0.0
42
0.0
10
72.0178985595703
20
66.8669967651367
40
0.0
41
0.0
42
0.0
10
72.3311996459961
20
66.9128036499023
40
0.0
41
0.0
42
0.0
10
72.5142974853516
20
66.9533004760742
40
0.0
41
0.0
42
0.0
10
72.6505966186523
20
66.9992980957031
40
0.0
41
0.0
42
0.0
10
73.011100769043
20
67.1300964355469
40
0.0
41
0.0
42
0.0
10
73.3255004882812
20
67.3093032836914
40
0.0
41
0.0
42
0.0
10
73.695198059082
20
67.4744033813477
40
0.0
41
0.0
42
0.0
10
73.7294006347656
20
67.4953002929688
40
0.0
41
0.0
42
0.0
10
74.0042037963867
20
67.9383010864258
40
0.0
41
0.0
42
0.0
10
74.0743026733398
20
67.9905014038086
40
0.0
41
0.0
42
0.0
10
74.0742034912109
20
68.0152969360352
40
0.0
41
0.0
42
0.0
10
73.9998016357422
20
68.1766967773438
40
0.0
41
0.0
42
0.0
10
73.9309005737305
20
68.5129013061523
40
0.0
41
0.0
42
0.0
10
73.8539962768555
20
68.6644973754883
40
0.0
41
0.0
42
0.0
10
73.6016006469727
20
69.1960983276367
40
0.0
41
0.0
42
0.0
10
73.5068969726562
20
69.4074020385742
40
0.0
41
0.0
42
0.0
10
73.456298828125
20
69.5129013061523
40
0.0
41
0.0
42
0.0
10
73.3964996337891
20
69.7688980102539
40
0.0
41
0.0
42
0.0
10
73.3110961914062
20
70.0022964477539
40
0.0
41
0.0
42
0.0
10
73.4057006835938
20
70.3639984130859
40
0.0
41
0.0
42
0.0
10
73.4056015014648
20
70.4007034301758
40
0.0
41
0.0
42
0.0
10
73.4003982543945
20
70.4927978515625
40
0.0
41
0.0
42
0.0
10
73.5066986083984
20
70.5554962158203
40
0.0
41
0.0
42
0.0
10
73.5607986450195
20
70.6123962402344
40
0.0
41
0.0
42
0.0
10
73.7236022949219
20
70.8076019287109
40
0.0
41
0.0
42
0.0
10
73.8518981933594
20
70.9956970214844
40
0.0
41
0.0
42
0.0
10
74.0169982910156
20
71.0914001464844
40
0.0
41
0.0
42
0.0
10
74.2796020507812
20
71.3100967407227
40
0.0
41
0.0
42
0.0
10
74.4456024169922
20
71.4949035644531
40
0.0
41
0.0
42
0.0
10
74.4941024780273
20
71.5371017456055
40
0.0
41
0.0
42
0.0
10
74.5067977905273
20
71.5560989379883
40
0.0
41
0.0
42
0.0
10
74.8302993774414
20
71.647102355957
40
0.0
41
0.0
42
0.0
10
74.9931030273438
20
71.6763000488281
40
0.0
41
0.0
42
0.0
10
75.1367034912109
20
71.5404968261719
40
0.0
41
0.0
42
0.0
10
75.1604995727539
20
71.4907989501953
40
0.0
41
0.0
42
0.0
10
75.2955017089844
20
71.3095016479492
40
0.0
41
0.0
42
0.0
10
75.6769027709961
20
70.9947967529297
40
0.0
41
0.0
42
0.0
10
75.7755966186523
20
70.8752975463867
40
0.0
41
0.0
42
0.0
10
75.9949035644531
20
70.5581970214844
40
0.0
41
0.0
42
0.0
10
76.0932006835938
20
70.4922027587891
40
0.0
41
0.0
42
0.0
10
76.1107025146484
20
70.3739013671875
40
0.0
41
0.0
42
0.0
10
76.2238998413086
20
69.9994964599609
40
0.0
41
0.0
42
0.0
10
76.1210021972656
20
69.6343994140625
40
0.0
41
0.0
42
0.0
10
76.0786972045898
20
69.5113983154297
40
0.0
41
0.0
42
0.0
10
75.9984970092773
20
69.3654022216797
40
0.0
41
0.0
42
0.0
10
75.8125
20
69.0096969604492
40
0.0
41
0.0
42
0.0
10
75.5124969482422
20
68.511100769043
40
0.0
41
0.0
42
0.0
10
75.499397277832
20
68.4723968505859
40
0.0
41
0.0
42
0.0
10
75.2729034423828
20
68.0149993896484
40
0.0
41
0.0
42
0.0
10
75.2727966308594
20
67.9860000610352
40
0.0
41
0.0
42
0.0
10
75.3582000732422
20
67.8496017456055
40
0.0
41
0.0
42
0.0
10
75.499397277832
20
67.5372009277344
40
0.0
41
0.0
42
0.0
10
75.5149993896484
20
67.4928970336914
40
0.0
41
0.0
42
0.0
10
75.9922027587891
20
67.1380996704102
40
0.0
41
0.0
42
0.0
10
76.1940002441406
20
66.9980010986328
40
0.0
41
0.0
42
0.0
10
76.30419921875
20
66.9418029785156
40
0.0
41
0.0
42
0.0
10
76.4881973266602
20
66.8546981811523
40
0.0
41
0.0
42
0.0
10
76.8019027709961
20
66.7360000610352
40
0.0
41
0.0
42
0.0
10
76.9847030639648
20
66.6759033203125
40
0.0
41
0.0
42
0.0
10
77.2382965087891
20
66.6405029296875
40
0.0
41
0.0
42
0.0
10
77.4815979003906
20
66.6011962890625
40
0.0
41
0.0
42
0.0
10
77.5185012817383
20
66.6011962890625
40
0.0
41
0.0
42
0.0
10
78.0128021240234
20
66.6682968139648
40
0.0
41
0.0
42
0.0
10
78.2381973266602
20
66.8068008422852
40
0.0
41
0.0
42
0.0
10
78.2499008178711
20
66.8128967285156
40
0.0
41
0.0
42
0.0
10
78.5058975219727
20
67.0001983642578
40
0.0
41
0.0
42
0.0
10
78.5524978637695
20
67.0509033203125
40
0.0
41
0.0
42
0.0
10
78.7600021362305
20
67.307502746582
40
0.0
41
0.0
42
0.0
10
78.8869018554688
20
67.4912033081055
40
0.0
41
0.0
42
0.0
10
79.0015029907227
20
67.6883010864258
40
0.0
41
0.0
42
0.0
10
79.0870971679688
20
67.8574981689453
40
0.0
41
0.0
42
0.0
10
79.1507034301758
20
67.9885025024414
40
0.0
41
0.0
42
0.0
10
79.2255020141602
20
68.1719970703125
40
0.0
41
0.0
42
0.0
10
79.3184967041016
20
68.4831008911133
40
0.0
41
0.0
42
0.0
10
79.3210983276367
20
68.798698425293
40
0.0
41
0.0
42
0.0
10
79.3868026733398
20
68.9835968017578
40
0.0
41
0.0
42
0.0
10
79.3867034912109
20
69.0133972167969
40
0.0
41
0.0
42
0.0
10
79.1439971923828
20
69.3682022094727
40
0.0
41
0.0
42
0.0
10
79.1400985717773
20
69.5150985717773
40
0.0
41
0.0
42
0.0
10
79.1031036376953
20
69.5955963134766
40
0.0
41
0.0
42
0.0
10
79.0785980224609
20
69.5954971313477
40
0.0
41
0.0
42
0.0
10
79.0048980712891
20
69.5811996459961
40
0.0
41
0.0
42
0.0
10
78.8710021972656
20
69.6691970825195
40
0.0
41
0.0
42
0.0
10
78.6996994018555
20
69.7319030761719
40
0.0
41
0.0
42
0.0
10
78.5934982299805
20
69.7481002807617
40
0.0
41
0.0
42
0.0
10
78.5155029296875
20
69.7547988891602
40
0.0
41
0.0
42
0.0
10
78.1679000854492
20
69.8765029907227
40
0.0
41
0.0
42
0.0
10
78.0121994018555
20
69.9338989257812
40
0.0
41
0.0
42
0.0
10
77.8551025390625
20
70.0010986328125
40
0.0
41
0.0
42
0.0
10
77.507698059082
20
70.1980972290039
40
0.0
41
0.0
42
0.0
10
77.1528015136719
20
70.5093002319336
40
0.0
41
0.0
42
0.0
10
77.0944976806641
20
70.9179992675781
40
0.0
41
0.0
42
0.0
10
77.0429000854492
20
71.0084991455078
40
0.0
41
0.0
42
0.0
10
77.0802993774414
20
71.3042984008789
40
0.0
41
0.0
42
0.0
10
77.0802993774414
20
71.3412017822266
40
0.0
41
0.0
42
0.0
10
77.05419921875
20
71.5012969970703
40
0.0
41
0.0
42
0.0
10
77.0904006958008
20
71.7962036132812
40
0.0
41
0.0
42
0.0
10
77.0903015136719
20
71.8345031738281
40
0.0
41
0.0
42
0.0
10
77.0839004516602
20
71.9877014160156
40
0.0
41
0.0
42
0.0
10
77.1303024291992
20
72.1705017089844
40
0.0
41
0.0
42
0.0
10
77.2238998413086
20
72.493896484375
40
0.0
41
0.0
42
0.0
10
77.4207000732422
20
72.6089019775391
40
0.0
41
0.0
42
0.0
10
77.515998840332
20
72.6377029418945
40
0.0
41
0.0
42
0.0
10
77.811897277832
20
72.6628036499023
40
0.0
41
0.0
42
0.0
10
77.981201171875
20
72.6426010131836
40
0.0
41
0.0
42
0.0
10
78.0192031860352
20
72.6425018310547
40
0.0
41
0.0
42
0.0
10
78.306396484375
20
72.6630020141602
40
0.0
41
0.0
42
0.0
10
78.4841003417969
20
72.6251983642578
40
0.0
41
0.0
42
0.0
10
78.8879013061523
20
72.5483016967773
40
0.0
41
0.0
42
0.0
10
78.9245986938477
20
72.5482025146484
40
0.0
41
0.0
42
0.0
10
78.99169921875
20
72.5565032958984
40
0.0
41
0.0
42
0.0
10
79.1129989624023
20
72.4974975585938
40
0.0
41
0.0
42
0.0
10
79.4952011108398
20
72.1565017700195
40
0.0
41
0.0
42
0.0
10
79.5244979858398
20
72.1195983886719
40
0.0
41
0.0
42
0.0
10
79.6848983764648
20
71.769401550293
40
0.0
41
0.0
42
0.0
10
79.7742004394531
20
71.4858016967773
40
0.0
41
0.0
42
0.0
10
79.8761978149414
20
71.1091003417969
40
0.0
41
0.0
42
0.0
10
79.9000015258789
20
71.0065002441406
40
0.0
41
0.0
42
0.0
10
80.0001983642578
20
70.6019973754883
40
0.0
41
0.0
42
0.0
10
80.0156021118164
20
70.5447006225586
40
0.0
41
0.0
42
0.0
10
80.0394973754883
20
70.4927978515625
40
0.0
41
0.0
42
0.0
10
80.4604034423828
20
70.1248016357422
40
0.0
41
0.0
42
0.0
10
80.488899230957
20
70.094596862793
40
0.0
41
0.0
42
0.0
10
80.518798828125
20
70.094596862793
40
0.0
41
0.0
42
0.0
10
80.8143997192383
20
70.1281967163086
40
0.0
41
0.0
42
0.0
10
80.9823989868164
20
70.0892028808594
40
0.0
41
0.0
42
0.0
10
81.0166015625
20
70.0891036987305
40
0.0
41
0.0
42
0.0
10
81.2072982788086
20
70.1512985229492
40
0.0
41
0.0
42
0.0
10
81.5146026611328
20
70.196403503418
40
0.0
41
0.0
42
0.0
10
81.6977005004883
20
70.2667007446289
40
0.0
41
0.0
42
0.0
10
82.0117034912109
20
70.3762969970703
40
0.0
41
0.0
42
0.0
10
82.1949005126953
20
70.4703979492188
40
0.0
41
0.0
42
0.0
10
82.2417984008789
20
70.4979019165039
40
0.0
41
0.0
42
0.0
10
82.5074996948242
20
70.6667022705078
40
0.0
41
0.0
42
0.0
10
82.6312026977539
20
70.7718963623047
40
0.0
41
0.0
42
0.0
10
82.6912994384766
20
70.8110961914062
40
0.0
41
0.0
42
0.0
10
82.8597030639648
20
70.9924011230469
40
0.0
41
0.0
42
0.0
10
83.0024032592773
20
71.2475967407227
40
0.0
41
0.0
42
0.0
10
83.0439987182617
20
71.3012008666992
40
0.0
41
0.0
42
0.0
10
83.0982971191406
20
71.4830017089844
40
0.0
41
0.0
42
0.0
10
83.0981979370117
20
71.519401550293
40
0.0
41
0.0
42
0.0
10
83.0903015136719
20
71.6766967773438
40
0.0
41
0.0
42
0.0
10
83.132698059082
20
71.9813995361328
40
0.0
41
0.0
42
0.0
10
83.1324996948242
20
72.0176010131836
40
0.0
41
0.0
42
0.0
10
83.0920028686523
20
72.2012023925781
40
0.0
41
0.0
42
0.0
10
83.0459976196289
20
72.5149993896484
40
0.0
41
0.0
42
0.0
10
83.0000991821289
20
72.6517028808594
40
0.0
41
0.0
42
0.0
10
82.8694000244141
20
73.0121002197266
40
0.0
41
0.0
42
0.0
10
82.7879028320312
20
73.1953964233398
40
0.0
41
0.0
42
0.0
10
82.6082000732422
20
73.5103988647461
40
0.0
41
0.0
42
0.0
10
82.5252990722656
20
73.695198059082
40
0.0
41
0.0
42
0.0
10
82.5045013427734
20
73.7294006347656
40
0.0
41
0.0
42
0.0
10
82.0614013671875
20
74.0040969848633
40
0.0
41
0.0
42
0.0
10
82.0093994140625
20
74.0743026733398
40
0.0
41
0.0
42
0.0
10
81.9845962524414
20
74.0743026733398
40
0.0
41
0.0
42
0.0
10
81.822998046875
20
73.9998016357422
40
0.0
41
0.0
42
0.0
10
81.4869003295898
20
73.9309005737305
40
0.0
41
0.0
42
0.0
10
81.3352966308594
20
73.8541030883789
40
0.0
41
0.0
42
0.0
10
80.8037033081055
20
73.6016998291016
40
0.0
41
0.0
42
0.0
10
80.592399597168
20
73.5070037841797
40
0.0
41
0.0
42
0.0
10
80.4869995117188
20
73.456298828125
40
0.0
41
0.0
42
0.0
10
80.2310028076172
20
73.3964996337891
40
0.0
41
0.0
42
0.0
10
79.9975967407227
20
73.3110961914062
40
0.0
41
0.0
42
0.0
10
79.6358032226562
20
73.4057006835938
40
0.0
41
0.0
42
0.0
10
79.5990982055664
20
73.4056015014648
40
0.0
41
0.0
42
0.0
10
79.5071029663086
20
73.4002990722656
40
0.0
41
0.0
42
0.0
10
79.4450988769531
20
73.5054016113281
40
0.0
41
0.0
42
0.0
10
79.3498001098633
20
73.5735015869141
40
0.0
41
0.0
42
0.0
10
79.1918029785156
20
73.7238006591797
40
0.0
41
0.0
42
0.0
10
79.0193023681641
20
73.8388977050781
40
0.0
41
0.0
42
0.0
10
79.0034027099609
20
73.8531036376953
40
0.0
41
0.0
42
0.0
10
78.9083023071289
20
74.0168991088867
40
0.0
41
0.0
42
0.0
10
78.689697265625
20
74.2796020507812
40
0.0
41
0.0
42
0.0
10
78.5048980712891
20
74.4455032348633
40
0.0
41
0.0
42
0.0
10
78.4626007080078
20
74.4941024780273
40
0.0
41
0.0
42
0.0
10
78.4425964355469
20
74.5074005126953
40
0.0
41
0.0
42
0.0
10
78.4080963134766
20
74.7002029418945
40
0.0
41
0.0
42
0.0
10
78.3252029418945
20
74.9949035644531
40
0.0
41
0.0
42
0.0
10
78.4592971801758
20
75.1367034912109
40
0.0
41
0.0
42
0.0
10
78.5090026855469
20
75.1604995727539
40
0.0
41
0.0
42
0.0
10
78.6903991699219
20
75.2955017089844
40
0.0
41
0.0
42
0.0
10
78.8520965576172
20
75.4933013916016
40
0.0
41
0.0
42
0.0
10
79.0050964355469
20
75.677001953125
40
0.0
41
0.0
42
0.0
10
79.1246032714844
20
75.7758026123047
40
0.0
41
0.0
42
0.0
10
79.1792984008789
20
75.8123016357422
40
0.0
41
0.0
42
0.0
10
79.4414978027344
20
75.995002746582
40
0.0
41
0.0
42
0.0
10
79.507698059082
20
76.0932006835938
40
0.0
41
0.0
42
0.0
10
79.6259002685547
20
76.1107025146484
40
0.0
41
0.0
42
0.0
10
80.0003967285156
20
76.2238998413086
40
0.0
41
0.0
42
0.0
10
80.3654022216797
20
76.1209030151367
40
0.0
41
0.0
42
0.0
10
80.4885025024414
20
76.0785980224609
40
0.0
41
0.0
42
0.0
10
80.6343994140625
20
75.9983978271484
40
0.0
41
0.0
42
0.0
10
80.9901962280273
20
75.8125
40
0.0
41
0.0
42
0.0
10
81.4888000488281
20
75.5124969482422
40
0.0
41
0.0
42
0.0
10
81.5272979736328
20
75.4992980957031
40
0.0
41
0.0
42
0.0
10
81.8384017944336
20
75.3477020263672
40
0.0
41
0.0
42
0.0
10
81.9850006103516
20
75.2729034423828
40
0.0
41
0.0
42
0.0
10
82.0149002075195
20
75.2727966308594
40
0.0
41
0.0
42
0.0
10
82.4621963500977
20
75.4992980957031
40
0.0
41
0.0
42
0.0
10
82.5071029663086
20
75.5150985717773
40
0.0
41
0.0
42
0.0
10
82.7321014404297
20
75.8074035644531
40
0.0
41
0.0
42
0.0
10
83.0018005371094
20
76.1940994262695
40
0.0
41
0.0
42
0.0
10
83.0578994750977
20
76.30419921875
40
0.0
41
0.0
42
0.0
10
83.1451034545898
20
76.4881973266602
40
0.0
41
0.0
42
0.0
10
83.2637023925781
20
76.802001953125
40
0.0
41
0.0
42
0.0
10
83.3237991333008
20
76.9847030639648
40
0.0
41
0.0
42
0.0
10
83.3591995239258
20
77.2382965087891
40
0.0
41
0.0
42
0.0
10
83.3986968994141
20
77.4815979003906
40
0.0
41
0.0
42
0.0
10
83.3984985351562
20
77.5185012817383
40
0.0
41
0.0
42
0.0
10
83.3311996459961
20
78.0141983032227
40
0.0
41
0.0
42
0.0
10
83.3295974731445
20
78.0179977416992
40
0.0
41
0.0
42
0.0
10
83.1872024536133
20
78.2496032714844
40
0.0
41
0.0
42
0.0
10
83.0717010498047
20
78.4253005981445
40
0.0
41
0.0
42
0.0
10
83.0002975463867
20
78.5050964355469
40
0.0
41
0.0
42
0.0
10
82.9487991333008
20
78.5524978637695
40
0.0
41
0.0
42
0.0
10
82.6922988891602
20
78.7600021362305
40
0.0
41
0.0
42
0.0
10
82.5086975097656
20
78.8869018554688
40
0.0
41
0.0
42
0.0
10
82.3115997314453
20
79.0014038085938
40
0.0
41
0.0
42
0.0
10
82.1423034667969
20
79.0869979858398
40
0.0
41
0.0
42
0.0
10
82.0113983154297
20
79.1507034301758
40
0.0
41
0.0
42
0.0
10
81.8279037475586
20
79.2254028320312
40
0.0
41
0.0
42
0.0
10
81.5167999267578
20
79.3184967041016
40
0.0
41
0.0
42
0.0
10
81.2012023925781
20
79.3209991455078
40
0.0
41
0.0
42
0.0
10
81.0162963867188
20
79.3868026733398
40
0.0
41
0.0
42
0.0
10
80.9865036010742
20
79.3867034912109
40
0.0
41
0.0
42
0.0
10
80.6315994262695
20
79.1439971923828
40
0.0
41
0.0
42
0.0
10
80.4848022460938
20
79.1401977539062
40
0.0
41
0.0
42
0.0
10
80.404296875
20
79.1031036376953
40
0.0
41
0.0
42
0.0
10
80.4041976928711
20
79.0785980224609
40
0.0
41
0.0
42
0.0
10
80.4185028076172
20
79.004997253418
40
0.0
41
0.0
42
0.0
10
80.3304977416992
20
78.8711013793945
40
0.0
41
0.0
42
0.0
10
80.2678985595703
20
78.6996994018555
40
0.0
41
0.0
42
0.0
10
80.2516021728516
20
78.5934982299805
40
0.0
41
0.0
42
0.0
10
80.2449035644531
20
78.5155029296875
40
0.0
41
0.0
42
0.0
10
80.1231994628906
20
78.1679000854492
40
0.0
41
0.0
42
0.0
10
80.065803527832
20
78.0121994018555
40
0.0
41
0.0
42
0.0
10
79.9988021850586
20
77.8551025390625
40
0.0
41
0.0
42
0.0
10
79.8015975952148
20
77.507698059082
40
0.0
41
0.0
42
0.0
10
79.4906005859375
20
77.1529006958008
40
0.0
41
0.0
42
0.0
10
79.0818023681641
20
77.094596862793
40
0.0
41
0.0
42
0.0
10
78.9914016723633
20
77.0429000854492
40
0.0
41
0.0
42
0.0
10
78.6955032348633
20
77.0802993774414
40
0.0
41
0.0
42
0.0
10
78.6585998535156
20
77.0802993774414
40
0.0
41
0.0
42
0.0
10
78.4984970092773
20
77.05419921875
40
0.0
41
0.0
42
0.0
10
78.2036972045898
20
77.0904006958008
40
0.0
41
0.0
42
0.0
10
78.165397644043
20
77.0903015136719
40
0.0
41
0.0
42
0.0
10
78.0121994018555
20
77.0839004516602
40
0.0
41
0.0
42
0.0
10
77.8293991088867
20
77.1302032470703
40
0.0
41
0.0
42
0.0
10
77.5059967041016
20
77.2238006591797
40
0.0
41
0.0
42
0.0
10
77.3908004760742
20
77.4207000732422
40
0.0
41
0.0
42
0.0
10
77.3647994995117
20
77.5067977905273
40
0.0
41
0.0
42
0.0
10
77.3840026855469
20
77.6661987304688
40
0.0
41
0.0
42
0.0
10
77.383903503418
20
77.7041015625
40
0.0
41
0.0
42
0.0
10
77.3572998046875
20
78.0183029174805
40
0.0
41
0.0
42
0.0
10
77.336799621582
20
78.306396484375
40
0.0
41
0.0
42
0.0
10
77.3744964599609
20
78.4841003417969
40
0.0
41
0.0
42
0.0
10
77.4515991210938
20
78.8879013061523
40
0.0
41
0.0
42
0.0
10
77.4514999389648
20
78.9245986938477
40
0.0
41
0.0
42
0.0
10
77.4430999755859
20
78.99169921875
40
0.0
41
0.0
42
0.0
10
77.5024032592773
20
79.1129989624023
40
0.0
41
0.0
42
0.0
10
77.8432998657227
20
79.4953002929688
40
0.0
41
0.0
42
0.0
10
77.8802032470703
20
79.5244979858398
40
0.0
41
0.0
42
0.0
10
78.2304000854492
20
79.6848983764648
40
0.0
41
0.0
42
0.0
10
78.5145034790039
20
79.7743988037109
40
0.0
41
0.0
42
0.0
10
78.6948013305664
20
79.815299987793
40
0.0
41
0.0
42
0.0
10
78.9927978515625
20
79.89990234375
40
0.0
41
0.0
42
0.0
10
79.3977966308594
20
80.0001983642578
40
0.0
41
0.0
42
0.0
10
79.4551010131836
20
80.0156021118164
40
0.0
41
0.0
42
0.0
10
79.5071029663086
20
80.0395965576172
40
0.0
41
0.0
42
0.0
10
79.875
20
80.4604034423828
40
0.0
41
0.0
42
0.0
10
79.9051971435547
20
80.4889984130859
40
0.0
41
0.0
42
0.0
10
79.9050979614258
20
80.518798828125
40
0.0
41
0.0
42
0.0
10
79.8714981079102
20
80.8143997192383
40
0.0
41
0.0
42
0.0
10
79.9106979370117
20
80.9823989868164
40
0.0
41
0.0
42
0.0
10
79.9105987548828
20
81.0166015625
40
0.0
41
0.0
42
0.0
10
79.8483963012695
20
81.2071990966797
40
0.0
41
0.0
42
0.0
10
79.8032989501953
20
81.5146026611328
40
0.0
41
0.0
42
0.0
10
79.7330017089844
20
81.6977005004883
40
0.0
41
0.0
42
0.0
10
79.6233978271484
20
82.0115966796875
40
0.0
41
0.0
42
0.0
10
79.529296875
20
82.1948013305664
40
0.0
41
0.0
42
0.0
10
79.5018997192383
20
82.2417984008789
40
0.0
41
0.0
42
0.0
10
79.3320007324219
20
82.5091018676758
40
0.0
41
0.0
42
0.0
10
79.3080978393555
20
82.5510025024414
40
0.0
41
0.0
42
0.0
10
79.1893997192383
20
82.6905975341797
40
0.0
41
0.0
42
0.0
10
79.0510025024414
20
82.8303985595703
40
0.0
41
0.0
42
0.0
10
79.008903503418
20
82.8589019775391
40
0.0
41
0.0
42
0.0
10
78.7522964477539
20
83.0022964477539
40
0.0
41
0.0
42
0.0
10
78.6952972412109
20
83.0451965332031
40
0.0
41
0.0
42
0.0
10
78.5168991088867
20
83.0982971191406
40
0.0
41
0.0
42
0.0
10
78.4804992675781
20
83.0981979370117
40
0.0
41
0.0
42
0.0
10
78.3231964111328
20
83.0903015136719
40
0.0
41
0.0
42
0.0
10
78.0185012817383
20
83.132698059082
40
0.0
41
0.0
42
0.0
10
77.9822998046875
20
83.1325988769531
40
0.0
41
0.0
42
0.0
10
77.798698425293
20
83.0920028686523
40
0.0
41
0.0
42
0.0
10
77.4849014282227
20
83.0460968017578
40
0.0
41
0.0
42
0.0
10
77.3480987548828
20
83.0000991821289
40
0.0
41
0.0
42
0.0
10
76.9878005981445
20
82.869499206543
40
0.0
41
0.0
42
0.0
10
76.8044967651367
20
82.7879028320312
40
0.0
41
0.0
42
0.0
10
76.489501953125
20
82.6082992553711
40
0.0
41
0.0
42
0.0
10
76.3047027587891
20
82.5252990722656
40
0.0
41
0.0
42
0.0
10
76.2703018188477
20
82.5046005249023
40
0.0
41
0.0
42
0.0
10
75.9956970214844
20
82.0615005493164
40
0.0
41
0.0
42
0.0
10
75.9255981445312
20
82.0093994140625
40
0.0
41
0.0
42
0.0
10
75.9253997802734
20
81.9844970703125
40
0.0
41
0.0
42
0.0
10
76.0
20
81.822998046875
40
0.0
41
0.0
42
0.0
10
76.0688018798828
20
81.4869003295898
40
0.0
41
0.0
42
0.0
10
76.1455993652344
20
81.3352966308594
40
0.0
41
0.0
42
0.0
10
76.3981018066406
20
80.8037033081055
40
0.0
41
0.0
42
0.0
10
76.4926986694336
20
80.592399597168
40
0.0
41
0.0
42
0.0
10
76.5434036254883
20
80.4869003295898
40
0.0
41
0.0
42
0.0
10
76.6032028198242
20
80.2310028076172
40
0.0
41
0.0
42
0.0
10
76.6885986328125
20
79.9975967407227
40
0.0
41
0.0
42
0.0
10
76.5942001342773
20
79.6358032226562
40
0.0
41
0.0
42
0.0
10
76.5941009521484
20
79.5990982055664
40
0.0
41
0.0
42
0.0
10
76.5994033813477
20
79.5071029663086
40
0.0
41
0.0
42
0.0
10
76.4944000244141
20
79.4450988769531
40
0.0
41
0.0
42
0.0
10
76.4263000488281
20
79.3498001098633
40
0.0
41
0.0
42
0.0
10
76.2759017944336
20
79.1918029785156
40
0.0
41
0.0
42
0.0
10
76.1608963012695
20
79.019401550293
40
0.0
41
0.0
42
0.0
10
76.1466979980469
20
79.0035018920898
40
0.0
41
0.0
42
0.0
10
75.9829025268555
20
78.9084014892578
40
0.0
41
0.0
42
0.0
10
75.7201995849609
20
78.6897964477539
40
0.0
41
0.0
42
0.0
10
75.55419921875
20
78.504997253418
40
0.0
41
0.0
42
0.0
10
75.5056991577148
20
78.4626998901367
40
0.0
41
0.0
42
0.0
10
75.4925003051758
20
78.4427032470703
40
0.0
41
0.0
42
0.0
10
75.2996978759766
20
78.4080963134766
40
0.0
41
0.0
42
0.0
10
75.004997253418
20
78.3251037597656
40
0.0
41
0.0
42
0.0
10
74.8629989624023
20
78.4591979980469
40
0.0
41
0.0
42
0.0
10
74.8392028808594
20
78.5090026855469
40
0.0
41
0.0
42
0.0
10
74.7042007446289
20
78.6903991699219
40
0.0
41
0.0
42
0.0
10
74.3216018676758
20
79.0059967041016
40
0.0
41
0.0
42
0.0
10
74.2970962524414
20
79.046501159668
40
0.0
41
0.0
42
0.0
10
74.1876983642578
20
79.1790008544922
40
0.0
41
0.0
42
0.0
10
74.1004028320312
20
79.3251037597656
40
0.0
41
0.0
42
0.0
10
74.0055999755859
20
79.4410018920898
40
0.0
41
0.0
42
0.0
10
73.9065017700195
20
79.507698059082
40
0.0
41
0.0
42
0.0
10
73.8889999389648
20
79.6258010864258
40
0.0
41
0.0
42
0.0
10
73.7758026123047
20
80.0003967285156
40
0.0
41
0.0
42
0.0
10
73.8787994384766
20
80.3654022216797
40
0.0
41
0.0
42
0.0
10
73.9212036132812
20
80.4885025024414
40
0.0
41
0.0
42
0.0
10
74.0014038085938
20
80.6343994140625
40
0.0
41
0.0
42
0.0
10
74.1872024536133
20
80.9901962280273
40
0.0
41
0.0
42
0.0
10
74.4871978759766
20
81.488899230957
40
0.0
41
0.0
42
0.0
10
74.5005035400391
20
81.5274963378906
40
0.0
41
0.0
42
0.0
10
74.7270965576172
20
81.9849014282227
40
0.0
41
0.0
42
0.0
10
74.7269973754883
20
82.0139007568359
40
0.0
41
0.0
42
0.0
10
74.6415023803711
20
82.1501998901367
40
0.0
41
0.0
42
0.0
10
74.5003967285156
20
82.4626007080078
40
0.0
41
0.0
42
0.0
10
74.4847030639648
20
82.5070037841797
40
0.0
41
0.0
42
0.0
10
74.3421020507812
20
82.6146011352539
40
0.0
41
0.0
42
0.0
10
74.1923980712891
20
82.7321014404297
40
0.0
41
0.0
42
0.0
10
73.8057022094727
20
83.0018005371094
40
0.0
41
0.0
42
0.0
10
73.6957015991211
20
83.0578994750977
40
0.0
41
0.0
42
0.0
10
73.5117034912109
20
83.1449966430664
40
0.0
41
0.0
42
0.0
10
73.1978988647461
20
83.2637023925781
40
0.0
41
0.0
42
0.0
10
73.0151977539062
20
83.3237991333008
40
0.0
41
0.0
42
0.0
10
72.7614974975586
20
83.3591995239258
40
0.0
41
0.0
42
0.0
10
72.5183029174805
20
83.3986968994141
40
0.0
41
0.0
42
0.0
10
72.4813995361328
20
83.3985977172852
40
0.0
41
0.0
42
0.0
10
71.9856033325195
20
83.3311996459961
40
0.0
41
0.0
42
0.0
10
71.9816970825195
20
83.3295974731445
40
0.0
41
0.0
42
0.0
10
71.7500991821289
20
83.1872024536133
40
0.0
41
0.0
42
0.0
10
71.5745010375977
20
83.0717010498047
40
0.0
41
0.0
42
0.0
10
71.4946975708008
20
83.0003967285156
40
0.0
41
0.0
42
0.0
10
71.4473037719727
20
82.9488983154297
40
0.0
41
0.0
42
0.0
10
71.2397994995117
20
82.6923980712891
40
0.0
41
0.0
42
0.0
10
71.1128997802734
20
82.5086975097656
40
0.0
41
0.0
42
0.0
10
70.9983978271484
20
82.3115997314453
40
0.0
41
0.0
42
0.0
10
70.9126968383789
20
82.1423034667969
40
0.0
41
0.0
42
0.0
10
70.8495025634766
20
82.0122985839844
40
0.0
41
0.0
42
0.0
10
70.7555999755859
20
81.697998046875
40
0.0
41
0.0
42
0.0
10
70.6811981201172
20
81.5158004760742
40
0.0
41
0.0
42
0.0
10
70.6787033081055
20
81.201301574707
40
0.0
41
0.0
42
0.0
10
70.6130981445312
20
81.0162963867188
40
0.0
41
0.0
42
0.0
10
70.6129989624023
20
80.9863967895508
40
0.0
41
0.0
42
0.0
10
70.8556976318359
20
80.6315994262695
40
0.0
41
0.0
42
0.0
10
70.8594970703125
20
80.4848022460938
40
0.0
41
0.0
42
0.0
10
70.8966979980469
20
80.404296875
40
0.0
41
0.0
42
0.0
10
70.9212036132812
20
80.4041976928711
40
0.0
41
0.0
42
0.0
10
71.0043029785156
20
80.4207992553711
40
0.0
41
0.0
42
0.0
10
71.0746994018555
20
80.4108963012695
40
0.0
41
0.0
42
0.0
10
71.4873962402344
20
80.243896484375
40
0.0
41
0.0
42
0.0
10
71.8318023681641
20
80.1231994628906
40
0.0
41
0.0
42
0.0
10
71.9877014160156
20
80.0656967163086
40
0.0
41
0.0
42
0.0
10
72.1445999145508
20
79.9987030029297
40
0.0
41
0.0
42
0.0
10
72.4921035766602
20
79.8015975952148
40
0.0
41
0.0
42
0.0
10
72.8469009399414
20
79.4906005859375
40
0.0
41
0.0
42
0.0
10
72.9050979614258
20
79.0818023681641
40
0.0
41
0.0
42
0.0
10
72.9568023681641
20
78.9914016723633
40
0.0
41
0.0
42
0.0
10
72.9196014404297
20
78.6955032348633
40
0.0
41
0.0
42
0.0
10
72.9195022583008
20
78.6585998535156
40
0.0
41
0.0
42
0.0
10
72.9455032348633
20
78.4984970092773
40
0.0
41
0.0
42
0.0
10
72.9095001220703
20
78.2036972045898
40
0.0
41
0.0
42
0.0
10
72.9094009399414
20
78.165397644043
40
0.0
41
0.0
42
0.0
10
72.9158020019531
20
78.0123977661133
40
0.0
41
0.0
42
0.0
10
72.8253021240234
20
77.6995010375977
40
0.0
41
0.0
42
0.0
10
72.7762985229492
20
77.5062026977539
40
0.0
41
0.0
42
0.0
10
72.5791015625
20
77.3908004760742
40
0.0
41
0.0
42
0.0
10
72.4931030273438
20
77.3647994995117
40
0.0
41
0.0
42
0.0
10
72.3337020874023
20
77.3840026855469
40
0.0
41
0.0
42
0.0
10
72.2957992553711
20
77.383903503418
40
0.0
41
0.0
42
0.0
10
71.9815979003906
20
77.3572998046875
40
0.0
41
0.0
42
0.0
10
71.6934967041016
20
77.336799621582
40
0.0
41
0.0
42
0.0
10
71.5158004760742
20
77.3744964599609
40
0.0
41
0.0
42
0.0
10
71.1119003295898
20
77.4515991210938
40
0.0
41
0.0
42
0.0
10
71.0752029418945
20
77.4514999389648
40
0.0
41
0.0
42
0.0
10
71.0082015991211
20
77.4430999755859
40
0.0
41
0.0
42
0.0
10
70.8867034912109
20
77.5022964477539
40
0.0
41
0.0
42
0.0
10
70.5046005249023
20
77.8432006835938
40
0.0
41
0.0
42
0.0
10
70.4751968383789
20
77.8802032470703
40
0.0
41
0.0
42
0.0
10
70.3149032592773
20
78.2304000854492
40
0.0
41
0.0
42
0.0
10
70.2253036499023
20
78.5145034790039
40
0.0
41
0.0
42
0.0
10
70.1845016479492
20
78.6947021484375
40
0.0
41
0.0
42
0.0
10
70.0942001342773
20
79.0146026611328
40
0.0
41
0.0
42
0.0
10
69.9996032714844
20
79.3977966308594
40
0.0
41
0.0
42
0.0
10
69.9841003417969
20
79.4551010131836
40
0.0
41
0.0
42
0.0
10
69.9600982666016
20
79.5070037841797
40
0.0
41
0.0
42
0.0
10
69.5392990112305
20
79.8749008178711
40
0.0
41
0.0
42
0.0
10
69.5109024047852
20
79.9051971435547
40
0.0
41
0.0
42
0.0
10
69.4811019897461
20
79.9050979614258
40
0.0
41
0.0
42
0.0
10
69.1854019165039
20
79.8714981079102
40
0.0
41
0.0
42
0.0
10
69.0175018310547
20
79.9106979370117
40
0.0
41
0.0
42
0.0
10
68.9832992553711
20
79.9105987548828
40
0.0
41
0.0
42
0.0
10
68.7926025390625
20
79.8483963012695
40
0.0
41
0.0
42
0.0
10
68.4852981567383
20
79.8032989501953
40
0.0
41
0.0
42
0.0
10
68.3022003173828
20
79.7331008911133
40
0.0
41
0.0
42
0.0
10
67.9882965087891
20
79.6234970092773
40
0.0
41
0.0
42
0.0
10
67.8050003051758
20
79.529296875
40
0.0
41
0.0
42
0.0
10
67.7580032348633
20
79.5019989013672
40
0.0
41
0.0
42
0.0
10
67.4907989501953
20
79.3320999145508
40
0.0
41
0.0
42
0.0
10
67.4486999511719
20
79.3081970214844
40
0.0
41
0.0
42
0.0
10
67.309196472168
20
79.1894989013672
40
0.0
41
0.0
42
0.0
10
67.1692962646484
20
79.0510025024414
40
0.0
41
0.0
42
0.0
10
67.1408004760742
20
79.008903503418
40
0.0
41
0.0
42
0.0
10
66.9974975585938
20
78.752197265625
40
0.0
41
0.0
42
0.0
10
66.956901550293
20
78.6999969482422
40
0.0
41
0.0
42
0.0
10
66.9010009765625
20
78.5155029296875
40
0.0
41
0.0
42
0.0
10
66.8578033447266
20
78.203498840332
40
0.0
41
0.0
42
0.0
10
66.8576965332031
20
78.1654968261719
40
0.0
41
0.0
42
0.0
10
66.8669967651367
20
77.9820022583008
40
0.0
41
0.0
42
0.0
10
66.9128036499023
20
77.668701171875
40
0.0
41
0.0
42
0.0
10
66.9533004760742
20
77.4856033325195
40
0.0
41
0.0
42
0.0
10
66.9997024536133
20
77.3480987548828
40
0.0
41
0.0
42
0.0
10
67.129997253418
20
76.9888000488281
40
0.0
41
0.0
42
0.0
10
67.309196472168
20
76.6744003295898
40
0.0
41
0.0
42
0.0
10
67.4744033813477
20
76.3047027587891
40
0.0
41
0.0
42
0.0
10
67.4952011108398
20
76.2703018188477
40
0.0
41
0.0
42
0.0
10
67.9383010864258
20
75.9955978393555
40
0.0
41
0.0
42
0.0
10
67.9905014038086
20
75.9255981445312
40
0.0
41
0.0
42
0.0
10
68.0154037475586
20
75.9254989624023
40
0.0
41
0.0
42
0.0
10
68.1768035888672
20
76.0
40
0.0
41
0.0
42
0.0
10
68.5130004882812
20
76.0688018798828
40
0.0
41
0.0
42
0.0
10
68.6644973754883
20
76.1456985473633
40
0.0
41
0.0
42
0.0
10
69.1961975097656
20
76.3982009887695
40
0.0
41
0.0
42
0.0
10
69.4074020385742
20
76.4927978515625
40
0.0
41
0.0
42
0.0
10
69.5129013061523
20
76.5434036254883
40
0.0
41
0.0
42
0.0
10
69.7688980102539
20
76.6032028198242
40
0.0
41
0.0
42
0.0
10
70.0022964477539
20
76.6885986328125
40
0.0
41
0.0
42
0.0
10
70.3639984130859
20
76.5942001342773
40
0.0
41
0.0
42
0.0
10
70.4007034301758
20
76.5941009521484
40
0.0
41
0.0
42
0.0
10
70.4927978515625
20
76.5992965698242
40
0.0
41
0.0
42
0.0
10
70.5553970336914
20
76.4931030273438
40
0.0
41
0.0
42
0.0
10
70.6120986938477
20
76.4393005371094
40
0.0
41
0.0
42
0.0
10
70.9959030151367
20
76.1473999023438
40
0.0
41
0.0
42
0.0
10
71.0914001464844
20
75.9829025268555
40
0.0
41
0.0
42
0.0
10
71.3100967407227
20
75.720100402832
40
0.0
41
0.0
42
0.0
10
71.4949035644531
20
75.5541000366211
40
0.0
41
0.0
42
0.0
10
71.5371017456055
20
75.5056991577148
40
0.0
41
0.0
42
0.0
10
71.5560989379883
20
75.4932022094727
40
0.0
41
0.0
42
0.0
10
71.647102355957
20
75.1696014404297
40
0.0
41
0.0
42
0.0
10
71.676399230957
20
75.0067977905273
40
0.0
41
0.0
42
0.0
10
71.5406036376953
20
74.8630981445312
40
0.0
41
0.0
42
0.0
10
71.4908981323242
20
74.8393020629883
40
0.0
41
0.0
42
0.0
10
71.3095016479492
20
74.7042999267578
40
0.0
41
0.0
42
0.0
10
70.993896484375
20
74.3216018676758
40
0.0
41
0.0
42
0.0
10
70.9532012939453
20
74.2970962524414
40
0.0
41
0.0
42
0.0
10
70.82080078125
20
74.1876983642578
40
0.0
41
0.0
42
0.0
10
70.6745986938477
20
74.1004028320312
40
0.0
41
0.0
42
0.0
10
70.5587997436523
20
74.0055999755859
40
0.0
41
0.0
42
0.0
10
70.4922027587891
20
73.9065017700195
40
0.0
41
0.0
42
0.0
10
70.3740005493164
20
73.8889999389648
40
0.0
41
0.0
42
0.0
10
69.9994964599609
20
73.7758026123047
40
0.0
41
0.0
42
0.0
10
69.6343994140625
20
73.8787002563477
40
0.0
41
0.0
42
0.0
10
69.5113983154297
20
73.9210968017578
40
0.0
41
0.0
42
0.0
10
69.3654022216797
20
74.0012969970703
40
0.0
41
0.0
42
0.0
10
69.0095977783203
20
74.1872024536133
40
0.0
41
0.0
42
0.0
10
68.5110015869141
20
74.4871978759766
40
0.0
41
0.0
42
0.0
10
68.4723968505859
20
74.5005035400391
40
0.0
41
0.0
42
0.0
10
68.1613998413086
20
74.6519012451172
40
0.0
41
0.0
42
0.0
10
68.0149002075195
20
74.7270965576172
40
0.0
41
0.0
42
0.0
10
67.9850006103516
20
74.7269973754883
40
0.0
41
0.0
42
0.0
10
67.53759765625
20
74.500602722168
40
0.0
41
0.0
42
0.0
10
67.4928970336914
20
74.4848022460938
40
0.0
41
0.0
42
0.0
10
67.3851013183594
20
74.3421020507812
40
0.0
41
0.0
42
0.0
10
67.2677993774414
20
74.1923980712891
40
0.0
41
0.0
42
0.0
10
66.9980010986328
20
73.8057022094727
40
0.0
41
0.0
42
0.0
10
66.9418029785156
20
73.6957015991211
40
0.0
41
0.0
42
0.0
10
66.8547973632812
20
73.5117034912109
40
0.0
41
0.0
42
0.0
10
66.7360000610352
20
73.197998046875
40
0.0
41
0.0
42
0.0
10
66.6759033203125
20
73.0151977539062
40
0.0
41
0.0
42
0.0
10
66.6405029296875
20
72.7614974975586
40
0.0
41
0.0
42
0.0
10
66.6011962890625
20
72.5183029174805
40
0.0
41
0.0
42
0.0
10
66.6010971069336
20
72.4813995361328
40
0.0
41
0.0
42
0.0
10
66.6681976318359
20
71.9870986938477
40
0.0
41
0.0
42
0.0
210
0.0
220
0.0
230
1.0
0
LWPOLYLINE
5
25
330
1C
100
AcDbEntity
67
0
8
0
62
256
6
ByLayer
370
-1
48
1.0
60
0
100
AcDbPolyline
90
573
70
1
38
0.0
39
0.0
10
66.6705017089844
20
72.7829971313477
40
0.0
41
0.0
42
0.0
10
66.6986999511719
20
72.9847030639648
40
0.0
41
0.0
42
0.0
10
66.7470016479492
20
73.1320037841797
40
0.0
41
0.0
42
0.0
10
66.8818969726562
20
73.4881973266602
40
0.0
41
0.0
42
0.0
10
66.9509963989258
20
73.6342010498047
40
0.0
41
0.0
42
0.0
10
67.0018997192383
20
73.7338027954102
40
0.0
41
0.0
42
0.0
10
67.2829971313477
20
74.1374969482422
40
0.0
41
0.0
42
0.0
10
67.415901184082
20
74.3068008422852
40
0.0
41
0.0
42
0.0
10
67.5070037841797
20
74.4273986816406
40
0.0
41
0.0
42
0.0
10
67.7108993530273
20
74.4992980957031
40
0.0
41
0.0
42
0.0
10
67.9999008178711
20
74.6454010009766
40
0.0
41
0.0
42
0.0
10
68.0898971557617
20
74.5991973876953
40
0.0
41
0.0
42
0.0
10
68.2953033447266
20
74.4992980957031
40
0.0
41
0.0
42
0.0
10
68.4888000488281
20
74.4326019287109
40
0.0
41
0.0
42
0.0
10
68.9901962280273
20
74.1321029663086
40
0.0
41
0.0
42
0.0
10
69.2462005615234
20
73.9984970092773
40
0.0
41
0.0
42
0.0
10
69.4885025024414
20
73.8651962280273
40
0.0
41
0.0
42
0.0
10
69.690299987793
20
73.7957992553711
40
0.0
41
0.0
42
0.0
10
69.9829025268555
20
73.7130966186523
40
0.0
41
0.0
42
0.0
10
70.0168991088867
20
73.7130966186523
40
0.0
41
0.0
42
0.0
10
70.3197021484375
20
73.8047027587891
40
0.0
41
0.0
42
0.0
10
70.507698059082
20
73.8323974609375
40
0.0
41
0.0
42
0.0
10
70.6164016723633
20
73.9942016601562
40
0.0
41
0.0
42
0.0
10
70.7136993408203
20
74.0737991333008
40
0.0
41
0.0
42
0.0
10
70.8283004760742
20
74.1421966552734
40
0.0
41
0.0
42
0.0
10
70.9773025512695
20
74.2652969360352
40
0.0
41
0.0
42
0.0
10
71.006103515625
20
74.2826995849609
40
0.0
41
0.0
42
0.0
10
71.3603973388672
20
74.7119979858398
40
0.0
41
0.0
42
0.0
10
71.5091018676758
20
74.8227005004883
40
0.0
41
0.0
42
0.0
10
71.5449981689453
20
74.8398971557617
40
0.0
41
0.0
42
0.0
10
71.685302734375
20
74.9882965087891
40
0.0
41
0.0
42
0.0
10
71.6852035522461
20
75.0180969238281
40
0.0
41
0.0
42
0.0
10
71.6595993041992
20
75.1602020263672
40
0.0
41
0.0
42
0.0
10
71.5621032714844
20
75.5066986083984
40
0.0
41
0.0
42
0.0
10
71.5546035766602
20
75.5117034912109
40
0.0
41
0.0
42
0.0
10
71.5048980712891
20
75.5688018798828
40
0.0
41
0.0
42
0.0
10
71.3597030639648
20
75.6990966796875
40
0.0
41
0.0
42
0.0
10
71.1091995239258
20
76.0001983642578
40
0.0
41
0.0
42
0.0
10
71.0037994384766
20
76.1822967529297
40
0.0
41
0.0
42
0.0
10
70.7072982788086
20
76.4076995849609
40
0.0
41
0.0
42
0.0
10
70.6032028198242
20
76.5066986083984
40
0.0
41
0.0
42
0.0
10
70.5078964233398
20
76.668701171875
40
0.0
41
0.0
42
0.0
10
70.4804992675781
20
76.668701171875
40
0.0
41
0.0
42
0.0
10
70.3095016479492
20
76.6586990356445
40
0.0
41
0.0
42
0.0
10
70.0171966552734
20
76.7350997924805
40
0.0
41
0.0
42
0.0
10
69.9837036132812
20
76.7350997924805
40
0.0
41
0.0
42
0.0
10
69.6857986450195
20
76.6260986328125
40
0.0
41
0.0
42
0.0
10
69.4869995117188
20
76.5795974731445
40
0.0
41
0.0
42
0.0
10
69.2994003295898
20
76.4896011352539
40
0.0
41
0.0
42
0.0
10
69.1337966918945
20
76.415397644043
40
0.0
41
0.0
42
0.0
10
68.6097030639648
20
76.1666030883789
40
0.0
41
0.0
42
0.0
10
68.4869003295898
20
76.1043014526367
40
0.0
41
0.0
42
0.0
10
68.0058975219727
20
76.0058975219727
40
0.0
41
0.0
42
0.0
10
67.5046005249023
20
76.3168029785156
40
0.0
41
0.0
42
0.0
10
67.4754028320312
20
76.3651962280273
40
0.0
41
0.0
42
0.0
10
67.3455963134766
20
76.655403137207
40
0.0
41
0.0
42
0.0
10
67.1427993774414
20
77.011100769043
40
0.0
41
0.0
42
0.0
10
66.9994964599609
20
77.4050979614258
40
0.0
41
0.0
42
0.0
10
66.9627990722656
20
77.5142974853516
40
0.0
41
0.0
42
0.0
10
66.9303970336914
20
77.6612014770508
40
0.0
41
0.0
42
0.0
10
66.8781967163086
20
78.0178985595703
40
0.0
41
0.0
42
0.0
10
66.872200012207
20
78.1367034912109
40
0.0
41
0.0
42
0.0
10
66.9205017089844
20
78.4843978881836
40
0.0
41
0.0
42
0.0
10
66.964599609375
20
78.6327972412109
40
0.0
41
0.0
42
0.0
10
66.9692993164062
20
78.6417007446289
40
0.0
41
0.0
42
0.0
10
67.0024032592773
20
78.6844024658203
40
0.0
41
0.0
42
0.0
10
67.1735992431641
20
78.9909973144531
40
0.0
41
0.0
42
0.0
10
67.1988983154297
20
79.0282974243164
40
0.0
41
0.0
42
0.0
10
67.3119964599609
20
79.1404037475586
40
0.0
41
0.0
42
0.0
10
67.4739990234375
20
79.2779998779297
40
0.0
41
0.0
42
0.0
10
67.5091018676758
20
79.2979965209961
40
0.0
41
0.0
42
0.0
10
67.8234024047852
20
79.4979019165039
40
0.0
41
0.0
42
0.0
10
67.8649978637695
20
79.5216979980469
40
0.0
41
0.0
42
0.0
10
68.0115966796875
20
79.5970993041992
40
0.0
41
0.0
42
0.0
10
68.3676986694336
20
79.7214965820312
40
0.0
41
0.0
42
0.0
10
68.5146026611328
20
79.7778015136719
40
0.0
41
0.0
42
0.0
10
68.864501953125
20
79.8290023803711
40
0.0
41
0.0
42
0.0
10
69.0024032592773
20
79.8740005493164
40
0.0
41
0.0
42
0.0
10
69.2314987182617
20
79.82080078125
40
0.0
41
0.0
42
0.0
10
69.2678985595703
20
79.8207015991211
40
0.0
41
0.0
42
0.0
10
69.4918975830078
20
79.8460998535156
40
0.0
41
0.0
42
0.0
10
69.5494995117188
20
79.7853012084961
40
0.0
41
0.0
42
0.0
10
69.8840026855469
20
79.4926986694336
40
0.0
41
0.0
42
0.0
10
69.9572982788086
20
79.3338012695312
40
0.0
41
0.0
42
0.0
10
70.0001983642578
20
79.1743011474609
40
0.0
41
0.0
42
0.0
10
70.0467987060547
20
78.9852981567383
40
0.0
41
0.0
42
0.0
10
70.1371002197266
20
78.6699981689453
40
0.0
41
0.0
42
0.0
10
70.1551971435547
20
78.5982971191406
40
0.0
41
0.0
42
0.0
10
70.1800994873047
20
78.4853973388672
40
0.0
41
0.0
42
0.0
10
70.2830963134766
20
78.1583023071289
40
0.0
41
0.0
42
0.0
10
70.3616027832031
20
77.9886016845703
40
0.0
41
0.0
42
0.0
10
70.4546966552734
20
77.7818984985352
40
0.0
41
0.0
42
0.0
10
70.4952011108398
20
77.7307968139648
40
0.0
41
0.0
42
0.0
10
70.7567977905273
20
77.4974975585938
40
0.0
41
0.0
42
0.0
10
70.9848022460938
20
77.3864974975586
40
0.0
41
0.0
42
0.0
10
71.0186004638672
20
77.3863983154297
40
0.0
41
0.0
42
0.0
10
71.1781005859375
20
77.4065017700195
40
0.0
41
0.0
42
0.0
10
71.4841003417969
20
77.3481979370117
40
0.0
41
0.0
42
0.0
10
71.627197265625
20
77.3179016113281
40
0.0
41
0.0
42
0.0
10
71.6641998291016
20
77.3178024291992
40
0.0
41
0.0
42
0.0
10
72.0183029174805
20
77.3430023193359
40
0.0
41
0.0
42
0.0
10
72.3518981933594
20
77.3712005615234
40
0.0
41
0.0
42
0.0
10
72.481201171875
20
77.3559036254883
40
0.0
41
0.0
42
0.0
10
72.5167999267578
20
77.3559036254883
40
0.0
41
0.0
42
0.0
10
72.5826034545898
20
77.3758010864258
40
0.0
41
0.0
42
0.0
10
72.7839965820312
20
77.4936981201172
40
0.0
41
0.0
42
0.0
10
72.8189010620117
20
77.630500793457
40
0.0
41
0.0
42
0.0
10
72.9208984375
20
77.9829025268555
40
0.0
41
0.0
42
0.0
10
72.9207992553711
20
78.0195007324219
40
0.0
41
0.0
42
0.0
10
72.915901184082
20
78.1360015869141
40
0.0
41
0.0
42
0.0
10
72.9585037231445
20
78.481201171875
40
0.0
41
0.0
42
0.0
10
72.9583969116211
20
78.5183029174805
40
0.0
41
0.0
42
0.0
10
72.9390029907227
20
78.6380996704102
40
0.0
41
0.0
42
0.0
10
72.9823989868164
20
78.9813003540039
40
0.0
41
0.0
42
0.0
10
72.9822998046875
20
79.0142974853516
40
0.0
41
0.0
42
0.0
10
72.9608993530273
20
79.0516967773438
40
0.0
41
0.0
42
0.0
10
72.8958969116211
20
79.5093002319336
40
0.0
41
0.0
42
0.0
10
72.507698059082
20
79.8496017456055
40
0.0
41
0.0
42
0.0
10
72.2406997680664
20
80.0009994506836
40
0.0
41
0.0
42
0.0
10
72.0121994018555
20
80.098503112793
40
0.0
41
0.0
42
0.0
10
71.7830963134766
20
80.1829986572266
40
0.0
41
0.0
42
0.0
10
71.5124969482422
20
80.2779006958008
40
0.0
41
0.0
42
0.0
10
71.0478973388672
20
80.4661026000977
40
0.0
41
0.0
42
0.0
10
71.0185012817383
20
80.4701995849609
40
0.0
41
0.0
42
0.0
10
70.9666976928711
20
80.4700012207031
40
0.0
41
0.0
42
0.0
10
70.9462966918945
20
80.5150985717773
40
0.0
41
0.0
42
0.0
10
70.9447021484375
20
80.5673980712891
40
0.0
41
0.0
42
0.0
10
70.6466979980469
20
81.0031967163086
40
0.0
41
0.0
42
0.0
10
70.6912994384766
20
81.1287002563477
40
0.0
41
0.0
42
0.0
10
70.6940994262695
20
81.4841995239258
40
0.0
41
0.0
42
0.0
10
70.7544021606445
20
81.6320037841797
40
0.0
41
0.0
42
0.0
10
70.8606033325195
20
81.9876022338867
40
0.0
41
0.0
42
0.0
10
70.9337005615234
20
82.1377029418945
40
0.0
41
0.0
42
0.0
10
71.0015029907227
20
82.271598815918
40
0.0
41
0.0
42
0.0
10
71.1289978027344
20
82.4912033081055
40
0.0
41
0.0
42
0.0
10
71.2301025390625
20
82.6376037597656
40
0.0
41
0.0
42
0.0
10
71.4658966064453
20
82.92919921875
40
0.0
41
0.0
42
0.0
10
71.506103515625
20
82.9726028442383
40
0.0
41
0.0
42
0.0
10
71.5399017333984
20
82.9963989257812
40
0.0
41
0.0
42
0.0
10
71.5990982055664
20
83.0503005981445
40
0.0
41
0.0
42
0.0
10
71.7397003173828
20
83.1427001953125
40
0.0
41
0.0
42
0.0
10
72.0128021240234
20
83.3094024658203
40
0.0
41
0.0
42
0.0
10
72.4984970092773
20
83.3752975463867
40
0.0
41
0.0
42
0.0
10
72.7829971313477
20
83.3292007446289
40
0.0
41
0.0
42
0.0
10
72.9847030639648
20
83.3010025024414
40
0.0
41
0.0
42
0.0
10
73.1318969726562
20
83.2527008056641
40
0.0
41
0.0
42
0.0
10
73.4880981445312
20
83.1177978515625
40
0.0
41
0.0
42
0.0
10
73.6342010498047
20
83.048698425293
40
0.0
41
0.0
42
0.0
10
73.7338027954102
20
82.9980010986328
40
0.0
41
0.0
42
0.0
10
74.1373977661133
20
82.7166976928711
40
0.0
41
0.0
42
0.0
10
74.3067016601562
20
82.5838012695312
40
0.0
41
0.0
42
0.0
10
74.4272994995117
20
82.4928970336914
40
0.0
41
0.0
42
0.0
10
74.499397277832
20
82.2884979248047
40
0.0
41
0.0
42
0.0
10
74.5921020507812
20
82.0835037231445
40
0.0
41
0.0
42
0.0
10
74.6451034545898
20
81.9988021850586
40
0.0
41
0.0
42
0.0
10
74.4992980957031
20
81.7043991088867
40
0.0
41
0.0
42
0.0
10
74.4327011108398
20
81.5110015869141
40
0.0
41
0.0
42
0.0
10
74.1321029663086
20
81.0096969604492
40
0.0
41
0.0
42
0.0
10
73.9983978271484
20
80.7537002563477
40
0.0
41
0.0
42
0.0
10
73.8651962280273
20
80.5113983154297
40
0.0
41
0.0
42
0.0
10
73.7957992553711
20
80.3095016479492
40
0.0
41
0.0
42
0.0
10
73.7130966186523
20
80.0169982910156
40
0.0
41
0.0
42
0.0
10
73.7130966186523
20
79.9830017089844
40
0.0
41
0.0
42
0.0
10
73.8047027587891
20
79.6800994873047
40
0.0
41
0.0
42
0.0
10
73.8322982788086
20
79.4922027587891
40
0.0
41
0.0
42
0.0
10
73.9942016601562
20
79.3833999633789
40
0.0
41
0.0
42
0.0
10
74.0736999511719
20
79.2861022949219
40
0.0
41
0.0
42
0.0
10
74.1421966552734
20
79.1714019775391
40
0.0
41
0.0
42
0.0
10
74.2651977539062
20
79.0224990844727
40
0.0
41
0.0
42
0.0
10
74.282600402832
20
78.9937973022461
40
0.0
41
0.0
42
0.0
10
74.4933013916016
20
78.818603515625
40
0.0
41
0.0
42
0.0
10
74.7118988037109
20
78.6395034790039
40
0.0
41
0.0
42
0.0
10
74.8227005004883
20
78.4907989501953
40
0.0
41
0.0
42
0.0
10
74.8398971557617
20
78.4548034667969
40
0.0
41
0.0
42
0.0
10
74.9882965087891
20
78.3145980834961
40
0.0
41
0.0
42
0.0
10
75.0170974731445
20
78.3144989013672
40
0.0
41
0.0
42
0.0
10
75.3702011108398
20
78.4139022827148
40
0.0
41
0.0
42
0.0
10
75.5074005126953
20
78.4385986328125
40
0.0
41
0.0
42
0.0
10
75.5117034912109
20
78.4450988769531
40
0.0
41
0.0
42
0.0
10
75.5689010620117
20
78.495002746582
40
0.0
41
0.0
42
0.0
10
75.6990966796875
20
78.6400985717773
40
0.0
41
0.0
42
0.0
10
76.0001983642578
20
78.8905029296875
40
0.0
41
0.0
42
0.0
10
76.1830978393555
20
78.9964981079102
40
0.0
41
0.0
42
0.0
10
76.1884994506836
20
79.0025024414062
40
0.0
41
0.0
42
0.0
10
76.2789001464844
20
79.1380996704102
40
0.0
41
0.0
42
0.0
10
76.4488983154297
20
79.3168029785156
40
0.0
41
0.0
42
0.0
10
76.505500793457
20
79.3956985473633
40
0.0
41
0.0
42
0.0
10
76.668701171875
20
79.4919967651367
40
0.0
41
0.0
42
0.0
10
76.668701171875
20
79.519401550293
40
0.0
41
0.0
42
0.0
10
76.6586990356445
20
79.6902008056641
40
0.0
41
0.0
42
0.0
10
76.7350997924805
20
79.9826965332031
40
0.0
41
0.0
42
0.0
10
76.7350006103516
20
80.0161972045898
40
0.0
41
0.0
42
0.0
10
76.6259994506836
20
80.3140029907227
40
0.0
41
0.0
42
0.0
10
76.5795974731445
20
80.5129013061523
40
0.0
41
0.0
42
0.0
10
76.4896011352539
20
80.7004013061523
40
0.0
41
0.0
42
0.0
10
76.4152984619141
20
80.866096496582
40
0.0
41
0.0
42
0.0
10
76.1664962768555
20
81.3900985717773
40
0.0
41
0.0
42
0.0
10
76.1043014526367
20
81.5130004882812
40
0.0
41
0.0
42
0.0
10
76.0059967041016
20
81.993896484375
40
0.0
41
0.0
42
0.0
10
76.3169021606445
20
82.4953002929688
40
0.0
41
0.0
42
0.0
10
76.3651962280273
20
82.5243988037109
40
0.0
41
0.0
42
0.0
10
76.5103988647461
20
82.5896987915039
40
0.0
41
0.0
42
0.0
10
76.8655014038086
20
82.7921981811523
40
0.0
41
0.0
42
0.0
10
77.0121002197266
20
82.8572998046875
40
0.0
41
0.0
42
0.0
10
77.4038009643555
20
82.9998016357422
40
0.0
41
0.0
42
0.0
10
77.5150985717773
20
83.0371017456055
40
0.0
41
0.0
42
0.0
10
77.8712005615234
20
83.0892028808594
40
0.0
41
0.0
42
0.0
10
78.0037002563477
20
83.1184997558594
40
0.0
41
0.0
42
0.0
10
78.3364028930664
20
83.0723037719727
40
0.0
41
0.0
42
0.0
10
78.374397277832
20
83.0721969604492
40
0.0
41
0.0
42
0.0
10
78.4884033203125
20
83.0781021118164
40
0.0
41
0.0
42
0.0
10
78.6344985961914
20
83.0346984863281
40
0.0
41
0.0
42
0.0
10
78.684196472168
20
82.9975967407227
40
0.0
41
0.0
42
0.0
10
78.9908981323242
20
82.8261032104492
40
0.0
41
0.0
42
0.0
10
79.0282974243164
20
82.8007965087891
40
0.0
41
0.0
42
0.0
10
79.1404037475586
20
82.6876983642578
40
0.0
41
0.0
42
0.0
10
79.2779998779297
20
82.5258026123047
40
0.0
41
0.0
42
0.0
10
79.2979965209961
20
82.4907989501953
40
0.0
41
0.0
42
0.0
10
79.4979019165039
20
82.176399230957
40
0.0
41
0.0
42
0.0
10
79.521598815918
20
82.1349029541016
40
0.0
41
0.0
42
0.0
10
79.5970993041992
20
81.9881973266602
40
0.0
41
0.0
42
0.0
10
79.7214965820312
20
81.6322021484375
40
0.0
41
0.0
42
0.0
10
79.7778015136719
20
81.4852981567383
40
0.0
41
0.0
42
0.0
10
79.8290023803711
20
81.1352005004883
40
0.0
41
0.0
42
0.0
10
79.8740005493164
20
80.9974975585938
40
0.0
41
0.0
42
0.0
10
79.82080078125
20
80.7683029174805
40
0.0
41
0.0
42
0.0
10
79.8207015991211
20
80.7319030761719
40
0.0
41
0.0
42
0.0
10
79.8461990356445
20
80.5080032348633
40
0.0
41
0.0
42
0.0
10
79.7853012084961
20
80.4503021240234
40
0.0
41
0.0
42
0.0
10
79.4927978515625
20
80.1157989501953
40
0.0
41
0.0
42
0.0
10
79.3338012695312
20
80.0423965454102
40
0.0
41
0.0
42
0.0
10
79.1743011474609
20
79.9996032714844
40
0.0
41
0.0
42
0.0
10
78.9746017456055
20
79.9501037597656
40
0.0
41
0.0
42
0.0
10
78.638298034668
20
79.8545989990234
40
0.0
41
0.0
42
0.0
10
78.4854965209961
20
79.8196029663086
40
0.0
41
0.0
42
0.0
10
78.1584014892578
20
79.7165985107422
40
0.0
41
0.0
42
0.0
10
77.9887008666992
20
79.6380996704102
40
0.0
41
0.0
42
0.0
10
77.7819976806641
20
79.5450973510742
40
0.0
41
0.0
42
0.0
10
77.7309036254883
20
79.5046005249023
40
0.0
41
0.0
42
0.0
10
77.4974975585938
20
79.2429962158203
40
0.0
41
0.0
42
0.0
10
77.3864974975586
20
79.0150985717773
40
0.0
41
0.0
42
0.0
10
77.3863983154297
20
78.9813003540039
40
0.0
41
0.0
42
0.0
10
77.4065017700195
20
78.8217010498047
40
0.0
41
0.0
42
0.0
10
77.3481979370117
20
78.5158004760742
40
0.0
41
0.0
42
0.0
10
77.3179016113281
20
78.3727035522461
40
0.0
41
0.0
42
0.0
10
77.3178024291992
20
78.3357009887695
40
0.0
41
0.0
42
0.0
10
77.3430023193359
20
77.9815979003906
40
0.0
41
0.0
42
0.0
10
77.3712005615234
20
77.6480026245117
40
0.0
41
0.0
42
0.0
10
77.3559036254883
20
77.5186996459961
40
0.0
41
0.0
42
0.0
10
77.3557968139648
20
77.4830017089844
40
0.0
41
0.0
42
0.0
10
77.3757019042969
20
77.4171981811523
40
0.0
41
0.0
42
0.0
10
77.4937973022461
20
77.2153015136719
40
0.0
41
0.0
42
0.0
10
77.8416976928711
20
77.1147003173828
40
0.0
41
0.0
42
0.0
10
77.9825973510742
20
77.0790023803711
40
0.0
41
0.0
42
0.0
10
78.0195007324219
20
77.0789031982422
40
0.0
41
0.0
42
0.0
10
78.1360015869141
20
77.0839004516602
40
0.0
41
0.0
42
0.0
10
78.481201171875
20
77.0413970947266
40
0.0
41
0.0
42
0.0
10
78.5183029174805
20
77.0412979125977
40
0.0
41
0.0
42
0.0
10
78.6380996704102
20
77.0606994628906
40
0.0
41
0.0
42
0.0
10
78.9813003540039
20
77.0175018310547
40
0.0
41
0.0
42
0.0
10
79.0143966674805
20
77.0175018310547
40
0.0
41
0.0
42
0.0
10
79.0516967773438
20
77.0388031005859
40
0.0
41
0.0
42
0.0
10
79.5093002319336
20
77.1038970947266
40
0.0
41
0.0
42
0.0
10
79.8496017456055
20
77.4922027587891
40
0.0
41
0.0
42
0.0
10
80.0009994506836
20
77.7591018676758
40
0.0
41
0.0
42
0.0
10
80.0986022949219
20
77.9877014160156
40
0.0
41
0.0
42
0.0
10
80.1829986572266
20
78.2166976928711
40
0.0
41
0.0
42
0.0
10
80.2768020629883
20
78.4843978881836
40
0.0
41
0.0
42
0.0
10
80.2817993164062
20
78.5419006347656
40
0.0
41
0.0
42
0.0
10
80.2951965332031
20
78.6302032470703
40
0.0
41
0.0
42
0.0
10
80.3691024780273
20
78.8323974609375
40
0.0
41
0.0
42
0.0
10
80.4701995849609
20
78.986198425293
40
0.0
41
0.0
42
0.0
10
80.470100402832
20
79.0329971313477
40
0.0
41
0.0
42
0.0
10
80.5150985717773
20
79.0533981323242
40
0.0
41
0.0
42
0.0
10
80.5673980712891
20
79.0550003051758
40
0.0
41
0.0
42
0.0
10
81.0031967163086
20
79.3529968261719
40
0.0
41
0.0
42
0.0
10
81.1286010742188
20
79.3085021972656
40
0.0
41
0.0
42
0.0
10
81.4831008911133
20
79.3056030273438
40
0.0
41
0.0
42
0.0
10
81.8419036865234
20
79.1984024047852
40
0.0
41
0.0
42
0.0
10
81.9885025024414
20
79.1386032104492
40
0.0
41
0.0
42
0.0
10
82.1377029418945
20
79.0660018920898
40
0.0
41
0.0
42
0.0
10
82.2714996337891
20
78.9983978271484
40
0.0
41
0.0
42
0.0
10
82.4912033081055
20
78.8706970214844
40
0.0
41
0.0
42
0.0
10
82.6374969482422
20
78.7696990966797
40
0.0
41
0.0
42
0.0
10
82.9291000366211
20
78.5337982177734
40
0.0
41
0.0
42
0.0
10
82.9726028442383
20
78.4937973022461
40
0.0
41
0.0
42
0.0
10
82.9963989257812
20
78.4598999023438
40
0.0
41
0.0
42
0.0
10
83.0502014160156
20
78.4005966186523
40
0.0
41
0.0
42
0.0
10
83.1427001953125
20
78.2601013183594
40
0.0
41
0.0
42
0.0
10
83.3094024658203
20
77.9870986938477
40
0.0
41
0.0
42
0.0
10
83.3753967285156
20
77.5014038085938
40
0.0
41
0.0
42
0.0
10
83.3292007446289
20
77.216796875
40
0.0
41
0.0
42
0.0
10
83.3011016845703
20
77.0151977539062
40
0.0
41
0.0
42
0.0
10
83.2527008056641
20
76.8679962158203
40
0.0
41
0.0
42
0.0
10
83.1177978515625
20
76.5117034912109
40
0.0
41
0.0
42
0.0
10
83.048698425293
20
76.3656997680664
40
0.0
41
0.0
42
0.0
10
82.9980010986328
20
76.265998840332
40
0.0
41
0.0
42
0.0
10
82.716796875
20
75.8625030517578
40
0.0
41
0.0
42
0.0
10
82.4927978515625
20
75.5725021362305
40
0.0
41
0.0
42
0.0
10
82.2889022827148
20
75.500602722168
40
0.0
41
0.0
42
0.0
10
82.0
20
75.3543014526367
40
0.0
41
0.0
42
0.0
10
81.9098968505859
20
75.4003982543945
40
0.0
41
0.0
42
0.0
10
81.7044982910156
20
75.5005035400391
40
0.0
41
0.0
42
0.0
10
81.5110015869141
20
75.5671005249023
40
0.0
41
0.0
42
0.0
10
81.0095977783203
20
75.8675994873047
40
0.0
41
0.0
42
0.0
10
80.7536010742188
20
76.0012969970703
40
0.0
41
0.0
42
0.0
10
80.5113983154297
20
76.1344985961914
40
0.0
41
0.0
42
0.0
10
80.3094024658203
20
76.2039031982422
40
0.0
41
0.0
42
0.0
10
80.0169982910156
20
76.2865982055664
40
0.0
41
0.0
42
0.0
10
79.9830017089844
20
76.2865982055664
40
0.0
41
0.0
42
0.0
10
79.6800994873047
20
76.1949996948242
40
0.0
41
0.0
42
0.0
10
79.4922027587891
20
76.1673965454102
40
0.0
41
0.0
42
0.0
10
79.3830032348633
20
76.0048980712891
40
0.0
41
0.0
42
0.0
10
79.1298980712891
20
75.8300018310547
40
0.0
41
0.0
42
0.0
10
78.9947967529297
20
75.7182998657227
40
0.0
41
0.0
42
0.0
10
78.8187026977539
20
75.5065994262695
40
0.0
41
0.0
42
0.0
10
78.6396026611328
20
75.2878036499023
40
0.0
41
0.0
42
0.0
10
78.4908981323242
20
75.1772003173828
40
0.0
41
0.0
42
0.0
10
78.4548034667969
20
75.1598968505859
40
0.0
41
0.0
42
0.0
10
78.3145980834961
20
75.0115966796875
40
0.0
41
0.0
42
0.0
10
78.3144989013672
20
74.9828033447266
40
0.0
41
0.0
42
0.0
10
78.4139022827148
20
74.6296005249023
40
0.0
41
0.0
42
0.0
10
78.4385986328125
20
74.4924011230469
40
0.0
41
0.0
42
0.0
10
78.4450988769531
20
74.4879989624023
40
0.0
41
0.0
42
0.0
10
78.4949035644531
20
74.4309005737305
40
0.0
41
0.0
42
0.0
10
78.6400985717773
20
74.3005981445312
40
0.0
41
0.0
42
0.0
10
78.8905029296875
20
73.9996032714844
40
0.0
41
0.0
42
0.0
10
78.9963989257812
20
73.8167037963867
40
0.0
41
0.0
42
0.0
10
79.0024032592773
20
73.8113021850586
40
0.0
41
0.0
42
0.0
10
79.1380996704102
20
73.7209014892578
40
0.0
41
0.0
42
0.0
10
79.3167037963867
20
73.5507965087891
40
0.0
41
0.0
42
0.0
10
79.3956985473633
20
73.4944000244141
40
0.0
41
0.0
42
0.0
10
79.4919967651367
20
73.3311996459961
40
0.0
41
0.0
42
0.0
10
79.5193023681641
20
73.3311004638672
40
0.0
41
0.0
42
0.0
10
79.6902008056641
20
73.3410034179688
40
0.0
41
0.0
42
0.0
10
79.9826965332031
20
73.2646026611328
40
0.0
41
0.0
42
0.0
10
80.0161972045898
20
73.2647018432617
40
0.0
41
0.0
42
0.0
10
80.3140029907227
20
73.3737030029297
40
0.0
41
0.0
42
0.0
10
80.5129013061523
20
73.4201965332031
40
0.0
41
0.0
42
0.0
10
80.6763000488281
20
73.4990005493164
40
0.0
41
0.0
42
0.0
10
80.866096496582
20
73.5843963623047
40
0.0
41
0.0
42
0.0
10
81.3900985717773
20
73.8331985473633
40
0.0
41
0.0
42
0.0
10
81.5130004882812
20
73.8954010009766
40
0.0
41
0.0
42
0.0
10
81.993896484375
20
73.9936981201172
40
0.0
41
0.0
42
0.0
10
82.4953002929688
20
73.6828994750977
40
0.0
41
0.0
42
0.0
10
82.524299621582
20
73.6346969604492
40
0.0
41
0.0
42
0.0
10
82.5896987915039
20
73.489501953125
40
0.0
41
0.0
42
0.0
10
82.7920989990234
20
73.1343994140625
40
0.0
41
0.0
42
0.0
10
82.8572998046875
20
72.9878005981445
40
0.0
41
0.0
42
0.0
10
82.9997024536133
20
72.5960006713867
40
0.0
41
0.0
42
0.0
10
83.0371017456055
20
72.4848022460938
40
0.0
41
0.0
42
0.0
10
83.0892028808594
20
72.1287002563477
40
0.0
41
0.0
42
0.0
10
83.1184997558594
20
71.9962005615234
40
0.0
41
0.0
42
0.0
10
83.0723037719727
20
71.6634979248047
40
0.0
41
0.0
42
0.0
10
83.0721969604492
20
71.6255035400391
40
0.0
41
0.0
42
0.0
10
83.0781021118164
20
71.5114974975586
40
0.0
41
0.0
42
0.0
10
83.0352020263672
20
71.3671035766602
40
0.0
41
0.0
42
0.0
10
83.0305023193359
20
71.3580017089844
40
0.0
41
0.0
42
0.0
10
82.9974975585938
20
71.3153991699219
40
0.0
41
0.0
42
0.0
10
82.8254013061523
20
71.0074996948242
40
0.0
41
0.0
42
0.0
10
82.6872024536133
20
70.8588027954102
40
0.0
41
0.0
42
0.0
10
82.6381988525391
20
70.8267974853516
40
0.0
41
0.0
42
0.0
10
82.4925003051758
20
70.7029037475586
40
0.0
41
0.0
42
0.0
10
82.176399230957
20
70.5019989013672
40
0.0
41
0.0
42
0.0
10
82.1350021362305
20
70.4781036376953
40
0.0
41
0.0
42
0.0
10
81.9882965087891
20
70.4026031494141
40
0.0
41
0.0
42
0.0
10
81.6322021484375
20
70.2782974243164
40
0.0
41
0.0
42
0.0
10
81.4852981567383
20
70.2219009399414
40
0.0
41
0.0
42
0.0
10
81.1352996826172
20
70.1707000732422
40
0.0
41
0.0
42
0.0
10
80.9974975585938
20
70.1257019042969
40
0.0
41
0.0
42
0.0
10
80.7683029174805
20
70.1791000366211
40
0.0
41
0.0
42
0.0
10
80.7319030761719
20
70.1790008544922
40
0.0
41
0.0
42
0.0
10
80.5080032348633
20
70.1535034179688
40
0.0
41
0.0
42
0.0
10
80.4502029418945
20
70.2144012451172
40
0.0
41
0.0
42
0.0
10
80.1156997680664
20
70.5071029663086
40
0.0
41
0.0
42
0.0
10
80.0423965454102
20
70.6660003662109
40
0.0
41
0.0
42
0.0
10
79.9996032714844
20
70.8255004882812
40
0.0
41
0.0
42
0.0
10
79.9383010864258
20
71.0758972167969
40
0.0
41
0.0
42
0.0
10
79.8197021484375
20
71.5139999389648
40
0.0
41
0.0
42
0.0
10
79.7165985107422
20
71.8414001464844
40
0.0
41
0.0
42
0.0
10
79.6380996704102
20
72.0111999511719
40
0.0
41
0.0
42
0.0
10
79.5449981689453
20
72.2177963256836
40
0.0
41
0.0
42
0.0
10
79.5046005249023
20
72.2688980102539
40
0.0
41
0.0
42
0.0
10
79.2428970336914
20
72.5022964477539
40
0.0
41
0.0
42
0.0
10
79.0150985717773
20
72.6134033203125
40
0.0
41
0.0
42
0.0
10
78.9813003540039
20
72.6132965087891
40
0.0
41
0.0
42
0.0
10
78.8217010498047
20
72.5932006835938
40
0.0
41
0.0
42
0.0
10
78.5158004760742
20
72.651496887207
40
0.0
41
0.0
42
0.0
10
78.3727035522461
20
72.681999206543
40
0.0
41
0.0
42
0.0
10
78.3357009887695
20
72.6819000244141
40
0.0
41
0.0
42
0.0
10
78.0045013427734
20
72.6583023071289
40
0.0
41
0.0
42
0.0
10
77.8737030029297
20
72.6741027832031
40
0.0
41
0.0
42
0.0
10
77.8358001708984
20
72.6740036010742
40
0.0
41
0.0
42
0.0
10
77.4838027954102
20
72.6440963745117
40
0.0
41
0.0
42
0.0
10
77.4172973632812
20
72.6240997314453
40
0.0
41
0.0
42
0.0
10
77.2153015136719
20
72.506103515625
40
0.0
41
0.0
42
0.0
10
77.1147003173828
20
72.1580963134766
40
0.0
41
0.0
42
0.0
10
77.0790023803711
20
72.0173034667969
40
0.0
41
0.0
42
0.0
10
77.0789031982422
20
71.9804000854492
40
0.0
41
0.0
42
0.0
10
77.0839004516602
20
71.863899230957
40
0.0
41
0.0
42
0.0
10
77.0413970947266
20
71.5186996459961
40
0.0
41
0.0
42
0.0
10
77.0412979125977
20
71.4815979003906
40
0.0
41
0.0
42
0.0
10
77.0606994628906
20
71.361701965332
40
0.0
41
0.0
42
0.0
10
77.0175018310547
20
71.0186004638672
40
0.0
41
0.0
42
0.0
10
77.0174026489258
20
70.9854965209961
40
0.0
41
0.0
42
0.0
10
77.0388031005859
20
70.9480972290039
40
0.0
41
0.0
42
0.0
10
77.1038970947266
20
70.4906005859375
40
0.0
41
0.0
42
0.0
10
77.4921035766602
20
70.1501007080078
40
0.0
41
0.0
42
0.0
10
77.7591018676758
20
69.9988021850586
40
0.0
41
0.0
42
0.0
10
77.9877014160156
20
69.9011001586914
40
0.0
41
0.0
42
0.0
10
78.2165985107422
20
69.8167037963867
40
0.0
41
0.0
42
0.0
10
78.4843978881836
20
69.722900390625
40
0.0
41
0.0
42
0.0
10
78.5419006347656
20
69.717903137207
40
0.0
41
0.0
42
0.0
10
78.6302032470703
20
69.7044982910156
40
0.0
41
0.0
42
0.0
10
78.8322982788086
20
69.6305999755859
40
0.0
41
0.0
42
0.0
10
78.986198425293
20
69.5295028686523
40
0.0
41
0.0
42
0.0
10
79.0329971313477
20
69.5297012329102
40
0.0
41
0.0
42
0.0
10
79.0533981323242
20
69.4848022460938
40
0.0
41
0.0
42
0.0
10
79.0549011230469
20
69.4324035644531
40
0.0
41
0.0
42
0.0
10
79.3529968261719
20
68.996696472168
40
0.0
41
0.0
42
0.0
10
79.3085021972656
20
68.8712997436523
40
0.0
41
0.0
42
0.0
10
79.3056030273438
20
68.5167999267578
40
0.0
41
0.0
42
0.0
10
79.1985015869141
20
68.1579971313477
40
0.0
41
0.0
42
0.0
10
79.1387023925781
20
68.0113983154297
40
0.0
41
0.0
42
0.0
10
79.0660018920898
20
67.8620986938477
40
0.0
41
0.0
42
0.0
10
78.9983978271484
20
67.7282028198242
40
0.0
41
0.0
42
0.0
10
78.8707962036133
20
67.5086975097656
40
0.0
41
0.0
42
0.0
10
78.7696990966797
20
67.3622970581055
40
0.0
41
0.0
42
0.0
10
78.5338973999023
20
67.0706024169922
40
0.0
41
0.0
42
0.0
10
78.4940032958984
20
67.0272979736328
40
0.0
41
0.0
42
0.0
10
78.260498046875
20
66.8573989868164
40
0.0
41
0.0
42
0.0
10
77.9871978759766
20
66.6903991699219
40
0.0
41
0.0
42
0.0
10
77.5014038085938
20
66.6242980957031
40
0.0
41
0.0
42
0.0
10
77.216796875
20
66.6705017089844
40
0.0
41
0.0
42
0.0
10
77.0151977539062
20
66.6986999511719
40
0.0
41
0.0
42
0.0
10
76.8678970336914
20
66.7470016479492
40
0.0
41
0.0
42
0.0
10
76.5117034912109
20
66.8818969726562
40
0.0
41
0.0
42
0.0
10
76.3656005859375
20
66.9509963989258
40
0.0
41
0.0
42
0.0
10
76.265998840332
20
67.0018005371094
40
0.0
41
0.0
42
0.0
10
76.007698059082
20
67.1811981201172
40
0.0
41
0.0
42
0.0
10
75.6414031982422
20
67.4530029296875
40
0.0
41
0.0
42
0.0
10
75.5724029541016
20
67.5071029663086
40
0.0
41
0.0
42
0.0
10
75.5003967285156
20
67.7113037109375
40
0.0
41
0.0
42
0.0
10
75.407600402832
20
67.9162979125977
40
0.0
41
0.0
42
0.0
10
75.3546981811523
20
68.0010986328125
40
0.0
41
0.0
42
0.0
10
75.5005035400391
20
68.2954025268555
40
0.0
41
0.0
42
0.0
10
75.5671997070312
20
68.488899230957
40
0.0
41
0.0
42
0.0
10
75.8676986694336
20
68.9903030395508
40
0.0
41
0.0
42
0.0
10
76.0014038085938
20
69.2462005615234
40
0.0
41
0.0
42
0.0
10
76.1345977783203
20
69.4885025024414
40
0.0
41
0.0
42
0.0
10
76.2039031982422
20
69.690299987793
40
0.0
41
0.0
42
0.0
10
76.2865982055664
20
69.9829025268555
40
0.0
41
0.0
42
0.0
10
76.2865982055664
20
70.0168991088867
40
0.0
41
0.0
42
0.0
10
76.1949996948242
20
70.3197021484375
40
0.0
41
0.0
42
0.0
10
76.1672973632812
20
70.5075988769531
40
0.0
41
0.0
42
0.0
10
76.0048980712891
20
70.6167984008789
40
0.0
41
0.0
42
0.0
10
75.8300018310547
20
70.8699035644531
40
0.0
41
0.0
42
0.0
10
75.7182006835938
20
71.004997253418
40
0.0
41
0.0
42
0.0
10
75.5065002441406
20
71.1810989379883
40
0.0
41
0.0
42
0.0
10
75.2878036499023
20
71.3602981567383
40
0.0
41
0.0
42
0.0
10
75.1771011352539
20
71.5090026855469
40
0.0
41
0.0
42
0.0
10
75.159797668457
20
71.5448989868164
40
0.0
41
0.0
42
0.0
10
75.0115966796875
20
71.685302734375
40
0.0
41
0.0
42
0.0
10
74.9817962646484
20
71.6852035522461
40
0.0
41
0.0
42
0.0
10
74.8396987915039
20
71.6595993041992
40
0.0
41
0.0
42
0.0
10
74.4931030273438
20
71.5621032714844
40
0.0
41
0.0
42
0.0
10
74.4879989624023
20
71.5546035766602
40
0.0
41
0.0
42
0.0
10
74.4309005737305
20
71.5048980712891
40
0.0
41
0.0
42
0.0
10
74.3006973266602
20
71.3598022460938
40
0.0
41
0.0
42
0.0
10
73.9996032714844
20
71.1092987060547
40
0.0
41
0.0
42
0.0
10
73.8179016113281
20
71.0042037963867
40
0.0
41
0.0
42
0.0
10
73.7211990356445
20
70.8622970581055
40
0.0
41
0.0
42
0.0
10
73.5916976928711
20
70.7070007324219
40
0.0
41
0.0
42
0.0
10
73.4931030273438
20
70.6033020019531
40
0.0
41
0.0
42
0.0
10
73.3311996459961
20
70.5078964233398
40
0.0
41
0.0
42
0.0
10
73.3311004638672
20
70.480598449707
40
0.0
41
0.0
42
0.0
10
73.3410034179688
20
70.3096008300781
40
0.0
41
0.0
42
0.0
10
73.2646026611328
20
70.0171966552734
40
0.0
41
0.0
42
0.0
10
73.2646026611328
20
69.9835968017578
40
0.0
41
0.0
42
0.0
10
73.3735961914062
20
69.6857986450195
40
0.0
41
0.0
42
0.0
10
73.4200973510742
20
69.4869995117188
40
0.0
41
0.0
42
0.0
10
73.4989013671875
20
69.3235015869141
40
0.0
41
0.0
42
0.0
10
73.5843963623047
20
69.1336975097656
40
0.0
41
0.0
42
0.0
10
73.8330993652344
20
68.6097030639648
40
0.0
41
0.0
42
0.0
10
73.8954010009766
20
68.4869003295898
40
0.0
41
0.0
42
0.0
10
73.9937973022461
20
68.0058975219727
40
0.0
41
0.0
42
0.0
10
73.6828994750977
20
67.5046005249023
40
0.0
41
0.0
42
0.0
10
73.6346969604492
20
67.4754028320312
40
0.0
41
0.0
42
0.0
10
73.3444976806641
20
67.345703125
40
0.0
41
0.0
42
0.0
10
72.9888000488281
20
67.1427993774414
40
0.0
41
0.0
42
0.0
10
72.5947036743164
20
66.9994964599609
40
0.0
41
0.0
42
0.0
10
72.4856033325195
20
66.9627990722656
40
0.0
41
0.0
42
0.0
10
72.3386993408203
20
66.9303970336914
40
0.0
41
0.0
42
0.0
10
71.9820022583008
20
66.8781967163086
40
0.0
41
0.0
42
0.0
10
71.8631973266602
20
66.872200012207
40
0.0
41
0.0
42
0.0
10
71.5155029296875
20
66.9205017089844
40
0.0
41
0.0
42
0.0
10
71.3672027587891
20
66.964599609375
40
0.0
41
0.0
42
0.0
10
71.3581008911133
20
66.9692001342773
40
0.0
41
0.0
42
0.0
10
71.3153991699219
20
67.0022964477539
40
0.0
41
0.0
42
0.0
10
71.0068969726562
20
67.1745986938477
40
0.0
41
0.0
42
0.0
10
70.8280029296875
20
67.3600997924805
40
0.0
41
0.0
42
0.0
10
70.7027969360352
20
67.5074005126953
40
0.0
41
0.0
42
0.0
10
70.5018997192383
20
67.8233032226562
40
0.0
41
0.0
42
0.0
10
70.4781036376953
20
67.8648986816406
40
0.0
41
0.0
42
0.0
10
70.4026031494141
20
68.0115966796875
40
0.0
41
0.0
42
0.0
10
70.2781982421875
20
68.3676986694336
40
0.0
41
0.0
42
0.0
10
70.2219009399414
20
68.5146026611328
40
0.0
41
0.0
42
0.0
10
70.1707000732422
20
68.864501953125
40
0.0
41
0.0
42
0.0
10
70.1257019042969
20
69.0024032592773
40
0.0
41
0.0
42
0.0
10
70.1791000366211
20
69.2314987182617
40
0.0
41
0.0
42
0.0
10
70.1790008544922
20
69.2678985595703
40
0.0
41
0.0
42
0.0
10
70.1536026000977
20
69.4918975830078
40
0.0
41
0.0
42
0.0
10
70.2145004272461
20
69.5495986938477
40
0.0
41
0.0
42
0.0
10
70.5071029663086
20
69.8840026855469
40
0.0
41
0.0
42
0.0
10
70.6660003662109
20
69.9572982788086
40
0.0
41
0.0
42
0.0
10
70.8255004882812
20
70.0001983642578
40
0.0
41
0.0
42
0.0
10
71.0146026611328
20
70.0468978881836
40
0.0
41
0.0
42
0.0
10
71.3298034667969
20
70.1371002197266
40
0.0
41
0.0
42
0.0
10
71.401496887207
20
70.1551971435547
40
0.0
41
0.0
42
0.0
10
71.5145034790039
20
70.1801986694336
40
0.0
41
0.0
42
0.0
10
71.8414993286133
20
70.283203125
40
0.0
41
0.0
42
0.0
10
72.0111999511719
20
70.3616027832031
40
0.0
41
0.0
42
0.0
10
72.2177963256836
20
70.4546966552734
40
0.0
41
0.0
42
0.0
10
72.2688980102539
20
70.4953002929688
40
0.0
41
0.0
42
0.0
10
72.5024032592773
20
70.7567977905273
40
0.0
41
0.0
42
0.0
10
72.6134033203125
20
70.9848022460938
40
0.0
41
0.0
42
0.0
10
72.6132965087891
20
71.0186004638672
40
0.0
41
0.0
42
0.0
10
72.5932006835938
20
71.1781005859375
40
0.0
41
0.0
42
0.0
10
72.651496887207
20
71.4841003417969
40
0.0
41
0.0
42
0.0
10
72.681999206543
20
71.627197265625
40
0.0
41
0.0
42
0.0
10
72.6819000244141
20
71.6641998291016
40
0.0
41
0.0
42
0.0
10
72.6583023071289
20
71.9953994750977
40
0.0
41
0.0
42
0.0
10
72.6741027832031
20
72.1261978149414
40
0.0
41
0.0
42
0.0
10
72.6740036010742
20
72.1641006469727
40
0.0
41
0.0
42
0.0
10
72.6440963745117
20
72.515998840332
40
0.0
41
0.0
42
0.0
10
72.6240997314453
20
72.5826034545898
40
0.0
41
0.0
42
0.0
10
72.5062026977539
20
72.7839965820312
40
0.0
41
0.0
42
0.0
10
72.3694000244141
20
72.8188018798828
40
0.0
41
0.0
42
0.0
10
72.0169982910156
20
72.9208984375
40
0.0
41
0.0
42
0.0
10
71.9804000854492
20
72.9207992553711
40
0.0
41
0.0
42
0.0
10
71.863899230957
20
72.915901184082
40
0.0
41
0.0
42
0.0
10
71.5186996459961
20
72.9585037231445
40
0.0
41
0.0
42
0.0
10
71.4815979003906
20
72.9583969116211
40
0.0
41
0.0
42
0.0
10
71.361701965332
20
72.9390029907227
40
0.0
41
0.0
42
0.0
10
71.0186004638672
20
72.9823989868164
40
0.0
41
0.0
42
0.0
10
70.9854965209961
20
72.9822998046875
40
0.0
41
0.0
42
0.0
10
70.9480972290039
20
72.9608993530273
40
0.0
41
0.0
42
0.0
10
70.4906005859375
20
72.8960037231445
40
0.0
41
0.0
42
0.0
10
70.1501007080078
20
72.507698059082
40
0.0
41
0.0
42
0.0
10
69.9988021850586
20
72.2406997680664
40
0.0
41
0.0
42
0.0
10
69.9011993408203
20
72.0121994018555
40
0.0
41
0.0
42
0.0
10
69.8167037963867
20
71.7830963134766
40
0.0
41
0.0
42
0.0
10
69.7228012084961
20
71.5150985717773
40
0.0
41
0.0
42
0.0
10
69.7044982910156
20
71.3687973022461
40
0.0
41
0.0
42
0.0
10
69.5295028686523
20
71.0150985717773
40
0.0
41
0.0
42
0.0
10
69.5298004150391
20
70.9666976928711
40
0.0
41
0.0
42
0.0
10
69.4848022460938
20
70.9462966918945
40
0.0
41
0.0
42
0.0
10
69.4324035644531
20
70.9448013305664
40
0.0
41
0.0
42
0.0
10
68.996696472168
20
70.646598815918
40
0.0
41
0.0
42
0.0
10
68.8712005615234
20
70.6912994384766
40
0.0
41
0.0
42
0.0
10
68.5157012939453
20
70.6940994262695
40
0.0
41
0.0
42
0.0
10
68.3678970336914
20
70.7543029785156
40
0.0
41
0.0
42
0.0
10
68.0122985839844
20
70.8606033325195
40
0.0
41
0.0
42
0.0
10
67.8620986938477
20
70.9337005615234
40
0.0
41
0.0
42
0.0
10
67.7164001464844
20
71.0082015991211
40
0.0
41
0.0
42
0.0
10
67.5086975097656
20
71.1289978027344
40
0.0
41
0.0
42
0.0
10
67.3622970581055
20
71.2300033569336
40
0.0
41
0.0
42
0.0
10
67.0706024169922
20
71.4658966064453
40
0.0
41
0.0
42
0.0
10
67.0271987915039
20
71.5058975219727
40
0.0
41
0.0
42
0.0
10
66.8524017333984
20
71.7490997314453
40
0.0
41
0.0
42
0.0
10
66.690299987793
20
72.0127029418945
40
0.0
41
0.0
42
0.0
10
66.624397277832
20
72.4984970092773
40
0.0
41
0.0
42
0.0
10
66.6705017089844
20
72.7829971313477
40
0.0
41
0.0
42
0.0
210
0.0
220
0.0
230
1.0
0
LWPOLYLINE
5
26
330
1C
100
AcDbEntity
67
0
8
0
62
256
6
ByLayer
370
-1
48
1.0
60
0
100
AcDbPolyline
90
44
70
1
38
0.0
39
0.0
10
67.4080963134766
20
65.1045989990234
40
0.0
41
0.0
42
0.0
10
67.4310989379883
20
65.0009994506836
40
0.0
41
0.0
42
0.0
10
67.4589996337891
20
65.0009002685547
40
0.0
41
0.0
42
0.0
10
67.4589004516602
20
65.0177001953125
40
0.0
41
0.0
42
0.0
10
67.445198059082
20
65.0801010131836
40
0.0
41
0.0
42
0.0
10
67.4890975952148
20
65.4869003295898
40
0.0
41
0.0
42
0.0
10
67.5048980712891
20
65.5124969482422
40
0.0
41
0.0
42
0.0
10
67.5309982299805
20
65.5175018310547
40
0.0
41
0.0
42
0.0
10
68.0145034790039
20
65.7360992431641
40
0.0
41
0.0
42
0.0
10
68.3367004394531
20
65.7684020996094
40
0.0
41
0.0
42
0.0
10
68.480598449707
20
65.7633972167969
40
0.0
41
0.0
42
0.0
10
68.8171005249023
20
65.7556991577148
40
0.0
41
0.0
42
0.0
10
68.9816970825195
20
65.7434997558594
40
0.0
41
0.0
42
0.0
10
69.4823989868164
20
65.6970977783203
40
0.0
41
0.0
42
0.0
10
69.628303527832
20
65.6768035888672
40
0.0
41
0.0
42
0.0
10
69.9729995727539
20
65.6127014160156
40
0.0
41
0.0
42
0.0
10
70.1286010742188
20
65.567497253418
40
0.0
41
0.0
42
0.0
10
70.280403137207
20
65.4994964599609
40
0.0
41
0.0
42
0.0
10
70.4885025024414
20
65.4318008422852
40
0.0
41
0.0
42
0.0
10
70.9922027587891
20
65.1407012939453
40
0.0
41
0.0
42
0.0
10
71.0311965942383
20
65.1064987182617
40
0.0
41
0.0
42
0.0
10
71.1351013183594
20
65.0009994506836
40
0.0
41
0.0
42
0.0
10
71.171501159668
20
65.0009994506836
40
0.0
41
0.0
42
0.0
10
71.1714019775391
20
65.0112991333008
40
0.0
41
0.0
42
0.0
10
71.0382995605469
20
65.146598815918
40
0.0
41
0.0
42
0.0
10
71.0075988769531
20
65.1733016967773
40
0.0
41
0.0
42
0.0
10
70.5112991333008
20
65.4604034423828
40
0.0
41
0.0
42
0.0
10
70.3889999389648
20
65.5002975463867
40
0.0
41
0.0
42
0.0
10
70.1945037841797
20
65.5875015258789
40
0.0
41
0.0
42
0.0
10
70.0046005249023
20
65.6427993774414
40
0.0
41
0.0
42
0.0
10
69.7015991210938
20
65.6990966796875
40
0.0
41
0.0
42
0.0
10
69.5175018310547
20
65.7247009277344
40
0.0
41
0.0
42
0.0
10
69.0182037353516
20
65.7712020874023
40
0.0
41
0.0
42
0.0
10
68.8098983764648
20
65.7867965698242
40
0.0
41
0.0
42
0.0
10
68.5193023681641
20
65.7934036254883
40
0.0
41
0.0
42
0.0
10
68.2996978759766
20
65.8011016845703
40
0.0
41
0.0
42
0.0
10
68.261100769043
20
65.8011016845703
40
0.0
41
0.0
42
0.0
10
67.9854965209961
20
65.7733993530273
40
0.0
41
0.0
42
0.0
10
67.5734024047852
20
65.5869979858398
40
0.0
41
0.0
42
0.0
10
67.4869003295898
20
65.5736999511719
40
0.0
41
0.0
42
0.0
10
67.4850006103516
20
65.5727005004883
40
0.0
41
0.0
42
0.0
10
67.4483032226562
20
65.5130004882812
40
0.0
41
0.0
42
0.0
10
67.408203125
20
65.1411972045898
40
0.0
41
0.0
42
0.0
10
67.4080963134766
20
65.1045989990234
40
0.0
41
0.0
42
0.0
210
0.0
220
0.0
230
1.0
0
LWPOLYLINE
5
27
330
1C
100
AcDbEntity
67
0
8
0
62
256
6
ByLayer
370
-1
48
1.0
60
0
100
AcDbPolyline
90
34
70
1
38
0.0
39
0.0
10
68.4625015258789
20
84.9990005493164
40
0.0
41
0.0
42
0.0
10
68.4625015258789
20
84.9903030395508
40
0.0
41
0.0
42
0.0
10
68.4908981323242
20
84.9684982299805
40
0.0
41
0.0
42
0.0
10
68.5229034423828
20
84.9533004760742
40
0.0
41
0.0
42
0.0
10
68.984001159668
20
84.8184967041016
40
0.0
41
0.0
42
0.0
10
69.4813003540039
20
84.7667007446289
40
0.0
41
0.0
42
0.0
10
69.7957992553711
20
84.7599029541016
40
0.0
41
0.0
42
0.0
10
69.980598449707
20
84.7485961914062
40
0.0
41
0.0
42
0.0
10
70.0195007324219
20
84.7484970092773
40
0.0
41
0.0
42
0.0
10
70.315803527832
20
84.7614974975586
40
0.0
41
0.0
42
0.0
10
70.4804000854492
20
84.754997253418
40
0.0
41
0.0
42
0.0
10
70.5183029174805
20
84.7548980712891
40
0.0
41
0.0
42
0.0
10
70.8332977294922
20
84.8037033081055
40
0.0
41
0.0
42
0.0
10
71.0186004638672
20
84.8042984008789
40
0.0
41
0.0
42
0.0
10
71.1997985839844
20
84.8265991210938
40
0.0
41
0.0
42
0.0
10
71.5112991333008
20
84.9483032226562
40
0.0
41
0.0
42
0.0
10
71.5989990234375
20
84.9927978515625
40
0.0
41
0.0
42
0.0
10
71.5989990234375
20
84.9990005493164
40
0.0
41
0.0
42
0.0
10
71.5197982788086
20
84.9990005493164
40
0.0
41
0.0
42
0.0
10
71.4886016845703
20
84.9830017089844
40
0.0
41
0.0
42
0.0
10
71.1300964355469
20
84.8431015014648
40
0.0
41
0.0
42
0.0
10
70.9813003540039
20
84.8247985839844
40
0.0
41
0.0
42
0.0
10
70.8366012573242
20
84.8244018554688
40
0.0
41
0.0
42
0.0
10
70.4894027709961
20
84.7705001831055
40
0.0
41
0.0
42
0.0
10
70.3744964599609
20
84.7751007080078
40
0.0
41
0.0
42
0.0
10
70.3354034423828
20
84.7750015258789
40
0.0
41
0.0
42
0.0
10
70.0031967163086
20
84.7603988647461
40
0.0
41
0.0
42
0.0
10
69.8740997314453
20
84.7685012817383
40
0.0
41
0.0
42
0.0
10
69.5186004638672
20
84.7762985229492
40
0.0
41
0.0
42
0.0
10
69.0158996582031
20
84.8283004760742
40
0.0
41
0.0
42
0.0
10
68.5523986816406
20
84.9638977050781
40
0.0
41
0.0
42
0.0
10
68.508903503418
20
84.9845962524414
40
0.0
41
0.0
42
0.0
10
68.4903030395508
20
84.9990005493164
40
0.0
41
0.0
42
0.0
10
68.4625015258789
20
84.9990005493164
40
0.0
41
0.0
42
0.0
210
0.0
220
0.0
230
1.0
0
LWPOLYLINE
5
28
330
1C
100
AcDbEntity
67
0
8
0
62
256
6
ByLayer
370
-1
48
1.0
60
0
100
AcDbPolyline
90
149
70
1
38
0.0
39
0.0
10
73.3030014038086
20
74.92919921875
40
0.0
41
0.0
42
0.0
10
73.4901962280273
20
74.869499206543
40
0.0
41
0.0
42
0.0
10
73.8060989379883
20
74.6071014404297
40
0.0
41
0.0
42
0.0
10
73.8394012451172
20
74.5923004150391
40
0.0
41
0.0
42
0.0
10
73.871696472168
20
74.5922012329102
40
0.0
41
0.0
42
0.0
10
74.0113983154297
20
74.6367034912109
40
0.0
41
0.0
42
0.0
10
74.0444030761719
20
74.6556015014648
40
0.0
41
0.0
42
0.0
10
74.231201171875
20
74.4955978393555
40
0.0
41
0.0
42
0.0
10
74.2134017944336
20
74.4606018066406
40
0.0
41
0.0
42
0.0
10
73.844596862793
20
74.3271026611328
40
0.0
41
0.0
42
0.0
10
73.8109970092773
20
74.3042984008789
40
0.0
41
0.0
42
0.0
10
73.7838973999023
20
74.2531967163086
40
0.0
41
0.0
42
0.0
10
73.6975021362305
20
74.0164031982422
40
0.0
41
0.0
42
0.0
10
73.7015991210938
20
73.7920989990234
40
0.0
41
0.0
42
0.0
10
73.7158966064453
20
73.7919998168945
40
0.0
41
0.0
42
0.0
10
73.9008026123047
20
73.885498046875
40
0.0
41
0.0
42
0.0
10
73.9868011474609
20
73.8219985961914
40
0.0
41
0.0
42
0.0
10
74.0092010498047
20
73.8220977783203
40
0.0
41
0.0
42
0.0
10
74.0817031860352
20
73.9218978881836
40
0.0
41
0.0
42
0.0
10
74.2637023925781
20
73.9964981079102
40
0.0
41
0.0
42
0.0
10
74.3795013427734
20
74.2134017944336
40
0.0
41
0.0
42
0.0
10
74.5110015869141
20
74.2939987182617
40
0.0
41
0.0
42
0.0
10
74.8503036499023
20
74.4067993164062
40
0.0
41
0.0
42
0.0
10
74.8613967895508
20
74.3906021118164
40
0.0
41
0.0
42
0.0
10
74.6277008056641
20
74.1089019775391
40
0.0
41
0.0
42
0.0
10
74.627799987793
20
74.0832977294922
40
0.0
41
0.0
42
0.0
10
74.6955032348633
20
73.9919967651367
40
0.0
41
0.0
42
0.0
10
74.9140014648438
20
73.6616973876953
40
0.0
41
0.0
42
0.0
10
74.8338012695312
20
73.5146026611328
40
0.0
41
0.0
42
0.0
10
74.8339004516602
20
73.4832992553711
40
0.0
41
0.0
42
0.0
10
74.8904037475586
20
73.3066024780273
40
0.0
41
0.0
42
0.0
10
74.96240234375
20
73.2401962280273
40
0.0
41
0.0
42
0.0
10
74.9917984008789
20
73.1920013427734
40
0.0
41
0.0
42
0.0
10
75.0083999633789
20
73.1920013427734
40
0.0
41
0.0
42
0.0
10
75.0352020263672
20
73.2341003417969
40
0.0
41
0.0
42
0.0
10
75.0705032348633
20
73.3030014038086
40
0.0
41
0.0
42
0.0
10
75.1280975341797
20
73.4832000732422
40
0.0
41
0.0
42
0.0
10
75.1279983520508
20
73.5167007446289
40
0.0
41
0.0
42
0.0
10
75.0843963623047
20
73.6539993286133
40
0.0
41
0.0
42
0.0
10
75.3656997680664
20
73.9926986694336
40
0.0
41
0.0
42
0.0
10
75.3804016113281
20
74.013801574707
40
0.0
41
0.0
42
0.0
10
75.3804016113281
20
74.0402984619141
40
0.0
41
0.0
42
0.0
10
75.1396026611328
20
74.3648986816406
40
0.0
41
0.0
42
0.0
10
75.1522979736328
20
74.381103515625
40
0.0
41
0.0
42
0.0
10
75.4888000488281
20
74.2390975952148
40
0.0
41
0.0
42
0.0
10
75.5391006469727
20
74.2133026123047
40
0.0
41
0.0
42
0.0
10
75.6725997924805
20
73.844596862793
40
0.0
41
0.0
42
0.0
10
75.6953964233398
20
73.8109970092773
40
0.0
41
0.0
42
0.0
10
75.7465972900391
20
73.7837982177734
40
0.0
41
0.0
42
0.0
10
75.9834976196289
20
73.6975021362305
40
0.0
41
0.0
42
0.0
10
76.2078018188477
20
73.7015991210938
40
0.0
41
0.0
42
0.0
10
76.2077026367188
20
73.7158966064453
40
0.0
41
0.0
42
0.0
10
76.1141967773438
20
73.9008026123047
40
0.0
41
0.0
42
0.0
10
76.1778030395508
20
73.9869003295898
40
0.0
41
0.0
42
0.0
10
76.1775970458984
20
74.0092010498047
40
0.0
41
0.0
42
0.0
10
76.0777969360352
20
74.0815963745117
40
0.0
41
0.0
42
0.0
10
76.003303527832
20
74.2636032104492
40
0.0
41
0.0
42
0.0
10
75.7864990234375
20
74.3795013427734
40
0.0
41
0.0
42
0.0
10
75.7137985229492
20
74.497802734375
40
0.0
41
0.0
42
0.0
10
75.7881011962891
20
74.5528030395508
40
0.0
41
0.0
42
0.0
10
75.9571990966797
20
74.709602355957
40
0.0
41
0.0
42
0.0
10
75.9839019775391
20
74.6993026733398
40
0.0
41
0.0
42
0.0
10
76.0137023925781
20
74.6994018554688
40
0.0
41
0.0
42
0.0
10
76.3382034301758
20
74.9140014648438
40
0.0
41
0.0
42
0.0
10
76.4852981567383
20
74.8338012695312
40
0.0
41
0.0
42
0.0
10
76.5166015625
20
74.8339996337891
40
0.0
41
0.0
42
0.0
10
76.6932983398438
20
74.8905029296875
40
0.0
41
0.0
42
0.0
10
76.7595977783203
20
74.9625015258789
40
0.0
41
0.0
42
0.0
10
76.8078994750977
20
74.9917984008789
40
0.0
41
0.0
42
0.0
10
76.8078002929688
20
75.0083999633789
40
0.0
41
0.0
42
0.0
10
76.7657012939453
20
75.0352020263672
40
0.0
41
0.0
42
0.0
10
76.6968994140625
20
75.0705032348633
40
0.0
41
0.0
42
0.0
10
76.5167007446289
20
75.1280975341797
40
0.0
41
0.0
42
0.0
10
76.4832000732422
20
75.1279983520508
40
0.0
41
0.0
42
0.0
10
76.3458023071289
20
75.0843963623047
40
0.0
41
0.0
42
0.0
10
76.0072021484375
20
75.3656997680664
40
0.0
41
0.0
42
0.0
10
75.9860000610352
20
75.3804016113281
40
0.0
41
0.0
42
0.0
10
75.9595031738281
20
75.3804016113281
40
0.0
41
0.0
42
0.0
10
75.6351013183594
20
75.1396026611328
40
0.0
41
0.0
42
0.0
10
75.6187973022461
20
75.1522979736328
40
0.0
41
0.0
42
0.0
10
75.7605972290039
20
75.4888000488281
40
0.0
41
0.0
42
0.0
10
75.7863998413086
20
75.5391998291016
40
0.0
41
0.0
42
0.0
10
76.1552963256836
20
75.6726989746094
40
0.0
41
0.0
42
0.0
10
76.1887969970703
20
75.6955032348633
40
0.0
41
0.0
42
0.0
10
76.2158966064453
20
75.7465972900391
40
0.0
41
0.0
42
0.0
10
76.3022994995117
20
75.9837036132812
40
0.0
41
0.0
42
0.0
10
76.3022003173828
20
76.0093002319336
40
0.0
41
0.0
42
0.0
10
76.2170028686523
20
76.0720977783203
40
0.0
41
0.0
42
0.0
10
76.1615982055664
20
76.2558975219727
40
0.0
41
0.0
42
0.0
10
76.1421966552734
20
76.2557983398438
40
0.0
41
0.0
42
0.0
10
75.993896484375
20
76.1822967529297
40
0.0
41
0.0
42
0.0
10
75.9181976318359
20
76.0777969360352
40
0.0
41
0.0
42
0.0
10
75.7360992431641
20
76.0034027099609
40
0.0
41
0.0
42
0.0
10
75.6203002929688
20
75.7864990234375
40
0.0
41
0.0
42
0.0
10
75.488899230957
20
75.7057037353516
40
0.0
41
0.0
42
0.0
10
75.1495971679688
20
75.5931015014648
40
0.0
41
0.0
42
0.0
10
75.1384963989258
20
75.6092987060547
40
0.0
41
0.0
42
0.0
10
75.3720016479492
20
75.890998840332
40
0.0
41
0.0
42
0.0
10
75.3719024658203
20
75.9164962768555
40
0.0
41
0.0
42
0.0
10
75.3090972900391
20
76.0012969970703
40
0.0
41
0.0
42
0.0
10
75.3794021606445
20
76.1303024291992
40
0.0
41
0.0
42
0.0
10
75.3793029785156
20
76.1635971069336
40
0.0
41
0.0
42
0.0
10
75.375
20
76.1974029541016
40
0.0
41
0.0
42
0.0
10
75.1676025390625
20
76.5106964111328
40
0.0
41
0.0
42
0.0
10
75.1092987060547
20
76.6931991577148
40
0.0
41
0.0
42
0.0
10
75.0373001098633
20
76.7595977783203
40
0.0
41
0.0
42
0.0
10
75.0081024169922
20
76.8078994750977
40
0.0
41
0.0
42
0.0
10
74.9915008544922
20
76.8078994750977
40
0.0
41
0.0
42
0.0
10
74.964599609375
20
76.7657012939453
40
0.0
41
0.0
42
0.0
10
74.92919921875
20
76.6968994140625
40
0.0
41
0.0
42
0.0
10
74.869499206543
20
76.5096969604492
40
0.0
41
0.0
42
0.0
10
74.6071014404297
20
76.1938018798828
40
0.0
41
0.0
42
0.0
10
74.5922012329102
20
76.1604995727539
40
0.0
41
0.0
42
0.0
10
74.5923004150391
20
76.1281967163086
40
0.0
41
0.0
42
0.0
10
74.6318969726562
20
76.0038986206055
40
0.0
41
0.0
42
0.0
10
74.6193008422852
20
75.9860000610352
40
0.0
41
0.0
42
0.0
10
74.6193008422852
20
75.9593963623047
40
0.0
41
0.0
42
0.0
10
74.8602981567383
20
75.6351013183594
40
0.0
41
0.0
42
0.0
10
74.8476028442383
20
75.6187973022461
40
0.0
41
0.0
42
0.0
10
74.5110015869141
20
75.7605972290039
40
0.0
41
0.0
42
0.0
10
74.4606018066406
20
75.7863998413086
40
0.0
41
0.0
42
0.0
10
74.3270034790039
20
76.1552963256836
40
0.0
41
0.0
42
0.0
10
74.3042984008789
20
76.1887969970703
40
0.0
41
0.0
42
0.0
10
74.2531967163086
20
76.2158966064453
40
0.0
41
0.0
42
0.0
10
74.0164031982422
20
76.3022003173828
40
0.0
41
0.0
42
0.0
10
73.7920989990234
20
76.2982025146484
40
0.0
41
0.0
42
0.0
10
73.7919998168945
20
76.2837982177734
40
0.0
41
0.0
42
0.0
10
73.8855972290039
20
76.0990982055664
40
0.0
41
0.0
42
0.0
10
73.8219985961914
20
76.0130996704102
40
0.0
41
0.0
42
0.0
10
73.8219985961914
20
75.9906005859375
40
0.0
41
0.0
42
0.0
10
73.9218978881836
20
75.918098449707
40
0.0
41
0.0
42
0.0
10
73.9964981079102
20
75.7360992431641
40
0.0
41
0.0
42
0.0
10
74.2133026123047
20
75.6202011108398
40
0.0
41
0.0
42
0.0
10
74.2939987182617
20
75.488899230957
40
0.0
41
0.0
42
0.0
10
74.4067993164062
20
75.1495971679688
40
0.0
41
0.0
42
0.0
10
74.3906021118164
20
75.1384963989258
40
0.0
41
0.0
42
0.0
10
74.1089019775391
20
75.3720016479492
40
0.0
41
0.0
42
0.0
10
74.0832977294922
20
75.3719024658203
40
0.0
41
0.0
42
0.0
10
73.9985961914062
20
75.3089981079102
40
0.0
41
0.0
42
0.0
10
73.8695983886719
20
75.3794021606445
40
0.0
41
0.0
42
0.0
10
73.8363037109375
20
75.3793029785156
40
0.0
41
0.0
42
0.0
10
73.8024978637695
20
75.375
40
0.0
41
0.0
42
0.0
10
73.4891967773438
20
75.1676025390625
40
0.0
41
0.0
42
0.0
10
73.3066024780273
20
75.1092987060547
40
0.0
41
0.0
42
0.0
10
73.2401962280273
20
75.0373001098633
40
0.0
41
0.0
42
0.0
10
73.1920013427734
20
75.0081024169922
40
0.0
41
0.0
42
0.0
10
73.1919021606445
20
74.9914016723633
40
0.0
41
0.0
42
0.0
10
73.2341003417969
20
74.9645004272461
40
0.0
41
0.0
42
0.0
10
73.3030014038086
20
74.92919921875
40
0.0
41
0.0
42
0.0
210
0.0
220
0.0
230
1.0
0
LWPOLYLINE
5
29
330
1C
100
AcDbEntity
67
0
8
0
62
256
6
ByLayer
370
-1
48
1.0
60
0
100
AcDbPolyline
90
35
70
1
38
0.0
39
0.0
10
73.3079986572266
20
75.0376968383789
40
0.0
41
0.0
42
0.0
10
73.3632965087891
20
75.0976028442383
40
0.0
41
0.0
42
0.0
10
73.5108032226562
20
75.1447982788086
40
0.0
41
0.0
42
0.0
10
73.8335037231445
20
75.3581008911133
40
0.0
41
0.0
42
0.0
10
73.9852981567383
20
75.2754974365234
40
0.0
41
0.0
42
0.0
10
74.0130004882812
20
75.2753982543945
40
0.0
41
0.0
42
0.0
10
74.0849990844727
20
75.3287963867188
40
0.0
41
0.0
42
0.0
10
74.4925994873047
20
74.992301940918
40
0.0
41
0.0
42
0.0
10
74.4987030029297
20
74.9748001098633
40
0.0
41
0.0
42
0.0
10
74.9730987548828
20
74.5007019042969
40
0.0
41
0.0
42
0.0
10
74.488899230957
20
74.3395004272461
40
0.0
41
0.0
42
0.0
10
74.3979034423828
20
74.2837982177734
40
0.0
41
0.0
42
0.0
10
74.2481002807617
20
74.0034027099609
40
0.0
41
0.0
42
0.0
10
74.0679016113281
20
73.9294967651367
40
0.0
41
0.0
42
0.0
10
74.0549011230469
20
73.9225997924805
40
0.0
41
0.0
42
0.0
10
73.9984970092773
20
73.8447036743164
40
0.0
41
0.0
42
0.0
10
73.9030990600586
20
73.9151992797852
40
0.0
41
0.0
42
0.0
10
73.8750991821289
20
73.9151000976562
40
0.0
41
0.0
42
0.0
10
73.7313003540039
20
73.8423004150391
40
0.0
41
0.0
42
0.0
10
73.7283020019531
20
73.9857025146484
40
0.0
41
0.0
42
0.0
10
73.8320007324219
20
74.2698974609375
40
0.0
41
0.0
42
0.0
10
73.8517990112305
20
74.3070983886719
40
0.0
41
0.0
42
0.0
10
74.2836990356445
20
74.4635009765625
40
0.0
41
0.0
42
0.0
10
74.2947006225586
20
74.4850006103516
40
0.0
41
0.0
42
0.0
10
74.2946014404297
20
74.508903503418
40
0.0
41
0.0
42
0.0
10
74.2856979370117
20
74.5150985717773
40
0.0
41
0.0
42
0.0
10
74.0709991455078
20
74.7006988525391
40
0.0
41
0.0
42
0.0
10
74.0444030761719
20
74.7006988525391
40
0.0
41
0.0
42
0.0
10
73.9885025024414
20
74.6686019897461
40
0.0
41
0.0
42
0.0
10
73.8326034545898
20
74.6190032958984
40
0.0
41
0.0
42
0.0
10
73.5095977783203
20
74.8872985839844
40
0.0
41
0.0
42
0.0
10
73.3667984008789
20
74.9328994750977
40
0.0
41
0.0
42
0.0
10
73.2436981201172
20
74.9979019165039
40
0.0
41
0.0
42
0.0
10
73.2436981201172
20
74.9985961914062
40
0.0
41
0.0
42
0.0
10
73.3079986572266
20
75.0376968383789
40
0.0
41
0.0
42
0.0
210
0.0
220
0.0
230
1.0
0
LWPOLYLINE
5
2A
330
1C
100
AcDbEntity
67
0
8
0
62
256
6
ByLayer
370
-1
48
1.0
60
0
100
AcDbPolyline
90
17
70
1
38
0.0
39
0.0
10
73.9856033325195
20
76.2714004516602
40
0.0
41
0.0
42
0.0
10
74.2698974609375
20
76.1678009033203
40
0.0
41
0.0
42
0.0
10
74.3070983886719
20
76.1481018066406
40
0.0
41
0.0
42
0.0
10
74.4634017944336
20
75.7160034179688
40
0.0
41
0.0
42
0.0
10
74.4888000488281
20
75.7030029296875
40
0.0
41
0.0
42
0.0
10
74.972900390625
20
75.4990997314453
40
0.0
41
0.0
42
0.0
10
74.5007019042969
20
75.0267028808594
40
0.0
41
0.0
42
0.0
10
74.3396987915039
20
75.5110015869141
40
0.0
41
0.0
42
0.0
10
74.2837982177734
20
75.6018981933594
40
0.0
41
0.0
42
0.0
10
74.003303527832
20
75.7516021728516
40
0.0
41
0.0
42
0.0
10
73.9294967651367
20
75.9319000244141
40
0.0
41
0.0
42
0.0
10
73.9225997924805
20
75.9449005126953
40
0.0
41
0.0
42
0.0
10
73.8448028564453
20
76.0014038085938
40
0.0
41
0.0
42
0.0
10
73.9151992797852
20
76.0967025756836
40
0.0
41
0.0
42
0.0
10
73.9151000976562
20
76.1247024536133
40
0.0
41
0.0
42
0.0
10
73.8424987792969
20
76.2684020996094
40
0.0
41
0.0
42
0.0
10
73.9856033325195
20
76.2714004516602
40
0.0
41
0.0
42
0.0
210
0.0
220
0.0
230
1.0
0
LWPOLYLINE
5
2B
330
1C
100
AcDbEntity
67
0
8
0
62
256
6
ByLayer
370
-1
48
1.0
60
0
100
AcDbPolyline
90
5
70
1
38
0.0
39
0.0
10
75.0
20
74.5117034912109
40
0.0
41
0.0
42
0.0
10
74.5118026733398
20
75.0
40
0.0
41
0.0
42
0.0
10
75.0
20
75.4880981445312
40
0.0
41
0.0
42
0.0
10
75.4881973266602
20
75.0
40
0.0
41
0.0
42
0.0
10
75.0
20
74.5117034912109
40
0.0
41
0.0
42
0.0
210
0.0
220
0.0
230
1.0
0
LWPOLYLINE
5
2C
330
1C
100
AcDbEntity
67
0
8
0
62
256
6
ByLayer
370
-1
48
1.0
60
0
100
AcDbPolyline
90
17
70
1
38
0.0
39
0.0
10
74.9998016357422
20
75.5171966552734
40
0.0
41
0.0
42
0.0
10
74.6595993041992
20
75.9758987426758
40
0.0
41
0.0
42
0.0
10
74.6669998168945
20
75.9865036010742
40
0.0
41
0.0
42
0.0
10
74.6669006347656
20
76.0167007446289
40
0.0
41
0.0
42
0.0
10
74.6190032958984
20
76.1671981811523
40
0.0
41
0.0
42
0.0
10
74.8872985839844
20
76.4903030395508
40
0.0
41
0.0
42
0.0
10
74.9328994750977
20
76.6331024169922
40
0.0
41
0.0
42
0.0
10
74.9979019165039
20
76.7563018798828
40
0.0
41
0.0
42
0.0
10
74.9987030029297
20
76.7563018798828
40
0.0
41
0.0
42
0.0
10
75.03759765625
20
76.6917037963867
40
0.0
41
0.0
42
0.0
10
75.0975036621094
20
76.6365966796875
40
0.0
41
0.0
42
0.0
10
75.1445999145508
20
76.4891967773438
40
0.0
41
0.0
42
0.0
10
75.3581008911133
20
76.1663970947266
40
0.0
41
0.0
42
0.0
10
75.2754974365234
20
76.0146026611328
40
0.0
41
0.0
42
0.0
10
75.2753982543945
20
75.9869003295898
40
0.0
41
0.0
42
0.0
10
75.3289031982422
20
75.9147033691406
40
0.0
41
0.0
42
0.0
10
74.9998016357422
20
75.5171966552734
40
0.0
41
0.0
42
0.0
210
0.0
220
0.0
230
1.0
0
LWPOLYLINE
5
2D
330
1C
100
AcDbEntity
67
0
8
0
62
256
6
ByLayer
370
-1
48
1.0
60
0
100
AcDbPolyline
90
17
70
1
38
0.0
39
0.0
10
75.3410034179688
20
74.0226974487305
40
0.0
41
0.0
42
0.0
10
75.0707015991211
20
73.6968002319336
40
0.0
41
0.0
42
0.0
10
75.068603515625
20
73.6641998291016
40
0.0
41
0.0
42
0.0
10
75.0684967041016
20
73.6281967163086
40
0.0
41
0.0
42
0.0
10
75.1092987060547
20
73.4999008178711
40
0.0
41
0.0
42
0.0
10
75.0669021606445
20
73.3672027587891
40
0.0
41
0.0
42
0.0
10
75.0020980834961
20
73.2436981201172
40
0.0
41
0.0
42
0.0
10
75.0012969970703
20
73.2436981201172
40
0.0
41
0.0
42
0.0
10
74.9621963500977
20
73.3079986572266
40
0.0
41
0.0
42
0.0
10
74.9022979736328
20
73.3631973266602
40
0.0
41
0.0
42
0.0
10
74.8595962524414
20
73.4969024658203
40
0.0
41
0.0
42
0.0
10
74.9321975708008
20
73.6304016113281
40
0.0
41
0.0
42
0.0
10
74.9326019287109
20
73.6986999511719
40
0.0
41
0.0
42
0.0
10
74.7281036376953
20
74.0077972412109
40
0.0
41
0.0
42
0.0
10
74.6708984375
20
74.0850982666016
40
0.0
41
0.0
42
0.0
10
75.0
20
74.4823989868164
40
0.0
41
0.0
42
0.0
10
75.3410034179688
20
74.0226974487305
40
0.0
41
0.0
42
0.0
210
0.0
220
0.0
230
1.0
0
LWPOLYLINE
5
2E
330
1C
100
AcDbEntity
67
0
8
0
62
256
6
ByLayer
370
-1
48
1.0
60
0
100
AcDbPolyline
90
36
70
1
38
0.0
39
0.0
10
75.5015029907227
20
74.9753036499023
40
0.0
41
0.0
42
0.0
10
75.5071029663086
20
74.9927978515625
40
0.0
41
0.0
42
0.0
10
75.9770965576172
20
75.3410034179688
40
0.0
41
0.0
42
0.0
10
76.3031005859375
20
75.0707015991211
40
0.0
41
0.0
42
0.0
10
76.3357009887695
20
75.068603515625
40
0.0
41
0.0
42
0.0
10
76.371696472168
20
75.0684967041016
40
0.0
41
0.0
42
0.0
10
76.5
20
75.1092987060547
40
0.0
41
0.0
42
0.0
10
76.6330032348633
20
75.0667037963867
40
0.0
41
0.0
42
0.0
10
76.7563018798828
20
75.0020980834961
40
0.0
41
0.0
42
0.0
10
76.7563018798828
20
75.0012969970703
40
0.0
41
0.0
42
0.0
10
76.6918029785156
20
74.9621963500977
40
0.0
41
0.0
42
0.0
10
76.6367034912109
20
74.9022979736328
40
0.0
41
0.0
42
0.0
10
76.5029983520508
20
74.8594970703125
40
0.0
41
0.0
42
0.0
10
76.369499206543
20
74.9321975708008
40
0.0
41
0.0
42
0.0
10
76.3012008666992
20
74.9327011108398
40
0.0
41
0.0
42
0.0
10
75.9973983764648
20
74.7315979003906
40
0.0
41
0.0
42
0.0
10
75.9570007324219
20
74.7473983764648
40
0.0
41
0.0
42
0.0
10
75.92919921875
20
74.7473983764648
40
0.0
41
0.0
42
0.0
10
75.714599609375
20
74.5483016967773
40
0.0
41
0.0
42
0.0
10
75.6620025634766
20
74.5093994140625
40
0.0
41
0.0
42
0.0
10
75.6617965698242
20
74.4858016967773
40
0.0
41
0.0
42
0.0
10
75.7158966064453
20
74.3977966308594
40
0.0
41
0.0
42
0.0
10
75.9964981079102
20
74.2481002807617
40
0.0
41
0.0
42
0.0
10
76.070198059082
20
74.0679016113281
40
0.0
41
0.0
42
0.0
10
76.0772018432617
20
74.0549011230469
40
0.0
41
0.0
42
0.0
10
76.154899597168
20
73.9984970092773
40
0.0
41
0.0
42
0.0
10
76.0847015380859
20
73.9030990600586
40
0.0
41
0.0
42
0.0
10
76.084602355957
20
73.8750991821289
40
0.0
41
0.0
42
0.0
10
76.1575012207031
20
73.7313003540039
40
0.0
41
0.0
42
0.0
10
76.0141983032227
20
73.7283020019531
40
0.0
41
0.0
42
0.0
10
75.7298965454102
20
73.8320007324219
40
0.0
41
0.0
42
0.0
10
75.6925964355469
20
73.8517990112305
40
0.0
41
0.0
42
0.0
10
75.5363006591797
20
74.2836990356445
40
0.0
41
0.0
42
0.0
10
75.5110015869141
20
74.2966995239258
40
0.0
41
0.0
42
0.0
10
75.0269012451172
20
74.5008010864258
40
0.0
41
0.0
42
0.0
10
75.5015029907227
20
74.9753036499023
40
0.0
41
0.0
42
0.0
210
0.0
220
0.0
230
1.0
0
LWPOLYLINE
5
2F
330
1C
100
AcDbEntity
67
0
8
0
62
256
6
ByLayer
370
-1
48
1.0
60
0
100
AcDbPolyline
90
16
70
1
38
0.0
39
0.0
10
75.511100769043
20
75.6600036621094
40
0.0
41
0.0
42
0.0
10
75.6018981933594
20
75.7160034179688
40
0.0
41
0.0
42
0.0
10
75.7517013549805
20
75.9964981079102
40
0.0
41
0.0
42
0.0
10
75.9332962036133
20
76.07080078125
40
0.0
41
0.0
42
0.0
10
75.9448013305664
20
76.0772018432617
40
0.0
41
0.0
42
0.0
10
76.0058975219727
20
76.1613006591797
40
0.0
41
0.0
42
0.0
10
76.1213989257812
20
76.2185974121094
40
0.0
41
0.0
42
0.0
10
76.1666030883789
20
76.0682983398438
40
0.0
41
0.0
42
0.0
10
76.2647018432617
20
75.9960021972656
40
0.0
41
0.0
42
0.0
10
76.1679000854492
20
75.7298965454102
40
0.0
41
0.0
42
0.0
10
76.1481018066406
20
75.6925964355469
40
0.0
41
0.0
42
0.0
10
75.7160034179688
20
75.5363998413086
40
0.0
41
0.0
42
0.0
10
75.7031021118164
20
75.511100769043
40
0.0
41
0.0
42
0.0
10
75.4990997314453
20
75.0268020629883
40
0.0
41
0.0
42
0.0
10
75.0269012451172
20
75.4990997314453
40
0.0
41
0.0
42
0.0
10
75.511100769043
20
75.6600036621094
40
0.0
41
0.0
42
0.0
210
0.0
220
0.0
230
1.0
0
LWPOLYLINE
5
30
330
1C
100
AcDbEntity
67
0
8
0
62
256
6
ByLayer
370
-1
48
1.0
60
0
100
AcDbPolyline
90
32
70
1
38
0.0
39
0.0
10
78.4886016845703
20
65.0514984130859
40
0.0
41
0.0
42
0.0
10
78.4009017944336
20
65.0070037841797
40
0.0
41
0.0
42
0.0
10
78.4009017944336
20
65.0009994506836
40
0.0
41
0.0
42
0.0
10
78.4800033569336
20
65.0009002685547
40
0.0
41
0.0
42
0.0
10
78.5113983154297
20
65.0167999267578
40
0.0
41
0.0
42
0.0
10
78.8697967529297
20
65.1566009521484
40
0.0
41
0.0
42
0.0
10
79.0170974731445
20
65.1747970581055
40
0.0
41
0.0
42
0.0
10
79.3732986450195
20
65.2300033569336
40
0.0
41
0.0
42
0.0
10
79.5195007324219
20
65.2304992675781
40
0.0
41
0.0
42
0.0
10
79.8557968139648
20
65.2453002929688
40
0.0
41
0.0
42
0.0
10
79.980598449707
20
65.2401962280273
40
0.0
41
0.0
42
0.0
10
80.3358001708984
20
65.2324981689453
40
0.0
41
0.0
42
0.0
10
80.4816970825195
20
65.2233963012695
40
0.0
41
0.0
42
0.0
10
80.984001159668
20
65.1714019775391
40
0.0
41
0.0
42
0.0
10
81.4473037719727
20
65.0356979370117
40
0.0
41
0.0
42
0.0
10
81.4908981323242
20
65.0150985717773
40
0.0
41
0.0
42
0.0
10
81.5094985961914
20
65.0009994506836
40
0.0
41
0.0
42
0.0
10
81.5373001098633
20
65.0009994506836
40
0.0
41
0.0
42
0.0
10
81.5372009277344
20
65.0095977783203
40
0.0
41
0.0
42
0.0
10
81.508903503418
20
65.0311965942383
40
0.0
41
0.0
42
0.0
10
81.4767990112305
20
65.0464019775391
40
0.0
41
0.0
42
0.0
10
81.0158996582031
20
65.1810989379883
40
0.0
41
0.0
42
0.0
10
80.5182037353516
20
65.2330017089844
40
0.0
41
0.0
42
0.0
10
80.334098815918
20
65.244499206543
40
0.0
41
0.0
42
0.0
10
80.0193023681641
20
65.2511978149414
40
0.0
41
0.0
42
0.0
10
79.8345031738281
20
65.2586975097656
40
0.0
41
0.0
42
0.0
10
79.7954025268555
20
65.2585983276367
40
0.0
41
0.0
42
0.0
10
79.4804000854492
20
65.2449035644531
40
0.0
41
0.0
42
0.0
10
79.2966003417969
20
65.2444000244141
40
0.0
41
0.0
42
0.0
10
78.9829025268555
20
65.1956024169922
40
0.0
41
0.0
42
0.0
10
78.8001022338867
20
65.1731033325195
40
0.0
41
0.0
42
0.0
10
78.4886016845703
20
65.0514984130859
40
0.0
41
0.0
42
0.0
210
0.0
220
0.0
230
1.0
0
LWPOLYLINE
5
31
330
1C
100
AcDbEntity
67
0
8
0
62
256
6
ByLayer
370
-1
48
1.0
60
0
100
AcDbPolyline
90
44
70
1
38
0.0
39
0.0
10
78.8647003173828
20
84.9990005493164
40
0.0
41
0.0
42
0.0
10
78.8283004760742
20
84.9990005493164
40
0.0
41
0.0
42
0.0
10
78.8283004760742
20
84.9885025024414
40
0.0
41
0.0
42
0.0
10
78.9614028930664
20
84.8531036376953
40
0.0
41
0.0
42
0.0
10
78.9922027587891
20
84.8264007568359
40
0.0
41
0.0
42
0.0
10
79.4885025024414
20
84.5391998291016
40
0.0
41
0.0
42
0.0
10
79.6108016967773
20
84.4994964599609
40
0.0
41
0.0
42
0.0
10
79.8052978515625
20
84.4122009277344
40
0.0
41
0.0
42
0.0
10
79.9952011108398
20
84.3569030761719
40
0.0
41
0.0
42
0.0
10
80.2983016967773
20
84.3005981445312
40
0.0
41
0.0
42
0.0
10
80.4823989868164
20
84.2750015258789
40
0.0
41
0.0
42
0.0
10
80.9816970825195
20
84.2285003662109
40
0.0
41
0.0
42
0.0
10
81.1899032592773
20
84.2129974365234
40
0.0
41
0.0
42
0.0
10
81.480598449707
20
84.206298828125
40
0.0
41
0.0
42
0.0
10
81.7001037597656
20
84.1987991333008
40
0.0
41
0.0
42
0.0
10
81.7387008666992
20
84.1986999511719
40
0.0
41
0.0
42
0.0
10
82.0143966674805
20
84.2264022827148
40
0.0
41
0.0
42
0.0
10
82.426399230957
20
84.4126968383789
40
0.0
41
0.0
42
0.0
10
82.5130004882812
20
84.4261016845703
40
0.0
41
0.0
42
0.0
10
82.5147018432617
20
84.4271011352539
40
0.0
41
0.0
42
0.0
10
82.551399230957
20
84.4869003295898
40
0.0
41
0.0
42
0.0
10
82.5916976928711
20
84.8585968017578
40
0.0
41
0.0
42
0.0
10
82.5914993286133
20
84.8951034545898
40
0.0
41
0.0
42
0.0
10
82.5687026977539
20
84.9990005493164
40
0.0
41
0.0
42
0.0
10
82.5407028198242
20
84.9990005493164
40
0.0
41
0.0
42
0.0
10
82.5407028198242
20
84.9822006225586
40
0.0
41
0.0
42
0.0
10
82.5544967651367
20
84.9197006225586
40
0.0
41
0.0
42
0.0
10
82.5105972290039
20
84.5130004882812
40
0.0
41
0.0
42
0.0
10
82.495002746582
20
84.4872970581055
40
0.0
41
0.0
42
0.0
10
82.4689025878906
20
84.4822998046875
40
0.0
41
0.0
42
0.0
10
81.9854965209961
20
84.2636032104492
40
0.0
41
0.0
42
0.0
10
81.663200378418
20
84.2313003540039
40
0.0
41
0.0
42
0.0
10
81.5193023681641
20
84.2362976074219
40
0.0
41
0.0
42
0.0
10
81.1827011108398
20
84.2440032958984
40
0.0
41
0.0
42
0.0
10
81.0182037353516
20
84.2562026977539
40
0.0
41
0.0
42
0.0
10
80.5175018310547
20
84.3025970458984
40
0.0
41
0.0
42
0.0
10
80.3715972900391
20
84.3228988647461
40
0.0
41
0.0
42
0.0
10
80.0268020629883
20
84.3870010375977
40
0.0
41
0.0
42
0.0
10
79.8712005615234
20
84.4321975708008
40
0.0
41
0.0
42
0.0
10
79.7193984985352
20
84.5002975463867
40
0.0
41
0.0
42
0.0
10
79.5112991333008
20
84.5679016113281
40
0.0
41
0.0
42
0.0
10
79.0075988769531
20
84.8591003417969
40
0.0
41
0.0
42
0.0
10
78.9684982299805
20
84.8933029174805
40
0.0
41
0.0
42
0.0
10
78.8647003173828
20
84.9990005493164
40
0.0
41
0.0
42
0.0
210
0.0
220
0.0
230
1.0
0
LWPOLYLINE
5
32
330
1C
100
AcDbEntity
67
0
8
0
62
256
6
ByLayer
370
-1
48
1.0
60
0
100
AcDbPolyline
90
44
70
1
38
0.0
39
0.0
10
84.4869003295898
20
67.4483032226562
40
0.0
41
0.0
42
0.0
10
84.8585968017578
20
67.408203125
40
0.0
41
0.0
42
0.0
10
84.8952026367188
20
67.408203125
40
0.0
41
0.0
42
0.0
10
84.9990005493164
20
67.4310989379883
40
0.0
41
0.0
42
0.0
10
84.9989013671875
20
67.4589996337891
40
0.0
41
0.0
42
0.0
10
84.9822006225586
20
67.4589996337891
40
0.0
41
0.0
42
0.0
10
84.9197006225586
20
67.445198059082
40
0.0
41
0.0
42
0.0
10
84.5130004882812
20
67.4890975952148
40
0.0
41
0.0
42
0.0
10
84.4872970581055
20
67.5047988891602
40
0.0
41
0.0
42
0.0
10
84.4822006225586
20
67.5308990478516
40
0.0
41
0.0
42
0.0
10
84.2636032104492
20
68.0143966674805
40
0.0
41
0.0
42
0.0
10
84.2313003540039
20
68.3367004394531
40
0.0
41
0.0
42
0.0
10
84.2362976074219
20
68.480598449707
40
0.0
41
0.0
42
0.0
10
84.2440032958984
20
68.8171005249023
40
0.0
41
0.0
42
0.0
10
84.2562026977539
20
68.9816970825195
40
0.0
41
0.0
42
0.0
10
84.3025970458984
20
69.4823989868164
40
0.0
41
0.0
42
0.0
10
84.3228988647461
20
69.628303527832
40
0.0
41
0.0
42
0.0
10
84.3897018432617
20
69.9849014282227
40
0.0
41
0.0
42
0.0
10
84.4321975708008
20
70.1287002563477
40
0.0
41
0.0
42
0.0
10
84.5002975463867
20
70.280403137207
40
0.0
41
0.0
42
0.0
10
84.568000793457
20
70.4885025024414
40
0.0
41
0.0
42
0.0
10
84.8591003417969
20
70.9922027587891
40
0.0
41
0.0
42
0.0
10
84.8934020996094
20
71.0313034057617
40
0.0
41
0.0
42
0.0
10
84.9990005493164
20
71.1351013183594
40
0.0
41
0.0
42
0.0
10
84.9990005493164
20
71.171501159668
40
0.0
41
0.0
42
0.0
10
84.9885025024414
20
71.1714019775391
40
0.0
41
0.0
42
0.0
10
84.8532028198242
20
71.0382995605469
40
0.0
41
0.0
42
0.0
10
84.8264007568359
20
71.007698059082
40
0.0
41
0.0
42
0.0
10
84.5392990112305
20
70.5113983154297
40
0.0
41
0.0
42
0.0
10
84.4994964599609
20
70.3889999389648
40
0.0
41
0.0
42
0.0
10
84.4123001098633
20
70.1945037841797
40
0.0
41
0.0
42
0.0
10
84.3592987060547
20
70.0149993896484
40
0.0
41
0.0
42
0.0
10
84.3005981445312
20
69.7015991210938
40
0.0
41
0.0
42
0.0
10
84.2750015258789
20
69.5175018310547
40
0.0
41
0.0
42
0.0
10
84.2285003662109
20
69.0182037353516
40
0.0
41
0.0
42
0.0
10
84.2129974365234
20
68.8098983764648
40
0.0
41
0.0
42
0.0
10
84.206298828125
20
68.5193023681641
40
0.0
41
0.0
42
0.0
10
84.1987991333008
20
68.2996978759766
40
0.0
41
0.0
42
0.0
10
84.198600769043
20
68.261100769043
40
0.0
41
0.0
42
0.0
10
84.2263031005859
20
67.9854965209961
40
0.0
41
0.0
42
0.0
10
84.4126968383789
20
67.5734024047852
40
0.0
41
0.0
42
0.0
10
84.4260025024414
20
67.4868011474609
40
0.0
41
0.0
42
0.0
10
84.4271011352539
20
67.4850006103516
40
0.0
41
0.0
42
0.0
10
84.4869003295898
20
67.4483032226562
40
0.0
41
0.0
42
0.0
210
0.0
220
0.0
230
1.0
0
LWPOLYLINE
5
33
330
1C
100
AcDbEntity
67
0
8
0
62
256
6
ByLayer
370
-1
48
1.0
60
0
100
AcDbPolyline
90
34
70
1
38
0.0
39
0.0
10
84.7548980712891
20
79.4815979003906
40
0.0
41
0.0
42
0.0
10
84.8037033081055
20
79.1666030883789
40
0.0
41
0.0
42
0.0
10
84.8042984008789
20
78.9813003540039
40
0.0
41
0.0
42
0.0
10
84.8265991210938
20
78.8001022338867
40
0.0
41
0.0
42
0.0
10
84.9481964111328
20
78.4885025024414
40
0.0
41
0.0
42
0.0
10
84.9927978515625
20
78.4009017944336
40
0.0
41
0.0
42
0.0
10
84.9990005493164
20
78.4009017944336
40
0.0
41
0.0
42
0.0
10
84.9988021850586
20
78.4800033569336
40
0.0
41
0.0
42
0.0
10
84.9829025268555
20
78.5112991333008
40
0.0
41
0.0
42
0.0
10
84.8431015014648
20
78.8697967529297
40
0.0
41
0.0
42
0.0
10
84.8247985839844
20
79.0186004638672
40
0.0
41
0.0
42
0.0
10
84.8244018554688
20
79.1632995605469
40
0.0
41
0.0
42
0.0
10
84.7705001831055
20
79.510498046875
40
0.0
41
0.0
42
0.0
10
84.7751007080078
20
79.6253967285156
40
0.0
41
0.0
42
0.0
10
84.7750015258789
20
79.6644973754883
40
0.0
41
0.0
42
0.0
10
84.7603988647461
20
79.996696472168
40
0.0
41
0.0
42
0.0
10
84.7685012817383
20
80.1258010864258
40
0.0
41
0.0
42
0.0
10
84.7762985229492
20
80.4813003540039
40
0.0
41
0.0
42
0.0
10
84.8283004760742
20
80.984001159668
40
0.0
41
0.0
42
0.0
10
84.963996887207
20
81.4473037719727
40
0.0
41
0.0
42
0.0
10
84.9845962524414
20
81.4909973144531
40
0.0
41
0.0
42
0.0
10
84.9990005493164
20
81.5094985961914
40
0.0
41
0.0
42
0.0
10
84.9990005493164
20
81.5373001098633
40
0.0
41
0.0
42
0.0
10
84.9903030395508
20
81.5373001098633
40
0.0
41
0.0
42
0.0
10
84.9684982299805
20
81.508903503418
40
0.0
41
0.0
42
0.0
10
84.9533004760742
20
81.4768981933594
40
0.0
41
0.0
42
0.0
10
84.818603515625
20
81.0158996582031
40
0.0
41
0.0
42
0.0
10
84.7667007446289
20
80.5186004638672
40
0.0
41
0.0
42
0.0
10
84.7599029541016
20
80.2041015625
40
0.0
41
0.0
42
0.0
10
84.7485961914062
20
80.0193023681641
40
0.0
41
0.0
42
0.0
10
84.7484970092773
20
79.9804000854492
40
0.0
41
0.0
42
0.0
10
84.7614974975586
20
79.6840972900391
40
0.0
41
0.0
42
0.0
10
84.754997253418
20
79.5058975219727
40
0.0
41
0.0
42
0.0
10
84.7548980712891
20
79.4815979003906
40
0.0
41
0.0
42
0.0
210
0.0
220
0.0
230
1.0
0
VIEWPORT
5
38
330
34
100
AcDbEntity
67
1
8
0
62
256
6
ByLayer
370
-1
48
1.0
60
0
100
AcDbViewport
10
0.0
20
0.0
30
0.0
40
297.0
41
210.0
68
1
69
1
12
50.0
22
100.0
13
0.0
23
0.0
14
10.0
24
10.0
15
10.0
25
10.0
16
0.0
26
0.0
36
1.0
17
0.0
27
0.0
37
0.0
42
50.0
43
0.0
44
0.0
45
250.0
50
0.0
51
0.0
72
1000
90
819232
110
0.0
120
0.0
130
0.0
111
1.0
121
0.0
131
0.0
112
0.0
122
1.0
132
0.0
0
ENDSEC
0
SECTION
2
OBJECTS
0
DICTIONARY
5
3E
330
0
100
AcDbDictionary
280
1
281
1
3
ACAD_GROUP
350
12
3
ACAD_LAYOUT
350
37
3
ACAD_DGNDEFINITIONS
350
F
3
ACAD_DWFDEFINITIONS
350
10
3
ACAD_PDFDEFINITIONS
350
11
3
ACAD_MLINESTYLE
350
B
3
ACAD_IMAGE_DICT
350
E
3
ACAD_IMAGE_VARS
350
21
0
DICTIONARY
5
12
330
3E
100
AcDbDictionary
280
1
281
1
0
DICTIONARY
5
37
330
3E
100
AcDbDictionary
280
1
281
1
3
Model
350
20
3
Layout1
350
39
0
DICTIONARY
5
F
330
3E
100
AcDbDictionary
280
1
281
1
0
DICTIONARY
5
10
330
3E
100
AcDbDictionary
280
1
281
1
0
DICTIONARY
5
11
330
3E
100
AcDbDictionary
280
1
281
1
0
DICTIONARY
5
B
330
3E
100
AcDbDictionary
280
1
281
1
3
Standard
350
1B
0
DICTIONARY
5
E
330
3E
100
AcDbDictionary
280
1
281
1
0
DICTIONARY
5
6
330
5
100
AcDbDictionary
280
1
281
1
3
ACAD_LAYERSTATES
360
3F
0
DICTIONARY
5
3F
330
6
100
AcDbDictionary
280
1
281
1
0
LAYOUT
5
20
330
37
100
AcDbPlotSettings
1

2
none_device
4
ISO_A4_(210.00_x_297.00_MM)
6

40
7.5
41
20.0
42
7.5
43
20.0
44
210.0
45
297.0
46
0.0
47
0.0
48
0.0
49
0.0
140
0.0
141
0.0
142
1.0
143
1.0
70
11952
72
1
73
1
74
1
7

75
0
76
0
77
2
78
300
147
1.0
148
0.0
149
0.0
100
AcDbLayout
1
Model
71
0
10
-20.0
20
-7.5
11
277.0
21
202.5
12
0.0
22
0.0
32
0.0
14
25.7
24
19.5
34
0.0
15
231.3
25
175.5
35
0.0
146
0.0
13
0.0
23
0.0
33
0.0
16
1.0
26
0.0
36
0.0
17
0.0
27
1.0
37
0.0
76
0
330
1C
0
LAYOUT
5
39
330
37
100
AcDbPlotSettings
1

2
none_device
4
ISO_A4_(210.00_x_297.00_MM)
6

40
7.5
41
20.0
42
7.5
43
20.0
44
210.0
45
297.0
46
0.0
47
0.0
48
0.0
49
0.0
140
0.0
141
0.0
142
1.0
143
1.0
70
688
72
1
73
1
74
1
7

75
0
76
0
77
2
78
300
147
1.0
148
0.0
149
0.0
100
AcDbLayout
1
Layout1
71
1
10
-20.0
20
-7.5
11
277.0
21
202.5
12
0.0
22
0.0
32
0.0
14
25.7
24
19.5
34
0.0
15
231.3
25
175.5
35
0.0
146
0.0
13
0.0
23
0.0
33
0.0
16
1.0
26
0.0
36
0.0
17
0.0
27
1.0
37
0.0
76
0
330
34
0
MLINESTYLE
5
1B
330
B
100
AcDbMlineStyle
2
Standard
70
0
3

62
256
51
90.0
52
90.0
71
2
49
0.5
62
256
6
ByLayer
49
-0.5
62
256
6
ByLayer
0
RASTERVARIABLES
5
21
330
E
100
AcDbRasterVariables
90
0
70
1
71
1
72
0
0
ENDSEC
0
EOF
