999
DXF file generated by netDxf https://github.com/haplokuon/netDxf, Copyright(C) Daniel Carvajal, Licensed under MIT
0
SECTION
2
HEADER
9
$ACADVER
1
AC1015
9
$DWGCODEPAGE
3
ANSI_1252
9
$HANDSEED
5
3A
9
$ANGBASE
50
0.0
9
$ANGDIR
70
0
9
$ATTMODE
70
1
9
$AUNITS
70
0
9
$AUPREC
70
0
9
$CECOLOR
62
256
9
$CELTSCALE
40
1.0
9
$CELTYPE
6
ByLayer
9
$CELWEIGHT
370
-1
9
$CLAYER
8
0
9
$CMLJUST
70
0
9
$CMLSCALE
40
20.0
9
$CMLSTYLE
2
Standard
9
$DIMSTYLE
2
Standard
9
$TEXTSIZE
40
2.5
9
$TEXTSTYLE
7
Standard
9
$LUNITS
70
2
9
$LUPREC
70
4
9
$MIRRTEXT
70
0
9
$EXTNAMES
290
1
9
$INSBASE
10
0.0
20
0.0
30
0.0
9
$INSUNITS
70
0
9
$LTSCALE
40
1.0
9
$LWDISPLAY
290
0
9
$PDMODE
70
0
9
$PDSIZE
40
0.0
9
$PLINEGEN
70
0
9
$PSLTSCALE
70
1
9
$SPLINESEGS
70
8
9
$SURFU
70
6
9
$SURFV
70
6
9
$TDCREATE
40
2460823.4835956
9
$TDUCREATE
40
2460823.15026227
9
$TDUPDATE
40
2460823.4835956
9
$TDUUPDATE
40
2460823.15026227
9
$TDINDWG
40
0.0
9
$UCSORG
10
0.0
20
0.0
30
0.0
9
$UCSXDIR
10
1.0
20
0.0
30
0.0
9
$UCSYDIR
10
0.0
20
1.0
30
0.0
9
$DIMADEC
70
0
9
$DIMALT
70
0
9
$DIMALTD
70
2
9
$DIMALTF
40
25.4
9
$DIMALTRND
40
0.0
9
$DIMALTTD
70
2
9
$DIMALTTZ
70
0
9
$DIMALTU
70
2
9
$DIMALTZ
70
0
9
$DIMAPOST
1

9
$DIMATFIT
70
3
9
$DIMAUNIT
70
0
9
$DIMASZ
40
0.18
9
$DIMAZIN
70
0
9
$DIMSAH
70
0
9
$DIMBLK
1

9
$DIMLDRBLK
1

9
$DIMCEN
40
0.09
9
$DIMCLRD
70
0
9
$DIMCLRE
70
0
9
$DIMCLRT
70
0
9
$DIMDEC
70
4
9
$DIMDLE
40
0.0
9
$DIMDLI
40
0.38
9
$DIMDSEP
70
46
9
$DIMEXE
40
0.18
9
$DIMEXO
40
0.0625
9
$DIMFXLON
70
0
9
$DIMFXL
40
1.0
9
$DIMGAP
40
0.09
9
$DIMJUST
70
0
9
$DIMLFAC
40
1.0
9
$DIMLUNIT
70
2
9
$DIMLWD
70
-2
9
$DIMLWE
70
-2
9
$DIMPOST
1

9
$DIMRND
40
0.0
9
$DIMSCALE
40
1.0
9
$DIMSD1
70
0
9
$DIMSD2
70
0
9
$DIMSE1
70
0
9
$DIMSE2
70
0
9
$DIMSOXD
70
0
9
$DIMTAD
70
0
9
$DIMTDEC
70
4
9
$DIMTFAC
40
1.0
9
$DIMTIH
70
0
9
$DIMTIX
70
0
9
$DIMTM
40
0.0
9
$DIMTMOVE
70
0
9
$DIMTOFL
70
0
9
$DIMTOH
70
0
9
$DIMTOL
70
0
9
$DIMLIM
70
0
9
$DIMTOLJ
70
1
9
$DIMTP
40
0.0
9
$DIMTXT
40
0.18
9
$DIMTXTDIRECTION
70
0
9
$DIMTZIN
70
0
9
$DIMZIN
70
0
9
$DIMFRAC
70
0
9
$DIMLTYPE
6
ByBlock
9
$DIMLTEX1
6
ByBlock
9
$DIMLTEX2
6
ByBlock
0
ENDSEC
0
SECTION
2
CLASSES
0
CLASS
1
RASTERVARIABLES
2
AcDbRasterVariables
3
ISM
90
0
280
0
281
0
0
ENDSEC
0
SECTION
2
TABLES
0
TABLE
2
APPID
5
4
330
0
100
AcDbSymbolTable
70
5
0
APPID
5
19
330
4
100
AcDbSymbolTableRecord
100
AcDbRegAppTableRecord
2
ACAD
70
0
0
APPID
5
34
330
4
100
AcDbSymbolTableRecord
100
AcDbRegAppTableRecord
2
AcCmTransparency
70
0
0
APPID
5
35
330
4
100
AcDbSymbolTableRecord
100
AcDbRegAppTableRecord
2
AcAecLayerStandard
70
0
0
APPID
5
36
330
4
100
AcDbSymbolTableRecord
100
AcDbRegAppTableRecord
2
GradientColor1ACI
70
0
0
APPID
5
37
330
4
100
AcDbSymbolTableRecord
100
AcDbRegAppTableRecord
2
GradientColor2ACI
70
0
0
ENDTAB
0
TABLE
2
VPORT
5
1
330
0
100
AcDbSymbolTable
70
1
0
VPORT
5
2
330
1
100
AcDbSymbolTableRecord
100
AcDbViewportTableRecord
2
*Active
70
0
10
0.0
20
0.0
11
1.0
21
1.0
12
0.0
22
0.0
13
0.0
23
0.0
14
0.5
24
0.5
15
10.0
25
10.0
16
0.0
26
0.0
36
1.0
17
0.0
27
0.0
37
0.0
40
10.0
41
1.0
75
0
76
1
0
ENDTAB
0
TABLE
2
LTYPE
5
7
330
0
100
AcDbSymbolTable
70
3
0
LTYPE
5
15
330
7
100
AcDbSymbolTableRecord
100
AcDbLinetypeTableRecord
2
Continuous
70
0
3
Solid line
72
65
73
0
40
0.0
0
LTYPE
5
16
330
7
100
AcDbSymbolTableRecord
100
AcDbLinetypeTableRecord
2
ByLayer
70
0
3

72
65
73
0
40
0.0
0
LTYPE
5
17
330
7
100
AcDbSymbolTableRecord
100
AcDbLinetypeTableRecord
2
ByBlock
70
0
3

72
65
73
0
40
0.0
0
ENDTAB
0
TABLE
2
LAYER
5
5
102
{ACAD_XDICTIONARY
360
6
102
}
330
0
100
AcDbSymbolTable
70
1
0
LAYER
5
14
330
5
100
AcDbSymbolTableRecord
100
AcDbLayerTableRecord
2
0
70
0
62
7
6
Continuous
290
1
370
-3
390
0
0
ENDTAB
0
TABLE
2
STYLE
5
8
330
0
100
AcDbSymbolTable
70
1
0
STYLE
5
18
330
8
100
AcDbSymbolTableRecord
100
AcDbTextStyleTableRecord
2
Standard
3
simplex.shx
70
0
71
0
40
0.0
41
1.0
42
0.0
50
0.0
0
ENDTAB
0
TABLE
2
DIMSTYLE
5
A
330
0
100
AcDbSymbolTable
70
1
100
AcDbDimStyleTable
0
DIMSTYLE
105
1A
330
A
100
AcDbSymbolTableRecord
100
AcDbDimStyleTableRecord
2
Standard
3

4

40
1.0
41
0.18
42
0.0625
43
0.38
44
0.18
45
0.0
46
0.0
47
0.0
48
0.0
49
1.0
70
0
71
0
72
0
73
0
74
0
75
0
76
0
77
0
78
0
79
0
140
0.18
141
0.09
143
25.4
144
1.0
146
1.0
147
0.09
148
0.0
170
0
171
2
172
0
174
0
175
0
176
0
177
0
178
0
179
0
271
4
272
4
273
2
274
2
275
0
276
0
277
2
278
46
279
0
280
0
281
0
282
0
283
1
284
0
285
0
286
0
289
3
290
0
294
0
340
18
173
0
345
17
346
17
347
17
371
-2
372
-2
0
ENDTAB
0
TABLE
2
VIEW
5
3
330
0
100
AcDbSymbolTable
70
0
0
ENDTAB
0
TABLE
2
UCS
5
C
330
0
100
AcDbSymbolTable
70
0
0
ENDTAB
0
TABLE
2
BLOCK_RECORD
5
D
330
0
100
AcDbSymbolTable
70
2
0
BLOCK_RECORD
5
1C
330
D
100
AcDbSymbolTableRecord
100
AcDbBlockTableRecord
2
*Model_Space
340
20
0
BLOCK_RECORD
5
2E
330
D
100
AcDbSymbolTableRecord
100
AcDbBlockTableRecord
2
*Paper_Space
340
33
0
ENDTAB
0
ENDSEC
0
SECTION
2
BLOCKS
0
BLOCK
5
1E
330
1C
100
AcDbEntity
67
0
8
0
100
AcDbBlockBegin
2
*Model_Space
70
0
10
0.0
20
0.0
30
0.0
3
*Model_Space
4

0
ENDBLK
5
1D
330
1C
100
AcDbEntity
8
0
100
AcDbBlockEnd
0
BLOCK
5
30
330
2E
100
AcDbEntity
67
1
8
0
100
AcDbBlockBegin
2
*Paper_Space
70
0
10
0.0
20
0.0
30
0.0
3
*Paper_Space
4

0
ENDBLK
5
2F
330
2E
100
AcDbEntity
8
0
100
AcDbBlockEnd
0
ENDSEC
0
SECTION
2
ENTITIES
0
LWPOLYLINE
5
22
330
1C
100
AcDbEntity
67
0
8
0
62
256
6
ByLayer
370
-1
48
1.0
60
0
100
AcDbPolyline
90
31
70
1
38
0.0
39
0.0
10
65.3356018066406
20
67.3557968139648
40
0.0
41
0.0
42
0.0
10
65.4909973144531
20
67.2583999633789
40
0.0
41
0.0
42
0.0
10
65.828498840332
20
67.0531997680664
40
0.0
41
0.0
42
0.0
10
65.9107971191406
20
66.996696472168
40
0.0
41
0.0
42
0.0
10
66.3388977050781
20
66.6518020629883
40
0.0
41
0.0
42
0.0
10
66.4970016479492
20
66.4942016601562
40
0.0
41
0.0
42
0.0
10
66.5580978393555
20
66.4241027832031
40
0.0
41
0.0
42
0.0
10
66.6191024780273
20
66.3375015258789
40
0.0
41
0.0
42
0.0
10
66.8973999023438
20
65.9919967651367
40
0.0
41
0.0
42
0.0
10
67.2020034790039
20
65.4904022216797
40
0.0
41
0.0
42
0.0
10
67.341796875
20
65.2373962402344
40
0.0
41
0.0
42
0.0
10
67.4665985107422
20
65.0009994506836
40
0.0
41
0.0
42
0.0
10
67.4969024658203
20
65.0009994506836
40
0.0
41
0.0
42
0.0
10
67.496696472168
20
65.0148010253906
40
0.0
41
0.0
42
0.0
10
67.3852005004883
20
65.2277984619141
40
0.0
41
0.0
42
0.0
10
67.2296981811523
20
65.5093994140625
40
0.0
41
0.0
42
0.0
10
66.9266967773438
20
66.0077972412109
40
0.0
41
0.0
42
0.0
10
66.6169967651367
20
66.3923034667969
40
0.0
41
0.0
42
0.0
10
66.5721969604492
20
66.4559020996094
40
0.0
41
0.0
42
0.0
10
66.5289993286133
20
66.505500793457
40
0.0
41
0.0
42
0.0
10
66.3908996582031
20
66.6433029174805
40
0.0
41
0.0
42
0.0
10
65.9440002441406
20
67.0029983520508
40
0.0
41
0.0
42
0.0
10
65.8848037719727
20
67.0435028076172
40
0.0
41
0.0
42
0.0
10
65.508903503418
20
67.272102355957
40
0.0
41
0.0
42
0.0
10
65.3943023681641
20
67.3439025878906
40
0.0
41
0.0
42
0.0
10
65.1091995239258
20
67.5014038085938
40
0.0
41
0.0
42
0.0
10
65.0148010253906
20
67.5503005981445
40
0.0
41
0.0
42
0.0
10
65.0009994506836
20
67.5503005981445
40
0.0
41
0.0
42
0.0
10
65.0009002685547
20
67.5380020141602
40
0.0
41
0.0
42
0.0
10
65.0811996459961
20
67.4962997436523
40
0.0
41
0.0
42
0.0
10
65.3356018066406
20
67.3557968139648
40
0.0
41
0.0
42
0.0
210
0.0
220
0.0
230
1.0
0
LWPOLYLINE
5
23
330
1C
100
AcDbEntity
67
0
8
0
62
256
6
ByLayer
370
-1
48
1.0
60
0
100
AcDbPolyline
90
32
70
1
38
0.0
39
0.0
10
65.0149993896484
20
82.5028991699219
40
0.0
41
0.0
42
0.0
10
65.1121978759766
20
82.5519027709961
40
0.0
41
0.0
42
0.0
10
65.2257995605469
20
82.6132965087891
40
0.0
41
0.0
42
0.0
10
65.5093994140625
20
82.7699966430664
40
0.0
41
0.0
42
0.0
10
66.0078964233398
20
83.0730972290039
40
0.0
41
0.0
42
0.0
10
66.3923034667969
20
83.382698059082
40
0.0
41
0.0
42
0.0
10
66.4559020996094
20
83.4274978637695
40
0.0
41
0.0
42
0.0
10
66.5055999755859
20
83.4708023071289
40
0.0
41
0.0
42
0.0
10
66.6433029174805
20
83.609001159668
40
0.0
41
0.0
42
0.0
10
67.0030975341797
20
84.0558013916016
40
0.0
41
0.0
42
0.0
10
67.0436019897461
20
84.1149978637695
40
0.0
41
0.0
42
0.0
10
67.272102355957
20
84.4909973144531
40
0.0
41
0.0
42
0.0
10
67.3440017700195
20
84.605598449707
40
0.0
41
0.0
42
0.0
10
67.5014038085938
20
84.8906021118164
40
0.0
41
0.0
42
0.0
10
67.5503005981445
20
84.9850997924805
40
0.0
41
0.0
42
0.0
10
67.5503005981445
20
84.9990005493164
40
0.0
41
0.0
42
0.0
10
67.5380020141602
20
84.9990005493164
40
0.0
41
0.0
42
0.0
10
67.4983978271484
20
84.9224014282227
40
0.0
41
0.0
42
0.0
10
67.3557968139648
20
84.6642990112305
40
0.0
41
0.0
42
0.0
10
67.2583999633789
20
84.508903503418
40
0.0
41
0.0
42
0.0
10
67.0532989501953
20
84.1713027954102
40
0.0
41
0.0
42
0.0
10
66.9968032836914
20
84.0888977050781
40
0.0
41
0.0
42
0.0
10
66.6518020629883
20
83.6608963012695
40
0.0
41
0.0
42
0.0
10
66.4943008422852
20
83.5027008056641
40
0.0
41
0.0
42
0.0
10
66.4241027832031
20
83.4415969848633
40
0.0
41
0.0
42
0.0
10
66.3376007080078
20
83.3806991577148
40
0.0
41
0.0
42
0.0
10
65.9921035766602
20
83.1023025512695
40
0.0
41
0.0
42
0.0
10
65.4889984130859
20
82.7966995239258
40
0.0
41
0.0
42
0.0
10
65.0811004638672
20
82.5730972290039
40
0.0
41
0.0
42
0.0
10
65.0009994506836
20
82.5328979492188
40
0.0
41
0.0
42
0.0
10
65.0009994506836
20
82.5029983520508
40
0.0
41
0.0
42
0.0
10
65.0149993896484
20
82.5028991699219
40
0.0
41
0.0
42
0.0
210
0.0
220
0.0
230
1.0
0
LWPOLYLINE
5
24
330
1C
100
AcDbEntity
67
0
8
0
62
256
6
ByLayer
370
-1
48
1.0
60
0
100
AcDbPolyline
90
361
70
1
38
0.0
39
0.0
10
66.0000991821289
20
74.7245025634766
40
0.0
41
0.0
42
0.0
10
66.015998840332
20
74.6641998291016
40
0.0
41
0.0
42
0.0
10
66.0539016723633
20
74.4884033203125
40
0.0
41
0.0
42
0.0
10
66.1008987426758
20
74.4198989868164
40
0.0
41
0.0
42
0.0
10
66.1745986938477
20
74.3377990722656
40
0.0
41
0.0
42
0.0
10
66.4012985229492
20
73.9943008422852
40
0.0
41
0.0
42
0.0
10
66.4804992675781
20
73.9311981201172
40
0.0
41
0.0
42
0.0
10
66.8373031616211
20
73.6128997802734
40
0.0
41
0.0
42
0.0
10
66.9913024902344
20
73.5232009887695
40
0.0
41
0.0
42
0.0
10
67.0261993408203
20
73.4988021850586
40
0.0
41
0.0
42
0.0
10
67.1501998901367
20
73.4550018310547
40
0.0
41
0.0
42
0.0
10
67.4873962402344
20
73.2390975952148
40
0.0
41
0.0
42
0.0
10
67.6010971069336
20
73.2227020263672
40
0.0
41
0.0
42
0.0
10
67.9499969482422
20
73.0562973022461
40
0.0
41
0.0
42
0.0
10
67.9852981567383
20
73.0361022949219
40
0.0
41
0.0
42
0.0
10
68.0579986572266
20
73.0378036499023
40
0.0
41
0.0
42
0.0
10
68.1688995361328
20
72.999397277832
40
0.0
41
0.0
42
0.0
10
68.4897003173828
20
72.8513031005859
40
0.0
41
0.0
42
0.0
10
68.8470993041992
20
72.6397018432617
40
0.0
41
0.0
42
0.0
10
68.9806976318359
20
72.6297988891602
40
0.0
41
0.0
42
0.0
10
69.0180969238281
20
72.6296997070312
40
0.0
41
0.0
42
0.0
10
69.1567993164062
20
72.654296875
40
0.0
41
0.0
42
0.0
10
69.1530990600586
20
72.5103988647461
40
0.0
41
0.0
42
0.0
10
68.9987030029297
20
72.3722991943359
40
0.0
41
0.0
42
0.0
10
68.9063034057617
20
72.0086975097656
40
0.0
41
0.0
42
0.0
10
68.7782974243164
20
71.8927993774414
40
0.0
41
0.0
42
0.0
10
68.6337966918945
20
71.5126037597656
40
0.0
41
0.0
42
0.0
10
68.5446014404297
20
71.2713012695312
40
0.0
41
0.0
42
0.0
10
68.4963989257812
20
71.2198028564453
40
0.0
41
0.0
42
0.0
10
68.431396484375
20
71.1247024536133
40
0.0
41
0.0
42
0.0
10
68.3988037109375
20
71.0145034790039
40
0.0
41
0.0
42
0.0
10
68.3145980834961
20
70.6679000854492
40
0.0
41
0.0
42
0.0
10
68.2406997680664
20
70.5139999389648
40
0.0
41
0.0
42
0.0
10
68.2004013061523
20
70.1712036132812
40
0.0
41
0.0
42
0.0
10
68.1629028320312
20
70.0169982910156
40
0.0
41
0.0
42
0.0
10
68.1544036865234
20
69.8029022216797
40
0.0
41
0.0
42
0.0
10
68.154296875
20
69.763801574707
40
0.0
41
0.0
42
0.0
10
68.1666030883789
20
69.4820022583008
40
0.0
41
0.0
42
0.0
10
68.1925964355469
20
69.3128967285156
40
0.0
41
0.0
42
0.0
10
68.2864990234375
20
68.9882965087891
40
0.0
41
0.0
42
0.0
10
68.3258972167969
20
68.9219970703125
40
0.0
41
0.0
42
0.0
10
68.4960021972656
20
68.6826019287109
40
0.0
41
0.0
42
0.0
10
68.6827011108398
20
68.4960021972656
40
0.0
41
0.0
42
0.0
10
68.7637023925781
20
68.4373016357422
40
0.0
41
0.0
42
0.0
10
68.8339004516602
20
68.3955993652344
40
0.0
41
0.0
42
0.0
10
68.9863967895508
20
68.3410034179688
40
0.0
41
0.0
42
0.0
10
69.3285980224609
20
68.2418975830078
40
0.0
41
0.0
42
0.0
10
69.4811019897461
20
68.2320022583008
40
0.0
41
0.0
42
0.0
10
69.8254013061523
20
68.2171020507812
40
0.0
41
0.0
42
0.0
10
69.8635025024414
20
68.2170028686523
40
0.0
41
0.0
42
0.0
10
70.0173034667969
20
68.2384033203125
40
0.0
41
0.0
42
0.0
10
70.3603973388672
20
68.2789001464844
40
0.0
41
0.0
42
0.0
10
70.5141983032227
20
68.3289031982422
40
0.0
41
0.0
42
0.0
10
70.8975982666016
20
68.4222030639648
40
0.0
41
0.0
42
0.0
10
70.9742965698242
20
68.4611968994141
40
0.0
41
0.0
42
0.0
10
71.0128021240234
20
68.4777984619141
40
0.0
41
0.0
42
0.0
10
71.0864028930664
20
68.4996032714844
40
0.0
41
0.0
42
0.0
10
71.1355972290039
20
68.5216979980469
40
0.0
41
0.0
42
0.0
10
71.2378005981445
20
68.6131973266602
40
0.0
41
0.0
42
0.0
10
71.4964981079102
20
68.7089996337891
40
0.0
41
0.0
42
0.0
10
71.5098037719727
20
68.7188034057617
40
0.0
41
0.0
42
0.0
10
71.8815002441406
20
68.8599014282227
40
0.0
41
0.0
42
0.0
10
72.0122985839844
20
68.9615020751953
40
0.0
41
0.0
42
0.0
10
72.1204986572266
20
68.966796875
40
0.0
41
0.0
42
0.0
10
72.2170028686523
20
68.9990005493164
40
0.0
41
0.0
42
0.0
10
72.500602722168
20
69.1865005493164
40
0.0
41
0.0
42
0.0
10
72.6168975830078
20
69.1186981201172
40
0.0
41
0.0
42
0.0
10
72.5830001831055
20
69.0130996704102
40
0.0
41
0.0
42
0.0
10
72.5616989135742
20
68.9552001953125
40
0.0
41
0.0
42
0.0
10
72.5615997314453
20
68.9240036010742
40
0.0
41
0.0
42
0.0
10
72.7779006958008
20
68.4909973144531
40
0.0
41
0.0
42
0.0
10
72.7683029174805
20
68.4038009643555
40
0.0
41
0.0
42
0.0
10
72.7684020996094
20
68.3702011108398
40
0.0
41
0.0
42
0.0
10
72.9733963012695
20
67.9866027832031
40
0.0
41
0.0
42
0.0
10
72.9740982055664
20
67.9820022583008
40
0.0
41
0.0
42
0.0
10
72.9981994628906
20
67.9450988769531
40
0.0
41
0.0
42
0.0
10
73.1483001708984
20
67.630500793457
40
0.0
41
0.0
42
0.0
10
73.1644973754883
20
67.4843978881836
40
0.0
41
0.0
42
0.0
10
73.2133026123047
20
67.3339996337891
40
0.0
41
0.0
42
0.0
10
73.4346008300781
20
66.9906997680664
40
0.0
41
0.0
42
0.0
10
73.5223007202148
20
66.8324966430664
40
0.0
41
0.0
42
0.0
10
73.8233032226562
20
66.4941024780273
40
0.0
41
0.0
42
0.0
10
73.9932022094727
20
66.3119964599609
40
0.0
41
0.0
42
0.0
10
74.4429016113281
20
66.0439987182617
40
0.0
41
0.0
42
0.0
10
74.4879989624023
20
66.0141983032227
40
0.0
41
0.0
42
0.0
10
74.5581970214844
20
66.0003967285156
40
0.0
41
0.0
42
0.0
10
74.8751983642578
20
65.9294967651367
40
0.0
41
0.0
42
0.0
10
74.9807968139648
20
65.9214019775391
40
0.0
41
0.0
42
0.0
10
75.0167999267578
20
65.9213027954102
40
0.0
41
0.0
42
0.0
10
75.2752990722656
20
66.0001983642578
40
0.0
41
0.0
42
0.0
10
75.3356018066406
20
66.0160980224609
40
0.0
41
0.0
42
0.0
10
75.5114974975586
20
66.0539016723633
40
0.0
41
0.0
42
0.0
10
75.5798034667969
20
66.1008987426758
40
0.0
41
0.0
42
0.0
10
75.6621017456055
20
66.1745986938477
40
0.0
41
0.0
42
0.0
10
76.0055999755859
20
66.4012985229492
40
0.0
41
0.0
42
0.0
10
76.0688018798828
20
66.4810028076172
40
0.0
41
0.0
42
0.0
10
76.0802993774414
20
66.4927978515625
40
0.0
41
0.0
42
0.0
10
76.1704025268555
20
66.6473007202148
40
0.0
41
0.0
42
0.0
10
76.4776992797852
20
66.9929962158203
40
0.0
41
0.0
42
0.0
10
76.5009994506836
20
67.026496887207
40
0.0
41
0.0
42
0.0
10
76.5447998046875
20
67.1501998901367
40
0.0
41
0.0
42
0.0
10
76.7605972290039
20
67.4875030517578
40
0.0
41
0.0
42
0.0
10
76.7770004272461
20
67.6010971069336
40
0.0
41
0.0
42
0.0
10
76.9433975219727
20
67.9499969482422
40
0.0
41
0.0
42
0.0
10
76.9636001586914
20
67.9852981567383
40
0.0
41
0.0
42
0.0
10
76.9618988037109
20
68.0580978393555
40
0.0
41
0.0
42
0.0
10
77.0005035400391
20
68.1688995361328
40
0.0
41
0.0
42
0.0
10
77.1483993530273
20
68.4897003173828
40
0.0
41
0.0
42
0.0
10
77.3600006103516
20
68.8470993041992
40
0.0
41
0.0
42
0.0
10
77.3705978393555
20
68.9882965087891
40
0.0
41
0.0
42
0.0
10
77.5000991821289
20
69.1410980224609
40
0.0
41
0.0
42
0.0
10
77.6275024414062
20
68.9987030029297
40
0.0
41
0.0
42
0.0
10
77.9912033081055
20
68.9061965942383
40
0.0
41
0.0
42
0.0
10
78.1071014404297
20
68.7781982421875
40
0.0
41
0.0
42
0.0
10
78.4888000488281
20
68.6332015991211
40
0.0
41
0.0
42
0.0
10
78.7285003662109
20
68.5445022583008
40
0.0
41
0.0
42
0.0
10
78.7799987792969
20
68.4962997436523
40
0.0
41
0.0
42
0.0
10
78.875
20
68.431396484375
40
0.0
41
0.0
42
0.0
10
78.9853973388672
20
68.3988037109375
40
0.0
41
0.0
42
0.0
10
79.3320007324219
20
68.3145980834961
40
0.0
41
0.0
42
0.0
10
79.4859008789062
20
68.2406997680664
40
0.0
41
0.0
42
0.0
10
79.8286972045898
20
68.2003021240234
40
0.0
41
0.0
42
0.0
10
79.9829025268555
20
68.1629028320312
40
0.0
41
0.0
42
0.0
10
80.1969985961914
20
68.1544036865234
40
0.0
41
0.0
42
0.0
10
80.2360992431641
20
68.154296875
40
0.0
41
0.0
42
0.0
10
80.5178985595703
20
68.1666030883789
40
0.0
41
0.0
42
0.0
10
80.686897277832
20
68.1925964355469
40
0.0
41
0.0
42
0.0
10
81.0114974975586
20
68.2865982055664
40
0.0
41
0.0
42
0.0
10
81.0795974731445
20
68.3271026611328
40
0.0
41
0.0
42
0.0
10
81.1165008544922
20
68.3432006835938
40
0.0
41
0.0
42
0.0
10
81.3169021606445
20
68.4957962036133
40
0.0
41
0.0
42
0.0
10
81.5038986206055
20
68.6828002929688
40
0.0
41
0.0
42
0.0
10
81.5625
20
68.7637023925781
40
0.0
41
0.0
42
0.0
10
81.6043014526367
20
68.8339004516602
40
0.0
41
0.0
42
0.0
10
81.6578979492188
20
68.9842987060547
40
0.0
41
0.0
42
0.0
10
81.6679992675781
20
69.1386032104492
40
0.0
41
0.0
42
0.0
10
81.7677001953125
20
69.4829025268555
40
0.0
41
0.0
42
0.0
10
81.7676010131836
20
69.5185012817383
40
0.0
41
0.0
42
0.0
10
81.7472991943359
20
69.6644973754883
40
0.0
41
0.0
42
0.0
10
81.7611999511719
20
69.9804000854492
40
0.0
41
0.0
42
0.0
10
81.761100769043
20
70.0166015625
40
0.0
41
0.0
42
0.0
10
81.7113037109375
20
70.1704025268555
40
0.0
41
0.0
42
0.0
10
81.6703033447266
20
70.5161972045898
40
0.0
41
0.0
42
0.0
10
81.5774993896484
20
70.8975982666016
40
0.0
41
0.0
42
0.0
10
81.5384979248047
20
70.9742965698242
40
0.0
41
0.0
42
0.0
10
81.5218963623047
20
71.0128021240234
40
0.0
41
0.0
42
0.0
10
81.5007019042969
20
71.0841979980469
40
0.0
41
0.0
42
0.0
10
81.3731002807617
20
71.2609024047852
40
0.0
41
0.0
42
0.0
10
81.2798004150391
20
71.5124969482422
40
0.0
41
0.0
42
0.0
10
81.1398010253906
20
71.8814010620117
40
0.0
41
0.0
42
0.0
10
81.038200378418
20
72.0122985839844
40
0.0
41
0.0
42
0.0
10
81.0329971313477
20
72.1205978393555
40
0.0
41
0.0
42
0.0
10
80.9309997558594
20
72.4344024658203
40
0.0
41
0.0
42
0.0
10
80.8233032226562
20
72.4971008300781
40
0.0
41
0.0
42
0.0
10
80.823600769043
20
72.5018997192383
40
0.0
41
0.0
42
0.0
10
81.0009002685547
20
72.5779037475586
40
0.0
41
0.0
42
0.0
10
81.0447006225586
20
72.5617980957031
40
0.0
41
0.0
42
0.0
10
81.0758972167969
20
72.5616989135742
40
0.0
41
0.0
42
0.0
10
81.508903503418
20
72.7779006958008
40
0.0
41
0.0
42
0.0
10
81.5960998535156
20
72.7683029174805
40
0.0
41
0.0
42
0.0
10
81.6296997070312
20
72.7684020996094
40
0.0
41
0.0
42
0.0
10
82.013298034668
20
72.9733963012695
40
0.0
41
0.0
42
0.0
10
82.0177001953125
20
72.9740982055664
40
0.0
41
0.0
42
0.0
10
82.0546035766602
20
72.9982986450195
40
0.0
41
0.0
42
0.0
10
82.3693008422852
20
73.1483001708984
40
0.0
41
0.0
42
0.0
10
82.5155029296875
20
73.1644973754883
40
0.0
41
0.0
42
0.0
10
82.665901184082
20
73.2134017944336
40
0.0
41
0.0
42
0.0
10
83.0092010498047
20
73.4346008300781
40
0.0
41
0.0
42
0.0
10
83.1672973632812
20
73.5223999023438
40
0.0
41
0.0
42
0.0
10
83.5057983398438
20
73.8234024047852
40
0.0
41
0.0
42
0.0
10
83.6876983642578
20
73.9933013916016
40
0.0
41
0.0
42
0.0
10
83.9557037353516
20
74.4429016113281
40
0.0
41
0.0
42
0.0
10
83.9854965209961
20
74.4880981445312
40
0.0
41
0.0
42
0.0
10
83.999397277832
20
74.5582962036133
40
0.0
41
0.0
42
0.0
10
84.070198059082
20
74.8751983642578
40
0.0
41
0.0
42
0.0
10
84.078498840332
20
74.9807968139648
40
0.0
41
0.0
42
0.0
10
84.0783996582031
20
75.0167999267578
40
0.0
41
0.0
42
0.0
10
83.9997024536133
20
75.2752990722656
40
0.0
41
0.0
42
0.0
10
83.9835968017578
20
75.3355026245117
40
0.0
41
0.0
42
0.0
10
83.94580078125
20
75.5114974975586
40
0.0
41
0.0
42
0.0
10
83.8989028930664
20
75.5798034667969
40
0.0
41
0.0
42
0.0
10
83.8251037597656
20
75.6620025634766
40
0.0
41
0.0
42
0.0
10
83.5983963012695
20
76.005500793457
40
0.0
41
0.0
42
0.0
10
83.518798828125
20
76.0687026977539
40
0.0
41
0.0
42
0.0
10
83.5071029663086
20
76.0802993774414
40
0.0
41
0.0
42
0.0
10
83.3525009155273
20
76.1703033447266
40
0.0
41
0.0
42
0.0
10
83.0068969726562
20
76.4776000976562
40
0.0
41
0.0
42
0.0
10
82.9732971191406
20
76.5009994506836
40
0.0
41
0.0
42
0.0
10
82.8496017456055
20
76.5447006225586
40
0.0
41
0.0
42
0.0
10
82.5123977661133
20
76.7605972290039
40
0.0
41
0.0
42
0.0
10
82.3988037109375
20
76.7770004272461
40
0.0
41
0.0
42
0.0
10
82.0496978759766
20
76.9432983398438
40
0.0
41
0.0
42
0.0
10
82.0146026611328
20
76.9636001586914
40
0.0
41
0.0
42
0.0
10
81.9417037963867
20
76.9618988037109
40
0.0
41
0.0
42
0.0
10
81.8309020996094
20
77.0003967285156
40
0.0
41
0.0
42
0.0
10
81.5102005004883
20
77.1483993530273
40
0.0
41
0.0
42
0.0
10
81.152702331543
20
77.3600006103516
40
0.0
41
0.0
42
0.0
10
81.0192031860352
20
77.3701019287109
40
0.0
41
0.0
42
0.0
10
80.9817962646484
20
77.370002746582
40
0.0
41
0.0
42
0.0
10
80.8427963256836
20
77.3453979492188
40
0.0
41
0.0
42
0.0
10
80.8468017578125
20
77.4896011352539
40
0.0
41
0.0
42
0.0
10
81.0010986328125
20
77.6275024414062
40
0.0
41
0.0
42
0.0
10
81.0934982299805
20
77.9912033081055
40
0.0
41
0.0
42
0.0
10
81.2214965820312
20
78.1072006225586
40
0.0
41
0.0
42
0.0
10
81.3665008544922
20
78.4888000488281
40
0.0
41
0.0
42
0.0
10
81.4552001953125
20
78.7285003662109
40
0.0
41
0.0
42
0.0
10
81.5035018920898
20
78.7799987792969
40
0.0
41
0.0
42
0.0
10
81.5682983398438
20
78.8750991821289
40
0.0
41
0.0
42
0.0
10
81.6016006469727
20
78.9875030517578
40
0.0
41
0.0
42
0.0
10
81.6757965087891
20
79.1420974731445
40
0.0
41
0.0
42
0.0
10
81.7586975097656
20
79.4837036132812
40
0.0
41
0.0
42
0.0
10
81.7994003295898
20
79.8286972045898
40
0.0
41
0.0
42
0.0
10
81.836799621582
20
79.9829025268555
40
0.0
41
0.0
42
0.0
10
81.8454971313477
20
80.1969985961914
40
0.0
41
0.0
42
0.0
10
81.8453979492188
20
80.2360992431641
40
0.0
41
0.0
42
0.0
10
81.8330993652344
20
80.5178985595703
40
0.0
41
0.0
42
0.0
10
81.8070983886719
20
80.686897277832
40
0.0
41
0.0
42
0.0
10
81.7127990722656
20
81.0129013061523
40
0.0
41
0.0
42
0.0
10
81.6993026733398
20
81.0448989868164
40
0.0
41
0.0
42
0.0
10
81.657096862793
20
81.116096496582
40
0.0
41
0.0
42
0.0
10
81.5798034667969
20
81.2347030639648
40
0.0
41
0.0
42
0.0
10
81.5046997070312
20
81.3162002563477
40
0.0
41
0.0
42
0.0
10
81.3170013427734
20
81.5037994384766
40
0.0
41
0.0
42
0.0
10
81.2360992431641
20
81.5624008178711
40
0.0
41
0.0
42
0.0
10
81.165901184082
20
81.6042022705078
40
0.0
41
0.0
42
0.0
10
81.0156021118164
20
81.6578979492188
40
0.0
41
0.0
42
0.0
10
80.8612976074219
20
81.6679992675781
40
0.0
41
0.0
42
0.0
10
80.5169982910156
20
81.7677001953125
40
0.0
41
0.0
42
0.0
10
80.4813995361328
20
81.7676010131836
40
0.0
41
0.0
42
0.0
10
80.3355026245117
20
81.7472991943359
40
0.0
41
0.0
42
0.0
10
80.0195007324219
20
81.7611999511719
40
0.0
41
0.0
42
0.0
10
79.9832992553711
20
81.7611999511719
40
0.0
41
0.0
42
0.0
10
79.8294982910156
20
81.7113037109375
40
0.0
41
0.0
42
0.0
10
79.4837036132812
20
81.6704025268555
40
0.0
41
0.0
42
0.0
10
79.1023025512695
20
81.5775985717773
40
0.0
41
0.0
42
0.0
10
79.0254974365234
20
81.5384979248047
40
0.0
41
0.0
42
0.0
10
78.9870986938477
20
81.5218963623047
40
0.0
41
0.0
42
0.0
10
78.9157028198242
20
81.5008010864258
40
0.0
41
0.0
42
0.0
10
78.7627029418945
20
81.3873977661133
40
0.0
41
0.0
42
0.0
10
78.7379989624023
20
81.372802734375
40
0.0
41
0.0
42
0.0
10
78.4872970581055
20
81.2798004150391
40
0.0
41
0.0
42
0.0
10
78.1183013916016
20
81.1399002075195
40
0.0
41
0.0
42
0.0
10
77.9876022338867
20
81.038200378418
40
0.0
41
0.0
42
0.0
10
77.8793029785156
20
81.0329971313477
40
0.0
41
0.0
42
0.0
10
77.7827987670898
20
81.0009002685547
40
0.0
41
0.0
42
0.0
10
77.499397277832
20
80.8132019042969
40
0.0
41
0.0
42
0.0
10
77.3827972412109
20
80.881103515625
40
0.0
41
0.0
42
0.0
10
77.4167022705078
20
80.9868011474609
40
0.0
41
0.0
42
0.0
10
77.4380035400391
20
81.0446014404297
40
0.0
41
0.0
42
0.0
10
77.4380035400391
20
81.075798034668
40
0.0
41
0.0
42
0.0
10
77.2218017578125
20
81.508903503418
40
0.0
41
0.0
42
0.0
10
77.2314987182617
20
81.5960998535156
40
0.0
41
0.0
42
0.0
10
77.2313003540039
20
81.6296997070312
40
0.0
41
0.0
42
0.0
10
77.0262985229492
20
82.013298034668
40
0.0
41
0.0
42
0.0
10
77.0255966186523
20
82.0177001953125
40
0.0
41
0.0
42
0.0
10
77.0015029907227
20
82.0546035766602
40
0.0
41
0.0
42
0.0
10
76.8515014648438
20
82.3693008422852
40
0.0
41
0.0
42
0.0
10
76.8351974487305
20
82.5155029296875
40
0.0
41
0.0
42
0.0
10
76.7864990234375
20
82.6658020019531
40
0.0
41
0.0
42
0.0
10
76.5651016235352
20
83.0091018676758
40
0.0
41
0.0
42
0.0
10
76.4773025512695
20
83.1671981811523
40
0.0
41
0.0
42
0.0
10
76.1718978881836
20
83.5117034912109
40
0.0
41
0.0
42
0.0
10
76.0245971679688
20
83.6725997924805
40
0.0
41
0.0
42
0.0
10
76.0075988769531
20
83.6871032714844
40
0.0
41
0.0
42
0.0
10
75.5568008422852
20
83.9557037353516
40
0.0
41
0.0
42
0.0
10
75.5118026733398
20
83.9854965209961
40
0.0
41
0.0
42
0.0
10
75.4414978027344
20
83.999397277832
40
0.0
41
0.0
42
0.0
10
75.1246032714844
20
84.070198059082
40
0.0
41
0.0
42
0.0
10
75.0190963745117
20
84.078498840332
40
0.0
41
0.0
42
0.0
10
74.9831008911133
20
84.0783996582031
40
0.0
41
0.0
42
0.0
10
74.7245025634766
20
83.9998016357422
40
0.0
41
0.0
42
0.0
10
74.6642990112305
20
83.9837036132812
40
0.0
41
0.0
42
0.0
10
74.4884033203125
20
83.9458999633789
40
0.0
41
0.0
42
0.0
10
74.4199981689453
20
83.8990020751953
40
0.0
41
0.0
42
0.0
10
74.3377990722656
20
83.8252029418945
40
0.0
41
0.0
42
0.0
10
73.9943008422852
20
83.598503112793
40
0.0
41
0.0
42
0.0
10
73.9312973022461
20
83.5192031860352
40
0.0
41
0.0
42
0.0
10
73.6128997802734
20
83.16259765625
40
0.0
41
0.0
42
0.0
10
73.5233001708984
20
83.0085983276367
40
0.0
41
0.0
42
0.0
10
73.4988021850586
20
82.9736022949219
40
0.0
41
0.0
42
0.0
10
73.4550018310547
20
82.8497009277344
40
0.0
41
0.0
42
0.0
10
73.2390975952148
20
82.5124969482422
40
0.0
41
0.0
42
0.0
10
73.2228012084961
20
82.3988037109375
40
0.0
41
0.0
42
0.0
10
73.056396484375
20
82.0497970581055
40
0.0
41
0.0
42
0.0
10
73.0361022949219
20
82.0146026611328
40
0.0
41
0.0
42
0.0
10
73.0378036499023
20
81.9418029785156
40
0.0
41
0.0
42
0.0
10
72.999397277832
20
81.8309020996094
40
0.0
41
0.0
42
0.0
10
72.8513031005859
20
81.5102005004883
40
0.0
41
0.0
42
0.0
10
72.6397018432617
20
81.152702331543
40
0.0
41
0.0
42
0.0
10
72.6292037963867
20
81.0115966796875
40
0.0
41
0.0
42
0.0
10
72.4998016357422
20
80.8584976196289
40
0.0
41
0.0
42
0.0
10
72.372200012207
20
81.0010986328125
40
0.0
41
0.0
42
0.0
10
72.0085983276367
20
81.0933990478516
40
0.0
41
0.0
42
0.0
10
71.8927001953125
20
81.2213973999023
40
0.0
41
0.0
42
0.0
10
71.5126037597656
20
81.3658981323242
40
0.0
41
0.0
42
0.0
10
71.2712020874023
20
81.4552001953125
40
0.0
41
0.0
42
0.0
10
71.2197036743164
20
81.5035018920898
40
0.0
41
0.0
42
0.0
10
71.1247024536133
20
81.5682983398438
40
0.0
41
0.0
42
0.0
10
71.0122985839844
20
81.6015014648438
40
0.0
41
0.0
42
0.0
10
70.8578033447266
20
81.6757965087891
40
0.0
41
0.0
42
0.0
10
70.5161972045898
20
81.7586975097656
40
0.0
41
0.0
42
0.0
10
70.1712036132812
20
81.7993011474609
40
0.0
41
0.0
42
0.0
10
70.0169982910156
20
81.836799621582
40
0.0
41
0.0
42
0.0
10
69.8029022216797
20
81.8454971313477
40
0.0
41
0.0
42
0.0
10
69.763801574707
20
81.8453979492188
40
0.0
41
0.0
42
0.0
10
69.4820022583008
20
81.8330993652344
40
0.0
41
0.0
42
0.0
10
69.3128967285156
20
81.8070983886719
40
0.0
41
0.0
42
0.0
10
68.9869995117188
20
81.7127990722656
40
0.0
41
0.0
42
0.0
10
68.9548034667969
20
81.6993026733398
40
0.0
41
0.0
42
0.0
10
68.8835983276367
20
81.657096862793
40
0.0
41
0.0
42
0.0
10
68.7650985717773
20
81.5799026489258
40
0.0
41
0.0
42
0.0
10
68.6836013793945
20
81.5047988891602
40
0.0
41
0.0
42
0.0
10
68.4960021972656
20
81.3171005249023
40
0.0
41
0.0
42
0.0
10
68.4373016357422
20
81.2360992431641
40
0.0
41
0.0
42
0.0
10
68.3955993652344
20
81.1660003662109
40
0.0
41
0.0
42
0.0
10
68.3410034179688
20
81.0134963989258
40
0.0
41
0.0
42
0.0
10
68.2418975830078
20
80.6713027954102
40
0.0
41
0.0
42
0.0
10
68.2320022583008
20
80.518798828125
40
0.0
41
0.0
42
0.0
10
68.2171020507812
20
80.1744995117188
40
0.0
41
0.0
42
0.0
10
68.2169036865234
20
80.1363983154297
40
0.0
41
0.0
42
0.0
10
68.2384033203125
20
79.9825973510742
40
0.0
41
0.0
42
0.0
10
68.2789001464844
20
79.6393966674805
40
0.0
41
0.0
42
0.0
10
68.3287963867188
20
79.4857025146484
40
0.0
41
0.0
42
0.0
10
68.4222030639648
20
79.1023025512695
40
0.0
41
0.0
42
0.0
10
68.4611968994141
20
79.0253982543945
40
0.0
41
0.0
42
0.0
10
68.4777984619141
20
78.9870986938477
40
0.0
41
0.0
42
0.0
10
68.4996032714844
20
78.9133987426758
40
0.0
41
0.0
42
0.0
10
68.521598815918
20
78.8641967773438
40
0.0
41
0.0
42
0.0
10
68.6131973266602
20
78.7620010375977
40
0.0
41
0.0
42
0.0
10
68.7089004516602
20
78.503303527832
40
0.0
41
0.0
42
0.0
10
68.7188034057617
20
78.4900970458984
40
0.0
41
0.0
42
0.0
10
68.8599014282227
20
78.1183013916016
40
0.0
41
0.0
42
0.0
10
68.9615020751953
20
77.9876022338867
40
0.0
41
0.0
42
0.0
10
68.9666976928711
20
77.8790969848633
40
0.0
41
0.0
42
0.0
10
69.0687026977539
20
77.565299987793
40
0.0
41
0.0
42
0.0
10
69.1765975952148
20
77.5028991699219
40
0.0
41
0.0
42
0.0
10
69.1763000488281
20
77.4981002807617
40
0.0
41
0.0
42
0.0
10
68.9990005493164
20
77.4217987060547
40
0.0
41
0.0
42
0.0
10
68.9551010131836
20
77.4378967285156
40
0.0
41
0.0
42
0.0
10
68.9238967895508
20
77.438102722168
40
0.0
41
0.0
42
0.0
10
68.4909973144531
20
77.2218017578125
40
0.0
41
0.0
42
0.0
10
68.4038009643555
20
77.2314987182617
40
0.0
41
0.0
42
0.0
10
68.3702011108398
20
77.2313995361328
40
0.0
41
0.0
42
0.0
10
67.9866027832031
20
77.0262985229492
40
0.0
41
0.0
42
0.0
10
67.9820022583008
20
77.0257034301758
40
0.0
41
0.0
42
0.0
10
67.945198059082
20
77.0016021728516
40
0.0
41
0.0
42
0.0
10
67.630500793457
20
76.8515014648438
40
0.0
41
0.0
42
0.0
10
67.4843978881836
20
76.8351974487305
40
0.0
41
0.0
42
0.0
10
67.3339996337891
20
76.7864990234375
40
0.0
41
0.0
42
0.0
10
66.9906997680664
20
76.5651016235352
40
0.0
41
0.0
42
0.0
10
66.8326034545898
20
76.4774017333984
40
0.0
41
0.0
42
0.0
10
66.4880981445312
20
76.1719970703125
40
0.0
41
0.0
42
0.0
10
66.3272018432617
20
76.0245971679688
40
0.0
41
0.0
42
0.0
10
66.3126983642578
20
76.007698059082
40
0.0
41
0.0
42
0.0
10
66.0439987182617
20
75.5569000244141
40
0.0
41
0.0
42
0.0
10
66.0142974853516
20
75.5118026733398
40
0.0
41
0.0
42
0.0
10
66.0003967285156
20
75.4415969848633
40
0.0
41
0.0
42
0.0
10
65.9294967651367
20
75.1246032714844
40
0.0
41
0.0
42
0.0
10
65.9214019775391
20
75.0190963745117
40
0.0
41
0.0
42
0.0
10
65.9213027954102
20
74.9831008911133
40
0.0
41
0.0
42
0.0
10
66.0000991821289
20
74.7245025634766
40
0.0
41
0.0
42
0.0
210
0.0
220
0.0
230
1.0
0
LWPOLYLINE
5
25
330
1C
100
AcDbEntity
67
0
8
0
62
256
6
ByLayer
370
-1
48
1.0
60
0
100
AcDbPolyline
90
365
70
1
38
0.0
39
0.0
10
65.9992980957031
20
75.2306976318359
40
0.0
41
0.0
42
0.0
10
66.0498962402344
20
75.4880981445312
40
0.0
41
0.0
42
0.0
10
66.1605987548828
20
75.6557998657227
40
0.0
41
0.0
42
0.0
10
66.361198425293
20
75.9922027587891
40
0.0
41
0.0
42
0.0
10
66.3753967285156
20
76.0087966918945
40
0.0
41
0.0
42
0.0
10
66.5015029907227
20
76.1246032714844
40
0.0
41
0.0
42
0.0
10
66.8891983032227
20
76.4688034057617
40
0.0
41
0.0
42
0.0
10
67.0092010498047
20
76.535400390625
40
0.0
41
0.0
42
0.0
10
67.3958969116211
20
76.784797668457
40
0.0
41
0.0
42
0.0
10
67.5155029296875
20
76.8235015869141
40
0.0
41
0.0
42
0.0
10
67.6239013671875
20
76.8358001708984
40
0.0
41
0.0
42
0.0
10
67.966796875
20
76.9982986450195
40
0.0
41
0.0
42
0.0
10
68.004997253418
20
77.0231018066406
40
0.0
41
0.0
42
0.0
10
68.013298034668
20
77.0243988037109
40
0.0
41
0.0
42
0.0
10
68.3539962768555
20
77.2064971923828
40
0.0
41
0.0
42
0.0
10
68.4811019897461
20
77.192497253418
40
0.0
41
0.0
42
0.0
10
68.5149993896484
20
77.1923980712891
40
0.0
41
0.0
42
0.0
10
68.8843994140625
20
77.3769989013672
40
0.0
41
0.0
42
0.0
10
68.9837036132812
20
77.3406982421875
40
0.0
41
0.0
42
0.0
10
69.0156021118164
20
77.3406982421875
40
0.0
41
0.0
42
0.0
10
69.3731994628906
20
77.4937973022461
40
0.0
41
0.0
42
0.0
10
69.3731002807617
20
77.5077972412109
40
0.0
41
0.0
42
0.0
10
69.1397018432617
20
77.6430969238281
40
0.0
41
0.0
42
0.0
10
69.0227966308594
20
78.0072021484375
40
0.0
41
0.0
42
0.0
10
69.0050964355469
20
78.0206985473633
40
0.0
41
0.0
42
0.0
10
68.8795013427734
20
78.1820983886719
40
0.0
41
0.0
42
0.0
10
68.7550964355469
20
78.5096969604492
40
0.0
41
0.0
42
0.0
10
68.7417984008789
20
78.527702331543
40
0.0
41
0.0
42
0.0
10
68.6566009521484
20
78.7577972412109
40
0.0
41
0.0
42
0.0
10
68.5344009399414
20
78.894401550293
40
0.0
41
0.0
42
0.0
10
68.5001983642578
20
78.9705963134766
40
0.0
41
0.0
42
0.0
10
68.4876022338867
20
79.0128021240234
40
0.0
41
0.0
42
0.0
10
68.4670028686523
20
79.0604019165039
40
0.0
41
0.0
42
0.0
10
68.4129028320312
20
79.1666030883789
40
0.0
41
0.0
42
0.0
10
68.3286972045898
20
79.5139007568359
40
0.0
41
0.0
42
0.0
10
68.290901184082
20
79.6304016113281
40
0.0
41
0.0
42
0.0
10
68.2453002929688
20
80.0173034667969
40
0.0
41
0.0
42
0.0
10
68.2304000854492
20
80.1244964599609
40
0.0
41
0.0
42
0.0
10
68.2459030151367
20
80.4811019897461
40
0.0
41
0.0
42
0.0
10
68.2536010742188
20
80.5986022949219
40
0.0
41
0.0
42
0.0
10
68.3658981323242
20
80.9863967895508
40
0.0
41
0.0
42
0.0
10
68.4078979492188
20
81.1038970947266
40
0.0
41
0.0
42
0.0
10
68.4577026367188
20
81.1876983642578
40
0.0
41
0.0
42
0.0
10
68.5038986206055
20
81.2514038085938
40
0.0
41
0.0
42
0.0
10
68.7474975585938
20
81.4951019287109
40
0.0
41
0.0
42
0.0
10
68.8106994628906
20
81.5534973144531
40
0.0
41
0.0
42
0.0
10
68.9020004272461
20
81.6128005981445
40
0.0
41
0.0
42
0.0
10
68.9848022460938
20
81.6619033813477
40
0.0
41
0.0
42
0.0
10
69.0130004882812
20
81.673698425293
40
0.0
41
0.0
42
0.0
10
69.3880996704102
20
81.7822036743164
40
0.0
41
0.0
42
0.0
10
69.5178985595703
20
81.8022003173828
40
0.0
41
0.0
42
0.0
10
69.8398971557617
20
81.8162994384766
40
0.0
41
0.0
42
0.0
10
69.9829025268555
20
81.8106002807617
40
0.0
41
0.0
42
0.0
10
70.0987014770508
20
81.7825012207031
40
0.0
41
0.0
42
0.0
10
70.4837036132812
20
81.7370986938477
40
0.0
41
0.0
42
0.0
10
70.8720016479492
20
81.6427993774414
40
0.0
41
0.0
42
0.0
10
70.9875030517578
20
81.58740234375
40
0.0
41
0.0
42
0.0
10
71.1162033081055
20
81.549201965332
40
0.0
41
0.0
42
0.0
10
71.1938018798828
20
81.4962997436523
40
0.0
41
0.0
42
0.0
10
71.2342987060547
20
81.4583969116211
40
0.0
41
0.0
42
0.0
10
71.2572021484375
20
81.4467010498047
40
0.0
41
0.0
42
0.0
10
71.4872970581055
20
81.3616027832031
40
0.0
41
0.0
42
0.0
10
71.8370971679688
20
81.2286987304688
40
0.0
41
0.0
42
0.0
10
71.9912033081055
20
81.0582962036133
40
0.0
41
0.0
42
0.0
10
72.2265014648438
20
80.9985961914062
40
0.0
41
0.0
42
0.0
10
72.4893035888672
20
80.7048034667969
40
0.0
41
0.0
42
0.0
10
72.5102005004883
20
80.7048034667969
40
0.0
41
0.0
42
0.0
10
72.7499008178711
20
80.9882965087891
40
0.0
41
0.0
42
0.0
10
72.7696990966797
20
81.2566986083984
40
0.0
41
0.0
42
0.0
10
72.907600402832
20
81.4897003173828
40
0.0
41
0.0
42
0.0
10
73.0003967285156
20
81.6906967163086
40
0.0
41
0.0
42
0.0
10
73.0623016357422
20
81.868896484375
40
0.0
41
0.0
42
0.0
10
73.0622024536133
20
81.904899597168
40
0.0
41
0.0
42
0.0
10
73.0580978393555
20
81.9882965087891
40
0.0
41
0.0
42
0.0
10
73.0792999267578
20
82.0251998901367
40
0.0
41
0.0
42
0.0
10
73.2251968383789
20
82.3311004638672
40
0.0
41
0.0
42
0.0
10
73.2477035522461
20
82.4873962402344
40
0.0
41
0.0
42
0.0
10
73.446403503418
20
82.7978973388672
40
0.0
41
0.0
42
0.0
10
73.459602355957
20
82.8313980102539
40
0.0
41
0.0
42
0.0
10
73.5010986328125
20
82.9487991333008
40
0.0
41
0.0
42
0.0
10
73.5307998657227
20
82.9913024902344
40
0.0
41
0.0
42
0.0
10
73.598503112793
20
83.1072998046875
40
0.0
41
0.0
42
0.0
10
73.9559020996094
20
83.5077972412109
40
0.0
41
0.0
42
0.0
10
74.0055999755859
20
83.5702972412109
40
0.0
41
0.0
42
0.0
10
74.3920974731445
20
83.8254013061523
40
0.0
41
0.0
42
0.0
10
74.4526977539062
20
83.879997253418
40
0.0
41
0.0
42
0.0
10
74.5114974975586
20
83.9201965332031
40
0.0
41
0.0
42
0.0
10
74.7772979736328
20
83.9772033691406
40
0.0
41
0.0
42
0.0
10
74.8629989624023
20
84.0000991821289
40
0.0
41
0.0
42
0.0
10
75.0093994140625
20
84.0447006225586
40
0.0
41
0.0
42
0.0
10
75.0454025268555
20
84.0418014526367
40
0.0
41
0.0
42
0.0
10
75.2306976318359
20
84.0005035400391
40
0.0
41
0.0
42
0.0
10
75.4879989624023
20
83.9497985839844
40
0.0
41
0.0
42
0.0
10
75.6557998657227
20
83.8391036987305
40
0.0
41
0.0
42
0.0
10
75.9922027587891
20
83.6384963989258
40
0.0
41
0.0
42
0.0
10
76.0087966918945
20
83.6242980957031
40
0.0
41
0.0
42
0.0
10
76.1244964599609
20
83.4982986450195
40
0.0
41
0.0
42
0.0
10
76.4686965942383
20
83.1104965209961
40
0.0
41
0.0
42
0.0
10
76.535400390625
20
82.9906997680664
40
0.0
41
0.0
42
0.0
10
76.784797668457
20
82.6039962768555
40
0.0
41
0.0
42
0.0
10
76.8235015869141
20
82.4843978881836
40
0.0
41
0.0
42
0.0
10
76.8356018066406
20
82.3760986328125
40
0.0
41
0.0
42
0.0
10
76.9982986450195
20
82.0329971313477
40
0.0
41
0.0
42
0.0
10
77.0231018066406
20
81.9949035644531
40
0.0
41
0.0
42
0.0
10
77.0243988037109
20
81.986701965332
40
0.0
41
0.0
42
0.0
10
77.2064971923828
20
81.6458969116211
40
0.0
41
0.0
42
0.0
10
77.192497253418
20
81.518798828125
40
0.0
41
0.0
42
0.0
10
77.1922988891602
20
81.4849014282227
40
0.0
41
0.0
42
0.0
10
77.3769989013672
20
81.1154022216797
40
0.0
41
0.0
42
0.0
10
77.3395004272461
20
81.0130996704102
40
0.0
41
0.0
42
0.0
10
77.2645034790039
20
80.7802963256836
40
0.0
41
0.0
42
0.0
10
77.2645034790039
20
80.7555999755859
40
0.0
41
0.0
42
0.0
10
77.4857025146484
20
80.6268005371094
40
0.0
41
0.0
42
0.0
10
77.5137023925781
20
80.6267013549805
40
0.0
41
0.0
42
0.0
10
77.8796997070312
20
80.8691024780273
40
0.0
41
0.0
42
0.0
10
78.0046005249023
20
80.973503112793
40
0.0
41
0.0
42
0.0
10
78.0206985473633
20
80.9947967529297
40
0.0
41
0.0
42
0.0
10
78.1821975708008
20
81.1203002929688
40
0.0
41
0.0
42
0.0
10
78.5126037597656
20
81.2455978393555
40
0.0
41
0.0
42
0.0
10
78.7301025390625
20
81.326301574707
40
0.0
41
0.0
42
0.0
10
78.7572021484375
20
81.342399597168
40
0.0
41
0.0
42
0.0
10
78.9683990478516
20
81.4990005493164
40
0.0
41
0.0
42
0.0
10
79.0128021240234
20
81.5121002197266
40
0.0
41
0.0
42
0.0
10
79.0604019165039
20
81.5326995849609
40
0.0
41
0.0
42
0.0
10
79.1666030883789
20
81.586799621582
40
0.0
41
0.0
42
0.0
10
79.5161972045898
20
81.6716003417969
40
0.0
41
0.0
42
0.0
10
79.9004974365234
20
81.7169036865234
40
0.0
41
0.0
42
0.0
10
80.0122985839844
20
81.7530975341797
40
0.0
41
0.0
42
0.0
10
80.3654022216797
20
81.7378005981445
40
0.0
41
0.0
42
0.0
10
80.4035034179688
20
81.7377014160156
40
0.0
41
0.0
42
0.0
10
80.494499206543
20
81.7503967285156
40
0.0
41
0.0
42
0.0
10
80.8685989379883
20
81.6421966552734
40
0.0
41
0.0
42
0.0
10
80.9841995239258
20
81.6345977783203
40
0.0
41
0.0
42
0.0
10
81.1038970947266
20
81.5919036865234
40
0.0
41
0.0
42
0.0
10
81.1876983642578
20
81.5420989990234
40
0.0
41
0.0
42
0.0
10
81.2514038085938
20
81.4959030151367
40
0.0
41
0.0
42
0.0
10
81.4951019287109
20
81.2522964477539
40
0.0
41
0.0
42
0.0
10
81.5534973144531
20
81.1891021728516
40
0.0
41
0.0
42
0.0
10
81.6127014160156
20
81.0978012084961
40
0.0
41
0.0
42
0.0
10
81.6619033813477
20
81.0149993896484
40
0.0
41
0.0
42
0.0
10
81.673698425293
20
80.9869003295898
40
0.0
41
0.0
42
0.0
10
81.7822036743164
20
80.611701965332
40
0.0
41
0.0
42
0.0
10
81.8022003173828
20
80.4820022583008
40
0.0
41
0.0
42
0.0
10
81.8162994384766
20
80.1598968505859
40
0.0
41
0.0
42
0.0
10
81.8106994628906
20
80.0169982910156
40
0.0
41
0.0
42
0.0
10
81.7825012207031
20
79.9011993408203
40
0.0
41
0.0
42
0.0
10
81.7371978759766
20
79.5161972045898
40
0.0
41
0.0
42
0.0
10
81.6427993774414
20
79.1278991699219
40
0.0
41
0.0
42
0.0
10
81.58740234375
20
79.0123977661133
40
0.0
41
0.0
42
0.0
10
81.5493011474609
20
78.8834991455078
40
0.0
41
0.0
42
0.0
10
81.4963989257812
20
78.8059997558594
40
0.0
41
0.0
42
0.0
10
81.4583969116211
20
78.7656021118164
40
0.0
41
0.0
42
0.0
10
81.4468002319336
20
78.7425994873047
40
0.0
41
0.0
42
0.0
10
81.3616027832031
20
78.5126037597656
40
0.0
41
0.0
42
0.0
10
81.2287979125977
20
78.1628036499023
40
0.0
41
0.0
42
0.0
10
81.0582962036133
20
78.0086975097656
40
0.0
41
0.0
42
0.0
10
80.9987030029297
20
77.7733001708984
40
0.0
41
0.0
42
0.0
10
80.7043991088867
20
77.5103988647461
40
0.0
41
0.0
42
0.0
10
80.6961975097656
20
77.1962966918945
40
0.0
41
0.0
42
0.0
10
80.7135009765625
20
77.1962966918945
40
0.0
41
0.0
42
0.0
10
81.0072021484375
20
77.2483978271484
40
0.0
41
0.0
42
0.0
10
81.2566986083984
20
77.2300033569336
40
0.0
41
0.0
42
0.0
10
81.4897003173828
20
77.0921020507812
40
0.0
41
0.0
42
0.0
10
81.6906967163086
20
76.999397277832
40
0.0
41
0.0
42
0.0
10
81.868896484375
20
76.9375991821289
40
0.0
41
0.0
42
0.0
10
81.904899597168
20
76.9375
40
0.0
41
0.0
42
0.0
10
81.9881973266602
20
76.9415969848633
40
0.0
41
0.0
42
0.0
10
82.0251998901367
20
76.9204025268555
40
0.0
41
0.0
42
0.0
10
82.3311004638672
20
76.7744979858398
40
0.0
41
0.0
42
0.0
10
82.4873962402344
20
76.7519989013672
40
0.0
41
0.0
42
0.0
10
82.7977981567383
20
76.5532989501953
40
0.0
41
0.0
42
0.0
10
82.8313980102539
20
76.5401000976562
40
0.0
41
0.0
42
0.0
10
82.9486999511719
20
76.4987030029297
40
0.0
41
0.0
42
0.0
10
82.9928970336914
20
76.4676971435547
40
0.0
41
0.0
42
0.0
10
83.3772964477539
20
76.1259994506836
40
0.0
41
0.0
42
0.0
10
83.4927978515625
20
76.0587005615234
40
0.0
41
0.0
42
0.0
10
83.5081024169922
20
76.0435028076172
40
0.0
41
0.0
42
0.0
10
83.5702972412109
20
75.9943008422852
40
0.0
41
0.0
42
0.0
10
83.8254013061523
20
75.6078033447266
40
0.0
41
0.0
42
0.0
10
83.8798980712891
20
75.5469970703125
40
0.0
41
0.0
42
0.0
10
83.9201965332031
20
75.4884033203125
40
0.0
41
0.0
42
0.0
10
83.9772033691406
20
75.2225036621094
40
0.0
41
0.0
42
0.0
10
84.0000991821289
20
75.1368026733398
40
0.0
41
0.0
42
0.0
10
84.0447006225586
20
74.9905014038086
40
0.0
41
0.0
42
0.0
10
84.0418014526367
20
74.9543991088867
40
0.0
41
0.0
42
0.0
10
84.0005035400391
20
74.7690963745117
40
0.0
41
0.0
42
0.0
10
83.9498977661133
20
74.5118026733398
40
0.0
41
0.0
42
0.0
10
83.8391036987305
20
74.3440017700195
40
0.0
41
0.0
42
0.0
10
83.6380004882812
20
74.0065994262695
40
0.0
41
0.0
42
0.0
10
83.4941024780273
20
73.8721008300781
40
0.0
41
0.0
42
0.0
10
83.1106033325195
20
73.5309982299805
40
0.0
41
0.0
42
0.0
10
82.9907989501953
20
73.4643020629883
40
0.0
41
0.0
42
0.0
10
82.6039962768555
20
73.2149963378906
40
0.0
41
0.0
42
0.0
10
82.4843978881836
20
73.1762008666992
40
0.0
41
0.0
42
0.0
10
82.3761978149414
20
73.1641998291016
40
0.0
41
0.0
42
0.0
10
82.0329971313477
20
73.0016021728516
40
0.0
41
0.0
42
0.0
10
81.9949035644531
20
72.9766006469727
40
0.0
41
0.0
42
0.0
10
81.986701965332
20
72.9754028320312
40
0.0
41
0.0
42
0.0
10
81.6458969116211
20
72.7931976318359
40
0.0
41
0.0
42
0.0
10
81.518798828125
20
72.8074035644531
40
0.0
41
0.0
42
0.0
10
81.4849014282227
20
72.8074035644531
40
0.0
41
0.0
42
0.0
10
81.1154022216797
20
72.6227035522461
40
0.0
41
0.0
42
0.0
10
81.0161972045898
20
72.6592025756836
40
0.0
41
0.0
42
0.0
10
80.9842987060547
20
72.6591033935547
40
0.0
41
0.0
42
0.0
10
80.6267013549805
20
72.506103515625
40
0.0
41
0.0
42
0.0
10
80.6266021728516
20
72.4919967651367
40
0.0
41
0.0
42
0.0
10
80.8600006103516
20
72.3565979003906
40
0.0
41
0.0
42
0.0
10
80.9767990112305
20
71.9925994873047
40
0.0
41
0.0
42
0.0
10
80.9947967529297
20
71.9789962768555
40
0.0
41
0.0
42
0.0
10
81.1202011108398
20
71.8175964355469
40
0.0
41
0.0
42
0.0
10
81.2455978393555
20
71.4872970581055
40
0.0
41
0.0
42
0.0
10
81.3258972167969
20
71.2706985473633
40
0.0
41
0.0
42
0.0
10
81.4990005493164
20
71.0311965942383
40
0.0
41
0.0
42
0.0
10
81.5121002197266
20
70.9870986938477
40
0.0
41
0.0
42
0.0
10
81.532600402832
20
70.9393997192383
40
0.0
41
0.0
42
0.0
10
81.586799621582
20
70.8332977294922
40
0.0
41
0.0
42
0.0
10
81.6716003417969
20
70.4837036132812
40
0.0
41
0.0
42
0.0
10
81.7169036865234
20
70.0994033813477
40
0.0
41
0.0
42
0.0
10
81.7530975341797
20
69.9876022338867
40
0.0
41
0.0
42
0.0
10
81.7378005981445
20
69.6344985961914
40
0.0
41
0.0
42
0.0
10
81.7377014160156
20
69.5963973999023
40
0.0
41
0.0
42
0.0
10
81.7503967285156
20
69.5054016113281
40
0.0
41
0.0
42
0.0
10
81.6421966552734
20
69.1313018798828
40
0.0
41
0.0
42
0.0
10
81.6346969604492
20
69.0157012939453
40
0.0
41
0.0
42
0.0
10
81.5919036865234
20
68.8960037231445
40
0.0
41
0.0
42
0.0
10
81.5421981811523
20
68.8121032714844
40
0.0
41
0.0
42
0.0
10
81.4960021972656
20
68.7483978271484
40
0.0
41
0.0
42
0.0
10
81.2516021728516
20
68.5040969848633
40
0.0
41
0.0
42
0.0
10
81.0975036621094
20
68.3867034912109
40
0.0
41
0.0
42
0.0
10
81.0681991577148
20
68.3739013671875
40
0.0
41
0.0
42
0.0
10
80.9884033203125
20
68.3264007568359
40
0.0
41
0.0
42
0.0
10
80.611701965332
20
68.2174987792969
40
0.0
41
0.0
42
0.0
10
80.4820022583008
20
68.1975021362305
40
0.0
41
0.0
42
0.0
10
80.1598968505859
20
68.1834030151367
40
0.0
41
0.0
42
0.0
10
80.0169982910156
20
68.1890029907227
40
0.0
41
0.0
42
0.0
10
79.9011993408203
20
68.2172012329102
40
0.0
41
0.0
42
0.0
10
79.5139999389648
20
68.2628021240234
40
0.0
41
0.0
42
0.0
10
79.3977966308594
20
68.3187026977539
40
0.0
41
0.0
42
0.0
10
79.0145034790039
20
68.4116973876953
40
0.0
41
0.0
42
0.0
10
78.8834991455078
20
68.4505004882812
40
0.0
41
0.0
42
0.0
10
78.8059005737305
20
68.5035018920898
40
0.0
41
0.0
42
0.0
10
78.7656021118164
20
68.5412979125977
40
0.0
41
0.0
42
0.0
10
78.7425003051758
20
68.5530014038086
40
0.0
41
0.0
42
0.0
10
78.5124969482422
20
68.6380996704102
40
0.0
41
0.0
42
0.0
10
78.1628036499023
20
68.7710037231445
40
0.0
41
0.0
42
0.0
10
78.0085983276367
20
68.9413986206055
40
0.0
41
0.0
42
0.0
10
77.7732009887695
20
69.0010986328125
40
0.0
41
0.0
42
0.0
10
77.5105972290039
20
69.2950973510742
40
0.0
41
0.0
42
0.0
10
77.4897003173828
20
69.2950973510742
40
0.0
41
0.0
42
0.0
10
77.25
20
69.0115966796875
40
0.0
41
0.0
42
0.0
10
77.2301025390625
20
68.7431030273438
40
0.0
41
0.0
42
0.0
10
77.0921020507812
20
68.5102005004883
40
0.0
41
0.0
42
0.0
10
76.999397277832
20
68.309196472168
40
0.0
41
0.0
42
0.0
10
76.9375991821289
20
68.1308975219727
40
0.0
41
0.0
42
0.0
10
76.9375
20
68.0949020385742
40
0.0
41
0.0
42
0.0
10
76.9417037963867
20
68.0115966796875
40
0.0
41
0.0
42
0.0
10
76.9204025268555
20
67.9746017456055
40
0.0
41
0.0
42
0.0
10
76.7744979858398
20
67.6688003540039
40
0.0
41
0.0
42
0.0
10
76.7520980834961
20
67.5124969482422
40
0.0
41
0.0
42
0.0
10
76.5532989501953
20
67.2020034790039
40
0.0
41
0.0
42
0.0
10
76.5401000976562
20
67.1684036254883
40
0.0
41
0.0
42
0.0
10
76.4988021850586
20
67.0513000488281
40
0.0
41
0.0
42
0.0
10
76.4682998657227
20
67.0075988769531
40
0.0
41
0.0
42
0.0
10
76.1259994506836
20
66.6225967407227
40
0.0
41
0.0
42
0.0
10
76.0587997436523
20
66.5071029663086
40
0.0
41
0.0
42
0.0
10
76.0436019897461
20
66.4916000366211
40
0.0
41
0.0
42
0.0
10
75.9943008422852
20
66.4296035766602
40
0.0
41
0.0
42
0.0
10
75.6078033447266
20
66.1744003295898
40
0.0
41
0.0
42
0.0
10
75.5470962524414
20
66.1199035644531
40
0.0
41
0.0
42
0.0
10
75.4884033203125
20
66.0794982910156
40
0.0
41
0.0
42
0.0
10
75.2225036621094
20
66.0224990844727
40
0.0
41
0.0
42
0.0
10
75.1368026733398
20
65.9997024536133
40
0.0
41
0.0
42
0.0
10
74.9905014038086
20
65.9550018310547
40
0.0
41
0.0
42
0.0
10
74.9543991088867
20
65.9579010009766
40
0.0
41
0.0
42
0.0
10
74.7690963745117
20
65.9992980957031
40
0.0
41
0.0
42
0.0
10
74.5118026733398
20
66.0498962402344
40
0.0
41
0.0
42
0.0
10
74.3439025878906
20
66.1605987548828
40
0.0
41
0.0
42
0.0
10
74.0065994262695
20
66.3618011474609
40
0.0
41
0.0
42
0.0
10
73.8720016479492
20
66.5057983398438
40
0.0
41
0.0
42
0.0
10
73.5309982299805
20
66.8891983032227
40
0.0
41
0.0
42
0.0
10
73.4643020629883
20
67.0091018676758
40
0.0
41
0.0
42
0.0
10
73.2149963378906
20
67.3958969116211
40
0.0
41
0.0
42
0.0
10
73.1762008666992
20
67.5155029296875
40
0.0
41
0.0
42
0.0
10
73.1641006469727
20
67.6235961914062
40
0.0
41
0.0
42
0.0
10
73.0016021728516
20
67.966796875
40
0.0
41
0.0
42
0.0
10
72.9766006469727
20
68.0048980712891
40
0.0
41
0.0
42
0.0
10
72.9753036499023
20
68.0131988525391
40
0.0
41
0.0
42
0.0
10
72.7931976318359
20
68.3539962768555
40
0.0
41
0.0
42
0.0
10
72.8074035644531
20
68.4811019897461
40
0.0
41
0.0
42
0.0
10
72.8072967529297
20
68.5149993896484
40
0.0
41
0.0
42
0.0
10
72.6227035522461
20
68.8843994140625
40
0.0
41
0.0
42
0.0
10
72.6603012084961
20
68.9868011474609
40
0.0
41
0.0
42
0.0
10
72.7351989746094
20
69.2194976806641
40
0.0
41
0.0
42
0.0
10
72.7351989746094
20
69.2442016601562
40
0.0
41
0.0
42
0.0
10
72.5141983032227
20
69.3729019165039
40
0.0
41
0.0
42
0.0
10
72.486198425293
20
69.3731002807617
40
0.0
41
0.0
42
0.0
10
72.1201019287109
20
69.1306991577148
40
0.0
41
0.0
42
0.0
10
71.9953002929688
20
69.0261993408203
40
0.0
41
0.0
42
0.0
10
71.9791030883789
20
69.0050964355469
40
0.0
41
0.0
42
0.0
10
71.8177032470703
20
68.8795013427734
40
0.0
41
0.0
42
0.0
10
71.4900970458984
20
68.7552032470703
40
0.0
41
0.0
42
0.0
10
71.4720001220703
20
68.7417984008789
40
0.0
41
0.0
42
0.0
10
71.2419967651367
20
68.6566009521484
40
0.0
41
0.0
42
0.0
10
71.1054000854492
20
68.5344009399414
40
0.0
41
0.0
42
0.0
10
71.0291976928711
20
68.5001983642578
40
0.0
41
0.0
42
0.0
10
70.9870986938477
20
68.4877014160156
40
0.0
41
0.0
42
0.0
10
70.9393997192383
20
68.4671020507812
40
0.0
41
0.0
42
0.0
10
70.8332977294922
20
68.4130020141602
40
0.0
41
0.0
42
0.0
10
70.4859008789062
20
68.3286972045898
40
0.0
41
0.0
42
0.0
10
70.369499206543
20
68.290901184082
40
0.0
41
0.0
42
0.0
10
69.9825973510742
20
68.2453002929688
40
0.0
41
0.0
42
0.0
10
69.8753967285156
20
68.2304000854492
40
0.0
41
0.0
42
0.0
10
69.518798828125
20
68.2459030151367
40
0.0
41
0.0
42
0.0
10
69.4012985229492
20
68.2536010742188
40
0.0
41
0.0
42
0.0
10
69.0134963989258
20
68.3657989501953
40
0.0
41
0.0
42
0.0
10
68.8958969116211
20
68.4078979492188
40
0.0
41
0.0
42
0.0
10
68.8121032714844
20
68.4576034545898
40
0.0
41
0.0
42
0.0
10
68.7482986450195
20
68.5038986206055
40
0.0
41
0.0
42
0.0
10
68.5037994384766
20
68.7483978271484
40
0.0
41
0.0
42
0.0
10
68.375
20
68.9297027587891
40
0.0
41
0.0
42
0.0
10
68.3264007568359
20
69.0114974975586
40
0.0
41
0.0
42
0.0
10
68.2174987792969
20
69.3880996704102
40
0.0
41
0.0
42
0.0
10
68.1975021362305
20
69.5178985595703
40
0.0
41
0.0
42
0.0
10
68.1834030151367
20
69.8398971557617
40
0.0
41
0.0
42
0.0
10
68.1891021728516
20
69.9829025268555
40
0.0
41
0.0
42
0.0
10
68.2172012329102
20
70.0987014770508
40
0.0
41
0.0
42
0.0
10
68.2628021240234
20
70.4859008789062
40
0.0
41
0.0
42
0.0
10
68.3187026977539
20
70.6020965576172
40
0.0
41
0.0
42
0.0
10
68.4116973876953
20
70.9853973388672
40
0.0
41
0.0
42
0.0
10
68.4505004882812
20
71.1163024902344
40
0.0
41
0.0
42
0.0
10
68.5035018920898
20
71.1938018798828
40
0.0
41
0.0
42
0.0
10
68.5412979125977
20
71.2342987060547
40
0.0
41
0.0
42
0.0
10
68.5530014038086
20
71.2573013305664
40
0.0
41
0.0
42
0.0
10
68.6380996704102
20
71.4872970581055
40
0.0
41
0.0
42
0.0
10
68.7711029052734
20
71.8370971679688
40
0.0
41
0.0
42
0.0
10
68.9413986206055
20
71.9913024902344
40
0.0
41
0.0
42
0.0
10
69.0011978149414
20
72.2265014648438
40
0.0
41
0.0
42
0.0
10
69.2953033447266
20
72.4896011352539
40
0.0
41
0.0
42
0.0
10
69.3034973144531
20
72.8033981323242
40
0.0
41
0.0
42
0.0
10
69.2863006591797
20
72.8033981323242
40
0.0
41
0.0
42
0.0
10
68.9926986694336
20
72.7514038085938
40
0.0
41
0.0
42
0.0
10
68.7431030273438
20
72.7695999145508
40
0.0
41
0.0
42
0.0
10
68.5101013183594
20
72.907600402832
40
0.0
41
0.0
42
0.0
10
68.309196472168
20
73.0003967285156
40
0.0
41
0.0
42
0.0
10
68.1308975219727
20
73.0623016357422
40
0.0
41
0.0
42
0.0
10
68.0949020385742
20
73.0622024536133
40
0.0
41
0.0
42
0.0
10
68.0115966796875
20
73.0579986572266
40
0.0
41
0.0
42
0.0
10
67.9746017456055
20
73.0792999267578
40
0.0
41
0.0
42
0.0
10
67.6688003540039
20
73.2251968383789
40
0.0
41
0.0
42
0.0
10
67.5123977661133
20
73.2477035522461
40
0.0
41
0.0
42
0.0
10
67.2018966674805
20
73.446403503418
40
0.0
41
0.0
42
0.0
10
67.1684036254883
20
73.459602355957
40
0.0
41
0.0
42
0.0
10
67.0510025024414
20
73.5010986328125
40
0.0
41
0.0
42
0.0
10
67.0085983276367
20
73.5307998657227
40
0.0
41
0.0
42
0.0
10
66.8925018310547
20
73.5983963012695
40
0.0
41
0.0
42
0.0
10
66.4919967651367
20
73.9558029174805
40
0.0
41
0.0
42
0.0
10
66.4294967651367
20
74.005500793457
40
0.0
41
0.0
42
0.0
10
66.1743011474609
20
74.3919982910156
40
0.0
41
0.0
42
0.0
10
66.1197967529297
20
74.4526977539062
40
0.0
41
0.0
42
0.0
10
66.0794982910156
20
74.5114974975586
40
0.0
41
0.0
42
0.0
10
66.0224990844727
20
74.7771987915039
40
0.0
41
0.0
42
0.0
10
65.9997024536133
20
74.8629989624023
40
0.0
41
0.0
42
0.0
10
65.9550018310547
20
75.0093994140625
40
0.0
41
0.0
42
0.0
10
65.9579010009766
20
75.0454025268555
40
0.0
41
0.0
42
0.0
10
65.9992980957031
20
75.2306976318359
40
0.0
41
0.0
42
0.0
210
0.0
220
0.0
230
1.0
0
LWPOLYLINE
5
26
330
1C
100
AcDbEntity
67
0
8
0
62
256
6
ByLayer
370
-1
48
1.0
60
0
100
AcDbPolyline
90
10
70
1
38
0.0
39
0.0
10
70.2573013305664
20
72.9979019165039
40
0.0
41
0.0
42
0.0
10
70.4485015869141
20
72.967903137207
40
0.0
41
0.0
42
0.0
10
70.4820022583008
20
72.9677963256836
40
0.0
41
0.0
42
0.0
10
70.5143966674805
20
72.9837036132812
40
0.0
41
0.0
42
0.0
10
70.7396011352539
20
72.9994964599609
40
0.0
41
0.0
42
0.0
10
70.7394027709961
20
73.0084991455078
40
0.0
41
0.0
42
0.0
10
70.5137023925781
20
73.1564025878906
40
0.0
41
0.0
42
0.0
10
70.4860992431641
20
73.1564025878906
40
0.0
41
0.0
42
0.0
10
70.2574005126953
20
73.0084991455078
40
0.0
41
0.0
42
0.0
10
70.2573013305664
20
72.9979019165039
40
0.0
41
0.0
42
0.0
210
0.0
220
0.0
230
1.0
0
LWPOLYLINE
5
27
330
1C
100
AcDbEntity
67
0
8
0
62
256
6
ByLayer
370
-1
48
1.0
60
0
100
AcDbPolyline
90
276
70
1
38
0.0
39
0.0
10
70.4929962158203
20
76.8818969726562
40
0.0
41
0.0
42
0.0
10
70.8707962036133
20
76.8785018920898
40
0.0
41
0.0
42
0.0
10
70.6748962402344
20
76.5345001220703
40
0.0
41
0.0
42
0.0
10
70.660400390625
20
76.5133972167969
40
0.0
41
0.0
42
0.0
10
70.6603012084961
20
76.493896484375
40
0.0
41
0.0
42
0.0
10
70.7995986938477
20
76.4356002807617
40
0.0
41
0.0
42
0.0
10
70.8343963623047
20
76.4156036376953
40
0.0
41
0.0
42
0.0
10
70.9919967651367
20
76.345100402832
40
0.0
41
0.0
42
0.0
10
71.3210983276367
20
76.0186004638672
40
0.0
41
0.0
42
0.0
10
71.3519973754883
20
75.9984970092773
40
0.0
41
0.0
42
0.0
10
71.472297668457
20
75.9477996826172
40
0.0
41
0.0
42
0.0
10
71.8345031738281
20
75.7370986938477
40
0.0
41
0.0
42
0.0
10
71.9901962280273
20
75.6677017211914
40
0.0
41
0.0
42
0.0
10
72.1856994628906
20
75.5327987670898
40
0.0
41
0.0
42
0.0
10
72.2508010864258
20
75.4977035522461
40
0.0
41
0.0
42
0.0
10
72.4909973144531
20
75.3261032104492
40
0.0
41
0.0
42
0.0
10
72.8347015380859
20
75.1414031982422
40
0.0
41
0.0
42
0.0
10
72.9880981445312
20
75.0622024536133
40
0.0
41
0.0
42
0.0
10
73.1508026123047
20
75.0082015991211
40
0.0
41
0.0
42
0.0
10
73.1508026123047
20
74.9919967651367
40
0.0
41
0.0
42
0.0
10
73.0160980224609
20
74.9469985961914
40
0.0
41
0.0
42
0.0
10
72.9862976074219
20
74.9389038085938
40
0.0
41
0.0
42
0.0
10
72.8336029052734
20
74.8831024169922
40
0.0
41
0.0
42
0.0
10
72.4897003173828
20
74.6981964111328
40
0.0
41
0.0
42
0.0
10
72.3358993530273
20
74.619499206543
40
0.0
41
0.0
42
0.0
10
72.1731033325195
20
74.502799987793
40
0.0
41
0.0
42
0.0
10
71.9904022216797
20
74.3766021728516
40
0.0
41
0.0
42
0.0
10
71.8347015380859
20
74.304801940918
40
0.0
41
0.0
42
0.0
10
71.4890975952148
20
74.1027984619141
40
0.0
41
0.0
42
0.0
10
71.3339004516602
20
74.0438003540039
40
0.0
41
0.0
42
0.0
10
71.2606964111328
20
74.0029983520508
40
0.0
41
0.0
42
0.0
10
70.9928970336914
20
73.7375030517578
40
0.0
41
0.0
42
0.0
10
70.8554992675781
20
73.6566009521484
40
0.0
41
0.0
42
0.0
10
70.5715026855469
20
73.5073013305664
40
0.0
41
0.0
42
0.0
10
70.571403503418
20
73.4880981445312
40
0.0
41
0.0
42
0.0
10
70.9904022216797
20
73.0371017456055
40
0.0
41
0.0
42
0.0
10
71.011100769043
20
73.0371017456055
40
0.0
41
0.0
42
0.0
10
71.2113037109375
20
73.2434005737305
40
0.0
41
0.0
42
0.0
10
71.4837036132812
20
73.1424026489258
40
0.0
41
0.0
42
0.0
10
71.5137023925781
20
73.1423034667969
40
0.0
41
0.0
42
0.0
10
71.5494995117188
20
73.1657028198242
40
0.0
41
0.0
42
0.0
10
71.6705017089844
20
73.2113037109375
40
0.0
41
0.0
42
0.0
10
72.0175018310547
20
73.2332000732422
40
0.0
41
0.0
42
0.0
10
72.3599014282227
20
73.2936019897461
40
0.0
41
0.0
42
0.0
10
72.5126037597656
20
73.3416976928711
40
0.0
41
0.0
42
0.0
10
72.655403137207
20
73.4039993286133
40
0.0
41
0.0
42
0.0
10
72.9321975708008
20
73.4999008178711
40
0.0
41
0.0
42
0.0
10
73.0150985717773
20
73.5242004394531
40
0.0
41
0.0
42
0.0
10
73.361701965332
20
73.5879974365234
40
0.0
41
0.0
42
0.0
10
73.4921035766602
20
73.6054000854492
40
0.0
41
0.0
42
0.0
10
73.5791015625
20
73.5185012817383
40
0.0
41
0.0
42
0.0
10
73.5988998413086
20
73.4931030273438
40
0.0
41
0.0
42
0.0
10
73.5392990112305
20
73.1701965332031
40
0.0
41
0.0
42
0.0
10
73.4997024536133
20
73.0317001342773
40
0.0
41
0.0
42
0.0
10
73.459098815918
20
72.9427032470703
40
0.0
41
0.0
42
0.0
10
73.363899230957
20
72.6679000854492
40
0.0
41
0.0
42
0.0
10
73.3072967529297
20
72.5145034790039
40
0.0
41
0.0
42
0.0
10
73.2465972900391
20
72.1691970825195
40
0.0
41
0.0
42
0.0
10
73.1844024658203
20
72.0130996704102
40
0.0
41
0.0
42
0.0
10
73.0820007324219
20
71.6649017333984
40
0.0
41
0.0
42
0.0
10
73.0726013183594
20
71.5171966552734
40
0.0
41
0.0
42
0.0
10
73.000602722168
20
71.1639022827148
40
0.0
41
0.0
42
0.0
10
72.9839019775391
20
71.0511016845703
40
0.0
41
0.0
42
0.0
10
72.9445037841797
20
70.9592971801758
40
0.0
41
0.0
42
0.0
10
72.9461975097656
20
70.5151977539062
40
0.0
41
0.0
42
0.0
10
72.9031982421875
20
70.4177017211914
40
0.0
41
0.0
42
0.0
10
72.9030990600586
20
70.3876037597656
40
0.0
41
0.0
42
0.0
10
72.992301940918
20
70.2277984619141
40
0.0
41
0.0
42
0.0
10
73.0062026977539
20
70.2277984619141
40
0.0
41
0.0
42
0.0
10
73.1176986694336
20
70.4843978881836
40
0.0
41
0.0
42
0.0
10
73.1213989257812
20
70.8706970214844
40
0.0
41
0.0
42
0.0
10
73.4654006958008
20
70.6748962402344
40
0.0
41
0.0
42
0.0
10
73.4865036010742
20
70.660400390625
40
0.0
41
0.0
42
0.0
10
73.5059967041016
20
70.6603012084961
40
0.0
41
0.0
42
0.0
10
73.5641021728516
20
70.7996978759766
40
0.0
41
0.0
42
0.0
10
73.584098815918
20
70.8345031738281
40
0.0
41
0.0
42
0.0
10
73.6546020507812
20
70.9919967651367
40
0.0
41
0.0
42
0.0
10
73.9811019897461
20
71.3211975097656
40
0.0
41
0.0
42
0.0
10
74.0012969970703
20
71.3520965576172
40
0.0
41
0.0
42
0.0
10
74.0518035888672
20
71.4719009399414
40
0.0
41
0.0
42
0.0
10
74.0607986450195
20
71.4890975952148
40
0.0
41
0.0
42
0.0
10
74.1300964355469
20
71.6445999145508
40
0.0
41
0.0
42
0.0
10
74.3327026367188
20
71.9912033081055
40
0.0
41
0.0
42
0.0
10
74.4669036865234
20
72.1856994628906
40
0.0
41
0.0
42
0.0
10
74.5020980834961
20
72.2509002685547
40
0.0
41
0.0
42
0.0
10
74.6735000610352
20
72.4908981323242
40
0.0
41
0.0
42
0.0
10
74.7528991699219
20
72.6446990966797
40
0.0
41
0.0
42
0.0
10
74.9375
20
72.9882965087891
40
0.0
41
0.0
42
0.0
10
74.9917984008789
20
73.1508026123047
40
0.0
41
0.0
42
0.0
10
75.0080032348633
20
73.1508026123047
40
0.0
41
0.0
42
0.0
10
75.0526962280273
20
73.0160980224609
40
0.0
41
0.0
42
0.0
10
75.0604019165039
20
72.9877014160156
40
0.0
41
0.0
42
0.0
10
75.2454986572266
20
72.6436004638672
40
0.0
41
0.0
42
0.0
10
75.3022003173828
20
72.4882965087891
40
0.0
41
0.0
42
0.0
10
75.3803024291992
20
72.3358993530273
40
0.0
41
0.0
42
0.0
10
75.4971008300781
20
72.1731033325195
40
0.0
41
0.0
42
0.0
10
75.6231002807617
20
71.9903030395508
40
0.0
41
0.0
42
0.0
10
75.6949005126953
20
71.834602355957
40
0.0
41
0.0
42
0.0
10
75.8968963623047
20
71.4889984130859
40
0.0
41
0.0
42
0.0
10
75.9559020996094
20
71.3338012695312
40
0.0
41
0.0
42
0.0
10
75.9968032836914
20
71.2606964111328
40
0.0
41
0.0
42
0.0
10
76.2624969482422
20
70.9925994873047
40
0.0
41
0.0
42
0.0
10
76.4924011230469
20
70.5715026855469
40
0.0
41
0.0
42
0.0
10
76.5117034912109
20
70.5715026855469
40
0.0
41
0.0
42
0.0
10
76.9626998901367
20
70.9904022216797
40
0.0
41
0.0
42
0.0
10
76.9626998901367
20
71.0110015869141
40
0.0
41
0.0
42
0.0
10
76.7563018798828
20
71.2113037109375
40
0.0
41
0.0
42
0.0
10
76.8574981689453
20
71.4837036132812
40
0.0
41
0.0
42
0.0
10
76.8573989868164
20
71.5137023925781
40
0.0
41
0.0
42
0.0
10
76.8339996337891
20
71.5494995117188
40
0.0
41
0.0
42
0.0
10
76.7883987426758
20
71.6705017089844
40
0.0
41
0.0
42
0.0
10
76.7666015625
20
72.015998840332
40
0.0
41
0.0
42
0.0
10
76.7180023193359
20
72.1698989868164
40
0.0
41
0.0
42
0.0
10
76.6575012207031
20
72.513801574707
40
0.0
41
0.0
42
0.0
10
76.595703125
20
72.655403137207
40
0.0
41
0.0
42
0.0
10
76.4999008178711
20
72.9320983886719
40
0.0
41
0.0
42
0.0
10
76.4754028320312
20
73.0156021118164
40
0.0
41
0.0
42
0.0
10
76.4545974731445
20
73.1716003417969
40
0.0
41
0.0
42
0.0
10
76.3954010009766
20
73.4932022094727
40
0.0
41
0.0
42
0.0
10
76.4813995361328
20
73.5791015625
40
0.0
41
0.0
42
0.0
10
76.5067977905273
20
73.5988998413086
40
0.0
41
0.0
42
0.0
10
76.8296966552734
20
73.5392990112305
40
0.0
41
0.0
42
0.0
10
76.9681015014648
20
73.4997024536133
40
0.0
41
0.0
42
0.0
10
77.0570983886719
20
73.459098815918
40
0.0
41
0.0
42
0.0
10
77.3320007324219
20
73.363899230957
40
0.0
41
0.0
42
0.0
10
77.4853973388672
20
73.3072967529297
40
0.0
41
0.0
42
0.0
10
77.8307037353516
20
73.2464981079102
40
0.0
41
0.0
42
0.0
10
77.9868011474609
20
73.1844024658203
40
0.0
41
0.0
42
0.0
10
78.3348999023438
20
73.0820007324219
40
0.0
41
0.0
42
0.0
10
78.4826965332031
20
73.0726013183594
40
0.0
41
0.0
42
0.0
10
78.8358993530273
20
73.000602722168
40
0.0
41
0.0
42
0.0
10
78.9486999511719
20
72.9839019775391
40
0.0
41
0.0
42
0.0
10
79.0404968261719
20
72.9445037841797
40
0.0
41
0.0
42
0.0
10
79.5177993774414
20
72.9462966918945
40
0.0
41
0.0
42
0.0
10
79.772102355957
20
72.997200012207
40
0.0
41
0.0
42
0.0
10
79.7720031738281
20
73.0020980834961
40
0.0
41
0.0
42
0.0
10
79.5447998046875
20
73.0400009155273
40
0.0
41
0.0
42
0.0
10
79.5067977905273
20
73.1177978515625
40
0.0
41
0.0
42
0.0
10
79.1288986206055
20
73.1212997436523
40
0.0
41
0.0
42
0.0
10
79.3248977661133
20
73.4654006958008
40
0.0
41
0.0
42
0.0
10
79.3395004272461
20
73.4865036010742
40
0.0
41
0.0
42
0.0
10
79.3394012451172
20
73.5059967041016
40
0.0
41
0.0
42
0.0
10
79.2001037597656
20
73.5641021728516
40
0.0
41
0.0
42
0.0
10
79.165397644043
20
73.584098815918
40
0.0
41
0.0
42
0.0
10
79.0077972412109
20
73.6546020507812
40
0.0
41
0.0
42
0.0
10
78.6784973144531
20
73.9811019897461
40
0.0
41
0.0
42
0.0
10
78.6476974487305
20
74.0012969970703
40
0.0
41
0.0
42
0.0
10
78.5279006958008
20
74.0518035888672
40
0.0
41
0.0
42
0.0
10
78.5108032226562
20
74.0607986450195
40
0.0
41
0.0
42
0.0
10
78.3553009033203
20
74.1300964355469
40
0.0
41
0.0
42
0.0
10
78.0085983276367
20
74.3327026367188
40
0.0
41
0.0
42
0.0
10
77.8141021728516
20
74.4669036865234
40
0.0
41
0.0
42
0.0
10
77.7489013671875
20
74.5019989013672
40
0.0
41
0.0
42
0.0
10
77.508903503418
20
74.6734008789062
40
0.0
41
0.0
42
0.0
10
77.3551025390625
20
74.752799987793
40
0.0
41
0.0
42
0.0
10
77.0115966796875
20
74.9375
40
0.0
41
0.0
42
0.0
10
76.8490982055664
20
74.9917984008789
40
0.0
41
0.0
42
0.0
10
76.8490982055664
20
75.0080032348633
40
0.0
41
0.0
42
0.0
10
76.9837036132812
20
75.0526962280273
40
0.0
41
0.0
42
0.0
10
77.0121002197266
20
75.0604019165039
40
0.0
41
0.0
42
0.0
10
77.3563003540039
20
75.2455978393555
40
0.0
41
0.0
42
0.0
10
77.5115966796875
20
75.3022994995117
40
0.0
41
0.0
42
0.0
10
77.6640014648438
20
75.3803024291992
40
0.0
41
0.0
42
0.0
10
77.8266983032227
20
75.4971008300781
40
0.0
41
0.0
42
0.0
10
78.0094985961914
20
75.6231002807617
40
0.0
41
0.0
42
0.0
10
78.1651992797852
20
75.6949996948242
40
0.0
41
0.0
42
0.0
10
78.5109024047852
20
75.8968963623047
40
0.0
41
0.0
42
0.0
10
78.6660003662109
20
75.9559020996094
40
0.0
41
0.0
42
0.0
10
78.7390975952148
20
75.9969024658203
40
0.0
41
0.0
42
0.0
10
79.0071029663086
20
76.2622985839844
40
0.0
41
0.0
42
0.0
10
79.144401550293
20
76.3432006835938
40
0.0
41
0.0
42
0.0
10
79.4282989501953
20
76.4925994873047
40
0.0
41
0.0
42
0.0
10
79.4281997680664
20
76.5117034912109
40
0.0
41
0.0
42
0.0
10
79.0091018676758
20
76.9626998901367
40
0.0
41
0.0
42
0.0
10
78.9888000488281
20
76.9626998901367
40
0.0
41
0.0
42
0.0
10
78.7884979248047
20
76.7562026977539
40
0.0
41
0.0
42
0.0
10
78.5161972045898
20
76.8574981689453
40
0.0
41
0.0
42
0.0
10
78.486198425293
20
76.8573989868164
40
0.0
41
0.0
42
0.0
10
78.4503021240234
20
76.834098815918
40
0.0
41
0.0
42
0.0
10
78.3293991088867
20
76.7884979248047
40
0.0
41
0.0
42
0.0
10
77.9838027954102
20
76.7666015625
40
0.0
41
0.0
42
0.0
10
77.8300018310547
20
76.7180023193359
40
0.0
41
0.0
42
0.0
10
77.4860992431641
20
76.6575012207031
40
0.0
41
0.0
42
0.0
10
77.3443984985352
20
76.595703125
40
0.0
41
0.0
42
0.0
10
77.0677032470703
20
76.4999008178711
40
0.0
41
0.0
42
0.0
10
76.9842987060547
20
76.4754028320312
40
0.0
41
0.0
42
0.0
10
76.8282012939453
20
76.4546966552734
40
0.0
41
0.0
42
0.0
10
76.5066986083984
20
76.3953018188477
40
0.0
41
0.0
42
0.0
10
76.4207000732422
20
76.4813003540039
40
0.0
41
0.0
42
0.0
10
76.4008026123047
20
76.5067977905273
40
0.0
41
0.0
42
0.0
10
76.4604034423828
20
76.8298034667969
40
0.0
41
0.0
42
0.0
10
76.5001983642578
20
76.9681015014648
40
0.0
41
0.0
42
0.0
10
76.5406036376953
20
77.0571975708008
40
0.0
41
0.0
42
0.0
10
76.6358032226562
20
77.3320007324219
40
0.0
41
0.0
42
0.0
10
76.692497253418
20
77.4854965209961
40
0.0
41
0.0
42
0.0
10
76.7531967163086
20
77.8307037353516
40
0.0
41
0.0
42
0.0
10
76.815299987793
20
77.9868011474609
40
0.0
41
0.0
42
0.0
10
76.9177017211914
20
78.3348999023438
40
0.0
41
0.0
42
0.0
10
76.9271011352539
20
78.4826965332031
40
0.0
41
0.0
42
0.0
10
76.9991989135742
20
78.8358993530273
40
0.0
41
0.0
42
0.0
10
77.0158004760742
20
78.9486999511719
40
0.0
41
0.0
42
0.0
10
77.0551986694336
20
79.0404968261719
40
0.0
41
0.0
42
0.0
10
77.053596496582
20
79.4848022460938
40
0.0
41
0.0
42
0.0
10
77.0967025756836
20
79.5820999145508
40
0.0
41
0.0
42
0.0
10
77.0966033935547
20
79.6121978759766
40
0.0
41
0.0
42
0.0
10
77.0075988769531
20
79.772102355957
40
0.0
41
0.0
42
0.0
10
76.9936981201172
20
79.772102355957
40
0.0
41
0.0
42
0.0
10
76.8820037841797
20
79.5155029296875
40
0.0
41
0.0
42
0.0
10
76.8786010742188
20
79.1287994384766
40
0.0
41
0.0
42
0.0
10
76.5344009399414
20
79.3247985839844
40
0.0
41
0.0
42
0.0
10
76.5133972167969
20
79.3395004272461
40
0.0
41
0.0
42
0.0
10
76.493896484375
20
79.3395004272461
40
0.0
41
0.0
42
0.0
10
76.4356002807617
20
79.2001037597656
40
0.0
41
0.0
42
0.0
10
76.4156036376953
20
79.165397644043
40
0.0
41
0.0
42
0.0
10
76.3451995849609
20
79.0078964233398
40
0.0
41
0.0
42
0.0
10
76.0186004638672
20
78.678596496582
40
0.0
41
0.0
42
0.0
10
75.9984970092773
20
78.6477966308594
40
0.0
41
0.0
42
0.0
10
75.9478988647461
20
78.5274963378906
40
0.0
41
0.0
42
0.0
10
75.7370986938477
20
78.165397644043
40
0.0
41
0.0
42
0.0
10
75.6677017211914
20
78.0095977783203
40
0.0
41
0.0
42
0.0
10
75.5327987670898
20
77.8141021728516
40
0.0
41
0.0
42
0.0
10
75.497802734375
20
77.7489013671875
40
0.0
41
0.0
42
0.0
10
75.3262023925781
20
77.508903503418
40
0.0
41
0.0
42
0.0
10
75.1414031982422
20
77.1651992797852
40
0.0
41
0.0
42
0.0
10
75.0623016357422
20
77.0118026733398
40
0.0
41
0.0
42
0.0
10
75.0082015991211
20
76.8490982055664
40
0.0
41
0.0
42
0.0
10
74.9919967651367
20
76.8490982055664
40
0.0
41
0.0
42
0.0
10
74.9469985961914
20
76.9837036132812
40
0.0
41
0.0
42
0.0
10
74.9387969970703
20
77.0134963989258
40
0.0
41
0.0
42
0.0
10
74.8830032348633
20
77.1662979125977
40
0.0
41
0.0
42
0.0
10
74.6980972290039
20
77.5102005004883
40
0.0
41
0.0
42
0.0
10
74.6194000244141
20
77.6640014648438
40
0.0
41
0.0
42
0.0
10
74.5027008056641
20
77.8265991210938
40
0.0
41
0.0
42
0.0
10
74.3766021728516
20
78.0094985961914
40
0.0
41
0.0
42
0.0
10
74.304801940918
20
78.1651992797852
40
0.0
41
0.0
42
0.0
10
74.1027984619141
20
78.5108032226562
40
0.0
41
0.0
42
0.0
10
74.0438003540039
20
78.6660003662109
40
0.0
41
0.0
42
0.0
10
74.0029983520508
20
78.7390975952148
40
0.0
41
0.0
42
0.0
10
73.7375030517578
20
79.0070037841797
40
0.0
41
0.0
42
0.0
10
73.6566009521484
20
79.1443023681641
40
0.0
41
0.0
42
0.0
10
73.5073013305664
20
79.4282989501953
40
0.0
41
0.0
42
0.0
10
73.4881973266602
20
79.4282989501953
40
0.0
41
0.0
42
0.0
10
73.0370025634766
20
79.0093002319336
40
0.0
41
0.0
42
0.0
10
73.0370025634766
20
78.9888000488281
40
0.0
41
0.0
42
0.0
10
73.2434005737305
20
78.7884979248047
40
0.0
41
0.0
42
0.0
10
73.1424026489258
20
78.5161972045898
40
0.0
41
0.0
42
0.0
10
73.1423034667969
20
78.486198425293
40
0.0
41
0.0
42
0.0
10
73.1656036376953
20
78.4503021240234
40
0.0
41
0.0
42
0.0
10
73.2113037109375
20
78.3293991088867
40
0.0
41
0.0
42
0.0
10
73.2331008911133
20
77.9823989868164
40
0.0
41
0.0
42
0.0
10
73.2936019897461
20
77.6399002075195
40
0.0
41
0.0
42
0.0
10
73.3416976928711
20
77.4872970581055
40
0.0
41
0.0
42
0.0
10
73.4039993286133
20
77.3443984985352
40
0.0
41
0.0
42
0.0
10
73.4999008178711
20
77.0675964355469
40
0.0
41
0.0
42
0.0
10
73.5242004394531
20
76.9848022460938
40
0.0
41
0.0
42
0.0
10
73.5879974365234
20
76.6381988525391
40
0.0
41
0.0
42
0.0
10
73.6054000854492
20
76.507698059082
40
0.0
41
0.0
42
0.0
10
73.5185012817383
20
76.4207000732422
40
0.0
41
0.0
42
0.0
10
73.4932022094727
20
76.4008026123047
40
0.0
41
0.0
42
0.0
10
73.1700973510742
20
76.4602966308594
40
0.0
41
0.0
42
0.0
10
73.0316009521484
20
76.5000991821289
40
0.0
41
0.0
42
0.0
10
72.9425964355469
20
76.5406036376953
40
0.0
41
0.0
42
0.0
10
72.6678009033203
20
76.6358032226562
40
0.0
41
0.0
42
0.0
10
72.5143966674805
20
76.692497253418
40
0.0
41
0.0
42
0.0
10
72.1691970825195
20
76.7530975341797
40
0.0
41
0.0
42
0.0
10
72.0130996704102
20
76.815299987793
40
0.0
41
0.0
42
0.0
10
71.6649017333984
20
76.9177017211914
40
0.0
41
0.0
42
0.0
10
71.5171966552734
20
76.927001953125
40
0.0
41
0.0
42
0.0
10
71.1639022827148
20
76.9991989135742
40
0.0
41
0.0
42
0.0
10
71.0511016845703
20
77.0158004760742
40
0.0
41
0.0
42
0.0
10
70.9592971801758
20
77.0551986694336
40
0.0
41
0.0
42
0.0
10
70.4821014404297
20
77.0534973144531
40
0.0
41
0.0
42
0.0
10
70.2277984619141
20
77.0027008056641
40
0.0
41
0.0
42
0.0
10
70.2276992797852
20
76.9977035522461
40
0.0
41
0.0
42
0.0
10
70.4549026489258
20
76.9597015380859
40
0.0
41
0.0
42
0.0
10
70.4929962158203
20
76.8818969726562
40
0.0
41
0.0
42
0.0
210
0.0
220
0.0
230
1.0
0
LWPOLYLINE
5
28
330
1C
100
AcDbEntity
67
0
8
0
62
256
6
ByLayer
370
-1
48
1.0
60
0
100
AcDbPolyline
90
241
70
1
38
0.0
39
0.0
10
70.9352035522461
20
73.6351013183594
40
0.0
41
0.0
42
0.0
10
71.0070037841797
20
73.6779022216797
40
0.0
41
0.0
42
0.0
10
71.3287963867188
20
73.9969024658203
40
0.0
41
0.0
42
0.0
10
71.3961029052734
20
74.0342025756836
40
0.0
41
0.0
42
0.0
10
71.5109024047852
20
74.0779037475586
40
0.0
41
0.0
42
0.0
10
71.8953018188477
20
74.3024978637695
40
0.0
41
0.0
42
0.0
10
72.0094985961914
20
74.3552017211914
40
0.0
41
0.0
42
0.0
10
72.2151031494141
20
74.4971008300781
40
0.0
41
0.0
42
0.0
10
72.3939971923828
20
74.625
40
0.0
41
0.0
42
0.0
10
72.5102005004883
20
74.6844024658203
40
0.0
41
0.0
42
0.0
10
72.8963012695312
20
74.8920974731445
40
0.0
41
0.0
42
0.0
10
73.0136032104492
20
74.9348983764648
40
0.0
41
0.0
42
0.0
10
73.0362014770508
20
74.9411010742188
40
0.0
41
0.0
42
0.0
10
73.1984024047852
20
74.9951019287109
40
0.0
41
0.0
42
0.0
10
73.1983032226562
20
75.0046997070312
40
0.0
41
0.0
42
0.0
10
73.0117034912109
20
75.0669021606445
40
0.0
41
0.0
42
0.0
10
72.8951034545898
20
75.1270980834961
40
0.0
41
0.0
42
0.0
10
72.5087966918945
20
75.3348999023438
40
0.0
41
0.0
42
0.0
10
72.2743988037109
20
75.5020980834961
40
0.0
41
0.0
42
0.0
10
72.2264022827148
20
75.5279006958008
40
0.0
41
0.0
42
0.0
10
72.0095977783203
20
75.6773986816406
40
0.0
41
0.0
42
0.0
10
71.8953018188477
20
75.728401184082
40
0.0
41
0.0
42
0.0
10
71.5096969604492
20
75.9536972045898
40
0.0
41
0.0
42
0.0
10
71.4919967651367
20
75.9630966186523
40
0.0
41
0.0
42
0.0
10
71.401496887207
20
76.0011978149414
40
0.0
41
0.0
42
0.0
10
71.372802734375
20
76.0199966430664
40
0.0
41
0.0
42
0.0
10
71.0078964233398
20
76.3817977905273
40
0.0
41
0.0
42
0.0
10
70.8954010009766
20
76.4321975708008
40
0.0
41
0.0
42
0.0
10
70.8571014404297
20
76.4542007446289
40
0.0
41
0.0
42
0.0
10
70.7455978393555
20
76.5007019042969
40
0.0
41
0.0
42
0.0
10
71.005500793457
20
76.9549026489258
40
0.0
41
0.0
42
0.0
10
71.0531997680664
20
76.9727020263672
40
0.0
41
0.0
42
0.0
10
71.4826965332031
20
76.8849029541016
40
0.0
41
0.0
42
0.0
10
71.722900390625
20
76.8696975708008
40
0.0
41
0.0
42
0.0
10
71.9868011474609
20
76.7921981811523
40
0.0
41
0.0
42
0.0
10
72.100700378418
20
76.7468032836914
40
0.0
41
0.0
42
0.0
10
72.4853973388672
20
76.6790008544922
40
0.0
41
0.0
42
0.0
10
72.5988006591797
20
76.6371994018555
40
0.0
41
0.0
42
0.0
10
72.9102020263672
20
76.529296875
40
0.0
41
0.0
42
0.0
10
72.9748992919922
20
76.4996032714844
40
0.0
41
0.0
42
0.0
10
73.0982971191406
20
76.4643020629883
40
0.0
41
0.0
42
0.0
10
73.4819030761719
20
76.3936004638672
40
0.0
41
0.0
42
0.0
10
73.5127029418945
20
76.3936004638672
40
0.0
41
0.0
42
0.0
10
73.5242004394531
20
76.4024963378906
40
0.0
41
0.0
42
0.0
10
73.6103973388672
20
76.4886016845703
40
0.0
41
0.0
42
0.0
10
73.6102981567383
20
76.5185012817383
40
0.0
41
0.0
42
0.0
10
73.595100402832
20
76.6315994262695
40
0.0
41
0.0
42
0.0
10
73.5243988037109
20
77.0150985717773
40
0.0
41
0.0
42
0.0
10
73.4999008178711
20
77.0998992919922
40
0.0
41
0.0
42
0.0
10
73.3936996459961
20
77.4060974121094
40
0.0
41
0.0
42
0.0
10
73.3473968505859
20
77.5124969482422
40
0.0
41
0.0
42
0.0
10
73.310302734375
20
77.6298980712891
40
0.0
41
0.0
42
0.0
10
73.2419967651367
20
78.0175018310547
40
0.0
41
0.0
42
0.0
10
73.2176971435547
20
78.4004974365234
40
0.0
41
0.0
42
0.0
10
73.1872024536133
20
78.481201171875
40
0.0
41
0.0
42
0.0
10
73.1734008789062
20
78.502799987793
40
0.0
41
0.0
42
0.0
10
73.2947998046875
20
78.8295974731445
40
0.0
41
0.0
42
0.0
10
73.2947006225586
20
78.8569030761719
40
0.0
41
0.0
42
0.0
10
73.1504974365234
20
78.9970016479492
40
0.0
41
0.0
42
0.0
10
73.4988021850586
20
79.320198059082
40
0.0
41
0.0
42
0.0
10
73.6132965087891
20
79.102897644043
40
0.0
41
0.0
42
0.0
10
73.6779022216797
20
78.9927978515625
40
0.0
41
0.0
42
0.0
10
73.9968032836914
20
78.6709976196289
40
0.0
41
0.0
42
0.0
10
74.0342025756836
20
78.6037979125977
40
0.0
41
0.0
42
0.0
10
74.0779037475586
20
78.4889984130859
40
0.0
41
0.0
42
0.0
10
74.3024978637695
20
78.1045989990234
40
0.0
41
0.0
42
0.0
10
74.3552017211914
20
77.9903030395508
40
0.0
41
0.0
42
0.0
10
74.4971008300781
20
77.7846984863281
40
0.0
41
0.0
42
0.0
10
74.6249008178711
20
77.6057968139648
40
0.0
41
0.0
42
0.0
10
74.6866989135742
20
77.4852981567383
40
0.0
41
0.0
42
0.0
10
74.8919982910156
20
77.1035995483398
40
0.0
41
0.0
42
0.0
10
74.9348983764648
20
76.9862976074219
40
0.0
41
0.0
42
0.0
10
74.9410018920898
20
76.9636001586914
40
0.0
41
0.0
42
0.0
10
74.9951019287109
20
76.8014984130859
40
0.0
41
0.0
42
0.0
10
75.0047988891602
20
76.8014984130859
40
0.0
41
0.0
42
0.0
10
75.0669021606445
20
76.9880981445312
40
0.0
41
0.0
42
0.0
10
75.127197265625
20
77.1046981811523
40
0.0
41
0.0
42
0.0
10
75.3348999023438
20
77.4909973144531
40
0.0
41
0.0
42
0.0
10
75.5020980834961
20
77.7254028320312
40
0.0
41
0.0
42
0.0
10
75.5279006958008
20
77.7733993530273
40
0.0
41
0.0
42
0.0
10
75.6774978637695
20
77.9903030395508
40
0.0
41
0.0
42
0.0
10
75.728401184082
20
78.1045989990234
40
0.0
41
0.0
42
0.0
10
75.9537963867188
20
78.4901962280273
40
0.0
41
0.0
42
0.0
10
75.9630966186523
20
78.5077972412109
40
0.0
41
0.0
42
0.0
10
76.0012969970703
20
78.5982971191406
40
0.0
41
0.0
42
0.0
10
76.0199966430664
20
78.6269989013672
40
0.0
41
0.0
42
0.0
10
76.3818969726562
20
78.9919967651367
40
0.0
41
0.0
42
0.0
10
76.4322967529297
20
79.1044998168945
40
0.0
41
0.0
42
0.0
10
76.4542007446289
20
79.1427993774414
40
0.0
41
0.0
42
0.0
10
76.5008010864258
20
79.2539978027344
40
0.0
41
0.0
42
0.0
10
76.9549026489258
20
78.9943008422852
40
0.0
41
0.0
42
0.0
10
76.9727020263672
20
78.9467010498047
40
0.0
41
0.0
42
0.0
10
76.8849029541016
20
78.5171966552734
40
0.0
41
0.0
42
0.0
10
76.8696975708008
20
78.2769012451172
40
0.0
41
0.0
42
0.0
10
76.7921981811523
20
78.0130996704102
40
0.0
41
0.0
42
0.0
10
76.7468032836914
20
77.8992004394531
40
0.0
41
0.0
42
0.0
10
76.6791000366211
20
77.5145034790039
40
0.0
41
0.0
42
0.0
10
76.636100769043
20
77.3979034423828
40
0.0
41
0.0
42
0.0
10
76.5291976928711
20
77.0896987915039
40
0.0
41
0.0
42
0.0
10
76.4996032714844
20
77.0250015258789
40
0.0
41
0.0
42
0.0
10
76.4643020629883
20
76.9013977050781
40
0.0
41
0.0
42
0.0
10
76.3936004638672
20
76.5179977416992
40
0.0
41
0.0
42
0.0
10
76.3934020996094
20
76.4870986938477
40
0.0
41
0.0
42
0.0
10
76.4024963378906
20
76.4755020141602
40
0.0
41
0.0
42
0.0
10
76.4886016845703
20
76.3895034790039
40
0.0
41
0.0
42
0.0
10
76.5179977416992
20
76.3893966674805
40
0.0
41
0.0
42
0.0
10
76.9017028808594
20
76.4601974487305
40
0.0
41
0.0
42
0.0
10
77.0156021118164
20
76.4754028320312
40
0.0
41
0.0
42
0.0
10
77.0998992919922
20
76.4999008178711
40
0.0
41
0.0
42
0.0
10
77.4060974121094
20
76.6060028076172
40
0.0
41
0.0
42
0.0
10
77.5139007568359
20
76.6528015136719
40
0.0
41
0.0
42
0.0
10
77.89990234375
20
76.7210006713867
40
0.0
41
0.0
42
0.0
10
78.0160980224609
20
76.7575988769531
40
0.0
41
0.0
42
0.0
10
78.4004974365234
20
76.7819976806641
40
0.0
41
0.0
42
0.0
10
78.4813003540039
20
76.8125
40
0.0
41
0.0
42
0.0
10
78.502799987793
20
76.826301574707
40
0.0
41
0.0
42
0.0
10
78.8295974731445
20
76.7051010131836
40
0.0
41
0.0
42
0.0
10
78.8570022583008
20
76.7051010131836
40
0.0
41
0.0
42
0.0
10
78.9970016479492
20
76.8491973876953
40
0.0
41
0.0
42
0.0
10
79.3203964233398
20
76.5009994506836
40
0.0
41
0.0
42
0.0
10
79.102897644043
20
76.3864974975586
40
0.0
41
0.0
42
0.0
10
78.9928970336914
20
76.3218994140625
40
0.0
41
0.0
42
0.0
10
78.6710968017578
20
76.0029983520508
40
0.0
41
0.0
42
0.0
10
78.6038970947266
20
75.9654998779297
40
0.0
41
0.0
42
0.0
10
78.4890975952148
20
75.9217987060547
40
0.0
41
0.0
42
0.0
10
78.1046981811523
20
75.6971969604492
40
0.0
41
0.0
42
0.0
10
77.9904022216797
20
75.6445007324219
40
0.0
41
0.0
42
0.0
10
77.7846984863281
20
75.502799987793
40
0.0
41
0.0
42
0.0
10
77.6059036254883
20
75.3748016357422
40
0.0
41
0.0
42
0.0
10
77.4884033203125
20
75.3145980834961
40
0.0
41
0.0
42
0.0
10
77.3735961914062
20
75.2726974487305
40
0.0
41
0.0
42
0.0
10
76.9877014160156
20
75.0652008056641
40
0.0
41
0.0
42
0.0
10
76.9636001586914
20
75.0587005615234
40
0.0
41
0.0
42
0.0
10
76.8014984130859
20
75.0047988891602
40
0.0
41
0.0
42
0.0
10
76.801399230957
20
74.9951019287109
40
0.0
41
0.0
42
0.0
10
76.9882965087891
20
74.9327011108398
40
0.0
41
0.0
42
0.0
10
77.3747024536133
20
74.7249984741211
40
0.0
41
0.0
42
0.0
10
77.4908981323242
20
74.6649017333984
40
0.0
41
0.0
42
0.0
10
77.7253036499023
20
74.4977035522461
40
0.0
41
0.0
42
0.0
10
77.7733993530273
20
74.4718017578125
40
0.0
41
0.0
42
0.0
10
77.9912033081055
20
74.3216018676758
40
0.0
41
0.0
42
0.0
10
78.3744964599609
20
74.0976028442383
40
0.0
41
0.0
42
0.0
10
78.4890975952148
20
74.046501159668
40
0.0
41
0.0
42
0.0
10
78.507698059082
20
74.0365982055664
40
0.0
41
0.0
42
0.0
10
78.5981979370117
20
73.9984970092773
40
0.0
41
0.0
42
0.0
10
78.6269989013672
20
73.9796981811523
40
0.0
41
0.0
42
0.0
10
78.9919967651367
20
73.6178970336914
40
0.0
41
0.0
42
0.0
10
79.1044006347656
20
73.5673980712891
40
0.0
41
0.0
42
0.0
10
79.1427001953125
20
73.5457000732422
40
0.0
41
0.0
42
0.0
10
79.2540969848633
20
73.4991989135742
40
0.0
41
0.0
42
0.0
10
78.9944000244141
20
73.0447998046875
40
0.0
41
0.0
42
0.0
10
78.9467010498047
20
73.0270004272461
40
0.0
41
0.0
42
0.0
10
78.5171966552734
20
73.1147994995117
40
0.0
41
0.0
42
0.0
10
78.2769012451172
20
73.129997253418
40
0.0
41
0.0
42
0.0
10
78.0130996704102
20
73.2074966430664
40
0.0
41
0.0
42
0.0
10
77.8992004394531
20
73.2528991699219
40
0.0
41
0.0
42
0.0
10
77.5143966674805
20
73.3206024169922
40
0.0
41
0.0
42
0.0
10
77.3968963623047
20
73.3639984130859
40
0.0
41
0.0
42
0.0
10
77.089599609375
20
73.4704971313477
40
0.0
41
0.0
42
0.0
10
77.02490234375
20
73.5001983642578
40
0.0
41
0.0
42
0.0
10
76.9013977050781
20
73.535400390625
40
0.0
41
0.0
42
0.0
10
76.5179977416992
20
73.6063003540039
40
0.0
41
0.0
42
0.0
10
76.4870986938477
20
73.6063003540039
40
0.0
41
0.0
42
0.0
10
76.4738006591797
20
73.5955963134766
40
0.0
41
0.0
42
0.0
10
76.3895034790039
20
73.5112991333008
40
0.0
41
0.0
42
0.0
10
76.3893966674805
20
73.4819030761719
40
0.0
41
0.0
42
0.0
10
76.4601974487305
20
73.0981979370117
40
0.0
41
0.0
42
0.0
10
76.4754028320312
20
72.9842987060547
40
0.0
41
0.0
42
0.0
10
76.4999008178711
20
72.89990234375
40
0.0
41
0.0
42
0.0
10
76.6060028076172
20
72.5936965942383
40
0.0
41
0.0
42
0.0
10
76.6528015136719
20
72.4860000610352
40
0.0
41
0.0
42
0.0
10
76.7210006713867
20
72.0998992919922
40
0.0
41
0.0
42
0.0
10
76.7575988769531
20
71.9838027954102
40
0.0
41
0.0
42
0.0
10
76.7819976806641
20
71.5994033813477
40
0.0
41
0.0
42
0.0
10
76.8125
20
71.5186004638672
40
0.0
41
0.0
42
0.0
10
76.8264007568359
20
71.4971008300781
40
0.0
41
0.0
42
0.0
10
76.7049026489258
20
71.1701965332031
40
0.0
41
0.0
42
0.0
10
76.7049026489258
20
71.1427001953125
40
0.0
41
0.0
42
0.0
10
76.8492965698242
20
71.002799987793
40
0.0
41
0.0
42
0.0
10
76.5010986328125
20
70.6793975830078
40
0.0
41
0.0
42
0.0
10
76.3216018676758
20
71.0072021484375
40
0.0
41
0.0
42
0.0
10
76.0028991699219
20
71.3286972045898
40
0.0
41
0.0
42
0.0
10
75.9654998779297
20
71.3960037231445
40
0.0
41
0.0
42
0.0
10
75.9217987060547
20
71.5108032226562
40
0.0
41
0.0
42
0.0
10
75.6971969604492
20
71.8952026367188
40
0.0
41
0.0
42
0.0
10
75.6445007324219
20
72.0094985961914
40
0.0
41
0.0
42
0.0
10
75.5027008056641
20
72.2149963378906
40
0.0
41
0.0
42
0.0
10
75.3747024536133
20
72.3939971923828
40
0.0
41
0.0
42
0.0
10
75.3145980834961
20
72.5114974975586
40
0.0
41
0.0
42
0.0
10
75.2725982666016
20
72.6262969970703
40
0.0
41
0.0
42
0.0
10
75.0652008056641
20
73.0121002197266
40
0.0
41
0.0
42
0.0
10
75.0586013793945
20
73.0362014770508
40
0.0
41
0.0
42
0.0
10
75.0047988891602
20
73.1984024047852
40
0.0
41
0.0
42
0.0
10
74.9951019287109
20
73.1984024047852
40
0.0
41
0.0
42
0.0
10
74.9327011108398
20
73.0115966796875
40
0.0
41
0.0
42
0.0
10
74.7249984741211
20
72.6251983642578
40
0.0
41
0.0
42
0.0
10
74.6650009155273
20
72.5090026855469
40
0.0
41
0.0
42
0.0
10
74.497802734375
20
72.2744979858398
40
0.0
41
0.0
42
0.0
10
74.4719009399414
20
72.2264022827148
40
0.0
41
0.0
42
0.0
10
74.3217010498047
20
72.0086975097656
40
0.0
41
0.0
42
0.0
10
74.0976028442383
20
71.6253967285156
40
0.0
41
0.0
42
0.0
10
74.046501159668
20
71.5108032226562
40
0.0
41
0.0
42
0.0
10
74.0365982055664
20
71.4921035766602
40
0.0
41
0.0
42
0.0
10
73.9984970092773
20
71.4016036987305
40
0.0
41
0.0
42
0.0
10
73.9797973632812
20
71.372802734375
40
0.0
41
0.0
42
0.0
10
73.6178970336914
20
71.0078964233398
40
0.0
41
0.0
42
0.0
10
73.567497253418
20
70.8955001831055
40
0.0
41
0.0
42
0.0
10
73.5457000732422
20
70.8572006225586
40
0.0
41
0.0
42
0.0
10
73.4991989135742
20
70.7455978393555
40
0.0
41
0.0
42
0.0
10
73.0447998046875
20
71.005500793457
40
0.0
41
0.0
42
0.0
10
73.0270004272461
20
71.0531997680664
40
0.0
41
0.0
42
0.0
10
73.1147994995117
20
71.4826965332031
40
0.0
41
0.0
42
0.0
10
73.129997253418
20
71.722900390625
40
0.0
41
0.0
42
0.0
10
73.2074966430664
20
71.9868011474609
40
0.0
41
0.0
42
0.0
10
73.2528991699219
20
72.100700378418
40
0.0
41
0.0
42
0.0
10
73.3207015991211
20
72.4853973388672
40
0.0
41
0.0
42
0.0
10
73.3639984130859
20
72.602897644043
40
0.0
41
0.0
42
0.0
10
73.4704971313477
20
72.9102020263672
40
0.0
41
0.0
42
0.0
10
73.5001983642578
20
72.9748992919922
40
0.0
41
0.0
42
0.0
10
73.535400390625
20
73.0983963012695
40
0.0
41
0.0
42
0.0
10
73.6063003540039
20
73.4819030761719
40
0.0
41
0.0
42
0.0
10
73.606201171875
20
73.5127029418945
40
0.0
41
0.0
42
0.0
10
73.5971984863281
20
73.5242004394531
40
0.0
41
0.0
42
0.0
10
73.5111999511719
20
73.6103973388672
40
0.0
41
0.0
42
0.0
10
73.4813995361328
20
73.6102981567383
40
0.0
41
0.0
42
0.0
10
73.3683013916016
20
73.5951995849609
40
0.0
41
0.0
42
0.0
10
72.9848022460938
20
73.5244979858398
40
0.0
41
0.0
42
0.0
10
72.89990234375
20
73.4999008178711
40
0.0
41
0.0
42
0.0
10
72.5936965942383
20
73.393798828125
40
0.0
41
0.0
42
0.0
10
72.4873962402344
20
73.3473968505859
40
0.0
41
0.0
42
0.0
10
72.370002746582
20
73.310302734375
40
0.0
41
0.0
42
0.0
10
71.9823989868164
20
73.2419967651367
40
0.0
41
0.0
42
0.0
10
71.5994033813477
20
73.2176971435547
40
0.0
41
0.0
42
0.0
10
71.5186004638672
20
73.1873016357422
40
0.0
41
0.0
42
0.0
10
71.4971008300781
20
73.1733016967773
40
0.0
41
0.0
42
0.0
10
71.1701965332031
20
73.2947998046875
40
0.0
41
0.0
42
0.0
10
71.1427001953125
20
73.2947998046875
40
0.0
41
0.0
42
0.0
10
71.002799987793
20
73.1503982543945
40
0.0
41
0.0
42
0.0
10
70.6792984008789
20
73.4990005493164
40
0.0
41
0.0
42
0.0
10
70.8563995361328
20
73.5912017822266
40
0.0
41
0.0
42
0.0
10
70.9352035522461
20
73.6351013183594
40
0.0
41
0.0
42
0.0
210
0.0
220
0.0
230
1.0
0
LWPOLYLINE
5
29
330
1C
100
AcDbEntity
67
0
8
0
62
256
6
ByLayer
370
-1
48
1.0
60
0
100
AcDbPolyline
90
11
70
1
38
0.0
39
0.0
10
72.9837036132812
20
79.4851989746094
40
0.0
41
0.0
42
0.0
10
72.999397277832
20
79.2601013183594
40
0.0
41
0.0
42
0.0
10
73.0084991455078
20
79.2603988647461
40
0.0
41
0.0
42
0.0
10
73.1564025878906
20
79.486198425293
40
0.0
41
0.0
42
0.0
10
73.1564025878906
20
79.5040969848633
40
0.0
41
0.0
42
0.0
10
73.0362014770508
20
79.538200378418
40
0.0
41
0.0
42
0.0
10
73.002197265625
20
79.7425003051758
40
0.0
41
0.0
42
0.0
10
72.9979019165039
20
79.7425003051758
40
0.0
41
0.0
42
0.0
10
72.967903137207
20
79.5513000488281
40
0.0
41
0.0
42
0.0
10
72.9677963256836
20
79.5178985595703
40
0.0
41
0.0
42
0.0
10
72.9837036132812
20
79.4851989746094
40
0.0
41
0.0
42
0.0
210
0.0
220
0.0
230
1.0
0
LWPOLYLINE
5
2A
330
1C
100
AcDbEntity
67
0
8
0
62
256
6
ByLayer
370
-1
48
1.0
60
0
100
AcDbPolyline
90
11
70
1
38
0.0
39
0.0
10
76.9977035522461
20
70.2574005126953
40
0.0
41
0.0
42
0.0
10
77.0018997192383
20
70.2574005126953
40
0.0
41
0.0
42
0.0
10
77.0319976806641
20
70.4485015869141
40
0.0
41
0.0
42
0.0
10
77.0318984985352
20
70.4820022583008
40
0.0
41
0.0
42
0.0
10
77.015998840332
20
70.5143966674805
40
0.0
41
0.0
42
0.0
10
77.0003967285156
20
70.7396011352539
40
0.0
41
0.0
42
0.0
10
76.9914016723633
20
70.739501953125
40
0.0
41
0.0
42
0.0
10
76.8432998657227
20
70.5137023925781
40
0.0
41
0.0
42
0.0
10
76.8432998657227
20
70.4956970214844
40
0.0
41
0.0
42
0.0
10
76.9634017944336
20
70.4615020751953
40
0.0
41
0.0
42
0.0
10
76.9977035522461
20
70.2574005126953
40
0.0
41
0.0
42
0.0
210
0.0
220
0.0
230
1.0
0
LWPOLYLINE
5
2B
330
1C
100
AcDbEntity
67
0
8
0
62
256
6
ByLayer
370
-1
48
1.0
60
0
100
AcDbPolyline
90
10
70
1
38
0.0
39
0.0
10
79.2601013183594
20
77.0002975463867
40
0.0
41
0.0
42
0.0
10
79.2602996826172
20
76.9914016723633
40
0.0
41
0.0
42
0.0
10
79.486198425293
20
76.8432998657227
40
0.0
41
0.0
42
0.0
10
79.513801574707
20
76.8433990478516
40
0.0
41
0.0
42
0.0
10
79.7425003051758
20
76.9914016723633
40
0.0
41
0.0
42
0.0
10
79.7424011230469
20
77.0018997192383
40
0.0
41
0.0
42
0.0
10
79.5513000488281
20
77.0319976806641
40
0.0
41
0.0
42
0.0
10
79.5177993774414
20
77.0318984985352
40
0.0
41
0.0
42
0.0
10
79.4854965209961
20
77.015998840332
40
0.0
41
0.0
42
0.0
10
79.2601013183594
20
77.0002975463867
40
0.0
41
0.0
42
0.0
210
0.0
220
0.0
230
1.0
0
LWPOLYLINE
5
2C
330
1C
100
AcDbEntity
67
0
8
0
62
256
6
ByLayer
370
-1
48
1.0
60
0
100
AcDbPolyline
90
31
70
1
38
0.0
39
0.0
10
82.5034027099609
20
65.081298828125
40
0.0
41
0.0
42
0.0
10
82.6439971923828
20
65.3356018066406
40
0.0
41
0.0
42
0.0
10
82.7413024902344
20
65.4909973144531
40
0.0
41
0.0
42
0.0
10
82.9465026855469
20
65.8285980224609
40
0.0
41
0.0
42
0.0
10
83.0030975341797
20
65.9108963012695
40
0.0
41
0.0
42
0.0
10
83.3479995727539
20
66.338996887207
40
0.0
41
0.0
42
0.0
10
83.5037002563477
20
66.4953002929688
40
0.0
41
0.0
42
0.0
10
83.5756988525391
20
66.5580978393555
40
0.0
41
0.0
42
0.0
10
83.6623001098633
20
66.6191024780273
40
0.0
41
0.0
42
0.0
10
84.0078964233398
20
66.8974990844727
40
0.0
41
0.0
42
0.0
10
84.5093994140625
20
67.2021026611328
40
0.0
41
0.0
42
0.0
10
84.7649993896484
20
67.3433990478516
40
0.0
41
0.0
42
0.0
10
84.9990005493164
20
67.4665985107422
40
0.0
41
0.0
42
0.0
10
84.9990005493164
20
67.4969024658203
40
0.0
41
0.0
42
0.0
10
84.9850997924805
20
67.4968032836914
40
0.0
41
0.0
42
0.0
10
84.7739028930664
20
67.3864974975586
40
0.0
41
0.0
42
0.0
10
84.4905014038086
20
67.2296981811523
40
0.0
41
0.0
42
0.0
10
83.9919967651367
20
66.9266967773438
40
0.0
41
0.0
42
0.0
10
83.6075973510742
20
66.6171035766602
40
0.0
41
0.0
42
0.0
10
83.5438995361328
20
66.5723037719727
40
0.0
41
0.0
42
0.0
10
83.4943008422852
20
66.5289993286133
40
0.0
41
0.0
42
0.0
10
83.3564987182617
20
66.3908996582031
40
0.0
41
0.0
42
0.0
10
82.9968032836914
20
65.9440002441406
40
0.0
41
0.0
42
0.0
10
82.9561996459961
20
65.8848037719727
40
0.0
41
0.0
42
0.0
10
82.7276992797852
20
65.508903503418
40
0.0
41
0.0
42
0.0
10
82.6557998657227
20
65.3943023681641
40
0.0
41
0.0
42
0.0
10
82.4999008178711
20
65.1119995117188
40
0.0
41
0.0
42
0.0
10
82.4496002197266
20
65.0148010253906
40
0.0
41
0.0
42
0.0
10
82.4496002197266
20
65.0009994506836
40
0.0
41
0.0
42
0.0
10
82.461799621582
20
65.0009994506836
40
0.0
41
0.0
42
0.0
10
82.5034027099609
20
65.081298828125
40
0.0
41
0.0
42
0.0
210
0.0
220
0.0
230
1.0
0
LWPOLYLINE
5
2D
330
1C
100
AcDbEntity
67
0
8
0
62
256
6
ByLayer
370
-1
48
1.0
60
0
100
AcDbPolyline
90
31
70
1
38
0.0
39
0.0
10
83.072998046875
20
83.9919967651367
40
0.0
41
0.0
42
0.0
10
83.382698059082
20
83.6074981689453
40
0.0
41
0.0
42
0.0
10
83.4274978637695
20
83.5438003540039
40
0.0
41
0.0
42
0.0
10
83.470703125
20
83.4943008422852
40
0.0
41
0.0
42
0.0
10
83.6089019775391
20
83.3563995361328
40
0.0
41
0.0
42
0.0
10
84.0558013916016
20
82.9968032836914
40
0.0
41
0.0
42
0.0
10
84.1148986816406
20
82.9561996459961
40
0.0
41
0.0
42
0.0
10
84.4908981323242
20
82.7276000976562
40
0.0
41
0.0
42
0.0
10
84.605598449707
20
82.6557998657227
40
0.0
41
0.0
42
0.0
10
84.8877029418945
20
82.4999008178711
40
0.0
41
0.0
42
0.0
10
84.9850997924805
20
82.4496002197266
40
0.0
41
0.0
42
0.0
10
84.9990005493164
20
82.4496002197266
40
0.0
41
0.0
42
0.0
10
84.9989013671875
20
82.4617004394531
40
0.0
41
0.0
42
0.0
10
84.9185028076172
20
82.5034027099609
40
0.0
41
0.0
42
0.0
10
84.6642990112305
20
82.6438980102539
40
0.0
41
0.0
42
0.0
10
84.508903503418
20
82.7413024902344
40
0.0
41
0.0
42
0.0
10
84.1712036132812
20
82.946403503418
40
0.0
41
0.0
42
0.0
10
84.0888977050781
20
83.0030975341797
40
0.0
41
0.0
42
0.0
10
83.6608963012695
20
83.347900390625
40
0.0
41
0.0
42
0.0
10
83.5026016235352
20
83.505500793457
40
0.0
41
0.0
42
0.0
10
83.4415969848633
20
83.5756988525391
40
0.0
41
0.0
42
0.0
10
83.3805999755859
20
83.6623001098633
40
0.0
41
0.0
42
0.0
10
83.1022033691406
20
84.0077972412109
40
0.0
41
0.0
42
0.0
10
82.7966995239258
20
84.5108032226562
40
0.0
41
0.0
42
0.0
10
82.5730972290039
20
84.918701171875
40
0.0
41
0.0
42
0.0
10
82.5328979492188
20
84.9990005493164
40
0.0
41
0.0
42
0.0
10
82.5029983520508
20
84.9990005493164
40
0.0
41
0.0
42
0.0
10
82.5028991699219
20
84.9849014282227
40
0.0
41
0.0
42
0.0
10
82.5518035888672
20
84.8876037597656
40
0.0
41
0.0
42
0.0
10
82.769401550293
20
84.4915008544922
40
0.0
41
0.0
42
0.0
10
83.072998046875
20
83.9919967651367
40
0.0
41
0.0
42
0.0
210
0.0
220
0.0
230
1.0
0
VIEWPORT
5
32
330
2E
100
AcDbEntity
67
1
8
0
62
256
6
ByLayer
370
-1
48
1.0
60
0
100
AcDbViewport
10
0.0
20
0.0
30
0.0
40
297.0
41
210.0
68
1
69
1
12
50.0
22
100.0
13
0.0
23
0.0
14
10.0
24
10.0
15
10.0
25
10.0
16
0.0
26
0.0
36
1.0
17
0.0
27
0.0
37
0.0
42
50.0
43
0.0
44
0.0
45
250.0
50
0.0
51
0.0
72
1000
90
819232
110
0.0
120
0.0
130
0.0
111
1.0
121
0.0
131
0.0
112
0.0
122
1.0
132
0.0
0
ENDSEC
0
SECTION
2
OBJECTS
0
DICTIONARY
5
38
330
0
100
AcDbDictionary
280
1
281
1
3
ACAD_GROUP
350
12
3
ACAD_LAYOUT
350
31
3
ACAD_DGNDEFINITIONS
350
F
3
ACAD_DWFDEFINITIONS
350
10
3
ACAD_PDFDEFINITIONS
350
11
3
ACAD_MLINESTYLE
350
B
3
ACAD_IMAGE_DICT
350
E
3
ACAD_IMAGE_VARS
350
21
0
DICTIONARY
5
12
330
38
100
AcDbDictionary
280
1
281
1
0
DICTIONARY
5
31
330
38
100
AcDbDictionary
280
1
281
1
3
Model
350
20
3
Layout1
350
33
0
DICTIONARY
5
F
330
38
100
AcDbDictionary
280
1
281
1
0
DICTIONARY
5
10
330
38
100
AcDbDictionary
280
1
281
1
0
DICTIONARY
5
11
330
38
100
AcDbDictionary
280
1
281
1
0
DICTIONARY
5
B
330
38
100
AcDbDictionary
280
1
281
1
3
Standard
350
1B
0
DICTIONARY
5
E
330
38
100
AcDbDictionary
280
1
281
1
0
DICTIONARY
5
6
330
5
100
AcDbDictionary
280
1
281
1
3
ACAD_LAYERSTATES
360
39
0
DICTIONARY
5
39
330
6
100
AcDbDictionary
280
1
281
1
0
LAYOUT
5
20
330
31
100
AcDbPlotSettings
1

2
none_device
4
ISO_A4_(210.00_x_297.00_MM)
6

40
7.5
41
20.0
42
7.5
43
20.0
44
210.0
45
297.0
46
0.0
47
0.0
48
0.0
49
0.0
140
0.0
141
0.0
142
1.0
143
1.0
70
11952
72
1
73
1
74
1
7

75
0
76
0
77
2
78
300
147
1.0
148
0.0
149
0.0
100
AcDbLayout
1
Model
71
0
10
-20.0
20
-7.5
11
277.0
21
202.5
12
0.0
22
0.0
32
0.0
14
25.7
24
19.5
34
0.0
15
231.3
25
175.5
35
0.0
146
0.0
13
0.0
23
0.0
33
0.0
16
1.0
26
0.0
36
0.0
17
0.0
27
1.0
37
0.0
76
0
330
1C
0
LAYOUT
5
33
330
31
100
AcDbPlotSettings
1

2
none_device
4
ISO_A4_(210.00_x_297.00_MM)
6

40
7.5
41
20.0
42
7.5
43
20.0
44
210.0
45
297.0
46
0.0
47
0.0
48
0.0
49
0.0
140
0.0
141
0.0
142
1.0
143
1.0
70
688
72
1
73
1
74
1
7

75
0
76
0
77
2
78
300
147
1.0
148
0.0
149
0.0
100
AcDbLayout
1
Layout1
71
1
10
-20.0
20
-7.5
11
277.0
21
202.5
12
0.0
22
0.0
32
0.0
14
25.7
24
19.5
34
0.0
15
231.3
25
175.5
35
0.0
146
0.0
13
0.0
23
0.0
33
0.0
16
1.0
26
0.0
36
0.0
17
0.0
27
1.0
37
0.0
76
0
330
2E
0
MLINESTYLE
5
1B
330
B
100
AcDbMlineStyle
2
Standard
70
0
3

62
256
51
90.0
52
90.0
71
2
49
0.5
62
256
6
ByLayer
49
-0.5
62
256
6
ByLayer
0
RASTERVARIABLES
5
21
330
E
100
AcDbRasterVariables
90
0
70
1
71
1
72
0
0
ENDSEC
0
EOF
