999
DXF file generated by netDxf https://github.com/haplokuon/netDxf, Copyright(C) Daniel Carvajal, Licensed under MIT
0
SECTION
2
HEADER
9
$ACADVER
1
AC1015
9
$DWGCODEPAGE
3
ANSI_1252
9
$HANDSEED
5
4A
9
$ANGBASE
50
0.0
9
$ANGDIR
70
0
9
$ATTMODE
70
1
9
$AUNITS
70
0
9
$AUPREC
70
0
9
$CECOLOR
62
256
9
$CELTSCALE
40
1.0
9
$CELTYPE
6
ByLayer
9
$CELWEIGHT
370
-1
9
$CLAYER
8
0
9
$CMLJUST
70
0
9
$CMLSCALE
40
20.0
9
$CMLSTYLE
2
Standard
9
$DIMSTYLE
2
Standard
9
$TEXTSIZE
40
2.5
9
$TEXTSTYLE
7
Standard
9
$LUNITS
70
2
9
$LUPREC
70
4
9
$MIRRTEXT
70
0
9
$EXTNAMES
290
1
9
$INSBASE
10
0.0
20
0.0
30
0.0
9
$INSUNITS
70
0
9
$LTSCALE
40
1.0
9
$LWDISPLAY
290
0
9
$PDMODE
70
0
9
$PDSIZE
40
0.0
9
$PLINEGEN
70
0
9
$PSLTSCALE
70
1
9
$SPLINESEGS
70
8
9
$SURFU
70
6
9
$SURFV
70
6
9
$TDCREATE
40
2460823.48367546
9
$TDUCREATE
40
2460823.15034213
9
$TDUPDATE
40
2460823.48367546
9
$TDUUPDATE
40
2460823.15034213
9
$TDINDWG
40
0.0
9
$UCSORG
10
0.0
20
0.0
30
0.0
9
$UCSXDIR
10
1.0
20
0.0
30
0.0
9
$UCSYDIR
10
0.0
20
1.0
30
0.0
9
$DIMADEC
70
0
9
$DIMALT
70
0
9
$DIMALTD
70
2
9
$DIMALTF
40
25.4
9
$DIMALTRND
40
0.0
9
$DIMALTTD
70
2
9
$DIMALTTZ
70
0
9
$DIMALTU
70
2
9
$DIMALTZ
70
0
9
$DIMAPOST
1

9
$DIMATFIT
70
3
9
$DIMAUNIT
70
0
9
$DIMASZ
40
0.18
9
$DIMAZIN
70
0
9
$DIMSAH
70
0
9
$DIMBLK
1

9
$DIMLDRBLK
1

9
$DIMCEN
40
0.09
9
$DIMCLRD
70
0
9
$DIMCLRE
70
0
9
$DIMCLRT
70
0
9
$DIMDEC
70
4
9
$DIMDLE
40
0.0
9
$DIMDLI
40
0.38
9
$DIMDSEP
70
46
9
$DIMEXE
40
0.18
9
$DIMEXO
40
0.0625
9
$DIMFXLON
70
0
9
$DIMFXL
40
1.0
9
$DIMGAP
40
0.09
9
$DIMJUST
70
0
9
$DIMLFAC
40
1.0
9
$DIMLUNIT
70
2
9
$DIMLWD
70
-2
9
$DIMLWE
70
-2
9
$DIMPOST
1

9
$DIMRND
40
0.0
9
$DIMSCALE
40
1.0
9
$DIMSD1
70
0
9
$DIMSD2
70
0
9
$DIMSE1
70
0
9
$DIMSE2
70
0
9
$DIMSOXD
70
0
9
$DIMTAD
70
0
9
$DIMTDEC
70
4
9
$DIMTFAC
40
1.0
9
$DIMTIH
70
0
9
$DIMTIX
70
0
9
$DIMTM
40
0.0
9
$DIMTMOVE
70
0
9
$DIMTOFL
70
0
9
$DIMTOH
70
0
9
$DIMTOL
70
0
9
$DIMLIM
70
0
9
$DIMTOLJ
70
1
9
$DIMTP
40
0.0
9
$DIMTXT
40
0.18
9
$DIMTXTDIRECTION
70
0
9
$DIMTZIN
70
0
9
$DIMZIN
70
0
9
$DIMFRAC
70
0
9
$DIMLTYPE
6
ByBlock
9
$DIMLTEX1
6
ByBlock
9
$DIMLTEX2
6
ByBlock
0
ENDSEC
0
SECTION
2
CLASSES
0
CLASS
1
RASTERVARIABLES
2
AcDbRasterVariables
3
ISM
90
0
280
0
281
0
0
ENDSEC
0
SECTION
2
TABLES
0
TABLE
2
APPID
5
4
330
0
100
AcDbSymbolTable
70
5
0
APPID
5
19
330
4
100
AcDbSymbolTableRecord
100
AcDbRegAppTableRecord
2
ACAD
70
0
0
APPID
5
44
330
4
100
AcDbSymbolTableRecord
100
AcDbRegAppTableRecord
2
AcCmTransparency
70
0
0
APPID
5
45
330
4
100
AcDbSymbolTableRecord
100
AcDbRegAppTableRecord
2
AcAecLayerStandard
70
0
0
APPID
5
46
330
4
100
AcDbSymbolTableRecord
100
AcDbRegAppTableRecord
2
GradientColor1ACI
70
0
0
APPID
5
47
330
4
100
AcDbSymbolTableRecord
100
AcDbRegAppTableRecord
2
GradientColor2ACI
70
0
0
ENDTAB
0
TABLE
2
VPORT
5
1
330
0
100
AcDbSymbolTable
70
1
0
VPORT
5
2
330
1
100
AcDbSymbolTableRecord
100
AcDbViewportTableRecord
2
*Active
70
0
10
0.0
20
0.0
11
1.0
21
1.0
12
0.0
22
0.0
13
0.0
23
0.0
14
0.5
24
0.5
15
10.0
25
10.0
16
0.0
26
0.0
36
1.0
17
0.0
27
0.0
37
0.0
40
10.0
41
1.0
75
0
76
1
0
ENDTAB
0
TABLE
2
LTYPE
5
7
330
0
100
AcDbSymbolTable
70
3
0
LTYPE
5
15
330
7
100
AcDbSymbolTableRecord
100
AcDbLinetypeTableRecord
2
Continuous
70
0
3
Solid line
72
65
73
0
40
0.0
0
LTYPE
5
16
330
7
100
AcDbSymbolTableRecord
100
AcDbLinetypeTableRecord
2
ByLayer
70
0
3

72
65
73
0
40
0.0
0
LTYPE
5
17
330
7
100
AcDbSymbolTableRecord
100
AcDbLinetypeTableRecord
2
ByBlock
70
0
3

72
65
73
0
40
0.0
0
ENDTAB
0
TABLE
2
LAYER
5
5
102
{ACAD_XDICTIONARY
360
6
102
}
330
0
100
AcDbSymbolTable
70
1
0
LAYER
5
14
330
5
100
AcDbSymbolTableRecord
100
AcDbLayerTableRecord
2
0
70
0
62
7
6
Continuous
290
1
370
-3
390
0
0
ENDTAB
0
TABLE
2
STYLE
5
8
330
0
100
AcDbSymbolTable
70
1
0
STYLE
5
18
330
8
100
AcDbSymbolTableRecord
100
AcDbTextStyleTableRecord
2
Standard
3
simplex.shx
70
0
71
0
40
0.0
41
1.0
42
0.0
50
0.0
0
ENDTAB
0
TABLE
2
DIMSTYLE
5
A
330
0
100
AcDbSymbolTable
70
1
100
AcDbDimStyleTable
0
DIMSTYLE
105
1A
330
A
100
AcDbSymbolTableRecord
100
AcDbDimStyleTableRecord
2
Standard
3

4

40
1.0
41
0.18
42
0.0625
43
0.38
44
0.18
45
0.0
46
0.0
47
0.0
48
0.0
49
1.0
70
0
71
0
72
0
73
0
74
0
75
0
76
0
77
0
78
0
79
0
140
0.18
141
0.09
143
25.4
144
1.0
146
1.0
147
0.09
148
0.0
170
0
171
2
172
0
174
0
175
0
176
0
177
0
178
0
179
0
271
4
272
4
273
2
274
2
275
0
276
0
277
2
278
46
279
0
280
0
281
0
282
0
283
1
284
0
285
0
286
0
289
3
290
0
294
0
340
18
173
0
345
17
346
17
347
17
371
-2
372
-2
0
ENDTAB
0
TABLE
2
VIEW
5
3
330
0
100
AcDbSymbolTable
70
0
0
ENDTAB
0
TABLE
2
UCS
5
C
330
0
100
AcDbSymbolTable
70
0
0
ENDTAB
0
TABLE
2
BLOCK_RECORD
5
D
330
0
100
AcDbSymbolTable
70
2
0
BLOCK_RECORD
5
1C
330
D
100
AcDbSymbolTableRecord
100
AcDbBlockTableRecord
2
*Model_Space
340
20
0
BLOCK_RECORD
5
3E
330
D
100
AcDbSymbolTableRecord
100
AcDbBlockTableRecord
2
*Paper_Space
340
43
0
ENDTAB
0
ENDSEC
0
SECTION
2
BLOCKS
0
BLOCK
5
1E
330
1C
100
AcDbEntity
67
0
8
0
100
AcDbBlockBegin
2
*Model_Space
70
0
10
0.0
20
0.0
30
0.0
3
*Model_Space
4

0
ENDBLK
5
1D
330
1C
100
AcDbEntity
8
0
100
AcDbBlockEnd
0
BLOCK
5
40
330
3E
100
AcDbEntity
67
1
8
0
100
AcDbBlockBegin
2
*Paper_Space
70
0
10
0.0
20
0.0
30
0.0
3
*Paper_Space
4

0
ENDBLK
5
3F
330
3E
100
AcDbEntity
8
0
100
AcDbBlockEnd
0
ENDSEC
0
SECTION
2
ENTITIES
0
LWPOLYLINE
5
22
330
1C
100
AcDbEntity
67
0
8
0
62
256
6
ByLayer
370
-1
48
1.0
60
0
100
AcDbPolyline
90
36
70
1
38
0.0
39
0.0
10
65.0160980224609
20
67.7471008300781
40
0.0
41
0.0
42
0.0
10
65.2848968505859
20
67.848503112793
40
0.0
41
0.0
42
0.0
10
65.3059997558594
20
67.863899230957
40
0.0
41
0.0
42
0.0
10
65.3998031616211
20
67.9909973144531
40
0.0
41
0.0
42
0.0
10
65.4558029174805
20
68.1020965576172
40
0.0
41
0.0
42
0.0
10
65.4990997314453
20
68.3352966308594
40
0.0
41
0.0
42
0.0
10
65.5185012817383
20
68.481201171875
40
0.0
41
0.0
42
0.0
10
65.5169982910156
20
68.5866012573242
40
0.0
41
0.0
42
0.0
10
65.5161972045898
20
69.0189971923828
40
0.0
41
0.0
42
0.0
10
65.4704971313477
20
69.5169982910156
40
0.0
41
0.0
42
0.0
10
65.4176025390625
20
69.7914962768555
40
0.0
41
0.0
42
0.0
10
65.385498046875
20
70.0157012939453
40
0.0
41
0.0
42
0.0
10
65.3242034912109
20
70.238899230957
40
0.0
41
0.0
42
0.0
10
65.2356033325195
20
70.5113983154297
40
0.0
41
0.0
42
0.0
10
65.0775985717773
20
70.7851028442383
40
0.0
41
0.0
42
0.0
10
65.0263977050781
20
70.8927001953125
40
0.0
41
0.0
42
0.0
10
65.0081024169922
20
70.9233016967773
40
0.0
41
0.0
42
0.0
10
65.0009994506836
20
70.9233016967773
40
0.0
41
0.0
42
0.0
10
65.0009002685547
20
70.8832015991211
40
0.0
41
0.0
42
0.0
10
65.0196990966797
20
70.8517990112305
40
0.0
41
0.0
42
0.0
10
65.0802001953125
20
70.7247009277344
40
0.0
41
0.0
42
0.0
10
65.2165985107422
20
70.4885025024414
40
0.0
41
0.0
42
0.0
10
65.2938003540039
20
70.2509994506836
40
0.0
41
0.0
42
0.0
10
65.3669967651367
20
69.9841995239258
40
0.0
41
0.0
42
0.0
10
65.4050979614258
20
69.7183990478516
40
0.0
41
0.0
42
0.0
10
65.4505996704102
20
69.4829025268555
40
0.0
41
0.0
42
0.0
10
65.4956970214844
20
68.9952011108398
40
0.0
41
0.0
42
0.0
10
65.4973983764648
20
68.529296875
40
0.0
41
0.0
42
0.0
10
65.4964981079102
20
68.5171966552734
40
0.0
41
0.0
42
0.0
10
65.434700012207
20
68.1846008300781
40
0.0
41
0.0
42
0.0
10
65.3461990356445
20
68.008903503418
40
0.0
41
0.0
42
0.0
10
65.2605972290039
20
67.8928985595703
40
0.0
41
0.0
42
0.0
10
65.22509765625
20
67.8668975830078
40
0.0
41
0.0
42
0.0
10
65.0009994506836
20
67.7824020385742
40
0.0
41
0.0
42
0.0
10
65.0009994506836
20
67.747200012207
40
0.0
41
0.0
42
0.0
10
65.0160980224609
20
67.7471008300781
40
0.0
41
0.0
42
0.0
210
0.0
220
0.0
230
1.0
0
LWPOLYLINE
5
23
330
1C
100
AcDbEntity
67
0
8
0
62
256
6
ByLayer
370
-1
48
1.0
60
0
100
AcDbPolyline
90
25
70
1
38
0.0
39
0.0
10
65.0044021606445
20
78.9887008666992
40
0.0
41
0.0
42
0.0
10
65.0712966918945
20
79.209602355957
40
0.0
41
0.0
42
0.0
10
65.1137008666992
20
79.4830017089844
40
0.0
41
0.0
42
0.0
10
65.1434020996094
20
79.7068023681641
40
0.0
41
0.0
42
0.0
10
65.155403137207
20
79.9806976318359
40
0.0
41
0.0
42
0.0
10
65.1624984741211
20
80.2051010131836
40
0.0
41
0.0
42
0.0
10
65.1565017700195
20
80.5190963745117
40
0.0
41
0.0
42
0.0
10
65.1417999267578
20
80.7432022094727
40
0.0
41
0.0
42
0.0
10
65.1139984130859
20
81.0164031982422
40
0.0
41
0.0
42
0.0
10
65.071403503418
20
81.1890029907227
40
0.0
41
0.0
42
0.0
10
65.0042037963867
20
81.4173965454102
40
0.0
41
0.0
42
0.0
10
65.0009994506836
20
81.4173965454102
40
0.0
41
0.0
42
0.0
10
65.0009002685547
20
81.3970031738281
40
0.0
41
0.0
42
0.0
10
65.0614013671875
20
81.1909027099609
40
0.0
41
0.0
42
0.0
10
65.1126022338867
20
80.9834976196289
40
0.0
41
0.0
42
0.0
10
65.1367034912109
20
80.746696472168
40
0.0
41
0.0
42
0.0
10
65.1541976928711
20
80.4809036254883
40
0.0
41
0.0
42
0.0
10
65.1587982177734
20
80.2686004638672
40
0.0
41
0.0
42
0.0
10
65.1509017944336
20
80.0192031860352
40
0.0
41
0.0
42
0.0
10
65.1406021118164
20
79.7830963134766
40
0.0
41
0.0
42
0.0
10
65.1054000854492
20
79.5169982910156
40
0.0
41
0.0
42
0.0
10
65.0687026977539
20
79.2802963256836
40
0.0
41
0.0
42
0.0
10
65.0009994506836
20
79.0531997680664
40
0.0
41
0.0
42
0.0
10
65.0009994506836
20
78.9888000488281
40
0.0
41
0.0
42
0.0
10
65.0044021606445
20
78.9887008666992
40
0.0
41
0.0
42
0.0
210
0.0
220
0.0
230
1.0
0
LWPOLYLINE
5
24
330
1C
100
AcDbEntity
67
0
8
0
62
256
6
ByLayer
370
-1
48
1.0
60
0
100
AcDbPolyline
90
46
70
1
38
0.0
39
0.0
10
66.9026031494141
20
76.9859008789062
40
0.0
41
0.0
42
0.0
10
66.9989013671875
20
76.734001159668
40
0.0
41
0.0
42
0.0
10
67.1335983276367
20
76.4909973144531
40
0.0
41
0.0
42
0.0
10
67.1509017944336
20
76.4655990600586
40
0.0
41
0.0
42
0.0
10
67.2217025756836
20
76.3794021606445
40
0.0
41
0.0
42
0.0
10
67.3938980102539
20
76.1312026977539
40
0.0
41
0.0
42
0.0
10
67.4924011230469
20
76.0130004882812
40
0.0
41
0.0
42
0.0
10
67.9835968017578
20
75.8384017944336
40
0.0
41
0.0
42
0.0
10
68.0165023803711
20
75.8383026123047
40
0.0
41
0.0
42
0.0
10
68.5113983154297
20
76.0064010620117
40
0.0
41
0.0
42
0.0
10
68.7287979125977
20
76.1270980834961
40
0.0
41
0.0
42
0.0
10
68.893798828125
20
76.2231979370117
40
0.0
41
0.0
42
0.0
10
69.2464981079102
20
76.4181976318359
40
0.0
41
0.0
42
0.0
10
69.3723983764648
20
76.4968032836914
40
0.0
41
0.0
42
0.0
10
69.5054016113281
20
76.6136016845703
40
0.0
41
0.0
42
0.0
10
69.8631973266602
20
76.9884033203125
40
0.0
41
0.0
42
0.0
10
69.8630981445312
20
77.0158004760742
40
0.0
41
0.0
42
0.0
10
69.7626037597656
20
77.2617034912109
40
0.0
41
0.0
42
0.0
10
69.8114013671875
20
77.4810028076172
40
0.0
41
0.0
42
0.0
10
69.8113021850586
20
77.5169982910156
40
0.0
41
0.0
42
0.0
10
69.7754974365234
20
77.7389984130859
40
0.0
41
0.0
42
0.0
10
69.6589965820312
20
78.0121994018555
40
0.0
41
0.0
42
0.0
10
69.5572967529297
20
78.288200378418
40
0.0
41
0.0
42
0.0
10
69.5
20
78.4723968505859
40
0.0
41
0.0
42
0.0
10
69.4860000610352
20
78.510498046875
40
0.0
41
0.0
42
0.0
10
69.4598007202148
20
78.5511016845703
40
0.0
41
0.0
42
0.0
10
69.2761001586914
20
78.8872985839844
40
0.0
41
0.0
42
0.0
10
69.1897964477539
20
79.004997253418
40
0.0
41
0.0
42
0.0
10
69.0105972290039
20
79.1405029296875
40
0.0
41
0.0
42
0.0
10
68.7923965454102
20
79.196403503418
40
0.0
41
0.0
42
0.0
10
68.4822998046875
20
79.1940994262695
40
0.0
41
0.0
42
0.0
10
68.2602005004883
20
79.1455993652344
40
0.0
41
0.0
42
0.0
10
67.9876022338867
20
79.0643005371094
40
0.0
41
0.0
42
0.0
10
67.8580017089844
20
79.0014038085938
40
0.0
41
0.0
42
0.0
10
67.6988983154297
20
78.9087982177734
40
0.0
41
0.0
42
0.0
10
67.4925994873047
20
78.782600402832
40
0.0
41
0.0
42
0.0
10
67.3849029541016
20
78.6857986450195
40
0.0
41
0.0
42
0.0
10
67.1617965698242
20
78.505500793457
40
0.0
41
0.0
42
0.0
10
67.1140975952148
20
78.4374008178711
40
0.0
41
0.0
42
0.0
10
66.9907989501953
20
78.2129974365234
40
0.0
41
0.0
42
0.0
10
66.8678970336914
20
78.0127029418945
40
0.0
41
0.0
42
0.0
10
66.8311996459961
20
77.7425994873047
40
0.0
41
0.0
42
0.0
10
66.8106002807617
20
77.5189971923828
40
0.0
41
0.0
42
0.0
10
66.8105010986328
20
77.4815979003906
40
0.0
41
0.0
42
0.0
10
66.8547973632812
20
77.2088012695312
40
0.0
41
0.0
42
0.0
10
66.9026031494141
20
76.9859008789062
40
0.0
41
0.0
42
0.0
210
0.0
220
0.0
230
1.0
0
LWPOLYLINE
5
25
330
1C
100
AcDbEntity
67
0
8
0
62
256
6
ByLayer
370
-1
48
1.0
60
0
100
AcDbPolyline
90
46
70
1
38
0.0
39
0.0
10
66.9931030273438
20
78.1639022827148
40
0.0
41
0.0
42
0.0
10
67.0012969970703
20
78.1809997558594
40
0.0
41
0.0
42
0.0
10
67.1390991210938
20
78.4300003051758
40
0.0
41
0.0
42
0.0
10
67.184196472168
20
78.4944000244141
40
0.0
41
0.0
42
0.0
10
67.378303527832
20
78.6513977050781
40
0.0
41
0.0
42
0.0
10
67.5073013305664
20
78.7674026489258
40
0.0
41
0.0
42
0.0
10
67.7544021606445
20
78.9184036254883
40
0.0
41
0.0
42
0.0
10
67.8919982910156
20
78.9983978271484
40
0.0
41
0.0
42
0.0
10
68.0122985839844
20
79.0569000244141
40
0.0
41
0.0
42
0.0
10
68.2497024536133
20
79.127799987793
40
0.0
41
0.0
42
0.0
10
68.5176010131836
20
79.1860961914062
40
0.0
41
0.0
42
0.0
10
68.7188034057617
20
79.1878967285156
40
0.0
41
0.0
42
0.0
10
68.9891967773438
20
79.1185989379883
40
0.0
41
0.0
42
0.0
10
69.1529006958008
20
78.9947967529297
40
0.0
41
0.0
42
0.0
10
69.2314987182617
20
78.8877029418945
40
0.0
41
0.0
42
0.0
10
69.388801574707
20
78.5997009277344
40
0.0
41
0.0
42
0.0
10
69.4598999023438
20
78.4894027709961
40
0.0
41
0.0
42
0.0
10
69.4998016357422
20
78.3806991577148
40
0.0
41
0.0
42
0.0
10
69.549201965332
20
78.2217025756836
40
0.0
41
0.0
42
0.0
10
69.6353988647461
20
77.9877014160156
40
0.0
41
0.0
42
0.0
10
69.7363967895508
20
77.7508010864258
40
0.0
41
0.0
42
0.0
10
69.776496887207
20
77.5010986328125
40
0.0
41
0.0
42
0.0
10
69.716796875
20
77.2325973510742
40
0.0
41
0.0
42
0.0
10
69.716796875
20
77.1989974975586
40
0.0
41
0.0
42
0.0
10
69.7970962524414
20
77.003303527832
40
0.0
41
0.0
42
0.0
10
69.494499206543
20
76.6865005493164
40
0.0
41
0.0
42
0.0
10
69.2856979370117
20
76.5029983520508
40
0.0
41
0.0
42
0.0
10
69.1809997558594
20
76.4376983642578
40
0.0
41
0.0
42
0.0
10
68.8720016479492
20
76.2667007446289
40
0.0
41
0.0
42
0.0
10
68.6775970458984
20
76.1535034179688
40
0.0
41
0.0
42
0.0
10
68.4882965087891
20
76.0483016967773
40
0.0
41
0.0
42
0.0
10
68.331901550293
20
76.0
40
0.0
41
0.0
42
0.0
10
68.0001983642578
20
75.8868026733398
40
0.0
41
0.0
42
0.0
10
67.6831970214844
20
76.0000991821289
40
0.0
41
0.0
42
0.0
10
67.5074996948242
20
76.0597991943359
40
0.0
41
0.0
42
0.0
10
67.415397644043
20
76.1704025268555
40
0.0
41
0.0
42
0.0
10
67.2680969238281
20
76.3824996948242
40
0.0
41
0.0
42
0.0
10
67.184700012207
20
76.4842987060547
40
0.0
41
0.0
42
0.0
10
67.1679000854492
20
76.508903503418
40
0.0
41
0.0
42
0.0
10
67.0008010864258
20
76.8105010986328
40
0.0
41
0.0
42
0.0
10
66.9229965209961
20
77.0139007568359
40
0.0
41
0.0
42
0.0
10
66.8656005859375
20
77.2809982299805
40
0.0
41
0.0
42
0.0
10
66.8292999267578
20
77.5046997070312
40
0.0
41
0.0
42
0.0
10
66.8517990112305
20
77.7472991943359
40
0.0
41
0.0
42
0.0
10
66.8844985961914
20
77.9871978759766
40
0.0
41
0.0
42
0.0
10
66.9931030273438
20
78.1639022827148
40
0.0
41
0.0
42
0.0
210
0.0
220
0.0
230
1.0
0
LWPOLYLINE
5
26
330
1C
100
AcDbEntity
67
0
8
0
62
256
6
ByLayer
370
-1
48
1.0
60
0
100
AcDbPolyline
90
48
70
1
38
0.0
39
0.0
10
67.0828018188477
20
71.4869003295898
40
0.0
41
0.0
42
0.0
10
67.2223968505859
20
71.313102722168
40
0.0
41
0.0
42
0.0
10
67.3731002807617
20
71.043098449707
40
0.0
41
0.0
42
0.0
10
67.4182968139648
20
70.9951019287109
40
0.0
41
0.0
42
0.0
10
67.4926986694336
20
70.9318008422852
40
0.0
41
0.0
42
0.0
10
67.5500030517578
20
70.8923034667969
40
0.0
41
0.0
42
0.0
10
67.7157974243164
20
70.7963027954102
40
0.0
41
0.0
42
0.0
10
67.9887008666992
20
70.6234970092773
40
0.0
41
0.0
42
0.0
10
68.2044982910156
20
70.5589981079102
40
0.0
41
0.0
42
0.0
10
68.347900390625
20
70.4994964599609
40
0.0
41
0.0
42
0.0
10
68.4849014282227
20
70.4518966674805
40
0.0
41
0.0
42
0.0
10
68.6150970458984
20
70.4328002929688
40
0.0
41
0.0
42
0.0
10
69.0177001953125
20
70.4254989624023
40
0.0
41
0.0
42
0.0
10
69.1598968505859
20
70.4586029052734
40
0.0
41
0.0
42
0.0
10
69.2225036621094
20
70.4971008300781
40
0.0
41
0.0
42
0.0
10
69.5034027099609
20
70.7266998291016
40
0.0
41
0.0
42
0.0
10
69.6417999267578
20
70.9887008666992
40
0.0
41
0.0
42
0.0
10
69.6989974975586
20
71.1370010375977
40
0.0
41
0.0
42
0.0
10
69.7973022460938
20
71.4545974731445
40
0.0
41
0.0
42
0.0
10
69.8504028320312
20
71.7015991210938
40
0.0
41
0.0
42
0.0
10
69.9300003051758
20
71.9831008911133
40
0.0
41
0.0
42
0.0
10
69.931999206543
20
72.0820999145508
40
0.0
41
0.0
42
0.0
10
69.999397277832
20
72.4628982543945
40
0.0
41
0.0
42
0.0
10
70.0068969726562
20
72.4906005859375
40
0.0
41
0.0
42
0.0
10
70.0066986083984
20
72.5143966674805
40
0.0
41
0.0
42
0.0
10
70.0043029785156
20
72.5156021118164
40
0.0
41
0.0
42
0.0
10
69.7618026733398
20
73.0036010742188
40
0.0
41
0.0
42
0.0
10
69.511100769043
20
73.1110000610352
40
0.0
41
0.0
42
0.0
10
69.2898025512695
20
73.2212982177734
40
0.0
41
0.0
42
0.0
10
69.0094985961914
20
73.3896026611328
40
0.0
41
0.0
42
0.0
10
68.8152008056641
20
73.4951019287109
40
0.0
41
0.0
42
0.0
10
68.5130004882812
20
73.6396026611328
40
0.0
41
0.0
42
0.0
10
68.2906036376953
20
73.6893005371094
40
0.0
41
0.0
42
0.0
10
68.0178985595703
20
73.743896484375
40
0.0
41
0.0
42
0.0
10
67.9860000610352
20
73.7437973022461
40
0.0
41
0.0
42
0.0
10
67.7147979736328
20
73.5744018554688
40
0.0
41
0.0
42
0.0
10
67.6175003051758
20
73.5311965942383
40
0.0
41
0.0
42
0.0
10
67.5718002319336
20
73.5019989013672
40
0.0
41
0.0
42
0.0
10
67.4947967529297
20
73.4576034545898
40
0.0
41
0.0
42
0.0
10
67.381103515625
20
73.2839965820312
40
0.0
41
0.0
42
0.0
10
67.2253036499023
20
73.0110015869141
40
0.0
41
0.0
42
0.0
10
67.1401977539062
20
72.78759765625
40
0.0
41
0.0
42
0.0
10
67.0407028198242
20
72.5154037475586
40
0.0
41
0.0
42
0.0
10
67.0231018066406
20
72.2946014404297
40
0.0
41
0.0
42
0.0
10
66.9822998046875
20
72.0184020996094
40
0.0
41
0.0
42
0.0
10
66.9822006225586
20
71.9813995361328
40
0.0
41
0.0
42
0.0
10
66.999397277832
20
71.8567962646484
40
0.0
41
0.0
42
0.0
10
67.0828018188477
20
71.4869003295898
40
0.0
41
0.0
42
0.0
210
0.0
220
0.0
230
1.0
0
LWPOLYLINE
5
27
330
1C
100
AcDbEntity
67
0
8
0
62
256
6
ByLayer
370
-1
48
1.0
60
0
100
AcDbPolyline
90
45
70
1
38
0.0
39
0.0
10
67.0252990722656
20
72.2190017700195
40
0.0
41
0.0
42
0.0
10
67.046501159668
20
72.4844970703125
40
0.0
41
0.0
42
0.0
10
67.1333999633789
20
72.722297668457
40
0.0
41
0.0
42
0.0
10
67.2350997924805
20
72.9889984130859
40
0.0
41
0.0
42
0.0
10
67.3702011108398
20
73.2258987426758
40
0.0
41
0.0
42
0.0
10
67.5052032470703
20
73.4319000244141
40
0.0
41
0.0
42
0.0
10
67.6195983886719
20
73.4979019165039
40
0.0
41
0.0
42
0.0
10
67.6603012084961
20
73.5239028930664
40
0.0
41
0.0
42
0.0
10
67.7751007080078
20
73.5749969482422
40
0.0
41
0.0
42
0.0
10
68.0062026977539
20
73.7192993164062
40
0.0
41
0.0
42
0.0
10
68.2192993164062
20
73.6766967773438
40
0.0
41
0.0
42
0.0
10
68.4868011474609
20
73.6168975830078
40
0.0
41
0.0
42
0.0
10
68.75
20
73.4912033081055
40
0.0
41
0.0
42
0.0
10
68.9904022216797
20
73.3607025146484
40
0.0
41
0.0
42
0.0
10
69.3337020874023
20
73.1545028686523
40
0.0
41
0.0
42
0.0
10
69.4888000488281
20
73.0773010253906
40
0.0
41
0.0
42
0.0
10
69.6781005859375
20
72.9962005615234
40
0.0
41
0.0
42
0.0
10
69.8615036010742
20
72.6270980834961
40
0.0
41
0.0
42
0.0
10
69.9297027587891
20
72.5295028686523
40
0.0
41
0.0
42
0.0
10
69.9509963989258
20
72.4931030273438
40
0.0
41
0.0
42
0.0
10
69.8949966430664
20
72.1762008666992
40
0.0
41
0.0
42
0.0
10
69.8918991088867
20
72.0167999267578
40
0.0
41
0.0
42
0.0
10
69.8227996826172
20
71.7726974487305
40
0.0
41
0.0
42
0.0
10
69.7621002197266
20
71.4884033203125
40
0.0
41
0.0
42
0.0
10
69.6697006225586
20
71.1899032592773
40
0.0
41
0.0
42
0.0
10
69.6008987426758
20
71.0111999511719
40
0.0
41
0.0
42
0.0
10
69.4964981079102
20
70.8137969970703
40
0.0
41
0.0
42
0.0
10
69.1150970458984
20
70.5020980834961
40
0.0
41
0.0
42
0.0
10
69.0734024047852
20
70.4765014648438
40
0.0
41
0.0
42
0.0
10
68.9853973388672
20
70.4560012817383
40
0.0
41
0.0
42
0.0
10
68.5864028930664
20
70.4642028808594
40
0.0
41
0.0
42
0.0
10
68.5149002075195
20
70.4745025634766
40
0.0
41
0.0
42
0.0
10
68.4410018920898
20
70.5001983642578
40
0.0
41
0.0
42
0.0
10
68.2714996337891
20
70.5703964233398
40
0.0
41
0.0
42
0.0
10
68.011100769043
20
70.6483993530273
40
0.0
41
0.0
42
0.0
10
67.7740020751953
20
70.7985000610352
40
0.0
41
0.0
42
0.0
10
67.5781021118164
20
70.9121017456055
40
0.0
41
0.0
42
0.0
10
67.5071029663086
20
70.9609985351562
40
0.0
41
0.0
42
0.0
10
67.4557037353516
20
71.0046005249023
40
0.0
41
0.0
42
0.0
10
67.3970031738281
20
71.0671005249023
40
0.0
41
0.0
42
0.0
10
67.2674026489258
20
71.2991027832031
40
0.0
41
0.0
42
0.0
10
67.100700378418
20
71.5068969726562
40
0.0
41
0.0
42
0.0
10
66.9985961914062
20
71.9555969238281
40
0.0
41
0.0
42
0.0
10
66.9925994873047
20
71.9997024536133
40
0.0
41
0.0
42
0.0
10
67.0252990722656
20
72.2190017700195
40
0.0
41
0.0
42
0.0
210
0.0
220
0.0
230
1.0
0
LWPOLYLINE
5
28
330
1C
100
AcDbEntity
67
0
8
0
62
256
6
ByLayer
370
-1
48
1.0
60
0
100
AcDbPolyline
90
36
70
1
38
0.0
39
0.0
10
67.8483963012695
20
84.7149963378906
40
0.0
41
0.0
42
0.0
10
67.8638000488281
20
84.6937026977539
40
0.0
41
0.0
42
0.0
10
67.9909973144531
20
84.5998992919922
40
0.0
41
0.0
42
0.0
10
68.1020965576172
20
84.5438995361328
40
0.0
41
0.0
42
0.0
10
68.3351974487305
20
84.5007019042969
40
0.0
41
0.0
42
0.0
10
68.481201171875
20
84.481201171875
40
0.0
41
0.0
42
0.0
10
68.5866012573242
20
84.4826965332031
40
0.0
41
0.0
42
0.0
10
69.0189971923828
20
84.4834976196289
40
0.0
41
0.0
42
0.0
10
69.5169982910156
20
84.5294036865234
40
0.0
41
0.0
42
0.0
10
69.7914962768555
20
84.5820999145508
40
0.0
41
0.0
42
0.0
10
70.0151977539062
20
84.6140975952148
40
0.0
41
0.0
42
0.0
10
70.2889022827148
20
84.7032012939453
40
0.0
41
0.0
42
0.0
10
70.5118026733398
20
84.7643966674805
40
0.0
41
0.0
42
0.0
10
70.7852020263672
20
84.9220962524414
40
0.0
41
0.0
42
0.0
10
70.8927001953125
20
84.9732971191406
40
0.0
41
0.0
42
0.0
10
70.9233016967773
20
84.9917984008789
40
0.0
41
0.0
42
0.0
10
70.9233016967773
20
84.9990005493164
40
0.0
41
0.0
42
0.0
10
70.8832015991211
20
84.9990005493164
40
0.0
41
0.0
42
0.0
10
70.8517990112305
20
84.9800033569336
40
0.0
41
0.0
42
0.0
10
70.7247009277344
20
84.9195022583008
40
0.0
41
0.0
42
0.0
10
70.4880981445312
20
84.7828979492188
40
0.0
41
0.0
42
0.0
10
70.2210006713867
20
84.709602355957
40
0.0
41
0.0
42
0.0
10
69.9847030639648
20
84.6327972412109
40
0.0
41
0.0
42
0.0
10
69.7183990478516
20
84.594596862793
40
0.0
41
0.0
42
0.0
10
69.4829025268555
20
84.549201965332
40
0.0
41
0.0
42
0.0
10
68.9952011108398
20
84.5039978027344
40
0.0
41
0.0
42
0.0
10
68.529296875
20
84.5022964477539
40
0.0
41
0.0
42
0.0
10
68.5171966552734
20
84.5031967163086
40
0.0
41
0.0
42
0.0
10
68.1846008300781
20
84.5650024414062
40
0.0
41
0.0
42
0.0
10
68.008903503418
20
84.6535034179688
40
0.0
41
0.0
42
0.0
10
67.8928985595703
20
84.7391967773438
40
0.0
41
0.0
42
0.0
10
67.8667984008789
20
84.7748031616211
40
0.0
41
0.0
42
0.0
10
67.7824020385742
20
84.9990005493164
40
0.0
41
0.0
42
0.0
10
67.747200012207
20
84.9990005493164
40
0.0
41
0.0
42
0.0
10
67.7471008300781
20
84.9838027954102
40
0.0
41
0.0
42
0.0
10
67.8483963012695
20
84.7149963378906
40
0.0
41
0.0
42
0.0
210
0.0
220
0.0
230
1.0
0
LWPOLYLINE
5
29
330
1C
100
AcDbEntity
67
0
8
0
62
256
6
ByLayer
370
-1
48
1.0
60
0
100
AcDbPolyline
90
26
70
1
38
0.0
39
0.0
10
68.8088989257812
20
65.0615005493164
40
0.0
41
0.0
42
0.0
10
69.0164031982422
20
65.1126022338867
40
0.0
41
0.0
42
0.0
10
69.2531967163086
20
65.1367034912109
40
0.0
41
0.0
42
0.0
10
69.5189971923828
20
65.1541976928711
40
0.0
41
0.0
42
0.0
10
69.7313003540039
20
65.1587982177734
40
0.0
41
0.0
42
0.0
10
69.9806976318359
20
65.1509017944336
40
0.0
41
0.0
42
0.0
10
70.216796875
20
65.1406021118164
40
0.0
41
0.0
42
0.0
10
70.4829025268555
20
65.1054000854492
40
0.0
41
0.0
42
0.0
10
70.719596862793
20
65.0687026977539
40
0.0
41
0.0
42
0.0
10
70.9466018676758
20
65.0009994506836
40
0.0
41
0.0
42
0.0
10
71.011100769043
20
65.0009994506836
40
0.0
41
0.0
42
0.0
10
71.0110015869141
20
65.0044021606445
40
0.0
41
0.0
42
0.0
10
70.7902984619141
20
65.0712966918945
40
0.0
41
0.0
42
0.0
10
70.5168991088867
20
65.1137008666992
40
0.0
41
0.0
42
0.0
10
70.293098449707
20
65.1434020996094
40
0.0
41
0.0
42
0.0
10
70.0192031860352
20
65.155403137207
40
0.0
41
0.0
42
0.0
10
69.7946014404297
20
65.16259765625
40
0.0
41
0.0
42
0.0
10
69.7552032470703
20
65.1624984741211
40
0.0
41
0.0
42
0.0
10
69.4727020263672
20
65.1559982299805
40
0.0
41
0.0
42
0.0
10
69.2566986083984
20
65.1417999267578
40
0.0
41
0.0
42
0.0
10
68.9834976196289
20
65.1139984130859
40
0.0
41
0.0
42
0.0
10
68.8107986450195
20
65.071403503418
40
0.0
41
0.0
42
0.0
10
68.5824966430664
20
65.0042037963867
40
0.0
41
0.0
42
0.0
10
68.5824966430664
20
65.0009994506836
40
0.0
41
0.0
42
0.0
10
68.6027984619141
20
65.0009002685547
40
0.0
41
0.0
42
0.0
10
68.8088989257812
20
65.0615005493164
40
0.0
41
0.0
42
0.0
210
0.0
220
0.0
230
1.0
0
LWPOLYLINE
5
2A
330
1C
100
AcDbEntity
67
0
8
0
62
256
6
ByLayer
370
-1
48
1.0
60
0
100
AcDbPolyline
90
47
70
1
38
0.0
39
0.0
10
70.4970016479492
20
80.7772979736328
40
0.0
41
0.0
42
0.0
10
70.7266998291016
20
80.4964981079102
40
0.0
41
0.0
42
0.0
10
70.9886016845703
20
80.3579025268555
40
0.0
41
0.0
42
0.0
10
71.1369018554688
20
80.3006973266602
40
0.0
41
0.0
42
0.0
10
71.4545974731445
20
80.2024993896484
40
0.0
41
0.0
42
0.0
10
71.7015991210938
20
80.149299621582
40
0.0
41
0.0
42
0.0
10
71.9831008911133
20
80.0697021484375
40
0.0
41
0.0
42
0.0
10
72.0820999145508
20
80.0677032470703
40
0.0
41
0.0
42
0.0
10
72.4628982543945
20
80.0003967285156
40
0.0
41
0.0
42
0.0
10
72.4906005859375
20
79.9929962158203
40
0.0
41
0.0
42
0.0
10
72.5143966674805
20
79.9929962158203
40
0.0
41
0.0
42
0.0
10
72.5156021118164
20
79.9954986572266
40
0.0
41
0.0
42
0.0
10
73.0036010742188
20
80.2379989624023
40
0.0
41
0.0
42
0.0
10
73.1113967895508
20
80.4897994995117
40
0.0
41
0.0
42
0.0
10
73.2565994262695
20
80.7153015136719
40
0.0
41
0.0
42
0.0
10
73.3891983032227
20
80.989501953125
40
0.0
41
0.0
42
0.0
10
73.4951019287109
20
81.1846008300781
40
0.0
41
0.0
42
0.0
10
73.6396026611328
20
81.4869003295898
40
0.0
41
0.0
42
0.0
10
73.6893005371094
20
81.7092971801758
40
0.0
41
0.0
42
0.0
10
73.743896484375
20
81.9820022583008
40
0.0
41
0.0
42
0.0
10
73.7436981201172
20
82.0139007568359
40
0.0
41
0.0
42
0.0
10
73.5743026733398
20
82.2851028442383
40
0.0
41
0.0
42
0.0
10
73.5311965942383
20
82.3823013305664
40
0.0
41
0.0
42
0.0
10
73.5019989013672
20
82.4279022216797
40
0.0
41
0.0
42
0.0
10
73.4574966430664
20
82.5050964355469
40
0.0
41
0.0
42
0.0
10
73.2838973999023
20
82.6185989379883
40
0.0
41
0.0
42
0.0
10
73.0109024047852
20
82.7743988037109
40
0.0
41
0.0
42
0.0
10
72.78759765625
20
82.8595962524414
40
0.0
41
0.0
42
0.0
10
72.5154037475586
20
82.9589996337891
40
0.0
41
0.0
42
0.0
10
72.2946014404297
20
82.9766006469727
40
0.0
41
0.0
42
0.0
10
72.0184020996094
20
83.0176010131836
40
0.0
41
0.0
42
0.0
10
71.9813995361328
20
83.0175018310547
40
0.0
41
0.0
42
0.0
10
71.8567962646484
20
83.0002975463867
40
0.0
41
0.0
42
0.0
10
71.4893035888672
20
82.9173965454102
40
0.0
41
0.0
42
0.0
10
71.3224029541016
20
82.7834014892578
40
0.0
41
0.0
42
0.0
10
71.1574020385742
20
82.6710968017578
40
0.0
41
0.0
42
0.0
10
70.9934997558594
20
82.5795974731445
40
0.0
41
0.0
42
0.0
10
70.9321975708008
20
82.5075988769531
40
0.0
41
0.0
42
0.0
10
70.7962036132812
20
82.2838973999023
40
0.0
41
0.0
42
0.0
10
70.6234970092773
20
82.0111999511719
40
0.0
41
0.0
42
0.0
10
70.5589981079102
20
81.7953033447266
40
0.0
41
0.0
42
0.0
10
70.4996032714844
20
81.6519012451172
40
0.0
41
0.0
42
0.0
10
70.4518966674805
20
81.5149993896484
40
0.0
41
0.0
42
0.0
10
70.4328002929688
20
81.3846969604492
40
0.0
41
0.0
42
0.0
10
70.4253997802734
20
80.9822006225586
40
0.0
41
0.0
42
0.0
10
70.4585037231445
20
80.8399963378906
40
0.0
41
0.0
42
0.0
10
70.4970016479492
20
80.7772979736328
40
0.0
41
0.0
42
0.0
210
0.0
220
0.0
230
1.0
0
LWPOLYLINE
5
2B
330
1C
100
AcDbEntity
67
0
8
0
62
256
6
ByLayer
370
-1
48
1.0
60
0
100
AcDbPolyline
90
44
70
1
38
0.0
39
0.0
10
70.5001983642578
20
81.5587997436523
40
0.0
41
0.0
42
0.0
10
70.5705032348633
20
81.7283020019531
40
0.0
41
0.0
42
0.0
10
70.6483993530273
20
81.9888000488281
40
0.0
41
0.0
42
0.0
10
70.798698425293
20
82.2259979248047
40
0.0
41
0.0
42
0.0
10
70.9607009887695
20
82.492301940918
40
0.0
41
0.0
42
0.0
10
71.0064010620117
20
82.5459976196289
40
0.0
41
0.0
42
0.0
10
71.1174011230469
20
82.6080017089844
40
0.0
41
0.0
42
0.0
10
71.3058013916016
20
82.7363967895508
40
0.0
41
0.0
42
0.0
10
71.5105972290039
20
82.9007034301758
40
0.0
41
0.0
42
0.0
10
71.9555969238281
20
83.0009994506836
40
0.0
41
0.0
42
0.0
10
71.9997024536133
20
83.0072021484375
40
0.0
41
0.0
42
0.0
10
72.2190017700195
20
82.9744033813477
40
0.0
41
0.0
42
0.0
10
72.4844970703125
20
82.9532012939453
40
0.0
41
0.0
42
0.0
10
72.722297668457
20
82.8663024902344
40
0.0
41
0.0
42
0.0
10
72.988899230957
20
82.7647018432617
40
0.0
41
0.0
42
0.0
10
73.2258987426758
20
82.6295013427734
40
0.0
41
0.0
42
0.0
10
73.4319000244141
20
82.4946975708008
40
0.0
41
0.0
42
0.0
10
73.497802734375
20
82.3802032470703
40
0.0
41
0.0
42
0.0
10
73.5239028930664
20
82.3395004272461
40
0.0
41
0.0
42
0.0
10
73.5748977661133
20
82.2248001098633
40
0.0
41
0.0
42
0.0
10
73.7192993164062
20
81.9936981201172
40
0.0
41
0.0
42
0.0
10
73.6766967773438
20
81.7806015014648
40
0.0
41
0.0
42
0.0
10
73.6168975830078
20
81.5130996704102
40
0.0
41
0.0
42
0.0
10
73.4913024902344
20
81.2498016357422
40
0.0
41
0.0
42
0.0
10
73.361198425293
20
81.0103988647461
40
0.0
41
0.0
42
0.0
10
73.2472991943359
20
80.7746963500977
40
0.0
41
0.0
42
0.0
10
73.0768966674805
20
80.5101013183594
40
0.0
41
0.0
42
0.0
10
72.9962997436523
20
80.3216018676758
40
0.0
41
0.0
42
0.0
10
72.6270980834961
20
80.1381988525391
40
0.0
41
0.0
42
0.0
10
72.5295028686523
20
80.0699996948242
40
0.0
41
0.0
42
0.0
10
72.4931030273438
20
80.048698425293
40
0.0
41
0.0
42
0.0
10
72.1762008666992
20
80.1046981811523
40
0.0
41
0.0
42
0.0
10
72.0167999267578
20
80.1078033447266
40
0.0
41
0.0
42
0.0
10
71.7726974487305
20
80.1769027709961
40
0.0
41
0.0
42
0.0
10
71.4882965087891
20
80.2376022338867
40
0.0
41
0.0
42
0.0
10
71.1899032592773
20
80.3301010131836
40
0.0
41
0.0
42
0.0
10
71.0111999511719
20
80.3989028930664
40
0.0
41
0.0
42
0.0
10
70.8137969970703
20
80.503303527832
40
0.0
41
0.0
42
0.0
10
70.502799987793
20
80.8837966918945
40
0.0
41
0.0
42
0.0
10
70.4765014648438
20
80.9263000488281
40
0.0
41
0.0
42
0.0
10
70.4560012817383
20
81.0145034790039
40
0.0
41
0.0
42
0.0
10
70.4642028808594
20
81.4133987426758
40
0.0
41
0.0
42
0.0
10
70.4745025634766
20
81.4850006103516
40
0.0
41
0.0
42
0.0
10
70.5001983642578
20
81.5587997436523
40
0.0
41
0.0
42
0.0
210
0.0
220
0.0
230
1.0
0
LWPOLYLINE
5
2C
330
1C
100
AcDbEntity
67
0
8
0
62
256
6
ByLayer
370
-1
48
1.0
60
0
100
AcDbPolyline
90
159
70
1
38
0.0
39
0.0
10
71.0836029052734
20
75.9901962280273
40
0.0
41
0.0
42
0.0
10
71.1641006469727
20
75.8985977172852
40
0.0
41
0.0
42
0.0
10
71.2205963134766
20
75.8387985229492
40
0.0
41
0.0
42
0.0
10
71.3701019287109
20
75.6591033935547
40
0.0
41
0.0
42
0.0
10
71.5185012817383
20
75.4936981201172
40
0.0
41
0.0
42
0.0
10
71.6462020874023
20
75.3404998779297
40
0.0
41
0.0
42
0.0
10
71.7202987670898
20
75.2592010498047
40
0.0
41
0.0
42
0.0
10
71.8348999023438
20
75.1379013061523
40
0.0
41
0.0
42
0.0
10
71.9789962768555
20
74.9984970092773
40
0.0
41
0.0
42
0.0
10
71.8388977050781
20
74.7861022949219
40
0.0
41
0.0
42
0.0
10
71.7609024047852
20
74.5091018676758
40
0.0
41
0.0
42
0.0
10
71.5389022827148
20
74.2807006835938
40
0.0
41
0.0
42
0.0
10
71.5018005371094
20
74.2378997802734
40
0.0
41
0.0
42
0.0
10
71.3113021850586
20
74.0092010498047
40
0.0
41
0.0
42
0.0
10
71.2265014648438
20
73.7851028442383
40
0.0
41
0.0
42
0.0
10
71.0352020263672
20
73.513298034668
40
0.0
41
0.0
42
0.0
10
71.0350036621094
20
73.4882965087891
40
0.0
41
0.0
42
0.0
10
71.0485000610352
20
73.4741973876953
40
0.0
41
0.0
42
0.0
10
71.1885986328125
20
73.3001022338867
40
0.0
41
0.0
42
0.0
10
71.314697265625
20
72.9975967407227
40
0.0
41
0.0
42
0.0
10
71.4833984375
20
72.953498840332
40
0.0
41
0.0
42
0.0
10
71.5771026611328
20
72.9468994140625
40
0.0
41
0.0
42
0.0
10
71.9822006225586
20
72.8936996459961
40
0.0
41
0.0
42
0.0
10
72.1695022583008
20
72.8778991699219
40
0.0
41
0.0
42
0.0
10
72.2083969116211
20
72.877799987793
40
0.0
41
0.0
42
0.0
10
72.4872970581055
20
72.8859024047852
40
0.0
41
0.0
42
0.0
10
72.5952987670898
20
72.8227005004883
40
0.0
41
0.0
42
0.0
10
72.8130035400391
20
72.6741027832031
40
0.0
41
0.0
42
0.0
10
72.996696472168
20
72.676399230957
40
0.0
41
0.0
42
0.0
10
73.0406036376953
20
72.4826965332031
40
0.0
41
0.0
42
0.0
10
73.0448989868164
20
72.3865966796875
40
0.0
41
0.0
42
0.0
10
73.0780029296875
20
71.9819030761719
40
0.0
41
0.0
42
0.0
10
73.1072006225586
20
71.709098815918
40
0.0
41
0.0
42
0.0
10
73.1741027832031
20
71.4850006103516
40
0.0
41
0.0
42
0.0
10
73.2283020019531
20
71.2128982543945
40
0.0
41
0.0
42
0.0
10
73.2780990600586
20
71.1349029541016
40
0.0
41
0.0
42
0.0
10
73.424201965332
20
70.9915008544922
40
0.0
41
0.0
42
0.0
10
73.4552001953125
20
70.9031982421875
40
0.0
41
0.0
42
0.0
10
73.4834976196289
20
70.8935012817383
40
0.0
41
0.0
42
0.0
10
73.5146026611328
20
70.8934020996094
40
0.0
41
0.0
42
0.0
10
73.7071990966797
20
70.9994964599609
40
0.0
41
0.0
42
0.0
10
74.0096969604492
20
71.0837020874023
40
0.0
41
0.0
42
0.0
10
74.1011962890625
20
71.1641998291016
40
0.0
41
0.0
42
0.0
10
74.161003112793
20
71.220703125
40
0.0
41
0.0
42
0.0
10
74.3406982421875
20
71.3702011108398
40
0.0
41
0.0
42
0.0
10
74.5062026977539
20
71.5185012817383
40
0.0
41
0.0
42
0.0
10
74.6592025756836
20
71.6463012695312
40
0.0
41
0.0
42
0.0
10
74.7406005859375
20
71.7203979492188
40
0.0
41
0.0
42
0.0
10
74.8619003295898
20
71.8349990844727
40
0.0
41
0.0
42
0.0
10
75.0014038085938
20
71.9788970947266
40
0.0
41
0.0
42
0.0
10
75.2136993408203
20
71.8387985229492
40
0.0
41
0.0
42
0.0
10
75.4906997680664
20
71.7609024047852
40
0.0
41
0.0
42
0.0
10
75.7191009521484
20
71.5388031005859
40
0.0
41
0.0
42
0.0
10
75.7618026733398
20
71.5017013549805
40
0.0
41
0.0
42
0.0
10
75.9897994995117
20
71.311897277832
40
0.0
41
0.0
42
0.0
10
76.00830078125
20
71.3070983886719
40
0.0
41
0.0
42
0.0
10
76.213996887207
20
71.2267990112305
40
0.0
41
0.0
42
0.0
10
76.3603973388672
20
71.1427993774414
40
0.0
41
0.0
42
0.0
10
76.4876022338867
20
71.0352020263672
40
0.0
41
0.0
42
0.0
10
76.5114974975586
20
71.0352020263672
40
0.0
41
0.0
42
0.0
10
76.5254974365234
20
71.0485000610352
40
0.0
41
0.0
42
0.0
10
76.6996994018555
20
71.1885986328125
40
0.0
41
0.0
42
0.0
10
77.002197265625
20
71.3147964477539
40
0.0
41
0.0
42
0.0
10
77.0462036132812
20
71.4833984375
40
0.0
41
0.0
42
0.0
10
77.0528030395508
20
71.5771026611328
40
0.0
41
0.0
42
0.0
10
77.1060028076172
20
71.9822006225586
40
0.0
41
0.0
42
0.0
10
77.1220016479492
20
72.1695022583008
40
0.0
41
0.0
42
0.0
10
77.1219024658203
20
72.2083969116211
40
0.0
41
0.0
42
0.0
10
77.1138000488281
20
72.4872970581055
40
0.0
41
0.0
42
0.0
10
77.1771011352539
20
72.5952987670898
40
0.0
41
0.0
42
0.0
10
77.3255996704102
20
72.8130035400391
40
0.0
41
0.0
42
0.0
10
77.3234024047852
20
72.996696472168
40
0.0
41
0.0
42
0.0
10
77.5171966552734
20
73.0406036376953
40
0.0
41
0.0
42
0.0
10
77.6131973266602
20
73.0448989868164
40
0.0
41
0.0
42
0.0
10
78.0179977416992
20
73.0780029296875
40
0.0
41
0.0
42
0.0
10
78.2908020019531
20
73.1072006225586
40
0.0
41
0.0
42
0.0
10
78.5149002075195
20
73.1741027832031
40
0.0
41
0.0
42
0.0
10
78.7870025634766
20
73.2283020019531
40
0.0
41
0.0
42
0.0
10
78.8647994995117
20
73.2781982421875
40
0.0
41
0.0
42
0.0
10
79.0083999633789
20
73.424201965332
40
0.0
41
0.0
42
0.0
10
79.0964965820312
20
73.4552001953125
40
0.0
41
0.0
42
0.0
10
79.1063995361328
20
73.4834976196289
40
0.0
41
0.0
42
0.0
10
79.1063003540039
20
73.5145034790039
40
0.0
41
0.0
42
0.0
10
79.0002975463867
20
73.7070999145508
40
0.0
41
0.0
42
0.0
10
78.9160995483398
20
74.0093002319336
40
0.0
41
0.0
42
0.0
10
78.8911972045898
20
74.0356979370117
40
0.0
41
0.0
42
0.0
10
78.5043029785156
20
74.4807968139648
40
0.0
41
0.0
42
0.0
10
78.0206985473633
20
75.0011978149414
40
0.0
41
0.0
42
0.0
10
78.1608963012695
20
75.2137985229492
40
0.0
41
0.0
42
0.0
10
78.238899230957
20
75.4907989501953
40
0.0
41
0.0
42
0.0
10
78.4608993530273
20
75.7191009521484
40
0.0
41
0.0
42
0.0
10
78.5038986206055
20
75.7688980102539
40
0.0
41
0.0
42
0.0
10
78.6877975463867
20
75.9897994995117
40
0.0
41
0.0
42
0.0
10
78.6925964355469
20
76.00830078125
40
0.0
41
0.0
42
0.0
10
78.7729034423828
20
76.2141036987305
40
0.0
41
0.0
42
0.0
10
78.8570022583008
20
76.3604965209961
40
0.0
41
0.0
42
0.0
10
78.9646987915039
20
76.4876022338867
40
0.0
41
0.0
42
0.0
10
78.964599609375
20
76.5114974975586
40
0.0
41
0.0
42
0.0
10
78.9512023925781
20
76.5253982543945
40
0.0
41
0.0
42
0.0
10
78.8110961914062
20
76.6996002197266
40
0.0
41
0.0
42
0.0
10
78.6849975585938
20
77.002197265625
40
0.0
41
0.0
42
0.0
10
78.5165023803711
20
77.0462036132812
40
0.0
41
0.0
42
0.0
10
78.4226989746094
20
77.0528030395508
40
0.0
41
0.0
42
0.0
10
78.0177001953125
20
77.1060028076172
40
0.0
41
0.0
42
0.0
10
77.8302993774414
20
77.1220016479492
40
0.0
41
0.0
42
0.0
10
77.7913970947266
20
77.1219024658203
40
0.0
41
0.0
42
0.0
10
77.5126037597656
20
77.1138000488281
40
0.0
41
0.0
42
0.0
10
77.4046020507812
20
77.177001953125
40
0.0
41
0.0
42
0.0
10
77.1867980957031
20
77.3255996704102
40
0.0
41
0.0
42
0.0
10
77.0030975341797
20
77.3233032226562
40
0.0
41
0.0
42
0.0
10
76.959098815918
20
77.5170974731445
40
0.0
41
0.0
42
0.0
10
76.9548034667969
20
77.6131973266602
40
0.0
41
0.0
42
0.0
10
76.9216995239258
20
78.0179977416992
40
0.0
41
0.0
42
0.0
10
76.8925018310547
20
78.2908020019531
40
0.0
41
0.0
42
0.0
10
76.8255996704102
20
78.5149002075195
40
0.0
41
0.0
42
0.0
10
76.7714004516602
20
78.7869033813477
40
0.0
41
0.0
42
0.0
10
76.7216033935547
20
78.8647994995117
40
0.0
41
0.0
42
0.0
10
76.5755004882812
20
79.00830078125
40
0.0
41
0.0
42
0.0
10
76.5445022583008
20
79.0964965820312
40
0.0
41
0.0
42
0.0
10
76.5164031982422
20
79.1063995361328
40
0.0
41
0.0
42
0.0
10
76.4853973388672
20
79.1063003540039
40
0.0
41
0.0
42
0.0
10
76.2927017211914
20
79.0002975463867
40
0.0
41
0.0
42
0.0
10
75.9903030395508
20
78.9161987304688
40
0.0
41
0.0
42
0.0
10
75.8387985229492
20
78.7791976928711
40
0.0
41
0.0
42
0.0
10
75.2592010498047
20
78.2795028686523
40
0.0
41
0.0
42
0.0
10
74.9988021850586
20
78.0205993652344
40
0.0
41
0.0
42
0.0
10
74.7861022949219
20
78.1607971191406
40
0.0
41
0.0
42
0.0
10
74.5091018676758
20
78.2388000488281
40
0.0
41
0.0
42
0.0
10
74.2807006835938
20
78.4608001708984
40
0.0
41
0.0
42
0.0
10
74.2309036254883
20
78.5038986206055
40
0.0
41
0.0
42
0.0
10
74.0078964233398
20
78.6894989013672
40
0.0
41
0.0
42
0.0
10
73.5668029785156
20
78.9448013305664
40
0.0
41
0.0
42
0.0
10
73.515998840332
20
78.9646987915039
40
0.0
41
0.0
42
0.0
10
73.4882965087891
20
78.9646987915039
40
0.0
41
0.0
42
0.0
10
73.4742965698242
20
78.951301574707
40
0.0
41
0.0
42
0.0
10
73.3002014160156
20
78.8110961914062
40
0.0
41
0.0
42
0.0
10
72.9975967407227
20
78.6850967407227
40
0.0
41
0.0
42
0.0
10
72.953498840332
20
78.5165023803711
40
0.0
41
0.0
42
0.0
10
72.9468994140625
20
78.4226989746094
40
0.0
41
0.0
42
0.0
10
72.8936996459961
20
78.0177001953125
40
0.0
41
0.0
42
0.0
10
72.8778991699219
20
77.8302993774414
40
0.0
41
0.0
42
0.0
10
72.877799987793
20
77.7913970947266
40
0.0
41
0.0
42
0.0
10
72.8859024047852
20
77.5126037597656
40
0.0
41
0.0
42
0.0
10
72.8227005004883
20
77.4046020507812
40
0.0
41
0.0
42
0.0
10
72.6741027832031
20
77.1867980957031
40
0.0
41
0.0
42
0.0
10
72.6764984130859
20
77.0030975341797
40
0.0
41
0.0
42
0.0
10
72.4828033447266
20
76.959098815918
40
0.0
41
0.0
42
0.0
10
72.3865966796875
20
76.9548034667969
40
0.0
41
0.0
42
0.0
10
71.9819030761719
20
76.9216995239258
40
0.0
41
0.0
42
0.0
10
71.709098815918
20
76.8925018310547
40
0.0
41
0.0
42
0.0
10
71.4850006103516
20
76.8255996704102
40
0.0
41
0.0
42
0.0
10
71.2128982543945
20
76.7714004516602
40
0.0
41
0.0
42
0.0
10
71.1350021362305
20
76.7216033935547
40
0.0
41
0.0
42
0.0
10
70.9915008544922
20
76.5755004882812
40
0.0
41
0.0
42
0.0
10
70.9032974243164
20
76.5446014404297
40
0.0
41
0.0
42
0.0
10
70.8935012817383
20
76.5164031982422
40
0.0
41
0.0
42
0.0
10
70.8934020996094
20
76.4852981567383
40
0.0
41
0.0
42
0.0
10
70.9994964599609
20
76.2926025390625
40
0.0
41
0.0
42
0.0
10
71.0836029052734
20
75.9901962280273
40
0.0
41
0.0
42
0.0
210
0.0
220
0.0
230
1.0
0
LWPOLYLINE
5
2D
330
1C
100
AcDbEntity
67
0
8
0
62
256
6
ByLayer
370
-1
48
1.0
60
0
100
AcDbPolyline
90
45
70
1
38
0.0
39
0.0
10
70.8871002197266
20
68.2101974487305
40
0.0
41
0.0
42
0.0
10
70.9356994628906
20
67.9868011474609
40
0.0
41
0.0
42
0.0
10
70.9983978271484
20
67.8580017089844
40
0.0
41
0.0
42
0.0
10
71.0910034179688
20
67.6988983154297
40
0.0
41
0.0
42
0.0
10
71.2171020507812
20
67.4925003051758
40
0.0
41
0.0
42
0.0
10
71.3139038085938
20
67.3849029541016
40
0.0
41
0.0
42
0.0
10
71.4943008422852
20
67.1616973876953
40
0.0
41
0.0
42
0.0
10
71.5624008178711
20
67.1140975952148
40
0.0
41
0.0
42
0.0
10
71.7866973876953
20
66.9907989501953
40
0.0
41
0.0
42
0.0
10
71.9871978759766
20
66.8678970336914
40
0.0
41
0.0
42
0.0
10
72.2573013305664
20
66.8311996459961
40
0.0
41
0.0
42
0.0
10
72.4809036254883
20
66.8106002807617
40
0.0
41
0.0
42
0.0
10
72.5183029174805
20
66.8105010986328
40
0.0
41
0.0
42
0.0
10
72.7910995483398
20
66.8547973632812
40
0.0
41
0.0
42
0.0
10
73.0139999389648
20
66.902702331543
40
0.0
41
0.0
42
0.0
10
73.2658004760742
20
66.9990005493164
40
0.0
41
0.0
42
0.0
10
73.508903503418
20
67.1335983276367
40
0.0
41
0.0
42
0.0
10
73.5341033935547
20
67.1510009765625
40
0.0
41
0.0
42
0.0
10
73.6203994750977
20
67.2217025756836
40
0.0
41
0.0
42
0.0
10
73.8684997558594
20
67.3939971923828
40
0.0
41
0.0
42
0.0
10
73.986701965332
20
67.4924011230469
40
0.0
41
0.0
42
0.0
10
74.1614990234375
20
67.9835968017578
40
0.0
41
0.0
42
0.0
10
74.1613998413086
20
68.0165023803711
40
0.0
41
0.0
42
0.0
10
73.9934005737305
20
68.5112991333008
40
0.0
41
0.0
42
0.0
10
73.7388000488281
20
68.9615020751953
40
0.0
41
0.0
42
0.0
10
73.5814971923828
20
69.2464981079102
40
0.0
41
0.0
42
0.0
10
73.5029983520508
20
69.3722991943359
40
0.0
41
0.0
42
0.0
10
73.386100769043
20
69.5053024291992
40
0.0
41
0.0
42
0.0
10
73.0114974975586
20
69.8631973266602
40
0.0
41
0.0
42
0.0
10
72.9841003417969
20
69.8630981445312
40
0.0
41
0.0
42
0.0
10
72.7380981445312
20
69.7626037597656
40
0.0
41
0.0
42
0.0
10
72.518798828125
20
69.8114013671875
40
0.0
41
0.0
42
0.0
10
72.4828033447266
20
69.8113021850586
40
0.0
41
0.0
42
0.0
10
72.2608032226562
20
69.7755966186523
40
0.0
41
0.0
42
0.0
10
71.9877014160156
20
69.6591033935547
40
0.0
41
0.0
42
0.0
10
71.7117004394531
20
69.5572967529297
40
0.0
41
0.0
42
0.0
10
71.5273971557617
20
69.5
40
0.0
41
0.0
42
0.0
10
71.4894027709961
20
69.4860000610352
40
0.0
41
0.0
42
0.0
10
71.4490966796875
20
69.4600982666016
40
0.0
41
0.0
42
0.0
10
71.1135025024414
20
69.2771987915039
40
0.0
41
0.0
42
0.0
10
70.9947967529297
20
69.1899032592773
40
0.0
41
0.0
42
0.0
10
70.8591995239258
20
69.0106964111328
40
0.0
41
0.0
42
0.0
10
70.8032989501953
20
68.7923965454102
40
0.0
41
0.0
42
0.0
10
70.8056030273438
20
68.4831008911133
40
0.0
41
0.0
42
0.0
10
70.8871002197266
20
68.2101974487305
40
0.0
41
0.0
42
0.0
210
0.0
220
0.0
230
1.0
0
LWPOLYLINE
5
2E
330
1C
100
AcDbEntity
67
0
8
0
62
256
6
ByLayer
370
-1
48
1.0
60
0
100
AcDbPolyline
90
46
70
1
38
0.0
39
0.0
10
70.8812026977539
20
68.9893035888672
40
0.0
41
0.0
42
0.0
10
71.004997253418
20
69.1529998779297
40
0.0
41
0.0
42
0.0
10
71.1131973266602
20
69.2326965332031
40
0.0
41
0.0
42
0.0
10
71.4011001586914
20
69.3896026611328
40
0.0
41
0.0
42
0.0
10
71.510498046875
20
69.4599990844727
40
0.0
41
0.0
42
0.0
10
71.6191024780273
20
69.4998016357422
40
0.0
41
0.0
42
0.0
10
71.7781982421875
20
69.5493011474609
40
0.0
41
0.0
42
0.0
10
72.0121994018555
20
69.635498046875
40
0.0
41
0.0
42
0.0
10
72.2490997314453
20
69.7365036010742
40
0.0
41
0.0
42
0.0
10
72.4987030029297
20
69.776496887207
40
0.0
41
0.0
42
0.0
10
72.7671966552734
20
69.716796875
40
0.0
41
0.0
42
0.0
10
72.8006973266602
20
69.716796875
40
0.0
41
0.0
42
0.0
10
72.9965972900391
20
69.7969970703125
40
0.0
41
0.0
42
0.0
10
73.3132019042969
20
69.4944000244141
40
0.0
41
0.0
42
0.0
10
73.4968032836914
20
69.2855987548828
40
0.0
41
0.0
42
0.0
10
73.5621032714844
20
69.1809005737305
40
0.0
41
0.0
42
0.0
10
73.6885986328125
20
68.9514999389648
40
0.0
41
0.0
42
0.0
10
73.9514007568359
20
68.4882965087891
40
0.0
41
0.0
42
0.0
10
73.9998016357422
20
68.331901550293
40
0.0
41
0.0
42
0.0
10
74.1128997802734
20
68.0001983642578
40
0.0
41
0.0
42
0.0
10
73.9997024536133
20
67.6832962036133
40
0.0
41
0.0
42
0.0
10
73.9399032592773
20
67.5075988769531
40
0.0
41
0.0
42
0.0
10
73.8293991088867
20
67.415397644043
40
0.0
41
0.0
42
0.0
10
73.6172027587891
20
67.2680969238281
40
0.0
41
0.0
42
0.0
10
73.5155029296875
20
67.184700012207
40
0.0
41
0.0
42
0.0
10
73.4909973144531
20
67.1679992675781
40
0.0
41
0.0
42
0.0
10
73.1893005371094
20
67.0008010864258
40
0.0
41
0.0
42
0.0
10
72.9859008789062
20
66.9229965209961
40
0.0
41
0.0
42
0.0
10
72.867301940918
20
66.8984985351562
40
0.0
41
0.0
42
0.0
10
72.7189025878906
20
66.8656997680664
40
0.0
41
0.0
42
0.0
10
72.4952011108398
20
66.8292999267578
40
0.0
41
0.0
42
0.0
10
72.2526016235352
20
66.8517990112305
40
0.0
41
0.0
42
0.0
10
72.0127029418945
20
66.8843994140625
40
0.0
41
0.0
42
0.0
10
71.8358993530273
20
66.9929962158203
40
0.0
41
0.0
42
0.0
10
71.8188018798828
20
67.0011978149414
40
0.0
41
0.0
42
0.0
10
71.5698013305664
20
67.1389999389648
40
0.0
41
0.0
42
0.0
10
71.5054016113281
20
67.1840972900391
40
0.0
41
0.0
42
0.0
10
71.3483963012695
20
67.378303527832
40
0.0
41
0.0
42
0.0
10
71.2323989868164
20
67.5073013305664
40
0.0
41
0.0
42
0.0
10
71.0813980102539
20
67.7544021606445
40
0.0
41
0.0
42
0.0
10
71.0014038085938
20
67.8919982910156
40
0.0
41
0.0
42
0.0
10
70.942497253418
20
68.0130004882812
40
0.0
41
0.0
42
0.0
10
70.8843002319336
20
68.2797012329102
40
0.0
41
0.0
42
0.0
10
70.8135986328125
20
68.5167999267578
40
0.0
41
0.0
42
0.0
10
70.811897277832
20
68.7188034057617
40
0.0
41
0.0
42
0.0
10
70.8812026977539
20
68.9893035888672
40
0.0
41
0.0
42
0.0
210
0.0
220
0.0
230
1.0
0
LWPOLYLINE
5
2F
330
1C
100
AcDbEntity
67
0
8
0
62
256
6
ByLayer
370
-1
48
1.0
60
0
100
AcDbPolyline
90
160
70
1
38
0.0
39
0.0
10
71.0083999633789
20
76.5146026611328
40
0.0
41
0.0
42
0.0
10
71.1735000610352
20
76.6828002929688
40
0.0
41
0.0
42
0.0
10
71.2770004272461
20
76.7487030029297
40
0.0
41
0.0
42
0.0
10
71.5149002075195
20
76.7963027954102
40
0.0
41
0.0
42
0.0
10
71.7807998657227
20
76.875602722168
40
0.0
41
0.0
42
0.0
10
72.0179977416992
20
76.9009017944336
40
0.0
41
0.0
42
0.0
10
72.3649978637695
20
76.9292984008789
40
0.0
41
0.0
42
0.0
10
72.5171966552734
20
76.9360961914062
40
0.0
41
0.0
42
0.0
10
72.7844009399414
20
76.996696472168
40
0.0
41
0.0
42
0.0
10
72.7805023193359
20
77.2683029174805
40
0.0
41
0.0
42
0.0
10
72.8849029541016
20
77.421501159668
40
0.0
41
0.0
42
0.0
10
72.9225997924805
20
77.4856033325195
40
0.0
41
0.0
42
0.0
10
72.9225006103516
20
77.5195999145508
40
0.0
41
0.0
42
0.0
10
72.9126968383789
20
77.8572006225586
40
0.0
41
0.0
42
0.0
10
72.9233016967773
20
77.9822006225586
40
0.0
41
0.0
42
0.0
10
72.9859008789062
20
78.4589004516602
40
0.0
41
0.0
42
0.0
10
72.9876022338867
20
78.4833984375
40
0.0
41
0.0
42
0.0
10
73.0022964477539
20
78.5390014648438
40
0.0
41
0.0
42
0.0
10
73.084098815918
20
78.5731964111328
40
0.0
41
0.0
42
0.0
10
73.4626998901367
20
78.877799987793
40
0.0
41
0.0
42
0.0
10
73.5035018920898
20
78.9169006347656
40
0.0
41
0.0
42
0.0
10
73.6141967773438
20
78.8737030029297
40
0.0
41
0.0
42
0.0
10
73.9919967651367
20
78.654899597168
40
0.0
41
0.0
42
0.0
10
74.2289962768555
20
78.456298828125
40
0.0
41
0.0
42
0.0
10
74.4906997680664
20
78.2018966674805
40
0.0
41
0.0
42
0.0
10
74.7238006591797
20
78.1362991333008
40
0.0
41
0.0
42
0.0
10
74.9363021850586
20
77.9962997436523
40
0.0
41
0.0
42
0.0
10
74.9886016845703
20
77.9447021484375
40
0.0
41
0.0
42
0.0
10
75.0084991455078
20
77.9446029663086
40
0.0
41
0.0
42
0.0
10
75.0398025512695
20
77.9932022094727
40
0.0
41
0.0
42
0.0
10
75.2785034179688
20
78.2304000854492
40
0.0
41
0.0
42
0.0
10
75.4689025878906
20
78.393798828125
40
0.0
41
0.0
42
0.0
10
75.5808029174805
20
78.4956970214844
40
0.0
41
0.0
42
0.0
10
75.8542022705078
20
78.7306976318359
40
0.0
41
0.0
42
0.0
10
75.9608001708984
20
78.8259963989258
40
0.0
41
0.0
42
0.0
10
76.0093002319336
20
78.871696472168
40
0.0
41
0.0
42
0.0
10
76.4684982299805
20
78.9994964599609
40
0.0
41
0.0
42
0.0
10
76.5047988891602
20
79.0193023681641
40
0.0
41
0.0
42
0.0
10
76.5145034790039
20
78.9915008544922
40
0.0
41
0.0
42
0.0
10
76.6827011108398
20
78.8262023925781
40
0.0
41
0.0
42
0.0
10
76.7487030029297
20
78.722900390625
40
0.0
41
0.0
42
0.0
10
76.7962036132812
20
78.4850006103516
40
0.0
41
0.0
42
0.0
10
76.8755035400391
20
78.2191009521484
40
0.0
41
0.0
42
0.0
10
76.9009017944336
20
77.9819030761719
40
0.0
41
0.0
42
0.0
10
76.9292984008789
20
77.6348037719727
40
0.0
41
0.0
42
0.0
10
76.9360961914062
20
77.4826965332031
40
0.0
41
0.0
42
0.0
10
76.9965972900391
20
77.2153015136719
40
0.0
41
0.0
42
0.0
10
77.2683029174805
20
77.2192001342773
40
0.0
41
0.0
42
0.0
10
77.421501159668
20
77.1147994995117
40
0.0
41
0.0
42
0.0
10
77.4856033325195
20
77.0773010253906
40
0.0
41
0.0
42
0.0
10
77.5195999145508
20
77.0772018432617
40
0.0
41
0.0
42
0.0
10
77.8572006225586
20
77.0869979858398
40
0.0
41
0.0
42
0.0
10
77.9822006225586
20
77.0764007568359
40
0.0
41
0.0
42
0.0
10
78.4589004516602
20
77.013801574707
40
0.0
41
0.0
42
0.0
10
78.4833984375
20
77.0121002197266
40
0.0
41
0.0
42
0.0
10
78.5390014648438
20
76.9974975585938
40
0.0
41
0.0
42
0.0
10
78.572998046875
20
76.9157028198242
40
0.0
41
0.0
42
0.0
10
78.877799987793
20
76.5371017456055
40
0.0
41
0.0
42
0.0
10
78.9139022827148
20
76.4996032714844
40
0.0
41
0.0
42
0.0
10
78.8255996704102
20
76.3954010009766
40
0.0
41
0.0
42
0.0
10
78.7570037841797
20
76.2759017944336
40
0.0
41
0.0
42
0.0
10
78.6645965576172
20
76.0391006469727
40
0.0
41
0.0
42
0.0
10
78.6568984985352
20
76.0101013183594
40
0.0
41
0.0
42
0.0
10
78.4959030151367
20
75.8165969848633
40
0.0
41
0.0
42
0.0
10
78.4561996459961
20
75.7706985473633
40
0.0
41
0.0
42
0.0
10
78.2018966674805
20
75.5091018676758
40
0.0
41
0.0
42
0.0
10
78.1363983154297
20
75.2761001586914
40
0.0
41
0.0
42
0.0
10
77.9962997436523
20
75.0635986328125
40
0.0
41
0.0
42
0.0
10
77.9447021484375
20
75.0112991333008
40
0.0
41
0.0
42
0.0
10
77.9446029663086
20
74.9914016723633
40
0.0
41
0.0
42
0.0
10
77.9934997558594
20
74.9597015380859
40
0.0
41
0.0
42
0.0
10
78.3935012817383
20
74.5311965942383
40
0.0
41
0.0
42
0.0
10
78.4955978393555
20
74.4189987182617
40
0.0
41
0.0
42
0.0
10
78.8261032104492
20
74.0388031005859
40
0.0
41
0.0
42
0.0
10
78.871696472168
20
73.9906005859375
40
0.0
41
0.0
42
0.0
10
78.9994964599609
20
73.5313034057617
40
0.0
41
0.0
42
0.0
10
79.019401550293
20
73.495002746582
40
0.0
41
0.0
42
0.0
10
78.9915008544922
20
73.4852981567383
40
0.0
41
0.0
42
0.0
10
78.826301574707
20
73.3170013427734
40
0.0
41
0.0
42
0.0
10
78.722900390625
20
73.2509994506836
40
0.0
41
0.0
42
0.0
10
78.4850006103516
20
73.2035980224609
40
0.0
41
0.0
42
0.0
10
78.2191009521484
20
73.1241989135742
40
0.0
41
0.0
42
0.0
10
77.9819030761719
20
73.0988006591797
40
0.0
41
0.0
42
0.0
10
77.6348037719727
20
73.0703964233398
40
0.0
41
0.0
42
0.0
10
77.4828033447266
20
73.0635986328125
40
0.0
41
0.0
42
0.0
10
77.2153015136719
20
73.003303527832
40
0.0
41
0.0
42
0.0
10
77.2192001342773
20
72.7314987182617
40
0.0
41
0.0
42
0.0
10
77.1147994995117
20
72.5783004760742
40
0.0
41
0.0
42
0.0
10
77.0773010253906
20
72.5141983032227
40
0.0
41
0.0
42
0.0
10
77.0772018432617
20
72.4803009033203
40
0.0
41
0.0
42
0.0
10
77.0870971679688
20
72.1426010131836
40
0.0
41
0.0
42
0.0
10
77.0764007568359
20
72.0177001953125
40
0.0
41
0.0
42
0.0
10
77.013801574707
20
71.540901184082
40
0.0
41
0.0
42
0.0
10
77.0121002197266
20
71.5166015625
40
0.0
41
0.0
42
0.0
10
76.9975967407227
20
71.4608001708984
40
0.0
41
0.0
42
0.0
10
76.9158020019531
20
71.4266967773438
40
0.0
41
0.0
42
0.0
10
76.5371017456055
20
71.1220016479492
40
0.0
41
0.0
42
0.0
10
76.4997024536133
20
71.0858001708984
40
0.0
41
0.0
42
0.0
10
76.3954010009766
20
71.1741027832031
40
0.0
41
0.0
42
0.0
10
76.2758026123047
20
71.2427978515625
40
0.0
41
0.0
42
0.0
10
76.0391006469727
20
71.3351974487305
40
0.0
41
0.0
42
0.0
10
76.0100021362305
20
71.342903137207
40
0.0
41
0.0
42
0.0
10
75.7707977294922
20
71.5434036254883
40
0.0
41
0.0
42
0.0
10
75.5091018676758
20
71.7977981567383
40
0.0
41
0.0
42
0.0
10
75.2761001586914
20
71.8632965087891
40
0.0
41
0.0
42
0.0
10
75.0636978149414
20
72.003303527832
40
0.0
41
0.0
42
0.0
10
75.0112991333008
20
72.0551986694336
40
0.0
41
0.0
42
0.0
10
74.9914016723633
20
72.0550994873047
40
0.0
41
0.0
42
0.0
10
74.9600982666016
20
72.0067977905273
40
0.0
41
0.0
42
0.0
10
74.8259963989258
20
71.8684005737305
40
0.0
41
0.0
42
0.0
10
74.7213973999023
20
71.7695007324219
40
0.0
41
0.0
42
0.0
10
74.6246032714844
20
71.6812973022461
40
0.0
41
0.0
42
0.0
10
74.4936981201172
20
71.5721969604492
40
0.0
41
0.0
42
0.0
10
74.2987976074219
20
71.3966979980469
40
0.0
41
0.0
42
0.0
10
74.1455993652344
20
71.2692031860352
40
0.0
41
0.0
42
0.0
10
74.0755996704102
20
71.2031021118164
40
0.0
41
0.0
42
0.0
10
73.9901962280273
20
71.1279983520508
40
0.0
41
0.0
42
0.0
10
73.5313034057617
20
71.0003967285156
40
0.0
41
0.0
42
0.0
10
73.495002746582
20
70.9803009033203
40
0.0
41
0.0
42
0.0
10
73.4851989746094
20
71.0083999633789
40
0.0
41
0.0
42
0.0
10
73.3170013427734
20
71.1735000610352
40
0.0
41
0.0
42
0.0
10
73.2509994506836
20
71.2770004272461
40
0.0
41
0.0
42
0.0
10
73.203498840332
20
71.5149002075195
40
0.0
41
0.0
42
0.0
10
73.1240997314453
20
71.7807998657227
40
0.0
41
0.0
42
0.0
10
73.0988006591797
20
72.0179977416992
40
0.0
41
0.0
42
0.0
10
73.0703964233398
20
72.3649978637695
40
0.0
41
0.0
42
0.0
10
73.0635986328125
20
72.5170974731445
40
0.0
41
0.0
42
0.0
10
73.0031967163086
20
72.7844009399414
40
0.0
41
0.0
42
0.0
10
72.7314987182617
20
72.7805023193359
40
0.0
41
0.0
42
0.0
10
72.5783004760742
20
72.8849029541016
40
0.0
41
0.0
42
0.0
10
72.5141983032227
20
72.9225997924805
40
0.0
41
0.0
42
0.0
10
72.4803009033203
20
72.9225006103516
40
0.0
41
0.0
42
0.0
10
72.1426010131836
20
72.91259765625
40
0.0
41
0.0
42
0.0
10
72.0177001953125
20
72.9233016967773
40
0.0
41
0.0
42
0.0
10
71.5408020019531
20
72.9859008789062
40
0.0
41
0.0
42
0.0
10
71.5165023803711
20
72.9875030517578
40
0.0
41
0.0
42
0.0
10
71.4607009887695
20
73.0022964477539
40
0.0
41
0.0
42
0.0
10
71.4266967773438
20
73.0839996337891
40
0.0
41
0.0
42
0.0
10
71.1220016479492
20
73.4626007080078
40
0.0
41
0.0
42
0.0
10
71.0855026245117
20
73.5009994506836
40
0.0
41
0.0
42
0.0
10
71.2431030273438
20
73.7248992919922
40
0.0
41
0.0
42
0.0
10
71.3436965942383
20
73.9906997680664
40
0.0
41
0.0
42
0.0
10
71.5435028076172
20
74.2289962768555
40
0.0
41
0.0
42
0.0
10
71.7977981567383
20
74.4907989501953
40
0.0
41
0.0
42
0.0
10
71.8634033203125
20
74.7238006591797
40
0.0
41
0.0
42
0.0
10
72.0036010742188
20
74.9363021850586
40
0.0
41
0.0
42
0.0
10
72.0551986694336
20
74.9886016845703
40
0.0
41
0.0
42
0.0
10
72.0550994873047
20
75.0084991455078
40
0.0
41
0.0
42
0.0
10
72.0067977905273
20
75.0397033691406
40
0.0
41
0.0
42
0.0
10
71.8683013916016
20
75.1737976074219
40
0.0
41
0.0
42
0.0
10
71.7695007324219
20
75.2783966064453
40
0.0
41
0.0
42
0.0
10
71.6812973022461
20
75.3751983642578
40
0.0
41
0.0
42
0.0
10
71.5721969604492
20
75.5062026977539
40
0.0
41
0.0
42
0.0
10
71.396598815918
20
75.700798034668
40
0.0
41
0.0
42
0.0
10
71.2692031860352
20
75.8541030883789
40
0.0
41
0.0
42
0.0
10
71.2031021118164
20
75.924201965332
40
0.0
41
0.0
42
0.0
10
71.1278991699219
20
76.0096969604492
40
0.0
41
0.0
42
0.0
10
71.0002975463867
20
76.4683990478516
40
0.0
41
0.0
42
0.0
10
70.9804000854492
20
76.5047988891602
40
0.0
41
0.0
42
0.0
10
71.0083999633789
20
76.5146026611328
40
0.0
41
0.0
42
0.0
210
0.0
220
0.0
230
1.0
0
LWPOLYLINE
5
30
330
1C
100
AcDbEntity
67
0
8
0
62
256
6
ByLayer
370
-1
48
1.0
60
0
100
AcDbPolyline
90
77
70
1
38
0.0
39
0.0
10
73.7138977050781
20
74.9337997436523
40
0.0
41
0.0
42
0.0
10
73.9919967651367
20
74.7498016357422
40
0.0
41
0.0
42
0.0
10
74.0702972412109
20
74.6914978027344
40
0.0
41
0.0
42
0.0
10
74.1892013549805
20
74.4982986450195
40
0.0
41
0.0
42
0.0
10
74.0408020019531
20
74.1654968261719
40
0.0
41
0.0
42
0.0
10
73.9987030029297
20
74.0970001220703
40
0.0
41
0.0
42
0.0
10
73.9654998779297
20
74.0158004760742
40
0.0
41
0.0
42
0.0
10
73.9653015136719
20
73.9868011474609
40
0.0
41
0.0
42
0.0
10
73.9906005859375
20
73.9529037475586
40
0.0
41
0.0
42
0.0
10
74.0161972045898
20
73.9527969360352
40
0.0
41
0.0
42
0.0
10
74.1436004638672
20
73.9992980957031
40
0.0
41
0.0
42
0.0
10
74.1669998168945
20
74.011100769043
40
0.0
41
0.0
42
0.0
10
74.4960021972656
20
74.1305999755859
40
0.0
41
0.0
42
0.0
10
74.5093002319336
20
74.1116027832031
40
0.0
41
0.0
42
0.0
10
74.7033996582031
20
73.9961013793945
40
0.0
41
0.0
42
0.0
10
74.9367980957031
20
73.7149963378906
40
0.0
41
0.0
42
0.0
10
74.9682006835938
20
73.6069030761719
40
0.0
41
0.0
42
0.0
10
74.9961013793945
20
73.5030975341797
40
0.0
41
0.0
42
0.0
10
75.0042037963867
20
73.5030975341797
40
0.0
41
0.0
42
0.0
10
75.0660018920898
20
73.7138977050781
40
0.0
41
0.0
42
0.0
10
75.2499008178711
20
73.9919967651367
40
0.0
41
0.0
42
0.0
10
75.3082962036133
20
74.0703964233398
40
0.0
41
0.0
42
0.0
10
75.5016021728516
20
74.1891021728516
40
0.0
41
0.0
42
0.0
10
75.8341979980469
20
74.0407028198242
40
0.0
41
0.0
42
0.0
10
75.9028015136719
20
73.9987030029297
40
0.0
41
0.0
42
0.0
10
75.9841003417969
20
73.9654998779297
40
0.0
41
0.0
42
0.0
10
76.0130004882812
20
73.9654006958008
40
0.0
41
0.0
42
0.0
10
76.0469970703125
20
73.9905014038086
40
0.0
41
0.0
42
0.0
10
76.0468978881836
20
74.0161972045898
40
0.0
41
0.0
42
0.0
10
76.000602722168
20
74.1435012817383
40
0.0
41
0.0
42
0.0
10
75.9886016845703
20
74.1669006347656
40
0.0
41
0.0
42
0.0
10
75.8691024780273
20
74.4961013793945
40
0.0
41
0.0
42
0.0
10
75.8880996704102
20
74.5093002319336
40
0.0
41
0.0
42
0.0
10
76.0037002563477
20
74.7033996582031
40
0.0
41
0.0
42
0.0
10
76.2848968505859
20
74.9367980957031
40
0.0
41
0.0
42
0.0
10
76.3928985595703
20
74.9682006835938
40
0.0
41
0.0
42
0.0
10
76.4968032836914
20
74.9961013793945
40
0.0
41
0.0
42
0.0
10
76.496696472168
20
75.0042037963867
40
0.0
41
0.0
42
0.0
10
76.286003112793
20
75.0659027099609
40
0.0
41
0.0
42
0.0
10
76.0077972412109
20
75.2499008178711
40
0.0
41
0.0
42
0.0
10
75.9293975830078
20
75.3081970214844
40
0.0
41
0.0
42
0.0
10
75.8106002807617
20
75.5016021728516
40
0.0
41
0.0
42
0.0
10
75.959098815918
20
75.8342971801758
40
0.0
41
0.0
42
0.0
10
76.0010986328125
20
75.9028015136719
40
0.0
41
0.0
42
0.0
10
76.0345001220703
20
75.9841003417969
40
0.0
41
0.0
42
0.0
10
76.0344009399414
20
76.0130004882812
40
0.0
41
0.0
42
0.0
10
76.0093994140625
20
76.0469970703125
40
0.0
41
0.0
42
0.0
10
75.9837036132812
20
76.0468978881836
40
0.0
41
0.0
42
0.0
10
75.8563003540039
20
76.0007019042969
40
0.0
41
0.0
42
0.0
10
75.8329010009766
20
75.9886016845703
40
0.0
41
0.0
42
0.0
10
75.5038986206055
20
75.8690032958984
40
0.0
41
0.0
42
0.0
10
75.4905014038086
20
75.8880004882812
40
0.0
41
0.0
42
0.0
10
75.296501159668
20
76.0036010742188
40
0.0
41
0.0
42
0.0
10
75.0628967285156
20
76.2848968505859
40
0.0
41
0.0
42
0.0
10
75.0315017700195
20
76.3928985595703
40
0.0
41
0.0
42
0.0
10
75.0037994384766
20
76.4968032836914
40
0.0
41
0.0
42
0.0
10
74.9956970214844
20
76.4968032836914
40
0.0
41
0.0
42
0.0
10
74.9337997436523
20
76.286003112793
40
0.0
41
0.0
42
0.0
10
74.7499008178711
20
76.0078964233398
40
0.0
41
0.0
42
0.0
10
74.6915969848633
20
75.9293975830078
40
0.0
41
0.0
42
0.0
10
74.4982986450195
20
75.8105010986328
40
0.0
41
0.0
42
0.0
10
74.1654968261719
20
75.9589996337891
40
0.0
41
0.0
42
0.0
10
74.0970001220703
20
76.0010986328125
40
0.0
41
0.0
42
0.0
10
74.0158004760742
20
76.0345001220703
40
0.0
41
0.0
42
0.0
10
73.9868011474609
20
76.0345001220703
40
0.0
41
0.0
42
0.0
10
73.9529037475586
20
76.0093002319336
40
0.0
41
0.0
42
0.0
10
73.9527969360352
20
75.9835968017578
40
0.0
41
0.0
42
0.0
10
73.9991989135742
20
75.856201171875
40
0.0
41
0.0
42
0.0
10
74.011100769043
20
75.8328018188477
40
0.0
41
0.0
42
0.0
10
74.1306991577148
20
75.5038986206055
40
0.0
41
0.0
42
0.0
10
74.111701965332
20
75.4906005859375
40
0.0
41
0.0
42
0.0
10
73.9962005615234
20
75.2964019775391
40
0.0
41
0.0
42
0.0
10
73.7149963378906
20
75.0628967285156
40
0.0
41
0.0
42
0.0
10
73.6069030761719
20
75.0315017700195
40
0.0
41
0.0
42
0.0
10
73.5030975341797
20
75.0037994384766
40
0.0
41
0.0
42
0.0
10
73.5029983520508
20
74.9955978393555
40
0.0
41
0.0
42
0.0
10
73.7138977050781
20
74.9337997436523
40
0.0
41
0.0
42
0.0
210
0.0
220
0.0
230
1.0
0
LWPOLYLINE
5
31
330
1C
100
AcDbEntity
67
0
8
0
62
256
6
ByLayer
370
-1
48
1.0
60
0
100
AcDbPolyline
90
74
70
1
38
0.0
39
0.0
10
73.77490234375
20
75.0615005493164
40
0.0
41
0.0
42
0.0
10
74.0037002563477
20
75.2516021728516
40
0.0
41
0.0
42
0.0
10
74.1408996582031
20
75.4820022583008
40
0.0
41
0.0
42
0.0
10
74.1537017822266
20
75.4908981323242
40
0.0
41
0.0
42
0.0
10
74.1536026000977
20
75.5161972045898
40
0.0
41
0.0
42
0.0
10
74.0077972412109
20
75.9173965454102
40
0.0
41
0.0
42
0.0
10
74.000602722168
20
75.9315032958984
40
0.0
41
0.0
42
0.0
10
73.9769973754883
20
75.9962997436523
40
0.0
41
0.0
42
0.0
10
74.0028991699219
20
76.0146026611328
40
0.0
41
0.0
42
0.0
10
74.0419998168945
20
75.9987030029297
40
0.0
41
0.0
42
0.0
10
74.0838012695312
20
75.9728012084961
40
0.0
41
0.0
42
0.0
10
74.4843978881836
20
75.7942962646484
40
0.0
41
0.0
42
0.0
10
74.5139999389648
20
75.7941970825195
40
0.0
41
0.0
42
0.0
10
74.7378005981445
20
75.9318008422852
40
0.0
41
0.0
42
0.0
10
74.7824020385742
20
75.9919967651367
40
0.0
41
0.0
42
0.0
10
74.9356994628906
20
76.2238998413086
40
0.0
41
0.0
42
0.0
10
74.9899978637695
20
76.4079971313477
40
0.0
41
0.0
42
0.0
10
75.0093002319336
20
76.4078979492188
40
0.0
41
0.0
42
0.0
10
75.0615005493164
20
76.2248992919922
40
0.0
41
0.0
42
0.0
10
75.2516021728516
20
75.9961013793945
40
0.0
41
0.0
42
0.0
10
75.4819030761719
20
75.8589019775391
40
0.0
41
0.0
42
0.0
10
75.4908981323242
20
75.8461990356445
40
0.0
41
0.0
42
0.0
10
75.5162963867188
20
75.8460998535156
40
0.0
41
0.0
42
0.0
10
75.9172973632812
20
75.9918975830078
40
0.0
41
0.0
42
0.0
10
75.9315032958984
20
75.9991989135742
40
0.0
41
0.0
42
0.0
10
75.9961013793945
20
76.0225982666016
40
0.0
41
0.0
42
0.0
10
76.0146026611328
20
75.997200012207
40
0.0
41
0.0
42
0.0
10
75.9987030029297
20
75.9578018188477
40
0.0
41
0.0
42
0.0
10
75.9728012084961
20
75.915901184082
40
0.0
41
0.0
42
0.0
10
75.7942962646484
20
75.5155029296875
40
0.0
41
0.0
42
0.0
10
75.7940979003906
20
75.4859008789062
40
0.0
41
0.0
42
0.0
10
75.9318008422852
20
75.2620010375977
40
0.0
41
0.0
42
0.0
10
75.9919967651367
20
75.2173004150391
40
0.0
41
0.0
42
0.0
10
76.2238998413086
20
75.0640029907227
40
0.0
41
0.0
42
0.0
10
76.4079971313477
20
75.0099029541016
40
0.0
41
0.0
42
0.0
10
76.4078979492188
20
74.9906005859375
40
0.0
41
0.0
42
0.0
10
76.2249984741211
20
74.9383010864258
40
0.0
41
0.0
42
0.0
10
75.9961013793945
20
74.7481994628906
40
0.0
41
0.0
42
0.0
10
75.8589019775391
20
74.5177993774414
40
0.0
41
0.0
42
0.0
10
75.8461990356445
20
74.508903503418
40
0.0
41
0.0
42
0.0
10
75.8460998535156
20
74.4835968017578
40
0.0
41
0.0
42
0.0
10
75.9918975830078
20
74.0823974609375
40
0.0
41
0.0
42
0.0
10
75.9991989135742
20
74.0681991577148
40
0.0
41
0.0
42
0.0
10
76.0225982666016
20
74.0040969848633
40
0.0
41
0.0
42
0.0
10
75.9973983764648
20
73.9849014282227
40
0.0
41
0.0
42
0.0
10
75.9578018188477
20
74.0010986328125
40
0.0
41
0.0
42
0.0
10
75.915901184082
20
74.0269012451172
40
0.0
41
0.0
42
0.0
10
75.5155029296875
20
74.2055969238281
40
0.0
41
0.0
42
0.0
10
75.4859008789062
20
74.2055969238281
40
0.0
41
0.0
42
0.0
10
75.2620010375977
20
74.068000793457
40
0.0
41
0.0
42
0.0
10
75.217399597168
20
74.0078964233398
40
0.0
41
0.0
42
0.0
10
75.0640029907227
20
73.7760009765625
40
0.0
41
0.0
42
0.0
10
75.0099029541016
20
73.5919036865234
40
0.0
41
0.0
42
0.0
10
74.9906005859375
20
73.5920028686523
40
0.0
41
0.0
42
0.0
10
74.9382019042969
20
73.77490234375
40
0.0
41
0.0
42
0.0
10
74.7481994628906
20
74.0037002563477
40
0.0
41
0.0
42
0.0
10
74.5177001953125
20
74.1408004760742
40
0.0
41
0.0
42
0.0
10
74.508903503418
20
74.1537017822266
40
0.0
41
0.0
42
0.0
10
74.4837036132812
20
74.1536026000977
40
0.0
41
0.0
42
0.0
10
74.0823974609375
20
74.0077972412109
40
0.0
41
0.0
42
0.0
10
74.0682983398438
20
74.000602722168
40
0.0
41
0.0
42
0.0
10
74.0037994384766
20
73.9769973754883
40
0.0
41
0.0
42
0.0
10
73.9850006103516
20
74.0027008056641
40
0.0
41
0.0
42
0.0
10
74.0011978149414
20
74.0419998168945
40
0.0
41
0.0
42
0.0
10
74.0269012451172
20
74.0839004516602
40
0.0
41
0.0
42
0.0
10
74.2055969238281
20
74.4843978881836
40
0.0
41
0.0
42
0.0
10
74.2054977416992
20
74.5139999389648
40
0.0
41
0.0
42
0.0
10
74.0679016113281
20
74.7378005981445
40
0.0
41
0.0
42
0.0
10
74.0077972412109
20
74.7824020385742
40
0.0
41
0.0
42
0.0
10
73.7760009765625
20
74.9356994628906
40
0.0
41
0.0
42
0.0
10
73.591796875
20
74.9898986816406
40
0.0
41
0.0
42
0.0
10
73.5921020507812
20
75.0099029541016
40
0.0
41
0.0
42
0.0
10
73.6517028808594
20
75.0258026123047
40
0.0
41
0.0
42
0.0
10
73.77490234375
20
75.0615005493164
40
0.0
41
0.0
42
0.0
210
0.0
220
0.0
230
1.0
0
LWPOLYLINE
5
32
330
1C
100
AcDbEntity
67
0
8
0
62
256
6
ByLayer
370
-1
48
1.0
60
0
100
AcDbPolyline
90
47
70
1
38
0.0
39
0.0
10
76.0064010620117
20
81.4884033203125
40
0.0
41
0.0
42
0.0
10
76.1269989013672
20
81.2710037231445
40
0.0
41
0.0
42
0.0
10
76.2230987548828
20
81.1060028076172
40
0.0
41
0.0
42
0.0
10
76.418098449707
20
80.753303527832
40
0.0
41
0.0
42
0.0
10
76.4968032836914
20
80.6274032592773
40
0.0
41
0.0
42
0.0
10
76.6136016845703
20
80.494499206543
40
0.0
41
0.0
42
0.0
10
76.9912033081055
20
80.133903503418
40
0.0
41
0.0
42
0.0
10
77.0183029174805
20
80.1240997314453
40
0.0
41
0.0
42
0.0
10
77.0512008666992
20
80.1241989135742
40
0.0
41
0.0
42
0.0
10
77.3408966064453
20
80.2214965820312
40
0.0
41
0.0
42
0.0
10
77.4823989868164
20
80.1886978149414
40
0.0
41
0.0
42
0.0
10
77.5157012939453
20
80.1887969970703
40
0.0
41
0.0
42
0.0
10
77.7891006469727
20
80.3054962158203
40
0.0
41
0.0
42
0.0
10
78.0146026611328
20
80.3415985107422
40
0.0
41
0.0
42
0.0
10
78.288200378418
20
80.4423980712891
40
0.0
41
0.0
42
0.0
10
78.4723968505859
20
80.4999008178711
40
0.0
41
0.0
42
0.0
10
78.5121994018555
20
80.5143966674805
40
0.0
41
0.0
42
0.0
10
78.6633987426758
20
80.5791015625
40
0.0
41
0.0
42
0.0
10
78.8858032226562
20
80.722297668457
40
0.0
41
0.0
42
0.0
10
79.004997253418
20
80.8099975585938
40
0.0
41
0.0
42
0.0
10
79.1405029296875
20
80.9893035888672
40
0.0
41
0.0
42
0.0
10
79.196403503418
20
81.2074966430664
40
0.0
41
0.0
42
0.0
10
79.1940994262695
20
81.5176010131836
40
0.0
41
0.0
42
0.0
10
79.1455993652344
20
81.7397003173828
40
0.0
41
0.0
42
0.0
10
79.0643005371094
20
82.0122985839844
40
0.0
41
0.0
42
0.0
10
79.0012969970703
20
82.1417007446289
40
0.0
41
0.0
42
0.0
10
78.9086990356445
20
82.3009033203125
40
0.0
41
0.0
42
0.0
10
78.782600402832
20
82.5073013305664
40
0.0
41
0.0
42
0.0
10
78.6857986450195
20
82.6147994995117
40
0.0
41
0.0
42
0.0
10
78.5054016113281
20
82.8379974365234
40
0.0
41
0.0
42
0.0
10
78.4374008178711
20
82.8855972290039
40
0.0
41
0.0
42
0.0
10
78.2129974365234
20
83.008903503418
40
0.0
41
0.0
42
0.0
10
78.0130996704102
20
83.1315994262695
40
0.0
41
0.0
42
0.0
10
77.7926025390625
20
83.1520004272461
40
0.0
41
0.0
42
0.0
10
77.5185012817383
20
83.1893005371094
40
0.0
41
0.0
42
0.0
10
77.4815979003906
20
83.1892013549805
40
0.0
41
0.0
42
0.0
10
77.2088012695312
20
83.1448974609375
40
0.0
41
0.0
42
0.0
10
76.9859008789062
20
83.0970993041992
40
0.0
41
0.0
42
0.0
10
76.7602005004883
20
83.0118026733398
40
0.0
41
0.0
42
0.0
10
76.7342987060547
20
83.0009994506836
40
0.0
41
0.0
42
0.0
10
76.4917984008789
20
82.8666000366211
40
0.0
41
0.0
42
0.0
10
76.4167022705078
20
82.8050994873047
40
0.0
41
0.0
42
0.0
10
76.0128021240234
20
82.5068969726562
40
0.0
41
0.0
42
0.0
10
75.8384017944336
20
82.0162963867188
40
0.0
41
0.0
42
0.0
10
75.8383026123047
20
81.9834976196289
40
0.0
41
0.0
42
0.0
10
75.9047012329102
20
81.7904968261719
40
0.0
41
0.0
42
0.0
10
76.0064010620117
20
81.4884033203125
40
0.0
41
0.0
42
0.0
210
0.0
220
0.0
230
1.0
0
LWPOLYLINE
5
33
330
1C
100
AcDbEntity
67
0
8
0
62
256
6
ByLayer
370
-1
48
1.0
60
0
100
AcDbPolyline
90
45
70
1
38
0.0
39
0.0
10
76.0000991821289
20
82.3165969848633
40
0.0
41
0.0
42
0.0
10
76.0600967407227
20
82.4928970336914
40
0.0
41
0.0
42
0.0
10
76.4140014648438
20
82.7543029785156
40
0.0
41
0.0
42
0.0
10
76.5081024169922
20
82.8313980102539
40
0.0
41
0.0
42
0.0
10
76.8106002807617
20
82.9990005493164
40
0.0
41
0.0
42
0.0
10
77.0139999389648
20
83.0766983032227
40
0.0
41
0.0
42
0.0
10
77.2810974121094
20
83.1341018676758
40
0.0
41
0.0
42
0.0
10
77.5015029907227
20
83.1698989868164
40
0.0
41
0.0
42
0.0
10
77.7173004150391
20
83.1405029296875
40
0.0
41
0.0
42
0.0
10
77.986701965332
20
83.1156005859375
40
0.0
41
0.0
42
0.0
10
78.1638031005859
20
83.0065994262695
40
0.0
41
0.0
42
0.0
10
78.1809005737305
20
82.9985961914062
40
0.0
41
0.0
42
0.0
10
78.4300003051758
20
82.8607025146484
40
0.0
41
0.0
42
0.0
10
78.4944000244141
20
82.8155975341797
40
0.0
41
0.0
42
0.0
10
78.6512985229492
20
82.6214981079102
40
0.0
41
0.0
42
0.0
10
78.7673034667969
20
82.4925003051758
40
0.0
41
0.0
42
0.0
10
78.9182968139648
20
82.2453994750977
40
0.0
41
0.0
42
0.0
10
78.9983978271484
20
82.1078033447266
40
0.0
41
0.0
42
0.0
10
79.0569000244141
20
81.9876022338867
40
0.0
41
0.0
42
0.0
10
79.127799987793
20
81.7501983642578
40
0.0
41
0.0
42
0.0
10
79.1860961914062
20
81.4822998046875
40
0.0
41
0.0
42
0.0
10
79.1880035400391
20
81.2810974121094
40
0.0
41
0.0
42
0.0
10
79.1185989379883
20
81.0106964111328
40
0.0
41
0.0
42
0.0
10
78.9942016601562
20
80.8460006713867
40
0.0
41
0.0
42
0.0
10
78.8871002197266
20
80.7676010131836
40
0.0
41
0.0
42
0.0
10
78.6207962036133
20
80.5963973999023
40
0.0
41
0.0
42
0.0
10
78.4877014160156
20
80.5391998291016
40
0.0
41
0.0
42
0.0
10
78.3806991577148
20
80.5
40
0.0
41
0.0
42
0.0
10
78.2217025756836
20
80.4505004882812
40
0.0
41
0.0
42
0.0
10
77.9852981567383
20
80.3634033203125
40
0.0
41
0.0
42
0.0
10
77.7208023071289
20
80.3209991455078
40
0.0
41
0.0
42
0.0
10
77.4960021972656
20
80.22509765625
40
0.0
41
0.0
42
0.0
10
77.3272018432617
20
80.2641983032227
40
0.0
41
0.0
42
0.0
10
77.2929992675781
20
80.2640991210938
40
0.0
41
0.0
42
0.0
10
77.0503997802734
20
80.1827011108398
40
0.0
41
0.0
42
0.0
10
77.0085983276367
20
80.1976013183594
40
0.0
41
0.0
42
0.0
10
76.6864013671875
20
80.5054016113281
40
0.0
41
0.0
42
0.0
10
76.5029983520508
20
80.7141036987305
40
0.0
41
0.0
42
0.0
10
76.4375991821289
20
80.8188018798828
40
0.0
41
0.0
42
0.0
10
76.2666015625
20
81.127799987793
40
0.0
41
0.0
42
0.0
10
76.1535034179688
20
81.3221969604492
40
0.0
41
0.0
42
0.0
10
76.0483016967773
20
81.5115966796875
40
0.0
41
0.0
42
0.0
10
75.9999008178711
20
81.6678009033203
40
0.0
41
0.0
42
0.0
10
75.8868026733398
20
81.9997024536133
40
0.0
41
0.0
42
0.0
10
76.0000991821289
20
82.3165969848633
40
0.0
41
0.0
42
0.0
210
0.0
220
0.0
230
1.0
0
LWPOLYLINE
5
34
330
1C
100
AcDbEntity
67
0
8
0
62
256
6
ByLayer
370
-1
48
1.0
60
0
100
AcDbPolyline
90
48
70
1
38
0.0
39
0.0
10
76.4253997802734
20
67.7147979736328
40
0.0
41
0.0
42
0.0
10
76.4684982299805
20
67.6175003051758
40
0.0
41
0.0
42
0.0
10
76.4979019165039
20
67.5718002319336
40
0.0
41
0.0
42
0.0
10
76.5421981811523
20
67.4946975708008
40
0.0
41
0.0
42
0.0
10
76.7158966064453
20
67.3809967041016
40
0.0
41
0.0
42
0.0
10
76.988899230957
20
67.2253036499023
40
0.0
41
0.0
42
0.0
10
77.2123031616211
20
67.1401977539062
40
0.0
41
0.0
42
0.0
10
77.4844970703125
20
67.0407028198242
40
0.0
41
0.0
42
0.0
10
77.7052001953125
20
67.0230026245117
40
0.0
41
0.0
42
0.0
10
77.9814987182617
20
66.9822998046875
40
0.0
41
0.0
42
0.0
10
78.0185012817383
20
66.9822998046875
40
0.0
41
0.0
42
0.0
10
78.1429977416992
20
66.9994964599609
40
0.0
41
0.0
42
0.0
10
78.5105972290039
20
67.0823974609375
40
0.0
41
0.0
42
0.0
10
78.6866989135742
20
67.2223968505859
40
0.0
41
0.0
42
0.0
10
78.9567031860352
20
67.3731994628906
40
0.0
41
0.0
42
0.0
10
79.0046997070312
20
67.4184036254883
40
0.0
41
0.0
42
0.0
10
79.0679016113281
20
67.4926986694336
40
0.0
41
0.0
42
0.0
10
79.1073989868164
20
67.5501022338867
40
0.0
41
0.0
42
0.0
10
79.203498840332
20
67.7158966064453
40
0.0
41
0.0
42
0.0
10
79.3761978149414
20
67.9888000488281
40
0.0
41
0.0
42
0.0
10
79.4409027099609
20
68.2044982910156
40
0.0
41
0.0
42
0.0
10
79.5002975463867
20
68.347900390625
40
0.0
41
0.0
42
0.0
10
79.5477981567383
20
68.4850006103516
40
0.0
41
0.0
42
0.0
10
79.5669021606445
20
68.6150970458984
40
0.0
41
0.0
42
0.0
10
79.5743026733398
20
69.0177001953125
40
0.0
41
0.0
42
0.0
10
79.5410995483398
20
69.159797668457
40
0.0
41
0.0
42
0.0
10
79.502799987793
20
69.2223968505859
40
0.0
41
0.0
42
0.0
10
79.2730026245117
20
69.503303527832
40
0.0
41
0.0
42
0.0
10
79.0119018554688
20
69.6414031982422
40
0.0
41
0.0
42
0.0
10
78.8102035522461
20
69.7030029296875
40
0.0
41
0.0
42
0.0
10
78.5142974853516
20
69.8049011230469
40
0.0
41
0.0
42
0.0
10
78.2982025146484
20
69.8503036499023
40
0.0
41
0.0
42
0.0
10
78.0167999267578
20
69.9300003051758
40
0.0
41
0.0
42
0.0
10
77.9177017211914
20
69.931999206543
40
0.0
41
0.0
42
0.0
10
77.5369033813477
20
69.999397277832
40
0.0
41
0.0
42
0.0
10
77.5092010498047
20
70.0068969726562
40
0.0
41
0.0
42
0.0
10
77.4852981567383
20
70.0067977905273
40
0.0
41
0.0
42
0.0
10
77.4841995239258
20
70.0044021606445
40
0.0
41
0.0
42
0.0
10
76.9962005615234
20
69.7619018554688
40
0.0
41
0.0
42
0.0
10
76.888298034668
20
69.5101013183594
40
0.0
41
0.0
42
0.0
10
76.7431030273438
20
69.2845993041992
40
0.0
41
0.0
42
0.0
10
76.6106033325195
20
69.0103988647461
40
0.0
41
0.0
42
0.0
10
76.5046005249023
20
68.8152008056641
40
0.0
41
0.0
42
0.0
10
76.3600997924805
20
68.5130996704102
40
0.0
41
0.0
42
0.0
10
76.3104019165039
20
68.2906036376953
40
0.0
41
0.0
42
0.0
10
76.2559967041016
20
68.0178985595703
40
0.0
41
0.0
42
0.0
10
76.2558975219727
20
67.9860000610352
40
0.0
41
0.0
42
0.0
10
76.4253997802734
20
67.7147979736328
40
0.0
41
0.0
42
0.0
210
0.0
220
0.0
230
1.0
0
LWPOLYLINE
5
35
330
1C
100
AcDbEntity
67
0
8
0
62
256
6
ByLayer
370
-1
48
1.0
60
0
100
AcDbPolyline
90
45
70
1
38
0.0
39
0.0
10
76.3828964233398
20
68.4869003295898
40
0.0
41
0.0
42
0.0
10
76.5084991455078
20
68.75
40
0.0
41
0.0
42
0.0
10
76.6386032104492
20
68.9896011352539
40
0.0
41
0.0
42
0.0
10
76.7526016235352
20
69.2251968383789
40
0.0
41
0.0
42
0.0
10
76.9229965209961
20
69.4898986816406
40
0.0
41
0.0
42
0.0
10
77.0037002563477
20
69.6781005859375
40
0.0
41
0.0
42
0.0
10
77.3727035522461
20
69.8616027832031
40
0.0
41
0.0
42
0.0
10
77.4702987670898
20
69.9297027587891
40
0.0
41
0.0
42
0.0
10
77.5067977905273
20
69.9509963989258
40
0.0
41
0.0
42
0.0
10
77.823600769043
20
69.8949966430664
40
0.0
41
0.0
42
0.0
10
77.9831008911133
20
69.8918991088867
40
0.0
41
0.0
42
0.0
10
78.2270965576172
20
69.8227996826172
40
0.0
41
0.0
42
0.0
10
78.4854965209961
20
69.7684020996094
40
0.0
41
0.0
42
0.0
10
78.8396987915039
20
69.6464004516602
40
0.0
41
0.0
42
0.0
10
78.9879989624023
20
69.6011962890625
40
0.0
41
0.0
42
0.0
10
79.1859970092773
20
69.4963989257812
40
0.0
41
0.0
42
0.0
10
79.4970016479492
20
69.1158981323242
40
0.0
41
0.0
42
0.0
10
79.5232009887695
20
69.0734024047852
40
0.0
41
0.0
42
0.0
10
79.543701171875
20
68.9852981567383
40
0.0
41
0.0
42
0.0
10
79.5354995727539
20
68.5864028930664
40
0.0
41
0.0
42
0.0
10
79.5251998901367
20
68.5149993896484
40
0.0
41
0.0
42
0.0
10
79.4994964599609
20
68.4411010742188
40
0.0
41
0.0
42
0.0
10
79.4292984008789
20
68.2714996337891
40
0.0
41
0.0
42
0.0
10
79.3513031005859
20
68.0111999511719
40
0.0
41
0.0
42
0.0
10
79.2012023925781
20
67.7741012573242
40
0.0
41
0.0
42
0.0
10
79.0876007080078
20
67.5781021118164
40
0.0
41
0.0
42
0.0
10
79.0388031005859
20
67.5072021484375
40
0.0
41
0.0
42
0.0
10
78.9952011108398
20
67.4557037353516
40
0.0
41
0.0
42
0.0
10
78.9327011108398
20
67.3970031738281
40
0.0
41
0.0
42
0.0
10
78.7005996704102
20
67.2675018310547
40
0.0
41
0.0
42
0.0
10
78.4893035888672
20
67.0989990234375
40
0.0
41
0.0
42
0.0
10
78.0441970825195
20
66.9985961914062
40
0.0
41
0.0
42
0.0
10
78.0001983642578
20
66.9925994873047
40
0.0
41
0.0
42
0.0
10
77.7807998657227
20
67.0252990722656
40
0.0
41
0.0
42
0.0
10
77.5154037475586
20
67.0464019775391
40
0.0
41
0.0
42
0.0
10
77.2776031494141
20
67.1333999633789
40
0.0
41
0.0
42
0.0
10
77.0109024047852
20
67.2350006103516
40
0.0
41
0.0
42
0.0
10
76.7740020751953
20
67.3702011108398
40
0.0
41
0.0
42
0.0
10
76.5678024291992
20
67.5050964355469
40
0.0
41
0.0
42
0.0
10
76.5019989013672
20
67.619499206543
40
0.0
41
0.0
42
0.0
10
76.4757995605469
20
67.6602020263672
40
0.0
41
0.0
42
0.0
10
76.4247970581055
20
67.7750015258789
40
0.0
41
0.0
42
0.0
10
76.280403137207
20
68.0062026977539
40
0.0
41
0.0
42
0.0
10
76.322998046875
20
68.2192993164062
40
0.0
41
0.0
42
0.0
10
76.3828964233398
20
68.4869003295898
40
0.0
41
0.0
42
0.0
210
0.0
220
0.0
230
1.0
0
LWPOLYLINE
5
36
330
1C
100
AcDbEntity
67
0
8
0
62
256
6
ByLayer
370
-1
48
1.0
60
0
100
AcDbPolyline
90
26
70
1
38
0.0
39
0.0
10
78.9888000488281
20
84.9947967529297
40
0.0
41
0.0
42
0.0
10
79.209602355957
20
84.9283981323242
40
0.0
41
0.0
42
0.0
10
79.4820022583008
20
84.886100769043
40
0.0
41
0.0
42
0.0
10
79.7567977905273
20
84.8741989135742
40
0.0
41
0.0
42
0.0
10
79.9811019897461
20
84.8443984985352
40
0.0
41
0.0
42
0.0
10
80.2713012695312
20
84.8498992919922
40
0.0
41
0.0
42
0.0
10
80.4803009033203
20
84.8432998657227
40
0.0
41
0.0
42
0.0
10
80.5188980102539
20
84.8432006835938
40
0.0
41
0.0
42
0.0
10
80.7931976318359
20
84.8711013793945
40
0.0
41
0.0
42
0.0
10
81.0167007446289
20
84.8858032226562
40
0.0
41
0.0
42
0.0
10
81.1890029907227
20
84.9282989501953
40
0.0
41
0.0
42
0.0
10
81.4173965454102
20
84.9956970214844
40
0.0
41
0.0
42
0.0
10
81.4173965454102
20
84.9990005493164
40
0.0
41
0.0
42
0.0
10
81.3970031738281
20
84.9989013671875
40
0.0
41
0.0
42
0.0
10
81.1909027099609
20
84.9383010864258
40
0.0
41
0.0
42
0.0
10
80.9832000732422
20
84.8870010375977
40
0.0
41
0.0
42
0.0
10
80.7166976928711
20
84.8694000244141
40
0.0
41
0.0
42
0.0
10
80.4903030395508
20
84.8463973999023
40
0.0
41
0.0
42
0.0
10
80.2547988891602
20
84.8538970947266
40
0.0
41
0.0
42
0.0
10
80.0130996704102
20
84.8494033813477
40
0.0
41
0.0
42
0.0
10
79.7530975341797
20
84.883903503418
40
0.0
41
0.0
42
0.0
10
79.5178985595703
20
84.8942031860352
40
0.0
41
0.0
42
0.0
10
79.2802963256836
20
84.9309997558594
40
0.0
41
0.0
42
0.0
10
79.0531997680664
20
84.9990005493164
40
0.0
41
0.0
42
0.0
10
78.9888000488281
20
84.9990005493164
40
0.0
41
0.0
42
0.0
10
78.9888000488281
20
84.9947967529297
40
0.0
41
0.0
42
0.0
210
0.0
220
0.0
230
1.0
0
LWPOLYLINE
5
37
330
1C
100
AcDbEntity
67
0
8
0
62
256
6
ByLayer
370
-1
48
1.0
60
0
100
AcDbPolyline
90
36
70
1
38
0.0
39
0.0
10
79.1480026245117
20
65.0197982788086
40
0.0
41
0.0
42
0.0
10
79.2751998901367
20
65.0802993774414
40
0.0
41
0.0
42
0.0
10
79.5113983154297
20
65.2165985107422
40
0.0
41
0.0
42
0.0
10
79.7489013671875
20
65.2938003540039
40
0.0
41
0.0
42
0.0
10
80.0157012939453
20
65.3669967651367
40
0.0
41
0.0
42
0.0
10
80.2815017700195
20
65.4051971435547
40
0.0
41
0.0
42
0.0
10
80.5169982910156
20
65.4505996704102
40
0.0
41
0.0
42
0.0
10
81.0189971923828
20
65.4964981079102
40
0.0
41
0.0
42
0.0
10
81.4705963134766
20
65.4973983764648
40
0.0
41
0.0
42
0.0
10
81.4826965332031
20
65.4963989257812
40
0.0
41
0.0
42
0.0
10
81.8152008056641
20
65.434700012207
40
0.0
41
0.0
42
0.0
10
81.9908981323242
20
65.3461990356445
40
0.0
41
0.0
42
0.0
10
82.1069030761719
20
65.260498046875
40
0.0
41
0.0
42
0.0
10
82.1327972412109
20
65.2249984741211
40
0.0
41
0.0
42
0.0
10
82.217399597168
20
65.0009994506836
40
0.0
41
0.0
42
0.0
10
82.2527008056641
20
65.0009994506836
40
0.0
41
0.0
42
0.0
10
82.2526016235352
20
65.0160980224609
40
0.0
41
0.0
42
0.0
10
82.1512985229492
20
65.284797668457
40
0.0
41
0.0
42
0.0
10
82.1359024047852
20
65.3059997558594
40
0.0
41
0.0
42
0.0
10
82.008903503418
20
65.3996963500977
40
0.0
41
0.0
42
0.0
10
81.8975982666016
20
65.4558029174805
40
0.0
41
0.0
42
0.0
10
81.6644973754883
20
65.4990997314453
40
0.0
41
0.0
42
0.0
10
81.5186996459961
20
65.5185012817383
40
0.0
41
0.0
42
0.0
10
81.413200378418
20
65.5169982910156
40
0.0
41
0.0
42
0.0
10
80.9809036254883
20
65.5161972045898
40
0.0
41
0.0
42
0.0
10
80.4829025268555
20
65.4704971313477
40
0.0
41
0.0
42
0.0
10
80.2083969116211
20
65.4176025390625
40
0.0
41
0.0
42
0.0
10
79.9841995239258
20
65.385498046875
40
0.0
41
0.0
42
0.0
10
79.7610015869141
20
65.3242034912109
40
0.0
41
0.0
42
0.0
10
79.4885025024414
20
65.2356033325195
40
0.0
41
0.0
42
0.0
10
79.2146987915039
20
65.0775985717773
40
0.0
41
0.0
42
0.0
10
79.1071014404297
20
65.0263977050781
40
0.0
41
0.0
42
0.0
10
79.0765991210938
20
65.0081024169922
40
0.0
41
0.0
42
0.0
10
79.0765991210938
20
65.0009994506836
40
0.0
41
0.0
42
0.0
10
79.1166000366211
20
65.0009994506836
40
0.0
41
0.0
42
0.0
10
79.1480026245117
20
65.0197982788086
40
0.0
41
0.0
42
0.0
210
0.0
220
0.0
230
1.0
0
LWPOLYLINE
5
38
330
1C
100
AcDbEntity
67
0
8
0
62
256
6
ByLayer
370
-1
48
1.0
60
0
100
AcDbPolyline
90
47
70
1
38
0.0
39
0.0
10
79.9929962158203
20
77.5092010498047
40
0.0
41
0.0
42
0.0
10
79.9928970336914
20
77.4852981567383
40
0.0
41
0.0
42
0.0
10
79.9954986572266
20
77.4841995239258
40
0.0
41
0.0
42
0.0
10
80.2378997802734
20
76.9962005615234
40
0.0
41
0.0
42
0.0
10
80.4897994995117
20
76.888298034668
40
0.0
41
0.0
42
0.0
10
80.715202331543
20
76.7431030273438
40
0.0
41
0.0
42
0.0
10
80.989501953125
20
76.6106033325195
40
0.0
41
0.0
42
0.0
10
81.1846008300781
20
76.5046005249023
40
0.0
41
0.0
42
0.0
10
81.4868011474609
20
76.3600997924805
40
0.0
41
0.0
42
0.0
10
81.7092971801758
20
76.3104019165039
40
0.0
41
0.0
42
0.0
10
81.9820022583008
20
76.2559967041016
40
0.0
41
0.0
42
0.0
10
82.0139007568359
20
76.2559967041016
40
0.0
41
0.0
42
0.0
10
82.2851028442383
20
76.4253997802734
40
0.0
41
0.0
42
0.0
10
82.3823013305664
20
76.4685974121094
40
0.0
41
0.0
42
0.0
10
82.4279022216797
20
76.4979019165039
40
0.0
41
0.0
42
0.0
10
82.5052032470703
20
76.5421981811523
40
0.0
41
0.0
42
0.0
10
82.6186981201172
20
76.7158966064453
40
0.0
41
0.0
42
0.0
10
82.7744979858398
20
76.9889984130859
40
0.0
41
0.0
42
0.0
10
82.8595962524414
20
77.2123031616211
40
0.0
41
0.0
42
0.0
10
82.9589996337891
20
77.4844970703125
40
0.0
41
0.0
42
0.0
10
82.9766998291016
20
77.7052001953125
40
0.0
41
0.0
42
0.0
10
83.0176010131836
20
77.9814987182617
40
0.0
41
0.0
42
0.0
10
83.0174026489258
20
78.0185012817383
40
0.0
41
0.0
42
0.0
10
83.0001983642578
20
78.1429977416992
40
0.0
41
0.0
42
0.0
10
82.9173965454102
20
78.5105972290039
40
0.0
41
0.0
42
0.0
10
82.7834014892578
20
78.6773986816406
40
0.0
41
0.0
42
0.0
10
82.6760025024414
20
78.8347015380859
40
0.0
41
0.0
42
0.0
10
82.5794982910156
20
79.0063018798828
40
0.0
41
0.0
42
0.0
10
82.5074005126953
20
79.0675964355469
40
0.0
41
0.0
42
0.0
10
82.3328018188477
20
79.1780014038086
40
0.0
41
0.0
42
0.0
10
82.0111999511719
20
79.3760986328125
40
0.0
41
0.0
42
0.0
10
81.7953033447266
20
79.440803527832
40
0.0
41
0.0
42
0.0
10
81.6519012451172
20
79.5002975463867
40
0.0
41
0.0
42
0.0
10
81.5149002075195
20
79.5477981567383
40
0.0
41
0.0
42
0.0
10
81.3846969604492
20
79.5669021606445
40
0.0
41
0.0
42
0.0
10
80.9822006225586
20
79.5743026733398
40
0.0
41
0.0
42
0.0
10
80.8399963378906
20
79.5410995483398
40
0.0
41
0.0
42
0.0
10
80.7772979736328
20
79.502799987793
40
0.0
41
0.0
42
0.0
10
80.4964981079102
20
79.2731018066406
40
0.0
41
0.0
42
0.0
10
80.3581008911133
20
79.0114974975586
40
0.0
41
0.0
42
0.0
10
80.2779998779297
20
78.7883987426758
40
0.0
41
0.0
42
0.0
10
80.1949005126953
20
78.5147018432617
40
0.0
41
0.0
42
0.0
10
80.1493988037109
20
78.2982025146484
40
0.0
41
0.0
42
0.0
10
80.0697021484375
20
78.0167999267578
40
0.0
41
0.0
42
0.0
10
80.0677032470703
20
77.9177017211914
40
0.0
41
0.0
42
0.0
10
80.0003967285156
20
77.5369033813477
40
0.0
41
0.0
42
0.0
10
79.9929962158203
20
77.5092010498047
40
0.0
41
0.0
42
0.0
210
0.0
220
0.0
230
1.0
0
LWPOLYLINE
5
39
330
1C
100
AcDbEntity
67
0
8
0
62
256
6
ByLayer
370
-1
48
1.0
60
0
100
AcDbPolyline
90
43
70
1
38
0.0
39
0.0
10
80.3053970336914
20
72.2108001708984
40
0.0
41
0.0
42
0.0
10
80.3414993286133
20
71.9852981567383
40
0.0
41
0.0
42
0.0
10
80.4423980712891
20
71.7117004394531
40
0.0
41
0.0
42
0.0
10
80.4998016357422
20
71.5273971557617
40
0.0
41
0.0
42
0.0
10
80.5142974853516
20
71.4877014160156
40
0.0
41
0.0
42
0.0
10
80.5791015625
20
71.3364028930664
40
0.0
41
0.0
42
0.0
10
80.7221984863281
20
71.113899230957
40
0.0
41
0.0
42
0.0
10
80.809196472168
20
70.9953002929688
40
0.0
41
0.0
42
0.0
10
80.9891967773438
20
70.8591995239258
40
0.0
41
0.0
42
0.0
10
81.2074966430664
20
70.8032989501953
40
0.0
41
0.0
42
0.0
10
81.5167999267578
20
70.8056030273438
40
0.0
41
0.0
42
0.0
10
81.7897033691406
20
70.8871002197266
40
0.0
41
0.0
42
0.0
10
82.0130004882812
20
70.9357986450195
40
0.0
41
0.0
42
0.0
10
82.1417999267578
20
70.9984970092773
40
0.0
41
0.0
42
0.0
10
82.3010025024414
20
71.0910034179688
40
0.0
41
0.0
42
0.0
10
82.5073013305664
20
71.2172012329102
40
0.0
41
0.0
42
0.0
10
82.6148986816406
20
71.3140029907227
40
0.0
41
0.0
42
0.0
10
82.8380966186523
20
71.4944000244141
40
0.0
41
0.0
42
0.0
10
82.8855972290039
20
71.5624008178711
40
0.0
41
0.0
42
0.0
10
83.008903503418
20
71.7867965698242
40
0.0
41
0.0
42
0.0
10
83.1315994262695
20
71.9868011474609
40
0.0
41
0.0
42
0.0
10
83.1520004272461
20
72.2072982788086
40
0.0
41
0.0
42
0.0
10
83.1893005371094
20
72.4813995361328
40
0.0
41
0.0
42
0.0
10
83.1892013549805
20
72.5183029174805
40
0.0
41
0.0
42
0.0
10
83.1448974609375
20
72.7910003662109
40
0.0
41
0.0
42
0.0
10
83.0970001220703
20
73.0139007568359
40
0.0
41
0.0
42
0.0
10
83.0008010864258
20
73.2658004760742
40
0.0
41
0.0
42
0.0
10
82.8665008544922
20
73.5080032348633
40
0.0
41
0.0
42
0.0
10
82.8050994873047
20
73.5830001831055
40
0.0
41
0.0
42
0.0
10
82.5067977905273
20
73.9869003295898
40
0.0
41
0.0
42
0.0
10
82.0162963867188
20
74.1614990234375
40
0.0
41
0.0
42
0.0
10
81.9833984375
20
74.1614990234375
40
0.0
41
0.0
42
0.0
10
81.4886016845703
20
73.9934005737305
40
0.0
41
0.0
42
0.0
10
81.1059036254883
20
73.7766036987305
40
0.0
41
0.0
42
0.0
10
80.753303527832
20
73.5815963745117
40
0.0
41
0.0
42
0.0
10
80.6274032592773
20
73.5030975341797
40
0.0
41
0.0
42
0.0
10
80.494499206543
20
73.3861999511719
40
0.0
41
0.0
42
0.0
10
80.1367034912109
20
73.0114974975586
40
0.0
41
0.0
42
0.0
10
80.1365966796875
20
72.9841003417969
40
0.0
41
0.0
42
0.0
10
80.2370986938477
20
72.7380981445312
40
0.0
41
0.0
42
0.0
10
80.1884002685547
20
72.5188980102539
40
0.0
41
0.0
42
0.0
10
80.1886978149414
20
72.4842987060547
40
0.0
41
0.0
42
0.0
10
80.3053970336914
20
72.2108001708984
40
0.0
41
0.0
42
0.0
210
0.0
220
0.0
230
1.0
0
LWPOLYLINE
5
3A
330
1C
100
AcDbEntity
67
0
8
0
62
256
6
ByLayer
370
-1
48
1.0
60
0
100
AcDbPolyline
90
44
70
1
38
0.0
39
0.0
10
80.5054016113281
20
73.3133010864258
40
0.0
41
0.0
42
0.0
10
80.7142028808594
20
73.4969024658203
40
0.0
41
0.0
42
0.0
10
80.8188018798828
20
73.5621032714844
40
0.0
41
0.0
42
0.0
10
81.1278991699219
20
73.7332000732422
40
0.0
41
0.0
42
0.0
10
81.5115966796875
20
73.9514007568359
40
0.0
41
0.0
42
0.0
10
81.6679000854492
20
73.9999008178711
40
0.0
41
0.0
42
0.0
10
81.9997024536133
20
74.1128997802734
40
0.0
41
0.0
42
0.0
10
82.3164978027344
20
73.9997024536133
40
0.0
41
0.0
42
0.0
10
82.4928970336914
20
73.9395980834961
40
0.0
41
0.0
42
0.0
10
82.7543029785156
20
73.5857009887695
40
0.0
41
0.0
42
0.0
10
82.831298828125
20
73.49169921875
40
0.0
41
0.0
42
0.0
10
82.9990005493164
20
73.1892013549805
40
0.0
41
0.0
42
0.0
10
83.0766983032227
20
72.9858016967773
40
0.0
41
0.0
42
0.0
10
83.1011962890625
20
72.8672027587891
40
0.0
41
0.0
42
0.0
10
83.1340026855469
20
72.7189025878906
40
0.0
41
0.0
42
0.0
10
83.1698989868164
20
72.4983978271484
40
0.0
41
0.0
42
0.0
10
83.1405029296875
20
72.282600402832
40
0.0
41
0.0
42
0.0
10
83.1156997680664
20
72.0130996704102
40
0.0
41
0.0
42
0.0
10
83.0066986083984
20
71.8359985351562
40
0.0
41
0.0
42
0.0
10
82.9985961914062
20
71.8189010620117
40
0.0
41
0.0
42
0.0
10
82.8607025146484
20
71.5698013305664
40
0.0
41
0.0
42
0.0
10
82.8156967163086
20
71.5054016113281
40
0.0
41
0.0
42
0.0
10
82.6214981079102
20
71.3483963012695
40
0.0
41
0.0
42
0.0
10
82.4925994873047
20
71.2323989868164
40
0.0
41
0.0
42
0.0
10
82.2453994750977
20
71.0813980102539
40
0.0
41
0.0
42
0.0
10
82.1078033447266
20
71.0014038085938
40
0.0
41
0.0
42
0.0
10
81.9869003295898
20
70.942497253418
40
0.0
41
0.0
42
0.0
10
81.7201995849609
20
70.8843002319336
40
0.0
41
0.0
42
0.0
10
81.4831008911133
20
70.8135986328125
40
0.0
41
0.0
42
0.0
10
81.2810974121094
20
70.811897277832
40
0.0
41
0.0
42
0.0
10
81.0105972290039
20
70.881103515625
40
0.0
41
0.0
42
0.0
10
80.8460006713867
20
71.0055999755859
40
0.0
41
0.0
42
0.0
10
80.7676010131836
20
71.1126022338867
40
0.0
41
0.0
42
0.0
10
80.5962982177734
20
71.3788986206055
40
0.0
41
0.0
42
0.0
10
80.5391006469727
20
71.5121994018555
40
0.0
41
0.0
42
0.0
10
80.5
20
71.6191024780273
40
0.0
41
0.0
42
0.0
10
80.4505004882812
20
71.7781982421875
40
0.0
41
0.0
42
0.0
10
80.3634033203125
20
72.0146026611328
40
0.0
41
0.0
42
0.0
10
80.3208999633789
20
72.2789993286133
40
0.0
41
0.0
42
0.0
10
80.2246017456055
20
72.504997253418
40
0.0
41
0.0
42
0.0
10
80.2828979492188
20
72.7671966552734
40
0.0
41
0.0
42
0.0
10
80.2828979492188
20
72.8006973266602
40
0.0
41
0.0
42
0.0
10
80.2026977539062
20
72.9965972900391
40
0.0
41
0.0
42
0.0
10
80.5054016113281
20
73.3133010864258
40
0.0
41
0.0
42
0.0
210
0.0
220
0.0
230
1.0
0
LWPOLYLINE
5
3B
330
1C
100
AcDbEntity
67
0
8
0
62
256
6
ByLayer
370
-1
48
1.0
60
0
100
AcDbPolyline
90
44
70
1
38
0.0
39
0.0
10
80.1380996704102
20
77.3725967407227
40
0.0
41
0.0
42
0.0
10
80.0699996948242
20
77.4702987670898
40
0.0
41
0.0
42
0.0
10
80.048698425293
20
77.5067977905273
40
0.0
41
0.0
42
0.0
10
80.1046981811523
20
77.823600769043
40
0.0
41
0.0
42
0.0
10
80.1078033447266
20
77.9831008911133
40
0.0
41
0.0
42
0.0
10
80.1769027709961
20
78.2270965576172
40
0.0
41
0.0
42
0.0
10
80.2313003540039
20
78.4851989746094
40
0.0
41
0.0
42
0.0
10
80.3031005859375
20
78.7216033935547
40
0.0
41
0.0
42
0.0
10
80.3989028930664
20
78.9885025024414
40
0.0
41
0.0
42
0.0
10
80.5034027099609
20
79.1859970092773
40
0.0
41
0.0
42
0.0
10
80.883903503418
20
79.4970016479492
40
0.0
41
0.0
42
0.0
10
80.926399230957
20
79.5232009887695
40
0.0
41
0.0
42
0.0
10
81.0146026611328
20
79.543701171875
40
0.0
41
0.0
42
0.0
10
81.4133987426758
20
79.5354995727539
40
0.0
41
0.0
42
0.0
10
81.4849014282227
20
79.5251998901367
40
0.0
41
0.0
42
0.0
10
81.5587005615234
20
79.4994964599609
40
0.0
41
0.0
42
0.0
10
81.7283020019531
20
79.42919921875
40
0.0
41
0.0
42
0.0
10
81.9886016845703
20
79.3513031005859
40
0.0
41
0.0
42
0.0
10
82.3761978149414
20
79.1123962402344
40
0.0
41
0.0
42
0.0
10
82.4924011230469
20
79.0390014648438
40
0.0
41
0.0
42
0.0
10
82.5459976196289
20
78.9934997558594
40
0.0
41
0.0
42
0.0
10
82.6080017089844
20
78.8824005126953
40
0.0
41
0.0
42
0.0
10
82.7363967895508
20
78.6940002441406
40
0.0
41
0.0
42
0.0
10
82.9007034301758
20
78.4893035888672
40
0.0
41
0.0
42
0.0
10
83.0009994506836
20
78.0441970825195
40
0.0
41
0.0
42
0.0
10
83.0072021484375
20
78.0001983642578
40
0.0
41
0.0
42
0.0
10
82.9744033813477
20
77.7807998657227
40
0.0
41
0.0
42
0.0
10
82.9533004760742
20
77.5154037475586
40
0.0
41
0.0
42
0.0
10
82.8663024902344
20
77.2776031494141
40
0.0
41
0.0
42
0.0
10
82.7647018432617
20
77.0110015869141
40
0.0
41
0.0
42
0.0
10
82.6295013427734
20
76.7740020751953
40
0.0
41
0.0
42
0.0
10
82.4947967529297
20
76.5678024291992
40
0.0
41
0.0
42
0.0
10
82.3803024291992
20
76.5019989013672
40
0.0
41
0.0
42
0.0
10
82.3395004272461
20
76.4757995605469
40
0.0
41
0.0
42
0.0
10
82.2248992919922
20
76.4247970581055
40
0.0
41
0.0
42
0.0
10
81.9936981201172
20
76.280403137207
40
0.0
41
0.0
42
0.0
10
81.7806015014648
20
76.322998046875
40
0.0
41
0.0
42
0.0
10
81.5130004882812
20
76.3827972412109
40
0.0
41
0.0
42
0.0
10
81.2498016357422
20
76.5084991455078
40
0.0
41
0.0
42
0.0
10
81.0102996826172
20
76.6386032104492
40
0.0
41
0.0
42
0.0
10
80.7745971679688
20
76.7526016235352
40
0.0
41
0.0
42
0.0
10
80.5100021362305
20
76.9229965209961
40
0.0
41
0.0
42
0.0
10
80.3216018676758
20
77.0036010742188
40
0.0
41
0.0
42
0.0
10
80.1380996704102
20
77.3725967407227
40
0.0
41
0.0
42
0.0
210
0.0
220
0.0
230
1.0
0
LWPOLYLINE
5
3C
330
1C
100
AcDbEntity
67
0
8
0
62
256
6
ByLayer
370
-1
48
1.0
60
0
100
AcDbPolyline
90
36
70
1
38
0.0
39
0.0
10
84.4834976196289
20
80.9809036254883
40
0.0
41
0.0
42
0.0
10
84.529296875
20
80.4829025268555
40
0.0
41
0.0
42
0.0
10
84.5820999145508
20
80.2083969116211
40
0.0
41
0.0
42
0.0
10
84.6140975952148
20
79.9847030639648
40
0.0
41
0.0
42
0.0
10
84.7032012939453
20
79.7109985351562
40
0.0
41
0.0
42
0.0
10
84.7643966674805
20
79.4880981445312
40
0.0
41
0.0
42
0.0
10
84.9220962524414
20
79.2146987915039
40
0.0
41
0.0
42
0.0
10
84.9732971191406
20
79.1071014404297
40
0.0
41
0.0
42
0.0
10
84.9917984008789
20
79.0765991210938
40
0.0
41
0.0
42
0.0
10
84.9990005493164
20
79.0765991210938
40
0.0
41
0.0
42
0.0
10
84.9989013671875
20
79.1166000366211
40
0.0
41
0.0
42
0.0
10
84.9800033569336
20
79.1480026245117
40
0.0
41
0.0
42
0.0
10
84.9194030761719
20
79.2751998901367
40
0.0
41
0.0
42
0.0
10
84.7828979492188
20
79.5118026733398
40
0.0
41
0.0
42
0.0
10
84.709602355957
20
79.7789001464844
40
0.0
41
0.0
42
0.0
10
84.6327972412109
20
80.0151977539062
40
0.0
41
0.0
42
0.0
10
84.594596862793
20
80.2815017700195
40
0.0
41
0.0
42
0.0
10
84.5491027832031
20
80.5169982910156
40
0.0
41
0.0
42
0.0
10
84.5039978027344
20
81.0046005249023
40
0.0
41
0.0
42
0.0
10
84.5022964477539
20
81.4704971313477
40
0.0
41
0.0
42
0.0
10
84.503303527832
20
81.4826965332031
40
0.0
41
0.0
42
0.0
10
84.5650024414062
20
81.8152008056641
40
0.0
41
0.0
42
0.0
10
84.6535034179688
20
81.9909973144531
40
0.0
41
0.0
42
0.0
10
84.7393035888672
20
82.1069030761719
40
0.0
41
0.0
42
0.0
10
84.77490234375
20
82.1328964233398
40
0.0
41
0.0
42
0.0
10
84.9990005493164
20
82.217399597168
40
0.0
41
0.0
42
0.0
10
84.9990005493164
20
82.2527008056641
40
0.0
41
0.0
42
0.0
10
84.9838027954102
20
82.2526016235352
40
0.0
41
0.0
42
0.0
10
84.7149963378906
20
82.1512985229492
40
0.0
41
0.0
42
0.0
10
84.6938018798828
20
82.1359024047852
40
0.0
41
0.0
42
0.0
10
84.5999984741211
20
82.008903503418
40
0.0
41
0.0
42
0.0
10
84.5438995361328
20
81.8976974487305
40
0.0
41
0.0
42
0.0
10
84.5007019042969
20
81.6644973754883
40
0.0
41
0.0
42
0.0
10
84.481201171875
20
81.5186996459961
40
0.0
41
0.0
42
0.0
10
84.4826965332031
20
81.413200378418
40
0.0
41
0.0
42
0.0
10
84.4834976196289
20
80.9809036254883
40
0.0
41
0.0
42
0.0
210
0.0
220
0.0
230
1.0
0
LWPOLYLINE
5
3D
330
1C
100
AcDbEntity
67
0
8
0
62
256
6
ByLayer
370
-1
48
1.0
60
0
100
AcDbPolyline
90
26
70
1
38
0.0
39
0.0
10
84.8432998657227
20
69.5195999145508
40
0.0
41
0.0
42
0.0
10
84.8432006835938
20
69.4810028076172
40
0.0
41
0.0
42
0.0
10
84.8711013793945
20
69.2067031860352
40
0.0
41
0.0
42
0.0
10
84.8858032226562
20
68.9832000732422
40
0.0
41
0.0
42
0.0
10
84.9282989501953
20
68.8107986450195
40
0.0
41
0.0
42
0.0
10
84.9956970214844
20
68.5824966430664
40
0.0
41
0.0
42
0.0
10
84.9990005493164
20
68.5824966430664
40
0.0
41
0.0
42
0.0
10
84.9989013671875
20
68.6027984619141
40
0.0
41
0.0
42
0.0
10
84.9382019042969
20
68.8088989257812
40
0.0
41
0.0
42
0.0
10
84.8870010375977
20
69.0167007446289
40
0.0
41
0.0
42
0.0
10
84.8694000244141
20
69.283203125
40
0.0
41
0.0
42
0.0
10
84.8463973999023
20
69.5095977783203
40
0.0
41
0.0
42
0.0
10
84.8538970947266
20
69.7451019287109
40
0.0
41
0.0
42
0.0
10
84.8495025634766
20
69.9868011474609
40
0.0
41
0.0
42
0.0
10
84.883903503418
20
70.2468032836914
40
0.0
41
0.0
42
0.0
10
84.8942031860352
20
70.4820022583008
40
0.0
41
0.0
42
0.0
10
84.9309997558594
20
70.719596862793
40
0.0
41
0.0
42
0.0
10
84.9990005493164
20
70.9466018676758
40
0.0
41
0.0
42
0.0
10
84.9990005493164
20
71.011100769043
40
0.0
41
0.0
42
0.0
10
84.9947967529297
20
71.011100769043
40
0.0
41
0.0
42
0.0
10
84.9283981323242
20
70.7902984619141
40
0.0
41
0.0
42
0.0
10
84.886100769043
20
70.5178985595703
40
0.0
41
0.0
42
0.0
10
84.8741989135742
20
70.2431030273438
40
0.0
41
0.0
42
0.0
10
84.8443984985352
20
70.018798828125
40
0.0
41
0.0
42
0.0
10
84.8498992919922
20
69.7285995483398
40
0.0
41
0.0
42
0.0
10
84.8432998657227
20
69.5195999145508
40
0.0
41
0.0
42
0.0
210
0.0
220
0.0
230
1.0
0
VIEWPORT
5
42
330
3E
100
AcDbEntity
67
1
8
0
62
256
6
ByLayer
370
-1
48
1.0
60
0
100
AcDbViewport
10
0.0
20
0.0
30
0.0
40
297.0
41
210.0
68
1
69
1
12
50.0
22
100.0
13
0.0
23
0.0
14
10.0
24
10.0
15
10.0
25
10.0
16
0.0
26
0.0
36
1.0
17
0.0
27
0.0
37
0.0
42
50.0
43
0.0
44
0.0
45
250.0
50
0.0
51
0.0
72
1000
90
819232
110
0.0
120
0.0
130
0.0
111
1.0
121
0.0
131
0.0
112
0.0
122
1.0
132
0.0
0
ENDSEC
0
SECTION
2
OBJECTS
0
DICTIONARY
5
48
330
0
100
AcDbDictionary
280
1
281
1
3
ACAD_GROUP
350
12
3
ACAD_LAYOUT
350
41
3
ACAD_DGNDEFINITIONS
350
F
3
ACAD_DWFDEFINITIONS
350
10
3
ACAD_PDFDEFINITIONS
350
11
3
ACAD_MLINESTYLE
350
B
3
ACAD_IMAGE_DICT
350
E
3
ACAD_IMAGE_VARS
350
21
0
DICTIONARY
5
12
330
48
100
AcDbDictionary
280
1
281
1
0
DICTIONARY
5
41
330
48
100
AcDbDictionary
280
1
281
1
3
Model
350
20
3
Layout1
350
43
0
DICTIONARY
5
F
330
48
100
AcDbDictionary
280
1
281
1
0
DICTIONARY
5
10
330
48
100
AcDbDictionary
280
1
281
1
0
DICTIONARY
5
11
330
48
100
AcDbDictionary
280
1
281
1
0
DICTIONARY
5
B
330
48
100
AcDbDictionary
280
1
281
1
3
Standard
350
1B
0
DICTIONARY
5
E
330
48
100
AcDbDictionary
280
1
281
1
0
DICTIONARY
5
6
330
5
100
AcDbDictionary
280
1
281
1
3
ACAD_LAYERSTATES
360
49
0
DICTIONARY
5
49
330
6
100
AcDbDictionary
280
1
281
1
0
LAYOUT
5
20
330
41
100
AcDbPlotSettings
1

2
none_device
4
ISO_A4_(210.00_x_297.00_MM)
6

40
7.5
41
20.0
42
7.5
43
20.0
44
210.0
45
297.0
46
0.0
47
0.0
48
0.0
49
0.0
140
0.0
141
0.0
142
1.0
143
1.0
70
11952
72
1
73
1
74
1
7

75
0
76
0
77
2
78
300
147
1.0
148
0.0
149
0.0
100
AcDbLayout
1
Model
71
0
10
-20.0
20
-7.5
11
277.0
21
202.5
12
0.0
22
0.0
32
0.0
14
25.7
24
19.5
34
0.0
15
231.3
25
175.5
35
0.0
146
0.0
13
0.0
23
0.0
33
0.0
16
1.0
26
0.0
36
0.0
17
0.0
27
1.0
37
0.0
76
0
330
1C
0
LAYOUT
5
43
330
41
100
AcDbPlotSettings
1

2
none_device
4
ISO_A4_(210.00_x_297.00_MM)
6

40
7.5
41
20.0
42
7.5
43
20.0
44
210.0
45
297.0
46
0.0
47
0.0
48
0.0
49
0.0
140
0.0
141
0.0
142
1.0
143
1.0
70
688
72
1
73
1
74
1
7

75
0
76
0
77
2
78
300
147
1.0
148
0.0
149
0.0
100
AcDbLayout
1
Layout1
71
1
10
-20.0
20
-7.5
11
277.0
21
202.5
12
0.0
22
0.0
32
0.0
14
25.7
24
19.5
34
0.0
15
231.3
25
175.5
35
0.0
146
0.0
13
0.0
23
0.0
33
0.0
16
1.0
26
0.0
36
0.0
17
0.0
27
1.0
37
0.0
76
0
330
3E
0
MLINESTYLE
5
1B
330
B
100
AcDbMlineStyle
2
Standard
70
0
3

62
256
51
90.0
52
90.0
71
2
49
0.5
62
256
6
ByLayer
49
-0.5
62
256
6
ByLayer
0
RASTERVARIABLES
5
21
330
E
100
AcDbRasterVariables
90
0
70
1
71
1
72
0
0
ENDSEC
0
EOF
