999
DXF file generated by netDxf https://github.com/haplokuon/netDxf, Copyright(C) Daniel Carvajal, Licensed under MIT
0
SECTION
2
HEADER
9
$ACADVER
1
AC1015
9
$DWGCODEPAGE
3
ANSI_1252
9
$HANDSEED
5
3F
9
$ANGBASE
50
0.0
9
$ANGDIR
70
0
9
$ATTMODE
70
1
9
$AUNITS
70
0
9
$AUPREC
70
0
9
$CECOLOR
62
256
9
$CELTSCALE
40
1.0
9
$CELTYPE
6
ByLayer
9
$CELWEIGHT
370
-1
9
$CLAYER
8
0
9
$CMLJUST
70
0
9
$CMLSCALE
40
20.0
9
$CMLSTYLE
2
Standard
9
$DIMSTYLE
2
Standard
9
$TEXTSIZE
40
2.5
9
$TEXTSTYLE
7
Standard
9
$LUNITS
70
2
9
$LUPREC
70
4
9
$MIRRTEXT
70
0
9
$EXTNAMES
290
1
9
$INSBASE
10
0.0
20
0.0
30
0.0
9
$INSUNITS
70
0
9
$LTSCALE
40
1.0
9
$LWDISPLAY
290
0
9
$PDMODE
70
0
9
$PDSIZE
40
0.0
9
$PLINEGEN
70
0
9
$PSLTSCALE
70
1
9
$SPLINESEGS
70
8
9
$SURFU
70
6
9
$SURFV
70
6
9
$TDCREATE
40
2460823.48372255
9
$TDUCREATE
40
2460823.15038921
9
$TDUPDATE
40
2460823.48372255
9
$TDUUPDATE
40
2460823.15038921
9
$TDINDWG
40
0.0
9
$UCSORG
10
0.0
20
0.0
30
0.0
9
$UCSXDIR
10
1.0
20
0.0
30
0.0
9
$UCSYDIR
10
0.0
20
1.0
30
0.0
9
$DIMADEC
70
0
9
$DIMALT
70
0
9
$DIMALTD
70
2
9
$DIMALTF
40
25.4
9
$DIMALTRND
40
0.0
9
$DIMALTTD
70
2
9
$DIMALTTZ
70
0
9
$DIMALTU
70
2
9
$DIMALTZ
70
0
9
$DIMAPOST
1

9
$DIMATFIT
70
3
9
$DIMAUNIT
70
0
9
$DIMASZ
40
0.18
9
$DIMAZIN
70
0
9
$DIMSAH
70
0
9
$DIMBLK
1

9
$DIMLDRBLK
1

9
$DIMCEN
40
0.09
9
$DIMCLRD
70
0
9
$DIMCLRE
70
0
9
$DIMCLRT
70
0
9
$DIMDEC
70
4
9
$DIMDLE
40
0.0
9
$DIMDLI
40
0.38
9
$DIMDSEP
70
46
9
$DIMEXE
40
0.18
9
$DIMEXO
40
0.0625
9
$DIMFXLON
70
0
9
$DIMFXL
40
1.0
9
$DIMGAP
40
0.09
9
$DIMJUST
70
0
9
$DIMLFAC
40
1.0
9
$DIMLUNIT
70
2
9
$DIMLWD
70
-2
9
$DIMLWE
70
-2
9
$DIMPOST
1

9
$DIMRND
40
0.0
9
$DIMSCALE
40
1.0
9
$DIMSD1
70
0
9
$DIMSD2
70
0
9
$DIMSE1
70
0
9
$DIMSE2
70
0
9
$DIMSOXD
70
0
9
$DIMTAD
70
0
9
$DIMTDEC
70
4
9
$DIMTFAC
40
1.0
9
$DIMTIH
70
0
9
$DIMTIX
70
0
9
$DIMTM
40
0.0
9
$DIMTMOVE
70
0
9
$DIMTOFL
70
0
9
$DIMTOH
70
0
9
$DIMTOL
70
0
9
$DIMLIM
70
0
9
$DIMTOLJ
70
1
9
$DIMTP
40
0.0
9
$DIMTXT
40
0.18
9
$DIMTXTDIRECTION
70
0
9
$DIMTZIN
70
0
9
$DIMZIN
70
0
9
$DIMFRAC
70
0
9
$DIMLTYPE
6
ByBlock
9
$DIMLTEX1
6
ByBlock
9
$DIMLTEX2
6
ByBlock
0
ENDSEC
0
SECTION
2
CLASSES
0
CLASS
1
RASTERVARIABLES
2
AcDbRasterVariables
3
ISM
90
0
280
0
281
0
0
ENDSEC
0
SECTION
2
TABLES
0
TABLE
2
APPID
5
4
330
0
100
AcDbSymbolTable
70
5
0
APPID
5
19
330
4
100
AcDbSymbolTableRecord
100
AcDbRegAppTableRecord
2
ACAD
70
0
0
APPID
5
39
330
4
100
AcDbSymbolTableRecord
100
AcDbRegAppTableRecord
2
AcCmTransparency
70
0
0
APPID
5
3A
330
4
100
AcDbSymbolTableRecord
100
AcDbRegAppTableRecord
2
AcAecLayerStandard
70
0
0
APPID
5
3B
330
4
100
AcDbSymbolTableRecord
100
AcDbRegAppTableRecord
2
GradientColor1ACI
70
0
0
APPID
5
3C
330
4
100
AcDbSymbolTableRecord
100
AcDbRegAppTableRecord
2
GradientColor2ACI
70
0
0
ENDTAB
0
TABLE
2
VPORT
5
1
330
0
100
AcDbSymbolTable
70
1
0
VPORT
5
2
330
1
100
AcDbSymbolTableRecord
100
AcDbViewportTableRecord
2
*Active
70
0
10
0.0
20
0.0
11
1.0
21
1.0
12
0.0
22
0.0
13
0.0
23
0.0
14
0.5
24
0.5
15
10.0
25
10.0
16
0.0
26
0.0
36
1.0
17
0.0
27
0.0
37
0.0
40
10.0
41
1.0
75
0
76
1
0
ENDTAB
0
TABLE
2
LTYPE
5
7
330
0
100
AcDbSymbolTable
70
3
0
LTYPE
5
15
330
7
100
AcDbSymbolTableRecord
100
AcDbLinetypeTableRecord
2
Continuous
70
0
3
Solid line
72
65
73
0
40
0.0
0
LTYPE
5
16
330
7
100
AcDbSymbolTableRecord
100
AcDbLinetypeTableRecord
2
ByLayer
70
0
3

72
65
73
0
40
0.0
0
LTYPE
5
17
330
7
100
AcDbSymbolTableRecord
100
AcDbLinetypeTableRecord
2
ByBlock
70
0
3

72
65
73
0
40
0.0
0
ENDTAB
0
TABLE
2
LAYER
5
5
102
{ACAD_XDICTIONARY
360
6
102
}
330
0
100
AcDbSymbolTable
70
1
0
LAYER
5
14
330
5
100
AcDbSymbolTableRecord
100
AcDbLayerTableRecord
2
0
70
0
62
7
6
Continuous
290
1
370
-3
390
0
0
ENDTAB
0
TABLE
2
STYLE
5
8
330
0
100
AcDbSymbolTable
70
1
0
STYLE
5
18
330
8
100
AcDbSymbolTableRecord
100
AcDbTextStyleTableRecord
2
Standard
3
simplex.shx
70
0
71
0
40
0.0
41
1.0
42
0.0
50
0.0
0
ENDTAB
0
TABLE
2
DIMSTYLE
5
A
330
0
100
AcDbSymbolTable
70
1
100
AcDbDimStyleTable
0
DIMSTYLE
105
1A
330
A
100
AcDbSymbolTableRecord
100
AcDbDimStyleTableRecord
2
Standard
3

4

40
1.0
41
0.18
42
0.0625
43
0.38
44
0.18
45
0.0
46
0.0
47
0.0
48
0.0
49
1.0
70
0
71
0
72
0
73
0
74
0
75
0
76
0
77
0
78
0
79
0
140
0.18
141
0.09
143
25.4
144
1.0
146
1.0
147
0.09
148
0.0
170
0
171
2
172
0
174
0
175
0
176
0
177
0
178
0
179
0
271
4
272
4
273
2
274
2
275
0
276
0
277
2
278
46
279
0
280
0
281
0
282
0
283
1
284
0
285
0
286
0
289
3
290
0
294
0
340
18
173
0
345
17
346
17
347
17
371
-2
372
-2
0
ENDTAB
0
TABLE
2
VIEW
5
3
330
0
100
AcDbSymbolTable
70
0
0
ENDTAB
0
TABLE
2
UCS
5
C
330
0
100
AcDbSymbolTable
70
0
0
ENDTAB
0
TABLE
2
BLOCK_RECORD
5
D
330
0
100
AcDbSymbolTable
70
2
0
BLOCK_RECORD
5
1C
330
D
100
AcDbSymbolTableRecord
100
AcDbBlockTableRecord
2
*Model_Space
340
20
0
BLOCK_RECORD
5
33
330
D
100
AcDbSymbolTableRecord
100
AcDbBlockTableRecord
2
*Paper_Space
340
38
0
ENDTAB
0
ENDSEC
0
SECTION
2
BLOCKS
0
BLOCK
5
1E
330
1C
100
AcDbEntity
67
0
8
0
100
AcDbBlockBegin
2
*Model_Space
70
0
10
0.0
20
0.0
30
0.0
3
*Model_Space
4

0
ENDBLK
5
1D
330
1C
100
AcDbEntity
8
0
100
AcDbBlockEnd
0
BLOCK
5
35
330
33
100
AcDbEntity
67
1
8
0
100
AcDbBlockBegin
2
*Paper_Space
70
0
10
0.0
20
0.0
30
0.0
3
*Paper_Space
4

0
ENDBLK
5
34
330
33
100
AcDbEntity
8
0
100
AcDbBlockEnd
0
ENDSEC
0
SECTION
2
ENTITIES
0
LWPOLYLINE
5
22
330
1C
100
AcDbEntity
67
0
8
0
62
256
6
ByLayer
370
-1
48
1.0
60
0
100
AcDbPolyline
90
34
70
1
38
0.0
39
0.0
10
65.0152969360352
20
65.7944030761719
40
0.0
41
0.0
42
0.0
10
65.2353973388672
20
65.8974990844727
40
0.0
41
0.0
42
0.0
10
65.3150024414062
20
65.9878997802734
40
0.0
41
0.0
42
0.0
10
65.3153991699219
20
66.0720977783203
40
0.0
41
0.0
42
0.0
10
65.4315032958984
20
66.3242034912109
40
0.0
41
0.0
42
0.0
10
65.4998016357422
20
66.456298828125
40
0.0
41
0.0
42
0.0
10
65.5047988891602
20
66.4819030761719
40
0.0
41
0.0
42
0.0
10
65.5046997070312
20
66.5195999145508
40
0.0
41
0.0
42
0.0
10
65.4916000366211
20
66.972297668457
40
0.0
41
0.0
42
0.0
10
65.4191970825195
20
67.450798034668
40
0.0
41
0.0
42
0.0
10
65.402702331543
20
67.5150985717773
40
0.0
41
0.0
42
0.0
10
65.3085021972656
20
67.9490966796875
40
0.0
41
0.0
42
0.0
10
65.285400390625
20
68.0131988525391
40
0.0
41
0.0
42
0.0
10
65.1460037231445
20
68.4465026855469
40
0.0
41
0.0
42
0.0
10
65.1106033325195
20
68.5099029541016
40
0.0
41
0.0
42
0.0
10
65.0073013305664
20
68.7044982910156
40
0.0
41
0.0
42
0.0
10
65.0009994506836
20
68.7044982910156
40
0.0
41
0.0
42
0.0
10
65.0009002685547
20
68.6278991699219
40
0.0
41
0.0
42
0.0
10
65.0743026733398
20
68.4899978637695
40
0.0
41
0.0
42
0.0
10
65.1335983276367
20
68.38330078125
40
0.0
41
0.0
42
0.0
10
65.2612991333008
20
67.986701965332
40
0.0
41
0.0
42
0.0
10
65.2994003295898
20
67.8807983398438
40
0.0
41
0.0
42
0.0
10
65.3853988647461
20
67.4848022460938
40
0.0
41
0.0
42
0.0
10
65.4123992919922
20
67.3790969848633
40
0.0
41
0.0
42
0.0
10
65.4712982177734
20
66.9832992553711
40
0.0
41
0.0
42
0.0
10
65.486701965332
20
66.8945007324219
40
0.0
41
0.0
42
0.0
10
65.4982986450195
20
66.5131988525391
40
0.0
41
0.0
42
0.0
10
65.3162994384766
20
66.1177978515625
40
0.0
41
0.0
42
0.0
10
65.3068008422852
20
66.0821990966797
40
0.0
41
0.0
42
0.0
10
65.3067016601562
20
66.0120010375977
40
0.0
41
0.0
42
0.0
10
65.2444000244141
20
65.9410018920898
40
0.0
41
0.0
42
0.0
10
65.0009994506836
20
65.8271026611328
40
0.0
41
0.0
42
0.0
10
65.0009994506836
20
65.7944030761719
40
0.0
41
0.0
42
0.0
10
65.0152969360352
20
65.7944030761719
40
0.0
41
0.0
42
0.0
210
0.0
220
0.0
230
1.0
0
LWPOLYLINE
5
23
330
1C
100
AcDbEntity
67
0
8
0
62
256
6
ByLayer
370
-1
48
1.0
60
0
100
AcDbPolyline
90
442
70
1
38
0.0
39
0.0
10
65.3973999023438
20
76.9835968017578
40
0.0
41
0.0
42
0.0
10
65.4214019775391
20
77.0579986572266
40
0.0
41
0.0
42
0.0
10
65.499397277832
20
77.3731002807617
40
0.0
41
0.0
42
0.0
10
65.515998840332
20
77.4525985717773
40
0.0
41
0.0
42
0.0
10
65.5274963378906
20
77.4885025024414
40
0.0
41
0.0
42
0.0
10
65.7584991455078
20
77.8861999511719
40
0.0
41
0.0
42
0.0
10
65.8318023681641
20
77.9935989379883
40
0.0
41
0.0
42
0.0
10
66.2697982788086
20
78.4120025634766
40
0.0
41
0.0
42
0.0
10
66.3647994995117
20
78.4962997436523
40
0.0
41
0.0
42
0.0
10
66.5078964233398
20
78.6026000976562
40
0.0
41
0.0
42
0.0
10
66.6131973266602
20
78.6716995239258
40
0.0
41
0.0
42
0.0
10
67.0085983276367
20
78.9470977783203
40
0.0
41
0.0
42
0.0
10
67.0482025146484
20
78.9704971313477
40
0.0
41
0.0
42
0.0
10
67.1032028198242
20
78.9982986450195
40
0.0
41
0.0
42
0.0
10
67.1520004272461
20
79.0285034179688
40
0.0
41
0.0
42
0.0
10
67.5091018676758
20
79.2596969604492
40
0.0
41
0.0
42
0.0
10
67.6141967773438
20
79.318603515625
40
0.0
41
0.0
42
0.0
10
67.8705978393555
20
79.4807968139648
40
0.0
41
0.0
42
0.0
10
67.8833999633789
20
79.4947967529297
40
0.0
41
0.0
42
0.0
10
68.004997253418
20
79.6061019897461
40
0.0
41
0.0
42
0.0
10
68.2232971191406
20
79.8494033813477
40
0.0
41
0.0
42
0.0
10
68.2754974365234
20
79.8890991210938
40
0.0
41
0.0
42
0.0
10
68.3323974609375
20
79.9870986938477
40
0.0
41
0.0
42
0.0
10
68.3471984863281
20
80.0801010131836
40
0.0
41
0.0
42
0.0
10
68.5002975463867
20
80.4334030151367
40
0.0
41
0.0
42
0.0
10
68.515998840332
20
80.4801025390625
40
0.0
41
0.0
42
0.0
10
68.6344985961914
20
80.9191970825195
40
0.0
41
0.0
42
0.0
10
68.643798828125
20
80.9841003417969
40
0.0
41
0.0
42
0.0
10
68.7552032470703
20
81.4196014404297
40
0.0
41
0.0
42
0.0
10
68.7679977416992
20
81.4850997924805
40
0.0
41
0.0
42
0.0
10
68.9031982421875
20
81.9209976196289
40
0.0
41
0.0
42
0.0
10
68.9222030639648
20
81.9869995117188
40
0.0
41
0.0
42
0.0
10
68.9459991455078
20
82.0436019897461
40
0.0
41
0.0
42
0.0
10
69.0005035400391
20
82.1872024536133
40
0.0
41
0.0
42
0.0
10
69.1306991577148
20
82.480598449707
40
0.0
41
0.0
42
0.0
10
69.4075012207031
20
82.9265975952148
40
0.0
41
0.0
42
0.0
10
69.4551010131836
20
82.9933013916016
40
0.0
41
0.0
42
0.0
10
69.4692001342773
20
83.00830078125
40
0.0
41
0.0
42
0.0
10
69.505500793457
20
83.0580978393555
40
0.0
41
0.0
42
0.0
10
69.5733032226562
20
83.0992965698242
40
0.0
41
0.0
42
0.0
10
69.6123962402344
20
83.1275024414062
40
0.0
41
0.0
42
0.0
10
70.0100021362305
20
83.4358978271484
40
0.0
41
0.0
42
0.0
10
70.1520004272461
20
83.4828033447266
40
0.0
41
0.0
42
0.0
10
70.2573013305664
20
83.5091018676758
40
0.0
41
0.0
42
0.0
10
70.5164031982422
20
83.5875015258789
40
0.0
41
0.0
42
0.0
10
70.6239013671875
20
83.5919036865234
40
0.0
41
0.0
42
0.0
10
70.9951019287109
20
83.6135025024414
40
0.0
41
0.0
42
0.0
10
71.0868988037109
20
83.6043014526367
40
0.0
41
0.0
42
0.0
10
71.4826965332031
20
83.5699996948242
40
0.0
41
0.0
42
0.0
10
71.8924026489258
20
83.497802734375
40
0.0
41
0.0
42
0.0
10
71.9851989746094
20
83.4776000976562
40
0.0
41
0.0
42
0.0
10
72.0903015136719
20
83.44580078125
40
0.0
41
0.0
42
0.0
10
72.4853973388672
20
83.3542022705078
40
0.0
41
0.0
42
0.0
10
72.5904006958008
20
83.3218994140625
40
0.0
41
0.0
42
0.0
10
72.9835968017578
20
83.2315979003906
40
0.0
41
0.0
42
0.0
10
73.0873031616211
20
83.2188034057617
40
0.0
41
0.0
42
0.0
10
73.4810028076172
20
83.1787033081055
40
0.0
41
0.0
42
0.0
10
73.5162963867188
20
83.178596496582
40
0.0
41
0.0
42
0.0
10
73.6193008422852
20
83.2158966064453
40
0.0
41
0.0
42
0.0
10
74.0126037597656
20
83.2928009033203
40
0.0
41
0.0
42
0.0
10
74.2711029052734
20
83.4383010864258
40
0.0
41
0.0
42
0.0
10
74.2957992553711
20
83.4589996337891
40
0.0
41
0.0
42
0.0
10
74.3358001708984
20
83.4968032836914
40
0.0
41
0.0
42
0.0
10
74.3650970458984
20
83.5142974853516
40
0.0
41
0.0
42
0.0
10
74.5093002319336
20
83.5779037475586
40
0.0
41
0.0
42
0.0
10
74.5733032226562
20
83.6253967285156
40
0.0
41
0.0
42
0.0
10
75.1990966796875
20
83.9981002807617
40
0.0
41
0.0
42
0.0
10
75.5106964111328
20
84.1729965209961
40
0.0
41
0.0
42
0.0
10
75.5764999389648
20
84.2011032104492
40
0.0
41
0.0
42
0.0
10
76.0126037597656
20
84.4011993408203
40
0.0
41
0.0
42
0.0
10
76.3517990112305
20
84.4994964599609
40
0.0
41
0.0
42
0.0
10
76.415901184082
20
84.5158004760742
40
0.0
41
0.0
42
0.0
10
76.5157012939453
20
84.5534973144531
40
0.0
41
0.0
42
0.0
10
76.5838012695312
20
84.5532989501953
40
0.0
41
0.0
42
0.0
10
76.9919967651367
20
84.5994033813477
40
0.0
41
0.0
42
0.0
10
77.0579986572266
20
84.5783004760742
40
0.0
41
0.0
42
0.0
10
77.3731002807617
20
84.5003967285156
40
0.0
41
0.0
42
0.0
10
77.4525985717773
20
84.4837036132812
40
0.0
41
0.0
42
0.0
10
77.4893035888672
20
84.4720001220703
40
0.0
41
0.0
42
0.0
10
77.5960998535156
20
84.3989028930664
40
0.0
41
0.0
42
0.0
10
77.9929962158203
20
84.1685028076172
40
0.0
41
0.0
42
0.0
10
78.4120025634766
20
83.7301025390625
40
0.0
41
0.0
42
0.0
10
78.4962005615234
20
83.6350021362305
40
0.0
41
0.0
42
0.0
10
78.6025009155273
20
83.4919967651367
40
0.0
41
0.0
42
0.0
10
78.6716003417969
20
83.3867034912109
40
0.0
41
0.0
42
0.0
10
78.9469985961914
20
82.9912033081055
40
0.0
41
0.0
42
0.0
10
78.9703979492188
20
82.9515991210938
40
0.0
41
0.0
42
0.0
10
78.9981994628906
20
82.896598815918
40
0.0
41
0.0
42
0.0
10
79.0285034179688
20
82.8478012084961
40
0.0
41
0.0
42
0.0
10
79.2596969604492
20
82.4907989501953
40
0.0
41
0.0
42
0.0
10
79.318603515625
20
82.3856964111328
40
0.0
41
0.0
42
0.0
10
79.4806976318359
20
82.1292037963867
40
0.0
41
0.0
42
0.0
10
79.4946975708008
20
82.1163024902344
40
0.0
41
0.0
42
0.0
10
79.6060028076172
20
81.9949035644531
40
0.0
41
0.0
42
0.0
10
79.8494033813477
20
81.776496887207
40
0.0
41
0.0
42
0.0
10
79.8890991210938
20
81.7242965698242
40
0.0
41
0.0
42
0.0
10
79.9870986938477
20
81.6672973632812
40
0.0
41
0.0
42
0.0
10
80.0800018310547
20
81.6524963378906
40
0.0
41
0.0
42
0.0
10
80.4332962036133
20
81.4994964599609
40
0.0
41
0.0
42
0.0
10
80.4788970947266
20
81.4841003417969
40
0.0
41
0.0
42
0.0
10
80.549201965332
20
81.4741973876953
40
0.0
41
0.0
42
0.0
10
80.9847030639648
20
81.3557968139648
40
0.0
41
0.0
42
0.0
10
81.0495986938477
20
81.3431015014648
40
0.0
41
0.0
42
0.0
10
81.4853973388672
20
81.2314987182617
40
0.0
41
0.0
42
0.0
10
81.5509033203125
20
81.2126998901367
40
0.0
41
0.0
42
0.0
10
81.9870986938477
20
81.0774002075195
40
0.0
41
0.0
42
0.0
10
82.0435028076172
20
81.0537033081055
40
0.0
41
0.0
42
0.0
10
82.1872024536133
20
80.9992980957031
40
0.0
41
0.0
42
0.0
10
82.4797973632812
20
80.8694000244141
40
0.0
41
0.0
42
0.0
10
82.4908981323242
20
80.8637008666992
40
0.0
41
0.0
42
0.0
10
82.5566024780273
20
80.8169021606445
40
0.0
41
0.0
42
0.0
10
82.9927978515625
20
80.5450973510742
40
0.0
41
0.0
42
0.0
10
83.0082015991211
20
80.5306015014648
40
0.0
41
0.0
42
0.0
10
83.0579986572266
20
80.4944000244141
40
0.0
41
0.0
42
0.0
10
83.0991973876953
20
80.4265975952148
40
0.0
41
0.0
42
0.0
10
83.1275024414062
20
80.3874969482422
40
0.0
41
0.0
42
0.0
10
83.4358978271484
20
79.9898986816406
40
0.0
41
0.0
42
0.0
10
83.4828033447266
20
79.8478012084961
40
0.0
41
0.0
42
0.0
10
83.5091018676758
20
79.7425003051758
40
0.0
41
0.0
42
0.0
10
83.5875015258789
20
79.4834976196289
40
0.0
41
0.0
42
0.0
10
83.5919036865234
20
79.3759994506836
40
0.0
41
0.0
42
0.0
10
83.6135025024414
20
79.0047988891602
40
0.0
41
0.0
42
0.0
10
83.6043014526367
20
78.9130020141602
40
0.0
41
0.0
42
0.0
10
83.5699996948242
20
78.5171966552734
40
0.0
41
0.0
42
0.0
10
83.497802734375
20
78.1073989868164
40
0.0
41
0.0
42
0.0
10
83.4776000976562
20
78.0147018432617
40
0.0
41
0.0
42
0.0
10
83.44580078125
20
77.9095001220703
40
0.0
41
0.0
42
0.0
10
83.3542022705078
20
77.5145034790039
40
0.0
41
0.0
42
0.0
10
83.3218994140625
20
77.4095001220703
40
0.0
41
0.0
42
0.0
10
83.2315979003906
20
77.0162963867188
40
0.0
41
0.0
42
0.0
10
83.2188034057617
20
76.91259765625
40
0.0
41
0.0
42
0.0
10
83.1787033081055
20
76.5188980102539
40
0.0
41
0.0
42
0.0
10
83.178596496582
20
76.4835968017578
40
0.0
41
0.0
42
0.0
10
83.2157974243164
20
76.3805999755859
40
0.0
41
0.0
42
0.0
10
83.2928009033203
20
75.9872970581055
40
0.0
41
0.0
42
0.0
10
83.4382019042969
20
75.7285995483398
40
0.0
41
0.0
42
0.0
10
83.4589996337891
20
75.7040023803711
40
0.0
41
0.0
42
0.0
10
83.496696472168
20
75.6640014648438
40
0.0
41
0.0
42
0.0
10
83.5142974853516
20
75.6346969604492
40
0.0
41
0.0
42
0.0
10
83.5779037475586
20
75.4906005859375
40
0.0
41
0.0
42
0.0
10
83.6253967285156
20
75.4265975952148
40
0.0
41
0.0
42
0.0
10
83.9981002807617
20
74.8005981445312
40
0.0
41
0.0
42
0.0
10
84.1729965209961
20
74.4891967773438
40
0.0
41
0.0
42
0.0
10
84.2011032104492
20
74.4234008789062
40
0.0
41
0.0
42
0.0
10
84.4011993408203
20
73.9872970581055
40
0.0
41
0.0
42
0.0
10
84.4994964599609
20
73.6480026245117
40
0.0
41
0.0
42
0.0
10
84.5158004760742
20
73.5839004516602
40
0.0
41
0.0
42
0.0
10
84.5534973144531
20
73.4841995239258
40
0.0
41
0.0
42
0.0
10
84.5532989501953
20
73.4160995483398
40
0.0
41
0.0
42
0.0
10
84.5996017456055
20
73.0078964233398
40
0.0
41
0.0
42
0.0
10
84.5783004760742
20
72.9418029785156
40
0.0
41
0.0
42
0.0
10
84.5003967285156
20
72.6267013549805
40
0.0
41
0.0
42
0.0
10
84.4837036132812
20
72.5472030639648
40
0.0
41
0.0
42
0.0
10
84.4720001220703
20
72.5105972290039
40
0.0
41
0.0
42
0.0
10
84.3989028930664
20
72.4037017822266
40
0.0
41
0.0
42
0.0
10
84.1685028076172
20
72.0067977905273
40
0.0
41
0.0
42
0.0
10
83.7301025390625
20
71.5877990722656
40
0.0
41
0.0
42
0.0
10
83.6350021362305
20
71.5036010742188
40
0.0
41
0.0
42
0.0
10
83.492301940918
20
71.3973999023438
40
0.0
41
0.0
42
0.0
10
83.0967025756836
20
71.1219024658203
40
0.0
41
0.0
42
0.0
10
82.9909973144531
20
71.0524978637695
40
0.0
41
0.0
42
0.0
10
82.9515991210938
20
71.029296875
40
0.0
41
0.0
42
0.0
10
82.896598815918
20
71.0016021728516
40
0.0
41
0.0
42
0.0
10
82.8478012084961
20
70.9712982177734
40
0.0
41
0.0
42
0.0
10
82.4907989501953
20
70.7399978637695
40
0.0
41
0.0
42
0.0
10
82.3856964111328
20
70.6811981201172
40
0.0
41
0.0
42
0.0
10
82.1292037963867
20
70.5189971923828
40
0.0
41
0.0
42
0.0
10
82.1164016723633
20
70.5050964355469
40
0.0
41
0.0
42
0.0
10
81.9949035644531
20
70.393798828125
40
0.0
41
0.0
42
0.0
10
81.776496887207
20
70.1502990722656
40
0.0
41
0.0
42
0.0
10
81.7244033813477
20
70.1108016967773
40
0.0
41
0.0
42
0.0
10
81.6672973632812
20
70.0128021240234
40
0.0
41
0.0
42
0.0
10
81.6524963378906
20
69.9197006225586
40
0.0
41
0.0
42
0.0
10
81.4994964599609
20
69.5664978027344
40
0.0
41
0.0
42
0.0
10
81.4841003417969
20
69.5208969116211
40
0.0
41
0.0
42
0.0
10
81.4741973876953
20
69.4506988525391
40
0.0
41
0.0
42
0.0
10
81.3557968139648
20
69.0151977539062
40
0.0
41
0.0
42
0.0
10
81.3431015014648
20
68.9503021240234
40
0.0
41
0.0
42
0.0
10
81.2315979003906
20
68.5145034790039
40
0.0
41
0.0
42
0.0
10
81.2126998901367
20
68.4488983154297
40
0.0
41
0.0
42
0.0
10
81.0774993896484
20
68.0128021240234
40
0.0
41
0.0
42
0.0
10
81.0537033081055
20
67.956298828125
40
0.0
41
0.0
42
0.0
10
80.9992980957031
20
67.8125991821289
40
0.0
41
0.0
42
0.0
10
80.8694000244141
20
67.5199966430664
40
0.0
41
0.0
42
0.0
10
80.8637008666992
20
67.5090026855469
40
0.0
41
0.0
42
0.0
10
80.8170013427734
20
67.4432983398438
40
0.0
41
0.0
42
0.0
10
80.5451965332031
20
67.0071029663086
40
0.0
41
0.0
42
0.0
10
80.5307006835938
20
66.9916000366211
40
0.0
41
0.0
42
0.0
10
80.4952011108398
20
66.9427032470703
40
0.0
41
0.0
42
0.0
10
80.068603515625
20
66.611701965332
40
0.0
41
0.0
42
0.0
10
79.9888000488281
20
66.5634002685547
40
0.0
41
0.0
42
0.0
10
79.8478012084961
20
66.5168991088867
40
0.0
41
0.0
42
0.0
10
79.7425003051758
20
66.4906005859375
40
0.0
41
0.0
42
0.0
10
79.4837036132812
20
66.4122009277344
40
0.0
41
0.0
42
0.0
10
79.0859985351562
20
66.3889999389648
40
0.0
41
0.0
42
0.0
10
79.0068969726562
20
66.3856964111328
40
0.0
41
0.0
42
0.0
10
78.6230010986328
20
66.4189987182617
40
0.0
41
0.0
42
0.0
10
78.5170974731445
20
66.4297027587891
40
0.0
41
0.0
42
0.0
10
78.1073989868164
20
66.5018997192383
40
0.0
41
0.0
42
0.0
10
78.0152969360352
20
66.5220031738281
40
0.0
41
0.0
42
0.0
10
77.619499206543
20
66.6138000488281
40
0.0
41
0.0
42
0.0
10
77.5146026611328
20
66.6455001831055
40
0.0
41
0.0
42
0.0
10
77.119499206543
20
66.736198425293
40
0.0
41
0.0
42
0.0
10
77.0157012939453
20
66.7682037353516
40
0.0
41
0.0
42
0.0
10
76.6225967407227
20
66.8084030151367
40
0.0
41
0.0
42
0.0
10
76.5186996459961
20
66.8212966918945
40
0.0
41
0.0
42
0.0
10
76.4820022583008
20
66.8211975097656
40
0.0
41
0.0
42
0.0
10
76.0905990600586
20
66.7445983886719
40
0.0
41
0.0
42
0.0
10
75.9887008666992
20
66.7078018188477
40
0.0
41
0.0
42
0.0
10
75.7286987304688
20
66.5615005493164
40
0.0
41
0.0
42
0.0
10
75.7040023803711
20
66.5408020019531
40
0.0
41
0.0
42
0.0
10
75.6644973754883
20
66.5036010742188
40
0.0
41
0.0
42
0.0
10
75.6348037719727
20
66.4853973388672
40
0.0
41
0.0
42
0.0
10
75.4896011352539
20
66.4214019775391
40
0.0
41
0.0
42
0.0
10
75.0585021972656
20
66.165901184082
40
0.0
41
0.0
42
0.0
10
74.99169921875
20
66.1163024902344
40
0.0
41
0.0
42
0.0
10
74.8006973266602
20
66.0018005371094
40
0.0
41
0.0
42
0.0
10
74.489501953125
20
65.8268966674805
40
0.0
41
0.0
42
0.0
10
74.0534973144531
20
65.6268005371094
40
0.0
41
0.0
42
0.0
10
73.9869995117188
20
65.5983963012695
40
0.0
41
0.0
42
0.0
10
73.6481018066406
20
65.5002975463867
40
0.0
41
0.0
42
0.0
10
73.5838012695312
20
65.4839019775391
40
0.0
41
0.0
42
0.0
10
73.4849014282227
20
65.4466018676758
40
0.0
41
0.0
42
0.0
10
73.0495986938477
20
65.3973007202148
40
0.0
41
0.0
42
0.0
10
73.1238021850586
20
65.397102355957
40
0.0
41
0.0
42
0.0
10
73.5149993896484
20
65.4412994384766
40
0.0
41
0.0
42
0.0
10
73.6022033691406
20
65.4744033813477
40
0.0
41
0.0
42
0.0
10
73.7080993652344
20
65.5011978149414
40
0.0
41
0.0
42
0.0
10
74.0129013061523
20
65.5895004272461
40
0.0
41
0.0
42
0.0
10
74.1165008544922
20
65.6336975097656
40
0.0
41
0.0
42
0.0
10
74.5103988647461
20
65.8144989013672
40
0.0
41
0.0
42
0.0
10
74.8360977172852
20
65.9981002807617
40
0.0
41
0.0
42
0.0
10
75.00830078125
20
66.1015014648438
40
0.0
41
0.0
42
0.0
10
75.1132965087891
20
66.1794967651367
40
0.0
41
0.0
42
0.0
10
75.5102996826172
20
66.4151000976562
40
0.0
41
0.0
42
0.0
10
75.6419982910156
20
66.4730987548828
40
0.0
41
0.0
42
0.0
10
75.6812973022461
20
66.4968032836914
40
0.0
41
0.0
42
0.0
10
75.7245025634766
20
66.5373992919922
40
0.0
41
0.0
42
0.0
10
76.0111999511719
20
66.698600769043
40
0.0
41
0.0
42
0.0
10
76.0792999267578
20
66.7232971191406
40
0.0
41
0.0
42
0.0
10
76.5036010742188
20
66.8061981201172
40
0.0
41
0.0
42
0.0
10
76.9841003417969
20
66.756103515625
40
0.0
41
0.0
42
0.0
10
77.0503997802734
20
66.7359008789062
40
0.0
41
0.0
42
0.0
10
77.4852981567383
20
66.6360015869141
40
0.0
41
0.0
42
0.0
10
77.5503005981445
20
66.6164016723633
40
0.0
41
0.0
42
0.0
10
78.0407028198242
20
66.503303527832
40
0.0
41
0.0
42
0.0
10
78.4826965332031
20
66.4255981445312
40
0.0
41
0.0
42
0.0
10
78.980598449707
20
66.3815002441406
40
0.0
41
0.0
42
0.0
10
79.084098815918
20
66.3841018676758
40
0.0
41
0.0
42
0.0
10
79.5162963867188
20
66.4094009399414
40
0.0
41
0.0
42
0.0
10
79.7975006103516
20
66.4945983886719
40
0.0
41
0.0
42
0.0
10
79.8627014160156
20
66.5109024047852
40
0.0
41
0.0
42
0.0
10
80.011100769043
20
66.5597991943359
40
0.0
41
0.0
42
0.0
10
80.0736999511719
20
66.5977020263672
40
0.0
41
0.0
42
0.0
10
80.1128005981445
20
66.6232986450195
40
0.0
41
0.0
42
0.0
10
80.5046997070312
20
66.9273986816406
40
0.0
41
0.0
42
0.0
10
80.5350036621094
20
66.9692001342773
40
0.0
41
0.0
42
0.0
10
80.5571975708008
20
66.9927978515625
40
0.0
41
0.0
42
0.0
10
80.8024978637695
20
67.3865966796875
40
0.0
41
0.0
42
0.0
10
80.8768005371094
20
67.4908981323242
40
0.0
41
0.0
42
0.0
10
80.8833999633789
20
67.5037002563477
40
0.0
41
0.0
42
0.0
10
81.0005035400391
20
67.7674026489258
40
0.0
41
0.0
42
0.0
10
81.0496978759766
20
67.8973999023438
40
0.0
41
0.0
42
0.0
10
81.0875015258789
20
67.9871978759766
40
0.0
41
0.0
42
0.0
10
81.209602355957
20
68.3809967041016
40
0.0
41
0.0
42
0.0
10
81.2396011352539
20
68.4854965209961
40
0.0
41
0.0
42
0.0
10
81.3404006958008
20
68.8796005249023
40
0.0
41
0.0
42
0.0
10
81.3610992431641
20
68.9847030639648
40
0.0
41
0.0
42
0.0
10
81.4682998657227
20
69.3792037963867
40
0.0
41
0.0
42
0.0
10
81.4845962524414
20
69.4942016601562
40
0.0
41
0.0
42
0.0
10
81.5002975463867
20
69.5407028198242
40
0.0
41
0.0
42
0.0
10
81.6670989990234
20
69.9266967773438
40
0.0
41
0.0
42
0.0
10
81.6766967773438
20
69.9870986938477
40
0.0
41
0.0
42
0.0
10
81.7185974121094
20
70.0590972900391
40
0.0
41
0.0
42
0.0
10
81.7537002563477
20
70.0858001708984
40
0.0
41
0.0
42
0.0
10
82.004997253418
20
70.3658981323242
40
0.0
41
0.0
42
0.0
10
82.1565017700195
20
70.506103515625
40
0.0
41
0.0
42
0.0
10
82.4441986083984
20
70.6880035400391
40
0.0
41
0.0
42
0.0
10
82.5091018676758
20
70.7245025634766
40
0.0
41
0.0
42
0.0
10
82.9013977050781
20
70.9785003662109
40
0.0
41
0.0
42
0.0
10
82.9331970214844
20
70.9982986450195
40
0.0
41
0.0
42
0.0
10
82.9675979614258
20
71.0155029296875
40
0.0
41
0.0
42
0.0
10
83.008903503418
20
71.0399017333984
40
0.0
41
0.0
42
0.0
10
83.0731964111328
20
71.0821990966797
40
0.0
41
0.0
42
0.0
10
83.507698059082
20
71.3848037719727
40
0.0
41
0.0
42
0.0
10
83.657600402832
20
71.4962997436523
40
0.0
41
0.0
42
0.0
10
83.7147979736328
20
71.5469970703125
40
0.0
41
0.0
42
0.0
10
84.1816024780273
20
71.9931030273438
40
0.0
41
0.0
42
0.0
10
84.4329986572266
20
72.4262008666992
40
0.0
41
0.0
42
0.0
10
84.4765014648438
20
72.4899978637695
40
0.0
41
0.0
42
0.0
10
84.4814987182617
20
72.505500793457
40
0.0
41
0.0
42
0.0
10
84.5
20
72.5938034057617
40
0.0
41
0.0
42
0.0
10
84.581901550293
20
72.9246978759766
40
0.0
41
0.0
42
0.0
10
84.6022033691406
20
72.9834976196289
40
0.0
41
0.0
42
0.0
10
84.6020965576172
20
73.018798828125
40
0.0
41
0.0
42
0.0
10
84.5577011108398
20
73.4121017456055
40
0.0
41
0.0
42
0.0
10
84.5579986572266
20
73.5160980224609
40
0.0
41
0.0
42
0.0
10
84.5252990722656
20
73.6022033691406
40
0.0
41
0.0
42
0.0
10
84.4984970092773
20
73.7080001831055
40
0.0
41
0.0
42
0.0
10
84.410400390625
20
74.0126037597656
40
0.0
41
0.0
42
0.0
10
84.2296981811523
20
74.4064025878906
40
0.0
41
0.0
42
0.0
10
84.1850967407227
20
74.5105972290039
40
0.0
41
0.0
42
0.0
10
84.0017013549805
20
74.8360977172852
40
0.0
41
0.0
42
0.0
10
83.6639022827148
20
75.4031982421875
40
0.0
41
0.0
42
0.0
10
83.5850982666016
20
75.5093002319336
40
0.0
41
0.0
42
0.0
10
83.5266036987305
20
75.6418991088867
40
0.0
41
0.0
42
0.0
10
83.5029983520508
20
75.6812973022461
40
0.0
41
0.0
42
0.0
10
83.46240234375
20
75.7245025634766
40
0.0
41
0.0
42
0.0
10
83.3003005981445
20
76.0126037597656
40
0.0
41
0.0
42
0.0
10
83.2148971557617
20
76.4493026733398
40
0.0
41
0.0
42
0.0
10
83.1934967041016
20
76.5084991455078
40
0.0
41
0.0
42
0.0
10
83.2352981567383
20
76.9172973632812
40
0.0
41
0.0
42
0.0
10
83.2434997558594
20
76.9835968017578
40
0.0
41
0.0
42
0.0
10
83.3436965942383
20
77.4204025268555
40
0.0
41
0.0
42
0.0
10
83.3637008666992
20
77.4853973388672
40
0.0
41
0.0
42
0.0
10
83.4646987915039
20
77.9204025268555
40
0.0
41
0.0
42
0.0
10
83.4841995239258
20
77.9852981567383
40
0.0
41
0.0
42
0.0
10
83.4963989257812
20
78.0406036376953
40
0.0
41
0.0
42
0.0
10
83.5740966796875
20
78.4826965332031
40
0.0
41
0.0
42
0.0
10
83.6183013916016
20
78.9809036254883
40
0.0
41
0.0
42
0.0
10
83.6182022094727
20
79.0193023681641
40
0.0
41
0.0
42
0.0
10
83.5927963256836
20
79.4539031982422
40
0.0
41
0.0
42
0.0
10
83.5903015136719
20
79.5164031982422
40
0.0
41
0.0
42
0.0
10
83.5052032470703
20
79.7974014282227
40
0.0
41
0.0
42
0.0
10
83.4888000488281
20
79.8627014160156
40
0.0
41
0.0
42
0.0
10
83.440299987793
20
80.0099029541016
40
0.0
41
0.0
42
0.0
10
83.1262969970703
20
80.4147033691406
40
0.0
41
0.0
42
0.0
10
83.071403503418
20
80.5054016113281
40
0.0
41
0.0
42
0.0
10
83.0306015014648
20
80.5350036621094
40
0.0
41
0.0
42
0.0
10
83.0070037841797
20
80.5570983886719
40
0.0
41
0.0
42
0.0
10
82.6131973266602
20
80.8024978637695
40
0.0
41
0.0
42
0.0
10
82.5090026855469
20
80.8768005371094
40
0.0
41
0.0
42
0.0
10
82.4961013793945
20
80.88330078125
40
0.0
41
0.0
42
0.0
10
82.2323989868164
20
81.0003967285156
40
0.0
41
0.0
42
0.0
10
82.1023025512695
20
81.0496978759766
40
0.0
41
0.0
42
0.0
10
82.0127029418945
20
81.08740234375
40
0.0
41
0.0
42
0.0
10
81.618896484375
20
81.209602355957
40
0.0
41
0.0
42
0.0
10
81.5143966674805
20
81.2396011352539
40
0.0
41
0.0
42
0.0
10
81.1203002929688
20
81.3404006958008
40
0.0
41
0.0
42
0.0
10
81.0151977539062
20
81.3610000610352
40
0.0
41
0.0
42
0.0
10
80.6206970214844
20
81.4682998657227
40
0.0
41
0.0
42
0.0
10
80.5055999755859
20
81.4845962524414
40
0.0
41
0.0
42
0.0
10
80.459098815918
20
81.5002975463867
40
0.0
41
0.0
42
0.0
10
80.0730972290039
20
81.6670989990234
40
0.0
41
0.0
42
0.0
10
80.0128021240234
20
81.6766967773438
40
0.0
41
0.0
42
0.0
10
79.9406967163086
20
81.7184982299805
40
0.0
41
0.0
42
0.0
10
79.9140014648438
20
81.7537002563477
40
0.0
41
0.0
42
0.0
10
79.6337966918945
20
82.004997253418
40
0.0
41
0.0
42
0.0
10
79.5050964355469
20
82.1457977294922
40
0.0
41
0.0
42
0.0
10
79.4941024780273
20
82.1557006835938
40
0.0
41
0.0
42
0.0
10
79.3116989135742
20
82.4441986083984
40
0.0
41
0.0
42
0.0
10
79.2753982543945
20
82.5090026855469
40
0.0
41
0.0
42
0.0
10
79.0213012695312
20
82.9013977050781
40
0.0
41
0.0
42
0.0
10
79.0016021728516
20
82.9330978393555
40
0.0
41
0.0
42
0.0
10
78.9841995239258
20
82.9675979614258
40
0.0
41
0.0
42
0.0
10
78.9599990844727
20
83.0084991455078
40
0.0
41
0.0
42
0.0
10
78.6573028564453
20
83.4430999755859
40
0.0
41
0.0
42
0.0
10
78.6147994995117
20
83.5078964233398
40
0.0
41
0.0
42
0.0
10
78.5036010742188
20
83.6575012207031
40
0.0
41
0.0
42
0.0
10
78.4526977539062
20
83.7147979736328
40
0.0
41
0.0
42
0.0
10
78.0067977905273
20
84.1815032958984
40
0.0
41
0.0
42
0.0
10
77.5736999511719
20
84.4329986572266
40
0.0
41
0.0
42
0.0
10
77.5105972290039
20
84.4761962890625
40
0.0
41
0.0
42
0.0
10
77.4943008422852
20
84.4814987182617
40
0.0
41
0.0
42
0.0
10
77.4059982299805
20
84.4999008178711
40
0.0
41
0.0
42
0.0
10
77.0751037597656
20
84.5818023681641
40
0.0
41
0.0
42
0.0
10
77.0164031982422
20
84.6022033691406
40
0.0
41
0.0
42
0.0
10
76.9811019897461
20
84.6020965576172
40
0.0
41
0.0
42
0.0
10
76.5877990722656
20
84.5577011108398
40
0.0
41
0.0
42
0.0
10
76.4838027954102
20
84.5579986572266
40
0.0
41
0.0
42
0.0
10
76.3975982666016
20
84.5253982543945
40
0.0
41
0.0
42
0.0
10
76.2918014526367
20
84.4985961914062
40
0.0
41
0.0
42
0.0
10
75.9872970581055
20
84.410400390625
40
0.0
41
0.0
42
0.0
10
75.5934982299805
20
84.2296981811523
40
0.0
41
0.0
42
0.0
10
75.4893035888672
20
84.1850967407227
40
0.0
41
0.0
42
0.0
10
75.1636962890625
20
84.0018005371094
40
0.0
41
0.0
42
0.0
10
74.5966033935547
20
83.6639022827148
40
0.0
41
0.0
42
0.0
10
74.4906005859375
20
83.5850982666016
40
0.0
41
0.0
42
0.0
10
74.3578033447266
20
83.5266036987305
40
0.0
41
0.0
42
0.0
10
74.3184967041016
20
83.5030975341797
40
0.0
41
0.0
42
0.0
10
74.2752990722656
20
83.4625015258789
40
0.0
41
0.0
42
0.0
10
73.9872970581055
20
83.3003005981445
40
0.0
41
0.0
42
0.0
10
73.5505981445312
20
83.2148971557617
40
0.0
41
0.0
42
0.0
10
73.4914016723633
20
83.1934967041016
40
0.0
41
0.0
42
0.0
10
73.0826034545898
20
83.2352981567383
40
0.0
41
0.0
42
0.0
10
73.0162963867188
20
83.2434997558594
40
0.0
41
0.0
42
0.0
10
72.5794982910156
20
83.3436965942383
40
0.0
41
0.0
42
0.0
10
72.5145034790039
20
83.3637008666992
40
0.0
41
0.0
42
0.0
10
72.0794982910156
20
83.4646987915039
40
0.0
41
0.0
42
0.0
10
72.0146026611328
20
83.4841995239258
40
0.0
41
0.0
42
0.0
10
71.9591979980469
20
83.4963989257812
40
0.0
41
0.0
42
0.0
10
71.5171966552734
20
83.5740966796875
40
0.0
41
0.0
42
0.0
10
71.0189971923828
20
83.6183013916016
40
0.0
41
0.0
42
0.0
10
70.980598449707
20
83.6182022094727
40
0.0
41
0.0
42
0.0
10
70.5459976196289
20
83.5927963256836
40
0.0
41
0.0
42
0.0
10
70.4834976196289
20
83.5903015136719
40
0.0
41
0.0
42
0.0
10
70.2024002075195
20
83.5052032470703
40
0.0
41
0.0
42
0.0
10
70.1371002197266
20
83.4888000488281
40
0.0
41
0.0
42
0.0
10
69.9898986816406
20
83.4403991699219
40
0.0
41
0.0
42
0.0
10
69.5851974487305
20
83.1262969970703
40
0.0
41
0.0
42
0.0
10
69.4944000244141
20
83.071403503418
40
0.0
41
0.0
42
0.0
10
69.4646987915039
20
83.0307006835938
40
0.0
41
0.0
42
0.0
10
69.4421005249023
20
83.0065994262695
40
0.0
41
0.0
42
0.0
10
69.3685989379883
20
82.9032974243164
40
0.0
41
0.0
42
0.0
10
69.1231994628906
20
82.5095977783203
40
0.0
41
0.0
42
0.0
10
69.1164016723633
20
82.4962005615234
40
0.0
41
0.0
42
0.0
10
68.999397277832
20
82.2324981689453
40
0.0
41
0.0
42
0.0
10
68.9499969482422
20
82.1024017333984
40
0.0
41
0.0
42
0.0
10
68.9123001098633
20
82.0130004882812
40
0.0
41
0.0
42
0.0
10
68.8824005126953
20
81.9088973999023
40
0.0
41
0.0
42
0.0
10
68.7602005004883
20
81.5148010253906
40
0.0
41
0.0
42
0.0
10
68.7397003173828
20
81.4103012084961
40
0.0
41
0.0
42
0.0
10
68.638801574707
20
81.0158996582031
40
0.0
41
0.0
42
0.0
10
68.6237030029297
20
80.9106979370117
40
0.0
41
0.0
42
0.0
10
68.5165023803711
20
80.5158996582031
40
0.0
41
0.0
42
0.0
10
68.5151977539062
20
80.5056991577148
40
0.0
41
0.0
42
0.0
10
68.4994964599609
20
80.459098815918
40
0.0
41
0.0
42
0.0
10
68.3326034545898
20
80.0731964111328
40
0.0
41
0.0
42
0.0
10
68.3230972290039
20
80.0128021240234
40
0.0
41
0.0
42
0.0
10
68.2811965942383
20
79.9406967163086
40
0.0
41
0.0
42
0.0
10
68.2461013793945
20
79.9140014648438
40
0.0
41
0.0
42
0.0
10
67.9949035644531
20
79.6337966918945
40
0.0
41
0.0
42
0.0
10
67.8539962768555
20
79.5050964355469
40
0.0
41
0.0
42
0.0
10
67.8441009521484
20
79.4942016601562
40
0.0
41
0.0
42
0.0
10
67.5557022094727
20
79.3117980957031
40
0.0
41
0.0
42
0.0
10
67.4907989501953
20
79.2753982543945
40
0.0
41
0.0
42
0.0
10
67.0983963012695
20
79.0213012695312
40
0.0
41
0.0
42
0.0
10
67.0667037963867
20
79.0016021728516
40
0.0
41
0.0
42
0.0
10
67.0322036743164
20
78.9841995239258
40
0.0
41
0.0
42
0.0
10
66.9913024902344
20
78.9599990844727
40
0.0
41
0.0
42
0.0
10
66.5567016601562
20
78.6573028564453
40
0.0
41
0.0
42
0.0
10
66.4919967651367
20
78.6147994995117
40
0.0
41
0.0
42
0.0
10
66.3422012329102
20
78.5036010742188
40
0.0
41
0.0
42
0.0
10
66.2850036621094
20
78.4527969360352
40
0.0
41
0.0
42
0.0
10
65.8175964355469
20
78.0063018798828
40
0.0
41
0.0
42
0.0
10
65.7748031616211
20
77.9437026977539
40
0.0
41
0.0
42
0.0
10
65.5238037109375
20
77.5113983154297
40
0.0
41
0.0
42
0.0
10
65.5180969238281
20
77.493896484375
40
0.0
41
0.0
42
0.0
10
65.5003967285156
20
77.408203125
40
0.0
41
0.0
42
0.0
10
65.4179000854492
20
77.0751037597656
40
0.0
41
0.0
42
0.0
10
65.3974990844727
20
77.0164031982422
40
0.0
41
0.0
42
0.0
10
65.3973999023438
20
76.9835968017578
40
0.0
41
0.0
42
0.0
210
0.0
220
0.0
230
1.0
0
LWPOLYLINE
5
24
330
1C
100
AcDbEntity
67
0
8
0
62
256
6
ByLayer
370
-1
48
1.0
60
0
100
AcDbPolyline
90
146
70
1
38
0.0
39
0.0
10
73.0158996582031
20
65.3973999023438
40
0.0
41
0.0
42
0.0
10
72.9418029785156
20
65.4214019775391
40
0.0
41
0.0
42
0.0
10
72.6267013549805
20
65.499397277832
40
0.0
41
0.0
42
0.0
10
72.5472030639648
20
65.515998840332
40
0.0
41
0.0
42
0.0
10
72.5112991333008
20
65.5274963378906
40
0.0
41
0.0
42
0.0
10
72.1137008666992
20
65.7583999633789
40
0.0
41
0.0
42
0.0
10
72.0062026977539
20
65.8318023681641
40
0.0
41
0.0
42
0.0
10
71.5876998901367
20
66.2697982788086
40
0.0
41
0.0
42
0.0
10
71.5036010742188
20
66.3647003173828
40
0.0
41
0.0
42
0.0
10
71.3973007202148
20
66.5075988769531
40
0.0
41
0.0
42
0.0
10
71.1219024658203
20
66.9030990600586
40
0.0
41
0.0
42
0.0
10
71.0524978637695
20
67.0087966918945
40
0.0
41
0.0
42
0.0
10
71.029296875
20
67.0481033325195
40
0.0
41
0.0
42
0.0
10
71.0016021728516
20
67.1029968261719
40
0.0
41
0.0
42
0.0
10
70.7399978637695
20
67.5091018676758
40
0.0
41
0.0
42
0.0
10
70.6810989379883
20
67.6141967773438
40
0.0
41
0.0
42
0.0
10
70.5188980102539
20
67.8704986572266
40
0.0
41
0.0
42
0.0
10
70.504997253418
20
67.8833999633789
40
0.0
41
0.0
42
0.0
10
70.393798828125
20
68.0048980712891
40
0.0
41
0.0
42
0.0
10
70.1502990722656
20
68.2231979370117
40
0.0
41
0.0
42
0.0
10
70.1107025146484
20
68.2754974365234
40
0.0
41
0.0
42
0.0
10
70.0128021240234
20
68.3323974609375
40
0.0
41
0.0
42
0.0
10
69.9197006225586
20
68.3471984863281
40
0.0
41
0.0
42
0.0
10
69.5663986206055
20
68.5001983642578
40
0.0
41
0.0
42
0.0
10
69.5196990966797
20
68.515998840332
40
0.0
41
0.0
42
0.0
10
69.0807037353516
20
68.6344985961914
40
0.0
41
0.0
42
0.0
10
69.0158004760742
20
68.6436996459961
40
0.0
41
0.0
42
0.0
10
68.5802993774414
20
68.7552032470703
40
0.0
41
0.0
42
0.0
10
68.5148010253906
20
68.7679977416992
40
0.0
41
0.0
42
0.0
10
68.0789031982422
20
68.9031982421875
40
0.0
41
0.0
42
0.0
10
68.0129013061523
20
68.9222030639648
40
0.0
41
0.0
42
0.0
10
67.9561996459961
20
68.9459991455078
40
0.0
41
0.0
42
0.0
10
67.8125
20
69.0005035400391
40
0.0
41
0.0
42
0.0
10
67.5192031860352
20
69.1306991577148
40
0.0
41
0.0
42
0.0
10
67.0733032226562
20
69.4075012207031
40
0.0
41
0.0
42
0.0
10
67.0065994262695
20
69.4550018310547
40
0.0
41
0.0
42
0.0
10
66.9915008544922
20
69.4691009521484
40
0.0
41
0.0
42
0.0
10
66.9427032470703
20
69.5046997070312
40
0.0
41
0.0
42
0.0
10
66.611701965332
20
69.9312973022461
40
0.0
41
0.0
42
0.0
10
66.5634002685547
20
70.011100769043
40
0.0
41
0.0
42
0.0
10
66.5168991088867
20
70.1520004272461
40
0.0
41
0.0
42
0.0
10
66.4906005859375
20
70.2573013305664
40
0.0
41
0.0
42
0.0
10
66.4122009277344
20
70.5161972045898
40
0.0
41
0.0
42
0.0
10
66.3889999389648
20
70.9139022827148
40
0.0
41
0.0
42
0.0
10
66.3856964111328
20
70.9929962158203
40
0.0
41
0.0
42
0.0
10
66.4189987182617
20
71.3768997192383
40
0.0
41
0.0
42
0.0
10
66.4297027587891
20
71.4828033447266
40
0.0
41
0.0
42
0.0
10
66.5018997192383
20
71.8924026489258
40
0.0
41
0.0
42
0.0
10
66.5220031738281
20
71.9845962524414
40
0.0
41
0.0
42
0.0
10
66.613899230957
20
72.3804016113281
40
0.0
41
0.0
42
0.0
10
66.6455001831055
20
72.4852981567383
40
0.0
41
0.0
42
0.0
10
66.736198425293
20
72.8804016113281
40
0.0
41
0.0
42
0.0
10
66.7682037353516
20
72.9841003417969
40
0.0
41
0.0
42
0.0
10
66.8084030151367
20
73.3772964477539
40
0.0
41
0.0
42
0.0
10
66.8212966918945
20
73.481201171875
40
0.0
41
0.0
42
0.0
10
66.8210983276367
20
73.5178985595703
40
0.0
41
0.0
42
0.0
10
66.7445983886719
20
73.9093017578125
40
0.0
41
0.0
42
0.0
10
66.7077026367188
20
74.011100769043
40
0.0
41
0.0
42
0.0
10
66.5615005493164
20
74.2711029052734
40
0.0
41
0.0
42
0.0
10
66.5408020019531
20
74.2957992553711
40
0.0
41
0.0
42
0.0
10
66.5030975341797
20
74.3358001708984
40
0.0
41
0.0
42
0.0
10
66.4853973388672
20
74.3649978637695
40
0.0
41
0.0
42
0.0
10
66.4214019775391
20
74.5102996826172
40
0.0
41
0.0
42
0.0
10
66.1645965576172
20
74.9432983398438
40
0.0
41
0.0
42
0.0
10
66.1163024902344
20
75.0082015991211
40
0.0
41
0.0
42
0.0
10
66.0017013549805
20
75.1990966796875
40
0.0
41
0.0
42
0.0
10
65.8268966674805
20
75.5103988647461
40
0.0
41
0.0
42
0.0
10
65.6268005371094
20
75.946403503418
40
0.0
41
0.0
42
0.0
10
65.5983963012695
20
76.0129013061523
40
0.0
41
0.0
42
0.0
10
65.5001983642578
20
76.3516998291016
40
0.0
41
0.0
42
0.0
10
65.4839019775391
20
76.4160003662109
40
0.0
41
0.0
42
0.0
10
65.4465026855469
20
76.5149993896484
40
0.0
41
0.0
42
0.0
10
65.3973007202148
20
76.9502029418945
40
0.0
41
0.0
42
0.0
10
65.397102355957
20
76.8760986328125
40
0.0
41
0.0
42
0.0
10
65.4412994384766
20
76.4849014282227
40
0.0
41
0.0
42
0.0
10
65.4742965698242
20
76.3974990844727
40
0.0
41
0.0
42
0.0
10
65.5010986328125
20
76.2917022705078
40
0.0
41
0.0
42
0.0
10
65.5894012451172
20
75.9869995117188
40
0.0
41
0.0
42
0.0
10
65.6336975097656
20
75.8833999633789
40
0.0
41
0.0
42
0.0
10
65.8144989013672
20
75.489501953125
40
0.0
41
0.0
42
0.0
10
65.9980010986328
20
75.1636962890625
40
0.0
41
0.0
42
0.0
10
66.1015014648438
20
74.9916000366211
40
0.0
41
0.0
42
0.0
10
66.1794967651367
20
74.8865966796875
40
0.0
41
0.0
42
0.0
10
66.4150009155273
20
74.4896011352539
40
0.0
41
0.0
42
0.0
10
66.4729995727539
20
74.3578033447266
40
0.0
41
0.0
42
0.0
10
66.496696472168
20
74.3184967041016
40
0.0
41
0.0
42
0.0
10
66.5373992919922
20
74.2751998901367
40
0.0
41
0.0
42
0.0
10
66.698600769043
20
73.9887008666992
40
0.0
41
0.0
42
0.0
10
66.7231979370117
20
73.9206008911133
40
0.0
41
0.0
42
0.0
10
66.8061981201172
20
73.4962997436523
40
0.0
41
0.0
42
0.0
10
66.7562026977539
20
73.0158004760742
40
0.0
41
0.0
42
0.0
10
66.7359008789062
20
72.9495010375977
40
0.0
41
0.0
42
0.0
10
66.636100769043
20
72.5146026611328
40
0.0
41
0.0
42
0.0
10
66.6164016723633
20
72.4496002197266
40
0.0
41
0.0
42
0.0
10
66.5157012939453
20
72.0152969360352
40
0.0
41
0.0
42
0.0
10
66.503303527832
20
71.9591979980469
40
0.0
41
0.0
42
0.0
10
66.4255981445312
20
71.5171966552734
40
0.0
41
0.0
42
0.0
10
66.3815002441406
20
71.0193023681641
40
0.0
41
0.0
42
0.0
10
66.3841018676758
20
70.9158020019531
40
0.0
41
0.0
42
0.0
10
66.4094009399414
20
70.4835968017578
40
0.0
41
0.0
42
0.0
10
66.494499206543
20
70.2024002075195
40
0.0
41
0.0
42
0.0
10
66.5109024047852
20
70.1371002197266
40
0.0
41
0.0
42
0.0
10
66.5597991943359
20
69.9887008666992
40
0.0
41
0.0
42
0.0
10
66.5977020263672
20
69.9261016845703
40
0.0
41
0.0
42
0.0
10
66.6232986450195
20
69.8871002197266
40
0.0
41
0.0
42
0.0
10
66.9273986816406
20
69.4951019287109
40
0.0
41
0.0
42
0.0
10
66.9691009521484
20
69.4646987915039
40
0.0
41
0.0
42
0.0
10
66.9933013916016
20
69.4421005249023
40
0.0
41
0.0
42
0.0
10
67.0966033935547
20
69.3684997558594
40
0.0
41
0.0
42
0.0
10
67.4903030395508
20
69.1231994628906
40
0.0
41
0.0
42
0.0
10
67.5036010742188
20
69.1163024902344
40
0.0
41
0.0
42
0.0
10
67.7673034667969
20
68.9992980957031
40
0.0
41
0.0
42
0.0
10
67.8973999023438
20
68.9499969482422
40
0.0
41
0.0
42
0.0
10
67.9869003295898
20
68.9123001098633
40
0.0
41
0.0
42
0.0
10
68.0908966064453
20
68.8824005126953
40
0.0
41
0.0
42
0.0
10
68.4850997924805
20
68.7602005004883
40
0.0
41
0.0
42
0.0
10
68.589599609375
20
68.7397003173828
40
0.0
41
0.0
42
0.0
10
68.984001159668
20
68.638801574707
40
0.0
41
0.0
42
0.0
10
69.0892028808594
20
68.6237030029297
40
0.0
41
0.0
42
0.0
10
69.484001159668
20
68.5165023803711
40
0.0
41
0.0
42
0.0
10
69.4941024780273
20
68.5151977539062
40
0.0
41
0.0
42
0.0
10
69.5406036376953
20
68.4994964599609
40
0.0
41
0.0
42
0.0
10
69.9265975952148
20
68.3326034545898
40
0.0
41
0.0
42
0.0
10
69.9870986938477
20
68.322998046875
40
0.0
41
0.0
42
0.0
10
70.0590972900391
20
68.2810974121094
40
0.0
41
0.0
42
0.0
10
70.0857009887695
20
68.2460021972656
40
0.0
41
0.0
42
0.0
10
70.3658981323242
20
67.9949035644531
40
0.0
41
0.0
42
0.0
10
70.5059967041016
20
67.8432998657227
40
0.0
41
0.0
42
0.0
10
70.6878967285156
20
67.5557022094727
40
0.0
41
0.0
42
0.0
10
70.7244033813477
20
67.4907989501953
40
0.0
41
0.0
42
0.0
10
70.9785003662109
20
67.0983963012695
40
0.0
41
0.0
42
0.0
10
70.9981994628906
20
67.0665969848633
40
0.0
41
0.0
42
0.0
10
71.0155029296875
20
67.0322036743164
40
0.0
41
0.0
42
0.0
10
71.0398025512695
20
66.9909973144531
40
0.0
41
0.0
42
0.0
10
71.0820999145508
20
66.9266967773438
40
0.0
41
0.0
42
0.0
10
71.3846969604492
20
66.4922027587891
40
0.0
41
0.0
42
0.0
10
71.4962005615234
20
66.3422012329102
40
0.0
41
0.0
42
0.0
10
71.5469970703125
20
66.2848968505859
40
0.0
41
0.0
42
0.0
10
71.9935989379883
20
65.8175964355469
40
0.0
41
0.0
42
0.0
10
72.0560989379883
20
65.7748031616211
40
0.0
41
0.0
42
0.0
10
72.4885025024414
20
65.5236968994141
40
0.0
41
0.0
42
0.0
10
72.5058975219727
20
65.5180969238281
40
0.0
41
0.0
42
0.0
10
72.5915985107422
20
65.5002975463867
40
0.0
41
0.0
42
0.0
10
72.9246978759766
20
65.4178009033203
40
0.0
41
0.0
42
0.0
10
72.9834976196289
20
65.3974990844727
40
0.0
41
0.0
42
0.0
10
73.0158996582031
20
65.3973999023438
40
0.0
41
0.0
42
0.0
210
0.0
220
0.0
230
1.0
0
LWPOLYLINE
5
25
330
1C
100
AcDbEntity
67
0
8
0
62
256
6
ByLayer
370
-1
48
1.0
60
0
100
AcDbPolyline
90
34
70
1
38
0.0
39
0.0
10
65.8973999023438
20
84.7643966674805
40
0.0
41
0.0
42
0.0
10
65.9878997802734
20
84.684700012207
40
0.0
41
0.0
42
0.0
10
66.0720977783203
20
84.6843032836914
40
0.0
41
0.0
42
0.0
10
66.3240966796875
20
84.5682983398438
40
0.0
41
0.0
42
0.0
10
66.456298828125
20
84.5
40
0.0
41
0.0
42
0.0
10
66.4820022583008
20
84.4951019287109
40
0.0
41
0.0
42
0.0
10
66.5195999145508
20
84.495002746582
40
0.0
41
0.0
42
0.0
10
66.972297668457
20
84.5082015991211
40
0.0
41
0.0
42
0.0
10
67.450798034668
20
84.5804977416992
40
0.0
41
0.0
42
0.0
10
67.513801574707
20
84.5966033935547
40
0.0
41
0.0
42
0.0
10
67.5791015625
20
84.6202011108398
40
0.0
41
0.0
42
0.0
10
68.0145034790039
20
84.7146987915039
40
0.0
41
0.0
42
0.0
10
68.4465026855469
20
84.8536987304688
40
0.0
41
0.0
42
0.0
10
68.5099029541016
20
84.8890991210938
40
0.0
41
0.0
42
0.0
10
68.7044982910156
20
84.9925994873047
40
0.0
41
0.0
42
0.0
10
68.7044982910156
20
84.9990005493164
40
0.0
41
0.0
42
0.0
10
68.6278991699219
20
84.9989013671875
40
0.0
41
0.0
42
0.0
10
68.4899978637695
20
84.9254989624023
40
0.0
41
0.0
42
0.0
10
68.3833999633789
20
84.866096496582
40
0.0
41
0.0
42
0.0
10
67.9853973388672
20
84.7379989624023
40
0.0
41
0.0
42
0.0
10
67.5907974243164
20
84.6522979736328
40
0.0
41
0.0
42
0.0
10
67.4860992431641
20
84.6146011352539
40
0.0
41
0.0
42
0.0
10
67.3790969848633
20
84.5873031616211
40
0.0
41
0.0
42
0.0
10
66.9832992553711
20
84.5283966064453
40
0.0
41
0.0
42
0.0
10
66.8945007324219
20
84.5130004882812
40
0.0
41
0.0
42
0.0
10
66.5130996704102
20
84.5015029907227
40
0.0
41
0.0
42
0.0
10
66.1177978515625
20
84.6834030151367
40
0.0
41
0.0
42
0.0
10
66.0821990966797
20
84.6929016113281
40
0.0
41
0.0
42
0.0
10
66.0120010375977
20
84.693000793457
40
0.0
41
0.0
42
0.0
10
65.9410018920898
20
84.7554016113281
40
0.0
41
0.0
42
0.0
10
65.8271026611328
20
84.9990005493164
40
0.0
41
0.0
42
0.0
10
65.7944030761719
20
84.9990005493164
40
0.0
41
0.0
42
0.0
10
65.7942962646484
20
84.9845962524414
40
0.0
41
0.0
42
0.0
10
65.8973999023438
20
84.7643966674805
40
0.0
41
0.0
42
0.0
210
0.0
220
0.0
230
1.0
0
LWPOLYLINE
5
26
330
1C
100
AcDbEntity
67
0
8
0
62
256
6
ByLayer
370
-1
48
1.0
60
0
100
AcDbPolyline
90
279
70
1
38
0.0
39
0.0
10
69.3973999023438
20
73.4979019165039
40
0.0
41
0.0
42
0.0
10
69.4876022338867
20
73.4633026123047
40
0.0
41
0.0
42
0.0
10
69.8796005249023
20
73.3053970336914
40
0.0
41
0.0
42
0.0
10
69.980598449707
20
73.2993011474609
40
0.0
41
0.0
42
0.0
10
70.019401550293
20
73.299201965332
40
0.0
41
0.0
42
0.0
10
70.0941009521484
20
73.3033981323242
40
0.0
41
0.0
42
0.0
10
70.4826965332031
20
73.1994018554688
40
0.0
41
0.0
42
0.0
10
70.5186996459961
20
73.1995010375977
40
0.0
41
0.0
42
0.0
10
70.5734024047852
20
73.2058029174805
40
0.0
41
0.0
42
0.0
10
70.9820022583008
20
73.1262969970703
40
0.0
41
0.0
42
0.0
10
71.0186004638672
20
73.1261978149414
40
0.0
41
0.0
42
0.0
10
71.0604019165039
20
73.1315994262695
40
0.0
41
0.0
42
0.0
10
71.4852981567383
20
73.0326995849609
40
0.0
41
0.0
42
0.0
10
71.598503112793
20
72.9990997314453
40
0.0
41
0.0
42
0.0
10
71.5586013793945
20
72.9551010131836
40
0.0
41
0.0
42
0.0
10
71.5586013793945
20
72.9247970581055
40
0.0
41
0.0
42
0.0
10
71.6240005493164
20
72.5084991455078
40
0.0
41
0.0
42
0.0
10
71.5793991088867
20
72.4455032348633
40
0.0
41
0.0
42
0.0
10
71.5
20
72.1919021606445
40
0.0
41
0.0
42
0.0
10
71.4469985961914
20
72.0120010375977
40
0.0
41
0.0
42
0.0
10
71.4290008544922
20
71.9782028198242
40
0.0
41
0.0
42
0.0
10
71.4085998535156
20
71.946403503418
40
0.0
41
0.0
42
0.0
10
71.2922973632812
20
71.5127029418945
40
0.0
41
0.0
42
0.0
10
71.2611999511719
20
71.4468002319336
40
0.0
41
0.0
42
0.0
10
71.2472991943359
20
71.409797668457
40
0.0
41
0.0
42
0.0
10
71.1946029663086
20
71.0185012817383
40
0.0
41
0.0
42
0.0
10
71.1945037841797
20
70.9809036254883
40
0.0
41
0.0
42
0.0
10
71.2283020019531
20
70.6136016845703
40
0.0
41
0.0
42
0.0
10
71.2089996337891
20
70.5522003173828
40
0.0
41
0.0
42
0.0
10
71.1957015991211
20
70.5161972045898
40
0.0
41
0.0
42
0.0
10
71.1957015991211
20
70.4860000610352
40
0.0
41
0.0
42
0.0
10
71.3657989501953
20
70.2153015136719
40
0.0
41
0.0
42
0.0
10
71.4676971435547
20
70.0190963745117
40
0.0
41
0.0
42
0.0
10
71.4675979614258
20
69.9835968017578
40
0.0
41
0.0
42
0.0
10
71.4714965820312
20
69.9726028442383
40
0.0
41
0.0
42
0.0
10
71.4835968017578
20
69.9692001342773
40
0.0
41
0.0
42
0.0
10
71.9176025390625
20
69.9378967285156
40
0.0
41
0.0
42
0.0
10
71.9542999267578
20
69.9377975463867
40
0.0
41
0.0
42
0.0
10
72.0111999511719
20
69.9522018432617
40
0.0
41
0.0
42
0.0
10
72.0587997436523
20
69.9847030639648
40
0.0
41
0.0
42
0.0
10
72.0877990722656
20
69.9991989135742
40
0.0
41
0.0
42
0.0
10
72.5102005004883
20
70.1507034301758
40
0.0
41
0.0
42
0.0
10
72.5376968383789
20
70.1697998046875
40
0.0
41
0.0
42
0.0
10
72.9272003173828
20
70.3917007446289
40
0.0
41
0.0
42
0.0
10
73.0043029785156
20
70.4703979492188
40
0.0
41
0.0
42
0.0
10
73.0231018066406
20
70.4928970336914
40
0.0
41
0.0
42
0.0
10
73.0716018676758
20
70.559196472168
40
0.0
41
0.0
42
0.0
10
73.5094985961914
20
70.8710021972656
40
0.0
41
0.0
42
0.0
10
73.7902984619141
20
70.9971008300781
40
0.0
41
0.0
42
0.0
10
73.875602722168
20
71.100700378418
40
0.0
41
0.0
42
0.0
10
73.9989013671875
20
71.1859970092773
40
0.0
41
0.0
42
0.0
10
74.1076965332031
20
71.0830001831055
40
0.0
41
0.0
42
0.0
10
74.1956024169922
20
70.9941024780273
40
0.0
41
0.0
42
0.0
10
74.4980010986328
20
70.6344985961914
40
0.0
41
0.0
42
0.0
10
74.5329971313477
20
70.5511016845703
40
0.0
41
0.0
42
0.0
10
74.5463027954102
20
70.4844970703125
40
0.0
41
0.0
42
0.0
10
74.5615005493164
20
70.4225997924805
40
0.0
41
0.0
42
0.0
10
74.7975997924805
20
69.9906997680664
40
0.0
41
0.0
42
0.0
10
74.9763031005859
20
69.7172012329102
40
0.0
41
0.0
42
0.0
10
74.9994964599609
20
69.6464004516602
40
0.0
41
0.0
42
0.0
10
75.0052032470703
20
69.6330032348633
40
0.0
41
0.0
42
0.0
10
75.1436996459961
20
69.4925003051758
40
0.0
41
0.0
42
0.0
10
75.1995010375977
20
69.3873977661133
40
0.0
41
0.0
42
0.0
10
75.4533004760742
20
69.128303527832
40
0.0
41
0.0
42
0.0
10
75.4906997680664
20
69.0877990722656
40
0.0
41
0.0
42
0.0
10
75.7470016479492
20
69.0364990234375
40
0.0
41
0.0
42
0.0
10
75.8529968261719
20
68.999397277832
40
0.0
41
0.0
42
0.0
10
75.9847030639648
20
68.9359970092773
40
0.0
41
0.0
42
0.0
10
76.0130004882812
20
68.9358978271484
40
0.0
41
0.0
42
0.0
10
76.0930023193359
20
68.9959030151367
40
0.0
41
0.0
42
0.0
10
76.5018997192383
20
69.3973999023438
40
0.0
41
0.0
42
0.0
10
76.5363998413086
20
69.4876022338867
40
0.0
41
0.0
42
0.0
10
76.6942977905273
20
69.8796005249023
40
0.0
41
0.0
42
0.0
10
76.7006988525391
20
69.9832992553711
40
0.0
41
0.0
42
0.0
10
76.8062973022461
20
70.3777008056641
40
0.0
41
0.0
42
0.0
10
76.8061981201172
20
70.4143981933594
40
0.0
41
0.0
42
0.0
10
76.802001953125
20
70.4904022216797
40
0.0
41
0.0
42
0.0
10
76.877197265625
20
70.8779983520508
40
0.0
41
0.0
42
0.0
10
76.8806991577148
20
70.9123992919922
40
0.0
41
0.0
42
0.0
10
76.8808975219727
20
70.9537963867188
40
0.0
41
0.0
42
0.0
10
76.8681030273438
20
71.0605010986328
40
0.0
41
0.0
42
0.0
10
76.9670028686523
20
71.4853973388672
40
0.0
41
0.0
42
0.0
10
77.0009002685547
20
71.5986022949219
40
0.0
41
0.0
42
0.0
10
77.0447006225586
20
71.5586013793945
40
0.0
41
0.0
42
0.0
10
77.0749969482422
20
71.5586013793945
40
0.0
41
0.0
42
0.0
10
77.4913024902344
20
71.6240005493164
40
0.0
41
0.0
42
0.0
10
77.5543975830078
20
71.5792999267578
40
0.0
41
0.0
42
0.0
10
77.8078994750977
20
71.5
40
0.0
41
0.0
42
0.0
10
77.9878997802734
20
71.4468994140625
40
0.0
41
0.0
42
0.0
10
78.021598815918
20
71.4289016723633
40
0.0
41
0.0
42
0.0
10
78.0534973144531
20
71.4085998535156
40
0.0
41
0.0
42
0.0
10
78.4871978759766
20
71.2921981811523
40
0.0
41
0.0
42
0.0
10
78.5531005859375
20
71.261100769043
40
0.0
41
0.0
42
0.0
10
78.5901031494141
20
71.2472991943359
40
0.0
41
0.0
42
0.0
10
78.9813995361328
20
71.1946029663086
40
0.0
41
0.0
42
0.0
10
79.0189971923828
20
71.1945037841797
40
0.0
41
0.0
42
0.0
10
79.3861999511719
20
71.2283020019531
40
0.0
41
0.0
42
0.0
10
79.4476013183594
20
71.2089996337891
40
0.0
41
0.0
42
0.0
10
79.4837036132812
20
71.1957015991211
40
0.0
41
0.0
42
0.0
10
79.5139007568359
20
71.19580078125
40
0.0
41
0.0
42
0.0
10
79.7845001220703
20
71.3658981323242
40
0.0
41
0.0
42
0.0
10
79.9806976318359
20
71.4676971435547
40
0.0
41
0.0
42
0.0
10
80.0109024047852
20
71.4676971435547
40
0.0
41
0.0
42
0.0
10
80.0308990478516
20
71.488899230957
40
0.0
41
0.0
42
0.0
10
80.0619964599609
20
71.9176025390625
40
0.0
41
0.0
42
0.0
10
80.061897277832
20
71.9542007446289
40
0.0
41
0.0
42
0.0
10
80.0475006103516
20
72.011100769043
40
0.0
41
0.0
42
0.0
10
80.0149002075195
20
72.0587005615234
40
0.0
41
0.0
42
0.0
10
80.000602722168
20
72.0877990722656
40
0.0
41
0.0
42
0.0
10
79.8488006591797
20
72.511100769043
40
0.0
41
0.0
42
0.0
10
79.6539993286133
20
72.8531036376953
40
0.0
41
0.0
42
0.0
10
79.6379013061523
20
72.8723983764648
40
0.0
41
0.0
42
0.0
10
79.595703125
20
72.9397964477539
40
0.0
41
0.0
42
0.0
10
79.5294036865234
20
73.0043029785156
40
0.0
41
0.0
42
0.0
10
79.4106979370117
20
73.1031036376953
40
0.0
41
0.0
42
0.0
10
79.1286010742188
20
73.5094985961914
40
0.0
41
0.0
42
0.0
10
78.9984970092773
20
73.7983016967773
40
0.0
41
0.0
42
0.0
10
78.9394989013672
20
73.8432998657227
40
0.0
41
0.0
42
0.0
10
78.8408966064453
20
73.9856033325195
40
0.0
41
0.0
42
0.0
10
78.8159027099609
20
74.0010986328125
40
0.0
41
0.0
42
0.0
10
78.9167022705078
20
74.1075973510742
40
0.0
41
0.0
42
0.0
10
79.0057983398438
20
74.1957015991211
40
0.0
41
0.0
42
0.0
10
79.3653030395508
20
74.4981002807617
40
0.0
41
0.0
42
0.0
10
79.4487991333008
20
74.5330963134766
40
0.0
41
0.0
42
0.0
10
79.5154037475586
20
74.5464019775391
40
0.0
41
0.0
42
0.0
10
79.5773010253906
20
74.5615997314453
40
0.0
41
0.0
42
0.0
10
80.0092010498047
20
74.7975997924805
40
0.0
41
0.0
42
0.0
10
80.282600402832
20
74.9763031005859
40
0.0
41
0.0
42
0.0
10
80.3533020019531
20
74.9996032714844
40
0.0
41
0.0
42
0.0
10
80.3667984008789
20
75.0053024291992
40
0.0
41
0.0
42
0.0
10
80.5074005126953
20
75.1436996459961
40
0.0
41
0.0
42
0.0
10
80.6123962402344
20
75.1996002197266
40
0.0
41
0.0
42
0.0
10
80.8714981079102
20
75.4533996582031
40
0.0
41
0.0
42
0.0
10
80.9119033813477
20
75.4906997680664
40
0.0
41
0.0
42
0.0
10
80.9632034301758
20
75.7470016479492
40
0.0
41
0.0
42
0.0
10
81.0005035400391
20
75.8529968261719
40
0.0
41
0.0
42
0.0
10
81.0640029907227
20
75.9847030639648
40
0.0
41
0.0
42
0.0
10
81.0639038085938
20
76.0167007446289
40
0.0
41
0.0
42
0.0
10
81.0511016845703
20
76.056396484375
40
0.0
41
0.0
42
0.0
10
81.0059967041016
20
76.0908966064453
40
0.0
41
0.0
42
0.0
10
80.6023025512695
20
76.5018997192383
40
0.0
41
0.0
42
0.0
10
80.5122985839844
20
76.5363998413086
40
0.0
41
0.0
42
0.0
10
80.1202011108398
20
76.6942977905273
40
0.0
41
0.0
42
0.0
10
80.0165023803711
20
76.7006988525391
40
0.0
41
0.0
42
0.0
10
79.622200012207
20
76.8062973022461
40
0.0
41
0.0
42
0.0
10
79.5855026245117
20
76.8061981201172
40
0.0
41
0.0
42
0.0
10
79.5094985961914
20
76.8019027709961
40
0.0
41
0.0
42
0.0
10
79.1219024658203
20
76.877197265625
40
0.0
41
0.0
42
0.0
10
79.08740234375
20
76.8806991577148
40
0.0
41
0.0
42
0.0
10
79.0460968017578
20
76.8808975219727
40
0.0
41
0.0
42
0.0
10
78.9393997192383
20
76.8681030273438
40
0.0
41
0.0
42
0.0
10
78.5145034790039
20
76.9669036865234
40
0.0
41
0.0
42
0.0
10
78.4011001586914
20
77.0009002685547
40
0.0
41
0.0
42
0.0
10
78.4411010742188
20
77.0447998046875
40
0.0
41
0.0
42
0.0
10
78.4411010742188
20
77.0749969482422
40
0.0
41
0.0
42
0.0
10
78.3758010864258
20
77.4913024902344
40
0.0
41
0.0
42
0.0
10
78.4204025268555
20
77.5543975830078
40
0.0
41
0.0
42
0.0
10
78.4998016357422
20
77.8079986572266
40
0.0
41
0.0
42
0.0
10
78.5528030395508
20
77.9878997802734
40
0.0
41
0.0
42
0.0
10
78.57080078125
20
78.0216979980469
40
0.0
41
0.0
42
0.0
10
78.5911026000977
20
78.0534973144531
40
0.0
41
0.0
42
0.0
10
78.7064971923828
20
78.4841003417969
40
0.0
41
0.0
42
0.0
10
78.7618026733398
20
78.8924026489258
40
0.0
41
0.0
42
0.0
10
78.8052978515625
20
78.9845962524414
40
0.0
41
0.0
42
0.0
10
78.8051986694336
20
79.0189971923828
40
0.0
41
0.0
42
0.0
10
78.7714004516602
20
79.3861999511719
40
0.0
41
0.0
42
0.0
10
78.7907028198242
20
79.4477005004883
40
0.0
41
0.0
42
0.0
10
78.8040008544922
20
79.4837036132812
40
0.0
41
0.0
42
0.0
10
78.8039016723633
20
79.5139007568359
40
0.0
41
0.0
42
0.0
10
78.6337966918945
20
79.7845001220703
40
0.0
41
0.0
42
0.0
10
78.5322036743164
20
79.9806976318359
40
0.0
41
0.0
42
0.0
10
78.532096862793
20
80.0162963867188
40
0.0
41
0.0
42
0.0
10
78.5281982421875
20
80.027099609375
40
0.0
41
0.0
42
0.0
10
78.5161972045898
20
80.0305023193359
40
0.0
41
0.0
42
0.0
10
78.0821990966797
20
80.0619964599609
40
0.0
41
0.0
42
0.0
10
78.0456008911133
20
80.061897277832
40
0.0
41
0.0
42
0.0
10
77.9887008666992
20
80.0475997924805
40
0.0
41
0.0
42
0.0
10
77.9411010742188
20
80.0149002075195
40
0.0
41
0.0
42
0.0
10
77.9120025634766
20
80.000602722168
40
0.0
41
0.0
42
0.0
10
77.4888000488281
20
79.8488006591797
40
0.0
41
0.0
42
0.0
10
77.1455001831055
20
79.6532974243164
40
0.0
41
0.0
42
0.0
10
77.0728988647461
20
79.6083984375
40
0.0
41
0.0
42
0.0
10
76.9955978393555
20
79.5295028686523
40
0.0
41
0.0
42
0.0
10
76.8966979980469
20
79.4106979370117
40
0.0
41
0.0
42
0.0
10
76.4904022216797
20
79.1287002563477
40
0.0
41
0.0
42
0.0
10
76.2015991210938
20
78.9984970092773
40
0.0
41
0.0
42
0.0
10
76.1564025878906
20
78.9395980834961
40
0.0
41
0.0
42
0.0
10
76.0141983032227
20
78.8411026000977
40
0.0
41
0.0
42
0.0
10
75.9990005493164
20
78.8156967163086
40
0.0
41
0.0
42
0.0
10
75.8920974731445
20
78.9167022705078
40
0.0
41
0.0
42
0.0
10
75.8041000366211
20
79.0056991577148
40
0.0
41
0.0
42
0.0
10
75.5018005371094
20
79.3651962280273
40
0.0
41
0.0
42
0.0
10
75.4666976928711
20
79.4486999511719
40
0.0
41
0.0
42
0.0
10
75.4537963867188
20
79.5127029418945
40
0.0
41
0.0
42
0.0
10
75.2164001464844
20
79.9473037719727
40
0.0
41
0.0
42
0.0
10
75.2005996704102
20
80.0113983154297
40
0.0
41
0.0
42
0.0
10
75.0233993530273
20
80.282600402832
40
0.0
41
0.0
42
0.0
10
75.0001983642578
20
80.3533020019531
40
0.0
41
0.0
42
0.0
10
74.994499206543
20
80.36669921875
40
0.0
41
0.0
42
0.0
10
74.8560028076172
20
80.5074005126953
40
0.0
41
0.0
42
0.0
10
74.8002014160156
20
80.6123962402344
40
0.0
41
0.0
42
0.0
10
74.5464019775391
20
80.8713989257812
40
0.0
41
0.0
42
0.0
10
74.5091018676758
20
80.9119033813477
40
0.0
41
0.0
42
0.0
10
74.252799987793
20
80.9632034301758
40
0.0
41
0.0
42
0.0
10
74.1466979980469
20
81.0003967285156
40
0.0
41
0.0
42
0.0
10
74.0151977539062
20
81.0640029907227
40
0.0
41
0.0
42
0.0
10
73.9869003295898
20
81.0639038085938
40
0.0
41
0.0
42
0.0
10
73.9068984985352
20
81.0039978027344
40
0.0
41
0.0
42
0.0
10
73.4979019165039
20
80.6024017333984
40
0.0
41
0.0
42
0.0
10
73.4633026123047
20
80.5122985839844
40
0.0
41
0.0
42
0.0
10
73.3053970336914
20
80.1203002929688
40
0.0
41
0.0
42
0.0
10
73.2993011474609
20
80.0193023681641
40
0.0
41
0.0
42
0.0
10
73.299201965332
20
79.9804992675781
40
0.0
41
0.0
42
0.0
10
73.3033981323242
20
79.9057998657227
40
0.0
41
0.0
42
0.0
10
73.1994018554688
20
79.5171966552734
40
0.0
41
0.0
42
0.0
10
73.1995010375977
20
79.481201171875
40
0.0
41
0.0
42
0.0
10
73.2058029174805
20
79.4264984130859
40
0.0
41
0.0
42
0.0
10
73.1262969970703
20
79.0178985595703
40
0.0
41
0.0
42
0.0
10
73.1261978149414
20
78.9813003540039
40
0.0
41
0.0
42
0.0
10
73.1315994262695
20
78.9394989013672
40
0.0
41
0.0
42
0.0
10
73.0326995849609
20
78.5146026611328
40
0.0
41
0.0
42
0.0
10
72.99169921875
20
78.3759994506836
40
0.0
41
0.0
42
0.0
10
72.9214019775391
20
78.4346008300781
40
0.0
41
0.0
42
0.0
10
72.8905029296875
20
78.4345016479492
40
0.0
41
0.0
42
0.0
10
72.5075988769531
20
78.3762969970703
40
0.0
41
0.0
42
0.0
10
72.4455032348633
20
78.4203033447266
40
0.0
41
0.0
42
0.0
10
72.1918029785156
20
78.4998016357422
40
0.0
41
0.0
42
0.0
10
72.0119018554688
20
78.5526962280273
40
0.0
41
0.0
42
0.0
10
71.9781036376953
20
78.57080078125
40
0.0
41
0.0
42
0.0
10
71.946403503418
20
78.5911026000977
40
0.0
41
0.0
42
0.0
10
71.5149002075195
20
78.7067031860352
40
0.0
41
0.0
42
0.0
10
71.1074981689453
20
78.7617034912109
40
0.0
41
0.0
42
0.0
10
71.0152969360352
20
78.8052978515625
40
0.0
41
0.0
42
0.0
10
70.9809036254883
20
78.8051986694336
40
0.0
41
0.0
42
0.0
10
70.6136016845703
20
78.7714004516602
40
0.0
41
0.0
42
0.0
10
70.5521011352539
20
78.7907028198242
40
0.0
41
0.0
42
0.0
10
70.5161972045898
20
78.8040008544922
40
0.0
41
0.0
42
0.0
10
70.4860000610352
20
78.8040008544922
40
0.0
41
0.0
42
0.0
10
70.2153015136719
20
78.633903503418
40
0.0
41
0.0
42
0.0
10
70.0190963745117
20
78.5322036743164
40
0.0
41
0.0
42
0.0
10
69.9889984130859
20
78.532096862793
40
0.0
41
0.0
42
0.0
10
69.9688034057617
20
78.5110015869141
40
0.0
41
0.0
42
0.0
10
69.9378967285156
20
78.0821990966797
40
0.0
41
0.0
42
0.0
10
69.9377975463867
20
78.0456008911133
40
0.0
41
0.0
42
0.0
10
69.9521026611328
20
77.9887008666992
40
0.0
41
0.0
42
0.0
10
69.9847030639648
20
77.9411010742188
40
0.0
41
0.0
42
0.0
10
69.9991989135742
20
77.9120025634766
40
0.0
41
0.0
42
0.0
10
70.1505966186523
20
77.4896011352539
40
0.0
41
0.0
42
0.0
10
70.1697998046875
20
77.4619979858398
40
0.0
41
0.0
42
0.0
10
70.3917007446289
20
77.0726013183594
40
0.0
41
0.0
42
0.0
10
70.4702987670898
20
76.9954986572266
40
0.0
41
0.0
42
0.0
10
70.4928970336914
20
76.9766998291016
40
0.0
41
0.0
42
0.0
10
70.559196472168
20
76.9281005859375
40
0.0
41
0.0
42
0.0
10
70.8648986816406
20
76.4972991943359
40
0.0
41
0.0
42
0.0
10
70.8701019287109
20
76.4924011230469
40
0.0
41
0.0
42
0.0
10
70.9971008300781
20
76.2093963623047
40
0.0
41
0.0
42
0.0
10
71.100700378418
20
76.1241989135742
40
0.0
41
0.0
42
0.0
10
71.1860961914062
20
76.0009994506836
40
0.0
41
0.0
42
0.0
10
71.0830993652344
20
75.8920974731445
40
0.0
41
0.0
42
0.0
10
70.9941024780273
20
75.8041000366211
40
0.0
41
0.0
42
0.0
10
70.6344985961914
20
75.5018005371094
40
0.0
41
0.0
42
0.0
10
70.5512008666992
20
75.4666976928711
40
0.0
41
0.0
42
0.0
10
70.4871978759766
20
75.4539031982422
40
0.0
41
0.0
42
0.0
10
70.0525970458984
20
75.2164001464844
40
0.0
41
0.0
42
0.0
10
69.9884033203125
20
75.2005996704102
40
0.0
41
0.0
42
0.0
10
69.7172012329102
20
75.0233993530273
40
0.0
41
0.0
42
0.0
10
69.6464996337891
20
75.0001983642578
40
0.0
41
0.0
42
0.0
10
69.6330032348633
20
74.9945983886719
40
0.0
41
0.0
42
0.0
10
69.4925003051758
20
74.8560028076172
40
0.0
41
0.0
42
0.0
10
69.3874969482422
20
74.8002014160156
40
0.0
41
0.0
42
0.0
10
69.128303527832
20
74.5464019775391
40
0.0
41
0.0
42
0.0
10
69.0877990722656
20
74.5092010498047
40
0.0
41
0.0
42
0.0
10
69.0365982055664
20
74.252799987793
40
0.0
41
0.0
42
0.0
10
68.999397277832
20
74.1467971801758
40
0.0
41
0.0
42
0.0
10
68.9359970092773
20
74.0151977539062
40
0.0
41
0.0
42
0.0
10
68.9358978271484
20
73.9832000732422
40
0.0
41
0.0
42
0.0
10
68.948600769043
20
73.9432983398438
40
0.0
41
0.0
42
0.0
10
68.9937973022461
20
73.9088973999023
40
0.0
41
0.0
42
0.0
10
69.3973999023438
20
73.4979019165039
40
0.0
41
0.0
42
0.0
210
0.0
220
0.0
230
1.0
0
LWPOLYLINE
5
27
330
1C
100
AcDbEntity
67
0
8
0
62
256
6
ByLayer
370
-1
48
1.0
60
0
100
AcDbPolyline
90
247
70
1
38
0.0
39
0.0
10
69.0025024414062
20
74.002197265625
40
0.0
41
0.0
42
0.0
10
69.0485000610352
20
74.1330032348633
40
0.0
41
0.0
42
0.0
10
69.1202011108398
20
74.4907989501953
40
0.0
41
0.0
42
0.0
10
69.1529998779297
20
74.5210037231445
40
0.0
41
0.0
42
0.0
10
69.4423980712891
20
74.8044967651367
40
0.0
41
0.0
42
0.0
10
69.5074005126953
20
74.838996887207
40
0.0
41
0.0
42
0.0
10
69.6641006469727
20
74.9934997558594
40
0.0
41
0.0
42
0.0
10
69.7329025268555
20
75.0171966552734
40
0.0
41
0.0
42
0.0
10
69.7563018798828
20
75.027099609375
40
0.0
41
0.0
42
0.0
10
70.0114974975586
20
75.1937026977539
40
0.0
41
0.0
42
0.0
10
70.117301940918
20
75.2198028564453
40
0.0
41
0.0
42
0.0
10
70.5127029418945
20
75.4357986450195
40
0.0
41
0.0
42
0.0
10
70.6187973022461
20
75.4570999145508
40
0.0
41
0.0
42
0.0
10
70.7164993286133
20
75.4981002807617
40
0.0
41
0.0
42
0.0
10
71.0057983398438
20
75.7413024902344
40
0.0
41
0.0
42
0.0
10
71.0772018432617
20
75.8117980957031
40
0.0
41
0.0
42
0.0
10
71.2442016601562
20
75.9882965087891
40
0.0
41
0.0
42
0.0
10
71.2441024780273
20
76.0133972167969
40
0.0
41
0.0
42
0.0
10
71.174201965332
20
76.1140975952148
40
0.0
41
0.0
42
0.0
10
71.002799987793
20
76.2550964355469
40
0.0
41
0.0
42
0.0
10
70.8896026611328
20
76.5074005126953
40
0.0
41
0.0
42
0.0
10
70.8851013183594
20
76.5115966796875
40
0.0
41
0.0
42
0.0
10
70.5961990356445
20
76.918701171875
40
0.0
41
0.0
42
0.0
10
70.5572967529297
20
76.9553985595703
40
0.0
41
0.0
42
0.0
10
70.4929962158203
20
77.0039978027344
40
0.0
41
0.0
42
0.0
10
70.438102722168
20
77.0581970214844
40
0.0
41
0.0
42
0.0
10
70.1915969848633
20
77.4906005859375
40
0.0
41
0.0
42
0.0
10
70.1781005859375
20
77.5102996826172
40
0.0
41
0.0
42
0.0
10
70.0009002685547
20
78.0047988891602
40
0.0
41
0.0
42
0.0
10
69.9959030151367
20
78.0129013061523
40
0.0
41
0.0
42
0.0
10
69.9990005493164
20
78.0547027587891
40
0.0
41
0.0
42
0.0
10
70.0112991333008
20
78.3651962280273
40
0.0
41
0.0
42
0.0
10
70.0301971435547
20
78.4935989379883
40
0.0
41
0.0
42
0.0
10
70.1967010498047
20
78.5799026489258
40
0.0
41
0.0
42
0.0
10
70.502197265625
20
78.7718963623047
40
0.0
41
0.0
42
0.0
10
70.5482025146484
20
78.7575988769531
40
0.0
41
0.0
42
0.0
10
70.5839996337891
20
78.7574996948242
40
0.0
41
0.0
42
0.0
10
70.9901962280273
20
78.7949981689453
40
0.0
41
0.0
42
0.0
10
71.0518035888672
20
78.7658996582031
40
0.0
41
0.0
42
0.0
10
71.0886993408203
20
78.7574005126953
40
0.0
41
0.0
42
0.0
10
71.4841003417969
20
78.7040023803711
40
0.0
41
0.0
42
0.0
10
71.8834991455078
20
78.5968017578125
40
0.0
41
0.0
42
0.0
10
71.9401016235352
20
78.5606994628906
40
0.0
41
0.0
42
0.0
10
71.9878997802734
20
78.5353012084961
40
0.0
41
0.0
42
0.0
10
72.1079025268555
20
78.5
40
0.0
41
0.0
42
0.0
10
72.3843994140625
20
78.4129028320312
40
0.0
41
0.0
42
0.0
10
72.4866027832031
20
78.3405990600586
40
0.0
41
0.0
42
0.0
10
72.5184020996094
20
78.3404998779297
40
0.0
41
0.0
42
0.0
10
72.8637008666992
20
78.3929977416992
40
0.0
41
0.0
42
0.0
10
72.9693984985352
20
78.3050003051758
40
0.0
41
0.0
42
0.0
10
72.9965972900391
20
78.3050003051758
40
0.0
41
0.0
42
0.0
10
73.0022964477539
20
78.3080978393555
40
0.0
41
0.0
42
0.0
10
73.0550003051758
20
78.4852981567383
40
0.0
41
0.0
42
0.0
10
73.1463012695312
20
78.8774032592773
40
0.0
41
0.0
42
0.0
10
73.1462020874023
20
78.9135971069336
40
0.0
41
0.0
42
0.0
10
73.1352996826172
20
78.9965972900391
40
0.0
41
0.0
42
0.0
10
73.2093963623047
20
79.3768997192383
40
0.0
41
0.0
42
0.0
10
73.2088012695312
20
79.4536972045898
40
0.0
41
0.0
42
0.0
10
73.2042999267578
20
79.4934005737305
40
0.0
41
0.0
42
0.0
10
73.3179016113281
20
79.9177017211914
40
0.0
41
0.0
42
0.0
10
73.3179016113281
20
79.9543991088867
40
0.0
41
0.0
42
0.0
10
73.3153991699219
20
79.9998016357422
40
0.0
41
0.0
42
0.0
10
73.3183975219727
20
80.0495986938477
40
0.0
41
0.0
42
0.0
10
73.5020980834961
20
80.506103515625
40
0.0
41
0.0
42
0.0
10
74.002197265625
20
80.997200012207
40
0.0
41
0.0
42
0.0
10
74.1330032348633
20
80.9512023925781
40
0.0
41
0.0
42
0.0
10
74.4906997680664
20
80.8796005249023
40
0.0
41
0.0
42
0.0
10
74.5208969116211
20
80.8467025756836
40
0.0
41
0.0
42
0.0
10
74.8043975830078
20
80.5574035644531
40
0.0
41
0.0
42
0.0
10
74.8388977050781
20
80.4925003051758
40
0.0
41
0.0
42
0.0
10
74.9934997558594
20
80.3357009887695
40
0.0
41
0.0
42
0.0
10
75.0171966552734
20
80.2668991088867
40
0.0
41
0.0
42
0.0
10
75.027099609375
20
80.2434997558594
40
0.0
41
0.0
42
0.0
10
75.1937026977539
20
79.9884033203125
40
0.0
41
0.0
42
0.0
10
75.2197036743164
20
79.8825988769531
40
0.0
41
0.0
42
0.0
10
75.4357986450195
20
79.4871978759766
40
0.0
41
0.0
42
0.0
10
75.4570999145508
20
79.381103515625
40
0.0
41
0.0
42
0.0
10
75.4980010986328
20
79.2833023071289
40
0.0
41
0.0
42
0.0
10
75.7412033081055
20
78.9941024780273
40
0.0
41
0.0
42
0.0
10
75.8117980957031
20
78.9225006103516
40
0.0
41
0.0
42
0.0
10
75.9882965087891
20
78.7556991577148
40
0.0
41
0.0
42
0.0
10
76.0080032348633
20
78.7556991577148
40
0.0
41
0.0
42
0.0
10
76.0343017578125
20
78.7994995117188
40
0.0
41
0.0
42
0.0
10
76.1652984619141
20
78.8902969360352
40
0.0
41
0.0
42
0.0
10
76.241096496582
20
78.9889984130859
40
0.0
41
0.0
42
0.0
10
76.2590026855469
20
78.9987030029297
40
0.0
41
0.0
42
0.0
10
76.5095977783203
20
79.1110992431641
40
0.0
41
0.0
42
0.0
10
76.8815994262695
20
79.3692016601562
40
0.0
41
0.0
42
0.0
10
76.9271011352539
20
79.4145965576172
40
0.0
41
0.0
42
0.0
10
76.9904022216797
20
79.4916000366211
40
0.0
41
0.0
42
0.0
10
77.0578994750977
20
79.5614013671875
40
0.0
41
0.0
42
0.0
10
77.1070022583008
20
79.5916976928711
40
0.0
41
0.0
42
0.0
10
77.511100769043
20
79.8219985961914
40
0.0
41
0.0
42
0.0
10
78.0149002075195
20
80.0035018920898
40
0.0
41
0.0
42
0.0
10
78.3651962280273
20
79.9884033203125
40
0.0
41
0.0
42
0.0
10
78.4935989379883
20
79.969596862793
40
0.0
41
0.0
42
0.0
10
78.5799026489258
20
79.8030014038086
40
0.0
41
0.0
42
0.0
10
78.7720031738281
20
79.4975967407227
40
0.0
41
0.0
42
0.0
10
78.7575988769531
20
79.4516983032227
40
0.0
41
0.0
42
0.0
10
78.7574996948242
20
79.415901184082
40
0.0
41
0.0
42
0.0
10
78.7949981689453
20
79.0096969604492
40
0.0
41
0.0
42
0.0
10
78.765998840332
20
78.947998046875
40
0.0
41
0.0
42
0.0
10
78.7574005126953
20
78.9112014770508
40
0.0
41
0.0
42
0.0
10
78.7040023803711
20
78.5158004760742
40
0.0
41
0.0
42
0.0
10
78.5969009399414
20
78.1164016723633
40
0.0
41
0.0
42
0.0
10
78.5607986450195
20
78.059700012207
40
0.0
41
0.0
42
0.0
10
78.535400390625
20
78.0120010375977
40
0.0
41
0.0
42
0.0
10
78.5
20
77.8918991088867
40
0.0
41
0.0
42
0.0
10
78.4130020141602
20
77.6155014038086
40
0.0
41
0.0
42
0.0
10
78.3395004272461
20
77.5113983154297
40
0.0
41
0.0
42
0.0
10
78.3394012451172
20
77.4796981811523
40
0.0
41
0.0
42
0.0
10
78.3984985351562
20
77.1039962768555
40
0.0
41
0.0
42
0.0
10
78.3145980834961
20
77.0119018554688
40
0.0
41
0.0
42
0.0
10
78.3145980834961
20
76.9955978393555
40
0.0
41
0.0
42
0.0
10
78.4852981567383
20
76.9447021484375
40
0.0
41
0.0
42
0.0
10
78.8774032592773
20
76.8535995483398
40
0.0
41
0.0
42
0.0
10
78.9136962890625
20
76.8535003662109
40
0.0
41
0.0
42
0.0
10
79.0876998901367
20
76.875
40
0.0
41
0.0
42
0.0
10
79.4820022583008
20
76.7983016967773
40
0.0
41
0.0
42
0.0
10
79.519401550293
20
76.7983016967773
40
0.0
41
0.0
42
0.0
10
79.5541000366211
20
76.8002014160156
40
0.0
41
0.0
42
0.0
10
79.9832992553711
20
76.685302734375
40
0.0
41
0.0
42
0.0
10
80.0495986938477
20
76.6812973022461
40
0.0
41
0.0
42
0.0
10
80.5059967041016
20
76.4977035522461
40
0.0
41
0.0
42
0.0
10
80.997200012207
20
75.9975967407227
40
0.0
41
0.0
42
0.0
10
80.9512023925781
20
75.8667984008789
40
0.0
41
0.0
42
0.0
10
80.8796005249023
20
75.5091018676758
40
0.0
41
0.0
42
0.0
10
80.8468017578125
20
75.4788970947266
40
0.0
41
0.0
42
0.0
10
80.557502746582
20
75.1952972412109
40
0.0
41
0.0
42
0.0
10
80.4925003051758
20
75.1607971191406
40
0.0
41
0.0
42
0.0
10
80.3357009887695
20
75.0062026977539
40
0.0
41
0.0
42
0.0
10
80.2668991088867
20
74.9824981689453
40
0.0
41
0.0
42
0.0
10
80.2435989379883
20
74.9727020263672
40
0.0
41
0.0
42
0.0
10
79.9907989501953
20
74.807502746582
40
0.0
41
0.0
42
0.0
10
79.5925979614258
20
74.5898971557617
40
0.0
41
0.0
42
0.0
10
79.4844970703125
20
74.5633010864258
40
0.0
41
0.0
42
0.0
10
79.381103515625
20
74.5427017211914
40
0.0
41
0.0
42
0.0
10
79.2833023071289
20
74.5018005371094
40
0.0
41
0.0
42
0.0
10
78.9941024780273
20
74.2584991455078
40
0.0
41
0.0
42
0.0
10
78.9225997924805
20
74.1878967285156
40
0.0
41
0.0
42
0.0
10
78.7556991577148
20
74.0115966796875
40
0.0
41
0.0
42
0.0
10
78.7555999755859
20
73.9917984008789
40
0.0
41
0.0
42
0.0
10
78.7994995117188
20
73.9654998779297
40
0.0
41
0.0
42
0.0
10
78.8902969360352
20
73.8343963623047
40
0.0
41
0.0
42
0.0
10
78.9889984130859
20
73.7586975097656
40
0.0
41
0.0
42
0.0
10
78.9987030029297
20
73.7407989501953
40
0.0
41
0.0
42
0.0
10
79.1110000610352
20
73.4903030395508
40
0.0
41
0.0
42
0.0
10
79.3692016601562
20
73.1181030273438
40
0.0
41
0.0
42
0.0
10
79.4145965576172
20
73.0727005004883
40
0.0
41
0.0
42
0.0
10
79.4915008544922
20
73.0093994140625
40
0.0
41
0.0
42
0.0
10
79.5473022460938
20
72.956298828125
40
0.0
41
0.0
42
0.0
10
79.5716018676758
20
72.9173965454102
40
0.0
41
0.0
42
0.0
10
79.5908966064453
20
72.8940963745117
40
0.0
41
0.0
42
0.0
10
79.8218994140625
20
72.4887008666992
40
0.0
41
0.0
42
0.0
10
80.0035018920898
20
71.9849014282227
40
0.0
41
0.0
42
0.0
10
79.9884033203125
20
71.6345977783203
40
0.0
41
0.0
42
0.0
10
79.9697036743164
20
71.5063018798828
40
0.0
41
0.0
42
0.0
10
79.8031005859375
20
71.4197998046875
40
0.0
41
0.0
42
0.0
10
79.4975967407227
20
71.2276992797852
40
0.0
41
0.0
42
0.0
10
79.4516983032227
20
71.242301940918
40
0.0
41
0.0
42
0.0
10
79.4154968261719
20
71.2422027587891
40
0.0
41
0.0
42
0.0
10
79.003303527832
20
71.2041015625
40
0.0
41
0.0
42
0.0
10
78.5903015136719
20
71.2600021362305
40
0.0
41
0.0
42
0.0
10
78.5127029418945
20
71.2966003417969
40
0.0
41
0.0
42
0.0
10
78.1164016723633
20
71.4028015136719
40
0.0
41
0.0
42
0.0
10
78.0596008300781
20
71.4389038085938
40
0.0
41
0.0
42
0.0
10
78.0119018554688
20
71.4643020629883
40
0.0
41
0.0
42
0.0
10
77.8918991088867
20
71.4998016357422
40
0.0
41
0.0
42
0.0
10
77.6155014038086
20
71.5867004394531
40
0.0
41
0.0
42
0.0
10
77.5113983154297
20
71.660400390625
40
0.0
41
0.0
42
0.0
10
77.4796981811523
20
71.6603012084961
40
0.0
41
0.0
42
0.0
10
77.1038970947266
20
71.6011962890625
40
0.0
41
0.0
42
0.0
10
77.0118026733398
20
71.6850967407227
40
0.0
41
0.0
42
0.0
10
76.9955978393555
20
71.6850967407227
40
0.0
41
0.0
42
0.0
10
76.9447021484375
20
71.5146026611328
40
0.0
41
0.0
42
0.0
10
76.8535995483398
20
71.1224975585938
40
0.0
41
0.0
42
0.0
10
76.8535003662109
20
71.0861968994141
40
0.0
41
0.0
42
0.0
10
76.875
20
70.9122009277344
40
0.0
41
0.0
42
0.0
10
76.7983016967773
20
70.5178985595703
40
0.0
41
0.0
42
0.0
10
76.7983016967773
20
70.4804992675781
40
0.0
41
0.0
42
0.0
10
76.8002014160156
20
70.44580078125
40
0.0
41
0.0
42
0.0
10
76.685302734375
20
70.0166015625
40
0.0
41
0.0
42
0.0
10
76.681396484375
20
69.9503021240234
40
0.0
41
0.0
42
0.0
10
76.497802734375
20
69.4936981201172
40
0.0
41
0.0
42
0.0
10
75.9977035522461
20
69.0025024414062
40
0.0
41
0.0
42
0.0
10
75.8667984008789
20
69.0485000610352
40
0.0
41
0.0
42
0.0
10
75.5093994140625
20
69.1201019287109
40
0.0
41
0.0
42
0.0
10
75.1952972412109
20
69.4423980712891
40
0.0
41
0.0
42
0.0
10
75.1607971191406
20
69.5073013305664
40
0.0
41
0.0
42
0.0
10
75.0062026977539
20
69.6641006469727
40
0.0
41
0.0
42
0.0
10
74.9824981689453
20
69.7329025268555
40
0.0
41
0.0
42
0.0
10
74.9726028442383
20
69.7562026977539
40
0.0
41
0.0
42
0.0
10
74.807502746582
20
70.0091018676758
40
0.0
41
0.0
42
0.0
10
74.5898971557617
20
70.4073028564453
40
0.0
41
0.0
42
0.0
10
74.5633010864258
20
70.5154037475586
40
0.0
41
0.0
42
0.0
10
74.5426025390625
20
70.6187973022461
40
0.0
41
0.0
42
0.0
10
74.5017013549805
20
70.7164001464844
40
0.0
41
0.0
42
0.0
10
74.2584991455078
20
71.0056991577148
40
0.0
41
0.0
42
0.0
10
74.1878967285156
20
71.0772018432617
40
0.0
41
0.0
42
0.0
10
74.0115966796875
20
71.2442016601562
40
0.0
41
0.0
42
0.0
10
73.9865036010742
20
71.2442016601562
40
0.0
41
0.0
42
0.0
10
73.8858032226562
20
71.1744003295898
40
0.0
41
0.0
42
0.0
10
73.8360977172852
20
71.111701965332
40
0.0
41
0.0
42
0.0
10
73.744499206543
20
71.002799987793
40
0.0
41
0.0
42
0.0
10
73.492301940918
20
70.8896026611328
40
0.0
41
0.0
42
0.0
10
73.4880981445312
20
70.8851013183594
40
0.0
41
0.0
42
0.0
10
73.0811004638672
20
70.5961990356445
40
0.0
41
0.0
42
0.0
10
73.0442962646484
20
70.5574035644531
40
0.0
41
0.0
42
0.0
10
72.9959030151367
20
70.4931030273438
40
0.0
41
0.0
42
0.0
10
72.9415969848633
20
70.438102722168
40
0.0
41
0.0
42
0.0
10
72.5092010498047
20
70.1917037963867
40
0.0
41
0.0
42
0.0
10
72.4896011352539
20
70.1781005859375
40
0.0
41
0.0
42
0.0
10
71.995002746582
20
70.0009002685547
40
0.0
41
0.0
42
0.0
10
71.9869003295898
20
69.9957962036133
40
0.0
41
0.0
42
0.0
10
71.9450988769531
20
69.9990005493164
40
0.0
41
0.0
42
0.0
10
71.6345977783203
20
70.0112991333008
40
0.0
41
0.0
42
0.0
10
71.5062026977539
20
70.0300979614258
40
0.0
41
0.0
42
0.0
10
71.4197998046875
20
70.1967010498047
40
0.0
41
0.0
42
0.0
10
71.2277984619141
20
70.502197265625
40
0.0
41
0.0
42
0.0
10
71.242301940918
20
70.5482025146484
40
0.0
41
0.0
42
0.0
10
71.2422027587891
20
70.5839996337891
40
0.0
41
0.0
42
0.0
10
71.2041015625
20
70.9965972900391
40
0.0
41
0.0
42
0.0
10
71.2600021362305
20
71.4095993041992
40
0.0
41
0.0
42
0.0
10
71.2966995239258
20
71.4871978759766
40
0.0
41
0.0
42
0.0
10
71.4029006958008
20
71.8834991455078
40
0.0
41
0.0
42
0.0
10
71.4390029907227
20
71.9402008056641
40
0.0
41
0.0
42
0.0
10
71.4644012451172
20
71.9879989624023
40
0.0
41
0.0
42
0.0
10
71.4998016357422
20
72.1079025268555
40
0.0
41
0.0
42
0.0
10
71.586799621582
20
72.3843994140625
40
0.0
41
0.0
42
0.0
10
71.660400390625
20
72.4884033203125
40
0.0
41
0.0
42
0.0
10
71.6603012084961
20
72.5201034545898
40
0.0
41
0.0
42
0.0
10
71.6013031005859
20
72.8957977294922
40
0.0
41
0.0
42
0.0
10
71.6850967407227
20
72.9880981445312
40
0.0
41
0.0
42
0.0
10
71.6849975585938
20
73.0042037963867
40
0.0
41
0.0
42
0.0
10
71.5146026611328
20
73.0550003051758
40
0.0
41
0.0
42
0.0
10
71.1224975585938
20
73.1463012695312
40
0.0
41
0.0
42
0.0
10
71.0863037109375
20
73.1462020874023
40
0.0
41
0.0
42
0.0
10
71.003303527832
20
73.1352996826172
40
0.0
41
0.0
42
0.0
10
70.6230010986328
20
73.2093963623047
40
0.0
41
0.0
42
0.0
10
70.5462036132812
20
73.2088012695312
40
0.0
41
0.0
42
0.0
10
70.5065002441406
20
73.2042999267578
40
0.0
41
0.0
42
0.0
10
70.0821990966797
20
73.3179016113281
40
0.0
41
0.0
42
0.0
10
70.0455017089844
20
73.3179016113281
40
0.0
41
0.0
42
0.0
10
70.0000991821289
20
73.3153991699219
40
0.0
41
0.0
42
0.0
10
69.9503021240234
20
73.3183975219727
40
0.0
41
0.0
42
0.0
10
69.4936981201172
20
73.5019989013672
40
0.0
41
0.0
42
0.0
10
69.0025024414062
20
74.002197265625
40
0.0
41
0.0
42
0.0
210
0.0
220
0.0
230
1.0
0
LWPOLYLINE
5
28
330
1C
100
AcDbEntity
67
0
8
0
62
256
6
ByLayer
370
-1
48
1.0
60
0
100
AcDbPolyline
90
80
70
1
38
0.0
39
0.0
10
73.4842987060547
20
75.3790969848633
40
0.0
41
0.0
42
0.0
10
73.5165023803711
20
75.3790969848633
40
0.0
41
0.0
42
0.0
10
73.6473999023438
20
75.4231033325195
40
0.0
41
0.0
42
0.0
10
73.9573974609375
20
74.9969024658203
40
0.0
41
0.0
42
0.0
10
73.7378005981445
20
74.619499206543
40
0.0
41
0.0
42
0.0
10
73.7405014038086
20
74.5119018554688
40
0.0
41
0.0
42
0.0
10
73.7042007446289
20
74.4539031982422
40
0.0
41
0.0
42
0.0
10
73.4959030151367
20
74.0586013793945
40
0.0
41
0.0
42
0.0
10
73.415397644043
20
74.00830078125
40
0.0
41
0.0
42
0.0
10
73.4151992797852
20
73.9932022094727
40
0.0
41
0.0
42
0.0
10
73.4847030639648
20
73.9605026245117
40
0.0
41
0.0
42
0.0
10
73.5156021118164
20
73.9604034423828
40
0.0
41
0.0
42
0.0
10
73.6042022705078
20
73.9990997314453
40
0.0
41
0.0
42
0.0
10
74.0105972290039
20
74.1900024414062
40
0.0
41
0.0
42
0.0
10
74.3776016235352
20
74.1617965698242
40
0.0
41
0.0
42
0.0
10
74.4284973144531
20
74.1529998779297
40
0.0
41
0.0
42
0.0
10
74.4868011474609
20
74.1275024414062
40
0.0
41
0.0
42
0.0
10
74.8172988891602
20
74.0428009033203
40
0.0
41
0.0
42
0.0
10
74.9045028686523
20
73.9990997314453
40
0.0
41
0.0
42
0.0
10
74.9890975952148
20
73.9654006958008
40
0.0
41
0.0
42
0.0
10
75.3804016113281
20
73.7378005981445
40
0.0
41
0.0
42
0.0
10
75.4879989624023
20
73.7405014038086
40
0.0
41
0.0
42
0.0
10
75.5458984375
20
73.7042007446289
40
0.0
41
0.0
42
0.0
10
75.9411010742188
20
73.4957962036133
40
0.0
41
0.0
42
0.0
10
75.9916000366211
20
73.415397644043
40
0.0
41
0.0
42
0.0
10
76.0066986083984
20
73.4152984619141
40
0.0
41
0.0
42
0.0
10
76.0393981933594
20
73.4847030639648
40
0.0
41
0.0
42
0.0
10
76.0392990112305
20
73.5156021118164
40
0.0
41
0.0
42
0.0
10
76.0007019042969
20
73.6041030883789
40
0.0
41
0.0
42
0.0
10
75.809700012207
20
74.0105972290039
40
0.0
41
0.0
42
0.0
10
75.8378982543945
20
74.3776016235352
40
0.0
41
0.0
42
0.0
10
75.8467025756836
20
74.428596496582
40
0.0
41
0.0
42
0.0
10
75.872200012207
20
74.4868011474609
40
0.0
41
0.0
42
0.0
10
75.9570007324219
20
74.8173980712891
40
0.0
41
0.0
42
0.0
10
76.0007019042969
20
74.9046020507812
40
0.0
41
0.0
42
0.0
10
76.0346984863281
20
74.9897994995117
40
0.0
41
0.0
42
0.0
10
76.2619018554688
20
75.3804016113281
40
0.0
41
0.0
42
0.0
10
76.2593002319336
20
75.4876022338867
40
0.0
41
0.0
42
0.0
10
76.4673004150391
20
75.8816986083984
40
0.0
41
0.0
42
0.0
10
76.5046997070312
20
75.9414978027344
40
0.0
41
0.0
42
0.0
10
76.5845031738281
20
75.9916000366211
40
0.0
41
0.0
42
0.0
10
76.5843963623047
20
76.0065994262695
40
0.0
41
0.0
42
0.0
10
76.5151977539062
20
76.0393981933594
40
0.0
41
0.0
42
0.0
10
76.4842987060547
20
76.0392990112305
40
0.0
41
0.0
42
0.0
10
76.3955993652344
20
76.0007019042969
40
0.0
41
0.0
42
0.0
10
75.989501953125
20
75.809700012207
40
0.0
41
0.0
42
0.0
10
75.6222991943359
20
75.8377990722656
40
0.0
41
0.0
42
0.0
10
75.5711975097656
20
75.8467025756836
40
0.0
41
0.0
42
0.0
10
75.5130996704102
20
75.872200012207
40
0.0
41
0.0
42
0.0
10
75.1824035644531
20
75.956901550293
40
0.0
41
0.0
42
0.0
10
75.0951995849609
20
76.0007019042969
40
0.0
41
0.0
42
0.0
10
75.0101013183594
20
76.0346984863281
40
0.0
41
0.0
42
0.0
10
74.619499206543
20
76.2619018554688
40
0.0
41
0.0
42
0.0
10
74.5122985839844
20
76.2593002319336
40
0.0
41
0.0
42
0.0
10
74.1179962158203
20
76.4672012329102
40
0.0
41
0.0
42
0.0
10
74.0580978393555
20
76.5046005249023
40
0.0
41
0.0
42
0.0
10
74.00830078125
20
76.5845031738281
40
0.0
41
0.0
42
0.0
10
73.9932022094727
20
76.5845031738281
40
0.0
41
0.0
42
0.0
10
73.9605026245117
20
76.5151977539062
40
0.0
41
0.0
42
0.0
10
73.9604034423828
20
76.4842987060547
40
0.0
41
0.0
42
0.0
10
73.9990997314453
20
76.3955993652344
40
0.0
41
0.0
42
0.0
10
74.1900024414062
20
75.989501953125
40
0.0
41
0.0
42
0.0
10
74.1619033813477
20
75.6222991943359
40
0.0
41
0.0
42
0.0
10
74.1529998779297
20
75.5711975097656
40
0.0
41
0.0
42
0.0
10
74.1276016235352
20
75.5130996704102
40
0.0
41
0.0
42
0.0
10
74.0428009033203
20
75.182502746582
40
0.0
41
0.0
42
0.0
10
74.002799987793
20
75.1023025512695
40
0.0
41
0.0
42
0.0
10
73.9975967407227
20
75.1024017333984
40
0.0
41
0.0
42
0.0
10
73.8023986816406
20
75.5009002685547
40
0.0
41
0.0
42
0.0
10
73.6800994873047
20
75.5205001831055
40
0.0
41
0.0
42
0.0
10
73.6166000366211
20
75.5808029174805
40
0.0
41
0.0
42
0.0
10
73.5880966186523
20
75.5807037353516
40
0.0
41
0.0
42
0.0
10
73.4838027954102
20
75.5493011474609
40
0.0
41
0.0
42
0.0
10
73.3776016235352
20
75.5417022705078
40
0.0
41
0.0
42
0.0
10
73.24169921875
20
75.5175018310547
40
0.0
41
0.0
42
0.0
10
73.182502746582
20
75.5034027099609
40
0.0
41
0.0
42
0.0
10
73.1824035644531
20
75.494499206543
40
0.0
41
0.0
42
0.0
10
73.2654037475586
20
75.4636993408203
40
0.0
41
0.0
42
0.0
10
73.3824996948242
20
75.4232025146484
40
0.0
41
0.0
42
0.0
10
73.4842987060547
20
75.3790969848633
40
0.0
41
0.0
42
0.0
210
0.0
220
0.0
230
1.0
0
LWPOLYLINE
5
29
330
1C
100
AcDbEntity
67
0
8
0
62
256
6
ByLayer
370
-1
48
1.0
60
0
100
AcDbPolyline
90
15
70
1
38
0.0
39
0.0
10
73.2813034057617
20
75.4882965087891
40
0.0
41
0.0
42
0.0
10
73.2830963134766
20
75.5090026855469
40
0.0
41
0.0
42
0.0
10
73.4524002075195
20
75.5389022827148
40
0.0
41
0.0
42
0.0
10
73.5160980224609
20
75.5435028076172
40
0.0
41
0.0
42
0.0
10
73.5600967407227
20
75.5567016601562
40
0.0
41
0.0
42
0.0
10
73.5948028564453
20
75.5239028930664
40
0.0
41
0.0
42
0.0
10
73.7508010864258
20
75.4989013671875
40
0.0
41
0.0
42
0.0
10
73.8809967041016
20
75.2330017089844
40
0.0
41
0.0
42
0.0
10
73.8510971069336
20
75.2149963378906
40
0.0
41
0.0
42
0.0
10
73.676399230957
20
75.4551010131836
40
0.0
41
0.0
42
0.0
10
73.6504974365234
20
75.4550018310547
40
0.0
41
0.0
42
0.0
10
73.5015029907227
20
75.404899597168
40
0.0
41
0.0
42
0.0
10
73.4473037719727
20
75.4283981323242
40
0.0
41
0.0
42
0.0
10
73.3880004882812
20
75.4488983154297
40
0.0
41
0.0
42
0.0
10
73.2813034057617
20
75.4882965087891
40
0.0
41
0.0
42
0.0
210
0.0
220
0.0
230
1.0
0
LWPOLYLINE
5
2A
330
1C
100
AcDbEntity
67
0
8
0
62
256
6
ByLayer
370
-1
48
1.0
60
0
100
AcDbPolyline
90
58
70
1
38
0.0
39
0.0
10
73.5039978027344
20
74.0297012329102
40
0.0
41
0.0
42
0.0
10
73.7286987304688
20
74.4560012817383
40
0.0
41
0.0
42
0.0
10
73.7472991943359
20
74.4858016967773
40
0.0
41
0.0
42
0.0
10
73.7462005615234
20
74.5530014038086
40
0.0
41
0.0
42
0.0
10
73.9980010986328
20
74.9856033325195
40
0.0
41
0.0
42
0.0
10
73.9980010986328
20
74.9873962402344
40
0.0
41
0.0
42
0.0
10
74.0516967773438
20
75.0925979614258
40
0.0
41
0.0
42
0.0
10
74.152702331543
20
75.4868011474609
40
0.0
41
0.0
42
0.0
10
74.1679992675781
20
75.521598815918
40
0.0
41
0.0
42
0.0
10
74.1725006103516
20
75.5475997924805
40
0.0
41
0.0
42
0.0
10
74.2057037353516
20
75.9807968139648
40
0.0
41
0.0
42
0.0
10
74.2054977416992
20
76.0151977539062
40
0.0
41
0.0
42
0.0
10
74.0008010864258
20
76.4512023925781
40
0.0
41
0.0
42
0.0
10
73.9680023193359
20
76.5268020629883
40
0.0
41
0.0
42
0.0
10
73.9990005493164
20
76.5435028076172
40
0.0
41
0.0
42
0.0
10
74.0300979614258
20
76.4952011108398
40
0.0
41
0.0
42
0.0
10
74.0597991943359
20
76.4766006469727
40
0.0
41
0.0
42
0.0
10
74.4850006103516
20
76.2522964477539
40
0.0
41
0.0
42
0.0
10
74.5529022216797
20
76.2535018920898
40
0.0
41
0.0
42
0.0
10
74.9898986816406
20
75.9991989135742
40
0.0
41
0.0
42
0.0
10
75.092399597168
20
75.947998046875
40
0.0
41
0.0
42
0.0
10
75.4868011474609
20
75.8470001220703
40
0.0
41
0.0
42
0.0
10
75.521598815918
20
75.8317031860352
40
0.0
41
0.0
42
0.0
10
75.5475997924805
20
75.8272018432617
40
0.0
41
0.0
42
0.0
10
75.9807968139648
20
75.7941970825195
40
0.0
41
0.0
42
0.0
10
76.0152969360352
20
75.7941970825195
40
0.0
41
0.0
42
0.0
10
76.4512023925781
20
75.9990997314453
40
0.0
41
0.0
42
0.0
10
76.5268020629883
20
76.0318984985352
40
0.0
41
0.0
42
0.0
10
76.5435028076172
20
76.0009002685547
40
0.0
41
0.0
42
0.0
10
76.4952011108398
20
75.9697036743164
40
0.0
41
0.0
42
0.0
10
76.4766006469727
20
75.9400024414062
40
0.0
41
0.0
42
0.0
10
76.2522964477539
20
75.5149002075195
40
0.0
41
0.0
42
0.0
10
76.2535018920898
20
75.4469985961914
40
0.0
41
0.0
42
0.0
10
75.9992980957031
20
75.0100021362305
40
0.0
41
0.0
42
0.0
10
75.947998046875
20
74.9074020385742
40
0.0
41
0.0
42
0.0
10
75.8470993041992
20
74.5130996704102
40
0.0
41
0.0
42
0.0
10
75.8317031860352
20
74.4782028198242
40
0.0
41
0.0
42
0.0
10
75.8272018432617
20
74.4523010253906
40
0.0
41
0.0
42
0.0
10
75.7941970825195
20
74.0190963745117
40
0.0
41
0.0
42
0.0
10
75.7940979003906
20
73.9845962524414
40
0.0
41
0.0
42
0.0
10
75.9990005493164
20
73.5485992431641
40
0.0
41
0.0
42
0.0
10
76.0318984985352
20
73.4729995727539
40
0.0
41
0.0
42
0.0
10
76.0008010864258
20
73.4563980102539
40
0.0
41
0.0
42
0.0
10
75.970100402832
20
73.5038986206055
40
0.0
41
0.0
42
0.0
10
75.543701171875
20
73.7285995483398
40
0.0
41
0.0
42
0.0
10
75.5139999389648
20
73.7472991943359
40
0.0
41
0.0
42
0.0
10
75.4468994140625
20
73.7462005615234
40
0.0
41
0.0
42
0.0
10
75.0100021362305
20
74.0003967285156
40
0.0
41
0.0
42
0.0
10
74.9073028564453
20
74.0516967773438
40
0.0
41
0.0
42
0.0
10
74.5130996704102
20
74.1526031494141
40
0.0
41
0.0
42
0.0
10
74.4782028198242
20
74.1679992675781
40
0.0
41
0.0
42
0.0
10
74.4523010253906
20
74.1725006103516
40
0.0
41
0.0
42
0.0
10
74.0190963745117
20
74.2057037353516
40
0.0
41
0.0
42
0.0
10
73.9847030639648
20
74.2055969238281
40
0.0
41
0.0
42
0.0
10
73.5485992431641
20
74.0008010864258
40
0.0
41
0.0
42
0.0
10
73.4729995727539
20
73.9680023193359
40
0.0
41
0.0
42
0.0
10
73.4563980102539
20
73.9991989135742
40
0.0
41
0.0
42
0.0
10
73.5039978027344
20
74.0297012329102
40
0.0
41
0.0
42
0.0
210
0.0
220
0.0
230
1.0
0
LWPOLYLINE
5
2B
330
1C
100
AcDbEntity
67
0
8
0
62
256
6
ByLayer
370
-1
48
1.0
60
0
100
AcDbPolyline
90
17
70
1
38
0.0
39
0.0
10
74.4504013061523
20
73.4838027954102
40
0.0
41
0.0
42
0.0
10
74.4580001831055
20
73.3775024414062
40
0.0
41
0.0
42
0.0
10
74.4822006225586
20
73.24169921875
40
0.0
41
0.0
42
0.0
10
74.4964981079102
20
73.182502746582
40
0.0
41
0.0
42
0.0
10
74.5054016113281
20
73.1824035644531
40
0.0
41
0.0
42
0.0
10
74.536003112793
20
73.2654037475586
40
0.0
41
0.0
42
0.0
10
74.5765991210938
20
73.3825988769531
40
0.0
41
0.0
42
0.0
10
74.6242980957031
20
73.4925003051758
40
0.0
41
0.0
42
0.0
10
74.6549987792969
20
73.5199966430664
40
0.0
41
0.0
42
0.0
10
74.654899597168
20
73.5431976318359
40
0.0
41
0.0
42
0.0
10
74.5438003540039
20
73.6794967651367
40
0.0
41
0.0
42
0.0
10
74.5048980712891
20
73.7956008911133
40
0.0
41
0.0
42
0.0
10
74.497802734375
20
73.7956008911133
40
0.0
41
0.0
42
0.0
10
74.4793014526367
20
73.6800994873047
40
0.0
41
0.0
42
0.0
10
74.4190979003906
20
73.6166000366211
40
0.0
41
0.0
42
0.0
10
74.4189987182617
20
73.5879974365234
40
0.0
41
0.0
42
0.0
10
74.4504013061523
20
73.4838027954102
40
0.0
41
0.0
42
0.0
210
0.0
220
0.0
230
1.0
0
LWPOLYLINE
5
2C
330
1C
100
AcDbEntity
67
0
8
0
62
256
6
ByLayer
370
-1
48
1.0
60
0
100
AcDbPolyline
90
13
70
1
38
0.0
39
0.0
10
74.4757995605469
20
73.5948028564453
40
0.0
41
0.0
42
0.0
10
74.4925003051758
20
73.6971969604492
40
0.0
41
0.0
42
0.0
10
74.5149002075195
20
73.6989974975586
40
0.0
41
0.0
42
0.0
10
74.5495986938477
20
73.5952987670898
40
0.0
41
0.0
42
0.0
10
74.6110992431641
20
73.5198974609375
40
0.0
41
0.0
42
0.0
10
74.5973968505859
20
73.5074996948242
40
0.0
41
0.0
42
0.0
10
74.5711975097656
20
73.4473037719727
40
0.0
41
0.0
42
0.0
10
74.5120010375977
20
73.2813034057617
40
0.0
41
0.0
42
0.0
10
74.4909973144531
20
73.2830963134766
40
0.0
41
0.0
42
0.0
10
74.4608001708984
20
73.4523010253906
40
0.0
41
0.0
42
0.0
10
74.4561996459961
20
73.5160980224609
40
0.0
41
0.0
42
0.0
10
74.443000793457
20
73.5602035522461
40
0.0
41
0.0
42
0.0
10
74.4757995605469
20
73.5948028564453
40
0.0
41
0.0
42
0.0
210
0.0
220
0.0
230
1.0
0
LWPOLYLINE
5
2D
330
1C
100
AcDbEntity
67
0
8
0
62
256
6
ByLayer
370
-1
48
1.0
60
0
100
AcDbPolyline
90
17
70
1
38
0.0
39
0.0
10
75.3755035400391
20
76.5074005126953
40
0.0
41
0.0
42
0.0
10
75.3448028564453
20
76.4796981811523
40
0.0
41
0.0
42
0.0
10
75.3447036743164
20
76.4565963745117
40
0.0
41
0.0
42
0.0
10
75.4559020996094
20
76.3202972412109
40
0.0
41
0.0
42
0.0
10
75.495002746582
20
76.2042999267578
40
0.0
41
0.0
42
0.0
10
75.5019989013672
20
76.2042999267578
40
0.0
41
0.0
42
0.0
10
75.5205001831055
20
76.3197021484375
40
0.0
41
0.0
42
0.0
10
75.5808029174805
20
76.38330078125
40
0.0
41
0.0
42
0.0
10
75.5805969238281
20
76.4117965698242
40
0.0
41
0.0
42
0.0
10
75.5493011474609
20
76.5160980224609
40
0.0
41
0.0
42
0.0
10
75.5417022705078
20
76.6222991943359
40
0.0
41
0.0
42
0.0
10
75.5175018310547
20
76.7580032348633
40
0.0
41
0.0
42
0.0
10
75.5034027099609
20
76.8173980712891
40
0.0
41
0.0
42
0.0
10
75.494499206543
20
76.8173980712891
40
0.0
41
0.0
42
0.0
10
75.4636993408203
20
76.7343978881836
40
0.0
41
0.0
42
0.0
10
75.4232025146484
20
76.617301940918
40
0.0
41
0.0
42
0.0
10
75.3755035400391
20
76.5074005126953
40
0.0
41
0.0
42
0.0
210
0.0
220
0.0
230
1.0
0
LWPOLYLINE
5
2E
330
1C
100
AcDbEntity
67
0
8
0
62
256
6
ByLayer
370
-1
48
1.0
60
0
100
AcDbPolyline
90
13
70
1
38
0.0
39
0.0
10
75.4284973144531
20
76.5526962280273
40
0.0
41
0.0
42
0.0
10
75.4878997802734
20
76.7185974121094
40
0.0
41
0.0
42
0.0
10
75.508903503418
20
76.716796875
40
0.0
41
0.0
42
0.0
10
75.5389022827148
20
76.5475006103516
40
0.0
41
0.0
42
0.0
10
75.5435028076172
20
76.4838027954102
40
0.0
41
0.0
42
0.0
10
75.5568008422852
20
76.4397964477539
40
0.0
41
0.0
42
0.0
10
75.5239028930664
20
76.4049987792969
40
0.0
41
0.0
42
0.0
10
75.5075988769531
20
76.3026962280273
40
0.0
41
0.0
42
0.0
10
75.4851989746094
20
76.3009033203125
40
0.0
41
0.0
42
0.0
10
75.4501037597656
20
76.4044036865234
40
0.0
41
0.0
42
0.0
10
75.3889999389648
20
76.4794998168945
40
0.0
41
0.0
42
0.0
10
75.4022979736328
20
76.4922027587891
40
0.0
41
0.0
42
0.0
10
75.4284973144531
20
76.5526962280273
40
0.0
41
0.0
42
0.0
210
0.0
220
0.0
230
1.0
0
LWPOLYLINE
5
2F
330
1C
100
AcDbEntity
67
0
8
0
62
256
6
ByLayer
370
-1
48
1.0
60
0
100
AcDbPolyline
90
17
70
1
38
0.0
39
0.0
10
76.38330078125
20
74.4190979003906
40
0.0
41
0.0
42
0.0
10
76.4119033813477
20
74.4190979003906
40
0.0
41
0.0
42
0.0
10
76.5160980224609
20
74.4504013061523
40
0.0
41
0.0
42
0.0
10
76.6223983764648
20
74.4580001831055
40
0.0
41
0.0
42
0.0
10
76.7581024169922
20
74.4822006225586
40
0.0
41
0.0
42
0.0
10
76.8173980712891
20
74.4964981079102
40
0.0
41
0.0
42
0.0
10
76.8172988891602
20
74.5053024291992
40
0.0
41
0.0
42
0.0
10
76.7342987060547
20
74.536003112793
40
0.0
41
0.0
42
0.0
10
76.617301940918
20
74.5764999389648
40
0.0
41
0.0
42
0.0
10
76.5073013305664
20
74.6241989135742
40
0.0
41
0.0
42
0.0
10
76.4797973632812
20
74.6549987792969
40
0.0
41
0.0
42
0.0
10
76.4565963745117
20
74.6549987792969
40
0.0
41
0.0
42
0.0
10
76.3202972412109
20
74.5438003540039
40
0.0
41
0.0
42
0.0
10
76.2042999267578
20
74.5048980712891
40
0.0
41
0.0
42
0.0
10
76.2042007446289
20
74.497802734375
40
0.0
41
0.0
42
0.0
10
76.3197021484375
20
74.4792022705078
40
0.0
41
0.0
42
0.0
10
76.38330078125
20
74.4190979003906
40
0.0
41
0.0
42
0.0
210
0.0
220
0.0
230
1.0
0
LWPOLYLINE
5
30
330
1C
100
AcDbEntity
67
0
8
0
62
256
6
ByLayer
370
-1
48
1.0
60
0
100
AcDbPolyline
90
13
70
1
38
0.0
39
0.0
10
76.404899597168
20
74.4757995605469
40
0.0
41
0.0
42
0.0
10
76.3026962280273
20
74.4925003051758
40
0.0
41
0.0
42
0.0
10
76.3009033203125
20
74.5149002075195
40
0.0
41
0.0
42
0.0
10
76.4045028686523
20
74.5495986938477
40
0.0
41
0.0
42
0.0
10
76.4794998168945
20
74.6107025146484
40
0.0
41
0.0
42
0.0
10
76.4921035766602
20
74.5975036621094
40
0.0
41
0.0
42
0.0
10
76.5525970458984
20
74.5711975097656
40
0.0
41
0.0
42
0.0
10
76.7185974121094
20
74.5120010375977
40
0.0
41
0.0
42
0.0
10
76.716796875
20
74.4909973144531
40
0.0
41
0.0
42
0.0
10
76.5475997924805
20
74.4608001708984
40
0.0
41
0.0
42
0.0
10
76.4838027954102
20
74.4561996459961
40
0.0
41
0.0
42
0.0
10
76.4397964477539
20
74.443000793457
40
0.0
41
0.0
42
0.0
10
76.404899597168
20
74.4757995605469
40
0.0
41
0.0
42
0.0
210
0.0
220
0.0
230
1.0
0
LWPOLYLINE
5
31
330
1C
100
AcDbEntity
67
0
8
0
62
256
6
ByLayer
370
-1
48
1.0
60
0
100
AcDbPolyline
90
34
70
1
38
0.0
39
0.0
10
81.2954025268555
20
65.0009002685547
40
0.0
41
0.0
42
0.0
10
81.3719024658203
20
65.0009002685547
40
0.0
41
0.0
42
0.0
10
81.5099029541016
20
65.0743026733398
40
0.0
41
0.0
42
0.0
10
81.6166000366211
20
65.1335983276367
40
0.0
41
0.0
42
0.0
10
82.0131988525391
20
65.2612991333008
40
0.0
41
0.0
42
0.0
10
82.1191024780273
20
65.2994995117188
40
0.0
41
0.0
42
0.0
10
82.5150985717773
20
65.3853988647461
40
0.0
41
0.0
42
0.0
10
82.6207962036133
20
65.4123992919922
40
0.0
41
0.0
42
0.0
10
83.0166015625
20
65.4712982177734
40
0.0
41
0.0
42
0.0
10
83.1053009033203
20
65.486701965332
40
0.0
41
0.0
42
0.0
10
83.486701965332
20
65.4982986450195
40
0.0
41
0.0
42
0.0
10
83.8821029663086
20
65.3162994384766
40
0.0
41
0.0
42
0.0
10
83.9177017211914
20
65.3068008422852
40
0.0
41
0.0
42
0.0
10
83.9878997802734
20
65.3066024780273
40
0.0
41
0.0
42
0.0
10
84.0587005615234
20
65.2443008422852
40
0.0
41
0.0
42
0.0
10
84.1726989746094
20
65.0009994506836
40
0.0
41
0.0
42
0.0
10
84.2054977416992
20
65.0009994506836
40
0.0
41
0.0
42
0.0
10
84.2052993774414
20
65.0151977539062
40
0.0
41
0.0
42
0.0
10
84.1023025512695
20
65.2353973388672
40
0.0
41
0.0
42
0.0
10
84.0120010375977
20
65.3150024414062
40
0.0
41
0.0
42
0.0
10
83.9278030395508
20
65.315299987793
40
0.0
41
0.0
42
0.0
10
83.6755981445312
20
65.431396484375
40
0.0
41
0.0
42
0.0
10
83.5435028076172
20
65.4998016357422
40
0.0
41
0.0
42
0.0
10
83.5179977416992
20
65.5047988891602
40
0.0
41
0.0
42
0.0
10
83.4803009033203
20
65.5046997070312
40
0.0
41
0.0
42
0.0
10
83.0274963378906
20
65.4916000366211
40
0.0
41
0.0
42
0.0
10
82.5491027832031
20
65.4191970825195
40
0.0
41
0.0
42
0.0
10
82.4848022460938
20
65.402702331543
40
0.0
41
0.0
42
0.0
10
82.0507965087891
20
65.3085021972656
40
0.0
41
0.0
42
0.0
10
81.986701965332
20
65.2854995727539
40
0.0
41
0.0
42
0.0
10
81.5533981323242
20
65.1461029052734
40
0.0
41
0.0
42
0.0
10
81.4899978637695
20
65.1107025146484
40
0.0
41
0.0
42
0.0
10
81.2954025268555
20
65.0073013305664
40
0.0
41
0.0
42
0.0
10
81.2954025268555
20
65.0009002685547
40
0.0
41
0.0
42
0.0
210
0.0
220
0.0
230
1.0
0
LWPOLYLINE
5
32
330
1C
100
AcDbEntity
67
0
8
0
62
256
6
ByLayer
370
-1
48
1.0
60
0
100
AcDbPolyline
90
33
70
1
38
0.0
39
0.0
10
84.5081024169922
20
83.0274963378906
40
0.0
41
0.0
42
0.0
10
84.5804977416992
20
82.5491027832031
40
0.0
41
0.0
42
0.0
10
84.5966033935547
20
82.4860992431641
40
0.0
41
0.0
42
0.0
10
84.6201019287109
20
82.4207992553711
40
0.0
41
0.0
42
0.0
10
84.7146987915039
20
81.9853973388672
40
0.0
41
0.0
42
0.0
10
84.8536987304688
20
81.5532989501953
40
0.0
41
0.0
42
0.0
10
84.8889999389648
20
81.4899978637695
40
0.0
41
0.0
42
0.0
10
84.9925994873047
20
81.2954025268555
40
0.0
41
0.0
42
0.0
10
84.9990005493164
20
81.2954025268555
40
0.0
41
0.0
42
0.0
10
84.9989013671875
20
81.3719024658203
40
0.0
41
0.0
42
0.0
10
84.9253997802734
20
81.5099029541016
40
0.0
41
0.0
42
0.0
10
84.866096496582
20
81.6165008544922
40
0.0
41
0.0
42
0.0
10
84.7379989624023
20
82.0145034790039
40
0.0
41
0.0
42
0.0
10
84.6522979736328
20
82.4091033935547
40
0.0
41
0.0
42
0.0
10
84.6146011352539
20
82.513801574707
40
0.0
41
0.0
42
0.0
10
84.5873031616211
20
82.6207962036133
40
0.0
41
0.0
42
0.0
10
84.5283966064453
20
83.0166015625
40
0.0
41
0.0
42
0.0
10
84.5130004882812
20
83.1053009033203
40
0.0
41
0.0
42
0.0
10
84.5015029907227
20
83.486701965332
40
0.0
41
0.0
42
0.0
10
84.6834030151367
20
83.8821029663086
40
0.0
41
0.0
42
0.0
10
84.6929016113281
20
83.9177017211914
40
0.0
41
0.0
42
0.0
10
84.6930999755859
20
83.9878997802734
40
0.0
41
0.0
42
0.0
10
84.755500793457
20
84.0587005615234
40
0.0
41
0.0
42
0.0
10
84.9990005493164
20
84.1726989746094
40
0.0
41
0.0
42
0.0
10
84.9990005493164
20
84.2054977416992
40
0.0
41
0.0
42
0.0
10
84.9845962524414
20
84.2053985595703
40
0.0
41
0.0
42
0.0
10
84.7643966674805
20
84.1023025512695
40
0.0
41
0.0
42
0.0
10
84.684700012207
20
84.0120010375977
40
0.0
41
0.0
42
0.0
10
84.6844024658203
20
83.9278030395508
40
0.0
41
0.0
42
0.0
10
84.5682983398438
20
83.6755981445312
40
0.0
41
0.0
42
0.0
10
84.5
20
83.5435028076172
40
0.0
41
0.0
42
0.0
10
84.4951019287109
20
83.5178985595703
40
0.0
41
0.0
42
0.0
10
84.5081024169922
20
83.0274963378906
40
0.0
41
0.0
42
0.0
210
0.0
220
0.0
230
1.0
0
VIEWPORT
5
37
330
33
100
AcDbEntity
67
1
8
0
62
256
6
ByLayer
370
-1
48
1.0
60
0
100
AcDbViewport
10
0.0
20
0.0
30
0.0
40
297.0
41
210.0
68
1
69
1
12
50.0
22
100.0
13
0.0
23
0.0
14
10.0
24
10.0
15
10.0
25
10.0
16
0.0
26
0.0
36
1.0
17
0.0
27
0.0
37
0.0
42
50.0
43
0.0
44
0.0
45
250.0
50
0.0
51
0.0
72
1000
90
819232
110
0.0
120
0.0
130
0.0
111
1.0
121
0.0
131
0.0
112
0.0
122
1.0
132
0.0
0
ENDSEC
0
SECTION
2
OBJECTS
0
DICTIONARY
5
3D
330
0
100
AcDbDictionary
280
1
281
1
3
ACAD_GROUP
350
12
3
ACAD_LAYOUT
350
36
3
ACAD_DGNDEFINITIONS
350
F
3
ACAD_DWFDEFINITIONS
350
10
3
ACAD_PDFDEFINITIONS
350
11
3
ACAD_MLINESTYLE
350
B
3
ACAD_IMAGE_DICT
350
E
3
ACAD_IMAGE_VARS
350
21
0
DICTIONARY
5
12
330
3D
100
AcDbDictionary
280
1
281
1
0
DICTIONARY
5
36
330
3D
100
AcDbDictionary
280
1
281
1
3
Model
350
20
3
Layout1
350
38
0
DICTIONARY
5
F
330
3D
100
AcDbDictionary
280
1
281
1
0
DICTIONARY
5
10
330
3D
100
AcDbDictionary
280
1
281
1
0
DICTIONARY
5
11
330
3D
100
AcDbDictionary
280
1
281
1
0
DICTIONARY
5
B
330
3D
100
AcDbDictionary
280
1
281
1
3
Standard
350
1B
0
DICTIONARY
5
E
330
3D
100
AcDbDictionary
280
1
281
1
0
DICTIONARY
5
6
330
5
100
AcDbDictionary
280
1
281
1
3
ACAD_LAYERSTATES
360
3E
0
DICTIONARY
5
3E
330
6
100
AcDbDictionary
280
1
281
1
0
LAYOUT
5
20
330
36
100
AcDbPlotSettings
1

2
none_device
4
ISO_A4_(210.00_x_297.00_MM)
6

40
7.5
41
20.0
42
7.5
43
20.0
44
210.0
45
297.0
46
0.0
47
0.0
48
0.0
49
0.0
140
0.0
141
0.0
142
1.0
143
1.0
70
11952
72
1
73
1
74
1
7

75
0
76
0
77
2
78
300
147
1.0
148
0.0
149
0.0
100
AcDbLayout
1
Model
71
0
10
-20.0
20
-7.5
11
277.0
21
202.5
12
0.0
22
0.0
32
0.0
14
25.7
24
19.5
34
0.0
15
231.3
25
175.5
35
0.0
146
0.0
13
0.0
23
0.0
33
0.0
16
1.0
26
0.0
36
0.0
17
0.0
27
1.0
37
0.0
76
0
330
1C
0
LAYOUT
5
38
330
36
100
AcDbPlotSettings
1

2
none_device
4
ISO_A4_(210.00_x_297.00_MM)
6

40
7.5
41
20.0
42
7.5
43
20.0
44
210.0
45
297.0
46
0.0
47
0.0
48
0.0
49
0.0
140
0.0
141
0.0
142
1.0
143
1.0
70
688
72
1
73
1
74
1
7

75
0
76
0
77
2
78
300
147
1.0
148
0.0
149
0.0
100
AcDbLayout
1
Layout1
71
1
10
-20.0
20
-7.5
11
277.0
21
202.5
12
0.0
22
0.0
32
0.0
14
25.7
24
19.5
34
0.0
15
231.3
25
175.5
35
0.0
146
0.0
13
0.0
23
0.0
33
0.0
16
1.0
26
0.0
36
0.0
17
0.0
27
1.0
37
0.0
76
0
330
33
0
MLINESTYLE
5
1B
330
B
100
AcDbMlineStyle
2
Standard
70
0
3

62
256
51
90.0
52
90.0
71
2
49
0.5
62
256
6
ByLayer
49
-0.5
62
256
6
ByLayer
0
RASTERVARIABLES
5
21
330
E
100
AcDbRasterVariables
90
0
70
1
71
1
72
0
0
ENDSEC
0
EOF
