999
DXF file generated by netDxf https://github.com/haplokuon/netDxf, Copyright(C) Daniel Carvajal, Licensed under MIT
0
SECTION
2
HEADER
9
$ACADVER
1
AC1015
9
$DWGCODEPAGE
3
ANSI_1252
9
$HANDSEED
5
3A
9
$ANGBASE
50
0.0
9
$ANGDIR
70
0
9
$ATTMODE
70
1
9
$AUNITS
70
0
9
$AUPREC
70
0
9
$CECOLOR
62
256
9
$CELTSCALE
40
1.0
9
$CELTYPE
6
ByLayer
9
$CELWEIGHT
370
-1
9
$CLAYER
8
0
9
$CMLJUST
70
0
9
$CMLSCALE
40
20.0
9
$CMLSTYLE
2
Standard
9
$DIMSTYLE
2
Standard
9
$TEXTSIZE
40
2.5
9
$TEXTSTYLE
7
Standard
9
$LUNITS
70
2
9
$LUPREC
70
4
9
$MIRRTEXT
70
0
9
$EXTNAMES
290
1
9
$INSBASE
10
0.0
20
0.0
30
0.0
9
$INSUNITS
70
0
9
$LTSCALE
40
1.0
9
$LWDISPLAY
290
0
9
$PDMODE
70
0
9
$PDSIZE
40
0.0
9
$PLINEGEN
70
0
9
$PSLTSCALE
70
1
9
$SPLINESEGS
70
8
9
$SURFU
70
6
9
$SURFV
70
6
9
$TDCREATE
40
2460823.48368804
9
$TDUCREATE
40
2460823.15035471
9
$TDUPDATE
40
2460823.48368804
9
$TDUUPDATE
40
2460823.15035471
9
$TDINDWG
40
0.0
9
$UCSORG
10
0.0
20
0.0
30
0.0
9
$UCSXDIR
10
1.0
20
0.0
30
0.0
9
$UCSYDIR
10
0.0
20
1.0
30
0.0
9
$DIMADEC
70
0
9
$DIMALT
70
0
9
$DIMALTD
70
2
9
$DIMALTF
40
25.4
9
$DIMALTRND
40
0.0
9
$DIMALTTD
70
2
9
$DIMALTTZ
70
0
9
$DIMALTU
70
2
9
$DIMALTZ
70
0
9
$DIMAPOST
1

9
$DIMATFIT
70
3
9
$DIMAUNIT
70
0
9
$DIMASZ
40
0.18
9
$DIMAZIN
70
0
9
$DIMSAH
70
0
9
$DIMBLK
1

9
$DIMLDRBLK
1

9
$DIMCEN
40
0.09
9
$DIMCLRD
70
0
9
$DIMCLRE
70
0
9
$DIMCLRT
70
0
9
$DIMDEC
70
4
9
$DIMDLE
40
0.0
9
$DIMDLI
40
0.38
9
$DIMDSEP
70
46
9
$DIMEXE
40
0.18
9
$DIMEXO
40
0.0625
9
$DIMFXLON
70
0
9
$DIMFXL
40
1.0
9
$DIMGAP
40
0.09
9
$DIMJUST
70
0
9
$DIMLFAC
40
1.0
9
$DIMLUNIT
70
2
9
$DIMLWD
70
-2
9
$DIMLWE
70
-2
9
$DIMPOST
1

9
$DIMRND
40
0.0
9
$DIMSCALE
40
1.0
9
$DIMSD1
70
0
9
$DIMSD2
70
0
9
$DIMSE1
70
0
9
$DIMSE2
70
0
9
$DIMSOXD
70
0
9
$DIMTAD
70
0
9
$DIMTDEC
70
4
9
$DIMTFAC
40
1.0
9
$DIMTIH
70
0
9
$DIMTIX
70
0
9
$DIMTM
40
0.0
9
$DIMTMOVE
70
0
9
$DIMTOFL
70
0
9
$DIMTOH
70
0
9
$DIMTOL
70
0
9
$DIMLIM
70
0
9
$DIMTOLJ
70
1
9
$DIMTP
40
0.0
9
$DIMTXT
40
0.18
9
$DIMTXTDIRECTION
70
0
9
$DIMTZIN
70
0
9
$DIMZIN
70
0
9
$DIMFRAC
70
0
9
$DIMLTYPE
6
ByBlock
9
$DIMLTEX1
6
ByBlock
9
$DIMLTEX2
6
ByBlock
0
ENDSEC
0
SECTION
2
CLASSES
0
CLASS
1
RASTERVARIABLES
2
AcDbRasterVariables
3
ISM
90
0
280
0
281
0
0
ENDSEC
0
SECTION
2
TABLES
0
TABLE
2
APPID
5
4
330
0
100
AcDbSymbolTable
70
5
0
APPID
5
19
330
4
100
AcDbSymbolTableRecord
100
AcDbRegAppTableRecord
2
ACAD
70
0
0
APPID
5
34
330
4
100
AcDbSymbolTableRecord
100
AcDbRegAppTableRecord
2
AcCmTransparency
70
0
0
APPID
5
35
330
4
100
AcDbSymbolTableRecord
100
AcDbRegAppTableRecord
2
AcAecLayerStandard
70
0
0
APPID
5
36
330
4
100
AcDbSymbolTableRecord
100
AcDbRegAppTableRecord
2
GradientColor1ACI
70
0
0
APPID
5
37
330
4
100
AcDbSymbolTableRecord
100
AcDbRegAppTableRecord
2
GradientColor2ACI
70
0
0
ENDTAB
0
TABLE
2
VPORT
5
1
330
0
100
AcDbSymbolTable
70
1
0
VPORT
5
2
330
1
100
AcDbSymbolTableRecord
100
AcDbViewportTableRecord
2
*Active
70
0
10
0.0
20
0.0
11
1.0
21
1.0
12
0.0
22
0.0
13
0.0
23
0.0
14
0.5
24
0.5
15
10.0
25
10.0
16
0.0
26
0.0
36
1.0
17
0.0
27
0.0
37
0.0
40
10.0
41
1.0
75
0
76
1
0
ENDTAB
0
TABLE
2
LTYPE
5
7
330
0
100
AcDbSymbolTable
70
3
0
LTYPE
5
15
330
7
100
AcDbSymbolTableRecord
100
AcDbLinetypeTableRecord
2
Continuous
70
0
3
Solid line
72
65
73
0
40
0.0
0
LTYPE
5
16
330
7
100
AcDbSymbolTableRecord
100
AcDbLinetypeTableRecord
2
ByLayer
70
0
3

72
65
73
0
40
0.0
0
LTYPE
5
17
330
7
100
AcDbSymbolTableRecord
100
AcDbLinetypeTableRecord
2
ByBlock
70
0
3

72
65
73
0
40
0.0
0
ENDTAB
0
TABLE
2
LAYER
5
5
102
{ACAD_XDICTIONARY
360
6
102
}
330
0
100
AcDbSymbolTable
70
1
0
LAYER
5
14
330
5
100
AcDbSymbolTableRecord
100
AcDbLayerTableRecord
2
0
70
0
62
7
6
Continuous
290
1
370
-3
390
0
0
ENDTAB
0
TABLE
2
STYLE
5
8
330
0
100
AcDbSymbolTable
70
1
0
STYLE
5
18
330
8
100
AcDbSymbolTableRecord
100
AcDbTextStyleTableRecord
2
Standard
3
simplex.shx
70
0
71
0
40
0.0
41
1.0
42
0.0
50
0.0
0
ENDTAB
0
TABLE
2
DIMSTYLE
5
A
330
0
100
AcDbSymbolTable
70
1
100
AcDbDimStyleTable
0
DIMSTYLE
105
1A
330
A
100
AcDbSymbolTableRecord
100
AcDbDimStyleTableRecord
2
Standard
3

4

40
1.0
41
0.18
42
0.0625
43
0.38
44
0.18
45
0.0
46
0.0
47
0.0
48
0.0
49
1.0
70
0
71
0
72
0
73
0
74
0
75
0
76
0
77
0
78
0
79
0
140
0.18
141
0.09
143
25.4
144
1.0
146
1.0
147
0.09
148
0.0
170
0
171
2
172
0
174
0
175
0
176
0
177
0
178
0
179
0
271
4
272
4
273
2
274
2
275
0
276
0
277
2
278
46
279
0
280
0
281
0
282
0
283
1
284
0
285
0
286
0
289
3
290
0
294
0
340
18
173
0
345
17
346
17
347
17
371
-2
372
-2
0
ENDTAB
0
TABLE
2
VIEW
5
3
330
0
100
AcDbSymbolTable
70
0
0
ENDTAB
0
TABLE
2
UCS
5
C
330
0
100
AcDbSymbolTable
70
0
0
ENDTAB
0
TABLE
2
BLOCK_RECORD
5
D
330
0
100
AcDbSymbolTable
70
2
0
BLOCK_RECORD
5
1C
330
D
100
AcDbSymbolTableRecord
100
AcDbBlockTableRecord
2
*Model_Space
340
20
0
BLOCK_RECORD
5
2E
330
D
100
AcDbSymbolTableRecord
100
AcDbBlockTableRecord
2
*Paper_Space
340
33
0
ENDTAB
0
ENDSEC
0
SECTION
2
BLOCKS
0
BLOCK
5
1E
330
1C
100
AcDbEntity
67
0
8
0
100
AcDbBlockBegin
2
*Model_Space
70
0
10
0.0
20
0.0
30
0.0
3
*Model_Space
4

0
ENDBLK
5
1D
330
1C
100
AcDbEntity
8
0
100
AcDbBlockEnd
0
BLOCK
5
30
330
2E
100
AcDbEntity
67
1
8
0
100
AcDbBlockBegin
2
*Paper_Space
70
0
10
0.0
20
0.0
30
0.0
3
*Paper_Space
4

0
ENDBLK
5
2F
330
2E
100
AcDbEntity
8
0
100
AcDbBlockEnd
0
ENDSEC
0
SECTION
2
ENTITIES
0
LWPOLYLINE
5
22
330
1C
100
AcDbEntity
67
0
8
0
62
256
6
ByLayer
370
-1
48
1.0
60
0
100
AcDbPolyline
90
29
70
1
38
0.0
39
0.0
10
65.0009994506836
20
68.5093002319336
40
0.0
41
0.0
42
0.0
10
65.0066986083984
20
68.5093002319336
40
0.0
41
0.0
42
0.0
10
65.0188980102539
20
68.535400390625
40
0.0
41
0.0
42
0.0
10
65.1507034301758
20
68.984001159668
40
0.0
41
0.0
42
0.0
10
65.2017974853516
20
69.4816970825195
40
0.0
41
0.0
42
0.0
10
65.2063980102539
20
69.5558013916016
40
0.0
41
0.0
42
0.0
10
65.2155990600586
20
69.980598449707
40
0.0
41
0.0
42
0.0
10
65.2186965942383
20
70.0553970336914
40
0.0
41
0.0
42
0.0
10
65.2185974121094
20
70.0944976806641
40
0.0
41
0.0
42
0.0
10
65.2001037597656
20
70.5195007324219
40
0.0
41
0.0
42
0.0
10
65.1997985839844
20
70.5932998657227
40
0.0
41
0.0
42
0.0
10
65.133903503418
20
71.0169982910156
40
0.0
41
0.0
42
0.0
10
65.125
20
71.0897979736328
40
0.0
41
0.0
42
0.0
10
65.0365982055664
20
71.3160018920898
40
0.0
41
0.0
42
0.0
10
65.0050964355469
20
71.404899597168
40
0.0
41
0.0
42
0.0
10
65.0009994506836
20
71.404899597168
40
0.0
41
0.0
42
0.0
10
65.0009002685547
20
71.3121032714844
40
0.0
41
0.0
42
0.0
10
65.0661010742188
20
71.1287994384766
40
0.0
41
0.0
42
0.0
10
65.1084976196289
20
71.0201034545898
40
0.0
41
0.0
42
0.0
10
65.1130981445312
20
70.9828033447266
40
0.0
41
0.0
42
0.0
10
65.1854019165039
20
70.5166015625
40
0.0
41
0.0
42
0.0
10
65.1856002807617
20
70.4804000854492
40
0.0
41
0.0
42
0.0
10
65.2052001953125
20
70.0343017578125
40
0.0
41
0.0
42
0.0
10
65.1945037841797
20
69.5541000366211
40
0.0
41
0.0
42
0.0
10
65.1921997070312
20
69.5182037353516
40
0.0
41
0.0
42
0.0
10
65.1408996582031
20
69.0158996582031
40
0.0
41
0.0
42
0.0
10
65.00830078125
20
68.5649032592773
40
0.0
41
0.0
42
0.0
10
65.0009994506836
20
68.549201965332
40
0.0
41
0.0
42
0.0
10
65.0009994506836
20
68.5093002319336
40
0.0
41
0.0
42
0.0
210
0.0
220
0.0
230
1.0
0
LWPOLYLINE
5
23
330
1C
100
AcDbEntity
67
0
8
0
62
256
6
ByLayer
370
-1
48
1.0
60
0
100
AcDbPolyline
90
37
70
1
38
0.0
39
0.0
10
65.0009994506836
20
78.9362030029297
40
0.0
41
0.0
42
0.0
10
65.0009994506836
20
78.9000015258789
40
0.0
41
0.0
42
0.0
10
65.0112991333008
20
78.9000015258789
40
0.0
41
0.0
42
0.0
10
65.0621032714844
20
78.9501037597656
40
0.0
41
0.0
42
0.0
10
65.0989990234375
20
78.9922027587891
40
0.0
41
0.0
42
0.0
10
65.385498046875
20
79.4886016845703
40
0.0
41
0.0
42
0.0
10
65.5002975463867
20
79.8408966064453
40
0.0
41
0.0
42
0.0
10
65.5342025756836
20
79.9164962768555
40
0.0
41
0.0
42
0.0
10
65.5543975830078
20
79.9849014282227
40
0.0
41
0.0
42
0.0
10
65.6335983276367
20
80.4083023071289
40
0.0
41
0.0
42
0.0
10
65.6438980102539
20
80.4823989868164
40
0.0
41
0.0
42
0.0
10
65.6897964477539
20
80.9816970825195
40
0.0
41
0.0
42
0.0
10
65.6960983276367
20
81.0656967163086
40
0.0
41
0.0
42
0.0
10
65.7089004516602
20
81.5692977905273
40
0.0
41
0.0
42
0.0
10
65.7088012695312
20
81.6080017089844
40
0.0
41
0.0
42
0.0
10
65.6679000854492
20
82.0143966674805
40
0.0
41
0.0
42
0.0
10
65.5436019897461
20
82.2892990112305
40
0.0
41
0.0
42
0.0
10
65.5046997070312
20
82.3852005004883
40
0.0
41
0.0
42
0.0
10
65.0612030029297
20
82.4749984741211
40
0.0
41
0.0
42
0.0
10
65.0160980224609
20
82.4919967651367
40
0.0
41
0.0
42
0.0
10
65.0009994506836
20
82.4919967651367
40
0.0
41
0.0
42
0.0
10
65.0009002685547
20
82.4520034790039
40
0.0
41
0.0
42
0.0
10
65.274299621582
20
82.3488998413086
40
0.0
41
0.0
42
0.0
10
65.4951019287109
20
82.30419921875
40
0.0
41
0.0
42
0.0
10
65.5708999633789
20
82.1177978515625
40
0.0
41
0.0
42
0.0
10
65.6306991577148
20
81.9853973388672
40
0.0
41
0.0
42
0.0
10
65.6761016845703
20
81.532600402832
40
0.0
41
0.0
42
0.0
10
65.6651000976562
20
81.0582962036133
40
0.0
41
0.0
42
0.0
10
65.6162033081055
20
80.5176010131836
40
0.0
41
0.0
42
0.0
10
65.611198425293
20
80.4815979003906
40
0.0
41
0.0
42
0.0
10
65.5239028930664
20
80.0150985717773
40
0.0
41
0.0
42
0.0
10
65.5142974853516
20
79.9822998046875
40
0.0
41
0.0
42
0.0
10
65.4994964599609
20
79.9494018554688
40
0.0
41
0.0
42
0.0
10
65.3569030761719
20
79.5113983154297
40
0.0
41
0.0
42
0.0
10
65.0662994384766
20
79.007698059082
40
0.0
41
0.0
42
0.0
10
65.022102355957
20
78.9570007324219
40
0.0
41
0.0
42
0.0
10
65.0009994506836
20
78.9362030029297
40
0.0
41
0.0
42
0.0
210
0.0
220
0.0
230
1.0
0
LWPOLYLINE
5
24
330
1C
100
AcDbEntity
67
0
8
0
62
256
6
ByLayer
370
-1
48
1.0
60
0
100
AcDbPolyline
90
568
70
1
38
0.0
39
0.0
10
66.7302017211914
20
71.9870986938477
40
0.0
41
0.0
42
0.0
10
66.9197998046875
20
71.6787033081055
40
0.0
41
0.0
42
0.0
10
67.0515975952148
20
71.493896484375
40
0.0
41
0.0
42
0.0
10
67.07080078125
20
71.4760971069336
40
0.0
41
0.0
42
0.0
10
67.4175033569336
20
71.19580078125
40
0.0
41
0.0
42
0.0
10
67.4912033081055
20
71.1448974609375
40
0.0
41
0.0
42
0.0
10
67.7371978759766
20
71.0018005371094
40
0.0
41
0.0
42
0.0
10
67.8115005493164
20
70.9636993408203
40
0.0
41
0.0
42
0.0
10
67.9876022338867
20
70.8781967163086
40
0.0
41
0.0
42
0.0
10
68.4119033813477
20
70.7514038085938
40
0.0
41
0.0
42
0.0
10
68.4841003417969
20
70.7219009399414
40
0.0
41
0.0
42
0.0
10
68.9085998535156
20
70.7182998657227
40
0.0
41
0.0
42
0.0
10
68.9835968017578
20
70.6919021606445
40
0.0
41
0.0
42
0.0
10
69.0134963989258
20
70.6918029785156
40
0.0
41
0.0
42
0.0
10
69.3172988891602
20
70.8998031616211
40
0.0
41
0.0
42
0.0
10
69.443000793457
20
70.9949035644531
40
0.0
41
0.0
42
0.0
10
69.5011978149414
20
71.0742034912109
40
0.0
41
0.0
42
0.0
10
69.5392990112305
20
71.178596496582
40
0.0
41
0.0
42
0.0
10
69.6541976928711
20
71.4111022949219
40
0.0
41
0.0
42
0.0
10
69.6633987426758
20
71.4848022460938
40
0.0
41
0.0
42
0.0
10
69.7132034301758
20
71.6268997192383
40
0.0
41
0.0
42
0.0
10
69.8462982177734
20
71.9877014160156
40
0.0
41
0.0
42
0.0
10
70.0010986328125
20
72.3501968383789
40
0.0
41
0.0
42
0.0
10
70.0815963745117
20
72.4922027587891
40
0.0
41
0.0
42
0.0
10
70.5093002319336
20
72.9798965454102
40
0.0
41
0.0
42
0.0
10
70.6516036987305
20
73.0001983642578
40
0.0
41
0.0
42
0.0
10
70.8215026855469
20
73.0952987670898
40
0.0
41
0.0
42
0.0
10
70.9853973388672
20
73.0376968383789
40
0.0
41
0.0
42
0.0
10
71.1854019165039
20
73.0007019042969
40
0.0
41
0.0
42
0.0
10
71.4169998168945
20
72.9712982177734
40
0.0
41
0.0
42
0.0
10
71.4539031982422
20
72.9713973999023
40
0.0
41
0.0
42
0.0
10
71.5010986328125
20
72.9789962768555
40
0.0
41
0.0
42
0.0
10
71.9059982299805
20
72.9293975830078
40
0.0
41
0.0
42
0.0
10
71.9878005981445
20
72.9310989379883
40
0.0
41
0.0
42
0.0
10
72.410400390625
20
72.8087997436523
40
0.0
41
0.0
42
0.0
10
72.4935989379883
20
72.7876968383789
40
0.0
41
0.0
42
0.0
10
72.6472015380859
20
72.5251007080078
40
0.0
41
0.0
42
0.0
10
72.6596984863281
20
72.4839019775391
40
0.0
41
0.0
42
0.0
10
72.6940994262695
20
72.0780029296875
40
0.0
41
0.0
42
0.0
10
72.6871032714844
20
72.0186996459961
40
0.0
41
0.0
42
0.0
10
72.6869964599609
20
71.9806976318359
40
0.0
41
0.0
42
0.0
10
72.715202331543
20
71.5836029052734
40
0.0
41
0.0
42
0.0
10
72.6699981689453
20
71.3532028198242
40
0.0
41
0.0
42
0.0
10
72.6698989868164
20
71.3165969848633
40
0.0
41
0.0
42
0.0
10
72.7086029052734
20
71.0082015991211
40
0.0
41
0.0
42
0.0
10
72.4974975585938
20
70.5747985839844
40
0.0
41
0.0
42
0.0
10
72.4348983764648
20
70.5046005249023
40
0.0
41
0.0
42
0.0
10
72.3404006958008
20
70.4293975830078
40
0.0
41
0.0
42
0.0
10
71.8991012573242
20
70.2296981811523
40
0.0
41
0.0
42
0.0
10
71.4854965209961
20
70.0992965698242
40
0.0
41
0.0
42
0.0
10
71.3627014160156
20
70.0703964233398
40
0.0
41
0.0
42
0.0
10
71.1158981323242
20
69.9998016357422
40
0.0
41
0.0
42
0.0
10
70.9858016967773
20
69.9592971801758
40
0.0
41
0.0
42
0.0
10
70.8077011108398
20
69.9113998413086
40
0.0
41
0.0
42
0.0
10
70.4927978515625
20
69.7661972045898
40
0.0
41
0.0
42
0.0
10
70.3449020385742
20
69.5971984863281
40
0.0
41
0.0
42
0.0
10
70.2537994384766
20
69.5109024047852
40
0.0
41
0.0
42
0.0
10
70.2537994384766
20
69.4811019897461
40
0.0
41
0.0
42
0.0
10
70.2658004760742
20
69.3757019042969
40
0.0
41
0.0
42
0.0
10
70.182502746582
20
69.0175018310547
40
0.0
41
0.0
42
0.0
10
70.1824035644531
20
68.9832992553711
40
0.0
41
0.0
42
0.0
10
70.2073974609375
20
68.9068984985352
40
0.0
41
0.0
42
0.0
10
70.2690963745117
20
68.4852981567383
40
0.0
41
0.0
42
0.0
10
70.2970962524414
20
68.4122009277344
40
0.0
41
0.0
42
0.0
10
70.445198059082
20
67.9882965087891
40
0.0
41
0.0
42
0.0
10
70.4981002807617
20
67.8872985839844
40
0.0
41
0.0
42
0.0
10
70.7492980957031
20
67.4924011230469
40
0.0
41
0.0
42
0.0
10
70.904296875
20
67.3099975585938
40
0.0
41
0.0
42
0.0
10
70.9928970336914
20
67.2182006835938
40
0.0
41
0.0
42
0.0
10
71.3879013061523
20
66.9973983764648
40
0.0
41
0.0
42
0.0
10
71.4095001220703
20
66.9806976318359
40
0.0
41
0.0
42
0.0
10
71.4126968383789
20
66.9791030883789
40
0.0
41
0.0
42
0.0
10
71.4843978881836
20
66.9577026367188
40
0.0
41
0.0
42
0.0
10
71.9064025878906
20
66.8991012573242
40
0.0
41
0.0
42
0.0
10
71.9443969726562
20
66.8990020751953
40
0.0
41
0.0
42
0.0
10
72.0178985595703
20
66.9028015136719
40
0.0
41
0.0
42
0.0
10
72.4412002563477
20
66.964599609375
40
0.0
41
0.0
42
0.0
10
72.5142974853516
20
66.9806976318359
40
0.0
41
0.0
42
0.0
10
72.5687026977539
20
66.9990997314453
40
0.0
41
0.0
42
0.0
10
73.011100769043
20
67.160400390625
40
0.0
41
0.0
42
0.0
10
73.4355010986328
20
67.4024963378906
40
0.0
41
0.0
42
0.0
10
73.5851974487305
20
67.4693984985352
40
0.0
41
0.0
42
0.0
10
73.6280975341797
20
67.4953002929688
40
0.0
41
0.0
42
0.0
10
73.9336013793945
20
67.9860000610352
40
0.0
41
0.0
42
0.0
10
73.9335021972656
20
68.0177993774414
40
0.0
41
0.0
42
0.0
10
73.8331985473633
20
68.5129013061523
40
0.0
41
0.0
42
0.0
10
73.8026962280273
20
68.572998046875
40
0.0
41
0.0
42
0.0
10
73.5593032836914
20
69.0860977172852
40
0.0
41
0.0
42
0.0
10
73.5008010864258
20
69.2147979736328
40
0.0
41
0.0
42
0.0
10
73.3572006225586
20
69.5129013061523
40
0.0
41
0.0
42
0.0
10
73.3328018188477
20
69.6172027587891
40
0.0
41
0.0
42
0.0
10
73.1918029785156
20
70.0022964477539
40
0.0
41
0.0
42
0.0
10
73.2272033691406
20
70.1372985839844
40
0.0
41
0.0
42
0.0
10
73.2270965576172
20
70.1738967895508
40
0.0
41
0.0
42
0.0
10
73.2088012695312
20
70.4927978515625
40
0.0
41
0.0
42
0.0
10
73.5067977905273
20
70.6682968139648
40
0.0
41
0.0
42
0.0
10
73.6692962646484
20
70.8392028808594
40
0.0
41
0.0
42
0.0
10
73.7345962524414
20
70.9176025390625
40
0.0
41
0.0
42
0.0
10
73.7879028320312
20
70.9957962036133
40
0.0
41
0.0
42
0.0
10
74.0114974975586
20
71.124397277832
40
0.0
41
0.0
42
0.0
10
74.3668975830078
20
71.4200973510742
40
0.0
41
0.0
42
0.0
10
74.4340972900391
20
71.4949035644531
40
0.0
41
0.0
42
0.0
10
74.4999008178711
20
71.5522994995117
40
0.0
41
0.0
42
0.0
10
74.5067977905273
20
71.5625
40
0.0
41
0.0
42
0.0
10
74.9402008056641
20
71.6843032836914
40
0.0
41
0.0
42
0.0
10
74.9929962158203
20
71.6938018798828
40
0.0
41
0.0
42
0.0
10
75.185302734375
20
71.5119018554688
40
0.0
41
0.0
42
0.0
10
75.1955032348633
20
71.4908981323242
40
0.0
41
0.0
42
0.0
10
75.2485961914062
20
71.4195022583008
40
0.0
41
0.0
42
0.0
10
75.4933013916016
20
71.2189025878906
40
0.0
41
0.0
42
0.0
10
75.7627029418945
20
70.9947967529297
40
0.0
41
0.0
42
0.0
10
75.9069976806641
20
70.8200988769531
40
0.0
41
0.0
42
0.0
10
75.9949035644531
20
70.693000793457
40
0.0
41
0.0
42
0.0
10
76.2938003540039
20
70.4921035766602
40
0.0
41
0.0
42
0.0
10
76.3458023071289
20
70.1390991210938
40
0.0
41
0.0
42
0.0
10
76.3880004882812
20
69.9994964599609
40
0.0
41
0.0
42
0.0
10
76.3492965698242
20
69.8621978759766
40
0.0
41
0.0
42
0.0
10
76.2285995483398
20
69.5113983154297
40
0.0
41
0.0
42
0.0
10
75.9984970092773
20
69.0926971435547
40
0.0
41
0.0
42
0.0
10
75.9549026489258
20
69.0096969604492
40
0.0
41
0.0
42
0.0
10
75.8893966674805
20
68.9005966186523
40
0.0
41
0.0
42
0.0
10
75.8059997558594
20
68.7547988891602
40
0.0
41
0.0
42
0.0
10
75.6577987670898
20
68.5110015869141
40
0.0
41
0.0
42
0.0
10
75.499397277832
20
68.0512008666992
40
0.0
41
0.0
42
0.0
10
75.4813995361328
20
68.0149993896484
40
0.0
41
0.0
42
0.0
10
75.4813003540039
20
67.9859008789062
40
0.0
41
0.0
42
0.0
10
75.4863967895508
20
67.9777984619141
40
0.0
41
0.0
42
0.0
10
75.499397277832
20
67.9492034912109
40
0.0
41
0.0
42
0.0
10
75.660400390625
20
67.4926986694336
40
0.0
41
0.0
42
0.0
10
75.8034973144531
20
67.380500793457
40
0.0
41
0.0
42
0.0
10
75.9921035766602
20
67.2404022216797
40
0.0
41
0.0
42
0.0
10
76.3414001464844
20
66.9979019165039
40
0.0
41
0.0
42
0.0
10
76.4141998291016
20
66.9607009887695
40
0.0
41
0.0
42
0.0
10
76.4881973266602
20
66.9255981445312
40
0.0
41
0.0
42
0.0
10
76.9119033813477
20
66.7652969360352
40
0.0
41
0.0
42
0.0
10
76.9847030639648
20
66.7414016723633
40
0.0
41
0.0
42
0.0
10
77.0865020751953
20
66.7272033691406
40
0.0
41
0.0
42
0.0
10
77.4815979003906
20
66.6632995605469
40
0.0
41
0.0
42
0.0
10
77.5185012817383
20
66.6632995605469
40
0.0
41
0.0
42
0.0
10
78.0127029418945
20
66.7304000854492
40
0.0
41
0.0
42
0.0
10
78.3259963989258
20
66.9224014282227
40
0.0
41
0.0
42
0.0
10
78.4279022216797
20
66.9971008300781
40
0.0
41
0.0
42
0.0
10
78.5059967041016
20
67.0516967773438
40
0.0
41
0.0
42
0.0
10
78.5235977172852
20
67.07080078125
40
0.0
41
0.0
42
0.0
10
78.8039016723633
20
67.4175033569336
40
0.0
41
0.0
42
0.0
10
78.8547973632812
20
67.4912033081055
40
0.0
41
0.0
42
0.0
10
79.0014038085938
20
67.7432022094727
40
0.0
41
0.0
42
0.0
10
79.1220016479492
20
67.9886016845703
40
0.0
41
0.0
42
0.0
10
79.1520004272461
20
68.0619964599609
40
0.0
41
0.0
42
0.0
10
79.2778015136719
20
68.4831008911133
40
0.0
41
0.0
42
0.0
10
79.2814025878906
20
68.9086990356445
40
0.0
41
0.0
42
0.0
10
79.3079986572266
20
68.9835968017578
40
0.0
41
0.0
42
0.0
10
79.3078994750977
20
69.0133972167969
40
0.0
41
0.0
42
0.0
10
79.0998992919922
20
69.3172988891602
40
0.0
41
0.0
42
0.0
10
79.004997253418
20
69.443000793457
40
0.0
41
0.0
42
0.0
10
78.9235992431641
20
69.5026016235352
40
0.0
41
0.0
42
0.0
10
78.8223037719727
20
69.5691986083984
40
0.0
41
0.0
42
0.0
10
78.5896987915039
20
69.6541976928711
40
0.0
41
0.0
42
0.0
10
78.5483016967773
20
69.6604995727539
40
0.0
41
0.0
42
0.0
10
78.5155029296875
20
69.6632995605469
40
0.0
41
0.0
42
0.0
10
78.3729019165039
20
69.7132034301758
40
0.0
41
0.0
42
0.0
10
78.0121994018555
20
69.8461990356445
40
0.0
41
0.0
42
0.0
10
77.6495971679688
20
70.0010986328125
40
0.0
41
0.0
42
0.0
10
77.507698059082
20
70.0814971923828
40
0.0
41
0.0
42
0.0
10
77.0198974609375
20
70.5093002319336
40
0.0
41
0.0
42
0.0
10
76.9996032714844
20
70.6516036987305
40
0.0
41
0.0
42
0.0
10
76.9044036865234
20
70.8215026855469
40
0.0
41
0.0
42
0.0
10
76.9620971679688
20
70.9853973388672
40
0.0
41
0.0
42
0.0
10
76.9990997314453
20
71.1854019165039
40
0.0
41
0.0
42
0.0
10
77.0285034179688
20
71.4170989990234
40
0.0
41
0.0
42
0.0
10
77.0283966064453
20
71.4539031982422
40
0.0
41
0.0
42
0.0
10
77.0206985473633
20
71.5010986328125
40
0.0
41
0.0
42
0.0
10
77.0702972412109
20
71.9059982299805
40
0.0
41
0.0
42
0.0
10
77.068603515625
20
71.9879989624023
40
0.0
41
0.0
42
0.0
10
77.0869979858398
20
72.0605010986328
40
0.0
41
0.0
42
0.0
10
77.21240234375
20
72.493896484375
40
0.0
41
0.0
42
0.0
10
77.4747009277344
20
72.6472015380859
40
0.0
41
0.0
42
0.0
10
77.515998840332
20
72.6596984863281
40
0.0
41
0.0
42
0.0
10
77.9218978881836
20
72.6940994262695
40
0.0
41
0.0
42
0.0
10
77.981201171875
20
72.6871032714844
40
0.0
41
0.0
42
0.0
10
78.0192031860352
20
72.6869964599609
40
0.0
41
0.0
42
0.0
10
78.4162979125977
20
72.715202331543
40
0.0
41
0.0
42
0.0
10
78.646598815918
20
72.6699981689453
40
0.0
41
0.0
42
0.0
10
78.6831970214844
20
72.6698989868164
40
0.0
41
0.0
42
0.0
10
78.99169921875
20
72.7085037231445
40
0.0
41
0.0
42
0.0
10
79.4250030517578
20
72.4974975585938
40
0.0
41
0.0
42
0.0
10
79.4952011108398
20
72.4348983764648
40
0.0
41
0.0
42
0.0
10
79.5703964233398
20
72.3404006958008
40
0.0
41
0.0
42
0.0
10
79.7701034545898
20
71.8991012573242
40
0.0
41
0.0
42
0.0
10
79.9001998901367
20
71.4858016967773
40
0.0
41
0.0
42
0.0
10
80.0000991821289
20
71.1156997680664
40
0.0
41
0.0
42
0.0
10
80.040397644043
20
70.9858016967773
40
0.0
41
0.0
42
0.0
10
80.0883026123047
20
70.8077011108398
40
0.0
41
0.0
42
0.0
10
80.2334976196289
20
70.4927978515625
40
0.0
41
0.0
42
0.0
10
80.4026031494141
20
70.3449020385742
40
0.0
41
0.0
42
0.0
10
80.488899230957
20
70.2537994384766
40
0.0
41
0.0
42
0.0
10
80.518798828125
20
70.2537994384766
40
0.0
41
0.0
42
0.0
10
80.6240997314453
20
70.2658004760742
40
0.0
41
0.0
42
0.0
10
80.9823989868164
20
70.182502746582
40
0.0
41
0.0
42
0.0
10
81.0166015625
20
70.1824035644531
40
0.0
41
0.0
42
0.0
10
81.092903137207
20
70.2073974609375
40
0.0
41
0.0
42
0.0
10
81.5146026611328
20
70.2690963745117
40
0.0
41
0.0
42
0.0
10
81.5876998901367
20
70.2972030639648
40
0.0
41
0.0
42
0.0
10
82.0115966796875
20
70.445198059082
40
0.0
41
0.0
42
0.0
10
82.1123962402344
20
70.4981002807617
40
0.0
41
0.0
42
0.0
10
82.5074996948242
20
70.7492980957031
40
0.0
41
0.0
42
0.0
10
82.6912994384766
20
70.9056015014648
40
0.0
41
0.0
42
0.0
10
82.7149963378906
20
70.9210968017578
40
0.0
41
0.0
42
0.0
10
82.7811965942383
20
70.9924011230469
40
0.0
41
0.0
42
0.0
10
83.0022964477539
20
71.3880004882812
40
0.0
41
0.0
42
0.0
10
83.0189971923828
20
71.4095001220703
40
0.0
41
0.0
42
0.0
10
83.0205993652344
20
71.4128036499023
40
0.0
41
0.0
42
0.0
10
83.0416030883789
20
71.4830017089844
40
0.0
41
0.0
42
0.0
10
83.0416030883789
20
71.519401550293
40
0.0
41
0.0
42
0.0
10
83.0391998291016
20
71.5667037963867
40
0.0
41
0.0
42
0.0
10
83.0969009399414
20
71.9813995361328
40
0.0
41
0.0
42
0.0
10
83.0967025756836
20
72.0176010131836
40
0.0
41
0.0
42
0.0
10
83.0805969238281
20
72.0912017822266
40
0.0
41
0.0
42
0.0
10
83.0186004638672
20
72.5149993896484
40
0.0
41
0.0
42
0.0
10
83.0000991821289
20
72.5702972412109
40
0.0
41
0.0
42
0.0
10
82.838996887207
20
73.0121002197266
40
0.0
41
0.0
42
0.0
10
82.806396484375
20
73.0854034423828
40
0.0
41
0.0
42
0.0
10
82.5639038085938
20
73.5103988647461
40
0.0
41
0.0
42
0.0
10
82.530403137207
20
73.5851974487305
40
0.0
41
0.0
42
0.0
10
82.5045013427734
20
73.6279983520508
40
0.0
41
0.0
42
0.0
10
82.0139007568359
20
73.9336013793945
40
0.0
41
0.0
42
0.0
10
81.9821014404297
20
73.9335021972656
40
0.0
41
0.0
42
0.0
10
81.4869003295898
20
73.8332977294922
40
0.0
41
0.0
42
0.0
10
81.4268035888672
20
73.8028030395508
40
0.0
41
0.0
42
0.0
10
80.9138031005859
20
73.5594024658203
40
0.0
41
0.0
42
0.0
10
80.7850036621094
20
73.5009002685547
40
0.0
41
0.0
42
0.0
10
80.4869995117188
20
73.3572006225586
40
0.0
41
0.0
42
0.0
10
80.3825988769531
20
73.3328018188477
40
0.0
41
0.0
42
0.0
10
79.9975967407227
20
73.1918029785156
40
0.0
41
0.0
42
0.0
10
79.8625030517578
20
73.2272033691406
40
0.0
41
0.0
42
0.0
10
79.8258972167969
20
73.2270965576172
40
0.0
41
0.0
42
0.0
10
79.5070037841797
20
73.2087020874023
40
0.0
41
0.0
42
0.0
10
79.3322982788086
20
73.5054016113281
40
0.0
41
0.0
42
0.0
10
79.2950973510742
20
73.5319976806641
40
0.0
41
0.0
42
0.0
10
79.0817031860352
20
73.7350006103516
40
0.0
41
0.0
42
0.0
10
79.0040969848633
20
73.7878036499023
40
0.0
41
0.0
42
0.0
10
78.8753967285156
20
74.0114974975586
40
0.0
41
0.0
42
0.0
10
78.5796966552734
20
74.3668975830078
40
0.0
41
0.0
42
0.0
10
78.5048980712891
20
74.4339981079102
40
0.0
41
0.0
42
0.0
10
78.4475021362305
20
74.4999008178711
40
0.0
41
0.0
42
0.0
10
78.4363021850586
20
74.5074996948242
40
0.0
41
0.0
42
0.0
10
78.421501159668
20
74.590202331543
40
0.0
41
0.0
42
0.0
10
78.3077011108398
20
74.9949035644531
40
0.0
41
0.0
42
0.0
10
78.4878005981445
20
75.1854019165039
40
0.0
41
0.0
42
0.0
10
78.5090026855469
20
75.1956024169922
40
0.0
41
0.0
42
0.0
10
78.5802993774414
20
75.2487030029297
40
0.0
41
0.0
42
0.0
10
78.7807998657227
20
75.4933013916016
40
0.0
41
0.0
42
0.0
10
79.0050964355469
20
75.7627029418945
40
0.0
41
0.0
42
0.0
10
79.1797027587891
20
75.907096862793
40
0.0
41
0.0
42
0.0
10
79.3067016601562
20
75.995002746582
40
0.0
41
0.0
42
0.0
10
79.507698059082
20
76.2938003540039
40
0.0
41
0.0
42
0.0
10
79.8607025146484
20
76.3458023071289
40
0.0
41
0.0
42
0.0
10
80.0005035400391
20
76.3880004882812
40
0.0
41
0.0
42
0.0
10
80.1376037597656
20
76.3491973876953
40
0.0
41
0.0
42
0.0
10
80.4885025024414
20
76.2285003662109
40
0.0
41
0.0
42
0.0
10
80.907096862793
20
75.9983978271484
40
0.0
41
0.0
42
0.0
10
80.9901962280273
20
75.9549026489258
40
0.0
41
0.0
42
0.0
10
81.0991973876953
20
75.8892974853516
40
0.0
41
0.0
42
0.0
10
81.245002746582
20
75.8059005737305
40
0.0
41
0.0
42
0.0
10
81.488899230957
20
75.6577987670898
40
0.0
41
0.0
42
0.0
10
81.948600769043
20
75.4992980957031
40
0.0
41
0.0
42
0.0
10
81.9849014282227
20
75.4813995361328
40
0.0
41
0.0
42
0.0
10
82.0149002075195
20
75.4813995361328
40
0.0
41
0.0
42
0.0
10
82.0502014160156
20
75.4992980957031
40
0.0
41
0.0
42
0.0
10
82.5072021484375
20
75.660400390625
40
0.0
41
0.0
42
0.0
10
82.7068023681641
20
75.9173965454102
40
0.0
41
0.0
42
0.0
10
83.0018005371094
20
76.3414993286133
40
0.0
41
0.0
42
0.0
10
83.0390014648438
20
76.4141998291016
40
0.0
41
0.0
42
0.0
10
83.0740966796875
20
76.4881973266602
40
0.0
41
0.0
42
0.0
10
83.2343978881836
20
76.9120025634766
40
0.0
41
0.0
42
0.0
10
83.25830078125
20
76.9847030639648
40
0.0
41
0.0
42
0.0
10
83.2724990844727
20
77.0865020751953
40
0.0
41
0.0
42
0.0
10
83.3366012573242
20
77.4815979003906
40
0.0
41
0.0
42
0.0
10
83.3364028930664
20
77.5185012817383
40
0.0
41
0.0
42
0.0
10
83.2693023681641
20
78.0127029418945
40
0.0
41
0.0
42
0.0
10
83.0772018432617
20
78.3264007568359
40
0.0
41
0.0
42
0.0
10
83.0309982299805
20
78.396598815918
40
0.0
41
0.0
42
0.0
10
83.0035018920898
20
78.427001953125
40
0.0
41
0.0
42
0.0
10
82.9480972290039
20
78.5059967041016
40
0.0
41
0.0
42
0.0
10
82.9289016723633
20
78.5235977172852
40
0.0
41
0.0
42
0.0
10
82.5822982788086
20
78.8039016723633
40
0.0
41
0.0
42
0.0
10
82.5086975097656
20
78.8547973632812
40
0.0
41
0.0
42
0.0
10
82.2565994262695
20
79.0014038085938
40
0.0
41
0.0
42
0.0
10
82.0112991333008
20
79.1220016479492
40
0.0
41
0.0
42
0.0
10
81.9378967285156
20
79.1519012451172
40
0.0
41
0.0
42
0.0
10
81.5167999267578
20
79.2778015136719
40
0.0
41
0.0
42
0.0
10
81.0912017822266
20
79.2813034057617
40
0.0
41
0.0
42
0.0
10
81.0162963867188
20
79.3079986572266
40
0.0
41
0.0
42
0.0
10
80.9865036010742
20
79.3078994750977
40
0.0
41
0.0
42
0.0
10
80.682502746582
20
79.0999984741211
40
0.0
41
0.0
42
0.0
10
80.5568008422852
20
79.004997253418
40
0.0
41
0.0
42
0.0
10
80.497200012207
20
78.923698425293
40
0.0
41
0.0
42
0.0
10
80.4304962158203
20
78.8223037719727
40
0.0
41
0.0
42
0.0
10
80.3454971313477
20
78.5896987915039
40
0.0
41
0.0
42
0.0
10
80.3392028808594
20
78.5483016967773
40
0.0
41
0.0
42
0.0
10
80.3365020751953
20
78.5155029296875
40
0.0
41
0.0
42
0.0
10
80.2864990234375
20
78.3729019165039
40
0.0
41
0.0
42
0.0
10
80.1535034179688
20
78.0121994018555
40
0.0
41
0.0
42
0.0
10
79.9988021850586
20
77.6495971679688
40
0.0
41
0.0
42
0.0
10
79.9181976318359
20
77.507698059082
40
0.0
41
0.0
42
0.0
10
79.4906005859375
20
77.0199966430664
40
0.0
41
0.0
42
0.0
10
79.3481979370117
20
76.9997024536133
40
0.0
41
0.0
42
0.0
10
79.1782989501953
20
76.9044036865234
40
0.0
41
0.0
42
0.0
10
79.0145034790039
20
76.9619979858398
40
0.0
41
0.0
42
0.0
10
78.8143997192383
20
76.9990997314453
40
0.0
41
0.0
42
0.0
10
78.5827026367188
20
77.0285034179688
40
0.0
41
0.0
42
0.0
10
78.5458984375
20
77.0283966064453
40
0.0
41
0.0
42
0.0
10
78.4988021850586
20
77.0206985473633
40
0.0
41
0.0
42
0.0
10
78.0939025878906
20
77.0702972412109
40
0.0
41
0.0
42
0.0
10
78.0119018554688
20
77.0684967041016
40
0.0
41
0.0
42
0.0
10
77.9393997192383
20
77.0868988037109
40
0.0
41
0.0
42
0.0
10
77.5059967041016
20
77.2123031616211
40
0.0
41
0.0
42
0.0
10
77.3526000976562
20
77.4746017456055
40
0.0
41
0.0
42
0.0
10
77.3426971435547
20
77.5067977905273
40
0.0
41
0.0
42
0.0
10
77.3488006591797
20
77.5561981201172
40
0.0
41
0.0
42
0.0
10
77.3487014770508
20
77.5941009521484
40
0.0
41
0.0
42
0.0
10
77.3127975463867
20
78.0183029174805
40
0.0
41
0.0
42
0.0
10
77.2845001220703
20
78.4162979125977
40
0.0
41
0.0
42
0.0
10
77.3299026489258
20
78.646598815918
40
0.0
41
0.0
42
0.0
10
77.3298034667969
20
78.6831970214844
40
0.0
41
0.0
42
0.0
10
77.2910995483398
20
78.99169921875
40
0.0
41
0.0
42
0.0
10
77.5024032592773
20
79.4250030517578
40
0.0
41
0.0
42
0.0
10
77.5649032592773
20
79.4953002929688
40
0.0
41
0.0
42
0.0
10
77.6594009399414
20
79.5703964233398
40
0.0
41
0.0
42
0.0
10
78.100700378418
20
79.7701034545898
40
0.0
41
0.0
42
0.0
10
78.5143966674805
20
79.9003982543945
40
0.0
41
0.0
42
0.0
10
78.6207962036133
20
79.9253005981445
40
0.0
41
0.0
42
0.0
10
78.8840026855469
20
80.0
40
0.0
41
0.0
42
0.0
10
79.0140991210938
20
80.0404968261719
40
0.0
41
0.0
42
0.0
10
79.1921005249023
20
80.0883026123047
40
0.0
41
0.0
42
0.0
10
79.5071029663086
20
80.2335968017578
40
0.0
41
0.0
42
0.0
10
79.654899597168
20
80.4026031494141
40
0.0
41
0.0
42
0.0
10
79.7459030151367
20
80.4889984130859
40
0.0
41
0.0
42
0.0
10
79.7459030151367
20
80.518798828125
40
0.0
41
0.0
42
0.0
10
79.7339019775391
20
80.6240997314453
40
0.0
41
0.0
42
0.0
10
79.8173980712891
20
80.9823989868164
40
0.0
41
0.0
42
0.0
10
79.8172988891602
20
81.0166015625
40
0.0
41
0.0
42
0.0
10
79.7922973632812
20
81.092903137207
40
0.0
41
0.0
42
0.0
10
79.730598449707
20
81.5146026611328
40
0.0
41
0.0
42
0.0
10
79.7024993896484
20
81.5876998901367
40
0.0
41
0.0
42
0.0
10
79.5543975830078
20
82.0114974975586
40
0.0
41
0.0
42
0.0
10
79.5017013549805
20
82.1123962402344
40
0.0
41
0.0
42
0.0
10
79.2405014038086
20
82.52490234375
40
0.0
41
0.0
42
0.0
10
79.0793991088867
20
82.7144012451172
40
0.0
41
0.0
42
0.0
10
79.0244979858398
20
82.7698974609375
40
0.0
41
0.0
42
0.0
10
79.008903503418
20
82.780403137207
40
0.0
41
0.0
42
0.0
10
78.6118011474609
20
83.0022964477539
40
0.0
41
0.0
42
0.0
10
78.590202331543
20
83.0189971923828
40
0.0
41
0.0
42
0.0
10
78.5870971679688
20
83.0205993652344
40
0.0
41
0.0
42
0.0
10
78.5168991088867
20
83.0416030883789
40
0.0
41
0.0
42
0.0
10
78.4804992675781
20
83.0416030883789
40
0.0
41
0.0
42
0.0
10
78.4331970214844
20
83.0391998291016
40
0.0
41
0.0
42
0.0
10
78.0185012817383
20
83.0969009399414
40
0.0
41
0.0
42
0.0
10
77.9822998046875
20
83.0968017578125
40
0.0
41
0.0
42
0.0
10
77.9086990356445
20
83.0805969238281
40
0.0
41
0.0
42
0.0
10
77.4849014282227
20
83.0186996459961
40
0.0
41
0.0
42
0.0
10
77.4294967651367
20
83.0000991821289
40
0.0
41
0.0
42
0.0
10
76.9878005981445
20
82.8391036987305
40
0.0
41
0.0
42
0.0
10
76.9144973754883
20
82.806396484375
40
0.0
41
0.0
42
0.0
10
76.489501953125
20
82.5640029907227
40
0.0
41
0.0
42
0.0
10
76.4147033691406
20
82.530403137207
40
0.0
41
0.0
42
0.0
10
76.371696472168
20
82.5046005249023
40
0.0
41
0.0
42
0.0
10
76.0662994384766
20
82.0139007568359
40
0.0
41
0.0
42
0.0
10
76.0662002563477
20
81.9820022583008
40
0.0
41
0.0
42
0.0
10
76.1663970947266
20
81.4869003295898
40
0.0
41
0.0
42
0.0
10
76.1968994140625
20
81.4268035888672
40
0.0
41
0.0
42
0.0
10
76.440299987793
20
80.9138031005859
40
0.0
41
0.0
42
0.0
10
76.4989013671875
20
80.7848968505859
40
0.0
41
0.0
42
0.0
10
76.6425018310547
20
80.4869995117188
40
0.0
41
0.0
42
0.0
10
76.6669998168945
20
80.3825988769531
40
0.0
41
0.0
42
0.0
10
76.8078994750977
20
79.9975967407227
40
0.0
41
0.0
42
0.0
10
76.7726974487305
20
79.8625030517578
40
0.0
41
0.0
42
0.0
10
76.7725982666016
20
79.8258972167969
40
0.0
41
0.0
42
0.0
10
76.7910003662109
20
79.5071029663086
40
0.0
41
0.0
42
0.0
10
76.4944000244141
20
79.3322982788086
40
0.0
41
0.0
42
0.0
10
76.4677963256836
20
79.2950973510742
40
0.0
41
0.0
42
0.0
10
76.2647018432617
20
79.0817031860352
40
0.0
41
0.0
42
0.0
10
76.2118988037109
20
79.0040969848633
40
0.0
41
0.0
42
0.0
10
75.9882965087891
20
78.8753967285156
40
0.0
41
0.0
42
0.0
10
75.6328964233398
20
78.5798034667969
40
0.0
41
0.0
42
0.0
10
75.5656967163086
20
78.504997253418
40
0.0
41
0.0
42
0.0
10
75.4999008178711
20
78.4476013183594
40
0.0
41
0.0
42
0.0
10
75.4925994873047
20
78.4364013671875
40
0.0
41
0.0
42
0.0
10
75.4096984863281
20
78.421501159668
40
0.0
41
0.0
42
0.0
10
75.004997253418
20
78.3076019287109
40
0.0
41
0.0
42
0.0
10
74.8143005371094
20
78.4878005981445
40
0.0
41
0.0
42
0.0
10
74.8041000366211
20
78.5090026855469
40
0.0
41
0.0
42
0.0
10
74.7510986328125
20
78.5802993774414
40
0.0
41
0.0
42
0.0
10
74.5065002441406
20
78.7807998657227
40
0.0
41
0.0
42
0.0
10
74.2358016967773
20
79.0059967041016
40
0.0
41
0.0
42
0.0
10
74.2253036499023
20
79.0233993530273
40
0.0
41
0.0
42
0.0
10
74.0776977539062
20
79.2021026611328
40
0.0
41
0.0
42
0.0
10
74.0422973632812
20
79.2612991333008
40
0.0
41
0.0
42
0.0
10
74.0055999755859
20
79.3061981201172
40
0.0
41
0.0
42
0.0
10
73.7059020996094
20
79.507698059082
40
0.0
41
0.0
42
0.0
10
73.6539001464844
20
79.8606033325195
40
0.0
41
0.0
42
0.0
10
73.611701965332
20
80.0005035400391
40
0.0
41
0.0
42
0.0
10
73.6504974365234
20
80.1376037597656
40
0.0
41
0.0
42
0.0
10
73.7712020874023
20
80.4885025024414
40
0.0
41
0.0
42
0.0
10
74.0014038085938
20
80.907096862793
40
0.0
41
0.0
42
0.0
10
74.0447998046875
20
80.9901962280273
40
0.0
41
0.0
42
0.0
10
74.1103973388672
20
81.0991973876953
40
0.0
41
0.0
42
0.0
10
74.1938018798828
20
81.245002746582
40
0.0
41
0.0
42
0.0
10
74.3420028686523
20
81.488899230957
40
0.0
41
0.0
42
0.0
10
74.5005035400391
20
81.948600769043
40
0.0
41
0.0
42
0.0
10
74.5185012817383
20
81.9849014282227
40
0.0
41
0.0
42
0.0
10
74.5183029174805
20
82.0139007568359
40
0.0
41
0.0
42
0.0
10
74.513298034668
20
82.0220031738281
40
0.0
41
0.0
42
0.0
10
74.5003967285156
20
82.0505981445312
40
0.0
41
0.0
42
0.0
10
74.3394012451172
20
82.5068969726562
40
0.0
41
0.0
42
0.0
10
74.2844009399414
20
82.5483016967773
40
0.0
41
0.0
42
0.0
10
74.0823974609375
20
82.7068023681641
40
0.0
41
0.0
42
0.0
10
73.6583023071289
20
83.0018005371094
40
0.0
41
0.0
42
0.0
10
73.5856018066406
20
83.0389022827148
40
0.0
41
0.0
42
0.0
10
73.5117034912109
20
83.0739974975586
40
0.0
41
0.0
42
0.0
10
73.0878982543945
20
83.2343978881836
40
0.0
41
0.0
42
0.0
10
73.0151977539062
20
83.25830078125
40
0.0
41
0.0
42
0.0
10
72.9132995605469
20
83.2724990844727
40
0.0
41
0.0
42
0.0
10
72.5183029174805
20
83.3366012573242
40
0.0
41
0.0
42
0.0
10
72.4813995361328
20
83.3365020751953
40
0.0
41
0.0
42
0.0
10
71.9871978759766
20
83.269401550293
40
0.0
41
0.0
42
0.0
10
71.6733016967773
20
83.0772018432617
40
0.0
41
0.0
42
0.0
10
71.6032028198242
20
83.0309982299805
40
0.0
41
0.0
42
0.0
10
71.5728988647461
20
83.0035018920898
40
0.0
41
0.0
42
0.0
10
71.493896484375
20
82.9480972290039
40
0.0
41
0.0
42
0.0
10
71.4761962890625
20
82.9290008544922
40
0.0
41
0.0
42
0.0
10
71.1958999633789
20
82.5823974609375
40
0.0
41
0.0
42
0.0
10
71.1449966430664
20
82.5086975097656
40
0.0
41
0.0
42
0.0
10
71.0018005371094
20
82.2626037597656
40
0.0
41
0.0
42
0.0
10
70.9637985229492
20
82.1883010864258
40
0.0
41
0.0
42
0.0
10
70.8781967163086
20
82.0122985839844
40
0.0
41
0.0
42
0.0
10
70.7515029907227
20
81.5879974365234
40
0.0
41
0.0
42
0.0
10
70.7219009399414
20
81.5158004760742
40
0.0
41
0.0
42
0.0
10
70.7183990478516
20
81.0913009643555
40
0.0
41
0.0
42
0.0
10
70.6919021606445
20
81.0162963867188
40
0.0
41
0.0
42
0.0
10
70.6918029785156
20
80.9863967895508
40
0.0
41
0.0
42
0.0
10
70.8996963500977
20
80.682502746582
40
0.0
41
0.0
42
0.0
10
70.9947967529297
20
80.5567016601562
40
0.0
41
0.0
42
0.0
10
71.0740966796875
20
80.4985961914062
40
0.0
41
0.0
42
0.0
10
71.1778030395508
20
80.4607009887695
40
0.0
41
0.0
42
0.0
10
71.4873962402344
20
80.3354034423828
40
0.0
41
0.0
42
0.0
10
71.6268005371094
20
80.2864990234375
40
0.0
41
0.0
42
0.0
10
71.9877014160156
20
80.1533966064453
40
0.0
41
0.0
42
0.0
10
72.35009765625
20
79.9987030029297
40
0.0
41
0.0
42
0.0
10
72.4921035766602
20
79.9181976318359
40
0.0
41
0.0
42
0.0
10
72.9798965454102
20
79.4906005859375
40
0.0
41
0.0
42
0.0
10
73.0000991821289
20
79.3481979370117
40
0.0
41
0.0
42
0.0
10
73.0952987670898
20
79.1782989501953
40
0.0
41
0.0
42
0.0
10
73.0376968383789
20
79.0145034790039
40
0.0
41
0.0
42
0.0
10
73.0007019042969
20
78.8143997192383
40
0.0
41
0.0
42
0.0
10
72.9712982177734
20
78.5828018188477
40
0.0
41
0.0
42
0.0
10
72.9713973999023
20
78.5458984375
40
0.0
41
0.0
42
0.0
10
72.9789962768555
20
78.4988021850586
40
0.0
41
0.0
42
0.0
10
72.9293975830078
20
78.0939025878906
40
0.0
41
0.0
42
0.0
10
72.9311981201172
20
78.0121994018555
40
0.0
41
0.0
42
0.0
10
72.8088989257812
20
77.5895004272461
40
0.0
41
0.0
42
0.0
10
72.7878036499023
20
77.5062026977539
40
0.0
41
0.0
42
0.0
10
72.5251998901367
20
77.3526000976562
40
0.0
41
0.0
42
0.0
10
72.4932022094727
20
77.3426971435547
40
0.0
41
0.0
42
0.0
10
72.4437026977539
20
77.3488006591797
40
0.0
41
0.0
42
0.0
10
72.4057998657227
20
77.3487014770508
40
0.0
41
0.0
42
0.0
10
71.9815979003906
20
77.3127975463867
40
0.0
41
0.0
42
0.0
10
71.5836029052734
20
77.2845001220703
40
0.0
41
0.0
42
0.0
10
71.3532028198242
20
77.3299026489258
40
0.0
41
0.0
42
0.0
10
71.3165969848633
20
77.3298034667969
40
0.0
41
0.0
42
0.0
10
71.0082015991211
20
77.2910995483398
40
0.0
41
0.0
42
0.0
10
70.5746994018555
20
77.5022964477539
40
0.0
41
0.0
42
0.0
10
70.5046005249023
20
77.5647964477539
40
0.0
41
0.0
42
0.0
10
70.4292984008789
20
77.6594009399414
40
0.0
41
0.0
42
0.0
10
70.2296981811523
20
78.100700378418
40
0.0
41
0.0
42
0.0
10
70.0992965698242
20
78.5143966674805
40
0.0
41
0.0
42
0.0
10
70.0703964233398
20
78.6370010375977
40
0.0
41
0.0
42
0.0
10
69.9998016357422
20
78.883903503418
40
0.0
41
0.0
42
0.0
10
69.9591979980469
20
79.0140991210938
40
0.0
41
0.0
42
0.0
10
69.9113998413086
20
79.1921005249023
40
0.0
41
0.0
42
0.0
10
69.7661972045898
20
79.5070037841797
40
0.0
41
0.0
42
0.0
10
69.5970993041992
20
79.6548004150391
40
0.0
41
0.0
42
0.0
10
69.5109024047852
20
79.7459030151367
40
0.0
41
0.0
42
0.0
10
69.4811019897461
20
79.7459030151367
40
0.0
41
0.0
42
0.0
10
69.3757019042969
20
79.7339019775391
40
0.0
41
0.0
42
0.0
10
69.0175018310547
20
79.8173980712891
40
0.0
41
0.0
42
0.0
10
68.9832992553711
20
79.8172988891602
40
0.0
41
0.0
42
0.0
10
68.9068984985352
20
79.7922973632812
40
0.0
41
0.0
42
0.0
10
68.4852981567383
20
79.730598449707
40
0.0
41
0.0
42
0.0
10
68.4122009277344
20
79.7025985717773
40
0.0
41
0.0
42
0.0
10
67.9882965087891
20
79.5544967651367
40
0.0
41
0.0
42
0.0
10
67.8873977661133
20
79.5017013549805
40
0.0
41
0.0
42
0.0
10
67.4907989501953
20
79.249397277832
40
0.0
41
0.0
42
0.0
10
67.4744033813477
20
79.2401962280273
40
0.0
41
0.0
42
0.0
10
67.285400390625
20
79.0794982910156
40
0.0
41
0.0
42
0.0
10
67.2297973632812
20
79.0244979858398
40
0.0
41
0.0
42
0.0
10
67.2192993164062
20
79.008903503418
40
0.0
41
0.0
42
0.0
10
66.9974975585938
20
78.6119003295898
40
0.0
41
0.0
42
0.0
10
66.9806976318359
20
78.590202331543
40
0.0
41
0.0
42
0.0
10
66.9791030883789
20
78.5870971679688
40
0.0
41
0.0
42
0.0
10
66.9577026367188
20
78.5155029296875
40
0.0
41
0.0
42
0.0
10
66.8991012573242
20
78.0934982299805
40
0.0
41
0.0
42
0.0
10
66.8990020751953
20
78.0554962158203
40
0.0
41
0.0
42
0.0
10
66.9028015136719
20
77.9820022583008
40
0.0
41
0.0
42
0.0
10
66.964599609375
20
77.5587005615234
40
0.0
41
0.0
42
0.0
10
66.9807968139648
20
77.4856033325195
40
0.0
41
0.0
42
0.0
10
66.9990997314453
20
77.4310989379883
40
0.0
41
0.0
42
0.0
10
67.1603012084961
20
76.9888000488281
40
0.0
41
0.0
42
0.0
10
67.4023971557617
20
76.5643997192383
40
0.0
41
0.0
42
0.0
10
67.4692993164062
20
76.4145965576172
40
0.0
41
0.0
42
0.0
10
67.4953002929688
20
76.371696472168
40
0.0
41
0.0
42
0.0
10
67.9860000610352
20
76.0662994384766
40
0.0
41
0.0
42
0.0
10
68.0178985595703
20
76.0662002563477
40
0.0
41
0.0
42
0.0
10
68.5130004882812
20
76.1664962768555
40
0.0
41
0.0
42
0.0
10
68.572998046875
20
76.1969985961914
40
0.0
41
0.0
42
0.0
10
69.0860977172852
20
76.4403991699219
40
0.0
41
0.0
42
0.0
10
69.2147979736328
20
76.4990005493164
40
0.0
41
0.0
42
0.0
10
69.5129013061523
20
76.6425018310547
40
0.0
41
0.0
42
0.0
10
69.6172027587891
20
76.6669998168945
40
0.0
41
0.0
42
0.0
10
70.0022964477539
20
76.8078994750977
40
0.0
41
0.0
42
0.0
10
70.1372985839844
20
76.7726974487305
40
0.0
41
0.0
42
0.0
10
70.1738967895508
20
76.7725982666016
40
0.0
41
0.0
42
0.0
10
70.4927978515625
20
76.790901184082
40
0.0
41
0.0
42
0.0
10
70.6681976318359
20
76.4931030273438
40
0.0
41
0.0
42
0.0
10
70.8388977050781
20
76.3308029174805
40
0.0
41
0.0
42
0.0
10
70.9960021972656
20
76.2114028930664
40
0.0
41
0.0
42
0.0
10
71.1242980957031
20
75.9882965087891
40
0.0
41
0.0
42
0.0
10
71.4200973510742
20
75.6327972412109
40
0.0
41
0.0
42
0.0
10
71.4949035644531
20
75.5656967163086
40
0.0
41
0.0
42
0.0
10
71.5521011352539
20
75.4999008178711
40
0.0
41
0.0
42
0.0
10
71.5624008178711
20
75.4932022094727
40
0.0
41
0.0
42
0.0
10
71.6843032836914
20
75.059700012207
40
0.0
41
0.0
42
0.0
10
71.6939010620117
20
75.0067977905273
40
0.0
41
0.0
42
0.0
10
71.5120010375977
20
74.8143997192383
40
0.0
41
0.0
42
0.0
10
71.4908981323242
20
74.80419921875
40
0.0
41
0.0
42
0.0
10
71.4196014404297
20
74.7510986328125
40
0.0
41
0.0
42
0.0
10
71.2190017700195
20
74.5065994262695
40
0.0
41
0.0
42
0.0
10
70.9937973022461
20
74.2358016967773
40
0.0
41
0.0
42
0.0
10
70.9763031005859
20
74.2253036499023
40
0.0
41
0.0
42
0.0
10
70.7976989746094
20
74.0776977539062
40
0.0
41
0.0
42
0.0
10
70.7384033203125
20
74.0422973632812
40
0.0
41
0.0
42
0.0
10
70.693603515625
20
74.0055999755859
40
0.0
41
0.0
42
0.0
10
70.4922027587891
20
73.7059020996094
40
0.0
41
0.0
42
0.0
10
70.1391983032227
20
73.6539001464844
40
0.0
41
0.0
42
0.0
10
69.9994964599609
20
73.611701965332
40
0.0
41
0.0
42
0.0
10
69.8621978759766
20
73.6503982543945
40
0.0
41
0.0
42
0.0
10
69.5113983154297
20
73.7712020874023
40
0.0
41
0.0
42
0.0
10
69.0926971435547
20
74.0012969970703
40
0.0
41
0.0
42
0.0
10
69.0095977783203
20
74.0447998046875
40
0.0
41
0.0
42
0.0
10
68.9005966186523
20
74.1103973388672
40
0.0
41
0.0
42
0.0
10
68.7546997070312
20
74.1938018798828
40
0.0
41
0.0
42
0.0
10
68.5109024047852
20
74.3420028686523
40
0.0
41
0.0
42
0.0
10
68.0512008666992
20
74.5003967285156
40
0.0
41
0.0
42
0.0
10
68.0149993896484
20
74.5185012817383
40
0.0
41
0.0
42
0.0
10
67.9850006103516
20
74.5184020996094
40
0.0
41
0.0
42
0.0
10
67.9496002197266
20
74.5005035400391
40
0.0
41
0.0
42
0.0
10
67.4928970336914
20
74.3395004272461
40
0.0
41
0.0
42
0.0
10
67.4514007568359
20
74.2844009399414
40
0.0
41
0.0
42
0.0
10
67.2929000854492
20
74.0824966430664
40
0.0
41
0.0
42
0.0
10
66.9979019165039
20
73.6584014892578
40
0.0
41
0.0
42
0.0
10
66.9608001708984
20
73.5857009887695
40
0.0
41
0.0
42
0.0
10
66.9256973266602
20
73.5117034912109
40
0.0
41
0.0
42
0.0
10
66.7652969360352
20
73.0879974365234
40
0.0
41
0.0
42
0.0
10
66.7414016723633
20
73.0151977539062
40
0.0
41
0.0
42
0.0
10
66.7272033691406
20
72.9132995605469
40
0.0
41
0.0
42
0.0
10
66.6632995605469
20
72.5183029174805
40
0.0
41
0.0
42
0.0
10
66.663200378418
20
72.4813995361328
40
0.0
41
0.0
42
0.0
10
66.7302017211914
20
71.9870986938477
40
0.0
41
0.0
42
0.0
210
0.0
220
0.0
230
1.0
0
LWPOLYLINE
5
25
330
1C
100
AcDbEntity
67
0
8
0
62
256
6
ByLayer
370
-1
48
1.0
60
0
100
AcDbPolyline
90
523
70
1
38
0.0
39
0.0
10
66.7572021484375
20
72.9347991943359
40
0.0
41
0.0
42
0.0
10
66.7641983032227
20
72.9847030639648
40
0.0
41
0.0
42
0.0
10
66.7763977050781
20
73.0220031738281
40
0.0
41
0.0
42
0.0
10
66.9530029296875
20
73.4884033203125
40
0.0
41
0.0
42
0.0
10
67.0018005371094
20
73.5863037109375
40
0.0
41
0.0
42
0.0
10
67.3081970214844
20
74.0274963378906
40
0.0
41
0.0
42
0.0
10
67.5072021484375
20
74.2819976806641
40
0.0
41
0.0
42
0.0
10
68.0001983642578
20
74.4557037353516
40
0.0
41
0.0
42
0.0
10
68.488899230957
20
74.2873992919922
40
0.0
41
0.0
42
0.0
10
68.8177032470703
20
74.0876007080078
40
0.0
41
0.0
42
0.0
10
68.9740982055664
20
73.9981994628906
40
0.0
41
0.0
42
0.0
10
69.4885025024414
20
73.7153015136719
40
0.0
41
0.0
42
0.0
10
69.9188003540039
20
73.5672988891602
40
0.0
41
0.0
42
0.0
10
69.9829025268555
20
73.5491027832031
40
0.0
41
0.0
42
0.0
10
70.0168991088867
20
73.549201965332
40
0.0
41
0.0
42
0.0
10
70.0843963623047
20
73.5693969726562
40
0.0
41
0.0
42
0.0
10
70.507698059082
20
73.6317977905273
40
0.0
41
0.0
42
0.0
10
70.7512969970703
20
73.9942016601562
40
0.0
41
0.0
42
0.0
10
70.7774963378906
20
74.0156021118164
40
0.0
41
0.0
42
0.0
10
70.8050994873047
20
74.032096862793
40
0.0
41
0.0
42
0.0
10
71.000602722168
20
74.193603515625
40
0.0
41
0.0
42
0.0
10
71.006103515625
20
74.1969985961914
40
0.0
41
0.0
42
0.0
10
71.2525024414062
20
74.4933013916016
40
0.0
41
0.0
42
0.0
10
71.4699020385742
20
74.75830078125
40
0.0
41
0.0
42
0.0
10
71.5090026855469
20
74.7874984741211
40
0.0
41
0.0
42
0.0
10
71.5162963867188
20
74.7911987304688
40
0.0
41
0.0
42
0.0
10
71.7027969360352
20
74.9882965087891
40
0.0
41
0.0
42
0.0
10
71.7026977539062
20
75.0180969238281
40
0.0
41
0.0
42
0.0
10
71.6968994140625
20
75.0502014160156
40
0.0
41
0.0
42
0.0
10
71.567497253418
20
75.5095977783203
40
0.0
41
0.0
42
0.0
10
71.504997253418
20
75.5802993774414
40
0.0
41
0.0
42
0.0
10
71.4697036743164
20
75.6119003295898
40
0.0
41
0.0
42
0.0
10
71.1417007446289
20
76.006103515625
40
0.0
41
0.0
42
0.0
10
71.0037994384766
20
76.2462005615234
40
0.0
41
0.0
42
0.0
10
70.9340972900391
20
76.2993011474609
40
0.0
41
0.0
42
0.0
10
70.7160034179688
20
76.5066986083984
40
0.0
41
0.0
42
0.0
10
70.5078964233398
20
76.8602981567383
40
0.0
41
0.0
42
0.0
10
70.480598449707
20
76.8601989746094
40
0.0
41
0.0
42
0.0
10
70.0828018188477
20
76.8371963500977
40
0.0
41
0.0
42
0.0
10
70.0171966552734
20
76.8544006347656
40
0.0
41
0.0
42
0.0
10
69.9837036132812
20
76.8544006347656
40
0.0
41
0.0
42
0.0
10
69.5342025756836
20
76.6899032592773
40
0.0
41
0.0
42
0.0
10
69.4869995117188
20
76.6788024902344
40
0.0
41
0.0
42
0.0
10
69.1178970336914
20
76.5009994506836
40
0.0
41
0.0
42
0.0
10
69.0239028930664
20
76.4576034545898
40
0.0
41
0.0
42
0.0
10
68.4866027832031
20
76.2020034790039
40
0.0
41
0.0
42
0.0
10
68.0058975219727
20
76.1054000854492
40
0.0
41
0.0
42
0.0
10
67.5045013427734
20
76.4181976318359
40
0.0
41
0.0
42
0.0
10
67.4701995849609
20
76.4751968383789
40
0.0
41
0.0
42
0.0
10
67.4386978149414
20
76.5454025268555
40
0.0
41
0.0
42
0.0
10
67.1732025146484
20
77.011100769043
40
0.0
41
0.0
42
0.0
10
66.9901962280273
20
77.5140991210938
40
0.0
41
0.0
42
0.0
10
66.9821014404297
20
77.5512008666992
40
0.0
41
0.0
42
0.0
10
66.9134979248047
20
78.0257034301758
40
0.0
41
0.0
42
0.0
10
66.9772033691406
20
78.4843978881836
40
0.0
41
0.0
42
0.0
10
66.9889984130859
20
78.5240020751953
40
0.0
41
0.0
42
0.0
10
67.0019989013672
20
78.5434036254883
40
0.0
41
0.0
42
0.0
10
67.2587966918945
20
79.0011978149414
40
0.0
41
0.0
42
0.0
10
67.288200378418
20
79.0305023193359
40
0.0
41
0.0
42
0.0
10
67.4992980957031
20
79.2098007202148
40
0.0
41
0.0
42
0.0
10
67.9535980224609
20
79.4981994628906
40
0.0
41
0.0
42
0.0
10
68.0115966796875
20
79.5281982421875
40
0.0
41
0.0
42
0.0
10
68.4776992797852
20
79.6911010742188
40
0.0
41
0.0
42
0.0
10
68.5146026611328
20
79.7051010131836
40
0.0
41
0.0
42
0.0
10
68.9786987304688
20
79.7729034423828
40
0.0
41
0.0
42
0.0
10
69.0024032592773
20
79.7807006835938
40
0.0
41
0.0
42
0.0
10
69.4216995239258
20
79.6829986572266
40
0.0
41
0.0
42
0.0
10
69.4581985473633
20
79.6830978393555
40
0.0
41
0.0
42
0.0
10
69.4918975830078
20
79.686897277832
40
0.0
41
0.0
42
0.0
10
69.6073989868164
20
79.5651016235352
40
0.0
41
0.0
42
0.0
10
69.6901016235352
20
79.4926986694336
40
0.0
41
0.0
42
0.0
10
69.8844985961914
20
79.0707015991211
40
0.0
41
0.0
42
0.0
10
69.9074020385742
20
78.9858016967773
40
0.0
41
0.0
42
0.0
10
70.0
20
78.6883010864258
40
0.0
41
0.0
42
0.0
10
70.0352020263672
20
78.5644989013672
40
0.0
41
0.0
42
0.0
10
70.0541000366211
20
78.4854965209961
40
0.0
41
0.0
42
0.0
10
70.1980972290039
20
78.0286026000977
40
0.0
41
0.0
42
0.0
10
70.4088973999023
20
77.5610961914062
40
0.0
41
0.0
42
0.0
10
70.4654998779297
20
77.4899978637695
40
0.0
41
0.0
42
0.0
10
70.4951019287109
20
77.3994979858398
40
0.0
41
0.0
42
0.0
10
70.6449966430664
20
77.3998031616211
40
0.0
41
0.0
42
0.0
10
70.9848022460938
20
77.2342987060547
40
0.0
41
0.0
42
0.0
10
71.0186996459961
20
77.2342987060547
40
0.0
41
0.0
42
0.0
10
71.4196014404297
20
77.284797668457
40
0.0
41
0.0
42
0.0
10
71.5169982910156
20
77.2656021118164
40
0.0
41
0.0
42
0.0
10
71.55419921875
20
77.2655029296875
40
0.0
41
0.0
42
0.0
10
72.0183029174805
20
77.2985000610352
40
0.0
41
0.0
42
0.0
10
72.4618988037109
20
77.3359985351562
40
0.0
41
0.0
42
0.0
10
72.481201171875
20
77.3337020874023
40
0.0
41
0.0
42
0.0
10
72.5168991088867
20
77.3338012695312
40
0.0
41
0.0
42
0.0
10
72.5286026000977
20
77.33740234375
40
0.0
41
0.0
42
0.0
10
72.7955017089844
20
77.4936981201172
40
0.0
41
0.0
42
0.0
10
72.8023986816406
20
77.5205001831055
40
0.0
41
0.0
42
0.0
10
72.9362030029297
20
77.9829025268555
40
0.0
41
0.0
42
0.0
10
72.9358978271484
20
78.0263977050781
40
0.0
41
0.0
42
0.0
10
72.9919967651367
20
78.4810028076172
40
0.0
41
0.0
42
0.0
10
72.9909973144531
20
78.5268020629883
40
0.0
41
0.0
42
0.0
10
72.9990997314453
20
78.5906982421875
40
0.0
41
0.0
42
0.0
10
73.0719985961914
20
78.9853973388672
40
0.0
41
0.0
42
0.0
10
73.1949996948242
20
79.3345031738281
40
0.0
41
0.0
42
0.0
10
73.1949005126953
20
79.3654022216797
40
0.0
41
0.0
42
0.0
10
73.1191024780273
20
79.5009002685547
40
0.0
41
0.0
42
0.0
10
73.2024002075195
20
79.6761016845703
40
0.0
41
0.0
42
0.0
10
73.2101974487305
20
79.6952972412109
40
0.0
41
0.0
42
0.0
10
73.2101974487305
20
79.7100982666016
40
0.0
41
0.0
42
0.0
10
73.1977005004883
20
79.7098999023438
40
0.0
41
0.0
42
0.0
10
72.9998016357422
20
79.5671005249023
40
0.0
41
0.0
42
0.0
10
72.8031997680664
20
79.7070007324219
40
0.0
41
0.0
42
0.0
10
72.507698059082
20
79.9662017822266
40
0.0
41
0.0
42
0.0
10
72.4462966918945
20
80.0009994506836
40
0.0
41
0.0
42
0.0
10
72.0121994018555
20
80.1862030029297
40
0.0
41
0.0
42
0.0
10
71.5123977661133
20
80.3694000244141
40
0.0
41
0.0
42
0.0
10
71.3677978515625
20
80.4279022216797
40
0.0
41
0.0
42
0.0
10
71.1670989990234
20
80.5011978149414
40
0.0
41
0.0
42
0.0
10
71.004997253418
20
80.6201019287109
40
0.0
41
0.0
42
0.0
10
70.8212966918945
20
80.8628997802734
40
0.0
41
0.0
42
0.0
10
70.7255020141602
20
81.0031967163086
40
0.0
41
0.0
42
0.0
10
70.7310028076172
20
81.0186996459961
40
0.0
41
0.0
42
0.0
10
70.7348022460938
20
81.4841995239258
40
0.0
41
0.0
42
0.0
10
70.7502975463867
20
81.5220031738281
40
0.0
41
0.0
42
0.0
10
70.8892974853516
20
81.9876022338867
40
0.0
41
0.0
42
0.0
10
71.0029983520508
20
82.2192993164062
40
0.0
41
0.0
42
0.0
10
71.1611022949219
20
82.4912033081055
40
0.0
41
0.0
42
0.0
10
71.1862030029297
20
82.5276031494141
40
0.0
41
0.0
42
0.0
10
71.505500793457
20
82.9209976196289
40
0.0
41
0.0
42
0.0
10
71.6132965087891
20
82.9963989257812
40
0.0
41
0.0
42
0.0
10
71.627799987793
20
83.0094985961914
40
0.0
41
0.0
42
0.0
10
71.6629028320312
20
83.032600402832
40
0.0
41
0.0
42
0.0
10
72.0127029418945
20
83.2473983764648
40
0.0
41
0.0
42
0.0
10
72.4984970092773
20
83.3132019042969
40
0.0
41
0.0
42
0.0
10
72.9347991943359
20
83.2425003051758
40
0.0
41
0.0
42
0.0
10
72.9847030639648
20
83.2354965209961
40
0.0
41
0.0
42
0.0
10
73.0218963623047
20
83.2232971191406
40
0.0
41
0.0
42
0.0
10
73.4882965087891
20
83.0466995239258
40
0.0
41
0.0
42
0.0
10
73.5861968994141
20
82.9980010986328
40
0.0
41
0.0
42
0.0
10
74.0273971557617
20
82.6914978027344
40
0.0
41
0.0
42
0.0
10
74.2819976806641
20
82.4926986694336
40
0.0
41
0.0
42
0.0
10
74.4558029174805
20
81.9997024536133
40
0.0
41
0.0
42
0.0
10
74.2874984741211
20
81.5110015869141
40
0.0
41
0.0
42
0.0
10
74.0876998901367
20
81.1820983886719
40
0.0
41
0.0
42
0.0
10
73.9981994628906
20
81.0257034301758
40
0.0
41
0.0
42
0.0
10
73.7153015136719
20
80.5113983154297
40
0.0
41
0.0
42
0.0
10
73.5672988891602
20
80.0810012817383
40
0.0
41
0.0
42
0.0
10
73.5491027832031
20
80.0169982910156
40
0.0
41
0.0
42
0.0
10
73.5491027832031
20
79.9830017089844
40
0.0
41
0.0
42
0.0
10
73.5693969726562
20
79.915397644043
40
0.0
41
0.0
42
0.0
10
73.6316986083984
20
79.4922027587891
40
0.0
41
0.0
42
0.0
10
73.9943008422852
20
79.2485961914062
40
0.0
41
0.0
42
0.0
10
74.0156021118164
20
79.222297668457
40
0.0
41
0.0
42
0.0
10
74.032096862793
20
79.1946029663086
40
0.0
41
0.0
42
0.0
10
74.193603515625
20
78.9992980957031
40
0.0
41
0.0
42
0.0
10
74.1968994140625
20
78.9937973022461
40
0.0
41
0.0
42
0.0
10
74.4933013916016
20
78.747200012207
40
0.0
41
0.0
42
0.0
10
74.7586975097656
20
78.5295028686523
40
0.0
41
0.0
42
0.0
10
74.78759765625
20
78.4908981323242
40
0.0
41
0.0
42
0.0
10
74.7910995483398
20
78.4833984375
40
0.0
41
0.0
42
0.0
10
74.9882965087891
20
78.2970962524414
40
0.0
41
0.0
42
0.0
10
75.0170974731445
20
78.2969970703125
40
0.0
41
0.0
42
0.0
10
75.4802017211914
20
78.4273986816406
40
0.0
41
0.0
42
0.0
10
75.5103988647461
20
78.4328994750977
40
0.0
41
0.0
42
0.0
10
75.5801010131836
20
78.4946975708008
40
0.0
41
0.0
42
0.0
10
75.6119003295898
20
78.5300979614258
40
0.0
41
0.0
42
0.0
10
76.0066986083984
20
78.8585968017578
40
0.0
41
0.0
42
0.0
10
76.2457962036133
20
78.9957962036133
40
0.0
41
0.0
42
0.0
10
76.2679977416992
20
79.0281982421875
40
0.0
41
0.0
42
0.0
10
76.4904022216797
20
79.2621994018555
40
0.0
41
0.0
42
0.0
10
76.505500793457
20
79.2829971313477
40
0.0
41
0.0
42
0.0
10
76.8602981567383
20
79.4919967651367
40
0.0
41
0.0
42
0.0
10
76.8601989746094
20
79.5193023681641
40
0.0
41
0.0
42
0.0
10
76.8371963500977
20
79.9169998168945
40
0.0
41
0.0
42
0.0
10
76.8544006347656
20
79.9826965332031
40
0.0
41
0.0
42
0.0
10
76.8543014526367
20
80.0161972045898
40
0.0
41
0.0
42
0.0
10
76.6897964477539
20
80.4655990600586
40
0.0
41
0.0
42
0.0
10
76.6787033081055
20
80.5129013061523
40
0.0
41
0.0
42
0.0
10
76.5009002685547
20
80.8818969726562
40
0.0
41
0.0
42
0.0
10
76.4576034545898
20
80.9759979248047
40
0.0
41
0.0
42
0.0
10
76.2018966674805
20
81.513298034668
40
0.0
41
0.0
42
0.0
10
76.1054992675781
20
81.9940032958984
40
0.0
41
0.0
42
0.0
10
76.4181976318359
20
82.4953994750977
40
0.0
41
0.0
42
0.0
10
76.4751968383789
20
82.5295028686523
40
0.0
41
0.0
42
0.0
10
76.5103988647461
20
82.5454025268555
40
0.0
41
0.0
42
0.0
10
76.9755020141602
20
82.8107986450195
40
0.0
41
0.0
42
0.0
10
77.0121002197266
20
82.8268966674805
40
0.0
41
0.0
42
0.0
10
77.5148010253906
20
83.0096969604492
40
0.0
41
0.0
42
0.0
10
77.981201171875
20
83.0777969360352
40
0.0
41
0.0
42
0.0
10
78.0037002563477
20
83.0827026367188
40
0.0
41
0.0
42
0.0
10
78.446403503418
20
83.0211029052734
40
0.0
41
0.0
42
0.0
10
78.488899230957
20
83.0212020874023
40
0.0
41
0.0
42
0.0
10
78.5239028930664
20
83.0106964111328
40
0.0
41
0.0
42
0.0
10
78.5432968139648
20
82.997802734375
40
0.0
41
0.0
42
0.0
10
79.0010986328125
20
82.7409973144531
40
0.0
41
0.0
42
0.0
10
79.030403137207
20
82.7116012573242
40
0.0
41
0.0
42
0.0
10
79.2098007202148
20
82.5005035400391
40
0.0
41
0.0
42
0.0
10
79.4981002807617
20
82.0462036132812
40
0.0
41
0.0
42
0.0
10
79.5281982421875
20
81.9882965087891
40
0.0
41
0.0
42
0.0
10
79.6911010742188
20
81.5222015380859
40
0.0
41
0.0
42
0.0
10
79.7051010131836
20
81.4852981567383
40
0.0
41
0.0
42
0.0
10
79.7729034423828
20
81.0211029052734
40
0.0
41
0.0
42
0.0
10
79.7807006835938
20
80.9974975585938
40
0.0
41
0.0
42
0.0
10
79.6829986572266
20
80.5781021118164
40
0.0
41
0.0
42
0.0
10
79.6830978393555
20
80.5417022705078
40
0.0
41
0.0
42
0.0
10
79.6869964599609
20
80.5080032348633
40
0.0
41
0.0
42
0.0
10
79.5651016235352
20
80.3924026489258
40
0.0
41
0.0
42
0.0
10
79.4927978515625
20
80.309700012207
40
0.0
41
0.0
42
0.0
10
79.0707015991211
20
80.1151962280273
40
0.0
41
0.0
42
0.0
10
78.9858016967773
20
80.0923004150391
40
0.0
41
0.0
42
0.0
10
78.6883010864258
20
79.9998016357422
40
0.0
41
0.0
42
0.0
10
78.5645980834961
20
79.964599609375
40
0.0
41
0.0
42
0.0
10
78.4856033325195
20
79.9456024169922
40
0.0
41
0.0
42
0.0
10
78.0287017822266
20
79.8016967773438
40
0.0
41
0.0
42
0.0
10
77.5612030029297
20
79.5908966064453
40
0.0
41
0.0
42
0.0
10
77.4900970458984
20
79.5342025756836
40
0.0
41
0.0
42
0.0
10
77.3994979858398
20
79.5047988891602
40
0.0
41
0.0
42
0.0
10
77.39990234375
20
79.3546981811523
40
0.0
41
0.0
42
0.0
10
77.2342987060547
20
79.0150985717773
40
0.0
41
0.0
42
0.0
10
77.2342987060547
20
78.981201171875
40
0.0
41
0.0
42
0.0
10
77.284797668457
20
78.5802001953125
40
0.0
41
0.0
42
0.0
10
77.2656021118164
20
78.4829025268555
40
0.0
41
0.0
42
0.0
10
77.2655029296875
20
78.4457015991211
40
0.0
41
0.0
42
0.0
10
77.2984008789062
20
77.9828033447266
40
0.0
41
0.0
42
0.0
10
77.3359985351562
20
77.5380020141602
40
0.0
41
0.0
42
0.0
10
77.3337020874023
20
77.5186996459961
40
0.0
41
0.0
42
0.0
10
77.3338012695312
20
77.4830017089844
40
0.0
41
0.0
42
0.0
10
77.3373031616211
20
77.4711990356445
40
0.0
41
0.0
42
0.0
10
77.4937973022461
20
77.2037963867188
40
0.0
41
0.0
42
0.0
10
77.9504013061523
20
77.0717010498047
40
0.0
41
0.0
42
0.0
10
77.9824981689453
20
77.0634994506836
40
0.0
41
0.0
42
0.0
10
78.0263977050781
20
77.0637969970703
40
0.0
41
0.0
42
0.0
10
78.4810028076172
20
77.007698059082
40
0.0
41
0.0
42
0.0
10
78.5267028808594
20
77.0086975097656
40
0.0
41
0.0
42
0.0
10
78.5906982421875
20
77.0007019042969
40
0.0
41
0.0
42
0.0
10
78.9853973388672
20
76.9276962280273
40
0.0
41
0.0
42
0.0
10
79.3345031738281
20
76.8047027587891
40
0.0
41
0.0
42
0.0
10
79.3654022216797
20
76.804801940918
40
0.0
41
0.0
42
0.0
10
79.5009002685547
20
76.8805999755859
40
0.0
41
0.0
42
0.0
10
79.6761016845703
20
76.7973022460938
40
0.0
41
0.0
42
0.0
10
79.6952972412109
20
76.7894973754883
40
0.0
41
0.0
42
0.0
10
79.7100982666016
20
76.7895965576172
40
0.0
41
0.0
42
0.0
10
79.7098999023438
20
76.802001953125
40
0.0
41
0.0
42
0.0
10
79.5671997070312
20
77.0000991821289
40
0.0
41
0.0
42
0.0
10
79.7070999145508
20
77.1966018676758
40
0.0
41
0.0
42
0.0
10
79.9663009643555
20
77.4922027587891
40
0.0
41
0.0
42
0.0
10
80.0009994506836
20
77.5534973144531
40
0.0
41
0.0
42
0.0
10
80.1863021850586
20
77.9877014160156
40
0.0
41
0.0
42
0.0
10
80.3462982177734
20
78.4217987060547
40
0.0
41
0.0
42
0.0
10
80.3684005737305
20
78.4848022460938
40
0.0
41
0.0
42
0.0
10
80.3727035522461
20
78.5198974609375
40
0.0
41
0.0
42
0.0
10
80.4691009521484
20
78.7836990356445
40
0.0
41
0.0
42
0.0
10
80.5027008056641
20
78.8347015380859
40
0.0
41
0.0
42
0.0
10
80.6201019287109
20
78.9947967529297
40
0.0
41
0.0
42
0.0
10
80.8629989624023
20
79.1783981323242
40
0.0
41
0.0
42
0.0
10
81.0031967163086
20
79.2742004394531
40
0.0
41
0.0
42
0.0
10
81.0186004638672
20
79.2686996459961
40
0.0
41
0.0
42
0.0
10
81.4831008911133
20
79.2649002075195
40
0.0
41
0.0
42
0.0
10
81.9518966674805
20
79.1248016357422
40
0.0
41
0.0
42
0.0
10
81.9885025024414
20
79.1100006103516
40
0.0
41
0.0
42
0.0
10
82.2164001464844
20
78.9983978271484
40
0.0
41
0.0
42
0.0
10
82.4912033081055
20
78.8386001586914
40
0.0
41
0.0
42
0.0
10
82.5274963378906
20
78.8134994506836
40
0.0
41
0.0
42
0.0
10
82.9208984375
20
78.4944000244141
40
0.0
41
0.0
42
0.0
10
82.9962997436523
20
78.3864974975586
40
0.0
41
0.0
42
0.0
10
83.0094985961914
20
78.3720016479492
40
0.0
41
0.0
42
0.0
10
83.032600402832
20
78.3368988037109
40
0.0
41
0.0
42
0.0
10
83.2473983764648
20
77.9871978759766
40
0.0
41
0.0
42
0.0
10
83.3133010864258
20
77.5014038085938
40
0.0
41
0.0
42
0.0
10
83.2354965209961
20
77.0149993896484
40
0.0
41
0.0
42
0.0
10
83.2232971191406
20
76.9779968261719
40
0.0
41
0.0
42
0.0
10
83.0467987060547
20
76.5114974975586
40
0.0
41
0.0
42
0.0
10
82.9980010986328
20
76.4134979248047
40
0.0
41
0.0
42
0.0
10
82.6915969848633
20
75.9725036621094
40
0.0
41
0.0
42
0.0
10
82.4927978515625
20
75.7176971435547
40
0.0
41
0.0
42
0.0
10
81.9997024536133
20
75.5438995361328
40
0.0
41
0.0
42
0.0
10
81.5109024047852
20
75.7123031616211
40
0.0
41
0.0
42
0.0
10
81.181999206543
20
75.9121017456055
40
0.0
41
0.0
42
0.0
10
81.0257034301758
20
76.0016021728516
40
0.0
41
0.0
42
0.0
10
80.5113983154297
20
76.2845001220703
40
0.0
41
0.0
42
0.0
10
80.0809020996094
20
76.4324035644531
40
0.0
41
0.0
42
0.0
10
80.0169982910156
20
76.4505996704102
40
0.0
41
0.0
42
0.0
10
79.9830017089844
20
76.4505996704102
40
0.0
41
0.0
42
0.0
10
79.915397644043
20
76.4302978515625
40
0.0
41
0.0
42
0.0
10
79.4922027587891
20
76.3679962158203
40
0.0
41
0.0
42
0.0
10
79.2481994628906
20
76.0048980712891
40
0.0
41
0.0
42
0.0
10
79.1850967407227
20
75.9614028930664
40
0.0
41
0.0
42
0.0
10
78.9947967529297
20
75.8041000366211
40
0.0
41
0.0
42
0.0
10
78.7472991943359
20
75.5065994262695
40
0.0
41
0.0
42
0.0
10
78.5296020507812
20
75.2409973144531
40
0.0
41
0.0
42
0.0
10
78.4908981323242
20
75.2121963500977
40
0.0
41
0.0
42
0.0
10
78.4834976196289
20
75.2086029052734
40
0.0
41
0.0
42
0.0
10
78.2970962524414
20
75.0115966796875
40
0.0
41
0.0
42
0.0
10
78.2969970703125
20
74.9828033447266
40
0.0
41
0.0
42
0.0
10
78.4273986816406
20
74.5195999145508
40
0.0
41
0.0
42
0.0
10
78.4328002929688
20
74.4894027709961
40
0.0
41
0.0
42
0.0
10
78.4945983886719
20
74.4196014404297
40
0.0
41
0.0
42
0.0
10
78.5300979614258
20
74.3878021240234
40
0.0
41
0.0
42
0.0
10
78.8584976196289
20
73.9931030273438
40
0.0
41
0.0
42
0.0
10
78.9956970214844
20
73.7538986206055
40
0.0
41
0.0
42
0.0
10
79.0281982421875
20
73.7317962646484
40
0.0
41
0.0
42
0.0
10
79.2621002197266
20
73.5093002319336
40
0.0
41
0.0
42
0.0
10
79.2828979492188
20
73.4944000244141
40
0.0
41
0.0
42
0.0
10
79.4919967651367
20
73.1396026611328
40
0.0
41
0.0
42
0.0
10
79.5193023681641
20
73.1395034790039
40
0.0
41
0.0
42
0.0
10
79.9169998168945
20
73.16259765625
40
0.0
41
0.0
42
0.0
10
79.9826965332031
20
73.1453018188477
40
0.0
41
0.0
42
0.0
10
80.0161972045898
20
73.1454010009766
40
0.0
41
0.0
42
0.0
10
80.4656982421875
20
73.3099975585938
40
0.0
41
0.0
42
0.0
10
80.5129013061523
20
73.3209991455078
40
0.0
41
0.0
42
0.0
10
80.8818969726562
20
73.4989013671875
40
0.0
41
0.0
42
0.0
10
80.9760971069336
20
73.5421981811523
40
0.0
41
0.0
42
0.0
10
81.513298034668
20
73.7977981567383
40
0.0
41
0.0
42
0.0
10
81.9940032958984
20
73.8943023681641
40
0.0
41
0.0
42
0.0
10
82.4953002929688
20
73.5814971923828
40
0.0
41
0.0
42
0.0
10
82.5295028686523
20
73.5246963500977
40
0.0
41
0.0
42
0.0
10
82.5454025268555
20
73.489501953125
40
0.0
41
0.0
42
0.0
10
82.8106994628906
20
73.0243988037109
40
0.0
41
0.0
42
0.0
10
82.8268966674805
20
72.9878005981445
40
0.0
41
0.0
42
0.0
10
83.0095977783203
20
72.4850997924805
40
0.0
41
0.0
42
0.0
10
83.0777969360352
20
72.0186996459961
40
0.0
41
0.0
42
0.0
10
83.0827026367188
20
71.9962005615234
40
0.0
41
0.0
42
0.0
10
83.0211029052734
20
71.5534973144531
40
0.0
41
0.0
42
0.0
10
83.0213012695312
20
71.5110015869141
40
0.0
41
0.0
42
0.0
10
83.0108032226562
20
71.4758987426758
40
0.0
41
0.0
42
0.0
10
82.9979019165039
20
71.4564971923828
40
0.0
41
0.0
42
0.0
10
82.7469024658203
20
71.0074996948242
40
0.0
41
0.0
42
0.0
10
82.7109985351562
20
70.9688034057617
40
0.0
41
0.0
42
0.0
10
82.6984024047852
20
70.9605026245117
40
0.0
41
0.0
42
0.0
10
82.4925003051758
20
70.785400390625
40
0.0
41
0.0
42
0.0
10
82.0463027954102
20
70.5017013549805
40
0.0
41
0.0
42
0.0
10
81.9882965087891
20
70.4716033935547
40
0.0
41
0.0
42
0.0
10
81.5222015380859
20
70.3087997436523
40
0.0
41
0.0
42
0.0
10
81.4852981567383
20
70.2946014404297
40
0.0
41
0.0
42
0.0
10
81.0211029052734
20
70.2267990112305
40
0.0
41
0.0
42
0.0
10
80.9974975585938
20
70.2190017700195
40
0.0
41
0.0
42
0.0
10
80.5781021118164
20
70.3167037963867
40
0.0
41
0.0
42
0.0
10
80.5417022705078
20
70.3165969848633
40
0.0
41
0.0
42
0.0
10
80.5080032348633
20
70.3126983642578
40
0.0
41
0.0
42
0.0
10
80.3923034667969
20
70.4346008300781
40
0.0
41
0.0
42
0.0
10
80.3096008300781
20
70.5071029663086
40
0.0
41
0.0
42
0.0
10
80.1151962280273
20
70.9291000366211
40
0.0
41
0.0
42
0.0
10
80.0923004150391
20
71.0140991210938
40
0.0
41
0.0
42
0.0
10
79.9997024536133
20
71.3115997314453
40
0.0
41
0.0
42
0.0
10
79.9457015991211
20
71.5140991210938
40
0.0
41
0.0
42
0.0
10
79.8015975952148
20
71.9710998535156
40
0.0
41
0.0
42
0.0
10
79.5907974243164
20
72.4385986328125
40
0.0
41
0.0
42
0.0
10
79.5342025756836
20
72.5098037719727
40
0.0
41
0.0
42
0.0
10
79.5046997070312
20
72.6003036499023
40
0.0
41
0.0
42
0.0
10
79.3546981811523
20
72.5998001098633
40
0.0
41
0.0
42
0.0
10
79.0150985717773
20
72.7654037475586
40
0.0
41
0.0
42
0.0
10
78.981201171875
20
72.7654037475586
40
0.0
41
0.0
42
0.0
10
78.5802001953125
20
72.7148971557617
40
0.0
41
0.0
42
0.0
10
78.4829025268555
20
72.7342987060547
40
0.0
41
0.0
42
0.0
10
78.4457015991211
20
72.7341995239258
40
0.0
41
0.0
42
0.0
10
78.0045013427734
20
72.7027969360352
40
0.0
41
0.0
42
0.0
10
77.9837036132812
20
72.7053985595703
40
0.0
41
0.0
42
0.0
10
77.94580078125
20
72.7053985595703
40
0.0
41
0.0
42
0.0
10
77.4838027954102
20
72.6660995483398
40
0.0
41
0.0
42
0.0
10
77.4711990356445
20
72.6623992919922
40
0.0
41
0.0
42
0.0
10
77.2037963867188
20
72.506103515625
40
0.0
41
0.0
42
0.0
10
77.0717010498047
20
72.0494995117188
40
0.0
41
0.0
42
0.0
10
77.0634994506836
20
72.0174026489258
40
0.0
41
0.0
42
0.0
10
77.0637969970703
20
71.973503112793
40
0.0
41
0.0
42
0.0
10
77.007698059082
20
71.5188980102539
40
0.0
41
0.0
42
0.0
10
77.0087966918945
20
71.4730987548828
40
0.0
41
0.0
42
0.0
10
77.0007019042969
20
71.4091033935547
40
0.0
41
0.0
42
0.0
10
76.9276962280273
20
71.0145034790039
40
0.0
41
0.0
42
0.0
10
76.804801940918
20
70.6652984619141
40
0.0
41
0.0
42
0.0
10
76.8047027587891
20
70.6342010498047
40
0.0
41
0.0
42
0.0
10
76.8805999755859
20
70.4990005493164
40
0.0
41
0.0
42
0.0
10
76.7894973754883
20
70.3040008544922
40
0.0
41
0.0
42
0.0
10
76.7894973754883
20
70.2895965576172
40
0.0
41
0.0
42
0.0
10
76.8021011352539
20
70.2898025512695
40
0.0
41
0.0
42
0.0
10
77.0
20
70.432502746582
40
0.0
41
0.0
42
0.0
10
77.1965026855469
20
70.2927017211914
40
0.0
41
0.0
42
0.0
10
77.4921035766602
20
70.0335006713867
40
0.0
41
0.0
42
0.0
10
77.5534973144531
20
69.9988021850586
40
0.0
41
0.0
42
0.0
10
77.9877014160156
20
69.8134002685547
40
0.0
41
0.0
42
0.0
10
78.4216995239258
20
69.6533966064453
40
0.0
41
0.0
42
0.0
10
78.4848022460938
20
69.6314010620117
40
0.0
41
0.0
42
0.0
10
78.5198974609375
20
69.6269989013672
40
0.0
41
0.0
42
0.0
10
78.7835998535156
20
69.5306015014648
40
0.0
41
0.0
42
0.0
10
78.834602355957
20
69.497200012207
40
0.0
41
0.0
42
0.0
10
78.9947967529297
20
69.3796005249023
40
0.0
41
0.0
42
0.0
10
79.1783981323242
20
69.1368026733398
40
0.0
41
0.0
42
0.0
10
79.274299621582
20
68.996696472168
40
0.0
41
0.0
42
0.0
10
79.2686996459961
20
68.9813003540039
40
0.0
41
0.0
42
0.0
10
79.2649002075195
20
68.5167999267578
40
0.0
41
0.0
42
0.0
10
79.1248016357422
20
68.0479965209961
40
0.0
41
0.0
42
0.0
10
79.1100006103516
20
68.0113983154297
40
0.0
41
0.0
42
0.0
10
78.9984970092773
20
67.7834014892578
40
0.0
41
0.0
42
0.0
10
78.8386993408203
20
67.5086975097656
40
0.0
41
0.0
42
0.0
10
78.8135986328125
20
67.472297668457
40
0.0
41
0.0
42
0.0
10
78.494499206543
20
67.0789031982422
40
0.0
41
0.0
42
0.0
10
78.3371963500977
20
66.9674987792969
40
0.0
41
0.0
42
0.0
10
77.9871978759766
20
66.7524032592773
40
0.0
41
0.0
42
0.0
10
77.5014038085938
20
66.6864013671875
40
0.0
41
0.0
42
0.0
10
77.0149993896484
20
66.7641983032227
40
0.0
41
0.0
42
0.0
10
76.977897644043
20
66.7763977050781
40
0.0
41
0.0
42
0.0
10
76.5114974975586
20
66.9530029296875
40
0.0
41
0.0
42
0.0
10
76.4134979248047
20
67.0018005371094
40
0.0
41
0.0
42
0.0
10
76.007698059082
20
67.2835006713867
40
0.0
41
0.0
42
0.0
10
75.9188995361328
20
67.3494033813477
40
0.0
41
0.0
42
0.0
10
75.7176971435547
20
67.5071029663086
40
0.0
41
0.0
42
0.0
10
75.5439987182617
20
68.0001983642578
40
0.0
41
0.0
42
0.0
10
75.71240234375
20
68.488899230957
40
0.0
41
0.0
42
0.0
10
75.9121017456055
20
68.8177032470703
40
0.0
41
0.0
42
0.0
10
76.0016021728516
20
68.9740982055664
40
0.0
41
0.0
42
0.0
10
76.2845993041992
20
69.4885025024414
40
0.0
41
0.0
42
0.0
10
76.4324035644531
20
69.9188003540039
40
0.0
41
0.0
42
0.0
10
76.4505996704102
20
69.9829025268555
40
0.0
41
0.0
42
0.0
10
76.4505004882812
20
70.0168991088867
40
0.0
41
0.0
42
0.0
10
76.4302978515625
20
70.0843963623047
40
0.0
41
0.0
42
0.0
10
76.3678970336914
20
70.5075988769531
40
0.0
41
0.0
42
0.0
10
76.0048980712891
20
70.7517013549805
40
0.0
41
0.0
42
0.0
10
75.9614028930664
20
70.814697265625
40
0.0
41
0.0
42
0.0
10
75.8040008544922
20
71.004997253418
40
0.0
41
0.0
42
0.0
10
75.5065002441406
20
71.2525024414062
40
0.0
41
0.0
42
0.0
10
75.2409973144531
20
71.4702987670898
40
0.0
41
0.0
42
0.0
10
75.2121963500977
20
71.508903503418
40
0.0
41
0.0
42
0.0
10
75.2086029052734
20
71.5162963867188
40
0.0
41
0.0
42
0.0
10
75.0115966796875
20
71.7027969360352
40
0.0
41
0.0
42
0.0
10
74.9817962646484
20
71.7026977539062
40
0.0
41
0.0
42
0.0
10
74.9496994018555
20
71.6968994140625
40
0.0
41
0.0
42
0.0
10
74.4903030395508
20
71.5675964355469
40
0.0
41
0.0
42
0.0
10
74.4195022583008
20
71.504997253418
40
0.0
41
0.0
42
0.0
10
74.3879013061523
20
71.4698028564453
40
0.0
41
0.0
42
0.0
10
73.9936981201172
20
71.1417007446289
40
0.0
41
0.0
42
0.0
10
73.7539978027344
20
71.0040969848633
40
0.0
41
0.0
42
0.0
10
73.7325973510742
20
70.9728012084961
40
0.0
41
0.0
42
0.0
10
73.7001037597656
20
70.9337997436523
40
0.0
41
0.0
42
0.0
10
73.4931030273438
20
70.7161026000977
40
0.0
41
0.0
42
0.0
10
73.1396026611328
20
70.5078964233398
40
0.0
41
0.0
42
0.0
10
73.1395034790039
20
70.480598449707
40
0.0
41
0.0
42
0.0
10
73.16259765625
20
70.0827026367188
40
0.0
41
0.0
42
0.0
10
73.1453018188477
20
70.0171966552734
40
0.0
41
0.0
42
0.0
10
73.1453018188477
20
69.9835968017578
40
0.0
41
0.0
42
0.0
10
73.3098983764648
20
69.5341033935547
40
0.0
41
0.0
42
0.0
10
73.3209991455078
20
69.4869995117188
40
0.0
41
0.0
42
0.0
10
73.4989013671875
20
69.1178970336914
40
0.0
41
0.0
42
0.0
10
73.5420989990234
20
69.0238037109375
40
0.0
41
0.0
42
0.0
10
73.7976989746094
20
68.4866027832031
40
0.0
41
0.0
42
0.0
10
73.8943023681641
20
68.0058975219727
40
0.0
41
0.0
42
0.0
10
73.5815963745117
20
67.5046005249023
40
0.0
41
0.0
42
0.0
10
73.5246963500977
20
67.4701995849609
40
0.0
41
0.0
42
0.0
10
73.4544982910156
20
67.4387969970703
40
0.0
41
0.0
42
0.0
10
72.9888000488281
20
67.1732025146484
40
0.0
41
0.0
42
0.0
10
72.4858016967773
20
66.9903030395508
40
0.0
41
0.0
42
0.0
10
72.4486999511719
20
66.9822006225586
40
0.0
41
0.0
42
0.0
10
71.9741973876953
20
66.9133987426758
40
0.0
41
0.0
42
0.0
10
71.5155029296875
20
66.9772033691406
40
0.0
41
0.0
42
0.0
10
71.4758987426758
20
66.9889984130859
40
0.0
41
0.0
42
0.0
10
71.4563980102539
20
67.0019989013672
40
0.0
41
0.0
42
0.0
10
71.0070037841797
20
67.2530975341797
40
0.0
41
0.0
42
0.0
10
70.9617004394531
20
67.2998962402344
40
0.0
41
0.0
42
0.0
10
70.7853012084961
20
67.5074005126953
40
0.0
41
0.0
42
0.0
10
70.5017013549805
20
67.953498840332
40
0.0
41
0.0
42
0.0
10
70.4714965820312
20
68.0115966796875
40
0.0
41
0.0
42
0.0
10
70.3087997436523
20
68.4776992797852
40
0.0
41
0.0
42
0.0
10
70.2946014404297
20
68.5146026611328
40
0.0
41
0.0
42
0.0
10
70.2267990112305
20
68.9786987304688
40
0.0
41
0.0
42
0.0
10
70.2190017700195
20
69.0024032592773
40
0.0
41
0.0
42
0.0
10
70.3167037963867
20
69.4216995239258
40
0.0
41
0.0
42
0.0
10
70.3165969848633
20
69.4581985473633
40
0.0
41
0.0
42
0.0
10
70.3127975463867
20
69.4918975830078
40
0.0
41
0.0
42
0.0
10
70.434700012207
20
69.6074981689453
40
0.0
41
0.0
42
0.0
10
70.5071029663086
20
69.6901016235352
40
0.0
41
0.0
42
0.0
10
70.9291000366211
20
69.8844985961914
40
0.0
41
0.0
42
0.0
10
71.0140991210938
20
69.9074020385742
40
0.0
41
0.0
42
0.0
10
71.3115005493164
20
70.0
40
0.0
41
0.0
42
0.0
10
71.4352035522461
20
70.0353012084961
40
0.0
41
0.0
42
0.0
10
71.5143966674805
20
70.0541000366211
40
0.0
41
0.0
42
0.0
10
71.9711990356445
20
70.1980972290039
40
0.0
41
0.0
42
0.0
10
72.4385986328125
20
70.4088973999023
40
0.0
41
0.0
42
0.0
10
72.5098037719727
20
70.4654998779297
40
0.0
41
0.0
42
0.0
10
72.6003036499023
20
70.4952011108398
40
0.0
41
0.0
42
0.0
10
72.5998992919922
20
70.6451034545898
40
0.0
41
0.0
42
0.0
10
72.7654037475586
20
70.9848022460938
40
0.0
41
0.0
42
0.0
10
72.7654037475586
20
71.0186996459961
40
0.0
41
0.0
42
0.0
10
72.7148971557617
20
71.4196014404297
40
0.0
41
0.0
42
0.0
10
72.7342987060547
20
71.5169982910156
40
0.0
41
0.0
42
0.0
10
72.7341995239258
20
71.55419921875
40
0.0
41
0.0
42
0.0
10
72.7027969360352
20
71.9952011108398
40
0.0
41
0.0
42
0.0
10
72.7053985595703
20
72.0161972045898
40
0.0
41
0.0
42
0.0
10
72.7053985595703
20
72.0541000366211
40
0.0
41
0.0
42
0.0
10
72.6660995483398
20
72.515998840332
40
0.0
41
0.0
42
0.0
10
72.6623001098633
20
72.5286026000977
40
0.0
41
0.0
42
0.0
10
72.5062026977539
20
72.7955017089844
40
0.0
41
0.0
42
0.0
10
72.4794006347656
20
72.8022994995117
40
0.0
41
0.0
42
0.0
10
72.0169982910156
20
72.9362030029297
40
0.0
41
0.0
42
0.0
10
71.973503112793
20
72.9358978271484
40
0.0
41
0.0
42
0.0
10
71.5188980102539
20
72.9919967651367
40
0.0
41
0.0
42
0.0
10
71.4729995727539
20
72.9908981323242
40
0.0
41
0.0
42
0.0
10
71.4091033935547
20
72.9990997314453
40
0.0
41
0.0
42
0.0
10
71.0145034790039
20
73.0719985961914
40
0.0
41
0.0
42
0.0
10
70.6652984619141
20
73.1950988769531
40
0.0
41
0.0
42
0.0
10
70.6343002319336
20
73.1949996948242
40
0.0
41
0.0
42
0.0
10
70.4990005493164
20
73.1191024780273
40
0.0
41
0.0
42
0.0
10
70.3039016723633
20
73.2101974487305
40
0.0
41
0.0
42
0.0
10
70.2895965576172
20
73.2102966308594
40
0.0
41
0.0
42
0.0
10
70.2898025512695
20
73.1977005004883
40
0.0
41
0.0
42
0.0
10
70.4326019287109
20
72.9999008178711
40
0.0
41
0.0
42
0.0
10
70.2927017211914
20
72.8031997680664
40
0.0
41
0.0
42
0.0
10
70.0335006713867
20
72.507698059082
40
0.0
41
0.0
42
0.0
10
69.9988021850586
20
72.4462966918945
40
0.0
41
0.0
42
0.0
10
69.8134994506836
20
72.0121994018555
40
0.0
41
0.0
42
0.0
10
69.6533966064453
20
71.5781021118164
40
0.0
41
0.0
42
0.0
10
69.6314010620117
20
71.5150985717773
40
0.0
41
0.0
42
0.0
10
69.6268997192383
20
71.4787979125977
40
0.0
41
0.0
42
0.0
10
69.5716018676758
20
71.3671035766602
40
0.0
41
0.0
42
0.0
10
69.4987030029297
20
71.1670989990234
40
0.0
41
0.0
42
0.0
10
69.3796997070312
20
71.0050964355469
40
0.0
41
0.0
42
0.0
10
69.1368026733398
20
70.821403503418
40
0.0
41
0.0
42
0.0
10
68.996696472168
20
70.7254028320312
40
0.0
41
0.0
42
0.0
10
68.981201171875
20
70.7310028076172
40
0.0
41
0.0
42
0.0
10
68.5157012939453
20
70.7348022460938
40
0.0
41
0.0
42
0.0
10
68.477897644043
20
70.7501983642578
40
0.0
41
0.0
42
0.0
10
68.0122985839844
20
70.8892974853516
40
0.0
41
0.0
42
0.0
10
67.7833023071289
20
71.0014038085938
40
0.0
41
0.0
42
0.0
10
67.5086975097656
20
71.1611022949219
40
0.0
41
0.0
42
0.0
10
67.472297668457
20
71.1860961914062
40
0.0
41
0.0
42
0.0
10
67.0787963867188
20
71.5054016113281
40
0.0
41
0.0
42
0.0
10
66.9662017822266
20
71.6650009155273
40
0.0
41
0.0
42
0.0
10
66.7522964477539
20
72.0127029418945
40
0.0
41
0.0
42
0.0
10
66.6865005493164
20
72.4984970092773
40
0.0
41
0.0
42
0.0
10
66.7572021484375
20
72.9347991943359
40
0.0
41
0.0
42
0.0
210
0.0
220
0.0
230
1.0
0
LWPOLYLINE
5
26
330
1C
100
AcDbEntity
67
0
8
0
62
256
6
ByLayer
370
-1
48
1.0
60
0
100
AcDbPolyline
90
36
70
1
38
0.0
39
0.0
10
67.5476989746094
20
65.0009994506836
40
0.0
41
0.0
42
0.0
10
67.6508026123047
20
65.2743988037109
40
0.0
41
0.0
42
0.0
10
67.6955032348633
20
65.4952011108398
40
0.0
41
0.0
42
0.0
10
67.8820037841797
20
65.5708999633789
40
0.0
41
0.0
42
0.0
10
68.0145034790039
20
65.6306991577148
40
0.0
41
0.0
42
0.0
10
68.4672012329102
20
65.6761016845703
40
0.0
41
0.0
42
0.0
10
68.9414978027344
20
65.6651000976562
40
0.0
41
0.0
42
0.0
10
69.4822998046875
20
65.6162033081055
40
0.0
41
0.0
42
0.0
10
69.5183029174805
20
65.611198425293
40
0.0
41
0.0
42
0.0
10
69.9848022460938
20
65.5238037109375
40
0.0
41
0.0
42
0.0
10
70.0176010131836
20
65.5141983032227
40
0.0
41
0.0
42
0.0
10
70.0503997802734
20
65.4994964599609
40
0.0
41
0.0
42
0.0
10
70.4885025024414
20
65.3567962646484
40
0.0
41
0.0
42
0.0
10
70.9922027587891
20
65.0662002563477
40
0.0
41
0.0
42
0.0
10
71.0427017211914
20
65.0220031738281
40
0.0
41
0.0
42
0.0
10
71.0634994506836
20
65.0009994506836
40
0.0
41
0.0
42
0.0
10
71.0998992919922
20
65.0009994506836
40
0.0
41
0.0
42
0.0
10
71.0998001098633
20
65.0112991333008
40
0.0
41
0.0
42
0.0
10
71.0496978759766
20
65.0621032714844
40
0.0
41
0.0
42
0.0
10
71.0075988769531
20
65.0988998413086
40
0.0
41
0.0
42
0.0
10
70.5112991333008
20
65.385498046875
40
0.0
41
0.0
42
0.0
10
70.1588973999023
20
65.5002975463867
40
0.0
41
0.0
42
0.0
10
70.0832977294922
20
65.5341033935547
40
0.0
41
0.0
42
0.0
10
70.0149993896484
20
65.5542984008789
40
0.0
41
0.0
42
0.0
10
69.5915985107422
20
65.6335983276367
40
0.0
41
0.0
42
0.0
10
69.5175018310547
20
65.6438980102539
40
0.0
41
0.0
42
0.0
10
69.0182037353516
20
65.6897964477539
40
0.0
41
0.0
42
0.0
10
68.9340972900391
20
65.6960983276367
40
0.0
41
0.0
42
0.0
10
68.3916015625
20
65.7088012695312
40
0.0
41
0.0
42
0.0
10
67.9854965209961
20
65.6679992675781
40
0.0
41
0.0
42
0.0
10
67.7104034423828
20
65.5436019897461
40
0.0
41
0.0
42
0.0
10
67.614501953125
20
65.5047988891602
40
0.0
41
0.0
42
0.0
10
67.5248031616211
20
65.0612030029297
40
0.0
41
0.0
42
0.0
10
67.5078964233398
20
65.0160980224609
40
0.0
41
0.0
42
0.0
10
67.5078964233398
20
65.0009994506836
40
0.0
41
0.0
42
0.0
10
67.5476989746094
20
65.0009994506836
40
0.0
41
0.0
42
0.0
210
0.0
220
0.0
230
1.0
0
LWPOLYLINE
5
27
330
1C
100
AcDbEntity
67
0
8
0
62
256
6
ByLayer
370
-1
48
1.0
60
0
100
AcDbPolyline
90
29
70
1
38
0.0
39
0.0
10
68.984001159668
20
84.8490982055664
40
0.0
41
0.0
42
0.0
10
69.481201171875
20
84.7979965209961
40
0.0
41
0.0
42
0.0
10
69.9057998657227
20
84.7888031005859
40
0.0
41
0.0
42
0.0
10
69.980598449707
20
84.7842025756836
40
0.0
41
0.0
42
0.0
10
70.0195007324219
20
84.7841033935547
40
0.0
41
0.0
42
0.0
10
70.4255981445312
20
84.8019027709961
40
0.0
41
0.0
42
0.0
10
70.5186004638672
20
84.7997970581055
40
0.0
41
0.0
42
0.0
10
70.9432983398438
20
84.8656997680664
40
0.0
41
0.0
42
0.0
10
71.0186004638672
20
84.8659973144531
40
0.0
41
0.0
42
0.0
10
71.0897979736328
20
84.8747024536133
40
0.0
41
0.0
42
0.0
10
71.3160018920898
20
84.9630966186523
40
0.0
41
0.0
42
0.0
10
71.404899597168
20
84.9947967529297
40
0.0
41
0.0
42
0.0
10
71.404899597168
20
84.9990005493164
40
0.0
41
0.0
42
0.0
10
71.3121032714844
20
84.9989013671875
40
0.0
41
0.0
42
0.0
10
71.1287994384766
20
84.9337005615234
40
0.0
41
0.0
42
0.0
10
71.0201034545898
20
84.8911972045898
40
0.0
41
0.0
42
0.0
10
70.9813003540039
20
84.8864974975586
40
0.0
41
0.0
42
0.0
10
70.9466018676758
20
84.8862991333008
40
0.0
41
0.0
42
0.0
10
70.4897003173828
20
84.815299987793
40
0.0
41
0.0
42
0.0
10
70.4453964233398
20
84.8154983520508
40
0.0
41
0.0
42
0.0
10
70.0036010742188
20
84.7960968017578
40
0.0
41
0.0
42
0.0
10
69.5186004638672
20
84.807502746582
40
0.0
41
0.0
42
0.0
10
69.0158996582031
20
84.8588027954102
40
0.0
41
0.0
42
0.0
10
68.5647964477539
20
84.9914016723633
40
0.0
41
0.0
42
0.0
10
68.549201965332
20
84.9990005493164
40
0.0
41
0.0
42
0.0
10
68.5093994140625
20
84.9990005493164
40
0.0
41
0.0
42
0.0
10
68.5093002319336
20
84.9932022094727
40
0.0
41
0.0
42
0.0
10
68.5353012084961
20
84.9807968139648
40
0.0
41
0.0
42
0.0
10
68.984001159668
20
84.8490982055664
40
0.0
41
0.0
42
0.0
210
0.0
220
0.0
230
1.0
0
LWPOLYLINE
5
28
330
1C
100
AcDbEntity
67
0
8
0
62
256
6
ByLayer
370
-1
48
1.0
60
0
100
AcDbPolyline
90
142
70
1
38
0.0
39
0.0
10
73.4130020141602
20
74.9364013671875
40
0.0
41
0.0
42
0.0
10
73.4901962280273
20
74.9117965698242
40
0.0
41
0.0
42
0.0
10
73.9160995483398
20
74.5579986572266
40
0.0
41
0.0
42
0.0
10
73.9494018554688
20
74.5432968139648
40
0.0
41
0.0
42
0.0
10
73.9816970825195
20
74.5431976318359
40
0.0
41
0.0
42
0.0
10
74.0090026855469
20
74.5518035888672
40
0.0
41
0.0
42
0.0
10
74.0455017089844
20
74.5203018188477
40
0.0
41
0.0
42
0.0
10
74.0790023803711
20
74.4972991943359
40
0.0
41
0.0
42
0.0
10
74.0475997924805
20
74.4356002807617
40
0.0
41
0.0
42
0.0
10
73.9545974731445
20
74.4019012451172
40
0.0
41
0.0
42
0.0
10
73.9209976196289
20
74.3790969848633
40
0.0
41
0.0
42
0.0
10
73.9119033813477
20
74.3619003295898
40
0.0
41
0.0
42
0.0
10
73.7858963012695
20
74.0164031982422
40
0.0
41
0.0
42
0.0
10
73.7873992919922
20
73.9162979125977
40
0.0
41
0.0
42
0.0
10
73.8016967773438
20
73.9161987304688
40
0.0
41
0.0
42
0.0
10
73.86669921875
20
73.9490966796875
40
0.0
41
0.0
42
0.0
10
73.9869003295898
20
73.8606033325195
40
0.0
41
0.0
42
0.0
10
74.0092010498047
20
73.8606033325195
40
0.0
41
0.0
42
0.0
10
74.0354995727539
20
73.8966979980469
40
0.0
41
0.0
42
0.0
10
74.2788009643555
20
73.9965972900391
40
0.0
41
0.0
42
0.0
10
74.3062973022461
20
74.0475006103516
40
0.0
41
0.0
42
0.0
10
74.5363998413086
20
74.1891021728516
40
0.0
41
0.0
42
0.0
10
74.5552978515625
20
74.1671981811523
40
0.0
41
0.0
42
0.0
10
74.5314025878906
20
74.138801574707
40
0.0
41
0.0
42
0.0
10
74.5315017700195
20
74.1131973266602
40
0.0
41
0.0
42
0.0
10
74.6213989257812
20
73.9919967651367
40
0.0
41
0.0
42
0.0
10
74.91259765625
20
73.5516967773438
40
0.0
41
0.0
42
0.0
10
74.8925018310547
20
73.5146026611328
40
0.0
41
0.0
42
0.0
10
74.8924026489258
20
73.4832000732422
40
0.0
41
0.0
42
0.0
10
74.9136962890625
20
73.4166030883789
40
0.0
41
0.0
42
0.0
10
74.9418029785156
20
73.3906021118164
40
0.0
41
0.0
42
0.0
10
74.9917984008789
20
73.3084030151367
40
0.0
41
0.0
42
0.0
10
75.0083999633789
20
73.3084030151367
40
0.0
41
0.0
42
0.0
10
75.0152969360352
20
73.3191986083984
40
0.0
41
0.0
42
0.0
10
75.0633010864258
20
73.4130020141602
40
0.0
41
0.0
42
0.0
10
75.0858001708984
20
73.4832000732422
40
0.0
41
0.0
42
0.0
10
75.0857009887695
20
73.5167007446289
40
0.0
41
0.0
42
0.0
10
75.0772018432617
20
73.5440979003906
40
0.0
41
0.0
42
0.0
10
75.4496994018555
20
73.9926986694336
40
0.0
41
0.0
42
0.0
10
75.4702987670898
20
74.0223007202148
40
0.0
41
0.0
42
0.0
10
75.4702987670898
20
74.048698425293
40
0.0
41
0.0
42
0.0
10
75.4450988769531
20
74.0828018188477
40
0.0
41
0.0
42
0.0
10
75.4602966308594
20
74.1007995605469
40
0.0
41
0.0
42
0.0
10
75.5641021728516
20
74.0475006103516
40
0.0
41
0.0
42
0.0
10
75.5978012084961
20
73.9545974731445
40
0.0
41
0.0
42
0.0
10
75.6206970214844
20
73.9209976196289
40
0.0
41
0.0
42
0.0
10
75.6379013061523
20
73.9117965698242
40
0.0
41
0.0
42
0.0
10
75.9834976196289
20
73.7858963012695
40
0.0
41
0.0
42
0.0
10
76.0836029052734
20
73.7873992919922
40
0.0
41
0.0
42
0.0
10
76.0835037231445
20
73.8016967773438
40
0.0
41
0.0
42
0.0
10
76.0506973266602
20
73.86669921875
40
0.0
41
0.0
42
0.0
10
76.1392974853516
20
73.9868011474609
40
0.0
41
0.0
42
0.0
10
76.1391983032227
20
74.0092010498047
40
0.0
41
0.0
42
0.0
10
76.1029968261719
20
74.035400390625
40
0.0
41
0.0
42
0.0
10
76.003303527832
20
74.2788009643555
40
0.0
41
0.0
42
0.0
10
75.9522018432617
20
74.3061981201172
40
0.0
41
0.0
42
0.0
10
75.8345031738281
20
74.4979019165039
40
0.0
41
0.0
42
0.0
10
75.9536972045898
20
74.5861968994141
40
0.0
41
0.0
42
0.0
10
75.9957962036133
20
74.6252975463867
40
0.0
41
0.0
42
0.0
10
76.0136032104492
20
74.6251983642578
40
0.0
41
0.0
42
0.0
10
76.4481964111328
20
74.91259765625
40
0.0
41
0.0
42
0.0
10
76.4852981567383
20
74.8925018310547
40
0.0
41
0.0
42
0.0
10
76.5167007446289
20
74.8925018310547
40
0.0
41
0.0
42
0.0
10
76.5831985473633
20
74.9138031005859
40
0.0
41
0.0
42
0.0
10
76.6091003417969
20
74.9418029785156
40
0.0
41
0.0
42
0.0
10
76.6914978027344
20
74.9917984008789
40
0.0
41
0.0
42
0.0
10
76.6913986206055
20
75.0083999633789
40
0.0
41
0.0
42
0.0
10
76.6806030273438
20
75.0152969360352
40
0.0
41
0.0
42
0.0
10
76.5868988037109
20
75.0633010864258
40
0.0
41
0.0
42
0.0
10
76.5167007446289
20
75.0858001708984
40
0.0
41
0.0
42
0.0
10
76.4832000732422
20
75.0857009887695
40
0.0
41
0.0
42
0.0
10
76.4558029174805
20
75.0771026611328
40
0.0
41
0.0
42
0.0
10
76.0072021484375
20
75.4496994018555
40
0.0
41
0.0
42
0.0
10
75.9775009155273
20
75.4702987670898
40
0.0
41
0.0
42
0.0
10
75.9511032104492
20
75.4702987670898
40
0.0
41
0.0
42
0.0
10
75.9170989990234
20
75.4450988769531
40
0.0
41
0.0
42
0.0
10
75.8991012573242
20
75.4602966308594
40
0.0
41
0.0
42
0.0
10
75.9522018432617
20
75.5642013549805
40
0.0
41
0.0
42
0.0
10
76.0453033447266
20
75.597900390625
40
0.0
41
0.0
42
0.0
10
76.0787963867188
20
75.6206970214844
40
0.0
41
0.0
42
0.0
10
76.0878982543945
20
75.6379013061523
40
0.0
41
0.0
42
0.0
10
76.2138977050781
20
75.9837036132812
40
0.0
41
0.0
42
0.0
10
76.2137985229492
20
76.0093002319336
40
0.0
41
0.0
42
0.0
10
76.088996887207
20
76.1013031005859
40
0.0
41
0.0
42
0.0
10
76.0680999755859
20
76.1709976196289
40
0.0
41
0.0
42
0.0
10
76.0485992431641
20
76.1708984375
40
0.0
41
0.0
42
0.0
10
75.993896484375
20
76.143798828125
40
0.0
41
0.0
42
0.0
10
75.9644012451172
20
76.1029968261719
40
0.0
41
0.0
42
0.0
10
75.7209014892578
20
76.0034027099609
40
0.0
41
0.0
42
0.0
10
75.693603515625
20
75.9523010253906
40
0.0
41
0.0
42
0.0
10
75.4636001586914
20
75.8108978271484
40
0.0
41
0.0
42
0.0
10
75.4449005126953
20
75.8322982788086
40
0.0
41
0.0
42
0.0
10
75.4682998657227
20
75.8610000610352
40
0.0
41
0.0
42
0.0
10
75.4682006835938
20
75.8865966796875
40
0.0
41
0.0
42
0.0
10
75.3831024169922
20
76.0012969970703
40
0.0
41
0.0
42
0.0
10
75.3936004638672
20
76.0203018188477
40
0.0
41
0.0
42
0.0
10
75.3935012817383
20
76.053596496582
40
0.0
41
0.0
42
0.0
10
75.3891983032227
20
76.08740234375
40
0.0
41
0.0
42
0.0
10
75.1091003417969
20
76.5106964111328
40
0.0
41
0.0
42
0.0
10
75.0859985351562
20
76.5831985473633
40
0.0
41
0.0
42
0.0
10
75.0578994750977
20
76.6091003417969
40
0.0
41
0.0
42
0.0
10
75.0081024169922
20
76.6914978027344
40
0.0
41
0.0
42
0.0
10
74.9914016723633
20
76.6914978027344
40
0.0
41
0.0
42
0.0
10
74.9843978881836
20
76.6806030273438
40
0.0
41
0.0
42
0.0
10
74.9364013671875
20
76.5868988037109
40
0.0
41
0.0
42
0.0
10
74.9117965698242
20
76.5096969604492
40
0.0
41
0.0
42
0.0
10
74.5579986572266
20
76.0838012695312
40
0.0
41
0.0
42
0.0
10
74.5432968139648
20
76.0504989624023
40
0.0
41
0.0
42
0.0
10
74.5431976318359
20
76.0183029174805
40
0.0
41
0.0
42
0.0
10
74.5478973388672
20
76.0039978027344
40
0.0
41
0.0
42
0.0
10
74.5294036865234
20
75.9775009155273
40
0.0
41
0.0
42
0.0
10
74.5294036865234
20
75.9511032104492
40
0.0
41
0.0
42
0.0
10
74.554801940918
20
75.9170989990234
40
0.0
41
0.0
42
0.0
10
74.5395965576172
20
75.8991012573242
40
0.0
41
0.0
42
0.0
10
74.4356002807617
20
75.9522018432617
40
0.0
41
0.0
42
0.0
10
74.4018020629883
20
76.0453033447266
40
0.0
41
0.0
42
0.0
10
74.3790969848633
20
76.0787963867188
40
0.0
41
0.0
42
0.0
10
74.3619003295898
20
76.0877990722656
40
0.0
41
0.0
42
0.0
10
74.0164031982422
20
76.2137985229492
40
0.0
41
0.0
42
0.0
10
73.9162979125977
20
76.21240234375
40
0.0
41
0.0
42
0.0
10
73.9161987304688
20
76.197998046875
40
0.0
41
0.0
42
0.0
10
73.9490966796875
20
76.1331024169922
40
0.0
41
0.0
42
0.0
10
73.8606033325195
20
76.0130004882812
40
0.0
41
0.0
42
0.0
10
73.8604965209961
20
75.9906005859375
40
0.0
41
0.0
42
0.0
10
73.8966979980469
20
75.9643020629883
40
0.0
41
0.0
42
0.0
10
73.9964981079102
20
75.7209014892578
40
0.0
41
0.0
42
0.0
10
74.0475006103516
20
75.6934967041016
40
0.0
41
0.0
42
0.0
10
74.1891021728516
20
75.4635009765625
40
0.0
41
0.0
42
0.0
10
74.1671981811523
20
75.4446029663086
40
0.0
41
0.0
42
0.0
10
74.1387023925781
20
75.4682998657227
40
0.0
41
0.0
42
0.0
10
74.1131973266602
20
75.4682006835938
40
0.0
41
0.0
42
0.0
10
73.9985961914062
20
75.3831024169922
40
0.0
41
0.0
42
0.0
10
73.9795989990234
20
75.3936004638672
40
0.0
41
0.0
42
0.0
10
73.9462966918945
20
75.3935012817383
40
0.0
41
0.0
42
0.0
10
73.9124984741211
20
75.3891983032227
40
0.0
41
0.0
42
0.0
10
73.4891967773438
20
75.1091003417969
40
0.0
41
0.0
42
0.0
10
73.4166030883789
20
75.0859985351562
40
0.0
41
0.0
42
0.0
10
73.3907012939453
20
75.0578994750977
40
0.0
41
0.0
42
0.0
10
73.3084030151367
20
75.0081024169922
40
0.0
41
0.0
42
0.0
10
73.3082962036133
20
74.9914016723633
40
0.0
41
0.0
42
0.0
10
73.3191986083984
20
74.9843978881836
40
0.0
41
0.0
42
0.0
10
73.4130020141602
20
74.9364013671875
40
0.0
41
0.0
42
0.0
210
0.0
220
0.0
230
1.0
0
LWPOLYLINE
5
29
330
1C
100
AcDbEntity
67
0
8
0
62
256
6
ByLayer
370
-1
48
1.0
60
0
100
AcDbPolyline
90
127
70
1
38
0.0
39
0.0
10
73.3626022338867
20
75.0001983642578
40
0.0
41
0.0
42
0.0
10
73.4586029052734
20
75.0582962036133
40
0.0
41
0.0
42
0.0
10
73.4731979370117
20
75.0742034912109
40
0.0
41
0.0
42
0.0
10
73.5108032226562
20
75.0861968994141
40
0.0
41
0.0
42
0.0
10
73.9434967041016
20
75.3722991943359
40
0.0
41
0.0
42
0.0
10
73.9852981567383
20
75.3496017456055
40
0.0
41
0.0
42
0.0
10
74.0130004882812
20
75.3495025634766
40
0.0
41
0.0
42
0.0
10
74.1149978637695
20
75.4251022338867
40
0.0
41
0.0
42
0.0
10
74.2748031616211
20
75.2929000854492
40
0.0
41
0.0
42
0.0
10
74.2863006591797
20
75.2929000854492
40
0.0
41
0.0
42
0.0
10
74.2862014770508
20
75.3084030151367
40
0.0
41
0.0
42
0.0
10
74.2190017700195
20
75.5110015869141
40
0.0
41
0.0
42
0.0
10
74.1179962158203
20
75.6751022338867
40
0.0
41
0.0
42
0.0
10
74.003303527832
20
75.7365036010742
40
0.0
41
0.0
42
0.0
10
73.9039993286133
20
75.9788970947266
40
0.0
41
0.0
42
0.0
10
73.8878021240234
20
76.0074005126953
40
0.0
41
0.0
42
0.0
10
73.9786987304688
20
76.1306991577148
40
0.0
41
0.0
42
0.0
10
73.9786987304688
20
76.1856002807617
40
0.0
41
0.0
42
0.0
10
74.3816986083984
20
76.0386962890625
40
0.0
41
0.0
42
0.0
10
74.4384994506836
20
75.8817977905273
40
0.0
41
0.0
42
0.0
10
74.4888000488281
20
75.8561019897461
40
0.0
41
0.0
42
0.0
10
74.6921997070312
20
75.7704010009766
40
0.0
41
0.0
42
0.0
10
74.7070007324219
20
75.7704010009766
40
0.0
41
0.0
42
0.0
10
74.706901550293
20
75.7824020385742
40
0.0
41
0.0
42
0.0
10
74.5697021484375
20
75.967399597168
40
0.0
41
0.0
42
0.0
10
74.5829010009766
20
75.9865036010742
40
0.0
41
0.0
42
0.0
10
74.5828018188477
20
76.0167007446289
40
0.0
41
0.0
42
0.0
10
74.5699005126953
20
76.0571975708008
40
0.0
41
0.0
42
0.0
10
74.9296035766602
20
76.4903030395508
40
0.0
41
0.0
42
0.0
10
74.9402008056641
20
76.5230026245117
40
0.0
41
0.0
42
0.0
10
74.9990005493164
20
76.6372985839844
40
0.0
41
0.0
42
0.0
10
75.0001983642578
20
76.6372985839844
40
0.0
41
0.0
42
0.0
10
75.0581970214844
20
76.5410995483398
40
0.0
41
0.0
42
0.0
10
75.0740966796875
20
76.5267028808594
40
0.0
41
0.0
42
0.0
10
75.0860977172852
20
76.4890975952148
40
0.0
41
0.0
42
0.0
10
75.3722991943359
20
76.056396484375
40
0.0
41
0.0
42
0.0
10
75.3496017456055
20
76.0146026611328
40
0.0
41
0.0
42
0.0
10
75.3495025634766
20
75.9869003295898
40
0.0
41
0.0
42
0.0
10
75.4252014160156
20
75.8848037719727
40
0.0
41
0.0
42
0.0
10
75.2929000854492
20
75.7249984741211
40
0.0
41
0.0
42
0.0
10
75.2928009033203
20
75.7134017944336
40
0.0
41
0.0
42
0.0
10
75.3084030151367
20
75.7135009765625
40
0.0
41
0.0
42
0.0
10
75.511100769043
20
75.7807006835938
40
0.0
41
0.0
42
0.0
10
75.6752014160156
20
75.8817977905273
40
0.0
41
0.0
42
0.0
10
75.7366027832031
20
75.9964981079102
40
0.0
41
0.0
42
0.0
10
75.9793014526367
20
76.0959014892578
40
0.0
41
0.0
42
0.0
10
75.991096496582
20
76.1023025512695
40
0.0
41
0.0
42
0.0
10
76.0203018188477
20
76.1426010131836
40
0.0
41
0.0
42
0.0
10
76.0253982543945
20
76.1417007446289
40
0.0
41
0.0
42
0.0
10
76.0386962890625
20
76.0976028442383
40
0.0
41
0.0
42
0.0
10
76.176399230957
20
75.9960021972656
40
0.0
41
0.0
42
0.0
10
76.0386962890625
20
75.6179962158203
40
0.0
41
0.0
42
0.0
10
75.8817977905273
20
75.5613021850586
40
0.0
41
0.0
42
0.0
10
75.856201171875
20
75.511100769043
40
0.0
41
0.0
42
0.0
10
75.7704010009766
20
75.3077011108398
40
0.0
41
0.0
42
0.0
10
75.7704010009766
20
75.2928009033203
40
0.0
41
0.0
42
0.0
10
75.7823028564453
20
75.2927017211914
40
0.0
41
0.0
42
0.0
10
75.967399597168
20
75.4300003051758
40
0.0
41
0.0
42
0.0
10
75.9925994873047
20
75.4124984741211
40
0.0
41
0.0
42
0.0
10
76.4131011962891
20
75.0634002685547
40
0.0
41
0.0
42
0.0
10
76.4457015991211
20
75.0613021850586
40
0.0
41
0.0
42
0.0
10
76.4816970825195
20
75.0612030029297
40
0.0
41
0.0
42
0.0
10
76.5
20
75.0669021606445
40
0.0
41
0.0
42
0.0
10
76.5227966308594
20
75.059700012207
40
0.0
41
0.0
42
0.0
10
76.6372985839844
20
75.0008010864258
40
0.0
41
0.0
42
0.0
10
76.6372985839844
20
74.9996032714844
40
0.0
41
0.0
42
0.0
10
76.5412979125977
20
74.9415969848633
40
0.0
41
0.0
42
0.0
10
76.5266036987305
20
74.9255981445312
40
0.0
41
0.0
42
0.0
10
76.5029983520508
20
74.9179992675781
40
0.0
41
0.0
42
0.0
10
76.4794998168945
20
74.9309005737305
40
0.0
41
0.0
42
0.0
10
76.4112014770508
20
74.9312973022461
40
0.0
41
0.0
42
0.0
10
76.0003967285156
20
74.6595993041992
40
0.0
41
0.0
42
0.0
10
75.9643020629883
20
74.6595001220703
40
0.0
41
0.0
42
0.0
10
75.8803024291992
20
74.5817031860352
40
0.0
41
0.0
42
0.0
10
75.7826995849609
20
74.5093994140625
40
0.0
41
0.0
42
0.0
10
75.7825012207031
20
74.4859008789062
40
0.0
41
0.0
42
0.0
10
75.8816986083984
20
74.3245010375977
40
0.0
41
0.0
42
0.0
10
75.9964981079102
20
74.263298034668
40
0.0
41
0.0
42
0.0
10
76.0955963134766
20
74.0208969116211
40
0.0
41
0.0
42
0.0
10
76.1120986938477
20
73.9925003051758
40
0.0
41
0.0
42
0.0
10
76.0212020874023
20
73.8691024780273
40
0.0
41
0.0
42
0.0
10
76.0212020874023
20
73.8142013549805
40
0.0
41
0.0
42
0.0
10
75.6179962158203
20
73.9609985351562
40
0.0
41
0.0
42
0.0
10
75.5612030029297
20
74.1178970336914
40
0.0
41
0.0
42
0.0
10
75.511100769043
20
74.1435012817383
40
0.0
41
0.0
42
0.0
10
75.3077011108398
20
74.2294998168945
40
0.0
41
0.0
42
0.0
10
75.2927017211914
20
74.2295989990234
40
0.0
41
0.0
42
0.0
10
75.2928009033203
20
74.217399597168
40
0.0
41
0.0
42
0.0
10
75.4301986694336
20
74.0323028564453
40
0.0
41
0.0
42
0.0
10
75.41259765625
20
74.0072021484375
40
0.0
41
0.0
42
0.0
10
75.0634002685547
20
73.586799621582
40
0.0
41
0.0
42
0.0
10
75.0613021850586
20
73.55419921875
40
0.0
41
0.0
42
0.0
10
75.0612030029297
20
73.5180969238281
40
0.0
41
0.0
42
0.0
10
75.0669021606445
20
73.5
40
0.0
41
0.0
42
0.0
10
75.059700012207
20
73.4769973754883
40
0.0
41
0.0
42
0.0
10
75.0008010864258
20
73.3626022338867
40
0.0
41
0.0
42
0.0
10
74.9996032714844
20
73.3626022338867
40
0.0
41
0.0
42
0.0
10
74.9415969848633
20
73.4585037231445
40
0.0
41
0.0
42
0.0
10
74.9254989624023
20
73.4731979370117
40
0.0
41
0.0
42
0.0
10
74.918098449707
20
73.4969024658203
40
0.0
41
0.0
42
0.0
10
74.9309005737305
20
73.5204010009766
40
0.0
41
0.0
42
0.0
10
74.9311981201172
20
73.5886993408203
40
0.0
41
0.0
42
0.0
10
74.6539993286133
20
74.0077972412109
40
0.0
41
0.0
42
0.0
10
74.5746002197266
20
74.1149978637695
40
0.0
41
0.0
42
0.0
10
74.7070007324219
20
74.2748031616211
40
0.0
41
0.0
42
0.0
10
74.7070007324219
20
74.2863006591797
40
0.0
41
0.0
42
0.0
10
74.6913986206055
20
74.2862014770508
40
0.0
41
0.0
42
0.0
10
74.488899230957
20
74.2190017700195
40
0.0
41
0.0
42
0.0
10
74.3246002197266
20
74.1179962158203
40
0.0
41
0.0
42
0.0
10
74.263298034668
20
74.0034027099609
40
0.0
41
0.0
42
0.0
10
74.0208969116211
20
73.9040985107422
40
0.0
41
0.0
42
0.0
10
73.9925003051758
20
73.8876037597656
40
0.0
41
0.0
42
0.0
10
73.8691024780273
20
73.9786987304688
40
0.0
41
0.0
42
0.0
10
73.8142013549805
20
73.9785995483398
40
0.0
41
0.0
42
0.0
10
73.9610977172852
20
74.3816986083984
40
0.0
41
0.0
42
0.0
10
74.1179962158203
20
74.4384994506836
40
0.0
41
0.0
42
0.0
10
74.1417007446289
20
74.4850006103516
40
0.0
41
0.0
42
0.0
10
74.1416015625
20
74.508903503418
40
0.0
41
0.0
42
0.0
10
74.1199035644531
20
74.5239028930664
40
0.0
41
0.0
42
0.0
10
74.0358963012695
20
74.5966033935547
40
0.0
41
0.0
42
0.0
10
74.0094985961914
20
74.5966033935547
40
0.0
41
0.0
42
0.0
10
73.9885025024414
20
74.5845031738281
40
0.0
41
0.0
42
0.0
10
73.9425964355469
20
74.5699005126953
40
0.0
41
0.0
42
0.0
10
73.5095977783203
20
74.9296035766602
40
0.0
41
0.0
42
0.0
10
73.4768981933594
20
74.9402008056641
40
0.0
41
0.0
42
0.0
10
73.3626022338867
20
74.9990005493164
40
0.0
41
0.0
42
0.0
10
73.3626022338867
20
75.0001983642578
40
0.0
41
0.0
42
0.0
210
0.0
220
0.0
230
1.0
0
LWPOLYLINE
5
2A
330
1C
100
AcDbEntity
67
0
8
0
62
256
6
ByLayer
370
-1
48
1.0
60
0
100
AcDbPolyline
90
27
70
1
38
0.0
39
0.0
10
78.6876983642578
20
65.0009002685547
40
0.0
41
0.0
42
0.0
10
78.8710021972656
20
65.0661010742188
40
0.0
41
0.0
42
0.0
10
78.9797973632812
20
65.1084976196289
40
0.0
41
0.0
42
0.0
10
79.0170974731445
20
65.1130981445312
40
0.0
41
0.0
42
0.0
10
79.4832992553711
20
65.1854019165039
40
0.0
41
0.0
42
0.0
10
79.5195007324219
20
65.1856002807617
40
0.0
41
0.0
42
0.0
10
79.9655990600586
20
65.2052001953125
40
0.0
41
0.0
42
0.0
10
80.44580078125
20
65.1945037841797
40
0.0
41
0.0
42
0.0
10
80.4816970825195
20
65.1921997070312
40
0.0
41
0.0
42
0.0
10
80.984001159668
20
65.1408996582031
40
0.0
41
0.0
42
0.0
10
81.4348983764648
20
65.0082015991211
40
0.0
41
0.0
42
0.0
10
81.4505996704102
20
65.0009994506836
40
0.0
41
0.0
42
0.0
10
81.4905014038086
20
65.0009994506836
40
0.0
41
0.0
42
0.0
10
81.4904022216797
20
65.0065994262695
40
0.0
41
0.0
42
0.0
10
81.4644012451172
20
65.0188980102539
40
0.0
41
0.0
42
0.0
10
81.0158996582031
20
65.1505966186523
40
0.0
41
0.0
42
0.0
10
80.5182037353516
20
65.2017974853516
40
0.0
41
0.0
42
0.0
10
80.4440994262695
20
65.2063980102539
40
0.0
41
0.0
42
0.0
10
79.9051971435547
20
65.2185974121094
40
0.0
41
0.0
42
0.0
10
79.4804000854492
20
65.2001037597656
40
0.0
41
0.0
42
0.0
10
79.4066009521484
20
65.1997985839844
40
0.0
41
0.0
42
0.0
10
78.9828033447266
20
65.133903503418
40
0.0
41
0.0
42
0.0
10
78.9101028442383
20
65.125
40
0.0
41
0.0
42
0.0
10
78.6838989257812
20
65.0366973876953
40
0.0
41
0.0
42
0.0
10
78.5950012207031
20
65.0050964355469
40
0.0
41
0.0
42
0.0
10
78.5950012207031
20
65.0009994506836
40
0.0
41
0.0
42
0.0
10
78.6876983642578
20
65.0009002685547
40
0.0
41
0.0
42
0.0
210
0.0
220
0.0
230
1.0
0
LWPOLYLINE
5
2B
330
1C
100
AcDbEntity
67
0
8
0
62
256
6
ByLayer
370
-1
48
1.0
60
0
100
AcDbPolyline
90
37
70
1
38
0.0
39
0.0
10
78.89990234375
20
84.9990005493164
40
0.0
41
0.0
42
0.0
10
78.89990234375
20
84.9885025024414
40
0.0
41
0.0
42
0.0
10
78.9499969482422
20
84.9375991821289
40
0.0
41
0.0
42
0.0
10
78.9922027587891
20
84.9008026123047
40
0.0
41
0.0
42
0.0
10
79.4885025024414
20
84.6140975952148
40
0.0
41
0.0
42
0.0
10
79.8408966064453
20
84.4994964599609
40
0.0
41
0.0
42
0.0
10
79.9163970947266
20
84.4654998779297
40
0.0
41
0.0
42
0.0
10
79.9849014282227
20
84.4452972412109
40
0.0
41
0.0
42
0.0
10
80.4083023071289
20
84.366096496582
40
0.0
41
0.0
42
0.0
10
80.4823989868164
20
84.3557968139648
40
0.0
41
0.0
42
0.0
10
80.9816970825195
20
84.3098983764648
40
0.0
41
0.0
42
0.0
10
81.0656967163086
20
84.303596496582
40
0.0
41
0.0
42
0.0
10
81.5692977905273
20
84.2910003662109
40
0.0
41
0.0
42
0.0
10
81.6080017089844
20
84.290901184082
40
0.0
41
0.0
42
0.0
10
82.0143966674805
20
84.3318023681641
40
0.0
41
0.0
42
0.0
10
82.2893981933594
20
84.4561004638672
40
0.0
41
0.0
42
0.0
10
82.3852005004883
20
84.4952011108398
40
0.0
41
0.0
42
0.0
10
82.4749984741211
20
84.9386978149414
40
0.0
41
0.0
42
0.0
10
82.4919967651367
20
84.9838027954102
40
0.0
41
0.0
42
0.0
10
82.4919967651367
20
84.9990005493164
40
0.0
41
0.0
42
0.0
10
82.4521026611328
20
84.9990005493164
40
0.0
41
0.0
42
0.0
10
82.3488998413086
20
84.7254028320312
40
0.0
41
0.0
42
0.0
10
82.3042984008789
20
84.5046997070312
40
0.0
41
0.0
42
0.0
10
82.1178970336914
20
84.4288024902344
40
0.0
41
0.0
42
0.0
10
81.9854965209961
20
84.3690032958984
40
0.0
41
0.0
42
0.0
10
81.532600402832
20
84.323600769043
40
0.0
41
0.0
42
0.0
10
81.0582962036133
20
84.334602355957
40
0.0
41
0.0
42
0.0
10
80.5175018310547
20
84.3834991455078
40
0.0
41
0.0
42
0.0
10
80.4814987182617
20
84.3884963989258
40
0.0
41
0.0
42
0.0
10
80.0149993896484
20
84.4757995605469
40
0.0
41
0.0
42
0.0
10
79.9822006225586
20
84.4853973388672
40
0.0
41
0.0
42
0.0
10
79.9494018554688
20
84.5002975463867
40
0.0
41
0.0
42
0.0
10
79.5113983154297
20
84.6428985595703
40
0.0
41
0.0
42
0.0
10
79.0075988769531
20
84.9335021972656
40
0.0
41
0.0
42
0.0
10
78.9570007324219
20
84.9776992797852
40
0.0
41
0.0
42
0.0
10
78.9362030029297
20
84.9990005493164
40
0.0
41
0.0
42
0.0
10
78.89990234375
20
84.9990005493164
40
0.0
41
0.0
42
0.0
210
0.0
220
0.0
230
1.0
0
LWPOLYLINE
5
2C
330
1C
100
AcDbEntity
67
0
8
0
62
256
6
ByLayer
370
-1
48
1.0
60
0
100
AcDbPolyline
90
37
70
1
38
0.0
39
0.0
10
84.290901184082
20
68.3917999267578
40
0.0
41
0.0
42
0.0
10
84.3317031860352
20
67.9854965209961
40
0.0
41
0.0
42
0.0
10
84.4561004638672
20
67.7104034423828
40
0.0
41
0.0
42
0.0
10
84.4951019287109
20
67.614501953125
40
0.0
41
0.0
42
0.0
10
84.9385986328125
20
67.5246963500977
40
0.0
41
0.0
42
0.0
10
84.9838027954102
20
67.5078964233398
40
0.0
41
0.0
42
0.0
10
84.9990005493164
20
67.5078964233398
40
0.0
41
0.0
42
0.0
10
84.9989013671875
20
67.5476989746094
40
0.0
41
0.0
42
0.0
10
84.7254028320312
20
67.6508026123047
40
0.0
41
0.0
42
0.0
10
84.5046997070312
20
67.6953964233398
40
0.0
41
0.0
42
0.0
10
84.4288024902344
20
67.8818969726562
40
0.0
41
0.0
42
0.0
10
84.3690032958984
20
68.0143966674805
40
0.0
41
0.0
42
0.0
10
84.323600769043
20
68.4672012329102
40
0.0
41
0.0
42
0.0
10
84.334602355957
20
68.9414978027344
40
0.0
41
0.0
42
0.0
10
84.3834991455078
20
69.4823989868164
40
0.0
41
0.0
42
0.0
10
84.3884963989258
20
69.5183029174805
40
0.0
41
0.0
42
0.0
10
84.4758987426758
20
69.9849014282227
40
0.0
41
0.0
42
0.0
10
84.4854965209961
20
70.0177001953125
40
0.0
41
0.0
42
0.0
10
84.5002975463867
20
70.0503997802734
40
0.0
41
0.0
42
0.0
10
84.6428985595703
20
70.4885025024414
40
0.0
41
0.0
42
0.0
10
84.9335021972656
20
70.992301940918
40
0.0
41
0.0
42
0.0
10
84.9777984619141
20
71.0428009033203
40
0.0
41
0.0
42
0.0
10
84.9990005493164
20
71.0635986328125
40
0.0
41
0.0
42
0.0
10
84.9990005493164
20
71.0998992919922
40
0.0
41
0.0
42
0.0
10
84.9886016845703
20
71.0998001098633
40
0.0
41
0.0
42
0.0
10
84.9375991821289
20
71.0497970581055
40
0.0
41
0.0
42
0.0
10
84.9008026123047
20
71.007698059082
40
0.0
41
0.0
42
0.0
10
84.6141967773438
20
70.5113983154297
40
0.0
41
0.0
42
0.0
10
84.4996032714844
20
70.1588973999023
40
0.0
41
0.0
42
0.0
10
84.4655990600586
20
70.0832977294922
40
0.0
41
0.0
42
0.0
10
84.4453964233398
20
70.0149993896484
40
0.0
41
0.0
42
0.0
10
84.366096496582
20
69.5915985107422
40
0.0
41
0.0
42
0.0
10
84.3557968139648
20
69.5175018310547
40
0.0
41
0.0
42
0.0
10
84.3098983764648
20
69.0182037353516
40
0.0
41
0.0
42
0.0
10
84.303596496582
20
68.9340972900391
40
0.0
41
0.0
42
0.0
10
84.2910003662109
20
68.4234008789062
40
0.0
41
0.0
42
0.0
10
84.290901184082
20
68.3917999267578
40
0.0
41
0.0
42
0.0
210
0.0
220
0.0
230
1.0
0
LWPOLYLINE
5
2D
330
1C
100
AcDbEntity
67
0
8
0
62
256
6
ByLayer
370
-1
48
1.0
60
0
100
AcDbPolyline
90
30
70
1
38
0.0
39
0.0
10
84.7997970581055
20
79.4815979003906
40
0.0
41
0.0
42
0.0
10
84.8656997680664
20
79.0566024780273
40
0.0
41
0.0
42
0.0
10
84.8659973144531
20
78.9813003540039
40
0.0
41
0.0
42
0.0
10
84.8747024536133
20
78.9101028442383
40
0.0
41
0.0
42
0.0
10
84.9629974365234
20
78.6838989257812
40
0.0
41
0.0
42
0.0
10
84.9947967529297
20
78.5950012207031
40
0.0
41
0.0
42
0.0
10
84.9990005493164
20
78.5950012207031
40
0.0
41
0.0
42
0.0
10
84.9989013671875
20
78.6876983642578
40
0.0
41
0.0
42
0.0
10
84.9336013793945
20
78.8710021972656
40
0.0
41
0.0
42
0.0
10
84.8911972045898
20
78.9797973632812
40
0.0
41
0.0
42
0.0
10
84.8864974975586
20
79.0186004638672
40
0.0
41
0.0
42
0.0
10
84.8862991333008
20
79.0532989501953
40
0.0
41
0.0
42
0.0
10
84.815299987793
20
79.5102005004883
40
0.0
41
0.0
42
0.0
10
84.8154983520508
20
79.5544967651367
40
0.0
41
0.0
42
0.0
10
84.7960968017578
20
79.9962997436523
40
0.0
41
0.0
42
0.0
10
84.807502746582
20
80.4813003540039
40
0.0
41
0.0
42
0.0
10
84.8588027954102
20
80.984001159668
40
0.0
41
0.0
42
0.0
10
84.9915008544922
20
81.4349975585938
40
0.0
41
0.0
42
0.0
10
84.9990005493164
20
81.4505996704102
40
0.0
41
0.0
42
0.0
10
84.9990005493164
20
81.4905014038086
40
0.0
41
0.0
42
0.0
10
84.9932022094727
20
81.4905014038086
40
0.0
41
0.0
42
0.0
10
84.9807968139648
20
81.4644012451172
40
0.0
41
0.0
42
0.0
10
84.8490982055664
20
81.0158996582031
40
0.0
41
0.0
42
0.0
10
84.7979965209961
20
80.5186996459961
40
0.0
41
0.0
42
0.0
10
84.7888031005859
20
80.0941009521484
40
0.0
41
0.0
42
0.0
10
84.7842025756836
20
80.0193023681641
40
0.0
41
0.0
42
0.0
10
84.7841033935547
20
79.9804000854492
40
0.0
41
0.0
42
0.0
10
84.8019027709961
20
79.5740966796875
40
0.0
41
0.0
42
0.0
10
84.7998962402344
20
79.5149993896484
40
0.0
41
0.0
42
0.0
10
84.7997970581055
20
79.4815979003906
40
0.0
41
0.0
42
0.0
210
0.0
220
0.0
230
1.0
0
VIEWPORT
5
32
330
2E
100
AcDbEntity
67
1
8
0
62
256
6
ByLayer
370
-1
48
1.0
60
0
100
AcDbViewport
10
0.0
20
0.0
30
0.0
40
297.0
41
210.0
68
1
69
1
12
50.0
22
100.0
13
0.0
23
0.0
14
10.0
24
10.0
15
10.0
25
10.0
16
0.0
26
0.0
36
1.0
17
0.0
27
0.0
37
0.0
42
50.0
43
0.0
44
0.0
45
250.0
50
0.0
51
0.0
72
1000
90
819232
110
0.0
120
0.0
130
0.0
111
1.0
121
0.0
131
0.0
112
0.0
122
1.0
132
0.0
0
ENDSEC
0
SECTION
2
OBJECTS
0
DICTIONARY
5
38
330
0
100
AcDbDictionary
280
1
281
1
3
ACAD_GROUP
350
12
3
ACAD_LAYOUT
350
31
3
ACAD_DGNDEFINITIONS
350
F
3
ACAD_DWFDEFINITIONS
350
10
3
ACAD_PDFDEFINITIONS
350
11
3
ACAD_MLINESTYLE
350
B
3
ACAD_IMAGE_DICT
350
E
3
ACAD_IMAGE_VARS
350
21
0
DICTIONARY
5
12
330
38
100
AcDbDictionary
280
1
281
1
0
DICTIONARY
5
31
330
38
100
AcDbDictionary
280
1
281
1
3
Model
350
20
3
Layout1
350
33
0
DICTIONARY
5
F
330
38
100
AcDbDictionary
280
1
281
1
0
DICTIONARY
5
10
330
38
100
AcDbDictionary
280
1
281
1
0
DICTIONARY
5
11
330
38
100
AcDbDictionary
280
1
281
1
0
DICTIONARY
5
B
330
38
100
AcDbDictionary
280
1
281
1
3
Standard
350
1B
0
DICTIONARY
5
E
330
38
100
AcDbDictionary
280
1
281
1
0
DICTIONARY
5
6
330
5
100
AcDbDictionary
280
1
281
1
3
ACAD_LAYERSTATES
360
39
0
DICTIONARY
5
39
330
6
100
AcDbDictionary
280
1
281
1
0
LAYOUT
5
20
330
31
100
AcDbPlotSettings
1

2
none_device
4
ISO_A4_(210.00_x_297.00_MM)
6

40
7.5
41
20.0
42
7.5
43
20.0
44
210.0
45
297.0
46
0.0
47
0.0
48
0.0
49
0.0
140
0.0
141
0.0
142
1.0
143
1.0
70
11952
72
1
73
1
74
1
7

75
0
76
0
77
2
78
300
147
1.0
148
0.0
149
0.0
100
AcDbLayout
1
Model
71
0
10
-20.0
20
-7.5
11
277.0
21
202.5
12
0.0
22
0.0
32
0.0
14
25.7
24
19.5
34
0.0
15
231.3
25
175.5
35
0.0
146
0.0
13
0.0
23
0.0
33
0.0
16
1.0
26
0.0
36
0.0
17
0.0
27
1.0
37
0.0
76
0
330
1C
0
LAYOUT
5
33
330
31
100
AcDbPlotSettings
1

2
none_device
4
ISO_A4_(210.00_x_297.00_MM)
6

40
7.5
41
20.0
42
7.5
43
20.0
44
210.0
45
297.0
46
0.0
47
0.0
48
0.0
49
0.0
140
0.0
141
0.0
142
1.0
143
1.0
70
688
72
1
73
1
74
1
7

75
0
76
0
77
2
78
300
147
1.0
148
0.0
149
0.0
100
AcDbLayout
1
Layout1
71
1
10
-20.0
20
-7.5
11
277.0
21
202.5
12
0.0
22
0.0
32
0.0
14
25.7
24
19.5
34
0.0
15
231.3
25
175.5
35
0.0
146
0.0
13
0.0
23
0.0
33
0.0
16
1.0
26
0.0
36
0.0
17
0.0
27
1.0
37
0.0
76
0
330
2E
0
MLINESTYLE
5
1B
330
B
100
AcDbMlineStyle
2
Standard
70
0
3

62
256
51
90.0
52
90.0
71
2
49
0.5
62
256
6
ByLayer
49
-0.5
62
256
6
ByLayer
0
RASTERVARIABLES
5
21
330
E
100
AcDbRasterVariables
90
0
70
1
71
1
72
0
0
ENDSEC
0
EOF
