999
DXF file generated by netDxf https://github.com/haplokuon/netDxf, Copyright(C) Daniel Carvajal, Licensed under MIT
0
SECTION
2
HEADER
9
$ACADVER
1
AC1015
9
$DWGCODEPAGE
3
ANSI_1252
9
$HANDSEED
5
46
9
$ANGBASE
50
0.0
9
$ANGDIR
70
0
9
$ATTMODE
70
1
9
$AUNITS
70
0
9
$AUPREC
70
0
9
$CECOLOR
62
256
9
$CELTSCALE
40
1.0
9
$CELTYPE
6
ByLayer
9
$CELWEIGHT
370
-1
9
$CLAYER
8
0
9
$CMLJUST
70
0
9
$CMLSCALE
40
20.0
9
$CMLSTYLE
2
Standard
9
$DIMSTYLE
2
Standard
9
$TEXTSIZE
40
2.5
9
$TEXTSTYLE
7
Standard
9
$LUNITS
70
2
9
$LUPREC
70
4
9
$MIRRTEXT
70
0
9
$EXTNAMES
290
1
9
$INSBASE
10
0.0
20
0.0
30
0.0
9
$INSUNITS
70
0
9
$LTSCALE
40
1.0
9
$LWDISPLAY
290
0
9
$PDMODE
70
0
9
$PDSIZE
40
0.0
9
$PLINEGEN
70
0
9
$PSLTSCALE
70
1
9
$SPLINESEGS
70
8
9
$SURFU
70
6
9
$SURFV
70
6
9
$TDCREATE
40
2460823.48373565
9
$TDUCREATE
40
2460823.15040231
9
$TDUPDATE
40
2460823.48373565
9
$TDUUPDATE
40
2460823.15040231
9
$TDINDWG
40
0.0
9
$UCSORG
10
0.0
20
0.0
30
0.0
9
$UCSXDIR
10
1.0
20
0.0
30
0.0
9
$UCSYDIR
10
0.0
20
1.0
30
0.0
9
$DIMADEC
70
0
9
$DIMALT
70
0
9
$DIMALTD
70
2
9
$DIMALTF
40
25.4
9
$DIMALTRND
40
0.0
9
$DIMALTTD
70
2
9
$DIMALTTZ
70
0
9
$DIMALTU
70
2
9
$DIMALTZ
70
0
9
$DIMAPOST
1

9
$DIMATFIT
70
3
9
$DIMAUNIT
70
0
9
$DIMASZ
40
0.18
9
$DIMAZIN
70
0
9
$DIMSAH
70
0
9
$DIMBLK
1

9
$DIMLDRBLK
1

9
$DIMCEN
40
0.09
9
$DIMCLRD
70
0
9
$DIMCLRE
70
0
9
$DIMCLRT
70
0
9
$DIMDEC
70
4
9
$DIMDLE
40
0.0
9
$DIMDLI
40
0.38
9
$DIMDSEP
70
46
9
$DIMEXE
40
0.18
9
$DIMEXO
40
0.0625
9
$DIMFXLON
70
0
9
$DIMFXL
40
1.0
9
$DIMGAP
40
0.09
9
$DIMJUST
70
0
9
$DIMLFAC
40
1.0
9
$DIMLUNIT
70
2
9
$DIMLWD
70
-2
9
$DIMLWE
70
-2
9
$DIMPOST
1

9
$DIMRND
40
0.0
9
$DIMSCALE
40
1.0
9
$DIMSD1
70
0
9
$DIMSD2
70
0
9
$DIMSE1
70
0
9
$DIMSE2
70
0
9
$DIMSOXD
70
0
9
$DIMTAD
70
0
9
$DIMTDEC
70
4
9
$DIMTFAC
40
1.0
9
$DIMTIH
70
0
9
$DIMTIX
70
0
9
$DIMTM
40
0.0
9
$DIMTMOVE
70
0
9
$DIMTOFL
70
0
9
$DIMTOH
70
0
9
$DIMTOL
70
0
9
$DIMLIM
70
0
9
$DIMTOLJ
70
1
9
$DIMTP
40
0.0
9
$DIMTXT
40
0.18
9
$DIMTXTDIRECTION
70
0
9
$DIMTZIN
70
0
9
$DIMZIN
70
0
9
$DIMFRAC
70
0
9
$DIMLTYPE
6
ByBlock
9
$DIMLTEX1
6
ByBlock
9
$DIMLTEX2
6
ByBlock
0
ENDSEC
0
SECTION
2
CLASSES
0
CLASS
1
RASTERVARIABLES
2
AcDbRasterVariables
3
ISM
90
0
280
0
281
0
0
ENDSEC
0
SECTION
2
TABLES
0
TABLE
2
APPID
5
4
330
0
100
AcDbSymbolTable
70
5
0
APPID
5
19
330
4
100
AcDbSymbolTableRecord
100
AcDbRegAppTableRecord
2
ACAD
70
0
0
APPID
5
40
330
4
100
AcDbSymbolTableRecord
100
AcDbRegAppTableRecord
2
AcCmTransparency
70
0
0
APPID
5
41
330
4
100
AcDbSymbolTableRecord
100
AcDbRegAppTableRecord
2
AcAecLayerStandard
70
0
0
APPID
5
42
330
4
100
AcDbSymbolTableRecord
100
AcDbRegAppTableRecord
2
GradientColor1ACI
70
0
0
APPID
5
43
330
4
100
AcDbSymbolTableRecord
100
AcDbRegAppTableRecord
2
GradientColor2ACI
70
0
0
ENDTAB
0
TABLE
2
VPORT
5
1
330
0
100
AcDbSymbolTable
70
1
0
VPORT
5
2
330
1
100
AcDbSymbolTableRecord
100
AcDbViewportTableRecord
2
*Active
70
0
10
0.0
20
0.0
11
1.0
21
1.0
12
0.0
22
0.0
13
0.0
23
0.0
14
0.5
24
0.5
15
10.0
25
10.0
16
0.0
26
0.0
36
1.0
17
0.0
27
0.0
37
0.0
40
10.0
41
1.0
75
0
76
1
0
ENDTAB
0
TABLE
2
LTYPE
5
7
330
0
100
AcDbSymbolTable
70
3
0
LTYPE
5
15
330
7
100
AcDbSymbolTableRecord
100
AcDbLinetypeTableRecord
2
Continuous
70
0
3
Solid line
72
65
73
0
40
0.0
0
LTYPE
5
16
330
7
100
AcDbSymbolTableRecord
100
AcDbLinetypeTableRecord
2
ByLayer
70
0
3

72
65
73
0
40
0.0
0
LTYPE
5
17
330
7
100
AcDbSymbolTableRecord
100
AcDbLinetypeTableRecord
2
ByBlock
70
0
3

72
65
73
0
40
0.0
0
ENDTAB
0
TABLE
2
LAYER
5
5
102
{ACAD_XDICTIONARY
360
6
102
}
330
0
100
AcDbSymbolTable
70
1
0
LAYER
5
14
330
5
100
AcDbSymbolTableRecord
100
AcDbLayerTableRecord
2
0
70
0
62
7
6
Continuous
290
1
370
-3
390
0
0
ENDTAB
0
TABLE
2
STYLE
5
8
330
0
100
AcDbSymbolTable
70
1
0
STYLE
5
18
330
8
100
AcDbSymbolTableRecord
100
AcDbTextStyleTableRecord
2
Standard
3
simplex.shx
70
0
71
0
40
0.0
41
1.0
42
0.0
50
0.0
0
ENDTAB
0
TABLE
2
DIMSTYLE
5
A
330
0
100
AcDbSymbolTable
70
1
100
AcDbDimStyleTable
0
DIMSTYLE
105
1A
330
A
100
AcDbSymbolTableRecord
100
AcDbDimStyleTableRecord
2
Standard
3

4

40
1.0
41
0.18
42
0.0625
43
0.38
44
0.18
45
0.0
46
0.0
47
0.0
48
0.0
49
1.0
70
0
71
0
72
0
73
0
74
0
75
0
76
0
77
0
78
0
79
0
140
0.18
141
0.09
143
25.4
144
1.0
146
1.0
147
0.09
148
0.0
170
0
171
2
172
0
174
0
175
0
176
0
177
0
178
0
179
0
271
4
272
4
273
2
274
2
275
0
276
0
277
2
278
46
279
0
280
0
281
0
282
0
283
1
284
0
285
0
286
0
289
3
290
0
294
0
340
18
173
0
345
17
346
17
347
17
371
-2
372
-2
0
ENDTAB
0
TABLE
2
VIEW
5
3
330
0
100
AcDbSymbolTable
70
0
0
ENDTAB
0
TABLE
2
UCS
5
C
330
0
100
AcDbSymbolTable
70
0
0
ENDTAB
0
TABLE
2
BLOCK_RECORD
5
D
330
0
100
AcDbSymbolTable
70
2
0
BLOCK_RECORD
5
1C
330
D
100
AcDbSymbolTableRecord
100
AcDbBlockTableRecord
2
*Model_Space
340
20
0
BLOCK_RECORD
5
3A
330
D
100
AcDbSymbolTableRecord
100
AcDbBlockTableRecord
2
*Paper_Space
340
3F
0
ENDTAB
0
ENDSEC
0
SECTION
2
BLOCKS
0
BLOCK
5
1E
330
1C
100
AcDbEntity
67
0
8
0
100
AcDbBlockBegin
2
*Model_Space
70
0
10
0.0
20
0.0
30
0.0
3
*Model_Space
4

0
ENDBLK
5
1D
330
1C
100
AcDbEntity
8
0
100
AcDbBlockEnd
0
BLOCK
5
3C
330
3A
100
AcDbEntity
67
1
8
0
100
AcDbBlockBegin
2
*Paper_Space
70
0
10
0.0
20
0.0
30
0.0
3
*Paper_Space
4

0
ENDBLK
5
3B
330
3A
100
AcDbEntity
8
0
100
AcDbBlockEnd
0
ENDSEC
0
SECTION
2
ENTITIES
0
LWPOLYLINE
5
22
330
1C
100
AcDbEntity
67
0
8
0
62
256
6
ByLayer
370
-1
48
1.0
60
0
100
AcDbPolyline
90
134
70
1
38
0.0
39
0.0
10
65.6257019042969
20
66.3748016357422
40
0.0
41
0.0
42
0.0
10
65.9851989746094
20
66.2686996459961
40
0.0
41
0.0
42
0.0
10
66.3672027587891
20
66.1854019165039
40
0.0
41
0.0
42
0.0
10
66.3980026245117
20
66.185302734375
40
0.0
41
0.0
42
0.0
10
66.5081024169922
20
66.2674026489258
40
0.0
41
0.0
42
0.0
10
66.8659973144531
20
66.4916000366211
40
0.0
41
0.0
42
0.0
10
66.8658981323242
20
66.5190963745117
40
0.0
41
0.0
42
0.0
10
66.8404998779297
20
66.8303985595703
40
0.0
41
0.0
42
0.0
10
66.8824005126953
20
66.9835968017578
40
0.0
41
0.0
42
0.0
10
66.8906021118164
20
67.0891036987305
40
0.0
41
0.0
42
0.0
10
66.8906021118164
20
67.1274032592773
40
0.0
41
0.0
42
0.0
10
66.8628005981445
20
67.5
40
0.0
41
0.0
42
0.0
10
66.8692016601562
20
67.595703125
40
0.0
41
0.0
42
0.0
10
66.8709030151367
20
67.9816970825195
40
0.0
41
0.0
42
0.0
10
66.8897018432617
20
68.0980987548828
40
0.0
41
0.0
42
0.0
10
66.943000793457
20
68.4856033325195
40
0.0
41
0.0
42
0.0
10
67.027099609375
20
68.6844024658203
40
0.0
41
0.0
42
0.0
10
67.1436996459961
20
68.9904022216797
40
0.0
41
0.0
42
0.0
10
67.1843032836914
20
69.0428009033203
40
0.0
41
0.0
42
0.0
10
67.3927001953125
20
69.2928009033203
40
0.0
41
0.0
42
0.0
10
67.5158996582031
20
69.3329010009766
40
0.0
41
0.0
42
0.0
10
67.6337966918945
20
69.3323974609375
40
0.0
41
0.0
42
0.0
10
67.6686019897461
20
69.3364028930664
40
0.0
41
0.0
42
0.0
10
67.9024963378906
20
69.4608993530273
40
0.0
41
0.0
42
0.0
10
68.0070037841797
20
69.4913024902344
40
0.0
41
0.0
42
0.0
10
68.046501159668
20
69.4912033081055
40
0.0
41
0.0
42
0.0
10
68.5190963745117
20
69.5203018188477
40
0.0
41
0.0
42
0.0
10
68.5774002075195
20
69.5216979980469
40
0.0
41
0.0
42
0.0
10
68.9922027587891
20
69.5029983520508
40
0.0
41
0.0
42
0.0
10
69.4853973388672
20
69.4533004760742
40
0.0
41
0.0
42
0.0
10
69.52490234375
20
69.4358978271484
40
0.0
41
0.0
42
0.0
10
69.5800018310547
20
69.407096862793
40
0.0
41
0.0
42
0.0
10
69.9914016723633
20
69.2983016967773
40
0.0
41
0.0
42
0.0
10
70.2585983276367
20
68.994499206543
40
0.0
41
0.0
42
0.0
10
70.3084030151367
20
68.9475021362305
40
0.0
41
0.0
42
0.0
10
70.3433990478516
20
68.8529968261719
40
0.0
41
0.0
42
0.0
10
70.4308013916016
20
68.7415008544922
40
0.0
41
0.0
42
0.0
10
70.5003967285156
20
68.4869003295898
40
0.0
41
0.0
42
0.0
10
70.5677032470703
20
68.3309020996094
40
0.0
41
0.0
42
0.0
10
70.6255035400391
20
67.9851989746094
40
0.0
41
0.0
42
0.0
10
70.6809005737305
20
67.8294982910156
40
0.0
41
0.0
42
0.0
10
70.7136993408203
20
67.4841003417969
40
0.0
41
0.0
42
0.0
10
70.7480010986328
20
67.3732986450195
40
0.0
41
0.0
42
0.0
10
70.7232971191406
20
67.0192031860352
40
0.0
41
0.0
42
0.0
10
70.7231979370117
20
66.9820022583008
40
0.0
41
0.0
42
0.0
10
70.741096496582
20
66.8904037475586
40
0.0
41
0.0
42
0.0
10
70.5650024414062
20
66.5105972290039
40
0.0
41
0.0
42
0.0
10
70.4962005615234
20
66.3790969848633
40
0.0
41
0.0
42
0.0
10
70.0680999755859
20
66.0786972045898
40
0.0
41
0.0
42
0.0
10
70.0306015014648
20
66.0485000610352
40
0.0
41
0.0
42
0.0
10
69.9897994995117
20
66.0204010009766
40
0.0
41
0.0
42
0.0
10
69.9369964599609
20
66.0002975463867
40
0.0
41
0.0
42
0.0
10
69.4859008789062
20
65.8383026123047
40
0.0
41
0.0
42
0.0
10
69.2746963500977
20
65.7897033691406
40
0.0
41
0.0
42
0.0
10
68.984001159668
20
65.7300033569336
40
0.0
41
0.0
42
0.0
10
68.6952972412109
20
65.6759033203125
40
0.0
41
0.0
42
0.0
10
68.4834976196289
20
65.6521987915039
40
0.0
41
0.0
42
0.0
10
68.0602035522461
20
65.5547027587891
40
0.0
41
0.0
42
0.0
10
67.9866027832031
20
65.5500030517578
40
0.0
41
0.0
42
0.0
10
67.9114990234375
20
65.5030975341797
40
0.0
41
0.0
42
0.0
10
67.6994018554688
20
65.3121032714844
40
0.0
41
0.0
42
0.0
10
67.6993026733398
20
65.284797668457
40
0.0
41
0.0
42
0.0
10
67.7928009033203
20
65.0009994506836
40
0.0
41
0.0
42
0.0
10
67.8458023071289
20
65.0009994506836
40
0.0
41
0.0
42
0.0
10
67.845703125
20
65.0166015625
40
0.0
41
0.0
42
0.0
10
67.777702331543
20
65.2239990234375
40
0.0
41
0.0
42
0.0
10
68.0083999633789
20
65.4315032958984
40
0.0
41
0.0
42
0.0
10
68.1622009277344
20
65.4999008178711
40
0.0
41
0.0
42
0.0
10
68.5164031982422
20
65.5813980102539
40
0.0
41
0.0
42
0.0
10
68.6288986206055
20
65.5941009521484
40
0.0
41
0.0
42
0.0
10
69.0158996582031
20
65.6666030883789
40
0.0
41
0.0
42
0.0
10
69.2245025634766
20
65.7093963623047
40
0.0
41
0.0
42
0.0
10
69.5139999389648
20
65.7761001586914
40
0.0
41
0.0
42
0.0
10
69.943603515625
20
65.9301986694336
40
0.0
41
0.0
42
0.0
10
70.0112991333008
20
65.9522018432617
40
0.0
41
0.0
42
0.0
10
70.0880966186523
20
65.9975967407227
40
0.0
41
0.0
42
0.0
10
70.5037002563477
20
66.2893981933594
40
0.0
41
0.0
42
0.0
10
70.6082992553711
20
66.4893035888672
40
0.0
41
0.0
42
0.0
10
70.7661972045898
20
66.8295974731445
40
0.0
41
0.0
42
0.0
10
70.765998840332
20
66.8628997802734
40
0.0
41
0.0
42
0.0
10
70.7378005981445
20
67.0081024169922
40
0.0
41
0.0
42
0.0
10
70.7600021362305
20
67.3256988525391
40
0.0
41
0.0
42
0.0
10
70.7599029541016
20
67.3618011474609
40
0.0
41
0.0
42
0.0
10
70.7128982543945
20
67.5158004760742
40
0.0
41
0.0
42
0.0
10
70.676399230957
20
67.9003982543945
40
0.0
41
0.0
42
0.0
10
70.6356964111328
20
68.0146026611328
40
0.0
41
0.0
42
0.0
10
70.571403503418
20
68.3990020751953
40
0.0
41
0.0
42
0.0
10
70.522102355957
20
68.5133972167969
40
0.0
41
0.0
42
0.0
10
70.4994964599609
20
68.6115036010742
40
0.0
41
0.0
42
0.0
10
70.4501037597656
20
68.7914962768555
40
0.0
41
0.0
42
0.0
10
70.3863983154297
20
68.8730010986328
40
0.0
41
0.0
42
0.0
10
70.3483963012695
20
68.97509765625
40
0.0
41
0.0
42
0.0
10
70.3164978027344
20
69.0053024291992
40
0.0
41
0.0
42
0.0
10
70.00830078125
20
69.3557968139648
40
0.0
41
0.0
42
0.0
10
69.5305023193359
20
69.4820022583008
40
0.0
41
0.0
42
0.0
10
69.5139999389648
20
69.4901962280273
40
0.0
41
0.0
42
0.0
10
69.1556015014648
20
69.5281982421875
40
0.0
41
0.0
42
0.0
10
68.7108001708984
20
69.5477981567383
40
0.0
41
0.0
42
0.0
10
68.4807968139648
20
69.5435028076172
40
0.0
41
0.0
42
0.0
10
68.0562973022461
20
69.5162963867188
40
0.0
41
0.0
42
0.0
10
67.9842987060547
20
69.5071029663086
40
0.0
41
0.0
42
0.0
10
67.8657989501953
20
69.4718017578125
40
0.0
41
0.0
42
0.0
10
67.6098022460938
20
69.3355026245117
40
0.0
41
0.0
42
0.0
10
67.4832000732422
20
69.3359985351562
40
0.0
41
0.0
42
0.0
10
67.3371963500977
20
69.2884979248047
40
0.0
41
0.0
42
0.0
10
67.1583023071289
20
69.0738983154297
40
0.0
41
0.0
42
0.0
10
67.1087036132812
20
69.0095977783203
40
0.0
41
0.0
42
0.0
10
67.0201034545898
20
68.777099609375
40
0.0
41
0.0
42
0.0
10
66.9085998535156
20
68.5142974853516
40
0.0
41
0.0
42
0.0
10
66.8615036010742
20
68.1718978881836
40
0.0
41
0.0
42
0.0
10
66.8366012573242
20
68.0182037353516
40
0.0
41
0.0
42
0.0
10
66.8350982666016
20
67.674201965332
40
0.0
41
0.0
42
0.0
10
66.8246002197266
20
67.5192031860352
40
0.0
41
0.0
42
0.0
10
66.8245010375977
20
67.4806976318359
40
0.0
41
0.0
42
0.0
10
66.8492965698242
20
67.1511993408203
40
0.0
41
0.0
42
0.0
10
66.8386993408203
20
67.0162963867188
40
0.0
41
0.0
42
0.0
10
66.7781982421875
20
66.7942962646484
40
0.0
41
0.0
42
0.0
10
66.7780990600586
20
66.7580032348633
40
0.0
41
0.0
42
0.0
10
66.7985000610352
20
66.5070037841797
40
0.0
41
0.0
42
0.0
10
66.4917984008789
20
66.3149032592773
40
0.0
41
0.0
42
0.0
10
66.3387985229492
20
66.200798034668
40
0.0
41
0.0
42
0.0
10
66.0147018432617
20
66.2714996337891
40
0.0
41
0.0
42
0.0
10
65.6697998046875
20
66.3733978271484
40
0.0
41
0.0
42
0.0
10
65.6327972412109
20
66.381103515625
40
0.0
41
0.0
42
0.0
10
65.5174026489258
20
66.381103515625
40
0.0
41
0.0
42
0.0
10
65.3984985351562
20
66.4100036621094
40
0.0
41
0.0
42
0.0
10
65.1708984375
20
66.5002975463867
40
0.0
41
0.0
42
0.0
10
65.0160980224609
20
66.5584030151367
40
0.0
41
0.0
42
0.0
10
65.0009994506836
20
66.5584030151367
40
0.0
41
0.0
42
0.0
10
65.0009002685547
20
66.5400009155273
40
0.0
41
0.0
42
0.0
10
65.109001159668
20
66.4994964599609
40
0.0
41
0.0
42
0.0
10
65.331298828125
20
66.4116973876953
40
0.0
41
0.0
42
0.0
10
65.4824981689453
20
66.3748016357422
40
0.0
41
0.0
42
0.0
10
65.6257019042969
20
66.3748016357422
40
0.0
41
0.0
42
0.0
210
0.0
220
0.0
230
1.0
0
LWPOLYLINE
5
23
330
1C
100
AcDbEntity
67
0
8
0
62
256
6
ByLayer
370
-1
48
1.0
60
0
100
AcDbPolyline
90
83
70
1
38
0.0
39
0.0
10
65.1845016479492
20
72.0970993041992
40
0.0
41
0.0
42
0.0
10
65.4819030761719
20
72.0345001220703
40
0.0
41
0.0
42
0.0
10
65.5869979858398
20
72.0363998413086
40
0.0
41
0.0
42
0.0
10
66.0095977783203
20
72.105598449707
40
0.0
41
0.0
42
0.0
10
66.0755996704102
20
72.1744995117188
40
0.0
41
0.0
42
0.0
10
66.3600997924805
20
72.3406982421875
40
0.0
41
0.0
42
0.0
10
66.4453964233398
20
72.4643020629883
40
0.0
41
0.0
42
0.0
10
66.4853973388672
20
72.4971008300781
40
0.0
41
0.0
42
0.0
10
66.5063018798828
20
72.5100021362305
40
0.0
41
0.0
42
0.0
10
66.6073989868164
20
72.6238021850586
40
0.0
41
0.0
42
0.0
10
66.7913970947266
20
72.8377990722656
40
0.0
41
0.0
42
0.0
10
66.8179016113281
20
72.8757019042969
40
0.0
41
0.0
42
0.0
10
66.8733978271484
20
72.9887008666992
40
0.0
41
0.0
42
0.0
10
66.9225997924805
20
73.102897644043
40
0.0
41
0.0
42
0.0
10
67.0031967163086
20
73.2027969360352
40
0.0
41
0.0
42
0.0
10
67.2080001831055
20
73.4860000610352
40
0.0
41
0.0
42
0.0
10
67.2379989624023
20
73.6027984619141
40
0.0
41
0.0
42
0.0
10
67.4503021240234
20
73.9860000610352
40
0.0
41
0.0
42
0.0
10
67.4806976318359
20
74.4559020996094
40
0.0
41
0.0
42
0.0
10
67.480598449707
20
74.493896484375
40
0.0
41
0.0
42
0.0
10
67.4779968261719
20
74.5145034790039
40
0.0
41
0.0
42
0.0
10
67.401496887207
20
74.6990966796875
40
0.0
41
0.0
42
0.0
10
67.3862991333008
20
74.7264022827148
40
0.0
41
0.0
42
0.0
10
67.2879028320312
20
74.9220962524414
40
0.0
41
0.0
42
0.0
10
67.2304992675781
20
75.0067977905273
40
0.0
41
0.0
42
0.0
10
67.0035018920898
20
75.2509994506836
40
0.0
41
0.0
42
0.0
10
66.8886032104492
20
75.4169006347656
40
0.0
41
0.0
42
0.0
10
66.8056030273438
20
75.504997253418
40
0.0
41
0.0
42
0.0
10
66.5046997070312
20
75.7850036621094
40
0.0
41
0.0
42
0.0
10
66.4960021972656
20
75.7951965332031
40
0.0
41
0.0
42
0.0
10
66.3532028198242
20
75.8891983032227
40
0.0
41
0.0
42
0.0
10
66.2594985961914
20
76.0043029785156
40
0.0
41
0.0
42
0.0
10
66.0165023803711
20
76.1686019897461
40
0.0
41
0.0
42
0.0
10
66.007698059082
20
76.1809997558594
40
0.0
41
0.0
42
0.0
10
65.6483993530273
20
76.2469024658203
40
0.0
41
0.0
42
0.0
10
65.5122985839844
20
76.3613967895508
40
0.0
41
0.0
42
0.0
10
65.4830017089844
20
76.3612976074219
40
0.0
41
0.0
42
0.0
10
65.1503982543945
20
76.2640991210938
40
0.0
41
0.0
42
0.0
10
65.0184020996094
20
76.2834014892578
40
0.0
41
0.0
42
0.0
10
65.0009994506836
20
76.2834014892578
40
0.0
41
0.0
42
0.0
10
65.0009002685547
20
76.2499008178711
40
0.0
41
0.0
42
0.0
10
65.0964965820312
20
76.2358016967773
40
0.0
41
0.0
42
0.0
10
65.1320037841797
20
76.2358016967773
40
0.0
41
0.0
42
0.0
10
65.4951019287109
20
76.3420028686523
40
0.0
41
0.0
42
0.0
10
65.6063003540039
20
76.2485961914062
40
0.0
41
0.0
42
0.0
10
65.6414031982422
20
76.2322006225586
40
0.0
41
0.0
42
0.0
10
65.9921035766602
20
76.1678009033203
40
0.0
41
0.0
42
0.0
10
66.0102996826172
20
76.1419982910156
40
0.0
41
0.0
42
0.0
10
66.2268981933594
20
75.9954986572266
40
0.0
41
0.0
42
0.0
10
66.3529968261719
20
75.8406982421875
40
0.0
41
0.0
42
0.0
10
66.480598449707
20
75.7567977905273
40
0.0
41
0.0
42
0.0
10
66.4951019287109
20
75.7399978637695
40
0.0
41
0.0
42
0.0
10
66.75830078125
20
75.4947967529297
40
0.0
41
0.0
42
0.0
10
66.8412017822266
20
75.4069976806641
40
0.0
41
0.0
42
0.0
10
66.9389038085938
20
75.2677993774414
40
0.0
41
0.0
42
0.0
10
66.9962997436523
20
75.1831970214844
40
0.0
41
0.0
42
0.0
10
67.1731033325195
20
74.9929962158203
40
0.0
41
0.0
42
0.0
10
67.2544021606445
20
74.8732986450195
40
0.0
41
0.0
42
0.0
10
67.3434982299805
20
74.6962966918945
40
0.0
41
0.0
42
0.0
10
67.3649978637695
20
74.6577987670898
40
0.0
41
0.0
42
0.0
10
67.4363021850586
20
74.4853973388672
40
0.0
41
0.0
42
0.0
10
67.4446029663086
20
74.4198989868164
40
0.0
41
0.0
42
0.0
10
67.4184036254883
20
74.0139007568359
40
0.0
41
0.0
42
0.0
10
67.2261962890625
20
73.6670989990234
40
0.0
41
0.0
42
0.0
10
67.1852035522461
20
73.5067977905273
40
0.0
41
0.0
42
0.0
10
66.9965972900391
20
73.2460021972656
40
0.0
41
0.0
42
0.0
10
66.9271011352539
20
73.1598968505859
40
0.0
41
0.0
42
0.0
10
66.8628997802734
20
73.0111999511719
40
0.0
41
0.0
42
0.0
10
66.7938995361328
20
72.8701019287109
40
0.0
41
0.0
42
0.0
10
66.6748962402344
20
72.7316970825195
40
0.0
41
0.0
42
0.0
10
66.4935989379883
20
72.5279998779297
40
0.0
41
0.0
42
0.0
10
66.4535980224609
20
72.5028991699219
40
0.0
41
0.0
42
0.0
10
66.4296035766602
20
72.4833984375
40
0.0
41
0.0
42
0.0
10
66.3647994995117
20
72.3891983032227
40
0.0
41
0.0
42
0.0
10
66.0441970825195
20
72.2017974853516
40
0.0
41
0.0
42
0.0
10
65.9903030395508
20
72.1455993652344
40
0.0
41
0.0
42
0.0
10
65.6623001098633
20
72.0920028686523
40
0.0
41
0.0
42
0.0
10
65.513298034668
20
72.0876007080078
40
0.0
41
0.0
42
0.0
10
65.2910995483398
20
72.1343002319336
40
0.0
41
0.0
42
0.0
10
65.0165023803711
20
72.2272033691406
40
0.0
41
0.0
42
0.0
10
65.0009994506836
20
72.2272033691406
40
0.0
41
0.0
42
0.0
10
65.0009002685547
20
72.1591033935547
40
0.0
41
0.0
42
0.0
10
65.1845016479492
20
72.0970993041992
40
0.0
41
0.0
42
0.0
210
0.0
220
0.0
230
1.0
0
LWPOLYLINE
5
24
330
1C
100
AcDbEntity
67
0
8
0
62
256
6
ByLayer
370
-1
48
1.0
60
0
100
AcDbPolyline
90
133
70
1
38
0.0
39
0.0
10
65.5813980102539
20
81.4834976196289
40
0.0
41
0.0
42
0.0
10
65.5941009521484
20
81.3709030151367
40
0.0
41
0.0
42
0.0
10
65.6666030883789
20
80.984001159668
40
0.0
41
0.0
42
0.0
10
65.7093963623047
20
80.7752990722656
40
0.0
41
0.0
42
0.0
10
65.7761993408203
20
80.4853973388672
40
0.0
41
0.0
42
0.0
10
65.8287963867188
20
80.315803527832
40
0.0
41
0.0
42
0.0
10
65.9520034790039
20
79.9889984130859
40
0.0
41
0.0
42
0.0
10
65.9974975585938
20
79.9116973876953
40
0.0
41
0.0
42
0.0
10
66.2892990112305
20
79.4962005615234
40
0.0
41
0.0
42
0.0
10
66.4891967773438
20
79.3914031982422
40
0.0
41
0.0
42
0.0
10
66.8295974731445
20
79.2334976196289
40
0.0
41
0.0
42
0.0
10
66.8628997802734
20
79.2335968017578
40
0.0
41
0.0
42
0.0
10
67.0148010253906
20
79.263298034668
40
0.0
41
0.0
42
0.0
10
67.1636962890625
20
79.3093032836914
40
0.0
41
0.0
42
0.0
10
67.4806976318359
20
79.2872009277344
40
0.0
41
0.0
42
0.0
10
67.5162963867188
20
79.2871017456055
40
0.0
41
0.0
42
0.0
10
67.6304016113281
20
79.3277969360352
40
0.0
41
0.0
42
0.0
10
68.0171966552734
20
79.3646011352539
40
0.0
41
0.0
42
0.0
10
68.3990020751953
20
79.4282989501953
40
0.0
41
0.0
42
0.0
10
68.5133972167969
20
79.4776000976562
40
0.0
41
0.0
42
0.0
10
68.6100997924805
20
79.4999008178711
40
0.0
41
0.0
42
0.0
10
68.8719024658203
20
79.6128005981445
40
0.0
41
0.0
42
0.0
10
68.9157028198242
20
79.6519012451172
40
0.0
41
0.0
42
0.0
10
69.0090026855469
20
79.6865005493164
40
0.0
41
0.0
42
0.0
10
69.3557968139648
20
79.9915008544922
40
0.0
41
0.0
42
0.0
10
69.4821014404297
20
80.4692001342773
40
0.0
41
0.0
42
0.0
10
69.4901962280273
20
80.4859008789062
40
0.0
41
0.0
42
0.0
10
69.5281982421875
20
80.8442001342773
40
0.0
41
0.0
42
0.0
10
69.5477981567383
20
81.2890014648438
40
0.0
41
0.0
42
0.0
10
69.5435028076172
20
81.5190963745117
40
0.0
41
0.0
42
0.0
10
69.5162963867188
20
81.9434967041016
40
0.0
41
0.0
42
0.0
10
69.5071029663086
20
82.0156021118164
40
0.0
41
0.0
42
0.0
10
69.4718017578125
20
82.1340026855469
40
0.0
41
0.0
42
0.0
10
69.3355026245117
20
82.3900985717773
40
0.0
41
0.0
42
0.0
10
69.3359985351562
20
82.5167007446289
40
0.0
41
0.0
42
0.0
10
69.2884979248047
20
82.66259765625
40
0.0
41
0.0
42
0.0
10
69.0738983154297
20
82.8414993286133
40
0.0
41
0.0
42
0.0
10
69.0094985961914
20
82.8910980224609
40
0.0
41
0.0
42
0.0
10
68.777099609375
20
82.9795989990234
40
0.0
41
0.0
42
0.0
10
68.5142974853516
20
83.0911026000977
40
0.0
41
0.0
42
0.0
10
68.1717987060547
20
83.1381988525391
40
0.0
41
0.0
42
0.0
10
68.0182037353516
20
83.1631011962891
40
0.0
41
0.0
42
0.0
10
67.674201965332
20
83.1645965576172
40
0.0
41
0.0
42
0.0
10
67.5193023681641
20
83.1753005981445
40
0.0
41
0.0
42
0.0
10
67.4807968139648
20
83.1752014160156
40
0.0
41
0.0
42
0.0
10
67.1511993408203
20
83.1503982543945
40
0.0
41
0.0
42
0.0
10
67.0190963745117
20
83.1608963012695
40
0.0
41
0.0
42
0.0
10
66.9804992675781
20
83.1607971191406
40
0.0
41
0.0
42
0.0
10
66.6539001464844
20
83.1427993774414
40
0.0
41
0.0
42
0.0
10
66.5056991577148
20
83.2032012939453
40
0.0
41
0.0
42
0.0
10
66.3147964477539
20
83.5080032348633
40
0.0
41
0.0
42
0.0
10
66.200798034668
20
83.661003112793
40
0.0
41
0.0
42
0.0
10
66.271598815918
20
83.9851989746094
40
0.0
41
0.0
42
0.0
10
66.3733978271484
20
84.3300018310547
40
0.0
41
0.0
42
0.0
10
66.381103515625
20
84.3671035766602
40
0.0
41
0.0
42
0.0
10
66.381103515625
20
84.4824981689453
40
0.0
41
0.0
42
0.0
10
66.4100036621094
20
84.6014022827148
40
0.0
41
0.0
42
0.0
10
66.5002975463867
20
84.8289031982422
40
0.0
41
0.0
42
0.0
10
66.5584030151367
20
84.9838027954102
40
0.0
41
0.0
42
0.0
10
66.5584030151367
20
84.9990005493164
40
0.0
41
0.0
42
0.0
10
66.5400009155273
20
84.9990005493164
40
0.0
41
0.0
42
0.0
10
66.4996032714844
20
84.8908004760742
40
0.0
41
0.0
42
0.0
10
66.4116973876953
20
84.6686019897461
40
0.0
41
0.0
42
0.0
10
66.3748016357422
20
84.5174026489258
40
0.0
41
0.0
42
0.0
10
66.3748016357422
20
84.3741989135742
40
0.0
41
0.0
42
0.0
10
66.2686996459961
20
84.0147018432617
40
0.0
41
0.0
42
0.0
10
66.1854019165039
20
83.632698059082
40
0.0
41
0.0
42
0.0
10
66.185302734375
20
83.6018981933594
40
0.0
41
0.0
42
0.0
10
66.2673034667969
20
83.4917984008789
40
0.0
41
0.0
42
0.0
10
66.4941024780273
20
83.1296997070312
40
0.0
41
0.0
42
0.0
10
66.578498840332
20
83.0953979492188
40
0.0
41
0.0
42
0.0
10
66.6138000488281
20
83.0952987670898
40
0.0
41
0.0
42
0.0
10
66.996696472168
20
83.1164016723633
40
0.0
41
0.0
42
0.0
10
67.088996887207
20
83.1091995239258
40
0.0
41
0.0
42
0.0
10
67.1274032592773
20
83.1091003417969
40
0.0
41
0.0
42
0.0
10
67.5
20
83.1369018554688
40
0.0
41
0.0
42
0.0
10
67.595703125
20
83.130500793457
40
0.0
41
0.0
42
0.0
10
67.9816970825195
20
83.1287994384766
40
0.0
41
0.0
42
0.0
10
68.0980987548828
20
83.1100006103516
40
0.0
41
0.0
42
0.0
10
68.4856033325195
20
83.0567016601562
40
0.0
41
0.0
42
0.0
10
68.6844024658203
20
82.9726028442383
40
0.0
41
0.0
42
0.0
10
68.9903030395508
20
82.8560028076172
40
0.0
41
0.0
42
0.0
10
69.0428009033203
20
82.8154983520508
40
0.0
41
0.0
42
0.0
10
69.2928009033203
20
82.6072006225586
40
0.0
41
0.0
42
0.0
10
69.3329010009766
20
82.484001159668
40
0.0
41
0.0
42
0.0
10
69.3323974609375
20
82.366096496582
40
0.0
41
0.0
42
0.0
10
69.3363037109375
20
82.331298828125
40
0.0
41
0.0
42
0.0
10
69.4608001708984
20
82.097297668457
40
0.0
41
0.0
42
0.0
10
69.4913024902344
20
81.9927978515625
40
0.0
41
0.0
42
0.0
10
69.4912033081055
20
81.9533004760742
40
0.0
41
0.0
42
0.0
10
69.5203018188477
20
81.4807968139648
40
0.0
41
0.0
42
0.0
10
69.5216979980469
20
81.4225006103516
40
0.0
41
0.0
42
0.0
10
69.5029983520508
20
81.0075988769531
40
0.0
41
0.0
42
0.0
10
69.4533996582031
20
80.5145034790039
40
0.0
41
0.0
42
0.0
10
69.4358978271484
20
80.4748992919922
40
0.0
41
0.0
42
0.0
10
69.4072036743164
20
80.4197998046875
40
0.0
41
0.0
42
0.0
10
69.2984008789062
20
80.0083999633789
40
0.0
41
0.0
42
0.0
10
68.9908981323242
20
79.7378997802734
40
0.0
41
0.0
42
0.0
10
68.9120025634766
20
79.7088012695312
40
0.0
41
0.0
42
0.0
10
68.8541030883789
20
79.6569976806641
40
0.0
41
0.0
42
0.0
10
68.3309020996094
20
79.431999206543
40
0.0
41
0.0
42
0.0
10
67.9826965332031
20
79.3738021850586
40
0.0
41
0.0
42
0.0
10
67.6395034790039
20
79.3413009643555
40
0.0
41
0.0
42
0.0
10
67.489501953125
20
79.2876968383789
40
0.0
41
0.0
42
0.0
10
67.1735992431641
20
79.3099975585938
40
0.0
41
0.0
42
0.0
10
67.1343994140625
20
79.3122024536133
40
0.0
41
0.0
42
0.0
10
67.0980987548828
20
79.3121032714844
40
0.0
41
0.0
42
0.0
10
66.9850997924805
20
79.277099609375
40
0.0
41
0.0
42
0.0
10
66.8904037475586
20
79.2585983276367
40
0.0
41
0.0
42
0.0
10
66.5105972290039
20
79.434700012207
40
0.0
41
0.0
42
0.0
10
66.3790969848633
20
79.5037002563477
40
0.0
41
0.0
42
0.0
10
66.0785980224609
20
79.9317016601562
40
0.0
41
0.0
42
0.0
10
66.0484008789062
20
79.9692001342773
40
0.0
41
0.0
42
0.0
10
66.0203018188477
20
80.0101013183594
40
0.0
41
0.0
42
0.0
10
65.8768005371094
20
80.3899002075195
40
0.0
41
0.0
42
0.0
10
65.8382034301758
20
80.5145034790039
40
0.0
41
0.0
42
0.0
10
65.7897033691406
20
80.72509765625
40
0.0
41
0.0
42
0.0
10
65.7300033569336
20
81.0158996582031
40
0.0
41
0.0
42
0.0
10
65.6759033203125
20
81.3044967651367
40
0.0
41
0.0
42
0.0
10
65.6521987915039
20
81.5164031982422
40
0.0
41
0.0
42
0.0
10
65.5547027587891
20
81.9395980834961
40
0.0
41
0.0
42
0.0
10
65.5498962402344
20
82.013298034668
40
0.0
41
0.0
42
0.0
10
65.5029983520508
20
82.0883026123047
40
0.0
41
0.0
42
0.0
10
65.3121032714844
20
82.3004989624023
40
0.0
41
0.0
42
0.0
10
65.284797668457
20
82.3003997802734
40
0.0
41
0.0
42
0.0
10
65.0009994506836
20
82.2070007324219
40
0.0
41
0.0
42
0.0
10
65.0009994506836
20
82.1540985107422
40
0.0
41
0.0
42
0.0
10
65.0166015625
20
82.1539993286133
40
0.0
41
0.0
42
0.0
10
65.2239990234375
20
82.2220001220703
40
0.0
41
0.0
42
0.0
10
65.4281005859375
20
81.9953994750977
40
0.0
41
0.0
42
0.0
10
65.4698028564453
20
81.9632034301758
40
0.0
41
0.0
42
0.0
10
65.5002975463867
20
81.8358001708984
40
0.0
41
0.0
42
0.0
10
65.5813980102539
20
81.4834976196289
40
0.0
41
0.0
42
0.0
210
0.0
220
0.0
230
1.0
0
LWPOLYLINE
5
25
330
1C
100
AcDbEntity
67
0
8
0
62
256
6
ByLayer
370
-1
48
1.0
60
0
100
AcDbPolyline
90
238
70
1
38
0.0
39
0.0
10
69.6697998046875
20
74.4897003173828
40
0.0
41
0.0
42
0.0
10
69.9056015014648
20
74.2940979003906
40
0.0
41
0.0
42
0.0
10
70.0068969726562
20
74.1454010009766
40
0.0
41
0.0
42
0.0
10
70.2165985107422
20
73.9988021850586
40
0.0
41
0.0
42
0.0
10
70.3452987670898
20
73.9533996582031
40
0.0
41
0.0
42
0.0
10
70.4887008666992
20
73.8764038085938
40
0.0
41
0.0
42
0.0
10
70.6416015625
20
73.8175964355469
40
0.0
41
0.0
42
0.0
10
70.9845962524414
20
73.7210998535156
40
0.0
41
0.0
42
0.0
10
71.3293991088867
20
73.6623001098633
40
0.0
41
0.0
42
0.0
10
71.4011993408203
20
73.6435012817383
40
0.0
41
0.0
42
0.0
10
71.4839019775391
20
73.6197967529297
40
0.0
41
0.0
42
0.0
10
71.7702026367188
20
73.5922012329102
40
0.0
41
0.0
42
0.0
10
71.986701965332
20
73.5337982177734
40
0.0
41
0.0
42
0.0
10
72.0723037719727
20
73.4988021850586
40
0.0
41
0.0
42
0.0
10
71.9983978271484
20
73.4119033813477
40
0.0
41
0.0
42
0.0
10
71.9957962036133
20
73.404899597168
40
0.0
41
0.0
42
0.0
10
71.8352966308594
20
73.1181030273438
40
0.0
41
0.0
42
0.0
10
71.8351974487305
20
73.0896987915039
40
0.0
41
0.0
42
0.0
10
71.8955993652344
20
72.9949035644531
40
0.0
41
0.0
42
0.0
10
71.8609008789062
20
72.8569030761719
40
0.0
41
0.0
42
0.0
10
71.6578979492188
20
72.5119018554688
40
0.0
41
0.0
42
0.0
10
71.6315002441406
20
72.4057006835938
40
0.0
41
0.0
42
0.0
10
71.4953002929688
20
72.0606994628906
40
0.0
41
0.0
42
0.0
10
71.484001159668
20
72.0162963867188
40
0.0
41
0.0
42
0.0
10
71.4705963134766
20
71.8780975341797
40
0.0
41
0.0
42
0.0
10
71.396598815918
20
71.5177993774414
40
0.0
41
0.0
42
0.0
10
71.3964996337891
20
71.4815979003906
40
0.0
41
0.0
42
0.0
10
71.4570007324219
20
71.0991973876953
40
0.0
41
0.0
42
0.0
10
71.4851989746094
20
70.9896011352539
40
0.0
41
0.0
42
0.0
10
71.5043029785156
20
70.9658966064453
40
0.0
41
0.0
42
0.0
10
71.6032028198242
20
70.9173965454102
40
0.0
41
0.0
42
0.0
10
71.6406021118164
20
70.9036026000977
40
0.0
41
0.0
42
0.0
10
71.9820022583008
20
70.8358001708984
40
0.0
41
0.0
42
0.0
10
72.0184020996094
20
70.8357009887695
40
0.0
41
0.0
42
0.0
10
72.1698989868164
20
70.8584976196289
40
0.0
41
0.0
42
0.0
10
72.4455032348633
20
70.9544982910156
40
0.0
41
0.0
42
0.0
10
72.5134963989258
20
70.9703979492188
40
0.0
41
0.0
42
0.0
10
72.6121978759766
20
71.0109024047852
40
0.0
41
0.0
42
0.0
10
72.665397644043
20
71.035400390625
40
0.0
41
0.0
42
0.0
10
73.0100021362305
20
71.2289962768555
40
0.0
41
0.0
42
0.0
10
73.1640014648438
20
71.3088989257812
40
0.0
41
0.0
42
0.0
10
73.3480987548828
20
71.4403991699219
40
0.0
41
0.0
42
0.0
10
73.4192962646484
20
71.4961013793945
40
0.0
41
0.0
42
0.0
10
73.5064010620117
20
71.5744018554688
40
0.0
41
0.0
42
0.0
10
73.6456985473633
20
71.6850967407227
40
0.0
41
0.0
42
0.0
10
73.8685989379883
20
71.8576965332031
40
0.0
41
0.0
42
0.0
10
73.9981002807617
20
71.9252014160156
40
0.0
41
0.0
42
0.0
10
74.1315994262695
20
71.4881973266602
40
0.0
41
0.0
42
0.0
10
74.2191009521484
20
71.3333969116211
40
0.0
41
0.0
42
0.0
10
74.3302001953125
20
70.9872970581055
40
0.0
41
0.0
42
0.0
10
74.4122009277344
20
70.7976989746094
40
0.0
41
0.0
42
0.0
10
74.5123977661133
20
70.6430969238281
40
0.0
41
0.0
42
0.0
10
74.5868988037109
20
70.491096496582
40
0.0
41
0.0
42
0.0
10
74.7002029418945
20
70.3464965820312
40
0.0
41
0.0
42
0.0
10
74.9204025268555
20
69.9907989501953
40
0.0
41
0.0
42
0.0
10
74.9829025268555
20
69.8856964111328
40
0.0
41
0.0
42
0.0
10
74.9932022094727
20
69.872802734375
40
0.0
41
0.0
42
0.0
10
75.1101989746094
20
69.8207015991211
40
0.0
41
0.0
42
0.0
10
75.484001159668
20
69.6697998046875
40
0.0
41
0.0
42
0.0
10
75.5101013183594
20
69.6697998046875
40
0.0
41
0.0
42
0.0
10
75.7057037353516
20
69.9056015014648
40
0.0
41
0.0
42
0.0
10
75.8543014526367
20
70.0070037841797
40
0.0
41
0.0
42
0.0
10
76.0009994506836
20
70.2166976928711
40
0.0
41
0.0
42
0.0
10
76.0463027954102
20
70.3452987670898
40
0.0
41
0.0
42
0.0
10
76.1229019165039
20
70.4878997802734
40
0.0
41
0.0
42
0.0
10
76.219596862793
20
70.8315963745117
40
0.0
41
0.0
42
0.0
10
76.2788009643555
20
70.9856033325195
40
0.0
41
0.0
42
0.0
10
76.33740234375
20
71.3293991088867
40
0.0
41
0.0
42
0.0
10
76.356201171875
20
71.4011993408203
40
0.0
41
0.0
42
0.0
10
76.3798980712891
20
71.4839019775391
40
0.0
41
0.0
42
0.0
10
76.4075012207031
20
71.7702026367188
40
0.0
41
0.0
42
0.0
10
76.4658966064453
20
71.986701965332
40
0.0
41
0.0
42
0.0
10
76.5011978149414
20
72.0721969604492
40
0.0
41
0.0
42
0.0
10
76.5924987792969
20
71.994499206543
40
0.0
41
0.0
42
0.0
10
76.7525024414062
20
71.7873001098633
40
0.0
41
0.0
42
0.0
10
76.776496887207
20
71.7873992919922
40
0.0
41
0.0
42
0.0
10
76.9723968505859
20
71.9041976928711
40
0.0
41
0.0
42
0.0
10
77.1429977416992
20
71.8608016967773
40
0.0
41
0.0
42
0.0
10
77.4878997802734
20
71.6578979492188
40
0.0
41
0.0
42
0.0
10
77.5941009521484
20
71.6315002441406
40
0.0
41
0.0
42
0.0
10
77.9391021728516
20
71.4953002929688
40
0.0
41
0.0
42
0.0
10
77.9835968017578
20
71.484001159668
40
0.0
41
0.0
42
0.0
10
78.1218032836914
20
71.4705963134766
40
0.0
41
0.0
42
0.0
10
78.4821014404297
20
71.396598815918
40
0.0
41
0.0
42
0.0
10
78.5183029174805
20
71.3964996337891
40
0.0
41
0.0
42
0.0
10
78.9007034301758
20
71.4570007324219
40
0.0
41
0.0
42
0.0
10
79.0102996826172
20
71.4852981567383
40
0.0
41
0.0
42
0.0
10
79.0337982177734
20
71.5044021606445
40
0.0
41
0.0
42
0.0
10
79.0822982788086
20
71.6032028198242
40
0.0
41
0.0
42
0.0
10
79.0960998535156
20
71.6406021118164
40
0.0
41
0.0
42
0.0
10
79.1641006469727
20
71.9820022583008
40
0.0
41
0.0
42
0.0
10
79.1640014648438
20
72.0184020996094
40
0.0
41
0.0
42
0.0
10
79.1411972045898
20
72.1698989868164
40
0.0
41
0.0
42
0.0
10
79.0451965332031
20
72.4455032348633
40
0.0
41
0.0
42
0.0
10
79.029296875
20
72.5134963989258
40
0.0
41
0.0
42
0.0
10
78.988899230957
20
72.6121978759766
40
0.0
41
0.0
42
0.0
10
78.9643020629883
20
72.665397644043
40
0.0
41
0.0
42
0.0
10
78.7706985473633
20
73.0099029541016
40
0.0
41
0.0
42
0.0
10
78.690803527832
20
73.1640014648438
40
0.0
41
0.0
42
0.0
10
78.5593032836914
20
73.3479995727539
40
0.0
41
0.0
42
0.0
10
78.5037994384766
20
73.4192962646484
40
0.0
41
0.0
42
0.0
10
78.4253997802734
20
73.5063018798828
40
0.0
41
0.0
42
0.0
10
78.3145980834961
20
73.6455993652344
40
0.0
41
0.0
42
0.0
10
78.1419982910156
20
73.8684997558594
40
0.0
41
0.0
42
0.0
10
78.0746002197266
20
73.9981002807617
40
0.0
41
0.0
42
0.0
10
78.5115966796875
20
74.1315994262695
40
0.0
41
0.0
42
0.0
10
78.6664962768555
20
74.2191009521484
40
0.0
41
0.0
42
0.0
10
79.0126037597656
20
74.3302001953125
40
0.0
41
0.0
42
0.0
10
79.2021026611328
20
74.4122009277344
40
0.0
41
0.0
42
0.0
10
79.3566970825195
20
74.5123977661133
40
0.0
41
0.0
42
0.0
10
79.5086975097656
20
74.5868988037109
40
0.0
41
0.0
42
0.0
10
79.6532974243164
20
74.7003021240234
40
0.0
41
0.0
42
0.0
10
80.0091018676758
20
74.9204025268555
40
0.0
41
0.0
42
0.0
10
80.1139984130859
20
74.9830017089844
40
0.0
41
0.0
42
0.0
10
80.1267013549805
20
74.9929962158203
40
0.0
41
0.0
42
0.0
10
80.2802963256836
20
75.3731994628906
40
0.0
41
0.0
42
0.0
10
80.3302001953125
20
75.4843978881836
40
0.0
41
0.0
42
0.0
10
80.3301010131836
20
75.5100021362305
40
0.0
41
0.0
42
0.0
10
80.0940017700195
20
75.7055969238281
40
0.0
41
0.0
42
0.0
10
80.002799987793
20
75.8414993286133
40
0.0
41
0.0
42
0.0
10
79.9933013916016
20
75.8538970947266
40
0.0
41
0.0
42
0.0
10
79.7830963134766
20
76.0009994506836
40
0.0
41
0.0
42
0.0
10
79.6545028686523
20
76.0464019775391
40
0.0
41
0.0
42
0.0
10
79.5120010375977
20
76.1229019165039
40
0.0
41
0.0
42
0.0
10
79.1682968139648
20
76.219596862793
40
0.0
41
0.0
42
0.0
10
79.0142974853516
20
76.2788009643555
40
0.0
41
0.0
42
0.0
10
78.6705017089844
20
76.33740234375
40
0.0
41
0.0
42
0.0
10
78.5986022949219
20
76.356201171875
40
0.0
41
0.0
42
0.0
10
78.515998840332
20
76.3798980712891
40
0.0
41
0.0
42
0.0
10
78.2296981811523
20
76.4075012207031
40
0.0
41
0.0
42
0.0
10
78.0131988525391
20
76.4657974243164
40
0.0
41
0.0
42
0.0
10
77.9274978637695
20
76.5010986328125
40
0.0
41
0.0
42
0.0
10
78.0015029907227
20
76.5878982543945
40
0.0
41
0.0
42
0.0
10
78.0038986206055
20
76.5950012207031
40
0.0
41
0.0
42
0.0
10
78.1645965576172
20
76.8816986083984
40
0.0
41
0.0
42
0.0
10
78.1644973754883
20
76.9101028442383
40
0.0
41
0.0
42
0.0
10
78.1072006225586
20
77.0002975463867
40
0.0
41
0.0
42
0.0
10
78.3028030395508
20
77.3330001831055
40
0.0
41
0.0
42
0.0
10
78.3683013916016
20
77.5941009521484
40
0.0
41
0.0
42
0.0
10
78.5044021606445
20
77.9391021728516
40
0.0
41
0.0
42
0.0
10
78.5160980224609
20
77.9847030639648
40
0.0
41
0.0
42
0.0
10
78.586799621582
20
78.328498840332
40
0.0
41
0.0
42
0.0
10
78.5922012329102
20
78.3674011230469
40
0.0
41
0.0
42
0.0
10
78.6031036376953
20
78.4783020019531
40
0.0
41
0.0
42
0.0
10
78.6032028198242
20
78.5183029174805
40
0.0
41
0.0
42
0.0
10
78.5427017211914
20
78.9007034301758
40
0.0
41
0.0
42
0.0
10
78.5143966674805
20
79.0102005004883
40
0.0
41
0.0
42
0.0
10
78.4953994750977
20
79.0337982177734
40
0.0
41
0.0
42
0.0
10
78.3966979980469
20
79.0822982788086
40
0.0
41
0.0
42
0.0
10
78.3592987060547
20
79.0960006713867
40
0.0
41
0.0
42
0.0
10
78.0178985595703
20
79.1641006469727
40
0.0
41
0.0
42
0.0
10
77.9814987182617
20
79.1640014648438
40
0.0
41
0.0
42
0.0
10
77.8300018310547
20
79.1411972045898
40
0.0
41
0.0
42
0.0
10
77.5542984008789
20
79.0451965332031
40
0.0
41
0.0
42
0.0
10
77.4863967895508
20
79.029296875
40
0.0
41
0.0
42
0.0
10
77.3877029418945
20
78.988899230957
40
0.0
41
0.0
42
0.0
10
77.3345031738281
20
78.9644012451172
40
0.0
41
0.0
42
0.0
10
76.9898986816406
20
78.7707977294922
40
0.0
41
0.0
42
0.0
10
76.8358993530273
20
78.690803527832
40
0.0
41
0.0
42
0.0
10
76.6517028808594
20
78.5594024658203
40
0.0
41
0.0
42
0.0
10
76.5803985595703
20
78.5038986206055
40
0.0
41
0.0
42
0.0
10
76.4934997558594
20
78.4253997802734
40
0.0
41
0.0
42
0.0
10
76.3541030883789
20
78.314697265625
40
0.0
41
0.0
42
0.0
10
76.1313018798828
20
78.1419982910156
40
0.0
41
0.0
42
0.0
10
76.0017013549805
20
78.0745010375977
40
0.0
41
0.0
42
0.0
10
75.8681030273438
20
78.5115966796875
40
0.0
41
0.0
42
0.0
10
75.7806015014648
20
78.6664962768555
40
0.0
41
0.0
42
0.0
10
75.6695022583008
20
79.0124969482422
40
0.0
41
0.0
42
0.0
10
75.5875015258789
20
79.2020034790039
40
0.0
41
0.0
42
0.0
10
75.4872970581055
20
79.3565979003906
40
0.0
41
0.0
42
0.0
10
75.4123001098633
20
79.5098037719727
40
0.0
41
0.0
42
0.0
10
75.1998977661133
20
79.852897644043
40
0.0
41
0.0
42
0.0
10
75.0799026489258
20
80.0081024169922
40
0.0
41
0.0
42
0.0
10
75.0167007446289
20
80.1139984130859
40
0.0
41
0.0
42
0.0
10
75.0068969726562
20
80.1266021728516
40
0.0
41
0.0
42
0.0
10
74.6267013549805
20
80.2802963256836
40
0.0
41
0.0
42
0.0
10
74.5155029296875
20
80.3302001953125
40
0.0
41
0.0
42
0.0
10
74.4897994995117
20
80.3301010131836
40
0.0
41
0.0
42
0.0
10
74.2940979003906
20
80.0941009521484
40
0.0
41
0.0
42
0.0
10
74.1583023071289
20
80.0028991699219
40
0.0
41
0.0
42
0.0
10
74.1457977294922
20
79.9933013916016
40
0.0
41
0.0
42
0.0
10
73.9988021850586
20
79.783203125
40
0.0
41
0.0
42
0.0
10
73.9533996582031
20
79.6546020507812
40
0.0
41
0.0
42
0.0
10
73.8764038085938
20
79.5111999511719
40
0.0
41
0.0
42
0.0
10
73.8175964355469
20
79.3582992553711
40
0.0
41
0.0
42
0.0
10
73.7210998535156
20
79.0152969360352
40
0.0
41
0.0
42
0.0
10
73.6623001098633
20
78.6705017089844
40
0.0
41
0.0
42
0.0
10
73.6436004638672
20
78.5986022949219
40
0.0
41
0.0
42
0.0
10
73.6197967529297
20
78.515998840332
40
0.0
41
0.0
42
0.0
10
73.5922012329102
20
78.2296981811523
40
0.0
41
0.0
42
0.0
10
73.5338973999023
20
78.0131988525391
40
0.0
41
0.0
42
0.0
10
73.4988021850586
20
77.9272994995117
40
0.0
41
0.0
42
0.0
10
73.4120025634766
20
78.0014038085938
40
0.0
41
0.0
42
0.0
10
73.404899597168
20
78.0038986206055
40
0.0
41
0.0
42
0.0
10
73.1181030273438
20
78.1645965576172
40
0.0
41
0.0
42
0.0
10
73.0896987915039
20
78.1644973754883
40
0.0
41
0.0
42
0.0
10
72.9996032714844
20
78.1071014404297
40
0.0
41
0.0
42
0.0
10
72.6669006347656
20
78.3028030395508
40
0.0
41
0.0
42
0.0
10
72.4057006835938
20
78.3682022094727
40
0.0
41
0.0
42
0.0
10
72.0606002807617
20
78.5044021606445
40
0.0
41
0.0
42
0.0
10
72.0151977539062
20
78.515998840332
40
0.0
41
0.0
42
0.0
10
71.6714019775391
20
78.586799621582
40
0.0
41
0.0
42
0.0
10
71.6324996948242
20
78.5922012329102
40
0.0
41
0.0
42
0.0
10
71.5214996337891
20
78.6031036376953
40
0.0
41
0.0
42
0.0
10
71.4815979003906
20
78.6032028198242
40
0.0
41
0.0
42
0.0
10
71.0991973876953
20
78.5427017211914
40
0.0
41
0.0
42
0.0
10
70.9896011352539
20
78.5145034790039
40
0.0
41
0.0
42
0.0
10
70.9658966064453
20
78.4953994750977
40
0.0
41
0.0
42
0.0
10
70.9173965454102
20
78.3966979980469
40
0.0
41
0.0
42
0.0
10
70.9037017822266
20
78.3592987060547
40
0.0
41
0.0
42
0.0
10
70.8358001708984
20
78.0178985595703
40
0.0
41
0.0
42
0.0
10
70.8357009887695
20
77.9814987182617
40
0.0
41
0.0
42
0.0
10
70.8584976196289
20
77.8300018310547
40
0.0
41
0.0
42
0.0
10
70.9544982910156
20
77.5542984008789
40
0.0
41
0.0
42
0.0
10
70.9703979492188
20
77.4863967895508
40
0.0
41
0.0
42
0.0
10
71.0108032226562
20
77.3877029418945
40
0.0
41
0.0
42
0.0
10
71.0353012084961
20
77.3345031738281
40
0.0
41
0.0
42
0.0
10
71.2289962768555
20
76.9898986816406
40
0.0
41
0.0
42
0.0
10
71.3088989257812
20
76.8358993530273
40
0.0
41
0.0
42
0.0
10
71.440299987793
20
76.6517028808594
40
0.0
41
0.0
42
0.0
10
71.4960021972656
20
76.5803985595703
40
0.0
41
0.0
42
0.0
10
71.5743026733398
20
76.4934997558594
40
0.0
41
0.0
42
0.0
10
71.6849975585938
20
76.3541030883789
40
0.0
41
0.0
42
0.0
10
71.8576965332031
20
76.1312026977539
40
0.0
41
0.0
42
0.0
10
71.9253997802734
20
76.0018005371094
40
0.0
41
0.0
42
0.0
10
71.4882965087891
20
75.8681030273438
40
0.0
41
0.0
42
0.0
10
71.3333969116211
20
75.7806015014648
40
0.0
41
0.0
42
0.0
10
70.9872970581055
20
75.6696014404297
40
0.0
41
0.0
42
0.0
10
70.7976989746094
20
75.5875015258789
40
0.0
41
0.0
42
0.0
10
70.6430969238281
20
75.4872970581055
40
0.0
41
0.0
42
0.0
10
70.4900970458984
20
75.4123001098633
40
0.0
41
0.0
42
0.0
10
70.1470031738281
20
75.1998977661133
40
0.0
41
0.0
42
0.0
10
69.9917984008789
20
75.0799026489258
40
0.0
41
0.0
42
0.0
10
69.8858032226562
20
75.0167999267578
40
0.0
41
0.0
42
0.0
10
69.872802734375
20
75.0066986083984
40
0.0
41
0.0
42
0.0
10
69.823600769043
20
74.8966979980469
40
0.0
41
0.0
42
0.0
10
69.6697998046875
20
74.5158996582031
40
0.0
41
0.0
42
0.0
10
69.6697998046875
20
74.4897003173828
40
0.0
41
0.0
42
0.0
210
0.0
220
0.0
230
1.0
0
LWPOLYLINE
5
26
330
1C
100
AcDbEntity
67
0
8
0
62
256
6
ByLayer
370
-1
48
1.0
60
0
100
AcDbPolyline
90
231
70
1
38
0.0
39
0.0
10
69.8833999633789
20
74.9933013916016
40
0.0
41
0.0
42
0.0
10
69.9129028320312
20
75.0165023803711
40
0.0
41
0.0
42
0.0
10
70.0080032348633
20
75.0730972290039
40
0.0
41
0.0
42
0.0
10
70.1324996948242
20
75.1707000732422
40
0.0
41
0.0
42
0.0
10
70.5020980834961
20
75.3993988037109
40
0.0
41
0.0
42
0.0
10
70.6800003051758
20
75.4876022338867
40
0.0
41
0.0
42
0.0
10
70.7955017089844
20
75.5625
40
0.0
41
0.0
42
0.0
10
71.0126037597656
20
75.6563034057617
40
0.0
41
0.0
42
0.0
10
71.3964996337891
20
75.7795028686523
40
0.0
41
0.0
42
0.0
10
71.5115966796875
20
75.8444976806641
40
0.0
41
0.0
42
0.0
10
72.0092010498047
20
75.9962005615234
40
0.0
41
0.0
42
0.0
10
72.0091018676758
20
76.0054016113281
40
0.0
41
0.0
42
0.0
10
72.0068969726562
20
76.0063018798828
40
0.0
41
0.0
42
0.0
10
71.7723007202148
20
76.3089981079102
40
0.0
41
0.0
42
0.0
10
71.6156005859375
20
76.5063018798828
40
0.0
41
0.0
42
0.0
10
71.5037994384766
20
76.630500793457
40
0.0
41
0.0
42
0.0
10
71.4613037109375
20
76.6849975585938
40
0.0
41
0.0
42
0.0
10
71.3121032714844
20
76.8938980102539
40
0.0
41
0.0
42
0.0
10
71.2518997192383
20
77.0099029541016
40
0.0
41
0.0
42
0.0
10
71.035400390625
20
77.3954010009766
40
0.0
41
0.0
42
0.0
10
71.0068969726562
20
77.4571990966797
40
0.0
41
0.0
42
0.0
10
70.9838027954102
20
77.5134963989258
40
0.0
41
0.0
42
0.0
10
70.9657974243164
20
77.5905990600586
40
0.0
41
0.0
42
0.0
10
70.8581008911133
20
77.89990234375
40
0.0
41
0.0
42
0.0
10
70.8433990478516
20
77.9977035522461
40
0.0
41
0.0
42
0.0
10
70.9144973754883
20
78.3544006347656
40
0.0
41
0.0
42
0.0
10
70.9755020141602
20
78.4782028198242
40
0.0
41
0.0
42
0.0
10
71.0101013183594
20
78.5072021484375
40
0.0
41
0.0
42
0.0
10
71.1707000732422
20
78.5485000610352
40
0.0
41
0.0
42
0.0
10
71.5040969848633
20
78.6013031005859
40
0.0
41
0.0
42
0.0
10
71.6144027709961
20
78.5905990600586
40
0.0
41
0.0
42
0.0
10
71.9847030639648
20
78.5143966674805
40
0.0
41
0.0
42
0.0
10
72.0214004516602
20
78.5048980712891
40
0.0
41
0.0
42
0.0
10
72.4064025878906
20
78.3531036376953
40
0.0
41
0.0
42
0.0
10
72.6029968261719
20
78.3038024902344
40
0.0
41
0.0
42
0.0
10
72.9857025146484
20
78.0789031982422
40
0.0
41
0.0
42
0.0
10
73.013801574707
20
78.0787963867188
40
0.0
41
0.0
42
0.0
10
73.0774002075195
20
78.1192016601562
40
0.0
41
0.0
42
0.0
10
73.2807006835938
20
78.005500793457
40
0.0
41
0.0
42
0.0
10
73.3002014160156
20
77.9982986450195
40
0.0
41
0.0
42
0.0
10
73.4877014160156
20
77.8388977050781
40
0.0
41
0.0
42
0.0
10
73.5057983398438
20
77.8388977050781
40
0.0
41
0.0
42
0.0
10
73.5664978027344
20
77.986701965332
40
0.0
41
0.0
42
0.0
10
73.6082992553711
20
78.1420974731445
40
0.0
41
0.0
42
0.0
10
73.6411972045898
20
78.4838027954102
40
0.0
41
0.0
42
0.0
10
73.6729965209961
20
78.5995025634766
40
0.0
41
0.0
42
0.0
10
73.7387008666992
20
78.9845962524414
40
0.0
41
0.0
42
0.0
10
73.8475036621094
20
79.3715972900391
40
0.0
41
0.0
42
0.0
10
73.8926010131836
20
79.4887008666992
40
0.0
41
0.0
42
0.0
10
73.9495010375977
20
79.5947036743164
40
0.0
41
0.0
42
0.0
10
74.0010986328125
20
79.7406997680664
40
0.0
41
0.0
42
0.0
10
74.1729965209961
20
79.9862976074219
40
0.0
41
0.0
42
0.0
10
74.2891998291016
20
80.0653991699219
40
0.0
41
0.0
42
0.0
10
74.309700012207
20
80.0875015258789
40
0.0
41
0.0
42
0.0
10
74.5031967163086
20
80.3205032348633
40
0.0
41
0.0
42
0.0
10
74.6430969238281
20
80.2580032348633
40
0.0
41
0.0
42
0.0
10
74.9929962158203
20
80.11669921875
40
0.0
41
0.0
42
0.0
10
75.0164031982422
20
80.086799621582
40
0.0
41
0.0
42
0.0
10
75.0730972290039
20
79.9917984008789
40
0.0
41
0.0
42
0.0
10
75.1706008911133
20
79.867301940918
40
0.0
41
0.0
42
0.0
10
75.4040985107422
20
79.4900970458984
40
0.0
41
0.0
42
0.0
10
75.4876022338867
20
79.3197021484375
40
0.0
41
0.0
42
0.0
10
75.5625
20
79.2042999267578
40
0.0
41
0.0
42
0.0
10
75.6561965942383
20
78.9872970581055
40
0.0
41
0.0
42
0.0
10
75.7794036865234
20
78.603401184082
40
0.0
41
0.0
42
0.0
10
75.8444976806641
20
78.4881973266602
40
0.0
41
0.0
42
0.0
10
75.9962005615234
20
77.9906997680664
40
0.0
41
0.0
42
0.0
10
76.0054016113281
20
77.9906997680664
40
0.0
41
0.0
42
0.0
10
76.0063018798828
20
77.9928970336914
40
0.0
41
0.0
42
0.0
10
76.3090972900391
20
78.2275009155273
40
0.0
41
0.0
42
0.0
10
76.5064010620117
20
78.3841018676758
40
0.0
41
0.0
42
0.0
10
76.6305999755859
20
78.4960021972656
40
0.0
41
0.0
42
0.0
10
76.6850967407227
20
78.5384979248047
40
0.0
41
0.0
42
0.0
10
76.8939971923828
20
78.6875991821289
40
0.0
41
0.0
42
0.0
10
77.0100021362305
20
78.747802734375
40
0.0
41
0.0
42
0.0
10
77.3954010009766
20
78.9643020629883
40
0.0
41
0.0
42
0.0
10
77.4572982788086
20
78.9927978515625
40
0.0
41
0.0
42
0.0
10
77.5134963989258
20
79.0158996582031
40
0.0
41
0.0
42
0.0
10
77.5905990600586
20
79.0338973999023
40
0.0
41
0.0
42
0.0
10
77.89990234375
20
79.1416015625
40
0.0
41
0.0
42
0.0
10
77.9975967407227
20
79.1563034057617
40
0.0
41
0.0
42
0.0
10
78.3543014526367
20
79.0851974487305
40
0.0
41
0.0
42
0.0
10
78.4781036376953
20
79.024299621582
40
0.0
41
0.0
42
0.0
10
78.5072021484375
20
78.9897994995117
40
0.0
41
0.0
42
0.0
10
78.5485000610352
20
78.8292007446289
40
0.0
41
0.0
42
0.0
10
78.6013031005859
20
78.4957962036133
40
0.0
41
0.0
42
0.0
10
78.5905990600586
20
78.385498046875
40
0.0
41
0.0
42
0.0
10
78.5143966674805
20
78.0151977539062
40
0.0
41
0.0
42
0.0
10
78.504997253418
20
77.978401184082
40
0.0
41
0.0
42
0.0
10
78.3531036376953
20
77.5933990478516
40
0.0
41
0.0
42
0.0
10
78.3038024902344
20
77.3968963623047
40
0.0
41
0.0
42
0.0
10
78.0789031982422
20
77.0141983032227
40
0.0
41
0.0
42
0.0
10
78.0787963867188
20
76.9860000610352
40
0.0
41
0.0
42
0.0
10
78.1193008422852
20
76.9224014282227
40
0.0
41
0.0
42
0.0
10
78.005500793457
20
76.7191009521484
40
0.0
41
0.0
42
0.0
10
77.9983978271484
20
76.6996002197266
40
0.0
41
0.0
42
0.0
10
77.8388977050781
20
76.5121994018555
40
0.0
41
0.0
42
0.0
10
77.8387985229492
20
76.4940032958984
40
0.0
41
0.0
42
0.0
10
77.986701965332
20
76.4331970214844
40
0.0
41
0.0
42
0.0
10
78.1420974731445
20
76.3914031982422
40
0.0
41
0.0
42
0.0
10
78.4838027954102
20
76.3584976196289
40
0.0
41
0.0
42
0.0
10
78.5995025634766
20
76.3266983032227
40
0.0
41
0.0
42
0.0
10
78.9854965209961
20
76.2609024047852
40
0.0
41
0.0
42
0.0
10
79.1016006469727
20
76.2163009643555
40
0.0
41
0.0
42
0.0
10
79.4878005981445
20
76.1074981689453
40
0.0
41
0.0
42
0.0
10
79.594596862793
20
76.0502014160156
40
0.0
41
0.0
42
0.0
10
79.7406005859375
20
75.9988021850586
40
0.0
41
0.0
42
0.0
10
79.9862976074219
20
75.8267974853516
40
0.0
41
0.0
42
0.0
10
80.0653991699219
20
75.7105026245117
40
0.0
41
0.0
42
0.0
10
80.0875015258789
20
75.6901016235352
40
0.0
41
0.0
42
0.0
10
80.3206024169922
20
75.496696472168
40
0.0
41
0.0
42
0.0
10
80.2580032348633
20
75.3567962646484
40
0.0
41
0.0
42
0.0
10
80.11669921875
20
75.0068969726562
40
0.0
41
0.0
42
0.0
10
80.0868988037109
20
74.9832992553711
40
0.0
41
0.0
42
0.0
10
79.9908981323242
20
74.9261016845703
40
0.0
41
0.0
42
0.0
10
79.6463012695312
20
74.7127990722656
40
0.0
41
0.0
42
0.0
10
79.6072006225586
20
74.6872024536133
40
0.0
41
0.0
42
0.0
10
79.4912033081055
20
74.5960998535156
40
0.0
41
0.0
42
0.0
10
79.3197021484375
20
74.5121002197266
40
0.0
41
0.0
42
0.0
10
79.2042999267578
20
74.4373016357422
40
0.0
41
0.0
42
0.0
10
78.9872970581055
20
74.3434982299805
40
0.0
41
0.0
42
0.0
10
78.603401184082
20
74.2202987670898
40
0.0
41
0.0
42
0.0
10
78.4882965087891
20
74.1551971435547
40
0.0
41
0.0
42
0.0
10
77.9906997680664
20
74.0036010742188
40
0.0
41
0.0
42
0.0
10
77.9906005859375
20
73.9943008422852
40
0.0
41
0.0
42
0.0
10
77.9929962158203
20
73.9934005737305
40
0.0
41
0.0
42
0.0
10
78.2274017333984
20
73.6906967163086
40
0.0
41
0.0
42
0.0
10
78.3841018676758
20
73.4934997558594
40
0.0
41
0.0
42
0.0
10
78.4960021972656
20
73.3692016601562
40
0.0
41
0.0
42
0.0
10
78.5383987426758
20
73.314697265625
40
0.0
41
0.0
42
0.0
10
78.6875
20
73.1059036254883
40
0.0
41
0.0
42
0.0
10
78.747802734375
20
72.9898986816406
40
0.0
41
0.0
42
0.0
10
78.9643020629883
20
72.6044006347656
40
0.0
41
0.0
42
0.0
10
78.9927978515625
20
72.5425033569336
40
0.0
41
0.0
42
0.0
10
79.0158996582031
20
72.4863967895508
40
0.0
41
0.0
42
0.0
10
79.0338973999023
20
72.4092025756836
40
0.0
41
0.0
42
0.0
10
79.1416015625
20
72.0999984741211
40
0.0
41
0.0
42
0.0
10
79.1563034057617
20
72.0022964477539
40
0.0
41
0.0
42
0.0
10
79.0852966308594
20
71.6455993652344
40
0.0
41
0.0
42
0.0
10
79.0243988037109
20
71.521598815918
40
0.0
41
0.0
42
0.0
10
78.9897994995117
20
71.4925994873047
40
0.0
41
0.0
42
0.0
10
78.8292007446289
20
71.4512023925781
40
0.0
41
0.0
42
0.0
10
78.5020980834961
20
71.3994979858398
40
0.0
41
0.0
42
0.0
10
78.1712036132812
20
71.4675979614258
40
0.0
41
0.0
42
0.0
10
78.1323013305664
20
71.4738006591797
40
0.0
41
0.0
42
0.0
10
78.0162963867188
20
71.4850006103516
40
0.0
41
0.0
42
0.0
10
77.9783020019531
20
71.4946975708008
40
0.0
41
0.0
42
0.0
10
77.5933990478516
20
71.646598815918
40
0.0
41
0.0
42
0.0
10
77.5119018554688
20
71.6669006347656
40
0.0
41
0.0
42
0.0
10
77.1268997192383
20
71.8934020996094
40
0.0
41
0.0
42
0.0
10
77.0137023925781
20
71.9217987060547
40
0.0
41
0.0
42
0.0
10
76.9837036132812
20
71.9328994750977
40
0.0
41
0.0
42
0.0
10
76.9533004760742
20
71.9328002929688
40
0.0
41
0.0
42
0.0
10
76.8147964477539
20
71.8499984741211
40
0.0
41
0.0
42
0.0
10
76.6949996948242
20
72.0053024291992
40
0.0
41
0.0
42
0.0
10
76.5121994018555
20
72.161003112793
40
0.0
41
0.0
42
0.0
10
76.4940032958984
20
72.161003112793
40
0.0
41
0.0
42
0.0
10
76.4331970214844
20
72.0131988525391
40
0.0
41
0.0
42
0.0
10
76.3914031982422
20
71.8578033447266
40
0.0
41
0.0
42
0.0
10
76.3584976196289
20
71.5160980224609
40
0.0
41
0.0
42
0.0
10
76.3266983032227
20
71.4003982543945
40
0.0
41
0.0
42
0.0
10
76.2609024047852
20
71.0143966674805
40
0.0
41
0.0
42
0.0
10
76.2163009643555
20
70.8983001708984
40
0.0
41
0.0
42
0.0
10
76.1075973510742
20
70.5121002197266
40
0.0
41
0.0
42
0.0
10
76.0502014160156
20
70.4050979614258
40
0.0
41
0.0
42
0.0
10
75.9988021850586
20
70.2592010498047
40
0.0
41
0.0
42
0.0
10
75.8268966674805
20
70.0133972167969
40
0.0
41
0.0
42
0.0
10
75.7107009887695
20
69.9343032836914
40
0.0
41
0.0
42
0.0
10
75.6878967285156
20
69.9095993041992
40
0.0
41
0.0
42
0.0
10
75.4962997436523
20
69.678596496582
40
0.0
41
0.0
42
0.0
10
75.1667022705078
20
69.8117980957031
40
0.0
41
0.0
42
0.0
10
75.0065994262695
20
69.88330078125
40
0.0
41
0.0
42
0.0
10
74.9832992553711
20
69.9129028320312
40
0.0
41
0.0
42
0.0
10
74.9260025024414
20
70.0090026855469
40
0.0
41
0.0
42
0.0
10
74.7127990722656
20
70.3535995483398
40
0.0
41
0.0
42
0.0
10
74.6871032714844
20
70.3926010131836
40
0.0
41
0.0
42
0.0
10
74.5960998535156
20
70.5086975097656
40
0.0
41
0.0
42
0.0
10
74.5121002197266
20
70.6800003051758
40
0.0
41
0.0
42
0.0
10
74.4372024536133
20
70.7955017089844
40
0.0
41
0.0
42
0.0
10
74.3433990478516
20
71.0124969482422
40
0.0
41
0.0
42
0.0
10
74.2202987670898
20
71.3964996337891
40
0.0
41
0.0
42
0.0
10
74.1551971435547
20
71.5115966796875
40
0.0
41
0.0
42
0.0
10
74.0036010742188
20
72.0092010498047
40
0.0
41
0.0
42
0.0
10
73.9942016601562
20
72.0092010498047
40
0.0
41
0.0
42
0.0
10
73.9934005737305
20
72.0068969726562
40
0.0
41
0.0
42
0.0
10
73.6906967163086
20
71.7723007202148
40
0.0
41
0.0
42
0.0
10
73.4934997558594
20
71.6156997680664
40
0.0
41
0.0
42
0.0
10
73.3693008422852
20
71.5037994384766
40
0.0
41
0.0
42
0.0
10
73.314697265625
20
71.4613037109375
40
0.0
41
0.0
42
0.0
10
73.1060028076172
20
71.3122024536133
40
0.0
41
0.0
42
0.0
10
72.9899978637695
20
71.2518997192383
40
0.0
41
0.0
42
0.0
10
72.6044998168945
20
71.035400390625
40
0.0
41
0.0
42
0.0
10
72.5425033569336
20
71.0070037841797
40
0.0
41
0.0
42
0.0
10
72.4863967895508
20
70.9839019775391
40
0.0
41
0.0
42
0.0
10
72.4092025756836
20
70.9657974243164
40
0.0
41
0.0
42
0.0
10
72.0999984741211
20
70.8581008911133
40
0.0
41
0.0
42
0.0
10
72.002197265625
20
70.8433990478516
40
0.0
41
0.0
42
0.0
10
71.6455001831055
20
70.9143981933594
40
0.0
41
0.0
42
0.0
10
71.5214996337891
20
70.9754028320312
40
0.0
41
0.0
42
0.0
10
71.4925003051758
20
71.0101013183594
40
0.0
41
0.0
42
0.0
10
71.4512023925781
20
71.1707000732422
40
0.0
41
0.0
42
0.0
10
71.3994979858398
20
71.497802734375
40
0.0
41
0.0
42
0.0
10
71.4675979614258
20
71.8286972045898
40
0.0
41
0.0
42
0.0
10
71.4738006591797
20
71.8675994873047
40
0.0
41
0.0
42
0.0
10
71.4850997924805
20
71.9835968017578
40
0.0
41
0.0
42
0.0
10
71.4947967529297
20
72.0214996337891
40
0.0
41
0.0
42
0.0
10
71.646598815918
20
72.4064025878906
40
0.0
41
0.0
42
0.0
10
71.6669998168945
20
72.4879989624023
40
0.0
41
0.0
42
0.0
10
71.8934020996094
20
72.8730010986328
40
0.0
41
0.0
42
0.0
10
71.9209976196289
20
72.9825973510742
40
0.0
41
0.0
42
0.0
10
71.9209976196289
20
73.013801574707
40
0.0
41
0.0
42
0.0
10
71.8804016113281
20
73.0773010253906
40
0.0
41
0.0
42
0.0
10
71.9943008422852
20
73.2807998657227
40
0.0
41
0.0
42
0.0
10
72.0016021728516
20
73.3002014160156
40
0.0
41
0.0
42
0.0
10
72.161003112793
20
73.4877014160156
40
0.0
41
0.0
42
0.0
10
72.1608963012695
20
73.5057983398438
40
0.0
41
0.0
42
0.0
10
72.0131988525391
20
73.5664978027344
40
0.0
41
0.0
42
0.0
10
71.8578033447266
20
73.6082992553711
40
0.0
41
0.0
42
0.0
10
71.5160980224609
20
73.6411972045898
40
0.0
41
0.0
42
0.0
10
71.4003982543945
20
73.6729965209961
40
0.0
41
0.0
42
0.0
10
71.0152969360352
20
73.7387008666992
40
0.0
41
0.0
42
0.0
10
70.628303527832
20
73.8475036621094
40
0.0
41
0.0
42
0.0
10
70.5111999511719
20
73.8926010131836
40
0.0
41
0.0
42
0.0
10
70.4050979614258
20
73.9495010375977
40
0.0
41
0.0
42
0.0
10
70.2592010498047
20
74.0009994506836
40
0.0
41
0.0
42
0.0
10
70.0133972167969
20
74.1728973388672
40
0.0
41
0.0
42
0.0
10
69.9343032836914
20
74.2891006469727
40
0.0
41
0.0
42
0.0
10
69.9095993041992
20
74.311897277832
40
0.0
41
0.0
42
0.0
10
69.678596496582
20
74.5036010742188
40
0.0
41
0.0
42
0.0
10
69.8117980957031
20
74.8331985473633
40
0.0
41
0.0
42
0.0
10
69.8833999633789
20
74.9933013916016
40
0.0
41
0.0
42
0.0
210
0.0
220
0.0
230
1.0
0
LWPOLYLINE
5
27
330
1C
100
AcDbEntity
67
0
8
0
62
256
6
ByLayer
370
-1
48
1.0
60
0
100
AcDbPolyline
90
81
70
1
38
0.0
39
0.0
10
72.3406982421875
20
83.6396026611328
40
0.0
41
0.0
42
0.0
10
72.4643020629883
20
83.5543975830078
40
0.0
41
0.0
42
0.0
10
72.4970016479492
20
83.5143966674805
40
0.0
41
0.0
42
0.0
10
72.5100021362305
20
83.4935989379883
40
0.0
41
0.0
42
0.0
10
72.6237030029297
20
83.3923034667969
40
0.0
41
0.0
42
0.0
10
72.8377990722656
20
83.2083969116211
40
0.0
41
0.0
42
0.0
10
72.875602722168
20
83.1818008422852
40
0.0
41
0.0
42
0.0
10
72.9887008666992
20
83.1264038085938
40
0.0
41
0.0
42
0.0
10
73.102897644043
20
83.0771026611328
40
0.0
41
0.0
42
0.0
10
73.2026977539062
20
82.9965972900391
40
0.0
41
0.0
42
0.0
10
73.4860000610352
20
82.7917022705078
40
0.0
41
0.0
42
0.0
10
73.6026992797852
20
82.7617034912109
40
0.0
41
0.0
42
0.0
10
73.9860000610352
20
82.5494003295898
40
0.0
41
0.0
42
0.0
10
74.4559020996094
20
82.5192031860352
40
0.0
41
0.0
42
0.0
10
74.493896484375
20
82.5190963745117
40
0.0
41
0.0
42
0.0
10
74.5143966674805
20
82.5216979980469
40
0.0
41
0.0
42
0.0
10
74.7265014648438
20
82.6136016845703
40
0.0
41
0.0
42
0.0
10
74.8535995483398
20
82.6928024291992
40
0.0
41
0.0
42
0.0
10
75.0078964233398
20
82.7702026367188
40
0.0
41
0.0
42
0.0
10
75.2510986328125
20
82.9962997436523
40
0.0
41
0.0
42
0.0
10
75.4169006347656
20
83.1112976074219
40
0.0
41
0.0
42
0.0
10
75.504997253418
20
83.1942977905273
40
0.0
41
0.0
42
0.0
10
75.7851028442383
20
83.4951019287109
40
0.0
41
0.0
42
0.0
10
75.7951965332031
20
83.5037994384766
40
0.0
41
0.0
42
0.0
10
75.8891983032227
20
83.646598815918
40
0.0
41
0.0
42
0.0
10
76.0043029785156
20
83.7403030395508
40
0.0
41
0.0
42
0.0
10
76.168701171875
20
83.9832000732422
40
0.0
41
0.0
42
0.0
10
76.1809997558594
20
83.9921035766602
40
0.0
41
0.0
42
0.0
10
76.2470016479492
20
84.3515014648438
40
0.0
41
0.0
42
0.0
10
76.3613967895508
20
84.4876022338867
40
0.0
41
0.0
42
0.0
10
76.3612976074219
20
84.5168991088867
40
0.0
41
0.0
42
0.0
10
76.2640991210938
20
84.8494033813477
40
0.0
41
0.0
42
0.0
10
76.2834014892578
20
84.9814987182617
40
0.0
41
0.0
42
0.0
10
76.2834014892578
20
84.9990005493164
40
0.0
41
0.0
42
0.0
10
76.2499008178711
20
84.9990005493164
40
0.0
41
0.0
42
0.0
10
76.2358016967773
20
84.9033966064453
40
0.0
41
0.0
42
0.0
10
76.2358016967773
20
84.8678970336914
40
0.0
41
0.0
42
0.0
10
76.3421020507812
20
84.5046997070312
40
0.0
41
0.0
42
0.0
10
76.2485961914062
20
84.3936004638672
40
0.0
41
0.0
42
0.0
10
76.2322006225586
20
84.3584976196289
40
0.0
41
0.0
42
0.0
10
76.1679000854492
20
84.0077972412109
40
0.0
41
0.0
42
0.0
10
76.1420974731445
20
83.989501953125
40
0.0
41
0.0
42
0.0
10
75.9955978393555
20
83.7727966308594
40
0.0
41
0.0
42
0.0
10
75.8406982421875
20
83.6466979980469
40
0.0
41
0.0
42
0.0
10
75.7567977905273
20
83.5190963745117
40
0.0
41
0.0
42
0.0
10
75.7399978637695
20
83.5046997070312
40
0.0
41
0.0
42
0.0
10
75.4949035644531
20
83.2414016723633
40
0.0
41
0.0
42
0.0
10
75.4069976806641
20
83.1585998535156
40
0.0
41
0.0
42
0.0
10
75.1832962036133
20
83.0036010742188
40
0.0
41
0.0
42
0.0
10
74.9921035766602
20
82.8256988525391
40
0.0
41
0.0
42
0.0
10
74.8687973022461
20
82.7637023925781
40
0.0
41
0.0
42
0.0
10
74.6961975097656
20
82.6563034057617
40
0.0
41
0.0
42
0.0
10
74.5073013305664
20
82.5752029418945
40
0.0
41
0.0
42
0.0
10
74.486701965332
20
82.5635986328125
40
0.0
41
0.0
42
0.0
10
74.4198989868164
20
82.5550994873047
40
0.0
41
0.0
42
0.0
10
74.0139007568359
20
82.5813980102539
40
0.0
41
0.0
42
0.0
10
73.6670989990234
20
82.7734985351562
40
0.0
41
0.0
42
0.0
10
73.5066986083984
20
82.8144989013672
40
0.0
41
0.0
42
0.0
10
73.2460021972656
20
83.0031967163086
40
0.0
41
0.0
42
0.0
10
73.1598968505859
20
83.0727005004883
40
0.0
41
0.0
42
0.0
10
73.011100769043
20
83.1368026733398
40
0.0
41
0.0
42
0.0
10
72.8701019287109
20
83.2058029174805
40
0.0
41
0.0
42
0.0
10
72.7315979003906
20
83.3247985839844
40
0.0
41
0.0
42
0.0
10
72.5279006958008
20
83.5062026977539
40
0.0
41
0.0
42
0.0
10
72.502799987793
20
83.5462036132812
40
0.0
41
0.0
42
0.0
10
72.4832992553711
20
83.5700988769531
40
0.0
41
0.0
42
0.0
10
72.3890991210938
20
83.6350021362305
40
0.0
41
0.0
42
0.0
10
72.2016983032227
20
83.9555969238281
40
0.0
41
0.0
42
0.0
10
72.1455993652344
20
84.0095977783203
40
0.0
41
0.0
42
0.0
10
72.0920028686523
20
84.3375015258789
40
0.0
41
0.0
42
0.0
10
72.0876007080078
20
84.4866027832031
40
0.0
41
0.0
42
0.0
10
72.1343994140625
20
84.7087020874023
40
0.0
41
0.0
42
0.0
10
72.2272033691406
20
84.9833984375
40
0.0
41
0.0
42
0.0
10
72.2272033691406
20
84.9990005493164
40
0.0
41
0.0
42
0.0
10
72.1591033935547
20
84.9990005493164
40
0.0
41
0.0
42
0.0
10
72.0970993041992
20
84.815299987793
40
0.0
41
0.0
42
0.0
10
72.0345001220703
20
84.5179977416992
40
0.0
41
0.0
42
0.0
10
72.0363998413086
20
84.4128036499023
40
0.0
41
0.0
42
0.0
10
72.105598449707
20
83.9901962280273
40
0.0
41
0.0
42
0.0
10
72.1744003295898
20
83.9241027832031
40
0.0
41
0.0
42
0.0
10
72.3406982421875
20
83.6396026611328
40
0.0
41
0.0
42
0.0
210
0.0
220
0.0
230
1.0
0
LWPOLYLINE
5
28
330
1C
100
AcDbEntity
67
0
8
0
62
256
6
ByLayer
370
-1
48
1.0
60
0
100
AcDbPolyline
90
10
70
1
38
0.0
39
0.0
10
72.9527969360352
20
74.0045013427734
40
0.0
41
0.0
42
0.0
10
72.9527969360352
20
73.9940032958984
40
0.0
41
0.0
42
0.0
10
72.9841003417969
20
73.9813995361328
40
0.0
41
0.0
42
0.0
10
73.0180969238281
20
73.9813003540039
40
0.0
41
0.0
42
0.0
10
73.111701965332
20
73.9975967407227
40
0.0
41
0.0
42
0.0
10
73.1116027832031
20
74.0137023925781
40
0.0
41
0.0
42
0.0
10
73.1029968261719
20
74.0271987915039
40
0.0
41
0.0
42
0.0
10
73.0758972167969
20
74.027099609375
40
0.0
41
0.0
42
0.0
10
72.9845962524414
20
74.0145034790039
40
0.0
41
0.0
42
0.0
10
72.9527969360352
20
74.0045013427734
40
0.0
41
0.0
42
0.0
210
0.0
220
0.0
230
1.0
0
LWPOLYLINE
5
29
330
1C
100
AcDbEntity
67
0
8
0
62
256
6
ByLayer
370
-1
48
1.0
60
0
100
AcDbPolyline
90
25
70
1
38
0.0
39
0.0
10
73.4825973510742
20
75.3723983764648
40
0.0
41
0.0
42
0.0
10
73.5193023681641
20
75.3722991943359
40
0.0
41
0.0
42
0.0
10
73.9011993408203
20
75.3958969116211
40
0.0
41
0.0
42
0.0
10
74.0096969604492
20
75.4292984008789
40
0.0
41
0.0
42
0.0
10
74.0913009643555
20
75.4971008300781
40
0.0
41
0.0
42
0.0
10
74.2658004760742
20
75.60009765625
40
0.0
41
0.0
42
0.0
10
74.5067977905273
20
75.728401184082
40
0.0
41
0.0
42
0.0
10
74.7373962402344
20
75.9878997802734
40
0.0
41
0.0
42
0.0
10
74.7372970581055
20
76.0143966674805
40
0.0
41
0.0
42
0.0
10
74.5335006713867
20
76.3734970092773
40
0.0
41
0.0
42
0.0
10
74.5087966918945
20
76.4065017700195
40
0.0
41
0.0
42
0.0
10
74.1156005859375
20
76.4374008178711
40
0.0
41
0.0
42
0.0
10
74.0882034301758
20
76.4374008178711
40
0.0
41
0.0
42
0.0
10
74.0762023925781
20
76.4176025390625
40
0.0
41
0.0
42
0.0
10
74.0761032104492
20
76.3889007568359
40
0.0
41
0.0
42
0.0
10
74.2911987304688
20
76.0007019042969
40
0.0
41
0.0
42
0.0
10
74.1362991333008
20
75.7642974853516
40
0.0
41
0.0
42
0.0
10
73.9947967529297
20
75.5586013793945
40
0.0
41
0.0
42
0.0
10
73.9011993408203
20
75.5810012817383
40
0.0
41
0.0
42
0.0
10
73.5186996459961
20
75.628303527832
40
0.0
41
0.0
42
0.0
10
73.481201171875
20
75.6281967163086
40
0.0
41
0.0
42
0.0
10
73.1029968261719
20
75.5817031860352
40
0.0
41
0.0
42
0.0
10
73.0058975219727
20
75.5093994140625
40
0.0
41
0.0
42
0.0
10
73.0057983398438
20
75.4961013793945
40
0.0
41
0.0
42
0.0
10
73.4825973510742
20
75.3723983764648
40
0.0
41
0.0
42
0.0
210
0.0
220
0.0
230
1.0
0
LWPOLYLINE
5
2A
330
1C
100
AcDbEntity
67
0
8
0
62
256
6
ByLayer
370
-1
48
1.0
60
0
100
AcDbPolyline
90
22
70
1
38
0.0
39
0.0
10
73.1669006347656
20
75.5736999511719
40
0.0
41
0.0
42
0.0
10
73.5
20
75.6147003173828
40
0.0
41
0.0
42
0.0
10
73.8286972045898
20
75.5740966796875
40
0.0
41
0.0
42
0.0
10
73.9823989868164
20
75.5371017456055
40
0.0
41
0.0
42
0.0
10
74.008903503418
20
75.5372009277344
40
0.0
41
0.0
42
0.0
10
74.0953979492188
20
75.6630020141602
40
0.0
41
0.0
42
0.0
10
74.3070983886719
20
75.986198425293
40
0.0
41
0.0
42
0.0
10
74.3070983886719
20
76.0145034790039
40
0.0
41
0.0
42
0.0
10
74.1151962280273
20
76.3610992431641
40
0.0
41
0.0
42
0.0
10
74.1452026367188
20
76.4105987548828
40
0.0
41
0.0
42
0.0
10
74.4909973144531
20
76.3833999633789
40
0.0
41
0.0
42
0.0
10
74.5394973754883
20
76.318603515625
40
0.0
41
0.0
42
0.0
10
74.7197036743164
20
76.0012969970703
40
0.0
41
0.0
42
0.0
10
74.4932022094727
20
75.7462997436523
40
0.0
41
0.0
42
0.0
10
74.1613998413086
20
75.5698013305664
40
0.0
41
0.0
42
0.0
10
74.0478973388672
20
75.5027008056641
40
0.0
41
0.0
42
0.0
10
73.9901962280273
20
75.4545974731445
40
0.0
41
0.0
42
0.0
10
73.8286972045898
20
75.4049987792969
40
0.0
41
0.0
42
0.0
10
73.5102005004883
20
75.3852996826172
40
0.0
41
0.0
42
0.0
10
73.0749969482422
20
75.4982986450195
40
0.0
41
0.0
42
0.0
10
73.0737991333008
20
75.5045013427734
40
0.0
41
0.0
42
0.0
10
73.1669006347656
20
75.5736999511719
40
0.0
41
0.0
42
0.0
210
0.0
220
0.0
230
1.0
0
LWPOLYLINE
5
2B
330
1C
100
AcDbEntity
67
0
8
0
62
256
6
ByLayer
370
-1
48
1.0
60
0
100
AcDbPolyline
90
78
70
1
38
0.0
39
0.0
10
73.7639999389648
20
65.0964965820312
40
0.0
41
0.0
42
0.0
10
73.7639007568359
20
65.1318969726562
40
0.0
41
0.0
42
0.0
10
73.6552963256836
20
65.5034027099609
40
0.0
41
0.0
42
0.0
10
73.7201995849609
20
65.8569030761719
40
0.0
41
0.0
42
0.0
10
73.8367004394531
20
65.9954986572266
40
0.0
41
0.0
42
0.0
10
73.8576965332031
20
66.0103988647461
40
0.0
41
0.0
42
0.0
10
74.0043029785156
20
66.2269973754883
40
0.0
41
0.0
42
0.0
10
74.1592025756836
20
66.3531036376953
40
0.0
41
0.0
42
0.0
10
74.2428970336914
20
66.480598449707
40
0.0
41
0.0
42
0.0
10
74.2598037719727
20
66.4951019287109
40
0.0
41
0.0
42
0.0
10
74.504997253418
20
66.7583999633789
40
0.0
41
0.0
42
0.0
10
74.5927963256836
20
66.8413009643555
40
0.0
41
0.0
42
0.0
10
74.8164978027344
20
66.9962997436523
40
0.0
41
0.0
42
0.0
10
75.0067977905273
20
67.1731033325195
40
0.0
41
0.0
42
0.0
10
75.1265029907227
20
67.2545013427734
40
0.0
41
0.0
42
0.0
10
75.303596496582
20
67.3434982299805
40
0.0
41
0.0
42
0.0
10
75.3420028686523
20
67.3649978637695
40
0.0
41
0.0
42
0.0
10
75.5145034790039
20
67.4363021850586
40
0.0
41
0.0
42
0.0
10
75.5799026489258
20
67.4446029663086
40
0.0
41
0.0
42
0.0
10
75.9860000610352
20
67.4182968139648
40
0.0
41
0.0
42
0.0
10
76.3328018188477
20
67.2261962890625
40
0.0
41
0.0
42
0.0
10
76.4929962158203
20
67.1852035522461
40
0.0
41
0.0
42
0.0
10
76.7537994384766
20
66.9965972900391
40
0.0
41
0.0
42
0.0
10
76.8398971557617
20
66.927001953125
40
0.0
41
0.0
42
0.0
10
76.9887008666992
20
66.8628997802734
40
0.0
41
0.0
42
0.0
10
77.1297988891602
20
66.7938995361328
40
0.0
41
0.0
42
0.0
10
77.2680969238281
20
66.6748962402344
40
0.0
41
0.0
42
0.0
10
77.4718017578125
20
66.4935989379883
40
0.0
41
0.0
42
0.0
10
77.4964981079102
20
66.4542999267578
40
0.0
41
0.0
42
0.0
10
77.7151031494141
20
66.2260971069336
40
0.0
41
0.0
42
0.0
10
77.8546981811523
20
65.9871978759766
40
0.0
41
0.0
42
0.0
10
77.9076995849609
20
65.6622009277344
40
0.0
41
0.0
42
0.0
10
77.9121017456055
20
65.513298034668
40
0.0
41
0.0
42
0.0
10
77.8654022216797
20
65.2910995483398
40
0.0
41
0.0
42
0.0
10
77.7726974487305
20
65.0165023803711
40
0.0
41
0.0
42
0.0
10
77.7726974487305
20
65.0009994506836
40
0.0
41
0.0
42
0.0
10
77.8406982421875
20
65.0009002685547
40
0.0
41
0.0
42
0.0
10
77.9026031494141
20
65.1845016479492
40
0.0
41
0.0
42
0.0
10
77.9653015136719
20
65.4819030761719
40
0.0
41
0.0
42
0.0
10
77.9633026123047
20
65.5868988037109
40
0.0
41
0.0
42
0.0
10
77.8936004638672
20
66.0127029418945
40
0.0
41
0.0
42
0.0
10
77.7972030639648
20
66.1776962280273
40
0.0
41
0.0
42
0.0
10
77.503303527832
20
66.4847030639648
40
0.0
41
0.0
42
0.0
10
77.4897003173828
20
66.5062026977539
40
0.0
41
0.0
42
0.0
10
77.3759994506836
20
66.6073989868164
40
0.0
41
0.0
42
0.0
10
77.1620025634766
20
66.7912979125977
40
0.0
41
0.0
42
0.0
10
77.1241989135742
20
66.8179016113281
40
0.0
41
0.0
42
0.0
10
77.011100769043
20
66.8732986450195
40
0.0
41
0.0
42
0.0
10
76.8968963623047
20
66.9225997924805
40
0.0
41
0.0
42
0.0
10
76.7969970703125
20
67.0031967163086
40
0.0
41
0.0
42
0.0
10
76.5137023925781
20
67.2080001831055
40
0.0
41
0.0
42
0.0
10
76.397102355957
20
67.2378997802734
40
0.0
41
0.0
42
0.0
10
76.0139007568359
20
67.4503021240234
40
0.0
41
0.0
42
0.0
10
75.5438995361328
20
67.4806976318359
40
0.0
41
0.0
42
0.0
10
75.5058975219727
20
67.480598449707
40
0.0
41
0.0
42
0.0
10
75.4853973388672
20
67.4779968261719
40
0.0
41
0.0
42
0.0
10
75.3006973266602
20
67.4016036987305
40
0.0
41
0.0
42
0.0
10
75.2733993530273
20
67.3863983154297
40
0.0
41
0.0
42
0.0
10
75.0775985717773
20
67.2880020141602
40
0.0
41
0.0
42
0.0
10
74.9929962158203
20
67.2304992675781
40
0.0
41
0.0
42
0.0
10
74.7487030029297
20
67.0035018920898
40
0.0
41
0.0
42
0.0
10
74.5829010009766
20
66.8886032104492
40
0.0
41
0.0
42
0.0
10
74.4949035644531
20
66.8056030273438
40
0.0
41
0.0
42
0.0
10
74.2147979736328
20
66.5046997070312
40
0.0
41
0.0
42
0.0
10
74.2045974731445
20
66.4961013793945
40
0.0
41
0.0
42
0.0
10
74.1107025146484
20
66.3532028198242
40
0.0
41
0.0
42
0.0
10
73.9955978393555
20
66.2595977783203
40
0.0
41
0.0
42
0.0
10
73.8311004638672
20
66.0165023803711
40
0.0
41
0.0
42
0.0
10
73.8140029907227
20
66.0044021606445
40
0.0
41
0.0
42
0.0
10
73.7202987670898
20
65.8929977416992
40
0.0
41
0.0
42
0.0
10
73.7005996704102
20
65.8578033447266
40
0.0
41
0.0
42
0.0
10
73.6384963989258
20
65.5179977416992
40
0.0
41
0.0
42
0.0
10
73.6383972167969
20
65.4829025268555
40
0.0
41
0.0
42
0.0
10
73.7356033325195
20
65.1502990722656
40
0.0
41
0.0
42
0.0
10
73.7164993286133
20
65.0184020996094
40
0.0
41
0.0
42
0.0
10
73.7164993286133
20
65.0009994506836
40
0.0
41
0.0
42
0.0
10
73.7498016357422
20
65.0009994506836
40
0.0
41
0.0
42
0.0
10
73.7639999389648
20
65.0964965820312
40
0.0
41
0.0
42
0.0
210
0.0
220
0.0
230
1.0
0
LWPOLYLINE
5
2C
330
1C
100
AcDbEntity
67
0
8
0
62
256
6
ByLayer
370
-1
48
1.0
60
0
100
AcDbPolyline
90
25
70
1
38
0.0
39
0.0
10
73.5623016357422
20
74.1155014038086
40
0.0
41
0.0
42
0.0
10
73.5624008178711
20
74.0882034301758
40
0.0
41
0.0
42
0.0
10
73.5821990966797
20
74.0762023925781
40
0.0
41
0.0
42
0.0
10
73.6109008789062
20
74.0761032104492
40
0.0
41
0.0
42
0.0
10
73.9991989135742
20
74.2910995483398
40
0.0
41
0.0
42
0.0
10
74.2354965209961
20
74.1361999511719
40
0.0
41
0.0
42
0.0
10
74.4411010742188
20
73.9947967529297
40
0.0
41
0.0
42
0.0
10
74.418701171875
20
73.9011993408203
40
0.0
41
0.0
42
0.0
10
74.3715972900391
20
73.5186996459961
40
0.0
41
0.0
42
0.0
10
74.3714981079102
20
73.481201171875
40
0.0
41
0.0
42
0.0
10
74.418098449707
20
73.1029968261719
40
0.0
41
0.0
42
0.0
10
74.4905014038086
20
73.0058975219727
40
0.0
41
0.0
42
0.0
10
74.5037002563477
20
73.0058975219727
40
0.0
41
0.0
42
0.0
10
74.6275024414062
20
73.4825973510742
40
0.0
41
0.0
42
0.0
10
74.6274032592773
20
73.5193023681641
40
0.0
41
0.0
42
0.0
10
74.6037979125977
20
73.9011993408203
40
0.0
41
0.0
42
0.0
10
74.5703964233398
20
74.0096969604492
40
0.0
41
0.0
42
0.0
10
74.5027008056641
20
74.0912017822266
40
0.0
41
0.0
42
0.0
10
74.3996963500977
20
74.2657012939453
40
0.0
41
0.0
42
0.0
10
74.2714996337891
20
74.5066986083984
40
0.0
41
0.0
42
0.0
10
74.0120010375977
20
74.7373962402344
40
0.0
41
0.0
42
0.0
10
73.9854965209961
20
74.7373962402344
40
0.0
41
0.0
42
0.0
10
73.6262969970703
20
74.5335006713867
40
0.0
41
0.0
42
0.0
10
73.5932006835938
20
74.5087966918945
40
0.0
41
0.0
42
0.0
10
73.5623016357422
20
74.1155014038086
40
0.0
41
0.0
42
0.0
210
0.0
220
0.0
230
1.0
0
LWPOLYLINE
5
2D
330
1C
100
AcDbEntity
67
0
8
0
62
256
6
ByLayer
370
-1
48
1.0
60
0
100
AcDbPolyline
90
22
70
1
38
0.0
39
0.0
10
73.6164016723633
20
74.491096496582
40
0.0
41
0.0
42
0.0
10
73.6812973022461
20
74.5394973754883
40
0.0
41
0.0
42
0.0
10
73.9984970092773
20
74.719596862793
40
0.0
41
0.0
42
0.0
10
74.2535018920898
20
74.4931030273438
40
0.0
41
0.0
42
0.0
10
74.4300994873047
20
74.1613998413086
40
0.0
41
0.0
42
0.0
10
74.4971008300781
20
74.0477981567383
40
0.0
41
0.0
42
0.0
10
74.5450973510742
20
73.9900970458984
40
0.0
41
0.0
42
0.0
10
74.5947036743164
20
73.8286972045898
40
0.0
41
0.0
42
0.0
10
74.6144027709961
20
73.5102005004883
40
0.0
41
0.0
42
0.0
10
74.5016021728516
20
73.0749969482422
40
0.0
41
0.0
42
0.0
10
74.4953994750977
20
73.0737991333008
40
0.0
41
0.0
42
0.0
10
74.4260025024414
20
73.1668014526367
40
0.0
41
0.0
42
0.0
10
74.3850021362305
20
73.5
40
0.0
41
0.0
42
0.0
10
74.4255981445312
20
73.8286972045898
40
0.0
41
0.0
42
0.0
10
74.4626998901367
20
73.9823989868164
40
0.0
41
0.0
42
0.0
10
74.4626007080078
20
74.008903503418
40
0.0
41
0.0
42
0.0
10
74.336799621582
20
74.0952987670898
40
0.0
41
0.0
42
0.0
10
74.0137023925781
20
74.3070983886719
40
0.0
41
0.0
42
0.0
10
73.9852981567383
20
74.3070983886719
40
0.0
41
0.0
42
0.0
10
73.6387023925781
20
74.1150970458984
40
0.0
41
0.0
42
0.0
10
73.5891036987305
20
74.1452026367188
40
0.0
41
0.0
42
0.0
10
73.6164016723633
20
74.491096496582
40
0.0
41
0.0
42
0.0
210
0.0
220
0.0
230
1.0
0
LWPOLYLINE
5
2E
330
1C
100
AcDbEntity
67
0
8
0
62
256
6
ByLayer
370
-1
48
1.0
60
0
100
AcDbPolyline
90
10
70
1
38
0.0
39
0.0
10
73.9975967407227
20
76.8881988525391
40
0.0
41
0.0
42
0.0
10
74.013801574707
20
76.8880996704102
40
0.0
41
0.0
42
0.0
10
74.0271987915039
20
76.8967971801758
40
0.0
41
0.0
42
0.0
10
74.0270004272461
20
76.9240036010742
40
0.0
41
0.0
42
0.0
10
74.0143966674805
20
77.0152969360352
40
0.0
41
0.0
42
0.0
10
74.0045013427734
20
77.0469970703125
40
0.0
41
0.0
42
0.0
10
73.9940032958984
20
77.0469970703125
40
0.0
41
0.0
42
0.0
10
73.9813995361328
20
77.0158004760742
40
0.0
41
0.0
42
0.0
10
73.981201171875
20
76.9817962646484
40
0.0
41
0.0
42
0.0
10
73.9975967407227
20
76.8881988525391
40
0.0
41
0.0
42
0.0
210
0.0
220
0.0
230
1.0
0
LWPOLYLINE
5
2F
330
1C
100
AcDbEntity
67
0
8
0
62
256
6
ByLayer
370
-1
48
1.0
60
0
100
AcDbPolyline
90
9
70
1
38
0.0
39
0.0
10
74.6539001464844
20
74.9886016845703
40
0.0
41
0.0
42
0.0
10
74.9886016845703
20
74.6539993286133
40
0.0
41
0.0
42
0.0
10
75.0111999511719
20
74.6539993286133
40
0.0
41
0.0
42
0.0
10
75.3459014892578
20
74.9886016845703
40
0.0
41
0.0
42
0.0
10
75.3458023071289
20
75.0111999511719
40
0.0
41
0.0
42
0.0
10
75.0112991333008
20
75.3459014892578
40
0.0
41
0.0
42
0.0
10
74.9886016845703
20
75.3458023071289
40
0.0
41
0.0
42
0.0
10
74.6539993286133
20
75.0111999511719
40
0.0
41
0.0
42
0.0
10
74.6539001464844
20
74.9886016845703
40
0.0
41
0.0
42
0.0
210
0.0
220
0.0
230
1.0
0
LWPOLYLINE
5
30
330
1C
100
AcDbEntity
67
0
8
0
62
256
6
ByLayer
370
-1
48
1.0
60
0
100
AcDbPolyline
90
5
70
1
38
0.0
39
0.0
10
75.0
20
75.3296966552734
40
0.0
41
0.0
42
0.0
10
75.3298034667969
20
75.0
40
0.0
41
0.0
42
0.0
10
75.0
20
74.6697998046875
40
0.0
41
0.0
42
0.0
10
74.6699981689453
20
75.0
40
0.0
41
0.0
42
0.0
10
75.0
20
75.3296966552734
40
0.0
41
0.0
42
0.0
210
0.0
220
0.0
230
1.0
0
LWPOLYLINE
5
31
330
1C
100
AcDbEntity
67
0
8
0
62
256
6
ByLayer
370
-1
48
1.0
60
0
100
AcDbPolyline
90
25
70
1
38
0.0
39
0.0
10
75.2624969482422
20
74.0120010375977
40
0.0
41
0.0
42
0.0
10
75.2623977661133
20
73.9854965209961
40
0.0
41
0.0
42
0.0
10
75.4662017822266
20
73.6261978149414
40
0.0
41
0.0
42
0.0
10
75.4909973144531
20
73.5932006835938
40
0.0
41
0.0
42
0.0
10
75.8843002319336
20
73.5623016357422
40
0.0
41
0.0
42
0.0
10
75.9115982055664
20
73.5625
40
0.0
41
0.0
42
0.0
10
75.923698425293
20
73.5821990966797
40
0.0
41
0.0
42
0.0
10
75.9235992431641
20
73.6109008789062
40
0.0
41
0.0
42
0.0
10
75.7086029052734
20
73.9991989135742
40
0.0
41
0.0
42
0.0
10
75.8635025024414
20
74.2356033325195
40
0.0
41
0.0
42
0.0
10
76.0050964355469
20
74.4411010742188
40
0.0
41
0.0
42
0.0
10
76.0987014770508
20
74.418701171875
40
0.0
41
0.0
42
0.0
10
76.481201171875
20
74.3715972900391
40
0.0
41
0.0
42
0.0
10
76.5186996459961
20
74.3714981079102
40
0.0
41
0.0
42
0.0
10
76.8968963623047
20
74.418098449707
40
0.0
41
0.0
42
0.0
10
76.9940032958984
20
74.4905014038086
40
0.0
41
0.0
42
0.0
10
76.993896484375
20
74.5036010742188
40
0.0
41
0.0
42
0.0
10
76.5173034667969
20
74.6275024414062
40
0.0
41
0.0
42
0.0
10
76.480598449707
20
74.6274032592773
40
0.0
41
0.0
42
0.0
10
76.0987014770508
20
74.6037979125977
40
0.0
41
0.0
42
0.0
10
75.9901962280273
20
74.5705032348633
40
0.0
41
0.0
42
0.0
10
75.9086990356445
20
74.5027008056641
40
0.0
41
0.0
42
0.0
10
75.734001159668
20
74.3996963500977
40
0.0
41
0.0
42
0.0
10
75.4931030273438
20
74.2714996337891
40
0.0
41
0.0
42
0.0
10
75.2624969482422
20
74.0120010375977
40
0.0
41
0.0
42
0.0
210
0.0
220
0.0
230
1.0
0
LWPOLYLINE
5
32
330
1C
100
AcDbEntity
67
0
8
0
62
256
6
ByLayer
370
-1
48
1.0
60
0
100
AcDbPolyline
90
23
70
1
38
0.0
39
0.0
10
75.3183975219727
20
74.0428009033203
40
0.0
41
0.0
42
0.0
10
75.5067977905273
20
74.2535018920898
40
0.0
41
0.0
42
0.0
10
75.8384017944336
20
74.4300994873047
40
0.0
41
0.0
42
0.0
10
75.9520034790039
20
74.497200012207
40
0.0
41
0.0
42
0.0
10
76.0098037719727
20
74.5450973510742
40
0.0
41
0.0
42
0.0
10
76.1685028076172
20
74.5939025878906
40
0.0
41
0.0
42
0.0
10
76.4897003173828
20
74.6144027709961
40
0.0
41
0.0
42
0.0
10
76.9248962402344
20
74.5016021728516
40
0.0
41
0.0
42
0.0
10
76.9261016845703
20
74.4953994750977
40
0.0
41
0.0
42
0.0
10
76.8330993652344
20
74.4260025024414
40
0.0
41
0.0
42
0.0
10
76.4999008178711
20
74.3850021362305
40
0.0
41
0.0
42
0.0
10
76.1712036132812
20
74.4255981445312
40
0.0
41
0.0
42
0.0
10
76.0175018310547
20
74.4626998901367
40
0.0
41
0.0
42
0.0
10
75.9909973144531
20
74.4626998901367
40
0.0
41
0.0
42
0.0
10
75.9044036865234
20
74.336799621582
40
0.0
41
0.0
42
0.0
10
75.6928024291992
20
74.0137023925781
40
0.0
41
0.0
42
0.0
10
75.6927032470703
20
73.9852981567383
40
0.0
41
0.0
42
0.0
10
75.8845977783203
20
73.6387023925781
40
0.0
41
0.0
42
0.0
10
75.8545989990234
20
73.5891036987305
40
0.0
41
0.0
42
0.0
10
75.5087966918945
20
73.6163024902344
40
0.0
41
0.0
42
0.0
10
75.4601974487305
20
73.6811981201172
40
0.0
41
0.0
42
0.0
10
75.2801971435547
20
73.9982986450195
40
0.0
41
0.0
42
0.0
10
75.3183975219727
20
74.0428009033203
40
0.0
41
0.0
42
0.0
210
0.0
220
0.0
230
1.0
0
LWPOLYLINE
5
33
330
1C
100
AcDbEntity
67
0
8
0
62
256
6
ByLayer
370
-1
48
1.0
60
0
100
AcDbPolyline
90
25
70
1
38
0.0
39
0.0
10
75.3958969116211
20
76.0987014770508
40
0.0
41
0.0
42
0.0
10
75.42919921875
20
75.9900970458984
40
0.0
41
0.0
42
0.0
10
75.4971008300781
20
75.9085998535156
40
0.0
41
0.0
42
0.0
10
75.5999984741211
20
75.734001159668
40
0.0
41
0.0
42
0.0
10
75.7283020019531
20
75.4931030273438
40
0.0
41
0.0
42
0.0
10
75.9878997802734
20
75.2624969482422
40
0.0
41
0.0
42
0.0
10
76.0143966674805
20
75.2623977661133
40
0.0
41
0.0
42
0.0
10
76.3734970092773
20
75.4662017822266
40
0.0
41
0.0
42
0.0
10
76.4065017700195
20
75.491096496582
40
0.0
41
0.0
42
0.0
10
76.4374008178711
20
75.8843002319336
40
0.0
41
0.0
42
0.0
10
76.4373016357422
20
75.9115982055664
40
0.0
41
0.0
42
0.0
10
76.4176025390625
20
75.923698425293
40
0.0
41
0.0
42
0.0
10
76.3889007568359
20
75.923698425293
40
0.0
41
0.0
42
0.0
10
76.0007019042969
20
75.7085037231445
40
0.0
41
0.0
42
0.0
10
75.7641983032227
20
75.8635025024414
40
0.0
41
0.0
42
0.0
10
75.5586013793945
20
76.0050964355469
40
0.0
41
0.0
42
0.0
10
75.5810012817383
20
76.0987014770508
40
0.0
41
0.0
42
0.0
10
75.628303527832
20
76.481201171875
40
0.0
41
0.0
42
0.0
10
75.6281967163086
20
76.5186996459961
40
0.0
41
0.0
42
0.0
10
75.5815963745117
20
76.8967971801758
40
0.0
41
0.0
42
0.0
10
75.5093994140625
20
76.9940032958984
40
0.0
41
0.0
42
0.0
10
75.4962005615234
20
76.9940032958984
40
0.0
41
0.0
42
0.0
10
75.3723983764648
20
76.5173034667969
40
0.0
41
0.0
42
0.0
10
75.3722991943359
20
76.480598449707
40
0.0
41
0.0
42
0.0
10
75.3958969116211
20
76.0987014770508
40
0.0
41
0.0
42
0.0
210
0.0
220
0.0
230
1.0
0
LWPOLYLINE
5
34
330
1C
100
AcDbEntity
67
0
8
0
62
256
6
ByLayer
370
-1
48
1.0
60
0
100
AcDbPolyline
90
22
70
1
38
0.0
39
0.0
10
75.3852996826172
20
76.4897003173828
40
0.0
41
0.0
42
0.0
10
75.4982986450195
20
76.9248962402344
40
0.0
41
0.0
42
0.0
10
75.5045013427734
20
76.9261016845703
40
0.0
41
0.0
42
0.0
10
75.5736999511719
20
76.8330001831055
40
0.0
41
0.0
42
0.0
10
75.6147003173828
20
76.4999008178711
40
0.0
41
0.0
42
0.0
10
75.5740966796875
20
76.1712036132812
40
0.0
41
0.0
42
0.0
10
75.5371017456055
20
76.0175018310547
40
0.0
41
0.0
42
0.0
10
75.5371017456055
20
75.9909973144531
40
0.0
41
0.0
42
0.0
10
75.6629028320312
20
75.904296875
40
0.0
41
0.0
42
0.0
10
75.986198425293
20
75.6928024291992
40
0.0
41
0.0
42
0.0
10
76.0145034790039
20
75.6927032470703
40
0.0
41
0.0
42
0.0
10
76.3610992431641
20
75.8844985961914
40
0.0
41
0.0
42
0.0
10
76.4105987548828
20
75.8545989990234
40
0.0
41
0.0
42
0.0
10
76.3833999633789
20
75.5087966918945
40
0.0
41
0.0
42
0.0
10
76.3187026977539
20
75.4602966308594
40
0.0
41
0.0
42
0.0
10
76.0012969970703
20
75.2799987792969
40
0.0
41
0.0
42
0.0
10
75.7462005615234
20
75.5066986083984
40
0.0
41
0.0
42
0.0
10
75.5697021484375
20
75.8384017944336
40
0.0
41
0.0
42
0.0
10
75.5027008056641
20
75.9520034790039
40
0.0
41
0.0
42
0.0
10
75.4545974731445
20
76.0096969604492
40
0.0
41
0.0
42
0.0
10
75.4049987792969
20
76.1712036132812
40
0.0
41
0.0
42
0.0
10
75.3852996826172
20
76.4897003173828
40
0.0
41
0.0
42
0.0
210
0.0
220
0.0
230
1.0
0
LWPOLYLINE
5
35
330
1C
100
AcDbEntity
67
0
8
0
62
256
6
ByLayer
370
-1
48
1.0
60
0
100
AcDbPolyline
90
10
70
1
38
0.0
39
0.0
10
75.9727020263672
20
73.1029968261719
40
0.0
41
0.0
42
0.0
10
75.9727020263672
20
73.0758972167969
40
0.0
41
0.0
42
0.0
10
75.9853973388672
20
72.9845962524414
40
0.0
41
0.0
42
0.0
10
75.9953994750977
20
72.9529037475586
40
0.0
41
0.0
42
0.0
10
76.0057983398438
20
72.9529037475586
40
0.0
41
0.0
42
0.0
10
76.0185012817383
20
72.984001159668
40
0.0
41
0.0
42
0.0
10
76.0184020996094
20
73.0180969238281
40
0.0
41
0.0
42
0.0
10
76.0022964477539
20
73.111701965332
40
0.0
41
0.0
42
0.0
10
75.9860992431641
20
73.111701965332
40
0.0
41
0.0
42
0.0
10
75.9727020263672
20
73.1029968261719
40
0.0
41
0.0
42
0.0
210
0.0
220
0.0
230
1.0
0
LWPOLYLINE
5
36
330
1C
100
AcDbEntity
67
0
8
0
62
256
6
ByLayer
370
-1
48
1.0
60
0
100
AcDbPolyline
90
10
70
1
38
0.0
39
0.0
10
76.8880996704102
20
76.0022964477539
40
0.0
41
0.0
42
0.0
10
76.8880996704102
20
75.9860992431641
40
0.0
41
0.0
42
0.0
10
76.8966979980469
20
75.9726028442383
40
0.0
41
0.0
42
0.0
10
76.9240036010742
20
75.9727020263672
40
0.0
41
0.0
42
0.0
10
77.0152969360352
20
75.9853973388672
40
0.0
41
0.0
42
0.0
10
77.0469970703125
20
75.9953994750977
40
0.0
41
0.0
42
0.0
10
77.0468978881836
20
76.0057983398438
40
0.0
41
0.0
42
0.0
10
77.0158004760742
20
76.0185012817383
40
0.0
41
0.0
42
0.0
10
76.9817962646484
20
76.0185012817383
40
0.0
41
0.0
42
0.0
10
76.8880996704102
20
76.0022964477539
40
0.0
41
0.0
42
0.0
210
0.0
220
0.0
230
1.0
0
LWPOLYLINE
5
37
330
1C
100
AcDbEntity
67
0
8
0
62
256
6
ByLayer
370
-1
48
1.0
60
0
100
AcDbPolyline
90
132
70
1
38
0.0
39
0.0
10
79.3093032836914
20
82.8361968994141
40
0.0
41
0.0
42
0.0
10
79.2872009277344
20
82.5192031860352
40
0.0
41
0.0
42
0.0
10
79.2871017456055
20
82.4835968017578
40
0.0
41
0.0
42
0.0
10
79.3277969360352
20
82.369499206543
40
0.0
41
0.0
42
0.0
10
79.3646011352539
20
81.9826965332031
40
0.0
41
0.0
42
0.0
10
79.4282989501953
20
81.6008987426758
40
0.0
41
0.0
42
0.0
10
79.4776000976562
20
81.4865036010742
40
0.0
41
0.0
42
0.0
10
79.4998016357422
20
81.3904037475586
40
0.0
41
0.0
42
0.0
10
79.6528015136719
20
81.0813980102539
40
0.0
41
0.0
42
0.0
10
79.6864013671875
20
80.9907989501953
40
0.0
41
0.0
42
0.0
10
79.9915008544922
20
80.6438980102539
40
0.0
41
0.0
42
0.0
10
80.4692001342773
20
80.5177001953125
40
0.0
41
0.0
42
0.0
10
80.4858016967773
20
80.5094985961914
40
0.0
41
0.0
42
0.0
10
80.8442001342773
20
80.4714965820312
40
0.0
41
0.0
42
0.0
10
81.2891998291016
20
80.4520034790039
40
0.0
41
0.0
42
0.0
10
81.328498840332
20
80.4518966674805
40
0.0
41
0.0
42
0.0
10
81.5189971923828
20
80.4561996459961
40
0.0
41
0.0
42
0.0
10
81.9434967041016
20
80.4833984375
40
0.0
41
0.0
42
0.0
10
82.0156021118164
20
80.4925994873047
40
0.0
41
0.0
42
0.0
10
82.1340026855469
20
80.5279998779297
40
0.0
41
0.0
42
0.0
10
82.3901977539062
20
80.6641998291016
40
0.0
41
0.0
42
0.0
10
82.5167007446289
20
80.6636962890625
40
0.0
41
0.0
42
0.0
10
82.6626968383789
20
80.7113037109375
40
0.0
41
0.0
42
0.0
10
82.8414993286133
20
80.9259033203125
40
0.0
41
0.0
42
0.0
10
82.8910980224609
20
80.9903030395508
40
0.0
41
0.0
42
0.0
10
82.9795989990234
20
81.2227020263672
40
0.0
41
0.0
42
0.0
10
83.0911026000977
20
81.4856033325195
40
0.0
41
0.0
42
0.0
10
83.1381988525391
20
81.8281021118164
40
0.0
41
0.0
42
0.0
10
83.1631011962891
20
81.9816970825195
40
0.0
41
0.0
42
0.0
10
83.1645965576172
20
82.3256988525391
40
0.0
41
0.0
42
0.0
10
83.1753005981445
20
82.480598449707
40
0.0
41
0.0
42
0.0
10
83.1752014160156
20
82.5190963745117
40
0.0
41
0.0
42
0.0
10
83.1503982543945
20
82.8486022949219
40
0.0
41
0.0
42
0.0
10
83.161003112793
20
82.9835968017578
40
0.0
41
0.0
42
0.0
10
83.2217025756836
20
83.2054977416992
40
0.0
41
0.0
42
0.0
10
83.2216033935547
20
83.2417984008789
40
0.0
41
0.0
42
0.0
10
83.201301574707
20
83.4927978515625
40
0.0
41
0.0
42
0.0
10
83.5081024169922
20
83.6849975585938
40
0.0
41
0.0
42
0.0
10
83.661003112793
20
83.7988967895508
40
0.0
41
0.0
42
0.0
10
83.9822006225586
20
83.7286987304688
40
0.0
41
0.0
42
0.0
10
84.1102981567383
20
83.7286987304688
40
0.0
41
0.0
42
0.0
10
84.4853973388672
20
83.6178970336914
40
0.0
41
0.0
42
0.0
10
84.6013031005859
20
83.5896987915039
40
0.0
41
0.0
42
0.0
10
84.8289031982422
20
83.4994964599609
40
0.0
41
0.0
42
0.0
10
84.9838027954102
20
83.4414978027344
40
0.0
41
0.0
42
0.0
10
84.9990005493164
20
83.4414978027344
40
0.0
41
0.0
42
0.0
10
84.9989013671875
20
83.4598007202148
40
0.0
41
0.0
42
0.0
10
84.8908004760742
20
83.5002975463867
40
0.0
41
0.0
42
0.0
10
84.6686019897461
20
83.5879974365234
40
0.0
41
0.0
42
0.0
10
84.5145034790039
20
83.6255035400391
40
0.0
41
0.0
42
0.0
10
84.1709976196289
20
83.7268981933594
40
0.0
41
0.0
42
0.0
10
84.1340026855469
20
83.7304000854492
40
0.0
41
0.0
42
0.0
10
84.0177001953125
20
83.7304000854492
40
0.0
41
0.0
42
0.0
10
83.632698059082
20
83.8144989013672
40
0.0
41
0.0
42
0.0
10
83.6018981933594
20
83.8143997192383
40
0.0
41
0.0
42
0.0
10
83.4918975830078
20
83.7323989868164
40
0.0
41
0.0
42
0.0
10
83.133903503418
20
83.50830078125
40
0.0
41
0.0
42
0.0
10
83.1337966918945
20
83.4807968139648
40
0.0
41
0.0
42
0.0
10
83.1592025756836
20
83.1694030761719
40
0.0
41
0.0
42
0.0
10
83.117301940918
20
83.0162963867188
40
0.0
41
0.0
42
0.0
10
83.1091995239258
20
82.9107971191406
40
0.0
41
0.0
42
0.0
10
83.1091003417969
20
82.8723983764648
40
0.0
41
0.0
42
0.0
10
83.1369018554688
20
82.4999008178711
40
0.0
41
0.0
42
0.0
10
83.130500793457
20
82.4041976928711
40
0.0
41
0.0
42
0.0
10
83.1287994384766
20
82.0182037353516
40
0.0
41
0.0
42
0.0
10
83.1100006103516
20
81.9018020629883
40
0.0
41
0.0
42
0.0
10
83.0567016601562
20
81.5142974853516
40
0.0
41
0.0
42
0.0
10
82.9726028442383
20
81.3153991699219
40
0.0
41
0.0
42
0.0
10
82.8561019897461
20
81.0095977783203
40
0.0
41
0.0
42
0.0
10
82.8154983520508
20
80.9570007324219
40
0.0
41
0.0
42
0.0
10
82.6072006225586
20
80.706901550293
40
0.0
41
0.0
42
0.0
10
82.484001159668
20
80.6668014526367
40
0.0
41
0.0
42
0.0
10
82.366096496582
20
80.6672973632812
40
0.0
41
0.0
42
0.0
10
82.331298828125
20
80.6633987426758
40
0.0
41
0.0
42
0.0
10
82.097297668457
20
80.5389022827148
40
0.0
41
0.0
42
0.0
10
81.9927978515625
20
80.5085983276367
40
0.0
41
0.0
42
0.0
10
81.9533004760742
20
80.5084991455078
40
0.0
41
0.0
42
0.0
10
81.4807968139648
20
80.4794006347656
40
0.0
41
0.0
42
0.0
10
81.4225006103516
20
80.4779968261719
40
0.0
41
0.0
42
0.0
10
81.0075988769531
20
80.496696472168
40
0.0
41
0.0
42
0.0
10
80.5145034790039
20
80.5463027954102
40
0.0
41
0.0
42
0.0
10
80.4748992919922
20
80.5637969970703
40
0.0
41
0.0
42
0.0
10
80.4197998046875
20
80.5924987792969
40
0.0
41
0.0
42
0.0
10
80.0083999633789
20
80.701301574707
40
0.0
41
0.0
42
0.0
10
79.7378997802734
20
81.0090026855469
40
0.0
41
0.0
42
0.0
10
79.7076034545898
20
81.0904006958008
40
0.0
41
0.0
42
0.0
10
79.5008010864258
20
81.5077972412109
40
0.0
41
0.0
42
0.0
10
79.431999206543
20
81.6689987182617
40
0.0
41
0.0
42
0.0
10
79.3738021850586
20
82.0171966552734
40
0.0
41
0.0
42
0.0
10
79.3413009643555
20
82.3603973388672
40
0.0
41
0.0
42
0.0
10
79.2876968383789
20
82.5103988647461
40
0.0
41
0.0
42
0.0
10
79.3099975585938
20
82.826301574707
40
0.0
41
0.0
42
0.0
10
79.3122024536133
20
82.8655014038086
40
0.0
41
0.0
42
0.0
10
79.3121032714844
20
82.9018020629883
40
0.0
41
0.0
42
0.0
10
79.277099609375
20
83.0148010253906
40
0.0
41
0.0
42
0.0
10
79.2585983276367
20
83.1094970703125
40
0.0
41
0.0
42
0.0
10
79.4347991943359
20
83.4893035888672
40
0.0
41
0.0
42
0.0
10
79.5037994384766
20
83.6206970214844
40
0.0
41
0.0
42
0.0
10
79.9317016601562
20
83.9210968017578
40
0.0
41
0.0
42
0.0
10
79.9692001342773
20
83.951301574707
40
0.0
41
0.0
42
0.0
10
80.0101013183594
20
83.9793014526367
40
0.0
41
0.0
42
0.0
10
80.0627975463867
20
83.9996032714844
40
0.0
41
0.0
42
0.0
10
80.5139999389648
20
84.1613998413086
40
0.0
41
0.0
42
0.0
10
80.72509765625
20
84.2099990844727
40
0.0
41
0.0
42
0.0
10
81.0158996582031
20
84.2696990966797
40
0.0
41
0.0
42
0.0
10
81.3046035766602
20
84.3237991333008
40
0.0
41
0.0
42
0.0
10
81.5164031982422
20
84.3475036621094
40
0.0
41
0.0
42
0.0
10
81.9395980834961
20
84.4449996948242
40
0.0
41
0.0
42
0.0
10
82.013298034668
20
84.4496994018555
40
0.0
41
0.0
42
0.0
10
82.0883026123047
20
84.4968032836914
40
0.0
41
0.0
42
0.0
10
82.3004989624023
20
84.6876983642578
40
0.0
41
0.0
42
0.0
10
82.3003997802734
20
84.7149963378906
40
0.0
41
0.0
42
0.0
10
82.2070007324219
20
84.9990005493164
40
0.0
41
0.0
42
0.0
10
82.1540985107422
20
84.9990005493164
40
0.0
41
0.0
42
0.0
10
82.1539993286133
20
84.9832992553711
40
0.0
41
0.0
42
0.0
10
82.2220993041992
20
84.7758026123047
40
0.0
41
0.0
42
0.0
10
81.9915008544922
20
84.5681991577148
40
0.0
41
0.0
42
0.0
10
81.8376998901367
20
84.4999008178711
40
0.0
41
0.0
42
0.0
10
81.4834976196289
20
84.4182968139648
40
0.0
41
0.0
42
0.0
10
81.3709030151367
20
84.4056015014648
40
0.0
41
0.0
42
0.0
10
80.984001159668
20
84.3330993652344
40
0.0
41
0.0
42
0.0
10
80.7752990722656
20
84.2902984619141
40
0.0
41
0.0
42
0.0
10
80.4859008789062
20
84.2237014770508
40
0.0
41
0.0
42
0.0
10
80.0562973022461
20
84.0696029663086
40
0.0
41
0.0
42
0.0
10
79.9887008666992
20
84.0474014282227
40
0.0
41
0.0
42
0.0
10
79.9116973876953
20
84.0022964477539
40
0.0
41
0.0
42
0.0
10
79.4962005615234
20
83.7105026245117
40
0.0
41
0.0
42
0.0
10
79.3915023803711
20
83.5106964111328
40
0.0
41
0.0
42
0.0
10
79.2334976196289
20
83.1703033447266
40
0.0
41
0.0
42
0.0
10
79.2334976196289
20
83.1370010375977
40
0.0
41
0.0
42
0.0
10
79.263298034668
20
82.9850997924805
40
0.0
41
0.0
42
0.0
10
79.3093032836914
20
82.8361968994141
40
0.0
41
0.0
42
0.0
210
0.0
220
0.0
230
1.0
0
LWPOLYLINE
5
38
330
1C
100
AcDbEntity
67
0
8
0
62
256
6
ByLayer
370
-1
48
1.0
60
0
100
AcDbPolyline
90
134
70
1
38
0.0
39
0.0
10
80.4561996459961
20
68.4807968139648
40
0.0
41
0.0
42
0.0
10
80.4833984375
20
68.0562973022461
40
0.0
41
0.0
42
0.0
10
80.4925994873047
20
67.9842987060547
40
0.0
41
0.0
42
0.0
10
80.5279006958008
20
67.8656997680664
40
0.0
41
0.0
42
0.0
10
80.6641998291016
20
67.6097030639648
40
0.0
41
0.0
42
0.0
10
80.6636962890625
20
67.4832000732422
40
0.0
41
0.0
42
0.0
10
80.7111968994141
20
67.3371963500977
40
0.0
41
0.0
42
0.0
10
80.9259033203125
20
67.158203125
40
0.0
41
0.0
42
0.0
10
80.9903030395508
20
67.1085968017578
40
0.0
41
0.0
42
0.0
10
81.2227020263672
20
67.0201034545898
40
0.0
41
0.0
42
0.0
10
81.4856033325195
20
66.9085998535156
40
0.0
41
0.0
42
0.0
10
81.8280029296875
20
66.8615036010742
40
0.0
41
0.0
42
0.0
10
81.9816970825195
20
66.8366012573242
40
0.0
41
0.0
42
0.0
10
82.3256988525391
20
66.8350982666016
40
0.0
41
0.0
42
0.0
10
82.4806976318359
20
66.8246002197266
40
0.0
41
0.0
42
0.0
10
82.5192031860352
20
66.8245010375977
40
0.0
41
0.0
42
0.0
10
82.8486022949219
20
66.8492965698242
40
0.0
41
0.0
42
0.0
10
82.9806976318359
20
66.8388977050781
40
0.0
41
0.0
42
0.0
10
83.019401550293
20
66.838996887207
40
0.0
41
0.0
42
0.0
10
83.3459014892578
20
66.8567962646484
40
0.0
41
0.0
42
0.0
10
83.4941024780273
20
66.796501159668
40
0.0
41
0.0
42
0.0
10
83.6848983764648
20
66.4917984008789
40
0.0
41
0.0
42
0.0
10
83.7988967895508
20
66.3388977050781
40
0.0
41
0.0
42
0.0
10
83.7286987304688
20
66.0177001953125
40
0.0
41
0.0
42
0.0
10
83.7286987304688
20
65.8896026611328
40
0.0
41
0.0
42
0.0
10
83.6178970336914
20
65.5145034790039
40
0.0
41
0.0
42
0.0
10
83.5896987915039
20
65.3985977172852
40
0.0
41
0.0
42
0.0
10
83.4994964599609
20
65.1708984375
40
0.0
41
0.0
42
0.0
10
83.4414978027344
20
65.0160980224609
40
0.0
41
0.0
42
0.0
10
83.4414978027344
20
65.0009994506836
40
0.0
41
0.0
42
0.0
10
83.4598007202148
20
65.0009994506836
40
0.0
41
0.0
42
0.0
10
83.5002975463867
20
65.109001159668
40
0.0
41
0.0
42
0.0
10
83.5879974365234
20
65.331298828125
40
0.0
41
0.0
42
0.0
10
83.6255035400391
20
65.4853973388672
40
0.0
41
0.0
42
0.0
10
83.7268981933594
20
65.8289031982422
40
0.0
41
0.0
42
0.0
10
83.7304000854492
20
65.8658981323242
40
0.0
41
0.0
42
0.0
10
83.7304000854492
20
65.9822006225586
40
0.0
41
0.0
42
0.0
10
83.8144989013672
20
66.3672027587891
40
0.0
41
0.0
42
0.0
10
83.8143997192383
20
66.3980026245117
40
0.0
41
0.0
42
0.0
10
83.7323989868164
20
66.5081024169922
40
0.0
41
0.0
42
0.0
10
83.5056991577148
20
66.870002746582
40
0.0
41
0.0
42
0.0
10
83.4213027954102
20
66.9045028686523
40
0.0
41
0.0
42
0.0
10
83.3860015869141
20
66.9044036865234
40
0.0
41
0.0
42
0.0
10
83.0031967163086
20
66.88330078125
40
0.0
41
0.0
42
0.0
10
82.9107971191406
20
66.8907012939453
40
0.0
41
0.0
42
0.0
10
82.8723983764648
20
66.8906021118164
40
0.0
41
0.0
42
0.0
10
82.4999008178711
20
66.8628005981445
40
0.0
41
0.0
42
0.0
10
82.4041976928711
20
66.8692016601562
40
0.0
41
0.0
42
0.0
10
82.0182037353516
20
66.8709030151367
40
0.0
41
0.0
42
0.0
10
81.9018020629883
20
66.8897018432617
40
0.0
41
0.0
42
0.0
10
81.5142974853516
20
66.943000793457
40
0.0
41
0.0
42
0.0
10
81.3153991699219
20
67.027099609375
40
0.0
41
0.0
42
0.0
10
81.0094985961914
20
67.1436004638672
40
0.0
41
0.0
42
0.0
10
80.9570007324219
20
67.184196472168
40
0.0
41
0.0
42
0.0
10
80.706901550293
20
67.3927001953125
40
0.0
41
0.0
42
0.0
10
80.6668014526367
20
67.5158996582031
40
0.0
41
0.0
42
0.0
10
80.6672973632812
20
67.6337966918945
40
0.0
41
0.0
42
0.0
10
80.6633987426758
20
67.6686019897461
40
0.0
41
0.0
42
0.0
10
80.5388031005859
20
67.9024963378906
40
0.0
41
0.0
42
0.0
10
80.5085983276367
20
68.0070037841797
40
0.0
41
0.0
42
0.0
10
80.5084991455078
20
68.046501159668
40
0.0
41
0.0
42
0.0
10
80.4794006347656
20
68.5190963745117
40
0.0
41
0.0
42
0.0
10
80.4779968261719
20
68.5774002075195
40
0.0
41
0.0
42
0.0
10
80.4962005615234
20
68.9814987182617
40
0.0
41
0.0
42
0.0
10
80.5464019775391
20
69.4853973388672
40
0.0
41
0.0
42
0.0
10
80.5639038085938
20
69.52490234375
40
0.0
41
0.0
42
0.0
10
80.5925979614258
20
69.5800018310547
40
0.0
41
0.0
42
0.0
10
80.7014007568359
20
69.9915008544922
40
0.0
41
0.0
42
0.0
10
81.0053024291992
20
70.2586975097656
40
0.0
41
0.0
42
0.0
10
81.0522994995117
20
70.3084030151367
40
0.0
41
0.0
42
0.0
10
81.1467971801758
20
70.3434982299805
40
0.0
41
0.0
42
0.0
10
81.2582015991211
20
70.4309005737305
40
0.0
41
0.0
42
0.0
10
81.5130004882812
20
70.5005035400391
40
0.0
41
0.0
42
0.0
10
81.6689987182617
20
70.5677032470703
40
0.0
41
0.0
42
0.0
10
82.0147018432617
20
70.6255035400391
40
0.0
41
0.0
42
0.0
10
82.1704025268555
20
70.6809005737305
40
0.0
41
0.0
42
0.0
10
82.5158004760742
20
70.7136993408203
40
0.0
41
0.0
42
0.0
10
82.6266021728516
20
70.7480010986328
40
0.0
41
0.0
42
0.0
10
82.9806976318359
20
70.7232971191406
40
0.0
41
0.0
42
0.0
10
83.0178985595703
20
70.7232971191406
40
0.0
41
0.0
42
0.0
10
83.1094970703125
20
70.741096496582
40
0.0
41
0.0
42
0.0
10
83.4891967773438
20
70.5650024414062
40
0.0
41
0.0
42
0.0
10
83.6205978393555
20
70.4961013793945
40
0.0
41
0.0
42
0.0
10
83.9210968017578
20
70.068000793457
40
0.0
41
0.0
42
0.0
10
83.951301574707
20
70.0306015014648
40
0.0
41
0.0
42
0.0
10
83.9794006347656
20
69.9897003173828
40
0.0
41
0.0
42
0.0
10
84.1229019165039
20
69.6099014282227
40
0.0
41
0.0
42
0.0
10
84.1614990234375
20
69.4853973388672
40
0.0
41
0.0
42
0.0
10
84.2099990844727
20
69.2746963500977
40
0.0
41
0.0
42
0.0
10
84.2696990966797
20
68.984001159668
40
0.0
41
0.0
42
0.0
10
84.3237991333008
20
68.695198059082
40
0.0
41
0.0
42
0.0
10
84.3475036621094
20
68.4834976196289
40
0.0
41
0.0
42
0.0
10
84.4449996948242
20
68.0602035522461
40
0.0
41
0.0
42
0.0
10
84.4496994018555
20
67.9866027832031
40
0.0
41
0.0
42
0.0
10
84.4968032836914
20
67.9113998413086
40
0.0
41
0.0
42
0.0
10
84.6876983642578
20
67.6994018554688
40
0.0
41
0.0
42
0.0
10
84.7149963378906
20
67.6993026733398
40
0.0
41
0.0
42
0.0
10
84.9990005493164
20
67.7928009033203
40
0.0
41
0.0
42
0.0
10
84.9990005493164
20
67.8458023071289
40
0.0
41
0.0
42
0.0
10
84.9832992553711
20
67.845703125
40
0.0
41
0.0
42
0.0
10
84.7758026123047
20
67.7776031494141
40
0.0
41
0.0
42
0.0
10
84.5717010498047
20
68.0044021606445
40
0.0
41
0.0
42
0.0
10
84.529899597168
20
68.0364990234375
40
0.0
41
0.0
42
0.0
10
84.4182968139648
20
68.5164031982422
40
0.0
41
0.0
42
0.0
10
84.4056015014648
20
68.6288986206055
40
0.0
41
0.0
42
0.0
10
84.3330993652344
20
69.0158996582031
40
0.0
41
0.0
42
0.0
10
84.2902984619141
20
69.2245025634766
40
0.0
41
0.0
42
0.0
10
84.223503112793
20
69.5145034790039
40
0.0
41
0.0
42
0.0
10
84.1708984375
20
69.6839981079102
40
0.0
41
0.0
42
0.0
10
84.0476989746094
20
70.0108032226562
40
0.0
41
0.0
42
0.0
10
84.0022964477539
20
70.0880966186523
40
0.0
41
0.0
42
0.0
10
83.7104034423828
20
70.5036010742188
40
0.0
41
0.0
42
0.0
10
83.5105972290039
20
70.6082000732422
40
0.0
41
0.0
42
0.0
10
83.1703033447266
20
70.7661972045898
40
0.0
41
0.0
42
0.0
10
83.1370010375977
20
70.7660980224609
40
0.0
41
0.0
42
0.0
10
82.9917984008789
20
70.7378005981445
40
0.0
41
0.0
42
0.0
10
82.674201965332
20
70.7600021362305
40
0.0
41
0.0
42
0.0
10
82.6380996704102
20
70.7599029541016
40
0.0
41
0.0
42
0.0
10
82.4841003417969
20
70.7128982543945
40
0.0
41
0.0
42
0.0
10
82.0995025634766
20
70.676399230957
40
0.0
41
0.0
42
0.0
10
81.9852981567383
20
70.6356964111328
40
0.0
41
0.0
42
0.0
10
81.6008987426758
20
70.571403503418
40
0.0
41
0.0
42
0.0
10
81.4865036010742
20
70.522102355957
40
0.0
41
0.0
42
0.0
10
81.3883972167969
20
70.4994964599609
40
0.0
41
0.0
42
0.0
10
81.2082977294922
20
70.4502029418945
40
0.0
41
0.0
42
0.0
10
81.1268005371094
20
70.3863983154297
40
0.0
41
0.0
42
0.0
10
81.0246963500977
20
70.348503112793
40
0.0
41
0.0
42
0.0
10
80.994499206543
20
70.3164978027344
40
0.0
41
0.0
42
0.0
10
80.6438980102539
20
70.0083999633789
40
0.0
41
0.0
42
0.0
10
80.5177001953125
20
69.5305023193359
40
0.0
41
0.0
42
0.0
10
80.5094985961914
20
69.5139999389648
40
0.0
41
0.0
42
0.0
10
80.4714965820312
20
69.1556015014648
40
0.0
41
0.0
42
0.0
10
80.4518966674805
20
68.6956024169922
40
0.0
41
0.0
42
0.0
10
80.4561996459961
20
68.4807968139648
40
0.0
41
0.0
42
0.0
210
0.0
220
0.0
230
1.0
0
LWPOLYLINE
5
39
330
1C
100
AcDbEntity
67
0
8
0
62
256
6
ByLayer
370
-1
48
1.0
60
0
100
AcDbPolyline
90
77
70
1
38
0.0
39
0.0
10
82.7702026367188
20
74.9919967651367
40
0.0
41
0.0
42
0.0
10
82.9962005615234
20
74.7488021850586
40
0.0
41
0.0
42
0.0
10
83.1264038085938
20
74.5671997070312
40
0.0
41
0.0
42
0.0
10
83.1941986083984
20
74.4947967529297
40
0.0
41
0.0
42
0.0
10
83.4951019287109
20
74.214599609375
40
0.0
41
0.0
42
0.0
10
83.5037002563477
20
74.2044982910156
40
0.0
41
0.0
42
0.0
10
83.6464996337891
20
74.1106033325195
40
0.0
41
0.0
42
0.0
10
83.7401962280273
20
73.9954986572266
40
0.0
41
0.0
42
0.0
10
83.9832000732422
20
73.8311004638672
40
0.0
41
0.0
42
0.0
10
83.9953994750977
20
73.8140029907227
40
0.0
41
0.0
42
0.0
10
84.1069030761719
20
73.7202987670898
40
0.0
41
0.0
42
0.0
10
84.1420974731445
20
73.7005996704102
40
0.0
41
0.0
42
0.0
10
84.4819030761719
20
73.6384963989258
40
0.0
41
0.0
42
0.0
10
84.5168991088867
20
73.6383972167969
40
0.0
41
0.0
42
0.0
10
84.8495025634766
20
73.7356033325195
40
0.0
41
0.0
42
0.0
10
84.9814987182617
20
73.7164993286133
40
0.0
41
0.0
42
0.0
10
84.9990005493164
20
73.7164993286133
40
0.0
41
0.0
42
0.0
10
84.9989013671875
20
73.7498016357422
40
0.0
41
0.0
42
0.0
10
84.9033966064453
20
73.7639999389648
40
0.0
41
0.0
42
0.0
10
84.8679962158203
20
73.7639007568359
40
0.0
41
0.0
42
0.0
10
84.4964981079102
20
73.6551971435547
40
0.0
41
0.0
42
0.0
10
84.1429977416992
20
73.720100402832
40
0.0
41
0.0
42
0.0
10
84.0043029785156
20
73.8366012573242
40
0.0
41
0.0
42
0.0
10
83.9894027709961
20
73.8576965332031
40
0.0
41
0.0
42
0.0
10
83.7727966308594
20
74.0043029785156
40
0.0
41
0.0
42
0.0
10
83.6466979980469
20
74.1591033935547
40
0.0
41
0.0
42
0.0
10
83.5190963745117
20
74.2428970336914
40
0.0
41
0.0
42
0.0
10
83.5046997070312
20
74.2598037719727
40
0.0
41
0.0
42
0.0
10
83.2414016723633
20
74.504997253418
40
0.0
41
0.0
42
0.0
10
83.1791000366211
20
74.5715026855469
40
0.0
41
0.0
42
0.0
10
83.0036010742188
20
74.8162994384766
40
0.0
41
0.0
42
0.0
10
82.8255996704102
20
75.0077972412109
40
0.0
41
0.0
42
0.0
10
82.6508026123047
20
75.3603973388672
40
0.0
41
0.0
42
0.0
10
82.5635986328125
20
75.5130996704102
40
0.0
41
0.0
42
0.0
10
82.5550994873047
20
75.5799026489258
40
0.0
41
0.0
42
0.0
10
82.5813980102539
20
75.9860000610352
40
0.0
41
0.0
42
0.0
10
82.7734985351562
20
76.3328018188477
40
0.0
41
0.0
42
0.0
10
82.8144989013672
20
76.4931030273438
40
0.0
41
0.0
42
0.0
10
83.003303527832
20
76.7537994384766
40
0.0
41
0.0
42
0.0
10
83.0727005004883
20
76.8398971557617
40
0.0
41
0.0
42
0.0
10
83.1368026733398
20
76.9887008666992
40
0.0
41
0.0
42
0.0
10
83.2059020996094
20
77.1297988891602
40
0.0
41
0.0
42
0.0
10
83.3248977661133
20
77.2682037353516
40
0.0
41
0.0
42
0.0
10
83.5062026977539
20
77.4718017578125
40
0.0
41
0.0
42
0.0
10
83.5441970825195
20
77.4957962036133
40
0.0
41
0.0
42
0.0
10
83.6349029541016
20
77.6100997924805
40
0.0
41
0.0
42
0.0
10
83.7746963500977
20
77.7156982421875
40
0.0
41
0.0
42
0.0
10
84.0127029418945
20
77.8546981811523
40
0.0
41
0.0
42
0.0
10
84.3376007080078
20
77.9076995849609
40
0.0
41
0.0
42
0.0
10
84.4866027832031
20
77.9121017456055
40
0.0
41
0.0
42
0.0
10
84.7087020874023
20
77.8654022216797
40
0.0
41
0.0
42
0.0
10
84.9833984375
20
77.7726974487305
40
0.0
41
0.0
42
0.0
10
84.9990005493164
20
77.7726974487305
40
0.0
41
0.0
42
0.0
10
84.9989013671875
20
77.8406982421875
40
0.0
41
0.0
42
0.0
10
84.815299987793
20
77.9026031494141
40
0.0
41
0.0
42
0.0
10
84.5179977416992
20
77.9653015136719
40
0.0
41
0.0
42
0.0
10
84.4129028320312
20
77.9633026123047
40
0.0
41
0.0
42
0.0
10
83.9871978759766
20
77.8936004638672
40
0.0
41
0.0
42
0.0
10
83.8209991455078
20
77.7966003417969
40
0.0
41
0.0
42
0.0
10
83.6398010253906
20
77.659797668457
40
0.0
41
0.0
42
0.0
10
83.5164031982422
20
77.5040969848633
40
0.0
41
0.0
42
0.0
10
83.4935989379883
20
77.4897994995117
40
0.0
41
0.0
42
0.0
10
83.3923034667969
20
77.3759994506836
40
0.0
41
0.0
42
0.0
10
83.2083969116211
20
77.1621017456055
40
0.0
41
0.0
42
0.0
10
83.1819000244141
20
77.1241989135742
40
0.0
41
0.0
42
0.0
10
83.1264038085938
20
77.0111999511719
40
0.0
41
0.0
42
0.0
10
83.0772018432617
20
76.8968963623047
40
0.0
41
0.0
42
0.0
10
82.996696472168
20
76.7970962524414
40
0.0
41
0.0
42
0.0
10
82.7917022705078
20
76.513801574707
40
0.0
41
0.0
42
0.0
10
82.7618026733398
20
76.397102355957
40
0.0
41
0.0
42
0.0
10
82.5494995117188
20
76.0139007568359
40
0.0
41
0.0
42
0.0
10
82.5192031860352
20
75.5438995361328
40
0.0
41
0.0
42
0.0
10
82.5190963745117
20
75.5058975219727
40
0.0
41
0.0
42
0.0
10
82.5214996337891
20
75.486701965332
40
0.0
41
0.0
42
0.0
10
82.5482025146484
20
75.4399032592773
40
0.0
41
0.0
42
0.0
10
82.6931991577148
20
75.1453018188477
40
0.0
41
0.0
42
0.0
10
82.7702026367188
20
74.9919967651367
40
0.0
41
0.0
42
0.0
210
0.0
220
0.0
230
1.0
0
VIEWPORT
5
3E
330
3A
100
AcDbEntity
67
1
8
0
62
256
6
ByLayer
370
-1
48
1.0
60
0
100
AcDbViewport
10
0.0
20
0.0
30
0.0
40
297.0
41
210.0
68
1
69
1
12
50.0
22
100.0
13
0.0
23
0.0
14
10.0
24
10.0
15
10.0
25
10.0
16
0.0
26
0.0
36
1.0
17
0.0
27
0.0
37
0.0
42
50.0
43
0.0
44
0.0
45
250.0
50
0.0
51
0.0
72
1000
90
819232
110
0.0
120
0.0
130
0.0
111
1.0
121
0.0
131
0.0
112
0.0
122
1.0
132
0.0
0
ENDSEC
0
SECTION
2
OBJECTS
0
DICTIONARY
5
44
330
0
100
AcDbDictionary
280
1
281
1
3
ACAD_GROUP
350
12
3
ACAD_LAYOUT
350
3D
3
ACAD_DGNDEFINITIONS
350
F
3
ACAD_DWFDEFINITIONS
350
10
3
ACAD_PDFDEFINITIONS
350
11
3
ACAD_MLINESTYLE
350
B
3
ACAD_IMAGE_DICT
350
E
3
ACAD_IMAGE_VARS
350
21
0
DICTIONARY
5
12
330
44
100
AcDbDictionary
280
1
281
1
0
DICTIONARY
5
3D
330
44
100
AcDbDictionary
280
1
281
1
3
Model
350
20
3
Layout1
350
3F
0
DICTIONARY
5
F
330
44
100
AcDbDictionary
280
1
281
1
0
DICTIONARY
5
10
330
44
100
AcDbDictionary
280
1
281
1
0
DICTIONARY
5
11
330
44
100
AcDbDictionary
280
1
281
1
0
DICTIONARY
5
B
330
44
100
AcDbDictionary
280
1
281
1
3
Standard
350
1B
0
DICTIONARY
5
E
330
44
100
AcDbDictionary
280
1
281
1
0
DICTIONARY
5
6
330
5
100
AcDbDictionary
280
1
281
1
3
ACAD_LAYERSTATES
360
45
0
DICTIONARY
5
45
330
6
100
AcDbDictionary
280
1
281
1
0
LAYOUT
5
20
330
3D
100
AcDbPlotSettings
1

2
none_device
4
ISO_A4_(210.00_x_297.00_MM)
6

40
7.5
41
20.0
42
7.5
43
20.0
44
210.0
45
297.0
46
0.0
47
0.0
48
0.0
49
0.0
140
0.0
141
0.0
142
1.0
143
1.0
70
11952
72
1
73
1
74
1
7

75
0
76
0
77
2
78
300
147
1.0
148
0.0
149
0.0
100
AcDbLayout
1
Model
71
0
10
-20.0
20
-7.5
11
277.0
21
202.5
12
0.0
22
0.0
32
0.0
14
25.7
24
19.5
34
0.0
15
231.3
25
175.5
35
0.0
146
0.0
13
0.0
23
0.0
33
0.0
16
1.0
26
0.0
36
0.0
17
0.0
27
1.0
37
0.0
76
0
330
1C
0
LAYOUT
5
3F
330
3D
100
AcDbPlotSettings
1

2
none_device
4
ISO_A4_(210.00_x_297.00_MM)
6

40
7.5
41
20.0
42
7.5
43
20.0
44
210.0
45
297.0
46
0.0
47
0.0
48
0.0
49
0.0
140
0.0
141
0.0
142
1.0
143
1.0
70
688
72
1
73
1
74
1
7

75
0
76
0
77
2
78
300
147
1.0
148
0.0
149
0.0
100
AcDbLayout
1
Layout1
71
1
10
-20.0
20
-7.5
11
277.0
21
202.5
12
0.0
22
0.0
32
0.0
14
25.7
24
19.5
34
0.0
15
231.3
25
175.5
35
0.0
146
0.0
13
0.0
23
0.0
33
0.0
16
1.0
26
0.0
36
0.0
17
0.0
27
1.0
37
0.0
76
0
330
3A
0
MLINESTYLE
5
1B
330
B
100
AcDbMlineStyle
2
Standard
70
0
3

62
256
51
90.0
52
90.0
71
2
49
0.5
62
256
6
ByLayer
49
-0.5
62
256
6
ByLayer
0
RASTERVARIABLES
5
21
330
E
100
AcDbRasterVariables
90
0
70
1
71
1
72
0
0
ENDSEC
0
EOF
