999
DXF file generated by netDxf https://github.com/haplokuon/netDxf, Copyright(C) Daniel Carvajal, Licensed under MIT
0
SECTION
2
HEADER
9
$ACADVER
1
AC1015
9
$DWGCODEPAGE
3
ANSI_1252
9
$HANDSEED
5
40
9
$ANGBASE
50
0.0
9
$ANGDIR
70
0
9
$ATTMODE
70
1
9
$AUNITS
70
0
9
$AUPREC
70
0
9
$CECOLOR
62
256
9
$CELTSCALE
40
1.0
9
$CELTYPE
6
ByLayer
9
$CELWEIGHT
370
-1
9
$CLAYER
8
0
9
$CMLJUST
70
0
9
$CMLSCALE
40
20.0
9
$CMLSTYLE
2
Standard
9
$DIMSTYLE
2
Standard
9
$TEXTSIZE
40
2.5
9
$TEXTSTYLE
7
Standard
9
$LUNITS
70
2
9
$LUPREC
70
4
9
$MIRRTEXT
70
0
9
$EXTNAMES
290
1
9
$INSBASE
10
0.0
20
0.0
30
0.0
9
$INSUNITS
70
0
9
$LTSCALE
40
1.0
9
$LWDISPLAY
290
0
9
$PDMODE
70
0
9
$PDSIZE
40
0.0
9
$PLINEGEN
70
0
9
$PSLTSCALE
70
1
9
$SPLINESEGS
70
8
9
$SURFU
70
6
9
$SURFV
70
6
9
$TDCREATE
40
2460823.48369814
9
$TDUCREATE
40
2460823.1503648
9
$TDUPDATE
40
2460823.48369814
9
$TDUUPDATE
40
2460823.1503648
9
$TDINDWG
40
0.0
9
$UCSORG
10
0.0
20
0.0
30
0.0
9
$UCSXDIR
10
1.0
20
0.0
30
0.0
9
$UCSYDIR
10
0.0
20
1.0
30
0.0
9
$DIMADEC
70
0
9
$DIMALT
70
0
9
$DIMALTD
70
2
9
$DIMALTF
40
25.4
9
$DIMALTRND
40
0.0
9
$DIMALTTD
70
2
9
$DIMALTTZ
70
0
9
$DIMALTU
70
2
9
$DIMALTZ
70
0
9
$DIMAPOST
1

9
$DIMATFIT
70
3
9
$DIMAUNIT
70
0
9
$DIMASZ
40
0.18
9
$DIMAZIN
70
0
9
$DIMSAH
70
0
9
$DIMBLK
1

9
$DIMLDRBLK
1

9
$DIMCEN
40
0.09
9
$DIMCLRD
70
0
9
$DIMCLRE
70
0
9
$DIMCLRT
70
0
9
$DIMDEC
70
4
9
$DIMDLE
40
0.0
9
$DIMDLI
40
0.38
9
$DIMDSEP
70
46
9
$DIMEXE
40
0.18
9
$DIMEXO
40
0.0625
9
$DIMFXLON
70
0
9
$DIMFXL
40
1.0
9
$DIMGAP
40
0.09
9
$DIMJUST
70
0
9
$DIMLFAC
40
1.0
9
$DIMLUNIT
70
2
9
$DIMLWD
70
-2
9
$DIMLWE
70
-2
9
$DIMPOST
1

9
$DIMRND
40
0.0
9
$DIMSCALE
40
1.0
9
$DIMSD1
70
0
9
$DIMSD2
70
0
9
$DIMSE1
70
0
9
$DIMSE2
70
0
9
$DIMSOXD
70
0
9
$DIMTAD
70
0
9
$DIMTDEC
70
4
9
$DIMTFAC
40
1.0
9
$DIMTIH
70
0
9
$DIMTIX
70
0
9
$DIMTM
40
0.0
9
$DIMTMOVE
70
0
9
$DIMTOFL
70
0
9
$DIMTOH
70
0
9
$DIMTOL
70
0
9
$DIMLIM
70
0
9
$DIMTOLJ
70
1
9
$DIMTP
40
0.0
9
$DIMTXT
40
0.18
9
$DIMTXTDIRECTION
70
0
9
$DIMTZIN
70
0
9
$DIMZIN
70
0
9
$DIMFRAC
70
0
9
$DIMLTYPE
6
ByBlock
9
$DIMLTEX1
6
ByBlock
9
$DIMLTEX2
6
ByBlock
0
ENDSEC
0
SECTION
2
CLASSES
0
CLASS
1
RASTERVARIABLES
2
AcDbRasterVariables
3
ISM
90
0
280
0
281
0
0
ENDSEC
0
SECTION
2
TABLES
0
TABLE
2
APPID
5
4
330
0
100
AcDbSymbolTable
70
5
0
APPID
5
19
330
4
100
AcDbSymbolTableRecord
100
AcDbRegAppTableRecord
2
ACAD
70
0
0
APPID
5
3A
330
4
100
AcDbSymbolTableRecord
100
AcDbRegAppTableRecord
2
AcCmTransparency
70
0
0
APPID
5
3B
330
4
100
AcDbSymbolTableRecord
100
AcDbRegAppTableRecord
2
AcAecLayerStandard
70
0
0
APPID
5
3C
330
4
100
AcDbSymbolTableRecord
100
AcDbRegAppTableRecord
2
GradientColor1ACI
70
0
0
APPID
5
3D
330
4
100
AcDbSymbolTableRecord
100
AcDbRegAppTableRecord
2
GradientColor2ACI
70
0
0
ENDTAB
0
TABLE
2
VPORT
5
1
330
0
100
AcDbSymbolTable
70
1
0
VPORT
5
2
330
1
100
AcDbSymbolTableRecord
100
AcDbViewportTableRecord
2
*Active
70
0
10
0.0
20
0.0
11
1.0
21
1.0
12
0.0
22
0.0
13
0.0
23
0.0
14
0.5
24
0.5
15
10.0
25
10.0
16
0.0
26
0.0
36
1.0
17
0.0
27
0.0
37
0.0
40
10.0
41
1.0
75
0
76
1
0
ENDTAB
0
TABLE
2
LTYPE
5
7
330
0
100
AcDbSymbolTable
70
3
0
LTYPE
5
15
330
7
100
AcDbSymbolTableRecord
100
AcDbLinetypeTableRecord
2
Continuous
70
0
3
Solid line
72
65
73
0
40
0.0
0
LTYPE
5
16
330
7
100
AcDbSymbolTableRecord
100
AcDbLinetypeTableRecord
2
ByLayer
70
0
3

72
65
73
0
40
0.0
0
LTYPE
5
17
330
7
100
AcDbSymbolTableRecord
100
AcDbLinetypeTableRecord
2
ByBlock
70
0
3

72
65
73
0
40
0.0
0
ENDTAB
0
TABLE
2
LAYER
5
5
102
{ACAD_XDICTIONARY
360
6
102
}
330
0
100
AcDbSymbolTable
70
1
0
LAYER
5
14
330
5
100
AcDbSymbolTableRecord
100
AcDbLayerTableRecord
2
0
70
0
62
7
6
Continuous
290
1
370
-3
390
0
0
ENDTAB
0
TABLE
2
STYLE
5
8
330
0
100
AcDbSymbolTable
70
1
0
STYLE
5
18
330
8
100
AcDbSymbolTableRecord
100
AcDbTextStyleTableRecord
2
Standard
3
simplex.shx
70
0
71
0
40
0.0
41
1.0
42
0.0
50
0.0
0
ENDTAB
0
TABLE
2
DIMSTYLE
5
A
330
0
100
AcDbSymbolTable
70
1
100
AcDbDimStyleTable
0
DIMSTYLE
105
1A
330
A
100
AcDbSymbolTableRecord
100
AcDbDimStyleTableRecord
2
Standard
3

4

40
1.0
41
0.18
42
0.0625
43
0.38
44
0.18
45
0.0
46
0.0
47
0.0
48
0.0
49
1.0
70
0
71
0
72
0
73
0
74
0
75
0
76
0
77
0
78
0
79
0
140
0.18
141
0.09
143
25.4
144
1.0
146
1.0
147
0.09
148
0.0
170
0
171
2
172
0
174
0
175
0
176
0
177
0
178
0
179
0
271
4
272
4
273
2
274
2
275
0
276
0
277
2
278
46
279
0
280
0
281
0
282
0
283
1
284
0
285
0
286
0
289
3
290
0
294
0
340
18
173
0
345
17
346
17
347
17
371
-2
372
-2
0
ENDTAB
0
TABLE
2
VIEW
5
3
330
0
100
AcDbSymbolTable
70
0
0
ENDTAB
0
TABLE
2
UCS
5
C
330
0
100
AcDbSymbolTable
70
0
0
ENDTAB
0
TABLE
2
BLOCK_RECORD
5
D
330
0
100
AcDbSymbolTable
70
2
0
BLOCK_RECORD
5
1C
330
D
100
AcDbSymbolTableRecord
100
AcDbBlockTableRecord
2
*Model_Space
340
20
0
BLOCK_RECORD
5
34
330
D
100
AcDbSymbolTableRecord
100
AcDbBlockTableRecord
2
*Paper_Space
340
39
0
ENDTAB
0
ENDSEC
0
SECTION
2
BLOCKS
0
BLOCK
5
1E
330
1C
100
AcDbEntity
67
0
8
0
100
AcDbBlockBegin
2
*Model_Space
70
0
10
0.0
20
0.0
30
0.0
3
*Model_Space
4

0
ENDBLK
5
1D
330
1C
100
AcDbEntity
8
0
100
AcDbBlockEnd
0
BLOCK
5
36
330
34
100
AcDbEntity
67
1
8
0
100
AcDbBlockBegin
2
*Paper_Space
70
0
10
0.0
20
0.0
30
0.0
3
*Paper_Space
4

0
ENDBLK
5
35
330
34
100
AcDbEntity
8
0
100
AcDbBlockEnd
0
ENDSEC
0
SECTION
2
ENTITIES
0
LWPOLYLINE
5
22
330
1C
100
AcDbEntity
67
0
8
0
62
256
6
ByLayer
370
-1
48
1.0
60
0
100
AcDbPolyline
90
164
70
1
38
0.0
39
0.0
10
65.0009002685547
20
67.8452987670898
40
0.0
41
0.0
42
0.0
10
65.4312973022461
20
67.5559997558594
40
0.0
41
0.0
42
0.0
10
65.4621963500977
20
67.5559005737305
40
0.0
41
0.0
42
0.0
10
65.5082015991211
20
67.5677032470703
40
0.0
41
0.0
42
0.0
10
65.8641967773438
20
67.9909973144531
40
0.0
41
0.0
42
0.0
10
65.9011993408203
20
68.0818023681641
40
0.0
41
0.0
42
0.0
10
65.9011001586914
20
68.114501953125
40
0.0
41
0.0
42
0.0
10
65.7757034301758
20
68.5080032348633
40
0.0
41
0.0
42
0.0
10
65.780403137207
20
68.5756988525391
40
0.0
41
0.0
42
0.0
10
65.780403137207
20
68.613899230957
40
0.0
41
0.0
42
0.0
10
65.7399978637695
20
69.0188980102539
40
0.0
41
0.0
42
0.0
10
65.7389984130859
20
69.3872985839844
40
0.0
41
0.0
42
0.0
10
65.7435989379883
20
69.4813995361328
40
0.0
41
0.0
42
0.0
10
65.7873992919922
20
69.9830017089844
40
0.0
41
0.0
42
0.0
10
65.8701019287109
20
70.3884963989258
40
0.0
41
0.0
42
0.0
10
65.8832015991211
20
70.4837036132812
40
0.0
41
0.0
42
0.0
10
65.9052963256836
20
70.581298828125
40
0.0
41
0.0
42
0.0
10
65.969596862793
20
70.7378005981445
40
0.0
41
0.0
42
0.0
10
66.0011978149414
20
70.8342971801758
40
0.0
41
0.0
42
0.0
10
66.1342010498047
20
70.9960021972656
40
0.0
41
0.0
42
0.0
10
66.2574996948242
20
71.0710983276367
40
0.0
41
0.0
42
0.0
10
66.445198059082
20
71.2120971679688
40
0.0
41
0.0
42
0.0
10
66.486701965332
20
71.2061004638672
40
0.0
41
0.0
42
0.0
10
66.5820007324219
20
71.1540985107422
40
0.0
41
0.0
42
0.0
10
66.9873962402344
20
71.0803985595703
40
0.0
41
0.0
42
0.0
10
67.0472030639648
20
71.0447998046875
40
0.0
41
0.0
42
0.0
10
67.1427993774414
20
70.9990997314453
40
0.0
41
0.0
42
0.0
10
67.4508972167969
20
70.8753967285156
40
0.0
41
0.0
42
0.0
10
67.5841979980469
20
70.8094024658203
40
0.0
41
0.0
42
0.0
10
68.0496978759766
20
70.5839004516602
40
0.0
41
0.0
42
0.0
10
68.2121963500977
20
70.4979019165039
40
0.0
41
0.0
42
0.0
10
68.456298828125
20
70.3354034423828
40
0.0
41
0.0
42
0.0
10
68.4912033081055
20
70.315299987793
40
0.0
41
0.0
42
0.0
10
68.5882034301758
20
70.2474975585938
40
0.0
41
0.0
42
0.0
10
68.6140975952148
20
70.2231979370117
40
0.0
41
0.0
42
0.0
10
68.8764038085938
20
69.9941024780273
40
0.0
41
0.0
42
0.0
10
68.9965972900391
20
69.8247985839844
40
0.0
41
0.0
42
0.0
10
69.0066986083984
20
69.8125991821289
40
0.0
41
0.0
42
0.0
10
69.125602722168
20
69.5852966308594
40
0.0
41
0.0
42
0.0
10
69.185302734375
20
69.4889984130859
40
0.0
41
0.0
42
0.0
10
69.3254013061523
20
69.0820007324219
40
0.0
41
0.0
42
0.0
10
69.3604965209961
20
68.9865036010742
40
0.0
41
0.0
42
0.0
10
69.5062026977539
20
68.4847030639648
40
0.0
41
0.0
42
0.0
10
69.53759765625
20
68.3000030517578
40
0.0
41
0.0
42
0.0
10
69.5842971801758
20
68.0803985595703
40
0.0
41
0.0
42
0.0
10
69.6159973144531
20
67.9837036132812
40
0.0
41
0.0
42
0.0
10
69.630500793457
20
67.5792007446289
40
0.0
41
0.0
42
0.0
10
69.6611022949219
20
67.5000991821289
40
0.0
41
0.0
42
0.0
10
69.518798828125
20
67.1408004760742
40
0.0
41
0.0
42
0.0
10
69.4963989257812
20
67.0932006835938
40
0.0
41
0.0
42
0.0
10
69.3526000976562
20
67.0005035400391
40
0.0
41
0.0
42
0.0
10
68.9888000488281
20
66.9024963378906
40
0.0
41
0.0
42
0.0
10
68.9263000488281
20
66.9058990478516
40
0.0
41
0.0
42
0.0
10
68.8876037597656
20
66.9058990478516
40
0.0
41
0.0
42
0.0
10
68.5039978027344
20
66.8824005126953
40
0.0
41
0.0
42
0.0
10
68.0173034667969
20
66.9223022460938
40
0.0
41
0.0
42
0.0
10
67.515998840332
20
67.0092010498047
40
0.0
41
0.0
42
0.0
10
67.2855987548828
20
67.0571975708008
40
0.0
41
0.0
42
0.0
10
67.0158996582031
20
67.1295013427734
40
0.0
41
0.0
42
0.0
10
66.8320999145508
20
67.1524963378906
40
0.0
41
0.0
42
0.0
10
66.5106964111328
20
67.2946014404297
40
0.0
41
0.0
42
0.0
10
66.1436004638672
20
67.4909973144531
40
0.0
41
0.0
42
0.0
10
66.1171035766602
20
67.502799987793
40
0.0
41
0.0
42
0.0
10
66.0099029541016
20
67.6358032226562
40
0.0
41
0.0
42
0.0
10
65.9856033325195
20
67.6356964111328
40
0.0
41
0.0
42
0.0
10
65.7637023925781
20
67.5070037841797
40
0.0
41
0.0
42
0.0
10
65.7330017089844
20
67.2863006591797
40
0.0
41
0.0
42
0.0
10
65.7331008911133
20
67.2553024291992
40
0.0
41
0.0
42
0.0
10
65.8367004394531
20
67.1331024169922
40
0.0
41
0.0
42
0.0
10
65.9480972290039
20
66.9904022216797
40
0.0
41
0.0
42
0.0
10
65.9994964599609
20
66.8589019775391
40
0.0
41
0.0
42
0.0
10
66.1112976074219
20
66.5621032714844
40
0.0
41
0.0
42
0.0
10
66.1361999511719
20
66.4838027954102
40
0.0
41
0.0
42
0.0
10
66.1426010131836
20
66.3658981323242
40
0.0
41
0.0
42
0.0
10
66.2942962646484
20
65.9873962402344
40
0.0
41
0.0
42
0.0
10
66.4219970703125
20
65.6315002441406
40
0.0
41
0.0
42
0.0
10
66.4789962768555
20
65.4882965087891
40
0.0
41
0.0
42
0.0
10
66.4984970092773
20
65.4465026855469
40
0.0
41
0.0
42
0.0
10
66.5423965454102
20
65.3687973022461
40
0.0
41
0.0
42
0.0
10
66.6743011474609
20
65.0830993652344
40
0.0
41
0.0
42
0.0
10
66.7061004638672
20
65.0009994506836
40
0.0
41
0.0
42
0.0
10
66.7316970825195
20
65.0009994506836
40
0.0
41
0.0
42
0.0
10
66.7315979003906
20
65.015998840332
40
0.0
41
0.0
42
0.0
10
66.6810989379883
20
65.1466979980469
40
0.0
41
0.0
42
0.0
10
66.5634002685547
20
65.4017028808594
40
0.0
41
0.0
42
0.0
10
66.5017013549805
20
65.5111999511719
40
0.0
41
0.0
42
0.0
10
66.3219985961914
20
66.0124969482422
40
0.0
41
0.0
42
0.0
10
66.1880035400391
20
66.3468017578125
40
0.0
41
0.0
42
0.0
10
66.1784973144531
20
66.5160980224609
40
0.0
41
0.0
42
0.0
10
66.1585006713867
20
66.5792007446289
40
0.0
41
0.0
42
0.0
10
65.9962997436523
20
67.0093002319336
40
0.0
41
0.0
42
0.0
10
65.97509765625
20
67.0355987548828
40
0.0
41
0.0
42
0.0
10
65.9990005493164
20
67.2079010009766
40
0.0
41
0.0
42
0.0
10
66.0211029052734
20
67.4718017578125
40
0.0
41
0.0
42
0.0
10
66.4890975952148
20
67.2214965820312
40
0.0
41
0.0
42
0.0
10
66.7266998291016
20
67.1165008544922
40
0.0
41
0.0
42
0.0
10
66.984001159668
20
67.0841979980469
40
0.0
41
0.0
42
0.0
10
67.1586990356445
20
67.0373992919922
40
0.0
41
0.0
42
0.0
10
67.4832000732422
20
66.9683990478516
40
0.0
41
0.0
42
0.0
10
67.5210037231445
20
66.9646987915039
40
0.0
41
0.0
42
0.0
10
67.9825973510742
20
66.8851013183594
40
0.0
41
0.0
42
0.0
10
68.3468017578125
20
66.8561019897461
40
0.0
41
0.0
42
0.0
10
68.4809036254883
20
66.8436965942383
40
0.0
41
0.0
42
0.0
10
68.5193023681641
20
66.8435974121094
40
0.0
41
0.0
42
0.0
10
68.8665008544922
20
66.8647003173828
40
0.0
41
0.0
42
0.0
10
68.9804992675781
20
66.8585968017578
40
0.0
41
0.0
42
0.0
10
69.0171966552734
20
66.8587036132812
40
0.0
41
0.0
42
0.0
10
69.5063018798828
20
66.9903030395508
40
0.0
41
0.0
42
0.0
10
69.5137023925781
20
66.9909973144531
40
0.0
41
0.0
42
0.0
10
69.5136032104492
20
67.0046005249023
40
0.0
41
0.0
42
0.0
10
69.7035980224609
20
67.484001159668
40
0.0
41
0.0
42
0.0
10
69.703498840332
20
67.515998840332
40
0.0
41
0.0
42
0.0
10
69.6517028808594
20
67.6507034301758
40
0.0
41
0.0
42
0.0
10
69.6384963989258
20
68.0161972045898
40
0.0
41
0.0
42
0.0
10
69.5947036743164
20
68.1494979858398
40
0.0
41
0.0
42
0.0
10
69.5519027709961
20
68.3501968383789
40
0.0
41
0.0
42
0.0
10
69.5239028930664
20
68.5149993896484
40
0.0
41
0.0
42
0.0
10
69.5047988891602
20
68.5765991210938
40
0.0
41
0.0
42
0.0
10
69.3786010742188
20
69.0133972167969
40
0.0
41
0.0
42
0.0
10
69.3290023803711
20
69.1479034423828
40
0.0
41
0.0
42
0.0
10
69.2041015625
20
69.5109024047852
40
0.0
41
0.0
42
0.0
10
69.1213989257812
20
69.6445007324219
40
0.0
41
0.0
42
0.0
10
69.0154037475586
20
69.8469009399414
40
0.0
41
0.0
42
0.0
10
69.0031967163086
20
69.8615036010742
40
0.0
41
0.0
42
0.0
10
68.9009017944336
20
70.0056991577148
40
0.0
41
0.0
42
0.0
10
68.676399230957
20
70.2017974853516
40
0.0
41
0.0
42
0.0
10
68.6416015625
20
70.2343978881836
40
0.0
41
0.0
42
0.0
10
68.5085983276367
20
70.3273010253906
40
0.0
41
0.0
42
0.0
10
68.4595031738281
20
70.3557968139648
40
0.0
41
0.0
42
0.0
10
68.2401962280273
20
70.5018005371094
40
0.0
41
0.0
42
0.0
10
68.0960998535156
20
70.5780029296875
40
0.0
41
0.0
42
0.0
10
67.6455993652344
20
70.7960968017578
40
0.0
41
0.0
42
0.0
10
67.5106964111328
20
70.8644027709961
40
0.0
41
0.0
42
0.0
10
67.4628982543945
20
70.8870010375977
40
0.0
41
0.0
42
0.0
10
67.1804962158203
20
71.0007019042969
40
0.0
41
0.0
42
0.0
10
67.0915985107422
20
71.043098449707
40
0.0
41
0.0
42
0.0
10
67.0124969482422
20
71.090202331543
40
0.0
41
0.0
42
0.0
10
66.6477966308594
20
71.1565017700195
40
0.0
41
0.0
42
0.0
10
66.5131988525391
20
71.2301025390625
40
0.0
41
0.0
42
0.0
10
66.4293975830078
20
71.2421035766602
40
0.0
41
0.0
42
0.0
10
66.3979034423828
20
71.2421035766602
40
0.0
41
0.0
42
0.0
10
66.1355972290039
20
71.0450973510742
40
0.0
41
0.0
42
0.0
10
66.0678024291992
20
71.0038986206055
40
0.0
41
0.0
42
0.0
10
65.9985961914062
20
70.9197006225586
40
0.0
41
0.0
42
0.0
10
65.9819030761719
20
70.868896484375
40
0.0
41
0.0
42
0.0
10
65.8916015625
20
70.6485977172852
40
0.0
41
0.0
42
0.0
10
65.8613967895508
20
70.5161972045898
40
0.0
41
0.0
42
0.0
10
65.8431015014648
20
70.3814010620117
40
0.0
41
0.0
42
0.0
10
65.768798828125
20
70.0169982910156
40
0.0
41
0.0
42
0.0
10
65.75830078125
20
69.8832015991211
40
0.0
41
0.0
42
0.0
10
65.7255020141602
20
69.5185012817383
40
0.0
41
0.0
42
0.0
10
65.7189025878906
20
69.3844985961914
40
0.0
41
0.0
42
0.0
10
65.7197036743164
20
68.9810028076172
40
0.0
41
0.0
42
0.0
10
65.7548980712891
20
68.6307983398438
40
0.0
41
0.0
42
0.0
10
65.7514038085938
20
68.5764007568359
40
0.0
41
0.0
42
0.0
10
65.7457962036133
20
68.5188980102539
40
0.0
41
0.0
42
0.0
10
65.7456970214844
20
68.4832000732422
40
0.0
41
0.0
42
0.0
10
65.8548965454102
20
68.1427993774414
40
0.0
41
0.0
42
0.0
10
65.8003005981445
20
68.0090026855469
40
0.0
41
0.0
42
0.0
10
65.49169921875
20
67.6418991088867
40
0.0
41
0.0
42
0.0
10
65.3927993774414
20
67.61669921875
40
0.0
41
0.0
42
0.0
10
65.0134963989258
20
67.8719024658203
40
0.0
41
0.0
42
0.0
10
65.0009994506836
20
67.8719024658203
40
0.0
41
0.0
42
0.0
10
65.0009002685547
20
67.8452987670898
40
0.0
41
0.0
42
0.0
210
0.0
220
0.0
230
1.0
0
LWPOLYLINE
5
23
330
1C
100
AcDbEntity
67
0
8
0
62
256
6
ByLayer
370
-1
48
1.0
60
0
100
AcDbPolyline
90
82
70
1
38
0.0
39
0.0
10
65.4852981567383
20
73.2020034790039
40
0.0
41
0.0
42
0.0
10
65.5152969360352
20
73.2020034790039
40
0.0
41
0.0
42
0.0
10
65.6003036499023
20
73.24169921875
40
0.0
41
0.0
42
0.0
10
65.9228973388672
20
73.4111022949219
40
0.0
41
0.0
42
0.0
10
66.0040969848633
20
73.4508972167969
40
0.0
41
0.0
42
0.0
10
66.0223999023438
20
73.4899978637695
40
0.0
41
0.0
42
0.0
10
66.0845031738281
20
73.5908966064453
40
0.0
41
0.0
42
0.0
10
66.2630004882812
20
73.8561019897461
40
0.0
41
0.0
42
0.0
10
66.3154983520508
20
73.9462966918945
40
0.0
41
0.0
42
0.0
10
66.3443984985352
20
73.9918975830078
40
0.0
41
0.0
42
0.0
10
66.5022964477539
20
74.2042999267578
40
0.0
41
0.0
42
0.0
10
66.5557022094727
20
74.2994995117188
40
0.0
41
0.0
42
0.0
10
66.6560974121094
20
74.4898986816406
40
0.0
41
0.0
42
0.0
10
66.8563003540039
20
74.8545989990234
40
0.0
41
0.0
42
0.0
10
66.9217987060547
20
74.9885025024414
40
0.0
41
0.0
42
0.0
10
67.0005035400391
20
75.1882019042969
40
0.0
41
0.0
42
0.0
10
67.0728988647461
20
75.3525009155273
40
0.0
41
0.0
42
0.0
10
67.1169967651367
20
75.4845962524414
40
0.0
41
0.0
42
0.0
10
67.1606979370117
20
75.8461990356445
40
0.0
41
0.0
42
0.0
10
67.1605987548828
20
75.8846969604492
40
0.0
41
0.0
42
0.0
10
67.1575012207031
20
76.0179977416992
40
0.0
41
0.0
42
0.0
10
67.0990982055664
20
76.3804016113281
40
0.0
41
0.0
42
0.0
10
67.0621032714844
20
76.5139999389648
40
0.0
41
0.0
42
0.0
10
67.0297012329102
20
76.6175003051758
40
0.0
41
0.0
42
0.0
10
66.9822006225586
20
76.7526016235352
40
0.0
41
0.0
42
0.0
10
66.9001998901367
20
77.0130004882812
40
0.0
41
0.0
42
0.0
10
66.7602005004883
20
77.3777008056641
40
0.0
41
0.0
42
0.0
10
66.7130966186523
20
77.5134963989258
40
0.0
41
0.0
42
0.0
10
66.6723022460938
20
77.6479034423828
40
0.0
41
0.0
42
0.0
10
66.5220031738281
20
78.0133972167969
40
0.0
41
0.0
42
0.0
10
66.5010986328125
20
78.10009765625
40
0.0
41
0.0
42
0.0
10
66.0218963623047
20
78.5025024414062
40
0.0
41
0.0
42
0.0
10
66.0114974975586
20
78.5126037597656
40
0.0
41
0.0
42
0.0
10
65.9851989746094
20
78.5124969482422
40
0.0
41
0.0
42
0.0
10
65.9720001220703
20
78.505500793457
40
0.0
41
0.0
42
0.0
10
65.9535980224609
20
78.4998016357422
40
0.0
41
0.0
42
0.0
10
65.4885025024414
20
78.3759002685547
40
0.0
41
0.0
42
0.0
10
65.2453002929688
20
78.2192993164062
40
0.0
41
0.0
42
0.0
10
65.1235961914062
20
78.1373977661133
40
0.0
41
0.0
42
0.0
10
65.0445022583008
20
78.0868988037109
40
0.0
41
0.0
42
0.0
10
65.0009994506836
20
78.0576019287109
40
0.0
41
0.0
42
0.0
10
65.0009994506836
20
78.0234985351562
40
0.0
41
0.0
42
0.0
10
65.013801574707
20
78.0233993530273
40
0.0
41
0.0
42
0.0
10
65.1206970214844
20
78.0924987792969
40
0.0
41
0.0
42
0.0
10
65.206298828125
20
78.1501007080078
40
0.0
41
0.0
42
0.0
10
65.5113983154297
20
78.3463973999023
40
0.0
41
0.0
42
0.0
10
65.9012985229492
20
78.4503021240234
40
0.0
41
0.0
42
0.0
10
65.9943008422852
20
78.4732971191406
40
0.0
41
0.0
42
0.0
10
66.1645965576172
20
78.3247985839844
40
0.0
41
0.0
42
0.0
10
66.4987030029297
20
78.0441970825195
40
0.0
41
0.0
42
0.0
10
66.5126037597656
20
77.9863967895508
40
0.0
41
0.0
42
0.0
10
66.6787033081055
20
77.5820007324219
40
0.0
41
0.0
42
0.0
10
66.7078018188477
20
77.4863967895508
40
0.0
41
0.0
42
0.0
10
66.7406005859375
20
77.3921966552734
40
0.0
41
0.0
42
0.0
10
66.8962020874023
20
76.9869003295898
40
0.0
41
0.0
42
0.0
10
66.9872970581055
20
76.6973037719727
40
0.0
41
0.0
42
0.0
10
67.0206985473633
20
76.6023025512695
40
0.0
41
0.0
42
0.0
10
67.0572967529297
20
76.4859008789062
40
0.0
41
0.0
42
0.0
10
67.0839996337891
20
76.3893966674805
40
0.0
41
0.0
42
0.0
10
67.1494979858398
20
75.9819030761719
40
0.0
41
0.0
42
0.0
10
67.1510009765625
20
75.9173965454102
40
0.0
41
0.0
42
0.0
10
67.1026000976562
20
75.5152969360352
40
0.0
41
0.0
42
0.0
10
67.0699005126953
20
75.4173965454102
40
0.0
41
0.0
42
0.0
10
66.9992980957031
20
75.2565002441406
40
0.0
41
0.0
42
0.0
10
66.9028015136719
20
75.0114974975586
40
0.0
41
0.0
42
0.0
10
66.8556976318359
20
74.9152984619141
40
0.0
41
0.0
42
0.0
10
66.6332015991211
20
74.5100021362305
40
0.0
41
0.0
42
0.0
10
66.5625
20
74.3758010864258
40
0.0
41
0.0
42
0.0
10
66.4975967407227
20
74.2602005004883
40
0.0
41
0.0
42
0.0
10
66.3105010986328
20
74.0082015991211
40
0.0
41
0.0
42
0.0
10
66.2537002563477
20
73.9136962890625
40
0.0
41
0.0
42
0.0
10
66.0554962158203
20
73.6191024780273
40
0.0
41
0.0
42
0.0
10
65.9944000244141
20
73.5195999145508
40
0.0
41
0.0
42
0.0
10
65.951301574707
20
73.5009994506836
40
0.0
41
0.0
42
0.0
10
65.6072006225586
20
73.3202972412109
40
0.0
41
0.0
42
0.0
10
65.5007019042969
20
73.2704010009766
40
0.0
41
0.0
42
0.0
10
65.1031036376953
20
73.4854965209961
40
0.0
41
0.0
42
0.0
10
65.0766983032227
20
73.5014038085938
40
0.0
41
0.0
42
0.0
10
65.0151977539062
20
73.5305023193359
40
0.0
41
0.0
42
0.0
10
65.0009994506836
20
73.5305023193359
40
0.0
41
0.0
42
0.0
10
65.0009002685547
20
73.4651031494141
40
0.0
41
0.0
42
0.0
10
65.4852981567383
20
73.2020034790039
40
0.0
41
0.0
42
0.0
210
0.0
220
0.0
230
1.0
0
LWPOLYLINE
5
24
330
1C
100
AcDbEntity
67
0
8
0
62
256
6
ByLayer
370
-1
48
1.0
60
0
100
AcDbPolyline
90
107
70
1
38
0.0
39
0.0
10
65.0160980224609
20
83.2680969238281
40
0.0
41
0.0
42
0.0
10
65.1467971801758
20
83.318603515625
40
0.0
41
0.0
42
0.0
10
65.4017028808594
20
83.4363021850586
40
0.0
41
0.0
42
0.0
10
65.5111999511719
20
83.4981002807617
40
0.0
41
0.0
42
0.0
10
66.0124969482422
20
83.6776962280273
40
0.0
41
0.0
42
0.0
10
66.3469009399414
20
83.8116989135742
40
0.0
41
0.0
42
0.0
10
66.5160980224609
20
83.8211975097656
40
0.0
41
0.0
42
0.0
10
66.5792999267578
20
83.8412017822266
40
0.0
41
0.0
42
0.0
10
67.0093002319336
20
84.0034027099609
40
0.0
41
0.0
42
0.0
10
67.0356979370117
20
84.0245971679688
40
0.0
41
0.0
42
0.0
10
67.2079010009766
20
84.0008010864258
40
0.0
41
0.0
42
0.0
10
67.4719009399414
20
83.9786987304688
40
0.0
41
0.0
42
0.0
10
67.2214965820312
20
83.5106964111328
40
0.0
41
0.0
42
0.0
10
67.1165008544922
20
83.2731018066406
40
0.0
41
0.0
42
0.0
10
67.0841979980469
20
83.0158996582031
40
0.0
41
0.0
42
0.0
10
67.0373992919922
20
82.8411026000977
40
0.0
41
0.0
42
0.0
10
66.9683990478516
20
82.5167007446289
40
0.0
41
0.0
42
0.0
10
66.9646987915039
20
82.4787979125977
40
0.0
41
0.0
42
0.0
10
66.8851013183594
20
82.0173034667969
40
0.0
41
0.0
42
0.0
10
66.8561019897461
20
81.6530990600586
40
0.0
41
0.0
42
0.0
10
66.8436965942383
20
81.5189971923828
40
0.0
41
0.0
42
0.0
10
66.8435974121094
20
81.480598449707
40
0.0
41
0.0
42
0.0
10
66.8647003173828
20
81.13330078125
40
0.0
41
0.0
42
0.0
10
66.8585968017578
20
81.0195999145508
40
0.0
41
0.0
42
0.0
10
66.8620986938477
20
80.845100402832
40
0.0
41
0.0
42
0.0
10
66.9887008666992
20
80.489501953125
40
0.0
41
0.0
42
0.0
10
66.9909973144531
20
80.486198425293
40
0.0
41
0.0
42
0.0
10
67.0046997070312
20
80.4860992431641
40
0.0
41
0.0
42
0.0
10
67.484001159668
20
80.2963027954102
40
0.0
41
0.0
42
0.0
10
67.5160980224609
20
80.2962036132812
40
0.0
41
0.0
42
0.0
10
67.6507034301758
20
80.3479995727539
40
0.0
41
0.0
42
0.0
10
68.0161972045898
20
80.361198425293
40
0.0
41
0.0
42
0.0
10
68.1494979858398
20
80.4049987792969
40
0.0
41
0.0
42
0.0
10
68.3501968383789
20
80.4477996826172
40
0.0
41
0.0
42
0.0
10
68.5150985717773
20
80.4757995605469
40
0.0
41
0.0
42
0.0
10
68.5765991210938
20
80.4949035644531
40
0.0
41
0.0
42
0.0
10
69.0133972167969
20
80.6211013793945
40
0.0
41
0.0
42
0.0
10
69.1479034423828
20
80.6707000732422
40
0.0
41
0.0
42
0.0
10
69.5109024047852
20
80.7956008911133
40
0.0
41
0.0
42
0.0
10
69.6445007324219
20
80.8784027099609
40
0.0
41
0.0
42
0.0
10
69.8469009399414
20
80.9842987060547
40
0.0
41
0.0
42
0.0
10
69.8615036010742
20
80.9965972900391
40
0.0
41
0.0
42
0.0
10
70.0056991577148
20
81.0988998413086
40
0.0
41
0.0
42
0.0
10
70.2017974853516
20
81.3234024047852
40
0.0
41
0.0
42
0.0
10
70.2344970703125
20
81.3582000732422
40
0.0
41
0.0
42
0.0
10
70.3273010253906
20
81.4913024902344
40
0.0
41
0.0
42
0.0
10
70.3557968139648
20
81.5402984619141
40
0.0
41
0.0
42
0.0
10
70.5018997192383
20
81.7595977783203
40
0.0
41
0.0
42
0.0
10
70.5781021118164
20
81.9037017822266
40
0.0
41
0.0
42
0.0
10
70.7960968017578
20
82.3543014526367
40
0.0
41
0.0
42
0.0
10
70.8644027709961
20
82.4891967773438
40
0.0
41
0.0
42
0.0
10
70.8870010375977
20
82.5369033813477
40
0.0
41
0.0
42
0.0
10
71.0007019042969
20
82.8192977905273
40
0.0
41
0.0
42
0.0
10
71.0431976318359
20
82.908203125
40
0.0
41
0.0
42
0.0
10
71.090202331543
20
82.9873962402344
40
0.0
41
0.0
42
0.0
10
71.1566009521484
20
83.3520965576172
40
0.0
41
0.0
42
0.0
10
71.2301025390625
20
83.486701965332
40
0.0
41
0.0
42
0.0
10
71.2421035766602
20
83.5703964233398
40
0.0
41
0.0
42
0.0
10
71.2419967651367
20
83.6018981933594
40
0.0
41
0.0
42
0.0
10
71.0450973510742
20
83.8643035888672
40
0.0
41
0.0
42
0.0
10
71.0037994384766
20
83.9319000244141
40
0.0
41
0.0
42
0.0
10
70.9196014404297
20
84.0011978149414
40
0.0
41
0.0
42
0.0
10
70.868896484375
20
84.0177993774414
40
0.0
41
0.0
42
0.0
10
70.6485977172852
20
84.1081008911133
40
0.0
41
0.0
42
0.0
10
70.5155029296875
20
84.1384963989258
40
0.0
41
0.0
42
0.0
10
70.1513977050781
20
84.2126998901367
40
0.0
41
0.0
42
0.0
10
70.0176010131836
20
84.2309036254883
40
0.0
41
0.0
42
0.0
10
69.5190963745117
20
84.2741012573242
40
0.0
41
0.0
42
0.0
10
69.1526031494141
20
84.2733001708984
40
0.0
41
0.0
42
0.0
10
69.019401550293
20
84.2799987792969
40
0.0
41
0.0
42
0.0
10
68.9810028076172
20
84.2799987792969
40
0.0
41
0.0
42
0.0
10
68.6307983398438
20
84.2447967529297
40
0.0
41
0.0
42
0.0
10
68.576301574707
20
84.2482986450195
40
0.0
41
0.0
42
0.0
10
68.5188980102539
20
84.2540969848633
40
0.0
41
0.0
42
0.0
10
68.4832000732422
20
84.2540969848633
40
0.0
41
0.0
42
0.0
10
68.1427993774414
20
84.1447982788086
40
0.0
41
0.0
42
0.0
10
68.0158004760742
20
84.1967010498047
40
0.0
41
0.0
42
0.0
10
67.9838027954102
20
84.1966018676758
40
0.0
41
0.0
42
0.0
10
67.5229034423828
20
84.0222015380859
40
0.0
41
0.0
42
0.0
10
67.5199966430664
20
84.0248031616211
40
0.0
41
0.0
42
0.0
10
67.6397018432617
20
84.4825973510742
40
0.0
41
0.0
42
0.0
10
67.6396026611328
20
84.5173034667969
40
0.0
41
0.0
42
0.0
10
67.61669921875
20
84.6070022583008
40
0.0
41
0.0
42
0.0
10
67.8719024658203
20
84.9863967895508
40
0.0
41
0.0
42
0.0
10
67.8719024658203
20
84.9990005493164
40
0.0
41
0.0
42
0.0
10
67.8452987670898
20
84.9989013671875
40
0.0
41
0.0
42
0.0
10
67.5559005737305
20
84.568603515625
40
0.0
41
0.0
42
0.0
10
67.5559997558594
20
84.5376968383789
40
0.0
41
0.0
42
0.0
10
67.5654983520508
20
84.5001983642578
40
0.0
41
0.0
42
0.0
10
67.4970016479492
20
84.2373962402344
40
0.0
41
0.0
42
0.0
10
67.2861022949219
20
84.2666015625
40
0.0
41
0.0
42
0.0
10
67.2553024291992
20
84.2666015625
40
0.0
41
0.0
42
0.0
10
67.1331024169922
20
84.1631011962891
40
0.0
41
0.0
42
0.0
10
66.9905014038086
20
84.0515975952148
40
0.0
41
0.0
42
0.0
10
66.8589019775391
20
84.0002975463867
40
0.0
41
0.0
42
0.0
10
66.5622024536133
20
83.8883972167969
40
0.0
41
0.0
42
0.0
10
66.4838027954102
20
83.8635025024414
40
0.0
41
0.0
42
0.0
10
66.3659973144531
20
83.8571014404297
40
0.0
41
0.0
42
0.0
10
65.9873962402344
20
83.7053985595703
40
0.0
41
0.0
42
0.0
10
65.6315002441406
20
83.5777969360352
40
0.0
41
0.0
42
0.0
10
65.4882965087891
20
83.5206985473633
40
0.0
41
0.0
42
0.0
10
65.4466018676758
20
83.5012969970703
40
0.0
41
0.0
42
0.0
10
65.3687973022461
20
83.4572982788086
40
0.0
41
0.0
42
0.0
10
65.0830993652344
20
83.3254013061523
40
0.0
41
0.0
42
0.0
10
65.0009994506836
20
83.293701171875
40
0.0
41
0.0
42
0.0
10
65.0009994506836
20
83.2682037353516
40
0.0
41
0.0
42
0.0
10
65.0160980224609
20
83.2680969238281
40
0.0
41
0.0
42
0.0
210
0.0
220
0.0
230
1.0
0
LWPOLYLINE
5
25
330
1C
100
AcDbEntity
67
0
8
0
62
256
6
ByLayer
370
-1
48
1.0
60
0
100
AcDbPolyline
90
63
70
1
38
0.0
39
0.0
10
66.9059982299805
20
81.0734024047852
40
0.0
41
0.0
42
0.0
10
66.9058990478516
20
81.1121978759766
40
0.0
41
0.0
42
0.0
10
66.8824005126953
20
81.4960021972656
40
0.0
41
0.0
42
0.0
10
66.9223022460938
20
81.9825973510742
40
0.0
41
0.0
42
0.0
10
67.0092010498047
20
82.4839019775391
40
0.0
41
0.0
42
0.0
10
67.0571975708008
20
82.7142028808594
40
0.0
41
0.0
42
0.0
10
67.1295013427734
20
82.984001159668
40
0.0
41
0.0
42
0.0
10
67.1524963378906
20
83.1678009033203
40
0.0
41
0.0
42
0.0
10
67.2946014404297
20
83.4891967773438
40
0.0
41
0.0
42
0.0
10
67.4909973144531
20
83.856201171875
40
0.0
41
0.0
42
0.0
10
67.5028991699219
20
83.8825988769531
40
0.0
41
0.0
42
0.0
10
67.6462020874023
20
83.9983978271484
40
0.0
41
0.0
42
0.0
10
67.9994964599609
20
84.1322021484375
40
0.0
41
0.0
42
0.0
10
68.0818023681641
20
84.0987014770508
40
0.0
41
0.0
42
0.0
10
68.114501953125
20
84.0986022949219
40
0.0
41
0.0
42
0.0
10
68.5080032348633
20
84.2239990234375
40
0.0
41
0.0
42
0.0
10
68.5756988525391
20
84.2194976806641
40
0.0
41
0.0
42
0.0
10
68.613899230957
20
84.2193984985352
40
0.0
41
0.0
42
0.0
10
69.006103515625
20
84.2584991455078
40
0.0
41
0.0
42
0.0
10
69.0754013061523
20
84.2550964355469
40
0.0
41
0.0
42
0.0
10
69.4820022583008
20
84.2559967041016
40
0.0
41
0.0
42
0.0
10
69.9822998046875
20
84.21240234375
40
0.0
41
0.0
42
0.0
10
70.078498840332
20
84.1993026733398
40
0.0
41
0.0
42
0.0
10
70.4843978881836
20
84.1164016723633
40
0.0
41
0.0
42
0.0
10
70.581298828125
20
84.0943984985352
40
0.0
41
0.0
42
0.0
10
70.7378005981445
20
84.0300979614258
40
0.0
41
0.0
42
0.0
10
70.8341979980469
20
83.9985961914062
40
0.0
41
0.0
42
0.0
10
70.9960021972656
20
83.8656005859375
40
0.0
41
0.0
42
0.0
10
71.0710983276367
20
83.742301940918
40
0.0
41
0.0
42
0.0
10
71.2120971679688
20
83.5546035766602
40
0.0
41
0.0
42
0.0
10
71.2061996459961
20
83.5131988525391
40
0.0
41
0.0
42
0.0
10
71.1541976928711
20
83.4179000854492
40
0.0
41
0.0
42
0.0
10
71.0803985595703
20
83.0124969482422
40
0.0
41
0.0
42
0.0
10
71.0448989868164
20
82.9525985717773
40
0.0
41
0.0
42
0.0
10
70.9990997314453
20
82.8570022583008
40
0.0
41
0.0
42
0.0
10
70.8755035400391
20
82.5490036010742
40
0.0
41
0.0
42
0.0
10
70.8572998046875
20
82.5106964111328
40
0.0
41
0.0
42
0.0
10
70.8094024658203
20
82.4156036376953
40
0.0
41
0.0
42
0.0
10
70.5839996337891
20
81.9501037597656
40
0.0
41
0.0
42
0.0
10
70.4980010986328
20
81.78759765625
40
0.0
41
0.0
42
0.0
10
70.3355026245117
20
81.5435028076172
40
0.0
41
0.0
42
0.0
10
70.315299987793
20
81.5085983276367
40
0.0
41
0.0
42
0.0
10
70.2474975585938
20
81.4116973876953
40
0.0
41
0.0
42
0.0
10
70.2231979370117
20
81.3856964111328
40
0.0
41
0.0
42
0.0
10
69.9942016601562
20
81.1232986450195
40
0.0
41
0.0
42
0.0
10
69.8248977661133
20
81.0034027099609
40
0.0
41
0.0
42
0.0
10
69.8126983642578
20
80.9929962158203
40
0.0
41
0.0
42
0.0
10
69.5854034423828
20
80.8740997314453
40
0.0
41
0.0
42
0.0
10
69.4889984130859
20
80.8143997192383
40
0.0
41
0.0
42
0.0
10
69.0820007324219
20
80.6743011474609
40
0.0
41
0.0
42
0.0
10
68.9865036010742
20
80.6391983032227
40
0.0
41
0.0
42
0.0
10
68.4847030639648
20
80.4934997558594
40
0.0
41
0.0
42
0.0
10
68.3000030517578
20
80.4620971679688
40
0.0
41
0.0
42
0.0
10
68.0803985595703
20
80.415397644043
40
0.0
41
0.0
42
0.0
10
67.9837036132812
20
80.3836975097656
40
0.0
41
0.0
42
0.0
10
67.5792007446289
20
80.3692016601562
40
0.0
41
0.0
42
0.0
10
67.5000991821289
20
80.3386001586914
40
0.0
41
0.0
42
0.0
10
67.1408004760742
20
80.4810028076172
40
0.0
41
0.0
42
0.0
10
67.0931015014648
20
80.5035018920898
40
0.0
41
0.0
42
0.0
10
67.0009994506836
20
80.6464996337891
40
0.0
41
0.0
42
0.0
10
66.9033966064453
20
80.9205017089844
40
0.0
41
0.0
42
0.0
10
66.901496887207
20
80.9932022094727
40
0.0
41
0.0
42
0.0
10
66.9059982299805
20
81.0734024047852
40
0.0
41
0.0
42
0.0
210
0.0
220
0.0
230
1.0
0
LWPOLYLINE
5
26
330
1C
100
AcDbEntity
67
0
8
0
62
256
6
ByLayer
370
-1
48
1.0
60
0
100
AcDbPolyline
90
338
70
1
38
0.0
39
0.0
10
69.4599990844727
20
75.2993011474609
40
0.0
41
0.0
42
0.0
10
69.4990005493164
20
75.2237014770508
40
0.0
41
0.0
42
0.0
10
69.5897979736328
20
74.992301940918
40
0.0
41
0.0
42
0.0
10
69.7705001831055
20
74.8320999145508
40
0.0
41
0.0
42
0.0
10
69.8579025268555
20
74.7490997314453
40
0.0
41
0.0
42
0.0
10
69.9880981445312
20
74.6678009033203
40
0.0
41
0.0
42
0.0
10
70.0678024291992
20
74.6489028930664
40
0.0
41
0.0
42
0.0
10
70.2972030639648
20
74.496696472168
40
0.0
41
0.0
42
0.0
10
70.4485015869141
20
74.4040985107422
40
0.0
41
0.0
42
0.0
10
70.4860992431641
20
74.396598815918
40
0.0
41
0.0
42
0.0
10
70.8891983032227
20
74.2268981933594
40
0.0
41
0.0
42
0.0
10
70.9238967895508
20
74.2267990112305
40
0.0
41
0.0
42
0.0
10
71.0171966552734
20
74.2360992431641
40
0.0
41
0.0
42
0.0
10
71.1250991821289
20
74.2535018920898
40
0.0
41
0.0
42
0.0
10
71.4845962524414
20
74.1544036865234
40
0.0
41
0.0
42
0.0
10
71.9036026000977
20
74.0791015625
40
0.0
41
0.0
42
0.0
10
71.9383010864258
20
74.0790023803711
40
0.0
41
0.0
42
0.0
10
72.0110015869141
20
74.103401184082
40
0.0
41
0.0
42
0.0
10
72.2738037109375
20
74.2667999267578
40
0.0
41
0.0
42
0.0
10
72.3993988037109
20
74.0012969970703
40
0.0
41
0.0
42
0.0
10
71.988899230957
20
73.9115982055664
40
0.0
41
0.0
42
0.0
10
71.6430969238281
20
73.6540985107422
40
0.0
41
0.0
42
0.0
10
71.5185012817383
20
73.5954971313477
40
0.0
41
0.0
42
0.0
10
71.4960021972656
20
73.5830993652344
40
0.0
41
0.0
42
0.0
10
71.4583969116211
20
73.5055999755859
40
0.0
41
0.0
42
0.0
10
71.3280029296875
20
73.4190979003906
40
0.0
41
0.0
42
0.0
10
71.3078002929688
20
73.4083023071289
40
0.0
41
0.0
42
0.0
10
71.0673980712891
20
73.1191024780273
40
0.0
41
0.0
42
0.0
10
70.9968032836914
20
73.0507965087891
40
0.0
41
0.0
42
0.0
10
70.9732971191406
20
73.00830078125
40
0.0
41
0.0
42
0.0
10
70.9331970214844
20
72.9568023681641
40
0.0
41
0.0
42
0.0
10
70.8901977539062
20
72.9126968383789
40
0.0
41
0.0
42
0.0
10
70.6937026977539
20
72.5130004882812
40
0.0
41
0.0
42
0.0
10
70.6091995239258
20
72.125602722168
40
0.0
41
0.0
42
0.0
10
70.5487976074219
20
72.0146026611328
40
0.0
41
0.0
42
0.0
10
70.548698425293
20
71.9829025268555
40
0.0
41
0.0
42
0.0
10
70.6482009887695
20
71.6372985839844
40
0.0
41
0.0
42
0.0
10
70.6379013061523
20
71.5189971923828
40
0.0
41
0.0
42
0.0
10
70.6378021240234
20
71.4908981323242
40
0.0
41
0.0
42
0.0
10
70.818000793457
20
71.3650970458984
40
0.0
41
0.0
42
0.0
10
70.8592987060547
20
71.315803527832
40
0.0
41
0.0
42
0.0
10
70.9868011474609
20
71.222900390625
40
0.0
41
0.0
42
0.0
10
71.0189971923828
20
71.2228012084961
40
0.0
41
0.0
42
0.0
10
71.1313018798828
20
71.2332000732422
40
0.0
41
0.0
42
0.0
10
71.4813995361328
20
71.1847991943359
40
0.0
41
0.0
42
0.0
10
71.5154037475586
20
71.184700012207
40
0.0
41
0.0
42
0.0
10
71.6489028930664
20
71.2453002929688
40
0.0
41
0.0
42
0.0
10
72.0145034790039
20
71.303596496582
40
0.0
41
0.0
42
0.0
10
72.3747024536133
20
71.4418029785156
40
0.0
41
0.0
42
0.0
10
72.411003112793
20
71.4574966430664
40
0.0
41
0.0
42
0.0
10
72.4539031982422
20
71.4949035644531
40
0.0
41
0.0
42
0.0
10
72.5044021606445
20
71.551399230957
40
0.0
41
0.0
42
0.0
10
72.9100036621094
20
71.7553024291992
40
0.0
41
0.0
42
0.0
10
73.0018997192383
20
71.9086990356445
40
0.0
41
0.0
42
0.0
10
73.2333984375
20
71.7537002563477
40
0.0
41
0.0
42
0.0
10
73.2459030151367
20
71.7537994384766
40
0.0
41
0.0
42
0.0
10
73.2457962036133
20
71.7714004516602
40
0.0
41
0.0
42
0.0
10
73.2136001586914
20
71.9934005737305
40
0.0
41
0.0
42
0.0
10
73.3405990600586
20
72.3298034667969
40
0.0
41
0.0
42
0.0
10
73.5050964355469
20
72.5266036987305
40
0.0
41
0.0
42
0.0
10
73.6119003295898
20
72.4975967407227
40
0.0
41
0.0
42
0.0
10
73.7277984619141
20
72.2353973388672
40
0.0
41
0.0
42
0.0
10
73.6069030761719
20
72.0140991210938
40
0.0
41
0.0
42
0.0
10
73.5848007202148
20
71.5999984741211
40
0.0
41
0.0
42
0.0
10
73.5567016601562
20
71.5165023803711
40
0.0
41
0.0
42
0.0
10
73.5566024780273
20
71.4803009033203
40
0.0
41
0.0
42
0.0
10
73.5684967041016
20
71.0820999145508
40
0.0
41
0.0
42
0.0
10
73.565299987793
20
71.0690994262695
40
0.0
41
0.0
42
0.0
10
73.5446014404297
20
71.015998840332
40
0.0
41
0.0
42
0.0
10
73.5445022583008
20
70.9823989868164
40
0.0
41
0.0
42
0.0
10
73.5637969970703
20
70.9019012451172
40
0.0
41
0.0
42
0.0
10
73.6316986083984
20
70.592399597168
40
0.0
41
0.0
42
0.0
10
73.620002746582
20
70.5183029174805
40
0.0
41
0.0
42
0.0
10
73.6199035644531
20
70.4813995361328
40
0.0
41
0.0
42
0.0
10
73.6325988769531
20
70.3908996582031
40
0.0
41
0.0
42
0.0
10
73.8159027099609
20
69.9899978637695
40
0.0
41
0.0
42
0.0
10
73.9524993896484
20
69.7863998413086
40
0.0
41
0.0
42
0.0
10
73.9977035522461
20
69.6816024780273
40
0.0
41
0.0
42
0.0
10
74.0166015625
20
69.6613998413086
40
0.0
41
0.0
42
0.0
10
74.3304977416992
20
69.4980010986328
40
0.0
41
0.0
42
0.0
10
74.3796997070312
20
69.4739990234375
40
0.0
41
0.0
42
0.0
10
74.4869995117188
20
69.3934020996094
40
0.0
41
0.0
42
0.0
10
74.5166015625
20
69.3933029174805
40
0.0
41
0.0
42
0.0
10
74.6473999023438
20
69.4367980957031
40
0.0
41
0.0
42
0.0
10
74.7005004882812
20
69.4599990844727
40
0.0
41
0.0
42
0.0
10
74.7761001586914
20
69.4990997314453
40
0.0
41
0.0
42
0.0
10
75.0075988769531
20
69.5898971557617
40
0.0
41
0.0
42
0.0
10
75.1677017211914
20
69.7705993652344
40
0.0
41
0.0
42
0.0
10
75.250602722168
20
69.8579025268555
40
0.0
41
0.0
42
0.0
10
75.331901550293
20
69.9881973266602
40
0.0
41
0.0
42
0.0
10
75.3508987426758
20
70.0678024291992
40
0.0
41
0.0
42
0.0
10
75.502197265625
20
70.2958984375
40
0.0
41
0.0
42
0.0
10
75.5955963134766
20
70.4485015869141
40
0.0
41
0.0
42
0.0
10
75.6032028198242
20
70.486198425293
40
0.0
41
0.0
42
0.0
10
75.7730026245117
20
70.8891983032227
40
0.0
41
0.0
42
0.0
10
75.7730026245117
20
70.9238967895508
40
0.0
41
0.0
42
0.0
10
75.7636032104492
20
71.0171966552734
40
0.0
41
0.0
42
0.0
10
75.7462005615234
20
71.1250991821289
40
0.0
41
0.0
42
0.0
10
75.8452987670898
20
71.4845962524414
40
0.0
41
0.0
42
0.0
10
75.9207992553711
20
71.9036026000977
40
0.0
41
0.0
42
0.0
10
75.9207000732422
20
71.9383010864258
40
0.0
41
0.0
42
0.0
10
75.8993988037109
20
72.0018997192383
40
0.0
41
0.0
42
0.0
10
75.9877014160156
20
72.3438034057617
40
0.0
41
0.0
42
0.0
10
76.0108032226562
20
72.3432998657227
40
0.0
41
0.0
42
0.0
10
76.0880966186523
20
71.9888000488281
40
0.0
41
0.0
42
0.0
10
76.3455963134766
20
71.6430969238281
40
0.0
41
0.0
42
0.0
10
76.4041976928711
20
71.5185012817383
40
0.0
41
0.0
42
0.0
10
76.4168014526367
20
71.4959030151367
40
0.0
41
0.0
42
0.0
10
76.4925994873047
20
71.4591979980469
40
0.0
41
0.0
42
0.0
10
76.8380966186523
20
71.0886993408203
40
0.0
41
0.0
42
0.0
10
76.947998046875
20
70.9972991943359
40
0.0
41
0.0
42
0.0
10
76.9915008544922
20
70.9732971191406
40
0.0
41
0.0
42
0.0
10
77.0429000854492
20
70.9331970214844
40
0.0
41
0.0
42
0.0
10
77.0871963500977
20
70.8901977539062
40
0.0
41
0.0
42
0.0
10
77.4869003295898
20
70.6937026977539
40
0.0
41
0.0
42
0.0
10
77.8741989135742
20
70.6091995239258
40
0.0
41
0.0
42
0.0
10
77.9852981567383
20
70.5487976074219
40
0.0
41
0.0
42
0.0
10
78.0169982910156
20
70.548698425293
40
0.0
41
0.0
42
0.0
10
78.3625030517578
20
70.6482009887695
40
0.0
41
0.0
42
0.0
10
78.4809036254883
20
70.6379013061523
40
0.0
41
0.0
42
0.0
10
78.5090026855469
20
70.6379013061523
40
0.0
41
0.0
42
0.0
10
78.6346969604492
20
70.818000793457
40
0.0
41
0.0
42
0.0
10
78.6838989257812
20
70.8593978881836
40
0.0
41
0.0
42
0.0
10
78.7778015136719
20
70.9880981445312
40
0.0
41
0.0
42
0.0
10
78.8274993896484
20
71.3463973999023
40
0.0
41
0.0
42
0.0
10
78.8274002075195
20
71.3840026855469
40
0.0
41
0.0
42
0.0
10
78.8151016235352
20
71.5173034667969
40
0.0
41
0.0
42
0.0
10
78.757698059082
20
71.8787994384766
40
0.0
41
0.0
42
0.0
10
78.6971969604492
20
72.0118026733398
40
0.0
41
0.0
42
0.0
10
78.5579986572266
20
72.3747024536133
40
0.0
41
0.0
42
0.0
10
78.5422973632812
20
72.411003112793
40
0.0
41
0.0
42
0.0
10
78.504997253418
20
72.4537963867188
40
0.0
41
0.0
42
0.0
10
78.4483032226562
20
72.5043029785156
40
0.0
41
0.0
42
0.0
10
78.244499206543
20
72.9100036621094
40
0.0
41
0.0
42
0.0
10
78.0910034179688
20
73.0018997192383
40
0.0
41
0.0
42
0.0
10
78.2460021972656
20
73.2333984375
40
0.0
41
0.0
42
0.0
10
78.2460021972656
20
73.2457962036133
40
0.0
41
0.0
42
0.0
10
78.2283020019531
20
73.2456970214844
40
0.0
41
0.0
42
0.0
10
78.0034027099609
20
73.2129974365234
40
0.0
41
0.0
42
0.0
10
77.9346008300781
20
73.4309005737305
40
0.0
41
0.0
42
0.0
10
77.5113983154297
20
73.4730987548828
40
0.0
41
0.0
42
0.0
10
77.4730987548828
20
73.504997253418
40
0.0
41
0.0
42
0.0
10
77.496696472168
20
73.5907974243164
40
0.0
41
0.0
42
0.0
10
77.5071029663086
20
73.5922012329102
40
0.0
41
0.0
42
0.0
10
77.5348968505859
20
73.5436019897461
40
0.0
41
0.0
42
0.0
10
77.5612030029297
20
73.5436019897461
40
0.0
41
0.0
42
0.0
10
77.9924011230469
20
73.6035995483398
40
0.0
41
0.0
42
0.0
10
78.0568008422852
20
73.5724029541016
40
0.0
41
0.0
42
0.0
10
78.4803009033203
20
73.5567016601562
40
0.0
41
0.0
42
0.0
10
78.5195999145508
20
73.5566024780273
40
0.0
41
0.0
42
0.0
10
78.9177017211914
20
73.5683975219727
40
0.0
41
0.0
42
0.0
10
78.9307022094727
20
73.5652008056641
40
0.0
41
0.0
42
0.0
10
78.9839019775391
20
73.5446014404297
40
0.0
41
0.0
42
0.0
10
79.0175018310547
20
73.5445022583008
40
0.0
41
0.0
42
0.0
10
79.0979995727539
20
73.5637969970703
40
0.0
41
0.0
42
0.0
10
79.4075012207031
20
73.6316986083984
40
0.0
41
0.0
42
0.0
10
79.4815979003906
20
73.620002746582
40
0.0
41
0.0
42
0.0
10
79.5185012817383
20
73.6199035644531
40
0.0
41
0.0
42
0.0
10
79.609001159668
20
73.632698059082
40
0.0
41
0.0
42
0.0
10
80.0096969604492
20
73.8159027099609
40
0.0
41
0.0
42
0.0
10
80.2134017944336
20
73.9524993896484
40
0.0
41
0.0
42
0.0
10
80.3181991577148
20
73.997802734375
40
0.0
41
0.0
42
0.0
10
80.3384017944336
20
74.0167007446289
40
0.0
41
0.0
42
0.0
10
80.5011978149414
20
74.3293991088867
40
0.0
41
0.0
42
0.0
10
80.5258026123047
20
74.3797988891602
40
0.0
41
0.0
42
0.0
10
80.6064987182617
20
74.4869995117188
40
0.0
41
0.0
42
0.0
10
80.6063995361328
20
74.5165023803711
40
0.0
41
0.0
42
0.0
10
80.5628967285156
20
74.6473999023438
40
0.0
41
0.0
42
0.0
10
80.5397033691406
20
74.7005004882812
40
0.0
41
0.0
42
0.0
10
80.5007019042969
20
74.7761001586914
40
0.0
41
0.0
42
0.0
10
80.4098968505859
20
75.0074996948242
40
0.0
41
0.0
42
0.0
10
80.2292022705078
20
75.1676025390625
40
0.0
41
0.0
42
0.0
10
80.1419982910156
20
75.250602722168
40
0.0
41
0.0
42
0.0
10
80.0117034912109
20
75.3318023681641
40
0.0
41
0.0
42
0.0
10
79.9319000244141
20
75.3507995605469
40
0.0
41
0.0
42
0.0
10
79.7039031982422
20
75.502197265625
40
0.0
41
0.0
42
0.0
10
79.5512008666992
20
75.5955963134766
40
0.0
41
0.0
42
0.0
10
79.5137023925781
20
75.6031036376953
40
0.0
41
0.0
42
0.0
10
79.1107025146484
20
75.7730026245117
40
0.0
41
0.0
42
0.0
10
79.0759963989258
20
75.7731018066406
40
0.0
41
0.0
42
0.0
10
78.9826965332031
20
75.7637023925781
40
0.0
41
0.0
42
0.0
10
78.8747024536133
20
75.7461013793945
40
0.0
41
0.0
42
0.0
10
78.5152969360352
20
75.8452987670898
40
0.0
41
0.0
42
0.0
10
78.0961990356445
20
75.9207992553711
40
0.0
41
0.0
42
0.0
10
78.0615005493164
20
75.9207000732422
40
0.0
41
0.0
42
0.0
10
77.9889984130859
20
75.8964004516602
40
0.0
41
0.0
42
0.0
10
77.7258987426758
20
75.7328033447266
40
0.0
41
0.0
42
0.0
10
77.6005020141602
20
75.9984970092773
40
0.0
41
0.0
42
0.0
10
78.0110015869141
20
76.0882034301758
40
0.0
41
0.0
42
0.0
10
78.3566970825195
20
76.345703125
40
0.0
41
0.0
42
0.0
10
78.4813003540039
20
76.4041976928711
40
0.0
41
0.0
42
0.0
10
78.5038986206055
20
76.4168014526367
40
0.0
41
0.0
42
0.0
10
78.5413970947266
20
76.4944000244141
40
0.0
41
0.0
42
0.0
10
78.6917037963867
20
76.5911026000977
40
0.0
41
0.0
42
0.0
10
78.910400390625
20
76.83740234375
40
0.0
41
0.0
42
0.0
10
79.0025024414062
20
76.947998046875
40
0.0
41
0.0
42
0.0
10
79.0263977050781
20
76.9916000366211
40
0.0
41
0.0
42
0.0
10
79.0667037963867
20
77.043098449707
40
0.0
41
0.0
42
0.0
10
79.1095962524414
20
77.0871963500977
40
0.0
41
0.0
42
0.0
10
79.3059997558594
20
77.4869003295898
40
0.0
41
0.0
42
0.0
10
79.3905029296875
20
77.8742980957031
40
0.0
41
0.0
42
0.0
10
79.4511032104492
20
77.9852981567383
40
0.0
41
0.0
42
0.0
10
79.4509963989258
20
78.0169982910156
40
0.0
41
0.0
42
0.0
10
79.3515014648438
20
78.3625030517578
40
0.0
41
0.0
42
0.0
10
79.3619995117188
20
78.4809036254883
40
0.0
41
0.0
42
0.0
10
79.3618011474609
20
78.508903503418
40
0.0
41
0.0
42
0.0
10
79.1817016601562
20
78.6345977783203
40
0.0
41
0.0
42
0.0
10
79.1405029296875
20
78.6838989257812
40
0.0
41
0.0
42
0.0
10
79.0118026733398
20
78.7778015136719
40
0.0
41
0.0
42
0.0
10
78.6535034179688
20
78.8274993896484
40
0.0
41
0.0
42
0.0
10
78.6158981323242
20
78.8274002075195
40
0.0
41
0.0
42
0.0
10
78.4825973510742
20
78.8152008056641
40
0.0
41
0.0
42
0.0
10
78.1211013793945
20
78.757698059082
40
0.0
41
0.0
42
0.0
10
77.9880981445312
20
78.6971969604492
40
0.0
41
0.0
42
0.0
10
77.6250991821289
20
78.5579986572266
40
0.0
41
0.0
42
0.0
10
77.5888977050781
20
78.5423965454102
40
0.0
41
0.0
42
0.0
10
77.5458984375
20
78.504997253418
40
0.0
41
0.0
42
0.0
10
77.4954986572266
20
78.4484024047852
40
0.0
41
0.0
42
0.0
10
77.0897979736328
20
78.244499206543
40
0.0
41
0.0
42
0.0
10
76.9980010986328
20
78.0908966064453
40
0.0
41
0.0
42
0.0
10
76.7664031982422
20
78.2460021972656
40
0.0
41
0.0
42
0.0
10
76.7537994384766
20
78.2461013793945
40
0.0
41
0.0
42
0.0
10
76.7538986206055
20
78.228401184082
40
0.0
41
0.0
42
0.0
10
76.7861022949219
20
78.0065002441406
40
0.0
41
0.0
42
0.0
10
76.6592025756836
20
77.6699981689453
40
0.0
41
0.0
42
0.0
10
76.4949035644531
20
77.4730987548828
40
0.0
41
0.0
42
0.0
10
76.3878021240234
20
77.502197265625
40
0.0
41
0.0
42
0.0
10
76.2718963623047
20
77.7643966674805
40
0.0
41
0.0
42
0.0
10
76.3927993774414
20
77.9858016967773
40
0.0
41
0.0
42
0.0
10
76.4150009155273
20
78.3998031616211
40
0.0
41
0.0
42
0.0
10
76.4431991577148
20
78.4833984375
40
0.0
41
0.0
42
0.0
10
76.4430999755859
20
78.5195999145508
40
0.0
41
0.0
42
0.0
10
76.4312973022461
20
78.9177017211914
40
0.0
41
0.0
42
0.0
10
76.4345016479492
20
78.9307022094727
40
0.0
41
0.0
42
0.0
10
76.4552993774414
20
78.9839019775391
40
0.0
41
0.0
42
0.0
10
76.4552001953125
20
79.0175018310547
40
0.0
41
0.0
42
0.0
10
76.4358978271484
20
79.097900390625
40
0.0
41
0.0
42
0.0
10
76.3679962158203
20
79.4075012207031
40
0.0
41
0.0
42
0.0
10
76.3798980712891
20
79.4815979003906
40
0.0
41
0.0
42
0.0
10
76.3797988891602
20
79.5154037475586
40
0.0
41
0.0
42
0.0
10
76.1952972412109
20
79.9189987182617
40
0.0
41
0.0
42
0.0
10
76.1820983886719
20
80.0121994018555
40
0.0
41
0.0
42
0.0
10
76.0472030639648
20
80.2133026123047
40
0.0
41
0.0
42
0.0
10
76.0019989013672
20
80.3180999755859
40
0.0
41
0.0
42
0.0
10
75.9831008911133
20
80.3383026123047
40
0.0
41
0.0
42
0.0
10
75.6704025268555
20
80.5010986328125
40
0.0
41
0.0
42
0.0
10
75.620002746582
20
80.5257034301758
40
0.0
41
0.0
42
0.0
10
75.5129013061523
20
80.6064987182617
40
0.0
41
0.0
42
0.0
10
75.4833984375
20
80.6063995361328
40
0.0
41
0.0
42
0.0
10
75.3525009155273
20
80.5630035400391
40
0.0
41
0.0
42
0.0
10
75.2993011474609
20
80.5398025512695
40
0.0
41
0.0
42
0.0
10
75.2237014770508
20
80.5008010864258
40
0.0
41
0.0
42
0.0
10
74.992301940918
20
80.4098968505859
40
0.0
41
0.0
42
0.0
10
74.8320999145508
20
80.2292022705078
40
0.0
41
0.0
42
0.0
10
74.7491989135742
20
80.1419982910156
40
0.0
41
0.0
42
0.0
10
74.6679000854492
20
80.0118026733398
40
0.0
41
0.0
42
0.0
10
74.6490020751953
20
79.9319000244141
40
0.0
41
0.0
42
0.0
10
74.4968032836914
20
79.7025985717773
40
0.0
41
0.0
42
0.0
10
74.4040985107422
20
79.5513000488281
40
0.0
41
0.0
42
0.0
10
74.396598815918
20
79.5137023925781
40
0.0
41
0.0
42
0.0
10
74.2268981933594
20
79.1107025146484
40
0.0
41
0.0
42
0.0
10
74.2266998291016
20
79.0759963989258
40
0.0
41
0.0
42
0.0
10
74.2360000610352
20
78.9826965332031
40
0.0
41
0.0
42
0.0
10
74.2536010742188
20
78.8747024536133
40
0.0
41
0.0
42
0.0
10
74.1544036865234
20
78.5152969360352
40
0.0
41
0.0
42
0.0
10
74.0791015625
20
78.0961990356445
40
0.0
41
0.0
42
0.0
10
74.0790023803711
20
78.0615005493164
40
0.0
41
0.0
42
0.0
10
74.1003036499023
20
77.9980010986328
40
0.0
41
0.0
42
0.0
10
74.0122985839844
20
77.6560974121094
40
0.0
41
0.0
42
0.0
10
73.9891967773438
20
77.6566009521484
40
0.0
41
0.0
42
0.0
10
73.9114990234375
20
78.0110015869141
40
0.0
41
0.0
42
0.0
10
73.6539993286133
20
78.3565979003906
40
0.0
41
0.0
42
0.0
10
73.5953979492188
20
78.4813003540039
40
0.0
41
0.0
42
0.0
10
73.5830001831055
20
78.5038986206055
40
0.0
41
0.0
42
0.0
10
73.5055999755859
20
78.5412979125977
40
0.0
41
0.0
42
0.0
10
73.4189987182617
20
78.6717987060547
40
0.0
41
0.0
42
0.0
10
73.4083023071289
20
78.6920013427734
40
0.0
41
0.0
42
0.0
10
73.1190032958984
20
78.9324035644531
40
0.0
41
0.0
42
0.0
10
73.0506973266602
20
79.0030975341797
40
0.0
41
0.0
42
0.0
10
73.00830078125
20
79.0263977050781
40
0.0
41
0.0
42
0.0
10
72.9567031860352
20
79.0665969848633
40
0.0
41
0.0
42
0.0
10
72.9126968383789
20
79.1094970703125
40
0.0
41
0.0
42
0.0
10
72.5129013061523
20
79.3059997558594
40
0.0
41
0.0
42
0.0
10
72.125602722168
20
79.3905029296875
40
0.0
41
0.0
42
0.0
10
72.0146026611328
20
79.4511032104492
40
0.0
41
0.0
42
0.0
10
71.9829025268555
20
79.4509963989258
40
0.0
41
0.0
42
0.0
10
71.6372985839844
20
79.3515014648438
40
0.0
41
0.0
42
0.0
10
71.5189971923828
20
79.3619995117188
40
0.0
41
0.0
42
0.0
10
71.4908981323242
20
79.3619003295898
40
0.0
41
0.0
42
0.0
10
71.3651962280273
20
79.1817016601562
40
0.0
41
0.0
42
0.0
10
71.3159027099609
20
79.1405029296875
40
0.0
41
0.0
42
0.0
10
71.222900390625
20
79.0130996704102
40
0.0
41
0.0
42
0.0
10
71.2228012084961
20
78.9809036254883
40
0.0
41
0.0
42
0.0
10
71.2332000732422
20
78.8685989379883
40
0.0
41
0.0
42
0.0
10
71.1847991943359
20
78.5185012817383
40
0.0
41
0.0
42
0.0
10
71.184700012207
20
78.4844970703125
40
0.0
41
0.0
42
0.0
10
71.2453002929688
20
78.3509979248047
40
0.0
41
0.0
42
0.0
10
71.3034973144531
20
77.9853973388672
40
0.0
41
0.0
42
0.0
10
71.4417037963867
20
77.625
40
0.0
41
0.0
42
0.0
10
71.4573974609375
20
77.5888977050781
40
0.0
41
0.0
42
0.0
10
71.4947967529297
20
77.5458984375
40
0.0
41
0.0
42
0.0
10
71.551399230957
20
77.4953994750977
40
0.0
41
0.0
42
0.0
10
71.7552032470703
20
77.0897979736328
40
0.0
41
0.0
42
0.0
10
71.9086990356445
20
76.9980010986328
40
0.0
41
0.0
42
0.0
10
71.7537002563477
20
76.7664031982422
40
0.0
41
0.0
42
0.0
10
71.7537002563477
20
76.7538986206055
40
0.0
41
0.0
42
0.0
10
71.7714996337891
20
76.7539978027344
40
0.0
41
0.0
42
0.0
10
71.9963989257812
20
76.7866973876953
40
0.0
41
0.0
42
0.0
10
72.0651016235352
20
76.5688018798828
40
0.0
41
0.0
42
0.0
10
72.4884033203125
20
76.5266036987305
40
0.0
41
0.0
42
0.0
10
72.5266036987305
20
76.4949035644531
40
0.0
41
0.0
42
0.0
10
72.5035018920898
20
76.4091033935547
40
0.0
41
0.0
42
0.0
10
72.4928970336914
20
76.4076995849609
40
0.0
41
0.0
42
0.0
10
72.4649963378906
20
76.4561996459961
40
0.0
41
0.0
42
0.0
10
72.4385986328125
20
76.4561996459961
40
0.0
41
0.0
42
0.0
10
72.0074996948242
20
76.3961029052734
40
0.0
41
0.0
42
0.0
10
71.943000793457
20
76.4272994995117
40
0.0
41
0.0
42
0.0
10
71.5195999145508
20
76.4431991577148
40
0.0
41
0.0
42
0.0
10
71.4803009033203
20
76.4430999755859
40
0.0
41
0.0
42
0.0
10
71.0820999145508
20
76.4311981201172
40
0.0
41
0.0
42
0.0
10
71.0690994262695
20
76.4344024658203
40
0.0
41
0.0
42
0.0
10
71.015998840332
20
76.4552993774414
40
0.0
41
0.0
42
0.0
10
70.9823989868164
20
76.4552001953125
40
0.0
41
0.0
42
0.0
10
70.9020004272461
20
76.4358978271484
40
0.0
41
0.0
42
0.0
10
70.592399597168
20
76.3679962158203
40
0.0
41
0.0
42
0.0
10
70.5183029174805
20
76.3798980712891
40
0.0
41
0.0
42
0.0
10
70.4844970703125
20
76.3798980712891
40
0.0
41
0.0
42
0.0
10
70.0809020996094
20
76.1952972412109
40
0.0
41
0.0
42
0.0
10
69.9877014160156
20
76.1821975708008
40
0.0
41
0.0
42
0.0
10
69.7863998413086
20
76.0472030639648
40
0.0
41
0.0
42
0.0
10
69.6816024780273
20
76.0020980834961
40
0.0
41
0.0
42
0.0
10
69.6613998413086
20
75.9832000732422
40
0.0
41
0.0
42
0.0
10
69.4981002807617
20
75.6692962646484
40
0.0
41
0.0
42
0.0
10
69.4739990234375
20
75.620002746582
40
0.0
41
0.0
42
0.0
10
69.3934020996094
20
75.5129013061523
40
0.0
41
0.0
42
0.0
10
69.3933029174805
20
75.4832992553711
40
0.0
41
0.0
42
0.0
10
69.4366989135742
20
75.3525009155273
40
0.0
41
0.0
42
0.0
10
69.4599990844727
20
75.2993011474609
40
0.0
41
0.0
42
0.0
210
0.0
220
0.0
230
1.0
0
LWPOLYLINE
5
27
330
1C
100
AcDbEntity
67
0
8
0
62
256
6
ByLayer
370
-1
48
1.0
60
0
100
AcDbPolyline
90
115
70
1
38
0.0
39
0.0
10
69.4755020141602
20
75.5691986083984
40
0.0
41
0.0
42
0.0
10
69.5011978149414
20
75.6215972900391
40
0.0
41
0.0
42
0.0
10
69.6855010986328
20
75.9759979248047
40
0.0
41
0.0
42
0.0
10
69.7087020874023
20
75.9977035522461
40
0.0
41
0.0
42
0.0
10
69.7873992919922
20
76.0317001342773
40
0.0
41
0.0
42
0.0
10
70.0122985839844
20
76.1816024780273
40
0.0
41
0.0
42
0.0
10
70.1490020751953
20
76.2008972167969
40
0.0
41
0.0
42
0.0
10
70.5066986083984
20
76.3643035888672
40
0.0
41
0.0
42
0.0
10
70.6166000366211
20
76.3470993041992
40
0.0
41
0.0
42
0.0
10
70.652702331543
20
76.3470001220703
40
0.0
41
0.0
42
0.0
10
70.9968032836914
20
76.4235000610352
40
0.0
41
0.0
42
0.0
10
71.0782012939453
20
76.3916015625
40
0.0
41
0.0
42
0.0
10
71.0962982177734
20
76.3871994018555
40
0.0
41
0.0
42
0.0
10
71.13330078125
20
76.3871002197266
40
0.0
41
0.0
42
0.0
10
71.4977035522461
20
76.3980026245117
40
0.0
41
0.0
42
0.0
10
71.8674011230469
20
76.3841018676758
40
0.0
41
0.0
42
0.0
10
71.9847030639648
20
76.3283004760742
40
0.0
41
0.0
42
0.0
10
72.0185012817383
20
76.3282012939453
40
0.0
41
0.0
42
0.0
10
72.3740997314453
20
76.3776016235352
40
0.0
41
0.0
42
0.0
10
72.4919967651367
20
76.1732025146484
40
0.0
41
0.0
42
0.0
10
72.5037994384766
20
76.1734008789062
40
0.0
41
0.0
42
0.0
10
72.5880966186523
20
76.4828033447266
40
0.0
41
0.0
42
0.0
10
72.5879974365234
20
76.5100021362305
40
0.0
41
0.0
42
0.0
10
72.5114974975586
20
76.573600769043
40
0.0
41
0.0
42
0.0
10
72.1166000366211
20
76.6128997802734
40
0.0
41
0.0
42
0.0
10
72.0046005249023
20
76.967903137207
40
0.0
41
0.0
42
0.0
10
71.9869003295898
20
76.967903137207
40
0.0
41
0.0
42
0.0
10
71.9868011474609
20
77.0080032348633
40
0.0
41
0.0
42
0.0
10
71.765998840332
20
77.1399993896484
40
0.0
41
0.0
42
0.0
10
71.5804977416992
20
77.5092010498047
40
0.0
41
0.0
42
0.0
10
71.5048980712891
20
77.5765991210938
40
0.0
41
0.0
42
0.0
10
71.4471969604492
20
77.6426010131836
40
0.0
41
0.0
42
0.0
10
71.3044967651367
20
78.0145034790039
40
0.0
41
0.0
42
0.0
10
71.2400970458984
20
78.4188003540039
40
0.0
41
0.0
42
0.0
10
71.1997985839844
20
78.5074996948242
40
0.0
41
0.0
42
0.0
10
71.2522964477539
20
78.8863983154297
40
0.0
41
0.0
42
0.0
10
71.252197265625
20
78.9240036010742
40
0.0
41
0.0
42
0.0
10
71.2462005615234
20
78.9904022216797
40
0.0
41
0.0
42
0.0
10
71.3184967041016
20
79.0894012451172
40
0.0
41
0.0
42
0.0
10
71.352897644043
20
79.1182022094727
40
0.0
41
0.0
42
0.0
10
71.5074005126953
20
79.3395004272461
40
0.0
41
0.0
42
0.0
10
71.5836029052734
20
79.3330001831055
40
0.0
41
0.0
42
0.0
10
71.6196975708008
20
79.3329010009766
40
0.0
41
0.0
42
0.0
10
71.9962997436523
20
79.4412994384766
40
0.0
41
0.0
42
0.0
10
72.0839004516602
20
79.3935012817383
40
0.0
41
0.0
42
0.0
10
72.1211013793945
20
79.3787002563477
40
0.0
41
0.0
42
0.0
10
72.4869003295898
20
79.2987976074219
40
0.0
41
0.0
42
0.0
10
72.8572006225586
20
79.11669921875
40
0.0
41
0.0
42
0.0
10
72.9235000610352
20
79.0522994995117
40
0.0
41
0.0
42
0.0
10
72.9971008300781
20
78.9954986572266
40
0.0
41
0.0
42
0.0
10
73.0963973999023
20
78.8928985595703
40
0.0
41
0.0
42
0.0
10
73.3615036010742
20
78.6725997924805
40
0.0
41
0.0
42
0.0
10
73.3802032470703
20
78.6371994018555
40
0.0
41
0.0
42
0.0
10
73.4779968261719
20
78.4899978637695
40
0.0
41
0.0
42
0.0
10
73.4885025024414
20
78.4657974243164
40
0.0
41
0.0
42
0.0
10
73.4975967407227
20
78.4490966796875
40
0.0
41
0.0
42
0.0
10
73.8405990600586
20
77.9888000488281
40
0.0
41
0.0
42
0.0
10
73.9362030029297
20
77.5507965087891
40
0.0
41
0.0
42
0.0
10
73.9689025878906
20
77.4906005859375
40
0.0
41
0.0
42
0.0
10
73.9935989379883
20
77.4516983032227
40
0.0
41
0.0
42
0.0
10
73.9974975585938
20
77.4308013916016
40
0.0
41
0.0
42
0.0
10
74.0184020996094
20
77.4307022094727
40
0.0
41
0.0
42
0.0
10
74.4732971191406
20
77.4968032836914
40
0.0
41
0.0
42
0.0
10
74.4794998168945
20
77.4859008789062
40
0.0
41
0.0
42
0.0
10
74.0901031494141
20
77.0123977661133
40
0.0
41
0.0
42
0.0
10
74.0899963378906
20
76.9847030639648
40
0.0
41
0.0
42
0.0
10
74.1464996337891
20
76.8674011230469
40
0.0
41
0.0
42
0.0
10
74.0848007202148
20
76.5152969360352
40
0.0
41
0.0
42
0.0
10
74.0578994750977
20
76.4179000854492
40
0.0
41
0.0
42
0.0
10
73.997200012207
20
76.2817001342773
40
0.0
41
0.0
42
0.0
10
73.9208984375
20
76.3124008178711
40
0.0
41
0.0
42
0.0
10
73.8867034912109
20
76.3124008178711
40
0.0
41
0.0
42
0.0
10
73.4822998046875
20
76.2425994873047
40
0.0
41
0.0
42
0.0
10
73.1392974853516
20
76.2238006591797
40
0.0
41
0.0
42
0.0
10
73.0182037353516
20
76.3051986694336
40
0.0
41
0.0
42
0.0
10
73.0105972290039
20
76.3139038085938
40
0.0
41
0.0
42
0.0
10
72.9876022338867
20
76.3137969970703
40
0.0
41
0.0
42
0.0
10
72.8069000244141
20
76.1628036499023
40
0.0
41
0.0
42
0.0
10
72.5453033447266
20
76.0080032348633
40
0.0
41
0.0
42
0.0
10
72.5451965332031
20
75.9903030395508
40
0.0
41
0.0
42
0.0
10
72.589599609375
20
75.9561996459961
40
0.0
41
0.0
42
0.0
10
72.852897644043
20
75.777099609375
40
0.0
41
0.0
42
0.0
10
72.9896011352539
20
75.755500793457
40
0.0
41
0.0
42
0.0
10
73.0422973632812
20
75.7060012817383
40
0.0
41
0.0
42
0.0
10
73.1690979003906
20
75.4881973266602
40
0.0
41
0.0
42
0.0
10
73.2845993041992
20
75.0849990844727
40
0.0
41
0.0
42
0.0
10
73.3553009033203
20
75.0012969970703
40
0.0
41
0.0
42
0.0
10
73.0860977172852
20
74.7714996337891
40
0.0
41
0.0
42
0.0
10
72.9849014282227
20
74.7279968261719
40
0.0
41
0.0
42
0.0
10
72.8867034912109
20
74.7220001220703
40
0.0
41
0.0
42
0.0
10
72.8516998291016
20
74.7183990478516
40
0.0
41
0.0
42
0.0
10
72.5700988769531
20
74.5511016845703
40
0.0
41
0.0
42
0.0
10
72.5018005371094
20
74.50830078125
40
0.0
41
0.0
42
0.0
10
72.5018005371094
20
74.4934997558594
40
0.0
41
0.0
42
0.0
10
72.4804000854492
20
74.4934005737305
40
0.0
41
0.0
42
0.0
10
71.9889984130859
20
74.1878967285156
40
0.0
41
0.0
42
0.0
10
71.8554000854492
20
74.1429977416992
40
0.0
41
0.0
42
0.0
10
71.5152969360352
20
74.2041015625
40
0.0
41
0.0
42
0.0
10
71.2006988525391
20
74.2910003662109
40
0.0
41
0.0
42
0.0
10
71.1651992797852
20
74.2910003662109
40
0.0
41
0.0
42
0.0
10
70.9826965332031
20
74.2612991333008
40
0.0
41
0.0
42
0.0
10
70.8740997314453
20
74.250602722168
40
0.0
41
0.0
42
0.0
10
70.5137023925781
20
74.4023971557617
40
0.0
41
0.0
42
0.0
10
70.4580993652344
20
74.4134979248047
40
0.0
41
0.0
42
0.0
10
70.3143997192383
20
74.5020980834961
40
0.0
41
0.0
42
0.0
10
70.0671997070312
20
74.6660995483398
40
0.0
41
0.0
42
0.0
10
70.0117034912109
20
74.67919921875
40
0.0
41
0.0
42
0.0
10
69.9120025634766
20
74.7415008544922
40
0.0
41
0.0
42
0.0
10
69.8483963012695
20
74.8019027709961
40
0.0
41
0.0
42
0.0
10
69.6165008544922
20
75.0074996948242
40
0.0
41
0.0
42
0.0
10
69.5007019042969
20
75.3025970458984
40
0.0
41
0.0
42
0.0
10
69.473503112793
20
75.3553009033203
40
0.0
41
0.0
42
0.0
10
69.446403503418
20
75.4173965454102
40
0.0
41
0.0
42
0.0
10
69.4205017089844
20
75.4960021972656
40
0.0
41
0.0
42
0.0
10
69.4755020141602
20
75.5691986083984
40
0.0
41
0.0
42
0.0
210
0.0
220
0.0
230
1.0
0
LWPOLYLINE
5
28
330
1C
100
AcDbEntity
67
0
8
0
62
256
6
ByLayer
370
-1
48
1.0
60
0
100
AcDbPolyline
90
114
70
1
38
0.0
39
0.0
10
70.6602020263672
20
71.5074005126953
40
0.0
41
0.0
42
0.0
10
70.6669006347656
20
71.5836029052734
40
0.0
41
0.0
42
0.0
10
70.6668014526367
20
71.6196975708008
40
0.0
41
0.0
42
0.0
10
70.5584030151367
20
71.9962997436523
40
0.0
41
0.0
42
0.0
10
70.6063003540039
20
72.0839004516602
40
0.0
41
0.0
42
0.0
10
70.6210021972656
20
72.1211013793945
40
0.0
41
0.0
42
0.0
10
70.7009963989258
20
72.4869003295898
40
0.0
41
0.0
42
0.0
10
70.8831024169922
20
72.8572006225586
40
0.0
41
0.0
42
0.0
10
70.9475021362305
20
72.9235000610352
40
0.0
41
0.0
42
0.0
10
71.0042037963867
20
72.997200012207
40
0.0
41
0.0
42
0.0
10
71.1067962646484
20
73.0964965820312
40
0.0
41
0.0
42
0.0
10
71.3272018432617
20
73.3616027832031
40
0.0
41
0.0
42
0.0
10
71.3626022338867
20
73.3803024291992
40
0.0
41
0.0
42
0.0
10
71.5099029541016
20
73.4779968261719
40
0.0
41
0.0
42
0.0
10
71.5339965820312
20
73.4885025024414
40
0.0
41
0.0
42
0.0
10
71.5506973266602
20
73.4977035522461
40
0.0
41
0.0
42
0.0
10
72.0110015869141
20
73.8405990600586
40
0.0
41
0.0
42
0.0
10
72.4489974975586
20
73.9362030029297
40
0.0
41
0.0
42
0.0
10
72.5093002319336
20
73.9690017700195
40
0.0
41
0.0
42
0.0
10
72.5481033325195
20
73.9935989379883
40
0.0
41
0.0
42
0.0
10
72.5690994262695
20
73.9974975585938
40
0.0
41
0.0
42
0.0
10
72.5690002441406
20
74.0184020996094
40
0.0
41
0.0
42
0.0
10
72.5030975341797
20
74.4732971191406
40
0.0
41
0.0
42
0.0
10
72.5139999389648
20
74.4794998168945
40
0.0
41
0.0
42
0.0
10
72.9875030517578
20
74.0901031494141
40
0.0
41
0.0
42
0.0
10
73.0150985717773
20
74.0901031494141
40
0.0
41
0.0
42
0.0
10
73.1324996948242
20
74.1464996337891
40
0.0
41
0.0
42
0.0
10
73.4845962524414
20
74.0848007202148
40
0.0
41
0.0
42
0.0
10
73.5820007324219
20
74.0578994750977
40
0.0
41
0.0
42
0.0
10
73.7180023193359
20
73.9971008300781
40
0.0
41
0.0
42
0.0
10
73.6875
20
73.9208984375
40
0.0
41
0.0
42
0.0
10
73.6873016357422
20
73.8867034912109
40
0.0
41
0.0
42
0.0
10
73.7571029663086
20
73.4822998046875
40
0.0
41
0.0
42
0.0
10
73.7759017944336
20
73.1393966674805
40
0.0
41
0.0
42
0.0
10
73.6946029663086
20
73.0180969238281
40
0.0
41
0.0
42
0.0
10
73.6859970092773
20
73.010498046875
40
0.0
41
0.0
42
0.0
10
73.6858978271484
20
72.9876022338867
40
0.0
41
0.0
42
0.0
10
73.8369979858398
20
72.8069000244141
40
0.0
41
0.0
42
0.0
10
73.9918975830078
20
72.5453033447266
40
0.0
41
0.0
42
0.0
10
74.0095977783203
20
72.5451965332031
40
0.0
41
0.0
42
0.0
10
74.0435028076172
20
72.5896987915039
40
0.0
41
0.0
42
0.0
10
74.2226028442383
20
72.852897644043
40
0.0
41
0.0
42
0.0
10
74.2442016601562
20
72.9896011352539
40
0.0
41
0.0
42
0.0
10
74.2938003540039
20
73.0422973632812
40
0.0
41
0.0
42
0.0
10
74.5115966796875
20
73.1690979003906
40
0.0
41
0.0
42
0.0
10
74.9148025512695
20
73.2846984863281
40
0.0
41
0.0
42
0.0
10
74.9984970092773
20
73.3552017211914
40
0.0
41
0.0
42
0.0
10
75.2282028198242
20
73.0860977172852
40
0.0
41
0.0
42
0.0
10
75.2716979980469
20
72.9849014282227
40
0.0
41
0.0
42
0.0
10
75.277702331543
20
72.8867034912109
40
0.0
41
0.0
42
0.0
10
75.2813034057617
20
72.8516998291016
40
0.0
41
0.0
42
0.0
10
75.448600769043
20
72.5699996948242
40
0.0
41
0.0
42
0.0
10
75.4916000366211
20
72.5016021728516
40
0.0
41
0.0
42
0.0
10
75.4987030029297
20
72.5016021728516
40
0.0
41
0.0
42
0.0
10
75.9171981811523
20
72.4192962646484
40
0.0
41
0.0
42
0.0
10
75.8137969970703
20
72.0173034667969
40
0.0
41
0.0
42
0.0
10
75.8136978149414
20
71.9833984375
40
0.0
41
0.0
42
0.0
10
75.8567962646484
20
71.8554000854492
40
0.0
41
0.0
42
0.0
10
75.7956008911133
20
71.5152969360352
40
0.0
41
0.0
42
0.0
10
75.7087020874023
20
71.2006988525391
40
0.0
41
0.0
42
0.0
10
75.7087020874023
20
71.1651992797852
40
0.0
41
0.0
42
0.0
10
75.7386016845703
20
70.9826965332031
40
0.0
41
0.0
42
0.0
10
75.7490997314453
20
70.8740997314453
40
0.0
41
0.0
42
0.0
10
75.597297668457
20
70.513801574707
40
0.0
41
0.0
42
0.0
10
75.5861968994141
20
70.4580993652344
40
0.0
41
0.0
42
0.0
10
75.4975967407227
20
70.3143997192383
40
0.0
41
0.0
42
0.0
10
75.3336029052734
20
70.0672988891602
40
0.0
41
0.0
42
0.0
10
75.3205032348633
20
70.0117034912109
40
0.0
41
0.0
42
0.0
10
75.2582015991211
20
69.9120025634766
40
0.0
41
0.0
42
0.0
10
75.1978988647461
20
69.8483963012695
40
0.0
41
0.0
42
0.0
10
74.992301940918
20
69.6165008544922
40
0.0
41
0.0
42
0.0
10
74.6970977783203
20
69.5008010864258
40
0.0
41
0.0
42
0.0
10
74.6445007324219
20
69.4736022949219
40
0.0
41
0.0
42
0.0
10
74.5824966430664
20
69.4465026855469
40
0.0
41
0.0
42
0.0
10
74.5038986206055
20
69.4204025268555
40
0.0
41
0.0
42
0.0
10
74.4306030273438
20
69.4754028320312
40
0.0
41
0.0
42
0.0
10
74.3780975341797
20
69.5010986328125
40
0.0
41
0.0
42
0.0
10
74.0236968994141
20
69.6854019165039
40
0.0
41
0.0
42
0.0
10
74.0020980834961
20
69.7087020874023
40
0.0
41
0.0
42
0.0
10
73.9681015014648
20
69.7873992919922
40
0.0
41
0.0
42
0.0
10
73.8198013305664
20
70.0096969604492
40
0.0
41
0.0
42
0.0
10
73.6510009765625
20
70.3789978027344
40
0.0
41
0.0
42
0.0
10
73.6341018676758
20
70.4989013671875
40
0.0
41
0.0
42
0.0
10
73.6528015136719
20
70.6166000366211
40
0.0
41
0.0
42
0.0
10
73.652702331543
20
70.6526031494141
40
0.0
41
0.0
42
0.0
10
73.5762023925781
20
70.9968032836914
40
0.0
41
0.0
42
0.0
10
73.6081008911133
20
71.0783004760742
40
0.0
41
0.0
42
0.0
10
73.6127014160156
20
71.0962982177734
40
0.0
41
0.0
42
0.0
10
73.6126022338867
20
71.13330078125
40
0.0
41
0.0
42
0.0
10
73.6020965576172
20
71.4863967895508
40
0.0
41
0.0
42
0.0
10
73.6532974243164
20
71.6380996704102
40
0.0
41
0.0
42
0.0
10
73.6717987060547
20
71.9858016967773
40
0.0
41
0.0
42
0.0
10
73.8794021606445
20
72.3656997680664
40
0.0
41
0.0
42
0.0
10
73.8790969848633
20
72.3955993652344
40
0.0
41
0.0
42
0.0
10
73.8320999145508
20
72.5022964477539
40
0.0
41
0.0
42
0.0
10
73.5170974731445
20
72.5880966186523
40
0.0
41
0.0
42
0.0
10
73.4897994995117
20
72.5879974365234
40
0.0
41
0.0
42
0.0
10
73.0482025146484
20
72.0590972900391
40
0.0
41
0.0
42
0.0
10
73.0319976806641
20
72.0160980224609
40
0.0
41
0.0
42
0.0
10
73.0319976806641
20
71.9869003295898
40
0.0
41
0.0
42
0.0
10
72.9918975830078
20
71.9869003295898
40
0.0
41
0.0
42
0.0
10
72.8599014282227
20
71.765998840332
40
0.0
41
0.0
42
0.0
10
72.4905014038086
20
71.5804977416992
40
0.0
41
0.0
42
0.0
10
72.4231033325195
20
71.504997253418
40
0.0
41
0.0
42
0.0
10
72.3572998046875
20
71.4471969604492
40
0.0
41
0.0
42
0.0
10
71.9853973388672
20
71.3044967651367
40
0.0
41
0.0
42
0.0
10
71.5811004638672
20
71.2400970458984
40
0.0
41
0.0
42
0.0
10
71.4924011230469
20
71.1997985839844
40
0.0
41
0.0
42
0.0
10
71.1135025024414
20
71.2524032592773
40
0.0
41
0.0
42
0.0
10
71.0758972167969
20
71.2522964477539
40
0.0
41
0.0
42
0.0
10
71.0095977783203
20
71.2462005615234
40
0.0
41
0.0
42
0.0
10
70.910400390625
20
71.3183975219727
40
0.0
41
0.0
42
0.0
10
70.88330078125
20
71.3508987426758
40
0.0
41
0.0
42
0.0
10
70.6602020263672
20
71.5074005126953
40
0.0
41
0.0
42
0.0
210
0.0
220
0.0
230
1.0
0
LWPOLYLINE
5
29
330
1C
100
AcDbEntity
67
0
8
0
62
256
6
ByLayer
370
-1
48
1.0
60
0
100
AcDbPolyline
90
78
70
1
38
0.0
39
0.0
10
71.6237030029297
20
65.4889984130859
40
0.0
41
0.0
42
0.0
10
71.6578979492188
20
65.4412002563477
40
0.0
41
0.0
42
0.0
10
71.8625030517578
20
65.1235961914062
40
0.0
41
0.0
42
0.0
10
71.9197006225586
20
65.0388031005859
40
0.0
41
0.0
42
0.0
10
71.9428024291992
20
65.0009994506836
40
0.0
41
0.0
42
0.0
10
71.9764022827148
20
65.0009994506836
40
0.0
41
0.0
42
0.0
10
71.9763031005859
20
65.0139999389648
40
0.0
41
0.0
42
0.0
10
71.9474029541016
20
65.0613021850586
40
0.0
41
0.0
42
0.0
10
71.9074020385742
20
65.1206970214844
40
0.0
41
0.0
42
0.0
10
71.6808013916016
20
65.4726028442383
40
0.0
41
0.0
42
0.0
10
71.6533966064453
20
65.5108032226562
40
0.0
41
0.0
42
0.0
10
71.5495986938477
20
65.9010009765625
40
0.0
41
0.0
42
0.0
10
71.526496887207
20
65.9945983886719
40
0.0
41
0.0
42
0.0
10
71.5910034179688
20
66.0879974365234
40
0.0
41
0.0
42
0.0
10
71.9559020996094
20
66.4988021850586
40
0.0
41
0.0
42
0.0
10
72.0134963989258
20
66.5127029418945
40
0.0
41
0.0
42
0.0
10
72.4179000854492
20
66.6788024902344
40
0.0
41
0.0
42
0.0
10
72.5134963989258
20
66.7078018188477
40
0.0
41
0.0
42
0.0
10
72.6076965332031
20
66.7406005859375
40
0.0
41
0.0
42
0.0
10
73.0130004882812
20
66.8962020874023
40
0.0
41
0.0
42
0.0
10
73.3024978637695
20
66.9873962402344
40
0.0
41
0.0
42
0.0
10
73.3974990844727
20
67.0207977294922
40
0.0
41
0.0
42
0.0
10
73.5139999389648
20
67.0572967529297
40
0.0
41
0.0
42
0.0
10
73.6104965209961
20
67.0839996337891
40
0.0
41
0.0
42
0.0
10
74.0179977416992
20
67.1494979858398
40
0.0
41
0.0
42
0.0
10
74.0824966430664
20
67.1510009765625
40
0.0
41
0.0
42
0.0
10
74.4845962524414
20
67.1026000976562
40
0.0
41
0.0
42
0.0
10
74.5824966430664
20
67.0698013305664
40
0.0
41
0.0
42
0.0
10
74.7433013916016
20
66.9992980957031
40
0.0
41
0.0
42
0.0
10
74.9884033203125
20
66.902702331543
40
0.0
41
0.0
42
0.0
10
75.084602355957
20
66.8556976318359
40
0.0
41
0.0
42
0.0
10
75.4897994995117
20
66.6331024169922
40
0.0
41
0.0
42
0.0
10
75.6240005493164
20
66.5625
40
0.0
41
0.0
42
0.0
10
75.7396011352539
20
66.4975967407227
40
0.0
41
0.0
42
0.0
10
75.9918975830078
20
66.3102035522461
40
0.0
41
0.0
42
0.0
10
76.4802017211914
20
65.9941024780273
40
0.0
41
0.0
42
0.0
10
76.4988021850586
20
65.951301574707
40
0.0
41
0.0
42
0.0
10
76.6794967651367
20
65.6071014404297
40
0.0
41
0.0
42
0.0
10
76.7294006347656
20
65.5007019042969
40
0.0
41
0.0
42
0.0
10
76.5143966674805
20
65.1032028198242
40
0.0
41
0.0
42
0.0
10
76.4983978271484
20
65.0766983032227
40
0.0
41
0.0
42
0.0
10
76.4693984985352
20
65.0151977539062
40
0.0
41
0.0
42
0.0
10
76.4693984985352
20
65.0009994506836
40
0.0
41
0.0
42
0.0
10
76.5345993041992
20
65.0009994506836
40
0.0
41
0.0
42
0.0
10
76.7978973388672
20
65.4852981567383
40
0.0
41
0.0
42
0.0
10
76.7976989746094
20
65.5152969360352
40
0.0
41
0.0
42
0.0
10
76.7580032348633
20
65.6003036499023
40
0.0
41
0.0
42
0.0
10
76.5886993408203
20
65.9227981567383
40
0.0
41
0.0
42
0.0
10
76.5487976074219
20
66.0040969848633
40
0.0
41
0.0
42
0.0
10
76.5099029541016
20
66.0223999023438
40
0.0
41
0.0
42
0.0
10
76.4536972045898
20
66.056999206543
40
0.0
41
0.0
42
0.0
10
76.0078964233398
20
66.3443984985352
40
0.0
41
0.0
42
0.0
10
75.7956008911133
20
66.502197265625
40
0.0
41
0.0
42
0.0
10
75.7003021240234
20
66.5556030273438
40
0.0
41
0.0
42
0.0
10
75.5099029541016
20
66.6559982299805
40
0.0
41
0.0
42
0.0
10
75.1452026367188
20
66.856201171875
40
0.0
41
0.0
42
0.0
10
75.0113983154297
20
66.9217987060547
40
0.0
41
0.0
42
0.0
10
74.8115997314453
20
67.0005035400391
40
0.0
41
0.0
42
0.0
10
74.6473007202148
20
67.0728988647461
40
0.0
41
0.0
42
0.0
10
74.5152969360352
20
67.1169967651367
40
0.0
41
0.0
42
0.0
10
74.1539001464844
20
67.1605987548828
40
0.0
41
0.0
42
0.0
10
73.9817962646484
20
67.1575012207031
40
0.0
41
0.0
42
0.0
10
73.6194000244141
20
67.0990982055664
40
0.0
41
0.0
42
0.0
10
73.4859008789062
20
67.0622024536133
40
0.0
41
0.0
42
0.0
10
73.3823013305664
20
67.0298004150391
40
0.0
41
0.0
42
0.0
10
73.247200012207
20
66.9822998046875
40
0.0
41
0.0
42
0.0
10
72.9869003295898
20
66.9001998901367
40
0.0
41
0.0
42
0.0
10
72.622200012207
20
66.7602005004883
40
0.0
41
0.0
42
0.0
10
72.4863967895508
20
66.7130966186523
40
0.0
41
0.0
42
0.0
10
72.3519973754883
20
66.6723022460938
40
0.0
41
0.0
42
0.0
10
71.9865036010742
20
66.5220031738281
40
0.0
41
0.0
42
0.0
10
71.8994979858398
20
66.5010986328125
40
0.0
41
0.0
42
0.0
10
71.5804977416992
20
66.1419982910156
40
0.0
41
0.0
42
0.0
10
71.4979019165039
20
66.0225982666016
40
0.0
41
0.0
42
0.0
10
71.4872970581055
20
66.0114974975586
40
0.0
41
0.0
42
0.0
10
71.4871978759766
20
65.9851989746094
40
0.0
41
0.0
42
0.0
10
71.4944000244141
20
65.9716033935547
40
0.0
41
0.0
42
0.0
10
71.6237030029297
20
65.4889984130859
40
0.0
41
0.0
42
0.0
210
0.0
220
0.0
230
1.0
0
LWPOLYLINE
5
2A
330
1C
100
AcDbEntity
67
0
8
0
62
256
6
ByLayer
370
-1
48
1.0
60
0
100
AcDbPolyline
90
118
70
1
38
0.0
39
0.0
10
72.9156036376953
20
74.7217025756836
40
0.0
41
0.0
42
0.0
10
73.0149993896484
20
74.7277984619141
40
0.0
41
0.0
42
0.0
10
73.1436996459961
20
74.783203125
40
0.0
41
0.0
42
0.0
10
73.370002746582
20
74.9766006469727
40
0.0
41
0.0
42
0.0
10
73.3872985839844
20
74.9900970458984
40
0.0
41
0.0
42
0.0
10
73.3871994018555
20
75.0121994018555
40
0.0
41
0.0
42
0.0
10
73.2753982543945
20
75.1447982788086
40
0.0
41
0.0
42
0.0
10
73.1703033447266
20
75.5115966796875
40
0.0
41
0.0
42
0.0
10
73.0355987548828
20
75.7427978515625
40
0.0
41
0.0
42
0.0
10
73.0102996826172
20
75.7667007446289
40
0.0
41
0.0
42
0.0
10
72.9169998168945
20
75.7813034057617
40
0.0
41
0.0
42
0.0
10
72.7244033813477
20
75.9124984741211
40
0.0
41
0.0
42
0.0
10
72.6107025146484
20
75.9997024536133
40
0.0
41
0.0
42
0.0
10
72.7966995239258
20
76.1098022460938
40
0.0
41
0.0
42
0.0
10
72.9981994628906
20
76.2781982421875
40
0.0
41
0.0
42
0.0
10
73.0820007324219
20
76.2220001220703
40
0.0
41
0.0
42
0.0
10
73.1156997680664
20
76.2198028564453
40
0.0
41
0.0
42
0.0
10
73.1544036865234
20
76.2197036743164
40
0.0
41
0.0
42
0.0
10
73.5176010131836
20
76.239501953125
40
0.0
41
0.0
42
0.0
10
73.8592987060547
20
76.2984008789062
40
0.0
41
0.0
42
0.0
10
73.9841003417969
20
76.2473983764648
40
0.0
41
0.0
42
0.0
10
74.0064010620117
20
76.2474975585938
40
0.0
41
0.0
42
0.0
10
74.0531005859375
20
76.3520965576172
40
0.0
41
0.0
42
0.0
10
74.089599609375
20
76.4845962524414
40
0.0
41
0.0
42
0.0
10
74.1531982421875
20
76.8469009399414
40
0.0
41
0.0
42
0.0
10
74.1541976928711
20
76.9203033447266
40
0.0
41
0.0
42
0.0
10
74.1169967651367
20
76.9977035522461
40
0.0
41
0.0
42
0.0
10
74.4009017944336
20
77.342903137207
40
0.0
41
0.0
42
0.0
10
74.4999008178711
20
77.4559020996094
40
0.0
41
0.0
42
0.0
10
74.7217025756836
20
77.0842971801758
40
0.0
41
0.0
42
0.0
10
74.7277984619141
20
76.9849014282227
40
0.0
41
0.0
42
0.0
10
74.7830963134766
20
76.8561019897461
40
0.0
41
0.0
42
0.0
10
74.9765014648438
20
76.6296997070312
40
0.0
41
0.0
42
0.0
10
74.9900970458984
20
76.6126022338867
40
0.0
41
0.0
42
0.0
10
75.0122985839844
20
76.6125030517578
40
0.0
41
0.0
42
0.0
10
75.1448974609375
20
76.7242965698242
40
0.0
41
0.0
42
0.0
10
75.5117034912109
20
76.8293991088867
40
0.0
41
0.0
42
0.0
10
75.7427978515625
20
76.9642028808594
40
0.0
41
0.0
42
0.0
10
75.7667007446289
20
76.9896011352539
40
0.0
41
0.0
42
0.0
10
75.7813034057617
20
77.0829010009766
40
0.0
41
0.0
42
0.0
10
75.9124984741211
20
77.2752990722656
40
0.0
41
0.0
42
0.0
10
75.9997024536133
20
77.3889999389648
40
0.0
41
0.0
42
0.0
10
76.1097030639648
20
77.2031021118164
40
0.0
41
0.0
42
0.0
10
76.2782974243164
20
77.0016021728516
40
0.0
41
0.0
42
0.0
10
76.2220001220703
20
76.9179000854492
40
0.0
41
0.0
42
0.0
10
76.2198028564453
20
76.8842010498047
40
0.0
41
0.0
42
0.0
10
76.2197036743164
20
76.8454971313477
40
0.0
41
0.0
42
0.0
10
76.2394027709961
20
76.4822998046875
40
0.0
41
0.0
42
0.0
10
76.2985000610352
20
76.1406021118164
40
0.0
41
0.0
42
0.0
10
76.2473983764648
20
76.0158004760742
40
0.0
41
0.0
42
0.0
10
76.2473983764648
20
75.9934997558594
40
0.0
41
0.0
42
0.0
10
76.3520965576172
20
75.9466018676758
40
0.0
41
0.0
42
0.0
10
76.4844970703125
20
75.9101028442383
40
0.0
41
0.0
42
0.0
10
76.8469009399414
20
75.8464965820312
40
0.0
41
0.0
42
0.0
10
76.9203033447266
20
75.8454971313477
40
0.0
41
0.0
42
0.0
10
76.9977035522461
20
75.882698059082
40
0.0
41
0.0
42
0.0
10
77.3427963256836
20
75.5988998413086
40
0.0
41
0.0
42
0.0
10
77.4561004638672
20
75.5
40
0.0
41
0.0
42
0.0
10
77.0842971801758
20
75.2779998779297
40
0.0
41
0.0
42
0.0
10
76.9849014282227
20
75.2718963623047
40
0.0
41
0.0
42
0.0
10
76.856201171875
20
75.2165985107422
40
0.0
41
0.0
42
0.0
10
76.6297988891602
20
75.0232009887695
40
0.0
41
0.0
42
0.0
10
76.6126022338867
20
75.0096969604492
40
0.0
41
0.0
42
0.0
10
76.6125030517578
20
74.9876022338867
40
0.0
41
0.0
42
0.0
10
76.7242965698242
20
74.8550033569336
40
0.0
41
0.0
42
0.0
10
76.8292999267578
20
74.4881973266602
40
0.0
41
0.0
42
0.0
10
76.9641036987305
20
74.2568969726562
40
0.0
41
0.0
42
0.0
10
76.9896011352539
20
74.2330017089844
40
0.0
41
0.0
42
0.0
10
77.0828018188477
20
74.2183990478516
40
0.0
41
0.0
42
0.0
10
77.2752990722656
20
74.0873031616211
40
0.0
41
0.0
42
0.0
10
77.3892974853516
20
74.0002975463867
40
0.0
41
0.0
42
0.0
10
77.2031021118164
20
73.8899993896484
40
0.0
41
0.0
42
0.0
10
77.0016021728516
20
73.7213973999023
40
0.0
41
0.0
42
0.0
10
76.9179000854492
20
73.777702331543
40
0.0
41
0.0
42
0.0
10
76.8842010498047
20
73.7800979614258
40
0.0
41
0.0
42
0.0
10
76.8454971313477
20
73.7799987792969
40
0.0
41
0.0
42
0.0
10
76.4822998046875
20
73.7602996826172
40
0.0
41
0.0
42
0.0
10
76.1406021118164
20
73.701301574707
40
0.0
41
0.0
42
0.0
10
76.0158004760742
20
73.7522964477539
40
0.0
41
0.0
42
0.0
10
75.9934997558594
20
73.7524032592773
40
0.0
41
0.0
42
0.0
10
75.9466018676758
20
73.6477966308594
40
0.0
41
0.0
42
0.0
10
75.9101028442383
20
73.5154037475586
40
0.0
41
0.0
42
0.0
10
75.8464965820312
20
73.1529998779297
40
0.0
41
0.0
42
0.0
10
75.8454971313477
20
73.0795974731445
40
0.0
41
0.0
42
0.0
10
75.8827972412109
20
73.002197265625
40
0.0
41
0.0
42
0.0
10
75.5988998413086
20
72.6568984985352
40
0.0
41
0.0
42
0.0
10
75.5
20
72.5436019897461
40
0.0
41
0.0
42
0.0
10
75.2779998779297
20
72.9156036376953
40
0.0
41
0.0
42
0.0
10
75.2718963623047
20
73.0149993896484
40
0.0
41
0.0
42
0.0
10
75.2165985107422
20
73.1436996459961
40
0.0
41
0.0
42
0.0
10
75.0231018066406
20
73.370002746582
40
0.0
41
0.0
42
0.0
10
75.0096969604492
20
73.3872985839844
40
0.0
41
0.0
42
0.0
10
74.9876022338867
20
73.3871994018555
40
0.0
41
0.0
42
0.0
10
74.8550033569336
20
73.2753982543945
40
0.0
41
0.0
42
0.0
10
74.4882965087891
20
73.1704025268555
40
0.0
41
0.0
42
0.0
10
74.2568969726562
20
73.0356979370117
40
0.0
41
0.0
42
0.0
10
74.2331008911133
20
73.0102996826172
40
0.0
41
0.0
42
0.0
10
74.2184982299805
20
72.9169998168945
40
0.0
41
0.0
42
0.0
10
74.08740234375
20
72.7245025634766
40
0.0
41
0.0
42
0.0
10
74.0002975463867
20
72.6103973388672
40
0.0
41
0.0
42
0.0
10
73.8899993896484
20
72.7966003417969
40
0.0
41
0.0
42
0.0
10
73.7214965820312
20
72.9981994628906
40
0.0
41
0.0
42
0.0
10
73.777702331543
20
73.0820007324219
40
0.0
41
0.0
42
0.0
10
73.7800979614258
20
73.1156997680664
40
0.0
41
0.0
42
0.0
10
73.7799987792969
20
73.1544036865234
40
0.0
41
0.0
42
0.0
10
73.7602005004883
20
73.5176010131836
40
0.0
41
0.0
42
0.0
10
73.701301574707
20
73.8592987060547
40
0.0
41
0.0
42
0.0
10
73.7522964477539
20
73.9841003417969
40
0.0
41
0.0
42
0.0
10
73.7522964477539
20
74.0063018798828
40
0.0
41
0.0
42
0.0
10
73.6477966308594
20
74.0531005859375
40
0.0
41
0.0
42
0.0
10
73.5152969360352
20
74.089599609375
40
0.0
41
0.0
42
0.0
10
73.1529998779297
20
74.1531982421875
40
0.0
41
0.0
42
0.0
10
73.0795974731445
20
74.1541976928711
40
0.0
41
0.0
42
0.0
10
73.002197265625
20
74.1168975830078
40
0.0
41
0.0
42
0.0
10
72.6568984985352
20
74.4008026123047
40
0.0
41
0.0
42
0.0
10
72.5441970825195
20
74.4994964599609
40
0.0
41
0.0
42
0.0
10
72.6001968383789
20
74.5344009399414
40
0.0
41
0.0
42
0.0
10
72.9156036376953
20
74.7217025756836
40
0.0
41
0.0
42
0.0
210
0.0
220
0.0
230
1.0
0
LWPOLYLINE
5
2B
330
1C
100
AcDbEntity
67
0
8
0
62
256
6
ByLayer
370
-1
48
1.0
60
0
100
AcDbPolyline
90
84
70
1
38
0.0
39
0.0
10
73.5908966064453
20
83.9151992797852
40
0.0
41
0.0
42
0.0
10
73.8561019897461
20
83.736701965332
40
0.0
41
0.0
42
0.0
10
73.9461975097656
20
83.6843032836914
40
0.0
41
0.0
42
0.0
10
73.9917984008789
20
83.6552963256836
40
0.0
41
0.0
42
0.0
10
74.2042999267578
20
83.4975967407227
40
0.0
41
0.0
42
0.0
10
74.2994003295898
20
83.4440002441406
40
0.0
41
0.0
42
0.0
10
74.4898986816406
20
83.3435974121094
40
0.0
41
0.0
42
0.0
10
74.8545989990234
20
83.1434020996094
40
0.0
41
0.0
42
0.0
10
74.9884033203125
20
83.0779037475586
40
0.0
41
0.0
42
0.0
10
75.188102722168
20
82.9992980957031
40
0.0
41
0.0
42
0.0
10
75.3525009155273
20
82.9268035888672
40
0.0
41
0.0
42
0.0
10
75.4832000732422
20
82.8831024169922
40
0.0
41
0.0
42
0.0
10
75.6224975585938
20
82.8853988647461
40
0.0
41
0.0
42
0.0
10
75.981201171875
20
82.8423004150391
40
0.0
41
0.0
42
0.0
10
76.0170974731445
20
82.8422012329102
40
0.0
41
0.0
42
0.0
10
76.1504974365234
20
82.8790969848633
40
0.0
41
0.0
42
0.0
10
76.5150985717773
20
82.9378967285156
40
0.0
41
0.0
42
0.0
10
76.6175003051758
20
82.9700012207031
40
0.0
41
0.0
42
0.0
10
76.7526016235352
20
83.0175018310547
40
0.0
41
0.0
42
0.0
10
77.0133972167969
20
83.0996017456055
40
0.0
41
0.0
42
0.0
10
77.1476974487305
20
83.1463012695312
40
0.0
41
0.0
42
0.0
10
77.5131988525391
20
83.2864990234375
40
0.0
41
0.0
42
0.0
10
77.6479034423828
20
83.3274002075195
40
0.0
41
0.0
42
0.0
10
78.0133972167969
20
83.4776992797852
40
0.0
41
0.0
42
0.0
10
78.1043014526367
20
83.4998016357422
40
0.0
41
0.0
42
0.0
10
78.1278991699219
20
83.5121002197266
40
0.0
41
0.0
42
0.0
10
78.4216003417969
20
83.8607025146484
40
0.0
41
0.0
42
0.0
10
78.4340972900391
20
83.8693008422852
40
0.0
41
0.0
42
0.0
10
78.5031967163086
20
83.9776992797852
40
0.0
41
0.0
42
0.0
10
78.5126037597656
20
83.9880981445312
40
0.0
41
0.0
42
0.0
10
78.5124969482422
20
84.0147018432617
40
0.0
41
0.0
42
0.0
10
78.5054016113281
20
84.0278015136719
40
0.0
41
0.0
42
0.0
10
78.4997024536133
20
84.0462036132812
40
0.0
41
0.0
42
0.0
10
78.3759002685547
20
84.5112991333008
40
0.0
41
0.0
42
0.0
10
78.1508026123047
20
84.8598022460938
40
0.0
41
0.0
42
0.0
10
78.0576019287109
20
84.9990005493164
40
0.0
41
0.0
42
0.0
10
78.0234985351562
20
84.9990005493164
40
0.0
41
0.0
42
0.0
10
78.0233993530273
20
84.986198425293
40
0.0
41
0.0
42
0.0
10
78.1501007080078
20
84.7934036254883
40
0.0
41
0.0
42
0.0
10
78.3463973999023
20
84.4885025024414
40
0.0
41
0.0
42
0.0
10
78.4502029418945
20
84.098503112793
40
0.0
41
0.0
42
0.0
10
78.4733963012695
20
84.0052032470703
40
0.0
41
0.0
42
0.0
10
78.4172973632812
20
83.9167022705078
40
0.0
41
0.0
42
0.0
10
78.4065017700195
20
83.9093017578125
40
0.0
41
0.0
42
0.0
10
78.0785980224609
20
83.5202026367188
40
0.0
41
0.0
42
0.0
10
78.0400009155273
20
83.5000991821289
40
0.0
41
0.0
42
0.0
10
77.9865036010742
20
83.4870986938477
40
0.0
41
0.0
42
0.0
10
77.5820007324219
20
83.3209991455078
40
0.0
41
0.0
42
0.0
10
77.4868011474609
20
83.2919998168945
40
0.0
41
0.0
42
0.0
10
77.0821990966797
20
83.1367034912109
40
0.0
41
0.0
42
0.0
10
76.9866027832031
20
83.1035003662109
40
0.0
41
0.0
42
0.0
10
76.6973037719727
20
83.0123977661133
40
0.0
41
0.0
42
0.0
10
76.6023025512695
20
82.9789962768555
40
0.0
41
0.0
42
0.0
10
76.4848022460938
20
82.9421005249023
40
0.0
41
0.0
42
0.0
10
76.0793991088867
20
82.8768005371094
40
0.0
41
0.0
42
0.0
10
75.9936981201172
20
82.8529968261719
40
0.0
41
0.0
42
0.0
10
75.6138000488281
20
82.8989028930664
40
0.0
41
0.0
42
0.0
10
75.5140991210938
20
82.8974990844727
40
0.0
41
0.0
42
0.0
10
75.4173965454102
20
82.9299011230469
40
0.0
41
0.0
42
0.0
10
75.2565002441406
20
83.0005035400391
40
0.0
41
0.0
42
0.0
10
75.0113983154297
20
83.0970001220703
40
0.0
41
0.0
42
0.0
10
74.9151992797852
20
83.1440963745117
40
0.0
41
0.0
42
0.0
10
74.5100021362305
20
83.3665008544922
40
0.0
41
0.0
42
0.0
10
74.3758010864258
20
83.4372024536133
40
0.0
41
0.0
42
0.0
10
74.2602005004883
20
83.502197265625
40
0.0
41
0.0
42
0.0
10
74.0082015991211
20
83.6893005371094
40
0.0
41
0.0
42
0.0
10
73.9135971069336
20
83.7460021972656
40
0.0
41
0.0
42
0.0
10
73.6190032958984
20
83.9441986083984
40
0.0
41
0.0
42
0.0
10
73.5195999145508
20
84.005500793457
40
0.0
41
0.0
42
0.0
10
73.5009994506836
20
84.0485000610352
40
0.0
41
0.0
42
0.0
10
73.3202972412109
20
84.3926010131836
40
0.0
41
0.0
42
0.0
10
73.2705001831055
20
84.4991989135742
40
0.0
41
0.0
42
0.0
10
73.4854965209961
20
84.8966979980469
40
0.0
41
0.0
42
0.0
10
73.5014038085938
20
84.9231033325195
40
0.0
41
0.0
42
0.0
10
73.5305023193359
20
84.9847030639648
40
0.0
41
0.0
42
0.0
10
73.5305023193359
20
84.9990005493164
40
0.0
41
0.0
42
0.0
10
73.4651031494141
20
84.9990005493164
40
0.0
41
0.0
42
0.0
10
73.2020034790039
20
84.5146026611328
40
0.0
41
0.0
42
0.0
10
73.2018966674805
20
84.4845962524414
40
0.0
41
0.0
42
0.0
10
73.24169921875
20
84.3993988037109
40
0.0
41
0.0
42
0.0
10
73.411003112793
20
84.0768966674805
40
0.0
41
0.0
42
0.0
10
73.4508972167969
20
83.9956970214844
40
0.0
41
0.0
42
0.0
10
73.4898986816406
20
83.9773025512695
40
0.0
41
0.0
42
0.0
10
73.5908966064453
20
83.9151992797852
40
0.0
41
0.0
42
0.0
210
0.0
220
0.0
230
1.0
0
LWPOLYLINE
5
2C
330
1C
100
AcDbEntity
67
0
8
0
62
256
6
ByLayer
370
-1
48
1.0
60
0
100
AcDbPolyline
90
110
70
1
38
0.0
39
0.0
10
74.1859970092773
20
78.0165023803711
40
0.0
41
0.0
42
0.0
10
74.1429977416992
20
78.1445007324219
40
0.0
41
0.0
42
0.0
10
74.2041015625
20
78.4845962524414
40
0.0
41
0.0
42
0.0
10
74.2910003662109
20
78.7991027832031
40
0.0
41
0.0
42
0.0
10
74.2910003662109
20
78.834602355957
40
0.0
41
0.0
42
0.0
10
74.2612991333008
20
79.0171966552734
40
0.0
41
0.0
42
0.0
10
74.250602722168
20
79.1258010864258
40
0.0
41
0.0
42
0.0
10
74.4023971557617
20
79.486198425293
40
0.0
41
0.0
42
0.0
10
74.4135971069336
20
79.5417022705078
40
0.0
41
0.0
42
0.0
10
74.502197265625
20
79.6854019165039
40
0.0
41
0.0
42
0.0
10
74.6660995483398
20
79.9326019287109
40
0.0
41
0.0
42
0.0
10
74.67919921875
20
79.9881973266602
40
0.0
41
0.0
42
0.0
10
74.7416000366211
20
80.0878982543945
40
0.0
41
0.0
42
0.0
10
74.802001953125
20
80.1513977050781
40
0.0
41
0.0
42
0.0
10
75.0075988769531
20
80.3832015991211
40
0.0
41
0.0
42
0.0
10
75.3026962280273
20
80.4990997314453
40
0.0
41
0.0
42
0.0
10
75.3554000854492
20
80.5261993408203
40
0.0
41
0.0
42
0.0
10
75.4173965454102
20
80.5532989501953
40
0.0
41
0.0
42
0.0
10
75.4960021972656
20
80.5792999267578
40
0.0
41
0.0
42
0.0
10
75.5690994262695
20
80.524299621582
40
0.0
41
0.0
42
0.0
10
75.6215972900391
20
80.4985961914062
40
0.0
41
0.0
42
0.0
10
75.9759979248047
20
80.3143005371094
40
0.0
41
0.0
42
0.0
10
75.9977035522461
20
80.2910995483398
40
0.0
41
0.0
42
0.0
10
76.0316009521484
20
80.21240234375
40
0.0
41
0.0
42
0.0
10
76.1816024780273
20
79.9876022338867
40
0.0
41
0.0
42
0.0
10
76.200798034668
20
79.8508987426758
40
0.0
41
0.0
42
0.0
10
76.3643035888672
20
79.4932022094727
40
0.0
41
0.0
42
0.0
10
76.3470993041992
20
79.38330078125
40
0.0
41
0.0
42
0.0
10
76.3469009399414
20
79.3471984863281
40
0.0
41
0.0
42
0.0
10
76.4235000610352
20
79.0030975341797
40
0.0
41
0.0
42
0.0
10
76.3916015625
20
78.921501159668
40
0.0
41
0.0
42
0.0
10
76.3871994018555
20
78.9035034179688
40
0.0
41
0.0
42
0.0
10
76.3871002197266
20
78.8665008544922
40
0.0
41
0.0
42
0.0
10
76.3975982666016
20
78.5134963989258
40
0.0
41
0.0
42
0.0
10
76.3463973999023
20
78.361701965332
40
0.0
41
0.0
42
0.0
10
76.3280029296875
20
78.0140991210938
40
0.0
41
0.0
42
0.0
10
76.1203002929688
20
77.6341018676758
40
0.0
41
0.0
42
0.0
10
76.1205978393555
20
77.6042022705078
40
0.0
41
0.0
42
0.0
10
76.1677017211914
20
77.4974975585938
40
0.0
41
0.0
42
0.0
10
76.4828033447266
20
77.4117965698242
40
0.0
41
0.0
42
0.0
10
76.5101013183594
20
77.4117965698242
40
0.0
41
0.0
42
0.0
10
76.9514999389648
20
77.9406967163086
40
0.0
41
0.0
42
0.0
10
76.967903137207
20
77.9838027954102
40
0.0
41
0.0
42
0.0
10
76.967903137207
20
78.0130004882812
40
0.0
41
0.0
42
0.0
10
77.0080032348633
20
78.0130004882812
40
0.0
41
0.0
42
0.0
10
77.1400985717773
20
78.2338027954102
40
0.0
41
0.0
42
0.0
10
77.5093002319336
20
78.4192962646484
40
0.0
41
0.0
42
0.0
10
77.5765991210938
20
78.4949035644531
40
0.0
41
0.0
42
0.0
10
77.6426010131836
20
78.5524978637695
40
0.0
41
0.0
42
0.0
10
78.0118026733398
20
78.6941986083984
40
0.0
41
0.0
42
0.0
10
78.1089019775391
20
78.7381973266602
40
0.0
41
0.0
42
0.0
10
78.5173034667969
20
78.8033981323242
40
0.0
41
0.0
42
0.0
10
78.5913009643555
20
78.8102035522461
40
0.0
41
0.0
42
0.0
10
78.9879989624023
20
78.7550964355469
40
0.0
41
0.0
42
0.0
10
79.0894012451172
20
78.6812973022461
40
0.0
41
0.0
42
0.0
10
79.1181030273438
20
78.6467971801758
40
0.0
41
0.0
42
0.0
10
79.3395004272461
20
78.4925003051758
40
0.0
41
0.0
42
0.0
10
79.3330001831055
20
78.4161987304688
40
0.0
41
0.0
42
0.0
10
79.3329010009766
20
78.3800964355469
40
0.0
41
0.0
42
0.0
10
79.4412994384766
20
78.0035018920898
40
0.0
41
0.0
42
0.0
10
79.3935012817383
20
77.9160003662109
40
0.0
41
0.0
42
0.0
10
79.3787002563477
20
77.8787994384766
40
0.0
41
0.0
42
0.0
10
79.2987976074219
20
77.5130004882812
40
0.0
41
0.0
42
0.0
10
79.11669921875
20
77.1427001953125
40
0.0
41
0.0
42
0.0
10
79.0522994995117
20
77.076301574707
40
0.0
41
0.0
42
0.0
10
78.9890975952148
20
76.9949035644531
40
0.0
41
0.0
42
0.0
10
78.6728973388672
20
76.6389007568359
40
0.0
41
0.0
42
0.0
10
78.4959030151367
20
76.52490234375
40
0.0
41
0.0
42
0.0
10
78.4486999511719
20
76.5018997192383
40
0.0
41
0.0
42
0.0
10
77.988899230957
20
76.1591033935547
40
0.0
41
0.0
42
0.0
10
77.5509033203125
20
76.0634994506836
40
0.0
41
0.0
42
0.0
10
77.4906005859375
20
76.0307998657227
40
0.0
41
0.0
42
0.0
10
77.4516983032227
20
76.006103515625
40
0.0
41
0.0
42
0.0
10
77.4308013916016
20
76.0024032592773
40
0.0
41
0.0
42
0.0
10
77.4307022094727
20
75.9814987182617
40
0.0
41
0.0
42
0.0
10
77.4968032836914
20
75.5266036987305
40
0.0
41
0.0
42
0.0
10
77.4859008789062
20
75.5204010009766
40
0.0
41
0.0
42
0.0
10
77.0123977661133
20
75.909797668457
40
0.0
41
0.0
42
0.0
10
76.9847030639648
20
75.909797668457
40
0.0
41
0.0
42
0.0
10
76.8674011230469
20
75.8532028198242
40
0.0
41
0.0
42
0.0
10
76.5152969360352
20
75.9149017333984
40
0.0
41
0.0
42
0.0
10
76.4178009033203
20
75.9418029785156
40
0.0
41
0.0
42
0.0
10
76.2817001342773
20
76.0026016235352
40
0.0
41
0.0
42
0.0
10
76.3124008178711
20
76.0790023803711
40
0.0
41
0.0
42
0.0
10
76.3123016357422
20
76.1131973266602
40
0.0
41
0.0
42
0.0
10
76.2425994873047
20
76.5176010131836
40
0.0
41
0.0
42
0.0
10
76.2238006591797
20
76.8604965209961
40
0.0
41
0.0
42
0.0
10
76.3052978515625
20
76.9814987182617
40
0.0
41
0.0
42
0.0
10
76.3139038085938
20
76.9893035888672
40
0.0
41
0.0
42
0.0
10
76.3137969970703
20
77.0122985839844
40
0.0
41
0.0
42
0.0
10
76.1626968383789
20
77.193000793457
40
0.0
41
0.0
42
0.0
10
76.0080032348633
20
77.4545974731445
40
0.0
41
0.0
42
0.0
10
75.9903030395508
20
77.4545974731445
40
0.0
41
0.0
42
0.0
10
75.956298828125
20
77.4101028442383
40
0.0
41
0.0
42
0.0
10
75.777099609375
20
77.1470031738281
40
0.0
41
0.0
42
0.0
10
75.7555999755859
20
77.0102996826172
40
0.0
41
0.0
42
0.0
10
75.7061004638672
20
76.9573974609375
40
0.0
41
0.0
42
0.0
10
75.4881973266602
20
76.8305969238281
40
0.0
41
0.0
42
0.0
10
75.0850982666016
20
76.7151031494141
40
0.0
41
0.0
42
0.0
10
75.0012969970703
20
76.6445007324219
40
0.0
41
0.0
42
0.0
10
74.7714996337891
20
76.9136962890625
40
0.0
41
0.0
42
0.0
10
74.7279968261719
20
77.0149993896484
40
0.0
41
0.0
42
0.0
10
74.7220001220703
20
77.1131973266602
40
0.0
41
0.0
42
0.0
10
74.7183990478516
20
77.1482009887695
40
0.0
41
0.0
42
0.0
10
74.5510025024414
20
77.4297027587891
40
0.0
41
0.0
42
0.0
10
74.50830078125
20
77.4981994628906
40
0.0
41
0.0
42
0.0
10
74.5011978149414
20
77.4980010986328
40
0.0
41
0.0
42
0.0
10
74.0824966430664
20
77.5803985595703
40
0.0
41
0.0
42
0.0
10
74.1860961914062
20
77.9825973510742
40
0.0
41
0.0
42
0.0
10
74.1859970092773
20
78.0165023803711
40
0.0
41
0.0
42
0.0
210
0.0
220
0.0
230
1.0
0
LWPOLYLINE
5
2D
330
1C
100
AcDbEntity
67
0
8
0
62
256
6
ByLayer
370
-1
48
1.0
60
0
100
AcDbPolyline
90
9
70
1
38
0.0
39
0.0
10
74.6184997558594
20
74.9886016845703
40
0.0
41
0.0
42
0.0
10
74.9886016845703
20
74.6184997558594
40
0.0
41
0.0
42
0.0
10
75.0111999511719
20
74.6184997558594
40
0.0
41
0.0
42
0.0
10
75.3814010620117
20
74.9886016845703
40
0.0
41
0.0
42
0.0
10
75.3813018798828
20
75.0111999511719
40
0.0
41
0.0
42
0.0
10
75.0112991333008
20
75.3814010620117
40
0.0
41
0.0
42
0.0
10
74.9886016845703
20
75.3813018798828
40
0.0
41
0.0
42
0.0
10
74.6184997558594
20
75.0111999511719
40
0.0
41
0.0
42
0.0
10
74.6184997558594
20
74.9886016845703
40
0.0
41
0.0
42
0.0
210
0.0
220
0.0
230
1.0
0
LWPOLYLINE
5
2E
330
1C
100
AcDbEntity
67
0
8
0
62
256
6
ByLayer
370
-1
48
1.0
60
0
100
AcDbPolyline
90
5
70
1
38
0.0
39
0.0
10
75.0
20
75.369499206543
40
0.0
41
0.0
42
0.0
10
75.369499206543
20
75.0
40
0.0
41
0.0
42
0.0
10
75.0
20
74.6300964355469
40
0.0
41
0.0
42
0.0
10
74.6302032470703
20
75.0
40
0.0
41
0.0
42
0.0
10
75.0
20
75.369499206543
40
0.0
41
0.0
42
0.0
210
0.0
220
0.0
230
1.0
0
LWPOLYLINE
5
2F
330
1C
100
AcDbEntity
67
0
8
0
62
256
6
ByLayer
370
-1
48
1.0
60
0
100
AcDbPolyline
90
111
70
1
38
0.0
39
0.0
10
75.909797668457
20
72.9875030517578
40
0.0
41
0.0
42
0.0
10
75.9096984863281
20
73.0150985717773
40
0.0
41
0.0
42
0.0
10
75.8532028198242
20
73.1324996948242
40
0.0
41
0.0
42
0.0
10
75.9149017333984
20
73.4845962524414
40
0.0
41
0.0
42
0.0
10
75.9418029785156
20
73.5820999145508
40
0.0
41
0.0
42
0.0
10
76.0027008056641
20
73.717903137207
40
0.0
41
0.0
42
0.0
10
76.0790023803711
20
73.6875
40
0.0
41
0.0
42
0.0
10
76.1131973266602
20
73.6874008178711
40
0.0
41
0.0
42
0.0
10
76.5176010131836
20
73.7571029663086
40
0.0
41
0.0
42
0.0
10
76.8604965209961
20
73.7759017944336
40
0.0
41
0.0
42
0.0
10
76.9815979003906
20
73.6945037841797
40
0.0
41
0.0
42
0.0
10
76.9894027709961
20
73.6859970092773
40
0.0
41
0.0
42
0.0
10
77.0122985839844
20
73.6859970092773
40
0.0
41
0.0
42
0.0
10
77.193000793457
20
73.8369979858398
40
0.0
41
0.0
42
0.0
10
77.4545974731445
20
73.9918975830078
40
0.0
41
0.0
42
0.0
10
77.4544982910156
20
74.0095977783203
40
0.0
41
0.0
42
0.0
10
77.4101028442383
20
74.0435028076172
40
0.0
41
0.0
42
0.0
10
77.1470031738281
20
74.2226028442383
40
0.0
41
0.0
42
0.0
10
77.0102996826172
20
74.2441024780273
40
0.0
41
0.0
42
0.0
10
76.9573974609375
20
74.293701171875
40
0.0
41
0.0
42
0.0
10
76.8305969238281
20
74.5114974975586
40
0.0
41
0.0
42
0.0
10
76.7149963378906
20
74.9148025512695
40
0.0
41
0.0
42
0.0
10
76.6445999145508
20
74.9984970092773
40
0.0
41
0.0
42
0.0
10
76.9138031005859
20
75.2282028198242
40
0.0
41
0.0
42
0.0
10
77.0149993896484
20
75.2716979980469
40
0.0
41
0.0
42
0.0
10
77.1131973266602
20
75.277702331543
40
0.0
41
0.0
42
0.0
10
77.1482009887695
20
75.2814025878906
40
0.0
41
0.0
42
0.0
10
77.4297027587891
20
75.448600769043
40
0.0
41
0.0
42
0.0
10
77.4981994628906
20
75.4916000366211
40
0.0
41
0.0
42
0.0
10
77.4981994628906
20
75.5064010620117
40
0.0
41
0.0
42
0.0
10
77.519401550293
20
75.5063018798828
40
0.0
41
0.0
42
0.0
10
78.0109024047852
20
75.811897277832
40
0.0
41
0.0
42
0.0
10
78.1445007324219
20
75.8567962646484
40
0.0
41
0.0
42
0.0
10
78.4845962524414
20
75.7956008911133
40
0.0
41
0.0
42
0.0
10
78.7991027832031
20
75.7087020874023
40
0.0
41
0.0
42
0.0
10
78.834602355957
20
75.7087020874023
40
0.0
41
0.0
42
0.0
10
79.0171966552734
20
75.7386016845703
40
0.0
41
0.0
42
0.0
10
79.1258010864258
20
75.7490997314453
40
0.0
41
0.0
42
0.0
10
79.4860992431641
20
75.597297668457
40
0.0
41
0.0
42
0.0
10
79.5416030883789
20
75.5860977172852
40
0.0
41
0.0
42
0.0
10
79.6854019165039
20
75.4975967407227
40
0.0
41
0.0
42
0.0
10
79.932502746582
20
75.3336029052734
40
0.0
41
0.0
42
0.0
10
79.9880981445312
20
75.3205032348633
40
0.0
41
0.0
42
0.0
10
80.0877990722656
20
75.2582015991211
40
0.0
41
0.0
42
0.0
10
80.1512985229492
20
75.1977996826172
40
0.0
41
0.0
42
0.0
10
80.3832015991211
20
74.992301940918
40
0.0
41
0.0
42
0.0
10
80.4990005493164
20
74.6970977783203
40
0.0
41
0.0
42
0.0
10
80.5261993408203
20
74.644401550293
40
0.0
41
0.0
42
0.0
10
80.5531997680664
20
74.5824966430664
40
0.0
41
0.0
42
0.0
10
80.5792999267578
20
74.5038986206055
40
0.0
41
0.0
42
0.0
10
80.524299621582
20
74.4307022094727
40
0.0
41
0.0
42
0.0
10
80.4987030029297
20
74.3781967163086
40
0.0
41
0.0
42
0.0
10
80.3143005371094
20
74.0236968994141
40
0.0
41
0.0
42
0.0
10
80.2910995483398
20
74.0020980834961
40
0.0
41
0.0
42
0.0
10
80.21240234375
20
73.9681015014648
40
0.0
41
0.0
42
0.0
10
79.9901962280273
20
73.8199005126953
40
0.0
41
0.0
42
0.0
10
79.6209030151367
20
73.6510009765625
40
0.0
41
0.0
42
0.0
10
79.5009994506836
20
73.6341018676758
40
0.0
41
0.0
42
0.0
10
79.38330078125
20
73.6528015136719
40
0.0
41
0.0
42
0.0
10
79.347297668457
20
73.6528015136719
40
0.0
41
0.0
42
0.0
10
79.0030975341797
20
73.5762023925781
40
0.0
41
0.0
42
0.0
10
78.921501159668
20
73.6081008911133
40
0.0
41
0.0
42
0.0
10
78.9035034179688
20
73.6127014160156
40
0.0
41
0.0
42
0.0
10
78.8665008544922
20
73.6126022338867
40
0.0
41
0.0
42
0.0
10
78.502197265625
20
73.6016998291016
40
0.0
41
0.0
42
0.0
10
78.1324005126953
20
73.6156005859375
40
0.0
41
0.0
42
0.0
10
78.0151977539062
20
73.6716003417969
40
0.0
41
0.0
42
0.0
10
77.9813995361328
20
73.671501159668
40
0.0
41
0.0
42
0.0
10
77.625602722168
20
73.6221008300781
40
0.0
41
0.0
42
0.0
10
77.5078964233398
20
73.8265991210938
40
0.0
41
0.0
42
0.0
10
77.4960021972656
20
73.8264999389648
40
0.0
41
0.0
42
0.0
10
77.4117965698242
20
73.5170974731445
40
0.0
41
0.0
42
0.0
10
77.4116973876953
20
73.4897994995117
40
0.0
41
0.0
42
0.0
10
77.4884033203125
20
73.4261016845703
40
0.0
41
0.0
42
0.0
10
77.8832015991211
20
73.3868026733398
40
0.0
41
0.0
42
0.0
10
77.9953002929688
20
73.0319976806641
40
0.0
41
0.0
42
0.0
10
78.0130004882812
20
73.0319976806641
40
0.0
41
0.0
42
0.0
10
78.0129013061523
20
72.9917984008789
40
0.0
41
0.0
42
0.0
10
78.2337036132812
20
72.8598022460938
40
0.0
41
0.0
42
0.0
10
78.4191970825195
20
72.4905014038086
40
0.0
41
0.0
42
0.0
10
78.4949035644531
20
72.4231033325195
40
0.0
41
0.0
42
0.0
10
78.5524978637695
20
72.3572998046875
40
0.0
41
0.0
42
0.0
10
78.6939010620117
20
71.9887008666992
40
0.0
41
0.0
42
0.0
10
78.7381973266602
20
71.890998840332
40
0.0
41
0.0
42
0.0
10
78.8033981323242
20
71.4825973510742
40
0.0
41
0.0
42
0.0
10
78.8102035522461
20
71.4085998535156
40
0.0
41
0.0
42
0.0
10
78.7552032470703
20
71.0119018554688
40
0.0
41
0.0
42
0.0
10
78.6812973022461
20
70.9104995727539
40
0.0
41
0.0
42
0.0
10
78.6468963623047
20
70.8815994262695
40
0.0
41
0.0
42
0.0
10
78.4925994873047
20
70.6602020263672
40
0.0
41
0.0
42
0.0
10
78.4161987304688
20
70.6669006347656
40
0.0
41
0.0
42
0.0
10
78.3800964355469
20
70.6668014526367
40
0.0
41
0.0
42
0.0
10
78.0034027099609
20
70.5584030151367
40
0.0
41
0.0
42
0.0
10
77.9160003662109
20
70.606201171875
40
0.0
41
0.0
42
0.0
10
77.8787994384766
20
70.6210021972656
40
0.0
41
0.0
42
0.0
10
77.5130004882812
20
70.7008972167969
40
0.0
41
0.0
42
0.0
10
77.1427001953125
20
70.8830032348633
40
0.0
41
0.0
42
0.0
10
77.0762023925781
20
70.9476013183594
40
0.0
41
0.0
42
0.0
10
76.9941024780273
20
71.0111999511719
40
0.0
41
0.0
42
0.0
10
76.9287033081055
20
71.081298828125
40
0.0
41
0.0
42
0.0
10
76.5258026123047
20
71.5020980834961
40
0.0
41
0.0
42
0.0
10
76.5018997192383
20
71.5510025024414
40
0.0
41
0.0
42
0.0
10
76.1591033935547
20
72.0110015869141
40
0.0
41
0.0
42
0.0
10
76.0634994506836
20
72.4488983154297
40
0.0
41
0.0
42
0.0
10
76.0307998657227
20
72.5092010498047
40
0.0
41
0.0
42
0.0
10
76.006103515625
20
72.5481033325195
40
0.0
41
0.0
42
0.0
10
76.0024032592773
20
72.5690994262695
40
0.0
41
0.0
42
0.0
10
75.9814987182617
20
72.5690002441406
40
0.0
41
0.0
42
0.0
10
75.5266036987305
20
72.5030975341797
40
0.0
41
0.0
42
0.0
10
75.5204010009766
20
72.5139999389648
40
0.0
41
0.0
42
0.0
10
75.909797668457
20
72.9875030517578
40
0.0
41
0.0
42
0.0
210
0.0
220
0.0
230
1.0
0
LWPOLYLINE
5
30
330
1C
100
AcDbEntity
67
0
8
0
62
256
6
ByLayer
370
-1
48
1.0
60
0
100
AcDbPolyline
90
106
70
1
38
0.0
39
0.0
10
78.757698059082
20
66.3977966308594
40
0.0
41
0.0
42
0.0
10
78.9545974731445
20
66.135498046875
40
0.0
41
0.0
42
0.0
10
78.9960021972656
20
66.0678024291992
40
0.0
41
0.0
42
0.0
10
79.0801010131836
20
65.9985961914062
40
0.0
41
0.0
42
0.0
10
79.1309967041016
20
65.9819030761719
40
0.0
41
0.0
42
0.0
10
79.3513031005859
20
65.8916015625
40
0.0
41
0.0
42
0.0
10
79.4837036132812
20
65.8613967895508
40
0.0
41
0.0
42
0.0
10
79.6184005737305
20
65.8431015014648
40
0.0
41
0.0
42
0.0
10
79.9829025268555
20
65.7686996459961
40
0.0
41
0.0
42
0.0
10
80.11669921875
20
65.75830078125
40
0.0
41
0.0
42
0.0
10
80.4813995361328
20
65.7255020141602
40
0.0
41
0.0
42
0.0
10
80.6154022216797
20
65.7189025878906
40
0.0
41
0.0
42
0.0
10
81.0188980102539
20
65.7198028564453
40
0.0
41
0.0
42
0.0
10
81.3691024780273
20
65.7548980712891
40
0.0
41
0.0
42
0.0
10
81.4235000610352
20
65.7514038085938
40
0.0
41
0.0
42
0.0
10
81.4810028076172
20
65.7457962036133
40
0.0
41
0.0
42
0.0
10
81.5167007446289
20
65.7456970214844
40
0.0
41
0.0
42
0.0
10
81.8570022583008
20
65.8547973632812
40
0.0
41
0.0
42
0.0
10
81.9841003417969
20
65.8031997680664
40
0.0
41
0.0
42
0.0
10
82.0160980224609
20
65.8031005859375
40
0.0
41
0.0
42
0.0
10
82.4769973754883
20
65.9776992797852
40
0.0
41
0.0
42
0.0
10
82.4798965454102
20
65.97509765625
40
0.0
41
0.0
42
0.0
10
82.3601989746094
20
65.5171966552734
40
0.0
41
0.0
42
0.0
10
82.3600997924805
20
65.4825973510742
40
0.0
41
0.0
42
0.0
10
82.3830032348633
20
65.3927993774414
40
0.0
41
0.0
42
0.0
10
82.1279983520508
20
65.0134963989258
40
0.0
41
0.0
42
0.0
10
82.1279983520508
20
65.0009994506836
40
0.0
41
0.0
42
0.0
10
82.1544036865234
20
65.0009994506836
40
0.0
41
0.0
42
0.0
10
82.4438018798828
20
65.4311981201172
40
0.0
41
0.0
42
0.0
10
82.4437026977539
20
65.4620971679688
40
0.0
41
0.0
42
0.0
10
82.434196472168
20
65.4997024536133
40
0.0
41
0.0
42
0.0
10
82.5029983520508
20
65.7622985839844
40
0.0
41
0.0
42
0.0
10
82.7136993408203
20
65.7331008911133
40
0.0
41
0.0
42
0.0
10
82.744499206543
20
65.7332000732422
40
0.0
41
0.0
42
0.0
10
82.86669921875
20
65.8367004394531
40
0.0
41
0.0
42
0.0
10
83.0094985961914
20
65.9481964111328
40
0.0
41
0.0
42
0.0
10
83.1408996582031
20
65.9994964599609
40
0.0
41
0.0
42
0.0
10
83.4376983642578
20
66.1112976074219
40
0.0
41
0.0
42
0.0
10
83.5160980224609
20
66.1361999511719
40
0.0
41
0.0
42
0.0
10
83.633903503418
20
66.1427001953125
40
0.0
41
0.0
42
0.0
10
84.0124969482422
20
66.2942962646484
40
0.0
41
0.0
42
0.0
10
84.3683013916016
20
66.4219970703125
40
0.0
41
0.0
42
0.0
10
84.5115966796875
20
66.4789962768555
40
0.0
41
0.0
42
0.0
10
84.5531997680664
20
66.4985961914062
40
0.0
41
0.0
42
0.0
10
84.6309967041016
20
66.5423965454102
40
0.0
41
0.0
42
0.0
10
84.9168014526367
20
66.6743011474609
40
0.0
41
0.0
42
0.0
10
84.9990005493164
20
66.7061004638672
40
0.0
41
0.0
42
0.0
10
84.9990005493164
20
66.7316970825195
40
0.0
41
0.0
42
0.0
10
84.9839019775391
20
66.7316970825195
40
0.0
41
0.0
42
0.0
10
84.8532028198242
20
66.6811981201172
40
0.0
41
0.0
42
0.0
10
84.5981979370117
20
66.5634002685547
40
0.0
41
0.0
42
0.0
10
84.4887008666992
20
66.5017013549805
40
0.0
41
0.0
42
0.0
10
83.9873962402344
20
66.3219985961914
40
0.0
41
0.0
42
0.0
10
83.6530990600586
20
66.1880035400391
40
0.0
41
0.0
42
0.0
10
83.4838027954102
20
66.178596496582
40
0.0
41
0.0
42
0.0
10
83.4205017089844
20
66.1585998535156
40
0.0
41
0.0
42
0.0
10
82.9906005859375
20
65.9962997436523
40
0.0
41
0.0
42
0.0
10
82.9641036987305
20
65.97509765625
40
0.0
41
0.0
42
0.0
10
82.7919006347656
20
65.9990005493164
40
0.0
41
0.0
42
0.0
10
82.5279006958008
20
66.0210037231445
40
0.0
41
0.0
42
0.0
10
82.7781982421875
20
66.4891967773438
40
0.0
41
0.0
42
0.0
10
82.8832015991211
20
66.7266998291016
40
0.0
41
0.0
42
0.0
10
82.9154968261719
20
66.984001159668
40
0.0
41
0.0
42
0.0
10
82.9623031616211
20
67.1587982177734
40
0.0
41
0.0
42
0.0
10
83.0313034057617
20
67.4832000732422
40
0.0
41
0.0
42
0.0
10
83.0350036621094
20
67.5210037231445
40
0.0
41
0.0
42
0.0
10
83.1146011352539
20
67.9825973510742
40
0.0
41
0.0
42
0.0
10
83.1436004638672
20
68.3468017578125
40
0.0
41
0.0
42
0.0
10
83.1561965942383
20
68.4809036254883
40
0.0
41
0.0
42
0.0
10
83.1560974121094
20
68.5193023681641
40
0.0
41
0.0
42
0.0
10
83.1350021362305
20
68.8665008544922
40
0.0
41
0.0
42
0.0
10
83.1410980224609
20
68.9803009033203
40
0.0
41
0.0
42
0.0
10
83.1376037597656
20
69.1547012329102
40
0.0
41
0.0
42
0.0
10
83.0110015869141
20
69.5103988647461
40
0.0
41
0.0
42
0.0
10
83.0087966918945
20
69.5137023925781
40
0.0
41
0.0
42
0.0
10
82.9952011108398
20
69.5134963989258
40
0.0
41
0.0
42
0.0
10
82.5158996582031
20
69.7035980224609
40
0.0
41
0.0
42
0.0
10
82.4839019775391
20
69.7035980224609
40
0.0
41
0.0
42
0.0
10
82.3491973876953
20
69.6517028808594
40
0.0
41
0.0
42
0.0
10
81.9837036132812
20
69.6384963989258
40
0.0
41
0.0
42
0.0
10
81.8504028320312
20
69.5947036743164
40
0.0
41
0.0
42
0.0
10
81.6495971679688
20
69.5519027709961
40
0.0
41
0.0
42
0.0
10
81.4849014282227
20
69.5239028930664
40
0.0
41
0.0
42
0.0
10
81.4232025146484
20
69.5047988891602
40
0.0
41
0.0
42
0.0
10
80.9865036010742
20
69.3786010742188
40
0.0
41
0.0
42
0.0
10
80.8519973754883
20
69.3290023803711
40
0.0
41
0.0
42
0.0
10
80.4889984130859
20
69.2041015625
40
0.0
41
0.0
42
0.0
10
80.3554000854492
20
69.1213989257812
40
0.0
41
0.0
42
0.0
10
80.1529006958008
20
69.0155029296875
40
0.0
41
0.0
42
0.0
10
80.138298034668
20
69.003303527832
40
0.0
41
0.0
42
0.0
10
79.9942016601562
20
68.9009017944336
40
0.0
41
0.0
42
0.0
10
79.7979965209961
20
68.6764984130859
40
0.0
41
0.0
42
0.0
10
79.7652969360352
20
68.6417007446289
40
0.0
41
0.0
42
0.0
10
79.6725006103516
20
68.5086975097656
40
0.0
41
0.0
42
0.0
10
79.6439971923828
20
68.459602355957
40
0.0
41
0.0
42
0.0
10
79.4980010986328
20
68.2401962280273
40
0.0
41
0.0
42
0.0
10
79.4216995239258
20
68.0960006713867
40
0.0
41
0.0
42
0.0
10
79.3121032714844
20
67.8757019042969
40
0.0
41
0.0
42
0.0
10
79.1127014160156
20
67.4628982543945
40
0.0
41
0.0
42
0.0
10
78.9991989135742
20
67.1804962158203
40
0.0
41
0.0
42
0.0
10
78.9565963745117
20
67.0915985107422
40
0.0
41
0.0
42
0.0
10
78.9077987670898
20
67.0095977783203
40
0.0
41
0.0
42
0.0
10
78.8358993530273
20
66.8778991699219
40
0.0
41
0.0
42
0.0
10
78.7701034545898
20
66.5166015625
40
0.0
41
0.0
42
0.0
10
78.7577972412109
20
66.4293975830078
40
0.0
41
0.0
42
0.0
10
78.757698059082
20
66.3977966308594
40
0.0
41
0.0
42
0.0
210
0.0
220
0.0
230
1.0
0
LWPOLYLINE
5
31
330
1C
100
AcDbEntity
67
0
8
0
62
256
6
ByLayer
370
-1
48
1.0
60
0
100
AcDbPolyline
90
62
70
1
38
0.0
39
0.0
10
78.8674011230469
20
66.8920974731445
40
0.0
41
0.0
42
0.0
10
78.9210968017578
20
66.9904022216797
40
0.0
41
0.0
42
0.0
10
78.9549026489258
20
67.0473022460938
40
0.0
41
0.0
42
0.0
10
79.0007019042969
20
67.1427993774414
40
0.0
41
0.0
42
0.0
10
79.1242980957031
20
67.4508972167969
40
0.0
41
0.0
42
0.0
10
79.3384017944336
20
67.8942031860352
40
0.0
41
0.0
42
0.0
10
79.4158020019531
20
68.0498962402344
40
0.0
41
0.0
42
0.0
10
79.5018997192383
20
68.2121963500977
40
0.0
41
0.0
42
0.0
10
79.6642990112305
20
68.456298828125
40
0.0
41
0.0
42
0.0
10
79.6845016479492
20
68.4913024902344
40
0.0
41
0.0
42
0.0
10
79.752197265625
20
68.5882034301758
40
0.0
41
0.0
42
0.0
10
79.7766036987305
20
68.6140975952148
40
0.0
41
0.0
42
0.0
10
80.0057983398438
20
68.8764038085938
40
0.0
41
0.0
42
0.0
10
80.1748962402344
20
68.9965972900391
40
0.0
41
0.0
42
0.0
10
80.1871032714844
20
69.0067977905273
40
0.0
41
0.0
42
0.0
10
80.4145965576172
20
69.1257019042969
40
0.0
41
0.0
42
0.0
10
80.5109024047852
20
69.185302734375
40
0.0
41
0.0
42
0.0
10
80.9179000854492
20
69.3254013061523
40
0.0
41
0.0
42
0.0
10
81.0133972167969
20
69.3606033325195
40
0.0
41
0.0
42
0.0
10
81.5151977539062
20
69.5063018798828
40
0.0
41
0.0
42
0.0
10
81.6997985839844
20
69.53759765625
40
0.0
41
0.0
42
0.0
10
81.9195022583008
20
69.5842971801758
40
0.0
41
0.0
42
0.0
10
82.0161972045898
20
69.6159973144531
40
0.0
41
0.0
42
0.0
10
82.4207000732422
20
69.630500793457
40
0.0
41
0.0
42
0.0
10
82.4998016357422
20
69.6611022949219
40
0.0
41
0.0
42
0.0
10
82.859001159668
20
69.5186996459961
40
0.0
41
0.0
42
0.0
10
82.9066009521484
20
69.4962997436523
40
0.0
41
0.0
42
0.0
10
82.9988021850586
20
69.3532028198242
40
0.0
41
0.0
42
0.0
10
83.0962982177734
20
69.0792999267578
40
0.0
41
0.0
42
0.0
10
83.0981979370117
20
69.0067977905273
40
0.0
41
0.0
42
0.0
10
83.0938034057617
20
68.926399230957
40
0.0
41
0.0
42
0.0
10
83.0939025878906
20
68.8862991333008
40
0.0
41
0.0
42
0.0
10
83.117301940918
20
68.5039978027344
40
0.0
41
0.0
42
0.0
10
83.0774002075195
20
68.0173034667969
40
0.0
41
0.0
42
0.0
10
82.9905014038086
20
67.515998840332
40
0.0
41
0.0
42
0.0
10
82.942497253418
20
67.2855987548828
40
0.0
41
0.0
42
0.0
10
82.8702011108398
20
67.0158996582031
40
0.0
41
0.0
42
0.0
10
82.8471984863281
20
66.8320999145508
40
0.0
41
0.0
42
0.0
10
82.7051010131836
20
66.5106964111328
40
0.0
41
0.0
42
0.0
10
82.508903503418
20
66.1436004638672
40
0.0
41
0.0
42
0.0
10
82.4970016479492
20
66.1172027587891
40
0.0
41
0.0
42
0.0
10
82.3535995483398
20
66.0015029907227
40
0.0
41
0.0
42
0.0
10
82.0003967285156
20
65.8675003051758
40
0.0
41
0.0
42
0.0
10
81.9179992675781
20
65.9011993408203
40
0.0
41
0.0
42
0.0
10
81.8853988647461
20
65.9011001586914
40
0.0
41
0.0
42
0.0
10
81.4919967651367
20
65.7757034301758
40
0.0
41
0.0
42
0.0
10
81.424201965332
20
65.780403137207
40
0.0
41
0.0
42
0.0
10
81.3860015869141
20
65.7805023193359
40
0.0
41
0.0
42
0.0
10
80.9810028076172
20
65.7399978637695
40
0.0
41
0.0
42
0.0
10
80.6126022338867
20
65.7389984130859
40
0.0
41
0.0
42
0.0
10
80.5185012817383
20
65.7435989379883
40
0.0
41
0.0
42
0.0
10
80.0168991088867
20
65.7873992919922
40
0.0
41
0.0
42
0.0
10
79.6113967895508
20
65.8701019287109
40
0.0
41
0.0
42
0.0
10
79.5161972045898
20
65.8831024169922
40
0.0
41
0.0
42
0.0
10
79.4186019897461
20
65.9052963256836
40
0.0
41
0.0
42
0.0
10
79.2620010375977
20
65.969596862793
40
0.0
41
0.0
42
0.0
10
79.1654968261719
20
66.0010986328125
40
0.0
41
0.0
42
0.0
10
79.0037994384766
20
66.1341018676758
40
0.0
41
0.0
42
0.0
10
78.9284973144531
20
66.2574005126953
40
0.0
41
0.0
42
0.0
10
78.78759765625
20
66.445198059082
40
0.0
41
0.0
42
0.0
10
78.793098449707
20
66.4832992553711
40
0.0
41
0.0
42
0.0
10
78.8674011230469
20
66.8920974731445
40
0.0
41
0.0
42
0.0
210
0.0
220
0.0
230
1.0
0
LWPOLYLINE
5
32
330
1C
100
AcDbEntity
67
0
8
0
62
256
6
ByLayer
370
-1
48
1.0
60
0
100
AcDbPolyline
90
166
70
1
38
0.0
39
0.0
10
80.361198425293
20
81.9837036132812
40
0.0
41
0.0
42
0.0
10
80.4049987792969
20
81.8504028320312
40
0.0
41
0.0
42
0.0
10
80.4477996826172
20
81.6495971679688
40
0.0
41
0.0
42
0.0
10
80.4757995605469
20
81.4848022460938
40
0.0
41
0.0
42
0.0
10
80.4949035644531
20
81.4232025146484
40
0.0
41
0.0
42
0.0
10
80.6211013793945
20
80.9865036010742
40
0.0
41
0.0
42
0.0
10
80.6707000732422
20
80.8519973754883
40
0.0
41
0.0
42
0.0
10
80.7956008911133
20
80.4889984130859
40
0.0
41
0.0
42
0.0
10
80.8784027099609
20
80.3553009033203
40
0.0
41
0.0
42
0.0
10
80.9841995239258
20
80.1529006958008
40
0.0
41
0.0
42
0.0
10
80.9964981079102
20
80.138298034668
40
0.0
41
0.0
42
0.0
10
81.0988006591797
20
79.9941024780273
40
0.0
41
0.0
42
0.0
10
81.3233032226562
20
79.7979965209961
40
0.0
41
0.0
42
0.0
10
81.3582000732422
20
79.7652969360352
40
0.0
41
0.0
42
0.0
10
81.4912033081055
20
79.6724014282227
40
0.0
41
0.0
42
0.0
10
81.5401992797852
20
79.6438980102539
40
0.0
41
0.0
42
0.0
10
81.7595977783203
20
79.4980010986328
40
0.0
41
0.0
42
0.0
10
81.9036026000977
20
79.4216995239258
40
0.0
41
0.0
42
0.0
10
81.9891967773438
20
79.3802032470703
40
0.0
41
0.0
42
0.0
10
82.1241989135742
20
79.3121032714844
40
0.0
41
0.0
42
0.0
10
82.5369033813477
20
79.1127014160156
40
0.0
41
0.0
42
0.0
10
82.8192977905273
20
78.9990997314453
40
0.0
41
0.0
42
0.0
10
82.9080963134766
20
78.9564971923828
40
0.0
41
0.0
42
0.0
10
82.9903030395508
20
78.9077987670898
40
0.0
41
0.0
42
0.0
10
83.1220016479492
20
78.8358001708984
40
0.0
41
0.0
42
0.0
10
83.4817962646484
20
78.7705001831055
40
0.0
41
0.0
42
0.0
10
83.5139999389648
20
78.7705001831055
40
0.0
41
0.0
42
0.0
10
83.6847991943359
20
78.8748016357422
40
0.0
41
0.0
42
0.0
10
83.7977981567383
20
78.8580017089844
40
0.0
41
0.0
42
0.0
10
83.8258972167969
20
78.8579025268555
40
0.0
41
0.0
42
0.0
10
83.9294967651367
20
78.9929962158203
40
0.0
41
0.0
42
0.0
10
84.0011978149414
20
79.0802001953125
40
0.0
41
0.0
42
0.0
10
84.0177993774414
20
79.1309967041016
40
0.0
41
0.0
42
0.0
10
84.1082000732422
20
79.3513031005859
40
0.0
41
0.0
42
0.0
10
84.1384963989258
20
79.4843978881836
40
0.0
41
0.0
42
0.0
10
84.2126998901367
20
79.848503112793
40
0.0
41
0.0
42
0.0
10
84.2309036254883
20
79.9822998046875
40
0.0
41
0.0
42
0.0
10
84.2741012573242
20
80.4807968139648
40
0.0
41
0.0
42
0.0
10
84.2733001708984
20
80.847297668457
40
0.0
41
0.0
42
0.0
10
84.2799987792969
20
80.9804992675781
40
0.0
41
0.0
42
0.0
10
84.279899597168
20
81.0188980102539
40
0.0
41
0.0
42
0.0
10
84.2447967529297
20
81.3691024780273
40
0.0
41
0.0
42
0.0
10
84.2482986450195
20
81.4235992431641
40
0.0
41
0.0
42
0.0
10
84.2540969848633
20
81.4810028076172
40
0.0
41
0.0
42
0.0
10
84.2539978027344
20
81.5167007446289
40
0.0
41
0.0
42
0.0
10
84.1448974609375
20
81.8570022583008
40
0.0
41
0.0
42
0.0
10
84.1994018554688
20
81.9908981323242
40
0.0
41
0.0
42
0.0
10
84.5082015991211
20
82.3578033447266
40
0.0
41
0.0
42
0.0
10
84.6070022583008
20
82.3830032348633
40
0.0
41
0.0
42
0.0
10
84.9863967895508
20
82.1279983520508
40
0.0
41
0.0
42
0.0
10
84.9990005493164
20
82.1279983520508
40
0.0
41
0.0
42
0.0
10
84.9988021850586
20
82.1544036865234
40
0.0
41
0.0
42
0.0
10
84.5684967041016
20
82.4439010620117
40
0.0
41
0.0
42
0.0
10
84.53759765625
20
82.4438018798828
40
0.0
41
0.0
42
0.0
10
84.49169921875
20
82.4320983886719
40
0.0
41
0.0
42
0.0
10
84.135498046875
20
82.0090026855469
40
0.0
41
0.0
42
0.0
10
84.0987014770508
20
81.918098449707
40
0.0
41
0.0
42
0.0
10
84.0986022949219
20
81.8853988647461
40
0.0
41
0.0
42
0.0
10
84.2239990234375
20
81.4919967651367
40
0.0
41
0.0
42
0.0
10
84.2194976806641
20
81.424201965332
40
0.0
41
0.0
42
0.0
10
84.2192993164062
20
81.3860015869141
40
0.0
41
0.0
42
0.0
10
84.2584991455078
20
80.9937973022461
40
0.0
41
0.0
42
0.0
10
84.2550964355469
20
80.9244995117188
40
0.0
41
0.0
42
0.0
10
84.2559967041016
20
80.5178985595703
40
0.0
41
0.0
42
0.0
10
84.21240234375
20
80.0176010131836
40
0.0
41
0.0
42
0.0
10
84.1993026733398
20
79.9214019775391
40
0.0
41
0.0
42
0.0
10
84.1164016723633
20
79.5155029296875
40
0.0
41
0.0
42
0.0
10
84.0943984985352
20
79.4186019897461
40
0.0
41
0.0
42
0.0
10
84.0300979614258
20
79.2620010375977
40
0.0
41
0.0
42
0.0
10
83.9987030029297
20
79.1656036376953
40
0.0
41
0.0
42
0.0
10
83.8681030273438
20
79.0068969726562
40
0.0
41
0.0
42
0.0
10
83.7876968383789
20
78.9020004272461
40
0.0
41
0.0
42
0.0
10
83.7149963378906
20
78.9129028320312
40
0.0
41
0.0
42
0.0
10
83.682502746582
20
78.9128036499023
40
0.0
41
0.0
42
0.0
10
83.4933013916016
20
78.7973022460938
40
0.0
41
0.0
42
0.0
10
83.1078033447266
20
78.867301940918
40
0.0
41
0.0
42
0.0
10
83.0094985961914
20
78.9209976196289
40
0.0
41
0.0
42
0.0
10
82.9524993896484
20
78.9549026489258
40
0.0
41
0.0
42
0.0
10
82.8570022583008
20
79.0007019042969
40
0.0
41
0.0
42
0.0
10
82.5488967895508
20
79.1241989135742
40
0.0
41
0.0
42
0.0
10
82.1056976318359
20
79.3384017944336
40
0.0
41
0.0
42
0.0
10
81.9498977661133
20
79.4158020019531
40
0.0
41
0.0
42
0.0
10
81.78759765625
20
79.5018005371094
40
0.0
41
0.0
42
0.0
10
81.5434036254883
20
79.6642990112305
40
0.0
41
0.0
42
0.0
10
81.5085983276367
20
79.6844024658203
40
0.0
41
0.0
42
0.0
10
81.4116973876953
20
79.752197265625
40
0.0
41
0.0
42
0.0
10
81.3856964111328
20
79.776496887207
40
0.0
41
0.0
42
0.0
10
81.1232986450195
20
80.0056991577148
40
0.0
41
0.0
42
0.0
10
81.003303527832
20
80.1748962402344
40
0.0
41
0.0
42
0.0
10
80.9929962158203
20
80.1869964599609
40
0.0
41
0.0
42
0.0
10
80.8740005493164
20
80.4144973754883
40
0.0
41
0.0
42
0.0
10
80.8143997192383
20
80.5109024047852
40
0.0
41
0.0
42
0.0
10
80.6743011474609
20
80.9179000854492
40
0.0
41
0.0
42
0.0
10
80.6390991210938
20
81.0133972167969
40
0.0
41
0.0
42
0.0
10
80.4934005737305
20
81.5151977539062
40
0.0
41
0.0
42
0.0
10
80.4620971679688
20
81.6997985839844
40
0.0
41
0.0
42
0.0
10
80.415397644043
20
81.9195022583008
40
0.0
41
0.0
42
0.0
10
80.3836975097656
20
82.0161972045898
40
0.0
41
0.0
42
0.0
10
80.3692016601562
20
82.4207000732422
40
0.0
41
0.0
42
0.0
10
80.3386001586914
20
82.4998016357422
40
0.0
41
0.0
42
0.0
10
80.4810028076172
20
82.859001159668
40
0.0
41
0.0
42
0.0
10
80.5036010742188
20
82.9066009521484
40
0.0
41
0.0
42
0.0
10
80.6472015380859
20
82.9992980957031
40
0.0
41
0.0
42
0.0
10
81.011100769043
20
83.0971984863281
40
0.0
41
0.0
42
0.0
10
81.0735015869141
20
83.0940017700195
40
0.0
41
0.0
42
0.0
10
81.1134033203125
20
83.0939025878906
40
0.0
41
0.0
42
0.0
10
81.4973983764648
20
83.1174011230469
40
0.0
41
0.0
42
0.0
10
81.9825973510742
20
83.0774002075195
40
0.0
41
0.0
42
0.0
10
82.4839019775391
20
82.9905014038086
40
0.0
41
0.0
42
0.0
10
82.7142028808594
20
82.942497253418
40
0.0
41
0.0
42
0.0
10
82.984001159668
20
82.8702011108398
40
0.0
41
0.0
42
0.0
10
83.1678009033203
20
82.8471984863281
40
0.0
41
0.0
42
0.0
10
83.4891967773438
20
82.7051010131836
40
0.0
41
0.0
42
0.0
10
83.856201171875
20
82.5087966918945
40
0.0
41
0.0
42
0.0
10
83.8825988769531
20
82.4970016479492
40
0.0
41
0.0
42
0.0
10
83.9899978637695
20
82.3640975952148
40
0.0
41
0.0
42
0.0
10
84.0142974853516
20
82.3639984130859
40
0.0
41
0.0
42
0.0
10
84.2360992431641
20
82.4929962158203
40
0.0
41
0.0
42
0.0
10
84.2667007446289
20
82.7135009765625
40
0.0
41
0.0
42
0.0
10
84.2666015625
20
82.7444000244141
40
0.0
41
0.0
42
0.0
10
84.1631011962891
20
82.8666000366211
40
0.0
41
0.0
42
0.0
10
84.0515975952148
20
83.0093994140625
40
0.0
41
0.0
42
0.0
10
84.0002975463867
20
83.1408996582031
40
0.0
41
0.0
42
0.0
10
83.8883972167969
20
83.4375991821289
40
0.0
41
0.0
42
0.0
10
83.8635025024414
20
83.5160980224609
40
0.0
41
0.0
42
0.0
10
83.8570022583008
20
83.6337966918945
40
0.0
41
0.0
42
0.0
10
83.7053985595703
20
84.0124969482422
40
0.0
41
0.0
42
0.0
10
83.5776977539062
20
84.3683013916016
40
0.0
41
0.0
42
0.0
10
83.5206985473633
20
84.5115966796875
40
0.0
41
0.0
42
0.0
10
83.5011978149414
20
84.5531997680664
40
0.0
41
0.0
42
0.0
10
83.4572982788086
20
84.6308975219727
40
0.0
41
0.0
42
0.0
10
83.3254013061523
20
84.9167022705078
40
0.0
41
0.0
42
0.0
10
83.293701171875
20
84.9990005493164
40
0.0
41
0.0
42
0.0
10
83.2682037353516
20
84.9990005493164
40
0.0
41
0.0
42
0.0
10
83.2679977416992
20
84.9838027954102
40
0.0
41
0.0
42
0.0
10
83.3184967041016
20
84.8531036376953
40
0.0
41
0.0
42
0.0
10
83.4363021850586
20
84.5981979370117
40
0.0
41
0.0
42
0.0
10
83.4980010986328
20
84.4887008666992
40
0.0
41
0.0
42
0.0
10
83.6776962280273
20
83.9873962402344
40
0.0
41
0.0
42
0.0
10
83.8116989135742
20
83.6529998779297
40
0.0
41
0.0
42
0.0
10
83.8210983276367
20
83.4838027954102
40
0.0
41
0.0
42
0.0
10
83.8412017822266
20
83.4205017089844
40
0.0
41
0.0
42
0.0
10
84.0034027099609
20
82.9906005859375
40
0.0
41
0.0
42
0.0
10
84.0245971679688
20
82.9641036987305
40
0.0
41
0.0
42
0.0
10
84.0008010864258
20
82.7919006347656
40
0.0
41
0.0
42
0.0
10
83.9787979125977
20
82.5278015136719
40
0.0
41
0.0
42
0.0
10
83.5106964111328
20
82.7781982421875
40
0.0
41
0.0
42
0.0
10
83.2731018066406
20
82.8832015991211
40
0.0
41
0.0
42
0.0
10
83.0158996582031
20
82.9154968261719
40
0.0
41
0.0
42
0.0
10
82.8410034179688
20
82.9623031616211
40
0.0
41
0.0
42
0.0
10
82.5167007446289
20
83.0313034057617
40
0.0
41
0.0
42
0.0
10
82.4787979125977
20
83.0350036621094
40
0.0
41
0.0
42
0.0
10
82.0171966552734
20
83.1146011352539
40
0.0
41
0.0
42
0.0
10
81.8907012939453
20
83.1262969970703
40
0.0
41
0.0
42
0.0
10
81.5190963745117
20
83.1561965942383
40
0.0
41
0.0
42
0.0
10
81.480598449707
20
83.1560974121094
40
0.0
41
0.0
42
0.0
10
81.13330078125
20
83.1350021362305
40
0.0
41
0.0
42
0.0
10
81.019401550293
20
83.1410980224609
40
0.0
41
0.0
42
0.0
10
80.9828033447266
20
83.1410980224609
40
0.0
41
0.0
42
0.0
10
80.4934997558594
20
83.0093994140625
40
0.0
41
0.0
42
0.0
10
80.486198425293
20
83.0087966918945
40
0.0
41
0.0
42
0.0
10
80.486198425293
20
82.9951019287109
40
0.0
41
0.0
42
0.0
10
80.2963027954102
20
82.5158996582031
40
0.0
41
0.0
42
0.0
10
80.2960968017578
20
82.4838027954102
40
0.0
41
0.0
42
0.0
10
80.3479995727539
20
82.3491973876953
40
0.0
41
0.0
42
0.0
10
80.361198425293
20
81.9837036132812
40
0.0
41
0.0
42
0.0
210
0.0
220
0.0
230
1.0
0
LWPOLYLINE
5
33
330
1C
100
AcDbEntity
67
0
8
0
62
256
6
ByLayer
370
-1
48
1.0
60
0
100
AcDbPolyline
90
85
70
1
38
0.0
39
0.0
10
82.8423004150391
20
74.0186996459961
40
0.0
41
0.0
42
0.0
10
82.8422012329102
20
73.9828033447266
40
0.0
41
0.0
42
0.0
10
82.8790969848633
20
73.8494033813477
40
0.0
41
0.0
42
0.0
10
82.9378967285156
20
73.4848022460938
40
0.0
41
0.0
42
0.0
10
82.9700012207031
20
73.3823013305664
40
0.0
41
0.0
42
0.0
10
83.0174026489258
20
73.247200012207
40
0.0
41
0.0
42
0.0
10
83.0995025634766
20
72.9865036010742
40
0.0
41
0.0
42
0.0
10
83.1463012695312
20
72.8522033691406
40
0.0
41
0.0
42
0.0
10
83.2864990234375
20
72.486701965332
40
0.0
41
0.0
42
0.0
10
83.3274002075195
20
72.3519973754883
40
0.0
41
0.0
42
0.0
10
83.4776992797852
20
71.9865036010742
40
0.0
41
0.0
42
0.0
10
83.4997024536133
20
71.8955993652344
40
0.0
41
0.0
42
0.0
10
83.5120010375977
20
71.8719024658203
40
0.0
41
0.0
42
0.0
10
83.8606033325195
20
71.5781021118164
40
0.0
41
0.0
42
0.0
10
83.8692016601562
20
71.5655975341797
40
0.0
41
0.0
42
0.0
10
83.9776992797852
20
71.496696472168
40
0.0
41
0.0
42
0.0
10
83.9880981445312
20
71.4872970581055
40
0.0
41
0.0
42
0.0
10
84.0147018432617
20
71.4871978759766
40
0.0
41
0.0
42
0.0
10
84.027702331543
20
71.4943008422852
40
0.0
41
0.0
42
0.0
10
84.0462036132812
20
71.5
40
0.0
41
0.0
42
0.0
10
84.5108032226562
20
71.6237030029297
40
0.0
41
0.0
42
0.0
10
84.5586013793945
20
71.6578979492188
40
0.0
41
0.0
42
0.0
10
84.8761978149414
20
71.8625030517578
40
0.0
41
0.0
42
0.0
10
84.9609985351562
20
71.9197006225586
40
0.0
41
0.0
42
0.0
10
84.9990005493164
20
71.9428024291992
40
0.0
41
0.0
42
0.0
10
84.9990005493164
20
71.9764022827148
40
0.0
41
0.0
42
0.0
10
84.9859008789062
20
71.9763031005859
40
0.0
41
0.0
42
0.0
10
84.9384002685547
20
71.9475021362305
40
0.0
41
0.0
42
0.0
10
84.8792037963867
20
71.9074020385742
40
0.0
41
0.0
42
0.0
10
84.5272979736328
20
71.6808013916016
40
0.0
41
0.0
42
0.0
10
84.4890975952148
20
71.6533966064453
40
0.0
41
0.0
42
0.0
10
84.0986022949219
20
71.5494995117188
40
0.0
41
0.0
42
0.0
10
84.0050964355469
20
71.5262985229492
40
0.0
41
0.0
42
0.0
10
83.9166030883789
20
71.5824966430664
40
0.0
41
0.0
42
0.0
10
83.9092025756836
20
71.5932998657227
40
0.0
41
0.0
42
0.0
10
83.5202026367188
20
71.9210968017578
40
0.0
41
0.0
42
0.0
10
83.5
20
71.9598007202148
40
0.0
41
0.0
42
0.0
10
83.4869995117188
20
72.0133972167969
40
0.0
41
0.0
42
0.0
10
83.3208999633789
20
72.4179000854492
40
0.0
41
0.0
42
0.0
10
83.2919998168945
20
72.5130996704102
40
0.0
41
0.0
42
0.0
10
83.1367034912109
20
72.9177017211914
40
0.0
41
0.0
42
0.0
10
83.103401184082
20
73.013298034668
40
0.0
41
0.0
42
0.0
10
83.0122985839844
20
73.3024978637695
40
0.0
41
0.0
42
0.0
10
82.9789962768555
20
73.3974990844727
40
0.0
41
0.0
42
0.0
10
82.9421005249023
20
73.5150985717773
40
0.0
41
0.0
42
0.0
10
82.8767013549805
20
73.9205017089844
40
0.0
41
0.0
42
0.0
10
82.8531036376953
20
74.0062026977539
40
0.0
41
0.0
42
0.0
10
82.8989028930664
20
74.386100769043
40
0.0
41
0.0
42
0.0
10
82.8974990844727
20
74.4858016967773
40
0.0
41
0.0
42
0.0
10
82.9299011230469
20
74.5824966430664
40
0.0
41
0.0
42
0.0
10
83.0005035400391
20
74.7433013916016
40
0.0
41
0.0
42
0.0
10
83.0970001220703
20
74.9884033203125
40
0.0
41
0.0
42
0.0
10
83.1440963745117
20
75.0847015380859
40
0.0
41
0.0
42
0.0
10
83.3666000366211
20
75.4898986816406
40
0.0
41
0.0
42
0.0
10
83.4373016357422
20
75.6240005493164
40
0.0
41
0.0
42
0.0
10
83.5022964477539
20
75.7396011352539
40
0.0
41
0.0
42
0.0
10
83.6893005371094
20
75.99169921875
40
0.0
41
0.0
42
0.0
10
83.7461013793945
20
76.0860977172852
40
0.0
41
0.0
42
0.0
10
84.0058975219727
20
76.4803009033203
40
0.0
41
0.0
42
0.0
10
84.0485000610352
20
76.4988021850586
40
0.0
41
0.0
42
0.0
10
84.3926010131836
20
76.6794967651367
40
0.0
41
0.0
42
0.0
10
84.4991989135742
20
76.7292022705078
40
0.0
41
0.0
42
0.0
10
84.896598815918
20
76.5142974853516
40
0.0
41
0.0
42
0.0
10
84.9229965209961
20
76.4983978271484
40
0.0
41
0.0
42
0.0
10
84.9847030639648
20
76.4693984985352
40
0.0
41
0.0
42
0.0
10
84.9990005493164
20
76.4693984985352
40
0.0
41
0.0
42
0.0
10
84.9989013671875
20
76.5345993041992
40
0.0
41
0.0
42
0.0
10
84.5146026611328
20
76.7978973388672
40
0.0
41
0.0
42
0.0
10
84.4845962524414
20
76.7977981567383
40
0.0
41
0.0
42
0.0
10
84.3994979858398
20
76.7581024169922
40
0.0
41
0.0
42
0.0
10
84.0770034790039
20
76.5886993408203
40
0.0
41
0.0
42
0.0
10
83.9956970214844
20
76.5488967895508
40
0.0
41
0.0
42
0.0
10
83.9772033691406
20
76.5095977783203
40
0.0
41
0.0
42
0.0
10
83.736701965332
20
76.143798828125
40
0.0
41
0.0
42
0.0
10
83.6555023193359
20
76.00830078125
40
0.0
41
0.0
42
0.0
10
83.4975967407227
20
75.7956008911133
40
0.0
41
0.0
42
0.0
10
83.4440994262695
20
75.7003021240234
40
0.0
41
0.0
42
0.0
10
83.3436965942383
20
75.5100021362305
40
0.0
41
0.0
42
0.0
10
83.1435012817383
20
75.1453018188477
40
0.0
41
0.0
42
0.0
10
83.0779037475586
20
75.0114974975586
40
0.0
41
0.0
42
0.0
10
82.9992980957031
20
74.8116989135742
40
0.0
41
0.0
42
0.0
10
82.9269027709961
20
74.6473999023438
40
0.0
41
0.0
42
0.0
10
82.8831024169922
20
74.5167007446289
40
0.0
41
0.0
42
0.0
10
82.8853988647461
20
74.3774032592773
40
0.0
41
0.0
42
0.0
10
82.8423004150391
20
74.0186996459961
40
0.0
41
0.0
42
0.0
210
0.0
220
0.0
230
1.0
0
VIEWPORT
5
38
330
34
100
AcDbEntity
67
1
8
0
62
256
6
ByLayer
370
-1
48
1.0
60
0
100
AcDbViewport
10
0.0
20
0.0
30
0.0
40
297.0
41
210.0
68
1
69
1
12
50.0
22
100.0
13
0.0
23
0.0
14
10.0
24
10.0
15
10.0
25
10.0
16
0.0
26
0.0
36
1.0
17
0.0
27
0.0
37
0.0
42
50.0
43
0.0
44
0.0
45
250.0
50
0.0
51
0.0
72
1000
90
819232
110
0.0
120
0.0
130
0.0
111
1.0
121
0.0
131
0.0
112
0.0
122
1.0
132
0.0
0
ENDSEC
0
SECTION
2
OBJECTS
0
DICTIONARY
5
3E
330
0
100
AcDbDictionary
280
1
281
1
3
ACAD_GROUP
350
12
3
ACAD_LAYOUT
350
37
3
ACAD_DGNDEFINITIONS
350
F
3
ACAD_DWFDEFINITIONS
350
10
3
ACAD_PDFDEFINITIONS
350
11
3
ACAD_MLINESTYLE
350
B
3
ACAD_IMAGE_DICT
350
E
3
ACAD_IMAGE_VARS
350
21
0
DICTIONARY
5
12
330
3E
100
AcDbDictionary
280
1
281
1
0
DICTIONARY
5
37
330
3E
100
AcDbDictionary
280
1
281
1
3
Model
350
20
3
Layout1
350
39
0
DICTIONARY
5
F
330
3E
100
AcDbDictionary
280
1
281
1
0
DICTIONARY
5
10
330
3E
100
AcDbDictionary
280
1
281
1
0
DICTIONARY
5
11
330
3E
100
AcDbDictionary
280
1
281
1
0
DICTIONARY
5
B
330
3E
100
AcDbDictionary
280
1
281
1
3
Standard
350
1B
0
DICTIONARY
5
E
330
3E
100
AcDbDictionary
280
1
281
1
0
DICTIONARY
5
6
330
5
100
AcDbDictionary
280
1
281
1
3
ACAD_LAYERSTATES
360
3F
0
DICTIONARY
5
3F
330
6
100
AcDbDictionary
280
1
281
1
0
LAYOUT
5
20
330
37
100
AcDbPlotSettings
1

2
none_device
4
ISO_A4_(210.00_x_297.00_MM)
6

40
7.5
41
20.0
42
7.5
43
20.0
44
210.0
45
297.0
46
0.0
47
0.0
48
0.0
49
0.0
140
0.0
141
0.0
142
1.0
143
1.0
70
11952
72
1
73
1
74
1
7

75
0
76
0
77
2
78
300
147
1.0
148
0.0
149
0.0
100
AcDbLayout
1
Model
71
0
10
-20.0
20
-7.5
11
277.0
21
202.5
12
0.0
22
0.0
32
0.0
14
25.7
24
19.5
34
0.0
15
231.3
25
175.5
35
0.0
146
0.0
13
0.0
23
0.0
33
0.0
16
1.0
26
0.0
36
0.0
17
0.0
27
1.0
37
0.0
76
0
330
1C
0
LAYOUT
5
39
330
37
100
AcDbPlotSettings
1

2
none_device
4
ISO_A4_(210.00_x_297.00_MM)
6

40
7.5
41
20.0
42
7.5
43
20.0
44
210.0
45
297.0
46
0.0
47
0.0
48
0.0
49
0.0
140
0.0
141
0.0
142
1.0
143
1.0
70
688
72
1
73
1
74
1
7

75
0
76
0
77
2
78
300
147
1.0
148
0.0
149
0.0
100
AcDbLayout
1
Layout1
71
1
10
-20.0
20
-7.5
11
277.0
21
202.5
12
0.0
22
0.0
32
0.0
14
25.7
24
19.5
34
0.0
15
231.3
25
175.5
35
0.0
146
0.0
13
0.0
23
0.0
33
0.0
16
1.0
26
0.0
36
0.0
17
0.0
27
1.0
37
0.0
76
0
330
34
0
MLINESTYLE
5
1B
330
B
100
AcDbMlineStyle
2
Standard
70
0
3

62
256
51
90.0
52
90.0
71
2
49
0.5
62
256
6
ByLayer
49
-0.5
62
256
6
ByLayer
0
RASTERVARIABLES
5
21
330
E
100
AcDbRasterVariables
90
0
70
1
71
1
72
0
0
ENDSEC
0
EOF
