999
DXF file generated by netDxf https://github.com/haplokuon/netDxf, Copyright(C) Daniel Carvajal, Licensed under MIT
0
SECTION
2
HEADER
9
$ACADVER
1
AC1015
9
$DWGCODEPAGE
3
ANSI_1252
9
$HANDSEED
5
42
9
$ANGBASE
50
0.0
9
$ANGDIR
70
0
9
$ATTMODE
70
1
9
$AUNITS
70
0
9
$AUPREC
70
0
9
$CECOLOR
62
256
9
$CELTSCALE
40
1.0
9
$CELTYPE
6
ByLayer
9
$CELWEIGHT
370
-1
9
$CLAYER
8
0
9
$CMLJUST
70
0
9
$CMLSCALE
40
20.0
9
$CMLSTYLE
2
Standard
9
$DIMSTYLE
2
Standard
9
$TEXTSIZE
40
2.5
9
$TEXTSTYLE
7
Standard
9
$LUNITS
70
2
9
$LUPREC
70
4
9
$MIRRTEXT
70
0
9
$EXTNAMES
290
1
9
$INSBASE
10
0.0
20
0.0
30
0.0
9
$INSUNITS
70
0
9
$LTSCALE
40
1.0
9
$LWDISPLAY
290
0
9
$PDMODE
70
0
9
$PDSIZE
40
0.0
9
$PLINEGEN
70
0
9
$PSLTSCALE
70
1
9
$SPLINESEGS
70
8
9
$SURFU
70
6
9
$SURFV
70
6
9
$TDCREATE
40
2460823.48362508
9
$TDUCREATE
40
2460823.15029175
9
$TDUPDATE
40
2460823.48362508
9
$TDUUPDATE
40
2460823.15029175
9
$TDINDWG
40
0.0
9
$UCSORG
10
0.0
20
0.0
30
0.0
9
$UCSXDIR
10
1.0
20
0.0
30
0.0
9
$UCSYDIR
10
0.0
20
1.0
30
0.0
9
$DIMADEC
70
0
9
$DIMALT
70
0
9
$DIMALTD
70
2
9
$DIMALTF
40
25.4
9
$DIMALTRND
40
0.0
9
$DIMALTTD
70
2
9
$DIMALTTZ
70
0
9
$DIMALTU
70
2
9
$DIMALTZ
70
0
9
$DIMAPOST
1

9
$DIMATFIT
70
3
9
$DIMAUNIT
70
0
9
$DIMASZ
40
0.18
9
$DIMAZIN
70
0
9
$DIMSAH
70
0
9
$DIMBLK
1

9
$DIMLDRBLK
1

9
$DIMCEN
40
0.09
9
$DIMCLRD
70
0
9
$DIMCLRE
70
0
9
$DIMCLRT
70
0
9
$DIMDEC
70
4
9
$DIMDLE
40
0.0
9
$DIMDLI
40
0.38
9
$DIMDSEP
70
46
9
$DIMEXE
40
0.18
9
$DIMEXO
40
0.0625
9
$DIMFXLON
70
0
9
$DIMFXL
40
1.0
9
$DIMGAP
40
0.09
9
$DIMJUST
70
0
9
$DIMLFAC
40
1.0
9
$DIMLUNIT
70
2
9
$DIMLWD
70
-2
9
$DIMLWE
70
-2
9
$DIMPOST
1

9
$DIMRND
40
0.0
9
$DIMSCALE
40
1.0
9
$DIMSD1
70
0
9
$DIMSD2
70
0
9
$DIMSE1
70
0
9
$DIMSE2
70
0
9
$DIMSOXD
70
0
9
$DIMTAD
70
0
9
$DIMTDEC
70
4
9
$DIMTFAC
40
1.0
9
$DIMTIH
70
0
9
$DIMTIX
70
0
9
$DIMTM
40
0.0
9
$DIMTMOVE
70
0
9
$DIMTOFL
70
0
9
$DIMTOH
70
0
9
$DIMTOL
70
0
9
$DIMLIM
70
0
9
$DIMTOLJ
70
1
9
$DIMTP
40
0.0
9
$DIMTXT
40
0.18
9
$DIMTXTDIRECTION
70
0
9
$DIMTZIN
70
0
9
$DIMZIN
70
0
9
$DIMFRAC
70
0
9
$DIMLTYPE
6
ByBlock
9
$DIMLTEX1
6
ByBlock
9
$DIMLTEX2
6
ByBlock
0
ENDSEC
0
SECTION
2
CLASSES
0
CLASS
1
RASTERVARIABLES
2
AcDbRasterVariables
3
ISM
90
0
280
0
281
0
0
ENDSEC
0
SECTION
2
TABLES
0
TABLE
2
APPID
5
4
330
0
100
AcDbSymbolTable
70
5
0
APPID
5
19
330
4
100
AcDbSymbolTableRecord
100
AcDbRegAppTableRecord
2
ACAD
70
0
0
APPID
5
3C
330
4
100
AcDbSymbolTableRecord
100
AcDbRegAppTableRecord
2
AcCmTransparency
70
0
0
APPID
5
3D
330
4
100
AcDbSymbolTableRecord
100
AcDbRegAppTableRecord
2
AcAecLayerStandard
70
0
0
APPID
5
3E
330
4
100
AcDbSymbolTableRecord
100
AcDbRegAppTableRecord
2
GradientColor1ACI
70
0
0
APPID
5
3F
330
4
100
AcDbSymbolTableRecord
100
AcDbRegAppTableRecord
2
GradientColor2ACI
70
0
0
ENDTAB
0
TABLE
2
VPORT
5
1
330
0
100
AcDbSymbolTable
70
1
0
VPORT
5
2
330
1
100
AcDbSymbolTableRecord
100
AcDbViewportTableRecord
2
*Active
70
0
10
0.0
20
0.0
11
1.0
21
1.0
12
0.0
22
0.0
13
0.0
23
0.0
14
0.5
24
0.5
15
10.0
25
10.0
16
0.0
26
0.0
36
1.0
17
0.0
27
0.0
37
0.0
40
10.0
41
1.0
75
0
76
1
0
ENDTAB
0
TABLE
2
LTYPE
5
7
330
0
100
AcDbSymbolTable
70
3
0
LTYPE
5
15
330
7
100
AcDbSymbolTableRecord
100
AcDbLinetypeTableRecord
2
Continuous
70
0
3
Solid line
72
65
73
0
40
0.0
0
LTYPE
5
16
330
7
100
AcDbSymbolTableRecord
100
AcDbLinetypeTableRecord
2
ByLayer
70
0
3

72
65
73
0
40
0.0
0
LTYPE
5
17
330
7
100
AcDbSymbolTableRecord
100
AcDbLinetypeTableRecord
2
ByBlock
70
0
3

72
65
73
0
40
0.0
0
ENDTAB
0
TABLE
2
LAYER
5
5
102
{ACAD_XDICTIONARY
360
6
102
}
330
0
100
AcDbSymbolTable
70
1
0
LAYER
5
14
330
5
100
AcDbSymbolTableRecord
100
AcDbLayerTableRecord
2
0
70
0
62
7
6
Continuous
290
1
370
-3
390
0
0
ENDTAB
0
TABLE
2
STYLE
5
8
330
0
100
AcDbSymbolTable
70
1
0
STYLE
5
18
330
8
100
AcDbSymbolTableRecord
100
AcDbTextStyleTableRecord
2
Standard
3
simplex.shx
70
0
71
0
40
0.0
41
1.0
42
0.0
50
0.0
0
ENDTAB
0
TABLE
2
DIMSTYLE
5
A
330
0
100
AcDbSymbolTable
70
1
100
AcDbDimStyleTable
0
DIMSTYLE
105
1A
330
A
100
AcDbSymbolTableRecord
100
AcDbDimStyleTableRecord
2
Standard
3

4

40
1.0
41
0.18
42
0.0625
43
0.38
44
0.18
45
0.0
46
0.0
47
0.0
48
0.0
49
1.0
70
0
71
0
72
0
73
0
74
0
75
0
76
0
77
0
78
0
79
0
140
0.18
141
0.09
143
25.4
144
1.0
146
1.0
147
0.09
148
0.0
170
0
171
2
172
0
174
0
175
0
176
0
177
0
178
0
179
0
271
4
272
4
273
2
274
2
275
0
276
0
277
2
278
46
279
0
280
0
281
0
282
0
283
1
284
0
285
0
286
0
289
3
290
0
294
0
340
18
173
0
345
17
346
17
347
17
371
-2
372
-2
0
ENDTAB
0
TABLE
2
VIEW
5
3
330
0
100
AcDbSymbolTable
70
0
0
ENDTAB
0
TABLE
2
UCS
5
C
330
0
100
AcDbSymbolTable
70
0
0
ENDTAB
0
TABLE
2
BLOCK_RECORD
5
D
330
0
100
AcDbSymbolTable
70
2
0
BLOCK_RECORD
5
1C
330
D
100
AcDbSymbolTableRecord
100
AcDbBlockTableRecord
2
*Model_Space
340
20
0
BLOCK_RECORD
5
36
330
D
100
AcDbSymbolTableRecord
100
AcDbBlockTableRecord
2
*Paper_Space
340
3B
0
ENDTAB
0
ENDSEC
0
SECTION
2
BLOCKS
0
BLOCK
5
1E
330
1C
100
AcDbEntity
67
0
8
0
100
AcDbBlockBegin
2
*Model_Space
70
0
10
0.0
20
0.0
30
0.0
3
*Model_Space
4

0
ENDBLK
5
1D
330
1C
100
AcDbEntity
8
0
100
AcDbBlockEnd
0
BLOCK
5
38
330
36
100
AcDbEntity
67
1
8
0
100
AcDbBlockBegin
2
*Paper_Space
70
0
10
0.0
20
0.0
30
0.0
3
*Paper_Space
4

0
ENDBLK
5
37
330
36
100
AcDbEntity
8
0
100
AcDbBlockEnd
0
ENDSEC
0
SECTION
2
ENTITIES
0
LWPOLYLINE
5
22
330
1C
100
AcDbEntity
67
0
8
0
62
256
6
ByLayer
370
-1
48
1.0
60
0
100
AcDbPolyline
90
116
70
1
38
0.0
39
0.0
10
65.0052032470703
20
70.3620986938477
40
0.0
41
0.0
42
0.0
10
65.0509033203125
20
70.4890975952148
40
0.0
41
0.0
42
0.0
10
65.1309967041016
20
70.6195983886719
40
0.0
41
0.0
42
0.0
10
65.3180999755859
20
70.992301940918
40
0.0
41
0.0
42
0.0
10
65.5062026977539
20
71.1849975585938
40
0.0
41
0.0
42
0.0
10
65.686897277832
20
71.3147964477539
40
0.0
41
0.0
42
0.0
10
65.9869003295898
20
71.2498016357422
40
0.0
41
0.0
42
0.0
10
66.2741012573242
20
71.1093978881836
40
0.0
41
0.0
42
0.0
10
66.4859008789062
20
71.1112976074219
40
0.0
41
0.0
42
0.0
10
66.6947021484375
20
70.9988021850586
40
0.0
41
0.0
42
0.0
10
66.7852020263672
20
70.9573974609375
40
0.0
41
0.0
42
0.0
10
66.8125991821289
20
70.9409027099609
40
0.0
41
0.0
42
0.0
10
66.9850997924805
20
70.907096862793
40
0.0
41
0.0
42
0.0
10
67.1500015258789
20
70.856201171875
40
0.0
41
0.0
42
0.0
10
67.4881973266602
20
70.6839981079102
40
0.0
41
0.0
42
0.0
10
67.6233978271484
20
70.6360015869141
40
0.0
41
0.0
42
0.0
10
67.8879013061523
20
70.4981002807617
40
0.0
41
0.0
42
0.0
10
67.9897994995117
20
70.434196472168
40
0.0
41
0.0
42
0.0
10
68.0101013183594
20
70.4252014160156
40
0.0
41
0.0
42
0.0
10
68.1262969970703
20
70.3647003173828
40
0.0
41
0.0
42
0.0
10
68.5903015136719
20
70.0010986328125
40
0.0
41
0.0
42
0.0
10
68.5983963012695
20
69.9928970336914
40
0.0
41
0.0
42
0.0
10
68.8196029663086
20
69.6251983642578
40
0.0
41
0.0
42
0.0
10
68.8912963867188
20
69.4880981445312
40
0.0
41
0.0
42
0.0
10
68.9998016357422
20
69.1550979614258
40
0.0
41
0.0
42
0.0
10
69.0245971679688
20
69.0831985473633
40
0.0
41
0.0
42
0.0
10
69.0479965209961
20
68.9851989746094
40
0.0
41
0.0
42
0.0
10
69.0663986206055
20
68.9194030761719
40
0.0
41
0.0
42
0.0
10
69.138298034668
20
68.6190032958984
40
0.0
41
0.0
42
0.0
10
69.1595001220703
20
68.4826965332031
40
0.0
41
0.0
42
0.0
10
69.1735992431641
20
68.3483963012695
40
0.0
41
0.0
42
0.0
10
69.2574005126953
20
67.9823989868164
40
0.0
41
0.0
42
0.0
10
69.2583999633789
20
67.8475036621094
40
0.0
41
0.0
42
0.0
10
69.3397979736328
20
67.502197265625
40
0.0
41
0.0
42
0.0
10
69.2997970581055
20
67.3794021606445
40
0.0
41
0.0
42
0.0
10
69.2914962768555
20
67.3425979614258
40
0.0
41
0.0
42
0.0
10
69.2913970947266
20
67.3070983886719
40
0.0
41
0.0
42
0.0
10
69.361701965332
20
66.9828033447266
40
0.0
41
0.0
42
0.0
10
69.3608016967773
20
66.6855010986328
40
0.0
41
0.0
42
0.0
10
69.276496887207
20
66.6102981567383
40
0.0
41
0.0
42
0.0
10
69.091796875
20
66.5020980834961
40
0.0
41
0.0
42
0.0
10
68.9878997802734
20
66.4348983764648
40
0.0
41
0.0
42
0.0
10
68.8695983886719
20
66.4129028320312
40
0.0
41
0.0
42
0.0
10
68.4838027954102
20
66.2922973632812
40
0.0
41
0.0
42
0.0
10
68.2064971923828
20
66.2738037109375
40
0.0
41
0.0
42
0.0
10
67.9821014404297
20
66.2414016723633
40
0.0
41
0.0
42
0.0
10
67.8059997558594
20
66.2298965454102
40
0.0
41
0.0
42
0.0
10
67.4809036254883
20
66.219596862793
40
0.0
41
0.0
42
0.0
10
67.1563034057617
20
66.200798034668
40
0.0
41
0.0
42
0.0
10
66.9839019775391
20
66.1891021728516
40
0.0
41
0.0
42
0.0
10
66.8102035522461
20
66.1331024169922
40
0.0
41
0.0
42
0.0
10
66.6524963378906
20
66.102897644043
40
0.0
41
0.0
42
0.0
10
66.4941024780273
20
66.0309982299805
40
0.0
41
0.0
42
0.0
10
66.2658996582031
20
65.6875991821289
40
0.0
41
0.0
42
0.0
10
66.2620010375977
20
65.6538009643555
40
0.0
41
0.0
42
0.0
10
66.2621002197266
20
65.4824981689453
40
0.0
41
0.0
42
0.0
10
66.2948989868164
20
65.347900390625
40
0.0
41
0.0
42
0.0
10
66.3106002807617
20
65.0009994506836
40
0.0
41
0.0
42
0.0
10
66.3221969604492
20
65.0009994506836
40
0.0
41
0.0
42
0.0
10
66.3220977783203
20
65.0195007324219
40
0.0
41
0.0
42
0.0
10
66.3074035644531
20
65.3420028686523
40
0.0
41
0.0
42
0.0
10
66.2649002075195
20
65.5174026489258
40
0.0
41
0.0
42
0.0
10
66.2647018432617
20
65.6284027099609
40
0.0
41
0.0
42
0.0
10
66.5057983398438
20
65.9919967651367
40
0.0
41
0.0
42
0.0
10
66.7001037597656
20
66.0795974731445
40
0.0
41
0.0
42
0.0
10
66.8797988891602
20
66.1140975952148
40
0.0
41
0.0
42
0.0
10
67.015998840332
20
66.1578979492188
40
0.0
41
0.0
42
0.0
10
67.1536026000977
20
66.1672973632812
40
0.0
41
0.0
42
0.0
10
67.5189971923828
20
66.1884994506836
40
0.0
41
0.0
42
0.0
10
67.883903503418
20
66.1998977661133
40
0.0
41
0.0
42
0.0
10
68.0177993774414
20
66.2087020874023
40
0.0
41
0.0
42
0.0
10
68.1906967163086
20
66.2337036132812
40
0.0
41
0.0
42
0.0
10
68.5160980224609
20
66.255500793457
40
0.0
41
0.0
42
0.0
10
68.8115997314453
20
66.3478012084961
40
0.0
41
0.0
42
0.0
10
69.0121002197266
20
66.3851013183594
40
0.0
41
0.0
42
0.0
10
69.1865997314453
20
66.4979019165039
40
0.0
41
0.0
42
0.0
10
69.3266983032227
20
66.5800018310547
40
0.0
41
0.0
42
0.0
10
69.3766021728516
20
66.624397277832
40
0.0
41
0.0
42
0.0
10
69.3776016235352
20
67.0177001953125
40
0.0
41
0.0
42
0.0
10
69.3046035766602
20
67.3548965454102
40
0.0
41
0.0
42
0.0
10
69.3463973999023
20
67.4832992553711
40
0.0
41
0.0
42
0.0
10
69.3462982177734
20
67.5175018310547
40
0.0
41
0.0
42
0.0
10
69.2698974609375
20
67.842399597168
40
0.0
41
0.0
42
0.0
10
69.2686004638672
20
68.0175018310547
40
0.0
41
0.0
42
0.0
10
69.1943969726562
20
68.3414993286133
40
0.0
41
0.0
42
0.0
10
69.1759033203125
20
68.5171966552734
40
0.0
41
0.0
42
0.0
10
69.1489028930664
20
68.6909027099609
40
0.0
41
0.0
42
0.0
10
69.0852966308594
20
68.9561004638672
40
0.0
41
0.0
42
0.0
10
69.0689010620117
20
69.0147018432617
40
0.0
41
0.0
42
0.0
10
69.0353012084961
20
69.1556015014648
40
0.0
41
0.0
42
0.0
10
69.0
20
69.2580032348633
40
0.0
41
0.0
42
0.0
10
68.9171981811523
20
69.5117034912109
40
0.0
41
0.0
42
0.0
10
68.8268966674805
20
69.6846008300781
40
0.0
41
0.0
42
0.0
10
68.6330032348633
20
70.0070037841797
40
0.0
41
0.0
42
0.0
10
68.1835021972656
20
70.3595962524414
40
0.0
41
0.0
42
0.0
10
68.0381011962891
20
70.4355010986328
40
0.0
41
0.0
42
0.0
10
68.0100021362305
20
70.4478988647461
40
0.0
41
0.0
42
0.0
10
67.9243011474609
20
70.5016021728516
40
0.0
41
0.0
42
0.0
10
67.6865005493164
20
70.6257019042969
40
0.0
41
0.0
42
0.0
10
67.5115966796875
20
70.6878967285156
40
0.0
41
0.0
42
0.0
10
67.1858978271484
20
70.8536987304688
40
0.0
41
0.0
42
0.0
10
67.1474990844727
20
70.8706970214844
40
0.0
41
0.0
42
0.0
10
67.0148010253906
20
70.9116973876953
40
0.0
41
0.0
42
0.0
10
66.877197265625
20
70.9385986328125
40
0.0
41
0.0
42
0.0
10
66.8523025512695
20
70.9535980224609
40
0.0
41
0.0
42
0.0
10
66.7484970092773
20
71.0010986328125
40
0.0
41
0.0
42
0.0
10
66.5147018432617
20
71.1272964477539
40
0.0
41
0.0
42
0.0
10
66.3517990112305
20
71.1258010864258
40
0.0
41
0.0
42
0.0
10
66.0130004882812
20
71.2913970947266
40
0.0
41
0.0
42
0.0
10
65.6455001831055
20
71.3711013793945
40
0.0
41
0.0
42
0.0
10
65.614501953125
20
71.3710021972656
40
0.0
41
0.0
42
0.0
10
65.4936981201172
20
71.2843017578125
40
0.0
41
0.0
42
0.0
10
65.2238006591797
20
71.0075988769531
40
0.0
41
0.0
42
0.0
10
65.0009994506836
20
70.5635986328125
40
0.0
41
0.0
42
0.0
10
65.0009994506836
20
70.3620986938477
40
0.0
41
0.0
42
0.0
10
65.0052032470703
20
70.3620986938477
40
0.0
41
0.0
42
0.0
210
0.0
220
0.0
230
1.0
0
LWPOLYLINE
5
23
330
1C
100
AcDbEntity
67
0
8
0
62
256
6
ByLayer
370
-1
48
1.0
60
0
100
AcDbPolyline
90
85
70
1
38
0.0
39
0.0
10
65.0009994506836
20
73.0702972412109
40
0.0
41
0.0
42
0.0
10
65.0180969238281
20
73.0702972412109
40
0.0
41
0.0
42
0.0
10
65.08740234375
20
73.0828018188477
40
0.0
41
0.0
42
0.0
10
65.2039031982422
20
73.1335983276367
40
0.0
41
0.0
42
0.0
10
65.2294998168945
20
73.1492004394531
40
0.0
41
0.0
42
0.0
10
65.5022964477539
20
73.4083023071289
40
0.0
41
0.0
42
0.0
10
65.5364990234375
20
73.4896011352539
40
0.0
41
0.0
42
0.0
10
65.7297973632812
20
73.8050003051758
40
0.0
41
0.0
42
0.0
10
65.9112014770508
20
73.9692001342773
40
0.0
41
0.0
42
0.0
10
66.0022964477539
20
74.095703125
40
0.0
41
0.0
42
0.0
10
66.0973968505859
20
74.2574996948242
40
0.0
41
0.0
42
0.0
10
66.1368026733398
20
74.3173980712891
40
0.0
41
0.0
42
0.0
10
66.2790985107422
20
74.4922027587891
40
0.0
41
0.0
42
0.0
10
66.480598449707
20
74.8169021606445
40
0.0
41
0.0
42
0.0
10
66.4959030151367
20
74.8367004394531
40
0.0
41
0.0
42
0.0
10
66.6032028198242
20
74.9913024902344
40
0.0
41
0.0
42
0.0
10
66.6108016967773
20
75.0042037963867
40
0.0
41
0.0
42
0.0
10
66.7727966308594
20
75.3144989013672
40
0.0
41
0.0
42
0.0
10
66.8380966186523
20
75.4461975097656
40
0.0
41
0.0
42
0.0
10
66.8557968139648
20
75.486701965332
40
0.0
41
0.0
42
0.0
10
66.927001953125
20
75.7717971801758
40
0.0
41
0.0
42
0.0
10
66.9545974731445
20
75.9813003540039
40
0.0
41
0.0
42
0.0
10
66.9544982910156
20
76.019401550293
40
0.0
41
0.0
42
0.0
10
66.9448013305664
20
76.1948013305664
40
0.0
41
0.0
42
0.0
10
66.9018020629883
20
76.5142974853516
40
0.0
41
0.0
42
0.0
10
66.8271026611328
20
76.6882019042969
40
0.0
41
0.0
42
0.0
10
66.7443008422852
20
77.0140991210938
40
0.0
41
0.0
42
0.0
10
66.6397018432617
20
77.3370971679688
40
0.0
41
0.0
42
0.0
10
66.5550994873047
20
77.5121994018555
40
0.0
41
0.0
42
0.0
10
66.5122985839844
20
77.6495971679688
40
0.0
41
0.0
42
0.0
10
66.5016021728516
20
77.6727981567383
40
0.0
41
0.0
42
0.0
10
66.4260025024414
20
77.7824020385742
40
0.0
41
0.0
42
0.0
10
66.3392028808594
20
78.0127029418945
40
0.0
41
0.0
42
0.0
10
66.211799621582
20
78.3755035400391
40
0.0
41
0.0
42
0.0
10
66.1218032836914
20
78.5102996826172
40
0.0
41
0.0
42
0.0
10
66.0027008056641
20
78.8364028930664
40
0.0
41
0.0
42
0.0
10
65.9033966064453
20
78.8954010009766
40
0.0
41
0.0
42
0.0
10
65.7021026611328
20
79.0028991699219
40
0.0
41
0.0
42
0.0
10
65.6643981933594
20
79.0411987304688
40
0.0
41
0.0
42
0.0
10
65.5139999389648
20
79.1333999633789
40
0.0
41
0.0
42
0.0
10
65.4822998046875
20
79.13330078125
40
0.0
41
0.0
42
0.0
10
65.0168991088867
20
79.026496887207
40
0.0
41
0.0
42
0.0
10
65.0009994506836
20
79.021598815918
40
0.0
41
0.0
42
0.0
10
65.0009994506836
20
78.9485015869141
40
0.0
41
0.0
42
0.0
10
65.0180969238281
20
78.9484024047852
40
0.0
41
0.0
42
0.0
10
65.3068008422852
20
79.0005035400391
40
0.0
41
0.0
42
0.0
10
65.494499206543
20
79.0435028076172
40
0.0
41
0.0
42
0.0
10
65.5493011474609
20
79.0100021362305
40
0.0
41
0.0
42
0.0
10
65.5621032714844
20
78.9969024658203
40
0.0
41
0.0
42
0.0
10
65.8404006958008
20
78.8483963012695
40
0.0
41
0.0
42
0.0
10
65.9971008300781
20
78.7554016113281
40
0.0
41
0.0
42
0.0
10
66.0941009521484
20
78.489501953125
40
0.0
41
0.0
42
0.0
10
66.2108993530273
20
78.3143997192383
40
0.0
41
0.0
42
0.0
10
66.3258972167969
20
77.9870986938477
40
0.0
41
0.0
42
0.0
10
66.4012985229492
20
77.7869033813477
40
0.0
41
0.0
42
0.0
10
66.4981994628906
20
77.6464004516602
40
0.0
41
0.0
42
0.0
10
66.5151977539062
20
77.6097030639648
40
0.0
41
0.0
42
0.0
10
66.5531997680664
20
77.4877014160156
40
0.0
41
0.0
42
0.0
10
66.6223983764648
20
77.3462982177734
40
0.0
41
0.0
42
0.0
10
66.7390975952148
20
76.9858016967773
40
0.0
41
0.0
42
0.0
10
66.8313980102539
20
76.621696472168
40
0.0
41
0.0
42
0.0
10
66.8900985717773
20
76.4856033325195
40
0.0
41
0.0
42
0.0
10
66.9241027832031
20
76.2326965332031
40
0.0
41
0.0
42
0.0
10
66.9365005493164
20
76.0074005126953
40
0.0
41
0.0
42
0.0
10
66.9160995483398
20
75.8524017333984
40
0.0
41
0.0
42
0.0
10
66.8313980102539
20
75.5131988525391
40
0.0
41
0.0
42
0.0
10
66.8162002563477
20
75.4782028198242
40
0.0
41
0.0
42
0.0
10
66.7651977539062
20
75.3753967285156
40
0.0
41
0.0
42
0.0
10
66.5826034545898
20
75.0253982543945
40
0.0
41
0.0
42
0.0
10
66.5726013183594
20
75.0084991455078
40
0.0
41
0.0
42
0.0
10
66.4779968261719
20
74.8733978271484
40
0.0
41
0.0
42
0.0
10
66.2510986328125
20
74.5077972412109
40
0.0
41
0.0
42
0.0
10
66.140998840332
20
74.3724975585938
40
0.0
41
0.0
42
0.0
10
66.1121978759766
20
74.3285980224609
40
0.0
41
0.0
42
0.0
10
65.9975967407227
20
74.1334991455078
40
0.0
41
0.0
42
0.0
10
65.8911972045898
20
73.9868011474609
40
0.0
41
0.0
42
0.0
10
65.7436981201172
20
73.8533020019531
40
0.0
41
0.0
42
0.0
10
65.7133026123047
20
73.8105010986328
40
0.0
41
0.0
42
0.0
10
65.5294036865234
20
73.5103988647461
40
0.0
41
0.0
42
0.0
10
65.4975967407227
20
73.434700012207
40
0.0
41
0.0
42
0.0
10
65.2512969970703
20
73.200798034668
40
0.0
41
0.0
42
0.0
10
65.2108993530273
20
73.1763000488281
40
0.0
41
0.0
42
0.0
10
65.1005020141602
20
73.1280975341797
40
0.0
41
0.0
42
0.0
10
65.0009994506836
20
73.1101989746094
40
0.0
41
0.0
42
0.0
10
65.0009994506836
20
73.0702972412109
40
0.0
41
0.0
42
0.0
210
0.0
220
0.0
230
1.0
0
LWPOLYLINE
5
24
330
1C
100
AcDbEntity
67
0
8
0
62
256
6
ByLayer
370
-1
48
1.0
60
0
100
AcDbPolyline
90
115
70
1
38
0.0
39
0.0
10
65.0174026489258
20
83.6776962280273
40
0.0
41
0.0
42
0.0
10
65.1920013427734
20
83.720100402832
40
0.0
41
0.0
42
0.0
10
65.5195007324219
20
83.7348022460938
40
0.0
41
0.0
42
0.0
10
65.628303527832
20
83.7350006103516
40
0.0
41
0.0
42
0.0
10
65.9919967651367
20
83.4941024780273
40
0.0
41
0.0
42
0.0
10
66.0795974731445
20
83.2996978759766
40
0.0
41
0.0
42
0.0
10
66.1139984130859
20
83.1201019287109
40
0.0
41
0.0
42
0.0
10
66.1578979492188
20
82.9839019775391
40
0.0
41
0.0
42
0.0
10
66.1672973632812
20
82.8462982177734
40
0.0
41
0.0
42
0.0
10
66.1884994506836
20
82.4809036254883
40
0.0
41
0.0
42
0.0
10
66.1998977661133
20
82.1159973144531
40
0.0
41
0.0
42
0.0
10
66.2087020874023
20
81.9821014404297
40
0.0
41
0.0
42
0.0
10
66.2337036132812
20
81.8090972900391
40
0.0
41
0.0
42
0.0
10
66.255500793457
20
81.4838027954102
40
0.0
41
0.0
42
0.0
10
66.3478012084961
20
81.1882019042969
40
0.0
41
0.0
42
0.0
10
66.3851013183594
20
80.9878005981445
40
0.0
41
0.0
42
0.0
10
66.497802734375
20
80.813102722168
40
0.0
41
0.0
42
0.0
10
66.5799026489258
20
80.6731033325195
40
0.0
41
0.0
42
0.0
10
66.624397277832
20
80.6231002807617
40
0.0
41
0.0
42
0.0
10
66.9832992553711
20
80.6221008300781
40
0.0
41
0.0
42
0.0
10
67.1183013916016
20
80.5782012939453
40
0.0
41
0.0
42
0.0
10
67.1537017822266
20
80.5781021118164
40
0.0
41
0.0
42
0.0
10
67.1914978027344
20
80.5827026367188
40
0.0
41
0.0
42
0.0
10
67.5176010131836
20
80.6532974243164
40
0.0
41
0.0
42
0.0
10
67.6923980712891
20
80.6546020507812
40
0.0
41
0.0
42
0.0
10
68.0164031982422
20
80.7307968139648
40
0.0
41
0.0
42
0.0
10
68.1914978027344
20
80.7492980957031
40
0.0
41
0.0
42
0.0
10
68.515998840332
20
80.823600769043
40
0.0
41
0.0
42
0.0
10
68.6909027099609
20
80.8508987426758
40
0.0
41
0.0
42
0.0
10
68.9561004638672
20
80.9143981933594
40
0.0
41
0.0
42
0.0
10
69.0147018432617
20
80.9308013916016
40
0.0
41
0.0
42
0.0
10
69.1556015014648
20
80.9644012451172
40
0.0
41
0.0
42
0.0
10
69.2580032348633
20
80.9998016357422
40
0.0
41
0.0
42
0.0
10
69.5118026733398
20
81.0824966430664
40
0.0
41
0.0
42
0.0
10
69.684700012207
20
81.1727981567383
40
0.0
41
0.0
42
0.0
10
70.0057983398438
20
81.366096496582
40
0.0
41
0.0
42
0.0
10
70.3597030639648
20
81.8163986206055
40
0.0
41
0.0
42
0.0
10
70.4355010986328
20
81.9617004394531
40
0.0
41
0.0
42
0.0
10
70.447998046875
20
81.9897994995117
40
0.0
41
0.0
42
0.0
10
70.5017013549805
20
82.0754013061523
40
0.0
41
0.0
42
0.0
10
70.6258010864258
20
82.3134002685547
40
0.0
41
0.0
42
0.0
10
70.6880035400391
20
82.4882965087891
40
0.0
41
0.0
42
0.0
10
70.8536987304688
20
82.8140029907227
40
0.0
41
0.0
42
0.0
10
70.8707962036133
20
82.8523025512695
40
0.0
41
0.0
42
0.0
10
70.9116973876953
20
82.9850997924805
40
0.0
41
0.0
42
0.0
10
70.9387969970703
20
83.1225967407227
40
0.0
41
0.0
42
0.0
10
70.9536972045898
20
83.1474990844727
40
0.0
41
0.0
42
0.0
10
71.0011978149414
20
83.2512969970703
40
0.0
41
0.0
42
0.0
10
71.1272964477539
20
83.4851989746094
40
0.0
41
0.0
42
0.0
10
71.1259002685547
20
83.6480026245117
40
0.0
41
0.0
42
0.0
10
71.2913970947266
20
83.9869003295898
40
0.0
41
0.0
42
0.0
10
71.3711013793945
20
84.3543014526367
40
0.0
41
0.0
42
0.0
10
71.3710021972656
20
84.3852996826172
40
0.0
41
0.0
42
0.0
10
71.2842025756836
20
84.5062026977539
40
0.0
41
0.0
42
0.0
10
71.0059967041016
20
84.7773971557617
40
0.0
41
0.0
42
0.0
10
70.8827972412109
20
84.8749008178711
40
0.0
41
0.0
42
0.0
10
70.5645980834961
20
84.9990005493164
40
0.0
41
0.0
42
0.0
10
70.3620986938477
20
84.9990005493164
40
0.0
41
0.0
42
0.0
10
70.3619995117188
20
84.9946975708008
40
0.0
41
0.0
42
0.0
10
70.4872970581055
20
84.9495010375977
40
0.0
41
0.0
42
0.0
10
70.8143005371094
20
84.8220977783203
40
0.0
41
0.0
42
0.0
10
70.9937973022461
20
84.6800994873047
40
0.0
41
0.0
42
0.0
10
71.1849975585938
20
84.4935989379883
40
0.0
41
0.0
42
0.0
10
71.3147964477539
20
84.3128967285156
40
0.0
41
0.0
42
0.0
10
71.2498016357422
20
84.0130004882812
40
0.0
41
0.0
42
0.0
10
71.1093978881836
20
83.725700378418
40
0.0
41
0.0
42
0.0
10
71.1112976074219
20
83.5139999389648
40
0.0
41
0.0
42
0.0
10
70.9988021850586
20
83.3050994873047
40
0.0
41
0.0
42
0.0
10
70.9573974609375
20
83.2145004272461
40
0.0
41
0.0
42
0.0
10
70.9409027099609
20
83.1873016357422
40
0.0
41
0.0
42
0.0
10
70.907096862793
20
83.0148010253906
40
0.0
41
0.0
42
0.0
10
70.856201171875
20
82.8498992919922
40
0.0
41
0.0
42
0.0
10
70.6839981079102
20
82.5117034912109
40
0.0
41
0.0
42
0.0
10
70.6360015869141
20
82.3766021728516
40
0.0
41
0.0
42
0.0
10
70.4981002807617
20
82.1118011474609
40
0.0
41
0.0
42
0.0
10
70.4343032836914
20
82.0101013183594
40
0.0
41
0.0
42
0.0
10
70.4253005981445
20
81.9897003173828
40
0.0
41
0.0
42
0.0
10
70.3647994995117
20
81.8734970092773
40
0.0
41
0.0
42
0.0
10
69.9941024780273
20
81.4019012451172
40
0.0
41
0.0
42
0.0
10
69.6252975463867
20
81.1800994873047
40
0.0
41
0.0
42
0.0
10
69.4880981445312
20
81.1083984375
40
0.0
41
0.0
42
0.0
10
69.1550979614258
20
81.0
40
0.0
41
0.0
42
0.0
10
69.0832977294922
20
80.97509765625
40
0.0
41
0.0
42
0.0
10
68.9851989746094
20
80.9516983032227
40
0.0
41
0.0
42
0.0
10
68.9194030761719
20
80.9332962036133
40
0.0
41
0.0
42
0.0
10
68.6190032958984
20
80.8613967895508
40
0.0
41
0.0
42
0.0
10
68.4839019775391
20
80.8404006958008
40
0.0
41
0.0
42
0.0
10
68.1184005737305
20
80.7566986083984
40
0.0
41
0.0
42
0.0
10
67.9834976196289
20
80.7425003051758
40
0.0
41
0.0
42
0.0
10
67.6175003051758
20
80.6563034057617
40
0.0
41
0.0
42
0.0
10
67.4822998046875
20
80.6552963256836
40
0.0
41
0.0
42
0.0
10
67.1707000732422
20
80.5876998901367
40
0.0
41
0.0
42
0.0
10
67.0166015625
20
80.6379013061523
40
0.0
41
0.0
42
0.0
10
66.6855010986328
20
80.6389007568359
40
0.0
41
0.0
42
0.0
10
66.6102981567383
20
80.7232971191406
40
0.0
41
0.0
42
0.0
10
66.5019989013672
20
80.9079971313477
40
0.0
41
0.0
42
0.0
10
66.4348983764648
20
81.0120010375977
40
0.0
41
0.0
42
0.0
10
66.4129028320312
20
81.1302032470703
40
0.0
41
0.0
42
0.0
10
66.2922973632812
20
81.5160980224609
40
0.0
41
0.0
42
0.0
10
66.2738037109375
20
81.7934036254883
40
0.0
41
0.0
42
0.0
10
66.2414016723633
20
82.0177993774414
40
0.0
41
0.0
42
0.0
10
66.2298965454102
20
82.1939010620117
40
0.0
41
0.0
42
0.0
10
66.219596862793
20
82.5189971923828
40
0.0
41
0.0
42
0.0
10
66.200798034668
20
82.8435974121094
40
0.0
41
0.0
42
0.0
10
66.1890029907227
20
83.015998840332
40
0.0
41
0.0
42
0.0
10
66.1331024169922
20
83.189697265625
40
0.0
41
0.0
42
0.0
10
66.1027984619141
20
83.347297668457
40
0.0
41
0.0
42
0.0
10
66.0309982299805
20
83.5057983398438
40
0.0
41
0.0
42
0.0
10
65.6875
20
83.7338027954102
40
0.0
41
0.0
42
0.0
10
65.6538009643555
20
83.7377014160156
40
0.0
41
0.0
42
0.0
10
65.4804000854492
20
83.7376022338867
40
0.0
41
0.0
42
0.0
10
65.1178970336914
20
83.7210998535156
40
0.0
41
0.0
42
0.0
10
65.0009994506836
20
83.6927032470703
40
0.0
41
0.0
42
0.0
10
65.0009994506836
20
83.6776962280273
40
0.0
41
0.0
42
0.0
10
65.0174026489258
20
83.6776962280273
40
0.0
41
0.0
42
0.0
210
0.0
220
0.0
230
1.0
0
LWPOLYLINE
5
25
330
1C
100
AcDbEntity
67
0
8
0
62
256
6
ByLayer
370
-1
48
1.0
60
0
100
AcDbPolyline
90
189
70
1
38
0.0
39
0.0
10
69.6231994628906
20
75.4843978881836
40
0.0
41
0.0
42
0.0
10
69.6815032958984
20
75.3541030883789
40
0.0
41
0.0
42
0.0
10
69.8690032958984
20
74.9931030273438
40
0.0
41
0.0
42
0.0
10
69.9720001220703
20
74.9028015136719
40
0.0
41
0.0
42
0.0
10
70.1280975341797
20
74.780403137207
40
0.0
41
0.0
42
0.0
10
70.4924011230469
20
74.4777984619141
40
0.0
41
0.0
42
0.0
10
70.6272964477539
20
74.3890991210938
40
0.0
41
0.0
42
0.0
10
70.9917984008789
20
74.092399597168
40
0.0
41
0.0
42
0.0
10
71.0970001220703
20
74.0326995849609
40
0.0
41
0.0
42
0.0
10
71.1502990722656
20
73.9932022094727
40
0.0
41
0.0
42
0.0
10
71.1342010498047
20
73.8831024169922
40
0.0
41
0.0
42
0.0
10
71.1233978271484
20
73.5145034790039
40
0.0
41
0.0
42
0.0
10
71.051399230957
20
73.3759002685547
40
0.0
41
0.0
42
0.0
10
71.0309982299805
20
73.3295974731445
40
0.0
41
0.0
42
0.0
10
70.9990005493164
20
73.2647018432617
40
0.0
41
0.0
42
0.0
10
70.8926010131836
20
73.0119018554688
40
0.0
41
0.0
42
0.0
10
70.8376998901367
20
72.8775024414062
40
0.0
41
0.0
42
0.0
10
70.7117004394531
20
72.5149002075195
40
0.0
41
0.0
42
0.0
10
70.6917037963867
20
72.3823013305664
40
0.0
41
0.0
42
0.0
10
70.652099609375
20
72.018798828125
40
0.0
41
0.0
42
0.0
10
70.6519012451172
20
71.9857025146484
40
0.0
41
0.0
42
0.0
10
70.8647994995117
20
71.6251983642578
40
0.0
41
0.0
42
0.0
10
70.9336013793945
20
71.4953994750977
40
0.0
41
0.0
42
0.0
10
70.9871978759766
20
71.4671020507812
40
0.0
41
0.0
42
0.0
10
71.118896484375
20
71.4382019042969
40
0.0
41
0.0
42
0.0
10
71.4816970825195
20
71.3779983520508
40
0.0
41
0.0
42
0.0
10
71.5188980102539
20
71.3779983520508
40
0.0
41
0.0
42
0.0
10
71.6531982421875
20
71.3908004760742
40
0.0
41
0.0
42
0.0
10
72.0173034667969
20
71.4181976318359
40
0.0
41
0.0
42
0.0
10
72.3766021728516
20
71.4832000732422
40
0.0
41
0.0
42
0.0
10
72.5173034667969
20
71.5190963745117
40
0.0
41
0.0
42
0.0
10
72.9114990234375
20
71.5193023681641
40
0.0
41
0.0
42
0.0
10
72.9949035644531
20
71.5402984619141
40
0.0
41
0.0
42
0.0
10
73.0661010742188
20
71.495002746582
40
0.0
41
0.0
42
0.0
10
73.1043014526367
20
71.4322967529297
40
0.0
41
0.0
42
0.0
10
73.1473007202148
20
71.3413009643555
40
0.0
41
0.0
42
0.0
10
73.1819000244141
20
71.2929992675781
40
0.0
41
0.0
42
0.0
10
73.3731994628906
20
70.9899978637695
40
0.0
41
0.0
42
0.0
10
73.4992980957031
20
70.7204971313477
40
0.0
41
0.0
42
0.0
10
73.5154037475586
20
70.6781005859375
40
0.0
41
0.0
42
0.0
10
73.5391006469727
20
70.6229019165039
40
0.0
41
0.0
42
0.0
10
73.5904006958008
20
70.4890975952148
40
0.0
41
0.0
42
0.0
10
73.8059005737305
20
70.1252975463867
40
0.0
41
0.0
42
0.0
10
73.8790969848633
20
69.9912033081055
40
0.0
41
0.0
42
0.0
10
73.9946975708008
20
69.8339996337891
40
0.0
41
0.0
42
0.0
10
74.124397277832
20
69.7468032836914
40
0.0
41
0.0
42
0.0
10
74.4834976196289
20
69.6232986450195
40
0.0
41
0.0
42
0.0
10
74.5155029296875
20
69.6231994628906
40
0.0
41
0.0
42
0.0
10
74.6457977294922
20
69.6815032958984
40
0.0
41
0.0
42
0.0
10
75.0067977905273
20
69.8690032958984
40
0.0
41
0.0
42
0.0
10
75.0970001220703
20
69.9720993041992
40
0.0
41
0.0
42
0.0
10
75.2193984985352
20
70.1281967163086
40
0.0
41
0.0
42
0.0
10
75.5218963623047
20
70.4925003051758
40
0.0
41
0.0
42
0.0
10
75.6107025146484
20
70.6274032592773
40
0.0
41
0.0
42
0.0
10
75.9074020385742
20
70.9917984008789
40
0.0
41
0.0
42
0.0
10
75.9670028686523
20
71.0970993041992
40
0.0
41
0.0
42
0.0
10
76.0066986083984
20
71.1501998901367
40
0.0
41
0.0
42
0.0
10
76.1167984008789
20
71.1342010498047
40
0.0
41
0.0
42
0.0
10
76.4853973388672
20
71.1232986450195
40
0.0
41
0.0
42
0.0
10
76.6240005493164
20
71.051399230957
40
0.0
41
0.0
42
0.0
10
76.6703033447266
20
71.0308990478516
40
0.0
41
0.0
42
0.0
10
76.7350006103516
20
70.9990005493164
40
0.0
41
0.0
42
0.0
10
76.9879989624023
20
70.8926010131836
40
0.0
41
0.0
42
0.0
10
77.1223983764648
20
70.8376007080078
40
0.0
41
0.0
42
0.0
10
77.4850006103516
20
70.7117004394531
40
0.0
41
0.0
42
0.0
10
77.6175994873047
20
70.6917037963867
40
0.0
41
0.0
42
0.0
10
77.9811019897461
20
70.652099609375
40
0.0
41
0.0
42
0.0
10
78.0141983032227
20
70.6520004272461
40
0.0
41
0.0
42
0.0
10
78.3747024536133
20
70.8648986816406
40
0.0
41
0.0
42
0.0
10
78.5044021606445
20
70.9337005615234
40
0.0
41
0.0
42
0.0
10
78.532600402832
20
70.9872970581055
40
0.0
41
0.0
42
0.0
10
78.5615005493164
20
71.118896484375
40
0.0
41
0.0
42
0.0
10
78.6219024658203
20
71.4816970825195
40
0.0
41
0.0
42
0.0
10
78.6218032836914
20
71.5192031860352
40
0.0
41
0.0
42
0.0
10
78.5944976806641
20
71.8831024169922
40
0.0
41
0.0
42
0.0
10
78.5815963745117
20
72.0170974731445
40
0.0
41
0.0
42
0.0
10
78.5165023803711
20
72.3766021728516
40
0.0
41
0.0
42
0.0
10
78.480598449707
20
72.5173034667969
40
0.0
41
0.0
42
0.0
10
78.4804000854492
20
72.9113998413086
40
0.0
41
0.0
42
0.0
10
78.4593963623047
20
72.9949035644531
40
0.0
41
0.0
42
0.0
10
78.5047988891602
20
73.0661010742188
40
0.0
41
0.0
42
0.0
10
78.5647964477539
20
73.1026992797852
40
0.0
41
0.0
42
0.0
10
78.5978012084961
20
73.132698059082
40
0.0
41
0.0
42
0.0
10
78.7086029052734
20
73.1830978393555
40
0.0
41
0.0
42
0.0
10
79.0098037719727
20
73.3731994628906
40
0.0
41
0.0
42
0.0
10
79.279296875
20
73.4992980957031
40
0.0
41
0.0
42
0.0
10
79.3217010498047
20
73.5154037475586
40
0.0
41
0.0
42
0.0
10
79.3769989013672
20
73.5391006469727
40
0.0
41
0.0
42
0.0
10
79.5108032226562
20
73.5904998779297
40
0.0
41
0.0
42
0.0
10
79.8746032714844
20
73.8059005737305
40
0.0
41
0.0
42
0.0
10
80.0085983276367
20
73.8790969848633
40
0.0
41
0.0
42
0.0
10
80.1657028198242
20
73.9946975708008
40
0.0
41
0.0
42
0.0
10
80.2529983520508
20
74.124397277832
40
0.0
41
0.0
42
0.0
10
80.3766021728516
20
74.4834976196289
40
0.0
41
0.0
42
0.0
10
80.3765029907227
20
74.5148010253906
40
0.0
41
0.0
42
0.0
10
80.1890029907227
20
74.8758010864258
40
0.0
41
0.0
42
0.0
10
80.1302032470703
20
75.0072021484375
40
0.0
41
0.0
42
0.0
10
80.027702331543
20
75.0969009399414
40
0.0
41
0.0
42
0.0
10
79.871696472168
20
75.2192993164062
40
0.0
41
0.0
42
0.0
10
79.5074005126953
20
75.5218963623047
40
0.0
41
0.0
42
0.0
10
79.3724975585938
20
75.6107025146484
40
0.0
41
0.0
42
0.0
10
79.0080032348633
20
75.9073028564453
40
0.0
41
0.0
42
0.0
10
78.9028015136719
20
75.9669036865234
40
0.0
41
0.0
42
0.0
10
78.8466033935547
20
76.0086975097656
40
0.0
41
0.0
42
0.0
10
78.8566970825195
20
76.3468017578125
40
0.0
41
0.0
42
0.0
10
78.8769989013672
20
76.4865036010742
40
0.0
41
0.0
42
0.0
10
78.9484024047852
20
76.6240997314453
40
0.0
41
0.0
42
0.0
10
78.9688034057617
20
76.6704025268555
40
0.0
41
0.0
42
0.0
10
79.0008010864258
20
76.7350997924805
40
0.0
41
0.0
42
0.0
10
79.1071014404297
20
76.9879989624023
40
0.0
41
0.0
42
0.0
10
79.1621017456055
20
77.1223983764648
40
0.0
41
0.0
42
0.0
10
79.2879028320312
20
77.4845962524414
40
0.0
41
0.0
42
0.0
10
79.3274993896484
20
77.8477020263672
40
0.0
41
0.0
42
0.0
10
79.3478012084961
20
77.9814987182617
40
0.0
41
0.0
42
0.0
10
79.3477020263672
20
78.0141983032227
40
0.0
41
0.0
42
0.0
10
79.1349029541016
20
78.3747024536133
40
0.0
41
0.0
42
0.0
10
79.0661010742188
20
78.5043029785156
40
0.0
41
0.0
42
0.0
10
79.0126037597656
20
78.532600402832
40
0.0
41
0.0
42
0.0
10
78.8809967041016
20
78.5615005493164
40
0.0
41
0.0
42
0.0
10
78.5182037353516
20
78.6219024658203
40
0.0
41
0.0
42
0.0
10
78.4806976318359
20
78.6218032836914
40
0.0
41
0.0
42
0.0
10
78.1167984008789
20
78.5944976806641
40
0.0
41
0.0
42
0.0
10
77.9828033447266
20
78.5815963745117
40
0.0
41
0.0
42
0.0
10
77.6231994628906
20
78.5166015625
40
0.0
41
0.0
42
0.0
10
77.4825973510742
20
78.480598449707
40
0.0
41
0.0
42
0.0
10
77.0885009765625
20
78.4804000854492
40
0.0
41
0.0
42
0.0
10
77.004997253418
20
78.4593963623047
40
0.0
41
0.0
42
0.0
10
76.9365997314453
20
78.5028991699219
40
0.0
41
0.0
42
0.0
10
76.9133987426758
20
78.5222015380859
40
0.0
41
0.0
42
0.0
10
76.8669967651367
20
78.5982971191406
40
0.0
41
0.0
42
0.0
10
76.6455001831055
20
78.9493026733398
40
0.0
41
0.0
42
0.0
10
76.6253967285156
20
79.0122985839844
40
0.0
41
0.0
42
0.0
10
76.5005035400391
20
79.2791976928711
40
0.0
41
0.0
42
0.0
10
76.4842987060547
20
79.3216018676758
40
0.0
41
0.0
42
0.0
10
76.4606018066406
20
79.3769989013672
40
0.0
41
0.0
42
0.0
10
76.4093017578125
20
79.5108032226562
40
0.0
41
0.0
42
0.0
10
76.1938018798828
20
79.8744964599609
40
0.0
41
0.0
42
0.0
10
76.1205978393555
20
80.0085983276367
40
0.0
41
0.0
42
0.0
10
76.0050964355469
20
80.1657028198242
40
0.0
41
0.0
42
0.0
10
75.8755035400391
20
80.2528991699219
40
0.0
41
0.0
42
0.0
10
75.5164031982422
20
80.3766021728516
40
0.0
41
0.0
42
0.0
10
75.4850997924805
20
80.3765029907227
40
0.0
41
0.0
42
0.0
10
75.1240997314453
20
80.1890029907227
40
0.0
41
0.0
42
0.0
10
74.9926986694336
20
80.1303024291992
40
0.0
41
0.0
42
0.0
10
74.9028015136719
20
80.027702331543
40
0.0
41
0.0
42
0.0
10
74.780403137207
20
79.871696472168
40
0.0
41
0.0
42
0.0
10
74.477897644043
20
79.5074005126953
40
0.0
41
0.0
42
0.0
10
74.3891983032227
20
79.3724975585938
40
0.0
41
0.0
42
0.0
10
74.092399597168
20
79.0081024169922
40
0.0
41
0.0
42
0.0
10
74.0326995849609
20
78.9029006958008
40
0.0
41
0.0
42
0.0
10
73.9912033081055
20
78.8466033935547
40
0.0
41
0.0
42
0.0
10
73.6530990600586
20
78.8566970825195
40
0.0
41
0.0
42
0.0
10
73.5133972167969
20
78.8768997192383
40
0.0
41
0.0
42
0.0
10
73.3758010864258
20
78.9483032226562
40
0.0
41
0.0
42
0.0
10
73.3294982910156
20
78.9688034057617
40
0.0
41
0.0
42
0.0
10
73.2647018432617
20
79.0008010864258
40
0.0
41
0.0
42
0.0
10
73.0119018554688
20
79.1071014404297
40
0.0
41
0.0
42
0.0
10
72.8775024414062
20
79.1620025634766
40
0.0
41
0.0
42
0.0
10
72.5152969360352
20
79.2879028320312
40
0.0
41
0.0
42
0.0
10
72.1521987915039
20
79.3274993896484
40
0.0
41
0.0
42
0.0
10
72.0184020996094
20
79.3478012084961
40
0.0
41
0.0
42
0.0
10
71.9857025146484
20
79.3478012084961
40
0.0
41
0.0
42
0.0
10
71.6251983642578
20
79.1349029541016
40
0.0
41
0.0
42
0.0
10
71.4954986572266
20
79.0661010742188
40
0.0
41
0.0
42
0.0
10
71.4672012329102
20
79.0126037597656
40
0.0
41
0.0
42
0.0
10
71.4382019042969
20
78.8809967041016
40
0.0
41
0.0
42
0.0
10
71.3779983520508
20
78.5182037353516
40
0.0
41
0.0
42
0.0
10
71.3778991699219
20
78.4810028076172
40
0.0
41
0.0
42
0.0
10
71.3908004760742
20
78.3467025756836
40
0.0
41
0.0
42
0.0
10
71.418098449707
20
77.9825973510742
40
0.0
41
0.0
42
0.0
10
71.4831008911133
20
77.6231994628906
40
0.0
41
0.0
42
0.0
10
71.5190963745117
20
77.4825973510742
40
0.0
41
0.0
42
0.0
10
71.5193023681641
20
77.0884017944336
40
0.0
41
0.0
42
0.0
10
71.5402984619141
20
77.004997253418
40
0.0
41
0.0
42
0.0
10
71.4970016479492
20
76.9365997314453
40
0.0
41
0.0
42
0.0
10
71.4776000976562
20
76.9133987426758
40
0.0
41
0.0
42
0.0
10
71.4013977050781
20
76.8671035766602
40
0.0
41
0.0
42
0.0
10
71.0504989624023
20
76.6455001831055
40
0.0
41
0.0
42
0.0
10
70.9876022338867
20
76.6253967285156
40
0.0
41
0.0
42
0.0
10
70.7205963134766
20
76.5005035400391
40
0.0
41
0.0
42
0.0
10
70.6781997680664
20
76.4842987060547
40
0.0
41
0.0
42
0.0
10
70.6229019165039
20
76.4606018066406
40
0.0
41
0.0
42
0.0
10
70.4890975952148
20
76.4093017578125
40
0.0
41
0.0
42
0.0
10
70.1252975463867
20
76.1939010620117
40
0.0
41
0.0
42
0.0
10
69.9913024902344
20
76.1206970214844
40
0.0
41
0.0
42
0.0
10
69.8339996337891
20
76.0052032470703
40
0.0
41
0.0
42
0.0
10
69.7468032836914
20
75.8755035400391
40
0.0
41
0.0
42
0.0
10
69.6232986450195
20
75.5164031982422
40
0.0
41
0.0
42
0.0
10
69.6231994628906
20
75.4843978881836
40
0.0
41
0.0
42
0.0
210
0.0
220
0.0
230
1.0
0
LWPOLYLINE
5
26
330
1C
100
AcDbEntity
67
0
8
0
62
256
6
ByLayer
370
-1
48
1.0
60
0
100
AcDbPolyline
90
191
70
1
38
0.0
39
0.0
10
69.8647003173828
20
75.9946975708008
40
0.0
41
0.0
42
0.0
10
70.0086975097656
20
76.1005020141602
40
0.0
41
0.0
42
0.0
10
70.1846008300781
20
76.1966018676758
40
0.0
41
0.0
42
0.0
10
70.5108032226562
20
76.3897018432617
40
0.0
41
0.0
42
0.0
10
70.6871032714844
20
76.4574966430664
40
0.0
41
0.0
42
0.0
10
70.7362976074219
20
76.4785003662109
40
0.0
41
0.0
42
0.0
10
70.7907028198242
20
76.4992980957031
40
0.0
41
0.0
42
0.0
10
71.0122985839844
20
76.602897644043
40
0.0
41
0.0
42
0.0
10
71.0907974243164
20
76.6279983520508
40
0.0
41
0.0
42
0.0
10
71.399299621582
20
76.8227996826172
40
0.0
41
0.0
42
0.0
10
71.4916000366211
20
76.8788986206055
40
0.0
41
0.0
42
0.0
10
71.5028991699219
20
76.8926010131836
40
0.0
41
0.0
42
0.0
10
71.5624008178711
20
76.9860992431641
40
0.0
41
0.0
42
0.0
10
71.5623016357422
20
77.0173034667969
40
0.0
41
0.0
42
0.0
10
71.52490234375
20
77.1663970947266
40
0.0
41
0.0
42
0.0
10
71.5246963500977
20
77.5173034667969
40
0.0
41
0.0
42
0.0
10
71.4804000854492
20
77.6904983520508
40
0.0
41
0.0
42
0.0
10
71.4212036132812
20
78.0173034667969
40
0.0
41
0.0
42
0.0
10
71.3967971801758
20
78.3431015014648
40
0.0
41
0.0
42
0.0
10
71.3821029663086
20
78.4953994750977
40
0.0
41
0.0
42
0.0
10
71.434196472168
20
78.8088989257812
40
0.0
41
0.0
42
0.0
10
71.4648971557617
20
78.9533004760742
40
0.0
41
0.0
42
0.0
10
71.4736022949219
20
78.9876022338867
40
0.0
41
0.0
42
0.0
10
71.5044021606445
20
79.0457000732422
40
0.0
41
0.0
42
0.0
10
71.684700012207
20
79.1412963867188
40
0.0
41
0.0
42
0.0
10
72.0075988769531
20
79.331901550293
40
0.0
41
0.0
42
0.0
10
72.157600402832
20
79.3093032836914
40
0.0
41
0.0
42
0.0
10
72.4845962524414
20
79.2735977172852
40
0.0
41
0.0
42
0.0
10
72.8124008178711
20
79.1596984863281
40
0.0
41
0.0
42
0.0
10
72.9356994628906
20
79.1081008911133
40
0.0
41
0.0
42
0.0
10
72.9878005981445
20
79.0879974365234
40
0.0
41
0.0
42
0.0
10
73.1994018554688
20
78.9990005493164
40
0.0
41
0.0
42
0.0
10
73.2535018920898
20
78.9721984863281
40
0.0
41
0.0
42
0.0
10
73.3140029907227
20
78.9455032348633
40
0.0
41
0.0
42
0.0
10
73.4865036010742
20
78.8560028076172
40
0.0
41
0.0
42
0.0
10
73.6567993164062
20
78.8311996459961
40
0.0
41
0.0
42
0.0
10
73.9803009033203
20
78.8218002319336
40
0.0
41
0.0
42
0.0
10
74.0093994140625
20
78.8217010498047
40
0.0
41
0.0
42
0.0
10
74.0335998535156
20
78.8544998168945
40
0.0
41
0.0
42
0.0
10
74.1115036010742
20
78.9917984008789
40
0.0
41
0.0
42
0.0
10
74.3766021728516
20
79.3173980712891
40
0.0
41
0.0
42
0.0
10
74.4916000366211
20
79.4925003051758
40
0.0
41
0.0
42
0.0
10
74.7615966796875
20
79.8180999755859
40
0.0
41
0.0
42
0.0
10
74.9207000732422
20
80.0208969116211
40
0.0
41
0.0
42
0.0
10
75.0072021484375
20
80.1194000244141
40
0.0
41
0.0
42
0.0
10
75.1857986450195
20
80.1993026733398
40
0.0
41
0.0
42
0.0
10
75.5024032592773
20
80.3637008666992
40
0.0
41
0.0
42
0.0
10
75.8143997192383
20
80.2564010620117
40
0.0
41
0.0
42
0.0
10
75.9946975708008
20
80.1351013183594
40
0.0
41
0.0
42
0.0
10
76.1005020141602
20
79.9912033081055
40
0.0
41
0.0
42
0.0
10
76.1965026855469
20
79.815299987793
40
0.0
41
0.0
42
0.0
10
76.3897018432617
20
79.4890975952148
40
0.0
41
0.0
42
0.0
10
76.4574966430664
20
79.3127975463867
40
0.0
41
0.0
42
0.0
10
76.4785003662109
20
79.2634963989258
40
0.0
41
0.0
42
0.0
10
76.4991989135742
20
79.209098815918
40
0.0
41
0.0
42
0.0
10
76.602897644043
20
78.9876022338867
40
0.0
41
0.0
42
0.0
10
76.6279983520508
20
78.9089965820312
40
0.0
41
0.0
42
0.0
10
76.8227996826172
20
78.6005020141602
40
0.0
41
0.0
42
0.0
10
76.8788986206055
20
78.5082015991211
40
0.0
41
0.0
42
0.0
10
76.8925018310547
20
78.4969024658203
40
0.0
41
0.0
42
0.0
10
76.9860992431641
20
78.4375
40
0.0
41
0.0
42
0.0
10
77.0174026489258
20
78.4374008178711
40
0.0
41
0.0
42
0.0
10
77.1664962768555
20
78.4748001098633
40
0.0
41
0.0
42
0.0
10
77.5173034667969
20
78.4749984741211
40
0.0
41
0.0
42
0.0
10
77.6904983520508
20
78.5193023681641
40
0.0
41
0.0
42
0.0
10
78.0170974731445
20
78.578498840332
40
0.0
41
0.0
42
0.0
10
78.1931991577148
20
78.5954971313477
40
0.0
41
0.0
42
0.0
10
78.4933013916016
20
78.6179962158203
40
0.0
41
0.0
42
0.0
10
78.8087997436523
20
78.5654983520508
40
0.0
41
0.0
42
0.0
10
78.9533004760742
20
78.534797668457
40
0.0
41
0.0
42
0.0
10
78.9875030517578
20
78.5261001586914
40
0.0
41
0.0
42
0.0
10
79.0456008911133
20
78.4954986572266
40
0.0
41
0.0
42
0.0
10
79.1400985717773
20
78.3172988891602
40
0.0
41
0.0
42
0.0
10
79.331901550293
20
77.992301940918
40
0.0
41
0.0
42
0.0
10
79.3093032836914
20
77.8423004150391
40
0.0
41
0.0
42
0.0
10
79.2735977172852
20
77.5152969360352
40
0.0
41
0.0
42
0.0
10
79.159797668457
20
77.1875
40
0.0
41
0.0
42
0.0
10
79.0878982543945
20
77.0119018554688
40
0.0
41
0.0
42
0.0
10
78.9990997314453
20
76.8003997802734
40
0.0
41
0.0
42
0.0
10
78.972297668457
20
76.7462005615234
40
0.0
41
0.0
42
0.0
10
78.9456024169922
20
76.6858978271484
40
0.0
41
0.0
42
0.0
10
78.8561019897461
20
76.5133972167969
40
0.0
41
0.0
42
0.0
10
78.8311996459961
20
76.3431015014648
40
0.0
41
0.0
42
0.0
10
78.8218002319336
20
76.0195999145508
40
0.0
41
0.0
42
0.0
10
78.8217010498047
20
75.9905014038086
40
0.0
41
0.0
42
0.0
10
78.8544998168945
20
75.9661026000977
40
0.0
41
0.0
42
0.0
10
78.9917984008789
20
75.888298034668
40
0.0
41
0.0
42
0.0
10
79.3172988891602
20
75.6231994628906
40
0.0
41
0.0
42
0.0
10
79.4924011230469
20
75.5081024169922
40
0.0
41
0.0
42
0.0
10
79.8180999755859
20
75.2381973266602
40
0.0
41
0.0
42
0.0
10
80.0207977294922
20
75.0790023803711
40
0.0
41
0.0
42
0.0
10
80.1194000244141
20
74.9926986694336
40
0.0
41
0.0
42
0.0
10
80.200798034668
20
74.8109970092773
40
0.0
41
0.0
42
0.0
10
80.3637008666992
20
74.4974975585938
40
0.0
41
0.0
42
0.0
10
80.2564010620117
20
74.1855010986328
40
0.0
41
0.0
42
0.0
10
80.1352005004883
20
74.0052032470703
40
0.0
41
0.0
42
0.0
10
79.9913024902344
20
73.899299621582
40
0.0
41
0.0
42
0.0
10
79.815299987793
20
73.8031997680664
40
0.0
41
0.0
42
0.0
10
79.4891967773438
20
73.6100006103516
40
0.0
41
0.0
42
0.0
10
79.3128967285156
20
73.5421981811523
40
0.0
41
0.0
42
0.0
10
79.2634963989258
20
73.5212020874023
40
0.0
41
0.0
42
0.0
10
79.2091979980469
20
73.5005035400391
40
0.0
41
0.0
42
0.0
10
78.9900970458984
20
73.3980026245117
40
0.0
41
0.0
42
0.0
10
78.7408981323242
20
73.2407989501953
40
0.0
41
0.0
42
0.0
10
78.6011962890625
20
73.1772003173828
40
0.0
41
0.0
42
0.0
10
78.573600769043
20
73.152099609375
40
0.0
41
0.0
42
0.0
10
78.495002746582
20
73.1043014526367
40
0.0
41
0.0
42
0.0
10
78.4375
20
73.013801574707
40
0.0
41
0.0
42
0.0
10
78.4374008178711
20
72.9824981689453
40
0.0
41
0.0
42
0.0
10
78.4748001098633
20
72.8332977294922
40
0.0
41
0.0
42
0.0
10
78.4749984741211
20
72.4825973510742
40
0.0
41
0.0
42
0.0
10
78.5193023681641
20
72.3094024658203
40
0.0
41
0.0
42
0.0
10
78.578498840332
20
71.9828033447266
40
0.0
41
0.0
42
0.0
10
78.5954971313477
20
71.8067016601562
40
0.0
41
0.0
42
0.0
10
78.6179962158203
20
71.5065994262695
40
0.0
41
0.0
42
0.0
10
78.5655975341797
20
71.1911010742188
40
0.0
41
0.0
42
0.0
10
78.5348968505859
20
71.046501159668
40
0.0
41
0.0
42
0.0
10
78.5261001586914
20
71.0123977661133
40
0.0
41
0.0
42
0.0
10
78.4954986572266
20
70.9541015625
40
0.0
41
0.0
42
0.0
10
78.3152008056641
20
70.8583984375
40
0.0
41
0.0
42
0.0
10
77.9907989501953
20
70.6669998168945
40
0.0
41
0.0
42
0.0
10
77.6921997070312
20
70.6996002197266
40
0.0
41
0.0
42
0.0
10
77.5149002075195
20
70.7263031005859
40
0.0
41
0.0
42
0.0
10
77.1875
20
70.8398971557617
40
0.0
41
0.0
42
0.0
10
77.0119018554688
20
70.9117965698242
40
0.0
41
0.0
42
0.0
10
76.8003997802734
20
71.0008010864258
40
0.0
41
0.0
42
0.0
10
76.7462005615234
20
71.0273971557617
40
0.0
41
0.0
42
0.0
10
76.6857986450195
20
71.0541000366211
40
0.0
41
0.0
42
0.0
10
76.5145034790039
20
71.1432037353516
40
0.0
41
0.0
42
0.0
10
76.1930999755859
20
71.1526031494141
40
0.0
41
0.0
42
0.0
10
76.0184020996094
20
71.1781005859375
40
0.0
41
0.0
42
0.0
10
75.9905014038086
20
71.1781005859375
40
0.0
41
0.0
42
0.0
10
75.9661026000977
20
71.1453018188477
40
0.0
41
0.0
42
0.0
10
75.888298034668
20
71.0081024169922
40
0.0
41
0.0
42
0.0
10
75.6231994628906
20
70.682502746582
40
0.0
41
0.0
42
0.0
10
75.5082015991211
20
70.5074005126953
40
0.0
41
0.0
42
0.0
10
75.2381973266602
20
70.1818008422852
40
0.0
41
0.0
42
0.0
10
75.0791015625
20
69.9789962768555
40
0.0
41
0.0
42
0.0
10
74.9932022094727
20
69.8807983398438
40
0.0
41
0.0
42
0.0
10
74.6641006469727
20
69.7098007202148
40
0.0
41
0.0
42
0.0
10
74.4983978271484
20
69.6356964111328
40
0.0
41
0.0
42
0.0
10
74.1855010986328
20
69.7433013916016
40
0.0
41
0.0
42
0.0
10
74.0050964355469
20
69.8646011352539
40
0.0
41
0.0
42
0.0
10
73.8992004394531
20
70.0085983276367
40
0.0
41
0.0
42
0.0
10
73.8031997680664
20
70.1846008300781
40
0.0
41
0.0
42
0.0
10
73.6100006103516
20
70.5106964111328
40
0.0
41
0.0
42
0.0
10
73.5421981811523
20
70.6869964599609
40
0.0
41
0.0
42
0.0
10
73.5212020874023
20
70.7362976074219
40
0.0
41
0.0
42
0.0
10
73.5005035400391
20
70.7906036376953
40
0.0
41
0.0
42
0.0
10
73.3979034423828
20
71.0098037719727
40
0.0
41
0.0
42
0.0
10
73.2418975830078
20
71.2572021484375
40
0.0
41
0.0
42
0.0
10
73.2118988037109
20
71.2990036010742
40
0.0
41
0.0
42
0.0
10
73.1504974365234
20
71.4288024902344
40
0.0
41
0.0
42
0.0
10
73.1042022705078
20
71.5047988891602
40
0.0
41
0.0
42
0.0
10
73.013801574707
20
71.5624008178711
40
0.0
41
0.0
42
0.0
10
72.9825973510742
20
71.5623016357422
40
0.0
41
0.0
42
0.0
10
72.8333969116211
20
71.52490234375
40
0.0
41
0.0
42
0.0
10
72.4825973510742
20
71.5246963500977
40
0.0
41
0.0
42
0.0
10
72.3094024658203
20
71.4804000854492
40
0.0
41
0.0
42
0.0
10
71.9825973510742
20
71.4212036132812
40
0.0
41
0.0
42
0.0
10
71.6567993164062
20
71.3967971801758
40
0.0
41
0.0
42
0.0
10
71.5045013427734
20
71.3821029663086
40
0.0
41
0.0
42
0.0
10
71.1910018920898
20
71.4340972900391
40
0.0
41
0.0
42
0.0
10
71.046501159668
20
71.4647979736328
40
0.0
41
0.0
42
0.0
10
71.0122985839844
20
71.4736022949219
40
0.0
41
0.0
42
0.0
10
70.9541015625
20
71.5044021606445
40
0.0
41
0.0
42
0.0
10
70.8583984375
20
71.684700012207
40
0.0
41
0.0
42
0.0
10
70.6669998168945
20
72.0091018676758
40
0.0
41
0.0
42
0.0
10
70.6996002197266
20
72.3077011108398
40
0.0
41
0.0
42
0.0
10
70.7263031005859
20
72.4850006103516
40
0.0
41
0.0
42
0.0
10
70.8399963378906
20
72.8125
40
0.0
41
0.0
42
0.0
10
70.8916015625
20
72.9356994628906
40
0.0
41
0.0
42
0.0
10
70.9117965698242
20
72.9878005981445
40
0.0
41
0.0
42
0.0
10
71.0008010864258
20
73.1994018554688
40
0.0
41
0.0
42
0.0
10
71.0274963378906
20
73.2536010742188
40
0.0
41
0.0
42
0.0
10
71.05419921875
20
73.3140029907227
40
0.0
41
0.0
42
0.0
10
71.1432037353516
20
73.4853973388672
40
0.0
41
0.0
42
0.0
10
71.1526031494141
20
73.8068008422852
40
0.0
41
0.0
42
0.0
10
71.1781005859375
20
73.9814987182617
40
0.0
41
0.0
42
0.0
10
71.1780014038086
20
74.0093994140625
40
0.0
41
0.0
42
0.0
10
71.1453018188477
20
74.0335998535156
40
0.0
41
0.0
42
0.0
10
71.0080032348633
20
74.1113967895508
40
0.0
41
0.0
42
0.0
10
70.682502746582
20
74.3765029907227
40
0.0
41
0.0
42
0.0
10
70.5074005126953
20
74.4916000366211
40
0.0
41
0.0
42
0.0
10
70.1817016601562
20
74.7614974975586
40
0.0
41
0.0
42
0.0
10
69.9788970947266
20
74.9206008911133
40
0.0
41
0.0
42
0.0
10
69.8807983398438
20
75.0066986083984
40
0.0
41
0.0
42
0.0
10
69.7098007202148
20
75.3358001708984
40
0.0
41
0.0
42
0.0
10
69.6358032226562
20
75.5015029907227
40
0.0
41
0.0
42
0.0
10
69.7433013916016
20
75.8143997192383
40
0.0
41
0.0
42
0.0
10
69.8647003173828
20
75.9946975708008
40
0.0
41
0.0
42
0.0
210
0.0
220
0.0
230
1.0
0
LWPOLYLINE
5
27
330
1C
100
AcDbEntity
67
0
8
0
62
256
6
ByLayer
370
-1
48
1.0
60
0
100
AcDbPolyline
90
79
70
1
38
0.0
39
0.0
10
70.8665008544922
20
65.4822998046875
40
0.0
41
0.0
42
0.0
10
70.9731979370117
20
65.0168991088867
40
0.0
41
0.0
42
0.0
10
70.9783020019531
20
65.0009994506836
40
0.0
41
0.0
42
0.0
10
71.051399230957
20
65.0009994506836
40
0.0
41
0.0
42
0.0
10
71.0513000488281
20
65.0180969238281
40
0.0
41
0.0
42
0.0
10
70.9992980957031
20
65.3067016601562
40
0.0
41
0.0
42
0.0
10
70.9561996459961
20
65.494499206543
40
0.0
41
0.0
42
0.0
10
70.9897994995117
20
65.5493011474609
40
0.0
41
0.0
42
0.0
10
71.0030975341797
20
65.5623016357422
40
0.0
41
0.0
42
0.0
10
71.2441024780273
20
65.9970016479492
40
0.0
41
0.0
42
0.0
10
71.5103988647461
20
66.0942001342773
40
0.0
41
0.0
42
0.0
10
71.6855010986328
20
66.2108993530273
40
0.0
41
0.0
42
0.0
10
72.0128021240234
20
66.3259963989258
40
0.0
41
0.0
42
0.0
10
72.2128982543945
20
66.4013977050781
40
0.0
41
0.0
42
0.0
10
72.353401184082
20
66.4981994628906
40
0.0
41
0.0
42
0.0
10
72.3900985717773
20
66.5152969360352
40
0.0
41
0.0
42
0.0
10
72.5121994018555
20
66.5531997680664
40
0.0
41
0.0
42
0.0
10
72.6536026000977
20
66.6223983764648
40
0.0
41
0.0
42
0.0
10
73.0140991210938
20
66.7390975952148
40
0.0
41
0.0
42
0.0
10
73.3781967163086
20
66.8314971923828
40
0.0
41
0.0
42
0.0
10
73.5142974853516
20
66.8900985717773
40
0.0
41
0.0
42
0.0
10
73.7671966552734
20
66.9241027832031
40
0.0
41
0.0
42
0.0
10
73.9925994873047
20
66.9365005493164
40
0.0
41
0.0
42
0.0
10
74.1474990844727
20
66.9160995483398
40
0.0
41
0.0
42
0.0
10
74.4875030517578
20
66.8311996459961
40
0.0
41
0.0
42
0.0
10
74.8425979614258
20
66.6453018188477
40
0.0
41
0.0
42
0.0
10
74.9906005859375
20
66.5730972290039
40
0.0
41
0.0
42
0.0
10
75.1265029907227
20
66.477897644043
40
0.0
41
0.0
42
0.0
10
75.4921035766602
20
66.2509994506836
40
0.0
41
0.0
42
0.0
10
75.6274032592773
20
66.140998840332
40
0.0
41
0.0
42
0.0
10
75.6710968017578
20
66.1121978759766
40
0.0
41
0.0
42
0.0
10
75.8662033081055
20
65.9973983764648
40
0.0
41
0.0
42
0.0
10
75.9916000366211
20
65.9058990478516
40
0.0
41
0.0
42
0.0
10
76.2998962402344
20
65.7170028686523
40
0.0
41
0.0
42
0.0
10
76.488899230957
20
65.5305023193359
40
0.0
41
0.0
42
0.0
10
76.570198059082
20
65.4952011108398
40
0.0
41
0.0
42
0.0
10
76.5771026611328
20
65.4712982177734
40
0.0
41
0.0
42
0.0
10
76.8244018554688
20
65.2109985351562
40
0.0
41
0.0
42
0.0
10
76.8529968261719
20
65.0526962280273
40
0.0
41
0.0
42
0.0
10
76.8840026855469
20
65.0009994506836
40
0.0
41
0.0
42
0.0
10
76.9294967651367
20
65.0009994506836
40
0.0
41
0.0
42
0.0
10
76.9293975830078
20
65.0140991210938
40
0.0
41
0.0
42
0.0
10
76.8864974975586
20
65.0858001708984
40
0.0
41
0.0
42
0.0
10
76.8653030395508
20
65.2035980224609
40
0.0
41
0.0
42
0.0
10
76.5893020629883
20
65.4944000244141
40
0.0
41
0.0
42
0.0
10
76.5863037109375
20
65.5046005249023
40
0.0
41
0.0
42
0.0
10
76.5055999755859
20
65.5391998291016
40
0.0
41
0.0
42
0.0
10
76.3252029418945
20
65.7173004150391
40
0.0
41
0.0
42
0.0
10
76.2736968994141
20
65.7636032104492
40
0.0
41
0.0
42
0.0
10
76.0082015991211
20
65.9263000488281
40
0.0
41
0.0
42
0.0
10
75.9039993286133
20
66.0022964477539
40
0.0
41
0.0
42
0.0
10
75.742301940918
20
66.097297668457
40
0.0
41
0.0
42
0.0
10
75.682502746582
20
66.1368026733398
40
0.0
41
0.0
42
0.0
10
75.507698059082
20
66.2790985107422
40
0.0
41
0.0
42
0.0
10
75.1828994750977
20
66.4804992675781
40
0.0
41
0.0
42
0.0
10
75.1631011962891
20
66.4959030151367
40
0.0
41
0.0
42
0.0
10
75.0093002319336
20
66.6026992797852
40
0.0
41
0.0
42
0.0
10
74.8126983642578
20
66.6986999511719
40
0.0
41
0.0
42
0.0
10
74.5123977661133
20
66.8560028076172
40
0.0
41
0.0
42
0.0
10
74.2279968261719
20
66.927001953125
40
0.0
41
0.0
42
0.0
10
74.0186004638672
20
66.9545974731445
40
0.0
41
0.0
42
0.0
10
73.9804992675781
20
66.9544982910156
40
0.0
41
0.0
42
0.0
10
73.8050003051758
20
66.9448013305664
40
0.0
41
0.0
42
0.0
10
73.4856033325195
20
66.9019012451172
40
0.0
41
0.0
42
0.0
10
73.3116989135742
20
66.8271026611328
40
0.0
41
0.0
42
0.0
10
72.9858016967773
20
66.7444000244141
40
0.0
41
0.0
42
0.0
10
72.6628036499023
20
66.6398010253906
40
0.0
41
0.0
42
0.0
10
72.4877014160156
20
66.5550994873047
40
0.0
41
0.0
42
0.0
10
72.35009765625
20
66.5123977661133
40
0.0
41
0.0
42
0.0
10
72.3270034790039
20
66.5017013549805
40
0.0
41
0.0
42
0.0
10
72.217399597168
20
66.4261016845703
40
0.0
41
0.0
42
0.0
10
71.9871978759766
20
66.3393020629883
40
0.0
41
0.0
42
0.0
10
71.624397277832
20
66.211799621582
40
0.0
41
0.0
42
0.0
10
71.489501953125
20
66.1218032836914
40
0.0
41
0.0
42
0.0
10
71.1636962890625
20
66.0029983520508
40
0.0
41
0.0
42
0.0
10
70.9968032836914
20
65.7020034790039
40
0.0
41
0.0
42
0.0
10
70.9585037231445
20
65.6644973754883
40
0.0
41
0.0
42
0.0
10
70.8666000366211
20
65.5139999389648
40
0.0
41
0.0
42
0.0
10
70.8665008544922
20
65.4822998046875
40
0.0
41
0.0
42
0.0
210
0.0
220
0.0
230
1.0
0
LWPOLYLINE
5
28
330
1C
100
AcDbEntity
67
0
8
0
62
256
6
ByLayer
370
-1
48
1.0
60
0
100
AcDbPolyline
90
84
70
1
38
0.0
39
0.0
10
73.408203125
20
84.4974975585938
40
0.0
41
0.0
42
0.0
10
73.489501953125
20
84.4634017944336
40
0.0
41
0.0
42
0.0
10
73.8049011230469
20
84.2699966430664
40
0.0
41
0.0
42
0.0
10
73.9692001342773
20
84.0885009765625
40
0.0
41
0.0
42
0.0
10
74.0955963134766
20
83.9974975585938
40
0.0
41
0.0
42
0.0
10
74.2574005126953
20
83.9022979736328
40
0.0
41
0.0
42
0.0
10
74.3172988891602
20
83.8628997802734
40
0.0
41
0.0
42
0.0
10
74.4921035766602
20
83.7205963134766
40
0.0
41
0.0
42
0.0
10
74.8169021606445
20
83.5190963745117
40
0.0
41
0.0
42
0.0
10
74.8360977172852
20
83.5043029785156
40
0.0
41
0.0
42
0.0
10
74.8475036621094
20
83.4974975585938
40
0.0
41
0.0
42
0.0
10
74.9908981323242
20
83.3966979980469
40
0.0
41
0.0
42
0.0
10
75.3144989013672
20
83.2269973754883
40
0.0
41
0.0
42
0.0
10
75.4461975097656
20
83.1617965698242
40
0.0
41
0.0
42
0.0
10
75.486701965332
20
83.1439971923828
40
0.0
41
0.0
42
0.0
10
75.7717971801758
20
83.0727005004883
40
0.0
41
0.0
42
0.0
10
75.9813003540039
20
83.0453033447266
40
0.0
41
0.0
42
0.0
10
76.019401550293
20
83.0451965332031
40
0.0
41
0.0
42
0.0
10
76.1948013305664
20
83.0549011230469
40
0.0
41
0.0
42
0.0
10
76.5142974853516
20
83.097900390625
40
0.0
41
0.0
42
0.0
10
76.6882019042969
20
83.1726989746094
40
0.0
41
0.0
42
0.0
10
77.0127029418945
20
83.254997253418
40
0.0
41
0.0
42
0.0
10
77.1806030273438
20
83.3373031616211
40
0.0
41
0.0
42
0.0
10
77.5128021240234
20
83.4448013305664
40
0.0
41
0.0
42
0.0
10
77.6495971679688
20
83.4873962402344
40
0.0
41
0.0
42
0.0
10
77.6726989746094
20
83.4982986450195
40
0.0
41
0.0
42
0.0
10
77.7825012207031
20
83.5736999511719
40
0.0
41
0.0
42
0.0
10
78.0128021240234
20
83.6604995727539
40
0.0
41
0.0
42
0.0
10
78.3755035400391
20
83.7880020141602
40
0.0
41
0.0
42
0.0
10
78.5103988647461
20
83.8778991699219
40
0.0
41
0.0
42
0.0
10
78.8360977172852
20
83.9970016479492
40
0.0
41
0.0
42
0.0
10
79.0030975341797
20
84.2977981567383
40
0.0
41
0.0
42
0.0
10
79.0412979125977
20
84.3352966308594
40
0.0
41
0.0
42
0.0
10
79.1333999633789
20
84.4859008789062
40
0.0
41
0.0
42
0.0
10
79.13330078125
20
84.5176010131836
40
0.0
41
0.0
42
0.0
10
79.026496887207
20
84.9829025268555
40
0.0
41
0.0
42
0.0
10
79.021598815918
20
84.9990005493164
40
0.0
41
0.0
42
0.0
10
78.9485015869141
20
84.9990005493164
40
0.0
41
0.0
42
0.0
10
78.9484024047852
20
84.9817962646484
40
0.0
41
0.0
42
0.0
10
79.0003967285156
20
84.693000793457
40
0.0
41
0.0
42
0.0
10
79.0435028076172
20
84.5054016113281
40
0.0
41
0.0
42
0.0
10
79.0100021362305
20
84.4505004882812
40
0.0
41
0.0
42
0.0
10
78.9968032836914
20
84.4375
40
0.0
41
0.0
42
0.0
10
78.7557983398438
20
84.0028991699219
40
0.0
41
0.0
42
0.0
10
78.489501953125
20
83.9056015014648
40
0.0
41
0.0
42
0.0
10
78.3143997192383
20
83.7889022827148
40
0.0
41
0.0
42
0.0
10
77.9871978759766
20
83.6737976074219
40
0.0
41
0.0
42
0.0
10
77.7869033813477
20
83.5983963012695
40
0.0
41
0.0
42
0.0
10
77.6464004516602
20
83.5016021728516
40
0.0
41
0.0
42
0.0
10
77.6098022460938
20
83.4844970703125
40
0.0
41
0.0
42
0.0
10
77.4768981933594
20
83.4430999755859
40
0.0
41
0.0
42
0.0
10
77.1337966918945
20
83.3313980102539
40
0.0
41
0.0
42
0.0
10
77.1187973022461
20
83.3255004882812
40
0.0
41
0.0
42
0.0
10
76.9871978759766
20
83.2610015869141
40
0.0
41
0.0
42
0.0
10
76.621696472168
20
83.1682968139648
40
0.0
41
0.0
42
0.0
10
76.4856033325195
20
83.1095962524414
40
0.0
41
0.0
42
0.0
10
76.2326965332031
20
83.0755996704102
40
0.0
41
0.0
42
0.0
10
76.0073013305664
20
83.0632019042969
40
0.0
41
0.0
42
0.0
10
75.8524017333984
20
83.0836029052734
40
0.0
41
0.0
42
0.0
10
75.5131988525391
20
83.1684036254883
40
0.0
41
0.0
42
0.0
10
75.4781036376953
20
83.1835021972656
40
0.0
41
0.0
42
0.0
10
75.3753967285156
20
83.2344970703125
40
0.0
41
0.0
42
0.0
10
75.0253982543945
20
83.4170989990234
40
0.0
41
0.0
42
0.0
10
75.0084991455078
20
83.4271011352539
40
0.0
41
0.0
42
0.0
10
74.8732986450195
20
83.5217971801758
40
0.0
41
0.0
42
0.0
10
74.507698059082
20
83.7487030029297
40
0.0
41
0.0
42
0.0
10
74.3724975585938
20
83.8587036132812
40
0.0
41
0.0
42
0.0
10
74.3285980224609
20
83.8874969482422
40
0.0
41
0.0
42
0.0
10
74.1334991455078
20
84.002197265625
40
0.0
41
0.0
42
0.0
10
73.986701965332
20
84.1084976196289
40
0.0
41
0.0
42
0.0
10
73.8532028198242
20
84.2559967041016
40
0.0
41
0.0
42
0.0
10
73.8105010986328
20
84.2863998413086
40
0.0
41
0.0
42
0.0
10
73.5102996826172
20
84.4703979492188
40
0.0
41
0.0
42
0.0
10
73.434700012207
20
84.502197265625
40
0.0
41
0.0
42
0.0
10
73.1998977661133
20
84.749397277832
40
0.0
41
0.0
42
0.0
10
73.1491012573242
20
84.8622970581055
40
0.0
41
0.0
42
0.0
10
73.128303527832
20
84.8981018066406
40
0.0
41
0.0
42
0.0
10
73.1101989746094
20
84.9990005493164
40
0.0
41
0.0
42
0.0
10
73.0703964233398
20
84.9990005493164
40
0.0
41
0.0
42
0.0
10
73.0702972412109
20
84.9817962646484
40
0.0
41
0.0
42
0.0
10
73.0826034545898
20
84.9135971069336
40
0.0
41
0.0
42
0.0
10
73.0939025878906
20
84.8940963745117
40
0.0
41
0.0
42
0.0
10
73.1501007080078
20
84.7693023681641
40
0.0
41
0.0
42
0.0
10
73.408203125
20
84.4974975585938
40
0.0
41
0.0
42
0.0
210
0.0
220
0.0
230
1.0
0
LWPOLYLINE
5
29
330
1C
100
AcDbEntity
67
0
8
0
62
256
6
ByLayer
370
-1
48
1.0
60
0
100
AcDbPolyline
90
13
70
1
38
0.0
39
0.0
10
73.9301986694336
20
75.4347991943359
40
0.0
41
0.0
42
0.0
10
73.9869003295898
20
75.3925018310547
40
0.0
41
0.0
42
0.0
10
74.0126037597656
20
75.3924026489258
40
0.0
41
0.0
42
0.0
10
74.0831985473633
20
75.448600769043
40
0.0
41
0.0
42
0.0
10
74.131103515625
20
75.4896011352539
40
0.0
41
0.0
42
0.0
10
74.1309967041016
20
75.5080032348633
40
0.0
41
0.0
42
0.0
10
74.0640029907227
20
75.5477981567383
40
0.0
41
0.0
42
0.0
10
74.0133972167969
20
75.5830001831055
40
0.0
41
0.0
42
0.0
10
73.9869995117188
20
75.5830001831055
40
0.0
41
0.0
42
0.0
10
73.9309997558594
20
75.5408020019531
40
0.0
41
0.0
42
0.0
10
73.8768997192383
20
75.5081024169922
40
0.0
41
0.0
42
0.0
10
73.8768005371094
20
75.4886016845703
40
0.0
41
0.0
42
0.0
10
73.9301986694336
20
75.4347991943359
40
0.0
41
0.0
42
0.0
210
0.0
220
0.0
230
1.0
0
LWPOLYLINE
5
2A
330
1C
100
AcDbEntity
67
0
8
0
62
256
6
ByLayer
370
-1
48
1.0
60
0
100
AcDbPolyline
90
8
70
1
38
0.0
39
0.0
10
73.8938980102539
20
75.4990997314453
40
0.0
41
0.0
42
0.0
10
73.9400024414062
20
75.5269012451172
40
0.0
41
0.0
42
0.0
10
74.0002975463867
20
75.5721969604492
40
0.0
41
0.0
42
0.0
10
74.0339965820312
20
75.5487976074219
40
0.0
41
0.0
42
0.0
10
74.1178970336914
20
75.4990005493164
40
0.0
41
0.0
42
0.0
10
73.9999008178711
20
75.4036026000977
40
0.0
41
0.0
42
0.0
10
73.9570999145508
20
75.4355010986328
40
0.0
41
0.0
42
0.0
10
73.8938980102539
20
75.4990997314453
40
0.0
41
0.0
42
0.0
210
0.0
220
0.0
230
1.0
0
LWPOLYLINE
5
2B
330
1C
100
AcDbEntity
67
0
8
0
62
256
6
ByLayer
370
-1
48
1.0
60
0
100
AcDbPolyline
90
13
70
1
38
0.0
39
0.0
10
74.4168014526367
20
73.9869003295898
40
0.0
41
0.0
42
0.0
10
74.4589004516602
20
73.9309997558594
40
0.0
41
0.0
42
0.0
10
74.4917984008789
20
73.8768997192383
40
0.0
41
0.0
42
0.0
10
74.5112991333008
20
73.8768997192383
40
0.0
41
0.0
42
0.0
10
74.5649032592773
20
73.9302978515625
40
0.0
41
0.0
42
0.0
10
74.6073989868164
20
73.9869003295898
40
0.0
41
0.0
42
0.0
10
74.6072998046875
20
74.0126037597656
40
0.0
41
0.0
42
0.0
10
74.5511016845703
20
74.0830993652344
40
0.0
41
0.0
42
0.0
10
74.5102996826172
20
74.131103515625
40
0.0
41
0.0
42
0.0
10
74.4918975830078
20
74.131103515625
40
0.0
41
0.0
42
0.0
10
74.4518966674805
20
74.0640029907227
40
0.0
41
0.0
42
0.0
10
74.4169006347656
20
74.0133972167969
40
0.0
41
0.0
42
0.0
10
74.4168014526367
20
73.9869003295898
40
0.0
41
0.0
42
0.0
210
0.0
220
0.0
230
1.0
0
LWPOLYLINE
5
2C
330
1C
100
AcDbEntity
67
0
8
0
62
256
6
ByLayer
370
-1
48
1.0
60
0
100
AcDbPolyline
90
8
70
1
38
0.0
39
0.0
10
74.4509963989258
20
74.0339965820312
40
0.0
41
0.0
42
0.0
10
74.5009994506836
20
74.1177978515625
40
0.0
41
0.0
42
0.0
10
74.5960998535156
20
73.9998016357422
40
0.0
41
0.0
42
0.0
10
74.5643005371094
20
73.9571990966797
40
0.0
41
0.0
42
0.0
10
74.5008010864258
20
73.893798828125
40
0.0
41
0.0
42
0.0
10
74.472900390625
20
73.9399032592773
40
0.0
41
0.0
42
0.0
10
74.4274978637695
20
74.0001983642578
40
0.0
41
0.0
42
0.0
10
74.4509963989258
20
74.0339965820312
40
0.0
41
0.0
42
0.0
210
0.0
220
0.0
230
1.0
0
LWPOLYLINE
5
2D
330
1C
100
AcDbEntity
67
0
8
0
62
256
6
ByLayer
370
-1
48
1.0
60
0
100
AcDbPolyline
90
9
70
1
38
0.0
39
0.0
10
74.7027969360352
20
74.9886016845703
40
0.0
41
0.0
42
0.0
10
74.9886016845703
20
74.7029037475586
40
0.0
41
0.0
42
0.0
10
75.0111999511719
20
74.7029037475586
40
0.0
41
0.0
42
0.0
10
75.2969970703125
20
74.9886016845703
40
0.0
41
0.0
42
0.0
10
75.2968978881836
20
75.0111999511719
40
0.0
41
0.0
42
0.0
10
75.0112991333008
20
75.2969970703125
40
0.0
41
0.0
42
0.0
10
74.9886016845703
20
75.2968978881836
40
0.0
41
0.0
42
0.0
10
74.7029037475586
20
75.0111999511719
40
0.0
41
0.0
42
0.0
10
74.7027969360352
20
74.9886016845703
40
0.0
41
0.0
42
0.0
210
0.0
220
0.0
230
1.0
0
LWPOLYLINE
5
2E
330
1C
100
AcDbEntity
67
0
8
0
62
256
6
ByLayer
370
-1
48
1.0
60
0
100
AcDbPolyline
90
5
70
1
38
0.0
39
0.0
10
75.0
20
75.2857971191406
40
0.0
41
0.0
42
0.0
10
75.2858963012695
20
75.0
40
0.0
41
0.0
42
0.0
10
75.0
20
74.7136993408203
40
0.0
41
0.0
42
0.0
10
74.7138977050781
20
75.0
40
0.0
41
0.0
42
0.0
10
75.0
20
75.2857971191406
40
0.0
41
0.0
42
0.0
210
0.0
220
0.0
230
1.0
0
LWPOLYLINE
5
2F
330
1C
100
AcDbEntity
67
0
8
0
62
256
6
ByLayer
370
-1
48
1.0
60
0
100
AcDbPolyline
90
13
70
1
38
0.0
39
0.0
10
75.448600769043
20
75.9166030883789
40
0.0
41
0.0
42
0.0
10
75.4896011352539
20
75.8687973022461
40
0.0
41
0.0
42
0.0
10
75.5080032348633
20
75.8687973022461
40
0.0
41
0.0
42
0.0
10
75.5478973388672
20
75.9357986450195
40
0.0
41
0.0
42
0.0
10
75.5830001831055
20
75.9865036010742
40
0.0
41
0.0
42
0.0
10
75.5829010009766
20
76.0129013061523
40
0.0
41
0.0
42
0.0
10
75.5408020019531
20
76.0687026977539
40
0.0
41
0.0
42
0.0
10
75.5081024169922
20
76.1230010986328
40
0.0
41
0.0
42
0.0
10
75.4886016845703
20
76.1229019165039
40
0.0
41
0.0
42
0.0
10
75.4347991943359
20
76.0695037841797
40
0.0
41
0.0
42
0.0
10
75.3925018310547
20
76.0130004882812
40
0.0
41
0.0
42
0.0
10
75.3924026489258
20
75.9872970581055
40
0.0
41
0.0
42
0.0
10
75.448600769043
20
75.9166030883789
40
0.0
41
0.0
42
0.0
210
0.0
220
0.0
230
1.0
0
LWPOLYLINE
5
30
330
1C
100
AcDbEntity
67
0
8
0
62
256
6
ByLayer
370
-1
48
1.0
60
0
100
AcDbPolyline
90
8
70
1
38
0.0
39
0.0
10
75.4356002807617
20
76.0427017211914
40
0.0
41
0.0
42
0.0
10
75.4990997314453
20
76.1057968139648
40
0.0
41
0.0
42
0.0
10
75.5268020629883
20
76.0597991943359
40
0.0
41
0.0
42
0.0
10
75.5721969604492
20
75.9997024536133
40
0.0
41
0.0
42
0.0
10
75.5487976074219
20
75.9657974243164
40
0.0
41
0.0
42
0.0
10
75.4990005493164
20
75.8818969726562
40
0.0
41
0.0
42
0.0
10
75.4036026000977
20
76.0000991821289
40
0.0
41
0.0
42
0.0
10
75.4356002807617
20
76.0427017211914
40
0.0
41
0.0
42
0.0
210
0.0
220
0.0
230
1.0
0
LWPOLYLINE
5
31
330
1C
100
AcDbEntity
67
0
8
0
62
256
6
ByLayer
370
-1
48
1.0
60
0
100
AcDbPolyline
90
13
70
1
38
0.0
39
0.0
10
75.9357986450195
20
74.4518966674805
40
0.0
41
0.0
42
0.0
10
75.9865036010742
20
74.4169006347656
40
0.0
41
0.0
42
0.0
10
76.0129013061523
20
74.4168014526367
40
0.0
41
0.0
42
0.0
10
76.0688018798828
20
74.4589004516602
40
0.0
41
0.0
42
0.0
10
76.1230010986328
20
74.4917984008789
40
0.0
41
0.0
42
0.0
10
76.1229019165039
20
74.5112991333008
40
0.0
41
0.0
42
0.0
10
76.0695037841797
20
74.5649032592773
40
0.0
41
0.0
42
0.0
10
76.0130004882812
20
74.6073989868164
40
0.0
41
0.0
42
0.0
10
75.9872970581055
20
74.6072998046875
40
0.0
41
0.0
42
0.0
10
75.9166030883789
20
74.5511016845703
40
0.0
41
0.0
42
0.0
10
75.8687973022461
20
74.5102996826172
40
0.0
41
0.0
42
0.0
10
75.8686981201172
20
74.4917984008789
40
0.0
41
0.0
42
0.0
10
75.9357986450195
20
74.4518966674805
40
0.0
41
0.0
42
0.0
210
0.0
220
0.0
230
1.0
0
LWPOLYLINE
5
32
330
1C
100
AcDbEntity
67
0
8
0
62
256
6
ByLayer
370
-1
48
1.0
60
0
100
AcDbPolyline
90
8
70
1
38
0.0
39
0.0
10
76.0000991821289
20
74.5960998535156
40
0.0
41
0.0
42
0.0
10
76.0426025390625
20
74.5642013549805
40
0.0
41
0.0
42
0.0
10
76.1059036254883
20
74.5008010864258
40
0.0
41
0.0
42
0.0
10
76.0597991943359
20
74.472900390625
40
0.0
41
0.0
42
0.0
10
75.9997024536133
20
74.4274978637695
40
0.0
41
0.0
42
0.0
10
75.9656982421875
20
74.4508972167969
40
0.0
41
0.0
42
0.0
10
75.8820037841797
20
74.5009994506836
40
0.0
41
0.0
42
0.0
10
76.0000991821289
20
74.5960998535156
40
0.0
41
0.0
42
0.0
210
0.0
220
0.0
230
1.0
0
LWPOLYLINE
5
33
330
1C
100
AcDbEntity
67
0
8
0
62
256
6
ByLayer
370
-1
48
1.0
60
0
100
AcDbPolyline
90
116
70
1
38
0.0
39
0.0
10
78.6287002563477
20
65.614501953125
40
0.0
41
0.0
42
0.0
10
78.7154998779297
20
65.4936981201172
40
0.0
41
0.0
42
0.0
10
78.9937973022461
20
65.222297668457
40
0.0
41
0.0
42
0.0
10
79.1169967651367
20
65.1248016357422
40
0.0
41
0.0
42
0.0
10
79.4352035522461
20
65.0009994506836
40
0.0
41
0.0
42
0.0
10
79.6378021240234
20
65.0009994506836
40
0.0
41
0.0
42
0.0
10
79.6377029418945
20
65.0050964355469
40
0.0
41
0.0
42
0.0
10
79.5126037597656
20
65.0501022338867
40
0.0
41
0.0
42
0.0
10
79.1855010986328
20
65.1775970458984
40
0.0
41
0.0
42
0.0
10
79.0059967041016
20
65.3196029663086
40
0.0
41
0.0
42
0.0
10
78.814697265625
20
65.5062026977539
40
0.0
41
0.0
42
0.0
10
78.6848983764648
20
65.686897277832
40
0.0
41
0.0
42
0.0
10
78.7499008178711
20
65.9869003295898
40
0.0
41
0.0
42
0.0
10
78.8902969360352
20
66.2741012573242
40
0.0
41
0.0
42
0.0
10
78.8883972167969
20
66.4860000610352
40
0.0
41
0.0
42
0.0
10
79.0010986328125
20
66.6947021484375
40
0.0
41
0.0
42
0.0
10
79.0422973632812
20
66.7853012084961
40
0.0
41
0.0
42
0.0
10
79.0587997436523
20
66.8126983642578
40
0.0
41
0.0
42
0.0
10
79.092903137207
20
66.9869003295898
40
0.0
41
0.0
42
0.0
10
79.2591018676758
20
67.3134002685547
40
0.0
41
0.0
42
0.0
10
79.2733001708984
20
67.3516998291016
40
0.0
41
0.0
42
0.0
10
79.3151016235352
20
67.4866027832031
40
0.0
41
0.0
42
0.0
10
79.3637008666992
20
67.6233978271484
40
0.0
41
0.0
42
0.0
10
79.5017013549805
20
67.8880004882812
40
0.0
41
0.0
42
0.0
10
79.5654983520508
20
67.9898986816406
40
0.0
41
0.0
42
0.0
10
79.5745010375977
20
68.0101013183594
40
0.0
41
0.0
42
0.0
10
79.6350021362305
20
68.1264038085938
40
0.0
41
0.0
42
0.0
10
79.9987030029297
20
68.5904006958008
40
0.0
41
0.0
42
0.0
10
80.0070037841797
20
68.598503112793
40
0.0
41
0.0
42
0.0
10
80.3747024536133
20
68.8197021484375
40
0.0
41
0.0
42
0.0
10
80.5118026733398
20
68.8912963867188
40
0.0
41
0.0
42
0.0
10
80.8447036743164
20
68.9998016357422
40
0.0
41
0.0
42
0.0
10
80.9166030883789
20
69.0245971679688
40
0.0
41
0.0
42
0.0
10
81.0147018432617
20
69.0481033325195
40
0.0
41
0.0
42
0.0
10
81.0803985595703
20
69.0664978027344
40
0.0
41
0.0
42
0.0
10
81.3808975219727
20
69.138298034668
40
0.0
41
0.0
42
0.0
10
81.5171966552734
20
69.1595001220703
40
0.0
41
0.0
42
0.0
10
81.651496887207
20
69.1735992431641
40
0.0
41
0.0
42
0.0
10
82.0175018310547
20
69.2574005126953
40
0.0
41
0.0
42
0.0
10
82.1523971557617
20
69.2583999633789
40
0.0
41
0.0
42
0.0
10
82.4977035522461
20
69.3397979736328
40
0.0
41
0.0
42
0.0
10
82.6204986572266
20
69.2996978759766
40
0.0
41
0.0
42
0.0
10
82.6573028564453
20
69.2914962768555
40
0.0
41
0.0
42
0.0
10
82.6927032470703
20
69.2913970947266
40
0.0
41
0.0
42
0.0
10
83.0170974731445
20
69.361701965332
40
0.0
41
0.0
42
0.0
10
83.3143997192383
20
69.3607025146484
40
0.0
41
0.0
42
0.0
10
83.3893966674805
20
69.2763977050781
40
0.0
41
0.0
42
0.0
10
83.497802734375
20
69.0916976928711
40
0.0
41
0.0
42
0.0
10
83.5649032592773
20
68.9878005981445
40
0.0
41
0.0
42
0.0
10
83.586799621582
20
68.8695983886719
40
0.0
41
0.0
42
0.0
10
83.7073974609375
20
68.4838027954102
40
0.0
41
0.0
42
0.0
10
83.7258987426758
20
68.2063980102539
40
0.0
41
0.0
42
0.0
10
83.75830078125
20
67.9821014404297
40
0.0
41
0.0
42
0.0
10
83.7697982788086
20
67.8059997558594
40
0.0
41
0.0
42
0.0
10
83.7800979614258
20
67.4810028076172
40
0.0
41
0.0
42
0.0
10
83.7919998168945
20
67.3062973022461
40
0.0
41
0.0
42
0.0
10
83.8106994628906
20
66.9838027954102
40
0.0
41
0.0
42
0.0
10
83.8666000366211
20
66.8102035522461
40
0.0
41
0.0
42
0.0
10
83.8968963623047
20
66.6523971557617
40
0.0
41
0.0
42
0.0
10
83.9686965942383
20
66.4941024780273
40
0.0
41
0.0
42
0.0
10
84.3123016357422
20
66.2658996582031
40
0.0
41
0.0
42
0.0
10
84.3460998535156
20
66.2620010375977
40
0.0
41
0.0
42
0.0
10
84.5174026489258
20
66.2621994018555
40
0.0
41
0.0
42
0.0
10
84.6520004272461
20
66.2948989868164
40
0.0
41
0.0
42
0.0
10
84.9990005493164
20
66.3106002807617
40
0.0
41
0.0
42
0.0
10
84.9990005493164
20
66.3221969604492
40
0.0
41
0.0
42
0.0
10
84.9804000854492
20
66.3220977783203
40
0.0
41
0.0
42
0.0
10
84.6578979492188
20
66.3074035644531
40
0.0
41
0.0
42
0.0
10
84.4824981689453
20
66.2649002075195
40
0.0
41
0.0
42
0.0
10
84.3714981079102
20
66.2646026611328
40
0.0
41
0.0
42
0.0
10
84.007698059082
20
66.5056991577148
40
0.0
41
0.0
42
0.0
10
83.9200973510742
20
66.6999969482422
40
0.0
41
0.0
42
0.0
10
83.8855972290039
20
66.8796997070312
40
0.0
41
0.0
42
0.0
10
83.841796875
20
67.015998840332
40
0.0
41
0.0
42
0.0
10
83.8113021850586
20
67.5189971923828
40
0.0
41
0.0
42
0.0
10
83.7997970581055
20
67.883903503418
40
0.0
41
0.0
42
0.0
10
83.7910003662109
20
68.0177993774414
40
0.0
41
0.0
42
0.0
10
83.765998840332
20
68.1906967163086
40
0.0
41
0.0
42
0.0
10
83.7442016601562
20
68.5160980224609
40
0.0
41
0.0
42
0.0
10
83.6519012451172
20
68.8115997314453
40
0.0
41
0.0
42
0.0
10
83.6147003173828
20
69.0120010375977
40
0.0
41
0.0
42
0.0
10
83.5019989013672
20
69.1865997314453
40
0.0
41
0.0
42
0.0
10
83.4198989868164
20
69.3265991210938
40
0.0
41
0.0
42
0.0
10
83.3755035400391
20
69.3766021728516
40
0.0
41
0.0
42
0.0
10
82.9822006225586
20
69.3776016235352
40
0.0
41
0.0
42
0.0
10
82.6449966430664
20
69.3046035766602
40
0.0
41
0.0
42
0.0
10
82.5166015625
20
69.3463973999023
40
0.0
41
0.0
42
0.0
10
82.4823989868164
20
69.3462982177734
40
0.0
41
0.0
42
0.0
10
82.1575012207031
20
69.2698974609375
40
0.0
41
0.0
42
0.0
10
81.9823989868164
20
69.2686996459961
40
0.0
41
0.0
42
0.0
10
81.6584014892578
20
69.1943969726562
40
0.0
41
0.0
42
0.0
10
81.4826965332031
20
69.1759033203125
40
0.0
41
0.0
42
0.0
10
81.3089981079102
20
69.1489028930664
40
0.0
41
0.0
42
0.0
10
81.043701171875
20
69.0854034423828
40
0.0
41
0.0
42
0.0
10
80.9851989746094
20
69.0690002441406
40
0.0
41
0.0
42
0.0
10
80.8442001342773
20
69.0353012084961
40
0.0
41
0.0
42
0.0
10
80.7417984008789
20
69.0
40
0.0
41
0.0
42
0.0
10
80.4881973266602
20
68.9172973632812
40
0.0
41
0.0
42
0.0
10
80.3152008056641
20
68.8268966674805
40
0.0
41
0.0
42
0.0
10
79.9927978515625
20
68.6330032348633
40
0.0
41
0.0
42
0.0
10
79.6400985717773
20
68.1835021972656
40
0.0
41
0.0
42
0.0
10
79.5642013549805
20
68.038200378418
40
0.0
41
0.0
42
0.0
10
79.5518035888672
20
68.0101013183594
40
0.0
41
0.0
42
0.0
10
79.4981994628906
20
67.9244003295898
40
0.0
41
0.0
42
0.0
10
79.3740005493164
20
67.6865997314453
40
0.0
41
0.0
42
0.0
10
79.3124008178711
20
67.513298034668
40
0.0
41
0.0
42
0.0
10
79.2661972045898
20
67.3640975952148
40
0.0
41
0.0
42
0.0
10
79.0876998901367
20
67.0130004882812
40
0.0
41
0.0
42
0.0
10
79.0610961914062
20
66.8772964477539
40
0.0
41
0.0
42
0.0
10
79.0460968017578
20
66.8523025512695
40
0.0
41
0.0
42
0.0
10
78.9987030029297
20
66.7484970092773
40
0.0
41
0.0
42
0.0
10
78.8723983764648
20
66.5148010253906
40
0.0
41
0.0
42
0.0
10
78.8739013671875
20
66.3517990112305
40
0.0
41
0.0
42
0.0
10
78.7083969116211
20
66.0130004882812
40
0.0
41
0.0
42
0.0
10
78.6287994384766
20
65.6455001831055
40
0.0
41
0.0
42
0.0
10
78.6287002563477
20
65.614501953125
40
0.0
41
0.0
42
0.0
210
0.0
220
0.0
230
1.0
0
LWPOLYLINE
5
34
330
1C
100
AcDbEntity
67
0
8
0
62
256
6
ByLayer
370
-1
48
1.0
60
0
100
AcDbPolyline
90
114
70
1
38
0.0
39
0.0
10
80.5781021118164
20
82.8461990356445
40
0.0
41
0.0
42
0.0
10
80.5826034545898
20
82.8084030151367
40
0.0
41
0.0
42
0.0
10
80.6532974243164
20
82.4822998046875
40
0.0
41
0.0
42
0.0
10
80.6546020507812
20
82.307502746582
40
0.0
41
0.0
42
0.0
10
80.7307968139648
20
81.9834976196289
40
0.0
41
0.0
42
0.0
10
80.7492980957031
20
81.8084030151367
40
0.0
41
0.0
42
0.0
10
80.823600769043
20
81.4839019775391
40
0.0
41
0.0
42
0.0
10
80.8507995605469
20
81.3089981079102
40
0.0
41
0.0
42
0.0
10
80.9142990112305
20
81.043701171875
40
0.0
41
0.0
42
0.0
10
80.9307022094727
20
80.9851989746094
40
0.0
41
0.0
42
0.0
10
80.9644012451172
20
80.8442001342773
40
0.0
41
0.0
42
0.0
10
80.9998016357422
20
80.7417984008789
40
0.0
41
0.0
42
0.0
10
81.0824966430664
20
80.4880981445312
40
0.0
41
0.0
42
0.0
10
81.1727981567383
20
80.3152008056641
40
0.0
41
0.0
42
0.0
10
81.3659973144531
20
79.9940032958984
40
0.0
41
0.0
42
0.0
10
81.8163986206055
20
79.6399993896484
40
0.0
41
0.0
42
0.0
10
81.9616012573242
20
79.5642013549805
40
0.0
41
0.0
42
0.0
10
81.9897994995117
20
79.5518035888672
40
0.0
41
0.0
42
0.0
10
82.0754013061523
20
79.4981994628906
40
0.0
41
0.0
42
0.0
10
82.3133010864258
20
79.3740005493164
40
0.0
41
0.0
42
0.0
10
82.4866027832031
20
79.3123016357422
40
0.0
41
0.0
42
0.0
10
82.6358032226562
20
79.2661972045898
40
0.0
41
0.0
42
0.0
10
82.9869003295898
20
79.0876998901367
40
0.0
41
0.0
42
0.0
10
83.1225967407227
20
79.0609970092773
40
0.0
41
0.0
42
0.0
10
83.1474990844727
20
79.0459976196289
40
0.0
41
0.0
42
0.0
10
83.2512969970703
20
78.9987030029297
40
0.0
41
0.0
42
0.0
10
83.4850997924805
20
78.8723983764648
40
0.0
41
0.0
42
0.0
10
83.6480026245117
20
78.8738021850586
40
0.0
41
0.0
42
0.0
10
83.9869003295898
20
78.7083969116211
40
0.0
41
0.0
42
0.0
10
84.3543014526367
20
78.6287994384766
40
0.0
41
0.0
42
0.0
10
84.3852996826172
20
78.6287002563477
40
0.0
41
0.0
42
0.0
10
84.5062026977539
20
78.7154998779297
40
0.0
41
0.0
42
0.0
10
84.7759017944336
20
78.992301940918
40
0.0
41
0.0
42
0.0
10
84.9990005493164
20
79.4362030029297
40
0.0
41
0.0
42
0.0
10
84.9990005493164
20
79.6378021240234
40
0.0
41
0.0
42
0.0
10
84.9946975708008
20
79.6378021240234
40
0.0
41
0.0
42
0.0
10
84.9488983154297
20
79.5108032226562
40
0.0
41
0.0
42
0.0
10
84.8687973022461
20
79.3802032470703
40
0.0
41
0.0
42
0.0
10
84.6817016601562
20
79.0075988769531
40
0.0
41
0.0
42
0.0
10
84.4936981201172
20
78.8147964477539
40
0.0
41
0.0
42
0.0
10
84.3128967285156
20
78.6848983764648
40
0.0
41
0.0
42
0.0
10
84.0130004882812
20
78.7499008178711
40
0.0
41
0.0
42
0.0
10
83.725700378418
20
78.8902969360352
40
0.0
41
0.0
42
0.0
10
83.5139007568359
20
78.8883972167969
40
0.0
41
0.0
42
0.0
10
83.3050994873047
20
79.0010986328125
40
0.0
41
0.0
42
0.0
10
83.2145004272461
20
79.0422973632812
40
0.0
41
0.0
42
0.0
10
83.1872024536133
20
79.0587997436523
40
0.0
41
0.0
42
0.0
10
83.0130004882812
20
79.092903137207
40
0.0
41
0.0
42
0.0
10
82.6865005493164
20
79.2590026855469
40
0.0
41
0.0
42
0.0
10
82.6482009887695
20
79.2733001708984
40
0.0
41
0.0
42
0.0
10
82.5149993896484
20
79.3144989013672
40
0.0
41
0.0
42
0.0
10
82.3765029907227
20
79.3636016845703
40
0.0
41
0.0
42
0.0
10
82.1118011474609
20
79.5017013549805
40
0.0
41
0.0
42
0.0
10
82.0100021362305
20
79.5653991699219
40
0.0
41
0.0
42
0.0
10
81.9897003173828
20
79.5745010375977
40
0.0
41
0.0
42
0.0
10
81.8734970092773
20
79.6349029541016
40
0.0
41
0.0
42
0.0
10
81.4094009399414
20
79.9985961914062
40
0.0
41
0.0
42
0.0
10
81.4011993408203
20
80.0070037841797
40
0.0
41
0.0
42
0.0
10
81.1800003051758
20
80.3746032714844
40
0.0
41
0.0
42
0.0
10
81.1083984375
20
80.5118026733398
40
0.0
41
0.0
42
0.0
10
81.0
20
80.844596862793
40
0.0
41
0.0
42
0.0
10
80.97509765625
20
80.9164962768555
40
0.0
41
0.0
42
0.0
10
80.9515991210938
20
81.0147018432617
40
0.0
41
0.0
42
0.0
10
80.9331970214844
20
81.0803985595703
40
0.0
41
0.0
42
0.0
10
80.8613967895508
20
81.3808975219727
40
0.0
41
0.0
42
0.0
10
80.8404006958008
20
81.515998840332
40
0.0
41
0.0
42
0.0
10
80.7566986083984
20
81.8815002441406
40
0.0
41
0.0
42
0.0
10
80.7424011230469
20
82.0164031982422
40
0.0
41
0.0
42
0.0
10
80.6563034057617
20
82.3824005126953
40
0.0
41
0.0
42
0.0
10
80.6552963256836
20
82.5176010131836
40
0.0
41
0.0
42
0.0
10
80.5876998901367
20
82.8292007446289
40
0.0
41
0.0
42
0.0
10
80.6379013061523
20
82.9832992553711
40
0.0
41
0.0
42
0.0
10
80.6389999389648
20
83.3143997192383
40
0.0
41
0.0
42
0.0
10
80.7232971191406
20
83.3893966674805
40
0.0
41
0.0
42
0.0
10
80.9080963134766
20
83.497802734375
40
0.0
41
0.0
42
0.0
10
81.0121002197266
20
83.5649032592773
40
0.0
41
0.0
42
0.0
10
81.1302032470703
20
83.586799621582
40
0.0
41
0.0
42
0.0
10
81.5160980224609
20
83.7073974609375
40
0.0
41
0.0
42
0.0
10
81.7935028076172
20
83.7258987426758
40
0.0
41
0.0
42
0.0
10
82.0177993774414
20
83.75830078125
40
0.0
41
0.0
42
0.0
10
82.1939010620117
20
83.7697982788086
40
0.0
41
0.0
42
0.0
10
82.5188980102539
20
83.7800979614258
40
0.0
41
0.0
42
0.0
10
82.693603515625
20
83.7919998168945
40
0.0
41
0.0
42
0.0
10
83.0160980224609
20
83.8106994628906
40
0.0
41
0.0
42
0.0
10
83.189697265625
20
83.8666000366211
40
0.0
41
0.0
42
0.0
10
83.347297668457
20
83.8968963623047
40
0.0
41
0.0
42
0.0
10
83.5057983398438
20
83.9688034057617
40
0.0
41
0.0
42
0.0
10
83.7338027954102
20
84.3124008178711
40
0.0
41
0.0
42
0.0
10
83.7377014160156
20
84.3460998535156
40
0.0
41
0.0
42
0.0
10
83.7376022338867
20
84.5195007324219
40
0.0
41
0.0
42
0.0
10
83.7210998535156
20
84.8820037841797
40
0.0
41
0.0
42
0.0
10
83.6927032470703
20
84.9990005493164
40
0.0
41
0.0
42
0.0
10
83.6776962280273
20
84.9990005493164
40
0.0
41
0.0
42
0.0
10
83.6775970458984
20
84.9824981689453
40
0.0
41
0.0
42
0.0
10
83.720100402832
20
84.8078994750977
40
0.0
41
0.0
42
0.0
10
83.7348022460938
20
84.4804000854492
40
0.0
41
0.0
42
0.0
10
83.7350997924805
20
84.3714981079102
40
0.0
41
0.0
42
0.0
10
83.4941024780273
20
84.0077972412109
40
0.0
41
0.0
42
0.0
10
83.2997970581055
20
83.9200973510742
40
0.0
41
0.0
42
0.0
10
83.1202011108398
20
83.8856964111328
40
0.0
41
0.0
42
0.0
10
82.9839019775391
20
83.841796875
40
0.0
41
0.0
42
0.0
10
82.4809036254883
20
83.8113021850586
40
0.0
41
0.0
42
0.0
10
82.1159973144531
20
83.7997970581055
40
0.0
41
0.0
42
0.0
10
81.9821014404297
20
83.7910003662109
40
0.0
41
0.0
42
0.0
10
81.8090972900391
20
83.765998840332
40
0.0
41
0.0
42
0.0
10
81.4838027954102
20
83.7442016601562
40
0.0
41
0.0
42
0.0
10
81.1882019042969
20
83.6519012451172
40
0.0
41
0.0
42
0.0
10
80.9878997802734
20
83.6147994995117
40
0.0
41
0.0
42
0.0
10
80.8132019042969
20
83.5019989013672
40
0.0
41
0.0
42
0.0
10
80.6731033325195
20
83.4198989868164
40
0.0
41
0.0
42
0.0
10
80.6231002807617
20
83.3755035400391
40
0.0
41
0.0
42
0.0
10
80.6221008300781
20
83.0166015625
40
0.0
41
0.0
42
0.0
10
80.5782012939453
20
82.8815994262695
40
0.0
41
0.0
42
0.0
10
80.5781021118164
20
82.8461990356445
40
0.0
41
0.0
42
0.0
210
0.0
220
0.0
230
1.0
0
LWPOLYLINE
5
35
330
1C
100
AcDbEntity
67
0
8
0
62
256
6
ByLayer
370
-1
48
1.0
60
0
100
AcDbPolyline
90
82
70
1
38
0.0
39
0.0
10
83.1725997924805
20
73.3116989135742
40
0.0
41
0.0
42
0.0
10
83.254997253418
20
72.9871978759766
40
0.0
41
0.0
42
0.0
10
83.3373031616211
20
72.8192977905273
40
0.0
41
0.0
42
0.0
10
83.4448013305664
20
72.4869995117188
40
0.0
41
0.0
42
0.0
10
83.4873962402344
20
72.3501968383789
40
0.0
41
0.0
42
0.0
10
83.4981994628906
20
72.3270034790039
40
0.0
41
0.0
42
0.0
10
83.5736999511719
20
72.2173004150391
40
0.0
41
0.0
42
0.0
10
83.6604995727539
20
71.9870986938477
40
0.0
41
0.0
42
0.0
10
83.7879028320312
20
71.624397277832
40
0.0
41
0.0
42
0.0
10
83.8778991699219
20
71.489501953125
40
0.0
41
0.0
42
0.0
10
83.9971008300781
20
71.1632995605469
40
0.0
41
0.0
42
0.0
10
84.0962982177734
20
71.1043014526367
40
0.0
41
0.0
42
0.0
10
84.2975997924805
20
70.9969024658203
40
0.0
41
0.0
42
0.0
10
84.3352966308594
20
70.9585037231445
40
0.0
41
0.0
42
0.0
10
84.4859008789062
20
70.8666000366211
40
0.0
41
0.0
42
0.0
10
84.5176010131836
20
70.8665008544922
40
0.0
41
0.0
42
0.0
10
84.9829025268555
20
70.9731979370117
40
0.0
41
0.0
42
0.0
10
84.9990005493164
20
70.9783020019531
40
0.0
41
0.0
42
0.0
10
84.9990005493164
20
71.051399230957
40
0.0
41
0.0
42
0.0
10
84.9817962646484
20
71.0513000488281
40
0.0
41
0.0
42
0.0
10
84.6930999755859
20
70.9992980957031
40
0.0
41
0.0
42
0.0
10
84.5054016113281
20
70.9561996459961
40
0.0
41
0.0
42
0.0
10
84.4504013061523
20
70.9897003173828
40
0.0
41
0.0
42
0.0
10
84.4375991821289
20
71.0028991699219
40
0.0
41
0.0
42
0.0
10
84.1593017578125
20
71.1512985229492
40
0.0
41
0.0
42
0.0
10
84.0027008056641
20
71.2443008422852
40
0.0
41
0.0
42
0.0
10
83.9055023193359
20
71.5103988647461
40
0.0
41
0.0
42
0.0
10
83.7888031005859
20
71.6855010986328
40
0.0
41
0.0
42
0.0
10
83.673698425293
20
72.0127029418945
40
0.0
41
0.0
42
0.0
10
83.5983963012695
20
72.2127990722656
40
0.0
41
0.0
42
0.0
10
83.5016021728516
20
72.3533020019531
40
0.0
41
0.0
42
0.0
10
83.4844970703125
20
72.3899993896484
40
0.0
41
0.0
42
0.0
10
83.4430999755859
20
72.5229034423828
40
0.0
41
0.0
42
0.0
10
83.3274002075195
20
72.8769989013672
40
0.0
41
0.0
42
0.0
10
83.2610015869141
20
73.0127029418945
40
0.0
41
0.0
42
0.0
10
83.1682968139648
20
73.3781967163086
40
0.0
41
0.0
42
0.0
10
83.1095962524414
20
73.5142974853516
40
0.0
41
0.0
42
0.0
10
83.0755996704102
20
73.7671966552734
40
0.0
41
0.0
42
0.0
10
83.0632019042969
20
73.9926986694336
40
0.0
41
0.0
42
0.0
10
83.0836029052734
20
74.1474990844727
40
0.0
41
0.0
42
0.0
10
83.1684036254883
20
74.4870986938477
40
0.0
41
0.0
42
0.0
10
83.2345962524414
20
74.624397277832
40
0.0
41
0.0
42
0.0
10
83.4268035888672
20
74.9908981323242
40
0.0
41
0.0
42
0.0
10
83.5217971801758
20
75.1265029907227
40
0.0
41
0.0
42
0.0
10
83.7487030029297
20
75.4922027587891
40
0.0
41
0.0
42
0.0
10
83.8588027954102
20
75.6274032592773
40
0.0
41
0.0
42
0.0
10
83.8876037597656
20
75.6712036132812
40
0.0
41
0.0
42
0.0
10
84.0024032592773
20
75.8663024902344
40
0.0
41
0.0
42
0.0
10
84.0939025878906
20
75.99169921875
40
0.0
41
0.0
42
0.0
10
84.2827987670898
20
76.3000030517578
40
0.0
41
0.0
42
0.0
10
84.4692001342773
20
76.488899230957
40
0.0
41
0.0
42
0.0
10
84.5046997070312
20
76.570198059082
40
0.0
41
0.0
42
0.0
10
84.5283966064453
20
76.5771026611328
40
0.0
41
0.0
42
0.0
10
84.7888031005859
20
76.8245010375977
40
0.0
41
0.0
42
0.0
10
84.9470977783203
20
76.8529968261719
40
0.0
41
0.0
42
0.0
10
84.9990005493164
20
76.8840026855469
40
0.0
41
0.0
42
0.0
10
84.9990005493164
20
76.9294967651367
40
0.0
41
0.0
42
0.0
10
84.9858016967773
20
76.9293975830078
40
0.0
41
0.0
42
0.0
10
84.9139022827148
20
76.8864974975586
40
0.0
41
0.0
42
0.0
10
84.7962036132812
20
76.8654022216797
40
0.0
41
0.0
42
0.0
10
84.5054016113281
20
76.5893020629883
40
0.0
41
0.0
42
0.0
10
84.4953002929688
20
76.5864028930664
40
0.0
41
0.0
42
0.0
10
84.4606018066406
20
76.5055999755859
40
0.0
41
0.0
42
0.0
10
84.2825012207031
20
76.3252029418945
40
0.0
41
0.0
42
0.0
10
84.236198425293
20
76.2736968994141
40
0.0
41
0.0
42
0.0
10
84.0735015869141
20
76.00830078125
40
0.0
41
0.0
42
0.0
10
83.9974975585938
20
75.9040985107422
40
0.0
41
0.0
42
0.0
10
83.9023971557617
20
75.742301940918
40
0.0
41
0.0
42
0.0
10
83.8629989624023
20
75.682502746582
40
0.0
41
0.0
42
0.0
10
83.720703125
20
75.507698059082
40
0.0
41
0.0
42
0.0
10
83.5192031860352
20
75.1828994750977
40
0.0
41
0.0
42
0.0
10
83.5044021606445
20
75.1636962890625
40
0.0
41
0.0
42
0.0
10
83.4975967407227
20
75.1522979736328
40
0.0
41
0.0
42
0.0
10
83.3967971801758
20
75.0090026855469
40
0.0
41
0.0
42
0.0
10
83.2270965576172
20
74.6855010986328
40
0.0
41
0.0
42
0.0
10
83.1438980102539
20
74.5128021240234
40
0.0
41
0.0
42
0.0
10
83.0727005004883
20
74.2279968261719
40
0.0
41
0.0
42
0.0
10
83.0453033447266
20
74.0186004638672
40
0.0
41
0.0
42
0.0
10
83.0451965332031
20
73.9804992675781
40
0.0
41
0.0
42
0.0
10
83.0549011230469
20
73.8050003051758
40
0.0
41
0.0
42
0.0
10
83.097900390625
20
73.4856033325195
40
0.0
41
0.0
42
0.0
10
83.1725997924805
20
73.3116989135742
40
0.0
41
0.0
42
0.0
210
0.0
220
0.0
230
1.0
0
VIEWPORT
5
3A
330
36
100
AcDbEntity
67
1
8
0
62
256
6
ByLayer
370
-1
48
1.0
60
0
100
AcDbViewport
10
0.0
20
0.0
30
0.0
40
297.0
41
210.0
68
1
69
1
12
50.0
22
100.0
13
0.0
23
0.0
14
10.0
24
10.0
15
10.0
25
10.0
16
0.0
26
0.0
36
1.0
17
0.0
27
0.0
37
0.0
42
50.0
43
0.0
44
0.0
45
250.0
50
0.0
51
0.0
72
1000
90
819232
110
0.0
120
0.0
130
0.0
111
1.0
121
0.0
131
0.0
112
0.0
122
1.0
132
0.0
0
ENDSEC
0
SECTION
2
OBJECTS
0
DICTIONARY
5
40
330
0
100
AcDbDictionary
280
1
281
1
3
ACAD_GROUP
350
12
3
ACAD_LAYOUT
350
39
3
ACAD_DGNDEFINITIONS
350
F
3
ACAD_DWFDEFINITIONS
350
10
3
ACAD_PDFDEFINITIONS
350
11
3
ACAD_MLINESTYLE
350
B
3
ACAD_IMAGE_DICT
350
E
3
ACAD_IMAGE_VARS
350
21
0
DICTIONARY
5
12
330
40
100
AcDbDictionary
280
1
281
1
0
DICTIONARY
5
39
330
40
100
AcDbDictionary
280
1
281
1
3
Model
350
20
3
Layout1
350
3B
0
DICTIONARY
5
F
330
40
100
AcDbDictionary
280
1
281
1
0
DICTIONARY
5
10
330
40
100
AcDbDictionary
280
1
281
1
0
DICTIONARY
5
11
330
40
100
AcDbDictionary
280
1
281
1
0
DICTIONARY
5
B
330
40
100
AcDbDictionary
280
1
281
1
3
Standard
350
1B
0
DICTIONARY
5
E
330
40
100
AcDbDictionary
280
1
281
1
0
DICTIONARY
5
6
330
5
100
AcDbDictionary
280
1
281
1
3
ACAD_LAYERSTATES
360
41
0
DICTIONARY
5
41
330
6
100
AcDbDictionary
280
1
281
1
0
LAYOUT
5
20
330
39
100
AcDbPlotSettings
1

2
none_device
4
ISO_A4_(210.00_x_297.00_MM)
6

40
7.5
41
20.0
42
7.5
43
20.0
44
210.0
45
297.0
46
0.0
47
0.0
48
0.0
49
0.0
140
0.0
141
0.0
142
1.0
143
1.0
70
11952
72
1
73
1
74
1
7

75
0
76
0
77
2
78
300
147
1.0
148
0.0
149
0.0
100
AcDbLayout
1
Model
71
0
10
-20.0
20
-7.5
11
277.0
21
202.5
12
0.0
22
0.0
32
0.0
14
25.7
24
19.5
34
0.0
15
231.3
25
175.5
35
0.0
146
0.0
13
0.0
23
0.0
33
0.0
16
1.0
26
0.0
36
0.0
17
0.0
27
1.0
37
0.0
76
0
330
1C
0
LAYOUT
5
3B
330
39
100
AcDbPlotSettings
1

2
none_device
4
ISO_A4_(210.00_x_297.00_MM)
6

40
7.5
41
20.0
42
7.5
43
20.0
44
210.0
45
297.0
46
0.0
47
0.0
48
0.0
49
0.0
140
0.0
141
0.0
142
1.0
143
1.0
70
688
72
1
73
1
74
1
7

75
0
76
0
77
2
78
300
147
1.0
148
0.0
149
0.0
100
AcDbLayout
1
Layout1
71
1
10
-20.0
20
-7.5
11
277.0
21
202.5
12
0.0
22
0.0
32
0.0
14
25.7
24
19.5
34
0.0
15
231.3
25
175.5
35
0.0
146
0.0
13
0.0
23
0.0
33
0.0
16
1.0
26
0.0
36
0.0
17
0.0
27
1.0
37
0.0
76
0
330
36
0
MLINESTYLE
5
1B
330
B
100
AcDbMlineStyle
2
Standard
70
0
3

62
256
51
90.0
52
90.0
71
2
49
0.5
62
256
6
ByLayer
49
-0.5
62
256
6
ByLayer
0
RASTERVARIABLES
5
21
330
E
100
AcDbRasterVariables
90
0
70
1
71
1
72
0
0
ENDSEC
0
EOF
