999
DXF file generated by netDxf https://github.com/haplokuon/netDxf, Copyright(C) Daniel Carvajal, Licensed under MIT
0
SECTION
2
HEADER
9
$ACADVER
1
AC1015
9
$DWGCODEPAGE
3
ANSI_1252
9
$HANDSEED
5
36
9
$ANGBASE
50
0.0
9
$ANGDIR
70
0
9
$ATTMODE
70
1
9
$AUNITS
70
0
9
$AUPREC
70
0
9
$CECOLOR
62
256
9
$CELTSCALE
40
1.0
9
$CELTYPE
6
ByLayer
9
$CELWEIGHT
370
-1
9
$CLAYER
8
0
9
$CMLJUST
70
0
9
$CMLSCALE
40
20.0
9
$CMLSTYLE
2
Standard
9
$DIMSTYLE
2
Standard
9
$TEXTSIZE
40
2.5
9
$TEXTSTYLE
7
Standard
9
$LUNITS
70
2
9
$LUPREC
70
4
9
$MIRRTEXT
70
0
9
$EXTNAMES
290
1
9
$INSBASE
10
0.0
20
0.0
30
0.0
9
$INSUNITS
70
0
9
$LTSCALE
40
1.0
9
$LWDISPLAY
290
0
9
$PDMODE
70
0
9
$PDSIZE
40
0.0
9
$PLINEGEN
70
0
9
$PSLTSCALE
70
1
9
$SPLINESEGS
70
8
9
$SURFU
70
6
9
$SURFV
70
6
9
$TDCREATE
40
2460823.48375001
9
$TDUCREATE
40
2460823.15041668
9
$TDUPDATE
40
2460823.48375001
9
$TDUUPDATE
40
2460823.15041668
9
$TDINDWG
40
0.0
9
$UCSORG
10
0.0
20
0.0
30
0.0
9
$UCSXDIR
10
1.0
20
0.0
30
0.0
9
$UCSYDIR
10
0.0
20
1.0
30
0.0
9
$DIMADEC
70
0
9
$DIMALT
70
0
9
$DIMALTD
70
2
9
$DIMALTF
40
25.4
9
$DIMALTRND
40
0.0
9
$DIMALTTD
70
2
9
$DIMALTTZ
70
0
9
$DIMALTU
70
2
9
$DIMALTZ
70
0
9
$DIMAPOST
1

9
$DIMATFIT
70
3
9
$DIMAUNIT
70
0
9
$DIMASZ
40
0.18
9
$DIMAZIN
70
0
9
$DIMSAH
70
0
9
$DIMBLK
1

9
$DIMLDRBLK
1

9
$DIMCEN
40
0.09
9
$DIMCLRD
70
0
9
$DIMCLRE
70
0
9
$DIMCLRT
70
0
9
$DIMDEC
70
4
9
$DIMDLE
40
0.0
9
$DIMDLI
40
0.38
9
$DIMDSEP
70
46
9
$DIMEXE
40
0.18
9
$DIMEXO
40
0.0625
9
$DIMFXLON
70
0
9
$DIMFXL
40
1.0
9
$DIMGAP
40
0.09
9
$DIMJUST
70
0
9
$DIMLFAC
40
1.0
9
$DIMLUNIT
70
2
9
$DIMLWD
70
-2
9
$DIMLWE
70
-2
9
$DIMPOST
1

9
$DIMRND
40
0.0
9
$DIMSCALE
40
1.0
9
$DIMSD1
70
0
9
$DIMSD2
70
0
9
$DIMSE1
70
0
9
$DIMSE2
70
0
9
$DIMSOXD
70
0
9
$DIMTAD
70
0
9
$DIMTDEC
70
4
9
$DIMTFAC
40
1.0
9
$DIMTIH
70
0
9
$DIMTIX
70
0
9
$DIMTM
40
0.0
9
$DIMTMOVE
70
0
9
$DIMTOFL
70
0
9
$DIMTOH
70
0
9
$DIMTOL
70
0
9
$DIMLIM
70
0
9
$DIMTOLJ
70
1
9
$DIMTP
40
0.0
9
$DIMTXT
40
0.18
9
$DIMTXTDIRECTION
70
0
9
$DIMTZIN
70
0
9
$DIMZIN
70
0
9
$DIMFRAC
70
0
9
$DIMLTYPE
6
ByBlock
9
$DIMLTEX1
6
ByBlock
9
$DIMLTEX2
6
ByBlock
0
ENDSEC
0
SECTION
2
CLASSES
0
CLASS
1
RASTERVARIABLES
2
AcDbRasterVariables
3
ISM
90
0
280
0
281
0
0
ENDSEC
0
SECTION
2
TABLES
0
TABLE
2
APPID
5
4
330
0
100
AcDbSymbolTable
70
5
0
APPID
5
19
330
4
100
AcDbSymbolTableRecord
100
AcDbRegAppTableRecord
2
ACAD
70
0
0
APPID
5
30
330
4
100
AcDbSymbolTableRecord
100
AcDbRegAppTableRecord
2
AcCmTransparency
70
0
0
APPID
5
31
330
4
100
AcDbSymbolTableRecord
100
AcDbRegAppTableRecord
2
AcAecLayerStandard
70
0
0
APPID
5
32
330
4
100
AcDbSymbolTableRecord
100
AcDbRegAppTableRecord
2
GradientColor1ACI
70
0
0
APPID
5
33
330
4
100
AcDbSymbolTableRecord
100
AcDbRegAppTableRecord
2
GradientColor2ACI
70
0
0
ENDTAB
0
TABLE
2
VPORT
5
1
330
0
100
AcDbSymbolTable
70
1
0
VPORT
5
2
330
1
100
AcDbSymbolTableRecord
100
AcDbViewportTableRecord
2
*Active
70
0
10
0.0
20
0.0
11
1.0
21
1.0
12
0.0
22
0.0
13
0.0
23
0.0
14
0.5
24
0.5
15
10.0
25
10.0
16
0.0
26
0.0
36
1.0
17
0.0
27
0.0
37
0.0
40
10.0
41
1.0
75
0
76
1
0
ENDTAB
0
TABLE
2
LTYPE
5
7
330
0
100
AcDbSymbolTable
70
3
0
LTYPE
5
15
330
7
100
AcDbSymbolTableRecord
100
AcDbLinetypeTableRecord
2
Continuous
70
0
3
Solid line
72
65
73
0
40
0.0
0
LTYPE
5
16
330
7
100
AcDbSymbolTableRecord
100
AcDbLinetypeTableRecord
2
ByLayer
70
0
3

72
65
73
0
40
0.0
0
LTYPE
5
17
330
7
100
AcDbSymbolTableRecord
100
AcDbLinetypeTableRecord
2
ByBlock
70
0
3

72
65
73
0
40
0.0
0
ENDTAB
0
TABLE
2
LAYER
5
5
102
{ACAD_XDICTIONARY
360
6
102
}
330
0
100
AcDbSymbolTable
70
1
0
LAYER
5
14
330
5
100
AcDbSymbolTableRecord
100
AcDbLayerTableRecord
2
0
70
0
62
7
6
Continuous
290
1
370
-3
390
0
0
ENDTAB
0
TABLE
2
STYLE
5
8
330
0
100
AcDbSymbolTable
70
1
0
STYLE
5
18
330
8
100
AcDbSymbolTableRecord
100
AcDbTextStyleTableRecord
2
Standard
3
simplex.shx
70
0
71
0
40
0.0
41
1.0
42
0.0
50
0.0
0
ENDTAB
0
TABLE
2
DIMSTYLE
5
A
330
0
100
AcDbSymbolTable
70
1
100
AcDbDimStyleTable
0
DIMSTYLE
105
1A
330
A
100
AcDbSymbolTableRecord
100
AcDbDimStyleTableRecord
2
Standard
3

4

40
1.0
41
0.18
42
0.0625
43
0.38
44
0.18
45
0.0
46
0.0
47
0.0
48
0.0
49
1.0
70
0
71
0
72
0
73
0
74
0
75
0
76
0
77
0
78
0
79
0
140
0.18
141
0.09
143
25.4
144
1.0
146
1.0
147
0.09
148
0.0
170
0
171
2
172
0
174
0
175
0
176
0
177
0
178
0
179
0
271
4
272
4
273
2
274
2
275
0
276
0
277
2
278
46
279
0
280
0
281
0
282
0
283
1
284
0
285
0
286
0
289
3
290
0
294
0
340
18
173
0
345
17
346
17
347
17
371
-2
372
-2
0
ENDTAB
0
TABLE
2
VIEW
5
3
330
0
100
AcDbSymbolTable
70
0
0
ENDTAB
0
TABLE
2
UCS
5
C
330
0
100
AcDbSymbolTable
70
0
0
ENDTAB
0
TABLE
2
BLOCK_RECORD
5
D
330
0
100
AcDbSymbolTable
70
2
0
BLOCK_RECORD
5
1C
330
D
100
AcDbSymbolTableRecord
100
AcDbBlockTableRecord
2
*Model_Space
340
20
0
BLOCK_RECORD
5
2A
330
D
100
AcDbSymbolTableRecord
100
AcDbBlockTableRecord
2
*Paper_Space
340
2F
0
ENDTAB
0
ENDSEC
0
SECTION
2
BLOCKS
0
BLOCK
5
1E
330
1C
100
AcDbEntity
67
0
8
0
100
AcDbBlockBegin
2
*Model_Space
70
0
10
0.0
20
0.0
30
0.0
3
*Model_Space
4

0
ENDBLK
5
1D
330
1C
100
AcDbEntity
8
0
100
AcDbBlockEnd
0
BLOCK
5
2C
330
2A
100
AcDbEntity
67
1
8
0
100
AcDbBlockBegin
2
*Paper_Space
70
0
10
0.0
20
0.0
30
0.0
3
*Paper_Space
4

0
ENDBLK
5
2B
330
2A
100
AcDbEntity
8
0
100
AcDbBlockEnd
0
ENDSEC
0
SECTION
2
ENTITIES
0
LWPOLYLINE
5
22
330
1C
100
AcDbEntity
67
0
8
0
62
256
6
ByLayer
370
-1
48
1.0
60
0
100
AcDbPolyline
90
31
70
1
38
0.0
39
0.0
10
65.0864028930664
20
67.4358978271484
40
0.0
41
0.0
42
0.0
10
65.4890975952148
20
67.2148971557617
40
0.0
41
0.0
42
0.0
10
65.9919967651367
20
66.9093017578125
40
0.0
41
0.0
42
0.0
10
66.3574981689453
20
66.6147994995117
40
0.0
41
0.0
42
0.0
10
66.4329986572266
20
66.5616989135742
40
0.0
41
0.0
42
0.0
10
66.4943008422852
20
66.50830078125
40
0.0
41
0.0
42
0.0
10
66.6430969238281
20
66.3589019775391
40
0.0
41
0.0
42
0.0
10
66.9968032836914
20
65.9199981689453
40
0.0
41
0.0
42
0.0
10
67.0460968017578
20
65.8480987548828
40
0.0
41
0.0
42
0.0
10
67.2630004882812
20
65.4908981323242
40
0.0
41
0.0
42
0.0
10
67.3479995727539
20
65.355598449707
40
0.0
41
0.0
42
0.0
10
67.4983978271484
20
65.0831985473633
40
0.0
41
0.0
42
0.0
10
67.5410003662109
20
65.0009994506836
40
0.0
41
0.0
42
0.0
10
67.5532989501953
20
65.0009994506836
40
0.0
41
0.0
42
0.0
10
67.5531997680664
20
65.0148010253906
40
0.0
41
0.0
42
0.0
10
67.5014038085938
20
65.1149978637695
40
0.0
41
0.0
42
0.0
10
67.3360977172852
20
65.4142990112305
40
0.0
41
0.0
42
0.0
10
67.2767028808594
20
65.508903503418
40
0.0
41
0.0
42
0.0
10
67.0363006591797
20
65.9044036865234
40
0.0
41
0.0
42
0.0
10
67.0029983520508
20
65.9531021118164
40
0.0
41
0.0
42
0.0
10
66.6345977783203
20
66.4108963012695
40
0.0
41
0.0
42
0.0
10
66.5055999755859
20
66.5402984619141
40
0.0
41
0.0
42
0.0
10
66.4646987915039
20
66.5756988525391
40
0.0
41
0.0
42
0.0
10
66.4123001098633
20
66.6128005981445
40
0.0
41
0.0
42
0.0
10
66.0077972412109
20
66.9384994506836
40
0.0
41
0.0
42
0.0
10
65.5093994140625
20
67.24169921875
40
0.0
41
0.0
42
0.0
10
65.1174011230469
20
67.4571990966797
40
0.0
41
0.0
42
0.0
10
65.0149002075195
20
67.5091018676758
40
0.0
41
0.0
42
0.0
10
65.0009994506836
20
67.5091018676758
40
0.0
41
0.0
42
0.0
10
65.0009002685547
20
67.4787979125977
40
0.0
41
0.0
42
0.0
10
65.0864028930664
20
67.4358978271484
40
0.0
41
0.0
42
0.0
210
0.0
220
0.0
230
1.0
0
LWPOLYLINE
5
23
330
1C
100
AcDbEntity
67
0
8
0
62
256
6
ByLayer
370
-1
48
1.0
60
0
100
AcDbPolyline
90
29
70
1
38
0.0
39
0.0
10
65.0009994506836
20
82.4465026855469
40
0.0
41
0.0
42
0.0
10
65.0148010253906
20
82.4465026855469
40
0.0
41
0.0
42
0.0
10
65.1174011230469
20
82.4996032714844
40
0.0
41
0.0
42
0.0
10
65.4142990112305
20
82.6635971069336
40
0.0
41
0.0
42
0.0
10
65.508903503418
20
82.7229995727539
40
0.0
41
0.0
42
0.0
10
65.9044036865234
20
82.9634017944336
40
0.0
41
0.0
42
0.0
10
65.9531021118164
20
82.9968032836914
40
0.0
41
0.0
42
0.0
10
66.4108963012695
20
83.3650970458984
40
0.0
41
0.0
42
0.0
10
66.5402984619141
20
83.4943008422852
40
0.0
41
0.0
42
0.0
10
66.575798034668
20
83.5351028442383
40
0.0
41
0.0
42
0.0
10
66.6128997802734
20
83.5876007080078
40
0.0
41
0.0
42
0.0
10
66.9385986328125
20
83.9921035766602
40
0.0
41
0.0
42
0.0
10
67.24169921875
20
84.4904022216797
40
0.0
41
0.0
42
0.0
10
67.5091018676758
20
84.9852981567383
40
0.0
41
0.0
42
0.0
10
67.5091018676758
20
84.9990005493164
40
0.0
41
0.0
42
0.0
10
67.4783020019531
20
84.9990005493164
40
0.0
41
0.0
42
0.0
10
67.2142028808594
20
84.5094985961914
40
0.0
41
0.0
42
0.0
10
66.9094009399414
20
84.0078964233398
40
0.0
41
0.0
42
0.0
10
66.6148986816406
20
83.6423034667969
40
0.0
41
0.0
42
0.0
10
66.5617980957031
20
83.5667037963867
40
0.0
41
0.0
42
0.0
10
66.5083999633789
20
83.5055999755859
40
0.0
41
0.0
42
0.0
10
66.359001159668
20
83.3565979003906
40
0.0
41
0.0
42
0.0
10
65.9199981689453
20
83.0030975341797
40
0.0
41
0.0
42
0.0
10
65.8481979370117
20
82.9536972045898
40
0.0
41
0.0
42
0.0
10
65.4909973144531
20
82.736701965332
40
0.0
41
0.0
42
0.0
10
65.355598449707
20
82.6518020629883
40
0.0
41
0.0
42
0.0
10
65.0866012573242
20
82.5030975341797
40
0.0
41
0.0
42
0.0
10
65.0009994506836
20
82.4588012695312
40
0.0
41
0.0
42
0.0
10
65.0009994506836
20
82.4465026855469
40
0.0
41
0.0
42
0.0
210
0.0
220
0.0
230
1.0
0
LWPOLYLINE
5
24
330
1C
100
AcDbEntity
67
0
8
0
62
256
6
ByLayer
370
-1
48
1.0
60
0
100
AcDbPolyline
90
361
70
1
38
0.0
39
0.0
10
66.0005035400391
20
74.6481018066406
40
0.0
41
0.0
42
0.0
10
66.0318984985352
20
74.4879989624023
40
0.0
41
0.0
42
0.0
10
66.10009765625
20
74.3845977783203
40
0.0
41
0.0
42
0.0
10
66.3338012695312
20
73.9925994873047
40
0.0
41
0.0
42
0.0
10
66.3597030639648
20
73.9645004272461
40
0.0
41
0.0
42
0.0
10
66.488899230957
20
73.8470993041992
40
0.0
41
0.0
42
0.0
10
66.8529968261719
20
73.5238037109375
40
0.0
41
0.0
42
0.0
10
66.9906997680664
20
73.4475021362305
40
0.0
41
0.0
42
0.0
10
67.3539962768555
20
73.2132034301758
40
0.0
41
0.0
42
0.0
10
67.4843978881836
20
73.1709976196289
40
0.0
41
0.0
42
0.0
10
67.6115036010742
20
73.1567993164062
40
0.0
41
0.0
42
0.0
10
67.9440002441406
20
72.9981994628906
40
0.0
41
0.0
42
0.0
10
67.9829025268555
20
72.9728012084961
40
0.0
41
0.0
42
0.0
10
67.9865036010742
20
72.972297668457
40
0.0
41
0.0
42
0.0
10
68.3901977539062
20
72.7565994262695
40
0.0
41
0.0
42
0.0
10
68.4237976074219
20
72.7565002441406
40
0.0
41
0.0
42
0.0
10
68.4909973144531
20
72.763801574707
40
0.0
41
0.0
42
0.0
10
68.9522018432617
20
72.5335006713867
40
0.0
41
0.0
42
0.0
10
68.9835968017578
20
72.5335998535156
40
0.0
41
0.0
42
0.0
10
69.0616989135742
20
72.5604019165039
40
0.0
41
0.0
42
0.0
10
69.0964965820312
20
72.5005035400391
40
0.0
41
0.0
42
0.0
10
68.9990005493164
20
72.3526992797852
40
0.0
41
0.0
42
0.0
10
68.9442977905273
20
72.1893997192383
40
0.0
41
0.0
42
0.0
10
68.9359970092773
20
72.0122985839844
40
0.0
41
0.0
42
0.0
10
68.8516998291016
20
71.9037017822266
40
0.0
41
0.0
42
0.0
10
68.7021026611328
20
71.5098037719727
40
0.0
41
0.0
42
0.0
10
68.6917037963867
20
71.4956970214844
40
0.0
41
0.0
42
0.0
10
68.6184005737305
20
71.4140014648438
40
0.0
41
0.0
42
0.0
10
68.5192031860352
20
71.1457977294922
40
0.0
41
0.0
42
0.0
10
68.4997024536133
20
71.1022033691406
40
0.0
41
0.0
42
0.0
10
68.4730987548828
20
71.0128021240234
40
0.0
41
0.0
42
0.0
10
68.4592971801758
20
70.980598449707
40
0.0
41
0.0
42
0.0
10
68.4272003173828
20
70.9176025390625
40
0.0
41
0.0
42
0.0
10
68.3289031982422
20
70.5141983032227
40
0.0
41
0.0
42
0.0
10
68.2854995727539
20
70.3804016113281
40
0.0
41
0.0
42
0.0
10
68.2426986694336
20
70.0173034667969
40
0.0
41
0.0
42
0.0
10
68.2240982055664
20
69.8834991455078
40
0.0
41
0.0
42
0.0
10
68.2239990234375
20
69.8453979492188
40
0.0
41
0.0
42
0.0
10
68.2399978637695
20
69.4811019897461
40
0.0
41
0.0
42
0.0
10
68.2484970092773
20
69.3486022949219
40
0.0
41
0.0
42
0.0
10
68.353401184082
20
68.9863967895508
40
0.0
41
0.0
42
0.0
10
68.4008026123047
20
68.8538970947266
40
0.0
41
0.0
42
0.0
10
68.4450988769531
20
68.7794036865234
40
0.0
41
0.0
42
0.0
10
68.4959030151367
20
68.7091979980469
40
0.0
41
0.0
42
0.0
10
68.7100982666016
20
68.4951019287109
40
0.0
41
0.0
42
0.0
10
68.780403137207
20
68.4300003051758
40
0.0
41
0.0
42
0.0
10
68.8560028076172
20
68.3852005004883
40
0.0
41
0.0
42
0.0
10
68.959602355957
20
68.3177032470703
40
0.0
41
0.0
42
0.0
10
68.9869003295898
20
68.3062973022461
40
0.0
41
0.0
42
0.0
10
69.3350982666016
20
68.2054977416992
40
0.0
41
0.0
42
0.0
10
69.4820022583008
20
68.1829986572266
40
0.0
41
0.0
42
0.0
10
69.7917022705078
20
68.1695022583008
40
0.0
41
0.0
42
0.0
10
69.8308029174805
20
68.1694030761719
40
0.0
41
0.0
42
0.0
10
70.0169982910156
20
68.177001953125
40
0.0
41
0.0
42
0.0
10
70.1511993408203
20
68.2093963623047
40
0.0
41
0.0
42
0.0
10
70.5139999389648
20
68.2522964477539
40
0.0
41
0.0
42
0.0
10
70.6477966308594
20
68.3164978027344
40
0.0
41
0.0
42
0.0
10
71.0145034790039
20
68.4056015014648
40
0.0
41
0.0
42
0.0
10
71.1313018798828
20
68.4402008056641
40
0.0
41
0.0
42
0.0
10
71.2136993408203
20
68.4963989257812
40
0.0
41
0.0
42
0.0
10
71.2578964233398
20
68.5378036499023
40
0.0
41
0.0
42
0.0
10
71.5112991333008
20
68.6315994262695
40
0.0
41
0.0
42
0.0
10
71.9128036499023
20
68.7841033935547
40
0.0
41
0.0
42
0.0
10
72.0086975097656
20
68.8899993896484
40
0.0
41
0.0
42
0.0
10
72.4365005493164
20
68.9988021850586
40
0.0
41
0.0
42
0.0
10
72.5103988647461
20
69.0811004638672
40
0.0
41
0.0
42
0.0
10
72.5803985595703
20
69.0829010009766
40
0.0
41
0.0
42
0.0
10
72.5689010620117
20
69.0180969238281
40
0.0
41
0.0
42
0.0
10
72.5689010620117
20
68.9806976318359
40
0.0
41
0.0
42
0.0
10
72.5740966796875
20
68.9126968383789
40
0.0
41
0.0
42
0.0
10
72.8246002197266
20
68.4897003173828
40
0.0
41
0.0
42
0.0
10
72.999397277832
20
68.1109008789062
40
0.0
41
0.0
42
0.0
10
73.0253982543945
20
68.0357971191406
40
0.0
41
0.0
42
0.0
10
73.0248031616211
20
67.9853973388672
40
0.0
41
0.0
42
0.0
10
73.0463027954102
20
67.9478988647461
40
0.0
41
0.0
42
0.0
10
73.2211990356445
20
67.5811004638672
40
0.0
41
0.0
42
0.0
10
73.2347030639648
20
67.4873962402344
40
0.0
41
0.0
42
0.0
10
73.4620971679688
20
67.1323013305664
40
0.0
41
0.0
42
0.0
10
73.4988021850586
20
67.0282974243164
40
0.0
41
0.0
42
0.0
10
73.5246963500977
20
66.9912033081055
40
0.0
41
0.0
42
0.0
10
73.6026000976562
20
66.8572998046875
40
0.0
41
0.0
42
0.0
10
73.939697265625
20
66.4797973632812
40
0.0
41
0.0
42
0.0
10
73.9943008422852
20
66.4111022949219
40
0.0
41
0.0
42
0.0
10
74.3578033447266
20
66.1712036132812
40
0.0
41
0.0
42
0.0
10
74.4292984008789
20
66.1069030761719
40
0.0
41
0.0
42
0.0
10
74.4884033203125
20
66.0663986206055
40
0.0
41
0.0
42
0.0
10
74.7055969238281
20
66.0196990966797
40
0.0
41
0.0
42
0.0
10
74.7795028686523
20
66.0000991821289
40
0.0
41
0.0
42
0.0
10
74.9831008911133
20
65.9382019042969
40
0.0
41
0.0
42
0.0
10
75.0190963745117
20
65.938102722168
40
0.0
41
0.0
42
0.0
10
75.1018981933594
20
65.9445037841797
40
0.0
41
0.0
42
0.0
10
75.3516998291016
20
66.0005035400391
40
0.0
41
0.0
42
0.0
10
75.5118026733398
20
66.0319976806641
40
0.0
41
0.0
42
0.0
10
75.6151962280273
20
66.10009765625
40
0.0
41
0.0
42
0.0
10
76.0073013305664
20
66.3338012695312
40
0.0
41
0.0
42
0.0
10
76.0352020263672
20
66.3598022460938
40
0.0
41
0.0
42
0.0
10
76.1526031494141
20
66.488899230957
40
0.0
41
0.0
42
0.0
10
76.4758987426758
20
66.8531036376953
40
0.0
41
0.0
42
0.0
10
76.5522003173828
20
66.9906997680664
40
0.0
41
0.0
42
0.0
10
76.7864990234375
20
67.3539962768555
40
0.0
41
0.0
42
0.0
10
76.8286972045898
20
67.4843978881836
40
0.0
41
0.0
42
0.0
10
76.8430023193359
20
67.6115036010742
40
0.0
41
0.0
42
0.0
10
77.0016021728516
20
67.9440002441406
40
0.0
41
0.0
42
0.0
10
77.0269012451172
20
67.9830017089844
40
0.0
41
0.0
42
0.0
10
77.0273971557617
20
67.9865036010742
40
0.0
41
0.0
42
0.0
10
77.2433013916016
20
68.3901977539062
40
0.0
41
0.0
42
0.0
10
77.2433013916016
20
68.4237976074219
40
0.0
41
0.0
42
0.0
10
77.2359008789062
20
68.4909973144531
40
0.0
41
0.0
42
0.0
10
77.4662017822266
20
68.9522018432617
40
0.0
41
0.0
42
0.0
10
77.4660034179688
20
68.9832992553711
40
0.0
41
0.0
42
0.0
10
77.4604034423828
20
68.9990005493164
40
0.0
41
0.0
42
0.0
10
77.4981994628906
20
69.0864028930664
40
0.0
41
0.0
42
0.0
10
77.5028991699219
20
69.0867004394531
40
0.0
41
0.0
42
0.0
10
77.5324020385742
20
69.0356979370117
40
0.0
41
0.0
42
0.0
10
77.8105010986328
20
68.9442977905273
40
0.0
41
0.0
42
0.0
10
77.9875030517578
20
68.9358978271484
40
0.0
41
0.0
42
0.0
10
78.0960998535156
20
68.8516006469727
40
0.0
41
0.0
42
0.0
10
78.4890975952148
20
68.7024002075195
40
0.0
41
0.0
42
0.0
10
78.7175979614258
20
68.5661010742188
40
0.0
41
0.0
42
0.0
10
78.8968963623047
20
68.4998016357422
40
0.0
41
0.0
42
0.0
10
78.9870986938477
20
68.4729995727539
40
0.0
41
0.0
42
0.0
10
79.0192031860352
20
68.4591979980469
40
0.0
41
0.0
42
0.0
10
79.0822982788086
20
68.4272003173828
40
0.0
41
0.0
42
0.0
10
79.4857025146484
20
68.3289031982422
40
0.0
41
0.0
42
0.0
10
79.6194000244141
20
68.2854995727539
40
0.0
41
0.0
42
0.0
10
79.9825973510742
20
68.2426986694336
40
0.0
41
0.0
42
0.0
10
80.1164016723633
20
68.2240982055664
40
0.0
41
0.0
42
0.0
10
80.1545028686523
20
68.2239990234375
40
0.0
41
0.0
42
0.0
10
80.518798828125
20
68.2399978637695
40
0.0
41
0.0
42
0.0
10
80.6512985229492
20
68.2484970092773
40
0.0
41
0.0
42
0.0
10
81.0134963989258
20
68.353401184082
40
0.0
41
0.0
42
0.0
10
81.1460037231445
20
68.4008026123047
40
0.0
41
0.0
42
0.0
10
81.2203979492188
20
68.4450988769531
40
0.0
41
0.0
42
0.0
10
81.2906036376953
20
68.4960021972656
40
0.0
41
0.0
42
0.0
10
81.5047988891602
20
68.7100982666016
40
0.0
41
0.0
42
0.0
10
81.5698013305664
20
68.7805023193359
40
0.0
41
0.0
42
0.0
10
81.6146011352539
20
68.8561019897461
40
0.0
41
0.0
42
0.0
10
81.681999206543
20
68.959602355957
40
0.0
41
0.0
42
0.0
10
81.6933975219727
20
68.9869003295898
40
0.0
41
0.0
42
0.0
10
81.7941970825195
20
69.3350982666016
40
0.0
41
0.0
42
0.0
10
81.8168029785156
20
69.4820022583008
40
0.0
41
0.0
42
0.0
10
81.8303985595703
20
69.7917022705078
40
0.0
41
0.0
42
0.0
10
81.8302993774414
20
69.8308029174805
40
0.0
41
0.0
42
0.0
10
81.8227996826172
20
70.0169982910156
40
0.0
41
0.0
42
0.0
10
81.7902984619141
20
70.1511993408203
40
0.0
41
0.0
42
0.0
10
81.7471008300781
20
70.5161972045898
40
0.0
41
0.0
42
0.0
10
81.6594009399414
20
70.877799987793
40
0.0
41
0.0
42
0.0
10
81.5947036743164
20
71.0122985839844
40
0.0
41
0.0
42
0.0
10
81.5595016479492
20
71.1313018798828
40
0.0
41
0.0
42
0.0
10
81.5035018920898
20
71.2136993408203
40
0.0
41
0.0
42
0.0
10
81.4618988037109
20
71.2578964233398
40
0.0
41
0.0
42
0.0
10
81.3681030273438
20
71.5112991333008
40
0.0
41
0.0
42
0.0
10
81.2156982421875
20
71.9128036499023
40
0.0
41
0.0
42
0.0
10
81.1097030639648
20
72.0085983276367
40
0.0
41
0.0
42
0.0
10
81.0010986328125
20
72.4364013671875
40
0.0
41
0.0
42
0.0
10
80.9304962158203
20
72.4998016357422
40
0.0
41
0.0
42
0.0
10
81.0115966796875
20
72.5682983398438
40
0.0
41
0.0
42
0.0
10
81.0870971679688
20
72.5740966796875
40
0.0
41
0.0
42
0.0
10
81.5102005004883
20
72.8246002197266
40
0.0
41
0.0
42
0.0
10
81.8889007568359
20
72.999397277832
40
0.0
41
0.0
42
0.0
10
81.963996887207
20
73.0253982543945
40
0.0
41
0.0
42
0.0
10
82.0145034790039
20
73.0248031616211
40
0.0
41
0.0
42
0.0
10
82.0519027709961
20
73.0463027954102
40
0.0
41
0.0
42
0.0
10
82.4188003540039
20
73.2211990356445
40
0.0
41
0.0
42
0.0
10
82.5124969482422
20
73.2348022460938
40
0.0
41
0.0
42
0.0
10
82.8675003051758
20
73.4620971679688
40
0.0
41
0.0
42
0.0
10
82.9714965820312
20
73.4988021850586
40
0.0
41
0.0
42
0.0
10
83.0085983276367
20
73.5246963500977
40
0.0
41
0.0
42
0.0
10
83.1426010131836
20
73.6026992797852
40
0.0
41
0.0
42
0.0
10
83.5055999755859
20
73.9255981445312
40
0.0
41
0.0
42
0.0
10
83.5195007324219
20
73.9393997192383
40
0.0
41
0.0
42
0.0
10
83.5886993408203
20
73.9943008422852
40
0.0
41
0.0
42
0.0
10
83.8286972045898
20
74.3578033447266
40
0.0
41
0.0
42
0.0
10
83.8928985595703
20
74.4293975830078
40
0.0
41
0.0
42
0.0
10
83.9332962036133
20
74.4884033203125
40
0.0
41
0.0
42
0.0
10
83.9801025390625
20
74.7057037353516
40
0.0
41
0.0
42
0.0
10
83.9997024536133
20
74.7795028686523
40
0.0
41
0.0
42
0.0
10
84.0616989135742
20
74.9831008911133
40
0.0
41
0.0
42
0.0
10
84.0615997314453
20
75.0190963745117
40
0.0
41
0.0
42
0.0
10
84.0551986694336
20
75.1018981933594
40
0.0
41
0.0
42
0.0
10
83.9992980957031
20
75.3516998291016
40
0.0
41
0.0
42
0.0
10
83.967903137207
20
75.5118026733398
40
0.0
41
0.0
42
0.0
10
83.8995971679688
20
75.6150970458984
40
0.0
41
0.0
42
0.0
10
83.6662979125977
20
76.0065994262695
40
0.0
41
0.0
42
0.0
10
83.5057983398438
20
76.1566009521484
40
0.0
41
0.0
42
0.0
10
83.1466979980469
20
76.4758987426758
40
0.0
41
0.0
42
0.0
10
83.0091018676758
20
76.5522003173828
40
0.0
41
0.0
42
0.0
10
82.6458969116211
20
76.7864990234375
40
0.0
41
0.0
42
0.0
10
82.5155029296875
20
76.8286972045898
40
0.0
41
0.0
42
0.0
10
82.388298034668
20
76.842903137207
40
0.0
41
0.0
42
0.0
10
82.0559005737305
20
77.0015029907227
40
0.0
41
0.0
42
0.0
10
82.0167999267578
20
77.0269012451172
40
0.0
41
0.0
42
0.0
10
82.013298034668
20
77.0272979736328
40
0.0
41
0.0
42
0.0
10
81.6097030639648
20
77.2433013916016
40
0.0
41
0.0
42
0.0
10
81.5761032104492
20
77.2433013916016
40
0.0
41
0.0
42
0.0
10
81.508903503418
20
77.2359008789062
40
0.0
41
0.0
42
0.0
10
81.0475997924805
20
77.4662017822266
40
0.0
41
0.0
42
0.0
10
81.0161972045898
20
77.4661026000977
40
0.0
41
0.0
42
0.0
10
80.9380035400391
20
77.4392013549805
40
0.0
41
0.0
42
0.0
10
80.9031982421875
20
77.499397277832
40
0.0
41
0.0
42
0.0
10
81.0008010864258
20
77.647102355957
40
0.0
41
0.0
42
0.0
10
81.0553970336914
20
77.8105010986328
40
0.0
41
0.0
42
0.0
10
81.0637969970703
20
77.9876022338867
40
0.0
41
0.0
42
0.0
10
81.1481018066406
20
78.0961990356445
40
0.0
41
0.0
42
0.0
10
81.2981033325195
20
78.4908981323242
40
0.0
41
0.0
42
0.0
10
81.3814010620117
20
78.5860977172852
40
0.0
41
0.0
42
0.0
10
81.4330978393555
20
78.7161026000977
40
0.0
41
0.0
42
0.0
10
81.5
20
78.8968963623047
40
0.0
41
0.0
42
0.0
10
81.5267028808594
20
78.9870986938477
40
0.0
41
0.0
42
0.0
10
81.5404968261719
20
79.0192031860352
40
0.0
41
0.0
42
0.0
10
81.5726013183594
20
79.0822982788086
40
0.0
41
0.0
42
0.0
10
81.6703033447266
20
79.4837036132812
40
0.0
41
0.0
42
0.0
10
81.7135009765625
20
79.8495025634766
40
0.0
41
0.0
42
0.0
10
81.7568969726562
20
79.9832000732422
40
0.0
41
0.0
42
0.0
10
81.7567977905273
20
80.0195007324219
40
0.0
41
0.0
42
0.0
10
81.7422027587891
20
80.3554992675781
40
0.0
41
0.0
42
0.0
10
81.7598037719727
20
80.4813995361328
40
0.0
41
0.0
42
0.0
10
81.7596969604492
20
80.5169982910156
40
0.0
41
0.0
42
0.0
10
81.654296875
20
80.8813018798828
40
0.0
41
0.0
42
0.0
10
81.6455993652344
20
81.0156021118164
40
0.0
41
0.0
42
0.0
10
81.5988998413086
20
81.1458969116211
40
0.0
41
0.0
42
0.0
10
81.5546035766602
20
81.2202987670898
40
0.0
41
0.0
42
0.0
10
81.5038986206055
20
81.2904968261719
40
0.0
41
0.0
42
0.0
10
81.2911987304688
20
81.5031967163086
40
0.0
41
0.0
42
0.0
10
81.2350997924805
20
81.5364990234375
40
0.0
41
0.0
42
0.0
10
81.0106964111328
20
81.6940002441406
40
0.0
41
0.0
42
0.0
10
80.6648025512695
20
81.7941970825195
40
0.0
41
0.0
42
0.0
10
80.5178985595703
20
81.8168029785156
40
0.0
41
0.0
42
0.0
10
80.2080993652344
20
81.8303985595703
40
0.0
41
0.0
42
0.0
10
80.1689987182617
20
81.8302993774414
40
0.0
41
0.0
42
0.0
10
79.9829025268555
20
81.8227996826172
40
0.0
41
0.0
42
0.0
10
79.8487014770508
20
81.7902984619141
40
0.0
41
0.0
42
0.0
10
79.4837036132812
20
81.747200012207
40
0.0
41
0.0
42
0.0
10
79.1221008300781
20
81.6594009399414
40
0.0
41
0.0
42
0.0
10
78.9875030517578
20
81.5948028564453
40
0.0
41
0.0
42
0.0
10
78.8684997558594
20
81.5595016479492
40
0.0
41
0.0
42
0.0
10
78.7861022949219
20
81.5036010742188
40
0.0
41
0.0
42
0.0
10
78.7418975830078
20
81.4619979858398
40
0.0
41
0.0
42
0.0
10
78.4886016845703
20
81.3681030273438
40
0.0
41
0.0
42
0.0
10
78.0870971679688
20
81.2157974243164
40
0.0
41
0.0
42
0.0
10
77.9913024902344
20
81.1097030639648
40
0.0
41
0.0
42
0.0
10
77.5633010864258
20
81.0011978149414
40
0.0
41
0.0
42
0.0
10
77.4896011352539
20
80.9186019897461
40
0.0
41
0.0
42
0.0
10
77.4192962646484
20
80.9168014526367
40
0.0
41
0.0
42
0.0
10
77.4308013916016
20
80.9817962646484
40
0.0
41
0.0
42
0.0
10
77.4308013916016
20
81.0192031860352
40
0.0
41
0.0
42
0.0
10
77.4255981445312
20
81.0869979858398
40
0.0
41
0.0
42
0.0
10
77.1751022338867
20
81.5102005004883
40
0.0
41
0.0
42
0.0
10
77.0003967285156
20
81.888801574707
40
0.0
41
0.0
42
0.0
10
76.9742965698242
20
81.9638977050781
40
0.0
41
0.0
42
0.0
10
76.9748992919922
20
82.0143966674805
40
0.0
41
0.0
42
0.0
10
76.9533996582031
20
82.0518035888672
40
0.0
41
0.0
42
0.0
10
76.7785034179688
20
82.4188003540039
40
0.0
41
0.0
42
0.0
10
76.7649993896484
20
82.5123977661133
40
0.0
41
0.0
42
0.0
10
76.53759765625
20
82.8674011230469
40
0.0
41
0.0
42
0.0
10
76.5009994506836
20
82.9711990356445
40
0.0
41
0.0
42
0.0
10
76.4761962890625
20
83.0068969726562
40
0.0
41
0.0
42
0.0
10
76.1511001586914
20
83.3724975585938
40
0.0
41
0.0
42
0.0
10
76.0727005004883
20
83.5070037841797
40
0.0
41
0.0
42
0.0
10
76.0604019165039
20
83.519401550293
40
0.0
41
0.0
42
0.0
10
76.005500793457
20
83.5886001586914
40
0.0
41
0.0
42
0.0
10
75.6419982910156
20
83.8285980224609
40
0.0
41
0.0
42
0.0
10
75.5703964233398
20
83.8927993774414
40
0.0
41
0.0
42
0.0
10
75.5113983154297
20
83.9332962036133
40
0.0
41
0.0
42
0.0
10
75.2940979003906
20
83.9801025390625
40
0.0
41
0.0
42
0.0
10
75.2202987670898
20
83.9997024536133
40
0.0
41
0.0
42
0.0
10
75.0167999267578
20
84.0616989135742
40
0.0
41
0.0
42
0.0
10
74.9807968139648
20
84.0615997314453
40
0.0
41
0.0
42
0.0
10
74.8979034423828
20
84.0551986694336
40
0.0
41
0.0
42
0.0
10
74.6481018066406
20
83.9992980957031
40
0.0
41
0.0
42
0.0
10
74.4880981445312
20
83.967903137207
40
0.0
41
0.0
42
0.0
10
74.3845977783203
20
83.8995971679688
40
0.0
41
0.0
42
0.0
10
73.9925994873047
20
83.665901184082
40
0.0
41
0.0
42
0.0
10
73.964599609375
20
83.6401977539062
40
0.0
41
0.0
42
0.0
10
73.8432998657227
20
83.5059967041016
40
0.0
41
0.0
42
0.0
10
73.5238037109375
20
83.1467971801758
40
0.0
41
0.0
42
0.0
10
73.4475021362305
20
83.0092010498047
40
0.0
41
0.0
42
0.0
10
73.2132034301758
20
82.6458969116211
40
0.0
41
0.0
42
0.0
10
73.1709976196289
20
82.5155029296875
40
0.0
41
0.0
42
0.0
10
73.1567993164062
20
82.388298034668
40
0.0
41
0.0
42
0.0
10
72.9981994628906
20
82.0559005737305
40
0.0
41
0.0
42
0.0
10
72.9728012084961
20
82.0167999267578
40
0.0
41
0.0
42
0.0
10
72.9723968505859
20
82.0133972167969
40
0.0
41
0.0
42
0.0
10
72.7565994262695
20
81.6097030639648
40
0.0
41
0.0
42
0.0
10
72.7565002441406
20
81.5761032104492
40
0.0
41
0.0
42
0.0
10
72.763801574707
20
81.508903503418
40
0.0
41
0.0
42
0.0
10
72.5335006713867
20
81.0476989746094
40
0.0
41
0.0
42
0.0
10
72.5336990356445
20
81.0165023803711
40
0.0
41
0.0
42
0.0
10
72.5392990112305
20
81.0009002685547
40
0.0
41
0.0
42
0.0
10
72.5018997192383
20
80.9134979248047
40
0.0
41
0.0
42
0.0
10
72.497200012207
20
80.913200378418
40
0.0
41
0.0
42
0.0
10
72.467399597168
20
80.963996887207
40
0.0
41
0.0
42
0.0
10
72.1893997192383
20
81.0553970336914
40
0.0
41
0.0
42
0.0
10
72.0122985839844
20
81.0637969970703
40
0.0
41
0.0
42
0.0
10
71.9036026000977
20
81.1481018066406
40
0.0
41
0.0
42
0.0
10
71.5098037719727
20
81.2975997924805
40
0.0
41
0.0
42
0.0
10
71.4955978393555
20
81.3080978393555
40
0.0
41
0.0
42
0.0
10
71.4139022827148
20
81.3813018798828
40
0.0
41
0.0
42
0.0
10
71.1457977294922
20
81.4804992675781
40
0.0
41
0.0
42
0.0
10
71.1022033691406
20
81.5000991821289
40
0.0
41
0.0
42
0.0
10
71.0128021240234
20
81.5266036987305
40
0.0
41
0.0
42
0.0
10
70.980598449707
20
81.540397644043
40
0.0
41
0.0
42
0.0
10
70.9176025390625
20
81.5725021362305
40
0.0
41
0.0
42
0.0
10
70.5161972045898
20
81.6703033447266
40
0.0
41
0.0
42
0.0
10
70.1503982543945
20
81.7135009765625
40
0.0
41
0.0
42
0.0
10
70.0167007446289
20
81.7568969726562
40
0.0
41
0.0
42
0.0
10
69.9804000854492
20
81.7567977905273
40
0.0
41
0.0
42
0.0
10
69.644401550293
20
81.7422027587891
40
0.0
41
0.0
42
0.0
10
69.5185012817383
20
81.7598037719727
40
0.0
41
0.0
42
0.0
10
69.4829025268555
20
81.7596969604492
40
0.0
41
0.0
42
0.0
10
69.1185989379883
20
81.654296875
40
0.0
41
0.0
42
0.0
10
68.9842987060547
20
81.6455993652344
40
0.0
41
0.0
42
0.0
10
68.8538970947266
20
81.5988998413086
40
0.0
41
0.0
42
0.0
10
68.7794036865234
20
81.5546035766602
40
0.0
41
0.0
42
0.0
10
68.7091979980469
20
81.5038986206055
40
0.0
41
0.0
42
0.0
10
68.496696472168
20
81.2912979125977
40
0.0
41
0.0
42
0.0
10
68.4627990722656
20
81.2342987060547
40
0.0
41
0.0
42
0.0
10
68.3844985961914
20
81.1427001953125
40
0.0
41
0.0
42
0.0
10
68.3059005737305
20
81.0114974975586
40
0.0
41
0.0
42
0.0
10
68.2054977416992
20
80.6648025512695
40
0.0
41
0.0
42
0.0
10
68.1829986572266
20
80.5178985595703
40
0.0
41
0.0
42
0.0
10
68.1695022583008
20
80.2080993652344
40
0.0
41
0.0
42
0.0
10
68.1694030761719
20
80.1689987182617
40
0.0
41
0.0
42
0.0
10
68.1769027709961
20
79.9829025268555
40
0.0
41
0.0
42
0.0
10
68.2093963623047
20
79.8487014770508
40
0.0
41
0.0
42
0.0
10
68.252197265625
20
79.4859008789062
40
0.0
41
0.0
42
0.0
10
68.3164978027344
20
79.3519973754883
40
0.0
41
0.0
42
0.0
10
68.4056015014648
20
78.9853973388672
40
0.0
41
0.0
42
0.0
10
68.4402008056641
20
78.8684005737305
40
0.0
41
0.0
42
0.0
10
68.4962997436523
20
78.7861022949219
40
0.0
41
0.0
42
0.0
10
68.5378036499023
20
78.7418975830078
40
0.0
41
0.0
42
0.0
10
68.6315994262695
20
78.4886016845703
40
0.0
41
0.0
42
0.0
10
68.7839965820312
20
78.0870971679688
40
0.0
41
0.0
42
0.0
10
68.8899993896484
20
77.9912033081055
40
0.0
41
0.0
42
0.0
10
68.9985961914062
20
77.5633010864258
40
0.0
41
0.0
42
0.0
10
69.0695037841797
20
77.5000991821289
40
0.0
41
0.0
42
0.0
10
68.9882965087891
20
77.431396484375
40
0.0
41
0.0
42
0.0
10
68.9126968383789
20
77.4256973266602
40
0.0
41
0.0
42
0.0
10
68.4897003173828
20
77.1751022338867
40
0.0
41
0.0
42
0.0
10
68.1109008789062
20
77.0003967285156
40
0.0
41
0.0
42
0.0
10
68.0358963012695
20
76.9742965698242
40
0.0
41
0.0
42
0.0
10
67.9853973388672
20
76.9748992919922
40
0.0
41
0.0
42
0.0
10
67.9478988647461
20
76.9533996582031
40
0.0
41
0.0
42
0.0
10
67.5811004638672
20
76.7785034179688
40
0.0
41
0.0
42
0.0
10
67.4873962402344
20
76.7649993896484
40
0.0
41
0.0
42
0.0
10
67.1324005126953
20
76.53759765625
40
0.0
41
0.0
42
0.0
10
67.0286026000977
20
76.5009994506836
40
0.0
41
0.0
42
0.0
10
66.9929962158203
20
76.4763031005859
40
0.0
41
0.0
42
0.0
10
66.6272964477539
20
76.1511993408203
40
0.0
41
0.0
42
0.0
10
66.4927978515625
20
76.0727005004883
40
0.0
41
0.0
42
0.0
10
66.4803009033203
20
76.0604019165039
40
0.0
41
0.0
42
0.0
10
66.4111022949219
20
76.0055999755859
40
0.0
41
0.0
42
0.0
10
66.1712036132812
20
75.6420974731445
40
0.0
41
0.0
42
0.0
10
66.1070022583008
20
75.5705032348633
40
0.0
41
0.0
42
0.0
10
66.0663986206055
20
75.5114974975586
40
0.0
41
0.0
42
0.0
10
66.0196990966797
20
75.2941970825195
40
0.0
41
0.0
42
0.0
10
66.0000991821289
20
75.2202987670898
40
0.0
41
0.0
42
0.0
10
65.9382019042969
20
75.0167999267578
40
0.0
41
0.0
42
0.0
10
65.938102722168
20
74.9807968139648
40
0.0
41
0.0
42
0.0
10
65.9445037841797
20
74.8979034423828
40
0.0
41
0.0
42
0.0
10
66.0005035400391
20
74.6481018066406
40
0.0
41
0.0
42
0.0
210
0.0
220
0.0
230
1.0
0
LWPOLYLINE
5
25
330
1C
100
AcDbEntity
67
0
8
0
62
256
6
ByLayer
370
-1
48
1.0
60
0
100
AcDbPolyline
90
371
70
1
38
0.0
39
0.0
10
65.9997024536133
20
75.0817031860352
40
0.0
41
0.0
42
0.0
10
66.0261001586914
20
75.181396484375
40
0.0
41
0.0
42
0.0
10
66.0921020507812
20
75.4884033203125
40
0.0
41
0.0
42
0.0
10
66.1259002685547
20
75.5376968383789
40
0.0
41
0.0
42
0.0
10
66.1708984375
20
75.5877990722656
40
0.0
41
0.0
42
0.0
10
66.4393005371094
20
75.9943008422852
40
0.0
41
0.0
42
0.0
10
66.4909973144531
20
76.0353012084961
40
0.0
41
0.0
42
0.0
10
66.5071029663086
20
76.0512008666992
40
0.0
41
0.0
42
0.0
10
66.6026000976562
20
76.1066970825195
40
0.0
41
0.0
42
0.0
10
67.0068969726562
20
76.4664001464844
40
0.0
41
0.0
42
0.0
10
67.0533981323242
20
76.4988021850586
40
0.0
41
0.0
42
0.0
10
67.1505966186523
20
76.5329971313477
40
0.0
41
0.0
42
0.0
10
67.1840972900391
20
76.5462036132812
40
0.0
41
0.0
42
0.0
10
67.5124969482422
20
76.7564010620117
40
0.0
41
0.0
42
0.0
10
67.6488037109375
20
76.7761993408203
40
0.0
41
0.0
42
0.0
10
67.9726028442383
20
76.9306030273438
40
0.0
41
0.0
42
0.0
10
68.0117034912109
20
76.9527969360352
40
0.0
41
0.0
42
0.0
10
68.0726013183594
20
76.9499969482422
40
0.0
41
0.0
42
0.0
10
68.1084976196289
20
76.9498977661133
40
0.0
41
0.0
42
0.0
10
68.2511978149414
20
76.999397277832
40
0.0
41
0.0
42
0.0
10
68.5102005004883
20
77.118896484375
40
0.0
41
0.0
42
0.0
10
68.8087005615234
20
77.2957000732422
40
0.0
41
0.0
42
0.0
10
69.0115966796875
20
77.3106994628906
40
0.0
41
0.0
42
0.0
10
69.2231979370117
20
77.4897003173828
40
0.0
41
0.0
42
0.0
10
69.2231979370117
20
77.5105972290039
40
0.0
41
0.0
42
0.0
10
69.0010986328125
20
77.7089996337891
40
0.0
41
0.0
42
0.0
10
68.9250030517578
20
78.0085983276367
40
0.0
41
0.0
42
0.0
10
68.7767028808594
20
78.1427001953125
40
0.0
41
0.0
42
0.0
10
68.6363983154297
20
78.5126037597656
40
0.0
41
0.0
42
0.0
10
68.5462036132812
20
78.7558975219727
40
0.0
41
0.0
42
0.0
10
68.5345993041992
20
78.7788009643555
40
0.0
41
0.0
42
0.0
10
68.5035018920898
20
78.8121032714844
40
0.0
41
0.0
42
0.0
10
68.4591979980469
20
78.8768997192383
40
0.0
41
0.0
42
0.0
10
68.4185028076172
20
79.0145034790039
40
0.0
41
0.0
42
0.0
10
68.3206024169922
20
79.4178009033203
40
0.0
41
0.0
42
0.0
10
68.2743988037109
20
79.5139999389648
40
0.0
41
0.0
42
0.0
10
68.2261962890625
20
79.9212036132812
40
0.0
41
0.0
42
0.0
10
68.2031021118164
20
80.0169982910156
40
0.0
41
0.0
42
0.0
10
68.1985015869141
20
80.1318969726562
40
0.0
41
0.0
42
0.0
10
68.2137985229492
20
80.4820022583008
40
0.0
41
0.0
42
0.0
10
68.2304000854492
20
80.589599609375
40
0.0
41
0.0
42
0.0
10
68.3458023071289
20
80.9884033203125
40
0.0
41
0.0
42
0.0
10
68.4049987792969
20
81.0873031616211
40
0.0
41
0.0
42
0.0
10
68.4600982666016
20
81.1517028808594
40
0.0
41
0.0
42
0.0
10
68.5031967163086
20
81.2241973876953
40
0.0
41
0.0
42
0.0
10
68.77490234375
20
81.4960021972656
40
0.0
41
0.0
42
0.0
10
68.8279037475586
20
81.5343017578125
40
0.0
41
0.0
42
0.0
10
68.9160003662109
20
81.5866012573242
40
0.0
41
0.0
42
0.0
10
69.0157012939453
20
81.6222991943359
40
0.0
41
0.0
42
0.0
10
69.1112976074219
20
81.6284027099609
40
0.0
41
0.0
42
0.0
10
69.5054016113281
20
81.7425003051758
40
0.0
41
0.0
42
0.0
10
69.5764007568359
20
81.7326965332031
40
0.0
41
0.0
42
0.0
10
69.614501953125
20
81.7325973510742
40
0.0
41
0.0
42
0.0
10
69.9876022338867
20
81.7488021850586
40
0.0
41
0.0
42
0.0
10
70.0793991088867
20
81.7191009521484
40
0.0
41
0.0
42
0.0
10
70.4837036132812
20
81.671501159668
40
0.0
41
0.0
42
0.0
10
70.8533020019531
20
81.5818023681641
40
0.0
41
0.0
42
0.0
10
70.9457015991211
20
81.5345993041992
40
0.0
41
0.0
42
0.0
10
70.9870986938477
20
81.5167999267578
40
0.0
41
0.0
42
0.0
10
71.0450973510742
20
81.4996032714844
40
0.0
41
0.0
42
0.0
10
71.1083984375
20
81.4710998535156
40
0.0
41
0.0
42
0.0
10
71.3560028076172
20
81.3795013427734
40
0.0
41
0.0
42
0.0
10
71.4775009155273
20
81.2705993652344
40
0.0
41
0.0
42
0.0
10
71.4899978637695
20
81.2613983154297
40
0.0
41
0.0
42
0.0
10
71.8398971557617
20
81.1285018920898
40
0.0
41
0.0
42
0.0
10
71.9876022338867
20
81.013801574707
40
0.0
41
0.0
42
0.0
10
72.019401550293
20
81.0122985839844
40
0.0
41
0.0
42
0.0
10
72.3896026611328
20
80.8929977416992
40
0.0
41
0.0
42
0.0
10
72.4919967651367
20
80.7165985107422
40
0.0
41
0.0
42
0.0
10
72.506103515625
20
80.7165985107422
40
0.0
41
0.0
42
0.0
10
72.6206970214844
20
80.9841995239258
40
0.0
41
0.0
42
0.0
10
72.6205978393555
20
81.0161972045898
40
0.0
41
0.0
42
0.0
10
72.594596862793
20
81.0871963500977
40
0.0
41
0.0
42
0.0
10
72.7932968139648
20
81.4849014282227
40
0.0
41
0.0
42
0.0
10
72.7931976318359
20
81.518798828125
40
0.0
41
0.0
42
0.0
10
72.7813034057617
20
81.6259002685547
40
0.0
41
0.0
42
0.0
10
72.9741973876953
20
81.9866027832031
40
0.0
41
0.0
42
0.0
10
72.9753036499023
20
81.9937973022461
40
0.0
41
0.0
42
0.0
10
73.0016021728516
20
82.0342025756836
40
0.0
41
0.0
42
0.0
10
73.1569976806641
20
82.3600997924805
40
0.0
41
0.0
42
0.0
10
73.1725997924805
20
82.3949966430664
40
0.0
41
0.0
42
0.0
10
73.1826019287109
20
82.4843978881836
40
0.0
41
0.0
42
0.0
10
73.2148971557617
20
82.5839996337891
40
0.0
41
0.0
42
0.0
10
73.4772033691406
20
82.9907989501953
40
0.0
41
0.0
42
0.0
10
73.532600402832
20
83.0899963378906
40
0.0
41
0.0
42
0.0
10
73.8917007446289
20
83.493896484375
40
0.0
41
0.0
42
0.0
10
73.9782028198242
20
83.5896987915039
40
0.0
41
0.0
42
0.0
10
74.0072021484375
20
83.6168975830078
40
0.0
41
0.0
42
0.0
10
74.2856979370117
20
83.7828979492188
40
0.0
41
0.0
42
0.0
10
74.5118026733398
20
83.9322967529297
40
0.0
41
0.0
42
0.0
10
74.8589019775391
20
84.0003967285156
40
0.0
41
0.0
42
0.0
10
74.9772033691406
20
84.0268020629883
40
0.0
41
0.0
42
0.0
10
74.9905014038086
20
84.0278015136719
40
0.0
41
0.0
42
0.0
10
75.0817031860352
20
84.0
40
0.0
41
0.0
42
0.0
10
75.1812973022461
20
83.9736022949219
40
0.0
41
0.0
42
0.0
10
75.4884033203125
20
83.9076995849609
40
0.0
41
0.0
42
0.0
10
75.53759765625
20
83.8739013671875
40
0.0
41
0.0
42
0.0
10
75.5877990722656
20
83.8289031982422
40
0.0
41
0.0
42
0.0
10
75.9943008422852
20
83.5605010986328
40
0.0
41
0.0
42
0.0
10
76.0352020263672
20
83.5087966918945
40
0.0
41
0.0
42
0.0
10
76.0511016845703
20
83.4927978515625
40
0.0
41
0.0
42
0.0
10
76.1066970825195
20
83.3973007202148
40
0.0
41
0.0
42
0.0
10
76.4663009643555
20
82.9929962158203
40
0.0
41
0.0
42
0.0
10
76.4987030029297
20
82.9466018676758
40
0.0
41
0.0
42
0.0
10
76.5329971313477
20
82.8492965698242
40
0.0
41
0.0
42
0.0
10
76.5462036132812
20
82.8156967163086
40
0.0
41
0.0
42
0.0
10
76.7564010620117
20
82.4873962402344
40
0.0
41
0.0
42
0.0
10
76.7761001586914
20
82.3510971069336
40
0.0
41
0.0
42
0.0
10
76.9304962158203
20
82.0272979736328
40
0.0
41
0.0
42
0.0
10
76.9529037475586
20
81.9881973266602
40
0.0
41
0.0
42
0.0
10
76.9499969482422
20
81.9272003173828
40
0.0
41
0.0
42
0.0
10
76.9498977661133
20
81.8912963867188
40
0.0
41
0.0
42
0.0
10
76.999397277832
20
81.7485961914062
40
0.0
41
0.0
42
0.0
10
77.1187973022461
20
81.4897003173828
40
0.0
41
0.0
42
0.0
10
77.2957000732422
20
81.1911010742188
40
0.0
41
0.0
42
0.0
10
77.3090972900391
20
81.0072021484375
40
0.0
41
0.0
42
0.0
10
77.2702026367188
20
80.7873992919922
40
0.0
41
0.0
42
0.0
10
77.2702026367188
20
80.7702026367188
40
0.0
41
0.0
42
0.0
10
77.5102996826172
20
80.7763977050781
40
0.0
41
0.0
42
0.0
10
77.709098815918
20
80.9987030029297
40
0.0
41
0.0
42
0.0
10
78.0086975097656
20
81.0746994018555
40
0.0
41
0.0
42
0.0
10
78.1427993774414
20
81.2229995727539
40
0.0
41
0.0
42
0.0
10
78.5126037597656
20
81.3632965087891
40
0.0
41
0.0
42
0.0
10
78.7558975219727
20
81.453498840332
40
0.0
41
0.0
42
0.0
10
78.7789001464844
20
81.4651031494141
40
0.0
41
0.0
42
0.0
10
78.8122024536133
20
81.4963989257812
40
0.0
41
0.0
42
0.0
10
78.8768997192383
20
81.5404968261719
40
0.0
41
0.0
42
0.0
10
79.0123977661133
20
81.5805969238281
40
0.0
41
0.0
42
0.0
10
79.1078033447266
20
81.6264038085938
40
0.0
41
0.0
42
0.0
10
79.5161972045898
20
81.7256011962891
40
0.0
41
0.0
42
0.0
10
79.9212036132812
20
81.7734985351562
40
0.0
41
0.0
42
0.0
10
80.0169982910156
20
81.7966003417969
40
0.0
41
0.0
42
0.0
10
80.1318969726562
20
81.8012008666992
40
0.0
41
0.0
42
0.0
10
80.4820022583008
20
81.7858963012695
40
0.0
41
0.0
42
0.0
10
80.589599609375
20
81.7693023681641
40
0.0
41
0.0
42
0.0
10
80.9890975952148
20
81.6536026000977
40
0.0
41
0.0
42
0.0
10
81.1508026123047
20
81.5401992797852
40
0.0
41
0.0
42
0.0
10
81.2241973876953
20
81.4965972900391
40
0.0
41
0.0
42
0.0
10
81.4960021972656
20
81.2248992919922
40
0.0
41
0.0
42
0.0
10
81.5343017578125
20
81.1718978881836
40
0.0
41
0.0
42
0.0
10
81.5866012573242
20
81.0839004516602
40
0.0
41
0.0
42
0.0
10
81.6222991943359
20
80.9841995239258
40
0.0
41
0.0
42
0.0
10
81.6284027099609
20
80.8886032104492
40
0.0
41
0.0
42
0.0
10
81.7425003051758
20
80.494499206543
40
0.0
41
0.0
42
0.0
10
81.7326965332031
20
80.4235000610352
40
0.0
41
0.0
42
0.0
10
81.7325973510742
20
80.3853988647461
40
0.0
41
0.0
42
0.0
10
81.7488021850586
20
80.0122985839844
40
0.0
41
0.0
42
0.0
10
81.7191009521484
20
79.9205017089844
40
0.0
41
0.0
42
0.0
10
81.6716003417969
20
79.5161972045898
40
0.0
41
0.0
42
0.0
10
81.5818023681641
20
79.146598815918
40
0.0
41
0.0
42
0.0
10
81.5345993041992
20
79.0540008544922
40
0.0
41
0.0
42
0.0
10
81.5167999267578
20
79.0128021240234
40
0.0
41
0.0
42
0.0
10
81.4998016357422
20
78.9553985595703
40
0.0
41
0.0
42
0.0
10
81.4561996459961
20
78.8373031616211
40
0.0
41
0.0
42
0.0
10
81.3794021606445
20
78.643798828125
40
0.0
41
0.0
42
0.0
10
81.261100769043
20
78.5090026855469
40
0.0
41
0.0
42
0.0
10
81.1285018920898
20
78.1598968505859
40
0.0
41
0.0
42
0.0
10
81.013801574707
20
78.0122985839844
40
0.0
41
0.0
42
0.0
10
81.0123977661133
20
77.9803009033203
40
0.0
41
0.0
42
0.0
10
80.9990005493164
20
77.9401016235352
40
0.0
41
0.0
42
0.0
10
80.7164993286133
20
77.5137023925781
40
0.0
41
0.0
42
0.0
10
80.7165985107422
20
77.4856033325195
40
0.0
41
0.0
42
0.0
10
80.8123016357422
20
77.3211975097656
40
0.0
41
0.0
42
0.0
10
80.8369979858398
20
77.3212966918945
40
0.0
41
0.0
42
0.0
10
81.0130996704102
20
77.3779983520508
40
0.0
41
0.0
42
0.0
10
81.0871963500977
20
77.4050979614258
40
0.0
41
0.0
42
0.0
10
81.4849014282227
20
77.2065963745117
40
0.0
41
0.0
42
0.0
10
81.518798828125
20
77.2064971923828
40
0.0
41
0.0
42
0.0
10
81.6259002685547
20
77.2183990478516
40
0.0
41
0.0
42
0.0
10
81.9866027832031
20
77.0254974365234
40
0.0
41
0.0
42
0.0
10
81.9937973022461
20
77.0244979858398
40
0.0
41
0.0
42
0.0
10
82.0341033935547
20
76.9981994628906
40
0.0
41
0.0
42
0.0
10
82.3600006103516
20
76.8426971435547
40
0.0
41
0.0
42
0.0
10
82.3948974609375
20
76.8271026611328
40
0.0
41
0.0
42
0.0
10
82.4843978881836
20
76.8171005249023
40
0.0
41
0.0
42
0.0
10
82.5839996337891
20
76.784797668457
40
0.0
41
0.0
42
0.0
10
82.9906997680664
20
76.5224990844727
40
0.0
41
0.0
42
0.0
10
83.0898971557617
20
76.4672012329102
40
0.0
41
0.0
42
0.0
10
83.4941024780273
20
76.1079025268555
40
0.0
41
0.0
42
0.0
10
83.6165008544922
20
75.9932022094727
40
0.0
41
0.0
42
0.0
10
83.7828979492188
20
75.7141036987305
40
0.0
41
0.0
42
0.0
10
83.9321975708008
20
75.4880981445312
40
0.0
41
0.0
42
0.0
10
84.0003967285156
20
75.1408996582031
40
0.0
41
0.0
42
0.0
10
84.0268020629883
20
75.0225982666016
40
0.0
41
0.0
42
0.0
10
84.0278015136719
20
75.0093994140625
40
0.0
41
0.0
42
0.0
10
84.0000991821289
20
74.918098449707
40
0.0
41
0.0
42
0.0
10
83.9737014770508
20
74.8183975219727
40
0.0
41
0.0
42
0.0
10
83.9076995849609
20
74.5114974975586
40
0.0
41
0.0
42
0.0
10
83.8739013671875
20
74.4620971679688
40
0.0
41
0.0
42
0.0
10
83.8289031982422
20
74.4121017456055
40
0.0
41
0.0
42
0.0
10
83.5605010986328
20
74.0055999755859
40
0.0
41
0.0
42
0.0
10
83.508903503418
20
73.9645004272461
40
0.0
41
0.0
42
0.0
10
83.4943008422852
20
73.9501037597656
40
0.0
41
0.0
42
0.0
10
83.0873031616211
20
73.5883026123047
40
0.0
41
0.0
42
0.0
10
82.9906997680664
20
73.5318984985352
40
0.0
41
0.0
42
0.0
10
82.9467010498047
20
73.5009994506836
40
0.0
41
0.0
42
0.0
10
82.8492965698242
20
73.466796875
40
0.0
41
0.0
42
0.0
10
82.815803527832
20
73.4535980224609
40
0.0
41
0.0
42
0.0
10
82.4873962402344
20
73.2433013916016
40
0.0
41
0.0
42
0.0
10
82.3510971069336
20
73.2237014770508
40
0.0
41
0.0
42
0.0
10
82.0272979736328
20
73.0691986083984
40
0.0
41
0.0
42
0.0
10
81.9882965087891
20
73.0467987060547
40
0.0
41
0.0
42
0.0
10
81.9272003173828
20
73.0498962402344
40
0.0
41
0.0
42
0.0
10
81.8912963867188
20
73.0497970581055
40
0.0
41
0.0
42
0.0
10
81.7485961914062
20
73.0003967285156
40
0.0
41
0.0
42
0.0
10
81.4897003173828
20
72.8808975219727
40
0.0
41
0.0
42
0.0
10
81.1911010742188
20
72.7040023803711
40
0.0
41
0.0
42
0.0
10
80.9882965087891
20
72.6891021728516
40
0.0
41
0.0
42
0.0
10
80.7767028808594
20
72.5102005004883
40
0.0
41
0.0
42
0.0
10
80.776496887207
20
72.4893035888672
40
0.0
41
0.0
42
0.0
10
80.9987030029297
20
72.2907028198242
40
0.0
41
0.0
42
0.0
10
81.0746002197266
20
71.9912033081055
40
0.0
41
0.0
42
0.0
10
81.222900390625
20
71.8571014404297
40
0.0
41
0.0
42
0.0
10
81.3632965087891
20
71.4872970581055
40
0.0
41
0.0
42
0.0
10
81.453498840332
20
71.2437973022461
40
0.0
41
0.0
42
0.0
10
81.4651031494141
20
71.2209014892578
40
0.0
41
0.0
42
0.0
10
81.4962997436523
20
71.1875991821289
40
0.0
41
0.0
42
0.0
10
81.5404968261719
20
71.122802734375
40
0.0
41
0.0
42
0.0
10
81.5804977416992
20
70.9875030517578
40
0.0
41
0.0
42
0.0
10
81.6264038085938
20
70.8919982910156
40
0.0
41
0.0
42
0.0
10
81.7256011962891
20
70.4837036132812
40
0.0
41
0.0
42
0.0
10
81.7733993530273
20
70.0786972045898
40
0.0
41
0.0
42
0.0
10
81.7966003417969
20
69.9829025268555
40
0.0
41
0.0
42
0.0
10
81.8012008666992
20
69.8678970336914
40
0.0
41
0.0
42
0.0
10
81.7858963012695
20
69.5178985595703
40
0.0
41
0.0
42
0.0
10
81.7693023681641
20
69.4102020263672
40
0.0
41
0.0
42
0.0
10
81.6544036865234
20
69.0130004882812
40
0.0
41
0.0
42
0.0
10
81.6443023681641
20
68.988899230957
40
0.0
41
0.0
42
0.0
10
81.5954971313477
20
68.9139022827148
40
0.0
41
0.0
42
0.0
10
81.5438995361328
20
68.8267974853516
40
0.0
41
0.0
42
0.0
10
81.4951019287109
20
68.7740020751953
40
0.0
41
0.0
42
0.0
10
81.2249984741211
20
68.5038986206055
40
0.0
41
0.0
42
0.0
10
81.1718978881836
20
68.4654998779297
40
0.0
41
0.0
42
0.0
10
81.0839004516602
20
68.413200378418
40
0.0
41
0.0
42
0.0
10
80.9863967895508
20
68.3781967163086
40
0.0
41
0.0
42
0.0
10
80.5785980224609
20
68.2602005004883
40
0.0
41
0.0
42
0.0
10
80.4811019897461
20
68.2539978027344
40
0.0
41
0.0
42
0.0
10
80.1044998168945
20
68.2375030517578
40
0.0
41
0.0
42
0.0
10
80.0173034667969
20
68.2496032714844
40
0.0
41
0.0
42
0.0
10
79.6103973388672
20
68.2975006103516
40
0.0
41
0.0
42
0.0
10
79.5139007568359
20
68.3286972045898
40
0.0
41
0.0
42
0.0
10
79.146598815918
20
68.4179000854492
40
0.0
41
0.0
42
0.0
10
79.0540008544922
20
68.465202331543
40
0.0
41
0.0
42
0.0
10
79.0128021240234
20
68.4829025268555
40
0.0
41
0.0
42
0.0
10
78.9553985595703
20
68.5
40
0.0
41
0.0
42
0.0
10
78.8357009887695
20
68.5442962646484
40
0.0
41
0.0
42
0.0
10
78.5106964111328
20
68.7378997802734
40
0.0
41
0.0
42
0.0
10
78.159797668457
20
68.8712005615234
40
0.0
41
0.0
42
0.0
10
78.0122985839844
20
68.9859008789062
40
0.0
41
0.0
42
0.0
10
77.9804000854492
20
68.9873962402344
40
0.0
41
0.0
42
0.0
10
77.6100997924805
20
69.1066970825195
40
0.0
41
0.0
42
0.0
10
77.5077972412109
20
69.2833023071289
40
0.0
41
0.0
42
0.0
10
77.4937973022461
20
69.283203125
40
0.0
41
0.0
42
0.0
10
77.3789978027344
20
69.0157012939453
40
0.0
41
0.0
42
0.0
10
77.3790969848633
20
68.9837036132812
40
0.0
41
0.0
42
0.0
10
77.4050979614258
20
68.91259765625
40
0.0
41
0.0
42
0.0
10
77.2065963745117
20
68.5149993896484
40
0.0
41
0.0
42
0.0
10
77.2064971923828
20
68.4811019897461
40
0.0
41
0.0
42
0.0
10
77.2184982299805
20
68.3740005493164
40
0.0
41
0.0
42
0.0
10
77.0254974365234
20
68.0133972167969
40
0.0
41
0.0
42
0.0
10
77.0244979858398
20
68.0059967041016
40
0.0
41
0.0
42
0.0
10
76.9982986450195
20
67.9656982421875
40
0.0
41
0.0
42
0.0
10
76.8427963256836
20
67.6398010253906
40
0.0
41
0.0
42
0.0
10
76.8271026611328
20
67.6048965454102
40
0.0
41
0.0
42
0.0
10
76.8171005249023
20
67.5155029296875
40
0.0
41
0.0
42
0.0
10
76.7848968505859
20
67.415901184082
40
0.0
41
0.0
42
0.0
10
76.5225982666016
20
67.0091018676758
40
0.0
41
0.0
42
0.0
10
76.4673004150391
20
66.909797668457
40
0.0
41
0.0
42
0.0
10
76.1054000854492
20
66.5022964477539
40
0.0
41
0.0
42
0.0
10
76.0216979980469
20
66.4102020263672
40
0.0
41
0.0
42
0.0
10
75.9926986694336
20
66.3828964233398
40
0.0
41
0.0
42
0.0
10
75.7141036987305
20
66.216796875
40
0.0
41
0.0
42
0.0
10
75.4880981445312
20
66.067497253418
40
0.0
41
0.0
42
0.0
10
75.140998840332
20
65.999397277832
40
0.0
41
0.0
42
0.0
10
75.0226974487305
20
65.972900390625
40
0.0
41
0.0
42
0.0
10
75.0093994140625
20
65.9719009399414
40
0.0
41
0.0
42
0.0
10
74.918098449707
20
65.9997024536133
40
0.0
41
0.0
42
0.0
10
74.8183975219727
20
66.0260009765625
40
0.0
41
0.0
42
0.0
10
74.5114974975586
20
66.0920028686523
40
0.0
41
0.0
42
0.0
10
74.4620971679688
20
66.1258010864258
40
0.0
41
0.0
42
0.0
10
74.4120025634766
20
66.1707992553711
40
0.0
41
0.0
42
0.0
10
74.005500793457
20
66.4392013549805
40
0.0
41
0.0
42
0.0
10
73.9642028808594
20
66.4913024902344
40
0.0
41
0.0
42
0.0
10
73.5882034301758
20
66.9124984741211
40
0.0
41
0.0
42
0.0
10
73.5317993164062
20
67.0091018676758
40
0.0
41
0.0
42
0.0
10
73.5009994506836
20
67.0531997680664
40
0.0
41
0.0
42
0.0
10
73.4666976928711
20
67.1505966186523
40
0.0
41
0.0
42
0.0
10
73.453498840332
20
67.1839981079102
40
0.0
41
0.0
42
0.0
10
73.2433013916016
20
67.5124969482422
40
0.0
41
0.0
42
0.0
10
73.2237014770508
20
67.6488037109375
40
0.0
41
0.0
42
0.0
10
73.0690994262695
20
67.9726028442383
40
0.0
41
0.0
42
0.0
10
73.0468978881836
20
68.0115966796875
40
0.0
41
0.0
42
0.0
10
73.0498962402344
20
68.0726013183594
40
0.0
41
0.0
42
0.0
10
73.0497970581055
20
68.1084976196289
40
0.0
41
0.0
42
0.0
10
73.0003967285156
20
68.2511978149414
40
0.0
41
0.0
42
0.0
10
72.8808975219727
20
68.5101013183594
40
0.0
41
0.0
42
0.0
10
72.7040023803711
20
68.8087005615234
40
0.0
41
0.0
42
0.0
10
72.6905975341797
20
68.9926986694336
40
0.0
41
0.0
42
0.0
10
72.7294998168945
20
69.21240234375
40
0.0
41
0.0
42
0.0
10
72.7294998168945
20
69.2294998168945
40
0.0
41
0.0
42
0.0
10
72.4896011352539
20
69.223503112793
40
0.0
41
0.0
42
0.0
10
72.2907028198242
20
69.0011978149414
40
0.0
41
0.0
42
0.0
10
71.9912033081055
20
68.9251022338867
40
0.0
41
0.0
42
0.0
10
71.8572006225586
20
68.7768020629883
40
0.0
41
0.0
42
0.0
10
71.4872970581055
20
68.6363983154297
40
0.0
41
0.0
42
0.0
10
71.243896484375
20
68.5463027954102
40
0.0
41
0.0
42
0.0
10
71.2209014892578
20
68.5346984863281
40
0.0
41
0.0
42
0.0
10
71.1875991821289
20
68.5035018920898
40
0.0
41
0.0
42
0.0
10
71.1229019165039
20
68.4591979980469
40
0.0
41
0.0
42
0.0
10
70.9853973388672
20
68.4185028076172
40
0.0
41
0.0
42
0.0
10
70.5820999145508
20
68.3206024169922
40
0.0
41
0.0
42
0.0
10
70.4859008789062
20
68.2743988037109
40
0.0
41
0.0
42
0.0
10
70.0786972045898
20
68.2263031005859
40
0.0
41
0.0
42
0.0
10
69.9829025268555
20
68.2031021118164
40
0.0
41
0.0
42
0.0
10
69.8678970336914
20
68.1985015869141
40
0.0
41
0.0
42
0.0
10
69.5178985595703
20
68.2137985229492
40
0.0
41
0.0
42
0.0
10
69.4102020263672
20
68.2304000854492
40
0.0
41
0.0
42
0.0
10
69.0129013061523
20
68.3453979492188
40
0.0
41
0.0
42
0.0
10
68.9888000488281
20
68.3554000854492
40
0.0
41
0.0
42
0.0
10
68.9138031005859
20
68.4041976928711
40
0.0
41
0.0
42
0.0
10
68.8267974853516
20
68.4559020996094
40
0.0
41
0.0
42
0.0
10
68.7739028930664
20
68.5047988891602
40
0.0
41
0.0
42
0.0
10
68.5037994384766
20
68.7748031616211
40
0.0
41
0.0
42
0.0
10
68.4654006958008
20
68.8279037475586
40
0.0
41
0.0
42
0.0
10
68.4131011962891
20
68.9160003662109
40
0.0
41
0.0
42
0.0
10
68.3781967163086
20
69.0134963989258
40
0.0
41
0.0
42
0.0
10
68.2602005004883
20
69.4213027954102
40
0.0
41
0.0
42
0.0
10
68.2539978027344
20
69.518798828125
40
0.0
41
0.0
42
0.0
10
68.2375030517578
20
69.8954010009766
40
0.0
41
0.0
42
0.0
10
68.2496032714844
20
69.9825973510742
40
0.0
41
0.0
42
0.0
10
68.2975006103516
20
70.3895034790039
40
0.0
41
0.0
42
0.0
10
68.3287963867188
20
70.4859008789062
40
0.0
41
0.0
42
0.0
10
68.4179992675781
20
70.8533020019531
40
0.0
41
0.0
42
0.0
10
68.4653015136719
20
70.94580078125
40
0.0
41
0.0
42
0.0
10
68.4829025268555
20
70.9870986938477
40
0.0
41
0.0
42
0.0
10
68.5001983642578
20
71.0450973510742
40
0.0
41
0.0
42
0.0
10
68.5286026000977
20
71.1083984375
40
0.0
41
0.0
42
0.0
10
68.6202011108398
20
71.3560028076172
40
0.0
41
0.0
42
0.0
10
68.7291030883789
20
71.4775009155273
40
0.0
41
0.0
42
0.0
10
68.7382965087891
20
71.4900970458984
40
0.0
41
0.0
42
0.0
10
68.8712997436523
20
71.8398971557617
40
0.0
41
0.0
42
0.0
10
68.9859008789062
20
71.9876022338867
40
0.0
41
0.0
42
0.0
10
68.9873962402344
20
72.0195999145508
40
0.0
41
0.0
42
0.0
10
69.0009002685547
20
72.0597991943359
40
0.0
41
0.0
42
0.0
10
69.283203125
20
72.486198425293
40
0.0
41
0.0
42
0.0
10
69.2829971313477
20
72.5141983032227
40
0.0
41
0.0
42
0.0
10
69.1875
20
72.6784973144531
40
0.0
41
0.0
42
0.0
10
69.1628036499023
20
72.6784973144531
40
0.0
41
0.0
42
0.0
10
68.9868011474609
20
72.621696472168
40
0.0
41
0.0
42
0.0
10
68.91259765625
20
72.594596862793
40
0.0
41
0.0
42
0.0
10
68.5149993896484
20
72.7932968139648
40
0.0
41
0.0
42
0.0
10
68.4811019897461
20
72.7931976318359
40
0.0
41
0.0
42
0.0
10
68.3740005493164
20
72.7811965942383
40
0.0
41
0.0
42
0.0
10
68.013298034668
20
72.9741973876953
40
0.0
41
0.0
42
0.0
10
68.0059967041016
20
72.9751968383789
40
0.0
41
0.0
42
0.0
10
67.9655990600586
20
73.0015029907227
40
0.0
41
0.0
42
0.0
10
67.6397018432617
20
73.1569976806641
40
0.0
41
0.0
42
0.0
10
67.6047973632812
20
73.1725997924805
40
0.0
41
0.0
42
0.0
10
67.5155029296875
20
73.1826019287109
40
0.0
41
0.0
42
0.0
10
67.4158020019531
20
73.2148971557617
40
0.0
41
0.0
42
0.0
10
67.0091018676758
20
73.4772033691406
40
0.0
41
0.0
42
0.0
10
66.909797668457
20
73.5324020385742
40
0.0
41
0.0
42
0.0
10
66.502197265625
20
73.894401550293
40
0.0
41
0.0
42
0.0
10
66.4102020263672
20
73.9782028198242
40
0.0
41
0.0
42
0.0
10
66.3827972412109
20
74.0072021484375
40
0.0
41
0.0
42
0.0
10
66.216796875
20
74.2855987548828
40
0.0
41
0.0
42
0.0
10
66.0673980712891
20
74.5118026733398
40
0.0
41
0.0
42
0.0
10
65.999397277832
20
74.8588027954102
40
0.0
41
0.0
42
0.0
10
65.972900390625
20
74.9770965576172
40
0.0
41
0.0
42
0.0
10
65.9719009399414
20
74.9905014038086
40
0.0
41
0.0
42
0.0
10
65.9997024536133
20
75.0817031860352
40
0.0
41
0.0
42
0.0
210
0.0
220
0.0
230
1.0
0
LWPOLYLINE
5
26
330
1C
100
AcDbEntity
67
0
8
0
62
256
6
ByLayer
370
-1
48
1.0
60
0
100
AcDbPolyline
90
282
70
1
38
0.0
39
0.0
10
70.4338989257812
20
72.9921035766602
40
0.0
41
0.0
42
0.0
10
70.4614028930664
20
72.9769973754883
40
0.0
41
0.0
42
0.0
10
70.4915008544922
20
72.9768981933594
40
0.0
41
0.0
42
0.0
10
70.5151977539062
20
72.9872970581055
40
0.0
41
0.0
42
0.0
10
71.0002975463867
20
72.9854965209961
40
0.0
41
0.0
42
0.0
10
71.0242004394531
20
72.9957962036133
40
0.0
41
0.0
42
0.0
10
71.0565032958984
20
73.000602722168
40
0.0
41
0.0
42
0.0
10
71.5171966552734
20
73.094596862793
40
0.0
41
0.0
42
0.0
10
71.7102966308594
20
73.1067962646484
40
0.0
41
0.0
42
0.0
10
72.0130996704102
20
73.19580078125
40
0.0
41
0.0
42
0.0
10
72.1492004394531
20
73.25
40
0.0
41
0.0
42
0.0
10
72.5143966674805
20
73.3143997192383
40
0.0
41
0.0
42
0.0
10
72.6479034423828
20
73.3636016845703
40
0.0
41
0.0
42
0.0
10
72.9384994506836
20
73.4643020629883
40
0.0
41
0.0
42
0.0
10
73.0158004760742
20
73.4996032714844
40
0.0
41
0.0
42
0.0
10
73.1501998901367
20
73.5380020141602
40
0.0
41
0.0
42
0.0
10
73.4931030273438
20
73.6013031005859
40
0.0
41
0.0
42
0.0
10
73.5151977539062
20
73.5839996337891
40
0.0
41
0.0
42
0.0
10
73.6071014404297
20
73.4922027587891
40
0.0
41
0.0
42
0.0
10
73.592399597168
20
73.3816986083984
40
0.0
41
0.0
42
0.0
10
73.5248031616211
20
73.0150985717773
40
0.0
41
0.0
42
0.0
10
73.4999008178711
20
72.9297027587891
40
0.0
41
0.0
42
0.0
10
73.3983993530273
20
72.6369018554688
40
0.0
41
0.0
42
0.0
10
73.3442993164062
20
72.5126037597656
40
0.0
41
0.0
42
0.0
10
73.3022994995117
20
72.379997253418
40
0.0
41
0.0
42
0.0
10
73.2385025024414
20
72.0175018310547
40
0.0
41
0.0
42
0.0
10
73.2153015136719
20
71.6504974365234
40
0.0
41
0.0
42
0.0
10
73.1753005981445
20
71.5445022583008
40
0.0
41
0.0
42
0.0
10
73.155403137207
20
71.5137023925781
40
0.0
41
0.0
42
0.0
10
73.1552963256836
20
71.4837036132812
40
0.0
41
0.0
42
0.0
10
73.2664031982422
20
71.1845016479492
40
0.0
41
0.0
42
0.0
10
73.0876007080078
20
71.011100769043
40
0.0
41
0.0
42
0.0
10
73.0875015258789
20
70.9908981323242
40
0.0
41
0.0
42
0.0
10
73.0943984985352
20
70.9860992431641
40
0.0
41
0.0
42
0.0
10
73.4881973266602
20
70.6205978393555
40
0.0
41
0.0
42
0.0
10
73.5072021484375
20
70.6205978393555
40
0.0
41
0.0
42
0.0
10
73.6104965209961
20
70.8182983398438
40
0.0
41
0.0
42
0.0
10
73.6575012207031
20
70.9031982421875
40
0.0
41
0.0
42
0.0
10
73.7108993530273
20
70.9928970336914
40
0.0
41
0.0
42
0.0
10
74.0029983520508
20
71.2873992919922
40
0.0
41
0.0
42
0.0
10
74.0399017333984
20
71.3537979125977
40
0.0
41
0.0
42
0.0
10
74.0913009643555
20
71.4889984130859
40
0.0
41
0.0
42
0.0
10
74.3050003051758
20
71.8546981811523
40
0.0
41
0.0
42
0.0
10
74.3675994873047
20
71.9904022216797
40
0.0
41
0.0
42
0.0
10
74.502799987793
20
72.1860961914062
40
0.0
41
0.0
42
0.0
10
74.6242980957031
20
72.3559036254883
40
0.0
41
0.0
42
0.0
10
74.6927032470703
20
72.4897003173828
40
0.0
41
0.0
42
0.0
10
74.888298034668
20
72.8535995483398
40
0.0
41
0.0
42
0.0
10
74.936897277832
20
72.9862976074219
40
0.0
41
0.0
42
0.0
10
74.9439010620117
20
73.0121994018555
40
0.0
41
0.0
42
0.0
10
74.9918975830078
20
73.1560974121094
40
0.0
41
0.0
42
0.0
10
75.0081024169922
20
73.1560974121094
40
0.0
41
0.0
42
0.0
10
75.0640029907227
20
72.9880981445312
40
0.0
41
0.0
42
0.0
10
75.1327972412109
20
72.8546981811523
40
0.0
41
0.0
42
0.0
10
75.3283996582031
20
72.4909973144531
40
0.0
41
0.0
42
0.0
10
75.4977035522461
20
72.2537994384766
40
0.0
41
0.0
42
0.0
10
75.5282974243164
20
72.1969985961914
40
0.0
41
0.0
42
0.0
10
75.6709976196289
20
71.9901962280273
40
0.0
41
0.0
42
0.0
10
75.7313995361328
20
71.8544998168945
40
0.0
41
0.0
42
0.0
10
75.9542999267578
20
71.4713973999023
40
0.0
41
0.0
42
0.0
10
75.9984970092773
20
71.3666000366211
40
0.0
41
0.0
42
0.0
10
76.0157012939453
20
71.3403015136719
40
0.0
41
0.0
42
0.0
10
76.3610000610352
20
70.9919967651367
40
0.0
41
0.0
42
0.0
10
76.4226989746094
20
70.8544998168945
40
0.0
41
0.0
42
0.0
10
76.4437026977539
20
70.8175964355469
40
0.0
41
0.0
42
0.0
10
76.493896484375
20
70.6978988647461
40
0.0
41
0.0
42
0.0
10
76.5133972167969
20
70.6977996826172
40
0.0
41
0.0
42
0.0
10
76.5404968261719
20
70.7164993286133
40
0.0
41
0.0
42
0.0
10
76.9672012329102
20
70.9595031738281
40
0.0
41
0.0
42
0.0
10
76.9716033935547
20
70.4931030273438
40
0.0
41
0.0
42
0.0
10
76.9893035888672
20
70.4843978881836
40
0.0
41
0.0
42
0.0
10
76.9977035522461
20
70.4338989257812
40
0.0
41
0.0
42
0.0
10
77.0027008056641
20
70.4337997436523
40
0.0
41
0.0
42
0.0
10
77.0122985839844
20
70.4821014404297
40
0.0
41
0.0
42
0.0
10
77.0141983032227
20
71.0002975463867
40
0.0
41
0.0
42
0.0
10
77.0038986206055
20
71.0242004394531
40
0.0
41
0.0
42
0.0
10
76.9991989135742
20
71.0565032958984
40
0.0
41
0.0
42
0.0
10
76.9050979614258
20
71.5171966552734
40
0.0
41
0.0
42
0.0
10
76.8928985595703
20
71.7102966308594
40
0.0
41
0.0
42
0.0
10
76.8039016723633
20
72.0130996704102
40
0.0
41
0.0
42
0.0
10
76.7497024536133
20
72.1492004394531
40
0.0
41
0.0
42
0.0
10
76.685302734375
20
72.5143966674805
40
0.0
41
0.0
42
0.0
10
76.636100769043
20
72.6479034423828
40
0.0
41
0.0
42
0.0
10
76.5353012084961
20
72.9384994506836
40
0.0
41
0.0
42
0.0
10
76.5001983642578
20
73.0158004760742
40
0.0
41
0.0
42
0.0
10
76.4617004394531
20
73.1501007080078
40
0.0
41
0.0
42
0.0
10
76.3984985351562
20
73.4932022094727
40
0.0
41
0.0
42
0.0
10
76.415901184082
20
73.5152969360352
40
0.0
41
0.0
42
0.0
10
76.507698059082
20
73.6071014404297
40
0.0
41
0.0
42
0.0
10
76.6182022094727
20
73.5923004150391
40
0.0
41
0.0
42
0.0
10
76.9848022460938
20
73.5246963500977
40
0.0
41
0.0
42
0.0
10
77.0700988769531
20
73.4999008178711
40
0.0
41
0.0
42
0.0
10
77.3628997802734
20
73.3983993530273
40
0.0
41
0.0
42
0.0
10
77.4872970581055
20
73.3442993164062
40
0.0
41
0.0
42
0.0
10
77.6199035644531
20
73.3022994995117
40
0.0
41
0.0
42
0.0
10
77.9823989868164
20
73.2385025024414
40
0.0
41
0.0
42
0.0
10
78.3494033813477
20
73.2153015136719
40
0.0
41
0.0
42
0.0
10
78.4552001953125
20
73.1752014160156
40
0.0
41
0.0
42
0.0
10
78.4860992431641
20
73.155403137207
40
0.0
41
0.0
42
0.0
10
78.5161972045898
20
73.1552963256836
40
0.0
41
0.0
42
0.0
10
78.815299987793
20
73.2662963867188
40
0.0
41
0.0
42
0.0
10
78.9888000488281
20
73.0876007080078
40
0.0
41
0.0
42
0.0
10
79.008903503418
20
73.0876007080078
40
0.0
41
0.0
42
0.0
10
79.0137023925781
20
73.0943984985352
40
0.0
41
0.0
42
0.0
10
79.3793029785156
20
73.4881973266602
40
0.0
41
0.0
42
0.0
10
79.3792037963867
20
73.5074005126953
40
0.0
41
0.0
42
0.0
10
79.0072021484375
20
73.7106018066406
40
0.0
41
0.0
42
0.0
10
78.71240234375
20
74.0028991699219
40
0.0
41
0.0
42
0.0
10
78.6460037231445
20
74.0399017333984
40
0.0
41
0.0
42
0.0
10
78.5108032226562
20
74.0913009643555
40
0.0
41
0.0
42
0.0
10
78.1452026367188
20
74.3050003051758
40
0.0
41
0.0
42
0.0
10
78.0094985961914
20
74.3675994873047
40
0.0
41
0.0
42
0.0
10
77.8135986328125
20
74.5027008056641
40
0.0
41
0.0
42
0.0
10
77.6439971923828
20
74.6241989135742
40
0.0
41
0.0
42
0.0
10
77.5102005004883
20
74.6925964355469
40
0.0
41
0.0
42
0.0
10
77.1463012695312
20
74.888298034668
40
0.0
41
0.0
42
0.0
10
77.0136032104492
20
74.936897277832
40
0.0
41
0.0
42
0.0
10
76.9876022338867
20
74.9438018798828
40
0.0
41
0.0
42
0.0
10
76.8438034057617
20
74.9918975830078
40
0.0
41
0.0
42
0.0
10
76.8438034057617
20
75.0081024169922
40
0.0
41
0.0
42
0.0
10
77.0118026733398
20
75.0640029907227
40
0.0
41
0.0
42
0.0
10
77.1452026367188
20
75.1328964233398
40
0.0
41
0.0
42
0.0
10
77.5087966918945
20
75.3283996582031
40
0.0
41
0.0
42
0.0
10
77.7461013793945
20
75.497802734375
40
0.0
41
0.0
42
0.0
10
77.8028030395508
20
75.5283966064453
40
0.0
41
0.0
42
0.0
10
78.0096969604492
20
75.6709976196289
40
0.0
41
0.0
42
0.0
10
78.1454010009766
20
75.7314987182617
40
0.0
41
0.0
42
0.0
10
78.5283966064453
20
75.9542999267578
40
0.0
41
0.0
42
0.0
10
78.6332015991211
20
75.9984970092773
40
0.0
41
0.0
42
0.0
10
78.6595001220703
20
76.0158004760742
40
0.0
41
0.0
42
0.0
10
79.0078964233398
20
76.3610000610352
40
0.0
41
0.0
42
0.0
10
79.1454010009766
20
76.4226989746094
40
0.0
41
0.0
42
0.0
10
79.1821975708008
20
76.4437026977539
40
0.0
41
0.0
42
0.0
10
79.302001953125
20
76.493896484375
40
0.0
41
0.0
42
0.0
10
79.302001953125
20
76.5133972167969
40
0.0
41
0.0
42
0.0
10
79.283203125
20
76.540397644043
40
0.0
41
0.0
42
0.0
10
79.0402984619141
20
76.9672012329102
40
0.0
41
0.0
42
0.0
10
79.5155029296875
20
76.9717025756836
40
0.0
41
0.0
42
0.0
10
79.5660018920898
20
76.9936981201172
40
0.0
41
0.0
42
0.0
10
79.5659027099609
20
77.0075988769531
40
0.0
41
0.0
42
0.0
10
79.5383987426758
20
77.0229034423828
40
0.0
41
0.0
42
0.0
10
79.5083999633789
20
77.0229034423828
40
0.0
41
0.0
42
0.0
10
79.4848022460938
20
77.0123977661133
40
0.0
41
0.0
42
0.0
10
78.9994964599609
20
77.0142974853516
40
0.0
41
0.0
42
0.0
10
78.9756011962891
20
77.0039978027344
40
0.0
41
0.0
42
0.0
10
78.9432983398438
20
76.9991989135742
40
0.0
41
0.0
42
0.0
10
78.4826965332031
20
76.9050979614258
40
0.0
41
0.0
42
0.0
10
78.2894973754883
20
76.8928985595703
40
0.0
41
0.0
42
0.0
10
77.9868011474609
20
76.8039016723633
40
0.0
41
0.0
42
0.0
10
77.850700378418
20
76.7497024536133
40
0.0
41
0.0
42
0.0
10
77.4854965209961
20
76.685302734375
40
0.0
41
0.0
42
0.0
10
77.3519973754883
20
76.636100769043
40
0.0
41
0.0
42
0.0
10
77.0613021850586
20
76.535400390625
40
0.0
41
0.0
42
0.0
10
76.984001159668
20
76.5001983642578
40
0.0
41
0.0
42
0.0
10
76.8498001098633
20
76.4617004394531
40
0.0
41
0.0
42
0.0
10
76.5067977905273
20
76.3984985351562
40
0.0
41
0.0
42
0.0
10
76.4844970703125
20
76.4157028198242
40
0.0
41
0.0
42
0.0
10
76.393798828125
20
76.5066986083984
40
0.0
41
0.0
42
0.0
10
76.4565963745117
20
76.8482971191406
40
0.0
41
0.0
42
0.0
10
76.4748001098633
20
76.9842987060547
40
0.0
41
0.0
42
0.0
10
76.4999008178711
20
77.0700988769531
40
0.0
41
0.0
42
0.0
10
76.6014022827148
20
77.3628997802734
40
0.0
41
0.0
42
0.0
10
76.6549987792969
20
77.4860992431641
40
0.0
41
0.0
42
0.0
10
76.7190017700195
20
77.8499984741211
40
0.0
41
0.0
42
0.0
10
76.7612991333008
20
77.9838027954102
40
0.0
41
0.0
42
0.0
10
76.7844009399414
20
78.3494033813477
40
0.0
41
0.0
42
0.0
10
76.8245010375977
20
78.4552993774414
40
0.0
41
0.0
42
0.0
10
76.8444976806641
20
78.4860992431641
40
0.0
41
0.0
42
0.0
10
76.8443984985352
20
78.5161972045898
40
0.0
41
0.0
42
0.0
10
76.7333984375
20
78.815299987793
40
0.0
41
0.0
42
0.0
10
76.9123001098633
20
78.9888000488281
40
0.0
41
0.0
42
0.0
10
76.9122009277344
20
79.008903503418
40
0.0
41
0.0
42
0.0
10
76.905403137207
20
79.0136032104492
40
0.0
41
0.0
42
0.0
10
76.5117034912109
20
79.3793029785156
40
0.0
41
0.0
42
0.0
10
76.4925994873047
20
79.3793029785156
40
0.0
41
0.0
42
0.0
10
76.3683013916016
20
79.1447982788086
40
0.0
41
0.0
42
0.0
10
76.2890014648438
20
79.0071029663086
40
0.0
41
0.0
42
0.0
10
75.9969024658203
20
78.71240234375
40
0.0
41
0.0
42
0.0
10
75.9598007202148
20
78.6461029052734
40
0.0
41
0.0
42
0.0
10
75.9084014892578
20
78.5109024047852
40
0.0
41
0.0
42
0.0
10
75.6947021484375
20
78.1453018188477
40
0.0
41
0.0
42
0.0
10
75.6321029663086
20
78.0094985961914
40
0.0
41
0.0
42
0.0
10
75.4971008300781
20
77.8136978149414
40
0.0
41
0.0
42
0.0
10
75.3755035400391
20
77.6439971923828
40
0.0
41
0.0
42
0.0
10
75.3078002929688
20
77.5114974975586
40
0.0
41
0.0
42
0.0
10
75.2582015991211
20
77.3762969970703
40
0.0
41
0.0
42
0.0
10
75.0624008178711
20
77.0121994018555
40
0.0
41
0.0
42
0.0
10
75.0559005737305
20
76.9876022338867
40
0.0
41
0.0
42
0.0
10
75.0080032348633
20
76.8438034057617
40
0.0
41
0.0
42
0.0
10
74.9917984008789
20
76.8438034057617
40
0.0
41
0.0
42
0.0
10
74.9358978271484
20
77.0115966796875
40
0.0
41
0.0
42
0.0
10
74.7403030395508
20
77.3750991821289
40
0.0
41
0.0
42
0.0
10
74.6713027954102
20
77.5090026855469
40
0.0
41
0.0
42
0.0
10
74.5020980834961
20
77.7460021972656
40
0.0
41
0.0
42
0.0
10
74.4713973999023
20
77.8026962280273
40
0.0
41
0.0
42
0.0
10
74.3293991088867
20
78.0085983276367
40
0.0
41
0.0
42
0.0
10
74.1150970458984
20
78.3752975463867
40
0.0
41
0.0
42
0.0
10
74.054801940918
20
78.5106964111328
40
0.0
41
0.0
42
0.0
10
74.0451965332031
20
78.5287017822266
40
0.0
41
0.0
42
0.0
10
74.0012969970703
20
78.6331024169922
40
0.0
41
0.0
42
0.0
10
73.984001159668
20
78.6594009399414
40
0.0
41
0.0
42
0.0
10
73.6387023925781
20
79.0078964233398
40
0.0
41
0.0
42
0.0
10
73.5770034790039
20
79.1454010009766
40
0.0
41
0.0
42
0.0
10
73.5559997558594
20
79.1820983886719
40
0.0
41
0.0
42
0.0
10
73.5059967041016
20
79.302001953125
40
0.0
41
0.0
42
0.0
10
73.4865036010742
20
79.302001953125
40
0.0
41
0.0
42
0.0
10
73.4592971801758
20
79.2833023071289
40
0.0
41
0.0
42
0.0
10
73.0325012207031
20
79.0401000976562
40
0.0
41
0.0
42
0.0
10
73.0281982421875
20
79.5066986083984
40
0.0
41
0.0
42
0.0
10
73.0103988647461
20
79.5151977539062
40
0.0
41
0.0
42
0.0
10
73.0020980834961
20
79.5660018920898
40
0.0
41
0.0
42
0.0
10
72.9971008300781
20
79.5660018920898
40
0.0
41
0.0
42
0.0
10
72.9873962402344
20
79.5177993774414
40
0.0
41
0.0
42
0.0
10
72.9853973388672
20
78.9994964599609
40
0.0
41
0.0
42
0.0
10
72.9956970214844
20
78.9756011962891
40
0.0
41
0.0
42
0.0
10
73.0005035400391
20
78.9432983398438
40
0.0
41
0.0
42
0.0
10
73.094596862793
20
78.4826965332031
40
0.0
41
0.0
42
0.0
10
73.1067962646484
20
78.2894973754883
40
0.0
41
0.0
42
0.0
10
73.19580078125
20
77.9868011474609
40
0.0
41
0.0
42
0.0
10
73.25
20
77.850700378418
40
0.0
41
0.0
42
0.0
10
73.3143997192383
20
77.4853973388672
40
0.0
41
0.0
42
0.0
10
73.3636016845703
20
77.3519973754883
40
0.0
41
0.0
42
0.0
10
73.4643020629883
20
77.0612030029297
40
0.0
41
0.0
42
0.0
10
73.4996032714844
20
76.984001159668
40
0.0
41
0.0
42
0.0
10
73.5380020141602
20
76.8497009277344
40
0.0
41
0.0
42
0.0
10
73.6011962890625
20
76.5067977905273
40
0.0
41
0.0
42
0.0
10
73.5839996337891
20
76.4844970703125
40
0.0
41
0.0
42
0.0
10
73.4932022094727
20
76.3936996459961
40
0.0
41
0.0
42
0.0
10
73.1516036987305
20
76.4565963745117
40
0.0
41
0.0
42
0.0
10
73.0156021118164
20
76.4748001098633
40
0.0
41
0.0
42
0.0
10
72.9296035766602
20
76.4999008178711
40
0.0
41
0.0
42
0.0
10
72.6369018554688
20
76.6013031005859
40
0.0
41
0.0
42
0.0
10
72.513801574707
20
76.6549987792969
40
0.0
41
0.0
42
0.0
10
72.14990234375
20
76.7190017700195
40
0.0
41
0.0
42
0.0
10
72.0160980224609
20
76.7612991333008
40
0.0
41
0.0
42
0.0
10
71.6504974365234
20
76.7844009399414
40
0.0
41
0.0
42
0.0
10
71.5445022583008
20
76.8244018554688
40
0.0
41
0.0
42
0.0
10
71.5137023925781
20
76.8444976806641
40
0.0
41
0.0
42
0.0
10
71.4837036132812
20
76.8443984985352
40
0.0
41
0.0
42
0.0
10
71.1845016479492
20
76.7332992553711
40
0.0
41
0.0
42
0.0
10
71.011100769043
20
76.9123001098633
40
0.0
41
0.0
42
0.0
10
70.9908981323242
20
76.9123001098633
40
0.0
41
0.0
42
0.0
10
70.9860992431641
20
76.905403137207
40
0.0
41
0.0
42
0.0
10
70.6205978393555
20
76.5117034912109
40
0.0
41
0.0
42
0.0
10
70.6204986572266
20
76.4926986694336
40
0.0
41
0.0
42
0.0
10
70.8182983398438
20
76.3892974853516
40
0.0
41
0.0
42
0.0
10
70.9031982421875
20
76.3422012329102
40
0.0
41
0.0
42
0.0
10
70.9928970336914
20
76.2888031005859
40
0.0
41
0.0
42
0.0
10
71.2873992919922
20
75.9968032836914
40
0.0
41
0.0
42
0.0
10
71.3537979125977
20
75.9598007202148
40
0.0
41
0.0
42
0.0
10
71.4889984130859
20
75.9084014892578
40
0.0
41
0.0
42
0.0
10
71.8545989990234
20
75.6947021484375
40
0.0
41
0.0
42
0.0
10
71.9903030395508
20
75.6321029663086
40
0.0
41
0.0
42
0.0
10
72.1860961914062
20
75.4971008300781
40
0.0
41
0.0
42
0.0
10
72.3557968139648
20
75.3753967285156
40
0.0
41
0.0
42
0.0
10
72.4884033203125
20
75.3078002929688
40
0.0
41
0.0
42
0.0
10
72.6234970092773
20
75.2582015991211
40
0.0
41
0.0
42
0.0
10
72.9877014160156
20
75.0624008178711
40
0.0
41
0.0
42
0.0
10
73.0121994018555
20
75.0558013916016
40
0.0
41
0.0
42
0.0
10
73.1560974121094
20
75.0080032348633
40
0.0
41
0.0
42
0.0
10
73.1560974121094
20
74.9917984008789
40
0.0
41
0.0
42
0.0
10
72.9882965087891
20
74.9358978271484
40
0.0
41
0.0
42
0.0
10
72.6248016357422
20
74.7404022216797
40
0.0
41
0.0
42
0.0
10
72.4908981323242
20
74.6713027954102
40
0.0
41
0.0
42
0.0
10
72.2538986206055
20
74.5020980834961
40
0.0
41
0.0
42
0.0
10
72.1969985961914
20
74.4713973999023
40
0.0
41
0.0
42
0.0
10
71.9912033081055
20
74.3293991088867
40
0.0
41
0.0
42
0.0
10
71.6244964599609
20
74.1150970458984
40
0.0
41
0.0
42
0.0
10
71.4891967773438
20
74.054801940918
40
0.0
41
0.0
42
0.0
10
71.4710998535156
20
74.0451965332031
40
0.0
41
0.0
42
0.0
10
71.36669921875
20
74.0012969970703
40
0.0
41
0.0
42
0.0
10
71.3403015136719
20
73.9841003417969
40
0.0
41
0.0
42
0.0
10
70.9919967651367
20
73.638801574707
40
0.0
41
0.0
42
0.0
10
70.8544998168945
20
73.5771026611328
40
0.0
41
0.0
42
0.0
10
70.8177032470703
20
73.5560989379883
40
0.0
41
0.0
42
0.0
10
70.6978988647461
20
73.5059967041016
40
0.0
41
0.0
42
0.0
10
70.6977996826172
20
73.4865036010742
40
0.0
41
0.0
42
0.0
10
70.7164993286133
20
73.4592971801758
40
0.0
41
0.0
42
0.0
10
70.9597015380859
20
73.0325012207031
40
0.0
41
0.0
42
0.0
10
70.4843978881836
20
73.0280990600586
40
0.0
41
0.0
42
0.0
10
70.4338989257812
20
73.0062026977539
40
0.0
41
0.0
42
0.0
10
70.4338989257812
20
72.9921035766602
40
0.0
41
0.0
42
0.0
210
0.0
220
0.0
230
1.0
0
LWPOLYLINE
5
27
330
1C
100
AcDbEntity
67
0
8
0
62
256
6
ByLayer
370
-1
48
1.0
60
0
100
AcDbPolyline
90
247
70
1
38
0.0
39
0.0
10
70.9154968261719
20
73.5604019165039
40
0.0
41
0.0
42
0.0
10
71.0078964233398
20
73.6019973754883
40
0.0
41
0.0
42
0.0
10
71.3917999267578
20
73.9825973510742
40
0.0
41
0.0
42
0.0
10
71.4161987304688
20
73.9984970092773
40
0.0
41
0.0
42
0.0
10
71.491096496582
20
74.0300979614258
40
0.0
41
0.0
42
0.0
10
71.5108032226562
20
74.0404968261719
40
0.0
41
0.0
42
0.0
10
71.6054000854492
20
74.0826034545898
40
0.0
41
0.0
42
0.0
10
72.0086975097656
20
74.3183975219727
40
0.0
41
0.0
42
0.0
10
72.2377014160156
20
74.4763031005859
40
0.0
41
0.0
42
0.0
10
72.2772979736328
20
74.497802734375
40
0.0
41
0.0
42
0.0
10
72.5090026855469
20
74.6629028320312
40
0.0
41
0.0
42
0.0
10
72.6052017211914
20
74.7125015258789
40
0.0
41
0.0
42
0.0
10
73.0115966796875
20
74.9309997558594
40
0.0
41
0.0
42
0.0
10
73.2036972045898
20
74.9951019287109
40
0.0
41
0.0
42
0.0
10
73.2035980224609
20
75.0046997070312
40
0.0
41
0.0
42
0.0
10
73.0115966796875
20
75.0673980712891
40
0.0
41
0.0
42
0.0
10
72.6063003540039
20
75.2853012084961
40
0.0
41
0.0
42
0.0
10
72.5114974975586
20
75.3199996948242
40
0.0
41
0.0
42
0.0
10
72.4140014648438
20
75.3699035644531
40
0.0
41
0.0
42
0.0
10
72.2282028198242
20
75.5027008056641
40
0.0
41
0.0
42
0.0
10
72.0094985961914
20
75.6535034179688
40
0.0
41
0.0
42
0.0
10
71.9151992797852
20
75.6969985961914
40
0.0
41
0.0
42
0.0
10
71.5108032226562
20
75.9332962036133
40
0.0
41
0.0
42
0.0
10
71.4160995483398
20
75.9693984985352
40
0.0
41
0.0
42
0.0
10
71.3554992675781
20
76.0028991699219
40
0.0
41
0.0
42
0.0
10
71.0070037841797
20
76.348503112793
40
0.0
41
0.0
42
0.0
10
70.947998046875
20
76.3834991455078
40
0.0
41
0.0
42
0.0
10
70.8742980957031
20
76.4245986938477
40
0.0
41
0.0
42
0.0
10
70.728401184082
20
76.5009994506836
40
0.0
41
0.0
42
0.0
10
70.9815979003906
20
76.7738037109375
40
0.0
41
0.0
42
0.0
10
71.0008010864258
20
76.8010025024414
40
0.0
41
0.0
42
0.0
10
71.1159973144531
20
76.6821975708008
40
0.0
41
0.0
42
0.0
10
71.1434020996094
20
76.6820983886719
40
0.0
41
0.0
42
0.0
10
71.497200012207
20
76.8134994506836
40
0.0
41
0.0
42
0.0
10
71.5134963989258
20
76.8026962280273
40
0.0
41
0.0
42
0.0
10
71.5793991088867
20
76.7779006958008
40
0.0
41
0.0
42
0.0
10
71.9838027954102
20
76.7522964477539
40
0.0
41
0.0
42
0.0
10
72.0799026489258
20
76.7219009399414
40
0.0
41
0.0
42
0.0
10
72.4860000610352
20
76.6502990722656
40
0.0
41
0.0
42
0.0
10
72.5803985595703
20
76.6097030639648
40
0.0
41
0.0
42
0.0
10
72.8988037109375
20
76.499397277832
40
0.0
41
0.0
42
0.0
10
72.9842987060547
20
76.4747009277344
40
0.0
41
0.0
42
0.0
10
73.0782012939453
20
76.4620971679688
40
0.0
41
0.0
42
0.0
10
73.4819030761719
20
76.3879013061523
40
0.0
41
0.0
42
0.0
10
73.5112991333008
20
76.3879013061523
40
0.0
41
0.0
42
0.0
10
73.6020965576172
20
76.4787979125977
40
0.0
41
0.0
42
0.0
10
73.6087036132812
20
76.4870986938477
40
0.0
41
0.0
42
0.0
10
73.6085968017578
20
76.5179977416992
40
0.0
41
0.0
42
0.0
10
73.5345001220703
20
76.9200973510742
40
0.0
41
0.0
42
0.0
10
73.5001983642578
20
77.0401992797852
40
0.0
41
0.0
42
0.0
10
73.475700378418
20
77.0935974121094
40
0.0
41
0.0
42
0.0
10
73.3632965087891
20
77.4178009033203
40
0.0
41
0.0
42
0.0
10
73.3277969360352
20
77.5143966674805
40
0.0
41
0.0
42
0.0
10
73.2564010620117
20
77.9191970825195
40
0.0
41
0.0
42
0.0
10
73.2190017700195
20
78.0130996704102
40
0.0
41
0.0
42
0.0
10
73.1548004150391
20
78.2315979003906
40
0.0
41
0.0
42
0.0
10
73.1367034912109
20
78.5171966552734
40
0.0
41
0.0
42
0.0
10
73.0651016235352
20
78.8682022094727
40
0.0
41
0.0
42
0.0
10
73.1118011474609
20
78.9944000244141
40
0.0
41
0.0
42
0.0
10
73.4649963378906
20
79.1956024169922
40
0.0
41
0.0
42
0.0
10
73.4982986450195
20
79.2182998657227
40
0.0
41
0.0
42
0.0
10
73.5374984741211
20
79.1247024536133
40
0.0
41
0.0
42
0.0
10
73.5604019165039
20
79.0843963623047
40
0.0
41
0.0
42
0.0
10
73.6018981933594
20
78.9919967651367
40
0.0
41
0.0
42
0.0
10
73.9825973510742
20
78.6079025268555
40
0.0
41
0.0
42
0.0
10
73.9984970092773
20
78.5836029052734
40
0.0
41
0.0
42
0.0
10
74.0300979614258
20
78.5086975097656
40
0.0
41
0.0
42
0.0
10
74.0404968261719
20
78.4890975952148
40
0.0
41
0.0
42
0.0
10
74.0826034545898
20
78.3945007324219
40
0.0
41
0.0
42
0.0
10
74.3182983398438
20
77.9912033081055
40
0.0
41
0.0
42
0.0
10
74.4763031005859
20
77.7621002197266
40
0.0
41
0.0
42
0.0
10
74.4977035522461
20
77.7223968505859
40
0.0
41
0.0
42
0.0
10
74.6629028320312
20
77.4908981323242
40
0.0
41
0.0
42
0.0
10
74.71240234375
20
77.3946990966797
40
0.0
41
0.0
42
0.0
10
74.9309997558594
20
76.9882965087891
40
0.0
41
0.0
42
0.0
10
74.9951019287109
20
76.7962036132812
40
0.0
41
0.0
42
0.0
10
75.0046997070312
20
76.7962036132812
40
0.0
41
0.0
42
0.0
10
75.067497253418
20
76.9881973266602
40
0.0
41
0.0
42
0.0
10
75.285400390625
20
77.3936004638672
40
0.0
41
0.0
42
0.0
10
75.3200988769531
20
77.4884033203125
40
0.0
41
0.0
42
0.0
10
75.370002746582
20
77.5858993530273
40
0.0
41
0.0
42
0.0
10
75.502799987793
20
77.771598815918
40
0.0
41
0.0
42
0.0
10
75.6535034179688
20
77.9904022216797
40
0.0
41
0.0
42
0.0
10
75.6969985961914
20
78.0847015380859
40
0.0
41
0.0
42
0.0
10
75.9332962036133
20
78.4890975952148
40
0.0
41
0.0
42
0.0
10
75.9694976806641
20
78.5838012695312
40
0.0
41
0.0
42
0.0
10
76.0029983520508
20
78.6443023681641
40
0.0
41
0.0
42
0.0
10
76.3483963012695
20
78.9927978515625
40
0.0
41
0.0
42
0.0
10
76.4017028808594
20
79.0850982666016
40
0.0
41
0.0
42
0.0
10
76.5002975463867
20
79.2718963623047
40
0.0
41
0.0
42
0.0
10
76.7736968994141
20
79.0182037353516
40
0.0
41
0.0
42
0.0
10
76.8013000488281
20
78.9992980957031
40
0.0
41
0.0
42
0.0
10
76.6821975708008
20
78.8837966918945
40
0.0
41
0.0
42
0.0
10
76.6820983886719
20
78.8563995361328
40
0.0
41
0.0
42
0.0
10
76.8134994506836
20
78.5027008056641
40
0.0
41
0.0
42
0.0
10
76.8028030395508
20
78.4862976074219
40
0.0
41
0.0
42
0.0
10
76.7779006958008
20
78.4205017089844
40
0.0
41
0.0
42
0.0
10
76.7522964477539
20
78.0160980224609
40
0.0
41
0.0
42
0.0
10
76.7219009399414
20
77.9199981689453
40
0.0
41
0.0
42
0.0
10
76.6502990722656
20
77.5139007568359
40
0.0
41
0.0
42
0.0
10
76.6097030639648
20
77.4194030761719
40
0.0
41
0.0
42
0.0
10
76.499397277832
20
77.1009979248047
40
0.0
41
0.0
42
0.0
10
76.4747009277344
20
77.0156021118164
40
0.0
41
0.0
42
0.0
10
76.4621963500977
20
76.9216995239258
40
0.0
41
0.0
42
0.0
10
76.3879013061523
20
76.5179977416992
40
0.0
41
0.0
42
0.0
10
76.3878021240234
20
76.4886016845703
40
0.0
41
0.0
42
0.0
10
76.4786987304688
20
76.3975982666016
40
0.0
41
0.0
42
0.0
10
76.4870986938477
20
76.3911972045898
40
0.0
41
0.0
42
0.0
10
76.5179977416992
20
76.3910980224609
40
0.0
41
0.0
42
0.0
10
76.9201965332031
20
76.465202331543
40
0.0
41
0.0
42
0.0
10
77.0401992797852
20
76.4997024536133
40
0.0
41
0.0
42
0.0
10
77.0935974121094
20
76.5240020751953
40
0.0
41
0.0
42
0.0
10
77.4179000854492
20
76.6362991333008
40
0.0
41
0.0
42
0.0
10
77.5145034790039
20
76.6719970703125
40
0.0
41
0.0
42
0.0
10
77.9191970825195
20
76.7434005737305
40
0.0
41
0.0
42
0.0
10
78.0130996704102
20
76.7807006835938
40
0.0
41
0.0
42
0.0
10
78.2315979003906
20
76.8449020385742
40
0.0
41
0.0
42
0.0
10
78.5171966552734
20
76.8629989624023
40
0.0
41
0.0
42
0.0
10
78.8682022094727
20
76.9346008300781
40
0.0
41
0.0
42
0.0
10
78.9944000244141
20
76.8879013061523
40
0.0
41
0.0
42
0.0
10
79.1955032348633
20
76.534797668457
40
0.0
41
0.0
42
0.0
10
79.2185974121094
20
76.5016021728516
40
0.0
41
0.0
42
0.0
10
79.1248016357422
20
76.4621963500977
40
0.0
41
0.0
42
0.0
10
79.0845031738281
20
76.4393005371094
40
0.0
41
0.0
42
0.0
10
78.9919967651367
20
76.3977966308594
40
0.0
41
0.0
42
0.0
10
78.6080017089844
20
76.0173034667969
40
0.0
41
0.0
42
0.0
10
78.5837020874023
20
76.0012969970703
40
0.0
41
0.0
42
0.0
10
78.5087966918945
20
75.9697036743164
40
0.0
41
0.0
42
0.0
10
78.4901962280273
20
75.9598007202148
40
0.0
41
0.0
42
0.0
10
78.0845031738281
20
75.7227020263672
40
0.0
41
0.0
42
0.0
10
77.9903030395508
20
75.6808013916016
40
0.0
41
0.0
42
0.0
10
77.7621002197266
20
75.5233993530273
40
0.0
41
0.0
42
0.0
10
77.7223968505859
20
75.5020980834961
40
0.0
41
0.0
42
0.0
10
77.491096496582
20
75.3369979858398
40
0.0
41
0.0
42
0.0
10
77.0847015380859
20
75.1185989379883
40
0.0
41
0.0
42
0.0
10
76.9881973266602
20
75.0687026977539
40
0.0
41
0.0
42
0.0
10
76.7962036132812
20
75.0047988891602
40
0.0
41
0.0
42
0.0
10
76.7960968017578
20
74.9951019287109
40
0.0
41
0.0
42
0.0
10
76.9674987792969
20
74.9380035400391
40
0.0
41
0.0
42
0.0
10
76.9862976074219
20
74.9329986572266
40
0.0
41
0.0
42
0.0
10
77.0835037231445
20
74.8973007202148
40
0.0
41
0.0
42
0.0
10
77.4860992431641
20
74.6808013916016
40
0.0
41
0.0
42
0.0
10
77.5858993530273
20
74.6297988891602
40
0.0
41
0.0
42
0.0
10
77.771598815918
20
74.4971008300781
40
0.0
41
0.0
42
0.0
10
77.9903030395508
20
74.3461990356445
40
0.0
41
0.0
42
0.0
10
78.084602355957
20
74.3026962280273
40
0.0
41
0.0
42
0.0
10
78.4889984130859
20
74.0663986206055
40
0.0
41
0.0
42
0.0
10
78.5838012695312
20
74.0302963256836
40
0.0
41
0.0
42
0.0
10
78.6442031860352
20
73.9969024658203
40
0.0
41
0.0
42
0.0
10
78.9925994873047
20
73.651496887207
40
0.0
41
0.0
42
0.0
10
79.2716979980469
20
73.4992980957031
40
0.0
41
0.0
42
0.0
10
79.0183029174805
20
73.2260971069336
40
0.0
41
0.0
42
0.0
10
78.9992980957031
20
73.1984024047852
40
0.0
41
0.0
42
0.0
10
78.8837966918945
20
73.3177032470703
40
0.0
41
0.0
42
0.0
10
78.8563995361328
20
73.3175964355469
40
0.0
41
0.0
42
0.0
10
78.5027008056641
20
73.1863021850586
40
0.0
41
0.0
42
0.0
10
78.4862976074219
20
73.1968994140625
40
0.0
41
0.0
42
0.0
10
78.4205017089844
20
73.2218017578125
40
0.0
41
0.0
42
0.0
10
78.0175018310547
20
73.2472991943359
40
0.0
41
0.0
42
0.0
10
77.6099014282227
20
73.3190994262695
40
0.0
41
0.0
42
0.0
10
77.5126037597656
20
73.3498992919922
40
0.0
41
0.0
42
0.0
10
77.4245986938477
20
73.3881988525391
40
0.0
41
0.0
42
0.0
10
77.1024017333984
20
73.4999008178711
40
0.0
41
0.0
42
0.0
10
77.0150985717773
20
73.5251007080078
40
0.0
41
0.0
42
0.0
10
76.6116027832031
20
73.5995025634766
40
0.0
41
0.0
42
0.0
10
76.5186004638672
20
73.6119995117188
40
0.0
41
0.0
42
0.0
10
76.4886016845703
20
73.6119003295898
40
0.0
41
0.0
42
0.0
10
76.3975982666016
20
73.5210037231445
40
0.0
41
0.0
42
0.0
10
76.3911972045898
20
73.5127029418945
40
0.0
41
0.0
42
0.0
10
76.3910980224609
20
73.4819030761719
40
0.0
41
0.0
42
0.0
10
76.465202331543
20
73.0796966552734
40
0.0
41
0.0
42
0.0
10
76.4997024536133
20
72.9595031738281
40
0.0
41
0.0
42
0.0
10
76.5240020751953
20
72.9060974121094
40
0.0
41
0.0
42
0.0
10
76.6362991333008
20
72.5820007324219
40
0.0
41
0.0
42
0.0
10
76.6719970703125
20
72.4853973388672
40
0.0
41
0.0
42
0.0
10
76.7433013916016
20
72.0807037353516
40
0.0
41
0.0
42
0.0
10
76.7807006835938
20
71.9868011474609
40
0.0
41
0.0
42
0.0
10
76.8449020385742
20
71.7682037353516
40
0.0
41
0.0
42
0.0
10
76.8628997802734
20
71.4826965332031
40
0.0
41
0.0
42
0.0
10
76.9346008300781
20
71.1315994262695
40
0.0
41
0.0
42
0.0
10
76.8880004882812
20
71.005500793457
40
0.0
41
0.0
42
0.0
10
76.534797668457
20
70.8042984008789
40
0.0
41
0.0
42
0.0
10
76.5016021728516
20
70.7810974121094
40
0.0
41
0.0
42
0.0
10
76.4621963500977
20
70.8750991821289
40
0.0
41
0.0
42
0.0
10
76.4393005371094
20
70.915397644043
40
0.0
41
0.0
42
0.0
10
76.3977966308594
20
71.0077972412109
40
0.0
41
0.0
42
0.0
10
76.0171966552734
20
71.3917999267578
40
0.0
41
0.0
42
0.0
10
76.0012969970703
20
71.4160995483398
40
0.0
41
0.0
42
0.0
10
75.9697036743164
20
71.4909973144531
40
0.0
41
0.0
42
0.0
10
75.9598007202148
20
71.5096969604492
40
0.0
41
0.0
42
0.0
10
75.7227020263672
20
71.9152984619141
40
0.0
41
0.0
42
0.0
10
75.6807022094727
20
72.0095977783203
40
0.0
41
0.0
42
0.0
10
75.5233993530273
20
72.2377014160156
40
0.0
41
0.0
42
0.0
10
75.5020980834961
20
72.2772979736328
40
0.0
41
0.0
42
0.0
10
75.3369979858398
20
72.5087966918945
40
0.0
41
0.0
42
0.0
10
75.1184997558594
20
72.9151000976562
40
0.0
41
0.0
42
0.0
10
75.0693969726562
20
73.0102005004883
40
0.0
41
0.0
42
0.0
10
75.0047988891602
20
73.2036972045898
40
0.0
41
0.0
42
0.0
10
74.9951019287109
20
73.2036972045898
40
0.0
41
0.0
42
0.0
10
74.9328002929688
20
73.0130996704102
40
0.0
41
0.0
42
0.0
10
74.8973007202148
20
72.9162979125977
40
0.0
41
0.0
42
0.0
10
74.6790008544922
20
72.5102005004883
40
0.0
41
0.0
42
0.0
10
74.6297988891602
20
72.4140014648438
40
0.0
41
0.0
42
0.0
10
74.4971008300781
20
72.2282028198242
40
0.0
41
0.0
42
0.0
10
74.3461990356445
20
72.0094985961914
40
0.0
41
0.0
42
0.0
10
74.3028030395508
20
71.9151992797852
40
0.0
41
0.0
42
0.0
10
74.0663986206055
20
71.5109024047852
40
0.0
41
0.0
42
0.0
10
74.0302963256836
20
71.4160995483398
40
0.0
41
0.0
42
0.0
10
73.9969024658203
20
71.3554992675781
40
0.0
41
0.0
42
0.0
10
73.6512985229492
20
71.0070037841797
40
0.0
41
0.0
42
0.0
10
73.6162033081055
20
70.9480972290039
40
0.0
41
0.0
42
0.0
10
73.5752029418945
20
70.874397277832
40
0.0
41
0.0
42
0.0
10
73.4989013671875
20
70.7283020019531
40
0.0
41
0.0
42
0.0
10
73.2259979248047
20
70.9815979003906
40
0.0
41
0.0
42
0.0
10
73.1986999511719
20
71.0007019042969
40
0.0
41
0.0
42
0.0
10
73.3177032470703
20
71.1159973144531
40
0.0
41
0.0
42
0.0
10
73.3175964355469
20
71.1434020996094
40
0.0
41
0.0
42
0.0
10
73.1862030029297
20
71.497200012207
40
0.0
41
0.0
42
0.0
10
73.1969985961914
20
71.5136032104492
40
0.0
41
0.0
42
0.0
10
73.2219009399414
20
71.5793991088867
40
0.0
41
0.0
42
0.0
10
73.2473983764648
20
71.9823989868164
40
0.0
41
0.0
42
0.0
10
73.3190994262695
20
72.3899993896484
40
0.0
41
0.0
42
0.0
10
73.3498992919922
20
72.4872970581055
40
0.0
41
0.0
42
0.0
10
73.3881988525391
20
72.5753021240234
40
0.0
41
0.0
42
0.0
10
73.4999008178711
20
72.8973999023438
40
0.0
41
0.0
42
0.0
10
73.5251007080078
20
72.9848022460938
40
0.0
41
0.0
42
0.0
10
73.5995025634766
20
73.3881988525391
40
0.0
41
0.0
42
0.0
10
73.6119995117188
20
73.4813003540039
40
0.0
41
0.0
42
0.0
10
73.6119003295898
20
73.5111999511719
40
0.0
41
0.0
42
0.0
10
73.5210037231445
20
73.6020965576172
40
0.0
41
0.0
42
0.0
10
73.5127029418945
20
73.6087036132812
40
0.0
41
0.0
42
0.0
10
73.4819030761719
20
73.6085968017578
40
0.0
41
0.0
42
0.0
10
73.0796966552734
20
73.5345001220703
40
0.0
41
0.0
42
0.0
10
72.9595031738281
20
73.5001983642578
40
0.0
41
0.0
42
0.0
10
72.9061965942383
20
73.475700378418
40
0.0
41
0.0
42
0.0
10
72.5828018188477
20
73.3636016845703
40
0.0
41
0.0
42
0.0
10
72.4853973388672
20
73.3277969360352
40
0.0
41
0.0
42
0.0
10
72.0807037353516
20
73.2564010620117
40
0.0
41
0.0
42
0.0
10
71.9868011474609
20
73.2190017700195
40
0.0
41
0.0
42
0.0
10
71.7682037353516
20
73.1548004150391
40
0.0
41
0.0
42
0.0
10
71.4826965332031
20
73.1368026733398
40
0.0
41
0.0
42
0.0
10
71.1315994262695
20
73.0651016235352
40
0.0
41
0.0
42
0.0
10
71.005500793457
20
73.1118011474609
40
0.0
41
0.0
42
0.0
10
70.80419921875
20
73.4648971557617
40
0.0
41
0.0
42
0.0
10
70.7814025878906
20
73.4982986450195
40
0.0
41
0.0
42
0.0
10
70.8751983642578
20
73.5374984741211
40
0.0
41
0.0
42
0.0
10
70.9154968261719
20
73.5604019165039
40
0.0
41
0.0
42
0.0
210
0.0
220
0.0
230
1.0
0
LWPOLYLINE
5
28
330
1C
100
AcDbEntity
67
0
8
0
62
256
6
ByLayer
370
-1
48
1.0
60
0
100
AcDbPolyline
90
31
70
1
38
0.0
39
0.0
10
82.5210037231445
20
65.0009994506836
40
0.0
41
0.0
42
0.0
10
82.5637969970703
20
65.0864028930664
40
0.0
41
0.0
42
0.0
10
82.784797668457
20
65.4891967773438
40
0.0
41
0.0
42
0.0
10
83.0904998779297
20
65.9919967651367
40
0.0
41
0.0
42
0.0
10
83.3849029541016
20
66.3575973510742
40
0.0
41
0.0
42
0.0
10
83.4380035400391
20
66.4329986572266
40
0.0
41
0.0
42
0.0
10
83.4914016723633
20
66.4943008422852
40
0.0
41
0.0
42
0.0
10
83.6408996582031
20
66.6432037353516
40
0.0
41
0.0
42
0.0
10
84.0798034667969
20
66.9968032836914
40
0.0
41
0.0
42
0.0
10
84.1516036987305
20
67.0460968017578
40
0.0
41
0.0
42
0.0
10
84.508903503418
20
67.2630996704102
40
0.0
41
0.0
42
0.0
10
84.6443023681641
20
67.3479995727539
40
0.0
41
0.0
42
0.0
10
84.9166030883789
20
67.4984970092773
40
0.0
41
0.0
42
0.0
10
84.9990005493164
20
67.5410003662109
40
0.0
41
0.0
42
0.0
10
84.9990005493164
20
67.5532989501953
40
0.0
41
0.0
42
0.0
10
84.9850997924805
20
67.5531997680664
40
0.0
41
0.0
42
0.0
10
84.8846969604492
20
67.5014038085938
40
0.0
41
0.0
42
0.0
10
84.5856018066406
20
67.3361968994141
40
0.0
41
0.0
42
0.0
10
84.4909973144531
20
67.2767028808594
40
0.0
41
0.0
42
0.0
10
84.0953979492188
20
67.0363998413086
40
0.0
41
0.0
42
0.0
10
84.0466995239258
20
67.0030975341797
40
0.0
41
0.0
42
0.0
10
83.588996887207
20
66.6346969604492
40
0.0
41
0.0
42
0.0
10
83.4595031738281
20
66.5055999755859
40
0.0
41
0.0
42
0.0
10
83.4240036010742
20
66.4647979736328
40
0.0
41
0.0
42
0.0
10
83.3869018554688
20
66.4123001098633
40
0.0
41
0.0
42
0.0
10
83.0613021850586
20
66.0077972412109
40
0.0
41
0.0
42
0.0
10
82.7581024169922
20
65.5093994140625
40
0.0
41
0.0
42
0.0
10
82.5425033569336
20
65.1175003051758
40
0.0
41
0.0
42
0.0
10
82.4907989501953
20
65.0149002075195
40
0.0
41
0.0
42
0.0
10
82.4907989501953
20
65.0009994506836
40
0.0
41
0.0
42
0.0
10
82.5210037231445
20
65.0009994506836
40
0.0
41
0.0
42
0.0
210
0.0
220
0.0
230
1.0
0
LWPOLYLINE
5
29
330
1C
100
AcDbEntity
67
0
8
0
62
256
6
ByLayer
370
-1
48
1.0
60
0
100
AcDbPolyline
90
29
70
1
38
0.0
39
0.0
10
82.4465026855469
20
84.9850006103516
40
0.0
41
0.0
42
0.0
10
82.4996032714844
20
84.8824005126953
40
0.0
41
0.0
42
0.0
10
82.6635971069336
20
84.5856018066406
40
0.0
41
0.0
42
0.0
10
82.7229995727539
20
84.4909973144531
40
0.0
41
0.0
42
0.0
10
82.9633026123047
20
84.0952987670898
40
0.0
41
0.0
42
0.0
10
82.996696472168
20
84.0466003417969
40
0.0
41
0.0
42
0.0
10
83.3650970458984
20
83.5888977050781
40
0.0
41
0.0
42
0.0
10
83.4942016601562
20
83.4593963623047
40
0.0
41
0.0
42
0.0
10
83.5350036621094
20
83.4238967895508
40
0.0
41
0.0
42
0.0
10
83.5875015258789
20
83.3869018554688
40
0.0
41
0.0
42
0.0
10
83.9919967651367
20
83.0612030029297
40
0.0
41
0.0
42
0.0
10
84.4904022216797
20
82.7580032348633
40
0.0
41
0.0
42
0.0
10
84.9852981567383
20
82.4907989501953
40
0.0
41
0.0
42
0.0
10
84.9990005493164
20
82.4907989501953
40
0.0
41
0.0
42
0.0
10
84.9989013671875
20
82.5214004516602
40
0.0
41
0.0
42
0.0
10
84.5094985961914
20
82.7854995727539
40
0.0
41
0.0
42
0.0
10
84.0077972412109
20
83.0904998779297
40
0.0
41
0.0
42
0.0
10
83.6423034667969
20
83.3848037719727
40
0.0
41
0.0
42
0.0
10
83.5667037963867
20
83.4378967285156
40
0.0
41
0.0
42
0.0
10
83.505500793457
20
83.4914016723633
40
0.0
41
0.0
42
0.0
10
83.3565979003906
20
83.6408996582031
40
0.0
41
0.0
42
0.0
10
83.0029983520508
20
84.0796966552734
40
0.0
41
0.0
42
0.0
10
82.9535980224609
20
84.1516036987305
40
0.0
41
0.0
42
0.0
10
82.736701965332
20
84.508903503418
40
0.0
41
0.0
42
0.0
10
82.6517028808594
20
84.6443023681641
40
0.0
41
0.0
42
0.0
10
82.5030975341797
20
84.913200378418
40
0.0
41
0.0
42
0.0
10
82.4588012695312
20
84.9990005493164
40
0.0
41
0.0
42
0.0
10
82.4466018676758
20
84.9990005493164
40
0.0
41
0.0
42
0.0
10
82.4465026855469
20
84.9850006103516
40
0.0
41
0.0
42
0.0
210
0.0
220
0.0
230
1.0
0
VIEWPORT
5
2E
330
2A
100
AcDbEntity
67
1
8
0
62
256
6
ByLayer
370
-1
48
1.0
60
0
100
AcDbViewport
10
0.0
20
0.0
30
0.0
40
297.0
41
210.0
68
1
69
1
12
50.0
22
100.0
13
0.0
23
0.0
14
10.0
24
10.0
15
10.0
25
10.0
16
0.0
26
0.0
36
1.0
17
0.0
27
0.0
37
0.0
42
50.0
43
0.0
44
0.0
45
250.0
50
0.0
51
0.0
72
1000
90
819232
110
0.0
120
0.0
130
0.0
111
1.0
121
0.0
131
0.0
112
0.0
122
1.0
132
0.0
0
ENDSEC
0
SECTION
2
OBJECTS
0
DICTIONARY
5
34
330
0
100
AcDbDictionary
280
1
281
1
3
ACAD_GROUP
350
12
3
ACAD_LAYOUT
350
2D
3
ACAD_DGNDEFINITIONS
350
F
3
ACAD_DWFDEFINITIONS
350
10
3
ACAD_PDFDEFINITIONS
350
11
3
ACAD_MLINESTYLE
350
B
3
ACAD_IMAGE_DICT
350
E
3
ACAD_IMAGE_VARS
350
21
0
DICTIONARY
5
12
330
34
100
AcDbDictionary
280
1
281
1
0
DICTIONARY
5
2D
330
34
100
AcDbDictionary
280
1
281
1
3
Model
350
20
3
Layout1
350
2F
0
DICTIONARY
5
F
330
34
100
AcDbDictionary
280
1
281
1
0
DICTIONARY
5
10
330
34
100
AcDbDictionary
280
1
281
1
0
DICTIONARY
5
11
330
34
100
AcDbDictionary
280
1
281
1
0
DICTIONARY
5
B
330
34
100
AcDbDictionary
280
1
281
1
3
Standard
350
1B
0
DICTIONARY
5
E
330
34
100
AcDbDictionary
280
1
281
1
0
DICTIONARY
5
6
330
5
100
AcDbDictionary
280
1
281
1
3
ACAD_LAYERSTATES
360
35
0
DICTIONARY
5
35
330
6
100
AcDbDictionary
280
1
281
1
0
LAYOUT
5
20
330
2D
100
AcDbPlotSettings
1

2
none_device
4
ISO_A4_(210.00_x_297.00_MM)
6

40
7.5
41
20.0
42
7.5
43
20.0
44
210.0
45
297.0
46
0.0
47
0.0
48
0.0
49
0.0
140
0.0
141
0.0
142
1.0
143
1.0
70
11952
72
1
73
1
74
1
7

75
0
76
0
77
2
78
300
147
1.0
148
0.0
149
0.0
100
AcDbLayout
1
Model
71
0
10
-20.0
20
-7.5
11
277.0
21
202.5
12
0.0
22
0.0
32
0.0
14
25.7
24
19.5
34
0.0
15
231.3
25
175.5
35
0.0
146
0.0
13
0.0
23
0.0
33
0.0
16
1.0
26
0.0
36
0.0
17
0.0
27
1.0
37
0.0
76
0
330
1C
0
LAYOUT
5
2F
330
2D
100
AcDbPlotSettings
1

2
none_device
4
ISO_A4_(210.00_x_297.00_MM)
6

40
7.5
41
20.0
42
7.5
43
20.0
44
210.0
45
297.0
46
0.0
47
0.0
48
0.0
49
0.0
140
0.0
141
0.0
142
1.0
143
1.0
70
688
72
1
73
1
74
1
7

75
0
76
0
77
2
78
300
147
1.0
148
0.0
149
0.0
100
AcDbLayout
1
Layout1
71
1
10
-20.0
20
-7.5
11
277.0
21
202.5
12
0.0
22
0.0
32
0.0
14
25.7
24
19.5
34
0.0
15
231.3
25
175.5
35
0.0
146
0.0
13
0.0
23
0.0
33
0.0
16
1.0
26
0.0
36
0.0
17
0.0
27
1.0
37
0.0
76
0
330
2A
0
MLINESTYLE
5
1B
330
B
100
AcDbMlineStyle
2
Standard
70
0
3

62
256
51
90.0
52
90.0
71
2
49
0.5
62
256
6
ByLayer
49
-0.5
62
256
6
ByLayer
0
RASTERVARIABLES
5
21
330
E
100
AcDbRasterVariables
90
0
70
1
71
1
72
0
0
ENDSEC
0
EOF
