999
DXF file generated by netDxf https://github.com/haplokuon/netDxf, Copyright(C) Daniel Carvajal, Licensed under MIT
0
SECTION
2
HEADER
9
$ACADVER
1
AC1015
9
$DWGCODEPAGE
3
ANSI_1252
9
$HANDSEED
5
40
9
$ANGBASE
50
0.0
9
$ANGDIR
70
0
9
$ATTMODE
70
1
9
$AUNITS
70
0
9
$AUPREC
70
0
9
$CECOLOR
62
256
9
$CELTSCALE
40
1.0
9
$CELTYPE
6
ByLayer
9
$CELWEIGHT
370
-1
9
$CLAYER
8
0
9
$CMLJUST
70
0
9
$CMLSCALE
40
20.0
9
$CMLSTYLE
2
Standard
9
$DIMSTYLE
2
Standard
9
$TEXTSIZE
40
2.5
9
$TEXTSTYLE
7
Standard
9
$LUNITS
70
2
9
$LUPREC
70
4
9
$MIRRTEXT
70
0
9
$EXTNAMES
290
1
9
$INSBASE
10
0.0
20
0.0
30
0.0
9
$INSUNITS
70
0
9
$LTSCALE
40
1.0
9
$LWDISPLAY
290
0
9
$PDMODE
70
0
9
$PDSIZE
40
0.0
9
$PLINEGEN
70
0
9
$PSLTSCALE
70
1
9
$SPLINESEGS
70
8
9
$SURFU
70
6
9
$SURFV
70
6
9
$TDCREATE
40
2460823.48362781
9
$TDUCREATE
40
2460823.15029448
9
$TDUPDATE
40
2460823.48362781
9
$TDUUPDATE
40
2460823.15029448
9
$TDINDWG
40
0.0
9
$UCSORG
10
0.0
20
0.0
30
0.0
9
$UCSXDIR
10
1.0
20
0.0
30
0.0
9
$UCSYDIR
10
0.0
20
1.0
30
0.0
9
$DIMADEC
70
0
9
$DIMALT
70
0
9
$DIMALTD
70
2
9
$DIMALTF
40
25.4
9
$DIMALTRND
40
0.0
9
$DIMALTTD
70
2
9
$DIMALTTZ
70
0
9
$DIMALTU
70
2
9
$DIMALTZ
70
0
9
$DIMAPOST
1

9
$DIMATFIT
70
3
9
$DIMAUNIT
70
0
9
$DIMASZ
40
0.18
9
$DIMAZIN
70
0
9
$DIMSAH
70
0
9
$DIMBLK
1

9
$DIMLDRBLK
1

9
$DIMCEN
40
0.09
9
$DIMCLRD
70
0
9
$DIMCLRE
70
0
9
$DIMCLRT
70
0
9
$DIMDEC
70
4
9
$DIMDLE
40
0.0
9
$DIMDLI
40
0.38
9
$DIMDSEP
70
46
9
$DIMEXE
40
0.18
9
$DIMEXO
40
0.0625
9
$DIMFXLON
70
0
9
$DIMFXL
40
1.0
9
$DIMGAP
40
0.09
9
$DIMJUST
70
0
9
$DIMLFAC
40
1.0
9
$DIMLUNIT
70
2
9
$DIMLWD
70
-2
9
$DIMLWE
70
-2
9
$DIMPOST
1

9
$DIMRND
40
0.0
9
$DIMSCALE
40
1.0
9
$DIMSD1
70
0
9
$DIMSD2
70
0
9
$DIMSE1
70
0
9
$DIMSE2
70
0
9
$DIMSOXD
70
0
9
$DIMTAD
70
0
9
$DIMTDEC
70
4
9
$DIMTFAC
40
1.0
9
$DIMTIH
70
0
9
$DIMTIX
70
0
9
$DIMTM
40
0.0
9
$DIMTMOVE
70
0
9
$DIMTOFL
70
0
9
$DIMTOH
70
0
9
$DIMTOL
70
0
9
$DIMLIM
70
0
9
$DIMTOLJ
70
1
9
$DIMTP
40
0.0
9
$DIMTXT
40
0.18
9
$DIMTXTDIRECTION
70
0
9
$DIMTZIN
70
0
9
$DIMZIN
70
0
9
$DIMFRAC
70
0
9
$DIMLTYPE
6
ByBlock
9
$DIMLTEX1
6
ByBlock
9
$DIMLTEX2
6
ByBlock
0
ENDSEC
0
SECTION
2
CLASSES
0
CLASS
1
RASTERVARIABLES
2
AcDbRasterVariables
3
ISM
90
0
280
0
281
0
0
ENDSEC
0
SECTION
2
TABLES
0
TABLE
2
APPID
5
4
330
0
100
AcDbSymbolTable
70
5
0
APPID
5
19
330
4
100
AcDbSymbolTableRecord
100
AcDbRegAppTableRecord
2
ACAD
70
0
0
APPID
5
3A
330
4
100
AcDbSymbolTableRecord
100
AcDbRegAppTableRecord
2
AcCmTransparency
70
0
0
APPID
5
3B
330
4
100
AcDbSymbolTableRecord
100
AcDbRegAppTableRecord
2
AcAecLayerStandard
70
0
0
APPID
5
3C
330
4
100
AcDbSymbolTableRecord
100
AcDbRegAppTableRecord
2
GradientColor1ACI
70
0
0
APPID
5
3D
330
4
100
AcDbSymbolTableRecord
100
AcDbRegAppTableRecord
2
GradientColor2ACI
70
0
0
ENDTAB
0
TABLE
2
VPORT
5
1
330
0
100
AcDbSymbolTable
70
1
0
VPORT
5
2
330
1
100
AcDbSymbolTableRecord
100
AcDbViewportTableRecord
2
*Active
70
0
10
0.0
20
0.0
11
1.0
21
1.0
12
0.0
22
0.0
13
0.0
23
0.0
14
0.5
24
0.5
15
10.0
25
10.0
16
0.0
26
0.0
36
1.0
17
0.0
27
0.0
37
0.0
40
10.0
41
1.0
75
0
76
1
0
ENDTAB
0
TABLE
2
LTYPE
5
7
330
0
100
AcDbSymbolTable
70
3
0
LTYPE
5
15
330
7
100
AcDbSymbolTableRecord
100
AcDbLinetypeTableRecord
2
Continuous
70
0
3
Solid line
72
65
73
0
40
0.0
0
LTYPE
5
16
330
7
100
AcDbSymbolTableRecord
100
AcDbLinetypeTableRecord
2
ByLayer
70
0
3

72
65
73
0
40
0.0
0
LTYPE
5
17
330
7
100
AcDbSymbolTableRecord
100
AcDbLinetypeTableRecord
2
ByBlock
70
0
3

72
65
73
0
40
0.0
0
ENDTAB
0
TABLE
2
LAYER
5
5
102
{ACAD_XDICTIONARY
360
6
102
}
330
0
100
AcDbSymbolTable
70
1
0
LAYER
5
14
330
5
100
AcDbSymbolTableRecord
100
AcDbLayerTableRecord
2
0
70
0
62
7
6
Continuous
290
1
370
-3
390
0
0
ENDTAB
0
TABLE
2
STYLE
5
8
330
0
100
AcDbSymbolTable
70
1
0
STYLE
5
18
330
8
100
AcDbSymbolTableRecord
100
AcDbTextStyleTableRecord
2
Standard
3
simplex.shx
70
0
71
0
40
0.0
41
1.0
42
0.0
50
0.0
0
ENDTAB
0
TABLE
2
DIMSTYLE
5
A
330
0
100
AcDbSymbolTable
70
1
100
AcDbDimStyleTable
0
DIMSTYLE
105
1A
330
A
100
AcDbSymbolTableRecord
100
AcDbDimStyleTableRecord
2
Standard
3

4

40
1.0
41
0.18
42
0.0625
43
0.38
44
0.18
45
0.0
46
0.0
47
0.0
48
0.0
49
1.0
70
0
71
0
72
0
73
0
74
0
75
0
76
0
77
0
78
0
79
0
140
0.18
141
0.09
143
25.4
144
1.0
146
1.0
147
0.09
148
0.0
170
0
171
2
172
0
174
0
175
0
176
0
177
0
178
0
179
0
271
4
272
4
273
2
274
2
275
0
276
0
277
2
278
46
279
0
280
0
281
0
282
0
283
1
284
0
285
0
286
0
289
3
290
0
294
0
340
18
173
0
345
17
346
17
347
17
371
-2
372
-2
0
ENDTAB
0
TABLE
2
VIEW
5
3
330
0
100
AcDbSymbolTable
70
0
0
ENDTAB
0
TABLE
2
UCS
5
C
330
0
100
AcDbSymbolTable
70
0
0
ENDTAB
0
TABLE
2
BLOCK_RECORD
5
D
330
0
100
AcDbSymbolTable
70
2
0
BLOCK_RECORD
5
1C
330
D
100
AcDbSymbolTableRecord
100
AcDbBlockTableRecord
2
*Model_Space
340
20
0
BLOCK_RECORD
5
34
330
D
100
AcDbSymbolTableRecord
100
AcDbBlockTableRecord
2
*Paper_Space
340
39
0
ENDTAB
0
ENDSEC
0
SECTION
2
BLOCKS
0
BLOCK
5
1E
330
1C
100
AcDbEntity
67
0
8
0
100
AcDbBlockBegin
2
*Model_Space
70
0
10
0.0
20
0.0
30
0.0
3
*Model_Space
4

0
ENDBLK
5
1D
330
1C
100
AcDbEntity
8
0
100
AcDbBlockEnd
0
BLOCK
5
36
330
34
100
AcDbEntity
67
1
8
0
100
AcDbBlockBegin
2
*Paper_Space
70
0
10
0.0
20
0.0
30
0.0
3
*Paper_Space
4

0
ENDBLK
5
35
330
34
100
AcDbEntity
8
0
100
AcDbBlockEnd
0
ENDSEC
0
SECTION
2
ENTITIES
0
LWPOLYLINE
5
22
330
1C
100
AcDbEntity
67
0
8
0
62
256
6
ByLayer
370
-1
48
1.0
60
0
100
AcDbPolyline
90
205
70
1
38
0.0
39
0.0
10
65.0009002685547
20
71.7921981811523
40
0.0
41
0.0
42
0.0
10
65.1368026733398
20
71.6488037109375
40
0.0
41
0.0
42
0.0
10
65.1632995605469
20
71.6486968994141
40
0.0
41
0.0
42
0.0
10
65.4970016479492
20
71.7955017089844
40
0.0
41
0.0
42
0.0
10
65.5410003662109
20
71.7059020996094
40
0.0
41
0.0
42
0.0
10
65.6367034912109
20
71.6214981079102
40
0.0
41
0.0
42
0.0
10
65.7729034423828
20
71.5557022094727
40
0.0
41
0.0
42
0.0
10
65.9900970458984
20
71.5102005004883
40
0.0
41
0.0
42
0.0
10
66.0046005249023
20
71.4962997436523
40
0.0
41
0.0
42
0.0
10
66.0211029052734
20
71.4851989746094
40
0.0
41
0.0
42
0.0
10
66.1362991333008
20
71.3908004760742
40
0.0
41
0.0
42
0.0
10
66.489501953125
20
71.2182006835938
40
0.0
41
0.0
42
0.0
10
66.7373962402344
20
71.0845031738281
40
0.0
41
0.0
42
0.0
10
66.8817977905273
20
70.9898986816406
40
0.0
41
0.0
42
0.0
10
66.9890975952148
20
70.9411010742188
40
0.0
41
0.0
42
0.0
10
67.3360977172852
20
70.7645034790039
40
0.0
41
0.0
42
0.0
10
67.4903030395508
20
70.6699981689453
40
0.0
41
0.0
42
0.0
10
67.7040023803711
20
70.5588989257812
40
0.0
41
0.0
42
0.0
10
67.8061981201172
20
70.497200012207
40
0.0
41
0.0
42
0.0
10
67.8908004760742
20
70.4309005737305
40
0.0
41
0.0
42
0.0
10
67.9919967651367
20
70.3675003051758
40
0.0
41
0.0
42
0.0
10
68.3086013793945
20
70.1193008422852
40
0.0
41
0.0
42
0.0
10
68.440803527832
20
69.9933013916016
40
0.0
41
0.0
42
0.0
10
68.5028991699219
20
69.8946990966797
40
0.0
41
0.0
42
0.0
10
68.546501159668
20
69.8049011230469
40
0.0
41
0.0
42
0.0
10
68.736701965332
20
69.4888000488281
40
0.0
41
0.0
42
0.0
10
68.8431015014648
20
69.171501159668
40
0.0
41
0.0
42
0.0
10
68.9037017822266
20
68.9860000610352
40
0.0
41
0.0
42
0.0
10
68.9552993774414
20
68.8002014160156
40
0.0
41
0.0
42
0.0
10
69.0311965942383
20
68.4853973388672
40
0.0
41
0.0
42
0.0
10
69.08740234375
20
68.3003005981445
40
0.0
41
0.0
42
0.0
10
69.1596984863281
20
67.9847030639648
40
0.0
41
0.0
42
0.0
10
69.2334976196289
20
67.6708984375
40
0.0
41
0.0
42
0.0
10
69.2994995117188
20
67.4857025146484
40
0.0
41
0.0
42
0.0
10
69.3677978515625
20
67.1709976196289
40
0.0
41
0.0
42
0.0
10
69.3822021484375
20
67.1332015991211
40
0.0
41
0.0
42
0.0
10
69.4533996582031
20
66.9850006103516
40
0.0
41
0.0
42
0.0
10
69.4524002075195
20
66.6294021606445
40
0.0
41
0.0
42
0.0
10
69.4949035644531
20
66.5904006958008
40
0.0
41
0.0
42
0.0
10
69.5804977416992
20
66.4946975708008
40
0.0
41
0.0
42
0.0
10
69.5973968505859
20
66.4794006347656
40
0.0
41
0.0
42
0.0
10
69.8059997558594
20
66.1855010986328
40
0.0
41
0.0
42
0.0
10
69.8057022094727
20
66.184700012207
40
0.0
41
0.0
42
0.0
10
69.4832992553711
20
66.1612014770508
40
0.0
41
0.0
42
0.0
10
69.0381011962891
20
66.0496978759766
40
0.0
41
0.0
42
0.0
10
68.9884033203125
20
66.0139999389648
40
0.0
41
0.0
42
0.0
10
68.9505004882812
20
66.0068969726562
40
0.0
41
0.0
42
0.0
10
68.5057983398438
20
65.9816970825195
40
0.0
41
0.0
42
0.0
10
68.4934997558594
20
65.9831008911133
40
0.0
41
0.0
42
0.0
10
68.4549026489258
20
65.9830017089844
40
0.0
41
0.0
42
0.0
10
68.0093994140625
20
65.9729995727539
40
0.0
41
0.0
42
0.0
10
67.9767990112305
20
65.9751968383789
40
0.0
41
0.0
42
0.0
10
67.4302978515625
20
65.9712982177734
40
0.0
41
0.0
42
0.0
10
66.9834976196289
20
65.9517974853516
40
0.0
41
0.0
42
0.0
10
66.6295013427734
20
65.8459014892578
40
0.0
41
0.0
42
0.0
10
66.4871978759766
20
65.8246994018555
40
0.0
41
0.0
42
0.0
10
66.4214019775391
20
65.7855987548828
40
0.0
41
0.0
42
0.0
10
66.2469024658203
20
65.513801574707
40
0.0
41
0.0
42
0.0
10
66.2468032836914
20
65.4890975952148
40
0.0
41
0.0
42
0.0
10
66.4112014770508
20
65.7449035644531
40
0.0
41
0.0
42
0.0
10
66.5128021240234
20
65.8052978515625
40
0.0
41
0.0
42
0.0
10
66.7004013061523
20
65.8332977294922
40
0.0
41
0.0
42
0.0
10
67.0164031982422
20
65.9279022216797
40
0.0
41
0.0
42
0.0
10
67.411003112793
20
65.9450988769531
40
0.0
41
0.0
42
0.0
10
67.5198974609375
20
65.9443969726562
40
0.0
41
0.0
42
0.0
10
67.8916015625
20
65.9478988647461
40
0.0
41
0.0
42
0.0
10
67.980598449707
20
65.9421997070312
40
0.0
41
0.0
42
0.0
10
68.0196990966797
20
65.9421005249023
40
0.0
41
0.0
42
0.0
10
68.4088973999023
20
65.950798034668
40
0.0
41
0.0
42
0.0
10
68.4811019897461
20
65.943000793457
40
0.0
41
0.0
42
0.0
10
68.519401550293
20
65.9429016113281
40
0.0
41
0.0
42
0.0
10
68.9459991455078
20
65.9670028686523
40
0.0
41
0.0
42
0.0
10
68.9857025146484
20
65.9580993652344
40
0.0
41
0.0
42
0.0
10
69.0476989746094
20
65.9365997314453
40
0.0
41
0.0
42
0.0
10
69.0823974609375
20
65.9365997314453
40
0.0
41
0.0
42
0.0
10
69.4636001586914
20
66.0005035400391
40
0.0
41
0.0
42
0.0
10
69.5166015625
20
66.0137023925781
40
0.0
41
0.0
42
0.0
10
69.9527969360352
20
66.0455017089844
40
0.0
41
0.0
42
0.0
10
69.9526977539062
20
66.0593032836914
40
0.0
41
0.0
42
0.0
10
69.6507034301758
20
66.4849014282227
40
0.0
41
0.0
42
0.0
10
69.6285018920898
20
66.5050964355469
40
0.0
41
0.0
42
0.0
10
69.504997253418
20
66.6430969238281
40
0.0
41
0.0
42
0.0
10
69.4629974365234
20
66.6815032958984
40
0.0
41
0.0
42
0.0
10
69.4544982910156
20
66.7001037597656
40
0.0
41
0.0
42
0.0
10
69.4553985595703
20
67.0151977539062
40
0.0
41
0.0
42
0.0
10
69.3797988891602
20
67.1725997924805
40
0.0
41
0.0
42
0.0
10
69.3058013916016
20
67.5141983032227
40
0.0
41
0.0
42
0.0
10
69.2542037963867
20
67.6589965820312
40
0.0
41
0.0
42
0.0
10
69.1704025268555
20
68.0151977539062
40
0.0
41
0.0
42
0.0
10
69.0892028808594
20
68.369499206543
40
0.0
41
0.0
42
0.0
10
69.0450973510742
20
68.5143966674805
40
0.0
41
0.0
42
0.0
10
68.9589996337891
20
68.8695983886719
40
0.0
41
0.0
42
0.0
10
68.9190979003906
20
69.013801574707
40
0.0
41
0.0
42
0.0
10
68.7536010742188
20
69.511100769043
40
0.0
41
0.0
42
0.0
10
68.540901184082
20
69.8648986816406
40
0.0
41
0.0
42
0.0
10
68.5067977905273
20
69.9348983764648
40
0.0
41
0.0
42
0.0
10
68.4615020751953
20
70.0065002441406
40
0.0
41
0.0
42
0.0
10
68.3610992431641
20
70.1025009155273
40
0.0
41
0.0
42
0.0
10
68.0077972412109
20
70.3793029785156
40
0.0
41
0.0
42
0.0
10
67.8936996459961
20
70.450798034668
40
0.0
41
0.0
42
0.0
10
67.8276977539062
20
70.5026016235352
40
0.0
41
0.0
42
0.0
10
67.750602722168
20
70.549201965332
40
0.0
41
0.0
42
0.0
10
67.5095977783203
20
70.6743011474609
40
0.0
41
0.0
42
0.0
10
67.3246994018555
20
70.7867965698242
40
0.0
41
0.0
42
0.0
10
67.0108032226562
20
70.9462966918945
40
0.0
41
0.0
42
0.0
10
66.9135971069336
20
70.9906005859375
40
0.0
41
0.0
42
0.0
10
66.7281036376953
20
71.1122970581055
40
0.0
41
0.0
42
0.0
10
66.5102996826172
20
71.2296981811523
40
0.0
41
0.0
42
0.0
10
66.1934967041016
20
71.3844985961914
40
0.0
41
0.0
42
0.0
10
66.088996887207
20
71.4700012207031
40
0.0
41
0.0
42
0.0
10
66.0393981933594
20
71.5035018920898
40
0.0
41
0.0
42
0.0
10
66.0096969604492
20
71.532096862793
40
0.0
41
0.0
42
0.0
10
65.8234024047852
20
71.5710983276367
40
0.0
41
0.0
42
0.0
10
65.6931991577148
20
71.633903503418
40
0.0
41
0.0
42
0.0
10
65.559196472168
20
71.7522964477539
40
0.0
41
0.0
42
0.0
10
65.5068969726562
20
71.8588027954102
40
0.0
41
0.0
42
0.0
10
65.4843978881836
20
71.8587036132812
40
0.0
41
0.0
42
0.0
10
65.2526016235352
20
71.7566986083984
40
0.0
41
0.0
42
0.0
10
65.0124969482422
20
72.0106964111328
40
0.0
41
0.0
42
0.0
10
65.0258026123047
20
72.4532012939453
40
0.0
41
0.0
42
0.0
10
65.0255966186523
20
72.4859008789062
40
0.0
41
0.0
42
0.0
10
65.0142974853516
20
72.5009994506836
40
0.0
41
0.0
42
0.0
10
65.1419982910156
20
72.7255020141602
40
0.0
41
0.0
42
0.0
10
65.2017974853516
20
72.802001953125
40
0.0
41
0.0
42
0.0
10
65.1980972290039
20
72.9897003173828
40
0.0
41
0.0
42
0.0
10
65.4516983032227
20
73.230598449707
40
0.0
41
0.0
42
0.0
10
65.4996032714844
20
73.3676986694336
40
0.0
41
0.0
42
0.0
10
65.5059967041016
20
73.4003982543945
40
0.0
41
0.0
42
0.0
10
65.5429000854492
20
73.4878997802734
40
0.0
41
0.0
42
0.0
10
65.6013031005859
20
73.6343994140625
40
0.0
41
0.0
42
0.0
10
65.8192977905273
20
73.9905014038086
40
0.0
41
0.0
42
0.0
10
65.8983001708984
20
74.1361999511719
40
0.0
41
0.0
42
0.0
10
66.0000991821289
20
74.2752990722656
40
0.0
41
0.0
42
0.0
10
66.1264038085938
20
74.4905014038086
40
0.0
41
0.0
42
0.0
10
66.2093963623047
20
74.6356964111328
40
0.0
41
0.0
42
0.0
10
66.4292984008789
20
74.9904022216797
40
0.0
41
0.0
42
0.0
10
66.5016021728516
20
75.1285018920898
40
0.0
41
0.0
42
0.0
10
66.5150985717773
20
75.1505966186523
40
0.0
41
0.0
42
0.0
10
66.6913986206055
20
75.4886016845703
40
0.0
41
0.0
42
0.0
10
66.7456970214844
20
75.6313018798828
40
0.0
41
0.0
42
0.0
10
66.8337020874023
20
75.9832992553711
40
0.0
41
0.0
42
0.0
10
66.8438034057617
20
76.1257019042969
40
0.0
41
0.0
42
0.0
10
66.8436965942383
20
76.1643981933594
40
0.0
41
0.0
42
0.0
10
66.8242034912109
20
76.5177993774414
40
0.0
41
0.0
42
0.0
10
66.8021011352539
20
76.6607971191406
40
0.0
41
0.0
42
0.0
10
66.6766967773438
20
77.1592025756836
40
0.0
41
0.0
42
0.0
10
66.5627975463867
20
77.5141983032227
40
0.0
41
0.0
42
0.0
10
66.5363998413086
20
77.6223983764648
40
0.0
41
0.0
42
0.0
10
66.5
20
77.7397003173828
40
0.0
41
0.0
42
0.0
10
66.4256973266602
20
77.9366989135742
40
0.0
41
0.0
42
0.0
10
66.4056015014648
20
78.0150985717773
40
0.0
41
0.0
42
0.0
10
66.366096496582
20
78.1992034912109
40
0.0
41
0.0
42
0.0
10
66.2550964355469
20
78.5149993896484
40
0.0
41
0.0
42
0.0
10
66.2300033569336
20
78.7001037597656
40
0.0
41
0.0
42
0.0
10
66.1215972900391
20
79.0164031982422
40
0.0
41
0.0
42
0.0
10
66.1204986572266
20
79.2020034790039
40
0.0
41
0.0
42
0.0
10
66.0336990356445
20
79.5161972045898
40
0.0
41
0.0
42
0.0
10
65.999397277832
20
79.9021987915039
40
0.0
41
0.0
42
0.0
10
65.9664993286133
20
79.9572982788086
40
0.0
41
0.0
42
0.0
10
65.9403991699219
20
79.9572982788086
40
0.0
41
0.0
42
0.0
10
65.486701965332
20
79.8655014038086
40
0.0
41
0.0
42
0.0
10
65.2323989868164
20
79.743896484375
40
0.0
41
0.0
42
0.0
10
65.0009994506836
20
79.6053009033203
40
0.0
41
0.0
42
0.0
10
65.0009994506836
20
79.5214996337891
40
0.0
41
0.0
42
0.0
10
65.0140991210938
20
79.5214004516602
40
0.0
41
0.0
42
0.0
10
65.0610961914062
20
79.5495986938477
40
0.0
41
0.0
42
0.0
10
65.513298034668
20
79.7656021118164
40
0.0
41
0.0
42
0.0
10
65.8276977539062
20
79.8292999267578
40
0.0
41
0.0
42
0.0
10
66.0003967285156
20
79.540901184082
40
0.0
41
0.0
42
0.0
10
66.0054016113281
20
79.4837036132812
40
0.0
41
0.0
42
0.0
10
66.1036987304688
20
79.127799987793
40
0.0
41
0.0
42
0.0
10
66.1044998168945
20
78.9834976196289
40
0.0
41
0.0
42
0.0
10
66.2258987426758
20
78.6297988891602
40
0.0
41
0.0
42
0.0
10
66.2454986572266
20
78.4849014282227
40
0.0
41
0.0
42
0.0
10
66.3701019287109
20
78.1305999755859
40
0.0
41
0.0
42
0.0
10
66.4013977050781
20
77.9848022460938
40
0.0
41
0.0
42
0.0
10
66.4164962768555
20
77.9260025024414
40
0.0
41
0.0
42
0.0
10
66.4998016357422
20
77.7050018310547
40
0.0
41
0.0
42
0.0
10
66.5416030883789
20
77.570198059082
40
0.0
41
0.0
42
0.0
10
66.5623016357422
20
77.4857025146484
40
0.0
41
0.0
42
0.0
10
66.6684036254883
20
77.1574020385742
40
0.0
41
0.0
42
0.0
10
66.7910995483398
20
76.6690979003906
40
0.0
41
0.0
42
0.0
10
66.8199996948242
20
76.4821014404297
40
0.0
41
0.0
42
0.0
10
66.8361968994141
20
76.1873016357422
40
0.0
41
0.0
42
0.0
10
66.8242034912109
20
76.0166015625
40
0.0
41
0.0
42
0.0
10
66.7446975708008
20
75.6986999511719
40
0.0
41
0.0
42
0.0
10
66.673698425293
20
75.5112991333008
40
0.0
41
0.0
42
0.0
10
66.5155029296875
20
75.2081985473633
40
0.0
41
0.0
42
0.0
10
66.4981994628906
20
75.1800003051758
40
0.0
41
0.0
42
0.0
10
66.4089965820312
20
75.0094985961914
40
0.0
41
0.0
42
0.0
10
66.2134017944336
20
74.6941986083984
40
0.0
41
0.0
42
0.0
10
66.1079025268555
20
74.5093994140625
40
0.0
41
0.0
42
0.0
10
65.9946975708008
20
74.3165969848633
40
0.0
41
0.0
42
0.0
10
65.9048004150391
20
74.1937026977539
40
0.0
41
0.0
42
0.0
10
65.8050003051758
20
74.0093994140625
40
0.0
41
0.0
42
0.0
10
65.6127014160156
20
73.6955032348633
40
0.0
41
0.0
42
0.0
10
65.5394973754883
20
73.5120010375977
40
0.0
41
0.0
42
0.0
10
65.5082015991211
20
73.4376983642578
40
0.0
41
0.0
42
0.0
10
65.5002975463867
20
73.3973007202148
40
0.0
41
0.0
42
0.0
10
65.4583969116211
20
73.277099609375
40
0.0
41
0.0
42
0.0
10
65.1781997680664
20
73.011100769043
40
0.0
41
0.0
42
0.0
10
65.1809005737305
20
72.8666000366211
40
0.0
41
0.0
42
0.0
10
65.1067962646484
20
72.7717971801758
40
0.0
41
0.0
42
0.0
10
65.0009994506836
20
72.5855026245117
40
0.0
41
0.0
42
0.0
10
65.0009002685547
20
71.7921981811523
40
0.0
41
0.0
42
0.0
210
0.0
220
0.0
230
1.0
0
LWPOLYLINE
5
23
330
1C
100
AcDbEntity
67
0
8
0
62
256
6
ByLayer
370
-1
48
1.0
60
0
100
AcDbPolyline
90
7
70
1
38
0.0
39
0.0
10
66.2593994140625
20
65.196403503418
40
0.0
41
0.0
42
0.0
10
66.2018966674805
20
65.0167007446289
40
0.0
41
0.0
42
0.0
10
66.2018966674805
20
65.0009994506836
40
0.0
41
0.0
42
0.0
10
66.2200012207031
20
65.0009002685547
40
0.0
41
0.0
42
0.0
10
66.2610015869141
20
65.1281967163086
40
0.0
41
0.0
42
0.0
10
66.2609024047852
20
65.1644973754883
40
0.0
41
0.0
42
0.0
10
66.2593994140625
20
65.196403503418
40
0.0
41
0.0
42
0.0
210
0.0
220
0.0
230
1.0
0
LWPOLYLINE
5
24
330
1C
100
AcDbEntity
67
0
8
0
62
256
6
ByLayer
370
-1
48
1.0
60
0
100
AcDbPolyline
90
211
70
1
38
0.0
39
0.0
10
65.0195007324219
20
83.7853012084961
40
0.0
41
0.0
42
0.0
10
65.3424987792969
20
83.8000030517578
40
0.0
41
0.0
42
0.0
10
65.4889984130859
20
83.7528991699219
40
0.0
41
0.0
42
0.0
10
65.7447967529297
20
83.5886001586914
40
0.0
41
0.0
42
0.0
10
65.8052978515625
20
83.4870986938477
40
0.0
41
0.0
42
0.0
10
65.8332977294922
20
83.2994995117188
40
0.0
41
0.0
42
0.0
10
65.9279022216797
20
82.9834976196289
40
0.0
41
0.0
42
0.0
10
65.9450988769531
20
82.5887985229492
40
0.0
41
0.0
42
0.0
10
65.9443969726562
20
82.4800033569336
40
0.0
41
0.0
42
0.0
10
65.9478988647461
20
82.1082000732422
40
0.0
41
0.0
42
0.0
10
65.9421997070312
20
82.0193023681641
40
0.0
41
0.0
42
0.0
10
65.9421005249023
20
81.9802017211914
40
0.0
41
0.0
42
0.0
10
65.950798034668
20
81.5908966064453
40
0.0
41
0.0
42
0.0
10
65.943000793457
20
81.518798828125
40
0.0
41
0.0
42
0.0
10
65.9429016113281
20
81.4804992675781
40
0.0
41
0.0
42
0.0
10
65.9670028686523
20
81.0538024902344
40
0.0
41
0.0
42
0.0
10
65.9581985473633
20
81.0141983032227
40
0.0
41
0.0
42
0.0
10
65.9365997314453
20
80.9522018432617
40
0.0
41
0.0
42
0.0
10
65.9365997314453
20
80.9173965454102
40
0.0
41
0.0
42
0.0
10
66.0003967285156
20
80.5362014770508
40
0.0
41
0.0
42
0.0
10
66.0137023925781
20
80.4832992553711
40
0.0
41
0.0
42
0.0
10
66.0454025268555
20
80.0468978881836
40
0.0
41
0.0
42
0.0
10
66.0593032836914
20
80.0469970703125
40
0.0
41
0.0
42
0.0
10
66.4849014282227
20
80.3490982055664
40
0.0
41
0.0
42
0.0
10
66.5050964355469
20
80.3712005615234
40
0.0
41
0.0
42
0.0
10
66.6432037353516
20
80.4949035644531
40
0.0
41
0.0
42
0.0
10
66.6816024780273
20
80.5366973876953
40
0.0
41
0.0
42
0.0
10
66.7001037597656
20
80.5451965332031
40
0.0
41
0.0
42
0.0
10
67.0177001953125
20
80.5442962646484
40
0.0
41
0.0
42
0.0
10
67.3295974731445
20
80.6119003295898
40
0.0
41
0.0
42
0.0
10
67.3672027587891
20
80.6237030029297
40
0.0
41
0.0
42
0.0
10
67.5129013061523
20
80.6937026977539
40
0.0
41
0.0
42
0.0
10
67.8690032958984
20
80.7776031494141
40
0.0
41
0.0
42
0.0
10
68.0140991210938
20
80.8292007446289
40
0.0
41
0.0
42
0.0
10
68.3695983886719
20
80.9105987548828
40
0.0
41
0.0
42
0.0
10
68.5143966674805
20
80.9545974731445
40
0.0
41
0.0
42
0.0
10
68.8696975708008
20
81.0407028198242
40
0.0
41
0.0
42
0.0
10
69.013801574707
20
81.0805969238281
40
0.0
41
0.0
42
0.0
10
69.3684005737305
20
81.1996994018555
40
0.0
41
0.0
42
0.0
10
69.5111999511719
20
81.2461013793945
40
0.0
41
0.0
42
0.0
10
69.8649978637695
20
81.4589004516602
40
0.0
41
0.0
42
0.0
10
69.9348983764648
20
81.4928970336914
40
0.0
41
0.0
42
0.0
10
70.0065002441406
20
81.538200378418
40
0.0
41
0.0
42
0.0
10
70.1025009155273
20
81.6387023925781
40
0.0
41
0.0
42
0.0
10
70.3794021606445
20
81.9919967651367
40
0.0
41
0.0
42
0.0
10
70.450798034668
20
82.1061019897461
40
0.0
41
0.0
42
0.0
10
70.5026016235352
20
82.1720962524414
40
0.0
41
0.0
42
0.0
10
70.549201965332
20
82.2491989135742
40
0.0
41
0.0
42
0.0
10
70.6743011474609
20
82.4903030395508
40
0.0
41
0.0
42
0.0
10
70.7867965698242
20
82.6752014160156
40
0.0
41
0.0
42
0.0
10
70.946403503418
20
82.9890975952148
40
0.0
41
0.0
42
0.0
10
70.9906997680664
20
83.0860977172852
40
0.0
41
0.0
42
0.0
10
71.1122970581055
20
83.2716979980469
40
0.0
41
0.0
42
0.0
10
71.2296981811523
20
83.4896011352539
40
0.0
41
0.0
42
0.0
10
71.3844985961914
20
83.806396484375
40
0.0
41
0.0
42
0.0
10
71.4700012207031
20
83.9106979370117
40
0.0
41
0.0
42
0.0
10
71.5035018920898
20
83.9604034423828
40
0.0
41
0.0
42
0.0
10
71.5328979492188
20
83.9909973144531
40
0.0
41
0.0
42
0.0
10
71.6334991455078
20
84.3072967529297
40
0.0
41
0.0
42
0.0
10
71.8588027954102
20
84.4899978637695
40
0.0
41
0.0
42
0.0
10
71.8587036132812
20
84.5155029296875
40
0.0
41
0.0
42
0.0
10
71.7567977905273
20
84.7471008300781
40
0.0
41
0.0
42
0.0
10
72.0106964111328
20
84.9871978759766
40
0.0
41
0.0
42
0.0
10
72.4532012939453
20
84.9738998413086
40
0.0
41
0.0
42
0.0
10
72.4859008789062
20
84.9740982055664
40
0.0
41
0.0
42
0.0
10
72.5009994506836
20
84.9853973388672
40
0.0
41
0.0
42
0.0
10
72.7254028320312
20
84.8576965332031
40
0.0
41
0.0
42
0.0
10
72.802001953125
20
84.7978973388672
40
0.0
41
0.0
42
0.0
10
72.9897003173828
20
84.8016967773438
40
0.0
41
0.0
42
0.0
10
73.230598449707
20
84.5479965209961
40
0.0
41
0.0
42
0.0
10
73.3676986694336
20
84.5001983642578
40
0.0
41
0.0
42
0.0
10
73.4003982543945
20
84.4936981201172
40
0.0
41
0.0
42
0.0
10
73.489501953125
20
84.4561004638672
40
0.0
41
0.0
42
0.0
10
73.8443984985352
20
84.238899230957
40
0.0
41
0.0
42
0.0
10
73.9888000488281
20
84.1811981201172
40
0.0
41
0.0
42
0.0
10
74.1361999511719
20
84.1014022827148
40
0.0
41
0.0
42
0.0
10
74.2752990722656
20
83.9996032714844
40
0.0
41
0.0
42
0.0
10
74.4905014038086
20
83.8732986450195
40
0.0
41
0.0
42
0.0
10
74.6356964111328
20
83.7902984619141
40
0.0
41
0.0
42
0.0
10
74.9903030395508
20
83.5703964233398
40
0.0
41
0.0
42
0.0
10
75.1285018920898
20
83.4981994628906
40
0.0
41
0.0
42
0.0
10
75.1505966186523
20
83.4845962524414
40
0.0
41
0.0
42
0.0
10
75.4873962402344
20
83.3088989257812
40
0.0
41
0.0
42
0.0
10
75.8412017822266
20
83.2202987670898
40
0.0
41
0.0
42
0.0
10
75.9838027954102
20
83.1662979125977
40
0.0
41
0.0
42
0.0
10
76.019401550293
20
83.1661987304688
40
0.0
41
0.0
42
0.0
10
76.3526000976562
20
83.1846008300781
40
0.0
41
0.0
42
0.0
10
76.4806976318359
20
83.1756973266602
40
0.0
41
0.0
42
0.0
10
76.5173034667969
20
83.1755981445312
40
0.0
41
0.0
42
0.0
10
76.8707962036133
20
83.2652969360352
40
0.0
41
0.0
42
0.0
10
77.0150985717773
20
83.2876968383789
40
0.0
41
0.0
42
0.0
10
77.3559036254883
20
83.3979034423828
40
0.0
41
0.0
42
0.0
10
77.6223983764648
20
83.4633026123047
40
0.0
41
0.0
42
0.0
10
77.7397003173828
20
83.4998016357422
40
0.0
41
0.0
42
0.0
10
77.9366989135742
20
83.5739974975586
40
0.0
41
0.0
42
0.0
10
78.013801574707
20
83.5938034057617
40
0.0
41
0.0
42
0.0
10
78.3292999267578
20
83.7046966552734
40
0.0
41
0.0
42
0.0
10
78.5142974853516
20
83.7443008422852
40
0.0
41
0.0
42
0.0
10
78.8301010131836
20
83.8526992797852
40
0.0
41
0.0
42
0.0
10
79.0185012817383
20
83.8780975341797
40
0.0
41
0.0
42
0.0
10
79.2021026611328
20
83.8792037963867
40
0.0
41
0.0
42
0.0
10
79.5161972045898
20
83.9660034179688
40
0.0
41
0.0
42
0.0
10
79.8879013061523
20
83.9991989135742
40
0.0
41
0.0
42
0.0
10
79.8878021240234
20
84.0134963989258
40
0.0
41
0.0
42
0.0
10
79.7389984130859
20
84.2331008911133
40
0.0
41
0.0
42
0.0
10
79.8646011352539
20
84.4849014282227
40
0.0
41
0.0
42
0.0
10
79.864501953125
20
84.5127029418945
40
0.0
41
0.0
42
0.0
10
79.7068023681641
20
84.7151031494141
40
0.0
41
0.0
42
0.0
10
79.6026000976562
20
84.9990005493164
40
0.0
41
0.0
42
0.0
10
79.5214996337891
20
84.9990005493164
40
0.0
41
0.0
42
0.0
10
79.5214004516602
20
84.9837036132812
40
0.0
41
0.0
42
0.0
10
79.6477966308594
20
84.6395034790039
40
0.0
41
0.0
42
0.0
10
79.7581024169922
20
84.4980010986328
40
0.0
41
0.0
42
0.0
10
79.5333023071289
20
84.0475006103516
40
0.0
41
0.0
42
0.0
10
79.5336990356445
20
83.9987030029297
40
0.0
41
0.0
42
0.0
10
79.4837036132812
20
83.9943008422852
40
0.0
41
0.0
42
0.0
10
79.127799987793
20
83.8960037231445
40
0.0
41
0.0
42
0.0
10
78.9813995361328
20
83.8952026367188
40
0.0
41
0.0
42
0.0
10
78.8397979736328
20
83.8759002685547
40
0.0
41
0.0
42
0.0
10
78.4856033325195
20
83.7544021606445
40
0.0
41
0.0
42
0.0
10
78.3406982421875
20
83.7232971191406
40
0.0
41
0.0
42
0.0
10
77.9860992431641
20
83.5987014770508
40
0.0
41
0.0
42
0.0
10
77.9260025024414
20
83.5832977294922
40
0.0
41
0.0
42
0.0
10
77.7050018310547
20
83.5
40
0.0
41
0.0
42
0.0
10
77.5702972412109
20
83.4580993652344
40
0.0
41
0.0
42
0.0
10
77.3006973266602
20
83.3908996582031
40
0.0
41
0.0
42
0.0
10
76.9848022460938
20
83.2886962890625
40
0.0
41
0.0
42
0.0
10
76.799201965332
20
83.2599029541016
40
0.0
41
0.0
42
0.0
10
76.4905014038086
20
83.1816024780273
40
0.0
41
0.0
42
0.0
10
76.3341979980469
20
83.1928024291992
40
0.0
41
0.0
42
0.0
10
76.2955017089844
20
83.1927032470703
40
0.0
41
0.0
42
0.0
10
76.0115966796875
20
83.1771011352539
40
0.0
41
0.0
42
0.0
10
75.8285980224609
20
83.2464981079102
40
0.0
41
0.0
42
0.0
10
75.5123977661133
20
83.3255004882812
40
0.0
41
0.0
42
0.0
10
75.2080993652344
20
83.4841995239258
40
0.0
41
0.0
42
0.0
10
75.1799011230469
20
83.5016021728516
40
0.0
41
0.0
42
0.0
10
75.0094985961914
20
83.5906982421875
40
0.0
41
0.0
42
0.0
10
74.6941986083984
20
83.7863006591797
40
0.0
41
0.0
42
0.0
10
74.5093994140625
20
83.8917999267578
40
0.0
41
0.0
42
0.0
10
74.3165969848633
20
84.004997253418
40
0.0
41
0.0
42
0.0
10
74.1937026977539
20
84.0949020385742
40
0.0
41
0.0
42
0.0
10
74.0110015869141
20
84.1939010620117
40
0.0
41
0.0
42
0.0
10
73.8255004882812
20
84.2678985595703
40
0.0
41
0.0
42
0.0
10
73.5102996826172
20
84.4609985351562
40
0.0
41
0.0
42
0.0
10
73.4375991821289
20
84.4916000366211
40
0.0
41
0.0
42
0.0
10
73.3964996337891
20
84.4998016357422
40
0.0
41
0.0
42
0.0
10
73.277099609375
20
84.5412979125977
40
0.0
41
0.0
42
0.0
10
73.011100769043
20
84.8215026855469
40
0.0
41
0.0
42
0.0
10
72.8666000366211
20
84.8188018798828
40
0.0
41
0.0
42
0.0
10
72.7716979980469
20
84.8928985595703
40
0.0
41
0.0
42
0.0
10
72.5855026245117
20
84.9990005493164
40
0.0
41
0.0
42
0.0
10
71.7921981811523
20
84.9989013671875
40
0.0
41
0.0
42
0.0
10
71.6485977172852
20
84.8629989624023
40
0.0
41
0.0
42
0.0
10
71.6485977172852
20
84.8365020751953
40
0.0
41
0.0
42
0.0
10
71.7954025268555
20
84.5031967163086
40
0.0
41
0.0
42
0.0
10
71.6220016479492
20
84.3626022338867
40
0.0
41
0.0
42
0.0
10
71.5094985961914
20
84.008903503418
40
0.0
41
0.0
42
0.0
10
71.4963989257812
20
83.9952011108398
40
0.0
41
0.0
42
0.0
10
71.4851989746094
20
83.9786987304688
40
0.0
41
0.0
42
0.0
10
71.3908004760742
20
83.8635025024414
40
0.0
41
0.0
42
0.0
10
71.2182998657227
20
83.5103988647461
40
0.0
41
0.0
42
0.0
10
71.0845031738281
20
83.2623977661133
40
0.0
41
0.0
42
0.0
10
70.9898986816406
20
83.1179962158203
40
0.0
41
0.0
42
0.0
10
70.9411010742188
20
83.0108032226562
40
0.0
41
0.0
42
0.0
10
70.7645034790039
20
82.6638031005859
40
0.0
41
0.0
42
0.0
10
70.6699981689453
20
82.5095977783203
40
0.0
41
0.0
42
0.0
10
70.5588989257812
20
82.2957992553711
40
0.0
41
0.0
42
0.0
10
70.4972991943359
20
82.193603515625
40
0.0
41
0.0
42
0.0
10
70.4309005737305
20
82.109001159668
40
0.0
41
0.0
42
0.0
10
70.3675994873047
20
82.0078964233398
40
0.0
41
0.0
42
0.0
10
70.119499206543
20
81.6912002563477
40
0.0
41
0.0
42
0.0
10
69.9933013916016
20
81.5588989257812
40
0.0
41
0.0
42
0.0
10
69.8947982788086
20
81.4968032836914
40
0.0
41
0.0
42
0.0
10
69.8050003051758
20
81.4532012939453
40
0.0
41
0.0
42
0.0
10
69.4887008666992
20
81.2630004882812
40
0.0
41
0.0
42
0.0
10
69.3015975952148
20
81.2020034790039
40
0.0
41
0.0
42
0.0
10
68.9860992431641
20
81.0960998535156
40
0.0
41
0.0
42
0.0
10
68.8002014160156
20
81.0444030761719
40
0.0
41
0.0
42
0.0
10
68.4854965209961
20
80.9684982299805
40
0.0
41
0.0
42
0.0
10
68.3003005981445
20
80.9123001098633
40
0.0
41
0.0
42
0.0
10
67.9858016967773
20
80.8404006958008
40
0.0
41
0.0
42
0.0
10
67.8009033203125
20
80.7744979858398
40
0.0
41
0.0
42
0.0
10
67.4869995117188
20
80.7005996704102
40
0.0
41
0.0
42
0.0
10
67.3162994384766
20
80.6185989379883
40
0.0
41
0.0
42
0.0
10
66.9828033447266
20
80.5463027954102
40
0.0
41
0.0
42
0.0
10
66.6294021606445
20
80.5473022460938
40
0.0
41
0.0
42
0.0
10
66.5893020629883
20
80.5037994384766
40
0.0
41
0.0
42
0.0
10
66.4947967529297
20
80.4191970825195
40
0.0
41
0.0
42
0.0
10
66.4794998168945
20
80.4022979736328
40
0.0
41
0.0
42
0.0
10
66.1855010986328
20
80.1939010620117
40
0.0
41
0.0
42
0.0
10
66.184700012207
20
80.1941986083984
40
0.0
41
0.0
42
0.0
10
66.1612014770508
20
80.5166015625
40
0.0
41
0.0
42
0.0
10
66.0496978759766
20
80.9616012573242
40
0.0
41
0.0
42
0.0
10
66.0139999389648
20
81.0114974975586
40
0.0
41
0.0
42
0.0
10
66.0068969726562
20
81.0493011474609
40
0.0
41
0.0
42
0.0
10
65.9817962646484
20
81.4941024780273
40
0.0
41
0.0
42
0.0
10
65.9831008911133
20
81.5063018798828
40
0.0
41
0.0
42
0.0
10
65.9830017089844
20
81.5448989868164
40
0.0
41
0.0
42
0.0
10
65.9729995727539
20
81.9905014038086
40
0.0
41
0.0
42
0.0
10
65.9751968383789
20
82.0230026245117
40
0.0
41
0.0
42
0.0
10
65.9712982177734
20
82.5695037841797
40
0.0
41
0.0
42
0.0
10
65.9517974853516
20
83.0164031982422
40
0.0
41
0.0
42
0.0
10
65.8459014892578
20
83.3703994750977
40
0.0
41
0.0
42
0.0
10
65.8246002197266
20
83.5127029418945
40
0.0
41
0.0
42
0.0
10
65.7854995727539
20
83.5783004760742
40
0.0
41
0.0
42
0.0
10
65.5109024047852
20
83.7547988891602
40
0.0
41
0.0
42
0.0
10
65.3317031860352
20
83.8123016357422
40
0.0
41
0.0
42
0.0
10
65.2954025268555
20
83.8122024536133
40
0.0
41
0.0
42
0.0
10
65.0009994506836
20
83.7988967895508
40
0.0
41
0.0
42
0.0
10
65.0008010864258
20
83.7853012084961
40
0.0
41
0.0
42
0.0
10
65.0195007324219
20
83.7853012084961
40
0.0
41
0.0
42
0.0
210
0.0
220
0.0
230
1.0
0
LWPOLYLINE
5
25
330
1C
100
AcDbEntity
67
0
8
0
62
256
6
ByLayer
370
-1
48
1.0
60
0
100
AcDbPolyline
90
182
70
1
38
0.0
39
0.0
10
69.556999206543
20
75.4542999267578
40
0.0
41
0.0
42
0.0
10
69.6555023193359
20
75.3056030273438
40
0.0
41
0.0
42
0.0
10
69.8178024291992
20
74.9933013916016
40
0.0
41
0.0
42
0.0
10
69.9017028808594
20
74.9231033325195
40
0.0
41
0.0
42
0.0
10
69.9935989379883
20
74.8426971435547
40
0.0
41
0.0
42
0.0
10
70.2750015258789
20
74.6087036132812
40
0.0
41
0.0
42
0.0
10
70.4241027832031
20
74.4962005615234
40
0.0
41
0.0
42
0.0
10
70.4934997558594
20
74.4346008300781
40
0.0
41
0.0
42
0.0
10
70.8085021972656
20
74.1781997680664
40
0.0
41
0.0
42
0.0
10
70.9932022094727
20
74.0137023925781
40
0.0
41
0.0
42
0.0
10
71.0229034423828
20
73.9916000366211
40
0.0
41
0.0
42
0.0
10
70.997802734375
20
73.5526962280273
40
0.0
41
0.0
42
0.0
10
70.992301940918
20
73.5133972167969
40
0.0
41
0.0
42
0.0
10
70.9572982788086
20
73.4468002319336
40
0.0
41
0.0
42
0.0
10
70.8519973754883
20
73.196403503418
40
0.0
41
0.0
42
0.0
10
70.7639999389648
20
73.0120010375977
40
0.0
41
0.0
42
0.0
10
70.654899597168
20
72.6977005004883
40
0.0
41
0.0
42
0.0
10
70.5842971801758
20
72.5147018432617
40
0.0
41
0.0
42
0.0
10
70.5282974243164
20
72.1044006347656
40
0.0
41
0.0
42
0.0
10
70.5190963745117
20
72.018798828125
40
0.0
41
0.0
42
0.0
10
70.5189971923828
20
71.9833984375
40
0.0
41
0.0
42
0.0
10
70.5643005371094
20
71.8516006469727
40
0.0
41
0.0
42
0.0
10
70.5987014770508
20
71.8067016601562
40
0.0
41
0.0
42
0.0
10
70.7817001342773
20
71.496696472168
40
0.0
41
0.0
42
0.0
10
70.9253997802734
20
71.4375991821289
40
0.0
41
0.0
42
0.0
10
70.986701965332
20
71.4052963256836
40
0.0
41
0.0
42
0.0
10
71.2972030639648
20
71.3536987304688
40
0.0
41
0.0
42
0.0
10
71.4804992675781
20
71.3447036743164
40
0.0
41
0.0
42
0.0
10
71.5192031860352
20
71.344596862793
40
0.0
41
0.0
42
0.0
10
71.8329010009766
20
71.3681030273438
40
0.0
41
0.0
42
0.0
10
72.0167999267578
20
71.3900985717773
40
0.0
41
0.0
42
0.0
10
72.331298828125
20
71.4469985961914
40
0.0
41
0.0
42
0.0
10
72.5128021240234
20
71.4776992797852
40
0.0
41
0.0
42
0.0
10
72.7982025146484
20
71.4697036743164
40
0.0
41
0.0
42
0.0
10
72.9934005737305
20
71.4138031005859
40
0.0
41
0.0
42
0.0
10
73.1884002685547
20
71.1047973632812
40
0.0
41
0.0
42
0.0
10
73.2419967651367
20
70.9880981445312
40
0.0
41
0.0
42
0.0
10
73.3134994506836
20
70.8031005859375
40
0.0
41
0.0
42
0.0
10
73.4583969116211
20
70.4886016845703
40
0.0
41
0.0
42
0.0
10
73.5189971923828
20
70.3514022827148
40
0.0
41
0.0
42
0.0
10
73.7319030761719
20
69.9919967651367
40
0.0
41
0.0
42
0.0
10
73.8918991088867
20
69.7975006103516
40
0.0
41
0.0
42
0.0
10
73.9919967651367
20
69.6613998413086
40
0.0
41
0.0
42
0.0
10
74.2958984375
20
69.6011962890625
40
0.0
41
0.0
42
0.0
10
74.4834976196289
20
69.5367965698242
40
0.0
41
0.0
42
0.0
10
74.5137023925781
20
69.5366973876953
40
0.0
41
0.0
42
0.0
10
74.6942977905273
20
69.6556015014648
40
0.0
41
0.0
42
0.0
10
75.0065002441406
20
69.8179016113281
40
0.0
41
0.0
42
0.0
10
75.0765991210938
20
69.9018020629883
40
0.0
41
0.0
42
0.0
10
75.157096862793
20
69.9935989379883
40
0.0
41
0.0
42
0.0
10
75.3910980224609
20
70.2751007080078
40
0.0
41
0.0
42
0.0
10
75.5037002563477
20
70.424201965332
40
0.0
41
0.0
42
0.0
10
75.5652008056641
20
70.4934997558594
40
0.0
41
0.0
42
0.0
10
75.8216018676758
20
70.8085021972656
40
0.0
41
0.0
42
0.0
10
75.9860992431641
20
70.9933013916016
40
0.0
41
0.0
42
0.0
10
76.00830078125
20
71.0229034423828
40
0.0
41
0.0
42
0.0
10
76.4470977783203
20
70.997802734375
40
0.0
41
0.0
42
0.0
10
76.4863967895508
20
70.9922027587891
40
0.0
41
0.0
42
0.0
10
76.5531005859375
20
70.9572982788086
40
0.0
41
0.0
42
0.0
10
76.8034973144531
20
70.8519973754883
40
0.0
41
0.0
42
0.0
10
76.9878997802734
20
70.7639007568359
40
0.0
41
0.0
42
0.0
10
77.3021011352539
20
70.654899597168
40
0.0
41
0.0
42
0.0
10
77.4851989746094
20
70.5842971801758
40
0.0
41
0.0
42
0.0
10
77.8954010009766
20
70.5282974243164
40
0.0
41
0.0
42
0.0
10
77.9811019897461
20
70.5190963745117
40
0.0
41
0.0
42
0.0
10
78.0164031982422
20
70.5189971923828
40
0.0
41
0.0
42
0.0
10
78.1482009887695
20
70.5643997192383
40
0.0
41
0.0
42
0.0
10
78.1931991577148
20
70.5987014770508
40
0.0
41
0.0
42
0.0
10
78.5031967163086
20
70.7817993164062
40
0.0
41
0.0
42
0.0
10
78.5621032714844
20
70.9254989624023
40
0.0
41
0.0
42
0.0
10
78.5939025878906
20
70.9857025146484
40
0.0
41
0.0
42
0.0
10
78.602897644043
20
71.1671981811523
40
0.0
41
0.0
42
0.0
10
78.6551971435547
20
71.4816970825195
40
0.0
41
0.0
42
0.0
10
78.6550979614258
20
71.5186996459961
40
0.0
41
0.0
42
0.0
10
78.6332015991211
20
71.7029037475586
40
0.0
41
0.0
42
0.0
10
78.6094970703125
20
72.0174026489258
40
0.0
41
0.0
42
0.0
10
78.5783996582031
20
72.201301574707
40
0.0
41
0.0
42
0.0
10
78.5250015258789
20
72.4964981079102
40
0.0
41
0.0
42
0.0
10
78.5742034912109
20
72.6681976318359
40
0.0
41
0.0
42
0.0
10
78.5832977294922
20
72.99169921875
40
0.0
41
0.0
42
0.0
10
78.8948974609375
20
73.1884002685547
40
0.0
41
0.0
42
0.0
10
79.0118026733398
20
73.2419967651367
40
0.0
41
0.0
42
0.0
10
79.1968002319336
20
73.3134994506836
40
0.0
41
0.0
42
0.0
10
79.5112991333008
20
73.4583969116211
40
0.0
41
0.0
42
0.0
10
79.6483001708984
20
73.5189971923828
40
0.0
41
0.0
42
0.0
10
80.0077972412109
20
73.7319030761719
40
0.0
41
0.0
42
0.0
10
80.2022018432617
20
73.8918991088867
40
0.0
41
0.0
42
0.0
10
80.3383026123047
20
73.9919967651367
40
0.0
41
0.0
42
0.0
10
80.3984985351562
20
74.2958984375
40
0.0
41
0.0
42
0.0
10
80.4630966186523
20
74.4834976196289
40
0.0
41
0.0
42
0.0
10
80.4629974365234
20
74.5136032104492
40
0.0
41
0.0
42
0.0
10
80.3442001342773
20
74.6942977905273
40
0.0
41
0.0
42
0.0
10
80.1819000244141
20
75.0065002441406
40
0.0
41
0.0
42
0.0
10
80.0979995727539
20
75.0765991210938
40
0.0
41
0.0
42
0.0
10
80.0063018798828
20
75.1569976806641
40
0.0
41
0.0
42
0.0
10
79.7247009277344
20
75.390998840332
40
0.0
41
0.0
42
0.0
10
79.5755996704102
20
75.5036010742188
40
0.0
41
0.0
42
0.0
10
79.5063018798828
20
75.5651016235352
40
0.0
41
0.0
42
0.0
10
79.1912994384766
20
75.8215026855469
40
0.0
41
0.0
42
0.0
10
79.0065994262695
20
75.9860000610352
40
0.0
41
0.0
42
0.0
10
78.9767990112305
20
76.0082015991211
40
0.0
41
0.0
42
0.0
10
79.0018997192383
20
76.4470977783203
40
0.0
41
0.0
42
0.0
10
79.0074996948242
20
76.4865036010742
40
0.0
41
0.0
42
0.0
10
79.0423965454102
20
76.5531005859375
40
0.0
41
0.0
42
0.0
10
79.1477966308594
20
76.803596496582
40
0.0
41
0.0
42
0.0
10
79.2358016967773
20
76.9879989624023
40
0.0
41
0.0
42
0.0
10
79.3449020385742
20
77.3022003173828
40
0.0
41
0.0
42
0.0
10
79.415397644043
20
77.4851989746094
40
0.0
41
0.0
42
0.0
10
79.4713973999023
20
77.8954010009766
40
0.0
41
0.0
42
0.0
10
79.4807968139648
20
77.9811019897461
40
0.0
41
0.0
42
0.0
10
79.4806976318359
20
78.0164031982422
40
0.0
41
0.0
42
0.0
10
79.4354019165039
20
78.1482009887695
40
0.0
41
0.0
42
0.0
10
79.4010009765625
20
78.1931991577148
40
0.0
41
0.0
42
0.0
10
79.2180023193359
20
78.5030975341797
40
0.0
41
0.0
42
0.0
10
79.0743026733398
20
78.5619964599609
40
0.0
41
0.0
42
0.0
10
79.0141983032227
20
78.5939025878906
40
0.0
41
0.0
42
0.0
10
78.8327026367188
20
78.6027984619141
40
0.0
41
0.0
42
0.0
10
78.5182037353516
20
78.6551971435547
40
0.0
41
0.0
42
0.0
10
78.481201171875
20
78.6550979614258
40
0.0
41
0.0
42
0.0
10
78.2969970703125
20
78.6332015991211
40
0.0
41
0.0
42
0.0
10
77.9824981689453
20
78.6094970703125
40
0.0
41
0.0
42
0.0
10
77.7985992431641
20
78.5783996582031
40
0.0
41
0.0
42
0.0
10
77.5034027099609
20
78.5250015258789
40
0.0
41
0.0
42
0.0
10
77.3317031860352
20
78.5742034912109
40
0.0
41
0.0
42
0.0
10
77.0081024169922
20
78.5831985473633
40
0.0
41
0.0
42
0.0
10
76.8113021850586
20
78.8948974609375
40
0.0
41
0.0
42
0.0
10
76.757698059082
20
79.0118026733398
40
0.0
41
0.0
42
0.0
10
76.6862030029297
20
79.1968002319336
40
0.0
41
0.0
42
0.0
10
76.5412979125977
20
79.5112991333008
40
0.0
41
0.0
42
0.0
10
76.4806976318359
20
79.6483001708984
40
0.0
41
0.0
42
0.0
10
76.2677993774414
20
80.0077972412109
40
0.0
41
0.0
42
0.0
10
76.1079025268555
20
80.2022018432617
40
0.0
41
0.0
42
0.0
10
76.0077972412109
20
80.3382034301758
40
0.0
41
0.0
42
0.0
10
75.7039031982422
20
80.3984985351562
40
0.0
41
0.0
42
0.0
10
75.5164031982422
20
80.4630966186523
40
0.0
41
0.0
42
0.0
10
75.486198425293
20
80.4629974365234
40
0.0
41
0.0
42
0.0
10
75.3056030273438
20
80.3442001342773
40
0.0
41
0.0
42
0.0
10
74.9934005737305
20
80.1819000244141
40
0.0
41
0.0
42
0.0
10
74.9232025146484
20
80.0979995727539
40
0.0
41
0.0
42
0.0
10
74.8426971435547
20
80.0063018798828
40
0.0
41
0.0
42
0.0
10
74.6087036132812
20
79.7247009277344
40
0.0
41
0.0
42
0.0
10
74.4962005615234
20
79.5756988525391
40
0.0
41
0.0
42
0.0
10
74.4346008300781
20
79.5064010620117
40
0.0
41
0.0
42
0.0
10
74.1781997680664
20
79.1913986206055
40
0.0
41
0.0
42
0.0
10
74.0137023925781
20
79.0066986083984
40
0.0
41
0.0
42
0.0
10
73.99169921875
20
78.9767990112305
40
0.0
41
0.0
42
0.0
10
73.5526962280273
20
79.0018997192383
40
0.0
41
0.0
42
0.0
10
73.5133972167969
20
79.0074005126953
40
0.0
41
0.0
42
0.0
10
73.4468002319336
20
79.0423965454102
40
0.0
41
0.0
42
0.0
10
73.1962966918945
20
79.1476974487305
40
0.0
41
0.0
42
0.0
10
73.0119018554688
20
79.2357025146484
40
0.0
41
0.0
42
0.0
10
72.6977005004883
20
79.3449020385742
40
0.0
41
0.0
42
0.0
10
72.5147018432617
20
79.415397644043
40
0.0
41
0.0
42
0.0
10
72.1044006347656
20
79.4713973999023
40
0.0
41
0.0
42
0.0
10
72.018798828125
20
79.4807968139648
40
0.0
41
0.0
42
0.0
10
71.9834976196289
20
79.4806976318359
40
0.0
41
0.0
42
0.0
10
71.8516006469727
20
79.4354019165039
40
0.0
41
0.0
42
0.0
10
71.8067016601562
20
79.4010009765625
40
0.0
41
0.0
42
0.0
10
71.496696472168
20
79.2181015014648
40
0.0
41
0.0
42
0.0
10
71.4376983642578
20
79.0743026733398
40
0.0
41
0.0
42
0.0
10
71.4052963256836
20
79.0130996704102
40
0.0
41
0.0
42
0.0
10
71.3536987304688
20
78.7026977539062
40
0.0
41
0.0
42
0.0
10
71.3447036743164
20
78.519401550293
40
0.0
41
0.0
42
0.0
10
71.344596862793
20
78.4806976318359
40
0.0
41
0.0
42
0.0
10
71.3681030273438
20
78.1669998168945
40
0.0
41
0.0
42
0.0
10
71.3900985717773
20
77.9831008911133
40
0.0
41
0.0
42
0.0
10
71.4469985961914
20
77.6686019897461
40
0.0
41
0.0
42
0.0
10
71.4776992797852
20
77.4870986938477
40
0.0
41
0.0
42
0.0
10
71.4697036743164
20
77.2016983032227
40
0.0
41
0.0
42
0.0
10
71.4139022827148
20
77.0065002441406
40
0.0
41
0.0
42
0.0
10
71.1048965454102
20
76.8114013671875
40
0.0
41
0.0
42
0.0
10
70.9880981445312
20
76.757698059082
40
0.0
41
0.0
42
0.0
10
70.8031005859375
20
76.6862030029297
40
0.0
41
0.0
42
0.0
10
70.4886016845703
20
76.5413970947266
40
0.0
41
0.0
42
0.0
10
70.3515014648438
20
76.4807968139648
40
0.0
41
0.0
42
0.0
10
69.9921035766602
20
76.2678985595703
40
0.0
41
0.0
42
0.0
10
69.7975997924805
20
76.1079025268555
40
0.0
41
0.0
42
0.0
10
69.6614990234375
20
76.0078964233398
40
0.0
41
0.0
42
0.0
10
69.6011962890625
20
75.7039031982422
40
0.0
41
0.0
42
0.0
10
69.5367965698242
20
75.5164031982422
40
0.0
41
0.0
42
0.0
10
69.5366973876953
20
75.4860992431641
40
0.0
41
0.0
42
0.0
10
69.556999206543
20
75.4542999267578
40
0.0
41
0.0
42
0.0
210
0.0
220
0.0
230
1.0
0
LWPOLYLINE
5
26
330
1C
100
AcDbEntity
67
0
8
0
62
256
6
ByLayer
370
-1
48
1.0
60
0
100
AcDbPolyline
90
177
70
1
38
0.0
39
0.0
10
69.5541000366211
20
75.5029983520508
40
0.0
41
0.0
42
0.0
10
69.6363983154297
20
75.7419967651367
40
0.0
41
0.0
42
0.0
10
69.6858978271484
20
75.9919967651367
40
0.0
41
0.0
42
0.0
10
69.8538970947266
20
76.1155014038086
40
0.0
41
0.0
42
0.0
10
70.0078964233398
20
76.2421035766602
40
0.0
41
0.0
42
0.0
10
70.402099609375
20
76.4755020141602
40
0.0
41
0.0
42
0.0
10
70.5112991333008
20
76.5240020751953
40
0.0
41
0.0
42
0.0
10
70.8667984008789
20
76.6875
40
0.0
41
0.0
42
0.0
10
71.0118026733398
20
76.7435989379883
40
0.0
41
0.0
42
0.0
10
71.0998992919922
20
76.7842025756836
40
0.0
41
0.0
42
0.0
10
71.4312973022461
20
76.9934005737305
40
0.0
41
0.0
42
0.0
10
71.4698028564453
20
77.1281967163086
40
0.0
41
0.0
42
0.0
10
71.4797973632812
20
77.4802017211914
40
0.0
41
0.0
42
0.0
10
71.4795989990234
20
77.5182037353516
40
0.0
41
0.0
42
0.0
10
71.4553985595703
20
77.6613006591797
40
0.0
41
0.0
42
0.0
10
71.390998840332
20
78.0167999267578
40
0.0
41
0.0
42
0.0
10
71.3735961914062
20
78.1629028320312
40
0.0
41
0.0
42
0.0
10
71.3480987548828
20
78.5037002563477
40
0.0
41
0.0
42
0.0
10
71.3542022705078
20
78.627197265625
40
0.0
41
0.0
42
0.0
10
71.4140014648438
20
78.9868011474609
40
0.0
41
0.0
42
0.0
10
71.4527969360352
20
79.0602035522461
40
0.0
41
0.0
42
0.0
10
71.503303527832
20
79.1828002929688
40
0.0
41
0.0
42
0.0
10
71.8631973266602
20
79.3953018188477
40
0.0
41
0.0
42
0.0
10
71.901496887207
20
79.4244995117188
40
0.0
41
0.0
42
0.0
10
72.0080032348633
20
79.4610977172852
40
0.0
41
0.0
42
0.0
10
72.1587982177734
20
79.4446029663086
40
0.0
41
0.0
42
0.0
10
72.4851989746094
20
79.4001007080078
40
0.0
41
0.0
42
0.0
10
72.6322021484375
20
79.3434982299805
40
0.0
41
0.0
42
0.0
10
72.9878997802734
20
79.2199020385742
40
0.0
41
0.0
42
0.0
10
73.1334991455078
20
79.1504974365234
40
0.0
41
0.0
42
0.0
10
73.4164962768555
20
79.0314025878906
40
0.0
41
0.0
42
0.0
10
73.4853973388672
20
78.9954986572266
40
0.0
41
0.0
42
0.0
10
73.5317001342773
20
78.9942016601562
40
0.0
41
0.0
42
0.0
10
73.980598449707
20
78.9683990478516
40
0.0
41
0.0
42
0.0
10
74.0093994140625
20
78.9683990478516
40
0.0
41
0.0
42
0.0
10
74.0279006958008
20
78.9932022094727
40
0.0
41
0.0
42
0.0
10
74.1573028564453
20
79.1386032104492
40
0.0
41
0.0
42
0.0
10
74.4461975097656
20
79.4935989379883
40
0.0
41
0.0
42
0.0
10
74.5037994384766
20
79.5586013793945
40
0.0
41
0.0
42
0.0
10
74.5914993286133
20
79.6748962402344
40
0.0
41
0.0
42
0.0
10
74.8563003540039
20
79.9935989379883
40
0.0
41
0.0
42
0.0
10
74.9469985961914
20
80.0970001220703
40
0.0
41
0.0
42
0.0
10
75.0065002441406
20
80.1681976318359
40
0.0
41
0.0
42
0.0
10
75.3643035888672
20
80.3541030883789
40
0.0
41
0.0
42
0.0
10
75.5029983520508
20
80.4456024169922
40
0.0
41
0.0
42
0.0
10
75.7419967651367
20
80.3632965087891
40
0.0
41
0.0
42
0.0
10
75.9919967651367
20
80.3137969970703
40
0.0
41
0.0
42
0.0
10
76.1155014038086
20
80.1457977294922
40
0.0
41
0.0
42
0.0
10
76.2421035766602
20
79.9919967651367
40
0.0
41
0.0
42
0.0
10
76.4755020141602
20
79.5978012084961
40
0.0
41
0.0
42
0.0
10
76.5240020751953
20
79.4886016845703
40
0.0
41
0.0
42
0.0
10
76.6875
20
79.1331024169922
40
0.0
41
0.0
42
0.0
10
76.7435989379883
20
78.9880981445312
40
0.0
41
0.0
42
0.0
10
76.7842025756836
20
78.89990234375
40
0.0
41
0.0
42
0.0
10
76.99169921875
20
78.5710983276367
40
0.0
41
0.0
42
0.0
10
77.3382034301758
20
78.5615005493164
40
0.0
41
0.0
42
0.0
10
77.4829025268555
20
78.5201034545898
40
0.0
41
0.0
42
0.0
10
77.5180969238281
20
78.5199966430664
40
0.0
41
0.0
42
0.0
10
77.8712997436523
20
78.5839996337891
40
0.0
41
0.0
42
0.0
10
78.0174026489258
20
78.6088027954102
40
0.0
41
0.0
42
0.0
10
78.3729019165039
20
78.6353988647461
40
0.0
41
0.0
42
0.0
10
78.4971008300781
20
78.6501998901367
40
0.0
41
0.0
42
0.0
10
78.8363037109375
20
78.5938034057617
40
0.0
41
0.0
42
0.0
10
78.9856033325195
20
78.5863037109375
40
0.0
41
0.0
42
0.0
10
79.0600967407227
20
78.5468978881836
40
0.0
41
0.0
42
0.0
10
79.1828002929688
20
78.4965972900391
40
0.0
41
0.0
42
0.0
10
79.3953018188477
20
78.1367034912109
40
0.0
41
0.0
42
0.0
10
79.4244003295898
20
78.0981979370117
40
0.0
41
0.0
42
0.0
10
79.4610977172852
20
77.9918975830078
40
0.0
41
0.0
42
0.0
10
79.4446029663086
20
77.8410034179688
40
0.0
41
0.0
42
0.0
10
79.4001998901367
20
77.5147018432617
40
0.0
41
0.0
42
0.0
10
79.3434982299805
20
77.3676986694336
40
0.0
41
0.0
42
0.0
10
79.2200012207031
20
77.0120010375977
40
0.0
41
0.0
42
0.0
10
79.1504974365234
20
76.8664016723633
40
0.0
41
0.0
42
0.0
10
79.0315017700195
20
76.5832977294922
40
0.0
41
0.0
42
0.0
10
78.9954986572266
20
76.5145034790039
40
0.0
41
0.0
42
0.0
10
78.9942016601562
20
76.4681015014648
40
0.0
41
0.0
42
0.0
10
78.9683990478516
20
76.0193023681641
40
0.0
41
0.0
42
0.0
10
78.9682998657227
20
75.9905014038086
40
0.0
41
0.0
42
0.0
10
78.9932022094727
20
75.9719009399414
40
0.0
41
0.0
42
0.0
10
79.1384963989258
20
75.8424987792969
40
0.0
41
0.0
42
0.0
10
79.4934997558594
20
75.5534973144531
40
0.0
41
0.0
42
0.0
10
79.5586013793945
20
75.4960021972656
40
0.0
41
0.0
42
0.0
10
79.6748962402344
20
75.4083023071289
40
0.0
41
0.0
42
0.0
10
79.9934997558594
20
75.1434020996094
40
0.0
41
0.0
42
0.0
10
80.0970001220703
20
75.0528030395508
40
0.0
41
0.0
42
0.0
10
80.1681976318359
20
74.9933013916016
40
0.0
41
0.0
42
0.0
10
80.3539962768555
20
74.6355972290039
40
0.0
41
0.0
42
0.0
10
80.4456024169922
20
74.4969024658203
40
0.0
41
0.0
42
0.0
10
80.3632965087891
20
74.2577972412109
40
0.0
41
0.0
42
0.0
10
80.3139038085938
20
74.0077972412109
40
0.0
41
0.0
42
0.0
10
80.1458969116211
20
73.8842010498047
40
0.0
41
0.0
42
0.0
10
79.9919967651367
20
73.757698059082
40
0.0
41
0.0
42
0.0
10
79.5978012084961
20
73.524299621582
40
0.0
41
0.0
42
0.0
10
79.4886016845703
20
73.475700378418
40
0.0
41
0.0
42
0.0
10
79.1331024169922
20
73.3122024536133
40
0.0
41
0.0
42
0.0
10
78.9880981445312
20
73.256103515625
40
0.0
41
0.0
42
0.0
10
78.89990234375
20
73.2154998779297
40
0.0
41
0.0
42
0.0
10
78.5710983276367
20
73.0082015991211
40
0.0
41
0.0
42
0.0
10
78.5615005493164
20
72.6616973876953
40
0.0
41
0.0
42
0.0
10
78.5201034545898
20
72.5169982910156
40
0.0
41
0.0
42
0.0
10
78.5199966430664
20
72.4817962646484
40
0.0
41
0.0
42
0.0
10
78.5839996337891
20
72.1286010742188
40
0.0
41
0.0
42
0.0
10
78.6088027954102
20
71.9824981689453
40
0.0
41
0.0
42
0.0
10
78.6353988647461
20
71.6269989013672
40
0.0
41
0.0
42
0.0
10
78.6502990722656
20
71.502799987793
40
0.0
41
0.0
42
0.0
10
78.5938034057617
20
71.1634979248047
40
0.0
41
0.0
42
0.0
10
78.5864028930664
20
71.0142974853516
40
0.0
41
0.0
42
0.0
10
78.5469970703125
20
70.9395980834961
40
0.0
41
0.0
42
0.0
10
78.496696472168
20
70.8171005249023
40
0.0
41
0.0
42
0.0
10
78.1367034912109
20
70.6045989990234
40
0.0
41
0.0
42
0.0
10
78.0982971191406
20
70.5753021240234
40
0.0
41
0.0
42
0.0
10
77.9918975830078
20
70.5385971069336
40
0.0
41
0.0
42
0.0
10
77.8410034179688
20
70.5550994873047
40
0.0
41
0.0
42
0.0
10
77.5147018432617
20
70.5996017456055
40
0.0
41
0.0
42
0.0
10
77.3676986694336
20
70.6563034057617
40
0.0
41
0.0
42
0.0
10
77.0119018554688
20
70.7797012329102
40
0.0
41
0.0
42
0.0
10
76.8663024902344
20
70.8491973876953
40
0.0
41
0.0
42
0.0
10
76.5832977294922
20
70.9682006835938
40
0.0
41
0.0
42
0.0
10
76.5145034790039
20
71.0042037963867
40
0.0
41
0.0
42
0.0
10
76.4681015014648
20
71.005500793457
40
0.0
41
0.0
42
0.0
10
76.0193023681641
20
71.0315017700195
40
0.0
41
0.0
42
0.0
10
75.9905014038086
20
71.0315017700195
40
0.0
41
0.0
42
0.0
10
75.9719009399414
20
71.0066986083984
40
0.0
41
0.0
42
0.0
10
75.8424987792969
20
70.8613967895508
40
0.0
41
0.0
42
0.0
10
75.5537033081055
20
70.5065994262695
40
0.0
41
0.0
42
0.0
10
75.4960021972656
20
70.4412002563477
40
0.0
41
0.0
42
0.0
10
75.4083023071289
20
70.3248977661133
40
0.0
41
0.0
42
0.0
10
75.1435012817383
20
70.0063018798828
40
0.0
41
0.0
42
0.0
10
75.0528030395508
20
69.9028015136719
40
0.0
41
0.0
42
0.0
10
74.9934005737305
20
69.8314971923828
40
0.0
41
0.0
42
0.0
10
74.6355972290039
20
69.6456985473633
40
0.0
41
0.0
42
0.0
10
74.4969024658203
20
69.5541000366211
40
0.0
41
0.0
42
0.0
10
74.2577972412109
20
69.6363983154297
40
0.0
41
0.0
42
0.0
10
74.0077972412109
20
69.6857986450195
40
0.0
41
0.0
42
0.0
10
73.8842010498047
20
69.8538970947266
40
0.0
41
0.0
42
0.0
10
73.757698059082
20
70.0077972412109
40
0.0
41
0.0
42
0.0
10
73.5242004394531
20
70.402099609375
40
0.0
41
0.0
42
0.0
10
73.475700378418
20
70.5112991333008
40
0.0
41
0.0
42
0.0
10
73.3122024536133
20
70.8667984008789
40
0.0
41
0.0
42
0.0
10
73.256103515625
20
71.0118026733398
40
0.0
41
0.0
42
0.0
10
73.2154998779297
20
71.0998992919922
40
0.0
41
0.0
42
0.0
10
73.0065002441406
20
71.4312973022461
40
0.0
41
0.0
42
0.0
10
72.871696472168
20
71.4698028564453
40
0.0
41
0.0
42
0.0
10
72.5196990966797
20
71.4797973632812
40
0.0
41
0.0
42
0.0
10
72.4816970825195
20
71.4796981811523
40
0.0
41
0.0
42
0.0
10
72.3386001586914
20
71.4553985595703
40
0.0
41
0.0
42
0.0
10
71.9831008911133
20
71.390998840332
40
0.0
41
0.0
42
0.0
10
71.8369979858398
20
71.3735961914062
40
0.0
41
0.0
42
0.0
10
71.4962005615234
20
71.3480987548828
40
0.0
41
0.0
42
0.0
10
71.3727035522461
20
71.3541030883789
40
0.0
41
0.0
42
0.0
10
71.0130996704102
20
71.4139022827148
40
0.0
41
0.0
42
0.0
10
70.9395980834961
20
71.4526977539062
40
0.0
41
0.0
42
0.0
10
70.8170013427734
20
71.5031967163086
40
0.0
41
0.0
42
0.0
10
70.6045989990234
20
71.8631973266602
40
0.0
41
0.0
42
0.0
10
70.5752029418945
20
71.901496887207
40
0.0
41
0.0
42
0.0
10
70.5385971069336
20
72.0080032348633
40
0.0
41
0.0
42
0.0
10
70.5550994873047
20
72.1587982177734
40
0.0
41
0.0
42
0.0
10
70.5996017456055
20
72.4851989746094
40
0.0
41
0.0
42
0.0
10
70.6563034057617
20
72.6322021484375
40
0.0
41
0.0
42
0.0
10
70.7798004150391
20
72.9878997802734
40
0.0
41
0.0
42
0.0
10
70.8492965698242
20
73.1335983276367
40
0.0
41
0.0
42
0.0
10
70.9682998657227
20
73.4164962768555
40
0.0
41
0.0
42
0.0
10
71.0042037963867
20
73.4853973388672
40
0.0
41
0.0
42
0.0
10
71.005500793457
20
73.5317001342773
40
0.0
41
0.0
42
0.0
10
71.0315017700195
20
73.980598449707
40
0.0
41
0.0
42
0.0
10
71.0314025878906
20
74.0093994140625
40
0.0
41
0.0
42
0.0
10
71.0065994262695
20
74.0278015136719
40
0.0
41
0.0
42
0.0
10
70.8612976074219
20
74.1572036743164
40
0.0
41
0.0
42
0.0
10
70.5065002441406
20
74.4459991455078
40
0.0
41
0.0
42
0.0
10
70.4411010742188
20
74.5037002563477
40
0.0
41
0.0
42
0.0
10
70.3248977661133
20
74.5914001464844
40
0.0
41
0.0
42
0.0
10
70.0063018798828
20
74.856201171875
40
0.0
41
0.0
42
0.0
10
69.902702331543
20
74.9468994140625
40
0.0
41
0.0
42
0.0
10
69.8314971923828
20
75.0065002441406
40
0.0
41
0.0
42
0.0
10
69.6456985473633
20
75.3643035888672
40
0.0
41
0.0
42
0.0
10
69.5541000366211
20
75.5029983520508
40
0.0
41
0.0
42
0.0
210
0.0
220
0.0
230
1.0
0
LWPOLYLINE
5
27
330
1C
100
AcDbEntity
67
0
8
0
62
256
6
ByLayer
370
-1
48
1.0
60
0
100
AcDbPolyline
90
205
70
1
38
0.0
39
0.0
10
70.3972015380859
20
65.0009994506836
40
0.0
41
0.0
42
0.0
10
70.478401184082
20
65.0009994506836
40
0.0
41
0.0
42
0.0
10
70.4782028198242
20
65.0161972045898
40
0.0
41
0.0
42
0.0
10
70.3518981933594
20
65.3601989746094
40
0.0
41
0.0
42
0.0
10
70.24169921875
20
65.5018997192383
40
0.0
41
0.0
42
0.0
10
70.4664001464844
20
65.9523010253906
40
0.0
41
0.0
42
0.0
10
70.4662017822266
20
66.0009994506836
40
0.0
41
0.0
42
0.0
10
70.5161972045898
20
66.005500793457
40
0.0
41
0.0
42
0.0
10
70.8721008300781
20
66.1036987304688
40
0.0
41
0.0
42
0.0
10
71.0164031982422
20
66.1044998168945
40
0.0
41
0.0
42
0.0
10
71.3701019287109
20
66.2258987426758
40
0.0
41
0.0
42
0.0
10
71.5149993896484
20
66.2455978393555
40
0.0
41
0.0
42
0.0
10
71.8692016601562
20
66.3701019287109
40
0.0
41
0.0
42
0.0
10
72.0150985717773
20
66.4013977050781
40
0.0
41
0.0
42
0.0
10
72.0737991333008
20
66.4164962768555
40
0.0
41
0.0
42
0.0
10
72.2947998046875
20
66.4998016357422
40
0.0
41
0.0
42
0.0
10
72.4294967651367
20
66.5417022705078
40
0.0
41
0.0
42
0.0
10
72.5141983032227
20
66.5623016357422
40
0.0
41
0.0
42
0.0
10
72.8424987792969
20
66.6684036254883
40
0.0
41
0.0
42
0.0
10
73.3308029174805
20
66.7910995483398
40
0.0
41
0.0
42
0.0
10
73.5177993774414
20
66.8199996948242
40
0.0
41
0.0
42
0.0
10
73.8125991821289
20
66.8361968994141
40
0.0
41
0.0
42
0.0
10
73.9832000732422
20
66.8242034912109
40
0.0
41
0.0
42
0.0
10
74.3012008666992
20
66.7446975708008
40
0.0
41
0.0
42
0.0
10
74.4886016845703
20
66.6735992431641
40
0.0
41
0.0
42
0.0
10
74.7916030883789
20
66.5155029296875
40
0.0
41
0.0
42
0.0
10
74.8198013305664
20
66.4981994628906
40
0.0
41
0.0
42
0.0
10
74.9903030395508
20
66.4088973999023
40
0.0
41
0.0
42
0.0
10
75.3057022094727
20
66.2134017944336
40
0.0
41
0.0
42
0.0
10
75.4905014038086
20
66.1079025268555
40
0.0
41
0.0
42
0.0
10
75.6830978393555
20
65.9945983886719
40
0.0
41
0.0
42
0.0
10
75.8061981201172
20
65.9048004150391
40
0.0
41
0.0
42
0.0
10
75.9904022216797
20
65.8049011230469
40
0.0
41
0.0
42
0.0
10
76.3043975830078
20
65.6127014160156
40
0.0
41
0.0
42
0.0
10
76.4878997802734
20
65.5393981933594
40
0.0
41
0.0
42
0.0
10
76.5621032714844
20
65.5082015991211
40
0.0
41
0.0
42
0.0
10
76.6025009155273
20
65.5001983642578
40
0.0
41
0.0
42
0.0
10
76.7226028442383
20
65.4583969116211
40
0.0
41
0.0
42
0.0
10
76.9888000488281
20
65.1781997680664
40
0.0
41
0.0
42
0.0
10
77.13330078125
20
65.1808013916016
40
0.0
41
0.0
42
0.0
10
77.2279968261719
20
65.1067962646484
40
0.0
41
0.0
42
0.0
10
77.4142990112305
20
65.0009994506836
40
0.0
41
0.0
42
0.0
10
78.2076034545898
20
65.0009994506836
40
0.0
41
0.0
42
0.0
10
78.3510971069336
20
65.1368026733398
40
0.0
41
0.0
42
0.0
10
78.3510971069336
20
65.1632995605469
40
0.0
41
0.0
42
0.0
10
78.2042007446289
20
65.4970016479492
40
0.0
41
0.0
42
0.0
10
78.2938003540039
20
65.5410995483398
40
0.0
41
0.0
42
0.0
10
78.3781967163086
20
65.6367034912109
40
0.0
41
0.0
42
0.0
10
78.4440002441406
20
65.7730026245117
40
0.0
41
0.0
42
0.0
10
78.489501953125
20
65.9901962280273
40
0.0
41
0.0
42
0.0
10
78.5035018920898
20
66.0046997070312
40
0.0
41
0.0
42
0.0
10
78.5145034790039
20
66.0211029052734
40
0.0
41
0.0
42
0.0
10
78.6089019775391
20
66.1363983154297
40
0.0
41
0.0
42
0.0
10
78.7815017700195
20
66.489501953125
40
0.0
41
0.0
42
0.0
10
78.9152984619141
20
66.7373962402344
40
0.0
41
0.0
42
0.0
10
79.0098037719727
20
66.8818969726562
40
0.0
41
0.0
42
0.0
10
79.0590972900391
20
66.9897994995117
40
0.0
41
0.0
42
0.0
10
79.1483001708984
20
67.1352996826172
40
0.0
41
0.0
42
0.0
10
79.440803527832
20
67.7040023803711
40
0.0
41
0.0
42
0.0
10
79.5026016235352
20
67.8061981201172
40
0.0
41
0.0
42
0.0
10
79.5689010620117
20
67.8908004760742
40
0.0
41
0.0
42
0.0
10
79.6323013305664
20
67.9921035766602
40
0.0
41
0.0
42
0.0
10
79.8804016113281
20
68.3087005615234
40
0.0
41
0.0
42
0.0
10
80.0065994262695
20
68.4409027099609
40
0.0
41
0.0
42
0.0
10
80.1051025390625
20
68.5029983520508
40
0.0
41
0.0
42
0.0
10
80.1949996948242
20
68.5466003417969
40
0.0
41
0.0
42
0.0
10
80.511100769043
20
68.736701965332
40
0.0
41
0.0
42
0.0
10
80.8283996582031
20
68.8432006835938
40
0.0
41
0.0
42
0.0
10
81.0139007568359
20
68.9037017822266
40
0.0
41
0.0
42
0.0
10
81.1996994018555
20
68.9552993774414
40
0.0
41
0.0
42
0.0
10
81.5145034790039
20
69.0311965942383
40
0.0
41
0.0
42
0.0
10
81.6996002197266
20
69.08740234375
40
0.0
41
0.0
42
0.0
10
82.0151977539062
20
69.1596984863281
40
0.0
41
0.0
42
0.0
10
82.3290023803711
20
69.2335968017578
40
0.0
41
0.0
42
0.0
10
82.5141983032227
20
69.2994995117188
40
0.0
41
0.0
42
0.0
10
82.8289031982422
20
69.3678970336914
40
0.0
41
0.0
42
0.0
10
82.8666000366211
20
69.3822021484375
40
0.0
41
0.0
42
0.0
10
83.0149002075195
20
69.4533996582031
40
0.0
41
0.0
42
0.0
10
83.3704986572266
20
69.4524993896484
40
0.0
41
0.0
42
0.0
10
83.4093017578125
20
69.4949035644531
40
0.0
41
0.0
42
0.0
10
83.5050964355469
20
69.5805969238281
40
0.0
41
0.0
42
0.0
10
83.5203018188477
20
69.5973968505859
40
0.0
41
0.0
42
0.0
10
83.8143997192383
20
69.8059997558594
40
0.0
41
0.0
42
0.0
10
83.8152008056641
20
69.8057022094727
40
0.0
41
0.0
42
0.0
10
83.8385009765625
20
69.4832992553711
40
0.0
41
0.0
42
0.0
10
83.9499969482422
20
69.0381011962891
40
0.0
41
0.0
42
0.0
10
83.9857025146484
20
68.9884033203125
40
0.0
41
0.0
42
0.0
10
83.9927978515625
20
68.9505004882812
40
0.0
41
0.0
42
0.0
10
84.0179977416992
20
68.5057983398438
40
0.0
41
0.0
42
0.0
10
84.0166015625
20
68.4934997558594
40
0.0
41
0.0
42
0.0
10
84.0167007446289
20
68.4549026489258
40
0.0
41
0.0
42
0.0
10
84.0267028808594
20
68.0093994140625
40
0.0
41
0.0
42
0.0
10
84.0244979858398
20
67.9767990112305
40
0.0
41
0.0
42
0.0
10
84.0283966064453
20
67.4302978515625
40
0.0
41
0.0
42
0.0
10
84.0478973388672
20
66.9834976196289
40
0.0
41
0.0
42
0.0
10
84.1538009643555
20
66.6295013427734
40
0.0
41
0.0
42
0.0
10
84.1751022338867
20
66.4870986938477
40
0.0
41
0.0
42
0.0
10
84.2142028808594
20
66.4214019775391
40
0.0
41
0.0
42
0.0
10
84.4860992431641
20
66.2469024658203
40
0.0
41
0.0
42
0.0
10
84.5105972290039
20
66.2468032836914
40
0.0
41
0.0
42
0.0
10
84.2548980712891
20
66.4111022949219
40
0.0
41
0.0
42
0.0
10
84.1943969726562
20
66.5128021240234
40
0.0
41
0.0
42
0.0
10
84.1663970947266
20
66.7003021240234
40
0.0
41
0.0
42
0.0
10
84.0718002319336
20
67.0164031982422
40
0.0
41
0.0
42
0.0
10
84.0546035766602
20
67.411003112793
40
0.0
41
0.0
42
0.0
10
84.0552978515625
20
67.5198974609375
40
0.0
41
0.0
42
0.0
10
84.0518035888672
20
67.8916015625
40
0.0
41
0.0
42
0.0
10
84.0577011108398
20
67.980598449707
40
0.0
41
0.0
42
0.0
10
84.0576019287109
20
68.0196990966797
40
0.0
41
0.0
42
0.0
10
84.0488967895508
20
68.4088973999023
40
0.0
41
0.0
42
0.0
10
84.0569000244141
20
68.4811019897461
40
0.0
41
0.0
42
0.0
10
84.0568008422852
20
68.519401550293
40
0.0
41
0.0
42
0.0
10
84.0326995849609
20
68.9459991455078
40
0.0
41
0.0
42
0.0
10
84.0416030883789
20
68.9857025146484
40
0.0
41
0.0
42
0.0
10
84.0632019042969
20
69.0476989746094
40
0.0
41
0.0
42
0.0
10
84.063102722168
20
69.0823974609375
40
0.0
41
0.0
42
0.0
10
83.9992980957031
20
69.4635009765625
40
0.0
41
0.0
42
0.0
10
83.9860000610352
20
69.5166015625
40
0.0
41
0.0
42
0.0
10
83.9542999267578
20
69.9527969360352
40
0.0
41
0.0
42
0.0
10
83.9404983520508
20
69.9526977539062
40
0.0
41
0.0
42
0.0
10
83.5149002075195
20
69.6507034301758
40
0.0
41
0.0
42
0.0
10
83.4947967529297
20
69.6286010742188
40
0.0
41
0.0
42
0.0
10
83.3565979003906
20
69.504997253418
40
0.0
41
0.0
42
0.0
10
83.3182983398438
20
69.4629974365234
40
0.0
41
0.0
42
0.0
10
83.2996978759766
20
69.4544982910156
40
0.0
41
0.0
42
0.0
10
82.9847030639648
20
69.4553985595703
40
0.0
41
0.0
42
0.0
10
82.8273010253906
20
69.3797988891602
40
0.0
41
0.0
42
0.0
10
82.4857025146484
20
69.3058013916016
40
0.0
41
0.0
42
0.0
10
82.3408966064453
20
69.2542037963867
40
0.0
41
0.0
42
0.0
10
81.9847030639648
20
69.1704025268555
40
0.0
41
0.0
42
0.0
10
81.6304016113281
20
69.0892028808594
40
0.0
41
0.0
42
0.0
10
81.4854965209961
20
69.0450973510742
40
0.0
41
0.0
42
0.0
10
81.1302032470703
20
68.959098815918
40
0.0
41
0.0
42
0.0
10
80.9860992431641
20
68.9190979003906
40
0.0
41
0.0
42
0.0
10
80.4888000488281
20
68.7537002563477
40
0.0
41
0.0
42
0.0
10
80.1350021362305
20
68.540901184082
40
0.0
41
0.0
42
0.0
10
80.0649032592773
20
68.5067977905273
40
0.0
41
0.0
42
0.0
10
79.9934005737305
20
68.4616012573242
40
0.0
41
0.0
42
0.0
10
79.8972015380859
20
68.361198425293
40
0.0
41
0.0
42
0.0
10
79.6203994750977
20
68.0078964233398
40
0.0
41
0.0
42
0.0
10
79.5490036010742
20
67.893798828125
40
0.0
41
0.0
42
0.0
10
79.497200012207
20
67.8276977539062
40
0.0
41
0.0
42
0.0
10
79.4505004882812
20
67.7507019042969
40
0.0
41
0.0
42
0.0
10
79.3243026733398
20
67.5074005126953
40
0.0
41
0.0
42
0.0
10
79.1605987548828
20
67.1856002807617
40
0.0
41
0.0
42
0.0
10
79.0531005859375
20
67.0101013183594
40
0.0
41
0.0
42
0.0
10
79.0091018676758
20
66.9136962890625
40
0.0
41
0.0
42
0.0
10
78.8874969482422
20
66.7281036376953
40
0.0
41
0.0
42
0.0
10
78.7699966430664
20
66.5103988647461
40
0.0
41
0.0
42
0.0
10
78.6153030395508
20
66.1934967041016
40
0.0
41
0.0
42
0.0
10
78.5297012329102
20
66.0891036987305
40
0.0
41
0.0
42
0.0
10
78.4962997436523
20
66.0393981933594
40
0.0
41
0.0
42
0.0
10
78.4675979614258
20
66.0096969604492
40
0.0
41
0.0
42
0.0
10
78.4287033081055
20
65.8234024047852
40
0.0
41
0.0
42
0.0
10
78.3657989501953
20
65.6931991577148
40
0.0
41
0.0
42
0.0
10
78.2474975585938
20
65.559196472168
40
0.0
41
0.0
42
0.0
10
78.1410980224609
20
65.5068969726562
40
0.0
41
0.0
42
0.0
10
78.140998840332
20
65.4843978881836
40
0.0
41
0.0
42
0.0
10
78.2429962158203
20
65.2527008056641
40
0.0
41
0.0
42
0.0
10
77.9891967773438
20
65.0124969482422
40
0.0
41
0.0
42
0.0
10
77.5466003417969
20
65.0258026123047
40
0.0
41
0.0
42
0.0
10
77.5139007568359
20
65.0257034301758
40
0.0
41
0.0
42
0.0
10
77.4988021850586
20
65.0142974853516
40
0.0
41
0.0
42
0.0
10
77.274299621582
20
65.1419982910156
40
0.0
41
0.0
42
0.0
10
77.1978988647461
20
65.2017974853516
40
0.0
41
0.0
42
0.0
10
77.0102005004883
20
65.197998046875
40
0.0
41
0.0
42
0.0
10
76.7692031860352
20
65.4516983032227
40
0.0
41
0.0
42
0.0
10
76.6322021484375
20
65.4994964599609
40
0.0
41
0.0
42
0.0
10
76.5995025634766
20
65.5059967041016
40
0.0
41
0.0
42
0.0
10
76.5119018554688
20
65.5428009033203
40
0.0
41
0.0
42
0.0
10
76.3655014038086
20
65.6011962890625
40
0.0
41
0.0
42
0.0
10
76.0093994140625
20
65.8192977905273
40
0.0
41
0.0
42
0.0
10
75.8637008666992
20
65.8983001708984
40
0.0
41
0.0
42
0.0
10
75.7244033813477
20
66.0000991821289
40
0.0
41
0.0
42
0.0
10
75.5093994140625
20
66.1264038085938
40
0.0
41
0.0
42
0.0
10
75.3641967773438
20
66.2092971801758
40
0.0
41
0.0
42
0.0
10
75.0094985961914
20
66.4292984008789
40
0.0
41
0.0
42
0.0
10
74.8712997436523
20
66.5016021728516
40
0.0
41
0.0
42
0.0
10
74.8491973876953
20
66.5150985717773
40
0.0
41
0.0
42
0.0
10
74.5112991333008
20
66.6913986206055
40
0.0
41
0.0
42
0.0
10
74.3685989379883
20
66.7456970214844
40
0.0
41
0.0
42
0.0
10
74.0166015625
20
66.8337020874023
40
0.0
41
0.0
42
0.0
10
73.8741989135742
20
66.8438034057617
40
0.0
41
0.0
42
0.0
10
73.8355026245117
20
66.8436965942383
40
0.0
41
0.0
42
0.0
10
73.4821014404297
20
66.8242034912109
40
0.0
41
0.0
42
0.0
10
73.3391036987305
20
66.8021011352539
40
0.0
41
0.0
42
0.0
10
72.8406982421875
20
66.6766967773438
40
0.0
41
0.0
42
0.0
10
72.4857025146484
20
66.5628967285156
40
0.0
41
0.0
42
0.0
10
72.3774032592773
20
66.5364990234375
40
0.0
41
0.0
42
0.0
10
72.2601013183594
20
66.5
40
0.0
41
0.0
42
0.0
10
72.063102722168
20
66.4256973266602
40
0.0
41
0.0
42
0.0
10
71.9848022460938
20
66.4056015014648
40
0.0
41
0.0
42
0.0
10
71.8006973266602
20
66.366096496582
40
0.0
41
0.0
42
0.0
10
71.4849014282227
20
66.2550964355469
40
0.0
41
0.0
42
0.0
10
71.2997970581055
20
66.2300033569336
40
0.0
41
0.0
42
0.0
10
70.9834976196289
20
66.1215972900391
40
0.0
41
0.0
42
0.0
10
70.7978973388672
20
66.1204986572266
40
0.0
41
0.0
42
0.0
10
70.4837036132812
20
66.0336990356445
40
0.0
41
0.0
42
0.0
10
70.1119003295898
20
66.0008010864258
40
0.0
41
0.0
42
0.0
10
70.1119003295898
20
65.9862976074219
40
0.0
41
0.0
42
0.0
10
70.2608032226562
20
65.7667999267578
40
0.0
41
0.0
42
0.0
10
70.1352996826172
20
65.5149993896484
40
0.0
41
0.0
42
0.0
10
70.1352005004883
20
65.4870986938477
40
0.0
41
0.0
42
0.0
10
70.2929992675781
20
65.284797668457
40
0.0
41
0.0
42
0.0
10
70.3972015380859
20
65.0009994506836
40
0.0
41
0.0
42
0.0
210
0.0
220
0.0
230
1.0
0
LWPOLYLINE
5
28
330
1C
100
AcDbEntity
67
0
8
0
62
256
6
ByLayer
370
-1
48
1.0
60
0
100
AcDbPolyline
90
7
70
1
38
0.0
39
0.0
10
84.8033981323242
20
66.2593994140625
40
0.0
41
0.0
42
0.0
10
84.9832000732422
20
66.2018966674805
40
0.0
41
0.0
42
0.0
10
84.9990005493164
20
66.2018966674805
40
0.0
41
0.0
42
0.0
10
84.9989013671875
20
66.2200012207031
40
0.0
41
0.0
42
0.0
10
84.871696472168
20
66.2610015869141
40
0.0
41
0.0
42
0.0
10
84.8354034423828
20
66.2609024047852
40
0.0
41
0.0
42
0.0
10
84.8033981323242
20
66.2593994140625
40
0.0
41
0.0
42
0.0
210
0.0
220
0.0
230
1.0
0
LWPOLYLINE
5
29
330
1C
100
AcDbEntity
67
0
8
0
62
256
6
ByLayer
370
-1
48
1.0
60
0
100
AcDbPolyline
90
13
70
1
38
0.0
39
0.0
10
73.890998840332
20
75.4868011474609
40
0.0
41
0.0
42
0.0
10
73.9369964599609
20
75.4237976074219
40
0.0
41
0.0
42
0.0
10
73.9887008666992
20
75.3721008300781
40
0.0
41
0.0
42
0.0
10
74.013298034668
20
75.3720016479492
40
0.0
41
0.0
42
0.0
10
74.1064987182617
20
75.4376983642578
40
0.0
41
0.0
42
0.0
10
74.1724014282227
20
75.4900970458984
40
0.0
41
0.0
42
0.0
10
74.1723022460938
20
75.5065994262695
40
0.0
41
0.0
42
0.0
10
74.0841979980469
20
75.5483016967773
40
0.0
41
0.0
42
0.0
10
74.0141983032227
20
75.5903015136719
40
0.0
41
0.0
42
0.0
10
73.9881973266602
20
75.590202331543
40
0.0
41
0.0
42
0.0
10
73.9422988891602
20
75.5479965209961
40
0.0
41
0.0
42
0.0
10
73.8910980224609
20
75.5094985961914
40
0.0
41
0.0
42
0.0
10
73.890998840332
20
75.4868011474609
40
0.0
41
0.0
42
0.0
210
0.0
220
0.0
230
1.0
0
LWPOLYLINE
5
2A
330
1C
100
AcDbEntity
67
0
8
0
62
256
6
ByLayer
370
-1
48
1.0
60
0
100
AcDbPolyline
90
9
70
1
38
0.0
39
0.0
10
74.0016021728516
20
75.5781021118164
40
0.0
41
0.0
42
0.0
10
74.0734024047852
20
75.5352020263672
40
0.0
41
0.0
42
0.0
10
74.1492004394531
20
75.499397277832
40
0.0
41
0.0
42
0.0
10
74.070198059082
20
75.4365997314453
40
0.0
41
0.0
42
0.0
10
74.0010986328125
20
75.3878021240234
40
0.0
41
0.0
42
0.0
10
73.9375
20
75.4514999389648
40
0.0
41
0.0
42
0.0
10
73.9032974243164
20
75.4984970092773
40
0.0
41
0.0
42
0.0
10
73.9664993286133
20
75.5458984375
40
0.0
41
0.0
42
0.0
10
74.0016021728516
20
75.5781021118164
40
0.0
41
0.0
42
0.0
210
0.0
220
0.0
230
1.0
0
LWPOLYLINE
5
2B
330
1C
100
AcDbEntity
67
0
8
0
62
256
6
ByLayer
370
-1
48
1.0
60
0
100
AcDbPolyline
90
13
70
1
38
0.0
39
0.0
10
74.4095001220703
20
73.9880981445312
40
0.0
41
0.0
42
0.0
10
74.4516983032227
20
73.9422988891602
40
0.0
41
0.0
42
0.0
10
74.4904022216797
20
73.8910980224609
40
0.0
41
0.0
42
0.0
10
74.5130996704102
20
73.8910980224609
40
0.0
41
0.0
42
0.0
10
74.5759963989258
20
73.9371032714844
40
0.0
41
0.0
42
0.0
10
74.627799987793
20
73.9887008666992
40
0.0
41
0.0
42
0.0
10
74.6277008056641
20
74.013298034668
40
0.0
41
0.0
42
0.0
10
74.5621032714844
20
74.1063995361328
40
0.0
41
0.0
42
0.0
10
74.5098037719727
20
74.1724014282227
40
0.0
41
0.0
42
0.0
10
74.4932022094727
20
74.1724014282227
40
0.0
41
0.0
42
0.0
10
74.4514007568359
20
74.0841979980469
40
0.0
41
0.0
42
0.0
10
74.4095993041992
20
74.0141983032227
40
0.0
41
0.0
42
0.0
10
74.4095001220703
20
73.9880981445312
40
0.0
41
0.0
42
0.0
210
0.0
220
0.0
230
1.0
0
LWPOLYLINE
5
2C
330
1C
100
AcDbEntity
67
0
8
0
62
256
6
ByLayer
370
-1
48
1.0
60
0
100
AcDbPolyline
90
9
70
1
38
0.0
39
0.0
10
74.4645004272461
20
74.0735015869141
40
0.0
41
0.0
42
0.0
10
74.500602722168
20
74.1490020751953
40
0.0
41
0.0
42
0.0
10
74.5632019042969
20
74.070198059082
40
0.0
41
0.0
42
0.0
10
74.6119003295898
20
74.0010986328125
40
0.0
41
0.0
42
0.0
10
74.5483016967773
20
73.9375
40
0.0
41
0.0
42
0.0
10
74.5014038085938
20
73.9031982421875
40
0.0
41
0.0
42
0.0
10
74.4537963867188
20
73.9664001464844
40
0.0
41
0.0
42
0.0
10
74.421501159668
20
74.0015029907227
40
0.0
41
0.0
42
0.0
10
74.4645004272461
20
74.0735015869141
40
0.0
41
0.0
42
0.0
210
0.0
220
0.0
230
1.0
0
LWPOLYLINE
5
2D
330
1C
100
AcDbEntity
67
0
8
0
62
256
6
ByLayer
370
-1
48
1.0
60
0
100
AcDbPolyline
90
9
70
1
38
0.0
39
0.0
10
74.6455001831055
20
74.9886016845703
40
0.0
41
0.0
42
0.0
10
74.9886016845703
20
74.6455993652344
40
0.0
41
0.0
42
0.0
10
75.0111999511719
20
74.6455993652344
40
0.0
41
0.0
42
0.0
10
75.3543014526367
20
74.9886016845703
40
0.0
41
0.0
42
0.0
10
75.3542022705078
20
75.0111999511719
40
0.0
41
0.0
42
0.0
10
75.0112991333008
20
75.3543014526367
40
0.0
41
0.0
42
0.0
10
74.9886016845703
20
75.3542022705078
40
0.0
41
0.0
42
0.0
10
74.6455993652344
20
75.0111999511719
40
0.0
41
0.0
42
0.0
10
74.6455001831055
20
74.9886016845703
40
0.0
41
0.0
42
0.0
210
0.0
220
0.0
230
1.0
0
LWPOLYLINE
5
2E
330
1C
100
AcDbEntity
67
0
8
0
62
256
6
ByLayer
370
-1
48
1.0
60
0
100
AcDbPolyline
90
5
70
1
38
0.0
39
0.0
10
75.0
20
75.3337020874023
40
0.0
41
0.0
42
0.0
10
75.3338012695312
20
75.0
40
0.0
41
0.0
42
0.0
10
75.0
20
74.6658020019531
40
0.0
41
0.0
42
0.0
10
74.6660003662109
20
75.0
40
0.0
41
0.0
42
0.0
10
75.0
20
75.3337020874023
40
0.0
41
0.0
42
0.0
210
0.0
220
0.0
230
1.0
0
LWPOLYLINE
5
2F
330
1C
100
AcDbEntity
67
0
8
0
62
256
6
ByLayer
370
-1
48
1.0
60
0
100
AcDbPolyline
90
13
70
1
38
0.0
39
0.0
10
75.3719024658203
20
75.9866027832031
40
0.0
41
0.0
42
0.0
10
75.4375991821289
20
75.8933029174805
40
0.0
41
0.0
42
0.0
10
75.4900970458984
20
75.8274993896484
40
0.0
41
0.0
42
0.0
10
75.5066986083984
20
75.8274002075195
40
0.0
41
0.0
42
0.0
10
75.5484008789062
20
75.9156036376953
40
0.0
41
0.0
42
0.0
10
75.5903015136719
20
75.9857025146484
40
0.0
41
0.0
42
0.0
10
75.590202331543
20
76.0117034912109
40
0.0
41
0.0
42
0.0
10
75.5479965209961
20
76.0574035644531
40
0.0
41
0.0
42
0.0
10
75.5094985961914
20
76.1088027954102
40
0.0
41
0.0
42
0.0
10
75.4868011474609
20
76.1088027954102
40
0.0
41
0.0
42
0.0
10
75.4237976074219
20
76.0626983642578
40
0.0
41
0.0
42
0.0
10
75.3721008300781
20
76.0111999511719
40
0.0
41
0.0
42
0.0
10
75.3719024658203
20
75.9866027832031
40
0.0
41
0.0
42
0.0
210
0.0
220
0.0
230
1.0
0
LWPOLYLINE
5
30
330
1C
100
AcDbEntity
67
0
8
0
62
256
6
ByLayer
370
-1
48
1.0
60
0
100
AcDbPolyline
90
9
70
1
38
0.0
39
0.0
10
75.4984970092773
20
76.0964965820312
40
0.0
41
0.0
42
0.0
10
75.5458984375
20
76.0333023071289
40
0.0
41
0.0
42
0.0
10
75.5782012939453
20
75.9983978271484
40
0.0
41
0.0
42
0.0
10
75.5352020263672
20
75.926399230957
40
0.0
41
0.0
42
0.0
10
75.499397277832
20
75.8505020141602
40
0.0
41
0.0
42
0.0
10
75.4365005493164
20
75.9296035766602
40
0.0
41
0.0
42
0.0
10
75.3879013061523
20
75.9988021850586
40
0.0
41
0.0
42
0.0
10
75.4515991210938
20
76.0622024536133
40
0.0
41
0.0
42
0.0
10
75.4984970092773
20
76.0964965820312
40
0.0
41
0.0
42
0.0
210
0.0
220
0.0
230
1.0
0
LWPOLYLINE
5
31
330
1C
100
AcDbEntity
67
0
8
0
62
256
6
ByLayer
370
-1
48
1.0
60
0
100
AcDbPolyline
90
13
70
1
38
0.0
39
0.0
10
75.8274002075195
20
74.4932022094727
40
0.0
41
0.0
42
0.0
10
75.9154968261719
20
74.451301574707
40
0.0
41
0.0
42
0.0
10
75.9857025146484
20
74.4095993041992
40
0.0
41
0.0
42
0.0
10
76.0117034912109
20
74.4095993041992
40
0.0
41
0.0
42
0.0
10
76.057502746582
20
74.4517974853516
40
0.0
41
0.0
42
0.0
10
76.1088027954102
20
74.4904022216797
40
0.0
41
0.0
42
0.0
10
76.1085968017578
20
74.5130996704102
40
0.0
41
0.0
42
0.0
10
76.0626983642578
20
74.5758972167969
40
0.0
41
0.0
42
0.0
10
76.0111999511719
20
74.627799987793
40
0.0
41
0.0
42
0.0
10
75.9866027832031
20
74.627799987793
40
0.0
41
0.0
42
0.0
10
75.8933029174805
20
74.5621032714844
40
0.0
41
0.0
42
0.0
10
75.8274993896484
20
74.5098037719727
40
0.0
41
0.0
42
0.0
10
75.8274002075195
20
74.4932022094727
40
0.0
41
0.0
42
0.0
210
0.0
220
0.0
230
1.0
0
LWPOLYLINE
5
32
330
1C
100
AcDbEntity
67
0
8
0
62
256
6
ByLayer
370
-1
48
1.0
60
0
100
AcDbPolyline
90
9
70
1
38
0.0
39
0.0
10
75.9297027587891
20
74.5632019042969
40
0.0
41
0.0
42
0.0
10
75.9988021850586
20
74.6118011474609
40
0.0
41
0.0
42
0.0
10
76.0622024536133
20
74.5482025146484
40
0.0
41
0.0
42
0.0
10
76.0966033935547
20
74.5014038085938
40
0.0
41
0.0
42
0.0
10
76.0333023071289
20
74.4539031982422
40
0.0
41
0.0
42
0.0
10
75.9983978271484
20
74.421501159668
40
0.0
41
0.0
42
0.0
10
75.9263000488281
20
74.4645004272461
40
0.0
41
0.0
42
0.0
10
75.8506011962891
20
74.500602722168
40
0.0
41
0.0
42
0.0
10
75.9297027587891
20
74.5632019042969
40
0.0
41
0.0
42
0.0
210
0.0
220
0.0
230
1.0
0
LWPOLYLINE
5
33
330
1C
100
AcDbEntity
67
0
8
0
62
256
6
ByLayer
370
-1
48
1.0
60
0
100
AcDbPolyline
90
208
70
1
38
0.0
39
0.0
10
80.3711013793945
20
83.4946975708008
40
0.0
41
0.0
42
0.0
10
80.4947967529297
20
83.3564987182617
40
0.0
41
0.0
42
0.0
10
80.5366973876953
20
83.3181991577148
40
0.0
41
0.0
42
0.0
10
80.5451965332031
20
83.2996978759766
40
0.0
41
0.0
42
0.0
10
80.5442962646484
20
82.9822006225586
40
0.0
41
0.0
42
0.0
10
80.6119003295898
20
82.6703033447266
40
0.0
41
0.0
42
0.0
10
80.6237030029297
20
82.6325988769531
40
0.0
41
0.0
42
0.0
10
80.6937026977539
20
82.4869995117188
40
0.0
41
0.0
42
0.0
10
80.7774963378906
20
82.1308975219727
40
0.0
41
0.0
42
0.0
10
80.8292007446289
20
81.9858016967773
40
0.0
41
0.0
42
0.0
10
80.9104995727539
20
81.6303024291992
40
0.0
41
0.0
42
0.0
10
80.9545974731445
20
81.4854965209961
40
0.0
41
0.0
42
0.0
10
81.0406036376953
20
81.1302032470703
40
0.0
41
0.0
42
0.0
10
81.0805969238281
20
80.9860992431641
40
0.0
41
0.0
42
0.0
10
81.1996002197266
20
80.6315002441406
40
0.0
41
0.0
42
0.0
10
81.2461013793945
20
80.4887008666992
40
0.0
41
0.0
42
0.0
10
81.4588012695312
20
80.1349029541016
40
0.0
41
0.0
42
0.0
10
81.4928970336914
20
80.0649032592773
40
0.0
41
0.0
42
0.0
10
81.538200378418
20
79.9933013916016
40
0.0
41
0.0
42
0.0
10
81.6411972045898
20
79.8952026367188
40
0.0
41
0.0
42
0.0
10
81.9919967651367
20
79.6203994750977
40
0.0
41
0.0
42
0.0
10
82.1060028076172
20
79.5488967895508
40
0.0
41
0.0
42
0.0
10
82.1719970703125
20
79.497200012207
40
0.0
41
0.0
42
0.0
10
82.2491989135742
20
79.4505004882812
40
0.0
41
0.0
42
0.0
10
82.492301940918
20
79.3243026733398
40
0.0
41
0.0
42
0.0
10
82.8143005371094
20
79.1605987548828
40
0.0
41
0.0
42
0.0
10
82.9897994995117
20
79.0530014038086
40
0.0
41
0.0
42
0.0
10
83.0860977172852
20
79.0090026855469
40
0.0
41
0.0
42
0.0
10
83.2716979980469
20
78.8873977661133
40
0.0
41
0.0
42
0.0
10
83.489501953125
20
78.7699966430664
40
0.0
41
0.0
42
0.0
10
83.8062973022461
20
78.6151962280273
40
0.0
41
0.0
42
0.0
10
83.9106979370117
20
78.5297012329102
40
0.0
41
0.0
42
0.0
10
83.9602966308594
20
78.4962997436523
40
0.0
41
0.0
42
0.0
10
83.9940032958984
20
78.4638977050781
40
0.0
41
0.0
42
0.0
10
84.1845016479492
20
78.3046035766602
40
0.0
41
0.0
42
0.0
10
84.4852981567383
20
78.1410980224609
40
0.0
41
0.0
42
0.0
10
84.5155029296875
20
78.140998840332
40
0.0
41
0.0
42
0.0
10
84.7471008300781
20
78.2429962158203
40
0.0
41
0.0
42
0.0
10
84.9871978759766
20
77.9891967773438
40
0.0
41
0.0
42
0.0
10
84.9738998413086
20
77.5466003417969
40
0.0
41
0.0
42
0.0
10
84.9739990234375
20
77.513801574707
40
0.0
41
0.0
42
0.0
10
84.9853973388672
20
77.4988021850586
40
0.0
41
0.0
42
0.0
10
84.8576965332031
20
77.274299621582
40
0.0
41
0.0
42
0.0
10
84.7978973388672
20
77.1978988647461
40
0.0
41
0.0
42
0.0
10
84.8016967773438
20
77.0102005004883
40
0.0
41
0.0
42
0.0
10
84.5479965209961
20
76.7692031860352
40
0.0
41
0.0
42
0.0
10
84.5001983642578
20
76.6322021484375
40
0.0
41
0.0
42
0.0
10
84.4936981201172
20
76.5995025634766
40
0.0
41
0.0
42
0.0
10
84.4561996459961
20
76.5102996826172
40
0.0
41
0.0
42
0.0
10
84.238899230957
20
76.1555023193359
40
0.0
41
0.0
42
0.0
10
84.1812973022461
20
76.0110015869141
40
0.0
41
0.0
42
0.0
10
84.1014022827148
20
75.8637008666992
40
0.0
41
0.0
42
0.0
10
83.9996032714844
20
75.7245025634766
40
0.0
41
0.0
42
0.0
10
83.8732986450195
20
75.5093994140625
40
0.0
41
0.0
42
0.0
10
83.790397644043
20
75.3641967773438
40
0.0
41
0.0
42
0.0
10
83.5703964233398
20
75.0094985961914
40
0.0
41
0.0
42
0.0
10
83.4981994628906
20
74.8712997436523
40
0.0
41
0.0
42
0.0
10
83.4845962524414
20
74.8491973876953
40
0.0
41
0.0
42
0.0
10
83.3088989257812
20
74.5124969482422
40
0.0
41
0.0
42
0.0
10
83.2202987670898
20
74.1586990356445
40
0.0
41
0.0
42
0.0
10
83.1662979125977
20
74.0160980224609
40
0.0
41
0.0
42
0.0
10
83.1661987304688
20
73.9804992675781
40
0.0
41
0.0
42
0.0
10
83.1846008300781
20
73.6473007202148
40
0.0
41
0.0
42
0.0
10
83.1756973266602
20
73.5192031860352
40
0.0
41
0.0
42
0.0
10
83.1755981445312
20
73.4825973510742
40
0.0
41
0.0
42
0.0
10
83.2652969360352
20
73.1290969848633
40
0.0
41
0.0
42
0.0
10
83.2876968383789
20
72.9848022460938
40
0.0
41
0.0
42
0.0
10
83.3979034423828
20
72.6439971923828
40
0.0
41
0.0
42
0.0
10
83.4632034301758
20
72.3774032592773
40
0.0
41
0.0
42
0.0
10
83.4998016357422
20
72.2601013183594
40
0.0
41
0.0
42
0.0
10
83.5739974975586
20
72.063102722168
40
0.0
41
0.0
42
0.0
10
83.5936965942383
20
71.9860000610352
40
0.0
41
0.0
42
0.0
10
83.7046966552734
20
71.6706008911133
40
0.0
41
0.0
42
0.0
10
83.7443008422852
20
71.4856033325195
40
0.0
41
0.0
42
0.0
10
83.8526992797852
20
71.1697998046875
40
0.0
41
0.0
42
0.0
10
83.8780975341797
20
70.9813995361328
40
0.0
41
0.0
42
0.0
10
83.8792037963867
20
70.7977981567383
40
0.0
41
0.0
42
0.0
10
83.9660034179688
20
70.4837036132812
40
0.0
41
0.0
42
0.0
10
84.0003967285156
20
70.0977020263672
40
0.0
41
0.0
42
0.0
10
84.0333023071289
20
70.0423965454102
40
0.0
41
0.0
42
0.0
10
84.0594024658203
20
70.0425033569336
40
0.0
41
0.0
42
0.0
10
84.5131988525391
20
70.1343002319336
40
0.0
41
0.0
42
0.0
10
84.7674026489258
20
70.2558975219727
40
0.0
41
0.0
42
0.0
10
84.9990005493164
20
70.3945007324219
40
0.0
41
0.0
42
0.0
10
84.9990005493164
20
70.478401184082
40
0.0
41
0.0
42
0.0
10
84.9858016967773
20
70.4783020019531
40
0.0
41
0.0
42
0.0
10
84.9386978149414
20
70.4502029418945
40
0.0
41
0.0
42
0.0
10
84.486701965332
20
70.2341003417969
40
0.0
41
0.0
42
0.0
10
84.1719970703125
20
70.1703033447266
40
0.0
41
0.0
42
0.0
10
83.999397277832
20
70.4589004516602
40
0.0
41
0.0
42
0.0
10
83.9942016601562
20
70.5161972045898
40
0.0
41
0.0
42
0.0
10
83.8960037231445
20
70.8721008300781
40
0.0
41
0.0
42
0.0
10
83.8952026367188
20
71.0185012817383
40
0.0
41
0.0
42
0.0
10
83.8759002685547
20
71.1601028442383
40
0.0
41
0.0
42
0.0
10
83.7544021606445
20
71.5142974853516
40
0.0
41
0.0
42
0.0
10
83.7232971191406
20
71.6592025756836
40
0.0
41
0.0
42
0.0
10
83.5987014770508
20
72.013801574707
40
0.0
41
0.0
42
0.0
10
83.5832977294922
20
72.0737991333008
40
0.0
41
0.0
42
0.0
10
83.5
20
72.2947998046875
40
0.0
41
0.0
42
0.0
10
83.4580993652344
20
72.4294967651367
40
0.0
41
0.0
42
0.0
10
83.3908996582031
20
72.6992034912109
40
0.0
41
0.0
42
0.0
10
83.2886962890625
20
73.0150985717773
40
0.0
41
0.0
42
0.0
10
83.2599029541016
20
73.2006988525391
40
0.0
41
0.0
42
0.0
10
83.1816024780273
20
73.5093994140625
40
0.0
41
0.0
42
0.0
10
83.1928024291992
20
73.6657028198242
40
0.0
41
0.0
42
0.0
10
83.1927032470703
20
73.7043991088867
40
0.0
41
0.0
42
0.0
10
83.1771011352539
20
73.9882965087891
40
0.0
41
0.0
42
0.0
10
83.2464981079102
20
74.1712036132812
40
0.0
41
0.0
42
0.0
10
83.3255004882812
20
74.4875030517578
40
0.0
41
0.0
42
0.0
10
83.4842987060547
20
74.7916030883789
40
0.0
41
0.0
42
0.0
10
83.5016021728516
20
74.8199005126953
40
0.0
41
0.0
42
0.0
10
83.5907974243164
20
74.9904022216797
40
0.0
41
0.0
42
0.0
10
83.7863998413086
20
75.3057022094727
40
0.0
41
0.0
42
0.0
10
83.8917999267578
20
75.4905014038086
40
0.0
41
0.0
42
0.0
10
84.0050964355469
20
75.6831970214844
40
0.0
41
0.0
42
0.0
10
84.0949020385742
20
75.8061981201172
40
0.0
41
0.0
42
0.0
10
84.1939010620117
20
75.988899230957
40
0.0
41
0.0
42
0.0
10
84.2679977416992
20
76.1744003295898
40
0.0
41
0.0
42
0.0
10
84.4609985351562
20
76.4894027709961
40
0.0
41
0.0
42
0.0
10
84.4916000366211
20
76.5621032714844
40
0.0
41
0.0
42
0.0
10
84.4998016357422
20
76.6033020019531
40
0.0
41
0.0
42
0.0
10
84.5413970947266
20
76.7227020263672
40
0.0
41
0.0
42
0.0
10
84.8215026855469
20
76.9888000488281
40
0.0
41
0.0
42
0.0
10
84.8189010620117
20
77.13330078125
40
0.0
41
0.0
42
0.0
10
84.8929977416992
20
77.2281036376953
40
0.0
41
0.0
42
0.0
10
84.9990005493164
20
77.4142990112305
40
0.0
41
0.0
42
0.0
10
84.9989013671875
20
78.2074966430664
40
0.0
41
0.0
42
0.0
10
84.8629989624023
20
78.3510971069336
40
0.0
41
0.0
42
0.0
10
84.8365020751953
20
78.3510971069336
40
0.0
41
0.0
42
0.0
10
84.5010986328125
20
78.203498840332
40
0.0
41
0.0
42
0.0
10
84.0754013061523
20
78.4348983764648
40
0.0
41
0.0
42
0.0
10
83.9956970214844
20
78.5030975341797
40
0.0
41
0.0
42
0.0
10
83.9786987304688
20
78.5145034790039
40
0.0
41
0.0
42
0.0
10
83.8635025024414
20
78.6089019775391
40
0.0
41
0.0
42
0.0
10
83.5102996826172
20
78.7814025878906
40
0.0
41
0.0
42
0.0
10
83.2622985839844
20
78.9151992797852
40
0.0
41
0.0
42
0.0
10
83.1178970336914
20
79.0098037719727
40
0.0
41
0.0
42
0.0
10
83.0101013183594
20
79.0590972900391
40
0.0
41
0.0
42
0.0
10
82.8646011352539
20
79.1483001708984
40
0.0
41
0.0
42
0.0
10
82.2957992553711
20
79.440803527832
40
0.0
41
0.0
42
0.0
10
82.193603515625
20
79.5026016235352
40
0.0
41
0.0
42
0.0
10
82.1089019775391
20
79.5688018798828
40
0.0
41
0.0
42
0.0
10
82.0077972412109
20
79.6323013305664
40
0.0
41
0.0
42
0.0
10
81.6912002563477
20
79.8803024291992
40
0.0
41
0.0
42
0.0
10
81.5587997436523
20
80.0065002441406
40
0.0
41
0.0
42
0.0
10
81.496696472168
20
80.1050033569336
40
0.0
41
0.0
42
0.0
10
81.4531021118164
20
80.1949005126953
40
0.0
41
0.0
42
0.0
10
81.2630004882812
20
80.511100769043
40
0.0
41
0.0
42
0.0
10
81.2018966674805
20
80.6983032226562
40
0.0
41
0.0
42
0.0
10
81.0960998535156
20
81.013801574707
40
0.0
41
0.0
42
0.0
10
81.0444030761719
20
81.1996002197266
40
0.0
41
0.0
42
0.0
10
80.9684982299805
20
81.5143966674805
40
0.0
41
0.0
42
0.0
10
80.9123001098633
20
81.6995010375977
40
0.0
41
0.0
42
0.0
10
80.8403015136719
20
82.0140991210938
40
0.0
41
0.0
42
0.0
10
80.7744979858398
20
82.1989974975586
40
0.0
41
0.0
42
0.0
10
80.7005996704102
20
82.5129013061523
40
0.0
41
0.0
42
0.0
10
80.6185989379883
20
82.6836013793945
40
0.0
41
0.0
42
0.0
10
80.5463027954102
20
83.0170974731445
40
0.0
41
0.0
42
0.0
10
80.5473022460938
20
83.3703994750977
40
0.0
41
0.0
42
0.0
10
80.5037994384766
20
83.4105987548828
40
0.0
41
0.0
42
0.0
10
80.4191970825195
20
83.504997253418
40
0.0
41
0.0
42
0.0
10
80.4022979736328
20
83.5202026367188
40
0.0
41
0.0
42
0.0
10
80.1939010620117
20
83.8143997192383
40
0.0
41
0.0
42
0.0
10
80.1941986083984
20
83.8152008056641
40
0.0
41
0.0
42
0.0
10
80.5166015625
20
83.8385009765625
40
0.0
41
0.0
42
0.0
10
80.9617004394531
20
83.9499969482422
40
0.0
41
0.0
42
0.0
10
81.0114974975586
20
83.9857025146484
40
0.0
41
0.0
42
0.0
10
81.0493011474609
20
83.9927978515625
40
0.0
41
0.0
42
0.0
10
81.4941024780273
20
84.0178985595703
40
0.0
41
0.0
42
0.0
10
81.5063018798828
20
84.0166015625
40
0.0
41
0.0
42
0.0
10
81.5448989868164
20
84.0167007446289
40
0.0
41
0.0
42
0.0
10
81.9905014038086
20
84.0267028808594
40
0.0
41
0.0
42
0.0
10
82.0230026245117
20
84.0244979858398
40
0.0
41
0.0
42
0.0
10
82.5695037841797
20
84.0283966064453
40
0.0
41
0.0
42
0.0
10
83.0164031982422
20
84.0478973388672
40
0.0
41
0.0
42
0.0
10
83.3703994750977
20
84.1538009643555
40
0.0
41
0.0
42
0.0
10
83.5128021240234
20
84.1751022338867
40
0.0
41
0.0
42
0.0
10
83.5783004760742
20
84.2143020629883
40
0.0
41
0.0
42
0.0
10
83.7547988891602
20
84.4889984130859
40
0.0
41
0.0
42
0.0
10
83.8123016357422
20
84.6681976318359
40
0.0
41
0.0
42
0.0
10
83.8122024536133
20
84.7044982910156
40
0.0
41
0.0
42
0.0
10
83.7988967895508
20
84.9990005493164
40
0.0
41
0.0
42
0.0
10
83.7853012084961
20
84.9990005493164
40
0.0
41
0.0
42
0.0
10
83.7853012084961
20
84.9804000854492
40
0.0
41
0.0
42
0.0
10
83.8000030517578
20
84.6574020385742
40
0.0
41
0.0
42
0.0
10
83.7529983520508
20
84.5109024047852
40
0.0
41
0.0
42
0.0
10
83.5886993408203
20
84.2548980712891
40
0.0
41
0.0
42
0.0
10
83.4870986938477
20
84.1943969726562
40
0.0
41
0.0
42
0.0
10
83.2994995117188
20
84.1663970947266
40
0.0
41
0.0
42
0.0
10
82.9834976196289
20
84.0718002319336
40
0.0
41
0.0
42
0.0
10
82.5887985229492
20
84.0546035766602
40
0.0
41
0.0
42
0.0
10
82.4800033569336
20
84.0552978515625
40
0.0
41
0.0
42
0.0
10
82.1082000732422
20
84.0518035888672
40
0.0
41
0.0
42
0.0
10
82.0193023681641
20
84.0577011108398
40
0.0
41
0.0
42
0.0
10
81.9802017211914
20
84.0576019287109
40
0.0
41
0.0
42
0.0
10
81.5908966064453
20
84.0488967895508
40
0.0
41
0.0
42
0.0
10
81.518798828125
20
84.0569000244141
40
0.0
41
0.0
42
0.0
10
81.4804992675781
20
84.0568008422852
40
0.0
41
0.0
42
0.0
10
81.0538024902344
20
84.0326995849609
40
0.0
41
0.0
42
0.0
10
81.0141983032227
20
84.0416030883789
40
0.0
41
0.0
42
0.0
10
80.9522018432617
20
84.0632019042969
40
0.0
41
0.0
42
0.0
10
80.9173965454102
20
84.063102722168
40
0.0
41
0.0
42
0.0
10
80.5363006591797
20
83.999397277832
40
0.0
41
0.0
42
0.0
10
80.4832992553711
20
83.9860000610352
40
0.0
41
0.0
42
0.0
10
80.0468978881836
20
83.9543991088867
40
0.0
41
0.0
42
0.0
10
80.0469970703125
20
83.9404983520508
40
0.0
41
0.0
42
0.0
10
80.3489990234375
20
83.5148010253906
40
0.0
41
0.0
42
0.0
10
80.3711013793945
20
83.4946975708008
40
0.0
41
0.0
42
0.0
210
0.0
220
0.0
230
1.0
0
VIEWPORT
5
38
330
34
100
AcDbEntity
67
1
8
0
62
256
6
ByLayer
370
-1
48
1.0
60
0
100
AcDbViewport
10
0.0
20
0.0
30
0.0
40
297.0
41
210.0
68
1
69
1
12
50.0
22
100.0
13
0.0
23
0.0
14
10.0
24
10.0
15
10.0
25
10.0
16
0.0
26
0.0
36
1.0
17
0.0
27
0.0
37
0.0
42
50.0
43
0.0
44
0.0
45
250.0
50
0.0
51
0.0
72
1000
90
819232
110
0.0
120
0.0
130
0.0
111
1.0
121
0.0
131
0.0
112
0.0
122
1.0
132
0.0
0
ENDSEC
0
SECTION
2
OBJECTS
0
DICTIONARY
5
3E
330
0
100
AcDbDictionary
280
1
281
1
3
ACAD_GROUP
350
12
3
ACAD_LAYOUT
350
37
3
ACAD_DGNDEFINITIONS
350
F
3
ACAD_DWFDEFINITIONS
350
10
3
ACAD_PDFDEFINITIONS
350
11
3
ACAD_MLINESTYLE
350
B
3
ACAD_IMAGE_DICT
350
E
3
ACAD_IMAGE_VARS
350
21
0
DICTIONARY
5
12
330
3E
100
AcDbDictionary
280
1
281
1
0
DICTIONARY
5
37
330
3E
100
AcDbDictionary
280
1
281
1
3
Model
350
20
3
Layout1
350
39
0
DICTIONARY
5
F
330
3E
100
AcDbDictionary
280
1
281
1
0
DICTIONARY
5
10
330
3E
100
AcDbDictionary
280
1
281
1
0
DICTIONARY
5
11
330
3E
100
AcDbDictionary
280
1
281
1
0
DICTIONARY
5
B
330
3E
100
AcDbDictionary
280
1
281
1
3
Standard
350
1B
0
DICTIONARY
5
E
330
3E
100
AcDbDictionary
280
1
281
1
0
DICTIONARY
5
6
330
5
100
AcDbDictionary
280
1
281
1
3
ACAD_LAYERSTATES
360
3F
0
DICTIONARY
5
3F
330
6
100
AcDbDictionary
280
1
281
1
0
LAYOUT
5
20
330
37
100
AcDbPlotSettings
1

2
none_device
4
ISO_A4_(210.00_x_297.00_MM)
6

40
7.5
41
20.0
42
7.5
43
20.0
44
210.0
45
297.0
46
0.0
47
0.0
48
0.0
49
0.0
140
0.0
141
0.0
142
1.0
143
1.0
70
11952
72
1
73
1
74
1
7

75
0
76
0
77
2
78
300
147
1.0
148
0.0
149
0.0
100
AcDbLayout
1
Model
71
0
10
-20.0
20
-7.5
11
277.0
21
202.5
12
0.0
22
0.0
32
0.0
14
25.7
24
19.5
34
0.0
15
231.3
25
175.5
35
0.0
146
0.0
13
0.0
23
0.0
33
0.0
16
1.0
26
0.0
36
0.0
17
0.0
27
1.0
37
0.0
76
0
330
1C
0
LAYOUT
5
39
330
37
100
AcDbPlotSettings
1

2
none_device
4
ISO_A4_(210.00_x_297.00_MM)
6

40
7.5
41
20.0
42
7.5
43
20.0
44
210.0
45
297.0
46
0.0
47
0.0
48
0.0
49
0.0
140
0.0
141
0.0
142
1.0
143
1.0
70
688
72
1
73
1
74
1
7

75
0
76
0
77
2
78
300
147
1.0
148
0.0
149
0.0
100
AcDbLayout
1
Layout1
71
1
10
-20.0
20
-7.5
11
277.0
21
202.5
12
0.0
22
0.0
32
0.0
14
25.7
24
19.5
34
0.0
15
231.3
25
175.5
35
0.0
146
0.0
13
0.0
23
0.0
33
0.0
16
1.0
26
0.0
36
0.0
17
0.0
27
1.0
37
0.0
76
0
330
34
0
MLINESTYLE
5
1B
330
B
100
AcDbMlineStyle
2
Standard
70
0
3

62
256
51
90.0
52
90.0
71
2
49
0.5
62
256
6
ByLayer
49
-0.5
62
256
6
ByLayer
0
RASTERVARIABLES
5
21
330
E
100
AcDbRasterVariables
90
0
70
1
71
1
72
0
0
ENDSEC
0
EOF
