999
DXF file generated by netDxf https://github.com/haplokuon/netDxf, Copyright(C) Daniel Carvajal, Licensed under MIT
0
SECTION
2
HEADER
9
$ACADVER
1
AC1015
9
$DWGCODEPAGE
3
ANSI_1252
9
$HANDSEED
5
4A
9
$ANGBASE
50
0.0
9
$ANGDIR
70
0
9
$ATTMODE
70
1
9
$AUNITS
70
0
9
$AUPREC
70
0
9
$CECOLOR
62
256
9
$CELTSCALE
40
1.0
9
$CELTYPE
6
ByLayer
9
$CELWEIGHT
370
-1
9
$CLAYER
8
0
9
$CMLJUST
70
0
9
$CMLSCALE
40
20.0
9
$CMLSTYLE
2
Standard
9
$DIMSTYLE
2
Standard
9
$TEXTSIZE
40
2.5
9
$TEXTSTYLE
7
Standard
9
$LUNITS
70
2
9
$LUPREC
70
4
9
$MIRRTEXT
70
0
9
$EXTNAMES
290
1
9
$INSBASE
10
0.0
20
0.0
30
0.0
9
$INSUNITS
70
0
9
$LTSCALE
40
1.0
9
$LWDISPLAY
290
0
9
$PDMODE
70
0
9
$PDSIZE
40
0.0
9
$PLINEGEN
70
0
9
$PSLTSCALE
70
1
9
$SPLINESEGS
70
8
9
$SURFU
70
6
9
$SURFV
70
6
9
$TDCREATE
40
2460823.48373427
9
$TDUCREATE
40
2460823.15040094
9
$TDUPDATE
40
2460823.48373427
9
$TDUUPDATE
40
2460823.15040094
9
$TDINDWG
40
0.0
9
$UCSORG
10
0.0
20
0.0
30
0.0
9
$UCSXDIR
10
1.0
20
0.0
30
0.0
9
$UCSYDIR
10
0.0
20
1.0
30
0.0
9
$DIMADEC
70
0
9
$DIMALT
70
0
9
$DIMALTD
70
2
9
$DIMALTF
40
25.4
9
$DIMALTRND
40
0.0
9
$DIMALTTD
70
2
9
$DIMALTTZ
70
0
9
$DIMALTU
70
2
9
$DIMALTZ
70
0
9
$DIMAPOST
1

9
$DIMATFIT
70
3
9
$DIMAUNIT
70
0
9
$DIMASZ
40
0.18
9
$DIMAZIN
70
0
9
$DIMSAH
70
0
9
$DIMBLK
1

9
$DIMLDRBLK
1

9
$DIMCEN
40
0.09
9
$DIMCLRD
70
0
9
$DIMCLRE
70
0
9
$DIMCLRT
70
0
9
$DIMDEC
70
4
9
$DIMDLE
40
0.0
9
$DIMDLI
40
0.38
9
$DIMDSEP
70
46
9
$DIMEXE
40
0.18
9
$DIMEXO
40
0.0625
9
$DIMFXLON
70
0
9
$DIMFXL
40
1.0
9
$DIMGAP
40
0.09
9
$DIMJUST
70
0
9
$DIMLFAC
40
1.0
9
$DIMLUNIT
70
2
9
$DIMLWD
70
-2
9
$DIMLWE
70
-2
9
$DIMPOST
1

9
$DIMRND
40
0.0
9
$DIMSCALE
40
1.0
9
$DIMSD1
70
0
9
$DIMSD2
70
0
9
$DIMSE1
70
0
9
$DIMSE2
70
0
9
$DIMSOXD
70
0
9
$DIMTAD
70
0
9
$DIMTDEC
70
4
9
$DIMTFAC
40
1.0
9
$DIMTIH
70
0
9
$DIMTIX
70
0
9
$DIMTM
40
0.0
9
$DIMTMOVE
70
0
9
$DIMTOFL
70
0
9
$DIMTOH
70
0
9
$DIMTOL
70
0
9
$DIMLIM
70
0
9
$DIMTOLJ
70
1
9
$DIMTP
40
0.0
9
$DIMTXT
40
0.18
9
$DIMTXTDIRECTION
70
0
9
$DIMTZIN
70
0
9
$DIMZIN
70
0
9
$DIMFRAC
70
0
9
$DIMLTYPE
6
ByBlock
9
$DIMLTEX1
6
ByBlock
9
$DIMLTEX2
6
ByBlock
0
ENDSEC
0
SECTION
2
CLASSES
0
CLASS
1
RASTERVARIABLES
2
AcDbRasterVariables
3
ISM
90
0
280
0
281
0
0
ENDSEC
0
SECTION
2
TABLES
0
TABLE
2
APPID
5
4
330
0
100
AcDbSymbolTable
70
5
0
APPID
5
19
330
4
100
AcDbSymbolTableRecord
100
AcDbRegAppTableRecord
2
ACAD
70
0
0
APPID
5
44
330
4
100
AcDbSymbolTableRecord
100
AcDbRegAppTableRecord
2
AcCmTransparency
70
0
0
APPID
5
45
330
4
100
AcDbSymbolTableRecord
100
AcDbRegAppTableRecord
2
AcAecLayerStandard
70
0
0
APPID
5
46
330
4
100
AcDbSymbolTableRecord
100
AcDbRegAppTableRecord
2
GradientColor1ACI
70
0
0
APPID
5
47
330
4
100
AcDbSymbolTableRecord
100
AcDbRegAppTableRecord
2
GradientColor2ACI
70
0
0
ENDTAB
0
TABLE
2
VPORT
5
1
330
0
100
AcDbSymbolTable
70
1
0
VPORT
5
2
330
1
100
AcDbSymbolTableRecord
100
AcDbViewportTableRecord
2
*Active
70
0
10
0.0
20
0.0
11
1.0
21
1.0
12
0.0
22
0.0
13
0.0
23
0.0
14
0.5
24
0.5
15
10.0
25
10.0
16
0.0
26
0.0
36
1.0
17
0.0
27
0.0
37
0.0
40
10.0
41
1.0
75
0
76
1
0
ENDTAB
0
TABLE
2
LTYPE
5
7
330
0
100
AcDbSymbolTable
70
3
0
LTYPE
5
15
330
7
100
AcDbSymbolTableRecord
100
AcDbLinetypeTableRecord
2
Continuous
70
0
3
Solid line
72
65
73
0
40
0.0
0
LTYPE
5
16
330
7
100
AcDbSymbolTableRecord
100
AcDbLinetypeTableRecord
2
ByLayer
70
0
3

72
65
73
0
40
0.0
0
LTYPE
5
17
330
7
100
AcDbSymbolTableRecord
100
AcDbLinetypeTableRecord
2
ByBlock
70
0
3

72
65
73
0
40
0.0
0
ENDTAB
0
TABLE
2
LAYER
5
5
102
{ACAD_XDICTIONARY
360
6
102
}
330
0
100
AcDbSymbolTable
70
1
0
LAYER
5
14
330
5
100
AcDbSymbolTableRecord
100
AcDbLayerTableRecord
2
0
70
0
62
7
6
Continuous
290
1
370
-3
390
0
0
ENDTAB
0
TABLE
2
STYLE
5
8
330
0
100
AcDbSymbolTable
70
1
0
STYLE
5
18
330
8
100
AcDbSymbolTableRecord
100
AcDbTextStyleTableRecord
2
Standard
3
simplex.shx
70
0
71
0
40
0.0
41
1.0
42
0.0
50
0.0
0
ENDTAB
0
TABLE
2
DIMSTYLE
5
A
330
0
100
AcDbSymbolTable
70
1
100
AcDbDimStyleTable
0
DIMSTYLE
105
1A
330
A
100
AcDbSymbolTableRecord
100
AcDbDimStyleTableRecord
2
Standard
3

4

40
1.0
41
0.18
42
0.0625
43
0.38
44
0.18
45
0.0
46
0.0
47
0.0
48
0.0
49
1.0
70
0
71
0
72
0
73
0
74
0
75
0
76
0
77
0
78
0
79
0
140
0.18
141
0.09
143
25.4
144
1.0
146
1.0
147
0.09
148
0.0
170
0
171
2
172
0
174
0
175
0
176
0
177
0
178
0
179
0
271
4
272
4
273
2
274
2
275
0
276
0
277
2
278
46
279
0
280
0
281
0
282
0
283
1
284
0
285
0
286
0
289
3
290
0
294
0
340
18
173
0
345
17
346
17
347
17
371
-2
372
-2
0
ENDTAB
0
TABLE
2
VIEW
5
3
330
0
100
AcDbSymbolTable
70
0
0
ENDTAB
0
TABLE
2
UCS
5
C
330
0
100
AcDbSymbolTable
70
0
0
ENDTAB
0
TABLE
2
BLOCK_RECORD
5
D
330
0
100
AcDbSymbolTable
70
2
0
BLOCK_RECORD
5
1C
330
D
100
AcDbSymbolTableRecord
100
AcDbBlockTableRecord
2
*Model_Space
340
20
0
BLOCK_RECORD
5
3E
330
D
100
AcDbSymbolTableRecord
100
AcDbBlockTableRecord
2
*Paper_Space
340
43
0
ENDTAB
0
ENDSEC
0
SECTION
2
BLOCKS
0
BLOCK
5
1E
330
1C
100
AcDbEntity
67
0
8
0
100
AcDbBlockBegin
2
*Model_Space
70
0
10
0.0
20
0.0
30
0.0
3
*Model_Space
4

0
ENDBLK
5
1D
330
1C
100
AcDbEntity
8
0
100
AcDbBlockEnd
0
BLOCK
5
40
330
3E
100
AcDbEntity
67
1
8
0
100
AcDbBlockBegin
2
*Paper_Space
70
0
10
0.0
20
0.0
30
0.0
3
*Paper_Space
4

0
ENDBLK
5
3F
330
3E
100
AcDbEntity
8
0
100
AcDbBlockEnd
0
ENDSEC
0
SECTION
2
ENTITIES
0
LWPOLYLINE
5
22
330
1C
100
AcDbEntity
67
0
8
0
62
256
6
ByLayer
370
-1
48
1.0
60
0
100
AcDbPolyline
90
130
70
1
38
0.0
39
0.0
10
65.1412963867188
20
66.4191970825195
40
0.0
41
0.0
42
0.0
10
65.4824981689453
20
66.3360977172852
40
0.0
41
0.0
42
0.0
10
65.8156967163086
20
66.3358993530273
40
0.0
41
0.0
42
0.0
10
65.9851989746094
20
66.2858963012695
40
0.0
41
0.0
42
0.0
10
66.1772003173828
20
66.2441024780273
40
0.0
41
0.0
42
0.0
10
66.2080001831055
20
66.2440032958984
40
0.0
41
0.0
42
0.0
10
66.5081024169922
20
66.4674987792969
40
0.0
41
0.0
42
0.0
10
66.5458984375
20
66.4914016723633
40
0.0
41
0.0
42
0.0
10
66.5450973510742
20
66.5354995727539
40
0.0
41
0.0
42
0.0
10
66.6676025390625
20
66.9835968017578
40
0.0
41
0.0
42
0.0
10
66.6912994384766
20
67.288200378418
40
0.0
41
0.0
42
0.0
10
66.6909027099609
20
67.3333969116211
40
0.0
41
0.0
42
0.0
10
66.6784973144531
20
67.5
40
0.0
41
0.0
42
0.0
10
66.6978988647461
20
67.7856979370117
40
0.0
41
0.0
42
0.0
10
66.6986999511719
20
67.9816970825195
40
0.0
41
0.0
42
0.0
10
66.7481002807617
20
68.2881011962891
40
0.0
41
0.0
42
0.0
10
66.7752990722656
20
68.4856033325195
40
0.0
41
0.0
42
0.0
10
66.9903030395508
20
68.9913024902344
40
0.0
41
0.0
42
0.0
10
67.0037002563477
20
69.0065002441406
40
0.0
41
0.0
42
0.0
10
67.0950012207031
20
69.1250991821289
40
0.0
41
0.0
42
0.0
10
67.2026977539062
20
69.2542037963867
40
0.0
41
0.0
42
0.0
10
67.5158996582031
20
69.3560028076172
40
0.0
41
0.0
42
0.0
10
67.8237991333008
20
69.3542022705078
40
0.0
41
0.0
42
0.0
10
67.8585968017578
20
69.3582000732422
40
0.0
41
0.0
42
0.0
10
67.9627990722656
20
69.4136962890625
40
0.0
41
0.0
42
0.0
10
68.0074005126953
20
69.4265975952148
40
0.0
41
0.0
42
0.0
10
68.2686996459961
20
69.3991012573242
40
0.0
41
0.0
42
0.0
10
68.3069000244141
20
69.3990020751953
40
0.0
41
0.0
42
0.0
10
68.4917984008789
20
69.4096984863281
40
0.0
41
0.0
42
0.0
10
68.7350006103516
20
69.3719024658203
40
0.0
41
0.0
42
0.0
10
68.9828033447266
20
69.361701965332
40
0.0
41
0.0
42
0.0
10
69.2565002441406
20
69.2963027954102
40
0.0
41
0.0
42
0.0
10
69.4853973388672
20
69.2733001708984
40
0.0
41
0.0
42
0.0
10
69.6620025634766
20
69.195198059082
40
0.0
41
0.0
42
0.0
10
69.9334030151367
20
69.0537033081055
40
0.0
41
0.0
42
0.0
10
69.9914016723633
20
69.0382995605469
40
0.0
41
0.0
42
0.0
10
70.0299987792969
20
68.994499206543
40
0.0
41
0.0
42
0.0
10
70.1373977661133
20
68.8932037353516
40
0.0
41
0.0
42
0.0
10
70.1533966064453
20
68.8499984741211
40
0.0
41
0.0
42
0.0
10
70.3471984863281
20
68.6027984619141
40
0.0
41
0.0
42
0.0
10
70.3788986206055
20
68.4877014160156
40
0.0
41
0.0
42
0.0
10
70.4990005493164
20
68.2570037841797
40
0.0
41
0.0
42
0.0
10
70.5158996582031
20
68.2134017944336
40
0.0
41
0.0
42
0.0
10
70.5472030639648
20
68.1408996582031
40
0.0
41
0.0
42
0.0
10
70.5731964111328
20
67.9851989746094
40
0.0
41
0.0
42
0.0
10
70.696403503418
20
67.6395034790039
40
0.0
41
0.0
42
0.0
10
70.7110977172852
20
67.4841003417969
40
0.0
41
0.0
42
0.0
10
70.8041000366211
20
67.1832962036133
40
0.0
41
0.0
42
0.0
10
70.7927017211914
20
67.0192031860352
40
0.0
41
0.0
42
0.0
10
70.7926025390625
20
66.9820022583008
40
0.0
41
0.0
42
0.0
10
70.8477020263672
20
66.7004013061523
40
0.0
41
0.0
42
0.0
10
70.7598037719727
20
66.5105972290039
40
0.0
41
0.0
42
0.0
10
70.4960021972656
20
66.0065994262695
40
0.0
41
0.0
42
0.0
10
69.9887008666992
20
65.7070007324219
40
0.0
41
0.0
42
0.0
10
69.5511016845703
20
65.5644989013672
40
0.0
41
0.0
42
0.0
10
69.4859008789062
20
65.5410003662109
40
0.0
41
0.0
42
0.0
10
69.0823974609375
20
65.4480972290039
40
0.0
41
0.0
42
0.0
10
68.9858016967773
20
65.4229965209961
40
0.0
41
0.0
42
0.0
10
68.8722991943359
20
65.3864974975586
40
0.0
41
0.0
42
0.0
10
68.4886016845703
20
65.3031005859375
40
0.0
41
0.0
42
0.0
10
68.068603515625
20
65.0090026855469
40
0.0
41
0.0
42
0.0
10
68.068603515625
20
65.0009994506836
40
0.0
41
0.0
42
0.0
10
68.1878967285156
20
65.0009994506836
40
0.0
41
0.0
42
0.0
10
68.5113983154297
20
65.2274017333984
40
0.0
41
0.0
42
0.0
10
68.8056030273438
20
65.2912979125977
40
0.0
41
0.0
42
0.0
10
69.0140991210938
20
65.3582992553711
40
0.0
41
0.0
42
0.0
10
69.1949996948242
20
65.405403137207
40
0.0
41
0.0
42
0.0
10
69.5143966674805
20
65.4787979125977
40
0.0
41
0.0
42
0.0
10
70.0112991333008
20
65.6397018432617
40
0.0
41
0.0
42
0.0
10
70.3522033691406
20
65.8405990600586
40
0.0
41
0.0
42
0.0
10
70.5074996948242
20
65.9224014282227
40
0.0
41
0.0
42
0.0
10
70.5780029296875
20
65.9901962280273
40
0.0
41
0.0
42
0.0
10
70.592903137207
20
66.0876998901367
40
0.0
41
0.0
42
0.0
10
70.8031005859375
20
66.4893035888672
40
0.0
41
0.0
42
0.0
10
70.8729019165039
20
66.6396026611328
40
0.0
41
0.0
42
0.0
10
70.8727035522461
20
66.6728973388672
40
0.0
41
0.0
42
0.0
10
70.8071975708008
20
67.0081024169922
40
0.0
41
0.0
42
0.0
10
70.8162002563477
20
67.1356964111328
40
0.0
41
0.0
42
0.0
10
70.8161010742188
20
67.1717987060547
40
0.0
41
0.0
42
0.0
10
70.7101974487305
20
67.5158004760742
40
0.0
41
0.0
42
0.0
10
70.6918029785156
20
67.7104034423828
40
0.0
41
0.0
42
0.0
10
70.5833969116211
20
68.0146026611328
40
0.0
41
0.0
42
0.0
10
70.5509033203125
20
68.209098815918
40
0.0
41
0.0
42
0.0
10
70.5008010864258
20
68.328498840332
40
0.0
41
0.0
42
0.0
10
70.4050979614258
20
68.5121994018555
40
0.0
41
0.0
42
0.0
10
70.3665008544922
20
68.652702331543
40
0.0
41
0.0
42
0.0
10
70.196403503418
20
68.8697967529297
40
0.0
41
0.0
42
0.0
10
70.1773986816406
20
68.9207992553711
40
0.0
41
0.0
42
0.0
10
70.0878982543945
20
69.0053024291992
40
0.0
41
0.0
42
0.0
10
70.00830078125
20
69.095703125
40
0.0
41
0.0
42
0.0
10
69.8836975097656
20
69.1286010742188
40
0.0
41
0.0
42
0.0
10
69.654899597168
20
69.2479019165039
40
0.0
41
0.0
42
0.0
10
69.5145034790039
20
69.3100967407227
40
0.0
41
0.0
42
0.0
10
69.2307968139648
20
69.3386001586914
40
0.0
41
0.0
42
0.0
10
69.0169982910156
20
69.3897018432617
40
0.0
41
0.0
42
0.0
10
68.7070999145508
20
69.4026031494141
40
0.0
41
0.0
42
0.0
10
68.5183029174805
20
69.4319000244141
40
0.0
41
0.0
42
0.0
10
68.480598449707
20
69.4318008422852
40
0.0
41
0.0
42
0.0
10
68.2379989624023
20
69.4179000854492
40
0.0
41
0.0
42
0.0
10
68.018798828125
20
69.4411010742188
40
0.0
41
0.0
42
0.0
10
67.9826965332031
20
69.4410018920898
40
0.0
41
0.0
42
0.0
10
67.9260025024414
20
69.4245986938477
40
0.0
41
0.0
42
0.0
10
67.7996978759766
20
69.3572998046875
40
0.0
41
0.0
42
0.0
10
67.4832000732422
20
69.3591995239258
40
0.0
41
0.0
42
0.0
10
67.1472015380859
20
69.2498016357422
40
0.0
41
0.0
42
0.0
10
67.0690994262695
20
69.1560974121094
40
0.0
41
0.0
42
0.0
10
66.9961013793945
20
69.0614013671875
40
0.0
41
0.0
42
0.0
10
66.9492034912109
20
69.0086975097656
40
0.0
41
0.0
42
0.0
10
66.8989028930664
20
68.8852005004883
40
0.0
41
0.0
42
0.0
10
66.7408981323242
20
68.5142974853516
40
0.0
41
0.0
42
0.0
10
66.7199020385742
20
68.3618011474609
40
0.0
41
0.0
42
0.0
10
66.6642990112305
20
68.0182037353516
40
0.0
41
0.0
42
0.0
10
66.6636962890625
20
67.8641967773438
40
0.0
41
0.0
42
0.0
10
66.6401977539062
20
67.5192031860352
40
0.0
41
0.0
42
0.0
10
66.6400985717773
20
67.4806976318359
40
0.0
41
0.0
42
0.0
10
66.6500015258789
20
67.3505020141602
40
0.0
41
0.0
42
0.0
10
66.6240005493164
20
67.0162963867188
40
0.0
41
0.0
42
0.0
10
66.5000991821289
20
66.5633010864258
40
0.0
41
0.0
42
0.0
10
66.4832992553711
20
66.5066986083984
40
0.0
41
0.0
42
0.0
10
66.4549026489258
20
66.4876022338867
40
0.0
41
0.0
42
0.0
10
66.1488037109375
20
66.2594985961914
40
0.0
41
0.0
42
0.0
10
66.0147018432617
20
66.2886962890625
40
0.0
41
0.0
42
0.0
10
65.8598022460938
20
66.3343963623047
40
0.0
41
0.0
42
0.0
10
65.8227996826172
20
66.3422012329102
40
0.0
41
0.0
42
0.0
10
65.5174026489258
20
66.3423004150391
40
0.0
41
0.0
42
0.0
10
65.2086029052734
20
66.4173965454102
40
0.0
41
0.0
42
0.0
10
65.015998840332
20
66.4925003051758
40
0.0
41
0.0
42
0.0
10
65.0009994506836
20
66.4925003051758
40
0.0
41
0.0
42
0.0
10
65.0009002685547
20
66.4738006591797
40
0.0
41
0.0
42
0.0
10
65.1412963867188
20
66.4191970825195
40
0.0
41
0.0
42
0.0
210
0.0
220
0.0
230
1.0
0
LWPOLYLINE
5
23
330
1C
100
AcDbEntity
67
0
8
0
62
256
6
ByLayer
370
-1
48
1.0
60
0
100
AcDbPolyline
90
87
70
1
38
0.0
39
0.0
10
65.1647033691406
20
71.8219985961914
40
0.0
41
0.0
42
0.0
10
65.4823989868164
20
71.7457962036133
40
0.0
41
0.0
42
0.0
10
65.5160980224609
20
71.7457962036133
40
0.0
41
0.0
42
0.0
10
65.7718963623047
20
71.8435974121094
40
0.0
41
0.0
42
0.0
10
66.007698059082
20
71.8942031860352
40
0.0
41
0.0
42
0.0
10
66.0803985595703
20
71.9934997558594
40
0.0
41
0.0
42
0.0
10
66.1601028442383
20
72.0764999389648
40
0.0
41
0.0
42
0.0
10
66.2871017456055
20
72.1507034301758
40
0.0
41
0.0
42
0.0
10
66.4777984619141
20
72.4278030395508
40
0.0
41
0.0
42
0.0
10
66.5028991699219
20
72.4480972290039
40
0.0
41
0.0
42
0.0
10
66.5230026245117
20
72.4914016723633
40
0.0
41
0.0
42
0.0
10
66.6574020385742
20
72.6479034423828
40
0.0
41
0.0
42
0.0
10
66.6840972900391
20
72.6856994628906
40
0.0
41
0.0
42
0.0
10
66.8327026367188
20
72.9887008666992
40
0.0
41
0.0
42
0.0
10
66.9617004394531
20
73.2879028320312
40
0.0
41
0.0
42
0.0
10
67.0031967163086
20
73.3394012451172
40
0.0
41
0.0
42
0.0
10
67.1066970825195
20
73.4824981689453
40
0.0
41
0.0
42
0.0
10
67.1087036132812
20
73.4869003295898
40
0.0
41
0.0
42
0.0
10
67.1855010986328
20
73.7927017211914
40
0.0
41
0.0
42
0.0
10
67.2925033569336
20
73.9860000610352
40
0.0
41
0.0
42
0.0
10
67.3078002929688
20
74.2212982177734
40
0.0
41
0.0
42
0.0
10
67.3077011108398
20
74.2593002319336
40
0.0
41
0.0
42
0.0
10
67.2753982543945
20
74.5145034790039
40
0.0
41
0.0
42
0.0
10
67.2373962402344
20
74.6060028076172
40
0.0
41
0.0
42
0.0
10
67.1962966918945
20
74.6797027587891
40
0.0
41
0.0
42
0.0
10
67.1466979980469
20
74.7785034179688
40
0.0
41
0.0
42
0.0
10
67.0018005371094
20
74.9918975830078
40
0.0
41
0.0
42
0.0
10
66.9931030273438
20
75.0093002319336
40
0.0
41
0.0
42
0.0
10
66.8881988525391
20
75.1640014648438
40
0.0
41
0.0
42
0.0
10
66.698600769043
20
75.4337005615234
40
0.0
41
0.0
42
0.0
10
66.6307983398438
20
75.504997253418
40
0.0
41
0.0
42
0.0
10
66.5046997070312
20
75.6222991943359
40
0.0
41
0.0
42
0.0
10
66.4797973632812
20
75.651496887207
40
0.0
41
0.0
42
0.0
10
66.4074020385742
20
75.6992034912109
40
0.0
41
0.0
42
0.0
10
66.1588973999023
20
76.0043029785156
40
0.0
41
0.0
42
0.0
10
66.035400390625
20
76.0876007080078
40
0.0
41
0.0
42
0.0
10
66.007698059082
20
76.1269989013672
40
0.0
41
0.0
42
0.0
10
65.8384017944336
20
76.1579971313477
40
0.0
41
0.0
42
0.0
10
65.5122985839844
20
76.4322967529297
40
0.0
41
0.0
42
0.0
10
65.4830017089844
20
76.4321975708008
40
0.0
41
0.0
42
0.0
10
65.3407974243164
20
76.3906021118164
40
0.0
41
0.0
42
0.0
10
65.0184020996094
20
76.4377975463867
40
0.0
41
0.0
42
0.0
10
65.0009994506836
20
76.4377975463867
40
0.0
41
0.0
42
0.0
10
65.0009002685547
20
76.404296875
40
0.0
41
0.0
42
0.0
10
65.2864990234375
20
76.3622970581055
40
0.0
41
0.0
42
0.0
10
65.3219985961914
20
76.3621978759766
40
0.0
41
0.0
42
0.0
10
65.4951019287109
20
76.4128036499023
40
0.0
41
0.0
42
0.0
10
65.7963027954102
20
76.1596984863281
40
0.0
41
0.0
42
0.0
10
65.8313980102539
20
76.1432037353516
40
0.0
41
0.0
42
0.0
10
65.9921035766602
20
76.1137008666992
40
0.0
41
0.0
42
0.0
10
66.029296875
20
76.0610961914062
40
0.0
41
0.0
42
0.0
10
66.1262969970703
20
75.9954986572266
40
0.0
41
0.0
42
0.0
10
66.4073028564453
20
75.6507034301758
40
0.0
41
0.0
42
0.0
10
66.4644012451172
20
75.6129989624023
40
0.0
41
0.0
42
0.0
10
66.4951019287109
20
75.5772018432617
40
0.0
41
0.0
42
0.0
10
66.5835037231445
20
75.4949035644531
40
0.0
41
0.0
42
0.0
10
66.6511001586914
20
75.4238967895508
40
0.0
41
0.0
42
0.0
10
66.8676986694336
20
75.1157989501953
40
0.0
41
0.0
42
0.0
10
66.9526977539062
20
74.9905014038086
40
0.0
41
0.0
42
0.0
10
66.9980010986328
20
74.8990020751953
40
0.0
41
0.0
42
0.0
10
67.1131973266602
20
74.7294998168945
40
0.0
41
0.0
42
0.0
10
67.1535034179688
20
74.6495971679688
40
0.0
41
0.0
42
0.0
10
67.200798034668
20
74.5649032592773
40
0.0
41
0.0
42
0.0
10
67.2337036132812
20
74.4853973388672
40
0.0
41
0.0
42
0.0
10
67.2716979980469
20
74.1854019165039
40
0.0
41
0.0
42
0.0
10
67.2605972290039
20
74.0139007568359
40
0.0
41
0.0
42
0.0
10
67.1737976074219
20
73.8572006225586
40
0.0
41
0.0
42
0.0
10
67.0875015258789
20
73.5130004882812
40
0.0
41
0.0
42
0.0
10
67.0817031860352
20
73.5003967285156
40
0.0
41
0.0
42
0.0
10
66.996696472168
20
73.3825988769531
40
0.0
41
0.0
42
0.0
10
66.9662017822266
20
73.3450012207031
40
0.0
41
0.0
42
0.0
10
66.8221969604492
20
73.0111999511719
40
0.0
41
0.0
42
0.0
10
66.6600036621094
20
72.6800994873047
40
0.0
41
0.0
42
0.0
10
66.5124969482422
20
72.5084991455078
40
0.0
41
0.0
42
0.0
10
66.4970016479492
20
72.4748992919922
40
0.0
41
0.0
42
0.0
10
66.4620971679688
20
72.4467010498047
40
0.0
41
0.0
42
0.0
10
66.2918014526367
20
72.1992034912109
40
0.0
41
0.0
42
0.0
10
66.1286010742188
20
72.1037979125977
40
0.0
41
0.0
42
0.0
10
66.0350036621094
20
72.0064010620117
40
0.0
41
0.0
42
0.0
10
65.9922027587891
20
71.9477005004883
40
0.0
41
0.0
42
0.0
10
65.6812973022461
20
71.881103515625
40
0.0
41
0.0
42
0.0
10
65.4968032836914
20
71.8105010986328
40
0.0
41
0.0
42
0.0
10
65.1135025024414
20
71.9024963378906
40
0.0
41
0.0
42
0.0
10
65.0179977416992
20
71.9200973510742
40
0.0
41
0.0
42
0.0
10
65.0009994506836
20
71.9200973510742
40
0.0
41
0.0
42
0.0
10
65.0009002685547
20
71.8519973754883
40
0.0
41
0.0
42
0.0
10
65.1647033691406
20
71.8219985961914
40
0.0
41
0.0
42
0.0
210
0.0
220
0.0
230
1.0
0
LWPOLYLINE
5
24
330
1C
100
AcDbEntity
67
0
8
0
62
256
6
ByLayer
370
-1
48
1.0
60
0
100
AcDbPolyline
90
136
70
1
38
0.0
39
0.0
10
65.182502746582
20
81.6759033203125
40
0.0
41
0.0
42
0.0
10
65.2282028198242
20
81.4845962524414
40
0.0
41
0.0
42
0.0
10
65.2912979125977
20
81.1941986083984
40
0.0
41
0.0
42
0.0
10
65.3582992553711
20
80.9858016967773
40
0.0
41
0.0
42
0.0
10
65.405403137207
20
80.804801940918
40
0.0
41
0.0
42
0.0
10
65.4788970947266
20
80.4853973388672
40
0.0
41
0.0
42
0.0
10
65.6017990112305
20
80.0887985229492
40
0.0
41
0.0
42
0.0
10
65.6393966674805
20
79.9889984130859
40
0.0
41
0.0
42
0.0
10
65.8405990600586
20
79.6475982666016
40
0.0
41
0.0
42
0.0
10
65.9223022460938
20
79.492301940918
40
0.0
41
0.0
42
0.0
10
65.9900970458984
20
79.4216995239258
40
0.0
41
0.0
42
0.0
10
66.0876998901367
20
79.4068984985352
40
0.0
41
0.0
42
0.0
10
66.4891967773438
20
79.1966018676758
40
0.0
41
0.0
42
0.0
10
66.6396026611328
20
79.1269989013672
40
0.0
41
0.0
42
0.0
10
66.6728973388672
20
79.1269989013672
40
0.0
41
0.0
42
0.0
10
67.0148010253906
20
79.1939010620117
40
0.0
41
0.0
42
0.0
10
67.3536987304688
20
79.2985992431641
40
0.0
41
0.0
42
0.0
10
67.4806976318359
20
79.2897033691406
40
0.0
41
0.0
42
0.0
10
67.5162963867188
20
79.2898025512695
40
0.0
41
0.0
42
0.0
10
67.8203964233398
20
79.3980026245117
40
0.0
41
0.0
42
0.0
10
68.0171966552734
20
79.4168014526367
40
0.0
41
0.0
42
0.0
10
68.209098815918
20
79.4487991333008
40
0.0
41
0.0
42
0.0
10
68.328498840332
20
79.4990005493164
40
0.0
41
0.0
42
0.0
10
68.5084991455078
20
79.5927963256836
40
0.0
41
0.0
42
0.0
10
68.6635971069336
20
79.7143020629883
40
0.0
41
0.0
42
0.0
10
68.8687973022461
20
79.8028030395508
40
0.0
41
0.0
42
0.0
10
68.9841003417969
20
79.9057998657227
40
0.0
41
0.0
42
0.0
10
69.0090026855469
20
79.9151000976562
40
0.0
41
0.0
42
0.0
10
69.095703125
20
79.9915008544922
40
0.0
41
0.0
42
0.0
10
69.1287002563477
20
80.116096496582
40
0.0
41
0.0
42
0.0
10
69.2480010986328
20
80.3449020385742
40
0.0
41
0.0
42
0.0
10
69.3100967407227
20
80.4853973388672
40
0.0
41
0.0
42
0.0
10
69.3386001586914
20
80.7689971923828
40
0.0
41
0.0
42
0.0
10
69.3897018432617
20
80.9829025268555
40
0.0
41
0.0
42
0.0
10
69.4026031494141
20
81.2927017211914
40
0.0
41
0.0
42
0.0
10
69.4319000244141
20
81.4815979003906
40
0.0
41
0.0
42
0.0
10
69.4318008422852
20
81.5193023681641
40
0.0
41
0.0
42
0.0
10
69.4179000854492
20
81.7618026733398
40
0.0
41
0.0
42
0.0
10
69.4411010742188
20
81.9811019897461
40
0.0
41
0.0
42
0.0
10
69.4410018920898
20
82.0170974731445
40
0.0
41
0.0
42
0.0
10
69.4244995117188
20
82.0737991333008
40
0.0
41
0.0
42
0.0
10
69.3572998046875
20
82.2002029418945
40
0.0
41
0.0
42
0.0
10
69.3591995239258
20
82.5167007446289
40
0.0
41
0.0
42
0.0
10
69.2498016357422
20
82.8526000976562
40
0.0
41
0.0
42
0.0
10
69.1560974121094
20
82.9307022094727
40
0.0
41
0.0
42
0.0
10
69.0613021850586
20
83.0037002563477
40
0.0
41
0.0
42
0.0
10
69.0085983276367
20
83.0505981445312
40
0.0
41
0.0
42
0.0
10
68.8851013183594
20
83.1007995605469
40
0.0
41
0.0
42
0.0
10
68.5142974853516
20
83.2587966918945
40
0.0
41
0.0
42
0.0
10
68.3618011474609
20
83.2798004150391
40
0.0
41
0.0
42
0.0
10
68.0182037353516
20
83.3354034423828
40
0.0
41
0.0
42
0.0
10
67.8641967773438
20
83.3359985351562
40
0.0
41
0.0
42
0.0
10
67.5192031860352
20
83.3597030639648
40
0.0
41
0.0
42
0.0
10
67.4806976318359
20
83.3595962524414
40
0.0
41
0.0
42
0.0
10
67.3505020141602
20
83.3497009277344
40
0.0
41
0.0
42
0.0
10
67.0190963745117
20
83.375602722168
40
0.0
41
0.0
42
0.0
10
66.9804992675781
20
83.375602722168
40
0.0
41
0.0
42
0.0
10
66.881103515625
20
83.370002746582
40
0.0
41
0.0
42
0.0
10
66.5621032714844
20
83.5
40
0.0
41
0.0
42
0.0
10
66.5066986083984
20
83.5165023803711
40
0.0
41
0.0
42
0.0
10
66.4876022338867
20
83.5447998046875
40
0.0
41
0.0
42
0.0
10
66.2594985961914
20
83.8509979248047
40
0.0
41
0.0
42
0.0
10
66.2886962890625
20
83.9851989746094
40
0.0
41
0.0
42
0.0
10
66.3343963623047
20
84.1400985717773
40
0.0
41
0.0
42
0.0
10
66.3422012329102
20
84.1771011352539
40
0.0
41
0.0
42
0.0
10
66.3423004150391
20
84.4824981689453
40
0.0
41
0.0
42
0.0
10
66.4175033569336
20
84.7912979125977
40
0.0
41
0.0
42
0.0
10
66.4925003051758
20
84.9839019775391
40
0.0
41
0.0
42
0.0
10
66.4925003051758
20
84.9990005493164
40
0.0
41
0.0
42
0.0
10
66.4738006591797
20
84.9990005493164
40
0.0
41
0.0
42
0.0
10
66.4191970825195
20
84.8585968017578
40
0.0
41
0.0
42
0.0
10
66.3360977172852
20
84.5174026489258
40
0.0
41
0.0
42
0.0
10
66.3358993530273
20
84.184196472168
40
0.0
41
0.0
42
0.0
10
66.2858963012695
20
84.0147018432617
40
0.0
41
0.0
42
0.0
10
66.2441024780273
20
83.8227005004883
40
0.0
41
0.0
42
0.0
10
66.2440032958984
20
83.7919006347656
40
0.0
41
0.0
42
0.0
10
66.4674987792969
20
83.4917984008789
40
0.0
41
0.0
42
0.0
10
66.4941024780273
20
83.4495010375977
40
0.0
41
0.0
42
0.0
10
66.8056030273438
20
83.3225021362305
40
0.0
41
0.0
42
0.0
10
66.8410034179688
20
83.3226013183594
40
0.0
41
0.0
42
0.0
10
66.996696472168
20
83.3311996459961
40
0.0
41
0.0
42
0.0
10
67.2882995605469
20
83.3085021972656
40
0.0
41
0.0
42
0.0
10
67.3266983032227
20
83.3084030151367
40
0.0
41
0.0
42
0.0
10
67.5
20
83.3211975097656
40
0.0
41
0.0
42
0.0
10
67.7856979370117
20
83.3018035888672
40
0.0
41
0.0
42
0.0
10
67.9816970825195
20
83.3010025024414
40
0.0
41
0.0
42
0.0
10
68.2881011962891
20
83.2516021728516
40
0.0
41
0.0
42
0.0
10
68.4856033325195
20
83.2244033813477
40
0.0
41
0.0
42
0.0
10
68.9913024902344
20
83.0094985961914
40
0.0
41
0.0
42
0.0
10
69.0064010620117
20
82.9961013793945
40
0.0
41
0.0
42
0.0
10
69.125
20
82.9047012329102
40
0.0
41
0.0
42
0.0
10
69.2542037963867
20
82.7972030639648
40
0.0
41
0.0
42
0.0
10
69.3560028076172
20
82.484001159668
40
0.0
41
0.0
42
0.0
10
69.3542022705078
20
82.1761016845703
40
0.0
41
0.0
42
0.0
10
69.3582000732422
20
82.1412963867188
40
0.0
41
0.0
42
0.0
10
69.4135971069336
20
82.0370025634766
40
0.0
41
0.0
42
0.0
10
69.4265975952148
20
81.9925994873047
40
0.0
41
0.0
42
0.0
10
69.3991012573242
20
81.731201171875
40
0.0
41
0.0
42
0.0
10
69.3990020751953
20
81.6929016113281
40
0.0
41
0.0
42
0.0
10
69.4096984863281
20
81.5081024169922
40
0.0
41
0.0
42
0.0
10
69.3719024658203
20
81.2648010253906
40
0.0
41
0.0
42
0.0
10
69.361701965332
20
81.0170974731445
40
0.0
41
0.0
42
0.0
10
69.2963027954102
20
80.7433013916016
40
0.0
41
0.0
42
0.0
10
69.2733001708984
20
80.5145034790039
40
0.0
41
0.0
42
0.0
10
69.195198059082
20
80.3376998901367
40
0.0
41
0.0
42
0.0
10
69.0538024902344
20
80.0663986206055
40
0.0
41
0.0
42
0.0
10
69.0383987426758
20
80.0083999633789
40
0.0
41
0.0
42
0.0
10
68.9908981323242
20
79.9664001464844
40
0.0
41
0.0
42
0.0
10
68.9804000854492
20
79.9626998901367
40
0.0
41
0.0
42
0.0
10
68.8510971069336
20
79.8470001220703
40
0.0
41
0.0
42
0.0
10
68.6867980957031
20
79.7761001586914
40
0.0
41
0.0
42
0.0
10
68.4914016723633
20
79.6229019165039
40
0.0
41
0.0
42
0.0
10
68.2570037841797
20
79.5008010864258
40
0.0
41
0.0
42
0.0
10
68.2134017944336
20
79.4838027954102
40
0.0
41
0.0
42
0.0
10
68.1408996582031
20
79.4524993896484
40
0.0
41
0.0
42
0.0
10
67.9826965332031
20
79.4260025024414
40
0.0
41
0.0
42
0.0
10
67.8294982910156
20
79.4114990234375
40
0.0
41
0.0
42
0.0
10
67.489501953125
20
79.2904968261719
40
0.0
41
0.0
42
0.0
10
67.3243026733398
20
79.3014984130859
40
0.0
41
0.0
42
0.0
10
67.2881011962891
20
79.301399230957
40
0.0
41
0.0
42
0.0
10
66.9850997924805
20
79.2077026367188
40
0.0
41
0.0
42
0.0
10
66.7004013061523
20
79.1520004272461
40
0.0
41
0.0
42
0.0
10
66.5105972290039
20
79.2399978637695
40
0.0
41
0.0
42
0.0
10
66.0067977905273
20
79.5037002563477
40
0.0
41
0.0
42
0.0
10
65.7071990966797
20
80.0108032226562
40
0.0
41
0.0
42
0.0
10
65.6498031616211
20
80.1629028320312
40
0.0
41
0.0
42
0.0
10
65.540901184082
20
80.5145034790039
40
0.0
41
0.0
42
0.0
10
65.4480972290039
20
80.9173965454102
40
0.0
41
0.0
42
0.0
10
65.4228973388672
20
81.0140991210938
40
0.0
41
0.0
42
0.0
10
65.3864974975586
20
81.1275024414062
40
0.0
41
0.0
42
0.0
10
65.3022003173828
20
81.5152969360352
40
0.0
41
0.0
42
0.0
10
65.2455978393555
20
81.752197265625
40
0.0
41
0.0
42
0.0
10
65.0128021240234
20
81.9312973022461
40
0.0
41
0.0
42
0.0
10
65.0009994506836
20
81.9312973022461
40
0.0
41
0.0
42
0.0
10
65.0009002685547
20
81.8155975341797
40
0.0
41
0.0
42
0.0
10
65.182502746582
20
81.6759033203125
40
0.0
41
0.0
42
0.0
210
0.0
220
0.0
230
1.0
0
LWPOLYLINE
5
25
330
1C
100
AcDbEntity
67
0
8
0
62
256
6
ByLayer
370
-1
48
1.0
60
0
100
AcDbPolyline
90
238
70
1
38
0.0
39
0.0
10
69.6838989257812
20
74.4897994995117
40
0.0
41
0.0
42
0.0
10
69.7908020019531
20
74.4011993408203
40
0.0
41
0.0
42
0.0
10
69.9970016479492
20
74.0943984985352
40
0.0
41
0.0
42
0.0
10
70.0208969116211
20
74.0627975463867
40
0.0
41
0.0
42
0.0
10
70.1126022338867
20
73.9987030029297
40
0.0
41
0.0
42
0.0
10
70.1696014404297
20
73.9785003662109
40
0.0
41
0.0
42
0.0
10
70.4887008666992
20
73.8071975708008
40
0.0
41
0.0
42
0.0
10
70.8315963745117
20
73.6753997802734
40
0.0
41
0.0
42
0.0
10
70.9845962524414
20
73.6324005126953
40
0.0
41
0.0
42
0.0
10
71.1393966674805
20
73.6060028076172
40
0.0
41
0.0
42
0.0
10
71.2978973388672
20
73.5644989013672
40
0.0
41
0.0
42
0.0
10
71.4839019775391
20
73.5110015869141
40
0.0
41
0.0
42
0.0
10
71.5083999633789
20
73.5084991455078
40
0.0
41
0.0
42
0.0
10
71.5407028198242
20
73.4998016357422
40
0.0
41
0.0
42
0.0
10
71.7472991943359
20
73.4169006347656
40
0.0
41
0.0
42
0.0
10
71.6510009765625
20
73.2453002929688
40
0.0
41
0.0
42
0.0
10
71.6511001586914
20
73.216796875
40
0.0
41
0.0
42
0.0
10
71.7921981811523
20
72.9949035644531
40
0.0
41
0.0
42
0.0
10
71.7097015380859
20
72.6669006347656
40
0.0
41
0.0
42
0.0
10
71.6184997558594
20
72.5119018554688
40
0.0
41
0.0
42
0.0
10
71.5589981079102
20
72.2734985351562
40
0.0
41
0.0
42
0.0
10
71.497802734375
20
72.1184997558594
40
0.0
41
0.0
42
0.0
10
71.4718017578125
20
72.0162963867188
40
0.0
41
0.0
42
0.0
10
71.4400024414062
20
71.688102722168
40
0.0
41
0.0
42
0.0
10
71.4049987792969
20
71.5177993774414
40
0.0
41
0.0
42
0.0
10
71.404899597168
20
71.4815979003906
40
0.0
41
0.0
42
0.0
10
71.435302734375
20
71.2891998291016
40
0.0
41
0.0
42
0.0
10
71.4720993041992
20
71.1463012695312
40
0.0
41
0.0
42
0.0
10
71.4999008178711
20
71.0160980224609
40
0.0
41
0.0
42
0.0
10
71.5128021240234
20
70.9919967651367
40
0.0
41
0.0
42
0.0
10
71.5222015380859
20
70.9813003540039
40
0.0
41
0.0
42
0.0
10
71.7931976318359
20
70.8480987548828
40
0.0
41
0.0
42
0.0
10
71.8305969238281
20
70.8342971801758
40
0.0
41
0.0
42
0.0
10
71.9820022583008
20
70.8042984008789
40
0.0
41
0.0
42
0.0
10
72.0184020996094
20
70.80419921875
40
0.0
41
0.0
42
0.0
10
72.3599014282227
20
70.8556976318359
40
0.0
41
0.0
42
0.0
10
72.4832000732422
20
70.8985977172852
40
0.0
41
0.0
42
0.0
10
72.5134963989258
20
70.9057006835938
40
0.0
41
0.0
42
0.0
10
72.7371978759766
20
70.999397277832
40
0.0
41
0.0
42
0.0
10
72.8321990966797
20
71.0366973876953
40
0.0
41
0.0
42
0.0
10
72.8554000854492
20
71.0475006103516
40
0.0
41
0.0
42
0.0
10
73.0100021362305
20
71.1342010498047
40
0.0
41
0.0
42
0.0
10
73.3539962768555
20
71.3128967285156
40
0.0
41
0.0
42
0.0
10
73.4357986450195
20
71.3713989257812
40
0.0
41
0.0
42
0.0
10
73.5114974975586
20
71.4302978515625
40
0.0
41
0.0
42
0.0
10
73.7068023681641
20
71.4587020874023
40
0.0
41
0.0
42
0.0
10
73.8494033813477
20
71.4996032714844
40
0.0
41
0.0
42
0.0
10
73.9981002807617
20
71.5768966674805
40
0.0
41
0.0
42
0.0
10
74.0251998901367
20
71.4881973266602
40
0.0
41
0.0
42
0.0
10
74.220100402832
20
71.1434020996094
40
0.0
41
0.0
42
0.0
10
74.2702026367188
20
70.9872970581055
40
0.0
41
0.0
42
0.0
10
74.306396484375
20
70.9035034179688
40
0.0
41
0.0
42
0.0
10
74.5298004150391
20
70.5588989257812
40
0.0
41
0.0
42
0.0
10
74.563102722168
20
70.491096496582
40
0.0
41
0.0
42
0.0
10
74.8254013061523
20
70.1565017700195
40
0.0
41
0.0
42
0.0
10
74.9591979980469
20
69.9382019042969
40
0.0
41
0.0
42
0.0
10
74.9932022094727
20
69.8951034545898
40
0.0
41
0.0
42
0.0
10
75.293098449707
20
69.7610015869141
40
0.0
41
0.0
42
0.0
10
75.484001159668
20
69.6839981079102
40
0.0
41
0.0
42
0.0
10
75.5101013183594
20
69.6838989257812
40
0.0
41
0.0
42
0.0
10
75.5986022949219
20
69.7908020019531
40
0.0
41
0.0
42
0.0
10
75.905403137207
20
69.9970016479492
40
0.0
41
0.0
42
0.0
10
75.936897277832
20
70.0208969116211
40
0.0
41
0.0
42
0.0
10
76.0009994506836
20
70.1127014160156
40
0.0
41
0.0
42
0.0
10
76.0212020874023
20
70.1697006225586
40
0.0
41
0.0
42
0.0
10
76.1921005249023
20
70.4878997802734
40
0.0
41
0.0
42
0.0
10
76.2352981567383
20
70.6416015625
40
0.0
41
0.0
42
0.0
10
76.3675003051758
20
70.9856033325195
40
0.0
41
0.0
42
0.0
10
76.3936996459961
20
71.1393966674805
40
0.0
41
0.0
42
0.0
10
76.4352035522461
20
71.2978973388672
40
0.0
41
0.0
42
0.0
10
76.4887008666992
20
71.4839019775391
40
0.0
41
0.0
42
0.0
10
76.4929962158203
20
71.5257034301758
40
0.0
41
0.0
42
0.0
10
76.5369033813477
20
71.5257034301758
40
0.0
41
0.0
42
0.0
10
76.9899978637695
20
71.7959976196289
40
0.0
41
0.0
42
0.0
10
77.3330001831055
20
71.7097015380859
40
0.0
41
0.0
42
0.0
10
77.4878997802734
20
71.6184997558594
40
0.0
41
0.0
42
0.0
10
77.7263031005859
20
71.5589981079102
40
0.0
41
0.0
42
0.0
10
77.8813018798828
20
71.497802734375
40
0.0
41
0.0
42
0.0
10
77.9835968017578
20
71.4718017578125
40
0.0
41
0.0
42
0.0
10
78.3117980957031
20
71.4400024414062
40
0.0
41
0.0
42
0.0
10
78.4821014404297
20
71.4049987792969
40
0.0
41
0.0
42
0.0
10
78.5183029174805
20
71.404899597168
40
0.0
41
0.0
42
0.0
10
78.7107009887695
20
71.435302734375
40
0.0
41
0.0
42
0.0
10
78.853401184082
20
71.4721984863281
40
0.0
41
0.0
42
0.0
10
78.9837036132812
20
71.4999008178711
40
0.0
41
0.0
42
0.0
10
79.0078964233398
20
71.5128021240234
40
0.0
41
0.0
42
0.0
10
79.0184020996094
20
71.5222015380859
40
0.0
41
0.0
42
0.0
10
79.1516036987305
20
71.7931976318359
40
0.0
41
0.0
42
0.0
10
79.165397644043
20
71.8305969238281
40
0.0
41
0.0
42
0.0
10
79.1956024169922
20
71.9820022583008
40
0.0
41
0.0
42
0.0
10
79.1955032348633
20
72.0184020996094
40
0.0
41
0.0
42
0.0
10
79.1439971923828
20
72.3599014282227
40
0.0
41
0.0
42
0.0
10
79.1010971069336
20
72.4832000732422
40
0.0
41
0.0
42
0.0
10
79.0940017700195
20
72.5133972167969
40
0.0
41
0.0
42
0.0
10
79.0003967285156
20
72.7370986938477
40
0.0
41
0.0
42
0.0
10
78.9629974365234
20
72.8321990966797
40
0.0
41
0.0
42
0.0
10
78.9523010253906
20
72.8554000854492
40
0.0
41
0.0
42
0.0
10
78.8655014038086
20
73.0099029541016
40
0.0
41
0.0
42
0.0
10
78.6867980957031
20
73.3538970947266
40
0.0
41
0.0
42
0.0
10
78.6284027099609
20
73.4356994628906
40
0.0
41
0.0
42
0.0
10
78.5693969726562
20
73.5113983154297
40
0.0
41
0.0
42
0.0
10
78.5410003662109
20
73.7068023681641
40
0.0
41
0.0
42
0.0
10
78.5001983642578
20
73.8494033813477
40
0.0
41
0.0
42
0.0
10
78.4227981567383
20
73.9981002807617
40
0.0
41
0.0
42
0.0
10
78.5115966796875
20
74.0251998901367
40
0.0
41
0.0
42
0.0
10
78.8564987182617
20
74.220100402832
40
0.0
41
0.0
42
0.0
10
79.0126037597656
20
74.2702026367188
40
0.0
41
0.0
42
0.0
10
79.0962982177734
20
74.306396484375
40
0.0
41
0.0
42
0.0
10
79.4409027099609
20
74.5298004150391
40
0.0
41
0.0
42
0.0
10
79.5086975097656
20
74.563102722168
40
0.0
41
0.0
42
0.0
10
79.8433990478516
20
74.8254013061523
40
0.0
41
0.0
42
0.0
10
80.0615997314453
20
74.9591979980469
40
0.0
41
0.0
42
0.0
10
80.1043014526367
20
74.9929962158203
40
0.0
41
0.0
42
0.0
10
80.1810989379883
20
75.1831970214844
40
0.0
41
0.0
42
0.0
10
80.3159027099609
20
75.4843978881836
40
0.0
41
0.0
42
0.0
10
80.315803527832
20
75.5101013183594
40
0.0
41
0.0
42
0.0
10
80.2089004516602
20
75.598503112793
40
0.0
41
0.0
42
0.0
10
80.002799987793
20
75.9052963256836
40
0.0
41
0.0
42
0.0
10
79.9787979125977
20
75.936897277832
40
0.0
41
0.0
42
0.0
10
79.8871002197266
20
76.0009994506836
40
0.0
41
0.0
42
0.0
10
79.8301010131836
20
76.0212020874023
40
0.0
41
0.0
42
0.0
10
79.5120010375977
20
76.1921005249023
40
0.0
41
0.0
42
0.0
10
79.3582992553711
20
76.2352981567383
40
0.0
41
0.0
42
0.0
10
79.0142974853516
20
76.3675003051758
40
0.0
41
0.0
42
0.0
10
78.8604965209961
20
76.3936996459961
40
0.0
41
0.0
42
0.0
10
78.7018966674805
20
76.4352035522461
40
0.0
41
0.0
42
0.0
10
78.515998840332
20
76.4887008666992
40
0.0
41
0.0
42
0.0
10
78.4913024902344
20
76.4912033081055
40
0.0
41
0.0
42
0.0
10
78.4589996337891
20
76.5
40
0.0
41
0.0
42
0.0
10
78.2525024414062
20
76.5828018188477
40
0.0
41
0.0
42
0.0
10
78.3488006591797
20
76.7546005249023
40
0.0
41
0.0
42
0.0
10
78.3487014770508
20
76.7828979492188
40
0.0
41
0.0
42
0.0
10
78.2105026245117
20
77.0002975463867
40
0.0
41
0.0
42
0.0
10
78.2944030761719
20
77.1429977416992
40
0.0
41
0.0
42
0.0
10
78.440803527832
20
77.7263031005859
40
0.0
41
0.0
42
0.0
10
78.5027008056641
20
77.8842010498047
40
0.0
41
0.0
42
0.0
10
78.5282974243164
20
77.9847030639648
40
0.0
41
0.0
42
0.0
10
78.5598983764648
20
78.1386032104492
40
0.0
41
0.0
42
0.0
10
78.5653991699219
20
78.1774978637695
40
0.0
41
0.0
42
0.0
10
78.5949020385742
20
78.4810028076172
40
0.0
41
0.0
42
0.0
10
78.5948028564453
20
78.5183029174805
40
0.0
41
0.0
42
0.0
10
78.5643997192383
20
78.7107009887695
40
0.0
41
0.0
42
0.0
10
78.5274963378906
20
78.853401184082
40
0.0
41
0.0
42
0.0
10
78.5
20
78.9835968017578
40
0.0
41
0.0
42
0.0
10
78.4869995117188
20
79.0077972412109
40
0.0
41
0.0
42
0.0
10
78.4776000976562
20
79.0184020996094
40
0.0
41
0.0
42
0.0
10
78.2067031860352
20
79.1516036987305
40
0.0
41
0.0
42
0.0
10
78.1692962646484
20
79.1652984619141
40
0.0
41
0.0
42
0.0
10
78.0178985595703
20
79.1956024169922
40
0.0
41
0.0
42
0.0
10
77.9814987182617
20
79.1955032348633
40
0.0
41
0.0
42
0.0
10
77.6399993896484
20
79.1439971923828
40
0.0
41
0.0
42
0.0
10
77.5166015625
20
79.1010971069336
40
0.0
41
0.0
42
0.0
10
77.4863967895508
20
79.0941009521484
40
0.0
41
0.0
42
0.0
10
77.2627029418945
20
79.0003967285156
40
0.0
41
0.0
42
0.0
10
77.1676025390625
20
78.9629974365234
40
0.0
41
0.0
42
0.0
10
77.1445007324219
20
78.9523010253906
40
0.0
41
0.0
42
0.0
10
76.9898986816406
20
78.8656005859375
40
0.0
41
0.0
42
0.0
10
76.6458969116211
20
78.686897277832
40
0.0
41
0.0
42
0.0
10
76.5640029907227
20
78.6284027099609
40
0.0
41
0.0
42
0.0
10
76.4885025024414
20
78.5695037841797
40
0.0
41
0.0
42
0.0
10
76.2929992675781
20
78.5410003662109
40
0.0
41
0.0
42
0.0
10
76.1503982543945
20
78.5002975463867
40
0.0
41
0.0
42
0.0
10
76.0018005371094
20
78.4226989746094
40
0.0
41
0.0
42
0.0
10
75.9745025634766
20
78.5115966796875
40
0.0
41
0.0
42
0.0
10
75.7796020507812
20
78.8564987182617
40
0.0
41
0.0
42
0.0
10
75.7294998168945
20
79.0124969482422
40
0.0
41
0.0
42
0.0
10
75.6932983398438
20
79.0962982177734
40
0.0
41
0.0
42
0.0
10
75.4699020385742
20
79.440803527832
40
0.0
41
0.0
42
0.0
10
75.4360961914062
20
79.5096969604492
40
0.0
41
0.0
42
0.0
10
75.3412017822266
20
79.6631011962891
40
0.0
41
0.0
42
0.0
10
75.3121032714844
20
79.7021026611328
40
0.0
41
0.0
42
0.0
10
75.0724029541016
20
80.0080032348633
40
0.0
41
0.0
42
0.0
10
75.0402984619141
20
80.0615997314453
40
0.0
41
0.0
42
0.0
10
75.0068969726562
20
80.1042022705078
40
0.0
41
0.0
42
0.0
10
74.8167037963867
20
80.1810989379883
40
0.0
41
0.0
42
0.0
10
74.5155029296875
20
80.3159027099609
40
0.0
41
0.0
42
0.0
10
74.4897994995117
20
80.315803527832
40
0.0
41
0.0
42
0.0
10
74.4011993408203
20
80.2089996337891
40
0.0
41
0.0
42
0.0
10
74.0944976806641
20
80.0028991699219
40
0.0
41
0.0
42
0.0
10
74.0628967285156
20
79.9788970947266
40
0.0
41
0.0
42
0.0
10
73.9987030029297
20
79.8871994018555
40
0.0
41
0.0
42
0.0
10
73.9785995483398
20
79.8301010131836
40
0.0
41
0.0
42
0.0
10
73.8071975708008
20
79.5111999511719
40
0.0
41
0.0
42
0.0
10
73.6753997802734
20
79.1682968139648
40
0.0
41
0.0
42
0.0
10
73.6324005126953
20
79.0152969360352
40
0.0
41
0.0
42
0.0
10
73.6060028076172
20
78.8604965209961
40
0.0
41
0.0
42
0.0
10
73.5645980834961
20
78.7018966674805
40
0.0
41
0.0
42
0.0
10
73.5110015869141
20
78.515998840332
40
0.0
41
0.0
42
0.0
10
73.5084991455078
20
78.4914016723633
40
0.0
41
0.0
42
0.0
10
73.4999008178711
20
78.459098815918
40
0.0
41
0.0
42
0.0
10
73.4169998168945
20
78.2524032592773
40
0.0
41
0.0
42
0.0
10
73.2453002929688
20
78.3488006591797
40
0.0
41
0.0
42
0.0
10
73.2169036865234
20
78.3487014770508
40
0.0
41
0.0
42
0.0
10
72.9996032714844
20
78.2104034423828
40
0.0
41
0.0
42
0.0
10
72.8569030761719
20
78.2944030761719
40
0.0
41
0.0
42
0.0
10
72.2734985351562
20
78.440803527832
40
0.0
41
0.0
42
0.0
10
72.1156005859375
20
78.5027008056641
40
0.0
41
0.0
42
0.0
10
72.0151977539062
20
78.5281982421875
40
0.0
41
0.0
42
0.0
10
71.8612976074219
20
78.5598983764648
40
0.0
41
0.0
42
0.0
10
71.8224029541016
20
78.5653991699219
40
0.0
41
0.0
42
0.0
10
71.5188980102539
20
78.5949020385742
40
0.0
41
0.0
42
0.0
10
71.4815979003906
20
78.5948028564453
40
0.0
41
0.0
42
0.0
10
71.2891998291016
20
78.5643997192383
40
0.0
41
0.0
42
0.0
10
71.1464004516602
20
78.5276031494141
40
0.0
41
0.0
42
0.0
10
71.0161972045898
20
78.5
40
0.0
41
0.0
42
0.0
10
70.9921035766602
20
78.4869995117188
40
0.0
41
0.0
42
0.0
10
70.9813003540039
20
78.4776000976562
40
0.0
41
0.0
42
0.0
10
70.8480987548828
20
78.2067031860352
40
0.0
41
0.0
42
0.0
10
70.8343963623047
20
78.1692962646484
40
0.0
41
0.0
42
0.0
10
70.8042984008789
20
78.0178985595703
40
0.0
41
0.0
42
0.0
10
70.80419921875
20
77.9814987182617
40
0.0
41
0.0
42
0.0
10
70.8556976318359
20
77.6399993896484
40
0.0
41
0.0
42
0.0
10
70.8985977172852
20
77.5166015625
40
0.0
41
0.0
42
0.0
10
70.9056015014648
20
77.4863967895508
40
0.0
41
0.0
42
0.0
10
70.9992980957031
20
77.2626037597656
40
0.0
41
0.0
42
0.0
10
71.0366973876953
20
77.1676025390625
40
0.0
41
0.0
42
0.0
10
71.0474014282227
20
77.1445007324219
40
0.0
41
0.0
42
0.0
10
71.1342010498047
20
76.9898986816406
40
0.0
41
0.0
42
0.0
10
71.3127975463867
20
76.6458969116211
40
0.0
41
0.0
42
0.0
10
71.3712997436523
20
76.5640029907227
40
0.0
41
0.0
42
0.0
10
71.4301986694336
20
76.4885025024414
40
0.0
41
0.0
42
0.0
10
71.4587020874023
20
76.2929000854492
40
0.0
41
0.0
42
0.0
10
71.4994964599609
20
76.1503982543945
40
0.0
41
0.0
42
0.0
10
71.5770034790039
20
76.0018005371094
40
0.0
41
0.0
42
0.0
10
71.4882965087891
20
75.9745025634766
40
0.0
41
0.0
42
0.0
10
71.1434020996094
20
75.7796020507812
40
0.0
41
0.0
42
0.0
10
70.9872970581055
20
75.7295989990234
40
0.0
41
0.0
42
0.0
10
70.9035034179688
20
75.6932983398438
40
0.0
41
0.0
42
0.0
10
70.5588989257812
20
75.4699020385742
40
0.0
41
0.0
42
0.0
10
70.4900970458984
20
75.4360961914062
40
0.0
41
0.0
42
0.0
10
70.336799621582
20
75.3413009643555
40
0.0
41
0.0
42
0.0
10
70.2976989746094
20
75.3121032714844
40
0.0
41
0.0
42
0.0
10
69.9918975830078
20
75.0725021362305
40
0.0
41
0.0
42
0.0
10
69.9382019042969
20
75.040397644043
40
0.0
41
0.0
42
0.0
10
69.8952026367188
20
75.0066986083984
40
0.0
41
0.0
42
0.0
10
69.7610015869141
20
74.7067031860352
40
0.0
41
0.0
42
0.0
10
69.6839981079102
20
74.5158996582031
40
0.0
41
0.0
42
0.0
10
69.6838989257812
20
74.4897994995117
40
0.0
41
0.0
42
0.0
210
0.0
220
0.0
230
1.0
0
LWPOLYLINE
5
26
330
1C
100
AcDbEntity
67
0
8
0
62
256
6
ByLayer
370
-1
48
1.0
60
0
100
AcDbPolyline
90
237
70
1
38
0.0
39
0.0
10
69.9057998657227
20
74.9933013916016
40
0.0
41
0.0
42
0.0
10
69.9653015136719
20
75.0401000976562
40
0.0
41
0.0
42
0.0
10
70.0081024169922
20
75.0654983520508
40
0.0
41
0.0
42
0.0
10
70.3225021362305
20
75.3121032714844
40
0.0
41
0.0
42
0.0
10
70.5098037719727
20
75.4279022216797
40
0.0
41
0.0
42
0.0
10
70.5959014892578
20
75.4702987670898
40
0.0
41
0.0
42
0.0
10
70.9012985229492
20
75.6681976318359
40
0.0
41
0.0
42
0.0
10
71.0126037597656
20
75.7163009643555
40
0.0
41
0.0
42
0.0
10
71.2064971923828
20
75.7785034179688
40
0.0
41
0.0
42
0.0
10
71.5115966796875
20
75.9508972167969
40
0.0
41
0.0
42
0.0
10
71.657096862793
20
75.9954986572266
40
0.0
41
0.0
42
0.0
10
71.6568984985352
20
76.0148010253906
40
0.0
41
0.0
42
0.0
10
71.5002975463867
20
76.3151016235352
40
0.0
41
0.0
42
0.0
10
71.4748992919922
20
76.4037017822266
40
0.0
41
0.0
42
0.0
10
71.4592971801758
20
76.5113983154297
40
0.0
41
0.0
42
0.0
10
71.3921966552734
20
76.5973968505859
40
0.0
41
0.0
42
0.0
10
71.3161010742188
20
76.7039031982422
40
0.0
41
0.0
42
0.0
10
71.1572036743164
20
77.0099029541016
40
0.0
41
0.0
42
0.0
10
71.0474014282227
20
77.2053985595703
40
0.0
41
0.0
42
0.0
10
71.0326995849609
20
77.2373962402344
40
0.0
41
0.0
42
0.0
10
71.0003967285156
20
77.3192977905273
40
0.0
41
0.0
42
0.0
10
70.9190979003906
20
77.5134963989258
40
0.0
41
0.0
42
0.0
10
70.9100036621094
20
77.5528030395508
40
0.0
41
0.0
42
0.0
10
70.8553009033203
20
77.7098999023438
40
0.0
41
0.0
42
0.0
10
70.8119964599609
20
77.9977035522461
40
0.0
41
0.0
42
0.0
10
70.8452987670898
20
78.1643981933594
40
0.0
41
0.0
42
0.0
10
70.9906005859375
20
78.4597015380859
40
0.0
41
0.0
42
0.0
10
71.0078964233398
20
78.4748992919922
40
0.0
41
0.0
42
0.0
10
71.0539016723633
20
78.4998016357422
40
0.0
41
0.0
42
0.0
10
71.2462005615234
20
78.5407028198242
40
0.0
41
0.0
42
0.0
10
71.3607025146484
20
78.5700988769531
40
0.0
41
0.0
42
0.0
10
71.5040969848633
20
78.5927963256836
40
0.0
41
0.0
42
0.0
10
71.8043975830078
20
78.5637969970703
40
0.0
41
0.0
42
0.0
10
71.9847030639648
20
78.5267028808594
40
0.0
41
0.0
42
0.0
10
72.0792999267578
20
78.5024032592773
40
0.0
41
0.0
42
0.0
10
72.274299621582
20
78.4254989624023
40
0.0
41
0.0
42
0.0
10
72.7929992675781
20
78.2954025268555
40
0.0
41
0.0
42
0.0
10
72.9857025146484
20
78.181999206543
40
0.0
41
0.0
42
0.0
10
73.0139007568359
20
78.1820983886719
40
0.0
41
0.0
42
0.0
10
73.2044982910156
20
78.3032989501953
40
0.0
41
0.0
42
0.0
10
73.4263000488281
20
78.1792984008789
40
0.0
41
0.0
42
0.0
10
73.4467010498047
20
78.1792984008789
40
0.0
41
0.0
42
0.0
10
73.5
20
78.3119964599609
40
0.0
41
0.0
42
0.0
10
73.5245971679688
20
78.4038009643555
40
0.0
41
0.0
42
0.0
10
73.5324020385742
20
78.4839019775391
40
0.0
41
0.0
42
0.0
10
73.5805969238281
20
78.6512985229492
40
0.0
41
0.0
42
0.0
10
73.6166000366211
20
78.7893981933594
40
0.0
41
0.0
42
0.0
10
73.6500015258789
20
78.9845962524414
40
0.0
41
0.0
42
0.0
10
73.7052993774414
20
79.1816024780273
40
0.0
41
0.0
42
0.0
10
73.8235015869141
20
79.4887008666992
40
0.0
41
0.0
42
0.0
10
73.9747009277344
20
79.7702026367188
40
0.0
41
0.0
42
0.0
10
74.0010986328125
20
79.8447036743164
40
0.0
41
0.0
42
0.0
10
74.0896987915039
20
79.9713973999023
40
0.0
41
0.0
42
0.0
10
74.1233978271484
20
79.9971008300781
40
0.0
41
0.0
42
0.0
10
74.3962020874023
20
80.1804962158203
40
0.0
41
0.0
42
0.0
10
74.4168014526367
20
80.2024002075195
40
0.0
41
0.0
42
0.0
10
74.5031967163086
20
80.3062973022461
40
0.0
41
0.0
42
0.0
10
74.8330993652344
20
80.1587982177734
40
0.0
41
0.0
42
0.0
10
74.9929962158203
20
80.0942993164062
40
0.0
41
0.0
42
0.0
10
75.0400009155273
20
80.0344009399414
40
0.0
41
0.0
42
0.0
10
75.0654983520508
20
79.9917984008789
40
0.0
41
0.0
42
0.0
10
75.3119964599609
20
79.6772994995117
40
0.0
41
0.0
42
0.0
10
75.4279022216797
20
79.4900970458984
40
0.0
41
0.0
42
0.0
10
75.4701995849609
20
79.4039001464844
40
0.0
41
0.0
42
0.0
10
75.6681976318359
20
79.098503112793
40
0.0
41
0.0
42
0.0
10
75.7162017822266
20
78.9872970581055
40
0.0
41
0.0
42
0.0
10
75.7783966064453
20
78.7934036254883
40
0.0
41
0.0
42
0.0
10
75.9508972167969
20
78.4882965087891
40
0.0
41
0.0
42
0.0
10
75.9954986572266
20
78.3427963256836
40
0.0
41
0.0
42
0.0
10
76.0148010253906
20
78.3427963256836
40
0.0
41
0.0
42
0.0
10
76.3152008056641
20
78.4994964599609
40
0.0
41
0.0
42
0.0
10
76.4038009643555
20
78.5248031616211
40
0.0
41
0.0
42
0.0
10
76.5113983154297
20
78.540397644043
40
0.0
41
0.0
42
0.0
10
76.5973968505859
20
78.6074981689453
40
0.0
41
0.0
42
0.0
10
76.7040023803711
20
78.6836013793945
40
0.0
41
0.0
42
0.0
10
77.0100021362305
20
78.8424987792969
40
0.0
41
0.0
42
0.0
10
77.2053985595703
20
78.9523010253906
40
0.0
41
0.0
42
0.0
10
77.2373962402344
20
78.9671020507812
40
0.0
41
0.0
42
0.0
10
77.3193969726562
20
78.999397277832
40
0.0
41
0.0
42
0.0
10
77.5134963989258
20
79.0805969238281
40
0.0
41
0.0
42
0.0
10
77.5528030395508
20
79.0897979736328
40
0.0
41
0.0
42
0.0
10
77.7098999023438
20
79.1445007324219
40
0.0
41
0.0
42
0.0
10
77.9977035522461
20
79.1876983642578
40
0.0
41
0.0
42
0.0
10
78.1642990112305
20
79.1544036865234
40
0.0
41
0.0
42
0.0
10
78.4597015380859
20
79.0092010498047
40
0.0
41
0.0
42
0.0
10
78.4748992919922
20
78.9919967651367
40
0.0
41
0.0
42
0.0
10
78.4998016357422
20
78.94580078125
40
0.0
41
0.0
42
0.0
10
78.5407028198242
20
78.7536010742188
40
0.0
41
0.0
42
0.0
10
78.5700988769531
20
78.6391983032227
40
0.0
41
0.0
42
0.0
10
78.5927963256836
20
78.4957962036133
40
0.0
41
0.0
42
0.0
10
78.5637969970703
20
78.1955032348633
40
0.0
41
0.0
42
0.0
10
78.5267028808594
20
78.0151977539062
40
0.0
41
0.0
42
0.0
10
78.5025024414062
20
77.9206008911133
40
0.0
41
0.0
42
0.0
10
78.4254989624023
20
77.7256011962891
40
0.0
41
0.0
42
0.0
10
78.2954025268555
20
77.206901550293
40
0.0
41
0.0
42
0.0
10
78.181999206543
20
77.0141983032227
40
0.0
41
0.0
42
0.0
10
78.181999206543
20
76.9860000610352
40
0.0
41
0.0
42
0.0
10
78.3033981323242
20
76.7953033447266
40
0.0
41
0.0
42
0.0
10
78.1792984008789
20
76.5735015869141
40
0.0
41
0.0
42
0.0
10
78.17919921875
20
76.5531005859375
40
0.0
41
0.0
42
0.0
10
78.3119964599609
20
76.4998016357422
40
0.0
41
0.0
42
0.0
10
78.4038009643555
20
76.47509765625
40
0.0
41
0.0
42
0.0
10
78.4839019775391
20
76.4673004150391
40
0.0
41
0.0
42
0.0
10
78.6512985229492
20
76.4190979003906
40
0.0
41
0.0
42
0.0
10
78.7893981933594
20
76.3831024169922
40
0.0
41
0.0
42
0.0
10
78.9854965209961
20
76.3496017456055
40
0.0
41
0.0
42
0.0
10
79.2916030883789
20
76.2319030761719
40
0.0
41
0.0
42
0.0
10
79.4878005981445
20
76.1765975952148
40
0.0
41
0.0
42
0.0
10
79.7701034545898
20
76.0250015258789
40
0.0
41
0.0
42
0.0
10
79.844596862793
20
75.9988021850586
40
0.0
41
0.0
42
0.0
10
79.9712982177734
20
75.9101028442383
40
0.0
41
0.0
42
0.0
10
79.9970016479492
20
75.8762969970703
40
0.0
41
0.0
42
0.0
10
80.1803970336914
20
75.6035003662109
40
0.0
41
0.0
42
0.0
10
80.2023010253906
20
75.5830001831055
40
0.0
41
0.0
42
0.0
10
80.306396484375
20
75.496696472168
40
0.0
41
0.0
42
0.0
10
80.1587982177734
20
75.1668014526367
40
0.0
41
0.0
42
0.0
10
80.0942993164062
20
75.0068969726562
40
0.0
41
0.0
42
0.0
10
80.0345993041992
20
74.9598007202148
40
0.0
41
0.0
42
0.0
10
79.8361968994141
20
74.8379974365234
40
0.0
41
0.0
42
0.0
10
79.7972030639648
20
74.8123016357422
40
0.0
41
0.0
42
0.0
10
79.4912033081055
20
74.5723037719727
40
0.0
41
0.0
42
0.0
10
79.4039001464844
20
74.5296020507812
40
0.0
41
0.0
42
0.0
10
79.098503112793
20
74.3315963745117
40
0.0
41
0.0
42
0.0
10
78.9872970581055
20
74.2835006713867
40
0.0
41
0.0
42
0.0
10
78.7934036254883
20
74.2212982177734
40
0.0
41
0.0
42
0.0
10
78.4882965087891
20
74.0487976074219
40
0.0
41
0.0
42
0.0
10
78.3427963256836
20
74.0044021606445
40
0.0
41
0.0
42
0.0
10
78.3426971435547
20
73.9850997924805
40
0.0
41
0.0
42
0.0
10
78.4994964599609
20
73.6846008300781
40
0.0
41
0.0
42
0.0
10
78.5246963500977
20
73.5960006713867
40
0.0
41
0.0
42
0.0
10
78.540397644043
20
73.4885025024414
40
0.0
41
0.0
42
0.0
10
78.6074981689453
20
73.4023971557617
40
0.0
41
0.0
42
0.0
10
78.6835021972656
20
73.2958984375
40
0.0
41
0.0
42
0.0
10
78.8424987792969
20
72.9898986816406
40
0.0
41
0.0
42
0.0
10
78.9523010253906
20
72.7944030761719
40
0.0
41
0.0
42
0.0
10
78.9670028686523
20
72.7623977661133
40
0.0
41
0.0
42
0.0
10
78.9992980957031
20
72.6803970336914
40
0.0
41
0.0
42
0.0
10
79.0804977416992
20
72.4863967895508
40
0.0
41
0.0
42
0.0
10
79.0896987915039
20
72.4469985961914
40
0.0
41
0.0
42
0.0
10
79.1445007324219
20
72.2900009155273
40
0.0
41
0.0
42
0.0
10
79.1876983642578
20
72.002197265625
40
0.0
41
0.0
42
0.0
10
79.1545028686523
20
71.8356018066406
40
0.0
41
0.0
42
0.0
10
79.0093002319336
20
71.5400009155273
40
0.0
41
0.0
42
0.0
10
78.9921035766602
20
71.5246963500977
40
0.0
41
0.0
42
0.0
10
78.9458999633789
20
71.5
40
0.0
41
0.0
42
0.0
10
78.7536010742188
20
71.459098815918
40
0.0
41
0.0
42
0.0
10
78.6391983032227
20
71.4296035766602
40
0.0
41
0.0
42
0.0
10
78.5020980834961
20
71.4078979492188
40
0.0
41
0.0
42
0.0
10
78.361198425293
20
71.436897277832
40
0.0
41
0.0
42
0.0
10
78.3223037719727
20
71.4430999755859
40
0.0
41
0.0
42
0.0
10
78.0162963867188
20
71.472900390625
40
0.0
41
0.0
42
0.0
10
77.9205017089844
20
71.497200012207
40
0.0
41
0.0
42
0.0
10
77.7256011962891
20
71.5742034912109
40
0.0
41
0.0
42
0.0
10
77.5119018554688
20
71.6275024414062
40
0.0
41
0.0
42
0.0
10
77.3169021606445
20
71.742301940918
40
0.0
41
0.0
42
0.0
10
77.013801574707
20
71.818603515625
40
0.0
41
0.0
42
0.0
10
76.9998016357422
20
71.8236999511719
40
0.0
41
0.0
42
0.0
10
76.9692993164062
20
71.823600769043
40
0.0
41
0.0
42
0.0
10
76.5752029418945
20
71.5884017944336
40
0.0
41
0.0
42
0.0
10
76.5095977783203
20
71.6735000610352
40
0.0
41
0.0
42
0.0
10
76.4960021972656
20
71.6735000610352
40
0.0
41
0.0
42
0.0
10
76.47509765625
20
71.5960006713867
40
0.0
41
0.0
42
0.0
10
76.4673004150391
20
71.515998840332
40
0.0
41
0.0
42
0.0
10
76.4190979003906
20
71.3486022949219
40
0.0
41
0.0
42
0.0
10
76.3831024169922
20
71.2105026245117
40
0.0
41
0.0
42
0.0
10
76.3496017456055
20
71.0143966674805
40
0.0
41
0.0
42
0.0
10
76.2319030761719
20
70.7082977294922
40
0.0
41
0.0
42
0.0
10
76.1766967773438
20
70.5121002197266
40
0.0
41
0.0
42
0.0
10
76.0250015258789
20
70.2295989990234
40
0.0
41
0.0
42
0.0
10
75.9988021850586
20
70.1551971435547
40
0.0
41
0.0
42
0.0
10
75.9102020263672
20
70.0283966064453
40
0.0
41
0.0
42
0.0
10
75.8764038085938
20
70.002799987793
40
0.0
41
0.0
42
0.0
10
75.6035995483398
20
69.8193969726562
40
0.0
41
0.0
42
0.0
10
75.5830001831055
20
69.7974014282227
40
0.0
41
0.0
42
0.0
10
75.4962997436523
20
69.6928024291992
40
0.0
41
0.0
42
0.0
10
75.3566970825195
20
69.7491989135742
40
0.0
41
0.0
42
0.0
10
75.0065994262695
20
69.9057006835938
40
0.0
41
0.0
42
0.0
10
74.9598007202148
20
69.965202331543
40
0.0
41
0.0
42
0.0
10
74.8379974365234
20
70.1635971069336
40
0.0
41
0.0
42
0.0
10
74.8122024536133
20
70.2025985717773
40
0.0
41
0.0
42
0.0
10
74.5723037719727
20
70.5086975097656
40
0.0
41
0.0
42
0.0
10
74.5296020507812
20
70.5958023071289
40
0.0
41
0.0
42
0.0
10
74.3314971923828
20
70.9012985229492
40
0.0
41
0.0
42
0.0
10
74.2834014892578
20
71.0124969482422
40
0.0
41
0.0
42
0.0
10
74.2212982177734
20
71.2064971923828
40
0.0
41
0.0
42
0.0
10
74.0487976074219
20
71.5115966796875
40
0.0
41
0.0
42
0.0
10
74.0044021606445
20
71.657096862793
40
0.0
41
0.0
42
0.0
10
73.9850997924805
20
71.6569976806641
40
0.0
41
0.0
42
0.0
10
73.684700012207
20
71.5003967285156
40
0.0
41
0.0
42
0.0
10
73.5960998535156
20
71.4749984741211
40
0.0
41
0.0
42
0.0
10
73.4885025024414
20
71.4592971801758
40
0.0
41
0.0
42
0.0
10
73.4023971557617
20
71.3921966552734
40
0.0
41
0.0
42
0.0
10
73.2959976196289
20
71.3162002563477
40
0.0
41
0.0
42
0.0
10
72.9899978637695
20
71.1572036743164
40
0.0
41
0.0
42
0.0
10
72.7945022583008
20
71.0474014282227
40
0.0
41
0.0
42
0.0
10
72.7623977661133
20
71.0326995849609
40
0.0
41
0.0
42
0.0
10
72.6804962158203
20
71.0005035400391
40
0.0
41
0.0
42
0.0
10
72.4863967895508
20
70.9191970825195
40
0.0
41
0.0
42
0.0
10
72.4469985961914
20
70.9100036621094
40
0.0
41
0.0
42
0.0
10
72.2900009155273
20
70.8553009033203
40
0.0
41
0.0
42
0.0
10
72.002197265625
20
70.8119964599609
40
0.0
41
0.0
42
0.0
10
71.8355026245117
20
70.8451995849609
40
0.0
41
0.0
42
0.0
10
71.5400009155273
20
70.9905014038086
40
0.0
41
0.0
42
0.0
10
71.5248031616211
20
71.0078964233398
40
0.0
41
0.0
42
0.0
10
71.5
20
71.0539016723633
40
0.0
41
0.0
42
0.0
10
71.4589996337891
20
71.2462005615234
40
0.0
41
0.0
42
0.0
10
71.4296035766602
20
71.3607025146484
40
0.0
41
0.0
42
0.0
10
71.4078979492188
20
71.497802734375
40
0.0
41
0.0
42
0.0
10
71.436897277832
20
71.6387023925781
40
0.0
41
0.0
42
0.0
10
71.4430999755859
20
71.6775970458984
40
0.0
41
0.0
42
0.0
10
71.472900390625
20
71.9835968017578
40
0.0
41
0.0
42
0.0
10
71.4972991943359
20
72.0792999267578
40
0.0
41
0.0
42
0.0
10
71.5742034912109
20
72.274299621582
40
0.0
41
0.0
42
0.0
10
71.6276016235352
20
72.4879989624023
40
0.0
41
0.0
42
0.0
10
71.742301940918
20
72.6829986572266
40
0.0
41
0.0
42
0.0
10
71.8178024291992
20
72.9825973510742
40
0.0
41
0.0
42
0.0
10
71.8177032470703
20
73.013801574707
40
0.0
41
0.0
42
0.0
10
71.696403503418
20
73.2044982910156
40
0.0
41
0.0
42
0.0
10
71.8206024169922
20
73.4263000488281
40
0.0
41
0.0
42
0.0
10
71.8205032348633
20
73.4466018676758
40
0.0
41
0.0
42
0.0
10
71.6877975463867
20
73.5
40
0.0
41
0.0
42
0.0
10
71.5960006713867
20
73.5245971679688
40
0.0
41
0.0
42
0.0
10
71.515998840332
20
73.5324020385742
40
0.0
41
0.0
42
0.0
10
71.3486022949219
20
73.5805969238281
40
0.0
41
0.0
42
0.0
10
71.2105026245117
20
73.6166000366211
40
0.0
41
0.0
42
0.0
10
71.0152969360352
20
73.6500015258789
40
0.0
41
0.0
42
0.0
10
70.8182983398438
20
73.7052993774414
40
0.0
41
0.0
42
0.0
10
70.5111999511719
20
73.8235015869141
40
0.0
41
0.0
42
0.0
10
70.2295989990234
20
73.9747009277344
40
0.0
41
0.0
42
0.0
10
70.1550979614258
20
74.0009994506836
40
0.0
41
0.0
42
0.0
10
70.0283966064453
20
74.0896987915039
40
0.0
41
0.0
42
0.0
10
70.002799987793
20
74.1233978271484
40
0.0
41
0.0
42
0.0
10
69.8192977905273
20
74.3962020874023
40
0.0
41
0.0
42
0.0
10
69.7973022460938
20
74.4167022705078
40
0.0
41
0.0
42
0.0
10
69.6928024291992
20
74.5036010742188
40
0.0
41
0.0
42
0.0
10
69.7491989135742
20
74.6432037353516
40
0.0
41
0.0
42
0.0
10
69.9057998657227
20
74.9933013916016
40
0.0
41
0.0
42
0.0
210
0.0
220
0.0
230
1.0
0
LWPOLYLINE
5
27
330
1C
100
AcDbEntity
67
0
8
0
62
256
6
ByLayer
370
-1
48
1.0
60
0
100
AcDbPolyline
90
83
70
1
38
0.0
39
0.0
10
71.8942031860352
20
83.9921035766602
40
0.0
41
0.0
42
0.0
10
71.9934005737305
20
83.9192962646484
40
0.0
41
0.0
42
0.0
10
72.0764007568359
20
83.839599609375
40
0.0
41
0.0
42
0.0
10
72.1507034301758
20
83.7126007080078
40
0.0
41
0.0
42
0.0
10
72.4276962280273
20
83.5220031738281
40
0.0
41
0.0
42
0.0
10
72.4480972290039
20
83.4969024658203
40
0.0
41
0.0
42
0.0
10
72.4914016723633
20
83.4766998291016
40
0.0
41
0.0
42
0.0
10
72.6477966308594
20
83.3423004150391
40
0.0
41
0.0
42
0.0
10
72.6856994628906
20
83.3155975341797
40
0.0
41
0.0
42
0.0
10
72.9887008666992
20
83.1670989990234
40
0.0
41
0.0
42
0.0
10
73.2878036499023
20
83.0380020141602
40
0.0
41
0.0
42
0.0
10
73.3394012451172
20
82.9965972900391
40
0.0
41
0.0
42
0.0
10
73.4824981689453
20
82.8929977416992
40
0.0
41
0.0
42
0.0
10
73.4868011474609
20
82.890998840332
40
0.0
41
0.0
42
0.0
10
73.7927017211914
20
82.8143997192383
40
0.0
41
0.0
42
0.0
10
73.9860000610352
20
82.7071990966797
40
0.0
41
0.0
42
0.0
10
74.2212982177734
20
82.6921005249023
40
0.0
41
0.0
42
0.0
10
74.2593002319336
20
82.6920013427734
40
0.0
41
0.0
42
0.0
10
74.513298034668
20
82.7241973876953
40
0.0
41
0.0
42
0.0
10
74.5737991333008
20
82.7578964233398
40
0.0
41
0.0
42
0.0
10
74.679801940918
20
82.803596496582
40
0.0
41
0.0
42
0.0
10
74.992301940918
20
82.9982986450195
40
0.0
41
0.0
42
0.0
10
75.0093002319336
20
83.0066986083984
40
0.0
41
0.0
42
0.0
10
75.4337997436523
20
83.3013000488281
40
0.0
41
0.0
42
0.0
10
75.504997253418
20
83.3690032958984
40
0.0
41
0.0
42
0.0
10
75.6223983764648
20
83.4951019287109
40
0.0
41
0.0
42
0.0
10
75.651496887207
20
83.5199966430664
40
0.0
41
0.0
42
0.0
10
75.6992034912109
20
83.592399597168
40
0.0
41
0.0
42
0.0
10
76.0043029785156
20
83.8408966064453
40
0.0
41
0.0
42
0.0
10
76.0876998901367
20
83.9643020629883
40
0.0
41
0.0
42
0.0
10
76.1269989013672
20
83.9922027587891
40
0.0
41
0.0
42
0.0
10
76.1580963134766
20
84.1614990234375
40
0.0
41
0.0
42
0.0
10
76.4322967529297
20
84.4876022338867
40
0.0
41
0.0
42
0.0
10
76.4321975708008
20
84.5168991088867
40
0.0
41
0.0
42
0.0
10
76.3906021118164
20
84.6591033935547
40
0.0
41
0.0
42
0.0
10
76.4377975463867
20
84.9814987182617
40
0.0
41
0.0
42
0.0
10
76.4377975463867
20
84.9990005493164
40
0.0
41
0.0
42
0.0
10
76.404296875
20
84.9990005493164
40
0.0
41
0.0
42
0.0
10
76.3622970581055
20
84.7134017944336
40
0.0
41
0.0
42
0.0
10
76.3621978759766
20
84.6779022216797
40
0.0
41
0.0
42
0.0
10
76.4129028320312
20
84.5046997070312
40
0.0
41
0.0
42
0.0
10
76.1596984863281
20
84.2035980224609
40
0.0
41
0.0
42
0.0
10
76.1433029174805
20
84.1685028076172
40
0.0
41
0.0
42
0.0
10
76.1138000488281
20
84.0077972412109
40
0.0
41
0.0
42
0.0
10
76.0612030029297
20
83.9704971313477
40
0.0
41
0.0
42
0.0
10
75.9955978393555
20
83.8733978271484
40
0.0
41
0.0
42
0.0
10
75.6507034301758
20
83.5924987792969
40
0.0
41
0.0
42
0.0
10
75.6129989624023
20
83.5353012084961
40
0.0
41
0.0
42
0.0
10
75.5772018432617
20
83.5046997070312
40
0.0
41
0.0
42
0.0
10
75.4949035644531
20
83.4162979125977
40
0.0
41
0.0
42
0.0
10
75.4240036010742
20
83.3486022949219
40
0.0
41
0.0
42
0.0
10
74.9906997680664
20
83.0470962524414
40
0.0
41
0.0
42
0.0
10
74.8986968994141
20
83.0015029907227
40
0.0
41
0.0
42
0.0
10
74.6494979858398
20
82.8462982177734
40
0.0
41
0.0
42
0.0
10
74.5643997192383
20
82.809700012207
40
0.0
41
0.0
42
0.0
10
74.486701965332
20
82.7661972045898
40
0.0
41
0.0
42
0.0
10
74.1854019165039
20
82.7281036376953
40
0.0
41
0.0
42
0.0
10
74.0139007568359
20
82.7391967773438
40
0.0
41
0.0
42
0.0
10
73.8572006225586
20
82.8259963989258
40
0.0
41
0.0
42
0.0
10
73.5129013061523
20
82.9122009277344
40
0.0
41
0.0
42
0.0
10
73.5002975463867
20
82.9179992675781
40
0.0
41
0.0
42
0.0
10
73.3825988769531
20
83.0031967163086
40
0.0
41
0.0
42
0.0
10
73.3450012207031
20
83.0335998535156
40
0.0
41
0.0
42
0.0
10
73.011100769043
20
83.1774978637695
40
0.0
41
0.0
42
0.0
10
72.6800994873047
20
83.3396987915039
40
0.0
41
0.0
42
0.0
10
72.5083999633789
20
83.4872970581055
40
0.0
41
0.0
42
0.0
10
72.4748992919922
20
83.5028991699219
40
0.0
41
0.0
42
0.0
10
72.4466018676758
20
83.53759765625
40
0.0
41
0.0
42
0.0
10
72.1990966796875
20
83.7080001831055
40
0.0
41
0.0
42
0.0
10
72.1036987304688
20
83.8712005615234
40
0.0
41
0.0
42
0.0
10
72.0063018798828
20
83.9646987915039
40
0.0
41
0.0
42
0.0
10
71.9476013183594
20
84.007698059082
40
0.0
41
0.0
42
0.0
10
71.881103515625
20
84.3183975219727
40
0.0
41
0.0
42
0.0
10
71.8106002807617
20
84.5030975341797
40
0.0
41
0.0
42
0.0
10
71.9024963378906
20
84.8862991333008
40
0.0
41
0.0
42
0.0
10
71.9200973510742
20
84.9819030761719
40
0.0
41
0.0
42
0.0
10
71.9200973510742
20
84.9990005493164
40
0.0
41
0.0
42
0.0
10
71.8519973754883
20
84.9990005493164
40
0.0
41
0.0
42
0.0
10
71.8219985961914
20
84.8350982666016
40
0.0
41
0.0
42
0.0
10
71.7457962036133
20
84.5175018310547
40
0.0
41
0.0
42
0.0
10
71.7456970214844
20
84.4838027954102
40
0.0
41
0.0
42
0.0
10
71.8435974121094
20
84.227897644043
40
0.0
41
0.0
42
0.0
10
71.8942031860352
20
83.9921035766602
40
0.0
41
0.0
42
0.0
210
0.0
220
0.0
230
1.0
0
LWPOLYLINE
5
28
330
1C
100
AcDbEntity
67
0
8
0
62
256
6
ByLayer
370
-1
48
1.0
60
0
100
AcDbPolyline
90
12
70
1
38
0.0
39
0.0
10
73.4825973510742
20
75.4349975585938
40
0.0
41
0.0
42
0.0
10
73.5193023681641
20
75.4348983764648
40
0.0
41
0.0
42
0.0
10
73.7111968994141
20
75.4467010498047
40
0.0
41
0.0
42
0.0
10
73.8701019287109
20
75.4954986572266
40
0.0
41
0.0
42
0.0
10
73.870002746582
20
75.503303527832
40
0.0
41
0.0
42
0.0
10
73.7111968994141
20
75.5413970947266
40
0.0
41
0.0
42
0.0
10
73.5186996459961
20
75.5652008056641
40
0.0
41
0.0
42
0.0
10
73.481201171875
20
75.5651016235352
40
0.0
41
0.0
42
0.0
10
73.2929992675781
20
75.5419998168945
40
0.0
41
0.0
42
0.0
10
73.2469024658203
20
75.5075988769531
40
0.0
41
0.0
42
0.0
10
73.2469024658203
20
75.4961013793945
40
0.0
41
0.0
42
0.0
10
73.4825973510742
20
75.4349975585938
40
0.0
41
0.0
42
0.0
210
0.0
220
0.0
230
1.0
0
LWPOLYLINE
5
29
330
1C
100
AcDbEntity
67
0
8
0
62
256
6
ByLayer
370
-1
48
1.0
60
0
100
AcDbPolyline
90
10
70
1
38
0.0
39
0.0
10
73.3164978027344
20
75.5045013427734
40
0.0
41
0.0
42
0.0
10
73.3570022583008
20
75.5339965820312
40
0.0
41
0.0
42
0.0
10
73.5
20
75.5515975952148
40
0.0
41
0.0
42
0.0
10
73.6387023925781
20
75.5344009399414
40
0.0
41
0.0
42
0.0
10
73.7447967529297
20
75.5093002319336
40
0.0
41
0.0
42
0.0
10
73.7454986572266
20
75.4888000488281
40
0.0
41
0.0
42
0.0
10
73.6387023925781
20
75.4558029174805
40
0.0
41
0.0
42
0.0
10
73.5102005004883
20
75.4478988647461
40
0.0
41
0.0
42
0.0
10
73.3177032470703
20
75.4979019165039
40
0.0
41
0.0
42
0.0
10
73.3164978027344
20
75.5045013427734
40
0.0
41
0.0
42
0.0
210
0.0
220
0.0
230
1.0
0
LWPOLYLINE
5
2A
330
1C
100
AcDbEntity
67
0
8
0
62
256
6
ByLayer
370
-1
48
1.0
60
0
100
AcDbPolyline
90
83
70
1
38
0.0
39
0.0
10
73.6376037597656
20
65.2864990234375
40
0.0
41
0.0
42
0.0
10
73.6374969482422
20
65.3218994140625
40
0.0
41
0.0
42
0.0
10
73.5843963623047
20
65.5034027099609
40
0.0
41
0.0
42
0.0
10
73.6144027709961
20
65.6669006347656
40
0.0
41
0.0
42
0.0
10
73.8908004760742
20
65.9954986572266
40
0.0
41
0.0
42
0.0
10
73.9385986328125
20
66.0294036865234
40
0.0
41
0.0
42
0.0
10
74.0043029785156
20
66.1264038085938
40
0.0
41
0.0
42
0.0
10
74.3491973876953
20
66.4073028564453
40
0.0
41
0.0
42
0.0
10
74.3867034912109
20
66.4645004272461
40
0.0
41
0.0
42
0.0
10
74.4225997924805
20
66.4952011108398
40
0.0
41
0.0
42
0.0
10
74.504997253418
20
66.5835037231445
40
0.0
41
0.0
42
0.0
10
74.575798034668
20
66.6511993408203
40
0.0
41
0.0
42
0.0
10
74.8841018676758
20
66.8677978515625
40
0.0
41
0.0
42
0.0
10
75.0093002319336
20
66.9526977539062
40
0.0
41
0.0
42
0.0
10
75.1007995605469
20
66.9981002807617
40
0.0
41
0.0
42
0.0
10
75.2703018188477
20
67.1132965087891
40
0.0
41
0.0
42
0.0
10
75.3503036499023
20
67.1535034179688
40
0.0
41
0.0
42
0.0
10
75.4348983764648
20
67.2006988525391
40
0.0
41
0.0
42
0.0
10
75.5119018554688
20
67.2326965332031
40
0.0
41
0.0
42
0.0
10
75.8143997192383
20
67.2716979980469
40
0.0
41
0.0
42
0.0
10
75.9860000610352
20
67.260498046875
40
0.0
41
0.0
42
0.0
10
76.1427001953125
20
67.1737976074219
40
0.0
41
0.0
42
0.0
10
76.4869003295898
20
67.0873031616211
40
0.0
41
0.0
42
0.0
10
76.4994964599609
20
67.0815963745117
40
0.0
41
0.0
42
0.0
10
76.6172027587891
20
66.9965972900391
40
0.0
41
0.0
42
0.0
10
76.6548004150391
20
66.9661026000977
40
0.0
41
0.0
42
0.0
10
76.9887008666992
20
66.8221969604492
40
0.0
41
0.0
42
0.0
10
77.3198013305664
20
66.6600036621094
40
0.0
41
0.0
42
0.0
10
77.4914016723633
20
66.5123977661133
40
0.0
41
0.0
42
0.0
10
77.522102355957
20
66.4981994628906
40
0.0
41
0.0
42
0.0
10
77.6580963134766
20
66.4044036865234
40
0.0
41
0.0
42
0.0
10
77.9940032958984
20
66.0345993041992
40
0.0
41
0.0
42
0.0
10
78.0521011352539
20
65.9921035766602
40
0.0
41
0.0
42
0.0
10
78.1185989379883
20
65.6812973022461
40
0.0
41
0.0
42
0.0
10
78.1892013549805
20
65.4968032836914
40
0.0
41
0.0
42
0.0
10
78.097297668457
20
65.1135025024414
40
0.0
41
0.0
42
0.0
10
78.0799026489258
20
65.0179977416992
40
0.0
41
0.0
42
0.0
10
78.0799026489258
20
65.0009994506836
40
0.0
41
0.0
42
0.0
10
78.1476974487305
20
65.0009994506836
40
0.0
41
0.0
42
0.0
10
78.1776962280273
20
65.1647033691406
40
0.0
41
0.0
42
0.0
10
78.2540969848633
20
65.4823989868164
40
0.0
41
0.0
42
0.0
10
78.2538986206055
20
65.515998840332
40
0.0
41
0.0
42
0.0
10
78.1560974121094
20
65.7717971801758
40
0.0
41
0.0
42
0.0
10
78.1054992675781
20
66.007698059082
40
0.0
41
0.0
42
0.0
10
78.0057983398438
20
66.0808029174805
40
0.0
41
0.0
42
0.0
10
77.7391967773438
20
66.374397277832
40
0.0
41
0.0
42
0.0
10
77.5544967651367
20
66.5016021728516
40
0.0
41
0.0
42
0.0
10
77.5083999633789
20
66.5230026245117
40
0.0
41
0.0
42
0.0
10
77.3519973754883
20
66.6574020385742
40
0.0
41
0.0
42
0.0
10
77.3142013549805
20
66.6840972900391
40
0.0
41
0.0
42
0.0
10
77.011100769043
20
66.8326034545898
40
0.0
41
0.0
42
0.0
10
76.7118988037109
20
66.9617004394531
40
0.0
41
0.0
42
0.0
10
76.6603012084961
20
67.0031967163086
40
0.0
41
0.0
42
0.0
10
76.5171966552734
20
67.1066970825195
40
0.0
41
0.0
42
0.0
10
76.5130004882812
20
67.1087036132812
40
0.0
41
0.0
42
0.0
10
76.2071990966797
20
67.1854019165039
40
0.0
41
0.0
42
0.0
10
76.0139007568359
20
67.2925033569336
40
0.0
41
0.0
42
0.0
10
75.7785034179688
20
67.3078002929688
40
0.0
41
0.0
42
0.0
10
75.7405014038086
20
67.3077011108398
40
0.0
41
0.0
42
0.0
10
75.4853973388672
20
67.2753982543945
40
0.0
41
0.0
42
0.0
10
75.3936996459961
20
67.2375030517578
40
0.0
41
0.0
42
0.0
10
75.3200988769531
20
67.196403503418
40
0.0
41
0.0
42
0.0
10
75.2212982177734
20
67.1466979980469
40
0.0
41
0.0
42
0.0
10
75.0080032348633
20
67.0018005371094
40
0.0
41
0.0
42
0.0
10
74.9906005859375
20
66.9931030273438
40
0.0
41
0.0
42
0.0
10
74.8358993530273
20
66.888298034668
40
0.0
41
0.0
42
0.0
10
74.5660018920898
20
66.6986999511719
40
0.0
41
0.0
42
0.0
10
74.4949035644531
20
66.6308975219727
40
0.0
41
0.0
42
0.0
10
74.3774032592773
20
66.5047988891602
40
0.0
41
0.0
42
0.0
10
74.3482971191406
20
66.4797973632812
40
0.0
41
0.0
42
0.0
10
74.3006973266602
20
66.4074020385742
40
0.0
41
0.0
42
0.0
10
73.9955978393555
20
66.1589965820312
40
0.0
41
0.0
42
0.0
10
73.9121017456055
20
66.0354995727539
40
0.0
41
0.0
42
0.0
10
73.8681030273438
20
66.0044021606445
40
0.0
41
0.0
42
0.0
10
73.6146011352539
20
65.7030029296875
40
0.0
41
0.0
42
0.0
10
73.5950012207031
20
65.6678009033203
40
0.0
41
0.0
42
0.0
10
73.5675964355469
20
65.5179977416992
40
0.0
41
0.0
42
0.0
10
73.567497253418
20
65.4830017089844
40
0.0
41
0.0
42
0.0
10
73.6091003417969
20
65.3406982421875
40
0.0
41
0.0
42
0.0
10
73.5621032714844
20
65.0184020996094
40
0.0
41
0.0
42
0.0
10
73.5621032714844
20
65.0009994506836
40
0.0
41
0.0
42
0.0
10
73.5953979492188
20
65.0009994506836
40
0.0
41
0.0
42
0.0
10
73.6376037597656
20
65.2864990234375
40
0.0
41
0.0
42
0.0
210
0.0
220
0.0
230
1.0
0
LWPOLYLINE
5
2B
330
1C
100
AcDbEntity
67
0
8
0
62
256
6
ByLayer
370
-1
48
1.0
60
0
100
AcDbPolyline
90
16
70
1
38
0.0
39
0.0
10
73.6893997192383
20
74.3145980834961
40
0.0
41
0.0
42
0.0
10
73.6893005371094
20
74.2873001098633
40
0.0
41
0.0
42
0.0
10
73.7814025878906
20
74.2316970825195
40
0.0
41
0.0
42
0.0
10
73.8099975585938
20
74.2315979003906
40
0.0
41
0.0
42
0.0
10
73.9991989135742
20
74.3363037109375
40
0.0
41
0.0
42
0.0
10
74.3551025390625
20
74.1033020019531
40
0.0
41
0.0
42
0.0
10
74.3823013305664
20
74.1032028198242
40
0.0
41
0.0
42
0.0
10
74.4094009399414
20
74.1220016479492
40
0.0
41
0.0
42
0.0
10
74.4094009399414
20
74.1455993652344
40
0.0
41
0.0
42
0.0
10
74.2172012329102
20
74.5067977905273
40
0.0
41
0.0
42
0.0
10
74.1026992797852
20
74.609001159668
40
0.0
41
0.0
42
0.0
10
74.0121994018555
20
74.6866989135742
40
0.0
41
0.0
42
0.0
10
73.9854965209961
20
74.6866989135742
40
0.0
41
0.0
42
0.0
10
73.8065032958984
20
74.5849990844727
40
0.0
41
0.0
42
0.0
10
73.7045974731445
20
74.5087966918945
40
0.0
41
0.0
42
0.0
10
73.6893997192383
20
74.3145980834961
40
0.0
41
0.0
42
0.0
210
0.0
220
0.0
230
1.0
0
LWPOLYLINE
5
2C
330
1C
100
AcDbEntity
67
0
8
0
62
256
6
ByLayer
370
-1
48
1.0
60
0
100
AcDbPolyline
90
12
70
1
38
0.0
39
0.0
10
73.7276992797852
20
74.491096496582
40
0.0
41
0.0
42
0.0
10
73.8612976074219
20
74.5911026000977
40
0.0
41
0.0
42
0.0
10
73.9982986450195
20
74.6688003540039
40
0.0
41
0.0
42
0.0
10
74.1029968261719
20
74.5791015625
40
0.0
41
0.0
42
0.0
10
74.1994018554688
20
74.4931030273438
40
0.0
41
0.0
42
0.0
10
74.3505020141602
20
74.2091979980469
40
0.0
41
0.0
42
0.0
10
74.2929000854492
20
74.1694030761719
40
0.0
41
0.0
42
0.0
10
74.0137023925781
20
74.3524017333984
40
0.0
41
0.0
42
0.0
10
73.9853973388672
20
74.3524017333984
40
0.0
41
0.0
42
0.0
10
73.8378982543945
20
74.2705993652344
40
0.0
41
0.0
42
0.0
10
73.7161026000977
20
74.3442001342773
40
0.0
41
0.0
42
0.0
10
73.7276992797852
20
74.491096496582
40
0.0
41
0.0
42
0.0
210
0.0
220
0.0
230
1.0
0
LWPOLYLINE
5
2D
330
1C
100
AcDbEntity
67
0
8
0
62
256
6
ByLayer
370
-1
48
1.0
60
0
100
AcDbPolyline
90
16
70
1
38
0.0
39
0.0
10
74.2315979003906
20
76.1897964477539
40
0.0
41
0.0
42
0.0
10
74.3364028930664
20
76.0007019042969
40
0.0
41
0.0
42
0.0
10
74.1033020019531
20
75.6446990966797
40
0.0
41
0.0
42
0.0
10
74.1032028198242
20
75.6175994873047
40
0.0
41
0.0
42
0.0
10
74.1219024658203
20
75.5903015136719
40
0.0
41
0.0
42
0.0
10
74.1455993652344
20
75.5903015136719
40
0.0
41
0.0
42
0.0
10
74.5067977905273
20
75.7825012207031
40
0.0
41
0.0
42
0.0
10
74.609001159668
20
75.897102355957
40
0.0
41
0.0
42
0.0
10
74.6866989135742
20
75.9877014160156
40
0.0
41
0.0
42
0.0
10
74.6865997314453
20
76.0143966674805
40
0.0
41
0.0
42
0.0
10
74.5849990844727
20
76.1932983398438
40
0.0
41
0.0
42
0.0
10
74.5087966918945
20
76.2950973510742
40
0.0
41
0.0
42
0.0
10
74.3145980834961
20
76.3105010986328
40
0.0
41
0.0
42
0.0
10
74.2873992919922
20
76.3105010986328
40
0.0
41
0.0
42
0.0
10
74.2316970825195
20
76.2183990478516
40
0.0
41
0.0
42
0.0
10
74.2315979003906
20
76.1897964477539
40
0.0
41
0.0
42
0.0
210
0.0
220
0.0
230
1.0
0
LWPOLYLINE
5
2E
330
1C
100
AcDbEntity
67
0
8
0
62
256
6
ByLayer
370
-1
48
1.0
60
0
100
AcDbPolyline
90
12
70
1
38
0.0
39
0.0
10
74.3442993164062
20
76.2835998535156
40
0.0
41
0.0
42
0.0
10
74.4909973144531
20
76.272102355957
40
0.0
41
0.0
42
0.0
10
74.5911026000977
20
76.1383972167969
40
0.0
41
0.0
42
0.0
10
74.6688995361328
20
76.0016021728516
40
0.0
41
0.0
42
0.0
10
74.5791015625
20
75.8967971801758
40
0.0
41
0.0
42
0.0
10
74.4931030273438
20
75.8003997802734
40
0.0
41
0.0
42
0.0
10
74.2091979980469
20
75.6492004394531
40
0.0
41
0.0
42
0.0
10
74.1694030761719
20
75.706901550293
40
0.0
41
0.0
42
0.0
10
74.3524017333984
20
75.986198425293
40
0.0
41
0.0
42
0.0
10
74.3523025512695
20
76.0145034790039
40
0.0
41
0.0
42
0.0
10
74.2706985473633
20
76.1620025634766
40
0.0
41
0.0
42
0.0
10
74.3442993164062
20
76.2835998535156
40
0.0
41
0.0
42
0.0
210
0.0
220
0.0
230
1.0
0
LWPOLYLINE
5
2F
330
1C
100
AcDbEntity
67
0
8
0
62
256
6
ByLayer
370
-1
48
1.0
60
0
100
AcDbPolyline
90
12
70
1
38
0.0
39
0.0
10
74.4578018188477
20
73.2929992675781
40
0.0
41
0.0
42
0.0
10
74.4918975830078
20
73.2470016479492
40
0.0
41
0.0
42
0.0
10
74.5037002563477
20
73.2470016479492
40
0.0
41
0.0
42
0.0
10
74.5649032592773
20
73.4825973510742
40
0.0
41
0.0
42
0.0
10
74.5647964477539
20
73.5193023681641
40
0.0
41
0.0
42
0.0
10
74.5530014038086
20
73.7111968994141
40
0.0
41
0.0
42
0.0
10
74.5044021606445
20
73.8701019287109
40
0.0
41
0.0
42
0.0
10
74.4964981079102
20
73.8701019287109
40
0.0
41
0.0
42
0.0
10
74.4583969116211
20
73.7114028930664
40
0.0
41
0.0
42
0.0
10
74.434700012207
20
73.5186996459961
40
0.0
41
0.0
42
0.0
10
74.4346008300781
20
73.481201171875
40
0.0
41
0.0
42
0.0
10
74.4578018188477
20
73.2929992675781
40
0.0
41
0.0
42
0.0
210
0.0
220
0.0
230
1.0
0
LWPOLYLINE
5
30
330
1C
100
AcDbEntity
67
0
8
0
62
256
6
ByLayer
370
-1
48
1.0
60
0
100
AcDbPolyline
90
10
70
1
38
0.0
39
0.0
10
74.4481964111328
20
73.5
40
0.0
41
0.0
42
0.0
10
74.4653015136719
20
73.6387023925781
40
0.0
41
0.0
42
0.0
10
74.4906005859375
20
73.7447967529297
40
0.0
41
0.0
42
0.0
10
74.511100769043
20
73.7454986572266
40
0.0
41
0.0
42
0.0
10
74.5438995361328
20
73.6387023925781
40
0.0
41
0.0
42
0.0
10
74.5518035888672
20
73.5102005004883
40
0.0
41
0.0
42
0.0
10
74.5019989013672
20
73.3177032470703
40
0.0
41
0.0
42
0.0
10
74.4953994750977
20
73.3164978027344
40
0.0
41
0.0
42
0.0
10
74.4656982421875
20
73.3569030761719
40
0.0
41
0.0
42
0.0
10
74.4481964111328
20
73.5
40
0.0
41
0.0
42
0.0
210
0.0
220
0.0
230
1.0
0
LWPOLYLINE
5
31
330
1C
100
AcDbEntity
67
0
8
0
62
256
6
ByLayer
370
-1
48
1.0
60
0
100
AcDbPolyline
90
9
70
1
38
0.0
39
0.0
10
74.6856994628906
20
74.9886016845703
40
0.0
41
0.0
42
0.0
10
74.9886016845703
20
74.6857986450195
40
0.0
41
0.0
42
0.0
10
75.0111999511719
20
74.6857986450195
40
0.0
41
0.0
42
0.0
10
75.3141021728516
20
74.9886016845703
40
0.0
41
0.0
42
0.0
10
75.3140029907227
20
75.0111999511719
40
0.0
41
0.0
42
0.0
10
75.0112991333008
20
75.3141021728516
40
0.0
41
0.0
42
0.0
10
74.9886016845703
20
75.3140029907227
40
0.0
41
0.0
42
0.0
10
74.6857986450195
20
75.0111999511719
40
0.0
41
0.0
42
0.0
10
74.6856994628906
20
74.9886016845703
40
0.0
41
0.0
42
0.0
210
0.0
220
0.0
230
1.0
0
LWPOLYLINE
5
32
330
1C
100
AcDbEntity
67
0
8
0
62
256
6
ByLayer
370
-1
48
1.0
60
0
100
AcDbPolyline
90
5
70
1
38
0.0
39
0.0
10
75.0
20
75.2979965209961
40
0.0
41
0.0
42
0.0
10
75.2979965209961
20
75.0
40
0.0
41
0.0
42
0.0
10
75.0
20
74.7015991210938
40
0.0
41
0.0
42
0.0
10
74.7016983032227
20
75.0
40
0.0
41
0.0
42
0.0
10
75.0
20
75.2979965209961
40
0.0
41
0.0
42
0.0
210
0.0
220
0.0
230
1.0
0
LWPOLYLINE
5
33
330
1C
100
AcDbEntity
67
0
8
0
62
256
6
ByLayer
370
-1
48
1.0
60
0
100
AcDbPolyline
90
16
70
1
38
0.0
39
0.0
10
75.313102722168
20
73.9854965209961
40
0.0
41
0.0
42
0.0
10
75.4147033691406
20
73.806396484375
40
0.0
41
0.0
42
0.0
10
75.4909973144531
20
73.7045974731445
40
0.0
41
0.0
42
0.0
10
75.6852035522461
20
73.6893997192383
40
0.0
41
0.0
42
0.0
10
75.7125015258789
20
73.6893005371094
40
0.0
41
0.0
42
0.0
10
75.7682037353516
20
73.7814025878906
40
0.0
41
0.0
42
0.0
10
75.7680969238281
20
73.8099975585938
40
0.0
41
0.0
42
0.0
10
75.6633987426758
20
73.9991989135742
40
0.0
41
0.0
42
0.0
10
75.896598815918
20
74.3551025390625
40
0.0
41
0.0
42
0.0
10
75.8964996337891
20
74.3823013305664
40
0.0
41
0.0
42
0.0
10
75.877799987793
20
74.4094009399414
40
0.0
41
0.0
42
0.0
10
75.8542022705078
20
74.4094009399414
40
0.0
41
0.0
42
0.0
10
75.4931030273438
20
74.2173004150391
40
0.0
41
0.0
42
0.0
10
75.3907012939453
20
74.1026992797852
40
0.0
41
0.0
42
0.0
10
75.3132019042969
20
74.0121994018555
40
0.0
41
0.0
42
0.0
10
75.313102722168
20
73.9854965209961
40
0.0
41
0.0
42
0.0
210
0.0
220
0.0
230
1.0
0
LWPOLYLINE
5
34
330
1C
100
AcDbEntity
67
0
8
0
62
256
6
ByLayer
370
-1
48
1.0
60
0
100
AcDbPolyline
90
12
70
1
38
0.0
39
0.0
10
75.4207000732422
20
74.1031036376953
40
0.0
41
0.0
42
0.0
10
75.5067977905273
20
74.1994018554688
40
0.0
41
0.0
42
0.0
10
75.7906036376953
20
74.3504028320312
40
0.0
41
0.0
42
0.0
10
75.8302993774414
20
74.2928009033203
40
0.0
41
0.0
42
0.0
10
75.6474990844727
20
74.0137023925781
40
0.0
41
0.0
42
0.0
10
75.6473999023438
20
73.9853973388672
40
0.0
41
0.0
42
0.0
10
75.7291030883789
20
73.8378982543945
40
0.0
41
0.0
42
0.0
10
75.6556015014648
20
73.7161026000977
40
0.0
41
0.0
42
0.0
10
75.5087966918945
20
73.7276000976562
40
0.0
41
0.0
42
0.0
10
75.4085998535156
20
73.8612976074219
40
0.0
41
0.0
42
0.0
10
75.3309020996094
20
73.9982986450195
40
0.0
41
0.0
42
0.0
10
75.4207000732422
20
74.1031036376953
40
0.0
41
0.0
42
0.0
210
0.0
220
0.0
230
1.0
0
LWPOLYLINE
5
35
330
1C
100
AcDbEntity
67
0
8
0
62
256
6
ByLayer
370
-1
48
1.0
60
0
100
AcDbPolyline
90
12
70
1
38
0.0
39
0.0
10
75.4467010498047
20
76.2886962890625
40
0.0
41
0.0
42
0.0
10
75.4953994750977
20
76.1296005249023
40
0.0
41
0.0
42
0.0
10
75.503303527832
20
76.1297988891602
40
0.0
41
0.0
42
0.0
10
75.5404968261719
20
76.2835006713867
40
0.0
41
0.0
42
0.0
10
75.5652008056641
20
76.4813003540039
40
0.0
41
0.0
42
0.0
10
75.5651016235352
20
76.5186996459961
40
0.0
41
0.0
42
0.0
10
75.5419006347656
20
76.7068023681641
40
0.0
41
0.0
42
0.0
10
75.5074996948242
20
76.7529983520508
40
0.0
41
0.0
42
0.0
10
75.4962005615234
20
76.7529983520508
40
0.0
41
0.0
42
0.0
10
75.4349975585938
20
76.5173034667969
40
0.0
41
0.0
42
0.0
10
75.4348983764648
20
76.480598449707
40
0.0
41
0.0
42
0.0
10
75.4467010498047
20
76.2886962890625
40
0.0
41
0.0
42
0.0
210
0.0
220
0.0
230
1.0
0
LWPOLYLINE
5
36
330
1C
100
AcDbEntity
67
0
8
0
62
256
6
ByLayer
370
-1
48
1.0
60
0
100
AcDbPolyline
90
10
70
1
38
0.0
39
0.0
10
75.4478988647461
20
76.4897003173828
40
0.0
41
0.0
42
0.0
10
75.497802734375
20
76.6820983886719
40
0.0
41
0.0
42
0.0
10
75.5040969848633
20
76.6834030151367
40
0.0
41
0.0
42
0.0
10
75.5339965820312
20
76.6429977416992
40
0.0
41
0.0
42
0.0
10
75.5515975952148
20
76.4999008178711
40
0.0
41
0.0
42
0.0
10
75.5333023071289
20
76.3553009033203
40
0.0
41
0.0
42
0.0
10
75.5092010498047
20
76.2550964355469
40
0.0
41
0.0
42
0.0
10
75.4887008666992
20
76.2545013427734
40
0.0
41
0.0
42
0.0
10
75.4558029174805
20
76.361198425293
40
0.0
41
0.0
42
0.0
10
75.4478988647461
20
76.4897003173828
40
0.0
41
0.0
42
0.0
210
0.0
220
0.0
230
1.0
0
LWPOLYLINE
5
37
330
1C
100
AcDbEntity
67
0
8
0
62
256
6
ByLayer
370
-1
48
1.0
60
0
100
AcDbPolyline
90
16
70
1
38
0.0
39
0.0
10
75.5903015136719
20
75.8542022705078
40
0.0
41
0.0
42
0.0
10
75.7824020385742
20
75.4931030273438
40
0.0
41
0.0
42
0.0
10
75.8970031738281
20
75.3907012939453
40
0.0
41
0.0
42
0.0
10
75.9877014160156
20
75.3132019042969
40
0.0
41
0.0
42
0.0
10
76.0143966674805
20
75.313102722168
40
0.0
41
0.0
42
0.0
10
76.1932983398438
20
75.4148025512695
40
0.0
41
0.0
42
0.0
10
76.2950973510742
20
75.491096496582
40
0.0
41
0.0
42
0.0
10
76.3105010986328
20
75.6852035522461
40
0.0
41
0.0
42
0.0
10
76.3104019165039
20
75.7125015258789
40
0.0
41
0.0
42
0.0
10
76.2183990478516
20
75.7682037353516
40
0.0
41
0.0
42
0.0
10
76.1897964477539
20
75.7682037353516
40
0.0
41
0.0
42
0.0
10
76.0007019042969
20
75.6633987426758
40
0.0
41
0.0
42
0.0
10
75.6446990966797
20
75.896598815918
40
0.0
41
0.0
42
0.0
10
75.6175994873047
20
75.896598815918
40
0.0
41
0.0
42
0.0
10
75.5903015136719
20
75.8778991699219
40
0.0
41
0.0
42
0.0
10
75.5903015136719
20
75.8542022705078
40
0.0
41
0.0
42
0.0
210
0.0
220
0.0
230
1.0
0
LWPOLYLINE
5
38
330
1C
100
AcDbEntity
67
0
8
0
62
256
6
ByLayer
370
-1
48
1.0
60
0
100
AcDbPolyline
90
12
70
1
38
0.0
39
0.0
10
75.706901550293
20
75.8302993774414
40
0.0
41
0.0
42
0.0
10
75.986198425293
20
75.6474990844727
40
0.0
41
0.0
42
0.0
10
76.0145034790039
20
75.6473999023438
40
0.0
41
0.0
42
0.0
10
76.1620025634766
20
75.7289962768555
40
0.0
41
0.0
42
0.0
10
76.2835998535156
20
75.6555023193359
40
0.0
41
0.0
42
0.0
10
76.2722015380859
20
75.5087966918945
40
0.0
41
0.0
42
0.0
10
76.1384963989258
20
75.4085998535156
40
0.0
41
0.0
42
0.0
10
76.0016021728516
20
75.3308029174805
40
0.0
41
0.0
42
0.0
10
75.8966979980469
20
75.4206008911133
40
0.0
41
0.0
42
0.0
10
75.8003005981445
20
75.5066986083984
40
0.0
41
0.0
42
0.0
10
75.6493988037109
20
75.7906036376953
40
0.0
41
0.0
42
0.0
10
75.706901550293
20
75.8302993774414
40
0.0
41
0.0
42
0.0
210
0.0
220
0.0
230
1.0
0
LWPOLYLINE
5
39
330
1C
100
AcDbEntity
67
0
8
0
62
256
6
ByLayer
370
-1
48
1.0
60
0
100
AcDbPolyline
90
12
70
1
38
0.0
39
0.0
10
76.1296005249023
20
74.5040969848633
40
0.0
41
0.0
42
0.0
10
76.1296997070312
20
74.4964981079102
40
0.0
41
0.0
42
0.0
10
76.2883987426758
20
74.4583969116211
40
0.0
41
0.0
42
0.0
10
76.481201171875
20
74.434700012207
40
0.0
41
0.0
42
0.0
10
76.5186996459961
20
74.4346008300781
40
0.0
41
0.0
42
0.0
10
76.706901550293
20
74.4578018188477
40
0.0
41
0.0
42
0.0
10
76.7528991699219
20
74.4922027587891
40
0.0
41
0.0
42
0.0
10
76.7528991699219
20
74.5036010742188
40
0.0
41
0.0
42
0.0
10
76.5173034667969
20
74.5649032592773
40
0.0
41
0.0
42
0.0
10
76.480598449707
20
74.5647964477539
40
0.0
41
0.0
42
0.0
10
76.2886962890625
20
74.5530014038086
40
0.0
41
0.0
42
0.0
10
76.1296005249023
20
74.5040969848633
40
0.0
41
0.0
42
0.0
210
0.0
220
0.0
230
1.0
0
LWPOLYLINE
5
3A
330
1C
100
AcDbEntity
67
0
8
0
62
256
6
ByLayer
370
-1
48
1.0
60
0
100
AcDbPolyline
90
10
70
1
38
0.0
39
0.0
10
76.2544021606445
20
74.5111999511719
40
0.0
41
0.0
42
0.0
10
76.361198425293
20
74.5438995361328
40
0.0
41
0.0
42
0.0
10
76.4897003173828
20
74.5518035888672
40
0.0
41
0.0
42
0.0
10
76.6820983886719
20
74.5020980834961
40
0.0
41
0.0
42
0.0
10
76.6834030151367
20
74.4957962036133
40
0.0
41
0.0
42
0.0
10
76.6429977416992
20
74.4656982421875
40
0.0
41
0.0
42
0.0
10
76.4999008178711
20
74.4481964111328
40
0.0
41
0.0
42
0.0
10
76.361198425293
20
74.4653015136719
40
0.0
41
0.0
42
0.0
10
76.2550964355469
20
74.4905014038086
40
0.0
41
0.0
42
0.0
10
76.2544021606445
20
74.5111999511719
40
0.0
41
0.0
42
0.0
210
0.0
220
0.0
230
1.0
0
LWPOLYLINE
5
3B
330
1C
100
AcDbEntity
67
0
8
0
62
256
6
ByLayer
370
-1
48
1.0
60
0
100
AcDbPolyline
90
130
70
1
38
0.0
39
0.0
10
79.2985992431641
20
82.6462020874023
40
0.0
41
0.0
42
0.0
10
79.2897033691406
20
82.5192031860352
40
0.0
41
0.0
42
0.0
10
79.2897033691406
20
82.4835968017578
40
0.0
41
0.0
42
0.0
10
79.3980026245117
20
82.1794967651367
40
0.0
41
0.0
42
0.0
10
79.4168014526367
20
81.9826965332031
40
0.0
41
0.0
42
0.0
10
79.4487991333008
20
81.7908020019531
40
0.0
41
0.0
42
0.0
10
79.4990005493164
20
81.6713027954102
40
0.0
41
0.0
42
0.0
10
79.5926971435547
20
81.4913024902344
40
0.0
41
0.0
42
0.0
10
79.7130966186523
20
81.3376998901367
40
0.0
41
0.0
42
0.0
10
79.8393020629883
20
81.1492004394531
40
0.0
41
0.0
42
0.0
10
79.9067993164062
20
81.0130996704102
40
0.0
41
0.0
42
0.0
10
79.9150009155273
20
80.9907989501953
40
0.0
41
0.0
42
0.0
10
79.9915008544922
20
80.9039993286133
40
0.0
41
0.0
42
0.0
10
80.116096496582
20
80.8710021972656
40
0.0
41
0.0
42
0.0
10
80.3448028564453
20
80.7517013549805
40
0.0
41
0.0
42
0.0
10
80.4853973388672
20
80.6895980834961
40
0.0
41
0.0
42
0.0
10
80.7689971923828
20
80.6611022949219
40
0.0
41
0.0
42
0.0
10
80.9828033447266
20
80.6100006103516
40
0.0
41
0.0
42
0.0
10
81.2927017211914
20
80.5970993041992
40
0.0
41
0.0
42
0.0
10
81.4815979003906
20
80.568000793457
40
0.0
41
0.0
42
0.0
10
81.5193023681641
20
80.5679016113281
40
0.0
41
0.0
42
0.0
10
81.7618026733398
20
80.5818023681641
40
0.0
41
0.0
42
0.0
10
81.9811019897461
20
80.5587997436523
40
0.0
41
0.0
42
0.0
10
82.0170974731445
20
80.5587005615234
40
0.0
41
0.0
42
0.0
10
82.0737991333008
20
80.5752029418945
40
0.0
41
0.0
42
0.0
10
82.2002029418945
20
80.6424026489258
40
0.0
41
0.0
42
0.0
10
82.5167007446289
20
80.6405029296875
40
0.0
41
0.0
42
0.0
10
82.8526992797852
20
80.75
40
0.0
41
0.0
42
0.0
10
82.9307022094727
20
80.8436965942383
40
0.0
41
0.0
42
0.0
10
83.0037994384766
20
80.9384002685547
40
0.0
41
0.0
42
0.0
10
83.0505981445312
20
80.9912033081055
40
0.0
41
0.0
42
0.0
10
83.1007995605469
20
81.1146011352539
40
0.0
41
0.0
42
0.0
10
83.2587966918945
20
81.4856033325195
40
0.0
41
0.0
42
0.0
10
83.2798004150391
20
81.6380996704102
40
0.0
41
0.0
42
0.0
10
83.3354034423828
20
81.9816970825195
40
0.0
41
0.0
42
0.0
10
83.3359985351562
20
82.1356964111328
40
0.0
41
0.0
42
0.0
10
83.3597030639648
20
82.4806976318359
40
0.0
41
0.0
42
0.0
10
83.3595962524414
20
82.5192031860352
40
0.0
41
0.0
42
0.0
10
83.3497009277344
20
82.649299621582
40
0.0
41
0.0
42
0.0
10
83.3757019042969
20
82.9835968017578
40
0.0
41
0.0
42
0.0
10
83.5164031982422
20
83.4929962158203
40
0.0
41
0.0
42
0.0
10
83.5479965209961
20
83.5145034790039
40
0.0
41
0.0
42
0.0
10
83.8509979248047
20
83.7403030395508
40
0.0
41
0.0
42
0.0
10
83.9822006225586
20
83.7115020751953
40
0.0
41
0.0
42
0.0
10
84.3003005981445
20
83.7113037109375
40
0.0
41
0.0
42
0.0
10
84.4853973388672
20
83.6567001342773
40
0.0
41
0.0
42
0.0
10
84.7911987304688
20
83.5822982788086
40
0.0
41
0.0
42
0.0
10
84.9839019775391
20
83.5074005126953
40
0.0
41
0.0
42
0.0
10
84.9990005493164
20
83.5074005126953
40
0.0
41
0.0
42
0.0
10
84.9989013671875
20
83.5259017944336
40
0.0
41
0.0
42
0.0
10
84.8585968017578
20
83.5804977416992
40
0.0
41
0.0
42
0.0
10
84.5145034790039
20
83.6641998291016
40
0.0
41
0.0
42
0.0
10
84.3610000610352
20
83.7095031738281
40
0.0
41
0.0
42
0.0
10
84.3239974975586
20
83.7129974365234
40
0.0
41
0.0
42
0.0
10
84.0177001953125
20
83.7132034301758
40
0.0
41
0.0
42
0.0
10
83.8227005004883
20
83.7557983398438
40
0.0
41
0.0
42
0.0
10
83.7919006347656
20
83.7556991577148
40
0.0
41
0.0
42
0.0
10
83.4917984008789
20
83.532096862793
40
0.0
41
0.0
42
0.0
10
83.4537963867188
20
83.5084991455078
40
0.0
41
0.0
42
0.0
10
83.4546966552734
20
83.4643020629883
40
0.0
41
0.0
42
0.0
10
83.3320999145508
20
83.0162963867188
40
0.0
41
0.0
42
0.0
10
83.3085021972656
20
82.7115020751953
40
0.0
41
0.0
42
0.0
10
83.3084030151367
20
82.6731033325195
40
0.0
41
0.0
42
0.0
10
83.3212966918945
20
82.4999008178711
40
0.0
41
0.0
42
0.0
10
83.3018035888672
20
82.2142028808594
40
0.0
41
0.0
42
0.0
10
83.3010025024414
20
82.0182037353516
40
0.0
41
0.0
42
0.0
10
83.2516021728516
20
81.711799621582
40
0.0
41
0.0
42
0.0
10
83.2245025634766
20
81.5142974853516
40
0.0
41
0.0
42
0.0
10
83.0094985961914
20
81.0085983276367
40
0.0
41
0.0
42
0.0
10
82.9962005615234
20
80.9934005737305
40
0.0
41
0.0
42
0.0
10
82.9047012329102
20
80.8747024536133
40
0.0
41
0.0
42
0.0
10
82.7972030639648
20
80.7456970214844
40
0.0
41
0.0
42
0.0
10
82.484001159668
20
80.6436996459961
40
0.0
41
0.0
42
0.0
10
82.1761016845703
20
80.6455001831055
40
0.0
41
0.0
42
0.0
10
82.1412963867188
20
80.6415023803711
40
0.0
41
0.0
42
0.0
10
82.0370025634766
20
80.5860977172852
40
0.0
41
0.0
42
0.0
10
81.9925994873047
20
80.5730972290039
40
0.0
41
0.0
42
0.0
10
81.731201171875
20
80.6007995605469
40
0.0
41
0.0
42
0.0
10
81.6929016113281
20
80.600700378418
40
0.0
41
0.0
42
0.0
10
81.5081024169922
20
80.5899963378906
40
0.0
41
0.0
42
0.0
10
81.2648010253906
20
80.627799987793
40
0.0
41
0.0
42
0.0
10
81.0169982910156
20
80.6380004882812
40
0.0
41
0.0
42
0.0
10
80.7432022094727
20
80.703498840332
40
0.0
41
0.0
42
0.0
10
80.5145034790039
20
80.7264022827148
40
0.0
41
0.0
42
0.0
10
80.3376998901367
20
80.8044967651367
40
0.0
41
0.0
42
0.0
10
80.0663986206055
20
80.9458999633789
40
0.0
41
0.0
42
0.0
10
80.0083999633789
20
80.9613037109375
40
0.0
41
0.0
42
0.0
10
79.9664001464844
20
81.0090026855469
40
0.0
41
0.0
42
0.0
10
79.9616012573242
20
81.0220031738281
40
0.0
41
0.0
42
0.0
10
79.9347991943359
20
81.0762023925781
40
0.0
41
0.0
42
0.0
10
79.7772979736328
20
81.3115005493164
40
0.0
41
0.0
42
0.0
10
79.622802734375
20
81.5084991455078
40
0.0
41
0.0
42
0.0
10
79.5007019042969
20
81.7426986694336
40
0.0
41
0.0
42
0.0
10
79.4838027954102
20
81.7863998413086
40
0.0
41
0.0
42
0.0
10
79.4524993896484
20
81.859001159668
40
0.0
41
0.0
42
0.0
10
79.4260025024414
20
82.0171966552734
40
0.0
41
0.0
42
0.0
10
79.4114990234375
20
82.1704025268555
40
0.0
41
0.0
42
0.0
10
79.2904968261719
20
82.5103988647461
40
0.0
41
0.0
42
0.0
10
79.3014984130859
20
82.6755981445312
40
0.0
41
0.0
42
0.0
10
79.301399230957
20
82.711799621582
40
0.0
41
0.0
42
0.0
10
79.2077026367188
20
83.0148010253906
40
0.0
41
0.0
42
0.0
10
79.1520004272461
20
83.2994995117188
40
0.0
41
0.0
42
0.0
10
79.2400970458984
20
83.4893035888672
40
0.0
41
0.0
42
0.0
10
79.5036010742188
20
83.9925994873047
40
0.0
41
0.0
42
0.0
10
79.5102996826172
20
83.9973983764648
40
0.0
41
0.0
42
0.0
10
80.0112991333008
20
84.2928009033203
40
0.0
41
0.0
42
0.0
10
80.4486999511719
20
84.435302734375
40
0.0
41
0.0
42
0.0
10
80.5139999389648
20
84.4587020874023
40
0.0
41
0.0
42
0.0
10
80.9175033569336
20
84.5515975952148
40
0.0
41
0.0
42
0.0
10
81.0140991210938
20
84.5767974853516
40
0.0
41
0.0
42
0.0
10
81.1275024414062
20
84.6131973266602
40
0.0
41
0.0
42
0.0
10
81.5113983154297
20
84.6966018676758
40
0.0
41
0.0
42
0.0
10
81.9312973022461
20
84.9908981323242
40
0.0
41
0.0
42
0.0
10
81.9312973022461
20
84.9990005493164
40
0.0
41
0.0
42
0.0
10
81.811897277832
20
84.9990005493164
40
0.0
41
0.0
42
0.0
10
81.4886016845703
20
84.7723999023438
40
0.0
41
0.0
42
0.0
10
81.1941986083984
20
84.7083969116211
40
0.0
41
0.0
42
0.0
10
80.9858016967773
20
84.6414031982422
40
0.0
41
0.0
42
0.0
10
80.8049011230469
20
84.5942993164062
40
0.0
41
0.0
42
0.0
10
80.4854965209961
20
84.5208969116211
40
0.0
41
0.0
42
0.0
10
79.9886016845703
20
84.3600997924805
40
0.0
41
0.0
42
0.0
10
79.6476974487305
20
84.1591033935547
40
0.0
41
0.0
42
0.0
10
79.492301940918
20
84.0774002075195
40
0.0
41
0.0
42
0.0
10
79.4216995239258
20
84.0098037719727
40
0.0
41
0.0
42
0.0
10
79.4068984985352
20
83.9121017456055
40
0.0
41
0.0
42
0.0
10
79.1967010498047
20
83.5106964111328
40
0.0
41
0.0
42
0.0
10
79.1269989013672
20
83.3602981567383
40
0.0
41
0.0
42
0.0
10
79.1268997192383
20
83.3270034790039
40
0.0
41
0.0
42
0.0
10
79.1939010620117
20
82.9850997924805
40
0.0
41
0.0
42
0.0
10
79.2985992431641
20
82.6462020874023
40
0.0
41
0.0
42
0.0
210
0.0
220
0.0
230
1.0
0
LWPOLYLINE
5
3C
330
1C
100
AcDbEntity
67
0
8
0
62
256
6
ByLayer
370
-1
48
1.0
60
0
100
AcDbPolyline
90
137
70
1
38
0.0
39
0.0
10
80.6424026489258
20
67.7996978759766
40
0.0
41
0.0
42
0.0
10
80.6405029296875
20
67.4832000732422
40
0.0
41
0.0
42
0.0
10
80.7499008178711
20
67.1472015380859
40
0.0
41
0.0
42
0.0
10
80.8436965942383
20
67.0690002441406
40
0.0
41
0.0
42
0.0
10
80.9384002685547
20
66.9961013793945
40
0.0
41
0.0
42
0.0
10
80.9912033081055
20
66.9492034912109
40
0.0
41
0.0
42
0.0
10
81.1146011352539
20
66.8989028930664
40
0.0
41
0.0
42
0.0
10
81.4856033325195
20
66.7408981323242
40
0.0
41
0.0
42
0.0
10
81.6380004882812
20
66.7199020385742
40
0.0
41
0.0
42
0.0
10
81.9816970825195
20
66.6642990112305
40
0.0
41
0.0
42
0.0
10
82.1356964111328
20
66.6636962890625
40
0.0
41
0.0
42
0.0
10
82.4806976318359
20
66.6401977539062
40
0.0
41
0.0
42
0.0
10
82.5192031860352
20
66.6400985717773
40
0.0
41
0.0
42
0.0
10
82.649299621582
20
66.6500015258789
40
0.0
41
0.0
42
0.0
10
82.9807968139648
20
66.6240997314453
40
0.0
41
0.0
42
0.0
10
83.019401550293
20
66.6240997314453
40
0.0
41
0.0
42
0.0
10
83.1186981201172
20
66.6296005249023
40
0.0
41
0.0
42
0.0
10
83.4376983642578
20
66.4998016357422
40
0.0
41
0.0
42
0.0
10
83.4931030273438
20
66.4832000732422
40
0.0
41
0.0
42
0.0
10
83.5143966674805
20
66.4517974853516
40
0.0
41
0.0
42
0.0
10
83.7403030395508
20
66.1489028930664
40
0.0
41
0.0
42
0.0
10
83.7115020751953
20
66.0177001953125
40
0.0
41
0.0
42
0.0
10
83.7113037109375
20
65.6996002197266
40
0.0
41
0.0
42
0.0
10
83.6567001342773
20
65.5145034790039
40
0.0
41
0.0
42
0.0
10
83.5822982788086
20
65.2086029052734
40
0.0
41
0.0
42
0.0
10
83.5074005126953
20
65.015998840332
40
0.0
41
0.0
42
0.0
10
83.5074005126953
20
65.0009994506836
40
0.0
41
0.0
42
0.0
10
83.5260009765625
20
65.0009994506836
40
0.0
41
0.0
42
0.0
10
83.5804977416992
20
65.1412963867188
40
0.0
41
0.0
42
0.0
10
83.6641998291016
20
65.4853973388672
40
0.0
41
0.0
42
0.0
10
83.7095031738281
20
65.6389007568359
40
0.0
41
0.0
42
0.0
10
83.7129974365234
20
65.6759033203125
40
0.0
41
0.0
42
0.0
10
83.7132034301758
20
65.9822006225586
40
0.0
41
0.0
42
0.0
10
83.7557983398438
20
66.1772003173828
40
0.0
41
0.0
42
0.0
10
83.7556991577148
20
66.2079010009766
40
0.0
41
0.0
42
0.0
10
83.5322036743164
20
66.5081024169922
40
0.0
41
0.0
42
0.0
10
83.5056991577148
20
66.5502014160156
40
0.0
41
0.0
42
0.0
10
83.1941986083984
20
66.6772003173828
40
0.0
41
0.0
42
0.0
10
83.1587982177734
20
66.6771011352539
40
0.0
41
0.0
42
0.0
10
83.0031967163086
20
66.6685028076172
40
0.0
41
0.0
42
0.0
10
82.7116012573242
20
66.6912994384766
40
0.0
41
0.0
42
0.0
10
82.6663970947266
20
66.6909027099609
40
0.0
41
0.0
42
0.0
10
82.4999008178711
20
66.6783981323242
40
0.0
41
0.0
42
0.0
10
82.2142028808594
20
66.6978988647461
40
0.0
41
0.0
42
0.0
10
82.0182037353516
20
66.6986999511719
40
0.0
41
0.0
42
0.0
10
81.711799621582
20
66.7481002807617
40
0.0
41
0.0
42
0.0
10
81.5142974853516
20
66.7751998901367
40
0.0
41
0.0
42
0.0
10
81.0084991455078
20
66.9901962280273
40
0.0
41
0.0
42
0.0
10
80.9933013916016
20
67.0037002563477
40
0.0
41
0.0
42
0.0
10
80.8747024536133
20
67.0950012207031
40
0.0
41
0.0
42
0.0
10
80.7455978393555
20
67.2026977539062
40
0.0
41
0.0
42
0.0
10
80.6436996459961
20
67.5158996582031
40
0.0
41
0.0
42
0.0
10
80.6455001831055
20
67.8237991333008
40
0.0
41
0.0
42
0.0
10
80.6415023803711
20
67.8585968017578
40
0.0
41
0.0
42
0.0
10
80.5860977172852
20
67.9627990722656
40
0.0
41
0.0
42
0.0
10
80.5730972290039
20
68.0073013305664
40
0.0
41
0.0
42
0.0
10
80.6007995605469
20
68.2686996459961
40
0.0
41
0.0
42
0.0
10
80.600700378418
20
68.3069000244141
40
0.0
41
0.0
42
0.0
10
80.5899963378906
20
68.4917984008789
40
0.0
41
0.0
42
0.0
10
80.627799987793
20
68.7350006103516
40
0.0
41
0.0
42
0.0
10
80.6380004882812
20
68.9829025268555
40
0.0
41
0.0
42
0.0
10
80.703498840332
20
69.2565994262695
40
0.0
41
0.0
42
0.0
10
80.7264022827148
20
69.4853973388672
40
0.0
41
0.0
42
0.0
10
80.8046035766602
20
69.6621017456055
40
0.0
41
0.0
42
0.0
10
80.9459991455078
20
69.9334030151367
40
0.0
41
0.0
42
0.0
10
80.9614028930664
20
69.9915008544922
40
0.0
41
0.0
42
0.0
10
81.0053024291992
20
70.0300979614258
40
0.0
41
0.0
42
0.0
10
81.1065979003906
20
70.1373977661133
40
0.0
41
0.0
42
0.0
10
81.1498031616211
20
70.1535034179688
40
0.0
41
0.0
42
0.0
10
81.3970031738281
20
70.3471984863281
40
0.0
41
0.0
42
0.0
10
81.5121994018555
20
70.3788986206055
40
0.0
41
0.0
42
0.0
10
81.7427978515625
20
70.4990005493164
40
0.0
41
0.0
42
0.0
10
81.7863998413086
20
70.515998840332
40
0.0
41
0.0
42
0.0
10
81.859001159668
20
70.5472030639648
40
0.0
41
0.0
42
0.0
10
82.0147018432617
20
70.5731964111328
40
0.0
41
0.0
42
0.0
10
82.3603973388672
20
70.696403503418
40
0.0
41
0.0
42
0.0
10
82.5158004760742
20
70.7110977172852
40
0.0
41
0.0
42
0.0
10
82.8165969848633
20
70.8041000366211
40
0.0
41
0.0
42
0.0
10
82.9806976318359
20
70.7927017211914
40
0.0
41
0.0
42
0.0
10
83.0178985595703
20
70.7927017211914
40
0.0
41
0.0
42
0.0
10
83.2994995117188
20
70.8477020263672
40
0.0
41
0.0
42
0.0
10
83.4891967773438
20
70.7598037719727
40
0.0
41
0.0
42
0.0
10
83.9927978515625
20
70.4962005615234
40
0.0
41
0.0
42
0.0
10
83.9974975585938
20
70.4893035888672
40
0.0
41
0.0
42
0.0
10
84.2925033569336
20
69.9889984130859
40
0.0
41
0.0
42
0.0
10
84.3498992919922
20
69.836799621582
40
0.0
41
0.0
42
0.0
10
84.4588012695312
20
69.4853973388672
40
0.0
41
0.0
42
0.0
10
84.5515975952148
20
69.0822982788086
40
0.0
41
0.0
42
0.0
10
84.5766983032227
20
68.9858016967773
40
0.0
41
0.0
42
0.0
10
84.6131973266602
20
68.8722991943359
40
0.0
41
0.0
42
0.0
10
84.6975021362305
20
68.4845962524414
40
0.0
41
0.0
42
0.0
10
84.7540969848633
20
68.2474975585938
40
0.0
41
0.0
42
0.0
10
84.9870986938477
20
68.068603515625
40
0.0
41
0.0
42
0.0
10
84.9990005493164
20
68.068603515625
40
0.0
41
0.0
42
0.0
10
84.9989013671875
20
68.184196472168
40
0.0
41
0.0
42
0.0
10
84.8171997070312
20
68.3237991333008
40
0.0
41
0.0
42
0.0
10
84.7714996337891
20
68.5152969360352
40
0.0
41
0.0
42
0.0
10
84.7083969116211
20
68.8056030273438
40
0.0
41
0.0
42
0.0
10
84.6414031982422
20
69.0140991210938
40
0.0
41
0.0
42
0.0
10
84.5942993164062
20
69.1949005126953
40
0.0
41
0.0
42
0.0
10
84.5207977294922
20
69.5145034790039
40
0.0
41
0.0
42
0.0
10
84.3979034423828
20
69.911003112793
40
0.0
41
0.0
42
0.0
10
84.3602981567383
20
70.0108032226562
40
0.0
41
0.0
42
0.0
10
84.1591033935547
20
70.3520965576172
40
0.0
41
0.0
42
0.0
10
84.0774002075195
20
70.5074996948242
40
0.0
41
0.0
42
0.0
10
84.0096969604492
20
70.5780029296875
40
0.0
41
0.0
42
0.0
10
83.9121017456055
20
70.5927963256836
40
0.0
41
0.0
42
0.0
10
83.5105972290039
20
70.8030014038086
40
0.0
41
0.0
42
0.0
10
83.3602981567383
20
70.8729019165039
40
0.0
41
0.0
42
0.0
10
83.3270034790039
20
70.872802734375
40
0.0
41
0.0
42
0.0
10
82.9917984008789
20
70.8071975708008
40
0.0
41
0.0
42
0.0
10
82.8641967773438
20
70.8162002563477
40
0.0
41
0.0
42
0.0
10
82.8281021118164
20
70.8161010742188
40
0.0
41
0.0
42
0.0
10
82.4841003417969
20
70.7101974487305
40
0.0
41
0.0
42
0.0
10
82.2894973754883
20
70.6918029785156
40
0.0
41
0.0
42
0.0
10
81.9852981567383
20
70.5833969116211
40
0.0
41
0.0
42
0.0
10
81.7908020019531
20
70.5509033203125
40
0.0
41
0.0
42
0.0
10
81.6713027954102
20
70.5009002685547
40
0.0
41
0.0
42
0.0
10
81.4877014160156
20
70.4051971435547
40
0.0
41
0.0
42
0.0
10
81.3470993041992
20
70.3666000366211
40
0.0
41
0.0
42
0.0
10
81.1298980712891
20
70.196403503418
40
0.0
41
0.0
42
0.0
10
81.0790023803711
20
70.1774978637695
40
0.0
41
0.0
42
0.0
10
80.994499206543
20
70.0878982543945
40
0.0
41
0.0
42
0.0
10
80.9039993286133
20
70.0083999633789
40
0.0
41
0.0
42
0.0
10
80.8711013793945
20
69.8836975097656
40
0.0
41
0.0
42
0.0
10
80.7518005371094
20
69.654899597168
40
0.0
41
0.0
42
0.0
10
80.6895980834961
20
69.5145034790039
40
0.0
41
0.0
42
0.0
10
80.6611022949219
20
69.2307968139648
40
0.0
41
0.0
42
0.0
10
80.6100006103516
20
69.0170974731445
40
0.0
41
0.0
42
0.0
10
80.5970993041992
20
68.7070999145508
40
0.0
41
0.0
42
0.0
10
80.568000793457
20
68.5183029174805
40
0.0
41
0.0
42
0.0
10
80.5679016113281
20
68.480598449707
40
0.0
41
0.0
42
0.0
10
80.5818023681641
20
68.2379989624023
40
0.0
41
0.0
42
0.0
10
80.5587997436523
20
68.018798828125
40
0.0
41
0.0
42
0.0
10
80.5587005615234
20
67.9826965332031
40
0.0
41
0.0
42
0.0
10
80.5751037597656
20
67.9260025024414
40
0.0
41
0.0
42
0.0
10
80.6424026489258
20
67.7996978759766
40
0.0
41
0.0
42
0.0
210
0.0
220
0.0
230
1.0
0
LWPOLYLINE
5
3D
330
1C
100
AcDbEntity
67
0
8
0
62
256
6
ByLayer
370
-1
48
1.0
60
0
100
AcDbPolyline
90
79
70
1
38
0.0
39
0.0
10
82.6920013427734
20
75.7405014038086
40
0.0
41
0.0
42
0.0
10
82.7240982055664
20
75.486701965332
40
0.0
41
0.0
42
0.0
10
82.9984970092773
20
75.0072021484375
40
0.0
41
0.0
42
0.0
10
83.0065002441406
20
74.9907989501953
40
0.0
41
0.0
42
0.0
10
83.3414993286133
20
74.5242004394531
40
0.0
41
0.0
42
0.0
10
83.3690032958984
20
74.4947967529297
40
0.0
41
0.0
42
0.0
10
83.4951019287109
20
74.3772964477539
40
0.0
41
0.0
42
0.0
10
83.5198974609375
20
74.3481979370117
40
0.0
41
0.0
42
0.0
10
83.5923004150391
20
74.3005981445312
40
0.0
41
0.0
42
0.0
10
83.8407974243164
20
73.9954986572266
40
0.0
41
0.0
42
0.0
10
83.9642028808594
20
73.9121017456055
40
0.0
41
0.0
42
0.0
10
83.9954986572266
20
73.8681030273438
40
0.0
41
0.0
42
0.0
10
84.2968978881836
20
73.614501953125
40
0.0
41
0.0
42
0.0
10
84.3320999145508
20
73.5950012207031
40
0.0
41
0.0
42
0.0
10
84.4819030761719
20
73.5675964355469
40
0.0
41
0.0
42
0.0
10
84.5168991088867
20
73.567497253418
40
0.0
41
0.0
42
0.0
10
84.6592025756836
20
73.6091003417969
40
0.0
41
0.0
42
0.0
10
84.9814987182617
20
73.5621032714844
40
0.0
41
0.0
42
0.0
10
84.9990005493164
20
73.5621032714844
40
0.0
41
0.0
42
0.0
10
84.9989013671875
20
73.5953979492188
40
0.0
41
0.0
42
0.0
10
84.7134017944336
20
73.6376037597656
40
0.0
41
0.0
42
0.0
10
84.6780014038086
20
73.6374969482422
40
0.0
41
0.0
42
0.0
10
84.4964981079102
20
73.5842971801758
40
0.0
41
0.0
42
0.0
10
84.3330001831055
20
73.6143035888672
40
0.0
41
0.0
42
0.0
10
84.0043029785156
20
73.8907012939453
40
0.0
41
0.0
42
0.0
10
83.9703979492188
20
73.9385986328125
40
0.0
41
0.0
42
0.0
10
83.8733978271484
20
74.0043029785156
40
0.0
41
0.0
42
0.0
10
83.5924987792969
20
74.3490982055664
40
0.0
41
0.0
42
0.0
10
83.5353012084961
20
74.3867034912109
40
0.0
41
0.0
42
0.0
10
83.5046997070312
20
74.4225997924805
40
0.0
41
0.0
42
0.0
10
83.4161987304688
20
74.504997253418
40
0.0
41
0.0
42
0.0
10
83.3942031860352
20
74.5282974243164
40
0.0
41
0.0
42
0.0
10
83.1722030639648
20
74.8380966186523
40
0.0
41
0.0
42
0.0
10
83.1239013671875
20
74.89990234375
40
0.0
41
0.0
42
0.0
10
83.0470962524414
20
75.0091018676758
40
0.0
41
0.0
42
0.0
10
83.0012969970703
20
75.1014022827148
40
0.0
41
0.0
42
0.0
10
82.7661972045898
20
75.5130996704102
40
0.0
41
0.0
42
0.0
10
82.7281036376953
20
75.8143997192383
40
0.0
41
0.0
42
0.0
10
82.7391967773438
20
75.9860000610352
40
0.0
41
0.0
42
0.0
10
82.8259963989258
20
76.1427001953125
40
0.0
41
0.0
42
0.0
10
82.9123992919922
20
76.4869995117188
40
0.0
41
0.0
42
0.0
10
82.918098449707
20
76.4994964599609
40
0.0
41
0.0
42
0.0
10
83.003303527832
20
76.6172027587891
40
0.0
41
0.0
42
0.0
10
83.0335998535156
20
76.6548004150391
40
0.0
41
0.0
42
0.0
10
83.1774978637695
20
76.9887008666992
40
0.0
41
0.0
42
0.0
10
83.3397979736328
20
77.3198013305664
40
0.0
41
0.0
42
0.0
10
83.4872970581055
20
77.4915008544922
40
0.0
41
0.0
42
0.0
10
83.5017013549805
20
77.522102355957
40
0.0
41
0.0
42
0.0
10
83.5942993164062
20
77.6567001342773
40
0.0
41
0.0
42
0.0
10
83.7080001831055
20
77.8001022338867
40
0.0
41
0.0
42
0.0
10
83.9656982421875
20
77.9949035644531
40
0.0
41
0.0
42
0.0
10
84.0077972412109
20
78.0521011352539
40
0.0
41
0.0
42
0.0
10
84.3184967041016
20
78.1185989379883
40
0.0
41
0.0
42
0.0
10
84.5030975341797
20
78.1891021728516
40
0.0
41
0.0
42
0.0
10
84.8862991333008
20
78.0971984863281
40
0.0
41
0.0
42
0.0
10
84.9819030761719
20
78.0799026489258
40
0.0
41
0.0
42
0.0
10
84.9990005493164
20
78.0799026489258
40
0.0
41
0.0
42
0.0
10
84.9989013671875
20
78.1476974487305
40
0.0
41
0.0
42
0.0
10
84.8350982666016
20
78.1776962280273
40
0.0
41
0.0
42
0.0
10
84.5175018310547
20
78.2540969848633
40
0.0
41
0.0
42
0.0
10
84.4838027954102
20
78.2539978027344
40
0.0
41
0.0
42
0.0
10
84.2279968261719
20
78.1560974121094
40
0.0
41
0.0
42
0.0
10
83.9922027587891
20
78.105598449707
40
0.0
41
0.0
42
0.0
10
83.9184036254883
20
78.004997253418
40
0.0
41
0.0
42
0.0
10
83.7127990722656
20
77.8498001098633
40
0.0
41
0.0
42
0.0
10
83.6264038085938
20
77.7406005859375
40
0.0
41
0.0
42
0.0
10
83.4981994628906
20
77.5544967651367
40
0.0
41
0.0
42
0.0
10
83.4766998291016
20
77.5084991455078
40
0.0
41
0.0
42
0.0
10
83.3423004150391
20
77.3519973754883
40
0.0
41
0.0
42
0.0
10
83.3156967163086
20
77.3142013549805
40
0.0
41
0.0
42
0.0
10
83.1670989990234
20
77.0111999511719
40
0.0
41
0.0
42
0.0
10
83.0381011962891
20
76.7118988037109
40
0.0
41
0.0
42
0.0
10
82.996696472168
20
76.660400390625
40
0.0
41
0.0
42
0.0
10
82.8929977416992
20
76.5171966552734
40
0.0
41
0.0
42
0.0
10
82.890998840332
20
76.5130004882812
40
0.0
41
0.0
42
0.0
10
82.8143997192383
20
76.2071990966797
40
0.0
41
0.0
42
0.0
10
82.7071990966797
20
76.0139007568359
40
0.0
41
0.0
42
0.0
10
82.6921005249023
20
75.7785034179688
40
0.0
41
0.0
42
0.0
10
82.6920013427734
20
75.7405014038086
40
0.0
41
0.0
42
0.0
210
0.0
220
0.0
230
1.0
0
VIEWPORT
5
42
330
3E
100
AcDbEntity
67
1
8
0
62
256
6
ByLayer
370
-1
48
1.0
60
0
100
AcDbViewport
10
0.0
20
0.0
30
0.0
40
297.0
41
210.0
68
1
69
1
12
50.0
22
100.0
13
0.0
23
0.0
14
10.0
24
10.0
15
10.0
25
10.0
16
0.0
26
0.0
36
1.0
17
0.0
27
0.0
37
0.0
42
50.0
43
0.0
44
0.0
45
250.0
50
0.0
51
0.0
72
1000
90
819232
110
0.0
120
0.0
130
0.0
111
1.0
121
0.0
131
0.0
112
0.0
122
1.0
132
0.0
0
ENDSEC
0
SECTION
2
OBJECTS
0
DICTIONARY
5
48
330
0
100
AcDbDictionary
280
1
281
1
3
ACAD_GROUP
350
12
3
ACAD_LAYOUT
350
41
3
ACAD_DGNDEFINITIONS
350
F
3
ACAD_DWFDEFINITIONS
350
10
3
ACAD_PDFDEFINITIONS
350
11
3
ACAD_MLINESTYLE
350
B
3
ACAD_IMAGE_DICT
350
E
3
ACAD_IMAGE_VARS
350
21
0
DICTIONARY
5
12
330
48
100
AcDbDictionary
280
1
281
1
0
DICTIONARY
5
41
330
48
100
AcDbDictionary
280
1
281
1
3
Model
350
20
3
Layout1
350
43
0
DICTIONARY
5
F
330
48
100
AcDbDictionary
280
1
281
1
0
DICTIONARY
5
10
330
48
100
AcDbDictionary
280
1
281
1
0
DICTIONARY
5
11
330
48
100
AcDbDictionary
280
1
281
1
0
DICTIONARY
5
B
330
48
100
AcDbDictionary
280
1
281
1
3
Standard
350
1B
0
DICTIONARY
5
E
330
48
100
AcDbDictionary
280
1
281
1
0
DICTIONARY
5
6
330
5
100
AcDbDictionary
280
1
281
1
3
ACAD_LAYERSTATES
360
49
0
DICTIONARY
5
49
330
6
100
AcDbDictionary
280
1
281
1
0
LAYOUT
5
20
330
41
100
AcDbPlotSettings
1

2
none_device
4
ISO_A4_(210.00_x_297.00_MM)
6

40
7.5
41
20.0
42
7.5
43
20.0
44
210.0
45
297.0
46
0.0
47
0.0
48
0.0
49
0.0
140
0.0
141
0.0
142
1.0
143
1.0
70
11952
72
1
73
1
74
1
7

75
0
76
0
77
2
78
300
147
1.0
148
0.0
149
0.0
100
AcDbLayout
1
Model
71
0
10
-20.0
20
-7.5
11
277.0
21
202.5
12
0.0
22
0.0
32
0.0
14
25.7
24
19.5
34
0.0
15
231.3
25
175.5
35
0.0
146
0.0
13
0.0
23
0.0
33
0.0
16
1.0
26
0.0
36
0.0
17
0.0
27
1.0
37
0.0
76
0
330
1C
0
LAYOUT
5
43
330
41
100
AcDbPlotSettings
1

2
none_device
4
ISO_A4_(210.00_x_297.00_MM)
6

40
7.5
41
20.0
42
7.5
43
20.0
44
210.0
45
297.0
46
0.0
47
0.0
48
0.0
49
0.0
140
0.0
141
0.0
142
1.0
143
1.0
70
688
72
1
73
1
74
1
7

75
0
76
0
77
2
78
300
147
1.0
148
0.0
149
0.0
100
AcDbLayout
1
Layout1
71
1
10
-20.0
20
-7.5
11
277.0
21
202.5
12
0.0
22
0.0
32
0.0
14
25.7
24
19.5
34
0.0
15
231.3
25
175.5
35
0.0
146
0.0
13
0.0
23
0.0
33
0.0
16
1.0
26
0.0
36
0.0
17
0.0
27
1.0
37
0.0
76
0
330
3E
0
MLINESTYLE
5
1B
330
B
100
AcDbMlineStyle
2
Standard
70
0
3

62
256
51
90.0
52
90.0
71
2
49
0.5
62
256
6
ByLayer
49
-0.5
62
256
6
ByLayer
0
RASTERVARIABLES
5
21
330
E
100
AcDbRasterVariables
90
0
70
1
71
1
72
0
0
ENDSEC
0
EOF
