999
DXF file generated by netDxf https://github.com/haplokuon/netDxf, Copyright(C) Daniel Carvajal, Licensed under MIT
0
SECTION
2
HEADER
9
$ACADVER
1
AC1015
9
$DWGCODEPAGE
3
ANSI_1252
9
$HANDSEED
5
3C
9
$ANGBASE
50
0.0
9
$ANGDIR
70
0
9
$ATTMODE
70
1
9
$AUNITS
70
0
9
$AUPREC
70
0
9
$CECOLOR
62
256
9
$CELTSCALE
40
1.0
9
$CELTYPE
6
ByLayer
9
$CELWEIGHT
370
-1
9
$CLAYER
8
0
9
$CMLJUST
70
0
9
$CMLSCALE
40
20.0
9
$CMLSTYLE
2
Standard
9
$DIMSTYLE
2
Standard
9
$TEXTSIZE
40
2.5
9
$TEXTSTYLE
7
Standard
9
$LUNITS
70
2
9
$LUPREC
70
4
9
$MIRRTEXT
70
0
9
$EXTNAMES
290
1
9
$INSBASE
10
0.0
20
0.0
30
0.0
9
$INSUNITS
70
0
9
$LTSCALE
40
1.0
9
$LWDISPLAY
290
0
9
$PDMODE
70
0
9
$PDSIZE
40
0.0
9
$PLINEGEN
70
0
9
$PSLTSCALE
70
1
9
$SPLINESEGS
70
8
9
$SURFU
70
6
9
$SURFV
70
6
9
$TDCREATE
40
2460823.48371867
9
$TDUCREATE
40
2460823.15038534
9
$TDUPDATE
40
2460823.48371867
9
$TDUUPDATE
40
2460823.15038534
9
$TDINDWG
40
0.0
9
$UCSORG
10
0.0
20
0.0
30
0.0
9
$UCSXDIR
10
1.0
20
0.0
30
0.0
9
$UCSYDIR
10
0.0
20
1.0
30
0.0
9
$DIMADEC
70
0
9
$DIMALT
70
0
9
$DIMALTD
70
2
9
$DIMALTF
40
25.4
9
$DIMALTRND
40
0.0
9
$DIMALTTD
70
2
9
$DIMALTTZ
70
0
9
$DIMALTU
70
2
9
$DIMALTZ
70
0
9
$DIMAPOST
1

9
$DIMATFIT
70
3
9
$DIMAUNIT
70
0
9
$DIMASZ
40
0.18
9
$DIMAZIN
70
0
9
$DIMSAH
70
0
9
$DIMBLK
1

9
$DIMLDRBLK
1

9
$DIMCEN
40
0.09
9
$DIMCLRD
70
0
9
$DIMCLRE
70
0
9
$DIMCLRT
70
0
9
$DIMDEC
70
4
9
$DIMDLE
40
0.0
9
$DIMDLI
40
0.38
9
$DIMDSEP
70
46
9
$DIMEXE
40
0.18
9
$DIMEXO
40
0.0625
9
$DIMFXLON
70
0
9
$DIMFXL
40
1.0
9
$DIMGAP
40
0.09
9
$DIMJUST
70
0
9
$DIMLFAC
40
1.0
9
$DIMLUNIT
70
2
9
$DIMLWD
70
-2
9
$DIMLWE
70
-2
9
$DIMPOST
1

9
$DIMRND
40
0.0
9
$DIMSCALE
40
1.0
9
$DIMSD1
70
0
9
$DIMSD2
70
0
9
$DIMSE1
70
0
9
$DIMSE2
70
0
9
$DIMSOXD
70
0
9
$DIMTAD
70
0
9
$DIMTDEC
70
4
9
$DIMTFAC
40
1.0
9
$DIMTIH
70
0
9
$DIMTIX
70
0
9
$DIMTM
40
0.0
9
$DIMTMOVE
70
0
9
$DIMTOFL
70
0
9
$DIMTOH
70
0
9
$DIMTOL
70
0
9
$DIMLIM
70
0
9
$DIMTOLJ
70
1
9
$DIMTP
40
0.0
9
$DIMTXT
40
0.18
9
$DIMTXTDIRECTION
70
0
9
$DIMTZIN
70
0
9
$DIMZIN
70
0
9
$DIMFRAC
70
0
9
$DIMLTYPE
6
ByBlock
9
$DIMLTEX1
6
ByBlock
9
$DIMLTEX2
6
ByBlock
0
ENDSEC
0
SECTION
2
CLASSES
0
CLASS
1
RASTERVARIABLES
2
AcDbRasterVariables
3
ISM
90
0
280
0
281
0
0
ENDSEC
0
SECTION
2
TABLES
0
TABLE
2
APPID
5
4
330
0
100
AcDbSymbolTable
70
5
0
APPID
5
19
330
4
100
AcDbSymbolTableRecord
100
AcDbRegAppTableRecord
2
ACAD
70
0
0
APPID
5
36
330
4
100
AcDbSymbolTableRecord
100
AcDbRegAppTableRecord
2
AcCmTransparency
70
0
0
APPID
5
37
330
4
100
AcDbSymbolTableRecord
100
AcDbRegAppTableRecord
2
AcAecLayerStandard
70
0
0
APPID
5
38
330
4
100
AcDbSymbolTableRecord
100
AcDbRegAppTableRecord
2
GradientColor1ACI
70
0
0
APPID
5
39
330
4
100
AcDbSymbolTableRecord
100
AcDbRegAppTableRecord
2
GradientColor2ACI
70
0
0
ENDTAB
0
TABLE
2
VPORT
5
1
330
0
100
AcDbSymbolTable
70
1
0
VPORT
5
2
330
1
100
AcDbSymbolTableRecord
100
AcDbViewportTableRecord
2
*Active
70
0
10
0.0
20
0.0
11
1.0
21
1.0
12
0.0
22
0.0
13
0.0
23
0.0
14
0.5
24
0.5
15
10.0
25
10.0
16
0.0
26
0.0
36
1.0
17
0.0
27
0.0
37
0.0
40
10.0
41
1.0
75
0
76
1
0
ENDTAB
0
TABLE
2
LTYPE
5
7
330
0
100
AcDbSymbolTable
70
3
0
LTYPE
5
15
330
7
100
AcDbSymbolTableRecord
100
AcDbLinetypeTableRecord
2
Continuous
70
0
3
Solid line
72
65
73
0
40
0.0
0
LTYPE
5
16
330
7
100
AcDbSymbolTableRecord
100
AcDbLinetypeTableRecord
2
ByLayer
70
0
3

72
65
73
0
40
0.0
0
LTYPE
5
17
330
7
100
AcDbSymbolTableRecord
100
AcDbLinetypeTableRecord
2
ByBlock
70
0
3

72
65
73
0
40
0.0
0
ENDTAB
0
TABLE
2
LAYER
5
5
102
{ACAD_XDICTIONARY
360
6
102
}
330
0
100
AcDbSymbolTable
70
1
0
LAYER
5
14
330
5
100
AcDbSymbolTableRecord
100
AcDbLayerTableRecord
2
0
70
0
62
7
6
Continuous
290
1
370
-3
390
0
0
ENDTAB
0
TABLE
2
STYLE
5
8
330
0
100
AcDbSymbolTable
70
1
0
STYLE
5
18
330
8
100
AcDbSymbolTableRecord
100
AcDbTextStyleTableRecord
2
Standard
3
simplex.shx
70
0
71
0
40
0.0
41
1.0
42
0.0
50
0.0
0
ENDTAB
0
TABLE
2
DIMSTYLE
5
A
330
0
100
AcDbSymbolTable
70
1
100
AcDbDimStyleTable
0
DIMSTYLE
105
1A
330
A
100
AcDbSymbolTableRecord
100
AcDbDimStyleTableRecord
2
Standard
3

4

40
1.0
41
0.18
42
0.0625
43
0.38
44
0.18
45
0.0
46
0.0
47
0.0
48
0.0
49
1.0
70
0
71
0
72
0
73
0
74
0
75
0
76
0
77
0
78
0
79
0
140
0.18
141
0.09
143
25.4
144
1.0
146
1.0
147
0.09
148
0.0
170
0
171
2
172
0
174
0
175
0
176
0
177
0
178
0
179
0
271
4
272
4
273
2
274
2
275
0
276
0
277
2
278
46
279
0
280
0
281
0
282
0
283
1
284
0
285
0
286
0
289
3
290
0
294
0
340
18
173
0
345
17
346
17
347
17
371
-2
372
-2
0
ENDTAB
0
TABLE
2
VIEW
5
3
330
0
100
AcDbSymbolTable
70
0
0
ENDTAB
0
TABLE
2
UCS
5
C
330
0
100
AcDbSymbolTable
70
0
0
ENDTAB
0
TABLE
2
BLOCK_RECORD
5
D
330
0
100
AcDbSymbolTable
70
2
0
BLOCK_RECORD
5
1C
330
D
100
AcDbSymbolTableRecord
100
AcDbBlockTableRecord
2
*Model_Space
340
20
0
BLOCK_RECORD
5
30
330
D
100
AcDbSymbolTableRecord
100
AcDbBlockTableRecord
2
*Paper_Space
340
35
0
ENDTAB
0
ENDSEC
0
SECTION
2
BLOCKS
0
BLOCK
5
1E
330
1C
100
AcDbEntity
67
0
8
0
100
AcDbBlockBegin
2
*Model_Space
70
0
10
0.0
20
0.0
30
0.0
3
*Model_Space
4

0
ENDBLK
5
1D
330
1C
100
AcDbEntity
8
0
100
AcDbBlockEnd
0
BLOCK
5
32
330
30
100
AcDbEntity
67
1
8
0
100
AcDbBlockBegin
2
*Paper_Space
70
0
10
0.0
20
0.0
30
0.0
3
*Paper_Space
4

0
ENDBLK
5
31
330
30
100
AcDbEntity
8
0
100
AcDbBlockEnd
0
ENDSEC
0
SECTION
2
ENTITIES
0
LWPOLYLINE
5
22
330
1C
100
AcDbEntity
67
0
8
0
62
256
6
ByLayer
370
-1
48
1.0
60
0
100
AcDbPolyline
90
27
70
1
38
0.0
39
0.0
10
65.0126037597656
20
65.3679962158203
40
0.0
41
0.0
42
0.0
10
65.1724014282227
20
65.4952011108398
40
0.0
41
0.0
42
0.0
10
65.4461975097656
20
65.8028030395508
40
0.0
41
0.0
42
0.0
10
65.4438018798828
20
66.0106964111328
40
0.0
41
0.0
42
0.0
10
65.4449005126953
20
66.3335037231445
40
0.0
41
0.0
42
0.0
10
65.4394989013672
20
66.3712005615234
40
0.0
41
0.0
42
0.0
10
65.407600402832
20
66.5158996582031
40
0.0
41
0.0
42
0.0
10
65.3462982177734
20
66.8702011108398
40
0.0
41
0.0
42
0.0
10
65.3042984008789
20
67.0143966674805
40
0.0
41
0.0
42
0.0
10
65.2141036987305
20
67.3686981201172
40
0.0
41
0.0
42
0.0
10
65.0328979492188
20
67.8665008544922
40
0.0
41
0.0
42
0.0
10
65.0071029663086
20
67.9178009033203
40
0.0
41
0.0
42
0.0
10
65.0009994506836
20
67.9178009033203
40
0.0
41
0.0
42
0.0
10
65.0009002685547
20
67.8683013916016
40
0.0
41
0.0
42
0.0
10
65.0335998535156
20
67.8031997680664
40
0.0
41
0.0
42
0.0
10
65.1476974487305
20
67.4870986938477
40
0.0
41
0.0
42
0.0
10
65.2166976928711
20
67.3012008666992
40
0.0
41
0.0
42
0.0
10
65.2969970703125
20
66.9854965209961
40
0.0
41
0.0
42
0.0
10
65.3509979248047
20
66.7996978759766
40
0.0
41
0.0
42
0.0
10
65.4057006835938
20
66.484001159668
40
0.0
41
0.0
42
0.0
10
65.4410018920898
20
66.3240966796875
40
0.0
41
0.0
42
0.0
10
65.4397964477539
20
65.9801025390625
40
0.0
41
0.0
42
0.0
10
65.4412994384766
20
65.8665008544922
40
0.0
41
0.0
42
0.0
10
65.1193008422852
20
65.5046005249023
40
0.0
41
0.0
42
0.0
10
65.0009994506836
20
65.410400390625
40
0.0
41
0.0
42
0.0
10
65.0009994506836
20
65.3681030273438
40
0.0
41
0.0
42
0.0
10
65.0126037597656
20
65.3679962158203
40
0.0
41
0.0
42
0.0
210
0.0
220
0.0
230
1.0
0
LWPOLYLINE
5
23
330
1C
100
AcDbEntity
67
0
8
0
62
256
6
ByLayer
370
-1
48
1.0
60
0
100
AcDbPolyline
90
28
70
1
38
0.0
39
0.0
10
65.8028030395508
20
84.5534973144531
40
0.0
41
0.0
42
0.0
10
66.0175018310547
20
84.5560989379883
40
0.0
41
0.0
42
0.0
10
66.1882019042969
20
84.5936965942383
40
0.0
41
0.0
42
0.0
10
66.5169982910156
20
84.5924987792969
40
0.0
41
0.0
42
0.0
10
66.6602020263672
20
84.6341018676758
40
0.0
41
0.0
42
0.0
10
67.0145034790039
20
84.6955032348633
40
0.0
41
0.0
42
0.0
10
67.1586990356445
20
84.7490005493164
40
0.0
41
0.0
42
0.0
10
67.513801574707
20
84.8394012451172
40
0.0
41
0.0
42
0.0
10
67.8666000366211
20
84.966796875
40
0.0
41
0.0
42
0.0
10
67.9178009033203
20
84.9927978515625
40
0.0
41
0.0
42
0.0
10
67.9178009033203
20
84.9990005493164
40
0.0
41
0.0
42
0.0
10
67.8684005737305
20
84.9989013671875
40
0.0
41
0.0
42
0.0
10
67.8032989501953
20
84.9661026000977
40
0.0
41
0.0
42
0.0
10
67.4860992431641
20
84.8516006469727
40
0.0
41
0.0
42
0.0
10
67.1712036132812
20
84.7714996337891
40
0.0
41
0.0
42
0.0
10
66.9853973388672
20
84.7025985717773
40
0.0
41
0.0
42
0.0
10
66.6697006225586
20
84.6477966308594
40
0.0
41
0.0
42
0.0
10
66.4833984375
20
84.5936965942383
40
0.0
41
0.0
42
0.0
10
66.1657028198242
20
84.5949020385742
40
0.0
41
0.0
42
0.0
10
66.1279983520508
20
84.5920028686523
40
0.0
41
0.0
42
0.0
10
65.9823989868164
20
84.5599975585938
40
0.0
41
0.0
42
0.0
10
65.8665008544922
20
84.5584030151367
40
0.0
41
0.0
42
0.0
10
65.5046005249023
20
84.8804016113281
40
0.0
41
0.0
42
0.0
10
65.410400390625
20
84.9990005493164
40
0.0
41
0.0
42
0.0
10
65.3681030273438
20
84.9990005493164
40
0.0
41
0.0
42
0.0
10
65.3679962158203
20
84.9872970581055
40
0.0
41
0.0
42
0.0
10
65.4952011108398
20
84.8274002075195
40
0.0
41
0.0
42
0.0
10
65.8028030395508
20
84.5534973144531
40
0.0
41
0.0
42
0.0
210
0.0
220
0.0
230
1.0
0
LWPOLYLINE
5
24
330
1C
100
AcDbEntity
67
0
8
0
62
256
6
ByLayer
370
-1
48
1.0
60
0
100
AcDbPolyline
90
328
70
1
38
0.0
39
0.0
10
65.4574966430664
20
75.9865036010742
40
0.0
41
0.0
42
0.0
10
65.4991989135742
20
75.8846969604492
40
0.0
41
0.0
42
0.0
10
65.668701171875
20
75.4897994995117
40
0.0
41
0.0
42
0.0
10
65.7861022949219
20
75.3058013916016
40
0.0
41
0.0
42
0.0
10
65.9673004150391
20
74.9913024902344
40
0.0
41
0.0
42
0.0
10
65.9956970214844
20
74.9517974853516
40
0.0
41
0.0
42
0.0
10
66.1419982910156
20
74.8172988891602
40
0.0
41
0.0
42
0.0
10
66.3840026855469
20
74.4916000366211
40
0.0
41
0.0
42
0.0
10
66.4693984985352
20
74.3491973876953
40
0.0
41
0.0
42
0.0
10
66.4919967651367
20
74.3253021240234
40
0.0
41
0.0
42
0.0
10
66.6369018554688
20
74.2680969238281
40
0.0
41
0.0
42
0.0
10
66.9008026123047
20
73.9912033081055
40
0.0
41
0.0
42
0.0
10
66.9947967529297
20
73.7294006347656
40
0.0
41
0.0
42
0.0
10
67.2170028686523
20
73.7244033813477
40
0.0
41
0.0
42
0.0
10
67.3261032104492
20
73.5011978149414
40
0.0
41
0.0
42
0.0
10
67.0589981079102
20
73.0698013305664
40
0.0
41
0.0
42
0.0
10
67.0120010375977
20
73.0048980712891
40
0.0
41
0.0
42
0.0
10
66.9971008300781
20
72.9942016601562
40
0.0
41
0.0
42
0.0
10
66.9339981079102
20
72.8413009643555
40
0.0
41
0.0
42
0.0
10
66.8329010009766
20
72.5122985839844
40
0.0
41
0.0
42
0.0
10
66.8184967041016
20
72.4822006225586
40
0.0
41
0.0
42
0.0
10
66.756103515625
20
72.3667984008789
40
0.0
41
0.0
42
0.0
10
66.6493988037109
20
72.0131988525391
40
0.0
41
0.0
42
0.0
10
66.595100402832
20
71.8690032958984
40
0.0
41
0.0
42
0.0
10
66.5167007446289
20
71.5156021118164
40
0.0
41
0.0
42
0.0
10
66.500602722168
20
71.4339981079102
40
0.0
41
0.0
42
0.0
10
66.4906997680664
20
71.3722991943359
40
0.0
41
0.0
42
0.0
10
66.4550018310547
20
71.0186996459961
40
0.0
41
0.0
42
0.0
10
66.4518966674805
20
70.8351974487305
40
0.0
41
0.0
42
0.0
10
66.4658966064453
20
70.4828033447266
40
0.0
41
0.0
42
0.0
10
66.4960021972656
20
70.3545989990234
40
0.0
41
0.0
42
0.0
10
66.5214996337891
20
70.2093963623047
40
0.0
41
0.0
42
0.0
10
66.527099609375
20
70.1848983764648
40
0.0
41
0.0
42
0.0
10
66.5783996582031
20
69.9870986938477
40
0.0
41
0.0
42
0.0
10
66.6634979248047
20
69.804801940918
40
0.0
41
0.0
42
0.0
10
66.8523025512695
20
69.4932022094727
40
0.0
41
0.0
42
0.0
10
66.9233016967773
20
69.4264984130859
40
0.0
41
0.0
42
0.0
10
66.9941024780273
20
69.3458023071289
40
0.0
41
0.0
42
0.0
10
67.3077011108398
20
69.1223983764648
40
0.0
41
0.0
42
0.0
10
67.4311981201172
20
69.0195007324219
40
0.0
41
0.0
42
0.0
10
67.489501953125
20
68.9843978881836
40
0.0
41
0.0
42
0.0
10
67.8031005859375
20
68.8491973876953
40
0.0
41
0.0
42
0.0
10
67.9863967895508
20
68.7733993530273
40
0.0
41
0.0
42
0.0
10
68.1703033447266
20
68.7294998168945
40
0.0
41
0.0
42
0.0
10
68.4837036132812
20
68.6392974853516
40
0.0
41
0.0
42
0.0
10
68.6678009033203
20
68.6246032714844
40
0.0
41
0.0
42
0.0
10
68.9820022583008
20
68.5630035400391
40
0.0
41
0.0
42
0.0
10
69.0186004638672
20
68.5628967285156
40
0.0
41
0.0
42
0.0
10
69.1560974121094
20
68.581298828125
40
0.0
41
0.0
42
0.0
10
69.4813995361328
20
68.534797668457
40
0.0
41
0.0
42
0.0
10
69.5134963989258
20
68.5346984863281
40
0.0
41
0.0
42
0.0
10
69.6494979858398
20
68.6266021728516
40
0.0
41
0.0
42
0.0
10
69.9829025268555
20
68.5317993164062
40
0.0
41
0.0
42
0.0
10
70.0130004882812
20
68.5317001342773
40
0.0
41
0.0
42
0.0
10
70.1219024658203
20
68.6130981445312
40
0.0
41
0.0
42
0.0
10
70.2732009887695
20
68.5005035400391
40
0.0
41
0.0
42
0.0
10
70.4253997802734
20
68.4917984008789
40
0.0
41
0.0
42
0.0
10
70.4953994750977
20
68.4512023925781
40
0.0
41
0.0
42
0.0
10
70.7142028808594
20
68.0679016113281
40
0.0
41
0.0
42
0.0
10
70.7570037841797
20
67.9872970581055
40
0.0
41
0.0
42
0.0
10
70.8239974975586
20
67.6931991577148
40
0.0
41
0.0
42
0.0
10
70.9375
20
67.4906005859375
40
0.0
41
0.0
42
0.0
10
70.9972991943359
20
67.3939971923828
40
0.0
41
0.0
42
0.0
10
71.0494003295898
20
67.3224029541016
40
0.0
41
0.0
42
0.0
10
71.1453018188477
20
67.1324996948242
40
0.0
41
0.0
42
0.0
10
71.1845016479492
20
66.9887008666992
40
0.0
41
0.0
42
0.0
10
71.4163970947266
20
66.6353988647461
40
0.0
41
0.0
42
0.0
10
71.4889984130859
20
66.4909973144531
40
0.0
41
0.0
42
0.0
10
71.4962005615234
20
66.4814987182617
40
0.0
41
0.0
42
0.0
10
71.7993011474609
20
66.1381988525391
40
0.0
41
0.0
42
0.0
10
71.9098968505859
20
65.9934997558594
40
0.0
41
0.0
42
0.0
10
71.9942016601562
20
65.9044036865234
40
0.0
41
0.0
42
0.0
10
72.1373977661133
20
65.7891006469727
40
0.0
41
0.0
42
0.0
10
72.4901962280273
20
65.5477981567383
40
0.0
41
0.0
42
0.0
10
72.5270004272461
20
65.5311965942383
40
0.0
41
0.0
42
0.0
10
72.6239013671875
20
65.4998016357422
40
0.0
41
0.0
42
0.0
10
72.8419036865234
20
65.4244003295898
40
0.0
41
0.0
42
0.0
10
72.9851989746094
20
65.3626022338867
40
0.0
41
0.0
42
0.0
10
73.165901184082
20
65.3460006713867
40
0.0
41
0.0
42
0.0
10
73.5180969238281
20
65.3444976806641
40
0.0
41
0.0
42
0.0
10
73.7005004882812
20
65.3779983520508
40
0.0
41
0.0
42
0.0
10
74.013298034668
20
65.4574966430664
40
0.0
41
0.0
42
0.0
10
74.1150970458984
20
65.4991989135742
40
0.0
41
0.0
42
0.0
10
74.5101013183594
20
65.6688003540039
40
0.0
41
0.0
42
0.0
10
74.6940994262695
20
65.7861022949219
40
0.0
41
0.0
42
0.0
10
75.0084991455078
20
65.9673004150391
40
0.0
41
0.0
42
0.0
10
75.0478973388672
20
65.9957962036133
40
0.0
41
0.0
42
0.0
10
75.182502746582
20
66.1419982910156
40
0.0
41
0.0
42
0.0
10
75.5082015991211
20
66.3841018676758
40
0.0
41
0.0
42
0.0
10
75.6504974365234
20
66.4693984985352
40
0.0
41
0.0
42
0.0
10
75.6744003295898
20
66.4921035766602
40
0.0
41
0.0
42
0.0
10
75.7315979003906
20
66.6369018554688
40
0.0
41
0.0
42
0.0
10
75.8730010986328
20
66.7729034423828
40
0.0
41
0.0
42
0.0
10
76.0086975097656
20
66.9008026123047
40
0.0
41
0.0
42
0.0
10
76.2773971557617
20
66.9974975585938
40
0.0
41
0.0
42
0.0
10
76.500602722168
20
67.3217010498047
40
0.0
41
0.0
42
0.0
10
76.6586990356445
20
67.1641998291016
40
0.0
41
0.0
42
0.0
10
76.9936981201172
20
67.0137023925781
40
0.0
41
0.0
42
0.0
10
77.0055999755859
20
66.9970016479492
40
0.0
41
0.0
42
0.0
10
77.1585998535156
20
66.9339981079102
40
0.0
41
0.0
42
0.0
10
77.4876022338867
20
66.8329010009766
40
0.0
41
0.0
42
0.0
10
77.5175018310547
20
66.8184967041016
40
0.0
41
0.0
42
0.0
10
77.6331024169922
20
66.756103515625
40
0.0
41
0.0
42
0.0
10
77.986701965332
20
66.6493988037109
40
0.0
41
0.0
42
0.0
10
78.1308975219727
20
66.595100402832
40
0.0
41
0.0
42
0.0
10
78.4842987060547
20
66.5167007446289
40
0.0
41
0.0
42
0.0
10
78.565803527832
20
66.500602722168
40
0.0
41
0.0
42
0.0
10
78.6276016235352
20
66.4906997680664
40
0.0
41
0.0
42
0.0
10
78.981201171875
20
66.4550018310547
40
0.0
41
0.0
42
0.0
10
79.1647033691406
20
66.4518966674805
40
0.0
41
0.0
42
0.0
10
79.5170974731445
20
66.4658966064453
40
0.0
41
0.0
42
0.0
10
79.6452026367188
20
66.4961013793945
40
0.0
41
0.0
42
0.0
10
79.7902984619141
20
66.521598815918
40
0.0
41
0.0
42
0.0
10
79.8149032592773
20
66.527099609375
40
0.0
41
0.0
42
0.0
10
80.0128021240234
20
66.578498840332
40
0.0
41
0.0
42
0.0
10
80.1950988769531
20
66.6635971069336
40
0.0
41
0.0
42
0.0
10
80.5065994262695
20
66.8524017333984
40
0.0
41
0.0
42
0.0
10
80.5733032226562
20
66.9233016967773
40
0.0
41
0.0
42
0.0
10
80.6539001464844
20
66.9941024780273
40
0.0
41
0.0
42
0.0
10
80.8774032592773
20
67.3078002929688
40
0.0
41
0.0
42
0.0
10
80.9802017211914
20
67.4312973022461
40
0.0
41
0.0
42
0.0
10
81.0152969360352
20
67.4896011352539
40
0.0
41
0.0
42
0.0
10
81.1504974365234
20
67.8031005859375
40
0.0
41
0.0
42
0.0
10
81.2265014648438
20
67.9869003295898
40
0.0
41
0.0
42
0.0
10
81.3167037963867
20
68.3003005981445
40
0.0
41
0.0
42
0.0
10
81.3606033325195
20
68.4843978881836
40
0.0
41
0.0
42
0.0
10
81.4222030639648
20
68.7977981567383
40
0.0
41
0.0
42
0.0
10
81.4369964599609
20
68.9822998046875
40
0.0
41
0.0
42
0.0
10
81.4821014404297
20
69.2970962524414
40
0.0
41
0.0
42
0.0
10
81.4844970703125
20
69.3356018066406
40
0.0
41
0.0
42
0.0
10
81.4843978881836
20
69.3734970092773
40
0.0
41
0.0
42
0.0
10
81.4658966064453
20
69.5122985839844
40
0.0
41
0.0
42
0.0
10
81.3731002807617
20
69.6494979858398
40
0.0
41
0.0
42
0.0
10
81.4681015014648
20
69.9829025268555
40
0.0
41
0.0
42
0.0
10
81.4681015014648
20
70.0130004882812
40
0.0
41
0.0
42
0.0
10
81.3865966796875
20
70.1219024658203
40
0.0
41
0.0
42
0.0
10
81.4992980957031
20
70.2732009887695
40
0.0
41
0.0
42
0.0
10
81.5080032348633
20
70.4254989624023
40
0.0
41
0.0
42
0.0
10
81.5485992431641
20
70.4953994750977
40
0.0
41
0.0
42
0.0
10
81.9319000244141
20
70.7142028808594
40
0.0
41
0.0
42
0.0
10
82.0126037597656
20
70.7570037841797
40
0.0
41
0.0
42
0.0
10
82.3066024780273
20
70.8240966796875
40
0.0
41
0.0
42
0.0
10
82.5093002319336
20
70.9375
40
0.0
41
0.0
42
0.0
10
82.6056976318359
20
70.9973983764648
40
0.0
41
0.0
42
0.0
10
82.6773986816406
20
71.0494003295898
40
0.0
41
0.0
42
0.0
10
82.8674011230469
20
71.1453018188477
40
0.0
41
0.0
42
0.0
10
83.0111999511719
20
71.1845016479492
40
0.0
41
0.0
42
0.0
10
83.3644027709961
20
71.4163970947266
40
0.0
41
0.0
42
0.0
10
83.5087966918945
20
71.4889984130859
40
0.0
41
0.0
42
0.0
10
83.5183029174805
20
71.4962005615234
40
0.0
41
0.0
42
0.0
10
83.8616027832031
20
71.7994003295898
40
0.0
41
0.0
42
0.0
10
84.0063018798828
20
71.9100036621094
40
0.0
41
0.0
42
0.0
10
84.0947036743164
20
71.9936981201172
40
0.0
41
0.0
42
0.0
10
84.3357009887695
20
72.3461990356445
40
0.0
41
0.0
42
0.0
10
84.4523010253906
20
72.4909973144531
40
0.0
41
0.0
42
0.0
10
84.4684982299805
20
72.5270004272461
40
0.0
41
0.0
42
0.0
10
84.5
20
72.6239013671875
40
0.0
41
0.0
42
0.0
10
84.5753021240234
20
72.8420028686523
40
0.0
41
0.0
42
0.0
10
84.6368026733398
20
72.9842987060547
40
0.0
41
0.0
42
0.0
10
84.638298034668
20
73.2959976196289
40
0.0
41
0.0
42
0.0
10
84.6552963256836
20
73.4809036254883
40
0.0
41
0.0
42
0.0
10
84.6551971435547
20
73.5179977416992
40
0.0
41
0.0
42
0.0
10
84.621696472168
20
73.7005004882812
40
0.0
41
0.0
42
0.0
10
84.5421981811523
20
74.013298034668
40
0.0
41
0.0
42
0.0
10
84.500602722168
20
74.1149978637695
40
0.0
41
0.0
42
0.0
10
84.3310012817383
20
74.5101013183594
40
0.0
41
0.0
42
0.0
10
84.2136001586914
20
74.6940002441406
40
0.0
41
0.0
42
0.0
10
84.0324020385742
20
75.0084991455078
40
0.0
41
0.0
42
0.0
10
84.0040969848633
20
75.0478973388672
40
0.0
41
0.0
42
0.0
10
83.8576965332031
20
75.182502746582
40
0.0
41
0.0
42
0.0
10
83.6156997680664
20
75.5082015991211
40
0.0
41
0.0
42
0.0
10
83.5301971435547
20
75.6504974365234
40
0.0
41
0.0
42
0.0
10
83.5077972412109
20
75.6744003295898
40
0.0
41
0.0
42
0.0
10
83.3629989624023
20
75.7314987182617
40
0.0
41
0.0
42
0.0
10
83.2267990112305
20
75.8730010986328
40
0.0
41
0.0
42
0.0
10
83.0988998413086
20
76.0086975097656
40
0.0
41
0.0
42
0.0
10
83.0050964355469
20
76.2703018188477
40
0.0
41
0.0
42
0.0
10
82.7826995849609
20
76.2752990722656
40
0.0
41
0.0
42
0.0
10
82.673698425293
20
76.4988021850586
40
0.0
41
0.0
42
0.0
10
82.9406967163086
20
76.9300003051758
40
0.0
41
0.0
42
0.0
10
82.9878997802734
20
76.9951019287109
40
0.0
41
0.0
42
0.0
10
83.002799987793
20
77.0056991577148
40
0.0
41
0.0
42
0.0
10
83.065803527832
20
77.1585998535156
40
0.0
41
0.0
42
0.0
10
83.1668014526367
20
77.4876022338867
40
0.0
41
0.0
42
0.0
10
83.1812973022461
20
77.5176010131836
40
0.0
41
0.0
42
0.0
10
83.2435989379883
20
77.6331024169922
40
0.0
41
0.0
42
0.0
10
83.3503036499023
20
77.986701965332
40
0.0
41
0.0
42
0.0
10
83.4046020507812
20
78.1308975219727
40
0.0
41
0.0
42
0.0
10
83.4831008911133
20
78.4842987060547
40
0.0
41
0.0
42
0.0
10
83.4991989135742
20
78.565803527832
40
0.0
41
0.0
42
0.0
10
83.5090026855469
20
78.6276016235352
40
0.0
41
0.0
42
0.0
10
83.5447998046875
20
78.9810028076172
40
0.0
41
0.0
42
0.0
10
83.5447006225586
20
79.0195007324219
40
0.0
41
0.0
42
0.0
10
83.5310974121094
20
79.3603973388672
40
0.0
41
0.0
42
0.0
10
83.5335998535156
20
79.5177001953125
40
0.0
41
0.0
42
0.0
10
83.5036010742188
20
79.6452026367188
40
0.0
41
0.0
42
0.0
10
83.4782028198242
20
79.7900009155273
40
0.0
41
0.0
42
0.0
10
83.421501159668
20
80.0117034912109
40
0.0
41
0.0
42
0.0
10
83.2316970825195
20
80.3249969482422
40
0.0
41
0.0
42
0.0
10
83.1464996337891
20
80.5074005126953
40
0.0
41
0.0
42
0.0
10
83.076301574707
20
80.5731964111328
40
0.0
41
0.0
42
0.0
10
83.0056991577148
20
80.6539001464844
40
0.0
41
0.0
42
0.0
10
82.6921005249023
20
80.8772964477539
40
0.0
41
0.0
42
0.0
10
82.5684967041016
20
80.9802017211914
40
0.0
41
0.0
42
0.0
10
82.5102996826172
20
81.0152969360352
40
0.0
41
0.0
42
0.0
10
82.1967010498047
20
81.1504974365234
40
0.0
41
0.0
42
0.0
10
82.0130004882812
20
81.2265014648438
40
0.0
41
0.0
42
0.0
10
81.6996002197266
20
81.3167037963867
40
0.0
41
0.0
42
0.0
10
81.5155029296875
20
81.3606033325195
40
0.0
41
0.0
42
0.0
10
81.2021026611328
20
81.4220962524414
40
0.0
41
0.0
42
0.0
10
81.0176010131836
20
81.4369964599609
40
0.0
41
0.0
42
0.0
10
80.7027969360352
20
81.4821014404297
40
0.0
41
0.0
42
0.0
10
80.6642990112305
20
81.4844970703125
40
0.0
41
0.0
42
0.0
10
80.6264038085938
20
81.4843978881836
40
0.0
41
0.0
42
0.0
10
80.4876022338867
20
81.4658966064453
40
0.0
41
0.0
42
0.0
10
80.3504028320312
20
81.3731002807617
40
0.0
41
0.0
42
0.0
10
80.0169982910156
20
81.4681015014648
40
0.0
41
0.0
42
0.0
10
79.9869003295898
20
81.4681015014648
40
0.0
41
0.0
42
0.0
10
79.8778991699219
20
81.3864974975586
40
0.0
41
0.0
42
0.0
10
79.7266006469727
20
81.4992980957031
40
0.0
41
0.0
42
0.0
10
79.5743026733398
20
81.5078964233398
40
0.0
41
0.0
42
0.0
10
79.5044021606445
20
81.5485992431641
40
0.0
41
0.0
42
0.0
10
79.2855987548828
20
81.9319000244141
40
0.0
41
0.0
42
0.0
10
79.2426986694336
20
82.0124969482422
40
0.0
41
0.0
42
0.0
10
79.1756973266602
20
82.3066024780273
40
0.0
41
0.0
42
0.0
10
79.0622024536133
20
82.5093002319336
40
0.0
41
0.0
42
0.0
10
79.0025024414062
20
82.6056976318359
40
0.0
41
0.0
42
0.0
10
78.9503021240234
20
82.6772994995117
40
0.0
41
0.0
42
0.0
10
78.8544006347656
20
82.8674011230469
40
0.0
41
0.0
42
0.0
10
78.8152008056641
20
83.0111999511719
40
0.0
41
0.0
42
0.0
10
78.5832977294922
20
83.3644027709961
40
0.0
41
0.0
42
0.0
10
78.5106964111328
20
83.5087966918945
40
0.0
41
0.0
42
0.0
10
78.5036010742188
20
83.5182037353516
40
0.0
41
0.0
42
0.0
10
78.2004013061523
20
83.8616027832031
40
0.0
41
0.0
42
0.0
10
78.0897979736328
20
84.0063018798828
40
0.0
41
0.0
42
0.0
10
78.0062026977539
20
84.094596862793
40
0.0
41
0.0
42
0.0
10
77.6537017822266
20
84.3356018066406
40
0.0
41
0.0
42
0.0
10
77.5087966918945
20
84.4522018432617
40
0.0
41
0.0
42
0.0
10
77.472900390625
20
84.4684982299805
40
0.0
41
0.0
42
0.0
10
77.3770980834961
20
84.4996032714844
40
0.0
41
0.0
42
0.0
10
77.1577987670898
20
84.5753021240234
40
0.0
41
0.0
42
0.0
10
77.0156021118164
20
84.6368026733398
40
0.0
41
0.0
42
0.0
10
76.7039031982422
20
84.638298034668
40
0.0
41
0.0
42
0.0
10
76.5189971923828
20
84.6552963256836
40
0.0
41
0.0
42
0.0
10
76.4819030761719
20
84.6551971435547
40
0.0
41
0.0
42
0.0
10
76.2994003295898
20
84.621696472168
40
0.0
41
0.0
42
0.0
10
75.9866027832031
20
84.5421981811523
40
0.0
41
0.0
42
0.0
10
75.8848037719727
20
84.500602722168
40
0.0
41
0.0
42
0.0
10
75.4897994995117
20
84.3310012817383
40
0.0
41
0.0
42
0.0
10
75.3058013916016
20
84.2136001586914
40
0.0
41
0.0
42
0.0
10
74.9913024902344
20
84.0325012207031
40
0.0
41
0.0
42
0.0
10
74.9518966674805
20
84.0040969848633
40
0.0
41
0.0
42
0.0
10
74.8173980712891
20
83.8578033447266
40
0.0
41
0.0
42
0.0
10
74.49169921875
20
83.6156997680664
40
0.0
41
0.0
42
0.0
10
74.3492965698242
20
83.5302963256836
40
0.0
41
0.0
42
0.0
10
74.3254013061523
20
83.5078964233398
40
0.0
41
0.0
42
0.0
10
74.2682037353516
20
83.3629989624023
40
0.0
41
0.0
42
0.0
10
74.1268005371094
20
83.2267990112305
40
0.0
41
0.0
42
0.0
10
73.9912033081055
20
83.0989990234375
40
0.0
41
0.0
42
0.0
10
73.722297668457
20
83.0025024414062
40
0.0
41
0.0
42
0.0
10
73.4992980957031
20
82.6779022216797
40
0.0
41
0.0
42
0.0
10
73.3410034179688
20
82.8355026245117
40
0.0
41
0.0
42
0.0
10
73.0062026977539
20
82.9860000610352
40
0.0
41
0.0
42
0.0
10
72.9941024780273
20
83.002799987793
40
0.0
41
0.0
42
0.0
10
72.8412017822266
20
83.0656967163086
40
0.0
41
0.0
42
0.0
10
72.5122985839844
20
83.1668014526367
40
0.0
41
0.0
42
0.0
10
72.4822006225586
20
83.1811981201172
40
0.0
41
0.0
42
0.0
10
72.3667984008789
20
83.2435989379883
40
0.0
41
0.0
42
0.0
10
72.0131988525391
20
83.3503036499023
40
0.0
41
0.0
42
0.0
10
71.868896484375
20
83.4046020507812
40
0.0
41
0.0
42
0.0
10
71.5156021118164
20
83.4831008911133
40
0.0
41
0.0
42
0.0
10
71.4339981079102
20
83.4991989135742
40
0.0
41
0.0
42
0.0
10
71.3722991943359
20
83.5090026855469
40
0.0
41
0.0
42
0.0
10
71.0188980102539
20
83.5447998046875
40
0.0
41
0.0
42
0.0
10
70.9804000854492
20
83.5447006225586
40
0.0
41
0.0
42
0.0
10
70.6395034790039
20
83.5310974121094
40
0.0
41
0.0
42
0.0
10
70.4822006225586
20
83.5336990356445
40
0.0
41
0.0
42
0.0
10
70.3545989990234
20
83.5037002563477
40
0.0
41
0.0
42
0.0
10
70.2098007202148
20
83.4783020019531
40
0.0
41
0.0
42
0.0
10
69.9881973266602
20
83.4216003417969
40
0.0
41
0.0
42
0.0
10
69.6748962402344
20
83.2317962646484
40
0.0
41
0.0
42
0.0
10
69.4925003051758
20
83.146598815918
40
0.0
41
0.0
42
0.0
10
69.4265975952148
20
83.0764007568359
40
0.0
41
0.0
42
0.0
10
69.3458023071289
20
83.0057983398438
40
0.0
41
0.0
42
0.0
10
69.1223983764648
20
82.6921005249023
40
0.0
41
0.0
42
0.0
10
69.0195999145508
20
82.568603515625
40
0.0
41
0.0
42
0.0
10
68.9843978881836
20
82.5102996826172
40
0.0
41
0.0
42
0.0
10
68.8491973876953
20
82.1968002319336
40
0.0
41
0.0
42
0.0
10
68.7734985351562
20
82.0134963989258
40
0.0
41
0.0
42
0.0
10
68.7294998168945
20
81.8295974731445
40
0.0
41
0.0
42
0.0
10
68.6392974853516
20
81.5161972045898
40
0.0
41
0.0
42
0.0
10
68.6246032714844
20
81.3320999145508
40
0.0
41
0.0
42
0.0
10
68.5630035400391
20
81.0178985595703
40
0.0
41
0.0
42
0.0
10
68.5628967285156
20
80.9813003540039
40
0.0
41
0.0
42
0.0
10
68.581298828125
20
80.8438034057617
40
0.0
41
0.0
42
0.0
10
68.534797668457
20
80.5185012817383
40
0.0
41
0.0
42
0.0
10
68.5345993041992
20
80.4863967895508
40
0.0
41
0.0
42
0.0
10
68.6266021728516
20
80.3504028320312
40
0.0
41
0.0
42
0.0
10
68.5317993164062
20
80.0169982910156
40
0.0
41
0.0
42
0.0
10
68.5317001342773
20
79.9869003295898
40
0.0
41
0.0
42
0.0
10
68.6130981445312
20
79.8778991699219
40
0.0
41
0.0
42
0.0
10
68.5005035400391
20
79.7266006469727
40
0.0
41
0.0
42
0.0
10
68.4917984008789
20
79.5743026733398
40
0.0
41
0.0
42
0.0
10
68.451301574707
20
79.5045013427734
40
0.0
41
0.0
42
0.0
10
68.0679016113281
20
79.2855987548828
40
0.0
41
0.0
42
0.0
10
67.9873962402344
20
79.2426986694336
40
0.0
41
0.0
42
0.0
10
67.6931991577148
20
79.1756973266602
40
0.0
41
0.0
42
0.0
10
67.4906005859375
20
79.0622024536133
40
0.0
41
0.0
42
0.0
10
67.3940963745117
20
79.0025024414062
40
0.0
41
0.0
42
0.0
10
67.3224029541016
20
78.9504013061523
40
0.0
41
0.0
42
0.0
10
67.1324996948242
20
78.8544006347656
40
0.0
41
0.0
42
0.0
10
66.9887008666992
20
78.8152008056641
40
0.0
41
0.0
42
0.0
10
66.635498046875
20
78.5832977294922
40
0.0
41
0.0
42
0.0
10
66.4909973144531
20
78.5106964111328
40
0.0
41
0.0
42
0.0
10
66.4814987182617
20
78.5036010742188
40
0.0
41
0.0
42
0.0
10
66.138298034668
20
78.2004013061523
40
0.0
41
0.0
42
0.0
10
65.9935989379883
20
78.0897979736328
40
0.0
41
0.0
42
0.0
10
65.9045028686523
20
78.0056991577148
40
0.0
41
0.0
42
0.0
10
65.7891006469727
20
77.8623962402344
40
0.0
41
0.0
42
0.0
10
65.5477981567383
20
77.5095977783203
40
0.0
41
0.0
42
0.0
10
65.5311965942383
20
77.472900390625
40
0.0
41
0.0
42
0.0
10
65.5001983642578
20
77.3770980834961
40
0.0
41
0.0
42
0.0
10
65.4244003295898
20
77.1578979492188
40
0.0
41
0.0
42
0.0
10
65.3627014160156
20
77.0147018432617
40
0.0
41
0.0
42
0.0
10
65.3460006713867
20
76.8339996337891
40
0.0
41
0.0
42
0.0
10
65.3444976806641
20
76.4817962646484
40
0.0
41
0.0
42
0.0
10
65.3779983520508
20
76.2994003295898
40
0.0
41
0.0
42
0.0
10
65.4574966430664
20
75.9865036010742
40
0.0
41
0.0
42
0.0
210
0.0
220
0.0
230
1.0
0
LWPOLYLINE
5
25
330
1C
100
AcDbEntity
67
0
8
0
62
256
6
ByLayer
370
-1
48
1.0
60
0
100
AcDbPolyline
90
534
70
1
38
0.0
39
0.0
10
65.4157028198242
20
77.1016006469727
40
0.0
41
0.0
42
0.0
10
65.5
20
77.3452987670898
40
0.0
41
0.0
42
0.0
10
65.536003112793
20
77.4564971923828
40
0.0
41
0.0
42
0.0
10
65.5512008666992
20
77.4903030395508
40
0.0
41
0.0
42
0.0
10
65.7688980102539
20
77.8087997436523
40
0.0
41
0.0
42
0.0
10
65.9182968139648
20
77.9942016601562
40
0.0
41
0.0
42
0.0
10
66.0064010620117
20
78.0772018432617
40
0.0
41
0.0
42
0.0
10
66.1915969848633
20
78.2186965942383
40
0.0
41
0.0
42
0.0
10
66.5074996948242
20
78.4974975585938
40
0.0
41
0.0
42
0.0
10
66.6943969726562
20
78.5915985107422
40
0.0
41
0.0
42
0.0
10
67.0111999511719
20
78.7994995117188
40
0.0
41
0.0
42
0.0
10
67.1974029541016
20
78.8501968383789
40
0.0
41
0.0
42
0.0
10
67.3594970703125
20
78.9320983886719
40
0.0
41
0.0
42
0.0
10
67.4490966796875
20
78.9973983764648
40
0.0
41
0.0
42
0.0
10
67.5093002319336
20
79.0345001220703
40
0.0
41
0.0
42
0.0
10
67.6368026733398
20
79.1060028076172
40
0.0
41
0.0
42
0.0
10
68.0126037597656
20
79.1914978027344
40
0.0
41
0.0
42
0.0
10
68.0712966918945
20
79.2228012084961
40
0.0
41
0.0
42
0.0
10
68.4395980834961
20
79.4329986572266
40
0.0
41
0.0
42
0.0
10
68.4884033203125
20
79.3862991333008
40
0.0
41
0.0
42
0.0
10
68.5131988525391
20
79.3861999511719
40
0.0
41
0.0
42
0.0
10
68.6648025512695
20
79.4951019287109
40
0.0
41
0.0
42
0.0
10
68.8040008544922
20
79.6818008422852
40
0.0
41
0.0
42
0.0
10
68.8040008544922
20
79.7078018188477
40
0.0
41
0.0
42
0.0
10
68.5821990966797
20
80.0046997070312
40
0.0
41
0.0
42
0.0
10
68.6657028198242
20
80.2978973388672
40
0.0
41
0.0
42
0.0
10
68.6656036376953
20
80.328498840332
40
0.0
41
0.0
42
0.0
10
68.5442962646484
20
80.5078964233398
40
0.0
41
0.0
42
0.0
10
68.5857009887695
20
80.796501159668
40
0.0
41
0.0
42
0.0
10
68.5857009887695
20
80.8343963623047
40
0.0
41
0.0
42
0.0
10
68.5835037231445
20
80.8730010986328
40
0.0
41
0.0
42
0.0
10
68.5670013427734
20
80.9968032836914
40
0.0
41
0.0
42
0.0
10
68.6340026855469
20
81.3377990722656
40
0.0
41
0.0
42
0.0
10
68.6456985473633
20
81.4837036132812
40
0.0
41
0.0
42
0.0
10
68.7482986450195
20
81.8403015136719
40
0.0
41
0.0
42
0.0
10
68.783203125
20
81.9865036010742
40
0.0
41
0.0
42
0.0
10
68.8438034057617
20
82.1331024169922
40
0.0
41
0.0
42
0.0
10
68.9975967407227
20
82.4896011352539
40
0.0
41
0.0
42
0.0
10
69.0281982421875
20
82.5399017333984
40
0.0
41
0.0
42
0.0
10
69.1095962524414
20
82.6378021240234
40
0.0
41
0.0
42
0.0
10
69.3636016845703
20
82.9941024780273
40
0.0
41
0.0
42
0.0
10
69.4287033081055
20
83.0511016845703
40
0.0
41
0.0
42
0.0
10
69.5074005126953
20
83.1349029541016
40
0.0
41
0.0
42
0.0
10
69.6550979614258
20
83.2039031982422
40
0.0
41
0.0
42
0.0
10
70.0117034912109
20
83.4198989868164
40
0.0
41
0.0
42
0.0
10
70.22509765625
20
83.4751968383789
40
0.0
41
0.0
42
0.0
10
70.4007034301758
20
83.5059967041016
40
0.0
41
0.0
42
0.0
10
70.5142974853516
20
83.5326995849609
40
0.0
41
0.0
42
0.0
10
70.7046966552734
20
83.5294036865234
40
0.0
41
0.0
42
0.0
10
70.9918975830078
20
83.5408020019531
40
0.0
41
0.0
42
0.0
10
71.2975997924805
20
83.5099029541016
40
0.0
41
0.0
42
0.0
10
71.3570022583008
20
83.5005035400391
40
0.0
41
0.0
42
0.0
10
71.4841995239258
20
83.4753036499023
40
0.0
41
0.0
42
0.0
10
71.8009033203125
20
83.404899597168
40
0.0
41
0.0
42
0.0
10
71.986701965332
20
83.3351974487305
40
0.0
41
0.0
42
0.0
10
72.3030014038086
20
83.2397003173828
40
0.0
41
0.0
42
0.0
10
72.4535980224609
20
83.1583023071289
40
0.0
41
0.0
42
0.0
10
72.4876022338867
20
83.1419982910156
40
0.0
41
0.0
42
0.0
10
72.7679977416992
20
83.0558013916016
40
0.0
41
0.0
42
0.0
10
72.911003112793
20
82.9970016479492
40
0.0
41
0.0
42
0.0
10
72.9936981201172
20
82.8808975219727
40
0.0
41
0.0
42
0.0
10
73.2571029663086
20
82.7626037597656
40
0.0
41
0.0
42
0.0
10
73.4886016845703
20
82.5318984985352
40
0.0
41
0.0
42
0.0
10
73.508903503418
20
82.5318984985352
40
0.0
41
0.0
42
0.0
10
73.8290023803711
20
82.9973983764648
40
0.0
41
0.0
42
0.0
10
74.0086975097656
20
83.061897277832
40
0.0
41
0.0
42
0.0
10
74.2649002075195
20
83.306999206543
40
0.0
41
0.0
42
0.0
10
74.3377990722656
20
83.4921035766602
40
0.0
41
0.0
42
0.0
10
74.379997253418
20
83.5315017700195
40
0.0
41
0.0
42
0.0
10
74.50830078125
20
83.6084976196289
40
0.0
41
0.0
42
0.0
10
74.8220977783203
20
83.841796875
40
0.0
41
0.0
42
0.0
10
74.8609008789062
20
83.8727035522461
40
0.0
41
0.0
42
0.0
10
74.8855972290039
20
83.8976974487305
40
0.0
41
0.0
42
0.0
10
74.9749984741211
20
83.9957962036133
40
0.0
41
0.0
42
0.0
10
75.0157012939453
20
84.0246963500977
40
0.0
41
0.0
42
0.0
10
75.3640975952148
20
84.2245025634766
40
0.0
41
0.0
42
0.0
10
75.5101013183594
20
84.3178024291992
40
0.0
41
0.0
42
0.0
10
75.9337005615234
20
84.4992980957031
40
0.0
41
0.0
42
0.0
10
76.0133972167969
20
84.5318984985352
40
0.0
41
0.0
42
0.0
10
76.3704986572266
20
84.6225967407227
40
0.0
41
0.0
42
0.0
10
76.5056991577148
20
84.6473999023438
40
0.0
41
0.0
42
0.0
10
76.6259002685547
20
84.6363983154297
40
0.0
41
0.0
42
0.0
10
76.9842987060547
20
84.6345977783203
40
0.0
41
0.0
42
0.0
10
77.1015014648438
20
84.5839996337891
40
0.0
41
0.0
42
0.0
10
77.3452987670898
20
84.4998016357422
40
0.0
41
0.0
42
0.0
10
77.4564971923828
20
84.4636993408203
40
0.0
41
0.0
42
0.0
10
77.4909973144531
20
84.4480972290039
40
0.0
41
0.0
42
0.0
10
77.6773986816406
20
84.2982025146484
40
0.0
41
0.0
42
0.0
10
77.9935989379883
20
84.0820999145508
40
0.0
41
0.0
42
0.0
10
78.0771026611328
20
83.9934997558594
40
0.0
41
0.0
42
0.0
10
78.2185974121094
20
83.8081970214844
40
0.0
41
0.0
42
0.0
10
78.497802734375
20
83.4917984008789
40
0.0
41
0.0
42
0.0
10
78.5914993286133
20
83.3053970336914
40
0.0
41
0.0
42
0.0
10
78.7994995117188
20
82.9887008666992
40
0.0
41
0.0
42
0.0
10
78.8501968383789
20
82.8024978637695
40
0.0
41
0.0
42
0.0
10
78.931999206543
20
82.6402969360352
40
0.0
41
0.0
42
0.0
10
78.9972991943359
20
82.5505981445312
40
0.0
41
0.0
42
0.0
10
79.0345001220703
20
82.4906005859375
40
0.0
41
0.0
42
0.0
10
79.1060028076172
20
82.3629989624023
40
0.0
41
0.0
42
0.0
10
79.1913986206055
20
81.9872970581055
40
0.0
41
0.0
42
0.0
10
79.2228012084961
20
81.9284973144531
40
0.0
41
0.0
42
0.0
10
79.4330978393555
20
81.560302734375
40
0.0
41
0.0
42
0.0
10
79.3788986206055
20
81.5037994384766
40
0.0
41
0.0
42
0.0
10
78.9891967773438
20
81.2360000610352
40
0.0
41
0.0
42
0.0
10
78.6066970825195
20
81.1186981201172
40
0.0
41
0.0
42
0.0
10
78.4913024902344
20
81.0473022460938
40
0.0
41
0.0
42
0.0
10
78.4235000610352
20
81.0018005371094
40
0.0
41
0.0
42
0.0
10
77.9919967651367
20
80.7811965942383
40
0.0
41
0.0
42
0.0
10
77.6887969970703
20
80.5035018920898
40
0.0
41
0.0
42
0.0
10
77.4933013916016
20
80.3679962158203
40
0.0
41
0.0
42
0.0
10
77.4433975219727
20
80.3197021484375
40
0.0
41
0.0
42
0.0
10
77.3193969726562
20
80.1930999755859
40
0.0
41
0.0
42
0.0
10
77.2436981201172
20
80.0127029418945
40
0.0
41
0.0
42
0.0
10
77.2261962890625
20
79.9568023681641
40
0.0
41
0.0
42
0.0
10
76.9955978393555
20
79.719596862793
40
0.0
41
0.0
42
0.0
10
76.9317016601562
20
79.6429977416992
40
0.0
41
0.0
42
0.0
10
76.859001159668
20
79.3657989501953
40
0.0
41
0.0
42
0.0
10
76.597900390625
20
79.0095977783203
40
0.0
41
0.0
42
0.0
10
76.5370025634766
20
78.8643035888672
40
0.0
41
0.0
42
0.0
10
76.2441024780273
20
78.4824981689453
40
0.0
41
0.0
42
0.0
10
76.0764999389648
20
78.1828994750977
40
0.0
41
0.0
42
0.0
10
76.0052032470703
20
78.0102005004883
40
0.0
41
0.0
42
0.0
10
75.9936981201172
20
77.9922027587891
40
0.0
41
0.0
42
0.0
10
75.6689987182617
20
77.8817977905273
40
0.0
41
0.0
42
0.0
10
75.6584014892578
20
77.8677978515625
40
0.0
41
0.0
42
0.0
10
75.6512985229492
20
77.5155029296875
40
0.0
41
0.0
42
0.0
10
75.5906982421875
20
77.3706970214844
40
0.0
41
0.0
42
0.0
10
75.5905990600586
20
77.3360977172852
40
0.0
41
0.0
42
0.0
10
75.6265029907227
20
76.9980010986328
40
0.0
41
0.0
42
0.0
10
75.616096496582
20
76.8740997314453
40
0.0
41
0.0
42
0.0
10
75.6159973144531
20
76.8357009887695
40
0.0
41
0.0
42
0.0
10
75.6415023803711
20
76.4838027954102
40
0.0
41
0.0
42
0.0
10
75.7447967529297
20
76.1397018432617
40
0.0
41
0.0
42
0.0
10
75.9754028320312
20
76.0251007080078
40
0.0
41
0.0
42
0.0
10
75.9899978637695
20
76.0072021484375
40
0.0
41
0.0
42
0.0
10
76.0156021118164
20
76.0071029663086
40
0.0
41
0.0
42
0.0
10
76.3656997680664
20
76.1596984863281
40
0.0
41
0.0
42
0.0
10
76.50830078125
20
76.2385025024414
40
0.0
41
0.0
42
0.0
10
76.5425033569336
20
76.2650985717773
40
0.0
41
0.0
42
0.0
10
76.856201171875
20
76.0467987060547
40
0.0
41
0.0
42
0.0
10
76.9477996826172
20
76.0030975341797
40
0.0
41
0.0
42
0.0
10
76.9478988647461
20
75.9971008300781
40
0.0
41
0.0
42
0.0
10
76.9039001464844
20
75.9755020141602
40
0.0
41
0.0
42
0.0
10
76.6352005004883
20
75.8084030151367
40
0.0
41
0.0
42
0.0
10
76.4945983886719
20
75.7387008666992
40
0.0
41
0.0
42
0.0
10
76.3795013427734
20
75.5550003051758
40
0.0
41
0.0
42
0.0
10
76.3469009399414
20
75.5128021240234
40
0.0
41
0.0
42
0.0
10
76.3468017578125
20
75.4804000854492
40
0.0
41
0.0
42
0.0
10
76.3603973388672
20
75.1303024291992
40
0.0
41
0.0
42
0.0
10
76.4304962158203
20
74.9918975830078
40
0.0
41
0.0
42
0.0
10
76.4934005737305
20
74.9218978881836
40
0.0
41
0.0
42
0.0
10
76.5585021972656
20
74.8827972412109
40
0.0
41
0.0
42
0.0
10
76.6335983276367
20
74.8476028442383
40
0.0
41
0.0
42
0.0
10
76.9843978881836
20
74.695198059082
40
0.0
41
0.0
42
0.0
10
77.1270980834961
20
74.6932983398438
40
0.0
41
0.0
42
0.0
10
77.4819030761719
20
74.6239013671875
40
0.0
41
0.0
42
0.0
10
77.5179977416992
20
74.6240005493164
40
0.0
41
0.0
42
0.0
10
77.658203125
20
74.6494979858398
40
0.0
41
0.0
42
0.0
10
78.0192031860352
20
74.6408004760742
40
0.0
41
0.0
42
0.0
10
78.3718032836914
20
74.6754989624023
40
0.0
41
0.0
42
0.0
10
78.5166015625
20
74.7052001953125
40
0.0
41
0.0
42
0.0
10
78.7089996337891
20
74.728401184082
40
0.0
41
0.0
42
0.0
10
79.0179977416992
20
74.7795028686523
40
0.0
41
0.0
42
0.0
10
79.2161026000977
20
74.7843017578125
40
0.0
41
0.0
42
0.0
10
79.5068969726562
20
74.8424987792969
40
0.0
41
0.0
42
0.0
10
79.6512985229492
20
74.8302993774414
40
0.0
41
0.0
42
0.0
10
79.6878967285156
20
74.8302001953125
40
0.0
41
0.0
42
0.0
10
80.0141983032227
20
74.9102020263672
40
0.0
41
0.0
42
0.0
10
80.2857971191406
20
74.9997024536133
40
0.0
41
0.0
42
0.0
10
80.3510971069336
20
75.0253982543945
40
0.0
41
0.0
42
0.0
10
80.4813995361328
20
75.0074005126953
40
0.0
41
0.0
42
0.0
10
80.5147018432617
20
75.0073013305664
40
0.0
41
0.0
42
0.0
10
80.6019973754883
20
75.0537033081055
40
0.0
41
0.0
42
0.0
10
81.0411987304688
20
75.1890029907227
40
0.0
41
0.0
42
0.0
10
81.2425003051758
20
75.3143005371094
40
0.0
41
0.0
42
0.0
10
81.3973999023438
20
75.3587036132812
40
0.0
41
0.0
42
0.0
10
81.5099029541016
20
75.4280014038086
40
0.0
41
0.0
42
0.0
10
81.6026000976562
20
75.4730987548828
40
0.0
41
0.0
42
0.0
10
81.6452026367188
20
75.4969024658203
40
0.0
41
0.0
42
0.0
10
82.0070037841797
20
75.8628997802734
40
0.0
41
0.0
42
0.0
10
82.2326965332031
20
75.9949035644531
40
0.0
41
0.0
42
0.0
10
82.4402008056641
20
76.4259033203125
40
0.0
41
0.0
42
0.0
10
82.439697265625
20
76.4591979980469
40
0.0
41
0.0
42
0.0
10
82.4335021972656
20
76.5056991577148
40
0.0
41
0.0
42
0.0
10
82.1516036987305
20
76.6364974975586
40
0.0
41
0.0
42
0.0
10
82.0155029296875
20
76.649299621582
40
0.0
41
0.0
42
0.0
10
81.785400390625
20
76.7267990112305
40
0.0
41
0.0
42
0.0
10
81.511100769043
20
76.8640975952148
40
0.0
41
0.0
42
0.0
10
81.375
20
76.9223022460938
40
0.0
41
0.0
42
0.0
10
81.0158004760742
20
76.9842987060547
40
0.0
41
0.0
42
0.0
10
80.9901962280273
20
76.9903030395508
40
0.0
41
0.0
42
0.0
10
80.5195007324219
20
77.0085983276367
40
0.0
41
0.0
42
0.0
10
80.4839019775391
20
77.0084991455078
40
0.0
41
0.0
42
0.0
10
80.4692001342773
20
77.0028991699219
40
0.0
41
0.0
42
0.0
10
80.4394989013672
20
76.9990997314453
40
0.0
41
0.0
42
0.0
10
79.9863967895508
20
76.9505004882812
40
0.0
41
0.0
42
0.0
10
79.8051986694336
20
76.8498992919922
40
0.0
41
0.0
42
0.0
10
79.4816970825195
20
76.8315963745117
40
0.0
41
0.0
42
0.0
10
79.1313018798828
20
76.7918014526367
40
0.0
41
0.0
42
0.0
10
78.9865036010742
20
76.7138977050781
40
0.0
41
0.0
42
0.0
10
78.6308975219727
20
76.6677017211914
40
0.0
41
0.0
42
0.0
10
78.4875030517578
20
76.5997009277344
40
0.0
41
0.0
42
0.0
10
78.1481018066406
20
76.4997024536133
40
0.0
41
0.0
42
0.0
10
78.0556030273438
20
76.4766998291016
40
0.0
41
0.0
42
0.0
10
77.9837036132812
20
76.4615020751953
40
0.0
41
0.0
42
0.0
10
77.7209014892578
20
76.4222030639648
40
0.0
41
0.0
42
0.0
10
77.4980010986328
20
76.3795013427734
40
0.0
41
0.0
42
0.0
10
77.4076995849609
20
76.3935012817383
40
0.0
41
0.0
42
0.0
10
77.3772964477539
20
76.3936004638672
40
0.0
41
0.0
42
0.0
10
77.091796875
20
76.1433029174805
40
0.0
41
0.0
42
0.0
10
77.0009994506836
20
76.2108993530273
40
0.0
41
0.0
42
0.0
10
76.9402008056641
20
76.4936981201172
40
0.0
41
0.0
42
0.0
10
77.0233001708984
20
76.5887985229492
40
0.0
41
0.0
42
0.0
10
77.2738037109375
20
76.6434020996094
40
0.0
41
0.0
42
0.0
10
77.4496002197266
20
76.9907989501953
40
0.0
41
0.0
42
0.0
10
77.5030975341797
20
77.0673980712891
40
0.0
41
0.0
42
0.0
10
77.8382034301758
20
77.4932022094727
40
0.0
41
0.0
42
0.0
10
78.0062026977539
20
77.6913986206055
40
0.0
41
0.0
42
0.0
10
78.2210006713867
20
77.9942016601562
40
0.0
41
0.0
42
0.0
10
78.3900985717773
20
78.1393966674805
40
0.0
41
0.0
42
0.0
10
78.4112014770508
20
78.1675033569336
40
0.0
41
0.0
42
0.0
10
78.5019989013672
20
78.3220977783203
40
0.0
41
0.0
42
0.0
10
78.6089019775391
20
78.4900970458984
40
0.0
41
0.0
42
0.0
10
78.752799987793
20
78.7953033447266
40
0.0
41
0.0
42
0.0
10
78.9422988891602
20
78.9738006591797
40
0.0
41
0.0
42
0.0
10
78.9552993774414
20
78.9900970458984
40
0.0
41
0.0
42
0.0
10
79.0279006958008
20
79.2186965942383
40
0.0
41
0.0
42
0.0
10
79.0614013671875
20
79.3051986694336
40
0.0
41
0.0
42
0.0
10
79.1957015991211
20
79.4877014160156
40
0.0
41
0.0
42
0.0
10
79.2265014648438
20
79.8003997802734
40
0.0
41
0.0
42
0.0
10
79.2546005249023
20
79.8641967773438
40
0.0
41
0.0
42
0.0
10
79.3124008178711
20
79.9847030639648
40
0.0
41
0.0
42
0.0
10
79.3123016357422
20
80.0177001953125
40
0.0
41
0.0
42
0.0
10
79.2662963867188
20
80.2352981567383
40
0.0
41
0.0
42
0.0
10
79.3516006469727
20
80.4834976196289
40
0.0
41
0.0
42
0.0
10
79.3515014648438
20
80.5151977539062
40
0.0
41
0.0
42
0.0
10
79.2220993041992
20
80.7850036621094
40
0.0
41
0.0
42
0.0
10
79.2928009033203
20
80.9889984130859
40
0.0
41
0.0
42
0.0
10
79.5016021728516
20
81.3302001953125
40
0.0
41
0.0
42
0.0
10
79.6818008422852
20
81.1957015991211
40
0.0
41
0.0
42
0.0
10
79.7078018188477
20
81.19580078125
40
0.0
41
0.0
42
0.0
10
80.0046997070312
20
81.4175033569336
40
0.0
41
0.0
42
0.0
10
80.2977981567383
20
81.3339996337891
40
0.0
41
0.0
42
0.0
10
80.328498840332
20
81.334098815918
40
0.0
41
0.0
42
0.0
10
80.5122985839844
20
81.4583969116211
40
0.0
41
0.0
42
0.0
10
80.6726989746094
20
81.4797973632812
40
0.0
41
0.0
42
0.0
10
80.9822998046875
20
81.4354019165039
40
0.0
41
0.0
42
0.0
10
81.127799987793
20
81.4237976074219
40
0.0
41
0.0
42
0.0
10
81.4843978881836
20
81.3537979125977
40
0.0
41
0.0
42
0.0
10
81.6303024291992
20
81.3189010620117
40
0.0
41
0.0
42
0.0
10
81.9869003295898
20
81.2164001464844
40
0.0
41
0.0
42
0.0
10
82.1331024169922
20
81.1558990478516
40
0.0
41
0.0
42
0.0
10
82.4896011352539
20
81.002197265625
40
0.0
41
0.0
42
0.0
10
82.5399017333984
20
80.9714965820312
40
0.0
41
0.0
42
0.0
10
82.6377029418945
20
80.8901977539062
40
0.0
41
0.0
42
0.0
10
82.9941024780273
20
80.6361999511719
40
0.0
41
0.0
42
0.0
10
83.0511016845703
20
80.5710983276367
40
0.0
41
0.0
42
0.0
10
83.1348037719727
20
80.4925003051758
40
0.0
41
0.0
42
0.0
10
83.2037963867188
20
80.3448028564453
40
0.0
41
0.0
42
0.0
10
83.4198989868164
20
79.9881973266602
40
0.0
41
0.0
42
0.0
10
83.4751968383789
20
79.7746963500977
40
0.0
41
0.0
42
0.0
10
83.5059967041016
20
79.5990982055664
40
0.0
41
0.0
42
0.0
10
83.5326995849609
20
79.4856033325195
40
0.0
41
0.0
42
0.0
10
83.5294036865234
20
79.2951965332031
40
0.0
41
0.0
42
0.0
10
83.5408020019531
20
79.0080032348633
40
0.0
41
0.0
42
0.0
10
83.5099029541016
20
78.7023010253906
40
0.0
41
0.0
42
0.0
10
83.5005035400391
20
78.6428985595703
40
0.0
41
0.0
42
0.0
10
83.4753036499023
20
78.5156021118164
40
0.0
41
0.0
42
0.0
10
83.4049987792969
20
78.1989974975586
40
0.0
41
0.0
42
0.0
10
83.3352966308594
20
78.0131988525391
40
0.0
41
0.0
42
0.0
10
83.2397994995117
20
77.6968994140625
40
0.0
41
0.0
42
0.0
10
83.1583023071289
20
77.5462036132812
40
0.0
41
0.0
42
0.0
10
83.1419982910156
20
77.5122985839844
40
0.0
41
0.0
42
0.0
10
83.0558013916016
20
77.2317962646484
40
0.0
41
0.0
42
0.0
10
82.9971008300781
20
77.0886993408203
40
0.0
41
0.0
42
0.0
10
82.8792037963867
20
77.0047988891602
40
0.0
41
0.0
42
0.0
10
82.5787963867188
20
76.5896987915039
40
0.0
41
0.0
42
0.0
10
82.5317993164062
20
76.5139999389648
40
0.0
41
0.0
42
0.0
10
82.5319976806641
20
76.4848022460938
40
0.0
41
0.0
42
0.0
10
82.6780014038086
20
76.1854019165039
40
0.0
41
0.0
42
0.0
10
82.9947967529297
20
76.1780014038086
40
0.0
41
0.0
42
0.0
10
83.061897277832
20
75.9912033081055
40
0.0
41
0.0
42
0.0
10
83.3069000244141
20
75.7348022460938
40
0.0
41
0.0
42
0.0
10
83.4919967651367
20
75.6619033813477
40
0.0
41
0.0
42
0.0
10
83.5314025878906
20
75.6196975708008
40
0.0
41
0.0
42
0.0
10
83.6084976196289
20
75.4916000366211
40
0.0
41
0.0
42
0.0
10
83.8416976928711
20
75.1776962280273
40
0.0
41
0.0
42
0.0
10
83.8731002807617
20
75.1384963989258
40
0.0
41
0.0
42
0.0
10
83.8976974487305
20
75.1140975952148
40
0.0
41
0.0
42
0.0
10
83.9956970214844
20
75.0246963500977
40
0.0
41
0.0
42
0.0
10
84.0245971679688
20
74.9841003417969
40
0.0
41
0.0
42
0.0
10
84.2244033813477
20
74.6358032226562
40
0.0
41
0.0
42
0.0
10
84.3177032470703
20
74.4897994995117
40
0.0
41
0.0
42
0.0
10
84.4992980957031
20
74.0661010742188
40
0.0
41
0.0
42
0.0
10
84.5318984985352
20
73.9865036010742
40
0.0
41
0.0
42
0.0
10
84.6225967407227
20
73.6294021606445
40
0.0
41
0.0
42
0.0
10
84.6473999023438
20
73.4942016601562
40
0.0
41
0.0
42
0.0
10
84.6363983154297
20
73.3740005493164
40
0.0
41
0.0
42
0.0
10
84.6346969604492
20
73.0156021118164
40
0.0
41
0.0
42
0.0
10
84.5839996337891
20
72.8983001708984
40
0.0
41
0.0
42
0.0
10
84.4998016357422
20
72.6545028686523
40
0.0
41
0.0
42
0.0
10
84.4637985229492
20
72.5432968139648
40
0.0
41
0.0
42
0.0
10
84.4481964111328
20
72.508903503418
40
0.0
41
0.0
42
0.0
10
84.2982025146484
20
72.3224029541016
40
0.0
41
0.0
42
0.0
10
84.0820999145508
20
72.0062026977539
40
0.0
41
0.0
42
0.0
10
83.9935989379883
20
71.9225997924805
40
0.0
41
0.0
42
0.0
10
83.8082962036133
20
71.7810974121094
40
0.0
41
0.0
42
0.0
10
83.4917984008789
20
71.5018997192383
40
0.0
41
0.0
42
0.0
10
83.3054962158203
20
71.408203125
40
0.0
41
0.0
42
0.0
10
82.9887008666992
20
71.2003021240234
40
0.0
41
0.0
42
0.0
10
82.7996978759766
20
71.1481018066406
40
0.0
41
0.0
42
0.0
10
82.6402969360352
20
71.0677032470703
40
0.0
41
0.0
42
0.0
10
82.5506973266602
20
71.0025024414062
40
0.0
41
0.0
42
0.0
10
82.4906005859375
20
70.965202331543
40
0.0
41
0.0
42
0.0
10
82.3630981445312
20
70.893798828125
40
0.0
41
0.0
42
0.0
10
81.9873962402344
20
70.8082962036133
40
0.0
41
0.0
42
0.0
10
81.9284973144531
20
70.7769012451172
40
0.0
41
0.0
42
0.0
10
81.560302734375
20
70.5668029785156
40
0.0
41
0.0
42
0.0
10
81.5114974975586
20
70.6136016845703
40
0.0
41
0.0
42
0.0
10
81.486701965332
20
70.6135025024414
40
0.0
41
0.0
42
0.0
10
81.3348999023438
20
70.5047988891602
40
0.0
41
0.0
42
0.0
10
81.1957015991211
20
70.318000793457
40
0.0
41
0.0
42
0.0
10
81.1957015991211
20
70.2919998168945
40
0.0
41
0.0
42
0.0
10
81.4175033569336
20
69.9952011108398
40
0.0
41
0.0
42
0.0
10
81.3339996337891
20
69.7021026611328
40
0.0
41
0.0
42
0.0
10
81.3339996337891
20
69.6714019775391
40
0.0
41
0.0
42
0.0
10
81.4583969116211
20
69.4876022338867
40
0.0
41
0.0
42
0.0
10
81.4797973632812
20
69.3272018432617
40
0.0
41
0.0
42
0.0
10
81.4354019165039
20
69.0176010131836
40
0.0
41
0.0
42
0.0
10
81.4237976074219
20
68.8721008300781
40
0.0
41
0.0
42
0.0
10
81.3538970947266
20
68.5155029296875
40
0.0
41
0.0
42
0.0
10
81.3189010620117
20
68.3695983886719
40
0.0
41
0.0
42
0.0
10
81.2164001464844
20
68.0130004882812
40
0.0
41
0.0
42
0.0
10
81.1559982299805
20
67.8667984008789
40
0.0
41
0.0
42
0.0
10
81.0022964477539
20
67.5102996826172
40
0.0
41
0.0
42
0.0
10
80.9716033935547
20
67.4598999023438
40
0.0
41
0.0
42
0.0
10
80.8901977539062
20
67.3620986938477
40
0.0
41
0.0
42
0.0
10
80.6361999511719
20
67.0057983398438
40
0.0
41
0.0
42
0.0
10
80.5711975097656
20
66.948600769043
40
0.0
41
0.0
42
0.0
10
80.4933013916016
20
66.8657989501953
40
0.0
41
0.0
42
0.0
10
80.1349029541016
20
66.6485977172852
40
0.0
41
0.0
42
0.0
10
79.9870986938477
20
66.5795974731445
40
0.0
41
0.0
42
0.0
10
79.7746963500977
20
66.5244979858398
40
0.0
41
0.0
42
0.0
10
79.5990982055664
20
66.4936981201172
40
0.0
41
0.0
42
0.0
10
79.4828033447266
20
66.4663009643555
40
0.0
41
0.0
42
0.0
10
79.1793975830078
20
66.4542999267578
40
0.0
41
0.0
42
0.0
10
79.0186996459961
20
66.4579010009766
40
0.0
41
0.0
42
0.0
10
78.7022018432617
20
66.4897003173828
40
0.0
41
0.0
42
0.0
10
78.6427993774414
20
66.4991989135742
40
0.0
41
0.0
42
0.0
10
78.5156021118164
20
66.5243988037109
40
0.0
41
0.0
42
0.0
10
78.1988983154297
20
66.5947036743164
40
0.0
41
0.0
42
0.0
10
78.0131988525391
20
66.6644973754883
40
0.0
41
0.0
42
0.0
10
77.6968002319336
20
66.7599029541016
40
0.0
41
0.0
42
0.0
10
77.5462036132812
20
66.8414001464844
40
0.0
41
0.0
42
0.0
10
77.5122985839844
20
66.8576965332031
40
0.0
41
0.0
42
0.0
10
77.2316970825195
20
66.9439010620117
40
0.0
41
0.0
42
0.0
10
77.0886993408203
20
67.002799987793
40
0.0
41
0.0
42
0.0
10
77.006103515625
20
67.1187973022461
40
0.0
41
0.0
42
0.0
10
76.7425994873047
20
67.2370986938477
40
0.0
41
0.0
42
0.0
10
76.5112991333008
20
67.4680023193359
40
0.0
41
0.0
42
0.0
10
76.4909973144531
20
67.4680023193359
40
0.0
41
0.0
42
0.0
10
76.1708984375
20
67.0024032592773
40
0.0
41
0.0
42
0.0
10
75.9912033081055
20
66.9378967285156
40
0.0
41
0.0
42
0.0
10
75.7349014282227
20
66.693000793457
40
0.0
41
0.0
42
0.0
10
75.6620025634766
20
66.5080032348633
40
0.0
41
0.0
42
0.0
10
75.6197967529297
20
66.4682998657227
40
0.0
41
0.0
42
0.0
10
75.49169921875
20
66.3912963867188
40
0.0
41
0.0
42
0.0
10
75.1778030395508
20
66.1579971313477
40
0.0
41
0.0
42
0.0
10
75.1384963989258
20
66.1266021728516
40
0.0
41
0.0
42
0.0
10
75.1141967773438
20
66.1020965576172
40
0.0
41
0.0
42
0.0
10
75.0246963500977
20
66.0042037963867
40
0.0
41
0.0
42
0.0
10
74.9841003417969
20
65.97509765625
40
0.0
41
0.0
42
0.0
10
74.6358032226562
20
65.7752990722656
40
0.0
41
0.0
42
0.0
10
74.4897994995117
20
65.681999206543
40
0.0
41
0.0
42
0.0
10
74.0661010742188
20
65.500602722168
40
0.0
41
0.0
42
0.0
10
73.9866027832031
20
65.4677963256836
40
0.0
41
0.0
42
0.0
10
73.6294021606445
20
65.3770980834961
40
0.0
41
0.0
42
0.0
10
73.4829025268555
20
65.3503036499023
40
0.0
41
0.0
42
0.0
10
73.1639022827148
20
65.3517990112305
40
0.0
41
0.0
42
0.0
10
73.0147018432617
20
65.3654022216797
40
0.0
41
0.0
42
0.0
10
72.8982009887695
20
65.4157028198242
40
0.0
41
0.0
42
0.0
10
72.6545028686523
20
65.5
40
0.0
41
0.0
42
0.0
10
72.5431976318359
20
65.536003112793
40
0.0
41
0.0
42
0.0
10
72.5095977783203
20
65.5512008666992
40
0.0
41
0.0
42
0.0
10
72.1911010742188
20
65.768798828125
40
0.0
41
0.0
42
0.0
10
72.0055999755859
20
65.9181976318359
40
0.0
41
0.0
42
0.0
10
71.9225997924805
20
66.0063018798828
40
0.0
41
0.0
42
0.0
10
71.7810974121094
20
66.1915969848633
40
0.0
41
0.0
42
0.0
10
71.5018997192383
20
66.5081024169922
40
0.0
41
0.0
42
0.0
10
71.408203125
20
66.6943969726562
40
0.0
41
0.0
42
0.0
10
71.2002029418945
20
67.0111999511719
40
0.0
41
0.0
42
0.0
10
71.1494979858398
20
67.1974029541016
40
0.0
41
0.0
42
0.0
10
71.0675964355469
20
67.3594970703125
40
0.0
41
0.0
42
0.0
10
71.0025024414062
20
67.4490966796875
40
0.0
41
0.0
42
0.0
10
70.965202331543
20
67.5092010498047
40
0.0
41
0.0
42
0.0
10
70.893798828125
20
67.6367034912109
40
0.0
41
0.0
42
0.0
10
70.8081970214844
20
68.0124969482422
40
0.0
41
0.0
42
0.0
10
70.7769012451172
20
68.0712966918945
40
0.0
41
0.0
42
0.0
10
70.5668029785156
20
68.4394989013672
40
0.0
41
0.0
42
0.0
10
70.6209030151367
20
68.4960021972656
40
0.0
41
0.0
42
0.0
10
71.0106964111328
20
68.7637023925781
40
0.0
41
0.0
42
0.0
10
71.3930969238281
20
68.881103515625
40
0.0
41
0.0
42
0.0
10
71.5084991455078
20
68.9524993896484
40
0.0
41
0.0
42
0.0
10
71.576301574707
20
68.9980010986328
40
0.0
41
0.0
42
0.0
10
72.0078964233398
20
69.2185974121094
40
0.0
41
0.0
42
0.0
10
72.3109970092773
20
69.4963989257812
40
0.0
41
0.0
42
0.0
10
72.5065994262695
20
69.6317977905273
40
0.0
41
0.0
42
0.0
10
72.556396484375
20
69.6800003051758
40
0.0
41
0.0
42
0.0
10
72.6802978515625
20
69.8068008422852
40
0.0
41
0.0
42
0.0
10
72.756103515625
20
69.9871978759766
40
0.0
41
0.0
42
0.0
10
72.7735977172852
20
70.0429992675781
40
0.0
41
0.0
42
0.0
10
73.0043029785156
20
70.2801971435547
40
0.0
41
0.0
42
0.0
10
73.0681991577148
20
70.3567962646484
40
0.0
41
0.0
42
0.0
10
73.1035003662109
20
70.4891967773438
40
0.0
41
0.0
42
0.0
10
73.3636016845703
20
70.8441009521484
40
0.0
41
0.0
42
0.0
10
73.4002990722656
20
70.986701965332
40
0.0
41
0.0
42
0.0
10
73.4627990722656
20
71.1355972290039
40
0.0
41
0.0
42
0.0
10
73.7362976074219
20
71.4917984008789
40
0.0
41
0.0
42
0.0
10
73.8221969604492
20
71.6349029541016
40
0.0
41
0.0
42
0.0
10
73.9951019287109
20
71.9903030395508
40
0.0
41
0.0
42
0.0
10
74.0064010620117
20
72.0074996948242
40
0.0
41
0.0
42
0.0
10
74.3307037353516
20
72.1181030273438
40
0.0
41
0.0
42
0.0
10
74.3413009643555
20
72.1321029663086
40
0.0
41
0.0
42
0.0
10
74.3482971191406
20
72.5189971923828
40
0.0
41
0.0
42
0.0
10
74.3134994506836
20
72.8461990356445
40
0.0
41
0.0
42
0.0
10
74.3714981079102
20
72.9841995239258
40
0.0
41
0.0
42
0.0
10
74.3713989257812
20
73.0192031860352
40
0.0
41
0.0
42
0.0
10
74.3471984863281
20
73.3535003662109
40
0.0
41
0.0
42
0.0
10
74.3581008911133
20
73.4807968139648
40
0.0
41
0.0
42
0.0
10
74.3579025268555
20
73.5168991088867
40
0.0
41
0.0
42
0.0
10
74.2548980712891
20
73.8600997924805
40
0.0
41
0.0
42
0.0
10
74.0243988037109
20
73.9746017456055
40
0.0
41
0.0
42
0.0
10
74.0099029541016
20
73.9926986694336
40
0.0
41
0.0
42
0.0
10
73.9842987060547
20
73.9925994873047
40
0.0
41
0.0
42
0.0
10
73.6342010498047
20
73.8401031494141
40
0.0
41
0.0
42
0.0
10
73.4991989135742
20
73.7655029296875
40
0.0
41
0.0
42
0.0
10
73.2462997436523
20
73.8869018554688
40
0.0
41
0.0
42
0.0
10
73.2255020141602
20
73.8869018554688
40
0.0
41
0.0
42
0.0
10
73.08740234375
20
73.5273971557617
40
0.0
41
0.0
42
0.0
10
73.0580978393555
20
73.5046005249023
40
0.0
41
0.0
42
0.0
10
72.9908981323242
20
73.4279022216797
40
0.0
41
0.0
42
0.0
10
72.7465972900391
20
73.3833999633789
40
0.0
41
0.0
42
0.0
10
72.7257995605469
20
73.3589019775391
40
0.0
41
0.0
42
0.0
10
72.6196975708008
20
73.2917022705078
40
0.0
41
0.0
42
0.0
10
72.5514984130859
20
73.0111999511719
40
0.0
41
0.0
42
0.0
10
72.4968032836914
20
72.932502746582
40
0.0
41
0.0
42
0.0
10
72.1616973876953
20
72.5066986083984
40
0.0
41
0.0
42
0.0
10
71.9935989379883
20
72.3085021972656
40
0.0
41
0.0
42
0.0
10
71.779899597168
20
72.0071029663086
40
0.0
41
0.0
42
0.0
10
71.7393035888672
20
71.9591979980469
40
0.0
41
0.0
42
0.0
10
71.6103973388672
20
71.8607025146484
40
0.0
41
0.0
42
0.0
10
71.5115966796875
20
71.6921997070312
40
0.0
41
0.0
42
0.0
10
71.496696472168
20
71.6759033203125
40
0.0
41
0.0
42
0.0
10
71.3895034790039
20
71.5075988769531
40
0.0
41
0.0
42
0.0
10
71.3779983520508
20
71.4936981201172
40
0.0
41
0.0
42
0.0
10
71.1901016235352
20
71.296501159668
40
0.0
41
0.0
42
0.0
10
71.1530990600586
20
71.2414016723633
40
0.0
41
0.0
42
0.0
10
71.0451965332031
20
71.0122985839844
40
0.0
41
0.0
42
0.0
10
70.9718017578125
20
70.7810974121094
40
0.0
41
0.0
42
0.0
10
70.9383010864258
20
70.6947021484375
40
0.0
41
0.0
42
0.0
10
70.8040008544922
20
70.5121994018555
40
0.0
41
0.0
42
0.0
10
70.7732009887695
20
70.1996002197266
40
0.0
41
0.0
42
0.0
10
70.7451019287109
20
70.1355972290039
40
0.0
41
0.0
42
0.0
10
70.6875
20
70.0151977539062
40
0.0
41
0.0
42
0.0
10
70.6874008178711
20
69.9821014404297
40
0.0
41
0.0
42
0.0
10
70.7334976196289
20
69.7645034790039
40
0.0
41
0.0
42
0.0
10
70.6482009887695
20
69.5165023803711
40
0.0
41
0.0
42
0.0
10
70.6483001708984
20
69.4845962524414
40
0.0
41
0.0
42
0.0
10
70.7776031494141
20
69.2147979736328
40
0.0
41
0.0
42
0.0
10
70.7070007324219
20
69.0109024047852
40
0.0
41
0.0
42
0.0
10
70.4983978271484
20
68.6694030761719
40
0.0
41
0.0
42
0.0
10
70.318000793457
20
68.8040008544922
40
0.0
41
0.0
42
0.0
10
70.2919998168945
20
68.8040008544922
40
0.0
41
0.0
42
0.0
10
69.9952011108398
20
68.5821990966797
40
0.0
41
0.0
42
0.0
10
69.7020034790039
20
68.6657028198242
40
0.0
41
0.0
42
0.0
10
69.6714019775391
20
68.6657028198242
40
0.0
41
0.0
42
0.0
10
69.4919967651367
20
68.5442962646484
40
0.0
41
0.0
42
0.0
10
69.2033996582031
20
68.5857009887695
40
0.0
41
0.0
42
0.0
10
69.1654968261719
20
68.5857009887695
40
0.0
41
0.0
42
0.0
10
69.1268997192383
20
68.5836029052734
40
0.0
41
0.0
42
0.0
10
69.0030975341797
20
68.5670013427734
40
0.0
41
0.0
42
0.0
10
68.6621017456055
20
68.633903503418
40
0.0
41
0.0
42
0.0
10
68.5161972045898
20
68.6455993652344
40
0.0
41
0.0
42
0.0
10
68.1595993041992
20
68.7482986450195
40
0.0
41
0.0
42
0.0
10
68.0133972167969
20
68.783203125
40
0.0
41
0.0
42
0.0
10
67.8667984008789
20
68.8438034057617
40
0.0
41
0.0
42
0.0
10
67.5102996826172
20
68.9975967407227
40
0.0
41
0.0
42
0.0
10
67.4598999023438
20
69.0280990600586
40
0.0
41
0.0
42
0.0
10
67.3620986938477
20
69.1094970703125
40
0.0
41
0.0
42
0.0
10
67.0056991577148
20
69.3635025024414
40
0.0
41
0.0
42
0.0
10
66.948600769043
20
69.428596496582
40
0.0
41
0.0
42
0.0
10
66.8656997680664
20
69.5065994262695
40
0.0
41
0.0
42
0.0
10
66.6484985351562
20
69.8649978637695
40
0.0
41
0.0
42
0.0
10
66.5794982910156
20
70.0128021240234
40
0.0
41
0.0
42
0.0
10
66.5244979858398
20
70.22509765625
40
0.0
41
0.0
42
0.0
10
66.4936981201172
20
70.4007034301758
40
0.0
41
0.0
42
0.0
10
66.4663009643555
20
70.5170974731445
40
0.0
41
0.0
42
0.0
10
66.4542999267578
20
70.8205032348633
40
0.0
41
0.0
42
0.0
10
66.4579010009766
20
70.981201171875
40
0.0
41
0.0
42
0.0
10
66.4897994995117
20
71.2976989746094
40
0.0
41
0.0
42
0.0
10
66.4991989135742
20
71.3571014404297
40
0.0
41
0.0
42
0.0
10
66.5243988037109
20
71.4842987060547
40
0.0
41
0.0
42
0.0
10
66.5948028564453
20
71.8010025024414
40
0.0
41
0.0
42
0.0
10
66.6644973754883
20
71.986701965332
40
0.0
41
0.0
42
0.0
10
66.7600021362305
20
72.3031005859375
40
0.0
41
0.0
42
0.0
10
66.8414001464844
20
72.4535980224609
40
0.0
41
0.0
42
0.0
10
66.8576965332031
20
72.4876022338867
40
0.0
41
0.0
42
0.0
10
66.9439010620117
20
72.7680969238281
40
0.0
41
0.0
42
0.0
10
67.0028991699219
20
72.911003112793
40
0.0
41
0.0
42
0.0
10
67.1205978393555
20
72.9951019287109
40
0.0
41
0.0
42
0.0
10
67.4209976196289
20
73.4102020263672
40
0.0
41
0.0
42
0.0
10
67.467903137207
20
73.4859008789062
40
0.0
41
0.0
42
0.0
10
67.4676971435547
20
73.5149993896484
40
0.0
41
0.0
42
0.0
10
67.3218002319336
20
73.8143997192383
40
0.0
41
0.0
42
0.0
10
67.004997253418
20
73.8217010498047
40
0.0
41
0.0
42
0.0
10
66.9377975463867
20
74.0085983276367
40
0.0
41
0.0
42
0.0
10
66.6929016113281
20
74.2649002075195
40
0.0
41
0.0
42
0.0
10
66.5078964233398
20
74.3376998901367
40
0.0
41
0.0
42
0.0
10
66.4682006835938
20
74.3798980712891
40
0.0
41
0.0
42
0.0
10
66.3911972045898
20
74.5082015991211
40
0.0
41
0.0
42
0.0
10
66.1579971313477
20
74.8220977783203
40
0.0
41
0.0
42
0.0
10
66.1270980834961
20
74.8608016967773
40
0.0
41
0.0
42
0.0
10
66.1019973754883
20
74.8855972290039
40
0.0
41
0.0
42
0.0
10
66.0040969848633
20
74.9749984741211
40
0.0
41
0.0
42
0.0
10
65.97509765625
20
75.0156021118164
40
0.0
41
0.0
42
0.0
10
65.7751998901367
20
75.3639984130859
40
0.0
41
0.0
42
0.0
10
65.6819000244141
20
75.5101013183594
40
0.0
41
0.0
42
0.0
10
65.5005035400391
20
75.9337005615234
40
0.0
41
0.0
42
0.0
10
65.4677963256836
20
76.013298034668
40
0.0
41
0.0
42
0.0
10
65.3770980834961
20
76.3704986572266
40
0.0
41
0.0
42
0.0
10
65.3503036499023
20
76.5169982910156
40
0.0
41
0.0
42
0.0
10
65.3517990112305
20
76.8359985351562
40
0.0
41
0.0
42
0.0
10
65.3654022216797
20
76.9851989746094
40
0.0
41
0.0
42
0.0
10
65.4157028198242
20
77.1016006469727
40
0.0
41
0.0
42
0.0
210
0.0
220
0.0
230
1.0
0
LWPOLYLINE
5
26
330
1C
100
AcDbEntity
67
0
8
0
62
256
6
ByLayer
370
-1
48
1.0
60
0
100
AcDbPolyline
90
71
70
1
38
0.0
39
0.0
10
67.5595016479492
20
73.5738983154297
40
0.0
41
0.0
42
0.0
10
67.5599975585938
20
73.5406036376953
40
0.0
41
0.0
42
0.0
10
67.5662002563477
20
73.4941024780273
40
0.0
41
0.0
42
0.0
10
67.8481979370117
20
73.3631973266602
40
0.0
41
0.0
42
0.0
10
67.9842987060547
20
73.3504028320312
40
0.0
41
0.0
42
0.0
10
68.2143020629883
20
73.2729034423828
40
0.0
41
0.0
42
0.0
10
68.4888000488281
20
73.1355972290039
40
0.0
41
0.0
42
0.0
10
68.6248016357422
20
73.0774002075195
40
0.0
41
0.0
42
0.0
10
68.9841003417969
20
73.0154037475586
40
0.0
41
0.0
42
0.0
10
69.0094985961914
20
73.0094985961914
40
0.0
41
0.0
42
0.0
10
69.4804000854492
20
72.9913024902344
40
0.0
41
0.0
42
0.0
10
69.5160980224609
20
72.9912033081055
40
0.0
41
0.0
42
0.0
10
69.5305023193359
20
72.9968032836914
40
0.0
41
0.0
42
0.0
10
69.560302734375
20
73.0007019042969
40
0.0
41
0.0
42
0.0
10
70.0134963989258
20
73.049201965332
40
0.0
41
0.0
42
0.0
10
70.1947021484375
20
73.1498031616211
40
0.0
41
0.0
42
0.0
10
70.5140991210938
20
73.1679000854492
40
0.0
41
0.0
42
0.0
10
70.6585998535156
20
73.2454986572266
40
0.0
41
0.0
42
0.0
10
71.0174026489258
20
73.2863998413086
40
0.0
41
0.0
42
0.0
10
71.3690032958984
20
73.3321990966797
40
0.0
41
0.0
42
0.0
10
71.5124969482422
20
73.4000015258789
40
0.0
41
0.0
42
0.0
10
71.8516998291016
20
73.5001983642578
40
0.0
41
0.0
42
0.0
10
71.9442977905273
20
73.5231018066406
40
0.0
41
0.0
42
0.0
10
72.0161972045898
20
73.538200378418
40
0.0
41
0.0
42
0.0
10
72.2789001464844
20
73.5774993896484
40
0.0
41
0.0
42
0.0
10
72.5130996704102
20
73.6224975585938
40
0.0
41
0.0
42
0.0
10
72.5848007202148
20
73.6584014892578
40
0.0
41
0.0
42
0.0
10
72.9409027099609
20
73.5907974243164
40
0.0
41
0.0
42
0.0
10
72.9616012573242
20
73.5908966064453
40
0.0
41
0.0
42
0.0
10
72.9991989135742
20
73.7805023193359
40
0.0
41
0.0
42
0.0
10
73.0334014892578
20
73.9941024780273
40
0.0
41
0.0
42
0.0
10
73.0958023071289
20
74.0242004394531
40
0.0
41
0.0
42
0.0
10
73.3647003173828
20
74.1913986206055
40
0.0
41
0.0
42
0.0
10
73.5053024291992
20
74.2611999511719
40
0.0
41
0.0
42
0.0
10
73.6202011108398
20
74.4448013305664
40
0.0
41
0.0
42
0.0
10
73.6529998779297
20
74.4870986938477
40
0.0
41
0.0
42
0.0
10
73.6529006958008
20
74.5195007324219
40
0.0
41
0.0
42
0.0
10
73.6392974853516
20
74.869499206543
40
0.0
41
0.0
42
0.0
10
73.5691986083984
20
75.0078964233398
40
0.0
41
0.0
42
0.0
10
73.5064010620117
20
75.0779037475586
40
0.0
41
0.0
42
0.0
10
73.4412002563477
20
75.1168975830078
40
0.0
41
0.0
42
0.0
10
73.3663024902344
20
75.152099609375
40
0.0
41
0.0
42
0.0
10
73.0137023925781
20
75.3051986694336
40
0.0
41
0.0
42
0.0
10
72.6628036499023
20
75.3738021850586
40
0.0
41
0.0
42
0.0
10
72.5195007324219
20
75.3758010864258
40
0.0
41
0.0
42
0.0
10
72.1266021728516
20
75.3852996826172
40
0.0
41
0.0
42
0.0
10
71.9829025268555
20
75.3591003417969
40
0.0
41
0.0
42
0.0
10
71.6280975341797
20
75.3242034912109
40
0.0
41
0.0
42
0.0
10
71.4832992553711
20
75.2946014404297
40
0.0
41
0.0
42
0.0
10
71.290901184082
20
75.2713012695312
40
0.0
41
0.0
42
0.0
10
70.9819030761719
20
75.2201995849609
40
0.0
41
0.0
42
0.0
10
70.7836990356445
20
75.2154998779297
40
0.0
41
0.0
42
0.0
10
70.4931030273438
20
75.1572036743164
40
0.0
41
0.0
42
0.0
10
70.3483963012695
20
75.1696014404297
40
0.0
41
0.0
42
0.0
10
70.311897277832
20
75.1696014404297
40
0.0
41
0.0
42
0.0
10
69.9858016967773
20
75.0895004272461
40
0.0
41
0.0
42
0.0
10
69.713996887207
20
75.0000991821289
40
0.0
41
0.0
42
0.0
10
69.6489028930664
20
74.9742965698242
40
0.0
41
0.0
42
0.0
10
69.5185012817383
20
74.9925003051758
40
0.0
41
0.0
42
0.0
10
69.4851989746094
20
74.9924011230469
40
0.0
41
0.0
42
0.0
10
69.3979034423828
20
74.9459991455078
40
0.0
41
0.0
42
0.0
10
68.9888000488281
20
74.8195037841797
40
0.0
41
0.0
42
0.0
10
68.7974014282227
20
74.7003021240234
40
0.0
41
0.0
42
0.0
10
68.7570037841797
20
74.6855010986328
40
0.0
41
0.0
42
0.0
10
68.5647964477539
20
74.5925979614258
40
0.0
41
0.0
42
0.0
10
68.4875030517578
20
74.5705032348633
40
0.0
41
0.0
42
0.0
10
68.3972015380859
20
74.5266036987305
40
0.0
41
0.0
42
0.0
10
68.3545989990234
20
74.5029983520508
40
0.0
41
0.0
42
0.0
10
67.9928970336914
20
74.1369018554688
40
0.0
41
0.0
42
0.0
10
67.7671966552734
20
74.0050964355469
40
0.0
41
0.0
42
0.0
10
67.5595016479492
20
73.5738983154297
40
0.0
41
0.0
42
0.0
210
0.0
220
0.0
230
1.0
0
LWPOLYLINE
5
27
330
1C
100
AcDbEntity
67
0
8
0
62
256
6
ByLayer
370
-1
48
1.0
60
0
100
AcDbPolyline
90
67
70
1
38
0.0
39
0.0
10
67.8193969726562
20
73.8090972900391
40
0.0
41
0.0
42
0.0
10
67.9085998535156
20
73.9947967529297
40
0.0
41
0.0
42
0.0
10
68.0070037841797
20
74.0521011352539
40
0.0
41
0.0
42
0.0
10
68.4466018676758
20
74.4971008300781
40
0.0
41
0.0
42
0.0
10
68.5121994018555
20
74.5302963256836
40
0.0
41
0.0
42
0.0
10
68.5464019775391
20
74.5402984619141
40
0.0
41
0.0
42
0.0
10
68.7614974975586
20
74.6443023681641
40
0.0
41
0.0
42
0.0
10
68.7912979125977
20
74.6551971435547
40
0.0
41
0.0
42
0.0
10
69.0111999511719
20
74.7919998168945
40
0.0
41
0.0
42
0.0
10
69.3330993652344
20
74.8915023803711
40
0.0
41
0.0
42
0.0
10
69.5078964233398
20
74.9844970703125
40
0.0
41
0.0
42
0.0
10
69.6262969970703
20
74.9681015014648
40
0.0
41
0.0
42
0.0
10
69.7005996704102
20
74.9689025878906
40
0.0
41
0.0
42
0.0
10
69.7511978149414
20
74.9900970458984
40
0.0
41
0.0
42
0.0
10
70.0141983032227
20
75.0771026611328
40
0.0
41
0.0
42
0.0
10
70.2902984619141
20
75.1448974609375
40
0.0
41
0.0
42
0.0
10
70.4807968139648
20
75.1287994384766
40
0.0
41
0.0
42
0.0
10
70.5178985595703
20
75.1287002563477
40
0.0
41
0.0
42
0.0
10
70.7641983032227
20
75.1779022216797
40
0.0
41
0.0
42
0.0
10
71.0179977416992
20
75.1839981079102
40
0.0
41
0.0
42
0.0
10
71.2720031738281
20
75.2260971069336
40
0.0
41
0.0
42
0.0
10
71.5166015625
20
75.2555999755859
40
0.0
41
0.0
42
0.0
10
71.7017974853516
20
75.2935028076172
40
0.0
41
0.0
42
0.0
10
72.0169982910156
20
75.3245010375977
40
0.0
41
0.0
42
0.0
10
72.1981964111328
20
75.3574981689453
40
0.0
41
0.0
42
0.0
10
72.4804000854492
20
75.3498992919922
40
0.0
41
0.0
42
0.0
10
72.6670989990234
20
75.3473968505859
40
0.0
41
0.0
42
0.0
10
72.986198425293
20
75.2848968505859
40
0.0
41
0.0
42
0.0
10
73.303596496582
20
75.1473007202148
40
0.0
41
0.0
42
0.0
10
73.4020004272461
20
75.1010971069336
40
0.0
41
0.0
42
0.0
10
73.4934005737305
20
75.0462036132812
40
0.0
41
0.0
42
0.0
10
73.5421981811523
20
74.9918975830078
40
0.0
41
0.0
42
0.0
10
73.6392974853516
20
74.8003005981445
40
0.0
41
0.0
42
0.0
10
73.6505966186523
20
74.5111999511719
40
0.0
41
0.0
42
0.0
10
73.6015014648438
20
74.4477005004883
40
0.0
41
0.0
42
0.0
10
73.4945983886719
20
74.2768020629883
40
0.0
41
0.0
42
0.0
10
73.3051986694336
20
74.1829986572266
40
0.0
41
0.0
42
0.0
10
73.0663986206055
20
74.0345001220703
40
0.0
41
0.0
42
0.0
10
73.0070037841797
20
74.0057983398438
40
0.0
41
0.0
42
0.0
10
73.0005035400391
20
73.9654998779297
40
0.0
41
0.0
42
0.0
10
72.9359970092773
20
73.6387023925781
40
0.0
41
0.0
42
0.0
10
72.6186981201172
20
73.6990966796875
40
0.0
41
0.0
42
0.0
10
72.5856018066406
20
73.6989974975586
40
0.0
41
0.0
42
0.0
10
72.4868011474609
20
73.6493988037109
40
0.0
41
0.0
42
0.0
10
72.2164001464844
20
73.5973968505859
40
0.0
41
0.0
42
0.0
10
71.9837036132812
20
73.5625
40
0.0
41
0.0
42
0.0
10
71.8653030395508
20
73.53759765625
40
0.0
41
0.0
42
0.0
10
71.7117004394531
20
73.4996032714844
40
0.0
41
0.0
42
0.0
10
71.4875030517578
20
73.4334030151367
40
0.0
41
0.0
42
0.0
10
71.3010025024414
20
73.3451995849609
40
0.0
41
0.0
42
0.0
10
70.9824981689453
20
73.3037033081055
40
0.0
41
0.0
42
0.0
10
70.6713027954102
20
73.2683029174805
40
0.0
41
0.0
42
0.0
10
70.4858016967773
20
73.168701171875
40
0.0
41
0.0
42
0.0
10
70.1667022705078
20
73.1505966186523
40
0.0
41
0.0
42
0.0
10
70.1314010620117
20
73.1467971801758
40
0.0
41
0.0
42
0.0
10
69.9863967895508
20
73.0662002563477
40
0.0
41
0.0
42
0.0
10
69.5800018310547
20
73.0226974487305
40
0.0
41
0.0
42
0.0
10
69.4908981323242
20
73.0276031494141
40
0.0
41
0.0
42
0.0
10
69.1462020874023
20
73.0408020019531
40
0.0
41
0.0
42
0.0
10
69.0158004760742
20
73.0711975097656
40
0.0
41
0.0
42
0.0
10
68.7309036254883
20
73.1203994750977
40
0.0
41
0.0
42
0.0
10
68.511100769043
20
73.2141036987305
40
0.0
41
0.0
42
0.0
10
68.0843963623047
20
73.4278030395508
40
0.0
41
0.0
42
0.0
10
68.0155029296875
20
73.4509963989258
40
0.0
41
0.0
42
0.0
10
67.9702987670898
20
73.4552001953125
40
0.0
41
0.0
42
0.0
10
67.861701965332
20
73.5056991577148
40
0.0
41
0.0
42
0.0
10
67.8193969726562
20
73.8090972900391
40
0.0
41
0.0
42
0.0
210
0.0
220
0.0
230
1.0
0
LWPOLYLINE
5
28
330
1C
100
AcDbEntity
67
0
8
0
62
256
6
ByLayer
370
-1
48
1.0
60
0
100
AcDbPolyline
90
142
70
1
38
0.0
39
0.0
10
69.2185974121094
20
77.9919967651367
40
0.0
41
0.0
42
0.0
10
69.4962997436523
20
77.6886978149414
40
0.0
41
0.0
42
0.0
10
69.6317977905273
20
77.4933013916016
40
0.0
41
0.0
42
0.0
10
69.6800003051758
20
77.4432983398438
40
0.0
41
0.0
42
0.0
10
69.8067016601562
20
77.3193969726562
40
0.0
41
0.0
42
0.0
10
69.9871978759766
20
77.2435989379883
40
0.0
41
0.0
42
0.0
10
70.0429992675781
20
77.2260971069336
40
0.0
41
0.0
42
0.0
10
70.2801971435547
20
76.9954986572266
40
0.0
41
0.0
42
0.0
10
70.3567962646484
20
76.9317016601562
40
0.0
41
0.0
42
0.0
10
70.6341018676758
20
76.8589019775391
40
0.0
41
0.0
42
0.0
10
70.9903030395508
20
76.597900390625
40
0.0
41
0.0
42
0.0
10
71.135498046875
20
76.5370025634766
40
0.0
41
0.0
42
0.0
10
71.4912033081055
20
76.2639007568359
40
0.0
41
0.0
42
0.0
10
71.9745025634766
20
76.013801574707
40
0.0
41
0.0
42
0.0
10
72.0074005126953
20
75.993896484375
40
0.0
41
0.0
42
0.0
10
72.1179962158203
20
75.6689987182617
40
0.0
41
0.0
42
0.0
10
72.1321029663086
20
75.6584014892578
40
0.0
41
0.0
42
0.0
10
72.4843978881836
20
75.6512985229492
40
0.0
41
0.0
42
0.0
10
72.6292037963867
20
75.5906982421875
40
0.0
41
0.0
42
0.0
10
72.6638031005859
20
75.5905990600586
40
0.0
41
0.0
42
0.0
10
73.0018997192383
20
75.6265029907227
40
0.0
41
0.0
42
0.0
10
73.1258010864258
20
75.616096496582
40
0.0
41
0.0
42
0.0
10
73.1641998291016
20
75.6159973144531
40
0.0
41
0.0
42
0.0
10
73.5160980224609
20
75.6415023803711
40
0.0
41
0.0
42
0.0
10
73.8600997924805
20
75.7449035644531
40
0.0
41
0.0
42
0.0
10
73.9746017456055
20
75.9754028320312
40
0.0
41
0.0
42
0.0
10
73.9926986694336
20
75.9899978637695
40
0.0
41
0.0
42
0.0
10
73.9925994873047
20
76.0156021118164
40
0.0
41
0.0
42
0.0
10
73.8401031494141
20
76.3656005859375
40
0.0
41
0.0
42
0.0
10
73.7611999511719
20
76.50830078125
40
0.0
41
0.0
42
0.0
10
73.7345962524414
20
76.5425033569336
40
0.0
41
0.0
42
0.0
10
73.9529037475586
20
76.8563003540039
40
0.0
41
0.0
42
0.0
10
73.9970016479492
20
76.9478988647461
40
0.0
41
0.0
42
0.0
10
74.0031967163086
20
76.9478988647461
40
0.0
41
0.0
42
0.0
10
74.0242004394531
20
76.9038009643555
40
0.0
41
0.0
42
0.0
10
74.1913986206055
20
76.6352005004883
40
0.0
41
0.0
42
0.0
10
74.2610015869141
20
76.494499206543
40
0.0
41
0.0
42
0.0
10
74.4448013305664
20
76.3796005249023
40
0.0
41
0.0
42
0.0
10
74.4870986938477
20
76.3469009399414
40
0.0
41
0.0
42
0.0
10
74.5195007324219
20
76.3468017578125
40
0.0
41
0.0
42
0.0
10
74.8695983886719
20
76.3603973388672
40
0.0
41
0.0
42
0.0
10
75.0080032348633
20
76.4306030273438
40
0.0
41
0.0
42
0.0
10
75.0779037475586
20
76.4934997558594
40
0.0
41
0.0
42
0.0
10
75.1169967651367
20
76.5585021972656
40
0.0
41
0.0
42
0.0
10
75.152099609375
20
76.6335983276367
40
0.0
41
0.0
42
0.0
10
75.3051986694336
20
76.986198425293
40
0.0
41
0.0
42
0.0
10
75.3738021850586
20
77.3370971679688
40
0.0
41
0.0
42
0.0
10
75.3758010864258
20
77.4804000854492
40
0.0
41
0.0
42
0.0
10
75.3852996826172
20
77.8732986450195
40
0.0
41
0.0
42
0.0
10
75.3591003417969
20
78.0169982910156
40
0.0
41
0.0
42
0.0
10
75.3242034912109
20
78.3718032836914
40
0.0
41
0.0
42
0.0
10
75.2945022583008
20
78.5166015625
40
0.0
41
0.0
42
0.0
10
75.2713012695312
20
78.7089996337891
40
0.0
41
0.0
42
0.0
10
75.2201995849609
20
79.0179977416992
40
0.0
41
0.0
42
0.0
10
75.2154998779297
20
79.2161026000977
40
0.0
41
0.0
42
0.0
10
75.1572036743164
20
79.5067977905273
40
0.0
41
0.0
42
0.0
10
75.1696014404297
20
79.6513977050781
40
0.0
41
0.0
42
0.0
10
75.1696014404297
20
79.6878967285156
40
0.0
41
0.0
42
0.0
10
75.0895004272461
20
80.0140991210938
40
0.0
41
0.0
42
0.0
10
75.0000991821289
20
80.2857971191406
40
0.0
41
0.0
42
0.0
10
74.9742965698242
20
80.3510971069336
40
0.0
41
0.0
42
0.0
10
74.9925003051758
20
80.4813995361328
40
0.0
41
0.0
42
0.0
10
74.9924011230469
20
80.5147018432617
40
0.0
41
0.0
42
0.0
10
74.9459991455078
20
80.6018981933594
40
0.0
41
0.0
42
0.0
10
74.8193969726562
20
81.011100769043
40
0.0
41
0.0
42
0.0
10
74.7008972167969
20
81.2015991210938
40
0.0
41
0.0
42
0.0
10
74.6025009155273
20
81.4095993041992
40
0.0
41
0.0
42
0.0
10
74.5923004150391
20
81.4357986450195
40
0.0
41
0.0
42
0.0
10
74.5703964233398
20
81.5123977661133
40
0.0
41
0.0
42
0.0
10
74.5266036987305
20
81.6026000976562
40
0.0
41
0.0
42
0.0
10
74.5029983520508
20
81.6452026367188
40
0.0
41
0.0
42
0.0
10
74.1369018554688
20
82.0068969726562
40
0.0
41
0.0
42
0.0
10
74.0078964233398
20
82.2277984619141
40
0.0
41
0.0
42
0.0
10
73.980598449707
20
82.2276992797852
40
0.0
41
0.0
42
0.0
10
73.7194976806641
20
82.2110977172852
40
0.0
41
0.0
42
0.0
10
73.5109024047852
20
82.4318008422852
40
0.0
41
0.0
42
0.0
10
73.4949035644531
20
82.4318008422852
40
0.0
41
0.0
42
0.0
10
73.3496017456055
20
82.0131988525391
40
0.0
41
0.0
42
0.0
10
73.2730026245117
20
81.7854995727539
40
0.0
41
0.0
42
0.0
10
73.1355972290039
20
81.511100769043
40
0.0
41
0.0
42
0.0
10
73.0774002075195
20
81.375
40
0.0
41
0.0
42
0.0
10
73.0154037475586
20
81.0158004760742
40
0.0
41
0.0
42
0.0
10
73.0094985961914
20
80.9903030395508
40
0.0
41
0.0
42
0.0
10
72.9913024902344
20
80.5195007324219
40
0.0
41
0.0
42
0.0
10
72.9912033081055
20
80.4838027954102
40
0.0
41
0.0
42
0.0
10
72.9968032836914
20
80.4692993164062
40
0.0
41
0.0
42
0.0
10
73.0007019042969
20
80.4394989013672
40
0.0
41
0.0
42
0.0
10
73.049201965332
20
79.9863967895508
40
0.0
41
0.0
42
0.0
10
73.1498031616211
20
79.8051986694336
40
0.0
41
0.0
42
0.0
10
73.1678009033203
20
79.4858016967773
40
0.0
41
0.0
42
0.0
10
73.2454986572266
20
79.3413009643555
40
0.0
41
0.0
42
0.0
10
73.2863998413086
20
78.9824981689453
40
0.0
41
0.0
42
0.0
10
73.3320999145508
20
78.6308975219727
40
0.0
41
0.0
42
0.0
10
73.4000015258789
20
78.4873962402344
40
0.0
41
0.0
42
0.0
10
73.5000991821289
20
78.1481018066406
40
0.0
41
0.0
42
0.0
10
73.5231018066406
20
78.0554962158203
40
0.0
41
0.0
42
0.0
10
73.538200378418
20
77.9837036132812
40
0.0
41
0.0
42
0.0
10
73.5774993896484
20
77.7209014892578
40
0.0
41
0.0
42
0.0
10
73.6223983764648
20
77.486701965332
40
0.0
41
0.0
42
0.0
10
73.6584014892578
20
77.4150009155273
40
0.0
41
0.0
42
0.0
10
73.5907974243164
20
77.0588989257812
40
0.0
41
0.0
42
0.0
10
73.5908966064453
20
77.0381011962891
40
0.0
41
0.0
42
0.0
10
73.7217025756836
20
77.0122985839844
40
0.0
41
0.0
42
0.0
10
73.7220001220703
20
76.9869003295898
40
0.0
41
0.0
42
0.0
10
73.506103515625
20
76.9402008056641
40
0.0
41
0.0
42
0.0
10
73.4279022216797
20
77.0090026855469
40
0.0
41
0.0
42
0.0
10
73.3833999633789
20
77.2531967163086
40
0.0
41
0.0
42
0.0
10
73.3589019775391
20
77.2740020751953
40
0.0
41
0.0
42
0.0
10
73.2916030883789
20
77.3800964355469
40
0.0
41
0.0
42
0.0
10
73.0111999511719
20
77.4481964111328
40
0.0
41
0.0
42
0.0
10
72.9324035644531
20
77.5029983520508
40
0.0
41
0.0
42
0.0
10
72.5065994262695
20
77.8380966186523
40
0.0
41
0.0
42
0.0
10
72.3084030151367
20
78.0062026977539
40
0.0
41
0.0
42
0.0
10
72.0070037841797
20
78.2200012207031
40
0.0
41
0.0
42
0.0
10
71.959098815918
20
78.260498046875
40
0.0
41
0.0
42
0.0
10
71.8607025146484
20
78.3892974853516
40
0.0
41
0.0
42
0.0
10
71.6921997070312
20
78.4881973266602
40
0.0
41
0.0
42
0.0
10
71.6757965087891
20
78.5030975341797
40
0.0
41
0.0
42
0.0
10
71.5074996948242
20
78.6102981567383
40
0.0
41
0.0
42
0.0
10
71.4935989379883
20
78.6218032836914
40
0.0
41
0.0
42
0.0
10
71.2964019775391
20
78.809700012207
40
0.0
41
0.0
42
0.0
10
71.2413024902344
20
78.8466033935547
40
0.0
41
0.0
42
0.0
10
71.0121994018555
20
78.9544982910156
40
0.0
41
0.0
42
0.0
10
70.7809982299805
20
79.0279006958008
40
0.0
41
0.0
42
0.0
10
70.6947021484375
20
79.0614013671875
40
0.0
41
0.0
42
0.0
10
70.5121994018555
20
79.1957015991211
40
0.0
41
0.0
42
0.0
10
70.1995010375977
20
79.2265014648438
40
0.0
41
0.0
42
0.0
10
70.1355972290039
20
79.2546005249023
40
0.0
41
0.0
42
0.0
10
70.0151977539062
20
79.3124008178711
40
0.0
41
0.0
42
0.0
10
69.9822006225586
20
79.3123016357422
40
0.0
41
0.0
42
0.0
10
69.7645034790039
20
79.2661972045898
40
0.0
41
0.0
42
0.0
10
69.5164031982422
20
79.3516006469727
40
0.0
41
0.0
42
0.0
10
69.4847030639648
20
79.3515014648438
40
0.0
41
0.0
42
0.0
10
69.2147979736328
20
79.2220993041992
40
0.0
41
0.0
42
0.0
10
69.0164031982422
20
79.290901184082
40
0.0
41
0.0
42
0.0
10
68.9899978637695
20
79.290901184082
40
0.0
41
0.0
42
0.0
10
68.7657012939453
20
79.0124969482422
40
0.0
41
0.0
42
0.0
10
68.7655029296875
20
78.9893035888672
40
0.0
41
0.0
42
0.0
10
68.8886032104492
20
78.8798980712891
40
0.0
41
0.0
42
0.0
10
68.9548034667969
20
78.4878997802734
40
0.0
41
0.0
42
0.0
10
68.9980010986328
20
78.4235000610352
40
0.0
41
0.0
42
0.0
10
69.2185974121094
20
77.9919967651367
40
0.0
41
0.0
42
0.0
210
0.0
220
0.0
230
1.0
0
LWPOLYLINE
5
29
330
1C
100
AcDbEntity
67
0
8
0
62
256
6
ByLayer
370
-1
48
1.0
60
0
100
AcDbPolyline
90
136
70
1
38
0.0
39
0.0
10
69.0042037963867
20
79.0904006958008
40
0.0
41
0.0
42
0.0
10
69.0554962158203
20
79.0727005004883
40
0.0
41
0.0
42
0.0
10
69.086799621582
20
79.0725021362305
40
0.0
41
0.0
42
0.0
10
69.5020980834961
20
79.2714996337891
40
0.0
41
0.0
42
0.0
10
69.6882019042969
20
79.2078018188477
40
0.0
41
0.0
42
0.0
10
69.7225036621094
20
79.2077026367188
40
0.0
41
0.0
42
0.0
10
69.9949035644531
20
79.2652969360352
40
0.0
41
0.0
42
0.0
10
70.0861968994141
20
79.2214965820312
40
0.0
41
0.0
42
0.0
10
70.1303024291992
20
79.2021026611328
40
0.0
41
0.0
42
0.0
10
70.4877014160156
20
79.1669006347656
40
0.0
41
0.0
42
0.0
10
70.6351013183594
20
79.0585021972656
40
0.0
41
0.0
42
0.0
10
70.6970977783203
20
79.0344009399414
40
0.0
41
0.0
42
0.0
10
70.9876022338867
20
78.9421005249023
40
0.0
41
0.0
42
0.0
10
71.2473983764648
20
78.8198013305664
40
0.0
41
0.0
42
0.0
10
71.4783020019531
20
78.5998992919922
40
0.0
41
0.0
42
0.0
10
71.492301940918
20
78.5882034301758
40
0.0
41
0.0
42
0.0
10
71.636100769043
20
78.496696472168
40
0.0
41
0.0
42
0.0
10
71.6564025878906
20
78.4782028198242
40
0.0
41
0.0
42
0.0
10
71.8090972900391
20
78.3886032104492
40
0.0
41
0.0
42
0.0
10
71.9371032714844
20
78.2209014892578
40
0.0
41
0.0
42
0.0
10
71.9927978515625
20
78.1737976074219
40
0.0
41
0.0
42
0.0
10
72.239501953125
20
77.9989013671875
40
0.0
41
0.0
42
0.0
10
72.4932022094727
20
77.7839965820312
40
0.0
41
0.0
42
0.0
10
72.8581008911133
20
77.4968032836914
40
0.0
41
0.0
42
0.0
10
72.9887008666992
20
77.4058990478516
40
0.0
41
0.0
42
0.0
10
73.2459030151367
20
77.3433990478516
40
0.0
41
0.0
42
0.0
10
73.3108978271484
20
77.2408981323242
40
0.0
41
0.0
42
0.0
10
73.3497009277344
20
77.2080001831055
40
0.0
41
0.0
42
0.0
10
73.3891983032227
20
76.9908981323242
40
0.0
41
0.0
42
0.0
10
73.4878997802734
20
76.9044036865234
40
0.0
41
0.0
42
0.0
10
73.5177001953125
20
76.904296875
40
0.0
41
0.0
42
0.0
10
73.947998046875
20
76.9968032836914
40
0.0
41
0.0
42
0.0
10
73.947998046875
20
77.0026016235352
40
0.0
41
0.0
42
0.0
10
73.638801574707
20
77.0637969970703
40
0.0
41
0.0
42
0.0
10
73.6990966796875
20
77.381103515625
40
0.0
41
0.0
42
0.0
10
73.6989974975586
20
77.4141998291016
40
0.0
41
0.0
42
0.0
10
73.6493988037109
20
77.5130996704102
40
0.0
41
0.0
42
0.0
10
73.5973968505859
20
77.7834014892578
40
0.0
41
0.0
42
0.0
10
73.5625
20
78.0161972045898
40
0.0
41
0.0
42
0.0
10
73.5374984741211
20
78.1344985961914
40
0.0
41
0.0
42
0.0
10
73.4996032714844
20
78.2881011962891
40
0.0
41
0.0
42
0.0
10
73.4332962036133
20
78.5123977661133
40
0.0
41
0.0
42
0.0
10
73.3451995849609
20
78.6988983154297
40
0.0
41
0.0
42
0.0
10
73.3037033081055
20
79.0174026489258
40
0.0
41
0.0
42
0.0
10
73.2682037353516
20
79.328498840332
40
0.0
41
0.0
42
0.0
10
73.168701171875
20
79.5140991210938
40
0.0
41
0.0
42
0.0
10
73.1505966186523
20
79.8331985473633
40
0.0
41
0.0
42
0.0
10
73.1466979980469
20
79.8684005737305
40
0.0
41
0.0
42
0.0
10
73.0662002563477
20
80.0134963989258
40
0.0
41
0.0
42
0.0
10
73.0226974487305
20
80.4197998046875
40
0.0
41
0.0
42
0.0
10
73.0276031494141
20
80.508903503418
40
0.0
41
0.0
42
0.0
10
73.0408020019531
20
80.8535995483398
40
0.0
41
0.0
42
0.0
10
73.0712966918945
20
80.9841003417969
40
0.0
41
0.0
42
0.0
10
73.1203994750977
20
81.2688980102539
40
0.0
41
0.0
42
0.0
10
73.2142028808594
20
81.4888000488281
40
0.0
41
0.0
42
0.0
10
73.4278030395508
20
81.915397644043
40
0.0
41
0.0
42
0.0
10
73.5007019042969
20
82.1274032592773
40
0.0
41
0.0
42
0.0
10
73.556396484375
20
82.0683975219727
40
0.0
41
0.0
42
0.0
10
73.5868988037109
20
82.0684967041016
40
0.0
41
0.0
42
0.0
10
73.9928970336914
20
82.0940017700195
40
0.0
41
0.0
42
0.0
10
74.052001953125
20
81.9928970336914
40
0.0
41
0.0
42
0.0
10
74.4971008300781
20
81.5531997680664
40
0.0
41
0.0
42
0.0
10
74.5301971435547
20
81.4878997802734
40
0.0
41
0.0
42
0.0
10
74.5442962646484
20
81.4427032470703
40
0.0
41
0.0
42
0.0
10
74.6547012329102
20
81.2092971801758
40
0.0
41
0.0
42
0.0
10
74.7919998168945
20
80.9887008666992
40
0.0
41
0.0
42
0.0
10
74.8915023803711
20
80.6667022705078
40
0.0
41
0.0
42
0.0
10
74.9844970703125
20
80.4919967651367
40
0.0
41
0.0
42
0.0
10
74.9681015014648
20
80.3735961914062
40
0.0
41
0.0
42
0.0
10
74.9688034057617
20
80.299201965332
40
0.0
41
0.0
42
0.0
10
74.9899978637695
20
80.2485961914062
40
0.0
41
0.0
42
0.0
10
75.0771026611328
20
79.9857025146484
40
0.0
41
0.0
42
0.0
10
75.1448974609375
20
79.7095031738281
40
0.0
41
0.0
42
0.0
10
75.1287994384766
20
79.5190963745117
40
0.0
41
0.0
42
0.0
10
75.1287002563477
20
79.4820022583008
40
0.0
41
0.0
42
0.0
10
75.1779022216797
20
79.2356033325195
40
0.0
41
0.0
42
0.0
10
75.1839981079102
20
78.9819030761719
40
0.0
41
0.0
42
0.0
10
75.2260971069336
20
78.7277984619141
40
0.0
41
0.0
42
0.0
10
75.2555999755859
20
78.4832992553711
40
0.0
41
0.0
42
0.0
10
75.2935028076172
20
78.2981033325195
40
0.0
41
0.0
42
0.0
10
75.3245010375977
20
77.9829025268555
40
0.0
41
0.0
42
0.0
10
75.3574981689453
20
77.8016967773438
40
0.0
41
0.0
42
0.0
10
75.3498992919922
20
77.5195007324219
40
0.0
41
0.0
42
0.0
10
75.3473968505859
20
77.3328018188477
40
0.0
41
0.0
42
0.0
10
75.2850036621094
20
77.0137023925781
40
0.0
41
0.0
42
0.0
10
75.1473007202148
20
76.6962966918945
40
0.0
41
0.0
42
0.0
10
75.1010971069336
20
76.5977020263672
40
0.0
41
0.0
42
0.0
10
75.0463027954102
20
76.5064010620117
40
0.0
41
0.0
42
0.0
10
74.9918975830078
20
76.4576034545898
40
0.0
41
0.0
42
0.0
10
74.8003997802734
20
76.3603973388672
40
0.0
41
0.0
42
0.0
10
74.5111999511719
20
76.3491973876953
40
0.0
41
0.0
42
0.0
10
74.4477005004883
20
76.3983001708984
40
0.0
41
0.0
42
0.0
10
74.2768020629883
20
76.5052032470703
40
0.0
41
0.0
42
0.0
10
74.1828994750977
20
76.6947021484375
40
0.0
41
0.0
42
0.0
10
74.0344009399414
20
76.9332962036133
40
0.0
41
0.0
42
0.0
10
74.0067977905273
20
76.9907989501953
40
0.0
41
0.0
42
0.0
10
73.9962005615234
20
76.9906997680664
40
0.0
41
0.0
42
0.0
10
73.9858016967773
20
76.975700378418
40
0.0
41
0.0
42
0.0
10
73.9712982177734
20
76.9458999633789
40
0.0
41
0.0
42
0.0
10
73.9658966064453
20
76.9470977783203
40
0.0
41
0.0
42
0.0
10
73.7014999389648
20
76.5671997070312
40
0.0
41
0.0
42
0.0
10
73.7014007568359
20
76.5410003662109
40
0.0
41
0.0
42
0.0
10
73.7399978637695
20
76.4915008544922
40
0.0
41
0.0
42
0.0
10
73.8434982299805
20
76.30419921875
40
0.0
41
0.0
42
0.0
10
73.9746017456055
20
76.0031967163086
40
0.0
41
0.0
42
0.0
10
73.9151000976562
20
75.9550018310547
40
0.0
41
0.0
42
0.0
10
73.8097991943359
20
75.7426986694336
40
0.0
41
0.0
42
0.0
10
73.4838027954102
20
75.6447982788086
40
0.0
41
0.0
42
0.0
10
73.1864013671875
20
75.6231994628906
40
0.0
41
0.0
42
0.0
10
73.0190963745117
20
75.6374969482422
40
0.0
41
0.0
42
0.0
10
72.9811019897461
20
75.6373977661133
40
0.0
41
0.0
42
0.0
10
72.6937026977539
20
75.6069030761719
40
0.0
41
0.0
42
0.0
10
72.5155029296875
20
75.6817016601562
40
0.0
41
0.0
42
0.0
10
72.1977005004883
20
75.688102722168
40
0.0
41
0.0
42
0.0
10
72.1556015014648
20
75.7197036743164
40
0.0
41
0.0
42
0.0
10
72.0580978393555
20
76.0062026977539
40
0.0
41
0.0
42
0.0
10
72.008903503418
20
76.0380020141602
40
0.0
41
0.0
42
0.0
10
71.9237976074219
20
76.0875015258789
40
0.0
41
0.0
42
0.0
10
71.5085983276367
20
76.3022003173828
40
0.0
41
0.0
42
0.0
10
71.1942977905273
20
76.543701171875
40
0.0
41
0.0
42
0.0
10
71.0094985961914
20
76.6212005615234
40
0.0
41
0.0
42
0.0
10
70.69580078125
20
76.8510971069336
40
0.0
41
0.0
42
0.0
10
70.4039001464844
20
76.9263000488281
40
0.0
41
0.0
42
0.0
10
70.3105010986328
20
77.0043029785156
40
0.0
41
0.0
42
0.0
10
70.0494995117188
20
77.2578964233398
40
0.0
41
0.0
42
0.0
10
70.0127029418945
20
77.2695999145508
40
0.0
41
0.0
42
0.0
10
69.8630981445312
20
77.3323974609375
40
0.0
41
0.0
42
0.0
10
69.7583999633789
20
77.4348983764648
40
0.0
41
0.0
42
0.0
10
69.6890029907227
20
77.5065002441406
40
0.0
41
0.0
42
0.0
10
69.5035018920898
20
77.7744979858398
40
0.0
41
0.0
42
0.0
10
69.2897033691406
20
78.0077972412109
40
0.0
41
0.0
42
0.0
10
69.0652008056641
20
78.4466018676758
40
0.0
41
0.0
42
0.0
10
69.0392990112305
20
78.5143966674805
40
0.0
41
0.0
42
0.0
10
68.9636993408203
20
78.9725036621094
40
0.0
41
0.0
42
0.0
10
68.9319000244141
20
79.0009002685547
40
0.0
41
0.0
42
0.0
10
69.0042037963867
20
79.0904006958008
40
0.0
41
0.0
42
0.0
210
0.0
220
0.0
230
1.0
0
LWPOLYLINE
5
2A
330
1C
100
AcDbEntity
67
0
8
0
62
256
6
ByLayer
370
-1
48
1.0
60
0
100
AcDbPolyline
90
71
70
1
38
0.0
39
0.0
10
70.927001953125
20
69.0553970336914
40
0.0
41
0.0
42
0.0
10
70.9272003173828
20
69.086799621582
40
0.0
41
0.0
42
0.0
10
70.7282028198242
20
69.5020980834961
40
0.0
41
0.0
42
0.0
10
70.7920989990234
20
69.6882019042969
40
0.0
41
0.0
42
0.0
10
70.7919998168945
20
69.7223968505859
40
0.0
41
0.0
42
0.0
10
70.7343978881836
20
69.9949035644531
40
0.0
41
0.0
42
0.0
10
70.7781982421875
20
70.0861968994141
40
0.0
41
0.0
42
0.0
10
70.7975997924805
20
70.1303024291992
40
0.0
41
0.0
42
0.0
10
70.8328018188477
20
70.4878005981445
40
0.0
41
0.0
42
0.0
10
70.9412002563477
20
70.6352005004883
40
0.0
41
0.0
42
0.0
10
70.9653015136719
20
70.6971969604492
40
0.0
41
0.0
42
0.0
10
71.0576019287109
20
70.9876022338867
40
0.0
41
0.0
42
0.0
10
71.1799011230469
20
71.2474975585938
40
0.0
41
0.0
42
0.0
10
71.3998031616211
20
71.4783020019531
40
0.0
41
0.0
42
0.0
10
71.4114990234375
20
71.4924011230469
40
0.0
41
0.0
42
0.0
10
71.5031967163086
20
71.6361999511719
40
0.0
41
0.0
42
0.0
10
71.5214996337891
20
71.6564025878906
40
0.0
41
0.0
42
0.0
10
71.611198425293
20
71.8090972900391
40
0.0
41
0.0
42
0.0
10
71.7789001464844
20
71.9372024536133
40
0.0
41
0.0
42
0.0
10
71.8258972167969
20
71.9927978515625
40
0.0
41
0.0
42
0.0
10
72.0008010864258
20
72.239501953125
40
0.0
41
0.0
42
0.0
10
72.2157974243164
20
72.4933013916016
40
0.0
41
0.0
42
0.0
10
72.5030975341797
20
72.8581008911133
40
0.0
41
0.0
42
0.0
10
72.5938034057617
20
72.9888000488281
40
0.0
41
0.0
42
0.0
10
72.6563034057617
20
73.2459030151367
40
0.0
41
0.0
42
0.0
10
72.758903503418
20
73.3109970092773
40
0.0
41
0.0
42
0.0
10
72.7918014526367
20
73.3497009277344
40
0.0
41
0.0
42
0.0
10
73.0090026855469
20
73.3892974853516
40
0.0
41
0.0
42
0.0
10
73.1019973754883
20
73.4953002929688
40
0.0
41
0.0
42
0.0
10
73.1384963989258
20
73.5239028930664
40
0.0
41
0.0
42
0.0
10
73.2637023925781
20
73.8494033813477
40
0.0
41
0.0
42
0.0
10
73.4847030639648
20
73.7435989379883
40
0.0
41
0.0
42
0.0
10
73.5145034790039
20
73.7434997558594
40
0.0
41
0.0
42
0.0
10
73.6957015991211
20
73.8435974121094
40
0.0
41
0.0
42
0.0
10
73.996696472168
20
73.9746017456055
40
0.0
41
0.0
42
0.0
10
74.0447998046875
20
73.9151000976562
40
0.0
41
0.0
42
0.0
10
74.2570037841797
20
73.809700012207
40
0.0
41
0.0
42
0.0
10
74.3527984619141
20
73.4909973144531
40
0.0
41
0.0
42
0.0
10
74.339599609375
20
73.334098815918
40
0.0
41
0.0
42
0.0
10
74.3395004272461
20
73.2957000732422
40
0.0
41
0.0
42
0.0
10
74.3600997924805
20
73.0105972290039
40
0.0
41
0.0
42
0.0
10
74.2845993041992
20
72.8307037353516
40
0.0
41
0.0
42
0.0
10
74.2845993041992
20
72.7959976196289
40
0.0
41
0.0
42
0.0
10
74.3173980712891
20
72.4871978759766
40
0.0
41
0.0
42
0.0
10
74.3115997314453
20
72.1977996826172
40
0.0
41
0.0
42
0.0
10
74.2800979614258
20
72.1557006835938
40
0.0
41
0.0
42
0.0
10
73.9935989379883
20
72.0580978393555
40
0.0
41
0.0
42
0.0
10
73.9621963500977
20
72.0096969604492
40
0.0
41
0.0
42
0.0
10
73.8090972900391
20
71.6949005126953
40
0.0
41
0.0
42
0.0
10
73.6970977783203
20
71.5081024169922
40
0.0
41
0.0
42
0.0
10
73.4560012817383
20
71.1942977905273
40
0.0
41
0.0
42
0.0
10
73.3800964355469
20
71.0131988525391
40
0.0
41
0.0
42
0.0
10
73.331901550293
20
70.825798034668
40
0.0
41
0.0
42
0.0
10
73.1010971069336
20
70.5108032226562
40
0.0
41
0.0
42
0.0
10
73.0734024047852
20
70.4039001464844
40
0.0
41
0.0
42
0.0
10
72.9955978393555
20
70.3106002807617
40
0.0
41
0.0
42
0.0
10
72.7417984008789
20
70.0495986938477
40
0.0
41
0.0
42
0.0
10
72.7302017211914
20
70.0127029418945
40
0.0
41
0.0
42
0.0
10
72.6673965454102
20
69.8630981445312
40
0.0
41
0.0
42
0.0
10
72.5649032592773
20
69.7583999633789
40
0.0
41
0.0
42
0.0
10
72.4933013916016
20
69.6891021728516
40
0.0
41
0.0
42
0.0
10
72.2253036499023
20
69.5035018920898
40
0.0
41
0.0
42
0.0
10
71.9919967651367
20
69.2898025512695
40
0.0
41
0.0
42
0.0
10
71.5531005859375
20
69.065299987793
40
0.0
41
0.0
42
0.0
10
71.4854965209961
20
69.0392990112305
40
0.0
41
0.0
42
0.0
10
71.2380981445312
20
68.999397277832
40
0.0
41
0.0
42
0.0
10
70.9891967773438
20
68.9227981567383
40
0.0
41
0.0
42
0.0
10
70.822998046875
20
68.8089981079102
40
0.0
41
0.0
42
0.0
10
70.8049011230469
20
68.8262023925781
40
0.0
41
0.0
42
0.0
10
70.904296875
20
68.988899230957
40
0.0
41
0.0
42
0.0
10
70.927001953125
20
69.0553970336914
40
0.0
41
0.0
42
0.0
210
0.0
220
0.0
230
1.0
0
LWPOLYLINE
5
2B
330
1C
100
AcDbEntity
67
0
8
0
62
256
6
ByLayer
370
-1
48
1.0
60
0
100
AcDbPolyline
90
138
70
1
38
0.0
39
0.0
10
74.6407012939453
20
71.9810028076172
40
0.0
41
0.0
42
0.0
10
74.6754989624023
20
71.6280975341797
40
0.0
41
0.0
42
0.0
10
74.7051010131836
20
71.4832992553711
40
0.0
41
0.0
42
0.0
10
74.728401184082
20
71.290901184082
40
0.0
41
0.0
42
0.0
10
74.7795028686523
20
70.9819030761719
40
0.0
41
0.0
42
0.0
10
74.7843017578125
20
70.7836990356445
40
0.0
41
0.0
42
0.0
10
74.8424987792969
20
70.4929962158203
40
0.0
41
0.0
42
0.0
10
74.8302993774414
20
70.348503112793
40
0.0
41
0.0
42
0.0
10
74.8302001953125
20
70.311897277832
40
0.0
41
0.0
42
0.0
10
74.9102020263672
20
69.9857025146484
40
0.0
41
0.0
42
0.0
10
74.9997024536133
20
69.713996887207
40
0.0
41
0.0
42
0.0
10
75.0253982543945
20
69.6488037109375
40
0.0
41
0.0
42
0.0
10
75.0074005126953
20
69.5185012817383
40
0.0
41
0.0
42
0.0
10
75.0073013305664
20
69.4851989746094
40
0.0
41
0.0
42
0.0
10
75.053596496582
20
69.3977966308594
40
0.0
41
0.0
42
0.0
10
75.1890029907227
20
68.9585037231445
40
0.0
41
0.0
42
0.0
10
75.3142013549805
20
68.7573013305664
40
0.0
41
0.0
42
0.0
10
75.3587036132812
20
68.6024017333984
40
0.0
41
0.0
42
0.0
10
75.4280014038086
20
68.4899978637695
40
0.0
41
0.0
42
0.0
10
75.4730987548828
20
68.3972015380859
40
0.0
41
0.0
42
0.0
10
75.4968032836914
20
68.3544998168945
40
0.0
41
0.0
42
0.0
10
75.8628005981445
20
67.9928970336914
40
0.0
41
0.0
42
0.0
10
75.9918975830078
20
67.7718963623047
40
0.0
41
0.0
42
0.0
10
76.0193023681641
20
67.7720031738281
40
0.0
41
0.0
42
0.0
10
76.2801971435547
20
67.7885971069336
40
0.0
41
0.0
42
0.0
10
76.4889984130859
20
67.5679016113281
40
0.0
41
0.0
42
0.0
10
76.504997253418
20
67.568000793457
40
0.0
41
0.0
42
0.0
10
76.6501007080078
20
67.9868011474609
40
0.0
41
0.0
42
0.0
10
76.7267990112305
20
68.2143020629883
40
0.0
41
0.0
42
0.0
10
76.8640975952148
20
68.4888000488281
40
0.0
41
0.0
42
0.0
10
76.9223022460938
20
68.6248016357422
40
0.0
41
0.0
42
0.0
10
76.9842987060547
20
68.9841995239258
40
0.0
41
0.0
42
0.0
10
76.9903030395508
20
69.0095977783203
40
0.0
41
0.0
42
0.0
10
77.0085983276367
20
69.4804000854492
40
0.0
41
0.0
42
0.0
10
77.0084991455078
20
69.515998840332
40
0.0
41
0.0
42
0.0
10
77.0028991699219
20
69.5305023193359
40
0.0
41
0.0
42
0.0
10
76.9990997314453
20
69.560302734375
40
0.0
41
0.0
42
0.0
10
76.9505004882812
20
70.0134963989258
40
0.0
41
0.0
42
0.0
10
76.8498992919922
20
70.1947021484375
40
0.0
41
0.0
42
0.0
10
76.8315963745117
20
70.5182037353516
40
0.0
41
0.0
42
0.0
10
76.7917022705078
20
70.8685989379883
40
0.0
41
0.0
42
0.0
10
76.7137985229492
20
71.0133972167969
40
0.0
41
0.0
42
0.0
10
76.6676025390625
20
71.3690032958984
40
0.0
41
0.0
42
0.0
10
76.5997009277344
20
71.5123977661133
40
0.0
41
0.0
42
0.0
10
76.4996032714844
20
71.8516006469727
40
0.0
41
0.0
42
0.0
10
76.4766998291016
20
71.9441986083984
40
0.0
41
0.0
42
0.0
10
76.4615020751953
20
72.0161972045898
40
0.0
41
0.0
42
0.0
10
76.4222030639648
20
72.2789001464844
40
0.0
41
0.0
42
0.0
10
76.377197265625
20
72.5130996704102
40
0.0
41
0.0
42
0.0
10
76.3413009643555
20
72.5848007202148
40
0.0
41
0.0
42
0.0
10
76.4088973999023
20
72.9409027099609
40
0.0
41
0.0
42
0.0
10
76.4088973999023
20
72.9617004394531
40
0.0
41
0.0
42
0.0
10
76.2781982421875
20
72.9877014160156
40
0.0
41
0.0
42
0.0
10
76.2779006958008
20
73.0130996704102
40
0.0
41
0.0
42
0.0
10
76.4936981201172
20
73.0595016479492
40
0.0
41
0.0
42
0.0
10
76.5843963623047
20
72.9804000854492
40
0.0
41
0.0
42
0.0
10
76.9936981201172
20
72.5479965209961
40
0.0
41
0.0
42
0.0
10
77.0672988891602
20
72.4968032836914
40
0.0
41
0.0
42
0.0
10
77.4932022094727
20
72.1616973876953
40
0.0
41
0.0
42
0.0
10
77.6912994384766
20
71.9934997558594
40
0.0
41
0.0
42
0.0
10
77.9937973022461
20
71.7789993286133
40
0.0
41
0.0
42
0.0
10
78.1690979003906
20
71.5875015258789
40
0.0
41
0.0
42
0.0
10
78.3220977783203
20
71.497802734375
40
0.0
41
0.0
42
0.0
10
78.4900970458984
20
71.3908004760742
40
0.0
41
0.0
42
0.0
10
78.7951965332031
20
71.2469024658203
40
0.0
41
0.0
42
0.0
10
78.9738006591797
20
71.0574035644531
40
0.0
41
0.0
42
0.0
10
78.9899978637695
20
71.0444030761719
40
0.0
41
0.0
42
0.0
10
79.2186965942383
20
70.9718017578125
40
0.0
41
0.0
42
0.0
10
79.3050994873047
20
70.9383010864258
40
0.0
41
0.0
42
0.0
10
79.4877014160156
20
70.8040008544922
40
0.0
41
0.0
42
0.0
10
79.8003005981445
20
70.7732009887695
40
0.0
41
0.0
42
0.0
10
79.8641967773438
20
70.7451019287109
40
0.0
41
0.0
42
0.0
10
79.9847030639648
20
70.6875
40
0.0
41
0.0
42
0.0
10
80.0177993774414
20
70.6874008178711
40
0.0
41
0.0
42
0.0
10
80.2352981567383
20
70.7333984375
40
0.0
41
0.0
42
0.0
10
80.4833984375
20
70.6482009887695
40
0.0
41
0.0
42
0.0
10
80.5151977539062
20
70.6483001708984
40
0.0
41
0.0
42
0.0
10
80.7850036621094
20
70.7774963378906
40
0.0
41
0.0
42
0.0
10
80.9833984375
20
70.7088012695312
40
0.0
41
0.0
42
0.0
10
81.0099029541016
20
70.7089004516602
40
0.0
41
0.0
42
0.0
10
81.2341995239258
20
70.9873962402344
40
0.0
41
0.0
42
0.0
10
81.2341003417969
20
71.010498046875
40
0.0
41
0.0
42
0.0
10
81.1110992431641
20
71.1197967529297
40
0.0
41
0.0
42
0.0
10
81.0448989868164
20
71.5120010375977
40
0.0
41
0.0
42
0.0
10
81.0018005371094
20
71.576301574707
40
0.0
41
0.0
42
0.0
10
80.7810974121094
20
72.0077972412109
40
0.0
41
0.0
42
0.0
10
80.5035018920898
20
72.3109970092773
40
0.0
41
0.0
42
0.0
10
80.3679962158203
20
72.5065994262695
40
0.0
41
0.0
42
0.0
10
80.3197021484375
20
72.556396484375
40
0.0
41
0.0
42
0.0
10
80.1930999755859
20
72.6802978515625
40
0.0
41
0.0
42
0.0
10
80.0127029418945
20
72.7559967041016
40
0.0
41
0.0
42
0.0
10
79.9568023681641
20
72.7734985351562
40
0.0
41
0.0
42
0.0
10
79.7194976806641
20
73.0043029785156
40
0.0
41
0.0
42
0.0
10
79.6428985595703
20
73.0680999755859
40
0.0
41
0.0
42
0.0
10
79.5106964111328
20
73.1035003662109
40
0.0
41
0.0
42
0.0
10
79.1557998657227
20
73.3635025024414
40
0.0
41
0.0
42
0.0
10
79.0131988525391
20
73.4001998901367
40
0.0
41
0.0
42
0.0
10
78.8643035888672
20
73.4626998901367
40
0.0
41
0.0
42
0.0
10
78.4823989868164
20
73.7556991577148
40
0.0
41
0.0
42
0.0
10
78.1828002929688
20
73.9232025146484
40
0.0
41
0.0
42
0.0
10
78.0101013183594
20
73.9945983886719
40
0.0
41
0.0
42
0.0
10
77.9922027587891
20
74.0063018798828
40
0.0
41
0.0
42
0.0
10
77.8816986083984
20
74.3307037353516
40
0.0
41
0.0
42
0.0
10
77.8677978515625
20
74.3413009643555
40
0.0
41
0.0
42
0.0
10
77.4809036254883
20
74.3482971191406
40
0.0
41
0.0
42
0.0
10
77.1537017822266
20
74.3134002685547
40
0.0
41
0.0
42
0.0
10
77.0157012939453
20
74.3714981079102
40
0.0
41
0.0
42
0.0
10
76.9806976318359
20
74.3713989257812
40
0.0
41
0.0
42
0.0
10
76.6464004516602
20
74.3471984863281
40
0.0
41
0.0
42
0.0
10
76.5190963745117
20
74.3581008911133
40
0.0
41
0.0
42
0.0
10
76.4830017089844
20
74.3580017089844
40
0.0
41
0.0
42
0.0
10
76.1397018432617
20
74.2548980712891
40
0.0
41
0.0
42
0.0
10
76.0251007080078
20
74.0243988037109
40
0.0
41
0.0
42
0.0
10
76.0072021484375
20
74.0099029541016
40
0.0
41
0.0
42
0.0
10
76.0071029663086
20
73.9842987060547
40
0.0
41
0.0
42
0.0
10
76.1595993041992
20
73.6342010498047
40
0.0
41
0.0
42
0.0
10
76.2384033203125
20
73.4915008544922
40
0.0
41
0.0
42
0.0
10
76.2651977539062
20
73.4571990966797
40
0.0
41
0.0
42
0.0
10
76.0467987060547
20
73.1436004638672
40
0.0
41
0.0
42
0.0
10
76.0030975341797
20
73.0521011352539
40
0.0
41
0.0
42
0.0
10
75.9971008300781
20
73.052001953125
40
0.0
41
0.0
42
0.0
10
75.9755020141602
20
73.0958023071289
40
0.0
41
0.0
42
0.0
10
75.8084030151367
20
73.3647003173828
40
0.0
41
0.0
42
0.0
10
75.7386016845703
20
73.5052032470703
40
0.0
41
0.0
42
0.0
10
75.5550003051758
20
73.6202011108398
40
0.0
41
0.0
42
0.0
10
75.5128021240234
20
73.6529998779297
40
0.0
41
0.0
42
0.0
10
75.4804000854492
20
73.6529006958008
40
0.0
41
0.0
42
0.0
10
75.1304016113281
20
73.6392974853516
40
0.0
41
0.0
42
0.0
10
74.9918975830078
20
73.5691986083984
40
0.0
41
0.0
42
0.0
10
74.9219970703125
20
73.5064010620117
40
0.0
41
0.0
42
0.0
10
74.8827972412109
20
73.4412994384766
40
0.0
41
0.0
42
0.0
10
74.8477020263672
20
73.3663024902344
40
0.0
41
0.0
42
0.0
10
74.695198059082
20
73.0155029296875
40
0.0
41
0.0
42
0.0
10
74.6932983398438
20
72.872802734375
40
0.0
41
0.0
42
0.0
10
74.6239013671875
20
72.5179977416992
40
0.0
41
0.0
42
0.0
10
74.6240005493164
20
72.4819030761719
40
0.0
41
0.0
42
0.0
10
74.6494979858398
20
72.3416976928711
40
0.0
41
0.0
42
0.0
10
74.6407012939453
20
71.9810028076172
40
0.0
41
0.0
42
0.0
210
0.0
220
0.0
230
1.0
0
LWPOLYLINE
5
2C
330
1C
100
AcDbEntity
67
0
8
0
62
256
6
ByLayer
370
-1
48
1.0
60
0
100
AcDbPolyline
90
134
70
1
38
0.0
39
0.0
10
74.6835021972656
20
72.3332977294922
40
0.0
41
0.0
42
0.0
10
74.6530990600586
20
72.499397277832
40
0.0
41
0.0
42
0.0
10
74.7114028930664
20
72.7970962524414
40
0.0
41
0.0
42
0.0
10
74.713996887207
20
72.9844970703125
40
0.0
41
0.0
42
0.0
10
74.8524017333984
20
73.303596496582
40
0.0
41
0.0
42
0.0
10
74.8985977172852
20
73.402099609375
40
0.0
41
0.0
42
0.0
10
74.9535980224609
20
73.4934997558594
40
0.0
41
0.0
42
0.0
10
75.0080032348633
20
73.5421981811523
40
0.0
41
0.0
42
0.0
10
75.1996002197266
20
73.6392974853516
40
0.0
41
0.0
42
0.0
10
75.4886016845703
20
73.6504974365234
40
0.0
41
0.0
42
0.0
10
75.5521011352539
20
73.6015014648438
40
0.0
41
0.0
42
0.0
10
75.722900390625
20
73.4945983886719
40
0.0
41
0.0
42
0.0
10
75.8168029785156
20
73.3050994873047
40
0.0
41
0.0
42
0.0
10
75.965202331543
20
73.0663986206055
40
0.0
41
0.0
42
0.0
10
75.9931030273438
20
73.0091018676758
40
0.0
41
0.0
42
0.0
10
76.0036010742188
20
73.0091018676758
40
0.0
41
0.0
42
0.0
10
76.0133972167969
20
73.0232009887695
40
0.0
41
0.0
42
0.0
10
76.0281982421875
20
73.0541000366211
40
0.0
41
0.0
42
0.0
10
76.0339965820312
20
73.0526962280273
40
0.0
41
0.0
42
0.0
10
76.2984008789062
20
73.4326019287109
40
0.0
41
0.0
42
0.0
10
76.2983016967773
20
73.4589004516602
40
0.0
41
0.0
42
0.0
10
76.2596969604492
20
73.50830078125
40
0.0
41
0.0
42
0.0
10
76.1560974121094
20
73.6956024169922
40
0.0
41
0.0
42
0.0
10
76.0251998901367
20
73.996696472168
40
0.0
41
0.0
42
0.0
10
76.084602355957
20
74.0447998046875
40
0.0
41
0.0
42
0.0
10
76.1902008056641
20
74.2570037841797
40
0.0
41
0.0
42
0.0
10
76.508903503418
20
74.3527984619141
40
0.0
41
0.0
42
0.0
10
76.6658020019531
20
74.339599609375
40
0.0
41
0.0
42
0.0
10
76.7042007446289
20
74.3395004272461
40
0.0
41
0.0
42
0.0
10
76.9893035888672
20
74.3600997924805
40
0.0
41
0.0
42
0.0
10
77.1691970825195
20
74.2845993041992
40
0.0
41
0.0
42
0.0
10
77.2039031982422
20
74.2845993041992
40
0.0
41
0.0
42
0.0
10
77.5127029418945
20
74.3173980712891
40
0.0
41
0.0
42
0.0
10
77.8021011352539
20
74.3115005493164
40
0.0
41
0.0
42
0.0
10
77.8441009521484
20
74.2799987792969
40
0.0
41
0.0
42
0.0
10
77.9415969848633
20
73.9935989379883
40
0.0
41
0.0
42
0.0
10
77.9897003173828
20
73.9626007080078
40
0.0
41
0.0
42
0.0
10
78.1417999267578
20
73.8995971679688
40
0.0
41
0.0
42
0.0
10
78.4585037231445
20
73.7221984863281
40
0.0
41
0.0
42
0.0
10
78.8054962158203
20
73.4560012817383
40
0.0
41
0.0
42
0.0
10
78.9866027832031
20
73.3800964355469
40
0.0
41
0.0
42
0.0
10
79.1741027832031
20
73.3318023681641
40
0.0
41
0.0
42
0.0
10
79.4890975952148
20
73.1009979248047
40
0.0
41
0.0
42
0.0
10
79.5959014892578
20
73.0733032226562
40
0.0
41
0.0
42
0.0
10
79.6892013549805
20
72.9954986572266
40
0.0
41
0.0
42
0.0
10
79.9502029418945
20
72.74169921875
40
0.0
41
0.0
42
0.0
10
79.9871978759766
20
72.7301025390625
40
0.0
41
0.0
42
0.0
10
80.1367034912109
20
72.6672973632812
40
0.0
41
0.0
42
0.0
10
80.2414016723633
20
72.5647964477539
40
0.0
41
0.0
42
0.0
10
80.3106994628906
20
72.4933013916016
40
0.0
41
0.0
42
0.0
10
80.4962997436523
20
72.2251968383789
40
0.0
41
0.0
42
0.0
10
80.7099990844727
20
71.9919967651367
40
0.0
41
0.0
42
0.0
10
80.9344024658203
20
71.5531005859375
40
0.0
41
0.0
42
0.0
10
80.9604034423828
20
71.4854965209961
40
0.0
41
0.0
42
0.0
10
81.0361022949219
20
71.0273971557617
40
0.0
41
0.0
42
0.0
10
81.068000793457
20
70.9990997314453
40
0.0
41
0.0
42
0.0
10
80.9957962036133
20
70.9092025756836
40
0.0
41
0.0
42
0.0
10
80.9443969726562
20
70.9271011352539
40
0.0
41
0.0
42
0.0
10
80.9131011962891
20
70.9272994995117
40
0.0
41
0.0
42
0.0
10
80.4977035522461
20
70.7281036376953
40
0.0
41
0.0
42
0.0
10
80.3115997314453
20
70.7920989990234
40
0.0
41
0.0
42
0.0
10
80.2773971557617
20
70.7919998168945
40
0.0
41
0.0
42
0.0
10
80.004997253418
20
70.7343978881836
40
0.0
41
0.0
42
0.0
10
79.9135971069336
20
70.7781982421875
40
0.0
41
0.0
42
0.0
10
79.8695983886719
20
70.7975997924805
40
0.0
41
0.0
42
0.0
10
79.5121002197266
20
70.8327026367188
40
0.0
41
0.0
42
0.0
10
79.3647003173828
20
70.9411010742188
40
0.0
41
0.0
42
0.0
10
79.3025970458984
20
70.965202331543
40
0.0
41
0.0
42
0.0
10
79.0099029541016
20
71.0582962036133
40
0.0
41
0.0
42
0.0
10
78.9897003173828
20
71.0745010375977
40
0.0
41
0.0
42
0.0
10
78.8296966552734
20
71.2442016601562
40
0.0
41
0.0
42
0.0
10
78.7842025756836
20
71.2807998657227
40
0.0
41
0.0
42
0.0
10
78.5098037719727
20
71.4100036621094
40
0.0
41
0.0
42
0.0
10
78.3654022216797
20
71.5018997192383
40
0.0
41
0.0
42
0.0
10
78.2310028076172
20
71.5809020996094
40
0.0
41
0.0
42
0.0
10
78.0058975219727
20
71.8265991210938
40
0.0
41
0.0
42
0.0
10
77.7602005004883
20
72.0008010864258
40
0.0
41
0.0
42
0.0
10
77.5065994262695
20
72.2156982421875
40
0.0
41
0.0
42
0.0
10
77.1416015625
20
72.5029983520508
40
0.0
41
0.0
42
0.0
10
77.006103515625
20
72.597297668457
40
0.0
41
0.0
42
0.0
10
76.6414031982422
20
72.9824981689453
40
0.0
41
0.0
42
0.0
10
76.5121002197266
20
73.0954971313477
40
0.0
41
0.0
42
0.0
10
76.4822006225586
20
73.0953979492188
40
0.0
41
0.0
42
0.0
10
76.0514984130859
20
73.0028991699219
40
0.0
41
0.0
42
0.0
10
76.0514984130859
20
72.9971008300781
40
0.0
41
0.0
42
0.0
10
76.3609008789062
20
72.9358978271484
40
0.0
41
0.0
42
0.0
10
76.3007965087891
20
72.6186981201172
40
0.0
41
0.0
42
0.0
10
76.3006973266602
20
72.5856018066406
40
0.0
41
0.0
42
0.0
10
76.3503036499023
20
72.4868011474609
40
0.0
41
0.0
42
0.0
10
76.4022979736328
20
72.2164001464844
40
0.0
41
0.0
42
0.0
10
76.4372024536133
20
71.9837036132812
40
0.0
41
0.0
42
0.0
10
76.4620971679688
20
71.8653030395508
40
0.0
41
0.0
42
0.0
10
76.5001983642578
20
71.7116012573242
40
0.0
41
0.0
42
0.0
10
76.5662994384766
20
71.4873962402344
40
0.0
41
0.0
42
0.0
10
76.6545028686523
20
71.3009033203125
40
0.0
41
0.0
42
0.0
10
76.6956024169922
20
70.9865036010742
40
0.0
41
0.0
42
0.0
10
76.7948989868164
20
70.8013000488281
40
0.0
41
0.0
42
0.0
10
76.8311996459961
20
70.4816970825195
40
0.0
41
0.0
42
0.0
10
76.8482971191406
20
70.1804962158203
40
0.0
41
0.0
42
0.0
10
76.8529968261719
20
70.1313018798828
40
0.0
41
0.0
42
0.0
10
76.9335021972656
20
69.9863967895508
40
0.0
41
0.0
42
0.0
10
76.9769973754883
20
69.5800018310547
40
0.0
41
0.0
42
0.0
10
76.9720993041992
20
69.4908981323242
40
0.0
41
0.0
42
0.0
10
76.9589004516602
20
69.1462020874023
40
0.0
41
0.0
42
0.0
10
76.9284973144531
20
69.0158004760742
40
0.0
41
0.0
42
0.0
10
76.8793029785156
20
68.7310028076172
40
0.0
41
0.0
42
0.0
10
76.7855987548828
20
68.511100769043
40
0.0
41
0.0
42
0.0
10
76.5718994140625
20
68.0843963623047
40
0.0
41
0.0
42
0.0
10
76.4992980957031
20
67.872200012207
40
0.0
41
0.0
42
0.0
10
76.4432983398438
20
67.931396484375
40
0.0
41
0.0
42
0.0
10
76.4130020141602
20
67.9312973022461
40
0.0
41
0.0
42
0.0
10
76.0068969726562
20
67.9056015014648
40
0.0
41
0.0
42
0.0
10
75.9477005004883
20
68.0068969726562
40
0.0
41
0.0
42
0.0
10
75.5027008056641
20
68.4465026855469
40
0.0
41
0.0
42
0.0
10
75.470703125
20
68.5095977783203
40
0.0
41
0.0
42
0.0
10
75.3902969360352
20
68.6398010253906
40
0.0
41
0.0
42
0.0
10
75.3554992675781
20
68.761100769043
40
0.0
41
0.0
42
0.0
10
75.2145004272461
20
68.9875030517578
40
0.0
41
0.0
42
0.0
10
75.1082000732422
20
69.3330001831055
40
0.0
41
0.0
42
0.0
10
75.0151977539062
20
69.5078964233398
40
0.0
41
0.0
42
0.0
10
75.0317001342773
20
69.6262969970703
40
0.0
41
0.0
42
0.0
10
75.0309982299805
20
69.700798034668
40
0.0
41
0.0
42
0.0
10
75.0027008056641
20
69.7712020874023
40
0.0
41
0.0
42
0.0
10
74.9225997924805
20
70.0140991210938
40
0.0
41
0.0
42
0.0
10
74.8548965454102
20
70.2902984619141
40
0.0
41
0.0
42
0.0
10
74.8711013793945
20
70.4807968139648
40
0.0
41
0.0
42
0.0
10
74.8710021972656
20
70.5178985595703
40
0.0
41
0.0
42
0.0
10
74.8218002319336
20
70.7641983032227
40
0.0
41
0.0
42
0.0
10
74.8156967163086
20
71.0179977416992
40
0.0
41
0.0
42
0.0
10
74.7735977172852
20
71.2720031738281
40
0.0
41
0.0
42
0.0
10
74.7441024780273
20
71.5166015625
40
0.0
41
0.0
42
0.0
10
74.7061996459961
20
71.7017974853516
40
0.0
41
0.0
42
0.0
10
74.6757965087891
20
72.0105972290039
40
0.0
41
0.0
42
0.0
10
74.6835021972656
20
72.3332977294922
40
0.0
41
0.0
42
0.0
210
0.0
220
0.0
230
1.0
0
LWPOLYLINE
5
2D
330
1C
100
AcDbEntity
67
0
8
0
62
256
6
ByLayer
370
-1
48
1.0
60
0
100
AcDbPolyline
90
133
70
1
38
0.0
39
0.0
10
75.6882019042969
20
77.8022003173828
40
0.0
41
0.0
42
0.0
10
75.7198028564453
20
77.8441009521484
40
0.0
41
0.0
42
0.0
10
76.0063018798828
20
77.9417037963867
40
0.0
41
0.0
42
0.0
10
76.0372009277344
20
77.9897994995117
40
0.0
41
0.0
42
0.0
10
76.10009765625
20
78.1417999267578
40
0.0
41
0.0
42
0.0
10
76.2774963378906
20
78.4585037231445
40
0.0
41
0.0
42
0.0
10
76.543701171875
20
78.8056030273438
40
0.0
41
0.0
42
0.0
10
76.6212005615234
20
78.9904022216797
40
0.0
41
0.0
42
0.0
10
76.8510971069336
20
79.3041000366211
40
0.0
41
0.0
42
0.0
10
76.926399230957
20
79.5959014892578
40
0.0
41
0.0
42
0.0
10
77.0043029785156
20
79.6892013549805
40
0.0
41
0.0
42
0.0
10
77.2580032348633
20
79.9502029418945
40
0.0
41
0.0
42
0.0
10
77.2695999145508
20
79.9871978759766
40
0.0
41
0.0
42
0.0
10
77.3323974609375
20
80.1368026733398
40
0.0
41
0.0
42
0.0
10
77.4349975585938
20
80.2414016723633
40
0.0
41
0.0
42
0.0
10
77.5065994262695
20
80.3106994628906
40
0.0
41
0.0
42
0.0
10
77.7745971679688
20
80.4963989257812
40
0.0
41
0.0
42
0.0
10
78.0078964233398
20
80.7099990844727
40
0.0
41
0.0
42
0.0
10
78.4467010498047
20
80.9345016479492
40
0.0
41
0.0
42
0.0
10
78.5145034790039
20
80.9604034423828
40
0.0
41
0.0
42
0.0
10
78.7618026733398
20
81.0003967285156
40
0.0
41
0.0
42
0.0
10
79.0106964111328
20
81.0770034790039
40
0.0
41
0.0
42
0.0
10
79.1769027709961
20
81.1909027099609
40
0.0
41
0.0
42
0.0
10
79.1949996948242
20
81.173698425293
40
0.0
41
0.0
42
0.0
10
79.0953979492188
20
81.0110015869141
40
0.0
41
0.0
42
0.0
10
79.0727005004883
20
80.9442977905273
40
0.0
41
0.0
42
0.0
10
79.0724029541016
20
80.9131011962891
40
0.0
41
0.0
42
0.0
10
79.271598815918
20
80.4977035522461
40
0.0
41
0.0
42
0.0
10
79.2078018188477
20
80.3115997314453
40
0.0
41
0.0
42
0.0
10
79.2077026367188
20
80.2772979736328
40
0.0
41
0.0
42
0.0
10
79.2652969360352
20
80.004997253418
40
0.0
41
0.0
42
0.0
10
79.2214965820312
20
79.9135971069336
40
0.0
41
0.0
42
0.0
10
79.2021026611328
20
79.8695983886719
40
0.0
41
0.0
42
0.0
10
79.1669998168945
20
79.5121002197266
40
0.0
41
0.0
42
0.0
10
79.0586013793945
20
79.3647994995117
40
0.0
41
0.0
42
0.0
10
79.0345001220703
20
79.3026962280273
40
0.0
41
0.0
42
0.0
10
78.9414978027344
20
79.0099029541016
40
0.0
41
0.0
42
0.0
10
78.9253005981445
20
78.9897003173828
40
0.0
41
0.0
42
0.0
10
78.755500793457
20
78.8298034667969
40
0.0
41
0.0
42
0.0
10
78.7189025878906
20
78.7843017578125
40
0.0
41
0.0
42
0.0
10
78.5896987915039
20
78.5098037719727
40
0.0
41
0.0
42
0.0
10
78.4979019165039
20
78.3655014038086
40
0.0
41
0.0
42
0.0
10
78.4198989868164
20
78.2326965332031
40
0.0
41
0.0
42
0.0
10
78.3880004882812
20
78.1904983520508
40
0.0
41
0.0
42
0.0
10
78.1728973388672
20
78.0056991577148
40
0.0
41
0.0
42
0.0
10
77.9990005493164
20
77.7602996826172
40
0.0
41
0.0
42
0.0
10
77.7839965820312
20
77.5066986083984
40
0.0
41
0.0
42
0.0
10
77.4969024658203
20
77.1416015625
40
0.0
41
0.0
42
0.0
10
77.4045028686523
20
77.0092010498047
40
0.0
41
0.0
42
0.0
10
77.2412033081055
20
76.6865005493164
40
0.0
41
0.0
42
0.0
10
77.013298034668
20
76.6370010375977
40
0.0
41
0.0
42
0.0
10
76.9044036865234
20
76.5121002197266
40
0.0
41
0.0
42
0.0
10
76.904296875
20
76.4822006225586
40
0.0
41
0.0
42
0.0
10
77.000602722168
20
76.0342025756836
40
0.0
41
0.0
42
0.0
10
77.0350036621094
20
76.0344009399414
40
0.0
41
0.0
42
0.0
10
77.4094009399414
20
76.3622970581055
40
0.0
41
0.0
42
0.0
10
77.4815979003906
20
76.3513031005859
40
0.0
41
0.0
42
0.0
10
77.5178985595703
20
76.3511962890625
40
0.0
41
0.0
42
0.0
10
77.7834014892578
20
76.4022979736328
40
0.0
41
0.0
42
0.0
10
78.0161972045898
20
76.4372024536133
40
0.0
41
0.0
42
0.0
10
78.1344985961914
20
76.4621963500977
40
0.0
41
0.0
42
0.0
10
78.288200378418
20
76.5001983642578
40
0.0
41
0.0
42
0.0
10
78.5124969482422
20
76.5663986206055
40
0.0
41
0.0
42
0.0
10
78.6989974975586
20
76.6545028686523
40
0.0
41
0.0
42
0.0
10
79.0133972167969
20
76.6956024169922
40
0.0
41
0.0
42
0.0
10
79.198600769043
20
76.7948989868164
40
0.0
41
0.0
42
0.0
10
79.5182037353516
20
76.8311996459961
40
0.0
41
0.0
42
0.0
10
79.8192977905273
20
76.8482971191406
40
0.0
41
0.0
42
0.0
10
79.8685989379883
20
76.8529968261719
40
0.0
41
0.0
42
0.0
10
80.0134963989258
20
76.9335021972656
40
0.0
41
0.0
42
0.0
10
80.4197998046875
20
76.9769973754883
40
0.0
41
0.0
42
0.0
10
80.508903503418
20
76.9720993041992
40
0.0
41
0.0
42
0.0
10
80.8535995483398
20
76.9589004516602
40
0.0
41
0.0
42
0.0
10
80.9841003417969
20
76.9283981323242
40
0.0
41
0.0
42
0.0
10
81.268798828125
20
76.8793029785156
40
0.0
41
0.0
42
0.0
10
81.4887008666992
20
76.7855987548828
40
0.0
41
0.0
42
0.0
10
81.9152984619141
20
76.5719985961914
40
0.0
41
0.0
42
0.0
10
81.9842987060547
20
76.548698425293
40
0.0
41
0.0
42
0.0
10
82.0295028686523
20
76.5445022583008
40
0.0
41
0.0
42
0.0
10
82.1380004882812
20
76.4941024780273
40
0.0
41
0.0
42
0.0
10
82.1803970336914
20
76.1906967163086
40
0.0
41
0.0
42
0.0
10
82.0912017822266
20
76.004997253418
40
0.0
41
0.0
42
0.0
10
81.9928970336914
20
75.9477005004883
40
0.0
41
0.0
42
0.0
10
81.5531997680664
20
75.5027008056641
40
0.0
41
0.0
42
0.0
10
81.4901962280273
20
75.470703125
40
0.0
41
0.0
42
0.0
10
81.3600006103516
20
75.3904037475586
40
0.0
41
0.0
42
0.0
10
81.2387008666992
20
75.3554992675781
40
0.0
41
0.0
42
0.0
10
81.0122985839844
20
75.214599609375
40
0.0
41
0.0
42
0.0
10
80.6668014526367
20
75.1082000732422
40
0.0
41
0.0
42
0.0
10
80.4919967651367
20
75.0151977539062
40
0.0
41
0.0
42
0.0
10
80.3735961914062
20
75.0317001342773
40
0.0
41
0.0
42
0.0
10
80.2991027832031
20
75.0309982299805
40
0.0
41
0.0
42
0.0
10
80.2285995483398
20
75.0027008056641
40
0.0
41
0.0
42
0.0
10
79.9857025146484
20
74.9226989746094
40
0.0
41
0.0
42
0.0
10
79.7095031738281
20
74.8548965454102
40
0.0
41
0.0
42
0.0
10
79.5190963745117
20
74.8711013793945
40
0.0
41
0.0
42
0.0
10
79.4820022583008
20
74.8710021972656
40
0.0
41
0.0
42
0.0
10
79.2356033325195
20
74.8218002319336
40
0.0
41
0.0
42
0.0
10
78.9819030761719
20
74.8156967163086
40
0.0
41
0.0
42
0.0
10
78.7277984619141
20
74.7735977172852
40
0.0
41
0.0
42
0.0
10
78.4832992553711
20
74.7441024780273
40
0.0
41
0.0
42
0.0
10
78.2981033325195
20
74.7061996459961
40
0.0
41
0.0
42
0.0
10
77.9893035888672
20
74.6757965087891
40
0.0
41
0.0
42
0.0
10
77.6666030883789
20
74.6835021972656
40
0.0
41
0.0
42
0.0
10
77.5005035400391
20
74.6530990600586
40
0.0
41
0.0
42
0.0
10
77.2027969360352
20
74.7114028930664
40
0.0
41
0.0
42
0.0
10
77.0154037475586
20
74.713996887207
40
0.0
41
0.0
42
0.0
10
76.6962966918945
20
74.8524017333984
40
0.0
41
0.0
42
0.0
10
76.5977020263672
20
74.8985977172852
40
0.0
41
0.0
42
0.0
10
76.5064010620117
20
74.953498840332
40
0.0
41
0.0
42
0.0
10
76.4574966430664
20
75.0078964233398
40
0.0
41
0.0
42
0.0
10
76.3603973388672
20
75.1995010375977
40
0.0
41
0.0
42
0.0
10
76.3491973876953
20
75.4887008666992
40
0.0
41
0.0
42
0.0
10
76.3983001708984
20
75.5521011352539
40
0.0
41
0.0
42
0.0
10
76.5053024291992
20
75.722900390625
40
0.0
41
0.0
42
0.0
10
76.6947021484375
20
75.8168029785156
40
0.0
41
0.0
42
0.0
10
76.9334030151367
20
75.965202331543
40
0.0
41
0.0
42
0.0
10
76.9907989501953
20
75.9931030273438
40
0.0
41
0.0
42
0.0
10
76.9907989501953
20
76.0036010742188
40
0.0
41
0.0
42
0.0
10
76.5671997070312
20
76.2984008789062
40
0.0
41
0.0
42
0.0
10
76.5410003662109
20
76.2983016967773
40
0.0
41
0.0
42
0.0
10
76.4916000366211
20
76.2598037719727
40
0.0
41
0.0
42
0.0
10
76.30419921875
20
76.1561965942383
40
0.0
41
0.0
42
0.0
10
76.0031967163086
20
76.0251007080078
40
0.0
41
0.0
42
0.0
10
75.9549026489258
20
76.084602355957
40
0.0
41
0.0
42
0.0
10
75.7426986694336
20
76.1901016235352
40
0.0
41
0.0
42
0.0
10
75.6447982788086
20
76.5160980224609
40
0.0
41
0.0
42
0.0
10
75.6231994628906
20
76.8134994506836
40
0.0
41
0.0
42
0.0
10
75.6374969482422
20
76.9807968139648
40
0.0
41
0.0
42
0.0
10
75.6373977661133
20
77.018798828125
40
0.0
41
0.0
42
0.0
10
75.6070022583008
20
77.3061981201172
40
0.0
41
0.0
42
0.0
10
75.6817016601562
20
77.4843978881836
40
0.0
41
0.0
42
0.0
10
75.6882019042969
20
77.8022003173828
40
0.0
41
0.0
42
0.0
210
0.0
220
0.0
230
1.0
0
LWPOLYLINE
5
2E
330
1C
100
AcDbEntity
67
0
8
0
62
256
6
ByLayer
370
-1
48
1.0
60
0
100
AcDbPolyline
90
27
70
1
38
0.0
39
0.0
10
82.0820999145508
20
65.0009002685547
40
0.0
41
0.0
42
0.0
10
82.1315002441406
20
65.0009002685547
40
0.0
41
0.0
42
0.0
10
82.1967010498047
20
65.0336990356445
40
0.0
41
0.0
42
0.0
10
82.5128021240234
20
65.1476974487305
40
0.0
41
0.0
42
0.0
10
82.6986999511719
20
65.2166976928711
40
0.0
41
0.0
42
0.0
10
83.0143966674805
20
65.2970962524414
40
0.0
41
0.0
42
0.0
10
83.2002029418945
20
65.3510971069336
40
0.0
41
0.0
42
0.0
10
83.5158996582031
20
65.4057998657227
40
0.0
41
0.0
42
0.0
10
83.6757965087891
20
65.4410018920898
40
0.0
41
0.0
42
0.0
10
84.0197982788086
20
65.4397964477539
40
0.0
41
0.0
42
0.0
10
84.1333999633789
20
65.4412002563477
40
0.0
41
0.0
42
0.0
10
84.4952011108398
20
65.1193008422852
40
0.0
41
0.0
42
0.0
10
84.5894012451172
20
65.0009994506836
40
0.0
41
0.0
42
0.0
10
84.6317977905273
20
65.0009994506836
40
0.0
41
0.0
42
0.0
10
84.6316986083984
20
65.0126037597656
40
0.0
41
0.0
42
0.0
10
84.5046005249023
20
65.1723022460938
40
0.0
41
0.0
42
0.0
10
84.1970977783203
20
65.4461975097656
40
0.0
41
0.0
42
0.0
10
83.9891967773438
20
65.4438018798828
40
0.0
41
0.0
42
0.0
10
83.6663970947266
20
65.4449005126953
40
0.0
41
0.0
42
0.0
10
83.6287002563477
20
65.4394989013672
40
0.0
41
0.0
42
0.0
10
83.484001159668
20
65.407600402832
40
0.0
41
0.0
42
0.0
10
83.1296997070312
20
65.3462982177734
40
0.0
41
0.0
42
0.0
10
82.9854965209961
20
65.3043975830078
40
0.0
41
0.0
42
0.0
10
82.6312026977539
20
65.2141036987305
40
0.0
41
0.0
42
0.0
10
82.13330078125
20
65.0329971313477
40
0.0
41
0.0
42
0.0
10
82.0820999145508
20
65.0071029663086
40
0.0
41
0.0
42
0.0
10
82.0820999145508
20
65.0009002685547
40
0.0
41
0.0
42
0.0
210
0.0
220
0.0
230
1.0
0
LWPOLYLINE
5
2F
330
1C
100
AcDbEntity
67
0
8
0
62
256
6
ByLayer
370
-1
48
1.0
60
0
100
AcDbPolyline
90
28
70
1
38
0.0
39
0.0
10
84.5936965942383
20
83.8116989135742
40
0.0
41
0.0
42
0.0
10
84.5924987792969
20
83.4829025268555
40
0.0
41
0.0
42
0.0
10
84.6340026855469
20
83.3396987915039
40
0.0
41
0.0
42
0.0
10
84.6953964233398
20
82.9853973388672
40
0.0
41
0.0
42
0.0
10
84.7490005493164
20
82.8412017822266
40
0.0
41
0.0
42
0.0
10
84.8394012451172
20
82.4860992431641
40
0.0
41
0.0
42
0.0
10
84.9666976928711
20
82.13330078125
40
0.0
41
0.0
42
0.0
10
84.9927978515625
20
82.0820999145508
40
0.0
41
0.0
42
0.0
10
84.9990005493164
20
82.0820999145508
40
0.0
41
0.0
42
0.0
10
84.9989013671875
20
82.1314010620117
40
0.0
41
0.0
42
0.0
10
84.9661026000977
20
82.1966018676758
40
0.0
41
0.0
42
0.0
10
84.8516006469727
20
82.513801574707
40
0.0
41
0.0
42
0.0
10
84.7714004516602
20
82.8286972045898
40
0.0
41
0.0
42
0.0
10
84.7025985717773
20
83.0145034790039
40
0.0
41
0.0
42
0.0
10
84.6477966308594
20
83.3302001953125
40
0.0
41
0.0
42
0.0
10
84.5936965942383
20
83.5165023803711
40
0.0
41
0.0
42
0.0
10
84.5949020385742
20
83.8341979980469
40
0.0
41
0.0
42
0.0
10
84.5920028686523
20
83.8719024658203
40
0.0
41
0.0
42
0.0
10
84.5599975585938
20
84.0175018310547
40
0.0
41
0.0
42
0.0
10
84.5585021972656
20
84.1333999633789
40
0.0
41
0.0
42
0.0
10
84.880500793457
20
84.4953002929688
40
0.0
41
0.0
42
0.0
10
84.9990005493164
20
84.5894012451172
40
0.0
41
0.0
42
0.0
10
84.9990005493164
20
84.6317977905273
40
0.0
41
0.0
42
0.0
10
84.9872970581055
20
84.6316986083984
40
0.0
41
0.0
42
0.0
10
84.8274002075195
20
84.5046997070312
40
0.0
41
0.0
42
0.0
10
84.5534973144531
20
84.1970977783203
40
0.0
41
0.0
42
0.0
10
84.5560989379883
20
83.9823989868164
40
0.0
41
0.0
42
0.0
10
84.5936965942383
20
83.8116989135742
40
0.0
41
0.0
42
0.0
210
0.0
220
0.0
230
1.0
0
VIEWPORT
5
34
330
30
100
AcDbEntity
67
1
8
0
62
256
6
ByLayer
370
-1
48
1.0
60
0
100
AcDbViewport
10
0.0
20
0.0
30
0.0
40
297.0
41
210.0
68
1
69
1
12
50.0
22
100.0
13
0.0
23
0.0
14
10.0
24
10.0
15
10.0
25
10.0
16
0.0
26
0.0
36
1.0
17
0.0
27
0.0
37
0.0
42
50.0
43
0.0
44
0.0
45
250.0
50
0.0
51
0.0
72
1000
90
819232
110
0.0
120
0.0
130
0.0
111
1.0
121
0.0
131
0.0
112
0.0
122
1.0
132
0.0
0
ENDSEC
0
SECTION
2
OBJECTS
0
DICTIONARY
5
3A
330
0
100
AcDbDictionary
280
1
281
1
3
ACAD_GROUP
350
12
3
ACAD_LAYOUT
350
33
3
ACAD_DGNDEFINITIONS
350
F
3
ACAD_DWFDEFINITIONS
350
10
3
ACAD_PDFDEFINITIONS
350
11
3
ACAD_MLINESTYLE
350
B
3
ACAD_IMAGE_DICT
350
E
3
ACAD_IMAGE_VARS
350
21
0
DICTIONARY
5
12
330
3A
100
AcDbDictionary
280
1
281
1
0
DICTIONARY
5
33
330
3A
100
AcDbDictionary
280
1
281
1
3
Model
350
20
3
Layout1
350
35
0
DICTIONARY
5
F
330
3A
100
AcDbDictionary
280
1
281
1
0
DICTIONARY
5
10
330
3A
100
AcDbDictionary
280
1
281
1
0
DICTIONARY
5
11
330
3A
100
AcDbDictionary
280
1
281
1
0
DICTIONARY
5
B
330
3A
100
AcDbDictionary
280
1
281
1
3
Standard
350
1B
0
DICTIONARY
5
E
330
3A
100
AcDbDictionary
280
1
281
1
0
DICTIONARY
5
6
330
5
100
AcDbDictionary
280
1
281
1
3
ACAD_LAYERSTATES
360
3B
0
DICTIONARY
5
3B
330
6
100
AcDbDictionary
280
1
281
1
0
LAYOUT
5
20
330
33
100
AcDbPlotSettings
1

2
none_device
4
ISO_A4_(210.00_x_297.00_MM)
6

40
7.5
41
20.0
42
7.5
43
20.0
44
210.0
45
297.0
46
0.0
47
0.0
48
0.0
49
0.0
140
0.0
141
0.0
142
1.0
143
1.0
70
11952
72
1
73
1
74
1
7

75
0
76
0
77
2
78
300
147
1.0
148
0.0
149
0.0
100
AcDbLayout
1
Model
71
0
10
-20.0
20
-7.5
11
277.0
21
202.5
12
0.0
22
0.0
32
0.0
14
25.7
24
19.5
34
0.0
15
231.3
25
175.5
35
0.0
146
0.0
13
0.0
23
0.0
33
0.0
16
1.0
26
0.0
36
0.0
17
0.0
27
1.0
37
0.0
76
0
330
1C
0
LAYOUT
5
35
330
33
100
AcDbPlotSettings
1

2
none_device
4
ISO_A4_(210.00_x_297.00_MM)
6

40
7.5
41
20.0
42
7.5
43
20.0
44
210.0
45
297.0
46
0.0
47
0.0
48
0.0
49
0.0
140
0.0
141
0.0
142
1.0
143
1.0
70
688
72
1
73
1
74
1
7

75
0
76
0
77
2
78
300
147
1.0
148
0.0
149
0.0
100
AcDbLayout
1
Layout1
71
1
10
-20.0
20
-7.5
11
277.0
21
202.5
12
0.0
22
0.0
32
0.0
14
25.7
24
19.5
34
0.0
15
231.3
25
175.5
35
0.0
146
0.0
13
0.0
23
0.0
33
0.0
16
1.0
26
0.0
36
0.0
17
0.0
27
1.0
37
0.0
76
0
330
30
0
MLINESTYLE
5
1B
330
B
100
AcDbMlineStyle
2
Standard
70
0
3

62
256
51
90.0
52
90.0
71
2
49
0.5
62
256
6
ByLayer
49
-0.5
62
256
6
ByLayer
0
RASTERVARIABLES
5
21
330
E
100
AcDbRasterVariables
90
0
70
1
71
1
72
0
0
ENDSEC
0
EOF
