999
DXF file generated by netDxf https://github.com/haplokuon/netDxf, Copyright(C) Daniel Carvajal, Licensed under MIT
0
SECTION
2
HEADER
9
$ACADVER
1
AC1015
9
$DWGCODEPAGE
3
ANSI_1252
9
$HANDSEED
5
3E
9
$ANGBASE
50
0.0
9
$ANGDIR
70
0
9
$ATTMODE
70
1
9
$AUNITS
70
0
9
$AUPREC
70
0
9
$CECOLOR
62
256
9
$CELTSCALE
40
1.0
9
$CELTYPE
6
ByLayer
9
$CELWEIGHT
370
-1
9
$CLAYER
8
0
9
$CMLJUST
70
0
9
$CMLSCALE
40
20.0
9
$CMLSTYLE
2
Standard
9
$DIMSTYLE
2
Standard
9
$TEXTSIZE
40
2.5
9
$TEXTSTYLE
7
Standard
9
$LUNITS
70
2
9
$LUPREC
70
4
9
$MIRRTEXT
70
0
9
$EXTNAMES
290
1
9
$INSBASE
10
0.0
20
0.0
30
0.0
9
$INSUNITS
70
0
9
$LTSCALE
40
1.0
9
$LWDISPLAY
290
0
9
$PDMODE
70
0
9
$PDSIZE
40
0.0
9
$PLINEGEN
70
0
9
$PSLTSCALE
70
1
9
$SPLINESEGS
70
8
9
$SURFU
70
6
9
$SURFV
70
6
9
$TDCREATE
40
2460823.48367185
9
$TDUCREATE
40
2460823.15033852
9
$TDUPDATE
40
2460823.48367185
9
$TDUUPDATE
40
2460823.15033852
9
$TDINDWG
40
0.0
9
$UCSORG
10
0.0
20
0.0
30
0.0
9
$UCSXDIR
10
1.0
20
0.0
30
0.0
9
$UCSYDIR
10
0.0
20
1.0
30
0.0
9
$DIMADEC
70
0
9
$DIMALT
70
0
9
$DIMALTD
70
2
9
$DIMALTF
40
25.4
9
$DIMALTRND
40
0.0
9
$DIMALTTD
70
2
9
$DIMALTTZ
70
0
9
$DIMALTU
70
2
9
$DIMALTZ
70
0
9
$DIMAPOST
1

9
$DIMATFIT
70
3
9
$DIMAUNIT
70
0
9
$DIMASZ
40
0.18
9
$DIMAZIN
70
0
9
$DIMSAH
70
0
9
$DIMBLK
1

9
$DIMLDRBLK
1

9
$DIMCEN
40
0.09
9
$DIMCLRD
70
0
9
$DIMCLRE
70
0
9
$DIMCLRT
70
0
9
$DIMDEC
70
4
9
$DIMDLE
40
0.0
9
$DIMDLI
40
0.38
9
$DIMDSEP
70
46
9
$DIMEXE
40
0.18
9
$DIMEXO
40
0.0625
9
$DIMFXLON
70
0
9
$DIMFXL
40
1.0
9
$DIMGAP
40
0.09
9
$DIMJUST
70
0
9
$DIMLFAC
40
1.0
9
$DIMLUNIT
70
2
9
$DIMLWD
70
-2
9
$DIMLWE
70
-2
9
$DIMPOST
1

9
$DIMRND
40
0.0
9
$DIMSCALE
40
1.0
9
$DIMSD1
70
0
9
$DIMSD2
70
0
9
$DIMSE1
70
0
9
$DIMSE2
70
0
9
$DIMSOXD
70
0
9
$DIMTAD
70
0
9
$DIMTDEC
70
4
9
$DIMTFAC
40
1.0
9
$DIMTIH
70
0
9
$DIMTIX
70
0
9
$DIMTM
40
0.0
9
$DIMTMOVE
70
0
9
$DIMTOFL
70
0
9
$DIMTOH
70
0
9
$DIMTOL
70
0
9
$DIMLIM
70
0
9
$DIMTOLJ
70
1
9
$DIMTP
40
0.0
9
$DIMTXT
40
0.18
9
$DIMTXTDIRECTION
70
0
9
$DIMTZIN
70
0
9
$DIMZIN
70
0
9
$DIMFRAC
70
0
9
$DIMLTYPE
6
ByBlock
9
$DIMLTEX1
6
ByBlock
9
$DIMLTEX2
6
ByBlock
0
ENDSEC
0
SECTION
2
CLASSES
0
CLASS
1
RASTERVARIABLES
2
AcDbRasterVariables
3
ISM
90
0
280
0
281
0
0
ENDSEC
0
SECTION
2
TABLES
0
TABLE
2
APPID
5
4
330
0
100
AcDbSymbolTable
70
5
0
APPID
5
19
330
4
100
AcDbSymbolTableRecord
100
AcDbRegAppTableRecord
2
ACAD
70
0
0
APPID
5
38
330
4
100
AcDbSymbolTableRecord
100
AcDbRegAppTableRecord
2
AcCmTransparency
70
0
0
APPID
5
39
330
4
100
AcDbSymbolTableRecord
100
AcDbRegAppTableRecord
2
AcAecLayerStandard
70
0
0
APPID
5
3A
330
4
100
AcDbSymbolTableRecord
100
AcDbRegAppTableRecord
2
GradientColor1ACI
70
0
0
APPID
5
3B
330
4
100
AcDbSymbolTableRecord
100
AcDbRegAppTableRecord
2
GradientColor2ACI
70
0
0
ENDTAB
0
TABLE
2
VPORT
5
1
330
0
100
AcDbSymbolTable
70
1
0
VPORT
5
2
330
1
100
AcDbSymbolTableRecord
100
AcDbViewportTableRecord
2
*Active
70
0
10
0.0
20
0.0
11
1.0
21
1.0
12
0.0
22
0.0
13
0.0
23
0.0
14
0.5
24
0.5
15
10.0
25
10.0
16
0.0
26
0.0
36
1.0
17
0.0
27
0.0
37
0.0
40
10.0
41
1.0
75
0
76
1
0
ENDTAB
0
TABLE
2
LTYPE
5
7
330
0
100
AcDbSymbolTable
70
3
0
LTYPE
5
15
330
7
100
AcDbSymbolTableRecord
100
AcDbLinetypeTableRecord
2
Continuous
70
0
3
Solid line
72
65
73
0
40
0.0
0
LTYPE
5
16
330
7
100
AcDbSymbolTableRecord
100
AcDbLinetypeTableRecord
2
ByLayer
70
0
3

72
65
73
0
40
0.0
0
LTYPE
5
17
330
7
100
AcDbSymbolTableRecord
100
AcDbLinetypeTableRecord
2
ByBlock
70
0
3

72
65
73
0
40
0.0
0
ENDTAB
0
TABLE
2
LAYER
5
5
102
{ACAD_XDICTIONARY
360
6
102
}
330
0
100
AcDbSymbolTable
70
1
0
LAYER
5
14
330
5
100
AcDbSymbolTableRecord
100
AcDbLayerTableRecord
2
0
70
0
62
7
6
Continuous
290
1
370
-3
390
0
0
ENDTAB
0
TABLE
2
STYLE
5
8
330
0
100
AcDbSymbolTable
70
1
0
STYLE
5
18
330
8
100
AcDbSymbolTableRecord
100
AcDbTextStyleTableRecord
2
Standard
3
simplex.shx
70
0
71
0
40
0.0
41
1.0
42
0.0
50
0.0
0
ENDTAB
0
TABLE
2
DIMSTYLE
5
A
330
0
100
AcDbSymbolTable
70
1
100
AcDbDimStyleTable
0
DIMSTYLE
105
1A
330
A
100
AcDbSymbolTableRecord
100
AcDbDimStyleTableRecord
2
Standard
3

4

40
1.0
41
0.18
42
0.0625
43
0.38
44
0.18
45
0.0
46
0.0
47
0.0
48
0.0
49
1.0
70
0
71
0
72
0
73
0
74
0
75
0
76
0
77
0
78
0
79
0
140
0.18
141
0.09
143
25.4
144
1.0
146
1.0
147
0.09
148
0.0
170
0
171
2
172
0
174
0
175
0
176
0
177
0
178
0
179
0
271
4
272
4
273
2
274
2
275
0
276
0
277
2
278
46
279
0
280
0
281
0
282
0
283
1
284
0
285
0
286
0
289
3
290
0
294
0
340
18
173
0
345
17
346
17
347
17
371
-2
372
-2
0
ENDTAB
0
TABLE
2
VIEW
5
3
330
0
100
AcDbSymbolTable
70
0
0
ENDTAB
0
TABLE
2
UCS
5
C
330
0
100
AcDbSymbolTable
70
0
0
ENDTAB
0
TABLE
2
BLOCK_RECORD
5
D
330
0
100
AcDbSymbolTable
70
2
0
BLOCK_RECORD
5
1C
330
D
100
AcDbSymbolTableRecord
100
AcDbBlockTableRecord
2
*Model_Space
340
20
0
BLOCK_RECORD
5
32
330
D
100
AcDbSymbolTableRecord
100
AcDbBlockTableRecord
2
*Paper_Space
340
37
0
ENDTAB
0
ENDSEC
0
SECTION
2
BLOCKS
0
BLOCK
5
1E
330
1C
100
AcDbEntity
67
0
8
0
100
AcDbBlockBegin
2
*Model_Space
70
0
10
0.0
20
0.0
30
0.0
3
*Model_Space
4

0
ENDBLK
5
1D
330
1C
100
AcDbEntity
8
0
100
AcDbBlockEnd
0
BLOCK
5
34
330
32
100
AcDbEntity
67
1
8
0
100
AcDbBlockBegin
2
*Paper_Space
70
0
10
0.0
20
0.0
30
0.0
3
*Paper_Space
4

0
ENDBLK
5
33
330
32
100
AcDbEntity
8
0
100
AcDbBlockEnd
0
ENDSEC
0
SECTION
2
ENTITIES
0
LWPOLYLINE
5
22
330
1C
100
AcDbEntity
67
0
8
0
62
256
6
ByLayer
370
-1
48
1.0
60
0
100
AcDbPolyline
90
46
70
1
38
0.0
39
0.0
10
65.2365036010742
20
67.3084030151367
40
0.0
41
0.0
42
0.0
10
65.2731018066406
20
67.3082962036133
40
0.0
41
0.0
42
0.0
10
65.5130004882812
20
67.3341979980469
40
0.0
41
0.0
42
0.0
10
65.7233963012695
20
67.4635009765625
40
0.0
41
0.0
42
0.0
10
65.7362976074219
20
67.4869003295898
40
0.0
41
0.0
42
0.0
10
65.7795028686523
20
67.7658996582031
40
0.0
41
0.0
42
0.0
10
65.8787994384766
20
67.9854965209961
40
0.0
41
0.0
42
0.0
10
65.8934020996094
20
68.1304016113281
40
0.0
41
0.0
42
0.0
10
65.8933029174805
20
68.1689987182617
40
0.0
41
0.0
42
0.0
10
65.8812026977539
20
68.5193023681641
40
0.0
41
0.0
42
0.0
10
65.877197265625
20
68.6856994628906
40
0.0
41
0.0
42
0.0
10
65.8524017333984
20
69.0182037353516
40
0.0
41
0.0
42
0.0
10
65.8054962158203
20
69.5175018310547
40
0.0
41
0.0
42
0.0
10
65.7648010253906
20
69.8115997314453
40
0.0
41
0.0
42
0.0
10
65.7266006469727
20
70.0149993896484
40
0.0
41
0.0
42
0.0
10
65.6408996582031
20
70.3054962158203
40
0.0
41
0.0
42
0.0
10
65.5494003295898
20
70.5093002319336
40
0.0
41
0.0
42
0.0
10
65.5027008056641
20
70.5728988647461
40
0.0
41
0.0
42
0.0
10
65.4788970947266
20
70.6083984375
40
0.0
41
0.0
42
0.0
10
65.2479019165039
20
71.0075988769531
40
0.0
41
0.0
42
0.0
10
65.2310028076172
20
71.0268020629883
40
0.0
41
0.0
42
0.0
10
65.0112991333008
20
71.2431030273438
40
0.0
41
0.0
42
0.0
10
65.0009994506836
20
71.2431030273438
40
0.0
41
0.0
42
0.0
10
65.0009002685547
20
71.2068023681641
40
0.0
41
0.0
42
0.0
10
65.1909027099609
20
71.0198974609375
40
0.0
41
0.0
42
0.0
10
65.2149963378906
20
70.9922027587891
40
0.0
41
0.0
42
0.0
10
65.4925994873047
20
70.5127029418945
40
0.0
41
0.0
42
0.0
10
65.5084991455078
20
70.4904022216797
40
0.0
41
0.0
42
0.0
10
65.6209030151367
20
70.2397003173828
40
0.0
41
0.0
42
0.0
10
65.6961975097656
20
69.9849014282227
40
0.0
41
0.0
42
0.0
10
65.7424011230469
20
69.7382965087891
40
0.0
41
0.0
42
0.0
10
65.7779006958008
20
69.4823989868164
40
0.0
41
0.0
42
0.0
10
65.8246994018555
20
68.9816970825195
40
0.0
41
0.0
42
0.0
10
65.8461990356445
20
68.6929016113281
40
0.0
41
0.0
42
0.0
10
65.8511962890625
20
68.480598449707
40
0.0
41
0.0
42
0.0
10
65.8607025146484
20
68.2059020996094
40
0.0
41
0.0
42
0.0
10
65.8415985107422
20
68.0143966674805
40
0.0
41
0.0
42
0.0
10
65.7100982666016
20
67.7238006591797
40
0.0
41
0.0
42
0.0
10
65.6775970458984
20
67.5130004882812
40
0.0
41
0.0
42
0.0
10
65.6598968505859
20
67.4813003540039
40
0.0
41
0.0
42
0.0
10
65.4869003295898
20
67.3750991821289
40
0.0
41
0.0
42
0.0
10
65.2119979858398
20
67.3452987670898
40
0.0
41
0.0
42
0.0
10
65.0177001953125
20
67.3883972167969
40
0.0
41
0.0
42
0.0
10
65.0009994506836
20
67.3883972167969
40
0.0
41
0.0
42
0.0
10
65.0009002685547
20
67.3604965209961
40
0.0
41
0.0
42
0.0
10
65.2365036010742
20
67.3084030151367
40
0.0
41
0.0
42
0.0
210
0.0
220
0.0
230
1.0
0
LWPOLYLINE
5
23
330
1C
100
AcDbEntity
67
0
8
0
62
256
6
ByLayer
370
-1
48
1.0
60
0
100
AcDbPolyline
90
32
70
1
38
0.0
39
0.0
10
65.0070037841797
20
78.2216033935547
40
0.0
41
0.0
42
0.0
10
65.1425018310547
20
78.4885025024414
40
0.0
41
0.0
42
0.0
10
65.2211990356445
20
78.6901016235352
40
0.0
41
0.0
42
0.0
10
65.2573013305664
20
78.9829025268555
40
0.0
41
0.0
42
0.0
10
65.2890014648438
20
79.1865997314453
40
0.0
41
0.0
42
0.0
10
65.2897033691406
20
79.4804000854492
40
0.0
41
0.0
42
0.0
10
65.2987976074219
20
79.6854019165039
40
0.0
41
0.0
42
0.0
10
65.298698425293
20
79.7245025634766
40
0.0
41
0.0
42
0.0
10
65.2870025634766
20
80.0193023681641
40
0.0
41
0.0
42
0.0
10
65.2824020385742
20
80.2240982055664
40
0.0
41
0.0
42
0.0
10
65.2641983032227
20
80.5182037353516
40
0.0
41
0.0
42
0.0
10
65.2116012573242
20
81.0158996582031
40
0.0
41
0.0
42
0.0
10
65.0736999511719
20
81.4893035888672
40
0.0
41
0.0
42
0.0
10
65.0645980834961
20
81.5090026855469
40
0.0
41
0.0
42
0.0
10
65.0095977783203
20
81.5809020996094
40
0.0
41
0.0
42
0.0
10
65.0009994506836
20
81.5809020996094
40
0.0
41
0.0
42
0.0
10
65.0009002685547
20
81.5530014038086
40
0.0
41
0.0
42
0.0
10
65.0484008789062
20
81.4908981323242
40
0.0
41
0.0
42
0.0
10
65.0633010864258
20
81.4597015380859
40
0.0
41
0.0
42
0.0
10
65.2017974853516
20
80.984001159668
40
0.0
41
0.0
42
0.0
10
65.2546997070312
20
80.4816970825195
40
0.0
41
0.0
42
0.0
10
65.2705001831055
20
80.2257995605469
40
0.0
41
0.0
42
0.0
10
65.2759017944336
20
79.980598449707
40
0.0
41
0.0
42
0.0
10
65.2853012084961
20
79.7457962036133
40
0.0
41
0.0
42
0.0
10
65.2752990722656
20
79.5195007324219
40
0.0
41
0.0
42
0.0
10
65.2746963500977
20
79.263298034668
40
0.0
41
0.0
42
0.0
10
65.2365036010742
20
79.0170974731445
40
0.0
41
0.0
42
0.0
10
65.2046966552734
20
78.7598037719727
40
0.0
41
0.0
42
0.0
10
65.1079025268555
20
78.5113983154297
40
0.0
41
0.0
42
0.0
10
65.0009994506836
20
78.3006973266602
40
0.0
41
0.0
42
0.0
10
65.0009994506836
20
78.2216033935547
40
0.0
41
0.0
42
0.0
10
65.0070037841797
20
78.2216033935547
40
0.0
41
0.0
42
0.0
210
0.0
220
0.0
230
1.0
0
LWPOLYLINE
5
24
330
1C
100
AcDbEntity
67
0
8
0
62
256
6
ByLayer
370
-1
48
1.0
60
0
100
AcDbPolyline
90
612
70
1
38
0.0
39
0.0
10
66.7836990356445
20
76.4880981445312
40
0.0
41
0.0
42
0.0
10
66.9231033325195
20
76.1941986083984
40
0.0
41
0.0
42
0.0
10
66.9979019165039
20
76.0467987060547
40
0.0
41
0.0
42
0.0
10
67.1250991821289
20
75.8674011230469
40
0.0
41
0.0
42
0.0
10
67.2017974853516
20
75.7696990966797
40
0.0
41
0.0
42
0.0
10
67.3190994262695
20
75.5995025634766
40
0.0
41
0.0
42
0.0
10
67.4005966186523
20
75.4916000366211
40
0.0
41
0.0
42
0.0
10
67.4945983886719
20
75.3323974609375
40
0.0
41
0.0
42
0.0
10
67.7212982177734
20
75.2298965454102
40
0.0
41
0.0
42
0.0
10
67.9860000610352
20
75.0643005371094
40
0.0
41
0.0
42
0.0
10
68.0149993896484
20
75.0642013549805
40
0.0
41
0.0
42
0.0
10
68.5082015991211
20
75.3115997314453
40
0.0
41
0.0
42
0.0
10
68.7219009399414
20
75.4970016479492
40
0.0
41
0.0
42
0.0
10
69.0096969604492
20
75.6703033447266
40
0.0
41
0.0
42
0.0
10
69.370002746582
20
75.8583984375
40
0.0
41
0.0
42
0.0
10
69.5121994018555
20
75.9354019165039
40
0.0
41
0.0
42
0.0
10
69.6156997680664
20
75.9627990722656
40
0.0
41
0.0
42
0.0
10
69.7883987426758
20
76.0002975463867
40
0.0
41
0.0
42
0.0
10
69.9994964599609
20
76.0597991943359
40
0.0
41
0.0
42
0.0
10
70.1962966918945
20
76.0001983642578
40
0.0
41
0.0
42
0.0
10
70.4891967773438
20
75.940803527832
40
0.0
41
0.0
42
0.0
10
70.6969985961914
20
75.7699966430664
40
0.0
41
0.0
42
0.0
10
70.9937973022461
20
75.5924987792969
40
0.0
41
0.0
42
0.0
10
71.1995010375977
20
75.342399597168
40
0.0
41
0.0
42
0.0
10
71.4907989501953
20
75.1255035400391
40
0.0
41
0.0
42
0.0
10
71.5690994262695
20
75.0879974365234
40
0.0
41
0.0
42
0.0
10
71.6587982177734
20
74.9931030273438
40
0.0
41
0.0
42
0.0
10
71.6099014282227
20
74.7201995849609
40
0.0
41
0.0
42
0.0
10
71.5498962402344
20
74.5067977905273
40
0.0
41
0.0
42
0.0
10
71.5220031738281
20
74.4882965087891
40
0.0
41
0.0
42
0.0
10
71.495002746582
20
74.4570999145508
40
0.0
41
0.0
42
0.0
10
71.2001037597656
20
74.1923980712891
40
0.0
41
0.0
42
0.0
10
71.0579986572266
20
74.0216979980469
40
0.0
41
0.0
42
0.0
10
71.0488967895508
20
74.0086975097656
40
0.0
41
0.0
42
0.0
10
70.996696472168
20
73.9172973632812
40
0.0
41
0.0
42
0.0
10
70.9080963134766
20
73.8330993652344
40
0.0
41
0.0
42
0.0
10
70.8701019287109
20
73.7984008789062
40
0.0
41
0.0
42
0.0
10
70.586799621582
20
73.6044998168945
40
0.0
41
0.0
42
0.0
10
70.4878005981445
20
73.5382995605469
40
0.0
41
0.0
42
0.0
10
70.3815994262695
20
73.5213012695312
40
0.0
41
0.0
42
0.0
10
70.2662963867188
20
73.499397277832
40
0.0
41
0.0
42
0.0
10
70.0022964477539
20
73.4303970336914
40
0.0
41
0.0
42
0.0
10
69.9205017089844
20
73.4602966308594
40
0.0
41
0.0
42
0.0
10
69.753303527832
20
73.499397277832
40
0.0
41
0.0
42
0.0
10
69.5133972167969
20
73.5510025024414
40
0.0
41
0.0
42
0.0
10
69.3060989379883
20
73.643798828125
40
0.0
41
0.0
42
0.0
10
68.7558975219727
20
73.9052963256836
40
0.0
41
0.0
42
0.0
10
68.5637969970703
20
74.002799987793
40
0.0
41
0.0
42
0.0
10
68.5072021484375
20
74.063102722168
40
0.0
41
0.0
42
0.0
10
68.3907012939453
20
74.1211013793945
40
0.0
41
0.0
42
0.0
10
68.0152969360352
20
74.2941970825195
40
0.0
41
0.0
42
0.0
10
67.9905014038086
20
74.2941970825195
40
0.0
41
0.0
42
0.0
10
67.77490234375
20
74.0042037963867
40
0.0
41
0.0
42
0.0
10
67.4953002929688
20
73.8307037353516
40
0.0
41
0.0
42
0.0
10
67.4795989990234
20
73.8051986694336
40
0.0
41
0.0
42
0.0
10
67.2162017822266
20
73.2154006958008
40
0.0
41
0.0
42
0.0
10
67.0997009277344
20
73.0112991333008
40
0.0
41
0.0
42
0.0
10
67.0744018554688
20
72.9373016357422
40
0.0
41
0.0
42
0.0
10
66.999397277832
20
72.7323989868164
40
0.0
41
0.0
42
0.0
10
66.9259033203125
20
72.5142974853516
40
0.0
41
0.0
42
0.0
10
66.8610000610352
20
72.2211990356445
40
0.0
41
0.0
42
0.0
10
66.831298828125
20
72.0178985595703
40
0.0
41
0.0
42
0.0
10
66.8163986206055
20
71.7244033813477
40
0.0
41
0.0
42
0.0
10
66.8162002563477
20
71.6864013671875
40
0.0
41
0.0
42
0.0
10
66.8443984985352
20
71.4843978881836
40
0.0
41
0.0
42
0.0
10
66.9319000244141
20
71.1914978027344
40
0.0
41
0.0
42
0.0
10
66.9974975585938
20
71.1071014404297
40
0.0
41
0.0
42
0.0
10
67.0623016357422
20
70.9908981323242
40
0.0
41
0.0
42
0.0
10
67.1083984375
20
70.9228973388672
40
0.0
41
0.0
42
0.0
10
67.1990966796875
20
70.8458023071289
40
0.0
41
0.0
42
0.0
10
67.423698425293
20
70.6232986450195
40
0.0
41
0.0
42
0.0
10
67.4906997680664
20
70.5851974487305
40
0.0
41
0.0
42
0.0
10
67.6281967163086
20
70.497802734375
40
0.0
41
0.0
42
0.0
10
67.6950988769531
20
70.4579010009766
40
0.0
41
0.0
42
0.0
10
67.9881973266602
20
70.3074035644531
40
0.0
41
0.0
42
0.0
10
68.1921997070312
20
70.236198425293
40
0.0
41
0.0
42
0.0
10
68.4852981567383
20
70.1234970092773
40
0.0
41
0.0
42
0.0
10
68.6782989501953
20
70.0952987670898
40
0.0
41
0.0
42
0.0
10
68.9701995849609
20
70.0000991821289
40
0.0
41
0.0
42
0.0
10
68.9975967407227
20
69.9932022094727
40
0.0
41
0.0
42
0.0
10
69.4837036132812
20
69.9532012939453
40
0.0
41
0.0
42
0.0
10
69.5731964111328
20
69.9278030395508
40
0.0
41
0.0
42
0.0
10
69.6064987182617
20
69.9276962280273
40
0.0
41
0.0
42
0.0
10
69.7960968017578
20
69.9988021850586
40
0.0
41
0.0
42
0.0
10
70.0065002441406
20
70.1376037597656
40
0.0
41
0.0
42
0.0
10
70.1760025024414
20
70.3113021850586
40
0.0
41
0.0
42
0.0
10
70.1759033203125
20
70.3403015136719
40
0.0
41
0.0
42
0.0
10
70.1345977783203
20
70.5130004882812
40
0.0
41
0.0
42
0.0
10
70.138298034668
20
70.6304016113281
40
0.0
41
0.0
42
0.0
10
70.2261962890625
20
70.9853973388672
40
0.0
41
0.0
42
0.0
10
70.2781982421875
20
71.1675033569336
40
0.0
41
0.0
42
0.0
10
70.3000030517578
20
71.2537002563477
40
0.0
41
0.0
42
0.0
10
70.3514022827148
20
71.4853973388672
40
0.0
41
0.0
42
0.0
10
70.4001007080078
20
71.6399002075195
40
0.0
41
0.0
42
0.0
10
70.5010986328125
20
71.8582000732422
40
0.0
41
0.0
42
0.0
10
70.570198059082
20
71.992301940918
40
0.0
41
0.0
42
0.0
10
70.5966033935547
20
72.0196990966797
40
0.0
41
0.0
42
0.0
10
71.0077972412109
20
72.4074020385742
40
0.0
41
0.0
42
0.0
10
71.136100769043
20
72.4719009399414
40
0.0
41
0.0
42
0.0
10
71.2577972412109
20
72.5005035400391
40
0.0
41
0.0
42
0.0
10
71.5158004760742
20
72.5495986938477
40
0.0
41
0.0
42
0.0
10
71.8034973144531
20
72.6107025146484
40
0.0
41
0.0
42
0.0
10
71.9806976318359
20
72.5980987548828
40
0.0
41
0.0
42
0.0
10
72.0186996459961
20
72.5979995727539
40
0.0
41
0.0
42
0.0
10
72.2979965209961
20
72.6314010620117
40
0.0
41
0.0
42
0.0
10
72.4839019775391
20
72.6156997680664
40
0.0
41
0.0
42
0.0
10
72.6330032348633
20
72.5706024169922
40
0.0
41
0.0
42
0.0
10
72.7647018432617
20
72.4935989379883
40
0.0
41
0.0
42
0.0
10
72.8416976928711
20
72.1903991699219
40
0.0
41
0.0
42
0.0
10
72.9004974365234
20
71.9876022338867
40
0.0
41
0.0
42
0.0
10
72.8896026611328
20
71.7245025634766
40
0.0
41
0.0
42
0.0
10
72.8895034790039
20
71.6862030029297
40
0.0
41
0.0
42
0.0
10
72.9120025634766
20
71.5017013549805
40
0.0
41
0.0
42
0.0
10
72.8676986694336
20
71.228401184082
40
0.0
41
0.0
42
0.0
10
72.8675994873047
20
71.1914978027344
40
0.0
41
0.0
42
0.0
10
72.8907012939453
20
71.0083999633789
40
0.0
41
0.0
42
0.0
10
72.7661972045898
20
70.7942962646484
40
0.0
41
0.0
42
0.0
10
72.7500991821289
20
70.7633972167969
40
0.0
41
0.0
42
0.0
10
72.713996887207
20
70.5093002319336
40
0.0
41
0.0
42
0.0
10
72.4922027587891
20
70.3145980834961
40
0.0
41
0.0
42
0.0
10
72.0565032958984
20
70.0675964355469
40
0.0
41
0.0
42
0.0
10
71.9894027709961
20
70.0234985351562
40
0.0
41
0.0
42
0.0
10
71.4869995117188
20
69.8470993041992
40
0.0
41
0.0
42
0.0
10
71.3776016235352
20
69.8072967529297
40
0.0
41
0.0
42
0.0
10
71.2505035400391
20
69.7944030761719
40
0.0
41
0.0
42
0.0
10
71.121696472168
20
69.7291030883789
40
0.0
41
0.0
42
0.0
10
71.0034027099609
20
69.7108993530273
40
0.0
41
0.0
42
0.0
10
70.9281005859375
20
69.7286987304688
40
0.0
41
0.0
42
0.0
10
70.7547988891602
20
69.7620010375977
40
0.0
41
0.0
42
0.0
10
70.7302017211914
20
69.7621002197266
40
0.0
41
0.0
42
0.0
10
70.6165008544922
20
69.5150985717773
40
0.0
41
0.0
42
0.0
10
70.606201171875
20
69.1185989379883
40
0.0
41
0.0
42
0.0
10
70.5343017578125
20
69.0134963989258
40
0.0
41
0.0
42
0.0
10
70.5342025756836
20
68.9835968017578
40
0.0
41
0.0
42
0.0
10
70.638801574707
20
68.6885986328125
40
0.0
41
0.0
42
0.0
10
70.6407012939453
20
68.4841003417969
40
0.0
41
0.0
42
0.0
10
70.7598037719727
20
68.1919021606445
40
0.0
41
0.0
42
0.0
10
70.8207015991211
20
67.9876022338867
40
0.0
41
0.0
42
0.0
10
70.861701965332
20
67.9035034179688
40
0.0
41
0.0
42
0.0
10
70.9983978271484
20
67.6331024169922
40
0.0
41
0.0
42
0.0
10
71.0807037353516
20
67.4912033081055
40
0.0
41
0.0
42
0.0
10
71.2835998535156
20
67.1975021362305
40
0.0
41
0.0
42
0.0
10
71.4182968139648
20
67.0307998657227
40
0.0
41
0.0
42
0.0
10
71.4531021118164
20
66.9932022094727
40
0.0
41
0.0
42
0.0
10
71.4956970214844
20
66.9329986572266
40
0.0
41
0.0
42
0.0
10
71.5457992553711
20
66.8872985839844
40
0.0
41
0.0
42
0.0
10
71.6961975097656
20
66.7949981689453
40
0.0
41
0.0
42
0.0
10
71.9775009155273
20
66.6100997924805
40
0.0
41
0.0
42
0.0
10
71.9857025146484
20
66.6064987182617
40
0.0
41
0.0
42
0.0
10
72.4813995361328
20
66.5390014648438
40
0.0
41
0.0
42
0.0
10
72.5183029174805
20
66.5389022827148
40
0.0
41
0.0
42
0.0
10
72.6097030639648
20
66.5537033081055
40
0.0
41
0.0
42
0.0
10
73.0151977539062
20
66.6104965209961
40
0.0
41
0.0
42
0.0
10
73.3079986572266
20
66.7065963745117
40
0.0
41
0.0
42
0.0
10
73.5117034912109
20
66.7836990356445
40
0.0
41
0.0
42
0.0
10
73.8057022094727
20
66.9231033325195
40
0.0
41
0.0
42
0.0
10
73.9531021118164
20
66.9980010986328
40
0.0
41
0.0
42
0.0
10
74.1324005126953
20
67.1251983642578
40
0.0
41
0.0
42
0.0
10
74.2301025390625
20
67.2017974853516
40
0.0
41
0.0
42
0.0
10
74.4002990722656
20
67.3191986083984
40
0.0
41
0.0
42
0.0
10
74.50830078125
20
67.4007034301758
40
0.0
41
0.0
42
0.0
10
74.6682968139648
20
67.4952011108398
40
0.0
41
0.0
42
0.0
10
74.8731002807617
20
67.8615036010742
40
0.0
41
0.0
42
0.0
10
74.9356002807617
20
67.9850006103516
40
0.0
41
0.0
42
0.0
10
74.9355010986328
20
68.0149002075195
40
0.0
41
0.0
42
0.0
10
74.7898025512695
20
68.2993011474609
40
0.0
41
0.0
42
0.0
10
74.6880035400391
20
68.5082015991211
40
0.0
41
0.0
42
0.0
10
74.5028991699219
20
68.7218017578125
40
0.0
41
0.0
42
0.0
10
74.3293991088867
20
69.0095977783203
40
0.0
41
0.0
42
0.0
10
74.1412963867188
20
69.370002746582
40
0.0
41
0.0
42
0.0
10
74.0643005371094
20
69.5121002197266
40
0.0
41
0.0
42
0.0
10
74.0369033813477
20
69.6156997680664
40
0.0
41
0.0
42
0.0
10
73.9994964599609
20
69.7882995605469
40
0.0
41
0.0
42
0.0
10
73.9400024414062
20
69.9994964599609
40
0.0
41
0.0
42
0.0
10
73.9996032714844
20
70.1962966918945
40
0.0
41
0.0
42
0.0
10
74.0589981079102
20
70.4893035888672
40
0.0
41
0.0
42
0.0
10
74.2296981811523
20
70.6970977783203
40
0.0
41
0.0
42
0.0
10
74.4073028564453
20
70.993896484375
40
0.0
41
0.0
42
0.0
10
74.6573028564453
20
71.1996002197266
40
0.0
41
0.0
42
0.0
10
74.8742980957031
20
71.4908981323242
40
0.0
41
0.0
42
0.0
10
74.9117965698242
20
71.5690994262695
40
0.0
41
0.0
42
0.0
10
75.0068969726562
20
71.6587982177734
40
0.0
41
0.0
42
0.0
10
75.2797012329102
20
71.6099014282227
40
0.0
41
0.0
42
0.0
10
75.4931030273438
20
71.5497970581055
40
0.0
41
0.0
42
0.0
10
75.5114974975586
20
71.5220031738281
40
0.0
41
0.0
42
0.0
10
75.5428009033203
20
71.4949035644531
40
0.0
41
0.0
42
0.0
10
75.8072967529297
20
71.2001037597656
40
0.0
41
0.0
42
0.0
10
75.9779968261719
20
71.0578994750977
40
0.0
41
0.0
42
0.0
10
75.991096496582
20
71.0488967895508
40
0.0
41
0.0
42
0.0
10
76.0823974609375
20
70.9964981079102
40
0.0
41
0.0
42
0.0
10
76.2014007568359
20
70.8701019287109
40
0.0
41
0.0
42
0.0
10
76.3858032226562
20
70.5936965942383
40
0.0
41
0.0
42
0.0
10
76.4614028930664
20
70.4880981445312
40
0.0
41
0.0
42
0.0
10
76.478401184082
20
70.3815994262695
40
0.0
41
0.0
42
0.0
10
76.5003967285156
20
70.2662963867188
40
0.0
41
0.0
42
0.0
10
76.5692977905273
20
70.0022964477539
40
0.0
41
0.0
42
0.0
10
76.5393981933594
20
69.9205017089844
40
0.0
41
0.0
42
0.0
10
76.5003967285156
20
69.7534027099609
40
0.0
41
0.0
42
0.0
10
76.4486999511719
20
69.5133972167969
40
0.0
41
0.0
42
0.0
10
76.3559036254883
20
69.3061981201172
40
0.0
41
0.0
42
0.0
10
76.0943984985352
20
68.7559967041016
40
0.0
41
0.0
42
0.0
10
75.9970016479492
20
68.5637969970703
40
0.0
41
0.0
42
0.0
10
75.9365997314453
20
68.5072021484375
40
0.0
41
0.0
42
0.0
10
75.8786010742188
20
68.3907012939453
40
0.0
41
0.0
42
0.0
10
75.7057037353516
20
68.0152969360352
40
0.0
41
0.0
42
0.0
10
75.7055969238281
20
67.9905014038086
40
0.0
41
0.0
42
0.0
10
75.9955978393555
20
67.77490234375
40
0.0
41
0.0
42
0.0
10
76.1689987182617
20
67.4953002929688
40
0.0
41
0.0
42
0.0
10
76.1947021484375
20
67.4795989990234
40
0.0
41
0.0
42
0.0
10
76.7844009399414
20
67.2162017822266
40
0.0
41
0.0
42
0.0
10
76.9886016845703
20
67.0997009277344
40
0.0
41
0.0
42
0.0
10
77.0625
20
67.0743026733398
40
0.0
41
0.0
42
0.0
10
77.2674026489258
20
66.999397277832
40
0.0
41
0.0
42
0.0
10
77.4856033325195
20
66.9259033203125
40
0.0
41
0.0
42
0.0
10
77.7787017822266
20
66.8609008789062
40
0.0
41
0.0
42
0.0
10
77.9820022583008
20
66.831298828125
40
0.0
41
0.0
42
0.0
10
78.2754974365234
20
66.8163986206055
40
0.0
41
0.0
42
0.0
10
78.3134994506836
20
66.8162994384766
40
0.0
41
0.0
42
0.0
10
78.5155029296875
20
66.8443984985352
40
0.0
41
0.0
42
0.0
10
78.8084030151367
20
66.931999206543
40
0.0
41
0.0
42
0.0
10
78.8926010131836
20
66.9974975585938
40
0.0
41
0.0
42
0.0
10
79.0090026855469
20
67.0624008178711
40
0.0
41
0.0
42
0.0
10
79.0767974853516
20
67.1083984375
40
0.0
41
0.0
42
0.0
10
79.1539993286133
20
67.1992034912109
40
0.0
41
0.0
42
0.0
10
79.3765029907227
20
67.423698425293
40
0.0
41
0.0
42
0.0
10
79.4144973754883
20
67.4907989501953
40
0.0
41
0.0
42
0.0
10
79.5019989013672
20
67.628303527832
40
0.0
41
0.0
42
0.0
10
79.5418014526367
20
67.6950988769531
40
0.0
41
0.0
42
0.0
10
79.6922988891602
20
67.9882965087891
40
0.0
41
0.0
42
0.0
10
79.7636032104492
20
68.1921997070312
40
0.0
41
0.0
42
0.0
10
79.8761978149414
20
68.4852981567383
40
0.0
41
0.0
42
0.0
10
79.9044036865234
20
68.6783981323242
40
0.0
41
0.0
42
0.0
10
79.9997024536133
20
68.970100402832
40
0.0
41
0.0
42
0.0
10
80.0065002441406
20
68.9975967407227
40
0.0
41
0.0
42
0.0
10
80.046501159668
20
69.4837036132812
40
0.0
41
0.0
42
0.0
10
80.0720977783203
20
69.5731964111328
40
0.0
41
0.0
42
0.0
10
80.0719985961914
20
69.6063995361328
40
0.0
41
0.0
42
0.0
10
80.0009994506836
20
69.7959976196289
40
0.0
41
0.0
42
0.0
10
79.8620986938477
20
70.0065002441406
40
0.0
41
0.0
42
0.0
10
79.6884994506836
20
70.1760025024414
40
0.0
41
0.0
42
0.0
10
79.6595001220703
20
70.1759033203125
40
0.0
41
0.0
42
0.0
10
79.4869003295898
20
70.1345977783203
40
0.0
41
0.0
42
0.0
10
79.3694000244141
20
70.138298034668
40
0.0
41
0.0
42
0.0
10
79.0149993896484
20
70.2259979248047
40
0.0
41
0.0
42
0.0
10
78.717903137207
20
70.2964019775391
40
0.0
41
0.0
42
0.0
10
78.5139999389648
20
70.3515014648438
40
0.0
41
0.0
42
0.0
10
78.3599014282227
20
70.4001007080078
40
0.0
41
0.0
42
0.0
10
78.1416015625
20
70.5009994506836
40
0.0
41
0.0
42
0.0
10
78.0075988769531
20
70.5700988769531
40
0.0
41
0.0
42
0.0
10
77.9801025390625
20
70.5964965820312
40
0.0
41
0.0
42
0.0
10
77.5923004150391
20
71.007698059082
40
0.0
41
0.0
42
0.0
10
77.5278015136719
20
71.136100769043
40
0.0
41
0.0
42
0.0
10
77.4992980957031
20
71.2577972412109
40
0.0
41
0.0
42
0.0
10
77.4501037597656
20
71.5158004760742
40
0.0
41
0.0
42
0.0
10
77.3890991210938
20
71.8034973144531
40
0.0
41
0.0
42
0.0
10
77.4017028808594
20
71.9815979003906
40
0.0
41
0.0
42
0.0
10
77.4191970825195
20
72.1857986450195
40
0.0
41
0.0
42
0.0
10
77.4190979003906
20
72.2237014770508
40
0.0
41
0.0
42
0.0
10
77.3868026733398
20
72.4931030273438
40
0.0
41
0.0
42
0.0
10
77.4291000366211
20
72.6330032348633
40
0.0
41
0.0
42
0.0
10
77.5063018798828
20
72.7647018432617
40
0.0
41
0.0
42
0.0
10
77.8095016479492
20
72.841796875
40
0.0
41
0.0
42
0.0
10
78.0123977661133
20
72.9004974365234
40
0.0
41
0.0
42
0.0
10
78.2753982543945
20
72.8896026611328
40
0.0
41
0.0
42
0.0
10
78.3136978149414
20
72.8895034790039
40
0.0
41
0.0
42
0.0
10
78.4981002807617
20
72.9120025634766
40
0.0
41
0.0
42
0.0
10
78.7714004516602
20
72.8676986694336
40
0.0
41
0.0
42
0.0
10
78.8082962036133
20
72.8675994873047
40
0.0
41
0.0
42
0.0
10
78.9915008544922
20
72.8907012939453
40
0.0
41
0.0
42
0.0
10
79.2053985595703
20
72.7661972045898
40
0.0
41
0.0
42
0.0
10
79.2363967895508
20
72.75
40
0.0
41
0.0
42
0.0
10
79.4906005859375
20
72.713996887207
40
0.0
41
0.0
42
0.0
10
79.6850967407227
20
72.4921035766602
40
0.0
41
0.0
42
0.0
10
79.9320983886719
20
72.0565032958984
40
0.0
41
0.0
42
0.0
10
79.9761962890625
20
71.9893035888672
40
0.0
41
0.0
42
0.0
10
80.1535034179688
20
71.4843978881836
40
0.0
41
0.0
42
0.0
10
80.1638031005859
20
71.3632965087891
40
0.0
41
0.0
42
0.0
10
80.2052993774414
20
71.2497024536133
40
0.0
41
0.0
42
0.0
10
80.2316970825195
20
71.0782012939453
40
0.0
41
0.0
42
0.0
10
80.2867965698242
20
70.994499206543
40
0.0
41
0.0
42
0.0
10
80.2710037231445
20
70.9281005859375
40
0.0
41
0.0
42
0.0
10
80.2377014160156
20
70.7547988891602
40
0.0
41
0.0
42
0.0
10
80.2377014160156
20
70.7301025390625
40
0.0
41
0.0
42
0.0
10
80.4848022460938
20
70.6165008544922
40
0.0
41
0.0
42
0.0
10
80.8812026977539
20
70.6061019897461
40
0.0
41
0.0
42
0.0
10
80.9863967895508
20
70.5343017578125
40
0.0
41
0.0
42
0.0
10
81.0162963867188
20
70.5342025756836
40
0.0
41
0.0
42
0.0
10
81.3113021850586
20
70.638801574707
40
0.0
41
0.0
42
0.0
10
81.5158004760742
20
70.6407012939453
40
0.0
41
0.0
42
0.0
10
81.8079986572266
20
70.7598037719727
40
0.0
41
0.0
42
0.0
10
82.0122985839844
20
70.82080078125
40
0.0
41
0.0
42
0.0
10
82.0962982177734
20
70.861701965332
40
0.0
41
0.0
42
0.0
10
82.3666000366211
20
70.9983978271484
40
0.0
41
0.0
42
0.0
10
82.5086975097656
20
71.0808029174805
40
0.0
41
0.0
42
0.0
10
82.8022994995117
20
71.2836990356445
40
0.0
41
0.0
42
0.0
10
82.9689025878906
20
71.4184036254883
40
0.0
41
0.0
42
0.0
10
83.0066986083984
20
71.4531021118164
40
0.0
41
0.0
42
0.0
10
83.0667037963867
20
71.4957962036133
40
0.0
41
0.0
42
0.0
10
83.1123962402344
20
71.5457992553711
40
0.0
41
0.0
42
0.0
10
83.2048034667969
20
71.6961975097656
40
0.0
41
0.0
42
0.0
10
83.3896026611328
20
71.9775009155273
40
0.0
41
0.0
42
0.0
10
83.3932037353516
20
71.9857025146484
40
0.0
41
0.0
42
0.0
10
83.4608993530273
20
72.4813995361328
40
0.0
41
0.0
42
0.0
10
83.4608001708984
20
72.5182037353516
40
0.0
41
0.0
42
0.0
10
83.4459991455078
20
72.6097030639648
40
0.0
41
0.0
42
0.0
10
83.3892974853516
20
73.0151977539062
40
0.0
41
0.0
42
0.0
10
83.293098449707
20
73.3078994750977
40
0.0
41
0.0
42
0.0
10
83.2160034179688
20
73.5117034912109
40
0.0
41
0.0
42
0.0
10
83.0765991210938
20
73.8057022094727
40
0.0
41
0.0
42
0.0
10
83.0018005371094
20
73.9531021118164
40
0.0
41
0.0
42
0.0
10
82.9641036987305
20
74.0074005126953
40
0.0
41
0.0
42
0.0
10
82.9410018920898
20
74.0366973876953
40
0.0
41
0.0
42
0.0
10
82.6631011962891
20
74.4151992797852
40
0.0
41
0.0
42
0.0
10
82.5988006591797
20
74.5085983276367
40
0.0
41
0.0
42
0.0
10
82.5052032470703
20
74.6673965454102
40
0.0
41
0.0
42
0.0
10
82.2785034179688
20
74.7698974609375
40
0.0
41
0.0
42
0.0
10
82.0139007568359
20
74.9356002807617
40
0.0
41
0.0
42
0.0
10
81.9849014282227
20
74.9355010986328
40
0.0
41
0.0
42
0.0
10
81.49169921875
20
74.6882019042969
40
0.0
41
0.0
42
0.0
10
81.2779006958008
20
74.5028991699219
40
0.0
41
0.0
42
0.0
10
80.9903030395508
20
74.3294982910156
40
0.0
41
0.0
42
0.0
10
80.6297988891602
20
74.1414031982422
40
0.0
41
0.0
42
0.0
10
80.4878005981445
20
74.0643005371094
40
0.0
41
0.0
42
0.0
10
80.3841018676758
20
74.0370025634766
40
0.0
41
0.0
42
0.0
10
80.2115020751953
20
73.9994964599609
40
0.0
41
0.0
42
0.0
10
80.0003967285156
20
73.9400024414062
40
0.0
41
0.0
42
0.0
10
79.8034973144531
20
73.9994964599609
40
0.0
41
0.0
42
0.0
10
79.5119018554688
20
74.0587005615234
40
0.0
41
0.0
42
0.0
10
79.3476028442383
20
74.1630020141602
40
0.0
41
0.0
42
0.0
10
79.0054016113281
20
74.4078979492188
40
0.0
41
0.0
42
0.0
10
78.8003005981445
20
74.6573028564453
40
0.0
41
0.0
42
0.0
10
78.5090026855469
20
74.8741989135742
40
0.0
41
0.0
42
0.0
10
78.4307022094727
20
74.9116973876953
40
0.0
41
0.0
42
0.0
10
78.3425979614258
20
75.004997253418
40
0.0
41
0.0
42
0.0
10
78.3945999145508
20
75.189697265625
40
0.0
41
0.0
42
0.0
10
78.4489974975586
20
75.4925003051758
40
0.0
41
0.0
42
0.0
10
78.4777984619141
20
75.5115966796875
40
0.0
41
0.0
42
0.0
10
78.5048980712891
20
75.5428009033203
40
0.0
41
0.0
42
0.0
10
78.7997970581055
20
75.8074035644531
40
0.0
41
0.0
42
0.0
10
78.9418029785156
20
75.9781036376953
40
0.0
41
0.0
42
0.0
10
78.950798034668
20
75.9912033081055
40
0.0
41
0.0
42
0.0
10
79.003303527832
20
76.0824966430664
40
0.0
41
0.0
42
0.0
10
79.1296997070312
20
76.2014007568359
40
0.0
41
0.0
42
0.0
10
79.4059982299805
20
76.3858032226562
40
0.0
41
0.0
42
0.0
10
79.5118026733398
20
76.4614028930664
40
0.0
41
0.0
42
0.0
10
79.6182022094727
20
76.478401184082
40
0.0
41
0.0
42
0.0
10
79.7334976196289
20
76.5005035400391
40
0.0
41
0.0
42
0.0
10
79.9975967407227
20
76.5692977905273
40
0.0
41
0.0
42
0.0
10
80.0792007446289
20
76.5392990112305
40
0.0
41
0.0
42
0.0
10
80.2463989257812
20
76.5003967285156
40
0.0
41
0.0
42
0.0
10
80.4865036010742
20
76.448600769043
40
0.0
41
0.0
42
0.0
10
80.6937026977539
20
76.3559036254883
40
0.0
41
0.0
42
0.0
10
81.2437973022461
20
76.0942993164062
40
0.0
41
0.0
42
0.0
10
81.4358978271484
20
75.9970016479492
40
0.0
41
0.0
42
0.0
10
81.4926986694336
20
75.9365997314453
40
0.0
41
0.0
42
0.0
10
81.6091003417969
20
75.8786010742188
40
0.0
41
0.0
42
0.0
10
81.9845962524414
20
75.7057037353516
40
0.0
41
0.0
42
0.0
10
82.0093994140625
20
75.7057037353516
40
0.0
41
0.0
42
0.0
10
82.2248992919922
20
75.9956970214844
40
0.0
41
0.0
42
0.0
10
82.5046005249023
20
76.1689987182617
40
0.0
41
0.0
42
0.0
10
82.5201034545898
20
76.1947021484375
40
0.0
41
0.0
42
0.0
10
82.6526031494141
20
76.489501953125
40
0.0
41
0.0
42
0.0
10
82.7695007324219
20
76.6943969726562
40
0.0
41
0.0
42
0.0
10
82.8996963500977
20
76.9877014160156
40
0.0
41
0.0
42
0.0
10
82.9253997802734
20
77.0625
40
0.0
41
0.0
42
0.0
10
83.0
20
77.2667007446289
40
0.0
41
0.0
42
0.0
10
83.073600769043
20
77.4849014282227
40
0.0
41
0.0
42
0.0
10
83.1033020019531
20
77.6887969970703
40
0.0
41
0.0
42
0.0
10
83.1684036254883
20
77.9822006225586
40
0.0
41
0.0
42
0.0
10
83.1682968139648
20
78.0185012817383
40
0.0
41
0.0
42
0.0
10
83.1412963867188
20
78.2132034301758
40
0.0
41
0.0
42
0.0
10
83.1549987792969
20
78.4804992675781
40
0.0
41
0.0
42
0.0
10
83.154899597168
20
78.5168991088867
40
0.0
41
0.0
42
0.0
10
83.0692977905273
20
78.8051986694336
40
0.0
41
0.0
42
0.0
10
83.0022964477539
20
78.8926010131836
40
0.0
41
0.0
42
0.0
10
82.9386978149414
20
79.0064010620117
40
0.0
41
0.0
42
0.0
10
82.888298034668
20
79.049201965332
40
0.0
41
0.0
42
0.0
10
82.5068969726562
20
79.415901184082
40
0.0
41
0.0
42
0.0
10
82.3714981079102
20
79.5019989013672
40
0.0
41
0.0
42
0.0
10
82.304801940918
20
79.5418014526367
40
0.0
41
0.0
42
0.0
10
82.0115966796875
20
79.6922988891602
40
0.0
41
0.0
42
0.0
10
81.8077011108398
20
79.7634963989258
40
0.0
41
0.0
42
0.0
10
81.5146026611328
20
79.8761978149414
40
0.0
41
0.0
42
0.0
10
81.321403503418
20
79.9044036865234
40
0.0
41
0.0
42
0.0
10
81.0296020507812
20
79.9997024536133
40
0.0
41
0.0
42
0.0
10
81.002197265625
20
80.0065002441406
40
0.0
41
0.0
42
0.0
10
80.5161972045898
20
80.046501159668
40
0.0
41
0.0
42
0.0
10
80.4265975952148
20
80.0720977783203
40
0.0
41
0.0
42
0.0
10
80.3934020996094
20
80.0719985961914
40
0.0
41
0.0
42
0.0
10
80.2036972045898
20
80.0010986328125
40
0.0
41
0.0
42
0.0
10
79.9934005737305
20
79.8621978759766
40
0.0
41
0.0
42
0.0
10
79.8236999511719
20
79.6885986328125
40
0.0
41
0.0
42
0.0
10
79.8237991333008
20
79.6595001220703
40
0.0
41
0.0
42
0.0
10
79.8650970458984
20
79.4869003295898
40
0.0
41
0.0
42
0.0
10
79.8613967895508
20
79.3694000244141
40
0.0
41
0.0
42
0.0
10
79.7735977172852
20
79.0146026611328
40
0.0
41
0.0
42
0.0
10
79.7158966064453
20
78.8097991943359
40
0.0
41
0.0
42
0.0
10
79.6483001708984
20
78.5143966674805
40
0.0
41
0.0
42
0.0
10
79.5997009277344
20
78.3600006103516
40
0.0
41
0.0
42
0.0
10
79.4988021850586
20
78.1416015625
40
0.0
41
0.0
42
0.0
10
79.4296035766602
20
78.0075988769531
40
0.0
41
0.0
42
0.0
10
79.4031982421875
20
77.9801025390625
40
0.0
41
0.0
42
0.0
10
78.9921035766602
20
77.5923004150391
40
0.0
41
0.0
42
0.0
10
78.8637008666992
20
77.5278015136719
40
0.0
41
0.0
42
0.0
10
78.7419967651367
20
77.4992980957031
40
0.0
41
0.0
42
0.0
10
78.4841003417969
20
77.4501037597656
40
0.0
41
0.0
42
0.0
10
78.196403503418
20
77.3890991210938
40
0.0
41
0.0
42
0.0
10
78.0183029174805
20
77.4017028808594
40
0.0
41
0.0
42
0.0
10
77.8141021728516
20
77.4191970825195
40
0.0
41
0.0
42
0.0
10
77.7761993408203
20
77.4190979003906
40
0.0
41
0.0
42
0.0
10
77.5067977905273
20
77.3868026733398
40
0.0
41
0.0
42
0.0
10
77.36669921875
20
77.4291000366211
40
0.0
41
0.0
42
0.0
10
77.2353973388672
20
77.5059967041016
40
0.0
41
0.0
42
0.0
10
77.1735992431641
20
77.7193984985352
40
0.0
41
0.0
42
0.0
10
77.0991973876953
20
78.0121994018555
40
0.0
41
0.0
42
0.0
10
77.1102981567383
20
78.2753982543945
40
0.0
41
0.0
42
0.0
10
77.1102981567383
20
78.3136978149414
40
0.0
41
0.0
42
0.0
10
77.0876998901367
20
78.4981002807617
40
0.0
41
0.0
42
0.0
10
77.1322021484375
20
78.7714004516602
40
0.0
41
0.0
42
0.0
10
77.1321029663086
20
78.8082962036133
40
0.0
41
0.0
42
0.0
10
77.109001159668
20
78.9915008544922
40
0.0
41
0.0
42
0.0
10
77.2334976196289
20
79.2054977416992
40
0.0
41
0.0
42
0.0
10
77.2497024536133
20
79.2365036010742
40
0.0
41
0.0
42
0.0
10
77.2857971191406
20
79.4906005859375
40
0.0
41
0.0
42
0.0
10
77.507698059082
20
79.6850967407227
40
0.0
41
0.0
42
0.0
10
77.9432983398438
20
79.9321975708008
40
0.0
41
0.0
42
0.0
10
78.0105972290039
20
79.9761962890625
40
0.0
41
0.0
42
0.0
10
78.5155029296875
20
80.1535034179688
40
0.0
41
0.0
42
0.0
10
78.6364974975586
20
80.1638031005859
40
0.0
41
0.0
42
0.0
10
78.7500991821289
20
80.2052993774414
40
0.0
41
0.0
42
0.0
10
78.921501159668
20
80.2316970825195
40
0.0
41
0.0
42
0.0
10
79.0054016113281
20
80.2866973876953
40
0.0
41
0.0
42
0.0
10
79.0717010498047
20
80.2710037231445
40
0.0
41
0.0
42
0.0
10
79.245002746582
20
80.2377014160156
40
0.0
41
0.0
42
0.0
10
79.2695999145508
20
80.2378005981445
40
0.0
41
0.0
42
0.0
10
79.3832015991211
20
80.4848022460938
40
0.0
41
0.0
42
0.0
10
79.3936004638672
20
80.8812026977539
40
0.0
41
0.0
42
0.0
10
79.4655990600586
20
80.9863967895508
40
0.0
41
0.0
42
0.0
10
79.4654998779297
20
81.0162963867188
40
0.0
41
0.0
42
0.0
10
79.3609008789062
20
81.3112030029297
40
0.0
41
0.0
42
0.0
10
79.359001159668
20
81.5167999267578
40
0.0
41
0.0
42
0.0
10
79.2988967895508
20
81.717903137207
40
0.0
41
0.0
42
0.0
10
79.1793975830078
20
82.0113983154297
40
0.0
41
0.0
42
0.0
10
79.1380996704102
20
82.0962982177734
40
0.0
41
0.0
42
0.0
10
79.0014038085938
20
82.3666000366211
40
0.0
41
0.0
42
0.0
10
78.9189987182617
20
82.5086975097656
40
0.0
41
0.0
42
0.0
10
78.7160034179688
20
82.8022994995117
40
0.0
41
0.0
42
0.0
10
78.5813980102539
20
82.9689025878906
40
0.0
41
0.0
42
0.0
10
78.5466003417969
20
83.0066986083984
40
0.0
41
0.0
42
0.0
10
78.5050964355469
20
83.0652008056641
40
0.0
41
0.0
42
0.0
10
78.3345031738281
20
83.1760025024414
40
0.0
41
0.0
42
0.0
10
78.0121994018555
20
83.3934020996094
40
0.0
41
0.0
42
0.0
10
77.5185012817383
20
83.4608993530273
40
0.0
41
0.0
42
0.0
10
77.4815979003906
20
83.4608001708984
40
0.0
41
0.0
42
0.0
10
77.3900985717773
20
83.4459991455078
40
0.0
41
0.0
42
0.0
10
76.9847030639648
20
83.3892974853516
40
0.0
41
0.0
42
0.0
10
76.6920013427734
20
83.293098449707
40
0.0
41
0.0
42
0.0
10
76.4881973266602
20
83.2160034179688
40
0.0
41
0.0
42
0.0
10
76.1941986083984
20
83.0765991210938
40
0.0
41
0.0
42
0.0
10
76.0466995239258
20
83.0018997192383
40
0.0
41
0.0
42
0.0
10
75.9922027587891
20
82.963996887207
40
0.0
41
0.0
42
0.0
10
75.7696990966797
20
82.7981033325195
40
0.0
41
0.0
42
0.0
10
75.5845031738281
20
82.6631011962891
40
0.0
41
0.0
42
0.0
10
75.4912033081055
20
82.5988998413086
40
0.0
41
0.0
42
0.0
10
75.3315963745117
20
82.5046997070312
40
0.0
41
0.0
42
0.0
10
75.1267013549805
20
82.138298034668
40
0.0
41
0.0
42
0.0
10
75.0643005371094
20
82.0149002075195
40
0.0
41
0.0
42
0.0
10
75.0641021728516
20
81.9850006103516
40
0.0
41
0.0
42
0.0
10
75.2098007202148
20
81.7005004882812
40
0.0
41
0.0
42
0.0
10
75.3115997314453
20
81.4916000366211
40
0.0
41
0.0
42
0.0
10
75.4969024658203
20
81.2779006958008
40
0.0
41
0.0
42
0.0
10
75.6703033447266
20
80.9901962280273
40
0.0
41
0.0
42
0.0
10
75.8582992553711
20
80.6297988891602
40
0.0
41
0.0
42
0.0
10
75.9354019165039
20
80.4877014160156
40
0.0
41
0.0
42
0.0
10
75.9626998901367
20
80.3841018676758
40
0.0
41
0.0
42
0.0
10
76.0002975463867
20
80.2114028930664
40
0.0
41
0.0
42
0.0
10
76.0597991943359
20
80.0003967285156
40
0.0
41
0.0
42
0.0
10
76.0002975463867
20
79.8034973144531
40
0.0
41
0.0
42
0.0
10
75.940803527832
20
79.5105972290039
40
0.0
41
0.0
42
0.0
10
75.7701034545898
20
79.3028030395508
40
0.0
41
0.0
42
0.0
10
75.5924987792969
20
79.0059967041016
40
0.0
41
0.0
42
0.0
10
75.3424987792969
20
78.8003997802734
40
0.0
41
0.0
42
0.0
10
75.1255035400391
20
78.5091018676758
40
0.0
41
0.0
42
0.0
10
75.0879974365234
20
78.4308013916016
40
0.0
41
0.0
42
0.0
10
74.995002746582
20
78.3425979614258
40
0.0
41
0.0
42
0.0
10
74.8102035522461
20
78.3945999145508
40
0.0
41
0.0
42
0.0
10
74.5074005126953
20
78.4488983154297
40
0.0
41
0.0
42
0.0
10
74.4880981445312
20
78.4776992797852
40
0.0
41
0.0
42
0.0
10
74.4570007324219
20
78.5048980712891
40
0.0
41
0.0
42
0.0
10
74.1923980712891
20
78.7996978759766
40
0.0
41
0.0
42
0.0
10
74.021598815918
20
78.9417037963867
40
0.0
41
0.0
42
0.0
10
74.0086975097656
20
78.950798034668
40
0.0
41
0.0
42
0.0
10
73.9172973632812
20
79.0031967163086
40
0.0
41
0.0
42
0.0
10
73.8320999145508
20
79.0926971435547
40
0.0
41
0.0
42
0.0
10
73.6302032470703
20
79.3802032470703
40
0.0
41
0.0
42
0.0
10
73.6047973632812
20
79.4123992919922
40
0.0
41
0.0
42
0.0
10
73.5382995605469
20
79.5121002197266
40
0.0
41
0.0
42
0.0
10
73.5213012695312
20
79.6182022094727
40
0.0
41
0.0
42
0.0
10
73.499397277832
20
79.7334976196289
40
0.0
41
0.0
42
0.0
10
73.4303970336914
20
79.9975967407227
40
0.0
41
0.0
42
0.0
10
73.4604034423828
20
80.0792999267578
40
0.0
41
0.0
42
0.0
10
73.499397277832
20
80.2464981079102
40
0.0
41
0.0
42
0.0
10
73.5511016845703
20
80.4865036010742
40
0.0
41
0.0
42
0.0
10
73.6438980102539
20
80.6938018798828
40
0.0
41
0.0
42
0.0
10
73.9052963256836
20
81.2437973022461
40
0.0
41
0.0
42
0.0
10
74.0028991699219
20
81.4358978271484
40
0.0
41
0.0
42
0.0
10
74.0632019042969
20
81.4926986694336
40
0.0
41
0.0
42
0.0
10
74.1211013793945
20
81.6091003417969
40
0.0
41
0.0
42
0.0
10
74.2941970825195
20
81.9845962524414
40
0.0
41
0.0
42
0.0
10
74.2940979003906
20
82.0093994140625
40
0.0
41
0.0
42
0.0
10
74.0042037963867
20
82.2248001098633
40
0.0
41
0.0
42
0.0
10
73.8307037353516
20
82.5046005249023
40
0.0
41
0.0
42
0.0
10
73.8050994873047
20
82.5201034545898
40
0.0
41
0.0
42
0.0
10
73.5103988647461
20
82.6524963378906
40
0.0
41
0.0
42
0.0
10
73.3053970336914
20
82.7695007324219
40
0.0
41
0.0
42
0.0
10
73.0121994018555
20
82.8995971679688
40
0.0
41
0.0
42
0.0
10
72.9373016357422
20
82.9253997802734
40
0.0
41
0.0
42
0.0
10
72.7331008911133
20
83.0000991821289
40
0.0
41
0.0
42
0.0
10
72.5149993896484
20
83.073600769043
40
0.0
41
0.0
42
0.0
10
72.3110961914062
20
83.1033020019531
40
0.0
41
0.0
42
0.0
10
72.0177001953125
20
83.1684036254883
40
0.0
41
0.0
42
0.0
10
71.9813995361328
20
83.1684036254883
40
0.0
41
0.0
42
0.0
10
71.7866973876953
20
83.1411972045898
40
0.0
41
0.0
42
0.0
10
71.519401550293
20
83.1549987792969
40
0.0
41
0.0
42
0.0
10
71.4830017089844
20
83.154899597168
40
0.0
41
0.0
42
0.0
10
71.1914978027344
20
83.0678024291992
40
0.0
41
0.0
42
0.0
10
71.1072006225586
20
83.0024032592773
40
0.0
41
0.0
42
0.0
10
70.9934997558594
20
82.9387969970703
40
0.0
41
0.0
42
0.0
10
70.9497985839844
20
82.8874969482422
40
0.0
41
0.0
42
0.0
10
70.8450012207031
20
82.7998962402344
40
0.0
41
0.0
42
0.0
10
70.584098815918
20
82.5072021484375
40
0.0
41
0.0
42
0.0
10
70.497802734375
20
82.3714981079102
40
0.0
41
0.0
42
0.0
10
70.4580001831055
20
82.304801940918
40
0.0
41
0.0
42
0.0
10
70.3074035644531
20
82.0115966796875
40
0.0
41
0.0
42
0.0
10
70.236198425293
20
81.8077011108398
40
0.0
41
0.0
42
0.0
10
70.1234970092773
20
81.5146026611328
40
0.0
41
0.0
42
0.0
10
70.0952987670898
20
81.3215026855469
40
0.0
41
0.0
42
0.0
10
69.9957962036133
20
81.0145034790039
40
0.0
41
0.0
42
0.0
10
69.9932022094727
20
81.0026016235352
40
0.0
41
0.0
42
0.0
10
69.9532012939453
20
80.5161972045898
40
0.0
41
0.0
42
0.0
10
69.9278030395508
20
80.4265975952148
40
0.0
41
0.0
42
0.0
10
69.9276962280273
20
80.3933029174805
40
0.0
41
0.0
42
0.0
10
69.9987030029297
20
80.2036972045898
40
0.0
41
0.0
42
0.0
10
70.1376037597656
20
79.9934005737305
40
0.0
41
0.0
42
0.0
10
70.3112030029297
20
79.8236999511719
40
0.0
41
0.0
42
0.0
10
70.3403015136719
20
79.8237991333008
40
0.0
41
0.0
42
0.0
10
70.5130004882812
20
79.8650970458984
40
0.0
41
0.0
42
0.0
10
70.6304016113281
20
79.8613967895508
40
0.0
41
0.0
42
0.0
10
70.9852981567383
20
79.7734985351562
40
0.0
41
0.0
42
0.0
10
71.1675033569336
20
79.7216033935547
40
0.0
41
0.0
42
0.0
10
71.2537002563477
20
79.6996994018555
40
0.0
41
0.0
42
0.0
10
71.4853973388672
20
79.6483001708984
40
0.0
41
0.0
42
0.0
10
71.6398010253906
20
79.5996017456055
40
0.0
41
0.0
42
0.0
10
71.8581008911133
20
79.4988021850586
40
0.0
41
0.0
42
0.0
10
71.992301940918
20
79.4294967651367
40
0.0
41
0.0
42
0.0
10
72.0195999145508
20
79.4031982421875
40
0.0
41
0.0
42
0.0
10
72.4074020385742
20
78.9921035766602
40
0.0
41
0.0
42
0.0
10
72.4719009399414
20
78.8636016845703
40
0.0
41
0.0
42
0.0
10
72.5005035400391
20
78.7419967651367
40
0.0
41
0.0
42
0.0
10
72.5495986938477
20
78.4841003417969
40
0.0
41
0.0
42
0.0
10
72.6107025146484
20
78.196403503418
40
0.0
41
0.0
42
0.0
10
72.5980987548828
20
78.0192031860352
40
0.0
41
0.0
42
0.0
10
72.5979995727539
20
77.981201171875
40
0.0
41
0.0
42
0.0
10
72.6314010620117
20
77.7018966674805
40
0.0
41
0.0
42
0.0
10
72.6156997680664
20
77.515998840332
40
0.0
41
0.0
42
0.0
10
72.5706024169922
20
77.3667984008789
40
0.0
41
0.0
42
0.0
10
72.493896484375
20
77.2353973388672
40
0.0
41
0.0
42
0.0
10
72.2805023193359
20
77.173698425293
40
0.0
41
0.0
42
0.0
10
71.9877014160156
20
77.0991973876953
40
0.0
41
0.0
42
0.0
10
71.7245025634766
20
77.1102981567383
40
0.0
41
0.0
42
0.0
10
71.6862030029297
20
77.1102981567383
40
0.0
41
0.0
42
0.0
10
71.5017013549805
20
77.0876998901367
40
0.0
41
0.0
42
0.0
10
71.228401184082
20
77.1322021484375
40
0.0
41
0.0
42
0.0
10
71.1914978027344
20
77.1321029663086
40
0.0
41
0.0
42
0.0
10
71.0083999633789
20
77.109001159668
40
0.0
41
0.0
42
0.0
10
70.7942962646484
20
77.2334976196289
40
0.0
41
0.0
42
0.0
10
70.763298034668
20
77.2496032714844
40
0.0
41
0.0
42
0.0
10
70.5093002319336
20
77.2856979370117
40
0.0
41
0.0
42
0.0
10
70.3145980834961
20
77.507698059082
40
0.0
41
0.0
42
0.0
10
70.067497253418
20
77.9432983398438
40
0.0
41
0.0
42
0.0
10
70.0234985351562
20
78.010498046875
40
0.0
41
0.0
42
0.0
10
69.8470993041992
20
78.5129013061523
40
0.0
41
0.0
42
0.0
10
69.8084030151367
20
78.6192016601562
40
0.0
41
0.0
42
0.0
10
69.7424011230469
20
78.7712020874023
40
0.0
41
0.0
42
0.0
10
69.7285003662109
20
78.8816986083984
40
0.0
41
0.0
42
0.0
10
69.7108993530273
20
78.9964981079102
40
0.0
41
0.0
42
0.0
10
69.7286987304688
20
79.0718002319336
40
0.0
41
0.0
42
0.0
10
69.7621002197266
20
79.245002746582
40
0.0
41
0.0
42
0.0
10
69.7620010375977
20
79.2695999145508
40
0.0
41
0.0
42
0.0
10
69.5150985717773
20
79.3832015991211
40
0.0
41
0.0
42
0.0
10
69.1185989379883
20
79.3935012817383
40
0.0
41
0.0
42
0.0
10
69.0134963989258
20
79.4655990600586
40
0.0
41
0.0
42
0.0
10
68.9835968017578
20
79.4654998779297
40
0.0
41
0.0
42
0.0
10
68.6886978149414
20
79.3609008789062
40
0.0
41
0.0
42
0.0
10
68.4831008911133
20
79.359001159668
40
0.0
41
0.0
42
0.0
10
68.2818984985352
20
79.2990036010742
40
0.0
41
0.0
42
0.0
10
67.9885025024414
20
79.1794967651367
40
0.0
41
0.0
42
0.0
10
67.9035034179688
20
79.1380996704102
40
0.0
41
0.0
42
0.0
10
67.6332015991211
20
79.0015029907227
40
0.0
41
0.0
42
0.0
10
67.4912033081055
20
78.9189987182617
40
0.0
41
0.0
42
0.0
10
67.1975021362305
20
78.7161026000977
40
0.0
41
0.0
42
0.0
10
67.0308990478516
20
78.5813980102539
40
0.0
41
0.0
42
0.0
10
66.9932022094727
20
78.5466995239258
40
0.0
41
0.0
42
0.0
10
66.934196472168
20
78.504997253418
40
0.0
41
0.0
42
0.0
10
66.7947998046875
20
78.3032989501953
40
0.0
41
0.0
42
0.0
10
66.6063003540039
20
78.0124969482422
40
0.0
41
0.0
42
0.0
10
66.5390014648438
20
77.5185012817383
40
0.0
41
0.0
42
0.0
10
66.5389022827148
20
77.4815979003906
40
0.0
41
0.0
42
0.0
10
66.5537033081055
20
77.3900985717773
40
0.0
41
0.0
42
0.0
10
66.6103973388672
20
76.9847030639648
40
0.0
41
0.0
42
0.0
10
66.7065963745117
20
76.6919021606445
40
0.0
41
0.0
42
0.0
10
66.7836990356445
20
76.4880981445312
40
0.0
41
0.0
42
0.0
210
0.0
220
0.0
230
1.0
0
LWPOLYLINE
5
25
330
1C
100
AcDbEntity
67
0
8
0
62
256
6
ByLayer
370
-1
48
1.0
60
0
100
AcDbPolyline
90
583
70
1
38
0.0
39
0.0
10
66.5622024536133
20
77.5014038085938
40
0.0
41
0.0
42
0.0
10
66.6284027099609
20
77.9875030517578
40
0.0
41
0.0
42
0.0
10
66.796501159668
20
78.2465972900391
40
0.0
41
0.0
42
0.0
10
66.9682006835938
20
78.495002746582
40
0.0
41
0.0
42
0.0
10
67.0066986083984
20
78.5222015380859
40
0.0
41
0.0
42
0.0
10
67.0505981445312
20
78.5626983642578
40
0.0
41
0.0
42
0.0
10
67.2524032592773
20
78.7257995605469
40
0.0
41
0.0
42
0.0
10
67.5086975097656
20
78.9029006958008
40
0.0
41
0.0
42
0.0
10
67.6732025146484
20
78.9983978271484
40
0.0
41
0.0
42
0.0
10
67.9080963134766
20
79.1171035766602
40
0.0
41
0.0
42
0.0
10
68.0113983154297
20
79.1673965454102
40
0.0
41
0.0
42
0.0
10
68.2679977416992
20
79.2720031738281
40
0.0
41
0.0
42
0.0
10
68.5167999267578
20
79.3461990356445
40
0.0
41
0.0
42
0.0
10
68.7612991333008
20
79.3482971191406
40
0.0
41
0.0
42
0.0
10
68.996696472168
20
79.4318008422852
40
0.0
41
0.0
42
0.0
10
69.1828994750977
20
79.3043975830078
40
0.0
41
0.0
42
0.0
10
69.4848022460938
20
79.2964019775391
40
0.0
41
0.0
42
0.0
10
69.6989974975586
20
79.1977996826172
40
0.0
41
0.0
42
0.0
10
69.6771011352539
20
79.0828018188477
40
0.0
41
0.0
42
0.0
10
69.6616973876953
20
79.0175018310547
40
0.0
41
0.0
42
0.0
10
69.6615982055664
20
78.9814987182617
40
0.0
41
0.0
42
0.0
10
69.6772994995117
20
78.8786010742188
40
0.0
41
0.0
42
0.0
10
69.6874008178711
20
78.7983016967773
40
0.0
41
0.0
42
0.0
10
69.7656021118164
20
78.6179962158203
40
0.0
41
0.0
42
0.0
10
69.8134994506836
20
78.4869995117188
40
0.0
41
0.0
42
0.0
10
69.9888000488281
20
77.9875030517578
40
0.0
41
0.0
42
0.0
10
69.9987030029297
20
77.964599609375
40
0.0
41
0.0
42
0.0
10
70.2667007446289
20
77.4921035766602
40
0.0
41
0.0
42
0.0
10
70.4906005859375
20
77.2368011474609
40
0.0
41
0.0
42
0.0
10
70.7927017211914
20
77.1939010620117
40
0.0
41
0.0
42
0.0
10
70.8230972290039
20
77.1780014038086
40
0.0
41
0.0
42
0.0
10
70.9856033325195
20
77.0836029052734
40
0.0
41
0.0
42
0.0
10
71.0186004638672
20
77.0835037231445
40
0.0
41
0.0
42
0.0
10
71.2490005493164
20
77.1126022338867
40
0.0
41
0.0
42
0.0
10
71.4815979003906
20
77.0748977661133
40
0.0
41
0.0
42
0.0
10
71.5186996459961
20
77.0747985839844
40
0.0
41
0.0
42
0.0
10
71.7538986206055
20
77.1036987304688
40
0.0
41
0.0
42
0.0
10
71.9804000854492
20
77.0943984985352
40
0.0
41
0.0
42
0.0
10
72.0173034667969
20
77.0942993164062
40
0.0
41
0.0
42
0.0
10
72.2695007324219
20
77.1584014892578
40
0.0
41
0.0
42
0.0
10
72.5059967041016
20
77.2268981933594
40
0.0
41
0.0
42
0.0
10
72.5858001708984
20
77.3632965087891
40
0.0
41
0.0
42
0.0
10
72.6221008300781
20
77.4838027954102
40
0.0
41
0.0
42
0.0
10
72.6427993774414
20
77.7257995605469
40
0.0
41
0.0
42
0.0
10
72.6427001953125
20
77.7637023925781
40
0.0
41
0.0
42
0.0
10
72.6138000488281
20
78.0045013427734
40
0.0
41
0.0
42
0.0
10
72.6296997070312
20
78.225700378418
40
0.0
41
0.0
42
0.0
10
72.6296005249023
20
78.2627029418945
40
0.0
41
0.0
42
0.0
10
72.5762023925781
20
78.5141983032227
40
0.0
41
0.0
42
0.0
10
72.4992980957031
20
78.9175033569336
40
0.0
41
0.0
42
0.0
10
72.4887008666992
20
78.9626998901367
40
0.0
41
0.0
42
0.0
10
72.4661026000977
20
79.007698059082
40
0.0
41
0.0
42
0.0
10
72.0074005126953
20
79.4937973022461
40
0.0
41
0.0
42
0.0
10
71.711799621582
20
79.6313018798828
40
0.0
41
0.0
42
0.0
10
71.5145034790039
20
79.6934967041016
40
0.0
41
0.0
42
0.0
10
71.315299987793
20
79.7377014160156
40
0.0
41
0.0
42
0.0
10
71.2321014404297
20
79.7587966918945
40
0.0
41
0.0
42
0.0
10
71.0145034790039
20
79.8209991455078
40
0.0
41
0.0
42
0.0
10
70.5960006713867
20
79.9244003295898
40
0.0
41
0.0
42
0.0
10
70.4822006225586
20
79.9269027709961
40
0.0
41
0.0
42
0.0
10
70.4111022949219
20
79.909797668457
40
0.0
41
0.0
42
0.0
10
70.3119964599609
20
80.0064010620117
40
0.0
41
0.0
42
0.0
10
70.0010986328125
20
80.4775009155273
40
0.0
41
0.0
42
0.0
10
69.9945983886719
20
80.4947967529297
40
0.0
41
0.0
42
0.0
10
69.9990005493164
20
80.5483016967773
40
0.0
41
0.0
42
0.0
10
70.0414962768555
20
80.9222030639648
40
0.0
41
0.0
42
0.0
10
70.0413970947266
20
80.9586029052734
40
0.0
41
0.0
42
0.0
10
70.0323028564453
20
80.9974975585938
40
0.0
41
0.0
42
0.0
10
70.1147003173828
20
81.2494964599609
40
0.0
41
0.0
42
0.0
10
70.1491012573242
20
81.4852981567383
40
0.0
41
0.0
42
0.0
10
70.247802734375
20
81.7422027587891
40
0.0
41
0.0
42
0.0
10
70.3338012695312
20
81.9881973266602
40
0.0
41
0.0
42
0.0
10
70.4656982421875
20
82.2451019287109
40
0.0
41
0.0
42
0.0
10
70.5019989013672
20
82.306396484375
40
0.0
41
0.0
42
0.0
10
70.6204986572266
20
82.4925994873047
40
0.0
41
0.0
42
0.0
10
70.85009765625
20
82.7500991821289
40
0.0
41
0.0
42
0.0
10
70.940299987793
20
82.8255004882812
40
0.0
41
0.0
42
0.0
10
71.0064010620117
20
82.9031982421875
40
0.0
41
0.0
42
0.0
10
71.1751022338867
20
82.9974975585938
40
0.0
41
0.0
42
0.0
10
71.2553024291992
20
83.0587005615234
40
0.0
41
0.0
42
0.0
10
71.5114974975586
20
83.1346969604492
40
0.0
41
0.0
42
0.0
10
71.7354965209961
20
83.1231994628906
40
0.0
41
0.0
42
0.0
10
71.7734985351562
20
83.1231994628906
40
0.0
41
0.0
42
0.0
10
71.9962005615234
20
83.154296875
40
0.0
41
0.0
42
0.0
10
72.2387008666992
20
83.1005020141602
40
0.0
41
0.0
42
0.0
10
72.4849014282227
20
83.064697265625
40
0.0
41
0.0
42
0.0
10
72.6773986816406
20
82.9997024536133
40
0.0
41
0.0
42
0.0
10
72.921501159668
20
82.910400390625
40
0.0
41
0.0
42
0.0
10
72.9876022338867
20
82.8877029418945
40
0.0
41
0.0
42
0.0
10
73.2444000244141
20
82.7736968994141
40
0.0
41
0.0
42
0.0
10
73.489501953125
20
82.633903503418
40
0.0
41
0.0
42
0.0
10
73.7446975708008
20
82.5192031860352
40
0.0
41
0.0
42
0.0
10
73.7843017578125
20
82.4952011108398
40
0.0
41
0.0
42
0.0
10
73.9955978393555
20
82.154296875
40
0.0
41
0.0
42
0.0
10
74.2077026367188
20
81.9968032836914
40
0.0
41
0.0
42
0.0
10
74.0
20
81.5463027954102
40
0.0
41
0.0
42
0.0
10
73.9931030273438
20
81.5130004882812
40
0.0
41
0.0
42
0.0
10
73.8844985961914
20
81.2985992431641
40
0.0
41
0.0
42
0.0
10
73.6266021728516
20
80.7562026977539
40
0.0
41
0.0
42
0.0
10
73.5178985595703
20
80.5133972167969
40
0.0
41
0.0
42
0.0
10
73.5003967285156
20
80.4319000244141
40
0.0
41
0.0
42
0.0
10
73.4375
20
80.1623992919922
40
0.0
41
0.0
42
0.0
10
73.383903503418
20
80.0162963867188
40
0.0
41
0.0
42
0.0
10
73.3840026855469
20
79.9826965332031
40
0.0
41
0.0
42
0.0
10
73.5003967285156
20
79.5363006591797
40
0.0
41
0.0
42
0.0
10
73.5087966918945
20
79.4880981445312
40
0.0
41
0.0
42
0.0
10
73.7801971435547
20
79.1017990112305
40
0.0
41
0.0
42
0.0
10
73.8803024291992
20
78.9965972900391
40
0.0
41
0.0
42
0.0
10
73.9912033081055
20
78.9328994750977
40
0.0
41
0.0
42
0.0
10
74.0052032470703
20
78.9232025146484
40
0.0
41
0.0
42
0.0
10
74.2133026123047
20
78.7500991821289
40
0.0
41
0.0
42
0.0
10
74.4423980712891
20
78.4949035644531
40
0.0
41
0.0
42
0.0
10
74.4822006225586
20
78.4601974487305
40
0.0
41
0.0
42
0.0
10
74.4924011230469
20
78.4449005126953
40
0.0
41
0.0
42
0.0
10
74.7397003173828
20
78.4004974365234
40
0.0
41
0.0
42
0.0
10
74.9829025268555
20
78.3320999145508
40
0.0
41
0.0
42
0.0
10
75.0115966796875
20
78.3320999145508
40
0.0
41
0.0
42
0.0
10
75.111198425293
20
78.4263000488281
40
0.0
41
0.0
42
0.0
10
75.1420974731445
20
78.4908981323242
40
0.0
41
0.0
42
0.0
10
75.3347015380859
20
78.7496032714844
40
0.0
41
0.0
42
0.0
10
75.6314010620117
20
78.993896484375
40
0.0
41
0.0
42
0.0
10
75.7827987670898
20
79.2471008300781
40
0.0
41
0.0
42
0.0
10
75.9817962646484
20
79.4893035888672
40
0.0
41
0.0
42
0.0
10
75.9994964599609
20
79.576301574707
40
0.0
41
0.0
42
0.0
10
76.1225967407227
20
79.9831008911133
40
0.0
41
0.0
42
0.0
10
76.1223983764648
20
80.0169982910156
40
0.0
41
0.0
42
0.0
10
75.9994964599609
20
80.4527969360352
40
0.0
41
0.0
42
0.0
10
75.9853973388672
20
80.5124969482422
40
0.0
41
0.0
42
0.0
10
75.7253036499023
20
81.0095977783203
40
0.0
41
0.0
42
0.0
10
75.5028991699219
20
81.3790969848633
40
0.0
41
0.0
42
0.0
10
75.390998840332
20
81.50830078125
40
0.0
41
0.0
42
0.0
10
75.2624969482422
20
81.7720031738281
40
0.0
41
0.0
42
0.0
10
75.1457977294922
20
82.0
40
0.0
41
0.0
42
0.0
10
75.2833023071289
20
82.2716979980469
40
0.0
41
0.0
42
0.0
10
75.408203125
20
82.4951019287109
40
0.0
41
0.0
42
0.0
10
75.5086975097656
20
82.5542984008789
40
0.0
41
0.0
42
0.0
10
75.5619964599609
20
82.5912017822266
40
0.0
41
0.0
42
0.0
10
75.7827987670898
20
82.7518005371094
40
0.0
41
0.0
42
0.0
10
75.9493026733398
20
82.8751983642578
40
0.0
41
0.0
42
0.0
10
76.0074996948242
20
82.9207000732422
40
0.0
41
0.0
42
0.0
10
76.1185989379883
20
82.9980010986328
40
0.0
41
0.0
42
0.0
10
76.2556991577148
20
83.067497253418
40
0.0
41
0.0
42
0.0
10
76.5117034912109
20
83.1889038085938
40
0.0
41
0.0
42
0.0
10
76.7580032348633
20
83.2819976806641
40
0.0
41
0.0
42
0.0
10
77.0151977539062
20
83.3665008544922
40
0.0
41
0.0
42
0.0
10
77.3685989379883
20
83.4160003662109
40
0.0
41
0.0
42
0.0
10
77.5014038085938
20
83.4375
40
0.0
41
0.0
42
0.0
10
77.9876022338867
20
83.3712997436523
40
0.0
41
0.0
42
0.0
10
78.3870010375977
20
83.1017990112305
40
0.0
41
0.0
42
0.0
10
78.4946975708008
20
83.0318984985352
40
0.0
41
0.0
42
0.0
10
78.5222015380859
20
82.9932022094727
40
0.0
41
0.0
42
0.0
10
78.5626983642578
20
82.9492034912109
40
0.0
41
0.0
42
0.0
10
78.725700378418
20
82.7474975585938
40
0.0
41
0.0
42
0.0
10
78.9028015136719
20
82.4912033081055
40
0.0
41
0.0
42
0.0
10
78.9983978271484
20
82.3265991210938
40
0.0
41
0.0
42
0.0
10
79.1171035766602
20
82.0915985107422
40
0.0
41
0.0
42
0.0
10
79.1673965454102
20
81.9885025024414
40
0.0
41
0.0
42
0.0
10
79.2720031738281
20
81.7319030761719
40
0.0
41
0.0
42
0.0
10
79.3461990356445
20
81.4831008911133
40
0.0
41
0.0
42
0.0
10
79.3481979370117
20
81.2386016845703
40
0.0
41
0.0
42
0.0
10
79.4319000244141
20
81.0031967163086
40
0.0
41
0.0
42
0.0
10
79.3043975830078
20
80.8169021606445
40
0.0
41
0.0
42
0.0
10
79.296501159668
20
80.5150985717773
40
0.0
41
0.0
42
0.0
10
79.1978988647461
20
80.3005981445312
40
0.0
41
0.0
42
0.0
10
79.0827026367188
20
80.3226013183594
40
0.0
41
0.0
42
0.0
10
79.0175018310547
20
80.3382034301758
40
0.0
41
0.0
42
0.0
10
78.986198425293
20
80.3380966186523
40
0.0
41
0.0
42
0.0
10
78.8793029785156
20
80.2678985595703
40
0.0
41
0.0
42
0.0
10
78.7265014648438
20
80.2444000244141
40
0.0
41
0.0
42
0.0
10
78.5892028808594
20
80.1942977905273
40
0.0
41
0.0
42
0.0
10
78.4843978881836
20
80.185302734375
40
0.0
41
0.0
42
0.0
10
77.9876022338867
20
80.0108032226562
40
0.0
41
0.0
42
0.0
10
77.964599609375
20
80.0010986328125
40
0.0
41
0.0
42
0.0
10
77.4922027587891
20
79.7331008911133
40
0.0
41
0.0
42
0.0
10
77.2368011474609
20
79.5093002319336
40
0.0
41
0.0
42
0.0
10
77.1940002441406
20
79.2070999145508
40
0.0
41
0.0
42
0.0
10
77.1780014038086
20
79.1766967773438
40
0.0
41
0.0
42
0.0
10
77.0836029052734
20
79.0142974853516
40
0.0
41
0.0
42
0.0
10
77.0835037231445
20
78.9813003540039
40
0.0
41
0.0
42
0.0
10
77.1126022338867
20
78.7508010864258
40
0.0
41
0.0
42
0.0
10
77.0748977661133
20
78.5183029174805
40
0.0
41
0.0
42
0.0
10
77.0747985839844
20
78.481201171875
40
0.0
41
0.0
42
0.0
10
77.1036987304688
20
78.2460021972656
40
0.0
41
0.0
42
0.0
10
77.0943984985352
20
78.0195007324219
40
0.0
41
0.0
42
0.0
10
77.0942993164062
20
77.9825973510742
40
0.0
41
0.0
42
0.0
10
77.1583023071289
20
77.7304000854492
40
0.0
41
0.0
42
0.0
10
77.2268981933594
20
77.4937973022461
40
0.0
41
0.0
42
0.0
10
77.3632965087891
20
77.4140014648438
40
0.0
41
0.0
42
0.0
10
77.4831008911133
20
77.3778991699219
40
0.0
41
0.0
42
0.0
10
77.5186996459961
20
77.377799987793
40
0.0
41
0.0
42
0.0
10
77.7580032348633
20
77.4064025878906
40
0.0
41
0.0
42
0.0
10
77.9815979003906
20
77.3873977661133
40
0.0
41
0.0
42
0.0
10
78.225700378418
20
77.3702011108398
40
0.0
41
0.0
42
0.0
10
78.2627029418945
20
77.3701019287109
40
0.0
41
0.0
42
0.0
10
78.5141983032227
20
77.4235000610352
40
0.0
41
0.0
42
0.0
10
78.9175033569336
20
77.5005035400391
40
0.0
41
0.0
42
0.0
10
78.9627990722656
20
77.5110015869141
40
0.0
41
0.0
42
0.0
10
79.0077972412109
20
77.5335998535156
40
0.0
41
0.0
42
0.0
10
79.493896484375
20
77.9925003051758
40
0.0
41
0.0
42
0.0
10
79.6314010620117
20
78.2880020141602
40
0.0
41
0.0
42
0.0
10
79.6937026977539
20
78.4854965209961
40
0.0
41
0.0
42
0.0
10
79.7518997192383
20
78.7401962280273
40
0.0
41
0.0
42
0.0
10
79.8209991455078
20
78.9852981567383
40
0.0
41
0.0
42
0.0
10
79.9244003295898
20
79.4038009643555
40
0.0
41
0.0
42
0.0
10
79.9269027709961
20
79.5177001953125
40
0.0
41
0.0
42
0.0
10
79.9098968505859
20
79.5886993408203
40
0.0
41
0.0
42
0.0
10
80.0065002441406
20
79.6876983642578
40
0.0
41
0.0
42
0.0
10
80.4776000976562
20
79.9988021850586
40
0.0
41
0.0
42
0.0
10
80.4947967529297
20
80.0050964355469
40
0.0
41
0.0
42
0.0
10
80.5483016967773
20
80.0008010864258
40
0.0
41
0.0
42
0.0
10
80.9222030639648
20
79.9583969116211
40
0.0
41
0.0
42
0.0
10
80.9586029052734
20
79.9582977294922
40
0.0
41
0.0
42
0.0
10
80.9974975585938
20
79.967399597168
40
0.0
41
0.0
42
0.0
10
81.249397277832
20
79.8850021362305
40
0.0
41
0.0
42
0.0
10
81.4852981567383
20
79.8506011962891
40
0.0
41
0.0
42
0.0
10
81.7422027587891
20
79.7518997192383
40
0.0
41
0.0
42
0.0
10
81.9881973266602
20
79.665901184082
40
0.0
41
0.0
42
0.0
10
82.245002746582
20
79.5338973999023
40
0.0
41
0.0
42
0.0
10
82.3062973022461
20
79.497802734375
40
0.0
41
0.0
42
0.0
10
82.4929962158203
20
79.3790969848633
40
0.0
41
0.0
42
0.0
10
82.8246002197266
20
79.0602035522461
40
0.0
41
0.0
42
0.0
10
82.9031982421875
20
78.9934997558594
40
0.0
41
0.0
42
0.0
10
82.9974975585938
20
78.8246002197266
40
0.0
41
0.0
42
0.0
10
83.0586013793945
20
78.7445983886719
40
0.0
41
0.0
42
0.0
10
83.1346969604492
20
78.4884033203125
40
0.0
41
0.0
42
0.0
10
83.1231994628906
20
78.2643966674805
40
0.0
41
0.0
42
0.0
10
83.1231002807617
20
78.2264022827148
40
0.0
41
0.0
42
0.0
10
83.154296875
20
78.0037002563477
40
0.0
41
0.0
42
0.0
10
83.1006011962891
20
77.7611999511719
40
0.0
41
0.0
42
0.0
10
83.064697265625
20
77.5149993896484
40
0.0
41
0.0
42
0.0
10
82.9998016357422
20
77.3224029541016
40
0.0
41
0.0
42
0.0
10
82.910400390625
20
77.0782012939453
40
0.0
41
0.0
42
0.0
10
82.8878021240234
20
77.0122985839844
40
0.0
41
0.0
42
0.0
10
82.7736968994141
20
76.755500793457
40
0.0
41
0.0
42
0.0
10
82.6340026855469
20
76.5103988647461
40
0.0
41
0.0
42
0.0
10
82.5192031860352
20
76.2552032470703
40
0.0
41
0.0
42
0.0
10
82.4953002929688
20
76.2154998779297
40
0.0
41
0.0
42
0.0
10
82.154296875
20
76.0042037963867
40
0.0
41
0.0
42
0.0
10
81.9969024658203
20
75.7920989990234
40
0.0
41
0.0
42
0.0
10
81.5463027954102
20
75.9998016357422
40
0.0
41
0.0
42
0.0
10
81.5130004882812
20
76.0065994262695
40
0.0
41
0.0
42
0.0
10
81.2985992431641
20
76.1151962280273
40
0.0
41
0.0
42
0.0
10
80.756103515625
20
76.3731002807617
40
0.0
41
0.0
42
0.0
10
80.513298034668
20
76.4817962646484
40
0.0
41
0.0
42
0.0
10
80.4318008422852
20
76.499397277832
40
0.0
41
0.0
42
0.0
10
80.1623992919922
20
76.5622024536133
40
0.0
41
0.0
42
0.0
10
80.0162963867188
20
76.6157989501953
40
0.0
41
0.0
42
0.0
10
79.9826965332031
20
76.6156997680664
40
0.0
41
0.0
42
0.0
10
79.5363006591797
20
76.499397277832
40
0.0
41
0.0
42
0.0
10
79.4882965087891
20
76.4908981323242
40
0.0
41
0.0
42
0.0
10
79.370002746582
20
76.4064025878906
40
0.0
41
0.0
42
0.0
10
79.13330078125
20
76.2484970092773
40
0.0
41
0.0
42
0.0
10
78.9965972900391
20
76.1194000244141
40
0.0
41
0.0
42
0.0
10
78.9329986572266
20
76.0086975097656
40
0.0
41
0.0
42
0.0
10
78.9233016967773
20
75.9945983886719
40
0.0
41
0.0
42
0.0
10
78.7500991821289
20
75.7863998413086
40
0.0
41
0.0
42
0.0
10
78.495002746582
20
75.5572967529297
40
0.0
41
0.0
42
0.0
10
78.4601974487305
20
75.5176010131836
40
0.0
41
0.0
42
0.0
10
78.4449005126953
20
75.5074996948242
40
0.0
41
0.0
42
0.0
10
78.4004974365234
20
75.2602005004883
40
0.0
41
0.0
42
0.0
10
78.3320999145508
20
75.0169982910156
40
0.0
41
0.0
42
0.0
10
78.3320007324219
20
74.9882965087891
40
0.0
41
0.0
42
0.0
10
78.4263000488281
20
74.8886032104492
40
0.0
41
0.0
42
0.0
10
78.4907989501953
20
74.8576965332031
40
0.0
41
0.0
42
0.0
10
78.7494964599609
20
74.6650009155273
40
0.0
41
0.0
42
0.0
10
78.9944000244141
20
74.3676986694336
40
0.0
41
0.0
42
0.0
10
79.4409027099609
20
74.0479965209961
40
0.0
41
0.0
42
0.0
10
79.4878997802734
20
74.0182037353516
40
0.0
41
0.0
42
0.0
10
79.576301574707
20
74.0001983642578
40
0.0
41
0.0
42
0.0
10
79.9831008911133
20
73.8772964477539
40
0.0
41
0.0
42
0.0
10
80.0169982910156
20
73.8772964477539
40
0.0
41
0.0
42
0.0
10
80.4527969360352
20
74.0001983642578
40
0.0
41
0.0
42
0.0
10
80.5126037597656
20
74.0142974853516
40
0.0
41
0.0
42
0.0
10
81.0096969604492
20
74.2743988037109
40
0.0
41
0.0
42
0.0
10
81.3792037963867
20
74.4970016479492
40
0.0
41
0.0
42
0.0
10
81.5082015991211
20
74.6088027954102
40
0.0
41
0.0
42
0.0
10
81.9988021850586
20
74.8535995483398
40
0.0
41
0.0
42
0.0
10
82.2117004394531
20
74.7202987670898
40
0.0
41
0.0
42
0.0
10
82.4945983886719
20
74.592399597168
40
0.0
41
0.0
42
0.0
10
82.5542984008789
20
74.4912033081055
40
0.0
41
0.0
42
0.0
10
82.5911026000977
20
74.4377975463867
40
0.0
41
0.0
42
0.0
10
82.8750991821289
20
74.0503997802734
40
0.0
41
0.0
42
0.0
10
82.9207000732422
20
73.9924011230469
40
0.0
41
0.0
42
0.0
10
82.9980010986328
20
73.881103515625
40
0.0
41
0.0
42
0.0
10
83.067497253418
20
73.7442016601562
40
0.0
41
0.0
42
0.0
10
83.1887969970703
20
73.4881973266602
40
0.0
41
0.0
42
0.0
10
83.2819976806641
20
73.2418975830078
40
0.0
41
0.0
42
0.0
10
83.3665008544922
20
72.9847030639648
40
0.0
41
0.0
42
0.0
10
83.4160003662109
20
72.6312026977539
40
0.0
41
0.0
42
0.0
10
83.4375
20
72.4984970092773
40
0.0
41
0.0
42
0.0
10
83.3714981079102
20
72.0141983032227
40
0.0
41
0.0
42
0.0
10
83.3647994995117
20
71.9990997314453
40
0.0
41
0.0
42
0.0
10
83.203498840332
20
71.7537002563477
40
0.0
41
0.0
42
0.0
10
83.0913009643555
20
71.5708999633789
40
0.0
41
0.0
42
0.0
10
83.0306015014648
20
71.5040969848633
40
0.0
41
0.0
42
0.0
10
82.9932022094727
20
71.4776000976562
40
0.0
41
0.0
42
0.0
10
82.9492034912109
20
71.4369964599609
40
0.0
41
0.0
42
0.0
10
82.7474975585938
20
71.2740020751953
40
0.0
41
0.0
42
0.0
10
82.4912033081055
20
71.0969009399414
40
0.0
41
0.0
42
0.0
10
82.3266983032227
20
71.0015029907227
40
0.0
41
0.0
42
0.0
10
82.0916976928711
20
70.882698059082
40
0.0
41
0.0
42
0.0
10
81.9876022338867
20
70.831901550293
40
0.0
41
0.0
42
0.0
10
81.7418975830078
20
70.7585983276367
40
0.0
41
0.0
42
0.0
10
81.4841995239258
20
70.6536026000977
40
0.0
41
0.0
42
0.0
10
81.2387008666992
20
70.651496887207
40
0.0
41
0.0
42
0.0
10
81.0031967163086
20
70.5678024291992
40
0.0
41
0.0
42
0.0
10
80.8169021606445
20
70.6952972412109
40
0.0
41
0.0
42
0.0
10
80.5150985717773
20
70.7032012939453
40
0.0
41
0.0
42
0.0
10
80.3006973266602
20
70.8019027709961
40
0.0
41
0.0
42
0.0
10
80.3227005004883
20
70.9169998168945
40
0.0
41
0.0
42
0.0
10
80.3382034301758
20
70.9823989868164
40
0.0
41
0.0
42
0.0
10
80.3380966186523
20
71.0136032104492
40
0.0
41
0.0
42
0.0
10
80.2677993774414
20
71.1204986572266
40
0.0
41
0.0
42
0.0
10
80.2444000244141
20
71.2733001708984
40
0.0
41
0.0
42
0.0
10
80.1942977905273
20
71.4105987548828
40
0.0
41
0.0
42
0.0
10
80.185302734375
20
71.5155029296875
40
0.0
41
0.0
42
0.0
10
80.0108032226562
20
72.0122985839844
40
0.0
41
0.0
42
0.0
10
80.0010986328125
20
72.0352020263672
40
0.0
41
0.0
42
0.0
10
79.7330017089844
20
72.507698059082
40
0.0
41
0.0
42
0.0
10
79.5093002319336
20
72.7629013061523
40
0.0
41
0.0
42
0.0
10
79.2070999145508
20
72.8058013916016
40
0.0
41
0.0
42
0.0
10
79.1766967773438
20
72.8217010498047
40
0.0
41
0.0
42
0.0
10
79.0142974853516
20
72.9162979125977
40
0.0
41
0.0
42
0.0
10
78.9813003540039
20
72.9161987304688
40
0.0
41
0.0
42
0.0
10
78.7508010864258
20
72.8871002197266
40
0.0
41
0.0
42
0.0
10
78.5183029174805
20
72.9250030517578
40
0.0
41
0.0
42
0.0
10
78.481201171875
20
72.9248962402344
40
0.0
41
0.0
42
0.0
10
78.2460021972656
20
72.8960037231445
40
0.0
41
0.0
42
0.0
10
78.0195007324219
20
72.9055023193359
40
0.0
41
0.0
42
0.0
10
77.9829025268555
20
72.905403137207
40
0.0
41
0.0
42
0.0
10
77.7405014038086
20
72.8352966308594
40
0.0
41
0.0
42
0.0
10
77.4935989379883
20
72.7724990844727
40
0.0
41
0.0
42
0.0
10
77.4139022827148
20
72.6364974975586
40
0.0
41
0.0
42
0.0
10
77.3778991699219
20
72.5168991088867
40
0.0
41
0.0
42
0.0
10
77.377799987793
20
72.481201171875
40
0.0
41
0.0
42
0.0
10
77.4064025878906
20
72.2418975830078
40
0.0
41
0.0
42
0.0
10
77.3873977661133
20
72.0183029174805
40
0.0
41
0.0
42
0.0
10
77.3702011108398
20
71.7742004394531
40
0.0
41
0.0
42
0.0
10
77.3701019287109
20
71.7370986938477
40
0.0
41
0.0
42
0.0
10
77.4237976074219
20
71.4841003417969
40
0.0
41
0.0
42
0.0
10
77.5003967285156
20
71.0822982788086
40
0.0
41
0.0
42
0.0
10
77.5110015869141
20
71.0370025634766
40
0.0
41
0.0
42
0.0
10
77.5335998535156
20
70.9921035766602
40
0.0
41
0.0
42
0.0
10
77.9924011230469
20
70.5057983398438
40
0.0
41
0.0
42
0.0
10
78.2880020141602
20
70.3683013916016
40
0.0
41
0.0
42
0.0
10
78.4858016967773
20
70.3059997558594
40
0.0
41
0.0
42
0.0
10
78.7509994506836
20
70.2342987060547
40
0.0
41
0.0
42
0.0
10
78.9849014282227
20
70.1788024902344
40
0.0
41
0.0
42
0.0
10
79.4038009643555
20
70.0753021240234
40
0.0
41
0.0
42
0.0
10
79.5177001953125
20
70.0727996826172
40
0.0
41
0.0
42
0.0
10
79.5886993408203
20
70.0897979736328
40
0.0
41
0.0
42
0.0
10
79.6876983642578
20
69.9934005737305
40
0.0
41
0.0
42
0.0
10
79.9988021850586
20
69.5223007202148
40
0.0
41
0.0
42
0.0
10
80.0050964355469
20
69.5050964355469
40
0.0
41
0.0
42
0.0
10
80.0008010864258
20
69.4515991210938
40
0.0
41
0.0
42
0.0
10
79.9583969116211
20
69.0775985717773
40
0.0
41
0.0
42
0.0
10
79.9582977294922
20
69.0411987304688
40
0.0
41
0.0
42
0.0
10
79.967399597168
20
69.0024032592773
40
0.0
41
0.0
42
0.0
10
79.8850021362305
20
68.7503967285156
40
0.0
41
0.0
42
0.0
10
79.8506011962891
20
68.5146026611328
40
0.0
41
0.0
42
0.0
10
79.7519989013672
20
68.257698059082
40
0.0
41
0.0
42
0.0
10
79.665901184082
20
68.0117034912109
40
0.0
41
0.0
42
0.0
10
79.5339965820312
20
67.7547988891602
40
0.0
41
0.0
42
0.0
10
79.4979019165039
20
67.6934967041016
40
0.0
41
0.0
42
0.0
10
79.380500793457
20
67.5091018676758
40
0.0
41
0.0
42
0.0
10
79.3454971313477
20
67.4475021362305
40
0.0
41
0.0
42
0.0
10
79.1504974365234
20
67.2507019042969
40
0.0
41
0.0
42
0.0
10
79.0554962158203
20
67.1389007568359
40
0.0
41
0.0
42
0.0
10
78.9909973144531
20
67.095100402832
40
0.0
41
0.0
42
0.0
10
78.8247985839844
20
67.0024032592773
40
0.0
41
0.0
42
0.0
10
78.7485961914062
20
66.9430999755859
40
0.0
41
0.0
42
0.0
10
78.4843978881836
20
66.863899230957
40
0.0
41
0.0
42
0.0
10
78.246696472168
20
66.8307037353516
40
0.0
41
0.0
42
0.0
10
78.0178985595703
20
66.8424987792969
40
0.0
41
0.0
42
0.0
10
77.7711029052734
20
66.8784027099609
40
0.0
41
0.0
42
0.0
10
77.5142974853516
20
66.9354019165039
40
0.0
41
0.0
42
0.0
10
77.3224029541016
20
67.0
40
0.0
41
0.0
42
0.0
10
77.0782012939453
20
67.0893020629883
40
0.0
41
0.0
42
0.0
10
77.0111999511719
20
67.1121978759766
40
0.0
41
0.0
42
0.0
10
76.7654037475586
20
67.2526016235352
40
0.0
41
0.0
42
0.0
10
76.2552032470703
20
67.4804992675781
40
0.0
41
0.0
42
0.0
10
76.2154006958008
20
67.5046005249023
40
0.0
41
0.0
42
0.0
10
76.0040969848633
20
67.8453979492188
40
0.0
41
0.0
42
0.0
10
75.7921981811523
20
68.0030975341797
40
0.0
41
0.0
42
0.0
10
75.9999008178711
20
68.453498840332
40
0.0
41
0.0
42
0.0
10
76.0065994262695
20
68.4869003295898
40
0.0
41
0.0
42
0.0
10
76.1153030395508
20
68.7012023925781
40
0.0
41
0.0
42
0.0
10
76.3731994628906
20
69.2436981201172
40
0.0
41
0.0
42
0.0
10
76.4817962646484
20
69.4865036010742
40
0.0
41
0.0
42
0.0
10
76.499397277832
20
69.568000793457
40
0.0
41
0.0
42
0.0
10
76.5622024536133
20
69.83740234375
40
0.0
41
0.0
42
0.0
10
76.6157989501953
20
69.9835968017578
40
0.0
41
0.0
42
0.0
10
76.6156997680664
20
70.0171966552734
40
0.0
41
0.0
42
0.0
10
76.499397277832
20
70.4635009765625
40
0.0
41
0.0
42
0.0
10
76.4907989501953
20
70.5115966796875
40
0.0
41
0.0
42
0.0
10
76.4063034057617
20
70.6297988891602
40
0.0
41
0.0
42
0.0
10
76.2483978271484
20
70.8665008544922
40
0.0
41
0.0
42
0.0
10
76.1193008422852
20
71.0031967163086
40
0.0
41
0.0
42
0.0
10
76.0086975097656
20
71.0667037963867
40
0.0
41
0.0
42
0.0
10
75.9945983886719
20
71.0764007568359
40
0.0
41
0.0
42
0.0
10
75.7863998413086
20
71.2497024536133
40
0.0
41
0.0
42
0.0
10
75.5572967529297
20
71.5048980712891
40
0.0
41
0.0
42
0.0
10
75.5176010131836
20
71.5394973754883
40
0.0
41
0.0
42
0.0
10
75.5066986083984
20
71.5559005737305
40
0.0
41
0.0
42
0.0
10
75.2702026367188
20
71.6223983764648
40
0.0
41
0.0
42
0.0
10
75.0180969238281
20
71.6678009033203
40
0.0
41
0.0
42
0.0
10
74.9882965087891
20
71.6677017211914
40
0.0
41
0.0
42
0.0
10
74.8886032104492
20
71.573600769043
40
0.0
41
0.0
42
0.0
10
74.8576965332031
20
71.5090026855469
40
0.0
41
0.0
42
0.0
10
74.6651000976562
20
71.2502975463867
40
0.0
41
0.0
42
0.0
10
74.3684005737305
20
71.006103515625
40
0.0
41
0.0
42
0.0
10
74.2170028686523
20
70.752799987793
40
0.0
41
0.0
42
0.0
10
74.0178985595703
20
70.5106964111328
40
0.0
41
0.0
42
0.0
10
74.0001983642578
20
70.4235000610352
40
0.0
41
0.0
42
0.0
10
73.8772964477539
20
70.0167999267578
40
0.0
41
0.0
42
0.0
10
73.877197265625
20
69.9829025268555
40
0.0
41
0.0
42
0.0
10
74.0001983642578
20
69.5469970703125
40
0.0
41
0.0
42
0.0
10
74.0142974853516
20
69.4872970581055
40
0.0
41
0.0
42
0.0
10
74.2743988037109
20
68.9901962280273
40
0.0
41
0.0
42
0.0
10
74.4969024658203
20
68.6205978393555
40
0.0
41
0.0
42
0.0
10
74.6088027954102
20
68.4916000366211
40
0.0
41
0.0
42
0.0
10
74.7370986938477
20
68.2277984619141
40
0.0
41
0.0
42
0.0
10
74.8539962768555
20
67.9999008178711
40
0.0
41
0.0
42
0.0
10
74.7164993286133
20
67.7281036376953
40
0.0
41
0.0
42
0.0
10
74.5915985107422
20
67.5047988891602
40
0.0
41
0.0
42
0.0
10
74.49169921875
20
67.4457015991211
40
0.0
41
0.0
42
0.0
10
74.3638000488281
20
67.3491973876953
40
0.0
41
0.0
42
0.0
10
74.2171020507812
20
67.2480010986328
40
0.0
41
0.0
42
0.0
10
74.1006011962891
20
67.1566009521484
40
0.0
41
0.0
42
0.0
10
73.9921035766602
20
67.0787963867188
40
0.0
41
0.0
42
0.0
10
73.8812026977539
20
67.0018005371094
40
0.0
41
0.0
42
0.0
10
73.7442016601562
20
66.9321975708008
40
0.0
41
0.0
42
0.0
10
73.4881973266602
20
66.8108978271484
40
0.0
41
0.0
42
0.0
10
73.2419967651367
20
66.7176971435547
40
0.0
41
0.0
42
0.0
10
72.9847030639648
20
66.6332015991211
40
0.0
41
0.0
42
0.0
10
72.6312026977539
20
66.5837020874023
40
0.0
41
0.0
42
0.0
10
72.4984970092773
20
66.5622024536133
40
0.0
41
0.0
42
0.0
10
72.0140991210938
20
66.6281967163086
40
0.0
41
0.0
42
0.0
10
71.9990005493164
20
66.6349029541016
40
0.0
41
0.0
42
0.0
10
71.7537002563477
20
66.7962036132812
40
0.0
41
0.0
42
0.0
10
71.57080078125
20
66.9085006713867
40
0.0
41
0.0
42
0.0
10
71.5040969848633
20
66.9692993164062
40
0.0
41
0.0
42
0.0
10
71.4775009155273
20
67.0065994262695
40
0.0
41
0.0
42
0.0
10
71.4369964599609
20
67.0505981445312
40
0.0
41
0.0
42
0.0
10
71.2740020751953
20
67.2522964477539
40
0.0
41
0.0
42
0.0
10
71.0968017578125
20
67.5086975097656
40
0.0
41
0.0
42
0.0
10
71.0014038085938
20
67.6732025146484
40
0.0
41
0.0
42
0.0
10
70.8825988769531
20
67.9080963134766
40
0.0
41
0.0
42
0.0
10
70.8318023681641
20
68.0122985839844
40
0.0
41
0.0
42
0.0
10
70.7584991455078
20
68.2578964233398
40
0.0
41
0.0
42
0.0
10
70.6536026000977
20
68.5157012939453
40
0.0
41
0.0
42
0.0
10
70.6513977050781
20
68.7611999511719
40
0.0
41
0.0
42
0.0
10
70.5679016113281
20
68.996696472168
40
0.0
41
0.0
42
0.0
10
70.6952972412109
20
69.1828994750977
40
0.0
41
0.0
42
0.0
10
70.7033004760742
20
69.4848022460938
40
0.0
41
0.0
42
0.0
10
70.802001953125
20
69.6989974975586
40
0.0
41
0.0
42
0.0
10
70.9169998168945
20
69.6771011352539
40
0.0
41
0.0
42
0.0
10
70.9823989868164
20
69.6616973876953
40
0.0
41
0.0
42
0.0
10
71.0184020996094
20
69.6615982055664
40
0.0
41
0.0
42
0.0
10
71.1175003051758
20
69.6768035888672
40
0.0
41
0.0
42
0.0
10
71.2725982666016
20
69.7554016113281
40
0.0
41
0.0
42
0.0
10
71.3848037719727
20
69.7667999267578
40
0.0
41
0.0
42
0.0
10
71.5129013061523
20
69.8134994506836
40
0.0
41
0.0
42
0.0
10
72.0122985839844
20
69.988899230957
40
0.0
41
0.0
42
0.0
10
72.0352020263672
20
69.9987030029297
40
0.0
41
0.0
42
0.0
10
72.507698059082
20
70.2667007446289
40
0.0
41
0.0
42
0.0
10
72.7630004882812
20
70.4906005859375
40
0.0
41
0.0
42
0.0
10
72.8058013916016
20
70.7927017211914
40
0.0
41
0.0
42
0.0
10
72.8217010498047
20
70.8230972290039
40
0.0
41
0.0
42
0.0
10
72.9162979125977
20
70.9856033325195
40
0.0
41
0.0
42
0.0
10
72.9161987304688
20
71.0186004638672
40
0.0
41
0.0
42
0.0
10
72.8871002197266
20
71.2490005493164
40
0.0
41
0.0
42
0.0
10
72.9250030517578
20
71.4815979003906
40
0.0
41
0.0
42
0.0
10
72.9248962402344
20
71.5186996459961
40
0.0
41
0.0
42
0.0
10
72.8960037231445
20
71.7538986206055
40
0.0
41
0.0
42
0.0
10
72.9055023193359
20
71.9804000854492
40
0.0
41
0.0
42
0.0
10
72.905403137207
20
72.0169982910156
40
0.0
41
0.0
42
0.0
10
72.8351974487305
20
72.2593994140625
40
0.0
41
0.0
42
0.0
10
72.7724990844727
20
72.5062026977539
40
0.0
41
0.0
42
0.0
10
72.6364974975586
20
72.5858001708984
40
0.0
41
0.0
42
0.0
10
72.515998840332
20
72.6221008300781
40
0.0
41
0.0
42
0.0
10
72.2741012573242
20
72.6427993774414
40
0.0
41
0.0
42
0.0
10
72.236198425293
20
72.6427001953125
40
0.0
41
0.0
42
0.0
10
71.9953994750977
20
72.6138000488281
40
0.0
41
0.0
42
0.0
10
71.7742004394531
20
72.6296997070312
40
0.0
41
0.0
42
0.0
10
71.7371978759766
20
72.6296005249023
40
0.0
41
0.0
42
0.0
10
71.4841003417969
20
72.5758972167969
40
0.0
41
0.0
42
0.0
10
71.0822982788086
20
72.499397277832
40
0.0
41
0.0
42
0.0
10
71.0371017456055
20
72.4888000488281
40
0.0
41
0.0
42
0.0
10
70.9921035766602
20
72.4662017822266
40
0.0
41
0.0
42
0.0
10
70.5058975219727
20
72.0074996948242
40
0.0
41
0.0
42
0.0
10
70.3684005737305
20
71.711799621582
40
0.0
41
0.0
42
0.0
10
70.3062973022461
20
71.5145034790039
40
0.0
41
0.0
42
0.0
10
70.2620010375977
20
71.315299987793
40
0.0
41
0.0
42
0.0
10
70.2409973144531
20
71.2321014404297
40
0.0
41
0.0
42
0.0
10
70.1787033081055
20
71.0146026611328
40
0.0
41
0.0
42
0.0
10
70.0753021240234
20
70.5960006713867
40
0.0
41
0.0
42
0.0
10
70.0727996826172
20
70.4822006225586
40
0.0
41
0.0
42
0.0
10
70.0898971557617
20
70.4111022949219
40
0.0
41
0.0
42
0.0
10
69.9934005737305
20
70.3121032714844
40
0.0
41
0.0
42
0.0
10
69.5223999023438
20
70.0010986328125
40
0.0
41
0.0
42
0.0
10
69.5050964355469
20
69.9945983886719
40
0.0
41
0.0
42
0.0
10
69.4515991210938
20
69.9990005493164
40
0.0
41
0.0
42
0.0
10
69.0775985717773
20
70.0414962768555
40
0.0
41
0.0
42
0.0
10
69.0411987304688
20
70.0413970947266
40
0.0
41
0.0
42
0.0
10
69.0024032592773
20
70.0323028564453
40
0.0
41
0.0
42
0.0
10
68.7502975463867
20
70.1147003173828
40
0.0
41
0.0
42
0.0
10
68.5146026611328
20
70.1491012573242
40
0.0
41
0.0
42
0.0
10
68.257698059082
20
70.2477035522461
40
0.0
41
0.0
42
0.0
10
68.0115966796875
20
70.3338012695312
40
0.0
41
0.0
42
0.0
10
67.7547988891602
20
70.4656982421875
40
0.0
41
0.0
42
0.0
10
67.6933975219727
20
70.5019989013672
40
0.0
41
0.0
42
0.0
10
67.5091018676758
20
70.6192016601562
40
0.0
41
0.0
42
0.0
10
67.4475021362305
20
70.6541976928711
40
0.0
41
0.0
42
0.0
10
67.2507019042969
20
70.8491973876953
40
0.0
41
0.0
42
0.0
10
67.138801574707
20
70.9442977905273
40
0.0
41
0.0
42
0.0
10
67.095100402832
20
71.008903503418
40
0.0
41
0.0
42
0.0
10
67.0024032592773
20
71.1750030517578
40
0.0
41
0.0
42
0.0
10
66.9430999755859
20
71.2511978149414
40
0.0
41
0.0
42
0.0
10
66.863899230957
20
71.5155029296875
40
0.0
41
0.0
42
0.0
10
66.8308029174805
20
71.7531967163086
40
0.0
41
0.0
42
0.0
10
66.8424987792969
20
71.9820022583008
40
0.0
41
0.0
42
0.0
10
66.8784027099609
20
72.2287979125977
40
0.0
41
0.0
42
0.0
10
66.9354019165039
20
72.4856033325195
40
0.0
41
0.0
42
0.0
10
67.0000991821289
20
72.6773986816406
40
0.0
41
0.0
42
0.0
10
67.0893020629883
20
72.9216003417969
40
0.0
41
0.0
42
0.0
10
67.1122970581055
20
72.9887008666992
40
0.0
41
0.0
42
0.0
10
67.2526016235352
20
73.2344970703125
40
0.0
41
0.0
42
0.0
10
67.4804992675781
20
73.7446975708008
40
0.0
41
0.0
42
0.0
10
67.5046005249023
20
73.7843017578125
40
0.0
41
0.0
42
0.0
10
67.8454971313477
20
73.9956970214844
40
0.0
41
0.0
42
0.0
10
68.0030975341797
20
74.2076034545898
40
0.0
41
0.0
42
0.0
10
68.453498840332
20
74.0
40
0.0
41
0.0
42
0.0
10
68.4869003295898
20
73.9931030273438
40
0.0
41
0.0
42
0.0
10
68.7012023925781
20
73.8843994140625
40
0.0
41
0.0
42
0.0
10
69.2436981201172
20
73.6265029907227
40
0.0
41
0.0
42
0.0
10
69.4865036010742
20
73.5178985595703
40
0.0
41
0.0
42
0.0
10
69.5679016113281
20
73.5003967285156
40
0.0
41
0.0
42
0.0
10
69.83740234375
20
73.4375
40
0.0
41
0.0
42
0.0
10
69.9835968017578
20
73.383903503418
40
0.0
41
0.0
42
0.0
10
70.0171966552734
20
73.3840026855469
40
0.0
41
0.0
42
0.0
10
70.4635009765625
20
73.5003967285156
40
0.0
41
0.0
42
0.0
10
70.5119018554688
20
73.508903503418
40
0.0
41
0.0
42
0.0
10
70.8664016723633
20
73.7514038085938
40
0.0
41
0.0
42
0.0
10
71.0031967163086
20
73.8804016113281
40
0.0
41
0.0
42
0.0
10
71.0668029785156
20
73.9912033081055
40
0.0
41
0.0
42
0.0
10
71.0764999389648
20
74.0052032470703
40
0.0
41
0.0
42
0.0
10
71.2498016357422
20
74.2134017944336
40
0.0
41
0.0
42
0.0
10
71.504997253418
20
74.4423980712891
40
0.0
41
0.0
42
0.0
10
71.5395965576172
20
74.4822006225586
40
0.0
41
0.0
42
0.0
10
71.5559005737305
20
74.4932022094727
40
0.0
41
0.0
42
0.0
10
71.6223983764648
20
74.7296981811523
40
0.0
41
0.0
42
0.0
10
71.6678009033203
20
74.9817962646484
40
0.0
41
0.0
42
0.0
10
71.6677017211914
20
75.0115966796875
40
0.0
41
0.0
42
0.0
10
71.5735015869141
20
75.1110992431641
40
0.0
41
0.0
42
0.0
10
71.5090026855469
20
75.1419982910156
40
0.0
41
0.0
42
0.0
10
71.2502975463867
20
75.3347015380859
40
0.0
41
0.0
42
0.0
10
71.0059967041016
20
75.6313018798828
40
0.0
41
0.0
42
0.0
10
70.752799987793
20
75.7826995849609
40
0.0
41
0.0
42
0.0
10
70.5105972290039
20
75.9817962646484
40
0.0
41
0.0
42
0.0
10
70.4235000610352
20
75.9994964599609
40
0.0
41
0.0
42
0.0
10
70.0167999267578
20
76.1225967407227
40
0.0
41
0.0
42
0.0
10
69.9829025268555
20
76.1224975585938
40
0.0
41
0.0
42
0.0
10
69.5469970703125
20
75.9996032714844
40
0.0
41
0.0
42
0.0
10
69.4873962402344
20
75.9854965209961
40
0.0
41
0.0
42
0.0
10
68.9901962280273
20
75.7253036499023
40
0.0
41
0.0
42
0.0
10
68.6205978393555
20
75.5028991699219
40
0.0
41
0.0
42
0.0
10
68.49169921875
20
75.3910980224609
40
0.0
41
0.0
42
0.0
10
68.0010986328125
20
75.1461029052734
40
0.0
41
0.0
42
0.0
10
67.7881011962891
20
75.2794036865234
40
0.0
41
0.0
42
0.0
10
67.5052032470703
20
75.4073028564453
40
0.0
41
0.0
42
0.0
10
67.4456024169922
20
75.5082015991211
40
0.0
41
0.0
42
0.0
10
67.3491973876953
20
75.6359024047852
40
0.0
41
0.0
42
0.0
10
67.2480010986328
20
75.782600402832
40
0.0
41
0.0
42
0.0
10
67.1566009521484
20
75.8992004394531
40
0.0
41
0.0
42
0.0
10
67.0786972045898
20
76.0077972412109
40
0.0
41
0.0
42
0.0
10
67.0018005371094
20
76.1185989379883
40
0.0
41
0.0
42
0.0
10
66.9321975708008
20
76.2556991577148
40
0.0
41
0.0
42
0.0
10
66.8107986450195
20
76.5117034912109
40
0.0
41
0.0
42
0.0
10
66.7176971435547
20
76.7578964233398
40
0.0
41
0.0
42
0.0
10
66.6332015991211
20
77.0151977539062
40
0.0
41
0.0
42
0.0
10
66.5864028930664
20
77.3498992919922
40
0.0
41
0.0
42
0.0
10
66.5622024536133
20
77.5014038085938
40
0.0
41
0.0
42
0.0
210
0.0
220
0.0
230
1.0
0
LWPOLYLINE
5
26
330
1C
100
AcDbEntity
67
0
8
0
62
256
6
ByLayer
370
-1
48
1.0
60
0
100
AcDbPolyline
90
46
70
1
38
0.0
39
0.0
10
67.4869003295898
20
84.2633972167969
40
0.0
41
0.0
42
0.0
10
67.7658996582031
20
84.2201995849609
40
0.0
41
0.0
42
0.0
10
67.9853973388672
20
84.1209030151367
40
0.0
41
0.0
42
0.0
10
68.1304016113281
20
84.1064987182617
40
0.0
41
0.0
42
0.0
10
68.1689987182617
20
84.1063995361328
40
0.0
41
0.0
42
0.0
10
68.5193023681641
20
84.1184997558594
40
0.0
41
0.0
42
0.0
10
68.6856994628906
20
84.1224975585938
40
0.0
41
0.0
42
0.0
10
69.0182037353516
20
84.1473007202148
40
0.0
41
0.0
42
0.0
10
69.5175018310547
20
84.1941986083984
40
0.0
41
0.0
42
0.0
10
69.8115997314453
20
84.2350006103516
40
0.0
41
0.0
42
0.0
10
70.0082015991211
20
84.271598815918
40
0.0
41
0.0
42
0.0
10
70.3056030273438
20
84.3588027954102
40
0.0
41
0.0
42
0.0
10
70.5093002319336
20
84.4503021240234
40
0.0
41
0.0
42
0.0
10
70.572998046875
20
84.4971008300781
40
0.0
41
0.0
42
0.0
10
70.6083984375
20
84.5208969116211
40
0.0
41
0.0
42
0.0
10
71.0075988769531
20
84.7519989013672
40
0.0
41
0.0
42
0.0
10
71.0268020629883
20
84.7686996459961
40
0.0
41
0.0
42
0.0
10
71.2431030273438
20
84.9885025024414
40
0.0
41
0.0
42
0.0
10
71.2431030273438
20
84.9990005493164
40
0.0
41
0.0
42
0.0
10
71.206901550293
20
84.9989013671875
40
0.0
41
0.0
42
0.0
10
71.0198974609375
20
84.8087997436523
40
0.0
41
0.0
42
0.0
10
70.9922027587891
20
84.7846984863281
40
0.0
41
0.0
42
0.0
10
70.5127029418945
20
84.5072021484375
40
0.0
41
0.0
42
0.0
10
70.4905014038086
20
84.4912033081055
40
0.0
41
0.0
42
0.0
10
70.2397994995117
20
84.3787994384766
40
0.0
41
0.0
42
0.0
10
69.9849014282227
20
84.303596496582
40
0.0
41
0.0
42
0.0
10
69.7382965087891
20
84.2573013305664
40
0.0
41
0.0
42
0.0
10
69.4823989868164
20
84.2218017578125
40
0.0
41
0.0
42
0.0
10
68.9816970825195
20
84.1750030517578
40
0.0
41
0.0
42
0.0
10
68.6929016113281
20
84.1535034179688
40
0.0
41
0.0
42
0.0
10
68.480598449707
20
84.1484985351562
40
0.0
41
0.0
42
0.0
10
68.2059020996094
20
84.1389999389648
40
0.0
41
0.0
42
0.0
10
68.0143966674805
20
84.1580963134766
40
0.0
41
0.0
42
0.0
10
67.7238006591797
20
84.2895965576172
40
0.0
41
0.0
42
0.0
10
67.5130004882812
20
84.3220977783203
40
0.0
41
0.0
42
0.0
10
67.481201171875
20
84.3397979736328
40
0.0
41
0.0
42
0.0
10
67.3750991821289
20
84.5130004882812
40
0.0
41
0.0
42
0.0
10
67.3452987670898
20
84.7878036499023
40
0.0
41
0.0
42
0.0
10
67.3883972167969
20
84.9822006225586
40
0.0
41
0.0
42
0.0
10
67.3883972167969
20
84.9990005493164
40
0.0
41
0.0
42
0.0
10
67.3604965209961
20
84.9989013671875
40
0.0
41
0.0
42
0.0
10
67.3084030151367
20
84.763298034668
40
0.0
41
0.0
42
0.0
10
67.3082962036133
20
84.7266998291016
40
0.0
41
0.0
42
0.0
10
67.3341979980469
20
84.4869003295898
40
0.0
41
0.0
42
0.0
10
67.4634017944336
20
84.2763977050781
40
0.0
41
0.0
42
0.0
10
67.4869003295898
20
84.2633972167969
40
0.0
41
0.0
42
0.0
210
0.0
220
0.0
230
1.0
0
LWPOLYLINE
5
27
330
1C
100
AcDbEntity
67
0
8
0
62
256
6
ByLayer
370
-1
48
1.0
60
0
100
AcDbPolyline
90
32
70
1
38
0.0
39
0.0
10
68.508903503418
20
65.0484008789062
40
0.0
41
0.0
42
0.0
10
68.5401000976562
20
65.0633010864258
40
0.0
41
0.0
42
0.0
10
69.0158996582031
20
65.2018966674805
40
0.0
41
0.0
42
0.0
10
69.5182037353516
20
65.2546997070312
40
0.0
41
0.0
42
0.0
10
69.7741012573242
20
65.2705001831055
40
0.0
41
0.0
42
0.0
10
70.0193023681641
20
65.2759017944336
40
0.0
41
0.0
42
0.0
10
70.2540969848633
20
65.2853012084961
40
0.0
41
0.0
42
0.0
10
70.4804000854492
20
65.2752990722656
40
0.0
41
0.0
42
0.0
10
70.7366027832031
20
65.2746963500977
40
0.0
41
0.0
42
0.0
10
70.9828033447266
20
65.2365036010742
40
0.0
41
0.0
42
0.0
10
71.2400970458984
20
65.2046966552734
40
0.0
41
0.0
42
0.0
10
71.4885025024414
20
65.1078033447266
40
0.0
41
0.0
42
0.0
10
71.6990966796875
20
65.0009994506836
40
0.0
41
0.0
42
0.0
10
71.7782974243164
20
65.0009994506836
40
0.0
41
0.0
42
0.0
10
71.7780990600586
20
65.0070037841797
40
0.0
41
0.0
42
0.0
10
71.5112991333008
20
65.1425018310547
40
0.0
41
0.0
42
0.0
10
71.3097991943359
20
65.2211990356445
40
0.0
41
0.0
42
0.0
10
71.0169982910156
20
65.2573013305664
40
0.0
41
0.0
42
0.0
10
70.8133010864258
20
65.2890014648438
40
0.0
41
0.0
42
0.0
10
70.5195007324219
20
65.2897033691406
40
0.0
41
0.0
42
0.0
10
70.3144989013672
20
65.2987976074219
40
0.0
41
0.0
42
0.0
10
70.2753982543945
20
65.298698425293
40
0.0
41
0.0
42
0.0
10
69.980598449707
20
65.2870025634766
40
0.0
41
0.0
42
0.0
10
69.7758026123047
20
65.2824020385742
40
0.0
41
0.0
42
0.0
10
69.4816970825195
20
65.2641983032227
40
0.0
41
0.0
42
0.0
10
68.984001159668
20
65.2116012573242
40
0.0
41
0.0
42
0.0
10
68.510498046875
20
65.0738983154297
40
0.0
41
0.0
42
0.0
10
68.4908981323242
20
65.0645980834961
40
0.0
41
0.0
42
0.0
10
68.4189987182617
20
65.0095977783203
40
0.0
41
0.0
42
0.0
10
68.4189987182617
20
65.0009994506836
40
0.0
41
0.0
42
0.0
10
68.4468002319336
20
65.0009002685547
40
0.0
41
0.0
42
0.0
10
68.508903503418
20
65.0484008789062
40
0.0
41
0.0
42
0.0
210
0.0
220
0.0
230
1.0
0
LWPOLYLINE
5
28
330
1C
100
AcDbEntity
67
0
8
0
62
256
6
ByLayer
370
-1
48
1.0
60
0
100
AcDbPolyline
90
95
70
1
38
0.0
39
0.0
10
73.5146026611328
20
74.7752990722656
40
0.0
41
0.0
42
0.0
10
73.7716979980469
20
74.9152984619141
40
0.0
41
0.0
42
0.0
10
73.9862976074219
20
74.7735977172852
40
0.0
41
0.0
42
0.0
10
74.015998840332
20
74.7734985351562
40
0.0
41
0.0
42
0.0
10
74.0775985717773
20
74.7975997924805
40
0.0
41
0.0
42
0.0
10
74.3775024414062
20
74.5193023681641
40
0.0
41
0.0
42
0.0
10
74.4067001342773
20
74.4979019165039
40
0.0
41
0.0
42
0.0
10
74.3790969848633
20
74.4527969360352
40
0.0
41
0.0
42
0.0
10
73.9964981079102
20
74.2485961914062
40
0.0
41
0.0
42
0.0
10
73.9469985961914
20
74.127799987793
40
0.0
41
0.0
42
0.0
10
73.7791976928711
20
74.0059967041016
40
0.0
41
0.0
42
0.0
10
73.6589965820312
20
73.7641983032227
40
0.0
41
0.0
42
0.0
10
73.6591033935547
20
73.7445983886719
40
0.0
41
0.0
42
0.0
10
73.9567031860352
20
73.6547012329102
40
0.0
41
0.0
42
0.0
10
73.9905014038086
20
73.6092987060547
40
0.0
41
0.0
42
0.0
10
74.0162963867188
20
73.6091995239258
40
0.0
41
0.0
42
0.0
10
74.1445999145508
20
73.6559982299805
40
0.0
41
0.0
42
0.0
10
74.2294006347656
20
73.7011032104492
40
0.0
41
0.0
42
0.0
10
74.2522964477539
20
73.7345962524414
40
0.0
41
0.0
42
0.0
10
74.4900970458984
20
74.3915023803711
40
0.0
41
0.0
42
0.0
10
74.7599029541016
20
74.0795974731445
40
0.0
41
0.0
42
0.0
10
74.7208023071289
20
74.0113983154297
40
0.0
41
0.0
42
0.0
10
74.6414031982422
20
73.7617034912109
40
0.0
41
0.0
42
0.0
10
74.6412963867188
20
73.7294006347656
40
0.0
41
0.0
42
0.0
10
74.6561965942383
20
73.6960983276367
40
0.0
41
0.0
42
0.0
10
74.8273010253906
20
73.4901962280273
40
0.0
41
0.0
42
0.0
10
74.9218978881836
20
73.1929016113281
40
0.0
41
0.0
42
0.0
10
74.9445037841797
20
73.1490020751953
40
0.0
41
0.0
42
0.0
10
74.9915008544922
20
73.0755004882812
40
0.0
41
0.0
42
0.0
10
75.0081024169922
20
73.0754013061523
40
0.0
41
0.0
42
0.0
10
75.0167007446289
20
73.0896987915039
40
0.0
41
0.0
42
0.0
10
75.132698059082
20
73.1967010498047
40
0.0
41
0.0
42
0.0
10
75.2263031005859
20
73.4890975952148
40
0.0
41
0.0
42
0.0
10
75.3608016967773
20
73.692497253418
40
0.0
41
0.0
42
0.0
10
75.3653030395508
20
73.7263031005859
40
0.0
41
0.0
42
0.0
10
75.3651962280273
20
73.7595977783203
40
0.0
41
0.0
42
0.0
10
75.2281036376953
20
74.0110015869141
40
0.0
41
0.0
42
0.0
10
75.2021026611328
20
74.0776977539062
40
0.0
41
0.0
42
0.0
10
75.4793014526367
20
74.3765029907227
40
0.0
41
0.0
42
0.0
10
75.5022964477539
20
74.4065017700195
40
0.0
41
0.0
42
0.0
10
75.5469970703125
20
74.3789978027344
40
0.0
41
0.0
42
0.0
10
75.7511978149414
20
73.9964981079102
40
0.0
41
0.0
42
0.0
10
75.8720016479492
20
73.9468994140625
40
0.0
41
0.0
42
0.0
10
75.9906997680664
20
73.7836990356445
40
0.0
41
0.0
42
0.0
10
76.0130996704102
20
73.7835998535156
40
0.0
41
0.0
42
0.0
10
76.0650024414062
20
73.8219985961914
40
0.0
41
0.0
42
0.0
10
76.3695983886719
20
73.6679000854492
40
0.0
41
0.0
42
0.0
10
76.383903503418
20
73.6679000854492
40
0.0
41
0.0
42
0.0
10
76.3905029296875
20
74.0164031982422
40
0.0
41
0.0
42
0.0
10
76.3438034057617
20
74.1445999145508
40
0.0
41
0.0
42
0.0
10
76.2987976074219
20
74.2294006347656
40
0.0
41
0.0
42
0.0
10
76.2652969360352
20
74.252197265625
40
0.0
41
0.0
42
0.0
10
75.6081008911133
20
74.4900970458984
40
0.0
41
0.0
42
0.0
10
75.9203033447266
20
74.7598037719727
40
0.0
41
0.0
42
0.0
10
75.9884033203125
20
74.7208023071289
40
0.0
41
0.0
42
0.0
10
76.2381973266602
20
74.6414031982422
40
0.0
41
0.0
42
0.0
10
76.2705001831055
20
74.6412963867188
40
0.0
41
0.0
42
0.0
10
76.3037033081055
20
74.6563034057617
40
0.0
41
0.0
42
0.0
10
76.5096969604492
20
74.8273010253906
40
0.0
41
0.0
42
0.0
10
76.8069000244141
20
74.9219970703125
40
0.0
41
0.0
42
0.0
10
76.8507995605469
20
74.9446029663086
40
0.0
41
0.0
42
0.0
10
76.9244003295898
20
74.9915008544922
40
0.0
41
0.0
42
0.0
10
76.9243011474609
20
75.0081024169922
40
0.0
41
0.0
42
0.0
10
76.9101028442383
20
75.0167007446289
40
0.0
41
0.0
42
0.0
10
76.8031997680664
20
75.1325988769531
40
0.0
41
0.0
42
0.0
10
76.5108032226562
20
75.2263031005859
40
0.0
41
0.0
42
0.0
10
76.3074035644531
20
75.3608016967773
40
0.0
41
0.0
42
0.0
10
76.2735977172852
20
75.3651962280273
40
0.0
41
0.0
42
0.0
10
76.2403030395508
20
75.3650970458984
40
0.0
41
0.0
42
0.0
10
76.0012969970703
20
75.2349014282227
40
0.0
41
0.0
42
0.0
10
75.946403503418
20
75.2758026123047
40
0.0
41
0.0
42
0.0
10
75.9208984375
20
75.2758026123047
40
0.0
41
0.0
42
0.0
10
75.6074981689453
20
75.0160980224609
40
0.0
41
0.0
42
0.0
10
75.5764007568359
20
75.0040969848633
40
0.0
41
0.0
42
0.0
10
75.4983978271484
20
74.7620010375977
40
0.0
41
0.0
42
0.0
10
75.2378005981445
20
74.5015029907227
40
0.0
41
0.0
42
0.0
10
75.0
20
74.4246978759766
40
0.0
41
0.0
42
0.0
10
74.7619018554688
20
74.5015029907227
40
0.0
41
0.0
42
0.0
10
74.5015029907227
20
74.7620010375977
40
0.0
41
0.0
42
0.0
10
74.4227981567383
20
75.0056991577148
40
0.0
41
0.0
42
0.0
10
74.3914031982422
20
75.0235977172852
40
0.0
41
0.0
42
0.0
10
74.0317993164062
20
75.2904968261719
40
0.0
41
0.0
42
0.0
10
74.0054016113281
20
75.2904968261719
40
0.0
41
0.0
42
0.0
10
73.9926986694336
20
75.2816009521484
40
0.0
41
0.0
42
0.0
10
73.7640991210938
20
75.0916976928711
40
0.0
41
0.0
42
0.0
10
73.5167007446289
20
75.1704025268555
40
0.0
41
0.0
42
0.0
10
73.4832000732422
20
75.1703033447266
40
0.0
41
0.0
42
0.0
10
73.193000793457
20
75.0777969360352
40
0.0
41
0.0
42
0.0
10
73.1490020751953
20
75.0551986694336
40
0.0
41
0.0
42
0.0
10
73.0755004882812
20
75.0083999633789
40
0.0
41
0.0
42
0.0
10
73.0754013061523
20
74.99169921875
40
0.0
41
0.0
42
0.0
10
73.089599609375
20
74.9831008911133
40
0.0
41
0.0
42
0.0
10
73.1966018676758
20
74.8671035766602
40
0.0
41
0.0
42
0.0
10
73.4832000732422
20
74.7753982543945
40
0.0
41
0.0
42
0.0
10
73.5146026611328
20
74.7752990722656
40
0.0
41
0.0
42
0.0
210
0.0
220
0.0
230
1.0
0
LWPOLYLINE
5
29
330
1C
100
AcDbEntity
67
0
8
0
62
256
6
ByLayer
370
-1
48
1.0
60
0
100
AcDbPolyline
90
85
70
1
38
0.0
39
0.0
10
73.257698059082
20
75.0743026733398
40
0.0
41
0.0
42
0.0
10
73.4999008178711
20
75.1516036987305
40
0.0
41
0.0
42
0.0
10
73.7381973266602
20
75.0758972167969
40
0.0
41
0.0
42
0.0
10
73.7742004394531
20
75.075798034668
40
0.0
41
0.0
42
0.0
10
73.8068008422852
20
75.0781021118164
40
0.0
41
0.0
42
0.0
10
74.0147018432617
20
75.2507019042969
40
0.0
41
0.0
42
0.0
10
74.311897277832
20
75.0301971435547
40
0.0
41
0.0
42
0.0
10
74.3750991821289
20
74.9941024780273
40
0.0
41
0.0
42
0.0
10
74.4982986450195
20
74.6127014160156
40
0.0
41
0.0
42
0.0
10
74.6125030517578
20
74.4982986450195
40
0.0
41
0.0
42
0.0
10
74.9832992553711
20
74.3787002563477
40
0.0
41
0.0
42
0.0
10
75.0167007446289
20
74.3786010742188
40
0.0
41
0.0
42
0.0
10
75.3871002197266
20
74.4983978271484
40
0.0
41
0.0
42
0.0
10
75.5015029907227
20
74.6125030517578
40
0.0
41
0.0
42
0.0
10
75.6252975463867
20
74.9959030151367
40
0.0
41
0.0
42
0.0
10
75.6885986328125
20
75.0205993652344
40
0.0
41
0.0
42
0.0
10
75.9445037841797
20
75.2325973510742
40
0.0
41
0.0
42
0.0
10
75.9869003295898
20
75.2014007568359
40
0.0
41
0.0
42
0.0
10
76.0146026611328
20
75.201301574707
40
0.0
41
0.0
42
0.0
10
76.2763977050781
20
75.3440017700195
40
0.0
41
0.0
42
0.0
10
76.4890975952148
20
75.2033004760742
40
0.0
41
0.0
42
0.0
10
76.7465972900391
20
75.1207962036133
40
0.0
41
0.0
42
0.0
10
76.8635025024414
20
74.9953002929688
40
0.0
41
0.0
42
0.0
10
76.8006973266602
20
74.9553985595703
40
0.0
41
0.0
42
0.0
10
76.7429962158203
20
74.9255981445312
40
0.0
41
0.0
42
0.0
10
76.4901962280273
20
74.845100402832
40
0.0
41
0.0
42
0.0
10
76.2772979736328
20
74.668098449707
40
0.0
41
0.0
42
0.0
10
76.0113983154297
20
74.7525024414062
40
0.0
41
0.0
42
0.0
10
75.9203033447266
20
74.8049011230469
40
0.0
41
0.0
42
0.0
10
75.893798828125
20
74.804801940918
40
0.0
41
0.0
42
0.0
10
75.552001953125
20
74.5103988647461
40
0.0
41
0.0
42
0.0
10
75.552001953125
20
74.4877014160156
40
0.0
41
0.0
42
0.0
10
76.2581024169922
20
74.2322998046875
40
0.0
41
0.0
42
0.0
10
76.2957000732422
20
74.1612014770508
40
0.0
41
0.0
42
0.0
10
76.3595962524414
20
73.9856033325195
40
0.0
41
0.0
42
0.0
10
76.3542022705078
20
73.7180023193359
40
0.0
41
0.0
42
0.0
10
76.0906982421875
20
73.8516006469727
40
0.0
41
0.0
42
0.0
10
76.0625
20
73.8516998291016
40
0.0
41
0.0
42
0.0
10
76.0014038085938
20
73.8062973022461
40
0.0
41
0.0
42
0.0
10
75.8986968994141
20
73.9477005004883
40
0.0
41
0.0
42
0.0
10
75.8871002197266
20
73.9541015625
40
0.0
41
0.0
42
0.0
10
75.7667999267578
20
74.003303527832
40
0.0
41
0.0
42
0.0
10
75.5285034179688
20
74.4495010375977
40
0.0
41
0.0
42
0.0
10
75.5139999389648
20
74.4585037231445
40
0.0
41
0.0
42
0.0
10
75.4905014038086
20
74.4585037231445
40
0.0
41
0.0
42
0.0
10
75.4849014282227
20
74.4508972167969
40
0.0
41
0.0
42
0.0
10
75.1645965576172
20
74.105598449707
40
0.0
41
0.0
42
0.0
10
75.1644973754883
20
74.0777969360352
40
0.0
41
0.0
42
0.0
10
75.1994018554688
20
73.9888000488281
40
0.0
41
0.0
42
0.0
10
75.3440017700195
20
73.723503112793
40
0.0
41
0.0
42
0.0
10
75.2033004760742
20
73.5108032226562
40
0.0
41
0.0
42
0.0
10
75.1209030151367
20
73.253303527832
40
0.0
41
0.0
42
0.0
10
74.9953002929688
20
73.1361999511719
40
0.0
41
0.0
42
0.0
10
74.9553985595703
20
73.1990966796875
40
0.0
41
0.0
42
0.0
10
74.9255981445312
20
73.2568969726562
40
0.0
41
0.0
42
0.0
10
74.8450012207031
20
73.5095977783203
40
0.0
41
0.0
42
0.0
10
74.668098449707
20
73.7227020263672
40
0.0
41
0.0
42
0.0
10
74.7526016235352
20
73.9885025024414
40
0.0
41
0.0
42
0.0
10
74.8049011230469
20
74.0794982910156
40
0.0
41
0.0
42
0.0
10
74.8047027587891
20
74.1060028076172
40
0.0
41
0.0
42
0.0
10
74.5102996826172
20
74.4477005004883
40
0.0
41
0.0
42
0.0
10
74.4877014160156
20
74.4477005004883
40
0.0
41
0.0
42
0.0
10
74.2323989868164
20
73.7417984008789
40
0.0
41
0.0
42
0.0
10
74.1612014770508
20
73.7040023803711
40
0.0
41
0.0
42
0.0
10
74.0038986206055
20
73.646598815918
40
0.0
41
0.0
42
0.0
10
73.9606018066406
20
73.7051010131836
40
0.0
41
0.0
42
0.0
10
73.6962966918945
20
73.7848968505859
40
0.0
41
0.0
42
0.0
10
73.8002014160156
20
73.993896484375
40
0.0
41
0.0
42
0.0
10
73.9477005004883
20
74.1010971069336
40
0.0
41
0.0
42
0.0
10
73.9540023803711
20
74.1127014160156
40
0.0
41
0.0
42
0.0
10
74.0034027099609
20
74.2329025268555
40
0.0
41
0.0
42
0.0
10
74.4495010375977
20
74.4712982177734
40
0.0
41
0.0
42
0.0
10
74.4585037231445
20
74.4859008789062
40
0.0
41
0.0
42
0.0
10
74.4583969116211
20
74.5093002319336
40
0.0
41
0.0
42
0.0
10
74.4508972167969
20
74.5149993896484
40
0.0
41
0.0
42
0.0
10
74.105598449707
20
74.8351974487305
40
0.0
41
0.0
42
0.0
10
74.0777969360352
20
74.8351974487305
40
0.0
41
0.0
42
0.0
10
74.0025024414062
20
74.8057022094727
40
0.0
41
0.0
42
0.0
10
73.8087005615234
20
74.9339981079102
40
0.0
41
0.0
42
0.0
10
73.7404022216797
20
74.9336013793945
40
0.0
41
0.0
42
0.0
10
73.4969024658203
20
74.8009033203125
40
0.0
41
0.0
42
0.0
10
73.253303527832
20
74.8787994384766
40
0.0
41
0.0
42
0.0
10
73.1362991333008
20
75.0046997070312
40
0.0
41
0.0
42
0.0
10
73.2003021240234
20
75.0450973510742
40
0.0
41
0.0
42
0.0
10
73.257698059082
20
75.0743026733398
40
0.0
41
0.0
42
0.0
210
0.0
220
0.0
230
1.0
0
LWPOLYLINE
5
2A
330
1C
100
AcDbEntity
67
0
8
0
62
256
6
ByLayer
370
-1
48
1.0
60
0
100
AcDbPolyline
90
56
70
1
38
0.0
39
0.0
10
74.3789978027344
20
75.5141983032227
40
0.0
41
0.0
42
0.0
10
74.3919982910156
20
75.4888000488281
40
0.0
41
0.0
42
0.0
10
74.4937973022461
20
75.2474975585938
40
0.0
41
0.0
42
0.0
10
74.5112991333008
20
75.2475967407227
40
0.0
41
0.0
42
0.0
10
74.7620010375977
20
75.4982986450195
40
0.0
41
0.0
42
0.0
10
75.0
20
75.5749969482422
40
0.0
41
0.0
42
0.0
10
75.2378005981445
20
75.4982986450195
40
0.0
41
0.0
42
0.0
10
75.4886016845703
20
75.2473983764648
40
0.0
41
0.0
42
0.0
10
75.5047988891602
20
75.2474975585938
40
0.0
41
0.0
42
0.0
10
75.5849990844727
20
75.488899230957
40
0.0
41
0.0
42
0.0
10
75.6207962036133
20
75.5469970703125
40
0.0
41
0.0
42
0.0
10
76.003303527832
20
75.7511978149414
40
0.0
41
0.0
42
0.0
10
76.0528030395508
20
75.8720016479492
40
0.0
41
0.0
42
0.0
10
76.2205963134766
20
75.9940032958984
40
0.0
41
0.0
42
0.0
10
76.3406982421875
20
76.2357025146484
40
0.0
41
0.0
42
0.0
10
76.3405990600586
20
76.2550964355469
40
0.0
41
0.0
42
0.0
10
76.0429000854492
20
76.3449020385742
40
0.0
41
0.0
42
0.0
10
76.0093002319336
20
76.3907012939453
40
0.0
41
0.0
42
0.0
10
75.9837036132812
20
76.3906021118164
40
0.0
41
0.0
42
0.0
10
75.8553009033203
20
76.3438034057617
40
0.0
41
0.0
42
0.0
10
75.7704010009766
20
76.2987976074219
40
0.0
41
0.0
42
0.0
10
75.7475967407227
20
76.2652969360352
40
0.0
41
0.0
42
0.0
10
75.5096969604492
20
75.6080017089844
40
0.0
41
0.0
42
0.0
10
75.2398986816406
20
75.9203033447266
40
0.0
41
0.0
42
0.0
10
75.2773971557617
20
75.9854965209961
40
0.0
41
0.0
42
0.0
10
75.2772979736328
20
76.0122985839844
40
0.0
41
0.0
42
0.0
10
75.0916976928711
20
76.2359008789062
40
0.0
41
0.0
42
0.0
10
75.1704025268555
20
76.4832000732422
40
0.0
41
0.0
42
0.0
10
75.1703033447266
20
76.5167007446289
40
0.0
41
0.0
42
0.0
10
75.0776977539062
20
76.8069000244141
40
0.0
41
0.0
42
0.0
10
75.0550994873047
20
76.8507995605469
40
0.0
41
0.0
42
0.0
10
75.0083999633789
20
76.9244003295898
40
0.0
41
0.0
42
0.0
10
74.9917984008789
20
76.9244003295898
40
0.0
41
0.0
42
0.0
10
74.9832000732422
20
76.9101028442383
40
0.0
41
0.0
42
0.0
10
74.8671035766602
20
76.8031997680664
40
0.0
41
0.0
42
0.0
10
74.7753982543945
20
76.5167007446289
40
0.0
41
0.0
42
0.0
10
74.7752990722656
20
76.4852981567383
40
0.0
41
0.0
42
0.0
10
74.9152984619141
20
76.2282028198242
40
0.0
41
0.0
42
0.0
10
74.7735977172852
20
76.0136032104492
40
0.0
41
0.0
42
0.0
10
74.7734985351562
20
75.9839019775391
40
0.0
41
0.0
42
0.0
10
74.7975997924805
20
75.9220962524414
40
0.0
41
0.0
42
0.0
10
74.519401550293
20
75.6222991943359
40
0.0
41
0.0
42
0.0
10
74.4979019165039
20
75.5930023193359
40
0.0
41
0.0
42
0.0
10
74.4527969360352
20
75.6206970214844
40
0.0
41
0.0
42
0.0
10
74.2484970092773
20
76.003303527832
40
0.0
41
0.0
42
0.0
10
74.1277008056641
20
76.0526962280273
40
0.0
41
0.0
42
0.0
10
74.0058975219727
20
76.2205963134766
40
0.0
41
0.0
42
0.0
10
73.7640991210938
20
76.3406982421875
40
0.0
41
0.0
42
0.0
10
73.7446975708008
20
76.3406982421875
40
0.0
41
0.0
42
0.0
10
73.6548004150391
20
76.0429992675781
40
0.0
41
0.0
42
0.0
10
73.6092987060547
20
76.0093002319336
40
0.0
41
0.0
42
0.0
10
73.6091995239258
20
75.9835968017578
40
0.0
41
0.0
42
0.0
10
73.6558990478516
20
75.8553009033203
40
0.0
41
0.0
42
0.0
10
73.7009963989258
20
75.7704010009766
40
0.0
41
0.0
42
0.0
10
73.7345962524414
20
75.7474975585938
40
0.0
41
0.0
42
0.0
10
74.3789978027344
20
75.5141983032227
40
0.0
41
0.0
42
0.0
210
0.0
220
0.0
230
1.0
0
LWPOLYLINE
5
2B
330
1C
100
AcDbEntity
67
0
8
0
62
256
6
ByLayer
370
-1
48
1.0
60
0
100
AcDbPolyline
90
51
70
1
38
0.0
39
0.0
10
73.646598815918
20
75.9960021972656
40
0.0
41
0.0
42
0.0
10
73.7051010131836
20
76.0391998291016
40
0.0
41
0.0
42
0.0
10
73.7848968505859
20
76.3033981323242
40
0.0
41
0.0
42
0.0
10
73.9937973022461
20
76.1996002197266
40
0.0
41
0.0
42
0.0
10
74.1009979248047
20
76.052001953125
40
0.0
41
0.0
42
0.0
10
74.1126022338867
20
76.0457000732422
40
0.0
41
0.0
42
0.0
10
74.2329025268555
20
75.9964981079102
40
0.0
41
0.0
42
0.0
10
74.4711990356445
20
75.5502014160156
40
0.0
41
0.0
42
0.0
10
74.4858016967773
20
75.5411987304688
40
0.0
41
0.0
42
0.0
10
74.5093994140625
20
75.5412979125977
40
0.0
41
0.0
42
0.0
10
74.5149993896484
20
75.5488967895508
40
0.0
41
0.0
42
0.0
10
74.8352966308594
20
75.8942031860352
40
0.0
41
0.0
42
0.0
10
74.8351974487305
20
75.9219970703125
40
0.0
41
0.0
42
0.0
10
74.8058013916016
20
75.9973983764648
40
0.0
41
0.0
42
0.0
10
74.9339981079102
20
76.1912002563477
40
0.0
41
0.0
42
0.0
10
74.9335021972656
20
76.2594985961914
40
0.0
41
0.0
42
0.0
10
74.8009033203125
20
76.5029983520508
40
0.0
41
0.0
42
0.0
10
74.8789978027344
20
76.7465972900391
40
0.0
41
0.0
42
0.0
10
75.0046997070312
20
76.8634033203125
40
0.0
41
0.0
42
0.0
10
75.0449981689453
20
76.7994003295898
40
0.0
41
0.0
42
0.0
10
75.0739974975586
20
76.7429962158203
40
0.0
41
0.0
42
0.0
10
75.1516036987305
20
76.5
40
0.0
41
0.0
42
0.0
10
75.0758972167969
20
76.2617034912109
40
0.0
41
0.0
42
0.0
10
75.075798034668
20
76.225700378418
40
0.0
41
0.0
42
0.0
10
75.0780029296875
20
76.1930999755859
40
0.0
41
0.0
42
0.0
10
75.2397003173828
20
75.9984970092773
40
0.0
41
0.0
42
0.0
10
75.1949996948242
20
75.9204025268555
40
0.0
41
0.0
42
0.0
10
75.1949005126953
20
75.893798828125
40
0.0
41
0.0
42
0.0
10
75.489501953125
20
75.552001953125
40
0.0
41
0.0
42
0.0
10
75.5120010375977
20
75.552001953125
40
0.0
41
0.0
42
0.0
10
75.7675018310547
20
76.2581024169922
40
0.0
41
0.0
42
0.0
10
75.8386001586914
20
76.2957992553711
40
0.0
41
0.0
42
0.0
10
75.9960021972656
20
76.3531036376953
40
0.0
41
0.0
42
0.0
10
76.0391006469727
20
76.2946014404297
40
0.0
41
0.0
42
0.0
10
76.3033981323242
20
76.2148971557617
40
0.0
41
0.0
42
0.0
10
76.1996994018555
20
76.0059967041016
40
0.0
41
0.0
42
0.0
10
76.052001953125
20
75.8988037109375
40
0.0
41
0.0
42
0.0
10
76.0457000732422
20
75.8871994018555
40
0.0
41
0.0
42
0.0
10
75.9964981079102
20
75.7668991088867
40
0.0
41
0.0
42
0.0
10
75.5503005981445
20
75.5286026000977
40
0.0
41
0.0
42
0.0
10
75.5394973754883
20
75.5110015869141
40
0.0
41
0.0
42
0.0
10
75.4991989135742
20
75.3893966674805
40
0.0
41
0.0
42
0.0
10
75.3872985839844
20
75.5015029907227
40
0.0
41
0.0
42
0.0
10
75.0166015625
20
75.6212005615234
40
0.0
41
0.0
42
0.0
10
74.9832992553711
20
75.6212005615234
40
0.0
41
0.0
42
0.0
10
74.6127014160156
20
75.5015029907227
40
0.0
41
0.0
42
0.0
10
74.5009994506836
20
75.3899002075195
40
0.0
41
0.0
42
0.0
10
74.448600769043
20
75.5115966796875
40
0.0
41
0.0
42
0.0
10
73.74169921875
20
75.7674026489258
40
0.0
41
0.0
42
0.0
10
73.7040023803711
20
75.8386001586914
40
0.0
41
0.0
42
0.0
10
73.646598815918
20
75.9960021972656
40
0.0
41
0.0
42
0.0
210
0.0
220
0.0
230
1.0
0
LWPOLYLINE
5
2C
330
1C
100
AcDbEntity
67
0
8
0
62
256
6
ByLayer
370
-1
48
1.0
60
0
100
AcDbPolyline
90
9
70
1
38
0.0
39
0.0
10
74.5242004394531
20
74.9886016845703
40
0.0
41
0.0
42
0.0
10
74.9886016845703
20
74.524299621582
40
0.0
41
0.0
42
0.0
10
75.0111999511719
20
74.524299621582
40
0.0
41
0.0
42
0.0
10
75.4755020141602
20
74.9886016845703
40
0.0
41
0.0
42
0.0
10
75.4754028320312
20
75.0111999511719
40
0.0
41
0.0
42
0.0
10
75.0112991333008
20
75.4756011962891
40
0.0
41
0.0
42
0.0
10
74.9886016845703
20
75.4755020141602
40
0.0
41
0.0
42
0.0
10
74.5242004394531
20
75.0112991333008
40
0.0
41
0.0
42
0.0
10
74.5242004394531
20
74.9886016845703
40
0.0
41
0.0
42
0.0
210
0.0
220
0.0
230
1.0
0
LWPOLYLINE
5
2D
330
1C
100
AcDbEntity
67
0
8
0
62
256
6
ByLayer
370
-1
48
1.0
60
0
100
AcDbPolyline
90
5
70
1
38
0.0
39
0.0
10
75.0
20
75.453498840332
40
0.0
41
0.0
42
0.0
10
75.4535980224609
20
75.0
40
0.0
41
0.0
42
0.0
10
75.0
20
74.5459976196289
40
0.0
41
0.0
42
0.0
10
74.5462036132812
20
75.0
40
0.0
41
0.0
42
0.0
10
75.0
20
75.453498840332
40
0.0
41
0.0
42
0.0
210
0.0
220
0.0
230
1.0
0
LWPOLYLINE
5
2E
330
1C
100
AcDbEntity
67
0
8
0
62
256
6
ByLayer
370
-1
48
1.0
60
0
100
AcDbPolyline
90
34
70
1
38
0.0
39
0.0
10
78.6901016235352
20
84.7785034179688
40
0.0
41
0.0
42
0.0
10
78.9813003540039
20
84.7425003051758
40
0.0
41
0.0
42
0.0
10
79.2766036987305
20
84.7418975830078
40
0.0
41
0.0
42
0.0
10
79.4815979003906
20
84.7100982666016
40
0.0
41
0.0
42
0.0
10
79.5195007324219
20
84.7099990844727
40
0.0
41
0.0
42
0.0
10
79.7940979003906
20
84.7210006713867
40
0.0
41
0.0
42
0.0
10
79.9804000854492
20
84.7128982543945
40
0.0
41
0.0
42
0.0
10
80.0193023681641
20
84.7127990722656
40
0.0
41
0.0
42
0.0
10
80.3141021728516
20
84.7310028076172
40
0.0
41
0.0
42
0.0
10
80.5186004638672
20
84.7356033325195
40
0.0
41
0.0
42
0.0
10
81.0158996582031
20
84.7881011962891
40
0.0
41
0.0
42
0.0
10
81.4893035888672
20
84.9260025024414
40
0.0
41
0.0
42
0.0
10
81.5090026855469
20
84.9352035522461
40
0.0
41
0.0
42
0.0
10
81.5809020996094
20
84.9903030395508
40
0.0
41
0.0
42
0.0
10
81.5809020996094
20
84.9990005493164
40
0.0
41
0.0
42
0.0
10
81.5531005859375
20
84.9990005493164
40
0.0
41
0.0
42
0.0
10
81.4908981323242
20
84.951301574707
40
0.0
41
0.0
42
0.0
10
81.4597015380859
20
84.9365005493164
40
0.0
41
0.0
42
0.0
10
80.984001159668
20
84.7978973388672
40
0.0
41
0.0
42
0.0
10
80.4813003540039
20
84.745002746582
40
0.0
41
0.0
42
0.0
10
80.2358016967773
20
84.7396011352539
40
0.0
41
0.0
42
0.0
10
79.996696472168
20
84.7248001098633
40
0.0
41
0.0
42
0.0
10
79.7744979858398
20
84.7345962524414
40
0.0
41
0.0
42
0.0
10
79.7353973388672
20
84.7344970703125
40
0.0
41
0.0
42
0.0
10
79.510498046875
20
84.7255020141602
40
0.0
41
0.0
42
0.0
10
79.2733001708984
20
84.7624969482422
40
0.0
41
0.0
42
0.0
10
79.0186004638672
20
84.7630004882812
40
0.0
41
0.0
42
0.0
10
78.7598037719727
20
84.7949981689453
40
0.0
41
0.0
42
0.0
10
78.5112991333008
20
84.8918991088867
40
0.0
41
0.0
42
0.0
10
78.3006973266602
20
84.9990005493164
40
0.0
41
0.0
42
0.0
10
78.2216033935547
20
84.9990005493164
40
0.0
41
0.0
42
0.0
10
78.2214965820312
20
84.9927978515625
40
0.0
41
0.0
42
0.0
10
78.4885025024414
20
84.8572006225586
40
0.0
41
0.0
42
0.0
10
78.6901016235352
20
84.7785034179688
40
0.0
41
0.0
42
0.0
210
0.0
220
0.0
230
1.0
0
LWPOLYLINE
5
2F
330
1C
100
AcDbEntity
67
0
8
0
62
256
6
ByLayer
370
-1
48
1.0
60
0
100
AcDbPolyline
90
46
70
1
38
0.0
39
0.0
10
78.7929992675781
20
65.0009994506836
40
0.0
41
0.0
42
0.0
10
78.9800033569336
20
65.1909027099609
40
0.0
41
0.0
42
0.0
10
79.007698059082
20
65.2151031494141
40
0.0
41
0.0
42
0.0
10
79.4870986938477
20
65.4925994873047
40
0.0
41
0.0
42
0.0
10
79.5094985961914
20
65.5084991455078
40
0.0
41
0.0
42
0.0
10
79.7601013183594
20
65.6210021972656
40
0.0
41
0.0
42
0.0
10
80.0149993896484
20
65.6962966918945
40
0.0
41
0.0
42
0.0
10
80.2615966796875
20
65.7424011230469
40
0.0
41
0.0
42
0.0
10
80.5175018310547
20
65.7779006958008
40
0.0
41
0.0
42
0.0
10
81.0182037353516
20
65.8246994018555
40
0.0
41
0.0
42
0.0
10
81.3069000244141
20
65.8461990356445
40
0.0
41
0.0
42
0.0
10
81.5193023681641
20
65.8511962890625
40
0.0
41
0.0
42
0.0
10
81.7938995361328
20
65.8607025146484
40
0.0
41
0.0
42
0.0
10
81.9854965209961
20
65.8415985107422
40
0.0
41
0.0
42
0.0
10
82.2760009765625
20
65.7100982666016
40
0.0
41
0.0
42
0.0
10
82.4869003295898
20
65.6775970458984
40
0.0
41
0.0
42
0.0
10
82.5185012817383
20
65.659797668457
40
0.0
41
0.0
42
0.0
10
82.6246032714844
20
65.4869003295898
40
0.0
41
0.0
42
0.0
10
82.6544036865234
20
65.2119979858398
40
0.0
41
0.0
42
0.0
10
82.6115036010742
20
65.0177001953125
40
0.0
41
0.0
42
0.0
10
82.6115036010742
20
65.0009994506836
40
0.0
41
0.0
42
0.0
10
82.6391983032227
20
65.0009994506836
40
0.0
41
0.0
42
0.0
10
82.6914978027344
20
65.2365036010742
40
0.0
41
0.0
42
0.0
10
82.6913986206055
20
65.2731018066406
40
0.0
41
0.0
42
0.0
10
82.6654968261719
20
65.5130004882812
40
0.0
41
0.0
42
0.0
10
82.5363006591797
20
65.7232971191406
40
0.0
41
0.0
42
0.0
10
82.5130004882812
20
65.7362976074219
40
0.0
41
0.0
42
0.0
10
82.2339019775391
20
65.7795028686523
40
0.0
41
0.0
42
0.0
10
82.0143966674805
20
65.8787994384766
40
0.0
41
0.0
42
0.0
10
81.8694000244141
20
65.8934020996094
40
0.0
41
0.0
42
0.0
10
81.8308029174805
20
65.8933029174805
40
0.0
41
0.0
42
0.0
10
81.480598449707
20
65.8812026977539
40
0.0
41
0.0
42
0.0
10
81.3141021728516
20
65.877197265625
40
0.0
41
0.0
42
0.0
10
80.9816970825195
20
65.8524017333984
40
0.0
41
0.0
42
0.0
10
80.4823989868164
20
65.8054962158203
40
0.0
41
0.0
42
0.0
10
80.1883010864258
20
65.7648010253906
40
0.0
41
0.0
42
0.0
10
79.9849014282227
20
65.7266998291016
40
0.0
41
0.0
42
0.0
10
79.6942977905273
20
65.6408996582031
40
0.0
41
0.0
42
0.0
10
79.4906005859375
20
65.5494995117188
40
0.0
41
0.0
42
0.0
10
79.4269027709961
20
65.5027008056641
40
0.0
41
0.0
42
0.0
10
79.3914031982422
20
65.4788970947266
40
0.0
41
0.0
42
0.0
10
78.992301940918
20
65.2479019165039
40
0.0
41
0.0
42
0.0
10
78.9729995727539
20
65.2311019897461
40
0.0
41
0.0
42
0.0
10
78.7567977905273
20
65.0112991333008
40
0.0
41
0.0
42
0.0
10
78.7567977905273
20
65.0009994506836
40
0.0
41
0.0
42
0.0
10
78.7929992675781
20
65.0009994506836
40
0.0
41
0.0
42
0.0
210
0.0
220
0.0
230
1.0
0
LWPOLYLINE
5
30
330
1C
100
AcDbEntity
67
0
8
0
62
256
6
ByLayer
370
-1
48
1.0
60
0
100
AcDbPolyline
90
47
70
1
38
0.0
39
0.0
10
84.1941986083984
20
80.4822998046875
40
0.0
41
0.0
42
0.0
10
84.2349014282227
20
80.1883010864258
40
0.0
41
0.0
42
0.0
10
84.2730026245117
20
79.9849014282227
40
0.0
41
0.0
42
0.0
10
84.3588027954102
20
79.6941986083984
40
0.0
41
0.0
42
0.0
10
84.4503021240234
20
79.4906005859375
40
0.0
41
0.0
42
0.0
10
84.4971008300781
20
79.4268035888672
40
0.0
41
0.0
42
0.0
10
84.5207977294922
20
79.3912963867188
40
0.0
41
0.0
42
0.0
10
84.7518997192383
20
78.9922027587891
40
0.0
41
0.0
42
0.0
10
84.7686996459961
20
78.972900390625
40
0.0
41
0.0
42
0.0
10
84.9885025024414
20
78.7567977905273
40
0.0
41
0.0
42
0.0
10
84.9990005493164
20
78.7567977905273
40
0.0
41
0.0
42
0.0
10
84.9989013671875
20
78.7929000854492
40
0.0
41
0.0
42
0.0
10
84.8087997436523
20
78.9798965454102
40
0.0
41
0.0
42
0.0
10
84.7845993041992
20
79.0075988769531
40
0.0
41
0.0
42
0.0
10
84.5071029663086
20
79.4869995117188
40
0.0
41
0.0
42
0.0
10
84.4912033081055
20
79.5093994140625
40
0.0
41
0.0
42
0.0
10
84.3787002563477
20
79.7600021362305
40
0.0
41
0.0
42
0.0
10
84.3034973144531
20
80.0149993896484
40
0.0
41
0.0
42
0.0
10
84.2573013305664
20
80.2615966796875
40
0.0
41
0.0
42
0.0
10
84.2218017578125
20
80.5175018310547
40
0.0
41
0.0
42
0.0
10
84.1750030517578
20
81.0182037353516
40
0.0
41
0.0
42
0.0
10
84.1535034179688
20
81.3069000244141
40
0.0
41
0.0
42
0.0
10
84.1484985351562
20
81.5193023681641
40
0.0
41
0.0
42
0.0
10
84.1389999389648
20
81.7938995361328
40
0.0
41
0.0
42
0.0
10
84.158203125
20
81.9854965209961
40
0.0
41
0.0
42
0.0
10
84.2895965576172
20
82.2760009765625
40
0.0
41
0.0
42
0.0
10
84.3220977783203
20
82.4869003295898
40
0.0
41
0.0
42
0.0
10
84.3398971557617
20
82.5186004638672
40
0.0
41
0.0
42
0.0
10
84.5130004882812
20
82.6247024536133
40
0.0
41
0.0
42
0.0
10
84.7878036499023
20
82.6544036865234
40
0.0
41
0.0
42
0.0
10
84.9822006225586
20
82.6115036010742
40
0.0
41
0.0
42
0.0
10
84.9990005493164
20
82.6115036010742
40
0.0
41
0.0
42
0.0
10
84.9988021850586
20
82.6391983032227
40
0.0
41
0.0
42
0.0
10
84.763298034668
20
82.6914978027344
40
0.0
41
0.0
42
0.0
10
84.7266998291016
20
82.6913986206055
40
0.0
41
0.0
42
0.0
10
84.4869003295898
20
82.6654968261719
40
0.0
41
0.0
42
0.0
10
84.2763977050781
20
82.5363006591797
40
0.0
41
0.0
42
0.0
10
84.2633972167969
20
82.5130004882812
40
0.0
41
0.0
42
0.0
10
84.2202987670898
20
82.2339019775391
40
0.0
41
0.0
42
0.0
10
84.1209030151367
20
82.0145034790039
40
0.0
41
0.0
42
0.0
10
84.1064987182617
20
81.8694000244141
40
0.0
41
0.0
42
0.0
10
84.1063995361328
20
81.8308029174805
40
0.0
41
0.0
42
0.0
10
84.1184997558594
20
81.480598449707
40
0.0
41
0.0
42
0.0
10
84.1224975585938
20
81.3141021728516
40
0.0
41
0.0
42
0.0
10
84.1473007202148
20
80.9816970825195
40
0.0
41
0.0
42
0.0
10
84.1754989624023
20
80.686897277832
40
0.0
41
0.0
42
0.0
10
84.1941986083984
20
80.4822998046875
40
0.0
41
0.0
42
0.0
210
0.0
220
0.0
230
1.0
0
LWPOLYLINE
5
31
330
1C
100
AcDbEntity
67
0
8
0
62
256
6
ByLayer
370
-1
48
1.0
60
0
100
AcDbPolyline
90
34
70
1
38
0.0
39
0.0
10
84.7128982543945
20
70.0195007324219
40
0.0
41
0.0
42
0.0
10
84.7127990722656
20
69.980598449707
40
0.0
41
0.0
42
0.0
10
84.7310028076172
20
69.6857986450195
40
0.0
41
0.0
42
0.0
10
84.7354965209961
20
69.4813003540039
40
0.0
41
0.0
42
0.0
10
84.7881011962891
20
68.984001159668
40
0.0
41
0.0
42
0.0
10
84.9257965087891
20
68.510498046875
40
0.0
41
0.0
42
0.0
10
84.9350967407227
20
68.4908981323242
40
0.0
41
0.0
42
0.0
10
84.9903030395508
20
68.4189987182617
40
0.0
41
0.0
42
0.0
10
84.9990005493164
20
68.4189987182617
40
0.0
41
0.0
42
0.0
10
84.9989013671875
20
68.4467010498047
40
0.0
41
0.0
42
0.0
10
84.951301574707
20
68.508903503418
40
0.0
41
0.0
42
0.0
10
84.9365005493164
20
68.5400009155273
40
0.0
41
0.0
42
0.0
10
84.7977981567383
20
69.0158996582031
40
0.0
41
0.0
42
0.0
10
84.745002746582
20
69.5186004638672
40
0.0
41
0.0
42
0.0
10
84.7396011352539
20
69.7640991210938
40
0.0
41
0.0
42
0.0
10
84.7248001098633
20
70.0031967163086
40
0.0
41
0.0
42
0.0
10
84.7345962524414
20
70.2254028320312
40
0.0
41
0.0
42
0.0
10
84.7344970703125
20
70.2645034790039
40
0.0
41
0.0
42
0.0
10
84.7255020141602
20
70.4894027709961
40
0.0
41
0.0
42
0.0
10
84.7624969482422
20
70.7266006469727
40
0.0
41
0.0
42
0.0
10
84.7630004882812
20
70.9813003540039
40
0.0
41
0.0
42
0.0
10
84.7949981689453
20
71.2400970458984
40
0.0
41
0.0
42
0.0
10
84.8918991088867
20
71.4886016845703
40
0.0
41
0.0
42
0.0
10
84.9990005493164
20
71.6990966796875
40
0.0
41
0.0
42
0.0
10
84.9990005493164
20
71.7782974243164
40
0.0
41
0.0
42
0.0
10
84.9927978515625
20
71.7781982421875
40
0.0
41
0.0
42
0.0
10
84.8572006225586
20
71.5113983154297
40
0.0
41
0.0
42
0.0
10
84.7785034179688
20
71.3097991943359
40
0.0
41
0.0
42
0.0
10
84.7425003051758
20
71.0186004638672
40
0.0
41
0.0
42
0.0
10
84.7418975830078
20
70.7232971191406
40
0.0
41
0.0
42
0.0
10
84.7100982666016
20
70.5183029174805
40
0.0
41
0.0
42
0.0
10
84.7099990844727
20
70.4804000854492
40
0.0
41
0.0
42
0.0
10
84.7210006713867
20
70.2058029174805
40
0.0
41
0.0
42
0.0
10
84.7128982543945
20
70.0195007324219
40
0.0
41
0.0
42
0.0
210
0.0
220
0.0
230
1.0
0
VIEWPORT
5
36
330
32
100
AcDbEntity
67
1
8
0
62
256
6
ByLayer
370
-1
48
1.0
60
0
100
AcDbViewport
10
0.0
20
0.0
30
0.0
40
297.0
41
210.0
68
1
69
1
12
50.0
22
100.0
13
0.0
23
0.0
14
10.0
24
10.0
15
10.0
25
10.0
16
0.0
26
0.0
36
1.0
17
0.0
27
0.0
37
0.0
42
50.0
43
0.0
44
0.0
45
250.0
50
0.0
51
0.0
72
1000
90
819232
110
0.0
120
0.0
130
0.0
111
1.0
121
0.0
131
0.0
112
0.0
122
1.0
132
0.0
0
ENDSEC
0
SECTION
2
OBJECTS
0
DICTIONARY
5
3C
330
0
100
AcDbDictionary
280
1
281
1
3
ACAD_GROUP
350
12
3
ACAD_LAYOUT
350
35
3
ACAD_DGNDEFINITIONS
350
F
3
ACAD_DWFDEFINITIONS
350
10
3
ACAD_PDFDEFINITIONS
350
11
3
ACAD_MLINESTYLE
350
B
3
ACAD_IMAGE_DICT
350
E
3
ACAD_IMAGE_VARS
350
21
0
DICTIONARY
5
12
330
3C
100
AcDbDictionary
280
1
281
1
0
DICTIONARY
5
35
330
3C
100
AcDbDictionary
280
1
281
1
3
Model
350
20
3
Layout1
350
37
0
DICTIONARY
5
F
330
3C
100
AcDbDictionary
280
1
281
1
0
DICTIONARY
5
10
330
3C
100
AcDbDictionary
280
1
281
1
0
DICTIONARY
5
11
330
3C
100
AcDbDictionary
280
1
281
1
0
DICTIONARY
5
B
330
3C
100
AcDbDictionary
280
1
281
1
3
Standard
350
1B
0
DICTIONARY
5
E
330
3C
100
AcDbDictionary
280
1
281
1
0
DICTIONARY
5
6
330
5
100
AcDbDictionary
280
1
281
1
3
ACAD_LAYERSTATES
360
3D
0
DICTIONARY
5
3D
330
6
100
AcDbDictionary
280
1
281
1
0
LAYOUT
5
20
330
35
100
AcDbPlotSettings
1

2
none_device
4
ISO_A4_(210.00_x_297.00_MM)
6

40
7.5
41
20.0
42
7.5
43
20.0
44
210.0
45
297.0
46
0.0
47
0.0
48
0.0
49
0.0
140
0.0
141
0.0
142
1.0
143
1.0
70
11952
72
1
73
1
74
1
7

75
0
76
0
77
2
78
300
147
1.0
148
0.0
149
0.0
100
AcDbLayout
1
Model
71
0
10
-20.0
20
-7.5
11
277.0
21
202.5
12
0.0
22
0.0
32
0.0
14
25.7
24
19.5
34
0.0
15
231.3
25
175.5
35
0.0
146
0.0
13
0.0
23
0.0
33
0.0
16
1.0
26
0.0
36
0.0
17
0.0
27
1.0
37
0.0
76
0
330
1C
0
LAYOUT
5
37
330
35
100
AcDbPlotSettings
1

2
none_device
4
ISO_A4_(210.00_x_297.00_MM)
6

40
7.5
41
20.0
42
7.5
43
20.0
44
210.0
45
297.0
46
0.0
47
0.0
48
0.0
49
0.0
140
0.0
141
0.0
142
1.0
143
1.0
70
688
72
1
73
1
74
1
7

75
0
76
0
77
2
78
300
147
1.0
148
0.0
149
0.0
100
AcDbLayout
1
Layout1
71
1
10
-20.0
20
-7.5
11
277.0
21
202.5
12
0.0
22
0.0
32
0.0
14
25.7
24
19.5
34
0.0
15
231.3
25
175.5
35
0.0
146
0.0
13
0.0
23
0.0
33
0.0
16
1.0
26
0.0
36
0.0
17
0.0
27
1.0
37
0.0
76
0
330
32
0
MLINESTYLE
5
1B
330
B
100
AcDbMlineStyle
2
Standard
70
0
3

62
256
51
90.0
52
90.0
71
2
49
0.5
62
256
6
ByLayer
49
-0.5
62
256
6
ByLayer
0
RASTERVARIABLES
5
21
330
E
100
AcDbRasterVariables
90
0
70
1
71
1
72
0
0
ENDSEC
0
EOF
