999
DXF file generated by netDxf https://github.com/haplokuon/netDxf, Copyright(C) Daniel Carvajal, Licensed under MIT
0
SECTION
2
HEADER
9
$ACADVER
1
AC1015
9
$DWGCODEPAGE
3
ANSI_1252
9
$HANDSEED
5
36
9
$ANGBASE
50
0.0
9
$ANGDIR
70
0
9
$ATTMODE
70
1
9
$AUNITS
70
0
9
$AUPREC
70
0
9
$CECOLOR
62
256
9
$CELTSCALE
40
1.0
9
$CELTYPE
6
ByLayer
9
$CELWEIGHT
370
-1
9
$CLAYER
8
0
9
$CMLJUST
70
0
9
$CMLSCALE
40
20.0
9
$CMLSTYLE
2
Standard
9
$DIMSTYLE
2
Standard
9
$TEXTSIZE
40
2.5
9
$TEXTSTYLE
7
Standard
9
$LUNITS
70
2
9
$LUPREC
70
4
9
$MIRRTEXT
70
0
9
$EXTNAMES
290
1
9
$INSBASE
10
0.0
20
0.0
30
0.0
9
$INSUNITS
70
0
9
$LTSCALE
40
1.0
9
$LWDISPLAY
290
0
9
$PDMODE
70
0
9
$PDSIZE
40
0.0
9
$PLINEGEN
70
0
9
$PSLTSCALE
70
1
9
$SPLINESEGS
70
8
9
$SURFU
70
6
9
$SURFV
70
6
9
$TDCREATE
40
2460823.4837137
9
$TDUCREATE
40
2460823.15038037
9
$TDUPDATE
40
2460823.4837137
9
$TDUUPDATE
40
2460823.15038037
9
$TDINDWG
40
0.0
9
$UCSORG
10
0.0
20
0.0
30
0.0
9
$UCSXDIR
10
1.0
20
0.0
30
0.0
9
$UCSYDIR
10
0.0
20
1.0
30
0.0
9
$DIMADEC
70
0
9
$DIMALT
70
0
9
$DIMALTD
70
2
9
$DIMALTF
40
25.4
9
$DIMALTRND
40
0.0
9
$DIMALTTD
70
2
9
$DIMALTTZ
70
0
9
$DIMALTU
70
2
9
$DIMALTZ
70
0
9
$DIMAPOST
1

9
$DIMATFIT
70
3
9
$DIMAUNIT
70
0
9
$DIMASZ
40
0.18
9
$DIMAZIN
70
0
9
$DIMSAH
70
0
9
$DIMBLK
1

9
$DIMLDRBLK
1

9
$DIMCEN
40
0.09
9
$DIMCLRD
70
0
9
$DIMCLRE
70
0
9
$DIMCLRT
70
0
9
$DIMDEC
70
4
9
$DIMDLE
40
0.0
9
$DIMDLI
40
0.38
9
$DIMDSEP
70
46
9
$DIMEXE
40
0.18
9
$DIMEXO
40
0.0625
9
$DIMFXLON
70
0
9
$DIMFXL
40
1.0
9
$DIMGAP
40
0.09
9
$DIMJUST
70
0
9
$DIMLFAC
40
1.0
9
$DIMLUNIT
70
2
9
$DIMLWD
70
-2
9
$DIMLWE
70
-2
9
$DIMPOST
1

9
$DIMRND
40
0.0
9
$DIMSCALE
40
1.0
9
$DIMSD1
70
0
9
$DIMSD2
70
0
9
$DIMSE1
70
0
9
$DIMSE2
70
0
9
$DIMSOXD
70
0
9
$DIMTAD
70
0
9
$DIMTDEC
70
4
9
$DIMTFAC
40
1.0
9
$DIMTIH
70
0
9
$DIMTIX
70
0
9
$DIMTM
40
0.0
9
$DIMTMOVE
70
0
9
$DIMTOFL
70
0
9
$DIMTOH
70
0
9
$DIMTOL
70
0
9
$DIMLIM
70
0
9
$DIMTOLJ
70
1
9
$DIMTP
40
0.0
9
$DIMTXT
40
0.18
9
$DIMTXTDIRECTION
70
0
9
$DIMTZIN
70
0
9
$DIMZIN
70
0
9
$DIMFRAC
70
0
9
$DIMLTYPE
6
ByBlock
9
$DIMLTEX1
6
ByBlock
9
$DIMLTEX2
6
ByBlock
0
ENDSEC
0
SECTION
2
CLASSES
0
CLASS
1
RASTERVARIABLES
2
AcDbRasterVariables
3
ISM
90
0
280
0
281
0
0
ENDSEC
0
SECTION
2
TABLES
0
TABLE
2
APPID
5
4
330
0
100
AcDbSymbolTable
70
5
0
APPID
5
19
330
4
100
AcDbSymbolTableRecord
100
AcDbRegAppTableRecord
2
ACAD
70
0
0
APPID
5
30
330
4
100
AcDbSymbolTableRecord
100
AcDbRegAppTableRecord
2
AcCmTransparency
70
0
0
APPID
5
31
330
4
100
AcDbSymbolTableRecord
100
AcDbRegAppTableRecord
2
AcAecLayerStandard
70
0
0
APPID
5
32
330
4
100
AcDbSymbolTableRecord
100
AcDbRegAppTableRecord
2
GradientColor1ACI
70
0
0
APPID
5
33
330
4
100
AcDbSymbolTableRecord
100
AcDbRegAppTableRecord
2
GradientColor2ACI
70
0
0
ENDTAB
0
TABLE
2
VPORT
5
1
330
0
100
AcDbSymbolTable
70
1
0
VPORT
5
2
330
1
100
AcDbSymbolTableRecord
100
AcDbViewportTableRecord
2
*Active
70
0
10
0.0
20
0.0
11
1.0
21
1.0
12
0.0
22
0.0
13
0.0
23
0.0
14
0.5
24
0.5
15
10.0
25
10.0
16
0.0
26
0.0
36
1.0
17
0.0
27
0.0
37
0.0
40
10.0
41
1.0
75
0
76
1
0
ENDTAB
0
TABLE
2
LTYPE
5
7
330
0
100
AcDbSymbolTable
70
3
0
LTYPE
5
15
330
7
100
AcDbSymbolTableRecord
100
AcDbLinetypeTableRecord
2
Continuous
70
0
3
Solid line
72
65
73
0
40
0.0
0
LTYPE
5
16
330
7
100
AcDbSymbolTableRecord
100
AcDbLinetypeTableRecord
2
ByLayer
70
0
3

72
65
73
0
40
0.0
0
LTYPE
5
17
330
7
100
AcDbSymbolTableRecord
100
AcDbLinetypeTableRecord
2
ByBlock
70
0
3

72
65
73
0
40
0.0
0
ENDTAB
0
TABLE
2
LAYER
5
5
102
{ACAD_XDICTIONARY
360
6
102
}
330
0
100
AcDbSymbolTable
70
1
0
LAYER
5
14
330
5
100
AcDbSymbolTableRecord
100
AcDbLayerTableRecord
2
0
70
0
62
7
6
Continuous
290
1
370
-3
390
0
0
ENDTAB
0
TABLE
2
STYLE
5
8
330
0
100
AcDbSymbolTable
70
1
0
STYLE
5
18
330
8
100
AcDbSymbolTableRecord
100
AcDbTextStyleTableRecord
2
Standard
3
simplex.shx
70
0
71
0
40
0.0
41
1.0
42
0.0
50
0.0
0
ENDTAB
0
TABLE
2
DIMSTYLE
5
A
330
0
100
AcDbSymbolTable
70
1
100
AcDbDimStyleTable
0
DIMSTYLE
105
1A
330
A
100
AcDbSymbolTableRecord
100
AcDbDimStyleTableRecord
2
Standard
3

4

40
1.0
41
0.18
42
0.0625
43
0.38
44
0.18
45
0.0
46
0.0
47
0.0
48
0.0
49
1.0
70
0
71
0
72
0
73
0
74
0
75
0
76
0
77
0
78
0
79
0
140
0.18
141
0.09
143
25.4
144
1.0
146
1.0
147
0.09
148
0.0
170
0
171
2
172
0
174
0
175
0
176
0
177
0
178
0
179
0
271
4
272
4
273
2
274
2
275
0
276
0
277
2
278
46
279
0
280
0
281
0
282
0
283
1
284
0
285
0
286
0
289
3
290
0
294
0
340
18
173
0
345
17
346
17
347
17
371
-2
372
-2
0
ENDTAB
0
TABLE
2
VIEW
5
3
330
0
100
AcDbSymbolTable
70
0
0
ENDTAB
0
TABLE
2
UCS
5
C
330
0
100
AcDbSymbolTable
70
0
0
ENDTAB
0
TABLE
2
BLOCK_RECORD
5
D
330
0
100
AcDbSymbolTable
70
2
0
BLOCK_RECORD
5
1C
330
D
100
AcDbSymbolTableRecord
100
AcDbBlockTableRecord
2
*Model_Space
340
20
0
BLOCK_RECORD
5
2A
330
D
100
AcDbSymbolTableRecord
100
AcDbBlockTableRecord
2
*Paper_Space
340
2F
0
ENDTAB
0
ENDSEC
0
SECTION
2
BLOCKS
0
BLOCK
5
1E
330
1C
100
AcDbEntity
67
0
8
0
100
AcDbBlockBegin
2
*Model_Space
70
0
10
0.0
20
0.0
30
0.0
3
*Model_Space
4

0
ENDBLK
5
1D
330
1C
100
AcDbEntity
8
0
100
AcDbBlockEnd
0
BLOCK
5
2C
330
2A
100
AcDbEntity
67
1
8
0
100
AcDbBlockBegin
2
*Paper_Space
70
0
10
0.0
20
0.0
30
0.0
3
*Paper_Space
4

0
ENDBLK
5
2B
330
2A
100
AcDbEntity
8
0
100
AcDbBlockEnd
0
ENDSEC
0
SECTION
2
ENTITIES
0
LWPOLYLINE
5
22
330
1C
100
AcDbEntity
67
0
8
0
62
256
6
ByLayer
370
-1
48
1.0
60
0
100
AcDbPolyline
90
29
70
1
38
0.0
39
0.0
10
65.1608963012695
20
67.1130981445312
40
0.0
41
0.0
42
0.0
10
65.2074966430664
20
66.9873962402344
40
0.0
41
0.0
42
0.0
10
65.3497009277344
20
66.621696472168
40
0.0
41
0.0
42
0.0
10
65.3893966674805
20
66.4850997924805
40
0.0
41
0.0
42
0.0
10
65.4255981445312
20
66.3206024169922
40
0.0
41
0.0
42
0.0
10
65.4999008178711
20
66.1037979125977
40
0.0
41
0.0
42
0.0
10
65.5381011962891
20
65.9832992553711
40
0.0
41
0.0
42
0.0
10
65.5399017333984
20
65.8163986206055
40
0.0
41
0.0
42
0.0
10
65.6107025146484
20
65.4981994628906
40
0.0
41
0.0
42
0.0
10
65.5525970458984
20
65.1700973510742
40
0.0
41
0.0
42
0.0
10
65.5524978637695
20
65.1323013305664
40
0.0
41
0.0
42
0.0
10
65.5571975708008
20
65.0009994506836
40
0.0
41
0.0
42
0.0
10
65.5876007080078
20
65.0009994506836
40
0.0
41
0.0
42
0.0
10
65.5875015258789
20
65.0195999145508
40
0.0
41
0.0
42
0.0
10
65.5802993774414
20
65.2245025634766
40
0.0
41
0.0
42
0.0
10
65.6260986328125
20
65.4817962646484
40
0.0
41
0.0
42
0.0
10
65.6259994506836
20
65.5176010131836
40
0.0
41
0.0
42
0.0
10
65.5428009033203
20
65.8917007446289
40
0.0
41
0.0
42
0.0
10
65.5412979125977
20
66.0166015625
40
0.0
41
0.0
42
0.0
10
65.5
20
66.1468963623047
40
0.0
41
0.0
42
0.0
10
65.4172973632812
20
66.3892974853516
40
0.0
41
0.0
42
0.0
10
65.3896026611328
20
66.5147018432617
40
0.0
41
0.0
42
0.0
10
65.3412017822266
20
66.6781005859375
40
0.0
41
0.0
42
0.0
10
65.2113037109375
20
67.0124969482422
40
0.0
41
0.0
42
0.0
10
65.1502990722656
20
67.1766967773438
40
0.0
41
0.0
42
0.0
10
65.0067977905273
20
67.4729995727539
40
0.0
41
0.0
42
0.0
10
65.0009994506836
20
67.4729995727539
40
0.0
41
0.0
42
0.0
10
65.0009002685547
20
67.4440994262695
40
0.0
41
0.0
42
0.0
10
65.1608963012695
20
67.1130981445312
40
0.0
41
0.0
42
0.0
210
0.0
220
0.0
230
1.0
0
LWPOLYLINE
5
23
330
1C
100
AcDbEntity
67
0
8
0
62
256
6
ByLayer
370
-1
48
1.0
60
0
100
AcDbPolyline
90
29
70
1
38
0.0
39
0.0
10
65.0195999145508
20
84.4122009277344
40
0.0
41
0.0
42
0.0
10
65.2245025634766
20
84.4194030761719
40
0.0
41
0.0
42
0.0
10
65.4817962646484
20
84.3738021850586
40
0.0
41
0.0
42
0.0
10
65.5177001953125
20
84.3737030029297
40
0.0
41
0.0
42
0.0
10
65.8917007446289
20
84.456901550293
40
0.0
41
0.0
42
0.0
10
66.0166015625
20
84.4583969116211
40
0.0
41
0.0
42
0.0
10
66.1468963623047
20
84.4998016357422
40
0.0
41
0.0
42
0.0
10
66.3892974853516
20
84.5824966430664
40
0.0
41
0.0
42
0.0
10
66.5139007568359
20
84.6099014282227
40
0.0
41
0.0
42
0.0
10
66.8582000732422
20
84.7436981201172
40
0.0
41
0.0
42
0.0
10
67.0133972167969
20
84.7888031005859
40
0.0
41
0.0
42
0.0
10
67.1766967773438
20
84.8494033813477
40
0.0
41
0.0
42
0.0
10
67.4729995727539
20
84.9931030273438
40
0.0
41
0.0
42
0.0
10
67.4729995727539
20
84.9990005493164
40
0.0
41
0.0
42
0.0
10
67.4440994262695
20
84.9989013671875
40
0.0
41
0.0
42
0.0
10
67.1131973266602
20
84.8388977050781
40
0.0
41
0.0
42
0.0
10
66.9865036010742
20
84.7919006347656
40
0.0
41
0.0
42
0.0
10
66.861701965332
20
84.7555999755859
40
0.0
41
0.0
42
0.0
10
66.4860992431641
20
84.6104965209961
40
0.0
41
0.0
42
0.0
10
66.3206024169922
20
84.5740966796875
40
0.0
41
0.0
42
0.0
10
66.1038970947266
20
84.4999008178711
40
0.0
41
0.0
42
0.0
10
65.9832992553711
20
84.4616012573242
40
0.0
41
0.0
42
0.0
10
65.8163986206055
20
84.4598007202148
40
0.0
41
0.0
42
0.0
10
65.4981994628906
20
84.3889999389648
40
0.0
41
0.0
42
0.0
10
65.1700973510742
20
84.4473037719727
40
0.0
41
0.0
42
0.0
10
65.1323013305664
20
84.4471969604492
40
0.0
41
0.0
42
0.0
10
65.0009994506836
20
84.4425964355469
40
0.0
41
0.0
42
0.0
10
65.0009994506836
20
84.4123001098633
40
0.0
41
0.0
42
0.0
10
65.0195999145508
20
84.4122009277344
40
0.0
41
0.0
42
0.0
210
0.0
220
0.0
230
1.0
0
LWPOLYLINE
5
24
330
1C
100
AcDbEntity
67
0
8
0
62
256
6
ByLayer
370
-1
48
1.0
60
0
100
AcDbPolyline
90
435
70
1
38
0.0
39
0.0
10
65.2552032470703
20
75.9857025146484
40
0.0
41
0.0
42
0.0
10
65.3995971679688
20
75.6127014160156
40
0.0
41
0.0
42
0.0
10
65.4302978515625
20
75.5378036499023
40
0.0
41
0.0
42
0.0
10
65.4518966674805
20
75.4896011352539
40
0.0
41
0.0
42
0.0
10
65.497200012207
20
75.4134979248047
40
0.0
41
0.0
42
0.0
10
65.6365966796875
20
75.2388000488281
40
0.0
41
0.0
42
0.0
10
65.7259979248047
20
75.1167984008789
40
0.0
41
0.0
42
0.0
10
65.8058013916016
20
74.99169921875
40
0.0
41
0.0
42
0.0
10
65.8280029296875
20
74.9608993530273
40
0.0
41
0.0
42
0.0
10
65.9921035766602
20
74.7893981933594
40
0.0
41
0.0
42
0.0
10
66.3441009521484
20
74.6370010375977
40
0.0
41
0.0
42
0.0
10
66.4879989624023
20
74.5070037841797
40
0.0
41
0.0
42
0.0
10
66.9542007446289
20
74.5072021484375
40
0.0
41
0.0
42
0.0
10
67.0151977539062
20
74.5177001953125
40
0.0
41
0.0
42
0.0
10
67.2210998535156
20
74.5781021118164
40
0.0
41
0.0
42
0.0
10
67.5095977783203
20
74.7341003417969
40
0.0
41
0.0
42
0.0
10
67.6020965576172
20
74.7890014648438
40
0.0
41
0.0
42
0.0
10
67.6882019042969
20
74.8335037231445
40
0.0
41
0.0
42
0.0
10
68.0105972290039
20
75.0101013183594
40
0.0
41
0.0
42
0.0
10
68.2329025268555
20
75.1110992431641
40
0.0
41
0.0
42
0.0
10
68.5136032104492
20
75.2067031860352
40
0.0
41
0.0
42
0.0
10
68.674201965332
20
75.2537994384766
40
0.0
41
0.0
42
0.0
10
68.9852981567383
20
75.2319030761719
40
0.0
41
0.0
42
0.0
10
69.3196029663086
20
75.0746994018555
40
0.0
41
0.0
42
0.0
10
69.3545989990234
20
75.0746002197266
40
0.0
41
0.0
42
0.0
10
69.4882965087891
20
75.0793991088867
40
0.0
41
0.0
42
0.0
10
69.5809020996094
20
75.0121002197266
40
0.0
41
0.0
42
0.0
10
69.5868988037109
20
75.010498046875
40
0.0
41
0.0
42
0.0
10
69.7144012451172
20
74.9937973022461
40
0.0
41
0.0
42
0.0
10
69.9898986816406
20
74.8395004272461
40
0.0
41
0.0
42
0.0
10
70.3615036010742
20
74.646598815918
40
0.0
41
0.0
42
0.0
10
70.4821014404297
20
74.6280975341797
40
0.0
41
0.0
42
0.0
10
70.6085968017578
20
74.6219024658203
40
0.0
41
0.0
42
0.0
10
70.9831008911133
20
74.5064010620117
40
0.0
41
0.0
42
0.0
10
71.019401550293
20
74.5063018798828
40
0.0
41
0.0
42
0.0
10
71.4956970214844
20
74.5300979614258
40
0.0
41
0.0
42
0.0
10
71.5150985717773
20
74.5325012207031
40
0.0
41
0.0
42
0.0
10
71.7233963012695
20
74.6073989868164
40
0.0
41
0.0
42
0.0
10
71.801399230957
20
74.6251983642578
40
0.0
41
0.0
42
0.0
10
71.967399597168
20
74.6763000488281
40
0.0
41
0.0
42
0.0
10
72.0137023925781
20
74.6854019165039
40
0.0
41
0.0
42
0.0
10
72.3779983520508
20
74.8430023193359
40
0.0
41
0.0
42
0.0
10
72.5151977539062
20
74.8685989379883
40
0.0
41
0.0
42
0.0
10
72.8220977783203
20
74.9530029296875
40
0.0
41
0.0
42
0.0
10
72.9893035888672
20
74.965202331543
40
0.0
41
0.0
42
0.0
10
73.1119003295898
20
74.9019012451172
40
0.0
41
0.0
42
0.0
10
73.4934997558594
20
74.8294982910156
40
0.0
41
0.0
42
0.0
10
73.6231994628906
20
74.5980987548828
40
0.0
41
0.0
42
0.0
10
73.6578979492188
20
74.5037994384766
40
0.0
41
0.0
42
0.0
10
73.5372009277344
20
74.3830032348633
40
0.0
41
0.0
42
0.0
10
73.4936981201172
20
74.3264999389648
40
0.0
41
0.0
42
0.0
10
73.3550033569336
20
74.2577972412109
40
0.0
41
0.0
42
0.0
10
72.9837036132812
20
74.1552963256836
40
0.0
41
0.0
42
0.0
10
72.6098022460938
20
74.1239013671875
40
0.0
41
0.0
42
0.0
10
72.5576019287109
20
74.103401184082
40
0.0
41
0.0
42
0.0
10
72.4960021972656
20
74.0634994506836
40
0.0
41
0.0
42
0.0
10
72.3031997680664
20
74.1222991943359
40
0.0
41
0.0
42
0.0
10
72.2703018188477
20
74.122200012207
40
0.0
41
0.0
42
0.0
10
72.0046997070312
20
74.0223999023438
40
0.0
41
0.0
42
0.0
10
71.9160995483398
20
74.0951995849609
40
0.0
41
0.0
42
0.0
10
71.904899597168
20
74.0951995849609
40
0.0
41
0.0
42
0.0
10
71.9050979614258
20
74.0712966918945
40
0.0
41
0.0
42
0.0
10
71.9021987915039
20
74.0689010620117
40
0.0
41
0.0
42
0.0
10
71.9021987915039
20
74.0000991821289
40
0.0
41
0.0
42
0.0
10
71.4916000366211
20
73.9747009277344
40
0.0
41
0.0
42
0.0
10
71.4542999267578
20
73.9599990844727
40
0.0
41
0.0
42
0.0
10
71.1473007202148
20
73.875602722168
40
0.0
41
0.0
42
0.0
10
71.1167984008789
20
73.8541030883789
40
0.0
41
0.0
42
0.0
10
70.9937973022461
20
73.7957000732422
40
0.0
41
0.0
42
0.0
10
70.7846984863281
20
73.5070037841797
40
0.0
41
0.0
42
0.0
10
70.6428985595703
20
73.336799621582
40
0.0
41
0.0
42
0.0
10
70.6175994873047
20
73.3117980957031
40
0.0
41
0.0
42
0.0
10
70.4900970458984
20
73.2434005737305
40
0.0
41
0.0
42
0.0
10
70.4101028442383
20
73.1977996826172
40
0.0
41
0.0
42
0.0
10
70.3873977661133
20
73.1797027587891
40
0.0
41
0.0
42
0.0
10
70.2587966918945
20
73.007698059082
40
0.0
41
0.0
42
0.0
10
70.052001953125
20
72.7098007202148
40
0.0
41
0.0
42
0.0
10
69.989501953125
20
72.6697006225586
40
0.0
41
0.0
42
0.0
10
69.8255004882812
20
72.6059036254883
40
0.0
41
0.0
42
0.0
10
69.7341995239258
20
72.533203125
40
0.0
41
0.0
42
0.0
10
69.4909973144531
20
72.2902984619141
40
0.0
41
0.0
42
0.0
10
69.1919021606445
20
72.2060012817383
40
0.0
41
0.0
42
0.0
10
68.9828033447266
20
72.1511001586914
40
0.0
41
0.0
42
0.0
10
68.6348037719727
20
72.1458969116211
40
0.0
41
0.0
42
0.0
10
68.5189971923828
20
72.1463012695312
40
0.0
41
0.0
42
0.0
10
68.0186996459961
20
72.1918029785156
40
0.0
41
0.0
42
0.0
10
67.7200012207031
20
72.1992034912109
40
0.0
41
0.0
42
0.0
10
67.4849014282227
20
72.1985015869141
40
0.0
41
0.0
42
0.0
10
67.0813980102539
20
72.0007019042969
40
0.0
41
0.0
42
0.0
10
66.993896484375
20
71.9665985107422
40
0.0
41
0.0
42
0.0
10
66.9251022338867
20
71.8609008789062
40
0.0
41
0.0
42
0.0
10
66.7837982177734
20
71.6746978759766
40
0.0
41
0.0
42
0.0
10
66.7227020263672
20
71.5121002197266
40
0.0
41
0.0
42
0.0
10
66.5783004760742
20
71.1787033081055
40
0.0
41
0.0
42
0.0
10
66.5459976196289
20
71.0162963867188
40
0.0
41
0.0
42
0.0
10
66.5007019042969
20
70.7272033691406
40
0.0
41
0.0
42
0.0
10
66.4952011108398
20
70.6834030151367
40
0.0
41
0.0
42
0.0
10
66.4935989379883
20
70.6108016967773
40
0.0
41
0.0
42
0.0
10
66.4990997314453
20
70.6544036865234
40
0.0
41
0.0
42
0.0
10
66.5507965087891
20
70.9835968017578
40
0.0
41
0.0
42
0.0
10
66.5762023925781
20
71.111198425293
40
0.0
41
0.0
42
0.0
10
66.7391967773438
20
71.4878005981445
40
0.0
41
0.0
42
0.0
10
66.7870025634766
20
71.6151962280273
40
0.0
41
0.0
42
0.0
10
66.9481964111328
20
71.8274993896484
40
0.0
41
0.0
42
0.0
10
67.006103515625
20
71.9163970947266
40
0.0
41
0.0
42
0.0
10
67.1956024169922
20
71.9888000488281
40
0.0
41
0.0
42
0.0
10
67.215202331543
20
71.9975967407227
40
0.0
41
0.0
42
0.0
10
67.5150985717773
20
72.144401550293
40
0.0
41
0.0
42
0.0
10
67.6290969848633
20
72.1447982788086
40
0.0
41
0.0
42
0.0
10
67.981201171875
20
72.1360015869141
40
0.0
41
0.0
42
0.0
10
68.4809036254883
20
72.0903015136719
40
0.0
41
0.0
42
0.0
10
68.609001159668
20
72.0901031494141
40
0.0
41
0.0
42
0.0
10
69.0170974731445
20
72.0962982177734
40
0.0
41
0.0
42
0.0
10
69.143798828125
20
72.1296005249023
40
0.0
41
0.0
42
0.0
10
69.5090026855469
20
72.2326965332031
40
0.0
41
0.0
42
0.0
10
69.809196472168
20
72.532096862793
40
0.0
41
0.0
42
0.0
10
69.8843994140625
20
72.5920028686523
40
0.0
41
0.0
42
0.0
10
70.0103988647461
20
72.640998840332
40
0.0
41
0.0
42
0.0
10
70.0484008789062
20
72.6654968261719
40
0.0
41
0.0
42
0.0
10
70.2752990722656
20
72.9922027587891
40
0.0
41
0.0
42
0.0
10
70.4162979125977
20
73.1809997558594
40
0.0
41
0.0
42
0.0
10
70.5098037719727
20
73.2342987060547
40
0.0
41
0.0
42
0.0
10
70.6724014282227
20
73.3216018676758
40
0.0
41
0.0
42
0.0
10
70.6993026733398
20
73.3479995727539
40
0.0
41
0.0
42
0.0
10
70.8199005126953
20
73.4928970336914
40
0.0
41
0.0
42
0.0
10
71.006103515625
20
73.7498016357422
40
0.0
41
0.0
42
0.0
10
71.1184997558594
20
73.8031997680664
40
0.0
41
0.0
42
0.0
10
71.1623992919922
20
73.8341979980469
40
0.0
41
0.0
42
0.0
10
71.4412994384766
20
73.9108963012695
40
0.0
41
0.0
42
0.0
10
71.5152969360352
20
73.9401016235352
40
0.0
41
0.0
42
0.0
10
71.9725036621094
20
73.9703979492188
40
0.0
41
0.0
42
0.0
10
72.0166015625
20
73.9795989990234
40
0.0
41
0.0
42
0.0
10
72.2059020996094
20
74.0005035400391
40
0.0
41
0.0
42
0.0
10
72.3796005249023
20
74.0655975341797
40
0.0
41
0.0
42
0.0
10
72.4831008911133
20
74.0342025756836
40
0.0
41
0.0
42
0.0
10
72.5137023925781
20
74.0342025756836
40
0.0
41
0.0
42
0.0
10
72.60009765625
20
74.0899963378906
40
0.0
41
0.0
42
0.0
10
72.6800994873047
20
74.1213989257812
40
0.0
41
0.0
42
0.0
10
73.0162963867188
20
74.1498031616211
40
0.0
41
0.0
42
0.0
10
73.3478012084961
20
74.241096496582
40
0.0
41
0.0
42
0.0
10
73.3859024047852
20
74.2585983276367
40
0.0
41
0.0
42
0.0
10
73.5062026977539
20
74.3181991577148
40
0.0
41
0.0
42
0.0
10
73.535400390625
20
74.3561019897461
40
0.0
41
0.0
42
0.0
10
73.6679000854492
20
74.4886016845703
40
0.0
41
0.0
42
0.0
10
73.6677017211914
20
74.5161972045898
40
0.0
41
0.0
42
0.0
10
73.6381988525391
20
74.5964965820312
40
0.0
41
0.0
42
0.0
10
73.5063018798828
20
74.8330993652344
40
0.0
41
0.0
42
0.0
10
73.1780014038086
20
74.8952026367188
40
0.0
41
0.0
42
0.0
10
73.0148010253906
20
74.9796981811523
40
0.0
41
0.0
42
0.0
10
72.9806976318359
20
74.9795989990234
40
0.0
41
0.0
42
0.0
10
72.7269973754883
20
74.9610977172852
40
0.0
41
0.0
42
0.0
10
72.4847030639648
20
74.894401550293
40
0.0
41
0.0
42
0.0
10
72.3069000244141
20
74.8613967895508
40
0.0
41
0.0
42
0.0
10
71.986198425293
20
74.7225036621094
40
0.0
41
0.0
42
0.0
10
71.9225997924805
20
74.7100982666016
40
0.0
41
0.0
42
0.0
10
71.77490234375
20
74.6645965576172
40
0.0
41
0.0
42
0.0
10
71.6728973388672
20
74.6412963867188
40
0.0
41
0.0
42
0.0
10
71.4841003417969
20
74.5735015869141
40
0.0
41
0.0
42
0.0
10
71.0417022705078
20
74.5503997802734
40
0.0
41
0.0
42
0.0
10
71.0073013305664
20
74.5466003417969
40
0.0
41
0.0
42
0.0
10
70.6812973022461
20
74.6472015380859
40
0.0
41
0.0
42
0.0
10
70.5177993774414
20
74.6551971435547
40
0.0
41
0.0
42
0.0
10
70.3482971191406
20
74.6811981201172
40
0.0
41
0.0
42
0.0
10
70.0099029541016
20
74.8566970825195
40
0.0
41
0.0
42
0.0
10
69.7698974609375
20
74.991096496582
40
0.0
41
0.0
42
0.0
10
69.6118011474609
20
75.0117034912109
40
0.0
41
0.0
42
0.0
10
69.5133972167969
20
75.0833969116211
40
0.0
41
0.0
42
0.0
10
69.3876037597656
20
75.0800018310547
40
0.0
41
0.0
42
0.0
10
69.0145034790039
20
75.2555999755859
40
0.0
41
0.0
42
0.0
10
68.6442031860352
20
75.2817993164062
40
0.0
41
0.0
42
0.0
10
68.6080017089844
20
75.2817001342773
40
0.0
41
0.0
42
0.0
10
68.4862976074219
20
75.2461013793945
40
0.0
41
0.0
42
0.0
10
68.154899597168
20
75.1334991455078
40
0.0
41
0.0
42
0.0
10
67.9897003173828
20
75.0582962036133
40
0.0
41
0.0
42
0.0
10
67.8927993774414
20
75.0016021728516
40
0.0
41
0.0
42
0.0
10
67.663200378418
20
74.8764038085938
40
0.0
41
0.0
42
0.0
10
67.5987014770508
20
74.8430023193359
40
0.0
41
0.0
42
0.0
10
67.4903030395508
20
74.7788009643555
40
0.0
41
0.0
42
0.0
10
67.1464996337891
20
74.5927963256836
40
0.0
41
0.0
42
0.0
10
66.9847030639648
20
74.5454025268555
40
0.0
41
0.0
42
0.0
10
66.8119964599609
20
74.5157012939453
40
0.0
41
0.0
42
0.0
10
66.5119018554688
20
74.5155029296875
40
0.0
41
0.0
42
0.0
10
66.3821029663086
20
74.632698059082
40
0.0
41
0.0
42
0.0
10
66.3450012207031
20
74.6565017700195
40
0.0
41
0.0
42
0.0
10
66.007698059082
20
74.8025970458984
40
0.0
41
0.0
42
0.0
10
65.8535003662109
20
74.9636001586914
40
0.0
41
0.0
42
0.0
10
65.8215026855469
20
75.0081024169922
40
0.0
41
0.0
42
0.0
10
65.7161026000977
20
75.1729965209961
40
0.0
41
0.0
42
0.0
10
65.5998001098633
20
75.3320007324219
40
0.0
41
0.0
42
0.0
10
65.5026016235352
20
75.4537963867188
40
0.0
41
0.0
42
0.0
10
65.4691009521484
20
75.5102005004883
40
0.0
41
0.0
42
0.0
10
65.4390029907227
20
75.5771026611328
40
0.0
41
0.0
42
0.0
10
65.3980026245117
20
75.6772003173828
40
0.0
41
0.0
42
0.0
10
65.2676010131836
20
76.0141983032227
40
0.0
41
0.0
42
0.0
10
65.2368011474609
20
76.1817016601562
40
0.0
41
0.0
42
0.0
10
65.1968002319336
20
76.5027008056641
40
0.0
41
0.0
42
0.0
10
65.2101974487305
20
76.6476974487305
40
0.0
41
0.0
42
0.0
10
65.269401550293
20
76.9869003295898
40
0.0
41
0.0
42
0.0
10
65.4449005126953
20
77.3171005249023
40
0.0
41
0.0
42
0.0
10
65.5008010864258
20
77.4465026855469
40
0.0
41
0.0
42
0.0
10
65.5223999023438
20
77.4912033081055
40
0.0
41
0.0
42
0.0
10
65.6399002075195
20
77.6370010375977
40
0.0
41
0.0
42
0.0
10
66.0071029663086
20
78.0067977905273
40
0.0
41
0.0
42
0.0
10
66.3833999633789
20
78.220100402832
40
0.0
41
0.0
42
0.0
10
66.5110015869141
20
78.3175964355469
40
0.0
41
0.0
42
0.0
10
66.8879013061523
20
78.3972015380859
40
0.0
41
0.0
42
0.0
10
66.9210968017578
20
78.4139022827148
40
0.0
41
0.0
42
0.0
10
67.0030975341797
20
78.4662017822266
40
0.0
41
0.0
42
0.0
10
67.1089019775391
20
78.4292984008789
40
0.0
41
0.0
42
0.0
10
67.4899978637695
20
78.3812026977539
40
0.0
41
0.0
42
0.0
10
67.5779037475586
20
78.2883987426758
40
0.0
41
0.0
42
0.0
10
67.9411010742188
20
77.9953002929688
40
0.0
41
0.0
42
0.0
10
67.9959030151367
20
77.9365997314453
40
0.0
41
0.0
42
0.0
10
68.0218963623047
20
77.9039993286133
40
0.0
41
0.0
42
0.0
10
68.3794021606445
20
77.493896484375
40
0.0
41
0.0
42
0.0
10
68.4934997558594
20
77.3701019287109
40
0.0
41
0.0
42
0.0
10
68.5494995117188
20
77.3339004516602
40
0.0
41
0.0
42
0.0
10
68.9240036010742
20
77.0650024414062
40
0.0
41
0.0
42
0.0
10
68.9906005859375
20
77.0133972167969
40
0.0
41
0.0
42
0.0
10
69.0225982666016
20
76.9998016357422
40
0.0
41
0.0
42
0.0
10
69.4824981689453
20
76.8874969482422
40
0.0
41
0.0
42
0.0
10
69.5184020996094
20
76.8873977661133
40
0.0
41
0.0
42
0.0
10
69.7503967285156
20
76.9226989746094
40
0.0
41
0.0
42
0.0
10
69.9838027954102
20
76.8951034545898
40
0.0
41
0.0
42
0.0
10
70.1075973510742
20
76.8632965087891
40
0.0
41
0.0
42
0.0
10
70.1436996459961
20
76.8631973266602
40
0.0
41
0.0
42
0.0
10
70.1819000244141
20
76.8676986694336
40
0.0
41
0.0
42
0.0
10
70.5168991088867
20
76.9261016845703
40
0.0
41
0.0
42
0.0
10
70.8287963867188
20
76.96240234375
40
0.0
41
0.0
42
0.0
10
70.9866027832031
20
76.9216995239258
40
0.0
41
0.0
42
0.0
10
71.1492004394531
20
76.8536987304688
40
0.0
41
0.0
42
0.0
10
71.1845016479492
20
76.8535995483398
40
0.0
41
0.0
42
0.0
10
71.4881973266602
20
76.8657989501953
40
0.0
41
0.0
42
0.0
10
71.9049987792969
20
76.5820999145508
40
0.0
41
0.0
42
0.0
10
72.0146026611328
20
76.5828018188477
40
0.0
41
0.0
42
0.0
10
72.1011962890625
20
76.6288986206055
40
0.0
41
0.0
42
0.0
10
72.1171035766602
20
76.6102981567383
40
0.0
41
0.0
42
0.0
10
72.071403503418
20
76.5500030517578
40
0.0
41
0.0
42
0.0
10
72.0384979248047
20
76.5121002197266
40
0.0
41
0.0
42
0.0
10
72.0382995605469
20
76.4898986816406
40
0.0
41
0.0
42
0.0
10
72.0677032470703
20
76.4660034179688
40
0.0
41
0.0
42
0.0
10
72.4946975708008
20
76.1686019897461
40
0.0
41
0.0
42
0.0
10
72.6255035400391
20
75.9931030273438
40
0.0
41
0.0
42
0.0
10
72.6417999267578
20
75.9747009277344
40
0.0
41
0.0
42
0.0
10
72.8249969482422
20
75.850700378418
40
0.0
41
0.0
42
0.0
10
72.9869003295898
20
75.7826995849609
40
0.0
41
0.0
42
0.0
10
73.3191986083984
20
75.6860961914062
40
0.0
41
0.0
42
0.0
10
73.3571014404297
20
75.6816024780273
40
0.0
41
0.0
42
0.0
10
73.4807968139648
20
75.6712036132812
40
0.0
41
0.0
42
0.0
10
73.5123977661133
20
75.6712036132812
40
0.0
41
0.0
42
0.0
10
73.6348037719727
20
75.7716979980469
40
0.0
41
0.0
42
0.0
10
73.869499206543
20
75.9890975952148
40
0.0
41
0.0
42
0.0
10
73.8694000244141
20
76.0145034790039
40
0.0
41
0.0
42
0.0
10
73.7819976806641
20
76.1725997924805
40
0.0
41
0.0
42
0.0
10
73.6009979248047
20
76.3718032836914
40
0.0
41
0.0
42
0.0
10
73.5063018798828
20
76.4794006347656
40
0.0
41
0.0
42
0.0
10
73.4677963256836
20
76.5026016235352
40
0.0
41
0.0
42
0.0
10
73.408203125
20
76.5503005981445
40
0.0
41
0.0
42
0.0
10
73.1726989746094
20
76.6849975585938
40
0.0
41
0.0
42
0.0
10
73.0390014648438
20
76.8022003173828
40
0.0
41
0.0
42
0.0
10
73.0101013183594
20
76.8203964233398
40
0.0
41
0.0
42
0.0
10
72.5995025634766
20
77.0011978149414
40
0.0
41
0.0
42
0.0
10
72.5785980224609
20
77.0136032104492
40
0.0
41
0.0
42
0.0
10
72.5080032348633
20
77.0619964599609
40
0.0
41
0.0
42
0.0
10
72.3114013671875
20
77.1996994018555
40
0.0
41
0.0
42
0.0
10
72.0158004760742
20
77.3210983276367
40
0.0
41
0.0
42
0.0
10
71.8275985717773
20
77.3209991455078
40
0.0
41
0.0
42
0.0
10
71.8706970214844
20
77.4826965332031
40
0.0
41
0.0
42
0.0
10
71.8705978393555
20
77.510498046875
40
0.0
41
0.0
42
0.0
10
71.7453994750977
20
77.6219024658203
40
0.0
41
0.0
42
0.0
10
71.6669006347656
20
77.8255996704102
40
0.0
41
0.0
42
0.0
10
71.6148986816406
20
77.8765029907227
40
0.0
41
0.0
42
0.0
10
71.5681991577148
20
78.0098037719727
40
0.0
41
0.0
42
0.0
10
71.5027008056641
20
78.0955963134766
40
0.0
41
0.0
42
0.0
10
71.4636993408203
20
78.1557006835938
40
0.0
41
0.0
42
0.0
10
71.447998046875
20
78.1746978759766
40
0.0
41
0.0
42
0.0
10
71.345100402832
20
78.5099029541016
40
0.0
41
0.0
42
0.0
10
71.2238006591797
20
78.6604995727539
40
0.0
41
0.0
42
0.0
10
71.1298980712891
20
79.0094985961914
40
0.0
41
0.0
42
0.0
10
71.1167984008789
20
79.0239028930664
40
0.0
41
0.0
42
0.0
10
71.0022964477539
20
79.3370971679688
40
0.0
41
0.0
42
0.0
10
70.8788986206055
20
79.4279022216797
40
0.0
41
0.0
42
0.0
10
70.8441009521484
20
79.4881973266602
40
0.0
41
0.0
42
0.0
10
70.8246994018555
20
79.5043029785156
40
0.0
41
0.0
42
0.0
10
70.5081024169922
20
79.8136978149414
40
0.0
41
0.0
42
0.0
10
70.0578002929688
20
80.0003967285156
40
0.0
41
0.0
42
0.0
10
70.0134963989258
20
80.0173034667969
40
0.0
41
0.0
42
0.0
10
69.9541015625
20
80.033203125
40
0.0
41
0.0
42
0.0
10
69.5137023925781
20
80.1620025634766
40
0.0
41
0.0
42
0.0
10
69.0111999511719
20
80.3277969360352
40
0.0
41
0.0
42
0.0
10
68.9413986206055
20
80.3685989379883
40
0.0
41
0.0
42
0.0
10
68.9208984375
20
80.3784027099609
40
0.0
41
0.0
42
0.0
10
68.8303985595703
20
80.5121994018555
40
0.0
41
0.0
42
0.0
10
68.8136978149414
20
80.6368026733398
40
0.0
41
0.0
42
0.0
10
68.78759765625
20
80.6722030639648
40
0.0
41
0.0
42
0.0
10
68.5231018066406
20
81.0096969604492
40
0.0
41
0.0
42
0.0
10
68.5341033935547
20
81.1457977294922
40
0.0
41
0.0
42
0.0
10
68.5339965820312
20
81.1837997436523
40
0.0
41
0.0
42
0.0
10
68.4991989135742
20
81.4979019165039
40
0.0
41
0.0
42
0.0
10
68.524299621582
20
81.6828002929688
40
0.0
41
0.0
42
0.0
10
68.5453033447266
20
81.8190002441406
40
0.0
41
0.0
42
0.0
10
68.5852966308594
20
81.9865036010742
40
0.0
41
0.0
42
0.0
10
68.6539993286133
20
82.1528015136719
40
0.0
41
0.0
42
0.0
10
68.7850036621094
20
82.4897003173828
40
0.0
41
0.0
42
0.0
10
68.9698028564453
20
82.7697982788086
40
0.0
41
0.0
42
0.0
10
69.0027008056641
20
82.8251037597656
40
0.0
41
0.0
42
0.0
10
69.0963973999023
20
82.9376983642578
40
0.0
41
0.0
42
0.0
10
69.1530990600586
20
82.9959030151367
40
0.0
41
0.0
42
0.0
10
69.4339981079102
20
83.1994018554688
40
0.0
41
0.0
42
0.0
10
69.5093002319336
20
83.2654037475586
40
0.0
41
0.0
42
0.0
10
69.8471984863281
20
83.3781967163086
40
0.0
41
0.0
42
0.0
10
70.0136032104492
20
83.4559020996094
40
0.0
41
0.0
42
0.0
10
70.1510009765625
20
83.480598449707
40
0.0
41
0.0
42
0.0
10
70.493896484375
20
83.505500793457
40
0.0
41
0.0
42
0.0
10
70.5078964233398
20
83.5075988769531
40
0.0
41
0.0
42
0.0
10
70.4813995361328
20
83.5081024169922
40
0.0
41
0.0
42
0.0
10
70.451301574707
20
83.5031967163086
40
0.0
41
0.0
42
0.0
10
70.0839004516602
20
83.4765014648438
40
0.0
41
0.0
42
0.0
10
69.9863967895508
20
83.4589004516602
40
0.0
41
0.0
42
0.0
10
69.8628005981445
20
83.4011993408203
40
0.0
41
0.0
42
0.0
10
69.4906005859375
20
83.2769012451172
40
0.0
41
0.0
42
0.0
10
69.4377975463867
20
83.2306976318359
40
0.0
41
0.0
42
0.0
10
69.1249008178711
20
83.0039978027344
40
0.0
41
0.0
42
0.0
10
69.065299987793
20
82.9429016113281
40
0.0
41
0.0
42
0.0
10
68.997200012207
20
82.8609008789062
40
0.0
41
0.0
42
0.0
10
68.9732971191406
20
82.82080078125
40
0.0
41
0.0
42
0.0
10
68.7683029174805
20
82.5102996826172
40
0.0
41
0.0
42
0.0
10
68.6233978271484
20
82.1371002197266
40
0.0
41
0.0
42
0.0
10
68.5723037719727
20
82.0134963989258
40
0.0
41
0.0
42
0.0
10
68.5429000854492
20
81.8908996582031
40
0.0
41
0.0
42
0.0
10
68.5197982788086
20
81.7405014038086
40
0.0
41
0.0
42
0.0
10
68.4893035888672
20
81.5185012817383
40
0.0
41
0.0
42
0.0
10
68.4891967773438
20
81.4811019897461
40
0.0
41
0.0
42
0.0
10
68.529296875
20
81.1221008300781
40
0.0
41
0.0
42
0.0
10
68.5212020874023
20
81.0190963745117
40
0.0
41
0.0
42
0.0
10
68.5211029052734
20
80.9871978759766
40
0.0
41
0.0
42
0.0
10
68.7846984863281
20
80.6507034301758
40
0.0
41
0.0
42
0.0
10
68.806396484375
20
80.4876022338867
40
0.0
41
0.0
42
0.0
10
68.9122009277344
20
80.3313980102539
40
0.0
41
0.0
42
0.0
10
68.9290008544922
20
80.3231964111328
40
0.0
41
0.0
42
0.0
10
68.9886016845703
20
80.2884979248047
40
0.0
41
0.0
42
0.0
10
69.486198425293
20
80.1248016357422
40
0.0
41
0.0
42
0.0
10
69.913200378418
20
79.9999008178711
40
0.0
41
0.0
42
0.0
10
69.9542007446289
20
79.9858016967773
40
0.0
41
0.0
42
0.0
10
69.9868011474609
20
79.9766006469727
40
0.0
41
0.0
42
0.0
10
70.49169921875
20
79.7671966552734
40
0.0
41
0.0
42
0.0
10
70.7696990966797
20
79.4953994750977
40
0.0
41
0.0
42
0.0
10
70.8003005981445
20
79.4698028564453
40
0.0
41
0.0
42
0.0
10
70.8309020996094
20
79.4170989990234
40
0.0
41
0.0
42
0.0
10
70.9974975585938
20
79.2947006225586
40
0.0
41
0.0
42
0.0
10
71.1009979248047
20
79.0109024047852
40
0.0
41
0.0
42
0.0
10
71.1199035644531
20
78.9903030395508
40
0.0
41
0.0
42
0.0
10
71.2108001708984
20
78.6521987915039
40
0.0
41
0.0
42
0.0
10
71.2276000976562
20
78.616096496582
40
0.0
41
0.0
42
0.0
10
71.3292999267578
20
78.4898986816406
40
0.0
41
0.0
42
0.0
10
71.4442977905273
20
78.1151962280273
40
0.0
41
0.0
42
0.0
10
71.4530029296875
20
78.1047973632812
40
0.0
41
0.0
42
0.0
10
71.4971008300781
20
78.0366973876953
40
0.0
41
0.0
42
0.0
10
71.5326995849609
20
77.9899978637695
40
0.0
41
0.0
42
0.0
10
71.5838012695312
20
77.8439025878906
40
0.0
41
0.0
42
0.0
10
71.6229019165039
20
77.8059005737305
40
0.0
41
0.0
42
0.0
10
71.7100982666016
20
77.5787963867188
40
0.0
41
0.0
42
0.0
10
71.804801940918
20
77.4946975708008
40
0.0
41
0.0
42
0.0
10
71.7519989013672
20
77.2963027954102
40
0.0
41
0.0
42
0.0
10
71.7375030517578
20
77.2529983520508
40
0.0
41
0.0
42
0.0
10
71.7373962402344
20
77.2370986938477
40
0.0
41
0.0
42
0.0
10
71.9841003417969
20
77.2347030639648
40
0.0
41
0.0
42
0.0
10
72.4365997314453
20
77.0516967773438
40
0.0
41
0.0
42
0.0
10
72.5140991210938
20
76.9982986450195
40
0.0
41
0.0
42
0.0
10
72.9897994995117
20
76.7889022827148
40
0.0
41
0.0
42
0.0
10
73.0165023803711
20
76.772102355957
40
0.0
41
0.0
42
0.0
10
73.1172027587891
20
76.6837997436523
40
0.0
41
0.0
42
0.0
10
73.379997253418
20
76.5336990356445
40
0.0
41
0.0
42
0.0
10
73.4254989624023
20
76.4971008300781
40
0.0
41
0.0
42
0.0
10
73.4934997558594
20
76.4560012817383
40
0.0
41
0.0
42
0.0
10
73.6563034057617
20
76.2712020874023
40
0.0
41
0.0
42
0.0
10
73.7962036132812
20
76.1172027587891
40
0.0
41
0.0
42
0.0
10
73.8598022460938
20
76.002197265625
40
0.0
41
0.0
42
0.0
10
73.6038970947266
20
75.7649002075195
40
0.0
41
0.0
42
0.0
10
73.4904022216797
20
75.6728973388672
40
0.0
41
0.0
42
0.0
10
73.3840026855469
20
75.681999206543
40
0.0
41
0.0
42
0.0
10
73.0129013061523
20
75.7899017333984
40
0.0
41
0.0
42
0.0
10
72.8849029541016
20
75.8436965942383
40
0.0
41
0.0
42
0.0
10
72.671501159668
20
75.9879989624023
40
0.0
41
0.0
42
0.0
10
72.6549987792969
20
76.0065994262695
40
0.0
41
0.0
42
0.0
10
72.5050964355469
20
76.2078018188477
40
0.0
41
0.0
42
0.0
10
72.1854019165039
20
76.4303970336914
40
0.0
41
0.0
42
0.0
10
72.0990982055664
20
76.5007019042969
40
0.0
41
0.0
42
0.0
10
72.1816024780273
20
76.5959014892578
40
0.0
41
0.0
42
0.0
10
72.4116973876953
20
76.8998031616211
40
0.0
41
0.0
42
0.0
10
72.4116973876953
20
76.9116973876953
40
0.0
41
0.0
42
0.0
10
72.3980026245117
20
76.9117965698242
40
0.0
41
0.0
42
0.0
10
71.9852981567383
20
76.6940994262695
40
0.0
41
0.0
42
0.0
10
71.820198059082
20
76.6919021606445
40
0.0
41
0.0
42
0.0
10
71.5134963989258
20
76.9007034301758
40
0.0
41
0.0
42
0.0
10
71.4804000854492
20
76.9005966186523
40
0.0
41
0.0
42
0.0
10
71.1376037597656
20
76.8868026733398
40
0.0
41
0.0
42
0.0
10
71.0131988525391
20
76.9391021728516
40
0.0
41
0.0
42
0.0
10
70.8923034667969
20
76.9701995849609
40
0.0
41
0.0
42
0.0
10
70.8561019897461
20
76.9701995849609
40
0.0
41
0.0
42
0.0
10
70.4830017089844
20
76.9266967773438
40
0.0
41
0.0
42
0.0
10
70.1628036499023
20
76.8709030151367
40
0.0
41
0.0
42
0.0
10
70.0160980224609
20
76.9087982177734
40
0.0
41
0.0
42
0.0
10
69.6864013671875
20
76.9477996826172
40
0.0
41
0.0
42
0.0
10
69.649299621582
20
76.9477005004883
40
0.0
41
0.0
42
0.0
10
69.5037002563477
20
76.9255981445312
40
0.0
41
0.0
42
0.0
10
69.1998977661133
20
76.9999008178711
40
0.0
41
0.0
42
0.0
10
69.0092010498047
20
77.0804977416992
40
0.0
41
0.0
42
0.0
10
68.6539993286133
20
77.3563003540039
40
0.0
41
0.0
42
0.0
10
68.527702331543
20
77.4469985961914
40
0.0
41
0.0
42
0.0
10
68.5063018798828
20
77.4608001708984
40
0.0
41
0.0
42
0.0
10
68.4646987915039
20
77.5057983398438
40
0.0
41
0.0
42
0.0
10
68.0055999755859
20
78.0314025878906
40
0.0
41
0.0
42
0.0
10
67.902099609375
20
78.1082000732422
40
0.0
41
0.0
42
0.0
10
67.5513000488281
20
78.3912963867188
40
0.0
41
0.0
42
0.0
10
67.5098037719727
20
78.4352035522461
40
0.0
41
0.0
42
0.0
10
67.0186004638672
20
78.4981002807617
40
0.0
41
0.0
42
0.0
10
66.9860992431641
20
78.4980010986328
40
0.0
41
0.0
42
0.0
10
66.8735961914062
20
78.426399230957
40
0.0
41
0.0
42
0.0
10
66.8219985961914
20
78.4002990722656
40
0.0
41
0.0
42
0.0
10
66.488899230957
20
78.3300018310547
40
0.0
41
0.0
42
0.0
10
66.3265991210938
20
78.2059020996094
40
0.0
41
0.0
42
0.0
10
65.992301940918
20
78.0165023803711
40
0.0
41
0.0
42
0.0
10
65.9791030883789
20
78.0046997070312
40
0.0
41
0.0
42
0.0
10
65.6484985351562
20
77.6706008911133
40
0.0
41
0.0
42
0.0
10
65.6137008666992
20
77.6314010620117
40
0.0
41
0.0
42
0.0
10
65.5139999389648
20
77.507698059082
40
0.0
41
0.0
42
0.0
10
65.510498046875
20
77.5020980834961
40
0.0
41
0.0
42
0.0
10
65.4563980102539
20
77.3779983520508
40
0.0
41
0.0
42
0.0
10
65.2623977661133
20
77.0130996704102
40
0.0
41
0.0
42
0.0
10
65.1976013183594
20
76.6421966552734
40
0.0
41
0.0
42
0.0
10
65.1864013671875
20
76.5189971923828
40
0.0
41
0.0
42
0.0
10
65.1863021850586
20
76.481201171875
40
0.0
41
0.0
42
0.0
10
65.2328033447266
20
76.1081008911133
40
0.0
41
0.0
42
0.0
10
65.2552032470703
20
75.9857025146484
40
0.0
41
0.0
42
0.0
210
0.0
220
0.0
230
1.0
0
LWPOLYLINE
5
25
330
1C
100
AcDbEntity
67
0
8
0
62
256
6
ByLayer
370
-1
48
1.0
60
0
100
AcDbPolyline
90
440
70
1
38
0.0
39
0.0
10
70.6132965087891
20
83.5056991577148
40
0.0
41
0.0
42
0.0
10
70.6544036865234
20
83.5007019042969
40
0.0
41
0.0
42
0.0
10
70.9835968017578
20
83.4488983154297
40
0.0
41
0.0
42
0.0
10
71.111198425293
20
83.4235000610352
40
0.0
41
0.0
42
0.0
10
71.4878005981445
20
83.260498046875
40
0.0
41
0.0
42
0.0
10
71.6151962280273
20
83.2126998901367
40
0.0
41
0.0
42
0.0
10
71.8274002075195
20
83.0515975952148
40
0.0
41
0.0
42
0.0
10
71.9163970947266
20
82.9937973022461
40
0.0
41
0.0
42
0.0
10
71.9888000488281
20
82.8041000366211
40
0.0
41
0.0
42
0.0
10
71.9974975585938
20
82.7845993041992
40
0.0
41
0.0
42
0.0
10
72.1436996459961
20
82.4865036010742
40
0.0
41
0.0
42
0.0
10
72.1355972290039
20
82.1544036865234
40
0.0
41
0.0
42
0.0
10
72.1360015869141
20
82.0175018310547
40
0.0
41
0.0
42
0.0
10
72.0904006958008
20
81.5190963745117
40
0.0
41
0.0
42
0.0
10
72.0966033935547
20
81.0835037231445
40
0.0
41
0.0
42
0.0
10
72.0962982177734
20
80.9825973510742
40
0.0
41
0.0
42
0.0
10
72.1296005249023
20
80.8560028076172
40
0.0
41
0.0
42
0.0
10
72.2325973510742
20
80.4908981323242
40
0.0
41
0.0
42
0.0
10
72.532096862793
20
80.1905975341797
40
0.0
41
0.0
42
0.0
10
72.5920028686523
20
80.1155014038086
40
0.0
41
0.0
42
0.0
10
72.640998840332
20
79.989501953125
40
0.0
41
0.0
42
0.0
10
72.665397644043
20
79.951301574707
40
0.0
41
0.0
42
0.0
10
72.9922027587891
20
79.7245025634766
40
0.0
41
0.0
42
0.0
10
73.1809997558594
20
79.5833969116211
40
0.0
41
0.0
42
0.0
10
73.2342987060547
20
79.4900970458984
40
0.0
41
0.0
42
0.0
10
73.3216018676758
20
79.3274993896484
40
0.0
41
0.0
42
0.0
10
73.3479995727539
20
79.3004989624023
40
0.0
41
0.0
42
0.0
10
73.4927978515625
20
79.179801940918
40
0.0
41
0.0
42
0.0
10
73.7498016357422
20
78.9937973022461
40
0.0
41
0.0
42
0.0
10
73.8046035766602
20
78.8781967163086
40
0.0
41
0.0
42
0.0
10
73.8898010253906
20
78.5976028442383
40
0.0
41
0.0
42
0.0
10
73.9100036621094
20
78.5607986450195
40
0.0
41
0.0
42
0.0
10
73.9401016235352
20
78.4845962524414
40
0.0
41
0.0
42
0.0
10
73.9703979492188
20
78.0272979736328
40
0.0
41
0.0
42
0.0
10
73.9795989990234
20
77.9832992553711
40
0.0
41
0.0
42
0.0
10
74.0005035400391
20
77.7938003540039
40
0.0
41
0.0
42
0.0
10
74.0656967163086
20
77.6203994750977
40
0.0
41
0.0
42
0.0
10
74.0342025756836
20
77.5167999267578
40
0.0
41
0.0
42
0.0
10
74.0341033935547
20
77.4860992431641
40
0.0
41
0.0
42
0.0
10
74.0899963378906
20
77.3996963500977
40
0.0
41
0.0
42
0.0
10
74.1213989257812
20
77.3198013305664
40
0.0
41
0.0
42
0.0
10
74.1496963500977
20
76.9835968017578
40
0.0
41
0.0
42
0.0
10
74.241096496582
20
76.652099609375
40
0.0
41
0.0
42
0.0
10
74.2585983276367
20
76.6139984130859
40
0.0
41
0.0
42
0.0
10
74.3181991577148
20
76.4935989379883
40
0.0
41
0.0
42
0.0
10
74.3561019897461
20
76.4643020629883
40
0.0
41
0.0
42
0.0
10
74.4886016845703
20
76.3320007324219
40
0.0
41
0.0
42
0.0
10
74.5161972045898
20
76.3320007324219
40
0.0
41
0.0
42
0.0
10
74.5966033935547
20
76.3615036010742
40
0.0
41
0.0
42
0.0
10
74.8330993652344
20
76.4934997558594
40
0.0
41
0.0
42
0.0
10
74.8953018188477
20
76.8218994140625
40
0.0
41
0.0
42
0.0
10
74.9796981811523
20
76.9850997924805
40
0.0
41
0.0
42
0.0
10
74.9795989990234
20
77.0192031860352
40
0.0
41
0.0
42
0.0
10
74.9610977172852
20
77.2727966308594
40
0.0
41
0.0
42
0.0
10
74.894401550293
20
77.5151977539062
40
0.0
41
0.0
42
0.0
10
74.8613967895508
20
77.6929016113281
40
0.0
41
0.0
42
0.0
10
74.7225036621094
20
78.0137023925781
40
0.0
41
0.0
42
0.0
10
74.7100982666016
20
78.0772018432617
40
0.0
41
0.0
42
0.0
10
74.6645965576172
20
78.2248992919922
40
0.0
41
0.0
42
0.0
10
74.6412963867188
20
78.3270034790039
40
0.0
41
0.0
42
0.0
10
74.5735015869141
20
78.5158004760742
40
0.0
41
0.0
42
0.0
10
74.5503997802734
20
78.9581985473633
40
0.0
41
0.0
42
0.0
10
74.5466003417969
20
78.9925994873047
40
0.0
41
0.0
42
0.0
10
74.6472015380859
20
79.318603515625
40
0.0
41
0.0
42
0.0
10
74.6551971435547
20
79.4821014404297
40
0.0
41
0.0
42
0.0
10
74.6811981201172
20
79.6516036987305
40
0.0
41
0.0
42
0.0
10
74.8566970825195
20
79.9898986816406
40
0.0
41
0.0
42
0.0
10
74.991096496582
20
80.2298965454102
40
0.0
41
0.0
42
0.0
10
75.0117034912109
20
80.3880004882812
40
0.0
41
0.0
42
0.0
10
75.0833969116211
20
80.4865036010742
40
0.0
41
0.0
42
0.0
10
75.0801010131836
20
80.6122970581055
40
0.0
41
0.0
42
0.0
10
75.2555999755859
20
80.9853973388672
40
0.0
41
0.0
42
0.0
10
75.2817993164062
20
81.3556976318359
40
0.0
41
0.0
42
0.0
10
75.2817001342773
20
81.3918991088867
40
0.0
41
0.0
42
0.0
10
75.2461013793945
20
81.5136032104492
40
0.0
41
0.0
42
0.0
10
75.1333999633789
20
81.8449020385742
40
0.0
41
0.0
42
0.0
10
75.0582962036133
20
82.0102005004883
40
0.0
41
0.0
42
0.0
10
75.0016021728516
20
82.1070022583008
40
0.0
41
0.0
42
0.0
10
74.8430023193359
20
82.4010009765625
40
0.0
41
0.0
42
0.0
10
74.7787017822266
20
82.5095977783203
40
0.0
41
0.0
42
0.0
10
74.5927963256836
20
82.8533020019531
40
0.0
41
0.0
42
0.0
10
74.5453033447266
20
83.0151977539062
40
0.0
41
0.0
42
0.0
10
74.5157012939453
20
83.1877975463867
40
0.0
41
0.0
42
0.0
10
74.5156021118164
20
83.4879989624023
40
0.0
41
0.0
42
0.0
10
74.632698059082
20
83.6176986694336
40
0.0
41
0.0
42
0.0
10
74.6566009521484
20
83.654899597168
40
0.0
41
0.0
42
0.0
10
74.8026962280273
20
83.9922027587891
40
0.0
41
0.0
42
0.0
10
74.9636001586914
20
84.1462020874023
40
0.0
41
0.0
42
0.0
10
75.0082015991211
20
84.1781997680664
40
0.0
41
0.0
42
0.0
10
75.1731033325195
20
84.2835998535156
40
0.0
41
0.0
42
0.0
10
75.3320999145508
20
84.4001007080078
40
0.0
41
0.0
42
0.0
10
75.4539031982422
20
84.4972991943359
40
0.0
41
0.0
42
0.0
10
75.5102996826172
20
84.5307006835938
40
0.0
41
0.0
42
0.0
10
75.5772018432617
20
84.5606994628906
40
0.0
41
0.0
42
0.0
10
75.6772003173828
20
84.6016998291016
40
0.0
41
0.0
42
0.0
10
76.0148010253906
20
84.7322998046875
40
0.0
41
0.0
42
0.0
10
76.3517990112305
20
84.774299621582
40
0.0
41
0.0
42
0.0
10
76.5003967285156
20
84.8014984130859
40
0.0
41
0.0
42
0.0
10
76.8177032470703
20
84.7461013793945
40
0.0
41
0.0
42
0.0
10
76.9860000610352
20
84.7306976318359
40
0.0
41
0.0
42
0.0
10
77.3170013427734
20
84.554801940918
40
0.0
41
0.0
42
0.0
10
77.4465026855469
20
84.4990005493164
40
0.0
41
0.0
42
0.0
10
77.4912033081055
20
84.4773025512695
40
0.0
41
0.0
42
0.0
10
77.6370010375977
20
84.3599014282227
40
0.0
41
0.0
42
0.0
10
78.0066986083984
20
83.9927978515625
40
0.0
41
0.0
42
0.0
10
78.2200012207031
20
83.6165008544922
40
0.0
41
0.0
42
0.0
10
78.3175964355469
20
83.488899230957
40
0.0
41
0.0
42
0.0
10
78.3972015380859
20
83.1119003295898
40
0.0
41
0.0
42
0.0
10
78.4139022827148
20
83.0786972045898
40
0.0
41
0.0
42
0.0
10
78.4662017822266
20
82.9969024658203
40
0.0
41
0.0
42
0.0
10
78.4292984008789
20
82.8908996582031
40
0.0
41
0.0
42
0.0
10
78.3813018798828
20
82.5099029541016
40
0.0
41
0.0
42
0.0
10
78.2884979248047
20
82.4218978881836
40
0.0
41
0.0
42
0.0
10
77.9953994750977
20
82.0587005615234
40
0.0
41
0.0
42
0.0
10
77.9365997314453
20
82.0040969848633
40
0.0
41
0.0
42
0.0
10
77.9040985107422
20
81.977897644043
40
0.0
41
0.0
42
0.0
10
77.4940032958984
20
81.6203002929688
40
0.0
41
0.0
42
0.0
10
77.3701019287109
20
81.5063018798828
40
0.0
41
0.0
42
0.0
10
77.3339996337891
20
81.4502029418945
40
0.0
41
0.0
42
0.0
10
77.0650024414062
20
81.0756988525391
40
0.0
41
0.0
42
0.0
10
77.0133972167969
20
81.0093002319336
40
0.0
41
0.0
42
0.0
10
76.9999008178711
20
80.9772033691406
40
0.0
41
0.0
42
0.0
10
76.8874969482422
20
80.5174026489258
40
0.0
41
0.0
42
0.0
10
76.8873977661133
20
80.4814987182617
40
0.0
41
0.0
42
0.0
10
76.9226989746094
20
80.249397277832
40
0.0
41
0.0
42
0.0
10
76.8951034545898
20
80.0160980224609
40
0.0
41
0.0
42
0.0
10
76.8632965087891
20
79.8923034667969
40
0.0
41
0.0
42
0.0
10
76.8631973266602
20
79.856201171875
40
0.0
41
0.0
42
0.0
10
76.8676986694336
20
79.818000793457
40
0.0
41
0.0
42
0.0
10
76.9261016845703
20
79.4830017089844
40
0.0
41
0.0
42
0.0
10
76.96240234375
20
79.1709976196289
40
0.0
41
0.0
42
0.0
10
76.9217987060547
20
79.0131988525391
40
0.0
41
0.0
42
0.0
10
76.8536987304688
20
78.850700378418
40
0.0
41
0.0
42
0.0
10
76.8535995483398
20
78.8153991699219
40
0.0
41
0.0
42
0.0
10
76.8657989501953
20
78.5117034912109
40
0.0
41
0.0
42
0.0
10
76.5820999145508
20
78.0948028564453
40
0.0
41
0.0
42
0.0
10
76.5828018188477
20
77.9851989746094
40
0.0
41
0.0
42
0.0
10
76.6288986206055
20
77.8986968994141
40
0.0
41
0.0
42
0.0
10
76.6102981567383
20
77.8827972412109
40
0.0
41
0.0
42
0.0
10
76.5500030517578
20
77.9282989501953
40
0.0
41
0.0
42
0.0
10
76.5121002197266
20
77.9614028930664
40
0.0
41
0.0
42
0.0
10
76.4918975830078
20
77.9614028930664
40
0.0
41
0.0
42
0.0
10
76.4206008911133
20
77.8406982421875
40
0.0
41
0.0
42
0.0
10
76.2836990356445
20
77.6725997924805
40
0.0
41
0.0
42
0.0
10
76.1950988769531
20
77.5352020263672
40
0.0
41
0.0
42
0.0
10
76.1676025390625
20
77.5044021606445
40
0.0
41
0.0
42
0.0
10
75.9932022094727
20
77.3741989135742
40
0.0
41
0.0
42
0.0
10
75.9747009277344
20
77.3580017089844
40
0.0
41
0.0
42
0.0
10
75.8507995605469
20
77.1748962402344
40
0.0
41
0.0
42
0.0
10
75.7826995849609
20
77.0129013061523
40
0.0
41
0.0
42
0.0
10
75.6862030029297
20
76.6807022094727
40
0.0
41
0.0
42
0.0
10
75.6816024780273
20
76.6427993774414
40
0.0
41
0.0
42
0.0
10
75.6712036132812
20
76.5190963745117
40
0.0
41
0.0
42
0.0
10
75.6710968017578
20
76.4873962402344
40
0.0
41
0.0
42
0.0
10
75.771598815918
20
76.3648986816406
40
0.0
41
0.0
42
0.0
10
75.9890975952148
20
76.1304016113281
40
0.0
41
0.0
42
0.0
10
76.0145034790039
20
76.1303024291992
40
0.0
41
0.0
42
0.0
10
76.1725997924805
20
76.2177963256836
40
0.0
41
0.0
42
0.0
10
76.3719024658203
20
76.3988037109375
40
0.0
41
0.0
42
0.0
10
76.4793014526367
20
76.4934997558594
40
0.0
41
0.0
42
0.0
10
76.5557022094727
20
76.6248016357422
40
0.0
41
0.0
42
0.0
10
76.6852035522461
20
76.8274002075195
40
0.0
41
0.0
42
0.0
10
76.8209991455078
20
76.991096496582
40
0.0
41
0.0
42
0.0
10
77.0011978149414
20
77.4002990722656
40
0.0
41
0.0
42
0.0
10
77.0136032104492
20
77.4212036132812
40
0.0
41
0.0
42
0.0
10
77.0619964599609
20
77.4918975830078
40
0.0
41
0.0
42
0.0
10
77.1997985839844
20
77.6884994506836
40
0.0
41
0.0
42
0.0
10
77.3210983276367
20
77.9841003417969
40
0.0
41
0.0
42
0.0
10
77.3210983276367
20
78.1720962524414
40
0.0
41
0.0
42
0.0
10
77.4826965332031
20
78.1289978027344
40
0.0
41
0.0
42
0.0
10
77.515998840332
20
78.1290969848633
40
0.0
41
0.0
42
0.0
10
77.6110000610352
20
78.1657028198242
40
0.0
41
0.0
42
0.0
10
77.8265991210938
20
78.3330993652344
40
0.0
41
0.0
42
0.0
10
77.9777984619141
20
78.3996963500977
40
0.0
41
0.0
42
0.0
10
78.0059967041016
20
78.428596496582
40
0.0
41
0.0
42
0.0
10
78.095703125
20
78.4971008300781
40
0.0
41
0.0
42
0.0
10
78.1557998657227
20
78.536003112793
40
0.0
41
0.0
42
0.0
10
78.1747970581055
20
78.5516967773438
40
0.0
41
0.0
42
0.0
10
78.5141983032227
20
78.6558990478516
40
0.0
41
0.0
42
0.0
10
78.8466033935547
20
78.7453994750977
40
0.0
41
0.0
42
0.0
10
78.8828964233398
20
78.7674026489258
40
0.0
41
0.0
42
0.0
10
79.0063018798828
20
78.8667984008789
40
0.0
41
0.0
42
0.0
10
79.0239028930664
20
78.8830032348633
40
0.0
41
0.0
42
0.0
10
79.3371963500977
20
78.9974975585938
40
0.0
41
0.0
42
0.0
10
79.4280014038086
20
79.1209030151367
40
0.0
41
0.0
42
0.0
10
79.4881973266602
20
79.1557998657227
40
0.0
41
0.0
42
0.0
10
79.5044021606445
20
79.1751022338867
40
0.0
41
0.0
42
0.0
10
79.8143997192383
20
79.4924011230469
40
0.0
41
0.0
42
0.0
10
79.8337020874023
20
79.5297012329102
40
0.0
41
0.0
42
0.0
10
79.8685989379883
20
79.6134033203125
40
0.0
41
0.0
42
0.0
10
79.9104995727539
20
79.7036972045898
40
0.0
41
0.0
42
0.0
10
80.0173034667969
20
79.9863967895508
40
0.0
41
0.0
42
0.0
10
80.033203125
20
80.0457000732422
40
0.0
41
0.0
42
0.0
10
80.1621017456055
20
80.486198425293
40
0.0
41
0.0
42
0.0
10
80.3279037475586
20
80.9886016845703
40
0.0
41
0.0
42
0.0
10
80.3686981201172
20
81.0584030151367
40
0.0
41
0.0
42
0.0
10
80.3785018920898
20
81.0787963867188
40
0.0
41
0.0
42
0.0
10
80.5075988769531
20
81.1661987304688
40
0.0
41
0.0
42
0.0
10
80.8837966918945
20
81.4608993530273
40
0.0
41
0.0
42
0.0
10
81.0044021606445
20
81.4769973754883
40
0.0
41
0.0
42
0.0
10
81.1457977294922
20
81.4657974243164
40
0.0
41
0.0
42
0.0
10
81.1837997436523
20
81.4656982421875
40
0.0
41
0.0
42
0.0
10
81.4979019165039
20
81.5005035400391
40
0.0
41
0.0
42
0.0
10
81.6827011108398
20
81.4754028320312
40
0.0
41
0.0
42
0.0
10
81.8190002441406
20
81.4543991088867
40
0.0
41
0.0
42
0.0
10
81.986198425293
20
81.4143981933594
40
0.0
41
0.0
42
0.0
10
82.3227996826172
20
81.2836990356445
40
0.0
41
0.0
42
0.0
10
82.4897994995117
20
81.214599609375
40
0.0
41
0.0
42
0.0
10
82.7697982788086
20
81.029899597168
40
0.0
41
0.0
42
0.0
10
82.8251037597656
20
80.9971008300781
40
0.0
41
0.0
42
0.0
10
82.9376983642578
20
80.9033966064453
40
0.0
41
0.0
42
0.0
10
82.9959030151367
20
80.8466033935547
40
0.0
41
0.0
42
0.0
10
83.1993026733398
20
80.5659027099609
40
0.0
41
0.0
42
0.0
10
83.2654037475586
20
80.4906005859375
40
0.0
41
0.0
42
0.0
10
83.3780975341797
20
80.152702331543
40
0.0
41
0.0
42
0.0
10
83.4559020996094
20
79.9862976074219
40
0.0
41
0.0
42
0.0
10
83.480598449707
20
79.8488006591797
40
0.0
41
0.0
42
0.0
10
83.505500793457
20
79.5058975219727
40
0.0
41
0.0
42
0.0
10
83.5074996948242
20
79.4924011230469
40
0.0
41
0.0
42
0.0
10
83.5080032348633
20
79.5185012817383
40
0.0
41
0.0
42
0.0
10
83.5031967163086
20
79.5485000610352
40
0.0
41
0.0
42
0.0
10
83.4764022827148
20
79.915901184082
40
0.0
41
0.0
42
0.0
10
83.4589004516602
20
80.0134963989258
40
0.0
41
0.0
42
0.0
10
83.4011001586914
20
80.1371002197266
40
0.0
41
0.0
42
0.0
10
83.2769012451172
20
80.5093002319336
40
0.0
41
0.0
42
0.0
10
83.230598449707
20
80.5619964599609
40
0.0
41
0.0
42
0.0
10
83.0038986206055
20
80.8748016357422
40
0.0
41
0.0
42
0.0
10
82.9428024291992
20
80.9345016479492
40
0.0
41
0.0
42
0.0
10
82.8609008789062
20
81.0027008056641
40
0.0
41
0.0
42
0.0
10
82.82080078125
20
81.026496887207
40
0.0
41
0.0
42
0.0
10
82.5100021362305
20
81.2314987182617
40
0.0
41
0.0
42
0.0
10
82.3871002197266
20
81.2823028564453
40
0.0
41
0.0
42
0.0
10
82.0137023925781
20
81.4273986816406
40
0.0
41
0.0
42
0.0
10
81.8908996582031
20
81.4568023681641
40
0.0
41
0.0
42
0.0
10
81.7405014038086
20
81.4798965454102
40
0.0
41
0.0
42
0.0
10
81.5185012817383
20
81.5105972290039
40
0.0
41
0.0
42
0.0
10
81.4810028076172
20
81.510498046875
40
0.0
41
0.0
42
0.0
10
81.3696975708008
20
81.4990997314453
40
0.0
41
0.0
42
0.0
10
81.3438034057617
20
81.4949035644531
40
0.0
41
0.0
42
0.0
10
81.1221008300781
20
81.4703979492188
40
0.0
41
0.0
42
0.0
10
81.0190963745117
20
81.4786987304688
40
0.0
41
0.0
42
0.0
10
80.9813995361328
20
81.4785995483398
40
0.0
41
0.0
42
0.0
10
80.8582000732422
20
81.4621963500977
40
0.0
41
0.0
42
0.0
10
80.8237991333008
20
81.4561004638672
40
0.0
41
0.0
42
0.0
10
80.492301940918
20
81.1965026855469
40
0.0
41
0.0
42
0.0
10
80.3313980102539
20
81.0876007080078
40
0.0
41
0.0
42
0.0
10
80.3233032226562
20
81.07080078125
40
0.0
41
0.0
42
0.0
10
80.2885971069336
20
81.0112991333008
40
0.0
41
0.0
42
0.0
10
80.1249008178711
20
80.5137023925781
40
0.0
41
0.0
42
0.0
10
79.9999008178711
20
80.0866012573242
40
0.0
41
0.0
42
0.0
10
79.9858016967773
20
80.0456008911133
40
0.0
41
0.0
42
0.0
10
79.9767990112305
20
80.0133972167969
40
0.0
41
0.0
42
0.0
10
79.880500793457
20
79.757698059082
40
0.0
41
0.0
42
0.0
10
79.8426971435547
20
79.6764984130859
40
0.0
41
0.0
42
0.0
10
79.7963027954102
20
79.5651016235352
40
0.0
41
0.0
42
0.0
10
79.7667007446289
20
79.5074996948242
40
0.0
41
0.0
42
0.0
10
79.4954986572266
20
79.2301025390625
40
0.0
41
0.0
42
0.0
10
79.4699020385742
20
79.1994018554688
40
0.0
41
0.0
42
0.0
10
79.4171981811523
20
79.1689987182617
40
0.0
41
0.0
42
0.0
10
79.2947998046875
20
79.0022964477539
40
0.0
41
0.0
42
0.0
10
79.0109024047852
20
78.8986968994141
40
0.0
41
0.0
42
0.0
10
78.9935989379883
20
78.8827972412109
40
0.0
41
0.0
42
0.0
10
78.8499984741211
20
78.7670974731445
40
0.0
41
0.0
42
0.0
10
78.4858016967773
20
78.6691970825195
40
0.0
41
0.0
42
0.0
10
78.1151962280273
20
78.5553970336914
40
0.0
41
0.0
42
0.0
10
78.1048965454102
20
78.5467987060547
40
0.0
41
0.0
42
0.0
10
78.0366973876953
20
78.502799987793
40
0.0
41
0.0
42
0.0
10
77.993896484375
20
78.4700012207031
40
0.0
41
0.0
42
0.0
10
77.9767990112305
20
78.4524993896484
40
0.0
41
0.0
42
0.0
10
77.8049011230469
20
78.3768005371094
40
0.0
41
0.0
42
0.0
10
77.6408004760742
20
78.249397277832
40
0.0
41
0.0
42
0.0
10
77.4974975585938
20
78.1941986083984
40
0.0
41
0.0
42
0.0
10
77.2963027954102
20
78.2477035522461
40
0.0
41
0.0
42
0.0
10
77.2529983520508
20
78.2623977661133
40
0.0
41
0.0
42
0.0
10
77.2370986938477
20
78.2623977661133
40
0.0
41
0.0
42
0.0
10
77.2348022460938
20
78.0158004760742
40
0.0
41
0.0
42
0.0
10
77.0516967773438
20
77.563102722168
40
0.0
41
0.0
42
0.0
10
76.9983978271484
20
77.4857025146484
40
0.0
41
0.0
42
0.0
10
76.7883987426758
20
77.0087966918945
40
0.0
41
0.0
42
0.0
10
76.6836013793945
20
76.8825988769531
40
0.0
41
0.0
42
0.0
10
76.5871963500977
20
76.7317962646484
40
0.0
41
0.0
42
0.0
10
76.4980010986328
20
76.5755996704102
40
0.0
41
0.0
42
0.0
10
76.4560012817383
20
76.5063018798828
40
0.0
41
0.0
42
0.0
10
76.2713012695312
20
76.3434982299805
40
0.0
41
0.0
42
0.0
10
76.117301940918
20
76.2036972045898
40
0.0
41
0.0
42
0.0
10
76.002197265625
20
76.1399002075195
40
0.0
41
0.0
42
0.0
10
75.7649002075195
20
76.3958969116211
40
0.0
41
0.0
42
0.0
10
75.6728973388672
20
76.5094985961914
40
0.0
41
0.0
42
0.0
10
75.681999206543
20
76.6158981323242
40
0.0
41
0.0
42
0.0
10
75.7899017333984
20
76.9869995117188
40
0.0
41
0.0
42
0.0
10
75.8436965942383
20
77.1149978637695
40
0.0
41
0.0
42
0.0
10
75.9880981445312
20
77.3283004760742
40
0.0
41
0.0
42
0.0
10
76.0066986083984
20
77.3448028564453
40
0.0
41
0.0
42
0.0
10
76.2089004516602
20
77.4954986572266
40
0.0
41
0.0
42
0.0
10
76.2253036499023
20
77.5139007568359
40
0.0
41
0.0
42
0.0
10
76.2920989990234
20
77.617301940918
40
0.0
41
0.0
42
0.0
10
76.4446029663086
20
77.804801940918
40
0.0
41
0.0
42
0.0
10
76.5010986328125
20
77.9002990722656
40
0.0
41
0.0
42
0.0
10
76.5958023071289
20
77.818000793457
40
0.0
41
0.0
42
0.0
10
76.8996963500977
20
77.5879974365234
40
0.0
41
0.0
42
0.0
10
76.9116973876953
20
77.5880966186523
40
0.0
41
0.0
42
0.0
10
76.9117965698242
20
77.6017990112305
40
0.0
41
0.0
42
0.0
10
76.6940994262695
20
78.0146026611328
40
0.0
41
0.0
42
0.0
10
76.6919021606445
20
78.1796035766602
40
0.0
41
0.0
42
0.0
10
76.9007034301758
20
78.4863967895508
40
0.0
41
0.0
42
0.0
10
76.9005966186523
20
78.5195007324219
40
0.0
41
0.0
42
0.0
10
76.8869018554688
20
78.8622970581055
40
0.0
41
0.0
42
0.0
10
76.9391021728516
20
78.986701965332
40
0.0
41
0.0
42
0.0
10
76.9701995849609
20
79.1075973510742
40
0.0
41
0.0
42
0.0
10
76.9701995849609
20
79.143798828125
40
0.0
41
0.0
42
0.0
10
76.9266967773438
20
79.5168991088867
40
0.0
41
0.0
42
0.0
10
76.8709030151367
20
79.8370971679688
40
0.0
41
0.0
42
0.0
10
76.9087982177734
20
79.9838027954102
40
0.0
41
0.0
42
0.0
10
76.9477996826172
20
80.3134002685547
40
0.0
41
0.0
42
0.0
10
76.9477005004883
20
80.3505020141602
40
0.0
41
0.0
42
0.0
10
76.9255981445312
20
80.4962005615234
40
0.0
41
0.0
42
0.0
10
76.9999008178711
20
80.7998962402344
40
0.0
41
0.0
42
0.0
10
77.0804977416992
20
80.9906005859375
40
0.0
41
0.0
42
0.0
10
77.3563003540039
20
81.345703125
40
0.0
41
0.0
42
0.0
10
77.4470977783203
20
81.4720001220703
40
0.0
41
0.0
42
0.0
10
77.4608001708984
20
81.4935989379883
40
0.0
41
0.0
42
0.0
10
77.5058975219727
20
81.5350036621094
40
0.0
41
0.0
42
0.0
10
78.0314025878906
20
81.9943008422852
40
0.0
41
0.0
42
0.0
10
78.1082992553711
20
82.0977020263672
40
0.0
41
0.0
42
0.0
10
78.3914031982422
20
82.4484024047852
40
0.0
41
0.0
42
0.0
10
78.4352035522461
20
82.4900970458984
40
0.0
41
0.0
42
0.0
10
78.4981002807617
20
82.9813003540039
40
0.0
41
0.0
42
0.0
10
78.4980010986328
20
83.013801574707
40
0.0
41
0.0
42
0.0
10
78.4263000488281
20
83.1261978149414
40
0.0
41
0.0
42
0.0
10
78.4002990722656
20
83.1779022216797
40
0.0
41
0.0
42
0.0
10
78.3299026489258
20
83.5109024047852
40
0.0
41
0.0
42
0.0
10
78.2058029174805
20
83.6733016967773
40
0.0
41
0.0
42
0.0
10
78.0165023803711
20
84.0075988769531
40
0.0
41
0.0
42
0.0
10
78.0046997070312
20
84.0205993652344
40
0.0
41
0.0
42
0.0
10
77.6705017089844
20
84.3513031005859
40
0.0
41
0.0
42
0.0
10
77.6314010620117
20
84.386100769043
40
0.0
41
0.0
42
0.0
10
77.5011978149414
20
84.4897003173828
40
0.0
41
0.0
42
0.0
10
77.3779983520508
20
84.5434036254883
40
0.0
41
0.0
42
0.0
10
77.013801574707
20
84.7368011474609
40
0.0
41
0.0
42
0.0
10
76.8921966552734
20
84.7480010986328
40
0.0
41
0.0
42
0.0
10
76.5180969238281
20
84.8134994506836
40
0.0
41
0.0
42
0.0
10
76.4819030761719
20
84.8134002685547
40
0.0
41
0.0
42
0.0
10
76.3581008911133
20
84.7907028198242
40
0.0
41
0.0
42
0.0
10
75.9850997924805
20
84.7443008422852
40
0.0
41
0.0
42
0.0
10
75.6127014160156
20
84.60009765625
40
0.0
41
0.0
42
0.0
10
75.5378036499023
20
84.5693969726562
40
0.0
41
0.0
42
0.0
10
75.4896011352539
20
84.5478973388672
40
0.0
41
0.0
42
0.0
10
75.4135971069336
20
84.5026016235352
40
0.0
41
0.0
42
0.0
10
75.2388000488281
20
84.3630981445312
40
0.0
41
0.0
42
0.0
10
75.1168975830078
20
84.2736968994141
40
0.0
41
0.0
42
0.0
10
74.99169921875
20
84.1940002441406
40
0.0
41
0.0
42
0.0
10
74.9608993530273
20
84.1717987060547
40
0.0
41
0.0
42
0.0
10
74.7893981933594
20
84.007698059082
40
0.0
41
0.0
42
0.0
10
74.6370010375977
20
83.6557998657227
40
0.0
41
0.0
42
0.0
10
74.5070037841797
20
83.5119018554688
40
0.0
41
0.0
42
0.0
10
74.5071029663086
20
83.0456008911133
40
0.0
41
0.0
42
0.0
10
74.5177001953125
20
82.9847030639648
40
0.0
41
0.0
42
0.0
10
74.5781021118164
20
82.7786026000977
40
0.0
41
0.0
42
0.0
10
74.7341003417969
20
82.4903030395508
40
0.0
41
0.0
42
0.0
10
74.7888031005859
20
82.3979034423828
40
0.0
41
0.0
42
0.0
10
75.0101013183594
20
81.9893035888672
40
0.0
41
0.0
42
0.0
10
75.1110992431641
20
81.7668991088867
40
0.0
41
0.0
42
0.0
10
75.2065963745117
20
81.4862976074219
40
0.0
41
0.0
42
0.0
10
75.2537994384766
20
81.3256988525391
40
0.0
41
0.0
42
0.0
10
75.2319030761719
20
81.0146026611328
40
0.0
41
0.0
42
0.0
10
75.0746994018555
20
80.6802978515625
40
0.0
41
0.0
42
0.0
10
75.0746002197266
20
80.6453018188477
40
0.0
41
0.0
42
0.0
10
75.0794982910156
20
80.5115966796875
40
0.0
41
0.0
42
0.0
10
75.0121002197266
20
80.4188003540039
40
0.0
41
0.0
42
0.0
10
75.010498046875
20
80.4129028320312
40
0.0
41
0.0
42
0.0
10
74.9937973022461
20
80.285400390625
40
0.0
41
0.0
42
0.0
10
74.8395004272461
20
80.0100021362305
40
0.0
41
0.0
42
0.0
10
74.646598815918
20
79.6383972167969
40
0.0
41
0.0
42
0.0
10
74.6280975341797
20
79.5177993774414
40
0.0
41
0.0
42
0.0
10
74.6219024658203
20
79.3912963867188
40
0.0
41
0.0
42
0.0
10
74.5064010620117
20
79.0167999267578
40
0.0
41
0.0
42
0.0
10
74.5063018798828
20
78.9804992675781
40
0.0
41
0.0
42
0.0
10
74.5300979614258
20
78.5040969848633
40
0.0
41
0.0
42
0.0
10
74.5325012207031
20
78.4848022460938
40
0.0
41
0.0
42
0.0
10
74.6073989868164
20
78.2763977050781
40
0.0
41
0.0
42
0.0
10
74.6251983642578
20
78.1984024047852
40
0.0
41
0.0
42
0.0
10
74.6763000488281
20
78.0324020385742
40
0.0
41
0.0
42
0.0
10
74.685302734375
20
77.986198425293
40
0.0
41
0.0
42
0.0
10
74.8430023193359
20
77.6218032836914
40
0.0
41
0.0
42
0.0
10
74.8685989379883
20
77.4847030639648
40
0.0
41
0.0
42
0.0
10
74.9530029296875
20
77.1778030395508
40
0.0
41
0.0
42
0.0
10
74.965202331543
20
77.0105972290039
40
0.0
41
0.0
42
0.0
10
74.9019012451172
20
76.8880004882812
40
0.0
41
0.0
42
0.0
10
74.8295974731445
20
76.5064010620117
40
0.0
41
0.0
42
0.0
10
74.5980987548828
20
76.3766021728516
40
0.0
41
0.0
42
0.0
10
74.5037994384766
20
76.341796875
40
0.0
41
0.0
42
0.0
10
74.3830032348633
20
76.4626007080078
40
0.0
41
0.0
42
0.0
10
74.3264999389648
20
76.5062026977539
40
0.0
41
0.0
42
0.0
10
74.2577972412109
20
76.6448974609375
40
0.0
41
0.0
42
0.0
10
74.1552963256836
20
77.0161972045898
40
0.0
41
0.0
42
0.0
10
74.1238021850586
20
77.3900985717773
40
0.0
41
0.0
42
0.0
10
74.103401184082
20
77.4421997070312
40
0.0
41
0.0
42
0.0
10
74.0634994506836
20
77.5038986206055
40
0.0
41
0.0
42
0.0
10
74.1222991943359
20
77.6966018676758
40
0.0
41
0.0
42
0.0
10
74.122200012207
20
77.7294998168945
40
0.0
41
0.0
42
0.0
10
74.0224990844727
20
77.9952011108398
40
0.0
41
0.0
42
0.0
10
74.0951995849609
20
78.0837020874023
40
0.0
41
0.0
42
0.0
10
74.095100402832
20
78.0949020385742
40
0.0
41
0.0
42
0.0
10
74.0712966918945
20
78.0948028564453
40
0.0
41
0.0
42
0.0
10
74.0689010620117
20
78.0978012084961
40
0.0
41
0.0
42
0.0
10
74.0000991821289
20
78.0977020263672
40
0.0
41
0.0
42
0.0
10
73.9747009277344
20
78.5080032348633
40
0.0
41
0.0
42
0.0
10
73.9604034423828
20
78.5440979003906
40
0.0
41
0.0
42
0.0
10
73.9514007568359
20
78.5607986450195
40
0.0
41
0.0
42
0.0
10
73.8526000976562
20
78.8860015869141
40
0.0
41
0.0
42
0.0
10
73.7956008911133
20
79.0059967041016
40
0.0
41
0.0
42
0.0
10
73.5070037841797
20
79.2149963378906
40
0.0
41
0.0
42
0.0
10
73.3367004394531
20
79.3567962646484
40
0.0
41
0.0
42
0.0
10
73.3117980957031
20
79.3823013305664
40
0.0
41
0.0
42
0.0
10
73.2434005737305
20
79.5096969604492
40
0.0
41
0.0
42
0.0
10
73.1977996826172
20
79.5896987915039
40
0.0
41
0.0
42
0.0
10
73.1797027587891
20
79.6123962402344
40
0.0
41
0.0
42
0.0
10
73.0075988769531
20
79.7409973144531
40
0.0
41
0.0
42
0.0
10
72.7098007202148
20
79.9477996826172
40
0.0
41
0.0
42
0.0
10
72.6697006225586
20
80.0103988647461
40
0.0
41
0.0
42
0.0
10
72.6059036254883
20
80.1743011474609
40
0.0
41
0.0
42
0.0
10
72.5330963134766
20
80.2656021118164
40
0.0
41
0.0
42
0.0
10
72.2902984619141
20
80.508903503418
40
0.0
41
0.0
42
0.0
10
72.2060012817383
20
80.8078994750977
40
0.0
41
0.0
42
0.0
10
72.1511993408203
20
81.0167999267578
40
0.0
41
0.0
42
0.0
10
72.1516036987305
20
81.1725006103516
40
0.0
41
0.0
42
0.0
10
72.1466979980469
20
81.4866027832031
40
0.0
41
0.0
42
0.0
10
72.1917037963867
20
81.9809036254883
40
0.0
41
0.0
42
0.0
10
72.1911010742188
20
82.1772994995117
40
0.0
41
0.0
42
0.0
10
72.1984024047852
20
82.5152969360352
40
0.0
41
0.0
42
0.0
10
72.000602722168
20
82.9184036254883
40
0.0
41
0.0
42
0.0
10
71.9664993286133
20
83.0059967041016
40
0.0
41
0.0
42
0.0
10
71.8608016967773
20
83.0746002197266
40
0.0
41
0.0
42
0.0
10
71.6746978759766
20
83.2158966064453
40
0.0
41
0.0
42
0.0
10
71.5121002197266
20
83.2770004272461
40
0.0
41
0.0
42
0.0
10
71.178596496582
20
83.4214019775391
40
0.0
41
0.0
42
0.0
10
71.0162963867188
20
83.4536972045898
40
0.0
41
0.0
42
0.0
10
70.7272033691406
20
83.4990997314453
40
0.0
41
0.0
42
0.0
10
70.6835021972656
20
83.5045013427734
40
0.0
41
0.0
42
0.0
10
70.6132965087891
20
83.5056991577148
40
0.0
41
0.0
42
0.0
210
0.0
220
0.0
230
1.0
0
LWPOLYLINE
5
26
330
1C
100
AcDbEntity
67
0
8
0
62
256
6
ByLayer
370
-1
48
1.0
60
0
100
AcDbPolyline
90
444
70
1
38
0.0
39
0.0
10
83.5056991577148
20
79.3861999511719
40
0.0
41
0.0
42
0.0
10
83.5007019042969
20
79.3453979492188
40
0.0
41
0.0
42
0.0
10
83.4489974975586
20
79.0162963867188
40
0.0
41
0.0
42
0.0
10
83.4235992431641
20
78.8887023925781
40
0.0
41
0.0
42
0.0
10
83.2605972290039
20
78.5121002197266
40
0.0
41
0.0
42
0.0
10
83.2126998901367
20
78.3846969604492
40
0.0
41
0.0
42
0.0
10
83.0516967773438
20
78.1724014282227
40
0.0
41
0.0
42
0.0
10
82.993896484375
20
78.0832977294922
40
0.0
41
0.0
42
0.0
10
82.80419921875
20
78.0109024047852
40
0.0
41
0.0
42
0.0
10
82.7817001342773
20
78.0009002685547
40
0.0
41
0.0
42
0.0
10
82.4849014282227
20
77.8553009033203
40
0.0
41
0.0
42
0.0
10
82.3706970214844
20
77.8548965454102
40
0.0
41
0.0
42
0.0
10
82.0186996459961
20
77.8637008666992
40
0.0
41
0.0
42
0.0
10
81.5189971923828
20
77.9094009399414
40
0.0
41
0.0
42
0.0
10
81.3908004760742
20
77.9095993041992
40
0.0
41
0.0
42
0.0
10
80.9828033447266
20
77.9033966064453
40
0.0
41
0.0
42
0.0
10
80.8560028076172
20
77.8701019287109
40
0.0
41
0.0
42
0.0
10
80.4908981323242
20
77.7670974731445
40
0.0
41
0.0
42
0.0
10
80.1906967163086
20
77.4676971435547
40
0.0
41
0.0
42
0.0
10
80.1156005859375
20
77.4076995849609
40
0.0
41
0.0
42
0.0
10
79.989501953125
20
77.3587036132812
40
0.0
41
0.0
42
0.0
10
79.9514007568359
20
77.3342971801758
40
0.0
41
0.0
42
0.0
10
79.7246017456055
20
77.007698059082
40
0.0
41
0.0
42
0.0
10
79.5835037231445
20
76.8187026977539
40
0.0
41
0.0
42
0.0
10
79.4901962280273
20
76.7654037475586
40
0.0
41
0.0
42
0.0
10
79.3274993896484
20
76.6781005859375
40
0.0
41
0.0
42
0.0
10
79.3004989624023
20
76.6518020629883
40
0.0
41
0.0
42
0.0
10
79.1799011230469
20
76.5070037841797
40
0.0
41
0.0
42
0.0
10
78.9952011108398
20
76.2518997192383
40
0.0
41
0.0
42
0.0
10
78.9593963623047
20
76.2239990234375
40
0.0
41
0.0
42
0.0
10
78.836799621582
20
76.1656036376953
40
0.0
41
0.0
42
0.0
10
78.701301574707
20
76.1119995117188
40
0.0
41
0.0
42
0.0
10
78.4831008911133
20
76.0595016479492
40
0.0
41
0.0
42
0.0
10
78.0272979736328
20
76.0294036865234
40
0.0
41
0.0
42
0.0
10
77.9832992553711
20
76.0201034545898
40
0.0
41
0.0
42
0.0
10
77.7938995361328
20
75.999397277832
40
0.0
41
0.0
42
0.0
10
77.6203994750977
20
75.9339981079102
40
0.0
41
0.0
42
0.0
10
77.5167999267578
20
75.9656982421875
40
0.0
41
0.0
42
0.0
10
77.4860992431641
20
75.9656982421875
40
0.0
41
0.0
42
0.0
10
77.3996963500977
20
75.909797668457
40
0.0
41
0.0
42
0.0
10
77.3198013305664
20
75.878303527832
40
0.0
41
0.0
42
0.0
10
76.9857025146484
20
75.85009765625
40
0.0
41
0.0
42
0.0
10
76.8300018310547
20
75.7729034423828
40
0.0
41
0.0
42
0.0
10
76.492301940918
20
75.679801940918
40
0.0
41
0.0
42
0.0
10
76.4644012451172
20
75.6436996459961
40
0.0
41
0.0
42
0.0
10
76.3320007324219
20
75.5112991333008
40
0.0
41
0.0
42
0.0
10
76.331901550293
20
75.4837036132812
40
0.0
41
0.0
42
0.0
10
76.3613967895508
20
75.4031982421875
40
0.0
41
0.0
42
0.0
10
76.4934997558594
20
75.1666030883789
40
0.0
41
0.0
42
0.0
10
76.8218002319336
20
75.1043014526367
40
0.0
41
0.0
42
0.0
10
76.9850997924805
20
75.0202026367188
40
0.0
41
0.0
42
0.0
10
77.0192031860352
20
75.0201034545898
40
0.0
41
0.0
42
0.0
10
77.2727966308594
20
75.0385971069336
40
0.0
41
0.0
42
0.0
10
77.5151977539062
20
75.1053009033203
40
0.0
41
0.0
42
0.0
10
77.6929016113281
20
75.138298034668
40
0.0
41
0.0
42
0.0
10
78.0127029418945
20
75.2767028808594
40
0.0
41
0.0
42
0.0
10
78.1564025878906
20
75.3210983276367
40
0.0
41
0.0
42
0.0
10
78.2248992919922
20
75.3352966308594
40
0.0
41
0.0
42
0.0
10
78.4604034423828
20
75.4132995605469
40
0.0
41
0.0
42
0.0
10
78.5170974731445
20
75.4263000488281
40
0.0
41
0.0
42
0.0
10
78.9581985473633
20
75.4493026733398
40
0.0
41
0.0
42
0.0
10
78.9925994873047
20
75.4531021118164
40
0.0
41
0.0
42
0.0
10
79.318603515625
20
75.3525009155273
40
0.0
41
0.0
42
0.0
10
79.4854965209961
20
75.3443984985352
40
0.0
41
0.0
42
0.0
10
79.8215026855469
20
75.1700973510742
40
0.0
41
0.0
42
0.0
10
79.9869003295898
20
75.1446990966797
40
0.0
41
0.0
42
0.0
10
80.2298965454102
20
75.0085983276367
40
0.0
41
0.0
42
0.0
10
80.3879013061523
20
74.9879989624023
40
0.0
41
0.0
42
0.0
10
80.4906997680664
20
74.9134979248047
40
0.0
41
0.0
42
0.0
10
80.8595962524414
20
74.7399978637695
40
0.0
41
0.0
42
0.0
10
80.8945999145508
20
74.7398986816406
40
0.0
41
0.0
42
0.0
10
80.993896484375
20
74.7434005737305
40
0.0
41
0.0
42
0.0
10
81.3556976318359
20
74.7181015014648
40
0.0
41
0.0
42
0.0
10
81.3918991088867
20
74.7180023193359
40
0.0
41
0.0
42
0.0
10
81.5136032104492
20
74.7536010742188
40
0.0
41
0.0
42
0.0
10
81.8449020385742
20
74.8663024902344
40
0.0
41
0.0
42
0.0
10
82.0102996826172
20
74.9413986206055
40
0.0
41
0.0
42
0.0
10
82.2658996582031
20
75.0891036987305
40
0.0
41
0.0
42
0.0
10
82.3365020751953
20
75.1234970092773
40
0.0
41
0.0
42
0.0
10
82.4555969238281
20
75.1940002441406
40
0.0
41
0.0
42
0.0
10
82.5102996826172
20
75.2212982177734
40
0.0
41
0.0
42
0.0
10
82.8533020019531
20
75.4069976806641
40
0.0
41
0.0
42
0.0
10
83.0151977539062
20
75.4543991088867
40
0.0
41
0.0
42
0.0
10
83.1877975463867
20
75.484001159668
40
0.0
41
0.0
42
0.0
10
83.4879989624023
20
75.4841003417969
40
0.0
41
0.0
42
0.0
10
83.6176986694336
20
75.3669967651367
40
0.0
41
0.0
42
0.0
10
83.6548004150391
20
75.3432006835938
40
0.0
41
0.0
42
0.0
10
83.9921035766602
20
75.1970977783203
40
0.0
41
0.0
42
0.0
10
84.1462020874023
20
75.0362014770508
40
0.0
41
0.0
42
0.0
10
84.1781997680664
20
74.99169921875
40
0.0
41
0.0
42
0.0
10
84.2835998535156
20
74.8267974853516
40
0.0
41
0.0
42
0.0
10
84.4000015258789
20
74.6677017211914
40
0.0
41
0.0
42
0.0
10
84.497200012207
20
74.5458984375
40
0.0
41
0.0
42
0.0
10
84.5306015014648
20
74.4896011352539
40
0.0
41
0.0
42
0.0
10
84.5606994628906
20
74.4225997924805
40
0.0
41
0.0
42
0.0
10
84.6016998291016
20
74.3227005004883
40
0.0
41
0.0
42
0.0
10
84.7322998046875
20
73.9850997924805
40
0.0
41
0.0
42
0.0
10
84.7742004394531
20
73.6481018066406
40
0.0
41
0.0
42
0.0
10
84.8014984130859
20
73.4994964599609
40
0.0
41
0.0
42
0.0
10
84.7461013793945
20
73.1821975708008
40
0.0
41
0.0
42
0.0
10
84.7307968139648
20
73.013801574707
40
0.0
41
0.0
42
0.0
10
84.5549011230469
20
72.6828002929688
40
0.0
41
0.0
42
0.0
10
84.4990005493164
20
72.5532989501953
40
0.0
41
0.0
42
0.0
10
84.4774017333984
20
72.5086975097656
40
0.0
41
0.0
42
0.0
10
84.3599014282227
20
72.3628005981445
40
0.0
41
0.0
42
0.0
10
83.9927978515625
20
71.9929962158203
40
0.0
41
0.0
42
0.0
10
83.6165008544922
20
71.7797012329102
40
0.0
41
0.0
42
0.0
10
83.488899230957
20
71.6820983886719
40
0.0
41
0.0
42
0.0
10
83.1119995117188
20
71.6025009155273
40
0.0
41
0.0
42
0.0
10
83.0786972045898
20
71.5858993530273
40
0.0
41
0.0
42
0.0
10
82.9969024658203
20
71.5335006713867
40
0.0
41
0.0
42
0.0
10
82.8908996582031
20
71.5703964233398
40
0.0
41
0.0
42
0.0
10
82.5098037719727
20
71.6184997558594
40
0.0
41
0.0
42
0.0
10
82.4217987060547
20
71.7111968994141
40
0.0
41
0.0
42
0.0
10
82.0586013793945
20
72.0045013427734
40
0.0
41
0.0
42
0.0
10
82.0039978027344
20
72.0633010864258
40
0.0
41
0.0
42
0.0
10
81.977897644043
20
72.095703125
40
0.0
41
0.0
42
0.0
10
81.6202011108398
20
72.5058975219727
40
0.0
41
0.0
42
0.0
10
81.5063018798828
20
72.6296997070312
40
0.0
41
0.0
42
0.0
10
81.4502029418945
20
72.6657028198242
40
0.0
41
0.0
42
0.0
10
81.0756988525391
20
72.934700012207
40
0.0
41
0.0
42
0.0
10
81.0092010498047
20
72.9862976074219
40
0.0
41
0.0
42
0.0
10
80.9770965576172
20
72.9999008178711
40
0.0
41
0.0
42
0.0
10
80.5174026489258
20
73.1123962402344
40
0.0
41
0.0
42
0.0
10
80.4814987182617
20
73.1122970581055
40
0.0
41
0.0
42
0.0
10
80.249397277832
20
73.0770034790039
40
0.0
41
0.0
42
0.0
10
80.0160980224609
20
73.1045989990234
40
0.0
41
0.0
42
0.0
10
79.8923034667969
20
73.1365966796875
40
0.0
41
0.0
42
0.0
10
79.856201171875
20
73.1364974975586
40
0.0
41
0.0
42
0.0
10
79.818000793457
20
73.1321029663086
40
0.0
41
0.0
42
0.0
10
79.5029983520508
20
73.0771026611328
40
0.0
41
0.0
42
0.0
10
79.3523025512695
20
73.1159973144531
40
0.0
41
0.0
42
0.0
10
79.3162002563477
20
73.1158981323242
40
0.0
41
0.0
42
0.0
10
79.0082015991211
20
73.0800018310547
40
0.0
41
0.0
42
0.0
10
78.850700378418
20
73.1462020874023
40
0.0
41
0.0
42
0.0
10
78.8153991699219
20
73.1461029052734
40
0.0
41
0.0
42
0.0
10
78.5115966796875
20
73.133903503418
40
0.0
41
0.0
42
0.0
10
78.0947036743164
20
73.4176025390625
40
0.0
41
0.0
42
0.0
10
77.9852981567383
20
73.4169998168945
40
0.0
41
0.0
42
0.0
10
77.8986968994141
20
73.3710021972656
40
0.0
41
0.0
42
0.0
10
77.8827972412109
20
73.3896026611328
40
0.0
41
0.0
42
0.0
10
77.9282989501953
20
73.4497985839844
40
0.0
41
0.0
42
0.0
10
77.9614028930664
20
73.4878005981445
40
0.0
41
0.0
42
0.0
10
77.9613037109375
20
73.5078964233398
40
0.0
41
0.0
42
0.0
10
77.8406982421875
20
73.5791015625
40
0.0
41
0.0
42
0.0
10
77.6725997924805
20
73.7160034179688
40
0.0
41
0.0
42
0.0
10
77.5352020263672
20
73.8047027587891
40
0.0
41
0.0
42
0.0
10
77.5043029785156
20
73.8320999145508
40
0.0
41
0.0
42
0.0
10
77.3741989135742
20
74.0065994262695
40
0.0
41
0.0
42
0.0
10
77.3580017089844
20
74.0250015258789
40
0.0
41
0.0
42
0.0
10
77.1748962402344
20
74.1489028930664
40
0.0
41
0.0
42
0.0
10
77.0149002075195
20
74.2161026000977
40
0.0
41
0.0
42
0.0
10
76.8582000732422
20
74.2294006347656
40
0.0
41
0.0
42
0.0
10
76.5169982910156
20
74.3286972045898
40
0.0
41
0.0
42
0.0
10
76.4873962402344
20
74.3286972045898
40
0.0
41
0.0
42
0.0
10
76.3649978637695
20
74.2281036376953
40
0.0
41
0.0
42
0.0
10
76.1304016113281
20
74.0108032226562
40
0.0
41
0.0
42
0.0
10
76.1303024291992
20
73.9852981567383
40
0.0
41
0.0
42
0.0
10
76.2176971435547
20
73.8272018432617
40
0.0
41
0.0
42
0.0
10
76.3986968994141
20
73.6278991699219
40
0.0
41
0.0
42
0.0
10
76.4934005737305
20
73.5204010009766
40
0.0
41
0.0
42
0.0
10
76.6252975463867
20
73.4438018798828
40
0.0
41
0.0
42
0.0
10
76.9904022216797
20
73.1790008544922
40
0.0
41
0.0
42
0.0
10
77.4002990722656
20
72.9985961914062
40
0.0
41
0.0
42
0.0
10
77.4210968017578
20
72.9860992431641
40
0.0
41
0.0
42
0.0
10
77.4917984008789
20
72.9376983642578
40
0.0
41
0.0
42
0.0
10
77.6884994506836
20
72.8000030517578
40
0.0
41
0.0
42
0.0
10
77.9841003417969
20
72.6788024902344
40
0.0
41
0.0
42
0.0
10
78.1720962524414
20
72.6787033081055
40
0.0
41
0.0
42
0.0
10
78.1289978027344
20
72.5171966552734
40
0.0
41
0.0
42
0.0
10
78.1289978027344
20
72.4839019775391
40
0.0
41
0.0
42
0.0
10
78.1661987304688
20
72.3872985839844
40
0.0
41
0.0
42
0.0
10
78.2500991821289
20
72.2385025024414
40
0.0
41
0.0
42
0.0
10
78.3982009887695
20
72.0233993530273
40
0.0
41
0.0
42
0.0
10
78.4284973144531
20
71.993896484375
40
0.0
41
0.0
42
0.0
10
78.4971008300781
20
71.9040985107422
40
0.0
41
0.0
42
0.0
10
78.5358963012695
20
71.8440017700195
40
0.0
41
0.0
42
0.0
10
78.5516967773438
20
71.8251037597656
40
0.0
41
0.0
42
0.0
10
78.6557998657227
20
71.4857025146484
40
0.0
41
0.0
42
0.0
10
78.7453002929688
20
71.1532974243164
40
0.0
41
0.0
42
0.0
10
78.7673034667969
20
71.1169967651367
40
0.0
41
0.0
42
0.0
10
78.8667984008789
20
70.9935989379883
40
0.0
41
0.0
42
0.0
10
78.8828964233398
20
70.9758987426758
40
0.0
41
0.0
42
0.0
10
78.9974975585938
20
70.6626968383789
40
0.0
41
0.0
42
0.0
10
79.1209030151367
20
70.5718994140625
40
0.0
41
0.0
42
0.0
10
79.1557006835938
20
70.5115966796875
40
0.0
41
0.0
42
0.0
10
79.1750030517578
20
70.4954986572266
40
0.0
41
0.0
42
0.0
10
79.492301940918
20
70.185302734375
40
0.0
41
0.0
42
0.0
10
79.5297012329102
20
70.1660003662109
40
0.0
41
0.0
42
0.0
10
79.6134033203125
20
70.1312026977539
40
0.0
41
0.0
42
0.0
10
79.7036972045898
20
70.0892028808594
40
0.0
41
0.0
42
0.0
10
79.9863967895508
20
69.9823989868164
40
0.0
41
0.0
42
0.0
10
80.0457000732422
20
69.9664993286133
40
0.0
41
0.0
42
0.0
10
80.486198425293
20
69.8376007080078
40
0.0
41
0.0
42
0.0
10
80.9886016845703
20
69.6717987060547
40
0.0
41
0.0
42
0.0
10
81.0582962036133
20
69.6309967041016
40
0.0
41
0.0
42
0.0
10
81.0786972045898
20
69.6213989257812
40
0.0
41
0.0
42
0.0
10
81.1661987304688
20
69.492301940918
40
0.0
41
0.0
42
0.0
10
81.4608993530273
20
69.116096496582
40
0.0
41
0.0
42
0.0
10
81.4769973754883
20
68.9954986572266
40
0.0
41
0.0
42
0.0
10
81.4657974243164
20
68.8541030883789
40
0.0
41
0.0
42
0.0
10
81.4656982421875
20
68.8161010742188
40
0.0
41
0.0
42
0.0
10
81.5005035400391
20
68.5018997192383
40
0.0
41
0.0
42
0.0
10
81.4754028320312
20
68.3170013427734
40
0.0
41
0.0
42
0.0
10
81.4544982910156
20
68.1809005737305
40
0.0
41
0.0
42
0.0
10
81.4143981933594
20
68.0137023925781
40
0.0
41
0.0
42
0.0
10
81.2837982177734
20
67.6771011352539
40
0.0
41
0.0
42
0.0
10
81.2146987915039
20
67.5101013183594
40
0.0
41
0.0
42
0.0
10
81.029899597168
20
67.2300033569336
40
0.0
41
0.0
42
0.0
10
80.997200012207
20
67.1746978759766
40
0.0
41
0.0
42
0.0
10
80.9035034179688
20
67.0621032714844
40
0.0
41
0.0
42
0.0
10
80.8466033935547
20
67.0039978027344
40
0.0
41
0.0
42
0.0
10
80.5660018920898
20
66.8003997802734
40
0.0
41
0.0
42
0.0
10
80.4916000366211
20
66.7351989746094
40
0.0
41
0.0
42
0.0
10
80.3227996826172
20
66.6563034057617
40
0.0
41
0.0
42
0.0
10
79.9851989746094
20
66.5436019897461
40
0.0
41
0.0
42
0.0
10
79.8488006591797
20
66.5190963745117
40
0.0
41
0.0
42
0.0
10
79.5058975219727
20
66.4942016601562
40
0.0
41
0.0
42
0.0
10
79.4925003051758
20
66.4921035766602
40
0.0
41
0.0
42
0.0
10
79.5185012817383
20
66.49169921875
40
0.0
41
0.0
42
0.0
10
79.5485000610352
20
66.4964981079102
40
0.0
41
0.0
42
0.0
10
79.915901184082
20
66.5233001708984
40
0.0
41
0.0
42
0.0
10
80.0147018432617
20
66.5410003662109
40
0.0
41
0.0
42
0.0
10
80.3871994018555
20
66.665397644043
40
0.0
41
0.0
42
0.0
10
80.5083999633789
20
66.7220001220703
40
0.0
41
0.0
42
0.0
10
80.5619964599609
20
66.7690963745117
40
0.0
41
0.0
42
0.0
10
80.8749008178711
20
66.9959030151367
40
0.0
41
0.0
42
0.0
10
80.9345016479492
20
67.056999206543
40
0.0
41
0.0
42
0.0
10
81.0027008056641
20
67.1389007568359
40
0.0
41
0.0
42
0.0
10
81.026496887207
20
67.1791000366211
40
0.0
41
0.0
42
0.0
10
81.2314987182617
20
67.4898986816406
40
0.0
41
0.0
42
0.0
10
81.2823028564453
20
67.6128005981445
40
0.0
41
0.0
42
0.0
10
81.4273986816406
20
67.986198425293
40
0.0
41
0.0
42
0.0
10
81.4568023681641
20
68.109001159668
40
0.0
41
0.0
42
0.0
10
81.4798965454102
20
68.2593002319336
40
0.0
41
0.0
42
0.0
10
81.5105972290039
20
68.4813995361328
40
0.0
41
0.0
42
0.0
10
81.510498046875
20
68.5188980102539
40
0.0
41
0.0
42
0.0
10
81.4990005493164
20
68.6300964355469
40
0.0
41
0.0
42
0.0
10
81.4949035644531
20
68.6559982299805
40
0.0
41
0.0
42
0.0
10
81.4703979492188
20
68.877799987793
40
0.0
41
0.0
42
0.0
10
81.4786987304688
20
68.9807968139648
40
0.0
41
0.0
42
0.0
10
81.4785995483398
20
69.0185012817383
40
0.0
41
0.0
42
0.0
10
81.4621963500977
20
69.1417007446289
40
0.0
41
0.0
42
0.0
10
81.4560012817383
20
69.1761016845703
40
0.0
41
0.0
42
0.0
10
81.196403503418
20
69.5075988769531
40
0.0
41
0.0
42
0.0
10
81.0876007080078
20
69.6684036254883
40
0.0
41
0.0
42
0.0
10
81.07080078125
20
69.676399230957
40
0.0
41
0.0
42
0.0
10
81.0112991333008
20
69.7110977172852
40
0.0
41
0.0
42
0.0
10
80.5137023925781
20
69.8749008178711
40
0.0
41
0.0
42
0.0
10
80.0866012573242
20
69.9999008178711
40
0.0
41
0.0
42
0.0
10
80.0456008911133
20
70.0139007568359
40
0.0
41
0.0
42
0.0
10
80.0133972167969
20
70.0229034423828
40
0.0
41
0.0
42
0.0
10
79.757698059082
20
70.1192016601562
40
0.0
41
0.0
42
0.0
10
79.6764984130859
20
70.1569976806641
40
0.0
41
0.0
42
0.0
10
79.5651016235352
20
70.2033996582031
40
0.0
41
0.0
42
0.0
10
79.5074996948242
20
70.2331008911133
40
0.0
41
0.0
42
0.0
10
79.2300033569336
20
70.5043029785156
40
0.0
41
0.0
42
0.0
10
79.1994018554688
20
70.529899597168
40
0.0
41
0.0
42
0.0
10
79.1688995361328
20
70.5826034545898
40
0.0
41
0.0
42
0.0
10
79.0022964477539
20
70.7051010131836
40
0.0
41
0.0
42
0.0
10
78.8985977172852
20
70.9888000488281
40
0.0
41
0.0
42
0.0
10
78.8827972412109
20
71.0063018798828
40
0.0
41
0.0
42
0.0
10
78.7670974731445
20
71.14990234375
40
0.0
41
0.0
42
0.0
10
78.6690979003906
20
71.5140991210938
40
0.0
41
0.0
42
0.0
10
78.5552978515625
20
71.8846969604492
40
0.0
41
0.0
42
0.0
10
78.5466995239258
20
71.8949966430664
40
0.0
41
0.0
42
0.0
10
78.5027008056641
20
71.9630966186523
40
0.0
41
0.0
42
0.0
10
78.4699020385742
20
72.0058975219727
40
0.0
41
0.0
42
0.0
10
78.4540023803711
20
72.0214996337891
40
0.0
41
0.0
42
0.0
10
78.3760986328125
20
72.1346969604492
40
0.0
41
0.0
42
0.0
10
78.2488021850586
20
72.3606033325195
40
0.0
41
0.0
42
0.0
10
78.1941986083984
20
72.5025024414062
40
0.0
41
0.0
42
0.0
10
78.2477035522461
20
72.703498840332
40
0.0
41
0.0
42
0.0
10
78.2623977661133
20
72.7468032836914
40
0.0
41
0.0
42
0.0
10
78.2622985839844
20
72.7626037597656
40
0.0
41
0.0
42
0.0
10
78.0158004760742
20
72.7649993896484
40
0.0
41
0.0
42
0.0
10
77.563102722168
20
72.947998046875
40
0.0
41
0.0
42
0.0
10
77.4856033325195
20
73.0015029907227
40
0.0
41
0.0
42
0.0
10
77.0093994140625
20
73.2109985351562
40
0.0
41
0.0
42
0.0
10
76.731201171875
20
73.4128036499023
40
0.0
41
0.0
42
0.0
10
76.5755996704102
20
73.5018005371094
40
0.0
41
0.0
42
0.0
10
76.5063018798828
20
73.543701171875
40
0.0
41
0.0
42
0.0
10
76.3433990478516
20
73.7285003662109
40
0.0
41
0.0
42
0.0
10
76.2035980224609
20
73.8825988769531
40
0.0
41
0.0
42
0.0
10
76.1399993896484
20
73.9977035522461
40
0.0
41
0.0
42
0.0
10
76.3960037231445
20
74.2349014282227
40
0.0
41
0.0
42
0.0
10
76.5046997070312
20
74.3227996826172
40
0.0
41
0.0
42
0.0
10
76.8203964233398
20
74.2310028076172
40
0.0
41
0.0
42
0.0
10
76.8583984375
20
74.2213973999023
40
0.0
41
0.0
42
0.0
10
76.9850006103516
20
74.2106018066406
40
0.0
41
0.0
42
0.0
10
77.1148986816406
20
74.1560974121094
40
0.0
41
0.0
42
0.0
10
77.3283004760742
20
74.0117034912109
40
0.0
41
0.0
42
0.0
10
77.3447036743164
20
73.9932022094727
40
0.0
41
0.0
42
0.0
10
77.4953994750977
20
73.7908020019531
40
0.0
41
0.0
42
0.0
10
77.5139007568359
20
73.7743988037109
40
0.0
41
0.0
42
0.0
10
77.6172027587891
20
73.7077026367188
40
0.0
41
0.0
42
0.0
10
77.8047027587891
20
73.5550994873047
40
0.0
41
0.0
42
0.0
10
77.9003982543945
20
73.4988021850586
40
0.0
41
0.0
42
0.0
10
77.8180999755859
20
73.4039001464844
40
0.0
41
0.0
42
0.0
10
77.5879974365234
20
73.10009765625
40
0.0
41
0.0
42
0.0
10
77.5879974365234
20
73.0879974365234
40
0.0
41
0.0
42
0.0
10
77.6017990112305
20
73.0878982543945
40
0.0
41
0.0
42
0.0
10
78.0146026611328
20
73.3056030273438
40
0.0
41
0.0
42
0.0
10
78.1796035766602
20
73.3078002929688
40
0.0
41
0.0
42
0.0
10
78.4863967895508
20
73.0991973876953
40
0.0
41
0.0
42
0.0
10
78.5195007324219
20
73.0990982055664
40
0.0
41
0.0
42
0.0
10
78.8622970581055
20
73.1128997802734
40
0.0
41
0.0
42
0.0
10
78.9841995239258
20
73.0617980957031
40
0.0
41
0.0
42
0.0
10
79.0186996459961
20
73.0616989135742
40
0.0
41
0.0
42
0.0
10
79.368896484375
20
73.1025009155273
40
0.0
41
0.0
42
0.0
10
79.4825973510742
20
73.0731964111328
40
0.0
41
0.0
42
0.0
10
79.5182037353516
20
73.0731964111328
40
0.0
41
0.0
42
0.0
10
79.8370971679688
20
73.1287994384766
40
0.0
41
0.0
42
0.0
10
79.9838027954102
20
73.0908966064453
40
0.0
41
0.0
42
0.0
10
80.3134002685547
20
73.0521011352539
40
0.0
41
0.0
42
0.0
10
80.3505020141602
20
73.052001953125
40
0.0
41
0.0
42
0.0
10
80.4962005615234
20
73.0740966796875
40
0.0
41
0.0
42
0.0
10
80.7998962402344
20
72.9999008178711
40
0.0
41
0.0
42
0.0
10
80.9906005859375
20
72.9191970825195
40
0.0
41
0.0
42
0.0
10
81.345703125
20
72.6434020996094
40
0.0
41
0.0
42
0.0
10
81.4720001220703
20
72.5526962280273
40
0.0
41
0.0
42
0.0
10
81.4934997558594
20
72.5389022827148
40
0.0
41
0.0
42
0.0
10
81.5350036621094
20
72.4940032958984
40
0.0
41
0.0
42
0.0
10
81.9942016601562
20
71.9682998657227
40
0.0
41
0.0
42
0.0
10
82.0977020263672
20
71.8915023803711
40
0.0
41
0.0
42
0.0
10
82.4484024047852
20
71.6083984375
40
0.0
41
0.0
42
0.0
10
82.4899978637695
20
71.5644989013672
40
0.0
41
0.0
42
0.0
10
82.9813003540039
20
71.5018005371094
40
0.0
41
0.0
42
0.0
10
83.013801574707
20
71.5017013549805
40
0.0
41
0.0
42
0.0
10
83.1262969970703
20
71.5734024047852
40
0.0
41
0.0
42
0.0
10
83.1780014038086
20
71.5994033813477
40
0.0
41
0.0
42
0.0
10
83.5110015869141
20
71.6697998046875
40
0.0
41
0.0
42
0.0
10
83.6734008789062
20
71.7938995361328
40
0.0
41
0.0
42
0.0
10
84.0075988769531
20
71.9832992553711
40
0.0
41
0.0
42
0.0
10
84.0205993652344
20
71.9951019287109
40
0.0
41
0.0
42
0.0
10
84.3514022827148
20
72.3292999267578
40
0.0
41
0.0
42
0.0
10
84.3861999511719
20
72.3684997558594
40
0.0
41
0.0
42
0.0
10
84.4897003173828
20
72.4987030029297
40
0.0
41
0.0
42
0.0
10
84.5434036254883
20
72.6219024658203
40
0.0
41
0.0
42
0.0
10
84.7368011474609
20
72.9860992431641
40
0.0
41
0.0
42
0.0
10
84.7480010986328
20
73.1076965332031
40
0.0
41
0.0
42
0.0
10
84.8134994506836
20
73.4817962646484
40
0.0
41
0.0
42
0.0
10
84.8134002685547
20
73.5179977416992
40
0.0
41
0.0
42
0.0
10
84.7907028198242
20
73.6417007446289
40
0.0
41
0.0
42
0.0
10
84.7443008422852
20
74.0148010253906
40
0.0
41
0.0
42
0.0
10
84.60009765625
20
74.3871002197266
40
0.0
41
0.0
42
0.0
10
84.5693969726562
20
74.4619979858398
40
0.0
41
0.0
42
0.0
10
84.5477981567383
20
74.5102005004883
40
0.0
41
0.0
42
0.0
10
84.5025024414062
20
74.5861968994141
40
0.0
41
0.0
42
0.0
10
84.3630981445312
20
74.7609024047852
40
0.0
41
0.0
42
0.0
10
84.2736968994141
20
74.8830032348633
40
0.0
41
0.0
42
0.0
10
84.1939010620117
20
75.0081024169922
40
0.0
41
0.0
42
0.0
10
84.1716995239258
20
75.0388031005859
40
0.0
41
0.0
42
0.0
10
84.007698059082
20
75.2102966308594
40
0.0
41
0.0
42
0.0
10
83.6557006835938
20
75.3627014160156
40
0.0
41
0.0
42
0.0
10
83.5119018554688
20
75.4926986694336
40
0.0
41
0.0
42
0.0
10
83.0456008911133
20
75.4925994873047
40
0.0
41
0.0
42
0.0
10
82.9847030639648
20
75.4820022583008
40
0.0
41
0.0
42
0.0
10
82.7787017822266
20
75.4216003417969
40
0.0
41
0.0
42
0.0
10
82.4897003173828
20
75.2652969360352
40
0.0
41
0.0
42
0.0
10
82.4182968139648
20
75.2295989990234
40
0.0
41
0.0
42
0.0
10
82.3116989135742
20
75.1664962768555
40
0.0
41
0.0
42
0.0
10
82.2182998657227
20
75.1210021972656
40
0.0
41
0.0
42
0.0
10
81.9896011352539
20
74.9897003173828
40
0.0
41
0.0
42
0.0
10
81.7668991088867
20
74.8886032104492
40
0.0
41
0.0
42
0.0
10
81.4862976074219
20
74.793098449707
40
0.0
41
0.0
42
0.0
10
81.3255996704102
20
74.7459030151367
40
0.0
41
0.0
42
0.0
10
81.0192031860352
20
74.7676010131836
40
0.0
41
0.0
42
0.0
10
80.9803009033203
20
74.7675018310547
40
0.0
41
0.0
42
0.0
10
80.8477020263672
20
74.7626037597656
40
0.0
41
0.0
42
0.0
10
80.5092010498047
20
74.9218978881836
40
0.0
41
0.0
42
0.0
10
80.418701171875
20
74.9877014160156
40
0.0
41
0.0
42
0.0
10
80.4129028320312
20
74.9891967773438
40
0.0
41
0.0
42
0.0
10
80.285400390625
20
75.0058975219727
40
0.0
41
0.0
42
0.0
10
80.0130004882812
20
75.1585006713867
40
0.0
41
0.0
42
0.0
10
79.888298034668
20
75.1776962280273
40
0.0
41
0.0
42
0.0
10
79.5142974853516
20
75.3718032836914
40
0.0
41
0.0
42
0.0
10
79.3912963867188
20
75.377799987793
40
0.0
41
0.0
42
0.0
10
79.0167999267578
20
75.4934997558594
40
0.0
41
0.0
42
0.0
10
78.9804992675781
20
75.4934005737305
40
0.0
41
0.0
42
0.0
10
78.5040969848633
20
75.469596862793
40
0.0
41
0.0
42
0.0
10
78.4834976196289
20
75.4671020507812
40
0.0
41
0.0
42
0.0
10
78.4643020629883
20
75.4626998901367
40
0.0
41
0.0
42
0.0
10
78.1984024047852
20
75.3746032714844
40
0.0
41
0.0
42
0.0
10
78.1461029052734
20
75.3638000488281
40
0.0
41
0.0
42
0.0
10
77.9871978759766
20
75.3147964477539
40
0.0
41
0.0
42
0.0
10
77.6218032836914
20
75.1567001342773
40
0.0
41
0.0
42
0.0
10
77.4847030639648
20
75.131103515625
40
0.0
41
0.0
42
0.0
10
77.1778030395508
20
75.0466995239258
40
0.0
41
0.0
42
0.0
10
77.0105972290039
20
75.0345001220703
40
0.0
41
0.0
42
0.0
10
76.8880004882812
20
75.0978012084961
40
0.0
41
0.0
42
0.0
10
76.5064010620117
20
75.1701965332031
40
0.0
41
0.0
42
0.0
10
76.3765029907227
20
75.4017028808594
40
0.0
41
0.0
42
0.0
10
76.3419036865234
20
75.4961013793945
40
0.0
41
0.0
42
0.0
10
76.4626007080078
20
75.6167984008789
40
0.0
41
0.0
42
0.0
10
76.5075988769531
20
75.6748962402344
40
0.0
41
0.0
42
0.0
10
76.8488998413086
20
75.7689971923828
40
0.0
41
0.0
42
0.0
10
76.8870010375977
20
75.7811965942383
40
0.0
41
0.0
42
0.0
10
77.0141983032227
20
75.8442001342773
40
0.0
41
0.0
42
0.0
10
77.3900985717773
20
75.8759002685547
40
0.0
41
0.0
42
0.0
10
77.4421997070312
20
75.8964004516602
40
0.0
41
0.0
42
0.0
10
77.5038986206055
20
75.9362030029297
40
0.0
41
0.0
42
0.0
10
77.6966018676758
20
75.8776016235352
40
0.0
41
0.0
42
0.0
10
77.7294998168945
20
75.8775024414062
40
0.0
41
0.0
42
0.0
10
77.9952011108398
20
75.9772033691406
40
0.0
41
0.0
42
0.0
10
78.0837020874023
20
75.9044036865234
40
0.0
41
0.0
42
0.0
10
78.0949020385742
20
75.9046020507812
40
0.0
41
0.0
42
0.0
10
78.0949020385742
20
75.928596496582
40
0.0
41
0.0
42
0.0
10
78.0978012084961
20
75.9309997558594
40
0.0
41
0.0
42
0.0
10
78.0978012084961
20
75.9998016357422
40
0.0
41
0.0
42
0.0
10
78.5063018798828
20
76.0250015258789
40
0.0
41
0.0
42
0.0
10
78.7543029785156
20
76.0848999023438
40
0.0
41
0.0
42
0.0
10
78.8533020019531
20
76.1241989135742
40
0.0
41
0.0
42
0.0
10
78.9849014282227
20
76.1866989135742
40
0.0
41
0.0
42
0.0
10
79.0046005249023
20
76.2022018432617
40
0.0
41
0.0
42
0.0
10
79.2149963378906
20
76.4928970336914
40
0.0
41
0.0
42
0.0
10
79.3569030761719
20
76.6630020141602
40
0.0
41
0.0
42
0.0
10
79.3824005126953
20
76.6880035400391
40
0.0
41
0.0
42
0.0
10
79.5098037719727
20
76.7563018798828
40
0.0
41
0.0
42
0.0
10
79.5896987915039
20
76.802001953125
40
0.0
41
0.0
42
0.0
10
79.6123962402344
20
76.8200988769531
40
0.0
41
0.0
42
0.0
10
79.7409973144531
20
76.9922027587891
40
0.0
41
0.0
42
0.0
10
79.9477996826172
20
77.2899017333984
40
0.0
41
0.0
42
0.0
10
80.0103988647461
20
77.3300018310547
40
0.0
41
0.0
42
0.0
10
80.1744003295898
20
77.3938980102539
40
0.0
41
0.0
42
0.0
10
80.2656021118164
20
77.4665985107422
40
0.0
41
0.0
42
0.0
10
80.5090026855469
20
77.7093963623047
40
0.0
41
0.0
42
0.0
10
80.8078994750977
20
77.793701171875
40
0.0
41
0.0
42
0.0
10
81.0170974731445
20
77.8486022949219
40
0.0
41
0.0
42
0.0
10
81.3649978637695
20
77.8537979125977
40
0.0
41
0.0
42
0.0
10
81.4809036254883
20
77.853401184082
40
0.0
41
0.0
42
0.0
10
81.981201171875
20
77.8078994750977
40
0.0
41
0.0
42
0.0
10
82.2798004150391
20
77.8004989624023
40
0.0
41
0.0
42
0.0
10
82.5150985717773
20
77.8012008666992
40
0.0
41
0.0
42
0.0
10
82.9184036254883
20
77.9990997314453
40
0.0
41
0.0
42
0.0
10
83.0059967041016
20
78.033203125
40
0.0
41
0.0
42
0.0
10
83.0746994018555
20
78.1389999389648
40
0.0
41
0.0
42
0.0
10
83.2160034179688
20
78.3252029418945
40
0.0
41
0.0
42
0.0
10
83.277099609375
20
78.4878005981445
40
0.0
41
0.0
42
0.0
10
83.4214019775391
20
78.8211975097656
40
0.0
41
0.0
42
0.0
10
83.4536972045898
20
78.9835968017578
40
0.0
41
0.0
42
0.0
10
83.4990997314453
20
79.2725982666016
40
0.0
41
0.0
42
0.0
10
83.5045013427734
20
79.3163986206055
40
0.0
41
0.0
42
0.0
10
83.5056991577148
20
79.3861999511719
40
0.0
41
0.0
42
0.0
210
0.0
220
0.0
230
1.0
0
LWPOLYLINE
5
27
330
1C
100
AcDbEntity
67
0
8
0
62
256
6
ByLayer
370
-1
48
1.0
60
0
100
AcDbPolyline
90
436
70
1
38
0.0
39
0.0
10
79.3852996826172
20
66.4941024780273
40
0.0
41
0.0
42
0.0
10
79.3453979492188
20
66.4990997314453
40
0.0
41
0.0
42
0.0
10
79.0162963867188
20
66.5506973266602
40
0.0
41
0.0
42
0.0
10
78.8886032104492
20
66.5761032104492
40
0.0
41
0.0
42
0.0
10
78.5121002197266
20
66.7390975952148
40
0.0
41
0.0
42
0.0
10
78.3846969604492
20
66.7870025634766
40
0.0
41
0.0
42
0.0
10
78.1723022460938
20
66.9481964111328
40
0.0
41
0.0
42
0.0
10
78.0832977294922
20
67.0059967041016
40
0.0
41
0.0
42
0.0
10
78.0109024047852
20
67.1956024169922
40
0.0
41
0.0
42
0.0
10
78.0009002685547
20
67.2181015014648
40
0.0
41
0.0
42
0.0
10
77.8560028076172
20
67.5133972167969
40
0.0
41
0.0
42
0.0
10
77.8640975952148
20
67.8453979492188
40
0.0
41
0.0
42
0.0
10
77.8637008666992
20
67.9823989868164
40
0.0
41
0.0
42
0.0
10
77.9093017578125
20
68.4807968139648
40
0.0
41
0.0
42
0.0
10
77.9030990600586
20
68.9162979125977
40
0.0
41
0.0
42
0.0
10
77.9032974243164
20
69.0173034667969
40
0.0
41
0.0
42
0.0
10
77.8701019287109
20
69.143798828125
40
0.0
41
0.0
42
0.0
10
77.7670974731445
20
69.508903503418
40
0.0
41
0.0
42
0.0
10
77.4675979614258
20
69.8090972900391
40
0.0
41
0.0
42
0.0
10
77.4076995849609
20
69.8843002319336
40
0.0
41
0.0
42
0.0
10
77.3587036132812
20
70.0103988647461
40
0.0
41
0.0
42
0.0
10
77.3342971801758
20
70.0483016967773
40
0.0
41
0.0
42
0.0
10
77.0075988769531
20
70.2751998901367
40
0.0
41
0.0
42
0.0
10
76.8187026977539
20
70.4162979125977
40
0.0
41
0.0
42
0.0
10
76.7654037475586
20
70.5096969604492
40
0.0
41
0.0
42
0.0
10
76.6781997680664
20
70.6724014282227
40
0.0
41
0.0
42
0.0
10
76.6517028808594
20
70.6992034912109
40
0.0
41
0.0
42
0.0
10
76.5070037841797
20
70.8199005126953
40
0.0
41
0.0
42
0.0
10
76.2518997192383
20
71.0046005249023
40
0.0
41
0.0
42
0.0
10
76.2238998413086
20
71.040397644043
40
0.0
41
0.0
42
0.0
10
76.1656036376953
20
71.1630020141602
40
0.0
41
0.0
42
0.0
10
76.1119995117188
20
71.2985000610352
40
0.0
41
0.0
42
0.0
10
76.0595016479492
20
71.5167999267578
40
0.0
41
0.0
42
0.0
10
76.029296875
20
71.9725036621094
40
0.0
41
0.0
42
0.0
10
76.0201034545898
20
72.0166015625
40
0.0
41
0.0
42
0.0
10
75.9992980957031
20
72.2059020996094
40
0.0
41
0.0
42
0.0
10
75.9340972900391
20
72.3795013427734
40
0.0
41
0.0
42
0.0
10
75.9656982421875
20
72.4831008911133
40
0.0
41
0.0
42
0.0
10
75.9654998779297
20
72.5137023925781
40
0.0
41
0.0
42
0.0
10
75.9096984863281
20
72.60009765625
40
0.0
41
0.0
42
0.0
10
75.878303527832
20
72.6800994873047
40
0.0
41
0.0
42
0.0
10
75.85009765625
20
73.0141983032227
40
0.0
41
0.0
42
0.0
10
75.7729034423828
20
73.1698989868164
40
0.0
41
0.0
42
0.0
10
75.679801940918
20
73.5074996948242
40
0.0
41
0.0
42
0.0
10
75.6436004638672
20
73.535400390625
40
0.0
41
0.0
42
0.0
10
75.5112991333008
20
73.6679000854492
40
0.0
41
0.0
42
0.0
10
75.4837036132812
20
73.6678009033203
40
0.0
41
0.0
42
0.0
10
75.4032974243164
20
73.638298034668
40
0.0
41
0.0
42
0.0
10
75.1666030883789
20
73.5064010620117
40
0.0
41
0.0
42
0.0
10
75.1044006347656
20
73.1780014038086
40
0.0
41
0.0
42
0.0
10
75.0202026367188
20
73.0148010253906
40
0.0
41
0.0
42
0.0
10
75.0201034545898
20
72.9806976318359
40
0.0
41
0.0
42
0.0
10
75.0385971069336
20
72.7269973754883
40
0.0
41
0.0
42
0.0
10
75.1053009033203
20
72.4847030639648
40
0.0
41
0.0
42
0.0
10
75.138298034668
20
72.3069000244141
40
0.0
41
0.0
42
0.0
10
75.2767028808594
20
71.9872970581055
40
0.0
41
0.0
42
0.0
10
75.4040985107422
20
71.5813980102539
40
0.0
41
0.0
42
0.0
10
75.4263000488281
20
71.4828033447266
40
0.0
41
0.0
42
0.0
10
75.4493026733398
20
71.0417022705078
40
0.0
41
0.0
42
0.0
10
75.4531021118164
20
71.0073013305664
40
0.0
41
0.0
42
0.0
10
75.3525009155273
20
70.6812973022461
40
0.0
41
0.0
42
0.0
10
75.3444976806641
20
70.5143966674805
40
0.0
41
0.0
42
0.0
10
75.1700973510742
20
70.1783981323242
40
0.0
41
0.0
42
0.0
10
75.1446990966797
20
70.0130004882812
40
0.0
41
0.0
42
0.0
10
75.0085983276367
20
69.7698974609375
40
0.0
41
0.0
42
0.0
10
74.9879989624023
20
69.6118011474609
40
0.0
41
0.0
42
0.0
10
74.9134979248047
20
69.5092010498047
40
0.0
41
0.0
42
0.0
10
74.7399978637695
20
69.1402969360352
40
0.0
41
0.0
42
0.0
10
74.7398986816406
20
69.1053009033203
40
0.0
41
0.0
42
0.0
10
74.7434005737305
20
69.0059967041016
40
0.0
41
0.0
42
0.0
10
74.7181015014648
20
68.6442031860352
40
0.0
41
0.0
42
0.0
10
74.7180023193359
20
68.6080017089844
40
0.0
41
0.0
42
0.0
10
74.7536010742188
20
68.4862976074219
40
0.0
41
0.0
42
0.0
10
74.8662033081055
20
68.154899597168
40
0.0
41
0.0
42
0.0
10
74.9413986206055
20
67.989501953125
40
0.0
41
0.0
42
0.0
10
75.0891036987305
20
67.7338027954102
40
0.0
41
0.0
42
0.0
10
75.1233978271484
20
67.6632995605469
40
0.0
41
0.0
42
0.0
10
75.1939010620117
20
67.5442962646484
40
0.0
41
0.0
42
0.0
10
75.2212982177734
20
67.4896011352539
40
0.0
41
0.0
42
0.0
10
75.4068984985352
20
67.1464996337891
40
0.0
41
0.0
42
0.0
10
75.4542999267578
20
66.9847030639648
40
0.0
41
0.0
42
0.0
10
75.484001159668
20
66.8119964599609
40
0.0
41
0.0
42
0.0
10
75.4841995239258
20
66.5119018554688
40
0.0
41
0.0
42
0.0
10
75.3671035766602
20
66.3822021484375
40
0.0
41
0.0
42
0.0
10
75.3432006835938
20
66.345100402832
40
0.0
41
0.0
42
0.0
10
75.1970977783203
20
66.007698059082
40
0.0
41
0.0
42
0.0
10
75.0362014770508
20
65.8535995483398
40
0.0
41
0.0
42
0.0
10
74.99169921875
20
65.8216018676758
40
0.0
41
0.0
42
0.0
10
74.8267974853516
20
65.7162017822266
40
0.0
41
0.0
42
0.0
10
74.6677017211914
20
65.5998001098633
40
0.0
41
0.0
42
0.0
10
74.5458984375
20
65.5026016235352
40
0.0
41
0.0
42
0.0
10
74.4897003173828
20
65.4691009521484
40
0.0
41
0.0
42
0.0
10
74.4225997924805
20
65.4390029907227
40
0.0
41
0.0
42
0.0
10
74.3227005004883
20
65.3981018066406
40
0.0
41
0.0
42
0.0
10
73.9857025146484
20
65.2676010131836
40
0.0
41
0.0
42
0.0
10
73.8181991577148
20
65.2368011474609
40
0.0
41
0.0
42
0.0
10
73.497200012207
20
65.1968002319336
40
0.0
41
0.0
42
0.0
10
73.3522033691406
20
65.2101974487305
40
0.0
41
0.0
42
0.0
10
73.0130004882812
20
65.269401550293
40
0.0
41
0.0
42
0.0
10
72.6827011108398
20
65.4449005126953
40
0.0
41
0.0
42
0.0
10
72.5532989501953
20
65.5007019042969
40
0.0
41
0.0
42
0.0
10
72.5085983276367
20
65.5223007202148
40
0.0
41
0.0
42
0.0
10
72.3628005981445
20
65.6398010253906
40
0.0
41
0.0
42
0.0
10
71.9929962158203
20
66.0071029663086
40
0.0
41
0.0
42
0.0
10
71.7797012329102
20
66.38330078125
40
0.0
41
0.0
42
0.0
10
71.6820983886719
20
66.5109024047852
40
0.0
41
0.0
42
0.0
10
71.6025009155273
20
66.8879013061523
40
0.0
41
0.0
42
0.0
10
71.5858001708984
20
66.9209976196289
40
0.0
41
0.0
42
0.0
10
71.5335006713867
20
67.0029983520508
40
0.0
41
0.0
42
0.0
10
71.5703964233398
20
67.1089019775391
40
0.0
41
0.0
42
0.0
10
71.6184997558594
20
67.4899978637695
40
0.0
41
0.0
42
0.0
10
71.7113037109375
20
67.5779037475586
40
0.0
41
0.0
42
0.0
10
72.0045013427734
20
67.9411010742188
40
0.0
41
0.0
42
0.0
10
72.0633010864258
20
67.9957962036133
40
0.0
41
0.0
42
0.0
10
72.0958023071289
20
68.0218963623047
40
0.0
41
0.0
42
0.0
10
72.5058975219727
20
68.3795013427734
40
0.0
41
0.0
42
0.0
10
72.6296997070312
20
68.4935989379883
40
0.0
41
0.0
42
0.0
10
72.6658020019531
20
68.5495986938477
40
0.0
41
0.0
42
0.0
10
72.9347991943359
20
68.9241027832031
40
0.0
41
0.0
42
0.0
10
72.9863967895508
20
68.9906997680664
40
0.0
41
0.0
42
0.0
10
73.0
20
69.0226974487305
40
0.0
41
0.0
42
0.0
10
73.1123962402344
20
69.4824981689453
40
0.0
41
0.0
42
0.0
10
73.1122970581055
20
69.5184020996094
40
0.0
41
0.0
42
0.0
10
73.0770034790039
20
69.7503967285156
40
0.0
41
0.0
42
0.0
10
73.1045989990234
20
69.9838027954102
40
0.0
41
0.0
42
0.0
10
73.1365966796875
20
70.1075973510742
40
0.0
41
0.0
42
0.0
10
73.1364974975586
20
70.1436996459961
40
0.0
41
0.0
42
0.0
10
73.1320037841797
20
70.1819000244141
40
0.0
41
0.0
42
0.0
10
73.0771026611328
20
70.4969024658203
40
0.0
41
0.0
42
0.0
10
73.1159973144531
20
70.6475982666016
40
0.0
41
0.0
42
0.0
10
73.1158981323242
20
70.6837005615234
40
0.0
41
0.0
42
0.0
10
73.0800018310547
20
70.99169921875
40
0.0
41
0.0
42
0.0
10
73.1462020874023
20
71.1492004394531
40
0.0
41
0.0
42
0.0
10
73.1461029052734
20
71.1845016479492
40
0.0
41
0.0
42
0.0
10
73.1340026855469
20
71.4881973266602
40
0.0
41
0.0
42
0.0
10
73.4176025390625
20
71.9050979614258
40
0.0
41
0.0
42
0.0
10
73.4169006347656
20
72.0146026611328
40
0.0
41
0.0
42
0.0
10
73.3710021972656
20
72.1011962890625
40
0.0
41
0.0
42
0.0
10
73.3896026611328
20
72.1171035766602
40
0.0
41
0.0
42
0.0
10
73.4496994018555
20
72.071403503418
40
0.0
41
0.0
42
0.0
10
73.4878005981445
20
72.0384979248047
40
0.0
41
0.0
42
0.0
10
73.5100021362305
20
72.0383987426758
40
0.0
41
0.0
42
0.0
10
73.5337982177734
20
72.0677032470703
40
0.0
41
0.0
42
0.0
10
73.7157974243164
20
72.3268966674805
40
0.0
41
0.0
42
0.0
10
73.8311004638672
20
72.4946975708008
40
0.0
41
0.0
42
0.0
10
74.0066986083984
20
72.625602722168
40
0.0
41
0.0
42
0.0
10
74.0251007080078
20
72.6417999267578
40
0.0
41
0.0
42
0.0
10
74.1490020751953
20
72.8249969482422
40
0.0
41
0.0
42
0.0
10
74.2161026000977
20
72.9850006103516
40
0.0
41
0.0
42
0.0
10
74.2294006347656
20
73.1417007446289
40
0.0
41
0.0
42
0.0
10
74.3286972045898
20
73.4829025268555
40
0.0
41
0.0
42
0.0
10
74.3286972045898
20
73.5122985839844
40
0.0
41
0.0
42
0.0
10
74.2281036376953
20
73.6348037719727
40
0.0
41
0.0
42
0.0
10
74.0108032226562
20
73.869499206543
40
0.0
41
0.0
42
0.0
10
73.9853973388672
20
73.869499206543
40
0.0
41
0.0
42
0.0
10
73.8273010253906
20
73.7819976806641
40
0.0
41
0.0
42
0.0
10
73.6278991699219
20
73.6009979248047
40
0.0
41
0.0
42
0.0
10
73.5203018188477
20
73.5064010620117
40
0.0
41
0.0
42
0.0
10
73.497200012207
20
73.467903137207
40
0.0
41
0.0
42
0.0
10
73.4494018554688
20
73.408203125
40
0.0
41
0.0
42
0.0
10
73.314697265625
20
73.1726989746094
40
0.0
41
0.0
42
0.0
10
73.1975021362305
20
73.0391006469727
40
0.0
41
0.0
42
0.0
10
73.1793975830078
20
73.0101013183594
40
0.0
41
0.0
42
0.0
10
72.9985961914062
20
72.5995025634766
40
0.0
41
0.0
42
0.0
10
72.9860992431641
20
72.5785980224609
40
0.0
41
0.0
42
0.0
10
72.9377975463867
20
72.5080032348633
40
0.0
41
0.0
42
0.0
10
72.8001022338867
20
72.3114013671875
40
0.0
41
0.0
42
0.0
10
72.6788024902344
20
72.0158004760742
40
0.0
41
0.0
42
0.0
10
72.6788024902344
20
71.8275985717773
40
0.0
41
0.0
42
0.0
10
72.5171966552734
20
71.8706970214844
40
0.0
41
0.0
42
0.0
10
72.4894027709961
20
71.8706970214844
40
0.0
41
0.0
42
0.0
10
72.377799987793
20
71.7453994750977
40
0.0
41
0.0
42
0.0
10
72.174201965332
20
71.6669998168945
40
0.0
41
0.0
42
0.0
10
72.1232986450195
20
71.6148986816406
40
0.0
41
0.0
42
0.0
10
71.9900970458984
20
71.5681991577148
40
0.0
41
0.0
42
0.0
10
71.9041976928711
20
71.5027008056641
40
0.0
41
0.0
42
0.0
10
71.8441009521484
20
71.4637985229492
40
0.0
41
0.0
42
0.0
10
71.8252029418945
20
71.447998046875
40
0.0
41
0.0
42
0.0
10
71.4899978637695
20
71.3451995849609
40
0.0
41
0.0
42
0.0
10
71.3394012451172
20
71.2238006591797
40
0.0
41
0.0
42
0.0
10
70.9904022216797
20
71.129997253418
40
0.0
41
0.0
42
0.0
10
70.9759979248047
20
71.1167984008789
40
0.0
41
0.0
42
0.0
10
70.6626968383789
20
71.0024032592773
40
0.0
41
0.0
42
0.0
10
70.5719985961914
20
70.8789978027344
40
0.0
41
0.0
42
0.0
10
70.5117034912109
20
70.8441009521484
40
0.0
41
0.0
42
0.0
10
70.4955978393555
20
70.8247985839844
40
0.0
41
0.0
42
0.0
10
70.1856994628906
20
70.5080032348633
40
0.0
41
0.0
42
0.0
10
70.1314010620117
20
70.3868026733398
40
0.0
41
0.0
42
0.0
10
69.9823989868164
20
70.013298034668
40
0.0
41
0.0
42
0.0
10
69.9664993286133
20
69.9541015625
40
0.0
41
0.0
42
0.0
10
69.8376998901367
20
69.5137023925781
40
0.0
41
0.0
42
0.0
10
69.6718978881836
20
69.0112991333008
40
0.0
41
0.0
42
0.0
10
69.631103515625
20
68.9414978027344
40
0.0
41
0.0
42
0.0
10
69.6214981079102
20
68.9209976196289
40
0.0
41
0.0
42
0.0
10
69.4877014160156
20
68.8303985595703
40
0.0
41
0.0
42
0.0
10
69.3630981445312
20
68.8136978149414
40
0.0
41
0.0
42
0.0
10
69.3276977539062
20
68.78759765625
40
0.0
41
0.0
42
0.0
10
68.9901962280273
20
68.5231018066406
40
0.0
41
0.0
42
0.0
10
68.8541030883789
20
68.5341033935547
40
0.0
41
0.0
42
0.0
10
68.8161010742188
20
68.5339965820312
40
0.0
41
0.0
42
0.0
10
68.5018997192383
20
68.4991989135742
40
0.0
41
0.0
42
0.0
10
68.3170013427734
20
68.524299621582
40
0.0
41
0.0
42
0.0
10
68.1809005737305
20
68.5451965332031
40
0.0
41
0.0
42
0.0
10
68.0133972167969
20
68.5852966308594
40
0.0
41
0.0
42
0.0
10
67.8470993041992
20
68.6539993286133
40
0.0
41
0.0
42
0.0
10
67.5102005004883
20
68.7848968505859
40
0.0
41
0.0
42
0.0
10
67.2300033569336
20
68.9698028564453
40
0.0
41
0.0
42
0.0
10
67.1745986938477
20
69.0027008056641
40
0.0
41
0.0
42
0.0
10
67.0619964599609
20
69.0963973999023
40
0.0
41
0.0
42
0.0
10
67.0038986206055
20
69.1530990600586
40
0.0
41
0.0
42
0.0
10
66.8003997802734
20
69.4338989257812
40
0.0
41
0.0
42
0.0
10
66.7350997924805
20
69.50830078125
40
0.0
41
0.0
42
0.0
10
66.6561965942383
20
69.6771011352539
40
0.0
41
0.0
42
0.0
10
66.5436019897461
20
70.0147018432617
40
0.0
41
0.0
42
0.0
10
66.5190963745117
20
70.1510009765625
40
0.0
41
0.0
42
0.0
10
66.4942016601562
20
70.493896484375
40
0.0
41
0.0
42
0.0
10
66.4916000366211
20
70.510498046875
40
0.0
41
0.0
42
0.0
10
66.4916000366211
20
70.4815979003906
40
0.0
41
0.0
42
0.0
10
66.4964981079102
20
70.451301574707
40
0.0
41
0.0
42
0.0
10
66.5232009887695
20
70.0839004516602
40
0.0
41
0.0
42
0.0
10
66.5410003662109
20
69.9851989746094
40
0.0
41
0.0
42
0.0
10
66.6652984619141
20
69.6127014160156
40
0.0
41
0.0
42
0.0
10
66.7220001220703
20
69.4915008544922
40
0.0
41
0.0
42
0.0
10
66.7690963745117
20
69.4376983642578
40
0.0
41
0.0
42
0.0
10
66.9957962036133
20
69.1249008178711
40
0.0
41
0.0
42
0.0
10
67.056999206543
20
69.0652008056641
40
0.0
41
0.0
42
0.0
10
67.1389007568359
20
68.9971008300781
40
0.0
41
0.0
42
0.0
10
67.1791000366211
20
68.9732971191406
40
0.0
41
0.0
42
0.0
10
67.4896011352539
20
68.7682037353516
40
0.0
41
0.0
42
0.0
10
67.8628005981445
20
68.6232986450195
40
0.0
41
0.0
42
0.0
10
67.9863967895508
20
68.5721969604492
40
0.0
41
0.0
42
0.0
10
68.109001159668
20
68.5429000854492
40
0.0
41
0.0
42
0.0
10
68.2593002319336
20
68.5197982788086
40
0.0
41
0.0
42
0.0
10
68.4813995361328
20
68.4893035888672
40
0.0
41
0.0
42
0.0
10
68.518798828125
20
68.4891967773438
40
0.0
41
0.0
42
0.0
10
68.877799987793
20
68.529296875
40
0.0
41
0.0
42
0.0
10
68.9807968139648
20
68.5212020874023
40
0.0
41
0.0
42
0.0
10
69.0127029418945
20
68.5212020874023
40
0.0
41
0.0
42
0.0
10
69.3491973876953
20
68.7846984863281
40
0.0
41
0.0
42
0.0
10
69.5122985839844
20
68.8065032958984
40
0.0
41
0.0
42
0.0
10
69.6684036254883
20
68.9122009277344
40
0.0
41
0.0
42
0.0
10
69.6764984130859
20
68.9290008544922
40
0.0
41
0.0
42
0.0
10
69.7111968994141
20
68.9886016845703
40
0.0
41
0.0
42
0.0
10
69.8749008178711
20
69.486198425293
40
0.0
41
0.0
42
0.0
10
69.9999008178711
20
69.913200378418
40
0.0
41
0.0
42
0.0
10
70.0139007568359
20
69.9542007446289
40
0.0
41
0.0
42
0.0
10
70.0230026245117
20
69.986701965332
40
0.0
41
0.0
42
0.0
10
70.1568984985352
20
70.3231964111328
40
0.0
41
0.0
42
0.0
10
70.2326965332031
20
70.4919967651367
40
0.0
41
0.0
42
0.0
10
70.5043029785156
20
70.7697982788086
40
0.0
41
0.0
42
0.0
10
70.529899597168
20
70.8003005981445
40
0.0
41
0.0
42
0.0
10
70.5826034545898
20
70.8310012817383
40
0.0
41
0.0
42
0.0
10
70.7052001953125
20
70.9974975585938
40
0.0
41
0.0
42
0.0
10
70.988899230957
20
71.1011962890625
40
0.0
41
0.0
42
0.0
10
71.0095977783203
20
71.120002746582
40
0.0
41
0.0
42
0.0
10
71.3477020263672
20
71.2108001708984
40
0.0
41
0.0
42
0.0
10
71.3837966918945
20
71.2276992797852
40
0.0
41
0.0
42
0.0
10
71.5100021362305
20
71.3292999267578
40
0.0
41
0.0
42
0.0
10
71.8846969604492
20
71.4443969726562
40
0.0
41
0.0
42
0.0
10
71.8949966430664
20
71.4531021118164
40
0.0
41
0.0
42
0.0
10
71.9632034301758
20
71.4971008300781
40
0.0
41
0.0
42
0.0
10
72.0099029541016
20
71.5327987670898
40
0.0
41
0.0
42
0.0
10
72.1558990478516
20
71.5838012695312
40
0.0
41
0.0
42
0.0
10
72.1939010620117
20
71.6229019165039
40
0.0
41
0.0
42
0.0
10
72.4209976196289
20
71.7101974487305
40
0.0
41
0.0
42
0.0
10
72.5052032470703
20
71.804801940918
40
0.0
41
0.0
42
0.0
10
72.703498840332
20
71.7519989013672
40
0.0
41
0.0
42
0.0
10
72.7468032836914
20
71.7375030517578
40
0.0
41
0.0
42
0.0
10
72.7626037597656
20
71.7375030517578
40
0.0
41
0.0
42
0.0
10
72.7649993896484
20
71.9841003417969
40
0.0
41
0.0
42
0.0
10
72.9480972290039
20
72.4366989135742
40
0.0
41
0.0
42
0.0
10
73.0015029907227
20
72.5141983032227
40
0.0
41
0.0
42
0.0
10
73.2108993530273
20
72.9897994995117
40
0.0
41
0.0
42
0.0
10
73.2276992797852
20
73.0165023803711
40
0.0
41
0.0
42
0.0
10
73.3159027099609
20
73.1172027587891
40
0.0
41
0.0
42
0.0
10
73.4661026000977
20
73.379997253418
40
0.0
41
0.0
42
0.0
10
73.5027008056641
20
73.4255981445312
40
0.0
41
0.0
42
0.0
10
73.5438003540039
20
73.4935989379883
40
0.0
41
0.0
42
0.0
10
73.7285003662109
20
73.6563034057617
40
0.0
41
0.0
42
0.0
10
73.882698059082
20
73.7962036132812
40
0.0
41
0.0
42
0.0
10
73.9977035522461
20
73.8597030639648
40
0.0
41
0.0
42
0.0
10
74.2348022460938
20
73.6037979125977
40
0.0
41
0.0
42
0.0
10
74.3227996826172
20
73.4952011108398
40
0.0
41
0.0
42
0.0
10
74.2310028076172
20
73.1794967651367
40
0.0
41
0.0
42
0.0
10
74.2213973999023
20
73.1415023803711
40
0.0
41
0.0
42
0.0
10
74.2107009887695
20
73.0149002075195
40
0.0
41
0.0
42
0.0
10
74.1561965942383
20
72.8849029541016
40
0.0
41
0.0
42
0.0
10
74.0118026733398
20
72.6716003417969
40
0.0
41
0.0
42
0.0
10
73.9933013916016
20
72.6549987792969
40
0.0
41
0.0
42
0.0
10
73.7919006347656
20
72.5052032470703
40
0.0
41
0.0
42
0.0
10
73.5692977905273
20
72.1854019165039
40
0.0
41
0.0
42
0.0
10
73.4991989135742
20
72.0989990234375
40
0.0
41
0.0
42
0.0
10
73.4039001464844
20
72.1816024780273
40
0.0
41
0.0
42
0.0
10
73.0999984741211
20
72.4116973876953
40
0.0
41
0.0
42
0.0
10
73.0879974365234
20
72.4117965698242
40
0.0
41
0.0
42
0.0
10
73.0878982543945
20
72.3979034423828
40
0.0
41
0.0
42
0.0
10
73.3056030273438
20
71.9852981567383
40
0.0
41
0.0
42
0.0
10
73.3078002929688
20
71.820198059082
40
0.0
41
0.0
42
0.0
10
73.0991973876953
20
71.5134963989258
40
0.0
41
0.0
42
0.0
10
73.0990982055664
20
71.4804000854492
40
0.0
41
0.0
42
0.0
10
73.1128997802734
20
71.1376037597656
40
0.0
41
0.0
42
0.0
10
73.0617980957031
20
71.0157012939453
40
0.0
41
0.0
42
0.0
10
73.0616989135742
20
70.981201171875
40
0.0
41
0.0
42
0.0
10
73.1025009155273
20
70.6309967041016
40
0.0
41
0.0
42
0.0
10
73.0731964111328
20
70.5173034667969
40
0.0
41
0.0
42
0.0
10
73.0731964111328
20
70.4816970825195
40
0.0
41
0.0
42
0.0
10
73.1287994384766
20
70.1628036499023
40
0.0
41
0.0
42
0.0
10
73.0908966064453
20
70.0160980224609
40
0.0
41
0.0
42
0.0
10
73.0521011352539
20
69.6864013671875
40
0.0
41
0.0
42
0.0
10
73.052001953125
20
69.649299621582
40
0.0
41
0.0
42
0.0
10
73.0740966796875
20
69.5037002563477
40
0.0
41
0.0
42
0.0
10
72.9999008178711
20
69.1998977661133
40
0.0
41
0.0
42
0.0
10
72.9192962646484
20
69.0093002319336
40
0.0
41
0.0
42
0.0
10
72.6435012817383
20
68.6540985107422
40
0.0
41
0.0
42
0.0
10
72.5526962280273
20
68.5278015136719
40
0.0
41
0.0
42
0.0
10
72.5390014648438
20
68.5063018798828
40
0.0
41
0.0
42
0.0
10
72.4940032958984
20
68.4647979736328
40
0.0
41
0.0
42
0.0
10
71.9683990478516
20
68.0055999755859
40
0.0
41
0.0
42
0.0
10
71.8915023803711
20
67.902099609375
40
0.0
41
0.0
42
0.0
10
71.6083984375
20
67.551399230957
40
0.0
41
0.0
42
0.0
10
71.5644989013672
20
67.5099029541016
40
0.0
41
0.0
42
0.0
10
71.5018005371094
20
67.0186004638672
40
0.0
41
0.0
42
0.0
10
71.5017013549805
20
66.9860992431641
40
0.0
41
0.0
42
0.0
10
71.5734024047852
20
66.8734970092773
40
0.0
41
0.0
42
0.0
10
71.5994033813477
20
66.8218994140625
40
0.0
41
0.0
42
0.0
10
71.6697006225586
20
66.488899230957
40
0.0
41
0.0
42
0.0
10
71.7938003540039
20
66.3264999389648
40
0.0
41
0.0
42
0.0
10
71.9832000732422
20
65.9922027587891
40
0.0
41
0.0
42
0.0
10
71.9951019287109
20
65.9791030883789
40
0.0
41
0.0
42
0.0
10
72.3292999267578
20
65.6484985351562
40
0.0
41
0.0
42
0.0
10
72.3684005737305
20
65.6137008666992
40
0.0
41
0.0
42
0.0
10
72.4985961914062
20
65.5100021362305
40
0.0
41
0.0
42
0.0
10
72.6219024658203
20
65.456298828125
40
0.0
41
0.0
42
0.0
10
72.9868011474609
20
65.2623977661133
40
0.0
41
0.0
42
0.0
10
73.3576965332031
20
65.1976013183594
40
0.0
41
0.0
42
0.0
10
73.4809036254883
20
65.1864013671875
40
0.0
41
0.0
42
0.0
10
73.5186004638672
20
65.1863021850586
40
0.0
41
0.0
42
0.0
10
73.8917999267578
20
65.2328033447266
40
0.0
41
0.0
42
0.0
10
74.0141983032227
20
65.2553024291992
40
0.0
41
0.0
42
0.0
10
74.3871994018555
20
65.3995971679688
40
0.0
41
0.0
42
0.0
10
74.4619979858398
20
65.4302978515625
40
0.0
41
0.0
42
0.0
10
74.5102996826172
20
65.4518966674805
40
0.0
41
0.0
42
0.0
10
74.5863037109375
20
65.497200012207
40
0.0
41
0.0
42
0.0
10
74.7610015869141
20
65.6367034912109
40
0.0
41
0.0
42
0.0
10
74.8831024169922
20
65.7259979248047
40
0.0
41
0.0
42
0.0
10
75.0082015991211
20
65.8058013916016
40
0.0
41
0.0
42
0.0
10
75.0389022827148
20
65.8280029296875
40
0.0
41
0.0
42
0.0
10
75.2104034423828
20
65.9922027587891
40
0.0
41
0.0
42
0.0
10
75.3628005981445
20
66.3441009521484
40
0.0
41
0.0
42
0.0
10
75.4926986694336
20
66.4879989624023
40
0.0
41
0.0
42
0.0
10
75.4925003051758
20
66.9542007446289
40
0.0
41
0.0
42
0.0
10
75.4820022583008
20
67.0151977539062
40
0.0
41
0.0
42
0.0
10
75.4216003417969
20
67.2210998535156
40
0.0
41
0.0
42
0.0
10
75.2652969360352
20
67.5102005004883
40
0.0
41
0.0
42
0.0
10
75.2294998168945
20
67.5813980102539
40
0.0
41
0.0
42
0.0
10
75.1663970947266
20
67.688102722168
40
0.0
41
0.0
42
0.0
10
75.1210021972656
20
67.7815017700195
40
0.0
41
0.0
42
0.0
10
74.9897003173828
20
68.0102996826172
40
0.0
41
0.0
42
0.0
10
74.8886032104492
20
68.2329025268555
40
0.0
41
0.0
42
0.0
10
74.793098449707
20
68.5136032104492
40
0.0
41
0.0
42
0.0
10
74.7459030151367
20
68.674201965332
40
0.0
41
0.0
42
0.0
10
74.7676010131836
20
68.9806976318359
40
0.0
41
0.0
42
0.0
10
74.7675018310547
20
69.0195999145508
40
0.0
41
0.0
42
0.0
10
74.7626037597656
20
69.1521987915039
40
0.0
41
0.0
42
0.0
10
74.9218978881836
20
69.4906997680664
40
0.0
41
0.0
42
0.0
10
74.9877014160156
20
69.5811004638672
40
0.0
41
0.0
42
0.0
10
74.9893035888672
20
69.5868988037109
40
0.0
41
0.0
42
0.0
10
75.0058975219727
20
69.7144012451172
40
0.0
41
0.0
42
0.0
10
75.1585006713867
20
69.9869003295898
40
0.0
41
0.0
42
0.0
10
75.1776962280273
20
70.1116027832031
40
0.0
41
0.0
42
0.0
10
75.3718032836914
20
70.4856033325195
40
0.0
41
0.0
42
0.0
10
75.377799987793
20
70.6085968017578
40
0.0
41
0.0
42
0.0
10
75.4934997558594
20
70.9831008911133
40
0.0
41
0.0
42
0.0
10
75.4934005737305
20
71.019401550293
40
0.0
41
0.0
42
0.0
10
75.469596862793
20
71.4956970214844
40
0.0
41
0.0
42
0.0
10
75.4671020507812
20
71.5164031982422
40
0.0
41
0.0
42
0.0
10
75.4582977294922
20
71.5558013916016
40
0.0
41
0.0
42
0.0
10
75.3147964477539
20
72.0126037597656
40
0.0
41
0.0
42
0.0
10
75.1567001342773
20
72.3779983520508
40
0.0
41
0.0
42
0.0
10
75.131103515625
20
72.5151977539062
40
0.0
41
0.0
42
0.0
10
75.0466995239258
20
72.8220977783203
40
0.0
41
0.0
42
0.0
10
75.0345993041992
20
72.9893035888672
40
0.0
41
0.0
42
0.0
10
75.0978012084961
20
73.1119003295898
40
0.0
41
0.0
42
0.0
10
75.1701965332031
20
73.4934997558594
40
0.0
41
0.0
42
0.0
10
75.4017028808594
20
73.6231994628906
40
0.0
41
0.0
42
0.0
10
75.4961013793945
20
73.6577987670898
40
0.0
41
0.0
42
0.0
10
75.61669921875
20
73.5371017456055
40
0.0
41
0.0
42
0.0
10
75.6748962402344
20
73.492301940918
40
0.0
41
0.0
42
0.0
10
75.7689971923828
20
73.1509017944336
40
0.0
41
0.0
42
0.0
10
75.7810974121094
20
73.1128997802734
40
0.0
41
0.0
42
0.0
10
75.8442001342773
20
72.9857025146484
40
0.0
41
0.0
42
0.0
10
75.8758010864258
20
72.6097030639648
40
0.0
41
0.0
42
0.0
10
75.8963012695312
20
72.5576019287109
40
0.0
41
0.0
42
0.0
10
75.9362030029297
20
72.4960021972656
40
0.0
41
0.0
42
0.0
10
75.8776016235352
20
72.3031997680664
40
0.0
41
0.0
42
0.0
10
75.8775024414062
20
72.2702026367188
40
0.0
41
0.0
42
0.0
10
75.9773025512695
20
72.0046997070312
40
0.0
41
0.0
42
0.0
10
75.9044036865234
20
71.9160995483398
40
0.0
41
0.0
42
0.0
10
75.9045028686523
20
71.904899597168
40
0.0
41
0.0
42
0.0
10
75.9284973144531
20
71.9049987792969
40
0.0
41
0.0
42
0.0
10
75.9309997558594
20
71.9021987915039
40
0.0
41
0.0
42
0.0
10
75.9998016357422
20
71.902099609375
40
0.0
41
0.0
42
0.0
10
76.02490234375
20
71.4937973022461
40
0.0
41
0.0
42
0.0
10
76.0848999023438
20
71.2454986572266
40
0.0
41
0.0
42
0.0
10
76.1241989135742
20
71.1464996337891
40
0.0
41
0.0
42
0.0
10
76.1866989135742
20
71.0149002075195
40
0.0
41
0.0
42
0.0
10
76.2022018432617
20
70.9952011108398
40
0.0
41
0.0
42
0.0
10
76.4927978515625
20
70.7846984863281
40
0.0
41
0.0
42
0.0
10
76.6630020141602
20
70.6428985595703
40
0.0
41
0.0
42
0.0
10
76.6878967285156
20
70.6175003051758
40
0.0
41
0.0
42
0.0
10
76.7563018798828
20
70.4900970458984
40
0.0
41
0.0
42
0.0
10
76.8019027709961
20
70.4100036621094
40
0.0
41
0.0
42
0.0
10
76.8199996948242
20
70.3872985839844
40
0.0
41
0.0
42
0.0
10
76.9922027587891
20
70.2586975097656
40
0.0
41
0.0
42
0.0
10
77.2899017333984
20
70.052001953125
40
0.0
41
0.0
42
0.0
10
77.3300018310547
20
69.989501953125
40
0.0
41
0.0
42
0.0
10
77.393798828125
20
69.8255004882812
40
0.0
41
0.0
42
0.0
10
77.4665985107422
20
69.7341003417969
40
0.0
41
0.0
42
0.0
10
77.7093963623047
20
69.4908981323242
40
0.0
41
0.0
42
0.0
10
77.793701171875
20
69.1919021606445
40
0.0
41
0.0
42
0.0
10
77.848503112793
20
68.9831008911133
40
0.0
41
0.0
42
0.0
10
77.8480987548828
20
68.8273010253906
40
0.0
41
0.0
42
0.0
10
77.8529968261719
20
68.513298034668
40
0.0
41
0.0
42
0.0
10
77.8079986572266
20
68.0189971923828
40
0.0
41
0.0
42
0.0
10
77.8086013793945
20
67.8225021362305
40
0.0
41
0.0
42
0.0
10
77.8013000488281
20
67.4845962524414
40
0.0
41
0.0
42
0.0
10
77.9990997314453
20
67.081298828125
40
0.0
41
0.0
42
0.0
10
78.0330963134766
20
66.993896484375
40
0.0
41
0.0
42
0.0
10
78.1389999389648
20
66.9251022338867
40
0.0
41
0.0
42
0.0
10
78.3252029418945
20
66.7837982177734
40
0.0
41
0.0
42
0.0
10
78.4878005981445
20
66.7227020263672
40
0.0
41
0.0
42
0.0
10
78.8211975097656
20
66.5783004760742
40
0.0
41
0.0
42
0.0
10
78.9835968017578
20
66.5459976196289
40
0.0
41
0.0
42
0.0
10
79.2725982666016
20
66.5007019042969
40
0.0
41
0.0
42
0.0
10
79.3141021728516
20
66.4953994750977
40
0.0
41
0.0
42
0.0
10
79.3852996826172
20
66.4941024780273
40
0.0
41
0.0
42
0.0
210
0.0
220
0.0
230
1.0
0
LWPOLYLINE
5
28
330
1C
100
AcDbEntity
67
0
8
0
62
256
6
ByLayer
370
-1
48
1.0
60
0
100
AcDbPolyline
90
29
70
1
38
0.0
39
0.0
10
82.5269012451172
20
65.0009994506836
40
0.0
41
0.0
42
0.0
10
82.5557022094727
20
65.0009994506836
40
0.0
41
0.0
42
0.0
10
82.8867034912109
20
65.1608963012695
40
0.0
41
0.0
42
0.0
10
83.0124969482422
20
65.2076034545898
40
0.0
41
0.0
42
0.0
10
83.3781967163086
20
65.3497009277344
40
0.0
41
0.0
42
0.0
10
83.5148010253906
20
65.3893966674805
40
0.0
41
0.0
42
0.0
10
83.6792984008789
20
65.4256973266602
40
0.0
41
0.0
42
0.0
10
83.8960037231445
20
65.4999008178711
40
0.0
41
0.0
42
0.0
10
84.0166015625
20
65.5381011962891
40
0.0
41
0.0
42
0.0
10
84.1834030151367
20
65.5399017333984
40
0.0
41
0.0
42
0.0
10
84.5017013549805
20
65.6107025146484
40
0.0
41
0.0
42
0.0
10
84.8296966552734
20
65.5525970458984
40
0.0
41
0.0
42
0.0
10
84.8675003051758
20
65.5524978637695
40
0.0
41
0.0
42
0.0
10
84.9990005493164
20
65.5571975708008
40
0.0
41
0.0
42
0.0
10
84.9990005493164
20
65.5876007080078
40
0.0
41
0.0
42
0.0
10
84.9803009033203
20
65.5875015258789
40
0.0
41
0.0
42
0.0
10
84.7752990722656
20
65.5802993774414
40
0.0
41
0.0
42
0.0
10
84.5180969238281
20
65.6260986328125
40
0.0
41
0.0
42
0.0
10
84.4822998046875
20
65.6260986328125
40
0.0
41
0.0
42
0.0
10
84.1081008911133
20
65.5428009033203
40
0.0
41
0.0
42
0.0
10
83.9832992553711
20
65.5412979125977
40
0.0
41
0.0
42
0.0
10
83.852897644043
20
65.5
40
0.0
41
0.0
42
0.0
10
83.6106033325195
20
65.4172973632812
40
0.0
41
0.0
42
0.0
10
83.4851989746094
20
65.3897018432617
40
0.0
41
0.0
42
0.0
10
83.3218002319336
20
65.3412017822266
40
0.0
41
0.0
42
0.0
10
82.9873962402344
20
65.2113037109375
40
0.0
41
0.0
42
0.0
10
82.8231964111328
20
65.1502990722656
40
0.0
41
0.0
42
0.0
10
82.5269012451172
20
65.0067977905273
40
0.0
41
0.0
42
0.0
10
82.5269012451172
20
65.0009994506836
40
0.0
41
0.0
42
0.0
210
0.0
220
0.0
230
1.0
0
LWPOLYLINE
5
29
330
1C
100
AcDbEntity
67
0
8
0
62
256
6
ByLayer
370
-1
48
1.0
60
0
100
AcDbPolyline
90
29
70
1
38
0.0
39
0.0
10
84.3738021850586
20
84.5180969238281
40
0.0
41
0.0
42
0.0
10
84.3735961914062
20
84.4822006225586
40
0.0
41
0.0
42
0.0
10
84.456901550293
20
84.1081008911133
40
0.0
41
0.0
42
0.0
10
84.4583969116211
20
83.9832992553711
40
0.0
41
0.0
42
0.0
10
84.4998016357422
20
83.852897644043
40
0.0
41
0.0
42
0.0
10
84.5824966430664
20
83.6106033325195
40
0.0
41
0.0
42
0.0
10
84.6098022460938
20
83.4860000610352
40
0.0
41
0.0
42
0.0
10
84.7436981201172
20
83.1417007446289
40
0.0
41
0.0
42
0.0
10
84.7886962890625
20
82.9865036010742
40
0.0
41
0.0
42
0.0
10
84.8494033813477
20
82.8231964111328
40
0.0
41
0.0
42
0.0
10
84.9931030273438
20
82.5269012451172
40
0.0
41
0.0
42
0.0
10
84.9990005493164
20
82.5269012451172
40
0.0
41
0.0
42
0.0
10
84.9988021850586
20
82.5557022094727
40
0.0
41
0.0
42
0.0
10
84.8388977050781
20
82.8867034912109
40
0.0
41
0.0
42
0.0
10
84.7919006347656
20
83.013298034668
40
0.0
41
0.0
42
0.0
10
84.7555999755859
20
83.1381988525391
40
0.0
41
0.0
42
0.0
10
84.6104965209961
20
83.513801574707
40
0.0
41
0.0
42
0.0
10
84.5740966796875
20
83.6792984008789
40
0.0
41
0.0
42
0.0
10
84.4999008178711
20
83.8958969116211
40
0.0
41
0.0
42
0.0
10
84.4616012573242
20
84.0166015625
40
0.0
41
0.0
42
0.0
10
84.4598007202148
20
84.1834030151367
40
0.0
41
0.0
42
0.0
10
84.3889999389648
20
84.5017013549805
40
0.0
41
0.0
42
0.0
10
84.4473037719727
20
84.8296966552734
40
0.0
41
0.0
42
0.0
10
84.4471969604492
20
84.8675003051758
40
0.0
41
0.0
42
0.0
10
84.4425964355469
20
84.9990005493164
40
0.0
41
0.0
42
0.0
10
84.4123001098633
20
84.9990005493164
40
0.0
41
0.0
42
0.0
10
84.4122009277344
20
84.9803009033203
40
0.0
41
0.0
42
0.0
10
84.4194030761719
20
84.7752990722656
40
0.0
41
0.0
42
0.0
10
84.3738021850586
20
84.5180969238281
40
0.0
41
0.0
42
0.0
210
0.0
220
0.0
230
1.0
0
VIEWPORT
5
2E
330
2A
100
AcDbEntity
67
1
8
0
62
256
6
ByLayer
370
-1
48
1.0
60
0
100
AcDbViewport
10
0.0
20
0.0
30
0.0
40
297.0
41
210.0
68
1
69
1
12
50.0
22
100.0
13
0.0
23
0.0
14
10.0
24
10.0
15
10.0
25
10.0
16
0.0
26
0.0
36
1.0
17
0.0
27
0.0
37
0.0
42
50.0
43
0.0
44
0.0
45
250.0
50
0.0
51
0.0
72
1000
90
819232
110
0.0
120
0.0
130
0.0
111
1.0
121
0.0
131
0.0
112
0.0
122
1.0
132
0.0
0
ENDSEC
0
SECTION
2
OBJECTS
0
DICTIONARY
5
34
330
0
100
AcDbDictionary
280
1
281
1
3
ACAD_GROUP
350
12
3
ACAD_LAYOUT
350
2D
3
ACAD_DGNDEFINITIONS
350
F
3
ACAD_DWFDEFINITIONS
350
10
3
ACAD_PDFDEFINITIONS
350
11
3
ACAD_MLINESTYLE
350
B
3
ACAD_IMAGE_DICT
350
E
3
ACAD_IMAGE_VARS
350
21
0
DICTIONARY
5
12
330
34
100
AcDbDictionary
280
1
281
1
0
DICTIONARY
5
2D
330
34
100
AcDbDictionary
280
1
281
1
3
Model
350
20
3
Layout1
350
2F
0
DICTIONARY
5
F
330
34
100
AcDbDictionary
280
1
281
1
0
DICTIONARY
5
10
330
34
100
AcDbDictionary
280
1
281
1
0
DICTIONARY
5
11
330
34
100
AcDbDictionary
280
1
281
1
0
DICTIONARY
5
B
330
34
100
AcDbDictionary
280
1
281
1
3
Standard
350
1B
0
DICTIONARY
5
E
330
34
100
AcDbDictionary
280
1
281
1
0
DICTIONARY
5
6
330
5
100
AcDbDictionary
280
1
281
1
3
ACAD_LAYERSTATES
360
35
0
DICTIONARY
5
35
330
6
100
AcDbDictionary
280
1
281
1
0
LAYOUT
5
20
330
2D
100
AcDbPlotSettings
1

2
none_device
4
ISO_A4_(210.00_x_297.00_MM)
6

40
7.5
41
20.0
42
7.5
43
20.0
44
210.0
45
297.0
46
0.0
47
0.0
48
0.0
49
0.0
140
0.0
141
0.0
142
1.0
143
1.0
70
11952
72
1
73
1
74
1
7

75
0
76
0
77
2
78
300
147
1.0
148
0.0
149
0.0
100
AcDbLayout
1
Model
71
0
10
-20.0
20
-7.5
11
277.0
21
202.5
12
0.0
22
0.0
32
0.0
14
25.7
24
19.5
34
0.0
15
231.3
25
175.5
35
0.0
146
0.0
13
0.0
23
0.0
33
0.0
16
1.0
26
0.0
36
0.0
17
0.0
27
1.0
37
0.0
76
0
330
1C
0
LAYOUT
5
2F
330
2D
100
AcDbPlotSettings
1

2
none_device
4
ISO_A4_(210.00_x_297.00_MM)
6

40
7.5
41
20.0
42
7.5
43
20.0
44
210.0
45
297.0
46
0.0
47
0.0
48
0.0
49
0.0
140
0.0
141
0.0
142
1.0
143
1.0
70
688
72
1
73
1
74
1
7

75
0
76
0
77
2
78
300
147
1.0
148
0.0
149
0.0
100
AcDbLayout
1
Layout1
71
1
10
-20.0
20
-7.5
11
277.0
21
202.5
12
0.0
22
0.0
32
0.0
14
25.7
24
19.5
34
0.0
15
231.3
25
175.5
35
0.0
146
0.0
13
0.0
23
0.0
33
0.0
16
1.0
26
0.0
36
0.0
17
0.0
27
1.0
37
0.0
76
0
330
2A
0
MLINESTYLE
5
1B
330
B
100
AcDbMlineStyle
2
Standard
70
0
3

62
256
51
90.0
52
90.0
71
2
49
0.5
62
256
6
ByLayer
49
-0.5
62
256
6
ByLayer
0
RASTERVARIABLES
5
21
330
E
100
AcDbRasterVariables
90
0
70
1
71
1
72
0
0
ENDSEC
0
EOF
