999
DXF file generated by netDxf https://github.com/haplokuon/netDxf, Copyright(C) Daniel Carvajal, Licensed under MIT
0
SECTION
2
HEADER
9
$ACADVER
1
AC1015
9
$DWGCODEPAGE
3
ANSI_1252
9
$HANDSEED
5
42
9
$ANGBASE
50
0.0
9
$ANGDIR
70
0
9
$ATTMODE
70
1
9
$AUNITS
70
0
9
$AUPREC
70
0
9
$CECOLOR
62
256
9
$CELTSCALE
40
1.0
9
$CELTYPE
6
ByLayer
9
$CELWEIGHT
370
-1
9
$CLAYER
8
0
9
$CMLJUST
70
0
9
$CMLSCALE
40
20.0
9
$CMLSTYLE
2
Standard
9
$DIMSTYLE
2
Standard
9
$TEXTSIZE
40
2.5
9
$TEXTSTYLE
7
Standard
9
$LUNITS
70
2
9
$LUPREC
70
4
9
$MIRRTEXT
70
0
9
$EXTNAMES
290
1
9
$INSBASE
10
0.0
20
0.0
30
0.0
9
$INSUNITS
70
0
9
$LTSCALE
40
1.0
9
$LWDISPLAY
290
0
9
$PDMODE
70
0
9
$PDSIZE
40
0.0
9
$PLINEGEN
70
0
9
$PSLTSCALE
70
1
9
$SPLINESEGS
70
8
9
$SURFU
70
6
9
$SURFV
70
6
9
$TDCREATE
40
2460823.4837472
9
$TDUCREATE
40
2460823.15041387
9
$TDUPDATE
40
2460823.4837472
9
$TDUUPDATE
40
2460823.15041387
9
$TDINDWG
40
0.0
9
$UCSORG
10
0.0
20
0.0
30
0.0
9
$UCSXDIR
10
1.0
20
0.0
30
0.0
9
$UCSYDIR
10
0.0
20
1.0
30
0.0
9
$DIMADEC
70
0
9
$DIMALT
70
0
9
$DIMALTD
70
2
9
$DIMALTF
40
25.4
9
$DIMALTRND
40
0.0
9
$DIMALTTD
70
2
9
$DIMALTTZ
70
0
9
$DIMALTU
70
2
9
$DIMALTZ
70
0
9
$DIMAPOST
1

9
$DIMATFIT
70
3
9
$DIMAUNIT
70
0
9
$DIMASZ
40
0.18
9
$DIMAZIN
70
0
9
$DIMSAH
70
0
9
$DIMBLK
1

9
$DIMLDRBLK
1

9
$DIMCEN
40
0.09
9
$DIMCLRD
70
0
9
$DIMCLRE
70
0
9
$DIMCLRT
70
0
9
$DIMDEC
70
4
9
$DIMDLE
40
0.0
9
$DIMDLI
40
0.38
9
$DIMDSEP
70
46
9
$DIMEXE
40
0.18
9
$DIMEXO
40
0.0625
9
$DIMFXLON
70
0
9
$DIMFXL
40
1.0
9
$DIMGAP
40
0.09
9
$DIMJUST
70
0
9
$DIMLFAC
40
1.0
9
$DIMLUNIT
70
2
9
$DIMLWD
70
-2
9
$DIMLWE
70
-2
9
$DIMPOST
1

9
$DIMRND
40
0.0
9
$DIMSCALE
40
1.0
9
$DIMSD1
70
0
9
$DIMSD2
70
0
9
$DIMSE1
70
0
9
$DIMSE2
70
0
9
$DIMSOXD
70
0
9
$DIMTAD
70
0
9
$DIMTDEC
70
4
9
$DIMTFAC
40
1.0
9
$DIMTIH
70
0
9
$DIMTIX
70
0
9
$DIMTM
40
0.0
9
$DIMTMOVE
70
0
9
$DIMTOFL
70
0
9
$DIMTOH
70
0
9
$DIMTOL
70
0
9
$DIMLIM
70
0
9
$DIMTOLJ
70
1
9
$DIMTP
40
0.0
9
$DIMTXT
40
0.18
9
$DIMTXTDIRECTION
70
0
9
$DIMTZIN
70
0
9
$DIMZIN
70
0
9
$DIMFRAC
70
0
9
$DIMLTYPE
6
ByBlock
9
$DIMLTEX1
6
ByBlock
9
$DIMLTEX2
6
ByBlock
0
ENDSEC
0
SECTION
2
CLASSES
0
CLASS
1
RASTERVARIABLES
2
AcDbRasterVariables
3
ISM
90
0
280
0
281
0
0
ENDSEC
0
SECTION
2
TABLES
0
TABLE
2
APPID
5
4
330
0
100
AcDbSymbolTable
70
5
0
APPID
5
19
330
4
100
AcDbSymbolTableRecord
100
AcDbRegAppTableRecord
2
ACAD
70
0
0
APPID
5
3C
330
4
100
AcDbSymbolTableRecord
100
AcDbRegAppTableRecord
2
AcCmTransparency
70
0
0
APPID
5
3D
330
4
100
AcDbSymbolTableRecord
100
AcDbRegAppTableRecord
2
AcAecLayerStandard
70
0
0
APPID
5
3E
330
4
100
AcDbSymbolTableRecord
100
AcDbRegAppTableRecord
2
GradientColor1ACI
70
0
0
APPID
5
3F
330
4
100
AcDbSymbolTableRecord
100
AcDbRegAppTableRecord
2
GradientColor2ACI
70
0
0
ENDTAB
0
TABLE
2
VPORT
5
1
330
0
100
AcDbSymbolTable
70
1
0
VPORT
5
2
330
1
100
AcDbSymbolTableRecord
100
AcDbViewportTableRecord
2
*Active
70
0
10
0.0
20
0.0
11
1.0
21
1.0
12
0.0
22
0.0
13
0.0
23
0.0
14
0.5
24
0.5
15
10.0
25
10.0
16
0.0
26
0.0
36
1.0
17
0.0
27
0.0
37
0.0
40
10.0
41
1.0
75
0
76
1
0
ENDTAB
0
TABLE
2
LTYPE
5
7
330
0
100
AcDbSymbolTable
70
3
0
LTYPE
5
15
330
7
100
AcDbSymbolTableRecord
100
AcDbLinetypeTableRecord
2
Continuous
70
0
3
Solid line
72
65
73
0
40
0.0
0
LTYPE
5
16
330
7
100
AcDbSymbolTableRecord
100
AcDbLinetypeTableRecord
2
ByLayer
70
0
3

72
65
73
0
40
0.0
0
LTYPE
5
17
330
7
100
AcDbSymbolTableRecord
100
AcDbLinetypeTableRecord
2
ByBlock
70
0
3

72
65
73
0
40
0.0
0
ENDTAB
0
TABLE
2
LAYER
5
5
102
{ACAD_XDICTIONARY
360
6
102
}
330
0
100
AcDbSymbolTable
70
1
0
LAYER
5
14
330
5
100
AcDbSymbolTableRecord
100
AcDbLayerTableRecord
2
0
70
0
62
7
6
Continuous
290
1
370
-3
390
0
0
ENDTAB
0
TABLE
2
STYLE
5
8
330
0
100
AcDbSymbolTable
70
1
0
STYLE
5
18
330
8
100
AcDbSymbolTableRecord
100
AcDbTextStyleTableRecord
2
Standard
3
simplex.shx
70
0
71
0
40
0.0
41
1.0
42
0.0
50
0.0
0
ENDTAB
0
TABLE
2
DIMSTYLE
5
A
330
0
100
AcDbSymbolTable
70
1
100
AcDbDimStyleTable
0
DIMSTYLE
105
1A
330
A
100
AcDbSymbolTableRecord
100
AcDbDimStyleTableRecord
2
Standard
3

4

40
1.0
41
0.18
42
0.0625
43
0.38
44
0.18
45
0.0
46
0.0
47
0.0
48
0.0
49
1.0
70
0
71
0
72
0
73
0
74
0
75
0
76
0
77
0
78
0
79
0
140
0.18
141
0.09
143
25.4
144
1.0
146
1.0
147
0.09
148
0.0
170
0
171
2
172
0
174
0
175
0
176
0
177
0
178
0
179
0
271
4
272
4
273
2
274
2
275
0
276
0
277
2
278
46
279
0
280
0
281
0
282
0
283
1
284
0
285
0
286
0
289
3
290
0
294
0
340
18
173
0
345
17
346
17
347
17
371
-2
372
-2
0
ENDTAB
0
TABLE
2
VIEW
5
3
330
0
100
AcDbSymbolTable
70
0
0
ENDTAB
0
TABLE
2
UCS
5
C
330
0
100
AcDbSymbolTable
70
0
0
ENDTAB
0
TABLE
2
BLOCK_RECORD
5
D
330
0
100
AcDbSymbolTable
70
2
0
BLOCK_RECORD
5
1C
330
D
100
AcDbSymbolTableRecord
100
AcDbBlockTableRecord
2
*Model_Space
340
20
0
BLOCK_RECORD
5
36
330
D
100
AcDbSymbolTableRecord
100
AcDbBlockTableRecord
2
*Paper_Space
340
3B
0
ENDTAB
0
ENDSEC
0
SECTION
2
BLOCKS
0
BLOCK
5
1E
330
1C
100
AcDbEntity
67
0
8
0
100
AcDbBlockBegin
2
*Model_Space
70
0
10
0.0
20
0.0
30
0.0
3
*Model_Space
4

0
ENDBLK
5
1D
330
1C
100
AcDbEntity
8
0
100
AcDbBlockEnd
0
BLOCK
5
38
330
36
100
AcDbEntity
67
1
8
0
100
AcDbBlockBegin
2
*Paper_Space
70
0
10
0.0
20
0.0
30
0.0
3
*Paper_Space
4

0
ENDBLK
5
37
330
36
100
AcDbEntity
8
0
100
AcDbBlockEnd
0
ENDSEC
0
SECTION
2
ENTITIES
0
LWPOLYLINE
5
22
330
1C
100
AcDbEntity
67
0
8
0
62
256
6
ByLayer
370
-1
48
1.0
60
0
100
AcDbPolyline
90
26
70
1
38
0.0
39
0.0
10
65.4903030395508
20
66.9682998657227
40
0.0
41
0.0
42
0.0
10
65.9355010986328
20
66.7001037597656
40
0.0
41
0.0
42
0.0
10
65.991096496582
20
66.6690979003906
40
0.0
41
0.0
42
0.0
10
66.2360992431641
20
66.4964981079102
40
0.0
41
0.0
42
0.0
10
66.4300003051758
20
66.3339004516602
40
0.0
41
0.0
42
0.0
10
66.4927978515625
20
66.2910995483398
40
0.0
41
0.0
42
0.0
10
66.5117034912109
20
66.2745971679688
40
0.0
41
0.0
42
0.0
10
66.7843017578125
20
65.993896484375
40
0.0
41
0.0
42
0.0
10
66.9579010009766
20
65.7818984985352
40
0.0
41
0.0
42
0.0
10
66.9962997436523
20
65.7417984008789
40
0.0
41
0.0
42
0.0
10
67.206298828125
20
65.4364013671875
40
0.0
41
0.0
42
0.0
10
67.4796981811523
20
65.0009994506836
40
0.0
41
0.0
42
0.0
10
67.4908981323242
20
65.0009994506836
40
0.0
41
0.0
42
0.0
10
67.4907989501953
20
65.0139007568359
40
0.0
41
0.0
42
0.0
10
67.1902008056641
20
65.4929962158203
40
0.0
41
0.0
42
0.0
10
67.0063018798828
20
65.7611999511719
40
0.0
41
0.0
42
0.0
10
66.8046035766602
20
66.0058975219727
40
0.0
41
0.0
42
0.0
10
66.5108032226562
20
66.3084030151367
40
0.0
41
0.0
42
0.0
10
66.4898986816406
20
66.323600769043
40
0.0
41
0.0
42
0.0
10
66.2759017944336
20
66.503303527832
40
0.0
41
0.0
42
0.0
10
66.0084991455078
20
66.6914978027344
40
0.0
41
0.0
42
0.0
10
65.5094985961914
20
66.9915008544922
40
0.0
41
0.0
42
0.0
10
65.0146026611328
20
67.2594985961914
40
0.0
41
0.0
42
0.0
10
65.0009994506836
20
67.2594985961914
40
0.0
41
0.0
42
0.0
10
65.0008010864258
20
67.2323989868164
40
0.0
41
0.0
42
0.0
10
65.4903030395508
20
66.9682998657227
40
0.0
41
0.0
42
0.0
210
0.0
220
0.0
230
1.0
0
LWPOLYLINE
5
23
330
1C
100
AcDbEntity
67
0
8
0
62
256
6
ByLayer
370
-1
48
1.0
60
0
100
AcDbPolyline
90
27
70
1
38
0.0
39
0.0
10
65.0009994506836
20
82.508903503418
40
0.0
41
0.0
42
0.0
10
65.0139007568359
20
82.508903503418
40
0.0
41
0.0
42
0.0
10
65.5083999633789
20
82.8199996948242
40
0.0
41
0.0
42
0.0
10
65.7612991333008
20
82.9934997558594
40
0.0
41
0.0
42
0.0
10
66.0058975219727
20
83.1950988769531
40
0.0
41
0.0
42
0.0
10
66.3085021972656
20
83.4889984130859
40
0.0
41
0.0
42
0.0
10
66.3236999511719
20
83.5099029541016
40
0.0
41
0.0
42
0.0
10
66.503303527832
20
83.7238006591797
40
0.0
41
0.0
42
0.0
10
66.6922988891602
20
83.9925994873047
40
0.0
41
0.0
42
0.0
10
66.9915008544922
20
84.4904022216797
40
0.0
41
0.0
42
0.0
10
67.2591018676758
20
84.9845962524414
40
0.0
41
0.0
42
0.0
10
67.2592010498047
20
84.9990005493164
40
0.0
41
0.0
42
0.0
10
67.2323989868164
20
84.9990005493164
40
0.0
41
0.0
42
0.0
10
66.9683990478516
20
84.5095977783203
40
0.0
41
0.0
42
0.0
10
66.7001037597656
20
84.0643997192383
40
0.0
41
0.0
42
0.0
10
66.6690979003906
20
84.0087966918945
40
0.0
41
0.0
42
0.0
10
66.4965972900391
20
83.7637023925781
40
0.0
41
0.0
42
0.0
10
66.3339004516602
20
83.5697021484375
40
0.0
41
0.0
42
0.0
10
66.2910995483398
20
83.5071029663086
40
0.0
41
0.0
42
0.0
10
66.2745971679688
20
83.4880981445312
40
0.0
41
0.0
42
0.0
10
65.9940032958984
20
83.2154006958008
40
0.0
41
0.0
42
0.0
10
65.7819976806641
20
83.0418014526367
40
0.0
41
0.0
42
0.0
10
65.7417984008789
20
83.0036010742188
40
0.0
41
0.0
42
0.0
10
65.4915008544922
20
82.8310012817383
40
0.0
41
0.0
42
0.0
10
65.046501159668
20
82.5518035888672
40
0.0
41
0.0
42
0.0
10
65.0009994506836
20
82.5206985473633
40
0.0
41
0.0
42
0.0
10
65.0009994506836
20
82.508903503418
40
0.0
41
0.0
42
0.0
210
0.0
220
0.0
230
1.0
0
LWPOLYLINE
5
24
330
1C
100
AcDbEntity
67
0
8
0
62
256
6
ByLayer
370
-1
48
1.0
60
0
100
AcDbPolyline
90
78
70
1
38
0.0
39
0.0
10
65.9934005737305
20
73.8626022338867
40
0.0
41
0.0
42
0.0
10
66.3964004516602
20
73.4960021972656
40
0.0
41
0.0
42
0.0
10
66.4356994628906
20
73.4656982421875
40
0.0
41
0.0
42
0.0
10
66.4858016967773
20
73.4434967041016
40
0.0
41
0.0
42
0.0
10
66.5417022705078
20
73.4352035522461
40
0.0
41
0.0
42
0.0
10
66.9852981567383
20
73.1946029663086
40
0.0
41
0.0
42
0.0
10
67.0186004638672
20
73.1945037841797
40
0.0
41
0.0
42
0.0
10
67.0429992675781
20
73.1976013183594
40
0.0
41
0.0
42
0.0
10
67.4832992553711
20
73.0550003051758
40
0.0
41
0.0
42
0.0
10
67.5165023803711
20
73.0549011230469
40
0.0
41
0.0
42
0.0
10
67.5224990844727
20
73.0569000244141
40
0.0
41
0.0
42
0.0
10
67.9811019897461
20
73.0055999755859
40
0.0
41
0.0
42
0.0
10
68.0192031860352
20
73.005500793457
40
0.0
41
0.0
42
0.0
10
68.5
20
73.0394973754883
40
0.0
41
0.0
42
0.0
10
68.5137023925781
20
73.0453033447266
40
0.0
41
0.0
42
0.0
10
68.9990005493164
20
73.147102355957
40
0.0
41
0.0
42
0.0
10
69.0587005615234
20
73.1703033447266
40
0.0
41
0.0
42
0.0
10
69.5121994018555
20
73.3171997070312
40
0.0
41
0.0
42
0.0
10
69.8940963745117
20
73.499397277832
40
0.0
41
0.0
42
0.0
10
70.0
20
73.5337982177734
40
0.0
41
0.0
42
0.0
10
70.0297012329102
20
73.5386962890625
40
0.0
41
0.0
42
0.0
10
70.5121002197266
20
73.7108001708984
40
0.0
41
0.0
42
0.0
10
70.9982986450195
20
73.928596496582
40
0.0
41
0.0
42
0.0
10
71.0115966796875
20
73.9317016601562
40
0.0
41
0.0
42
0.0
10
71.1169967651367
20
74.0000991821289
40
0.0
41
0.0
42
0.0
10
71.4980010986328
20
74.1605987548828
40
0.0
41
0.0
42
0.0
10
71.5678024291992
20
74.1799011230469
40
0.0
41
0.0
42
0.0
10
72.0106964111328
20
74.3774032592773
40
0.0
41
0.0
42
0.0
10
72.1977996826172
20
74.4782028198242
40
0.0
41
0.0
42
0.0
10
72.2515029907227
20
74.4985961914062
40
0.0
41
0.0
42
0.0
10
72.5078964233398
20
74.6830978393555
40
0.0
41
0.0
42
0.0
10
72.5642013549805
20
74.7209014892578
40
0.0
41
0.0
42
0.0
10
73.0117034912109
20
74.9520034790039
40
0.0
41
0.0
42
0.0
10
73.1368026733398
20
74.9949035644531
40
0.0
41
0.0
42
0.0
10
73.1367034912109
20
75.0038986206055
40
0.0
41
0.0
42
0.0
10
73.0662002563477
20
75.0229034423828
40
0.0
41
0.0
42
0.0
10
73.0139999389648
20
75.0345001220703
40
0.0
41
0.0
42
0.0
10
72.5682983398438
20
75.1976013183594
40
0.0
41
0.0
42
0.0
10
72.5121002197266
20
75.2143020629883
40
0.0
41
0.0
42
0.0
10
72.0660018920898
20
75.4423980712891
40
0.0
41
0.0
42
0.0
10
72.027702331543
20
75.4589004516602
40
0.0
41
0.0
42
0.0
10
72.0028991699219
20
75.4664993286133
40
0.0
41
0.0
42
0.0
10
71.935302734375
20
75.5009994506836
40
0.0
41
0.0
42
0.0
10
71.5177001953125
20
75.6945037841797
40
0.0
41
0.0
42
0.0
10
71.029899597168
20
75.8796005249023
40
0.0
41
0.0
42
0.0
10
71.0001983642578
20
75.8832015991211
40
0.0
41
0.0
42
0.0
10
70.6567993164062
20
76.000602722168
40
0.0
41
0.0
42
0.0
10
70.5117034912109
20
76.0792999267578
40
0.0
41
0.0
42
0.0
10
70.4791030883789
20
76.089599609375
40
0.0
41
0.0
42
0.0
10
70.013801574707
20
76.2667999267578
40
0.0
41
0.0
42
0.0
10
69.9904022216797
20
76.2722015380859
40
0.0
41
0.0
42
0.0
10
69.5141983032227
20
76.4172973632812
40
0.0
41
0.0
42
0.0
10
69.2009963989258
20
76.4999008178711
40
0.0
41
0.0
42
0.0
10
69.0124969482422
20
76.5770034790039
40
0.0
41
0.0
42
0.0
10
68.9577026367188
20
76.5960006713867
40
0.0
41
0.0
42
0.0
10
68.4800033569336
20
76.7059020996094
40
0.0
41
0.0
42
0.0
10
67.9876022338867
20
76.7315979003906
40
0.0
41
0.0
42
0.0
10
67.9496994018555
20
76.7314987182617
40
0.0
41
0.0
42
0.0
10
67.4850006103516
20
76.6643981933594
40
0.0
41
0.0
42
0.0
10
67.003303527832
20
76.494499206543
40
0.0
41
0.0
42
0.0
10
66.9857025146484
20
76.4944000244141
40
0.0
41
0.0
42
0.0
10
66.5147018432617
20
76.2199020385742
40
0.0
41
0.0
42
0.0
10
66.4860000610352
20
76.2154006958008
40
0.0
41
0.0
42
0.0
10
66.4359970092773
20
76.193000793457
40
0.0
41
0.0
42
0.0
10
66.1992034912109
20
76.0046005249023
40
0.0
41
0.0
42
0.0
10
65.9960021972656
20
75.7780990600586
40
0.0
41
0.0
42
0.0
10
65.8348007202148
20
75.5745010375977
40
0.0
41
0.0
42
0.0
10
65.7662963867188
20
75.5082015991211
40
0.0
41
0.0
42
0.0
10
65.6116027832031
20
75.0841979980469
40
0.0
41
0.0
42
0.0
10
65.5813980102539
20
75.0155029296875
40
0.0
41
0.0
42
0.0
10
65.581298828125
20
74.9807968139648
40
0.0
41
0.0
42
0.0
10
65.6053009033203
20
74.6743011474609
40
0.0
41
0.0
42
0.0
10
65.6115036010742
20
74.4854965209961
40
0.0
41
0.0
42
0.0
10
65.7850036621094
20
74.1640014648438
40
0.0
41
0.0
42
0.0
10
65.86669921875
20
73.9907989501953
40
0.0
41
0.0
42
0.0
10
65.8873977661133
20
73.9630966186523
40
0.0
41
0.0
42
0.0
10
65.963996887207
20
73.8849029541016
40
0.0
41
0.0
42
0.0
10
65.9934005737305
20
73.8626022338867
40
0.0
41
0.0
42
0.0
210
0.0
220
0.0
230
1.0
0
LWPOLYLINE
5
25
330
1C
100
AcDbEntity
67
0
8
0
62
256
6
ByLayer
370
-1
48
1.0
60
0
100
AcDbPolyline
90
75
70
1
38
0.0
39
0.0
10
65.899299621582
20
74.0580978393555
40
0.0
41
0.0
42
0.0
10
65.6531982421875
20
74.5142974853516
40
0.0
41
0.0
42
0.0
10
65.6512985229492
20
74.571403503418
40
0.0
41
0.0
42
0.0
10
65.6185989379883
20
74.9889984130859
40
0.0
41
0.0
42
0.0
10
65.8031005859375
20
75.49169921875
40
0.0
41
0.0
42
0.0
10
65.8247985839844
20
75.5128021240234
40
0.0
41
0.0
42
0.0
10
66.0038986206055
20
75.7388000488281
40
0.0
41
0.0
42
0.0
10
66.234001159668
20
75.9953002929688
40
0.0
41
0.0
42
0.0
10
66.493896484375
20
76.2016983032227
40
0.0
41
0.0
42
0.0
10
66.5139007568359
20
76.2107009887695
40
0.0
41
0.0
42
0.0
10
66.530403137207
20
76.2132034301758
40
0.0
41
0.0
42
0.0
10
66.5665969848633
20
76.2238998413086
40
0.0
41
0.0
42
0.0
10
67.0092010498047
20
76.4816970825195
40
0.0
41
0.0
42
0.0
10
67.036003112793
20
76.4789962768555
40
0.0
41
0.0
42
0.0
10
67.071403503418
20
76.4789962768555
40
0.0
41
0.0
42
0.0
10
67.5149002075195
20
76.635498046875
40
0.0
41
0.0
42
0.0
10
67.8883972167969
20
76.6893997192383
40
0.0
41
0.0
42
0.0
10
67.9813003540039
20
76.6818008422852
40
0.0
41
0.0
42
0.0
10
68.347297668457
20
76.6635971069336
40
0.0
41
0.0
42
0.0
10
68.7791976928711
20
76.5637969970703
40
0.0
41
0.0
42
0.0
10
68.9635009765625
20
76.4999008178711
40
0.0
41
0.0
42
0.0
10
69.4857025146484
20
76.3615036010742
40
0.0
41
0.0
42
0.0
10
69.897102355957
20
76.2360000610352
40
0.0
41
0.0
42
0.0
10
69.9860992431641
20
76.215202331543
40
0.0
41
0.0
42
0.0
10
70.3627014160156
20
76.0720977783203
40
0.0
41
0.0
42
0.0
10
70.4881973266602
20
76.0319976806641
40
0.0
41
0.0
42
0.0
10
70.548698425293
20
75.9991989135742
40
0.0
41
0.0
42
0.0
10
70.9292984008789
20
75.8676986694336
40
0.0
41
0.0
42
0.0
10
70.9824981689453
20
75.8632965087891
40
0.0
41
0.0
42
0.0
10
71.040397644043
20
75.8541030883789
40
0.0
41
0.0
42
0.0
10
71.486701965332
20
75.6843032836914
40
0.0
41
0.0
42
0.0
10
71.5093002319336
20
75.6775970458984
40
0.0
41
0.0
42
0.0
10
71.8952026367188
20
75.4988021850586
40
0.0
41
0.0
42
0.0
10
71.9546966552734
20
75.4683990478516
40
0.0
41
0.0
42
0.0
10
72.024299621582
20
75.4469985961914
40
0.0
41
0.0
42
0.0
10
72.4876022338867
20
75.2100982666016
40
0.0
41
0.0
42
0.0
10
72.9860992431641
20
75.0286026000977
40
0.0
41
0.0
42
0.0
10
73.0643005371094
20
75.0087966918945
40
0.0
41
0.0
42
0.0
10
73.0651016235352
20
74.9899978637695
40
0.0
41
0.0
42
0.0
10
72.9881973266602
20
74.9636993408203
40
0.0
41
0.0
42
0.0
10
72.5059967041016
20
74.7147979736328
40
0.0
41
0.0
42
0.0
10
72.2085037231445
20
74.5012969970703
40
0.0
41
0.0
42
0.0
10
72.1921997070312
20
74.4951019287109
40
0.0
41
0.0
42
0.0
10
71.9891967773438
20
74.3858032226562
40
0.0
41
0.0
42
0.0
10
71.503303527832
20
74.1689987182617
40
0.0
41
0.0
42
0.0
10
71.4316024780273
20
74.1516036987305
40
0.0
41
0.0
42
0.0
10
71.0867004394531
20
74.0064010620117
40
0.0
41
0.0
42
0.0
10
71.0770034790039
20
74.0016021728516
40
0.0
41
0.0
42
0.0
10
70.9882965087891
20
73.9434967041016
40
0.0
41
0.0
42
0.0
10
70.9316024780273
20
73.9309997558594
40
0.0
41
0.0
42
0.0
10
70.4878005981445
20
73.7320022583008
40
0.0
41
0.0
42
0.0
10
70.0402984619141
20
73.5725021362305
40
0.0
41
0.0
42
0.0
10
69.9300003051758
20
73.5540008544922
40
0.0
41
0.0
42
0.0
10
69.7667999267578
20
73.5003967285156
40
0.0
41
0.0
42
0.0
10
69.4877014160156
20
73.3672027587891
40
0.0
41
0.0
42
0.0
10
69.1549987792969
20
73.2593994140625
40
0.0
41
0.0
42
0.0
10
68.9878005981445
20
73.1969985961914
40
0.0
41
0.0
42
0.0
10
68.931396484375
20
73.1724014282227
40
0.0
41
0.0
42
0.0
10
68.4862976074219
20
73.0790023803711
40
0.0
41
0.0
42
0.0
10
68.4299011230469
20
73.0551986694336
40
0.0
41
0.0
42
0.0
10
68.0036010742188
20
73.0251007080078
40
0.0
41
0.0
42
0.0
10
67.5737991333008
20
73.0735015869141
40
0.0
41
0.0
42
0.0
10
67.5382995605469
20
73.0734024047852
40
0.0
41
0.0
42
0.0
10
67.4999008178711
20
73.0606994628906
40
0.0
41
0.0
42
0.0
10
67.0690002441406
20
73.2003021240234
40
0.0
41
0.0
42
0.0
10
67.0322036743164
20
73.2101974487305
40
0.0
41
0.0
42
0.0
10
67.0110015869141
20
73.2100982666016
40
0.0
41
0.0
42
0.0
10
66.5280990600586
20
73.4721984863281
40
0.0
41
0.0
42
0.0
10
66.5139999389648
20
73.4742965698242
40
0.0
41
0.0
42
0.0
10
66.4943008422852
20
73.4831008911133
40
0.0
41
0.0
42
0.0
10
66.4664001464844
20
73.5036010742188
40
0.0
41
0.0
42
0.0
10
65.9971008300781
20
73.9291000366211
40
0.0
41
0.0
42
0.0
10
65.9308013916016
20
73.9979019165039
40
0.0
41
0.0
42
0.0
10
65.9225006103516
20
74.0090026855469
40
0.0
41
0.0
42
0.0
10
65.899299621582
20
74.0580978393555
40
0.0
41
0.0
42
0.0
210
0.0
220
0.0
230
1.0
0
LWPOLYLINE
5
26
330
1C
100
AcDbEntity
67
0
8
0
62
256
6
ByLayer
370
-1
48
1.0
60
0
100
AcDbPolyline
90
89
70
1
38
0.0
39
0.0
10
67.9998016357422
20
79.5429992675781
40
0.0
41
0.0
42
0.0
10
68.0148010253906
20
79.4904022216797
40
0.0
41
0.0
42
0.0
10
68.0640029907227
20
79.4367980957031
40
0.0
41
0.0
42
0.0
10
68.2783966064453
20
78.9905014038086
40
0.0
41
0.0
42
0.0
10
68.4870986938477
20
78.6860961914062
40
0.0
41
0.0
42
0.0
10
68.5063018798828
20
78.6768035888672
40
0.0
41
0.0
42
0.0
10
68.5186996459961
20
78.6667022705078
40
0.0
41
0.0
42
0.0
10
68.6797027587891
20
78.4949035644531
40
0.0
41
0.0
42
0.0
10
68.9921035766602
20
78.2160034179688
40
0.0
41
0.0
42
0.0
10
69.1032028198242
20
78.1563034057617
40
0.0
41
0.0
42
0.0
10
69.3676986694336
20
77.997802734375
40
0.0
41
0.0
42
0.0
10
69.4916000366211
20
77.9216995239258
40
0.0
41
0.0
42
0.0
10
69.5146026611328
20
77.9049987792969
40
0.0
41
0.0
42
0.0
10
69.9885025024414
20
77.6801986694336
40
0.0
41
0.0
42
0.0
10
70.1585006713867
20
77.6081008911133
40
0.0
41
0.0
42
0.0
10
70.4218978881836
20
77.4991989135742
40
0.0
41
0.0
42
0.0
10
70.49169921875
20
77.467399597168
40
0.0
41
0.0
42
0.0
10
70.5068969726562
20
77.4533004760742
40
0.0
41
0.0
42
0.0
10
70.9900970458984
20
77.2452011108398
40
0.0
41
0.0
42
0.0
10
71.0046005249023
20
77.2351989746094
40
0.0
41
0.0
42
0.0
10
71.4897994995117
20
77.0579986572266
40
0.0
41
0.0
42
0.0
10
71.4973983764648
20
77.0525970458984
40
0.0
41
0.0
42
0.0
10
71.617301940918
20
76.9992980957031
40
0.0
41
0.0
42
0.0
10
71.9747009277344
20
76.8644027709961
40
0.0
41
0.0
42
0.0
10
72.0428009033203
20
76.8309020996094
40
0.0
41
0.0
42
0.0
10
72.4884033203125
20
76.6901016235352
40
0.0
41
0.0
42
0.0
10
72.5102996826172
20
76.6774978637695
40
0.0
41
0.0
42
0.0
10
72.9044036865234
20
76.5058975219727
40
0.0
41
0.0
42
0.0
10
72.9859008789062
20
76.4754028320312
40
0.0
41
0.0
42
0.0
10
73.0385971069336
20
76.4636001586914
40
0.0
41
0.0
42
0.0
10
73.4813003540039
20
76.4047012329102
40
0.0
41
0.0
42
0.0
10
73.5096969604492
20
76.4046020507812
40
0.0
41
0.0
42
0.0
10
73.5574035644531
20
76.4661026000977
40
0.0
41
0.0
42
0.0
10
73.5688018798828
20
76.4856033325195
40
0.0
41
0.0
42
0.0
10
73.5687026977539
20
76.5168991088867
40
0.0
41
0.0
42
0.0
10
73.5149002075195
20
76.6974029541016
40
0.0
41
0.0
42
0.0
10
73.5010986328125
20
76.7313003540039
40
0.0
41
0.0
42
0.0
10
73.4897994995117
20
76.7497024536133
40
0.0
41
0.0
42
0.0
10
73.3732986450195
20
77.0120010375977
40
0.0
41
0.0
42
0.0
10
73.2092971801758
20
77.4570007324219
40
0.0
41
0.0
42
0.0
10
73.1847991943359
20
77.5118026733398
40
0.0
41
0.0
42
0.0
10
73.0053024291992
20
77.9675979614258
40
0.0
41
0.0
42
0.0
10
72.9959030151367
20
77.9817962646484
40
0.0
41
0.0
42
0.0
10
72.9807968139648
20
78.011100769043
40
0.0
41
0.0
42
0.0
10
72.7825012207031
20
78.4945983886719
40
0.0
41
0.0
42
0.0
10
72.772102355957
20
78.5090026855469
40
0.0
41
0.0
42
0.0
10
72.6968002319336
20
78.6615982055664
40
0.0
41
0.0
42
0.0
10
72.5418014526367
20
79.0112991333008
40
0.0
41
0.0
42
0.0
10
72.320198059082
20
79.4940032958984
40
0.0
41
0.0
42
0.0
10
72.3089981079102
20
79.5083999633789
40
0.0
41
0.0
42
0.0
10
72.209602355957
20
79.6928024291992
40
0.0
41
0.0
42
0.0
10
72.0550003051758
20
80.0102005004883
40
0.0
41
0.0
42
0.0
10
72.0014038085938
20
80.1069030761719
40
0.0
41
0.0
42
0.0
10
71.9571990966797
20
80.1932983398438
40
0.0
41
0.0
42
0.0
10
71.7885971069336
20
80.5086975097656
40
0.0
41
0.0
42
0.0
10
71.5022964477539
20
80.9007034301758
40
0.0
41
0.0
42
0.0
10
71.4877014160156
20
80.9253005981445
40
0.0
41
0.0
42
0.0
10
71.4318008422852
20
80.9925003051758
40
0.0
41
0.0
42
0.0
10
71.4228973388672
20
81.006103515625
40
0.0
41
0.0
42
0.0
10
71.004997253418
20
81.3800964355469
40
0.0
41
0.0
42
0.0
10
70.9953002929688
20
81.390998840332
40
0.0
41
0.0
42
0.0
10
70.989501953125
20
81.4001007080078
40
0.0
41
0.0
42
0.0
10
70.8357009887695
20
81.5017013549805
40
0.0
41
0.0
42
0.0
10
70.5083999633789
20
81.6685028076172
40
0.0
41
0.0
42
0.0
10
70.4946975708008
20
81.6796035766602
40
0.0
41
0.0
42
0.0
10
70.0151977539062
20
81.8358001708984
40
0.0
41
0.0
42
0.0
10
69.568603515625
20
81.8980026245117
40
0.0
41
0.0
42
0.0
10
69.5322036743164
20
81.9162979125977
40
0.0
41
0.0
42
0.0
10
69.5162963867188
20
81.9219970703125
40
0.0
41
0.0
42
0.0
10
69.480598449707
20
81.9218978881836
40
0.0
41
0.0
42
0.0
10
69.0962982177734
20
81.8970031738281
40
0.0
41
0.0
42
0.0
10
69.0189971923828
20
81.9039001464844
40
0.0
41
0.0
42
0.0
10
68.9835968017578
20
81.9038009643555
40
0.0
41
0.0
42
0.0
10
68.6115036010742
20
81.7706985473633
40
0.0
41
0.0
42
0.0
10
68.4889984130859
20
81.7454986572266
40
0.0
41
0.0
42
0.0
10
68.284797668457
20
81.5854034423828
40
0.0
41
0.0
42
0.0
10
68.222297668457
20
81.5572967529297
40
0.0
41
0.0
42
0.0
10
68.168701171875
20
81.5064010620117
40
0.0
41
0.0
42
0.0
10
67.9985961914062
20
81.2445983886719
40
0.0
41
0.0
42
0.0
10
67.9662017822266
20
81.1688995361328
40
0.0
41
0.0
42
0.0
10
67.9051971435547
20
81.0665969848633
40
0.0
41
0.0
42
0.0
10
67.8907012939453
20
81.0155029296875
40
0.0
41
0.0
42
0.0
10
67.8246002197266
20
80.5868988037109
40
0.0
41
0.0
42
0.0
10
67.8230972290039
20
80.4804992675781
40
0.0
41
0.0
42
0.0
10
67.8533020019531
20
80.0532989501953
40
0.0
41
0.0
42
0.0
10
67.8648986816406
20
79.9842987060547
40
0.0
41
0.0
42
0.0
10
67.9446029663086
20
79.6692962646484
40
0.0
41
0.0
42
0.0
10
67.9716033935547
20
79.6185989379883
40
0.0
41
0.0
42
0.0
10
67.9998016357422
20
79.5429992675781
40
0.0
41
0.0
42
0.0
210
0.0
220
0.0
230
1.0
0
LWPOLYLINE
5
27
330
1C
100
AcDbEntity
67
0
8
0
62
256
6
ByLayer
370
-1
48
1.0
60
0
100
AcDbPolyline
90
82
70
1
38
0.0
39
0.0
10
67.8938980102539
20
80.0366973876953
40
0.0
41
0.0
42
0.0
10
67.8608016967773
20
80.5042037963867
40
0.0
41
0.0
42
0.0
10
67.9348983764648
20
80.9844970703125
40
0.0
41
0.0
42
0.0
10
67.940299987793
20
81.0034027099609
40
0.0
41
0.0
42
0.0
10
67.9577026367188
20
81.0326995849609
40
0.0
41
0.0
42
0.0
10
68.0012969970703
20
81.1349029541016
40
0.0
41
0.0
42
0.0
10
68.2343978881836
20
81.4934997558594
40
0.0
41
0.0
42
0.0
10
68.2546005249023
20
81.5126037597656
40
0.0
41
0.0
42
0.0
10
68.2727966308594
20
81.5208969116211
40
0.0
41
0.0
42
0.0
10
68.5109024047852
20
81.7073974609375
40
0.0
41
0.0
42
0.0
10
68.5485992431641
20
81.715202331543
40
0.0
41
0.0
42
0.0
10
69.0101013183594
20
81.8804016113281
40
0.0
41
0.0
42
0.0
10
69.0447998046875
20
81.8803024291992
40
0.0
41
0.0
42
0.0
10
69.4900970458984
20
81.9091033935547
40
0.0
41
0.0
42
0.0
10
69.5011978149414
20
81.9036026000977
40
0.0
41
0.0
42
0.0
10
69.9847030639648
20
81.8361968994141
40
0.0
41
0.0
42
0.0
10
70.4365997314453
20
81.689697265625
40
0.0
41
0.0
42
0.0
10
70.4815979003906
20
81.6510009765625
40
0.0
41
0.0
42
0.0
10
70.4905014038086
20
81.6453018188477
40
0.0
41
0.0
42
0.0
10
70.7808990478516
20
81.497200012207
40
0.0
41
0.0
42
0.0
10
70.7958984375
20
81.4833984375
40
0.0
41
0.0
42
0.0
10
70.9402008056641
20
81.3890991210938
40
0.0
41
0.0
42
0.0
10
70.9682006835938
20
81.3447036743164
40
0.0
41
0.0
42
0.0
10
70.9947967529297
20
81.3152008056641
40
0.0
41
0.0
42
0.0
10
71.3539962768555
20
80.9936981201172
40
0.0
41
0.0
42
0.0
10
71.3901977539062
20
80.9380035400391
40
0.0
41
0.0
42
0.0
10
71.4421005249023
20
80.8758010864258
40
0.0
41
0.0
42
0.0
10
71.4973983764648
20
80.7828979492188
40
0.0
41
0.0
42
0.0
10
71.7105026245117
20
80.491096496582
40
0.0
41
0.0
42
0.0
10
71.8369979858398
20
80.2544021606445
40
0.0
41
0.0
42
0.0
10
71.9445037841797
20
80.043701171875
40
0.0
41
0.0
42
0.0
10
71.9981002807617
20
79.9530029296875
40
0.0
41
0.0
42
0.0
10
72.246696472168
20
79.4915008544922
40
0.0
41
0.0
42
0.0
10
72.2900009155273
20
79.4365005493164
40
0.0
41
0.0
42
0.0
10
72.4446029663086
20
79.0994033813477
40
0.0
41
0.0
42
0.0
10
72.4922027587891
20
78.9908981323242
40
0.0
41
0.0
42
0.0
10
72.4977035522461
20
78.9841003417969
40
0.0
41
0.0
42
0.0
10
72.741096496582
20
78.4907989501953
40
0.0
41
0.0
42
0.0
10
72.7816009521484
20
78.4352035522461
40
0.0
41
0.0
42
0.0
10
72.964599609375
20
77.9887008666992
40
0.0
41
0.0
42
0.0
10
72.9763031005859
20
77.9658966064453
40
0.0
41
0.0
42
0.0
10
72.9974975585938
20
77.9378967285156
40
0.0
41
0.0
42
0.0
10
73.0139999389648
20
77.9087982177734
40
0.0
41
0.0
42
0.0
10
73.1794967651367
20
77.4886016845703
40
0.0
41
0.0
42
0.0
10
73.2008972167969
20
77.4470977783203
40
0.0
41
0.0
42
0.0
10
73.370002746582
20
76.9881973266602
40
0.0
41
0.0
42
0.0
10
73.5036010742188
20
76.6883010864258
40
0.0
41
0.0
42
0.0
10
73.5587997436523
20
76.5031967163086
40
0.0
41
0.0
42
0.0
10
73.4929962158203
20
76.4181976318359
40
0.0
41
0.0
42
0.0
10
73.0313034057617
20
76.4797973632812
40
0.0
41
0.0
42
0.0
10
73.0141983032227
20
76.4835968017578
40
0.0
41
0.0
42
0.0
10
72.9657974243164
20
76.5002975463867
40
0.0
41
0.0
42
0.0
10
72.5124969482422
20
76.6984024047852
40
0.0
41
0.0
42
0.0
10
72.0269012451172
20
76.8517990112305
40
0.0
41
0.0
42
0.0
10
71.9813995361328
20
76.875
40
0.0
41
0.0
42
0.0
10
71.6494979858398
20
77.0005035400391
40
0.0
41
0.0
42
0.0
10
71.5344009399414
20
77.0514984130859
40
0.0
41
0.0
42
0.0
10
71.5100021362305
20
77.0691986083984
40
0.0
41
0.0
42
0.0
10
71.0652008056641
20
77.2316970825195
40
0.0
41
0.0
42
0.0
10
71.0096969604492
20
77.2696990966797
40
0.0
41
0.0
42
0.0
10
70.5649032592773
20
77.4613037109375
40
0.0
41
0.0
42
0.0
10
70.5189971923828
20
77.5036010742188
40
0.0
41
0.0
42
0.0
10
70.5085983276367
20
77.511100769043
40
0.0
41
0.0
42
0.0
10
70.4901962280273
20
77.5214004516602
40
0.0
41
0.0
42
0.0
10
70.0112991333008
20
77.7247009277344
40
0.0
41
0.0
42
0.0
10
69.5970001220703
20
77.9212036132812
40
0.0
41
0.0
42
0.0
10
69.50830078125
20
77.9856033325195
40
0.0
41
0.0
42
0.0
10
69.4235992431641
20
78.0365982055664
40
0.0
41
0.0
42
0.0
10
69.0077972412109
20
78.2598037719727
40
0.0
41
0.0
42
0.0
10
68.7333984375
20
78.5047988891602
40
0.0
41
0.0
42
0.0
10
68.5950012207031
20
78.6524963378906
40
0.0
41
0.0
42
0.0
10
68.5639038085938
20
78.6775970458984
40
0.0
41
0.0
42
0.0
10
68.5102996826172
20
78.7012023925781
40
0.0
41
0.0
42
0.0
10
68.4813995361328
20
78.7183990478516
40
0.0
41
0.0
42
0.0
10
68.2829971313477
20
79.0093994140625
40
0.0
41
0.0
42
0.0
10
68.0506973266602
20
79.4929962158203
40
0.0
41
0.0
42
0.0
10
68.0357971191406
20
79.5093994140625
40
0.0
41
0.0
42
0.0
10
67.9999008178711
20
79.6350021362305
40
0.0
41
0.0
42
0.0
10
67.9932022094727
20
79.6529998779297
40
0.0
41
0.0
42
0.0
10
67.9851989746094
20
79.668098449707
40
0.0
41
0.0
42
0.0
10
67.8975982666016
20
80.0156021118164
40
0.0
41
0.0
42
0.0
10
67.8938980102539
20
80.0366973876953
40
0.0
41
0.0
42
0.0
210
0.0
220
0.0
230
1.0
0
LWPOLYLINE
5
28
330
1C
100
AcDbEntity
67
0
8
0
62
256
6
ByLayer
370
-1
48
1.0
60
0
100
AcDbPolyline
90
91
70
1
38
0.0
39
0.0
10
68.4932022094727
20
68.1688003540039
40
0.0
41
0.0
42
0.0
10
68.8355026245117
20
67.9467010498047
40
0.0
41
0.0
42
0.0
10
68.939697265625
20
67.9024963378906
40
0.0
41
0.0
42
0.0
10
68.9841995239258
20
67.8907012939453
40
0.0
41
0.0
42
0.0
10
69.4129028320312
20
67.8246002197266
40
0.0
41
0.0
42
0.0
10
69.519401550293
20
67.8230972290039
40
0.0
41
0.0
42
0.0
10
69.9465026855469
20
67.8533020019531
40
0.0
41
0.0
42
0.0
10
70.0156021118164
20
67.8649978637695
40
0.0
41
0.0
42
0.0
10
70.3303985595703
20
67.9447021484375
40
0.0
41
0.0
42
0.0
10
70.3812026977539
20
67.9716033935547
40
0.0
41
0.0
42
0.0
10
70.4568023681641
20
67.9998016357422
40
0.0
41
0.0
42
0.0
10
70.5094985961914
20
68.0148010253906
40
0.0
41
0.0
42
0.0
10
70.563102722168
20
68.0640029907227
40
0.0
41
0.0
42
0.0
10
71.0093994140625
20
68.2785034179688
40
0.0
41
0.0
42
0.0
10
71.3135986328125
20
68.4871978759766
40
0.0
41
0.0
42
0.0
10
71.322998046875
20
68.5063018798828
40
0.0
41
0.0
42
0.0
10
71.3330001831055
20
68.5186996459961
40
0.0
41
0.0
42
0.0
10
71.5048980712891
20
68.6797027587891
40
0.0
41
0.0
42
0.0
10
71.7837982177734
20
68.9921035766602
40
0.0
41
0.0
42
0.0
10
71.8434982299805
20
69.1032028198242
40
0.0
41
0.0
42
0.0
10
72.0019989013672
20
69.3677978515625
40
0.0
41
0.0
42
0.0
10
72.0780029296875
20
69.4916000366211
40
0.0
41
0.0
42
0.0
10
72.0947036743164
20
69.5146026611328
40
0.0
41
0.0
42
0.0
10
72.3203964233398
20
69.9901962280273
40
0.0
41
0.0
42
0.0
10
72.3298034667969
20
70.0046997070312
40
0.0
41
0.0
42
0.0
10
72.3915023803711
20
70.1583023071289
40
0.0
41
0.0
42
0.0
10
72.500602722168
20
70.4218978881836
40
0.0
41
0.0
42
0.0
10
72.5323028564453
20
70.49169921875
40
0.0
41
0.0
42
0.0
10
72.5464019775391
20
70.5070037841797
40
0.0
41
0.0
42
0.0
10
72.7546005249023
20
70.9901962280273
40
0.0
41
0.0
42
0.0
10
72.7645034790039
20
71.0046997070312
40
0.0
41
0.0
42
0.0
10
72.9417037963867
20
71.4897994995117
40
0.0
41
0.0
42
0.0
10
72.9470977783203
20
71.4973983764648
40
0.0
41
0.0
42
0.0
10
73.0005035400391
20
71.6174011230469
40
0.0
41
0.0
42
0.0
10
73.1355972290039
20
71.9753036499023
40
0.0
41
0.0
42
0.0
10
73.1428985595703
20
71.9884033203125
40
0.0
41
0.0
42
0.0
10
73.2833023071289
20
72.4327011108398
40
0.0
41
0.0
42
0.0
10
73.3104019165039
20
72.4897003173828
40
0.0
41
0.0
42
0.0
10
73.3223037719727
20
72.5102996826172
40
0.0
41
0.0
42
0.0
10
73.493896484375
20
72.9044036865234
40
0.0
41
0.0
42
0.0
10
73.5239028930664
20
72.9850997924805
40
0.0
41
0.0
42
0.0
10
73.5831985473633
20
73.428596496582
40
0.0
41
0.0
42
0.0
10
73.5951995849609
20
73.4822998046875
40
0.0
41
0.0
42
0.0
10
73.595100402832
20
73.5096969604492
40
0.0
41
0.0
42
0.0
10
73.5336990356445
20
73.5574035644531
40
0.0
41
0.0
42
0.0
10
73.5142974853516
20
73.5688018798828
40
0.0
41
0.0
42
0.0
10
73.4830017089844
20
73.5687026977539
40
0.0
41
0.0
42
0.0
10
73.3023986816406
20
73.5149993896484
40
0.0
41
0.0
42
0.0
10
73.2685012817383
20
73.5011978149414
40
0.0
41
0.0
42
0.0
10
73.2500991821289
20
73.4897994995117
40
0.0
41
0.0
42
0.0
10
72.9878997802734
20
73.3732986450195
40
0.0
41
0.0
42
0.0
10
72.5429000854492
20
73.2092971801758
40
0.0
41
0.0
42
0.0
10
72.4880981445312
20
73.1848983764648
40
0.0
41
0.0
42
0.0
10
72.032096862793
20
73.0053024291992
40
0.0
41
0.0
42
0.0
10
72.0179977416992
20
72.9959030151367
40
0.0
41
0.0
42
0.0
10
71.9888000488281
20
72.9807968139648
40
0.0
41
0.0
42
0.0
10
71.5052032470703
20
72.782600402832
40
0.0
41
0.0
42
0.0
10
71.4908981323242
20
72.772102355957
40
0.0
41
0.0
42
0.0
10
71.3383026123047
20
72.6968002319336
40
0.0
41
0.0
42
0.0
10
70.9886016845703
20
72.5418014526367
40
0.0
41
0.0
42
0.0
10
70.5057983398438
20
72.3202972412109
40
0.0
41
0.0
42
0.0
10
70.4915008544922
20
72.3089981079102
40
0.0
41
0.0
42
0.0
10
70.306999206543
20
72.2097015380859
40
0.0
41
0.0
42
0.0
10
69.9896011352539
20
72.0550994873047
40
0.0
41
0.0
42
0.0
10
69.8928985595703
20
72.0014038085938
40
0.0
41
0.0
42
0.0
10
69.8065032958984
20
71.9571990966797
40
0.0
41
0.0
42
0.0
10
69.491096496582
20
71.7885971069336
40
0.0
41
0.0
42
0.0
10
69.0990982055664
20
71.5024032592773
40
0.0
41
0.0
42
0.0
10
69.0744018554688
20
71.4877014160156
40
0.0
41
0.0
42
0.0
10
69.0073013305664
20
71.4318008422852
40
0.0
41
0.0
42
0.0
10
68.9937973022461
20
71.4229965209961
40
0.0
41
0.0
42
0.0
10
68.6196975708008
20
71.0050964355469
40
0.0
41
0.0
42
0.0
10
68.6088027954102
20
70.9953002929688
40
0.0
41
0.0
42
0.0
10
68.5997009277344
20
70.9896011352539
40
0.0
41
0.0
42
0.0
10
68.4981002807617
20
70.8358001708984
40
0.0
41
0.0
42
0.0
10
68.3311996459961
20
70.5083999633789
40
0.0
41
0.0
42
0.0
10
68.3200988769531
20
70.4946975708008
40
0.0
41
0.0
42
0.0
10
68.1639022827148
20
70.0151977539062
40
0.0
41
0.0
42
0.0
10
68.1016998291016
20
69.568603515625
40
0.0
41
0.0
42
0.0
10
68.0833969116211
20
69.5322036743164
40
0.0
41
0.0
42
0.0
10
68.0779037475586
20
69.5162963867188
40
0.0
41
0.0
42
0.0
10
68.0777969360352
20
69.480598449707
40
0.0
41
0.0
42
0.0
10
68.1026992797852
20
69.0962982177734
40
0.0
41
0.0
42
0.0
10
68.0960006713867
20
69.0189971923828
40
0.0
41
0.0
42
0.0
10
68.0959014892578
20
68.9835968017578
40
0.0
41
0.0
42
0.0
10
68.2289962768555
20
68.6115036010742
40
0.0
41
0.0
42
0.0
10
68.2548980712891
20
68.4856033325195
40
0.0
41
0.0
42
0.0
10
68.2707977294922
20
68.4409027099609
40
0.0
41
0.0
42
0.0
10
68.443000793457
20
68.2213973999023
40
0.0
41
0.0
42
0.0
10
68.4449996948242
20
68.2169036865234
40
0.0
41
0.0
42
0.0
10
68.4932022094727
20
68.1688003540039
40
0.0
41
0.0
42
0.0
210
0.0
220
0.0
230
1.0
0
LWPOLYLINE
5
29
330
1C
100
AcDbEntity
67
0
8
0
62
256
6
ByLayer
370
-1
48
1.0
60
0
100
AcDbPolyline
90
82
70
1
38
0.0
39
0.0
10
68.2845001220703
20
68.5485000610352
40
0.0
41
0.0
42
0.0
10
68.119499206543
20
69.0101013183594
40
0.0
41
0.0
42
0.0
10
68.1194000244141
20
69.0447998046875
40
0.0
41
0.0
42
0.0
10
68.0905990600586
20
69.4900970458984
40
0.0
41
0.0
42
0.0
10
68.0960998535156
20
69.5012969970703
40
0.0
41
0.0
42
0.0
10
68.1634979248047
20
69.9847030639648
40
0.0
41
0.0
42
0.0
10
68.3100967407227
20
70.4365997314453
40
0.0
41
0.0
42
0.0
10
68.3487014770508
20
70.4816970825195
40
0.0
41
0.0
42
0.0
10
68.3544006347656
20
70.4905014038086
40
0.0
41
0.0
42
0.0
10
68.5025024414062
20
70.7809982299805
40
0.0
41
0.0
42
0.0
10
68.5164031982422
20
70.7958984375
40
0.0
41
0.0
42
0.0
10
68.6107025146484
20
70.940299987793
40
0.0
41
0.0
42
0.0
10
68.6549987792969
20
70.9682998657227
40
0.0
41
0.0
42
0.0
10
68.6845016479492
20
70.9947967529297
40
0.0
41
0.0
42
0.0
10
69.0062026977539
20
71.3539962768555
40
0.0
41
0.0
42
0.0
10
69.0616989135742
20
71.3902969360352
40
0.0
41
0.0
42
0.0
10
69.1240005493164
20
71.4421005249023
40
0.0
41
0.0
42
0.0
10
69.2170028686523
20
71.4974975585938
40
0.0
41
0.0
42
0.0
10
69.5086975097656
20
71.7105026245117
40
0.0
41
0.0
42
0.0
10
69.7453994750977
20
71.8370971679688
40
0.0
41
0.0
42
0.0
10
69.9560012817383
20
71.9445037841797
40
0.0
41
0.0
42
0.0
10
70.0466995239258
20
71.9981994628906
40
0.0
41
0.0
42
0.0
10
70.5083999633789
20
72.2468032836914
40
0.0
41
0.0
42
0.0
10
70.5632019042969
20
72.2900009155273
40
0.0
41
0.0
42
0.0
10
70.9003982543945
20
72.4446029663086
40
0.0
41
0.0
42
0.0
10
71.008903503418
20
72.4922027587891
40
0.0
41
0.0
42
0.0
10
71.0156021118164
20
72.4977035522461
40
0.0
41
0.0
42
0.0
10
71.5091018676758
20
72.7412033081055
40
0.0
41
0.0
42
0.0
10
71.564697265625
20
72.7816009521484
40
0.0
41
0.0
42
0.0
10
72.011100769043
20
72.964599609375
40
0.0
41
0.0
42
0.0
10
72.0337982177734
20
72.9764022827148
40
0.0
41
0.0
42
0.0
10
72.061897277832
20
72.9974975585938
40
0.0
41
0.0
42
0.0
10
72.0910034179688
20
73.0139999389648
40
0.0
41
0.0
42
0.0
10
72.5112991333008
20
73.1794967651367
40
0.0
41
0.0
42
0.0
10
72.5528030395508
20
73.2008972167969
40
0.0
41
0.0
42
0.0
10
73.0121002197266
20
73.3703002929688
40
0.0
41
0.0
42
0.0
10
73.3115005493164
20
73.5037002563477
40
0.0
41
0.0
42
0.0
10
73.4965972900391
20
73.5587005615234
40
0.0
41
0.0
42
0.0
10
73.5802001953125
20
73.4937973022461
40
0.0
41
0.0
42
0.0
10
73.5162963867188
20
73.0150985717773
40
0.0
41
0.0
42
0.0
10
73.4994964599609
20
72.9658966064453
40
0.0
41
0.0
42
0.0
10
73.3040008544922
20
72.5167007446289
40
0.0
41
0.0
42
0.0
10
73.2940979003906
20
72.4970016479492
40
0.0
41
0.0
42
0.0
10
73.1408004760742
20
72.0118026733398
40
0.0
41
0.0
42
0.0
10
73.1246032714844
20
71.9813003540039
40
0.0
41
0.0
42
0.0
10
72.9992980957031
20
71.6494979858398
40
0.0
41
0.0
42
0.0
10
72.9481964111328
20
71.5344009399414
40
0.0
41
0.0
42
0.0
10
72.9304962158203
20
71.5100021362305
40
0.0
41
0.0
42
0.0
10
72.7679977416992
20
71.065299987793
40
0.0
41
0.0
42
0.0
10
72.7298965454102
20
71.0098037719727
40
0.0
41
0.0
42
0.0
10
72.5383987426758
20
70.5650024414062
40
0.0
41
0.0
42
0.0
10
72.4962005615234
20
70.5189971923828
40
0.0
41
0.0
42
0.0
10
72.4893035888672
20
70.5096969604492
40
0.0
41
0.0
42
0.0
10
72.3104019165039
20
70.0652008056641
40
0.0
41
0.0
42
0.0
10
72.2742004394531
20
70.0096969604492
40
0.0
41
0.0
42
0.0
10
72.078498840332
20
69.5970993041992
40
0.0
41
0.0
42
0.0
10
72.0140991210938
20
69.5083999633789
40
0.0
41
0.0
42
0.0
10
71.9629974365234
20
69.423698425293
40
0.0
41
0.0
42
0.0
10
71.7695007324219
20
69.0652008056641
40
0.0
41
0.0
42
0.0
10
71.7400970458984
20
69.0080032348633
40
0.0
41
0.0
42
0.0
10
71.495002746582
20
68.7334976196289
40
0.0
41
0.0
42
0.0
10
71.347297668457
20
68.5950012207031
40
0.0
41
0.0
42
0.0
10
71.3220977783203
20
68.5639038085938
40
0.0
41
0.0
42
0.0
10
71.2985000610352
20
68.5102996826172
40
0.0
41
0.0
42
0.0
10
71.2813034057617
20
68.4814987182617
40
0.0
41
0.0
42
0.0
10
70.9905014038086
20
68.2830963134766
40
0.0
41
0.0
42
0.0
10
70.5078964233398
20
68.0513000488281
40
0.0
41
0.0
42
0.0
10
70.4903030395508
20
68.0357971191406
40
0.0
41
0.0
42
0.0
10
70.3647994995117
20
68.0
40
0.0
41
0.0
42
0.0
10
70.3468017578125
20
67.9932022094727
40
0.0
41
0.0
42
0.0
10
70.3317031860352
20
67.9851989746094
40
0.0
41
0.0
42
0.0
10
69.9842987060547
20
67.8974990844727
40
0.0
41
0.0
42
0.0
10
69.9630966186523
20
67.8938980102539
40
0.0
41
0.0
42
0.0
10
69.4955978393555
20
67.8608016967773
40
0.0
41
0.0
42
0.0
10
69.0156021118164
20
67.9348983764648
40
0.0
41
0.0
42
0.0
10
69.0002975463867
20
67.9387969970703
40
0.0
41
0.0
42
0.0
10
68.8868026733398
20
67.9869995117188
40
0.0
41
0.0
42
0.0
10
68.5065994262695
20
68.2341995239258
40
0.0
41
0.0
42
0.0
10
68.4897994995117
20
68.2509002685547
40
0.0
41
0.0
42
0.0
10
68.2981033325195
20
68.4962005615234
40
0.0
41
0.0
42
0.0
10
68.2916030883789
20
68.5142974853516
40
0.0
41
0.0
42
0.0
10
68.2845001220703
20
68.5485000610352
40
0.0
41
0.0
42
0.0
210
0.0
220
0.0
230
1.0
0
LWPOLYLINE
5
2A
330
1C
100
AcDbEntity
67
0
8
0
62
256
6
ByLayer
370
-1
48
1.0
60
0
100
AcDbPolyline
90
78
70
1
38
0.0
39
0.0
10
73.0394973754883
20
81.4999008178711
40
0.0
41
0.0
42
0.0
10
73.0451965332031
20
81.486198425293
40
0.0
41
0.0
42
0.0
10
73.1470031738281
20
81.0009002685547
40
0.0
41
0.0
42
0.0
10
73.1703033447266
20
80.9411010742188
40
0.0
41
0.0
42
0.0
10
73.3171005249023
20
80.4877014160156
40
0.0
41
0.0
42
0.0
10
73.499397277832
20
80.1056976318359
40
0.0
41
0.0
42
0.0
10
73.5337982177734
20
79.9999008178711
40
0.0
41
0.0
42
0.0
10
73.5386962890625
20
79.9701995849609
40
0.0
41
0.0
42
0.0
10
73.7108001708984
20
79.4877014160156
40
0.0
41
0.0
42
0.0
10
73.928596496582
20
79.0016021728516
40
0.0
41
0.0
42
0.0
10
73.9317016601562
20
78.9881973266602
40
0.0
41
0.0
42
0.0
10
74.0
20
78.8827972412109
40
0.0
41
0.0
42
0.0
10
74.1605987548828
20
78.5018005371094
40
0.0
41
0.0
42
0.0
10
74.1799011230469
20
78.431999206543
40
0.0
41
0.0
42
0.0
10
74.3772964477539
20
77.9891967773438
40
0.0
41
0.0
42
0.0
10
74.4781036376953
20
77.802001953125
40
0.0
41
0.0
42
0.0
10
74.4984970092773
20
77.7481994628906
40
0.0
41
0.0
42
0.0
10
74.6830978393555
20
77.4918975830078
40
0.0
41
0.0
42
0.0
10
74.7209014892578
20
77.4356002807617
40
0.0
41
0.0
42
0.0
10
74.9520034790039
20
76.9881973266602
40
0.0
41
0.0
42
0.0
10
74.9949035644531
20
76.8630981445312
40
0.0
41
0.0
42
0.0
10
75.0038986206055
20
76.8630981445312
40
0.0
41
0.0
42
0.0
10
75.0229034423828
20
76.9336013793945
40
0.0
41
0.0
42
0.0
10
75.0345001220703
20
76.9859008789062
40
0.0
41
0.0
42
0.0
10
75.1977005004883
20
77.4316024780273
40
0.0
41
0.0
42
0.0
10
75.2144012451172
20
77.4878005981445
40
0.0
41
0.0
42
0.0
10
75.4425964355469
20
77.9338989257812
40
0.0
41
0.0
42
0.0
10
75.4583969116211
20
77.9709014892578
40
0.0
41
0.0
42
0.0
10
75.4665985107422
20
77.9970016479492
40
0.0
41
0.0
42
0.0
10
75.5009994506836
20
78.0643997192383
40
0.0
41
0.0
42
0.0
10
75.6945037841797
20
78.4821014404297
40
0.0
41
0.0
42
0.0
10
75.8795013427734
20
78.9698028564453
40
0.0
41
0.0
42
0.0
10
75.88330078125
20
78.9997024536133
40
0.0
41
0.0
42
0.0
10
76.000602722168
20
79.3430023193359
40
0.0
41
0.0
42
0.0
10
76.0793991088867
20
79.4881973266602
40
0.0
41
0.0
42
0.0
10
76.0896987915039
20
79.5206985473633
40
0.0
41
0.0
42
0.0
10
76.2667999267578
20
79.9860992431641
40
0.0
41
0.0
42
0.0
10
76.2723007202148
20
80.0093994140625
40
0.0
41
0.0
42
0.0
10
76.4173965454102
20
80.4857025146484
40
0.0
41
0.0
42
0.0
10
76.5
20
80.798698425293
40
0.0
41
0.0
42
0.0
10
76.5771026611328
20
80.9873962402344
40
0.0
41
0.0
42
0.0
10
76.5960006713867
20
81.0420989990234
40
0.0
41
0.0
42
0.0
10
76.7059020996094
20
81.5197982788086
40
0.0
41
0.0
42
0.0
10
76.7315979003906
20
82.0121994018555
40
0.0
41
0.0
42
0.0
10
76.7314987182617
20
82.0501022338867
40
0.0
41
0.0
42
0.0
10
76.6643981933594
20
82.5149002075195
40
0.0
41
0.0
42
0.0
10
76.494499206543
20
82.9964981079102
40
0.0
41
0.0
42
0.0
10
76.4943008422852
20
83.0141983032227
40
0.0
41
0.0
42
0.0
10
76.2199020385742
20
83.4851989746094
40
0.0
41
0.0
42
0.0
10
76.2154006958008
20
83.5139007568359
40
0.0
41
0.0
42
0.0
10
76.1929016113281
20
83.5639038085938
40
0.0
41
0.0
42
0.0
10
76.0047988891602
20
83.8003005981445
40
0.0
41
0.0
42
0.0
10
75.7780990600586
20
84.0037994384766
40
0.0
41
0.0
42
0.0
10
75.5745010375977
20
84.1650009155273
40
0.0
41
0.0
42
0.0
10
75.5082015991211
20
84.2333984375
40
0.0
41
0.0
42
0.0
10
75.0841979980469
20
84.3880996704102
40
0.0
41
0.0
42
0.0
10
75.0155029296875
20
84.4185028076172
40
0.0
41
0.0
42
0.0
10
74.9807968139648
20
84.4184036254883
40
0.0
41
0.0
42
0.0
10
74.6743011474609
20
84.394401550293
40
0.0
41
0.0
42
0.0
10
74.4856033325195
20
84.3881988525391
40
0.0
41
0.0
42
0.0
10
74.1640014648438
20
84.2146987915039
40
0.0
41
0.0
42
0.0
10
73.9919967651367
20
84.1335983276367
40
0.0
41
0.0
42
0.0
10
73.9412994384766
20
84.0849990844727
40
0.0
41
0.0
42
0.0
10
73.9084014892578
20
84.0596008300781
40
0.0
41
0.0
42
0.0
10
73.8621978759766
20
84.0059967041016
40
0.0
41
0.0
42
0.0
10
73.4961013793945
20
83.6033020019531
40
0.0
41
0.0
42
0.0
10
73.4656982421875
20
83.5641021728516
40
0.0
41
0.0
42
0.0
10
73.4434967041016
20
83.5140991210938
40
0.0
41
0.0
42
0.0
10
73.435302734375
20
83.4581985473633
40
0.0
41
0.0
42
0.0
10
73.1946029663086
20
83.0146026611328
40
0.0
41
0.0
42
0.0
10
73.1945037841797
20
82.9813003540039
40
0.0
41
0.0
42
0.0
10
73.1976013183594
20
82.956901550293
40
0.0
41
0.0
42
0.0
10
73.0550003051758
20
82.5166015625
40
0.0
41
0.0
42
0.0
10
73.0549011230469
20
82.4833984375
40
0.0
41
0.0
42
0.0
10
73.0569000244141
20
82.4774017333984
40
0.0
41
0.0
42
0.0
10
73.0055999755859
20
82.018798828125
40
0.0
41
0.0
42
0.0
10
73.005500793457
20
81.9806976318359
40
0.0
41
0.0
42
0.0
10
73.0394973754883
20
81.4999008178711
40
0.0
41
0.0
42
0.0
210
0.0
220
0.0
230
1.0
0
LWPOLYLINE
5
2B
330
1C
100
AcDbEntity
67
0
8
0
62
256
6
ByLayer
370
-1
48
1.0
60
0
100
AcDbPolyline
90
75
70
1
38
0.0
39
0.0
10
73.0251007080078
20
81.9962005615234
40
0.0
41
0.0
42
0.0
10
73.0735015869141
20
82.4261016845703
40
0.0
41
0.0
42
0.0
10
73.0734024047852
20
82.4616012573242
40
0.0
41
0.0
42
0.0
10
73.0607986450195
20
82.5
40
0.0
41
0.0
42
0.0
10
73.2003021240234
20
82.9309005737305
40
0.0
41
0.0
42
0.0
10
73.2101974487305
20
82.9676971435547
40
0.0
41
0.0
42
0.0
10
73.2100982666016
20
82.9888000488281
40
0.0
41
0.0
42
0.0
10
73.4721984863281
20
83.4718017578125
40
0.0
41
0.0
42
0.0
10
73.4744033813477
20
83.4859008789062
40
0.0
41
0.0
42
0.0
10
73.4831008911133
20
83.5055999755859
40
0.0
41
0.0
42
0.0
10
73.5037002563477
20
83.5334014892578
40
0.0
41
0.0
42
0.0
10
73.9365997314453
20
84.010498046875
40
0.0
41
0.0
42
0.0
10
73.946403503418
20
84.0179977416992
40
0.0
41
0.0
42
0.0
10
74.0078964233398
20
84.0766983032227
40
0.0
41
0.0
42
0.0
10
74.0580978393555
20
84.1004028320312
40
0.0
41
0.0
42
0.0
10
74.5143966674805
20
84.3464965820312
40
0.0
41
0.0
42
0.0
10
74.571403503418
20
84.3483963012695
40
0.0
41
0.0
42
0.0
10
74.988899230957
20
84.381103515625
40
0.0
41
0.0
42
0.0
10
75.49169921875
20
84.1967010498047
40
0.0
41
0.0
42
0.0
10
75.5127029418945
20
84.1748962402344
40
0.0
41
0.0
42
0.0
10
75.7388000488281
20
83.9960021972656
40
0.0
41
0.0
42
0.0
10
75.996696472168
20
83.7639007568359
40
0.0
41
0.0
42
0.0
10
76.2016983032227
20
83.5059967041016
40
0.0
41
0.0
42
0.0
10
76.2107009887695
20
83.4860000610352
40
0.0
41
0.0
42
0.0
10
76.2132034301758
20
83.4694976806641
40
0.0
41
0.0
42
0.0
10
76.2238006591797
20
83.4332962036133
40
0.0
41
0.0
42
0.0
10
76.4816970825195
20
82.9906997680664
40
0.0
41
0.0
42
0.0
10
76.4788970947266
20
82.9638977050781
40
0.0
41
0.0
42
0.0
10
76.4791030883789
20
82.9279022216797
40
0.0
41
0.0
42
0.0
10
76.635498046875
20
82.4850006103516
40
0.0
41
0.0
42
0.0
10
76.6893997192383
20
82.1115036010742
40
0.0
41
0.0
42
0.0
10
76.6818008422852
20
82.0186004638672
40
0.0
41
0.0
42
0.0
10
76.6635971069336
20
81.6526031494141
40
0.0
41
0.0
42
0.0
10
76.5637969970703
20
81.2204971313477
40
0.0
41
0.0
42
0.0
10
76.5
20
81.0363006591797
40
0.0
41
0.0
42
0.0
10
76.3615036010742
20
80.5141983032227
40
0.0
41
0.0
42
0.0
10
76.2360000610352
20
80.1026992797852
40
0.0
41
0.0
42
0.0
10
76.2153015136719
20
80.013801574707
40
0.0
41
0.0
42
0.0
10
76.0720977783203
20
79.6371002197266
40
0.0
41
0.0
42
0.0
10
76.0319976806641
20
79.5117034912109
40
0.0
41
0.0
42
0.0
10
75.9991989135742
20
79.4511032104492
40
0.0
41
0.0
42
0.0
10
75.8676986694336
20
79.0706024169922
40
0.0
41
0.0
42
0.0
10
75.8632965087891
20
79.0174026489258
40
0.0
41
0.0
42
0.0
10
75.8541030883789
20
78.9595031738281
40
0.0
41
0.0
42
0.0
10
75.6843032836914
20
78.5131988525391
40
0.0
41
0.0
42
0.0
10
75.6775970458984
20
78.4905014038086
40
0.0
41
0.0
42
0.0
10
75.4989013671875
20
78.1046981811523
40
0.0
41
0.0
42
0.0
10
75.4683990478516
20
78.0450973510742
40
0.0
41
0.0
42
0.0
10
75.4469985961914
20
77.9755020141602
40
0.0
41
0.0
42
0.0
10
75.2098007202148
20
77.5115966796875
40
0.0
41
0.0
42
0.0
10
75.0286026000977
20
77.013801574707
40
0.0
41
0.0
42
0.0
10
75.0087966918945
20
76.9356002807617
40
0.0
41
0.0
42
0.0
10
74.9898986816406
20
76.9347991943359
40
0.0
41
0.0
42
0.0
10
74.9636993408203
20
77.0117034912109
40
0.0
41
0.0
42
0.0
10
74.7146987915039
20
77.493896484375
40
0.0
41
0.0
42
0.0
10
74.5011978149414
20
77.7912979125977
40
0.0
41
0.0
42
0.0
10
74.4951019287109
20
77.8076019287109
40
0.0
41
0.0
42
0.0
10
74.3852005004883
20
78.0119018554688
40
0.0
41
0.0
42
0.0
10
74.1689987182617
20
78.496696472168
40
0.0
41
0.0
42
0.0
10
74.1516036987305
20
78.5682983398438
40
0.0
41
0.0
42
0.0
10
74.0064010620117
20
78.9131011962891
40
0.0
41
0.0
42
0.0
10
74.0016021728516
20
78.9228973388672
40
0.0
41
0.0
42
0.0
10
73.9434967041016
20
79.0115966796875
40
0.0
41
0.0
42
0.0
10
73.9309997558594
20
79.0682983398438
40
0.0
41
0.0
42
0.0
10
73.7320022583008
20
79.5121002197266
40
0.0
41
0.0
42
0.0
10
73.5725021362305
20
79.959602355957
40
0.0
41
0.0
42
0.0
10
73.5539016723633
20
80.0699005126953
40
0.0
41
0.0
42
0.0
10
73.5003967285156
20
80.2330017089844
40
0.0
41
0.0
42
0.0
10
73.3672027587891
20
80.5121002197266
40
0.0
41
0.0
42
0.0
10
73.2593994140625
20
80.8448028564453
40
0.0
41
0.0
42
0.0
10
73.1968994140625
20
81.0121002197266
40
0.0
41
0.0
42
0.0
10
73.1724014282227
20
81.0684967041016
40
0.0
41
0.0
42
0.0
10
73.0790023803711
20
81.5136032104492
40
0.0
41
0.0
42
0.0
10
73.0551986694336
20
81.5699996948242
40
0.0
41
0.0
42
0.0
10
73.0251007080078
20
81.9962005615234
40
0.0
41
0.0
42
0.0
210
0.0
220
0.0
230
1.0
0
LWPOLYLINE
5
2C
330
1C
100
AcDbEntity
67
0
8
0
62
256
6
ByLayer
370
-1
48
1.0
60
0
100
AcDbPolyline
90
83
70
1
38
0.0
39
0.0
10
73.3352966308594
20
67.4850006103516
40
0.0
41
0.0
42
0.0
10
73.505500793457
20
67.0028991699219
40
0.0
41
0.0
42
0.0
10
73.5054016113281
20
66.9815979003906
40
0.0
41
0.0
42
0.0
10
73.5071029663086
20
66.9710006713867
40
0.0
41
0.0
42
0.0
10
73.5233993530273
20
66.9345016479492
40
0.0
41
0.0
42
0.0
10
73.7826995849609
20
66.4896011352539
40
0.0
41
0.0
42
0.0
10
73.8069000244141
20
66.4358978271484
40
0.0
41
0.0
42
0.0
10
73.9953002929688
20
66.1992034912109
40
0.0
41
0.0
42
0.0
10
74.2229995727539
20
65.9946975708008
40
0.0
41
0.0
42
0.0
10
74.2297973632812
20
65.9870986938477
40
0.0
41
0.0
42
0.0
10
74.4393997192383
20
65.8211975097656
40
0.0
41
0.0
42
0.0
10
74.481201171875
20
65.774299621582
40
0.0
41
0.0
42
0.0
10
74.4904022216797
20
65.7667007446289
40
0.0
41
0.0
42
0.0
10
74.9156036376953
20
65.6116027832031
40
0.0
41
0.0
42
0.0
10
74.9843978881836
20
65.5813980102539
40
0.0
41
0.0
42
0.0
10
75.0190963745117
20
65.581298828125
40
0.0
41
0.0
42
0.0
10
75.3255004882812
20
65.6053009033203
40
0.0
41
0.0
42
0.0
10
75.5142974853516
20
65.6115036010742
40
0.0
41
0.0
42
0.0
10
75.8358001708984
20
65.7850036621094
40
0.0
41
0.0
42
0.0
10
76.0091018676758
20
65.86669921875
40
0.0
41
0.0
42
0.0
10
76.0366973876953
20
65.8874969482422
40
0.0
41
0.0
42
0.0
10
76.1147994995117
20
65.9641036987305
40
0.0
41
0.0
42
0.0
10
76.1372985839844
20
65.9934997558594
40
0.0
41
0.0
42
0.0
10
76.5037994384766
20
66.3964996337891
40
0.0
41
0.0
42
0.0
10
76.5339965820312
20
66.4357986450195
40
0.0
41
0.0
42
0.0
10
76.5577011108398
20
66.4891967773438
40
0.0
41
0.0
42
0.0
10
76.7977981567383
20
66.9317016601562
40
0.0
41
0.0
42
0.0
10
76.8057022094727
20
66.9848022460938
40
0.0
41
0.0
42
0.0
10
76.9495010375977
20
67.4282989501953
40
0.0
41
0.0
42
0.0
10
76.9494018554688
20
67.4642028808594
40
0.0
41
0.0
42
0.0
10
76.9468002319336
20
67.5017013549805
40
0.0
41
0.0
42
0.0
10
76.943000793457
20
67.5241012573242
40
0.0
41
0.0
42
0.0
10
76.9943008422852
20
67.9811019897461
40
0.0
41
0.0
42
0.0
10
76.9942016601562
20
68.0192031860352
40
0.0
41
0.0
42
0.0
10
76.9601974487305
20
68.5
40
0.0
41
0.0
42
0.0
10
76.9543991088867
20
68.5137023925781
40
0.0
41
0.0
42
0.0
10
76.8526992797852
20
68.9989013671875
40
0.0
41
0.0
42
0.0
10
76.8293991088867
20
69.0587005615234
40
0.0
41
0.0
42
0.0
10
76.682502746582
20
69.5121002197266
40
0.0
41
0.0
42
0.0
10
76.5003967285156
20
69.8939971923828
40
0.0
41
0.0
42
0.0
10
76.4660034179688
20
69.9998016357422
40
0.0
41
0.0
42
0.0
10
76.4634017944336
20
70.0145034790039
40
0.0
41
0.0
42
0.0
10
76.2902984619141
20
70.4998016357422
40
0.0
41
0.0
42
0.0
10
76.2881011962891
20
70.5139007568359
40
0.0
41
0.0
42
0.0
10
76.0710983276367
20
70.9982986450195
40
0.0
41
0.0
42
0.0
10
76.068000793457
20
71.0115966796875
40
0.0
41
0.0
42
0.0
10
75.9997024536133
20
71.1168975830078
40
0.0
41
0.0
42
0.0
10
75.8388977050781
20
71.4984970092773
40
0.0
41
0.0
42
0.0
10
75.8356018066406
20
71.513298034668
40
0.0
41
0.0
42
0.0
10
75.6369018554688
20
71.9591979980469
40
0.0
41
0.0
42
0.0
10
75.621696472168
20
72.0119018554688
40
0.0
41
0.0
42
0.0
10
75.5214996337891
20
72.1977996826172
40
0.0
41
0.0
42
0.0
10
75.5011978149414
20
72.2515029907227
40
0.0
41
0.0
42
0.0
10
75.3159027099609
20
72.508903503418
40
0.0
41
0.0
42
0.0
10
75.0859985351562
20
72.9542007446289
40
0.0
41
0.0
42
0.0
10
75.0481033325195
20
73.010498046875
40
0.0
41
0.0
42
0.0
10
75.0048980712891
20
73.1368026733398
40
0.0
41
0.0
42
0.0
10
74.9960021972656
20
73.1368026733398
40
0.0
41
0.0
42
0.0
10
74.9767990112305
20
73.0662002563477
40
0.0
41
0.0
42
0.0
10
74.9654006958008
20
73.0147018432617
40
0.0
41
0.0
42
0.0
10
74.9487991333008
20
72.9583969116211
40
0.0
41
0.0
42
0.0
10
74.7856979370117
20
72.5130004882812
40
0.0
41
0.0
42
0.0
10
74.7741012573242
20
72.4783020019531
40
0.0
41
0.0
42
0.0
10
74.5357971191406
20
72.0122985839844
40
0.0
41
0.0
42
0.0
10
74.5334014892578
20
72.0031967163086
40
0.0
41
0.0
42
0.0
10
74.4988021850586
20
71.9355010986328
40
0.0
41
0.0
42
0.0
10
74.3062973022461
20
71.5199966430664
40
0.0
41
0.0
42
0.0
10
74.302001953125
20
71.4990997314453
40
0.0
41
0.0
42
0.0
10
74.1178970336914
20
71.0151977539062
40
0.0
41
0.0
42
0.0
10
74.1166000366211
20
71.000602722168
40
0.0
41
0.0
42
0.0
10
73.9991989135742
20
70.6567993164062
40
0.0
41
0.0
42
0.0
10
73.9205017089844
20
70.5117034912109
40
0.0
41
0.0
42
0.0
10
73.9101028442383
20
70.4791030883789
40
0.0
41
0.0
42
0.0
10
73.7329025268555
20
70.013801574707
40
0.0
41
0.0
42
0.0
10
73.7275009155273
20
69.9904022216797
40
0.0
41
0.0
42
0.0
10
73.5823974609375
20
69.5141983032227
40
0.0
41
0.0
42
0.0
10
73.4999008178711
20
69.2011032104492
40
0.0
41
0.0
42
0.0
10
73.4226989746094
20
69.0124969482422
40
0.0
41
0.0
42
0.0
10
73.4037017822266
20
68.9578018188477
40
0.0
41
0.0
42
0.0
10
73.2938003540039
20
68.4800033569336
40
0.0
41
0.0
42
0.0
10
73.2683029174805
20
67.9876022338867
40
0.0
41
0.0
42
0.0
10
73.2682037353516
20
67.9521026611328
40
0.0
41
0.0
42
0.0
10
73.3352966308594
20
67.4850006103516
40
0.0
41
0.0
42
0.0
210
0.0
220
0.0
230
1.0
0
LWPOLYLINE
5
2D
330
1C
100
AcDbEntity
67
0
8
0
62
256
6
ByLayer
370
-1
48
1.0
60
0
100
AcDbPolyline
90
76
70
1
38
0.0
39
0.0
10
73.3179016113281
20
67.9813003540039
40
0.0
41
0.0
42
0.0
10
73.3360977172852
20
68.347297668457
40
0.0
41
0.0
42
0.0
10
73.4358978271484
20
68.779296875
40
0.0
41
0.0
42
0.0
10
73.4999008178711
20
68.9635009765625
40
0.0
41
0.0
42
0.0
10
73.6381988525391
20
69.4857025146484
40
0.0
41
0.0
42
0.0
10
73.7637023925781
20
69.897102355957
40
0.0
41
0.0
42
0.0
10
73.7845001220703
20
69.9860992431641
40
0.0
41
0.0
42
0.0
10
73.9276962280273
20
70.3627014160156
40
0.0
41
0.0
42
0.0
10
73.9676971435547
20
70.4881973266602
40
0.0
41
0.0
42
0.0
10
74.000602722168
20
70.5487976074219
40
0.0
41
0.0
42
0.0
10
74.1320037841797
20
70.9292984008789
40
0.0
41
0.0
42
0.0
10
74.1365966796875
20
70.9847030639648
40
0.0
41
0.0
42
0.0
10
74.3061981201172
20
71.4303970336914
40
0.0
41
0.0
42
0.0
10
74.3147964477539
20
71.4847030639648
40
0.0
41
0.0
42
0.0
10
74.3221969604492
20
71.5093002319336
40
0.0
41
0.0
42
0.0
10
74.5009994506836
20
71.8953018188477
40
0.0
41
0.0
42
0.0
10
74.5310974121094
20
71.9544982910156
40
0.0
41
0.0
42
0.0
10
74.540397644043
20
71.9876022338867
40
0.0
41
0.0
42
0.0
10
74.7686996459961
20
72.4337997436523
40
0.0
41
0.0
42
0.0
10
74.7841033935547
20
72.4711990356445
40
0.0
41
0.0
42
0.0
10
74.9666976928711
20
72.9712982177734
40
0.0
41
0.0
42
0.0
10
74.9915008544922
20
73.0643997192383
40
0.0
41
0.0
42
0.0
10
75.0100021362305
20
73.0650024414062
40
0.0
41
0.0
42
0.0
10
75.0355987548828
20
72.9893035888672
40
0.0
41
0.0
42
0.0
10
75.0447998046875
20
72.9756011962891
40
0.0
41
0.0
42
0.0
10
75.2949981689453
20
72.4908981323242
40
0.0
41
0.0
42
0.0
10
75.4985961914062
20
72.2083969116211
40
0.0
41
0.0
42
0.0
10
75.5046005249023
20
72.1921005249023
40
0.0
41
0.0
42
0.0
10
75.6146011352539
20
71.9879989624023
40
0.0
41
0.0
42
0.0
10
75.6193008422852
20
71.9720993041992
40
0.0
41
0.0
42
0.0
10
75.8352966308594
20
71.4866027832031
40
0.0
41
0.0
42
0.0
10
75.8480987548828
20
71.431396484375
40
0.0
41
0.0
42
0.0
10
75.9933013916016
20
71.086799621582
40
0.0
41
0.0
42
0.0
10
75.9981002807617
20
71.0768966674805
40
0.0
41
0.0
42
0.0
10
76.0561981201172
20
70.9881973266602
40
0.0
41
0.0
42
0.0
10
76.0687026977539
20
70.9316024780273
40
0.0
41
0.0
42
0.0
10
76.2685012817383
20
70.4859008789062
40
0.0
41
0.0
42
0.0
10
76.2769012451172
20
70.4300994873047
40
0.0
41
0.0
42
0.0
10
76.4355010986328
20
69.9853973388672
40
0.0
41
0.0
42
0.0
10
76.4457015991211
20
69.9300994873047
40
0.0
41
0.0
42
0.0
10
76.499397277832
20
69.7667999267578
40
0.0
41
0.0
42
0.0
10
76.6324996948242
20
69.4877014160156
40
0.0
41
0.0
42
0.0
10
76.7403030395508
20
69.154899597168
40
0.0
41
0.0
42
0.0
10
76.8026962280273
20
68.9878005981445
40
0.0
41
0.0
42
0.0
10
76.8274002075195
20
68.931396484375
40
0.0
41
0.0
42
0.0
10
76.9207000732422
20
68.486198425293
40
0.0
41
0.0
42
0.0
10
76.9445037841797
20
68.4299011230469
40
0.0
41
0.0
42
0.0
10
76.9746017456055
20
68.0036010742188
40
0.0
41
0.0
42
0.0
10
76.9264984130859
20
67.5737991333008
40
0.0
41
0.0
42
0.0
10
76.926399230957
20
67.5382995605469
40
0.0
41
0.0
42
0.0
10
76.943603515625
20
67.4859008789062
40
0.0
41
0.0
42
0.0
10
76.7910003662109
20
67.0151977539062
40
0.0
41
0.0
42
0.0
10
76.7885971069336
20
66.9981994628906
40
0.0
41
0.0
42
0.0
10
76.5239028930664
20
66.5106964111328
40
0.0
41
0.0
42
0.0
10
76.5167999267578
20
66.4944000244141
40
0.0
41
0.0
42
0.0
10
76.4962997436523
20
66.4664001464844
40
0.0
41
0.0
42
0.0
10
76.0706024169922
20
65.9971008300781
40
0.0
41
0.0
42
0.0
10
76.0018997192383
20
65.9309005737305
40
0.0
41
0.0
42
0.0
10
75.9908981323242
20
65.9225006103516
40
0.0
41
0.0
42
0.0
10
75.9417037963867
20
65.899299621582
40
0.0
41
0.0
42
0.0
10
75.4856033325195
20
65.6531982421875
40
0.0
41
0.0
42
0.0
10
75.4283981323242
20
65.6512985229492
40
0.0
41
0.0
42
0.0
10
75.0110015869141
20
65.6185989379883
40
0.0
41
0.0
42
0.0
10
74.5081024169922
20
65.8031005859375
40
0.0
41
0.0
42
0.0
10
74.4906997680664
20
65.821403503418
40
0.0
41
0.0
42
0.0
10
74.2629013061523
20
66.0016021728516
40
0.0
41
0.0
42
0.0
10
74.0046005249023
20
66.234001159668
40
0.0
41
0.0
42
0.0
10
73.7979965209961
20
66.493896484375
40
0.0
41
0.0
42
0.0
10
73.790397644043
20
66.5106964111328
40
0.0
41
0.0
42
0.0
10
73.5226974487305
20
66.9703979492188
40
0.0
41
0.0
42
0.0
10
73.5175018310547
20
67.0034027099609
40
0.0
41
0.0
42
0.0
10
73.5208969116211
20
67.036003112793
40
0.0
41
0.0
42
0.0
10
73.5207977294922
20
67.0712966918945
40
0.0
41
0.0
42
0.0
10
73.3641967773438
20
67.5149002075195
40
0.0
41
0.0
42
0.0
10
73.310302734375
20
67.8883972167969
40
0.0
41
0.0
42
0.0
10
73.3179016113281
20
67.9813003540039
40
0.0
41
0.0
42
0.0
210
0.0
220
0.0
230
1.0
0
LWPOLYLINE
5
2E
330
1C
100
AcDbEntity
67
0
8
0
62
256
6
ByLayer
370
-1
48
1.0
60
0
100
AcDbPolyline
90
87
70
1
38
0.0
39
0.0
10
76.4661026000977
20
76.4422988891602
40
0.0
41
0.0
42
0.0
10
76.4856033325195
20
76.4310989379883
40
0.0
41
0.0
42
0.0
10
76.5168991088867
20
76.4309997558594
40
0.0
41
0.0
42
0.0
10
76.6974029541016
20
76.4848022460938
40
0.0
41
0.0
42
0.0
10
76.7313003540039
20
76.4987030029297
40
0.0
41
0.0
42
0.0
10
76.7498016357422
20
76.5099029541016
40
0.0
41
0.0
42
0.0
10
77.0109024047852
20
76.6259002685547
40
0.0
41
0.0
42
0.0
10
77.0401992797852
20
76.640998840332
40
0.0
41
0.0
42
0.0
10
77.5124969482422
20
76.8151016235352
40
0.0
41
0.0
42
0.0
10
77.9676971435547
20
76.9944000244141
40
0.0
41
0.0
42
0.0
10
77.9817962646484
20
77.0037994384766
40
0.0
41
0.0
42
0.0
10
78.0111999511719
20
77.0188980102539
40
0.0
41
0.0
42
0.0
10
78.4946975708008
20
77.2172012329102
40
0.0
41
0.0
42
0.0
10
78.5091018676758
20
77.2276992797852
40
0.0
41
0.0
42
0.0
10
78.6616973876953
20
77.3029022216797
40
0.0
41
0.0
42
0.0
10
79.0112991333008
20
77.4580001831055
40
0.0
41
0.0
42
0.0
10
79.1309967041016
20
77.5133972167969
40
0.0
41
0.0
42
0.0
10
79.1593017578125
20
77.5311965942383
40
0.0
41
0.0
42
0.0
10
79.5105972290039
20
77.6919021606445
40
0.0
41
0.0
42
0.0
10
79.6928024291992
20
77.7901000976562
40
0.0
41
0.0
42
0.0
10
80.0102005004883
20
77.9447021484375
40
0.0
41
0.0
42
0.0
10
80.1069030761719
20
77.9984970092773
40
0.0
41
0.0
42
0.0
10
80.1932983398438
20
78.0426025390625
40
0.0
41
0.0
42
0.0
10
80.5087966918945
20
78.2110977172852
40
0.0
41
0.0
42
0.0
10
80.9005966186523
20
78.4972991943359
40
0.0
41
0.0
42
0.0
10
80.9415969848633
20
78.5229034423828
40
0.0
41
0.0
42
0.0
10
81.0053024291992
20
78.5758972167969
40
0.0
41
0.0
42
0.0
10
81.3807983398438
20
78.9954986572266
40
0.0
41
0.0
42
0.0
10
81.4007034301758
20
79.0103988647461
40
0.0
41
0.0
42
0.0
10
81.5017013549805
20
79.1640014648438
40
0.0
41
0.0
42
0.0
10
81.6686019897461
20
79.4915008544922
40
0.0
41
0.0
42
0.0
10
81.6797027587891
20
79.5052032470703
40
0.0
41
0.0
42
0.0
10
81.8358001708984
20
79.9847030639648
40
0.0
41
0.0
42
0.0
10
81.8980026245117
20
80.4312973022461
40
0.0
41
0.0
42
0.0
10
81.9162979125977
20
80.4675979614258
40
0.0
41
0.0
42
0.0
10
81.9219970703125
20
80.4835968017578
40
0.0
41
0.0
42
0.0
10
81.9218978881836
20
80.5193023681641
40
0.0
41
0.0
42
0.0
10
81.8970031738281
20
80.9035034179688
40
0.0
41
0.0
42
0.0
10
81.9039001464844
20
80.9809036254883
40
0.0
41
0.0
42
0.0
10
81.9038009643555
20
81.0162963867188
40
0.0
41
0.0
42
0.0
10
81.7705993652344
20
81.388298034668
40
0.0
41
0.0
42
0.0
10
81.7454986572266
20
81.5108032226562
40
0.0
41
0.0
42
0.0
10
81.5866012573242
20
81.7135009765625
40
0.0
41
0.0
42
0.0
10
81.5048980712891
20
81.831901550293
40
0.0
41
0.0
42
0.0
10
81.2445983886719
20
82.0012969970703
40
0.0
41
0.0
42
0.0
10
81.1697006225586
20
82.033203125
40
0.0
41
0.0
42
0.0
10
81.0136032104492
20
82.1092987060547
40
0.0
41
0.0
42
0.0
10
80.5868988037109
20
82.1751022338867
40
0.0
41
0.0
42
0.0
10
80.4804992675781
20
82.1765975952148
40
0.0
41
0.0
42
0.0
10
80.0533981323242
20
82.1464004516602
40
0.0
41
0.0
42
0.0
10
79.9842987060547
20
82.1348037719727
40
0.0
41
0.0
42
0.0
10
79.6726989746094
20
82.0562973022461
40
0.0
41
0.0
42
0.0
10
79.5436019897461
20
82.0001983642578
40
0.0
41
0.0
42
0.0
10
79.4905014038086
20
81.9850006103516
40
0.0
41
0.0
42
0.0
10
79.436897277832
20
81.9356994628906
40
0.0
41
0.0
42
0.0
10
78.9905014038086
20
81.7212982177734
40
0.0
41
0.0
42
0.0
10
78.6862030029297
20
81.5127029418945
40
0.0
41
0.0
42
0.0
10
78.6769027709961
20
81.4935989379883
40
0.0
41
0.0
42
0.0
10
78.6668014526367
20
81.4811019897461
40
0.0
41
0.0
42
0.0
10
78.495002746582
20
81.3200988769531
40
0.0
41
0.0
42
0.0
10
78.2160034179688
20
81.0080032348633
40
0.0
41
0.0
42
0.0
10
78.2092971801758
20
80.9947967529297
40
0.0
41
0.0
42
0.0
10
78.0115966796875
20
80.6645965576172
40
0.0
41
0.0
42
0.0
10
77.9987030029297
20
80.6333999633789
40
0.0
41
0.0
42
0.0
10
77.9218978881836
20
80.5082015991211
40
0.0
41
0.0
42
0.0
10
77.9050979614258
20
80.4851989746094
40
0.0
41
0.0
42
0.0
10
77.6793975830078
20
80.0096969604492
40
0.0
41
0.0
42
0.0
10
77.6698989868164
20
79.9951019287109
40
0.0
41
0.0
42
0.0
10
77.5106964111328
20
79.6100006103516
40
0.0
41
0.0
42
0.0
10
77.4994964599609
20
79.5783004760742
40
0.0
41
0.0
42
0.0
10
77.467399597168
20
79.5082015991211
40
0.0
41
0.0
42
0.0
10
77.4533996582031
20
79.4928970336914
40
0.0
41
0.0
42
0.0
10
77.2452011108398
20
79.0098037719727
40
0.0
41
0.0
42
0.0
10
77.2352981567383
20
78.9952011108398
40
0.0
41
0.0
42
0.0
10
77.0580978393555
20
78.5100021362305
40
0.0
41
0.0
42
0.0
10
77.0525970458984
20
78.5024032592773
40
0.0
41
0.0
42
0.0
10
76.999397277832
20
78.3824996948242
40
0.0
41
0.0
42
0.0
10
76.8644027709961
20
78.0251007080078
40
0.0
41
0.0
42
0.0
10
76.8309020996094
20
77.9570999145508
40
0.0
41
0.0
42
0.0
10
76.6901016235352
20
77.5114974975586
40
0.0
41
0.0
42
0.0
10
76.6774978637695
20
77.489501953125
40
0.0
41
0.0
42
0.0
10
76.5058975219727
20
77.0953979492188
40
0.0
41
0.0
42
0.0
10
76.4755020141602
20
77.0139999389648
40
0.0
41
0.0
42
0.0
10
76.4636001586914
20
76.9611968994141
40
0.0
41
0.0
42
0.0
10
76.4047012329102
20
76.5186004638672
40
0.0
41
0.0
42
0.0
10
76.4045028686523
20
76.4901962280273
40
0.0
41
0.0
42
0.0
10
76.4661026000977
20
76.4422988891602
40
0.0
41
0.0
42
0.0
210
0.0
220
0.0
230
1.0
0
LWPOLYLINE
5
2F
330
1C
100
AcDbEntity
67
0
8
0
62
256
6
ByLayer
370
-1
48
1.0
60
0
100
AcDbPolyline
90
83
70
1
38
0.0
39
0.0
10
76.5002975463867
20
77.0339965820312
40
0.0
41
0.0
42
0.0
10
76.6984024047852
20
77.4873962402344
40
0.0
41
0.0
42
0.0
10
76.8518981933594
20
77.972900390625
40
0.0
41
0.0
42
0.0
10
76.8750991821289
20
78.0184020996094
40
0.0
41
0.0
42
0.0
10
77.0005035400391
20
78.3503036499023
40
0.0
41
0.0
42
0.0
10
77.0515975952148
20
78.4654006958008
40
0.0
41
0.0
42
0.0
10
77.0692977905273
20
78.4898986816406
40
0.0
41
0.0
42
0.0
10
77.2316970825195
20
78.934700012207
40
0.0
41
0.0
42
0.0
10
77.2697982788086
20
78.9900970458984
40
0.0
41
0.0
42
0.0
10
77.4614028930664
20
79.4348983764648
40
0.0
41
0.0
42
0.0
10
77.5036010742188
20
79.4806976318359
40
0.0
41
0.0
42
0.0
10
77.5102005004883
20
79.4897994995117
40
0.0
41
0.0
42
0.0
10
77.5414962768555
20
79.5771026611328
40
0.0
41
0.0
42
0.0
10
77.6892013549805
20
79.9344024658203
40
0.0
41
0.0
42
0.0
10
77.7042007446289
20
79.9592971801758
40
0.0
41
0.0
42
0.0
10
77.725700378418
20
79.9905014038086
40
0.0
41
0.0
42
0.0
10
77.9213027954102
20
80.402702331543
40
0.0
41
0.0
42
0.0
10
77.9857025146484
20
80.4916000366211
40
0.0
41
0.0
42
0.0
10
78.0010986328125
20
80.5167999267578
40
0.0
41
0.0
42
0.0
10
78.0482025146484
20
80.6307983398438
40
0.0
41
0.0
42
0.0
10
78.2300033569336
20
80.9343032836914
40
0.0
41
0.0
42
0.0
10
78.2378005981445
20
80.9539031982422
40
0.0
41
0.0
42
0.0
10
78.2601013183594
20
80.992301940918
40
0.0
41
0.0
42
0.0
10
78.5048980712891
20
81.2662963867188
40
0.0
41
0.0
42
0.0
10
78.6524963378906
20
81.4048004150391
40
0.0
41
0.0
42
0.0
10
78.6775970458984
20
81.4359970092773
40
0.0
41
0.0
42
0.0
10
78.701301574707
20
81.4896011352539
40
0.0
41
0.0
42
0.0
10
78.7184982299805
20
81.5183029174805
40
0.0
41
0.0
42
0.0
10
79.0093994140625
20
81.7166976928711
40
0.0
41
0.0
42
0.0
10
79.4931030273438
20
81.9490966796875
40
0.0
41
0.0
42
0.0
10
79.5094985961914
20
81.9638977050781
40
0.0
41
0.0
42
0.0
10
79.6344985961914
20
81.9997024536133
40
0.0
41
0.0
42
0.0
10
79.6700973510742
20
82.0151977539062
40
0.0
41
0.0
42
0.0
10
80.0156021118164
20
82.1020965576172
40
0.0
41
0.0
42
0.0
10
80.0366973876953
20
82.1057968139648
40
0.0
41
0.0
42
0.0
10
80.5042037963867
20
82.1389007568359
40
0.0
41
0.0
42
0.0
10
80.9862976074219
20
82.0645980834961
40
0.0
41
0.0
42
0.0
10
81.0318984985352
20
82.0422973632812
40
0.0
41
0.0
42
0.0
10
81.1348037719727
20
81.9984970092773
40
0.0
41
0.0
42
0.0
10
81.4947967529297
20
81.7643966674805
40
0.0
41
0.0
42
0.0
10
81.5195999145508
20
81.7285003662109
40
0.0
41
0.0
42
0.0
10
81.7073974609375
20
81.4889984130859
40
0.0
41
0.0
42
0.0
10
81.7151031494141
20
81.4512023925781
40
0.0
41
0.0
42
0.0
10
81.8804016113281
20
80.9897003173828
40
0.0
41
0.0
42
0.0
10
81.8803024291992
20
80.9550018310547
40
0.0
41
0.0
42
0.0
10
81.9091033935547
20
80.5096969604492
40
0.0
41
0.0
42
0.0
10
81.9036026000977
20
80.4987030029297
40
0.0
41
0.0
42
0.0
10
81.8361968994141
20
80.0150985717773
40
0.0
41
0.0
42
0.0
10
81.689697265625
20
79.5633010864258
40
0.0
41
0.0
42
0.0
10
81.6510009765625
20
79.5183029174805
40
0.0
41
0.0
42
0.0
10
81.6454010009766
20
79.5093994140625
40
0.0
41
0.0
42
0.0
10
81.4981002807617
20
79.2203979492188
40
0.0
41
0.0
42
0.0
10
81.408203125
20
79.0830001831055
40
0.0
41
0.0
42
0.0
10
81.3886032104492
20
79.0596008300781
40
0.0
41
0.0
42
0.0
10
81.3145980834961
20
79.0044021606445
40
0.0
41
0.0
42
0.0
10
80.9945983886719
20
78.6466979980469
40
0.0
41
0.0
42
0.0
10
80.9360961914062
20
78.5980987548828
40
0.0
41
0.0
42
0.0
10
80.8749008178711
20
78.5571975708008
40
0.0
41
0.0
42
0.0
10
80.7828979492188
20
78.5024032592773
40
0.0
41
0.0
42
0.0
10
80.4912033081055
20
78.2892990112305
40
0.0
41
0.0
42
0.0
10
80.2544021606445
20
78.1626968383789
40
0.0
41
0.0
42
0.0
10
80.0438003540039
20
78.0552978515625
40
0.0
41
0.0
42
0.0
10
79.9531021118164
20
78.0017013549805
40
0.0
41
0.0
42
0.0
10
79.4893035888672
20
77.7518005371094
40
0.0
41
0.0
42
0.0
10
79.2051010131836
20
77.6218032836914
40
0.0
41
0.0
42
0.0
10
79.1015014648438
20
77.5562973022461
40
0.0
41
0.0
42
0.0
10
78.9908981323242
20
77.5074996948242
40
0.0
41
0.0
42
0.0
10
78.9841003417969
20
77.5020980834961
40
0.0
41
0.0
42
0.0
10
78.4907989501953
20
77.2585983276367
40
0.0
41
0.0
42
0.0
10
78.435302734375
20
77.2181015014648
40
0.0
41
0.0
42
0.0
10
77.9888000488281
20
77.0351028442383
40
0.0
41
0.0
42
0.0
10
77.9658966064453
20
77.0233993530273
40
0.0
41
0.0
42
0.0
10
77.9378967285156
20
77.0022964477539
40
0.0
41
0.0
42
0.0
10
77.9088973999023
20
76.9857025146484
40
0.0
41
0.0
42
0.0
10
77.4875030517578
20
76.8197021484375
40
0.0
41
0.0
42
0.0
10
77.043098449707
20
76.6558990478516
40
0.0
41
0.0
42
0.0
10
76.9888000488281
20
76.6298980712891
40
0.0
41
0.0
42
0.0
10
76.6884002685547
20
76.4961013793945
40
0.0
41
0.0
42
0.0
10
76.5031967163086
20
76.4409027099609
40
0.0
41
0.0
42
0.0
10
76.4182968139648
20
76.5070037841797
40
0.0
41
0.0
42
0.0
10
76.4798965454102
20
76.9685974121094
40
0.0
41
0.0
42
0.0
10
76.4837036132812
20
76.9857025146484
40
0.0
41
0.0
42
0.0
10
76.5002975463867
20
77.0339965820312
40
0.0
41
0.0
42
0.0
210
0.0
220
0.0
230
1.0
0
LWPOLYLINE
5
30
330
1C
100
AcDbEntity
67
0
8
0
62
256
6
ByLayer
370
-1
48
1.0
60
0
100
AcDbPolyline
90
90
70
1
38
0.0
39
0.0
10
76.4848022460938
20
73.3023986816406
40
0.0
41
0.0
42
0.0
10
76.4987030029297
20
73.2685012817383
40
0.0
41
0.0
42
0.0
10
76.5099029541016
20
73.25
40
0.0
41
0.0
42
0.0
10
76.6259002685547
20
72.9889984130859
40
0.0
41
0.0
42
0.0
10
76.640998840332
20
72.9597015380859
40
0.0
41
0.0
42
0.0
10
76.8151016235352
20
72.4873962402344
40
0.0
41
0.0
42
0.0
10
76.9944000244141
20
72.032096862793
40
0.0
41
0.0
42
0.0
10
77.0037994384766
20
72.0179977416992
40
0.0
41
0.0
42
0.0
10
77.0188980102539
20
71.9887008666992
40
0.0
41
0.0
42
0.0
10
77.2171020507812
20
71.5052032470703
40
0.0
41
0.0
42
0.0
10
77.2276000976562
20
71.4907989501953
40
0.0
41
0.0
42
0.0
10
77.3029022216797
20
71.3382034301758
40
0.0
41
0.0
42
0.0
10
77.4578018188477
20
70.9886016845703
40
0.0
41
0.0
42
0.0
10
77.4985961914062
20
70.902099609375
40
0.0
41
0.0
42
0.0
10
77.5315017700195
20
70.8397979736328
40
0.0
41
0.0
42
0.0
10
77.6919021606445
20
70.4893035888672
40
0.0
41
0.0
42
0.0
10
77.7900009155273
20
70.306999206543
40
0.0
41
0.0
42
0.0
10
77.9446029663086
20
69.9896011352539
40
0.0
41
0.0
42
0.0
10
77.9984970092773
20
69.8928985595703
40
0.0
41
0.0
42
0.0
10
78.0425033569336
20
69.8065032958984
40
0.0
41
0.0
42
0.0
10
78.2110977172852
20
69.491096496582
40
0.0
41
0.0
42
0.0
10
78.4972991943359
20
69.0991973876953
40
0.0
41
0.0
42
0.0
10
78.5229034423828
20
69.0580978393555
40
0.0
41
0.0
42
0.0
10
78.5758972167969
20
68.994499206543
40
0.0
41
0.0
42
0.0
10
78.995002746582
20
68.6193008422852
40
0.0
41
0.0
42
0.0
10
79.0146026611328
20
68.5955963134766
40
0.0
41
0.0
42
0.0
10
79.1640014648438
20
68.4981002807617
40
0.0
41
0.0
42
0.0
10
79.4914016723633
20
68.3311996459961
40
0.0
41
0.0
42
0.0
10
79.5050964355469
20
68.3199996948242
40
0.0
41
0.0
42
0.0
10
79.9847030639648
20
68.1639022827148
40
0.0
41
0.0
42
0.0
10
80.4312973022461
20
68.1016998291016
40
0.0
41
0.0
42
0.0
10
80.4675979614258
20
68.0833969116211
40
0.0
41
0.0
42
0.0
10
80.4835968017578
20
68.0779037475586
40
0.0
41
0.0
42
0.0
10
80.5193023681641
20
68.0777969360352
40
0.0
41
0.0
42
0.0
10
80.9035034179688
20
68.1026992797852
40
0.0
41
0.0
42
0.0
10
80.9809036254883
20
68.0960006713867
40
0.0
41
0.0
42
0.0
10
81.0162963867188
20
68.0959014892578
40
0.0
41
0.0
42
0.0
10
81.388298034668
20
68.2291030883789
40
0.0
41
0.0
42
0.0
10
81.5142974853516
20
68.254997253418
40
0.0
41
0.0
42
0.0
10
81.5588989257812
20
68.2708969116211
40
0.0
41
0.0
42
0.0
10
81.7782974243164
20
68.443000793457
40
0.0
41
0.0
42
0.0
10
81.7828979492188
20
68.4450988769531
40
0.0
41
0.0
42
0.0
10
81.8309020996094
20
68.4933013916016
40
0.0
41
0.0
42
0.0
10
82.0530014038086
20
68.8356018066406
40
0.0
41
0.0
42
0.0
10
82.097297668457
20
68.9397964477539
40
0.0
41
0.0
42
0.0
10
82.109001159668
20
68.9842987060547
40
0.0
41
0.0
42
0.0
10
82.1751022338867
20
69.4129028320312
40
0.0
41
0.0
42
0.0
10
82.1765975952148
20
69.519401550293
40
0.0
41
0.0
42
0.0
10
82.1464004516602
20
69.946403503418
40
0.0
41
0.0
42
0.0
10
82.1346969604492
20
70.0156021118164
40
0.0
41
0.0
42
0.0
10
82.0562973022461
20
70.3271026611328
40
0.0
41
0.0
42
0.0
10
82.0000991821289
20
70.4561996459961
40
0.0
41
0.0
42
0.0
10
81.9849014282227
20
70.5093994140625
40
0.0
41
0.0
42
0.0
10
81.9356994628906
20
70.5630035400391
40
0.0
41
0.0
42
0.0
10
81.7212982177734
20
71.0093994140625
40
0.0
41
0.0
42
0.0
10
81.5126037597656
20
71.3135986328125
40
0.0
41
0.0
42
0.0
10
81.4935989379883
20
71.322998046875
40
0.0
41
0.0
42
0.0
10
81.4811019897461
20
71.3329010009766
40
0.0
41
0.0
42
0.0
10
81.3199996948242
20
71.5048980712891
40
0.0
41
0.0
42
0.0
10
81.0080032348633
20
71.7836990356445
40
0.0
41
0.0
42
0.0
10
80.9946975708008
20
71.790397644043
40
0.0
41
0.0
42
0.0
10
80.6645965576172
20
71.9881973266602
40
0.0
41
0.0
42
0.0
10
80.6333999633789
20
72.0011978149414
40
0.0
41
0.0
42
0.0
10
80.5082015991211
20
72.0779037475586
40
0.0
41
0.0
42
0.0
10
80.4851989746094
20
72.0947036743164
40
0.0
41
0.0
42
0.0
10
80.0095977783203
20
72.3203964233398
40
0.0
41
0.0
42
0.0
10
79.9951019287109
20
72.3298034667969
40
0.0
41
0.0
42
0.0
10
79.6099014282227
20
72.4889984130859
40
0.0
41
0.0
42
0.0
10
79.5783004760742
20
72.5003967285156
40
0.0
41
0.0
42
0.0
10
79.5082015991211
20
72.5323028564453
40
0.0
41
0.0
42
0.0
10
79.4928970336914
20
72.5463027954102
40
0.0
41
0.0
42
0.0
10
79.0096969604492
20
72.7545013427734
40
0.0
41
0.0
42
0.0
10
78.9952011108398
20
72.7643966674805
40
0.0
41
0.0
42
0.0
10
78.5099029541016
20
72.9415969848633
40
0.0
41
0.0
42
0.0
10
78.5024032592773
20
72.9470977783203
40
0.0
41
0.0
42
0.0
10
78.3824005126953
20
73.0003967285156
40
0.0
41
0.0
42
0.0
10
78.0243988037109
20
73.135498046875
40
0.0
41
0.0
42
0.0
10
78.0114974975586
20
73.1428985595703
40
0.0
41
0.0
42
0.0
10
77.5671997070312
20
73.2833023071289
40
0.0
41
0.0
42
0.0
10
77.5102005004883
20
73.310302734375
40
0.0
41
0.0
42
0.0
10
77.489501953125
20
73.3221969604492
40
0.0
41
0.0
42
0.0
10
77.0953979492188
20
73.4937973022461
40
0.0
41
0.0
42
0.0
10
77.0148010253906
20
73.5239028930664
40
0.0
41
0.0
42
0.0
10
76.5712966918945
20
73.5830993652344
40
0.0
41
0.0
42
0.0
10
76.5176010131836
20
73.5951995849609
40
0.0
41
0.0
42
0.0
10
76.4901962280273
20
73.595100402832
40
0.0
41
0.0
42
0.0
10
76.4423980712891
20
73.5337982177734
40
0.0
41
0.0
42
0.0
10
76.4310989379883
20
73.5142974853516
40
0.0
41
0.0
42
0.0
10
76.4309997558594
20
73.4830017089844
40
0.0
41
0.0
42
0.0
10
76.4848022460938
20
73.3023986816406
40
0.0
41
0.0
42
0.0
210
0.0
220
0.0
230
1.0
0
LWPOLYLINE
5
31
330
1C
100
AcDbEntity
67
0
8
0
62
256
6
ByLayer
370
-1
48
1.0
60
0
100
AcDbPolyline
90
82
70
1
38
0.0
39
0.0
10
76.4410018920898
20
73.4965972900391
40
0.0
41
0.0
42
0.0
10
76.5059967041016
20
73.5802001953125
40
0.0
41
0.0
42
0.0
10
76.9848022460938
20
73.5162963867188
40
0.0
41
0.0
42
0.0
10
77.0338973999023
20
73.4994964599609
40
0.0
41
0.0
42
0.0
10
77.4830017089844
20
73.3039016723633
40
0.0
41
0.0
42
0.0
10
77.502799987793
20
73.2939987182617
40
0.0
41
0.0
42
0.0
10
77.9880981445312
20
73.1407012939453
40
0.0
41
0.0
42
0.0
10
78.0185012817383
20
73.1246032714844
40
0.0
41
0.0
42
0.0
10
78.3503036499023
20
72.9992980957031
40
0.0
41
0.0
42
0.0
10
78.4653015136719
20
72.9480972290039
40
0.0
41
0.0
42
0.0
10
78.4898986816406
20
72.9304962158203
40
0.0
41
0.0
42
0.0
10
78.9346008300781
20
72.7678985595703
40
0.0
41
0.0
42
0.0
10
78.9900970458984
20
72.7298965454102
40
0.0
41
0.0
42
0.0
10
79.4347991943359
20
72.5383987426758
40
0.0
41
0.0
42
0.0
10
79.4806976318359
20
72.4961013793945
40
0.0
41
0.0
42
0.0
10
79.4898986816406
20
72.489501953125
40
0.0
41
0.0
42
0.0
10
79.5771026611328
20
72.4581985473633
40
0.0
41
0.0
42
0.0
10
79.9344024658203
20
72.3106002807617
40
0.0
41
0.0
42
0.0
10
79.9592971801758
20
72.2955017089844
40
0.0
41
0.0
42
0.0
10
79.9905014038086
20
72.2740020751953
40
0.0
41
0.0
42
0.0
10
80.402702331543
20
72.078498840332
40
0.0
41
0.0
42
0.0
10
80.4915008544922
20
72.0139999389648
40
0.0
41
0.0
42
0.0
10
80.5167007446289
20
71.9987030029297
40
0.0
41
0.0
42
0.0
10
80.6307983398438
20
71.9514999389648
40
0.0
41
0.0
42
0.0
10
80.9343032836914
20
71.7696990966797
40
0.0
41
0.0
42
0.0
10
80.9537963867188
20
71.7619018554688
40
0.0
41
0.0
42
0.0
10
80.992301940918
20
71.7397003173828
40
0.0
41
0.0
42
0.0
10
81.2662963867188
20
71.4949035644531
40
0.0
41
0.0
42
0.0
10
81.4047012329102
20
71.3471984863281
40
0.0
41
0.0
42
0.0
10
81.4358978271484
20
71.3220977783203
40
0.0
41
0.0
42
0.0
10
81.4896011352539
20
71.2984008789062
40
0.0
41
0.0
42
0.0
10
81.5183029174805
20
71.2811965942383
40
0.0
41
0.0
42
0.0
10
81.7165985107422
20
70.9904022216797
40
0.0
41
0.0
42
0.0
10
81.9484024047852
20
70.5077972412109
40
0.0
41
0.0
42
0.0
10
81.9638977050781
20
70.4901962280273
40
0.0
41
0.0
42
0.0
10
81.9997024536133
20
70.3653030395508
40
0.0
41
0.0
42
0.0
10
82.0150985717773
20
70.3296966552734
40
0.0
41
0.0
42
0.0
10
82.1022033691406
20
69.9842987060547
40
0.0
41
0.0
42
0.0
10
82.1057968139648
20
69.9630966186523
40
0.0
41
0.0
42
0.0
10
82.1389007568359
20
69.4955978393555
40
0.0
41
0.0
42
0.0
10
82.0647964477539
20
69.0157012939453
40
0.0
41
0.0
42
0.0
10
82.0608978271484
20
69.0002975463867
40
0.0
41
0.0
42
0.0
10
82.0127029418945
20
68.8868026733398
40
0.0
41
0.0
42
0.0
10
81.7656021118164
20
68.5066986083984
40
0.0
41
0.0
42
0.0
10
81.7488021850586
20
68.4898986816406
40
0.0
41
0.0
42
0.0
10
81.5036010742188
20
68.2981033325195
40
0.0
41
0.0
42
0.0
10
81.4856033325195
20
68.2917022705078
40
0.0
41
0.0
42
0.0
10
81.4512023925781
20
68.2845993041992
40
0.0
41
0.0
42
0.0
10
80.9897003173828
20
68.119499206543
40
0.0
41
0.0
42
0.0
10
80.9550018310547
20
68.1194000244141
40
0.0
41
0.0
42
0.0
10
80.5095977783203
20
68.0905990600586
40
0.0
41
0.0
42
0.0
10
80.4985961914062
20
68.0960998535156
40
0.0
41
0.0
42
0.0
10
80.0150985717773
20
68.1634979248047
40
0.0
41
0.0
42
0.0
10
79.5632019042969
20
68.3099975585938
40
0.0
41
0.0
42
0.0
10
79.5182037353516
20
68.3487014770508
40
0.0
41
0.0
42
0.0
10
79.5093994140625
20
68.3544006347656
40
0.0
41
0.0
42
0.0
10
79.2203979492188
20
68.5017013549805
40
0.0
41
0.0
42
0.0
10
79.0813980102539
20
68.5924987792969
40
0.0
41
0.0
42
0.0
10
79.0046997070312
20
68.6847991943359
40
0.0
41
0.0
42
0.0
10
78.646598815918
20
69.0053024291992
40
0.0
41
0.0
42
0.0
10
78.5978012084961
20
69.0637969970703
40
0.0
41
0.0
42
0.0
10
78.5025024414062
20
69.216796875
40
0.0
41
0.0
42
0.0
10
78.2891998291016
20
69.5086975097656
40
0.0
41
0.0
42
0.0
10
78.16259765625
20
69.7453994750977
40
0.0
41
0.0
42
0.0
10
78.0551986694336
20
69.9560012817383
40
0.0
41
0.0
42
0.0
10
78.0016021728516
20
70.0466995239258
40
0.0
41
0.0
42
0.0
10
77.7518005371094
20
70.5105972290039
40
0.0
41
0.0
42
0.0
10
77.6213989257812
20
70.7954025268555
40
0.0
41
0.0
42
0.0
10
77.5162963867188
20
70.9945983886719
40
0.0
41
0.0
42
0.0
10
77.5017013549805
20
71.0165023803711
40
0.0
41
0.0
42
0.0
10
77.2585983276367
20
71.5090026855469
40
0.0
41
0.0
42
0.0
10
77.2181015014648
20
71.5645980834961
40
0.0
41
0.0
42
0.0
10
77.0351028442383
20
72.011100769043
40
0.0
41
0.0
42
0.0
10
77.0233993530273
20
72.0337982177734
40
0.0
41
0.0
42
0.0
10
77.0022964477539
20
72.0617980957031
40
0.0
41
0.0
42
0.0
10
76.9857025146484
20
72.0908966064453
40
0.0
41
0.0
42
0.0
10
76.8196029663086
20
72.5123977661133
40
0.0
41
0.0
42
0.0
10
76.6557998657227
20
72.9567031860352
40
0.0
41
0.0
42
0.0
10
76.6298980712891
20
73.011100769043
40
0.0
41
0.0
42
0.0
10
76.5001983642578
20
73.301399230957
40
0.0
41
0.0
42
0.0
10
76.4698028564453
20
73.3995971679688
40
0.0
41
0.0
42
0.0
10
76.4410018920898
20
73.4965972900391
40
0.0
41
0.0
42
0.0
210
0.0
220
0.0
230
1.0
0
LWPOLYLINE
5
32
330
1C
100
AcDbEntity
67
0
8
0
62
256
6
ByLayer
370
-1
48
1.0
60
0
100
AcDbPolyline
90
81
70
1
38
0.0
39
0.0
10
76.9336013793945
20
74.9767990112305
40
0.0
41
0.0
42
0.0
10
76.9851989746094
20
74.9653015136719
40
0.0
41
0.0
42
0.0
10
77.0414962768555
20
74.9487991333008
40
0.0
41
0.0
42
0.0
10
77.4869003295898
20
74.7855987548828
40
0.0
41
0.0
42
0.0
10
77.5214996337891
20
74.7741012573242
40
0.0
41
0.0
42
0.0
10
77.9872970581055
20
74.5358963012695
40
0.0
41
0.0
42
0.0
10
77.9965972900391
20
74.5333023071289
40
0.0
41
0.0
42
0.0
10
78.0643005371094
20
74.4988021850586
40
0.0
41
0.0
42
0.0
10
78.4804992675781
20
74.3059997558594
40
0.0
41
0.0
42
0.0
10
78.5008010864258
20
74.302001953125
40
0.0
41
0.0
42
0.0
10
78.9847030639648
20
74.1178970336914
40
0.0
41
0.0
42
0.0
10
78.9992980957031
20
74.1166000366211
40
0.0
41
0.0
42
0.0
10
79.3430023193359
20
73.9991989135742
40
0.0
41
0.0
42
0.0
10
79.4881973266602
20
73.9204025268555
40
0.0
41
0.0
42
0.0
10
79.5206985473633
20
73.9100036621094
40
0.0
41
0.0
42
0.0
10
79.9860992431641
20
73.7329025268555
40
0.0
41
0.0
42
0.0
10
80.0093994140625
20
73.7275009155273
40
0.0
41
0.0
42
0.0
10
80.4857025146484
20
73.5822982788086
40
0.0
41
0.0
42
0.0
10
80.798698425293
20
73.4999008178711
40
0.0
41
0.0
42
0.0
10
80.9872970581055
20
73.4225997924805
40
0.0
41
0.0
42
0.0
10
81.0419998168945
20
73.4037017822266
40
0.0
41
0.0
42
0.0
10
81.5197982788086
20
73.2938003540039
40
0.0
41
0.0
42
0.0
10
82.0121994018555
20
73.2683029174805
40
0.0
41
0.0
42
0.0
10
82.0501022338867
20
73.2682037353516
40
0.0
41
0.0
42
0.0
10
82.5149002075195
20
73.3352966308594
40
0.0
41
0.0
42
0.0
10
82.9969024658203
20
73.505500793457
40
0.0
41
0.0
42
0.0
10
83.0183029174805
20
73.5054016113281
40
0.0
41
0.0
42
0.0
10
83.0289001464844
20
73.5071029663086
40
0.0
41
0.0
42
0.0
10
83.0653991699219
20
73.5233993530273
40
0.0
41
0.0
42
0.0
10
83.5102996826172
20
73.7826995849609
40
0.0
41
0.0
42
0.0
10
83.5639038085938
20
73.8069000244141
40
0.0
41
0.0
42
0.0
10
83.8005981445312
20
73.9953002929688
40
0.0
41
0.0
42
0.0
10
84.0050964355469
20
74.2229995727539
40
0.0
41
0.0
42
0.0
10
84.0126037597656
20
74.2297973632812
40
0.0
41
0.0
42
0.0
10
84.178596496582
20
74.4393997192383
40
0.0
41
0.0
42
0.0
10
84.2255020141602
20
74.481201171875
40
0.0
41
0.0
42
0.0
10
84.2330017089844
20
74.4905014038086
40
0.0
41
0.0
42
0.0
10
84.3880996704102
20
74.9156036376953
40
0.0
41
0.0
42
0.0
10
84.4185028076172
20
74.9843978881836
40
0.0
41
0.0
42
0.0
10
84.4184036254883
20
75.0190963745117
40
0.0
41
0.0
42
0.0
10
84.394401550293
20
75.3255004882812
40
0.0
41
0.0
42
0.0
10
84.3881988525391
20
75.5142974853516
40
0.0
41
0.0
42
0.0
10
84.2146987915039
20
75.8358001708984
40
0.0
41
0.0
42
0.0
10
84.1335983276367
20
76.007698059082
40
0.0
41
0.0
42
0.0
10
84.0053024291992
20
76.1381988525391
40
0.0
41
0.0
42
0.0
10
83.6033020019531
20
76.5037994384766
40
0.0
41
0.0
42
0.0
10
83.5641021728516
20
76.5339965820312
40
0.0
41
0.0
42
0.0
10
83.5105972290039
20
76.5576019287109
40
0.0
41
0.0
42
0.0
10
83.0681991577148
20
76.7977981567383
40
0.0
41
0.0
42
0.0
10
83.0150985717773
20
76.8057022094727
40
0.0
41
0.0
42
0.0
10
82.5716018676758
20
76.9495010375977
40
0.0
41
0.0
42
0.0
10
82.5356979370117
20
76.9494018554688
40
0.0
41
0.0
42
0.0
10
82.4981994628906
20
76.9468002319336
40
0.0
41
0.0
42
0.0
10
82.4757995605469
20
76.943000793457
40
0.0
41
0.0
42
0.0
10
82.018798828125
20
76.9943008422852
40
0.0
41
0.0
42
0.0
10
81.9806976318359
20
76.9942016601562
40
0.0
41
0.0
42
0.0
10
81.4999008178711
20
76.9601974487305
40
0.0
41
0.0
42
0.0
10
81.486198425293
20
76.9544982910156
40
0.0
41
0.0
42
0.0
10
81.0009994506836
20
76.8526992797852
40
0.0
41
0.0
42
0.0
10
80.9411010742188
20
76.8294982910156
40
0.0
41
0.0
42
0.0
10
80.4877014160156
20
76.6826019287109
40
0.0
41
0.0
42
0.0
10
80.1057968139648
20
76.5003967285156
40
0.0
41
0.0
42
0.0
10
80.0000991821289
20
76.4660034179688
40
0.0
41
0.0
42
0.0
10
79.9853973388672
20
76.4634017944336
40
0.0
41
0.0
42
0.0
10
79.5000991821289
20
76.2902984619141
40
0.0
41
0.0
42
0.0
10
79.4859008789062
20
76.2881011962891
40
0.0
41
0.0
42
0.0
10
79.0016021728516
20
76.0710983276367
40
0.0
41
0.0
42
0.0
10
78.9882965087891
20
76.068000793457
40
0.0
41
0.0
42
0.0
10
78.8827972412109
20
75.9997024536133
40
0.0
41
0.0
42
0.0
10
78.5014038085938
20
75.838996887207
40
0.0
41
0.0
42
0.0
10
78.4866027832031
20
75.8356018066406
40
0.0
41
0.0
42
0.0
10
78.0408020019531
20
75.6370010375977
40
0.0
41
0.0
42
0.0
10
77.9878997802734
20
75.621696472168
40
0.0
41
0.0
42
0.0
10
77.802001953125
20
75.521598815918
40
0.0
41
0.0
42
0.0
10
77.7482986450195
20
75.5012969970703
40
0.0
41
0.0
42
0.0
10
77.4909973144531
20
75.3160018920898
40
0.0
41
0.0
42
0.0
10
77.0457000732422
20
75.0859985351562
40
0.0
41
0.0
42
0.0
10
76.9894027709961
20
75.0482025146484
40
0.0
41
0.0
42
0.0
10
76.8630981445312
20
75.0048980712891
40
0.0
41
0.0
42
0.0
10
76.8629989624023
20
74.9960021972656
40
0.0
41
0.0
42
0.0
10
76.9336013793945
20
74.9767990112305
40
0.0
41
0.0
42
0.0
210
0.0
220
0.0
230
1.0
0
LWPOLYLINE
5
33
330
1C
100
AcDbEntity
67
0
8
0
62
256
6
ByLayer
370
-1
48
1.0
60
0
100
AcDbPolyline
90
75
70
1
38
0.0
39
0.0
10
76.9355010986328
20
74.99169921875
40
0.0
41
0.0
42
0.0
10
76.9348983764648
20
75.0100021362305
40
0.0
41
0.0
42
0.0
10
77.010498046875
20
75.0356979370117
40
0.0
41
0.0
42
0.0
10
77.0242004394531
20
75.0447998046875
40
0.0
41
0.0
42
0.0
10
77.508903503418
20
75.2950973510742
40
0.0
41
0.0
42
0.0
10
77.7914962768555
20
75.4985961914062
40
0.0
41
0.0
42
0.0
10
77.8077011108398
20
75.5046997070312
40
0.0
41
0.0
42
0.0
10
78.0119018554688
20
75.6147003173828
40
0.0
41
0.0
42
0.0
10
78.0289001464844
20
75.6196975708008
40
0.0
41
0.0
42
0.0
10
78.513298034668
20
75.8352966308594
40
0.0
41
0.0
42
0.0
10
78.5684967041016
20
75.8481979370117
40
0.0
41
0.0
42
0.0
10
78.9130020141602
20
75.9934005737305
40
0.0
41
0.0
42
0.0
10
78.9227981567383
20
75.9981994628906
40
0.0
41
0.0
42
0.0
10
79.0117034912109
20
76.0561981201172
40
0.0
41
0.0
42
0.0
10
79.0682983398438
20
76.0687026977539
40
0.0
41
0.0
42
0.0
10
79.5139999389648
20
76.2685012817383
40
0.0
41
0.0
42
0.0
10
79.5698013305664
20
76.2770004272461
40
0.0
41
0.0
42
0.0
10
80.0145034790039
20
76.4355010986328
40
0.0
41
0.0
42
0.0
10
80.0698013305664
20
76.4457015991211
40
0.0
41
0.0
42
0.0
10
80.2330017089844
20
76.4994964599609
40
0.0
41
0.0
42
0.0
10
80.5121994018555
20
76.6324996948242
40
0.0
41
0.0
42
0.0
10
80.8449020385742
20
76.7403030395508
40
0.0
41
0.0
42
0.0
10
81.0121002197266
20
76.8028030395508
40
0.0
41
0.0
42
0.0
10
81.0684967041016
20
76.8274002075195
40
0.0
41
0.0
42
0.0
10
81.5137023925781
20
76.9207992553711
40
0.0
41
0.0
42
0.0
10
81.5699996948242
20
76.9445037841797
40
0.0
41
0.0
42
0.0
10
81.9962997436523
20
76.9746017456055
40
0.0
41
0.0
42
0.0
10
82.4261016845703
20
76.9264984130859
40
0.0
41
0.0
42
0.0
10
82.4616012573242
20
76.926399230957
40
0.0
41
0.0
42
0.0
10
82.5139007568359
20
76.9434967041016
40
0.0
41
0.0
42
0.0
10
82.9847030639648
20
76.7910003662109
40
0.0
41
0.0
42
0.0
10
83.0017013549805
20
76.7884979248047
40
0.0
41
0.0
42
0.0
10
83.4891967773438
20
76.5239028930664
40
0.0
41
0.0
42
0.0
10
83.505500793457
20
76.5167007446289
40
0.0
41
0.0
42
0.0
10
83.5333023071289
20
76.4962005615234
40
0.0
41
0.0
42
0.0
10
83.994499206543
20
76.0767974853516
40
0.0
41
0.0
42
0.0
10
84.0766983032227
20
75.9919967651367
40
0.0
41
0.0
42
0.0
10
84.1004028320312
20
75.9417037963867
40
0.0
41
0.0
42
0.0
10
84.3464965820312
20
75.4854965209961
40
0.0
41
0.0
42
0.0
10
84.3483963012695
20
75.4283981323242
40
0.0
41
0.0
42
0.0
10
84.3812026977539
20
75.0110015869141
40
0.0
41
0.0
42
0.0
10
84.1967010498047
20
74.5081024169922
40
0.0
41
0.0
42
0.0
10
84.1783981323242
20
74.4907989501953
40
0.0
41
0.0
42
0.0
10
83.9981002807617
20
74.2630004882812
40
0.0
41
0.0
42
0.0
10
83.7658004760742
20
74.0046005249023
40
0.0
41
0.0
42
0.0
10
83.5059967041016
20
73.7981033325195
40
0.0
41
0.0
42
0.0
10
83.4890975952148
20
73.790397644043
40
0.0
41
0.0
42
0.0
10
83.0295028686523
20
73.5226974487305
40
0.0
41
0.0
42
0.0
10
82.9964981079102
20
73.5175018310547
40
0.0
41
0.0
42
0.0
10
82.9638977050781
20
73.5207977294922
40
0.0
41
0.0
42
0.0
10
82.9279022216797
20
73.5205993652344
40
0.0
41
0.0
42
0.0
10
82.4850006103516
20
73.3641967773438
40
0.0
41
0.0
42
0.0
10
82.1115036010742
20
73.3102035522461
40
0.0
41
0.0
42
0.0
10
82.0186004638672
20
73.3179016113281
40
0.0
41
0.0
42
0.0
10
81.6526031494141
20
73.3360977172852
40
0.0
41
0.0
42
0.0
10
81.2204971313477
20
73.4358978271484
40
0.0
41
0.0
42
0.0
10
81.0363006591797
20
73.4998016357422
40
0.0
41
0.0
42
0.0
10
80.5141983032227
20
73.6381988525391
40
0.0
41
0.0
42
0.0
10
80.1026992797852
20
73.7637023925781
40
0.0
41
0.0
42
0.0
10
80.013801574707
20
73.7844009399414
40
0.0
41
0.0
42
0.0
10
79.6371002197266
20
73.9275970458984
40
0.0
41
0.0
42
0.0
10
79.5115966796875
20
73.9676971435547
40
0.0
41
0.0
42
0.0
10
79.4509963989258
20
74.000602722168
40
0.0
41
0.0
42
0.0
10
79.0706024169922
20
74.1320037841797
40
0.0
41
0.0
42
0.0
10
79.0151977539062
20
74.1365966796875
40
0.0
41
0.0
42
0.0
10
78.5695037841797
20
74.3061981201172
40
0.0
41
0.0
42
0.0
10
78.5151977539062
20
74.314697265625
40
0.0
41
0.0
42
0.0
10
78.4905014038086
20
74.3221969604492
40
0.0
41
0.0
42
0.0
10
78.1045989990234
20
74.5009994506836
40
0.0
41
0.0
42
0.0
10
78.0453033447266
20
74.5310974121094
40
0.0
41
0.0
42
0.0
10
78.0122985839844
20
74.540397644043
40
0.0
41
0.0
42
0.0
10
77.5661010742188
20
74.7686004638672
40
0.0
41
0.0
42
0.0
10
77.5272979736328
20
74.7845993041992
40
0.0
41
0.0
42
0.0
10
77.0286026000977
20
74.9666976928711
40
0.0
41
0.0
42
0.0
10
76.9355010986328
20
74.99169921875
40
0.0
41
0.0
42
0.0
210
0.0
220
0.0
230
1.0
0
LWPOLYLINE
5
34
330
1C
100
AcDbEntity
67
0
8
0
62
256
6
ByLayer
370
-1
48
1.0
60
0
100
AcDbPolyline
90
28
70
1
38
0.0
39
0.0
10
82.8198013305664
20
84.49169921875
40
0.0
41
0.0
42
0.0
10
82.9960021972656
20
84.2350006103516
40
0.0
41
0.0
42
0.0
10
83.0058975219727
20
84.2246017456055
40
0.0
41
0.0
42
0.0
10
83.1950988769531
20
83.993896484375
40
0.0
41
0.0
42
0.0
10
83.488899230957
20
83.6912994384766
40
0.0
41
0.0
42
0.0
10
83.5098037719727
20
83.6760025024414
40
0.0
41
0.0
42
0.0
10
83.7238006591797
20
83.4964981079102
40
0.0
41
0.0
42
0.0
10
83.9925994873047
20
83.3074035644531
40
0.0
41
0.0
42
0.0
10
84.4903030395508
20
83.0082015991211
40
0.0
41
0.0
42
0.0
10
84.9844970703125
20
82.7406005859375
40
0.0
41
0.0
42
0.0
10
84.9990005493164
20
82.7406005859375
40
0.0
41
0.0
42
0.0
10
84.9989013671875
20
82.7673034667969
40
0.0
41
0.0
42
0.0
10
84.5094985961914
20
83.0314025878906
40
0.0
41
0.0
42
0.0
10
84.0643997192383
20
83.2995986938477
40
0.0
41
0.0
42
0.0
10
84.0134963989258
20
83.3276977539062
40
0.0
41
0.0
42
0.0
10
83.7636032104492
20
83.503303527832
40
0.0
41
0.0
42
0.0
10
83.5697021484375
20
83.6658020019531
40
0.0
41
0.0
42
0.0
10
83.5070037841797
20
83.7087020874023
40
0.0
41
0.0
42
0.0
10
83.4880981445312
20
83.72509765625
40
0.0
41
0.0
42
0.0
10
83.2154006958008
20
84.0058975219727
40
0.0
41
0.0
42
0.0
10
83.0417022705078
20
84.2177963256836
40
0.0
41
0.0
42
0.0
10
83.0036010742188
20
84.2578964233398
40
0.0
41
0.0
42
0.0
10
82.8310012817383
20
84.5083999633789
40
0.0
41
0.0
42
0.0
10
82.5516967773438
20
84.9533996582031
40
0.0
41
0.0
42
0.0
10
82.5206985473633
20
84.9990005493164
40
0.0
41
0.0
42
0.0
10
82.5090026855469
20
84.9990005493164
40
0.0
41
0.0
42
0.0
10
82.5087966918945
20
84.9871978759766
40
0.0
41
0.0
42
0.0
10
82.8198013305664
20
84.49169921875
40
0.0
41
0.0
42
0.0
210
0.0
220
0.0
230
1.0
0
LWPOLYLINE
5
35
330
1C
100
AcDbEntity
67
0
8
0
62
256
6
ByLayer
370
-1
48
1.0
60
0
100
AcDbPolyline
90
26
70
1
38
0.0
39
0.0
10
82.7404022216797
20
65.0009002685547
40
0.0
41
0.0
42
0.0
10
82.7673034667969
20
65.0009002685547
40
0.0
41
0.0
42
0.0
10
83.0314025878906
20
65.4904022216797
40
0.0
41
0.0
42
0.0
10
83.2996978759766
20
65.9354019165039
40
0.0
41
0.0
42
0.0
10
83.3276977539062
20
65.9863967895508
40
0.0
41
0.0
42
0.0
10
83.503303527832
20
66.2360992431641
40
0.0
41
0.0
42
0.0
10
83.665901184082
20
66.4300994873047
40
0.0
41
0.0
42
0.0
10
83.7088012695312
20
66.4927978515625
40
0.0
41
0.0
42
0.0
10
83.7251968383789
20
66.5117034912109
40
0.0
41
0.0
42
0.0
10
84.0058975219727
20
66.7843017578125
40
0.0
41
0.0
42
0.0
10
84.217903137207
20
66.9579010009766
40
0.0
41
0.0
42
0.0
10
84.2578964233398
20
66.9962997436523
40
0.0
41
0.0
42
0.0
10
84.5634002685547
20
67.2063980102539
40
0.0
41
0.0
42
0.0
10
84.9990005493164
20
67.4796981811523
40
0.0
41
0.0
42
0.0
10
84.9990005493164
20
67.4908981323242
40
0.0
41
0.0
42
0.0
10
84.9860000610352
20
67.4908981323242
40
0.0
41
0.0
42
0.0
10
84.5067977905273
20
67.190299987793
40
0.0
41
0.0
42
0.0
10
84.2385025024414
20
67.0063018798828
40
0.0
41
0.0
42
0.0
10
83.9940032958984
20
66.8047027587891
40
0.0
41
0.0
42
0.0
10
83.6912994384766
20
66.5108032226562
40
0.0
41
0.0
42
0.0
10
83.6761016845703
20
66.4899978637695
40
0.0
41
0.0
42
0.0
10
83.4965972900391
20
66.2760009765625
40
0.0
41
0.0
42
0.0
10
83.3081970214844
20
66.0084991455078
40
0.0
41
0.0
42
0.0
10
83.0082015991211
20
65.5095977783203
40
0.0
41
0.0
42
0.0
10
82.7404022216797
20
65.0146026611328
40
0.0
41
0.0
42
0.0
10
82.7404022216797
20
65.0009002685547
40
0.0
41
0.0
42
0.0
210
0.0
220
0.0
230
1.0
0
VIEWPORT
5
3A
330
36
100
AcDbEntity
67
1
8
0
62
256
6
ByLayer
370
-1
48
1.0
60
0
100
AcDbViewport
10
0.0
20
0.0
30
0.0
40
297.0
41
210.0
68
1
69
1
12
50.0
22
100.0
13
0.0
23
0.0
14
10.0
24
10.0
15
10.0
25
10.0
16
0.0
26
0.0
36
1.0
17
0.0
27
0.0
37
0.0
42
50.0
43
0.0
44
0.0
45
250.0
50
0.0
51
0.0
72
1000
90
819232
110
0.0
120
0.0
130
0.0
111
1.0
121
0.0
131
0.0
112
0.0
122
1.0
132
0.0
0
ENDSEC
0
SECTION
2
OBJECTS
0
DICTIONARY
5
40
330
0
100
AcDbDictionary
280
1
281
1
3
ACAD_GROUP
350
12
3
ACAD_LAYOUT
350
39
3
ACAD_DGNDEFINITIONS
350
F
3
ACAD_DWFDEFINITIONS
350
10
3
ACAD_PDFDEFINITIONS
350
11
3
ACAD_MLINESTYLE
350
B
3
ACAD_IMAGE_DICT
350
E
3
ACAD_IMAGE_VARS
350
21
0
DICTIONARY
5
12
330
40
100
AcDbDictionary
280
1
281
1
0
DICTIONARY
5
39
330
40
100
AcDbDictionary
280
1
281
1
3
Model
350
20
3
Layout1
350
3B
0
DICTIONARY
5
F
330
40
100
AcDbDictionary
280
1
281
1
0
DICTIONARY
5
10
330
40
100
AcDbDictionary
280
1
281
1
0
DICTIONARY
5
11
330
40
100
AcDbDictionary
280
1
281
1
0
DICTIONARY
5
B
330
40
100
AcDbDictionary
280
1
281
1
3
Standard
350
1B
0
DICTIONARY
5
E
330
40
100
AcDbDictionary
280
1
281
1
0
DICTIONARY
5
6
330
5
100
AcDbDictionary
280
1
281
1
3
ACAD_LAYERSTATES
360
41
0
DICTIONARY
5
41
330
6
100
AcDbDictionary
280
1
281
1
0
LAYOUT
5
20
330
39
100
AcDbPlotSettings
1

2
none_device
4
ISO_A4_(210.00_x_297.00_MM)
6

40
7.5
41
20.0
42
7.5
43
20.0
44
210.0
45
297.0
46
0.0
47
0.0
48
0.0
49
0.0
140
0.0
141
0.0
142
1.0
143
1.0
70
11952
72
1
73
1
74
1
7

75
0
76
0
77
2
78
300
147
1.0
148
0.0
149
0.0
100
AcDbLayout
1
Model
71
0
10
-20.0
20
-7.5
11
277.0
21
202.5
12
0.0
22
0.0
32
0.0
14
25.7
24
19.5
34
0.0
15
231.3
25
175.5
35
0.0
146
0.0
13
0.0
23
0.0
33
0.0
16
1.0
26
0.0
36
0.0
17
0.0
27
1.0
37
0.0
76
0
330
1C
0
LAYOUT
5
3B
330
39
100
AcDbPlotSettings
1

2
none_device
4
ISO_A4_(210.00_x_297.00_MM)
6

40
7.5
41
20.0
42
7.5
43
20.0
44
210.0
45
297.0
46
0.0
47
0.0
48
0.0
49
0.0
140
0.0
141
0.0
142
1.0
143
1.0
70
688
72
1
73
1
74
1
7

75
0
76
0
77
2
78
300
147
1.0
148
0.0
149
0.0
100
AcDbLayout
1
Layout1
71
1
10
-20.0
20
-7.5
11
277.0
21
202.5
12
0.0
22
0.0
32
0.0
14
25.7
24
19.5
34
0.0
15
231.3
25
175.5
35
0.0
146
0.0
13
0.0
23
0.0
33
0.0
16
1.0
26
0.0
36
0.0
17
0.0
27
1.0
37
0.0
76
0
330
36
0
MLINESTYLE
5
1B
330
B
100
AcDbMlineStyle
2
Standard
70
0
3

62
256
51
90.0
52
90.0
71
2
49
0.5
62
256
6
ByLayer
49
-0.5
62
256
6
ByLayer
0
RASTERVARIABLES
5
21
330
E
100
AcDbRasterVariables
90
0
70
1
71
1
72
0
0
ENDSEC
0
EOF
