999
DXF file generated by netDxf https://github.com/haplokuon/netDxf, Copyright(C) Daniel Carvajal, Licensed under MIT
0
SECTION
2
HEADER
9
$ACADVER
1
AC1015
9
$DWGCODEPAGE
3
ANSI_1252
9
$HANDSEED
5
4A
9
$ANGBASE
50
0.0
9
$ANGDIR
70
0
9
$ATTMODE
70
1
9
$AUNITS
70
0
9
$AUPREC
70
0
9
$CECOLOR
62
256
9
$CELTSCALE
40
1.0
9
$CELTYPE
6
ByLayer
9
$CELWEIGHT
370
-1
9
$CLAYER
8
0
9
$CMLJUST
70
0
9
$CMLSCALE
40
20.0
9
$CMLSTYLE
2
Standard
9
$DIMSTYLE
2
Standard
9
$TEXTSIZE
40
2.5
9
$TEXTSTYLE
7
Standard
9
$LUNITS
70
2
9
$LUPREC
70
4
9
$MIRRTEXT
70
0
9
$EXTNAMES
290
1
9
$INSBASE
10
0.0
20
0.0
30
0.0
9
$INSUNITS
70
0
9
$LTSCALE
40
1.0
9
$LWDISPLAY
290
0
9
$PDMODE
70
0
9
$PDSIZE
40
0.0
9
$PLINEGEN
70
0
9
$PSLTSCALE
70
1
9
$SPLINESEGS
70
8
9
$SURFU
70
6
9
$SURFV
70
6
9
$TDCREATE
40
2460823.48362013
9
$TDUCREATE
40
2460823.15028679
9
$TDUPDATE
40
2460823.48362013
9
$TDUUPDATE
40
2460823.15028679
9
$TDINDWG
40
0.0
9
$UCSORG
10
0.0
20
0.0
30
0.0
9
$UCSXDIR
10
1.0
20
0.0
30
0.0
9
$UCSYDIR
10
0.0
20
1.0
30
0.0
9
$DIMADEC
70
0
9
$DIMALT
70
0
9
$DIMALTD
70
2
9
$DIMALTF
40
25.4
9
$DIMALTRND
40
0.0
9
$DIMALTTD
70
2
9
$DIMALTTZ
70
0
9
$DIMALTU
70
2
9
$DIMALTZ
70
0
9
$DIMAPOST
1

9
$DIMATFIT
70
3
9
$DIMAUNIT
70
0
9
$DIMASZ
40
0.18
9
$DIMAZIN
70
0
9
$DIMSAH
70
0
9
$DIMBLK
1

9
$DIMLDRBLK
1

9
$DIMCEN
40
0.09
9
$DIMCLRD
70
0
9
$DIMCLRE
70
0
9
$DIMCLRT
70
0
9
$DIMDEC
70
4
9
$DIMDLE
40
0.0
9
$DIMDLI
40
0.38
9
$DIMDSEP
70
46
9
$DIMEXE
40
0.18
9
$DIMEXO
40
0.0625
9
$DIMFXLON
70
0
9
$DIMFXL
40
1.0
9
$DIMGAP
40
0.09
9
$DIMJUST
70
0
9
$DIMLFAC
40
1.0
9
$DIMLUNIT
70
2
9
$DIMLWD
70
-2
9
$DIMLWE
70
-2
9
$DIMPOST
1

9
$DIMRND
40
0.0
9
$DIMSCALE
40
1.0
9
$DIMSD1
70
0
9
$DIMSD2
70
0
9
$DIMSE1
70
0
9
$DIMSE2
70
0
9
$DIMSOXD
70
0
9
$DIMTAD
70
0
9
$DIMTDEC
70
4
9
$DIMTFAC
40
1.0
9
$DIMTIH
70
0
9
$DIMTIX
70
0
9
$DIMTM
40
0.0
9
$DIMTMOVE
70
0
9
$DIMTOFL
70
0
9
$DIMTOH
70
0
9
$DIMTOL
70
0
9
$DIMLIM
70
0
9
$DIMTOLJ
70
1
9
$DIMTP
40
0.0
9
$DIMTXT
40
0.18
9
$DIMTXTDIRECTION
70
0
9
$DIMTZIN
70
0
9
$DIMZIN
70
0
9
$DIMFRAC
70
0
9
$DIMLTYPE
6
ByBlock
9
$DIMLTEX1
6
ByBlock
9
$DIMLTEX2
6
ByBlock
0
ENDSEC
0
SECTION
2
CLASSES
0
CLASS
1
RASTERVARIABLES
2
AcDbRasterVariables
3
ISM
90
0
280
0
281
0
0
ENDSEC
0
SECTION
2
TABLES
0
TABLE
2
APPID
5
4
330
0
100
AcDbSymbolTable
70
5
0
APPID
5
19
330
4
100
AcDbSymbolTableRecord
100
AcDbRegAppTableRecord
2
ACAD
70
0
0
APPID
5
44
330
4
100
AcDbSymbolTableRecord
100
AcDbRegAppTableRecord
2
AcCmTransparency
70
0
0
APPID
5
45
330
4
100
AcDbSymbolTableRecord
100
AcDbRegAppTableRecord
2
AcAecLayerStandard
70
0
0
APPID
5
46
330
4
100
AcDbSymbolTableRecord
100
AcDbRegAppTableRecord
2
GradientColor1ACI
70
0
0
APPID
5
47
330
4
100
AcDbSymbolTableRecord
100
AcDbRegAppTableRecord
2
GradientColor2ACI
70
0
0
ENDTAB
0
TABLE
2
VPORT
5
1
330
0
100
AcDbSymbolTable
70
1
0
VPORT
5
2
330
1
100
AcDbSymbolTableRecord
100
AcDbViewportTableRecord
2
*Active
70
0
10
0.0
20
0.0
11
1.0
21
1.0
12
0.0
22
0.0
13
0.0
23
0.0
14
0.5
24
0.5
15
10.0
25
10.0
16
0.0
26
0.0
36
1.0
17
0.0
27
0.0
37
0.0
40
10.0
41
1.0
75
0
76
1
0
ENDTAB
0
TABLE
2
LTYPE
5
7
330
0
100
AcDbSymbolTable
70
3
0
LTYPE
5
15
330
7
100
AcDbSymbolTableRecord
100
AcDbLinetypeTableRecord
2
Continuous
70
0
3
Solid line
72
65
73
0
40
0.0
0
LTYPE
5
16
330
7
100
AcDbSymbolTableRecord
100
AcDbLinetypeTableRecord
2
ByLayer
70
0
3

72
65
73
0
40
0.0
0
LTYPE
5
17
330
7
100
AcDbSymbolTableRecord
100
AcDbLinetypeTableRecord
2
ByBlock
70
0
3

72
65
73
0
40
0.0
0
ENDTAB
0
TABLE
2
LAYER
5
5
102
{ACAD_XDICTIONARY
360
6
102
}
330
0
100
AcDbSymbolTable
70
1
0
LAYER
5
14
330
5
100
AcDbSymbolTableRecord
100
AcDbLayerTableRecord
2
0
70
0
62
7
6
Continuous
290
1
370
-3
390
0
0
ENDTAB
0
TABLE
2
STYLE
5
8
330
0
100
AcDbSymbolTable
70
1
0
STYLE
5
18
330
8
100
AcDbSymbolTableRecord
100
AcDbTextStyleTableRecord
2
Standard
3
simplex.shx
70
0
71
0
40
0.0
41
1.0
42
0.0
50
0.0
0
ENDTAB
0
TABLE
2
DIMSTYLE
5
A
330
0
100
AcDbSymbolTable
70
1
100
AcDbDimStyleTable
0
DIMSTYLE
105
1A
330
A
100
AcDbSymbolTableRecord
100
AcDbDimStyleTableRecord
2
Standard
3

4

40
1.0
41
0.18
42
0.0625
43
0.38
44
0.18
45
0.0
46
0.0
47
0.0
48
0.0
49
1.0
70
0
71
0
72
0
73
0
74
0
75
0
76
0
77
0
78
0
79
0
140
0.18
141
0.09
143
25.4
144
1.0
146
1.0
147
0.09
148
0.0
170
0
171
2
172
0
174
0
175
0
176
0
177
0
178
0
179
0
271
4
272
4
273
2
274
2
275
0
276
0
277
2
278
46
279
0
280
0
281
0
282
0
283
1
284
0
285
0
286
0
289
3
290
0
294
0
340
18
173
0
345
17
346
17
347
17
371
-2
372
-2
0
ENDTAB
0
TABLE
2
VIEW
5
3
330
0
100
AcDbSymbolTable
70
0
0
ENDTAB
0
TABLE
2
UCS
5
C
330
0
100
AcDbSymbolTable
70
0
0
ENDTAB
0
TABLE
2
BLOCK_RECORD
5
D
330
0
100
AcDbSymbolTable
70
2
0
BLOCK_RECORD
5
1C
330
D
100
AcDbSymbolTableRecord
100
AcDbBlockTableRecord
2
*Model_Space
340
20
0
BLOCK_RECORD
5
3E
330
D
100
AcDbSymbolTableRecord
100
AcDbBlockTableRecord
2
*Paper_Space
340
43
0
ENDTAB
0
ENDSEC
0
SECTION
2
BLOCKS
0
BLOCK
5
1E
330
1C
100
AcDbEntity
67
0
8
0
100
AcDbBlockBegin
2
*Model_Space
70
0
10
0.0
20
0.0
30
0.0
3
*Model_Space
4

0
ENDBLK
5
1D
330
1C
100
AcDbEntity
8
0
100
AcDbBlockEnd
0
BLOCK
5
40
330
3E
100
AcDbEntity
67
1
8
0
100
AcDbBlockBegin
2
*Paper_Space
70
0
10
0.0
20
0.0
30
0.0
3
*Paper_Space
4

0
ENDBLK
5
3F
330
3E
100
AcDbEntity
8
0
100
AcDbBlockEnd
0
ENDSEC
0
SECTION
2
ENTITIES
0
LWPOLYLINE
5
22
330
1C
100
AcDbEntity
67
0
8
0
62
256
6
ByLayer
370
-1
48
1.0
60
0
100
AcDbPolyline
90
129
70
1
38
0.0
39
0.0
10
65.0090026855469
20
68.1221008300781
40
0.0
41
0.0
42
0.0
10
65.2656021118164
20
68.4886016845703
40
0.0
41
0.0
42
0.0
10
65.3386001586914
20
68.8244018554688
40
0.0
41
0.0
42
0.0
10
65.3904037475586
20
68.9858016967773
40
0.0
41
0.0
42
0.0
10
65.426399230957
20
69.1237030029297
40
0.0
41
0.0
42
0.0
10
65.5096969604492
20
69.4856033325195
40
0.0
41
0.0
42
0.0
10
65.6741027832031
20
69.9886016845703
40
0.0
41
0.0
42
0.0
10
65.924201965332
20
70.4128036499023
40
0.0
41
0.0
42
0.0
10
65.9660034179688
20
70.4924011230469
40
0.0
41
0.0
42
0.0
10
66.0098037719727
20
70.5378036499023
40
0.0
41
0.0
42
0.0
10
66.0628967285156
20
70.5458984375
40
0.0
41
0.0
42
0.0
10
66.5106964111328
20
70.7802963256836
40
0.0
41
0.0
42
0.0
10
66.6803970336914
20
70.859001159668
40
0.0
41
0.0
42
0.0
10
66.9820022583008
20
70.8000030517578
40
0.0
41
0.0
42
0.0
10
67.0192031860352
20
70.7998962402344
40
0.0
41
0.0
42
0.0
10
67.1632995605469
20
70.8099975585938
40
0.0
41
0.0
42
0.0
10
67.4841003417969
20
70.7108001708984
40
0.0
41
0.0
42
0.0
10
67.619499206543
20
70.6978988647461
40
0.0
41
0.0
42
0.0
10
67.9851989746094
20
70.5678024291992
40
0.0
41
0.0
42
0.0
10
68.1209030151367
20
70.5450973510742
40
0.0
41
0.0
42
0.0
10
68.1843032836914
20
70.5177001953125
40
0.0
41
0.0
42
0.0
10
68.2323989868164
20
70.4990997314453
40
0.0
41
0.0
42
0.0
10
68.4909973144531
20
70.3643035888672
40
0.0
41
0.0
42
0.0
10
68.9698028564453
20
70.0188980102539
40
0.0
41
0.0
42
0.0
10
68.9916000366211
20
70.0084991455078
40
0.0
41
0.0
42
0.0
10
69.0110015869141
20
69.9915008544922
40
0.0
41
0.0
42
0.0
10
69.0165023803711
20
69.9705963134766
40
0.0
41
0.0
42
0.0
10
69.1697998046875
20
69.676399230957
40
0.0
41
0.0
42
0.0
10
69.2543029785156
20
69.4853973388672
40
0.0
41
0.0
42
0.0
10
69.2744979858398
20
69.2856979370117
40
0.0
41
0.0
42
0.0
10
69.3468017578125
20
68.9828033447266
40
0.0
41
0.0
42
0.0
10
69.3556976318359
20
68.7667999267578
40
0.0
41
0.0
42
0.0
10
69.3983993530273
20
68.4917984008789
40
0.0
41
0.0
42
0.0
10
69.3893966674805
20
68.3342971801758
40
0.0
41
0.0
42
0.0
10
69.3892974853516
20
68.2960968017578
40
0.0
41
0.0
42
0.0
10
69.4197998046875
20
68.0073013305664
40
0.0
41
0.0
42
0.0
10
69.4086990356445
20
67.9691009521484
40
0.0
41
0.0
42
0.0
10
69.3604965209961
20
67.8786010742188
40
0.0
41
0.0
42
0.0
10
69.3564987182617
20
67.8438034057617
40
0.0
41
0.0
42
0.0
10
69.3584976196289
20
67.5158996582031
40
0.0
41
0.0
42
0.0
10
69.2501983642578
20
67.1827011108398
40
0.0
41
0.0
42
0.0
10
69.1337966918945
20
67.0856018066406
40
0.0
41
0.0
42
0.0
10
69.0272979736328
20
67.0037994384766
40
0.0
41
0.0
42
0.0
10
68.9912033081055
20
66.9714965820312
40
0.0
41
0.0
42
0.0
10
68.9094009399414
20
66.9382019042969
40
0.0
41
0.0
42
0.0
10
68.4856033325195
20
66.7575988769531
40
0.0
41
0.0
42
0.0
10
68.3080978393555
20
66.7332000732422
40
0.0
41
0.0
42
0.0
10
67.9816970825195
20
66.6807022094727
40
0.0
41
0.0
42
0.0
10
67.8057022094727
20
66.6797027587891
40
0.0
41
0.0
42
0.0
10
67.5
20
66.6589965820312
40
0.0
41
0.0
42
0.0
10
67.3477020263672
20
66.6704025268555
40
0.0
41
0.0
42
0.0
10
67.3093032836914
20
66.6703033447266
40
0.0
41
0.0
42
0.0
10
66.9835968017578
20
66.6449966430664
40
0.0
41
0.0
42
0.0
10
66.4990997314453
20
66.5126037597656
40
0.0
41
0.0
42
0.0
10
66.4915008544922
20
66.5126037597656
40
0.0
41
0.0
42
0.0
10
66.2501983642578
20
66.1880035400391
40
0.0
41
0.0
42
0.0
10
66.2500991821289
20
66.1572036743164
40
0.0
41
0.0
42
0.0
10
66.2876968383789
20
65.9851989746094
40
0.0
41
0.0
42
0.0
10
66.3317031860352
20
65.8357009887695
40
0.0
41
0.0
42
0.0
10
66.3320999145508
20
65.4824981689453
40
0.0
41
0.0
42
0.0
10
66.4199981689453
20
65.1212005615234
40
0.0
41
0.0
42
0.0
10
66.466796875
20
65.0009994506836
40
0.0
41
0.0
42
0.0
10
66.4854965209961
20
65.0009994506836
40
0.0
41
0.0
42
0.0
10
66.4853973388672
20
65.015998840332
40
0.0
41
0.0
42
0.0
10
66.4181976318359
20
65.1885986328125
40
0.0
41
0.0
42
0.0
10
66.3384017944336
20
65.5174026489258
40
0.0
41
0.0
42
0.0
10
66.3379974365234
20
65.8427963256836
40
0.0
41
0.0
42
0.0
10
66.3303985595703
20
65.8797988891602
40
0.0
41
0.0
42
0.0
10
66.2904968261719
20
66.0147018432617
40
0.0
41
0.0
42
0.0
10
66.2657012939453
20
66.1287994384766
40
0.0
41
0.0
42
0.0
10
66.465202331543
20
66.3964996337891
40
0.0
41
0.0
42
0.0
10
66.5066986083984
20
66.4586029052734
40
0.0
41
0.0
42
0.0
10
66.6460037231445
20
66.5000991821289
40
0.0
41
0.0
42
0.0
10
67.0162963867188
20
66.6014022827148
40
0.0
41
0.0
42
0.0
10
67.3714981079102
20
66.6289978027344
40
0.0
41
0.0
42
0.0
10
67.4806976318359
20
66.6207962036133
40
0.0
41
0.0
42
0.0
10
67.5192031860352
20
66.6206970214844
40
0.0
41
0.0
42
0.0
10
67.8842010498047
20
66.6455993652344
40
0.0
41
0.0
42
0.0
10
68.0182037353516
20
66.6463012695312
40
0.0
41
0.0
42
0.0
10
68.3817977905273
20
66.7050018310547
40
0.0
41
0.0
42
0.0
10
68.5142974853516
20
66.7232971191406
40
0.0
41
0.0
42
0.0
10
68.8369979858398
20
66.8607025146484
40
0.0
41
0.0
42
0.0
10
69.0086975097656
20
66.9306030273438
40
0.0
41
0.0
42
0.0
10
69.0821990966797
20
66.9962005615234
40
0.0
41
0.0
42
0.0
10
69.1648025512695
20
67.0596008300781
40
0.0
41
0.0
42
0.0
10
69.2457962036133
20
67.127197265625
40
0.0
41
0.0
42
0.0
10
69.3616027832031
20
67.4832000732422
40
0.0
41
0.0
42
0.0
10
69.3595962524414
20
67.8197021484375
40
0.0
41
0.0
42
0.0
10
69.4196014404297
20
67.9322967529297
40
0.0
41
0.0
42
0.0
10
69.4343032836914
20
67.9825973510742
40
0.0
41
0.0
42
0.0
10
69.434196472168
20
68.018798828125
40
0.0
41
0.0
42
0.0
10
69.408203125
20
68.2654037475586
40
0.0
41
0.0
42
0.0
10
69.4206008911133
20
68.480598449707
40
0.0
41
0.0
42
0.0
10
69.4206008911133
20
68.5183029174805
40
0.0
41
0.0
42
0.0
10
69.3862991333008
20
68.7389984130859
40
0.0
41
0.0
42
0.0
10
69.3748016357422
20
69.0169982910156
40
0.0
41
0.0
42
0.0
10
69.3168029785156
20
69.2601013183594
40
0.0
41
0.0
42
0.0
10
69.2910995483398
20
69.5145034790039
40
0.0
41
0.0
42
0.0
10
69.2225036621094
20
69.6692962646484
40
0.0
41
0.0
42
0.0
10
69.0914001464844
20
69.9208984375
40
0.0
41
0.0
42
0.0
10
69.0683975219727
20
70.0083999633789
40
0.0
41
0.0
42
0.0
10
69.00830078125
20
70.0612030029297
40
0.0
41
0.0
42
0.0
10
68.8964004516602
20
70.114501953125
40
0.0
41
0.0
42
0.0
10
68.5087966918945
20
70.3939971923828
40
0.0
41
0.0
42
0.0
10
68.3039016723633
20
70.5009002685547
40
0.0
41
0.0
42
0.0
10
68.1891021728516
20
70.548698425293
40
0.0
41
0.0
42
0.0
10
68.0147018432617
20
70.5779037475586
40
0.0
41
0.0
42
0.0
10
67.690299987793
20
70.6932983398438
40
0.0
41
0.0
42
0.0
10
67.5158004760742
20
70.7099990844727
40
0.0
41
0.0
42
0.0
10
67.1518020629883
20
70.8220977783203
40
0.0
41
0.0
42
0.0
10
67.1156997680664
20
70.8219985961914
40
0.0
41
0.0
42
0.0
10
67.0081024169922
20
70.8143997192383
40
0.0
41
0.0
42
0.0
10
66.6529006958008
20
70.8841018676758
40
0.0
41
0.0
42
0.0
10
66.6195983886719
20
70.8840026855469
40
0.0
41
0.0
42
0.0
10
66.4893035888672
20
70.823600769043
40
0.0
41
0.0
42
0.0
10
66.1391983032227
20
70.6402969360352
40
0.0
41
0.0
42
0.0
10
65.9901962280273
20
70.6177978515625
40
0.0
41
0.0
42
0.0
10
65.8843002319336
20
70.5075988769531
40
0.0
41
0.0
42
0.0
10
65.7603988647461
20
70.2720031738281
40
0.0
41
0.0
42
0.0
10
65.6067962646484
20
70.0112991333008
40
0.0
41
0.0
42
0.0
10
65.4999008178711
20
69.6832962036133
40
0.0
41
0.0
42
0.0
10
65.4477005004883
20
69.5145034790039
40
0.0
41
0.0
42
0.0
10
65.3836975097656
20
69.2362976074219
40
0.0
41
0.0
42
0.0
10
65.325798034668
20
69.0140991210938
40
0.0
41
0.0
42
0.0
10
65.2434005737305
20
68.757698059082
40
0.0
41
0.0
42
0.0
10
65.1899032592773
20
68.5113983154297
40
0.0
41
0.0
42
0.0
10
65.0009994506836
20
68.2415008544922
40
0.0
41
0.0
42
0.0
10
65.0009994506836
20
68.1221008300781
40
0.0
41
0.0
42
0.0
10
65.0090026855469
20
68.1221008300781
40
0.0
41
0.0
42
0.0
210
0.0
220
0.0
230
1.0
0
LWPOLYLINE
5
23
330
1C
100
AcDbEntity
67
0
8
0
62
256
6
ByLayer
370
-1
48
1.0
60
0
100
AcDbPolyline
90
89
70
1
38
0.0
39
0.0
10
65.0009994506836
20
73.5457000732422
40
0.0
41
0.0
42
0.0
10
65.0184020996094
20
73.5457000732422
40
0.0
41
0.0
42
0.0
10
65.3607025146484
20
73.5958023071289
40
0.0
41
0.0
42
0.0
10
65.4830017089844
20
73.5602035522461
40
0.0
41
0.0
42
0.0
10
65.5179977416992
20
73.5600967407227
40
0.0
41
0.0
42
0.0
10
65.6477966308594
20
73.5839004516602
40
0.0
41
0.0
42
0.0
10
65.6829986572266
20
73.6035003662109
40
0.0
41
0.0
42
0.0
10
66.0043029785156
20
73.8737030029297
40
0.0
41
0.0
42
0.0
10
66.0374984741211
20
73.9206008911133
40
0.0
41
0.0
42
0.0
10
66.1483001708984
20
73.9955978393555
40
0.0
41
0.0
42
0.0
10
66.4131011962891
20
74.3207015991211
40
0.0
41
0.0
42
0.0
10
66.4781036376953
20
74.3634033203125
40
0.0
41
0.0
42
0.0
10
66.5046997070312
20
74.3945999145508
40
0.0
41
0.0
42
0.0
10
66.6125030517578
20
74.495002746582
40
0.0
41
0.0
42
0.0
10
66.6458969116211
20
74.5294036865234
40
0.0
41
0.0
42
0.0
10
66.8488998413086
20
74.8181991577148
40
0.0
41
0.0
42
0.0
10
66.8815994262695
20
74.8531036376953
40
0.0
41
0.0
42
0.0
10
66.9747009277344
20
74.9906005859375
40
0.0
41
0.0
42
0.0
10
67.0018005371094
20
75.0449981689453
40
0.0
41
0.0
42
0.0
10
67.1320037841797
20
75.2368011474609
40
0.0
41
0.0
42
0.0
10
67.1756973266602
20
75.3147964477539
40
0.0
41
0.0
42
0.0
10
67.2200012207031
20
75.4029998779297
40
0.0
41
0.0
42
0.0
10
67.2540969848633
20
75.4853973388672
40
0.0
41
0.0
42
0.0
10
67.2895965576172
20
75.7651977539062
40
0.0
41
0.0
42
0.0
10
67.2894973754883
20
75.8031997680664
40
0.0
41
0.0
42
0.0
10
67.2759017944336
20
76.0139007568359
40
0.0
41
0.0
42
0.0
10
67.179801940918
20
76.1872024536133
40
0.0
41
0.0
42
0.0
10
67.0981979370117
20
76.5129013061523
40
0.0
41
0.0
42
0.0
10
67.0959014892578
20
76.5176010131836
40
0.0
41
0.0
42
0.0
10
67.0031967163086
20
76.6460037231445
40
0.0
41
0.0
42
0.0
10
66.9657974243164
20
76.6923980712891
40
0.0
41
0.0
42
0.0
10
66.8283004760742
20
77.011100769043
40
0.0
41
0.0
42
0.0
10
66.6699981689453
20
77.3341979980469
40
0.0
41
0.0
42
0.0
10
66.6434020996094
20
77.3720016479492
40
0.0
41
0.0
42
0.0
10
66.5261001586914
20
77.5083999633789
40
0.0
41
0.0
42
0.0
10
66.5028991699219
20
77.5582962036133
40
0.0
41
0.0
42
0.0
10
66.4848022460938
20
77.572998046875
40
0.0
41
0.0
42
0.0
10
66.3703002929688
20
77.6399002075195
40
0.0
41
0.0
42
0.0
10
66.1658020019531
20
77.936897277832
40
0.0
41
0.0
42
0.0
10
66.0991973876953
20
78.0064010620117
40
0.0
41
0.0
42
0.0
10
66.007698059082
20
78.1312026977539
40
0.0
41
0.0
42
0.0
10
65.8030014038086
20
78.1748962402344
40
0.0
41
0.0
42
0.0
10
65.5160980224609
20
78.2850036621094
40
0.0
41
0.0
42
0.0
10
65.4823989868164
20
78.2848968505859
40
0.0
41
0.0
42
0.0
10
65.2059020996094
20
78.2185974121094
40
0.0
41
0.0
42
0.0
10
65.0009994506836
20
78.1809997558594
40
0.0
41
0.0
42
0.0
10
65.0009994506836
20
78.1130981445312
40
0.0
41
0.0
42
0.0
10
65.0179977416992
20
78.1129989624023
40
0.0
41
0.0
42
0.0
10
65.1547012329102
20
78.1380996704102
40
0.0
41
0.0
42
0.0
10
65.4968032836914
20
78.220100402832
40
0.0
41
0.0
42
0.0
10
65.7126007080078
20
78.1374969482422
40
0.0
41
0.0
42
0.0
10
65.9921035766602
20
78.0776977539062
40
0.0
41
0.0
42
0.0
10
66.0538024902344
20
77.9934005737305
40
0.0
41
0.0
42
0.0
10
66.1406021118164
20
77.9029006958008
40
0.0
41
0.0
42
0.0
10
66.3195037841797
20
77.6430969238281
40
0.0
41
0.0
42
0.0
10
66.4618988037109
20
77.5598983764648
40
0.0
41
0.0
42
0.0
10
66.4969024658203
20
77.5315017700195
40
0.0
41
0.0
42
0.0
10
66.5155029296875
20
77.4914016723633
40
0.0
41
0.0
42
0.0
10
66.6458969116211
20
77.3397979736328
40
0.0
41
0.0
42
0.0
10
66.8179016113281
20
76.9887008666992
40
0.0
41
0.0
42
0.0
10
66.9702987670898
20
76.6352996826172
40
0.0
41
0.0
42
0.0
10
66.9965972900391
20
76.6027984619141
40
0.0
41
0.0
42
0.0
10
67.07080078125
20
76.5
40
0.0
41
0.0
42
0.0
10
67.0768966674805
20
76.4869995117188
40
0.0
41
0.0
42
0.0
10
67.1681976318359
20
76.1227035522461
40
0.0
41
0.0
42
0.0
10
67.243896484375
20
75.9860000610352
40
0.0
41
0.0
42
0.0
10
67.2534027099609
20
75.8391036987305
40
0.0
41
0.0
42
0.0
10
67.2125015258789
20
75.5145034790039
40
0.0
41
0.0
42
0.0
10
67.1837005615234
20
75.4450988769531
40
0.0
41
0.0
42
0.0
10
67.1484985351562
20
75.3750991821289
40
0.0
41
0.0
42
0.0
10
67.0980987548828
20
75.2850036621094
40
0.0
41
0.0
42
0.0
10
66.9981002807617
20
75.1377029418945
40
0.0
41
0.0
42
0.0
10
66.9344024658203
20
75.0093994140625
40
0.0
41
0.0
42
0.0
10
66.8594970703125
20
74.8988037109375
40
0.0
41
0.0
42
0.0
10
66.8339996337891
20
74.871696472168
40
0.0
41
0.0
42
0.0
10
66.6059036254883
20
74.5468978881836
40
0.0
41
0.0
42
0.0
10
66.5651016235352
20
74.5048980712891
40
0.0
41
0.0
42
0.0
10
66.4951019287109
20
74.439697265625
40
0.0
41
0.0
42
0.0
10
66.4627990722656
20
74.4018020629883
40
0.0
41
0.0
42
0.0
10
66.4130020141602
20
74.3692016601562
40
0.0
41
0.0
42
0.0
10
66.1157989501953
20
74.0043029785156
40
0.0
41
0.0
42
0.0
10
66.0314025878906
20
73.9471969604492
40
0.0
41
0.0
42
0.0
10
65.9954986572266
20
73.8964996337891
40
0.0
41
0.0
42
0.0
10
65.6468963623047
20
73.6033020019531
40
0.0
41
0.0
42
0.0
10
65.5034027099609
20
73.5770034790039
40
0.0
41
0.0
42
0.0
10
65.3419036865234
20
73.6242980957031
40
0.0
41
0.0
42
0.0
10
65.3065032958984
20
73.6241989135742
40
0.0
41
0.0
42
0.0
10
65.0009994506836
20
73.5791015625
40
0.0
41
0.0
42
0.0
10
65.0009994506836
20
73.5457000732422
40
0.0
41
0.0
42
0.0
210
0.0
220
0.0
230
1.0
0
LWPOLYLINE
5
24
330
1C
100
AcDbEntity
67
0
8
0
62
256
6
ByLayer
370
-1
48
1.0
60
0
100
AcDbPolyline
90
140
70
1
38
0.0
39
0.0
10
65.015998840332
20
83.5142974853516
40
0.0
41
0.0
42
0.0
10
65.1885986328125
20
83.5814971923828
40
0.0
41
0.0
42
0.0
10
65.5145034790039
20
83.6607971191406
40
0.0
41
0.0
42
0.0
10
65.6796035766602
20
83.7093963623047
40
0.0
41
0.0
42
0.0
10
66.0177001953125
20
83.7098007202148
40
0.0
41
0.0
42
0.0
10
66.1288986206055
20
83.734001159668
40
0.0
41
0.0
42
0.0
10
66.3964004516602
20
83.5345001220703
40
0.0
41
0.0
42
0.0
10
66.4586029052734
20
83.4932022094727
40
0.0
41
0.0
42
0.0
10
66.4997024536133
20
83.3550033569336
40
0.0
41
0.0
42
0.0
10
66.605598449707
20
83.0947036743164
40
0.0
41
0.0
42
0.0
10
66.6015014648438
20
83.019401550293
40
0.0
41
0.0
42
0.0
10
66.6016006469727
20
82.9807968139648
40
0.0
41
0.0
42
0.0
10
66.6289978027344
20
82.6284027099609
40
0.0
41
0.0
42
0.0
10
66.6207962036133
20
82.5192031860352
40
0.0
41
0.0
42
0.0
10
66.6206970214844
20
82.4806976318359
40
0.0
41
0.0
42
0.0
10
66.6455993652344
20
82.1156997680664
40
0.0
41
0.0
42
0.0
10
66.6463012695312
20
81.9816970825195
40
0.0
41
0.0
42
0.0
10
66.7050018310547
20
81.6181030273438
40
0.0
41
0.0
42
0.0
10
66.7231979370117
20
81.4856033325195
40
0.0
41
0.0
42
0.0
10
66.8607025146484
20
81.1628036499023
40
0.0
41
0.0
42
0.0
10
66.9304962158203
20
80.9912033081055
40
0.0
41
0.0
42
0.0
10
66.9961013793945
20
80.9175033569336
40
0.0
41
0.0
42
0.0
10
67.0596008300781
20
80.8349990844727
40
0.0
41
0.0
42
0.0
10
67.1270980834961
20
80.7539978027344
40
0.0
41
0.0
42
0.0
10
67.4832000732422
20
80.6380996704102
40
0.0
41
0.0
42
0.0
10
67.8197021484375
20
80.6400985717773
40
0.0
41
0.0
42
0.0
10
67.9322967529297
20
80.5801010131836
40
0.0
41
0.0
42
0.0
10
67.9825973510742
20
80.5655975341797
40
0.0
41
0.0
42
0.0
10
68.018798828125
20
80.5654983520508
40
0.0
41
0.0
42
0.0
10
68.2654037475586
20
80.5914993286133
40
0.0
41
0.0
42
0.0
10
68.480598449707
20
80.5791015625
40
0.0
41
0.0
42
0.0
10
68.5184020996094
20
80.5791015625
40
0.0
41
0.0
42
0.0
10
68.7389984130859
20
80.6134033203125
40
0.0
41
0.0
42
0.0
10
69.0170974731445
20
80.6249008178711
40
0.0
41
0.0
42
0.0
10
69.2602005004883
20
80.6828994750977
40
0.0
41
0.0
42
0.0
10
69.5145034790039
20
80.7086029052734
40
0.0
41
0.0
42
0.0
10
69.6692962646484
20
80.7771987915039
40
0.0
41
0.0
42
0.0
10
69.9208984375
20
80.9083023071289
40
0.0
41
0.0
42
0.0
10
70.0083999633789
20
80.9312973022461
40
0.0
41
0.0
42
0.0
10
70.0637969970703
20
80.9945983886719
40
0.0
41
0.0
42
0.0
10
70.1619033813477
20
81.0869979858398
40
0.0
41
0.0
42
0.0
10
70.3410034179688
20
81.315299987793
40
0.0
41
0.0
42
0.0
10
70.3569030761719
20
81.3584976196289
40
0.0
41
0.0
42
0.0
10
70.3923034667969
20
81.4877014160156
40
0.0
41
0.0
42
0.0
10
70.5009002685547
20
81.6958999633789
40
0.0
41
0.0
42
0.0
10
70.5487976074219
20
81.8107986450195
40
0.0
41
0.0
42
0.0
10
70.5779037475586
20
81.9851989746094
40
0.0
41
0.0
42
0.0
10
70.6932983398438
20
82.3096008300781
40
0.0
41
0.0
42
0.0
10
70.7099990844727
20
82.4841003417969
40
0.0
41
0.0
42
0.0
10
70.8220977783203
20
82.8480987548828
40
0.0
41
0.0
42
0.0
10
70.8219985961914
20
82.8842010498047
40
0.0
41
0.0
42
0.0
10
70.8143997192383
20
82.9917984008789
40
0.0
41
0.0
42
0.0
10
70.8841018676758
20
83.3470001220703
40
0.0
41
0.0
42
0.0
10
70.8840026855469
20
83.3803024291992
40
0.0
41
0.0
42
0.0
10
70.8235015869141
20
83.5105972290039
40
0.0
41
0.0
42
0.0
10
70.6402969360352
20
83.8607025146484
40
0.0
41
0.0
42
0.0
10
70.6176986694336
20
84.0096969604492
40
0.0
41
0.0
42
0.0
10
70.5074996948242
20
84.1154022216797
40
0.0
41
0.0
42
0.0
10
70.2718963623047
20
84.2393035888672
40
0.0
41
0.0
42
0.0
10
70.0108032226562
20
84.3933029174805
40
0.0
41
0.0
42
0.0
10
69.9348983764648
20
84.4217987060547
40
0.0
41
0.0
42
0.0
10
69.5145034790039
20
84.552001953125
40
0.0
41
0.0
42
0.0
10
69.236198425293
20
84.6159973144531
40
0.0
41
0.0
42
0.0
10
69.0140991210938
20
84.6738967895508
40
0.0
41
0.0
42
0.0
10
68.757698059082
20
84.7563018798828
40
0.0
41
0.0
42
0.0
10
68.5152969360352
20
84.8088989257812
40
0.0
41
0.0
42
0.0
10
68.3541030883789
20
84.8475036621094
40
0.0
41
0.0
42
0.0
10
68.2378005981445
20
84.9990005493164
40
0.0
41
0.0
42
0.0
10
68.1221008300781
20
84.9990005493164
40
0.0
41
0.0
42
0.0
10
68.1220016479492
20
84.9870986938477
40
0.0
41
0.0
42
0.0
10
68.2778015136719
20
84.7844009399414
40
0.0
41
0.0
42
0.0
10
68.4845962524414
20
84.7350006103516
40
0.0
41
0.0
42
0.0
10
68.8244018554688
20
84.6611022949219
40
0.0
41
0.0
42
0.0
10
68.9858016967773
20
84.6092987060547
40
0.0
41
0.0
42
0.0
10
69.1235961914062
20
84.5733032226562
40
0.0
41
0.0
42
0.0
10
69.4853973388672
20
84.4900970458984
40
0.0
41
0.0
42
0.0
10
69.8608016967773
20
84.3738021850586
40
0.0
41
0.0
42
0.0
10
69.9889984130859
20
84.3254013061523
40
0.0
41
0.0
42
0.0
10
70.4126968383789
20
84.0755004882812
40
0.0
41
0.0
42
0.0
10
70.492301940918
20
84.0337982177734
40
0.0
41
0.0
42
0.0
10
70.5378036499023
20
83.9900970458984
40
0.0
41
0.0
42
0.0
10
70.5458984375
20
83.936897277832
40
0.0
41
0.0
42
0.0
10
70.7801971435547
20
83.4891967773438
40
0.0
41
0.0
42
0.0
10
70.859001159668
20
83.3195037841797
40
0.0
41
0.0
42
0.0
10
70.8000030517578
20
83.0178985595703
40
0.0
41
0.0
42
0.0
10
70.7998962402344
20
82.9806976318359
40
0.0
41
0.0
42
0.0
10
70.8099975585938
20
82.8366012573242
40
0.0
41
0.0
42
0.0
10
70.7108001708984
20
82.5158004760742
40
0.0
41
0.0
42
0.0
10
70.697998046875
20
82.3804016113281
40
0.0
41
0.0
42
0.0
10
70.5678024291992
20
82.0147018432617
40
0.0
41
0.0
42
0.0
10
70.5450973510742
20
81.8789978027344
40
0.0
41
0.0
42
0.0
10
70.5177001953125
20
81.8154983520508
40
0.0
41
0.0
42
0.0
10
70.4990997314453
20
81.7674026489258
40
0.0
41
0.0
42
0.0
10
70.366096496582
20
81.5121994018555
40
0.0
41
0.0
42
0.0
10
70.3394012451172
20
81.4148025512695
40
0.0
41
0.0
42
0.0
10
70.3245010375977
20
81.3746032714844
40
0.0
41
0.0
42
0.0
10
70.1169967651367
20
81.1099014282227
40
0.0
41
0.0
42
0.0
10
70.0059967041016
20
81.0053024291992
40
0.0
41
0.0
42
0.0
10
69.9916000366211
20
80.9887008666992
40
0.0
41
0.0
42
0.0
10
69.9705963134766
20
80.9832000732422
40
0.0
41
0.0
42
0.0
10
69.6764984130859
20
80.8299026489258
40
0.0
41
0.0
42
0.0
10
69.4853973388672
20
80.7453994750977
40
0.0
41
0.0
42
0.0
10
69.2857971191406
20
80.7251968383789
40
0.0
41
0.0
42
0.0
10
68.9829025268555
20
80.6529006958008
40
0.0
41
0.0
42
0.0
10
68.7667999267578
20
80.6439971923828
40
0.0
41
0.0
42
0.0
10
68.4917984008789
20
80.6013031005859
40
0.0
41
0.0
42
0.0
10
68.3342971801758
20
80.6104965209961
40
0.0
41
0.0
42
0.0
10
68.2960968017578
20
80.6103973388672
40
0.0
41
0.0
42
0.0
10
68.0074005126953
20
80.5800018310547
40
0.0
41
0.0
42
0.0
10
67.9691009521484
20
80.5910034179688
40
0.0
41
0.0
42
0.0
10
67.8786010742188
20
80.6391983032227
40
0.0
41
0.0
42
0.0
10
67.8438034057617
20
80.6432037353516
40
0.0
41
0.0
42
0.0
10
67.5158996582031
20
80.6411972045898
40
0.0
41
0.0
42
0.0
10
67.1826019287109
20
80.7496032714844
40
0.0
41
0.0
42
0.0
10
67.0856018066406
20
80.8659973144531
40
0.0
41
0.0
42
0.0
10
67.0037002563477
20
80.9725036621094
40
0.0
41
0.0
42
0.0
10
66.9714965820312
20
81.0085983276367
40
0.0
41
0.0
42
0.0
10
66.9382019042969
20
81.0903015136719
40
0.0
41
0.0
42
0.0
10
66.7575988769531
20
81.5142974853516
40
0.0
41
0.0
42
0.0
10
66.7332000732422
20
81.6918029785156
40
0.0
41
0.0
42
0.0
10
66.6807022094727
20
82.0182037353516
40
0.0
41
0.0
42
0.0
10
66.6797027587891
20
82.1941986083984
40
0.0
41
0.0
42
0.0
10
66.6589965820312
20
82.4999008178711
40
0.0
41
0.0
42
0.0
10
66.6704025268555
20
82.652099609375
40
0.0
41
0.0
42
0.0
10
66.6703033447266
20
82.6904983520508
40
0.0
41
0.0
42
0.0
10
66.6460037231445
20
83.0031967163086
40
0.0
41
0.0
42
0.0
10
66.6532974243164
20
83.1348037719727
40
0.0
41
0.0
42
0.0
10
66.6531982421875
20
83.1700973510742
40
0.0
41
0.0
42
0.0
10
66.5166015625
20
83.5056991577148
40
0.0
41
0.0
42
0.0
10
66.5080032348633
20
83.5110015869141
40
0.0
41
0.0
42
0.0
10
66.1880035400391
20
83.7497024536133
40
0.0
41
0.0
42
0.0
10
66.1572036743164
20
83.7496032714844
40
0.0
41
0.0
42
0.0
10
65.9822006225586
20
83.7115020751953
40
0.0
41
0.0
42
0.0
10
65.6558990478516
20
83.7110977172852
40
0.0
41
0.0
42
0.0
10
65.618896484375
20
83.7078018188477
40
0.0
41
0.0
42
0.0
10
65.4853973388672
20
83.6682968139648
40
0.0
41
0.0
42
0.0
10
65.1212997436523
20
83.5798034667969
40
0.0
41
0.0
42
0.0
10
65.0009994506836
20
83.5329971313477
40
0.0
41
0.0
42
0.0
10
65.0009994506836
20
83.5143966674805
40
0.0
41
0.0
42
0.0
10
65.015998840332
20
83.5142974853516
40
0.0
41
0.0
42
0.0
210
0.0
220
0.0
230
1.0
0
LWPOLYLINE
5
25
330
1C
100
AcDbEntity
67
0
8
0
62
256
6
ByLayer
370
-1
48
1.0
60
0
100
AcDbPolyline
90
223
70
1
38
0.0
39
0.0
10
69.6854019165039
20
75.484001159668
40
0.0
41
0.0
42
0.0
10
69.7544021606445
20
75.313102722168
40
0.0
41
0.0
42
0.0
10
69.8973999023438
20
74.9932022094727
40
0.0
41
0.0
42
0.0
10
69.9438018798828
20
74.9568023681641
40
0.0
41
0.0
42
0.0
10
70.1364974975586
20
74.8386001586914
40
0.0
41
0.0
42
0.0
10
70.491096496582
20
74.5606002807617
40
0.0
41
0.0
42
0.0
10
70.5501022338867
20
74.5317001342773
40
0.0
41
0.0
42
0.0
10
70.9134979248047
20
74.2958984375
40
0.0
41
0.0
42
0.0
10
70.9872970581055
20
74.263801574707
40
0.0
41
0.0
42
0.0
10
71.1233978271484
20
74.2201995849609
40
0.0
41
0.0
42
0.0
10
71.4881973266602
20
74.0139999389648
40
0.0
41
0.0
42
0.0
10
71.540397644043
20
73.9981994628906
40
0.0
41
0.0
42
0.0
10
71.4994964599609
20
73.9197006225586
40
0.0
41
0.0
42
0.0
10
71.4501037597656
20
73.746696472168
40
0.0
41
0.0
42
0.0
10
71.4158020019531
20
73.5113983154297
40
0.0
41
0.0
42
0.0
10
71.3640975952148
20
73.4449996948242
40
0.0
41
0.0
42
0.0
10
71.3133010864258
20
73.3740005493164
40
0.0
41
0.0
42
0.0
10
71.1242980957031
20
73.0100021362305
40
0.0
41
0.0
42
0.0
10
71.0485992431641
20
72.8753967285156
40
0.0
41
0.0
42
0.0
10
71.0393981933594
20
72.8554000854492
40
0.0
41
0.0
42
0.0
10
70.999397277832
20
72.7535018920898
40
0.0
41
0.0
42
0.0
10
70.8989028930664
20
72.5134963989258
40
0.0
41
0.0
42
0.0
10
70.8927001953125
20
72.4871978759766
40
0.0
41
0.0
42
0.0
10
70.8554000854492
20
72.3798980712891
40
0.0
41
0.0
42
0.0
10
70.8010025024414
20
72.0184020996094
40
0.0
41
0.0
42
0.0
10
70.8009033203125
20
71.9820022583008
40
0.0
41
0.0
42
0.0
10
70.8271026611328
20
71.8506011962891
40
0.0
41
0.0
42
0.0
10
70.8406982421875
20
71.8132019042969
40
0.0
41
0.0
42
0.0
10
70.9829025268555
20
71.5241012573242
40
0.0
41
0.0
42
0.0
10
70.9919967651367
20
71.5160980224609
40
0.0
41
0.0
42
0.0
10
71.0223007202148
20
71.4998016357422
40
0.0
41
0.0
42
0.0
10
71.1809997558594
20
71.4661026000977
40
0.0
41
0.0
42
0.0
10
71.309196472168
20
71.4330978393555
40
0.0
41
0.0
42
0.0
10
71.4815979003906
20
71.4058990478516
40
0.0
41
0.0
42
0.0
10
71.5177993774414
20
71.4057998657227
40
0.0
41
0.0
42
0.0
10
71.668098449707
20
71.4366989135742
40
0.0
41
0.0
42
0.0
10
72.0162963867188
20
71.4704971313477
40
0.0
41
0.0
42
0.0
10
72.1246032714844
20
71.4981002807617
40
0.0
41
0.0
42
0.0
10
72.2595977783203
20
71.5513000488281
40
0.0
41
0.0
42
0.0
10
72.5119018554688
20
71.614501953125
40
0.0
41
0.0
42
0.0
10
72.6468963623047
20
71.6937026977539
40
0.0
41
0.0
42
0.0
10
73.0078964233398
20
71.7846984863281
40
0.0
41
0.0
42
0.0
10
73.4925994873047
20
71.4953994750977
40
0.0
41
0.0
42
0.0
10
73.4991989135742
20
71.4845962524414
40
0.0
41
0.0
42
0.0
10
73.5562973022461
20
71.2870025634766
40
0.0
41
0.0
42
0.0
10
73.5999984741211
20
71.1194000244141
40
0.0
41
0.0
42
0.0
10
73.6229019165039
20
70.9845962524414
40
0.0
41
0.0
42
0.0
10
73.6603012084961
20
70.8515014648438
40
0.0
41
0.0
42
0.0
10
73.7998962402344
20
70.4887008666992
40
0.0
41
0.0
42
0.0
10
73.9813003540039
20
70.1511993408203
40
0.0
41
0.0
42
0.0
10
73.9987030029297
20
70.1016006469727
40
0.0
41
0.0
42
0.0
10
74.0543975830078
20
70.0222015380859
40
0.0
41
0.0
42
0.0
10
74.0908966064453
20
69.9947967529297
40
0.0
41
0.0
42
0.0
10
74.4123992919922
20
69.7786026000977
40
0.0
41
0.0
42
0.0
10
74.4897994995117
20
69.6855010986328
40
0.0
41
0.0
42
0.0
10
74.5158996582031
20
69.6854019165039
40
0.0
41
0.0
42
0.0
10
74.6866989135742
20
69.7544021606445
40
0.0
41
0.0
42
0.0
10
75.0065994262695
20
69.8974990844727
40
0.0
41
0.0
42
0.0
10
75.0429000854492
20
69.9437026977539
40
0.0
41
0.0
42
0.0
10
75.0717010498047
20
69.9918975830078
40
0.0
41
0.0
42
0.0
10
75.3270034790039
20
70.3177032470703
40
0.0
41
0.0
42
0.0
10
75.356201171875
20
70.3567962646484
40
0.0
41
0.0
42
0.0
10
75.4385986328125
20
70.4900970458984
40
0.0
41
0.0
42
0.0
10
75.4681015014648
20
70.5502014160156
40
0.0
41
0.0
42
0.0
10
75.7037963867188
20
70.9134979248047
40
0.0
41
0.0
42
0.0
10
75.7359008789062
20
70.9873962402344
40
0.0
41
0.0
42
0.0
10
75.7795028686523
20
71.1233978271484
40
0.0
41
0.0
42
0.0
10
75.9857025146484
20
71.4882965087891
40
0.0
41
0.0
42
0.0
10
76.0018005371094
20
71.540397644043
40
0.0
41
0.0
42
0.0
10
76.0801010131836
20
71.4994964599609
40
0.0
41
0.0
42
0.0
10
76.2530975341797
20
71.4499969482422
40
0.0
41
0.0
42
0.0
10
76.4885025024414
20
71.4158020019531
40
0.0
41
0.0
42
0.0
10
76.554801940918
20
71.3639984130859
40
0.0
41
0.0
42
0.0
10
76.6259002685547
20
71.3132019042969
40
0.0
41
0.0
42
0.0
10
76.9898986816406
20
71.1242980957031
40
0.0
41
0.0
42
0.0
10
77.1244964599609
20
71.0485992431641
40
0.0
41
0.0
42
0.0
10
77.144401550293
20
71.0393981933594
40
0.0
41
0.0
42
0.0
10
77.2462997436523
20
70.9992980957031
40
0.0
41
0.0
42
0.0
10
77.4863967895508
20
70.8989028930664
40
0.0
41
0.0
42
0.0
10
77.5126037597656
20
70.8927001953125
40
0.0
41
0.0
42
0.0
10
77.620002746582
20
70.8554000854492
40
0.0
41
0.0
42
0.0
10
77.9814987182617
20
70.8010025024414
40
0.0
41
0.0
42
0.0
10
78.0178985595703
20
70.8009033203125
40
0.0
41
0.0
42
0.0
10
78.149299621582
20
70.8271026611328
40
0.0
41
0.0
42
0.0
10
78.1866989135742
20
70.8407974243164
40
0.0
41
0.0
42
0.0
10
78.4756011962891
20
70.9830017089844
40
0.0
41
0.0
42
0.0
10
78.4837036132812
20
70.9919967651367
40
0.0
41
0.0
42
0.0
10
78.5
20
71.0223999023438
40
0.0
41
0.0
42
0.0
10
78.5335998535156
20
71.1810989379883
40
0.0
41
0.0
42
0.0
10
78.5665969848633
20
71.309196472168
40
0.0
41
0.0
42
0.0
10
78.5940017700195
20
71.4815979003906
40
0.0
41
0.0
42
0.0
10
78.5938034057617
20
71.5188980102539
40
0.0
41
0.0
42
0.0
10
78.5626983642578
20
71.8424987792969
40
0.0
41
0.0
42
0.0
10
78.5570983886719
20
71.8813018798828
40
0.0
41
0.0
42
0.0
10
78.5295028686523
20
72.0151977539062
40
0.0
41
0.0
42
0.0
10
78.5022964477539
20
72.1220016479492
40
0.0
41
0.0
42
0.0
10
78.4484024047852
20
72.2595977783203
40
0.0
41
0.0
42
0.0
10
78.2934036254883
20
72.8768997192383
40
0.0
41
0.0
42
0.0
10
78.2157974243164
20
73.0090026855469
40
0.0
41
0.0
42
0.0
10
78.5045013427734
20
73.4924011230469
40
0.0
41
0.0
42
0.0
10
78.5150985717773
20
73.4991989135742
40
0.0
41
0.0
42
0.0
10
78.7127990722656
20
73.5562973022461
40
0.0
41
0.0
42
0.0
10
78.880500793457
20
73.5999984741211
40
0.0
41
0.0
42
0.0
10
79.0152969360352
20
73.6230010986328
40
0.0
41
0.0
42
0.0
10
79.1483001708984
20
73.6603012084961
40
0.0
41
0.0
42
0.0
10
79.5111999511719
20
73.7998962402344
40
0.0
41
0.0
42
0.0
10
79.848503112793
20
73.9813003540039
40
0.0
41
0.0
42
0.0
10
79.8982009887695
20
73.9988021850586
40
0.0
41
0.0
42
0.0
10
79.9776000976562
20
74.0544967651367
40
0.0
41
0.0
42
0.0
10
80.002799987793
20
74.0877990722656
40
0.0
41
0.0
42
0.0
10
80.2210998535156
20
74.4124984741211
40
0.0
41
0.0
42
0.0
10
80.3143997192383
20
74.4897994995117
40
0.0
41
0.0
42
0.0
10
80.3143005371094
20
74.5155029296875
40
0.0
41
0.0
42
0.0
10
80.1707000732422
20
74.8367004394531
40
0.0
41
0.0
42
0.0
10
80.1018981933594
20
75.0067977905273
40
0.0
41
0.0
42
0.0
10
80.0560989379883
20
75.0429000854492
40
0.0
41
0.0
42
0.0
10
80.0080032348633
20
75.0716018676758
40
0.0
41
0.0
42
0.0
10
79.6820983886719
20
75.3270034790039
40
0.0
41
0.0
42
0.0
10
79.6430969238281
20
75.3561019897461
40
0.0
41
0.0
42
0.0
10
79.5096969604492
20
75.4385986328125
40
0.0
41
0.0
42
0.0
10
79.4496002197266
20
75.4681015014648
40
0.0
41
0.0
42
0.0
10
79.0851974487305
20
75.7043991088867
40
0.0
41
0.0
42
0.0
10
79.0124969482422
20
75.7358016967773
40
0.0
41
0.0
42
0.0
10
78.8765029907227
20
75.7795028686523
40
0.0
41
0.0
42
0.0
10
78.5115966796875
20
75.9857025146484
40
0.0
41
0.0
42
0.0
10
78.4591979980469
20
76.0018005371094
40
0.0
41
0.0
42
0.0
10
78.5003967285156
20
76.0802001953125
40
0.0
41
0.0
42
0.0
10
78.5496978759766
20
76.2530975341797
40
0.0
41
0.0
42
0.0
10
78.5839004516602
20
76.4885025024414
40
0.0
41
0.0
42
0.0
10
78.6356964111328
20
76.554801940918
40
0.0
41
0.0
42
0.0
10
78.6865005493164
20
76.6259994506836
40
0.0
41
0.0
42
0.0
10
78.8753967285156
20
76.9899978637695
40
0.0
41
0.0
42
0.0
10
78.9508972167969
20
77.1241989135742
40
0.0
41
0.0
42
0.0
10
79.1007995605469
20
77.4863967895508
40
0.0
41
0.0
42
0.0
10
79.1070022583008
20
77.5126037597656
40
0.0
41
0.0
42
0.0
10
79.1443023681641
20
77.620002746582
40
0.0
41
0.0
42
0.0
10
79.1988983154297
20
77.9814987182617
40
0.0
41
0.0
42
0.0
10
79.1987991333008
20
78.0178985595703
40
0.0
41
0.0
42
0.0
10
79.1725997924805
20
78.1492004394531
40
0.0
41
0.0
42
0.0
10
79.1589965820312
20
78.1866989135742
40
0.0
41
0.0
42
0.0
10
79.0167999267578
20
78.475700378418
40
0.0
41
0.0
42
0.0
10
79.0077972412109
20
78.4835968017578
40
0.0
41
0.0
42
0.0
10
78.9774017333984
20
78.5
40
0.0
41
0.0
42
0.0
10
78.8187026977539
20
78.5335998535156
40
0.0
41
0.0
42
0.0
10
78.6906967163086
20
78.5665969848633
40
0.0
41
0.0
42
0.0
10
78.5183029174805
20
78.5940017700195
40
0.0
41
0.0
42
0.0
10
78.4810028076172
20
78.5939025878906
40
0.0
41
0.0
42
0.0
10
78.1574020385742
20
78.5626983642578
40
0.0
41
0.0
42
0.0
10
78.1185989379883
20
78.5570983886719
40
0.0
41
0.0
42
0.0
10
77.9847030639648
20
78.5296020507812
40
0.0
41
0.0
42
0.0
10
77.8751983642578
20
78.5016021728516
40
0.0
41
0.0
42
0.0
10
77.7401962280273
20
78.4484024047852
40
0.0
41
0.0
42
0.0
10
77.1230010986328
20
78.2935028076172
40
0.0
41
0.0
42
0.0
10
77.0002975463867
20
78.2212982177734
40
0.0
41
0.0
42
0.0
10
76.7695999145508
20
78.3681030273438
40
0.0
41
0.0
42
0.0
10
76.7412033081055
20
78.3681030273438
40
0.0
41
0.0
42
0.0
10
76.5938034057617
20
78.2854995727539
40
0.0
41
0.0
42
0.0
10
76.5
20
78.5169982910156
40
0.0
41
0.0
42
0.0
10
76.4433975219727
20
78.7127990722656
40
0.0
41
0.0
42
0.0
10
76.3996963500977
20
78.880500793457
40
0.0
41
0.0
42
0.0
10
76.3769989013672
20
79.0143966674805
40
0.0
41
0.0
42
0.0
10
76.2369003295898
20
79.378303527832
40
0.0
41
0.0
42
0.0
10
76.1993026733398
20
79.5120010375977
40
0.0
41
0.0
42
0.0
10
76.0185012817383
20
79.848503112793
40
0.0
41
0.0
42
0.0
10
76.0009994506836
20
79.8981018066406
40
0.0
41
0.0
42
0.0
10
75.9457015991211
20
79.9773025512695
40
0.0
41
0.0
42
0.0
10
75.9120025634766
20
80.002799987793
40
0.0
41
0.0
42
0.0
10
75.58740234375
20
80.2210006713867
40
0.0
41
0.0
42
0.0
10
75.5101013183594
20
80.3143997192383
40
0.0
41
0.0
42
0.0
10
75.4843978881836
20
80.3143997192383
40
0.0
41
0.0
42
0.0
10
75.163200378418
20
80.1707000732422
40
0.0
41
0.0
42
0.0
10
74.9928970336914
20
80.1019973754883
40
0.0
41
0.0
42
0.0
10
74.9568023681641
20
80.0559997558594
40
0.0
41
0.0
42
0.0
10
74.8386001586914
20
79.8632965087891
40
0.0
41
0.0
42
0.0
10
74.5606002807617
20
79.5086975097656
40
0.0
41
0.0
42
0.0
10
74.5317993164062
20
79.4496994018555
40
0.0
41
0.0
42
0.0
10
74.2953033447266
20
79.0851974487305
40
0.0
41
0.0
42
0.0
10
74.2639007568359
20
79.0126037597656
40
0.0
41
0.0
42
0.0
10
74.2202987670898
20
78.8765029907227
40
0.0
41
0.0
42
0.0
10
74.0139999389648
20
78.5117034912109
40
0.0
41
0.0
42
0.0
10
73.9982986450195
20
78.459098815918
40
0.0
41
0.0
42
0.0
10
73.9196014404297
20
78.5002975463867
40
0.0
41
0.0
42
0.0
10
73.746696472168
20
78.5495986938477
40
0.0
41
0.0
42
0.0
10
73.5113983154297
20
78.5839004516602
40
0.0
41
0.0
42
0.0
10
73.4449005126953
20
78.6356964111328
40
0.0
41
0.0
42
0.0
10
73.3739013671875
20
78.6864013671875
40
0.0
41
0.0
42
0.0
10
73.0099029541016
20
78.8753967285156
40
0.0
41
0.0
42
0.0
10
72.8757019042969
20
78.950798034668
40
0.0
41
0.0
42
0.0
10
72.5134963989258
20
79.1007995605469
40
0.0
41
0.0
42
0.0
10
72.4871978759766
20
79.1070022583008
40
0.0
41
0.0
42
0.0
10
72.3798980712891
20
79.1443023681641
40
0.0
41
0.0
42
0.0
10
72.0184020996094
20
79.1988983154297
40
0.0
41
0.0
42
0.0
10
71.9820022583008
20
79.1987991333008
40
0.0
41
0.0
42
0.0
10
71.850700378418
20
79.1725997924805
40
0.0
41
0.0
42
0.0
10
71.8132019042969
20
79.1589965820312
40
0.0
41
0.0
42
0.0
10
71.5241012573242
20
79.0167999267578
40
0.0
41
0.0
42
0.0
10
71.5160980224609
20
79.0078964233398
40
0.0
41
0.0
42
0.0
10
71.4998016357422
20
78.9775009155273
40
0.0
41
0.0
42
0.0
10
71.4661026000977
20
78.8187026977539
40
0.0
41
0.0
42
0.0
10
71.4330978393555
20
78.6906967163086
40
0.0
41
0.0
42
0.0
10
71.4058990478516
20
78.5183029174805
40
0.0
41
0.0
42
0.0
10
71.4057998657227
20
78.4821014404297
40
0.0
41
0.0
42
0.0
10
71.4366989135742
20
78.3318023681641
40
0.0
41
0.0
42
0.0
10
71.4703979492188
20
77.9835968017578
40
0.0
41
0.0
42
0.0
10
71.4981002807617
20
77.8751983642578
40
0.0
41
0.0
42
0.0
10
71.5513000488281
20
77.7400970458984
40
0.0
41
0.0
42
0.0
10
71.614501953125
20
77.4879989624023
40
0.0
41
0.0
42
0.0
10
71.6937026977539
20
77.3529968261719
40
0.0
41
0.0
42
0.0
10
71.7846984863281
20
76.9917984008789
40
0.0
41
0.0
42
0.0
10
71.4953002929688
20
76.5070037841797
40
0.0
41
0.0
42
0.0
10
71.4843978881836
20
76.5005035400391
40
0.0
41
0.0
42
0.0
10
71.2870025634766
20
76.4433975219727
40
0.0
41
0.0
42
0.0
10
71.1194000244141
20
76.3996963500977
40
0.0
41
0.0
42
0.0
10
70.9854965209961
20
76.3769989013672
40
0.0
41
0.0
42
0.0
10
70.6215972900391
20
76.2369003295898
40
0.0
41
0.0
42
0.0
10
70.4878997802734
20
76.1993026733398
40
0.0
41
0.0
42
0.0
10
70.1512985229492
20
76.0185012817383
40
0.0
41
0.0
42
0.0
10
70.1016998291016
20
76.0009994506836
40
0.0
41
0.0
42
0.0
10
70.0224990844727
20
75.94580078125
40
0.0
41
0.0
42
0.0
10
69.9949035644531
20
75.9088973999023
40
0.0
41
0.0
42
0.0
10
69.7787017822266
20
75.58740234375
40
0.0
41
0.0
42
0.0
10
69.6855010986328
20
75.5101013183594
40
0.0
41
0.0
42
0.0
10
69.6854019165039
20
75.484001159668
40
0.0
41
0.0
42
0.0
210
0.0
220
0.0
230
1.0
0
LWPOLYLINE
5
26
330
1C
100
AcDbEntity
67
0
8
0
62
256
6
ByLayer
370
-1
48
1.0
60
0
100
AcDbPolyline
90
237
70
1
38
0.0
39
0.0
10
69.7853012084961
20
75.5717010498047
40
0.0
41
0.0
42
0.0
10
69.8071975708008
20
75.5923004150391
40
0.0
41
0.0
42
0.0
10
70.002799987793
20
75.8830032348633
40
0.0
41
0.0
42
0.0
10
70.029899597168
20
75.9188995361328
40
0.0
41
0.0
42
0.0
10
70.1442031860352
20
75.9988021850586
40
0.0
41
0.0
42
0.0
10
70.2110977172852
20
76.0223999023438
40
0.0
41
0.0
42
0.0
10
70.5120010375977
20
76.1839981079102
40
0.0
41
0.0
42
0.0
10
70.6883010864258
20
76.2335968017578
40
0.0
41
0.0
42
0.0
10
71.0143966674805
20
76.359001159668
40
0.0
41
0.0
42
0.0
10
71.1904983520508
20
76.3889999389648
40
0.0
41
0.0
42
0.0
10
71.3376998901367
20
76.4273986816406
40
0.0
41
0.0
42
0.0
10
71.515998840332
20
76.4788970947266
40
0.0
41
0.0
42
0.0
10
71.5684967041016
20
76.4838027954102
40
0.0
41
0.0
42
0.0
10
71.6132965087891
20
76.4960021972656
40
0.0
41
0.0
42
0.0
10
71.6130981445312
20
76.5095977783203
40
0.0
41
0.0
42
0.0
10
71.5608978271484
20
76.5500030517578
40
0.0
41
0.0
42
0.0
10
71.8123016357422
20
76.9709014892578
40
0.0
41
0.0
42
0.0
10
71.8122024536133
20
77.0014038085938
40
0.0
41
0.0
42
0.0
10
71.8077011108398
20
77.013801574707
40
0.0
41
0.0
42
0.0
10
71.7261962890625
20
77.3368988037109
40
0.0
41
0.0
42
0.0
10
71.6233978271484
20
77.5119018554688
40
0.0
41
0.0
42
0.0
10
71.5664978027344
20
77.739501953125
40
0.0
41
0.0
42
0.0
10
71.4974975585938
20
77.9144973754883
40
0.0
41
0.0
42
0.0
10
71.4714965820312
20
78.0162963867188
40
0.0
41
0.0
42
0.0
10
71.4399032592773
20
78.3423004150391
40
0.0
41
0.0
42
0.0
10
71.4337005615234
20
78.3812026977539
40
0.0
41
0.0
42
0.0
10
71.4087982177734
20
78.5020980834961
40
0.0
41
0.0
42
0.0
10
71.4272994995117
20
78.6192016601562
40
0.0
41
0.0
42
0.0
10
71.4531021118164
20
78.7189025878906
40
0.0
41
0.0
42
0.0
10
71.5
20
78.939697265625
40
0.0
41
0.0
42
0.0
10
71.5280990600586
20
78.9921035766602
40
0.0
41
0.0
42
0.0
10
71.5421981811523
20
79.007698059082
40
0.0
41
0.0
42
0.0
10
71.855598449707
20
79.1616973876953
40
0.0
41
0.0
42
0.0
10
72.002197265625
20
79.1910018920898
40
0.0
41
0.0
42
0.0
10
72.3099975585938
20
79.1446990966797
40
0.0
41
0.0
42
0.0
10
72.4509963989258
20
79.0955963134766
40
0.0
41
0.0
42
0.0
10
72.4863967895508
20
79.0873031616211
40
0.0
41
0.0
42
0.0
10
72.6967010498047
20
78.999397277832
40
0.0
41
0.0
42
0.0
10
72.7855987548828
20
78.9643020629883
40
0.0
41
0.0
42
0.0
10
72.8144989013672
20
78.9509963989258
40
0.0
41
0.0
42
0.0
10
72.9898986816406
20
78.8525009155273
40
0.0
41
0.0
42
0.0
10
73.3159027099609
20
78.6830978393555
40
0.0
41
0.0
42
0.0
10
73.4116973876953
20
78.6147994995117
40
0.0
41
0.0
42
0.0
10
73.4884033203125
20
78.5549011230469
40
0.0
41
0.0
42
0.0
10
73.6358032226562
20
78.5334014892578
40
0.0
41
0.0
42
0.0
10
73.754997253418
20
78.4994964599609
40
0.0
41
0.0
42
0.0
10
73.9850997924805
20
78.3794021606445
40
0.0
41
0.0
42
0.0
10
74.0044021606445
20
78.3794021606445
40
0.0
41
0.0
42
0.0
10
74.03759765625
20
78.4882965087891
40
0.0
41
0.0
42
0.0
10
74.2213973999023
20
78.8134002685547
40
0.0
41
0.0
42
0.0
10
74.2771987915039
20
78.9873962402344
40
0.0
41
0.0
42
0.0
10
74.3203964233398
20
79.0873031616211
40
0.0
41
0.0
42
0.0
10
74.5314025878906
20
79.4126968383789
40
0.0
41
0.0
42
0.0
10
74.5698013305664
20
79.4912033081055
40
0.0
41
0.0
42
0.0
10
74.8255004882812
20
79.8171997070312
40
0.0
41
0.0
42
0.0
10
74.8511962890625
20
79.856201171875
40
0.0
41
0.0
42
0.0
10
74.9572982788086
20
80.0290985107422
40
0.0
41
0.0
42
0.0
10
75.0068969726562
20
80.0920028686523
40
0.0
41
0.0
42
0.0
10
75.1467971801758
20
80.1483993530273
40
0.0
41
0.0
42
0.0
10
75.496696472168
20
80.304801940918
40
0.0
41
0.0
42
0.0
10
75.5717010498047
20
80.2144012451172
40
0.0
41
0.0
42
0.0
10
75.5922012329102
20
80.192497253418
40
0.0
41
0.0
42
0.0
10
75.8830032348633
20
79.9970016479492
40
0.0
41
0.0
42
0.0
10
75.9188003540039
20
79.9699020385742
40
0.0
41
0.0
42
0.0
10
75.9988021850586
20
79.855598449707
40
0.0
41
0.0
42
0.0
10
76.0223007202148
20
79.7885971069336
40
0.0
41
0.0
42
0.0
10
76.1839981079102
20
79.4878005981445
40
0.0
41
0.0
42
0.0
10
76.2335968017578
20
79.3115997314453
40
0.0
41
0.0
42
0.0
10
76.359001159668
20
78.9854965209961
40
0.0
41
0.0
42
0.0
10
76.3889999389648
20
78.8094024658203
40
0.0
41
0.0
42
0.0
10
76.4272994995117
20
78.6621017456055
40
0.0
41
0.0
42
0.0
10
76.4788970947266
20
78.4839019775391
40
0.0
41
0.0
42
0.0
10
76.4838027954102
20
78.4312973022461
40
0.0
41
0.0
42
0.0
10
76.4998016357422
20
78.372200012207
40
0.0
41
0.0
42
0.0
10
76.5641021728516
20
78.2123031616211
40
0.0
41
0.0
42
0.0
10
76.5843963623047
20
78.2121963500977
40
0.0
41
0.0
42
0.0
10
76.7818984985352
20
78.3227005004883
40
0.0
41
0.0
42
0.0
10
76.9860992431641
20
78.193000793457
40
0.0
41
0.0
42
0.0
10
77.0141983032227
20
78.193000793457
40
0.0
41
0.0
42
0.0
10
77.186897277832
20
78.2944030761719
40
0.0
41
0.0
42
0.0
10
77.739501953125
20
78.4331970214844
40
0.0
41
0.0
42
0.0
10
77.9144973754883
20
78.502197265625
40
0.0
41
0.0
42
0.0
10
78.0152969360352
20
78.5279006958008
40
0.0
41
0.0
42
0.0
10
78.1754989624023
20
78.5608978271484
40
0.0
41
0.0
42
0.0
10
78.4957962036133
20
78.5919036865234
40
0.0
41
0.0
42
0.0
10
78.6192016601562
20
78.5723037719727
40
0.0
41
0.0
42
0.0
10
78.7189025878906
20
78.5466003417969
40
0.0
41
0.0
42
0.0
10
78.9395980834961
20
78.4998016357422
40
0.0
41
0.0
42
0.0
10
78.9921035766602
20
78.4716033935547
40
0.0
41
0.0
42
0.0
10
79.0075988769531
20
78.4576034545898
40
0.0
41
0.0
42
0.0
10
79.1616973876953
20
78.1443023681641
40
0.0
41
0.0
42
0.0
10
79.1910018920898
20
77.9977035522461
40
0.0
41
0.0
42
0.0
10
79.1446990966797
20
77.6899032592773
40
0.0
41
0.0
42
0.0
10
79.0955963134766
20
77.5487976074219
40
0.0
41
0.0
42
0.0
10
79.08740234375
20
77.5134963989258
40
0.0
41
0.0
42
0.0
10
78.999397277832
20
77.3031997680664
40
0.0
41
0.0
42
0.0
10
78.9644012451172
20
77.2142028808594
40
0.0
41
0.0
42
0.0
10
78.9511032104492
20
77.1854019165039
40
0.0
41
0.0
42
0.0
10
78.8525009155273
20
77.0100021362305
40
0.0
41
0.0
42
0.0
10
78.6831970214844
20
76.6839981079102
40
0.0
41
0.0
42
0.0
10
78.6148986816406
20
76.5880966186523
40
0.0
41
0.0
42
0.0
10
78.5549011230469
20
76.5113983154297
40
0.0
41
0.0
42
0.0
10
78.5335006713867
20
76.3639984130859
40
0.0
41
0.0
42
0.0
10
78.4996032714844
20
76.2447967529297
40
0.0
41
0.0
42
0.0
10
78.3794021606445
20
76.0148010253906
40
0.0
41
0.0
42
0.0
10
78.3793029785156
20
75.9953994750977
40
0.0
41
0.0
42
0.0
10
78.4882965087891
20
75.9620971679688
40
0.0
41
0.0
42
0.0
10
78.8134002685547
20
75.7782974243164
40
0.0
41
0.0
42
0.0
10
78.9872970581055
20
75.7226028442383
40
0.0
41
0.0
42
0.0
10
79.0873031616211
20
75.6792984008789
40
0.0
41
0.0
42
0.0
10
79.4126968383789
20
75.4682998657227
40
0.0
41
0.0
42
0.0
10
79.4900970458984
20
75.4303970336914
40
0.0
41
0.0
42
0.0
10
79.6574020385742
20
75.3268966674805
40
0.0
41
0.0
42
0.0
10
79.9917984008789
20
75.064697265625
40
0.0
41
0.0
42
0.0
10
80.0289001464844
20
75.0426025390625
40
0.0
41
0.0
42
0.0
10
80.0920028686523
20
74.9928970336914
40
0.0
41
0.0
42
0.0
10
80.1483993530273
20
74.8531036376953
40
0.0
41
0.0
42
0.0
10
80.3050003051758
20
74.5031967163086
40
0.0
41
0.0
42
0.0
10
80.2145004272461
20
74.4281005859375
40
0.0
41
0.0
42
0.0
10
80.1925964355469
20
74.4075012207031
40
0.0
41
0.0
42
0.0
10
79.9970016479492
20
74.11669921875
40
0.0
41
0.0
42
0.0
10
79.9699020385742
20
74.0809020996094
40
0.0
41
0.0
42
0.0
10
79.855598449707
20
74.0010986328125
40
0.0
41
0.0
42
0.0
10
79.7886962890625
20
73.9774017333984
40
0.0
41
0.0
42
0.0
10
79.4888000488281
20
73.8162002563477
40
0.0
41
0.0
42
0.0
10
79.1615982055664
20
73.690299987793
40
0.0
41
0.0
42
0.0
10
78.9845962524414
20
73.6405029296875
40
0.0
41
0.0
42
0.0
10
78.8094024658203
20
73.6107025146484
40
0.0
41
0.0
42
0.0
10
78.6621017456055
20
73.5724029541016
40
0.0
41
0.0
42
0.0
10
78.4839019775391
20
73.5207977294922
40
0.0
41
0.0
42
0.0
10
78.4312973022461
20
73.5158996582031
40
0.0
41
0.0
42
0.0
10
78.3865966796875
20
73.5038986206055
40
0.0
41
0.0
42
0.0
10
78.3864974975586
20
73.4901962280273
40
0.0
41
0.0
42
0.0
10
78.4387969970703
20
73.4497985839844
40
0.0
41
0.0
42
0.0
10
78.1875991821289
20
73.0289001464844
40
0.0
41
0.0
42
0.0
10
78.1875
20
72.9983978271484
40
0.0
41
0.0
42
0.0
10
78.1910018920898
20
72.9889984130859
40
0.0
41
0.0
42
0.0
10
78.2944030761719
20
72.8130035400391
40
0.0
41
0.0
42
0.0
10
78.4331970214844
20
72.2602996826172
40
0.0
41
0.0
42
0.0
10
78.502197265625
20
72.0852966308594
40
0.0
41
0.0
42
0.0
10
78.5278015136719
20
71.9845962524414
40
0.0
41
0.0
42
0.0
10
78.5608978271484
20
71.8244018554688
40
0.0
41
0.0
42
0.0
10
78.5919036865234
20
71.5040969848633
40
0.0
41
0.0
42
0.0
10
78.5723037719727
20
71.3806991577148
40
0.0
41
0.0
42
0.0
10
78.5466995239258
20
71.2808990478516
40
0.0
41
0.0
42
0.0
10
78.4998016357422
20
71.0602035522461
40
0.0
41
0.0
42
0.0
10
78.4716033935547
20
71.0078964233398
40
0.0
41
0.0
42
0.0
10
78.4577026367188
20
70.9921035766602
40
0.0
41
0.0
42
0.0
10
78.144401550293
20
70.8379974365234
40
0.0
41
0.0
42
0.0
10
77.9977035522461
20
70.8087005615234
40
0.0
41
0.0
42
0.0
10
77.6899032592773
20
70.8550033569336
40
0.0
41
0.0
42
0.0
10
77.5487976074219
20
70.9040985107422
40
0.0
41
0.0
42
0.0
10
77.5133972167969
20
70.9123001098633
40
0.0
41
0.0
42
0.0
10
77.3031005859375
20
71.0003967285156
40
0.0
41
0.0
42
0.0
10
77.2142028808594
20
71.035400390625
40
0.0
41
0.0
42
0.0
10
77.1854019165039
20
71.048698425293
40
0.0
41
0.0
42
0.0
10
77.0099029541016
20
71.1472015380859
40
0.0
41
0.0
42
0.0
10
76.6838989257812
20
71.3164978027344
40
0.0
41
0.0
42
0.0
10
76.5879974365234
20
71.3849029541016
40
0.0
41
0.0
42
0.0
10
76.5113983154297
20
71.4448013305664
40
0.0
41
0.0
42
0.0
10
76.363899230957
20
71.4663009643555
40
0.0
41
0.0
42
0.0
10
76.2447967529297
20
71.5001983642578
40
0.0
41
0.0
42
0.0
10
76.0148010253906
20
71.6204986572266
40
0.0
41
0.0
42
0.0
10
75.9953994750977
20
71.6204986572266
40
0.0
41
0.0
42
0.0
10
75.9620971679688
20
71.5115966796875
40
0.0
41
0.0
42
0.0
10
75.7782974243164
20
71.1865005493164
40
0.0
41
0.0
42
0.0
10
75.7226028442383
20
71.0126037597656
40
0.0
41
0.0
42
0.0
10
75.6792984008789
20
70.9124984741211
40
0.0
41
0.0
42
0.0
10
75.4682998657227
20
70.5870971679688
40
0.0
41
0.0
42
0.0
10
75.4303970336914
20
70.5098037719727
40
0.0
41
0.0
42
0.0
10
75.3270034790039
20
70.3424987792969
40
0.0
41
0.0
42
0.0
10
75.064697265625
20
70.0081024169922
40
0.0
41
0.0
42
0.0
10
75.0425033569336
20
69.9709014892578
40
0.0
41
0.0
42
0.0
10
74.9932022094727
20
69.908203125
40
0.0
41
0.0
42
0.0
10
74.6231994628906
20
69.7425994873047
40
0.0
41
0.0
42
0.0
10
74.5036010742188
20
69.6941986083984
40
0.0
41
0.0
42
0.0
10
74.4280014038086
20
69.7852020263672
40
0.0
41
0.0
42
0.0
10
74.4075012207031
20
69.8071975708008
40
0.0
41
0.0
42
0.0
10
74.11669921875
20
70.002799987793
40
0.0
41
0.0
42
0.0
10
74.0809020996094
20
70.0298004150391
40
0.0
41
0.0
42
0.0
10
74.0010986328125
20
70.1440963745117
40
0.0
41
0.0
42
0.0
10
73.9773025512695
20
70.2110977172852
40
0.0
41
0.0
42
0.0
10
73.8161010742188
20
70.511100769043
40
0.0
41
0.0
42
0.0
10
73.690299987793
20
70.8383026123047
40
0.0
41
0.0
42
0.0
10
73.6405029296875
20
71.0152969360352
40
0.0
41
0.0
42
0.0
10
73.6107025146484
20
71.1904983520508
40
0.0
41
0.0
42
0.0
10
73.5724029541016
20
71.3376998901367
40
0.0
41
0.0
42
0.0
10
73.5207977294922
20
71.515998840332
40
0.0
41
0.0
42
0.0
10
73.5158996582031
20
71.5684967041016
40
0.0
41
0.0
42
0.0
10
73.5038986206055
20
71.6132965087891
40
0.0
41
0.0
42
0.0
10
73.4903030395508
20
71.6131973266602
40
0.0
41
0.0
42
0.0
10
73.4497985839844
20
71.5608978271484
40
0.0
41
0.0
42
0.0
10
73.0289001464844
20
71.8123016357422
40
0.0
41
0.0
42
0.0
10
72.9983978271484
20
71.8122024536133
40
0.0
41
0.0
42
0.0
10
72.986198425293
20
71.8077011108398
40
0.0
41
0.0
42
0.0
10
72.6630020141602
20
71.7263031005859
40
0.0
41
0.0
42
0.0
10
72.4879989624023
20
71.6233978271484
40
0.0
41
0.0
42
0.0
10
72.2602996826172
20
71.5665969848633
40
0.0
41
0.0
42
0.0
10
72.0852966308594
20
71.4974975585938
40
0.0
41
0.0
42
0.0
10
71.9835968017578
20
71.4714965820312
40
0.0
41
0.0
42
0.0
10
71.657600402832
20
71.4400024414062
40
0.0
41
0.0
42
0.0
10
71.6186981201172
20
71.4337997436523
40
0.0
41
0.0
42
0.0
10
71.497802734375
20
71.4086990356445
40
0.0
41
0.0
42
0.0
10
71.3806991577148
20
71.4272994995117
40
0.0
41
0.0
42
0.0
10
71.2808990478516
20
71.4530029296875
40
0.0
41
0.0
42
0.0
10
71.0600967407227
20
71.4999008178711
40
0.0
41
0.0
42
0.0
10
71.0077972412109
20
71.5280990600586
40
0.0
41
0.0
42
0.0
10
70.9921035766602
20
71.5419998168945
40
0.0
41
0.0
42
0.0
10
70.8379974365234
20
71.8554992675781
40
0.0
41
0.0
42
0.0
10
70.8087005615234
20
72.002197265625
40
0.0
41
0.0
42
0.0
10
70.8550033569336
20
72.3099975585938
40
0.0
41
0.0
42
0.0
10
70.9040985107422
20
72.4509963989258
40
0.0
41
0.0
42
0.0
10
70.9123992919922
20
72.4863967895508
40
0.0
41
0.0
42
0.0
10
71.0005035400391
20
72.6968002319336
40
0.0
41
0.0
42
0.0
10
71.035400390625
20
72.7855987548828
40
0.0
41
0.0
42
0.0
10
71.048698425293
20
72.8144989013672
40
0.0
41
0.0
42
0.0
10
71.1473007202148
20
72.9898986816406
40
0.0
41
0.0
42
0.0
10
71.3165969848633
20
73.3159027099609
40
0.0
41
0.0
42
0.0
10
71.3849029541016
20
73.4116973876953
40
0.0
41
0.0
42
0.0
10
71.4449005126953
20
73.4885025024414
40
0.0
41
0.0
42
0.0
10
71.4663009643555
20
73.6359024047852
40
0.0
41
0.0
42
0.0
10
71.5002975463867
20
73.754997253418
40
0.0
41
0.0
42
0.0
10
71.6204986572266
20
73.9850997924805
40
0.0
41
0.0
42
0.0
10
71.6203994750977
20
74.0044021606445
40
0.0
41
0.0
42
0.0
10
71.5115966796875
20
74.03759765625
40
0.0
41
0.0
42
0.0
10
71.1865005493164
20
74.2213973999023
40
0.0
41
0.0
42
0.0
10
71.0124969482422
20
74.277099609375
40
0.0
41
0.0
42
0.0
10
70.9123992919922
20
74.3203964233398
40
0.0
41
0.0
42
0.0
10
70.5869979858398
20
74.5314025878906
40
0.0
41
0.0
42
0.0
10
70.5086975097656
20
74.5698013305664
40
0.0
41
0.0
42
0.0
10
70.1826019287109
20
74.8254013061523
40
0.0
41
0.0
42
0.0
10
70.1436996459961
20
74.8510971069336
40
0.0
41
0.0
42
0.0
10
69.970703125
20
74.9571990966797
40
0.0
41
0.0
42
0.0
10
69.908203125
20
75.0065994262695
40
0.0
41
0.0
42
0.0
10
69.7425994873047
20
75.3767013549805
40
0.0
41
0.0
42
0.0
10
69.6942977905273
20
75.4962997436523
40
0.0
41
0.0
42
0.0
10
69.7853012084961
20
75.5717010498047
40
0.0
41
0.0
42
0.0
210
0.0
220
0.0
230
1.0
0
LWPOLYLINE
5
27
330
1C
100
AcDbEntity
67
0
8
0
62
256
6
ByLayer
370
-1
48
1.0
60
0
100
AcDbPolyline
90
77
70
1
38
0.0
39
0.0
10
71.7147979736328
20
65.4823989868164
40
0.0
41
0.0
42
0.0
10
71.7810974121094
20
65.2059020996094
40
0.0
41
0.0
42
0.0
10
71.8188018798828
20
65.0009994506836
40
0.0
41
0.0
42
0.0
10
71.8868026733398
20
65.0009994506836
40
0.0
41
0.0
42
0.0
10
71.8867034912109
20
65.0179977416992
40
0.0
41
0.0
42
0.0
10
71.8616027832031
20
65.1547012329102
40
0.0
41
0.0
42
0.0
10
71.7796020507812
20
65.4968032836914
40
0.0
41
0.0
42
0.0
10
71.8621978759766
20
65.7126007080078
40
0.0
41
0.0
42
0.0
10
71.9220962524414
20
65.9922027587891
40
0.0
41
0.0
42
0.0
10
72.0064010620117
20
66.0539016723633
40
0.0
41
0.0
42
0.0
10
72.0969009399414
20
66.1407012939453
40
0.0
41
0.0
42
0.0
10
72.3566970825195
20
66.3196029663086
40
0.0
41
0.0
42
0.0
10
72.4399032592773
20
66.4618988037109
40
0.0
41
0.0
42
0.0
10
72.4682998657227
20
66.4969024658203
40
0.0
41
0.0
42
0.0
10
72.5084991455078
20
66.5156021118164
40
0.0
41
0.0
42
0.0
10
72.6601028442383
20
66.6458969116211
40
0.0
41
0.0
42
0.0
10
73.0111999511719
20
66.8179016113281
40
0.0
41
0.0
42
0.0
10
73.364501953125
20
66.9702987670898
40
0.0
41
0.0
42
0.0
10
73.3970031738281
20
66.9965972900391
40
0.0
41
0.0
42
0.0
10
73.4998016357422
20
67.07080078125
40
0.0
41
0.0
42
0.0
10
73.5129013061523
20
67.0768966674805
40
0.0
41
0.0
42
0.0
10
73.877197265625
20
67.1681976318359
40
0.0
41
0.0
42
0.0
10
74.0139007568359
20
67.2440032958984
40
0.0
41
0.0
42
0.0
10
74.1606979370117
20
67.2534027099609
40
0.0
41
0.0
42
0.0
10
74.486701965332
20
67.2121963500977
40
0.0
41
0.0
42
0.0
10
74.8612976074219
20
66.9984970092773
40
0.0
41
0.0
42
0.0
10
74.9908981323242
20
66.934196472168
40
0.0
41
0.0
42
0.0
10
75.493896484375
20
66.5661010742188
40
0.0
41
0.0
42
0.0
10
75.5599975585938
20
66.4951019287109
40
0.0
41
0.0
42
0.0
10
75.597900390625
20
66.4626998901367
40
0.0
41
0.0
42
0.0
10
75.6305999755859
20
66.4129028320312
40
0.0
41
0.0
42
0.0
10
75.9954986572266
20
66.1156997680664
40
0.0
41
0.0
42
0.0
10
76.0526962280273
20
66.0313034057617
40
0.0
41
0.0
42
0.0
10
76.1081008911133
20
65.9921035766602
40
0.0
41
0.0
42
0.0
10
76.133903503418
20
65.8514022827148
40
0.0
41
0.0
42
0.0
10
76.1501998901367
20
65.8162994384766
40
0.0
41
0.0
42
0.0
10
76.4203033447266
20
65.4951019287109
40
0.0
41
0.0
42
0.0
10
76.375602722168
20
65.3419036865234
40
0.0
41
0.0
42
0.0
10
76.3755035400391
20
65.3065032958984
40
0.0
41
0.0
42
0.0
10
76.4207000732422
20
65.0009994506836
40
0.0
41
0.0
42
0.0
10
76.4541015625
20
65.0009994506836
40
0.0
41
0.0
42
0.0
10
76.4540023803711
20
65.0184020996094
40
0.0
41
0.0
42
0.0
10
76.4039001464844
20
65.3607025146484
40
0.0
41
0.0
42
0.0
10
76.439697265625
20
65.4830017089844
40
0.0
41
0.0
42
0.0
10
76.4395980834961
20
65.5122985839844
40
0.0
41
0.0
42
0.0
10
76.1486968994141
20
65.8583984375
40
0.0
41
0.0
42
0.0
10
76.1212997436523
20
66.007698059082
40
0.0
41
0.0
42
0.0
10
76.0792007446289
20
66.0374984741211
40
0.0
41
0.0
42
0.0
10
76.0043029785156
20
66.1483001708984
40
0.0
41
0.0
42
0.0
10
75.6791000366211
20
66.4131011962891
40
0.0
41
0.0
42
0.0
10
75.6363983154297
20
66.4781036376953
40
0.0
41
0.0
42
0.0
10
75.6051025390625
20
66.5046997070312
40
0.0
41
0.0
42
0.0
10
75.5058975219727
20
66.6115036010742
40
0.0
41
0.0
42
0.0
10
75.008903503418
20
66.9748992919922
40
0.0
41
0.0
42
0.0
10
74.9378967285156
20
67.011100769043
40
0.0
41
0.0
42
0.0
10
74.5130996704102
20
67.2543029785156
40
0.0
41
0.0
42
0.0
10
74.2345962524414
20
67.2895965576172
40
0.0
41
0.0
42
0.0
10
74.1966018676758
20
67.2894973754883
40
0.0
41
0.0
42
0.0
10
73.9860000610352
20
67.2759017944336
40
0.0
41
0.0
42
0.0
10
73.8126983642578
20
67.179801940918
40
0.0
41
0.0
42
0.0
10
73.4869003295898
20
67.0982971191406
40
0.0
41
0.0
42
0.0
10
73.4821014404297
20
67.0960006713867
40
0.0
41
0.0
42
0.0
10
73.3537979125977
20
67.003303527832
40
0.0
41
0.0
42
0.0
10
73.3074035644531
20
66.9657974243164
40
0.0
41
0.0
42
0.0
10
72.9887008666992
20
66.8283996582031
40
0.0
41
0.0
42
0.0
10
72.6657028198242
20
66.6699981689453
40
0.0
41
0.0
42
0.0
10
72.6278991699219
20
66.6435012817383
40
0.0
41
0.0
42
0.0
10
72.4915008544922
20
66.5261001586914
40
0.0
41
0.0
42
0.0
10
72.4414978027344
20
66.5029983520508
40
0.0
41
0.0
42
0.0
10
72.4266967773438
20
66.4849014282227
40
0.0
41
0.0
42
0.0
10
72.3598022460938
20
66.3703002929688
40
0.0
41
0.0
42
0.0
10
72.0628967285156
20
66.1658020019531
40
0.0
41
0.0
42
0.0
10
71.9934997558594
20
66.0991973876953
40
0.0
41
0.0
42
0.0
10
71.8685989379883
20
66.007698059082
40
0.0
41
0.0
42
0.0
10
71.8247985839844
20
65.8031005859375
40
0.0
41
0.0
42
0.0
10
71.7148971557617
20
65.5160980224609
40
0.0
41
0.0
42
0.0
10
71.7147979736328
20
65.4823989868164
40
0.0
41
0.0
42
0.0
210
0.0
220
0.0
230
1.0
0
LWPOLYLINE
5
28
330
1C
100
AcDbEntity
67
0
8
0
62
256
6
ByLayer
370
-1
48
1.0
60
0
100
AcDbPolyline
90
12
70
1
38
0.0
39
0.0
10
73.5186996459961
20
74.4412994384766
40
0.0
41
0.0
42
0.0
10
73.6912002563477
20
74.4625015258789
40
0.0
41
0.0
42
0.0
10
73.8329010009766
20
74.4964981079102
40
0.0
41
0.0
42
0.0
10
73.8329010009766
20
74.5044021606445
40
0.0
41
0.0
42
0.0
10
73.6912002563477
20
74.5475997924805
40
0.0
41
0.0
42
0.0
10
73.5193023681641
20
74.5584030151367
40
0.0
41
0.0
42
0.0
10
73.4825973510742
20
74.5582962036133
40
0.0
41
0.0
42
0.0
10
73.2723007202148
20
74.5037002563477
40
0.0
41
0.0
42
0.0
10
73.2723007202148
20
74.4922027587891
40
0.0
41
0.0
42
0.0
10
73.3130035400391
20
74.4619979858398
40
0.0
41
0.0
42
0.0
10
73.481201171875
20
74.4413986206055
40
0.0
41
0.0
42
0.0
10
73.5186996459961
20
74.4412994384766
40
0.0
41
0.0
42
0.0
210
0.0
220
0.0
230
1.0
0
LWPOLYLINE
5
29
330
1C
100
AcDbEntity
67
0
8
0
62
256
6
ByLayer
370
-1
48
1.0
60
0
100
AcDbPolyline
90
9
70
1
38
0.0
39
0.0
10
73.3412017822266
20
74.5016021728516
40
0.0
41
0.0
42
0.0
10
73.5102005004883
20
74.5450973510742
40
0.0
41
0.0
42
0.0
10
73.6186981201172
20
74.5384979248047
40
0.0
41
0.0
42
0.0
10
73.7081985473633
20
74.511100769043
40
0.0
41
0.0
42
0.0
10
73.7074966430664
20
74.4904022216797
40
0.0
41
0.0
42
0.0
10
73.6185989379883
20
74.4694976806641
40
0.0
41
0.0
42
0.0
10
73.4999008178711
20
74.4548034667969
40
0.0
41
0.0
42
0.0
10
73.342903137207
20
74.47509765625
40
0.0
41
0.0
42
0.0
10
73.3412017822266
20
74.5016021728516
40
0.0
41
0.0
42
0.0
210
0.0
220
0.0
230
1.0
0
LWPOLYLINE
5
2A
330
1C
100
AcDbEntity
67
0
8
0
62
256
6
ByLayer
370
-1
48
1.0
60
0
100
AcDbPolyline
90
87
70
1
38
0.0
39
0.0
10
73.5959014892578
20
84.6392974853516
40
0.0
41
0.0
42
0.0
10
73.5602035522461
20
84.5168991088867
40
0.0
41
0.0
42
0.0
10
73.5600967407227
20
84.4817962646484
40
0.0
41
0.0
42
0.0
10
73.5838012695312
20
84.3520965576172
40
0.0
41
0.0
42
0.0
10
73.6035003662109
20
84.3169021606445
40
0.0
41
0.0
42
0.0
10
73.8737030029297
20
83.9954986572266
40
0.0
41
0.0
42
0.0
10
73.9205017089844
20
83.9621963500977
40
0.0
41
0.0
42
0.0
10
73.9954986572266
20
83.8514022827148
40
0.0
41
0.0
42
0.0
10
74.3207015991211
20
83.5866012573242
40
0.0
41
0.0
42
0.0
10
74.3632965087891
20
83.5216979980469
40
0.0
41
0.0
42
0.0
10
74.3945007324219
20
83.4951019287109
40
0.0
41
0.0
42
0.0
10
74.4949035644531
20
83.3872985839844
40
0.0
41
0.0
42
0.0
10
74.529296875
20
83.3537979125977
40
0.0
41
0.0
42
0.0
10
74.8181991577148
20
83.1508026123047
40
0.0
41
0.0
42
0.0
10
74.8529968261719
20
83.1181030273438
40
0.0
41
0.0
42
0.0
10
74.9905014038086
20
83.0250015258789
40
0.0
41
0.0
42
0.0
10
75.0448989868164
20
82.9981002807617
40
0.0
41
0.0
42
0.0
10
75.2368011474609
20
82.8676986694336
40
0.0
41
0.0
42
0.0
10
75.3147964477539
20
82.8239974975586
40
0.0
41
0.0
42
0.0
10
75.4029998779297
20
82.7797012329102
40
0.0
41
0.0
42
0.0
10
75.4853973388672
20
82.7455978393555
40
0.0
41
0.0
42
0.0
10
75.7651977539062
20
82.7102966308594
40
0.0
41
0.0
42
0.0
10
75.8031997680664
20
82.7101974487305
40
0.0
41
0.0
42
0.0
10
76.0139007568359
20
82.7238998413086
40
0.0
41
0.0
42
0.0
10
76.1872024536133
20
82.8199005126953
40
0.0
41
0.0
42
0.0
10
76.5129013061523
20
82.901496887207
40
0.0
41
0.0
42
0.0
10
76.5177001953125
20
82.9038009643555
40
0.0
41
0.0
42
0.0
10
76.6460037231445
20
82.9965972900391
40
0.0
41
0.0
42
0.0
10
76.6923980712891
20
83.0339965820312
40
0.0
41
0.0
42
0.0
10
77.0111999511719
20
83.1714019775391
40
0.0
41
0.0
42
0.0
10
77.3341979980469
20
83.3298034667969
40
0.0
41
0.0
42
0.0
10
77.3720016479492
20
83.3563995361328
40
0.0
41
0.0
42
0.0
10
77.5084991455078
20
83.4736022949219
40
0.0
41
0.0
42
0.0
10
77.556999206543
20
83.4963989257812
40
0.0
41
0.0
42
0.0
10
77.6399002075195
20
83.6292037963867
40
0.0
41
0.0
42
0.0
10
77.8341979980469
20
83.7819976806641
40
0.0
41
0.0
42
0.0
10
78.0077972412109
20
83.9016036987305
40
0.0
41
0.0
42
0.0
10
78.1312026977539
20
83.9922027587891
40
0.0
41
0.0
42
0.0
10
78.1750030517578
20
84.1968002319336
40
0.0
41
0.0
42
0.0
10
78.2850036621094
20
84.4838027954102
40
0.0
41
0.0
42
0.0
10
78.284797668457
20
84.5175018310547
40
0.0
41
0.0
42
0.0
10
78.2185974121094
20
84.7938995361328
40
0.0
41
0.0
42
0.0
10
78.1809997558594
20
84.9990005493164
40
0.0
41
0.0
42
0.0
10
78.1130981445312
20
84.9990005493164
40
0.0
41
0.0
42
0.0
10
78.1129989624023
20
84.9819030761719
40
0.0
41
0.0
42
0.0
10
78.1380996704102
20
84.845100402832
40
0.0
41
0.0
42
0.0
10
78.220100402832
20
84.5030975341797
40
0.0
41
0.0
42
0.0
10
78.1374969482422
20
84.2873001098633
40
0.0
41
0.0
42
0.0
10
78.0777969360352
20
84.007698059082
40
0.0
41
0.0
42
0.0
10
77.9922027587891
20
83.9449005126953
40
0.0
41
0.0
42
0.0
10
77.8872985839844
20
83.872802734375
40
0.0
41
0.0
42
0.0
10
77.6432037353516
20
83.6807022094727
40
0.0
41
0.0
42
0.0
10
77.5327987670898
20
83.5035018920898
40
0.0
41
0.0
42
0.0
10
77.4914016723633
20
83.4841995239258
40
0.0
41
0.0
42
0.0
10
77.3397979736328
20
83.3539962768555
40
0.0
41
0.0
42
0.0
10
76.9887008666992
20
83.1819000244141
40
0.0
41
0.0
42
0.0
10
76.6352996826172
20
83.0295028686523
40
0.0
41
0.0
42
0.0
10
76.6027984619141
20
83.0031967163086
40
0.0
41
0.0
42
0.0
10
76.5000991821289
20
82.9289016723633
40
0.0
41
0.0
42
0.0
10
76.4869995117188
20
82.9227981567383
40
0.0
41
0.0
42
0.0
10
76.1227035522461
20
82.8315963745117
40
0.0
41
0.0
42
0.0
10
75.9860000610352
20
82.7557983398438
40
0.0
41
0.0
42
0.0
10
75.8391036987305
20
82.7462997436523
40
0.0
41
0.0
42
0.0
10
75.5145034790039
20
82.7873001098633
40
0.0
41
0.0
42
0.0
10
75.4450988769531
20
82.8160018920898
40
0.0
41
0.0
42
0.0
10
75.3750991821289
20
82.8511962890625
40
0.0
41
0.0
42
0.0
10
75.2850036621094
20
82.9016036987305
40
0.0
41
0.0
42
0.0
10
75.1377029418945
20
83.0017013549805
40
0.0
41
0.0
42
0.0
10
75.0093002319336
20
83.065299987793
40
0.0
41
0.0
42
0.0
10
74.8986968994141
20
83.1401977539062
40
0.0
41
0.0
42
0.0
10
74.8715972900391
20
83.1657028198242
40
0.0
41
0.0
42
0.0
10
74.5468978881836
20
83.3939971923828
40
0.0
41
0.0
42
0.0
10
74.5048980712891
20
83.434700012207
40
0.0
41
0.0
42
0.0
10
74.439697265625
20
83.5046997070312
40
0.0
41
0.0
42
0.0
10
74.4018020629883
20
83.5370025634766
40
0.0
41
0.0
42
0.0
10
74.3691024780273
20
83.586799621582
40
0.0
41
0.0
42
0.0
10
74.0043029785156
20
83.8840026855469
40
0.0
41
0.0
42
0.0
10
73.9470977783203
20
83.9683990478516
40
0.0
41
0.0
42
0.0
10
73.8964996337891
20
84.0043029785156
40
0.0
41
0.0
42
0.0
10
73.6033020019531
20
84.3529968261719
40
0.0
41
0.0
42
0.0
10
73.5770034790039
20
84.4964981079102
40
0.0
41
0.0
42
0.0
10
73.6242980957031
20
84.6579971313477
40
0.0
41
0.0
42
0.0
10
73.6241989135742
20
84.6933975219727
40
0.0
41
0.0
42
0.0
10
73.5791015625
20
84.9990005493164
40
0.0
41
0.0
42
0.0
10
73.5457992553711
20
84.9990005493164
40
0.0
41
0.0
42
0.0
10
73.5457000732422
20
84.9814987182617
40
0.0
41
0.0
42
0.0
10
73.5959014892578
20
84.6392974853516
40
0.0
41
0.0
42
0.0
210
0.0
220
0.0
230
1.0
0
LWPOLYLINE
5
2B
330
1C
100
AcDbEntity
67
0
8
0
62
256
6
ByLayer
370
-1
48
1.0
60
0
100
AcDbPolyline
90
16
70
1
38
0.0
39
0.0
10
73.7163009643555
20
75.4909973144531
40
0.0
41
0.0
42
0.0
10
73.8254013061523
20
75.4092025756836
40
0.0
41
0.0
42
0.0
10
73.9854965209961
20
75.318603515625
40
0.0
41
0.0
42
0.0
10
74.0121994018555
20
75.3184967041016
40
0.0
41
0.0
42
0.0
10
74.1091003417969
20
75.401496887207
40
0.0
41
0.0
42
0.0
10
74.2116012573242
20
75.4931030273438
40
0.0
41
0.0
42
0.0
10
74.3835983276367
20
75.8162994384766
40
0.0
41
0.0
42
0.0
10
74.3834991455078
20
75.8398971557617
40
0.0
41
0.0
42
0.0
10
74.3443984985352
20
75.8671035766602
40
0.0
41
0.0
42
0.0
10
74.3171997070312
20
75.8669967651367
40
0.0
41
0.0
42
0.0
10
73.9991989135742
20
75.6586990356445
40
0.0
41
0.0
42
0.0
10
73.8310012817383
20
75.7518005371094
40
0.0
41
0.0
42
0.0
10
73.8022994995117
20
75.7518005371094
40
0.0
41
0.0
42
0.0
10
73.7027969360352
20
75.6914978027344
40
0.0
41
0.0
42
0.0
10
73.7026977539062
20
75.6641998291016
40
0.0
41
0.0
42
0.0
10
73.7163009643555
20
75.4909973144531
40
0.0
41
0.0
42
0.0
210
0.0
220
0.0
230
1.0
0
LWPOLYLINE
5
2C
330
1C
100
AcDbEntity
67
0
8
0
62
256
6
ByLayer
370
-1
48
1.0
60
0
100
AcDbPolyline
90
12
70
1
38
0.0
39
0.0
10
73.7394027709961
20
75.5087966918945
40
0.0
41
0.0
42
0.0
10
73.7294998168945
20
75.6344985961914
40
0.0
41
0.0
42
0.0
10
73.8588027954102
20
75.7126007080078
40
0.0
41
0.0
42
0.0
10
73.9853973388672
20
75.6427993774414
40
0.0
41
0.0
42
0.0
10
74.0137023925781
20
75.6427001953125
40
0.0
41
0.0
42
0.0
10
74.254997253418
20
75.8006973266602
40
0.0
41
0.0
42
0.0
10
74.3246994018555
20
75.752799987793
40
0.0
41
0.0
42
0.0
10
74.1937026977539
20
75.5067977905273
40
0.0
41
0.0
42
0.0
10
74.1093978881836
20
75.431396484375
40
0.0
41
0.0
42
0.0
10
73.9982986450195
20
75.3361968994141
40
0.0
41
0.0
42
0.0
10
73.8803024291992
20
75.4031982421875
40
0.0
41
0.0
42
0.0
10
73.7394027709961
20
75.5087966918945
40
0.0
41
0.0
42
0.0
210
0.0
220
0.0
230
1.0
0
LWPOLYLINE
5
2D
330
1C
100
AcDbEntity
67
0
8
0
62
256
6
ByLayer
370
-1
48
1.0
60
0
100
AcDbPolyline
90
16
70
1
38
0.0
39
0.0
10
74.3082962036133
20
73.7027969360352
40
0.0
41
0.0
42
0.0
10
74.3356018066406
20
73.7026977539062
40
0.0
41
0.0
42
0.0
10
74.5087966918945
20
73.7164001464844
40
0.0
41
0.0
42
0.0
10
74.5904998779297
20
73.8255004882812
40
0.0
41
0.0
42
0.0
10
74.6812973022461
20
73.9854965209961
40
0.0
41
0.0
42
0.0
10
74.6811981201172
20
74.0121994018555
40
0.0
41
0.0
42
0.0
10
74.5981979370117
20
74.1091003417969
40
0.0
41
0.0
42
0.0
10
74.5066986083984
20
74.2115020751953
40
0.0
41
0.0
42
0.0
10
74.1835021972656
20
74.3835983276367
40
0.0
41
0.0
42
0.0
10
74.1598968505859
20
74.3835983276367
40
0.0
41
0.0
42
0.0
10
74.1327972412109
20
74.3443984985352
40
0.0
41
0.0
42
0.0
10
74.132698059082
20
74.3171997070312
40
0.0
41
0.0
42
0.0
10
74.3410034179688
20
73.9991989135742
40
0.0
41
0.0
42
0.0
10
74.2481002807617
20
73.8310012817383
40
0.0
41
0.0
42
0.0
10
74.2480010986328
20
73.8022994995117
40
0.0
41
0.0
42
0.0
10
74.3082962036133
20
73.7027969360352
40
0.0
41
0.0
42
0.0
210
0.0
220
0.0
230
1.0
0
LWPOLYLINE
5
2E
330
1C
100
AcDbEntity
67
0
8
0
62
256
6
ByLayer
370
-1
48
1.0
60
0
100
AcDbPolyline
90
12
70
1
38
0.0
39
0.0
10
74.3570022583008
20
74.0136032104492
40
0.0
41
0.0
42
0.0
10
74.1989974975586
20
74.254997253418
40
0.0
41
0.0
42
0.0
10
74.2470016479492
20
74.3246002197266
40
0.0
41
0.0
42
0.0
10
74.4931030273438
20
74.193603515625
40
0.0
41
0.0
42
0.0
10
74.5682983398438
20
74.1092987060547
40
0.0
41
0.0
42
0.0
10
74.6633987426758
20
73.9982986450195
40
0.0
41
0.0
42
0.0
10
74.5966033935547
20
73.8803024291992
40
0.0
41
0.0
42
0.0
10
74.491096496582
20
73.7394027709961
40
0.0
41
0.0
42
0.0
10
74.3653030395508
20
73.7294006347656
40
0.0
41
0.0
42
0.0
10
74.2871017456055
20
73.8588027954102
40
0.0
41
0.0
42
0.0
10
74.3571014404297
20
73.9852981567383
40
0.0
41
0.0
42
0.0
10
74.3570022583008
20
74.0136032104492
40
0.0
41
0.0
42
0.0
210
0.0
220
0.0
230
1.0
0
LWPOLYLINE
5
2F
330
1C
100
AcDbEntity
67
0
8
0
62
256
6
ByLayer
370
-1
48
1.0
60
0
100
AcDbPolyline
90
12
70
1
38
0.0
39
0.0
10
74.4635009765625
20
76.3033981323242
40
0.0
41
0.0
42
0.0
10
74.4963989257812
20
76.1668014526367
40
0.0
41
0.0
42
0.0
10
74.5044021606445
20
76.1669006347656
40
0.0
41
0.0
42
0.0
10
74.5475997924805
20
76.3087005615234
40
0.0
41
0.0
42
0.0
10
74.5584030151367
20
76.480598449707
40
0.0
41
0.0
42
0.0
10
74.5582962036133
20
76.5173034667969
40
0.0
41
0.0
42
0.0
10
74.5037002563477
20
76.7276000976562
40
0.0
41
0.0
42
0.0
10
74.492301940918
20
76.7276000976562
40
0.0
41
0.0
42
0.0
10
74.4619979858398
20
76.686897277832
40
0.0
41
0.0
42
0.0
10
74.4413986206055
20
76.5186996459961
40
0.0
41
0.0
42
0.0
10
74.4412994384766
20
76.481201171875
40
0.0
41
0.0
42
0.0
10
74.4635009765625
20
76.3033981323242
40
0.0
41
0.0
42
0.0
210
0.0
220
0.0
230
1.0
0
LWPOLYLINE
5
30
330
1C
100
AcDbEntity
67
0
8
0
62
256
6
ByLayer
370
-1
48
1.0
60
0
100
AcDbPolyline
90
10
70
1
38
0.0
39
0.0
10
74.4973983764648
20
76.6575012207031
40
0.0
41
0.0
42
0.0
10
74.502197265625
20
76.6565017700195
40
0.0
41
0.0
42
0.0
10
74.5451965332031
20
76.4897003173828
40
0.0
41
0.0
42
0.0
10
74.5384979248047
20
76.3812026977539
40
0.0
41
0.0
42
0.0
10
74.511100769043
20
76.2917022705078
40
0.0
41
0.0
42
0.0
10
74.4904022216797
20
76.2923965454102
40
0.0
41
0.0
42
0.0
10
74.4694976806641
20
76.3813018798828
40
0.0
41
0.0
42
0.0
10
74.4548034667969
20
76.4999008178711
40
0.0
41
0.0
42
0.0
10
74.4700012207031
20
76.6233978271484
40
0.0
41
0.0
42
0.0
10
74.4973983764648
20
76.6575012207031
40
0.0
41
0.0
42
0.0
210
0.0
220
0.0
230
1.0
0
LWPOLYLINE
5
31
330
1C
100
AcDbEntity
67
0
8
0
62
256
6
ByLayer
370
-1
48
1.0
60
0
100
AcDbPolyline
90
9
70
1
38
0.0
39
0.0
10
74.6890029907227
20
74.9886016845703
40
0.0
41
0.0
42
0.0
10
74.9886016845703
20
74.6891021728516
40
0.0
41
0.0
42
0.0
10
75.0111999511719
20
74.6891021728516
40
0.0
41
0.0
42
0.0
10
75.3107986450195
20
74.9886016845703
40
0.0
41
0.0
42
0.0
10
75.3106994628906
20
75.0111999511719
40
0.0
41
0.0
42
0.0
10
75.0112991333008
20
75.3107986450195
40
0.0
41
0.0
42
0.0
10
74.9886016845703
20
75.3106994628906
40
0.0
41
0.0
42
0.0
10
74.6891021728516
20
75.0111999511719
40
0.0
41
0.0
42
0.0
10
74.6890029907227
20
74.9886016845703
40
0.0
41
0.0
42
0.0
210
0.0
220
0.0
230
1.0
0
LWPOLYLINE
5
32
330
1C
100
AcDbEntity
67
0
8
0
62
256
6
ByLayer
370
-1
48
1.0
60
0
100
AcDbPolyline
90
5
70
1
38
0.0
39
0.0
10
75.0
20
74.7049026489258
40
0.0
41
0.0
42
0.0
10
74.7050018310547
20
75.0
40
0.0
41
0.0
42
0.0
10
75.0
20
75.2946014404297
40
0.0
41
0.0
42
0.0
10
75.2947006225586
20
75.0
40
0.0
41
0.0
42
0.0
10
75.0
20
74.7049026489258
40
0.0
41
0.0
42
0.0
210
0.0
220
0.0
230
1.0
0
LWPOLYLINE
5
33
330
1C
100
AcDbEntity
67
0
8
0
62
256
6
ByLayer
370
-1
48
1.0
60
0
100
AcDbPolyline
90
16
70
1
38
0.0
39
0.0
10
75.401496887207
20
75.8906021118164
40
0.0
41
0.0
42
0.0
10
75.4931030273438
20
75.788200378418
40
0.0
41
0.0
42
0.0
10
75.8162994384766
20
75.6163024902344
40
0.0
41
0.0
42
0.0
10
75.8398971557617
20
75.6162033081055
40
0.0
41
0.0
42
0.0
10
75.8671035766602
20
75.655403137207
40
0.0
41
0.0
42
0.0
10
75.8669967651367
20
75.6826019287109
40
0.0
41
0.0
42
0.0
10
75.6587982177734
20
76.0007019042969
40
0.0
41
0.0
42
0.0
10
75.7518005371094
20
76.1688003540039
40
0.0
41
0.0
42
0.0
10
75.7518005371094
20
76.1975021362305
40
0.0
41
0.0
42
0.0
10
75.6914978027344
20
76.2970962524414
40
0.0
41
0.0
42
0.0
10
75.6641998291016
20
76.2969970703125
40
0.0
41
0.0
42
0.0
10
75.491096496582
20
76.2835006713867
40
0.0
41
0.0
42
0.0
10
75.4092025756836
20
76.1743011474609
40
0.0
41
0.0
42
0.0
10
75.318603515625
20
76.0143966674805
40
0.0
41
0.0
42
0.0
10
75.3184967041016
20
75.9877014160156
40
0.0
41
0.0
42
0.0
10
75.401496887207
20
75.8906021118164
40
0.0
41
0.0
42
0.0
210
0.0
220
0.0
230
1.0
0
LWPOLYLINE
5
34
330
1C
100
AcDbEntity
67
0
8
0
62
256
6
ByLayer
370
-1
48
1.0
60
0
100
AcDbPolyline
90
12
70
1
38
0.0
39
0.0
10
75.3363037109375
20
76.0016021728516
40
0.0
41
0.0
42
0.0
10
75.4031982421875
20
76.119499206543
40
0.0
41
0.0
42
0.0
10
75.508903503418
20
76.2602996826172
40
0.0
41
0.0
42
0.0
10
75.6344985961914
20
76.2702026367188
40
0.0
41
0.0
42
0.0
10
75.7126998901367
20
76.140998840332
40
0.0
41
0.0
42
0.0
10
75.6427993774414
20
76.0145034790039
40
0.0
41
0.0
42
0.0
10
75.6426010131836
20
75.986198425293
40
0.0
41
0.0
42
0.0
10
75.8007965087891
20
75.7447967529297
40
0.0
41
0.0
42
0.0
10
75.7528991699219
20
75.6750030517578
40
0.0
41
0.0
42
0.0
10
75.5067977905273
20
75.8059997558594
40
0.0
41
0.0
42
0.0
10
75.431396484375
20
75.8904037475586
40
0.0
41
0.0
42
0.0
10
75.3363037109375
20
76.0016021728516
40
0.0
41
0.0
42
0.0
210
0.0
220
0.0
230
1.0
0
LWPOLYLINE
5
35
330
1C
100
AcDbEntity
67
0
8
0
62
256
6
ByLayer
370
-1
48
1.0
60
0
100
AcDbPolyline
90
12
70
1
38
0.0
39
0.0
10
75.4961013793945
20
73.2723007202148
40
0.0
41
0.0
42
0.0
10
75.5074005126953
20
73.2723007202148
40
0.0
41
0.0
42
0.0
10
75.5376968383789
20
73.313102722168
40
0.0
41
0.0
42
0.0
10
75.5586013793945
20
73.481201171875
40
0.0
41
0.0
42
0.0
10
75.5585021972656
20
73.5186996459961
40
0.0
41
0.0
42
0.0
10
75.5372009277344
20
73.6913986206055
40
0.0
41
0.0
42
0.0
10
75.5034027099609
20
73.8329010009766
40
0.0
41
0.0
42
0.0
10
75.4953994750977
20
73.8330001831055
40
0.0
41
0.0
42
0.0
10
75.4521026611328
20
73.6912002563477
40
0.0
41
0.0
42
0.0
10
75.4414978027344
20
73.5193023681641
40
0.0
41
0.0
42
0.0
10
75.4413986206055
20
73.4825973510742
40
0.0
41
0.0
42
0.0
10
75.4961013793945
20
73.2723007202148
40
0.0
41
0.0
42
0.0
210
0.0
220
0.0
230
1.0
0
LWPOLYLINE
5
36
330
1C
100
AcDbEntity
67
0
8
0
62
256
6
ByLayer
370
-1
48
1.0
60
0
100
AcDbPolyline
90
9
70
1
38
0.0
39
0.0
10
75.4611968994141
20
73.6186981201172
40
0.0
41
0.0
42
0.0
10
75.4888000488281
20
73.7081985473633
40
0.0
41
0.0
42
0.0
10
75.5094985961914
20
73.7074966430664
40
0.0
41
0.0
42
0.0
10
75.5301971435547
20
73.6185989379883
40
0.0
41
0.0
42
0.0
10
75.5448989868164
20
73.4999008178711
40
0.0
41
0.0
42
0.0
10
75.52490234375
20
73.342903137207
40
0.0
41
0.0
42
0.0
10
75.4983978271484
20
73.3412017822266
40
0.0
41
0.0
42
0.0
10
75.4545974731445
20
73.5102005004883
40
0.0
41
0.0
42
0.0
10
75.4611968994141
20
73.6186981201172
40
0.0
41
0.0
42
0.0
210
0.0
220
0.0
230
1.0
0
LWPOLYLINE
5
37
330
1C
100
AcDbEntity
67
0
8
0
62
256
6
ByLayer
370
-1
48
1.0
60
0
100
AcDbPolyline
90
16
70
1
38
0.0
39
0.0
10
75.655403137207
20
74.1327972412109
40
0.0
41
0.0
42
0.0
10
75.6826019287109
20
74.132698059082
40
0.0
41
0.0
42
0.0
10
76.0007019042969
20
74.3408966064453
40
0.0
41
0.0
42
0.0
10
76.1688003540039
20
74.2481002807617
40
0.0
41
0.0
42
0.0
10
76.1975021362305
20
74.2480010986328
40
0.0
41
0.0
42
0.0
10
76.2970962524414
20
74.3082962036133
40
0.0
41
0.0
42
0.0
10
76.2969970703125
20
74.3356018066406
40
0.0
41
0.0
42
0.0
10
76.2834014892578
20
74.5087966918945
40
0.0
41
0.0
42
0.0
10
76.1743011474609
20
74.5904998779297
40
0.0
41
0.0
42
0.0
10
76.0143966674805
20
74.6812973022461
40
0.0
41
0.0
42
0.0
10
75.9877014160156
20
74.6812973022461
40
0.0
41
0.0
42
0.0
10
75.8906021118164
20
74.5982971191406
40
0.0
41
0.0
42
0.0
10
75.788200378418
20
74.5067977905273
40
0.0
41
0.0
42
0.0
10
75.6163024902344
20
74.1835021972656
40
0.0
41
0.0
42
0.0
10
75.6162033081055
20
74.159797668457
40
0.0
41
0.0
42
0.0
10
75.655403137207
20
74.1327972412109
40
0.0
41
0.0
42
0.0
210
0.0
220
0.0
230
1.0
0
LWPOLYLINE
5
38
330
1C
100
AcDbEntity
67
0
8
0
62
256
6
ByLayer
370
-1
48
1.0
60
0
100
AcDbPolyline
90
12
70
1
38
0.0
39
0.0
10
75.8904037475586
20
74.5683975219727
40
0.0
41
0.0
42
0.0
10
76.0016021728516
20
74.6633987426758
40
0.0
41
0.0
42
0.0
10
76.1194000244141
20
74.5964965820312
40
0.0
41
0.0
42
0.0
10
76.2602996826172
20
74.4909973144531
40
0.0
41
0.0
42
0.0
10
76.2703018188477
20
74.3653030395508
40
0.0
41
0.0
42
0.0
10
76.140998840332
20
74.2870025634766
40
0.0
41
0.0
42
0.0
10
76.0145034790039
20
74.3571014404297
40
0.0
41
0.0
42
0.0
10
75.986198425293
20
74.3571014404297
40
0.0
41
0.0
42
0.0
10
75.7447967529297
20
74.1988983154297
40
0.0
41
0.0
42
0.0
10
75.6751022338867
20
74.2470016479492
40
0.0
41
0.0
42
0.0
10
75.8060989379883
20
74.4931030273438
40
0.0
41
0.0
42
0.0
10
75.8904037475586
20
74.5683975219727
40
0.0
41
0.0
42
0.0
210
0.0
220
0.0
230
1.0
0
LWPOLYLINE
5
39
330
1C
100
AcDbEntity
67
0
8
0
62
256
6
ByLayer
370
-1
48
1.0
60
0
100
AcDbPolyline
90
12
70
1
38
0.0
39
0.0
10
76.5173034667969
20
75.4413986206055
40
0.0
41
0.0
42
0.0
10
76.7276000976562
20
75.4962005615234
40
0.0
41
0.0
42
0.0
10
76.7276000976562
20
75.5072021484375
40
0.0
41
0.0
42
0.0
10
76.6867980957031
20
75.5376968383789
40
0.0
41
0.0
42
0.0
10
76.5186996459961
20
75.5586013793945
40
0.0
41
0.0
42
0.0
10
76.481201171875
20
75.5585021972656
40
0.0
41
0.0
42
0.0
10
76.3084030151367
20
75.5372009277344
40
0.0
41
0.0
42
0.0
10
76.1668014526367
20
75.5035018920898
40
0.0
41
0.0
42
0.0
10
76.1668014526367
20
75.4953994750977
40
0.0
41
0.0
42
0.0
10
76.3087005615234
20
75.4521026611328
40
0.0
41
0.0
42
0.0
10
76.480598449707
20
75.4414978027344
40
0.0
41
0.0
42
0.0
10
76.5173034667969
20
75.4413986206055
40
0.0
41
0.0
42
0.0
210
0.0
220
0.0
230
1.0
0
LWPOLYLINE
5
3A
330
1C
100
AcDbEntity
67
0
8
0
62
256
6
ByLayer
370
-1
48
1.0
60
0
100
AcDbPolyline
90
9
70
1
38
0.0
39
0.0
10
76.2923965454102
20
75.5094985961914
40
0.0
41
0.0
42
0.0
10
76.3813018798828
20
75.5301971435547
40
0.0
41
0.0
42
0.0
10
76.5
20
75.5448989868164
40
0.0
41
0.0
42
0.0
10
76.6569976806641
20
75.52490234375
40
0.0
41
0.0
42
0.0
10
76.6586990356445
20
75.4983978271484
40
0.0
41
0.0
42
0.0
10
76.4897003173828
20
75.4544982910156
40
0.0
41
0.0
42
0.0
10
76.3812026977539
20
75.4611968994141
40
0.0
41
0.0
42
0.0
10
76.2917022705078
20
75.4888000488281
40
0.0
41
0.0
42
0.0
10
76.2923965454102
20
75.5094985961914
40
0.0
41
0.0
42
0.0
210
0.0
220
0.0
230
1.0
0
LWPOLYLINE
5
3B
330
1C
100
AcDbEntity
67
0
8
0
62
256
6
ByLayer
370
-1
48
1.0
60
0
100
AcDbPolyline
90
134
70
1
38
0.0
39
0.0
10
79.1156997680664
20
66.6195983886719
40
0.0
41
0.0
42
0.0
10
79.1762008666992
20
66.4891967773438
40
0.0
41
0.0
42
0.0
10
79.3593978881836
20
66.1391983032227
40
0.0
41
0.0
42
0.0
10
79.3820037841797
20
65.9900970458984
40
0.0
41
0.0
42
0.0
10
79.492301940918
20
65.8843002319336
40
0.0
41
0.0
42
0.0
10
79.7277984619141
20
65.7603988647461
40
0.0
41
0.0
42
0.0
10
79.9889984130859
20
65.6064987182617
40
0.0
41
0.0
42
0.0
10
80.0649032592773
20
65.5779037475586
40
0.0
41
0.0
42
0.0
10
80.4853973388672
20
65.4477005004883
40
0.0
41
0.0
42
0.0
10
80.7634963989258
20
65.3836975097656
40
0.0
41
0.0
42
0.0
10
80.9858016967773
20
65.3256988525391
40
0.0
41
0.0
42
0.0
10
81.2421035766602
20
65.2434005737305
40
0.0
41
0.0
42
0.0
10
81.4845962524414
20
65.190803527832
40
0.0
41
0.0
42
0.0
10
81.6455993652344
20
65.1521987915039
40
0.0
41
0.0
42
0.0
10
81.7621002197266
20
65.0009994506836
40
0.0
41
0.0
42
0.0
10
81.877799987793
20
65.0009994506836
40
0.0
41
0.0
42
0.0
10
81.8776016235352
20
65.0128021240234
40
0.0
41
0.0
42
0.0
10
81.7219009399414
20
65.2153015136719
40
0.0
41
0.0
42
0.0
10
81.5152969360352
20
65.2647018432617
40
0.0
41
0.0
42
0.0
10
81.1753997802734
20
65.3386001586914
40
0.0
41
0.0
42
0.0
10
81.0140991210938
20
65.3904037475586
40
0.0
41
0.0
42
0.0
10
80.8760986328125
20
65.426399230957
40
0.0
41
0.0
42
0.0
10
80.5145034790039
20
65.5095977783203
40
0.0
41
0.0
42
0.0
10
80.1389999389648
20
65.6259002685547
40
0.0
41
0.0
42
0.0
10
80.0108032226562
20
65.6743011474609
40
0.0
41
0.0
42
0.0
10
79.5869979858398
20
65.924201965332
40
0.0
41
0.0
42
0.0
10
79.5074996948242
20
65.9660034179688
40
0.0
41
0.0
42
0.0
10
79.4618988037109
20
66.0096969604492
40
0.0
41
0.0
42
0.0
10
79.4537963867188
20
66.0628967285156
40
0.0
41
0.0
42
0.0
10
79.2194976806641
20
66.5105972290039
40
0.0
41
0.0
42
0.0
10
79.1407012939453
20
66.6803970336914
40
0.0
41
0.0
42
0.0
10
79.2004013061523
20
66.9850997924805
40
0.0
41
0.0
42
0.0
10
79.3003997802734
20
67.3080978393555
40
0.0
41
0.0
42
0.0
10
79.3003005981445
20
67.3442993164062
40
0.0
41
0.0
42
0.0
10
79.2907028198242
20
67.489501953125
40
0.0
41
0.0
42
0.0
10
79.4188003540039
20
67.8496017456055
40
0.0
41
0.0
42
0.0
10
79.4315032958984
20
67.9826965332031
40
0.0
41
0.0
42
0.0
10
79.4545974731445
20
68.1209030151367
40
0.0
41
0.0
42
0.0
10
79.4820022583008
20
68.1843032836914
40
0.0
41
0.0
42
0.0
10
79.5007019042969
20
68.2324981689453
40
0.0
41
0.0
42
0.0
10
79.6337966918945
20
68.4878997802734
40
0.0
41
0.0
42
0.0
10
79.6751022338867
20
68.6252975463867
40
0.0
41
0.0
42
0.0
10
80.00830078125
20
69.0109024047852
40
0.0
41
0.0
42
0.0
10
80.0291976928711
20
69.0166015625
40
0.0
41
0.0
42
0.0
10
80.3233032226562
20
69.1698989868164
40
0.0
41
0.0
42
0.0
10
80.5145034790039
20
69.2543029785156
40
0.0
41
0.0
42
0.0
10
80.713996887207
20
69.2744979858398
40
0.0
41
0.0
42
0.0
10
81.0170974731445
20
69.3468017578125
40
0.0
41
0.0
42
0.0
10
81.2330017089844
20
69.3556976318359
40
0.0
41
0.0
42
0.0
10
81.5081024169922
20
69.3983993530273
40
0.0
41
0.0
42
0.0
10
81.6654968261719
20
69.3893966674805
40
0.0
41
0.0
42
0.0
10
81.7036972045898
20
69.3892974853516
40
0.0
41
0.0
42
0.0
10
81.9925994873047
20
69.4197998046875
40
0.0
41
0.0
42
0.0
10
82.0307006835938
20
69.4085998535156
40
0.0
41
0.0
42
0.0
10
82.1212997436523
20
69.3604965209961
40
0.0
41
0.0
42
0.0
10
82.1560974121094
20
69.3564987182617
40
0.0
41
0.0
42
0.0
10
82.484001159668
20
69.3584976196289
40
0.0
41
0.0
42
0.0
10
82.8171997070312
20
69.2500991821289
40
0.0
41
0.0
42
0.0
10
82.9141006469727
20
69.1337966918945
40
0.0
41
0.0
42
0.0
10
82.9961013793945
20
69.0272979736328
40
0.0
41
0.0
42
0.0
10
83.0281982421875
20
68.9912033081055
40
0.0
41
0.0
42
0.0
10
83.0615005493164
20
68.9094009399414
40
0.0
41
0.0
42
0.0
10
83.2421035766602
20
68.4856033325195
40
0.0
41
0.0
42
0.0
10
83.2665023803711
20
68.3079986572266
40
0.0
41
0.0
42
0.0
10
83.3190002441406
20
67.9816970825195
40
0.0
41
0.0
42
0.0
10
83.3199996948242
20
67.8057022094727
40
0.0
41
0.0
42
0.0
10
83.3407974243164
20
67.5
40
0.0
41
0.0
42
0.0
10
83.3294982910156
20
67.3477020263672
40
0.0
41
0.0
42
0.0
10
83.3293991088867
20
67.3093032836914
40
0.0
41
0.0
42
0.0
10
83.3536987304688
20
66.996696472168
40
0.0
41
0.0
42
0.0
10
83.3466033935547
20
66.8649978637695
40
0.0
41
0.0
42
0.0
10
83.3464965820312
20
66.8296966552734
40
0.0
41
0.0
42
0.0
10
83.4831008911133
20
66.4941024780273
40
0.0
41
0.0
42
0.0
10
83.4917984008789
20
66.4886016845703
40
0.0
41
0.0
42
0.0
10
83.811897277832
20
66.2501983642578
40
0.0
41
0.0
42
0.0
10
83.8426971435547
20
66.2500991821289
40
0.0
41
0.0
42
0.0
10
84.0147018432617
20
66.2876968383789
40
0.0
41
0.0
42
0.0
10
84.1641998291016
20
66.3317031860352
40
0.0
41
0.0
42
0.0
10
84.5174026489258
20
66.3321990966797
40
0.0
41
0.0
42
0.0
10
84.8786010742188
20
66.4199981689453
40
0.0
41
0.0
42
0.0
10
84.9990005493164
20
66.466796875
40
0.0
41
0.0
42
0.0
10
84.9990005493164
20
66.4854965209961
40
0.0
41
0.0
42
0.0
10
84.9839019775391
20
66.4853973388672
40
0.0
41
0.0
42
0.0
10
84.8113021850586
20
66.4181976318359
40
0.0
41
0.0
42
0.0
10
84.4824981689453
20
66.3384017944336
40
0.0
41
0.0
42
0.0
10
84.157096862793
20
66.3379974365234
40
0.0
41
0.0
42
0.0
10
84.1201019287109
20
66.3303985595703
40
0.0
41
0.0
42
0.0
10
83.9851989746094
20
66.2904968261719
40
0.0
41
0.0
42
0.0
10
83.8710021972656
20
66.2656021118164
40
0.0
41
0.0
42
0.0
10
83.6033020019531
20
66.4651031494141
40
0.0
41
0.0
42
0.0
10
83.5410995483398
20
66.5066986083984
40
0.0
41
0.0
42
0.0
10
83.5
20
66.6447982788086
40
0.0
41
0.0
42
0.0
10
83.3940963745117
20
66.9050979614258
40
0.0
41
0.0
42
0.0
10
83.3982009887695
20
66.9804992675781
40
0.0
41
0.0
42
0.0
10
83.3981018066406
20
67.0190963745117
40
0.0
41
0.0
42
0.0
10
83.3706970214844
20
67.3714981079102
40
0.0
41
0.0
42
0.0
10
83.3790969848633
20
67.4806976318359
40
0.0
41
0.0
42
0.0
10
83.3789978027344
20
67.5192031860352
40
0.0
41
0.0
42
0.0
10
83.3541030883789
20
67.8842010498047
40
0.0
41
0.0
42
0.0
10
83.353401184082
20
68.0182037353516
40
0.0
41
0.0
42
0.0
10
83.2947006225586
20
68.3817977905273
40
0.0
41
0.0
42
0.0
10
83.2763977050781
20
68.5142974853516
40
0.0
41
0.0
42
0.0
10
83.1389999389648
20
68.8368988037109
40
0.0
41
0.0
42
0.0
10
83.0690994262695
20
69.0086975097656
40
0.0
41
0.0
42
0.0
10
83.0037002563477
20
69.0821990966797
40
0.0
41
0.0
42
0.0
10
82.9401016235352
20
69.1648025512695
40
0.0
41
0.0
42
0.0
10
82.8727035522461
20
69.2456970214844
40
0.0
41
0.0
42
0.0
10
82.5167007446289
20
69.3616027832031
40
0.0
41
0.0
42
0.0
10
82.1801986694336
20
69.3594970703125
40
0.0
41
0.0
42
0.0
10
82.067497253418
20
69.4196014404297
40
0.0
41
0.0
42
0.0
10
82.0171966552734
20
69.4343032836914
40
0.0
41
0.0
42
0.0
10
81.9811019897461
20
69.434196472168
40
0.0
41
0.0
42
0.0
10
81.7343978881836
20
69.4080963134766
40
0.0
41
0.0
42
0.0
10
81.5193023681641
20
69.4206008911133
40
0.0
41
0.0
42
0.0
10
81.4815979003906
20
69.4206008911133
40
0.0
41
0.0
42
0.0
10
81.2608032226562
20
69.3862991333008
40
0.0
41
0.0
42
0.0
10
80.9829025268555
20
69.3748016357422
40
0.0
41
0.0
42
0.0
10
80.7397003173828
20
69.3168029785156
40
0.0
41
0.0
42
0.0
10
80.4853973388672
20
69.2910995483398
40
0.0
41
0.0
42
0.0
10
80.3304977416992
20
69.2226028442383
40
0.0
41
0.0
42
0.0
10
80.0789031982422
20
69.0914993286133
40
0.0
41
0.0
42
0.0
10
79.9916000366211
20
69.0684967041016
40
0.0
41
0.0
42
0.0
10
79.6592025756836
20
68.6846008300781
40
0.0
41
0.0
42
0.0
10
79.6073989868164
20
68.5120010375977
40
0.0
41
0.0
42
0.0
10
79.4990005493164
20
68.3039016723633
40
0.0
41
0.0
42
0.0
10
79.4509963989258
20
68.1891021728516
40
0.0
41
0.0
42
0.0
10
79.4223022460938
20
68.0171966552734
40
0.0
41
0.0
42
0.0
10
79.4052963256836
20
67.8404006958008
40
0.0
41
0.0
42
0.0
10
79.2901000976562
20
67.5162963867188
40
0.0
41
0.0
42
0.0
10
79.2900009155273
20
67.4806976318359
40
0.0
41
0.0
42
0.0
10
79.2975006103516
20
67.3737030029297
40
0.0
41
0.0
42
0.0
10
79.1865997314453
20
67.0148010253906
40
0.0
41
0.0
42
0.0
10
79.1157989501953
20
66.6529006958008
40
0.0
41
0.0
42
0.0
10
79.1156997680664
20
66.6195983886719
40
0.0
41
0.0
42
0.0
210
0.0
220
0.0
230
1.0
0
LWPOLYLINE
5
3C
330
1C
100
AcDbEntity
67
0
8
0
62
256
6
ByLayer
370
-1
48
1.0
60
0
100
AcDbPolyline
90
133
70
1
38
0.0
39
0.0
10
81.0868988037109
20
79.8378982543945
40
0.0
41
0.0
42
0.0
10
81.315299987793
20
79.6587982177734
40
0.0
41
0.0
42
0.0
10
81.3584976196289
20
79.6427993774414
40
0.0
41
0.0
42
0.0
10
81.4877014160156
20
79.6074981689453
40
0.0
41
0.0
42
0.0
10
81.69580078125
20
79.4989013671875
40
0.0
41
0.0
42
0.0
10
81.8107986450195
20
79.4508972167969
40
0.0
41
0.0
42
0.0
10
81.9826965332031
20
79.4223022460938
40
0.0
41
0.0
42
0.0
10
82.1595001220703
20
79.4052963256836
40
0.0
41
0.0
42
0.0
10
82.4835968017578
20
79.2901000976562
40
0.0
41
0.0
42
0.0
10
82.5192031860352
20
79.2900009155273
40
0.0
41
0.0
42
0.0
10
82.6261978149414
20
79.2975006103516
40
0.0
41
0.0
42
0.0
10
82.9850997924805
20
79.1865997314453
40
0.0
41
0.0
42
0.0
10
83.3470001220703
20
79.1157989501953
40
0.0
41
0.0
42
0.0
10
83.3803024291992
20
79.1156997680664
40
0.0
41
0.0
42
0.0
10
83.5105972290039
20
79.1762008666992
40
0.0
41
0.0
42
0.0
10
83.8607025146484
20
79.3593978881836
40
0.0
41
0.0
42
0.0
10
84.0096969604492
20
79.3820037841797
40
0.0
41
0.0
42
0.0
10
84.1155014038086
20
79.492301940918
40
0.0
41
0.0
42
0.0
10
84.2393035888672
20
79.727897644043
40
0.0
41
0.0
42
0.0
10
84.3930969238281
20
79.9887008666992
40
0.0
41
0.0
42
0.0
10
84.4999008178711
20
80.3165969848633
40
0.0
41
0.0
42
0.0
10
84.552001953125
20
80.4853973388672
40
0.0
41
0.0
42
0.0
10
84.6159973144531
20
80.7636032104492
40
0.0
41
0.0
42
0.0
10
84.6740036010742
20
80.9858016967773
40
0.0
41
0.0
42
0.0
10
84.7563018798828
20
81.2421035766602
40
0.0
41
0.0
42
0.0
10
84.8098983764648
20
81.4885025024414
40
0.0
41
0.0
42
0.0
10
84.9990005493164
20
81.7583999633789
40
0.0
41
0.0
42
0.0
10
84.9990005493164
20
81.877799987793
40
0.0
41
0.0
42
0.0
10
84.9908981323242
20
81.877799987793
40
0.0
41
0.0
42
0.0
10
84.7341995239258
20
81.5113983154297
40
0.0
41
0.0
42
0.0
10
84.6611022949219
20
81.1753997802734
40
0.0
41
0.0
42
0.0
10
84.6092987060547
20
81.0140991210938
40
0.0
41
0.0
42
0.0
10
84.5733032226562
20
80.8761978149414
40
0.0
41
0.0
42
0.0
10
84.4900970458984
20
80.5142974853516
40
0.0
41
0.0
42
0.0
10
84.3255996704102
20
80.0112991333008
40
0.0
41
0.0
42
0.0
10
84.0755004882812
20
79.5870971679688
40
0.0
41
0.0
42
0.0
10
84.0338973999023
20
79.5075988769531
40
0.0
41
0.0
42
0.0
10
83.9901962280273
20
79.4618988037109
40
0.0
41
0.0
42
0.0
10
83.936897277832
20
79.4537963867188
40
0.0
41
0.0
42
0.0
10
83.4893035888672
20
79.219596862793
40
0.0
41
0.0
42
0.0
10
83.3195037841797
20
79.1407012939453
40
0.0
41
0.0
42
0.0
10
83.0148010253906
20
79.2004013061523
40
0.0
41
0.0
42
0.0
10
82.6918029785156
20
79.3003997802734
40
0.0
41
0.0
42
0.0
10
82.6556015014648
20
79.3003005981445
40
0.0
41
0.0
42
0.0
10
82.5103988647461
20
79.2907028198242
40
0.0
41
0.0
42
0.0
10
82.1502990722656
20
79.4188003540039
40
0.0
41
0.0
42
0.0
10
82.0171966552734
20
79.4315032958984
40
0.0
41
0.0
42
0.0
10
81.8789978027344
20
79.4545974731445
40
0.0
41
0.0
42
0.0
10
81.8154983520508
20
79.4820022583008
40
0.0
41
0.0
42
0.0
10
81.7673034667969
20
79.5007019042969
40
0.0
41
0.0
42
0.0
10
81.5121994018555
20
79.6336975097656
40
0.0
41
0.0
42
0.0
10
81.4148025512695
20
79.660400390625
40
0.0
41
0.0
42
0.0
10
81.3744964599609
20
79.6753005981445
40
0.0
41
0.0
42
0.0
10
81.1099014282227
20
79.882698059082
40
0.0
41
0.0
42
0.0
10
81.0053024291992
20
79.9937973022461
40
0.0
41
0.0
42
0.0
10
80.9888000488281
20
80.0083999633789
40
0.0
41
0.0
42
0.0
10
80.9831008911133
20
80.0291976928711
40
0.0
41
0.0
42
0.0
10
80.8298034667969
20
80.3233032226562
40
0.0
41
0.0
42
0.0
10
80.7453994750977
20
80.5145034790039
40
0.0
41
0.0
42
0.0
10
80.7251968383789
20
80.713996887207
40
0.0
41
0.0
42
0.0
10
80.6529006958008
20
81.0169982910156
40
0.0
41
0.0
42
0.0
10
80.6439971923828
20
81.2330017089844
40
0.0
41
0.0
42
0.0
10
80.6013031005859
20
81.5081024169922
40
0.0
41
0.0
42
0.0
10
80.6104965209961
20
81.6654968261719
40
0.0
41
0.0
42
0.0
10
80.6103973388672
20
81.7036972045898
40
0.0
41
0.0
42
0.0
10
80.5800018310547
20
81.9925003051758
40
0.0
41
0.0
42
0.0
10
80.5911026000977
20
82.0307006835938
40
0.0
41
0.0
42
0.0
10
80.6391983032227
20
82.1212997436523
40
0.0
41
0.0
42
0.0
10
80.6432037353516
20
82.1560974121094
40
0.0
41
0.0
42
0.0
10
80.6411972045898
20
82.484001159668
40
0.0
41
0.0
42
0.0
10
80.7496032714844
20
82.8171997070312
40
0.0
41
0.0
42
0.0
10
80.8659973144531
20
82.9141998291016
40
0.0
41
0.0
42
0.0
10
80.9725036621094
20
82.9962005615234
40
0.0
41
0.0
42
0.0
10
81.0086975097656
20
83.0281982421875
40
0.0
41
0.0
42
0.0
10
81.0904006958008
20
83.0615005493164
40
0.0
41
0.0
42
0.0
10
81.5142974853516
20
83.2421035766602
40
0.0
41
0.0
42
0.0
10
81.6918029785156
20
83.2665023803711
40
0.0
41
0.0
42
0.0
10
82.0182037353516
20
83.3190002441406
40
0.0
41
0.0
42
0.0
10
82.1941986083984
20
83.3199996948242
40
0.0
41
0.0
42
0.0
10
82.4999008178711
20
83.3407974243164
40
0.0
41
0.0
42
0.0
10
82.652099609375
20
83.3294982910156
40
0.0
41
0.0
42
0.0
10
82.6905975341797
20
83.3293991088867
40
0.0
41
0.0
42
0.0
10
83.0162963867188
20
83.3546981811523
40
0.0
41
0.0
42
0.0
10
83.5007019042969
20
83.4872970581055
40
0.0
41
0.0
42
0.0
10
83.50830078125
20
83.4872970581055
40
0.0
41
0.0
42
0.0
10
83.7497024536133
20
83.811897277832
40
0.0
41
0.0
42
0.0
10
83.7496032714844
20
83.8426971435547
40
0.0
41
0.0
42
0.0
10
83.7115020751953
20
84.0177001953125
40
0.0
41
0.0
42
0.0
10
83.7110977172852
20
84.3440017700195
40
0.0
41
0.0
42
0.0
10
83.7077026367188
20
84.3809967041016
40
0.0
41
0.0
42
0.0
10
83.6682968139648
20
84.5145034790039
40
0.0
41
0.0
42
0.0
10
83.5796966552734
20
84.8786010742188
40
0.0
41
0.0
42
0.0
10
83.5329971313477
20
84.9990005493164
40
0.0
41
0.0
42
0.0
10
83.5143966674805
20
84.9990005493164
40
0.0
41
0.0
42
0.0
10
83.5142974853516
20
84.9839019775391
40
0.0
41
0.0
42
0.0
10
83.5814971923828
20
84.8113021850586
40
0.0
41
0.0
42
0.0
10
83.6607971191406
20
84.4853973388672
40
0.0
41
0.0
42
0.0
10
83.7093963623047
20
84.3202972412109
40
0.0
41
0.0
42
0.0
10
83.7098007202148
20
83.9822006225586
40
0.0
41
0.0
42
0.0
10
83.7341003417969
20
83.8710021972656
40
0.0
41
0.0
42
0.0
10
83.5345993041992
20
83.603401184082
40
0.0
41
0.0
42
0.0
10
83.4932022094727
20
83.5410995483398
40
0.0
41
0.0
42
0.0
10
83.3537979125977
20
83.4997024536133
40
0.0
41
0.0
42
0.0
10
82.9835968017578
20
83.3983001708984
40
0.0
41
0.0
42
0.0
10
82.6284027099609
20
83.3706970214844
40
0.0
41
0.0
42
0.0
10
82.5192031860352
20
83.3790969848633
40
0.0
41
0.0
42
0.0
10
82.4806976318359
20
83.3789978027344
40
0.0
41
0.0
42
0.0
10
82.1156997680664
20
83.3541030883789
40
0.0
41
0.0
42
0.0
10
81.9816970825195
20
83.353401184082
40
0.0
41
0.0
42
0.0
10
81.6181030273438
20
83.2947006225586
40
0.0
41
0.0
42
0.0
10
81.4856033325195
20
83.276496887207
40
0.0
41
0.0
42
0.0
10
81.1628036499023
20
83.1389999389648
40
0.0
41
0.0
42
0.0
10
80.9912033081055
20
83.0690994262695
40
0.0
41
0.0
42
0.0
10
80.9176025390625
20
83.0037002563477
40
0.0
41
0.0
42
0.0
10
80.8349990844727
20
82.9401016235352
40
0.0
41
0.0
42
0.0
10
80.7539978027344
20
82.8727035522461
40
0.0
41
0.0
42
0.0
10
80.6380996704102
20
82.5167007446289
40
0.0
41
0.0
42
0.0
10
80.6401977539062
20
82.1801986694336
40
0.0
41
0.0
42
0.0
10
80.5802001953125
20
82.067497253418
40
0.0
41
0.0
42
0.0
10
80.5655975341797
20
82.0171966552734
40
0.0
41
0.0
42
0.0
10
80.5654983520508
20
81.9811019897461
40
0.0
41
0.0
42
0.0
10
80.5915985107422
20
81.7343978881836
40
0.0
41
0.0
42
0.0
10
80.5791015625
20
81.5193023681641
40
0.0
41
0.0
42
0.0
10
80.5791015625
20
81.4814987182617
40
0.0
41
0.0
42
0.0
10
80.6134033203125
20
81.2608032226562
40
0.0
41
0.0
42
0.0
10
80.6249008178711
20
80.9828033447266
40
0.0
41
0.0
42
0.0
10
80.6828994750977
20
80.7396011352539
40
0.0
41
0.0
42
0.0
10
80.7086029052734
20
80.4853973388672
40
0.0
41
0.0
42
0.0
10
80.7771987915039
20
80.3304977416992
40
0.0
41
0.0
42
0.0
10
80.908203125
20
80.0789031982422
40
0.0
41
0.0
42
0.0
10
80.9311981201172
20
79.9914016723633
40
0.0
41
0.0
42
0.0
10
80.994499206543
20
79.9358978271484
40
0.0
41
0.0
42
0.0
10
81.0868988037109
20
79.8378982543945
40
0.0
41
0.0
42
0.0
210
0.0
220
0.0
230
1.0
0
LWPOLYLINE
5
3D
330
1C
100
AcDbEntity
67
0
8
0
62
256
6
ByLayer
370
-1
48
1.0
60
0
100
AcDbPolyline
90
76
70
1
38
0.0
39
0.0
10
82.901496887207
20
73.4869003295898
40
0.0
41
0.0
42
0.0
10
82.9038009643555
20
73.4821014404297
40
0.0
41
0.0
42
0.0
10
82.9965972900391
20
73.3536987304688
40
0.0
41
0.0
42
0.0
10
83.0338973999023
20
73.3072967529297
40
0.0
41
0.0
42
0.0
10
83.1714019775391
20
72.9887008666992
40
0.0
41
0.0
42
0.0
10
83.3296966552734
20
72.6657028198242
40
0.0
41
0.0
42
0.0
10
83.3563995361328
20
72.627799987793
40
0.0
41
0.0
42
0.0
10
83.4736022949219
20
72.4914016723633
40
0.0
41
0.0
42
0.0
10
83.4972991943359
20
72.4405975341797
40
0.0
41
0.0
42
0.0
10
83.7811965942383
20
72.1667022705078
40
0.0
41
0.0
42
0.0
10
83.901496887207
20
71.9921035766602
40
0.0
41
0.0
42
0.0
10
83.9921035766602
20
71.8685989379883
40
0.0
41
0.0
42
0.0
10
84.1967010498047
20
71.8246994018555
40
0.0
41
0.0
42
0.0
10
84.4838027954102
20
71.7148971557617
40
0.0
41
0.0
42
0.0
10
84.5175018310547
20
71.7148971557617
40
0.0
41
0.0
42
0.0
10
84.7938995361328
20
71.7811965942383
40
0.0
41
0.0
42
0.0
10
84.9990005493164
20
71.8188018798828
40
0.0
41
0.0
42
0.0
10
84.9990005493164
20
71.8868026733398
40
0.0
41
0.0
42
0.0
10
84.9819030761719
20
71.8867034912109
40
0.0
41
0.0
42
0.0
10
84.845100402832
20
71.8616027832031
40
0.0
41
0.0
42
0.0
10
84.5030975341797
20
71.7796020507812
40
0.0
41
0.0
42
0.0
10
84.2872009277344
20
71.8621978759766
40
0.0
41
0.0
42
0.0
10
84.007698059082
20
71.9219970703125
40
0.0
41
0.0
42
0.0
10
83.9449005126953
20
72.0077972412109
40
0.0
41
0.0
42
0.0
10
83.8735961914062
20
72.1112976074219
40
0.0
41
0.0
42
0.0
10
83.5025024414062
20
72.4691009521484
40
0.0
41
0.0
42
0.0
10
83.4841995239258
20
72.5083999633789
40
0.0
41
0.0
42
0.0
10
83.3538970947266
20
72.6601028442383
40
0.0
41
0.0
42
0.0
10
83.1818008422852
20
73.011100769043
40
0.0
41
0.0
42
0.0
10
83.0295028686523
20
73.364501953125
40
0.0
41
0.0
42
0.0
10
83.0031967163086
20
73.3968963623047
40
0.0
41
0.0
42
0.0
10
82.9289016723633
20
73.4998016357422
40
0.0
41
0.0
42
0.0
10
82.9227981567383
20
73.5129013061523
40
0.0
41
0.0
42
0.0
10
82.8314971923828
20
73.877197265625
40
0.0
41
0.0
42
0.0
10
82.7556991577148
20
74.0139007568359
40
0.0
41
0.0
42
0.0
10
82.7462997436523
20
74.1606979370117
40
0.0
41
0.0
42
0.0
10
82.7873992919922
20
74.4858016967773
40
0.0
41
0.0
42
0.0
10
82.8514022827148
20
74.6250991821289
40
0.0
41
0.0
42
0.0
10
82.9786987304688
20
74.8209991455078
40
0.0
41
0.0
42
0.0
10
83.0012969970703
20
74.8612976074219
40
0.0
41
0.0
42
0.0
10
83.0654983520508
20
74.9908981323242
40
0.0
41
0.0
42
0.0
10
83.4337005615234
20
75.4940032958984
40
0.0
41
0.0
42
0.0
10
83.5047988891602
20
75.5600967407227
40
0.0
41
0.0
42
0.0
10
83.5370025634766
20
75.597900390625
40
0.0
41
0.0
42
0.0
10
83.586799621582
20
75.6306991577148
40
0.0
41
0.0
42
0.0
10
83.8841018676758
20
75.9955978393555
40
0.0
41
0.0
42
0.0
10
83.9683990478516
20
76.0526962280273
40
0.0
41
0.0
42
0.0
10
84.0077972412109
20
76.1081008911133
40
0.0
41
0.0
42
0.0
10
84.1484985351562
20
76.133903503418
40
0.0
41
0.0
42
0.0
10
84.1836013793945
20
76.1502990722656
40
0.0
41
0.0
42
0.0
10
84.5047988891602
20
76.4203033447266
40
0.0
41
0.0
42
0.0
10
84.6579971313477
20
76.375602722168
40
0.0
41
0.0
42
0.0
10
84.6933975219727
20
76.3755035400391
40
0.0
41
0.0
42
0.0
10
84.9990005493164
20
76.4207000732422
40
0.0
41
0.0
42
0.0
10
84.9990005493164
20
76.4541015625
40
0.0
41
0.0
42
0.0
10
84.9814987182617
20
76.4540023803711
40
0.0
41
0.0
42
0.0
10
84.6391983032227
20
76.4039001464844
40
0.0
41
0.0
42
0.0
10
84.5168991088867
20
76.439697265625
40
0.0
41
0.0
42
0.0
10
84.4876022338867
20
76.4395980834961
40
0.0
41
0.0
42
0.0
10
84.1415023803711
20
76.1486968994141
40
0.0
41
0.0
42
0.0
10
83.9921035766602
20
76.1212997436523
40
0.0
41
0.0
42
0.0
10
83.9623031616211
20
76.0792007446289
40
0.0
41
0.0
42
0.0
10
83.8514022827148
20
76.0043029785156
40
0.0
41
0.0
42
0.0
10
83.5867004394531
20
75.67919921875
40
0.0
41
0.0
42
0.0
10
83.5216979980469
20
75.6364974975586
40
0.0
41
0.0
42
0.0
10
83.4952011108398
20
75.6052017211914
40
0.0
41
0.0
42
0.0
10
83.3883972167969
20
75.5059967041016
40
0.0
41
0.0
42
0.0
10
83.0248031616211
20
75.008903503418
40
0.0
41
0.0
42
0.0
10
82.9884033203125
20
74.9374008178711
40
0.0
41
0.0
42
0.0
10
82.8238983154297
20
74.6847991943359
40
0.0
41
0.0
42
0.0
10
82.7455978393555
20
74.5140991210938
40
0.0
41
0.0
42
0.0
10
82.7102966308594
20
74.2345962524414
40
0.0
41
0.0
42
0.0
10
82.7101974487305
20
74.1966018676758
40
0.0
41
0.0
42
0.0
10
82.7238006591797
20
73.9860000610352
40
0.0
41
0.0
42
0.0
10
82.8199005126953
20
73.8126983642578
40
0.0
41
0.0
42
0.0
10
82.901496887207
20
73.4869003295898
40
0.0
41
0.0
42
0.0
210
0.0
220
0.0
230
1.0
0
VIEWPORT
5
42
330
3E
100
AcDbEntity
67
1
8
0
62
256
6
ByLayer
370
-1
48
1.0
60
0
100
AcDbViewport
10
0.0
20
0.0
30
0.0
40
297.0
41
210.0
68
1
69
1
12
50.0
22
100.0
13
0.0
23
0.0
14
10.0
24
10.0
15
10.0
25
10.0
16
0.0
26
0.0
36
1.0
17
0.0
27
0.0
37
0.0
42
50.0
43
0.0
44
0.0
45
250.0
50
0.0
51
0.0
72
1000
90
819232
110
0.0
120
0.0
130
0.0
111
1.0
121
0.0
131
0.0
112
0.0
122
1.0
132
0.0
0
ENDSEC
0
SECTION
2
OBJECTS
0
DICTIONARY
5
48
330
0
100
AcDbDictionary
280
1
281
1
3
ACAD_GROUP
350
12
3
ACAD_LAYOUT
350
41
3
ACAD_DGNDEFINITIONS
350
F
3
ACAD_DWFDEFINITIONS
350
10
3
ACAD_PDFDEFINITIONS
350
11
3
ACAD_MLINESTYLE
350
B
3
ACAD_IMAGE_DICT
350
E
3
ACAD_IMAGE_VARS
350
21
0
DICTIONARY
5
12
330
48
100
AcDbDictionary
280
1
281
1
0
DICTIONARY
5
41
330
48
100
AcDbDictionary
280
1
281
1
3
Model
350
20
3
Layout1
350
43
0
DICTIONARY
5
F
330
48
100
AcDbDictionary
280
1
281
1
0
DICTIONARY
5
10
330
48
100
AcDbDictionary
280
1
281
1
0
DICTIONARY
5
11
330
48
100
AcDbDictionary
280
1
281
1
0
DICTIONARY
5
B
330
48
100
AcDbDictionary
280
1
281
1
3
Standard
350
1B
0
DICTIONARY
5
E
330
48
100
AcDbDictionary
280
1
281
1
0
DICTIONARY
5
6
330
5
100
AcDbDictionary
280
1
281
1
3
ACAD_LAYERSTATES
360
49
0
DICTIONARY
5
49
330
6
100
AcDbDictionary
280
1
281
1
0
LAYOUT
5
20
330
41
100
AcDbPlotSettings
1

2
none_device
4
ISO_A4_(210.00_x_297.00_MM)
6

40
7.5
41
20.0
42
7.5
43
20.0
44
210.0
45
297.0
46
0.0
47
0.0
48
0.0
49
0.0
140
0.0
141
0.0
142
1.0
143
1.0
70
11952
72
1
73
1
74
1
7

75
0
76
0
77
2
78
300
147
1.0
148
0.0
149
0.0
100
AcDbLayout
1
Model
71
0
10
-20.0
20
-7.5
11
277.0
21
202.5
12
0.0
22
0.0
32
0.0
14
25.7
24
19.5
34
0.0
15
231.3
25
175.5
35
0.0
146
0.0
13
0.0
23
0.0
33
0.0
16
1.0
26
0.0
36
0.0
17
0.0
27
1.0
37
0.0
76
0
330
1C
0
LAYOUT
5
43
330
41
100
AcDbPlotSettings
1

2
none_device
4
ISO_A4_(210.00_x_297.00_MM)
6

40
7.5
41
20.0
42
7.5
43
20.0
44
210.0
45
297.0
46
0.0
47
0.0
48
0.0
49
0.0
140
0.0
141
0.0
142
1.0
143
1.0
70
688
72
1
73
1
74
1
7

75
0
76
0
77
2
78
300
147
1.0
148
0.0
149
0.0
100
AcDbLayout
1
Layout1
71
1
10
-20.0
20
-7.5
11
277.0
21
202.5
12
0.0
22
0.0
32
0.0
14
25.7
24
19.5
34
0.0
15
231.3
25
175.5
35
0.0
146
0.0
13
0.0
23
0.0
33
0.0
16
1.0
26
0.0
36
0.0
17
0.0
27
1.0
37
0.0
76
0
330
3E
0
MLINESTYLE
5
1B
330
B
100
AcDbMlineStyle
2
Standard
70
0
3

62
256
51
90.0
52
90.0
71
2
49
0.5
62
256
6
ByLayer
49
-0.5
62
256
6
ByLayer
0
RASTERVARIABLES
5
21
330
E
100
AcDbRasterVariables
90
0
70
1
71
1
72
0
0
ENDSEC
0
EOF
