999
DXF file generated by netDxf https://github.com/haplokuon/netDxf, Copyright(C) Daniel Carvajal, Licensed under MIT
0
SECTION
2
HEADER
9
$ACADVER
1
AC1015
9
$DWGCODEPAGE
3
ANSI_1252
9
$HANDSEED
5
50
9
$ANGBASE
50
0.0
9
$ANGDIR
70
0
9
$ATTMODE
70
1
9
$AUNITS
70
0
9
$AUPREC
70
0
9
$CECOLOR
62
256
9
$CELTSCALE
40
1.0
9
$CELTYPE
6
ByLayer
9
$CELWEIGHT
370
-1
9
$CLAYER
8
0
9
$CMLJUST
70
0
9
$CMLSCALE
40
20.0
9
$CMLSTYLE
2
Standard
9
$DIMSTYLE
2
Standard
9
$TEXTSIZE
40
2.5
9
$TEXTSTYLE
7
Standard
9
$LUNITS
70
2
9
$LUPREC
70
4
9
$MIRRTEXT
70
0
9
$EXTNAMES
290
1
9
$INSBASE
10
0.0
20
0.0
30
0.0
9
$INSUNITS
70
0
9
$LTSCALE
40
1.0
9
$LWDISPLAY
290
0
9
$PDMODE
70
0
9
$PDSIZE
40
0.0
9
$PLINEGEN
70
0
9
$PSLTSCALE
70
1
9
$SPLINESEGS
70
8
9
$SURFU
70
6
9
$SURFV
70
6
9
$TDCREATE
40
2460823.48365178
9
$TDUCREATE
40
2460823.15031845
9
$TDUPDATE
40
2460823.48365178
9
$TDUUPDATE
40
2460823.15031845
9
$TDINDWG
40
0.0
9
$UCSORG
10
0.0
20
0.0
30
0.0
9
$UCSXDIR
10
1.0
20
0.0
30
0.0
9
$UCSYDIR
10
0.0
20
1.0
30
0.0
9
$DIMADEC
70
0
9
$DIMALT
70
0
9
$DIMALTD
70
2
9
$DIMALTF
40
25.4
9
$DIMALTRND
40
0.0
9
$DIMALTTD
70
2
9
$DIMALTTZ
70
0
9
$DIMALTU
70
2
9
$DIMALTZ
70
0
9
$DIMAPOST
1

9
$DIMATFIT
70
3
9
$DIMAUNIT
70
0
9
$DIMASZ
40
0.18
9
$DIMAZIN
70
0
9
$DIMSAH
70
0
9
$DIMBLK
1

9
$DIMLDRBLK
1

9
$DIMCEN
40
0.09
9
$DIMCLRD
70
0
9
$DIMCLRE
70
0
9
$DIMCLRT
70
0
9
$DIMDEC
70
4
9
$DIMDLE
40
0.0
9
$DIMDLI
40
0.38
9
$DIMDSEP
70
46
9
$DIMEXE
40
0.18
9
$DIMEXO
40
0.0625
9
$DIMFXLON
70
0
9
$DIMFXL
40
1.0
9
$DIMGAP
40
0.09
9
$DIMJUST
70
0
9
$DIMLFAC
40
1.0
9
$DIMLUNIT
70
2
9
$DIMLWD
70
-2
9
$DIMLWE
70
-2
9
$DIMPOST
1

9
$DIMRND
40
0.0
9
$DIMSCALE
40
1.0
9
$DIMSD1
70
0
9
$DIMSD2
70
0
9
$DIMSE1
70
0
9
$DIMSE2
70
0
9
$DIMSOXD
70
0
9
$DIMTAD
70
0
9
$DIMTDEC
70
4
9
$DIMTFAC
40
1.0
9
$DIMTIH
70
0
9
$DIMTIX
70
0
9
$DIMTM
40
0.0
9
$DIMTMOVE
70
0
9
$DIMTOFL
70
0
9
$DIMTOH
70
0
9
$DIMTOL
70
0
9
$DIMLIM
70
0
9
$DIMTOLJ
70
1
9
$DIMTP
40
0.0
9
$DIMTXT
40
0.18
9
$DIMTXTDIRECTION
70
0
9
$DIMTZIN
70
0
9
$DIMZIN
70
0
9
$DIMFRAC
70
0
9
$DIMLTYPE
6
ByBlock
9
$DIMLTEX1
6
ByBlock
9
$DIMLTEX2
6
ByBlock
0
ENDSEC
0
SECTION
2
CLASSES
0
CLASS
1
RASTERVARIABLES
2
AcDbRasterVariables
3
ISM
90
0
280
0
281
0
0
ENDSEC
0
SECTION
2
TABLES
0
TABLE
2
APPID
5
4
330
0
100
AcDbSymbolTable
70
5
0
APPID
5
19
330
4
100
AcDbSymbolTableRecord
100
AcDbRegAppTableRecord
2
ACAD
70
0
0
APPID
5
4A
330
4
100
AcDbSymbolTableRecord
100
AcDbRegAppTableRecord
2
AcCmTransparency
70
0
0
APPID
5
4B
330
4
100
AcDbSymbolTableRecord
100
AcDbRegAppTableRecord
2
AcAecLayerStandard
70
0
0
APPID
5
4C
330
4
100
AcDbSymbolTableRecord
100
AcDbRegAppTableRecord
2
GradientColor1ACI
70
0
0
APPID
5
4D
330
4
100
AcDbSymbolTableRecord
100
AcDbRegAppTableRecord
2
GradientColor2ACI
70
0
0
ENDTAB
0
TABLE
2
VPORT
5
1
330
0
100
AcDbSymbolTable
70
1
0
VPORT
5
2
330
1
100
AcDbSymbolTableRecord
100
AcDbViewportTableRecord
2
*Active
70
0
10
0.0
20
0.0
11
1.0
21
1.0
12
0.0
22
0.0
13
0.0
23
0.0
14
0.5
24
0.5
15
10.0
25
10.0
16
0.0
26
0.0
36
1.0
17
0.0
27
0.0
37
0.0
40
10.0
41
1.0
75
0
76
1
0
ENDTAB
0
TABLE
2
LTYPE
5
7
330
0
100
AcDbSymbolTable
70
3
0
LTYPE
5
15
330
7
100
AcDbSymbolTableRecord
100
AcDbLinetypeTableRecord
2
Continuous
70
0
3
Solid line
72
65
73
0
40
0.0
0
LTYPE
5
16
330
7
100
AcDbSymbolTableRecord
100
AcDbLinetypeTableRecord
2
ByLayer
70
0
3

72
65
73
0
40
0.0
0
LTYPE
5
17
330
7
100
AcDbSymbolTableRecord
100
AcDbLinetypeTableRecord
2
ByBlock
70
0
3

72
65
73
0
40
0.0
0
ENDTAB
0
TABLE
2
LAYER
5
5
102
{ACAD_XDICTIONARY
360
6
102
}
330
0
100
AcDbSymbolTable
70
1
0
LAYER
5
14
330
5
100
AcDbSymbolTableRecord
100
AcDbLayerTableRecord
2
0
70
0
62
7
6
Continuous
290
1
370
-3
390
0
0
ENDTAB
0
TABLE
2
STYLE
5
8
330
0
100
AcDbSymbolTable
70
1
0
STYLE
5
18
330
8
100
AcDbSymbolTableRecord
100
AcDbTextStyleTableRecord
2
Standard
3
simplex.shx
70
0
71
0
40
0.0
41
1.0
42
0.0
50
0.0
0
ENDTAB
0
TABLE
2
DIMSTYLE
5
A
330
0
100
AcDbSymbolTable
70
1
100
AcDbDimStyleTable
0
DIMSTYLE
105
1A
330
A
100
AcDbSymbolTableRecord
100
AcDbDimStyleTableRecord
2
Standard
3

4

40
1.0
41
0.18
42
0.0625
43
0.38
44
0.18
45
0.0
46
0.0
47
0.0
48
0.0
49
1.0
70
0
71
0
72
0
73
0
74
0
75
0
76
0
77
0
78
0
79
0
140
0.18
141
0.09
143
25.4
144
1.0
146
1.0
147
0.09
148
0.0
170
0
171
2
172
0
174
0
175
0
176
0
177
0
178
0
179
0
271
4
272
4
273
2
274
2
275
0
276
0
277
2
278
46
279
0
280
0
281
0
282
0
283
1
284
0
285
0
286
0
289
3
290
0
294
0
340
18
173
0
345
17
346
17
347
17
371
-2
372
-2
0
ENDTAB
0
TABLE
2
VIEW
5
3
330
0
100
AcDbSymbolTable
70
0
0
ENDTAB
0
TABLE
2
UCS
5
C
330
0
100
AcDbSymbolTable
70
0
0
ENDTAB
0
TABLE
2
BLOCK_RECORD
5
D
330
0
100
AcDbSymbolTable
70
2
0
BLOCK_RECORD
5
1C
330
D
100
AcDbSymbolTableRecord
100
AcDbBlockTableRecord
2
*Model_Space
340
20
0
BLOCK_RECORD
5
44
330
D
100
AcDbSymbolTableRecord
100
AcDbBlockTableRecord
2
*Paper_Space
340
49
0
ENDTAB
0
ENDSEC
0
SECTION
2
BLOCKS
0
BLOCK
5
1E
330
1C
100
AcDbEntity
67
0
8
0
100
AcDbBlockBegin
2
*Model_Space
70
0
10
0.0
20
0.0
30
0.0
3
*Model_Space
4

0
ENDBLK
5
1D
330
1C
100
AcDbEntity
8
0
100
AcDbBlockEnd
0
BLOCK
5
46
330
44
100
AcDbEntity
67
1
8
0
100
AcDbBlockBegin
2
*Paper_Space
70
0
10
0.0
20
0.0
30
0.0
3
*Paper_Space
4

0
ENDBLK
5
45
330
44
100
AcDbEntity
8
0
100
AcDbBlockEnd
0
ENDSEC
0
SECTION
2
ENTITIES
0
LWPOLYLINE
5
22
330
1C
100
AcDbEntity
67
0
8
0
62
256
6
ByLayer
370
-1
48
1.0
60
0
100
AcDbPolyline
90
26
70
1
38
0.0
39
0.0
10
65.4873962402344
20
65.8386001586914
40
0.0
41
0.0
42
0.0
10
65.5126037597656
20
65.8277969360352
40
0.0
41
0.0
42
0.0
10
65.9877014160156
20
65.6603012084961
40
0.0
41
0.0
42
0.0
10
66.0130004882812
20
65.6491012573242
40
0.0
41
0.0
42
0.0
10
66.3846969604492
20
65.5026016235352
40
0.0
41
0.0
42
0.0
10
66.488899230957
20
65.4587020874023
40
0.0
41
0.0
42
0.0
10
66.5141983032227
20
65.4455032348633
40
0.0
41
0.0
42
0.0
10
66.9896011352539
20
65.2236022949219
40
0.0
41
0.0
42
0.0
10
67.3539962768555
20
65.0130004882812
40
0.0
41
0.0
42
0.0
10
67.3720016479492
20
65.0009994506836
40
0.0
41
0.0
42
0.0
10
67.3902969360352
20
65.0009994506836
40
0.0
41
0.0
42
0.0
10
67.3901977539062
20
65.0087966918945
40
0.0
41
0.0
42
0.0
10
67.3412017822266
20
65.0419998168945
40
0.0
41
0.0
42
0.0
10
67.0102005004883
20
65.2332992553711
40
0.0
41
0.0
42
0.0
10
66.5756988525391
20
65.4360961914062
40
0.0
41
0.0
42
0.0
10
66.5110015869141
20
65.469596862793
40
0.0
41
0.0
42
0.0
10
66.4175033569336
20
65.5092010498047
40
0.0
41
0.0
42
0.0
10
66.0767974853516
20
65.6433029174805
40
0.0
41
0.0
42
0.0
10
66.0121002197266
20
65.6720962524414
40
0.0
41
0.0
42
0.0
10
65.5773010253906
20
65.8254013061523
40
0.0
41
0.0
42
0.0
10
65.5123977661133
20
65.853401184082
40
0.0
41
0.0
42
0.0
10
65.0681991577148
20
66.0007019042969
40
0.0
41
0.0
42
0.0
10
65.0158996582031
20
66.0217971801758
40
0.0
41
0.0
42
0.0
10
65.0009994506836
20
66.0217971801758
40
0.0
41
0.0
42
0.0
10
65.0009002685547
20
66.0010986328125
40
0.0
41
0.0
42
0.0
10
65.4873962402344
20
65.8386001586914
40
0.0
41
0.0
42
0.0
210
0.0
220
0.0
230
1.0
0
LWPOLYLINE
5
23
330
1C
100
AcDbEntity
67
0
8
0
62
256
6
ByLayer
370
-1
48
1.0
60
0
100
AcDbPolyline
90
85
70
1
38
0.0
39
0.0
10
65.0908966064453
20
72.9274978637695
40
0.0
41
0.0
42
0.0
10
65.3731002807617
20
72.4937973022461
40
0.0
41
0.0
42
0.0
10
65.4105987548828
20
72.4613037109375
40
0.0
41
0.0
42
0.0
10
65.4937973022461
20
72.3766021728516
40
0.0
41
0.0
42
0.0
10
65.9261016845703
20
72.0498962402344
40
0.0
41
0.0
42
0.0
10
65.9876022338867
20
72.018798828125
40
0.0
41
0.0
42
0.0
10
66.4126968383789
20
71.8979034423828
40
0.0
41
0.0
42
0.0
10
66.4571990966797
20
71.8880996704102
40
0.0
41
0.0
42
0.0
10
66.4949035644531
20
71.8880004882812
40
0.0
41
0.0
42
0.0
10
66.5158004760742
20
71.8898010253906
40
0.0
41
0.0
42
0.0
10
66.8565979003906
20
71.999397277832
40
0.0
41
0.0
42
0.0
10
66.8779983520508
20
72.0225982666016
40
0.0
41
0.0
42
0.0
10
67.0030975341797
20
72.0737991333008
40
0.0
41
0.0
42
0.0
10
67.3511962890625
20
72.4916000366211
40
0.0
41
0.0
42
0.0
10
67.3632965087891
20
72.5156021118164
40
0.0
41
0.0
42
0.0
10
67.4857025146484
20
72.6953964233398
40
0.0
41
0.0
42
0.0
10
67.5015029907227
20
72.7266998291016
40
0.0
41
0.0
42
0.0
10
67.6615982055664
20
72.9899978637695
40
0.0
41
0.0
42
0.0
10
67.8668975830078
20
73.41259765625
40
0.0
41
0.0
42
0.0
10
67.8989028930664
20
73.4849014282227
40
0.0
41
0.0
42
0.0
10
67.9244003295898
20
73.9433975219727
40
0.0
41
0.0
42
0.0
10
67.9247970581055
20
74.0130004882812
40
0.0
41
0.0
42
0.0
10
67.5814971923828
20
74.4710998535156
40
0.0
41
0.0
42
0.0
10
67.5585021972656
20
74.5052032470703
40
0.0
41
0.0
42
0.0
10
67.5065002441406
20
74.543701171875
40
0.0
41
0.0
42
0.0
10
67.0931015014648
20
74.9279022216797
40
0.0
41
0.0
42
0.0
10
67.0053024291992
20
75.0074996948242
40
0.0
41
0.0
42
0.0
10
66.9816970825195
20
75.0316009521484
40
0.0
41
0.0
42
0.0
10
66.5133972167969
20
75.3202972412109
40
0.0
41
0.0
42
0.0
10
66.070198059082
20
75.3471984863281
40
0.0
41
0.0
42
0.0
10
66.0145034790039
20
75.3781967163086
40
0.0
41
0.0
42
0.0
10
65.9821014404297
20
75.3780975341797
40
0.0
41
0.0
42
0.0
10
65.9231033325195
20
75.3656997680664
40
0.0
41
0.0
42
0.0
10
65.4931030273438
20
75.0857009887695
40
0.0
41
0.0
42
0.0
10
65.4362030029297
20
75.030403137207
40
0.0
41
0.0
42
0.0
10
65.4170989990234
20
75.0074996948242
40
0.0
41
0.0
42
0.0
10
65.1334991455078
20
74.5738983154297
40
0.0
41
0.0
42
0.0
10
65.0969009399414
20
74.5110015869141
40
0.0
41
0.0
42
0.0
10
65.0009994506836
20
74.2525024414062
40
0.0
41
0.0
42
0.0
10
65.0009994506836
20
74.1521987915039
40
0.0
41
0.0
42
0.0
10
65.0053024291992
20
74.1521987915039
40
0.0
41
0.0
42
0.0
10
65.1304016113281
20
74.488899230957
40
0.0
41
0.0
42
0.0
10
65.1461029052734
20
74.515998840332
40
0.0
41
0.0
42
0.0
10
65.4578018188477
20
74.9925003051758
40
0.0
41
0.0
42
0.0
10
65.4816970825195
20
75.0212020874023
40
0.0
41
0.0
42
0.0
10
65.5067977905273
20
75.0455017089844
40
0.0
41
0.0
42
0.0
10
65.9914016723633
20
75.3610992431641
40
0.0
41
0.0
42
0.0
10
66.0119018554688
20
75.3499984741211
40
0.0
41
0.0
42
0.0
10
66.0473022460938
20
75.3440017700195
40
0.0
41
0.0
42
0.0
10
66.4865036010742
20
75.3171997070312
40
0.0
41
0.0
42
0.0
10
66.9281997680664
20
75.0449981689453
40
0.0
41
0.0
42
0.0
10
66.9774017333984
20
74.993896484375
40
0.0
41
0.0
42
0.0
10
66.9953002929688
20
74.9720993041992
40
0.0
41
0.0
42
0.0
10
67.4471969604492
20
74.5421981811523
40
0.0
41
0.0
42
0.0
10
67.5002975463867
20
74.4936981201172
40
0.0
41
0.0
42
0.0
10
67.5656967163086
20
74.397102355957
40
0.0
41
0.0
42
0.0
10
67.8725967407227
20
73.9876022338867
40
0.0
41
0.0
42
0.0
10
67.8715972900391
20
73.9224014282227
40
0.0
41
0.0
42
0.0
10
67.8489990234375
20
73.5149993896484
40
0.0
41
0.0
42
0.0
10
67.7595977783203
20
73.3130035400391
40
0.0
41
0.0
42
0.0
10
67.6123962402344
20
73.0099029541016
40
0.0
41
0.0
42
0.0
10
67.4982986450195
20
72.8220977783203
40
0.0
41
0.0
42
0.0
10
67.456298828125
20
72.738899230957
40
0.0
41
0.0
42
0.0
10
67.3443984985352
20
72.5746002197266
40
0.0
41
0.0
42
0.0
10
67.3211975097656
20
72.5248031616211
40
0.0
41
0.0
42
0.0
10
67.3104019165039
20
72.5075988769531
40
0.0
41
0.0
42
0.0
10
66.9957962036133
20
72.1296005249023
40
0.0
41
0.0
42
0.0
10
66.9822006225586
20
72.1144027709961
40
0.0
41
0.0
42
0.0
10
66.8669967651367
20
72.0672988891602
40
0.0
41
0.0
42
0.0
10
66.8115997314453
20
72.0065994262695
40
0.0
41
0.0
42
0.0
10
66.4841995239258
20
71.9002990722656
40
0.0
41
0.0
42
0.0
10
66.4514007568359
20
71.8974990844727
40
0.0
41
0.0
42
0.0
10
66.0122985839844
20
72.0224990844727
40
0.0
41
0.0
42
0.0
10
65.9838027954102
20
72.0369033813477
40
0.0
41
0.0
42
0.0
10
65.5059967041016
20
72.3980026245117
40
0.0
41
0.0
42
0.0
10
65.4141006469727
20
72.4915008544922
40
0.0
41
0.0
42
0.0
10
65.3973999023438
20
72.5059967041016
40
0.0
41
0.0
42
0.0
10
65.0870971679688
20
72.9828033447266
40
0.0
41
0.0
42
0.0
10
65.0662002563477
20
73.0103988647461
40
0.0
41
0.0
42
0.0
10
65.0040969848633
20
73.2264022827148
40
0.0
41
0.0
42
0.0
10
65.0009994506836
20
73.2264022827148
40
0.0
41
0.0
42
0.0
10
65.0009002685547
20
73.1380996704102
40
0.0
41
0.0
42
0.0
10
65.043701171875
20
72.9889984130859
40
0.0
41
0.0
42
0.0
10
65.0647964477539
20
72.9581985473633
40
0.0
41
0.0
42
0.0
10
65.0908966064453
20
72.9274978637695
40
0.0
41
0.0
42
0.0
210
0.0
220
0.0
230
1.0
0
LWPOLYLINE
5
24
330
1C
100
AcDbEntity
67
0
8
0
62
256
6
ByLayer
370
-1
48
1.0
60
0
100
AcDbPolyline
90
26
70
1
38
0.0
39
0.0
10
65.0009994506836
20
82.627799987793
40
0.0
41
0.0
42
0.0
10
65.0009994506836
20
82.6095962524414
40
0.0
41
0.0
42
0.0
10
65.0087966918945
20
82.6094970703125
40
0.0
41
0.0
42
0.0
10
65.0419998168945
20
82.6585998535156
40
0.0
41
0.0
42
0.0
10
65.2333984375
20
82.9897003173828
40
0.0
41
0.0
42
0.0
10
65.4362030029297
20
83.424201965332
40
0.0
41
0.0
42
0.0
10
65.469596862793
20
83.488899230957
40
0.0
41
0.0
42
0.0
10
65.5092010498047
20
83.5823974609375
40
0.0
41
0.0
42
0.0
10
65.6434020996094
20
83.9231033325195
40
0.0
41
0.0
42
0.0
10
65.6722030639648
20
83.9878005981445
40
0.0
41
0.0
42
0.0
10
65.8255004882812
20
84.4225997924805
40
0.0
41
0.0
42
0.0
10
65.8535003662109
20
84.4875030517578
40
0.0
41
0.0
42
0.0
10
66.0007019042969
20
84.9316024780273
40
0.0
41
0.0
42
0.0
10
66.0217971801758
20
84.984001159668
40
0.0
41
0.0
42
0.0
10
66.0217971801758
20
84.9990005493164
40
0.0
41
0.0
42
0.0
10
66.0010986328125
20
84.9990005493164
40
0.0
41
0.0
42
0.0
10
65.8386001586914
20
84.5124969482422
40
0.0
41
0.0
42
0.0
10
65.8277969360352
20
84.4872970581055
40
0.0
41
0.0
42
0.0
10
65.6603012084961
20
84.0121994018555
40
0.0
41
0.0
42
0.0
10
65.6491012573242
20
83.9869003295898
40
0.0
41
0.0
42
0.0
10
65.5027008056641
20
83.6150970458984
40
0.0
41
0.0
42
0.0
10
65.4588012695312
20
83.5110015869141
40
0.0
41
0.0
42
0.0
10
65.4456024169922
20
83.4857025146484
40
0.0
41
0.0
42
0.0
10
65.2237014770508
20
83.0102005004883
40
0.0
41
0.0
42
0.0
10
65.0130996704102
20
82.6457977294922
40
0.0
41
0.0
42
0.0
10
65.0009994506836
20
82.627799987793
40
0.0
41
0.0
42
0.0
210
0.0
220
0.0
230
1.0
0
LWPOLYLINE
5
25
330
1C
100
AcDbEntity
67
0
8
0
62
256
6
ByLayer
370
-1
48
1.0
60
0
100
AcDbPolyline
90
51
70
1
38
0.0
39
0.0
10
66.4268035888672
20
79.980598449707
40
0.0
41
0.0
42
0.0
10
66.4524002075195
20
79.5475006103516
40
0.0
41
0.0
42
0.0
10
66.4638977050781
20
79.486198425293
40
0.0
41
0.0
42
0.0
10
66.4766998291016
20
79.4568023681641
40
0.0
41
0.0
42
0.0
10
66.5016021728516
20
79.3647994995117
40
0.0
41
0.0
42
0.0
10
66.6455993652344
20
79.0244979858398
40
0.0
41
0.0
42
0.0
10
66.6567993164062
20
79.0067977905273
40
0.0
41
0.0
42
0.0
10
66.6669006347656
20
78.9973983764648
40
0.0
41
0.0
42
0.0
10
66.6781005859375
20
78.9918975830078
40
0.0
41
0.0
42
0.0
10
66.9903030395508
20
78.6673965454102
40
0.0
41
0.0
42
0.0
10
67.4567031860352
20
78.589599609375
40
0.0
41
0.0
42
0.0
10
67.4942016601562
20
78.5895004272461
40
0.0
41
0.0
42
0.0
10
67.5175018310547
20
78.5911026000977
40
0.0
41
0.0
42
0.0
10
67.9898986816406
20
78.6712036132812
40
0.0
41
0.0
42
0.0
10
68.0139007568359
20
78.6790008544922
40
0.0
41
0.0
42
0.0
10
68.4811019897461
20
78.8095016479492
40
0.0
41
0.0
42
0.0
10
68.5121002197266
20
78.8230972290039
40
0.0
41
0.0
42
0.0
10
68.9456024169922
20
78.9802017211914
40
0.0
41
0.0
42
0.0
10
68.9804992675781
20
78.9981002807617
40
0.0
41
0.0
42
0.0
10
69.0050964355469
20
79.0139999389648
40
0.0
41
0.0
42
0.0
10
69.3370971679688
20
79.4915008544922
40
0.0
41
0.0
42
0.0
10
69.3496017456055
20
79.5113983154297
40
0.0
41
0.0
42
0.0
10
69.3691024780273
20
79.9826965332031
40
0.0
41
0.0
42
0.0
10
69.3746032714844
20
80.0072021484375
40
0.0
41
0.0
42
0.0
10
69.3744964599609
20
80.0444030761719
40
0.0
41
0.0
42
0.0
10
69.3497009277344
20
80.4975967407227
40
0.0
41
0.0
42
0.0
10
69.35009765625
20
80.5434036254883
40
0.0
41
0.0
42
0.0
10
69.2748031616211
20
81.0164031982422
40
0.0
41
0.0
42
0.0
10
69.2720031738281
20
81.0404968261719
40
0.0
41
0.0
42
0.0
10
69.2603988647461
20
81.0771026611328
40
0.0
41
0.0
42
0.0
10
69.0335998535156
20
81.5386962890625
40
0.0
41
0.0
42
0.0
10
69.0086975097656
20
81.5617980957031
40
0.0
41
0.0
42
0.0
10
68.575798034668
20
81.7198028564453
40
0.0
41
0.0
42
0.0
10
68.5140991210938
20
81.7574996948242
40
0.0
41
0.0
42
0.0
10
68.4047012329102
20
81.7572021484375
40
0.0
41
0.0
42
0.0
10
67.9831008911133
20
81.7408981323242
40
0.0
41
0.0
42
0.0
10
67.9206008911133
20
81.7246017456055
40
0.0
41
0.0
42
0.0
10
67.4878997802734
20
81.597900390625
40
0.0
41
0.0
42
0.0
10
67.4254989624023
20
81.564697265625
40
0.0
41
0.0
42
0.0
10
67.3879013061523
20
81.540901184082
40
0.0
41
0.0
42
0.0
10
67.3110961914062
20
81.5018997192383
40
0.0
41
0.0
42
0.0
10
66.9928970336914
20
81.2795028686523
40
0.0
41
0.0
42
0.0
10
66.9701995849609
20
81.2596969604492
40
0.0
41
0.0
42
0.0
10
66.7910995483398
20
81.0715026855469
40
0.0
41
0.0
42
0.0
10
66.7522964477539
20
81.0180969238281
40
0.0
41
0.0
42
0.0
10
66.5285034179688
20
80.5615997314453
40
0.0
41
0.0
42
0.0
10
66.5034027099609
20
80.5130996704102
40
0.0
41
0.0
42
0.0
10
66.4773025512695
20
80.3723983764648
40
0.0
41
0.0
42
0.0
10
66.4288024902344
20
80.0829010009766
40
0.0
41
0.0
42
0.0
10
66.4269027709961
20
80.0143966674805
40
0.0
41
0.0
42
0.0
10
66.4268035888672
20
79.980598449707
40
0.0
41
0.0
42
0.0
210
0.0
220
0.0
230
1.0
0
LWPOLYLINE
5
26
330
1C
100
AcDbEntity
67
0
8
0
62
256
6
ByLayer
370
-1
48
1.0
60
0
100
AcDbPolyline
90
43
70
1
38
0.0
39
0.0
10
66.4366989135742
20
80.0064010620117
40
0.0
41
0.0
42
0.0
10
66.4901962280273
20
80.3264999389648
40
0.0
41
0.0
42
0.0
10
66.5218963623047
20
80.4869995117188
40
0.0
41
0.0
42
0.0
10
66.692497253418
20
80.8167037963867
40
0.0
41
0.0
42
0.0
10
66.7795028686523
20
80.9942016601562
40
0.0
41
0.0
42
0.0
10
66.7970962524414
20
81.0184020996094
40
0.0
41
0.0
42
0.0
10
66.9960021972656
20
81.2276000976562
40
0.0
41
0.0
42
0.0
10
67.0070037841797
20
81.2370986938477
40
0.0
41
0.0
42
0.0
10
67.3803024291992
20
81.4980010986328
40
0.0
41
0.0
42
0.0
10
67.4704971313477
20
81.5439987182617
40
0.0
41
0.0
42
0.0
10
67.5118026733398
20
81.5672988891602
40
0.0
41
0.0
42
0.0
10
68.0166015625
20
81.7144012451172
40
0.0
41
0.0
42
0.0
10
68.4860000610352
20
81.7325973510742
40
0.0
41
0.0
42
0.0
10
68.5175018310547
20
81.7143020629883
40
0.0
41
0.0
42
0.0
10
68.991096496582
20
81.5414962768555
40
0.0
41
0.0
42
0.0
10
69.0307998657227
20
81.5047988891602
40
0.0
41
0.0
42
0.0
10
69.2622985839844
20
81.0327987670898
40
0.0
41
0.0
42
0.0
10
69.2679977416992
20
80.9828033447266
40
0.0
41
0.0
42
0.0
10
69.3357009887695
20
80.5576019287109
40
0.0
41
0.0
42
0.0
10
69.3330993652344
20
80.5192031860352
40
0.0
41
0.0
42
0.0
10
69.3330993652344
20
80.4804992675781
40
0.0
41
0.0
42
0.0
10
69.3553009033203
20
80.0752029418945
40
0.0
41
0.0
42
0.0
10
69.3424987792969
20
80.0173034667969
40
0.0
41
0.0
42
0.0
10
69.3244018554688
20
79.578498840332
40
0.0
41
0.0
42
0.0
10
69.2802963256836
20
79.5083999633789
40
0.0
41
0.0
42
0.0
10
68.9949035644531
20
79.0977020263672
40
0.0
41
0.0
42
0.0
10
68.8469009399414
20
79.0017013549805
40
0.0
41
0.0
42
0.0
10
68.8168029785156
20
78.986198425293
40
0.0
41
0.0
42
0.0
10
68.4878005981445
20
78.8669967651367
40
0.0
41
0.0
42
0.0
10
68.4047012329102
20
78.8303985595703
40
0.0
41
0.0
42
0.0
10
67.9860000610352
20
78.7135009765625
40
0.0
41
0.0
42
0.0
10
67.9199981689453
20
78.6919021606445
40
0.0
41
0.0
42
0.0
10
67.4823989868164
20
78.6177978515625
40
0.0
41
0.0
42
0.0
10
67.4425964355469
20
78.6150970458984
40
0.0
41
0.0
42
0.0
10
67.0095977783203
20
78.6874008178711
40
0.0
41
0.0
42
0.0
10
66.7193984985352
20
78.9890975952148
40
0.0
41
0.0
42
0.0
10
66.6922988891602
20
79.0024032592773
40
0.0
41
0.0
42
0.0
10
66.6567001342773
20
79.0356979370117
40
0.0
41
0.0
42
0.0
10
66.5001983642578
20
79.4049987792969
40
0.0
41
0.0
42
0.0
10
66.4748992919922
20
79.5014038085938
40
0.0
41
0.0
42
0.0
10
66.4694976806641
20
79.5137023925781
40
0.0
41
0.0
42
0.0
10
66.4641036987305
20
79.5423965454102
40
0.0
41
0.0
42
0.0
10
66.4366989135742
20
80.0064010620117
40
0.0
41
0.0
42
0.0
210
0.0
220
0.0
230
1.0
0
LWPOLYLINE
5
27
330
1C
100
AcDbEntity
67
0
8
0
62
256
6
ByLayer
370
-1
48
1.0
60
0
100
AcDbPolyline
90
49
70
1
38
0.0
39
0.0
10
68.4018020629883
20
67.4878997802734
40
0.0
41
0.0
42
0.0
10
68.4349975585938
20
67.4253997802734
40
0.0
41
0.0
42
0.0
10
68.4588012695312
20
67.3878021240234
40
0.0
41
0.0
42
0.0
10
68.4980010986328
20
67.3110961914062
40
0.0
41
0.0
42
0.0
10
68.7197036743164
20
66.9936981201172
40
0.0
41
0.0
42
0.0
10
68.8914031982422
20
66.8302993774414
40
0.0
41
0.0
42
0.0
10
68.9914016723633
20
66.7463989257812
40
0.0
41
0.0
42
0.0
10
69.438102722168
20
66.5285034179688
40
0.0
41
0.0
42
0.0
10
69.4868011474609
20
66.5034027099609
40
0.0
41
0.0
42
0.0
10
69.6275024414062
20
66.4773025512695
40
0.0
41
0.0
42
0.0
10
69.9169006347656
20
66.4288024902344
40
0.0
41
0.0
42
0.0
10
70.0195007324219
20
66.4268035888672
40
0.0
41
0.0
42
0.0
10
70.4524002075195
20
66.4524002075195
40
0.0
41
0.0
42
0.0
10
70.5137023925781
20
66.4638977050781
40
0.0
41
0.0
42
0.0
10
70.5429992675781
20
66.4767990112305
40
0.0
41
0.0
42
0.0
10
70.6306991577148
20
66.4998016357422
40
0.0
41
0.0
42
0.0
10
70.9751968383789
20
66.6456985473633
40
0.0
41
0.0
42
0.0
10
70.9929962158203
20
66.6568984985352
40
0.0
41
0.0
42
0.0
10
71.0024032592773
20
66.6669998168945
40
0.0
41
0.0
42
0.0
10
71.0077972412109
20
66.6781005859375
40
0.0
41
0.0
42
0.0
10
71.3310012817383
20
66.988899230957
40
0.0
41
0.0
42
0.0
10
71.3309020996094
20
67.0165023803711
40
0.0
41
0.0
42
0.0
10
71.4085998535156
20
67.4816970825195
40
0.0
41
0.0
42
0.0
10
71.4084014892578
20
67.5182037353516
40
0.0
41
0.0
42
0.0
10
71.3285980224609
20
67.9898986816406
40
0.0
41
0.0
42
0.0
10
71.32080078125
20
68.0139007568359
40
0.0
41
0.0
42
0.0
10
71.1902008056641
20
68.4811019897461
40
0.0
41
0.0
42
0.0
10
71.1765975952148
20
68.5121002197266
40
0.0
41
0.0
42
0.0
10
71.0195007324219
20
68.9455032348633
40
0.0
41
0.0
42
0.0
10
71.0016021728516
20
68.9804000854492
40
0.0
41
0.0
42
0.0
10
70.9857025146484
20
69.004997253418
40
0.0
41
0.0
42
0.0
10
70.50830078125
20
69.3370971679688
40
0.0
41
0.0
42
0.0
10
70.4885025024414
20
69.3496017456055
40
0.0
41
0.0
42
0.0
10
70.0171966552734
20
69.3690032958984
40
0.0
41
0.0
42
0.0
10
69.9926986694336
20
69.3746032714844
40
0.0
41
0.0
42
0.0
10
69.9554977416992
20
69.3744964599609
40
0.0
41
0.0
42
0.0
10
69.5022964477539
20
69.3497009277344
40
0.0
41
0.0
42
0.0
10
69.4564971923828
20
69.35009765625
40
0.0
41
0.0
42
0.0
10
68.9828033447266
20
69.2746963500977
40
0.0
41
0.0
42
0.0
10
68.9593963623047
20
69.2720031738281
40
0.0
41
0.0
42
0.0
10
68.9227981567383
20
69.2603988647461
40
0.0
41
0.0
42
0.0
10
68.4609985351562
20
69.0336990356445
40
0.0
41
0.0
42
0.0
10
68.4378967285156
20
69.0087966918945
40
0.0
41
0.0
42
0.0
10
68.279899597168
20
68.575798034668
40
0.0
41
0.0
42
0.0
10
68.2422027587891
20
68.5140991210938
40
0.0
41
0.0
42
0.0
10
68.2425003051758
20
68.4047012329102
40
0.0
41
0.0
42
0.0
10
68.2587966918945
20
67.9828033447266
40
0.0
41
0.0
42
0.0
10
68.2647018432617
20
67.9580001831055
40
0.0
41
0.0
42
0.0
10
68.4018020629883
20
67.4878997802734
40
0.0
41
0.0
42
0.0
210
0.0
220
0.0
230
1.0
0
LWPOLYLINE
5
28
330
1C
100
AcDbEntity
67
0
8
0
62
256
6
ByLayer
370
-1
48
1.0
60
0
100
AcDbPolyline
90
44
70
1
38
0.0
39
0.0
10
68.2883987426758
20
68.0039978027344
40
0.0
41
0.0
42
0.0
10
68.2853012084961
20
68.0170974731445
40
0.0
41
0.0
42
0.0
10
68.2670974731445
20
68.4860000610352
40
0.0
41
0.0
42
0.0
10
68.285400390625
20
68.5175018310547
40
0.0
41
0.0
42
0.0
10
68.4581985473633
20
68.991096496582
40
0.0
41
0.0
42
0.0
10
68.495002746582
20
69.0308990478516
40
0.0
41
0.0
42
0.0
10
68.9671020507812
20
69.2622985839844
40
0.0
41
0.0
42
0.0
10
69.0170974731445
20
69.2679977416992
40
0.0
41
0.0
42
0.0
10
69.4422988891602
20
69.3357009887695
40
0.0
41
0.0
42
0.0
10
69.4806976318359
20
69.3330993652344
40
0.0
41
0.0
42
0.0
10
69.519401550293
20
69.3330993652344
40
0.0
41
0.0
42
0.0
10
69.9246978759766
20
69.3552017211914
40
0.0
41
0.0
42
0.0
10
69.9825973510742
20
69.3424987792969
40
0.0
41
0.0
42
0.0
10
70.4214019775391
20
69.3244018554688
40
0.0
41
0.0
42
0.0
10
70.4915008544922
20
69.2802963256836
40
0.0
41
0.0
42
0.0
10
70.9020004272461
20
68.9947967529297
40
0.0
41
0.0
42
0.0
10
70.9981002807617
20
68.8469009399414
40
0.0
41
0.0
42
0.0
10
71.0134963989258
20
68.8167037963867
40
0.0
41
0.0
42
0.0
10
71.1327972412109
20
68.4877014160156
40
0.0
41
0.0
42
0.0
10
71.1692962646484
20
68.4046020507812
40
0.0
41
0.0
42
0.0
10
71.2862014770508
20
67.9860000610352
40
0.0
41
0.0
42
0.0
10
71.3078002929688
20
67.9199981689453
40
0.0
41
0.0
42
0.0
10
71.3788986206055
20
67.4998016357422
40
0.0
41
0.0
42
0.0
10
71.3096008300781
20
67.0831985473633
40
0.0
41
0.0
42
0.0
10
71.3095016479492
20
67.0456008911133
40
0.0
41
0.0
42
0.0
10
71.3119964599609
20
67.0092010498047
40
0.0
41
0.0
42
0.0
10
71.0106964111328
20
66.7194976806641
40
0.0
41
0.0
42
0.0
10
70.9973983764648
20
66.6923980712891
40
0.0
41
0.0
42
0.0
10
70.963996887207
20
66.6567001342773
40
0.0
41
0.0
42
0.0
10
70.5948028564453
20
66.5002975463867
40
0.0
41
0.0
42
0.0
10
70.4983978271484
20
66.4749984741211
40
0.0
41
0.0
42
0.0
10
70.486198425293
20
66.4694976806641
40
0.0
41
0.0
42
0.0
10
70.4574966430664
20
66.4641036987305
40
0.0
41
0.0
42
0.0
10
69.9934005737305
20
66.4366989135742
40
0.0
41
0.0
42
0.0
10
69.6733016967773
20
66.4901962280273
40
0.0
41
0.0
42
0.0
10
69.5129013061523
20
66.5218963623047
40
0.0
41
0.0
42
0.0
10
69.1830978393555
20
66.6923980712891
40
0.0
41
0.0
42
0.0
10
69.0083999633789
20
66.777702331543
40
0.0
41
0.0
42
0.0
10
68.9664001464844
20
66.8127975463867
40
0.0
41
0.0
42
0.0
10
68.763298034668
20
67.006103515625
40
0.0
41
0.0
42
0.0
10
68.5018005371094
20
67.3803024291992
40
0.0
41
0.0
42
0.0
10
68.4558029174805
20
67.4704971313477
40
0.0
41
0.0
42
0.0
10
68.4324035644531
20
67.5117034912109
40
0.0
41
0.0
42
0.0
10
68.2883987426758
20
68.0039978027344
40
0.0
41
0.0
42
0.0
210
0.0
220
0.0
230
1.0
0
LWPOLYLINE
5
29
330
1C
100
AcDbEntity
67
0
8
0
62
256
6
ByLayer
370
-1
48
1.0
60
0
100
AcDbPolyline
90
256
70
1
38
0.0
39
0.0
10
69.0880966186523
20
73.9899978637695
40
0.0
41
0.0
42
0.0
10
69.4944000244141
20
73.6119003295898
40
0.0
41
0.0
42
0.0
10
69.6121978759766
20
73.4972991943359
40
0.0
41
0.0
42
0.0
10
69.9888000488281
20
73.3122024536133
40
0.0
41
0.0
42
0.0
10
70.4645004272461
20
73.0998001098633
40
0.0
41
0.0
42
0.0
10
70.4889984130859
20
73.0855026245117
40
0.0
41
0.0
42
0.0
10
70.6946029663086
20
73.007698059082
40
0.0
41
0.0
42
0.0
10
70.7153015136719
20
72.9969024658203
40
0.0
41
0.0
42
0.0
10
70.7246017456055
20
72.9871978759766
40
0.0
41
0.0
42
0.0
10
70.9943008422852
20
72.8059997558594
40
0.0
41
0.0
42
0.0
10
71.2154006958008
20
72.5296020507812
40
0.0
41
0.0
42
0.0
10
71.241096496582
20
72.4857025146484
40
0.0
41
0.0
42
0.0
10
71.2463989257812
20
72.0455017089844
40
0.0
41
0.0
42
0.0
10
71.2480010986328
20
72.0048980712891
40
0.0
41
0.0
42
0.0
10
71.2192001342773
20
71.5841979980469
40
0.0
41
0.0
42
0.0
10
71.2189025878906
20
71.5179977416992
40
0.0
41
0.0
42
0.0
10
71.250602722168
20
71.9804992675781
40
0.0
41
0.0
42
0.0
10
71.2440032958984
20
72.5130004882812
40
0.0
41
0.0
42
0.0
10
71.2378005981445
20
72.5243988037109
40
0.0
41
0.0
42
0.0
10
71.005500793457
20
72.815803527832
40
0.0
41
0.0
42
0.0
10
70.7601013183594
20
72.9806976318359
40
0.0
41
0.0
42
0.0
10
70.738899230957
20
73.0028991699219
40
0.0
41
0.0
42
0.0
10
70.7001037597656
20
73.0232009887695
40
0.0
41
0.0
42
0.0
10
70.5108032226562
20
73.0948028564453
40
0.0
41
0.0
42
0.0
10
70.4452972412109
20
73.1331024169922
40
0.0
41
0.0
42
0.0
10
70.0110015869141
20
73.3270034790039
40
0.0
41
0.0
42
0.0
10
69.6546020507812
20
73.5025024414062
40
0.0
41
0.0
42
0.0
10
69.5054016113281
20
73.6482009887695
40
0.0
41
0.0
42
0.0
10
69.1167984008789
20
74.0100021362305
40
0.0
41
0.0
42
0.0
10
69.1110992431641
20
74.0597991943359
40
0.0
41
0.0
42
0.0
10
69.2063980102539
20
74.4905014038086
40
0.0
41
0.0
42
0.0
10
69.4870986938477
20
74.7701034545898
40
0.0
41
0.0
42
0.0
10
69.5018997192383
20
74.7919006347656
40
0.0
41
0.0
42
0.0
10
69.5227966308594
20
74.8328018188477
40
0.0
41
0.0
42
0.0
10
69.6417007446289
20
74.9942016601562
40
0.0
41
0.0
42
0.0
10
69.9615020751953
20
75.27490234375
40
0.0
41
0.0
42
0.0
10
70.0133972167969
20
75.3259963989258
40
0.0
41
0.0
42
0.0
10
70.220100402832
20
75.495002746582
40
0.0
41
0.0
42
0.0
10
70.5036010742188
20
75.8267974853516
40
0.0
41
0.0
42
0.0
10
70.6583023071289
20
75.9891967773438
40
0.0
41
0.0
42
0.0
10
70.659797668457
20
76.0056991577148
40
0.0
41
0.0
42
0.0
10
70.6585006713867
20
76.0835037231445
40
0.0
41
0.0
42
0.0
10
70.6041030883789
20
76.5157012939453
40
0.0
41
0.0
42
0.0
10
70.5860977172852
20
76.5775985717773
40
0.0
41
0.0
42
0.0
10
70.500602722168
20
76.7670974731445
40
0.0
41
0.0
42
0.0
10
70.4018020629883
20
77.013298034668
40
0.0
41
0.0
42
0.0
10
70.3837966918945
20
77.0783996582031
40
0.0
41
0.0
42
0.0
10
70.2172012329102
20
77.5151977539062
40
0.0
41
0.0
42
0.0
10
70.2115020751953
20
77.5815963745117
40
0.0
41
0.0
42
0.0
10
70.1097030639648
20
78.0063018798828
40
0.0
41
0.0
42
0.0
10
70.1538009643555
20
78.4206008911133
40
0.0
41
0.0
42
0.0
10
70.1875991821289
20
78.4946975708008
40
0.0
41
0.0
42
0.0
10
70.5143966674805
20
78.6830978393555
40
0.0
41
0.0
42
0.0
10
70.5787963867188
20
78.713996887207
40
0.0
41
0.0
42
0.0
10
71.0166015625
20
78.7768020629883
40
0.0
41
0.0
42
0.0
10
71.4537963867188
20
78.7740020751953
40
0.0
41
0.0
42
0.0
10
71.5055999755859
20
78.7799987792969
40
0.0
41
0.0
42
0.0
10
71.9551010131836
20
78.7490997314453
40
0.0
41
0.0
42
0.0
10
72.4934005737305
20
78.7547988891602
40
0.0
41
0.0
42
0.0
10
72.5139007568359
20
78.7556991577148
40
0.0
41
0.0
42
0.0
10
72.5242004394531
20
78.7617034912109
40
0.0
41
0.0
42
0.0
10
72.8159027099609
20
78.9944000244141
40
0.0
41
0.0
42
0.0
10
72.9807968139648
20
79.2396011352539
40
0.0
41
0.0
42
0.0
10
73.0029983520508
20
79.2609024047852
40
0.0
41
0.0
42
0.0
10
73.0232009887695
20
79.2996978759766
40
0.0
41
0.0
42
0.0
10
73.0948028564453
20
79.4889984130859
40
0.0
41
0.0
42
0.0
10
73.1331024169922
20
79.5546035766602
40
0.0
41
0.0
42
0.0
10
73.3270034790039
20
79.988899230957
40
0.0
41
0.0
42
0.0
10
73.5026016235352
20
80.345100402832
40
0.0
41
0.0
42
0.0
10
73.6482009887695
20
80.4944000244141
40
0.0
41
0.0
42
0.0
10
74.0058975219727
20
80.8787002563477
40
0.0
41
0.0
42
0.0
10
74.4171981811523
20
80.7879028320312
40
0.0
41
0.0
42
0.0
10
74.4536972045898
20
80.7878036499023
40
0.0
41
0.0
42
0.0
10
74.49169921875
20
80.7921981811523
40
0.0
41
0.0
42
0.0
10
74.7701034545898
20
80.5127029418945
40
0.0
41
0.0
42
0.0
10
74.7918014526367
20
80.4980010986328
40
0.0
41
0.0
42
0.0
10
74.8327026367188
20
80.4768981933594
40
0.0
41
0.0
42
0.0
10
74.9942016601562
20
80.3580017089844
40
0.0
41
0.0
42
0.0
10
75.27490234375
20
80.038200378418
40
0.0
41
0.0
42
0.0
10
75.3258972167969
20
79.9862976074219
40
0.0
41
0.0
42
0.0
10
75.494499206543
20
79.7801971435547
40
0.0
41
0.0
42
0.0
10
75.8274993896484
20
79.4953994750977
40
0.0
41
0.0
42
0.0
10
75.9884033203125
20
79.3422012329102
40
0.0
41
0.0
42
0.0
10
76.0186004638672
20
79.3421020507812
40
0.0
41
0.0
42
0.0
10
76.4608993530273
20
79.3979034423828
40
0.0
41
0.0
42
0.0
10
76.4809036254883
20
79.3961029052734
40
0.0
41
0.0
42
0.0
10
76.5169982910156
20
79.3960037231445
40
0.0
41
0.0
42
0.0
10
76.5776977539062
20
79.4135971069336
40
0.0
41
0.0
42
0.0
10
76.7670974731445
20
79.4991989135742
40
0.0
41
0.0
42
0.0
10
77.013298034668
20
79.597900390625
40
0.0
41
0.0
42
0.0
10
77.0783996582031
20
79.6158981323242
40
0.0
41
0.0
42
0.0
10
77.5137023925781
20
79.7818984985352
40
0.0
41
0.0
42
0.0
10
77.9515991210938
20
79.8869018554688
40
0.0
41
0.0
42
0.0
10
77.9981002807617
20
79.8908996582031
40
0.0
41
0.0
42
0.0
10
78.4205017089844
20
79.8459014892578
40
0.0
41
0.0
42
0.0
10
78.4946975708008
20
79.8122024536133
40
0.0
41
0.0
42
0.0
10
78.6830978393555
20
79.4854965209961
40
0.0
41
0.0
42
0.0
10
78.713996887207
20
79.4210968017578
40
0.0
41
0.0
42
0.0
10
78.7768020629883
20
78.9832992553711
40
0.0
41
0.0
42
0.0
10
78.7740020751953
20
78.5460968017578
40
0.0
41
0.0
42
0.0
10
78.7799987792969
20
78.4943008422852
40
0.0
41
0.0
42
0.0
10
78.7490997314453
20
78.0447006225586
40
0.0
41
0.0
42
0.0
10
78.7547988891602
20
77.5064010620117
40
0.0
41
0.0
42
0.0
10
78.7555999755859
20
77.4860000610352
40
0.0
41
0.0
42
0.0
10
78.7617034912109
20
77.4756011962891
40
0.0
41
0.0
42
0.0
10
78.9943008422852
20
77.1837997436523
40
0.0
41
0.0
42
0.0
10
79.2396011352539
20
77.0189971923828
40
0.0
41
0.0
42
0.0
10
79.2609024047852
20
76.9969024658203
40
0.0
41
0.0
42
0.0
10
79.2996978759766
20
76.9765014648438
40
0.0
41
0.0
42
0.0
10
79.4878997802734
20
76.9052963256836
40
0.0
41
0.0
42
0.0
10
79.9244995117188
20
76.7102966308594
40
0.0
41
0.0
42
0.0
10
79.9898986816406
20
76.6722030639648
40
0.0
41
0.0
42
0.0
10
80.345100402832
20
76.4972991943359
40
0.0
41
0.0
42
0.0
10
80.4944000244141
20
76.3515014648438
40
0.0
41
0.0
42
0.0
10
80.8787994384766
20
75.9940032958984
40
0.0
41
0.0
42
0.0
10
80.7879028320312
20
75.5827026367188
40
0.0
41
0.0
42
0.0
10
80.7878036499023
20
75.5462036132812
40
0.0
41
0.0
42
0.0
10
80.7922973632812
20
75.5082015991211
40
0.0
41
0.0
42
0.0
10
80.5127029418945
20
75.2296981811523
40
0.0
41
0.0
42
0.0
10
80.4980010986328
20
75.2079010009766
40
0.0
41
0.0
42
0.0
10
80.4769973754883
20
75.1669998168945
40
0.0
41
0.0
42
0.0
10
80.3581008911133
20
75.0056991577148
40
0.0
41
0.0
42
0.0
10
80.0382995605469
20
74.7248992919922
40
0.0
41
0.0
42
0.0
10
79.9863967895508
20
74.6737976074219
40
0.0
41
0.0
42
0.0
10
79.7798004150391
20
74.5048980712891
40
0.0
41
0.0
42
0.0
10
79.4954986572266
20
74.1722030639648
40
0.0
41
0.0
42
0.0
10
79.3422012329102
20
74.0114974975586
40
0.0
41
0.0
42
0.0
10
79.3421020507812
20
73.9813003540039
40
0.0
41
0.0
42
0.0
10
79.3979034423828
20
73.5390014648438
40
0.0
41
0.0
42
0.0
10
79.3961029052734
20
73.5189971923828
40
0.0
41
0.0
42
0.0
10
79.3960037231445
20
73.4829025268555
40
0.0
41
0.0
42
0.0
10
79.4135971069336
20
73.4222030639648
40
0.0
41
0.0
42
0.0
10
79.4991989135742
20
73.2328033447266
40
0.0
41
0.0
42
0.0
10
79.597900390625
20
72.9865036010742
40
0.0
41
0.0
42
0.0
10
79.6158981323242
20
72.921501159668
40
0.0
41
0.0
42
0.0
10
79.7818984985352
20
72.486198425293
40
0.0
41
0.0
42
0.0
10
79.8869018554688
20
72.0483016967773
40
0.0
41
0.0
42
0.0
10
79.8908996582031
20
72.0018005371094
40
0.0
41
0.0
42
0.0
10
79.8460006713867
20
71.5793991088867
40
0.0
41
0.0
42
0.0
10
79.8123016357422
20
71.5052032470703
40
0.0
41
0.0
42
0.0
10
79.4856033325195
20
71.3165969848633
40
0.0
41
0.0
42
0.0
10
79.4210968017578
20
71.2856979370117
40
0.0
41
0.0
42
0.0
10
78.9360961914062
20
71.2169036865234
40
0.0
41
0.0
42
0.0
10
78.9934997558594
20
71.2166976928711
40
0.0
41
0.0
42
0.0
10
79.4888000488281
20
71.2873001098633
40
0.0
41
0.0
42
0.0
10
79.5083999633789
20
71.2968978881836
40
0.0
41
0.0
42
0.0
10
79.852897644043
20
71.4949035644531
40
0.0
41
0.0
42
0.0
10
79.8600997924805
20
71.5105972290039
40
0.0
41
0.0
42
0.0
10
79.9102020263672
20
71.9811019897461
40
0.0
41
0.0
42
0.0
10
79.9101028442383
20
72.0190963745117
40
0.0
41
0.0
42
0.0
10
79.908203125
20
72.0416030883789
40
0.0
41
0.0
42
0.0
10
79.7949981689453
20
72.5137023925781
40
0.0
41
0.0
42
0.0
10
79.613899230957
20
72.9884033203125
40
0.0
41
0.0
42
0.0
10
79.6071014404297
20
73.0131988525391
40
0.0
41
0.0
42
0.0
10
79.500602722168
20
73.2788009643555
40
0.0
41
0.0
42
0.0
10
79.4063034057617
20
73.4875030517578
40
0.0
41
0.0
42
0.0
10
79.4001007080078
20
73.5093002319336
40
0.0
41
0.0
42
0.0
10
79.3998031616211
20
73.5836029052734
40
0.0
41
0.0
42
0.0
10
79.348503112793
20
73.9919967651367
40
0.0
41
0.0
42
0.0
10
79.5044021606445
20
74.1548004150391
40
0.0
41
0.0
42
0.0
10
79.7957000732422
20
74.495002746582
40
0.0
41
0.0
42
0.0
10
79.986198425293
20
74.6507034301758
40
0.0
41
0.0
42
0.0
10
80.0382995605469
20
74.7036972045898
40
0.0
41
0.0
42
0.0
10
80.3684005737305
20
74.9935989379883
40
0.0
41
0.0
42
0.0
10
80.4943008422852
20
75.1641998291016
40
0.0
41
0.0
42
0.0
10
80.5093994140625
20
75.1906967163086
40
0.0
41
0.0
42
0.0
10
80.8087005615234
20
75.4887008666992
40
0.0
41
0.0
42
0.0
10
80.8087005615234
20
75.5203018188477
40
0.0
41
0.0
42
0.0
10
80.9106979370117
20
75.9822006225586
40
0.0
41
0.0
42
0.0
10
80.9105987548828
20
76.0108032226562
40
0.0
41
0.0
42
0.0
10
80.5054016113281
20
76.3878021240234
40
0.0
41
0.0
42
0.0
10
80.3876037597656
20
76.5025024414062
40
0.0
41
0.0
42
0.0
10
80.0100021362305
20
76.6880035400391
40
0.0
41
0.0
42
0.0
10
79.9852981567383
20
76.7024002075195
40
0.0
41
0.0
42
0.0
10
79.5119018554688
20
76.9138031005859
40
0.0
41
0.0
42
0.0
10
79.3050994873047
20
76.9919967651367
40
0.0
41
0.0
42
0.0
10
79.2844009399414
20
77.0028991699219
40
0.0
41
0.0
42
0.0
10
79.2751007080078
20
77.0124969482422
40
0.0
41
0.0
42
0.0
10
79.005500793457
20
77.1937026977539
40
0.0
41
0.0
42
0.0
10
78.7842025756836
20
77.470100402832
40
0.0
41
0.0
42
0.0
10
78.7587966918945
20
77.5139007568359
40
0.0
41
0.0
42
0.0
10
78.7559967041016
20
77.5843963623047
40
0.0
41
0.0
42
0.0
10
78.750602722168
20
78.0466003417969
40
0.0
41
0.0
42
0.0
10
78.780403137207
20
78.4806976318359
40
0.0
41
0.0
42
0.0
10
78.7802963256836
20
78.5186004638672
40
0.0
41
0.0
42
0.0
10
78.7767028808594
20
78.5468978881836
40
0.0
41
0.0
42
0.0
10
78.7798004150391
20
79.0185012817383
40
0.0
41
0.0
42
0.0
10
78.71240234375
20
79.4887008666992
40
0.0
41
0.0
42
0.0
10
78.7027969360352
20
79.5083999633789
40
0.0
41
0.0
42
0.0
10
78.504997253418
20
79.8527984619141
40
0.0
41
0.0
42
0.0
10
78.4893035888672
20
79.8600997924805
40
0.0
41
0.0
42
0.0
10
78.018798828125
20
79.9102020263672
40
0.0
41
0.0
42
0.0
10
77.9807968139648
20
79.9101028442383
40
0.0
41
0.0
42
0.0
10
77.9582977294922
20
79.908203125
40
0.0
41
0.0
42
0.0
10
77.486198425293
20
79.7949981689453
40
0.0
41
0.0
42
0.0
10
77.0114974975586
20
79.613899230957
40
0.0
41
0.0
42
0.0
10
76.986701965332
20
79.6071014404297
40
0.0
41
0.0
42
0.0
10
76.7210006713867
20
79.500602722168
40
0.0
41
0.0
42
0.0
10
76.5122985839844
20
79.4063034057617
40
0.0
41
0.0
42
0.0
10
76.4905014038086
20
79.4001007080078
40
0.0
41
0.0
42
0.0
10
76.4162979125977
20
79.3998031616211
40
0.0
41
0.0
42
0.0
10
76.0078964233398
20
79.3483963012695
40
0.0
41
0.0
42
0.0
10
75.8450012207031
20
79.5043029785156
40
0.0
41
0.0
42
0.0
10
75.5047988891602
20
79.7957000732422
40
0.0
41
0.0
42
0.0
10
75.3490982055664
20
79.9860992431641
40
0.0
41
0.0
42
0.0
10
75.2959976196289
20
80.0382995605469
40
0.0
41
0.0
42
0.0
10
75.0055999755859
20
80.3690032958984
40
0.0
41
0.0
42
0.0
10
74.8355026245117
20
80.4942016601562
40
0.0
41
0.0
42
0.0
10
74.8090972900391
20
80.5093994140625
40
0.0
41
0.0
42
0.0
10
74.5111999511719
20
80.8087005615234
40
0.0
41
0.0
42
0.0
10
74.4794998168945
20
80.8086013793945
40
0.0
41
0.0
42
0.0
10
74.0177001953125
20
80.9106979370117
40
0.0
41
0.0
42
0.0
10
73.9890975952148
20
80.9105987548828
40
0.0
41
0.0
42
0.0
10
73.6119995117188
20
80.505500793457
40
0.0
41
0.0
42
0.0
10
73.4972991943359
20
80.3876037597656
40
0.0
41
0.0
42
0.0
10
73.3122024536133
20
80.011100769043
40
0.0
41
0.0
42
0.0
10
73.0998001098633
20
79.535400390625
40
0.0
41
0.0
42
0.0
10
73.0856018066406
20
79.5109024047852
40
0.0
41
0.0
42
0.0
10
73.0077972412109
20
79.3050994873047
40
0.0
41
0.0
42
0.0
10
72.9970016479492
20
79.2845001220703
40
0.0
41
0.0
42
0.0
10
72.9871978759766
20
79.2751007080078
40
0.0
41
0.0
42
0.0
10
72.8060989379883
20
79.0055999755859
40
0.0
41
0.0
42
0.0
10
72.5297012329102
20
78.7843017578125
40
0.0
41
0.0
42
0.0
10
72.4860000610352
20
78.7587966918945
40
0.0
41
0.0
42
0.0
10
72.4154968261719
20
78.7559967041016
40
0.0
41
0.0
42
0.0
10
71.9533004760742
20
78.750602722168
40
0.0
41
0.0
42
0.0
10
71.5192031860352
20
78.780403137207
40
0.0
41
0.0
42
0.0
10
71.4813003540039
20
78.7802963256836
40
0.0
41
0.0
42
0.0
10
71.4530029296875
20
78.7767028808594
40
0.0
41
0.0
42
0.0
10
70.9813995361328
20
78.7798004150391
40
0.0
41
0.0
42
0.0
10
70.5111999511719
20
78.71240234375
40
0.0
41
0.0
42
0.0
10
70.4914016723633
20
78.7027969360352
40
0.0
41
0.0
42
0.0
10
70.1468963623047
20
78.5050964355469
40
0.0
41
0.0
42
0.0
10
70.1396026611328
20
78.4894027709961
40
0.0
41
0.0
42
0.0
10
70.0896987915039
20
78.018798828125
40
0.0
41
0.0
42
0.0
10
70.089599609375
20
77.9823989868164
40
0.0
41
0.0
42
0.0
10
70.2033004760742
20
77.50830078125
40
0.0
41
0.0
42
0.0
10
70.2052993774414
20
77.4847030639648
40
0.0
41
0.0
42
0.0
10
70.3858032226562
20
77.0114974975586
40
0.0
41
0.0
42
0.0
10
70.3926010131836
20
76.9866027832031
40
0.0
41
0.0
42
0.0
10
70.4991989135742
20
76.7210006713867
40
0.0
41
0.0
42
0.0
10
70.5933990478516
20
76.5122985839844
40
0.0
41
0.0
42
0.0
10
70.6016006469727
20
76.4841995239258
40
0.0
41
0.0
42
0.0
10
70.6568984985352
20
76.0447998046875
40
0.0
41
0.0
42
0.0
10
70.6539993286133
20
76.0108032226562
40
0.0
41
0.0
42
0.0
10
70.4954986572266
20
75.845100402832
40
0.0
41
0.0
42
0.0
10
70.2041015625
20
75.5048980712891
40
0.0
41
0.0
42
0.0
10
70.0136032104492
20
75.3490982055664
40
0.0
41
0.0
42
0.0
10
69.9615020751953
20
75.2960968017578
40
0.0
41
0.0
42
0.0
10
69.6306991577148
20
75.0056991577148
40
0.0
41
0.0
42
0.0
10
69.505500793457
20
74.8356018066406
40
0.0
41
0.0
42
0.0
10
69.4904022216797
20
74.8090972900391
40
0.0
41
0.0
42
0.0
10
69.1893005371094
20
74.5093994140625
40
0.0
41
0.0
42
0.0
10
69.0863037109375
20
74.0427017211914
40
0.0
41
0.0
42
0.0
10
69.0861968994141
20
74.0062026977539
40
0.0
41
0.0
42
0.0
10
69.0880966186523
20
73.9899978637695
40
0.0
41
0.0
42
0.0
210
0.0
220
0.0
230
1.0
0
LWPOLYLINE
5
2A
330
1C
100
AcDbEntity
67
0
8
0
62
256
6
ByLayer
370
-1
48
1.0
60
0
100
AcDbPolyline
90
82
70
1
38
0.0
39
0.0
10
78.4816970825195
20
71.2189025878906
40
0.0
41
0.0
42
0.0
10
78.019401550293
20
71.250602722168
40
0.0
41
0.0
42
0.0
10
77.4868011474609
20
71.2440032958984
40
0.0
41
0.0
42
0.0
10
77.4754028320312
20
71.2378997802734
40
0.0
41
0.0
42
0.0
10
77.1838989257812
20
71.005500793457
40
0.0
41
0.0
42
0.0
10
77.0189971923828
20
70.7602005004883
40
0.0
41
0.0
42
0.0
10
76.9969024658203
20
70.738899230957
40
0.0
41
0.0
42
0.0
10
76.9765014648438
20
70.7001037597656
40
0.0
41
0.0
42
0.0
10
76.9052963256836
20
70.5120010375977
40
0.0
41
0.0
42
0.0
10
76.7102966308594
20
70.0754013061523
40
0.0
41
0.0
42
0.0
10
76.6722030639648
20
70.0100021362305
40
0.0
41
0.0
42
0.0
10
76.4972991943359
20
69.6547012329102
40
0.0
41
0.0
42
0.0
10
76.3516006469727
20
69.505500793457
40
0.0
41
0.0
42
0.0
10
75.9899978637695
20
69.1167984008789
40
0.0
41
0.0
42
0.0
10
75.9401016235352
20
69.1110992431641
40
0.0
41
0.0
42
0.0
10
75.5093994140625
20
69.206298828125
40
0.0
41
0.0
42
0.0
10
75.2296981811523
20
69.4870986938477
40
0.0
41
0.0
42
0.0
10
75.2079010009766
20
69.5018005371094
40
0.0
41
0.0
42
0.0
10
75.1669998168945
20
69.5227966308594
40
0.0
41
0.0
42
0.0
10
75.0055999755859
20
69.6417007446289
40
0.0
41
0.0
42
0.0
10
74.7248001098633
20
69.9615020751953
40
0.0
41
0.0
42
0.0
10
74.6737976074219
20
70.0133972167969
40
0.0
41
0.0
42
0.0
10
74.5047988891602
20
70.220100402832
40
0.0
41
0.0
42
0.0
10
74.1729965209961
20
70.5036010742188
40
0.0
41
0.0
42
0.0
10
74.0106964111328
20
70.6583023071289
40
0.0
41
0.0
42
0.0
10
73.9942016601562
20
70.659797668457
40
0.0
41
0.0
42
0.0
10
73.9163970947266
20
70.6585006713867
40
0.0
41
0.0
42
0.0
10
73.4841995239258
20
70.6041030883789
40
0.0
41
0.0
42
0.0
10
73.4222030639648
20
70.5861968994141
40
0.0
41
0.0
42
0.0
10
73.2328033447266
20
70.500602722168
40
0.0
41
0.0
42
0.0
10
72.9865036010742
20
70.4018020629883
40
0.0
41
0.0
42
0.0
10
72.921501159668
20
70.3837966918945
40
0.0
41
0.0
42
0.0
10
72.4847030639648
20
70.2172012329102
40
0.0
41
0.0
42
0.0
10
72.4182968139648
20
70.2115020751953
40
0.0
41
0.0
42
0.0
10
71.9935989379883
20
70.1097030639648
40
0.0
41
0.0
42
0.0
10
71.5792999267578
20
70.1537017822266
40
0.0
41
0.0
42
0.0
10
71.5050964355469
20
70.1875
40
0.0
41
0.0
42
0.0
10
71.3165969848633
20
70.5142974853516
40
0.0
41
0.0
42
0.0
10
71.2856979370117
20
70.5787963867188
40
0.0
41
0.0
42
0.0
10
71.2169036865234
20
71.0636978149414
40
0.0
41
0.0
42
0.0
10
71.2166976928711
20
71.0064010620117
40
0.0
41
0.0
42
0.0
10
71.2873992919922
20
70.511100769043
40
0.0
41
0.0
42
0.0
10
71.2968978881836
20
70.4913024902344
40
0.0
41
0.0
42
0.0
10
71.4947967529297
20
70.1467971801758
40
0.0
41
0.0
42
0.0
10
71.510498046875
20
70.1396026611328
40
0.0
41
0.0
42
0.0
10
71.9811019897461
20
70.0896987915039
40
0.0
41
0.0
42
0.0
10
72.0175018310547
20
70.089599609375
40
0.0
41
0.0
42
0.0
10
72.4916000366211
20
70.2033004760742
40
0.0
41
0.0
42
0.0
10
72.5151977539062
20
70.2052993774414
40
0.0
41
0.0
42
0.0
10
72.9884033203125
20
70.3858032226562
40
0.0
41
0.0
42
0.0
10
73.0131988525391
20
70.3926010131836
40
0.0
41
0.0
42
0.0
10
73.2788009643555
20
70.4992980957031
40
0.0
41
0.0
42
0.0
10
73.4875030517578
20
70.5934982299805
40
0.0
41
0.0
42
0.0
10
73.5157012939453
20
70.6016998291016
40
0.0
41
0.0
42
0.0
10
73.9551010131836
20
70.6568984985352
40
0.0
41
0.0
42
0.0
10
73.9890975952148
20
70.6539993286133
40
0.0
41
0.0
42
0.0
10
74.1547012329102
20
70.4954986572266
40
0.0
41
0.0
42
0.0
10
74.495002746582
20
70.2040023803711
40
0.0
41
0.0
42
0.0
10
74.6505966186523
20
70.0136032104492
40
0.0
41
0.0
42
0.0
10
74.7036972045898
20
69.9614028930664
40
0.0
41
0.0
42
0.0
10
74.9934997558594
20
69.6314010620117
40
0.0
41
0.0
42
0.0
10
75.1641998291016
20
69.505500793457
40
0.0
41
0.0
42
0.0
10
75.1905975341797
20
69.4903030395508
40
0.0
41
0.0
42
0.0
10
75.4905014038086
20
69.1893005371094
40
0.0
41
0.0
42
0.0
10
75.9571990966797
20
69.0863037109375
40
0.0
41
0.0
42
0.0
10
75.9936981201172
20
69.0861968994141
40
0.0
41
0.0
42
0.0
10
76.0098037719727
20
69.0880966186523
40
0.0
41
0.0
42
0.0
10
76.3878021240234
20
69.4944000244141
40
0.0
41
0.0
42
0.0
10
76.5026016235352
20
69.6121978759766
40
0.0
41
0.0
42
0.0
10
76.6880035400391
20
69.9898986816406
40
0.0
41
0.0
42
0.0
10
76.7024002075195
20
70.0146026611328
40
0.0
41
0.0
42
0.0
10
76.9138031005859
20
70.4879989624023
40
0.0
41
0.0
42
0.0
10
76.9921035766602
20
70.6947021484375
40
0.0
41
0.0
42
0.0
10
77.0028991699219
20
70.7153015136719
40
0.0
41
0.0
42
0.0
10
77.0124969482422
20
70.7246017456055
40
0.0
41
0.0
42
0.0
10
77.1937026977539
20
70.9943008422852
40
0.0
41
0.0
42
0.0
10
77.4701995849609
20
71.2154998779297
40
0.0
41
0.0
42
0.0
10
77.5141983032227
20
71.241096496582
40
0.0
41
0.0
42
0.0
10
77.9543991088867
20
71.2463989257812
40
0.0
41
0.0
42
0.0
10
77.995002746582
20
71.2480010986328
40
0.0
41
0.0
42
0.0
10
78.4157028198242
20
71.2192001342773
40
0.0
41
0.0
42
0.0
10
78.4816970825195
20
71.2189025878906
40
0.0
41
0.0
42
0.0
210
0.0
220
0.0
230
1.0
0
LWPOLYLINE
5
2B
330
1C
100
AcDbEntity
67
0
8
0
62
256
6
ByLayer
370
-1
48
1.0
60
0
100
AcDbPolyline
90
86
70
1
38
0.0
39
0.0
10
71.8898010253906
20
83.4841003417969
40
0.0
41
0.0
42
0.0
10
71.999397277832
20
83.1430969238281
40
0.0
41
0.0
42
0.0
10
72.0225982666016
20
83.121696472168
40
0.0
41
0.0
42
0.0
10
72.0737991333008
20
82.9965972900391
40
0.0
41
0.0
42
0.0
10
72.4915008544922
20
82.6485977172852
40
0.0
41
0.0
42
0.0
10
72.5156021118164
20
82.6363983154297
40
0.0
41
0.0
42
0.0
10
72.6952972412109
20
82.5139999389648
40
0.0
41
0.0
42
0.0
10
72.7266006469727
20
82.4982986450195
40
0.0
41
0.0
42
0.0
10
72.9899978637695
20
82.3380966186523
40
0.0
41
0.0
42
0.0
10
73.41259765625
20
82.1328964233398
40
0.0
41
0.0
42
0.0
10
73.4849014282227
20
82.1008987426758
40
0.0
41
0.0
42
0.0
10
73.9433975219727
20
82.0753021240234
40
0.0
41
0.0
42
0.0
10
74.0130004882812
20
82.0748977661133
40
0.0
41
0.0
42
0.0
10
74.4711990356445
20
82.4184036254883
40
0.0
41
0.0
42
0.0
10
74.5052032470703
20
82.4412994384766
40
0.0
41
0.0
42
0.0
10
74.5445022583008
20
82.4944000244141
40
0.0
41
0.0
42
0.0
10
74.5749969482422
20
82.5201034545898
40
0.0
41
0.0
42
0.0
10
74.9897994995117
20
82.9773025512695
40
0.0
41
0.0
42
0.0
10
75.0316009521484
20
83.0180969238281
40
0.0
41
0.0
42
0.0
10
75.3202972412109
20
83.4865036010742
40
0.0
41
0.0
42
0.0
10
75.347297668457
20
83.9297027587891
40
0.0
41
0.0
42
0.0
10
75.3781967163086
20
83.9853973388672
40
0.0
41
0.0
42
0.0
10
75.3780975341797
20
84.0177993774414
40
0.0
41
0.0
42
0.0
10
75.3656997680664
20
84.0767974853516
40
0.0
41
0.0
42
0.0
10
75.0856018066406
20
84.5066986083984
40
0.0
41
0.0
42
0.0
10
75.0302963256836
20
84.5634994506836
40
0.0
41
0.0
42
0.0
10
75.0074005126953
20
84.5826034545898
40
0.0
41
0.0
42
0.0
10
74.5738983154297
20
84.8662033081055
40
0.0
41
0.0
42
0.0
10
74.5109024047852
20
84.9029006958008
40
0.0
41
0.0
42
0.0
10
74.2525024414062
20
84.9990005493164
40
0.0
41
0.0
42
0.0
10
74.1521987915039
20
84.9990005493164
40
0.0
41
0.0
42
0.0
10
74.152099609375
20
84.994499206543
40
0.0
41
0.0
42
0.0
10
74.488899230957
20
84.8693008422852
40
0.0
41
0.0
42
0.0
10
74.5158996582031
20
84.8535995483398
40
0.0
41
0.0
42
0.0
10
74.9924011230469
20
84.5419006347656
40
0.0
41
0.0
42
0.0
10
75.0212020874023
20
84.5179977416992
40
0.0
41
0.0
42
0.0
10
75.0454025268555
20
84.4931030273438
40
0.0
41
0.0
42
0.0
10
75.361198425293
20
84.00830078125
40
0.0
41
0.0
42
0.0
10
75.3499984741211
20
83.9878997802734
40
0.0
41
0.0
42
0.0
10
75.3440017700195
20
83.9525985717773
40
0.0
41
0.0
42
0.0
10
75.3172988891602
20
83.5133972167969
40
0.0
41
0.0
42
0.0
10
75.0449981689453
20
83.0717010498047
40
0.0
41
0.0
42
0.0
10
74.9941024780273
20
83.0225982666016
40
0.0
41
0.0
42
0.0
10
74.9558029174805
20
82.9890975952148
40
0.0
41
0.0
42
0.0
10
74.5749969482422
20
82.5693969726562
40
0.0
41
0.0
42
0.0
10
74.5477981567383
20
82.5488967895508
40
0.0
41
0.0
42
0.0
10
74.4989013671875
20
82.5057983398438
40
0.0
41
0.0
42
0.0
10
74.4947967529297
20
82.5001983642578
40
0.0
41
0.0
42
0.0
10
74.3972015380859
20
82.4339981079102
40
0.0
41
0.0
42
0.0
10
73.9876022338867
20
82.1270980834961
40
0.0
41
0.0
42
0.0
10
73.9224014282227
20
82.1280975341797
40
0.0
41
0.0
42
0.0
10
73.5149002075195
20
82.1507034301758
40
0.0
41
0.0
42
0.0
10
73.3130035400391
20
82.2400970458984
40
0.0
41
0.0
42
0.0
10
73.0098037719727
20
82.3872985839844
40
0.0
41
0.0
42
0.0
10
72.8219985961914
20
82.5015029907227
40
0.0
41
0.0
42
0.0
10
72.7388000488281
20
82.5434036254883
40
0.0
41
0.0
42
0.0
10
72.5745010375977
20
82.655403137207
40
0.0
41
0.0
42
0.0
10
72.5246963500977
20
82.6784973144531
40
0.0
41
0.0
42
0.0
10
72.5074996948242
20
82.6893997192383
40
0.0
41
0.0
42
0.0
10
72.114501953125
20
83.0171966552734
40
0.0
41
0.0
42
0.0
10
72.0671997070312
20
83.1327972412109
40
0.0
41
0.0
42
0.0
10
72.0065994262695
20
83.1883010864258
40
0.0
41
0.0
42
0.0
10
71.9002990722656
20
83.5157012939453
40
0.0
41
0.0
42
0.0
10
71.8974990844727
20
83.5484008789062
40
0.0
41
0.0
42
0.0
10
72.0225982666016
20
83.9876022338867
40
0.0
41
0.0
42
0.0
10
72.0370025634766
20
84.0160980224609
40
0.0
41
0.0
42
0.0
10
72.3980026245117
20
84.4937973022461
40
0.0
41
0.0
42
0.0
10
72.4915008544922
20
84.5856018066406
40
0.0
41
0.0
42
0.0
10
72.5059967041016
20
84.6024017333984
40
0.0
41
0.0
42
0.0
10
72.9828033447266
20
84.9126968383789
40
0.0
41
0.0
42
0.0
10
73.0103988647461
20
84.9335021972656
40
0.0
41
0.0
42
0.0
10
73.2264022827148
20
84.9957962036133
40
0.0
41
0.0
42
0.0
10
73.2264022827148
20
84.9990005493164
40
0.0
41
0.0
42
0.0
10
73.1380996704102
20
84.9989013671875
40
0.0
41
0.0
42
0.0
10
72.9889984130859
20
84.9560012817383
40
0.0
41
0.0
42
0.0
10
72.9581985473633
20
84.9348983764648
40
0.0
41
0.0
42
0.0
10
72.9275970458984
20
84.9087982177734
40
0.0
41
0.0
42
0.0
10
72.493896484375
20
84.6267013549805
40
0.0
41
0.0
42
0.0
10
72.4614028930664
20
84.5892028808594
40
0.0
41
0.0
42
0.0
10
72.3767013549805
20
84.506103515625
40
0.0
41
0.0
42
0.0
10
72.0498962402344
20
84.0737991333008
40
0.0
41
0.0
42
0.0
10
72.018798828125
20
84.0121994018555
40
0.0
41
0.0
42
0.0
10
71.8958969116211
20
83.5799026489258
40
0.0
41
0.0
42
0.0
10
71.8880996704102
20
83.5427017211914
40
0.0
41
0.0
42
0.0
10
71.8880004882812
20
83.5057983398438
40
0.0
41
0.0
42
0.0
10
71.8898010253906
20
83.4841003417969
40
0.0
41
0.0
42
0.0
210
0.0
220
0.0
230
1.0
0
LWPOLYLINE
5
2C
330
1C
100
AcDbEntity
67
0
8
0
62
256
6
ByLayer
370
-1
48
1.0
60
0
100
AcDbPolyline
90
23
70
1
38
0.0
39
0.0
10
72.5173034667969
20
75.4252014160156
40
0.0
41
0.0
42
0.0
10
72.9878005981445
20
75.1406021118164
40
0.0
41
0.0
42
0.0
10
73.4254989624023
20
75.0479965209961
40
0.0
41
0.0
42
0.0
10
73.4858016967773
20
75.0113983154297
40
0.0
41
0.0
42
0.0
10
73.5110015869141
20
75.0113983154297
40
0.0
41
0.0
42
0.0
10
73.7119979858398
20
75.2218017578125
40
0.0
41
0.0
42
0.0
10
73.9329986572266
20
75.4875030517578
40
0.0
41
0.0
42
0.0
10
73.9328994750977
20
75.5092010498047
40
0.0
41
0.0
42
0.0
10
73.7146987915039
20
75.6661987304688
40
0.0
41
0.0
42
0.0
10
73.548698425293
20
75.806396484375
40
0.0
41
0.0
42
0.0
10
73.5205001831055
20
75.806396484375
40
0.0
41
0.0
42
0.0
10
73.4854965209961
20
75.7918014526367
40
0.0
41
0.0
42
0.0
10
73.4247970581055
20
75.783203125
40
0.0
41
0.0
42
0.0
10
73.0195007324219
20
75.7996978759766
40
0.0
41
0.0
42
0.0
10
72.9841995239258
20
75.7995986938477
40
0.0
41
0.0
42
0.0
10
72.5532989501953
20
75.618896484375
40
0.0
41
0.0
42
0.0
10
72.5154037475586
20
75.6017990112305
40
0.0
41
0.0
42
0.0
10
72.4999008178711
20
75.5898971557617
40
0.0
41
0.0
42
0.0
10
72.4961013793945
20
75.5842971801758
40
0.0
41
0.0
42
0.0
10
72.4200973510742
20
75.5110015869141
40
0.0
41
0.0
42
0.0
10
72.4199981689453
20
75.4916000366211
40
0.0
41
0.0
42
0.0
10
72.4924011230469
20
75.4468002319336
40
0.0
41
0.0
42
0.0
10
72.5173034667969
20
75.4252014160156
40
0.0
41
0.0
42
0.0
210
0.0
220
0.0
230
1.0
0
LWPOLYLINE
5
2D
330
1C
100
AcDbEntity
67
0
8
0
62
256
6
ByLayer
370
-1
48
1.0
60
0
100
AcDbPolyline
90
17
70
1
38
0.0
39
0.0
10
72.5037994384766
20
75.5537033081055
40
0.0
41
0.0
42
0.0
10
72.5161972045898
20
75.5720977783203
40
0.0
41
0.0
42
0.0
10
72.5711975097656
20
75.613899230957
40
0.0
41
0.0
42
0.0
10
73.0126037597656
20
75.7991027832031
40
0.0
41
0.0
42
0.0
10
73.4551010131836
20
75.7811965942383
40
0.0
41
0.0
42
0.0
10
73.4934997558594
20
75.7811965942383
40
0.0
41
0.0
42
0.0
10
73.5098037719727
20
75.7835006713867
40
0.0
41
0.0
42
0.0
10
73.5727005004883
20
75.730598449707
40
0.0
41
0.0
42
0.0
10
73.8948974609375
20
75.4988021850586
40
0.0
41
0.0
42
0.0
10
73.5754013061523
20
75.1147003173828
40
0.0
41
0.0
42
0.0
10
73.5012969970703
20
75.0371017456055
40
0.0
41
0.0
42
0.0
10
73.4503021240234
20
75.0494003295898
40
0.0
41
0.0
42
0.0
10
73.0121002197266
20
75.1420974731445
40
0.0
41
0.0
42
0.0
10
72.5725021362305
20
75.4080963134766
40
0.0
41
0.0
42
0.0
10
72.5074005126953
20
75.4642028808594
40
0.0
41
0.0
42
0.0
10
72.448600769043
20
75.5008010864258
40
0.0
41
0.0
42
0.0
10
72.5037994384766
20
75.5537033081055
40
0.0
41
0.0
42
0.0
210
0.0
220
0.0
230
1.0
0
LWPOLYLINE
5
2E
330
1C
100
AcDbEntity
67
0
8
0
62
256
6
ByLayer
370
-1
48
1.0
60
0
100
AcDbPolyline
90
29
70
1
38
0.0
39
0.0
10
72.8356018066406
20
73.9757995605469
40
0.0
41
0.0
42
0.0
10
72.9947967529297
20
73.5251998901367
40
0.0
41
0.0
42
0.0
10
73.0169982910156
20
73.5251007080078
40
0.0
41
0.0
42
0.0
10
73.4787979125977
20
73.6566009521484
40
0.0
41
0.0
42
0.0
10
73.5174026489258
20
73.6567993164062
40
0.0
41
0.0
42
0.0
10
73.5755004882812
20
73.6707000732422
40
0.0
41
0.0
42
0.0
10
73.8136978149414
20
73.8631973266602
40
0.0
41
0.0
42
0.0
10
73.9829025268555
20
73.9904022216797
40
0.0
41
0.0
42
0.0
10
73.9829025268555
20
74.0230026245117
40
0.0
41
0.0
42
0.0
10
74.2067031860352
20
74.0350036621094
40
0.0
41
0.0
42
0.0
10
74.2065963745117
20
74.0423965454102
40
0.0
41
0.0
42
0.0
10
74.0612030029297
20
74.1201019287109
40
0.0
41
0.0
42
0.0
10
74.236198425293
20
74.4847030639648
40
0.0
41
0.0
42
0.0
10
74.2360000610352
20
74.5137023925781
40
0.0
41
0.0
42
0.0
10
74.1984024047852
20
74.5716018676758
40
0.0
41
0.0
42
0.0
10
74.1790008544922
20
74.5910034179688
40
0.0
41
0.0
42
0.0
10
74.0092010498047
20
74.8271026611328
40
0.0
41
0.0
42
0.0
10
73.9858016967773
20
74.8270034790039
40
0.0
41
0.0
42
0.0
10
73.5739974975586
20
74.5808029174805
40
0.0
41
0.0
42
0.0
10
73.5040969848633
20
74.8282012939453
40
0.0
41
0.0
42
0.0
10
73.4990997314453
20
74.8282012939453
40
0.0
41
0.0
42
0.0
10
73.4760971069336
20
74.5743026733398
40
0.0
41
0.0
42
0.0
10
73.4755020141602
20
74.5121994018555
40
0.0
41
0.0
42
0.0
10
73.4291000366211
20
74.4570999145508
40
0.0
41
0.0
42
0.0
10
72.9941024780273
20
74.1700973510742
40
0.0
41
0.0
42
0.0
10
72.9832992553711
20
74.1569976806641
40
0.0
41
0.0
42
0.0
10
72.8301010131836
20
74.0110015869141
40
0.0
41
0.0
42
0.0
10
72.8300018310547
20
73.9854965209961
40
0.0
41
0.0
42
0.0
10
72.8356018066406
20
73.9757995605469
40
0.0
41
0.0
42
0.0
210
0.0
220
0.0
230
1.0
0
LWPOLYLINE
5
2F
330
1C
100
AcDbEntity
67
0
8
0
62
256
6
ByLayer
370
-1
48
1.0
60
0
100
AcDbPolyline
90
26
70
1
38
0.0
39
0.0
10
72.9856033325195
20
74.1370010375977
40
0.0
41
0.0
42
0.0
10
73.0059967041016
20
74.1605987548828
40
0.0
41
0.0
42
0.0
10
73.4807968139648
20
74.4739990234375
40
0.0
41
0.0
42
0.0
10
73.4925003051758
20
74.4878997802734
40
0.0
41
0.0
42
0.0
10
73.4935989379883
20
74.5198974609375
40
0.0
41
0.0
42
0.0
10
73.5330963134766
20
74.5198974609375
40
0.0
41
0.0
42
0.0
10
73.9977035522461
20
74.7975997924805
40
0.0
41
0.0
42
0.0
10
74.1930999755859
20
74.5261001586914
40
0.0
41
0.0
42
0.0
10
74.2011032104492
20
74.5183029174805
40
0.0
41
0.0
42
0.0
10
74.213996887207
20
74.4984970092773
40
0.0
41
0.0
42
0.0
10
74.021598815918
20
74.097297668457
40
0.0
41
0.0
42
0.0
10
74.021598815918
20
74.0466003417969
40
0.0
41
0.0
42
0.0
10
74.0139007568359
20
74.0431976318359
40
0.0
41
0.0
42
0.0
10
73.5864028930664
20
74.4244003295898
40
0.0
41
0.0
42
0.0
10
73.5753021240234
20
74.4244995117188
40
0.0
41
0.0
42
0.0
10
73.5753021240234
20
74.4135971069336
40
0.0
41
0.0
42
0.0
10
73.9576034545898
20
74.0007019042969
40
0.0
41
0.0
42
0.0
10
73.6108016967773
20
73.7398986816406
40
0.0
41
0.0
42
0.0
10
73.5160980224609
20
73.6633987426758
40
0.0
41
0.0
42
0.0
10
73.496696472168
20
73.6589965820312
40
0.0
41
0.0
42
0.0
10
73.4533996582031
20
73.6654968261719
40
0.0
41
0.0
42
0.0
10
73.4179000854492
20
73.6656036376953
40
0.0
41
0.0
42
0.0
10
73.0029983520508
20
73.5472030639648
40
0.0
41
0.0
42
0.0
10
72.8509979248047
20
73.9776992797852
40
0.0
41
0.0
42
0.0
10
72.839599609375
20
73.9980010986328
40
0.0
41
0.0
42
0.0
10
72.9856033325195
20
74.1370010375977
40
0.0
41
0.0
42
0.0
210
0.0
220
0.0
230
1.0
0
LWPOLYLINE
5
30
330
1C
100
AcDbEntity
67
0
8
0
62
256
6
ByLayer
370
-1
48
1.0
60
0
100
AcDbPolyline
90
29
70
1
38
0.0
39
0.0
10
73.6567993164062
20
76.4824981689453
40
0.0
41
0.0
42
0.0
10
73.6707000732422
20
76.4244003295898
40
0.0
41
0.0
42
0.0
10
73.8631973266602
20
76.1858978271484
40
0.0
41
0.0
42
0.0
10
73.9904022216797
20
76.0169982910156
40
0.0
41
0.0
42
0.0
10
74.0230026245117
20
76.0168991088867
40
0.0
41
0.0
42
0.0
10
74.0348968505859
20
75.7929992675781
40
0.0
41
0.0
42
0.0
10
74.0425033569336
20
75.793098449707
40
0.0
41
0.0
42
0.0
10
74.1201019287109
20
75.9384994506836
40
0.0
41
0.0
42
0.0
10
74.4847030639648
20
75.7637023925781
40
0.0
41
0.0
42
0.0
10
74.5137023925781
20
75.7637023925781
40
0.0
41
0.0
42
0.0
10
74.5718002319336
20
75.801399230957
40
0.0
41
0.0
42
0.0
10
74.5931015014648
20
75.8223037719727
40
0.0
41
0.0
42
0.0
10
74.8271026611328
20
75.9906997680664
40
0.0
41
0.0
42
0.0
10
74.8270034790039
20
76.0140991210938
40
0.0
41
0.0
42
0.0
10
74.5809020996094
20
76.4256973266602
40
0.0
41
0.0
42
0.0
10
74.8282012939453
20
76.4957962036133
40
0.0
41
0.0
42
0.0
10
74.8281021118164
20
76.5007019042969
40
0.0
41
0.0
42
0.0
10
74.5743026733398
20
76.5235977172852
40
0.0
41
0.0
42
0.0
10
74.5121002197266
20
76.524299621582
40
0.0
41
0.0
42
0.0
10
74.4570007324219
20
76.57080078125
40
0.0
41
0.0
42
0.0
10
74.1699981689453
20
77.0056991577148
40
0.0
41
0.0
42
0.0
10
74.1569976806641
20
77.0164031982422
40
0.0
41
0.0
42
0.0
10
74.0110015869141
20
77.1697998046875
40
0.0
41
0.0
42
0.0
10
73.9856033325195
20
77.1697006225586
40
0.0
41
0.0
42
0.0
10
73.9758987426758
20
77.1641006469727
40
0.0
41
0.0
42
0.0
10
73.5251998901367
20
77.0050964355469
40
0.0
41
0.0
42
0.0
10
73.5250015258789
20
76.9829025268555
40
0.0
41
0.0
42
0.0
10
73.6566009521484
20
76.5210037231445
40
0.0
41
0.0
42
0.0
10
73.6567993164062
20
76.4824981689453
40
0.0
41
0.0
42
0.0
210
0.0
220
0.0
230
1.0
0
LWPOLYLINE
5
31
330
1C
100
AcDbEntity
67
0
8
0
62
256
6
ByLayer
370
-1
48
1.0
60
0
100
AcDbPolyline
90
27
70
1
38
0.0
39
0.0
10
73.9776992797852
20
77.1486968994141
40
0.0
41
0.0
42
0.0
10
73.9979019165039
20
77.1601028442383
40
0.0
41
0.0
42
0.0
10
74.1370010375977
20
77.0140991210938
40
0.0
41
0.0
42
0.0
10
74.1604995727539
20
76.993896484375
40
0.0
41
0.0
42
0.0
10
74.4739990234375
20
76.5189971923828
40
0.0
41
0.0
42
0.0
10
74.4878997802734
20
76.5072021484375
40
0.0
41
0.0
42
0.0
10
74.5198974609375
20
76.5062026977539
40
0.0
41
0.0
42
0.0
10
74.5197982788086
20
76.4666976928711
40
0.0
41
0.0
42
0.0
10
74.7976989746094
20
76.002197265625
40
0.0
41
0.0
42
0.0
10
74.5261993408203
20
75.8066024780273
40
0.0
41
0.0
42
0.0
10
74.5183029174805
20
75.7985992431641
40
0.0
41
0.0
42
0.0
10
74.4984970092773
20
75.7856979370117
40
0.0
41
0.0
42
0.0
10
74.097297668457
20
75.978401184082
40
0.0
41
0.0
42
0.0
10
74.0467987060547
20
75.978401184082
40
0.0
41
0.0
42
0.0
10
74.0432968139648
20
75.9860992431641
40
0.0
41
0.0
42
0.0
10
74.386100769043
20
76.368896484375
40
0.0
41
0.0
42
0.0
10
74.4244003295898
20
76.413200378418
40
0.0
41
0.0
42
0.0
10
74.4244003295898
20
76.4244003295898
40
0.0
41
0.0
42
0.0
10
74.4135971069336
20
76.4244003295898
40
0.0
41
0.0
42
0.0
10
74.0007019042969
20
76.0420989990234
40
0.0
41
0.0
42
0.0
10
73.7443008422852
20
76.3832015991211
40
0.0
41
0.0
42
0.0
10
73.6633987426758
20
76.4838027954102
40
0.0
41
0.0
42
0.0
10
73.6589965820312
20
76.5031967163086
40
0.0
41
0.0
42
0.0
10
73.6654968261719
20
76.546501159668
40
0.0
41
0.0
42
0.0
10
73.6654968261719
20
76.5820007324219
40
0.0
41
0.0
42
0.0
10
73.5473022460938
20
76.9969024658203
40
0.0
41
0.0
42
0.0
10
73.9776992797852
20
77.1486968994141
40
0.0
41
0.0
42
0.0
210
0.0
220
0.0
230
1.0
0
LWPOLYLINE
5
32
330
1C
100
AcDbEntity
67
0
8
0
62
256
6
ByLayer
370
-1
48
1.0
60
0
100
AcDbPolyline
90
22
70
1
38
0.0
39
0.0
10
74.4402008056641
20
73.8351974487305
40
0.0
41
0.0
42
0.0
10
74.2080993652344
20
73.5128021240234
40
0.0
41
0.0
42
0.0
10
74.1909027099609
20
73.0845031738281
40
0.0
41
0.0
42
0.0
10
74.190803527832
20
73.046501159668
40
0.0
41
0.0
42
0.0
10
74.1996002197266
20
72.9856033325195
40
0.0
41
0.0
42
0.0
10
74.3981018066406
20
72.5150985717773
40
0.0
41
0.0
42
0.0
10
74.409797668457
20
72.4999008178711
40
0.0
41
0.0
42
0.0
10
74.415397644043
20
72.4960021972656
40
0.0
41
0.0
42
0.0
10
74.488899230957
20
72.4200973510742
40
0.0
41
0.0
42
0.0
10
74.5082015991211
20
72.4200973510742
40
0.0
41
0.0
42
0.0
10
74.5530014038086
20
72.4924011230469
40
0.0
41
0.0
42
0.0
10
74.5745010375977
20
72.5173034667969
40
0.0
41
0.0
42
0.0
10
74.8591003417969
20
72.9878005981445
40
0.0
41
0.0
42
0.0
10
74.9516983032227
20
73.4254989624023
40
0.0
41
0.0
42
0.0
10
74.9885025024414
20
73.4858016967773
40
0.0
41
0.0
42
0.0
10
74.9884033203125
20
73.5109024047852
40
0.0
41
0.0
42
0.0
10
74.7779006958008
20
73.7119979858398
40
0.0
41
0.0
42
0.0
10
74.5117034912109
20
73.9334030151367
40
0.0
41
0.0
42
0.0
10
74.2123031616211
20
73.9552993774414
40
0.0
41
0.0
42
0.0
10
74.1940002441406
20
73.9553985595703
40
0.0
41
0.0
42
0.0
10
74.1940994262695
20
73.9496994018555
40
0.0
41
0.0
42
0.0
10
74.4402008056641
20
73.8351974487305
40
0.0
41
0.0
42
0.0
210
0.0
220
0.0
230
1.0
0
LWPOLYLINE
5
33
330
1C
100
AcDbEntity
67
0
8
0
62
256
6
ByLayer
370
-1
48
1.0
60
0
100
AcDbPolyline
90
17
70
1
38
0.0
39
0.0
10
74.4796981811523
20
73.8553009033203
40
0.0
41
0.0
42
0.0
10
74.4797973632812
20
73.9044036865234
40
0.0
41
0.0
42
0.0
10
74.4860992431641
20
73.9074020385742
40
0.0
41
0.0
42
0.0
10
74.8851013183594
20
73.5754013061523
40
0.0
41
0.0
42
0.0
10
74.9626007080078
20
73.5014038085938
40
0.0
41
0.0
42
0.0
10
74.9503021240234
20
73.4503021240234
40
0.0
41
0.0
42
0.0
10
74.8575973510742
20
73.0121002197266
40
0.0
41
0.0
42
0.0
10
74.5916976928711
20
72.5726013183594
40
0.0
41
0.0
42
0.0
10
74.5354995727539
20
72.5074996948242
40
0.0
41
0.0
42
0.0
10
74.4991989135742
20
72.4484024047852
40
0.0
41
0.0
42
0.0
10
74.4459991455078
20
72.5037994384766
40
0.0
41
0.0
42
0.0
10
74.4275970458984
20
72.5160980224609
40
0.0
41
0.0
42
0.0
10
74.3859024047852
20
72.5710983276367
40
0.0
41
0.0
42
0.0
10
74.1997985839844
20
73.0141983032227
40
0.0
41
0.0
42
0.0
10
74.1968994140625
20
73.0351028442383
40
0.0
41
0.0
42
0.0
10
74.215202331543
20
73.4870986938477
40
0.0
41
0.0
42
0.0
10
74.4796981811523
20
73.8553009033203
40
0.0
41
0.0
42
0.0
210
0.0
220
0.0
230
1.0
0
LWPOLYLINE
5
34
330
1C
100
AcDbEntity
67
0
8
0
62
256
6
ByLayer
370
-1
48
1.0
60
0
100
AcDbPolyline
90
82
70
1
38
0.0
39
0.0
10
74.633903503418
20
65.9231033325195
40
0.0
41
0.0
42
0.0
10
74.9141006469727
20
65.4931030273438
40
0.0
41
0.0
42
0.0
10
74.9692993164062
20
65.4360961914062
40
0.0
41
0.0
42
0.0
10
74.9924011230469
20
65.4170989990234
40
0.0
41
0.0
42
0.0
10
75.4259033203125
20
65.1334991455078
40
0.0
41
0.0
42
0.0
10
75.488899230957
20
65.0968017578125
40
0.0
41
0.0
42
0.0
10
75.7472991943359
20
65.0009994506836
40
0.0
41
0.0
42
0.0
10
75.8477020263672
20
65.0009994506836
40
0.0
41
0.0
42
0.0
10
75.8476028442383
20
65.0053024291992
40
0.0
41
0.0
42
0.0
10
75.5109024047852
20
65.1303024291992
40
0.0
41
0.0
42
0.0
10
75.4839019775391
20
65.1460037231445
40
0.0
41
0.0
42
0.0
10
75.0074996948242
20
65.4578018188477
40
0.0
41
0.0
42
0.0
10
74.9785003662109
20
65.4815979003906
40
0.0
41
0.0
42
0.0
10
74.9542007446289
20
65.5067977905273
40
0.0
41
0.0
42
0.0
10
74.6386032104492
20
65.9914016723633
40
0.0
41
0.0
42
0.0
10
74.6498031616211
20
66.0119018554688
40
0.0
41
0.0
42
0.0
10
74.6557006835938
20
66.0473022460938
40
0.0
41
0.0
42
0.0
10
74.6824035644531
20
66.4865036010742
40
0.0
41
0.0
42
0.0
10
74.9548034667969
20
66.9281997680664
40
0.0
41
0.0
42
0.0
10
75.0059967041016
20
66.9774017333984
40
0.0
41
0.0
42
0.0
10
75.0273971557617
20
66.9952011108398
40
0.0
41
0.0
42
0.0
10
75.4244995117188
20
67.4300994873047
40
0.0
41
0.0
42
0.0
10
75.5012969970703
20
67.494499206543
40
0.0
41
0.0
42
0.0
10
75.5053024291992
20
67.4997024536133
40
0.0
41
0.0
42
0.0
10
75.6026992797852
20
67.565803527832
40
0.0
41
0.0
42
0.0
10
76.0122985839844
20
67.8725967407227
40
0.0
41
0.0
42
0.0
10
76.0774002075195
20
67.8715972900391
40
0.0
41
0.0
42
0.0
10
76.4849014282227
20
67.8489990234375
40
0.0
41
0.0
42
0.0
10
76.6866989135742
20
67.7595977783203
40
0.0
41
0.0
42
0.0
10
76.9899978637695
20
67.6123962402344
40
0.0
41
0.0
42
0.0
10
77.1789016723633
20
67.4975967407227
40
0.0
41
0.0
42
0.0
10
77.2928009033203
20
67.4199981689453
40
0.0
41
0.0
42
0.0
10
77.4917984008789
20
67.3106994628906
40
0.0
41
0.0
42
0.0
10
77.8739013671875
20
66.9926986694336
40
0.0
41
0.0
42
0.0
10
77.9200973510742
20
66.8797988891602
40
0.0
41
0.0
42
0.0
10
77.9983978271484
20
66.7985000610352
40
0.0
41
0.0
42
0.0
10
78.0994033813477
20
66.4841003417969
40
0.0
41
0.0
42
0.0
10
78.1022033691406
20
66.4514007568359
40
0.0
41
0.0
42
0.0
10
77.9772033691406
20
66.0122985839844
40
0.0
41
0.0
42
0.0
10
77.9627990722656
20
65.9838027954102
40
0.0
41
0.0
42
0.0
10
77.6017990112305
20
65.506103515625
40
0.0
41
0.0
42
0.0
10
77.50830078125
20
65.4141006469727
40
0.0
41
0.0
42
0.0
10
77.493896484375
20
65.3973999023438
40
0.0
41
0.0
42
0.0
10
77.0170974731445
20
65.0870971679688
40
0.0
41
0.0
42
0.0
10
76.989501953125
20
65.0662002563477
40
0.0
41
0.0
42
0.0
10
76.7734985351562
20
65.0040969848633
40
0.0
41
0.0
42
0.0
10
76.7734985351562
20
65.0009994506836
40
0.0
41
0.0
42
0.0
10
76.861701965332
20
65.0009002685547
40
0.0
41
0.0
42
0.0
10
77.0109024047852
20
65.0438003540039
40
0.0
41
0.0
42
0.0
10
77.0417022705078
20
65.0649032592773
40
0.0
41
0.0
42
0.0
10
77.0724029541016
20
65.0908966064453
40
0.0
41
0.0
42
0.0
10
77.5059967041016
20
65.3731002807617
40
0.0
41
0.0
42
0.0
10
77.5383987426758
20
65.4105987548828
40
0.0
41
0.0
42
0.0
10
77.6231002807617
20
65.4937973022461
40
0.0
41
0.0
42
0.0
10
77.9497985839844
20
65.9261016845703
40
0.0
41
0.0
42
0.0
10
77.9809036254883
20
65.9876022338867
40
0.0
41
0.0
42
0.0
10
78.1037979125977
20
66.4200973510742
40
0.0
41
0.0
42
0.0
10
78.1119003295898
20
66.4571990966797
40
0.0
41
0.0
42
0.0
10
78.1118011474609
20
66.4940032958984
40
0.0
41
0.0
42
0.0
10
78.1099014282227
20
66.5158004760742
40
0.0
41
0.0
42
0.0
10
78.0014038085938
20
66.853401184082
40
0.0
41
0.0
42
0.0
10
77.9720993041992
20
66.8837966918945
40
0.0
41
0.0
42
0.0
10
77.921501159668
20
67.0071029663086
40
0.0
41
0.0
42
0.0
10
77.5080032348633
20
67.3513031005859
40
0.0
41
0.0
42
0.0
10
77.4327011108398
20
67.3927001953125
40
0.0
41
0.0
42
0.0
10
77.2718963623047
20
67.502197265625
40
0.0
41
0.0
42
0.0
10
77.0099029541016
20
67.6615982055664
40
0.0
41
0.0
42
0.0
10
76.5871963500977
20
67.8667984008789
40
0.0
41
0.0
42
0.0
10
76.5149002075195
20
67.8989028930664
40
0.0
41
0.0
42
0.0
10
76.056396484375
20
67.9244003295898
40
0.0
41
0.0
42
0.0
10
75.9869003295898
20
67.9248962402344
40
0.0
41
0.0
42
0.0
10
75.5287017822266
20
67.5814971923828
40
0.0
41
0.0
42
0.0
10
75.4946975708008
20
67.5585021972656
40
0.0
41
0.0
42
0.0
10
75.4552993774414
20
67.505500793457
40
0.0
41
0.0
42
0.0
10
75.4246978759766
20
67.4796981811523
40
0.0
41
0.0
42
0.0
10
74.992301940918
20
67.0054016113281
40
0.0
41
0.0
42
0.0
10
74.9682006835938
20
66.9817962646484
40
0.0
41
0.0
42
0.0
10
74.6793975830078
20
66.5133972167969
40
0.0
41
0.0
42
0.0
10
74.6524963378906
20
66.070198059082
40
0.0
41
0.0
42
0.0
10
74.621696472168
20
66.0145034790039
40
0.0
41
0.0
42
0.0
10
74.6215972900391
20
65.9821014404297
40
0.0
41
0.0
42
0.0
10
74.633903503418
20
65.9231033325195
40
0.0
41
0.0
42
0.0
210
0.0
220
0.0
230
1.0
0
LWPOLYLINE
5
35
330
1C
100
AcDbEntity
67
0
8
0
62
256
6
ByLayer
370
-1
48
1.0
60
0
100
AcDbPolyline
90
24
70
1
38
0.0
39
0.0
10
75.0113983154297
20
76.5140991210938
40
0.0
41
0.0
42
0.0
10
75.0112991333008
20
76.488899230957
40
0.0
41
0.0
42
0.0
10
75.2218017578125
20
76.2878036499023
40
0.0
41
0.0
42
0.0
10
75.4881973266602
20
76.0662994384766
40
0.0
41
0.0
42
0.0
10
75.7874984741211
20
76.0444030761719
40
0.0
41
0.0
42
0.0
10
75.8057022094727
20
76.0445022583008
40
0.0
41
0.0
42
0.0
10
75.8056030273438
20
76.0500030517578
40
0.0
41
0.0
42
0.0
10
75.5596008300781
20
76.1645965576172
40
0.0
41
0.0
42
0.0
10
75.7912979125977
20
76.486701965332
40
0.0
41
0.0
42
0.0
10
75.7911987304688
20
76.5184020996094
40
0.0
41
0.0
42
0.0
10
75.783203125
20
76.5751037597656
40
0.0
41
0.0
42
0.0
10
75.7996978759766
20
76.9804000854492
40
0.0
41
0.0
42
0.0
10
75.7995986938477
20
77.0157012939453
40
0.0
41
0.0
42
0.0
10
75.6187973022461
20
77.4465026855469
40
0.0
41
0.0
42
0.0
10
75.6019973754883
20
77.4841003417969
40
0.0
41
0.0
42
0.0
10
75.5897979736328
20
77.4999008178711
40
0.0
41
0.0
42
0.0
10
75.5841979980469
20
77.5037994384766
40
0.0
41
0.0
42
0.0
10
75.5110015869141
20
77.5798034667969
40
0.0
41
0.0
42
0.0
10
75.4916000366211
20
77.5798034667969
40
0.0
41
0.0
42
0.0
10
75.4468002319336
20
77.5074996948242
40
0.0
41
0.0
42
0.0
10
75.4253005981445
20
77.4825973510742
40
0.0
41
0.0
42
0.0
10
75.1406021118164
20
77.0121002197266
40
0.0
41
0.0
42
0.0
10
75.0481033325195
20
76.5744018554688
40
0.0
41
0.0
42
0.0
10
75.0113983154297
20
76.5140991210938
40
0.0
41
0.0
42
0.0
210
0.0
220
0.0
230
1.0
0
LWPOLYLINE
5
36
330
1C
100
AcDbEntity
67
0
8
0
62
256
6
ByLayer
370
-1
48
1.0
60
0
100
AcDbPolyline
90
29
70
1
38
0.0
39
0.0
10
75.1727981567383
20
74.0092010498047
40
0.0
41
0.0
42
0.0
10
75.1726989746094
20
73.9857025146484
40
0.0
41
0.0
42
0.0
10
75.4189987182617
20
73.5740966796875
40
0.0
41
0.0
42
0.0
10
75.1716995239258
20
73.5040969848633
40
0.0
41
0.0
42
0.0
10
75.1716003417969
20
73.4990997314453
40
0.0
41
0.0
42
0.0
10
75.4255981445312
20
73.4760971069336
40
0.0
41
0.0
42
0.0
10
75.4877014160156
20
73.4754028320312
40
0.0
41
0.0
42
0.0
10
75.5427017211914
20
73.4290008544922
40
0.0
41
0.0
42
0.0
10
75.8296966552734
20
72.9941024780273
40
0.0
41
0.0
42
0.0
10
75.8426971435547
20
72.9832000732422
40
0.0
41
0.0
42
0.0
10
75.988899230957
20
72.8301010131836
40
0.0
41
0.0
42
0.0
10
76.0142974853516
20
72.8300018310547
40
0.0
41
0.0
42
0.0
10
76.0239028930664
20
72.8356018066406
40
0.0
41
0.0
42
0.0
10
76.4766998291016
20
72.9954986572266
40
0.0
41
0.0
42
0.0
10
76.478401184082
20
73.0065002441406
40
0.0
41
0.0
42
0.0
10
76.4783020019531
20
73.0419998168945
40
0.0
41
0.0
42
0.0
10
76.3434982299805
20
73.5146026611328
40
0.0
41
0.0
42
0.0
10
76.3290023803711
20
73.5754013061523
40
0.0
41
0.0
42
0.0
10
76.1364974975586
20
73.8136978149414
40
0.0
41
0.0
42
0.0
10
76.0094985961914
20
73.9829025268555
40
0.0
41
0.0
42
0.0
10
75.975700378418
20
73.9829025268555
40
0.0
41
0.0
42
0.0
10
75.9756011962891
20
74.0066986083984
40
0.0
41
0.0
42
0.0
10
75.8168029785156
20
74.0828018188477
40
0.0
41
0.0
42
0.0
10
75.5365982055664
20
74.2474975585938
40
0.0
41
0.0
42
0.0
10
75.5074005126953
20
74.2473983764648
40
0.0
41
0.0
42
0.0
10
75.4905014038086
20
74.238899230957
40
0.0
41
0.0
42
0.0
10
75.4281005859375
20
74.1983032226562
40
0.0
41
0.0
42
0.0
10
75.4067001342773
20
74.1775970458984
40
0.0
41
0.0
42
0.0
10
75.1727981567383
20
74.0092010498047
40
0.0
41
0.0
42
0.0
210
0.0
220
0.0
230
1.0
0
LWPOLYLINE
5
37
330
1C
100
AcDbEntity
67
0
8
0
62
256
6
ByLayer
370
-1
48
1.0
60
0
100
AcDbPolyline
90
22
70
1
38
0.0
39
0.0
10
75.4801025390625
20
73.5326995849609
40
0.0
41
0.0
42
0.0
10
75.2021026611328
20
73.9977035522461
40
0.0
41
0.0
42
0.0
10
75.5074005126953
20
74.2186965942383
40
0.0
41
0.0
42
0.0
10
75.6076965332031
20
74.1595993041992
40
0.0
41
0.0
42
0.0
10
75.9430999755859
20
73.9988021850586
40
0.0
41
0.0
42
0.0
10
75.5755996704102
20
73.586799621582
40
0.0
41
0.0
42
0.0
10
75.5755996704102
20
73.5753021240234
40
0.0
41
0.0
42
0.0
10
75.5861968994141
20
73.5754013061523
40
0.0
41
0.0
42
0.0
10
75.9990997314453
20
73.9573974609375
40
0.0
41
0.0
42
0.0
10
76.2599029541016
20
73.6106033325195
40
0.0
41
0.0
42
0.0
10
76.3365020751953
20
73.515998840332
40
0.0
41
0.0
42
0.0
10
76.3432006835938
20
73.4850997924805
40
0.0
41
0.0
42
0.0
10
76.4643020629883
20
73.0602035522461
40
0.0
41
0.0
42
0.0
10
76.4561996459961
20
73.0043029785156
40
0.0
41
0.0
42
0.0
10
76.0222015380859
20
72.8509979248047
40
0.0
41
0.0
42
0.0
10
76.0019989013672
20
72.8395004272461
40
0.0
41
0.0
42
0.0
10
75.8627014160156
20
72.9856033325195
40
0.0
41
0.0
42
0.0
10
75.8392028808594
20
73.0058975219727
40
0.0
41
0.0
42
0.0
10
75.5257034301758
20
73.4807968139648
40
0.0
41
0.0
42
0.0
10
75.5120010375977
20
73.4925003051758
40
0.0
41
0.0
42
0.0
10
75.4815979003906
20
73.4933013916016
40
0.0
41
0.0
42
0.0
10
75.4801025390625
20
73.5326995849609
40
0.0
41
0.0
42
0.0
210
0.0
220
0.0
230
1.0
0
LWPOLYLINE
5
38
330
1C
100
AcDbEntity
67
0
8
0
62
256
6
ByLayer
370
-1
48
1.0
60
0
100
AcDbPolyline
90
17
70
1
38
0.0
39
0.0
10
75.0372009277344
20
76.4984970092773
40
0.0
41
0.0
42
0.0
10
75.0494003295898
20
76.5495986938477
40
0.0
41
0.0
42
0.0
10
75.1420974731445
20
76.9878005981445
40
0.0
41
0.0
42
0.0
10
75.4080963134766
20
77.4272994995117
40
0.0
41
0.0
42
0.0
10
75.4643020629883
20
77.4924011230469
40
0.0
41
0.0
42
0.0
10
75.5008010864258
20
77.5511016845703
40
0.0
41
0.0
42
0.0
10
75.5537033081055
20
77.4960021972656
40
0.0
41
0.0
42
0.0
10
75.5720977783203
20
77.4835968017578
40
0.0
41
0.0
42
0.0
10
75.6138000488281
20
77.4287033081055
40
0.0
41
0.0
42
0.0
10
75.7991027832031
20
76.9872970581055
40
0.0
41
0.0
42
0.0
10
75.7811965942383
20
76.5447006225586
40
0.0
41
0.0
42
0.0
10
75.7811965942383
20
76.5082015991211
40
0.0
41
0.0
42
0.0
10
75.5202026367188
20
76.1453018188477
40
0.0
41
0.0
42
0.0
10
75.5202026367188
20
76.0954971313477
40
0.0
41
0.0
42
0.0
10
75.513801574707
20
76.0924987792969
40
0.0
41
0.0
42
0.0
10
75.1146011352539
20
76.4243011474609
40
0.0
41
0.0
42
0.0
10
75.0372009277344
20
76.4984970092773
40
0.0
41
0.0
42
0.0
210
0.0
220
0.0
230
1.0
0
LWPOLYLINE
5
39
330
1C
100
AcDbEntity
67
0
8
0
62
256
6
ByLayer
370
-1
48
1.0
60
0
100
AcDbPolyline
90
29
70
1
38
0.0
39
0.0
10
75.7929992675781
20
75.9647979736328
40
0.0
41
0.0
42
0.0
10
75.7929992675781
20
75.9572982788086
40
0.0
41
0.0
42
0.0
10
75.9385986328125
20
75.8796997070312
40
0.0
41
0.0
42
0.0
10
75.7637023925781
20
75.5151977539062
40
0.0
41
0.0
42
0.0
10
75.7636032104492
20
75.486198425293
40
0.0
41
0.0
42
0.0
10
75.801399230957
20
75.4281005859375
40
0.0
41
0.0
42
0.0
10
75.8221969604492
20
75.4066009521484
40
0.0
41
0.0
42
0.0
10
75.9906997680664
20
75.1727981567383
40
0.0
41
0.0
42
0.0
10
76.0141983032227
20
75.1726989746094
40
0.0
41
0.0
42
0.0
10
76.4256973266602
20
75.4188003540039
40
0.0
41
0.0
42
0.0
10
76.4957962036133
20
75.1716995239258
40
0.0
41
0.0
42
0.0
10
76.5007019042969
20
75.1716995239258
40
0.0
41
0.0
42
0.0
10
76.5235977172852
20
75.4255981445312
40
0.0
41
0.0
42
0.0
10
76.524299621582
20
75.4878005981445
40
0.0
41
0.0
42
0.0
10
76.5708999633789
20
75.5427017211914
40
0.0
41
0.0
42
0.0
10
77.0056991577148
20
75.8298034667969
40
0.0
41
0.0
42
0.0
10
77.0165023803711
20
75.8426971435547
40
0.0
41
0.0
42
0.0
10
77.1697998046875
20
75.988899230957
40
0.0
41
0.0
42
0.0
10
77.1697006225586
20
76.0142974853516
40
0.0
41
0.0
42
0.0
10
77.1641006469727
20
76.0239028930664
40
0.0
41
0.0
42
0.0
10
77.0043029785156
20
76.4766998291016
40
0.0
41
0.0
42
0.0
10
76.9934005737305
20
76.478401184082
40
0.0
41
0.0
42
0.0
10
76.9579010009766
20
76.478401184082
40
0.0
41
0.0
42
0.0
10
76.4852981567383
20
76.3435974121094
40
0.0
41
0.0
42
0.0
10
76.4244995117188
20
76.3290023803711
40
0.0
41
0.0
42
0.0
10
76.1860961914062
20
76.1365966796875
40
0.0
41
0.0
42
0.0
10
76.0169982910156
20
76.0094985961914
40
0.0
41
0.0
42
0.0
10
76.0169982910156
20
75.9766998291016
40
0.0
41
0.0
42
0.0
10
75.7929992675781
20
75.9647979736328
40
0.0
41
0.0
42
0.0
210
0.0
220
0.0
230
1.0
0
LWPOLYLINE
5
3A
330
1C
100
AcDbEntity
67
0
8
0
62
256
6
ByLayer
370
-1
48
1.0
60
0
100
AcDbPolyline
90
26
70
1
38
0.0
39
0.0
10
75.9785003662109
20
75.9532012939453
40
0.0
41
0.0
42
0.0
10
75.986198425293
20
75.9565963745117
40
0.0
41
0.0
42
0.0
10
76.3687973022461
20
75.6137008666992
40
0.0
41
0.0
42
0.0
10
76.413200378418
20
75.5753021240234
40
0.0
41
0.0
42
0.0
10
76.4244003295898
20
75.5754013061523
40
0.0
41
0.0
42
0.0
10
76.4243011474609
20
75.5860977172852
40
0.0
41
0.0
42
0.0
10
76.0422973632812
20
75.9991989135742
40
0.0
41
0.0
42
0.0
10
76.3891983032227
20
76.2600021362305
40
0.0
41
0.0
42
0.0
10
76.4839019775391
20
76.3365020751953
40
0.0
41
0.0
42
0.0
10
76.5148010253906
20
76.3432006835938
40
0.0
41
0.0
42
0.0
10
76.939697265625
20
76.4643020629883
40
0.0
41
0.0
42
0.0
10
76.9954986572266
20
76.4561996459961
40
0.0
41
0.0
42
0.0
10
77.1486968994141
20
76.022102355957
40
0.0
41
0.0
42
0.0
10
77.1602020263672
20
76.0019989013672
40
0.0
41
0.0
42
0.0
10
77.0141983032227
20
75.8628005981445
40
0.0
41
0.0
42
0.0
10
76.9940032958984
20
75.8392028808594
40
0.0
41
0.0
42
0.0
10
76.5189971923828
20
75.5258026123047
40
0.0
41
0.0
42
0.0
10
76.5072021484375
20
75.5120010375977
40
0.0
41
0.0
42
0.0
10
76.5063018798828
20
75.4797973632812
40
0.0
41
0.0
42
0.0
10
76.4666976928711
20
75.4798965454102
40
0.0
41
0.0
42
0.0
10
76.002197265625
20
75.2020034790039
40
0.0
41
0.0
42
0.0
10
75.8065032958984
20
75.4737014770508
40
0.0
41
0.0
42
0.0
10
75.7985992431641
20
75.4815979003906
40
0.0
41
0.0
42
0.0
10
75.7857971191406
20
75.5014038085938
40
0.0
41
0.0
42
0.0
10
75.978401184082
20
75.9031982421875
40
0.0
41
0.0
42
0.0
10
75.9785003662109
20
75.9532012939453
40
0.0
41
0.0
42
0.0
210
0.0
220
0.0
230
1.0
0
LWPOLYLINE
5
3B
330
1C
100
AcDbEntity
67
0
8
0
62
256
6
ByLayer
370
-1
48
1.0
60
0
100
AcDbPolyline
90
22
70
1
38
0.0
39
0.0
10
76.0446014404297
20
74.21240234375
40
0.0
41
0.0
42
0.0
10
76.0444030761719
20
74.1940994262695
40
0.0
41
0.0
42
0.0
10
76.0501022338867
20
74.1941986083984
40
0.0
41
0.0
42
0.0
10
76.1647033691406
20
74.4401016235352
40
0.0
41
0.0
42
0.0
10
76.4870986938477
20
74.2080993652344
40
0.0
41
0.0
42
0.0
10
76.915397644043
20
74.1909027099609
40
0.0
41
0.0
42
0.0
10
76.9533996582031
20
74.190803527832
40
0.0
41
0.0
42
0.0
10
77.0142974853516
20
74.1996002197266
40
0.0
41
0.0
42
0.0
10
77.4842987060547
20
74.3979034423828
40
0.0
41
0.0
42
0.0
10
77.5
20
74.4100036621094
40
0.0
41
0.0
42
0.0
10
77.5038986206055
20
74.4154968261719
40
0.0
41
0.0
42
0.0
10
77.5798034667969
20
74.488899230957
40
0.0
41
0.0
42
0.0
10
77.5796966552734
20
74.5082015991211
40
0.0
41
0.0
42
0.0
10
77.5074996948242
20
74.5529022216797
40
0.0
41
0.0
42
0.0
10
77.4824981689453
20
74.5745010375977
40
0.0
41
0.0
42
0.0
10
77.0121002197266
20
74.8591003417969
40
0.0
41
0.0
42
0.0
10
76.5744018554688
20
74.9516983032227
40
0.0
41
0.0
42
0.0
10
76.5140991210938
20
74.9885025024414
40
0.0
41
0.0
42
0.0
10
76.488899230957
20
74.9884033203125
40
0.0
41
0.0
42
0.0
10
76.2878036499023
20
74.7779998779297
40
0.0
41
0.0
42
0.0
10
76.0662994384766
20
74.5117034912109
40
0.0
41
0.0
42
0.0
10
76.0446014404297
20
74.21240234375
40
0.0
41
0.0
42
0.0
210
0.0
220
0.0
230
1.0
0
LWPOLYLINE
5
3C
330
1C
100
AcDbEntity
67
0
8
0
62
256
6
ByLayer
370
-1
48
1.0
60
0
100
AcDbPolyline
90
16
70
1
38
0.0
39
0.0
10
76.4244003295898
20
74.8851013183594
40
0.0
41
0.0
42
0.0
10
76.4981994628906
20
74.9623031616211
40
0.0
41
0.0
42
0.0
10
76.9878005981445
20
74.8575973510742
40
0.0
41
0.0
42
0.0
10
77.4272994995117
20
74.5915985107422
40
0.0
41
0.0
42
0.0
10
77.4924011230469
20
74.5354995727539
40
0.0
41
0.0
42
0.0
10
77.5512008666992
20
74.4991989135742
40
0.0
41
0.0
42
0.0
10
77.4961013793945
20
74.4459991455078
40
0.0
41
0.0
42
0.0
10
77.4835968017578
20
74.4276962280273
40
0.0
41
0.0
42
0.0
10
77.4288024902344
20
74.3859024047852
40
0.0
41
0.0
42
0.0
10
76.9856033325195
20
74.1997985839844
40
0.0
41
0.0
42
0.0
10
76.9647979736328
20
74.1968994140625
40
0.0
41
0.0
42
0.0
10
76.5128021240234
20
74.215202331543
40
0.0
41
0.0
42
0.0
10
76.1455993652344
20
74.4794006347656
40
0.0
41
0.0
42
0.0
10
76.0951995849609
20
74.4803009033203
40
0.0
41
0.0
42
0.0
10
76.0924987792969
20
74.4860992431641
40
0.0
41
0.0
42
0.0
10
76.4244003295898
20
74.8851013183594
40
0.0
41
0.0
42
0.0
210
0.0
220
0.0
230
1.0
0
LWPOLYLINE
5
3D
330
1C
100
AcDbEntity
67
0
8
0
62
256
6
ByLayer
370
-1
48
1.0
60
0
100
AcDbPolyline
90
52
70
1
38
0.0
39
0.0
10
78.6710968017578
20
82.0100021362305
40
0.0
41
0.0
42
0.0
10
78.6790008544922
20
81.9860000610352
40
0.0
41
0.0
42
0.0
10
78.8095016479492
20
81.5186996459961
40
0.0
41
0.0
42
0.0
10
78.8230972290039
20
81.4878005981445
40
0.0
41
0.0
42
0.0
10
78.9801025390625
20
81.0542984008789
40
0.0
41
0.0
42
0.0
10
78.9981002807617
20
81.019401550293
40
0.0
41
0.0
42
0.0
10
79.0139999389648
20
80.9947967529297
40
0.0
41
0.0
42
0.0
10
79.4915008544922
20
80.66259765625
40
0.0
41
0.0
42
0.0
10
79.5113983154297
20
80.6501007080078
40
0.0
41
0.0
42
0.0
10
79.9804000854492
20
80.6307983398438
40
0.0
41
0.0
42
0.0
10
80.019401550293
20
80.6306991577148
40
0.0
41
0.0
42
0.0
10
80.464599609375
20
80.6549987792969
40
0.0
41
0.0
42
0.0
10
80.4822006225586
20
80.6511993408203
40
0.0
41
0.0
42
0.0
10
80.5183029174805
20
80.6512985229492
40
0.0
41
0.0
42
0.0
10
80.9829025268555
20
80.7253036499023
40
0.0
41
0.0
42
0.0
10
81.0150985717773
20
80.7251968383789
40
0.0
41
0.0
42
0.0
10
81.4709014892578
20
80.9487991333008
40
0.0
41
0.0
42
0.0
10
81.5139007568359
20
80.953498840332
40
0.0
41
0.0
42
0.0
10
81.5386962890625
20
80.9660034179688
40
0.0
41
0.0
42
0.0
10
81.5617980957031
20
80.991096496582
40
0.0
41
0.0
42
0.0
10
81.7199020385742
20
81.4241027832031
40
0.0
41
0.0
42
0.0
10
81.7574996948242
20
81.4858016967773
40
0.0
41
0.0
42
0.0
10
81.7572021484375
20
81.595100402832
40
0.0
41
0.0
42
0.0
10
81.7408981323242
20
82.0167999267578
40
0.0
41
0.0
42
0.0
10
81.7245025634766
20
82.0792999267578
40
0.0
41
0.0
42
0.0
10
81.5978012084961
20
82.5120010375977
40
0.0
41
0.0
42
0.0
10
81.5645980834961
20
82.5744018554688
40
0.0
41
0.0
42
0.0
10
81.540901184082
20
82.6119003295898
40
0.0
41
0.0
42
0.0
10
81.5018005371094
20
82.6886978149414
40
0.0
41
0.0
42
0.0
10
81.2794036865234
20
83.0070037841797
40
0.0
41
0.0
42
0.0
10
81.2596969604492
20
83.0297012329102
40
0.0
41
0.0
42
0.0
10
81.0715026855469
20
83.2085037231445
40
0.0
41
0.0
42
0.0
10
81.0092010498047
20
83.2528991699219
40
0.0
41
0.0
42
0.0
10
80.5615997314453
20
83.4711990356445
40
0.0
41
0.0
42
0.0
10
80.5130004882812
20
83.4962997436523
40
0.0
41
0.0
42
0.0
10
80.3723983764648
20
83.5223999023438
40
0.0
41
0.0
42
0.0
10
80.0829010009766
20
83.5708999633789
40
0.0
41
0.0
42
0.0
10
80.0195999145508
20
83.572998046875
40
0.0
41
0.0
42
0.0
10
79.9819030761719
20
83.5728988647461
40
0.0
41
0.0
42
0.0
10
79.9175033569336
20
83.5607986450195
40
0.0
41
0.0
42
0.0
10
79.4850006103516
20
83.5353012084961
40
0.0
41
0.0
42
0.0
10
79.4568023681641
20
83.5229034423828
40
0.0
41
0.0
42
0.0
10
79.3691024780273
20
83.5
40
0.0
41
0.0
42
0.0
10
79.0245971679688
20
83.3541030883789
40
0.0
41
0.0
42
0.0
10
79.0068969726562
20
83.342903137207
40
0.0
41
0.0
42
0.0
10
78.9973983764648
20
83.3328018188477
40
0.0
41
0.0
42
0.0
10
78.9919967651367
20
83.3217010498047
40
0.0
41
0.0
42
0.0
10
78.6673965454102
20
83.0095977783203
40
0.0
41
0.0
42
0.0
10
78.589599609375
20
82.5431976318359
40
0.0
41
0.0
42
0.0
10
78.5895004272461
20
82.5056991577148
40
0.0
41
0.0
42
0.0
10
78.5911026000977
20
82.4823989868164
40
0.0
41
0.0
42
0.0
10
78.6710968017578
20
82.0100021362305
40
0.0
41
0.0
42
0.0
210
0.0
220
0.0
230
1.0
0
LWPOLYLINE
5
3E
330
1C
100
AcDbEntity
67
0
8
0
62
256
6
ByLayer
370
-1
48
1.0
60
0
100
AcDbPolyline
90
47
70
1
38
0.0
39
0.0
10
78.9890975952148
20
83.2802963256836
40
0.0
41
0.0
42
0.0
10
79.0025024414062
20
83.3074035644531
40
0.0
41
0.0
42
0.0
10
79.0357971191406
20
83.3430023193359
40
0.0
41
0.0
42
0.0
10
79.4059982299805
20
83.4999008178711
40
0.0
41
0.0
42
0.0
10
79.5014038085938
20
83.5248031616211
40
0.0
41
0.0
42
0.0
10
79.5149993896484
20
83.5307006835938
40
0.0
41
0.0
42
0.0
10
79.9924011230469
20
83.5589981079102
40
0.0
41
0.0
42
0.0
10
80.0103988647461
20
83.5624008178711
40
0.0
41
0.0
42
0.0
10
80.3264999389648
20
83.5094985961914
40
0.0
41
0.0
42
0.0
10
80.4869003295898
20
83.4777984619141
40
0.0
41
0.0
42
0.0
10
80.8167037963867
20
83.3071975708008
40
0.0
41
0.0
42
0.0
10
80.9942016601562
20
83.2201995849609
40
0.0
41
0.0
42
0.0
10
81.0184020996094
20
83.2026977539062
40
0.0
41
0.0
42
0.0
10
81.2274017333984
20
83.0037994384766
40
0.0
41
0.0
42
0.0
10
81.2370986938477
20
82.9928970336914
40
0.0
41
0.0
42
0.0
10
81.4980010986328
20
82.619499206543
40
0.0
41
0.0
42
0.0
10
81.5439987182617
20
82.529296875
40
0.0
41
0.0
42
0.0
10
81.5671997070312
20
82.4880981445312
40
0.0
41
0.0
42
0.0
10
81.7113037109375
20
81.9956970214844
40
0.0
41
0.0
42
0.0
10
81.7144012451172
20
81.9828033447266
40
0.0
41
0.0
42
0.0
10
81.7325973510742
20
81.5139007568359
40
0.0
41
0.0
42
0.0
10
81.7143020629883
20
81.4822998046875
40
0.0
41
0.0
42
0.0
10
81.5416030883789
20
81.0087966918945
40
0.0
41
0.0
42
0.0
10
81.5048980712891
20
80.9689025878906
40
0.0
41
0.0
42
0.0
10
81.4860000610352
20
80.959602355957
40
0.0
41
0.0
42
0.0
10
81.4589996337891
20
80.9564971923828
40
0.0
41
0.0
42
0.0
10
81.4225006103516
20
80.9461975097656
40
0.0
41
0.0
42
0.0
10
80.9889984130859
20
80.7335968017578
40
0.0
41
0.0
42
0.0
10
80.9542007446289
20
80.7360000610352
40
0.0
41
0.0
42
0.0
10
80.9166030883789
20
80.7359008789062
40
0.0
41
0.0
42
0.0
10
80.5025024414062
20
80.6698989868164
40
0.0
41
0.0
42
0.0
10
80.4526977539062
20
80.6809997558594
40
0.0
41
0.0
42
0.0
10
80.4154968261719
20
80.6809005737305
40
0.0
41
0.0
42
0.0
10
79.9972991943359
20
80.6579971313477
40
0.0
41
0.0
42
0.0
10
79.578498840332
20
80.6753005981445
40
0.0
41
0.0
42
0.0
10
79.50830078125
20
80.7193984985352
40
0.0
41
0.0
42
0.0
10
79.0977020263672
20
81.004997253418
40
0.0
41
0.0
42
0.0
10
79.0017013549805
20
81.1529006958008
40
0.0
41
0.0
42
0.0
10
78.986198425293
20
81.1829986572266
40
0.0
41
0.0
42
0.0
10
78.8669967651367
20
81.5121002197266
40
0.0
41
0.0
42
0.0
10
78.8302993774414
20
81.595100402832
40
0.0
41
0.0
42
0.0
10
78.7135009765625
20
82.0139007568359
40
0.0
41
0.0
42
0.0
10
78.6919021606445
20
82.0799026489258
40
0.0
41
0.0
42
0.0
10
78.6177978515625
20
82.5175018310547
40
0.0
41
0.0
42
0.0
10
78.6151962280273
20
82.5572967529297
40
0.0
41
0.0
42
0.0
10
78.6875
20
82.9903030395508
40
0.0
41
0.0
42
0.0
10
78.9890975952148
20
83.2802963256836
40
0.0
41
0.0
42
0.0
210
0.0
220
0.0
230
1.0
0
LWPOLYLINE
5
3F
330
1C
100
AcDbEntity
67
0
8
0
62
256
6
ByLayer
370
-1
48
1.0
60
0
100
AcDbPolyline
90
51
70
1
38
0.0
39
0.0
10
80.6550979614258
20
69.5353012084961
40
0.0
41
0.0
42
0.0
10
80.6511993408203
20
69.5177001953125
40
0.0
41
0.0
42
0.0
10
80.6512985229492
20
69.4815979003906
40
0.0
41
0.0
42
0.0
10
80.7253036499023
20
69.0168991088867
40
0.0
41
0.0
42
0.0
10
80.7251968383789
20
68.9848022460938
40
0.0
41
0.0
42
0.0
10
80.9486999511719
20
68.5289993286133
40
0.0
41
0.0
42
0.0
10
80.953498840332
20
68.4859008789062
40
0.0
41
0.0
42
0.0
10
80.9660034179688
20
68.4609985351562
40
0.0
41
0.0
42
0.0
10
80.991096496582
20
68.4378967285156
40
0.0
41
0.0
42
0.0
10
81.4241027832031
20
68.2798004150391
40
0.0
41
0.0
42
0.0
10
81.4858016967773
20
68.2422027587891
40
0.0
41
0.0
42
0.0
10
81.595100402832
20
68.2425003051758
40
0.0
41
0.0
42
0.0
10
82.0168991088867
20
68.258903503418
40
0.0
41
0.0
42
0.0
10
82.0792999267578
20
68.2751998901367
40
0.0
41
0.0
42
0.0
10
82.5120010375977
20
68.4019012451172
40
0.0
41
0.0
42
0.0
10
82.5744018554688
20
68.4350967407227
40
0.0
41
0.0
42
0.0
10
82.6119003295898
20
68.4588012695312
40
0.0
41
0.0
42
0.0
10
82.6886978149414
20
68.4980010986328
40
0.0
41
0.0
42
0.0
10
83.0062026977539
20
68.7198028564453
40
0.0
41
0.0
42
0.0
10
83.1701965332031
20
68.8923034667969
40
0.0
41
0.0
42
0.0
10
83.2089004516602
20
68.9288024902344
40
0.0
41
0.0
42
0.0
10
83.2528991699219
20
68.9906997680664
40
0.0
41
0.0
42
0.0
10
83.4712982177734
20
69.4382019042969
40
0.0
41
0.0
42
0.0
10
83.4962997436523
20
69.4868011474609
40
0.0
41
0.0
42
0.0
10
83.5223999023438
20
69.6275024414062
40
0.0
41
0.0
42
0.0
10
83.5708999633789
20
69.9169006347656
40
0.0
41
0.0
42
0.0
10
83.5727996826172
20
70.0182037353516
40
0.0
41
0.0
42
0.0
10
83.5607986450195
20
70.0823974609375
40
0.0
41
0.0
42
0.0
10
83.5352020263672
20
70.5149002075195
40
0.0
41
0.0
42
0.0
10
83.5229034423828
20
70.5429992675781
40
0.0
41
0.0
42
0.0
10
83.5
20
70.6305999755859
40
0.0
41
0.0
42
0.0
10
83.3539962768555
20
70.9751968383789
40
0.0
41
0.0
42
0.0
10
83.3427963256836
20
70.9928970336914
40
0.0
41
0.0
42
0.0
10
83.3328018188477
20
71.0022964477539
40
0.0
41
0.0
42
0.0
10
83.3217010498047
20
71.007698059082
40
0.0
41
0.0
42
0.0
10
83.0110015869141
20
71.3310012817383
40
0.0
41
0.0
42
0.0
10
82.9832992553711
20
71.3309020996094
40
0.0
41
0.0
42
0.0
10
82.5182037353516
20
71.4085998535156
40
0.0
41
0.0
42
0.0
10
82.4816970825195
20
71.4085006713867
40
0.0
41
0.0
42
0.0
10
82.0100021362305
20
71.3285980224609
40
0.0
41
0.0
42
0.0
10
81.9860000610352
20
71.32080078125
40
0.0
41
0.0
42
0.0
10
81.5186996459961
20
71.1902008056641
40
0.0
41
0.0
42
0.0
10
81.4878005981445
20
71.1765975952148
40
0.0
41
0.0
42
0.0
10
81.0543975830078
20
71.0195007324219
40
0.0
41
0.0
42
0.0
10
81.019401550293
20
71.0017013549805
40
0.0
41
0.0
42
0.0
10
80.9947967529297
20
70.9858016967773
40
0.0
41
0.0
42
0.0
10
80.66259765625
20
70.5083999633789
40
0.0
41
0.0
42
0.0
10
80.6501007080078
20
70.4885025024414
40
0.0
41
0.0
42
0.0
10
80.6307983398438
20
70.0195007324219
40
0.0
41
0.0
42
0.0
10
80.6306991577148
20
69.9804992675781
40
0.0
41
0.0
42
0.0
10
80.6550979614258
20
69.5353012084961
40
0.0
41
0.0
42
0.0
210
0.0
220
0.0
230
1.0
0
LWPOLYLINE
5
40
330
1C
100
AcDbEntity
67
0
8
0
62
256
6
ByLayer
370
-1
48
1.0
60
0
100
AcDbPolyline
90
47
70
1
38
0.0
39
0.0
10
80.7193984985352
20
70.4915008544922
40
0.0
41
0.0
42
0.0
10
81.004997253418
20
70.9020004272461
40
0.0
41
0.0
42
0.0
10
81.1529006958008
20
70.9981994628906
40
0.0
41
0.0
42
0.0
10
81.1830978393555
20
71.0134963989258
40
0.0
41
0.0
42
0.0
10
81.5121002197266
20
71.1328964233398
40
0.0
41
0.0
42
0.0
10
81.5951995849609
20
71.1694030761719
40
0.0
41
0.0
42
0.0
10
82.0139007568359
20
71.2862014770508
40
0.0
41
0.0
42
0.0
10
82.0799026489258
20
71.3078002929688
40
0.0
41
0.0
42
0.0
10
82.5000991821289
20
71.3788986206055
40
0.0
41
0.0
42
0.0
10
82.9167022705078
20
71.3096008300781
40
0.0
41
0.0
42
0.0
10
82.9542999267578
20
71.3095016479492
40
0.0
41
0.0
42
0.0
10
82.9906997680664
20
71.311897277832
40
0.0
41
0.0
42
0.0
10
83.2802963256836
20
71.0105972290039
40
0.0
41
0.0
42
0.0
10
83.3074035644531
20
70.9973983764648
40
0.0
41
0.0
42
0.0
10
83.3430023193359
20
70.963996887207
40
0.0
41
0.0
42
0.0
10
83.4999008178711
20
70.5938034057617
40
0.0
41
0.0
42
0.0
10
83.5246963500977
20
70.4983978271484
40
0.0
41
0.0
42
0.0
10
83.5307006835938
20
70.4850006103516
40
0.0
41
0.0
42
0.0
10
83.5589981079102
20
70.0074996948242
40
0.0
41
0.0
42
0.0
10
83.5624008178711
20
69.9894027709961
40
0.0
41
0.0
42
0.0
10
83.5094985961914
20
69.6733016967773
40
0.0
41
0.0
42
0.0
10
83.477897644043
20
69.5130004882812
40
0.0
41
0.0
42
0.0
10
83.3072967529297
20
69.1830978393555
40
0.0
41
0.0
42
0.0
10
83.2225036621094
20
69.0092010498047
40
0.0
41
0.0
42
0.0
10
83.2024993896484
20
68.9811019897461
40
0.0
41
0.0
42
0.0
10
83.1860961914062
20
68.9655990600586
40
0.0
41
0.0
42
0.0
10
82.9936981201172
20
68.763298034668
40
0.0
41
0.0
42
0.0
10
82.619499206543
20
68.5018997192383
40
0.0
41
0.0
42
0.0
10
82.529296875
20
68.4559020996094
40
0.0
41
0.0
42
0.0
10
82.4881973266602
20
68.432502746582
40
0.0
41
0.0
42
0.0
10
81.9832992553711
20
68.285400390625
40
0.0
41
0.0
42
0.0
10
81.5139007568359
20
68.2670974731445
40
0.0
41
0.0
42
0.0
10
81.4822998046875
20
68.285400390625
40
0.0
41
0.0
42
0.0
10
81.0087966918945
20
68.4581985473633
40
0.0
41
0.0
42
0.0
10
80.9689025878906
20
68.4949035644531
40
0.0
41
0.0
42
0.0
10
80.959602355957
20
68.5139999389648
40
0.0
41
0.0
42
0.0
10
80.9564971923828
20
68.540901184082
40
0.0
41
0.0
42
0.0
10
80.9461975097656
20
68.5774002075195
40
0.0
41
0.0
42
0.0
10
80.7335968017578
20
69.0109024047852
40
0.0
41
0.0
42
0.0
10
80.7360000610352
20
69.0457000732422
40
0.0
41
0.0
42
0.0
10
80.7359008789062
20
69.0832977294922
40
0.0
41
0.0
42
0.0
10
80.6698989868164
20
69.4973983764648
40
0.0
41
0.0
42
0.0
10
80.6809997558594
20
69.5472030639648
40
0.0
41
0.0
42
0.0
10
80.6809005737305
20
69.5843963623047
40
0.0
41
0.0
42
0.0
10
80.6579971313477
20
70.0026016235352
40
0.0
41
0.0
42
0.0
10
80.6753005981445
20
70.4214019775391
40
0.0
41
0.0
42
0.0
10
80.7193984985352
20
70.4915008544922
40
0.0
41
0.0
42
0.0
210
0.0
220
0.0
230
1.0
0
LWPOLYLINE
5
41
330
1C
100
AcDbEntity
67
0
8
0
62
256
6
ByLayer
370
-1
48
1.0
60
0
100
AcDbPolyline
90
84
70
1
38
0.0
39
0.0
10
82.4412002563477
20
75.4945983886719
40
0.0
41
0.0
42
0.0
10
82.4944000244141
20
75.4552993774414
40
0.0
41
0.0
42
0.0
10
82.5201034545898
20
75.4246978759766
40
0.0
41
0.0
42
0.0
10
82.9773025512695
20
75.0099029541016
40
0.0
41
0.0
42
0.0
10
83.0179977416992
20
74.9681015014648
40
0.0
41
0.0
42
0.0
10
83.4865036010742
20
74.6793975830078
40
0.0
41
0.0
42
0.0
10
83.9296035766602
20
74.6523971557617
40
0.0
41
0.0
42
0.0
10
83.9853973388672
20
74.621696472168
40
0.0
41
0.0
42
0.0
10
84.0177993774414
20
74.6215972900391
40
0.0
41
0.0
42
0.0
10
84.0767974853516
20
74.6340026855469
40
0.0
41
0.0
42
0.0
10
84.5067977905273
20
74.9141006469727
40
0.0
41
0.0
42
0.0
10
84.5635986328125
20
74.9693984985352
40
0.0
41
0.0
42
0.0
10
84.5826034545898
20
74.9924011230469
40
0.0
41
0.0
42
0.0
10
84.8663024902344
20
75.4260025024414
40
0.0
41
0.0
42
0.0
10
84.9029006958008
20
75.4889984130859
40
0.0
41
0.0
42
0.0
10
84.9990005493164
20
75.7472991943359
40
0.0
41
0.0
42
0.0
10
84.9990005493164
20
75.8477020263672
40
0.0
41
0.0
42
0.0
10
84.994499206543
20
75.8477020263672
40
0.0
41
0.0
42
0.0
10
84.8694000244141
20
75.5110015869141
40
0.0
41
0.0
42
0.0
10
84.8536987304688
20
75.484001159668
40
0.0
41
0.0
42
0.0
10
84.5419006347656
20
75.0074996948242
40
0.0
41
0.0
42
0.0
10
84.5180969238281
20
74.9785995483398
40
0.0
41
0.0
42
0.0
10
84.4931030273438
20
74.9542999267578
40
0.0
41
0.0
42
0.0
10
84.00830078125
20
74.6384963989258
40
0.0
41
0.0
42
0.0
10
83.9878997802734
20
74.6496963500977
40
0.0
41
0.0
42
0.0
10
83.9525985717773
20
74.6557006835938
40
0.0
41
0.0
42
0.0
10
83.5133972167969
20
74.6822967529297
40
0.0
41
0.0
42
0.0
10
83.0716018676758
20
74.9546966552734
40
0.0
41
0.0
42
0.0
10
83.0224990844727
20
75.0056991577148
40
0.0
41
0.0
42
0.0
10
82.9890975952148
20
75.0438995361328
40
0.0
41
0.0
42
0.0
10
82.5692977905273
20
75.4247970581055
40
0.0
41
0.0
42
0.0
10
82.5487976074219
20
75.4518966674805
40
0.0
41
0.0
42
0.0
10
82.5055999755859
20
75.5009994506836
40
0.0
41
0.0
42
0.0
10
82.5000991821289
20
75.5050964355469
40
0.0
41
0.0
42
0.0
10
82.4339981079102
20
75.6026000976562
40
0.0
41
0.0
42
0.0
10
82.1270980834961
20
76.0122985839844
40
0.0
41
0.0
42
0.0
10
82.1280975341797
20
76.0774002075195
40
0.0
41
0.0
42
0.0
10
82.1507034301758
20
76.4850006103516
40
0.0
41
0.0
42
0.0
10
82.2400970458984
20
76.6867980957031
40
0.0
41
0.0
42
0.0
10
82.3873977661133
20
76.9899978637695
40
0.0
41
0.0
42
0.0
10
82.5022964477539
20
77.1789016723633
40
0.0
41
0.0
42
0.0
10
82.5799026489258
20
77.2929992675781
40
0.0
41
0.0
42
0.0
10
82.6551971435547
20
77.4248962402344
40
0.0
41
0.0
42
0.0
10
82.6887969970703
20
77.4916000366211
40
0.0
41
0.0
42
0.0
10
83.0072021484375
20
77.8739013671875
40
0.0
41
0.0
42
0.0
10
83.120002746582
20
77.9201965332031
40
0.0
41
0.0
42
0.0
10
83.201301574707
20
77.9983978271484
40
0.0
41
0.0
42
0.0
10
83.5158004760742
20
78.0995025634766
40
0.0
41
0.0
42
0.0
10
83.5484008789062
20
78.1022033691406
40
0.0
41
0.0
42
0.0
10
83.9876022338867
20
77.9770965576172
40
0.0
41
0.0
42
0.0
10
84.0160980224609
20
77.9627990722656
40
0.0
41
0.0
42
0.0
10
84.4937973022461
20
77.6016998291016
40
0.0
41
0.0
42
0.0
10
84.5856018066406
20
77.50830078125
40
0.0
41
0.0
42
0.0
10
84.6023025512695
20
77.493896484375
40
0.0
41
0.0
42
0.0
10
84.91259765625
20
77.0169982910156
40
0.0
41
0.0
42
0.0
10
84.9335021972656
20
76.989501953125
40
0.0
41
0.0
42
0.0
10
84.9957962036133
20
76.7734985351562
40
0.0
41
0.0
42
0.0
10
84.9990005493164
20
76.7734985351562
40
0.0
41
0.0
42
0.0
10
84.9989013671875
20
76.861701965332
40
0.0
41
0.0
42
0.0
10
84.9559020996094
20
77.0109024047852
40
0.0
41
0.0
42
0.0
10
84.9348983764648
20
77.0416030883789
40
0.0
41
0.0
42
0.0
10
84.9087982177734
20
77.0723037719727
40
0.0
41
0.0
42
0.0
10
84.6266021728516
20
77.5059967041016
40
0.0
41
0.0
42
0.0
10
84.5891036987305
20
77.5383987426758
40
0.0
41
0.0
42
0.0
10
84.5059967041016
20
77.6231002807617
40
0.0
41
0.0
42
0.0
10
84.0737991333008
20
77.9497985839844
40
0.0
41
0.0
42
0.0
10
84.0121994018555
20
77.9809036254883
40
0.0
41
0.0
42
0.0
10
83.5798034667969
20
78.1037979125977
40
0.0
41
0.0
42
0.0
10
83.5427017211914
20
78.1119003295898
40
0.0
41
0.0
42
0.0
10
83.5058975219727
20
78.1118011474609
40
0.0
41
0.0
42
0.0
10
83.4841003417969
20
78.1099014282227
40
0.0
41
0.0
42
0.0
10
83.1464004516602
20
78.0014038085938
40
0.0
41
0.0
42
0.0
10
83.1158981323242
20
77.9720993041992
40
0.0
41
0.0
42
0.0
10
82.9927978515625
20
77.9216003417969
40
0.0
41
0.0
42
0.0
10
82.6483993530273
20
77.5081024169922
40
0.0
41
0.0
42
0.0
10
82.6071014404297
20
77.4328002929688
40
0.0
41
0.0
42
0.0
10
82.4975967407227
20
77.2720031738281
40
0.0
41
0.0
42
0.0
10
82.3380966186523
20
77.0099029541016
40
0.0
41
0.0
42
0.0
10
82.1328964233398
20
76.5871963500977
40
0.0
41
0.0
42
0.0
10
82.1008987426758
20
76.5149993896484
40
0.0
41
0.0
42
0.0
10
82.0753021240234
20
76.056396484375
40
0.0
41
0.0
42
0.0
10
82.0747985839844
20
75.9869003295898
40
0.0
41
0.0
42
0.0
10
82.4182968139648
20
75.5286026000977
40
0.0
41
0.0
42
0.0
10
82.4412002563477
20
75.4945983886719
40
0.0
41
0.0
42
0.0
210
0.0
220
0.0
230
1.0
0
LWPOLYLINE
5
42
330
1C
100
AcDbEntity
67
0
8
0
62
256
6
ByLayer
370
-1
48
1.0
60
0
100
AcDbPolyline
90
26
70
1
38
0.0
39
0.0
10
82.6093978881836
20
84.9990005493164
40
0.0
41
0.0
42
0.0
10
82.6093978881836
20
84.9909973144531
40
0.0
41
0.0
42
0.0
10
82.6585998535156
20
84.9577026367188
40
0.0
41
0.0
42
0.0
10
82.9896011352539
20
84.7664031982422
40
0.0
41
0.0
42
0.0
10
83.424201965332
20
84.5634994506836
40
0.0
41
0.0
42
0.0
10
83.4888000488281
20
84.5300979614258
40
0.0
41
0.0
42
0.0
10
83.5823974609375
20
84.4905014038086
40
0.0
41
0.0
42
0.0
10
83.9229965209961
20
84.3563003540039
40
0.0
41
0.0
42
0.0
10
83.9877014160156
20
84.3274993896484
40
0.0
41
0.0
42
0.0
10
84.4225997924805
20
84.174201965332
40
0.0
41
0.0
42
0.0
10
84.4873962402344
20
84.1463012695312
40
0.0
41
0.0
42
0.0
10
84.9315032958984
20
83.9990005493164
40
0.0
41
0.0
42
0.0
10
84.984001159668
20
83.9781036376953
40
0.0
41
0.0
42
0.0
10
84.9990005493164
20
83.9781036376953
40
0.0
41
0.0
42
0.0
10
84.9989013671875
20
83.9987030029297
40
0.0
41
0.0
42
0.0
10
84.5123977661133
20
84.1611022949219
40
0.0
41
0.0
42
0.0
10
84.4872970581055
20
84.1718978881836
40
0.0
41
0.0
42
0.0
10
84.0121994018555
20
84.3394012451172
40
0.0
41
0.0
42
0.0
10
83.9868011474609
20
84.3506011962891
40
0.0
41
0.0
42
0.0
10
83.6150970458984
20
84.4970016479492
40
0.0
41
0.0
42
0.0
10
83.5110015869141
20
84.5410003662109
40
0.0
41
0.0
42
0.0
10
83.4856033325195
20
84.5541000366211
40
0.0
41
0.0
42
0.0
10
83.0102005004883
20
84.7761001586914
40
0.0
41
0.0
42
0.0
10
82.6457977294922
20
84.986701965332
40
0.0
41
0.0
42
0.0
10
82.627799987793
20
84.9990005493164
40
0.0
41
0.0
42
0.0
10
82.6093978881836
20
84.9990005493164
40
0.0
41
0.0
42
0.0
210
0.0
220
0.0
230
1.0
0
LWPOLYLINE
5
43
330
1C
100
AcDbEntity
67
0
8
0
62
256
6
ByLayer
370
-1
48
1.0
60
0
100
AcDbPolyline
90
26
70
1
38
0.0
39
0.0
10
83.9987030029297
20
65.0009994506836
40
0.0
41
0.0
42
0.0
10
84.1611022949219
20
65.4875030517578
40
0.0
41
0.0
42
0.0
10
84.1718978881836
20
65.5126037597656
40
0.0
41
0.0
42
0.0
10
84.3394012451172
20
65.9877014160156
40
0.0
41
0.0
42
0.0
10
84.350700378418
20
66.0130996704102
40
0.0
41
0.0
42
0.0
10
84.4971008300781
20
66.3846969604492
40
0.0
41
0.0
42
0.0
10
84.5410003662109
20
66.488899230957
40
0.0
41
0.0
42
0.0
10
84.55419921875
20
66.5142974853516
40
0.0
41
0.0
42
0.0
10
84.7761001586914
20
66.9897003173828
40
0.0
41
0.0
42
0.0
10
84.9868011474609
20
67.3539962768555
40
0.0
41
0.0
42
0.0
10
84.9990005493164
20
67.3720016479492
40
0.0
41
0.0
42
0.0
10
84.9990005493164
20
67.3902969360352
40
0.0
41
0.0
42
0.0
10
84.9909973144531
20
67.3902969360352
40
0.0
41
0.0
42
0.0
10
84.9577026367188
20
67.3412017822266
40
0.0
41
0.0
42
0.0
10
84.7665023803711
20
67.0102005004883
40
0.0
41
0.0
42
0.0
10
84.5635986328125
20
66.5756988525391
40
0.0
41
0.0
42
0.0
10
84.5300979614258
20
66.5110015869141
40
0.0
41
0.0
42
0.0
10
84.4906005859375
20
66.4175033569336
40
0.0
41
0.0
42
0.0
10
84.3563995361328
20
66.0767974853516
40
0.0
41
0.0
42
0.0
10
84.3275985717773
20
66.0121994018555
40
0.0
41
0.0
42
0.0
10
84.1743011474609
20
65.5773010253906
40
0.0
41
0.0
42
0.0
10
84.1463012695312
20
65.5124969482422
40
0.0
41
0.0
42
0.0
10
83.9990005493164
20
65.0681991577148
40
0.0
41
0.0
42
0.0
10
83.9781036376953
20
65.0158996582031
40
0.0
41
0.0
42
0.0
10
83.9781036376953
20
65.0009994506836
40
0.0
41
0.0
42
0.0
10
83.9987030029297
20
65.0009994506836
40
0.0
41
0.0
42
0.0
210
0.0
220
0.0
230
1.0
0
VIEWPORT
5
48
330
44
100
AcDbEntity
67
1
8
0
62
256
6
ByLayer
370
-1
48
1.0
60
0
100
AcDbViewport
10
0.0
20
0.0
30
0.0
40
297.0
41
210.0
68
1
69
1
12
50.0
22
100.0
13
0.0
23
0.0
14
10.0
24
10.0
15
10.0
25
10.0
16
0.0
26
0.0
36
1.0
17
0.0
27
0.0
37
0.0
42
50.0
43
0.0
44
0.0
45
250.0
50
0.0
51
0.0
72
1000
90
819232
110
0.0
120
0.0
130
0.0
111
1.0
121
0.0
131
0.0
112
0.0
122
1.0
132
0.0
0
ENDSEC
0
SECTION
2
OBJECTS
0
DICTIONARY
5
4E
330
0
100
AcDbDictionary
280
1
281
1
3
ACAD_GROUP
350
12
3
ACAD_LAYOUT
350
47
3
ACAD_DGNDEFINITIONS
350
F
3
ACAD_DWFDEFINITIONS
350
10
3
ACAD_PDFDEFINITIONS
350
11
3
ACAD_MLINESTYLE
350
B
3
ACAD_IMAGE_DICT
350
E
3
ACAD_IMAGE_VARS
350
21
0
DICTIONARY
5
12
330
4E
100
AcDbDictionary
280
1
281
1
0
DICTIONARY
5
47
330
4E
100
AcDbDictionary
280
1
281
1
3
Model
350
20
3
Layout1
350
49
0
DICTIONARY
5
F
330
4E
100
AcDbDictionary
280
1
281
1
0
DICTIONARY
5
10
330
4E
100
AcDbDictionary
280
1
281
1
0
DICTIONARY
5
11
330
4E
100
AcDbDictionary
280
1
281
1
0
DICTIONARY
5
B
330
4E
100
AcDbDictionary
280
1
281
1
3
Standard
350
1B
0
DICTIONARY
5
E
330
4E
100
AcDbDictionary
280
1
281
1
0
DICTIONARY
5
6
330
5
100
AcDbDictionary
280
1
281
1
3
ACAD_LAYERSTATES
360
4F
0
DICTIONARY
5
4F
330
6
100
AcDbDictionary
280
1
281
1
0
LAYOUT
5
20
330
47
100
AcDbPlotSettings
1

2
none_device
4
ISO_A4_(210.00_x_297.00_MM)
6

40
7.5
41
20.0
42
7.5
43
20.0
44
210.0
45
297.0
46
0.0
47
0.0
48
0.0
49
0.0
140
0.0
141
0.0
142
1.0
143
1.0
70
11952
72
1
73
1
74
1
7

75
0
76
0
77
2
78
300
147
1.0
148
0.0
149
0.0
100
AcDbLayout
1
Model
71
0
10
-20.0
20
-7.5
11
277.0
21
202.5
12
0.0
22
0.0
32
0.0
14
25.7
24
19.5
34
0.0
15
231.3
25
175.5
35
0.0
146
0.0
13
0.0
23
0.0
33
0.0
16
1.0
26
0.0
36
0.0
17
0.0
27
1.0
37
0.0
76
0
330
1C
0
LAYOUT
5
49
330
47
100
AcDbPlotSettings
1

2
none_device
4
ISO_A4_(210.00_x_297.00_MM)
6

40
7.5
41
20.0
42
7.5
43
20.0
44
210.0
45
297.0
46
0.0
47
0.0
48
0.0
49
0.0
140
0.0
141
0.0
142
1.0
143
1.0
70
688
72
1
73
1
74
1
7

75
0
76
0
77
2
78
300
147
1.0
148
0.0
149
0.0
100
AcDbLayout
1
Layout1
71
1
10
-20.0
20
-7.5
11
277.0
21
202.5
12
0.0
22
0.0
32
0.0
14
25.7
24
19.5
34
0.0
15
231.3
25
175.5
35
0.0
146
0.0
13
0.0
23
0.0
33
0.0
16
1.0
26
0.0
36
0.0
17
0.0
27
1.0
37
0.0
76
0
330
44
0
MLINESTYLE
5
1B
330
B
100
AcDbMlineStyle
2
Standard
70
0
3

62
256
51
90.0
52
90.0
71
2
49
0.5
62
256
6
ByLayer
49
-0.5
62
256
6
ByLayer
0
RASTERVARIABLES
5
21
330
E
100
AcDbRasterVariables
90
0
70
1
71
1
72
0
0
ENDSEC
0
EOF
