999
DXF file generated by netDxf https://github.com/haplokuon/netDxf, Copyright(C) Daniel Carvajal, Licensed under MIT
0
SECTION
2
HEADER
9
$ACADVER
1
AC1015
9
$DWGCODEPAGE
3
ANSI_1252
9
$HANDSEED
5
42
9
$ANGBASE
50
0.0
9
$ANGDIR
70
0
9
$ATTMODE
70
1
9
$AUNITS
70
0
9
$AUPREC
70
0
9
$CECOLOR
62
256
9
$CELTSCALE
40
1.0
9
$CELTYPE
6
ByLayer
9
$CELWEIGHT
370
-1
9
$CLAYER
8
0
9
$CMLJUST
70
0
9
$CMLSCALE
40
20.0
9
$CMLSTYLE
2
Standard
9
$DIMSTYLE
2
Standard
9
$TEXTSIZE
40
2.5
9
$TEXTSTYLE
7
Standard
9
$LUNITS
70
2
9
$LUPREC
70
4
9
$MIRRTEXT
70
0
9
$EXTNAMES
290
1
9
$INSBASE
10
0.0
20
0.0
30
0.0
9
$INSUNITS
70
0
9
$LTSCALE
40
1.0
9
$LWDISPLAY
290
0
9
$PDMODE
70
0
9
$PDSIZE
40
0.0
9
$PLINEGEN
70
0
9
$PSLTSCALE
70
1
9
$SPLINESEGS
70
8
9
$SURFU
70
6
9
$SURFV
70
6
9
$TDCREATE
40
2460823.48362983
9
$TDUCREATE
40
2460823.15029649
9
$TDUPDATE
40
2460823.48362983
9
$TDUUPDATE
40
2460823.15029649
9
$TDINDWG
40
0.0
9
$UCSORG
10
0.0
20
0.0
30
0.0
9
$UCSXDIR
10
1.0
20
0.0
30
0.0
9
$UCSYDIR
10
0.0
20
1.0
30
0.0
9
$DIMADEC
70
0
9
$DIMALT
70
0
9
$DIMALTD
70
2
9
$DIMALTF
40
25.4
9
$DIMALTRND
40
0.0
9
$DIMALTTD
70
2
9
$DIMALTTZ
70
0
9
$DIMALTU
70
2
9
$DIMALTZ
70
0
9
$DIMAPOST
1

9
$DIMATFIT
70
3
9
$DIMAUNIT
70
0
9
$DIMASZ
40
0.18
9
$DIMAZIN
70
0
9
$DIMSAH
70
0
9
$DIMBLK
1

9
$DIMLDRBLK
1

9
$DIMCEN
40
0.09
9
$DIMCLRD
70
0
9
$DIMCLRE
70
0
9
$DIMCLRT
70
0
9
$DIMDEC
70
4
9
$DIMDLE
40
0.0
9
$DIMDLI
40
0.38
9
$DIMDSEP
70
46
9
$DIMEXE
40
0.18
9
$DIMEXO
40
0.0625
9
$DIMFXLON
70
0
9
$DIMFXL
40
1.0
9
$DIMGAP
40
0.09
9
$DIMJUST
70
0
9
$DIMLFAC
40
1.0
9
$DIMLUNIT
70
2
9
$DIMLWD
70
-2
9
$DIMLWE
70
-2
9
$DIMPOST
1

9
$DIMRND
40
0.0
9
$DIMSCALE
40
1.0
9
$DIMSD1
70
0
9
$DIMSD2
70
0
9
$DIMSE1
70
0
9
$DIMSE2
70
0
9
$DIMSOXD
70
0
9
$DIMTAD
70
0
9
$DIMTDEC
70
4
9
$DIMTFAC
40
1.0
9
$DIMTIH
70
0
9
$DIMTIX
70
0
9
$DIMTM
40
0.0
9
$DIMTMOVE
70
0
9
$DIMTOFL
70
0
9
$DIMTOH
70
0
9
$DIMTOL
70
0
9
$DIMLIM
70
0
9
$DIMTOLJ
70
1
9
$DIMTP
40
0.0
9
$DIMTXT
40
0.18
9
$DIMTXTDIRECTION
70
0
9
$DIMTZIN
70
0
9
$DIMZIN
70
0
9
$DIMFRAC
70
0
9
$DIMLTYPE
6
ByBlock
9
$DIMLTEX1
6
ByBlock
9
$DIMLTEX2
6
ByBlock
0
ENDSEC
0
SECTION
2
CLASSES
0
CLASS
1
RASTERVARIABLES
2
AcDbRasterVariables
3
ISM
90
0
280
0
281
0
0
ENDSEC
0
SECTION
2
TABLES
0
TABLE
2
APPID
5
4
330
0
100
AcDbSymbolTable
70
5
0
APPID
5
19
330
4
100
AcDbSymbolTableRecord
100
AcDbRegAppTableRecord
2
ACAD
70
0
0
APPID
5
3C
330
4
100
AcDbSymbolTableRecord
100
AcDbRegAppTableRecord
2
AcCmTransparency
70
0
0
APPID
5
3D
330
4
100
AcDbSymbolTableRecord
100
AcDbRegAppTableRecord
2
AcAecLayerStandard
70
0
0
APPID
5
3E
330
4
100
AcDbSymbolTableRecord
100
AcDbRegAppTableRecord
2
GradientColor1ACI
70
0
0
APPID
5
3F
330
4
100
AcDbSymbolTableRecord
100
AcDbRegAppTableRecord
2
GradientColor2ACI
70
0
0
ENDTAB
0
TABLE
2
VPORT
5
1
330
0
100
AcDbSymbolTable
70
1
0
VPORT
5
2
330
1
100
AcDbSymbolTableRecord
100
AcDbViewportTableRecord
2
*Active
70
0
10
0.0
20
0.0
11
1.0
21
1.0
12
0.0
22
0.0
13
0.0
23
0.0
14
0.5
24
0.5
15
10.0
25
10.0
16
0.0
26
0.0
36
1.0
17
0.0
27
0.0
37
0.0
40
10.0
41
1.0
75
0
76
1
0
ENDTAB
0
TABLE
2
LTYPE
5
7
330
0
100
AcDbSymbolTable
70
3
0
LTYPE
5
15
330
7
100
AcDbSymbolTableRecord
100
AcDbLinetypeTableRecord
2
Continuous
70
0
3
Solid line
72
65
73
0
40
0.0
0
LTYPE
5
16
330
7
100
AcDbSymbolTableRecord
100
AcDbLinetypeTableRecord
2
ByLayer
70
0
3

72
65
73
0
40
0.0
0
LTYPE
5
17
330
7
100
AcDbSymbolTableRecord
100
AcDbLinetypeTableRecord
2
ByBlock
70
0
3

72
65
73
0
40
0.0
0
ENDTAB
0
TABLE
2
LAYER
5
5
102
{ACAD_XDICTIONARY
360
6
102
}
330
0
100
AcDbSymbolTable
70
1
0
LAYER
5
14
330
5
100
AcDbSymbolTableRecord
100
AcDbLayerTableRecord
2
0
70
0
62
7
6
Continuous
290
1
370
-3
390
0
0
ENDTAB
0
TABLE
2
STYLE
5
8
330
0
100
AcDbSymbolTable
70
1
0
STYLE
5
18
330
8
100
AcDbSymbolTableRecord
100
AcDbTextStyleTableRecord
2
Standard
3
simplex.shx
70
0
71
0
40
0.0
41
1.0
42
0.0
50
0.0
0
ENDTAB
0
TABLE
2
DIMSTYLE
5
A
330
0
100
AcDbSymbolTable
70
1
100
AcDbDimStyleTable
0
DIMSTYLE
105
1A
330
A
100
AcDbSymbolTableRecord
100
AcDbDimStyleTableRecord
2
Standard
3

4

40
1.0
41
0.18
42
0.0625
43
0.38
44
0.18
45
0.0
46
0.0
47
0.0
48
0.0
49
1.0
70
0
71
0
72
0
73
0
74
0
75
0
76
0
77
0
78
0
79
0
140
0.18
141
0.09
143
25.4
144
1.0
146
1.0
147
0.09
148
0.0
170
0
171
2
172
0
174
0
175
0
176
0
177
0
178
0
179
0
271
4
272
4
273
2
274
2
275
0
276
0
277
2
278
46
279
0
280
0
281
0
282
0
283
1
284
0
285
0
286
0
289
3
290
0
294
0
340
18
173
0
345
17
346
17
347
17
371
-2
372
-2
0
ENDTAB
0
TABLE
2
VIEW
5
3
330
0
100
AcDbSymbolTable
70
0
0
ENDTAB
0
TABLE
2
UCS
5
C
330
0
100
AcDbSymbolTable
70
0
0
ENDTAB
0
TABLE
2
BLOCK_RECORD
5
D
330
0
100
AcDbSymbolTable
70
2
0
BLOCK_RECORD
5
1C
330
D
100
AcDbSymbolTableRecord
100
AcDbBlockTableRecord
2
*Model_Space
340
20
0
BLOCK_RECORD
5
36
330
D
100
AcDbSymbolTableRecord
100
AcDbBlockTableRecord
2
*Paper_Space
340
3B
0
ENDTAB
0
ENDSEC
0
SECTION
2
BLOCKS
0
BLOCK
5
1E
330
1C
100
AcDbEntity
67
0
8
0
100
AcDbBlockBegin
2
*Model_Space
70
0
10
0.0
20
0.0
30
0.0
3
*Model_Space
4

0
ENDBLK
5
1D
330
1C
100
AcDbEntity
8
0
100
AcDbBlockEnd
0
BLOCK
5
38
330
36
100
AcDbEntity
67
1
8
0
100
AcDbBlockBegin
2
*Paper_Space
70
0
10
0.0
20
0.0
30
0.0
3
*Paper_Space
4

0
ENDBLK
5
37
330
36
100
AcDbEntity
8
0
100
AcDbBlockEnd
0
ENDSEC
0
SECTION
2
ENTITIES
0
LWPOLYLINE
5
22
330
1C
100
AcDbEntity
67
0
8
0
62
256
6
ByLayer
370
-1
48
1.0
60
0
100
AcDbPolyline
90
308
70
1
38
0.0
39
0.0
10
65.2706985473633
20
72.3927993774414
40
0.0
41
0.0
42
0.0
10
65.497802734375
20
72.0964965820312
40
0.0
41
0.0
42
0.0
10
65.6050033569336
20
71.8757019042969
40
0.0
41
0.0
42
0.0
10
65.8467025756836
20
71.6622009277344
40
0.0
41
0.0
42
0.0
10
65.899299621582
20
71.6367034912109
40
0.0
41
0.0
42
0.0
10
65.9900970458984
20
71.6176986694336
40
0.0
41
0.0
42
0.0
10
66.1165008544922
20
71.4962997436523
40
0.0
41
0.0
42
0.0
10
66.2998962402344
20
71.372802734375
40
0.0
41
0.0
42
0.0
10
66.3462982177734
20
71.3347015380859
40
0.0
41
0.0
42
0.0
10
66.489501953125
20
71.2647018432617
40
0.0
41
0.0
42
0.0
10
66.5914993286133
20
71.2097015380859
40
0.0
41
0.0
42
0.0
10
66.91259765625
20
70.9977035522461
40
0.0
41
0.0
42
0.0
10
66.9455032348633
20
70.977897644043
40
0.0
41
0.0
42
0.0
10
66.9890975952148
20
70.9580001831055
40
0.0
41
0.0
42
0.0
10
67.1260986328125
20
70.8881988525391
40
0.0
41
0.0
42
0.0
10
67.4881973266602
20
70.6661987304688
40
0.0
41
0.0
42
0.0
10
67.5614013671875
20
70.6279983520508
40
0.0
41
0.0
42
0.0
10
67.7778015136719
20
70.497200012207
40
0.0
41
0.0
42
0.0
10
67.9581985473633
20
70.3559036254883
40
0.0
41
0.0
42
0.0
10
67.9919967651367
20
70.3347015380859
40
0.0
41
0.0
42
0.0
10
68.0986022949219
20
70.2510986328125
40
0.0
41
0.0
42
0.0
10
68.3702011108398
20
69.9933013916016
40
0.0
41
0.0
42
0.0
10
68.4997024536133
20
69.7864990234375
40
0.0
41
0.0
42
0.0
10
68.5926971435547
20
69.5949020385742
40
0.0
41
0.0
42
0.0
10
68.6567001342773
20
69.4887008666992
40
0.0
41
0.0
42
0.0
10
68.8216018676758
20
68.9860000610352
40
0.0
41
0.0
42
0.0
10
68.931396484375
20
68.590202331543
40
0.0
41
0.0
42
0.0
10
68.9564971923828
20
68.4853973388672
40
0.0
41
0.0
42
0.0
10
69.0751037597656
20
68.0903015136719
40
0.0
41
0.0
42
0.0
10
69.1237030029297
20
67.8807983398438
40
0.0
41
0.0
42
0.0
10
69.2642974853516
20
67.4857025146484
40
0.0
41
0.0
42
0.0
10
69.2870025634766
20
67.3809967041016
40
0.0
41
0.0
42
0.0
10
69.2976989746094
20
67.352897644043
40
0.0
41
0.0
42
0.0
10
69.4736022949219
20
66.9850006103516
40
0.0
41
0.0
42
0.0
10
69.4731979370117
20
66.8395004272461
40
0.0
41
0.0
42
0.0
10
69.4789962768555
20
66.8265991210938
40
0.0
41
0.0
42
0.0
10
69.4990005493164
20
66.8078002929688
40
0.0
41
0.0
42
0.0
10
69.779296875
20
66.4946975708008
40
0.0
41
0.0
42
0.0
10
69.8330001831055
20
66.44580078125
40
0.0
41
0.0
42
0.0
10
69.9929962158203
20
66.2203979492188
40
0.0
41
0.0
42
0.0
10
70.2428970336914
20
66.1407012939453
40
0.0
41
0.0
42
0.0
10
70.2787017822266
20
66.1406021118164
40
0.0
41
0.0
42
0.0
10
70.5161972045898
20
66.1617965698242
40
0.0
41
0.0
42
0.0
10
70.6621017456055
20
66.2018966674805
40
0.0
41
0.0
42
0.0
10
71.0164031982422
20
66.2039031982422
40
0.0
41
0.0
42
0.0
10
71.1601028442383
20
66.2531967163086
40
0.0
41
0.0
42
0.0
10
71.5149993896484
20
66.3014984130859
40
0.0
41
0.0
42
0.0
10
71.6592025756836
20
66.3522033691406
40
0.0
41
0.0
42
0.0
10
72.0151977539062
20
66.4284973144531
40
0.0
41
0.0
42
0.0
10
72.1611022949219
20
66.4657974243164
40
0.0
41
0.0
42
0.0
10
72.2509994506836
20
66.4998016357422
40
0.0
41
0.0
42
0.0
10
72.3069000244141
20
66.5170974731445
40
0.0
41
0.0
42
0.0
10
72.5141983032227
20
66.5675964355469
40
0.0
41
0.0
42
0.0
10
72.6324996948242
20
66.6059036254883
40
0.0
41
0.0
42
0.0
10
73.1207962036133
20
66.7268981933594
40
0.0
41
0.0
42
0.0
10
73.5177993774414
20
66.7883987426758
40
0.0
41
0.0
42
0.0
10
73.6026000976562
20
66.7929992675781
40
0.0
41
0.0
42
0.0
10
73.9832992553711
20
66.7661972045898
40
0.0
41
0.0
42
0.0
10
74.0912017822266
20
66.7391967773438
40
0.0
41
0.0
42
0.0
10
74.4886016845703
20
66.5884017944336
40
0.0
41
0.0
42
0.0
10
74.5906982421875
20
66.5350036621094
40
0.0
41
0.0
42
0.0
10
74.6508026123047
20
66.4981002807617
40
0.0
41
0.0
42
0.0
10
74.9903030395508
20
66.3200988769531
40
0.0
41
0.0
42
0.0
10
75.095703125
20
66.2548980712891
40
0.0
41
0.0
42
0.0
10
75.5551986694336
20
65.9915008544922
40
0.0
41
0.0
42
0.0
10
75.5961990356445
20
65.9617004394531
40
0.0
41
0.0
42
0.0
10
75.9904022216797
20
65.7479019165039
40
0.0
41
0.0
42
0.0
10
76.0943984985352
20
65.684196472168
40
0.0
41
0.0
42
0.0
10
76.5111999511719
20
65.5175018310547
40
0.0
41
0.0
42
0.0
10
76.5981979370117
20
65.5001983642578
40
0.0
41
0.0
42
0.0
10
76.8818969726562
20
65.4016036987305
40
0.0
41
0.0
42
0.0
10
76.9887008666992
20
65.2891998291016
40
0.0
41
0.0
42
0.0
10
77.3432998657227
20
65.2973022460938
40
0.0
41
0.0
42
0.0
10
77.383903503418
20
65.2654037475586
40
0.0
41
0.0
42
0.0
10
77.4854965209961
20
65.2076034545898
40
0.0
41
0.0
42
0.0
10
77.5136032104492
20
65.2076034545898
40
0.0
41
0.0
42
0.0
10
77.6070022583008
20
65.2707977294922
40
0.0
41
0.0
42
0.0
10
77.9032974243164
20
65.4979019165039
40
0.0
41
0.0
42
0.0
10
78.1240997314453
20
65.6050033569336
40
0.0
41
0.0
42
0.0
10
78.3375015258789
20
65.8467025756836
40
0.0
41
0.0
42
0.0
10
78.3629989624023
20
65.8993988037109
40
0.0
41
0.0
42
0.0
10
78.3820037841797
20
65.9901962280273
40
0.0
41
0.0
42
0.0
10
78.5035018920898
20
66.1165008544922
40
0.0
41
0.0
42
0.0
10
78.6268997192383
20
66.2998962402344
40
0.0
41
0.0
42
0.0
10
78.6650009155273
20
66.3463973999023
40
0.0
41
0.0
42
0.0
10
78.7350006103516
20
66.489501953125
40
0.0
41
0.0
42
0.0
10
78.7900009155273
20
66.5915985107422
40
0.0
41
0.0
42
0.0
10
79.0020980834961
20
66.91259765625
40
0.0
41
0.0
42
0.0
10
79.0217971801758
20
66.9455032348633
40
0.0
41
0.0
42
0.0
10
79.0420989990234
20
66.9897994995117
40
0.0
41
0.0
42
0.0
10
79.2601013183594
20
67.3452987670898
40
0.0
41
0.0
42
0.0
10
79.3718032836914
20
67.5614013671875
40
0.0
41
0.0
42
0.0
10
79.5026016235352
20
67.7778015136719
40
0.0
41
0.0
42
0.0
10
79.6439971923828
20
67.9581985473633
40
0.0
41
0.0
42
0.0
10
79.6651000976562
20
67.9919967651367
40
0.0
41
0.0
42
0.0
10
79.7485961914062
20
68.0987014770508
40
0.0
41
0.0
42
0.0
10
80.0065994262695
20
68.3702011108398
40
0.0
41
0.0
42
0.0
10
80.2133026123047
20
68.4998016357422
40
0.0
41
0.0
42
0.0
10
80.4049987792969
20
68.5927963256836
40
0.0
41
0.0
42
0.0
10
80.5111999511719
20
68.6567001342773
40
0.0
41
0.0
42
0.0
10
81.0139007568359
20
68.8216018676758
40
0.0
41
0.0
42
0.0
10
81.4096984863281
20
68.9315032958984
40
0.0
41
0.0
42
0.0
10
81.5145034790039
20
68.9564971923828
40
0.0
41
0.0
42
0.0
10
81.9095993041992
20
69.0751037597656
40
0.0
41
0.0
42
0.0
10
82.1191024780273
20
69.1238021850586
40
0.0
41
0.0
42
0.0
10
82.5141983032227
20
69.2642974853516
40
0.0
41
0.0
42
0.0
10
82.618896484375
20
69.2870025634766
40
0.0
41
0.0
42
0.0
10
82.6566009521484
20
69.3014984130859
40
0.0
41
0.0
42
0.0
10
83.0149002075195
20
69.4736022949219
40
0.0
41
0.0
42
0.0
10
83.160400390625
20
69.4732971191406
40
0.0
41
0.0
42
0.0
10
83.1728973388672
20
69.4789962768555
40
0.0
41
0.0
42
0.0
10
83.1874008178711
20
69.4949035644531
40
0.0
41
0.0
42
0.0
10
83.5050964355469
20
69.7794036865234
40
0.0
41
0.0
42
0.0
10
83.5539016723633
20
69.8330993652344
40
0.0
41
0.0
42
0.0
10
83.779296875
20
69.9931030273438
40
0.0
41
0.0
42
0.0
10
83.8591995239258
20
70.2428970336914
40
0.0
41
0.0
42
0.0
10
83.8591003417969
20
70.2786026000977
40
0.0
41
0.0
42
0.0
10
83.8379974365234
20
70.5161972045898
40
0.0
41
0.0
42
0.0
10
83.7977981567383
20
70.6620025634766
40
0.0
41
0.0
42
0.0
10
83.7957992553711
20
71.0185012817383
40
0.0
41
0.0
42
0.0
10
83.7481002807617
20
71.3701019287109
40
0.0
41
0.0
42
0.0
10
83.6985015869141
20
71.5142974853516
40
0.0
41
0.0
42
0.0
10
83.6223983764648
20
71.8692016601562
40
0.0
41
0.0
42
0.0
10
83.5716018676758
20
72.013801574707
40
0.0
41
0.0
42
0.0
10
83.5338973999023
20
72.1611022949219
40
0.0
41
0.0
42
0.0
10
83.5
20
72.2509994506836
40
0.0
41
0.0
42
0.0
10
83.4826965332031
20
72.3068008422852
40
0.0
41
0.0
42
0.0
10
83.344596862793
20
72.8696975708008
40
0.0
41
0.0
42
0.0
10
83.3339004516602
20
72.9088973999023
40
0.0
41
0.0
42
0.0
10
83.2994995117188
20
73.0150985717773
40
0.0
41
0.0
42
0.0
10
83.2381973266602
20
73.4106979370117
40
0.0
41
0.0
42
0.0
10
83.2132034301758
20
73.5093994140625
40
0.0
41
0.0
42
0.0
10
83.2391967773438
20
73.8757019042969
40
0.0
41
0.0
42
0.0
10
83.2390975952148
20
73.9143981933594
40
0.0
41
0.0
42
0.0
10
83.2350997924805
20
73.9884033203125
40
0.0
41
0.0
42
0.0
10
83.3842010498047
20
74.3813018798828
40
0.0
41
0.0
42
0.0
10
83.4106979370117
20
74.4875030517578
40
0.0
41
0.0
42
0.0
10
83.4646987915039
20
74.5906982421875
40
0.0
41
0.0
42
0.0
10
83.5016021728516
20
74.6509017944336
40
0.0
41
0.0
42
0.0
10
83.6796035766602
20
74.9904022216797
40
0.0
41
0.0
42
0.0
10
83.7449035644531
20
75.095703125
40
0.0
41
0.0
42
0.0
10
84.0082015991211
20
75.5552978515625
40
0.0
41
0.0
42
0.0
10
84.0380020141602
20
75.5961990356445
40
0.0
41
0.0
42
0.0
10
84.2509002685547
20
75.988899230957
40
0.0
41
0.0
42
0.0
10
84.4087982177734
20
76.3843994140625
40
0.0
41
0.0
42
0.0
10
84.4731979370117
20
76.4894027709961
40
0.0
41
0.0
42
0.0
10
84.4823989868164
20
76.5113983154297
40
0.0
41
0.0
42
0.0
10
84.4996032714844
20
76.598503112793
40
0.0
41
0.0
42
0.0
10
84.5981979370117
20
76.8820037841797
40
0.0
41
0.0
42
0.0
10
84.7105026245117
20
76.9888000488281
40
0.0
41
0.0
42
0.0
10
84.7025985717773
20
77.3432998657227
40
0.0
41
0.0
42
0.0
10
84.7343978881836
20
77.3840026855469
40
0.0
41
0.0
42
0.0
10
84.7920989990234
20
77.4854965209961
40
0.0
41
0.0
42
0.0
10
84.7920989990234
20
77.5134963989258
40
0.0
41
0.0
42
0.0
10
84.7289962768555
20
77.6070022583008
40
0.0
41
0.0
42
0.0
10
84.5018997192383
20
77.9032974243164
40
0.0
41
0.0
42
0.0
10
84.4523010253906
20
78.0070037841797
40
0.0
41
0.0
42
0.0
10
84.3405990600586
20
78.1056976318359
40
0.0
41
0.0
42
0.0
10
84.0058975219727
20
78.3856964111328
40
0.0
41
0.0
42
0.0
10
83.88330078125
20
78.5035018920898
40
0.0
41
0.0
42
0.0
10
83.6997985839844
20
78.6268997192383
40
0.0
41
0.0
42
0.0
10
83.6535034179688
20
78.6650009155273
40
0.0
41
0.0
42
0.0
10
83.5102996826172
20
78.7349014282227
40
0.0
41
0.0
42
0.0
10
83.408203125
20
78.7899017333984
40
0.0
41
0.0
42
0.0
10
83.0870971679688
20
79.0020980834961
40
0.0
41
0.0
42
0.0
10
83.05419921875
20
79.0217971801758
40
0.0
41
0.0
42
0.0
10
83.0100021362305
20
79.0420989990234
40
0.0
41
0.0
42
0.0
10
82.6546020507812
20
79.2601013183594
40
0.0
41
0.0
42
0.0
10
82.4384002685547
20
79.3718032836914
40
0.0
41
0.0
42
0.0
10
82.2220001220703
20
79.5026016235352
40
0.0
41
0.0
42
0.0
10
82.0414962768555
20
79.6438980102539
40
0.0
41
0.0
42
0.0
10
82.0077972412109
20
79.6651000976562
40
0.0
41
0.0
42
0.0
10
81.9011993408203
20
79.7485961914062
40
0.0
41
0.0
42
0.0
10
81.6295013427734
20
80.0065002441406
40
0.0
41
0.0
42
0.0
10
81.4999008178711
20
80.2132034301758
40
0.0
41
0.0
42
0.0
10
81.4068984985352
20
80.404899597168
40
0.0
41
0.0
42
0.0
10
81.3430023193359
20
80.511100769043
40
0.0
41
0.0
42
0.0
10
81.1781005859375
20
81.013801574707
40
0.0
41
0.0
42
0.0
10
81.0681991577148
20
81.4096984863281
40
0.0
41
0.0
42
0.0
10
81.0431976318359
20
81.5145034790039
40
0.0
41
0.0
42
0.0
10
80.9245986938477
20
81.9095993041992
40
0.0
41
0.0
42
0.0
10
80.9007034301758
20
82.0140991210938
40
0.0
41
0.0
42
0.0
10
80.7602005004883
20
82.4089965820312
40
0.0
41
0.0
42
0.0
10
80.7358016967773
20
82.5129013061523
40
0.0
41
0.0
42
0.0
10
80.5530014038086
20
82.8936004638672
40
0.0
41
0.0
42
0.0
10
80.5261993408203
20
83.0170974731445
40
0.0
41
0.0
42
0.0
10
80.5263977050781
20
83.160400390625
40
0.0
41
0.0
42
0.0
10
80.5206985473633
20
83.1731033325195
40
0.0
41
0.0
42
0.0
10
80.5007019042969
20
83.1920013427734
40
0.0
41
0.0
42
0.0
10
80.2203979492188
20
83.5050964355469
40
0.0
41
0.0
42
0.0
10
80.1667022705078
20
83.5539016723633
40
0.0
41
0.0
42
0.0
10
80.0067977905273
20
83.779296875
40
0.0
41
0.0
42
0.0
10
79.7568969726562
20
83.8591995239258
40
0.0
41
0.0
42
0.0
10
79.7210998535156
20
83.8591003417969
40
0.0
41
0.0
42
0.0
10
79.4837036132812
20
83.8380966186523
40
0.0
41
0.0
42
0.0
10
79.3378982543945
20
83.7977981567383
40
0.0
41
0.0
42
0.0
10
78.9813995361328
20
83.7957992553711
40
0.0
41
0.0
42
0.0
10
78.6297988891602
20
83.7481002807617
40
0.0
41
0.0
42
0.0
10
78.4856033325195
20
83.6985015869141
40
0.0
41
0.0
42
0.0
10
78.1306991577148
20
83.6223983764648
40
0.0
41
0.0
42
0.0
10
77.9860992431641
20
83.5716018676758
40
0.0
41
0.0
42
0.0
10
77.8386993408203
20
83.5338973999023
40
0.0
41
0.0
42
0.0
10
77.7488021850586
20
83.5000991821289
40
0.0
41
0.0
42
0.0
10
77.693000793457
20
83.4826965332031
40
0.0
41
0.0
42
0.0
10
77.1302032470703
20
83.344596862793
40
0.0
41
0.0
42
0.0
10
77.0908966064453
20
83.3339004516602
40
0.0
41
0.0
42
0.0
10
76.9848022460938
20
83.2994995117188
40
0.0
41
0.0
42
0.0
10
76.5892028808594
20
83.2381973266602
40
0.0
41
0.0
42
0.0
10
76.4905014038086
20
83.2132034301758
40
0.0
41
0.0
42
0.0
10
76.1241989135742
20
83.2391967773438
40
0.0
41
0.0
42
0.0
10
76.0855026245117
20
83.2390975952148
40
0.0
41
0.0
42
0.0
10
76.0114974975586
20
83.2350997924805
40
0.0
41
0.0
42
0.0
10
75.6185989379883
20
83.3841018676758
40
0.0
41
0.0
42
0.0
10
75.5123977661133
20
83.4106979370117
40
0.0
41
0.0
42
0.0
10
75.4089965820312
20
83.464599609375
40
0.0
41
0.0
42
0.0
10
75.3488998413086
20
83.5017013549805
40
0.0
41
0.0
42
0.0
10
75.0094985961914
20
83.6794967651367
40
0.0
41
0.0
42
0.0
10
74.9040985107422
20
83.7447967529297
40
0.0
41
0.0
42
0.0
10
74.4443969726562
20
84.0081024169922
40
0.0
41
0.0
42
0.0
10
74.4037017822266
20
84.0380020141602
40
0.0
41
0.0
42
0.0
10
74.0110015869141
20
84.2509002685547
40
0.0
41
0.0
42
0.0
10
73.6155014038086
20
84.4086990356445
40
0.0
41
0.0
42
0.0
10
73.5103988647461
20
84.4731979370117
40
0.0
41
0.0
42
0.0
10
73.4884033203125
20
84.4823989868164
40
0.0
41
0.0
42
0.0
10
73.4012985229492
20
84.4996032714844
40
0.0
41
0.0
42
0.0
10
73.1177978515625
20
84.5980987548828
40
0.0
41
0.0
42
0.0
10
73.011100769043
20
84.7105026245117
40
0.0
41
0.0
42
0.0
10
72.6566009521484
20
84.7025985717773
40
0.0
41
0.0
42
0.0
10
72.6157989501953
20
84.7342987060547
40
0.0
41
0.0
42
0.0
10
72.5143966674805
20
84.7920989990234
40
0.0
41
0.0
42
0.0
10
72.486198425293
20
84.7921981811523
40
0.0
41
0.0
42
0.0
10
72.3927993774414
20
84.7289962768555
40
0.0
41
0.0
42
0.0
10
72.0964965820312
20
84.5018997192383
40
0.0
41
0.0
42
0.0
10
71.9928970336914
20
84.4523010253906
40
0.0
41
0.0
42
0.0
10
71.8927993774414
20
84.3391036987305
40
0.0
41
0.0
42
0.0
10
71.6626968383789
20
84.1526031494141
40
0.0
41
0.0
42
0.0
10
71.6169967651367
20
84.008903503418
40
0.0
41
0.0
42
0.0
10
71.4963989257812
20
83.8833999633789
40
0.0
41
0.0
42
0.0
10
71.372802734375
20
83.6998977661133
40
0.0
41
0.0
42
0.0
10
71.3347015380859
20
83.6535034179688
40
0.0
41
0.0
42
0.0
10
71.2648010253906
20
83.5103988647461
40
0.0
41
0.0
42
0.0
10
71.2098007202148
20
83.4083023071289
40
0.0
41
0.0
42
0.0
10
70.997802734375
20
83.0870971679688
40
0.0
41
0.0
42
0.0
10
70.977897644043
20
83.0542984008789
40
0.0
41
0.0
42
0.0
10
70.9580993652344
20
83.0108032226562
40
0.0
41
0.0
42
0.0
10
70.888298034668
20
82.8738021850586
40
0.0
41
0.0
42
0.0
10
70.6650009155273
20
82.5095977783203
40
0.0
41
0.0
42
0.0
10
70.6279983520508
20
82.4384002685547
40
0.0
41
0.0
42
0.0
10
70.4972991943359
20
82.2220001220703
40
0.0
41
0.0
42
0.0
10
70.3557968139648
20
82.0416030883789
40
0.0
41
0.0
42
0.0
10
70.3348007202148
20
82.0078964233398
40
0.0
41
0.0
42
0.0
10
70.2511978149414
20
81.9011993408203
40
0.0
41
0.0
42
0.0
10
69.9933013916016
20
81.6296005249023
40
0.0
41
0.0
42
0.0
10
69.7864990234375
20
81.5
40
0.0
41
0.0
42
0.0
10
69.5950012207031
20
81.4069976806641
40
0.0
41
0.0
42
0.0
10
69.4888000488281
20
81.3430023193359
40
0.0
41
0.0
42
0.0
10
68.9860000610352
20
81.1781005859375
40
0.0
41
0.0
42
0.0
10
68.590202331543
20
81.0682983398438
40
0.0
41
0.0
42
0.0
10
68.4853973388672
20
81.0431976318359
40
0.0
41
0.0
42
0.0
10
68.0903015136719
20
80.9245986938477
40
0.0
41
0.0
42
0.0
10
67.9858016967773
20
80.9008026123047
40
0.0
41
0.0
42
0.0
10
67.5908966064453
20
80.7602005004883
40
0.0
41
0.0
42
0.0
10
67.4869995117188
20
80.7358016967773
40
0.0
41
0.0
42
0.0
10
67.1063003540039
20
80.5530014038086
40
0.0
41
0.0
42
0.0
10
66.9828033447266
20
80.5261993408203
40
0.0
41
0.0
42
0.0
10
66.8395004272461
20
80.526496887207
40
0.0
41
0.0
42
0.0
10
66.8266983032227
20
80.5206985473633
40
0.0
41
0.0
42
0.0
10
66.8078002929688
20
80.5008010864258
40
0.0
41
0.0
42
0.0
10
66.4947967529297
20
80.2203979492188
40
0.0
41
0.0
42
0.0
10
66.4458999633789
20
80.1667022705078
40
0.0
41
0.0
42
0.0
10
66.2203979492188
20
80.0068969726562
40
0.0
41
0.0
42
0.0
10
66.1407012939453
20
79.7568969726562
40
0.0
41
0.0
42
0.0
10
66.1406021118164
20
79.7211990356445
40
0.0
41
0.0
42
0.0
10
66.1616973876953
20
79.4837036132812
40
0.0
41
0.0
42
0.0
10
66.2018966674805
20
79.3377990722656
40
0.0
41
0.0
42
0.0
10
66.2039031982422
20
78.9834976196289
40
0.0
41
0.0
42
0.0
10
66.2531967163086
20
78.8397979736328
40
0.0
41
0.0
42
0.0
10
66.301399230957
20
78.4849014282227
40
0.0
41
0.0
42
0.0
10
66.3522033691406
20
78.3405990600586
40
0.0
41
0.0
42
0.0
10
66.4283981323242
20
77.9847030639648
40
0.0
41
0.0
42
0.0
10
66.4657974243164
20
77.8386993408203
40
0.0
41
0.0
42
0.0
10
66.4998016357422
20
77.7488021850586
40
0.0
41
0.0
42
0.0
10
66.5170974731445
20
77.6929016113281
40
0.0
41
0.0
42
0.0
10
66.5675964355469
20
77.4857025146484
40
0.0
41
0.0
42
0.0
10
66.6059036254883
20
77.3674011230469
40
0.0
41
0.0
42
0.0
10
66.7268981933594
20
76.8790969848633
40
0.0
41
0.0
42
0.0
10
66.7883987426758
20
76.4821014404297
40
0.0
41
0.0
42
0.0
10
66.7929992675781
20
76.3973007202148
40
0.0
41
0.0
42
0.0
10
66.7661972045898
20
76.0166015625
40
0.0
41
0.0
42
0.0
10
66.7391967773438
20
75.9086990356445
40
0.0
41
0.0
42
0.0
10
66.5885009765625
20
75.5112991333008
40
0.0
41
0.0
42
0.0
10
66.5351028442383
20
75.4091033935547
40
0.0
41
0.0
42
0.0
10
66.4981994628906
20
75.3489990234375
40
0.0
41
0.0
42
0.0
10
66.320198059082
20
75.0094985961914
40
0.0
41
0.0
42
0.0
10
66.2548980712891
20
74.9041976928711
40
0.0
41
0.0
42
0.0
10
65.9916000366211
20
74.4445037841797
40
0.0
41
0.0
42
0.0
10
65.9617004394531
20
74.4037017822266
40
0.0
41
0.0
42
0.0
10
65.7480010986328
20
74.0093994140625
40
0.0
41
0.0
42
0.0
10
65.684196472168
20
73.9055023193359
40
0.0
41
0.0
42
0.0
10
65.5175018310547
20
73.4886016845703
40
0.0
41
0.0
42
0.0
10
65.5001983642578
20
73.401496887207
40
0.0
41
0.0
42
0.0
10
65.4016036987305
20
73.1177978515625
40
0.0
41
0.0
42
0.0
10
65.2891998291016
20
73.0111999511719
40
0.0
41
0.0
42
0.0
10
65.2973022460938
20
72.6566009521484
40
0.0
41
0.0
42
0.0
10
65.2654037475586
20
72.6158981323242
40
0.0
41
0.0
42
0.0
10
65.2076034545898
20
72.5143966674805
40
0.0
41
0.0
42
0.0
10
65.2076034545898
20
72.4862976074219
40
0.0
41
0.0
42
0.0
10
65.2706985473633
20
72.3927993774414
40
0.0
41
0.0
42
0.0
210
0.0
220
0.0
230
1.0
0
LWPOLYLINE
5
23
330
1C
100
AcDbEntity
67
0
8
0
62
256
6
ByLayer
370
-1
48
1.0
60
0
100
AcDbPolyline
90
45
70
1
38
0.0
39
0.0
10
65.0140991210938
20
79.9244995117188
40
0.0
41
0.0
42
0.0
10
65.1343002319336
20
79.9964981079102
40
0.0
41
0.0
42
0.0
10
65.5038986206055
20
80.3798980712891
40
0.0
41
0.0
42
0.0
10
65.584098815918
20
80.4869995117188
40
0.0
41
0.0
42
0.0
10
65.584098815918
20
80.5182037353516
40
0.0
41
0.0
42
0.0
10
65.575798034668
20
80.5678024291992
40
0.0
41
0.0
42
0.0
10
65.7209014892578
20
80.9857025146484
40
0.0
41
0.0
42
0.0
10
65.7855987548828
20
81.2722015380859
40
0.0
41
0.0
42
0.0
10
65.7854995727539
20
81.3093032836914
40
0.0
41
0.0
42
0.0
10
65.7751007080078
20
81.4941024780273
40
0.0
41
0.0
42
0.0
10
65.8072967529297
20
81.7869033813477
40
0.0
41
0.0
42
0.0
10
65.8034973144531
20
81.9906005859375
40
0.0
41
0.0
42
0.0
10
65.823600769043
20
82.2936019897461
40
0.0
41
0.0
42
0.0
10
65.8220977783203
20
82.4992980957031
40
0.0
41
0.0
42
0.0
10
65.8252029418945
20
82.8358001708984
40
0.0
41
0.0
42
0.0
10
65.8172988891602
20
83.0164031982422
40
0.0
41
0.0
42
0.0
10
65.7742004394531
20
83.160400390625
40
0.0
41
0.0
42
0.0
10
65.7218017578125
20
83.5127029418945
40
0.0
41
0.0
42
0.0
10
65.6192016601562
20
83.684700012207
40
0.0
41
0.0
42
0.0
10
65.5109024047852
20
83.7544021606445
40
0.0
41
0.0
42
0.0
10
65.121696472168
20
83.8793029785156
40
0.0
41
0.0
42
0.0
10
65.0854034423828
20
83.8792037963867
40
0.0
41
0.0
42
0.0
10
65.0009994506836
20
83.8753967285156
40
0.0
41
0.0
42
0.0
10
65.0009994506836
20
83.8619003295898
40
0.0
41
0.0
42
0.0
10
65.0195007324219
20
83.8618011474609
40
0.0
41
0.0
42
0.0
10
65.1324996948242
20
83.8668975830078
40
0.0
41
0.0
42
0.0
10
65.4889984130859
20
83.7525024414062
40
0.0
41
0.0
42
0.0
10
65.578498840332
20
83.6949996948242
40
0.0
41
0.0
42
0.0
10
65.7024993896484
20
83.4870986938477
40
0.0
41
0.0
42
0.0
10
65.7615966796875
20
83.0895004272461
40
0.0
41
0.0
42
0.0
10
65.7932968139648
20
82.9834976196289
40
0.0
41
0.0
42
0.0
10
65.7990036010742
20
82.8548965454102
40
0.0
41
0.0
42
0.0
10
65.7955017089844
20
82.5198974609375
40
0.0
41
0.0
42
0.0
10
65.796501159668
20
82.3787994384766
40
0.0
41
0.0
42
0.0
10
65.7725982666016
20
82.019401550293
40
0.0
41
0.0
42
0.0
10
65.7751007080078
20
81.871696472168
40
0.0
41
0.0
42
0.0
10
65.7362976074219
20
81.518798828125
40
0.0
41
0.0
42
0.0
10
65.736198425293
20
81.4804992675781
40
0.0
41
0.0
42
0.0
10
65.7431030273438
20
81.3580017089844
40
0.0
41
0.0
42
0.0
10
65.6654968261719
20
81.0141983032227
40
0.0
41
0.0
42
0.0
10
65.5003967285156
20
80.538200378418
40
0.0
41
0.0
42
0.0
10
65.4865036010742
20
80.5078964233398
40
0.0
41
0.0
42
0.0
10
65.0009994506836
20
80.0118026733398
40
0.0
41
0.0
42
0.0
10
65.0009994506836
20
79.9245986938477
40
0.0
41
0.0
42
0.0
10
65.0140991210938
20
79.9244995117188
40
0.0
41
0.0
42
0.0
210
0.0
220
0.0
230
1.0
0
LWPOLYLINE
5
24
330
1C
100
AcDbEntity
67
0
8
0
62
256
6
ByLayer
370
-1
48
1.0
60
0
100
AcDbPolyline
90
305
70
1
38
0.0
39
0.0
10
65.3182983398438
20
72.5923004150391
40
0.0
41
0.0
42
0.0
10
65.3181991577148
20
72.6247024536133
40
0.0
41
0.0
42
0.0
10
65.3089981079102
20
72.9897003173828
40
0.0
41
0.0
42
0.0
10
65.3948974609375
20
73.0712966918945
40
0.0
41
0.0
42
0.0
10
65.4996032714844
20
73.3719024658203
40
0.0
41
0.0
42
0.0
10
65.5151977539062
20
73.4508972167969
40
0.0
41
0.0
42
0.0
10
65.6729965209961
20
73.8443984985352
40
0.0
41
0.0
42
0.0
10
65.7623977661133
20
73.9905014038086
40
0.0
41
0.0
42
0.0
10
65.9553985595703
20
74.3461990356445
40
0.0
41
0.0
42
0.0
10
65.9969024658203
20
74.4030990600586
40
0.0
41
0.0
42
0.0
10
66.2509002685547
20
74.845703125
40
0.0
41
0.0
42
0.0
10
66.3405990600586
20
74.9904022216797
40
0.0
41
0.0
42
0.0
10
66.5017013549805
20
75.2975997924805
40
0.0
41
0.0
42
0.0
10
66.534797668457
20
75.3516006469727
40
0.0
41
0.0
42
0.0
10
66.6063003540039
20
75.4886016845703
40
0.0
41
0.0
42
0.0
10
66.7401962280273
20
75.8412017822266
40
0.0
41
0.0
42
0.0
10
66.7755966186523
20
75.9832992553711
40
0.0
41
0.0
42
0.0
10
66.8005981445312
20
76.3357009887695
40
0.0
41
0.0
42
0.0
10
66.8004989624023
20
76.3742980957031
40
0.0
41
0.0
42
0.0
10
66.7926025390625
20
76.5177993774414
40
0.0
41
0.0
42
0.0
10
66.7378997802734
20
76.8707962036133
40
0.0
41
0.0
42
0.0
10
66.6140975952148
20
77.3692016601562
40
0.0
41
0.0
42
0.0
10
66.5682983398438
20
77.5142974853516
40
0.0
41
0.0
42
0.0
10
66.5119018554688
20
77.7451019287109
40
0.0
41
0.0
42
0.0
10
66.5
20
77.7834014892578
40
0.0
41
0.0
42
0.0
10
66.47509765625
20
77.8494033813477
40
0.0
41
0.0
42
0.0
10
66.4326019287109
20
78.0150985717773
40
0.0
41
0.0
42
0.0
10
66.3480987548828
20
78.4092025756836
40
0.0
41
0.0
42
0.0
10
66.3108978271484
20
78.5149993896484
40
0.0
41
0.0
42
0.0
10
66.2573013305664
20
78.9101028442383
40
0.0
41
0.0
42
0.0
10
66.2209014892578
20
79.0164031982422
40
0.0
41
0.0
42
0.0
10
66.2186965942383
20
79.4120025634766
40
0.0
41
0.0
42
0.0
10
66.1900024414062
20
79.5161972045898
40
0.0
41
0.0
42
0.0
10
66.1768035888672
20
79.6650009155273
40
0.0
41
0.0
42
0.0
10
66.2815017700195
20
79.9929962158203
40
0.0
41
0.0
42
0.0
10
66.4514007568359
20
80.1135025024414
40
0.0
41
0.0
42
0.0
10
66.5050964355469
20
80.1724014282227
40
0.0
41
0.0
42
0.0
10
66.8650970458984
20
80.4949035644531
40
0.0
41
0.0
42
0.0
10
66.8794021606445
20
80.5102996826172
40
0.0
41
0.0
42
0.0
10
66.9101028442383
20
80.5243988037109
40
0.0
41
0.0
42
0.0
10
67.0177001953125
20
80.5242004394531
40
0.0
41
0.0
42
0.0
10
67.1286010742188
20
80.5491027832031
40
0.0
41
0.0
42
0.0
10
67.1572036743164
20
80.5580978393555
40
0.0
41
0.0
42
0.0
10
67.5129013061523
20
80.7289962768555
40
0.0
41
0.0
42
0.0
10
67.6589965820312
20
80.763298034668
40
0.0
41
0.0
42
0.0
10
68.0140991210938
20
80.8896026611328
40
0.0
41
0.0
42
0.0
10
68.1595993041992
20
80.9229965209961
40
0.0
41
0.0
42
0.0
10
68.5145034790039
20
81.0297012329102
40
0.0
41
0.0
42
0.0
10
68.6596984863281
20
81.0643997192383
40
0.0
41
0.0
42
0.0
10
69.0139007568359
20
81.1626968383789
40
0.0
41
0.0
42
0.0
10
69.5111999511719
20
81.3262023925781
40
0.0
41
0.0
42
0.0
10
69.6549987792969
20
81.4126968383789
40
0.0
41
0.0
42
0.0
10
69.8268966674805
20
81.4961013793945
40
0.0
41
0.0
42
0.0
10
70.0065002441406
20
81.6088027954102
40
0.0
41
0.0
42
0.0
10
70.2341003417969
20
81.848503112793
40
0.0
41
0.0
42
0.0
10
70.3466033935547
20
81.9919967651367
40
0.0
41
0.0
42
0.0
10
70.3757019042969
20
82.0385971069336
40
0.0
41
0.0
42
0.0
10
70.5026016235352
20
82.2005004882812
40
0.0
41
0.0
42
0.0
10
70.6182022094727
20
82.3917007446289
40
0.0
41
0.0
42
0.0
10
70.6692962646484
20
82.4903030395508
40
0.0
41
0.0
42
0.0
10
70.9105987548828
20
82.8852005004883
40
0.0
41
0.0
42
0.0
10
70.9610977172852
20
82.9841995239258
40
0.0
41
0.0
42
0.0
10
70.978401184082
20
83.0217971801758
40
0.0
41
0.0
42
0.0
10
71.002197265625
20
83.0613021850586
40
0.0
41
0.0
42
0.0
10
71.2376022338867
20
83.4177017211914
40
0.0
41
0.0
42
0.0
10
71.2763977050781
20
83.4896011352539
40
0.0
41
0.0
42
0.0
10
71.328498840332
20
83.5963973999023
40
0.0
41
0.0
42
0.0
10
71.3575973510742
20
83.6318969726562
40
0.0
41
0.0
42
0.0
10
71.5035018920898
20
83.8486022949219
40
0.0
41
0.0
42
0.0
10
71.6402969360352
20
83.9909973144531
40
0.0
41
0.0
42
0.0
10
71.6741027832031
20
84.097297668457
40
0.0
41
0.0
42
0.0
10
71.8468017578125
20
84.2372970581055
40
0.0
41
0.0
42
0.0
10
72.0071029663086
20
84.4185028076172
40
0.0
41
0.0
42
0.0
10
72.1731033325195
20
84.4979019165039
40
0.0
41
0.0
42
0.0
10
72.3856964111328
20
84.6607971191406
40
0.0
41
0.0
42
0.0
10
72.5007019042969
20
84.7382965087891
40
0.0
41
0.0
42
0.0
10
72.5695037841797
20
84.6992034912109
40
0.0
41
0.0
42
0.0
10
72.5919036865234
20
84.6816024780273
40
0.0
41
0.0
42
0.0
10
72.9896011352539
20
84.6906967163086
40
0.0
41
0.0
42
0.0
10
73.0711975097656
20
84.6047973632812
40
0.0
41
0.0
42
0.0
10
73.3718032836914
20
84.5001983642578
40
0.0
41
0.0
42
0.0
10
73.4511032104492
20
84.4844970703125
40
0.0
41
0.0
42
0.0
10
73.489501953125
20
84.4683990478516
40
0.0
41
0.0
42
0.0
10
73.6343994140625
20
84.3796997070312
40
0.0
41
0.0
42
0.0
10
73.988899230957
20
84.2380981445312
40
0.0
41
0.0
42
0.0
10
74.3460998535156
20
84.0444030761719
40
0.0
41
0.0
42
0.0
10
74.4030990600586
20
84.0028991699219
40
0.0
41
0.0
42
0.0
10
74.845703125
20
83.7488021850586
40
0.0
41
0.0
42
0.0
10
74.9904022216797
20
83.6591033935547
40
0.0
41
0.0
42
0.0
10
75.2975997924805
20
83.4981002807617
40
0.0
41
0.0
42
0.0
10
75.3515014648438
20
83.4648971557617
40
0.0
41
0.0
42
0.0
10
75.4873962402344
20
83.3939971923828
40
0.0
41
0.0
42
0.0
10
75.6312026977539
20
83.3581008911133
40
0.0
41
0.0
42
0.0
10
75.9838027954102
20
83.2244033813477
40
0.0
41
0.0
42
0.0
10
76.019401550293
20
83.2242965698242
40
0.0
41
0.0
42
0.0
10
76.1426010131836
20
83.2311019897461
40
0.0
41
0.0
42
0.0
10
76.4806976318359
20
83.2072982788086
40
0.0
41
0.0
42
0.0
10
76.5173034667969
20
83.2071990966797
40
0.0
41
0.0
42
0.0
10
76.6607971191406
20
83.2434997558594
40
0.0
41
0.0
42
0.0
10
77.0150985717773
20
83.2985000610352
40
0.0
41
0.0
42
0.0
10
77.1458969116211
20
83.3407974243164
40
0.0
41
0.0
42
0.0
10
77.7451019287109
20
83.4878997802734
40
0.0
41
0.0
42
0.0
10
77.7834014892578
20
83.4998016357422
40
0.0
41
0.0
42
0.0
10
77.8494033813477
20
83.5245971679688
40
0.0
41
0.0
42
0.0
10
78.013801574707
20
83.5668029785156
40
0.0
41
0.0
42
0.0
10
78.1192016601562
20
83.6037979125977
40
0.0
41
0.0
42
0.0
10
78.5142974853516
20
83.6884994506836
40
0.0
41
0.0
42
0.0
10
78.6201019287109
20
83.7248001098633
40
0.0
41
0.0
42
0.0
10
79.0185012817383
20
83.7788009643555
40
0.0
41
0.0
42
0.0
10
79.4121017456055
20
83.7809982299805
40
0.0
41
0.0
42
0.0
10
79.5161972045898
20
83.809700012207
40
0.0
41
0.0
42
0.0
10
79.6650009155273
20
83.8228988647461
40
0.0
41
0.0
42
0.0
10
79.9929962158203
20
83.7182998657227
40
0.0
41
0.0
42
0.0
10
80.1134033203125
20
83.5484008789062
40
0.0
41
0.0
42
0.0
10
80.1724014282227
20
83.4946975708008
40
0.0
41
0.0
42
0.0
10
80.4949035644531
20
83.1346969604492
40
0.0
41
0.0
42
0.0
10
80.5102996826172
20
83.1203994750977
40
0.0
41
0.0
42
0.0
10
80.5243988037109
20
83.0896987915039
40
0.0
41
0.0
42
0.0
10
80.5241012573242
20
82.9822006225586
40
0.0
41
0.0
42
0.0
10
80.5491027832031
20
82.8712005615234
40
0.0
41
0.0
42
0.0
10
80.5580978393555
20
82.8426971435547
40
0.0
41
0.0
42
0.0
10
80.7288970947266
20
82.4869995117188
40
0.0
41
0.0
42
0.0
10
80.7631988525391
20
82.3408966064453
40
0.0
41
0.0
42
0.0
10
80.8896026611328
20
81.9858016967773
40
0.0
41
0.0
42
0.0
10
80.9228973388672
20
81.8403015136719
40
0.0
41
0.0
42
0.0
10
81.0297012329102
20
81.4853973388672
40
0.0
41
0.0
42
0.0
10
81.0643997192383
20
81.340202331543
40
0.0
41
0.0
42
0.0
10
81.1626968383789
20
80.9860000610352
40
0.0
41
0.0
42
0.0
10
81.3262023925781
20
80.4887008666992
40
0.0
41
0.0
42
0.0
10
81.41259765625
20
80.3449020385742
40
0.0
41
0.0
42
0.0
10
81.4961013793945
20
80.1728973388672
40
0.0
41
0.0
42
0.0
10
81.6088027954102
20
79.9933013916016
40
0.0
41
0.0
42
0.0
10
81.848503112793
20
79.7656021118164
40
0.0
41
0.0
42
0.0
10
81.9919967651367
20
79.6531982421875
40
0.0
41
0.0
42
0.0
10
82.0384979248047
20
79.6240005493164
40
0.0
41
0.0
42
0.0
10
82.2004013061523
20
79.497200012207
40
0.0
41
0.0
42
0.0
10
82.3916015625
20
79.3815002441406
40
0.0
41
0.0
42
0.0
10
82.6043014526367
20
79.2723999023438
40
0.0
41
0.0
42
0.0
10
82.9897994995117
20
79.036003112793
40
0.0
41
0.0
42
0.0
10
83.0216979980469
20
79.0214004516602
40
0.0
41
0.0
42
0.0
10
83.0612030029297
20
78.9977035522461
40
0.0
41
0.0
42
0.0
10
83.4177017211914
20
78.7621002197266
40
0.0
41
0.0
42
0.0
10
83.489501953125
20
78.7233963012695
40
0.0
41
0.0
42
0.0
10
83.5962982177734
20
78.6712036132812
40
0.0
41
0.0
42
0.0
10
83.6318969726562
20
78.6420974731445
40
0.0
41
0.0
42
0.0
10
83.848503112793
20
78.4962997436523
40
0.0
41
0.0
42
0.0
10
83.993896484375
20
78.3565979003906
40
0.0
41
0.0
42
0.0
10
84.2357025146484
20
78.1541976928711
40
0.0
41
0.0
42
0.0
10
84.4185028076172
20
77.9927978515625
40
0.0
41
0.0
42
0.0
10
84.4979019165039
20
77.8265991210938
40
0.0
41
0.0
42
0.0
10
84.6607971191406
20
77.6140975952148
40
0.0
41
0.0
42
0.0
10
84.7384033203125
20
77.4991989135742
40
0.0
41
0.0
42
0.0
10
84.6992034912109
20
77.4301986694336
40
0.0
41
0.0
42
0.0
10
84.6816024780273
20
77.4078979492188
40
0.0
41
0.0
42
0.0
10
84.690803527832
20
77.0102005004883
40
0.0
41
0.0
42
0.0
10
84.6047973632812
20
76.9284973144531
40
0.0
41
0.0
42
0.0
10
84.5001983642578
20
76.6280975341797
40
0.0
41
0.0
42
0.0
10
84.4844970703125
20
76.5487976074219
40
0.0
41
0.0
42
0.0
10
84.4683990478516
20
76.5102996826172
40
0.0
41
0.0
42
0.0
10
84.3796997070312
20
76.3655014038086
40
0.0
41
0.0
42
0.0
10
84.2381973266602
20
76.0110015869141
40
0.0
41
0.0
42
0.0
10
84.0444030761719
20
75.6537017822266
40
0.0
41
0.0
42
0.0
10
84.0028991699219
20
75.5966033935547
40
0.0
41
0.0
42
0.0
10
83.9515991210938
20
75.5093994140625
40
0.0
41
0.0
42
0.0
10
83.7489013671875
20
75.1541976928711
40
0.0
41
0.0
42
0.0
10
83.6591033935547
20
75.0094985961914
40
0.0
41
0.0
42
0.0
10
83.4981994628906
20
74.7022018432617
40
0.0
41
0.0
42
0.0
10
83.4648971557617
20
74.6483001708984
40
0.0
41
0.0
42
0.0
10
83.3940963745117
20
74.5124969482422
40
0.0
41
0.0
42
0.0
10
83.3581008911133
20
74.3686981201172
40
0.0
41
0.0
42
0.0
10
83.2244033813477
20
74.0160980224609
40
0.0
41
0.0
42
0.0
10
83.2242965698242
20
73.9804992675781
40
0.0
41
0.0
42
0.0
10
83.2311019897461
20
73.8572998046875
40
0.0
41
0.0
42
0.0
10
83.2072982788086
20
73.5192031860352
40
0.0
41
0.0
42
0.0
10
83.2071990966797
20
73.4825973510742
40
0.0
41
0.0
42
0.0
10
83.2434997558594
20
73.3391036987305
40
0.0
41
0.0
42
0.0
10
83.2985000610352
20
72.9848022460938
40
0.0
41
0.0
42
0.0
10
83.3407974243164
20
72.8539962768555
40
0.0
41
0.0
42
0.0
10
83.4878005981445
20
72.2546997070312
40
0.0
41
0.0
42
0.0
10
83.4997024536133
20
72.2163009643555
40
0.0
41
0.0
42
0.0
10
83.5245971679688
20
72.1503982543945
40
0.0
41
0.0
42
0.0
10
83.5667037963867
20
71.9860000610352
40
0.0
41
0.0
42
0.0
10
83.6037979125977
20
71.8805999755859
40
0.0
41
0.0
42
0.0
10
83.6884994506836
20
71.4856033325195
40
0.0
41
0.0
42
0.0
10
83.7248001098633
20
71.3797988891602
40
0.0
41
0.0
42
0.0
10
83.7788009643555
20
70.9813995361328
40
0.0
41
0.0
42
0.0
10
83.7809982299805
20
70.5877990722656
40
0.0
41
0.0
42
0.0
10
83.809700012207
20
70.4837036132812
40
0.0
41
0.0
42
0.0
10
83.8228988647461
20
70.3348007202148
40
0.0
41
0.0
42
0.0
10
83.7182998657227
20
70.0068969726562
40
0.0
41
0.0
42
0.0
10
83.5485000610352
20
69.8862991333008
40
0.0
41
0.0
42
0.0
10
83.4947967529297
20
69.8274002075195
40
0.0
41
0.0
42
0.0
10
83.1346969604492
20
69.504997253418
40
0.0
41
0.0
42
0.0
10
83.1204986572266
20
69.4894027709961
40
0.0
41
0.0
42
0.0
10
83.0896987915039
20
69.4753036499023
40
0.0
41
0.0
42
0.0
10
82.9847030639648
20
69.4755020141602
40
0.0
41
0.0
42
0.0
10
82.617301940918
20
69.2990036010742
40
0.0
41
0.0
42
0.0
10
82.4857025146484
20
69.2705993652344
40
0.0
41
0.0
42
0.0
10
82.1308975219727
20
69.1443023681641
40
0.0
41
0.0
42
0.0
10
81.8404006958008
20
69.0768966674805
40
0.0
41
0.0
42
0.0
10
81.4853973388672
20
68.9700012207031
40
0.0
41
0.0
42
0.0
10
81.340202331543
20
68.9354019165039
40
0.0
41
0.0
42
0.0
10
80.9860992431641
20
68.8369979858398
40
0.0
41
0.0
42
0.0
10
80.4887008666992
20
68.6735000610352
40
0.0
41
0.0
42
0.0
10
80.3450012207031
20
68.5870971679688
40
0.0
41
0.0
42
0.0
10
80.1728973388672
20
68.5037002563477
40
0.0
41
0.0
42
0.0
10
79.9934005737305
20
68.390998840332
40
0.0
41
0.0
42
0.0
10
79.7656021118164
20
68.1511993408203
40
0.0
41
0.0
42
0.0
10
79.6531982421875
20
68.0078964233398
40
0.0
41
0.0
42
0.0
10
79.6240997314453
20
67.9613037109375
40
0.0
41
0.0
42
0.0
10
79.497200012207
20
67.7993011474609
40
0.0
41
0.0
42
0.0
10
79.3815002441406
20
67.6081008911133
40
0.0
41
0.0
42
0.0
10
79.2724990844727
20
67.3955001831055
40
0.0
41
0.0
42
0.0
10
79.036003112793
20
67.0101013183594
40
0.0
41
0.0
42
0.0
10
79.0214004516602
20
66.9781036376953
40
0.0
41
0.0
42
0.0
10
78.9977035522461
20
66.9385986328125
40
0.0
41
0.0
42
0.0
10
78.7621002197266
20
66.5820999145508
40
0.0
41
0.0
42
0.0
10
78.7233963012695
20
66.5103988647461
40
0.0
41
0.0
42
0.0
10
78.6712036132812
20
66.4036026000977
40
0.0
41
0.0
42
0.0
10
78.6420974731445
20
66.3678970336914
40
0.0
41
0.0
42
0.0
10
78.4963989257812
20
66.1512985229492
40
0.0
41
0.0
42
0.0
10
78.3601989746094
20
66.0098037719727
40
0.0
41
0.0
42
0.0
10
78.3477020263672
20
65.9497985839844
40
0.0
41
0.0
42
0.0
10
78.3252029418945
20
65.9031982421875
40
0.0
41
0.0
42
0.0
10
78.0776977539062
20
65.6230010986328
40
0.0
41
0.0
42
0.0
10
77.8266983032227
20
65.5019989013672
40
0.0
41
0.0
42
0.0
10
77.6140975952148
20
65.3391036987305
40
0.0
41
0.0
42
0.0
10
77.4991989135742
20
65.2612991333008
40
0.0
41
0.0
42
0.0
10
77.4301986694336
20
65.3004989624023
40
0.0
41
0.0
42
0.0
10
77.4078979492188
20
65.3180999755859
40
0.0
41
0.0
42
0.0
10
77.0102005004883
20
65.3089981079102
40
0.0
41
0.0
42
0.0
10
76.9284973144531
20
65.3948974609375
40
0.0
41
0.0
42
0.0
10
76.6279983520508
20
65.4994964599609
40
0.0
41
0.0
42
0.0
10
76.5488967895508
20
65.5151977539062
40
0.0
41
0.0
42
0.0
10
76.155403137207
20
65.6728973388672
40
0.0
41
0.0
42
0.0
10
76.0093994140625
20
65.7623977661133
40
0.0
41
0.0
42
0.0
10
75.6537017822266
20
65.9552993774414
40
0.0
41
0.0
42
0.0
10
75.5966033935547
20
65.9969024658203
40
0.0
41
0.0
42
0.0
10
75.5093994140625
20
66.0481033325195
40
0.0
41
0.0
42
0.0
10
75.1541976928711
20
66.2508010864258
40
0.0
41
0.0
42
0.0
10
75.0094985961914
20
66.3405990600586
40
0.0
41
0.0
42
0.0
10
74.7021026611328
20
66.5016021728516
40
0.0
41
0.0
42
0.0
10
74.6482009887695
20
66.534797668457
40
0.0
41
0.0
42
0.0
10
74.5112991333008
20
66.6063003540039
40
0.0
41
0.0
42
0.0
10
74.1586990356445
20
66.7400970458984
40
0.0
41
0.0
42
0.0
10
74.0166015625
20
66.7755966186523
40
0.0
41
0.0
42
0.0
10
73.6641998291016
20
66.8005981445312
40
0.0
41
0.0
42
0.0
10
73.625602722168
20
66.8004989624023
40
0.0
41
0.0
42
0.0
10
73.4821014404297
20
66.7926025390625
40
0.0
41
0.0
42
0.0
10
73.1290969848633
20
66.7378997802734
40
0.0
41
0.0
42
0.0
10
72.6306991577148
20
66.6141967773438
40
0.0
41
0.0
42
0.0
10
72.4856033325195
20
66.5681991577148
40
0.0
41
0.0
42
0.0
10
72.2546005249023
20
66.5119018554688
40
0.0
41
0.0
42
0.0
10
72.2164001464844
20
66.5
40
0.0
41
0.0
42
0.0
10
72.1503982543945
20
66.47509765625
40
0.0
41
0.0
42
0.0
10
71.9848022460938
20
66.4326019287109
40
0.0
41
0.0
42
0.0
10
71.5906982421875
20
66.3480987548828
40
0.0
41
0.0
42
0.0
10
71.4849014282227
20
66.3108978271484
40
0.0
41
0.0
42
0.0
10
71.0897979736328
20
66.2573013305664
40
0.0
41
0.0
42
0.0
10
70.9834976196289
20
66.2209014892578
40
0.0
41
0.0
42
0.0
10
70.5877990722656
20
66.2186965942383
40
0.0
41
0.0
42
0.0
10
70.4837036132812
20
66.1900024414062
40
0.0
41
0.0
42
0.0
10
70.3348007202148
20
66.1768035888672
40
0.0
41
0.0
42
0.0
10
70.0067977905273
20
66.2814025878906
40
0.0
41
0.0
42
0.0
10
69.8862991333008
20
66.4514007568359
40
0.0
41
0.0
42
0.0
10
69.8273010253906
20
66.5050964355469
40
0.0
41
0.0
42
0.0
10
69.504997253418
20
66.8650970458984
40
0.0
41
0.0
42
0.0
10
69.4894027709961
20
66.8793029785156
40
0.0
41
0.0
42
0.0
10
69.4753036499023
20
66.9101028442383
40
0.0
41
0.0
42
0.0
10
69.4755020141602
20
67.0151977539062
40
0.0
41
0.0
42
0.0
10
69.2990036010742
20
67.3825988769531
40
0.0
41
0.0
42
0.0
10
69.2705993652344
20
67.5141983032227
40
0.0
41
0.0
42
0.0
10
69.1443023681641
20
67.8690032958984
40
0.0
41
0.0
42
0.0
10
69.0767974853516
20
68.1595001220703
40
0.0
41
0.0
42
0.0
10
68.9700012207031
20
68.5145034790039
40
0.0
41
0.0
42
0.0
10
68.935302734375
20
68.6596984863281
40
0.0
41
0.0
42
0.0
10
68.8369979858398
20
69.013801574707
40
0.0
41
0.0
42
0.0
10
68.6735000610352
20
69.511100769043
40
0.0
41
0.0
42
0.0
10
68.5870971679688
20
69.654899597168
40
0.0
41
0.0
42
0.0
10
68.5036010742188
20
69.8267974853516
40
0.0
41
0.0
42
0.0
10
68.3908996582031
20
70.0065002441406
40
0.0
41
0.0
42
0.0
10
68.1511993408203
20
70.2341995239258
40
0.0
41
0.0
42
0.0
10
68.0077972412109
20
70.3464965820312
40
0.0
41
0.0
42
0.0
10
67.9611968994141
20
70.3757019042969
40
0.0
41
0.0
42
0.0
10
67.7993011474609
20
70.5026016235352
40
0.0
41
0.0
42
0.0
10
67.6080017089844
20
70.6182022094727
40
0.0
41
0.0
42
0.0
10
67.5095977783203
20
70.6692962646484
40
0.0
41
0.0
42
0.0
10
67.1147003173828
20
70.9105987548828
40
0.0
41
0.0
42
0.0
10
67.0108032226562
20
70.9633026123047
40
0.0
41
0.0
42
0.0
10
66.9779968261719
20
70.9783020019531
40
0.0
41
0.0
42
0.0
10
66.9384994506836
20
71.0020980834961
40
0.0
41
0.0
42
0.0
10
66.5820007324219
20
71.2376022338867
40
0.0
41
0.0
42
0.0
10
66.5102996826172
20
71.2762985229492
40
0.0
41
0.0
42
0.0
10
66.4035034179688
20
71.328498840332
40
0.0
41
0.0
42
0.0
10
66.3677978515625
20
71.3575973510742
40
0.0
41
0.0
42
0.0
10
66.1512985229492
20
71.5035018920898
40
0.0
41
0.0
42
0.0
10
66.0096969604492
20
71.6395034790039
40
0.0
41
0.0
42
0.0
10
65.9497985839844
20
71.6520004272461
40
0.0
41
0.0
42
0.0
10
65.9031982421875
20
71.6744995117188
40
0.0
41
0.0
42
0.0
10
65.6230010986328
20
71.9219970703125
40
0.0
41
0.0
42
0.0
10
65.5018997192383
20
72.1731033325195
40
0.0
41
0.0
42
0.0
10
65.3391036987305
20
72.3856964111328
40
0.0
41
0.0
42
0.0
10
65.2612991333008
20
72.5007019042969
40
0.0
41
0.0
42
0.0
10
65.3004989624023
20
72.5696029663086
40
0.0
41
0.0
42
0.0
10
65.3182983398438
20
72.5923004150391
40
0.0
41
0.0
42
0.0
210
0.0
220
0.0
230
1.0
0
LWPOLYLINE
5
25
330
1C
100
AcDbEntity
67
0
8
0
62
256
6
ByLayer
370
-1
48
1.0
60
0
100
AcDbPolyline
90
41
70
1
38
0.0
39
0.0
10
66.247200012207
20
65.488899230957
40
0.0
41
0.0
42
0.0
10
66.304801940918
20
65.578498840332
40
0.0
41
0.0
42
0.0
10
66.5128021240234
20
65.7024993896484
40
0.0
41
0.0
42
0.0
10
66.910400390625
20
65.7615966796875
40
0.0
41
0.0
42
0.0
10
67.0164031982422
20
65.7932968139648
40
0.0
41
0.0
42
0.0
10
67.1448974609375
20
65.7990036010742
40
0.0
41
0.0
42
0.0
10
67.4800033569336
20
65.7955017089844
40
0.0
41
0.0
42
0.0
10
67.6210021972656
20
65.796501159668
40
0.0
41
0.0
42
0.0
10
67.9804992675781
20
65.7725982666016
40
0.0
41
0.0
42
0.0
10
68.1279983520508
20
65.7750015258789
40
0.0
41
0.0
42
0.0
10
68.4811019897461
20
65.7362976074219
40
0.0
41
0.0
42
0.0
10
68.519401550293
20
65.736198425293
40
0.0
41
0.0
42
0.0
10
68.6417999267578
20
65.7431030273438
40
0.0
41
0.0
42
0.0
10
68.9857025146484
20
65.6654968261719
40
0.0
41
0.0
42
0.0
10
69.4615020751953
20
65.5003967285156
40
0.0
41
0.0
42
0.0
10
69.4919967651367
20
65.4865036010742
40
0.0
41
0.0
42
0.0
10
69.9879989624023
20
65.0009994506836
40
0.0
41
0.0
42
0.0
10
70.0753021240234
20
65.0009994506836
40
0.0
41
0.0
42
0.0
10
70.0751037597656
20
65.0161972045898
40
0.0
41
0.0
42
0.0
10
70.0570983886719
20
65.0653991699219
40
0.0
41
0.0
42
0.0
10
70.0042037963867
20
65.13330078125
40
0.0
41
0.0
42
0.0
10
69.6147994995117
20
65.508903503418
40
0.0
41
0.0
42
0.0
10
69.5933990478516
20
65.5885009765625
40
0.0
41
0.0
42
0.0
10
69.5699005126953
20
65.5884017944336
40
0.0
41
0.0
42
0.0
10
69.4822006225586
20
65.5841979980469
40
0.0
41
0.0
42
0.0
10
69.431999206543
20
65.575798034668
40
0.0
41
0.0
42
0.0
10
69.0141983032227
20
65.7209014892578
40
0.0
41
0.0
42
0.0
10
68.7276000976562
20
65.7855987548828
40
0.0
41
0.0
42
0.0
10
68.6905975341797
20
65.7854995727539
40
0.0
41
0.0
42
0.0
10
68.5057983398438
20
65.7751007080078
40
0.0
41
0.0
42
0.0
10
68.2128982543945
20
65.8072967529297
40
0.0
41
0.0
42
0.0
10
68.0093002319336
20
65.8034973144531
40
0.0
41
0.0
42
0.0
10
67.7061996459961
20
65.823600769043
40
0.0
41
0.0
42
0.0
10
67.500602722168
20
65.8220977783203
40
0.0
41
0.0
42
0.0
10
67.1640014648438
20
65.8252029418945
40
0.0
41
0.0
42
0.0
10
66.9834976196289
20
65.8172988891602
40
0.0
41
0.0
42
0.0
10
66.8395004272461
20
65.7742004394531
40
0.0
41
0.0
42
0.0
10
66.4870986938477
20
65.7219009399414
40
0.0
41
0.0
42
0.0
10
66.3150024414062
20
65.6193008422852
40
0.0
41
0.0
42
0.0
10
66.2472991943359
20
65.513801574707
40
0.0
41
0.0
42
0.0
10
66.247200012207
20
65.488899230957
40
0.0
41
0.0
42
0.0
210
0.0
220
0.0
230
1.0
0
LWPOLYLINE
5
26
330
1C
100
AcDbEntity
67
0
8
0
62
256
6
ByLayer
370
-1
48
1.0
60
0
100
AcDbPolyline
90
7
70
1
38
0.0
39
0.0
10
66.2502975463867
20
65.4065017700195
40
0.0
41
0.0
42
0.0
10
66.1253967285156
20
65.0167007446289
40
0.0
41
0.0
42
0.0
10
66.1253967285156
20
65.0009002685547
40
0.0
41
0.0
42
0.0
10
66.1436004638672
20
65.0009002685547
40
0.0
41
0.0
42
0.0
10
66.2518997192383
20
65.3382034301758
40
0.0
41
0.0
42
0.0
10
66.2518005371094
20
65.3744964599609
40
0.0
41
0.0
42
0.0
10
66.2502975463867
20
65.4065017700195
40
0.0
41
0.0
42
0.0
210
0.0
220
0.0
230
1.0
0
LWPOLYLINE
5
27
330
1C
100
AcDbEntity
67
0
8
0
62
256
6
ByLayer
370
-1
48
1.0
60
0
100
AcDbPolyline
90
173
70
1
38
0.0
39
0.0
10
69.4644012451172
20
75.4869995117188
40
0.0
41
0.0
42
0.0
10
69.4971008300781
20
75.4439010620117
40
0.0
41
0.0
42
0.0
10
69.7270965576172
20
75.0955963134766
40
0.0
41
0.0
42
0.0
10
69.7801971435547
20
74.9933013916016
40
0.0
41
0.0
42
0.0
10
70.0869979858398
20
74.7360992431641
40
0.0
41
0.0
42
0.0
10
70.4050979614258
20
74.4960021972656
40
0.0
41
0.0
42
0.0
10
70.4825973510742
20
74.4250030517578
40
0.0
41
0.0
42
0.0
10
70.5986022949219
20
74.3302993774414
40
0.0
41
0.0
42
0.0
10
70.9781036376953
20
73.9906997680664
40
0.0
41
0.0
42
0.0
10
70.9713973999023
20
73.8628997802734
40
0.0
41
0.0
42
0.0
10
70.9226989746094
20
73.5133972167969
40
0.0
41
0.0
42
0.0
10
70.9101028442383
20
73.4896011352539
40
0.0
41
0.0
42
0.0
10
70.8751983642578
20
73.4064025878906
40
0.0
41
0.0
42
0.0
10
70.686897277832
20
73.0120010375977
40
0.0
41
0.0
42
0.0
10
70.6507034301758
20
72.9076995849609
40
0.0
41
0.0
42
0.0
10
70.4988021850586
20
72.5146026611328
40
0.0
41
0.0
42
0.0
10
70.4710006713867
20
72.3264007568359
40
0.0
41
0.0
42
0.0
10
70.4209976196289
20
72.0183029174805
40
0.0
41
0.0
42
0.0
10
70.4208984375
20
71.9834976196289
40
0.0
41
0.0
42
0.0
10
70.5205001831055
20
71.6947021484375
40
0.0
41
0.0
42
0.0
10
70.5952987670898
20
71.5966033935547
40
0.0
41
0.0
42
0.0
10
70.6544036865234
20
71.496696472168
40
0.0
41
0.0
42
0.0
10
70.9675979614258
20
71.3681030273438
40
0.0
41
0.0
42
0.0
10
70.986701965332
20
71.3581008911133
40
0.0
41
0.0
42
0.0
10
71.0871963500977
20
71.3413009643555
40
0.0
41
0.0
42
0.0
10
71.4804992675781
20
71.3218994140625
40
0.0
41
0.0
42
0.0
10
71.5192031860352
20
71.3218002319336
40
0.0
41
0.0
42
0.0
10
71.6229019165039
20
71.3294982910156
40
0.0
41
0.0
42
0.0
10
72.0168991088867
20
71.3766021728516
40
0.0
41
0.0
42
0.0
10
72.5128021240234
20
71.461799621582
40
0.0
41
0.0
42
0.0
10
72.5882034301758
20
71.4597015380859
40
0.0
41
0.0
42
0.0
10
72.9934005737305
20
71.3435974121094
40
0.0
41
0.0
42
0.0
10
73.0616989135742
20
71.2352981567383
40
0.0
41
0.0
42
0.0
10
73.1752014160156
20
70.9880981445312
40
0.0
41
0.0
42
0.0
10
73.3280029296875
20
70.5931015014648
40
0.0
41
0.0
42
0.0
10
73.3761978149414
20
70.4885025024414
40
0.0
41
0.0
42
0.0
10
73.5054016113281
20
70.1947021484375
40
0.0
41
0.0
42
0.0
10
73.625602722168
20
69.9919967651367
40
0.0
41
0.0
42
0.0
10
73.9477005004883
20
69.5986022949219
40
0.0
41
0.0
42
0.0
10
73.9675979614258
20
69.576301574707
40
0.0
41
0.0
42
0.0
10
73.9919967651367
20
69.543098449707
40
0.0
41
0.0
42
0.0
10
74.2429962158203
20
69.4924011230469
40
0.0
41
0.0
42
0.0
10
74.481201171875
20
69.4645004272461
40
0.0
41
0.0
42
0.0
10
74.5129013061523
20
69.4644012451172
40
0.0
41
0.0
42
0.0
10
74.5559005737305
20
69.4971008300781
40
0.0
41
0.0
42
0.0
10
74.904296875
20
69.7272033691406
40
0.0
41
0.0
42
0.0
10
75.0065994262695
20
69.7801971435547
40
0.0
41
0.0
42
0.0
10
75.2636032104492
20
70.0869979858398
40
0.0
41
0.0
42
0.0
10
75.5037994384766
20
70.4051971435547
40
0.0
41
0.0
42
0.0
10
75.5747985839844
20
70.4826965332031
40
0.0
41
0.0
42
0.0
10
75.6695022583008
20
70.5986022949219
40
0.0
41
0.0
42
0.0
10
76.0092010498047
20
70.9781036376953
40
0.0
41
0.0
42
0.0
10
76.1369018554688
20
70.9713973999023
40
0.0
41
0.0
42
0.0
10
76.4865036010742
20
70.9226989746094
40
0.0
41
0.0
42
0.0
10
76.5102996826172
20
70.9101028442383
40
0.0
41
0.0
42
0.0
10
76.5934982299805
20
70.8751983642578
40
0.0
41
0.0
42
0.0
10
76.9878997802734
20
70.6867980957031
40
0.0
41
0.0
42
0.0
10
77.0921020507812
20
70.6507034301758
40
0.0
41
0.0
42
0.0
10
77.4852981567383
20
70.4988021850586
40
0.0
41
0.0
42
0.0
10
77.6734008789062
20
70.4710006713867
40
0.0
41
0.0
42
0.0
10
77.9815979003906
20
70.4209976196289
40
0.0
41
0.0
42
0.0
10
78.0164031982422
20
70.4208984375
40
0.0
41
0.0
42
0.0
10
78.3051986694336
20
70.5205993652344
40
0.0
41
0.0
42
0.0
10
78.4031982421875
20
70.5952987670898
40
0.0
41
0.0
42
0.0
10
78.5031967163086
20
70.6545028686523
40
0.0
41
0.0
42
0.0
10
78.6315994262695
20
70.9676971435547
40
0.0
41
0.0
42
0.0
10
78.6410980224609
20
70.9856033325195
40
0.0
41
0.0
42
0.0
10
78.6605987548828
20
71.377197265625
40
0.0
41
0.0
42
0.0
10
78.6781005859375
20
71.4816970825195
40
0.0
41
0.0
42
0.0
10
78.6780014038086
20
71.5186996459961
40
0.0
41
0.0
42
0.0
10
78.6308975219727
20
71.9129028320312
40
0.0
41
0.0
42
0.0
10
78.6231002807617
20
72.0174026489258
40
0.0
41
0.0
42
0.0
10
78.5410003662109
20
72.4965972900391
40
0.0
41
0.0
42
0.0
10
78.6501998901367
20
72.8781967163086
40
0.0
41
0.0
42
0.0
10
78.6535034179688
20
72.99169921875
40
0.0
41
0.0
42
0.0
10
78.7645034790039
20
73.0616989135742
40
0.0
41
0.0
42
0.0
10
79.0118026733398
20
73.1752014160156
40
0.0
41
0.0
42
0.0
10
79.4067993164062
20
73.3280029296875
40
0.0
41
0.0
42
0.0
10
79.5112991333008
20
73.3761978149414
40
0.0
41
0.0
42
0.0
10
79.8050003051758
20
73.505500793457
40
0.0
41
0.0
42
0.0
10
80.0078964233398
20
73.625602722168
40
0.0
41
0.0
42
0.0
10
80.4012985229492
20
73.9477005004883
40
0.0
41
0.0
42
0.0
10
80.4235000610352
20
73.9676971435547
40
0.0
41
0.0
42
0.0
10
80.4565963745117
20
73.9921035766602
40
0.0
41
0.0
42
0.0
10
80.5073013305664
20
74.2429962158203
40
0.0
41
0.0
42
0.0
10
80.535400390625
20
74.481201171875
40
0.0
41
0.0
42
0.0
10
80.5353012084961
20
74.5129013061523
40
0.0
41
0.0
42
0.0
10
80.5027008056641
20
74.5559005737305
40
0.0
41
0.0
42
0.0
10
80.2725982666016
20
74.904296875
40
0.0
41
0.0
42
0.0
10
80.2194976806641
20
75.0065002441406
40
0.0
41
0.0
42
0.0
10
79.9126968383789
20
75.2636032104492
40
0.0
41
0.0
42
0.0
10
79.5947036743164
20
75.5037994384766
40
0.0
41
0.0
42
0.0
10
79.5170974731445
20
75.5746994018555
40
0.0
41
0.0
42
0.0
10
79.4011993408203
20
75.6694030761719
40
0.0
41
0.0
42
0.0
10
79.021598815918
20
76.0092010498047
40
0.0
41
0.0
42
0.0
10
79.0282974243164
20
76.1370010375977
40
0.0
41
0.0
42
0.0
10
79.0770034790039
20
76.4865036010742
40
0.0
41
0.0
42
0.0
10
79.089599609375
20
76.5102996826172
40
0.0
41
0.0
42
0.0
10
79.1246032714844
20
76.5935974121094
40
0.0
41
0.0
42
0.0
10
79.3128967285156
20
76.9879989624023
40
0.0
41
0.0
42
0.0
10
79.3490982055664
20
77.0922012329102
40
0.0
41
0.0
42
0.0
10
79.5009002685547
20
77.4852981567383
40
0.0
41
0.0
42
0.0
10
79.5287017822266
20
77.6734008789062
40
0.0
41
0.0
42
0.0
10
79.5789031982422
20
77.9815979003906
40
0.0
41
0.0
42
0.0
10
79.5787963867188
20
78.0164031982422
40
0.0
41
0.0
42
0.0
10
79.4792022705078
20
78.3051986694336
40
0.0
41
0.0
42
0.0
10
79.4044036865234
20
78.4031982421875
40
0.0
41
0.0
42
0.0
10
79.3452987670898
20
78.5030975341797
40
0.0
41
0.0
42
0.0
10
79.032096862793
20
78.6316986083984
40
0.0
41
0.0
42
0.0
10
79.0142974853516
20
78.6410980224609
40
0.0
41
0.0
42
0.0
10
78.6227035522461
20
78.6604995727539
40
0.0
41
0.0
42
0.0
10
78.5182037353516
20
78.6781005859375
40
0.0
41
0.0
42
0.0
10
78.481201171875
20
78.6780014038086
40
0.0
41
0.0
42
0.0
10
78.0869979858398
20
78.6308975219727
40
0.0
41
0.0
42
0.0
10
77.9824981689453
20
78.6231002807617
40
0.0
41
0.0
42
0.0
10
77.503303527832
20
78.540901184082
40
0.0
41
0.0
42
0.0
10
77.121696472168
20
78.6501998901367
40
0.0
41
0.0
42
0.0
10
77.0081024169922
20
78.6533966064453
40
0.0
41
0.0
42
0.0
10
76.9380035400391
20
78.7643966674805
40
0.0
41
0.0
42
0.0
10
76.8245010375977
20
79.0118026733398
40
0.0
41
0.0
42
0.0
10
76.6716995239258
20
79.4067993164062
40
0.0
41
0.0
42
0.0
10
76.6234970092773
20
79.5112991333008
40
0.0
41
0.0
42
0.0
10
76.4943008422852
20
79.8050003051758
40
0.0
41
0.0
42
0.0
10
76.3740997314453
20
80.0077972412109
40
0.0
41
0.0
42
0.0
10
76.0522003173828
20
80.4011993408203
40
0.0
41
0.0
42
0.0
10
76.032096862793
20
80.4234008789062
40
0.0
41
0.0
42
0.0
10
76.0077972412109
20
80.4565963745117
40
0.0
41
0.0
42
0.0
10
75.7567977905273
20
80.5072021484375
40
0.0
41
0.0
42
0.0
10
75.5186996459961
20
80.535400390625
40
0.0
41
0.0
42
0.0
10
75.4869995117188
20
80.535400390625
40
0.0
41
0.0
42
0.0
10
75.4439010620117
20
80.502799987793
40
0.0
41
0.0
42
0.0
10
75.0955963134766
20
80.2725982666016
40
0.0
41
0.0
42
0.0
10
74.9933013916016
20
80.219596862793
40
0.0
41
0.0
42
0.0
10
74.736198425293
20
79.9128036499023
40
0.0
41
0.0
42
0.0
10
74.4961013793945
20
79.5947036743164
40
0.0
41
0.0
42
0.0
10
74.4250030517578
20
79.5170974731445
40
0.0
41
0.0
42
0.0
10
74.3302993774414
20
79.4012985229492
40
0.0
41
0.0
42
0.0
10
73.9906997680664
20
79.021598815918
40
0.0
41
0.0
42
0.0
10
73.8628005981445
20
79.0282974243164
40
0.0
41
0.0
42
0.0
10
73.5133972167969
20
79.0770034790039
40
0.0
41
0.0
42
0.0
10
73.489501953125
20
79.089599609375
40
0.0
41
0.0
42
0.0
10
73.4063034057617
20
79.1244964599609
40
0.0
41
0.0
42
0.0
10
73.0119018554688
20
79.3127975463867
40
0.0
41
0.0
42
0.0
10
72.9076995849609
20
79.3490982055664
40
0.0
41
0.0
42
0.0
10
72.5146026611328
20
79.5009002685547
40
0.0
41
0.0
42
0.0
10
72.3264007568359
20
79.5287017822266
40
0.0
41
0.0
42
0.0
10
72.0183029174805
20
79.5789031982422
40
0.0
41
0.0
42
0.0
10
71.9834976196289
20
79.5787963867188
40
0.0
41
0.0
42
0.0
10
71.6947021484375
20
79.4792022705078
40
0.0
41
0.0
42
0.0
10
71.5967025756836
20
79.4044036865234
40
0.0
41
0.0
42
0.0
10
71.496696472168
20
79.3453979492188
40
0.0
41
0.0
42
0.0
10
71.3679962158203
20
79.0322036743164
40
0.0
41
0.0
42
0.0
10
71.3581008911133
20
79.0131988525391
40
0.0
41
0.0
42
0.0
10
71.3413009643555
20
78.9126968383789
40
0.0
41
0.0
42
0.0
10
71.3218994140625
20
78.519401550293
40
0.0
41
0.0
42
0.0
10
71.3218002319336
20
78.4806976318359
40
0.0
41
0.0
42
0.0
10
71.3294982910156
20
78.3769989013672
40
0.0
41
0.0
42
0.0
10
71.3765029907227
20
77.9830017089844
40
0.0
41
0.0
42
0.0
10
71.461799621582
20
77.4870986938477
40
0.0
41
0.0
42
0.0
10
71.4597015380859
20
77.4116973876953
40
0.0
41
0.0
42
0.0
10
71.3436965942383
20
77.0065002441406
40
0.0
41
0.0
42
0.0
10
71.2353973388672
20
76.938102722168
40
0.0
41
0.0
42
0.0
10
70.9880981445312
20
76.8245010375977
40
0.0
41
0.0
42
0.0
10
70.5931015014648
20
76.6716995239258
40
0.0
41
0.0
42
0.0
10
70.4886016845703
20
76.6235961914062
40
0.0
41
0.0
42
0.0
10
70.1948013305664
20
76.4943008422852
40
0.0
41
0.0
42
0.0
10
69.9919967651367
20
76.3741989135742
40
0.0
41
0.0
42
0.0
10
69.5987014770508
20
76.0522003173828
40
0.0
41
0.0
42
0.0
10
69.576301574707
20
76.032096862793
40
0.0
41
0.0
42
0.0
10
69.5431976318359
20
76.0078964233398
40
0.0
41
0.0
42
0.0
10
69.4925003051758
20
75.7567977905273
40
0.0
41
0.0
42
0.0
10
69.4645004272461
20
75.5186996459961
40
0.0
41
0.0
42
0.0
10
69.4644012451172
20
75.4869995117188
40
0.0
41
0.0
42
0.0
210
0.0
220
0.0
230
1.0
0
LWPOLYLINE
5
28
330
1C
100
AcDbEntity
67
0
8
0
62
256
6
ByLayer
370
-1
48
1.0
60
0
100
AcDbPolyline
90
171
70
1
38
0.0
39
0.0
10
69.5677032470703
20
75.9921035766602
40
0.0
41
0.0
42
0.0
10
69.6320037841797
20
76.0392990112305
40
0.0
41
0.0
42
0.0
10
69.6512985229492
20
76.0566024780273
40
0.0
41
0.0
42
0.0
10
70.0078964233398
20
76.348503112793
40
0.0
41
0.0
42
0.0
10
70.2453994750977
20
76.4893035888672
40
0.0
41
0.0
42
0.0
10
70.5113983154297
20
76.6061019897461
40
0.0
41
0.0
42
0.0
10
70.6567993164062
20
76.6731033325195
40
0.0
41
0.0
42
0.0
10
71.0118026733398
20
76.8104019165039
40
0.0
41
0.0
42
0.0
10
71.2304000854492
20
76.911003112793
40
0.0
41
0.0
42
0.0
10
71.3610992431641
20
76.9934005737305
40
0.0
41
0.0
42
0.0
10
71.4598007202148
20
77.3380966186523
40
0.0
41
0.0
42
0.0
10
71.4636993408203
20
77.5184020996094
40
0.0
41
0.0
42
0.0
10
71.4039001464844
20
77.8712997436523
40
0.0
41
0.0
42
0.0
10
71.3775024414062
20
78.0167999267578
40
0.0
41
0.0
42
0.0
10
71.3350982666016
20
78.3729019165039
40
0.0
41
0.0
42
0.0
10
71.3253021240234
20
78.5037002563477
40
0.0
41
0.0
42
0.0
10
71.3419036865234
20
78.8371963500977
40
0.0
41
0.0
42
0.0
10
71.3667984008789
20
78.9868011474609
40
0.0
41
0.0
42
0.0
10
71.38330078125
20
79.0179977416992
40
0.0
41
0.0
42
0.0
10
71.5031967163086
20
79.3100967407227
40
0.0
41
0.0
42
0.0
10
71.6531982421875
20
79.3985977172852
40
0.0
41
0.0
42
0.0
10
71.744499206543
20
79.4683990478516
40
0.0
41
0.0
42
0.0
10
72.0053024291992
20
79.5582962036133
40
0.0
41
0.0
42
0.0
10
72.2263031005859
20
79.5223999023438
40
0.0
41
0.0
42
0.0
10
72.4852981567383
20
79.4852981567383
40
0.0
41
0.0
42
0.0
10
72.8422012329102
20
79.3477020263672
40
0.0
41
0.0
42
0.0
10
72.9878997802734
20
79.2969970703125
40
0.0
41
0.0
42
0.0
10
73.3434982299805
20
79.1272964477539
40
0.0
41
0.0
42
0.0
10
73.4592971801758
20
79.0785980224609
40
0.0
41
0.0
42
0.0
10
73.4863967895508
20
79.0643997192383
40
0.0
41
0.0
42
0.0
10
73.7678985595703
20
79.0251007080078
40
0.0
41
0.0
42
0.0
10
73.9804992675781
20
79.0139999389648
40
0.0
41
0.0
42
0.0
10
74.0105972290039
20
79.0139007568359
40
0.0
41
0.0
42
0.0
10
74.3094024658203
20
79.3486022949219
40
0.0
41
0.0
42
0.0
10
74.4274978637695
20
79.4935989379883
40
0.0
41
0.0
42
0.0
10
74.5040969848633
20
79.5781021118164
40
0.0
41
0.0
42
0.0
10
74.7191009521484
20
79.8629989624023
40
0.0
41
0.0
42
0.0
10
75.0065994262695
20
80.2057037353516
40
0.0
41
0.0
42
0.0
10
75.154296875
20
80.282600402832
40
0.0
41
0.0
42
0.0
10
75.4794006347656
20
80.4971008300781
40
0.0
41
0.0
42
0.0
10
75.5085983276367
20
80.5190963745117
40
0.0
41
0.0
42
0.0
10
75.6246032714844
20
80.5054016113281
40
0.0
41
0.0
42
0.0
10
75.9919967651367
20
80.431999206543
40
0.0
41
0.0
42
0.0
10
76.0391998291016
20
80.3677978515625
40
0.0
41
0.0
42
0.0
10
76.0565032958984
20
80.3486022949219
40
0.0
41
0.0
42
0.0
10
76.348503112793
20
79.9919967651367
40
0.0
41
0.0
42
0.0
10
76.4891967773438
20
79.7544021606445
40
0.0
41
0.0
42
0.0
10
76.6061019897461
20
79.4885025024414
40
0.0
41
0.0
42
0.0
10
76.6731033325195
20
79.3431015014648
40
0.0
41
0.0
42
0.0
10
76.8104019165039
20
78.9880981445312
40
0.0
41
0.0
42
0.0
10
76.9108963012695
20
78.769401550293
40
0.0
41
0.0
42
0.0
10
76.99169921875
20
78.6412963867188
40
0.0
41
0.0
42
0.0
10
77.1281967163086
20
78.6374969482422
40
0.0
41
0.0
42
0.0
10
77.4829025268555
20
78.536003112793
40
0.0
41
0.0
42
0.0
10
77.5180969238281
20
78.5358963012695
40
0.0
41
0.0
42
0.0
10
77.6613006591797
20
78.5617980957031
40
0.0
41
0.0
42
0.0
10
78.0174026489258
20
78.6222991943359
40
0.0
41
0.0
42
0.0
10
78.1629028320312
20
78.6332015991211
40
0.0
41
0.0
42
0.0
10
78.4971008300781
20
78.6729965209961
40
0.0
41
0.0
42
0.0
10
78.627197265625
20
78.6512985229492
40
0.0
41
0.0
42
0.0
10
78.9856033325195
20
78.6334991455078
40
0.0
41
0.0
42
0.0
10
79.0178985595703
20
78.6164016723633
40
0.0
41
0.0
42
0.0
10
79.3100967407227
20
78.4965972900391
40
0.0
41
0.0
42
0.0
10
79.3984985351562
20
78.3466033935547
40
0.0
41
0.0
42
0.0
10
79.4682998657227
20
78.2553024291992
40
0.0
41
0.0
42
0.0
10
79.5582962036133
20
77.9945983886719
40
0.0
41
0.0
42
0.0
10
79.5223999023438
20
77.7734985351562
40
0.0
41
0.0
42
0.0
10
79.4852981567383
20
77.5146026611328
40
0.0
41
0.0
42
0.0
10
79.3477020263672
20
77.1576995849609
40
0.0
41
0.0
42
0.0
10
79.2970962524414
20
77.0120010375977
40
0.0
41
0.0
42
0.0
10
79.1272964477539
20
76.6564025878906
40
0.0
41
0.0
42
0.0
10
79.0785980224609
20
76.5404968261719
40
0.0
41
0.0
42
0.0
10
79.0643997192383
20
76.5133972167969
40
0.0
41
0.0
42
0.0
10
79.0251007080078
20
76.2320022583008
40
0.0
41
0.0
42
0.0
10
79.0139999389648
20
76.019401550293
40
0.0
41
0.0
42
0.0
10
79.013801574707
20
75.9893035888672
40
0.0
41
0.0
42
0.0
10
79.348503112793
20
75.6903991699219
40
0.0
41
0.0
42
0.0
10
79.4935989379883
20
75.5721969604492
40
0.0
41
0.0
42
0.0
10
79.5781021118164
20
75.4957962036133
40
0.0
41
0.0
42
0.0
10
79.8629989624023
20
75.2807006835938
40
0.0
41
0.0
42
0.0
10
80.2057037353516
20
74.9933013916016
40
0.0
41
0.0
42
0.0
10
80.2825012207031
20
74.8455963134766
40
0.0
41
0.0
42
0.0
10
80.4971008300781
20
74.5204010009766
40
0.0
41
0.0
42
0.0
10
80.5190963745117
20
74.4913024902344
40
0.0
41
0.0
42
0.0
10
80.5054016113281
20
74.3751983642578
40
0.0
41
0.0
42
0.0
10
80.4320983886719
20
74.0077972412109
40
0.0
41
0.0
42
0.0
10
80.3677978515625
20
73.9605026245117
40
0.0
41
0.0
42
0.0
10
80.3486022949219
20
73.9432983398438
40
0.0
41
0.0
42
0.0
10
79.9919967651367
20
73.6513977050781
40
0.0
41
0.0
42
0.0
10
79.7545013427734
20
73.510498046875
40
0.0
41
0.0
42
0.0
10
79.4886016845703
20
73.3936004638672
40
0.0
41
0.0
42
0.0
10
79.3431015014648
20
73.3265991210938
40
0.0
41
0.0
42
0.0
10
78.9880981445312
20
73.1893005371094
40
0.0
41
0.0
42
0.0
10
78.769401550293
20
73.0887985229492
40
0.0
41
0.0
42
0.0
10
78.6412963867188
20
73.0082015991211
40
0.0
41
0.0
42
0.0
10
78.6374969482422
20
72.871696472168
40
0.0
41
0.0
42
0.0
10
78.536003112793
20
72.5169982910156
40
0.0
41
0.0
42
0.0
10
78.5358963012695
20
72.4817962646484
40
0.0
41
0.0
42
0.0
10
78.5617980957031
20
72.3386001586914
40
0.0
41
0.0
42
0.0
10
78.6222991943359
20
71.9824981689453
40
0.0
41
0.0
42
0.0
10
78.6332015991211
20
71.8369979858398
40
0.0
41
0.0
42
0.0
10
78.6731033325195
20
71.502799987793
40
0.0
41
0.0
42
0.0
10
78.6512985229492
20
71.3727035522461
40
0.0
41
0.0
42
0.0
10
78.6334991455078
20
71.0142974853516
40
0.0
41
0.0
42
0.0
10
78.6165008544922
20
70.9819030761719
40
0.0
41
0.0
42
0.0
10
78.496696472168
20
70.6897964477539
40
0.0
41
0.0
42
0.0
10
78.3467025756836
20
70.6011962890625
40
0.0
41
0.0
42
0.0
10
78.2553024291992
20
70.5314025878906
40
0.0
41
0.0
42
0.0
10
77.9945983886719
20
70.4413986206055
40
0.0
41
0.0
42
0.0
10
77.7734985351562
20
70.4773025512695
40
0.0
41
0.0
42
0.0
10
77.5146026611328
20
70.5143966674805
40
0.0
41
0.0
42
0.0
10
77.1576995849609
20
70.652099609375
40
0.0
41
0.0
42
0.0
10
77.0119018554688
20
70.7025985717773
40
0.0
41
0.0
42
0.0
10
76.6563034057617
20
70.8723983764648
40
0.0
41
0.0
42
0.0
10
76.5404968261719
20
70.9210968017578
40
0.0
41
0.0
42
0.0
10
76.5133972167969
20
70.935302734375
40
0.0
41
0.0
42
0.0
10
76.2320022583008
20
70.9746017456055
40
0.0
41
0.0
42
0.0
10
76.019401550293
20
70.9859008789062
40
0.0
41
0.0
42
0.0
10
75.9893035888672
20
70.9859008789062
40
0.0
41
0.0
42
0.0
10
75.6903991699219
20
70.6512985229492
40
0.0
41
0.0
42
0.0
10
75.5702972412109
20
70.5039978027344
40
0.0
41
0.0
42
0.0
10
75.4957962036133
20
70.4216995239258
40
0.0
41
0.0
42
0.0
10
75.2807006835938
20
70.1368026733398
40
0.0
41
0.0
42
0.0
10
74.9934005737305
20
69.7939987182617
40
0.0
41
0.0
42
0.0
10
74.8455963134766
20
69.7172012329102
40
0.0
41
0.0
42
0.0
10
74.5204010009766
20
69.502799987793
40
0.0
41
0.0
42
0.0
10
74.4914016723633
20
69.4804992675781
40
0.0
41
0.0
42
0.0
10
74.3751983642578
20
69.4943008422852
40
0.0
41
0.0
42
0.0
10
74.0077972412109
20
69.5677032470703
40
0.0
41
0.0
42
0.0
10
73.9605026245117
20
69.6320037841797
40
0.0
41
0.0
42
0.0
10
73.9431991577148
20
69.6511993408203
40
0.0
41
0.0
42
0.0
10
73.6512985229492
20
70.0077972412109
40
0.0
41
0.0
42
0.0
10
73.510498046875
20
70.2453994750977
40
0.0
41
0.0
42
0.0
10
73.3936004638672
20
70.5112991333008
40
0.0
41
0.0
42
0.0
10
73.3265991210938
20
70.6567993164062
40
0.0
41
0.0
42
0.0
10
73.1893005371094
20
71.0118026733398
40
0.0
41
0.0
42
0.0
10
73.0887985229492
20
71.2304000854492
40
0.0
41
0.0
42
0.0
10
73.0065002441406
20
71.3610992431641
40
0.0
41
0.0
42
0.0
10
72.6617965698242
20
71.4598007202148
40
0.0
41
0.0
42
0.0
10
72.4814987182617
20
71.4636993408203
40
0.0
41
0.0
42
0.0
10
72.1286010742188
20
71.4039001464844
40
0.0
41
0.0
42
0.0
10
71.9831008911133
20
71.3775024414062
40
0.0
41
0.0
42
0.0
10
71.6269989013672
20
71.3350982666016
40
0.0
41
0.0
42
0.0
10
71.4962005615234
20
71.3253021240234
40
0.0
41
0.0
42
0.0
10
71.1626968383789
20
71.341796875
40
0.0
41
0.0
42
0.0
10
71.0130996704102
20
71.3667984008789
40
0.0
41
0.0
42
0.0
10
70.9817962646484
20
71.3832015991211
40
0.0
41
0.0
42
0.0
10
70.689697265625
20
71.5031967163086
40
0.0
41
0.0
42
0.0
10
70.6011962890625
20
71.6531982421875
40
0.0
41
0.0
42
0.0
10
70.5313034057617
20
71.744499206543
40
0.0
41
0.0
42
0.0
10
70.4413986206055
20
72.0053024291992
40
0.0
41
0.0
42
0.0
10
70.4773025512695
20
72.2263031005859
40
0.0
41
0.0
42
0.0
10
70.5143966674805
20
72.4852981567383
40
0.0
41
0.0
42
0.0
10
70.652099609375
20
72.8422012329102
40
0.0
41
0.0
42
0.0
10
70.7026977539062
20
72.9878997802734
40
0.0
41
0.0
42
0.0
10
70.8724975585938
20
73.3435974121094
40
0.0
41
0.0
42
0.0
10
70.9210968017578
20
73.4592971801758
40
0.0
41
0.0
42
0.0
10
70.9354019165039
20
73.4865036010742
40
0.0
41
0.0
42
0.0
10
70.9746017456055
20
73.7678985595703
40
0.0
41
0.0
42
0.0
10
70.9859008789062
20
73.9804992675781
40
0.0
41
0.0
42
0.0
10
70.9858016967773
20
74.010498046875
40
0.0
41
0.0
42
0.0
10
70.6512985229492
20
74.3093032836914
40
0.0
41
0.0
42
0.0
10
70.5038986206055
20
74.4292984008789
40
0.0
41
0.0
42
0.0
10
70.4216003417969
20
74.5039978027344
40
0.0
41
0.0
42
0.0
10
70.1368026733398
20
74.7190017700195
40
0.0
41
0.0
42
0.0
10
69.7939987182617
20
75.0065002441406
40
0.0
41
0.0
42
0.0
10
69.7172012329102
20
75.154296875
40
0.0
41
0.0
42
0.0
10
69.5027008056641
20
75.4793014526367
40
0.0
41
0.0
42
0.0
10
69.480598449707
20
75.5085983276367
40
0.0
41
0.0
42
0.0
10
69.4943008422852
20
75.6246032714844
40
0.0
41
0.0
42
0.0
10
69.5677032470703
20
75.9921035766602
40
0.0
41
0.0
42
0.0
210
0.0
220
0.0
230
1.0
0
LWPOLYLINE
5
29
330
1C
100
AcDbEntity
67
0
8
0
62
256
6
ByLayer
370
-1
48
1.0
60
0
100
AcDbPolyline
90
13
70
1
38
0.0
39
0.0
10
73.8722991943359
20
75.4868011474609
40
0.0
41
0.0
42
0.0
10
73.9761962890625
20
75.344596862793
40
0.0
41
0.0
42
0.0
10
73.9886016845703
20
75.3322982788086
40
0.0
41
0.0
42
0.0
10
74.013298034668
20
75.3321990966797
40
0.0
41
0.0
42
0.0
10
74.2176971435547
20
75.4760971069336
40
0.0
41
0.0
42
0.0
10
74.2353973388672
20
75.4900970458984
40
0.0
41
0.0
42
0.0
10
74.2352981567383
20
75.5066986083984
40
0.0
41
0.0
42
0.0
10
74.0346984863281
20
75.6016998291016
40
0.0
41
0.0
42
0.0
10
74.0140991210938
20
75.6141967773438
40
0.0
41
0.0
42
0.0
10
73.9881973266602
20
75.6140975952148
40
0.0
41
0.0
42
0.0
10
73.8843994140625
20
75.5185012817383
40
0.0
41
0.0
42
0.0
10
73.8723983764648
20
75.5094985961914
40
0.0
41
0.0
42
0.0
10
73.8722991943359
20
75.4868011474609
40
0.0
41
0.0
42
0.0
210
0.0
220
0.0
230
1.0
0
LWPOLYLINE
5
2A
330
1C
100
AcDbEntity
67
0
8
0
62
256
6
ByLayer
370
-1
48
1.0
60
0
100
AcDbPolyline
90
8
70
1
38
0.0
39
0.0
10
74.0016021728516
20
75.6022033691406
40
0.0
41
0.0
42
0.0
10
74.0240020751953
20
75.5886993408203
40
0.0
41
0.0
42
0.0
10
74.2143020629883
20
75.4983978271484
40
0.0
41
0.0
42
0.0
10
74.0010986328125
20
75.3479995727539
40
0.0
41
0.0
42
0.0
10
73.9766998291016
20
75.3723983764648
40
0.0
41
0.0
42
0.0
10
73.8845977783203
20
75.4985961914062
40
0.0
41
0.0
42
0.0
10
73.9085998535156
20
75.5164031982422
40
0.0
41
0.0
42
0.0
10
74.0016021728516
20
75.6022033691406
40
0.0
41
0.0
42
0.0
210
0.0
220
0.0
230
1.0
0
LWPOLYLINE
5
2B
330
1C
100
AcDbEntity
67
0
8
0
62
256
6
ByLayer
370
-1
48
1.0
60
0
100
AcDbPolyline
90
13
70
1
38
0.0
39
0.0
10
74.3855972290039
20
73.9880981445312
40
0.0
41
0.0
42
0.0
10
74.481201171875
20
73.8843994140625
40
0.0
41
0.0
42
0.0
10
74.4904022216797
20
73.8723983764648
40
0.0
41
0.0
42
0.0
10
74.5130996704102
20
73.8722991943359
40
0.0
41
0.0
42
0.0
10
74.6550979614258
20
73.9761962890625
40
0.0
41
0.0
42
0.0
10
74.6676025390625
20
73.9886016845703
40
0.0
41
0.0
42
0.0
10
74.6675033569336
20
74.013298034668
40
0.0
41
0.0
42
0.0
10
74.5236968994141
20
74.2176971435547
40
0.0
41
0.0
42
0.0
10
74.5098037719727
20
74.2353973388672
40
0.0
41
0.0
42
0.0
10
74.4932022094727
20
74.2353973388672
40
0.0
41
0.0
42
0.0
10
74.3980026245117
20
74.0346984863281
40
0.0
41
0.0
42
0.0
10
74.3856964111328
20
74.0140991210938
40
0.0
41
0.0
42
0.0
10
74.3855972290039
20
73.9880981445312
40
0.0
41
0.0
42
0.0
210
0.0
220
0.0
230
1.0
0
LWPOLYLINE
5
2C
330
1C
100
AcDbEntity
67
0
8
0
62
256
6
ByLayer
370
-1
48
1.0
60
0
100
AcDbPolyline
90
7
70
1
38
0.0
39
0.0
10
74.5015029907227
20
74.2141036987305
40
0.0
41
0.0
42
0.0
10
74.6517028808594
20
74.0010986328125
40
0.0
41
0.0
42
0.0
10
74.6272964477539
20
73.9767990112305
40
0.0
41
0.0
42
0.0
10
74.5028991699219
20
73.8855972290039
40
0.0
41
0.0
42
0.0
10
74.3975982666016
20
74.0017013549805
40
0.0
41
0.0
42
0.0
10
74.411003112793
20
74.0240020751953
40
0.0
41
0.0
42
0.0
10
74.5015029907227
20
74.2141036987305
40
0.0
41
0.0
42
0.0
210
0.0
220
0.0
230
1.0
0
LWPOLYLINE
5
2D
330
1C
100
AcDbEntity
67
0
8
0
62
256
6
ByLayer
370
-1
48
1.0
60
0
100
AcDbPolyline
90
9
70
1
38
0.0
39
0.0
10
74.5869979858398
20
74.9886016845703
40
0.0
41
0.0
42
0.0
10
74.9886016845703
20
74.5869979858398
40
0.0
41
0.0
42
0.0
10
75.0111999511719
20
74.5869979858398
40
0.0
41
0.0
42
0.0
10
75.4129028320312
20
74.9886016845703
40
0.0
41
0.0
42
0.0
10
75.4128036499023
20
75.0111999511719
40
0.0
41
0.0
42
0.0
10
75.0112991333008
20
75.4129028320312
40
0.0
41
0.0
42
0.0
10
74.9886016845703
20
75.4128036499023
40
0.0
41
0.0
42
0.0
10
74.5869979858398
20
75.0112991333008
40
0.0
41
0.0
42
0.0
10
74.5869979858398
20
74.9886016845703
40
0.0
41
0.0
42
0.0
210
0.0
220
0.0
230
1.0
0
LWPOLYLINE
5
2E
330
1C
100
AcDbEntity
67
0
8
0
62
256
6
ByLayer
370
-1
48
1.0
60
0
100
AcDbPolyline
90
5
70
1
38
0.0
39
0.0
10
75.0
20
75.3921966552734
40
0.0
41
0.0
42
0.0
10
75.3923034667969
20
75.0
40
0.0
41
0.0
42
0.0
10
75.0
20
74.6072998046875
40
0.0
41
0.0
42
0.0
10
74.6074981689453
20
75.0
40
0.0
41
0.0
42
0.0
10
75.0
20
75.3921966552734
40
0.0
41
0.0
42
0.0
210
0.0
220
0.0
230
1.0
0
LWPOLYLINE
5
2F
330
1C
100
AcDbEntity
67
0
8
0
62
256
6
ByLayer
370
-1
48
1.0
60
0
100
AcDbPolyline
90
13
70
1
38
0.0
39
0.0
10
75.3320999145508
20
75.9866027832031
40
0.0
41
0.0
42
0.0
10
75.4769973754883
20
75.7807006835938
40
0.0
41
0.0
42
0.0
10
75.4898986816406
20
75.7643966674805
40
0.0
41
0.0
42
0.0
10
75.5066986083984
20
75.7643966674805
40
0.0
41
0.0
42
0.0
10
75.6017990112305
20
75.9651031494141
40
0.0
41
0.0
42
0.0
10
75.6141967773438
20
75.9857025146484
40
0.0
41
0.0
42
0.0
10
75.6140975952148
20
76.0117034912109
40
0.0
41
0.0
42
0.0
10
75.5185012817383
20
76.1154022216797
40
0.0
41
0.0
42
0.0
10
75.5094985961914
20
76.1275024414062
40
0.0
41
0.0
42
0.0
10
75.4868011474609
20
76.1275024414062
40
0.0
41
0.0
42
0.0
10
75.344596862793
20
76.0234985351562
40
0.0
41
0.0
42
0.0
10
75.3322982788086
20
76.0111999511719
40
0.0
41
0.0
42
0.0
10
75.3320999145508
20
75.9866027832031
40
0.0
41
0.0
42
0.0
210
0.0
220
0.0
230
1.0
0
LWPOLYLINE
5
30
330
1C
100
AcDbEntity
67
0
8
0
62
256
6
ByLayer
370
-1
48
1.0
60
0
100
AcDbPolyline
90
7
70
1
38
0.0
39
0.0
10
75.4970016479492
20
76.1139984130859
40
0.0
41
0.0
42
0.0
10
75.6020965576172
20
75.9982986450195
40
0.0
41
0.0
42
0.0
10
75.5887985229492
20
75.9758987426758
40
0.0
41
0.0
42
0.0
10
75.4983978271484
20
75.785400390625
40
0.0
41
0.0
42
0.0
10
75.3480987548828
20
75.9989013671875
40
0.0
41
0.0
42
0.0
10
75.3724975585938
20
76.0230026245117
40
0.0
41
0.0
42
0.0
10
75.4970016479492
20
76.1139984130859
40
0.0
41
0.0
42
0.0
210
0.0
220
0.0
230
1.0
0
LWPOLYLINE
5
31
330
1C
100
AcDbEntity
67
0
8
0
62
256
6
ByLayer
370
-1
48
1.0
60
0
100
AcDbPolyline
90
13
70
1
38
0.0
39
0.0
10
75.7645034790039
20
74.4929962158203
40
0.0
41
0.0
42
0.0
10
75.9649963378906
20
74.3979034423828
40
0.0
41
0.0
42
0.0
10
75.9857025146484
20
74.3856964111328
40
0.0
41
0.0
42
0.0
10
76.0117034912109
20
74.3856964111328
40
0.0
41
0.0
42
0.0
10
76.1154022216797
20
74.4813003540039
40
0.0
41
0.0
42
0.0
10
76.1275024414062
20
74.4904022216797
40
0.0
41
0.0
42
0.0
10
76.1274032592773
20
74.5130996704102
40
0.0
41
0.0
42
0.0
10
76.0234985351562
20
74.6550979614258
40
0.0
41
0.0
42
0.0
10
76.0111999511719
20
74.6676025390625
40
0.0
41
0.0
42
0.0
10
75.9866027832031
20
74.6676025390625
40
0.0
41
0.0
42
0.0
10
75.7807006835938
20
74.5226974487305
40
0.0
41
0.0
42
0.0
10
75.7645034790039
20
74.5098037719727
40
0.0
41
0.0
42
0.0
10
75.7645034790039
20
74.4929962158203
40
0.0
41
0.0
42
0.0
210
0.0
220
0.0
230
1.0
0
LWPOLYLINE
5
32
330
1C
100
AcDbEntity
67
0
8
0
62
256
6
ByLayer
370
-1
48
1.0
60
0
100
AcDbPolyline
90
8
70
1
38
0.0
39
0.0
10
75.9989013671875
20
74.6516036987305
40
0.0
41
0.0
42
0.0
10
76.0230026245117
20
74.627197265625
40
0.0
41
0.0
42
0.0
10
76.1140975952148
20
74.5028991699219
40
0.0
41
0.0
42
0.0
10
75.9982986450195
20
74.3974990844727
40
0.0
41
0.0
42
0.0
10
75.9757995605469
20
74.4108963012695
40
0.0
41
0.0
42
0.0
10
75.7873001098633
20
74.5007019042969
40
0.0
41
0.0
42
0.0
10
75.8171997070312
20
74.5240020751953
40
0.0
41
0.0
42
0.0
10
75.9989013671875
20
74.6516036987305
40
0.0
41
0.0
42
0.0
210
0.0
220
0.0
230
1.0
0
LWPOLYLINE
5
33
330
1C
100
AcDbEntity
67
0
8
0
62
256
6
ByLayer
370
-1
48
1.0
60
0
100
AcDbPolyline
90
47
70
1
38
0.0
39
0.0
10
79.9954986572266
20
84.8664016723633
40
0.0
41
0.0
42
0.0
10
80.3849029541016
20
84.4909973144531
40
0.0
41
0.0
42
0.0
10
80.4064025878906
20
84.4113998413086
40
0.0
41
0.0
42
0.0
10
80.429801940918
20
84.4113006591797
40
0.0
41
0.0
42
0.0
10
80.5177001953125
20
84.4156036376953
40
0.0
41
0.0
42
0.0
10
80.5678024291992
20
84.4238967895508
40
0.0
41
0.0
42
0.0
10
80.9857025146484
20
84.2788009643555
40
0.0
41
0.0
42
0.0
10
81.2722015380859
20
84.2143020629883
40
0.0
41
0.0
42
0.0
10
81.3093032836914
20
84.2142028808594
40
0.0
41
0.0
42
0.0
10
81.4941024780273
20
84.2246017456055
40
0.0
41
0.0
42
0.0
10
81.7869033813477
20
84.192497253418
40
0.0
41
0.0
42
0.0
10
81.9906005859375
20
84.1961975097656
40
0.0
41
0.0
42
0.0
10
82.2936019897461
20
84.1761016845703
40
0.0
41
0.0
42
0.0
10
82.4992980957031
20
84.1776962280273
40
0.0
41
0.0
42
0.0
10
82.8358001708984
20
84.1744995117188
40
0.0
41
0.0
42
0.0
10
83.0164031982422
20
84.182502746582
40
0.0
41
0.0
42
0.0
10
83.160400390625
20
84.2255020141602
40
0.0
41
0.0
42
0.0
10
83.5128021240234
20
84.2779006958008
40
0.0
41
0.0
42
0.0
10
83.684700012207
20
84.3805999755859
40
0.0
41
0.0
42
0.0
10
83.7544021606445
20
84.4889984130859
40
0.0
41
0.0
42
0.0
10
83.8793029785156
20
84.8781967163086
40
0.0
41
0.0
42
0.0
10
83.8792037963867
20
84.9144973754883
40
0.0
41
0.0
42
0.0
10
83.8753967285156
20
84.9990005493164
40
0.0
41
0.0
42
0.0
10
83.8619003295898
20
84.9990005493164
40
0.0
41
0.0
42
0.0
10
83.8618011474609
20
84.9804000854492
40
0.0
41
0.0
42
0.0
10
83.8668975830078
20
84.8674011230469
40
0.0
41
0.0
42
0.0
10
83.7526016235352
20
84.5109024047852
40
0.0
41
0.0
42
0.0
10
83.6950988769531
20
84.4212036132812
40
0.0
41
0.0
42
0.0
10
83.4870986938477
20
84.2972030639648
40
0.0
41
0.0
42
0.0
10
83.0895004272461
20
84.2380981445312
40
0.0
41
0.0
42
0.0
10
82.9834976196289
20
84.2063980102539
40
0.0
41
0.0
42
0.0
10
82.8548965454102
20
84.2006988525391
40
0.0
41
0.0
42
0.0
10
82.5198974609375
20
84.2042007446289
40
0.0
41
0.0
42
0.0
10
82.3787994384766
20
84.2033004760742
40
0.0
41
0.0
42
0.0
10
82.019401550293
20
84.2270965576172
40
0.0
41
0.0
42
0.0
10
81.871696472168
20
84.2246017456055
40
0.0
41
0.0
42
0.0
10
81.518798828125
20
84.2636032104492
40
0.0
41
0.0
42
0.0
10
81.4804992675781
20
84.2634963989258
40
0.0
41
0.0
42
0.0
10
81.3580017089844
20
84.2565994262695
40
0.0
41
0.0
42
0.0
10
81.0141983032227
20
84.3341979980469
40
0.0
41
0.0
42
0.0
10
80.538200378418
20
84.4992980957031
40
0.0
41
0.0
42
0.0
10
80.5077972412109
20
84.5131988525391
40
0.0
41
0.0
42
0.0
10
80.0118026733398
20
84.9990005493164
40
0.0
41
0.0
42
0.0
10
79.9245986938477
20
84.9990005493164
40
0.0
41
0.0
42
0.0
10
79.9244995117188
20
84.9837036132812
40
0.0
41
0.0
42
0.0
10
79.9425964355469
20
84.9343032836914
40
0.0
41
0.0
42
0.0
10
79.9954986572266
20
84.8664016723633
40
0.0
41
0.0
42
0.0
210
0.0
220
0.0
230
1.0
0
LWPOLYLINE
5
34
330
1C
100
AcDbEntity
67
0
8
0
62
256
6
ByLayer
370
-1
48
1.0
60
0
100
AcDbPolyline
90
39
70
1
38
0.0
39
0.0
10
84.2779006958008
20
66.4870986938477
40
0.0
41
0.0
42
0.0
10
84.380500793457
20
66.3150024414062
40
0.0
41
0.0
42
0.0
10
84.4860992431641
20
66.2472991943359
40
0.0
41
0.0
42
0.0
10
84.5106964111328
20
66.247200012207
40
0.0
41
0.0
42
0.0
10
84.4212036132812
20
66.3047027587891
40
0.0
41
0.0
42
0.0
10
84.2972030639648
20
66.5128021240234
40
0.0
41
0.0
42
0.0
10
84.2380981445312
20
66.9103012084961
40
0.0
41
0.0
42
0.0
10
84.2063980102539
20
67.0164031982422
40
0.0
41
0.0
42
0.0
10
84.2006988525391
20
67.1448974609375
40
0.0
41
0.0
42
0.0
10
84.2042007446289
20
67.4800033569336
40
0.0
41
0.0
42
0.0
10
84.2033004760742
20
67.6210021972656
40
0.0
41
0.0
42
0.0
10
84.2270965576172
20
67.9804992675781
40
0.0
41
0.0
42
0.0
10
84.2247009277344
20
68.1279983520508
40
0.0
41
0.0
42
0.0
10
84.2636032104492
20
68.4811019897461
40
0.0
41
0.0
42
0.0
10
84.2634963989258
20
68.519401550293
40
0.0
41
0.0
42
0.0
10
84.2565994262695
20
68.6417999267578
40
0.0
41
0.0
42
0.0
10
84.3341979980469
20
68.9857025146484
40
0.0
41
0.0
42
0.0
10
84.499397277832
20
69.4616012573242
40
0.0
41
0.0
42
0.0
10
84.513298034668
20
69.4919967651367
40
0.0
41
0.0
42
0.0
10
84.9990005493164
20
69.9879989624023
40
0.0
41
0.0
42
0.0
10
84.9990005493164
20
70.0753021240234
40
0.0
41
0.0
42
0.0
10
84.9858016967773
20
70.0752029418945
40
0.0
41
0.0
42
0.0
10
84.8655014038086
20
70.0034027099609
40
0.0
41
0.0
42
0.0
10
84.4960021972656
20
69.6199035644531
40
0.0
41
0.0
42
0.0
10
84.4156036376953
20
69.5130004882812
40
0.0
41
0.0
42
0.0
10
84.4156036376953
20
69.4816970825195
40
0.0
41
0.0
42
0.0
10
84.4238967895508
20
69.431999206543
40
0.0
41
0.0
42
0.0
10
84.2788009643555
20
69.0141983032227
40
0.0
41
0.0
42
0.0
10
84.2143020629883
20
68.7276000976562
40
0.0
41
0.0
42
0.0
10
84.2142028808594
20
68.6905975341797
40
0.0
41
0.0
42
0.0
10
84.2246017456055
20
68.5057983398438
40
0.0
41
0.0
42
0.0
10
84.192497253418
20
68.2128982543945
40
0.0
41
0.0
42
0.0
10
84.1961975097656
20
68.0093002319336
40
0.0
41
0.0
42
0.0
10
84.1761016845703
20
67.7061996459961
40
0.0
41
0.0
42
0.0
10
84.1776962280273
20
67.500602722168
40
0.0
41
0.0
42
0.0
10
84.1744995117188
20
67.1640014648438
40
0.0
41
0.0
42
0.0
10
84.182502746582
20
66.9834976196289
40
0.0
41
0.0
42
0.0
10
84.2255020141602
20
66.8395004272461
40
0.0
41
0.0
42
0.0
10
84.2779006958008
20
66.4870986938477
40
0.0
41
0.0
42
0.0
210
0.0
220
0.0
230
1.0
0
LWPOLYLINE
5
35
330
1C
100
AcDbEntity
67
0
8
0
62
256
6
ByLayer
370
-1
48
1.0
60
0
100
AcDbPolyline
90
7
70
1
38
0.0
39
0.0
10
84.5933990478516
20
66.2502975463867
40
0.0
41
0.0
42
0.0
10
84.9832000732422
20
66.1253967285156
40
0.0
41
0.0
42
0.0
10
84.9990005493164
20
66.1253967285156
40
0.0
41
0.0
42
0.0
10
84.9989013671875
20
66.1436004638672
40
0.0
41
0.0
42
0.0
10
84.6616973876953
20
66.2518997192383
40
0.0
41
0.0
42
0.0
10
84.6253967285156
20
66.2518005371094
40
0.0
41
0.0
42
0.0
10
84.5933990478516
20
66.2502975463867
40
0.0
41
0.0
42
0.0
210
0.0
220
0.0
230
1.0
0
VIEWPORT
5
3A
330
36
100
AcDbEntity
67
1
8
0
62
256
6
ByLayer
370
-1
48
1.0
60
0
100
AcDbViewport
10
0.0
20
0.0
30
0.0
40
297.0
41
210.0
68
1
69
1
12
50.0
22
100.0
13
0.0
23
0.0
14
10.0
24
10.0
15
10.0
25
10.0
16
0.0
26
0.0
36
1.0
17
0.0
27
0.0
37
0.0
42
50.0
43
0.0
44
0.0
45
250.0
50
0.0
51
0.0
72
1000
90
819232
110
0.0
120
0.0
130
0.0
111
1.0
121
0.0
131
0.0
112
0.0
122
1.0
132
0.0
0
ENDSEC
0
SECTION
2
OBJECTS
0
DICTIONARY
5
40
330
0
100
AcDbDictionary
280
1
281
1
3
ACAD_GROUP
350
12
3
ACAD_LAYOUT
350
39
3
ACAD_DGNDEFINITIONS
350
F
3
ACAD_DWFDEFINITIONS
350
10
3
ACAD_PDFDEFINITIONS
350
11
3
ACAD_MLINESTYLE
350
B
3
ACAD_IMAGE_DICT
350
E
3
ACAD_IMAGE_VARS
350
21
0
DICTIONARY
5
12
330
40
100
AcDbDictionary
280
1
281
1
0
DICTIONARY
5
39
330
40
100
AcDbDictionary
280
1
281
1
3
Model
350
20
3
Layout1
350
3B
0
DICTIONARY
5
F
330
40
100
AcDbDictionary
280
1
281
1
0
DICTIONARY
5
10
330
40
100
AcDbDictionary
280
1
281
1
0
DICTIONARY
5
11
330
40
100
AcDbDictionary
280
1
281
1
0
DICTIONARY
5
B
330
40
100
AcDbDictionary
280
1
281
1
3
Standard
350
1B
0
DICTIONARY
5
E
330
40
100
AcDbDictionary
280
1
281
1
0
DICTIONARY
5
6
330
5
100
AcDbDictionary
280
1
281
1
3
ACAD_LAYERSTATES
360
41
0
DICTIONARY
5
41
330
6
100
AcDbDictionary
280
1
281
1
0
LAYOUT
5
20
330
39
100
AcDbPlotSettings
1

2
none_device
4
ISO_A4_(210.00_x_297.00_MM)
6

40
7.5
41
20.0
42
7.5
43
20.0
44
210.0
45
297.0
46
0.0
47
0.0
48
0.0
49
0.0
140
0.0
141
0.0
142
1.0
143
1.0
70
11952
72
1
73
1
74
1
7

75
0
76
0
77
2
78
300
147
1.0
148
0.0
149
0.0
100
AcDbLayout
1
Model
71
0
10
-20.0
20
-7.5
11
277.0
21
202.5
12
0.0
22
0.0
32
0.0
14
25.7
24
19.5
34
0.0
15
231.3
25
175.5
35
0.0
146
0.0
13
0.0
23
0.0
33
0.0
16
1.0
26
0.0
36
0.0
17
0.0
27
1.0
37
0.0
76
0
330
1C
0
LAYOUT
5
3B
330
39
100
AcDbPlotSettings
1

2
none_device
4
ISO_A4_(210.00_x_297.00_MM)
6

40
7.5
41
20.0
42
7.5
43
20.0
44
210.0
45
297.0
46
0.0
47
0.0
48
0.0
49
0.0
140
0.0
141
0.0
142
1.0
143
1.0
70
688
72
1
73
1
74
1
7

75
0
76
0
77
2
78
300
147
1.0
148
0.0
149
0.0
100
AcDbLayout
1
Layout1
71
1
10
-20.0
20
-7.5
11
277.0
21
202.5
12
0.0
22
0.0
32
0.0
14
25.7
24
19.5
34
0.0
15
231.3
25
175.5
35
0.0
146
0.0
13
0.0
23
0.0
33
0.0
16
1.0
26
0.0
36
0.0
17
0.0
27
1.0
37
0.0
76
0
330
36
0
MLINESTYLE
5
1B
330
B
100
AcDbMlineStyle
2
Standard
70
0
3

62
256
51
90.0
52
90.0
71
2
49
0.5
62
256
6
ByLayer
49
-0.5
62
256
6
ByLayer
0
RASTERVARIABLES
5
21
330
E
100
AcDbRasterVariables
90
0
70
1
71
1
72
0
0
ENDSEC
0
EOF
