999
DXF file generated by netDxf https://github.com/haplokuon/netDxf, Copyright(C) Daniel Carvajal, Licensed under MIT
0
SECTION
2
HEADER
9
$ACADVER
1
AC1015
9
$DWGCODEPAGE
3
ANSI_1252
9
$HANDSEED
5
3A
9
$ANGBASE
50
0.0
9
$ANGDIR
70
0
9
$ATTMODE
70
1
9
$AUNITS
70
0
9
$AUPREC
70
0
9
$CECOLOR
62
256
9
$CELTSCALE
40
1.0
9
$CELTYPE
6
ByLayer
9
$CELWEIGHT
370
-1
9
$CLAYER
8
0
9
$CMLJUST
70
0
9
$CMLSCALE
40
20.0
9
$CMLSTYLE
2
Standard
9
$DIMSTYLE
2
Standard
9
$TEXTSIZE
40
2.5
9
$TEXTSTYLE
7
Standard
9
$LUNITS
70
2
9
$LUPREC
70
4
9
$MIRRTEXT
70
0
9
$EXTNAMES
290
1
9
$INSBASE
10
0.0
20
0.0
30
0.0
9
$INSUNITS
70
0
9
$LTSCALE
40
1.0
9
$LWDISPLAY
290
0
9
$PDMODE
70
0
9
$PDSIZE
40
0.0
9
$PLINEGEN
70
0
9
$PSLTSCALE
70
1
9
$SPLINESEGS
70
8
9
$SURFU
70
6
9
$SURFV
70
6
9
$TDCREATE
40
2460823.48367321
9
$TDUCREATE
40
2460823.15033987
9
$TDUPDATE
40
2460823.48367321
9
$TDUUPDATE
40
2460823.15033987
9
$TDINDWG
40
0.0
9
$UCSORG
10
0.0
20
0.0
30
0.0
9
$UCSXDIR
10
1.0
20
0.0
30
0.0
9
$UCSYDIR
10
0.0
20
1.0
30
0.0
9
$DIMADEC
70
0
9
$DIMALT
70
0
9
$DIMALTD
70
2
9
$DIMALTF
40
25.4
9
$DIMALTRND
40
0.0
9
$DIMALTTD
70
2
9
$DIMALTTZ
70
0
9
$DIMALTU
70
2
9
$DIMALTZ
70
0
9
$DIMAPOST
1

9
$DIMATFIT
70
3
9
$DIMAUNIT
70
0
9
$DIMASZ
40
0.18
9
$DIMAZIN
70
0
9
$DIMSAH
70
0
9
$DIMBLK
1

9
$DIMLDRBLK
1

9
$DIMCEN
40
0.09
9
$DIMCLRD
70
0
9
$DIMCLRE
70
0
9
$DIMCLRT
70
0
9
$DIMDEC
70
4
9
$DIMDLE
40
0.0
9
$DIMDLI
40
0.38
9
$DIMDSEP
70
46
9
$DIMEXE
40
0.18
9
$DIMEXO
40
0.0625
9
$DIMFXLON
70
0
9
$DIMFXL
40
1.0
9
$DIMGAP
40
0.09
9
$DIMJUST
70
0
9
$DIMLFAC
40
1.0
9
$DIMLUNIT
70
2
9
$DIMLWD
70
-2
9
$DIMLWE
70
-2
9
$DIMPOST
1

9
$DIMRND
40
0.0
9
$DIMSCALE
40
1.0
9
$DIMSD1
70
0
9
$DIMSD2
70
0
9
$DIMSE1
70
0
9
$DIMSE2
70
0
9
$DIMSOXD
70
0
9
$DIMTAD
70
0
9
$DIMTDEC
70
4
9
$DIMTFAC
40
1.0
9
$DIMTIH
70
0
9
$DIMTIX
70
0
9
$DIMTM
40
0.0
9
$DIMTMOVE
70
0
9
$DIMTOFL
70
0
9
$DIMTOH
70
0
9
$DIMTOL
70
0
9
$DIMLIM
70
0
9
$DIMTOLJ
70
1
9
$DIMTP
40
0.0
9
$DIMTXT
40
0.18
9
$DIMTXTDIRECTION
70
0
9
$DIMTZIN
70
0
9
$DIMZIN
70
0
9
$DIMFRAC
70
0
9
$DIMLTYPE
6
ByBlock
9
$DIMLTEX1
6
ByBlock
9
$DIMLTEX2
6
ByBlock
0
ENDSEC
0
SECTION
2
CLASSES
0
CLASS
1
RASTERVARIABLES
2
AcDbRasterVariables
3
ISM
90
0
280
0
281
0
0
ENDSEC
0
SECTION
2
TABLES
0
TABLE
2
APPID
5
4
330
0
100
AcDbSymbolTable
70
5
0
APPID
5
19
330
4
100
AcDbSymbolTableRecord
100
AcDbRegAppTableRecord
2
ACAD
70
0
0
APPID
5
34
330
4
100
AcDbSymbolTableRecord
100
AcDbRegAppTableRecord
2
AcCmTransparency
70
0
0
APPID
5
35
330
4
100
AcDbSymbolTableRecord
100
AcDbRegAppTableRecord
2
AcAecLayerStandard
70
0
0
APPID
5
36
330
4
100
AcDbSymbolTableRecord
100
AcDbRegAppTableRecord
2
GradientColor1ACI
70
0
0
APPID
5
37
330
4
100
AcDbSymbolTableRecord
100
AcDbRegAppTableRecord
2
GradientColor2ACI
70
0
0
ENDTAB
0
TABLE
2
VPORT
5
1
330
0
100
AcDbSymbolTable
70
1
0
VPORT
5
2
330
1
100
AcDbSymbolTableRecord
100
AcDbViewportTableRecord
2
*Active
70
0
10
0.0
20
0.0
11
1.0
21
1.0
12
0.0
22
0.0
13
0.0
23
0.0
14
0.5
24
0.5
15
10.0
25
10.0
16
0.0
26
0.0
36
1.0
17
0.0
27
0.0
37
0.0
40
10.0
41
1.0
75
0
76
1
0
ENDTAB
0
TABLE
2
LTYPE
5
7
330
0
100
AcDbSymbolTable
70
3
0
LTYPE
5
15
330
7
100
AcDbSymbolTableRecord
100
AcDbLinetypeTableRecord
2
Continuous
70
0
3
Solid line
72
65
73
0
40
0.0
0
LTYPE
5
16
330
7
100
AcDbSymbolTableRecord
100
AcDbLinetypeTableRecord
2
ByLayer
70
0
3

72
65
73
0
40
0.0
0
LTYPE
5
17
330
7
100
AcDbSymbolTableRecord
100
AcDbLinetypeTableRecord
2
ByBlock
70
0
3

72
65
73
0
40
0.0
0
ENDTAB
0
TABLE
2
LAYER
5
5
102
{ACAD_XDICTIONARY
360
6
102
}
330
0
100
AcDbSymbolTable
70
1
0
LAYER
5
14
330
5
100
AcDbSymbolTableRecord
100
AcDbLayerTableRecord
2
0
70
0
62
7
6
Continuous
290
1
370
-3
390
0
0
ENDTAB
0
TABLE
2
STYLE
5
8
330
0
100
AcDbSymbolTable
70
1
0
STYLE
5
18
330
8
100
AcDbSymbolTableRecord
100
AcDbTextStyleTableRecord
2
Standard
3
simplex.shx
70
0
71
0
40
0.0
41
1.0
42
0.0
50
0.0
0
ENDTAB
0
TABLE
2
DIMSTYLE
5
A
330
0
100
AcDbSymbolTable
70
1
100
AcDbDimStyleTable
0
DIMSTYLE
105
1A
330
A
100
AcDbSymbolTableRecord
100
AcDbDimStyleTableRecord
2
Standard
3

4

40
1.0
41
0.18
42
0.0625
43
0.38
44
0.18
45
0.0
46
0.0
47
0.0
48
0.0
49
1.0
70
0
71
0
72
0
73
0
74
0
75
0
76
0
77
0
78
0
79
0
140
0.18
141
0.09
143
25.4
144
1.0
146
1.0
147
0.09
148
0.0
170
0
171
2
172
0
174
0
175
0
176
0
177
0
178
0
179
0
271
4
272
4
273
2
274
2
275
0
276
0
277
2
278
46
279
0
280
0
281
0
282
0
283
1
284
0
285
0
286
0
289
3
290
0
294
0
340
18
173
0
345
17
346
17
347
17
371
-2
372
-2
0
ENDTAB
0
TABLE
2
VIEW
5
3
330
0
100
AcDbSymbolTable
70
0
0
ENDTAB
0
TABLE
2
UCS
5
C
330
0
100
AcDbSymbolTable
70
0
0
ENDTAB
0
TABLE
2
BLOCK_RECORD
5
D
330
0
100
AcDbSymbolTable
70
2
0
BLOCK_RECORD
5
1C
330
D
100
AcDbSymbolTableRecord
100
AcDbBlockTableRecord
2
*Model_Space
340
20
0
BLOCK_RECORD
5
2E
330
D
100
AcDbSymbolTableRecord
100
AcDbBlockTableRecord
2
*Paper_Space
340
33
0
ENDTAB
0
ENDSEC
0
SECTION
2
BLOCKS
0
BLOCK
5
1E
330
1C
100
AcDbEntity
67
0
8
0
100
AcDbBlockBegin
2
*Model_Space
70
0
10
0.0
20
0.0
30
0.0
3
*Model_Space
4

0
ENDBLK
5
1D
330
1C
100
AcDbEntity
8
0
100
AcDbBlockEnd
0
BLOCK
5
30
330
2E
100
AcDbEntity
67
1
8
0
100
AcDbBlockBegin
2
*Paper_Space
70
0
10
0.0
20
0.0
30
0.0
3
*Paper_Space
4

0
ENDBLK
5
2F
330
2E
100
AcDbEntity
8
0
100
AcDbBlockEnd
0
ENDSEC
0
SECTION
2
ENTITIES
0
LWPOLYLINE
5
22
330
1C
100
AcDbEntity
67
0
8
0
62
256
6
ByLayer
370
-1
48
1.0
60
0
100
AcDbPolyline
90
38
70
1
38
0.0
39
0.0
10
65.008903503418
20
67.4807968139648
40
0.0
41
0.0
42
0.0
10
65.0454025268555
20
67.4806976318359
40
0.0
41
0.0
42
0.0
10
65.2293014526367
20
67.5007019042969
40
0.0
41
0.0
42
0.0
10
65.5046997070312
20
67.556396484375
40
0.0
41
0.0
42
0.0
10
65.522102355957
20
67.5992965698242
40
0.0
41
0.0
42
0.0
10
65.6968002319336
20
67.9854965209961
40
0.0
41
0.0
42
0.0
10
65.7339019775391
20
68.3559036254883
40
0.0
41
0.0
42
0.0
10
65.720703125
20
68.9002990722656
40
0.0
41
0.0
42
0.0
10
65.7118988037109
20
69.0182037353516
40
0.0
41
0.0
42
0.0
10
65.6660003662109
20
69.5175018310547
40
0.0
41
0.0
42
0.0
10
65.651496887207
20
69.6215972900391
40
0.0
41
0.0
42
0.0
10
65.5777969360352
20
70.0149993896484
40
0.0
41
0.0
42
0.0
10
65.548698425293
20
70.1136016845703
40
0.0
41
0.0
42
0.0
10
65.5002975463867
20
70.2217025756836
40
0.0
41
0.0
42
0.0
10
65.4058990478516
20
70.5112991333008
40
0.0
41
0.0
42
0.0
10
65.1192016601562
20
71.0075988769531
40
0.0
41
0.0
42
0.0
10
65.0851974487305
20
71.0466003417969
40
0.0
41
0.0
42
0.0
10
65.0113983154297
20
71.1194000244141
40
0.0
41
0.0
42
0.0
10
65.0009994506836
20
71.1194000244141
40
0.0
41
0.0
42
0.0
10
65.0009002685547
20
71.0830993652344
40
0.0
41
0.0
42
0.0
10
65.0449981689453
20
71.0395965576172
40
0.0
41
0.0
42
0.0
10
65.0864028930664
20
70.9922027587891
40
0.0
41
0.0
42
0.0
10
65.3772964477539
20
70.4885025024414
40
0.0
41
0.0
42
0.0
10
65.4994964599609
20
70.1130981445312
40
0.0
41
0.0
42
0.0
10
65.5287017822266
20
70.0477981567383
40
0.0
41
0.0
42
0.0
10
65.5473022460938
20
69.9849014282227
40
0.0
41
0.0
42
0.0
10
65.6292037963867
20
69.5483016967773
40
0.0
41
0.0
42
0.0
10
65.638298034668
20
69.4822998046875
40
0.0
41
0.0
42
0.0
10
65.684196472168
20
68.9816970825195
40
0.0
41
0.0
42
0.0
10
65.689697265625
20
68.9075012207031
40
0.0
41
0.0
42
0.0
10
65.701301574707
20
68.4316024780273
40
0.0
41
0.0
42
0.0
10
65.6595001220703
20
68.0143966674805
40
0.0
41
0.0
42
0.0
10
65.5493011474609
20
67.7708969116211
40
0.0
41
0.0
42
0.0
10
65.4952011108398
20
67.6372985839844
40
0.0
41
0.0
42
0.0
10
65.0932006835938
20
67.5559005737305
40
0.0
41
0.0
42
0.0
10
65.0009994506836
20
67.5211029052734
40
0.0
41
0.0
42
0.0
10
65.0009002685547
20
67.4824981689453
40
0.0
41
0.0
42
0.0
10
65.008903503418
20
67.4807968139648
40
0.0
41
0.0
42
0.0
210
0.0
220
0.0
230
1.0
0
LWPOLYLINE
5
23
330
1C
100
AcDbEntity
67
0
8
0
62
256
6
ByLayer
370
-1
48
1.0
60
0
100
AcDbPolyline
90
27
70
1
38
0.0
39
0.0
10
65.0050964355469
20
78.5369033813477
40
0.0
41
0.0
42
0.0
10
65.0140991210938
20
78.5625
40
0.0
41
0.0
42
0.0
10
65.1380996704102
20
78.8800964355469
40
0.0
41
0.0
42
0.0
10
65.1507034301758
20
78.9829025268555
40
0.0
41
0.0
42
0.0
10
65.2119979858398
20
79.3766021728516
40
0.0
41
0.0
42
0.0
10
65.2121963500977
20
79.4804000854492
40
0.0
41
0.0
42
0.0
10
65.2294998168945
20
79.8751983642578
40
0.0
41
0.0
42
0.0
10
65.2166976928711
20
80.4141006469727
40
0.0
41
0.0
42
0.0
10
65.2102966308594
20
80.5182037353516
40
0.0
41
0.0
42
0.0
10
65.1588973999023
20
81.0158996582031
40
0.0
41
0.0
42
0.0
10
65.0263977050781
20
81.4677963256836
40
0.0
41
0.0
42
0.0
10
65.0084991455078
20
81.5055999755859
40
0.0
41
0.0
42
0.0
10
65.0009994506836
20
81.5055999755859
40
0.0
41
0.0
42
0.0
10
65.0008010864258
20
81.4697036743164
40
0.0
41
0.0
42
0.0
10
65.0158004760742
20
81.4383010864258
40
0.0
41
0.0
42
0.0
10
65.1492004394531
20
80.984001159668
40
0.0
41
0.0
42
0.0
10
65.2006988525391
20
80.4816970825195
40
0.0
41
0.0
42
0.0
10
65.2046966552734
20
80.4158020019531
40
0.0
41
0.0
42
0.0
10
65.2161026000977
20
79.9356002807617
40
0.0
41
0.0
42
0.0
10
65.1977996826172
20
79.5195007324219
40
0.0
41
0.0
42
0.0
10
65.1977005004883
20
79.4533004760742
40
0.0
41
0.0
42
0.0
10
65.1298980712891
20
79.0170974731445
40
0.0
41
0.0
42
0.0
10
65.1215972900391
20
78.9497985839844
40
0.0
41
0.0
42
0.0
10
65.0436019897461
20
78.7496032714844
40
0.0
41
0.0
42
0.0
10
65.0009994506836
20
78.6296997070312
40
0.0
41
0.0
42
0.0
10
65.0009994506836
20
78.5369033813477
40
0.0
41
0.0
42
0.0
10
65.0050964355469
20
78.5369033813477
40
0.0
41
0.0
42
0.0
210
0.0
220
0.0
230
1.0
0
LWPOLYLINE
5
24
330
1C
100
AcDbEntity
67
0
8
0
62
256
6
ByLayer
370
-1
48
1.0
60
0
100
AcDbPolyline
90
576
70
1
38
0.0
39
0.0
10
66.9063034057617
20
76.4880981445312
40
0.0
41
0.0
42
0.0
10
66.9557037353516
20
76.3842010498047
40
0.0
41
0.0
42
0.0
10
66.9980010986328
20
76.3013000488281
40
0.0
41
0.0
42
0.0
10
67.2443008422852
20
75.9478988647461
40
0.0
41
0.0
42
0.0
10
67.3917999267578
20
75.7596969604492
40
0.0
41
0.0
42
0.0
10
67.4336013793945
20
75.6990966796875
40
0.0
41
0.0
42
0.0
10
67.4928970336914
20
75.6206970214844
40
0.0
41
0.0
42
0.0
10
67.836799621582
20
75.499397277832
40
0.0
41
0.0
42
0.0
10
67.9429016113281
20
75.4514007568359
40
0.0
41
0.0
42
0.0
10
67.9860000610352
20
75.4244995117188
40
0.0
41
0.0
42
0.0
10
68.0149993896484
20
75.4244995117188
40
0.0
41
0.0
42
0.0
10
68.1660003662109
20
75.4992980957031
40
0.0
41
0.0
42
0.0
10
68.5110015869141
20
75.6182022094727
40
0.0
41
0.0
42
0.0
10
68.693603515625
20
75.7292022705078
40
0.0
41
0.0
42
0.0
10
68.8030014038086
20
75.7917022705078
40
0.0
41
0.0
42
0.0
10
69.0096969604492
20
75.9161987304688
40
0.0
41
0.0
42
0.0
10
69.1670989990234
20
75.9984970092773
40
0.0
41
0.0
42
0.0
10
69.5113983154297
20
76.1875991821289
40
0.0
41
0.0
42
0.0
10
69.8010025024414
20
76.2873001098633
40
0.0
41
0.0
42
0.0
10
69.9994964599609
20
76.3432006835938
40
0.0
41
0.0
42
0.0
10
70.2033004760742
20
76.2816009521484
40
0.0
41
0.0
42
0.0
10
70.4922027587891
20
76.2390975952148
40
0.0
41
0.0
42
0.0
10
70.6567001342773
20
75.9942016601562
40
0.0
41
0.0
42
0.0
10
70.8870010375977
20
75.8043975830078
40
0.0
41
0.0
42
0.0
10
70.9937973022461
20
75.7406005859375
40
0.0
41
0.0
42
0.0
10
71.1995010375977
20
75.4933013916016
40
0.0
41
0.0
42
0.0
10
71.3895034790039
20
75.2613983154297
40
0.0
41
0.0
42
0.0
10
71.4908981323242
20
75.1859970092773
40
0.0
41
0.0
42
0.0
10
71.5196990966797
20
75.1719970703125
40
0.0
41
0.0
42
0.0
10
71.6890029907227
20
74.9931030273438
40
0.0
41
0.0
42
0.0
10
71.674201965332
20
74.9102020263672
40
0.0
41
0.0
42
0.0
10
71.5606994628906
20
74.5068969726562
40
0.0
41
0.0
42
0.0
10
71.5482025146484
20
74.4983978271484
40
0.0
41
0.0
42
0.0
10
71.495002746582
20
74.4372024536133
40
0.0
41
0.0
42
0.0
10
71.3900985717773
20
74.3431015014648
40
0.0
41
0.0
42
0.0
10
71.1153030395508
20
74.0130004882812
40
0.0
41
0.0
42
0.0
10
70.9965972900391
20
73.8069000244141
40
0.0
41
0.0
42
0.0
10
70.7874984741211
20
73.6084976196289
40
0.0
41
0.0
42
0.0
10
70.6364974975586
20
73.5053024291992
40
0.0
41
0.0
42
0.0
10
70.4928970336914
20
73.2610015869141
40
0.0
41
0.0
42
0.0
10
70.2358016967773
20
73.2759017944336
40
0.0
41
0.0
42
0.0
10
70.1992034912109
20
73.2758026123047
40
0.0
41
0.0
42
0.0
10
70.0022964477539
20
73.2244033813477
40
0.0
41
0.0
42
0.0
10
69.6585998535156
20
73.3501968383789
40
0.0
41
0.0
42
0.0
10
69.5129013061523
20
73.3841018676758
40
0.0
41
0.0
42
0.0
10
69.2708969116211
20
73.5009002685547
40
0.0
41
0.0
42
0.0
10
69.116096496582
20
73.5708999633789
40
0.0
41
0.0
42
0.0
10
68.597900390625
20
73.8167037963867
40
0.0
41
0.0
42
0.0
10
68.5130004882812
20
73.8599014282227
40
0.0
41
0.0
42
0.0
10
68.0177993774414
20
73.9607009887695
40
0.0
41
0.0
42
0.0
10
67.9859008789062
20
73.9606018066406
40
0.0
41
0.0
42
0.0
10
67.4953002929688
20
73.6557998657227
40
0.0
41
0.0
42
0.0
10
67.470703125
20
73.6151962280273
40
0.0
41
0.0
42
0.0
10
67.3770980834961
20
73.405403137207
40
0.0
41
0.0
42
0.0
10
67.1521987915039
20
73.011100769043
40
0.0
41
0.0
42
0.0
10
66.9991989135742
20
72.5911026000977
40
0.0
41
0.0
42
0.0
10
66.9732971191406
20
72.5142974853516
40
0.0
41
0.0
42
0.0
10
66.9505004882812
20
72.4112014770508
40
0.0
41
0.0
42
0.0
10
66.8929977416992
20
72.0178985595703
40
0.0
41
0.0
42
0.0
10
66.8879013061523
20
71.9143981933594
40
0.0
41
0.0
42
0.0
10
66.8878021240234
20
71.8764038085938
40
0.0
41
0.0
42
0.0
10
66.9422988891602
20
71.4843978881836
40
0.0
41
0.0
42
0.0
10
66.9738006591797
20
71.379997253418
40
0.0
41
0.0
42
0.0
10
66.9974975585938
20
71.3496017456055
40
0.0
41
0.0
42
0.0
10
67.1978988647461
20
70.9908981323242
40
0.0
41
0.0
42
0.0
10
67.2128982543945
20
70.9685974121094
40
0.0
41
0.0
42
0.0
10
67.3890991210938
20
70.8189010620117
40
0.0
41
0.0
42
0.0
10
67.4681015014648
20
70.7406005859375
40
0.0
41
0.0
42
0.0
10
67.4906997680664
20
70.7277984619141
40
0.0
41
0.0
42
0.0
10
67.8522033691406
20
70.4979019165039
40
0.0
41
0.0
42
0.0
10
67.8849029541016
20
70.4794006347656
40
0.0
41
0.0
42
0.0
10
67.9881973266602
20
70.4264984130859
40
0.0
41
0.0
42
0.0
10
68.3822021484375
20
70.2888031005859
40
0.0
41
0.0
42
0.0
10
68.4852981567383
20
70.2490997314453
40
0.0
41
0.0
42
0.0
10
68.875602722168
20
70.1921005249023
40
0.0
41
0.0
42
0.0
10
68.9832992553711
20
70.1568984985352
40
0.0
41
0.0
42
0.0
10
69.0176010131836
20
70.1568984985352
40
0.0
41
0.0
42
0.0
10
69.3237991333008
20
70.2283020019531
40
0.0
41
0.0
42
0.0
10
69.4811019897461
20
70.2104034423828
40
0.0
41
0.0
42
0.0
10
69.5109024047852
20
70.2105026245117
40
0.0
41
0.0
42
0.0
10
69.5814971923828
20
70.2848968505859
40
0.0
41
0.0
42
0.0
10
69.8191986083984
20
70.4927978515625
40
0.0
41
0.0
42
0.0
10
69.9311981201172
20
70.7360000610352
40
0.0
41
0.0
42
0.0
10
69.9982986450195
20
70.9856033325195
40
0.0
41
0.0
42
0.0
10
70.0987014770508
20
71.3363037109375
40
0.0
41
0.0
42
0.0
10
70.1153030395508
20
71.4024963378906
40
0.0
41
0.0
42
0.0
10
70.1336975097656
20
71.4853973388672
40
0.0
41
0.0
42
0.0
10
70.2529983520508
20
71.8637008666992
40
0.0
41
0.0
42
0.0
10
70.4419021606445
20
72.2801971435547
40
0.0
41
0.0
42
0.0
10
70.5046997070312
20
72.359001159668
40
0.0
41
0.0
42
0.0
10
70.6598968505859
20
72.4974975585938
40
0.0
41
0.0
42
0.0
10
71.0082015991211
20
72.6670989990234
40
0.0
41
0.0
42
0.0
10
71.2508010864258
20
72.6368026733398
40
0.0
41
0.0
42
0.0
10
71.2874984741211
20
72.6367034912109
40
0.0
41
0.0
42
0.0
10
71.5158004760742
20
72.6801986694336
40
0.0
41
0.0
42
0.0
10
71.6135025024414
20
72.7009963989258
40
0.0
41
0.0
42
0.0
10
71.9806976318359
20
72.6750030517578
40
0.0
41
0.0
42
0.0
10
72.0186996459961
20
72.6748962402344
40
0.0
41
0.0
42
0.0
10
72.1080017089844
20
72.6856002807617
40
0.0
41
0.0
42
0.0
10
72.4839019775391
20
72.6537017822266
40
0.0
41
0.0
42
0.0
10
72.5398025512695
20
72.6368026733398
40
0.0
41
0.0
42
0.0
10
72.7845993041992
20
72.4935989379883
40
0.0
41
0.0
42
0.0
10
72.8133010864258
20
72.3804016113281
40
0.0
41
0.0
42
0.0
10
72.927001953125
20
71.9876022338867
40
0.0
41
0.0
42
0.0
10
72.9238967895508
20
71.9144973754883
40
0.0
41
0.0
42
0.0
10
72.9240036010742
20
71.8762969970703
40
0.0
41
0.0
42
0.0
10
72.9700012207031
20
71.5010986328125
40
0.0
41
0.0
42
0.0
10
72.9570999145508
20
71.4233016967773
40
0.0
41
0.0
42
0.0
10
72.9571990966797
20
71.3862991333008
40
0.0
41
0.0
42
0.0
10
73.0007019042969
20
71.0427017211914
40
0.0
41
0.0
42
0.0
10
73.0112991333008
20
70.9853973388672
40
0.0
41
0.0
42
0.0
10
73.0241012573242
20
70.9488983154297
40
0.0
41
0.0
42
0.0
10
73.0000991821289
20
70.9067001342773
40
0.0
41
0.0
42
0.0
10
72.943603515625
20
70.5093002319336
40
0.0
41
0.0
42
0.0
10
72.4922027587891
20
70.1132965087891
40
0.0
41
0.0
42
0.0
10
72.2941970825195
20
70.0009994506836
40
0.0
41
0.0
42
0.0
10
71.9877014160156
20
69.8702011108398
40
0.0
41
0.0
42
0.0
10
71.6828002929688
20
69.757698059082
40
0.0
41
0.0
42
0.0
10
71.4869995117188
20
69.6892013549805
40
0.0
41
0.0
42
0.0
10
71.2669982910156
20
69.6089019775391
40
0.0
41
0.0
42
0.0
10
71.2226028442383
20
69.6044006347656
40
0.0
41
0.0
42
0.0
10
71.0204010009766
20
69.5019989013672
40
0.0
41
0.0
42
0.0
10
70.9947967529297
20
69.4832992553711
40
0.0
41
0.0
42
0.0
10
70.9629974365234
20
69.4412002563477
40
0.0
41
0.0
42
0.0
10
70.6704025268555
20
69.0134963989258
40
0.0
41
0.0
42
0.0
10
70.6703033447266
20
68.9835968017578
40
0.0
41
0.0
42
0.0
10
70.7074966430664
20
68.8786010742188
40
0.0
41
0.0
42
0.0
10
70.7108993530273
20
68.4841003417969
40
0.0
41
0.0
42
0.0
10
70.7526016235352
20
68.3818969726562
40
0.0
41
0.0
42
0.0
10
70.8703002929688
20
67.9876022338867
40
0.0
41
0.0
42
0.0
10
70.9498977661133
20
67.8240966796875
40
0.0
41
0.0
42
0.0
10
71.0030975341797
20
67.7198028564453
40
0.0
41
0.0
42
0.0
10
71.136100769043
20
67.4912033081055
40
0.0
41
0.0
42
0.0
10
71.2078018188477
20
67.3874969482422
40
0.0
41
0.0
42
0.0
10
71.4682006835938
20
67.0653991699219
40
0.0
41
0.0
42
0.0
10
71.4937973022461
20
67.03759765625
40
0.0
41
0.0
42
0.0
10
71.5529022216797
20
66.9962997436523
40
0.0
41
0.0
42
0.0
10
71.595100402832
20
66.9577026367188
40
0.0
41
0.0
42
0.0
10
71.886100769043
20
66.7789993286133
40
0.0
41
0.0
42
0.0
10
71.9873962402344
20
66.7134017944336
40
0.0
41
0.0
42
0.0
10
72.4813995361328
20
66.6463012695312
40
0.0
41
0.0
42
0.0
10
72.5183029174805
20
66.6462020874023
40
0.0
41
0.0
42
0.0
10
72.8719024658203
20
66.703498840332
40
0.0
41
0.0
42
0.0
10
73.0151977539062
20
66.7236022949219
40
0.0
41
0.0
42
0.0
10
73.1179962158203
20
66.7573013305664
40
0.0
41
0.0
42
0.0
10
73.5117034912109
20
66.9063034057617
40
0.0
41
0.0
42
0.0
10
73.6156997680664
20
66.9557037353516
40
0.0
41
0.0
42
0.0
10
73.6985015869141
20
66.9980010986328
40
0.0
41
0.0
42
0.0
10
74.052001953125
20
67.2443008422852
40
0.0
41
0.0
42
0.0
10
74.2400970458984
20
67.3918991088867
40
0.0
41
0.0
42
0.0
10
74.3007965087891
20
67.4337005615234
40
0.0
41
0.0
42
0.0
10
74.3789978027344
20
67.4928970336914
40
0.0
41
0.0
42
0.0
10
74.500602722168
20
67.8371963500977
40
0.0
41
0.0
42
0.0
10
74.5754013061523
20
67.9850006103516
40
0.0
41
0.0
42
0.0
10
74.5752029418945
20
68.0149993896484
40
0.0
41
0.0
42
0.0
10
74.5005035400391
20
68.1660003662109
40
0.0
41
0.0
42
0.0
10
74.3815002441406
20
68.5109024047852
40
0.0
41
0.0
42
0.0
10
74.2705993652344
20
68.6934967041016
40
0.0
41
0.0
42
0.0
10
74.2080001831055
20
68.8030014038086
40
0.0
41
0.0
42
0.0
10
74.0835037231445
20
69.0095977783203
40
0.0
41
0.0
42
0.0
10
74.0012969970703
20
69.1670989990234
40
0.0
41
0.0
42
0.0
10
73.8121032714844
20
69.5113983154297
40
0.0
41
0.0
42
0.0
10
73.71240234375
20
69.8010025024414
40
0.0
41
0.0
42
0.0
10
73.6565017700195
20
69.9994964599609
40
0.0
41
0.0
42
0.0
10
73.7182006835938
20
70.2033004760742
40
0.0
41
0.0
42
0.0
10
73.7605972290039
20
70.4922027587891
40
0.0
41
0.0
42
0.0
10
74.0056991577148
20
70.6567993164062
40
0.0
41
0.0
42
0.0
10
74.1952972412109
20
70.8871002197266
40
0.0
41
0.0
42
0.0
10
74.2592010498047
20
70.9937973022461
40
0.0
41
0.0
42
0.0
10
74.5065994262695
20
71.1996002197266
40
0.0
41
0.0
42
0.0
10
74.7382965087891
20
71.3896026611328
40
0.0
41
0.0
42
0.0
10
74.8136978149414
20
71.4908981323242
40
0.0
41
0.0
42
0.0
10
74.8276977539062
20
71.5197982788086
40
0.0
41
0.0
42
0.0
10
75.0067977905273
20
71.6890029907227
40
0.0
41
0.0
42
0.0
10
75.0896987915039
20
71.674201965332
40
0.0
41
0.0
42
0.0
10
75.4931030273438
20
71.5606002807617
40
0.0
41
0.0
42
0.0
10
75.5014038085938
20
71.5481033325195
40
0.0
41
0.0
42
0.0
10
75.5625991821289
20
71.4949035644531
40
0.0
41
0.0
42
0.0
10
75.6566009521484
20
71.3900985717773
40
0.0
41
0.0
42
0.0
10
75.986701965332
20
71.1151962280273
40
0.0
41
0.0
42
0.0
10
76.1928024291992
20
70.9965972900391
40
0.0
41
0.0
42
0.0
10
76.3914031982422
20
70.7873001098633
40
0.0
41
0.0
42
0.0
10
76.4574966430664
20
70.688102722168
40
0.0
41
0.0
42
0.0
10
76.4944000244141
20
70.6365966796875
40
0.0
41
0.0
42
0.0
10
76.7387008666992
20
70.4927978515625
40
0.0
41
0.0
42
0.0
10
76.7239990234375
20
70.2358016967773
40
0.0
41
0.0
42
0.0
10
76.7238998413086
20
70.1990966796875
40
0.0
41
0.0
42
0.0
10
76.7752990722656
20
70.0022964477539
40
0.0
41
0.0
42
0.0
10
76.6495971679688
20
69.6585998535156
40
0.0
41
0.0
42
0.0
10
76.6156005859375
20
69.5129013061523
40
0.0
41
0.0
42
0.0
10
76.4990005493164
20
69.2710037231445
40
0.0
41
0.0
42
0.0
10
76.4289016723633
20
69.116096496582
40
0.0
41
0.0
42
0.0
10
76.1829986572266
20
68.5979995727539
40
0.0
41
0.0
42
0.0
10
76.1398010253906
20
68.5130004882812
40
0.0
41
0.0
42
0.0
10
76.0391998291016
20
68.0177993774414
40
0.0
41
0.0
42
0.0
10
76.0391006469727
20
67.9859008789062
40
0.0
41
0.0
42
0.0
10
76.3440017700195
20
67.4953002929688
40
0.0
41
0.0
42
0.0
10
76.3845977783203
20
67.470703125
40
0.0
41
0.0
42
0.0
10
76.5943984985352
20
67.3770980834961
40
0.0
41
0.0
42
0.0
10
76.9888000488281
20
67.152099609375
40
0.0
41
0.0
42
0.0
10
77.4073028564453
20
66.9997024536133
40
0.0
41
0.0
42
0.0
10
77.4856033325195
20
66.9732971191406
40
0.0
41
0.0
42
0.0
10
77.5886993408203
20
66.9504013061523
40
0.0
41
0.0
42
0.0
10
77.9820022583008
20
66.8929977416992
40
0.0
41
0.0
42
0.0
10
78.0855026245117
20
66.8879013061523
40
0.0
41
0.0
42
0.0
10
78.1234970092773
20
66.8879013061523
40
0.0
41
0.0
42
0.0
10
78.5155029296875
20
66.9422988891602
40
0.0
41
0.0
42
0.0
10
78.6169967651367
20
66.9723968505859
40
0.0
41
0.0
42
0.0
10
78.6196975708008
20
66.9738006591797
40
0.0
41
0.0
42
0.0
10
78.6501007080078
20
66.9974975585938
40
0.0
41
0.0
42
0.0
10
79.0090026855469
20
67.1978988647461
40
0.0
41
0.0
42
0.0
10
79.0310974121094
20
67.2128982543945
40
0.0
41
0.0
42
0.0
10
79.1809005737305
20
67.3891983032227
40
0.0
41
0.0
42
0.0
10
79.2592010498047
20
67.4681015014648
40
0.0
41
0.0
42
0.0
10
79.2718963623047
20
67.4907989501953
40
0.0
41
0.0
42
0.0
10
79.5018997192383
20
67.8523025512695
40
0.0
41
0.0
42
0.0
10
79.5203018188477
20
67.8849029541016
40
0.0
41
0.0
42
0.0
10
79.5731964111328
20
67.9882965087891
40
0.0
41
0.0
42
0.0
10
79.7109985351562
20
68.3822021484375
40
0.0
41
0.0
42
0.0
10
79.750602722168
20
68.4852981567383
40
0.0
41
0.0
42
0.0
10
79.8076019287109
20
68.8757019042969
40
0.0
41
0.0
42
0.0
10
79.8427963256836
20
68.9832992553711
40
0.0
41
0.0
42
0.0
10
79.8427963256836
20
69.0176010131836
40
0.0
41
0.0
42
0.0
10
79.7714004516602
20
69.3237991333008
40
0.0
41
0.0
42
0.0
10
79.7892990112305
20
69.4811019897461
40
0.0
41
0.0
42
0.0
10
79.7891998291016
20
69.5109024047852
40
0.0
41
0.0
42
0.0
10
79.7147979736328
20
69.5813980102539
40
0.0
41
0.0
42
0.0
10
79.5071029663086
20
69.8190994262695
40
0.0
41
0.0
42
0.0
10
79.263801574707
20
69.9311981201172
40
0.0
41
0.0
42
0.0
10
78.5139999389648
20
70.1337966918945
40
0.0
41
0.0
42
0.0
10
78.1360015869141
20
70.2529983520508
40
0.0
41
0.0
42
0.0
10
78.0111999511719
20
70.3106994628906
40
0.0
41
0.0
42
0.0
10
77.719596862793
20
70.4418029785156
40
0.0
41
0.0
42
0.0
10
77.6407012939453
20
70.5046005249023
40
0.0
41
0.0
42
0.0
10
77.5022964477539
20
70.659797668457
40
0.0
41
0.0
42
0.0
10
77.3326034545898
20
71.0082015991211
40
0.0
41
0.0
42
0.0
10
77.3630981445312
20
71.2508010864258
40
0.0
41
0.0
42
0.0
10
77.3629989624023
20
71.2874984741211
40
0.0
41
0.0
42
0.0
10
77.3195037841797
20
71.5158004760742
40
0.0
41
0.0
42
0.0
10
77.298698425293
20
71.6135025024414
40
0.0
41
0.0
42
0.0
10
77.3247985839844
20
71.9815979003906
40
0.0
41
0.0
42
0.0
10
77.3583984375
20
72.3758010864258
40
0.0
41
0.0
42
0.0
10
77.3582992553711
20
72.4136962890625
40
0.0
41
0.0
42
0.0
10
77.3488006591797
20
72.4931030273438
40
0.0
41
0.0
42
0.0
10
77.3628997802734
20
72.5399017333984
40
0.0
41
0.0
42
0.0
10
77.5063018798828
20
72.7845993041992
40
0.0
41
0.0
42
0.0
10
77.619499206543
20
72.8134002685547
40
0.0
41
0.0
42
0.0
10
78.0123977661133
20
72.927001953125
40
0.0
41
0.0
42
0.0
10
78.0854034423828
20
72.9238967895508
40
0.0
41
0.0
42
0.0
10
78.1235961914062
20
72.9240036010742
40
0.0
41
0.0
42
0.0
10
78.4987030029297
20
72.9699020385742
40
0.0
41
0.0
42
0.0
10
78.5764999389648
20
72.9570999145508
40
0.0
41
0.0
42
0.0
10
78.6135025024414
20
72.9571990966797
40
0.0
41
0.0
42
0.0
10
78.9570999145508
20
73.0007019042969
40
0.0
41
0.0
42
0.0
10
79.0145034790039
20
73.0112991333008
40
0.0
41
0.0
42
0.0
10
79.0509033203125
20
73.0240020751953
40
0.0
41
0.0
42
0.0
10
79.0931015014648
20
73.0000991821289
40
0.0
41
0.0
42
0.0
10
79.4906005859375
20
72.943603515625
40
0.0
41
0.0
42
0.0
10
79.8863983154297
20
72.4921035766602
40
0.0
41
0.0
42
0.0
10
79.9988021850586
20
72.2941970825195
40
0.0
41
0.0
42
0.0
10
80.1295013427734
20
71.9877014160156
40
0.0
41
0.0
42
0.0
10
80.2419967651367
20
71.6827011108398
40
0.0
41
0.0
42
0.0
10
80.3114013671875
20
71.4843978881836
40
0.0
41
0.0
42
0.0
10
80.3151016235352
20
71.4412994384766
40
0.0
41
0.0
42
0.0
10
80.3953018188477
20
71.2218017578125
40
0.0
41
0.0
42
0.0
10
80.4045028686523
20
71.1623001098633
40
0.0
41
0.0
42
0.0
10
80.4746017456055
20
71.0553970336914
40
0.0
41
0.0
42
0.0
10
80.5167007446289
20
70.9945983886719
40
0.0
41
0.0
42
0.0
10
80.5586013793945
20
70.9628982543945
40
0.0
41
0.0
42
0.0
10
80.9863967895508
20
70.6704025268555
40
0.0
41
0.0
42
0.0
10
81.0162963867188
20
70.6703033447266
40
0.0
41
0.0
42
0.0
10
81.1212997436523
20
70.7074966430664
40
0.0
41
0.0
42
0.0
10
81.5158004760742
20
70.7108993530273
40
0.0
41
0.0
42
0.0
10
81.6179962158203
20
70.7526016235352
40
0.0
41
0.0
42
0.0
10
82.0122985839844
20
70.8703002929688
40
0.0
41
0.0
42
0.0
10
82.1756973266602
20
70.9499969482422
40
0.0
41
0.0
42
0.0
10
82.2799987792969
20
71.0031967163086
40
0.0
41
0.0
42
0.0
10
82.5086975097656
20
71.1361999511719
40
0.0
41
0.0
42
0.0
10
82.6122970581055
20
71.2078018188477
40
0.0
41
0.0
42
0.0
10
82.9344024658203
20
71.4682998657227
40
0.0
41
0.0
42
0.0
10
82.9621963500977
20
71.4937973022461
40
0.0
41
0.0
42
0.0
10
83.0035018920898
20
71.5529022216797
40
0.0
41
0.0
42
0.0
10
83.0419998168945
20
71.595100402832
40
0.0
41
0.0
42
0.0
10
83.220703125
20
71.8861999511719
40
0.0
41
0.0
42
0.0
10
83.2863006591797
20
71.9875030517578
40
0.0
41
0.0
42
0.0
10
83.3535995483398
20
72.4813995361328
40
0.0
41
0.0
42
0.0
10
83.3535003662109
20
72.5183029174805
40
0.0
41
0.0
42
0.0
10
83.2962036132812
20
72.8719024658203
40
0.0
41
0.0
42
0.0
10
83.2761993408203
20
73.0151977539062
40
0.0
41
0.0
42
0.0
10
83.2424011230469
20
73.1178970336914
40
0.0
41
0.0
42
0.0
10
83.0933990478516
20
73.5117034912109
40
0.0
41
0.0
42
0.0
10
83.0440979003906
20
73.6156005859375
40
0.0
41
0.0
42
0.0
10
83.0018005371094
20
73.6985015869141
40
0.0
41
0.0
42
0.0
10
82.7873001098633
20
74.0074005126953
40
0.0
41
0.0
42
0.0
10
82.6589965820312
20
74.1709976196289
40
0.0
41
0.0
42
0.0
10
82.5067977905273
20
74.3789978027344
40
0.0
41
0.0
42
0.0
10
82.1630020141602
20
74.5003967285156
40
0.0
41
0.0
42
0.0
10
82.0569000244141
20
74.5483016967773
40
0.0
41
0.0
42
0.0
10
82.0139007568359
20
74.5754013061523
40
0.0
41
0.0
42
0.0
10
81.9849014282227
20
74.5753021240234
40
0.0
41
0.0
42
0.0
10
81.8338012695312
20
74.5005035400391
40
0.0
41
0.0
42
0.0
10
81.488899230957
20
74.3815994262695
40
0.0
41
0.0
42
0.0
10
81.3062973022461
20
74.2705993652344
40
0.0
41
0.0
42
0.0
10
81.1968002319336
20
74.2080001831055
40
0.0
41
0.0
42
0.0
10
80.9903030395508
20
74.0836029052734
40
0.0
41
0.0
42
0.0
10
80.8327026367188
20
74.0014038085938
40
0.0
41
0.0
42
0.0
10
80.4885025024414
20
73.8122024536133
40
0.0
41
0.0
42
0.0
10
80.1987991333008
20
73.71240234375
40
0.0
41
0.0
42
0.0
10
80.0003967285156
20
73.6565017700195
40
0.0
41
0.0
42
0.0
10
79.7966003417969
20
73.7182006835938
40
0.0
41
0.0
42
0.0
10
79.5075988769531
20
73.760498046875
40
0.0
41
0.0
42
0.0
10
79.3430023193359
20
74.0056991577148
40
0.0
41
0.0
42
0.0
10
79.2289962768555
20
74.0997009277344
40
0.0
41
0.0
42
0.0
10
79.005500793457
20
74.2598037719727
40
0.0
41
0.0
42
0.0
10
78.8002014160156
20
74.5065002441406
40
0.0
41
0.0
42
0.0
10
78.6102981567383
20
74.7382965087891
40
0.0
41
0.0
42
0.0
10
78.5090026855469
20
74.8136978149414
40
0.0
41
0.0
42
0.0
10
78.4800033569336
20
74.8275985717773
40
0.0
41
0.0
42
0.0
10
78.3124008178711
20
75.004997253418
40
0.0
41
0.0
42
0.0
10
78.4178009033203
20
75.3796997070312
40
0.0
41
0.0
42
0.0
10
78.4382019042969
20
75.4924011230469
40
0.0
41
0.0
42
0.0
10
78.4516983032227
20
75.5015029907227
40
0.0
41
0.0
42
0.0
10
78.5048980712891
20
75.5625991821289
40
0.0
41
0.0
42
0.0
10
78.6098022460938
20
75.6567001342773
40
0.0
41
0.0
42
0.0
10
78.8844985961914
20
75.9868011474609
40
0.0
41
0.0
42
0.0
10
79.003303527832
20
76.1929016113281
40
0.0
41
0.0
42
0.0
10
79.21240234375
20
76.3914031982422
40
0.0
41
0.0
42
0.0
10
79.3115997314453
20
76.4574966430664
40
0.0
41
0.0
42
0.0
10
79.3630981445312
20
76.4944000244141
40
0.0
41
0.0
42
0.0
10
79.5071029663086
20
76.7387008666992
40
0.0
41
0.0
42
0.0
10
79.7639999389648
20
76.7239990234375
40
0.0
41
0.0
42
0.0
10
79.8006973266602
20
76.7239990234375
40
0.0
41
0.0
42
0.0
10
79.9975967407227
20
76.7752990722656
40
0.0
41
0.0
42
0.0
10
80.3411026000977
20
76.6494979858398
40
0.0
41
0.0
42
0.0
10
80.4869995117188
20
76.6156005859375
40
0.0
41
0.0
42
0.0
10
80.7287979125977
20
76.4989013671875
40
0.0
41
0.0
42
0.0
10
80.8837966918945
20
76.4288024902344
40
0.0
41
0.0
42
0.0
10
81.4018020629883
20
76.1828994750977
40
0.0
41
0.0
42
0.0
10
81.4869003295898
20
76.1398010253906
40
0.0
41
0.0
42
0.0
10
81.9821014404297
20
76.0391998291016
40
0.0
41
0.0
42
0.0
10
82.0139999389648
20
76.0391006469727
40
0.0
41
0.0
42
0.0
10
82.5045013427734
20
76.3441009521484
40
0.0
41
0.0
42
0.0
10
82.5289993286133
20
76.3846969604492
40
0.0
41
0.0
42
0.0
10
82.5761032104492
20
76.489501953125
40
0.0
41
0.0
42
0.0
10
82.801399230957
20
76.8843994140625
40
0.0
41
0.0
42
0.0
10
82.847297668457
20
76.9878005981445
40
0.0
41
0.0
42
0.0
10
83.0
20
77.4073028564453
40
0.0
41
0.0
42
0.0
10
83.0261993408203
20
77.4849014282227
40
0.0
41
0.0
42
0.0
10
83.0836029052734
20
77.8787994384766
40
0.0
41
0.0
42
0.0
10
83.1066970825195
20
77.9822998046875
40
0.0
41
0.0
42
0.0
10
83.1065979003906
20
78.0185012817383
40
0.0
41
0.0
42
0.0
10
83.0531005859375
20
78.4031982421875
40
0.0
41
0.0
42
0.0
10
83.0570983886719
20
78.4804992675781
40
0.0
41
0.0
42
0.0
10
83.056999206543
20
78.5168991088867
40
0.0
41
0.0
42
0.0
10
83.0272979736328
20
78.6169967651367
40
0.0
41
0.0
42
0.0
10
83.0022964477539
20
78.6501007080078
40
0.0
41
0.0
42
0.0
10
82.8031997680664
20
79.0064010620117
40
0.0
41
0.0
42
0.0
10
82.6418991088867
20
79.1435012817383
40
0.0
41
0.0
42
0.0
10
82.5068969726562
20
79.2733001708984
40
0.0
41
0.0
42
0.0
10
82.1474990844727
20
79.5018005371094
40
0.0
41
0.0
42
0.0
10
82.1149978637695
20
79.5202026367188
40
0.0
41
0.0
42
0.0
10
82.0115966796875
20
79.5731964111328
40
0.0
41
0.0
42
0.0
10
81.6176986694336
20
79.7108993530273
40
0.0
41
0.0
42
0.0
10
81.5146026611328
20
79.750602722168
40
0.0
41
0.0
42
0.0
10
81.1240997314453
20
79.8076019287109
40
0.0
41
0.0
42
0.0
10
81.0166015625
20
79.8427963256836
40
0.0
41
0.0
42
0.0
10
80.9822998046875
20
79.8427963256836
40
0.0
41
0.0
42
0.0
10
80.6760025024414
20
79.7714004516602
40
0.0
41
0.0
42
0.0
10
80.518798828125
20
79.7892990112305
40
0.0
41
0.0
42
0.0
10
80.4889984130859
20
79.7892990112305
40
0.0
41
0.0
42
0.0
10
80.4182968139648
20
79.7147979736328
40
0.0
41
0.0
42
0.0
10
80.1806030273438
20
79.5071029663086
40
0.0
41
0.0
42
0.0
10
80.0684967041016
20
79.263801574707
40
0.0
41
0.0
42
0.0
10
80.0015029907227
20
79.0143966674805
40
0.0
41
0.0
42
0.0
10
79.8900985717773
20
78.6197967529297
40
0.0
41
0.0
42
0.0
10
79.8659973144531
20
78.5143966674805
40
0.0
41
0.0
42
0.0
10
79.7468032836914
20
78.136100769043
40
0.0
41
0.0
42
0.0
10
79.6890029907227
20
78.0111999511719
40
0.0
41
0.0
42
0.0
10
79.5578994750977
20
77.719596862793
40
0.0
41
0.0
42
0.0
10
79.4952011108398
20
77.6408004760742
40
0.0
41
0.0
42
0.0
10
79.3399963378906
20
77.5022964477539
40
0.0
41
0.0
42
0.0
10
78.99169921875
20
77.3326034545898
40
0.0
41
0.0
42
0.0
10
78.7490005493164
20
77.3630981445312
40
0.0
41
0.0
42
0.0
10
78.7123031616211
20
77.3629989624023
40
0.0
41
0.0
42
0.0
10
78.4841003417969
20
77.3195037841797
40
0.0
41
0.0
42
0.0
10
78.3863983154297
20
77.298698425293
40
0.0
41
0.0
42
0.0
10
78.0183029174805
20
77.3247985839844
40
0.0
41
0.0
42
0.0
10
77.6240997314453
20
77.3583984375
40
0.0
41
0.0
42
0.0
10
77.5861968994141
20
77.3582992553711
40
0.0
41
0.0
42
0.0
10
77.5067977905273
20
77.3488006591797
40
0.0
41
0.0
42
0.0
10
77.4598999023438
20
77.3628997802734
40
0.0
41
0.0
42
0.0
10
77.2154998779297
20
77.5059967041016
40
0.0
41
0.0
42
0.0
10
77.0987014770508
20
77.9094009399414
40
0.0
41
0.0
42
0.0
10
77.0727005004883
20
78.0121994018555
40
0.0
41
0.0
42
0.0
10
77.075798034668
20
78.0854034423828
40
0.0
41
0.0
42
0.0
10
77.0756988525391
20
78.1235961914062
40
0.0
41
0.0
42
0.0
10
77.0298004150391
20
78.4987030029297
40
0.0
41
0.0
42
0.0
10
77.0426025390625
20
78.5764999389648
40
0.0
41
0.0
42
0.0
10
77.0425033569336
20
78.6135025024414
40
0.0
41
0.0
42
0.0
10
76.9990997314453
20
78.9570999145508
40
0.0
41
0.0
42
0.0
10
76.9884033203125
20
79.0145034790039
40
0.0
41
0.0
42
0.0
10
76.975700378418
20
79.0509033203125
40
0.0
41
0.0
42
0.0
10
76.9997024536133
20
79.0932006835938
40
0.0
41
0.0
42
0.0
10
77.0561981201172
20
79.4906005859375
40
0.0
41
0.0
42
0.0
10
77.507698059082
20
79.8863983154297
40
0.0
41
0.0
42
0.0
10
77.7055969238281
20
79.9988021850586
40
0.0
41
0.0
42
0.0
10
78.0121994018555
20
80.1296005249023
40
0.0
41
0.0
42
0.0
10
78.3170013427734
20
80.2419967651367
40
0.0
41
0.0
42
0.0
10
78.5155029296875
20
80.3114013671875
40
0.0
41
0.0
42
0.0
10
78.5585021972656
20
80.3151016235352
40
0.0
41
0.0
42
0.0
10
78.7779998779297
20
80.3953018188477
40
0.0
41
0.0
42
0.0
10
78.83740234375
20
80.4045028686523
40
0.0
41
0.0
42
0.0
10
78.9442977905273
20
80.4746017456055
40
0.0
41
0.0
42
0.0
10
79.0052032470703
20
80.5167999267578
40
0.0
41
0.0
42
0.0
10
79.0367965698242
20
80.5586013793945
40
0.0
41
0.0
42
0.0
10
79.3294982910156
20
80.9863967895508
40
0.0
41
0.0
42
0.0
10
79.3293991088867
20
81.0162963867188
40
0.0
41
0.0
42
0.0
10
79.2921981811523
20
81.1212005615234
40
0.0
41
0.0
42
0.0
10
79.2888031005859
20
81.5167999267578
40
0.0
41
0.0
42
0.0
10
79.1718978881836
20
81.9078979492188
40
0.0
41
0.0
42
0.0
10
79.1297988891602
20
82.0112991333008
40
0.0
41
0.0
42
0.0
10
79.0014038085938
20
82.271598815918
40
0.0
41
0.0
42
0.0
10
78.8636016845703
20
82.5086975097656
40
0.0
41
0.0
42
0.0
10
78.7919006347656
20
82.6122970581055
40
0.0
41
0.0
42
0.0
10
78.5315017700195
20
82.9344024658203
40
0.0
41
0.0
42
0.0
10
78.5059967041016
20
82.9620971679688
40
0.0
41
0.0
42
0.0
10
78.448600769043
20
83.0024032592773
40
0.0
41
0.0
42
0.0
10
78.2780990600586
20
83.1070022583008
40
0.0
41
0.0
42
0.0
10
78.0121994018555
20
83.2863006591797
40
0.0
41
0.0
42
0.0
10
77.5185012817383
20
83.3535995483398
40
0.0
41
0.0
42
0.0
10
77.4815979003906
20
83.3535003662109
40
0.0
41
0.0
42
0.0
10
77.1278991699219
20
83.2962036132812
40
0.0
41
0.0
42
0.0
10
76.9847030639648
20
83.2761993408203
40
0.0
41
0.0
42
0.0
10
76.8820037841797
20
83.2424011230469
40
0.0
41
0.0
42
0.0
10
76.4881973266602
20
83.0933990478516
40
0.0
41
0.0
42
0.0
10
76.3842010498047
20
83.0440979003906
40
0.0
41
0.0
42
0.0
10
76.3013000488281
20
83.0018997192383
40
0.0
41
0.0
42
0.0
10
75.9924011230469
20
82.7873001098633
40
0.0
41
0.0
42
0.0
10
75.8286972045898
20
82.6589965820312
40
0.0
41
0.0
42
0.0
10
75.6206970214844
20
82.5067977905273
40
0.0
41
0.0
42
0.0
10
75.4992980957031
20
82.16259765625
40
0.0
41
0.0
42
0.0
10
75.4244995117188
20
82.0149002075195
40
0.0
41
0.0
42
0.0
10
75.4244003295898
20
81.9849014282227
40
0.0
41
0.0
42
0.0
10
75.4992980957031
20
81.8337020874023
40
0.0
41
0.0
42
0.0
10
75.6182022094727
20
81.488899230957
40
0.0
41
0.0
42
0.0
10
75.7291030883789
20
81.3062973022461
40
0.0
41
0.0
42
0.0
10
75.7917022705078
20
81.1967010498047
40
0.0
41
0.0
42
0.0
10
75.9160995483398
20
80.9901962280273
40
0.0
41
0.0
42
0.0
10
75.9984970092773
20
80.8327026367188
40
0.0
41
0.0
42
0.0
10
76.1875991821289
20
80.4885025024414
40
0.0
41
0.0
42
0.0
10
76.2873001098633
20
80.1987991333008
40
0.0
41
0.0
42
0.0
10
76.3432006835938
20
80.0005035400391
40
0.0
41
0.0
42
0.0
10
76.2816009521484
20
79.7966003417969
40
0.0
41
0.0
42
0.0
10
76.2391967773438
20
79.507698059082
40
0.0
41
0.0
42
0.0
10
75.9942016601562
20
79.3430023193359
40
0.0
41
0.0
42
0.0
10
75.8044967651367
20
79.1128005981445
40
0.0
41
0.0
42
0.0
10
75.7406997680664
20
79.006103515625
40
0.0
41
0.0
42
0.0
10
75.4933013916016
20
78.8002014160156
40
0.0
41
0.0
42
0.0
10
75.2614974975586
20
78.6102981567383
40
0.0
41
0.0
42
0.0
10
75.1859970092773
20
78.5090026855469
40
0.0
41
0.0
42
0.0
10
75.1720962524414
20
78.4801025390625
40
0.0
41
0.0
42
0.0
10
74.995002746582
20
78.3124008178711
40
0.0
41
0.0
42
0.0
10
74.6202011108398
20
78.4178009033203
40
0.0
41
0.0
42
0.0
10
74.5074996948242
20
78.438102722168
40
0.0
41
0.0
42
0.0
10
74.4983978271484
20
78.4515991210938
40
0.0
41
0.0
42
0.0
10
74.4371032714844
20
78.5048980712891
40
0.0
41
0.0
42
0.0
10
74.3431015014648
20
78.6097030639648
40
0.0
41
0.0
42
0.0
10
74.0130004882812
20
78.8843994140625
40
0.0
41
0.0
42
0.0
10
73.8069000244141
20
79.0031967163086
40
0.0
41
0.0
42
0.0
10
73.6204986572266
20
79.1990966796875
40
0.0
41
0.0
42
0.0
10
73.5054016113281
20
79.3630981445312
40
0.0
41
0.0
42
0.0
10
73.2610015869141
20
79.5070037841797
40
0.0
41
0.0
42
0.0
10
73.2759017944336
20
79.7639999389648
40
0.0
41
0.0
42
0.0
10
73.2757034301758
20
79.8005981445312
40
0.0
41
0.0
42
0.0
10
73.2244033813477
20
79.9975967407227
40
0.0
41
0.0
42
0.0
10
73.3503036499023
20
80.3412017822266
40
0.0
41
0.0
42
0.0
10
73.3842010498047
20
80.4869995117188
40
0.0
41
0.0
42
0.0
10
73.5009002685547
20
80.7288970947266
40
0.0
41
0.0
42
0.0
10
73.5709991455078
20
80.8837966918945
40
0.0
41
0.0
42
0.0
10
73.8168029785156
20
81.4018020629883
40
0.0
41
0.0
42
0.0
10
73.8599014282227
20
81.4869003295898
40
0.0
41
0.0
42
0.0
10
73.9607009887695
20
81.9821014404297
40
0.0
41
0.0
42
0.0
10
73.9606018066406
20
82.0139007568359
40
0.0
41
0.0
42
0.0
10
73.6557998657227
20
82.5045013427734
40
0.0
41
0.0
42
0.0
10
73.6151962280273
20
82.5289001464844
40
0.0
41
0.0
42
0.0
10
73.5103988647461
20
82.5759963989258
40
0.0
41
0.0
42
0.0
10
73.1154022216797
20
82.801399230957
40
0.0
41
0.0
42
0.0
10
73.0121002197266
20
82.847297668457
40
0.0
41
0.0
42
0.0
10
72.5924987792969
20
83.0000991821289
40
0.0
41
0.0
42
0.0
10
72.5149993896484
20
83.0261993408203
40
0.0
41
0.0
42
0.0
10
72.1211013793945
20
83.0836029052734
40
0.0
41
0.0
42
0.0
10
72.0176010131836
20
83.1066970825195
40
0.0
41
0.0
42
0.0
10
71.9813995361328
20
83.1066970825195
40
0.0
41
0.0
42
0.0
10
71.5967025756836
20
83.0530014038086
40
0.0
41
0.0
42
0.0
10
71.519401550293
20
83.0570983886719
40
0.0
41
0.0
42
0.0
10
71.4830017089844
20
83.056999206543
40
0.0
41
0.0
42
0.0
10
71.3827972412109
20
83.0272979736328
40
0.0
41
0.0
42
0.0
10
71.3497009277344
20
83.0022964477539
40
0.0
41
0.0
42
0.0
10
70.9934997558594
20
82.8032989501953
40
0.0
41
0.0
42
0.0
10
70.8554992675781
20
82.6410980224609
40
0.0
41
0.0
42
0.0
10
70.8180999755859
20
82.6099014282227
40
0.0
41
0.0
42
0.0
10
70.7266998291016
20
82.5072021484375
40
0.0
41
0.0
42
0.0
10
70.4979019165039
20
82.1475982666016
40
0.0
41
0.0
42
0.0
10
70.4794998168945
20
82.1149978637695
40
0.0
41
0.0
42
0.0
10
70.4264984130859
20
82.0115966796875
40
0.0
41
0.0
42
0.0
10
70.2888031005859
20
81.6176986694336
40
0.0
41
0.0
42
0.0
10
70.2490997314453
20
81.5146026611328
40
0.0
41
0.0
42
0.0
10
70.1921005249023
20
81.1240997314453
40
0.0
41
0.0
42
0.0
10
70.1568984985352
20
81.0166015625
40
0.0
41
0.0
42
0.0
10
70.1568984985352
20
80.9822998046875
40
0.0
41
0.0
42
0.0
10
70.2283020019531
20
80.6760025024414
40
0.0
41
0.0
42
0.0
10
70.2104034423828
20
80.518798828125
40
0.0
41
0.0
42
0.0
10
70.2105026245117
20
80.4889984130859
40
0.0
41
0.0
42
0.0
10
70.2848968505859
20
80.4182968139648
40
0.0
41
0.0
42
0.0
10
70.4926986694336
20
80.1806030273438
40
0.0
41
0.0
42
0.0
10
70.7360000610352
20
80.0684967041016
40
0.0
41
0.0
42
0.0
10
70.9854965209961
20
80.0014038085938
40
0.0
41
0.0
42
0.0
10
71.3360977172852
20
79.9010009765625
40
0.0
41
0.0
42
0.0
10
71.4854965209961
20
79.8659973144531
40
0.0
41
0.0
42
0.0
10
71.8637008666992
20
79.746696472168
40
0.0
41
0.0
42
0.0
10
72.2800979614258
20
79.5578002929688
40
0.0
41
0.0
42
0.0
10
72.3589019775391
20
79.4952011108398
40
0.0
41
0.0
42
0.0
10
72.4974975585938
20
79.3398971557617
40
0.0
41
0.0
42
0.0
10
72.6670989990234
20
78.99169921875
40
0.0
41
0.0
42
0.0
10
72.6368026733398
20
78.7490005493164
40
0.0
41
0.0
42
0.0
10
72.6367034912109
20
78.7123031616211
40
0.0
41
0.0
42
0.0
10
72.6801986694336
20
78.4841003417969
40
0.0
41
0.0
42
0.0
10
72.7009963989258
20
78.3863983154297
40
0.0
41
0.0
42
0.0
10
72.6750030517578
20
78.0192031860352
40
0.0
41
0.0
42
0.0
10
72.6748962402344
20
77.981201171875
40
0.0
41
0.0
42
0.0
10
72.6856002807617
20
77.8918991088867
40
0.0
41
0.0
42
0.0
10
72.6537017822266
20
77.515998840332
40
0.0
41
0.0
42
0.0
10
72.6369018554688
20
77.4599990844727
40
0.0
41
0.0
42
0.0
10
72.493896484375
20
77.2154998779297
40
0.0
41
0.0
42
0.0
10
72.0904998779297
20
77.0988006591797
40
0.0
41
0.0
42
0.0
10
71.9877014160156
20
77.0727005004883
40
0.0
41
0.0
42
0.0
10
71.9144973754883
20
77.075798034668
40
0.0
41
0.0
42
0.0
10
71.8762969970703
20
77.0756988525391
40
0.0
41
0.0
42
0.0
10
71.5010986328125
20
77.0297012329102
40
0.0
41
0.0
42
0.0
10
71.4233016967773
20
77.0426025390625
40
0.0
41
0.0
42
0.0
10
71.3862991333008
20
77.0425033569336
40
0.0
41
0.0
42
0.0
10
71.0427017211914
20
76.9990997314453
40
0.0
41
0.0
42
0.0
10
70.9853973388672
20
76.9884033203125
40
0.0
41
0.0
42
0.0
10
70.9488983154297
20
76.9756011962891
40
0.0
41
0.0
42
0.0
10
70.9066009521484
20
76.9997024536133
40
0.0
41
0.0
42
0.0
10
70.5093002319336
20
77.0560989379883
40
0.0
41
0.0
42
0.0
10
70.1132965087891
20
77.507698059082
40
0.0
41
0.0
42
0.0
10
70.0009994506836
20
77.7055969238281
40
0.0
41
0.0
42
0.0
10
69.8701019287109
20
78.0121994018555
40
0.0
41
0.0
42
0.0
10
69.757698059082
20
78.3170013427734
40
0.0
41
0.0
42
0.0
10
69.6892013549805
20
78.5128021240234
40
0.0
41
0.0
42
0.0
10
69.6100006103516
20
78.7296981811523
40
0.0
41
0.0
42
0.0
10
69.5015029907227
20
78.9798965454102
40
0.0
41
0.0
42
0.0
10
69.4832000732422
20
79.004997253418
40
0.0
41
0.0
42
0.0
10
69.4411010742188
20
79.0366973876953
40
0.0
41
0.0
42
0.0
10
69.0134963989258
20
79.3294982910156
40
0.0
41
0.0
42
0.0
10
68.9835968017578
20
79.3293991088867
40
0.0
41
0.0
42
0.0
10
68.8787002563477
20
79.2921981811523
40
0.0
41
0.0
42
0.0
10
68.4831008911133
20
79.2888031005859
40
0.0
41
0.0
42
0.0
10
68.0919036865234
20
79.1719970703125
40
0.0
41
0.0
42
0.0
10
67.9886016845703
20
79.1298980712891
40
0.0
41
0.0
42
0.0
10
67.7282028198242
20
79.0014038085938
40
0.0
41
0.0
42
0.0
10
67.4912033081055
20
78.8636016845703
40
0.0
41
0.0
42
0.0
10
67.3876037597656
20
78.7919998168945
40
0.0
41
0.0
42
0.0
10
67.0653991699219
20
78.5315017700195
40
0.0
41
0.0
42
0.0
10
67.0376968383789
20
78.5059967041016
40
0.0
41
0.0
42
0.0
10
66.9974975585938
20
78.4486999511719
40
0.0
41
0.0
42
0.0
10
66.8926010131836
20
78.2780990600586
40
0.0
41
0.0
42
0.0
10
66.7787017822266
20
78.1132965087891
40
0.0
41
0.0
42
0.0
10
66.7134017944336
20
78.0124969482422
40
0.0
41
0.0
42
0.0
10
66.6463012695312
20
77.5185012817383
40
0.0
41
0.0
42
0.0
10
66.6462020874023
20
77.4815979003906
40
0.0
41
0.0
42
0.0
10
66.703498840332
20
77.1278991699219
40
0.0
41
0.0
42
0.0
10
66.723503112793
20
76.9847030639648
40
0.0
41
0.0
42
0.0
10
66.7573013305664
20
76.8818969726562
40
0.0
41
0.0
42
0.0
10
66.9063034057617
20
76.4880981445312
40
0.0
41
0.0
42
0.0
210
0.0
220
0.0
230
1.0
0
LWPOLYLINE
5
25
330
1C
100
AcDbEntity
67
0
8
0
62
256
6
ByLayer
370
-1
48
1.0
60
0
100
AcDbPolyline
90
545
70
1
38
0.0
39
0.0
10
66.6695022583008
20
77.5014038085938
40
0.0
41
0.0
42
0.0
10
66.7354965209961
20
77.9873962402344
40
0.0
41
0.0
42
0.0
10
66.780403137207
20
78.0566024780273
40
0.0
41
0.0
42
0.0
10
66.8507995605469
20
78.1583023071289
40
0.0
41
0.0
42
0.0
10
67.0022964477539
20
78.4049987792969
40
0.0
41
0.0
42
0.0
10
67.0643997192383
20
78.493896484375
40
0.0
41
0.0
42
0.0
10
67.0850982666016
20
78.5129013061523
40
0.0
41
0.0
42
0.0
10
67.4423980712891
20
78.8015975952148
40
0.0
41
0.0
42
0.0
10
67.5086975097656
20
78.8473968505859
40
0.0
41
0.0
42
0.0
10
67.7683029174805
20
78.9984970092773
40
0.0
41
0.0
42
0.0
10
68.0113983154297
20
79.1177978515625
40
0.0
41
0.0
42
0.0
10
68.0780029296875
20
79.1449966430664
40
0.0
41
0.0
42
0.0
10
68.5167999267578
20
79.2759017944336
40
0.0
41
0.0
42
0.0
10
68.9512023925781
20
79.2796020507812
40
0.0
41
0.0
42
0.0
10
68.996696472168
20
79.2957992553711
40
0.0
41
0.0
42
0.0
10
69.2605972290039
20
79.1150970458984
40
0.0
41
0.0
42
0.0
10
69.4197998046875
20
78.9947967529297
40
0.0
41
0.0
42
0.0
10
69.4981994628906
20
78.8879013061523
40
0.0
41
0.0
42
0.0
10
69.5671997070312
20
78.7285995483398
40
0.0
41
0.0
42
0.0
10
69.6555023193359
20
78.4869995117188
40
0.0
41
0.0
42
0.0
10
69.697998046875
20
78.3657989501953
40
0.0
41
0.0
42
0.0
10
69.8373031616211
20
77.9877014160156
40
0.0
41
0.0
42
0.0
10
69.9987030029297
20
77.6094970703125
40
0.0
41
0.0
42
0.0
10
70.065299987793
20
77.4921035766602
40
0.0
41
0.0
42
0.0
10
70.4906005859375
20
77.0072021484375
40
0.0
41
0.0
42
0.0
10
70.5402984619141
20
77.0000991821289
40
0.0
41
0.0
42
0.0
10
70.7619018554688
20
76.8761978149414
40
0.0
41
0.0
42
0.0
10
70.7929000854492
20
76.8761978149414
40
0.0
41
0.0
42
0.0
10
71.0145034790039
20
76.9541015625
40
0.0
41
0.0
42
0.0
10
71.2664031982422
20
77.0007019042969
40
0.0
41
0.0
42
0.0
10
71.4438018798828
20
77.0230026245117
40
0.0
41
0.0
42
0.0
10
71.4815979003906
20
77.0169982910156
40
0.0
41
0.0
42
0.0
10
71.5186996459961
20
77.0168991088867
40
0.0
41
0.0
42
0.0
10
71.9437026977539
20
77.0691986083984
40
0.0
41
0.0
42
0.0
10
72.0175018310547
20
77.0678024291992
40
0.0
41
0.0
42
0.0
10
72.0848007202148
20
77.0850982666016
40
0.0
41
0.0
42
0.0
10
72.5059967041016
20
77.2070007324219
40
0.0
41
0.0
42
0.0
10
72.6519012451172
20
77.4564971923828
40
0.0
41
0.0
42
0.0
10
72.6601028442383
20
77.4838027954102
40
0.0
41
0.0
42
0.0
10
72.6968994140625
20
77.9158020019531
40
0.0
41
0.0
42
0.0
10
72.6968002319336
20
77.9536972045898
40
0.0
41
0.0
42
0.0
10
72.6906967163086
20
78.0046005249023
40
0.0
41
0.0
42
0.0
10
72.7200012207031
20
78.4157028198242
40
0.0
41
0.0
42
0.0
10
72.7200012207031
20
78.4529037475586
40
0.0
41
0.0
42
0.0
10
72.6816024780273
20
78.6460037231445
40
0.0
41
0.0
42
0.0
10
72.7239990234375
20
78.9813003540039
40
0.0
41
0.0
42
0.0
10
72.7238006591797
20
79.0150985717773
40
0.0
41
0.0
42
0.0
10
72.5022964477539
20
79.4698028564453
40
0.0
41
0.0
42
0.0
10
72.4711990356445
20
79.5046005249023
40
0.0
41
0.0
42
0.0
10
72.3784027099609
20
79.5783004760742
40
0.0
41
0.0
42
0.0
10
71.9357986450195
20
79.7783966064453
40
0.0
41
0.0
42
0.0
10
71.5142974853516
20
79.9113006591797
40
0.0
41
0.0
42
0.0
10
71.4010009765625
20
79.9382019042969
40
0.0
41
0.0
42
0.0
10
71.1856994628906
20
79.9998016357422
40
0.0
41
0.0
42
0.0
10
71.0140991210938
20
80.0531005859375
40
0.0
41
0.0
42
0.0
10
70.8572998046875
20
80.0953979492188
40
0.0
41
0.0
42
0.0
10
70.5070037841797
20
80.2566986083984
40
0.0
41
0.0
42
0.0
10
70.3744964599609
20
80.4080963134766
40
0.0
41
0.0
42
0.0
10
70.269401550293
20
80.5080032348633
40
0.0
41
0.0
42
0.0
10
70.2791976928711
20
80.5934982299805
40
0.0
41
0.0
42
0.0
10
70.2790985107422
20
80.6298980712891
40
0.0
41
0.0
42
0.0
10
70.193603515625
20
80.9974975585938
40
0.0
41
0.0
42
0.0
10
70.2115020751953
20
81.0522003173828
40
0.0
41
0.0
42
0.0
10
70.2746963500977
20
81.4852981567383
40
0.0
41
0.0
42
0.0
10
70.3003997802734
20
81.5522003173828
40
0.0
41
0.0
42
0.0
10
70.4527969360352
20
81.9884033203125
40
0.0
41
0.0
42
0.0
10
70.5017013549805
20
82.0817031860352
40
0.0
41
0.0
42
0.0
10
70.7630996704102
20
82.4925994873047
40
0.0
41
0.0
42
0.0
10
70.8231964111328
20
82.5600967407227
40
0.0
41
0.0
42
0.0
10
70.8460006713867
20
82.5791015625
40
0.0
41
0.0
42
0.0
10
71.0064010620117
20
82.7677001953125
40
0.0
41
0.0
42
0.0
10
71.4175033569336
20
82.9974975585938
40
0.0
41
0.0
42
0.0
10
71.4367980957031
20
83.0123977661133
40
0.0
41
0.0
42
0.0
10
71.4470977783203
20
83.0177001953125
40
0.0
41
0.0
42
0.0
10
71.5111999511719
20
83.0366973876953
40
0.0
41
0.0
42
0.0
10
71.5837020874023
20
83.0350036621094
40
0.0
41
0.0
42
0.0
10
71.9962005615234
20
83.0925979614258
40
0.0
41
0.0
42
0.0
10
72.048698425293
20
83.0808029174805
40
0.0
41
0.0
42
0.0
10
72.4849014282227
20
83.0173034667969
40
0.0
41
0.0
42
0.0
10
72.5367965698242
20
82.9997024536133
40
0.0
41
0.0
42
0.0
10
72.9878005981445
20
82.8350982666016
40
0.0
41
0.0
42
0.0
10
73.0543975830078
20
82.8056030273438
40
0.0
41
0.0
42
0.0
10
73.489501953125
20
82.5574035644531
40
0.0
41
0.0
42
0.0
10
73.5547027587891
20
82.5280990600586
40
0.0
41
0.0
42
0.0
10
73.6091995239258
20
82.4953002929688
40
0.0
41
0.0
42
0.0
10
73.9213027954102
20
81.9940032958984
40
0.0
41
0.0
42
0.0
10
73.8244018554688
20
81.5130004882812
40
0.0
41
0.0
42
0.0
10
73.7958984375
20
81.4565963745117
40
0.0
41
0.0
42
0.0
10
73.5537033081055
20
80.9460983276367
40
0.0
41
0.0
42
0.0
10
73.4990005493164
20
80.825798034668
40
0.0
41
0.0
42
0.0
10
73.347900390625
20
80.5129013061523
40
0.0
41
0.0
42
0.0
10
73.3273010253906
20
80.4243011474609
40
0.0
41
0.0
42
0.0
10
73.1780014038086
20
80.0161972045898
40
0.0
41
0.0
42
0.0
10
73.1779022216797
20
79.9825973510742
40
0.0
41
0.0
42
0.0
10
73.2110977172852
20
79.8551025390625
40
0.0
41
0.0
42
0.0
10
73.1918029785156
20
79.5193023681641
40
0.0
41
0.0
42
0.0
10
73.1915969848633
20
79.4918975830078
40
0.0
41
0.0
42
0.0
10
73.4944000244141
20
79.3136978149414
40
0.0
41
0.0
42
0.0
10
73.568603515625
20
79.2082977294922
40
0.0
41
0.0
42
0.0
10
73.7697982788086
20
78.9965972900391
40
0.0
41
0.0
42
0.0
10
73.9952011108398
20
78.8669967651367
40
0.0
41
0.0
42
0.0
10
74.3639984130859
20
78.5600967407227
40
0.0
41
0.0
42
0.0
10
74.4227981567383
20
78.494499206543
40
0.0
41
0.0
42
0.0
10
74.492301940918
20
78.434196472168
40
0.0
41
0.0
42
0.0
10
74.5496978759766
20
78.423698425293
40
0.0
41
0.0
42
0.0
10
74.9820022583008
20
78.3019027709961
40
0.0
41
0.0
42
0.0
10
75.0115966796875
20
78.3019027709961
40
0.0
41
0.0
42
0.0
10
75.1953964233398
20
78.4756011962891
40
0.0
41
0.0
42
0.0
10
75.2024993896484
20
78.4907989501953
40
0.0
41
0.0
42
0.0
10
75.2537994384766
20
78.5596008300781
40
0.0
41
0.0
42
0.0
10
75.5065994262695
20
78.7667999267578
40
0.0
41
0.0
42
0.0
10
75.7794036865234
20
78.9937973022461
40
0.0
41
0.0
42
0.0
10
75.8173980712891
20
79.0570983886719
40
0.0
41
0.0
42
0.0
10
76.0056991577148
20
79.285400390625
40
0.0
41
0.0
42
0.0
10
76.3133010864258
20
79.4922027587891
40
0.0
41
0.0
42
0.0
10
76.3659973144531
20
79.8513031005859
40
0.0
41
0.0
42
0.0
10
76.4058990478516
20
79.9830017089844
40
0.0
41
0.0
42
0.0
10
76.4057006835938
20
80.0169982910156
40
0.0
41
0.0
42
0.0
10
76.3701019287109
20
80.1433029174805
40
0.0
41
0.0
42
0.0
10
76.2435989379883
20
80.5113983154297
40
0.0
41
0.0
42
0.0
10
76.0012969970703
20
80.9518966674805
40
0.0
41
0.0
42
0.0
10
75.9712982177734
20
81.0095977783203
40
0.0
41
0.0
42
0.0
10
75.9255981445312
20
81.0854034423828
40
0.0
41
0.0
42
0.0
10
75.8352966308594
20
81.2433013916016
40
0.0
41
0.0
42
0.0
10
75.6727981567383
20
81.5109024047852
40
0.0
41
0.0
42
0.0
10
75.5042037963867
20
81.9997024536133
40
0.0
41
0.0
42
0.0
10
75.6782989501953
20
82.4929962158203
40
0.0
41
0.0
42
0.0
10
75.8151016235352
20
82.5931015014648
40
0.0
41
0.0
42
0.0
10
76.0074996948242
20
82.743896484375
40
0.0
41
0.0
42
0.0
10
76.3731994628906
20
82.9980010986328
40
0.0
41
0.0
42
0.0
10
76.4457015991211
20
83.0348968505859
40
0.0
41
0.0
42
0.0
10
76.5117034912109
20
83.0662994384766
40
0.0
41
0.0
42
0.0
10
76.947998046875
20
83.2313003540039
40
0.0
41
0.0
42
0.0
10
77.0151977539062
20
83.253303527832
40
0.0
41
0.0
42
0.0
10
77.1063995361328
20
83.2661972045898
40
0.0
41
0.0
42
0.0
10
77.5014038085938
20
83.3302001953125
40
0.0
41
0.0
42
0.0
10
77.9876022338867
20
83.2641983032227
40
0.0
41
0.0
42
0.0
10
78.158203125
20
83.1490020751953
40
0.0
41
0.0
42
0.0
10
78.4049987792969
20
82.9974975585938
40
0.0
41
0.0
42
0.0
10
78.4937973022461
20
82.935302734375
40
0.0
41
0.0
42
0.0
10
78.5128021240234
20
82.9147033691406
40
0.0
41
0.0
42
0.0
10
78.8014984130859
20
82.557502746582
40
0.0
41
0.0
42
0.0
10
78.847297668457
20
82.4912033081055
40
0.0
41
0.0
42
0.0
10
78.9983978271484
20
82.2313995361328
40
0.0
41
0.0
42
0.0
10
79.1177978515625
20
81.9885025024414
40
0.0
41
0.0
42
0.0
10
79.1449966430664
20
81.9218978881836
40
0.0
41
0.0
42
0.0
10
79.2759017944336
20
81.4831008911133
40
0.0
41
0.0
42
0.0
10
79.2795028686523
20
81.0485992431641
40
0.0
41
0.0
42
0.0
10
79.2957992553711
20
81.0031967163086
40
0.0
41
0.0
42
0.0
10
79.1151962280273
20
80.7391967773438
40
0.0
41
0.0
42
0.0
10
78.9949035644531
20
80.5799026489258
40
0.0
41
0.0
42
0.0
10
78.8893966674805
20
80.5027008056641
40
0.0
41
0.0
42
0.0
10
78.7951965332031
20
80.4405975341797
40
0.0
41
0.0
42
0.0
10
78.7544021606445
20
80.4344024658203
40
0.0
41
0.0
42
0.0
10
78.5112991333008
20
80.3455963134766
40
0.0
41
0.0
42
0.0
10
78.4843978881836
20
80.3432998657227
40
0.0
41
0.0
42
0.0
10
78.3658981323242
20
80.3016967773438
40
0.0
41
0.0
42
0.0
10
77.9877014160156
20
80.1623992919922
40
0.0
41
0.0
42
0.0
10
77.6095962524414
20
80.0010986328125
40
0.0
41
0.0
42
0.0
10
77.4922027587891
20
79.9345016479492
40
0.0
41
0.0
42
0.0
10
77.0072021484375
20
79.5093002319336
40
0.0
41
0.0
42
0.0
10
77.0001983642578
20
79.4595031738281
40
0.0
41
0.0
42
0.0
10
76.8759994506836
20
79.2378997802734
40
0.0
41
0.0
42
0.0
10
76.8760986328125
20
79.2070007324219
40
0.0
41
0.0
42
0.0
10
76.9541015625
20
78.9853973388672
40
0.0
41
0.0
42
0.0
10
77.0007019042969
20
78.7333984375
40
0.0
41
0.0
42
0.0
10
77.0230026245117
20
78.5559997558594
40
0.0
41
0.0
42
0.0
10
77.0169982910156
20
78.5183029174805
40
0.0
41
0.0
42
0.0
10
77.0168991088867
20
78.481201171875
40
0.0
41
0.0
42
0.0
10
77.0691986083984
20
78.0561981201172
40
0.0
41
0.0
42
0.0
10
77.0678024291992
20
77.9823989868164
40
0.0
41
0.0
42
0.0
10
77.0849990844727
20
77.9150009155273
40
0.0
41
0.0
42
0.0
10
77.2070007324219
20
77.4937973022461
40
0.0
41
0.0
42
0.0
10
77.4564971923828
20
77.3478012084961
40
0.0
41
0.0
42
0.0
10
77.4831008911133
20
77.3396987915039
40
0.0
41
0.0
42
0.0
10
77.5186996459961
20
77.3396987915039
40
0.0
41
0.0
42
0.0
10
77.568000793457
20
77.3455963134766
40
0.0
41
0.0
42
0.0
10
77.9815979003906
20
77.3105010986328
40
0.0
41
0.0
42
0.0
10
78.4157028198242
20
77.2797012329102
40
0.0
41
0.0
42
0.0
10
78.4529037475586
20
77.2797012329102
40
0.0
41
0.0
42
0.0
10
78.6460037231445
20
77.3180999755859
40
0.0
41
0.0
42
0.0
10
78.9813003540039
20
77.2759017944336
40
0.0
41
0.0
42
0.0
10
79.0150985717773
20
77.2759017944336
40
0.0
41
0.0
42
0.0
10
79.4699020385742
20
77.4974975585938
40
0.0
41
0.0
42
0.0
10
79.5046005249023
20
77.5285034179688
40
0.0
41
0.0
42
0.0
10
79.5783996582031
20
77.6213989257812
40
0.0
41
0.0
42
0.0
10
79.7783966064453
20
78.0640029907227
40
0.0
41
0.0
42
0.0
10
79.9113998413086
20
78.4854965209961
40
0.0
41
0.0
42
0.0
10
79.9261016845703
20
78.5501022338867
40
0.0
41
0.0
42
0.0
10
79.9998016357422
20
78.8140029907227
40
0.0
41
0.0
42
0.0
10
80.0531997680664
20
78.9858016967773
40
0.0
41
0.0
42
0.0
10
80.0953979492188
20
79.1425018310547
40
0.0
41
0.0
42
0.0
10
80.2566986083984
20
79.4927978515625
40
0.0
41
0.0
42
0.0
10
80.408203125
20
79.6251983642578
40
0.0
41
0.0
42
0.0
10
80.5081024169922
20
79.7303009033203
40
0.0
41
0.0
42
0.0
10
80.5934982299805
20
79.720703125
40
0.0
41
0.0
42
0.0
10
80.6298980712891
20
79.7205963134766
40
0.0
41
0.0
42
0.0
10
80.9974975585938
20
79.8060989379883
40
0.0
41
0.0
42
0.0
10
81.0521011352539
20
79.788200378418
40
0.0
41
0.0
42
0.0
10
81.4852981567383
20
79.7249984741211
40
0.0
41
0.0
42
0.0
10
81.5522003173828
20
79.6993026733398
40
0.0
41
0.0
42
0.0
10
81.9882965087891
20
79.5468978881836
40
0.0
41
0.0
42
0.0
10
82.0815963745117
20
79.4981002807617
40
0.0
41
0.0
42
0.0
10
82.4929962158203
20
79.2365036010742
40
0.0
41
0.0
42
0.0
10
82.5782012939453
20
79.1545028686523
40
0.0
41
0.0
42
0.0
10
82.7677001953125
20
78.9934997558594
40
0.0
41
0.0
42
0.0
10
82.9974975585938
20
78.5821990966797
40
0.0
41
0.0
42
0.0
10
83.0123977661133
20
78.5630035400391
40
0.0
41
0.0
42
0.0
10
83.0177001953125
20
78.5529022216797
40
0.0
41
0.0
42
0.0
10
83.0366973876953
20
78.4887008666992
40
0.0
41
0.0
42
0.0
10
83.0350036621094
20
78.4160995483398
40
0.0
41
0.0
42
0.0
10
83.0925979614258
20
78.0037002563477
40
0.0
41
0.0
42
0.0
10
83.0809020996094
20
77.9512023925781
40
0.0
41
0.0
42
0.0
10
83.0173034667969
20
77.5150985717773
40
0.0
41
0.0
42
0.0
10
82.9997024536133
20
77.4629974365234
40
0.0
41
0.0
42
0.0
10
82.8351974487305
20
77.0121002197266
40
0.0
41
0.0
42
0.0
10
82.8056030273438
20
76.9455032348633
40
0.0
41
0.0
42
0.0
10
82.557502746582
20
76.5103988647461
40
0.0
41
0.0
42
0.0
10
82.5281982421875
20
76.445198059082
40
0.0
41
0.0
42
0.0
10
82.4953002929688
20
76.3906021118164
40
0.0
41
0.0
42
0.0
10
81.9940032958984
20
76.0783996582031
40
0.0
41
0.0
42
0.0
10
81.5130004882812
20
76.1753005981445
40
0.0
41
0.0
42
0.0
10
81.4565963745117
20
76.2037963867188
40
0.0
41
0.0
42
0.0
10
80.9459991455078
20
76.4459991455078
40
0.0
41
0.0
42
0.0
10
80.825798034668
20
76.5008010864258
40
0.0
41
0.0
42
0.0
10
80.5129013061523
20
76.6518020629883
40
0.0
41
0.0
42
0.0
10
80.4243011474609
20
76.6724014282227
40
0.0
41
0.0
42
0.0
10
80.0162963867188
20
76.8218994140625
40
0.0
41
0.0
42
0.0
10
79.9826965332031
20
76.8218002319336
40
0.0
41
0.0
42
0.0
10
79.8551025390625
20
76.7885971069336
40
0.0
41
0.0
42
0.0
10
79.5193023681641
20
76.8080978393555
40
0.0
41
0.0
42
0.0
10
79.4918975830078
20
76.8080978393555
40
0.0
41
0.0
42
0.0
10
79.3136978149414
20
76.5052032470703
40
0.0
41
0.0
42
0.0
10
79.2162017822266
20
76.4385986328125
40
0.0
41
0.0
42
0.0
10
78.9965972900391
20
76.2298965454102
40
0.0
41
0.0
42
0.0
10
78.8668975830078
20
76.0044021606445
40
0.0
41
0.0
42
0.0
10
78.5600967407227
20
75.6356964111328
40
0.0
41
0.0
42
0.0
10
78.494499206543
20
75.5768966674805
40
0.0
41
0.0
42
0.0
10
78.4340972900391
20
75.5074005126953
40
0.0
41
0.0
42
0.0
10
78.423698425293
20
75.4502029418945
40
0.0
41
0.0
42
0.0
10
78.3019027709961
20
75.0170974731445
40
0.0
41
0.0
42
0.0
10
78.3018035888672
20
74.9882965087891
40
0.0
41
0.0
42
0.0
10
78.4755020141602
20
74.8043975830078
40
0.0
41
0.0
42
0.0
10
78.4907989501953
20
74.7972030639648
40
0.0
41
0.0
42
0.0
10
78.5595016479492
20
74.7460021972656
40
0.0
41
0.0
42
0.0
10
78.7667007446289
20
74.4933013916016
40
0.0
41
0.0
42
0.0
10
78.9943008422852
20
74.219596862793
40
0.0
41
0.0
42
0.0
10
79.1300964355469
20
74.1222991943359
40
0.0
41
0.0
42
0.0
10
79.285400390625
20
73.9942016601562
40
0.0
41
0.0
42
0.0
10
79.4921035766602
20
73.6864013671875
40
0.0
41
0.0
42
0.0
10
79.8511962890625
20
73.6336975097656
40
0.0
41
0.0
42
0.0
10
79.9830017089844
20
73.5938034057617
40
0.0
41
0.0
42
0.0
10
80.0169982910156
20
73.5940017700195
40
0.0
41
0.0
42
0.0
10
80.1433029174805
20
73.6296005249023
40
0.0
41
0.0
42
0.0
10
80.5113983154297
20
73.756103515625
40
0.0
41
0.0
42
0.0
10
80.9520034790039
20
73.9983978271484
40
0.0
41
0.0
42
0.0
10
81.0096969604492
20
74.0283966064453
40
0.0
41
0.0
42
0.0
10
81.0854034423828
20
74.0742034912109
40
0.0
41
0.0
42
0.0
10
81.2433013916016
20
74.1643981933594
40
0.0
41
0.0
42
0.0
10
81.5110015869141
20
74.3270034790039
40
0.0
41
0.0
42
0.0
10
81.9997024536133
20
74.4954986572266
40
0.0
41
0.0
42
0.0
10
82.4929962158203
20
74.321403503418
40
0.0
41
0.0
42
0.0
10
82.5930023193359
20
74.184700012207
40
0.0
41
0.0
42
0.0
10
82.743896484375
20
73.9924011230469
40
0.0
41
0.0
42
0.0
10
82.9979019165039
20
73.6265029907227
40
0.0
41
0.0
42
0.0
10
83.0348968505859
20
73.55419921875
40
0.0
41
0.0
42
0.0
10
83.0662002563477
20
73.4881973266602
40
0.0
41
0.0
42
0.0
10
83.2313003540039
20
73.0519027709961
40
0.0
41
0.0
42
0.0
10
83.253303527832
20
72.9847030639648
40
0.0
41
0.0
42
0.0
10
83.2661972045898
20
72.8934020996094
40
0.0
41
0.0
42
0.0
10
83.3302001953125
20
72.4984970092773
40
0.0
41
0.0
42
0.0
10
83.2642974853516
20
72.0124969482422
40
0.0
41
0.0
42
0.0
10
83.219596862793
20
71.9438018798828
40
0.0
41
0.0
42
0.0
10
83.0207977294922
20
71.6202011108398
40
0.0
41
0.0
42
0.0
10
82.9963989257812
20
71.5932006835938
40
0.0
41
0.0
42
0.0
10
82.9354019165039
20
71.5059967041016
40
0.0
41
0.0
42
0.0
10
82.9147033691406
20
71.4869003295898
40
0.0
41
0.0
42
0.0
10
82.557502746582
20
71.1981964111328
40
0.0
41
0.0
42
0.0
10
82.4912033081055
20
71.1523971557617
40
0.0
41
0.0
42
0.0
10
82.2369003295898
20
71.0045013427734
40
0.0
41
0.0
42
0.0
10
82.1712036132812
20
70.9710006713867
40
0.0
41
0.0
42
0.0
10
81.9876022338867
20
70.8815002441406
40
0.0
41
0.0
42
0.0
10
81.5519027709961
20
70.7514038085938
40
0.0
41
0.0
42
0.0
10
81.4841003417969
20
70.7238006591797
40
0.0
41
0.0
42
0.0
10
81.048698425293
20
70.7201995849609
40
0.0
41
0.0
42
0.0
10
81.0031967163086
20
70.7039031982422
40
0.0
41
0.0
42
0.0
10
80.7390975952148
20
70.8845977783203
40
0.0
41
0.0
42
0.0
10
80.5799026489258
20
71.004997253418
40
0.0
41
0.0
42
0.0
10
80.5026016235352
20
71.1102981567383
40
0.0
41
0.0
42
0.0
10
80.4405975341797
20
71.2045974731445
40
0.0
41
0.0
42
0.0
10
80.4344024658203
20
71.2453994750977
40
0.0
41
0.0
42
0.0
10
80.3455963134766
20
71.4886016845703
40
0.0
41
0.0
42
0.0
10
80.3432998657227
20
71.5155029296875
40
0.0
41
0.0
42
0.0
10
80.3016967773438
20
71.633903503418
40
0.0
41
0.0
42
0.0
10
80.1623001098633
20
72.0121994018555
40
0.0
41
0.0
42
0.0
10
80.0010986328125
20
72.3901977539062
40
0.0
41
0.0
42
0.0
10
79.9344024658203
20
72.507698059082
40
0.0
41
0.0
42
0.0
10
79.5093002319336
20
72.9925994873047
40
0.0
41
0.0
42
0.0
10
79.4595031738281
20
72.9996032714844
40
0.0
41
0.0
42
0.0
10
79.2378997802734
20
73.1237030029297
40
0.0
41
0.0
42
0.0
10
79.2070007324219
20
73.1235961914062
40
0.0
41
0.0
42
0.0
10
78.9853973388672
20
73.0457000732422
40
0.0
41
0.0
42
0.0
10
78.7333984375
20
72.9990997314453
40
0.0
41
0.0
42
0.0
10
78.5559997558594
20
72.9766998291016
40
0.0
41
0.0
42
0.0
10
78.5183029174805
20
72.9829025268555
40
0.0
41
0.0
42
0.0
10
78.481201171875
20
72.9828033447266
40
0.0
41
0.0
42
0.0
10
78.0561981201172
20
72.9304962158203
40
0.0
41
0.0
42
0.0
10
77.9826965332031
20
72.931999206543
40
0.0
41
0.0
42
0.0
10
77.5504989624023
20
72.8069000244141
40
0.0
41
0.0
42
0.0
10
77.4936981201172
20
72.7923965454102
40
0.0
41
0.0
42
0.0
10
77.3478012084961
20
72.5432968139648
40
0.0
41
0.0
42
0.0
10
77.3396987915039
20
72.5167999267578
40
0.0
41
0.0
42
0.0
10
77.3396987915039
20
72.481201171875
40
0.0
41
0.0
42
0.0
10
77.3455963134766
20
72.4319000244141
40
0.0
41
0.0
42
0.0
10
77.3105010986328
20
72.0183029174805
40
0.0
41
0.0
42
0.0
10
77.2797012329102
20
71.5841979980469
40
0.0
41
0.0
42
0.0
10
77.2796020507812
20
71.5469970703125
40
0.0
41
0.0
42
0.0
10
77.3180999755859
20
71.3537979125977
40
0.0
41
0.0
42
0.0
10
77.2759017944336
20
71.0186004638672
40
0.0
41
0.0
42
0.0
10
77.2758026123047
20
70.9848022460938
40
0.0
41
0.0
42
0.0
10
77.4974975585938
20
70.529899597168
40
0.0
41
0.0
42
0.0
10
77.5285034179688
20
70.4952011108398
40
0.0
41
0.0
42
0.0
10
77.6213989257812
20
70.4214019775391
40
0.0
41
0.0
42
0.0
10
78.0639038085938
20
70.2212982177734
40
0.0
41
0.0
42
0.0
10
78.4858016967773
20
70.0882034301758
40
0.0
41
0.0
42
0.0
10
78.8139038085938
20
70.0000991821289
40
0.0
41
0.0
42
0.0
10
78.9858016967773
20
69.9465026855469
40
0.0
41
0.0
42
0.0
10
79.1425018310547
20
69.904296875
40
0.0
41
0.0
42
0.0
10
79.4927978515625
20
69.7429962158203
40
0.0
41
0.0
42
0.0
10
79.6251983642578
20
69.5915985107422
40
0.0
41
0.0
42
0.0
10
79.7303009033203
20
69.4918975830078
40
0.0
41
0.0
42
0.0
10
79.720703125
20
69.4063034057617
40
0.0
41
0.0
42
0.0
10
79.7205963134766
20
69.3699035644531
40
0.0
41
0.0
42
0.0
10
79.8060989379883
20
69.0024032592773
40
0.0
41
0.0
42
0.0
10
79.788200378418
20
68.9477005004883
40
0.0
41
0.0
42
0.0
10
79.7249984741211
20
68.5146026611328
40
0.0
41
0.0
42
0.0
10
79.6994018554688
20
68.4477005004883
40
0.0
41
0.0
42
0.0
10
79.5469970703125
20
68.0115966796875
40
0.0
41
0.0
42
0.0
10
79.4981994628906
20
67.918098449707
40
0.0
41
0.0
42
0.0
10
79.227897644043
20
67.4916000366211
40
0.0
41
0.0
42
0.0
10
79.1773986816406
20
67.4406967163086
40
0.0
41
0.0
42
0.0
10
79.0096969604492
20
67.2434005737305
40
0.0
41
0.0
42
0.0
10
78.9909973144531
20
67.230598449707
40
0.0
41
0.0
42
0.0
10
78.5822982788086
20
67.0024032592773
40
0.0
41
0.0
42
0.0
10
78.563102722168
20
66.9873962402344
40
0.0
41
0.0
42
0.0
10
78.5529022216797
20
66.9821014404297
40
0.0
41
0.0
42
0.0
10
78.4843978881836
20
66.961799621582
40
0.0
41
0.0
42
0.0
10
78.0567016601562
20
66.9021987915039
40
0.0
41
0.0
42
0.0
10
78.0178985595703
20
66.9041976928711
40
0.0
41
0.0
42
0.0
10
77.5811004638672
20
66.967903137207
40
0.0
41
0.0
42
0.0
10
77.5142974853516
20
66.9826965332031
40
0.0
41
0.0
42
0.0
10
77.464599609375
20
66.9994964599609
40
0.0
41
0.0
42
0.0
10
77.0110015869141
20
67.1648025512695
40
0.0
41
0.0
42
0.0
10
76.5754013061523
20
67.4133987426758
40
0.0
41
0.0
42
0.0
10
76.445198059082
20
67.4716033935547
40
0.0
41
0.0
42
0.0
10
76.3905029296875
20
67.5045013427734
40
0.0
41
0.0
42
0.0
10
76.0783996582031
20
68.0058975219727
40
0.0
41
0.0
42
0.0
10
76.1753005981445
20
68.4869003295898
40
0.0
41
0.0
42
0.0
10
76.2039031982422
20
68.5431976318359
40
0.0
41
0.0
42
0.0
10
76.4459991455078
20
69.0538024902344
40
0.0
41
0.0
42
0.0
10
76.5009002685547
20
69.1740036010742
40
0.0
41
0.0
42
0.0
10
76.6518020629883
20
69.4869995117188
40
0.0
41
0.0
42
0.0
10
76.6724014282227
20
69.5755004882812
40
0.0
41
0.0
42
0.0
10
76.8218994140625
20
69.9835968017578
40
0.0
41
0.0
42
0.0
10
76.8218002319336
20
70.0171966552734
40
0.0
41
0.0
42
0.0
10
76.7885971069336
20
70.1446990966797
40
0.0
41
0.0
42
0.0
10
76.8080978393555
20
70.480598449707
40
0.0
41
0.0
42
0.0
10
76.8079986572266
20
70.5078964233398
40
0.0
41
0.0
42
0.0
10
76.5052032470703
20
70.6860961914062
40
0.0
41
0.0
42
0.0
10
76.4384994506836
20
70.7835998535156
40
0.0
41
0.0
42
0.0
10
76.2298965454102
20
71.0031967163086
40
0.0
41
0.0
42
0.0
10
76.0044021606445
20
71.1328964233398
40
0.0
41
0.0
42
0.0
10
75.6356964111328
20
71.439697265625
40
0.0
41
0.0
42
0.0
10
75.5773010253906
20
71.5048980712891
40
0.0
41
0.0
42
0.0
10
75.5065994262695
20
71.5667037963867
40
0.0
41
0.0
42
0.0
10
75.0802001953125
20
71.6866989135742
40
0.0
41
0.0
42
0.0
10
75.0180969238281
20
71.697998046875
40
0.0
41
0.0
42
0.0
10
74.9882965087891
20
71.6978988647461
40
0.0
41
0.0
42
0.0
10
74.8043975830078
20
71.5242004394531
40
0.0
41
0.0
42
0.0
10
74.7972030639648
20
71.5091018676758
40
0.0
41
0.0
42
0.0
10
74.7461013793945
20
71.440299987793
40
0.0
41
0.0
42
0.0
10
74.4933013916016
20
71.2330017089844
40
0.0
41
0.0
42
0.0
10
74.2202987670898
20
71.006103515625
40
0.0
41
0.0
42
0.0
10
74.182502746582
20
70.9428024291992
40
0.0
41
0.0
42
0.0
10
73.9942016601562
20
70.7144012451172
40
0.0
41
0.0
42
0.0
10
73.6864013671875
20
70.507698059082
40
0.0
41
0.0
42
0.0
10
73.6336975097656
20
70.1485977172852
40
0.0
41
0.0
42
0.0
10
73.5938034057617
20
70.0168991088867
40
0.0
41
0.0
42
0.0
10
73.5939025878906
20
69.9829025268555
40
0.0
41
0.0
42
0.0
10
73.6295013427734
20
69.8564987182617
40
0.0
41
0.0
42
0.0
10
73.756103515625
20
69.4885025024414
40
0.0
41
0.0
42
0.0
10
73.9983978271484
20
69.0477981567383
40
0.0
41
0.0
42
0.0
10
74.0283966064453
20
68.9901962280273
40
0.0
41
0.0
42
0.0
10
74.0740966796875
20
68.9143981933594
40
0.0
41
0.0
42
0.0
10
74.1643981933594
20
68.7565002441406
40
0.0
41
0.0
42
0.0
10
74.3270034790039
20
68.488899230957
40
0.0
41
0.0
42
0.0
10
74.4954986572266
20
68.0000991821289
40
0.0
41
0.0
42
0.0
10
74.3216018676758
20
67.5070037841797
40
0.0
41
0.0
42
0.0
10
74.2643966674805
20
67.4636993408203
40
0.0
41
0.0
42
0.0
10
74.2269973754883
20
67.4380035400391
40
0.0
41
0.0
42
0.0
10
74.0198974609375
20
67.2755966186523
40
0.0
41
0.0
42
0.0
10
73.6266021728516
20
67.0018997192383
40
0.0
41
0.0
42
0.0
10
73.55419921875
20
66.9647979736328
40
0.0
41
0.0
42
0.0
10
73.4881973266602
20
66.9335021972656
40
0.0
41
0.0
42
0.0
10
73.0519027709961
20
66.7684020996094
40
0.0
41
0.0
42
0.0
10
72.9847030639648
20
66.7463989257812
40
0.0
41
0.0
42
0.0
10
72.8934020996094
20
66.7334976196289
40
0.0
41
0.0
42
0.0
10
72.4984970092773
20
66.6695022583008
40
0.0
41
0.0
42
0.0
10
72.0123977661133
20
66.7354965209961
40
0.0
41
0.0
42
0.0
10
71.9437026977539
20
66.7800979614258
40
0.0
41
0.0
42
0.0
10
71.6201019287109
20
66.9788970947266
40
0.0
41
0.0
42
0.0
10
71.5931015014648
20
67.0034027099609
40
0.0
41
0.0
42
0.0
10
71.5059967041016
20
67.0643997192383
40
0.0
41
0.0
42
0.0
10
71.4869003295898
20
67.0849990844727
40
0.0
41
0.0
42
0.0
10
71.1981964111328
20
67.4422988891602
40
0.0
41
0.0
42
0.0
10
71.1523971557617
20
67.5086975097656
40
0.0
41
0.0
42
0.0
10
71.0044021606445
20
67.7628021240234
40
0.0
41
0.0
42
0.0
10
70.9709014892578
20
67.8285980224609
40
0.0
41
0.0
42
0.0
10
70.8814010620117
20
68.0122985839844
40
0.0
41
0.0
42
0.0
10
70.7512969970703
20
68.4478988647461
40
0.0
41
0.0
42
0.0
10
70.7238006591797
20
68.5158004760742
40
0.0
41
0.0
42
0.0
10
70.720100402832
20
68.9512023925781
40
0.0
41
0.0
42
0.0
10
70.7039031982422
20
68.996696472168
40
0.0
41
0.0
42
0.0
10
70.8845977783203
20
69.2605972290039
40
0.0
41
0.0
42
0.0
10
71.004997253418
20
69.4198989868164
40
0.0
41
0.0
42
0.0
10
71.1112976074219
20
69.4979019165039
40
0.0
41
0.0
42
0.0
10
71.2446975708008
20
69.5653991699219
40
0.0
41
0.0
42
0.0
10
71.2742004394531
20
69.5683975219727
40
0.0
41
0.0
42
0.0
10
71.5129013061523
20
69.6555023193359
40
0.0
41
0.0
42
0.0
10
71.633903503418
20
69.697998046875
40
0.0
41
0.0
42
0.0
10
72.0121994018555
20
69.83740234375
40
0.0
41
0.0
42
0.0
10
72.3901977539062
20
69.9988021850586
40
0.0
41
0.0
42
0.0
10
72.507698059082
20
70.065299987793
40
0.0
41
0.0
42
0.0
10
72.9925994873047
20
70.4906005859375
40
0.0
41
0.0
42
0.0
10
72.9997024536133
20
70.5402984619141
40
0.0
41
0.0
42
0.0
10
73.1237030029297
20
70.7619018554688
40
0.0
41
0.0
42
0.0
10
73.1235961914062
20
70.7928009033203
40
0.0
41
0.0
42
0.0
10
73.0456008911133
20
71.0145034790039
40
0.0
41
0.0
42
0.0
10
72.9990997314453
20
71.2664031982422
40
0.0
41
0.0
42
0.0
10
72.9766998291016
20
71.4438018798828
40
0.0
41
0.0
42
0.0
10
72.9829025268555
20
71.4815979003906
40
0.0
41
0.0
42
0.0
10
72.9828033447266
20
71.5186996459961
40
0.0
41
0.0
42
0.0
10
72.9304962158203
20
71.9437026977539
40
0.0
41
0.0
42
0.0
10
72.9319000244141
20
72.0171966552734
40
0.0
41
0.0
42
0.0
10
72.8068008422852
20
72.4494018554688
40
0.0
41
0.0
42
0.0
10
72.7923965454102
20
72.5062026977539
40
0.0
41
0.0
42
0.0
10
72.5432968139648
20
72.6519012451172
40
0.0
41
0.0
42
0.0
10
72.515998840332
20
72.6601028442383
40
0.0
41
0.0
42
0.0
10
72.084098815918
20
72.6968994140625
40
0.0
41
0.0
42
0.0
10
72.0462036132812
20
72.6968002319336
40
0.0
41
0.0
42
0.0
10
71.9952011108398
20
72.6906967163086
40
0.0
41
0.0
42
0.0
10
71.5841979980469
20
72.7200012207031
40
0.0
41
0.0
42
0.0
10
71.5469970703125
20
72.720100402832
40
0.0
41
0.0
42
0.0
10
71.3537979125977
20
72.6816024780273
40
0.0
41
0.0
42
0.0
10
71.0186996459961
20
72.7238998413086
40
0.0
41
0.0
42
0.0
10
70.9848022460938
20
72.7238998413086
40
0.0
41
0.0
42
0.0
10
70.5299987792969
20
72.5022964477539
40
0.0
41
0.0
42
0.0
10
70.4953002929688
20
72.4712982177734
40
0.0
41
0.0
42
0.0
10
70.4214019775391
20
72.3784027099609
40
0.0
41
0.0
42
0.0
10
70.2212982177734
20
71.9357986450195
40
0.0
41
0.0
42
0.0
10
70.0884017944336
20
71.5143966674805
40
0.0
41
0.0
42
0.0
10
70.0615005493164
20
71.4011001586914
40
0.0
41
0.0
42
0.0
10
70.0
20
71.1857986450195
40
0.0
41
0.0
42
0.0
10
69.9466018676758
20
71.0140991210938
40
0.0
41
0.0
42
0.0
10
69.904296875
20
70.8572998046875
40
0.0
41
0.0
42
0.0
10
69.7431030273438
20
70.5071029663086
40
0.0
41
0.0
42
0.0
10
69.5915985107422
20
70.3746032714844
40
0.0
41
0.0
42
0.0
10
69.4918975830078
20
70.269401550293
40
0.0
41
0.0
42
0.0
10
69.4063034057617
20
70.2791976928711
40
0.0
41
0.0
42
0.0
10
69.3699035644531
20
70.2790985107422
40
0.0
41
0.0
42
0.0
10
69.0024032592773
20
70.193603515625
40
0.0
41
0.0
42
0.0
10
68.9476013183594
20
70.2115020751953
40
0.0
41
0.0
42
0.0
10
68.5146026611328
20
70.2746963500977
40
0.0
41
0.0
42
0.0
10
68.4477005004883
20
70.3003005981445
40
0.0
41
0.0
42
0.0
10
68.0114974975586
20
70.4526977539062
40
0.0
41
0.0
42
0.0
10
67.918098449707
20
70.5017013549805
40
0.0
41
0.0
42
0.0
10
67.4915008544922
20
70.7718963623047
40
0.0
41
0.0
42
0.0
10
67.4406967163086
20
70.8223037719727
40
0.0
41
0.0
42
0.0
10
67.2433013916016
20
70.9899978637695
40
0.0
41
0.0
42
0.0
10
67.230598449707
20
71.008903503418
40
0.0
41
0.0
42
0.0
10
67.0022964477539
20
71.4175033569336
40
0.0
41
0.0
42
0.0
10
66.9872970581055
20
71.4367980957031
40
0.0
41
0.0
42
0.0
10
66.9820022583008
20
71.4470977783203
40
0.0
41
0.0
42
0.0
10
66.961799621582
20
71.5155029296875
40
0.0
41
0.0
42
0.0
10
66.9022979736328
20
71.9431991577148
40
0.0
41
0.0
42
0.0
10
66.9041976928711
20
71.9820022583008
40
0.0
41
0.0
42
0.0
10
66.967903137207
20
72.4188003540039
40
0.0
41
0.0
42
0.0
10
66.9828033447266
20
72.4856033325195
40
0.0
41
0.0
42
0.0
10
66.9994964599609
20
72.5352020263672
40
0.0
41
0.0
42
0.0
10
67.1649017333984
20
72.9888000488281
40
0.0
41
0.0
42
0.0
10
67.4133987426758
20
73.4244995117188
40
0.0
41
0.0
42
0.0
10
67.4716033935547
20
73.5547027587891
40
0.0
41
0.0
42
0.0
10
67.5046005249023
20
73.6091995239258
40
0.0
41
0.0
42
0.0
10
68.0058975219727
20
73.9213027954102
40
0.0
41
0.0
42
0.0
10
68.4869003295898
20
73.8244018554688
40
0.0
41
0.0
42
0.0
10
68.5431976318359
20
73.7957992553711
40
0.0
41
0.0
42
0.0
10
69.0538024902344
20
73.5537033081055
40
0.0
41
0.0
42
0.0
10
69.1740036010742
20
73.4989013671875
40
0.0
41
0.0
42
0.0
10
69.4869995117188
20
73.347900390625
40
0.0
41
0.0
42
0.0
10
69.5755004882812
20
73.3273010253906
40
0.0
41
0.0
42
0.0
10
69.9837036132812
20
73.1780014038086
40
0.0
41
0.0
42
0.0
10
70.0173034667969
20
73.1780014038086
40
0.0
41
0.0
42
0.0
10
70.1446990966797
20
73.2110977172852
40
0.0
41
0.0
42
0.0
10
70.480598449707
20
73.1918029785156
40
0.0
41
0.0
42
0.0
10
70.5078964233398
20
73.1918029785156
40
0.0
41
0.0
42
0.0
10
70.6860961914062
20
73.4945983886719
40
0.0
41
0.0
42
0.0
10
70.7835998535156
20
73.5613021850586
40
0.0
41
0.0
42
0.0
10
71.0031967163086
20
73.7698974609375
40
0.0
41
0.0
42
0.0
10
71.132698059082
20
73.9952011108398
40
0.0
41
0.0
42
0.0
10
71.4397964477539
20
74.3640975952148
40
0.0
41
0.0
42
0.0
10
71.504997253418
20
74.4225006103516
40
0.0
41
0.0
42
0.0
10
71.5667037963867
20
74.4931030273438
40
0.0
41
0.0
42
0.0
10
71.6866989135742
20
74.9197006225586
40
0.0
41
0.0
42
0.0
10
71.697998046875
20
74.9817962646484
40
0.0
41
0.0
42
0.0
10
71.6978988647461
20
75.0115966796875
40
0.0
41
0.0
42
0.0
10
71.5241012573242
20
75.1952972412109
40
0.0
41
0.0
42
0.0
10
71.5090026855469
20
75.2024993896484
40
0.0
41
0.0
42
0.0
10
71.440299987793
20
75.2537994384766
40
0.0
41
0.0
42
0.0
10
71.2330017089844
20
75.5065002441406
40
0.0
41
0.0
42
0.0
10
71.0059967041016
20
75.7794036865234
40
0.0
41
0.0
42
0.0
10
70.9428024291992
20
75.8172988891602
40
0.0
41
0.0
42
0.0
10
70.7143020629883
20
76.0055999755859
40
0.0
41
0.0
42
0.0
10
70.507698059082
20
76.3133010864258
40
0.0
41
0.0
42
0.0
10
70.1484985351562
20
76.3659973144531
40
0.0
41
0.0
42
0.0
10
70.0168991088867
20
76.4058990478516
40
0.0
41
0.0
42
0.0
10
69.9829025268555
20
76.4057998657227
40
0.0
41
0.0
42
0.0
10
69.8564987182617
20
76.3702011108398
40
0.0
41
0.0
42
0.0
10
69.4885025024414
20
76.2435989379883
40
0.0
41
0.0
42
0.0
10
69.0478973388672
20
76.0014038085938
40
0.0
41
0.0
42
0.0
10
68.9901962280273
20
75.9712982177734
40
0.0
41
0.0
42
0.0
10
68.9143981933594
20
75.9255981445312
40
0.0
41
0.0
42
0.0
10
68.7565002441406
20
75.8352966308594
40
0.0
41
0.0
42
0.0
10
68.488899230957
20
75.6727981567383
40
0.0
41
0.0
42
0.0
10
68.0000991821289
20
75.5042037963867
40
0.0
41
0.0
42
0.0
10
67.5070037841797
20
75.6781997680664
40
0.0
41
0.0
42
0.0
10
67.4636001586914
20
75.7353973388672
40
0.0
41
0.0
42
0.0
10
67.4380035400391
20
75.7727966308594
40
0.0
41
0.0
42
0.0
10
67.2754974365234
20
75.9797973632812
40
0.0
41
0.0
42
0.0
10
67.0018997192383
20
76.3731994628906
40
0.0
41
0.0
42
0.0
10
66.9647979736328
20
76.4457015991211
40
0.0
41
0.0
42
0.0
10
66.9334030151367
20
76.5117034912109
40
0.0
41
0.0
42
0.0
10
66.7684020996094
20
76.9478988647461
40
0.0
41
0.0
42
0.0
10
66.7463989257812
20
77.0151977539062
40
0.0
41
0.0
42
0.0
10
66.7341995239258
20
77.1016998291016
40
0.0
41
0.0
42
0.0
10
66.6695022583008
20
77.5014038085938
40
0.0
41
0.0
42
0.0
210
0.0
220
0.0
230
1.0
0
LWPOLYLINE
5
26
330
1C
100
AcDbEntity
67
0
8
0
62
256
6
ByLayer
370
-1
48
1.0
60
0
100
AcDbPolyline
90
38
70
1
38
0.0
39
0.0
10
67.500602722168
20
84.7705001831055
40
0.0
41
0.0
42
0.0
10
67.556396484375
20
84.4951019287109
40
0.0
41
0.0
42
0.0
10
67.5992965698242
20
84.4776000976562
40
0.0
41
0.0
42
0.0
10
67.9853973388672
20
84.3029022216797
40
0.0
41
0.0
42
0.0
10
68.3559036254883
20
84.2658004760742
40
0.0
41
0.0
42
0.0
10
68.9002990722656
20
84.2789993286133
40
0.0
41
0.0
42
0.0
10
69.0182037353516
20
84.2878036499023
40
0.0
41
0.0
42
0.0
10
69.5175018310547
20
84.3337020874023
40
0.0
41
0.0
42
0.0
10
69.6215972900391
20
84.3482971191406
40
0.0
41
0.0
42
0.0
10
70.0018997192383
20
84.4188995361328
40
0.0
41
0.0
42
0.0
10
70.1137008666992
20
84.4511032104492
40
0.0
41
0.0
42
0.0
10
70.2217025756836
20
84.4994964599609
40
0.0
41
0.0
42
0.0
10
70.5113983154297
20
84.5938034057617
40
0.0
41
0.0
42
0.0
10
71.007698059082
20
84.880500793457
40
0.0
41
0.0
42
0.0
10
71.0466003417969
20
84.9145965576172
40
0.0
41
0.0
42
0.0
10
71.1194000244141
20
84.9885025024414
40
0.0
41
0.0
42
0.0
10
71.1194000244141
20
84.9990005493164
40
0.0
41
0.0
42
0.0
10
71.0830993652344
20
84.9989013671875
40
0.0
41
0.0
42
0.0
10
71.0397033691406
20
84.9546966552734
40
0.0
41
0.0
42
0.0
10
70.9922027587891
20
84.9132995605469
40
0.0
41
0.0
42
0.0
10
70.4885025024414
20
84.6224975585938
40
0.0
41
0.0
42
0.0
10
70.1130981445312
20
84.5002975463867
40
0.0
41
0.0
42
0.0
10
70.0477981567383
20
84.4709014892578
40
0.0
41
0.0
42
0.0
10
69.9702987670898
20
84.4488983154297
40
0.0
41
0.0
42
0.0
10
69.5483016967773
20
84.3704986572266
40
0.0
41
0.0
42
0.0
10
69.4823989868164
20
84.3613967895508
40
0.0
41
0.0
42
0.0
10
68.9816970825195
20
84.3154983520508
40
0.0
41
0.0
42
0.0
10
68.9075012207031
20
84.3099975585938
40
0.0
41
0.0
42
0.0
10
68.4316024780273
20
84.2984008789062
40
0.0
41
0.0
42
0.0
10
68.0143966674805
20
84.340202331543
40
0.0
41
0.0
42
0.0
10
67.7707977294922
20
84.4504013061523
40
0.0
41
0.0
42
0.0
10
67.6372985839844
20
84.5046997070312
40
0.0
41
0.0
42
0.0
10
67.5558013916016
20
84.9066009521484
40
0.0
41
0.0
42
0.0
10
67.5211029052734
20
84.9990005493164
40
0.0
41
0.0
42
0.0
10
67.4824981689453
20
84.9989013671875
40
0.0
41
0.0
42
0.0
10
67.4807968139648
20
84.9909973144531
40
0.0
41
0.0
42
0.0
10
67.4806976318359
20
84.9543991088867
40
0.0
41
0.0
42
0.0
10
67.500602722168
20
84.7705001831055
40
0.0
41
0.0
42
0.0
210
0.0
220
0.0
230
1.0
0
LWPOLYLINE
5
27
330
1C
100
AcDbEntity
67
0
8
0
62
256
6
ByLayer
370
-1
48
1.0
60
0
100
AcDbPolyline
90
29
70
1
38
0.0
39
0.0
10
68.5319976806641
20
65.0263977050781
40
0.0
41
0.0
42
0.0
10
68.4943008422852
20
65.0084991455078
40
0.0
41
0.0
42
0.0
10
68.4943008422852
20
65.0009994506836
40
0.0
41
0.0
42
0.0
10
68.5299987792969
20
65.0009002685547
40
0.0
41
0.0
42
0.0
10
68.5615005493164
20
65.0158004760742
40
0.0
41
0.0
42
0.0
10
69.0158996582031
20
65.1492004394531
40
0.0
41
0.0
42
0.0
10
69.5182037353516
20
65.2006988525391
40
0.0
41
0.0
42
0.0
10
69.584098815918
20
65.2046966552734
40
0.0
41
0.0
42
0.0
10
70.0643005371094
20
65.2161026000977
40
0.0
41
0.0
42
0.0
10
70.4804000854492
20
65.1977996826172
40
0.0
41
0.0
42
0.0
10
70.5466003417969
20
65.1977005004883
40
0.0
41
0.0
42
0.0
10
70.9828033447266
20
65.1298980712891
40
0.0
41
0.0
42
0.0
10
71.0501022338867
20
65.1215972900391
40
0.0
41
0.0
42
0.0
10
71.2501983642578
20
65.0435028076172
40
0.0
41
0.0
42
0.0
10
71.3701019287109
20
65.0009994506836
40
0.0
41
0.0
42
0.0
10
71.4629974365234
20
65.0009994506836
40
0.0
41
0.0
42
0.0
10
71.4628982543945
20
65.0050964355469
40
0.0
41
0.0
42
0.0
10
71.4373016357422
20
65.0140991210938
40
0.0
41
0.0
42
0.0
10
71.1197967529297
20
65.1380996704102
40
0.0
41
0.0
42
0.0
10
71.0169982910156
20
65.1507034301758
40
0.0
41
0.0
42
0.0
10
70.6232986450195
20
65.2119979858398
40
0.0
41
0.0
42
0.0
10
70.5195007324219
20
65.2121963500977
40
0.0
41
0.0
42
0.0
10
70.1244964599609
20
65.2295989990234
40
0.0
41
0.0
42
0.0
10
70.0854034423828
20
65.2294998168945
40
0.0
41
0.0
42
0.0
10
69.980598449707
20
65.2254028320312
40
0.0
41
0.0
42
0.0
10
69.5858001708984
20
65.2166976928711
40
0.0
41
0.0
42
0.0
10
69.4816970825195
20
65.2102966308594
40
0.0
41
0.0
42
0.0
10
68.984001159668
20
65.1588973999023
40
0.0
41
0.0
42
0.0
10
68.5319976806641
20
65.0263977050781
40
0.0
41
0.0
42
0.0
210
0.0
220
0.0
230
1.0
0
LWPOLYLINE
5
28
330
1C
100
AcDbEntity
67
0
8
0
62
256
6
ByLayer
370
-1
48
1.0
60
0
100
AcDbPolyline
90
138
70
1
38
0.0
39
0.0
10
73.5146026611328
20
74.8765029907227
40
0.0
41
0.0
42
0.0
10
73.5817031860352
20
74.9130020141602
40
0.0
41
0.0
42
0.0
10
73.9856033325195
20
74.6456985473633
40
0.0
41
0.0
42
0.0
10
74.0176010131836
20
74.6453018188477
40
0.0
41
0.0
42
0.0
10
74.0913009643555
20
74.5771026611328
40
0.0
41
0.0
42
0.0
10
74.1980972290039
20
74.497802734375
40
0.0
41
0.0
42
0.0
10
74.0927963256836
20
74.3262023925781
40
0.0
41
0.0
42
0.0
10
73.9964981079102
20
74.2748031616211
40
0.0
41
0.0
42
0.0
10
73.9037017822266
20
74.0479965209961
40
0.0
41
0.0
42
0.0
10
73.8455963134766
20
74.0059967041016
40
0.0
41
0.0
42
0.0
10
73.8056030273438
20
73.9257965087891
40
0.0
41
0.0
42
0.0
10
73.8057022094727
20
73.9061965942383
40
0.0
41
0.0
42
0.0
10
73.9063034057617
20
73.8757019042969
40
0.0
41
0.0
42
0.0
10
73.9905014038086
20
73.7619018554688
40
0.0
41
0.0
42
0.0
10
74.0161972045898
20
73.7618026733398
40
0.0
41
0.0
42
0.0
10
74.3322982788086
20
73.8769989013672
40
0.0
41
0.0
42
0.0
10
74.3587036132812
20
73.8910980224609
40
0.0
41
0.0
42
0.0
10
74.3815002441406
20
73.9245986938477
40
0.0
41
0.0
42
0.0
10
74.442497253418
20
74.0926971435547
40
0.0
41
0.0
42
0.0
10
74.4972991943359
20
74.1207962036133
40
0.0
41
0.0
42
0.0
10
74.5178985595703
20
74.0905990600586
40
0.0
41
0.0
42
0.0
10
74.578498840332
20
74.0206985473633
40
0.0
41
0.0
42
0.0
10
74.5566024780273
20
73.9516983032227
40
0.0
41
0.0
42
0.0
10
74.5565032958984
20
73.9194030761719
40
0.0
41
0.0
42
0.0
10
74.571403503418
20
73.886100769043
40
0.0
41
0.0
42
0.0
10
74.9002990722656
20
73.4901962280273
40
0.0
41
0.0
42
0.0
10
74.9344024658203
20
73.3828964233398
40
0.0
41
0.0
42
0.0
10
74.9789962768555
20
73.2959976196289
40
0.0
41
0.0
42
0.0
10
74.9915008544922
20
73.2767028808594
40
0.0
41
0.0
42
0.0
10
75.0081024169922
20
73.2766036987305
40
0.0
41
0.0
42
0.0
10
75.0522994995117
20
73.3497009277344
40
0.0
41
0.0
42
0.0
10
75.092399597168
20
73.3867034912109
40
0.0
41
0.0
42
0.0
10
75.1251983642578
20
73.4890975952148
40
0.0
41
0.0
42
0.0
10
75.3852996826172
20
73.8824996948242
40
0.0
41
0.0
42
0.0
10
75.3898010253906
20
73.9162979125977
40
0.0
41
0.0
42
0.0
10
75.3897018432617
20
73.9496002197266
40
0.0
41
0.0
42
0.0
10
75.3533020019531
20
74.0164031982422
40
0.0
41
0.0
42
0.0
10
75.4226989746094
20
74.0913009643555
40
0.0
41
0.0
42
0.0
10
75.5020980834961
20
74.197998046875
40
0.0
41
0.0
42
0.0
10
75.6735000610352
20
74.0926971435547
40
0.0
41
0.0
42
0.0
10
75.7249984741211
20
73.9964981079102
40
0.0
41
0.0
42
0.0
10
75.9516983032227
20
73.9035034179688
40
0.0
41
0.0
42
0.0
10
75.9906997680664
20
73.85009765625
40
0.0
41
0.0
42
0.0
10
76.0130996704102
20
73.8499984741211
40
0.0
41
0.0
42
0.0
10
76.1238021850586
20
73.9318008422852
40
0.0
41
0.0
42
0.0
10
76.2214965820312
20
73.8824005126953
40
0.0
41
0.0
42
0.0
10
76.2358016967773
20
73.8824005126953
40
0.0
41
0.0
42
0.0
10
76.2378005981445
20
74.0164031982422
40
0.0
41
0.0
42
0.0
10
76.1227035522461
20
74.3322982788086
40
0.0
41
0.0
42
0.0
10
76.1088027954102
20
74.3587036132812
40
0.0
41
0.0
42
0.0
10
76.0753021240234
20
74.3814010620117
40
0.0
41
0.0
42
0.0
10
75.9069976806641
20
74.4423980712891
40
0.0
41
0.0
42
0.0
10
75.8788986206055
20
74.4972991943359
40
0.0
41
0.0
42
0.0
10
75.9091033935547
20
74.5179977416992
40
0.0
41
0.0
42
0.0
10
75.9791030883789
20
74.578498840332
40
0.0
41
0.0
42
0.0
10
76.0482025146484
20
74.5566024780273
40
0.0
41
0.0
42
0.0
10
76.0804977416992
20
74.5565032958984
40
0.0
41
0.0
42
0.0
10
76.1137008666992
20
74.5715026855469
40
0.0
41
0.0
42
0.0
10
76.5096969604492
20
74.9002990722656
40
0.0
41
0.0
42
0.0
10
76.6168975830078
20
74.9345016479492
40
0.0
41
0.0
42
0.0
10
76.7037963867188
20
74.9791030883789
40
0.0
41
0.0
42
0.0
10
76.7231979370117
20
74.9915008544922
40
0.0
41
0.0
42
0.0
10
76.7230987548828
20
75.0081024169922
40
0.0
41
0.0
42
0.0
10
76.6501007080078
20
75.0522994995117
40
0.0
41
0.0
42
0.0
10
76.6131973266602
20
75.0923004150391
40
0.0
41
0.0
42
0.0
10
76.5108032226562
20
75.1251983642578
40
0.0
41
0.0
42
0.0
10
76.1174011230469
20
75.3852996826172
40
0.0
41
0.0
42
0.0
10
76.0836029052734
20
75.3897018432617
40
0.0
41
0.0
42
0.0
10
76.0503005981445
20
75.3896026611328
40
0.0
41
0.0
42
0.0
10
76.0012969970703
20
75.3628997802734
40
0.0
41
0.0
42
0.0
10
75.8946990966797
20
75.4421005249023
40
0.0
41
0.0
42
0.0
10
75.8692016601562
20
75.4420013427734
40
0.0
41
0.0
42
0.0
10
75.7708969116211
20
75.3603973388672
40
0.0
41
0.0
42
0.0
10
75.7546997070312
20
75.3714981079102
40
0.0
41
0.0
42
0.0
10
75.7936019897461
20
75.488899230957
40
0.0
41
0.0
42
0.0
10
75.9069976806641
20
75.6735992431641
40
0.0
41
0.0
42
0.0
10
76.0034027099609
20
75.7249984741211
40
0.0
41
0.0
42
0.0
10
76.0961990356445
20
75.9516983032227
40
0.0
41
0.0
42
0.0
10
76.154296875
20
75.993896484375
40
0.0
41
0.0
42
0.0
10
76.1941986083984
20
76.0740966796875
40
0.0
41
0.0
42
0.0
10
76.1940002441406
20
76.0934982299805
40
0.0
41
0.0
42
0.0
10
76.0934982299805
20
76.1239013671875
40
0.0
41
0.0
42
0.0
10
76.0093994140625
20
76.2379989624023
40
0.0
41
0.0
42
0.0
10
75.9837036132812
20
76.2378997802734
40
0.0
41
0.0
42
0.0
10
75.6675033569336
20
76.122802734375
40
0.0
41
0.0
42
0.0
10
75.6410980224609
20
76.1088027954102
40
0.0
41
0.0
42
0.0
10
75.6183013916016
20
76.0753021240234
40
0.0
41
0.0
42
0.0
10
75.5574035644531
20
75.907096862793
40
0.0
41
0.0
42
0.0
10
75.5026016235352
20
75.8788986206055
40
0.0
41
0.0
42
0.0
10
75.4817962646484
20
75.9089965820312
40
0.0
41
0.0
42
0.0
10
75.4225997924805
20
75.9776000976562
40
0.0
41
0.0
42
0.0
10
75.4225006103516
20
76.0122985839844
40
0.0
41
0.0
42
0.0
10
75.0790023803711
20
76.4259033203125
40
0.0
41
0.0
42
0.0
10
75.097297668457
20
76.4832000732422
40
0.0
41
0.0
42
0.0
10
75.0971984863281
20
76.5166015625
40
0.0
41
0.0
42
0.0
10
75.065299987793
20
76.6168975830078
40
0.0
41
0.0
42
0.0
10
75.0205993652344
20
76.7037963867188
40
0.0
41
0.0
42
0.0
10
75.0083999633789
20
76.7231979370117
40
0.0
41
0.0
42
0.0
10
74.99169921875
20
76.7231979370117
40
0.0
41
0.0
42
0.0
10
74.9475021362305
20
76.6501007080078
40
0.0
41
0.0
42
0.0
10
74.9075012207031
20
76.6131973266602
40
0.0
41
0.0
42
0.0
10
74.8764038085938
20
76.5167007446289
40
0.0
41
0.0
42
0.0
10
74.8764038085938
20
76.4852981567383
40
0.0
41
0.0
42
0.0
10
74.9130020141602
20
76.4181976318359
40
0.0
41
0.0
42
0.0
10
74.6454010009766
20
76.0137023925781
40
0.0
41
0.0
42
0.0
10
74.6455001831055
20
75.9822998046875
40
0.0
41
0.0
42
0.0
10
74.5771026611328
20
75.9085006713867
40
0.0
41
0.0
42
0.0
10
74.4979019165039
20
75.8015975952148
40
0.0
41
0.0
42
0.0
10
74.3262023925781
20
75.9069976806641
40
0.0
41
0.0
42
0.0
10
74.2746963500977
20
76.003303527832
40
0.0
41
0.0
42
0.0
10
74.0479965209961
20
76.0960998535156
40
0.0
41
0.0
42
0.0
10
74.0058975219727
20
76.1541976928711
40
0.0
41
0.0
42
0.0
10
73.9256973266602
20
76.1941986083984
40
0.0
41
0.0
42
0.0
10
73.9061965942383
20
76.1940994262695
40
0.0
41
0.0
42
0.0
10
73.8758010864258
20
76.0934982299805
40
0.0
41
0.0
42
0.0
10
73.7619018554688
20
76.0093994140625
40
0.0
41
0.0
42
0.0
10
73.7618026733398
20
75.9835968017578
40
0.0
41
0.0
42
0.0
10
73.8768997192383
20
75.6675033569336
40
0.0
41
0.0
42
0.0
10
73.890998840332
20
75.6410980224609
40
0.0
41
0.0
42
0.0
10
73.9245986938477
20
75.6182022094727
40
0.0
41
0.0
42
0.0
10
74.0926971435547
20
75.5572967529297
40
0.0
41
0.0
42
0.0
10
74.127799987793
20
75.4888000488281
40
0.0
41
0.0
42
0.0
10
74.1762008666992
20
75.3741989135742
40
0.0
41
0.0
42
0.0
10
74.1600036621094
20
75.3615036010742
40
0.0
41
0.0
42
0.0
10
74.0464019775391
20
75.44580078125
40
0.0
41
0.0
42
0.0
10
74.0201034545898
20
75.4457015991211
40
0.0
41
0.0
42
0.0
10
73.9905014038086
20
75.4250030517578
40
0.0
41
0.0
42
0.0
10
73.5739974975586
20
75.0789031982422
40
0.0
41
0.0
42
0.0
10
73.5167007446289
20
75.097297668457
40
0.0
41
0.0
42
0.0
10
73.4832992553711
20
75.0971984863281
40
0.0
41
0.0
42
0.0
10
73.3830032348633
20
75.065299987793
40
0.0
41
0.0
42
0.0
10
73.2959976196289
20
75.0206985473633
40
0.0
41
0.0
42
0.0
10
73.2767028808594
20
75.0083999633789
40
0.0
41
0.0
42
0.0
10
73.2766036987305
20
74.99169921875
40
0.0
41
0.0
42
0.0
10
73.3496017456055
20
74.9474029541016
40
0.0
41
0.0
42
0.0
10
73.3865966796875
20
74.9075012207031
40
0.0
41
0.0
42
0.0
10
73.4832000732422
20
74.8764038085938
40
0.0
41
0.0
42
0.0
10
73.5146026611328
20
74.8765029907227
40
0.0
41
0.0
42
0.0
210
0.0
220
0.0
230
1.0
0
LWPOLYLINE
5
29
330
1C
100
AcDbEntity
67
0
8
0
62
256
6
ByLayer
370
-1
48
1.0
60
0
100
AcDbPolyline
90
135
70
1
38
0.0
39
0.0
10
73.4175033569336
20
74.9471969604492
40
0.0
41
0.0
42
0.0
10
73.3299026489258
20
75.0002975463867
40
0.0
41
0.0
42
0.0
10
73.3299026489258
20
75.0015029907227
40
0.0
41
0.0
42
0.0
10
73.4469985961914
20
75.0616989135742
40
0.0
41
0.0
42
0.0
10
73.5
20
75.0785980224609
40
0.0
41
0.0
42
0.0
10
73.5479965209961
20
75.0633010864258
40
0.0
41
0.0
42
0.0
10
73.5841979980469
20
75.0632019042969
40
0.0
41
0.0
42
0.0
10
73.6167984008789
20
75.0654983520508
40
0.0
41
0.0
42
0.0
10
74.0073013305664
20
75.3897018432617
40
0.0
41
0.0
42
0.0
10
74.0300979614258
20
75.405403137207
40
0.0
41
0.0
42
0.0
10
74.2942962646484
20
75.209602355957
40
0.0
41
0.0
42
0.0
10
74.306396484375
20
75.209602355957
40
0.0
41
0.0
42
0.0
10
74.3062973022461
20
75.2242965698242
40
0.0
41
0.0
42
0.0
10
74.185302734375
20
75.5110015869141
40
0.0
41
0.0
42
0.0
10
74.163200378418
20
75.5544967651367
40
0.0
41
0.0
42
0.0
10
73.9300994873047
20
75.6386032104492
40
0.0
41
0.0
42
0.0
10
73.799201965332
20
75.9960021972656
40
0.0
41
0.0
42
0.0
10
73.9262008666992
20
76.089599609375
40
0.0
41
0.0
42
0.0
10
73.9466018676758
20
76.1566009521484
40
0.0
41
0.0
42
0.0
10
73.993896484375
20
76.1333999633789
40
0.0
41
0.0
42
0.0
10
74.0213012695312
20
76.0953979492188
40
0.0
41
0.0
42
0.0
10
74.0328979492188
20
76.0891036987305
40
0.0
41
0.0
42
0.0
10
74.2591018676758
20
75.9964981079102
40
0.0
41
0.0
42
0.0
10
74.3444976806641
20
75.8365020751953
40
0.0
41
0.0
42
0.0
10
74.4859008789062
20
75.7498016357422
40
0.0
41
0.0
42
0.0
10
74.5093994140625
20
75.7498016357422
40
0.0
41
0.0
42
0.0
10
74.5727005004883
20
75.8350982666016
40
0.0
41
0.0
42
0.0
10
74.6836013793945
20
75.9546966552734
40
0.0
41
0.0
42
0.0
10
74.6835021972656
20
75.9824981689453
40
0.0
41
0.0
42
0.0
10
74.6776962280273
20
75.9972991943359
40
0.0
41
0.0
42
0.0
10
74.9317016601562
20
76.3812026977539
40
0.0
41
0.0
42
0.0
10
74.9310989379883
20
76.4495010375977
40
0.0
41
0.0
42
0.0
10
74.9021987915039
20
76.5029983520508
40
0.0
41
0.0
42
0.0
10
74.9192962646484
20
76.5566024780273
40
0.0
41
0.0
42
0.0
10
74.9471969604492
20
76.5822982788086
40
0.0
41
0.0
42
0.0
10
75.0002975463867
20
76.6699981689453
40
0.0
41
0.0
42
0.0
10
75.0015029907227
20
76.6699981689453
40
0.0
41
0.0
42
0.0
10
75.0616989135742
20
76.5528030395508
40
0.0
41
0.0
42
0.0
10
75.0785980224609
20
76.5
40
0.0
41
0.0
42
0.0
10
75.0633010864258
20
76.4517974853516
40
0.0
41
0.0
42
0.0
10
75.0632019042969
20
76.4157028198242
40
0.0
41
0.0
42
0.0
10
75.0653991699219
20
76.3831024169922
40
0.0
41
0.0
42
0.0
10
75.3849029541016
20
75.9984970092773
40
0.0
41
0.0
42
0.0
10
75.3749008178711
20
75.9809036254883
40
0.0
41
0.0
42
0.0
10
75.3748016357422
20
75.9542007446289
40
0.0
41
0.0
42
0.0
10
75.4782028198242
20
75.834602355957
40
0.0
41
0.0
42
0.0
10
75.4908981323242
20
75.8162994384766
40
0.0
41
0.0
42
0.0
10
75.5149002075195
20
75.8163986206055
40
0.0
41
0.0
42
0.0
10
75.5544967651367
20
75.8366012573242
40
0.0
41
0.0
42
0.0
10
75.638298034668
20
76.0681991577148
40
0.0
41
0.0
42
0.0
10
75.6511001586914
20
76.0747985839844
40
0.0
41
0.0
42
0.0
10
75.9960021972656
20
76.2005004882812
40
0.0
41
0.0
42
0.0
10
76.0895004272461
20
76.0735015869141
40
0.0
41
0.0
42
0.0
10
76.1567001342773
20
76.0531997680664
40
0.0
41
0.0
42
0.0
10
76.1333999633789
20
76.0057983398438
40
0.0
41
0.0
42
0.0
10
76.0953979492188
20
75.978401184082
40
0.0
41
0.0
42
0.0
10
76.0891036987305
20
75.9669036865234
40
0.0
41
0.0
42
0.0
10
75.9964981079102
20
75.7406997680664
40
0.0
41
0.0
42
0.0
10
75.8365020751953
20
75.6552963256836
40
0.0
41
0.0
42
0.0
10
75.7479019165039
20
75.5110015869141
40
0.0
41
0.0
42
0.0
10
75.6529006958008
20
75.22509765625
40
0.0
41
0.0
42
0.0
10
75.6528015136719
20
75.2095031738281
40
0.0
41
0.0
42
0.0
10
75.6643981933594
20
75.209602355957
40
0.0
41
0.0
42
0.0
10
75.8928985595703
20
75.3990020751953
40
0.0
41
0.0
42
0.0
10
75.9869003295898
20
75.3293991088867
40
0.0
41
0.0
42
0.0
10
76.0146026611328
20
75.3292999267578
40
0.0
41
0.0
42
0.0
10
76.0864028930664
20
75.3684997558594
40
0.0
41
0.0
42
0.0
10
76.4890975952148
20
75.1019973754883
40
0.0
41
0.0
42
0.0
10
76.5566024780273
20
75.0804977416992
40
0.0
41
0.0
42
0.0
10
76.5821990966797
20
75.0525970458984
40
0.0
41
0.0
42
0.0
10
76.6699981689453
20
74.9994964599609
40
0.0
41
0.0
42
0.0
10
76.6699981689453
20
74.9983978271484
40
0.0
41
0.0
42
0.0
10
76.5530014038086
20
74.938102722168
40
0.0
41
0.0
42
0.0
10
76.4901962280273
20
74.9181976318359
40
0.0
41
0.0
42
0.0
10
76.0871963500977
20
74.5831985473633
40
0.0
41
0.0
42
0.0
10
76.0113983154297
20
74.6073989868164
40
0.0
41
0.0
42
0.0
10
75.9809036254883
20
74.625
40
0.0
41
0.0
42
0.0
10
75.9542999267578
20
74.625
40
0.0
41
0.0
42
0.0
10
75.834602355957
20
74.5214996337891
40
0.0
41
0.0
42
0.0
10
75.8162994384766
20
74.5090026855469
40
0.0
41
0.0
42
0.0
10
75.8162994384766
20
74.4850006103516
40
0.0
41
0.0
42
0.0
10
75.8365020751953
20
74.445198059082
40
0.0
41
0.0
42
0.0
10
76.0697021484375
20
74.3610992431641
40
0.0
41
0.0
42
0.0
10
76.2070007324219
20
73.9857025146484
40
0.0
41
0.0
42
0.0
10
76.2061996459961
20
73.9326019287109
40
0.0
41
0.0
42
0.0
10
76.1494979858398
20
73.9614028930664
40
0.0
41
0.0
42
0.0
10
76.1212997436523
20
73.9614028930664
40
0.0
41
0.0
42
0.0
10
76.0014038085938
20
73.8727035522461
40
0.0
41
0.0
42
0.0
10
75.978401184082
20
73.904296875
40
0.0
41
0.0
42
0.0
10
75.9662017822266
20
73.9108963012695
40
0.0
41
0.0
42
0.0
10
75.7406005859375
20
74.003303527832
40
0.0
41
0.0
42
0.0
10
75.6551971435547
20
74.163200378418
40
0.0
41
0.0
42
0.0
10
75.5139999389648
20
74.2500991821289
40
0.0
41
0.0
42
0.0
10
75.4905014038086
20
74.2500991821289
40
0.0
41
0.0
42
0.0
10
75.4271011352539
20
74.1647033691406
40
0.0
41
0.0
42
0.0
10
75.3161010742188
20
74.0450973510742
40
0.0
41
0.0
42
0.0
10
75.3161010742188
20
74.0173034667969
40
0.0
41
0.0
42
0.0
10
75.3274002075195
20
73.9888000488281
40
0.0
41
0.0
42
0.0
10
75.3684997558594
20
73.9134979248047
40
0.0
41
0.0
42
0.0
10
75.1020965576172
20
73.5106964111328
40
0.0
41
0.0
42
0.0
10
75.0805969238281
20
73.4432983398438
40
0.0
41
0.0
42
0.0
10
75.0525970458984
20
73.4176025390625
40
0.0
41
0.0
42
0.0
10
74.9994964599609
20
73.3299026489258
40
0.0
41
0.0
42
0.0
10
74.9983978271484
20
73.3299026489258
40
0.0
41
0.0
42
0.0
10
74.938102722168
20
73.4468994140625
40
0.0
41
0.0
42
0.0
10
74.918098449707
20
73.5095977783203
40
0.0
41
0.0
42
0.0
10
74.5832977294922
20
73.9126968383789
40
0.0
41
0.0
42
0.0
10
74.6074981689453
20
73.9885025024414
40
0.0
41
0.0
42
0.0
10
74.625
20
74.0188980102539
40
0.0
41
0.0
42
0.0
10
74.6249008178711
20
74.0455017089844
40
0.0
41
0.0
42
0.0
10
74.5214996337891
20
74.1651000976562
40
0.0
41
0.0
42
0.0
10
74.508903503418
20
74.1834030151367
40
0.0
41
0.0
42
0.0
10
74.4850006103516
20
74.1834030151367
40
0.0
41
0.0
42
0.0
10
74.4452972412109
20
74.163200378418
40
0.0
41
0.0
42
0.0
10
74.361701965332
20
73.9318008422852
40
0.0
41
0.0
42
0.0
10
74.3489990234375
20
73.9250030517578
40
0.0
41
0.0
42
0.0
10
74.0038986206055
20
73.799201965332
40
0.0
41
0.0
42
0.0
10
73.9102020263672
20
73.9262008666992
40
0.0
41
0.0
42
0.0
10
73.8430023193359
20
73.9465026855469
40
0.0
41
0.0
42
0.0
10
73.8664016723633
20
73.993896484375
40
0.0
41
0.0
42
0.0
10
73.904296875
20
74.0214004516602
40
0.0
41
0.0
42
0.0
10
73.9105987548828
20
74.0329971313477
40
0.0
41
0.0
42
0.0
10
74.0034027099609
20
74.2591018676758
40
0.0
41
0.0
42
0.0
10
74.1632995605469
20
74.344596862793
40
0.0
41
0.0
42
0.0
10
74.2500991821289
20
74.4859008789062
40
0.0
41
0.0
42
0.0
10
74.25
20
74.5093002319336
40
0.0
41
0.0
42
0.0
10
74.1647033691406
20
74.5726013183594
40
0.0
41
0.0
42
0.0
10
74.0450973510742
20
74.6836013793945
40
0.0
41
0.0
42
0.0
10
74.0174026489258
20
74.6835021972656
40
0.0
41
0.0
42
0.0
10
74.0026016235352
20
74.6775970458984
40
0.0
41
0.0
42
0.0
10
73.6186981201172
20
74.9317016601562
40
0.0
41
0.0
42
0.0
10
73.5503997802734
20
74.9311981201172
40
0.0
41
0.0
42
0.0
10
73.4969024658203
20
74.902099609375
40
0.0
41
0.0
42
0.0
10
73.4431991577148
20
74.9191970825195
40
0.0
41
0.0
42
0.0
10
73.4175033569336
20
74.9471969604492
40
0.0
41
0.0
42
0.0
210
0.0
220
0.0
230
1.0
0
LWPOLYLINE
5
2A
330
1C
100
AcDbEntity
67
0
8
0
62
256
6
ByLayer
370
-1
48
1.0
60
0
100
AcDbPolyline
90
31
70
1
38
0.0
39
0.0
10
79.0866012573242
20
84.8488998413086
40
0.0
41
0.0
42
0.0
10
79.4815979003906
20
84.78759765625
40
0.0
41
0.0
42
0.0
10
79.5195007324219
20
84.7874984741211
40
0.0
41
0.0
42
0.0
10
79.6041030883789
20
84.790901184082
40
0.0
41
0.0
42
0.0
10
79.9804000854492
20
84.7744979858398
40
0.0
41
0.0
42
0.0
10
80.0193023681641
20
84.7743988037109
40
0.0
41
0.0
42
0.0
10
80.1240997314453
20
84.7807998657227
40
0.0
41
0.0
42
0.0
10
80.5186004638672
20
84.7893981933594
40
0.0
41
0.0
42
0.0
10
81.0158996582031
20
84.8407974243164
40
0.0
41
0.0
42
0.0
10
81.4677963256836
20
84.9732971191406
40
0.0
41
0.0
42
0.0
10
81.5055999755859
20
84.9912033081055
40
0.0
41
0.0
42
0.0
10
81.5055999755859
20
84.9990005493164
40
0.0
41
0.0
42
0.0
10
81.4698028564453
20
84.9989013671875
40
0.0
41
0.0
42
0.0
10
81.4384002685547
20
84.9839019775391
40
0.0
41
0.0
42
0.0
10
80.984001159668
20
84.8506011962891
40
0.0
41
0.0
42
0.0
10
80.4813003540039
20
84.7990036010742
40
0.0
41
0.0
42
0.0
10
80.0457992553711
20
84.7893981933594
40
0.0
41
0.0
42
0.0
10
79.996696472168
20
84.7863998413086
40
0.0
41
0.0
42
0.0
10
79.5847015380859
20
84.8043975830078
40
0.0
41
0.0
42
0.0
10
79.5102996826172
20
84.8031005859375
40
0.0
41
0.0
42
0.0
10
79.0832977294922
20
84.869499206543
40
0.0
41
0.0
42
0.0
10
79.0186004638672
20
84.8695983886719
40
0.0
41
0.0
42
0.0
10
78.9497985839844
20
84.8780975341797
40
0.0
41
0.0
42
0.0
10
78.7496032714844
20
84.9561996459961
40
0.0
41
0.0
42
0.0
10
78.6296997070312
20
84.9990005493164
40
0.0
41
0.0
42
0.0
10
78.5369033813477
20
84.9990005493164
40
0.0
41
0.0
42
0.0
10
78.5367965698242
20
84.9946975708008
40
0.0
41
0.0
42
0.0
10
78.5625
20
84.9856033325195
40
0.0
41
0.0
42
0.0
10
78.8800964355469
20
84.8616027832031
40
0.0
41
0.0
42
0.0
10
78.9813003540039
20
84.8490982055664
40
0.0
41
0.0
42
0.0
10
79.0866012573242
20
84.8488998413086
40
0.0
41
0.0
42
0.0
210
0.0
220
0.0
230
1.0
0
LWPOLYLINE
5
2B
330
1C
100
AcDbEntity
67
0
8
0
62
256
6
ByLayer
370
-1
48
1.0
60
0
100
AcDbPolyline
90
40
70
1
38
0.0
39
0.0
10
78.9167022705078
20
65.0009994506836
40
0.0
41
0.0
42
0.0
10
78.9600982666016
20
65.0450973510742
40
0.0
41
0.0
42
0.0
10
79.007698059082
20
65.0865020751953
40
0.0
41
0.0
42
0.0
10
79.5113983154297
20
65.3772964477539
40
0.0
41
0.0
42
0.0
10
79.8867034912109
20
65.4994964599609
40
0.0
41
0.0
42
0.0
10
79.9520034790039
20
65.5288009643555
40
0.0
41
0.0
42
0.0
10
80.0149993896484
20
65.5474014282227
40
0.0
41
0.0
42
0.0
10
80.4515991210938
20
65.6292037963867
40
0.0
41
0.0
42
0.0
10
80.5175018310547
20
65.638298034668
40
0.0
41
0.0
42
0.0
10
81.0182037353516
20
65.684196472168
40
0.0
41
0.0
42
0.0
10
81.0923004150391
20
65.689697265625
40
0.0
41
0.0
42
0.0
10
81.5681991577148
20
65.701301574707
40
0.0
41
0.0
42
0.0
10
81.9854965209961
20
65.6594009399414
40
0.0
41
0.0
42
0.0
10
82.2288970947266
20
65.5493011474609
40
0.0
41
0.0
42
0.0
10
82.3623962402344
20
65.4951019287109
40
0.0
41
0.0
42
0.0
10
82.4438018798828
20
65.0932006835938
40
0.0
41
0.0
42
0.0
10
82.4786987304688
20
65.0009994506836
40
0.0
41
0.0
42
0.0
10
82.5171966552734
20
65.0009994506836
40
0.0
41
0.0
42
0.0
10
82.5190963745117
20
65.008903503418
40
0.0
41
0.0
42
0.0
10
82.5189971923828
20
65.0454025268555
40
0.0
41
0.0
42
0.0
10
82.4991989135742
20
65.2293014526367
40
0.0
41
0.0
42
0.0
10
82.4433975219727
20
65.5046997070312
40
0.0
41
0.0
42
0.0
10
82.4003982543945
20
65.522102355957
40
0.0
41
0.0
42
0.0
10
82.0143966674805
20
65.6968002319336
40
0.0
41
0.0
42
0.0
10
81.6436004638672
20
65.734001159668
40
0.0
41
0.0
42
0.0
10
81.6050033569336
20
65.7339019775391
40
0.0
41
0.0
42
0.0
10
81.480598449707
20
65.7296981811523
40
0.0
41
0.0
42
0.0
10
81.0995025634766
20
65.720703125
40
0.0
41
0.0
42
0.0
10
80.9816970825195
20
65.7118988037109
40
0.0
41
0.0
42
0.0
10
80.4823989868164
20
65.6660003662109
40
0.0
41
0.0
42
0.0
10
80.378303527832
20
65.651496887207
40
0.0
41
0.0
42
0.0
10
79.9849014282227
20
65.5779037475586
40
0.0
41
0.0
42
0.0
10
79.8861999511719
20
65.548698425293
40
0.0
41
0.0
42
0.0
10
79.7780990600586
20
65.5002975463867
40
0.0
41
0.0
42
0.0
10
79.4886016845703
20
65.4059982299805
40
0.0
41
0.0
42
0.0
10
78.9922027587891
20
65.1193008422852
40
0.0
41
0.0
42
0.0
10
78.9532012939453
20
65.0851974487305
40
0.0
41
0.0
42
0.0
10
78.880500793457
20
65.0113983154297
40
0.0
41
0.0
42
0.0
10
78.880500793457
20
65.0009994506836
40
0.0
41
0.0
42
0.0
10
78.9167022705078
20
65.0009994506836
40
0.0
41
0.0
42
0.0
210
0.0
220
0.0
230
1.0
0
LWPOLYLINE
5
2C
330
1C
100
AcDbEntity
67
0
8
0
62
256
6
ByLayer
370
-1
48
1.0
60
0
100
AcDbPolyline
90
38
70
1
38
0.0
39
0.0
10
84.3337020874023
20
80.4822998046875
40
0.0
41
0.0
42
0.0
10
84.3481979370117
20
80.378303527832
40
0.0
41
0.0
42
0.0
10
84.4188003540039
20
79.9979019165039
40
0.0
41
0.0
42
0.0
10
84.4509963989258
20
79.886100769043
40
0.0
41
0.0
42
0.0
10
84.4994964599609
20
79.7780990600586
40
0.0
41
0.0
42
0.0
10
84.5938034057617
20
79.4885025024414
40
0.0
41
0.0
42
0.0
10
84.880500793457
20
78.9922027587891
40
0.0
41
0.0
42
0.0
10
84.9145965576172
20
78.9531021118164
40
0.0
41
0.0
42
0.0
10
84.9885025024414
20
78.880500793457
40
0.0
41
0.0
42
0.0
10
84.9990005493164
20
78.880500793457
40
0.0
41
0.0
42
0.0
10
84.9989013671875
20
78.9166030883789
40
0.0
41
0.0
42
0.0
10
84.9546966552734
20
78.9600982666016
40
0.0
41
0.0
42
0.0
10
84.913200378418
20
79.0075988769531
40
0.0
41
0.0
42
0.0
10
84.6223983764648
20
79.5112991333008
40
0.0
41
0.0
42
0.0
10
84.5002975463867
20
79.8865966796875
40
0.0
41
0.0
42
0.0
10
84.4709014892578
20
79.9518966674805
40
0.0
41
0.0
42
0.0
10
84.4523010253906
20
80.0149993896484
40
0.0
41
0.0
42
0.0
10
84.3704986572266
20
80.4515991210938
40
0.0
41
0.0
42
0.0
10
84.3613967895508
20
80.5175018310547
40
0.0
41
0.0
42
0.0
10
84.3154983520508
20
81.0182037353516
40
0.0
41
0.0
42
0.0
10
84.3099975585938
20
81.0923004150391
40
0.0
41
0.0
42
0.0
10
84.2984008789062
20
81.5681991577148
40
0.0
41
0.0
42
0.0
10
84.3403015136719
20
81.9854965209961
40
0.0
41
0.0
42
0.0
10
84.4504013061523
20
82.2289962768555
40
0.0
41
0.0
42
0.0
10
84.5047988891602
20
82.3623962402344
40
0.0
41
0.0
42
0.0
10
84.9066009521484
20
82.4439010620117
40
0.0
41
0.0
42
0.0
10
84.9990005493164
20
82.4786987304688
40
0.0
41
0.0
42
0.0
10
84.9988021850586
20
82.5171966552734
40
0.0
41
0.0
42
0.0
10
84.9909973144531
20
82.5190963745117
40
0.0
41
0.0
42
0.0
10
84.9543991088867
20
82.5189971923828
40
0.0
41
0.0
42
0.0
10
84.7705001831055
20
82.4991989135742
40
0.0
41
0.0
42
0.0
10
84.4951019287109
20
82.4433975219727
40
0.0
41
0.0
42
0.0
10
84.4776000976562
20
82.4004974365234
40
0.0
41
0.0
42
0.0
10
84.3029022216797
20
82.0145034790039
40
0.0
41
0.0
42
0.0
10
84.2658004760742
20
81.6438980102539
40
0.0
41
0.0
42
0.0
10
84.2789993286133
20
81.0995025634766
40
0.0
41
0.0
42
0.0
10
84.2878036499023
20
80.9816970825195
40
0.0
41
0.0
42
0.0
10
84.3337020874023
20
80.4822998046875
40
0.0
41
0.0
42
0.0
210
0.0
220
0.0
230
1.0
0
LWPOLYLINE
5
2D
330
1C
100
AcDbEntity
67
0
8
0
62
256
6
ByLayer
370
-1
48
1.0
60
0
100
AcDbPolyline
90
31
70
1
38
0.0
39
0.0
10
84.7744979858398
20
70.0195007324219
40
0.0
41
0.0
42
0.0
10
84.7743988037109
20
69.980598449707
40
0.0
41
0.0
42
0.0
10
84.7807998657227
20
69.8758010864258
40
0.0
41
0.0
42
0.0
10
84.7893981933594
20
69.4813003540039
40
0.0
41
0.0
42
0.0
10
84.8407974243164
20
68.984001159668
40
0.0
41
0.0
42
0.0
10
84.9732971191406
20
68.5318984985352
40
0.0
41
0.0
42
0.0
10
84.9912033081055
20
68.4943008422852
40
0.0
41
0.0
42
0.0
10
84.9990005493164
20
68.4943008422852
40
0.0
41
0.0
42
0.0
10
84.9989013671875
20
68.5299987792969
40
0.0
41
0.0
42
0.0
10
84.9839019775391
20
68.5614013671875
40
0.0
41
0.0
42
0.0
10
84.8505020141602
20
69.0158996582031
40
0.0
41
0.0
42
0.0
10
84.7990036010742
20
69.5186004638672
40
0.0
41
0.0
42
0.0
10
84.7893981933594
20
69.9541015625
40
0.0
41
0.0
42
0.0
10
84.7863998413086
20
70.0031967163086
40
0.0
41
0.0
42
0.0
10
84.8043975830078
20
70.4151992797852
40
0.0
41
0.0
42
0.0
10
84.8031005859375
20
70.4896011352539
40
0.0
41
0.0
42
0.0
10
84.869499206543
20
70.9166030883789
40
0.0
41
0.0
42
0.0
10
84.8695983886719
20
70.9813003540039
40
0.0
41
0.0
42
0.0
10
84.8780975341797
20
71.0501022338867
40
0.0
41
0.0
42
0.0
10
84.956298828125
20
71.2501983642578
40
0.0
41
0.0
42
0.0
10
84.9990005493164
20
71.3701019287109
40
0.0
41
0.0
42
0.0
10
84.9990005493164
20
71.4629974365234
40
0.0
41
0.0
42
0.0
10
84.9946975708008
20
71.4629974365234
40
0.0
41
0.0
42
0.0
10
84.9856033325195
20
71.4373016357422
40
0.0
41
0.0
42
0.0
10
84.8616027832031
20
71.1197967529297
40
0.0
41
0.0
42
0.0
10
84.8490982055664
20
71.0186004638672
40
0.0
41
0.0
42
0.0
10
84.8488998413086
20
70.9132995605469
40
0.0
41
0.0
42
0.0
10
84.78759765625
20
70.5183029174805
40
0.0
41
0.0
42
0.0
10
84.7874984741211
20
70.4804000854492
40
0.0
41
0.0
42
0.0
10
84.790901184082
20
70.3957977294922
40
0.0
41
0.0
42
0.0
10
84.7744979858398
20
70.0195007324219
40
0.0
41
0.0
42
0.0
210
0.0
220
0.0
230
1.0
0
VIEWPORT
5
32
330
2E
100
AcDbEntity
67
1
8
0
62
256
6
ByLayer
370
-1
48
1.0
60
0
100
AcDbViewport
10
0.0
20
0.0
30
0.0
40
297.0
41
210.0
68
1
69
1
12
50.0
22
100.0
13
0.0
23
0.0
14
10.0
24
10.0
15
10.0
25
10.0
16
0.0
26
0.0
36
1.0
17
0.0
27
0.0
37
0.0
42
50.0
43
0.0
44
0.0
45
250.0
50
0.0
51
0.0
72
1000
90
819232
110
0.0
120
0.0
130
0.0
111
1.0
121
0.0
131
0.0
112
0.0
122
1.0
132
0.0
0
ENDSEC
0
SECTION
2
OBJECTS
0
DICTIONARY
5
38
330
0
100
AcDbDictionary
280
1
281
1
3
ACAD_GROUP
350
12
3
ACAD_LAYOUT
350
31
3
ACAD_DGNDEFINITIONS
350
F
3
ACAD_DWFDEFINITIONS
350
10
3
ACAD_PDFDEFINITIONS
350
11
3
ACAD_MLINESTYLE
350
B
3
ACAD_IMAGE_DICT
350
E
3
ACAD_IMAGE_VARS
350
21
0
DICTIONARY
5
12
330
38
100
AcDbDictionary
280
1
281
1
0
DICTIONARY
5
31
330
38
100
AcDbDictionary
280
1
281
1
3
Model
350
20
3
Layout1
350
33
0
DICTIONARY
5
F
330
38
100
AcDbDictionary
280
1
281
1
0
DICTIONARY
5
10
330
38
100
AcDbDictionary
280
1
281
1
0
DICTIONARY
5
11
330
38
100
AcDbDictionary
280
1
281
1
0
DICTIONARY
5
B
330
38
100
AcDbDictionary
280
1
281
1
3
Standard
350
1B
0
DICTIONARY
5
E
330
38
100
AcDbDictionary
280
1
281
1
0
DICTIONARY
5
6
330
5
100
AcDbDictionary
280
1
281
1
3
ACAD_LAYERSTATES
360
39
0
DICTIONARY
5
39
330
6
100
AcDbDictionary
280
1
281
1
0
LAYOUT
5
20
330
31
100
AcDbPlotSettings
1

2
none_device
4
ISO_A4_(210.00_x_297.00_MM)
6

40
7.5
41
20.0
42
7.5
43
20.0
44
210.0
45
297.0
46
0.0
47
0.0
48
0.0
49
0.0
140
0.0
141
0.0
142
1.0
143
1.0
70
11952
72
1
73
1
74
1
7

75
0
76
0
77
2
78
300
147
1.0
148
0.0
149
0.0
100
AcDbLayout
1
Model
71
0
10
-20.0
20
-7.5
11
277.0
21
202.5
12
0.0
22
0.0
32
0.0
14
25.7
24
19.5
34
0.0
15
231.3
25
175.5
35
0.0
146
0.0
13
0.0
23
0.0
33
0.0
16
1.0
26
0.0
36
0.0
17
0.0
27
1.0
37
0.0
76
0
330
1C
0
LAYOUT
5
33
330
31
100
AcDbPlotSettings
1

2
none_device
4
ISO_A4_(210.00_x_297.00_MM)
6

40
7.5
41
20.0
42
7.5
43
20.0
44
210.0
45
297.0
46
0.0
47
0.0
48
0.0
49
0.0
140
0.0
141
0.0
142
1.0
143
1.0
70
688
72
1
73
1
74
1
7

75
0
76
0
77
2
78
300
147
1.0
148
0.0
149
0.0
100
AcDbLayout
1
Layout1
71
1
10
-20.0
20
-7.5
11
277.0
21
202.5
12
0.0
22
0.0
32
0.0
14
25.7
24
19.5
34
0.0
15
231.3
25
175.5
35
0.0
146
0.0
13
0.0
23
0.0
33
0.0
16
1.0
26
0.0
36
0.0
17
0.0
27
1.0
37
0.0
76
0
330
2E
0
MLINESTYLE
5
1B
330
B
100
AcDbMlineStyle
2
Standard
70
0
3

62
256
51
90.0
52
90.0
71
2
49
0.5
62
256
6
ByLayer
49
-0.5
62
256
6
ByLayer
0
RASTERVARIABLES
5
21
330
E
100
AcDbRasterVariables
90
0
70
1
71
1
72
0
0
ENDSEC
0
EOF
