999
DXF file generated by netDxf https://github.com/haplokuon/netDxf, Copyright(C) Daniel Carvajal, Licensed under MIT
0
SECTION
2
HEADER
9
$ACADVER
1
AC1015
9
$DWGCODEPAGE
3
ANSI_1252
9
$HANDSEED
5
46
9
$ANGBASE
50
0.0
9
$ANGDIR
70
0
9
$ATTMODE
70
1
9
$AUNITS
70
0
9
$AUPREC
70
0
9
$CECOLOR
62
256
9
$CELTSCALE
40
1.0
9
$CELTYPE
6
ByLayer
9
$CELWEIGHT
370
-1
9
$CLAYER
8
0
9
$CMLJUST
70
0
9
$CMLSCALE
40
20.0
9
$CMLSTYLE
2
Standard
9
$DIMSTYLE
2
Standard
9
$TEXTSIZE
40
2.5
9
$TEXTSTYLE
7
Standard
9
$LUNITS
70
2
9
$LUPREC
70
4
9
$MIRRTEXT
70
0
9
$EXTNAMES
290
1
9
$INSBASE
10
0.0
20
0.0
30
0.0
9
$INSUNITS
70
0
9
$LTSCALE
40
1.0
9
$LWDISPLAY
290
0
9
$PDMODE
70
0
9
$PDSIZE
40
0.0
9
$PLINEGEN
70
0
9
$PSLTSCALE
70
1
9
$SPLINESEGS
70
8
9
$SURFU
70
6
9
$SURFV
70
6
9
$TDCREATE
40
2460823.48368971
9
$TDUCREATE
40
2460823.15035638
9
$TDUPDATE
40
2460823.48368971
9
$TDUUPDATE
40
2460823.15035638
9
$TDINDWG
40
0.0
9
$UCSORG
10
0.0
20
0.0
30
0.0
9
$UCSXDIR
10
1.0
20
0.0
30
0.0
9
$UCSYDIR
10
0.0
20
1.0
30
0.0
9
$DIMADEC
70
0
9
$DIMALT
70
0
9
$DIMALTD
70
2
9
$DIMALTF
40
25.4
9
$DIMALTRND
40
0.0
9
$DIMALTTD
70
2
9
$DIMALTTZ
70
0
9
$DIMALTU
70
2
9
$DIMALTZ
70
0
9
$DIMAPOST
1

9
$DIMATFIT
70
3
9
$DIMAUNIT
70
0
9
$DIMASZ
40
0.18
9
$DIMAZIN
70
0
9
$DIMSAH
70
0
9
$DIMBLK
1

9
$DIMLDRBLK
1

9
$DIMCEN
40
0.09
9
$DIMCLRD
70
0
9
$DIMCLRE
70
0
9
$DIMCLRT
70
0
9
$DIMDEC
70
4
9
$DIMDLE
40
0.0
9
$DIMDLI
40
0.38
9
$DIMDSEP
70
46
9
$DIMEXE
40
0.18
9
$DIMEXO
40
0.0625
9
$DIMFXLON
70
0
9
$DIMFXL
40
1.0
9
$DIMGAP
40
0.09
9
$DIMJUST
70
0
9
$DIMLFAC
40
1.0
9
$DIMLUNIT
70
2
9
$DIMLWD
70
-2
9
$DIMLWE
70
-2
9
$DIMPOST
1

9
$DIMRND
40
0.0
9
$DIMSCALE
40
1.0
9
$DIMSD1
70
0
9
$DIMSD2
70
0
9
$DIMSE1
70
0
9
$DIMSE2
70
0
9
$DIMSOXD
70
0
9
$DIMTAD
70
0
9
$DIMTDEC
70
4
9
$DIMTFAC
40
1.0
9
$DIMTIH
70
0
9
$DIMTIX
70
0
9
$DIMTM
40
0.0
9
$DIMTMOVE
70
0
9
$DIMTOFL
70
0
9
$DIMTOH
70
0
9
$DIMTOL
70
0
9
$DIMLIM
70
0
9
$DIMTOLJ
70
1
9
$DIMTP
40
0.0
9
$DIMTXT
40
0.18
9
$DIMTXTDIRECTION
70
0
9
$DIMTZIN
70
0
9
$DIMZIN
70
0
9
$DIMFRAC
70
0
9
$DIMLTYPE
6
ByBlock
9
$DIMLTEX1
6
ByBlock
9
$DIMLTEX2
6
ByBlock
0
ENDSEC
0
SECTION
2
CLASSES
0
CLASS
1
RASTERVARIABLES
2
AcDbRasterVariables
3
ISM
90
0
280
0
281
0
0
ENDSEC
0
SECTION
2
TABLES
0
TABLE
2
APPID
5
4
330
0
100
AcDbSymbolTable
70
5
0
APPID
5
19
330
4
100
AcDbSymbolTableRecord
100
AcDbRegAppTableRecord
2
ACAD
70
0
0
APPID
5
40
330
4
100
AcDbSymbolTableRecord
100
AcDbRegAppTableRecord
2
AcCmTransparency
70
0
0
APPID
5
41
330
4
100
AcDbSymbolTableRecord
100
AcDbRegAppTableRecord
2
AcAecLayerStandard
70
0
0
APPID
5
42
330
4
100
AcDbSymbolTableRecord
100
AcDbRegAppTableRecord
2
GradientColor1ACI
70
0
0
APPID
5
43
330
4
100
AcDbSymbolTableRecord
100
AcDbRegAppTableRecord
2
GradientColor2ACI
70
0
0
ENDTAB
0
TABLE
2
VPORT
5
1
330
0
100
AcDbSymbolTable
70
1
0
VPORT
5
2
330
1
100
AcDbSymbolTableRecord
100
AcDbViewportTableRecord
2
*Active
70
0
10
0.0
20
0.0
11
1.0
21
1.0
12
0.0
22
0.0
13
0.0
23
0.0
14
0.5
24
0.5
15
10.0
25
10.0
16
0.0
26
0.0
36
1.0
17
0.0
27
0.0
37
0.0
40
10.0
41
1.0
75
0
76
1
0
ENDTAB
0
TABLE
2
LTYPE
5
7
330
0
100
AcDbSymbolTable
70
3
0
LTYPE
5
15
330
7
100
AcDbSymbolTableRecord
100
AcDbLinetypeTableRecord
2
Continuous
70
0
3
Solid line
72
65
73
0
40
0.0
0
LTYPE
5
16
330
7
100
AcDbSymbolTableRecord
100
AcDbLinetypeTableRecord
2
ByLayer
70
0
3

72
65
73
0
40
0.0
0
LTYPE
5
17
330
7
100
AcDbSymbolTableRecord
100
AcDbLinetypeTableRecord
2
ByBlock
70
0
3

72
65
73
0
40
0.0
0
ENDTAB
0
TABLE
2
LAYER
5
5
102
{ACAD_XDICTIONARY
360
6
102
}
330
0
100
AcDbSymbolTable
70
1
0
LAYER
5
14
330
5
100
AcDbSymbolTableRecord
100
AcDbLayerTableRecord
2
0
70
0
62
7
6
Continuous
290
1
370
-3
390
0
0
ENDTAB
0
TABLE
2
STYLE
5
8
330
0
100
AcDbSymbolTable
70
1
0
STYLE
5
18
330
8
100
AcDbSymbolTableRecord
100
AcDbTextStyleTableRecord
2
Standard
3
simplex.shx
70
0
71
0
40
0.0
41
1.0
42
0.0
50
0.0
0
ENDTAB
0
TABLE
2
DIMSTYLE
5
A
330
0
100
AcDbSymbolTable
70
1
100
AcDbDimStyleTable
0
DIMSTYLE
105
1A
330
A
100
AcDbSymbolTableRecord
100
AcDbDimStyleTableRecord
2
Standard
3

4

40
1.0
41
0.18
42
0.0625
43
0.38
44
0.18
45
0.0
46
0.0
47
0.0
48
0.0
49
1.0
70
0
71
0
72
0
73
0
74
0
75
0
76
0
77
0
78
0
79
0
140
0.18
141
0.09
143
25.4
144
1.0
146
1.0
147
0.09
148
0.0
170
0
171
2
172
0
174
0
175
0
176
0
177
0
178
0
179
0
271
4
272
4
273
2
274
2
275
0
276
0
277
2
278
46
279
0
280
0
281
0
282
0
283
1
284
0
285
0
286
0
289
3
290
0
294
0
340
18
173
0
345
17
346
17
347
17
371
-2
372
-2
0
ENDTAB
0
TABLE
2
VIEW
5
3
330
0
100
AcDbSymbolTable
70
0
0
ENDTAB
0
TABLE
2
UCS
5
C
330
0
100
AcDbSymbolTable
70
0
0
ENDTAB
0
TABLE
2
BLOCK_RECORD
5
D
330
0
100
AcDbSymbolTable
70
2
0
BLOCK_RECORD
5
1C
330
D
100
AcDbSymbolTableRecord
100
AcDbBlockTableRecord
2
*Model_Space
340
20
0
BLOCK_RECORD
5
3A
330
D
100
AcDbSymbolTableRecord
100
AcDbBlockTableRecord
2
*Paper_Space
340
3F
0
ENDTAB
0
ENDSEC
0
SECTION
2
BLOCKS
0
BLOCK
5
1E
330
1C
100
AcDbEntity
67
0
8
0
100
AcDbBlockBegin
2
*Model_Space
70
0
10
0.0
20
0.0
30
0.0
3
*Model_Space
4

0
ENDBLK
5
1D
330
1C
100
AcDbEntity
8
0
100
AcDbBlockEnd
0
BLOCK
5
3C
330
3A
100
AcDbEntity
67
1
8
0
100
AcDbBlockBegin
2
*Paper_Space
70
0
10
0.0
20
0.0
30
0.0
3
*Paper_Space
4

0
ENDBLK
5
3B
330
3A
100
AcDbEntity
8
0
100
AcDbBlockEnd
0
ENDSEC
0
SECTION
2
ENTITIES
0
LWPOLYLINE
5
22
330
1C
100
AcDbEntity
67
0
8
0
62
256
6
ByLayer
370
-1
48
1.0
60
0
100
AcDbPolyline
90
32
70
1
38
0.0
39
0.0
10
65.0009994506836
20
68.4151000976562
40
0.0
41
0.0
42
0.0
10
65.0095977783203
20
68.4150009155273
40
0.0
41
0.0
42
0.0
10
65.0675964355469
20
68.4909973144531
40
0.0
41
0.0
42
0.0
10
65.076301574707
20
68.5093002319336
40
0.0
41
0.0
42
0.0
10
65.2144012451172
20
68.984001159668
40
0.0
41
0.0
42
0.0
10
65.2670974731445
20
69.4816970825195
40
0.0
41
0.0
42
0.0
10
65.286003112793
20
69.7857971191406
40
0.0
41
0.0
42
0.0
10
65.2901000976562
20
69.980598449707
40
0.0
41
0.0
42
0.0
10
65.3023986816406
20
70.285400390625
40
0.0
41
0.0
42
0.0
10
65.3022994995117
20
70.3245010375977
40
0.0
41
0.0
42
0.0
10
65.2938995361328
20
70.5195007324219
40
0.0
41
0.0
42
0.0
10
65.2929992675781
20
70.8233032226562
40
0.0
41
0.0
42
0.0
10
65.2629013061523
20
71.0169982910156
40
0.0
41
0.0
42
0.0
10
65.2256011962891
20
71.3198013305664
40
0.0
41
0.0
42
0.0
10
65.1508026123047
20
71.5112991333008
40
0.0
41
0.0
42
0.0
10
65.0071029663086
20
71.7946014404297
40
0.0
41
0.0
42
0.0
10
65.0009994506836
20
71.7946014404297
40
0.0
41
0.0
42
0.0
10
65.0009002685547
20
71.7154006958008
40
0.0
41
0.0
42
0.0
10
65.116096496582
20
71.4885025024414
40
0.0
41
0.0
42
0.0
10
65.209098815918
20
71.2500991821289
40
0.0
41
0.0
42
0.0
10
65.2421035766602
20
70.9828033447266
40
0.0
41
0.0
42
0.0
10
65.2787017822266
20
70.7465972900391
40
0.0
41
0.0
42
0.0
10
65.2795028686523
20
70.4804000854492
40
0.0
41
0.0
42
0.0
10
65.2890014648438
20
70.2640991210938
40
0.0
41
0.0
42
0.0
10
65.2790985107422
20
70.0193023681641
40
0.0
41
0.0
42
0.0
10
65.2740020751953
20
69.7841033935547
40
0.0
41
0.0
42
0.0
10
65.2574996948242
20
69.5182037353516
40
0.0
41
0.0
42
0.0
10
65.2046966552734
20
69.0158996582031
40
0.0
41
0.0
42
0.0
10
65.065803527832
20
68.5390014648438
40
0.0
41
0.0
42
0.0
10
65.0514984130859
20
68.5090026855469
40
0.0
41
0.0
42
0.0
10
65.0009994506836
20
68.4427032470703
40
0.0
41
0.0
42
0.0
10
65.0009994506836
20
68.4151000976562
40
0.0
41
0.0
42
0.0
210
0.0
220
0.0
230
1.0
0
LWPOLYLINE
5
23
330
1C
100
AcDbEntity
67
0
8
0
62
256
6
ByLayer
370
-1
48
1.0
60
0
100
AcDbPolyline
90
46
70
1
38
0.0
39
0.0
10
65.0009994506836
20
78.7502975463867
40
0.0
41
0.0
42
0.0
10
65.0113983154297
20
78.7502975463867
40
0.0
41
0.0
42
0.0
10
65.2387008666992
20
78.9738998413086
40
0.0
41
0.0
42
0.0
10
65.2546005249023
20
78.9922027587891
40
0.0
41
0.0
42
0.0
10
65.4744033813477
20
79.3719024658203
40
0.0
41
0.0
42
0.0
10
65.5027008056641
20
79.4140014648438
40
0.0
41
0.0
42
0.0
10
65.5588989257812
20
79.4906005859375
40
0.0
41
0.0
42
0.0
10
65.6456985473633
20
79.684196472168
40
0.0
41
0.0
42
0.0
10
65.7344970703125
20
79.9849014282227
40
0.0
41
0.0
42
0.0
10
65.7706985473633
20
80.1782989501953
40
0.0
41
0.0
42
0.0
10
65.8128967285156
20
80.4823989868164
40
0.0
41
0.0
42
0.0
10
65.8599014282227
20
80.9816970825195
40
0.0
41
0.0
42
0.0
10
65.8855972290039
20
81.3255004882812
40
0.0
41
0.0
42
0.0
10
65.8890991210938
20
81.480598449707
40
0.0
41
0.0
42
0.0
10
65.9018020629883
20
81.8426971435547
40
0.0
41
0.0
42
0.0
10
65.9017028808594
20
81.8813018798828
40
0.0
41
0.0
42
0.0
10
65.888298034668
20
82.0143966674805
40
0.0
41
0.0
42
0.0
10
65.7969970703125
20
82.2164001464844
40
0.0
41
0.0
42
0.0
10
65.7510986328125
20
82.5130004882812
40
0.0
41
0.0
42
0.0
10
65.7370986938477
20
82.5382995605469
40
0.0
41
0.0
42
0.0
10
65.5130004882812
20
82.6759033203125
40
0.0
41
0.0
42
0.0
10
65.2851028442383
20
82.7005996704102
40
0.0
41
0.0
42
0.0
10
65.2485961914062
20
82.7005004882812
40
0.0
41
0.0
42
0.0
10
65.0009994506836
20
82.6456985473633
40
0.0
41
0.0
42
0.0
10
65.0008010864258
20
82.6177978515625
40
0.0
41
0.0
42
0.0
10
65.0177001953125
20
82.6178970336914
40
0.0
41
0.0
42
0.0
10
65.2238998413086
20
82.6633987426758
40
0.0
41
0.0
42
0.0
10
65.4869003295898
20
82.6350021362305
40
0.0
41
0.0
42
0.0
10
65.6735992431641
20
82.5205001831055
40
0.0
41
0.0
42
0.0
10
65.6923980712891
20
82.4869003295898
40
0.0
41
0.0
42
0.0
10
65.7276000976562
20
82.2584991455078
40
0.0
41
0.0
42
0.0
10
65.8510971069336
20
81.9853973388672
40
0.0
41
0.0
42
0.0
10
65.8691024780273
20
81.8058013916016
40
0.0
41
0.0
42
0.0
10
65.8591003417969
20
81.5193023681641
40
0.0
41
0.0
42
0.0
10
65.8545989990234
20
81.3181991577148
40
0.0
41
0.0
42
0.0
10
65.8321990966797
20
81.0182037353516
40
0.0
41
0.0
42
0.0
10
65.7853012084961
20
80.5175018310547
40
0.0
41
0.0
42
0.0
10
65.7482986450195
20
80.2516021728516
40
0.0
41
0.0
42
0.0
10
65.7041015625
20
80.0149993896484
40
0.0
41
0.0
42
0.0
10
65.6257019042969
20
79.75
40
0.0
41
0.0
42
0.0
10
65.5178985595703
20
79.5094985961914
40
0.0
41
0.0
42
0.0
10
65.4879989624023
20
79.4674987792969
40
0.0
41
0.0
42
0.0
10
65.2219009399414
20
79.0075988769531
40
0.0
41
0.0
42
0.0
10
65.198600769043
20
78.9810028076172
40
0.0
41
0.0
42
0.0
10
65.0009994506836
20
78.7864990234375
40
0.0
41
0.0
42
0.0
10
65.0009994506836
20
78.7502975463867
40
0.0
41
0.0
42
0.0
210
0.0
220
0.0
230
1.0
0
LWPOLYLINE
5
24
330
1C
100
AcDbEntity
67
0
8
0
62
256
6
ByLayer
370
-1
48
1.0
60
0
100
AcDbPolyline
90
618
70
1
38
0.0
39
0.0
10
66.9282989501953
20
71.4947967529297
40
0.0
41
0.0
42
0.0
10
66.9932022094727
20
71.4487991333008
40
0.0
41
0.0
42
0.0
10
67.0290985107422
20
71.4157028198242
40
0.0
41
0.0
42
0.0
10
67.1875
20
71.2874984741211
40
0.0
41
0.0
42
0.0
10
67.4912033081055
20
71.0777969360352
40
0.0
41
0.0
42
0.0
10
67.6280975341797
20
70.9983978271484
40
0.0
41
0.0
42
0.0
10
67.907600402832
20
70.8570022583008
40
0.0
41
0.0
42
0.0
10
67.9876022338867
20
70.8181991577148
40
0.0
41
0.0
42
0.0
10
68.1819000244141
20
70.7601013183594
40
0.0
41
0.0
42
0.0
10
68.4841003417969
20
70.6369018554688
40
0.0
41
0.0
42
0.0
10
68.678596496582
20
70.6352005004883
40
0.0
41
0.0
42
0.0
10
68.9835968017578
20
70.527099609375
40
0.0
41
0.0
42
0.0
10
69.0133972167969
20
70.5270004272461
40
0.0
41
0.0
42
0.0
10
69.0960006713867
20
70.5835037231445
40
0.0
41
0.0
42
0.0
10
69.5150985717773
20
70.5944976806641
40
0.0
41
0.0
42
0.0
10
69.7771987915039
20
70.7151031494141
40
0.0
41
0.0
42
0.0
10
69.777099609375
20
70.7396011352539
40
0.0
41
0.0
42
0.0
10
69.7418975830078
20
70.9231033325195
40
0.0
41
0.0
42
0.0
10
69.7248001098633
20
70.9954986572266
40
0.0
41
0.0
42
0.0
10
69.8165969848633
20
71.1810989379883
40
0.0
41
0.0
42
0.0
10
69.8546981811523
20
71.4848022460938
40
0.0
41
0.0
42
0.0
10
70.032096862793
20
71.9893035888672
40
0.0
41
0.0
42
0.0
10
70.0921020507812
20
72.0810012817383
40
0.0
41
0.0
42
0.0
10
70.3253021240234
20
72.4922027587891
40
0.0
41
0.0
42
0.0
10
70.5093002319336
20
72.7018966674805
40
0.0
41
0.0
42
0.0
10
70.7492980957031
20
72.736198425293
40
0.0
41
0.0
42
0.0
10
70.782096862793
20
72.7531967163086
40
0.0
41
0.0
42
0.0
10
71.0083999633789
20
72.8846969604492
40
0.0
41
0.0
42
0.0
10
71.1812973022461
20
72.8629989624023
40
0.0
41
0.0
42
0.0
10
71.2182006835938
20
72.8628997802734
40
0.0
41
0.0
42
0.0
10
71.5017013549805
20
72.9089965820312
40
0.0
41
0.0
42
0.0
10
71.6762008666992
20
72.8877029418945
40
0.0
41
0.0
42
0.0
10
71.7145004272461
20
72.8876037597656
40
0.0
41
0.0
42
0.0
10
71.9876022338867
20
72.8991012573242
40
0.0
41
0.0
42
0.0
10
72.1803970336914
20
72.8432998657227
40
0.0
41
0.0
42
0.0
10
72.4935989379883
20
72.7637023925781
40
0.0
41
0.0
42
0.0
10
72.5671997070312
20
72.6379013061523
40
0.0
41
0.0
42
0.0
10
72.6137008666992
20
72.4839019775391
40
0.0
41
0.0
42
0.0
10
72.6286010742188
20
72.3079986572266
40
0.0
41
0.0
42
0.0
10
72.5941009521484
20
72.0186996459961
40
0.0
41
0.0
42
0.0
10
72.5940017700195
20
71.9806976318359
40
0.0
41
0.0
42
0.0
10
72.6059036254883
20
71.8134994506836
40
0.0
41
0.0
42
0.0
10
72.5427017211914
20
71.5158004760742
40
0.0
41
0.0
42
0.0
10
72.5005035400391
20
71.2938995361328
40
0.0
41
0.0
42
0.0
10
72.4676971435547
20
71.1545028686523
40
0.0
41
0.0
42
0.0
10
72.3939971923828
20
71.0077972412109
40
0.0
41
0.0
42
0.0
10
72.0250015258789
20
70.6166000366211
40
0.0
41
0.0
42
0.0
10
71.992301940918
20
70.5848999023438
40
0.0
41
0.0
42
0.0
10
71.8295974731445
20
70.5009994506836
40
0.0
41
0.0
42
0.0
10
71.6280975341797
20
70.4078979492188
40
0.0
41
0.0
42
0.0
10
71.4853973388672
20
70.3628997802734
40
0.0
41
0.0
42
0.0
10
71.2241973876953
20
70.3044967651367
40
0.0
41
0.0
42
0.0
10
71.1585998535156
20
70.2876968383789
40
0.0
41
0.0
42
0.0
10
70.9853973388672
20
70.2381973266602
40
0.0
41
0.0
42
0.0
10
70.6475982666016
20
70.1546020507812
40
0.0
41
0.0
42
0.0
10
70.5130004882812
20
70.1501998901367
40
0.0
41
0.0
42
0.0
10
70.3197021484375
20
70.1967010498047
40
0.0
41
0.0
42
0.0
10
70.2907028198242
20
70.1966018676758
40
0.0
41
0.0
42
0.0
10
70.0959014892578
20
70.0065002441406
40
0.0
41
0.0
42
0.0
10
69.9987030029297
20
69.8592987060547
40
0.0
41
0.0
42
0.0
10
69.9115982055664
20
69.6264038085938
40
0.0
41
0.0
42
0.0
10
69.9113998413086
20
69.5932006835938
40
0.0
41
0.0
42
0.0
10
69.9428024291992
20
69.4837036132812
40
0.0
41
0.0
42
0.0
10
69.9807968139648
20
69.0210037231445
40
0.0
41
0.0
42
0.0
10
69.9887008666992
20
68.9850006103516
40
0.0
41
0.0
42
0.0
10
70.0
20
68.9443969726562
40
0.0
41
0.0
42
0.0
10
70.090202331543
20
68.6679000854492
40
0.0
41
0.0
42
0.0
10
70.1169967651367
20
68.4852981567383
40
0.0
41
0.0
42
0.0
10
70.2332992553711
20
68.1821975708008
40
0.0
41
0.0
42
0.0
10
70.3010025024414
20
67.9881973266602
40
0.0
41
0.0
42
0.0
10
70.4568023681641
20
67.6850967407227
40
0.0
41
0.0
42
0.0
10
70.497802734375
20
67.6164016723633
40
0.0
41
0.0
42
0.0
10
70.5765991210938
20
67.4924011230469
40
0.0
41
0.0
42
0.0
10
70.6248016357422
20
67.4357986450195
40
0.0
41
0.0
42
0.0
10
70.9928970336914
20
67.0541000366211
40
0.0
41
0.0
42
0.0
10
71.0942993164062
20
66.9974975585938
40
0.0
41
0.0
42
0.0
10
71.1846008300781
20
66.9281997680664
40
0.0
41
0.0
42
0.0
10
71.4843978881836
20
66.8392028808594
40
0.0
41
0.0
42
0.0
10
71.676399230957
20
66.8125991821289
40
0.0
41
0.0
42
0.0
10
71.7144012451172
20
66.8125
40
0.0
41
0.0
42
0.0
10
72.0178985595703
20
66.8280029296875
40
0.0
41
0.0
42
0.0
10
72.2111968994141
20
66.8563003540039
40
0.0
41
0.0
42
0.0
10
72.5142974853516
20
66.9233016967773
40
0.0
41
0.0
42
0.0
10
72.7397994995117
20
66.9994964599609
40
0.0
41
0.0
42
0.0
10
72.9347991943359
20
67.0707015991211
40
0.0
41
0.0
42
0.0
10
73.0112991333008
20
67.0970001220703
40
0.0
41
0.0
42
0.0
10
73.2054977416992
20
67.2077026367188
40
0.0
41
0.0
42
0.0
10
73.8152008056641
20
67.4802017211914
40
0.0
41
0.0
42
0.0
10
73.8398971557617
20
67.4953002929688
40
0.0
41
0.0
42
0.0
10
74.0042037963867
20
67.7600021362305
40
0.0
41
0.0
42
0.0
10
74.3142013549805
20
67.9905014038086
40
0.0
41
0.0
42
0.0
10
74.3141021728516
20
68.0152969360352
40
0.0
41
0.0
42
0.0
10
74.1580963134766
20
68.3535003662109
40
0.0
41
0.0
42
0.0
10
74.081901550293
20
68.5072021484375
40
0.0
41
0.0
42
0.0
10
74.002799987793
20
68.581298828125
40
0.0
41
0.0
42
0.0
10
73.9100036621094
20
68.7642974853516
40
0.0
41
0.0
42
0.0
10
73.6475982666016
20
69.3161010742188
40
0.0
41
0.0
42
0.0
10
73.5593032836914
20
69.5133972167969
40
0.0
41
0.0
42
0.0
10
73.499397277832
20
69.7919006347656
40
0.0
41
0.0
42
0.0
10
73.4661026000977
20
69.9343032836914
40
0.0
41
0.0
42
0.0
10
73.4412994384766
20
70.0022964477539
40
0.0
41
0.0
42
0.0
10
73.499397277832
20
70.2247009277344
40
0.0
41
0.0
42
0.0
10
73.5254974365234
20
70.3621978759766
40
0.0
41
0.0
42
0.0
10
73.5458984375
20
70.4889984130859
40
0.0
41
0.0
42
0.0
10
73.7116012573242
20
70.6875991821289
40
0.0
41
0.0
42
0.0
10
73.9216003417969
20
70.9957962036133
40
0.0
41
0.0
42
0.0
10
74.0086975097656
20
71.0456008911133
40
0.0
41
0.0
42
0.0
10
74.0222015380859
20
71.0550003051758
40
0.0
41
0.0
42
0.0
10
74.1845016479492
20
71.1901016235352
40
0.0
41
0.0
42
0.0
10
74.4580993652344
20
71.4949035644531
40
0.0
41
0.0
42
0.0
10
74.4877014160156
20
71.5205993652344
40
0.0
41
0.0
42
0.0
10
74.5067977905273
20
71.549201965332
40
0.0
41
0.0
42
0.0
10
74.7102966308594
20
71.6064987182617
40
0.0
41
0.0
42
0.0
10
74.9931030273438
20
71.6572036743164
40
0.0
41
0.0
42
0.0
10
75.0836029052734
20
71.5717010498047
40
0.0
41
0.0
42
0.0
10
75.1222991943359
20
71.4907989501953
40
0.0
41
0.0
42
0.0
10
75.3466033935547
20
71.1894989013672
40
0.0
41
0.0
42
0.0
10
75.5833969116211
20
70.9947967529297
40
0.0
41
0.0
42
0.0
10
75.6324005126953
20
70.9355010986328
40
0.0
41
0.0
42
0.0
10
75.8675994873047
20
70.5939025878906
40
0.0
41
0.0
42
0.0
10
75.9309997558594
20
70.4876022338867
40
0.0
41
0.0
42
0.0
10
76.0002975463867
20
70.1470031738281
40
0.0
41
0.0
42
0.0
10
76.0448989868164
20
69.9994964599609
40
0.0
41
0.0
42
0.0
10
76.0002975463867
20
69.8413009643555
40
0.0
41
0.0
42
0.0
10
75.9555969238281
20
69.6351013183594
40
0.0
41
0.0
42
0.0
10
75.9229965209961
20
69.5121994018555
40
0.0
41
0.0
42
0.0
10
75.831298828125
20
69.342903137207
40
0.0
41
0.0
42
0.0
10
75.6572036743164
20
69.0096969604492
40
0.0
41
0.0
42
0.0
10
75.4970016479492
20
68.7434005737305
40
0.0
41
0.0
42
0.0
10
75.2929000854492
20
68.5082015991211
40
0.0
41
0.0
42
0.0
10
75.0453033447266
20
68.0149993896484
40
0.0
41
0.0
42
0.0
10
75.0450973510742
20
67.9860000610352
40
0.0
41
0.0
42
0.0
10
75.2182998657227
20
67.7097015380859
40
0.0
41
0.0
42
0.0
10
75.3153991699219
20
67.4945983886719
40
0.0
41
0.0
42
0.0
10
75.4915008544922
20
67.3908004760742
40
0.0
41
0.0
42
0.0
10
75.8775024414062
20
67.1115036010742
40
0.0
41
0.0
42
0.0
10
75.9921035766602
20
67.0263977050781
40
0.0
41
0.0
42
0.0
10
76.0333023071289
20
66.9980010986328
40
0.0
41
0.0
42
0.0
10
76.184196472168
20
66.9213027954102
40
0.0
41
0.0
42
0.0
10
76.4881973266602
20
66.7771987915039
40
0.0
41
0.0
42
0.0
10
76.6819000244141
20
66.7039031982422
40
0.0
41
0.0
42
0.0
10
76.9847030639648
20
66.6044998168945
40
0.0
41
0.0
42
0.0
10
77.4039001464844
20
66.5458984375
40
0.0
41
0.0
42
0.0
10
77.4815979003906
20
66.5334014892578
40
0.0
41
0.0
42
0.0
10
77.5185012817383
20
66.5334014892578
40
0.0
41
0.0
42
0.0
10
78.0127029418945
20
66.6006011962891
40
0.0
41
0.0
42
0.0
10
78.1463012695312
20
66.6828002929688
40
0.0
41
0.0
42
0.0
10
78.1660995483398
20
66.6929016113281
40
0.0
41
0.0
42
0.0
10
78.3348999023438
20
66.8164978027344
40
0.0
41
0.0
42
0.0
10
78.5050964355469
20
66.9282989501953
40
0.0
41
0.0
42
0.0
10
78.5510025024414
20
66.9932022094727
40
0.0
41
0.0
42
0.0
10
78.5839996337891
20
67.0290985107422
40
0.0
41
0.0
42
0.0
10
78.7121963500977
20
67.1875
40
0.0
41
0.0
42
0.0
10
78.9219970703125
20
67.4912033081055
40
0.0
41
0.0
42
0.0
10
79.0015029907227
20
67.6281967163086
40
0.0
41
0.0
42
0.0
10
79.1427993774414
20
67.9076995849609
40
0.0
41
0.0
42
0.0
10
79.181999206543
20
67.9885025024414
40
0.0
41
0.0
42
0.0
10
79.3057022094727
20
68.2919998168945
40
0.0
41
0.0
42
0.0
10
79.3628005981445
20
68.4831008911133
40
0.0
41
0.0
42
0.0
10
79.364501953125
20
68.6787033081055
40
0.0
41
0.0
42
0.0
10
79.4728012084961
20
68.9835968017578
40
0.0
41
0.0
42
0.0
10
79.4727020263672
20
69.0133972167969
40
0.0
41
0.0
42
0.0
10
79.4161987304688
20
69.0960006713867
40
0.0
41
0.0
42
0.0
10
79.4051971435547
20
69.5150985717773
40
0.0
41
0.0
42
0.0
10
79.2846984863281
20
69.7771987915039
40
0.0
41
0.0
42
0.0
10
79.2601013183594
20
69.777099609375
40
0.0
41
0.0
42
0.0
10
79.0767974853516
20
69.7419967651367
40
0.0
41
0.0
42
0.0
10
79.0054016113281
20
69.7248992919922
40
0.0
41
0.0
42
0.0
10
78.9241027832031
20
69.7782974243164
40
0.0
41
0.0
42
0.0
10
78.8197021484375
20
69.8165969848633
40
0.0
41
0.0
42
0.0
10
78.6427001953125
20
69.8436965942383
40
0.0
41
0.0
42
0.0
10
78.5155029296875
20
69.8545989990234
40
0.0
41
0.0
42
0.0
10
78.0105972290039
20
70.032096862793
40
0.0
41
0.0
42
0.0
10
77.9188003540039
20
70.0921020507812
40
0.0
41
0.0
42
0.0
10
77.507698059082
20
70.3252029418945
40
0.0
41
0.0
42
0.0
10
77.2977981567383
20
70.5093002319336
40
0.0
41
0.0
42
0.0
10
77.2637023925781
20
70.7492980957031
40
0.0
41
0.0
42
0.0
10
77.2464981079102
20
70.782096862793
40
0.0
41
0.0
42
0.0
10
77.1149978637695
20
71.0083999633789
40
0.0
41
0.0
42
0.0
10
77.1369018554688
20
71.1812973022461
40
0.0
41
0.0
42
0.0
10
77.1368026733398
20
71.2181015014648
40
0.0
41
0.0
42
0.0
10
77.0906982421875
20
71.5017013549805
40
0.0
41
0.0
42
0.0
10
77.1121978759766
20
71.6762008666992
40
0.0
41
0.0
42
0.0
10
77.1120986938477
20
71.7145004272461
40
0.0
41
0.0
42
0.0
10
77.1006011962891
20
71.9877014160156
40
0.0
41
0.0
42
0.0
10
77.1775970458984
20
72.2904968261719
40
0.0
41
0.0
42
0.0
10
77.2365036010742
20
72.493896484375
40
0.0
41
0.0
42
0.0
10
77.3619003295898
20
72.5671997070312
40
0.0
41
0.0
42
0.0
10
77.515998840332
20
72.6137008666992
40
0.0
41
0.0
42
0.0
10
77.6919021606445
20
72.6286010742188
40
0.0
41
0.0
42
0.0
10
77.981201171875
20
72.5941009521484
40
0.0
41
0.0
42
0.0
10
78.0192031860352
20
72.5940017700195
40
0.0
41
0.0
42
0.0
10
78.1864013671875
20
72.6059036254883
40
0.0
41
0.0
42
0.0
10
78.4841003417969
20
72.5427017211914
40
0.0
41
0.0
42
0.0
10
78.7060012817383
20
72.5005035400391
40
0.0
41
0.0
42
0.0
10
78.8451995849609
20
72.4676971435547
40
0.0
41
0.0
42
0.0
10
78.9921035766602
20
72.3939971923828
40
0.0
41
0.0
42
0.0
10
79.38330078125
20
72.0250015258789
40
0.0
41
0.0
42
0.0
10
79.4148025512695
20
71.992301940918
40
0.0
41
0.0
42
0.0
10
79.4988021850586
20
71.8294982910156
40
0.0
41
0.0
42
0.0
10
79.591796875
20
71.6279983520508
40
0.0
41
0.0
42
0.0
10
79.6367034912109
20
71.4858016967773
40
0.0
41
0.0
42
0.0
10
79.6876983642578
20
71.2976989746094
40
0.0
41
0.0
42
0.0
10
79.7477035522461
20
71.0394973754883
40
0.0
41
0.0
42
0.0
10
79.845100402832
20
70.6476974487305
40
0.0
41
0.0
42
0.0
10
79.8496017456055
20
70.5130004882812
40
0.0
41
0.0
42
0.0
10
79.8031997680664
20
70.3197021484375
40
0.0
41
0.0
42
0.0
10
79.8031005859375
20
70.2907028198242
40
0.0
41
0.0
42
0.0
10
79.9934005737305
20
70.0959014892578
40
0.0
41
0.0
42
0.0
10
80.1405029296875
20
69.9987030029297
40
0.0
41
0.0
42
0.0
10
80.3733978271484
20
69.9115982055664
40
0.0
41
0.0
42
0.0
10
80.4066009521484
20
69.9114990234375
40
0.0
41
0.0
42
0.0
10
80.5161972045898
20
69.9428024291992
40
0.0
41
0.0
42
0.0
10
80.9787979125977
20
69.9809036254883
40
0.0
41
0.0
42
0.0
10
81.0149002075195
20
69.9887008666992
40
0.0
41
0.0
42
0.0
10
81.0553970336914
20
70.0
40
0.0
41
0.0
42
0.0
10
81.331901550293
20
70.090202331543
40
0.0
41
0.0
42
0.0
10
81.5146026611328
20
70.1169967651367
40
0.0
41
0.0
42
0.0
10
81.8177032470703
20
70.2333984375
40
0.0
41
0.0
42
0.0
10
82.0117034912109
20
70.3010025024414
40
0.0
41
0.0
42
0.0
10
82.3147964477539
20
70.4568023681641
40
0.0
41
0.0
42
0.0
10
82.38330078125
20
70.497802734375
40
0.0
41
0.0
42
0.0
10
82.5074996948242
20
70.5766983032227
40
0.0
41
0.0
42
0.0
10
82.5654983520508
20
70.6260986328125
40
0.0
41
0.0
42
0.0
10
82.665397644043
20
70.6911010742188
40
0.0
41
0.0
42
0.0
10
82.9452972412109
20
70.9924011230469
40
0.0
41
0.0
42
0.0
10
83.0024032592773
20
71.0942993164062
40
0.0
41
0.0
42
0.0
10
83.0715026855469
20
71.184700012207
40
0.0
41
0.0
42
0.0
10
83.1602020263672
20
71.4830017089844
40
0.0
41
0.0
42
0.0
10
83.1601028442383
20
71.519401550293
40
0.0
41
0.0
42
0.0
10
83.1458969116211
20
71.7966995239258
40
0.0
41
0.0
42
0.0
10
83.1716995239258
20
71.9813995361328
40
0.0
41
0.0
42
0.0
10
83.171501159668
20
72.0176010131836
40
0.0
41
0.0
42
0.0
10
83.1044998168945
20
72.3211975097656
40
0.0
41
0.0
42
0.0
10
83.0761032104492
20
72.5149993896484
40
0.0
41
0.0
42
0.0
10
83.0
20
72.7405014038086
40
0.0
41
0.0
42
0.0
10
82.9290008544922
20
72.934700012207
40
0.0
41
0.0
42
0.0
10
82.9023971557617
20
73.0122985839844
40
0.0
41
0.0
42
0.0
10
82.7677001953125
20
73.3153991699219
40
0.0
41
0.0
42
0.0
10
82.6565017700195
20
73.5103988647461
40
0.0
41
0.0
42
0.0
10
82.5195999145508
20
73.8151016235352
40
0.0
41
0.0
42
0.0
10
82.5046005249023
20
73.8398971557617
40
0.0
41
0.0
42
0.0
10
82.2397003173828
20
74.0042037963867
40
0.0
41
0.0
42
0.0
10
82.0093994140625
20
74.3142013549805
40
0.0
41
0.0
42
0.0
10
81.9845962524414
20
74.3142013549805
40
0.0
41
0.0
42
0.0
10
81.6462020874023
20
74.1580963134766
40
0.0
41
0.0
42
0.0
10
81.4926986694336
20
74.081901550293
40
0.0
41
0.0
42
0.0
10
81.4184036254883
20
74.0028991699219
40
0.0
41
0.0
42
0.0
10
81.2354965209961
20
73.9101028442383
40
0.0
41
0.0
42
0.0
10
80.6837997436523
20
73.6476974487305
40
0.0
41
0.0
42
0.0
10
80.4865036010742
20
73.5593032836914
40
0.0
41
0.0
42
0.0
10
80.2079010009766
20
73.499397277832
40
0.0
41
0.0
42
0.0
10
80.0654983520508
20
73.4661026000977
40
0.0
41
0.0
42
0.0
10
79.9975967407227
20
73.4412994384766
40
0.0
41
0.0
42
0.0
10
79.7751007080078
20
73.499397277832
40
0.0
41
0.0
42
0.0
10
79.6376037597656
20
73.5254974365234
40
0.0
41
0.0
42
0.0
10
79.5117034912109
20
73.5457000732422
40
0.0
41
0.0
42
0.0
10
79.4095001220703
20
73.6187973022461
40
0.0
41
0.0
42
0.0
10
79.3117980957031
20
73.711799621582
40
0.0
41
0.0
42
0.0
10
79.0273971557617
20
73.9013977050781
40
0.0
41
0.0
42
0.0
10
79.0034027099609
20
73.9227981567383
40
0.0
41
0.0
42
0.0
10
78.9541015625
20
74.0086975097656
40
0.0
41
0.0
42
0.0
10
78.9447021484375
20
74.0222015380859
40
0.0
41
0.0
42
0.0
10
78.809700012207
20
74.1845016479492
40
0.0
41
0.0
42
0.0
10
78.5048980712891
20
74.4580001831055
40
0.0
41
0.0
42
0.0
10
78.4791030883789
20
74.4877014160156
40
0.0
41
0.0
42
0.0
10
78.4495010375977
20
74.5074005126953
40
0.0
41
0.0
42
0.0
10
78.3934020996094
20
74.820198059082
40
0.0
41
0.0
42
0.0
10
78.3442993164062
20
74.9949035644531
40
0.0
41
0.0
42
0.0
10
78.4281997680664
20
75.0835037231445
40
0.0
41
0.0
42
0.0
10
78.5090026855469
20
75.1222991943359
40
0.0
41
0.0
42
0.0
10
78.810302734375
20
75.3467025756836
40
0.0
41
0.0
42
0.0
10
79.0050964355469
20
75.5833969116211
40
0.0
41
0.0
42
0.0
10
79.0643997192383
20
75.6324996948242
40
0.0
41
0.0
42
0.0
10
79.1539993286133
20
75.6922988891602
40
0.0
41
0.0
42
0.0
10
79.4058990478516
20
75.8675994873047
40
0.0
41
0.0
42
0.0
10
79.5122985839844
20
75.9309997558594
40
0.0
41
0.0
42
0.0
10
79.8527984619141
20
76.0002975463867
40
0.0
41
0.0
42
0.0
10
80.0003967285156
20
76.0448989868164
40
0.0
41
0.0
42
0.0
10
80.1585006713867
20
76.0002975463867
40
0.0
41
0.0
42
0.0
10
80.3647003173828
20
75.9555969238281
40
0.0
41
0.0
42
0.0
10
80.4877014160156
20
75.9229965209961
40
0.0
41
0.0
42
0.0
10
80.6568984985352
20
75.831298828125
40
0.0
41
0.0
42
0.0
10
80.9901962280273
20
75.6572036743164
40
0.0
41
0.0
42
0.0
10
81.2564010620117
20
75.4969024658203
40
0.0
41
0.0
42
0.0
10
81.4916000366211
20
75.2929000854492
40
0.0
41
0.0
42
0.0
10
81.6880035400391
20
75.1973037719727
40
0.0
41
0.0
42
0.0
10
81.9850006103516
20
75.0453033447266
40
0.0
41
0.0
42
0.0
10
82.0149002075195
20
75.0451965332031
40
0.0
41
0.0
42
0.0
10
82.0998992919922
20
75.0883026123047
40
0.0
41
0.0
42
0.0
10
82.5047988891602
20
75.3145980834961
40
0.0
41
0.0
42
0.0
10
82.6091003417969
20
75.4917984008789
40
0.0
41
0.0
42
0.0
10
82.7595977783203
20
75.6874008178711
40
0.0
41
0.0
42
0.0
10
83.0018997192383
20
76.0334014892578
40
0.0
41
0.0
42
0.0
10
83.0783996582031
20
76.184196472168
40
0.0
41
0.0
42
0.0
10
83.2225036621094
20
76.4881973266602
40
0.0
41
0.0
42
0.0
10
83.2957992553711
20
76.681999206543
40
0.0
41
0.0
42
0.0
10
83.3952026367188
20
76.9847030639648
40
0.0
41
0.0
42
0.0
10
83.4537963867188
20
77.4039001464844
40
0.0
41
0.0
42
0.0
10
83.4664993286133
20
77.4815979003906
40
0.0
41
0.0
42
0.0
10
83.4663009643555
20
77.5185012817383
40
0.0
41
0.0
42
0.0
10
83.3989028930664
20
78.0140991210938
40
0.0
41
0.0
42
0.0
10
83.3949966430664
20
78.0229034423828
40
0.0
41
0.0
42
0.0
10
83.3071975708008
20
78.1658020019531
40
0.0
41
0.0
42
0.0
10
83.1162033081055
20
78.456298828125
40
0.0
41
0.0
42
0.0
10
83.0727996826172
20
78.5040969848633
40
0.0
41
0.0
42
0.0
10
83.0066986083984
20
78.5509033203125
40
0.0
41
0.0
42
0.0
10
82.970703125
20
78.5839996337891
40
0.0
41
0.0
42
0.0
10
82.8123016357422
20
78.7121963500977
40
0.0
41
0.0
42
0.0
10
82.5086975097656
20
78.9218978881836
40
0.0
41
0.0
42
0.0
10
82.3715972900391
20
79.0014038085938
40
0.0
41
0.0
42
0.0
10
82.0921020507812
20
79.1427001953125
40
0.0
41
0.0
42
0.0
10
82.0112991333008
20
79.181999206543
40
0.0
41
0.0
42
0.0
10
81.7079010009766
20
79.3056030273438
40
0.0
41
0.0
42
0.0
10
81.5167999267578
20
79.3628005981445
40
0.0
41
0.0
42
0.0
10
81.3211975097656
20
79.3644027709961
40
0.0
41
0.0
42
0.0
10
81.0162963867188
20
79.4728012084961
40
0.0
41
0.0
42
0.0
10
80.9865036010742
20
79.4727020263672
40
0.0
41
0.0
42
0.0
10
80.9038009643555
20
79.4161987304688
40
0.0
41
0.0
42
0.0
10
80.4848022460938
20
79.4052963256836
40
0.0
41
0.0
42
0.0
10
80.2227020263672
20
79.2846984863281
40
0.0
41
0.0
42
0.0
10
80.2226028442383
20
79.2601013183594
40
0.0
41
0.0
42
0.0
10
80.257698059082
20
79.0767974853516
40
0.0
41
0.0
42
0.0
10
80.2748031616211
20
79.0054016113281
40
0.0
41
0.0
42
0.0
10
80.2213973999023
20
78.9241027832031
40
0.0
41
0.0
42
0.0
10
80.1830978393555
20
78.8197021484375
40
0.0
41
0.0
42
0.0
10
80.1560974121094
20
78.6427001953125
40
0.0
41
0.0
42
0.0
10
80.1451034545898
20
78.5155029296875
40
0.0
41
0.0
42
0.0
10
79.9676971435547
20
78.0105972290039
40
0.0
41
0.0
42
0.0
10
79.9076995849609
20
77.9188003540039
40
0.0
41
0.0
42
0.0
10
79.6744995117188
20
77.507698059082
40
0.0
41
0.0
42
0.0
10
79.4906005859375
20
77.2978973388672
40
0.0
41
0.0
42
0.0
10
79.250602722168
20
77.2637023925781
40
0.0
41
0.0
42
0.0
10
79.2176971435547
20
77.2465972900391
40
0.0
41
0.0
42
0.0
10
78.9915008544922
20
77.1149978637695
40
0.0
41
0.0
42
0.0
10
78.8184967041016
20
77.1369018554688
40
0.0
41
0.0
42
0.0
10
78.7817001342773
20
77.1368026733398
40
0.0
41
0.0
42
0.0
10
78.4981002807617
20
77.0906982421875
40
0.0
41
0.0
42
0.0
10
78.3236999511719
20
77.1121978759766
40
0.0
41
0.0
42
0.0
10
78.285400390625
20
77.1120986938477
40
0.0
41
0.0
42
0.0
10
78.0121994018555
20
77.1006011962891
40
0.0
41
0.0
42
0.0
10
77.7093963623047
20
77.1774978637695
40
0.0
41
0.0
42
0.0
10
77.5059967041016
20
77.2363967895508
40
0.0
41
0.0
42
0.0
10
77.4326019287109
20
77.3618011474609
40
0.0
41
0.0
42
0.0
10
77.388801574707
20
77.5067977905273
40
0.0
41
0.0
42
0.0
10
77.4224014282227
20
77.7862014770508
40
0.0
41
0.0
42
0.0
10
77.4223022460938
20
77.8240966796875
40
0.0
41
0.0
42
0.0
10
77.4057998657227
20
78.0183029174805
40
0.0
41
0.0
42
0.0
10
77.393798828125
20
78.1864013671875
40
0.0
41
0.0
42
0.0
10
77.4570007324219
20
78.4841003417969
40
0.0
41
0.0
42
0.0
10
77.499397277832
20
78.7060012817383
40
0.0
41
0.0
42
0.0
10
77.532096862793
20
78.8452987670898
40
0.0
41
0.0
42
0.0
10
77.6057968139648
20
78.9921035766602
40
0.0
41
0.0
42
0.0
10
77.9747009277344
20
79.38330078125
40
0.0
41
0.0
42
0.0
10
78.0075988769531
20
79.4149017333984
40
0.0
41
0.0
42
0.0
10
78.1701965332031
20
79.4988021850586
40
0.0
41
0.0
42
0.0
10
78.3718032836914
20
79.5919036865234
40
0.0
41
0.0
42
0.0
10
78.5145034790039
20
79.6369018554688
40
0.0
41
0.0
42
0.0
10
78.7753982543945
20
79.6952972412109
40
0.0
41
0.0
42
0.0
10
78.9598007202148
20
79.7475967407227
40
0.0
41
0.0
42
0.0
10
79.3520965576172
20
79.845100402832
40
0.0
41
0.0
42
0.0
10
79.4869003295898
20
79.8496017456055
40
0.0
41
0.0
42
0.0
10
79.6800994873047
20
79.8031997680664
40
0.0
41
0.0
42
0.0
10
79.709098815918
20
79.8031997680664
40
0.0
41
0.0
42
0.0
10
79.9039001464844
20
79.9934005737305
40
0.0
41
0.0
42
0.0
10
80.0010986328125
20
80.1405029296875
40
0.0
41
0.0
42
0.0
10
80.0883026123047
20
80.3733978271484
40
0.0
41
0.0
42
0.0
10
80.0882034301758
20
80.4066009521484
40
0.0
41
0.0
42
0.0
10
80.0569000244141
20
80.5161972045898
40
0.0
41
0.0
42
0.0
10
80.0188980102539
20
80.9787979125977
40
0.0
41
0.0
42
0.0
10
80.0110015869141
20
81.0149002075195
40
0.0
41
0.0
42
0.0
10
79.9998016357422
20
81.0553970336914
40
0.0
41
0.0
42
0.0
10
79.9095001220703
20
81.3318023681641
40
0.0
41
0.0
42
0.0
10
79.882698059082
20
81.5146026611328
40
0.0
41
0.0
42
0.0
10
79.7662963867188
20
81.8177032470703
40
0.0
41
0.0
42
0.0
10
79.6986999511719
20
82.0115966796875
40
0.0
41
0.0
42
0.0
10
79.5429000854492
20
82.314697265625
40
0.0
41
0.0
42
0.0
10
79.5019989013672
20
82.38330078125
40
0.0
41
0.0
42
0.0
10
79.4219970703125
20
82.5091018676758
40
0.0
41
0.0
42
0.0
10
79.3822021484375
20
82.5790023803711
40
0.0
41
0.0
42
0.0
10
79.3094024658203
20
82.6647033691406
40
0.0
41
0.0
42
0.0
10
79.0800018310547
20
82.8964004516602
40
0.0
41
0.0
42
0.0
10
79.008903503418
20
82.9445037841797
40
0.0
41
0.0
42
0.0
10
78.9055023193359
20
83.0022964477539
40
0.0
41
0.0
42
0.0
10
78.8152008056641
20
83.0715026855469
40
0.0
41
0.0
42
0.0
10
78.5168991088867
20
83.1602020263672
40
0.0
41
0.0
42
0.0
10
78.4804992675781
20
83.1601028442383
40
0.0
41
0.0
42
0.0
10
78.2032012939453
20
83.1458969116211
40
0.0
41
0.0
42
0.0
10
78.0185012817383
20
83.1716995239258
40
0.0
41
0.0
42
0.0
10
77.9822998046875
20
83.1716003417969
40
0.0
41
0.0
42
0.0
10
77.6787033081055
20
83.1044998168945
40
0.0
41
0.0
42
0.0
10
77.4849014282227
20
83.0761032104492
40
0.0
41
0.0
42
0.0
10
77.2593002319336
20
83.0000991821289
40
0.0
41
0.0
42
0.0
10
77.0651016235352
20
82.9290008544922
40
0.0
41
0.0
42
0.0
10
76.9876022338867
20
82.9024963378906
40
0.0
41
0.0
42
0.0
10
76.6845016479492
20
82.7677001953125
40
0.0
41
0.0
42
0.0
10
76.489501953125
20
82.6566009521484
40
0.0
41
0.0
42
0.0
10
76.184700012207
20
82.5195999145508
40
0.0
41
0.0
42
0.0
10
76.159797668457
20
82.5046005249023
40
0.0
41
0.0
42
0.0
10
75.9956970214844
20
82.2397994995117
40
0.0
41
0.0
42
0.0
10
75.6856994628906
20
82.0093994140625
40
0.0
41
0.0
42
0.0
10
75.6855010986328
20
81.9844970703125
40
0.0
41
0.0
42
0.0
10
75.8415985107422
20
81.6462020874023
40
0.0
41
0.0
42
0.0
10
75.9178009033203
20
81.4925994873047
40
0.0
41
0.0
42
0.0
10
75.9970016479492
20
81.4184036254883
40
0.0
41
0.0
42
0.0
10
76.089599609375
20
81.2354965209961
40
0.0
41
0.0
42
0.0
10
76.3519973754883
20
80.6837005615234
40
0.0
41
0.0
42
0.0
10
76.4403991699219
20
80.4865036010742
40
0.0
41
0.0
42
0.0
10
76.5003967285156
20
80.2078018188477
40
0.0
41
0.0
42
0.0
10
76.5335998535156
20
80.0654983520508
40
0.0
41
0.0
42
0.0
10
76.5584030151367
20
79.9975967407227
40
0.0
41
0.0
42
0.0
10
76.5003967285156
20
79.7751007080078
40
0.0
41
0.0
42
0.0
10
76.4741973876953
20
79.6376037597656
40
0.0
41
0.0
42
0.0
10
76.4540023803711
20
79.5118026733398
40
0.0
41
0.0
42
0.0
10
76.3809967041016
20
79.4095001220703
40
0.0
41
0.0
42
0.0
10
76.2879028320312
20
79.3117980957031
40
0.0
41
0.0
42
0.0
10
76.0982971191406
20
79.0274963378906
40
0.0
41
0.0
42
0.0
10
76.0770034790039
20
79.0034027099609
40
0.0
41
0.0
42
0.0
10
75.9912033081055
20
78.9542007446289
40
0.0
41
0.0
42
0.0
10
75.9776000976562
20
78.9448013305664
40
0.0
41
0.0
42
0.0
10
75.815299987793
20
78.8097991943359
40
0.0
41
0.0
42
0.0
10
75.5417022705078
20
78.504997253418
40
0.0
41
0.0
42
0.0
10
75.5121002197266
20
78.4792022705078
40
0.0
41
0.0
42
0.0
10
75.4925003051758
20
78.4495010375977
40
0.0
41
0.0
42
0.0
10
75.1797027587891
20
78.3934020996094
40
0.0
41
0.0
42
0.0
10
75.004997253418
20
78.3442001342773
40
0.0
41
0.0
42
0.0
10
74.9161987304688
20
78.4281005859375
40
0.0
41
0.0
42
0.0
10
74.8774032592773
20
78.5090026855469
40
0.0
41
0.0
42
0.0
10
74.6530990600586
20
78.810302734375
40
0.0
41
0.0
42
0.0
10
74.4151000976562
20
79.0059967041016
40
0.0
41
0.0
42
0.0
10
74.3755035400391
20
79.0718002319336
40
0.0
41
0.0
42
0.0
10
74.3077011108398
20
79.1537017822266
40
0.0
41
0.0
42
0.0
10
74.1638031005859
20
79.3946990966797
40
0.0
41
0.0
42
0.0
10
74.0690002441406
20
79.5106964111328
40
0.0
41
0.0
42
0.0
10
73.9996032714844
20
79.8527984619141
40
0.0
41
0.0
42
0.0
10
73.9548034667969
20
80.0003967285156
40
0.0
41
0.0
42
0.0
10
73.9994964599609
20
80.1585998535156
40
0.0
41
0.0
42
0.0
10
74.0441970825195
20
80.3647003173828
40
0.0
41
0.0
42
0.0
10
74.0767974853516
20
80.4878005981445
40
0.0
41
0.0
42
0.0
10
74.1685028076172
20
80.6568984985352
40
0.0
41
0.0
42
0.0
10
74.3424987792969
20
80.9901962280273
40
0.0
41
0.0
42
0.0
10
74.5028991699219
20
81.2564010620117
40
0.0
41
0.0
42
0.0
10
74.7068023681641
20
81.49169921875
40
0.0
41
0.0
42
0.0
10
74.9545974731445
20
81.9849014282227
40
0.0
41
0.0
42
0.0
10
74.9543991088867
20
82.0139007568359
40
0.0
41
0.0
42
0.0
10
74.7815017700195
20
82.2901992797852
40
0.0
41
0.0
42
0.0
10
74.6843032836914
20
82.5052032470703
40
0.0
41
0.0
42
0.0
10
74.5082015991211
20
82.609001159668
40
0.0
41
0.0
42
0.0
10
74.404899597168
20
82.686897277832
40
0.0
41
0.0
42
0.0
10
74.3125
20
82.7595977783203
40
0.0
41
0.0
42
0.0
10
74.1371002197266
20
82.880500793457
40
0.0
41
0.0
42
0.0
10
73.9664001464844
20
83.0018997192383
40
0.0
41
0.0
42
0.0
10
73.8156967163086
20
83.0783996582031
40
0.0
41
0.0
42
0.0
10
73.5117034912109
20
83.2223968505859
40
0.0
41
0.0
42
0.0
10
73.3179016113281
20
83.2957992553711
40
0.0
41
0.0
42
0.0
10
73.0151977539062
20
83.3952026367188
40
0.0
41
0.0
42
0.0
10
72.5959014892578
20
83.4537963867188
40
0.0
41
0.0
42
0.0
10
72.5183029174805
20
83.4664993286133
40
0.0
41
0.0
42
0.0
10
72.4813995361328
20
83.4664001464844
40
0.0
41
0.0
42
0.0
10
71.9857025146484
20
83.3989028930664
40
0.0
41
0.0
42
0.0
10
71.9767990112305
20
83.3951034545898
40
0.0
41
0.0
42
0.0
10
71.8339004516602
20
83.3071975708008
40
0.0
41
0.0
42
0.0
10
71.5435028076172
20
83.1163024902344
40
0.0
41
0.0
42
0.0
10
71.4957962036133
20
83.0727996826172
40
0.0
41
0.0
42
0.0
10
71.4487991333008
20
83.0066986083984
40
0.0
41
0.0
42
0.0
10
71.4158020019531
20
82.970703125
40
0.0
41
0.0
42
0.0
10
71.28759765625
20
82.8124008178711
40
0.0
41
0.0
42
0.0
10
71.0779037475586
20
82.5086975097656
40
0.0
41
0.0
42
0.0
10
70.9983978271484
20
82.3715972900391
40
0.0
41
0.0
42
0.0
10
70.8570022583008
20
82.0921020507812
40
0.0
41
0.0
42
0.0
10
70.8181991577148
20
82.0122985839844
40
0.0
41
0.0
42
0.0
10
70.7602005004883
20
81.818000793457
40
0.0
41
0.0
42
0.0
10
70.6369018554688
20
81.5158004760742
40
0.0
41
0.0
42
0.0
10
70.6352996826172
20
81.3212966918945
40
0.0
41
0.0
42
0.0
10
70.527099609375
20
81.0162963867188
40
0.0
41
0.0
42
0.0
10
70.5270004272461
20
80.9863967895508
40
0.0
41
0.0
42
0.0
10
70.5835037231445
20
80.9038009643555
40
0.0
41
0.0
42
0.0
10
70.5943984985352
20
80.4848022460938
40
0.0
41
0.0
42
0.0
10
70.7151031494141
20
80.2227020263672
40
0.0
41
0.0
42
0.0
10
70.7397003173828
20
80.2226028442383
40
0.0
41
0.0
42
0.0
10
70.9231033325195
20
80.2577972412109
40
0.0
41
0.0
42
0.0
10
71.0040969848633
20
80.2769012451172
40
0.0
41
0.0
42
0.0
10
71.2424011230469
20
80.2433013916016
40
0.0
41
0.0
42
0.0
10
71.4873962402344
20
80.1440963745117
40
0.0
41
0.0
42
0.0
10
71.9893035888672
20
79.9676971435547
40
0.0
41
0.0
42
0.0
10
72.0809020996094
20
79.907600402832
40
0.0
41
0.0
42
0.0
10
72.4921035766602
20
79.6744995117188
40
0.0
41
0.0
42
0.0
10
72.7017974853516
20
79.4906005859375
40
0.0
41
0.0
42
0.0
10
72.7362976074219
20
79.25
40
0.0
41
0.0
42
0.0
10
72.7531967163086
20
79.2176971435547
40
0.0
41
0.0
42
0.0
10
72.8846969604492
20
78.9915008544922
40
0.0
41
0.0
42
0.0
10
72.8629989624023
20
78.8184967041016
40
0.0
41
0.0
42
0.0
10
72.8628997802734
20
78.7816009521484
40
0.0
41
0.0
42
0.0
10
72.9089965820312
20
78.4981002807617
40
0.0
41
0.0
42
0.0
10
72.8877029418945
20
78.3236999511719
40
0.0
41
0.0
42
0.0
10
72.8876037597656
20
78.285400390625
40
0.0
41
0.0
42
0.0
10
72.8991012573242
20
78.0123977661133
40
0.0
41
0.0
42
0.0
10
72.8432998657227
20
77.8195037841797
40
0.0
41
0.0
42
0.0
10
72.763801574707
20
77.5062026977539
40
0.0
41
0.0
42
0.0
10
72.6379013061523
20
77.4326019287109
40
0.0
41
0.0
42
0.0
10
72.4931030273438
20
77.388801574707
40
0.0
41
0.0
42
0.0
10
72.2136993408203
20
77.4224014282227
40
0.0
41
0.0
42
0.0
10
72.1757965087891
20
77.4223022460938
40
0.0
41
0.0
42
0.0
10
71.9815979003906
20
77.4057998657227
40
0.0
41
0.0
42
0.0
10
71.8134994506836
20
77.393798828125
40
0.0
41
0.0
42
0.0
10
71.5158004760742
20
77.4570007324219
40
0.0
41
0.0
42
0.0
10
71.2938995361328
20
77.499397277832
40
0.0
41
0.0
42
0.0
10
71.1545028686523
20
77.5319976806641
40
0.0
41
0.0
42
0.0
10
71.007698059082
20
77.6056976318359
40
0.0
41
0.0
42
0.0
10
70.6165008544922
20
77.9747009277344
40
0.0
41
0.0
42
0.0
10
70.5848007202148
20
78.0075988769531
40
0.0
41
0.0
42
0.0
10
70.5009994506836
20
78.1701965332031
40
0.0
41
0.0
42
0.0
10
70.4077987670898
20
78.371696472168
40
0.0
41
0.0
42
0.0
10
70.3628005981445
20
78.5145034790039
40
0.0
41
0.0
42
0.0
10
70.3044967651367
20
78.7755966186523
40
0.0
41
0.0
42
0.0
10
70.2876968383789
20
78.8411026000977
40
0.0
41
0.0
42
0.0
10
70.2380981445312
20
79.0145034790039
40
0.0
41
0.0
42
0.0
10
70.1546020507812
20
79.3522033691406
40
0.0
41
0.0
42
0.0
10
70.1501998901367
20
79.4869003295898
40
0.0
41
0.0
42
0.0
10
70.1967010498047
20
79.6800994873047
40
0.0
41
0.0
42
0.0
10
70.1966018676758
20
79.709098815918
40
0.0
41
0.0
42
0.0
10
70.0064010620117
20
79.9038009643555
40
0.0
41
0.0
42
0.0
10
69.8591995239258
20
80.0010986328125
40
0.0
41
0.0
42
0.0
10
69.6264038085938
20
80.0883026123047
40
0.0
41
0.0
42
0.0
10
69.5932006835938
20
80.0883026123047
40
0.0
41
0.0
42
0.0
10
69.4837036132812
20
80.0569000244141
40
0.0
41
0.0
42
0.0
10
69.0210037231445
20
80.0188980102539
40
0.0
41
0.0
42
0.0
10
68.9850006103516
20
80.0110015869141
40
0.0
41
0.0
42
0.0
10
68.9443969726562
20
79.9998016357422
40
0.0
41
0.0
42
0.0
10
68.6679992675781
20
79.9095001220703
40
0.0
41
0.0
42
0.0
10
68.4852981567383
20
79.882698059082
40
0.0
41
0.0
42
0.0
10
68.1821975708008
20
79.7664031982422
40
0.0
41
0.0
42
0.0
10
67.9881973266602
20
79.6986999511719
40
0.0
41
0.0
42
0.0
10
67.6850967407227
20
79.5429000854492
40
0.0
41
0.0
42
0.0
10
67.6165008544922
20
79.5019989013672
40
0.0
41
0.0
42
0.0
10
67.4907989501953
20
79.4220962524414
40
0.0
41
0.0
42
0.0
10
67.4207000732422
20
79.3823013305664
40
0.0
41
0.0
42
0.0
10
67.3351974487305
20
79.3095016479492
40
0.0
41
0.0
42
0.0
10
67.1033020019531
20
79.0800018310547
40
0.0
41
0.0
42
0.0
10
67.0551986694336
20
79.008903503418
40
0.0
41
0.0
42
0.0
10
66.9974975585938
20
78.9055023193359
40
0.0
41
0.0
42
0.0
10
66.929801940918
20
78.8181991577148
40
0.0
41
0.0
42
0.0
10
66.8392028808594
20
78.5155029296875
40
0.0
41
0.0
42
0.0
10
66.8125991821289
20
78.3235015869141
40
0.0
41
0.0
42
0.0
10
66.8125
20
78.2854995727539
40
0.0
41
0.0
42
0.0
10
66.8280029296875
20
77.9820022583008
40
0.0
41
0.0
42
0.0
10
66.8563003540039
20
77.7886962890625
40
0.0
41
0.0
42
0.0
10
66.9233016967773
20
77.4856033325195
40
0.0
41
0.0
42
0.0
10
66.999397277832
20
77.2600021362305
40
0.0
41
0.0
42
0.0
10
67.0707015991211
20
77.0650024414062
40
0.0
41
0.0
42
0.0
10
67.0969009399414
20
76.9886016845703
40
0.0
41
0.0
42
0.0
10
67.2076034545898
20
76.7944030761719
40
0.0
41
0.0
42
0.0
10
67.4801025390625
20
76.184700012207
40
0.0
41
0.0
42
0.0
10
67.4952011108398
20
76.159797668457
40
0.0
41
0.0
42
0.0
10
67.7600021362305
20
75.9955978393555
40
0.0
41
0.0
42
0.0
10
67.9905014038086
20
75.6856994628906
40
0.0
41
0.0
42
0.0
10
68.0154037475586
20
75.6856002807617
40
0.0
41
0.0
42
0.0
10
68.3535995483398
20
75.8415985107422
40
0.0
41
0.0
42
0.0
10
68.5072021484375
20
75.9179000854492
40
0.0
41
0.0
42
0.0
10
68.5813980102539
20
75.9970016479492
40
0.0
41
0.0
42
0.0
10
68.7642974853516
20
76.0896987915039
40
0.0
41
0.0
42
0.0
10
69.3162002563477
20
76.3520965576172
40
0.0
41
0.0
42
0.0
10
69.5133972167969
20
76.4403991699219
40
0.0
41
0.0
42
0.0
10
69.7919998168945
20
76.5003967285156
40
0.0
41
0.0
42
0.0
10
69.9343032836914
20
76.5335998535156
40
0.0
41
0.0
42
0.0
10
70.0022964477539
20
76.5584030151367
40
0.0
41
0.0
42
0.0
10
70.2247009277344
20
76.5003967285156
40
0.0
41
0.0
42
0.0
10
70.3621978759766
20
76.4741973876953
40
0.0
41
0.0
42
0.0
10
70.4879989624023
20
76.4540023803711
40
0.0
41
0.0
42
0.0
10
70.6436996459961
20
76.3453979492188
40
0.0
41
0.0
42
0.0
10
70.9960021972656
20
76.0776977539062
40
0.0
41
0.0
42
0.0
10
71.0456008911133
20
75.991096496582
40
0.0
41
0.0
42
0.0
10
71.0550003051758
20
75.9775009155273
40
0.0
41
0.0
42
0.0
10
71.1901016235352
20
75.8152008056641
40
0.0
41
0.0
42
0.0
10
71.4949035644531
20
75.5416030883789
40
0.0
41
0.0
42
0.0
10
71.5205993652344
20
75.5120010375977
40
0.0
41
0.0
42
0.0
10
71.549201965332
20
75.4931030273438
40
0.0
41
0.0
42
0.0
10
71.6064987182617
20
75.2895965576172
40
0.0
41
0.0
42
0.0
10
71.6573028564453
20
75.0067977905273
40
0.0
41
0.0
42
0.0
10
71.5718002319336
20
74.9162979125977
40
0.0
41
0.0
42
0.0
10
71.4908981323242
20
74.8775024414062
40
0.0
41
0.0
42
0.0
10
71.1895980834961
20
74.6530990600586
40
0.0
41
0.0
42
0.0
10
70.993896484375
20
74.4151000976562
40
0.0
41
0.0
42
0.0
10
70.9280014038086
20
74.3755035400391
40
0.0
41
0.0
42
0.0
10
70.8460998535156
20
74.3077011108398
40
0.0
41
0.0
42
0.0
10
70.6051025390625
20
74.1638031005859
40
0.0
41
0.0
42
0.0
10
70.4891967773438
20
74.0690002441406
40
0.0
41
0.0
42
0.0
10
70.1470031738281
20
73.9996032714844
40
0.0
41
0.0
42
0.0
10
69.9994964599609
20
73.9548034667969
40
0.0
41
0.0
42
0.0
10
69.8412017822266
20
73.9994964599609
40
0.0
41
0.0
42
0.0
10
69.6351013183594
20
74.0440979003906
40
0.0
41
0.0
42
0.0
10
69.5121002197266
20
74.0766983032227
40
0.0
41
0.0
42
0.0
10
69.3427963256836
20
74.1684036254883
40
0.0
41
0.0
42
0.0
10
69.0095977783203
20
74.3424987792969
40
0.0
41
0.0
42
0.0
10
68.7433013916016
20
74.5028991699219
40
0.0
41
0.0
42
0.0
10
68.50830078125
20
74.7068023681641
40
0.0
41
0.0
42
0.0
10
68.3117980957031
20
74.8022994995117
40
0.0
41
0.0
42
0.0
10
68.0149002075195
20
74.9545974731445
40
0.0
41
0.0
42
0.0
10
67.9850006103516
20
74.9544982910156
40
0.0
41
0.0
42
0.0
10
67.89990234375
20
74.9114990234375
40
0.0
41
0.0
42
0.0
10
67.4951019287109
20
74.6852035522461
40
0.0
41
0.0
42
0.0
10
67.3907012939453
20
74.50830078125
40
0.0
41
0.0
42
0.0
10
67.3127975463867
20
74.404899597168
40
0.0
41
0.0
42
0.0
10
67.2400970458984
20
74.3125
40
0.0
41
0.0
42
0.0
10
67.1193008422852
20
74.1371002197266
40
0.0
41
0.0
42
0.0
10
66.9980010986328
20
73.9664001464844
40
0.0
41
0.0
42
0.0
10
66.9213027954102
20
73.8156967163086
40
0.0
41
0.0
42
0.0
10
66.7772979736328
20
73.5117034912109
40
0.0
41
0.0
42
0.0
10
66.7039031982422
20
73.318000793457
40
0.0
41
0.0
42
0.0
10
66.6044998168945
20
73.0151977539062
40
0.0
41
0.0
42
0.0
10
66.5458984375
20
72.5959014892578
40
0.0
41
0.0
42
0.0
10
66.5334014892578
20
72.5183029174805
40
0.0
41
0.0
42
0.0
10
66.5333023071289
20
72.4813995361328
40
0.0
41
0.0
42
0.0
10
66.6005020141602
20
71.9870986938477
40
0.0
41
0.0
42
0.0
10
66.6819000244141
20
71.8548965454102
40
0.0
41
0.0
42
0.0
10
66.806396484375
20
71.6822967529297
40
0.0
41
0.0
42
0.0
10
66.8171005249023
20
71.6639022827148
40
0.0
41
0.0
42
0.0
10
66.9282989501953
20
71.4947967529297
40
0.0
41
0.0
42
0.0
210
0.0
220
0.0
230
1.0
0
LWPOLYLINE
5
25
330
1C
100
AcDbEntity
67
0
8
0
62
256
6
ByLayer
370
-1
48
1.0
60
0
100
AcDbPolyline
90
593
70
1
38
0.0
39
0.0
10
66.8804016113281
20
71.6302032470703
40
0.0
41
0.0
42
0.0
10
66.728401184082
20
71.8410034179688
40
0.0
41
0.0
42
0.0
10
66.6227035522461
20
72.0127029418945
40
0.0
41
0.0
42
0.0
10
66.5567016601562
20
72.4984970092773
40
0.0
41
0.0
42
0.0
10
66.5759963989258
20
72.6174011230469
40
0.0
41
0.0
42
0.0
10
66.6272964477539
20
72.9847030639648
40
0.0
41
0.0
42
0.0
10
66.7149963378906
20
73.2519989013672
40
0.0
41
0.0
42
0.0
10
66.8043975830078
20
73.4881973266602
40
0.0
41
0.0
42
0.0
10
66.9303970336914
20
73.7542037963867
40
0.0
41
0.0
42
0.0
10
67.0018997192383
20
73.8945999145508
40
0.0
41
0.0
42
0.0
10
67.14990234375
20
74.1043014526367
40
0.0
41
0.0
42
0.0
10
67.255500793457
20
74.2574005126953
40
0.0
41
0.0
42
0.0
10
67.3435974121094
20
74.3696975708008
40
0.0
41
0.0
42
0.0
10
67.4357986450195
20
74.4916000366211
40
0.0
41
0.0
42
0.0
10
67.5046997070312
20
74.6085968017578
40
0.0
41
0.0
42
0.0
10
67.7665023803711
20
74.7548980712891
40
0.0
41
0.0
42
0.0
10
67.9999008178711
20
74.8729019165039
40
0.0
41
0.0
42
0.0
10
68.247200012207
20
74.7462997436523
40
0.0
41
0.0
42
0.0
10
68.4916000366211
20
74.6275024414062
40
0.0
41
0.0
42
0.0
10
68.6420974731445
20
74.4969024658203
40
0.0
41
0.0
42
0.0
10
68.9901962280273
20
74.2873001098633
40
0.0
41
0.0
42
0.0
10
69.4876022338867
20
74.0263977050781
40
0.0
41
0.0
42
0.0
10
69.527099609375
20
74.015998840332
40
0.0
41
0.0
42
0.0
10
69.5996017456055
20
74.0002975463867
40
0.0
41
0.0
42
0.0
10
69.9829025268555
20
73.8921966552734
40
0.0
41
0.0
42
0.0
10
70.0168991088867
20
73.8920974731445
40
0.0
41
0.0
42
0.0
10
70.3741989135742
20
74.0002975463867
40
0.0
41
0.0
42
0.0
10
70.5106964111328
20
74.0279998779297
40
0.0
41
0.0
42
0.0
10
70.6440963745117
20
74.1371994018555
40
0.0
41
0.0
42
0.0
10
70.8533020019531
20
74.2621002197266
40
0.0
41
0.0
42
0.0
10
70.9521026611328
20
74.3436965942383
40
0.0
41
0.0
42
0.0
10
71.0059967041016
20
74.3761978149414
40
0.0
41
0.0
42
0.0
10
71.2404022216797
20
74.6607971191406
40
0.0
41
0.0
42
0.0
10
71.5091018676758
20
74.8609008789062
40
0.0
41
0.0
42
0.0
10
71.5761032104492
20
74.8929977416992
40
0.0
41
0.0
42
0.0
10
71.6661987304688
20
74.9882965087891
40
0.0
41
0.0
42
0.0
10
71.6660995483398
20
75.0180969238281
40
0.0
41
0.0
42
0.0
10
71.6190032958984
20
75.2801971435547
40
0.0
41
0.0
42
0.0
10
71.5552978515625
20
75.5066986083984
40
0.0
41
0.0
42
0.0
10
71.5381011962891
20
75.5180969238281
40
0.0
41
0.0
42
0.0
10
71.5048980712891
20
75.5562973022461
40
0.0
41
0.0
42
0.0
10
71.2397003173828
20
75.7942962646484
40
0.0
41
0.0
42
0.0
10
71.0735015869141
20
75.9941024780273
40
0.0
41
0.0
42
0.0
10
71.0633010864258
20
76.0086975097656
40
0.0
41
0.0
42
0.0
10
71.0037994384766
20
76.1125030517578
40
0.0
41
0.0
42
0.0
10
70.5619964599609
20
76.4483032226562
40
0.0
41
0.0
42
0.0
10
70.5117034912109
20
76.4834976196289
40
0.0
41
0.0
42
0.0
10
70.4217987060547
20
76.4992980957031
40
0.0
41
0.0
42
0.0
10
70.0173034667969
20
76.6050033569336
40
0.0
41
0.0
42
0.0
10
69.9837036132812
20
76.6048965454102
40
0.0
41
0.0
42
0.0
10
69.8511962890625
20
76.5565032958984
40
0.0
41
0.0
42
0.0
10
69.6066970825195
20
76.499397277832
40
0.0
41
0.0
42
0.0
10
69.4865036010742
20
76.4736022949219
40
0.0
41
0.0
42
0.0
10
69.2537994384766
20
76.3693008422852
40
0.0
41
0.0
42
0.0
10
68.7095031738281
20
76.1107025146484
40
0.0
41
0.0
42
0.0
10
68.4970016479492
20
76.0028991699219
40
0.0
41
0.0
42
0.0
10
68.4926986694336
20
75.9983978271484
40
0.0
41
0.0
42
0.0
10
68.0029983520508
20
75.7720031738281
40
0.0
41
0.0
42
0.0
10
67.8304977416992
20
76.0042037963867
40
0.0
41
0.0
42
0.0
10
67.5046005249023
20
76.2061996459961
40
0.0
41
0.0
42
0.0
10
67.4810028076172
20
76.2452011108398
40
0.0
41
0.0
42
0.0
10
67.2440032958984
20
76.7753982543945
40
0.0
41
0.0
42
0.0
10
67.1095962524414
20
77.011100769043
40
0.0
41
0.0
42
0.0
10
66.9998016357422
20
77.315803527832
40
0.0
41
0.0
42
0.0
10
66.9328002929688
20
77.5142974853516
40
0.0
41
0.0
42
0.0
10
66.8738021850586
20
77.7811965942383
40
0.0
41
0.0
42
0.0
10
66.8392028808594
20
78.0178985595703
40
0.0
41
0.0
42
0.0
10
66.8270034790039
20
78.2566986083984
40
0.0
41
0.0
42
0.0
10
66.8585968017578
20
78.4843978881836
40
0.0
41
0.0
42
0.0
10
66.9389038085938
20
78.7546005249023
40
0.0
41
0.0
42
0.0
10
67.0022964477539
20
78.8375015258789
40
0.0
41
0.0
42
0.0
10
67.0880966186523
20
78.9909973144531
40
0.0
41
0.0
42
0.0
10
67.1328964233398
20
79.0571975708008
40
0.0
41
0.0
42
0.0
10
67.3379974365234
20
79.2603988647461
40
0.0
41
0.0
42
0.0
10
67.4458999633789
20
79.3520965576172
40
0.0
41
0.0
42
0.0
10
67.5091018676758
20
79.3880996704102
40
0.0
41
0.0
42
0.0
10
67.6817016601562
20
79.497802734375
40
0.0
41
0.0
42
0.0
10
67.7447967529297
20
79.5351028442383
40
0.0
41
0.0
42
0.0
10
68.0115966796875
20
79.6723022460938
40
0.0
41
0.0
42
0.0
10
68.2477035522461
20
79.7547988891602
40
0.0
41
0.0
42
0.0
10
68.5146026611328
20
79.8571014404297
40
0.0
41
0.0
42
0.0
10
68.7398986816406
20
79.8900985717773
40
0.0
41
0.0
42
0.0
10
69.0024032592773
20
79.9757995605469
40
0.0
41
0.0
42
0.0
10
69.0239028930664
20
79.9709014892578
40
0.0
41
0.0
42
0.0
10
69.060302734375
20
79.9708023071289
40
0.0
41
0.0
42
0.0
10
69.3239974975586
20
80.0008010864258
40
0.0
41
0.0
42
0.0
10
69.5160980224609
20
80.0165023803711
40
0.0
41
0.0
42
0.0
10
69.5281982421875
20
80.0198974609375
40
0.0
41
0.0
42
0.0
10
69.5856018066406
20
79.9988021850586
40
0.0
41
0.0
42
0.0
10
69.9934005737305
20
79.7294998168945
40
0.0
41
0.0
42
0.0
10
70.1103973388672
20
79.6092987060547
40
0.0
41
0.0
42
0.0
10
70.0884017944336
20
79.5177001953125
40
0.0
41
0.0
42
0.0
10
70.0914993286133
20
79.3865966796875
40
0.0
41
0.0
42
0.0
10
70.1905975341797
20
78.9852981567383
40
0.0
41
0.0
42
0.0
10
70.2503967285156
20
78.7766036987305
40
0.0
41
0.0
42
0.0
10
70.2652969360352
20
78.7184982299805
40
0.0
41
0.0
42
0.0
10
70.3175964355469
20
78.4853973388672
40
0.0
41
0.0
42
0.0
10
70.3760986328125
20
78.2996978759766
40
0.0
41
0.0
42
0.0
10
70.4988021850586
20
78.0344009399414
40
0.0
41
0.0
42
0.0
10
70.5202026367188
20
77.9926986694336
40
0.0
41
0.0
42
0.0
10
70.9921035766602
20
77.5469970703125
40
0.0
41
0.0
42
0.0
10
71.0553970336914
20
77.5151977539062
40
0.0
41
0.0
42
0.0
10
71.1184005737305
20
77.5005035400391
40
0.0
41
0.0
42
0.0
10
71.4841003417969
20
77.4307022094727
40
0.0
41
0.0
42
0.0
10
71.7471008300781
20
77.3748016357422
40
0.0
41
0.0
42
0.0
10
71.7842025756836
20
77.3749008178711
40
0.0
41
0.0
42
0.0
10
72.0085983276367
20
77.3908996582031
40
0.0
41
0.0
42
0.0
10
72.2319030761719
20
77.4095993041992
40
0.0
41
0.0
42
0.0
10
72.481201171875
20
77.3798980712891
40
0.0
41
0.0
42
0.0
10
72.5167999267578
20
77.3798980712891
40
0.0
41
0.0
42
0.0
10
72.6414031982422
20
77.4175033569336
40
0.0
41
0.0
42
0.0
10
72.7714996337891
20
77.4936981201172
40
0.0
41
0.0
42
0.0
10
72.836799621582
20
77.7505035400391
40
0.0
41
0.0
42
0.0
10
72.9040985107422
20
77.9829025268555
40
0.0
41
0.0
42
0.0
10
72.9039993286133
20
78.0195007324219
40
0.0
41
0.0
42
0.0
10
72.8940963745117
20
78.2559967041016
40
0.0
41
0.0
42
0.0
10
72.9219970703125
20
78.481201171875
40
0.0
41
0.0
42
0.0
10
72.9218978881836
20
78.5182037353516
40
0.0
41
0.0
42
0.0
10
72.8824005126953
20
78.761100769043
40
0.0
41
0.0
42
0.0
10
72.9103012084961
20
78.9813003540039
40
0.0
41
0.0
42
0.0
10
72.9102020263672
20
79.0142974853516
40
0.0
41
0.0
42
0.0
10
72.8086013793945
20
79.1887969970703
40
0.0
41
0.0
42
0.0
10
72.7917022705078
20
79.2211990356445
40
0.0
41
0.0
42
0.0
10
72.7508010864258
20
79.5093002319336
40
0.0
41
0.0
42
0.0
10
72.507698059082
20
79.7223968505859
40
0.0
41
0.0
42
0.0
10
72.0111999511719
20
80.0031967163086
40
0.0
41
0.0
42
0.0
10
71.5124969482422
20
80.1781005859375
40
0.0
41
0.0
42
0.0
10
71.2154998779297
20
80.2984008789062
40
0.0
41
0.0
42
0.0
10
71.0185012817383
20
80.3262023925781
40
0.0
41
0.0
42
0.0
10
70.9823989868164
20
80.3261032104492
40
0.0
41
0.0
42
0.0
10
70.9120025634766
20
80.3094024658203
40
0.0
41
0.0
42
0.0
10
70.7866973876953
20
80.2854995727539
40
0.0
41
0.0
42
0.0
10
70.6812973022461
20
80.5150985717773
40
0.0
41
0.0
42
0.0
10
70.6725997924805
20
80.8395004272461
40
0.0
41
0.0
42
0.0
10
70.5607986450195
20
81.0031967163086
40
0.0
41
0.0
42
0.0
10
70.6479034423828
20
81.2487030029297
40
0.0
41
0.0
42
0.0
10
70.6498031616211
20
81.4841995239258
40
0.0
41
0.0
42
0.0
10
70.758903503418
20
81.7519989013672
40
0.0
41
0.0
42
0.0
10
70.8292999267578
20
81.9876022338867
40
0.0
41
0.0
42
0.0
10
70.8779983520508
20
82.0875015258789
40
0.0
41
0.0
42
0.0
10
71.0015029907227
20
82.3317031860352
40
0.0
41
0.0
42
0.0
10
71.0940017700195
20
82.4912033081055
40
0.0
41
0.0
42
0.0
10
71.2779998779297
20
82.7575988769531
40
0.0
41
0.0
42
0.0
10
71.4344024658203
20
82.9509963989258
40
0.0
41
0.0
42
0.0
10
71.4732971191406
20
82.9932022094727
40
0.0
41
0.0
42
0.0
10
71.5040969848633
20
83.0365982055664
40
0.0
41
0.0
42
0.0
10
71.568000793457
20
83.0948028564453
40
0.0
41
0.0
42
0.0
10
71.8235015869141
20
83.2626037597656
40
0.0
41
0.0
42
0.0
10
71.9990005493164
20
83.3704986572266
40
0.0
41
0.0
42
0.0
10
72.0141983032227
20
83.377197265625
40
0.0
41
0.0
42
0.0
10
72.4984970092773
20
83.4430999755859
40
0.0
41
0.0
42
0.0
10
72.6174011230469
20
83.4237976074219
40
0.0
41
0.0
42
0.0
10
72.9847030639648
20
83.3723983764648
40
0.0
41
0.0
42
0.0
10
73.2518997192383
20
83.2846984863281
40
0.0
41
0.0
42
0.0
10
73.4880981445312
20
83.1952972412109
40
0.0
41
0.0
42
0.0
10
73.7542037963867
20
83.0692977905273
40
0.0
41
0.0
42
0.0
10
73.8945999145508
20
82.9979019165039
40
0.0
41
0.0
42
0.0
10
74.1042022705078
20
82.8498001098633
40
0.0
41
0.0
42
0.0
10
74.2574005126953
20
82.7442016601562
40
0.0
41
0.0
42
0.0
10
74.3695983886719
20
82.6560974121094
40
0.0
41
0.0
42
0.0
10
74.4916000366211
20
82.5639038085938
40
0.0
41
0.0
42
0.0
10
74.6093978881836
20
82.4945983886719
40
0.0
41
0.0
42
0.0
10
74.7319030761719
20
82.2232971191406
40
0.0
41
0.0
42
0.0
10
74.8724975585938
20
81.9988021850586
40
0.0
41
0.0
42
0.0
10
74.6274032592773
20
81.5082015991211
40
0.0
41
0.0
42
0.0
10
74.4970016479492
20
81.3576965332031
40
0.0
41
0.0
42
0.0
10
74.2873001098633
20
81.0096969604492
40
0.0
41
0.0
42
0.0
10
74.0266036987305
20
80.5122985839844
40
0.0
41
0.0
42
0.0
10
74.0160980224609
20
80.4727020263672
40
0.0
41
0.0
42
0.0
10
74.0003967285156
20
80.4001998901367
40
0.0
41
0.0
42
0.0
10
73.8921966552734
20
80.0169982910156
40
0.0
41
0.0
42
0.0
10
73.8919982910156
20
79.9830017089844
40
0.0
41
0.0
42
0.0
10
74.0001983642578
20
79.625602722168
40
0.0
41
0.0
42
0.0
10
74.0279006958008
20
79.4891967773438
40
0.0
41
0.0
42
0.0
10
74.1371002197266
20
79.3556976318359
40
0.0
41
0.0
42
0.0
10
74.2621002197266
20
79.1464004516602
40
0.0
41
0.0
42
0.0
10
74.3436965942383
20
79.0476989746094
40
0.0
41
0.0
42
0.0
10
74.3760986328125
20
78.9937973022461
40
0.0
41
0.0
42
0.0
10
74.6606979370117
20
78.7594985961914
40
0.0
41
0.0
42
0.0
10
74.8609008789062
20
78.4907989501953
40
0.0
41
0.0
42
0.0
10
74.8929977416992
20
78.423698425293
40
0.0
41
0.0
42
0.0
10
74.9882965087891
20
78.3337020874023
40
0.0
41
0.0
42
0.0
10
75.0170974731445
20
78.3336029052734
40
0.0
41
0.0
42
0.0
10
75.2502975463867
20
78.399299621582
40
0.0
41
0.0
42
0.0
10
75.5074005126953
20
78.4455032348633
40
0.0
41
0.0
42
0.0
10
75.5180969238281
20
78.4616012573242
40
0.0
41
0.0
42
0.0
10
75.556396484375
20
78.495002746582
40
0.0
41
0.0
42
0.0
10
75.7942962646484
20
78.7601013183594
40
0.0
41
0.0
42
0.0
10
75.9941024780273
20
78.9263000488281
40
0.0
41
0.0
42
0.0
10
76.0086975097656
20
78.9364013671875
40
0.0
41
0.0
42
0.0
10
76.1132965087891
20
78.9964981079102
40
0.0
41
0.0
42
0.0
10
76.1258010864258
20
79.010498046875
40
0.0
41
0.0
42
0.0
10
76.2910003662109
20
79.2581024169922
40
0.0
41
0.0
42
0.0
10
76.4036026000977
20
79.3765029907227
40
0.0
41
0.0
42
0.0
10
76.4835968017578
20
79.4882965087891
40
0.0
41
0.0
42
0.0
10
76.499397277832
20
79.5779037475586
40
0.0
41
0.0
42
0.0
10
76.6050033569336
20
79.9825973510742
40
0.0
41
0.0
42
0.0
10
76.6047973632812
20
80.0161972045898
40
0.0
41
0.0
42
0.0
10
76.556396484375
20
80.1485977172852
40
0.0
41
0.0
42
0.0
10
76.499397277832
20
80.3932037353516
40
0.0
41
0.0
42
0.0
10
76.473503112793
20
80.5133972167969
40
0.0
41
0.0
42
0.0
10
76.3692016601562
20
80.7461013793945
40
0.0
41
0.0
42
0.0
10
76.1106033325195
20
81.2902984619141
40
0.0
41
0.0
42
0.0
10
76.002799987793
20
81.5028991699219
40
0.0
41
0.0
42
0.0
10
75.9982986450195
20
81.5072021484375
40
0.0
41
0.0
42
0.0
10
75.772102355957
20
81.9968032836914
40
0.0
41
0.0
42
0.0
10
76.0042037963867
20
82.1691970825195
40
0.0
41
0.0
42
0.0
10
76.206298828125
20
82.4953002929688
40
0.0
41
0.0
42
0.0
10
76.2452011108398
20
82.518798828125
40
0.0
41
0.0
42
0.0
10
76.5103988647461
20
82.6380004882812
40
0.0
41
0.0
42
0.0
10
76.7454986572266
20
82.7720031738281
40
0.0
41
0.0
42
0.0
10
77.0122985839844
20
82.8905029296875
40
0.0
41
0.0
42
0.0
10
77.0807037353516
20
82.9141006469727
40
0.0
41
0.0
42
0.0
10
77.3150024414062
20
82.9998016357422
40
0.0
41
0.0
42
0.0
10
77.5150985717773
20
83.0671005249023
40
0.0
41
0.0
42
0.0
10
77.7511978149414
20
83.1016006469727
40
0.0
41
0.0
42
0.0
10
78.0037002563477
20
83.1575012207031
40
0.0
41
0.0
42
0.0
10
78.2164001464844
20
83.1279983520508
40
0.0
41
0.0
42
0.0
10
78.2544021606445
20
83.1278991699219
40
0.0
41
0.0
42
0.0
10
78.4884033203125
20
83.1399002075195
40
0.0
41
0.0
42
0.0
10
78.7546005249023
20
83.0607986450195
40
0.0
41
0.0
42
0.0
10
78.8375015258789
20
82.9974975585938
40
0.0
41
0.0
42
0.0
10
78.9908981323242
20
82.9115982055664
40
0.0
41
0.0
42
0.0
10
79.0571975708008
20
82.8667984008789
40
0.0
41
0.0
42
0.0
10
79.2603988647461
20
82.6616973876953
40
0.0
41
0.0
42
0.0
10
79.3520965576172
20
82.5539016723633
40
0.0
41
0.0
42
0.0
10
79.3880004882812
20
82.4907989501953
40
0.0
41
0.0
42
0.0
10
79.497802734375
20
82.3180999755859
40
0.0
41
0.0
42
0.0
10
79.5350036621094
20
82.254997253418
40
0.0
41
0.0
42
0.0
10
79.6723022460938
20
81.9881973266602
40
0.0
41
0.0
42
0.0
10
79.7547988891602
20
81.752197265625
40
0.0
41
0.0
42
0.0
10
79.8571014404297
20
81.4852981567383
40
0.0
41
0.0
42
0.0
10
79.8900985717773
20
81.2598037719727
40
0.0
41
0.0
42
0.0
10
79.9757995605469
20
80.9974975585938
40
0.0
41
0.0
42
0.0
10
79.9709014892578
20
80.9759979248047
40
0.0
41
0.0
42
0.0
10
79.9708023071289
20
80.9394989013672
40
0.0
41
0.0
42
0.0
10
80.0008010864258
20
80.6757965087891
40
0.0
41
0.0
42
0.0
10
80.0164031982422
20
80.4837036132812
40
0.0
41
0.0
42
0.0
10
80.0199966430664
20
80.4714965820312
40
0.0
41
0.0
42
0.0
10
79.9988021850586
20
80.4142990112305
40
0.0
41
0.0
42
0.0
10
79.7294998168945
20
80.0065002441406
40
0.0
41
0.0
42
0.0
10
79.6092987060547
20
79.8891983032227
40
0.0
41
0.0
42
0.0
10
79.5177001953125
20
79.9113006591797
40
0.0
41
0.0
42
0.0
10
79.3867034912109
20
79.908203125
40
0.0
41
0.0
42
0.0
10
78.9415969848633
20
79.7977981567383
40
0.0
41
0.0
42
0.0
10
78.7188034057617
20
79.7345962524414
40
0.0
41
0.0
42
0.0
10
78.4853973388672
20
79.6820983886719
40
0.0
41
0.0
42
0.0
10
78.2997970581055
20
79.6235961914062
40
0.0
41
0.0
42
0.0
10
78.0345001220703
20
79.5010986328125
40
0.0
41
0.0
42
0.0
10
77.9927978515625
20
79.4794998168945
40
0.0
41
0.0
42
0.0
10
77.5469970703125
20
79.0077972412109
40
0.0
41
0.0
42
0.0
10
77.5151977539062
20
78.9443969726562
40
0.0
41
0.0
42
0.0
10
77.5005035400391
20
78.8815002441406
40
0.0
41
0.0
42
0.0
10
77.4307022094727
20
78.5158004760742
40
0.0
41
0.0
42
0.0
10
77.3748016357422
20
78.252799987793
40
0.0
41
0.0
42
0.0
10
77.3749008178711
20
78.2156982421875
40
0.0
41
0.0
42
0.0
10
77.3908996582031
20
77.9912033081055
40
0.0
41
0.0
42
0.0
10
77.4095993041992
20
77.7679977416992
40
0.0
41
0.0
42
0.0
10
77.3798980712891
20
77.5186996459961
40
0.0
41
0.0
42
0.0
10
77.3797988891602
20
77.4830017089844
40
0.0
41
0.0
42
0.0
10
77.4173965454102
20
77.3583984375
40
0.0
41
0.0
42
0.0
10
77.4937973022461
20
77.2277984619141
40
0.0
41
0.0
42
0.0
10
77.7261962890625
20
77.1607971191406
40
0.0
41
0.0
42
0.0
10
77.9825973510742
20
77.0958023071289
40
0.0
41
0.0
42
0.0
10
78.0195007324219
20
77.095703125
40
0.0
41
0.0
42
0.0
10
78.2559967041016
20
77.105598449707
40
0.0
41
0.0
42
0.0
10
78.481201171875
20
77.0779037475586
40
0.0
41
0.0
42
0.0
10
78.5183029174805
20
77.0777969360352
40
0.0
41
0.0
42
0.0
10
78.761100769043
20
77.117301940918
40
0.0
41
0.0
42
0.0
10
78.9813003540039
20
77.089599609375
40
0.0
41
0.0
42
0.0
10
79.0142974853516
20
77.0895004272461
40
0.0
41
0.0
42
0.0
10
79.1887969970703
20
77.1912002563477
40
0.0
41
0.0
42
0.0
10
79.2212982177734
20
77.2080001831055
40
0.0
41
0.0
42
0.0
10
79.5093002319336
20
77.2489013671875
40
0.0
41
0.0
42
0.0
10
79.7223968505859
20
77.4922027587891
40
0.0
41
0.0
42
0.0
10
80.0031967163086
20
77.9887008666992
40
0.0
41
0.0
42
0.0
10
80.177001953125
20
78.4843978881836
40
0.0
41
0.0
42
0.0
10
80.1862030029297
20
78.5912017822266
40
0.0
41
0.0
42
0.0
10
80.2106018066406
20
78.7501983642578
40
0.0
41
0.0
42
0.0
10
80.2599029541016
20
78.885498046875
40
0.0
41
0.0
42
0.0
10
80.3262023925781
20
78.986198425293
40
0.0
41
0.0
42
0.0
10
80.3261032104492
20
79.0175018310547
40
0.0
41
0.0
42
0.0
10
80.3094024658203
20
79.0877990722656
40
0.0
41
0.0
42
0.0
10
80.2855987548828
20
79.2129974365234
40
0.0
41
0.0
42
0.0
10
80.5150985717773
20
79.3184967041016
40
0.0
41
0.0
42
0.0
10
80.8395004272461
20
79.3271026611328
40
0.0
41
0.0
42
0.0
10
81.0031967163086
20
79.4389038085938
40
0.0
41
0.0
42
0.0
10
81.2485961914062
20
79.3517990112305
40
0.0
41
0.0
42
0.0
10
81.4831008911133
20
79.3499984741211
40
0.0
41
0.0
42
0.0
10
81.7219009399414
20
79.2786026000977
40
0.0
41
0.0
42
0.0
10
81.9885025024414
20
79.1699981689453
40
0.0
41
0.0
42
0.0
10
82.0875015258789
20
79.121696472168
40
0.0
41
0.0
42
0.0
10
82.3315963745117
20
78.9983978271484
40
0.0
41
0.0
42
0.0
10
82.4912033081055
20
78.9057006835938
40
0.0
41
0.0
42
0.0
10
82.7574996948242
20
78.7218017578125
40
0.0
41
0.0
42
0.0
10
82.9508972167969
20
78.565299987793
40
0.0
41
0.0
42
0.0
10
82.9932022094727
20
78.526496887207
40
0.0
41
0.0
42
0.0
10
83.0364990234375
20
78.4956970214844
40
0.0
41
0.0
42
0.0
10
83.0947036743164
20
78.4317016601562
40
0.0
41
0.0
42
0.0
10
83.2626037597656
20
78.1762008666992
40
0.0
41
0.0
42
0.0
10
83.3703994750977
20
78.0008010864258
40
0.0
41
0.0
42
0.0
10
83.3770980834961
20
77.9857025146484
40
0.0
41
0.0
42
0.0
10
83.4431991577148
20
77.5014038085938
40
0.0
41
0.0
42
0.0
10
83.4237976074219
20
77.3824005126953
40
0.0
41
0.0
42
0.0
10
83.3724975585938
20
77.0151977539062
40
0.0
41
0.0
42
0.0
10
83.2846984863281
20
76.7480010986328
40
0.0
41
0.0
42
0.0
10
83.1952972412109
20
76.5118026733398
40
0.0
41
0.0
42
0.0
10
83.0692977905273
20
76.2456970214844
40
0.0
41
0.0
42
0.0
10
82.9980010986328
20
76.1052017211914
40
0.0
41
0.0
42
0.0
10
82.7443008422852
20
75.7425003051758
40
0.0
41
0.0
42
0.0
10
82.5639038085938
20
75.5082015991211
40
0.0
41
0.0
42
0.0
10
82.4952011108398
20
75.3911972045898
40
0.0
41
0.0
42
0.0
10
82.2332992553711
20
75.2449035644531
40
0.0
41
0.0
42
0.0
10
82.0
20
75.1268005371094
40
0.0
41
0.0
42
0.0
10
81.7526016235352
20
75.253303527832
40
0.0
41
0.0
42
0.0
10
81.5082015991211
20
75.372200012207
40
0.0
41
0.0
42
0.0
10
81.3575973510742
20
75.5028991699219
40
0.0
41
0.0
42
0.0
10
81.0095977783203
20
75.71240234375
40
0.0
41
0.0
42
0.0
10
80.5122985839844
20
75.9731979370117
40
0.0
41
0.0
42
0.0
10
80.4727020263672
20
75.9835968017578
40
0.0
41
0.0
42
0.0
10
80.4001007080078
20
75.9994964599609
40
0.0
41
0.0
42
0.0
10
80.0169982910156
20
76.1076965332031
40
0.0
41
0.0
42
0.0
10
79.9831008911133
20
76.1075973510742
40
0.0
41
0.0
42
0.0
10
79.625602722168
20
75.9996032714844
40
0.0
41
0.0
42
0.0
10
79.4876022338867
20
75.9714965820312
40
0.0
41
0.0
42
0.0
10
79.448600769043
20
75.9480972290039
40
0.0
41
0.0
42
0.0
10
79.1447982788086
20
75.7366027832031
40
0.0
41
0.0
42
0.0
10
79.0696029663086
20
75.6865997314453
40
0.0
41
0.0
42
0.0
10
78.9949035644531
20
75.6248016357422
40
0.0
41
0.0
42
0.0
10
78.7595977783203
20
75.338996887207
40
0.0
41
0.0
42
0.0
10
78.4908981323242
20
75.1389007568359
40
0.0
41
0.0
42
0.0
10
78.423698425293
20
75.1067962646484
40
0.0
41
0.0
42
0.0
10
78.3337020874023
20
75.0115966796875
40
0.0
41
0.0
42
0.0
10
78.3336029052734
20
74.9828033447266
40
0.0
41
0.0
42
0.0
10
78.399299621582
20
74.7496032714844
40
0.0
41
0.0
42
0.0
10
78.4453964233398
20
74.4924011230469
40
0.0
41
0.0
42
0.0
10
78.4616012573242
20
74.4815979003906
40
0.0
41
0.0
42
0.0
10
78.4949035644531
20
74.4433975219727
40
0.0
41
0.0
42
0.0
10
78.7601013183594
20
74.2053985595703
40
0.0
41
0.0
42
0.0
10
78.9262008666992
20
74.0056991577148
40
0.0
41
0.0
42
0.0
10
78.9364013671875
20
73.9912033081055
40
0.0
41
0.0
42
0.0
10
78.9963989257812
20
73.8864974975586
40
0.0
41
0.0
42
0.0
10
79.010498046875
20
73.8739013671875
40
0.0
41
0.0
42
0.0
10
79.2581024169922
20
73.7088012695312
40
0.0
41
0.0
42
0.0
10
79.3764038085938
20
73.5960998535156
40
0.0
41
0.0
42
0.0
10
79.4881973266602
20
73.5161972045898
40
0.0
41
0.0
42
0.0
10
79.5779037475586
20
73.5005035400391
40
0.0
41
0.0
42
0.0
10
79.9825973510742
20
73.3948974609375
40
0.0
41
0.0
42
0.0
10
80.0161972045898
20
73.3948974609375
40
0.0
41
0.0
42
0.0
10
80.1485977172852
20
73.4432983398438
40
0.0
41
0.0
42
0.0
10
80.3933029174805
20
73.5003967285156
40
0.0
41
0.0
42
0.0
10
80.5133972167969
20
73.5261993408203
40
0.0
41
0.0
42
0.0
10
80.7462005615234
20
73.630500793457
40
0.0
41
0.0
42
0.0
10
81.2902984619141
20
73.8890991210938
40
0.0
41
0.0
42
0.0
10
81.5030975341797
20
73.9971008300781
40
0.0
41
0.0
42
0.0
10
81.5074005126953
20
74.0015029907227
40
0.0
41
0.0
42
0.0
10
81.9968032836914
20
74.2276992797852
40
0.0
41
0.0
42
0.0
10
82.1691970825195
20
73.9955978393555
40
0.0
41
0.0
42
0.0
10
82.4952011108398
20
73.7935028076172
40
0.0
41
0.0
42
0.0
10
82.5186996459961
20
73.7546997070312
40
0.0
41
0.0
42
0.0
10
82.6380004882812
20
73.489501953125
40
0.0
41
0.0
42
0.0
10
82.7718963623047
20
73.2544021606445
40
0.0
41
0.0
42
0.0
10
82.8904037475586
20
72.9876022338867
40
0.0
41
0.0
42
0.0
10
82.9141006469727
20
72.9190979003906
40
0.0
41
0.0
42
0.0
10
82.9998016357422
20
72.6847991943359
40
0.0
41
0.0
42
0.0
10
83.0671005249023
20
72.4848022460938
40
0.0
41
0.0
42
0.0
10
83.1016006469727
20
72.2487030029297
40
0.0
41
0.0
42
0.0
10
83.1575012207031
20
71.9962005615234
40
0.0
41
0.0
42
0.0
10
83.1279983520508
20
71.7835006713867
40
0.0
41
0.0
42
0.0
10
83.1278991699219
20
71.7454986572266
40
0.0
41
0.0
42
0.0
10
83.1399002075195
20
71.5114974975586
40
0.0
41
0.0
42
0.0
10
83.0607986450195
20
71.2453002929688
40
0.0
41
0.0
42
0.0
10
82.9974975585938
20
71.1623001098633
40
0.0
41
0.0
42
0.0
10
82.9108963012695
20
71.0074996948242
40
0.0
41
0.0
42
0.0
10
82.6612014770508
20
70.7388000488281
40
0.0
41
0.0
42
0.0
10
82.5725021362305
20
70.6809997558594
40
0.0
41
0.0
42
0.0
10
82.4925003051758
20
70.6128005981445
40
0.0
41
0.0
42
0.0
10
82.3181991577148
20
70.5019989013672
40
0.0
41
0.0
42
0.0
10
82.2550964355469
20
70.4646987915039
40
0.0
41
0.0
42
0.0
10
81.9882965087891
20
70.3274002075195
40
0.0
41
0.0
42
0.0
10
81.752197265625
20
70.245002746582
40
0.0
41
0.0
42
0.0
10
81.4852981567383
20
70.1426010131836
40
0.0
41
0.0
42
0.0
10
81.2599029541016
20
70.1095962524414
40
0.0
41
0.0
42
0.0
10
80.9974975585938
20
70.0239028930664
40
0.0
41
0.0
42
0.0
10
80.9759979248047
20
70.0289993286133
40
0.0
41
0.0
42
0.0
10
80.9394989013672
20
70.0289001464844
40
0.0
41
0.0
42
0.0
10
80.6757965087891
20
69.9990005493164
40
0.0
41
0.0
42
0.0
10
80.4838027954102
20
69.9832992553711
40
0.0
41
0.0
42
0.0
10
80.4714965820312
20
69.9796981811523
40
0.0
41
0.0
42
0.0
10
80.4141998291016
20
70.0009994506836
40
0.0
41
0.0
42
0.0
10
80.0064010620117
20
70.2702026367188
40
0.0
41
0.0
42
0.0
10
79.8892974853516
20
70.3905029296875
40
0.0
41
0.0
42
0.0
10
79.9113006591797
20
70.4822006225586
40
0.0
41
0.0
42
0.0
10
79.908203125
20
70.6130981445312
40
0.0
41
0.0
42
0.0
10
79.7976989746094
20
71.0587005615234
40
0.0
41
0.0
42
0.0
10
79.7498016357422
20
71.2645034790039
40
0.0
41
0.0
42
0.0
10
79.6821975708008
20
71.5139999389648
40
0.0
41
0.0
42
0.0
10
79.6235961914062
20
71.6999969482422
40
0.0
41
0.0
42
0.0
10
79.5009994506836
20
71.9653015136719
40
0.0
41
0.0
42
0.0
10
79.4794998168945
20
72.0071029663086
40
0.0
41
0.0
42
0.0
10
79.007698059082
20
72.4526977539062
40
0.0
41
0.0
42
0.0
10
78.9442977905273
20
72.4844970703125
40
0.0
41
0.0
42
0.0
10
78.8815002441406
20
72.4992980957031
40
0.0
41
0.0
42
0.0
10
78.5158004760742
20
72.5690002441406
40
0.0
41
0.0
42
0.0
10
78.252799987793
20
72.6249008178711
40
0.0
41
0.0
42
0.0
10
78.2156982421875
20
72.6248016357422
40
0.0
41
0.0
42
0.0
10
78.0045013427734
20
72.6098022460938
40
0.0
41
0.0
42
0.0
10
77.7537002563477
20
72.6399002075195
40
0.0
41
0.0
42
0.0
10
77.7157974243164
20
72.6399002075195
40
0.0
41
0.0
42
0.0
10
77.4838027954102
20
72.6201019287109
40
0.0
41
0.0
42
0.0
10
77.3583984375
20
72.5823974609375
40
0.0
41
0.0
42
0.0
10
77.227897644043
20
72.506103515625
40
0.0
41
0.0
42
0.0
10
77.1607971191406
20
72.2735977172852
40
0.0
41
0.0
42
0.0
10
77.0958023071289
20
72.0173034667969
40
0.0
41
0.0
42
0.0
10
77.095703125
20
71.9804000854492
40
0.0
41
0.0
42
0.0
10
77.105598449707
20
71.743896484375
40
0.0
41
0.0
42
0.0
10
77.0779037475586
20
71.5186996459961
40
0.0
41
0.0
42
0.0
10
77.0777969360352
20
71.4815979003906
40
0.0
41
0.0
42
0.0
10
77.117301940918
20
71.2387008666992
40
0.0
41
0.0
42
0.0
10
77.089599609375
20
71.0186004638672
40
0.0
41
0.0
42
0.0
10
77.0895004272461
20
70.9856033325195
40
0.0
41
0.0
42
0.0
10
77.1911010742188
20
70.8109970092773
40
0.0
41
0.0
42
0.0
10
77.2079010009766
20
70.7785034179688
40
0.0
41
0.0
42
0.0
10
77.2489013671875
20
70.4906005859375
40
0.0
41
0.0
42
0.0
10
77.4921035766602
20
70.2772979736328
40
0.0
41
0.0
42
0.0
10
77.9886016845703
20
69.9964981079102
40
0.0
41
0.0
42
0.0
10
78.4843978881836
20
69.8227005004883
40
0.0
41
0.0
42
0.0
10
78.5912017822266
20
69.8134994506836
40
0.0
41
0.0
42
0.0
10
78.7501983642578
20
69.7891006469727
40
0.0
41
0.0
42
0.0
10
78.8853988647461
20
69.7397994995117
40
0.0
41
0.0
42
0.0
10
78.986198425293
20
69.673698425293
40
0.0
41
0.0
42
0.0
10
79.0175018310547
20
69.6735992431641
40
0.0
41
0.0
42
0.0
10
79.0878982543945
20
69.690299987793
40
0.0
41
0.0
42
0.0
10
79.2129974365234
20
69.7142028808594
40
0.0
41
0.0
42
0.0
10
79.3184967041016
20
69.4848022460938
40
0.0
41
0.0
42
0.0
10
79.3270034790039
20
69.1603012084961
40
0.0
41
0.0
42
0.0
10
79.4389038085938
20
68.996696472168
40
0.0
41
0.0
42
0.0
10
79.3517990112305
20
68.7512969970703
40
0.0
41
0.0
42
0.0
10
79.3499984741211
20
68.5167999267578
40
0.0
41
0.0
42
0.0
10
79.2787017822266
20
68.2779998779297
40
0.0
41
0.0
42
0.0
10
79.1699981689453
20
68.0113983154297
40
0.0
41
0.0
42
0.0
10
79.121696472168
20
67.9123001098633
40
0.0
41
0.0
42
0.0
10
78.9983978271484
20
67.668098449707
40
0.0
41
0.0
42
0.0
10
78.9057998657227
20
67.5086975097656
40
0.0
41
0.0
42
0.0
10
78.7218017578125
20
67.242301940918
40
0.0
41
0.0
42
0.0
10
78.5653991699219
20
67.0487976074219
40
0.0
41
0.0
42
0.0
10
78.526496887207
20
67.0066986083984
40
0.0
41
0.0
42
0.0
10
78.4947967529297
20
66.9618988037109
40
0.0
41
0.0
42
0.0
10
78.3816986083984
20
66.8874969482422
40
0.0
41
0.0
42
0.0
10
78.1761016845703
20
66.7369003295898
40
0.0
41
0.0
42
0.0
10
78.1574020385742
20
66.7276000976562
40
0.0
41
0.0
42
0.0
10
77.9871978759766
20
66.622802734375
40
0.0
41
0.0
42
0.0
10
77.5014038085938
20
66.5566024780273
40
0.0
41
0.0
42
0.0
10
77.3824005126953
20
66.5759963989258
40
0.0
41
0.0
42
0.0
10
77.0151977539062
20
66.6272964477539
40
0.0
41
0.0
42
0.0
10
76.7479019165039
20
66.7149963378906
40
0.0
41
0.0
42
0.0
10
76.5117034912109
20
66.8043975830078
40
0.0
41
0.0
42
0.0
10
76.2455978393555
20
66.9303970336914
40
0.0
41
0.0
42
0.0
10
76.1052017211914
20
67.0018005371094
40
0.0
41
0.0
42
0.0
10
76.007698059082
20
67.0695037841797
40
0.0
41
0.0
42
0.0
10
75.7483978271484
20
67.2619018554688
40
0.0
41
0.0
42
0.0
10
75.5083999633789
20
67.4356002807617
40
0.0
41
0.0
42
0.0
10
75.3902969360352
20
67.5052032470703
40
0.0
41
0.0
42
0.0
10
75.2677001953125
20
67.7763977050781
40
0.0
41
0.0
42
0.0
10
75.127197265625
20
68.0010986328125
40
0.0
41
0.0
42
0.0
10
75.3723983764648
20
68.49169921875
40
0.0
41
0.0
42
0.0
10
75.5028991699219
20
68.6420974731445
40
0.0
41
0.0
42
0.0
10
75.7125015258789
20
68.9901962280273
40
0.0
41
0.0
42
0.0
10
75.9732971191406
20
69.4876022338867
40
0.0
41
0.0
42
0.0
10
75.9837036132812
20
69.527099609375
40
0.0
41
0.0
42
0.0
10
75.9994964599609
20
69.5997009277344
40
0.0
41
0.0
42
0.0
10
76.1076965332031
20
69.9829025268555
40
0.0
41
0.0
42
0.0
10
76.1074981689453
20
70.0167999267578
40
0.0
41
0.0
42
0.0
10
75.9994964599609
20
70.3741989135742
40
0.0
41
0.0
42
0.0
10
75.9713973999023
20
70.5121994018555
40
0.0
41
0.0
42
0.0
10
75.9480972290039
20
70.5513000488281
40
0.0
41
0.0
42
0.0
10
75.6866989135742
20
70.9300994873047
40
0.0
41
0.0
42
0.0
10
75.6248016357422
20
71.004997253418
40
0.0
41
0.0
42
0.0
10
75.338996887207
20
71.2403030395508
40
0.0
41
0.0
42
0.0
10
75.138801574707
20
71.5090026855469
40
0.0
41
0.0
42
0.0
10
75.1066970825195
20
71.5759963989258
40
0.0
41
0.0
42
0.0
10
75.0115966796875
20
71.6661987304688
40
0.0
41
0.0
42
0.0
10
74.9817962646484
20
71.6660995483398
40
0.0
41
0.0
42
0.0
10
74.7197036743164
20
71.6190032958984
40
0.0
41
0.0
42
0.0
10
74.4931030273438
20
71.5553970336914
40
0.0
41
0.0
42
0.0
10
74.4815979003906
20
71.538200378418
40
0.0
41
0.0
42
0.0
10
74.4433975219727
20
71.5048980712891
40
0.0
41
0.0
42
0.0
10
74.2054977416992
20
71.2397994995117
40
0.0
41
0.0
42
0.0
10
74.0056991577148
20
71.0735015869141
40
0.0
41
0.0
42
0.0
10
73.9912033081055
20
71.0634002685547
40
0.0
41
0.0
42
0.0
10
73.8877029418945
20
71.0040969848633
40
0.0
41
0.0
42
0.0
10
73.709098815918
20
70.742301940918
40
0.0
41
0.0
42
0.0
10
73.5160980224609
20
70.5108032226562
40
0.0
41
0.0
42
0.0
10
73.5005035400391
20
70.4218978881836
40
0.0
41
0.0
42
0.0
10
73.3948974609375
20
70.0173034667969
40
0.0
41
0.0
42
0.0
10
73.3947982788086
20
69.9837036132812
40
0.0
41
0.0
42
0.0
10
73.4431991577148
20
69.8510971069336
40
0.0
41
0.0
42
0.0
10
73.5003967285156
20
69.6065979003906
40
0.0
41
0.0
42
0.0
10
73.5261001586914
20
69.4865036010742
40
0.0
41
0.0
42
0.0
10
73.630500793457
20
69.2537002563477
40
0.0
41
0.0
42
0.0
10
73.8890991210938
20
68.7095031738281
40
0.0
41
0.0
42
0.0
10
73.9969024658203
20
68.4968032836914
40
0.0
41
0.0
42
0.0
10
74.0014038085938
20
68.4925003051758
40
0.0
41
0.0
42
0.0
10
74.2277984619141
20
68.0030975341797
40
0.0
41
0.0
42
0.0
10
73.9956970214844
20
67.8305969238281
40
0.0
41
0.0
42
0.0
10
73.7936019897461
20
67.5046005249023
40
0.0
41
0.0
42
0.0
10
73.7546997070312
20
67.4810028076172
40
0.0
41
0.0
42
0.0
10
73.2245025634766
20
67.2441024780273
40
0.0
41
0.0
42
0.0
10
72.9887008666992
20
67.1095962524414
40
0.0
41
0.0
42
0.0
10
72.9190979003906
20
67.0856018066406
40
0.0
41
0.0
42
0.0
10
72.6839981079102
20
66.9998016357422
40
0.0
41
0.0
42
0.0
10
72.4856033325195
20
66.9328002929688
40
0.0
41
0.0
42
0.0
10
72.2186965942383
20
66.8738021850586
40
0.0
41
0.0
42
0.0
10
71.9820022583008
20
66.8392028808594
40
0.0
41
0.0
42
0.0
10
71.7432022094727
20
66.8270034790039
40
0.0
41
0.0
42
0.0
10
71.5154037475586
20
66.8585968017578
40
0.0
41
0.0
42
0.0
10
71.2415008544922
20
66.940803527832
40
0.0
41
0.0
42
0.0
10
71.1622009277344
20
67.0022964477539
40
0.0
41
0.0
42
0.0
10
71.0068969726562
20
67.0891036987305
40
0.0
41
0.0
42
0.0
10
70.6821975708008
20
67.4256973266602
40
0.0
41
0.0
42
0.0
10
70.6127014160156
20
67.5074005126953
40
0.0
41
0.0
42
0.0
10
70.5019989013672
20
67.6816024780273
40
0.0
41
0.0
42
0.0
10
70.464599609375
20
67.7447967529297
40
0.0
41
0.0
42
0.0
10
70.3274002075195
20
68.0115966796875
40
0.0
41
0.0
42
0.0
10
70.2449035644531
20
68.2477035522461
40
0.0
41
0.0
42
0.0
10
70.1426010131836
20
68.5146026611328
40
0.0
41
0.0
42
0.0
10
70.1095962524414
20
68.7398986816406
40
0.0
41
0.0
42
0.0
10
70.0239028930664
20
69.0024032592773
40
0.0
41
0.0
42
0.0
10
70.0289993286133
20
69.0239028930664
40
0.0
41
0.0
42
0.0
10
70.0289001464844
20
69.060302734375
40
0.0
41
0.0
42
0.0
10
69.9990005493164
20
69.3239974975586
40
0.0
41
0.0
42
0.0
10
69.9832000732422
20
69.5160980224609
40
0.0
41
0.0
42
0.0
10
69.9796981811523
20
69.5281982421875
40
0.0
41
0.0
42
0.0
10
70.0010986328125
20
69.5856018066406
40
0.0
41
0.0
42
0.0
10
70.2703018188477
20
69.9934005737305
40
0.0
41
0.0
42
0.0
10
70.3905029296875
20
70.1103973388672
40
0.0
41
0.0
42
0.0
10
70.4822006225586
20
70.0884017944336
40
0.0
41
0.0
42
0.0
10
70.6131973266602
20
70.0914993286133
40
0.0
41
0.0
42
0.0
10
71.0146026611328
20
70.1906967163086
40
0.0
41
0.0
42
0.0
10
71.2230987548828
20
70.2503967285156
40
0.0
41
0.0
42
0.0
10
71.2813034057617
20
70.2652969360352
40
0.0
41
0.0
42
0.0
10
71.5145034790039
20
70.3175964355469
40
0.0
41
0.0
42
0.0
10
71.7001037597656
20
70.3761978149414
40
0.0
41
0.0
42
0.0
10
71.9654006958008
20
70.4988021850586
40
0.0
41
0.0
42
0.0
10
72.0071029663086
20
70.5203018188477
40
0.0
41
0.0
42
0.0
10
72.4527969360352
20
70.9921035766602
40
0.0
41
0.0
42
0.0
10
72.4844970703125
20
71.0554962158203
40
0.0
41
0.0
42
0.0
10
72.4992980957031
20
71.1184005737305
40
0.0
41
0.0
42
0.0
10
72.5690002441406
20
71.4841003417969
40
0.0
41
0.0
42
0.0
10
72.6249008178711
20
71.7471008300781
40
0.0
41
0.0
42
0.0
10
72.6248016357422
20
71.7842025756836
40
0.0
41
0.0
42
0.0
10
72.6098022460938
20
71.9953994750977
40
0.0
41
0.0
42
0.0
10
72.6399002075195
20
72.2462005615234
40
0.0
41
0.0
42
0.0
10
72.6398010253906
20
72.2841033935547
40
0.0
41
0.0
42
0.0
10
72.6201019287109
20
72.515998840332
40
0.0
41
0.0
42
0.0
10
72.5822982788086
20
72.6414031982422
40
0.0
41
0.0
42
0.0
10
72.5062026977539
20
72.7714996337891
40
0.0
41
0.0
42
0.0
10
72.249397277832
20
72.8367004394531
40
0.0
41
0.0
42
0.0
10
72.0169982910156
20
72.9040985107422
40
0.0
41
0.0
42
0.0
10
71.9804000854492
20
72.9039993286133
40
0.0
41
0.0
42
0.0
10
71.743896484375
20
72.8940963745117
40
0.0
41
0.0
42
0.0
10
71.5186996459961
20
72.9219970703125
40
0.0
41
0.0
42
0.0
10
71.4816970825195
20
72.9218978881836
40
0.0
41
0.0
42
0.0
10
71.2387008666992
20
72.8824005126953
40
0.0
41
0.0
42
0.0
10
71.0186004638672
20
72.9103012084961
40
0.0
41
0.0
42
0.0
10
70.9856033325195
20
72.9102020263672
40
0.0
41
0.0
42
0.0
10
70.8109970092773
20
72.8086013793945
40
0.0
41
0.0
42
0.0
10
70.7786026000977
20
72.7918014526367
40
0.0
41
0.0
42
0.0
10
70.4906005859375
20
72.7509002685547
40
0.0
41
0.0
42
0.0
10
70.2772979736328
20
72.5077972412109
40
0.0
41
0.0
42
0.0
10
69.9964981079102
20
72.0111999511719
40
0.0
41
0.0
42
0.0
10
69.8226013183594
20
71.5150985717773
40
0.0
41
0.0
42
0.0
10
69.7891998291016
20
71.2488021850586
40
0.0
41
0.0
42
0.0
10
69.673698425293
20
71.0149993896484
40
0.0
41
0.0
42
0.0
10
69.6735992431641
20
70.9823989868164
40
0.0
41
0.0
42
0.0
10
69.690299987793
20
70.9119033813477
40
0.0
41
0.0
42
0.0
10
69.7143020629883
20
70.7866973876953
40
0.0
41
0.0
42
0.0
10
69.4848022460938
20
70.6812973022461
40
0.0
41
0.0
42
0.0
10
69.1603012084961
20
70.6726989746094
40
0.0
41
0.0
42
0.0
10
68.996696472168
20
70.5606994628906
40
0.0
41
0.0
42
0.0
10
68.7511978149414
20
70.6479034423828
40
0.0
41
0.0
42
0.0
10
68.5157012939453
20
70.6498031616211
40
0.0
41
0.0
42
0.0
10
68.2479019165039
20
70.758903503418
40
0.0
41
0.0
42
0.0
10
68.0122985839844
20
70.8292999267578
40
0.0
41
0.0
42
0.0
10
67.9123001098633
20
70.8779983520508
40
0.0
41
0.0
42
0.0
10
67.668098449707
20
71.0014038085938
40
0.0
41
0.0
42
0.0
10
67.5086975097656
20
71.0940017700195
40
0.0
41
0.0
42
0.0
10
67.242301940918
20
71.2779006958008
40
0.0
41
0.0
42
0.0
10
67.0487976074219
20
71.4344024658203
40
0.0
41
0.0
42
0.0
10
67.0065994262695
20
71.4731979370117
40
0.0
41
0.0
42
0.0
10
66.961799621582
20
71.5050964355469
40
0.0
41
0.0
42
0.0
10
66.8868026733398
20
71.6191024780273
40
0.0
41
0.0
42
0.0
10
66.8804016113281
20
71.6302032470703
40
0.0
41
0.0
42
0.0
210
0.0
220
0.0
230
1.0
0
LWPOLYLINE
5
26
330
1C
100
AcDbEntity
67
0
8
0
62
256
6
ByLayer
370
-1
48
1.0
60
0
100
AcDbPolyline
90
46
70
1
38
0.0
39
0.0
10
67.299201965332
20
65.2484970092773
40
0.0
41
0.0
42
0.0
10
67.3541030883789
20
65.0009994506836
40
0.0
41
0.0
42
0.0
10
67.3820037841797
20
65.0009994506836
40
0.0
41
0.0
42
0.0
10
67.3817977905273
20
65.0176010131836
40
0.0
41
0.0
42
0.0
10
67.3363037109375
20
65.2238998413086
40
0.0
41
0.0
42
0.0
10
67.3647003173828
20
65.4869003295898
40
0.0
41
0.0
42
0.0
10
67.4793014526367
20
65.6735992431641
40
0.0
41
0.0
42
0.0
10
67.5130004882812
20
65.6923980712891
40
0.0
41
0.0
42
0.0
10
67.7413024902344
20
65.7276992797852
40
0.0
41
0.0
42
0.0
10
68.0145034790039
20
65.8510971069336
40
0.0
41
0.0
42
0.0
10
68.1940994262695
20
65.8691024780273
40
0.0
41
0.0
42
0.0
10
68.480598449707
20
65.8591003417969
40
0.0
41
0.0
42
0.0
10
68.6816024780273
20
65.8545989990234
40
0.0
41
0.0
42
0.0
10
68.9816970825195
20
65.8321990966797
40
0.0
41
0.0
42
0.0
10
69.4823989868164
20
65.7853012084961
40
0.0
41
0.0
42
0.0
10
69.7482986450195
20
65.7482986450195
40
0.0
41
0.0
42
0.0
10
69.9849014282227
20
65.7040023803711
40
0.0
41
0.0
42
0.0
10
70.2498016357422
20
65.6257019042969
40
0.0
41
0.0
42
0.0
10
70.4904022216797
20
65.5178985595703
40
0.0
41
0.0
42
0.0
10
70.5323028564453
20
65.4879989624023
40
0.0
41
0.0
42
0.0
10
70.9922027587891
20
65.2218017578125
40
0.0
41
0.0
42
0.0
10
71.0186996459961
20
65.198600769043
40
0.0
41
0.0
42
0.0
10
71.2133026123047
20
65.0009994506836
40
0.0
41
0.0
42
0.0
10
71.2496032714844
20
65.0009994506836
40
0.0
41
0.0
42
0.0
10
71.2494964599609
20
65.0112991333008
40
0.0
41
0.0
42
0.0
10
71.0258026123047
20
65.2387008666992
40
0.0
41
0.0
42
0.0
10
71.0075988769531
20
65.2545013427734
40
0.0
41
0.0
42
0.0
10
70.6278991699219
20
65.4742965698242
40
0.0
41
0.0
42
0.0
10
70.5857009887695
20
65.5027008056641
40
0.0
41
0.0
42
0.0
10
70.5093002319336
20
65.5588989257812
40
0.0
41
0.0
42
0.0
10
70.3155975341797
20
65.6455993652344
40
0.0
41
0.0
42
0.0
10
70.0149993896484
20
65.7343978881836
40
0.0
41
0.0
42
0.0
10
69.8216018676758
20
65.7706985473633
40
0.0
41
0.0
42
0.0
10
69.5175018310547
20
65.8128967285156
40
0.0
41
0.0
42
0.0
10
69.0182037353516
20
65.8599014282227
40
0.0
41
0.0
42
0.0
10
68.6743011474609
20
65.8855972290039
40
0.0
41
0.0
42
0.0
10
68.5193023681641
20
65.8890991210938
40
0.0
41
0.0
42
0.0
10
68.157096862793
20
65.9018020629883
40
0.0
41
0.0
42
0.0
10
68.1184997558594
20
65.9018020629883
40
0.0
41
0.0
42
0.0
10
67.9854965209961
20
65.8883972167969
40
0.0
41
0.0
42
0.0
10
67.7834014892578
20
65.7969970703125
40
0.0
41
0.0
42
0.0
10
67.4869003295898
20
65.7511978149414
40
0.0
41
0.0
42
0.0
10
67.4614028930664
20
65.7370986938477
40
0.0
41
0.0
42
0.0
10
67.3237991333008
20
65.5130004882812
40
0.0
41
0.0
42
0.0
10
67.2993011474609
20
65.2851028442383
40
0.0
41
0.0
42
0.0
10
67.299201965332
20
65.2484970092773
40
0.0
41
0.0
42
0.0
210
0.0
220
0.0
230
1.0
0
LWPOLYLINE
5
27
330
1C
100
AcDbEntity
67
0
8
0
62
256
6
ByLayer
370
-1
48
1.0
60
0
100
AcDbPolyline
90
34
70
1
38
0.0
39
0.0
10
68.4150009155273
20
84.9903030395508
40
0.0
41
0.0
42
0.0
10
68.4908981323242
20
84.9320983886719
40
0.0
41
0.0
42
0.0
10
68.5093002319336
20
84.9234008789062
40
0.0
41
0.0
42
0.0
10
68.984001159668
20
84.7853012084961
40
0.0
41
0.0
42
0.0
10
69.4813003540039
20
84.7325973510742
40
0.0
41
0.0
42
0.0
10
69.6757965087891
20
84.7285003662109
40
0.0
41
0.0
42
0.0
10
69.980598449707
20
84.7097015380859
40
0.0
41
0.0
42
0.0
10
70.0195007324219
20
84.709602355957
40
0.0
41
0.0
42
0.0
10
70.19580078125
20
84.7173004150391
40
0.0
41
0.0
42
0.0
10
70.4804000854492
20
84.7060012817383
40
0.0
41
0.0
42
0.0
10
70.5183029174805
20
84.7059020996094
40
0.0
41
0.0
42
0.0
10
70.7133026123047
20
84.7360992431641
40
0.0
41
0.0
42
0.0
10
71.0186004638672
20
84.7369995117188
40
0.0
41
0.0
42
0.0
10
71.3198013305664
20
84.7741012573242
40
0.0
41
0.0
42
0.0
10
71.5112991333008
20
84.8489990234375
40
0.0
41
0.0
42
0.0
10
71.7946014404297
20
84.9927978515625
40
0.0
41
0.0
42
0.0
10
71.7946014404297
20
84.9990005493164
40
0.0
41
0.0
42
0.0
10
71.7154006958008
20
84.9989013671875
40
0.0
41
0.0
42
0.0
10
71.4886016845703
20
84.8835983276367
40
0.0
41
0.0
42
0.0
10
71.2500991821289
20
84.7906036376953
40
0.0
41
0.0
42
0.0
10
70.9813003540039
20
84.7574996948242
40
0.0
41
0.0
42
0.0
10
70.7165985107422
20
84.7566986083984
40
0.0
41
0.0
42
0.0
10
70.4894027709961
20
84.7214965820312
40
0.0
41
0.0
42
0.0
10
70.2545013427734
20
84.7309036254883
40
0.0
41
0.0
42
0.0
10
70.2154006958008
20
84.7307968139648
40
0.0
41
0.0
42
0.0
10
70.0031967163086
20
84.7214965820312
40
0.0
41
0.0
42
0.0
10
69.7540969848633
20
84.7369995117188
40
0.0
41
0.0
42
0.0
10
69.5186004638672
20
84.7422027587891
40
0.0
41
0.0
42
0.0
10
69.0158996582031
20
84.7949981689453
40
0.0
41
0.0
42
0.0
10
68.5390014648438
20
84.9339981079102
40
0.0
41
0.0
42
0.0
10
68.508903503418
20
84.9481964111328
40
0.0
41
0.0
42
0.0
10
68.4427032470703
20
84.9990005493164
40
0.0
41
0.0
42
0.0
10
68.4151000976562
20
84.9990005493164
40
0.0
41
0.0
42
0.0
10
68.4150009155273
20
84.9903030395508
40
0.0
41
0.0
42
0.0
210
0.0
220
0.0
230
1.0
0
LWPOLYLINE
5
28
330
1C
100
AcDbEntity
67
0
8
0
62
256
6
ByLayer
370
-1
48
1.0
60
0
100
AcDbPolyline
90
39
70
1
38
0.0
39
0.0
10
73.1829986572266
20
74.9213027954102
40
0.0
41
0.0
42
0.0
10
73.4901962280273
20
74.8234024047852
40
0.0
41
0.0
42
0.0
10
73.6860961914062
20
74.6605987548828
40
0.0
41
0.0
42
0.0
10
73.7193984985352
20
74.6458969116211
40
0.0
41
0.0
42
0.0
10
73.7517013549805
20
74.6457977294922
40
0.0
41
0.0
42
0.0
10
74.0113983154297
20
74.728401184082
40
0.0
41
0.0
42
0.0
10
74.0827026367188
20
74.7692031860352
40
0.0
41
0.0
42
0.0
10
74.4044036865234
20
74.4915008544922
40
0.0
41
0.0
42
0.0
10
73.7246017456055
20
74.2454986572266
40
0.0
41
0.0
42
0.0
10
73.6910018920898
20
74.2226028442383
40
0.0
41
0.0
42
0.0
10
73.6443023681641
20
74.1346969604492
40
0.0
41
0.0
42
0.0
10
73.6010971069336
20
74.0165023803711
40
0.0
41
0.0
42
0.0
10
73.6081008911133
20
73.6566009521484
40
0.0
41
0.0
42
0.0
10
73.6223983764648
20
73.6565017700195
40
0.0
41
0.0
42
0.0
10
73.9378967285156
20
73.8162002563477
40
0.0
41
0.0
42
0.0
10
73.9869003295898
20
73.7801971435547
40
0.0
41
0.0
42
0.0
10
74.0092010498047
20
73.7800979614258
40
0.0
41
0.0
42
0.0
10
74.1320037841797
20
73.9493026733398
40
0.0
41
0.0
42
0.0
10
74.247200012207
20
73.9964981079102
40
0.0
41
0.0
42
0.0
10
74.4595031738281
20
74.3942031860352
40
0.0
41
0.0
42
0.0
10
74.5110015869141
20
74.4256973266602
40
0.0
41
0.0
42
0.0
10
74.7192993164062
20
74.4951019287109
40
0.0
41
0.0
42
0.0
10
74.7192001342773
20
74.5111999511719
40
0.0
41
0.0
42
0.0
10
74.5015029907227
20
74.7289962768555
40
0.0
41
0.0
42
0.0
10
74.4126968383789
20
75.0039978027344
40
0.0
41
0.0
42
0.0
10
74.3766021728516
20
75.0180969238281
40
0.0
41
0.0
42
0.0
10
74.0762023925781
20
75.2669982910156
40
0.0
41
0.0
42
0.0
10
74.0506973266602
20
75.2668991088867
40
0.0
41
0.0
42
0.0
10
73.9985961914062
20
75.2282028198242
40
0.0
41
0.0
42
0.0
10
73.7496032714844
20
75.3639984130859
40
0.0
41
0.0
42
0.0
10
73.7163009643555
20
75.363899230957
40
0.0
41
0.0
42
0.0
10
73.682502746582
20
75.3594970703125
40
0.0
41
0.0
42
0.0
10
73.4891967773438
20
75.2314987182617
40
0.0
41
0.0
42
0.0
10
73.1865997314453
20
75.1348037719727
40
0.0
41
0.0
42
0.0
10
73.0759963989258
20
75.0148010253906
40
0.0
41
0.0
42
0.0
10
73.0649032592773
20
75.0081024169922
40
0.0
41
0.0
42
0.0
10
73.0647964477539
20
74.9914016723633
40
0.0
41
0.0
42
0.0
10
73.1411972045898
20
74.9427032470703
40
0.0
41
0.0
42
0.0
10
73.1829986572266
20
74.9213027954102
40
0.0
41
0.0
42
0.0
210
0.0
220
0.0
230
1.0
0
LWPOLYLINE
5
29
330
1C
100
AcDbEntity
67
0
8
0
62
256
6
ByLayer
370
-1
48
1.0
60
0
100
AcDbPolyline
90
32
70
1
38
0.0
39
0.0
10
73.2433013916016
20
75.1231002807617
40
0.0
41
0.0
42
0.0
10
73.5108032226562
20
75.2086029052734
40
0.0
41
0.0
42
0.0
10
73.7135009765625
20
75.3426971435547
40
0.0
41
0.0
42
0.0
10
73.9852981567383
20
75.1946029663086
40
0.0
41
0.0
42
0.0
10
74.0130004882812
20
75.1945037841797
40
0.0
41
0.0
42
0.0
10
74.0523986816406
20
75.2238006591797
40
0.0
41
0.0
42
0.0
10
74.2955017089844
20
75.0224990844727
40
0.0
41
0.0
42
0.0
10
74.3638000488281
20
74.9957962036133
40
0.0
41
0.0
42
0.0
10
74.4982986450195
20
74.5794982910156
40
0.0
41
0.0
42
0.0
10
74.5773010253906
20
74.5008010864258
40
0.0
41
0.0
42
0.0
10
74.4795989990234
20
74.4681015014648
40
0.0
41
0.0
42
0.0
10
74.2314987182617
20
74.0034027099609
40
0.0
41
0.0
42
0.0
10
74.1168975830078
20
73.956298828125
40
0.0
41
0.0
42
0.0
10
74.1053009033203
20
73.9499969482422
40
0.0
41
0.0
42
0.0
10
73.9984970092773
20
73.8028030395508
40
0.0
41
0.0
42
0.0
10
73.940299987793
20
73.8459014892578
40
0.0
41
0.0
42
0.0
10
73.9122009277344
20
73.8458023071289
40
0.0
41
0.0
42
0.0
10
73.6379013061523
20
73.7068023681641
40
0.0
41
0.0
42
0.0
10
73.6318969726562
20
73.9857025146484
40
0.0
41
0.0
42
0.0
10
73.6923980712891
20
74.1512985229492
40
0.0
41
0.0
42
0.0
10
73.7317962646484
20
74.2255020141602
40
0.0
41
0.0
42
0.0
10
74.4615020751953
20
74.4897003173828
40
0.0
41
0.0
42
0.0
10
74.4615020751953
20
74.5102996826172
40
0.0
41
0.0
42
0.0
10
74.1091995239258
20
74.8143997192383
40
0.0
41
0.0
42
0.0
10
74.0828018188477
20
74.8143005371094
40
0.0
41
0.0
42
0.0
10
73.9885025024414
20
74.7602996826172
40
0.0
41
0.0
42
0.0
10
73.7126007080078
20
74.6725997924805
40
0.0
41
0.0
42
0.0
10
73.5095977783203
20
74.8412017822266
40
0.0
41
0.0
42
0.0
10
73.2469024658203
20
74.9250030517578
40
0.0
41
0.0
42
0.0
10
73.1912002563477
20
74.9533996582031
40
0.0
41
0.0
42
0.0
10
73.125602722168
20
74.9953994750977
40
0.0
41
0.0
42
0.0
10
73.2433013916016
20
75.1231002807617
40
0.0
41
0.0
42
0.0
210
0.0
220
0.0
230
1.0
0
LWPOLYLINE
5
2A
330
1C
100
AcDbEntity
67
0
8
0
62
256
6
ByLayer
370
-1
48
1.0
60
0
100
AcDbPolyline
90
20
70
1
38
0.0
39
0.0
10
73.6565017700195
20
76.3772964477539
40
0.0
41
0.0
42
0.0
10
73.8162002563477
20
76.061897277832
40
0.0
41
0.0
42
0.0
10
73.7801971435547
20
76.0130004882812
40
0.0
41
0.0
42
0.0
10
73.7800979614258
20
75.9906005859375
40
0.0
41
0.0
42
0.0
10
73.9493026733398
20
75.8677978515625
40
0.0
41
0.0
42
0.0
10
73.9964981079102
20
75.7526016235352
40
0.0
41
0.0
42
0.0
10
74.3940963745117
20
75.5401992797852
40
0.0
41
0.0
42
0.0
10
74.4256973266602
20
75.488899230957
40
0.0
41
0.0
42
0.0
10
74.495002746582
20
75.280403137207
40
0.0
41
0.0
42
0.0
10
74.5111999511719
20
75.2805023193359
40
0.0
41
0.0
42
0.0
10
74.7192993164062
20
75.4886016845703
40
0.0
41
0.0
42
0.0
10
74.7192001342773
20
75.5059967041016
40
0.0
41
0.0
42
0.0
10
74.511100769043
20
75.5936965942383
40
0.0
41
0.0
42
0.0
10
74.4878005981445
20
75.6054992675781
40
0.0
41
0.0
42
0.0
10
74.2453994750977
20
76.2752990722656
40
0.0
41
0.0
42
0.0
10
74.2226028442383
20
76.3087997436523
40
0.0
41
0.0
42
0.0
10
74.1346969604492
20
76.3554992675781
40
0.0
41
0.0
42
0.0
10
74.0164031982422
20
76.3985977172852
40
0.0
41
0.0
42
0.0
10
73.6566009521484
20
76.3917007446289
40
0.0
41
0.0
42
0.0
10
73.6565017700195
20
76.3772964477539
40
0.0
41
0.0
42
0.0
210
0.0
220
0.0
230
1.0
0
LWPOLYLINE
5
2B
330
1C
100
AcDbEntity
67
0
8
0
62
256
6
ByLayer
370
-1
48
1.0
60
0
100
AcDbPolyline
90
15
70
1
38
0.0
39
0.0
10
73.9856033325195
20
76.3677978515625
40
0.0
41
0.0
42
0.0
10
74.1512985229492
20
76.3072967529297
40
0.0
41
0.0
42
0.0
10
74.2255020141602
20
76.2680969238281
40
0.0
41
0.0
42
0.0
10
74.4906997680664
20
75.535400390625
40
0.0
41
0.0
42
0.0
10
74.5772018432617
20
75.4990997314453
40
0.0
41
0.0
42
0.0
10
74.5008010864258
20
75.4223022460938
40
0.0
41
0.0
42
0.0
10
74.4682998657227
20
75.5201034545898
40
0.0
41
0.0
42
0.0
10
74.003303527832
20
75.7682037353516
40
0.0
41
0.0
42
0.0
10
73.956298828125
20
75.8828964233398
40
0.0
41
0.0
42
0.0
10
73.9499969482422
20
75.8945007324219
40
0.0
41
0.0
42
0.0
10
73.8029022216797
20
76.0014038085938
40
0.0
41
0.0
42
0.0
10
73.8459014892578
20
76.0596008300781
40
0.0
41
0.0
42
0.0
10
73.8458023071289
20
76.0876007080078
40
0.0
41
0.0
42
0.0
10
73.7070007324219
20
76.3618011474609
40
0.0
41
0.0
42
0.0
10
73.9856033325195
20
76.3677978515625
40
0.0
41
0.0
42
0.0
210
0.0
220
0.0
230
1.0
0
LWPOLYLINE
5
2C
330
1C
100
AcDbEntity
67
0
8
0
62
256
6
ByLayer
370
-1
48
1.0
60
0
100
AcDbPolyline
90
25
70
1
38
0.0
39
0.0
10
74.9731979370117
20
75.6240005493164
40
0.0
41
0.0
42
0.0
10
74.9921035766602
20
75.5912017822266
40
0.0
41
0.0
42
0.0
10
75.0055999755859
20
75.5912017822266
40
0.0
41
0.0
42
0.0
10
75.0182037353516
20
75.6231002807617
40
0.0
41
0.0
42
0.0
10
75.2669982910156
20
75.9235992431641
40
0.0
41
0.0
42
0.0
10
75.2668991088867
20
75.9490966796875
40
0.0
41
0.0
42
0.0
10
75.2283020019531
20
76.0012969970703
40
0.0
41
0.0
42
0.0
10
75.3639984130859
20
76.2502975463867
40
0.0
41
0.0
42
0.0
10
75.363899230957
20
76.2835998535156
40
0.0
41
0.0
42
0.0
10
75.3594970703125
20
76.3173980712891
40
0.0
41
0.0
42
0.0
10
75.2314987182617
20
76.5106964111328
40
0.0
41
0.0
42
0.0
10
75.1348037719727
20
76.8132019042969
40
0.0
41
0.0
42
0.0
10
75.0148010253906
20
76.9237976074219
40
0.0
41
0.0
42
0.0
10
75.0081024169922
20
76.9349975585938
40
0.0
41
0.0
42
0.0
10
74.9915008544922
20
76.9349975585938
40
0.0
41
0.0
42
0.0
10
74.9428024291992
20
76.8585968017578
40
0.0
41
0.0
42
0.0
10
74.9213027954102
20
76.8169021606445
40
0.0
41
0.0
42
0.0
10
74.8234024047852
20
76.5096969604492
40
0.0
41
0.0
42
0.0
10
74.6605987548828
20
76.3137969970703
40
0.0
41
0.0
42
0.0
10
74.6458969116211
20
76.2805023193359
40
0.0
41
0.0
42
0.0
10
74.6457977294922
20
76.2481994628906
40
0.0
41
0.0
42
0.0
10
74.7233963012695
20
76.0039978027344
40
0.0
41
0.0
42
0.0
10
74.717399597168
20
75.9953002929688
40
0.0
41
0.0
42
0.0
10
74.717399597168
20
75.9686965942383
40
0.0
41
0.0
42
0.0
10
74.9731979370117
20
75.6240005493164
40
0.0
41
0.0
42
0.0
210
0.0
220
0.0
230
1.0
0
LWPOLYLINE
5
2D
330
1C
100
AcDbEntity
67
0
8
0
62
256
6
ByLayer
370
-1
48
1.0
60
0
100
AcDbPolyline
90
9
70
1
38
0.0
39
0.0
10
74.5273971557617
20
74.9886016845703
40
0.0
41
0.0
42
0.0
10
74.9886016845703
20
74.5274963378906
40
0.0
41
0.0
42
0.0
10
75.0111999511719
20
74.5274963378906
40
0.0
41
0.0
42
0.0
10
75.4723968505859
20
74.9886016845703
40
0.0
41
0.0
42
0.0
10
75.472297668457
20
75.0111999511719
40
0.0
41
0.0
42
0.0
10
75.0112991333008
20
75.4723968505859
40
0.0
41
0.0
42
0.0
10
74.9886016845703
20
75.472297668457
40
0.0
41
0.0
42
0.0
10
74.5274963378906
20
75.0112991333008
40
0.0
41
0.0
42
0.0
10
74.5273971557617
20
74.9886016845703
40
0.0
41
0.0
42
0.0
210
0.0
220
0.0
230
1.0
0
LWPOLYLINE
5
2E
330
1C
100
AcDbEntity
67
0
8
0
62
256
6
ByLayer
370
-1
48
1.0
60
0
100
AcDbPolyline
90
23
70
1
38
0.0
39
0.0
10
74.9154968261719
20
73.7817001342773
40
0.0
41
0.0
42
0.0
10
74.7701034545898
20
73.5146026611328
40
0.0
41
0.0
42
0.0
10
74.7699966430664
20
73.4832000732422
40
0.0
41
0.0
42
0.0
10
74.8648986816406
20
73.1865997314453
40
0.0
41
0.0
42
0.0
10
74.9849014282227
20
73.0759963989258
40
0.0
41
0.0
42
0.0
10
74.99169921875
20
73.0649032592773
40
0.0
41
0.0
42
0.0
10
75.0083999633789
20
73.0649032592773
40
0.0
41
0.0
42
0.0
10
75.056999206543
20
73.1411972045898
40
0.0
41
0.0
42
0.0
10
75.0783996582031
20
73.1829986572266
40
0.0
41
0.0
42
0.0
10
75.174201965332
20
73.4832000732422
40
0.0
41
0.0
42
0.0
10
75.1741027832031
20
73.5167007446289
40
0.0
41
0.0
42
0.0
10
75.092399597168
20
73.7740020751953
40
0.0
41
0.0
42
0.0
10
75.2740020751953
20
73.9925994873047
40
0.0
41
0.0
42
0.0
10
75.2823028564453
20
74.0046005249023
40
0.0
41
0.0
42
0.0
10
75.2823028564453
20
74.0309982299805
40
0.0
41
0.0
42
0.0
10
75.026496887207
20
74.3758010864258
40
0.0
41
0.0
42
0.0
10
75.0077972412109
20
74.4086990356445
40
0.0
41
0.0
42
0.0
10
74.9942016601562
20
74.4086990356445
40
0.0
41
0.0
42
0.0
10
74.9815979003906
20
74.3767013549805
40
0.0
41
0.0
42
0.0
10
74.7329025268555
20
74.0762023925781
40
0.0
41
0.0
42
0.0
10
74.7328033447266
20
74.0506973266602
40
0.0
41
0.0
42
0.0
10
74.7763977050781
20
73.9919967651367
40
0.0
41
0.0
42
0.0
10
74.9154968261719
20
73.7817001342773
40
0.0
41
0.0
42
0.0
210
0.0
220
0.0
230
1.0
0
LWPOLYLINE
5
2F
330
1C
100
AcDbEntity
67
0
8
0
62
256
6
ByLayer
370
-1
48
1.0
60
0
100
AcDbPolyline
90
5
70
1
38
0.0
39
0.0
10
75.0
20
74.5491027832031
40
0.0
41
0.0
42
0.0
10
74.549201965332
20
75.0
40
0.0
41
0.0
42
0.0
10
75.0
20
75.4504013061523
40
0.0
41
0.0
42
0.0
10
75.4505004882812
20
75.0
40
0.0
41
0.0
42
0.0
10
75.0
20
74.5491027832031
40
0.0
41
0.0
42
0.0
210
0.0
220
0.0
230
1.0
0
LWPOLYLINE
5
30
330
1C
100
AcDbEntity
67
0
8
0
62
256
6
ByLayer
370
-1
48
1.0
60
0
100
AcDbPolyline
90
19
70
1
38
0.0
39
0.0
10
74.9766998291016
20
74.2948989868164
40
0.0
41
0.0
42
0.0
10
74.9981994628906
20
74.3471984863281
40
0.0
41
0.0
42
0.0
10
75.0037002563477
20
74.3475036621094
40
0.0
41
0.0
42
0.0
10
75.0337982177734
20
74.2954025268555
40
0.0
41
0.0
42
0.0
10
75.2425994873047
20
74.0139999389648
40
0.0
41
0.0
42
0.0
10
75.0786972045898
20
73.8168029785156
40
0.0
41
0.0
42
0.0
10
75.0764999389648
20
73.7843017578125
40
0.0
41
0.0
42
0.0
10
75.0766983032227
20
73.7473983764648
40
0.0
41
0.0
42
0.0
10
75.1555023193359
20
73.4999008178711
40
0.0
41
0.0
42
0.0
10
75.0746994018555
20
73.2469024658203
40
0.0
41
0.0
42
0.0
10
75.0462036132812
20
73.1912994384766
40
0.0
41
0.0
42
0.0
10
75.0045013427734
20
73.1253967285156
40
0.0
41
0.0
42
0.0
10
74.8768005371094
20
73.2432022094727
40
0.0
41
0.0
42
0.0
10
74.7957000732422
20
73.4969024658203
40
0.0
41
0.0
42
0.0
10
74.9337005615234
20
73.7503967285156
40
0.0
41
0.0
42
0.0
10
74.9340972900391
20
73.8187026977539
40
0.0
41
0.0
42
0.0
10
74.8089981079102
20
74.0077972412109
40
0.0
41
0.0
42
0.0
10
74.7759017944336
20
74.0523986816406
40
0.0
41
0.0
42
0.0
10
74.9766998291016
20
74.2948989868164
40
0.0
41
0.0
42
0.0
210
0.0
220
0.0
230
1.0
0
LWPOLYLINE
5
31
330
1C
100
AcDbEntity
67
0
8
0
62
256
6
ByLayer
370
-1
48
1.0
60
0
100
AcDbPolyline
90
18
70
1
38
0.0
39
0.0
10
74.8412017822266
20
76.4903030395508
40
0.0
41
0.0
42
0.0
10
74.9251022338867
20
76.7529983520508
40
0.0
41
0.0
42
0.0
10
74.9533996582031
20
76.8086013793945
40
0.0
41
0.0
42
0.0
10
74.9953994750977
20
76.8740997314453
40
0.0
41
0.0
42
0.0
10
75.1230010986328
20
76.7565994262695
40
0.0
41
0.0
42
0.0
10
75.2085037231445
20
76.4890975952148
40
0.0
41
0.0
42
0.0
10
75.3426971435547
20
76.2863998413086
40
0.0
41
0.0
42
0.0
10
75.1946029663086
20
76.0146026611328
40
0.0
41
0.0
42
0.0
10
75.1945037841797
20
75.9869003295898
40
0.0
41
0.0
42
0.0
10
75.2238998413086
20
75.9473037719727
40
0.0
41
0.0
42
0.0
10
75.0224990844727
20
75.7042007446289
40
0.0
41
0.0
42
0.0
10
75.0025024414062
20
75.6528015136719
40
0.0
41
0.0
42
0.0
10
74.9962005615234
20
75.6522979736328
40
0.0
41
0.0
42
0.0
10
74.9665985107422
20
75.7033996582031
40
0.0
41
0.0
42
0.0
10
74.7586975097656
20
75.9839019775391
40
0.0
41
0.0
42
0.0
10
74.7585983276367
20
76.0167007446289
40
0.0
41
0.0
42
0.0
10
74.6725997924805
20
76.2872009277344
40
0.0
41
0.0
42
0.0
10
74.8412017822266
20
76.4903030395508
40
0.0
41
0.0
42
0.0
210
0.0
220
0.0
230
1.0
0
LWPOLYLINE
5
32
330
1C
100
AcDbEntity
67
0
8
0
62
256
6
ByLayer
370
-1
48
1.0
60
0
100
AcDbPolyline
90
20
70
1
38
0.0
39
0.0
10
75.2805023193359
20
75.4886016845703
40
0.0
41
0.0
42
0.0
10
75.4886016845703
20
75.2806015014648
40
0.0
41
0.0
42
0.0
10
75.5059967041016
20
75.2806015014648
40
0.0
41
0.0
42
0.0
10
75.5936965942383
20
75.4888000488281
40
0.0
41
0.0
42
0.0
10
75.605598449707
20
75.5120010375977
40
0.0
41
0.0
42
0.0
10
76.2752990722656
20
75.7544021606445
40
0.0
41
0.0
42
0.0
10
76.3087997436523
20
75.7771987915039
40
0.0
41
0.0
42
0.0
10
76.3554992675781
20
75.8650970458984
40
0.0
41
0.0
42
0.0
10
76.3986968994141
20
75.9837036132812
40
0.0
41
0.0
42
0.0
10
76.3984985351562
20
76.0093002319336
40
0.0
41
0.0
42
0.0
10
76.3565979003906
20
76.0401992797852
40
0.0
41
0.0
42
0.0
10
76.2636032104492
20
76.3483963012695
40
0.0
41
0.0
42
0.0
10
76.2442016601562
20
76.3483963012695
40
0.0
41
0.0
42
0.0
10
75.993896484375
20
76.2241973876953
40
0.0
41
0.0
42
0.0
10
75.8678970336914
20
76.0503997802734
40
0.0
41
0.0
42
0.0
10
75.7526016235352
20
76.0034027099609
40
0.0
41
0.0
42
0.0
10
75.5402984619141
20
75.6056976318359
40
0.0
41
0.0
42
0.0
10
75.488899230957
20
75.5739974975586
40
0.0
41
0.0
42
0.0
10
75.280403137207
20
75.5048980712891
40
0.0
41
0.0
42
0.0
10
75.2805023193359
20
75.4886016845703
40
0.0
41
0.0
42
0.0
210
0.0
220
0.0
230
1.0
0
LWPOLYLINE
5
33
330
1C
100
AcDbEntity
67
0
8
0
62
256
6
ByLayer
370
-1
48
1.0
60
0
100
AcDbPolyline
90
40
70
1
38
0.0
39
0.0
10
75.5119018554688
20
74.3942031860352
40
0.0
41
0.0
42
0.0
10
75.7543029785156
20
73.7246017456055
40
0.0
41
0.0
42
0.0
10
75.7771987915039
20
73.6910018920898
40
0.0
41
0.0
42
0.0
10
75.8650970458984
20
73.6442031860352
40
0.0
41
0.0
42
0.0
10
75.9833984375
20
73.6010971069336
40
0.0
41
0.0
42
0.0
10
76.3432998657227
20
73.6081008911133
40
0.0
41
0.0
42
0.0
10
76.3432006835938
20
73.6223983764648
40
0.0
41
0.0
42
0.0
10
76.1835021972656
20
73.9378967285156
40
0.0
41
0.0
42
0.0
10
76.2197036743164
20
73.9869003295898
40
0.0
41
0.0
42
0.0
10
76.219596862793
20
74.0092010498047
40
0.0
41
0.0
42
0.0
10
76.0503997802734
20
74.1318969726562
40
0.0
41
0.0
42
0.0
10
76.003303527832
20
74.2471008300781
40
0.0
41
0.0
42
0.0
10
75.605598449707
20
74.4595031738281
40
0.0
41
0.0
42
0.0
10
75.5820007324219
20
74.4980010986328
40
0.0
41
0.0
42
0.0
10
75.6072006225586
20
74.5162963867188
40
0.0
41
0.0
42
0.0
10
75.9188995361328
20
74.8056030273438
40
0.0
41
0.0
42
0.0
10
75.9839019775391
20
74.7802963256836
40
0.0
41
0.0
42
0.0
10
76.0136032104492
20
74.7801971435547
40
0.0
41
0.0
42
0.0
10
76.2182006835938
20
74.9154968261719
40
0.0
41
0.0
42
0.0
10
76.4852981567383
20
74.7701034545898
40
0.0
41
0.0
42
0.0
10
76.5167007446289
20
74.7701034545898
40
0.0
41
0.0
42
0.0
10
76.8133010864258
20
74.8649978637695
40
0.0
41
0.0
42
0.0
10
76.9237976074219
20
74.9850006103516
40
0.0
41
0.0
42
0.0
10
76.9349975585938
20
74.99169921875
40
0.0
41
0.0
42
0.0
10
76.9348983764648
20
75.0083999633789
40
0.0
41
0.0
42
0.0
10
76.8585968017578
20
75.056999206543
40
0.0
41
0.0
42
0.0
10
76.8169021606445
20
75.0783996582031
40
0.0
41
0.0
42
0.0
10
76.5167007446289
20
75.174201965332
40
0.0
41
0.0
42
0.0
10
76.4832000732422
20
75.1741027832031
40
0.0
41
0.0
42
0.0
10
76.2257995605469
20
75.092399597168
40
0.0
41
0.0
42
0.0
10
76.0072021484375
20
75.2739028930664
40
0.0
41
0.0
42
0.0
10
75.9952011108398
20
75.2823028564453
40
0.0
41
0.0
42
0.0
10
75.9688034057617
20
75.2823028564453
40
0.0
41
0.0
42
0.0
10
75.6240005493164
20
75.026496887207
40
0.0
41
0.0
42
0.0
10
75.5876007080078
20
75.0057983398438
40
0.0
41
0.0
42
0.0
10
75.4983978271484
20
74.7289962768555
40
0.0
41
0.0
42
0.0
10
75.2806015014648
20
74.5111999511719
40
0.0
41
0.0
42
0.0
10
75.2805023193359
20
74.4937973022461
40
0.0
41
0.0
42
0.0
10
75.4888000488281
20
74.4059982299805
40
0.0
41
0.0
42
0.0
10
75.5119018554688
20
74.3942031860352
40
0.0
41
0.0
42
0.0
210
0.0
220
0.0
230
1.0
0
LWPOLYLINE
5
34
330
1C
100
AcDbEntity
67
0
8
0
62
256
6
ByLayer
370
-1
48
1.0
60
0
100
AcDbPolyline
90
33
70
1
38
0.0
39
0.0
10
75.530403137207
20
74.5093002319336
40
0.0
41
0.0
42
0.0
10
75.530403137207
20
74.4803009033203
40
0.0
41
0.0
42
0.0
10
75.9964981079102
20
74.2314987182617
40
0.0
41
0.0
42
0.0
10
76.0434036254883
20
74.1167984008789
40
0.0
41
0.0
42
0.0
10
76.0496978759766
20
74.1052017211914
40
0.0
41
0.0
42
0.0
10
76.1968002319336
20
73.9984970092773
40
0.0
41
0.0
42
0.0
10
76.1539993286133
20
73.940299987793
40
0.0
41
0.0
42
0.0
10
76.1539001464844
20
73.9122009277344
40
0.0
41
0.0
42
0.0
10
76.2929992675781
20
73.6379013061523
40
0.0
41
0.0
42
0.0
10
76.0141983032227
20
73.6318969726562
40
0.0
41
0.0
42
0.0
10
75.848503112793
20
73.6923980712891
40
0.0
41
0.0
42
0.0
10
75.774299621582
20
73.7316970825195
40
0.0
41
0.0
42
0.0
10
75.5091018676758
20
74.4643020629883
40
0.0
41
0.0
42
0.0
10
75.4226989746094
20
74.5008010864258
40
0.0
41
0.0
42
0.0
10
75.5015029907227
20
74.5796966552734
40
0.0
41
0.0
42
0.0
10
75.6353988647461
20
74.9941024780273
40
0.0
41
0.0
42
0.0
10
75.7033996582031
20
75.033203125
40
0.0
41
0.0
42
0.0
10
75.9858016967773
20
75.2425003051758
40
0.0
41
0.0
42
0.0
10
76.1830978393555
20
75.0786972045898
40
0.0
41
0.0
42
0.0
10
76.2156982421875
20
75.0765991210938
40
0.0
41
0.0
42
0.0
10
76.2517013549805
20
75.0764999389648
40
0.0
41
0.0
42
0.0
10
76.5
20
75.1555023193359
40
0.0
41
0.0
42
0.0
10
76.7529983520508
20
75.0746994018555
40
0.0
41
0.0
42
0.0
10
76.8085021972656
20
75.0460968017578
40
0.0
41
0.0
42
0.0
10
76.8742980957031
20
75.0045013427734
40
0.0
41
0.0
42
0.0
10
76.7566986083984
20
74.8768005371094
40
0.0
41
0.0
42
0.0
10
76.5029983520508
20
74.7956008911133
40
0.0
41
0.0
42
0.0
10
76.2494964599609
20
74.9337005615234
40
0.0
41
0.0
42
0.0
10
76.1811981201172
20
74.9340972900391
40
0.0
41
0.0
42
0.0
10
75.9973983764648
20
74.8125
40
0.0
41
0.0
42
0.0
10
75.9188003540039
20
74.8432006835938
40
0.0
41
0.0
42
0.0
10
75.890998840332
20
74.8432006835938
40
0.0
41
0.0
42
0.0
10
75.530403137207
20
74.5093002319336
40
0.0
41
0.0
42
0.0
210
0.0
220
0.0
230
1.0
0
LWPOLYLINE
5
35
330
1C
100
AcDbEntity
67
0
8
0
62
256
6
ByLayer
370
-1
48
1.0
60
0
100
AcDbPolyline
90
14
70
1
38
0.0
39
0.0
10
76.2680969238281
20
75.774299621582
40
0.0
41
0.0
42
0.0
10
75.535400390625
20
75.5090026855469
40
0.0
41
0.0
42
0.0
10
75.4990997314453
20
75.4225006103516
40
0.0
41
0.0
42
0.0
10
75.4225006103516
20
75.4991989135742
40
0.0
41
0.0
42
0.0
10
75.5201034545898
20
75.5315017700195
40
0.0
41
0.0
42
0.0
10
75.7683029174805
20
75.9964981079102
40
0.0
41
0.0
42
0.0
10
75.8828964233398
20
76.0434036254883
40
0.0
41
0.0
42
0.0
10
75.8945999145508
20
76.0496978759766
40
0.0
41
0.0
42
0.0
10
76.0059967041016
20
76.2032012939453
40
0.0
41
0.0
42
0.0
10
76.2233963012695
20
76.3110961914062
40
0.0
41
0.0
42
0.0
10
76.3060989379883
20
76.0366973876953
40
0.0
41
0.0
42
0.0
10
76.3610992431641
20
75.9960021972656
40
0.0
41
0.0
42
0.0
10
76.307502746582
20
75.848503112793
40
0.0
41
0.0
42
0.0
10
76.2680969238281
20
75.774299621582
40
0.0
41
0.0
42
0.0
210
0.0
220
0.0
230
1.0
0
LWPOLYLINE
5
36
330
1C
100
AcDbEntity
67
0
8
0
62
256
6
ByLayer
370
-1
48
1.0
60
0
100
AcDbPolyline
90
32
70
1
38
0.0
39
0.0
10
78.2052993774414
20
65.0071029663086
40
0.0
41
0.0
42
0.0
10
78.2052993774414
20
65.0009994506836
40
0.0
41
0.0
42
0.0
10
78.2844009399414
20
65.0009994506836
40
0.0
41
0.0
42
0.0
10
78.5113983154297
20
65.116096496582
40
0.0
41
0.0
42
0.0
10
78.7498016357422
20
65.209098815918
40
0.0
41
0.0
42
0.0
10
79.0170974731445
20
65.2421035766602
40
0.0
41
0.0
42
0.0
10
79.253303527832
20
65.2787017822266
40
0.0
41
0.0
42
0.0
10
79.5195007324219
20
65.2795028686523
40
0.0
41
0.0
42
0.0
10
79.7358016967773
20
65.2890014648438
40
0.0
41
0.0
42
0.0
10
79.980598449707
20
65.2790985107422
40
0.0
41
0.0
42
0.0
10
80.2157974243164
20
65.2740020751953
40
0.0
41
0.0
42
0.0
10
80.4816970825195
20
65.2574996948242
40
0.0
41
0.0
42
0.0
10
80.984001159668
20
65.2046966552734
40
0.0
41
0.0
42
0.0
10
81.4608001708984
20
65.0656967163086
40
0.0
41
0.0
42
0.0
10
81.4908981323242
20
65.0514984130859
40
0.0
41
0.0
42
0.0
10
81.5570983886719
20
65.0009994506836
40
0.0
41
0.0
42
0.0
10
81.5848007202148
20
65.0009994506836
40
0.0
41
0.0
42
0.0
10
81.5847015380859
20
65.0095977783203
40
0.0
41
0.0
42
0.0
10
81.508903503418
20
65.0675964355469
40
0.0
41
0.0
42
0.0
10
81.4905014038086
20
65.076301574707
40
0.0
41
0.0
42
0.0
10
81.0158996582031
20
65.2144012451172
40
0.0
41
0.0
42
0.0
10
80.5182037353516
20
65.2670974731445
40
0.0
41
0.0
42
0.0
10
80.2141036987305
20
65.286003112793
40
0.0
41
0.0
42
0.0
10
80.0193023681641
20
65.2901000976562
40
0.0
41
0.0
42
0.0
10
79.7145004272461
20
65.3023986816406
40
0.0
41
0.0
42
0.0
10
79.6753997802734
20
65.3022994995117
40
0.0
41
0.0
42
0.0
10
79.4804000854492
20
65.2938995361328
40
0.0
41
0.0
42
0.0
10
79.1765975952148
20
65.2929992675781
40
0.0
41
0.0
42
0.0
10
78.9829025268555
20
65.2629013061523
40
0.0
41
0.0
42
0.0
10
78.6800994873047
20
65.2256011962891
40
0.0
41
0.0
42
0.0
10
78.4886016845703
20
65.1508026123047
40
0.0
41
0.0
42
0.0
10
78.2052993774414
20
65.0071029663086
40
0.0
41
0.0
42
0.0
210
0.0
220
0.0
230
1.0
0
LWPOLYLINE
5
37
330
1C
100
AcDbEntity
67
0
8
0
62
256
6
ByLayer
370
-1
48
1.0
60
0
100
AcDbPolyline
90
46
70
1
38
0.0
39
0.0
10
78.7501983642578
20
84.9885025024414
40
0.0
41
0.0
42
0.0
10
78.9738998413086
20
84.7610015869141
40
0.0
41
0.0
42
0.0
10
78.9922027587891
20
84.7452011108398
40
0.0
41
0.0
42
0.0
10
79.3718032836914
20
84.5252990722656
40
0.0
41
0.0
42
0.0
10
79.4140014648438
20
84.4971008300781
40
0.0
41
0.0
42
0.0
10
79.4905014038086
20
84.440803527832
40
0.0
41
0.0
42
0.0
10
79.6840972900391
20
84.3539962768555
40
0.0
41
0.0
42
0.0
10
79.9849014282227
20
84.2651977539062
40
0.0
41
0.0
42
0.0
10
80.1782989501953
20
84.2289962768555
40
0.0
41
0.0
42
0.0
10
80.4823989868164
20
84.1867980957031
40
0.0
41
0.0
42
0.0
10
80.9816970825195
20
84.1398010253906
40
0.0
41
0.0
42
0.0
10
81.3255004882812
20
84.1140975952148
40
0.0
41
0.0
42
0.0
10
81.480598449707
20
84.1106033325195
40
0.0
41
0.0
42
0.0
10
81.8426971435547
20
84.0980987548828
40
0.0
41
0.0
42
0.0
10
81.8813018798828
20
84.0979995727539
40
0.0
41
0.0
42
0.0
10
82.0143966674805
20
84.1113967895508
40
0.0
41
0.0
42
0.0
10
82.2164001464844
20
84.2026977539062
40
0.0
41
0.0
42
0.0
10
82.5130004882812
20
84.2485961914062
40
0.0
41
0.0
42
0.0
10
82.5383987426758
20
84.2627029418945
40
0.0
41
0.0
42
0.0
10
82.6759033203125
20
84.4869003295898
40
0.0
41
0.0
42
0.0
10
82.7005996704102
20
84.7147979736328
40
0.0
41
0.0
42
0.0
10
82.7004013061523
20
84.7512969970703
40
0.0
41
0.0
42
0.0
10
82.6456985473633
20
84.9990005493164
40
0.0
41
0.0
42
0.0
10
82.6177978515625
20
84.9990005493164
40
0.0
41
0.0
42
0.0
10
82.6177978515625
20
84.9822006225586
40
0.0
41
0.0
42
0.0
10
82.6633987426758
20
84.7759017944336
40
0.0
41
0.0
42
0.0
10
82.6350021362305
20
84.5130004882812
40
0.0
41
0.0
42
0.0
10
82.5205001831055
20
84.3262023925781
40
0.0
41
0.0
42
0.0
10
82.4869003295898
20
84.3072967529297
40
0.0
41
0.0
42
0.0
10
82.2584991455078
20
84.272102355957
40
0.0
41
0.0
42
0.0
10
81.9854965209961
20
84.1485977172852
40
0.0
41
0.0
42
0.0
10
81.8058013916016
20
84.1305999755859
40
0.0
41
0.0
42
0.0
10
81.5193023681641
20
84.1406021118164
40
0.0
41
0.0
42
0.0
10
81.3181991577148
20
84.1452026367188
40
0.0
41
0.0
42
0.0
10
81.0182037353516
20
84.1675033569336
40
0.0
41
0.0
42
0.0
10
80.5175018310547
20
84.2144012451172
40
0.0
41
0.0
42
0.0
10
80.2516021728516
20
84.2514038085938
40
0.0
41
0.0
42
0.0
10
80.0149993896484
20
84.2956008911133
40
0.0
41
0.0
42
0.0
10
79.7499008178711
20
84.3740005493164
40
0.0
41
0.0
42
0.0
10
79.5094985961914
20
84.4817962646484
40
0.0
41
0.0
42
0.0
10
79.467399597168
20
84.5117034912109
40
0.0
41
0.0
42
0.0
10
79.007698059082
20
84.7779006958008
40
0.0
41
0.0
42
0.0
10
78.9810028076172
20
84.8011016845703
40
0.0
41
0.0
42
0.0
10
78.7864990234375
20
84.9990005493164
40
0.0
41
0.0
42
0.0
10
78.7502975463867
20
84.9990005493164
40
0.0
41
0.0
42
0.0
10
78.7501983642578
20
84.9885025024414
40
0.0
41
0.0
42
0.0
210
0.0
220
0.0
230
1.0
0
LWPOLYLINE
5
38
330
1C
100
AcDbEntity
67
0
8
0
62
256
6
ByLayer
370
-1
48
1.0
60
0
100
AcDbPolyline
90
46
70
1
38
0.0
39
0.0
10
84.4869003295898
20
67.3237991333008
40
0.0
41
0.0
42
0.0
10
84.7147979736328
20
67.2993011474609
40
0.0
41
0.0
42
0.0
10
84.7514038085938
20
67.2993011474609
40
0.0
41
0.0
42
0.0
10
84.9990005493164
20
67.3541030883789
40
0.0
41
0.0
42
0.0
10
84.9990005493164
20
67.3820037841797
40
0.0
41
0.0
42
0.0
10
84.9822998046875
20
67.3818969726562
40
0.0
41
0.0
42
0.0
10
84.7759017944336
20
67.3363037109375
40
0.0
41
0.0
42
0.0
10
84.5130004882812
20
67.3647003173828
40
0.0
41
0.0
42
0.0
10
84.3261032104492
20
67.4793014526367
40
0.0
41
0.0
42
0.0
10
84.3072967529297
20
67.5130004882812
40
0.0
41
0.0
42
0.0
10
84.272102355957
20
67.7413024902344
40
0.0
41
0.0
42
0.0
10
84.1485977172852
20
68.0143966674805
40
0.0
41
0.0
42
0.0
10
84.1305999755859
20
68.1940994262695
40
0.0
41
0.0
42
0.0
10
84.1406021118164
20
68.480598449707
40
0.0
41
0.0
42
0.0
10
84.1452026367188
20
68.6816024780273
40
0.0
41
0.0
42
0.0
10
84.1675033569336
20
68.9816970825195
40
0.0
41
0.0
42
0.0
10
84.2144012451172
20
69.4823989868164
40
0.0
41
0.0
42
0.0
10
84.2514038085938
20
69.7482986450195
40
0.0
41
0.0
42
0.0
10
84.2957000732422
20
69.9849014282227
40
0.0
41
0.0
42
0.0
10
84.3740005493164
20
70.2499008178711
40
0.0
41
0.0
42
0.0
10
84.4817962646484
20
70.4905014038086
40
0.0
41
0.0
42
0.0
10
84.5118026733398
20
70.5323028564453
40
0.0
41
0.0
42
0.0
10
84.7779006958008
20
70.992301940918
40
0.0
41
0.0
42
0.0
10
84.8012008666992
20
71.018798828125
40
0.0
41
0.0
42
0.0
10
84.9990005493164
20
71.2133026123047
40
0.0
41
0.0
42
0.0
10
84.9990005493164
20
71.2496032714844
40
0.0
41
0.0
42
0.0
10
84.9885025024414
20
71.2494964599609
40
0.0
41
0.0
42
0.0
10
84.761100769043
20
71.0258026123047
40
0.0
41
0.0
42
0.0
10
84.7452011108398
20
71.007698059082
40
0.0
41
0.0
42
0.0
10
84.5253982543945
20
70.6279983520508
40
0.0
41
0.0
42
0.0
10
84.497200012207
20
70.5858001708984
40
0.0
41
0.0
42
0.0
10
84.440803527832
20
70.5093002319336
40
0.0
41
0.0
42
0.0
10
84.3541030883789
20
70.3156967163086
40
0.0
41
0.0
42
0.0
10
84.263801574707
20
70.0085983276367
40
0.0
41
0.0
42
0.0
10
84.2289962768555
20
69.8216018676758
40
0.0
41
0.0
42
0.0
10
84.1867980957031
20
69.5175018310547
40
0.0
41
0.0
42
0.0
10
84.1398010253906
20
69.0182037353516
40
0.0
41
0.0
42
0.0
10
84.1140975952148
20
68.6743011474609
40
0.0
41
0.0
42
0.0
10
84.1106033325195
20
68.5193023681641
40
0.0
41
0.0
42
0.0
10
84.0980987548828
20
68.157096862793
40
0.0
41
0.0
42
0.0
10
84.097900390625
20
68.1184997558594
40
0.0
41
0.0
42
0.0
10
84.1112976074219
20
67.9854965209961
40
0.0
41
0.0
42
0.0
10
84.2026977539062
20
67.7834014892578
40
0.0
41
0.0
42
0.0
10
84.2484970092773
20
67.4868011474609
40
0.0
41
0.0
42
0.0
10
84.2626037597656
20
67.4614028930664
40
0.0
41
0.0
42
0.0
10
84.4869003295898
20
67.3237991333008
40
0.0
41
0.0
42
0.0
210
0.0
220
0.0
230
1.0
0
LWPOLYLINE
5
39
330
1C
100
AcDbEntity
67
0
8
0
62
256
6
ByLayer
370
-1
48
1.0
60
0
100
AcDbPolyline
90
33
70
1
38
0.0
39
0.0
10
84.7059020996094
20
79.4815979003906
40
0.0
41
0.0
42
0.0
10
84.7360992431641
20
79.2865982055664
40
0.0
41
0.0
42
0.0
10
84.7369995117188
20
78.9813003540039
40
0.0
41
0.0
42
0.0
10
84.7741012573242
20
78.6800994873047
40
0.0
41
0.0
42
0.0
10
84.8488998413086
20
78.4885025024414
40
0.0
41
0.0
42
0.0
10
84.9927978515625
20
78.2052993774414
40
0.0
41
0.0
42
0.0
10
84.9990005493164
20
78.2052993774414
40
0.0
41
0.0
42
0.0
10
84.9988021850586
20
78.2844009399414
40
0.0
41
0.0
42
0.0
10
84.8835983276367
20
78.5112991333008
40
0.0
41
0.0
42
0.0
10
84.7906036376953
20
78.7498016357422
40
0.0
41
0.0
42
0.0
10
84.7574996948242
20
79.0186004638672
40
0.0
41
0.0
42
0.0
10
84.7566986083984
20
79.2833023071289
40
0.0
41
0.0
42
0.0
10
84.7214965820312
20
79.510498046875
40
0.0
41
0.0
42
0.0
10
84.7309036254883
20
79.7453994750977
40
0.0
41
0.0
42
0.0
10
84.7307968139648
20
79.7845001220703
40
0.0
41
0.0
42
0.0
10
84.7214965820312
20
79.996696472168
40
0.0
41
0.0
42
0.0
10
84.7369995117188
20
80.2457962036133
40
0.0
41
0.0
42
0.0
10
84.7422027587891
20
80.4813003540039
40
0.0
41
0.0
42
0.0
10
84.7949981689453
20
80.984001159668
40
0.0
41
0.0
42
0.0
10
84.9339981079102
20
81.4608001708984
40
0.0
41
0.0
42
0.0
10
84.9481964111328
20
81.4908981323242
40
0.0
41
0.0
42
0.0
10
84.9990005493164
20
81.5570983886719
40
0.0
41
0.0
42
0.0
10
84.9990005493164
20
81.5848007202148
40
0.0
41
0.0
42
0.0
10
84.9903030395508
20
81.5848007202148
40
0.0
41
0.0
42
0.0
10
84.9320983886719
20
81.5090026855469
40
0.0
41
0.0
42
0.0
10
84.9234008789062
20
81.4905014038086
40
0.0
41
0.0
42
0.0
10
84.7853012084961
20
81.0158996582031
40
0.0
41
0.0
42
0.0
10
84.7325973510742
20
80.5186004638672
40
0.0
41
0.0
42
0.0
10
84.7285003662109
20
80.3240966796875
40
0.0
41
0.0
42
0.0
10
84.7097015380859
20
80.0193023681641
40
0.0
41
0.0
42
0.0
10
84.709602355957
20
79.9804000854492
40
0.0
41
0.0
42
0.0
10
84.7173004150391
20
79.8041000366211
40
0.0
41
0.0
42
0.0
10
84.7059020996094
20
79.4815979003906
40
0.0
41
0.0
42
0.0
210
0.0
220
0.0
230
1.0
0
VIEWPORT
5
3E
330
3A
100
AcDbEntity
67
1
8
0
62
256
6
ByLayer
370
-1
48
1.0
60
0
100
AcDbViewport
10
0.0
20
0.0
30
0.0
40
297.0
41
210.0
68
1
69
1
12
50.0
22
100.0
13
0.0
23
0.0
14
10.0
24
10.0
15
10.0
25
10.0
16
0.0
26
0.0
36
1.0
17
0.0
27
0.0
37
0.0
42
50.0
43
0.0
44
0.0
45
250.0
50
0.0
51
0.0
72
1000
90
819232
110
0.0
120
0.0
130
0.0
111
1.0
121
0.0
131
0.0
112
0.0
122
1.0
132
0.0
0
ENDSEC
0
SECTION
2
OBJECTS
0
DICTIONARY
5
44
330
0
100
AcDbDictionary
280
1
281
1
3
ACAD_GROUP
350
12
3
ACAD_LAYOUT
350
3D
3
ACAD_DGNDEFINITIONS
350
F
3
ACAD_DWFDEFINITIONS
350
10
3
ACAD_PDFDEFINITIONS
350
11
3
ACAD_MLINESTYLE
350
B
3
ACAD_IMAGE_DICT
350
E
3
ACAD_IMAGE_VARS
350
21
0
DICTIONARY
5
12
330
44
100
AcDbDictionary
280
1
281
1
0
DICTIONARY
5
3D
330
44
100
AcDbDictionary
280
1
281
1
3
Model
350
20
3
Layout1
350
3F
0
DICTIONARY
5
F
330
44
100
AcDbDictionary
280
1
281
1
0
DICTIONARY
5
10
330
44
100
AcDbDictionary
280
1
281
1
0
DICTIONARY
5
11
330
44
100
AcDbDictionary
280
1
281
1
0
DICTIONARY
5
B
330
44
100
AcDbDictionary
280
1
281
1
3
Standard
350
1B
0
DICTIONARY
5
E
330
44
100
AcDbDictionary
280
1
281
1
0
DICTIONARY
5
6
330
5
100
AcDbDictionary
280
1
281
1
3
ACAD_LAYERSTATES
360
45
0
DICTIONARY
5
45
330
6
100
AcDbDictionary
280
1
281
1
0
LAYOUT
5
20
330
3D
100
AcDbPlotSettings
1

2
none_device
4
ISO_A4_(210.00_x_297.00_MM)
6

40
7.5
41
20.0
42
7.5
43
20.0
44
210.0
45
297.0
46
0.0
47
0.0
48
0.0
49
0.0
140
0.0
141
0.0
142
1.0
143
1.0
70
11952
72
1
73
1
74
1
7

75
0
76
0
77
2
78
300
147
1.0
148
0.0
149
0.0
100
AcDbLayout
1
Model
71
0
10
-20.0
20
-7.5
11
277.0
21
202.5
12
0.0
22
0.0
32
0.0
14
25.7
24
19.5
34
0.0
15
231.3
25
175.5
35
0.0
146
0.0
13
0.0
23
0.0
33
0.0
16
1.0
26
0.0
36
0.0
17
0.0
27
1.0
37
0.0
76
0
330
1C
0
LAYOUT
5
3F
330
3D
100
AcDbPlotSettings
1

2
none_device
4
ISO_A4_(210.00_x_297.00_MM)
6

40
7.5
41
20.0
42
7.5
43
20.0
44
210.0
45
297.0
46
0.0
47
0.0
48
0.0
49
0.0
140
0.0
141
0.0
142
1.0
143
1.0
70
688
72
1
73
1
74
1
7

75
0
76
0
77
2
78
300
147
1.0
148
0.0
149
0.0
100
AcDbLayout
1
Layout1
71
1
10
-20.0
20
-7.5
11
277.0
21
202.5
12
0.0
22
0.0
32
0.0
14
25.7
24
19.5
34
0.0
15
231.3
25
175.5
35
0.0
146
0.0
13
0.0
23
0.0
33
0.0
16
1.0
26
0.0
36
0.0
17
0.0
27
1.0
37
0.0
76
0
330
3A
0
MLINESTYLE
5
1B
330
B
100
AcDbMlineStyle
2
Standard
70
0
3

62
256
51
90.0
52
90.0
71
2
49
0.5
62
256
6
ByLayer
49
-0.5
62
256
6
ByLayer
0
RASTERVARIABLES
5
21
330
E
100
AcDbRasterVariables
90
0
70
1
71
1
72
0
0
ENDSEC
0
EOF
