999
DXF file generated by netDxf https://github.com/haplokuon/netDxf, Copyright(C) Daniel Carvajal, Licensed under MIT
0
SECTION
2
HEADER
9
$ACADVER
1
AC1015
9
$DWGCODEPAGE
3
ANSI_1252
9
$HANDSEED
5
4A
9
$ANGBASE
50
0.0
9
$ANGDIR
70
0
9
$ATTMODE
70
1
9
$AUNITS
70
0
9
$AUPREC
70
0
9
$CECOLOR
62
256
9
$CELTSCALE
40
1.0
9
$CELTYPE
6
ByLayer
9
$CELWEIGHT
370
-1
9
$CLAYER
8
0
9
$CMLJUST
70
0
9
$CMLSCALE
40
20.0
9
$CMLSTYLE
2
Standard
9
$DIMSTYLE
2
Standard
9
$TEXTSIZE
40
2.5
9
$TEXTSTYLE
7
Standard
9
$LUNITS
70
2
9
$LUPREC
70
4
9
$MIRRTEXT
70
0
9
$EXTNAMES
290
1
9
$INSBASE
10
0.0
20
0.0
30
0.0
9
$INSUNITS
70
0
9
$LTSCALE
40
1.0
9
$LWDISPLAY
290
0
9
$PDMODE
70
0
9
$PDSIZE
40
0.0
9
$PLINEGEN
70
0
9
$PSLTSCALE
70
1
9
$SPLINESEGS
70
8
9
$SURFU
70
6
9
$SURFV
70
6
9
$TDCREATE
40
2460823.48361682
9
$TDUCREATE
40
2460823.15028348
9
$TDUPDATE
40
2460823.48361682
9
$TDUUPDATE
40
2460823.15028348
9
$TDINDWG
40
0.0
9
$UCSORG
10
0.0
20
0.0
30
0.0
9
$UCSXDIR
10
1.0
20
0.0
30
0.0
9
$UCSYDIR
10
0.0
20
1.0
30
0.0
9
$DIMADEC
70
0
9
$DIMALT
70
0
9
$DIMALTD
70
2
9
$DIMALTF
40
25.4
9
$DIMALTRND
40
0.0
9
$DIMALTTD
70
2
9
$DIMALTTZ
70
0
9
$DIMALTU
70
2
9
$DIMALTZ
70
0
9
$DIMAPOST
1

9
$DIMATFIT
70
3
9
$DIMAUNIT
70
0
9
$DIMASZ
40
0.18
9
$DIMAZIN
70
0
9
$DIMSAH
70
0
9
$DIMBLK
1

9
$DIMLDRBLK
1

9
$DIMCEN
40
0.09
9
$DIMCLRD
70
0
9
$DIMCLRE
70
0
9
$DIMCLRT
70
0
9
$DIMDEC
70
4
9
$DIMDLE
40
0.0
9
$DIMDLI
40
0.38
9
$DIMDSEP
70
46
9
$DIMEXE
40
0.18
9
$DIMEXO
40
0.0625
9
$DIMFXLON
70
0
9
$DIMFXL
40
1.0
9
$DIMGAP
40
0.09
9
$DIMJUST
70
0
9
$DIMLFAC
40
1.0
9
$DIMLUNIT
70
2
9
$DIMLWD
70
-2
9
$DIMLWE
70
-2
9
$DIMPOST
1

9
$DIMRND
40
0.0
9
$DIMSCALE
40
1.0
9
$DIMSD1
70
0
9
$DIMSD2
70
0
9
$DIMSE1
70
0
9
$DIMSE2
70
0
9
$DIMSOXD
70
0
9
$DIMTAD
70
0
9
$DIMTDEC
70
4
9
$DIMTFAC
40
1.0
9
$DIMTIH
70
0
9
$DIMTIX
70
0
9
$DIMTM
40
0.0
9
$DIMTMOVE
70
0
9
$DIMTOFL
70
0
9
$DIMTOH
70
0
9
$DIMTOL
70
0
9
$DIMLIM
70
0
9
$DIMTOLJ
70
1
9
$DIMTP
40
0.0
9
$DIMTXT
40
0.18
9
$DIMTXTDIRECTION
70
0
9
$DIMTZIN
70
0
9
$DIMZIN
70
0
9
$DIMFRAC
70
0
9
$DIMLTYPE
6
ByBlock
9
$DIMLTEX1
6
ByBlock
9
$DIMLTEX2
6
ByBlock
0
ENDSEC
0
SECTION
2
CLASSES
0
CLASS
1
RASTERVARIABLES
2
AcDbRasterVariables
3
ISM
90
0
280
0
281
0
0
ENDSEC
0
SECTION
2
TABLES
0
TABLE
2
APPID
5
4
330
0
100
AcDbSymbolTable
70
5
0
APPID
5
19
330
4
100
AcDbSymbolTableRecord
100
AcDbRegAppTableRecord
2
ACAD
70
0
0
APPID
5
44
330
4
100
AcDbSymbolTableRecord
100
AcDbRegAppTableRecord
2
AcCmTransparency
70
0
0
APPID
5
45
330
4
100
AcDbSymbolTableRecord
100
AcDbRegAppTableRecord
2
AcAecLayerStandard
70
0
0
APPID
5
46
330
4
100
AcDbSymbolTableRecord
100
AcDbRegAppTableRecord
2
GradientColor1ACI
70
0
0
APPID
5
47
330
4
100
AcDbSymbolTableRecord
100
AcDbRegAppTableRecord
2
GradientColor2ACI
70
0
0
ENDTAB
0
TABLE
2
VPORT
5
1
330
0
100
AcDbSymbolTable
70
1
0
VPORT
5
2
330
1
100
AcDbSymbolTableRecord
100
AcDbViewportTableRecord
2
*Active
70
0
10
0.0
20
0.0
11
1.0
21
1.0
12
0.0
22
0.0
13
0.0
23
0.0
14
0.5
24
0.5
15
10.0
25
10.0
16
0.0
26
0.0
36
1.0
17
0.0
27
0.0
37
0.0
40
10.0
41
1.0
75
0
76
1
0
ENDTAB
0
TABLE
2
LTYPE
5
7
330
0
100
AcDbSymbolTable
70
3
0
LTYPE
5
15
330
7
100
AcDbSymbolTableRecord
100
AcDbLinetypeTableRecord
2
Continuous
70
0
3
Solid line
72
65
73
0
40
0.0
0
LTYPE
5
16
330
7
100
AcDbSymbolTableRecord
100
AcDbLinetypeTableRecord
2
ByLayer
70
0
3

72
65
73
0
40
0.0
0
LTYPE
5
17
330
7
100
AcDbSymbolTableRecord
100
AcDbLinetypeTableRecord
2
ByBlock
70
0
3

72
65
73
0
40
0.0
0
ENDTAB
0
TABLE
2
LAYER
5
5
102
{ACAD_XDICTIONARY
360
6
102
}
330
0
100
AcDbSymbolTable
70
1
0
LAYER
5
14
330
5
100
AcDbSymbolTableRecord
100
AcDbLayerTableRecord
2
0
70
0
62
7
6
Continuous
290
1
370
-3
390
0
0
ENDTAB
0
TABLE
2
STYLE
5
8
330
0
100
AcDbSymbolTable
70
1
0
STYLE
5
18
330
8
100
AcDbSymbolTableRecord
100
AcDbTextStyleTableRecord
2
Standard
3
simplex.shx
70
0
71
0
40
0.0
41
1.0
42
0.0
50
0.0
0
ENDTAB
0
TABLE
2
DIMSTYLE
5
A
330
0
100
AcDbSymbolTable
70
1
100
AcDbDimStyleTable
0
DIMSTYLE
105
1A
330
A
100
AcDbSymbolTableRecord
100
AcDbDimStyleTableRecord
2
Standard
3

4

40
1.0
41
0.18
42
0.0625
43
0.38
44
0.18
45
0.0
46
0.0
47
0.0
48
0.0
49
1.0
70
0
71
0
72
0
73
0
74
0
75
0
76
0
77
0
78
0
79
0
140
0.18
141
0.09
143
25.4
144
1.0
146
1.0
147
0.09
148
0.0
170
0
171
2
172
0
174
0
175
0
176
0
177
0
178
0
179
0
271
4
272
4
273
2
274
2
275
0
276
0
277
2
278
46
279
0
280
0
281
0
282
0
283
1
284
0
285
0
286
0
289
3
290
0
294
0
340
18
173
0
345
17
346
17
347
17
371
-2
372
-2
0
ENDTAB
0
TABLE
2
VIEW
5
3
330
0
100
AcDbSymbolTable
70
0
0
ENDTAB
0
TABLE
2
UCS
5
C
330
0
100
AcDbSymbolTable
70
0
0
ENDTAB
0
TABLE
2
BLOCK_RECORD
5
D
330
0
100
AcDbSymbolTable
70
2
0
BLOCK_RECORD
5
1C
330
D
100
AcDbSymbolTableRecord
100
AcDbBlockTableRecord
2
*Model_Space
340
20
0
BLOCK_RECORD
5
3E
330
D
100
AcDbSymbolTableRecord
100
AcDbBlockTableRecord
2
*Paper_Space
340
43
0
ENDTAB
0
ENDSEC
0
SECTION
2
BLOCKS
0
BLOCK
5
1E
330
1C
100
AcDbEntity
67
0
8
0
100
AcDbBlockBegin
2
*Model_Space
70
0
10
0.0
20
0.0
30
0.0
3
*Model_Space
4

0
ENDBLK
5
1D
330
1C
100
AcDbEntity
8
0
100
AcDbBlockEnd
0
BLOCK
5
40
330
3E
100
AcDbEntity
67
1
8
0
100
AcDbBlockBegin
2
*Paper_Space
70
0
10
0.0
20
0.0
30
0.0
3
*Paper_Space
4

0
ENDBLK
5
3F
330
3E
100
AcDbEntity
8
0
100
AcDbBlockEnd
0
ENDSEC
0
SECTION
2
ENTITIES
0
LWPOLYLINE
5
22
330
1C
100
AcDbEntity
67
0
8
0
62
256
6
ByLayer
370
-1
48
1.0
60
0
100
AcDbPolyline
90
131
70
1
38
0.0
39
0.0
10
65.4129028320312
20
67.5712966918945
40
0.0
41
0.0
42
0.0
10
65.4402008056641
20
67.5711975097656
40
0.0
41
0.0
42
0.0
10
65.5030975341797
20
67.640998840332
40
0.0
41
0.0
42
0.0
10
65.7192001342773
20
67.9866027832031
40
0.0
41
0.0
42
0.0
10
65.7403030395508
20
68.317497253418
40
0.0
41
0.0
42
0.0
10
65.7785034179688
20
68.4834976196289
40
0.0
41
0.0
42
0.0
10
65.8218002319336
20
68.8703994750977
40
0.0
41
0.0
42
0.0
10
65.8431015014648
20
68.984001159668
40
0.0
41
0.0
42
0.0
10
65.931999206543
20
69.4169998168945
40
0.0
41
0.0
42
0.0
10
65.947998046875
20
69.4859008789062
40
0.0
41
0.0
42
0.0
10
66.0001983642578
20
69.6316986083984
40
0.0
41
0.0
42
0.0
10
66.1374969482422
20
69.9897994995117
40
0.0
41
0.0
42
0.0
10
66.3252029418945
20
70.2628021240234
40
0.0
41
0.0
42
0.0
10
66.5054016113281
20
70.4865036010742
40
0.0
41
0.0
42
0.0
10
66.5211029052734
20
70.4981002807617
40
0.0
41
0.0
42
0.0
10
66.9604034423828
20
70.7017974853516
40
0.0
41
0.0
42
0.0
10
66.9820022583008
20
70.6977005004883
40
0.0
41
0.0
42
0.0
10
67.0196990966797
20
70.6976013183594
40
0.0
41
0.0
42
0.0
10
67.4432983398438
20
70.7273025512695
40
0.0
41
0.0
42
0.0
10
67.4841003417969
20
70.7146987915039
40
0.0
41
0.0
42
0.0
10
67.8994979858398
20
70.6752014160156
40
0.0
41
0.0
42
0.0
10
67.9851989746094
20
70.6446990966797
40
0.0
41
0.0
42
0.0
10
68.4009017944336
20
70.5752029418945
40
0.0
41
0.0
42
0.0
10
68.4865036010742
20
70.5382995605469
40
0.0
41
0.0
42
0.0
10
68.6526031494141
20
70.5
40
0.0
41
0.0
42
0.0
10
68.7163009643555
20
70.4765014648438
40
0.0
41
0.0
42
0.0
10
68.9916000366211
20
70.3453979492188
40
0.0
41
0.0
42
0.0
10
69.3943023681641
20
69.9915008544922
40
0.0
41
0.0
42
0.0
10
69.5027008056641
20
69.5809020996094
40
0.0
41
0.0
42
0.0
10
69.5212020874023
20
69.4830017089844
40
0.0
41
0.0
42
0.0
10
69.5501022338867
20
69.2133026123047
40
0.0
41
0.0
42
0.0
10
69.5699005126953
20
68.7652969360352
40
0.0
41
0.0
42
0.0
10
69.5643005371094
20
68.5189971923828
40
0.0
41
0.0
42
0.0
10
69.5440979003906
20
68.2033004760742
40
0.0
41
0.0
42
0.0
10
69.5199966430664
20
68.0152969360352
40
0.0
41
0.0
42
0.0
10
69.5
20
67.9548034667969
40
0.0
41
0.0
42
0.0
10
69.4783020019531
20
67.8803024291992
40
0.0
41
0.0
42
0.0
10
69.3283004760742
20
67.5986022949219
40
0.0
41
0.0
42
0.0
10
69.3243026733398
20
67.5637969970703
40
0.0
41
0.0
42
0.0
10
69.3244018554688
20
67.5158004760742
40
0.0
41
0.0
42
0.0
10
69.3071975708008
20
67.4626998901367
40
0.0
41
0.0
42
0.0
10
68.9906997680664
20
67.1999969482422
40
0.0
41
0.0
42
0.0
10
68.564697265625
20
67.0376968383789
40
0.0
41
0.0
42
0.0
10
68.4854965209961
20
67.0046005249023
40
0.0
41
0.0
42
0.0
10
67.9814987182617
20
66.9345016479492
40
0.0
41
0.0
42
0.0
10
67.5596008300781
20
66.932502746582
40
0.0
41
0.0
42
0.0
10
67.5000991821289
20
66.9306030273438
40
0.0
41
0.0
42
0.0
10
67.0547027587891
20
66.9641036987305
40
0.0
41
0.0
42
0.0
10
67.0157012939453
20
66.963996887207
40
0.0
41
0.0
42
0.0
10
66.9835968017578
20
66.9615020751953
40
0.0
41
0.0
42
0.0
10
66.9393997192383
20
66.9494018554688
40
0.0
41
0.0
42
0.0
10
66.5190963745117
20
66.9838027954102
40
0.0
41
0.0
42
0.0
10
66.4915008544922
20
66.9838027954102
40
0.0
41
0.0
42
0.0
10
66.1937026977539
20
66.5081024169922
40
0.0
41
0.0
42
0.0
10
66.1638031005859
20
66.4680023193359
40
0.0
41
0.0
42
0.0
10
66.1636962890625
20
66.4372024536133
40
0.0
41
0.0
42
0.0
10
66.2622985839844
20
65.9851989746094
40
0.0
41
0.0
42
0.0
10
66.3889999389648
20
65.5557022094727
40
0.0
41
0.0
42
0.0
10
66.3891983032227
20
65.4824981689453
40
0.0
41
0.0
42
0.0
10
66.4089965820312
20
65.4012985229492
40
0.0
41
0.0
42
0.0
10
66.4994964599609
20
65.173698425293
40
0.0
41
0.0
42
0.0
10
66.5643005371094
20
65.0009994506836
40
0.0
41
0.0
42
0.0
10
66.5827026367188
20
65.0009994506836
40
0.0
41
0.0
42
0.0
10
66.5826034545898
20
65.0160980224609
40
0.0
41
0.0
42
0.0
10
66.5002975463867
20
65.2354965209961
40
0.0
41
0.0
42
0.0
10
66.4072036743164
20
65.4684982299805
40
0.0
41
0.0
42
0.0
10
66.3955001831055
20
65.5174026489258
40
0.0
41
0.0
42
0.0
10
66.3953018188477
20
65.5627975463867
40
0.0
41
0.0
42
0.0
10
66.3877029418945
20
65.5998001098633
40
0.0
41
0.0
42
0.0
10
66.2651977539062
20
66.0147018432617
40
0.0
41
0.0
42
0.0
10
66.1792984008789
20
66.4087982177734
40
0.0
41
0.0
42
0.0
10
66.241096496582
20
66.4917984008789
40
0.0
41
0.0
42
0.0
10
66.5070037841797
20
66.9162979125977
40
0.0
41
0.0
42
0.0
10
66.8668975830078
20
66.8871002197266
40
0.0
41
0.0
42
0.0
10
66.9031982421875
20
66.8870010375977
40
0.0
41
0.0
42
0.0
10
67.0162963867188
20
66.9179000854492
40
0.0
41
0.0
42
0.0
10
67.0777969360352
20
66.9226989746094
40
0.0
41
0.0
42
0.0
10
67.4806976318359
20
66.8925018310547
40
0.0
41
0.0
42
0.0
10
67.5192031860352
20
66.8924026489258
40
0.0
41
0.0
42
0.0
10
67.6042022705078
20
66.8981018066406
40
0.0
41
0.0
42
0.0
10
68.0182037353516
20
66.9001007080078
40
0.0
41
0.0
42
0.0
10
68.1017990112305
20
66.9135971069336
40
0.0
41
0.0
42
0.0
10
68.5143966674805
20
66.9702987670898
40
0.0
41
0.0
42
0.0
10
68.6574020385742
20
67.0306015014648
40
0.0
41
0.0
42
0.0
10
69.0095977783203
20
67.1649017333984
40
0.0
41
0.0
42
0.0
10
69.0436019897461
20
67.1911010742188
40
0.0
41
0.0
42
0.0
10
69.3026962280273
20
67.4072036743164
40
0.0
41
0.0
42
0.0
10
69.3274993896484
20
67.4832992553711
40
0.0
41
0.0
42
0.0
10
69.3274002075195
20
67.5398025512695
40
0.0
41
0.0
42
0.0
10
69.4891967773438
20
67.8434982299805
40
0.0
41
0.0
42
0.0
10
69.4998016357422
20
67.8804016113281
40
0.0
41
0.0
42
0.0
10
69.5345001220703
20
67.9847030639648
40
0.0
41
0.0
42
0.0
10
69.5767974853516
20
68.3153991699219
40
0.0
41
0.0
42
0.0
10
69.5875015258789
20
68.4807968139648
40
0.0
41
0.0
42
0.0
10
69.5960006713867
20
68.8988037109375
40
0.0
41
0.0
42
0.0
10
69.5752029418945
20
69.3764038085938
40
0.0
41
0.0
42
0.0
10
69.5599975585938
20
69.5168991088867
40
0.0
41
0.0
42
0.0
10
69.5063018798828
20
69.8015975952148
40
0.0
41
0.0
42
0.0
10
69.4515991210938
20
70.0083999633789
40
0.0
41
0.0
42
0.0
10
69.0082015991211
20
70.3981018066406
40
0.0
41
0.0
42
0.0
10
68.8678970336914
20
70.4648971557617
40
0.0
41
0.0
42
0.0
10
68.7740020751953
20
70.4997024536133
40
0.0
41
0.0
42
0.0
10
68.5133972167969
20
70.5597991943359
40
0.0
41
0.0
42
0.0
10
68.4689025878906
20
70.5789031982422
40
0.0
41
0.0
42
0.0
10
68.0147018432617
20
70.654899597168
40
0.0
41
0.0
42
0.0
10
67.9702987670898
20
70.6706008911133
40
0.0
41
0.0
42
0.0
10
67.5158996582031
20
70.7137985229492
40
0.0
41
0.0
42
0.0
10
67.4318008422852
20
70.7394027709961
40
0.0
41
0.0
42
0.0
10
67.3956985473633
20
70.7393035888672
40
0.0
41
0.0
42
0.0
10
67.0081024169922
20
70.7120971679688
40
0.0
41
0.0
42
0.0
10
66.9328994750977
20
70.7269973754883
40
0.0
41
0.0
42
0.0
10
66.8995971679688
20
70.7268981933594
40
0.0
41
0.0
42
0.0
10
66.4893035888672
20
70.5363998413086
40
0.0
41
0.0
42
0.0
10
66.426399230957
20
70.5037002563477
40
0.0
41
0.0
42
0.0
10
66.2693023681641
20
70.279899597168
40
0.0
41
0.0
42
0.0
10
66.1607971191406
20
70.1449966430664
40
0.0
41
0.0
42
0.0
10
66.0680999755859
20
70.0101013183594
40
0.0
41
0.0
42
0.0
10
65.9996032714844
20
69.8315963745117
40
0.0
41
0.0
42
0.0
10
65.8856964111328
20
69.5139999389648
40
0.0
41
0.0
42
0.0
10
65.8516998291016
20
69.3667984008789
40
0.0
41
0.0
42
0.0
10
65.7797012329102
20
69.0158996582031
40
0.0
41
0.0
42
0.0
10
65.7399978637695
20
68.8041000366211
40
0.0
41
0.0
42
0.0
10
65.7077026367188
20
68.5164031982422
40
0.0
41
0.0
42
0.0
10
65.6359024047852
20
68.2043991088867
40
0.0
41
0.0
42
0.0
10
65.6238021850586
20
68.013298034668
40
0.0
41
0.0
42
0.0
10
65.4968032836914
20
67.8099975585938
40
0.0
41
0.0
42
0.0
10
65.3523025512695
20
67.6495971679688
40
0.0
41
0.0
42
0.0
10
65.0166015625
20
67.7598037719727
40
0.0
41
0.0
42
0.0
10
65.0009994506836
20
67.7598037719727
40
0.0
41
0.0
42
0.0
10
65.0009002685547
20
67.7068023681641
40
0.0
41
0.0
42
0.0
10
65.4129028320312
20
67.5712966918945
40
0.0
41
0.0
42
0.0
210
0.0
220
0.0
230
1.0
0
LWPOLYLINE
5
23
330
1C
100
AcDbEntity
67
0
8
0
62
256
6
ByLayer
370
-1
48
1.0
60
0
100
AcDbPolyline
90
86
70
1
38
0.0
39
0.0
10
65.0009994506836
20
73.8067016601562
40
0.0
41
0.0
42
0.0
10
65.0009994506836
20
73.7733993530273
40
0.0
41
0.0
42
0.0
10
65.0184020996094
20
73.7733001708984
40
0.0
41
0.0
42
0.0
10
65.0801010131836
20
73.7822036743164
40
0.0
41
0.0
42
0.0
10
65.4830017089844
20
73.6645965576172
40
0.0
41
0.0
42
0.0
10
65.5179977416992
20
73.6644973754883
40
0.0
41
0.0
42
0.0
10
65.9278030395508
20
73.7396011352539
40
0.0
41
0.0
42
0.0
10
65.9629974365234
20
73.7592010498047
40
0.0
41
0.0
42
0.0
10
66.0044021606445
20
73.7940979003906
40
0.0
41
0.0
42
0.0
10
66.0095977783203
20
73.8013000488281
40
0.0
41
0.0
42
0.0
10
66.296501159668
20
73.9955978393555
40
0.0
41
0.0
42
0.0
10
66.3332977294922
20
74.0407028198242
40
0.0
41
0.0
42
0.0
10
66.5029983520508
20
74.1521987915039
40
0.0
41
0.0
42
0.0
10
66.8738021850586
20
74.4987030029297
40
0.0
41
0.0
42
0.0
10
66.901496887207
20
74.538200378418
40
0.0
41
0.0
42
0.0
10
66.9866027832031
20
74.6290969848633
40
0.0
41
0.0
42
0.0
10
67.0035018920898
20
74.6539001464844
40
0.0
41
0.0
42
0.0
10
67.3183975219727
20
74.9928970336914
40
0.0
41
0.0
42
0.0
10
67.3460006713867
20
75.035400390625
40
0.0
41
0.0
42
0.0
10
67.4619979858398
20
75.2660980224609
40
0.0
41
0.0
42
0.0
10
67.5011978149414
20
75.3608016967773
40
0.0
41
0.0
42
0.0
10
67.5787963867188
20
75.4859008789062
40
0.0
41
0.0
42
0.0
10
67.5786972045898
20
75.5180969238281
40
0.0
41
0.0
42
0.0
10
67.533203125
20
75.7802963256836
40
0.0
41
0.0
42
0.0
10
67.5122985839844
20
76.0123977661133
40
0.0
41
0.0
42
0.0
10
67.502197265625
20
76.026496887207
40
0.0
41
0.0
42
0.0
10
67.4559020996094
20
76.1085968017578
40
0.0
41
0.0
42
0.0
10
67.2572021484375
20
76.4671020507812
40
0.0
41
0.0
42
0.0
10
67.2456970214844
20
76.5119018554688
40
0.0
41
0.0
42
0.0
10
67.0031967163086
20
76.8473968505859
40
0.0
41
0.0
42
0.0
10
66.908203125
20
76.9651031494141
40
0.0
41
0.0
42
0.0
10
66.888298034668
20
77.011100769043
40
0.0
41
0.0
42
0.0
10
66.8672027587891
20
77.05419921875
40
0.0
41
0.0
42
0.0
10
66.8405990600586
20
77.0920028686523
40
0.0
41
0.0
42
0.0
10
66.7400970458984
20
77.2089004516602
40
0.0
41
0.0
42
0.0
10
66.5062026977539
20
77.4717025756836
40
0.0
41
0.0
42
0.0
10
66.4568023681641
20
77.502799987793
40
0.0
41
0.0
42
0.0
10
66.436897277832
20
77.5189971923828
40
0.0
41
0.0
42
0.0
10
66.0903015136719
20
77.7213973999023
40
0.0
41
0.0
42
0.0
10
66.0412979125977
20
77.7925033569336
40
0.0
41
0.0
42
0.0
10
66.0095977783203
20
77.8255996704102
40
0.0
41
0.0
42
0.0
10
65.7816009521484
20
77.8629989624023
40
0.0
41
0.0
42
0.0
10
65.4819030761719
20
77.8703994750977
40
0.0
41
0.0
42
0.0
10
65.3203964233398
20
77.8365020751953
40
0.0
41
0.0
42
0.0
10
65.0009994506836
20
77.7285995483398
40
0.0
41
0.0
42
0.0
10
65.0009994506836
20
77.6605987548828
40
0.0
41
0.0
42
0.0
10
65.0165023803711
20
77.6604995727539
40
0.0
41
0.0
42
0.0
10
65.427001953125
20
77.799201965332
40
0.0
41
0.0
42
0.0
10
65.513298034668
20
77.8171997070312
40
0.0
41
0.0
42
0.0
10
65.8569030761719
20
77.807502746582
40
0.0
41
0.0
42
0.0
10
65.9901962280273
20
77.7855987548828
40
0.0
41
0.0
42
0.0
10
66.0161972045898
20
77.7584991455078
40
0.0
41
0.0
42
0.0
10
66.0394973754883
20
77.7246017456055
40
0.0
41
0.0
42
0.0
10
66.4139022827148
20
77.5057983398438
40
0.0
41
0.0
42
0.0
10
66.4248962402344
20
77.4970016479492
40
0.0
41
0.0
42
0.0
10
66.4935989379883
20
77.4539031982422
40
0.0
41
0.0
42
0.0
10
66.8431015014648
20
77.0598983764648
40
0.0
41
0.0
42
0.0
10
66.8778991699219
20
76.9887008666992
40
0.0
41
0.0
42
0.0
10
66.91259765625
20
76.9080963134766
40
0.0
41
0.0
42
0.0
10
66.9965972900391
20
76.80419921875
40
0.0
41
0.0
42
0.0
10
67.222900390625
20
76.4912033081055
40
0.0
41
0.0
42
0.0
10
67.2454986572266
20
76.402702331543
40
0.0
41
0.0
42
0.0
10
67.4765014648438
20
75.9860000610352
40
0.0
41
0.0
42
0.0
10
67.5009002685547
20
75.6100006103516
40
0.0
41
0.0
42
0.0
10
67.5074996948242
20
75.5348968505859
40
0.0
41
0.0
42
0.0
10
67.5123977661133
20
75.5071029663086
40
0.0
41
0.0
42
0.0
10
67.4987030029297
20
75.4845962524414
40
0.0
41
0.0
42
0.0
10
67.4254989624023
20
75.3080978393555
40
0.0
41
0.0
42
0.0
10
67.3184967041016
20
75.0951995849609
40
0.0
41
0.0
42
0.0
10
67.3062973022461
20
75.0731964111328
40
0.0
41
0.0
42
0.0
10
67.2611999511719
20
75.0068969726562
40
0.0
41
0.0
42
0.0
10
66.9963989257812
20
74.7219009399414
40
0.0
41
0.0
42
0.0
10
66.9645004272461
20
74.6747970581055
40
0.0
41
0.0
42
0.0
10
66.8864974975586
20
74.5916976928711
40
0.0
41
0.0
42
0.0
10
66.8330993652344
20
74.5155029296875
40
0.0
41
0.0
42
0.0
10
66.4951019287109
20
74.1998977661133
40
0.0
41
0.0
42
0.0
10
66.486701965332
20
74.1900024414062
40
0.0
41
0.0
42
0.0
10
66.3331985473633
20
74.0892028808594
40
0.0
41
0.0
42
0.0
10
66.2640991210938
20
74.0043029785156
40
0.0
41
0.0
42
0.0
10
66.0045013427734
20
73.8287963867188
40
0.0
41
0.0
42
0.0
10
65.9952011108398
20
73.8165969848633
40
0.0
41
0.0
42
0.0
10
65.9269027709961
20
73.7591018676758
40
0.0
41
0.0
42
0.0
10
65.5034027099609
20
73.681396484375
40
0.0
41
0.0
42
0.0
10
65.061897277832
20
73.8105010986328
40
0.0
41
0.0
42
0.0
10
65.026496887207
20
73.8104019165039
40
0.0
41
0.0
42
0.0
10
65.0009994506836
20
73.8067016601562
40
0.0
41
0.0
42
0.0
210
0.0
220
0.0
230
1.0
0
LWPOLYLINE
5
24
330
1C
100
AcDbEntity
67
0
8
0
62
256
6
ByLayer
370
-1
48
1.0
60
0
100
AcDbPolyline
90
133
70
1
38
0.0
39
0.0
10
65.0160980224609
20
83.4170989990234
40
0.0
41
0.0
42
0.0
10
65.2356033325195
20
83.4994964599609
40
0.0
41
0.0
42
0.0
10
65.4685974121094
20
83.5924987792969
40
0.0
41
0.0
42
0.0
10
65.5145034790039
20
83.6035995483398
40
0.0
41
0.0
42
0.0
10
65.959602355957
20
83.7351989746094
40
0.0
41
0.0
42
0.0
10
66.0177001953125
20
83.7350997924805
40
0.0
41
0.0
42
0.0
10
66.4088973999023
20
83.8205032348633
40
0.0
41
0.0
42
0.0
10
66.4988021850586
20
83.7542037963867
40
0.0
41
0.0
42
0.0
10
66.9142990112305
20
83.4941024780273
40
0.0
41
0.0
42
0.0
10
66.9404983520508
20
83.4296035766602
40
0.0
41
0.0
42
0.0
10
66.9181976318359
20
83.019401550293
40
0.0
41
0.0
42
0.0
10
66.918098449707
20
82.9807968139648
40
0.0
41
0.0
42
0.0
10
66.9226989746094
20
82.9220962524414
40
0.0
41
0.0
42
0.0
10
66.8925018310547
20
82.5192031860352
40
0.0
41
0.0
42
0.0
10
66.8924026489258
20
82.4806976318359
40
0.0
41
0.0
42
0.0
10
66.8981018066406
20
82.3956985473633
40
0.0
41
0.0
42
0.0
10
66.9001007080078
20
81.9816970825195
40
0.0
41
0.0
42
0.0
10
66.9135971069336
20
81.8981018066406
40
0.0
41
0.0
42
0.0
10
66.9702987670898
20
81.4854965209961
40
0.0
41
0.0
42
0.0
10
67.0306015014648
20
81.3423004150391
40
0.0
41
0.0
42
0.0
10
67.1648025512695
20
80.9903030395508
40
0.0
41
0.0
42
0.0
10
67.1911010742188
20
80.9561004638672
40
0.0
41
0.0
42
0.0
10
67.4072036743164
20
80.6969985961914
40
0.0
41
0.0
42
0.0
10
67.4832992553711
20
80.6722030639648
40
0.0
41
0.0
42
0.0
10
67.5398025512695
20
80.6723022460938
40
0.0
41
0.0
42
0.0
10
67.8433990478516
20
80.510498046875
40
0.0
41
0.0
42
0.0
10
67.8804016113281
20
80.5
40
0.0
41
0.0
42
0.0
10
67.9845962524414
20
80.465202331543
40
0.0
41
0.0
42
0.0
10
68.3153991699219
20
80.4228973388672
40
0.0
41
0.0
42
0.0
10
68.4807968139648
20
80.4122009277344
40
0.0
41
0.0
42
0.0
10
68.8988037109375
20
80.4037017822266
40
0.0
41
0.0
42
0.0
10
69.3764038085938
20
80.4244995117188
40
0.0
41
0.0
42
0.0
10
69.5168991088867
20
80.439697265625
40
0.0
41
0.0
42
0.0
10
69.8015975952148
20
80.4934997558594
40
0.0
41
0.0
42
0.0
10
70.0083999633789
20
80.5481033325195
40
0.0
41
0.0
42
0.0
10
70.4008026123047
20
80.994499206543
40
0.0
41
0.0
42
0.0
10
70.4139022827148
20
81.0070037841797
40
0.0
41
0.0
42
0.0
10
70.4362030029297
20
81.0353012084961
40
0.0
41
0.0
42
0.0
10
70.4801025390625
20
81.1539001464844
40
0.0
41
0.0
42
0.0
10
70.4996032714844
20
81.2248992919922
40
0.0
41
0.0
42
0.0
10
70.5597991943359
20
81.4865036010742
40
0.0
41
0.0
42
0.0
10
70.5789031982422
20
81.5308990478516
40
0.0
41
0.0
42
0.0
10
70.654899597168
20
81.9851989746094
40
0.0
41
0.0
42
0.0
10
70.6706008911133
20
82.0295028686523
40
0.0
41
0.0
42
0.0
10
70.7138977050781
20
82.484001159668
40
0.0
41
0.0
42
0.0
10
70.7394027709961
20
82.5680999755859
40
0.0
41
0.0
42
0.0
10
70.7393035888672
20
82.6042022705078
40
0.0
41
0.0
42
0.0
10
70.7120971679688
20
82.9917984008789
40
0.0
41
0.0
42
0.0
10
70.7269973754883
20
83.0670013427734
40
0.0
41
0.0
42
0.0
10
70.7268981933594
20
83.1003036499023
40
0.0
41
0.0
42
0.0
10
70.5363998413086
20
83.5105972290039
40
0.0
41
0.0
42
0.0
10
70.5037002563477
20
83.5734024047852
40
0.0
41
0.0
42
0.0
10
70.279899597168
20
83.7304000854492
40
0.0
41
0.0
42
0.0
10
70.1449966430664
20
83.8388977050781
40
0.0
41
0.0
42
0.0
10
70.0101013183594
20
83.9316024780273
40
0.0
41
0.0
42
0.0
10
69.6004028320312
20
84.0873031616211
40
0.0
41
0.0
42
0.0
10
69.5145034790039
20
84.1139984130859
40
0.0
41
0.0
42
0.0
10
69.3667984008789
20
84.1480026245117
40
0.0
41
0.0
42
0.0
10
69.0158996582031
20
84.2200012207031
40
0.0
41
0.0
42
0.0
10
68.8040008544922
20
84.2596969604492
40
0.0
41
0.0
42
0.0
10
68.5164031982422
20
84.2919998168945
40
0.0
41
0.0
42
0.0
10
68.2043991088867
20
84.3638000488281
40
0.0
41
0.0
42
0.0
10
68.013298034668
20
84.3759002685547
40
0.0
41
0.0
42
0.0
10
67.8099975585938
20
84.5029983520508
40
0.0
41
0.0
42
0.0
10
67.6495971679688
20
84.6474990844727
40
0.0
41
0.0
42
0.0
10
67.7598037719727
20
84.9832992553711
40
0.0
41
0.0
42
0.0
10
67.7598037719727
20
84.9990005493164
40
0.0
41
0.0
42
0.0
10
67.7068023681641
20
84.9990005493164
40
0.0
41
0.0
42
0.0
10
67.5712966918945
20
84.5868988037109
40
0.0
41
0.0
42
0.0
10
67.5710983276367
20
84.5595016479492
40
0.0
41
0.0
42
0.0
10
67.6408996582031
20
84.4968032836914
40
0.0
41
0.0
42
0.0
10
67.9866027832031
20
84.2805023193359
40
0.0
41
0.0
42
0.0
10
68.317497253418
20
84.2593994140625
40
0.0
41
0.0
42
0.0
10
68.4834976196289
20
84.2211990356445
40
0.0
41
0.0
42
0.0
10
68.8703002929688
20
84.1779022216797
40
0.0
41
0.0
42
0.0
10
68.984001159668
20
84.1566009521484
40
0.0
41
0.0
42
0.0
10
69.4169998168945
20
84.0677032470703
40
0.0
41
0.0
42
0.0
10
69.4853973388672
20
84.052001953125
40
0.0
41
0.0
42
0.0
10
69.5262985229492
20
84.0392990112305
40
0.0
41
0.0
42
0.0
10
69.9897994995117
20
83.8621978759766
40
0.0
41
0.0
42
0.0
10
70.2627029418945
20
83.6744995117188
40
0.0
41
0.0
42
0.0
10
70.4866027832031
20
83.494499206543
40
0.0
41
0.0
42
0.0
10
70.4981002807617
20
83.4785995483398
40
0.0
41
0.0
42
0.0
10
70.7018966674805
20
83.0394973754883
40
0.0
41
0.0
42
0.0
10
70.6977005004883
20
83.0178985595703
40
0.0
41
0.0
42
0.0
10
70.6976013183594
20
82.9801025390625
40
0.0
41
0.0
42
0.0
10
70.7273025512695
20
82.5566024780273
40
0.0
41
0.0
42
0.0
10
70.7146987915039
20
82.5158004760742
40
0.0
41
0.0
42
0.0
10
70.6753005981445
20
82.1004028320312
40
0.0
41
0.0
42
0.0
10
70.6446990966797
20
82.0147018432617
40
0.0
41
0.0
42
0.0
10
70.5752029418945
20
81.5989990234375
40
0.0
41
0.0
42
0.0
10
70.5382995605469
20
81.5133972167969
40
0.0
41
0.0
42
0.0
10
70.5002975463867
20
81.3479995727539
40
0.0
41
0.0
42
0.0
10
70.4625015258789
20
81.2102966308594
40
0.0
41
0.0
42
0.0
10
70.4197006225586
20
81.094596862793
40
0.0
41
0.0
42
0.0
10
70.3690032958984
20
81.0299987792969
40
0.0
41
0.0
42
0.0
10
70.3427963256836
20
81.0054016113281
40
0.0
41
0.0
42
0.0
10
69.9915008544922
20
80.6054992675781
40
0.0
41
0.0
42
0.0
10
69.5809020996094
20
80.4970016479492
40
0.0
41
0.0
42
0.0
10
69.4830017089844
20
80.4785003662109
40
0.0
41
0.0
42
0.0
10
69.2133026123047
20
80.4496002197266
40
0.0
41
0.0
42
0.0
10
68.7652969360352
20
80.429801940918
40
0.0
41
0.0
42
0.0
10
68.5189971923828
20
80.4354019165039
40
0.0
41
0.0
42
0.0
10
68.2033004760742
20
80.4555969238281
40
0.0
41
0.0
42
0.0
10
68.0151977539062
20
80.4796981811523
40
0.0
41
0.0
42
0.0
10
67.9548034667969
20
80.4999008178711
40
0.0
41
0.0
42
0.0
10
67.8803024291992
20
80.5214004516602
40
0.0
41
0.0
42
0.0
10
67.5986022949219
20
80.6714019775391
40
0.0
41
0.0
42
0.0
10
67.5637969970703
20
80.6753997802734
40
0.0
41
0.0
42
0.0
10
67.5158004760742
20
80.6753005981445
40
0.0
41
0.0
42
0.0
10
67.4626007080078
20
80.6925964355469
40
0.0
41
0.0
42
0.0
10
67.1999969482422
20
81.0092010498047
40
0.0
41
0.0
42
0.0
10
67.0376968383789
20
81.4350967407227
40
0.0
41
0.0
42
0.0
10
67.0046005249023
20
81.5143966674805
40
0.0
41
0.0
42
0.0
10
66.9345016479492
20
82.0184020996094
40
0.0
41
0.0
42
0.0
10
66.932502746582
20
82.4402008056641
40
0.0
41
0.0
42
0.0
10
66.9306030273438
20
82.4997024536133
40
0.0
41
0.0
42
0.0
10
66.963996887207
20
82.9449005126953
40
0.0
41
0.0
42
0.0
10
66.9626007080078
20
83.0037994384766
40
0.0
41
0.0
42
0.0
10
66.9881973266602
20
83.4697036743164
40
0.0
41
0.0
42
0.0
10
66.9880981445312
20
83.504997253418
40
0.0
41
0.0
42
0.0
10
66.5080032348633
20
83.8059997558594
40
0.0
41
0.0
42
0.0
10
66.4680023193359
20
83.8360977172852
40
0.0
41
0.0
42
0.0
10
66.4372024536133
20
83.8359985351562
40
0.0
41
0.0
42
0.0
10
65.9822006225586
20
83.7369003295898
40
0.0
41
0.0
42
0.0
10
65.9358978271484
20
83.736701965332
40
0.0
41
0.0
42
0.0
10
65.8989028930664
20
83.7333984375
40
0.0
41
0.0
42
0.0
10
65.4853973388672
20
83.611198425293
40
0.0
41
0.0
42
0.0
10
65.4013977050781
20
83.5906982421875
40
0.0
41
0.0
42
0.0
10
65.173698425293
20
83.5003967285156
40
0.0
41
0.0
42
0.0
10
65.0009994506836
20
83.4355010986328
40
0.0
41
0.0
42
0.0
10
65.0009994506836
20
83.4171981811523
40
0.0
41
0.0
42
0.0
10
65.0160980224609
20
83.4170989990234
40
0.0
41
0.0
42
0.0
210
0.0
220
0.0
230
1.0
0
LWPOLYLINE
5
25
330
1C
100
AcDbEntity
67
0
8
0
62
256
6
ByLayer
370
-1
48
1.0
60
0
100
AcDbPolyline
90
238
70
1
38
0.0
39
0.0
10
69.8466033935547
20
75.033203125
40
0.0
41
0.0
42
0.0
10
69.864501953125
20
74.9933013916016
40
0.0
41
0.0
42
0.0
10
69.99169921875
20
74.9169998168945
40
0.0
41
0.0
42
0.0
10
70.4166030883789
20
74.6540985107422
40
0.0
41
0.0
42
0.0
10
70.491096496582
20
74.595703125
40
0.0
41
0.0
42
0.0
10
70.6741027832031
20
74.5058975219727
40
0.0
41
0.0
42
0.0
10
70.7586975097656
20
74.4512023925781
40
0.0
41
0.0
42
0.0
10
70.9872970581055
20
74.3522033691406
40
0.0
41
0.0
42
0.0
10
71.4033966064453
20
74.2188034057617
40
0.0
41
0.0
42
0.0
10
71.4882965087891
20
74.1707992553711
40
0.0
41
0.0
42
0.0
10
71.8440017700195
20
74.0622024536133
40
0.0
41
0.0
42
0.0
10
71.9852981567383
20
74.0308990478516
40
0.0
41
0.0
42
0.0
10
72.0622024536133
20
74.0071029663086
40
0.0
41
0.0
42
0.0
10
72.0626983642578
20
73.9918975830078
40
0.0
41
0.0
42
0.0
10
71.9929962158203
20
73.9649963378906
40
0.0
41
0.0
42
0.0
10
71.8256988525391
20
73.7490997314453
40
0.0
41
0.0
42
0.0
10
71.6328964233398
20
73.5064010620117
40
0.0
41
0.0
42
0.0
10
71.4961013793945
20
73.3544006347656
40
0.0
41
0.0
42
0.0
10
71.4658966064453
20
73.315803527832
40
0.0
41
0.0
42
0.0
10
71.307502746582
20
73.0940017700195
40
0.0
41
0.0
42
0.0
10
71.2639007568359
20
73.0100021362305
40
0.0
41
0.0
42
0.0
10
71.0308990478516
20
72.5953979492188
40
0.0
41
0.0
42
0.0
10
71.0014038085938
20
72.5310974121094
40
0.0
41
0.0
42
0.0
10
70.9942016601562
20
72.5136032104492
40
0.0
41
0.0
42
0.0
10
70.9751968383789
20
72.4316024780273
40
0.0
41
0.0
42
0.0
10
70.8595962524414
20
72.0998992919922
40
0.0
41
0.0
42
0.0
10
70.8473968505859
20
72.0184020996094
40
0.0
41
0.0
42
0.0
10
70.8471984863281
20
71.9820022583008
40
0.0
41
0.0
42
0.0
10
70.92919921875
20
71.5706024169922
40
0.0
41
0.0
42
0.0
10
70.9428024291992
20
71.533203125
40
0.0
41
0.0
42
0.0
10
70.9601974487305
20
71.497802734375
40
0.0
41
0.0
42
0.0
10
70.9894027709961
20
71.4751968383789
40
0.0
41
0.0
42
0.0
10
71.0291976928711
20
71.4648971557617
40
0.0
41
0.0
42
0.0
10
71.4815979003906
20
71.3935012817383
40
0.0
41
0.0
42
0.0
10
71.5177993774414
20
71.3934020996094
40
0.0
41
0.0
42
0.0
10
71.9480972290039
20
71.4819030761719
40
0.0
41
0.0
42
0.0
10
72.0162963867188
20
71.4886016845703
40
0.0
41
0.0
42
0.0
10
72.0393981933594
20
71.494499206543
40
0.0
41
0.0
42
0.0
10
72.4543991088867
20
71.6580963134766
40
0.0
41
0.0
42
0.0
10
72.5119018554688
20
71.6725006103516
40
0.0
41
0.0
42
0.0
10
72.9269027709961
20
71.9163970947266
40
0.0
41
0.0
42
0.0
10
73.013801574707
20
71.9384002685547
40
0.0
41
0.0
42
0.0
10
73.0322036743164
20
71.9449996948242
40
0.0
41
0.0
42
0.0
10
73.1350021362305
20
71.8836975097656
40
0.0
41
0.0
42
0.0
10
73.1588973999023
20
71.883903503418
40
0.0
41
0.0
42
0.0
10
73.244499206543
20
71.994499206543
40
0.0
41
0.0
42
0.0
10
73.4988021850586
20
72.2108001708984
40
0.0
41
0.0
42
0.0
10
73.5905990600586
20
71.986701965332
40
0.0
41
0.0
42
0.0
10
73.6231002807617
20
71.8666000366211
40
0.0
41
0.0
42
0.0
10
73.659797668457
20
71.4838027954102
40
0.0
41
0.0
42
0.0
10
73.6830978393555
20
71.3994979858398
40
0.0
41
0.0
42
0.0
10
73.7537002563477
20
70.9845962524414
40
0.0
41
0.0
42
0.0
10
73.8697967529297
20
70.5715026855469
40
0.0
41
0.0
42
0.0
10
73.9018020629883
20
70.4887008666992
40
0.0
41
0.0
42
0.0
10
73.9440994262695
20
70.4098968505859
40
0.0
41
0.0
42
0.0
10
73.9988021850586
20
70.254997253418
40
0.0
41
0.0
42
0.0
10
74.1759033203125
20
70.0015029907227
40
0.0
41
0.0
42
0.0
10
74.2546005249023
20
69.9478988647461
40
0.0
41
0.0
42
0.0
10
74.4897994995117
20
69.6644973754883
40
0.0
41
0.0
42
0.0
10
74.5158996582031
20
69.6643981933594
40
0.0
41
0.0
42
0.0
10
74.9666976928711
20
69.8466033935547
40
0.0
41
0.0
42
0.0
10
75.0064010620117
20
69.8646011352539
40
0.0
41
0.0
42
0.0
10
75.0827026367188
20
69.99169921875
40
0.0
41
0.0
42
0.0
10
75.1477966308594
20
70.0768966674805
40
0.0
41
0.0
42
0.0
10
75.4035034179688
20
70.4900970458984
40
0.0
41
0.0
42
0.0
10
75.4937973022461
20
70.6741027832031
40
0.0
41
0.0
42
0.0
10
75.5485992431641
20
70.7586975097656
40
0.0
41
0.0
42
0.0
10
75.6474990844727
20
70.9872970581055
40
0.0
41
0.0
42
0.0
10
75.7808990478516
20
71.4033966064453
40
0.0
41
0.0
42
0.0
10
75.8289031982422
20
71.4882965087891
40
0.0
41
0.0
42
0.0
10
75.9375
20
71.8440017700195
40
0.0
41
0.0
42
0.0
10
75.9688034057617
20
71.9853973388672
40
0.0
41
0.0
42
0.0
10
75.9929962158203
20
72.0622024536133
40
0.0
41
0.0
42
0.0
10
76.0082015991211
20
72.0626983642578
40
0.0
41
0.0
42
0.0
10
76.0346984863281
20
71.9928970336914
40
0.0
41
0.0
42
0.0
10
76.2507019042969
20
71.8255996704102
40
0.0
41
0.0
42
0.0
10
76.4934005737305
20
71.6327972412109
40
0.0
41
0.0
42
0.0
10
76.6453018188477
20
71.4960021972656
40
0.0
41
0.0
42
0.0
10
76.6838989257812
20
71.4657974243164
40
0.0
41
0.0
42
0.0
10
76.9058990478516
20
71.3074035644531
40
0.0
41
0.0
42
0.0
10
76.9898986816406
20
71.2639007568359
40
0.0
41
0.0
42
0.0
10
77.4045028686523
20
71.0308990478516
40
0.0
41
0.0
42
0.0
10
77.4686965942383
20
71.0014038085938
40
0.0
41
0.0
42
0.0
10
77.4862976074219
20
70.9942016601562
40
0.0
41
0.0
42
0.0
10
77.5682983398438
20
70.97509765625
40
0.0
41
0.0
42
0.0
10
77.9000015258789
20
70.8595962524414
40
0.0
41
0.0
42
0.0
10
77.9814987182617
20
70.8473968505859
40
0.0
41
0.0
42
0.0
10
78.0178985595703
20
70.847297668457
40
0.0
41
0.0
42
0.0
10
78.4292984008789
20
70.92919921875
40
0.0
41
0.0
42
0.0
10
78.4666976928711
20
70.9429016113281
40
0.0
41
0.0
42
0.0
10
78.5019989013672
20
70.9601974487305
40
0.0
41
0.0
42
0.0
10
78.5245971679688
20
70.9894027709961
40
0.0
41
0.0
42
0.0
10
78.534797668457
20
71.0291976928711
40
0.0
41
0.0
42
0.0
10
78.6064987182617
20
71.4815979003906
40
0.0
41
0.0
42
0.0
10
78.6063995361328
20
71.5186996459961
40
0.0
41
0.0
42
0.0
10
78.5967025756836
20
71.6016006469727
40
0.0
41
0.0
42
0.0
10
78.5122985839844
20
72.0111999511719
40
0.0
41
0.0
42
0.0
10
78.5053024291992
20
72.0393981933594
40
0.0
41
0.0
42
0.0
10
78.3416976928711
20
72.4542999267578
40
0.0
41
0.0
42
0.0
10
78.3058013916016
20
72.5969009399414
40
0.0
41
0.0
42
0.0
10
78.0624008178711
20
73.0109024047852
40
0.0
41
0.0
42
0.0
10
78.0547027587891
20
73.0322036743164
40
0.0
41
0.0
42
0.0
10
78.1159973144531
20
73.1350021362305
40
0.0
41
0.0
42
0.0
10
78.1158981323242
20
73.1588973999023
40
0.0
41
0.0
42
0.0
10
78.0053024291992
20
73.2444000244141
40
0.0
41
0.0
42
0.0
10
77.7889022827148
20
73.4988021850586
40
0.0
41
0.0
42
0.0
10
78.0131988525391
20
73.5905990600586
40
0.0
41
0.0
42
0.0
10
78.1332015991211
20
73.6231002807617
40
0.0
41
0.0
42
0.0
10
78.5160980224609
20
73.659797668457
40
0.0
41
0.0
42
0.0
10
78.6004028320312
20
73.6830978393555
40
0.0
41
0.0
42
0.0
10
79.0152969360352
20
73.7537994384766
40
0.0
41
0.0
42
0.0
10
79.4282989501953
20
73.8697967529297
40
0.0
41
0.0
42
0.0
10
79.5111999511719
20
73.9017028808594
40
0.0
41
0.0
42
0.0
10
79.5898971557617
20
73.9440994262695
40
0.0
41
0.0
42
0.0
10
79.7446975708008
20
73.9988021850586
40
0.0
41
0.0
42
0.0
10
79.9981994628906
20
74.1760025024414
40
0.0
41
0.0
42
0.0
10
80.0519027709961
20
74.2546005249023
40
0.0
41
0.0
42
0.0
10
80.3354034423828
20
74.4897994995117
40
0.0
41
0.0
42
0.0
10
80.3352966308594
20
74.5155029296875
40
0.0
41
0.0
42
0.0
10
80.3169021606445
20
74.5567016601562
40
0.0
41
0.0
42
0.0
10
80.1349029541016
20
75.0067977905273
40
0.0
41
0.0
42
0.0
10
80.0081024169922
20
75.0827026367188
40
0.0
41
0.0
42
0.0
10
79.9229965209961
20
75.1477966308594
40
0.0
41
0.0
42
0.0
10
79.5096969604492
20
75.4035034179688
40
0.0
41
0.0
42
0.0
10
79.3255996704102
20
75.4936981201172
40
0.0
41
0.0
42
0.0
10
79.241096496582
20
75.5485000610352
40
0.0
41
0.0
42
0.0
10
79.0124969482422
20
75.6473999023438
40
0.0
41
0.0
42
0.0
10
78.5964965820312
20
75.7808990478516
40
0.0
41
0.0
42
0.0
10
78.5115966796875
20
75.8289031982422
40
0.0
41
0.0
42
0.0
10
78.1557998657227
20
75.9375
40
0.0
41
0.0
42
0.0
10
78.0145034790039
20
75.9688034057617
40
0.0
41
0.0
42
0.0
10
77.9376983642578
20
75.9929962158203
40
0.0
41
0.0
42
0.0
10
77.9372024536133
20
76.00830078125
40
0.0
41
0.0
42
0.0
10
78.0068969726562
20
76.034797668457
40
0.0
41
0.0
42
0.0
10
78.1741027832031
20
76.2507019042969
40
0.0
41
0.0
42
0.0
10
78.3669967651367
20
76.4934997558594
40
0.0
41
0.0
42
0.0
10
78.5038986206055
20
76.6453018188477
40
0.0
41
0.0
42
0.0
10
78.5338973999023
20
76.6839981079102
40
0.0
41
0.0
42
0.0
10
78.6922988891602
20
76.9059982299805
40
0.0
41
0.0
42
0.0
10
78.7358016967773
20
76.9899978637695
40
0.0
41
0.0
42
0.0
10
78.9688034057617
20
77.4045028686523
40
0.0
41
0.0
42
0.0
10
78.9982986450195
20
77.4686965942383
40
0.0
41
0.0
42
0.0
10
79.005500793457
20
77.4862976074219
40
0.0
41
0.0
42
0.0
10
79.0245971679688
20
77.5682983398438
40
0.0
41
0.0
42
0.0
10
79.1400985717773
20
77.9000015258789
40
0.0
41
0.0
42
0.0
10
79.1524963378906
20
77.9814987182617
40
0.0
41
0.0
42
0.0
10
79.1523971557617
20
78.0178985595703
40
0.0
41
0.0
42
0.0
10
79.0705032348633
20
78.42919921875
40
0.0
41
0.0
42
0.0
10
79.0569000244141
20
78.4666976928711
40
0.0
41
0.0
42
0.0
10
79.0394973754883
20
78.5018997192383
40
0.0
41
0.0
42
0.0
10
79.0103988647461
20
78.5244979858398
40
0.0
41
0.0
42
0.0
10
78.970703125
20
78.534797668457
40
0.0
41
0.0
42
0.0
10
78.5183029174805
20
78.6064987182617
40
0.0
41
0.0
42
0.0
10
78.481201171875
20
78.6063995361328
40
0.0
41
0.0
42
0.0
10
78.3983001708984
20
78.5967025756836
40
0.0
41
0.0
42
0.0
10
77.9886016845703
20
78.5123977661133
40
0.0
41
0.0
42
0.0
10
77.9605026245117
20
78.5053024291992
40
0.0
41
0.0
42
0.0
10
77.5455017089844
20
78.3416976928711
40
0.0
41
0.0
42
0.0
10
77.4029998779297
20
78.3059005737305
40
0.0
41
0.0
42
0.0
10
77.0002975463867
20
78.0690994262695
40
0.0
41
0.0
42
0.0
10
76.9570007324219
20
78.0967025756836
40
0.0
41
0.0
42
0.0
10
76.928596496582
20
78.0966033935547
40
0.0
41
0.0
42
0.0
10
76.7727966308594
20
78.0094985961914
40
0.0
41
0.0
42
0.0
10
76.7508010864258
20
78.0015029907227
40
0.0
41
0.0
42
0.0
10
76.5010986328125
20
77.7888031005859
40
0.0
41
0.0
42
0.0
10
76.4091033935547
20
78.0131988525391
40
0.0
41
0.0
42
0.0
10
76.3766021728516
20
78.1332015991211
40
0.0
41
0.0
42
0.0
10
76.3398971557617
20
78.5160980224609
40
0.0
41
0.0
42
0.0
10
76.3165969848633
20
78.6004028320312
40
0.0
41
0.0
42
0.0
10
76.2462005615234
20
79.0143966674805
40
0.0
41
0.0
42
0.0
10
76.2137985229492
20
79.0982971191406
40
0.0
41
0.0
42
0.0
10
76.0975036621094
20
79.5120010375977
40
0.0
41
0.0
42
0.0
10
76.0556030273438
20
79.5898971557617
40
0.0
41
0.0
42
0.0
10
76.0009994506836
20
79.7446975708008
40
0.0
41
0.0
42
0.0
10
75.8237991333008
20
79.9981994628906
40
0.0
41
0.0
42
0.0
10
75.7451019287109
20
80.0518035888672
40
0.0
41
0.0
42
0.0
10
75.5101013183594
20
80.3354034423828
40
0.0
41
0.0
42
0.0
10
75.4843978881836
20
80.3354034423828
40
0.0
41
0.0
42
0.0
10
75.4431991577148
20
80.3169021606445
40
0.0
41
0.0
42
0.0
10
74.9929962158203
20
80.1350021362305
40
0.0
41
0.0
42
0.0
10
74.9170989990234
20
80.0081024169922
40
0.0
41
0.0
42
0.0
10
74.6541976928711
20
79.5832977294922
40
0.0
41
0.0
42
0.0
10
74.595703125
20
79.5086975097656
40
0.0
41
0.0
42
0.0
10
74.5059967041016
20
79.3256988525391
40
0.0
41
0.0
42
0.0
10
74.4512023925781
20
79.241096496582
40
0.0
41
0.0
42
0.0
10
74.3523025512695
20
79.0126037597656
40
0.0
41
0.0
42
0.0
10
74.2189025878906
20
78.5964965820312
40
0.0
41
0.0
42
0.0
10
74.1707992553711
20
78.5115966796875
40
0.0
41
0.0
42
0.0
10
74.0622024536133
20
78.1557998657227
40
0.0
41
0.0
42
0.0
10
74.0308990478516
20
78.0146026611328
40
0.0
41
0.0
42
0.0
10
74.0070037841797
20
77.9376983642578
40
0.0
41
0.0
42
0.0
10
73.99169921875
20
77.9372024536133
40
0.0
41
0.0
42
0.0
10
73.9648971557617
20
78.0068969726562
40
0.0
41
0.0
42
0.0
10
73.7490005493164
20
78.1741027832031
40
0.0
41
0.0
42
0.0
10
73.5063018798828
20
78.3668975830078
40
0.0
41
0.0
42
0.0
10
73.3544006347656
20
78.5037994384766
40
0.0
41
0.0
42
0.0
10
73.315803527832
20
78.5338973999023
40
0.0
41
0.0
42
0.0
10
73.0939025878906
20
78.6921997070312
40
0.0
41
0.0
42
0.0
10
73.0099029541016
20
78.7358016967773
40
0.0
41
0.0
42
0.0
10
72.5953979492188
20
78.9688034057617
40
0.0
41
0.0
42
0.0
10
72.5309982299805
20
78.9982986450195
40
0.0
41
0.0
42
0.0
10
72.5134963989258
20
79.005500793457
40
0.0
41
0.0
42
0.0
10
72.4316024780273
20
79.0245971679688
40
0.0
41
0.0
42
0.0
10
72.0998992919922
20
79.1400985717773
40
0.0
41
0.0
42
0.0
10
72.0184020996094
20
79.1524963378906
40
0.0
41
0.0
42
0.0
10
71.9820022583008
20
79.1524963378906
40
0.0
41
0.0
42
0.0
10
71.5707015991211
20
79.0705032348633
40
0.0
41
0.0
42
0.0
10
71.533203125
20
79.0569000244141
40
0.0
41
0.0
42
0.0
10
71.497802734375
20
79.0394973754883
40
0.0
41
0.0
42
0.0
10
71.4751968383789
20
79.010498046875
40
0.0
41
0.0
42
0.0
10
71.4648971557617
20
78.970703125
40
0.0
41
0.0
42
0.0
10
71.3935012817383
20
78.5183029174805
40
0.0
41
0.0
42
0.0
10
71.3934020996094
20
78.4821014404297
40
0.0
41
0.0
42
0.0
10
71.4819030761719
20
78.0518035888672
40
0.0
41
0.0
42
0.0
10
71.4885025024414
20
77.9835968017578
40
0.0
41
0.0
42
0.0
10
71.4944000244141
20
77.9605026245117
40
0.0
41
0.0
42
0.0
10
71.6580963134766
20
77.5454025268555
40
0.0
41
0.0
42
0.0
10
71.6725006103516
20
77.4879989624023
40
0.0
41
0.0
42
0.0
10
71.9163970947266
20
77.0730972290039
40
0.0
41
0.0
42
0.0
10
71.9445037841797
20
76.9665985107422
40
0.0
41
0.0
42
0.0
10
71.8836975097656
20
76.8647994995117
40
0.0
41
0.0
42
0.0
10
71.8837966918945
20
76.8408966064453
40
0.0
41
0.0
42
0.0
10
71.994499206543
20
76.7553024291992
40
0.0
41
0.0
42
0.0
10
72.2109985351562
20
76.5010986328125
40
0.0
41
0.0
42
0.0
10
71.986701965332
20
76.4091033935547
40
0.0
41
0.0
42
0.0
10
71.8666000366211
20
76.3766021728516
40
0.0
41
0.0
42
0.0
10
71.4838027954102
20
76.3398971557617
40
0.0
41
0.0
42
0.0
10
71.3994979858398
20
76.3165969848633
40
0.0
41
0.0
42
0.0
10
70.9854965209961
20
76.2462005615234
40
0.0
41
0.0
42
0.0
10
70.9016036987305
20
76.2137985229492
40
0.0
41
0.0
42
0.0
10
70.4878997802734
20
76.0975036621094
40
0.0
41
0.0
42
0.0
10
70.4098968505859
20
76.0556030273438
40
0.0
41
0.0
42
0.0
10
70.2550964355469
20
76.0009994506836
40
0.0
41
0.0
42
0.0
10
70.0015029907227
20
75.8237991333008
40
0.0
41
0.0
42
0.0
10
69.947998046875
20
75.7452011108398
40
0.0
41
0.0
42
0.0
10
69.6644973754883
20
75.5101013183594
40
0.0
41
0.0
42
0.0
10
69.6643981933594
20
75.484001159668
40
0.0
41
0.0
42
0.0
10
69.8466033935547
20
75.033203125
40
0.0
41
0.0
42
0.0
210
0.0
220
0.0
230
1.0
0
LWPOLYLINE
5
26
330
1C
100
AcDbEntity
67
0
8
0
62
256
6
ByLayer
370
-1
48
1.0
60
0
100
AcDbPolyline
90
231
70
1
38
0.0
39
0.0
10
69.9545974731445
20
75.7294998168945
40
0.0
41
0.0
42
0.0
10
69.9766006469727
20
75.7500991821289
40
0.0
41
0.0
42
0.0
10
70.0081024169922
20
75.7964019775391
40
0.0
41
0.0
42
0.0
10
70.2975997924805
20
75.9988021850586
40
0.0
41
0.0
42
0.0
10
70.4698028564453
20
76.0595016479492
40
0.0
41
0.0
42
0.0
10
70.5121002197266
20
76.0820999145508
40
0.0
41
0.0
42
0.0
10
70.9682998657227
20
76.2105026245117
40
0.0
41
0.0
42
0.0
10
71.0143966674805
20
76.2282028198242
40
0.0
41
0.0
42
0.0
10
71.4703979492188
20
76.3058013916016
40
0.0
41
0.0
42
0.0
10
71.5160980224609
20
76.3184967041016
40
0.0
41
0.0
42
0.0
10
71.9542007446289
20
76.3604965209961
40
0.0
41
0.0
42
0.0
10
72.0131988525391
20
76.3765029907227
40
0.0
41
0.0
42
0.0
10
72.2995986938477
20
76.4940032958984
40
0.0
41
0.0
42
0.0
10
72.2994995117188
20
76.5121994018555
40
0.0
41
0.0
42
0.0
10
72.0054016113281
20
76.8578033447266
40
0.0
41
0.0
42
0.0
10
71.9465026855469
20
76.9030990600586
40
0.0
41
0.0
42
0.0
10
71.9730987548828
20
76.9474029541016
40
0.0
41
0.0
42
0.0
10
71.9729995727539
20
76.9777984619141
40
0.0
41
0.0
42
0.0
10
71.9598999023438
20
77.013801574707
40
0.0
41
0.0
42
0.0
10
71.9489974975586
20
77.0569000244141
40
0.0
41
0.0
42
0.0
10
71.6815032958984
20
77.5119018554688
40
0.0
41
0.0
42
0.0
10
71.6732025146484
20
77.5447006225586
40
0.0
41
0.0
42
0.0
10
71.4937973022461
20
77.9997024536133
40
0.0
41
0.0
42
0.0
10
71.489501953125
20
78.0162963867188
40
0.0
41
0.0
42
0.0
10
71.4850997924805
20
78.0623016357422
40
0.0
41
0.0
42
0.0
10
71.4787979125977
20
78.1010971069336
40
0.0
41
0.0
42
0.0
10
71.3963012695312
20
78.5020980834961
40
0.0
41
0.0
42
0.0
10
71.4591979980469
20
78.8992004394531
40
0.0
41
0.0
42
0.0
10
71.4824981689453
20
78.989501953125
40
0.0
41
0.0
42
0.0
10
71.5146026611328
20
79.0298004150391
40
0.0
41
0.0
42
0.0
10
71.5755996704102
20
79.059700012207
40
0.0
41
0.0
42
0.0
10
72.002197265625
20
79.1446990966797
40
0.0
41
0.0
42
0.0
10
72.0299987792969
20
79.1406021118164
40
0.0
41
0.0
42
0.0
10
72.3954010009766
20
79.0131988525391
40
0.0
41
0.0
42
0.0
10
72.4869003295898
20
78.9906005859375
40
0.0
41
0.0
42
0.0
10
72.5345001220703
20
78.9686965942383
40
0.0
41
0.0
42
0.0
10
72.9898986816406
20
78.7128982543945
40
0.0
41
0.0
42
0.0
10
73.0358963012695
20
78.6889038085938
40
0.0
41
0.0
42
0.0
10
73.3040008544922
20
78.4962997436523
40
0.0
41
0.0
42
0.0
10
73.4934997558594
20
78.3255004882812
40
0.0
41
0.0
42
0.0
10
73.7941970825195
20
78.086799621582
40
0.0
41
0.0
42
0.0
10
73.915397644043
20
77.9928970336914
40
0.0
41
0.0
42
0.0
10
73.9944000244141
20
77.7850036621094
40
0.0
41
0.0
42
0.0
10
74.0045013427734
20
77.7850036621094
40
0.0
41
0.0
42
0.0
10
74.0670013427734
20
77.9853973388672
40
0.0
41
0.0
42
0.0
10
74.135498046875
20
78.2954025268555
40
0.0
41
0.0
42
0.0
10
74.1943969726562
20
78.4882965087891
40
0.0
41
0.0
42
0.0
10
74.2200012207031
20
78.5334014892578
40
0.0
41
0.0
42
0.0
10
74.3656005859375
20
78.9872970581055
40
0.0
41
0.0
42
0.0
10
74.4761962890625
20
79.2433013916016
40
0.0
41
0.0
42
0.0
10
74.5056991577148
20
79.2886962890625
40
0.0
41
0.0
42
0.0
10
74.6048965454102
20
79.4912033081055
40
0.0
41
0.0
42
0.0
10
74.6410980224609
20
79.5372009277344
40
0.0
41
0.0
42
0.0
10
74.6667022705078
20
79.576301574707
40
0.0
41
0.0
42
0.0
10
74.9233016967773
20
79.9908981323242
40
0.0
41
0.0
42
0.0
10
74.9919967651367
20
80.1061019897461
40
0.0
41
0.0
42
0.0
10
75.0070037841797
20
80.1249008178711
40
0.0
41
0.0
42
0.0
10
75.4266967773438
20
80.2945022583008
40
0.0
41
0.0
42
0.0
10
75.496696472168
20
80.3258972167969
40
0.0
41
0.0
42
0.0
10
75.7294998168945
20
80.0450973510742
40
0.0
41
0.0
42
0.0
10
75.7500991821289
20
80.0232009887695
40
0.0
41
0.0
42
0.0
10
75.7963027954102
20
79.9916000366211
40
0.0
41
0.0
42
0.0
10
75.9988021850586
20
79.7022018432617
40
0.0
41
0.0
42
0.0
10
76.0594024658203
20
79.529899597168
40
0.0
41
0.0
42
0.0
10
76.0820999145508
20
79.4878005981445
40
0.0
41
0.0
42
0.0
10
76.2105026245117
20
79.0316009521484
40
0.0
41
0.0
42
0.0
10
76.2282028198242
20
78.9854965209961
40
0.0
41
0.0
42
0.0
10
76.3058013916016
20
78.5295028686523
40
0.0
41
0.0
42
0.0
10
76.3184967041016
20
78.4838027954102
40
0.0
41
0.0
42
0.0
10
76.3604965209961
20
78.0456008911133
40
0.0
41
0.0
42
0.0
10
76.3764038085938
20
77.986701965332
40
0.0
41
0.0
42
0.0
10
76.4940032958984
20
77.7003021240234
40
0.0
41
0.0
42
0.0
10
76.5121994018555
20
77.7002029418945
40
0.0
41
0.0
42
0.0
10
76.8623962402344
20
77.9983978271484
40
0.0
41
0.0
42
0.0
10
76.8968963623047
20
78.0109024047852
40
0.0
41
0.0
42
0.0
10
76.9692001342773
20
78.0513000488281
40
0.0
41
0.0
42
0.0
10
76.9860000610352
20
78.0408020019531
40
0.0
41
0.0
42
0.0
10
77.0141983032227
20
78.0408020019531
40
0.0
41
0.0
42
0.0
10
77.4669036865234
20
78.3069000244141
40
0.0
41
0.0
42
0.0
10
77.5447006225586
20
78.3264999389648
40
0.0
41
0.0
42
0.0
10
78.0000991821289
20
78.506103515625
40
0.0
41
0.0
42
0.0
10
78.4554977416992
20
78.6005020141602
40
0.0
41
0.0
42
0.0
10
78.4957962036133
20
78.6044006347656
40
0.0
41
0.0
42
0.0
10
78.8992004394531
20
78.5404968261719
40
0.0
41
0.0
42
0.0
10
78.989501953125
20
78.5173034667969
40
0.0
41
0.0
42
0.0
10
79.0298004150391
20
78.4851989746094
40
0.0
41
0.0
42
0.0
10
79.059700012207
20
78.4243011474609
40
0.0
41
0.0
42
0.0
10
79.1446990966797
20
77.9977035522461
40
0.0
41
0.0
42
0.0
10
79.1406021118164
20
77.9699020385742
40
0.0
41
0.0
42
0.0
10
79.0131988525391
20
77.6044006347656
40
0.0
41
0.0
42
0.0
10
78.9906005859375
20
77.5130004882812
40
0.0
41
0.0
42
0.0
10
78.9688034057617
20
77.4654006958008
40
0.0
41
0.0
42
0.0
10
78.7128982543945
20
77.0100021362305
40
0.0
41
0.0
42
0.0
10
78.6890029907227
20
76.9638977050781
40
0.0
41
0.0
42
0.0
10
78.4962997436523
20
76.69580078125
40
0.0
41
0.0
42
0.0
10
78.3255996704102
20
76.5064010620117
40
0.0
41
0.0
42
0.0
10
78.086799621582
20
76.2055969238281
40
0.0
41
0.0
42
0.0
10
77.9929962158203
20
76.0843963623047
40
0.0
41
0.0
42
0.0
10
77.7850036621094
20
76.005500793457
40
0.0
41
0.0
42
0.0
10
77.7848968505859
20
75.9953002929688
40
0.0
41
0.0
42
0.0
10
77.9853973388672
20
75.9328002929688
40
0.0
41
0.0
42
0.0
10
78.2954025268555
20
75.8641967773438
40
0.0
41
0.0
42
0.0
10
78.4882965087891
20
75.8052978515625
40
0.0
41
0.0
42
0.0
10
78.5334014892578
20
75.7797012329102
40
0.0
41
0.0
42
0.0
10
78.9872970581055
20
75.6342010498047
40
0.0
41
0.0
42
0.0
10
79.2433013916016
20
75.5234985351562
40
0.0
41
0.0
42
0.0
10
79.2886962890625
20
75.4940032958984
40
0.0
41
0.0
42
0.0
10
79.4900970458984
20
75.3953018188477
40
0.0
41
0.0
42
0.0
10
79.9374008178711
20
75.1184997558594
40
0.0
41
0.0
42
0.0
10
79.9917984008789
20
75.0758972167969
40
0.0
41
0.0
42
0.0
10
80.1060028076172
20
75.0077972412109
40
0.0
41
0.0
42
0.0
10
80.1248016357422
20
74.9929962158203
40
0.0
41
0.0
42
0.0
10
80.2945022583008
20
74.5730972290039
40
0.0
41
0.0
42
0.0
10
80.3259963989258
20
74.5031967163086
40
0.0
41
0.0
42
0.0
10
80.0451965332031
20
74.2703018188477
40
0.0
41
0.0
42
0.0
10
80.0232009887695
20
74.2497024536133
40
0.0
41
0.0
42
0.0
10
79.99169921875
20
74.2033996582031
40
0.0
41
0.0
42
0.0
10
79.7023010253906
20
74.0009994506836
40
0.0
41
0.0
42
0.0
10
79.5299987792969
20
73.940299987793
40
0.0
41
0.0
42
0.0
10
79.4888000488281
20
73.918098449707
40
0.0
41
0.0
42
0.0
10
79.4415969848633
20
73.89990234375
40
0.0
41
0.0
42
0.0
10
78.9845962524414
20
73.7713012695312
40
0.0
41
0.0
42
0.0
10
78.5295028686523
20
73.6939010620117
40
0.0
41
0.0
42
0.0
10
78.4838027954102
20
73.6811981201172
40
0.0
41
0.0
42
0.0
10
78.0456008911133
20
73.6391983032227
40
0.0
41
0.0
42
0.0
10
77.986701965332
20
73.6232986450195
40
0.0
41
0.0
42
0.0
10
77.7003021240234
20
73.5058975219727
40
0.0
41
0.0
42
0.0
10
77.7002029418945
20
73.4876022338867
40
0.0
41
0.0
42
0.0
10
77.994499206543
20
73.1418991088867
40
0.0
41
0.0
42
0.0
10
78.0532989501953
20
73.0967025756836
40
0.0
41
0.0
42
0.0
10
78.0268020629883
20
73.0523986816406
40
0.0
41
0.0
42
0.0
10
78.0267028808594
20
73.0220031738281
40
0.0
41
0.0
42
0.0
10
78.0388031005859
20
72.988899230957
40
0.0
41
0.0
42
0.0
10
78.3069000244141
20
72.5329971313477
40
0.0
41
0.0
42
0.0
10
78.3264999389648
20
72.4551010131836
40
0.0
41
0.0
42
0.0
10
78.506103515625
20
71.9997024536133
40
0.0
41
0.0
42
0.0
10
78.6005020141602
20
71.5444030761719
40
0.0
41
0.0
42
0.0
10
78.6044006347656
20
71.5040969848633
40
0.0
41
0.0
42
0.0
10
78.5404968261719
20
71.100700378418
40
0.0
41
0.0
42
0.0
10
78.5174026489258
20
71.0103988647461
40
0.0
41
0.0
42
0.0
10
78.4852981567383
20
70.9700012207031
40
0.0
41
0.0
42
0.0
10
78.4244003295898
20
70.9400024414062
40
0.0
41
0.0
42
0.0
10
77.9977035522461
20
70.8550033569336
40
0.0
41
0.0
42
0.0
10
77.9699020385742
20
70.8591003417969
40
0.0
41
0.0
42
0.0
10
77.6044006347656
20
70.9865036010742
40
0.0
41
0.0
42
0.0
10
77.5130004882812
20
71.0091018676758
40
0.0
41
0.0
42
0.0
10
77.4654006958008
20
71.0308990478516
40
0.0
41
0.0
42
0.0
10
77.0099029541016
20
71.2867965698242
40
0.0
41
0.0
42
0.0
10
76.963996887207
20
71.3107986450195
40
0.0
41
0.0
42
0.0
10
76.7173004150391
20
71.486701965332
40
0.0
41
0.0
42
0.0
10
76.6953964233398
20
71.5037994384766
40
0.0
41
0.0
42
0.0
10
76.5063018798828
20
71.674201965332
40
0.0
41
0.0
42
0.0
10
76.2055969238281
20
71.9130020141602
40
0.0
41
0.0
42
0.0
10
76.0842971801758
20
72.0068969726562
40
0.0
41
0.0
42
0.0
10
76.005500793457
20
72.2148971557617
40
0.0
41
0.0
42
0.0
10
75.9953994750977
20
72.2148971557617
40
0.0
41
0.0
42
0.0
10
75.9328002929688
20
72.0145034790039
40
0.0
41
0.0
42
0.0
10
75.8641967773438
20
71.7043991088867
40
0.0
41
0.0
42
0.0
10
75.8052978515625
20
71.5115966796875
40
0.0
41
0.0
42
0.0
10
75.7797012329102
20
71.4664993286133
40
0.0
41
0.0
42
0.0
10
75.6342010498047
20
71.0126037597656
40
0.0
41
0.0
42
0.0
10
75.5234985351562
20
70.7565002441406
40
0.0
41
0.0
42
0.0
10
75.4940032958984
20
70.7110977172852
40
0.0
41
0.0
42
0.0
10
75.3953018188477
20
70.5098037719727
40
0.0
41
0.0
42
0.0
10
75.1185989379883
20
70.0625
40
0.0
41
0.0
42
0.0
10
75.0758972167969
20
70.0081024169922
40
0.0
41
0.0
42
0.0
10
75.0077972412109
20
69.8936996459961
40
0.0
41
0.0
42
0.0
10
74.9933013916016
20
69.8751983642578
40
0.0
41
0.0
42
0.0
10
74.9031982421875
20
69.8348999023438
40
0.0
41
0.0
42
0.0
10
74.5036010742188
20
69.6732025146484
40
0.0
41
0.0
42
0.0
10
74.2702026367188
20
69.9544982910156
40
0.0
41
0.0
42
0.0
10
74.2496032714844
20
69.9766006469727
40
0.0
41
0.0
42
0.0
10
74.2033996582031
20
70.0081024169922
40
0.0
41
0.0
42
0.0
10
74.0009994506836
20
70.2975006103516
40
0.0
41
0.0
42
0.0
10
73.9402008056641
20
70.4698028564453
40
0.0
41
0.0
42
0.0
10
73.9179992675781
20
70.511100769043
40
0.0
41
0.0
42
0.0
10
73.89990234375
20
70.5582962036133
40
0.0
41
0.0
42
0.0
10
73.7713012695312
20
71.0152969360352
40
0.0
41
0.0
42
0.0
10
73.6939010620117
20
71.4703979492188
40
0.0
41
0.0
42
0.0
10
73.6811981201172
20
71.5160980224609
40
0.0
41
0.0
42
0.0
10
73.6391983032227
20
71.9542007446289
40
0.0
41
0.0
42
0.0
10
73.6231994628906
20
72.0131988525391
40
0.0
41
0.0
42
0.0
10
73.5058975219727
20
72.2995986938477
40
0.0
41
0.0
42
0.0
10
73.4877014160156
20
72.2995986938477
40
0.0
41
0.0
42
0.0
10
73.1418991088867
20
72.0054016113281
40
0.0
41
0.0
42
0.0
10
73.0967025756836
20
71.946403503418
40
0.0
41
0.0
42
0.0
10
73.0523986816406
20
71.9730987548828
40
0.0
41
0.0
42
0.0
10
73.0220031738281
20
71.9729995727539
40
0.0
41
0.0
42
0.0
10
72.9860992431641
20
71.9598999023438
40
0.0
41
0.0
42
0.0
10
72.943000793457
20
71.9490966796875
40
0.0
41
0.0
42
0.0
10
72.4879989624023
20
71.6815032958984
40
0.0
41
0.0
42
0.0
10
72.4551010131836
20
71.6733016967773
40
0.0
41
0.0
42
0.0
10
72.0000991821289
20
71.4937973022461
40
0.0
41
0.0
42
0.0
10
71.9835968017578
20
71.489501953125
40
0.0
41
0.0
42
0.0
10
71.9375991821289
20
71.4851989746094
40
0.0
41
0.0
42
0.0
10
71.8988037109375
20
71.4788970947266
40
0.0
41
0.0
42
0.0
10
71.497802734375
20
71.3962020874023
40
0.0
41
0.0
42
0.0
10
71.100700378418
20
71.4591979980469
40
0.0
41
0.0
42
0.0
10
71.0103988647461
20
71.4824981689453
40
0.0
41
0.0
42
0.0
10
70.9699020385742
20
71.5145034790039
40
0.0
41
0.0
42
0.0
10
70.9400024414062
20
71.5755004882812
40
0.0
41
0.0
42
0.0
10
70.8550033569336
20
72.002197265625
40
0.0
41
0.0
42
0.0
10
70.8591003417969
20
72.0299987792969
40
0.0
41
0.0
42
0.0
10
70.9865036010742
20
72.3954010009766
40
0.0
41
0.0
42
0.0
10
71.0092010498047
20
72.4869003295898
40
0.0
41
0.0
42
0.0
10
71.0309982299805
20
72.5345001220703
40
0.0
41
0.0
42
0.0
10
71.2869033813477
20
72.9898986816406
40
0.0
41
0.0
42
0.0
10
71.3107986450195
20
73.036003112793
40
0.0
41
0.0
42
0.0
10
71.486701965332
20
73.2824020385742
40
0.0
41
0.0
42
0.0
10
71.5037994384766
20
73.3043975830078
40
0.0
41
0.0
42
0.0
10
71.674201965332
20
73.4934997558594
40
0.0
41
0.0
42
0.0
10
71.9130020141602
20
73.7941970825195
40
0.0
41
0.0
42
0.0
10
72.0070037841797
20
73.9154968261719
40
0.0
41
0.0
42
0.0
10
72.2148971557617
20
73.9944000244141
40
0.0
41
0.0
42
0.0
10
72.2147979736328
20
74.0045013427734
40
0.0
41
0.0
42
0.0
10
72.0145034790039
20
74.0669021606445
40
0.0
41
0.0
42
0.0
10
71.7043991088867
20
74.135498046875
40
0.0
41
0.0
42
0.0
10
71.5115966796875
20
74.1943969726562
40
0.0
41
0.0
42
0.0
10
71.4664993286133
20
74.2200012207031
40
0.0
41
0.0
42
0.0
10
71.0124969482422
20
74.3655014038086
40
0.0
41
0.0
42
0.0
10
70.7564010620117
20
74.4761962890625
40
0.0
41
0.0
42
0.0
10
70.7109985351562
20
74.5056991577148
40
0.0
41
0.0
42
0.0
10
70.5086975097656
20
74.6048965454102
40
0.0
41
0.0
42
0.0
10
70.4626007080078
20
74.640998840332
40
0.0
41
0.0
42
0.0
10
70.4235992431641
20
74.6667022705078
40
0.0
41
0.0
42
0.0
10
70.0090026855469
20
74.9232025146484
40
0.0
41
0.0
42
0.0
10
69.8936996459961
20
74.9919967651367
40
0.0
41
0.0
42
0.0
10
69.8751983642578
20
75.0066986083984
40
0.0
41
0.0
42
0.0
10
69.8348999023438
20
75.0967025756836
40
0.0
41
0.0
42
0.0
10
69.6733016967773
20
75.4962997436523
40
0.0
41
0.0
42
0.0
10
69.9545974731445
20
75.7294998168945
40
0.0
41
0.0
42
0.0
210
0.0
220
0.0
230
1.0
0
LWPOLYLINE
5
27
330
1C
100
AcDbEntity
67
0
8
0
62
256
6
ByLayer
370
-1
48
1.0
60
0
100
AcDbPolyline
90
78
70
1
38
0.0
39
0.0
10
72.2712020874023
20
65.0009994506836
40
0.0
41
0.0
42
0.0
10
72.3393020629883
20
65.0009994506836
40
0.0
41
0.0
42
0.0
10
72.3392028808594
20
65.0165023803711
40
0.0
41
0.0
42
0.0
10
72.2005996704102
20
65.427001953125
40
0.0
41
0.0
42
0.0
10
72.182502746582
20
65.513298034668
40
0.0
41
0.0
42
0.0
10
72.1921997070312
20
65.8569030761719
40
0.0
41
0.0
42
0.0
10
72.2142028808594
20
65.9901962280273
40
0.0
41
0.0
42
0.0
10
72.2412033081055
20
66.0162963867188
40
0.0
41
0.0
42
0.0
10
72.2751998901367
20
66.0395965576172
40
0.0
41
0.0
42
0.0
10
72.4940032958984
20
66.4140014648438
40
0.0
41
0.0
42
0.0
10
72.5028991699219
20
66.4250030517578
40
0.0
41
0.0
42
0.0
10
72.5457992553711
20
66.4936981201172
40
0.0
41
0.0
42
0.0
10
72.9400024414062
20
66.8431015014648
40
0.0
41
0.0
42
0.0
10
73.0111999511719
20
66.8778991699219
40
0.0
41
0.0
42
0.0
10
73.0916976928711
20
66.9126968383789
40
0.0
41
0.0
42
0.0
10
73.1956024169922
20
66.996696472168
40
0.0
41
0.0
42
0.0
10
73.5085983276367
20
67.222900390625
40
0.0
41
0.0
42
0.0
10
73.5970993041992
20
67.2455978393555
40
0.0
41
0.0
42
0.0
10
74.0139007568359
20
67.4766006469727
40
0.0
41
0.0
42
0.0
10
74.3898010253906
20
67.5009002685547
40
0.0
41
0.0
42
0.0
10
74.4647979736328
20
67.5075988769531
40
0.0
41
0.0
42
0.0
10
74.492301940918
20
67.5122985839844
40
0.0
41
0.0
42
0.0
10
74.5419006347656
20
67.4850006103516
40
0.0
41
0.0
42
0.0
10
74.9919967651367
20
67.2621994018555
40
0.0
41
0.0
42
0.0
10
75.3495025634766
20
66.9292984008789
40
0.0
41
0.0
42
0.0
10
75.493896484375
20
66.8236999511719
40
0.0
41
0.0
42
0.0
10
75.7998962402344
20
66.4951019287109
40
0.0
41
0.0
42
0.0
10
75.809700012207
20
66.4866027832031
40
0.0
41
0.0
42
0.0
10
75.9105987548828
20
66.3330993652344
40
0.0
41
0.0
42
0.0
10
75.9954986572266
20
66.2639999389648
40
0.0
41
0.0
42
0.0
10
76.1718978881836
20
66.003303527832
40
0.0
41
0.0
42
0.0
10
76.1876983642578
20
65.9922027587891
40
0.0
41
0.0
42
0.0
10
76.2649002075195
20
65.571403503418
40
0.0
41
0.0
42
0.0
10
76.2811965942383
20
65.5363006591797
40
0.0
41
0.0
42
0.0
10
76.3159027099609
20
65.4951019287109
40
0.0
41
0.0
42
0.0
10
76.1893997192383
20
65.061897277832
40
0.0
41
0.0
42
0.0
10
76.1893005371094
20
65.026496887207
40
0.0
41
0.0
42
0.0
10
76.1930999755859
20
65.0009994506836
40
0.0
41
0.0
42
0.0
10
76.2265014648438
20
65.0009994506836
40
0.0
41
0.0
42
0.0
10
76.2264022827148
20
65.0184020996094
40
0.0
41
0.0
42
0.0
10
76.2174987792969
20
65.0801010131836
40
0.0
41
0.0
42
0.0
10
76.3352966308594
20
65.4830017089844
40
0.0
41
0.0
42
0.0
10
76.3351974487305
20
65.5122985839844
40
0.0
41
0.0
42
0.0
10
76.2797012329102
20
65.5783996582031
40
0.0
41
0.0
42
0.0
10
76.2008972167969
20
66.0077972412109
40
0.0
41
0.0
42
0.0
10
76.1985015869141
20
66.0094985961914
40
0.0
41
0.0
42
0.0
10
76.0043029785156
20
66.296501159668
40
0.0
41
0.0
42
0.0
10
75.959098815918
20
66.3332977294922
40
0.0
41
0.0
42
0.0
10
75.8475036621094
20
66.5029983520508
40
0.0
41
0.0
42
0.0
10
75.5058975219727
20
66.8690032958984
40
0.0
41
0.0
42
0.0
10
75.4302978515625
20
66.9243011474609
40
0.0
41
0.0
42
0.0
10
75.0078964233398
20
67.3175964355469
40
0.0
41
0.0
42
0.0
10
74.6383972167969
20
67.5015029907227
40
0.0
41
0.0
42
0.0
10
74.5139999389648
20
67.5787963867188
40
0.0
41
0.0
42
0.0
10
74.4817962646484
20
67.5787963867188
40
0.0
41
0.0
42
0.0
10
74.2194976806641
20
67.533203125
40
0.0
41
0.0
42
0.0
10
73.9875030517578
20
67.5122985839844
40
0.0
41
0.0
42
0.0
10
73.9731979370117
20
67.502197265625
40
0.0
41
0.0
42
0.0
10
73.8911972045898
20
67.4559020996094
40
0.0
41
0.0
42
0.0
10
73.5327987670898
20
67.2572021484375
40
0.0
41
0.0
42
0.0
10
73.4878005981445
20
67.2456970214844
40
0.0
41
0.0
42
0.0
10
73.1522979736328
20
67.0031967163086
40
0.0
41
0.0
42
0.0
10
73.0346984863281
20
66.908203125
40
0.0
41
0.0
42
0.0
10
72.9888000488281
20
66.8883972167969
40
0.0
41
0.0
42
0.0
10
72.9457015991211
20
66.8672027587891
40
0.0
41
0.0
42
0.0
10
72.9078979492188
20
66.8406982421875
40
0.0
41
0.0
42
0.0
10
72.790901184082
20
66.7401962280273
40
0.0
41
0.0
42
0.0
10
72.5279998779297
20
66.5063018798828
40
0.0
41
0.0
42
0.0
10
72.4971008300781
20
66.4567031860352
40
0.0
41
0.0
42
0.0
10
72.4806976318359
20
66.436897277832
40
0.0
41
0.0
42
0.0
10
72.2782974243164
20
66.0903015136719
40
0.0
41
0.0
42
0.0
10
72.2072982788086
20
66.0412979125977
40
0.0
41
0.0
42
0.0
10
72.1741027832031
20
66.0095977783203
40
0.0
41
0.0
42
0.0
10
72.1367034912109
20
65.7816009521484
40
0.0
41
0.0
42
0.0
10
72.1294021606445
20
65.5196990966797
40
0.0
41
0.0
42
0.0
10
72.1293029785156
20
65.4821014404297
40
0.0
41
0.0
42
0.0
10
72.1632995605469
20
65.3203964233398
40
0.0
41
0.0
42
0.0
10
72.2712020874023
20
65.0009994506836
40
0.0
41
0.0
42
0.0
210
0.0
220
0.0
230
1.0
0
LWPOLYLINE
5
28
330
1C
100
AcDbEntity
67
0
8
0
62
256
6
ByLayer
370
-1
48
1.0
60
0
100
AcDbPolyline
90
10
70
1
38
0.0
39
0.0
10
72.9845962524414
20
75.9458999633789
40
0.0
41
0.0
42
0.0
10
73.3227005004883
20
75.8991012573242
40
0.0
41
0.0
42
0.0
10
73.3498001098633
20
75.8991012573242
40
0.0
41
0.0
42
0.0
10
73.4064025878906
20
75.986198425293
40
0.0
41
0.0
42
0.0
10
73.4063034057617
20
76.0022964477539
40
0.0
41
0.0
42
0.0
10
73.0180969238281
20
76.0693969726562
40
0.0
41
0.0
42
0.0
10
72.984001159668
20
76.0692977905273
40
0.0
41
0.0
42
0.0
10
72.8273010253906
20
76.0057983398438
40
0.0
41
0.0
42
0.0
10
72.8272018432617
20
75.9953002929688
40
0.0
41
0.0
42
0.0
10
72.9845962524414
20
75.9458999633789
40
0.0
41
0.0
42
0.0
210
0.0
220
0.0
230
1.0
0
LWPOLYLINE
5
29
330
1C
100
AcDbEntity
67
0
8
0
62
256
6
ByLayer
370
-1
48
1.0
60
0
100
AcDbPolyline
90
7
70
1
38
0.0
39
0.0
10
73.0055999755859
20
76.0380020141602
40
0.0
41
0.0
42
0.0
10
73.2306976318359
20
75.9991989135742
40
0.0
41
0.0
42
0.0
10
73.1939010620117
20
75.9423980712891
40
0.0
41
0.0
42
0.0
10
73.0152969360352
20
75.9672012329102
40
0.0
41
0.0
42
0.0
10
72.9320983886719
20
75.9936981201172
40
0.0
41
0.0
42
0.0
10
72.9315032958984
20
76.0081024169922
40
0.0
41
0.0
42
0.0
10
73.0055999755859
20
76.0380020141602
40
0.0
41
0.0
42
0.0
210
0.0
220
0.0
230
1.0
0
LWPOLYLINE
5
2A
330
1C
100
AcDbEntity
67
0
8
0
62
256
6
ByLayer
370
-1
48
1.0
60
0
100
AcDbPolyline
90
24
70
1
38
0.0
39
0.0
10
73.0329971313477
20
74.4035034179688
40
0.0
41
0.0
42
0.0
10
73.481201171875
20
74.3483963012695
40
0.0
41
0.0
42
0.0
10
73.5186996459961
20
74.3482971191406
40
0.0
41
0.0
42
0.0
10
73.9712982177734
20
74.4040985107422
40
0.0
41
0.0
42
0.0
10
73.9947967529297
20
74.4095993041992
40
0.0
41
0.0
42
0.0
10
74.216796875
20
74.0869979858398
40
0.0
41
0.0
42
0.0
10
74.2743988037109
20
73.9991989135742
40
0.0
41
0.0
42
0.0
10
74.018798828125
20
73.5374984741211
40
0.0
41
0.0
42
0.0
10
74.018798828125
20
73.5155029296875
40
0.0
41
0.0
42
0.0
10
74.0421981811523
20
73.5155029296875
40
0.0
41
0.0
42
0.0
10
74.5087966918945
20
73.5522994995117
40
0.0
41
0.0
42
0.0
10
74.5145034790039
20
73.5598983764648
40
0.0
41
0.0
42
0.0
10
74.7559967041016
20
73.9854965209961
40
0.0
41
0.0
42
0.0
10
74.7558975219727
20
74.0119018554688
40
0.0
41
0.0
42
0.0
10
74.5066986083984
20
74.2912979125977
40
0.0
41
0.0
42
0.0
10
74.4141998291016
20
74.3405990600586
40
0.0
41
0.0
42
0.0
10
74.1395034790039
20
74.5027008056641
40
0.0
41
0.0
42
0.0
10
74.0096969604492
20
74.6107025146484
40
0.0
41
0.0
42
0.0
10
73.9711990356445
20
74.6224975585938
40
0.0
41
0.0
42
0.0
10
73.5193023681641
20
74.6504974365234
40
0.0
41
0.0
42
0.0
10
73.4825973510742
20
74.6503982543945
40
0.0
41
0.0
42
0.0
10
72.9185028076172
20
74.5037002563477
40
0.0
41
0.0
42
0.0
10
72.9184036254883
20
74.4903030395508
40
0.0
41
0.0
42
0.0
10
73.0329971313477
20
74.4035034179688
40
0.0
41
0.0
42
0.0
210
0.0
220
0.0
230
1.0
0
LWPOLYLINE
5
2B
330
1C
100
AcDbEntity
67
0
8
0
62
256
6
ByLayer
370
-1
48
1.0
60
0
100
AcDbPolyline
90
22
70
1
38
0.0
39
0.0
10
73.5102005004883
20
74.6374969482422
40
0.0
41
0.0
42
0.0
10
73.9001007080078
20
74.6129989624023
40
0.0
41
0.0
42
0.0
10
73.9900970458984
20
74.5852966308594
40
0.0
41
0.0
42
0.0
10
74.0960998535156
20
74.4971008300781
40
0.0
41
0.0
42
0.0
10
74.3098983764648
20
74.3710021972656
40
0.0
41
0.0
42
0.0
10
74.4931030273438
20
74.2733993530273
40
0.0
41
0.0
42
0.0
10
74.7384033203125
20
73.9985961914062
40
0.0
41
0.0
42
0.0
10
74.5205993652344
20
73.6147994995117
40
0.0
41
0.0
42
0.0
10
74.491096496582
20
73.5753021240234
40
0.0
41
0.0
42
0.0
10
74.071403503418
20
73.5422973632812
40
0.0
41
0.0
42
0.0
10
74.0581970214844
20
73.5655975341797
40
0.0
41
0.0
42
0.0
10
74.2904968261719
20
73.9853973388672
40
0.0
41
0.0
42
0.0
10
74.290397644043
20
74.0137023925781
40
0.0
41
0.0
42
0.0
10
74.1757965087891
20
74.1884002685547
40
0.0
41
0.0
42
0.0
10
74.008903503418
20
74.4312973022461
40
0.0
41
0.0
42
0.0
10
73.9824981689453
20
74.4311981201172
40
0.0
41
0.0
42
0.0
10
73.8986968994141
20
74.411003112793
40
0.0
41
0.0
42
0.0
10
73.5
20
74.3618011474609
40
0.0
41
0.0
42
0.0
10
73.0968017578125
20
74.4113998413086
40
0.0
41
0.0
42
0.0
10
72.9843978881836
20
74.4953002929688
40
0.0
41
0.0
42
0.0
10
72.9856033325195
20
74.5015029907227
40
0.0
41
0.0
42
0.0
10
73.5102005004883
20
74.6374969482422
40
0.0
41
0.0
42
0.0
210
0.0
220
0.0
230
1.0
0
LWPOLYLINE
5
2C
330
1C
100
AcDbEntity
67
0
8
0
62
256
6
ByLayer
370
-1
48
1.0
60
0
100
AcDbPolyline
90
83
70
1
38
0.0
39
0.0
10
73.7733001708984
20
84.9990005493164
40
0.0
41
0.0
42
0.0
10
73.7733001708984
20
84.9814987182617
40
0.0
41
0.0
42
0.0
10
73.7822036743164
20
84.9197006225586
40
0.0
41
0.0
42
0.0
10
73.6645965576172
20
84.5168991088867
40
0.0
41
0.0
42
0.0
10
73.6644973754883
20
84.4819030761719
40
0.0
41
0.0
42
0.0
10
73.7396011352539
20
84.0720977783203
40
0.0
41
0.0
42
0.0
10
73.7592010498047
20
84.0369033813477
40
0.0
41
0.0
42
0.0
10
73.7940979003906
20
83.9953002929688
40
0.0
41
0.0
42
0.0
10
73.8013000488281
20
83.9900970458984
40
0.0
41
0.0
42
0.0
10
73.9954986572266
20
83.7032012939453
40
0.0
41
0.0
42
0.0
10
74.0407028198242
20
83.6663970947266
40
0.0
41
0.0
42
0.0
10
74.1521987915039
20
83.496696472168
40
0.0
41
0.0
42
0.0
10
74.4985961914062
20
83.1259994506836
40
0.0
41
0.0
42
0.0
10
74.538200378418
20
83.0982971191406
40
0.0
41
0.0
42
0.0
10
74.6289978027344
20
83.0130996704102
40
0.0
41
0.0
42
0.0
10
74.6538009643555
20
82.9962997436523
40
0.0
41
0.0
42
0.0
10
74.9928970336914
20
82.681396484375
40
0.0
41
0.0
42
0.0
10
75.035400390625
20
82.6537017822266
40
0.0
41
0.0
42
0.0
10
75.2660980224609
20
82.5378036499023
40
0.0
41
0.0
42
0.0
10
75.3607025146484
20
82.4985961914062
40
0.0
41
0.0
42
0.0
10
75.4859008789062
20
82.4210968017578
40
0.0
41
0.0
42
0.0
10
75.5182037353516
20
82.4209976196289
40
0.0
41
0.0
42
0.0
10
75.7802963256836
20
82.4664993286133
40
0.0
41
0.0
42
0.0
10
76.0122985839844
20
82.4873962402344
40
0.0
41
0.0
42
0.0
10
76.026496887207
20
82.4975967407227
40
0.0
41
0.0
42
0.0
10
76.4671020507812
20
82.7425003051758
40
0.0
41
0.0
42
0.0
10
76.5120010375977
20
82.7539978027344
40
0.0
41
0.0
42
0.0
10
76.8475036621094
20
82.9965972900391
40
0.0
41
0.0
42
0.0
10
76.9651031494141
20
83.0915985107422
40
0.0
41
0.0
42
0.0
10
77.0111999511719
20
83.1113967895508
40
0.0
41
0.0
42
0.0
10
77.05419921875
20
83.1324996948242
40
0.0
41
0.0
42
0.0
10
77.0920028686523
20
83.1591033935547
40
0.0
41
0.0
42
0.0
10
77.2089004516602
20
83.2595977783203
40
0.0
41
0.0
42
0.0
10
77.4718017578125
20
83.4935989379883
40
0.0
41
0.0
42
0.0
10
77.5019989013672
20
83.5416030883789
40
0.0
41
0.0
42
0.0
10
77.6456985473633
20
83.7879028320312
40
0.0
41
0.0
42
0.0
10
77.7213973999023
20
83.9092025756836
40
0.0
41
0.0
42
0.0
10
77.825798034668
20
83.9914016723633
40
0.0
41
0.0
42
0.0
10
77.8629989624023
20
84.2182006835938
40
0.0
41
0.0
42
0.0
10
77.8703002929688
20
84.5179977416992
40
0.0
41
0.0
42
0.0
10
77.8364028930664
20
84.6793975830078
40
0.0
41
0.0
42
0.0
10
77.7285995483398
20
84.9990005493164
40
0.0
41
0.0
42
0.0
10
77.6605987548828
20
84.9990005493164
40
0.0
41
0.0
42
0.0
10
77.6604995727539
20
84.9833984375
40
0.0
41
0.0
42
0.0
10
77.799201965332
20
84.5727996826172
40
0.0
41
0.0
42
0.0
10
77.8171997070312
20
84.4866027832031
40
0.0
41
0.0
42
0.0
10
77.807502746582
20
84.1428985595703
40
0.0
41
0.0
42
0.0
10
77.7854995727539
20
84.0084991455078
40
0.0
41
0.0
42
0.0
10
77.7247009277344
20
83.9607009887695
40
0.0
41
0.0
42
0.0
10
77.6880035400391
20
83.9017028808594
40
0.0
41
0.0
42
0.0
10
77.4979019165039
20
83.5762023925781
40
0.0
41
0.0
42
0.0
10
77.4540023803711
20
83.5062026977539
40
0.0
41
0.0
42
0.0
10
77.0599975585938
20
83.1567001342773
40
0.0
41
0.0
42
0.0
10
76.9887008666992
20
83.1219024658203
40
0.0
41
0.0
42
0.0
10
76.9080963134766
20
83.0870971679688
40
0.0
41
0.0
42
0.0
10
76.80419921875
20
83.0031967163086
40
0.0
41
0.0
42
0.0
10
76.4913024902344
20
82.7769012451172
40
0.0
41
0.0
42
0.0
10
76.4028015136719
20
82.7542037963867
40
0.0
41
0.0
42
0.0
10
75.9860000610352
20
82.5233001708984
40
0.0
41
0.0
42
0.0
10
75.6100006103516
20
82.4989013671875
40
0.0
41
0.0
42
0.0
10
75.5350036621094
20
82.4922027587891
40
0.0
41
0.0
42
0.0
10
75.5070037841797
20
82.4873962402344
40
0.0
41
0.0
42
0.0
10
75.4844970703125
20
82.5010986328125
40
0.0
41
0.0
42
0.0
10
75.3080978393555
20
82.5742034912109
40
0.0
41
0.0
42
0.0
10
75.095100402832
20
82.6811981201172
40
0.0
41
0.0
42
0.0
10
75.0731964111328
20
82.6933975219727
40
0.0
41
0.0
42
0.0
10
75.0067977905273
20
82.7386016845703
40
0.0
41
0.0
42
0.0
10
74.7218017578125
20
83.0034027099609
40
0.0
41
0.0
42
0.0
10
74.6747970581055
20
83.0352020263672
40
0.0
41
0.0
42
0.0
10
74.5915985107422
20
83.1131973266602
40
0.0
41
0.0
42
0.0
10
74.5154037475586
20
83.1667022705078
40
0.0
41
0.0
42
0.0
10
74.1998977661133
20
83.5046997070312
40
0.0
41
0.0
42
0.0
10
74.1900024414062
20
83.5130004882812
40
0.0
41
0.0
42
0.0
10
74.0891036987305
20
83.6666030883789
40
0.0
41
0.0
42
0.0
10
74.0043029785156
20
83.7358016967773
40
0.0
41
0.0
42
0.0
10
73.8286972045898
20
83.9952011108398
40
0.0
41
0.0
42
0.0
10
73.8164978027344
20
84.0046005249023
40
0.0
41
0.0
42
0.0
10
73.7591018676758
20
84.072998046875
40
0.0
41
0.0
42
0.0
10
73.681396484375
20
84.4964981079102
40
0.0
41
0.0
42
0.0
10
73.8097991943359
20
84.9354019165039
40
0.0
41
0.0
42
0.0
10
73.8104019165039
20
84.9736022949219
40
0.0
41
0.0
42
0.0
10
73.8067016601562
20
84.9990005493164
40
0.0
41
0.0
42
0.0
10
73.7733001708984
20
84.9990005493164
40
0.0
41
0.0
42
0.0
210
0.0
220
0.0
230
1.0
0
LWPOLYLINE
5
2D
330
1C
100
AcDbEntity
67
0
8
0
62
256
6
ByLayer
370
-1
48
1.0
60
0
100
AcDbPolyline
90
24
70
1
38
0.0
39
0.0
10
74.0870971679688
20
75.7828979492188
40
0.0
41
0.0
42
0.0
10
73.9991989135742
20
75.7253036499023
40
0.0
41
0.0
42
0.0
10
73.5374984741211
20
75.9810028076172
40
0.0
41
0.0
42
0.0
10
73.5155029296875
20
75.9810028076172
40
0.0
41
0.0
42
0.0
10
73.5155029296875
20
75.9576034545898
40
0.0
41
0.0
42
0.0
10
73.5522003173828
20
75.4909973144531
40
0.0
41
0.0
42
0.0
10
73.5598983764648
20
75.4851989746094
40
0.0
41
0.0
42
0.0
10
73.9854965209961
20
75.243896484375
40
0.0
41
0.0
42
0.0
10
74.0120010375977
20
75.2437973022461
40
0.0
41
0.0
42
0.0
10
74.2913970947266
20
75.4931030273438
40
0.0
41
0.0
42
0.0
10
74.3406982421875
20
75.5856018066406
40
0.0
41
0.0
42
0.0
10
74.5027008056641
20
75.8602981567383
40
0.0
41
0.0
42
0.0
10
74.6107025146484
20
75.9900970458984
40
0.0
41
0.0
42
0.0
10
74.6224975585938
20
76.0287017822266
40
0.0
41
0.0
42
0.0
10
74.6504974365234
20
76.480598449707
40
0.0
41
0.0
42
0.0
10
74.6503982543945
20
76.5173034667969
40
0.0
41
0.0
42
0.0
10
74.5037002563477
20
77.0813980102539
40
0.0
41
0.0
42
0.0
10
74.4904022216797
20
77.0813980102539
40
0.0
41
0.0
42
0.0
10
74.4035034179688
20
76.966796875
40
0.0
41
0.0
42
0.0
10
74.3483963012695
20
76.5186996459961
40
0.0
41
0.0
42
0.0
10
74.3482971191406
20
76.481201171875
40
0.0
41
0.0
42
0.0
10
74.4041976928711
20
76.0279006958008
40
0.0
41
0.0
42
0.0
10
74.409797668457
20
76.0052032470703
40
0.0
41
0.0
42
0.0
10
74.0870971679688
20
75.7828979492188
40
0.0
41
0.0
42
0.0
210
0.0
220
0.0
230
1.0
0
LWPOLYLINE
5
2E
330
1C
100
AcDbEntity
67
0
8
0
62
256
6
ByLayer
370
-1
48
1.0
60
0
100
AcDbPolyline
90
22
70
1
38
0.0
39
0.0
10
73.5423965454102
20
75.9283981323242
40
0.0
41
0.0
42
0.0
10
73.5655975341797
20
75.9414978027344
40
0.0
41
0.0
42
0.0
10
73.9853973388672
20
75.7093963623047
40
0.0
41
0.0
42
0.0
10
74.0137023925781
20
75.7092971801758
40
0.0
41
0.0
42
0.0
10
74.1884994506836
20
75.8238983154297
40
0.0
41
0.0
42
0.0
10
74.4312973022461
20
75.9909973144531
40
0.0
41
0.0
42
0.0
10
74.4310989379883
20
76.0174026489258
40
0.0
41
0.0
42
0.0
10
74.411003112793
20
76.1011962890625
40
0.0
41
0.0
42
0.0
10
74.3618011474609
20
76.4999008178711
40
0.0
41
0.0
42
0.0
10
74.4114990234375
20
76.9029998779297
40
0.0
41
0.0
42
0.0
10
74.4953994750977
20
77.0155029296875
40
0.0
41
0.0
42
0.0
10
74.5015029907227
20
77.0142974853516
40
0.0
41
0.0
42
0.0
10
74.6374969482422
20
76.4897003173828
40
0.0
41
0.0
42
0.0
10
74.6134033203125
20
76.1011962890625
40
0.0
41
0.0
42
0.0
10
74.5854034423828
20
76.0098037719727
40
0.0
41
0.0
42
0.0
10
74.4971008300781
20
75.9038009643555
40
0.0
41
0.0
42
0.0
10
74.3711013793945
20
75.6899032592773
40
0.0
41
0.0
42
0.0
10
74.2734985351562
20
75.5067977905273
40
0.0
41
0.0
42
0.0
10
73.9985961914062
20
75.2612991333008
40
0.0
41
0.0
42
0.0
10
73.6147994995117
20
75.4792022705078
40
0.0
41
0.0
42
0.0
10
73.5753021240234
20
75.5087966918945
40
0.0
41
0.0
42
0.0
10
73.5423965454102
20
75.9283981323242
40
0.0
41
0.0
42
0.0
210
0.0
220
0.0
230
1.0
0
LWPOLYLINE
5
2F
330
1C
100
AcDbEntity
67
0
8
0
62
256
6
ByLayer
370
-1
48
1.0
60
0
100
AcDbPolyline
90
10
70
1
38
0.0
39
0.0
10
74.0045013427734
20
72.8273010253906
40
0.0
41
0.0
42
0.0
10
74.0538024902344
20
72.9845962524414
40
0.0
41
0.0
42
0.0
10
74.1007995605469
20
73.3227005004883
40
0.0
41
0.0
42
0.0
10
74.1006011962891
20
73.3498001098633
40
0.0
41
0.0
42
0.0
10
74.0137023925781
20
73.4064025878906
40
0.0
41
0.0
42
0.0
10
73.9975967407227
20
73.4064025878906
40
0.0
41
0.0
42
0.0
10
73.9304962158203
20
73.0180969238281
40
0.0
41
0.0
42
0.0
10
73.9303970336914
20
72.984001159668
40
0.0
41
0.0
42
0.0
10
73.9941024780273
20
72.8273010253906
40
0.0
41
0.0
42
0.0
10
74.0045013427734
20
72.8273010253906
40
0.0
41
0.0
42
0.0
210
0.0
220
0.0
230
1.0
0
LWPOLYLINE
5
30
330
1C
100
AcDbEntity
67
0
8
0
62
256
6
ByLayer
370
-1
48
1.0
60
0
100
AcDbPolyline
90
7
70
1
38
0.0
39
0.0
10
74.0008010864258
20
73.230598449707
40
0.0
41
0.0
42
0.0
10
74.0572967529297
20
73.1939010620117
40
0.0
41
0.0
42
0.0
10
74.0325012207031
20
73.0152969360352
40
0.0
41
0.0
42
0.0
10
74.0065002441406
20
72.9320983886719
40
0.0
41
0.0
42
0.0
10
73.9922027587891
20
72.9315032958984
40
0.0
41
0.0
42
0.0
10
73.9617004394531
20
73.0055999755859
40
0.0
41
0.0
42
0.0
10
74.0008010864258
20
73.230598449707
40
0.0
41
0.0
42
0.0
210
0.0
220
0.0
230
1.0
0
LWPOLYLINE
5
31
330
1C
100
AcDbEntity
67
0
8
0
62
256
6
ByLayer
370
-1
48
1.0
60
0
100
AcDbPolyline
90
9
70
1
38
0.0
39
0.0
10
74.6423034667969
20
74.9886016845703
40
0.0
41
0.0
42
0.0
10
74.9886016845703
20
74.6424026489258
40
0.0
41
0.0
42
0.0
10
75.0111999511719
20
74.6424026489258
40
0.0
41
0.0
42
0.0
10
75.3574981689453
20
74.9886016845703
40
0.0
41
0.0
42
0.0
10
75.3573989868164
20
75.0111999511719
40
0.0
41
0.0
42
0.0
10
75.0112991333008
20
75.3574981689453
40
0.0
41
0.0
42
0.0
10
74.9886016845703
20
75.3573989868164
40
0.0
41
0.0
42
0.0
10
74.6424026489258
20
75.0111999511719
40
0.0
41
0.0
42
0.0
10
74.6423034667969
20
74.9886016845703
40
0.0
41
0.0
42
0.0
210
0.0
220
0.0
230
1.0
0
LWPOLYLINE
5
32
330
1C
100
AcDbEntity
67
0
8
0
62
256
6
ByLayer
370
-1
48
1.0
60
0
100
AcDbPolyline
90
5
70
1
38
0.0
39
0.0
10
75.0
20
74.6580963134766
40
0.0
41
0.0
42
0.0
10
74.658203125
20
75.0
40
0.0
41
0.0
42
0.0
10
75.0
20
75.3414001464844
40
0.0
41
0.0
42
0.0
10
75.3414993286133
20
75.0
40
0.0
41
0.0
42
0.0
10
75.0
20
74.6580963134766
40
0.0
41
0.0
42
0.0
210
0.0
220
0.0
230
1.0
0
LWPOLYLINE
5
33
330
1C
100
AcDbEntity
67
0
8
0
62
256
6
ByLayer
370
-1
48
1.0
60
0
100
AcDbPolyline
90
24
70
1
38
0.0
39
0.0
10
75.4931030273438
20
75.7083969116211
40
0.0
41
0.0
42
0.0
10
75.5856018066406
20
75.6591033935547
40
0.0
41
0.0
42
0.0
10
75.8601989746094
20
75.4971008300781
40
0.0
41
0.0
42
0.0
10
75.9900970458984
20
75.3889999389648
40
0.0
41
0.0
42
0.0
10
76.0287017822266
20
75.377197265625
40
0.0
41
0.0
42
0.0
10
76.480598449707
20
75.3494033813477
40
0.0
41
0.0
42
0.0
10
76.5173034667969
20
75.3492965698242
40
0.0
41
0.0
42
0.0
10
77.0813980102539
20
75.4962005615234
40
0.0
41
0.0
42
0.0
10
77.081298828125
20
75.5094985961914
40
0.0
41
0.0
42
0.0
10
76.966796875
20
75.5961990356445
40
0.0
41
0.0
42
0.0
10
76.5186996459961
20
75.651496887207
40
0.0
41
0.0
42
0.0
10
76.481201171875
20
75.6513977050781
40
0.0
41
0.0
42
0.0
10
76.0279006958008
20
75.5954971313477
40
0.0
41
0.0
42
0.0
10
76.0050964355469
20
75.5899963378906
40
0.0
41
0.0
42
0.0
10
75.7828979492188
20
75.9126968383789
40
0.0
41
0.0
42
0.0
10
75.7254028320312
20
76.0007019042969
40
0.0
41
0.0
42
0.0
10
75.9810028076172
20
76.4623031616211
40
0.0
41
0.0
42
0.0
10
75.9810028076172
20
76.4841995239258
40
0.0
41
0.0
42
0.0
10
75.9577026367188
20
76.4841995239258
40
0.0
41
0.0
42
0.0
10
75.4909973144531
20
76.4476013183594
40
0.0
41
0.0
42
0.0
10
75.4851989746094
20
76.4399032592773
40
0.0
41
0.0
42
0.0
10
75.243896484375
20
76.0143966674805
40
0.0
41
0.0
42
0.0
10
75.2436981201172
20
75.9878997802734
40
0.0
41
0.0
42
0.0
10
75.4931030273438
20
75.7083969116211
40
0.0
41
0.0
42
0.0
210
0.0
220
0.0
230
1.0
0
LWPOLYLINE
5
34
330
1C
100
AcDbEntity
67
0
8
0
62
256
6
ByLayer
370
-1
48
1.0
60
0
100
AcDbPolyline
90
22
70
1
38
0.0
39
0.0
10
75.2612991333008
20
76.0012969970703
40
0.0
41
0.0
42
0.0
10
75.4792022705078
20
76.3850021362305
40
0.0
41
0.0
42
0.0
10
75.508903503418
20
76.4244003295898
40
0.0
41
0.0
42
0.0
10
75.9283981323242
20
76.4573974609375
40
0.0
41
0.0
42
0.0
10
75.9415969848633
20
76.434196472168
40
0.0
41
0.0
42
0.0
10
75.7093963623047
20
76.0145034790039
40
0.0
41
0.0
42
0.0
10
75.7092971801758
20
75.986198425293
40
0.0
41
0.0
42
0.0
10
75.8237991333008
20
75.8113021850586
40
0.0
41
0.0
42
0.0
10
75.9909973144531
20
75.5687026977539
40
0.0
41
0.0
42
0.0
10
76.0175018310547
20
75.5687026977539
40
0.0
41
0.0
42
0.0
10
76.1011962890625
20
75.5886993408203
40
0.0
41
0.0
42
0.0
10
76.4999008178711
20
75.6379013061523
40
0.0
41
0.0
42
0.0
10
76.9029998779297
20
75.5883026123047
40
0.0
41
0.0
42
0.0
10
77.0155029296875
20
75.5045013427734
40
0.0
41
0.0
42
0.0
10
77.0142974853516
20
75.4983978271484
40
0.0
41
0.0
42
0.0
10
76.4897003173828
20
75.3621978759766
40
0.0
41
0.0
42
0.0
10
76.0996017456055
20
75.3867034912109
40
0.0
41
0.0
42
0.0
10
76.0096969604492
20
75.4142990112305
40
0.0
41
0.0
42
0.0
10
75.9037017822266
20
75.5027008056641
40
0.0
41
0.0
42
0.0
10
75.6897964477539
20
75.6287002563477
40
0.0
41
0.0
42
0.0
10
75.5067977905273
20
75.7261962890625
40
0.0
41
0.0
42
0.0
10
75.2612991333008
20
76.0012969970703
40
0.0
41
0.0
42
0.0
210
0.0
220
0.0
230
1.0
0
LWPOLYLINE
5
35
330
1C
100
AcDbEntity
67
0
8
0
62
256
6
ByLayer
370
-1
48
1.0
60
0
100
AcDbPolyline
90
25
70
1
38
0.0
39
0.0
10
75.4662017822266
20
73.0302963256836
40
0.0
41
0.0
42
0.0
10
75.4961013793945
20
72.9185028076172
40
0.0
41
0.0
42
0.0
10
75.5094985961914
20
72.9184036254883
40
0.0
41
0.0
42
0.0
10
75.5962982177734
20
73.0330963134766
40
0.0
41
0.0
42
0.0
10
75.651496887207
20
73.481201171875
40
0.0
41
0.0
42
0.0
10
75.6513977050781
20
73.5186996459961
40
0.0
41
0.0
42
0.0
10
75.5955963134766
20
73.9712982177734
40
0.0
41
0.0
42
0.0
10
75.590202331543
20
73.9947967529297
40
0.0
41
0.0
42
0.0
10
75.9128036499023
20
74.216796875
40
0.0
41
0.0
42
0.0
10
76.0008010864258
20
74.274299621582
40
0.0
41
0.0
42
0.0
10
76.4623031616211
20
74.018798828125
40
0.0
41
0.0
42
0.0
10
76.4841995239258
20
74.018798828125
40
0.0
41
0.0
42
0.0
10
76.4841995239258
20
74.0420989990234
40
0.0
41
0.0
42
0.0
10
76.4475021362305
20
74.5087966918945
40
0.0
41
0.0
42
0.0
10
76.4399032592773
20
74.5145034790039
40
0.0
41
0.0
42
0.0
10
76.0143966674805
20
74.7559967041016
40
0.0
41
0.0
42
0.0
10
75.9878997802734
20
74.7559967041016
40
0.0
41
0.0
42
0.0
10
75.7083969116211
20
74.5067977905273
40
0.0
41
0.0
42
0.0
10
75.6591033935547
20
74.4141998291016
40
0.0
41
0.0
42
0.0
10
75.497200012207
20
74.1395034790039
40
0.0
41
0.0
42
0.0
10
75.3889999389648
20
74.0098037719727
40
0.0
41
0.0
42
0.0
10
75.377197265625
20
73.9711990356445
40
0.0
41
0.0
42
0.0
10
75.3494033813477
20
73.5193023681641
40
0.0
41
0.0
42
0.0
10
75.3492965698242
20
73.4825973510742
40
0.0
41
0.0
42
0.0
10
75.4662017822266
20
73.0302963256836
40
0.0
41
0.0
42
0.0
210
0.0
220
0.0
230
1.0
0
LWPOLYLINE
5
36
330
1C
100
AcDbEntity
67
0
8
0
62
256
6
ByLayer
370
-1
48
1.0
60
0
100
AcDbPolyline
90
22
70
1
38
0.0
39
0.0
10
75.4143981933594
20
73.9901962280273
40
0.0
41
0.0
42
0.0
10
75.5027008056641
20
74.0961990356445
40
0.0
41
0.0
42
0.0
10
75.6287002563477
20
74.3098983764648
40
0.0
41
0.0
42
0.0
10
75.7263031005859
20
74.4931030273438
40
0.0
41
0.0
42
0.0
10
76.0012969970703
20
74.7382965087891
40
0.0
41
0.0
42
0.0
10
76.3849029541016
20
74.5205001831055
40
0.0
41
0.0
42
0.0
10
76.4244003295898
20
74.491096496582
40
0.0
41
0.0
42
0.0
10
76.4574966430664
20
74.071403503418
40
0.0
41
0.0
42
0.0
10
76.434196472168
20
74.0580978393555
40
0.0
41
0.0
42
0.0
10
76.0145034790039
20
74.2904968261719
40
0.0
41
0.0
42
0.0
10
75.986198425293
20
74.290397644043
40
0.0
41
0.0
42
0.0
10
75.8114013671875
20
74.1757965087891
40
0.0
41
0.0
42
0.0
10
75.5687026977539
20
74.008903503418
40
0.0
41
0.0
42
0.0
10
75.568603515625
20
73.9823989868164
40
0.0
41
0.0
42
0.0
10
75.5886993408203
20
73.8986968994141
40
0.0
41
0.0
42
0.0
10
75.6379013061523
20
73.5
40
0.0
41
0.0
42
0.0
10
75.5883026123047
20
73.0969009399414
40
0.0
41
0.0
42
0.0
10
75.5046005249023
20
72.9843978881836
40
0.0
41
0.0
42
0.0
10
75.4983978271484
20
72.9856033325195
40
0.0
41
0.0
42
0.0
10
75.3621978759766
20
73.5102005004883
40
0.0
41
0.0
42
0.0
10
75.3862991333008
20
73.8986968994141
40
0.0
41
0.0
42
0.0
10
75.4143981933594
20
73.9901962280273
40
0.0
41
0.0
42
0.0
210
0.0
220
0.0
230
1.0
0
LWPOLYLINE
5
37
330
1C
100
AcDbEntity
67
0
8
0
62
256
6
ByLayer
370
-1
48
1.0
60
0
100
AcDbPolyline
90
10
70
1
38
0.0
39
0.0
10
75.986198425293
20
76.5934982299805
40
0.0
41
0.0
42
0.0
10
76.0022964477539
20
76.5933990478516
40
0.0
41
0.0
42
0.0
10
76.0693969726562
20
76.9817962646484
40
0.0
41
0.0
42
0.0
10
76.0692977905273
20
77.0158004760742
40
0.0
41
0.0
42
0.0
10
76.0057983398438
20
77.1725997924805
40
0.0
41
0.0
42
0.0
10
75.9953994750977
20
77.1725997924805
40
0.0
41
0.0
42
0.0
10
75.9458999633789
20
77.0152969360352
40
0.0
41
0.0
42
0.0
10
75.8991012573242
20
76.6771011352539
40
0.0
41
0.0
42
0.0
10
75.8990020751953
20
76.64990234375
40
0.0
41
0.0
42
0.0
10
75.986198425293
20
76.5934982299805
40
0.0
41
0.0
42
0.0
210
0.0
220
0.0
230
1.0
0
LWPOLYLINE
5
38
330
1C
100
AcDbEntity
67
0
8
0
62
256
6
ByLayer
370
-1
48
1.0
60
0
100
AcDbPolyline
90
7
70
1
38
0.0
39
0.0
10
75.9672012329102
20
76.9845962524414
40
0.0
41
0.0
42
0.0
10
75.9936981201172
20
77.0678024291992
40
0.0
41
0.0
42
0.0
10
76.0078964233398
20
77.0683975219727
40
0.0
41
0.0
42
0.0
10
76.0380020141602
20
76.9943008422852
40
0.0
41
0.0
42
0.0
10
75.9992980957031
20
76.7688980102539
40
0.0
41
0.0
42
0.0
10
75.942497253418
20
76.8059005737305
40
0.0
41
0.0
42
0.0
10
75.9672012329102
20
76.9845962524414
40
0.0
41
0.0
42
0.0
210
0.0
220
0.0
230
1.0
0
LWPOLYLINE
5
39
330
1C
100
AcDbEntity
67
0
8
0
62
256
6
ByLayer
370
-1
48
1.0
60
0
100
AcDbPolyline
90
10
70
1
38
0.0
39
0.0
10
77.0158996582031
20
73.9303970336914
40
0.0
41
0.0
42
0.0
10
77.1725997924805
20
73.9941024780273
40
0.0
41
0.0
42
0.0
10
77.1725006103516
20
74.0045013427734
40
0.0
41
0.0
42
0.0
10
77.0152969360352
20
74.0538024902344
40
0.0
41
0.0
42
0.0
10
76.6771011352539
20
74.1007995605469
40
0.0
41
0.0
42
0.0
10
76.6500015258789
20
74.100700378418
40
0.0
41
0.0
42
0.0
10
76.5934982299805
20
74.0137023925781
40
0.0
41
0.0
42
0.0
10
76.5932998657227
20
73.9974975585938
40
0.0
41
0.0
42
0.0
10
76.9817962646484
20
73.9304962158203
40
0.0
41
0.0
42
0.0
10
77.0158996582031
20
73.9303970336914
40
0.0
41
0.0
42
0.0
210
0.0
220
0.0
230
1.0
0
LWPOLYLINE
5
3A
330
1C
100
AcDbEntity
67
0
8
0
62
256
6
ByLayer
370
-1
48
1.0
60
0
100
AcDbPolyline
90
7
70
1
38
0.0
39
0.0
10
76.8059005737305
20
74.0572967529297
40
0.0
41
0.0
42
0.0
10
76.9845962524414
20
74.0325012207031
40
0.0
41
0.0
42
0.0
10
77.0678024291992
20
74.0064010620117
40
0.0
41
0.0
42
0.0
10
77.0683975219727
20
73.9922027587891
40
0.0
41
0.0
42
0.0
10
76.9943008422852
20
73.9617004394531
40
0.0
41
0.0
42
0.0
10
76.7690963745117
20
74.0007019042969
40
0.0
41
0.0
42
0.0
10
76.8059005737305
20
74.0572967529297
40
0.0
41
0.0
42
0.0
210
0.0
220
0.0
230
1.0
0
LWPOLYLINE
5
3B
330
1C
100
AcDbEntity
67
0
8
0
62
256
6
ByLayer
370
-1
48
1.0
60
0
100
AcDbPolyline
90
129
70
1
38
0.0
39
0.0
10
79.2729034423828
20
66.8995971679688
40
0.0
41
0.0
42
0.0
10
79.4633026123047
20
66.4891967773438
40
0.0
41
0.0
42
0.0
10
79.4961013793945
20
66.4263000488281
40
0.0
41
0.0
42
0.0
10
79.7198028564453
20
66.2693023681641
40
0.0
41
0.0
42
0.0
10
79.8547973632812
20
66.1607971191406
40
0.0
41
0.0
42
0.0
10
79.9897003173828
20
66.068000793457
40
0.0
41
0.0
42
0.0
10
80.3993988037109
20
65.9123001098633
40
0.0
41
0.0
42
0.0
10
80.4853973388672
20
65.8858032226562
40
0.0
41
0.0
42
0.0
10
80.6330032348633
20
65.8516998291016
40
0.0
41
0.0
42
0.0
10
80.984001159668
20
65.7797012329102
40
0.0
41
0.0
42
0.0
10
81.1957015991211
20
65.7399978637695
40
0.0
41
0.0
42
0.0
10
81.4834976196289
20
65.7077026367188
40
0.0
41
0.0
42
0.0
10
81.7955017089844
20
65.6359024047852
40
0.0
41
0.0
42
0.0
10
81.9866027832031
20
65.6237030029297
40
0.0
41
0.0
42
0.0
10
82.189697265625
20
65.4968032836914
40
0.0
41
0.0
42
0.0
10
82.3501968383789
20
65.3523025512695
40
0.0
41
0.0
42
0.0
10
82.2398986816406
20
65.0166015625
40
0.0
41
0.0
42
0.0
10
82.2399978637695
20
65.0009994506836
40
0.0
41
0.0
42
0.0
10
82.2929000854492
20
65.0009994506836
40
0.0
41
0.0
42
0.0
10
82.428596496582
20
65.4129028320312
40
0.0
41
0.0
42
0.0
10
82.4284973144531
20
65.4402008056641
40
0.0
41
0.0
42
0.0
10
82.3588027954102
20
65.5029983520508
40
0.0
41
0.0
42
0.0
10
82.013298034668
20
65.7192001342773
40
0.0
41
0.0
42
0.0
10
81.6822967529297
20
65.7401962280273
40
0.0
41
0.0
42
0.0
10
81.5164031982422
20
65.7785034179688
40
0.0
41
0.0
42
0.0
10
81.1294021606445
20
65.8218002319336
40
0.0
41
0.0
42
0.0
10
81.0158996582031
20
65.8431015014648
40
0.0
41
0.0
42
0.0
10
80.5828018188477
20
65.931999206543
40
0.0
41
0.0
42
0.0
10
80.5145034790039
20
65.9477996826172
40
0.0
41
0.0
42
0.0
10
80.473503112793
20
65.9604034423828
40
0.0
41
0.0
42
0.0
10
80.0101013183594
20
66.1374969482422
40
0.0
41
0.0
42
0.0
10
79.7369995117188
20
66.3252029418945
40
0.0
41
0.0
42
0.0
10
79.5130996704102
20
66.5053024291992
40
0.0
41
0.0
42
0.0
10
79.5017013549805
20
66.5211029052734
40
0.0
41
0.0
42
0.0
10
79.2977981567383
20
66.9604034423828
40
0.0
41
0.0
42
0.0
10
79.3026962280273
20
66.9850997924805
40
0.0
41
0.0
42
0.0
10
79.3161010742188
20
67.0280990600586
40
0.0
41
0.0
42
0.0
10
79.3160018920898
20
67.0642013549805
40
0.0
41
0.0
42
0.0
10
79.2867965698242
20
67.489501953125
40
0.0
41
0.0
42
0.0
10
79.315299987793
20
67.5696029663086
40
0.0
41
0.0
42
0.0
10
79.3544998168945
20
67.9826965332031
40
0.0
41
0.0
42
0.0
10
79.4244995117188
20
68.4009017944336
40
0.0
41
0.0
42
0.0
10
79.4614028930664
20
68.4865036010742
40
0.0
41
0.0
42
0.0
10
79.4997024536133
20
68.652702331543
40
0.0
41
0.0
42
0.0
10
79.5226974487305
20
68.7147979736328
40
0.0
41
0.0
42
0.0
10
79.5800018310547
20
68.9052963256836
40
0.0
41
0.0
42
0.0
10
80.0083999633789
20
69.3943023681641
40
0.0
41
0.0
42
0.0
10
80.4188995361328
20
69.5027008056641
40
0.0
41
0.0
42
0.0
10
80.5168991088867
20
69.5212020874023
40
0.0
41
0.0
42
0.0
10
80.7864990234375
20
69.5501022338867
40
0.0
41
0.0
42
0.0
10
81.2344970703125
20
69.5699005126953
40
0.0
41
0.0
42
0.0
10
81.4809036254883
20
69.5643005371094
40
0.0
41
0.0
42
0.0
10
81.796501159668
20
69.5440979003906
40
0.0
41
0.0
42
0.0
10
81.9845962524414
20
69.5199966430664
40
0.0
41
0.0
42
0.0
10
82.0449981689453
20
69.4999008178711
40
0.0
41
0.0
42
0.0
10
82.119499206543
20
69.4782028198242
40
0.0
41
0.0
42
0.0
10
82.4012985229492
20
69.3283004760742
40
0.0
41
0.0
42
0.0
10
82.4360961914062
20
69.3243026733398
40
0.0
41
0.0
42
0.0
10
82.4841003417969
20
69.3244018554688
40
0.0
41
0.0
42
0.0
10
82.5372009277344
20
69.3070983886719
40
0.0
41
0.0
42
0.0
10
82.7996978759766
20
68.9906997680664
40
0.0
41
0.0
42
0.0
10
82.9619979858398
20
68.5645980834961
40
0.0
41
0.0
42
0.0
10
82.9951019287109
20
68.4854965209961
40
0.0
41
0.0
42
0.0
10
83.0652008056641
20
67.9813995361328
40
0.0
41
0.0
42
0.0
10
83.067497253418
20
67.5257034301758
40
0.0
41
0.0
42
0.0
10
83.0691986083984
20
67.5005035400391
40
0.0
41
0.0
42
0.0
10
83.0356979370117
20
67.0549011230469
40
0.0
41
0.0
42
0.0
10
83.0371017456055
20
66.9961013793945
40
0.0
41
0.0
42
0.0
10
83.0117034912109
20
66.5300979614258
40
0.0
41
0.0
42
0.0
10
83.0115966796875
20
66.4947967529297
40
0.0
41
0.0
42
0.0
10
83.4917984008789
20
66.193603515625
40
0.0
41
0.0
42
0.0
10
83.5318984985352
20
66.1638031005859
40
0.0
41
0.0
42
0.0
10
83.5626983642578
20
66.1636962890625
40
0.0
41
0.0
42
0.0
10
84.0147018432617
20
66.2622985839844
40
0.0
41
0.0
42
0.0
10
84.4441986083984
20
66.3889999389648
40
0.0
41
0.0
42
0.0
10
84.5174026489258
20
66.3892974853516
40
0.0
41
0.0
42
0.0
10
84.5986022949219
20
66.4089965820312
40
0.0
41
0.0
42
0.0
10
84.8261032104492
20
66.4994964599609
40
0.0
41
0.0
42
0.0
10
84.9990005493164
20
66.5643005371094
40
0.0
41
0.0
42
0.0
10
84.9990005493164
20
66.5827026367188
40
0.0
41
0.0
42
0.0
10
84.9838027954102
20
66.5826034545898
40
0.0
41
0.0
42
0.0
10
84.7642974853516
20
66.5002975463867
40
0.0
41
0.0
42
0.0
10
84.5314025878906
20
66.4072036743164
40
0.0
41
0.0
42
0.0
10
84.4824981689453
20
66.3955001831055
40
0.0
41
0.0
42
0.0
10
84.4371032714844
20
66.3953018188477
40
0.0
41
0.0
42
0.0
10
84.4001007080078
20
66.3877029418945
40
0.0
41
0.0
42
0.0
10
83.9851989746094
20
66.2651977539062
40
0.0
41
0.0
42
0.0
10
83.5910034179688
20
66.17919921875
40
0.0
41
0.0
42
0.0
10
83.5081024169922
20
66.241096496582
40
0.0
41
0.0
42
0.0
10
83.0854034423828
20
66.5056991577148
40
0.0
41
0.0
42
0.0
10
83.059196472168
20
66.570198059082
40
0.0
41
0.0
42
0.0
10
83.0817031860352
20
66.9804992675781
40
0.0
41
0.0
42
0.0
10
83.0815963745117
20
67.0190963745117
40
0.0
41
0.0
42
0.0
10
83.0770034790039
20
67.0777969360352
40
0.0
41
0.0
42
0.0
10
83.1073989868164
20
67.4806976318359
40
0.0
41
0.0
42
0.0
10
83.1072998046875
20
67.5192031860352
40
0.0
41
0.0
42
0.0
10
83.1016006469727
20
67.6042022705078
40
0.0
41
0.0
42
0.0
10
83.0996017456055
20
68.0182037353516
40
0.0
41
0.0
42
0.0
10
83.0860977172852
20
68.1017990112305
40
0.0
41
0.0
42
0.0
10
83.0295028686523
20
68.5142974853516
40
0.0
41
0.0
42
0.0
10
82.9691009521484
20
68.6574020385742
40
0.0
41
0.0
42
0.0
10
82.8348007202148
20
69.0094985961914
40
0.0
41
0.0
42
0.0
10
82.8087005615234
20
69.0436019897461
40
0.0
41
0.0
42
0.0
10
82.5926971435547
20
69.3026962280273
40
0.0
41
0.0
42
0.0
10
82.5166015625
20
69.3274993896484
40
0.0
41
0.0
42
0.0
10
82.4600982666016
20
69.3274002075195
40
0.0
41
0.0
42
0.0
10
82.1563034057617
20
69.4890975952148
40
0.0
41
0.0
42
0.0
10
82.1194000244141
20
69.4998016357422
40
0.0
41
0.0
42
0.0
10
82.0151977539062
20
69.5345001220703
40
0.0
41
0.0
42
0.0
10
81.6844024658203
20
69.5767974853516
40
0.0
41
0.0
42
0.0
10
81.5190963745117
20
69.5875015258789
40
0.0
41
0.0
42
0.0
10
81.1009979248047
20
69.5960006713867
40
0.0
41
0.0
42
0.0
10
80.6233978271484
20
69.5752029418945
40
0.0
41
0.0
42
0.0
10
80.4830017089844
20
69.5599975585938
40
0.0
41
0.0
42
0.0
10
80.1981964111328
20
69.5063018798828
40
0.0
41
0.0
42
0.0
10
79.9915008544922
20
69.4516983032227
40
0.0
41
0.0
42
0.0
10
79.5640029907227
20
68.9645004272461
40
0.0
41
0.0
42
0.0
10
79.5353012084961
20
68.8694000244141
40
0.0
41
0.0
42
0.0
10
79.5000991821289
20
68.7740020751953
40
0.0
41
0.0
42
0.0
10
79.4399032592773
20
68.5133972167969
40
0.0
41
0.0
42
0.0
10
79.4207992553711
20
68.4690017700195
40
0.0
41
0.0
42
0.0
10
79.3452987670898
20
68.0171966552734
40
0.0
41
0.0
42
0.0
10
79.3019027709961
20
67.5604019165039
40
0.0
41
0.0
42
0.0
10
79.2863006591797
20
67.5162963867188
40
0.0
41
0.0
42
0.0
10
79.2862014770508
20
67.4806976318359
40
0.0
41
0.0
42
0.0
10
79.3132019042969
20
67.0936965942383
40
0.0
41
0.0
42
0.0
10
79.2889022827148
20
67.0148010253906
40
0.0
41
0.0
42
0.0
10
79.2729034423828
20
66.9328994750977
40
0.0
41
0.0
42
0.0
10
79.2729034423828
20
66.8995971679688
40
0.0
41
0.0
42
0.0
210
0.0
220
0.0
230
1.0
0
LWPOLYLINE
5
3C
330
1C
100
AcDbEntity
67
0
8
0
62
256
6
ByLayer
370
-1
48
1.0
60
0
100
AcDbPolyline
90
135
70
1
38
0.0
39
0.0
10
80.439697265625
20
80.4830017089844
40
0.0
41
0.0
42
0.0
10
80.4934005737305
20
80.1981964111328
40
0.0
41
0.0
42
0.0
10
80.5479965209961
20
79.9914016723633
40
0.0
41
0.0
42
0.0
10
80.994499206543
20
79.5989990234375
40
0.0
41
0.0
42
0.0
10
81.0068969726562
20
79.5858993530273
40
0.0
41
0.0
42
0.0
10
81.0353012084961
20
79.5635986328125
40
0.0
41
0.0
42
0.0
10
81.1539001464844
20
79.5195999145508
40
0.0
41
0.0
42
0.0
10
81.2248992919922
20
79.5002975463867
40
0.0
41
0.0
42
0.0
10
81.4865036010742
20
79.4399032592773
40
0.0
41
0.0
42
0.0
10
81.5308990478516
20
79.4207992553711
40
0.0
41
0.0
42
0.0
10
81.9826965332031
20
79.3452987670898
40
0.0
41
0.0
42
0.0
10
82.4394989013672
20
79.3018035888672
40
0.0
41
0.0
42
0.0
10
82.4835968017578
20
79.2863006591797
40
0.0
41
0.0
42
0.0
10
82.5192031860352
20
79.2862014770508
40
0.0
41
0.0
42
0.0
10
82.9061965942383
20
79.3132019042969
40
0.0
41
0.0
42
0.0
10
82.9850997924805
20
79.2889022827148
40
0.0
41
0.0
42
0.0
10
83.0670013427734
20
79.2727966308594
40
0.0
41
0.0
42
0.0
10
83.1003036499023
20
79.2729034423828
40
0.0
41
0.0
42
0.0
10
83.5106964111328
20
79.4632034301758
40
0.0
41
0.0
42
0.0
10
83.5734024047852
20
79.4962005615234
40
0.0
41
0.0
42
0.0
10
83.7304992675781
20
79.7199020385742
40
0.0
41
0.0
42
0.0
10
83.838996887207
20
79.8547973632812
40
0.0
41
0.0
42
0.0
10
83.9317016601562
20
79.9897994995117
40
0.0
41
0.0
42
0.0
10
84.0002975463867
20
80.1682968139648
40
0.0
41
0.0
42
0.0
10
84.1140975952148
20
80.4859008789062
40
0.0
41
0.0
42
0.0
10
84.1480026245117
20
80.6330032348633
40
0.0
41
0.0
42
0.0
10
84.2200012207031
20
80.984001159668
40
0.0
41
0.0
42
0.0
10
84.2596969604492
20
81.19580078125
40
0.0
41
0.0
42
0.0
10
84.2919998168945
20
81.4834976196289
40
0.0
41
0.0
42
0.0
10
84.3638000488281
20
81.7955017089844
40
0.0
41
0.0
42
0.0
10
84.3759994506836
20
81.9866027832031
40
0.0
41
0.0
42
0.0
10
84.5030975341797
20
82.1897964477539
40
0.0
41
0.0
42
0.0
10
84.6474990844727
20
82.3501968383789
40
0.0
41
0.0
42
0.0
10
84.9832992553711
20
82.2398986816406
40
0.0
41
0.0
42
0.0
10
84.9990005493164
20
82.2399978637695
40
0.0
41
0.0
42
0.0
10
84.9989013671875
20
82.2929000854492
40
0.0
41
0.0
42
0.0
10
84.5868988037109
20
82.428596496582
40
0.0
41
0.0
42
0.0
10
84.5596008300781
20
82.428596496582
40
0.0
41
0.0
42
0.0
10
84.4968032836914
20
82.3588027954102
40
0.0
41
0.0
42
0.0
10
84.2805023193359
20
82.013298034668
40
0.0
41
0.0
42
0.0
10
84.2594985961914
20
81.6822967529297
40
0.0
41
0.0
42
0.0
10
84.2211990356445
20
81.5164031982422
40
0.0
41
0.0
42
0.0
10
84.1779022216797
20
81.1294021606445
40
0.0
41
0.0
42
0.0
10
84.1566009521484
20
81.0158996582031
40
0.0
41
0.0
42
0.0
10
84.0677032470703
20
80.5828018188477
40
0.0
41
0.0
42
0.0
10
84.0519027709961
20
80.5139999389648
40
0.0
41
0.0
42
0.0
10
83.9997024536133
20
80.3681030273438
40
0.0
41
0.0
42
0.0
10
83.8622970581055
20
80.0101013183594
40
0.0
41
0.0
42
0.0
10
83.6745986938477
20
79.7369995117188
40
0.0
41
0.0
42
0.0
10
83.494499206543
20
79.5130996704102
40
0.0
41
0.0
42
0.0
10
83.4785995483398
20
79.5017013549805
40
0.0
41
0.0
42
0.0
10
83.0394973754883
20
79.2977981567383
40
0.0
41
0.0
42
0.0
10
83.0148010253906
20
79.3026962280273
40
0.0
41
0.0
42
0.0
10
82.9718017578125
20
79.3161010742188
40
0.0
41
0.0
42
0.0
10
82.9356994628906
20
79.3160018920898
40
0.0
41
0.0
42
0.0
10
82.5103988647461
20
79.2867965698242
40
0.0
41
0.0
42
0.0
10
82.4302978515625
20
79.315299987793
40
0.0
41
0.0
42
0.0
10
82.0171966552734
20
79.3544998168945
40
0.0
41
0.0
42
0.0
10
81.5989990234375
20
79.4244995117188
40
0.0
41
0.0
42
0.0
10
81.5133972167969
20
79.4614028930664
40
0.0
41
0.0
42
0.0
10
81.3479995727539
20
79.4994964599609
40
0.0
41
0.0
42
0.0
10
81.2102966308594
20
79.5372009277344
40
0.0
41
0.0
42
0.0
10
81.0944976806641
20
79.5801010131836
40
0.0
41
0.0
42
0.0
10
81.029899597168
20
79.6307983398438
40
0.0
41
0.0
42
0.0
10
81.0053024291992
20
79.6568984985352
40
0.0
41
0.0
42
0.0
10
80.6054992675781
20
80.00830078125
40
0.0
41
0.0
42
0.0
10
80.4970016479492
20
80.4188995361328
40
0.0
41
0.0
42
0.0
10
80.4785003662109
20
80.5168991088867
40
0.0
41
0.0
42
0.0
10
80.4496002197266
20
80.7864990234375
40
0.0
41
0.0
42
0.0
10
80.429801940918
20
81.2344970703125
40
0.0
41
0.0
42
0.0
10
80.4354019165039
20
81.4809036254883
40
0.0
41
0.0
42
0.0
10
80.4555969238281
20
81.796501159668
40
0.0
41
0.0
42
0.0
10
80.4796981811523
20
81.9847030639648
40
0.0
41
0.0
42
0.0
10
80.4999008178711
20
82.0449981689453
40
0.0
41
0.0
42
0.0
10
80.5214996337891
20
82.119499206543
40
0.0
41
0.0
42
0.0
10
80.6714019775391
20
82.4012985229492
40
0.0
41
0.0
42
0.0
10
80.6753997802734
20
82.4360961914062
40
0.0
41
0.0
42
0.0
10
80.6753005981445
20
82.4841003417969
40
0.0
41
0.0
42
0.0
10
80.6927032470703
20
82.5372009277344
40
0.0
41
0.0
42
0.0
10
81.0092010498047
20
82.7996978759766
40
0.0
41
0.0
42
0.0
10
81.4352035522461
20
82.9619979858398
40
0.0
41
0.0
42
0.0
10
81.5143966674805
20
82.9951019287109
40
0.0
41
0.0
42
0.0
10
82.0185012817383
20
83.0652008056641
40
0.0
41
0.0
42
0.0
10
82.4741973876953
20
83.067497253418
40
0.0
41
0.0
42
0.0
10
82.4992980957031
20
83.0691986083984
40
0.0
41
0.0
42
0.0
10
82.9450988769531
20
83.0357971191406
40
0.0
41
0.0
42
0.0
10
82.9841995239258
20
83.0356979370117
40
0.0
41
0.0
42
0.0
10
83.0162963867188
20
83.038200378418
40
0.0
41
0.0
42
0.0
10
83.0604019165039
20
83.0502014160156
40
0.0
41
0.0
42
0.0
10
83.4807968139648
20
83.0160980224609
40
0.0
41
0.0
42
0.0
10
83.50830078125
20
83.0160980224609
40
0.0
41
0.0
42
0.0
10
83.8060989379883
20
83.4917984008789
40
0.0
41
0.0
42
0.0
10
83.8360977172852
20
83.5318984985352
40
0.0
41
0.0
42
0.0
10
83.8359985351562
20
83.5626983642578
40
0.0
41
0.0
42
0.0
10
83.7369003295898
20
84.0177001953125
40
0.0
41
0.0
42
0.0
10
83.736701965332
20
84.0640029907227
40
0.0
41
0.0
42
0.0
10
83.7332992553711
20
84.1009979248047
40
0.0
41
0.0
42
0.0
10
83.611198425293
20
84.5145034790039
40
0.0
41
0.0
42
0.0
10
83.5906982421875
20
84.598503112793
40
0.0
41
0.0
42
0.0
10
83.5002975463867
20
84.8261032104492
40
0.0
41
0.0
42
0.0
10
83.4355010986328
20
84.9990005493164
40
0.0
41
0.0
42
0.0
10
83.4171981811523
20
84.9990005493164
40
0.0
41
0.0
42
0.0
10
83.4170989990234
20
84.9837036132812
40
0.0
41
0.0
42
0.0
10
83.4994964599609
20
84.7641983032227
40
0.0
41
0.0
42
0.0
10
83.592399597168
20
84.5313034057617
40
0.0
41
0.0
42
0.0
10
83.6044006347656
20
84.4825973510742
40
0.0
41
0.0
42
0.0
10
83.7351989746094
20
84.0402984619141
40
0.0
41
0.0
42
0.0
10
83.7350997924805
20
83.9822006225586
40
0.0
41
0.0
42
0.0
10
83.8205032348633
20
83.5910034179688
40
0.0
41
0.0
42
0.0
10
83.7587966918945
20
83.5081024169922
40
0.0
41
0.0
42
0.0
10
83.4928970336914
20
83.0833969116211
40
0.0
41
0.0
42
0.0
10
83.1328964233398
20
83.1128005981445
40
0.0
41
0.0
42
0.0
10
83.0966033935547
20
83.1127014160156
40
0.0
41
0.0
42
0.0
10
82.9835968017578
20
83.0818023681641
40
0.0
41
0.0
42
0.0
10
82.9220962524414
20
83.0770034790039
40
0.0
41
0.0
42
0.0
10
82.5192031860352
20
83.1073989868164
40
0.0
41
0.0
42
0.0
10
82.4806976318359
20
83.1072998046875
40
0.0
41
0.0
42
0.0
10
82.3956985473633
20
83.1016006469727
40
0.0
41
0.0
42
0.0
10
81.9816970825195
20
83.0996017456055
40
0.0
41
0.0
42
0.0
10
81.8981018066406
20
83.0860977172852
40
0.0
41
0.0
42
0.0
10
81.4856033325195
20
83.0295028686523
40
0.0
41
0.0
42
0.0
10
81.342399597168
20
82.9691009521484
40
0.0
41
0.0
42
0.0
10
80.9903030395508
20
82.8348999023438
40
0.0
41
0.0
42
0.0
10
80.9561996459961
20
82.8087005615234
40
0.0
41
0.0
42
0.0
10
80.6969985961914
20
82.5926971435547
40
0.0
41
0.0
42
0.0
10
80.6722030639648
20
82.5166015625
40
0.0
41
0.0
42
0.0
10
80.6723022460938
20
82.4600982666016
40
0.0
41
0.0
42
0.0
10
80.5105972290039
20
82.1563034057617
40
0.0
41
0.0
42
0.0
10
80.5
20
82.1194000244141
40
0.0
41
0.0
42
0.0
10
80.465202331543
20
82.0152969360352
40
0.0
41
0.0
42
0.0
10
80.4228973388672
20
81.6844024658203
40
0.0
41
0.0
42
0.0
10
80.4122009277344
20
81.5190963745117
40
0.0
41
0.0
42
0.0
10
80.4037017822266
20
81.1009979248047
40
0.0
41
0.0
42
0.0
10
80.4244995117188
20
80.6233978271484
40
0.0
41
0.0
42
0.0
10
80.439697265625
20
80.4830017089844
40
0.0
41
0.0
42
0.0
210
0.0
220
0.0
230
1.0
0
LWPOLYLINE
5
3D
330
1C
100
AcDbEntity
67
0
8
0
62
256
6
ByLayer
370
-1
48
1.0
60
0
100
AcDbPolyline
90
76
70
1
38
0.0
39
0.0
10
82.4873962402344
20
73.9875030517578
40
0.0
41
0.0
42
0.0
10
82.4975967407227
20
73.9731979370117
40
0.0
41
0.0
42
0.0
10
82.7425003051758
20
73.5326995849609
40
0.0
41
0.0
42
0.0
10
82.7539978027344
20
73.4878005981445
40
0.0
41
0.0
42
0.0
10
82.9965972900391
20
73.1522979736328
40
0.0
41
0.0
42
0.0
10
83.0914993286133
20
73.0346984863281
40
0.0
41
0.0
42
0.0
10
83.1113967895508
20
72.9887008666992
40
0.0
41
0.0
42
0.0
10
83.1322021484375
20
72.9460983276367
40
0.0
41
0.0
42
0.0
10
83.1591033935547
20
72.9077987670898
40
0.0
41
0.0
42
0.0
10
83.2595977783203
20
72.7908020019531
40
0.0
41
0.0
42
0.0
10
83.4935989379883
20
72.5279998779297
40
0.0
41
0.0
42
0.0
10
83.5416030883789
20
72.497802734375
40
0.0
41
0.0
42
0.0
10
83.7893981933594
20
72.3531036376953
40
0.0
41
0.0
42
0.0
10
83.9894027709961
20
72.174201965332
40
0.0
41
0.0
42
0.0
10
84.2182006835938
20
72.1367034912109
40
0.0
41
0.0
42
0.0
10
84.5179977416992
20
72.1294021606445
40
0.0
41
0.0
42
0.0
10
84.6793975830078
20
72.1632995605469
40
0.0
41
0.0
42
0.0
10
84.9990005493164
20
72.2712020874023
40
0.0
41
0.0
42
0.0
10
84.9990005493164
20
72.3393020629883
40
0.0
41
0.0
42
0.0
10
84.9833984375
20
72.3393020629883
40
0.0
41
0.0
42
0.0
10
84.5727996826172
20
72.2005996704102
40
0.0
41
0.0
42
0.0
10
84.4866027832031
20
72.182502746582
40
0.0
41
0.0
42
0.0
10
84.1428985595703
20
72.1921997070312
40
0.0
41
0.0
42
0.0
10
84.010498046875
20
72.2138977050781
40
0.0
41
0.0
42
0.0
10
83.9001007080078
20
72.3126983642578
40
0.0
41
0.0
42
0.0
10
83.5762023925781
20
72.5019989013672
40
0.0
41
0.0
42
0.0
10
83.5062026977539
20
72.5457992553711
40
0.0
41
0.0
42
0.0
10
83.1567001342773
20
72.9399032592773
40
0.0
41
0.0
42
0.0
10
83.1218032836914
20
73.011100769043
40
0.0
41
0.0
42
0.0
10
83.0870971679688
20
73.0916976928711
40
0.0
41
0.0
42
0.0
10
83.0031967163086
20
73.1955032348633
40
0.0
41
0.0
42
0.0
10
82.7768020629883
20
73.5084991455078
40
0.0
41
0.0
42
0.0
10
82.7540969848633
20
73.5970993041992
40
0.0
41
0.0
42
0.0
10
82.5233001708984
20
74.0139007568359
40
0.0
41
0.0
42
0.0
10
82.4989013671875
20
74.3898010253906
40
0.0
41
0.0
42
0.0
10
82.4921035766602
20
74.4647979736328
40
0.0
41
0.0
42
0.0
10
82.4873962402344
20
74.4928970336914
40
0.0
41
0.0
42
0.0
10
82.5016021728516
20
74.5158996582031
40
0.0
41
0.0
42
0.0
10
82.5143966674805
20
74.5412979125977
40
0.0
41
0.0
42
0.0
10
82.681396484375
20
74.9050979614258
40
0.0
41
0.0
42
0.0
10
82.7384033203125
20
74.9928970336914
40
0.0
41
0.0
42
0.0
10
83.0703964233398
20
75.3495025634766
40
0.0
41
0.0
42
0.0
10
83.1761016845703
20
75.4940032958984
40
0.0
41
0.0
42
0.0
10
83.5046997070312
20
75.7998962402344
40
0.0
41
0.0
42
0.0
10
83.5130996704102
20
75.809700012207
40
0.0
41
0.0
42
0.0
10
83.6666030883789
20
75.9106979370117
40
0.0
41
0.0
42
0.0
10
83.7359008789062
20
75.9955978393555
40
0.0
41
0.0
42
0.0
10
83.9964981079102
20
76.1718978881836
40
0.0
41
0.0
42
0.0
10
84.0077972412109
20
76.1876983642578
40
0.0
41
0.0
42
0.0
10
84.4284973144531
20
76.2649002075195
40
0.0
41
0.0
42
0.0
10
84.4635009765625
20
76.2813034057617
40
0.0
41
0.0
42
0.0
10
84.5047988891602
20
76.3159027099609
40
0.0
41
0.0
42
0.0
10
84.9380035400391
20
76.1893997192383
40
0.0
41
0.0
42
0.0
10
84.9733963012695
20
76.1893005371094
40
0.0
41
0.0
42
0.0
10
84.9990005493164
20
76.1930999755859
40
0.0
41
0.0
42
0.0
10
84.9990005493164
20
76.2265014648438
40
0.0
41
0.0
42
0.0
10
84.9814987182617
20
76.2264022827148
40
0.0
41
0.0
42
0.0
10
84.9197006225586
20
76.2174987792969
40
0.0
41
0.0
42
0.0
10
84.5168991088867
20
76.3352966308594
40
0.0
41
0.0
42
0.0
10
84.4876022338867
20
76.3351974487305
40
0.0
41
0.0
42
0.0
10
84.421501159668
20
76.2797012329102
40
0.0
41
0.0
42
0.0
10
83.9919967651367
20
76.2008972167969
40
0.0
41
0.0
42
0.0
10
83.9900970458984
20
76.1984024047852
40
0.0
41
0.0
42
0.0
10
83.7032012939453
20
76.0043029785156
40
0.0
41
0.0
42
0.0
10
83.6664962768555
20
75.9591979980469
40
0.0
41
0.0
42
0.0
10
83.4968032836914
20
75.8476028442383
40
0.0
41
0.0
42
0.0
10
83.1307983398438
20
75.5059967041016
40
0.0
41
0.0
42
0.0
10
83.0755996704102
20
75.4302978515625
40
0.0
41
0.0
42
0.0
10
82.681396484375
20
75.0070037841797
40
0.0
41
0.0
42
0.0
10
82.6539001464844
20
74.9647979736328
40
0.0
41
0.0
42
0.0
10
82.5663986206055
20
74.7740020751953
40
0.0
41
0.0
42
0.0
10
82.4982986450195
20
74.6383972167969
40
0.0
41
0.0
42
0.0
10
82.4210968017578
20
74.5139999389648
40
0.0
41
0.0
42
0.0
10
82.4208984375
20
74.4816970825195
40
0.0
41
0.0
42
0.0
10
82.4664993286133
20
74.2194976806641
40
0.0
41
0.0
42
0.0
10
82.4873962402344
20
73.9875030517578
40
0.0
41
0.0
42
0.0
210
0.0
220
0.0
230
1.0
0
VIEWPORT
5
42
330
3E
100
AcDbEntity
67
1
8
0
62
256
6
ByLayer
370
-1
48
1.0
60
0
100
AcDbViewport
10
0.0
20
0.0
30
0.0
40
297.0
41
210.0
68
1
69
1
12
50.0
22
100.0
13
0.0
23
0.0
14
10.0
24
10.0
15
10.0
25
10.0
16
0.0
26
0.0
36
1.0
17
0.0
27
0.0
37
0.0
42
50.0
43
0.0
44
0.0
45
250.0
50
0.0
51
0.0
72
1000
90
819232
110
0.0
120
0.0
130
0.0
111
1.0
121
0.0
131
0.0
112
0.0
122
1.0
132
0.0
0
ENDSEC
0
SECTION
2
OBJECTS
0
DICTIONARY
5
48
330
0
100
AcDbDictionary
280
1
281
1
3
ACAD_GROUP
350
12
3
ACAD_LAYOUT
350
41
3
ACAD_DGNDEFINITIONS
350
F
3
ACAD_DWFDEFINITIONS
350
10
3
ACAD_PDFDEFINITIONS
350
11
3
ACAD_MLINESTYLE
350
B
3
ACAD_IMAGE_DICT
350
E
3
ACAD_IMAGE_VARS
350
21
0
DICTIONARY
5
12
330
48
100
AcDbDictionary
280
1
281
1
0
DICTIONARY
5
41
330
48
100
AcDbDictionary
280
1
281
1
3
Model
350
20
3
Layout1
350
43
0
DICTIONARY
5
F
330
48
100
AcDbDictionary
280
1
281
1
0
DICTIONARY
5
10
330
48
100
AcDbDictionary
280
1
281
1
0
DICTIONARY
5
11
330
48
100
AcDbDictionary
280
1
281
1
0
DICTIONARY
5
B
330
48
100
AcDbDictionary
280
1
281
1
3
Standard
350
1B
0
DICTIONARY
5
E
330
48
100
AcDbDictionary
280
1
281
1
0
DICTIONARY
5
6
330
5
100
AcDbDictionary
280
1
281
1
3
ACAD_LAYERSTATES
360
49
0
DICTIONARY
5
49
330
6
100
AcDbDictionary
280
1
281
1
0
LAYOUT
5
20
330
41
100
AcDbPlotSettings
1

2
none_device
4
ISO_A4_(210.00_x_297.00_MM)
6

40
7.5
41
20.0
42
7.5
43
20.0
44
210.0
45
297.0
46
0.0
47
0.0
48
0.0
49
0.0
140
0.0
141
0.0
142
1.0
143
1.0
70
11952
72
1
73
1
74
1
7

75
0
76
0
77
2
78
300
147
1.0
148
0.0
149
0.0
100
AcDbLayout
1
Model
71
0
10
-20.0
20
-7.5
11
277.0
21
202.5
12
0.0
22
0.0
32
0.0
14
25.7
24
19.5
34
0.0
15
231.3
25
175.5
35
0.0
146
0.0
13
0.0
23
0.0
33
0.0
16
1.0
26
0.0
36
0.0
17
0.0
27
1.0
37
0.0
76
0
330
1C
0
LAYOUT
5
43
330
41
100
AcDbPlotSettings
1

2
none_device
4
ISO_A4_(210.00_x_297.00_MM)
6

40
7.5
41
20.0
42
7.5
43
20.0
44
210.0
45
297.0
46
0.0
47
0.0
48
0.0
49
0.0
140
0.0
141
0.0
142
1.0
143
1.0
70
688
72
1
73
1
74
1
7

75
0
76
0
77
2
78
300
147
1.0
148
0.0
149
0.0
100
AcDbLayout
1
Layout1
71
1
10
-20.0
20
-7.5
11
277.0
21
202.5
12
0.0
22
0.0
32
0.0
14
25.7
24
19.5
34
0.0
15
231.3
25
175.5
35
0.0
146
0.0
13
0.0
23
0.0
33
0.0
16
1.0
26
0.0
36
0.0
17
0.0
27
1.0
37
0.0
76
0
330
3E
0
MLINESTYLE
5
1B
330
B
100
AcDbMlineStyle
2
Standard
70
0
3

62
256
51
90.0
52
90.0
71
2
49
0.5
62
256
6
ByLayer
49
-0.5
62
256
6
ByLayer
0
RASTERVARIABLES
5
21
330
E
100
AcDbRasterVariables
90
0
70
1
71
1
72
0
0
ENDSEC
0
EOF
