999
DXF file generated by netDxf https://github.com/haplokuon/netDxf, Copyright(C) Daniel Carvajal, Licensed under MIT
0
SECTION
2
HEADER
9
$ACADVER
1
AC1015
9
$DWGCODEPAGE
3
ANSI_1252
9
$HANDSEED
5
52
9
$ANGBASE
50
0.0
9
$ANGDIR
70
0
9
$ATTMODE
70
1
9
$AUNITS
70
0
9
$AUPREC
70
0
9
$CECOLOR
62
256
9
$CELTSCALE
40
1.0
9
$CELTYPE
6
ByLayer
9
$CELWEIGHT
370
-1
9
$CLAYER
8
0
9
$CMLJUST
70
0
9
$CMLSCALE
40
20.0
9
$CMLSTYLE
2
Standard
9
$DIMSTYLE
2
Standard
9
$TEXTSIZE
40
2.5
9
$TEXTSTYLE
7
Standard
9
$LUNITS
70
2
9
$LUPREC
70
4
9
$MIRRTEXT
70
0
9
$EXTNAMES
290
1
9
$INSBASE
10
0.0
20
0.0
30
0.0
9
$INSUNITS
70
0
9
$LTSCALE
40
1.0
9
$LWDISPLAY
290
0
9
$PDMODE
70
0
9
$PDSIZE
40
0.0
9
$PLINEGEN
70
0
9
$PSLTSCALE
70
1
9
$SPLINESEGS
70
8
9
$SURFU
70
6
9
$SURFV
70
6
9
$TDCREATE
40
2460823.48368025
9
$TDUCREATE
40
2460823.15034692
9
$TDUPDATE
40
2460823.48368025
9
$TDUUPDATE
40
2460823.15034692
9
$TDINDWG
40
0.0
9
$UCSORG
10
0.0
20
0.0
30
0.0
9
$UCSXDIR
10
1.0
20
0.0
30
0.0
9
$UCSYDIR
10
0.0
20
1.0
30
0.0
9
$DIMADEC
70
0
9
$DIMALT
70
0
9
$DIMALTD
70
2
9
$DIMALTF
40
25.4
9
$DIMALTRND
40
0.0
9
$DIMALTTD
70
2
9
$DIMALTTZ
70
0
9
$DIMALTU
70
2
9
$DIMALTZ
70
0
9
$DIMAPOST
1

9
$DIMATFIT
70
3
9
$DIMAUNIT
70
0
9
$DIMASZ
40
0.18
9
$DIMAZIN
70
0
9
$DIMSAH
70
0
9
$DIMBLK
1

9
$DIMLDRBLK
1

9
$DIMCEN
40
0.09
9
$DIMCLRD
70
0
9
$DIMCLRE
70
0
9
$DIMCLRT
70
0
9
$DIMDEC
70
4
9
$DIMDLE
40
0.0
9
$DIMDLI
40
0.38
9
$DIMDSEP
70
46
9
$DIMEXE
40
0.18
9
$DIMEXO
40
0.0625
9
$DIMFXLON
70
0
9
$DIMFXL
40
1.0
9
$DIMGAP
40
0.09
9
$DIMJUST
70
0
9
$DIMLFAC
40
1.0
9
$DIMLUNIT
70
2
9
$DIMLWD
70
-2
9
$DIMLWE
70
-2
9
$DIMPOST
1

9
$DIMRND
40
0.0
9
$DIMSCALE
40
1.0
9
$DIMSD1
70
0
9
$DIMSD2
70
0
9
$DIMSE1
70
0
9
$DIMSE2
70
0
9
$DIMSOXD
70
0
9
$DIMTAD
70
0
9
$DIMTDEC
70
4
9
$DIMTFAC
40
1.0
9
$DIMTIH
70
0
9
$DIMTIX
70
0
9
$DIMTM
40
0.0
9
$DIMTMOVE
70
0
9
$DIMTOFL
70
0
9
$DIMTOH
70
0
9
$DIMTOL
70
0
9
$DIMLIM
70
0
9
$DIMTOLJ
70
1
9
$DIMTP
40
0.0
9
$DIMTXT
40
0.18
9
$DIMTXTDIRECTION
70
0
9
$DIMTZIN
70
0
9
$DIMZIN
70
0
9
$DIMFRAC
70
0
9
$DIMLTYPE
6
ByBlock
9
$DIMLTEX1
6
ByBlock
9
$DIMLTEX2
6
ByBlock
0
ENDSEC
0
SECTION
2
CLASSES
0
CLASS
1
RASTERVARIABLES
2
AcDbRasterVariables
3
ISM
90
0
280
0
281
0
0
ENDSEC
0
SECTION
2
TABLES
0
TABLE
2
APPID
5
4
330
0
100
AcDbSymbolTable
70
5
0
APPID
5
19
330
4
100
AcDbSymbolTableRecord
100
AcDbRegAppTableRecord
2
ACAD
70
0
0
APPID
5
4C
330
4
100
AcDbSymbolTableRecord
100
AcDbRegAppTableRecord
2
AcCmTransparency
70
0
0
APPID
5
4D
330
4
100
AcDbSymbolTableRecord
100
AcDbRegAppTableRecord
2
AcAecLayerStandard
70
0
0
APPID
5
4E
330
4
100
AcDbSymbolTableRecord
100
AcDbRegAppTableRecord
2
GradientColor1ACI
70
0
0
APPID
5
4F
330
4
100
AcDbSymbolTableRecord
100
AcDbRegAppTableRecord
2
GradientColor2ACI
70
0
0
ENDTAB
0
TABLE
2
VPORT
5
1
330
0
100
AcDbSymbolTable
70
1
0
VPORT
5
2
330
1
100
AcDbSymbolTableRecord
100
AcDbViewportTableRecord
2
*Active
70
0
10
0.0
20
0.0
11
1.0
21
1.0
12
0.0
22
0.0
13
0.0
23
0.0
14
0.5
24
0.5
15
10.0
25
10.0
16
0.0
26
0.0
36
1.0
17
0.0
27
0.0
37
0.0
40
10.0
41
1.0
75
0
76
1
0
ENDTAB
0
TABLE
2
LTYPE
5
7
330
0
100
AcDbSymbolTable
70
3
0
LTYPE
5
15
330
7
100
AcDbSymbolTableRecord
100
AcDbLinetypeTableRecord
2
Continuous
70
0
3
Solid line
72
65
73
0
40
0.0
0
LTYPE
5
16
330
7
100
AcDbSymbolTableRecord
100
AcDbLinetypeTableRecord
2
ByLayer
70
0
3

72
65
73
0
40
0.0
0
LTYPE
5
17
330
7
100
AcDbSymbolTableRecord
100
AcDbLinetypeTableRecord
2
ByBlock
70
0
3

72
65
73
0
40
0.0
0
ENDTAB
0
TABLE
2
LAYER
5
5
102
{ACAD_XDICTIONARY
360
6
102
}
330
0
100
AcDbSymbolTable
70
1
0
LAYER
5
14
330
5
100
AcDbSymbolTableRecord
100
AcDbLayerTableRecord
2
0
70
0
62
7
6
Continuous
290
1
370
-3
390
0
0
ENDTAB
0
TABLE
2
STYLE
5
8
330
0
100
AcDbSymbolTable
70
1
0
STYLE
5
18
330
8
100
AcDbSymbolTableRecord
100
AcDbTextStyleTableRecord
2
Standard
3
simplex.shx
70
0
71
0
40
0.0
41
1.0
42
0.0
50
0.0
0
ENDTAB
0
TABLE
2
DIMSTYLE
5
A
330
0
100
AcDbSymbolTable
70
1
100
AcDbDimStyleTable
0
DIMSTYLE
105
1A
330
A
100
AcDbSymbolTableRecord
100
AcDbDimStyleTableRecord
2
Standard
3

4

40
1.0
41
0.18
42
0.0625
43
0.38
44
0.18
45
0.0
46
0.0
47
0.0
48
0.0
49
1.0
70
0
71
0
72
0
73
0
74
0
75
0
76
0
77
0
78
0
79
0
140
0.18
141
0.09
143
25.4
144
1.0
146
1.0
147
0.09
148
0.0
170
0
171
2
172
0
174
0
175
0
176
0
177
0
178
0
179
0
271
4
272
4
273
2
274
2
275
0
276
0
277
2
278
46
279
0
280
0
281
0
282
0
283
1
284
0
285
0
286
0
289
3
290
0
294
0
340
18
173
0
345
17
346
17
347
17
371
-2
372
-2
0
ENDTAB
0
TABLE
2
VIEW
5
3
330
0
100
AcDbSymbolTable
70
0
0
ENDTAB
0
TABLE
2
UCS
5
C
330
0
100
AcDbSymbolTable
70
0
0
ENDTAB
0
TABLE
2
BLOCK_RECORD
5
D
330
0
100
AcDbSymbolTable
70
2
0
BLOCK_RECORD
5
1C
330
D
100
AcDbSymbolTableRecord
100
AcDbBlockTableRecord
2
*Model_Space
340
20
0
BLOCK_RECORD
5
46
330
D
100
AcDbSymbolTableRecord
100
AcDbBlockTableRecord
2
*Paper_Space
340
4B
0
ENDTAB
0
ENDSEC
0
SECTION
2
BLOCKS
0
BLOCK
5
1E
330
1C
100
AcDbEntity
67
0
8
0
100
AcDbBlockBegin
2
*Model_Space
70
0
10
0.0
20
0.0
30
0.0
3
*Model_Space
4

0
ENDBLK
5
1D
330
1C
100
AcDbEntity
8
0
100
AcDbBlockEnd
0
BLOCK
5
48
330
46
100
AcDbEntity
67
1
8
0
100
AcDbBlockBegin
2
*Paper_Space
70
0
10
0.0
20
0.0
30
0.0
3
*Paper_Space
4

0
ENDBLK
5
47
330
46
100
AcDbEntity
8
0
100
AcDbBlockEnd
0
ENDSEC
0
SECTION
2
ENTITIES
0
LWPOLYLINE
5
22
330
1C
100
AcDbEntity
67
0
8
0
62
256
6
ByLayer
370
-1
48
1.0
60
0
100
AcDbPolyline
90
31
70
1
38
0.0
39
0.0
10
65.0072021484375
20
68.2505035400391
40
0.0
41
0.0
42
0.0
10
65.0500030517578
20
68.3323974609375
40
0.0
41
0.0
42
0.0
10
65.0689010620117
20
68.3563003540039
40
0.0
41
0.0
42
0.0
10
65.1344985961914
20
68.4868011474609
40
0.0
41
0.0
42
0.0
10
65.2029037475586
20
68.8477020263672
40
0.0
41
0.0
42
0.0
10
65.2135009765625
20
68.9809036254883
40
0.0
41
0.0
42
0.0
10
65.2186965942383
20
69.3844985961914
40
0.0
41
0.0
42
0.0
10
65.2116012573242
20
69.5185012817383
40
0.0
41
0.0
42
0.0
10
65.1796035766602
20
69.8824996948242
40
0.0
41
0.0
42
0.0
10
65.160400390625
20
70.0162963867188
40
0.0
41
0.0
42
0.0
10
65.0836029052734
20
70.379997253418
40
0.0
41
0.0
42
0.0
10
65.0469970703125
20
70.5134963989258
40
0.0
41
0.0
42
0.0
10
65.0313034057617
20
70.5554962158203
40
0.0
41
0.0
42
0.0
10
65.0066986083984
20
70.6074981689453
40
0.0
41
0.0
42
0.0
10
65.0009994506836
20
70.6074981689453
40
0.0
41
0.0
42
0.0
10
65.0009002685547
20
70.5787963867188
40
0.0
41
0.0
42
0.0
10
65.0207977294922
20
70.5366973876953
40
0.0
41
0.0
42
0.0
10
65.0395965576172
20
70.4863967895508
40
0.0
41
0.0
42
0.0
10
65.0661010742188
20
70.3899002075195
40
0.0
41
0.0
42
0.0
10
65.1518020629883
20
69.9835968017578
40
0.0
41
0.0
42
0.0
10
65.1657028198242
20
69.8873977661133
40
0.0
41
0.0
42
0.0
10
65.2014007568359
20
69.4813995361328
40
0.0
41
0.0
42
0.0
10
65.2061004638672
20
69.3939971923828
40
0.0
41
0.0
42
0.0
10
65.2006988525391
20
69.0189971923828
40
0.0
41
0.0
42
0.0
10
65.1930999755859
20
68.9222030639648
40
0.0
41
0.0
42
0.0
10
65.1156005859375
20
68.5130996704102
40
0.0
41
0.0
42
0.0
10
65.0654983520508
20
68.4135971069336
40
0.0
41
0.0
42
0.0
10
65.0521011352539
20
68.396598815918
40
0.0
41
0.0
42
0.0
10
65.0009994506836
20
68.298698425293
40
0.0
41
0.0
42
0.0
10
65.0009994506836
20
68.2505035400391
40
0.0
41
0.0
42
0.0
10
65.0072021484375
20
68.2505035400391
40
0.0
41
0.0
42
0.0
210
0.0
220
0.0
230
1.0
0
LWPOLYLINE
5
23
330
1C
100
AcDbEntity
67
0
8
0
62
256
6
ByLayer
370
-1
48
1.0
60
0
100
AcDbPolyline
90
27
70
1
38
0.0
39
0.0
10
65.0054016113281
20
79.4114990234375
40
0.0
41
0.0
42
0.0
10
65.0161972045898
20
79.4406967163086
40
0.0
41
0.0
42
0.0
10
65.0282974243164
20
79.4849014282227
40
0.0
41
0.0
42
0.0
10
65.1052017211914
20
79.8486022949219
40
0.0
41
0.0
42
0.0
10
65.1239013671875
20
79.9822998046875
40
0.0
41
0.0
42
0.0
10
65.1596984863281
20
80.3861999511719
40
0.0
41
0.0
42
0.0
10
65.16259765625
20
80.4801025390625
40
0.0
41
0.0
42
0.0
10
65.1567993164062
20
80.9241027832031
40
0.0
41
0.0
42
0.0
10
65.1505966186523
20
81.0173034667969
40
0.0
41
0.0
42
0.0
10
65.0743026733398
20
81.4203033447266
40
0.0
41
0.0
42
0.0
10
65.0501022338867
20
81.5122985839844
40
0.0
41
0.0
42
0.0
10
65.0072021484375
20
81.5947036743164
40
0.0
41
0.0
42
0.0
10
65.0009994506836
20
81.5947036743164
40
0.0
41
0.0
42
0.0
10
65.0009002685547
20
81.564697265625
40
0.0
41
0.0
42
0.0
10
65.0410995483398
20
81.4876022338867
40
0.0
41
0.0
42
0.0
10
65.0773010253906
20
81.3496017456055
40
0.0
41
0.0
42
0.0
10
65.1468963623047
20
80.9825973510742
40
0.0
41
0.0
42
0.0
10
65.1557998657227
20
80.8458023071289
40
0.0
41
0.0
42
0.0
10
65.1606979370117
20
80.5074005126953
40
0.0
41
0.0
42
0.0
10
65.1567993164062
20
80.3836975097656
40
0.0
41
0.0
42
0.0
10
65.1244964599609
20
80.0177001953125
40
0.0
41
0.0
42
0.0
10
65.1097030639648
20
79.9057998657227
40
0.0
41
0.0
42
0.0
10
65.027099609375
20
79.5149993896484
40
0.0
41
0.0
42
0.0
10
65.0178985595703
20
79.4813003540039
40
0.0
41
0.0
42
0.0
10
65.0009994506836
20
79.4354019165039
40
0.0
41
0.0
42
0.0
10
65.0009994506836
20
79.4114990234375
40
0.0
41
0.0
42
0.0
10
65.0054016113281
20
79.4114990234375
40
0.0
41
0.0
42
0.0
210
0.0
220
0.0
230
1.0
0
LWPOLYLINE
5
24
330
1C
100
AcDbEntity
67
0
8
0
62
256
6
ByLayer
370
-1
48
1.0
60
0
100
AcDbPolyline
90
42
70
1
38
0.0
39
0.0
10
67.1960983276367
20
76.9886016845703
40
0.0
41
0.0
42
0.0
10
67.2724990844727
20
76.8560028076172
40
0.0
41
0.0
42
0.0
10
67.4545974731445
20
76.5837020874023
40
0.0
41
0.0
42
0.0
10
67.4940032958984
20
76.5291976928711
40
0.0
41
0.0
42
0.0
10
67.5529022216797
20
76.4990997314453
40
0.0
41
0.0
42
0.0
10
67.6184005737305
20
76.4749984741211
40
0.0
41
0.0
42
0.0
10
67.8517990112305
20
76.3798980712891
40
0.0
41
0.0
42
0.0
10
67.9834976196289
20
76.3339004516602
40
0.0
41
0.0
42
0.0
10
68.0167999267578
20
76.3338012695312
40
0.0
41
0.0
42
0.0
10
68.1490020751953
20
76.3742980957031
40
0.0
41
0.0
42
0.0
10
68.3887023925781
20
76.4425964355469
40
0.0
41
0.0
42
0.0
10
68.5120010375977
20
76.4721984863281
40
0.0
41
0.0
42
0.0
10
68.5558013916016
20
76.497802734375
40
0.0
41
0.0
42
0.0
10
68.6435012817383
20
76.5559997558594
40
0.0
41
0.0
42
0.0
10
69.007698059082
20
76.7901000976562
40
0.0
41
0.0
42
0.0
10
69.1285018920898
20
76.8858032226562
40
0.0
41
0.0
42
0.0
10
69.2484970092773
20
76.9932022094727
40
0.0
41
0.0
42
0.0
10
69.4457015991211
20
77.3532028198242
40
0.0
41
0.0
42
0.0
10
69.4567031860352
20
77.3887023925781
40
0.0
41
0.0
42
0.0
10
69.4811019897461
20
77.4824981689453
40
0.0
41
0.0
42
0.0
10
69.4785995483398
20
77.6695022583008
40
0.0
41
0.0
42
0.0
10
69.4509963989258
20
78.0154037475586
40
0.0
41
0.0
42
0.0
10
69.4023971557617
20
78.1484985351562
40
0.0
41
0.0
42
0.0
10
69.2990036010742
20
78.5117034912109
40
0.0
41
0.0
42
0.0
10
69.0914993286133
20
78.8740005493164
40
0.0
41
0.0
42
0.0
10
69.0078964233398
20
79.0046997070312
40
0.0
41
0.0
42
0.0
10
68.9192962646484
20
79.0272979736328
40
0.0
41
0.0
42
0.0
10
68.5168991088867
20
79.1466979980469
40
0.0
41
0.0
42
0.0
10
68.4822006225586
20
79.146598815918
40
0.0
41
0.0
42
0.0
10
67.9869995117188
20
79.0392990112305
40
0.0
41
0.0
42
0.0
10
67.91259765625
20
79.0016021728516
40
0.0
41
0.0
42
0.0
10
67.8258972167969
20
78.948600769043
40
0.0
41
0.0
42
0.0
10
67.4936981201172
20
78.7181015014648
40
0.0
41
0.0
42
0.0
10
67.3450012207031
20
78.5634002685547
40
0.0
41
0.0
42
0.0
10
67.2827987670898
20
78.5074005126953
40
0.0
41
0.0
42
0.0
10
67.1285018920898
20
78.1457977294922
40
0.0
41
0.0
42
0.0
10
67.056396484375
20
78.0145034790039
40
0.0
41
0.0
42
0.0
10
67.0547027587891
20
77.6792984008789
40
0.0
41
0.0
42
0.0
10
67.0404968261719
20
77.5190963745117
40
0.0
41
0.0
42
0.0
10
67.0406036376953
20
77.4824981689453
40
0.0
41
0.0
42
0.0
10
67.0726013183594
20
77.3507995605469
40
0.0
41
0.0
42
0.0
10
67.1960983276367
20
76.9886016845703
40
0.0
41
0.0
42
0.0
210
0.0
220
0.0
230
1.0
0
LWPOLYLINE
5
25
330
1C
100
AcDbEntity
67
0
8
0
62
256
6
ByLayer
370
-1
48
1.0
60
0
100
AcDbPolyline
90
37
70
1
38
0.0
39
0.0
10
67.1164016723633
20
78.0841979980469
40
0.0
41
0.0
42
0.0
10
67.2906036376953
20
78.4925003051758
40
0.0
41
0.0
42
0.0
10
67.3394012451172
20
78.5363006591797
40
0.0
41
0.0
42
0.0
10
67.5063018798828
20
78.7098007202148
40
0.0
41
0.0
42
0.0
10
67.8140029907227
20
78.9235992431641
40
0.0
41
0.0
42
0.0
10
67.9360961914062
20
78.9982986450195
40
0.0
41
0.0
42
0.0
10
68.0129013061523
20
79.0371017456055
40
0.0
41
0.0
42
0.0
10
68.4977035522461
20
79.1421966552734
40
0.0
41
0.0
42
0.0
10
68.8505020141602
20
79.0376968383789
40
0.0
41
0.0
42
0.0
10
68.9929962158203
20
79.0010986328125
40
0.0
41
0.0
42
0.0
10
69.0654983520508
20
78.8899993896484
40
0.0
41
0.0
42
0.0
10
69.2956008911133
20
78.4880981445312
40
0.0
41
0.0
42
0.0
10
69.4113998413086
20
78.0813980102539
40
0.0
41
0.0
42
0.0
10
69.4468002319336
20
77.9844970703125
40
0.0
41
0.0
42
0.0
10
69.4665985107422
20
77.7350997924805
40
0.0
41
0.0
42
0.0
10
69.4703979492188
20
77.5149002075195
40
0.0
41
0.0
42
0.0
10
69.4433975219727
20
77.4169998168945
40
0.0
41
0.0
42
0.0
10
69.2188034057617
20
77.0066986083984
40
0.0
41
0.0
42
0.0
10
69.1289978027344
20
76.9263000488281
40
0.0
41
0.0
42
0.0
10
68.9922027587891
20
76.818000793457
40
0.0
41
0.0
42
0.0
10
68.4884033203125
20
76.4933013916016
40
0.0
41
0.0
42
0.0
10
68.3455963134766
20
76.4589996337891
40
0.0
41
0.0
42
0.0
10
68.0809020996094
20
76.3836975097656
40
0.0
41
0.0
42
0.0
10
68.0008010864258
20
76.3591995239258
40
0.0
41
0.0
42
0.0
10
67.9175033569336
20
76.3881988525391
40
0.0
41
0.0
42
0.0
10
67.7526016235352
20
76.4554977416992
40
0.0
41
0.0
42
0.0
10
67.629997253418
20
76.500602722168
40
0.0
41
0.0
42
0.0
10
67.5057983398438
20
76.5639038085938
40
0.0
41
0.0
42
0.0
10
67.4728012084961
20
76.6098022460938
40
0.0
41
0.0
42
0.0
10
67.2695007324219
20
76.9138031005859
40
0.0
41
0.0
42
0.0
10
67.2133026123047
20
77.0111999511719
40
0.0
41
0.0
42
0.0
10
67.0742034912109
20
77.4189987182617
40
0.0
41
0.0
42
0.0
10
67.0526962280273
20
77.507698059082
40
0.0
41
0.0
42
0.0
10
67.060302734375
20
77.5938034057617
40
0.0
41
0.0
42
0.0
10
67.0623016357422
20
77.9847030639648
40
0.0
41
0.0
42
0.0
10
67.067497253418
20
77.9956970214844
40
0.0
41
0.0
42
0.0
10
67.1164016723633
20
78.0841979980469
40
0.0
41
0.0
42
0.0
210
0.0
220
0.0
230
1.0
0
LWPOLYLINE
5
26
330
1C
100
AcDbEntity
67
0
8
0
62
256
6
ByLayer
370
-1
48
1.0
60
0
100
AcDbPolyline
90
40
70
1
38
0.0
39
0.0
10
67.0742034912109
20
71.9829025268555
40
0.0
41
0.0
42
0.0
10
67.1106033325195
20
71.8518981933594
40
0.0
41
0.0
42
0.0
10
67.2641983032227
20
71.49169921875
40
0.0
41
0.0
42
0.0
10
67.4117965698242
20
71.3383026123047
40
0.0
41
0.0
42
0.0
10
67.4951019287109
20
71.2343978881836
40
0.0
41
0.0
42
0.0
10
67.5280990600586
20
71.2059020996094
40
0.0
41
0.0
42
0.0
10
67.8274993896484
20
70.9979019165039
40
0.0
41
0.0
42
0.0
10
67.8904037475586
20
70.9657974243164
40
0.0
41
0.0
42
0.0
10
67.9882965087891
20
70.9089965820312
40
0.0
41
0.0
42
0.0
10
68.1202011108398
20
70.8695983886719
40
0.0
41
0.0
42
0.0
10
68.4822006225586
20
70.7913970947266
40
0.0
41
0.0
42
0.0
10
68.5188980102539
20
70.7913970947266
40
0.0
41
0.0
42
0.0
10
68.6509017944336
20
70.8040008544922
40
0.0
41
0.0
42
0.0
10
69.0090026855469
20
70.9101028442383
40
0.0
41
0.0
42
0.0
10
69.0942001342773
20
70.9929962158203
40
0.0
41
0.0
42
0.0
10
69.3015975952148
20
71.3551025390625
40
0.0
41
0.0
42
0.0
10
69.3478012084961
20
71.4437026977539
40
0.0
41
0.0
42
0.0
10
69.3643035888672
20
71.4866027832031
40
0.0
41
0.0
42
0.0
10
69.4560012817383
20
71.8088989257812
40
0.0
41
0.0
42
0.0
10
69.4982986450195
20
71.9824981689453
40
0.0
41
0.0
42
0.0
10
69.5
20
72.5136032104492
40
0.0
41
0.0
42
0.0
10
69.41259765625
20
72.6439971923828
40
0.0
41
0.0
42
0.0
10
69.2144012451172
20
73.006103515625
40
0.0
41
0.0
42
0.0
10
69.0964965820312
20
73.0994033813477
40
0.0
41
0.0
42
0.0
10
68.6442031860352
20
73.3905029296875
40
0.0
41
0.0
42
0.0
10
68.5127029418945
20
73.4618988037109
40
0.0
41
0.0
42
0.0
10
68.493896484375
20
73.4656982421875
40
0.0
41
0.0
42
0.0
10
68.3628005981445
20
73.5009002685547
40
0.0
41
0.0
42
0.0
10
68.1284027099609
20
73.5675964355469
40
0.0
41
0.0
42
0.0
10
68.0176010131836
20
73.5927963256836
40
0.0
41
0.0
42
0.0
10
67.9832992553711
20
73.5926971435547
40
0.0
41
0.0
42
0.0
10
67.7826995849609
20
73.5186004638672
40
0.0
41
0.0
42
0.0
10
67.7432022094727
20
73.5011978149414
40
0.0
41
0.0
42
0.0
10
67.6897964477539
20
73.4702987670898
40
0.0
41
0.0
42
0.0
10
67.4944000244141
20
73.3707962036133
40
0.0
41
0.0
42
0.0
10
67.2543029785156
20
73.0102996826172
40
0.0
41
0.0
42
0.0
10
67.2190017700195
20
72.9178009033203
40
0.0
41
0.0
42
0.0
10
67.0820007324219
20
72.5157012939453
40
0.0
41
0.0
42
0.0
10
67.0723037719727
20
72.3842010498047
40
0.0
41
0.0
42
0.0
10
67.0742034912109
20
71.9829025268555
40
0.0
41
0.0
42
0.0
210
0.0
220
0.0
230
1.0
0
LWPOLYLINE
5
27
330
1C
100
AcDbEntity
67
0
8
0
62
256
6
ByLayer
370
-1
48
1.0
60
0
100
AcDbPolyline
90
38
70
1
38
0.0
39
0.0
10
67.0727996826172
20
72.3780975341797
40
0.0
41
0.0
42
0.0
10
67.081298828125
20
72.4841995239258
40
0.0
41
0.0
42
0.0
10
67.2068023681641
20
72.8520965576172
40
0.0
41
0.0
42
0.0
10
67.2592010498047
20
72.9896011352539
40
0.0
41
0.0
42
0.0
10
67.505500793457
20
73.3601989746094
40
0.0
41
0.0
42
0.0
10
67.6900024414062
20
73.4542007446289
40
0.0
41
0.0
42
0.0
10
67.7670974731445
20
73.4987030029297
40
0.0
41
0.0
42
0.0
10
67.8242034912109
20
73.5240020751953
40
0.0
41
0.0
42
0.0
10
68.003303527832
20
73.5896987915039
40
0.0
41
0.0
42
0.0
10
68.0652008056641
20
73.5756988525391
40
0.0
41
0.0
42
0.0
10
68.3309020996094
20
73.5001983642578
40
0.0
41
0.0
42
0.0
10
68.4877014160156
20
73.459098815918
40
0.0
41
0.0
42
0.0
10
68.5856018066406
20
73.4058990478516
40
0.0
41
0.0
42
0.0
10
69.0544967651367
20
73.1041030883789
40
0.0
41
0.0
42
0.0
10
69.1941986083984
20
72.9936981201172
40
0.0
41
0.0
42
0.0
10
69.4175033569336
20
72.5858001708984
40
0.0
41
0.0
42
0.0
10
69.484001159668
20
72.4865036010742
40
0.0
41
0.0
42
0.0
10
69.4830017089844
20
72.1710968017578
40
0.0
41
0.0
42
0.0
10
69.4804992675781
20
72.0173034667969
40
0.0
41
0.0
42
0.0
10
69.4496002197266
20
71.8905029296875
40
0.0
41
0.0
42
0.0
10
69.3423004150391
20
71.513298034668
40
0.0
41
0.0
42
0.0
10
69.3293991088867
20
71.4796981811523
40
0.0
41
0.0
42
0.0
10
69.2957000732422
20
71.4149017333984
40
0.0
41
0.0
42
0.0
10
69.0619964599609
20
71.0070037841797
40
0.0
41
0.0
42
0.0
10
68.9908981323242
20
70.9375991821289
40
0.0
41
0.0
42
0.0
10
68.5790023803711
20
70.8154983520508
40
0.0
41
0.0
42
0.0
10
68.5064010620117
20
70.8085021972656
40
0.0
41
0.0
42
0.0
10
68.1097030639648
20
70.894401550293
40
0.0
41
0.0
42
0.0
10
68.0114974975586
20
70.9237976074219
40
0.0
41
0.0
42
0.0
10
67.939697265625
20
70.9654006958008
40
0.0
41
0.0
42
0.0
10
67.8684997558594
20
71.0018005371094
40
0.0
41
0.0
42
0.0
10
67.5318984985352
20
71.2357025146484
40
0.0
41
0.0
42
0.0
10
67.5047988891602
20
71.2591018676758
40
0.0
41
0.0
42
0.0
10
67.4449996948242
20
71.3333969116211
40
0.0
41
0.0
42
0.0
10
67.277099609375
20
71.5081024169922
40
0.0
41
0.0
42
0.0
10
67.1022033691406
20
71.9179992675781
40
0.0
41
0.0
42
0.0
10
67.0747985839844
20
72.0169982910156
40
0.0
41
0.0
42
0.0
10
67.0727996826172
20
72.3780975341797
40
0.0
41
0.0
42
0.0
210
0.0
220
0.0
230
1.0
0
LWPOLYLINE
5
28
330
1C
100
AcDbEntity
67
0
8
0
62
256
6
ByLayer
370
-1
48
1.0
60
0
100
AcDbPolyline
90
33
70
1
38
0.0
39
0.0
10
68.4857025146484
20
84.8656997680664
40
0.0
41
0.0
42
0.0
10
68.6176986694336
20
84.8553009033203
40
0.0
41
0.0
42
0.0
10
68.9819030761719
20
84.7862014770508
40
0.0
41
0.0
42
0.0
10
69.019401550293
20
84.7862014770508
40
0.0
41
0.0
42
0.0
10
69.1458969116211
20
84.7929000854492
40
0.0
41
0.0
42
0.0
10
69.5186004638672
20
84.7881011962891
40
0.0
41
0.0
42
0.0
10
69.6524963378906
20
84.8072967529297
40
0.0
41
0.0
42
0.0
10
70.0161972045898
20
84.8394012451172
40
0.0
41
0.0
42
0.0
10
70.1500015258789
20
84.8760986328125
40
0.0
41
0.0
42
0.0
10
70.5140991210938
20
84.9529037475586
40
0.0
41
0.0
42
0.0
10
70.5554962158203
20
84.9684982299805
40
0.0
41
0.0
42
0.0
10
70.6074981689453
20
84.9932022094727
40
0.0
41
0.0
42
0.0
10
70.6074981689453
20
84.9990005493164
40
0.0
41
0.0
42
0.0
10
70.5787963867188
20
84.9989013671875
40
0.0
41
0.0
42
0.0
10
70.5367965698242
20
84.9788970947266
40
0.0
41
0.0
42
0.0
10
70.4858016967773
20
84.9598999023438
40
0.0
41
0.0
42
0.0
10
70.0799026489258
20
84.8741989135742
40
0.0
41
0.0
42
0.0
10
69.9837036132812
20
84.8477020263672
40
0.0
41
0.0
42
0.0
10
69.5774002075195
20
84.8119964599609
40
0.0
41
0.0
42
0.0
10
69.4849014282227
20
84.798698425293
40
0.0
41
0.0
42
0.0
10
69.1147994995117
20
84.8041000366211
40
0.0
41
0.0
42
0.0
10
69.0755004882812
20
84.8040008544922
40
0.0
41
0.0
42
0.0
10
69.0099029541016
20
84.8005981445312
40
0.0
41
0.0
42
0.0
10
68.6121978759766
20
84.8758010864258
40
0.0
41
0.0
42
0.0
10
68.5141983032227
20
84.8835983276367
40
0.0
41
0.0
42
0.0
10
68.4135971069336
20
84.9343032836914
40
0.0
41
0.0
42
0.0
10
68.3964996337891
20
84.9476013183594
40
0.0
41
0.0
42
0.0
10
68.298698425293
20
84.9990005493164
40
0.0
41
0.0
42
0.0
10
68.2505035400391
20
84.9990005493164
40
0.0
41
0.0
42
0.0
10
68.2503967285156
20
84.9925994873047
40
0.0
41
0.0
42
0.0
10
68.3323974609375
20
84.9496994018555
40
0.0
41
0.0
42
0.0
10
68.3563003540039
20
84.9308013916016
40
0.0
41
0.0
42
0.0
10
68.4857025146484
20
84.8656997680664
40
0.0
41
0.0
42
0.0
210
0.0
220
0.0
230
1.0
0
LWPOLYLINE
5
29
330
1C
100
AcDbEntity
67
0
8
0
62
256
6
ByLayer
370
-1
48
1.0
60
0
100
AcDbPolyline
90
28
70
1
38
0.0
39
0.0
10
68.4051971435547
20
65.0009994506836
40
0.0
41
0.0
42
0.0
10
68.4352035522461
20
65.0009994506836
40
0.0
41
0.0
42
0.0
10
68.5122985839844
20
65.0411987304688
40
0.0
41
0.0
42
0.0
10
68.6502990722656
20
65.0773010253906
40
0.0
41
0.0
42
0.0
10
69.0173034667969
20
65.1468963623047
40
0.0
41
0.0
42
0.0
10
69.1540985107422
20
65.1557998657227
40
0.0
41
0.0
42
0.0
10
69.4925003051758
20
65.1606979370117
40
0.0
41
0.0
42
0.0
10
69.6162033081055
20
65.1567993164062
40
0.0
41
0.0
42
0.0
10
69.9822006225586
20
65.1244964599609
40
0.0
41
0.0
42
0.0
10
70.0941009521484
20
65.1097030639648
40
0.0
41
0.0
42
0.0
10
70.4849014282227
20
65.027099609375
40
0.0
41
0.0
42
0.0
10
70.5184020996094
20
65.0177993774414
40
0.0
41
0.0
42
0.0
10
70.5643997192383
20
65.0009994506836
40
0.0
41
0.0
42
0.0
10
70.5884017944336
20
65.0009994506836
40
0.0
41
0.0
42
0.0
10
70.5883026123047
20
65.0053024291992
40
0.0
41
0.0
42
0.0
10
70.5590972900391
20
65.0161972045898
40
0.0
41
0.0
42
0.0
10
70.5149993896484
20
65.0282974243164
40
0.0
41
0.0
42
0.0
10
70.1511001586914
20
65.1051025390625
40
0.0
41
0.0
42
0.0
10
70.1119003295898
20
65.1115036010742
40
0.0
41
0.0
42
0.0
10
70.0176010131836
20
65.1239013671875
40
0.0
41
0.0
42
0.0
10
69.6138000488281
20
65.1596984863281
40
0.0
41
0.0
42
0.0
10
69.4798965454102
20
65.16259765625
40
0.0
41
0.0
42
0.0
10
69.075798034668
20
65.1567993164062
40
0.0
41
0.0
42
0.0
10
68.9825973510742
20
65.1505966186523
40
0.0
41
0.0
42
0.0
10
68.5795974731445
20
65.0743026733398
40
0.0
41
0.0
42
0.0
10
68.4876022338867
20
65.0502014160156
40
0.0
41
0.0
42
0.0
10
68.4051971435547
20
65.0072021484375
40
0.0
41
0.0
42
0.0
10
68.4051971435547
20
65.0009994506836
40
0.0
41
0.0
42
0.0
210
0.0
220
0.0
230
1.0
0
LWPOLYLINE
5
2A
330
1C
100
AcDbEntity
67
0
8
0
62
256
6
ByLayer
370
-1
48
1.0
60
0
100
AcDbPolyline
90
78
70
1
38
0.0
39
0.0
10
70.9101028442383
20
80.9907989501953
40
0.0
41
0.0
42
0.0
10
70.9928970336914
20
80.9056015014648
40
0.0
41
0.0
42
0.0
10
71.3566970825195
20
80.6973037719727
40
0.0
41
0.0
42
0.0
10
71.4437026977539
20
80.6519012451172
40
0.0
41
0.0
42
0.0
10
71.4866027832031
20
80.6353988647461
40
0.0
41
0.0
42
0.0
10
71.8088989257812
20
80.543701171875
40
0.0
41
0.0
42
0.0
10
71.9824981689453
20
80.5014038085938
40
0.0
41
0.0
42
0.0
10
72.5136032104492
20
80.4997024536133
40
0.0
41
0.0
42
0.0
10
72.6439971923828
20
80.5870971679688
40
0.0
41
0.0
42
0.0
10
73.006103515625
20
80.7853012084961
40
0.0
41
0.0
42
0.0
10
73.0994033813477
20
80.9032974243164
40
0.0
41
0.0
42
0.0
10
73.3905029296875
20
81.3556976318359
40
0.0
41
0.0
42
0.0
10
73.4619979858398
20
81.4871978759766
40
0.0
41
0.0
42
0.0
10
73.4656982421875
20
81.5058975219727
40
0.0
41
0.0
42
0.0
10
73.5009002685547
20
81.6369018554688
40
0.0
41
0.0
42
0.0
10
73.5675964355469
20
81.8713989257812
40
0.0
41
0.0
42
0.0
10
73.592903137207
20
81.9822998046875
40
0.0
41
0.0
42
0.0
10
73.5926971435547
20
82.0161972045898
40
0.0
41
0.0
42
0.0
10
73.5186004638672
20
82.2171020507812
40
0.0
41
0.0
42
0.0
10
73.5011978149414
20
82.2565994262695
40
0.0
41
0.0
42
0.0
10
73.4702987670898
20
82.3099975585938
40
0.0
41
0.0
42
0.0
10
73.3706970214844
20
82.505500793457
40
0.0
41
0.0
42
0.0
10
73.0105972290039
20
82.7452011108398
40
0.0
41
0.0
42
0.0
10
72.6078033447266
20
82.8824996948242
40
0.0
41
0.0
42
0.0
10
72.5160980224609
20
82.9175033569336
40
0.0
41
0.0
42
0.0
10
72.4871978759766
20
82.9172973632812
40
0.0
41
0.0
42
0.0
10
72.6221008300781
20
82.8658981323242
40
0.0
41
0.0
42
0.0
10
72.9893035888672
20
82.7406997680664
40
0.0
41
0.0
42
0.0
10
73.3600997924805
20
82.4944000244141
40
0.0
41
0.0
42
0.0
10
73.4542007446289
20
82.3097991943359
40
0.0
41
0.0
42
0.0
10
73.4985961914062
20
82.2326965332031
40
0.0
41
0.0
42
0.0
10
73.5240020751953
20
82.1755981445312
40
0.0
41
0.0
42
0.0
10
73.5896987915039
20
81.996696472168
40
0.0
41
0.0
42
0.0
10
73.5756988525391
20
81.9346008300781
40
0.0
41
0.0
42
0.0
10
73.5001983642578
20
81.6688995361328
40
0.0
41
0.0
42
0.0
10
73.459098815918
20
81.5121994018555
40
0.0
41
0.0
42
0.0
10
73.4058990478516
20
81.4142990112305
40
0.0
41
0.0
42
0.0
10
73.1041030883789
20
80.945198059082
40
0.0
41
0.0
42
0.0
10
72.9937973022461
20
80.8056030273438
40
0.0
41
0.0
42
0.0
10
72.5858001708984
20
80.5821990966797
40
0.0
41
0.0
42
0.0
10
72.4865036010742
20
80.5157012939453
40
0.0
41
0.0
42
0.0
10
72.1710968017578
20
80.5167007446289
40
0.0
41
0.0
42
0.0
10
72.0171966552734
20
80.5192031860352
40
0.0
41
0.0
42
0.0
10
71.8905029296875
20
80.5501022338867
40
0.0
41
0.0
42
0.0
10
71.513298034668
20
80.6574020385742
40
0.0
41
0.0
42
0.0
10
71.4796981811523
20
80.6703033447266
40
0.0
41
0.0
42
0.0
10
71.4148025512695
20
80.7040023803711
40
0.0
41
0.0
42
0.0
10
71.0068969726562
20
80.9376983642578
40
0.0
41
0.0
42
0.0
10
70.9375991821289
20
81.0090026855469
40
0.0
41
0.0
42
0.0
10
70.8154983520508
20
81.4208984375
40
0.0
41
0.0
42
0.0
10
70.8086013793945
20
81.4934997558594
40
0.0
41
0.0
42
0.0
10
70.894401550293
20
81.8901977539062
40
0.0
41
0.0
42
0.0
10
70.9237976074219
20
81.9884033203125
40
0.0
41
0.0
42
0.0
10
70.9654998779297
20
82.0599975585938
40
0.0
41
0.0
42
0.0
10
71.0018997192383
20
82.1313018798828
40
0.0
41
0.0
42
0.0
10
71.2357025146484
20
82.4677963256836
40
0.0
41
0.0
42
0.0
10
71.2591018676758
20
82.4951019287109
40
0.0
41
0.0
42
0.0
10
71.3335037231445
20
82.5547027587891
40
0.0
41
0.0
42
0.0
10
71.5092010498047
20
82.7237014770508
40
0.0
41
0.0
42
0.0
10
71.6080017089844
20
82.7510986328125
40
0.0
41
0.0
42
0.0
10
72.0102005004883
20
82.9225997924805
40
0.0
41
0.0
42
0.0
10
72.0759963989258
20
82.9173965454102
40
0.0
41
0.0
42
0.0
10
72.128303527832
20
82.9168014526367
40
0.0
41
0.0
42
0.0
10
72.0190963745117
20
82.9255981445312
40
0.0
41
0.0
42
0.0
10
71.9842987060547
20
82.9254989624023
40
0.0
41
0.0
42
0.0
10
71.6219024658203
20
82.7708969116211
40
0.0
41
0.0
42
0.0
10
71.4906997680664
20
82.7344970703125
40
0.0
41
0.0
42
0.0
10
71.3383026123047
20
82.5879974365234
40
0.0
41
0.0
42
0.0
10
71.2344970703125
20
82.5046997070312
40
0.0
41
0.0
42
0.0
10
71.2060012817383
20
82.4717025756836
40
0.0
41
0.0
42
0.0
10
70.9979019165039
20
82.1723022460938
40
0.0
41
0.0
42
0.0
10
70.9658966064453
20
82.1094970703125
40
0.0
41
0.0
42
0.0
10
70.9091033935547
20
82.0115966796875
40
0.0
41
0.0
42
0.0
10
70.8695983886719
20
81.8796997070312
40
0.0
41
0.0
42
0.0
10
70.7913970947266
20
81.5177001953125
40
0.0
41
0.0
42
0.0
10
70.7912979125977
20
81.4810028076172
40
0.0
41
0.0
42
0.0
10
70.8040008544922
20
81.3489990234375
40
0.0
41
0.0
42
0.0
10
70.9101028442383
20
80.9907989501953
40
0.0
41
0.0
42
0.0
210
0.0
220
0.0
230
1.0
0
LWPOLYLINE
5
2B
330
1C
100
AcDbEntity
67
0
8
0
62
256
6
ByLayer
370
-1
48
1.0
60
0
100
AcDbPolyline
90
42
70
1
38
0.0
39
0.0
10
70.9605026245117
20
67.9869995117188
40
0.0
41
0.0
42
0.0
10
70.9988021850586
20
67.9116973876953
40
0.0
41
0.0
42
0.0
10
71.0512008666992
20
67.8258972167969
40
0.0
41
0.0
42
0.0
10
71.2817001342773
20
67.4936981201172
40
0.0
41
0.0
42
0.0
10
71.4363021850586
20
67.3449020385742
40
0.0
41
0.0
42
0.0
10
71.4924011230469
20
67.2826995849609
40
0.0
41
0.0
42
0.0
10
71.8541030883789
20
67.1284027099609
40
0.0
41
0.0
42
0.0
10
71.9853973388672
20
67.056396484375
40
0.0
41
0.0
42
0.0
10
72.3205032348633
20
67.0547027587891
40
0.0
41
0.0
42
0.0
10
72.4807968139648
20
67.0404968261719
40
0.0
41
0.0
42
0.0
10
72.5174026489258
20
67.0406036376953
40
0.0
41
0.0
42
0.0
10
72.6491012573242
20
67.0727005004883
40
0.0
41
0.0
42
0.0
10
73.0112991333008
20
67.1960983276367
40
0.0
41
0.0
42
0.0
10
73.1438980102539
20
67.2725982666016
40
0.0
41
0.0
42
0.0
10
73.4160995483398
20
67.4546966552734
40
0.0
41
0.0
42
0.0
10
73.4704971313477
20
67.4941024780273
40
0.0
41
0.0
42
0.0
10
73.500602722168
20
67.5530014038086
40
0.0
41
0.0
42
0.0
10
73.5246963500977
20
67.6184997558594
40
0.0
41
0.0
42
0.0
10
73.6197967529297
20
67.8517990112305
40
0.0
41
0.0
42
0.0
10
73.6660003662109
20
67.9834976196289
40
0.0
41
0.0
42
0.0
10
73.665901184082
20
68.0167999267578
40
0.0
41
0.0
42
0.0
10
73.6253967285156
20
68.1490020751953
40
0.0
41
0.0
42
0.0
10
73.5570983886719
20
68.3887023925781
40
0.0
41
0.0
42
0.0
10
73.5274963378906
20
68.5120010375977
40
0.0
41
0.0
42
0.0
10
73.5020980834961
20
68.5557022094727
40
0.0
41
0.0
42
0.0
10
73.4437026977539
20
68.6434020996094
40
0.0
41
0.0
42
0.0
10
73.209602355957
20
69.007698059082
40
0.0
41
0.0
42
0.0
10
73.113899230957
20
69.1285018920898
40
0.0
41
0.0
42
0.0
10
73.0065994262695
20
69.2484970092773
40
0.0
41
0.0
42
0.0
10
72.6466979980469
20
69.4457015991211
40
0.0
41
0.0
42
0.0
10
72.6110992431641
20
69.4567031860352
40
0.0
41
0.0
42
0.0
10
72.5174026489258
20
69.4811019897461
40
0.0
41
0.0
42
0.0
10
72.3302993774414
20
69.4785995483398
40
0.0
41
0.0
42
0.0
10
71.9844970703125
20
69.4511032104492
40
0.0
41
0.0
42
0.0
10
71.8514022827148
20
69.4024963378906
40
0.0
41
0.0
42
0.0
10
71.4881973266602
20
69.2990036010742
40
0.0
41
0.0
42
0.0
10
71.1259002685547
20
69.0915985107422
40
0.0
41
0.0
42
0.0
10
70.9946975708008
20
69.0067977905273
40
0.0
41
0.0
42
0.0
10
70.9723968505859
20
68.9194030761719
40
0.0
41
0.0
42
0.0
10
70.8532028198242
20
68.5168991088867
40
0.0
41
0.0
42
0.0
10
70.8531036376953
20
68.4834976196289
40
0.0
41
0.0
42
0.0
10
70.9605026245117
20
67.9869995117188
40
0.0
41
0.0
42
0.0
210
0.0
220
0.0
230
1.0
0
LWPOLYLINE
5
2C
330
1C
100
AcDbEntity
67
0
8
0
62
256
6
ByLayer
370
-1
48
1.0
60
0
100
AcDbPolyline
90
37
70
1
38
0.0
39
0.0
10
70.8574981689453
20
68.4977035522461
40
0.0
41
0.0
42
0.0
10
70.9620971679688
20
68.8506011962891
40
0.0
41
0.0
42
0.0
10
70.9977035522461
20
68.9893035888672
40
0.0
41
0.0
42
0.0
10
71.0063018798828
20
68.9988021850586
40
0.0
41
0.0
42
0.0
10
71.1099014282227
20
69.0655975341797
40
0.0
41
0.0
42
0.0
10
71.5118026733398
20
69.2957000732422
40
0.0
41
0.0
42
0.0
10
71.9185028076172
20
69.4113998413086
40
0.0
41
0.0
42
0.0
10
72.0154037475586
20
69.4468002319336
40
0.0
41
0.0
42
0.0
10
72.2647018432617
20
69.4665985107422
40
0.0
41
0.0
42
0.0
10
72.4850006103516
20
69.4702987670898
40
0.0
41
0.0
42
0.0
10
72.5829010009766
20
69.4433975219727
40
0.0
41
0.0
42
0.0
10
72.9932022094727
20
69.2186965942383
40
0.0
41
0.0
42
0.0
10
73.0735015869141
20
69.1288986206055
40
0.0
41
0.0
42
0.0
10
73.1817016601562
20
68.9921035766602
40
0.0
41
0.0
42
0.0
10
73.5064010620117
20
68.4882965087891
40
0.0
41
0.0
42
0.0
10
73.5407028198242
20
68.3455963134766
40
0.0
41
0.0
42
0.0
10
73.6159973144531
20
68.0809020996094
40
0.0
41
0.0
42
0.0
10
73.6405029296875
20
68.0008010864258
40
0.0
41
0.0
42
0.0
10
73.6115036010742
20
67.9175033569336
40
0.0
41
0.0
42
0.0
10
73.5441970825195
20
67.7527008056641
40
0.0
41
0.0
42
0.0
10
73.4991989135742
20
67.629997253418
40
0.0
41
0.0
42
0.0
10
73.4358978271484
20
67.5058975219727
40
0.0
41
0.0
42
0.0
10
73.3899993896484
20
67.4728012084961
40
0.0
41
0.0
42
0.0
10
73.0859985351562
20
67.2695007324219
40
0.0
41
0.0
42
0.0
10
72.9887008666992
20
67.2133026123047
40
0.0
41
0.0
42
0.0
10
72.5809020996094
20
67.0742034912109
40
0.0
41
0.0
42
0.0
10
72.4922027587891
20
67.0525970458984
40
0.0
41
0.0
42
0.0
10
72.4060974121094
20
67.060302734375
40
0.0
41
0.0
42
0.0
10
72.0145034790039
20
67.0623016357422
40
0.0
41
0.0
42
0.0
10
71.9157028198242
20
67.1163024902344
40
0.0
41
0.0
42
0.0
10
71.5074005126953
20
67.2906036376953
40
0.0
41
0.0
42
0.0
10
71.4635009765625
20
67.3394012451172
40
0.0
41
0.0
42
0.0
10
71.2901000976562
20
67.5062026977539
40
0.0
41
0.0
42
0.0
10
71.0762023925781
20
67.8139038085938
40
0.0
41
0.0
42
0.0
10
71.0015029907227
20
67.9360961914062
40
0.0
41
0.0
42
0.0
10
70.9626007080078
20
68.0128021240234
40
0.0
41
0.0
42
0.0
10
70.8574981689453
20
68.4977035522461
40
0.0
41
0.0
42
0.0
210
0.0
220
0.0
230
1.0
0
LWPOLYLINE
5
2D
330
1C
100
AcDbEntity
67
0
8
0
62
256
6
ByLayer
370
-1
48
1.0
60
0
100
AcDbPolyline
90
58
70
1
38
0.0
39
0.0
10
71.8535003662109
20
73.3842010498047
40
0.0
41
0.0
42
0.0
10
71.9839019775391
20
73.3342971801758
40
0.0
41
0.0
42
0.0
10
72.1547012329102
20
73.3324966430664
40
0.0
41
0.0
42
0.0
10
72.5188980102539
20
73.344596862793
40
0.0
41
0.0
42
0.0
10
72.6494979858398
20
73.3539962768555
40
0.0
41
0.0
42
0.0
10
72.7559967041016
20
73.404899597168
40
0.0
41
0.0
42
0.0
10
72.9148025512695
20
73.4983978271484
40
0.0
41
0.0
42
0.0
10
73.0080032348633
20
73.5445022583008
40
0.0
41
0.0
42
0.0
10
73.1063003540039
20
73.6327972412109
40
0.0
41
0.0
42
0.0
10
73.258903503418
20
73.7481994628906
40
0.0
41
0.0
42
0.0
10
73.5062026977539
20
73.9184036254883
40
0.0
41
0.0
42
0.0
10
73.5780029296875
20
73.9947967529297
40
0.0
41
0.0
42
0.0
10
73.9999008178711
20
74.3926010131836
40
0.0
41
0.0
42
0.0
10
74.3988037109375
20
73.9997024536133
40
0.0
41
0.0
42
0.0
10
73.9949035644531
20
73.5543975830078
40
0.0
41
0.0
42
0.0
10
73.9441986083984
20
73.5070037841797
40
0.0
41
0.0
42
0.0
10
73.8858032226562
20
73.396598815918
40
0.0
41
0.0
42
0.0
10
73.5756988525391
20
73.0086975097656
40
0.0
41
0.0
42
0.0
10
73.4651031494141
20
72.7826995849609
40
0.0
41
0.0
42
0.0
10
73.3696975708008
20
72.6483001708984
40
0.0
41
0.0
42
0.0
10
73.3696975708008
20
72.4804000854492
40
0.0
41
0.0
42
0.0
10
73.3748016357422
20
72.3623962402344
40
0.0
41
0.0
42
0.0
10
73.3635025024414
20
72.0195999145508
40
0.0
41
0.0
42
0.0
10
73.3634033203125
20
71.9830017089844
40
0.0
41
0.0
42
0.0
10
73.4028015136719
20
71.8516006469727
40
0.0
41
0.0
42
0.0
10
73.4672012329102
20
71.676399230957
40
0.0
41
0.0
42
0.0
10
73.4933013916016
20
71.6221008300781
40
0.0
41
0.0
42
0.0
10
73.7163009643555
20
71.6138000488281
40
0.0
41
0.0
42
0.0
10
73.7547988891602
20
71.6138000488281
40
0.0
41
0.0
42
0.0
10
74.0102005004883
20
71.6380004882812
40
0.0
41
0.0
42
0.0
10
74.0401000976562
20
71.6688003540039
40
0.0
41
0.0
42
0.0
10
74.1998977661133
20
71.8594970703125
40
0.0
41
0.0
42
0.0
10
74.2994995117188
20
71.9503021240234
40
0.0
41
0.0
42
0.0
10
74.3396987915039
20
71.9925003051758
40
0.0
41
0.0
42
0.0
10
74.500602722168
20
72.280403137207
40
0.0
41
0.0
42
0.0
10
74.6345977783203
20
72.4878997802734
40
0.0
41
0.0
42
0.0
10
74.7301025390625
20
72.9820022583008
40
0.0
41
0.0
42
0.0
10
74.7300033569336
20
73.0195999145508
40
0.0
41
0.0
42
0.0
10
74.7125015258789
20
73.5165023803711
40
0.0
41
0.0
42
0.0
10
74.568000793457
20
74.006103515625
40
0.0
41
0.0
42
0.0
10
74.5068969726562
20
74.0423965454102
40
0.0
41
0.0
42
0.0
10
74.0470962524414
20
74.5068969726562
40
0.0
41
0.0
42
0.0
10
74.0063018798828
20
74.5733032226562
40
0.0
41
0.0
42
0.0
10
73.5167007446289
20
74.7125015258789
40
0.0
41
0.0
42
0.0
10
73.0195999145508
20
74.7301025390625
40
0.0
41
0.0
42
0.0
10
72.9820022583008
20
74.7300033569336
40
0.0
41
0.0
42
0.0
10
72.4903030395508
20
74.6348037719727
40
0.0
41
0.0
42
0.0
10
72.3591995239258
20
74.5029983520508
40
0.0
41
0.0
42
0.0
10
71.9918975830078
20
74.2972030639648
40
0.0
41
0.0
42
0.0
10
71.8042984008789
20
74.1399993896484
40
0.0
41
0.0
42
0.0
10
71.6791000366211
20
74.0113983154297
40
0.0
41
0.0
42
0.0
10
71.6791000366211
20
73.9803009033203
40
0.0
41
0.0
42
0.0
10
71.6914978027344
20
73.6476974487305
40
0.0
41
0.0
42
0.0
10
71.6876983642578
20
73.63330078125
40
0.0
41
0.0
42
0.0
10
71.6129989624023
20
73.5139007568359
40
0.0
41
0.0
42
0.0
10
71.6128005981445
20
73.494499206543
40
0.0
41
0.0
42
0.0
10
71.7055969238281
20
73.4601974487305
40
0.0
41
0.0
42
0.0
10
71.8535003662109
20
73.3842010498047
40
0.0
41
0.0
42
0.0
210
0.0
220
0.0
230
1.0
0
LWPOLYLINE
5
2E
330
1C
100
AcDbEntity
67
0
8
0
62
256
6
ByLayer
370
-1
48
1.0
60
0
100
AcDbPolyline
90
59
70
1
38
0.0
39
0.0
10
71.6657028198242
20
75.9626998901367
40
0.0
41
0.0
42
0.0
10
71.8594970703125
20
75.7998962402344
40
0.0
41
0.0
42
0.0
10
71.9502029418945
20
75.7002029418945
40
0.0
41
0.0
42
0.0
10
71.9925003051758
20
75.6601028442383
40
0.0
41
0.0
42
0.0
10
72.2802963256836
20
75.4990997314453
40
0.0
41
0.0
42
0.0
10
72.4878997802734
20
75.3650970458984
40
0.0
41
0.0
42
0.0
10
72.9820022583008
20
75.2697982788086
40
0.0
41
0.0
42
0.0
10
73.0195999145508
20
75.2696990966797
40
0.0
41
0.0
42
0.0
10
73.5165023803711
20
75.2872009277344
40
0.0
41
0.0
42
0.0
10
73.7759017944336
20
75.3649978637695
40
0.0
41
0.0
42
0.0
10
74.006103515625
20
75.4318008422852
40
0.0
41
0.0
42
0.0
10
74.0426025390625
20
75.4932022094727
40
0.0
41
0.0
42
0.0
10
74.0813980102539
20
75.5300979614258
40
0.0
41
0.0
42
0.0
10
74.5068969726562
20
75.9525985717773
40
0.0
41
0.0
42
0.0
10
74.5730972290039
20
75.9934997558594
40
0.0
41
0.0
42
0.0
10
74.6179962158203
20
76.1614990234375
40
0.0
41
0.0
42
0.0
10
74.6746978759766
20
76.3505020141602
40
0.0
41
0.0
42
0.0
10
74.6913986206055
20
76.4128036499023
40
0.0
41
0.0
42
0.0
10
74.7125015258789
20
76.4833984375
40
0.0
41
0.0
42
0.0
10
74.7301025390625
20
76.9803009033203
40
0.0
41
0.0
42
0.0
10
74.7300033569336
20
77.0178985595703
40
0.0
41
0.0
42
0.0
10
74.6346969604492
20
77.5095977783203
40
0.0
41
0.0
42
0.0
10
74.5029983520508
20
77.6406021118164
40
0.0
41
0.0
42
0.0
10
74.2972030639648
20
78.0080032348633
40
0.0
41
0.0
42
0.0
10
74.1399993896484
20
78.1955032348633
40
0.0
41
0.0
42
0.0
10
74.0113983154297
20
78.3206024169922
40
0.0
41
0.0
42
0.0
10
73.9803009033203
20
78.3206024169922
40
0.0
41
0.0
42
0.0
10
73.6476974487305
20
78.3081970214844
40
0.0
41
0.0
42
0.0
10
73.63330078125
20
78.3119964599609
40
0.0
41
0.0
42
0.0
10
73.5139007568359
20
78.3869018554688
40
0.0
41
0.0
42
0.0
10
73.494499206543
20
78.3869018554688
40
0.0
41
0.0
42
0.0
10
73.4602966308594
20
78.2941970825195
40
0.0
41
0.0
42
0.0
10
73.3842010498047
20
78.1464004516602
40
0.0
41
0.0
42
0.0
10
73.3342971801758
20
78.015998840332
40
0.0
41
0.0
42
0.0
10
73.3324966430664
20
77.8451995849609
40
0.0
41
0.0
42
0.0
10
73.344596862793
20
77.4810028076172
40
0.0
41
0.0
42
0.0
10
73.3538970947266
20
77.3504028320312
40
0.0
41
0.0
42
0.0
10
73.4048004150391
20
77.2437973022461
40
0.0
41
0.0
42
0.0
10
73.4983978271484
20
77.0849990844727
40
0.0
41
0.0
42
0.0
10
73.5445022583008
20
76.9917984008789
40
0.0
41
0.0
42
0.0
10
73.6327972412109
20
76.8935012817383
40
0.0
41
0.0
42
0.0
10
73.7479019165039
20
76.741096496582
40
0.0
41
0.0
42
0.0
10
73.9133987426758
20
76.5009994506836
40
0.0
41
0.0
42
0.0
10
73.4975967407227
20
76.0606002807617
40
0.0
41
0.0
42
0.0
10
73.3962020874023
20
76.1141967773438
40
0.0
41
0.0
42
0.0
10
73.0085983276367
20
76.4240036010742
40
0.0
41
0.0
42
0.0
10
72.782600402832
20
76.5346984863281
40
0.0
41
0.0
42
0.0
10
72.6483001708984
20
76.629997253418
40
0.0
41
0.0
42
0.0
10
72.5195999145508
20
76.6300964355469
40
0.0
41
0.0
42
0.0
10
72.1546020507812
20
76.6423034667969
40
0.0
41
0.0
42
0.0
10
72.1154022216797
20
76.6421966552734
40
0.0
41
0.0
42
0.0
10
71.9834976196289
20
76.6363983154297
40
0.0
41
0.0
42
0.0
10
71.8516006469727
20
76.5970001220703
40
0.0
41
0.0
42
0.0
10
71.676399230957
20
76.5325012207031
40
0.0
41
0.0
42
0.0
10
71.6221008300781
20
76.5065002441406
40
0.0
41
0.0
42
0.0
10
71.6138000488281
20
76.2835006713867
40
0.0
41
0.0
42
0.0
10
71.6138000488281
20
76.245002746582
40
0.0
41
0.0
42
0.0
10
71.6380004882812
20
75.9896011352539
40
0.0
41
0.0
42
0.0
10
71.6657028198242
20
75.9626998901367
40
0.0
41
0.0
42
0.0
210
0.0
220
0.0
230
1.0
0
LWPOLYLINE
5
2F
330
1C
100
AcDbEntity
67
0
8
0
62
256
6
ByLayer
370
-1
48
1.0
60
0
100
AcDbPolyline
90
29
70
1
38
0.0
39
0.0
10
71.6640014648438
20
73.5017013549805
40
0.0
41
0.0
42
0.0
10
71.7093963623047
20
73.5740966796875
40
0.0
41
0.0
42
0.0
10
71.7104034423828
20
73.5776977539062
40
0.0
41
0.0
42
0.0
10
71.7102966308594
20
73.6146011352539
40
0.0
41
0.0
42
0.0
10
71.696403503418
20
73.9896011352539
40
0.0
41
0.0
42
0.0
10
71.7944030761719
20
74.0903015136719
40
0.0
41
0.0
42
0.0
10
72.0080032348633
20
74.2693023681641
40
0.0
41
0.0
42
0.0
10
72.4138031005859
20
74.4968032836914
40
0.0
41
0.0
42
0.0
10
72.5095977783203
20
74.592903137207
40
0.0
41
0.0
42
0.0
10
73.0119018554688
20
74.6903991699219
40
0.0
41
0.0
42
0.0
10
73.4832000732422
20
74.6738967895508
40
0.0
41
0.0
42
0.0
10
73.9933013916016
20
74.5289001464844
40
0.0
41
0.0
42
0.0
10
74.0386962890625
20
74.4583969116211
40
0.0
41
0.0
42
0.0
10
74.0378036499023
20
74.4567031860352
40
0.0
41
0.0
42
0.0
10
73.9882965087891
20
74.4564971923828
40
0.0
41
0.0
42
0.0
10
73.5096969604492
20
74.0050964355469
40
0.0
41
0.0
42
0.0
10
73.4936981201172
20
73.9879989624023
40
0.0
41
0.0
42
0.0
10
73.4412002563477
20
73.9518966674805
40
0.0
41
0.0
42
0.0
10
73.1716003417969
20
73.7480010986328
40
0.0
41
0.0
42
0.0
10
72.9918975830078
20
73.5864028930664
40
0.0
41
0.0
42
0.0
10
72.8197021484375
20
73.5015029907227
40
0.0
41
0.0
42
0.0
10
72.7078018188477
20
73.4355010986328
40
0.0
41
0.0
42
0.0
10
72.5803985595703
20
73.374397277832
40
0.0
41
0.0
42
0.0
10
72.4810028076172
20
73.3675003051758
40
0.0
41
0.0
42
0.0
10
72.0870971679688
20
73.3543014526367
40
0.0
41
0.0
42
0.0
10
72.0158996582031
20
73.3552017211914
40
0.0
41
0.0
42
0.0
10
71.9163970947266
20
73.3934020996094
40
0.0
41
0.0
42
0.0
10
71.8141021728516
20
73.4458999633789
40
0.0
41
0.0
42
0.0
10
71.6640014648438
20
73.5017013549805
40
0.0
41
0.0
42
0.0
210
0.0
220
0.0
230
1.0
0
LWPOLYLINE
5
30
330
1C
100
AcDbEntity
67
0
8
0
62
256
6
ByLayer
370
-1
48
1.0
60
0
100
AcDbPolyline
90
28
70
1
38
0.0
39
0.0
10
71.6503982543945
20
76.1937026977539
40
0.0
41
0.0
42
0.0
10
71.6615982055664
20
76.4934005737305
40
0.0
41
0.0
42
0.0
10
71.720703125
20
76.5216979980469
40
0.0
41
0.0
42
0.0
10
71.9156036376953
20
76.5936965942383
40
0.0
41
0.0
42
0.0
10
72.0164031982422
20
76.6238021850586
40
0.0
41
0.0
42
0.0
10
72.0975036621094
20
76.6275024414062
40
0.0
41
0.0
42
0.0
10
72.4803009033203
20
76.6147994995117
40
0.0
41
0.0
42
0.0
10
72.5815963745117
20
76.6147003173828
40
0.0
41
0.0
42
0.0
10
72.6829986572266
20
76.5427017211914
40
0.0
41
0.0
42
0.0
10
72.9913024902344
20
76.3918991088867
40
0.0
41
0.0
42
0.0
10
73.4554977416992
20
76.0207977294922
40
0.0
41
0.0
42
0.0
10
73.4862976074219
20
75.9931030273438
40
0.0
41
0.0
42
0.0
10
73.4963989257812
20
75.9744033813477
40
0.0
41
0.0
42
0.0
10
73.6104965209961
20
75.8787994384766
40
0.0
41
0.0
42
0.0
10
73.9880981445312
20
75.5364990234375
40
0.0
41
0.0
42
0.0
10
74.0290985107422
20
75.5363998413086
40
0.0
41
0.0
42
0.0
10
73.9937973022461
20
75.4763031005859
40
0.0
41
0.0
42
0.0
10
73.7469024658203
20
75.4047012329102
40
0.0
41
0.0
42
0.0
10
73.4833984375
20
75.3256988525391
40
0.0
41
0.0
42
0.0
10
73.0121994018555
20
75.3090972900391
40
0.0
41
0.0
42
0.0
10
72.5119018554688
20
75.4057006835938
40
0.0
41
0.0
42
0.0
10
72.3610000610352
20
75.5034027099609
40
0.0
41
0.0
42
0.0
10
72.0074005126953
20
75.7011032104492
40
0.0
41
0.0
42
0.0
10
71.9733963012695
20
75.7332992553711
40
0.0
41
0.0
42
0.0
10
71.910400390625
20
75.8028030395508
40
0.0
41
0.0
42
0.0
10
71.6996994018555
20
75.9791030883789
40
0.0
41
0.0
42
0.0
10
71.6677017211914
20
76.0102005004883
40
0.0
41
0.0
42
0.0
10
71.6503982543945
20
76.1937026977539
40
0.0
41
0.0
42
0.0
210
0.0
220
0.0
230
1.0
0
LWPOLYLINE
5
31
330
1C
100
AcDbEntity
67
0
8
0
62
256
6
ByLayer
370
-1
48
1.0
60
0
100
AcDbPolyline
90
32
70
1
38
0.0
39
0.0
10
73.3934020996094
20
78.0836029052734
40
0.0
41
0.0
42
0.0
10
73.4468002319336
20
78.1874008178711
40
0.0
41
0.0
42
0.0
10
73.5017013549805
20
78.3357009887695
40
0.0
41
0.0
42
0.0
10
73.5740966796875
20
78.2902984619141
40
0.0
41
0.0
42
0.0
10
73.5776977539062
20
78.2894973754883
40
0.0
41
0.0
42
0.0
10
73.6146011352539
20
78.2893981933594
40
0.0
41
0.0
42
0.0
10
73.9896011352539
20
78.3032989501953
40
0.0
41
0.0
42
0.0
10
74.0903015136719
20
78.2053985595703
40
0.0
41
0.0
42
0.0
10
74.2693023681641
20
77.9918975830078
40
0.0
41
0.0
42
0.0
10
74.4968032836914
20
77.5858993530273
40
0.0
41
0.0
42
0.0
10
74.592903137207
20
77.4903030395508
40
0.0
41
0.0
42
0.0
10
74.6903991699219
20
76.9879989624023
40
0.0
41
0.0
42
0.0
10
74.6741027832031
20
76.5167007446289
40
0.0
41
0.0
42
0.0
10
74.6463012695312
20
76.4190979003906
40
0.0
41
0.0
42
0.0
10
74.5836029052734
20
76.2106018066406
40
0.0
41
0.0
42
0.0
10
74.529296875
20
76.0068969726562
40
0.0
41
0.0
42
0.0
10
74.4585037231445
20
75.9611968994141
40
0.0
41
0.0
42
0.0
10
74.4565963745117
20
75.9621963500977
40
0.0
41
0.0
42
0.0
10
74.4564971923828
20
76.0115966796875
40
0.0
41
0.0
42
0.0
10
74.0109024047852
20
76.484001159668
40
0.0
41
0.0
42
0.0
10
73.9828033447266
20
76.4839019775391
40
0.0
41
0.0
42
0.0
10
73.9830017089844
20
76.5134963989258
40
0.0
41
0.0
42
0.0
10
73.9518966674805
20
76.5585021972656
40
0.0
41
0.0
42
0.0
10
73.7480010986328
20
76.8281021118164
40
0.0
41
0.0
42
0.0
10
73.5864028930664
20
77.0080032348633
40
0.0
41
0.0
42
0.0
10
73.5014038085938
20
77.1800003051758
40
0.0
41
0.0
42
0.0
10
73.4354019165039
20
77.2919006347656
40
0.0
41
0.0
42
0.0
10
73.374397277832
20
77.4195022583008
40
0.0
41
0.0
42
0.0
10
73.3675003051758
20
77.5188980102539
40
0.0
41
0.0
42
0.0
10
73.3543014526367
20
77.9128036499023
40
0.0
41
0.0
42
0.0
10
73.3552017211914
20
77.984001159668
40
0.0
41
0.0
42
0.0
10
73.3934020996094
20
78.0836029052734
40
0.0
41
0.0
42
0.0
210
0.0
220
0.0
230
1.0
0
LWPOLYLINE
5
32
330
1C
100
AcDbEntity
67
0
8
0
62
256
6
ByLayer
370
-1
48
1.0
60
0
100
AcDbPolyline
90
28
70
1
38
0.0
39
0.0
10
73.4570007324219
20
72.6829986572266
40
0.0
41
0.0
42
0.0
10
73.6078033447266
20
72.9913024902344
40
0.0
41
0.0
42
0.0
10
73.9789962768555
20
73.4555969238281
40
0.0
41
0.0
42
0.0
10
74.0066986083984
20
73.4863967895508
40
0.0
41
0.0
42
0.0
10
74.0252990722656
20
73.4963989257812
40
0.0
41
0.0
42
0.0
10
74.1210021972656
20
73.6107025146484
40
0.0
41
0.0
42
0.0
10
74.4634017944336
20
73.9880981445312
40
0.0
41
0.0
42
0.0
10
74.463996887207
20
74.029296875
40
0.0
41
0.0
42
0.0
10
74.5233993530273
20
73.9936981201172
40
0.0
41
0.0
42
0.0
10
74.6740036010742
20
73.4832992553711
40
0.0
41
0.0
42
0.0
10
74.6905975341797
20
73.0121994018555
40
0.0
41
0.0
42
0.0
10
74.5940017700195
20
72.5120010375977
40
0.0
41
0.0
42
0.0
10
74.4962997436523
20
72.3610000610352
40
0.0
41
0.0
42
0.0
10
74.2985992431641
20
72.0074005126953
40
0.0
41
0.0
42
0.0
10
74.2665023803711
20
71.9733963012695
40
0.0
41
0.0
42
0.0
10
74.1969985961914
20
71.910400390625
40
0.0
41
0.0
42
0.0
10
74.0206985473633
20
71.6997985839844
40
0.0
41
0.0
42
0.0
10
73.9897003173828
20
71.6677017211914
40
0.0
41
0.0
42
0.0
10
73.8060989379883
20
71.6503982543945
40
0.0
41
0.0
42
0.0
10
73.5065002441406
20
71.6614990234375
40
0.0
41
0.0
42
0.0
10
73.4779968261719
20
71.7205963134766
40
0.0
41
0.0
42
0.0
10
73.4049987792969
20
71.9182968139648
40
0.0
41
0.0
42
0.0
10
73.3767013549805
20
72.0131988525391
40
0.0
41
0.0
42
0.0
10
73.3891983032227
20
72.3852996826172
40
0.0
41
0.0
42
0.0
10
73.3891983032227
20
72.4244995117188
40
0.0
41
0.0
42
0.0
10
73.3850021362305
20
72.5186004638672
40
0.0
41
0.0
42
0.0
10
73.3851013183594
20
72.5817031860352
40
0.0
41
0.0
42
0.0
10
73.4570007324219
20
72.6829986572266
40
0.0
41
0.0
42
0.0
210
0.0
220
0.0
230
1.0
0
LWPOLYLINE
5
33
330
1C
100
AcDbEntity
67
0
8
0
62
256
6
ByLayer
370
-1
48
1.0
60
0
100
AcDbPolyline
90
5
70
1
38
0.0
39
0.0
10
73.9997024536133
20
75.6008987426758
40
0.0
41
0.0
42
0.0
10
73.5599975585938
20
76.0
40
0.0
41
0.0
42
0.0
10
73.9997024536133
20
76.4164962768555
40
0.0
41
0.0
42
0.0
10
74.3927001953125
20
76.0
40
0.0
41
0.0
42
0.0
10
73.9997024536133
20
75.6008987426758
40
0.0
41
0.0
42
0.0
210
0.0
220
0.0
230
1.0
0
LWPOLYLINE
5
34
330
1C
100
AcDbEntity
67
0
8
0
62
256
6
ByLayer
370
-1
48
1.0
60
0
100
AcDbPolyline
90
54
70
1
38
0.0
39
0.0
10
75.2872009277344
20
73.5167007446289
40
0.0
41
0.0
42
0.0
10
75.2697982788086
20
73.0195999145508
40
0.0
41
0.0
42
0.0
10
75.2696990966797
20
72.9820022583008
40
0.0
41
0.0
42
0.0
10
75.3649978637695
20
72.4901962280273
40
0.0
41
0.0
42
0.0
10
75.4968032836914
20
72.3591003417969
40
0.0
41
0.0
42
0.0
10
75.7024993896484
20
71.9918975830078
40
0.0
41
0.0
42
0.0
10
75.8598022460938
20
71.80419921875
40
0.0
41
0.0
42
0.0
10
75.9885025024414
20
71.6791000366211
40
0.0
41
0.0
42
0.0
10
76.0195999145508
20
71.6791000366211
40
0.0
41
0.0
42
0.0
10
76.3522033691406
20
71.6914978027344
40
0.0
41
0.0
42
0.0
10
76.3665008544922
20
71.6876983642578
40
0.0
41
0.0
42
0.0
10
76.4860000610352
20
71.6129989624023
40
0.0
41
0.0
42
0.0
10
76.5053024291992
20
71.6129989624023
40
0.0
41
0.0
42
0.0
10
76.5394973754883
20
71.7055969238281
40
0.0
41
0.0
42
0.0
10
76.6155014038086
20
71.8535003662109
40
0.0
41
0.0
42
0.0
10
76.6652984619141
20
71.9837036132812
40
0.0
41
0.0
42
0.0
10
76.6647033691406
20
72.0364990234375
40
0.0
41
0.0
42
0.0
10
76.6535034179688
20
72.372802734375
40
0.0
41
0.0
42
0.0
10
76.6550979614258
20
72.5193023681641
40
0.0
41
0.0
42
0.0
10
76.6456985473633
20
72.6494979858398
40
0.0
41
0.0
42
0.0
10
76.5949020385742
20
72.7559967041016
40
0.0
41
0.0
42
0.0
10
76.5014038085938
20
72.9147033691406
40
0.0
41
0.0
42
0.0
10
76.4552001953125
20
73.0080032348633
40
0.0
41
0.0
42
0.0
10
76.3669967651367
20
73.106201171875
40
0.0
41
0.0
42
0.0
10
76.2518005371094
20
73.2585983276367
40
0.0
41
0.0
42
0.0
10
76.0864028930664
20
73.4989013671875
40
0.0
41
0.0
42
0.0
10
76.5024032592773
20
73.9390029907227
40
0.0
41
0.0
42
0.0
10
76.6035003662109
20
73.885498046875
40
0.0
41
0.0
42
0.0
10
76.9912033081055
20
73.5755996704102
40
0.0
41
0.0
42
0.0
10
77.2171020507812
20
73.4649963378906
40
0.0
41
0.0
42
0.0
10
77.3516006469727
20
73.3696975708008
40
0.0
41
0.0
42
0.0
10
77.5195007324219
20
73.3696975708008
40
0.0
41
0.0
42
0.0
10
77.6374969482422
20
73.3748016357422
40
0.0
41
0.0
42
0.0
10
77.9803009033203
20
73.3635025024414
40
0.0
41
0.0
42
0.0
10
78.0168991088867
20
73.3635025024414
40
0.0
41
0.0
42
0.0
10
78.1483001708984
20
73.4028015136719
40
0.0
41
0.0
42
0.0
10
78.3234024047852
20
73.4673004150391
40
0.0
41
0.0
42
0.0
10
78.3776016235352
20
73.4934005737305
40
0.0
41
0.0
42
0.0
10
78.3859024047852
20
73.7163009643555
40
0.0
41
0.0
42
0.0
10
78.3859024047852
20
73.7547988891602
40
0.0
41
0.0
42
0.0
10
78.3618011474609
20
74.0093994140625
40
0.0
41
0.0
42
0.0
10
78.2176971435547
20
74.1300964355469
40
0.0
41
0.0
42
0.0
10
78.0071029663086
20
74.3397979736328
40
0.0
41
0.0
42
0.0
10
77.7193984985352
20
74.500602722168
40
0.0
41
0.0
42
0.0
10
77.5119018554688
20
74.6345977783203
40
0.0
41
0.0
42
0.0
10
77.0178985595703
20
74.7301025390625
40
0.0
41
0.0
42
0.0
10
76.9803009033203
20
74.7300033569336
40
0.0
41
0.0
42
0.0
10
76.4833984375
20
74.7125015258789
40
0.0
41
0.0
42
0.0
10
76.2171020507812
20
74.632698059082
40
0.0
41
0.0
42
0.0
10
75.9936981201172
20
74.568000793457
40
0.0
41
0.0
42
0.0
10
75.9572982788086
20
74.5068969726562
40
0.0
41
0.0
42
0.0
10
75.4929962158203
20
74.0470962524414
40
0.0
41
0.0
42
0.0
10
75.426399230957
20
74.0064010620117
40
0.0
41
0.0
42
0.0
10
75.2872009277344
20
73.5167007446289
40
0.0
41
0.0
42
0.0
210
0.0
220
0.0
230
1.0
0
LWPOLYLINE
5
35
330
1C
100
AcDbEntity
67
0
8
0
62
256
6
ByLayer
370
-1
48
1.0
60
0
100
AcDbPolyline
90
62
70
1
38
0.0
39
0.0
10
75.2872009277344
20
76.4833984375
40
0.0
41
0.0
42
0.0
10
75.3649978637695
20
76.2238998413086
40
0.0
41
0.0
42
0.0
10
75.4318008422852
20
75.9936981201172
40
0.0
41
0.0
42
0.0
10
75.4931030273438
20
75.9571990966797
40
0.0
41
0.0
42
0.0
10
75.5299987792969
20
75.9182968139648
40
0.0
41
0.0
42
0.0
10
75.9525985717773
20
75.4928970336914
40
0.0
41
0.0
42
0.0
10
75.9934005737305
20
75.4265975952148
40
0.0
41
0.0
42
0.0
10
76.1614990234375
20
75.3816986083984
40
0.0
41
0.0
42
0.0
10
76.3507995605469
20
75.3248977661133
40
0.0
41
0.0
42
0.0
10
76.4832000732422
20
75.2872009277344
40
0.0
41
0.0
42
0.0
10
76.9803009033203
20
75.2697982788086
40
0.0
41
0.0
42
0.0
10
77.0178985595703
20
75.2696990966797
40
0.0
41
0.0
42
0.0
10
77.5095977783203
20
75.3649978637695
40
0.0
41
0.0
42
0.0
10
77.6406021118164
20
75.4968032836914
40
0.0
41
0.0
42
0.0
10
78.0080032348633
20
75.7025985717773
40
0.0
41
0.0
42
0.0
10
78.1955032348633
20
75.8599014282227
40
0.0
41
0.0
42
0.0
10
78.3206024169922
20
75.9885025024414
40
0.0
41
0.0
42
0.0
10
78.3206024169922
20
76.0195999145508
40
0.0
41
0.0
42
0.0
10
78.3081970214844
20
76.3522033691406
40
0.0
41
0.0
42
0.0
10
78.3119964599609
20
76.3666000366211
40
0.0
41
0.0
42
0.0
10
78.3869018554688
20
76.4860000610352
40
0.0
41
0.0
42
0.0
10
78.3867034912109
20
76.5052032470703
40
0.0
41
0.0
42
0.0
10
78.2941970825195
20
76.5393981933594
40
0.0
41
0.0
42
0.0
10
78.1463012695312
20
76.6155014038086
40
0.0
41
0.0
42
0.0
10
78.0161972045898
20
76.6652984619141
40
0.0
41
0.0
42
0.0
10
77.9633026123047
20
76.6647033691406
40
0.0
41
0.0
42
0.0
10
77.6270980834961
20
76.6535034179688
40
0.0
41
0.0
42
0.0
10
77.480598449707
20
76.6550979614258
40
0.0
41
0.0
42
0.0
10
77.3504028320312
20
76.6457977294922
40
0.0
41
0.0
42
0.0
10
77.2437973022461
20
76.5949020385742
40
0.0
41
0.0
42
0.0
10
77.0850982666016
20
76.5014038085938
40
0.0
41
0.0
42
0.0
10
76.9918975830078
20
76.4552993774414
40
0.0
41
0.0
42
0.0
10
76.8935012817383
20
76.3669967651367
40
0.0
41
0.0
42
0.0
10
76.7408981323242
20
76.2516021728516
40
0.0
41
0.0
42
0.0
10
76.4936981201172
20
76.0813980102539
40
0.0
41
0.0
42
0.0
10
76.4219970703125
20
76.0052032470703
40
0.0
41
0.0
42
0.0
10
76.0
20
75.6070022583008
40
0.0
41
0.0
42
0.0
10
75.6009979248047
20
76.0001983642578
40
0.0
41
0.0
42
0.0
10
76.004997253418
20
76.4453964233398
40
0.0
41
0.0
42
0.0
10
76.0556030273438
20
76.4929962158203
40
0.0
41
0.0
42
0.0
10
76.1139984130859
20
76.6033020019531
40
0.0
41
0.0
42
0.0
10
76.4241027832031
20
76.9913024902344
40
0.0
41
0.0
42
0.0
10
76.5346984863281
20
77.2171020507812
40
0.0
41
0.0
42
0.0
10
76.629997253418
20
77.3516006469727
40
0.0
41
0.0
42
0.0
10
76.6300964355469
20
77.4803009033203
40
0.0
41
0.0
42
0.0
10
76.6423034667969
20
77.8452987670898
40
0.0
41
0.0
42
0.0
10
76.6421966552734
20
77.8844985961914
40
0.0
41
0.0
42
0.0
10
76.6363983154297
20
78.0164031982422
40
0.0
41
0.0
42
0.0
10
76.5969009399414
20
78.1483001708984
40
0.0
41
0.0
42
0.0
10
76.5324020385742
20
78.3233032226562
40
0.0
41
0.0
42
0.0
10
76.5065002441406
20
78.3776016235352
40
0.0
41
0.0
42
0.0
10
76.2835006713867
20
78.3859024047852
40
0.0
41
0.0
42
0.0
10
76.245002746582
20
78.3859024047852
40
0.0
41
0.0
42
0.0
10
75.9905014038086
20
78.3619003295898
40
0.0
41
0.0
42
0.0
10
75.870002746582
20
78.2182006835938
40
0.0
41
0.0
42
0.0
10
75.7997970581055
20
78.1402969360352
40
0.0
41
0.0
42
0.0
10
75.659797668457
20
78.0068969726562
40
0.0
41
0.0
42
0.0
10
75.4990997314453
20
77.7193984985352
40
0.0
41
0.0
42
0.0
10
75.3650970458984
20
77.5120010375977
40
0.0
41
0.0
42
0.0
10
75.2697982788086
20
77.0178985595703
40
0.0
41
0.0
42
0.0
10
75.2696990966797
20
76.9803009033203
40
0.0
41
0.0
42
0.0
10
75.2872009277344
20
76.4833984375
40
0.0
41
0.0
42
0.0
210
0.0
220
0.0
230
1.0
0
LWPOLYLINE
5
36
330
1C
100
AcDbEntity
67
0
8
0
62
256
6
ByLayer
370
-1
48
1.0
60
0
100
AcDbPolyline
90
30
70
1
38
0.0
39
0.0
10
75.3093032836914
20
73.0119018554688
40
0.0
41
0.0
42
0.0
10
75.325798034668
20
73.4832000732422
40
0.0
41
0.0
42
0.0
10
75.4709014892578
20
73.9933013916016
40
0.0
41
0.0
42
0.0
10
75.5414962768555
20
74.0386962890625
40
0.0
41
0.0
42
0.0
10
75.543098449707
20
74.0378036499023
40
0.0
41
0.0
42
0.0
10
75.5431976318359
20
73.9882965087891
40
0.0
41
0.0
42
0.0
10
75.9889984130859
20
73.5158996582031
40
0.0
41
0.0
42
0.0
10
76.0168991088867
20
73.5158004760742
40
0.0
41
0.0
42
0.0
10
76.0167007446289
20
73.4863967895508
40
0.0
41
0.0
42
0.0
10
76.0477981567383
20
73.4412002563477
40
0.0
41
0.0
42
0.0
10
76.2517013549805
20
73.1716003417969
40
0.0
41
0.0
42
0.0
10
76.4132995605469
20
72.9917984008789
40
0.0
41
0.0
42
0.0
10
76.4982986450195
20
72.8197021484375
40
0.0
41
0.0
42
0.0
10
76.5642013549805
20
72.7078018188477
40
0.0
41
0.0
42
0.0
10
76.6252975463867
20
72.5803985595703
40
0.0
41
0.0
42
0.0
10
76.6317977905273
20
72.4871978759766
40
0.0
41
0.0
42
0.0
10
76.6309967041016
20
72.3852005004883
40
0.0
41
0.0
42
0.0
10
76.6434020996094
20
72.0131988525391
40
0.0
41
0.0
42
0.0
10
76.6063003540039
20
71.9163970947266
40
0.0
41
0.0
42
0.0
10
76.5529022216797
20
71.8124008178711
40
0.0
41
0.0
42
0.0
10
76.4982986450195
20
71.6639022827148
40
0.0
41
0.0
42
0.0
10
76.4255981445312
20
71.7092971801758
40
0.0
41
0.0
42
0.0
10
76.4220962524414
20
71.7104034423828
40
0.0
41
0.0
42
0.0
10
76.3852996826172
20
71.7102966308594
40
0.0
41
0.0
42
0.0
10
76.0102005004883
20
71.696403503418
40
0.0
41
0.0
42
0.0
10
75.9091033935547
20
71.7947006225586
40
0.0
41
0.0
42
0.0
10
75.7304000854492
20
72.0078964233398
40
0.0
41
0.0
42
0.0
10
75.5029983520508
20
72.4138031005859
40
0.0
41
0.0
42
0.0
10
75.4067993164062
20
72.5095977783203
40
0.0
41
0.0
42
0.0
10
75.3093032836914
20
73.0119018554688
40
0.0
41
0.0
42
0.0
210
0.0
220
0.0
230
1.0
0
LWPOLYLINE
5
37
330
1C
100
AcDbEntity
67
0
8
0
62
256
6
ByLayer
370
-1
48
1.0
60
0
100
AcDbPolyline
90
27
70
1
38
0.0
39
0.0
10
75.3090972900391
20
76.9877014160156
40
0.0
41
0.0
42
0.0
10
75.4057998657227
20
77.4879989624023
40
0.0
41
0.0
42
0.0
10
75.5034027099609
20
77.638801574707
40
0.0
41
0.0
42
0.0
10
75.7014999389648
20
77.9929962158203
40
0.0
41
0.0
42
0.0
10
75.8029022216797
20
78.089599609375
40
0.0
41
0.0
42
0.0
10
75.8508987426758
20
78.1427993774414
40
0.0
41
0.0
42
0.0
10
76.0093994140625
20
78.331901550293
40
0.0
41
0.0
42
0.0
10
76.1938018798828
20
78.3492965698242
40
0.0
41
0.0
42
0.0
10
76.4934005737305
20
78.3382034301758
40
0.0
41
0.0
42
0.0
10
76.5216979980469
20
78.2790985107422
40
0.0
41
0.0
42
0.0
10
76.5936965942383
20
78.0841979980469
40
0.0
41
0.0
42
0.0
10
76.6238021850586
20
77.9834976196289
40
0.0
41
0.0
42
0.0
10
76.6275024414062
20
77.9023971557617
40
0.0
41
0.0
42
0.0
10
76.6147994995117
20
77.5195999145508
40
0.0
41
0.0
42
0.0
10
76.6147994995117
20
77.4182968139648
40
0.0
41
0.0
42
0.0
10
76.5427017211914
20
77.3168029785156
40
0.0
41
0.0
42
0.0
10
76.3918991088867
20
77.0085983276367
40
0.0
41
0.0
42
0.0
10
76.0207977294922
20
76.5442962646484
40
0.0
41
0.0
42
0.0
10
75.9932022094727
20
76.513298034668
40
0.0
41
0.0
42
0.0
10
75.9744033813477
20
76.5034027099609
40
0.0
41
0.0
42
0.0
10
75.8788986206055
20
76.3891983032227
40
0.0
41
0.0
42
0.0
10
75.5364990234375
20
76.0118026733398
40
0.0
41
0.0
42
0.0
10
75.536003112793
20
75.970703125
40
0.0
41
0.0
42
0.0
10
75.4761962890625
20
76.006103515625
40
0.0
41
0.0
42
0.0
10
75.4047012329102
20
76.2528991699219
40
0.0
41
0.0
42
0.0
10
75.3256988525391
20
76.5165023803711
40
0.0
41
0.0
42
0.0
10
75.3090972900391
20
76.9877014160156
40
0.0
41
0.0
42
0.0
210
0.0
220
0.0
230
1.0
0
LWPOLYLINE
5
38
330
1C
100
AcDbEntity
67
0
8
0
62
256
6
ByLayer
370
-1
48
1.0
60
0
100
AcDbPolyline
90
5
70
1
38
0.0
39
0.0
10
76.0001983642578
20
74.3986968994141
40
0.0
41
0.0
42
0.0
10
76.4397964477539
20
73.9999008178711
40
0.0
41
0.0
42
0.0
10
76.0001983642578
20
73.5830993652344
40
0.0
41
0.0
42
0.0
10
75.6071014404297
20
73.9999008178711
40
0.0
41
0.0
42
0.0
10
76.0001983642578
20
74.3986968994141
40
0.0
41
0.0
42
0.0
210
0.0
220
0.0
230
1.0
0
LWPOLYLINE
5
39
330
1C
100
AcDbEntity
67
0
8
0
62
256
6
ByLayer
370
-1
48
1.0
60
0
100
AcDbPolyline
90
31
70
1
38
0.0
39
0.0
10
76.0115966796875
20
75.5432968139648
40
0.0
41
0.0
42
0.0
10
76.4900970458984
20
75.9947967529297
40
0.0
41
0.0
42
0.0
10
76.5062026977539
20
76.0118026733398
40
0.0
41
0.0
42
0.0
10
76.5586013793945
20
76.0478973388672
40
0.0
41
0.0
42
0.0
10
76.8282012939453
20
76.2518005371094
40
0.0
41
0.0
42
0.0
10
77.0080032348633
20
76.4132995605469
40
0.0
41
0.0
42
0.0
10
77.1800994873047
20
76.4983978271484
40
0.0
41
0.0
42
0.0
10
77.2919998168945
20
76.5643005371094
40
0.0
41
0.0
42
0.0
10
77.4195022583008
20
76.6252975463867
40
0.0
41
0.0
42
0.0
10
77.5127029418945
20
76.6317977905273
40
0.0
41
0.0
42
0.0
10
77.6147003173828
20
76.6309967041016
40
0.0
41
0.0
42
0.0
10
77.986701965332
20
76.6433029174805
40
0.0
41
0.0
42
0.0
10
78.0835037231445
20
76.6063003540039
40
0.0
41
0.0
42
0.0
10
78.1874008178711
20
76.5529022216797
40
0.0
41
0.0
42
0.0
10
78.3358001708984
20
76.4981994628906
40
0.0
41
0.0
42
0.0
10
78.290397644043
20
76.4256973266602
40
0.0
41
0.0
42
0.0
10
78.2894973754883
20
76.4220962524414
40
0.0
41
0.0
42
0.0
10
78.2893981933594
20
76.3852996826172
40
0.0
41
0.0
42
0.0
10
78.3033981323242
20
76.0102996826172
40
0.0
41
0.0
42
0.0
10
78.2050018310547
20
75.9092025756836
40
0.0
41
0.0
42
0.0
10
77.9919967651367
20
75.7304992675781
40
0.0
41
0.0
42
0.0
10
77.5859985351562
20
75.5030975341797
40
0.0
41
0.0
42
0.0
10
77.4903030395508
20
75.4067993164062
40
0.0
41
0.0
42
0.0
10
76.9879989624023
20
75.3093032836914
40
0.0
41
0.0
42
0.0
10
76.5166015625
20
75.3255996704102
40
0.0
41
0.0
42
0.0
10
76.4189987182617
20
75.353401184082
40
0.0
41
0.0
42
0.0
10
76.2106018066406
20
75.4160995483398
40
0.0
41
0.0
42
0.0
10
76.0068969726562
20
75.4704971313477
40
0.0
41
0.0
42
0.0
10
75.9611968994141
20
75.5413970947266
40
0.0
41
0.0
42
0.0
10
75.9621963500977
20
75.5432968139648
40
0.0
41
0.0
42
0.0
10
76.0115966796875
20
75.5432968139648
40
0.0
41
0.0
42
0.0
210
0.0
220
0.0
230
1.0
0
LWPOLYLINE
5
3A
330
1C
100
AcDbEntity
67
0
8
0
62
256
6
ByLayer
370
-1
48
1.0
60
0
100
AcDbPolyline
90
27
70
1
38
0.0
39
0.0
10
76.0062026977539
20
74.5234985351562
40
0.0
41
0.0
42
0.0
10
76.2520980834961
20
74.5948028564453
40
0.0
41
0.0
42
0.0
10
76.5165023803711
20
74.6740036010742
40
0.0
41
0.0
42
0.0
10
76.9877014160156
20
74.6905975341797
40
0.0
41
0.0
42
0.0
10
77.4878997802734
20
74.5940017700195
40
0.0
41
0.0
42
0.0
10
77.638801574707
20
74.4962997436523
40
0.0
41
0.0
42
0.0
10
77.9926986694336
20
74.2984008789062
40
0.0
41
0.0
42
0.0
10
78.1430969238281
20
74.1484985351562
40
0.0
41
0.0
42
0.0
10
78.331901550293
20
73.9905014038086
40
0.0
41
0.0
42
0.0
10
78.3492965698242
20
73.8059997558594
40
0.0
41
0.0
42
0.0
10
78.3383026123047
20
73.5065002441406
40
0.0
41
0.0
42
0.0
10
78.2790985107422
20
73.4781036376953
40
0.0
41
0.0
42
0.0
10
78.0815963745117
20
73.4050979614258
40
0.0
41
0.0
42
0.0
10
77.986701965332
20
73.3767013549805
40
0.0
41
0.0
42
0.0
10
77.6146011352539
20
73.3891983032227
40
0.0
41
0.0
42
0.0
10
77.5754013061523
20
73.3891983032227
40
0.0
41
0.0
42
0.0
10
77.4813003540039
20
73.3850021362305
40
0.0
41
0.0
42
0.0
10
77.4181976318359
20
73.3851013183594
40
0.0
41
0.0
42
0.0
10
77.3168029785156
20
73.4570007324219
40
0.0
41
0.0
42
0.0
10
77.0085983276367
20
73.6078033447266
40
0.0
41
0.0
42
0.0
10
76.5441970825195
20
73.9788970947266
40
0.0
41
0.0
42
0.0
10
76.5133972167969
20
74.0067977905273
40
0.0
41
0.0
42
0.0
10
76.5034027099609
20
74.0252990722656
40
0.0
41
0.0
42
0.0
10
76.3891983032227
20
74.1207962036133
40
0.0
41
0.0
42
0.0
10
76.0118026733398
20
74.4634017944336
40
0.0
41
0.0
42
0.0
10
75.970703125
20
74.4638977050781
40
0.0
41
0.0
42
0.0
10
76.0062026977539
20
74.5234985351562
40
0.0
41
0.0
42
0.0
210
0.0
220
0.0
230
1.0
0
LWPOLYLINE
5
3B
330
1C
100
AcDbEntity
67
0
8
0
62
256
6
ByLayer
370
-1
48
1.0
60
0
100
AcDbPolyline
90
42
70
1
38
0.0
39
0.0
10
76.442497253418
20
81.6110992431641
40
0.0
41
0.0
42
0.0
10
76.4721984863281
20
81.4878005981445
40
0.0
41
0.0
42
0.0
10
76.4977035522461
20
81.4440002441406
40
0.0
41
0.0
42
0.0
10
76.5559997558594
20
81.3563995361328
40
0.0
41
0.0
42
0.0
10
76.7901000976562
20
80.9921035766602
40
0.0
41
0.0
42
0.0
10
76.8858032226562
20
80.8712997436523
40
0.0
41
0.0
42
0.0
10
76.9932022094727
20
80.7511978149414
40
0.0
41
0.0
42
0.0
10
77.3532028198242
20
80.5541000366211
40
0.0
41
0.0
42
0.0
10
77.3887023925781
20
80.543098449707
40
0.0
41
0.0
42
0.0
10
77.4824981689453
20
80.5186004638672
40
0.0
41
0.0
42
0.0
10
77.6695022583008
20
80.5211029052734
40
0.0
41
0.0
42
0.0
10
78.0154037475586
20
80.548698425293
40
0.0
41
0.0
42
0.0
10
78.1484985351562
20
80.597297668457
40
0.0
41
0.0
42
0.0
10
78.5117034912109
20
80.700798034668
40
0.0
41
0.0
42
0.0
10
78.8740005493164
20
80.9083023071289
40
0.0
41
0.0
42
0.0
10
79.004997253418
20
80.9931030273438
40
0.0
41
0.0
42
0.0
10
79.0273971557617
20
81.0804977416992
40
0.0
41
0.0
42
0.0
10
79.1466979980469
20
81.4830017089844
40
0.0
41
0.0
42
0.0
10
79.146598815918
20
81.5177001953125
40
0.0
41
0.0
42
0.0
10
79.0391998291016
20
82.0128021240234
40
0.0
41
0.0
42
0.0
10
79.0015029907227
20
82.0871963500977
40
0.0
41
0.0
42
0.0
10
78.9485015869141
20
82.1737976074219
40
0.0
41
0.0
42
0.0
10
78.717903137207
20
82.5062026977539
40
0.0
41
0.0
42
0.0
10
78.5634002685547
20
82.6548004150391
40
0.0
41
0.0
42
0.0
10
78.5074005126953
20
82.7171020507812
40
0.0
41
0.0
42
0.0
10
78.1456985473633
20
82.8712997436523
40
0.0
41
0.0
42
0.0
10
78.0145034790039
20
82.9432983398438
40
0.0
41
0.0
42
0.0
10
77.6792984008789
20
82.9449996948242
40
0.0
41
0.0
42
0.0
10
77.5189971923828
20
82.9591979980469
40
0.0
41
0.0
42
0.0
10
77.4824981689453
20
82.959098815918
40
0.0
41
0.0
42
0.0
10
77.3507995605469
20
82.9271011352539
40
0.0
41
0.0
42
0.0
10
76.9886016845703
20
82.8037033081055
40
0.0
41
0.0
42
0.0
10
76.8560028076172
20
82.7272033691406
40
0.0
41
0.0
42
0.0
10
76.5837020874023
20
82.5450973510742
40
0.0
41
0.0
42
0.0
10
76.529296875
20
82.5058975219727
40
0.0
41
0.0
42
0.0
10
76.4990997314453
20
82.4468994140625
40
0.0
41
0.0
42
0.0
10
76.4749984741211
20
82.3813018798828
40
0.0
41
0.0
42
0.0
10
76.3796997070312
20
82.1474990844727
40
0.0
41
0.0
42
0.0
10
76.3339004516602
20
82.0164031982422
40
0.0
41
0.0
42
0.0
10
76.3338012695312
20
81.9831008911133
40
0.0
41
0.0
42
0.0
10
76.3742980957031
20
81.8508987426758
40
0.0
41
0.0
42
0.0
10
76.442497253418
20
81.6110992431641
40
0.0
41
0.0
42
0.0
210
0.0
220
0.0
230
1.0
0
LWPOLYLINE
5
3C
330
1C
100
AcDbEntity
67
0
8
0
62
256
6
ByLayer
370
-1
48
1.0
60
0
100
AcDbPolyline
90
36
70
1
38
0.0
39
0.0
10
76.4554977416992
20
82.247200012207
40
0.0
41
0.0
42
0.0
10
76.500602722168
20
82.3697967529297
40
0.0
41
0.0
42
0.0
10
76.5640029907227
20
82.4940032958984
40
0.0
41
0.0
42
0.0
10
76.6099014282227
20
82.5270004272461
40
0.0
41
0.0
42
0.0
10
76.9139022827148
20
82.7301025390625
40
0.0
41
0.0
42
0.0
10
77.0112991333008
20
82.7863006591797
40
0.0
41
0.0
42
0.0
10
77.4190979003906
20
82.9254989624023
40
0.0
41
0.0
42
0.0
10
77.507698059082
20
82.9469985961914
40
0.0
41
0.0
42
0.0
10
77.5938034057617
20
82.9393997192383
40
0.0
41
0.0
42
0.0
10
77.9853973388672
20
82.9374008178711
40
0.0
41
0.0
42
0.0
10
78.084098815918
20
82.88330078125
40
0.0
41
0.0
42
0.0
10
78.4924011230469
20
82.709098815918
40
0.0
41
0.0
42
0.0
10
78.5362014770508
20
82.6603012084961
40
0.0
41
0.0
42
0.0
10
78.7097015380859
20
82.4935989379883
40
0.0
41
0.0
42
0.0
10
78.9235000610352
20
82.1857986450195
40
0.0
41
0.0
42
0.0
10
78.9981994628906
20
82.0636978149414
40
0.0
41
0.0
42
0.0
10
79.0371017456055
20
81.9869995117188
40
0.0
41
0.0
42
0.0
10
79.1421966552734
20
81.502197265625
40
0.0
41
0.0
42
0.0
10
79.0376968383789
20
81.1493988037109
40
0.0
41
0.0
42
0.0
10
79.0010986328125
20
81.0068969726562
40
0.0
41
0.0
42
0.0
10
78.8899993896484
20
80.934196472168
40
0.0
41
0.0
42
0.0
10
78.4881973266602
20
80.7040023803711
40
0.0
41
0.0
42
0.0
10
78.0814971923828
20
80.5884017944336
40
0.0
41
0.0
42
0.0
10
77.9844970703125
20
80.5529022216797
40
0.0
41
0.0
42
0.0
10
77.7350997924805
20
80.5330963134766
40
0.0
41
0.0
42
0.0
10
77.5149002075195
20
80.529296875
40
0.0
41
0.0
42
0.0
10
77.4169998168945
20
80.5562973022461
40
0.0
41
0.0
42
0.0
10
77.0065994262695
20
80.7809982299805
40
0.0
41
0.0
42
0.0
10
76.9262008666992
20
80.8707962036133
40
0.0
41
0.0
42
0.0
10
76.818000793457
20
81.007698059082
40
0.0
41
0.0
42
0.0
10
76.4933013916016
20
81.5114974975586
40
0.0
41
0.0
42
0.0
10
76.4589996337891
20
81.6541976928711
40
0.0
41
0.0
42
0.0
10
76.3836975097656
20
81.9189987182617
40
0.0
41
0.0
42
0.0
10
76.3591995239258
20
81.9990997314453
40
0.0
41
0.0
42
0.0
10
76.3874969482422
20
82.0802001953125
40
0.0
41
0.0
42
0.0
10
76.4554977416992
20
82.247200012207
40
0.0
41
0.0
42
0.0
210
0.0
220
0.0
230
1.0
0
LWPOLYLINE
5
3D
330
1C
100
AcDbEntity
67
0
8
0
62
256
6
ByLayer
370
-1
48
1.0
60
0
100
AcDbPolyline
90
41
70
1
38
0.0
39
0.0
10
76.4810028076172
20
67.782600402832
40
0.0
41
0.0
42
0.0
10
76.4985961914062
20
67.7434005737305
40
0.0
41
0.0
42
0.0
10
76.5294036865234
20
67.689697265625
40
0.0
41
0.0
42
0.0
10
76.6289978027344
20
67.4943008422852
40
0.0
41
0.0
42
0.0
10
76.9896011352539
20
67.2543029785156
40
0.0
41
0.0
42
0.0
10
77.0820007324219
20
67.2190017700195
40
0.0
41
0.0
42
0.0
10
77.4841995239258
20
67.081901550293
40
0.0
41
0.0
42
0.0
10
77.6156997680664
20
67.0721969604492
40
0.0
41
0.0
42
0.0
10
78.0169982910156
20
67.0742034912109
40
0.0
41
0.0
42
0.0
10
78.1480026245117
20
67.1106033325195
40
0.0
41
0.0
42
0.0
10
78.5082015991211
20
67.2642974853516
40
0.0
41
0.0
42
0.0
10
78.6614990234375
20
67.4117965698242
40
0.0
41
0.0
42
0.0
10
78.7652969360352
20
67.4951019287109
40
0.0
41
0.0
42
0.0
10
78.7938003540039
20
67.5280990600586
40
0.0
41
0.0
42
0.0
10
79.0018005371094
20
67.8275985717773
40
0.0
41
0.0
42
0.0
10
79.0338973999023
20
67.8904037475586
40
0.0
41
0.0
42
0.0
10
79.0903015136719
20
67.9877014160156
40
0.0
41
0.0
42
0.0
10
79.168701171875
20
68.3501968383789
40
0.0
41
0.0
42
0.0
10
79.2086029052734
20
68.4830017089844
40
0.0
41
0.0
42
0.0
10
79.2085037231445
20
68.5168991088867
40
0.0
41
0.0
42
0.0
10
79.1005020141602
20
68.8808975219727
40
0.0
41
0.0
42
0.0
10
79.0880966186523
20
69.0105972290039
40
0.0
41
0.0
42
0.0
10
79.0068969726562
20
69.0941009521484
40
0.0
41
0.0
42
0.0
10
78.6447982788086
20
69.3014984130859
40
0.0
41
0.0
42
0.0
10
78.5561981201172
20
69.3478012084961
40
0.0
41
0.0
42
0.0
10
78.513298034668
20
69.3643035888672
40
0.0
41
0.0
42
0.0
10
78.1909027099609
20
69.4559020996094
40
0.0
41
0.0
42
0.0
10
78.0174026489258
20
69.4982986450195
40
0.0
41
0.0
42
0.0
10
77.4862976074219
20
69.5
40
0.0
41
0.0
42
0.0
10
77.3559036254883
20
69.4126968383789
40
0.0
41
0.0
42
0.0
10
76.9937973022461
20
69.2145004272461
40
0.0
41
0.0
42
0.0
10
76.9004974365234
20
69.0964965820312
40
0.0
41
0.0
42
0.0
10
76.8439025878906
20
69.0092010498047
40
0.0
41
0.0
42
0.0
10
76.7705001831055
20
68.8742980957031
40
0.0
41
0.0
42
0.0
10
76.5376968383789
20
68.5120010375977
40
0.0
41
0.0
42
0.0
10
76.5342025756836
20
68.493896484375
40
0.0
41
0.0
42
0.0
10
76.5000991821289
20
68.367301940918
40
0.0
41
0.0
42
0.0
10
76.4320983886719
20
68.1285018920898
40
0.0
41
0.0
42
0.0
10
76.4069976806641
20
68.0176010131836
40
0.0
41
0.0
42
0.0
10
76.4068984985352
20
67.9837036132812
40
0.0
41
0.0
42
0.0
10
76.4810028076172
20
67.782600402832
40
0.0
41
0.0
42
0.0
210
0.0
220
0.0
230
1.0
0
LWPOLYLINE
5
3E
330
1C
100
AcDbEntity
67
0
8
0
62
256
6
ByLayer
370
-1
48
1.0
60
0
100
AcDbPolyline
90
39
70
1
38
0.0
39
0.0
10
76.4241027832031
20
68.0652008056641
40
0.0
41
0.0
42
0.0
10
76.4996032714844
20
68.3309020996094
40
0.0
41
0.0
42
0.0
10
76.540901184082
20
68.4885025024414
40
0.0
41
0.0
42
0.0
10
76.8024978637695
20
68.8956985473633
40
0.0
41
0.0
42
0.0
10
76.8541030883789
20
68.9906997680664
40
0.0
41
0.0
42
0.0
10
76.8956985473633
20
69.0546035766602
40
0.0
41
0.0
42
0.0
10
77.006103515625
20
69.1941986083984
40
0.0
41
0.0
42
0.0
10
77.4141006469727
20
69.4176025390625
40
0.0
41
0.0
42
0.0
10
77.5133972167969
20
69.484001159668
40
0.0
41
0.0
42
0.0
10
77.8286972045898
20
69.4830017089844
40
0.0
41
0.0
42
0.0
10
77.9825973510742
20
69.4804992675781
40
0.0
41
0.0
42
0.0
10
78.1092987060547
20
69.4496002197266
40
0.0
41
0.0
42
0.0
10
78.4866027832031
20
69.3423004150391
40
0.0
41
0.0
42
0.0
10
78.5202026367188
20
69.3293991088867
40
0.0
41
0.0
42
0.0
10
78.5849990844727
20
69.2956008911133
40
0.0
41
0.0
42
0.0
10
78.9928970336914
20
69.0619964599609
40
0.0
41
0.0
42
0.0
10
79.0635986328125
20
68.9893035888672
40
0.0
41
0.0
42
0.0
10
79.0733032226562
20
68.8889999389648
40
0.0
41
0.0
42
0.0
10
79.1885986328125
20
68.5
40
0.0
41
0.0
42
0.0
10
79.1644973754883
20
68.4197006225586
40
0.0
41
0.0
42
0.0
10
79.0764007568359
20
68.0122985839844
40
0.0
41
0.0
42
0.0
10
79.0343017578125
20
67.9397964477539
40
0.0
41
0.0
42
0.0
10
78.9980010986328
20
67.8685989379883
40
0.0
41
0.0
42
0.0
10
78.7640991210938
20
67.5319976806641
40
0.0
41
0.0
42
0.0
10
78.7406997680664
20
67.5047988891602
40
0.0
41
0.0
42
0.0
10
78.6662979125977
20
67.4450988769531
40
0.0
41
0.0
42
0.0
10
78.4917984008789
20
67.277099609375
40
0.0
41
0.0
42
0.0
10
78.081901550293
20
67.1022033691406
40
0.0
41
0.0
42
0.0
10
77.9829025268555
20
67.0747985839844
40
0.0
41
0.0
42
0.0
10
77.6218032836914
20
67.0727996826172
40
0.0
41
0.0
42
0.0
10
77.5157012939453
20
67.081298828125
40
0.0
41
0.0
42
0.0
10
77.1477966308594
20
67.2067031860352
40
0.0
41
0.0
42
0.0
10
77.0102996826172
20
67.2591018676758
40
0.0
41
0.0
42
0.0
10
76.6396026611328
20
67.5054016113281
40
0.0
41
0.0
42
0.0
10
76.5454025268555
20
67.6899032592773
40
0.0
41
0.0
42
0.0
10
76.5011978149414
20
67.7669982910156
40
0.0
41
0.0
42
0.0
10
76.475700378418
20
67.8240966796875
40
0.0
41
0.0
42
0.0
10
76.4100036621094
20
68.0031967163086
40
0.0
41
0.0
42
0.0
10
76.4241027832031
20
68.0652008056641
40
0.0
41
0.0
42
0.0
210
0.0
220
0.0
230
1.0
0
LWPOLYLINE
5
3F
330
1C
100
AcDbEntity
67
0
8
0
62
256
6
ByLayer
370
-1
48
1.0
60
0
100
AcDbPolyline
90
31
70
1
38
0.0
39
0.0
10
79.4210968017578
20
65.0009994506836
40
0.0
41
0.0
42
0.0
10
79.4630966186523
20
65.0208969116211
40
0.0
41
0.0
42
0.0
10
79.5134963989258
20
65.0395965576172
40
0.0
41
0.0
42
0.0
10
79.6100006103516
20
65.0661010742188
40
0.0
41
0.0
42
0.0
10
80.0162963867188
20
65.1519012451172
40
0.0
41
0.0
42
0.0
10
80.1125030517578
20
65.1657028198242
40
0.0
41
0.0
42
0.0
10
80.5185012817383
20
65.2014007568359
40
0.0
41
0.0
42
0.0
10
80.6059036254883
20
65.2061004638672
40
0.0
41
0.0
42
0.0
10
80.9809036254883
20
65.2006988525391
40
0.0
41
0.0
42
0.0
10
81.0776977539062
20
65.1930999755859
40
0.0
41
0.0
42
0.0
10
81.486701965332
20
65.1156005859375
40
0.0
41
0.0
42
0.0
10
81.5863037109375
20
65.0653991699219
40
0.0
41
0.0
42
0.0
10
81.6032028198242
20
65.052001953125
40
0.0
41
0.0
42
0.0
10
81.7011032104492
20
65.0009994506836
40
0.0
41
0.0
42
0.0
10
81.749397277832
20
65.0009994506836
40
0.0
41
0.0
42
0.0
10
81.7491989135742
20
65.0072021484375
40
0.0
41
0.0
42
0.0
10
81.6672973632812
20
65.0500030517578
40
0.0
41
0.0
42
0.0
10
81.6435012817383
20
65.0689010620117
40
0.0
41
0.0
42
0.0
10
81.5130996704102
20
65.1344985961914
40
0.0
41
0.0
42
0.0
10
81.1521987915039
20
65.2029037475586
40
0.0
41
0.0
42
0.0
10
81.0189971923828
20
65.2135009765625
40
0.0
41
0.0
42
0.0
10
80.6154022216797
20
65.2186965942383
40
0.0
41
0.0
42
0.0
10
80.4813995361328
20
65.2116012573242
40
0.0
41
0.0
42
0.0
10
80.1174011230469
20
65.1796035766602
40
0.0
41
0.0
42
0.0
10
79.9835968017578
20
65.160400390625
40
0.0
41
0.0
42
0.0
10
79.6199035644531
20
65.0836029052734
40
0.0
41
0.0
42
0.0
10
79.4863967895508
20
65.0469970703125
40
0.0
41
0.0
42
0.0
10
79.4441986083984
20
65.0314025878906
40
0.0
41
0.0
42
0.0
10
79.3924026489258
20
65.0066986083984
40
0.0
41
0.0
42
0.0
10
79.3924026489258
20
65.0009994506836
40
0.0
41
0.0
42
0.0
10
79.4210968017578
20
65.0009994506836
40
0.0
41
0.0
42
0.0
210
0.0
220
0.0
230
1.0
0
LWPOLYLINE
5
40
330
1C
100
AcDbEntity
67
0
8
0
62
256
6
ByLayer
370
-1
48
1.0
60
0
100
AcDbPolyline
90
29
70
1
38
0.0
39
0.0
10
79.4406967163086
20
84.9834976196289
40
0.0
41
0.0
42
0.0
10
79.4841003417969
20
84.9717025756836
40
0.0
41
0.0
42
0.0
10
79.602897644043
20
84.9559020996094
40
0.0
41
0.0
42
0.0
10
79.9824981689453
20
84.8758010864258
40
0.0
41
0.0
42
0.0
10
80.0762023925781
20
84.872802734375
40
0.0
41
0.0
42
0.0
10
80.4809036254883
20
84.8371963500977
40
0.0
41
0.0
42
0.0
10
80.5193023681641
20
84.8370971679688
40
0.0
41
0.0
42
0.0
10
80.6140975952148
20
84.8432998657227
40
0.0
41
0.0
42
0.0
10
81.0177993774414
20
84.8491973876953
40
0.0
41
0.0
42
0.0
10
81.4203033447266
20
84.9254989624023
40
0.0
41
0.0
42
0.0
10
81.5122985839844
20
84.9496002197266
40
0.0
41
0.0
42
0.0
10
81.5947036743164
20
84.9926986694336
40
0.0
41
0.0
42
0.0
10
81.5947036743164
20
84.9990005493164
40
0.0
41
0.0
42
0.0
10
81.564697265625
20
84.9989013671875
40
0.0
41
0.0
42
0.0
10
81.4876022338867
20
84.9586029052734
40
0.0
41
0.0
42
0.0
10
81.3496017456055
20
84.9224014282227
40
0.0
41
0.0
42
0.0
10
80.9821014404297
20
84.8527984619141
40
0.0
41
0.0
42
0.0
10
80.6157989501953
20
84.8475036621094
40
0.0
41
0.0
42
0.0
10
80.5026016235352
20
84.8399963378906
40
0.0
41
0.0
42
0.0
10
80.1537017822266
20
84.8709030151367
40
0.0
41
0.0
42
0.0
10
80.0174026489258
20
84.8751983642578
40
0.0
41
0.0
42
0.0
10
79.6509017944336
20
84.9525985717773
40
0.0
41
0.0
42
0.0
10
79.611701965332
20
84.959602355957
40
0.0
41
0.0
42
0.0
10
79.5158004760742
20
84.9723968505859
40
0.0
41
0.0
42
0.0
10
79.4813003540039
20
84.9817962646484
40
0.0
41
0.0
42
0.0
10
79.4354019165039
20
84.9990005493164
40
0.0
41
0.0
42
0.0
10
79.4114990234375
20
84.9990005493164
40
0.0
41
0.0
42
0.0
10
79.4113998413086
20
84.994499206543
40
0.0
41
0.0
42
0.0
10
79.4406967163086
20
84.9834976196289
40
0.0
41
0.0
42
0.0
210
0.0
220
0.0
230
1.0
0
LWPOLYLINE
5
41
330
1C
100
AcDbEntity
67
0
8
0
62
256
6
ByLayer
370
-1
48
1.0
60
0
100
AcDbPolyline
90
80
70
1
38
0.0
39
0.0
10
80.4998016357422
20
77.4860000610352
40
0.0
41
0.0
42
0.0
10
80.5870971679688
20
77.3557968139648
40
0.0
41
0.0
42
0.0
10
80.7853012084961
20
76.9936981201172
40
0.0
41
0.0
42
0.0
10
80.9032974243164
20
76.9003982543945
40
0.0
41
0.0
42
0.0
10
80.9906997680664
20
76.8439025878906
40
0.0
41
0.0
42
0.0
10
81.125602722168
20
76.7705001831055
40
0.0
41
0.0
42
0.0
10
81.4878997802734
20
76.5376968383789
40
0.0
41
0.0
42
0.0
10
81.5058975219727
20
76.5341033935547
40
0.0
41
0.0
42
0.0
10
81.6324996948242
20
76.5000991821289
40
0.0
41
0.0
42
0.0
10
81.8712997436523
20
76.4320983886719
40
0.0
41
0.0
42
0.0
10
81.9822998046875
20
76.4069976806641
40
0.0
41
0.0
42
0.0
10
82.0161972045898
20
76.4069976806641
40
0.0
41
0.0
42
0.0
10
82.2172012329102
20
76.4811019897461
40
0.0
41
0.0
42
0.0
10
82.2565994262695
20
76.4984970092773
40
0.0
41
0.0
42
0.0
10
82.3099975585938
20
76.5294036865234
40
0.0
41
0.0
42
0.0
10
82.505500793457
20
76.6290969848633
40
0.0
41
0.0
42
0.0
10
82.7453002929688
20
76.9893035888672
40
0.0
41
0.0
42
0.0
10
82.8825988769531
20
77.3920974731445
40
0.0
41
0.0
42
0.0
10
82.9175033569336
20
77.4838027954102
40
0.0
41
0.0
42
0.0
10
82.9172973632812
20
77.5122985839844
40
0.0
41
0.0
42
0.0
10
82.8658981323242
20
77.377799987793
40
0.0
41
0.0
42
0.0
10
82.7406997680664
20
77.0105972290039
40
0.0
41
0.0
42
0.0
10
82.4944000244141
20
76.6396026611328
40
0.0
41
0.0
42
0.0
10
82.3098983764648
20
76.5454025268555
40
0.0
41
0.0
42
0.0
10
82.2328033447266
20
76.5011978149414
40
0.0
41
0.0
42
0.0
10
82.1756973266602
20
76.475700378418
40
0.0
41
0.0
42
0.0
10
81.996696472168
20
76.4100036621094
40
0.0
41
0.0
42
0.0
10
81.9346008300781
20
76.4241027832031
40
0.0
41
0.0
42
0.0
10
81.6688995361328
20
76.4996032714844
40
0.0
41
0.0
42
0.0
10
81.5113983154297
20
76.5408020019531
40
0.0
41
0.0
42
0.0
10
81.1042022705078
20
76.8024978637695
40
0.0
41
0.0
42
0.0
10
81.0092010498047
20
76.8541030883789
40
0.0
41
0.0
42
0.0
10
80.945198059082
20
76.8955993652344
40
0.0
41
0.0
42
0.0
10
80.8054962158203
20
77.006103515625
40
0.0
41
0.0
42
0.0
10
80.5820999145508
20
77.4140014648438
40
0.0
41
0.0
42
0.0
10
80.5157012939453
20
77.5133972167969
40
0.0
41
0.0
42
0.0
10
80.5167007446289
20
77.8286972045898
40
0.0
41
0.0
42
0.0
10
80.5192031860352
20
77.9826965332031
40
0.0
41
0.0
42
0.0
10
80.5502014160156
20
78.1092987060547
40
0.0
41
0.0
42
0.0
10
80.6574020385742
20
78.4866027832031
40
0.0
41
0.0
42
0.0
10
80.6704025268555
20
78.5202026367188
40
0.0
41
0.0
42
0.0
10
80.7041015625
20
78.5849990844727
40
0.0
41
0.0
42
0.0
10
80.9377975463867
20
78.9929962158203
40
0.0
41
0.0
42
0.0
10
81.0105972290039
20
79.0635986328125
40
0.0
41
0.0
42
0.0
10
81.1109008789062
20
79.0733032226562
40
0.0
41
0.0
42
0.0
10
81.4999008178711
20
79.1884994506836
40
0.0
41
0.0
42
0.0
10
81.5802001953125
20
79.1644973754883
40
0.0
41
0.0
42
0.0
10
81.9876022338867
20
79.076301574707
40
0.0
41
0.0
42
0.0
10
82.0599975585938
20
79.0343017578125
40
0.0
41
0.0
42
0.0
10
82.1312026977539
20
78.9979019165039
40
0.0
41
0.0
42
0.0
10
82.4677963256836
20
78.7639999389648
40
0.0
41
0.0
42
0.0
10
82.495002746582
20
78.7406997680664
40
0.0
41
0.0
42
0.0
10
82.5547027587891
20
78.6662979125977
40
0.0
41
0.0
42
0.0
10
82.7236022949219
20
78.4906997680664
40
0.0
41
0.0
42
0.0
10
82.7510986328125
20
78.3918991088867
40
0.0
41
0.0
42
0.0
10
82.9226989746094
20
77.9897003173828
40
0.0
41
0.0
42
0.0
10
82.9173965454102
20
77.9238967895508
40
0.0
41
0.0
42
0.0
10
82.9168014526367
20
77.8714981079102
40
0.0
41
0.0
42
0.0
10
82.9255981445312
20
77.9807968139648
40
0.0
41
0.0
42
0.0
10
82.9254989624023
20
78.0156021118164
40
0.0
41
0.0
42
0.0
10
82.7708969116211
20
78.3779983520508
40
0.0
41
0.0
42
0.0
10
82.7344970703125
20
78.5092010498047
40
0.0
41
0.0
42
0.0
10
82.5878982543945
20
78.6613998413086
40
0.0
41
0.0
42
0.0
10
82.5046997070312
20
78.7651977539062
40
0.0
41
0.0
42
0.0
10
82.4716033935547
20
78.7938003540039
40
0.0
41
0.0
42
0.0
10
82.1722030639648
20
79.0018005371094
40
0.0
41
0.0
42
0.0
10
82.1094970703125
20
79.0337982177734
40
0.0
41
0.0
42
0.0
10
82.0121994018555
20
79.090202331543
40
0.0
41
0.0
42
0.0
10
81.6496963500977
20
79.168701171875
40
0.0
41
0.0
42
0.0
10
81.5168991088867
20
79.2086029052734
40
0.0
41
0.0
42
0.0
10
81.4830017089844
20
79.2085037231445
40
0.0
41
0.0
42
0.0
10
81.1190032958984
20
79.1005020141602
40
0.0
41
0.0
42
0.0
10
80.9893035888672
20
79.0880966186523
40
0.0
41
0.0
42
0.0
10
80.9056015014648
20
79.0068969726562
40
0.0
41
0.0
42
0.0
10
80.6983032226562
20
78.6448974609375
40
0.0
41
0.0
42
0.0
10
80.6519012451172
20
78.5561981201172
40
0.0
41
0.0
42
0.0
10
80.6353988647461
20
78.513298034668
40
0.0
41
0.0
42
0.0
10
80.5438003540039
20
78.1909027099609
40
0.0
41
0.0
42
0.0
10
80.5014038085938
20
78.0174026489258
40
0.0
41
0.0
42
0.0
10
80.4998016357422
20
77.4860000610352
40
0.0
41
0.0
42
0.0
210
0.0
220
0.0
230
1.0
0
LWPOLYLINE
5
42
330
1C
100
AcDbEntity
67
0
8
0
62
256
6
ByLayer
370
-1
48
1.0
60
0
100
AcDbPolyline
90
42
70
1
38
0.0
39
0.0
10
80.5485992431641
20
71.9844970703125
40
0.0
41
0.0
42
0.0
10
80.5971984863281
20
71.8514022827148
40
0.0
41
0.0
42
0.0
10
80.7006988525391
20
71.4880981445312
40
0.0
41
0.0
42
0.0
10
80.908203125
20
71.1258010864258
40
0.0
41
0.0
42
0.0
10
80.9919967651367
20
70.9949035644531
40
0.0
41
0.0
42
0.0
10
81.0804977416992
20
70.972297668457
40
0.0
41
0.0
42
0.0
10
81.4830017089844
20
70.8532028198242
40
0.0
41
0.0
42
0.0
10
81.5177001953125
20
70.8531036376953
40
0.0
41
0.0
42
0.0
10
82.0128021240234
20
70.9605026245117
40
0.0
41
0.0
42
0.0
10
82.0882034301758
20
70.9988021850586
40
0.0
41
0.0
42
0.0
10
82.1738967895508
20
71.0512008666992
40
0.0
41
0.0
42
0.0
10
82.5063018798828
20
71.2817993164062
40
0.0
41
0.0
42
0.0
10
82.6548004150391
20
71.4364013671875
40
0.0
41
0.0
42
0.0
10
82.7171020507812
20
71.4925003051758
40
0.0
41
0.0
42
0.0
10
82.8712997436523
20
71.8541030883789
40
0.0
41
0.0
42
0.0
10
82.9432983398438
20
71.9853973388672
40
0.0
41
0.0
42
0.0
10
82.9449996948242
20
72.3205032348633
40
0.0
41
0.0
42
0.0
10
82.9591979980469
20
72.4809036254883
40
0.0
41
0.0
42
0.0
10
82.9589996337891
20
72.5174026489258
40
0.0
41
0.0
42
0.0
10
82.927001953125
20
72.6491012573242
40
0.0
41
0.0
42
0.0
10
82.803596496582
20
73.0111999511719
40
0.0
41
0.0
42
0.0
10
82.7272033691406
20
73.143798828125
40
0.0
41
0.0
42
0.0
10
82.5449981689453
20
73.4160003662109
40
0.0
41
0.0
42
0.0
10
82.5057983398438
20
73.4704971313477
40
0.0
41
0.0
42
0.0
10
82.4468002319336
20
73.500602722168
40
0.0
41
0.0
42
0.0
10
82.3813018798828
20
73.5246963500977
40
0.0
41
0.0
42
0.0
10
82.1474990844727
20
73.620002746582
40
0.0
41
0.0
42
0.0
10
82.0164031982422
20
73.6660003662109
40
0.0
41
0.0
42
0.0
10
81.9831008911133
20
73.665901184082
40
0.0
41
0.0
42
0.0
10
81.8508987426758
20
73.6253967285156
40
0.0
41
0.0
42
0.0
10
81.6110992431641
20
73.5571975708008
40
0.0
41
0.0
42
0.0
10
81.4878997802734
20
73.5274963378906
40
0.0
41
0.0
42
0.0
10
81.4440994262695
20
73.5020980834961
40
0.0
41
0.0
42
0.0
10
81.3563995361328
20
73.4438018798828
40
0.0
41
0.0
42
0.0
10
80.9922027587891
20
73.209602355957
40
0.0
41
0.0
42
0.0
10
80.8712997436523
20
73.1139984130859
40
0.0
41
0.0
42
0.0
10
80.7511978149414
20
73.0066986083984
40
0.0
41
0.0
42
0.0
10
80.55419921875
20
72.6466979980469
40
0.0
41
0.0
42
0.0
10
80.5431976318359
20
72.6110992431641
40
0.0
41
0.0
42
0.0
10
80.5186004638672
20
72.5174026489258
40
0.0
41
0.0
42
0.0
10
80.5211029052734
20
72.3302993774414
40
0.0
41
0.0
42
0.0
10
80.5485992431641
20
71.9844970703125
40
0.0
41
0.0
42
0.0
210
0.0
220
0.0
230
1.0
0
LWPOLYLINE
5
43
330
1C
100
AcDbEntity
67
0
8
0
62
256
6
ByLayer
370
-1
48
1.0
60
0
100
AcDbPolyline
90
37
70
1
38
0.0
39
0.0
10
80.5330963134766
20
72.2647018432617
40
0.0
41
0.0
42
0.0
10
80.5294036865234
20
72.4850006103516
40
0.0
41
0.0
42
0.0
10
80.5562973022461
20
72.5829010009766
40
0.0
41
0.0
42
0.0
10
80.7809982299805
20
72.9932022094727
40
0.0
41
0.0
42
0.0
10
80.8707962036133
20
73.0735015869141
40
0.0
41
0.0
42
0.0
10
81.007698059082
20
73.1817016601562
40
0.0
41
0.0
42
0.0
10
81.5115966796875
20
73.5064010620117
40
0.0
41
0.0
42
0.0
10
81.6541976928711
20
73.5407028198242
40
0.0
41
0.0
42
0.0
10
81.9189987182617
20
73.6159973144531
40
0.0
41
0.0
42
0.0
10
81.9990997314453
20
73.6405029296875
40
0.0
41
0.0
42
0.0
10
82.0823974609375
20
73.6113967895508
40
0.0
41
0.0
42
0.0
10
82.2471008300781
20
73.5441970825195
40
0.0
41
0.0
42
0.0
10
82.3697967529297
20
73.4991989135742
40
0.0
41
0.0
42
0.0
10
82.4940032958984
20
73.4357986450195
40
0.0
41
0.0
42
0.0
10
82.5269012451172
20
73.3899993896484
40
0.0
41
0.0
42
0.0
10
82.7301025390625
20
73.0859985351562
40
0.0
41
0.0
42
0.0
10
82.7863006591797
20
72.9886016845703
40
0.0
41
0.0
42
0.0
10
82.9254989624023
20
72.5808029174805
40
0.0
41
0.0
42
0.0
10
82.9470977783203
20
72.4922027587891
40
0.0
41
0.0
42
0.0
10
82.9393997192383
20
72.4060974121094
40
0.0
41
0.0
42
0.0
10
82.9374008178711
20
72.0145034790039
40
0.0
41
0.0
42
0.0
10
82.8833999633789
20
71.9158020019531
40
0.0
41
0.0
42
0.0
10
82.7091979980469
20
71.5074005126953
40
0.0
41
0.0
42
0.0
10
82.660400390625
20
71.4635009765625
40
0.0
41
0.0
42
0.0
10
82.4935989379883
20
71.2901000976562
40
0.0
41
0.0
42
0.0
10
82.1858978271484
20
71.0762023925781
40
0.0
41
0.0
42
0.0
10
82.0636978149414
20
71.0015029907227
40
0.0
41
0.0
42
0.0
10
81.9870986938477
20
70.9626007080078
40
0.0
41
0.0
42
0.0
10
81.5020980834961
20
70.8574981689453
40
0.0
41
0.0
42
0.0
10
81.149299621582
20
70.9619979858398
40
0.0
41
0.0
42
0.0
10
81.0103988647461
20
70.9975967407227
40
0.0
41
0.0
42
0.0
10
81.0009002685547
20
71.0063018798828
40
0.0
41
0.0
42
0.0
10
80.9340972900391
20
71.1099014282227
40
0.0
41
0.0
42
0.0
10
80.7039031982422
20
71.5117034912109
40
0.0
41
0.0
42
0.0
10
80.5884017944336
20
71.9184036254883
40
0.0
41
0.0
42
0.0
10
80.5529022216797
20
72.0154037475586
40
0.0
41
0.0
42
0.0
10
80.5330963134766
20
72.2647018432617
40
0.0
41
0.0
42
0.0
210
0.0
220
0.0
230
1.0
0
LWPOLYLINE
5
44
330
1C
100
AcDbEntity
67
0
8
0
62
256
6
ByLayer
370
-1
48
1.0
60
0
100
AcDbPolyline
90
33
70
1
38
0.0
39
0.0
10
84.7881011962891
20
80.4813003540039
40
0.0
41
0.0
42
0.0
10
84.8072967529297
20
80.3473968505859
40
0.0
41
0.0
42
0.0
10
84.8393020629883
20
79.9837036132812
40
0.0
41
0.0
42
0.0
10
84.8760986328125
20
79.8498992919922
40
0.0
41
0.0
42
0.0
10
84.9529037475586
20
79.4858016967773
40
0.0
41
0.0
42
0.0
10
84.9683990478516
20
79.4441986083984
40
0.0
41
0.0
42
0.0
10
84.9932022094727
20
79.3924026489258
40
0.0
41
0.0
42
0.0
10
84.9990005493164
20
79.3924026489258
40
0.0
41
0.0
42
0.0
10
84.9989013671875
20
79.4209976196289
40
0.0
41
0.0
42
0.0
10
84.9788970947266
20
79.4629974365234
40
0.0
41
0.0
42
0.0
10
84.9598999023438
20
79.5140991210938
40
0.0
41
0.0
42
0.0
10
84.8741989135742
20
79.9199981689453
40
0.0
41
0.0
42
0.0
10
84.8477020263672
20
80.0161972045898
40
0.0
41
0.0
42
0.0
10
84.8119964599609
20
80.4225006103516
40
0.0
41
0.0
42
0.0
10
84.798698425293
20
80.5149993896484
40
0.0
41
0.0
42
0.0
10
84.8041000366211
20
80.8851013183594
40
0.0
41
0.0
42
0.0
10
84.8040008544922
20
80.9244003295898
40
0.0
41
0.0
42
0.0
10
84.8005981445312
20
80.9899978637695
40
0.0
41
0.0
42
0.0
10
84.8758010864258
20
81.3877029418945
40
0.0
41
0.0
42
0.0
10
84.8835983276367
20
81.4857025146484
40
0.0
41
0.0
42
0.0
10
84.9344024658203
20
81.5863037109375
40
0.0
41
0.0
42
0.0
10
84.9477005004883
20
81.6033020019531
40
0.0
41
0.0
42
0.0
10
84.9990005493164
20
81.7011032104492
40
0.0
41
0.0
42
0.0
10
84.9990005493164
20
81.749397277832
40
0.0
41
0.0
42
0.0
10
84.9926986694336
20
81.7492980957031
40
0.0
41
0.0
42
0.0
10
84.9496994018555
20
81.6672973632812
40
0.0
41
0.0
42
0.0
10
84.9308013916016
20
81.6436004638672
40
0.0
41
0.0
42
0.0
10
84.8656997680664
20
81.5141983032227
40
0.0
41
0.0
42
0.0
10
84.8553009033203
20
81.3822021484375
40
0.0
41
0.0
42
0.0
10
84.7862014770508
20
81.0179977416992
40
0.0
41
0.0
42
0.0
10
84.7862014770508
20
80.9804992675781
40
0.0
41
0.0
42
0.0
10
84.7929000854492
20
80.8539962768555
40
0.0
41
0.0
42
0.0
10
84.7881011962891
20
80.4813003540039
40
0.0
41
0.0
42
0.0
210
0.0
220
0.0
230
1.0
0
LWPOLYLINE
5
45
330
1C
100
AcDbEntity
67
0
8
0
62
256
6
ByLayer
370
-1
48
1.0
60
0
100
AcDbPolyline
90
29
70
1
38
0.0
39
0.0
10
84.8432998657227
20
69.3856964111328
40
0.0
41
0.0
42
0.0
10
84.8491973876953
20
68.9821014404297
40
0.0
41
0.0
42
0.0
10
84.9253997802734
20
68.5795974731445
40
0.0
41
0.0
42
0.0
10
84.9495010375977
20
68.4876022338867
40
0.0
41
0.0
42
0.0
10
84.9926986694336
20
68.4051971435547
40
0.0
41
0.0
42
0.0
10
84.9990005493164
20
68.4051971435547
40
0.0
41
0.0
42
0.0
10
84.9988021850586
20
68.4352035522461
40
0.0
41
0.0
42
0.0
10
84.9585037231445
20
68.5122985839844
40
0.0
41
0.0
42
0.0
10
84.9224014282227
20
68.6502990722656
40
0.0
41
0.0
42
0.0
10
84.8527984619141
20
69.0177993774414
40
0.0
41
0.0
42
0.0
10
84.8475036621094
20
69.3841018676758
40
0.0
41
0.0
42
0.0
10
84.8399963378906
20
69.4972991943359
40
0.0
41
0.0
42
0.0
10
84.8709030151367
20
69.8461990356445
40
0.0
41
0.0
42
0.0
10
84.8751983642578
20
69.9824981689453
40
0.0
41
0.0
42
0.0
10
84.9525985717773
20
70.3489990234375
40
0.0
41
0.0
42
0.0
10
84.959602355957
20
70.3881988525391
40
0.0
41
0.0
42
0.0
10
84.9723968505859
20
70.4841003417969
40
0.0
41
0.0
42
0.0
10
84.9817962646484
20
70.5185012817383
40
0.0
41
0.0
42
0.0
10
84.9990005493164
20
70.5643997192383
40
0.0
41
0.0
42
0.0
10
84.9990005493164
20
70.5884017944336
40
0.0
41
0.0
42
0.0
10
84.994499206543
20
70.5884017944336
40
0.0
41
0.0
42
0.0
10
84.9834976196289
20
70.5590972900391
40
0.0
41
0.0
42
0.0
10
84.9717025756836
20
70.5158004760742
40
0.0
41
0.0
42
0.0
10
84.9559020996094
20
70.3970031738281
40
0.0
41
0.0
42
0.0
10
84.8758010864258
20
70.0174026489258
40
0.0
41
0.0
42
0.0
10
84.872802734375
20
69.923698425293
40
0.0
41
0.0
42
0.0
10
84.8371963500977
20
69.5189971923828
40
0.0
41
0.0
42
0.0
10
84.8370971679688
20
69.4885025024414
40
0.0
41
0.0
42
0.0
10
84.8432998657227
20
69.3856964111328
40
0.0
41
0.0
42
0.0
210
0.0
220
0.0
230
1.0
0
VIEWPORT
5
4A
330
46
100
AcDbEntity
67
1
8
0
62
256
6
ByLayer
370
-1
48
1.0
60
0
100
AcDbViewport
10
0.0
20
0.0
30
0.0
40
297.0
41
210.0
68
1
69
1
12
50.0
22
100.0
13
0.0
23
0.0
14
10.0
24
10.0
15
10.0
25
10.0
16
0.0
26
0.0
36
1.0
17
0.0
27
0.0
37
0.0
42
50.0
43
0.0
44
0.0
45
250.0
50
0.0
51
0.0
72
1000
90
819232
110
0.0
120
0.0
130
0.0
111
1.0
121
0.0
131
0.0
112
0.0
122
1.0
132
0.0
0
ENDSEC
0
SECTION
2
OBJECTS
0
DICTIONARY
5
50
330
0
100
AcDbDictionary
280
1
281
1
3
ACAD_GROUP
350
12
3
ACAD_LAYOUT
350
49
3
ACAD_DGNDEFINITIONS
350
F
3
ACAD_DWFDEFINITIONS
350
10
3
ACAD_PDFDEFINITIONS
350
11
3
ACAD_MLINESTYLE
350
B
3
ACAD_IMAGE_DICT
350
E
3
ACAD_IMAGE_VARS
350
21
0
DICTIONARY
5
12
330
50
100
AcDbDictionary
280
1
281
1
0
DICTIONARY
5
49
330
50
100
AcDbDictionary
280
1
281
1
3
Model
350
20
3
Layout1
350
4B
0
DICTIONARY
5
F
330
50
100
AcDbDictionary
280
1
281
1
0
DICTIONARY
5
10
330
50
100
AcDbDictionary
280
1
281
1
0
DICTIONARY
5
11
330
50
100
AcDbDictionary
280
1
281
1
0
DICTIONARY
5
B
330
50
100
AcDbDictionary
280
1
281
1
3
Standard
350
1B
0
DICTIONARY
5
E
330
50
100
AcDbDictionary
280
1
281
1
0
DICTIONARY
5
6
330
5
100
AcDbDictionary
280
1
281
1
3
ACAD_LAYERSTATES
360
51
0
DICTIONARY
5
51
330
6
100
AcDbDictionary
280
1
281
1
0
LAYOUT
5
20
330
49
100
AcDbPlotSettings
1

2
none_device
4
ISO_A4_(210.00_x_297.00_MM)
6

40
7.5
41
20.0
42
7.5
43
20.0
44
210.0
45
297.0
46
0.0
47
0.0
48
0.0
49
0.0
140
0.0
141
0.0
142
1.0
143
1.0
70
11952
72
1
73
1
74
1
7

75
0
76
0
77
2
78
300
147
1.0
148
0.0
149
0.0
100
AcDbLayout
1
Model
71
0
10
-20.0
20
-7.5
11
277.0
21
202.5
12
0.0
22
0.0
32
0.0
14
25.7
24
19.5
34
0.0
15
231.3
25
175.5
35
0.0
146
0.0
13
0.0
23
0.0
33
0.0
16
1.0
26
0.0
36
0.0
17
0.0
27
1.0
37
0.0
76
0
330
1C
0
LAYOUT
5
4B
330
49
100
AcDbPlotSettings
1

2
none_device
4
ISO_A4_(210.00_x_297.00_MM)
6

40
7.5
41
20.0
42
7.5
43
20.0
44
210.0
45
297.0
46
0.0
47
0.0
48
0.0
49
0.0
140
0.0
141
0.0
142
1.0
143
1.0
70
688
72
1
73
1
74
1
7

75
0
76
0
77
2
78
300
147
1.0
148
0.0
149
0.0
100
AcDbLayout
1
Layout1
71
1
10
-20.0
20
-7.5
11
277.0
21
202.5
12
0.0
22
0.0
32
0.0
14
25.7
24
19.5
34
0.0
15
231.3
25
175.5
35
0.0
146
0.0
13
0.0
23
0.0
33
0.0
16
1.0
26
0.0
36
0.0
17
0.0
27
1.0
37
0.0
76
0
330
46
0
MLINESTYLE
5
1B
330
B
100
AcDbMlineStyle
2
Standard
70
0
3

62
256
51
90.0
52
90.0
71
2
49
0.5
62
256
6
ByLayer
49
-0.5
62
256
6
ByLayer
0
RASTERVARIABLES
5
21
330
E
100
AcDbRasterVariables
90
0
70
1
71
1
72
0
0
ENDSEC
0
EOF
