999
DXF file generated by netDxf https://github.com/haplokuon/netDxf, Copyright(C) Daniel Carvajal, Licensed under MIT
0
SECTION
2
HEADER
9
$ACADVER
1
AC1015
9
$DWGCODEPAGE
3
ANSI_1252
9
$HANDSEED
5
3D
9
$ANGBASE
50
0.0
9
$ANGDIR
70
0
9
$ATTMODE
70
1
9
$AUNITS
70
0
9
$AUPREC
70
0
9
$CECOLOR
62
256
9
$CELTSCALE
40
1.0
9
$CELTYPE
6
ByLayer
9
$CELWEIGHT
370
-1
9
$CLAYER
8
0
9
$CMLJUST
70
0
9
$CMLSCALE
40
20.0
9
$CMLSTYLE
2
Standard
9
$DIMSTYLE
2
Standard
9
$TEXTSIZE
40
2.5
9
$TEXTSTYLE
7
Standard
9
$LUNITS
70
2
9
$LUPREC
70
4
9
$MIRRTEXT
70
0
9
$EXTNAMES
290
1
9
$INSBASE
10
0.0
20
0.0
30
0.0
9
$INSUNITS
70
0
9
$LTSCALE
40
1.0
9
$LWDISPLAY
290
0
9
$PDMODE
70
0
9
$PDSIZE
40
0.0
9
$PLINEGEN
70
0
9
$PSLTSCALE
70
1
9
$SPLINESEGS
70
8
9
$SURFU
70
6
9
$SURFV
70
6
9
$TDCREATE
40
2460823.48363635
9
$TDUCREATE
40
2460823.15030303
9
$TDUPDATE
40
2460823.48363637
9
$TDUUPDATE
40
2460823.15030303
9
$TDINDWG
40
0.0
9
$UCSORG
10
0.0
20
0.0
30
0.0
9
$UCSXDIR
10
1.0
20
0.0
30
0.0
9
$UCSYDIR
10
0.0
20
1.0
30
0.0
9
$DIMADEC
70
0
9
$DIMALT
70
0
9
$DIMALTD
70
2
9
$DIMALTF
40
25.4
9
$DIMALTRND
40
0.0
9
$DIMALTTD
70
2
9
$DIMALTTZ
70
0
9
$DIMALTU
70
2
9
$DIMALTZ
70
0
9
$DIMAPOST
1

9
$DIMATFIT
70
3
9
$DIMAUNIT
70
0
9
$DIMASZ
40
0.18
9
$DIMAZIN
70
0
9
$DIMSAH
70
0
9
$DIMBLK
1

9
$DIMLDRBLK
1

9
$DIMCEN
40
0.09
9
$DIMCLRD
70
0
9
$DIMCLRE
70
0
9
$DIMCLRT
70
0
9
$DIMDEC
70
4
9
$DIMDLE
40
0.0
9
$DIMDLI
40
0.38
9
$DIMDSEP
70
46
9
$DIMEXE
40
0.18
9
$DIMEXO
40
0.0625
9
$DIMFXLON
70
0
9
$DIMFXL
40
1.0
9
$DIMGAP
40
0.09
9
$DIMJUST
70
0
9
$DIMLFAC
40
1.0
9
$DIMLUNIT
70
2
9
$DIMLWD
70
-2
9
$DIMLWE
70
-2
9
$DIMPOST
1

9
$DIMRND
40
0.0
9
$DIMSCALE
40
1.0
9
$DIMSD1
70
0
9
$DIMSD2
70
0
9
$DIMSE1
70
0
9
$DIMSE2
70
0
9
$DIMSOXD
70
0
9
$DIMTAD
70
0
9
$DIMTDEC
70
4
9
$DIMTFAC
40
1.0
9
$DIMTIH
70
0
9
$DIMTIX
70
0
9
$DIMTM
40
0.0
9
$DIMTMOVE
70
0
9
$DIMTOFL
70
0
9
$DIMTOH
70
0
9
$DIMTOL
70
0
9
$DIMLIM
70
0
9
$DIMTOLJ
70
1
9
$DIMTP
40
0.0
9
$DIMTXT
40
0.18
9
$DIMTXTDIRECTION
70
0
9
$DIMTZIN
70
0
9
$DIMZIN
70
0
9
$DIMFRAC
70
0
9
$DIMLTYPE
6
ByBlock
9
$DIMLTEX1
6
ByBlock
9
$DIMLTEX2
6
ByBlock
0
ENDSEC
0
SECTION
2
CLASSES
0
CLASS
1
RASTERVARIABLES
2
AcDbRasterVariables
3
ISM
90
0
280
0
281
0
0
ENDSEC
0
SECTION
2
TABLES
0
TABLE
2
APPID
5
4
330
0
100
AcDbSymbolTable
70
5
0
APPID
5
19
330
4
100
AcDbSymbolTableRecord
100
AcDbRegAppTableRecord
2
ACAD
70
0
0
APPID
5
37
330
4
100
AcDbSymbolTableRecord
100
AcDbRegAppTableRecord
2
AcCmTransparency
70
0
0
APPID
5
38
330
4
100
AcDbSymbolTableRecord
100
AcDbRegAppTableRecord
2
AcAecLayerStandard
70
0
0
APPID
5
39
330
4
100
AcDbSymbolTableRecord
100
AcDbRegAppTableRecord
2
GradientColor1ACI
70
0
0
APPID
5
3A
330
4
100
AcDbSymbolTableRecord
100
AcDbRegAppTableRecord
2
GradientColor2ACI
70
0
0
ENDTAB
0
TABLE
2
VPORT
5
1
330
0
100
AcDbSymbolTable
70
1
0
VPORT
5
2
330
1
100
AcDbSymbolTableRecord
100
AcDbViewportTableRecord
2
*Active
70
0
10
0.0
20
0.0
11
1.0
21
1.0
12
0.0
22
0.0
13
0.0
23
0.0
14
0.5
24
0.5
15
10.0
25
10.0
16
0.0
26
0.0
36
1.0
17
0.0
27
0.0
37
0.0
40
10.0
41
1.0
75
0
76
1
0
ENDTAB
0
TABLE
2
LTYPE
5
7
330
0
100
AcDbSymbolTable
70
3
0
LTYPE
5
15
330
7
100
AcDbSymbolTableRecord
100
AcDbLinetypeTableRecord
2
Continuous
70
0
3
Solid line
72
65
73
0
40
0.0
0
LTYPE
5
16
330
7
100
AcDbSymbolTableRecord
100
AcDbLinetypeTableRecord
2
ByLayer
70
0
3

72
65
73
0
40
0.0
0
LTYPE
5
17
330
7
100
AcDbSymbolTableRecord
100
AcDbLinetypeTableRecord
2
ByBlock
70
0
3

72
65
73
0
40
0.0
0
ENDTAB
0
TABLE
2
LAYER
5
5
102
{ACAD_XDICTIONARY
360
6
102
}
330
0
100
AcDbSymbolTable
70
1
0
LAYER
5
14
330
5
100
AcDbSymbolTableRecord
100
AcDbLayerTableRecord
2
0
70
0
62
7
6
Continuous
290
1
370
-3
390
0
0
ENDTAB
0
TABLE
2
STYLE
5
8
330
0
100
AcDbSymbolTable
70
1
0
STYLE
5
18
330
8
100
AcDbSymbolTableRecord
100
AcDbTextStyleTableRecord
2
Standard
3
simplex.shx
70
0
71
0
40
0.0
41
1.0
42
0.0
50
0.0
0
ENDTAB
0
TABLE
2
DIMSTYLE
5
A
330
0
100
AcDbSymbolTable
70
1
100
AcDbDimStyleTable
0
DIMSTYLE
105
1A
330
A
100
AcDbSymbolTableRecord
100
AcDbDimStyleTableRecord
2
Standard
3

4

40
1.0
41
0.18
42
0.0625
43
0.38
44
0.18
45
0.0
46
0.0
47
0.0
48
0.0
49
1.0
70
0
71
0
72
0
73
0
74
0
75
0
76
0
77
0
78
0
79
0
140
0.18
141
0.09
143
25.4
144
1.0
146
1.0
147
0.09
148
0.0
170
0
171
2
172
0
174
0
175
0
176
0
177
0
178
0
179
0
271
4
272
4
273
2
274
2
275
0
276
0
277
2
278
46
279
0
280
0
281
0
282
0
283
1
284
0
285
0
286
0
289
3
290
0
294
0
340
18
173
0
345
17
346
17
347
17
371
-2
372
-2
0
ENDTAB
0
TABLE
2
VIEW
5
3
330
0
100
AcDbSymbolTable
70
0
0
ENDTAB
0
TABLE
2
UCS
5
C
330
0
100
AcDbSymbolTable
70
0
0
ENDTAB
0
TABLE
2
BLOCK_RECORD
5
D
330
0
100
AcDbSymbolTable
70
2
0
BLOCK_RECORD
5
1C
330
D
100
AcDbSymbolTableRecord
100
AcDbBlockTableRecord
2
*Model_Space
340
20
0
BLOCK_RECORD
5
31
330
D
100
AcDbSymbolTableRecord
100
AcDbBlockTableRecord
2
*Paper_Space
340
36
0
ENDTAB
0
ENDSEC
0
SECTION
2
BLOCKS
0
BLOCK
5
1E
330
1C
100
AcDbEntity
67
0
8
0
100
AcDbBlockBegin
2
*Model_Space
70
0
10
0.0
20
0.0
30
0.0
3
*Model_Space
4

0
ENDBLK
5
1D
330
1C
100
AcDbEntity
8
0
100
AcDbBlockEnd
0
BLOCK
5
33
330
31
100
AcDbEntity
67
1
8
0
100
AcDbBlockBegin
2
*Paper_Space
70
0
10
0.0
20
0.0
30
0.0
3
*Paper_Space
4

0
ENDBLK
5
32
330
31
100
AcDbEntity
8
0
100
AcDbBlockEnd
0
ENDSEC
0
SECTION
2
ENTITIES
0
LWPOLYLINE
5
22
330
1C
100
AcDbEntity
67
0
8
0
62
256
6
ByLayer
370
-1
48
1.0
60
0
100
AcDbPolyline
90
32
70
1
38
0.0
39
0.0
10
65.0073013305664
20
81.2326965332031
40
0.0
41
0.0
42
0.0
10
65.1569976806641
20
81.5131988525391
40
0.0
41
0.0
42
0.0
10
65.3179016113281
20
82.010498046875
40
0.0
41
0.0
42
0.0
10
65.4272003173828
20
82.5087966918945
40
0.0
41
0.0
42
0.0
10
65.4982986450195
20
82.9857025146484
40
0.0
41
0.0
42
0.0
10
65.5121994018555
20
83.4802017211914
40
0.0
41
0.0
42
0.0
10
65.5121002197266
20
83.5178985595703
40
0.0
41
0.0
42
0.0
10
65.4998016357422
20
83.5815963745117
40
0.0
41
0.0
42
0.0
10
65.3444976806641
20
83.8816986083984
40
0.0
41
0.0
42
0.0
10
65.3050003051758
20
83.9677963256836
40
0.0
41
0.0
42
0.0
10
65.3047027587891
20
84.0120010375977
40
0.0
41
0.0
42
0.0
10
65.2584991455078
20
84.0643005371094
40
0.0
41
0.0
42
0.0
10
65.0152969360352
20
84.1783981323242
40
0.0
41
0.0
42
0.0
10
65.0009994506836
20
84.1783981323242
40
0.0
41
0.0
42
0.0
10
65.0009002685547
20
84.1455993652344
40
0.0
41
0.0
42
0.0
10
65.2674026489258
20
84.0206985473633
40
0.0
41
0.0
42
0.0
10
65.2963027954102
20
83.9878997802734
40
0.0
41
0.0
42
0.0
10
65.296501159668
20
83.9577026367188
40
0.0
41
0.0
42
0.0
10
65.3057022094727
20
83.9219970703125
40
0.0
41
0.0
42
0.0
10
65.42919921875
20
83.6538009643555
40
0.0
41
0.0
42
0.0
10
65.5
20
83.5174026489258
40
0.0
41
0.0
42
0.0
10
65.5057983398438
20
83.486701965332
40
0.0
41
0.0
42
0.0
10
65.4934005737305
20
83.0637969970703
40
0.0
41
0.0
42
0.0
10
65.4204025268555
20
82.5808029174805
40
0.0
41
0.0
42
0.0
10
65.4037017822266
20
82.5150985717773
40
0.0
41
0.0
42
0.0
10
65.3089981079102
20
82.0791015625
40
0.0
41
0.0
42
0.0
10
65.2852020263672
20
82.0131988525391
40
0.0
41
0.0
42
0.0
10
65.1447982788086
20
81.5764999389648
40
0.0
41
0.0
42
0.0
10
65.1075973510742
20
81.5099029541016
40
0.0
41
0.0
42
0.0
10
65.0009994506836
20
81.3090972900391
40
0.0
41
0.0
42
0.0
10
65.0009994506836
20
81.2326965332031
40
0.0
41
0.0
42
0.0
10
65.0073013305664
20
81.2326965332031
40
0.0
41
0.0
42
0.0
210
0.0
220
0.0
230
1.0
0
LWPOLYLINE
5
23
330
1C
100
AcDbEntity
67
0
8
0
62
256
6
ByLayer
370
-1
48
1.0
60
0
100
AcDbPolyline
90
259
70
1
38
0.0
39
0.0
10
65.3989028930664
20
73.0793991088867
40
0.0
41
0.0
42
0.0
10
65.3992004394531
20
72.9834976196289
40
0.0
41
0.0
42
0.0
10
65.4098968505859
20
72.9523010253906
40
0.0
41
0.0
42
0.0
10
65.5003967285156
20
72.5871963500977
40
0.0
41
0.0
42
0.0
10
65.5217971801758
20
72.4878005981445
40
0.0
41
0.0
42
0.0
10
65.7956008911133
20
72.0161972045898
40
0.0
41
0.0
42
0.0
10
65.8110961914062
20
71.9935989379883
40
0.0
41
0.0
42
0.0
10
66.3115997314453
20
71.5151977539062
40
0.0
41
0.0
42
0.0
10
66.3356018066406
20
71.4943008422852
40
0.0
41
0.0
42
0.0
10
66.4922027587891
20
71.3780975341797
40
0.0
41
0.0
42
0.0
10
66.9666976928711
20
71.0475006103516
40
0.0
41
0.0
42
0.0
10
66.9908981323242
20
71.0316009521484
40
0.0
41
0.0
42
0.0
10
67.0619964599609
20
70.9904022216797
40
0.0
41
0.0
42
0.0
10
67.4907989501953
20
70.7126998901367
40
0.0
41
0.0
42
0.0
10
67.5157012939453
20
70.6987991333008
40
0.0
41
0.0
42
0.0
10
67.8293991088867
20
70.5001983642578
40
0.0
41
0.0
42
0.0
10
67.9949035644531
20
70.3483963012695
40
0.0
41
0.0
42
0.0
10
68.2801971435547
20
70.0300979614258
40
0.0
41
0.0
42
0.0
10
68.2947006225586
20
70.0190963745117
40
0.0
41
0.0
42
0.0
10
68.3134002685547
20
69.9870986938477
40
0.0
41
0.0
42
0.0
10
68.3171997070312
20
69.9629974365234
40
0.0
41
0.0
42
0.0
10
68.4994964599609
20
69.5414962768555
40
0.0
41
0.0
42
0.0
10
68.5161972045898
20
69.4917984008789
40
0.0
41
0.0
42
0.0
10
68.6356964111328
20
69.049201965332
40
0.0
41
0.0
42
0.0
10
68.6449966430664
20
68.984001159668
40
0.0
41
0.0
42
0.0
10
68.7562026977539
20
68.5495986938477
40
0.0
41
0.0
42
0.0
10
68.768798828125
20
68.4850997924805
40
0.0
41
0.0
42
0.0
10
68.9033966064453
20
68.0509033203125
40
0.0
41
0.0
42
0.0
10
68.9217987060547
20
67.9869003295898
40
0.0
41
0.0
42
0.0
10
68.9449996948242
20
67.9318008422852
40
0.0
41
0.0
42
0.0
10
68.9992980957031
20
67.7884979248047
40
0.0
41
0.0
42
0.0
10
69.1278991699219
20
67.4989013671875
40
0.0
41
0.0
42
0.0
10
69.4024963378906
20
67.0566024780273
40
0.0
41
0.0
42
0.0
10
69.4476013183594
20
66.9932022094727
40
0.0
41
0.0
42
0.0
10
69.4615020751953
20
66.9783020019531
40
0.0
41
0.0
42
0.0
10
69.4951019287109
20
66.9320983886719
40
0.0
41
0.0
42
0.0
10
69.927001953125
20
66.5971984863281
40
0.0
41
0.0
42
0.0
10
69.9889984130859
20
66.5577011108398
40
0.0
41
0.0
42
0.0
10
70.1513977050781
20
66.5040969848633
40
0.0
41
0.0
42
0.0
10
70.1763000488281
20
66.4979019165039
40
0.0
41
0.0
42
0.0
10
70.4835968017578
20
66.404899597168
40
0.0
41
0.0
42
0.0
10
70.9557037353516
20
66.377197265625
40
0.0
41
0.0
42
0.0
10
71.0192031860352
20
66.3764038085938
40
0.0
41
0.0
42
0.0
10
71.5171966552734
20
66.4197998046875
40
0.0
41
0.0
42
0.0
10
71.993896484375
20
66.5036010742188
40
0.0
41
0.0
42
0.0
10
72.4896011352539
20
66.6184005737305
40
0.0
41
0.0
42
0.0
10
72.5146026611328
20
66.6258010864258
40
0.0
41
0.0
42
0.0
10
72.989501953125
20
66.7349014282227
40
0.0
41
0.0
42
0.0
10
73.0158004760742
20
66.7428970336914
40
0.0
41
0.0
42
0.0
10
73.4962997436523
20
66.7920989990234
40
0.0
41
0.0
42
0.0
10
73.9606018066406
20
66.701301574707
40
0.0
41
0.0
42
0.0
10
73.9887008666992
20
66.6911010742188
40
0.0
41
0.0
42
0.0
10
74.3019027709961
20
66.5149002075195
40
0.0
41
0.0
42
0.0
10
74.3211975097656
20
66.496696472168
40
0.0
41
0.0
42
0.0
10
74.3443984985352
20
66.4828033447266
40
0.0
41
0.0
42
0.0
10
74.489501953125
20
66.4188003540039
40
0.0
41
0.0
42
0.0
10
74.9265975952148
20
66.1595993041992
40
0.0
41
0.0
42
0.0
10
74.9916000366211
20
66.1112976074219
40
0.0
41
0.0
42
0.0
10
75.1801986694336
20
65.9981002807617
40
0.0
41
0.0
42
0.0
10
75.4894027709961
20
65.8243026733398
40
0.0
41
0.0
42
0.0
10
75.9234008789062
20
65.6251983642578
40
0.0
41
0.0
42
0.0
10
75.9869995117188
20
65.5979995727539
40
0.0
41
0.0
42
0.0
10
76.3227005004883
20
65.5008010864258
40
0.0
41
0.0
42
0.0
10
76.3884963989258
20
65.4841003417969
40
0.0
41
0.0
42
0.0
10
76.4849014282227
20
65.4477005004883
40
0.0
41
0.0
42
0.0
10
76.9160995483398
20
65.3989028930664
40
0.0
41
0.0
42
0.0
10
77.0164031982422
20
65.3992004394531
40
0.0
41
0.0
42
0.0
10
77.0475006103516
20
65.4098968505859
40
0.0
41
0.0
42
0.0
10
77.41259765625
20
65.5003967285156
40
0.0
41
0.0
42
0.0
10
77.5122985839844
20
65.5220031738281
40
0.0
41
0.0
42
0.0
10
77.9837036132812
20
65.7957000732422
40
0.0
41
0.0
42
0.0
10
78.0063018798828
20
65.8110961914062
40
0.0
41
0.0
42
0.0
10
78.4845962524414
20
66.3116989135742
40
0.0
41
0.0
42
0.0
10
78.5036010742188
20
66.3330993652344
40
0.0
41
0.0
42
0.0
10
78.621696472168
20
66.4922027587891
40
0.0
41
0.0
42
0.0
10
78.9682998657227
20
66.9912033081055
40
0.0
41
0.0
42
0.0
10
79.0093002319336
20
67.0621032714844
40
0.0
41
0.0
42
0.0
10
79.2870025634766
20
67.4907989501953
40
0.0
41
0.0
42
0.0
10
79.3010025024414
20
67.5157012939453
40
0.0
41
0.0
42
0.0
10
79.4994964599609
20
67.8294982910156
40
0.0
41
0.0
42
0.0
10
79.6513977050781
20
67.9949035644531
40
0.0
41
0.0
42
0.0
10
79.9697036743164
20
68.2802963256836
40
0.0
41
0.0
42
0.0
10
79.9807968139648
20
68.2947998046875
40
0.0
41
0.0
42
0.0
10
80.0128021240234
20
68.3134002685547
40
0.0
41
0.0
42
0.0
10
80.0367965698242
20
68.3171997070312
40
0.0
41
0.0
42
0.0
10
80.4582977294922
20
68.4996032714844
40
0.0
41
0.0
42
0.0
10
80.5080032348633
20
68.5161972045898
40
0.0
41
0.0
42
0.0
10
80.9506988525391
20
68.6356964111328
40
0.0
41
0.0
42
0.0
10
81.0158996582031
20
68.6451034545898
40
0.0
41
0.0
42
0.0
10
81.4503021240234
20
68.7562026977539
40
0.0
41
0.0
42
0.0
10
81.5148010253906
20
68.768798828125
40
0.0
41
0.0
42
0.0
10
81.9489974975586
20
68.9033966064453
40
0.0
41
0.0
42
0.0
10
82.0130004882812
20
68.9218978881836
40
0.0
41
0.0
42
0.0
10
82.068000793457
20
68.9449996948242
40
0.0
41
0.0
42
0.0
10
82.2113037109375
20
68.9992980957031
40
0.0
41
0.0
42
0.0
10
82.5009002685547
20
69.1278991699219
40
0.0
41
0.0
42
0.0
10
82.9432983398438
20
69.4024963378906
40
0.0
41
0.0
42
0.0
10
83.0065994262695
20
69.4476013183594
40
0.0
41
0.0
42
0.0
10
83.0214996337891
20
69.4615020751953
40
0.0
41
0.0
42
0.0
10
83.0665969848633
20
69.4944000244141
40
0.0
41
0.0
42
0.0
10
83.0971984863281
20
69.5450973510742
40
0.0
41
0.0
42
0.0
10
83.4422988891602
20
69.9899978637695
40
0.0
41
0.0
42
0.0
10
83.4955978393555
20
70.1513977050781
40
0.0
41
0.0
42
0.0
10
83.5018005371094
20
70.1763000488281
40
0.0
41
0.0
42
0.0
10
83.5948028564453
20
70.4837036132812
40
0.0
41
0.0
42
0.0
10
83.6234970092773
20
70.980598449707
40
0.0
41
0.0
42
0.0
10
83.6233978271484
20
71.0189971923828
40
0.0
41
0.0
42
0.0
10
83.5799026489258
20
71.5171966552734
40
0.0
41
0.0
42
0.0
10
83.4961013793945
20
71.9934997558594
40
0.0
41
0.0
42
0.0
10
83.484001159668
20
72.0399017333984
40
0.0
41
0.0
42
0.0
10
83.3739013671875
20
72.5145034790039
40
0.0
41
0.0
42
0.0
10
83.3662033081055
20
72.5394973754883
40
0.0
41
0.0
42
0.0
10
83.2567977905273
20
73.0165023803711
40
0.0
41
0.0
42
0.0
10
83.2074966430664
20
73.4914016723633
40
0.0
41
0.0
42
0.0
10
83.2145004272461
20
73.5105972290039
40
0.0
41
0.0
42
0.0
10
83.3078994750977
20
73.9872970581055
40
0.0
41
0.0
42
0.0
10
83.4849014282227
20
74.302001953125
40
0.0
41
0.0
42
0.0
10
83.5030975341797
20
74.3212966918945
40
0.0
41
0.0
42
0.0
10
83.5168991088867
20
74.3443984985352
40
0.0
41
0.0
42
0.0
10
83.5813980102539
20
74.4906005859375
40
0.0
41
0.0
42
0.0
10
83.6304016113281
20
74.5566024780273
40
0.0
41
0.0
42
0.0
10
84.0017013549805
20
75.1801986694336
40
0.0
41
0.0
42
0.0
10
84.1752014160156
20
75.4893035888672
40
0.0
41
0.0
42
0.0
10
84.2027969360352
20
75.5534973144531
40
0.0
41
0.0
42
0.0
10
84.4018020629883
20
75.9872970581055
40
0.0
41
0.0
42
0.0
10
84.4990005493164
20
76.3227996826172
40
0.0
41
0.0
42
0.0
10
84.5156021118164
20
76.3886032104492
40
0.0
41
0.0
42
0.0
10
84.5515975952148
20
76.4838027954102
40
0.0
41
0.0
42
0.0
10
84.5514984130859
20
76.5477981567383
40
0.0
41
0.0
42
0.0
10
84.6006011962891
20
76.9811019897461
40
0.0
41
0.0
42
0.0
10
84.6005020141602
20
77.0164031982422
40
0.0
41
0.0
42
0.0
10
84.5897979736328
20
77.0475006103516
40
0.0
41
0.0
42
0.0
10
84.4996032714844
20
77.4116973876953
40
0.0
41
0.0
42
0.0
10
84.477897644043
20
77.5113983154297
40
0.0
41
0.0
42
0.0
10
84.4626998901367
20
77.5336990356445
40
0.0
41
0.0
42
0.0
10
84.1880035400391
20
78.0067977905273
40
0.0
41
0.0
42
0.0
10
83.688102722168
20
78.4845962524414
40
0.0
41
0.0
42
0.0
10
83.6666030883789
20
78.5036010742188
40
0.0
41
0.0
42
0.0
10
83.507698059082
20
78.6215972900391
40
0.0
41
0.0
42
0.0
10
83.0085983276367
20
78.9682998657227
40
0.0
41
0.0
42
0.0
10
82.9376983642578
20
79.0092010498047
40
0.0
41
0.0
42
0.0
10
82.5091018676758
20
79.2870025634766
40
0.0
41
0.0
42
0.0
10
82.4841995239258
20
79.3009033203125
40
0.0
41
0.0
42
0.0
10
82.1703033447266
20
79.499397277832
40
0.0
41
0.0
42
0.0
10
82.0048980712891
20
79.6512985229492
40
0.0
41
0.0
42
0.0
10
81.7194976806641
20
79.969596862793
40
0.0
41
0.0
42
0.0
10
81.7050018310547
20
79.9806976318359
40
0.0
41
0.0
42
0.0
10
81.6864013671875
20
80.0126037597656
40
0.0
41
0.0
42
0.0
10
81.6818008422852
20
80.0384979248047
40
0.0
41
0.0
42
0.0
10
81.5002975463867
20
80.4582977294922
40
0.0
41
0.0
42
0.0
10
81.4831008911133
20
80.5092010498047
40
0.0
41
0.0
42
0.0
10
81.4729995727539
20
80.5807037353516
40
0.0
41
0.0
42
0.0
10
81.3547973632812
20
81.0151977539062
40
0.0
41
0.0
42
0.0
10
81.3421020507812
20
81.0802993774414
40
0.0
41
0.0
42
0.0
10
81.2310028076172
20
81.5143966674805
40
0.0
41
0.0
42
0.0
10
81.2125015258789
20
81.5789031982422
40
0.0
41
0.0
42
0.0
10
81.0779037475586
20
82.0127029418945
40
0.0
41
0.0
42
0.0
10
81.0547027587891
20
82.0679016113281
40
0.0
41
0.0
42
0.0
10
81.0005035400391
20
82.2113037109375
40
0.0
41
0.0
42
0.0
10
80.8676986694336
20
82.5090026855469
40
0.0
41
0.0
42
0.0
10
80.8218994140625
20
82.5731964111328
40
0.0
41
0.0
42
0.0
10
80.5516967773438
20
83.0070037841797
40
0.0
41
0.0
42
0.0
10
80.538200378418
20
83.0214004516602
40
0.0
41
0.0
42
0.0
10
80.5054016113281
20
83.0664978027344
40
0.0
41
0.0
42
0.0
10
80.4546966552734
20
83.0971984863281
40
0.0
41
0.0
42
0.0
10
80.0099029541016
20
83.4422988891602
40
0.0
41
0.0
42
0.0
10
79.8483963012695
20
83.4954986572266
40
0.0
41
0.0
42
0.0
10
79.8235015869141
20
83.5018005371094
40
0.0
41
0.0
42
0.0
10
79.5161972045898
20
83.5948028564453
40
0.0
41
0.0
42
0.0
10
79.0193023681641
20
83.6234970092773
40
0.0
41
0.0
42
0.0
10
78.9809036254883
20
83.6233978271484
40
0.0
41
0.0
42
0.0
10
78.4826965332031
20
83.5799026489258
40
0.0
41
0.0
42
0.0
10
78.0063018798828
20
83.4961013793945
40
0.0
41
0.0
42
0.0
10
77.9599990844727
20
83.484001159668
40
0.0
41
0.0
42
0.0
10
77.4853973388672
20
83.3740005493164
40
0.0
41
0.0
42
0.0
10
77.4604034423828
20
83.3662033081055
40
0.0
41
0.0
42
0.0
10
76.9833984375
20
83.2567977905273
40
0.0
41
0.0
42
0.0
10
76.5084991455078
20
83.2074966430664
40
0.0
41
0.0
42
0.0
10
76.4893035888672
20
83.2145004272461
40
0.0
41
0.0
42
0.0
10
76.0126037597656
20
83.3078002929688
40
0.0
41
0.0
42
0.0
10
75.6977996826172
20
83.4848022460938
40
0.0
41
0.0
42
0.0
10
75.6784973144531
20
83.5029983520508
40
0.0
41
0.0
42
0.0
10
75.6552963256836
20
83.5168991088867
40
0.0
41
0.0
42
0.0
10
75.5093002319336
20
83.581298828125
40
0.0
41
0.0
42
0.0
10
75.4431991577148
20
83.6304016113281
40
0.0
41
0.0
42
0.0
10
74.8196029663086
20
84.0017013549805
40
0.0
41
0.0
42
0.0
10
74.5105972290039
20
84.1752014160156
40
0.0
41
0.0
42
0.0
10
74.446403503418
20
84.2026977539062
40
0.0
41
0.0
42
0.0
10
74.0126037597656
20
84.4018020629883
40
0.0
41
0.0
42
0.0
10
73.677001953125
20
84.4989013671875
40
0.0
41
0.0
42
0.0
10
73.611198425293
20
84.5156021118164
40
0.0
41
0.0
42
0.0
10
73.5160980224609
20
84.5515975952148
40
0.0
41
0.0
42
0.0
10
73.4521026611328
20
84.5514984130859
40
0.0
41
0.0
42
0.0
10
73.018798828125
20
84.6006011962891
40
0.0
41
0.0
42
0.0
10
72.9834976196289
20
84.6005020141602
40
0.0
41
0.0
42
0.0
10
72.9523010253906
20
84.5897979736328
40
0.0
41
0.0
42
0.0
10
72.5880966186523
20
84.4996032714844
40
0.0
41
0.0
42
0.0
10
72.4886016845703
20
84.4781036376953
40
0.0
41
0.0
42
0.0
10
72.4662017822266
20
84.4627990722656
40
0.0
41
0.0
42
0.0
10
71.9931030273438
20
84.188102722168
40
0.0
41
0.0
42
0.0
10
71.5152969360352
20
83.6882019042969
40
0.0
41
0.0
42
0.0
10
71.4943008422852
20
83.6641998291016
40
0.0
41
0.0
42
0.0
10
71.3780975341797
20
83.507698059082
40
0.0
41
0.0
42
0.0
10
71.0475006103516
20
83.033203125
40
0.0
41
0.0
42
0.0
10
71.0316009521484
20
83.008903503418
40
0.0
41
0.0
42
0.0
10
70.9905014038086
20
82.9377975463867
40
0.0
41
0.0
42
0.0
10
70.7126998901367
20
82.5091018676758
40
0.0
41
0.0
42
0.0
10
70.6987991333008
20
82.4841995239258
40
0.0
41
0.0
42
0.0
10
70.5002975463867
20
82.1703033447266
40
0.0
41
0.0
42
0.0
10
70.348503112793
20
82.004997253418
40
0.0
41
0.0
42
0.0
10
70.0301971435547
20
81.719596862793
40
0.0
41
0.0
42
0.0
10
70.0192031860352
20
81.7050018310547
40
0.0
41
0.0
42
0.0
10
69.9872970581055
20
81.6864013671875
40
0.0
41
0.0
42
0.0
10
69.9611968994141
20
81.6818008422852
40
0.0
41
0.0
42
0.0
10
69.5414962768555
20
81.5002975463867
40
0.0
41
0.0
42
0.0
10
69.4906005859375
20
81.4831008911133
40
0.0
41
0.0
42
0.0
10
69.4191970825195
20
81.4729995727539
40
0.0
41
0.0
42
0.0
10
68.9847030639648
20
81.3547973632812
40
0.0
41
0.0
42
0.0
10
68.9196014404297
20
81.3421020507812
40
0.0
41
0.0
42
0.0
10
68.4854965209961
20
81.2311019897461
40
0.0
41
0.0
42
0.0
10
68.4209976196289
20
81.2125015258789
40
0.0
41
0.0
42
0.0
10
67.9871978759766
20
81.0780029296875
40
0.0
41
0.0
42
0.0
10
67.9319000244141
20
81.0547027587891
40
0.0
41
0.0
42
0.0
10
67.7884979248047
20
81.0005035400391
40
0.0
41
0.0
42
0.0
10
67.4908981323242
20
80.8677978515625
40
0.0
41
0.0
42
0.0
10
67.4265975952148
20
80.8218994140625
40
0.0
41
0.0
42
0.0
10
66.9927978515625
20
80.5516967773438
40
0.0
41
0.0
42
0.0
10
66.9783020019531
20
80.538200378418
40
0.0
41
0.0
42
0.0
10
66.9321975708008
20
80.5047988891602
40
0.0
41
0.0
42
0.0
10
66.5971984863281
20
80.0727996826172
40
0.0
41
0.0
42
0.0
10
66.5577011108398
20
80.0109024047852
40
0.0
41
0.0
42
0.0
10
66.5042037963867
20
79.8483963012695
40
0.0
41
0.0
42
0.0
10
66.4979019165039
20
79.8235015869141
40
0.0
41
0.0
42
0.0
10
66.404899597168
20
79.5162963867188
40
0.0
41
0.0
42
0.0
10
66.377197265625
20
79.0441970825195
40
0.0
41
0.0
42
0.0
10
66.3762969970703
20
78.9806976318359
40
0.0
41
0.0
42
0.0
10
66.4197998046875
20
78.4826965332031
40
0.0
41
0.0
42
0.0
10
66.5036010742188
20
78.0058975219727
40
0.0
41
0.0
42
0.0
10
66.6183013916016
20
77.5102996826172
40
0.0
41
0.0
42
0.0
10
66.6258010864258
20
77.4852981567383
40
0.0
41
0.0
42
0.0
10
66.7349014282227
20
77.0103988647461
40
0.0
41
0.0
42
0.0
10
66.7428970336914
20
76.9841003417969
40
0.0
41
0.0
42
0.0
10
66.7921981811523
20
76.5036010742188
40
0.0
41
0.0
42
0.0
10
66.701301574707
20
76.0392990112305
40
0.0
41
0.0
42
0.0
10
66.6911010742188
20
76.0111999511719
40
0.0
41
0.0
42
0.0
10
66.5149002075195
20
75.6977996826172
40
0.0
41
0.0
42
0.0
10
66.4968032836914
20
75.6784973144531
40
0.0
41
0.0
42
0.0
10
66.4828033447266
20
75.655403137207
40
0.0
41
0.0
42
0.0
10
66.4188003540039
20
75.5102996826172
40
0.0
41
0.0
42
0.0
10
66.1596984863281
20
75.0733032226562
40
0.0
41
0.0
42
0.0
10
66.1113967895508
20
75.0082015991211
40
0.0
41
0.0
42
0.0
10
65.9981002807617
20
74.8196029663086
40
0.0
41
0.0
42
0.0
10
65.8243026733398
20
74.5103988647461
40
0.0
41
0.0
42
0.0
10
65.6252975463867
20
74.0764007568359
40
0.0
41
0.0
42
0.0
10
65.5979995727539
20
74.0129013061523
40
0.0
41
0.0
42
0.0
10
65.5008010864258
20
73.6771011352539
40
0.0
41
0.0
42
0.0
10
65.4841003417969
20
73.611198425293
40
0.0
41
0.0
42
0.0
10
65.4477005004883
20
73.5149993896484
40
0.0
41
0.0
42
0.0
10
65.3989028930664
20
73.0793991088867
40
0.0
41
0.0
42
0.0
210
0.0
220
0.0
230
1.0
0
LWPOLYLINE
5
24
330
1C
100
AcDbEntity
67
0
8
0
62
256
6
ByLayer
370
-1
48
1.0
60
0
100
AcDbPolyline
90
259
70
1
38
0.0
39
0.0
10
65.493896484375
20
73.5931015014648
40
0.0
41
0.0
42
0.0
10
65.6071014404297
20
73.9872970581055
40
0.0
41
0.0
42
0.0
10
65.8367004394531
20
74.489501953125
40
0.0
41
0.0
42
0.0
10
66.0018005371094
20
74.7842025756836
40
0.0
41
0.0
42
0.0
10
66.1261978149414
20
74.99169921875
40
0.0
41
0.0
42
0.0
10
66.1446990966797
20
75.0166015625
40
0.0
41
0.0
42
0.0
10
66.4253005981445
20
75.4896011352539
40
0.0
41
0.0
42
0.0
10
66.4952011108398
20
75.6480026245117
40
0.0
41
0.0
42
0.0
10
66.5029983520508
20
75.6611022949219
40
0.0
41
0.0
42
0.0
10
66.5391006469727
20
75.7022018432617
40
0.0
41
0.0
42
0.0
10
66.7003021240234
20
75.9887008666992
40
0.0
41
0.0
42
0.0
10
66.7226028442383
20
76.0505981445312
40
0.0
41
0.0
42
0.0
10
66.8071975708008
20
76.4820022583008
40
0.0
41
0.0
42
0.0
10
66.8070983886719
20
76.5186996459961
40
0.0
41
0.0
42
0.0
10
66.7993011474609
20
76.5826034545898
40
0.0
41
0.0
42
0.0
10
66.7547988891602
20
77.0158004760742
40
0.0
41
0.0
42
0.0
10
66.7352981567383
20
77.0794982910156
40
0.0
41
0.0
42
0.0
10
66.6352996826172
20
77.5145034790039
40
0.0
41
0.0
42
0.0
10
66.6157989501953
20
77.5794982910156
40
0.0
41
0.0
42
0.0
10
66.5020980834961
20
78.0724029541016
40
0.0
41
0.0
42
0.0
10
66.4237976074219
20
78.5171966552734
40
0.0
41
0.0
42
0.0
10
66.3805999755859
20
79.0070037841797
40
0.0
41
0.0
42
0.0
10
66.4078979492188
20
79.4835968017578
40
0.0
41
0.0
42
0.0
10
66.4941024780273
20
79.7686996459961
40
0.0
41
0.0
42
0.0
10
66.5103988647461
20
79.8339004516602
40
0.0
41
0.0
42
0.0
10
66.5614013671875
20
79.9888000488281
40
0.0
41
0.0
42
0.0
10
66.5854034423828
20
80.0285034179688
40
0.0
41
0.0
42
0.0
10
66.9474029541016
20
80.4951019287109
40
0.0
41
0.0
42
0.0
10
67.0081024169922
20
80.540397644043
40
0.0
41
0.0
42
0.0
10
67.4833984375
20
80.8365020751953
40
0.0
41
0.0
42
0.0
10
67.5131988525391
20
80.8569030761719
40
0.0
41
0.0
42
0.0
10
67.8337020874023
20
80.999397277832
40
0.0
41
0.0
42
0.0
10
68.0130996704102
20
81.0680999755859
40
0.0
41
0.0
42
0.0
10
68.5142974853516
20
81.222900390625
40
0.0
41
0.0
42
0.0
10
68.9903030395508
20
81.3447036743164
40
0.0
41
0.0
42
0.0
10
69.0151977539062
20
81.3496017456055
40
0.0
41
0.0
42
0.0
10
69.4906997680664
20
81.4787979125977
40
0.0
41
0.0
42
0.0
10
69.5173034667969
20
81.4825973510742
40
0.0
41
0.0
42
0.0
10
69.5672988891602
20
81.4994964599609
40
0.0
41
0.0
42
0.0
10
69.9561004638672
20
81.6679000854492
40
0.0
41
0.0
42
0.0
10
70.0128021240234
20
81.677001953125
40
0.0
41
0.0
42
0.0
10
70.07080078125
20
81.7107009887695
40
0.0
41
0.0
42
0.0
10
70.0947036743164
20
81.7424011230469
40
0.0
41
0.0
42
0.0
10
70.3764038085938
20
81.9949035644531
40
0.0
41
0.0
42
0.0
10
70.5126037597656
20
82.1421966552734
40
0.0
41
0.0
42
0.0
10
70.6919021606445
20
82.4256973266602
40
0.0
41
0.0
42
0.0
10
70.728401184082
20
82.4907989501953
40
0.0
41
0.0
42
0.0
10
70.9830017089844
20
82.883903503418
40
0.0
41
0.0
42
0.0
10
71.0016021728516
20
82.9138031005859
40
0.0
41
0.0
42
0.0
10
71.0186996459961
20
82.9477005004883
40
0.0
41
0.0
42
0.0
10
71.0441970825195
20
82.991096496582
40
0.0
41
0.0
42
0.0
10
71.0873031616211
20
83.0567016601562
40
0.0
41
0.0
42
0.0
10
71.3907012939453
20
83.4922027587891
40
0.0
41
0.0
42
0.0
10
71.5036010742188
20
83.6440963745117
40
0.0
41
0.0
42
0.0
10
71.5560989379883
20
83.7033004760742
40
0.0
41
0.0
42
0.0
10
72.0067977905273
20
84.1750030517578
40
0.0
41
0.0
42
0.0
10
72.4437026977539
20
84.428596496582
40
0.0
41
0.0
42
0.0
10
72.5105972290039
20
84.4741973876953
40
0.0
41
0.0
42
0.0
10
72.5345993041992
20
84.4821014404297
40
0.0
41
0.0
42
0.0
10
72.6222991943359
20
84.5003967285156
40
0.0
41
0.0
42
0.0
10
72.9694976806641
20
84.5863037109375
40
0.0
41
0.0
42
0.0
10
73.0081024169922
20
84.5978012084961
40
0.0
41
0.0
42
0.0
10
73.4561004638672
20
84.5473022460938
40
0.0
41
0.0
42
0.0
10
73.4841003417969
20
84.5472030639648
40
0.0
41
0.0
42
0.0
10
73.5931015014648
20
84.5057983398438
40
0.0
41
0.0
42
0.0
10
73.9871978759766
20
84.3926010131836
40
0.0
41
0.0
42
0.0
10
74.4894027709961
20
84.1630020141602
40
0.0
41
0.0
42
0.0
10
74.7841033935547
20
83.9981002807617
40
0.0
41
0.0
42
0.0
10
75.4665985107422
20
83.591796875
40
0.0
41
0.0
42
0.0
10
75.4906005859375
20
83.5739974975586
40
0.0
41
0.0
42
0.0
10
75.6480026245117
20
83.5046005249023
40
0.0
41
0.0
42
0.0
10
75.6607971191406
20
83.4969024658203
40
0.0
41
0.0
42
0.0
10
75.7021026611328
20
83.4606018066406
40
0.0
41
0.0
42
0.0
10
75.9872970581055
20
83.3003005981445
40
0.0
41
0.0
42
0.0
10
76.4206008911133
20
83.2154006958008
40
0.0
41
0.0
42
0.0
10
76.4835968017578
20
83.1927032470703
40
0.0
41
0.0
42
0.0
10
76.5188980102539
20
83.1925964355469
40
0.0
41
0.0
42
0.0
10
76.9525985717773
20
83.2370986938477
40
0.0
41
0.0
42
0.0
10
77.0162963867188
20
83.2449035644531
40
0.0
41
0.0
42
0.0
10
77.4495010375977
20
83.3442993164062
40
0.0
41
0.0
42
0.0
10
77.5145034790039
20
83.3643035888672
40
0.0
41
0.0
42
0.0
10
77.9495010375977
20
83.4654006958008
40
0.0
41
0.0
42
0.0
10
78.0147018432617
20
83.4850006103516
40
0.0
41
0.0
42
0.0
10
78.0725021362305
20
83.4975967407227
40
0.0
41
0.0
42
0.0
10
78.5171966552734
20
83.5758972167969
40
0.0
41
0.0
42
0.0
10
79.0048980712891
20
83.6186981201172
40
0.0
41
0.0
42
0.0
10
79.4160003662109
20
83.594596862793
40
0.0
41
0.0
42
0.0
10
79.4833984375
20
83.5919036865234
40
0.0
41
0.0
42
0.0
10
79.7686004638672
20
83.5055999755859
40
0.0
41
0.0
42
0.0
10
79.8339004516602
20
83.4894027709961
40
0.0
41
0.0
42
0.0
10
79.9898986816406
20
83.4378967285156
40
0.0
41
0.0
42
0.0
10
80.4274978637695
20
83.0983963012695
40
0.0
41
0.0
42
0.0
10
80.4664993286133
20
83.0700988769531
40
0.0
41
0.0
42
0.0
10
80.4943008422852
20
83.0533981323242
40
0.0
41
0.0
42
0.0
10
80.540397644043
20
82.9917984008789
40
0.0
41
0.0
42
0.0
10
80.8365020751953
20
82.5164031982422
40
0.0
41
0.0
42
0.0
10
80.8569030761719
20
82.4866027832031
40
0.0
41
0.0
42
0.0
10
80.9992980957031
20
82.1660995483398
40
0.0
41
0.0
42
0.0
10
81.0680999755859
20
81.9868011474609
40
0.0
41
0.0
42
0.0
10
81.222900390625
20
81.4856033325195
40
0.0
41
0.0
42
0.0
10
81.3447036743164
20
81.0095977783203
40
0.0
41
0.0
42
0.0
10
81.3495025634766
20
80.9847030639648
40
0.0
41
0.0
42
0.0
10
81.4787979125977
20
80.5092010498047
40
0.0
41
0.0
42
0.0
10
81.4825973510742
20
80.4824981689453
40
0.0
41
0.0
42
0.0
10
81.4994964599609
20
80.432502746582
40
0.0
41
0.0
42
0.0
10
81.6679000854492
20
80.043701171875
40
0.0
41
0.0
42
0.0
10
81.6769027709961
20
79.9870986938477
40
0.0
41
0.0
42
0.0
10
81.7107009887695
20
79.9291000366211
40
0.0
41
0.0
42
0.0
10
81.742301940918
20
79.9049987792969
40
0.0
41
0.0
42
0.0
10
81.9947967529297
20
79.6233978271484
40
0.0
41
0.0
42
0.0
10
82.1353988647461
20
79.4946975708008
40
0.0
41
0.0
42
0.0
10
82.1428985595703
20
79.486701965332
40
0.0
41
0.0
42
0.0
10
82.4256973266602
20
79.3078994750977
40
0.0
41
0.0
42
0.0
10
82.4907989501953
20
79.2714004516602
40
0.0
41
0.0
42
0.0
10
82.883903503418
20
79.0167007446289
40
0.0
41
0.0
42
0.0
10
82.9136962890625
20
78.9981994628906
40
0.0
41
0.0
42
0.0
10
82.9477005004883
20
78.9810028076172
40
0.0
41
0.0
42
0.0
10
82.9913024902344
20
78.9553985595703
40
0.0
41
0.0
42
0.0
10
83.4266967773438
20
78.652099609375
40
0.0
41
0.0
42
0.0
10
83.4919967651367
20
78.6091995239258
40
0.0
41
0.0
42
0.0
10
83.6440963745117
20
78.4962005615234
40
0.0
41
0.0
42
0.0
10
83.7032012939453
20
78.443603515625
40
0.0
41
0.0
42
0.0
10
84.1750030517578
20
77.9929962158203
40
0.0
41
0.0
42
0.0
10
84.428596496582
20
77.5560989379883
40
0.0
41
0.0
42
0.0
10
84.4741973876953
20
77.4893035888672
40
0.0
41
0.0
42
0.0
10
84.4821014404297
20
77.4651031494141
40
0.0
41
0.0
42
0.0
10
84.5002975463867
20
77.3775024414062
40
0.0
41
0.0
42
0.0
10
84.5863037109375
20
77.0302963256836
40
0.0
41
0.0
42
0.0
10
84.5978012084961
20
76.9917984008789
40
0.0
41
0.0
42
0.0
10
84.5473022460938
20
76.5438003540039
40
0.0
41
0.0
42
0.0
10
84.5472030639648
20
76.5157012939453
40
0.0
41
0.0
42
0.0
10
84.5057983398438
20
76.4067001342773
40
0.0
41
0.0
42
0.0
10
84.3926010131836
20
76.0127029418945
40
0.0
41
0.0
42
0.0
10
84.1631011962891
20
75.5103988647461
40
0.0
41
0.0
42
0.0
10
83.9981002807617
20
75.2156982421875
40
0.0
41
0.0
42
0.0
10
83.591796875
20
74.5333023071289
40
0.0
41
0.0
42
0.0
10
83.5739974975586
20
74.5093002319336
40
0.0
41
0.0
42
0.0
10
83.5046005249023
20
74.3517990112305
40
0.0
41
0.0
42
0.0
10
83.4970016479492
20
74.338996887207
40
0.0
41
0.0
42
0.0
10
83.4607009887695
20
74.2975997924805
40
0.0
41
0.0
42
0.0
10
83.3003005981445
20
74.0126037597656
40
0.0
41
0.0
42
0.0
10
83.2154006958008
20
73.5792999267578
40
0.0
41
0.0
42
0.0
10
83.1927032470703
20
73.5162963867188
40
0.0
41
0.0
42
0.0
10
83.1925964355469
20
73.4810028076172
40
0.0
41
0.0
42
0.0
10
83.2370986938477
20
73.0473022460938
40
0.0
41
0.0
42
0.0
10
83.2449035644531
20
72.9835968017578
40
0.0
41
0.0
42
0.0
10
83.3442993164062
20
72.5503997802734
40
0.0
41
0.0
42
0.0
10
83.3643035888672
20
72.4853973388672
40
0.0
41
0.0
42
0.0
10
83.4653015136719
20
72.0503997802734
40
0.0
41
0.0
42
0.0
10
83.4850006103516
20
71.9851989746094
40
0.0
41
0.0
42
0.0
10
83.4975967407227
20
71.9272994995117
40
0.0
41
0.0
42
0.0
10
83.5758972167969
20
71.4826965332031
40
0.0
41
0.0
42
0.0
10
83.6186981201172
20
70.995002746582
40
0.0
41
0.0
42
0.0
10
83.594596862793
20
70.5839004516602
40
0.0
41
0.0
42
0.0
10
83.5919036865234
20
70.5164031982422
40
0.0
41
0.0
42
0.0
10
83.5055999755859
20
70.2313003540039
40
0.0
41
0.0
42
0.0
10
83.4894027709961
20
70.1660003662109
40
0.0
41
0.0
42
0.0
10
83.4378967285156
20
70.0100021362305
40
0.0
41
0.0
42
0.0
10
83.098503112793
20
69.5723037719727
40
0.0
41
0.0
42
0.0
10
83.0700988769531
20
69.5334014892578
40
0.0
41
0.0
42
0.0
10
83.0532989501953
20
69.5055999755859
40
0.0
41
0.0
42
0.0
10
82.966796875
20
69.4415969848633
40
0.0
41
0.0
42
0.0
10
82.486198425293
20
69.1427001953125
40
0.0
41
0.0
42
0.0
10
82.1660995483398
20
69.0005035400391
40
0.0
41
0.0
42
0.0
10
81.9868011474609
20
68.9316024780273
40
0.0
41
0.0
42
0.0
10
81.4850997924805
20
68.7766036987305
40
0.0
41
0.0
42
0.0
10
81.4589996337891
20
68.7714996337891
40
0.0
41
0.0
42
0.0
10
80.9841003417969
20
68.6500015258789
40
0.0
41
0.0
42
0.0
10
80.9591979980469
20
68.6464004516602
40
0.0
41
0.0
42
0.0
10
80.4838027954102
20
68.5175018310547
40
0.0
41
0.0
42
0.0
10
80.4326019287109
20
68.5002975463867
40
0.0
41
0.0
42
0.0
10
80.043701171875
20
68.3318023681641
40
0.0
41
0.0
42
0.0
10
79.9870986938477
20
68.3227996826172
40
0.0
41
0.0
42
0.0
10
79.9291000366211
20
68.2891998291016
40
0.0
41
0.0
42
0.0
10
79.9050979614258
20
68.2574005126953
40
0.0
41
0.0
42
0.0
10
79.6234970092773
20
68.004997253418
40
0.0
41
0.0
42
0.0
10
79.4947967529297
20
67.8643035888672
40
0.0
41
0.0
42
0.0
10
79.486701965332
20
67.8569030761719
40
0.0
41
0.0
42
0.0
10
79.3078994750977
20
67.5742034912109
40
0.0
41
0.0
42
0.0
10
79.2714996337891
20
67.5091018676758
40
0.0
41
0.0
42
0.0
10
79.0167999267578
20
67.1158981323242
40
0.0
41
0.0
42
0.0
10
78.9982986450195
20
67.0860977172852
40
0.0
41
0.0
42
0.0
10
78.9810028076172
20
67.0521011352539
40
0.0
41
0.0
42
0.0
10
78.9554977416992
20
67.0085983276367
40
0.0
41
0.0
42
0.0
10
78.652099609375
20
66.5731964111328
40
0.0
41
0.0
42
0.0
10
78.6092987060547
20
66.5078964233398
40
0.0
41
0.0
42
0.0
10
78.4962997436523
20
66.3556976318359
40
0.0
41
0.0
42
0.0
10
78.4437026977539
20
66.296501159668
40
0.0
41
0.0
42
0.0
10
77.9935989379883
20
65.8254013061523
40
0.0
41
0.0
42
0.0
10
77.9262008666992
20
65.779296875
40
0.0
41
0.0
42
0.0
10
77.4886016845703
20
65.5251998901367
40
0.0
41
0.0
42
0.0
10
77.465202331543
20
65.5176010131836
40
0.0
41
0.0
42
0.0
10
77.3775024414062
20
65.4994964599609
40
0.0
41
0.0
42
0.0
10
77.030403137207
20
65.4134979248047
40
0.0
41
0.0
42
0.0
10
76.9852981567383
20
65.3996963500977
40
0.0
41
0.0
42
0.0
10
76.5149993896484
20
65.4527969360352
40
0.0
41
0.0
42
0.0
10
76.4067001342773
20
65.493896484375
40
0.0
41
0.0
42
0.0
10
76.0126037597656
20
65.6071014404297
40
0.0
41
0.0
42
0.0
10
75.5103988647461
20
65.8366012573242
40
0.0
41
0.0
42
0.0
10
75.2155990600586
20
66.0017013549805
40
0.0
41
0.0
42
0.0
10
75.0082015991211
20
66.1260986328125
40
0.0
41
0.0
42
0.0
10
74.9832992553711
20
66.1446990966797
40
0.0
41
0.0
42
0.0
10
74.5102996826172
20
66.4253005981445
40
0.0
41
0.0
42
0.0
10
74.3516998291016
20
66.4951019287109
40
0.0
41
0.0
42
0.0
10
74.3386993408203
20
66.5029983520508
40
0.0
41
0.0
42
0.0
10
74.2975997924805
20
66.5391006469727
40
0.0
41
0.0
42
0.0
10
74.011100769043
20
66.7002029418945
40
0.0
41
0.0
42
0.0
10
73.9493026733398
20
66.7226028442383
40
0.0
41
0.0
42
0.0
10
73.5178985595703
20
66.8071975708008
40
0.0
41
0.0
42
0.0
10
73.481201171875
20
66.8070983886719
40
0.0
41
0.0
42
0.0
10
73.4172973632812
20
66.7993011474609
40
0.0
41
0.0
42
0.0
10
72.9841003417969
20
66.7548980712891
40
0.0
41
0.0
42
0.0
10
72.9204025268555
20
66.7352981567383
40
0.0
41
0.0
42
0.0
10
72.4853973388672
20
66.6353988647461
40
0.0
41
0.0
42
0.0
10
72.4204025268555
20
66.6157989501953
40
0.0
41
0.0
42
0.0
10
71.9845962524414
20
66.5147018432617
40
0.0
41
0.0
42
0.0
10
71.9272994995117
20
66.5020980834961
40
0.0
41
0.0
42
0.0
10
71.4826965332031
20
66.4237976074219
40
0.0
41
0.0
42
0.0
10
70.9928970336914
20
66.3805999755859
40
0.0
41
0.0
42
0.0
10
70.5162963867188
20
66.4077987670898
40
0.0
41
0.0
42
0.0
10
70.231201171875
20
66.4941024780273
40
0.0
41
0.0
42
0.0
10
70.1660003662109
20
66.5103988647461
40
0.0
41
0.0
42
0.0
10
70.011100769043
20
66.5614013671875
40
0.0
41
0.0
42
0.0
10
69.9712982177734
20
66.5854034423828
40
0.0
41
0.0
42
0.0
10
69.5046997070312
20
66.9474029541016
40
0.0
41
0.0
42
0.0
10
69.4414978027344
20
67.0330963134766
40
0.0
41
0.0
42
0.0
10
69.1426010131836
20
67.5136032104492
40
0.0
41
0.0
42
0.0
10
69.0003967285156
20
67.8337020874023
40
0.0
41
0.0
42
0.0
10
68.9316024780273
20
68.0130996704102
40
0.0
41
0.0
42
0.0
10
68.7766036987305
20
68.5148010253906
40
0.0
41
0.0
42
0.0
10
68.7714996337891
20
68.5408020019531
40
0.0
41
0.0
42
0.0
10
68.6500015258789
20
69.0158004760742
40
0.0
41
0.0
42
0.0
10
68.6464004516602
20
69.0407028198242
40
0.0
41
0.0
42
0.0
10
68.5175018310547
20
69.515998840332
40
0.0
41
0.0
42
0.0
10
68.5002975463867
20
69.5671997070312
40
0.0
41
0.0
42
0.0
10
68.3318023681641
20
69.9561004638672
40
0.0
41
0.0
42
0.0
10
68.3227996826172
20
70.0128021240234
40
0.0
41
0.0
42
0.0
10
68.2891998291016
20
70.0707015991211
40
0.0
41
0.0
42
0.0
10
68.2574005126953
20
70.094596862793
40
0.0
41
0.0
42
0.0
10
68.0048980712891
20
70.3762969970703
40
0.0
41
0.0
42
0.0
10
67.8575973510742
20
70.5126037597656
40
0.0
41
0.0
42
0.0
10
67.5740966796875
20
70.6918029785156
40
0.0
41
0.0
42
0.0
10
67.5090026855469
20
70.728401184082
40
0.0
41
0.0
42
0.0
10
67.0859985351562
20
71.0016021728516
40
0.0
41
0.0
42
0.0
10
67.0521011352539
20
71.0186996459961
40
0.0
41
0.0
42
0.0
10
67.0087966918945
20
71.0441970825195
40
0.0
41
0.0
42
0.0
10
66.9430999755859
20
71.0873031616211
40
0.0
41
0.0
42
0.0
10
66.5075988769531
20
71.3906021118164
40
0.0
41
0.0
42
0.0
10
66.355598449707
20
71.5035018920898
40
0.0
41
0.0
42
0.0
10
66.296501159668
20
71.5559997558594
40
0.0
41
0.0
42
0.0
10
65.8254013061523
20
72.0062026977539
40
0.0
41
0.0
42
0.0
10
65.7791976928711
20
72.0736999511719
40
0.0
41
0.0
42
0.0
10
65.5251998901367
20
72.5112991333008
40
0.0
41
0.0
42
0.0
10
65.5176010131836
20
72.5345993041992
40
0.0
41
0.0
42
0.0
10
65.499397277832
20
72.6222991943359
40
0.0
41
0.0
42
0.0
10
65.4134979248047
20
72.9693984985352
40
0.0
41
0.0
42
0.0
10
65.3996963500977
20
73.0145034790039
40
0.0
41
0.0
42
0.0
10
65.4527969360352
20
73.4849014282227
40
0.0
41
0.0
42
0.0
10
65.493896484375
20
73.5931015014648
40
0.0
41
0.0
42
0.0
210
0.0
220
0.0
230
1.0
0
LWPOLYLINE
5
25
330
1C
100
AcDbEntity
67
0
8
0
62
256
6
ByLayer
370
-1
48
1.0
60
0
100
AcDbPolyline
90
32
70
1
38
0.0
39
0.0
10
65.8542022705078
20
65.0009994506836
40
0.0
41
0.0
42
0.0
10
65.9789962768555
20
65.2674026489258
40
0.0
41
0.0
42
0.0
10
66.0120010375977
20
65.2963027954102
40
0.0
41
0.0
42
0.0
10
66.0421981811523
20
65.296501159668
40
0.0
41
0.0
42
0.0
10
66.0779037475586
20
65.3057022094727
40
0.0
41
0.0
42
0.0
10
66.3459014892578
20
65.42919921875
40
0.0
41
0.0
42
0.0
10
66.4824981689453
20
65.5
40
0.0
41
0.0
42
0.0
10
66.513298034668
20
65.5057983398438
40
0.0
41
0.0
42
0.0
10
66.9359970092773
20
65.4934005737305
40
0.0
41
0.0
42
0.0
10
67.4190979003906
20
65.4204025268555
40
0.0
41
0.0
42
0.0
10
67.4848022460938
20
65.4037017822266
40
0.0
41
0.0
42
0.0
10
67.9207000732422
20
65.3088989257812
40
0.0
41
0.0
42
0.0
10
67.986701965332
20
65.2851028442383
40
0.0
41
0.0
42
0.0
10
68.4233016967773
20
65.1447982788086
40
0.0
41
0.0
42
0.0
10
68.4899978637695
20
65.1074981689453
40
0.0
41
0.0
42
0.0
10
68.6906967163086
20
65.0009994506836
40
0.0
41
0.0
42
0.0
10
68.7673034667969
20
65.0009994506836
40
0.0
41
0.0
42
0.0
10
68.7671966552734
20
65.0073013305664
40
0.0
41
0.0
42
0.0
10
68.486701965332
20
65.1569976806641
40
0.0
41
0.0
42
0.0
10
67.9894027709961
20
65.3179016113281
40
0.0
41
0.0
42
0.0
10
67.491096496582
20
65.4272003173828
40
0.0
41
0.0
42
0.0
10
67.0140991210938
20
65.4982986450195
40
0.0
41
0.0
42
0.0
10
66.5196990966797
20
65.5121994018555
40
0.0
41
0.0
42
0.0
10
66.4820022583008
20
65.5121002197266
40
0.0
41
0.0
42
0.0
10
66.4181976318359
20
65.4999008178711
40
0.0
41
0.0
42
0.0
10
66.1181030273438
20
65.344596862793
40
0.0
41
0.0
42
0.0
10
66.032096862793
20
65.3050003051758
40
0.0
41
0.0
42
0.0
10
65.9878997802734
20
65.304801940918
40
0.0
41
0.0
42
0.0
10
65.9354019165039
20
65.2585983276367
40
0.0
41
0.0
42
0.0
10
65.8215026855469
20
65.0152969360352
40
0.0
41
0.0
42
0.0
10
65.8215026855469
20
65.0009994506836
40
0.0
41
0.0
42
0.0
10
65.8542022705078
20
65.0009994506836
40
0.0
41
0.0
42
0.0
210
0.0
220
0.0
230
1.0
0
LWPOLYLINE
5
26
330
1C
100
AcDbEntity
67
0
8
0
62
256
6
ByLayer
370
-1
48
1.0
60
0
100
AcDbPolyline
90
228
70
1
38
0.0
39
0.0
10
68.9969024658203
20
76.0126037597656
40
0.0
41
0.0
42
0.0
10
68.9969024658203
20
75.9835968017578
40
0.0
41
0.0
42
0.0
10
69.0490036010742
20
75.8379974365234
40
0.0
41
0.0
42
0.0
10
69.1186981201172
20
75.4904022216797
40
0.0
41
0.0
42
0.0
10
69.4273986816406
20
75.1894989013672
40
0.0
41
0.0
42
0.0
10
69.4925003051758
20
75.1549987792969
40
0.0
41
0.0
42
0.0
10
69.6467971801758
20
75.002799987793
40
0.0
41
0.0
42
0.0
10
69.6915969848633
20
74.9869995117188
40
0.0
41
0.0
42
0.0
10
69.9906997680664
20
74.7917022705078
40
0.0
41
0.0
42
0.0
10
70.46240234375
20
74.5339965820312
40
0.0
41
0.0
42
0.0
10
70.5113983154297
20
74.5231018066406
40
0.0
41
0.0
42
0.0
10
70.5702972412109
20
74.4980010986328
40
0.0
41
0.0
42
0.0
10
70.9941024780273
20
74.1417007446289
40
0.0
41
0.0
42
0.0
10
71.1350021362305
20
74.0010986328125
40
0.0
41
0.0
42
0.0
10
71.1050033569336
20
73.9800033569336
40
0.0
41
0.0
42
0.0
10
70.9982986450195
20
73.8249969482422
40
0.0
41
0.0
42
0.0
10
70.8567962646484
20
73.5094985961914
40
0.0
41
0.0
42
0.0
10
70.5178985595703
20
73.0325012207031
40
0.0
41
0.0
42
0.0
10
70.4933013916016
20
73.0145034790039
40
0.0
41
0.0
42
0.0
10
70.4797973632812
20
73.0024032592773
40
0.0
41
0.0
42
0.0
10
70.2345962524414
20
72.5719985961914
40
0.0
41
0.0
42
0.0
10
70.1855010986328
20
72.524299621582
40
0.0
41
0.0
42
0.0
10
70.1756973266602
20
72.5102996826172
40
0.0
41
0.0
42
0.0
10
69.999397277832
20
72.0178985595703
40
0.0
41
0.0
42
0.0
10
69.9960021972656
20
72.0103988647461
40
0.0
41
0.0
42
0.0
10
69.9959030151367
20
71.975700378418
40
0.0
41
0.0
42
0.0
10
70.0008010864258
20
71.9077987670898
40
0.0
41
0.0
42
0.0
10
70.0131988525391
20
71.5986022949219
40
0.0
41
0.0
42
0.0
10
70.0285034179688
20
71.4935989379883
40
0.0
41
0.0
42
0.0
10
70.1774978637695
20
71.4161987304688
40
0.0
41
0.0
42
0.0
10
70.4860000610352
20
71.2223968505859
40
0.0
41
0.0
42
0.0
10
70.5165023803711
20
71.2223968505859
40
0.0
41
0.0
42
0.0
10
70.5733032226562
20
71.24169921875
40
0.0
41
0.0
42
0.0
10
70.9809036254883
20
71.2042007446289
40
0.0
41
0.0
42
0.0
10
71.0185012817383
20
71.2042007446289
40
0.0
41
0.0
42
0.0
10
71.4497985839844
20
71.2623977661133
40
0.0
41
0.0
42
0.0
10
71.4868011474609
20
71.2762985229492
40
0.0
41
0.0
42
0.0
10
71.5127029418945
20
71.2883987426758
40
0.0
41
0.0
42
0.0
10
71.986701965332
20
71.4157028198242
40
0.0
41
0.0
42
0.0
10
72.0114974975586
20
71.4301986694336
40
0.0
41
0.0
42
0.0
10
72.2481002807617
20
71.5
40
0.0
41
0.0
42
0.0
10
72.4854965209961
20
71.5737991333008
40
0.0
41
0.0
42
0.0
10
72.5078964233398
20
71.5896987915039
40
0.0
41
0.0
42
0.0
10
72.9646987915039
20
71.5178985595703
40
0.0
41
0.0
42
0.0
10
73.0000991821289
20
71.5180969238281
40
0.0
41
0.0
42
0.0
10
73.0098037719727
20
71.4852981567383
40
0.0
41
0.0
42
0.0
10
73.1176986694336
20
71.0214004516602
40
0.0
41
0.0
42
0.0
10
73.1178970336914
20
70.9813003540039
40
0.0
41
0.0
42
0.0
10
73.2050018310547
20
70.5334014892578
40
0.0
41
0.0
42
0.0
10
73.2033004760742
20
70.518798828125
40
0.0
41
0.0
42
0.0
10
73.2033004760742
20
70.4826965332031
40
0.0
41
0.0
42
0.0
10
73.318000793457
20
70.0541000366211
40
0.0
41
0.0
42
0.0
10
73.3161010742188
20
70.019401550293
40
0.0
41
0.0
42
0.0
10
73.3162002563477
20
69.980598449707
40
0.0
41
0.0
42
0.0
10
73.3198013305664
20
69.9196014404297
40
0.0
41
0.0
42
0.0
10
73.4977035522461
20
69.4775009155273
40
0.0
41
0.0
42
0.0
10
73.9862976074219
20
68.9969024658203
40
0.0
41
0.0
42
0.0
10
74.0162963867188
20
68.9969024658203
40
0.0
41
0.0
42
0.0
10
74.1617965698242
20
69.0491027832031
40
0.0
41
0.0
42
0.0
10
74.5091018676758
20
69.1186981201172
40
0.0
41
0.0
42
0.0
10
74.5305023193359
20
69.1418991088867
40
0.0
41
0.0
42
0.0
10
74.8102035522461
20
69.4274978637695
40
0.0
41
0.0
42
0.0
10
74.8447036743164
20
69.4925003051758
40
0.0
41
0.0
42
0.0
10
74.9969024658203
20
69.6468963623047
40
0.0
41
0.0
42
0.0
10
75.0127029418945
20
69.6917037963867
40
0.0
41
0.0
42
0.0
10
75.2063980102539
20
69.9885025024414
40
0.0
41
0.0
42
0.0
10
75.21240234375
20
70.0126037597656
40
0.0
41
0.0
42
0.0
10
75.4719009399414
20
70.4871978759766
40
0.0
41
0.0
42
0.0
10
75.4766006469727
20
70.5111999511719
40
0.0
41
0.0
42
0.0
10
75.5018005371094
20
70.5703964233398
40
0.0
41
0.0
42
0.0
10
75.8581008911133
20
70.9942016601562
40
0.0
41
0.0
42
0.0
10
75.9975967407227
20
71.1336975097656
40
0.0
41
0.0
42
0.0
10
76.0195007324219
20
71.1052017211914
40
0.0
41
0.0
42
0.0
10
76.1716003417969
20
71.0
40
0.0
41
0.0
42
0.0
10
76.4903030395508
20
70.8566970825195
40
0.0
41
0.0
42
0.0
10
76.9440994262695
20
70.5418014526367
40
0.0
41
0.0
42
0.0
10
76.9946975708008
20
70.4817962646484
40
0.0
41
0.0
42
0.0
10
77.0667037963867
20
70.4224014282227
40
0.0
41
0.0
42
0.0
10
77.4888000488281
20
70.1760025024414
40
0.0
41
0.0
42
0.0
10
77.9817962646484
20
69.9992980957031
40
0.0
41
0.0
42
0.0
10
77.9894027709961
20
69.9960021972656
40
0.0
41
0.0
42
0.0
10
78.0241012573242
20
69.9959030151367
40
0.0
41
0.0
42
0.0
10
78.0920028686523
20
70.0008010864258
40
0.0
41
0.0
42
0.0
10
78.4011993408203
20
70.0131988525391
40
0.0
41
0.0
42
0.0
10
78.5063018798828
20
70.0286026000977
40
0.0
41
0.0
42
0.0
10
78.5835037231445
20
70.1775970458984
40
0.0
41
0.0
42
0.0
10
78.7772979736328
20
70.4860000610352
40
0.0
41
0.0
42
0.0
10
78.7772979736328
20
70.5165023803711
40
0.0
41
0.0
42
0.0
10
78.7580032348633
20
70.5733032226562
40
0.0
41
0.0
42
0.0
10
78.7957000732422
20
70.9809036254883
40
0.0
41
0.0
42
0.0
10
78.7955017089844
20
71.0151977539062
40
0.0
41
0.0
42
0.0
10
78.7710037231445
20
71.067497253418
40
0.0
41
0.0
42
0.0
10
78.7105026245117
20
71.5158004760742
40
0.0
41
0.0
42
0.0
10
78.5839996337891
20
71.986701965332
40
0.0
41
0.0
42
0.0
10
78.5695037841797
20
72.0114974975586
40
0.0
41
0.0
42
0.0
10
78.4998016357422
20
72.2480010986328
40
0.0
41
0.0
42
0.0
10
78.4259033203125
20
72.4854965209961
40
0.0
41
0.0
42
0.0
10
78.4103012084961
20
72.5075988769531
40
0.0
41
0.0
42
0.0
10
78.4741973876953
20
72.9281997680664
40
0.0
41
0.0
42
0.0
10
78.4741973876953
20
72.9589996337891
40
0.0
41
0.0
42
0.0
10
78.4613037109375
20
72.9744033813477
40
0.0
41
0.0
42
0.0
10
78.472900390625
20
72.9974975585938
40
0.0
41
0.0
42
0.0
10
78.5146026611328
20
73.0098037719727
40
0.0
41
0.0
42
0.0
10
78.978401184082
20
73.1176986694336
40
0.0
41
0.0
42
0.0
10
79.0185012817383
20
73.1178970336914
40
0.0
41
0.0
42
0.0
10
79.4664993286133
20
73.2050018310547
40
0.0
41
0.0
42
0.0
10
79.4811019897461
20
73.2033004760742
40
0.0
41
0.0
42
0.0
10
79.5171966552734
20
73.2033004760742
40
0.0
41
0.0
42
0.0
10
79.94580078125
20
73.318000793457
40
0.0
41
0.0
42
0.0
10
79.9804992675781
20
73.3161010742188
40
0.0
41
0.0
42
0.0
10
80.0193023681641
20
73.3162002563477
40
0.0
41
0.0
42
0.0
10
80.0802993774414
20
73.3199005126953
40
0.0
41
0.0
42
0.0
10
80.5222015380859
20
73.497802734375
40
0.0
41
0.0
42
0.0
10
81.0028991699219
20
73.9885025024414
40
0.0
41
0.0
42
0.0
10
81.002799987793
20
74.0162963867188
40
0.0
41
0.0
42
0.0
10
80.9505996704102
20
74.1617965698242
40
0.0
41
0.0
42
0.0
10
80.8809967041016
20
74.5091018676758
40
0.0
41
0.0
42
0.0
10
80.8579025268555
20
74.5305023193359
40
0.0
41
0.0
42
0.0
10
80.5724029541016
20
74.8102035522461
40
0.0
41
0.0
42
0.0
10
80.5073013305664
20
74.8447036743164
40
0.0
41
0.0
42
0.0
10
80.352897644043
20
74.9969024658203
40
0.0
41
0.0
42
0.0
10
80.3080978393555
20
75.0126037597656
40
0.0
41
0.0
42
0.0
10
80.0113983154297
20
75.2063980102539
40
0.0
41
0.0
42
0.0
10
79.9872970581055
20
75.2123031616211
40
0.0
41
0.0
42
0.0
10
79.5127029418945
20
75.4719009399414
40
0.0
41
0.0
42
0.0
10
79.4887008666992
20
75.4766006469727
40
0.0
41
0.0
42
0.0
10
79.4293975830078
20
75.5018005371094
40
0.0
41
0.0
42
0.0
10
79.0056991577148
20
75.8580017089844
40
0.0
41
0.0
42
0.0
10
78.8659973144531
20
75.9975967407227
40
0.0
41
0.0
42
0.0
10
78.8945007324219
20
76.0195999145508
40
0.0
41
0.0
42
0.0
10
79.0016021728516
20
76.1747970581055
40
0.0
41
0.0
42
0.0
10
79.1429977416992
20
76.4903030395508
40
0.0
41
0.0
42
0.0
10
79.4580001831055
20
76.9440994262695
40
0.0
41
0.0
42
0.0
10
79.5166015625
20
76.9935989379883
40
0.0
41
0.0
42
0.0
10
79.7649002075195
20
77.4274978637695
40
0.0
41
0.0
42
0.0
10
79.8245010375977
20
77.4912033081055
40
0.0
41
0.0
42
0.0
10
80.0038986206055
20
77.9885025024414
40
0.0
41
0.0
42
0.0
10
80.0037994384766
20
78.0241012573242
40
0.0
41
0.0
42
0.0
10
79.9990005493164
20
78.0920028686523
40
0.0
41
0.0
42
0.0
10
79.9866027832031
20
78.4011993408203
40
0.0
41
0.0
42
0.0
10
79.9711990356445
20
78.5062026977539
40
0.0
41
0.0
42
0.0
10
79.8221969604492
20
78.5835037231445
40
0.0
41
0.0
42
0.0
10
79.5139007568359
20
78.7772979736328
40
0.0
41
0.0
42
0.0
10
79.4833984375
20
78.7772979736328
40
0.0
41
0.0
42
0.0
10
79.4264984130859
20
78.7580032348633
40
0.0
41
0.0
42
0.0
10
79.0189971923828
20
78.7957000732422
40
0.0
41
0.0
42
0.0
10
78.9847030639648
20
78.7956008911133
40
0.0
41
0.0
42
0.0
10
78.9324035644531
20
78.7710037231445
40
0.0
41
0.0
42
0.0
10
78.4841003417969
20
78.7105026245117
40
0.0
41
0.0
42
0.0
10
78.0131988525391
20
78.5839996337891
40
0.0
41
0.0
42
0.0
10
77.9884033203125
20
78.5695037841797
40
0.0
41
0.0
42
0.0
10
77.7518005371094
20
78.4998016357422
40
0.0
41
0.0
42
0.0
10
77.5143966674805
20
78.4260025024414
40
0.0
41
0.0
42
0.0
10
77.492301940918
20
78.4103012084961
40
0.0
41
0.0
42
0.0
10
77.0716018676758
20
78.4741973876953
40
0.0
41
0.0
42
0.0
10
77.0408020019531
20
78.4741973876953
40
0.0
41
0.0
42
0.0
10
77.0251998901367
20
78.4610977172852
40
0.0
41
0.0
42
0.0
10
77.0022964477539
20
78.472900390625
40
0.0
41
0.0
42
0.0
10
76.9898986816406
20
78.5145034790039
40
0.0
41
0.0
42
0.0
10
76.8815994262695
20
78.9793014526367
40
0.0
41
0.0
42
0.0
10
76.8848037719727
20
79.0062026977539
40
0.0
41
0.0
42
0.0
10
76.8846969604492
20
79.0438995361328
40
0.0
41
0.0
42
0.0
10
76.8809967041016
20
79.081901550293
40
0.0
41
0.0
42
0.0
10
76.7979965209961
20
79.5094985961914
40
0.0
41
0.0
42
0.0
10
76.8001022338867
20
79.5455017089844
40
0.0
41
0.0
42
0.0
10
76.8000030517578
20
79.5821990966797
40
0.0
41
0.0
42
0.0
10
76.6837005615234
20
80.0166015625
40
0.0
41
0.0
42
0.0
10
76.6799011230469
20
80.0802993774414
40
0.0
41
0.0
42
0.0
10
76.5019989013672
20
80.5222015380859
40
0.0
41
0.0
42
0.0
10
76.0133972167969
20
81.002799987793
40
0.0
41
0.0
42
0.0
10
75.9835968017578
20
81.002799987793
40
0.0
41
0.0
42
0.0
10
75.8379974365234
20
80.9506988525391
40
0.0
41
0.0
42
0.0
10
75.4907989501953
20
80.881103515625
40
0.0
41
0.0
42
0.0
10
75.4692001342773
20
80.8579025268555
40
0.0
41
0.0
42
0.0
10
75.1895980834961
20
80.5724029541016
40
0.0
41
0.0
42
0.0
10
75.1550979614258
20
80.5074005126953
40
0.0
41
0.0
42
0.0
10
75.002799987793
20
80.3529968261719
40
0.0
41
0.0
42
0.0
10
74.9870986938477
20
80.3080978393555
40
0.0
41
0.0
42
0.0
10
74.7918014526367
20
80.0092010498047
40
0.0
41
0.0
42
0.0
10
74.5339965820312
20
79.5374984741211
40
0.0
41
0.0
42
0.0
10
74.5231018066406
20
79.4885025024414
40
0.0
41
0.0
42
0.0
10
74.4980010986328
20
79.4293975830078
40
0.0
41
0.0
42
0.0
10
74.1417007446289
20
79.0056991577148
40
0.0
41
0.0
42
0.0
10
74.0010986328125
20
78.8647003173828
40
0.0
41
0.0
42
0.0
10
73.9756011962891
20
78.8972015380859
40
0.0
41
0.0
42
0.0
10
73.8249969482422
20
79.0015029907227
40
0.0
41
0.0
42
0.0
10
73.5093994140625
20
79.1429977416992
40
0.0
41
0.0
42
0.0
10
73.0324020385742
20
79.4817962646484
40
0.0
41
0.0
42
0.0
10
73.0145034790039
20
79.5065994262695
40
0.0
41
0.0
42
0.0
10
73.0024032592773
20
79.5198974609375
40
0.0
41
0.0
42
0.0
10
72.5718994140625
20
79.7650985717773
40
0.0
41
0.0
42
0.0
10
72.524299621582
20
79.8142013549805
40
0.0
41
0.0
42
0.0
10
72.5102005004883
20
79.8239974975586
40
0.0
41
0.0
42
0.0
10
72.0112991333008
20
80.0038986206055
40
0.0
41
0.0
42
0.0
10
71.975700378418
20
80.0037994384766
40
0.0
41
0.0
42
0.0
10
71.9077987670898
20
79.9990005493164
40
0.0
41
0.0
42
0.0
10
71.5986022949219
20
79.9866027832031
40
0.0
41
0.0
42
0.0
10
71.4935989379883
20
79.9712982177734
40
0.0
41
0.0
42
0.0
10
71.4161987304688
20
79.8221969604492
40
0.0
41
0.0
42
0.0
10
71.2223968505859
20
79.5139007568359
40
0.0
41
0.0
42
0.0
10
71.2223968505859
20
79.4833984375
40
0.0
41
0.0
42
0.0
10
71.24169921875
20
79.4264984130859
40
0.0
41
0.0
42
0.0
10
71.2042007446289
20
79.0189971923828
40
0.0
41
0.0
42
0.0
10
71.2041015625
20
78.9813995361328
40
0.0
41
0.0
42
0.0
10
71.2623977661133
20
78.5501022338867
40
0.0
41
0.0
42
0.0
10
71.2762985229492
20
78.5130996704102
40
0.0
41
0.0
42
0.0
10
71.2883987426758
20
78.4870986938477
40
0.0
41
0.0
42
0.0
10
71.4157028198242
20
78.0130996704102
40
0.0
41
0.0
42
0.0
10
71.4301986694336
20
77.9882965087891
40
0.0
41
0.0
42
0.0
10
71.5
20
77.7518005371094
40
0.0
41
0.0
42
0.0
10
71.5737991333008
20
77.5143966674805
40
0.0
41
0.0
42
0.0
10
71.5894012451172
20
77.492301940918
40
0.0
41
0.0
42
0.0
10
71.5257034301758
20
77.0717010498047
40
0.0
41
0.0
42
0.0
10
71.5255966186523
20
77.0407028198242
40
0.0
41
0.0
42
0.0
10
71.5385971069336
20
77.0251007080078
40
0.0
41
0.0
42
0.0
10
71.5268020629883
20
77.0022964477539
40
0.0
41
0.0
42
0.0
10
71.4853973388672
20
76.9898986816406
40
0.0
41
0.0
42
0.0
10
71.0205001831055
20
76.8815994262695
40
0.0
41
0.0
42
0.0
10
70.9936981201172
20
76.8848037719727
40
0.0
41
0.0
42
0.0
10
70.9559020996094
20
76.8848037719727
40
0.0
41
0.0
42
0.0
10
70.9179992675781
20
76.881103515625
40
0.0
41
0.0
42
0.0
10
70.4904022216797
20
76.7979965209961
40
0.0
41
0.0
42
0.0
10
70.4543991088867
20
76.8001022338867
40
0.0
41
0.0
42
0.0
10
70.4177017211914
20
76.8000030517578
40
0.0
41
0.0
42
0.0
10
69.9832992553711
20
76.6837005615234
40
0.0
41
0.0
42
0.0
10
69.9196014404297
20
76.6799011230469
40
0.0
41
0.0
42
0.0
10
69.4776000976562
20
76.5020980834961
40
0.0
41
0.0
42
0.0
10
68.9969024658203
20
76.0126037597656
40
0.0
41
0.0
42
0.0
210
0.0
220
0.0
230
1.0
0
LWPOLYLINE
5
27
330
1C
100
AcDbEntity
67
0
8
0
62
256
6
ByLayer
370
-1
48
1.0
60
0
100
AcDbPolyline
90
228
70
1
38
0.0
39
0.0
10
69.1509017944336
20
75.5094985961914
40
0.0
41
0.0
42
0.0
10
69.0612030029297
20
75.9576034545898
40
0.0
41
0.0
42
0.0
10
69.0477981567383
20
75.9959030151367
40
0.0
41
0.0
42
0.0
10
69.5062026977539
20
76.4597015380859
40
0.0
41
0.0
42
0.0
10
69.5596008300781
20
76.4985961914062
40
0.0
41
0.0
42
0.0
10
69.7964019775391
20
76.5887985229492
40
0.0
41
0.0
42
0.0
10
69.9903030395508
20
76.6668014526367
40
0.0
41
0.0
42
0.0
10
70.0166015625
20
76.6684036254883
40
0.0
41
0.0
42
0.0
10
70.4869003295898
20
76.7945022583008
40
0.0
41
0.0
42
0.0
10
70.5178985595703
20
76.7945022583008
40
0.0
41
0.0
42
0.0
10
70.9522018432617
20
76.8788986206055
40
0.0
41
0.0
42
0.0
10
71.0463027954102
20
76.8672027587891
40
0.0
41
0.0
42
0.0
10
71.0824966430664
20
76.8671035766602
40
0.0
41
0.0
42
0.0
10
71.5146026611328
20
76.9676971435547
40
0.0
41
0.0
42
0.0
10
71.6147003173828
20
76.9975967407227
40
0.0
41
0.0
42
0.0
10
71.6201019287109
20
77.007698059082
40
0.0
41
0.0
42
0.0
10
71.620002746582
20
77.034797668457
40
0.0
41
0.0
42
0.0
10
71.5671005249023
20
77.0983963012695
40
0.0
41
0.0
42
0.0
10
71.6253967285156
20
77.4814987182617
40
0.0
41
0.0
42
0.0
10
71.6252975463867
20
77.5131988525391
40
0.0
41
0.0
42
0.0
10
71.5811004638672
20
77.5755004882812
40
0.0
41
0.0
42
0.0
10
71.4998016357422
20
77.8357009887695
40
0.0
41
0.0
42
0.0
10
71.4477996826172
20
78.0119018554688
40
0.0
41
0.0
42
0.0
10
71.4326019287109
20
78.040397644043
40
0.0
41
0.0
42
0.0
10
71.409797668457
20
78.0764007568359
40
0.0
41
0.0
42
0.0
10
71.2926025390625
20
78.5127029418945
40
0.0
41
0.0
42
0.0
10
71.2750015258789
20
78.5503005981445
40
0.0
41
0.0
42
0.0
10
71.2136993408203
20
79.003303527832
40
0.0
41
0.0
42
0.0
10
71.2555999755859
20
79.4559020996094
40
0.0
41
0.0
42
0.0
10
71.2555999755859
20
79.4992980957031
40
0.0
41
0.0
42
0.0
10
71.4701995849609
20
79.8407974243164
40
0.0
41
0.0
42
0.0
10
71.5063018798828
20
79.9102020263672
40
0.0
41
0.0
42
0.0
10
71.8707962036133
20
79.9633026123047
40
0.0
41
0.0
42
0.0
10
71.9871978759766
20
79.9680023193359
40
0.0
41
0.0
42
0.0
10
72.2835006713867
20
79.8703002929688
40
0.0
41
0.0
42
0.0
10
72.4897003173828
20
79.796501159668
40
0.0
41
0.0
42
0.0
10
72.5005035400391
20
79.7888031005859
40
0.0
41
0.0
42
0.0
10
72.5177993774414
20
79.7711029052734
40
0.0
41
0.0
42
0.0
10
72.9885025024414
20
79.5028991699219
40
0.0
41
0.0
42
0.0
10
73.0421981811523
20
79.4445037841797
40
0.0
41
0.0
42
0.0
10
73.4904022216797
20
79.1252975463867
40
0.0
41
0.0
42
0.0
10
73.7738037109375
20
78.9981994628906
40
0.0
41
0.0
42
0.0
10
73.9171981811523
20
78.8990020751953
40
0.0
41
0.0
42
0.0
10
73.9901962280273
20
78.8057022094727
40
0.0
41
0.0
42
0.0
10
74.0115966796875
20
78.8057022094727
40
0.0
41
0.0
42
0.0
10
74.1184005737305
20
78.9067001342773
40
0.0
41
0.0
42
0.0
10
74.2045974731445
20
78.9941024780273
40
0.0
41
0.0
42
0.0
10
74.5018005371094
20
79.3473968505859
40
0.0
41
0.0
42
0.0
10
74.5327987670898
20
79.4210968017578
40
0.0
41
0.0
42
0.0
10
74.5455017089844
20
79.4844970703125
40
0.0
41
0.0
42
0.0
10
74.5621032714844
20
79.5525970458984
40
0.0
41
0.0
42
0.0
10
74.8015975952148
20
79.9906997680664
40
0.0
41
0.0
42
0.0
10
74.9833984375
20
80.2689971923828
40
0.0
41
0.0
42
0.0
10
75.0036010742188
20
80.3217010498047
40
0.0
41
0.0
42
0.0
10
75.1716995239258
20
80.4919967651367
40
0.0
41
0.0
42
0.0
10
75.1854019165039
20
80.5175018310547
40
0.0
41
0.0
42
0.0
10
75.5094985961914
20
80.8488006591797
40
0.0
41
0.0
42
0.0
10
75.9576034545898
20
80.9385986328125
40
0.0
41
0.0
42
0.0
10
75.9959030151367
20
80.9518966674805
40
0.0
41
0.0
42
0.0
10
76.4597015380859
20
80.4935989379883
40
0.0
41
0.0
42
0.0
10
76.4984970092773
20
80.4402008056641
40
0.0
41
0.0
42
0.0
10
76.5886993408203
20
80.2033996582031
40
0.0
41
0.0
42
0.0
10
76.6668014526367
20
80.0095977783203
40
0.0
41
0.0
42
0.0
10
76.6685028076172
20
79.9829025268555
40
0.0
41
0.0
42
0.0
10
76.7945022583008
20
79.5130004882812
40
0.0
41
0.0
42
0.0
10
76.7944030761719
20
79.4820022583008
40
0.0
41
0.0
42
0.0
10
76.8788986206055
20
79.0476989746094
40
0.0
41
0.0
42
0.0
10
76.8672027587891
20
78.9535980224609
40
0.0
41
0.0
42
0.0
10
76.8671035766602
20
78.9173965454102
40
0.0
41
0.0
42
0.0
10
76.9675979614258
20
78.4852981567383
40
0.0
41
0.0
42
0.0
10
76.9974975585938
20
78.3850021362305
40
0.0
41
0.0
42
0.0
10
77.007698059082
20
78.3796005249023
40
0.0
41
0.0
42
0.0
10
77.034797668457
20
78.3796997070312
40
0.0
41
0.0
42
0.0
10
77.0983963012695
20
78.4326019287109
40
0.0
41
0.0
42
0.0
10
77.4814987182617
20
78.3744964599609
40
0.0
41
0.0
42
0.0
10
77.513298034668
20
78.3744964599609
40
0.0
41
0.0
42
0.0
10
77.5755004882812
20
78.4186019897461
40
0.0
41
0.0
42
0.0
10
77.8358001708984
20
78.5
40
0.0
41
0.0
42
0.0
10
78.0120010375977
20
78.5519027709961
40
0.0
41
0.0
42
0.0
10
78.040397644043
20
78.5671005249023
40
0.0
41
0.0
42
0.0
10
78.0764007568359
20
78.5898971557617
40
0.0
41
0.0
42
0.0
10
78.5158004760742
20
78.7079010009766
40
0.0
41
0.0
42
0.0
10
78.9512023925781
20
78.7667007446289
40
0.0
41
0.0
42
0.0
10
78.9879989624023
20
78.7751998901367
40
0.0
41
0.0
42
0.0
10
79.0096969604492
20
78.785400390625
40
0.0
41
0.0
42
0.0
10
79.4559020996094
20
78.7443008422852
40
0.0
41
0.0
42
0.0
10
79.4992980957031
20
78.7441024780273
40
0.0
41
0.0
42
0.0
10
79.8406982421875
20
78.5295028686523
40
0.0
41
0.0
42
0.0
10
79.9102020263672
20
78.4935989379883
40
0.0
41
0.0
42
0.0
10
79.9633026123047
20
78.1290969848633
40
0.0
41
0.0
42
0.0
10
79.9681015014648
20
78.0127029418945
40
0.0
41
0.0
42
0.0
10
79.8703994750977
20
77.7162017822266
40
0.0
41
0.0
42
0.0
10
79.7960968017578
20
77.5087966918945
40
0.0
41
0.0
42
0.0
10
79.7714004516602
20
77.4823989868164
40
0.0
41
0.0
42
0.0
10
79.4989013671875
20
77.0064010620117
40
0.0
41
0.0
42
0.0
10
79.4619979858398
20
76.9747009277344
40
0.0
41
0.0
42
0.0
10
79.4164962768555
20
76.92919921875
40
0.0
41
0.0
42
0.0
10
79.1253967285156
20
76.5095977783203
40
0.0
41
0.0
42
0.0
10
78.9937973022461
20
76.2177963256836
40
0.0
41
0.0
42
0.0
10
78.8916015625
20
76.0702972412109
40
0.0
41
0.0
42
0.0
10
78.8275985717773
20
76.0211029052734
40
0.0
41
0.0
42
0.0
10
78.8057022094727
20
76.0080032348633
40
0.0
41
0.0
42
0.0
10
78.8056030273438
20
75.9882965087891
40
0.0
41
0.0
42
0.0
10
78.9066009521484
20
75.8814010620117
40
0.0
41
0.0
42
0.0
10
78.9941024780273
20
75.7950973510742
40
0.0
41
0.0
42
0.0
10
79.3473968505859
20
75.4980010986328
40
0.0
41
0.0
42
0.0
10
79.4210968017578
20
75.4669036865234
40
0.0
41
0.0
42
0.0
10
79.4871978759766
20
75.4537963867188
40
0.0
41
0.0
42
0.0
10
79.9225997924805
20
75.2156982421875
40
0.0
41
0.0
42
0.0
10
79.9884033203125
20
75.1996002197266
40
0.0
41
0.0
42
0.0
10
80.2688980102539
20
75.0162963867188
40
0.0
41
0.0
42
0.0
10
80.3216018676758
20
74.9961013793945
40
0.0
41
0.0
42
0.0
10
80.4918975830078
20
74.8281021118164
40
0.0
41
0.0
42
0.0
10
80.5175018310547
20
74.8143997192383
40
0.0
41
0.0
42
0.0
10
80.8488006591797
20
74.4904022216797
40
0.0
41
0.0
42
0.0
10
80.9384994506836
20
74.0421981811523
40
0.0
41
0.0
42
0.0
10
80.9520034790039
20
74.0039978027344
40
0.0
41
0.0
42
0.0
10
80.4936981201172
20
73.5400009155273
40
0.0
41
0.0
42
0.0
10
80.4402008056641
20
73.5012969970703
40
0.0
41
0.0
42
0.0
10
80.2033996582031
20
73.411003112793
40
0.0
41
0.0
42
0.0
10
80.0090026855469
20
73.3327026367188
40
0.0
41
0.0
42
0.0
10
79.9577026367188
20
73.3324966430664
40
0.0
41
0.0
42
0.0
10
79.4934005737305
20
73.2082977294922
40
0.0
41
0.0
42
0.0
10
79.4169006347656
20
73.2088012695312
40
0.0
41
0.0
42
0.0
10
78.9965972900391
20
73.1269989013672
40
0.0
41
0.0
42
0.0
10
78.9535980224609
20
73.132698059082
40
0.0
41
0.0
42
0.0
10
78.9173965454102
20
73.1325988769531
40
0.0
41
0.0
42
0.0
10
78.4852981567383
20
73.032096862793
40
0.0
41
0.0
42
0.0
10
78.3851013183594
20
73.0022964477539
40
0.0
41
0.0
42
0.0
10
78.3796005249023
20
72.9922027587891
40
0.0
41
0.0
42
0.0
10
78.3796997070312
20
72.9649963378906
40
0.0
41
0.0
42
0.0
10
78.4326019287109
20
72.9013977050781
40
0.0
41
0.0
42
0.0
10
78.3744964599609
20
72.5184020996094
40
0.0
41
0.0
42
0.0
10
78.374397277832
20
72.4866027832031
40
0.0
41
0.0
42
0.0
10
78.4185028076172
20
72.4244003295898
40
0.0
41
0.0
42
0.0
10
78.5
20
72.1640014648438
40
0.0
41
0.0
42
0.0
10
78.5518035888672
20
71.9878997802734
40
0.0
41
0.0
42
0.0
10
78.5670013427734
20
71.9592971801758
40
0.0
41
0.0
42
0.0
10
78.5898971557617
20
71.9235000610352
40
0.0
41
0.0
42
0.0
10
78.7079010009766
20
71.4841003417969
40
0.0
41
0.0
42
0.0
10
78.7667007446289
20
71.048698425293
40
0.0
41
0.0
42
0.0
10
78.7751998901367
20
71.0118026733398
40
0.0
41
0.0
42
0.0
10
78.785400390625
20
70.9901962280273
40
0.0
41
0.0
42
0.0
10
78.7443008422852
20
70.5439987182617
40
0.0
41
0.0
42
0.0
10
78.7442016601562
20
70.5005035400391
40
0.0
41
0.0
42
0.0
10
78.5296020507812
20
70.1589965820312
40
0.0
41
0.0
42
0.0
10
78.4936981201172
20
70.0895004272461
40
0.0
41
0.0
42
0.0
10
78.1290969848633
20
70.0363998413086
40
0.0
41
0.0
42
0.0
10
78.0127029418945
20
70.0317001342773
40
0.0
41
0.0
42
0.0
10
77.7162017822266
20
70.1294021606445
40
0.0
41
0.0
42
0.0
10
77.5110015869141
20
70.2029037475586
40
0.0
41
0.0
42
0.0
10
77.0220031738281
20
70.4882965087891
40
0.0
41
0.0
42
0.0
10
76.999397277832
20
70.5074996948242
40
0.0
41
0.0
42
0.0
10
76.9745025634766
20
70.5379028320312
40
0.0
41
0.0
42
0.0
10
76.9291000366211
20
70.5830993652344
40
0.0
41
0.0
42
0.0
10
76.5094985961914
20
70.8742980957031
40
0.0
41
0.0
42
0.0
10
76.2176971435547
20
71.0058975219727
40
0.0
41
0.0
42
0.0
10
76.0702972412109
20
71.1081008911133
40
0.0
41
0.0
42
0.0
10
76.0211029052734
20
71.1722030639648
40
0.0
41
0.0
42
0.0
10
76.0080032348633
20
71.1941986083984
40
0.0
41
0.0
42
0.0
10
75.9882965087891
20
71.1940994262695
40
0.0
41
0.0
42
0.0
10
75.8814010620117
20
71.0931015014648
40
0.0
41
0.0
42
0.0
10
75.7951965332031
20
71.0057983398438
40
0.0
41
0.0
42
0.0
10
75.4980010986328
20
70.6523971557617
40
0.0
41
0.0
42
0.0
10
75.4670028686523
20
70.5787963867188
40
0.0
41
0.0
42
0.0
10
75.4537963867188
20
70.5127029418945
40
0.0
41
0.0
42
0.0
10
75.2156982421875
20
70.0773010253906
40
0.0
41
0.0
42
0.0
10
75.1996002197266
20
70.0114974975586
40
0.0
41
0.0
42
0.0
10
75.0164031982422
20
69.7307968139648
40
0.0
41
0.0
42
0.0
10
74.9962005615234
20
69.6781005859375
40
0.0
41
0.0
42
0.0
10
74.8276977539062
20
69.5074005126953
40
0.0
41
0.0
42
0.0
10
74.8144989013672
20
69.4823989868164
40
0.0
41
0.0
42
0.0
10
74.4904022216797
20
69.1509017944336
40
0.0
41
0.0
42
0.0
10
74.0421981811523
20
69.0612030029297
40
0.0
41
0.0
42
0.0
10
74.0039978027344
20
69.0476989746094
40
0.0
41
0.0
42
0.0
10
73.5400009155273
20
69.5062026977539
40
0.0
41
0.0
42
0.0
10
73.5012969970703
20
69.5595016479492
40
0.0
41
0.0
42
0.0
10
73.411003112793
20
69.7964019775391
40
0.0
41
0.0
42
0.0
10
73.3327026367188
20
69.9908981323242
40
0.0
41
0.0
42
0.0
10
73.3324966430664
20
70.0421981811523
40
0.0
41
0.0
42
0.0
10
73.2082977294922
20
70.5064010620117
40
0.0
41
0.0
42
0.0
10
73.2087020874023
20
70.5830001831055
40
0.0
41
0.0
42
0.0
10
73.1269989013672
20
71.003303527832
40
0.0
41
0.0
42
0.0
10
73.132698059082
20
71.0463027954102
40
0.0
41
0.0
42
0.0
10
73.1325988769531
20
71.0824966430664
40
0.0
41
0.0
42
0.0
10
73.032096862793
20
71.5146026611328
40
0.0
41
0.0
42
0.0
10
73.0043029785156
20
71.6082000732422
40
0.0
41
0.0
42
0.0
10
72.9880981445312
20
71.6081008911133
40
0.0
41
0.0
42
0.0
10
72.9356994628906
20
71.5606002807617
40
0.0
41
0.0
42
0.0
10
72.519401550293
20
71.6260986328125
40
0.0
41
0.0
42
0.0
10
72.4877014160156
20
71.6259994506836
40
0.0
41
0.0
42
0.0
10
72.4244003295898
20
71.5811996459961
40
0.0
41
0.0
42
0.0
10
72.1641006469727
20
71.4998016357422
40
0.0
41
0.0
42
0.0
10
71.9878997802734
20
71.4478988647461
40
0.0
41
0.0
42
0.0
10
71.9593963623047
20
71.4327011108398
40
0.0
41
0.0
42
0.0
10
71.9235000610352
20
71.409797668457
40
0.0
41
0.0
42
0.0
10
71.4871978759766
20
71.2927017211914
40
0.0
41
0.0
42
0.0
10
71.4496002197266
20
71.2750015258789
40
0.0
41
0.0
42
0.0
10
70.9965972900391
20
71.2136993408203
40
0.0
41
0.0
42
0.0
10
70.5439987182617
20
71.2555999755859
40
0.0
41
0.0
42
0.0
10
70.5005035400391
20
71.255500793457
40
0.0
41
0.0
42
0.0
10
70.1589965820312
20
71.4701995849609
40
0.0
41
0.0
42
0.0
10
70.0895004272461
20
71.5062026977539
40
0.0
41
0.0
42
0.0
10
70.0363998413086
20
71.8707962036133
40
0.0
41
0.0
42
0.0
10
70.0317001342773
20
71.9871978759766
40
0.0
41
0.0
42
0.0
10
70.1294021606445
20
72.2835998535156
40
0.0
41
0.0
42
0.0
10
70.2032012939453
20
72.4897994995117
40
0.0
41
0.0
42
0.0
10
70.2108993530273
20
72.5005035400391
40
0.0
41
0.0
42
0.0
10
70.2286987304688
20
72.5178985595703
40
0.0
41
0.0
42
0.0
10
70.4968032836914
20
72.9885025024414
40
0.0
41
0.0
42
0.0
10
70.5550994873047
20
73.0421981811523
40
0.0
41
0.0
42
0.0
10
70.874397277832
20
73.4904022216797
40
0.0
41
0.0
42
0.0
10
71.0015029907227
20
73.7738037109375
40
0.0
41
0.0
42
0.0
10
71.1082992553711
20
73.9299011230469
40
0.0
41
0.0
42
0.0
10
71.1941986083984
20
73.9907989501953
40
0.0
41
0.0
42
0.0
10
71.1940994262695
20
74.0115966796875
40
0.0
41
0.0
42
0.0
10
71.0931015014648
20
74.1183013916016
40
0.0
41
0.0
42
0.0
10
71.0056991577148
20
74.2045974731445
40
0.0
41
0.0
42
0.0
10
70.6522979736328
20
74.5018005371094
40
0.0
41
0.0
42
0.0
10
70.5787963867188
20
74.5326995849609
40
0.0
41
0.0
42
0.0
10
70.5154037475586
20
74.5454025268555
40
0.0
41
0.0
42
0.0
10
70.4473037719727
20
74.5619964599609
40
0.0
41
0.0
42
0.0
10
70.0091018676758
20
74.8015975952148
40
0.0
41
0.0
42
0.0
10
69.7307968139648
20
74.9832992553711
40
0.0
41
0.0
42
0.0
10
69.6781005859375
20
75.0035018920898
40
0.0
41
0.0
42
0.0
10
69.5073013305664
20
75.1719970703125
40
0.0
41
0.0
42
0.0
10
69.4823989868164
20
75.185302734375
40
0.0
41
0.0
42
0.0
10
69.1509017944336
20
75.5094985961914
40
0.0
41
0.0
42
0.0
210
0.0
220
0.0
230
1.0
0
LWPOLYLINE
5
28
330
1C
100
AcDbEntity
67
0
8
0
62
256
6
ByLayer
370
-1
48
1.0
60
0
100
AcDbPolyline
90
17
70
1
38
0.0
39
0.0
10
73.4175033569336
20
74.4626007080078
40
0.0
41
0.0
42
0.0
10
73.4838027954102
20
74.4578018188477
40
0.0
41
0.0
42
0.0
10
73.5479965209961
20
74.4384994506836
40
0.0
41
0.0
42
0.0
10
73.5765991210938
20
74.4384994506836
40
0.0
41
0.0
42
0.0
10
73.6153030395508
20
74.4751968383789
40
0.0
41
0.0
42
0.0
10
73.7557983398438
20
74.497802734375
40
0.0
41
0.0
42
0.0
10
73.7556991577148
20
74.5047988891602
40
0.0
41
0.0
42
0.0
10
73.6147003173828
20
74.5522003173828
40
0.0
41
0.0
42
0.0
10
73.5315017700195
20
74.6202011108398
40
0.0
41
0.0
42
0.0
10
73.50830078125
20
74.6201019287109
40
0.0
41
0.0
42
0.0
10
73.4925003051758
20
74.6025009155273
40
0.0
41
0.0
42
0.0
10
73.4225997924805
20
74.5720977783203
40
0.0
41
0.0
42
0.0
10
73.3498001098633
20
74.5469970703125
40
0.0
41
0.0
42
0.0
10
73.2375030517578
20
74.5053024291992
40
0.0
41
0.0
42
0.0
10
73.2373962402344
20
74.4964981079102
40
0.0
41
0.0
42
0.0
10
73.2677993774414
20
74.4889984130859
40
0.0
41
0.0
42
0.0
10
73.4175033569336
20
74.4626007080078
40
0.0
41
0.0
42
0.0
210
0.0
220
0.0
230
1.0
0
LWPOLYLINE
5
29
330
1C
100
AcDbEntity
67
0
8
0
62
256
6
ByLayer
370
-1
48
1.0
60
0
100
AcDbPolyline
90
10
70
1
38
0.0
39
0.0
10
73.3414993286133
20
74.492301940918
40
0.0
41
0.0
42
0.0
10
73.3396987915039
20
74.5128021240234
40
0.0
41
0.0
42
0.0
10
73.508903503418
20
74.5754013061523
40
0.0
41
0.0
42
0.0
10
73.5306015014648
20
74.5579986572266
40
0.0
41
0.0
42
0.0
10
73.6592025756836
20
74.5149002075195
40
0.0
41
0.0
42
0.0
10
73.6574020385742
20
74.4925003051758
40
0.0
41
0.0
42
0.0
10
73.5300979614258
20
74.4718017578125
40
0.0
41
0.0
42
0.0
10
73.5205993652344
20
74.4627990722656
40
0.0
41
0.0
42
0.0
10
73.475700378418
20
74.4682998657227
40
0.0
41
0.0
42
0.0
10
73.3414993286133
20
74.492301940918
40
0.0
41
0.0
42
0.0
210
0.0
220
0.0
230
1.0
0
LWPOLYLINE
5
2A
330
1C
100
AcDbEntity
67
0
8
0
62
256
6
ByLayer
370
-1
48
1.0
60
0
100
AcDbPolyline
90
109
70
1
38
0.0
39
0.0
10
73.4449996948242
20
76.0065002441406
40
0.0
41
0.0
42
0.0
10
73.4449005126953
20
75.9915008544922
40
0.0
41
0.0
42
0.0
10
73.4957962036133
20
75.9593963623047
40
0.0
41
0.0
42
0.0
10
73.7249984741211
20
75.5246963500977
40
0.0
41
0.0
42
0.0
10
73.7479019165039
20
75.4880981445312
40
0.0
41
0.0
42
0.0
10
73.7470016479492
20
75.4204025268555
40
0.0
41
0.0
42
0.0
10
73.9972991943359
20
74.9898986816406
40
0.0
41
0.0
42
0.0
10
74.0513000488281
20
74.8821029663086
40
0.0
41
0.0
42
0.0
10
74.1524963378906
20
74.4868011474609
40
0.0
41
0.0
42
0.0
10
74.1684036254883
20
74.4505004882812
40
0.0
41
0.0
42
0.0
10
74.1743011474609
20
74.4176025390625
40
0.0
41
0.0
42
0.0
10
74.2053985595703
20
74.0103988647461
40
0.0
41
0.0
42
0.0
10
73.9990997314453
20
73.5712966918945
40
0.0
41
0.0
42
0.0
10
73.9748001098633
20
73.5156021118164
40
0.0
41
0.0
42
0.0
10
73.9747009277344
20
73.4845962524414
40
0.0
41
0.0
42
0.0
10
73.9933013916016
20
73.4450988769531
40
0.0
41
0.0
42
0.0
10
74.0083999633789
20
73.4449996948242
40
0.0
41
0.0
42
0.0
10
74.0398025512695
20
73.4952011108398
40
0.0
41
0.0
42
0.0
10
74.0790023803711
20
73.5195999145508
40
0.0
41
0.0
42
0.0
10
74.5121994018555
20
73.7480010986328
40
0.0
41
0.0
42
0.0
10
74.5794982910156
20
73.7470016479492
40
0.0
41
0.0
42
0.0
10
74.9989013671875
20
73.9908981323242
40
0.0
41
0.0
42
0.0
10
75.4501037597656
20
73.6629028320312
40
0.0
41
0.0
42
0.0
10
75.4009017944336
20
73.5165023803711
40
0.0
41
0.0
42
0.0
10
75.4008026123047
20
73.4842987060547
40
0.0
41
0.0
42
0.0
10
75.4276962280273
20
73.4225997924805
40
0.0
41
0.0
42
0.0
10
75.4526977539062
20
73.3498001098633
40
0.0
41
0.0
42
0.0
10
75.4945983886719
20
73.2375030517578
40
0.0
41
0.0
42
0.0
10
75.503303527832
20
73.2375030517578
40
0.0
41
0.0
42
0.0
10
75.5106964111328
20
73.2677993774414
40
0.0
41
0.0
42
0.0
10
75.5371017456055
20
73.4176025390625
40
0.0
41
0.0
42
0.0
10
75.5419998168945
20
73.4838027954102
40
0.0
41
0.0
42
0.0
10
75.5614013671875
20
73.5479965209961
40
0.0
41
0.0
42
0.0
10
75.5613021850586
20
73.5764999389648
40
0.0
41
0.0
42
0.0
10
75.5244979858398
20
73.6153030395508
40
0.0
41
0.0
42
0.0
10
75.5009002685547
20
73.7626037597656
40
0.0
41
0.0
42
0.0
10
75.0208969116211
20
73.9974975585938
40
0.0
41
0.0
42
0.0
10
75.0207977294922
20
74.0026016235352
40
0.0
41
0.0
42
0.0
10
75.1176986694336
20
74.0513000488281
40
0.0
41
0.0
42
0.0
10
75.5130996704102
20
74.1526031494141
40
0.0
41
0.0
42
0.0
10
75.5493011474609
20
74.1684036254883
40
0.0
41
0.0
42
0.0
10
75.5822982788086
20
74.1743011474609
40
0.0
41
0.0
42
0.0
10
75.989501953125
20
74.2053985595703
40
0.0
41
0.0
42
0.0
10
76.4284973144531
20
73.9990005493164
40
0.0
41
0.0
42
0.0
10
76.4842987060547
20
73.9748001098633
40
0.0
41
0.0
42
0.0
10
76.5152969360352
20
73.9748001098633
40
0.0
41
0.0
42
0.0
10
76.554801940918
20
73.9933013916016
40
0.0
41
0.0
42
0.0
10
76.5547027587891
20
74.00830078125
40
0.0
41
0.0
42
0.0
10
76.5046997070312
20
74.0398025512695
40
0.0
41
0.0
42
0.0
10
76.4801025390625
20
74.0789031982422
40
0.0
41
0.0
42
0.0
10
76.2517013549805
20
74.5121994018555
40
0.0
41
0.0
42
0.0
10
76.2527008056641
20
74.5793991088867
40
0.0
41
0.0
42
0.0
10
76.0087966918945
20
74.9989013671875
40
0.0
41
0.0
42
0.0
10
76.3368988037109
20
75.4499969482422
40
0.0
41
0.0
42
0.0
10
76.4833984375
20
75.4009017944336
40
0.0
41
0.0
42
0.0
10
76.5156021118164
20
75.4008026123047
40
0.0
41
0.0
42
0.0
10
76.5773010253906
20
75.4276962280273
40
0.0
41
0.0
42
0.0
10
76.6500015258789
20
75.4527969360352
40
0.0
41
0.0
42
0.0
10
76.7623977661133
20
75.4945983886719
40
0.0
41
0.0
42
0.0
10
76.7622985839844
20
75.503303527832
40
0.0
41
0.0
42
0.0
10
76.7320022583008
20
75.5106964111328
40
0.0
41
0.0
42
0.0
10
76.5822982788086
20
75.5371017456055
40
0.0
41
0.0
42
0.0
10
76.5160980224609
20
75.5419998168945
40
0.0
41
0.0
42
0.0
10
76.4518966674805
20
75.5614013671875
40
0.0
41
0.0
42
0.0
10
76.4233016967773
20
75.5613021850586
40
0.0
41
0.0
42
0.0
10
76.3844985961914
20
75.5244979858398
40
0.0
41
0.0
42
0.0
10
76.2370986938477
20
75.5009994506836
40
0.0
41
0.0
42
0.0
10
76.0025024414062
20
75.0208969116211
40
0.0
41
0.0
42
0.0
10
75.9973983764648
20
75.0207977294922
40
0.0
41
0.0
42
0.0
10
75.9484024047852
20
75.1175994873047
40
0.0
41
0.0
42
0.0
10
75.8470993041992
20
75.5130004882812
40
0.0
41
0.0
42
0.0
10
75.831298828125
20
75.5493011474609
40
0.0
41
0.0
42
0.0
10
75.8255004882812
20
75.5822982788086
40
0.0
41
0.0
42
0.0
10
75.7942962646484
20
75.9893035888672
40
0.0
41
0.0
42
0.0
10
76.0008010864258
20
76.4284973144531
40
0.0
41
0.0
42
0.0
10
76.0251007080078
20
76.4842987060547
40
0.0
41
0.0
42
0.0
10
76.0250015258789
20
76.5152969360352
40
0.0
41
0.0
42
0.0
10
76.0065994262695
20
76.554801940918
40
0.0
41
0.0
42
0.0
10
75.9915008544922
20
76.554801940918
40
0.0
41
0.0
42
0.0
10
75.9595031738281
20
76.5039978027344
40
0.0
41
0.0
42
0.0
10
75.5246963500977
20
76.2748031616211
40
0.0
41
0.0
42
0.0
10
75.4881973266602
20
76.2518005371094
40
0.0
41
0.0
42
0.0
10
75.4205017089844
20
76.252799987793
40
0.0
41
0.0
42
0.0
10
75.0009002685547
20
76.0087966918945
40
0.0
41
0.0
42
0.0
10
74.5496978759766
20
76.3368988037109
40
0.0
41
0.0
42
0.0
10
74.5989990234375
20
76.4833984375
40
0.0
41
0.0
42
0.0
10
74.5988998413086
20
76.5156021118164
40
0.0
41
0.0
42
0.0
10
74.5720977783203
20
76.5773010253906
40
0.0
41
0.0
42
0.0
10
74.5469970703125
20
76.6500015258789
40
0.0
41
0.0
42
0.0
10
74.5053024291992
20
76.7623977661133
40
0.0
41
0.0
42
0.0
10
74.4964981079102
20
76.7622985839844
40
0.0
41
0.0
42
0.0
10
74.4889984130859
20
76.7320022583008
40
0.0
41
0.0
42
0.0
10
74.4626007080078
20
76.5823974609375
40
0.0
41
0.0
42
0.0
10
74.4578018188477
20
76.5160980224609
40
0.0
41
0.0
42
0.0
10
74.4384994506836
20
76.4518966674805
40
0.0
41
0.0
42
0.0
10
74.4384002685547
20
76.4233016967773
40
0.0
41
0.0
42
0.0
10
74.4751968383789
20
76.3844985961914
40
0.0
41
0.0
42
0.0
10
74.4989013671875
20
76.2370986938477
40
0.0
41
0.0
42
0.0
10
74.9789962768555
20
76.0025024414062
40
0.0
41
0.0
42
0.0
10
74.9791030883789
20
75.9973983764648
40
0.0
41
0.0
42
0.0
10
74.8822021484375
20
75.9484024047852
40
0.0
41
0.0
42
0.0
10
74.4868011474609
20
75.8471984863281
40
0.0
41
0.0
42
0.0
10
74.4504013061523
20
75.831298828125
40
0.0
41
0.0
42
0.0
10
74.4176025390625
20
75.8255004882812
40
0.0
41
0.0
42
0.0
10
74.0105972290039
20
75.7942962646484
40
0.0
41
0.0
42
0.0
10
73.5712966918945
20
76.0008010864258
40
0.0
41
0.0
42
0.0
10
73.5156021118164
20
76.0251007080078
40
0.0
41
0.0
42
0.0
10
73.4845962524414
20
76.0250015258789
40
0.0
41
0.0
42
0.0
10
73.4449996948242
20
76.0065002441406
40
0.0
41
0.0
42
0.0
210
0.0
220
0.0
230
1.0
0
LWPOLYLINE
5
2B
330
1C
100
AcDbEntity
67
0
8
0
62
256
6
ByLayer
370
-1
48
1.0
60
0
100
AcDbPolyline
90
55
70
1
38
0.0
39
0.0
10
73.9845962524414
20
75.7789001464844
40
0.0
41
0.0
42
0.0
10
74.0192031860352
20
75.7788009643555
40
0.0
41
0.0
42
0.0
10
74.492301940918
20
75.8147964477539
40
0.0
41
0.0
42
0.0
10
74.5000991821289
20
75.8162994384766
40
0.0
41
0.0
42
0.0
10
74.5130996704102
20
75.8219985961914
40
0.0
41
0.0
42
0.0
10
74.9720001220703
20
75.9394989013672
40
0.0
41
0.0
42
0.0
10
75.0056991577148
20
75.9564971923828
40
0.0
41
0.0
42
0.0
10
75.0328979492188
20
75.9961013793945
40
0.0
41
0.0
42
0.0
10
75.3137969970703
20
76.1436996459961
40
0.0
41
0.0
42
0.0
10
75.4876022338867
20
76.2447967529297
40
0.0
41
0.0
42
0.0
10
75.5139007568359
20
76.2446975708008
40
0.0
41
0.0
42
0.0
10
75.5226974487305
20
76.2501983642578
40
0.0
41
0.0
42
0.0
10
75.9872970581055
20
76.4952011108398
40
0.0
41
0.0
42
0.0
10
75.9990005493164
20
76.484001159668
40
0.0
41
0.0
42
0.0
10
75.7789001464844
20
76.0152969360352
40
0.0
41
0.0
42
0.0
10
75.7788009643555
20
75.9806976318359
40
0.0
41
0.0
42
0.0
10
75.8147964477539
20
75.5075988769531
40
0.0
41
0.0
42
0.0
10
75.8162994384766
20
75.4997024536133
40
0.0
41
0.0
42
0.0
10
75.8218994140625
20
75.4868011474609
40
0.0
41
0.0
42
0.0
10
75.9394989013672
20
75.027702331543
40
0.0
41
0.0
42
0.0
10
75.9563980102539
20
74.9941024780273
40
0.0
41
0.0
42
0.0
10
75.9960021972656
20
74.966796875
40
0.0
41
0.0
42
0.0
10
76.1436996459961
20
74.6859970092773
40
0.0
41
0.0
42
0.0
10
76.2447967529297
20
74.5121994018555
40
0.0
41
0.0
42
0.0
10
76.2445983886719
20
74.4850997924805
40
0.0
41
0.0
42
0.0
10
76.4934997558594
20
74.0134963989258
40
0.0
41
0.0
42
0.0
10
76.4822998046875
20
74.0018005371094
40
0.0
41
0.0
42
0.0
10
76.0152969360352
20
74.2210998535156
40
0.0
41
0.0
42
0.0
10
75.9807968139648
20
74.2210006713867
40
0.0
41
0.0
42
0.0
10
75.5075988769531
20
74.1848983764648
40
0.0
41
0.0
42
0.0
10
75.4997024536133
20
74.1835021972656
40
0.0
41
0.0
42
0.0
10
75.4869003295898
20
74.1778030395508
40
0.0
41
0.0
42
0.0
10
75.0278015136719
20
74.060302734375
40
0.0
41
0.0
42
0.0
10
74.9942016601562
20
74.0432968139648
40
0.0
41
0.0
42
0.0
10
74.9669036865234
20
74.0037994384766
40
0.0
41
0.0
42
0.0
10
74.6859970092773
20
73.8561019897461
40
0.0
41
0.0
42
0.0
10
74.5121994018555
20
73.7550964355469
40
0.0
41
0.0
42
0.0
10
74.4850997924805
20
73.7550964355469
40
0.0
41
0.0
42
0.0
10
74.0134963989258
20
73.5064010620117
40
0.0
41
0.0
42
0.0
10
74.0018005371094
20
73.5176010131836
40
0.0
41
0.0
42
0.0
10
74.2210998535156
20
73.9845962524414
40
0.0
41
0.0
42
0.0
10
74.2210006713867
20
74.0190963745117
40
0.0
41
0.0
42
0.0
10
74.1848983764648
20
74.492301940918
40
0.0
41
0.0
42
0.0
10
74.1834030151367
20
74.5000991821289
40
0.0
41
0.0
42
0.0
10
74.1778030395508
20
74.5130996704102
40
0.0
41
0.0
42
0.0
10
74.0602035522461
20
74.9720001220703
40
0.0
41
0.0
42
0.0
10
74.0432968139648
20
75.0055999755859
40
0.0
41
0.0
42
0.0
10
74.0037994384766
20
75.0328979492188
40
0.0
41
0.0
42
0.0
10
73.8560028076172
20
75.3137969970703
40
0.0
41
0.0
42
0.0
10
73.7550964355469
20
75.4876022338867
40
0.0
41
0.0
42
0.0
10
73.754997253418
20
75.5139007568359
40
0.0
41
0.0
42
0.0
10
73.7494964599609
20
75.5225982666016
40
0.0
41
0.0
42
0.0
10
73.5046997070312
20
75.9872970581055
40
0.0
41
0.0
42
0.0
10
73.5158004760742
20
75.9990005493164
40
0.0
41
0.0
42
0.0
10
73.9845962524414
20
75.7789001464844
40
0.0
41
0.0
42
0.0
210
0.0
220
0.0
230
1.0
0
LWPOLYLINE
5
2C
330
1C
100
AcDbEntity
67
0
8
0
62
256
6
ByLayer
370
-1
48
1.0
60
0
100
AcDbPolyline
90
9
70
1
38
0.0
39
0.0
10
74.4654006958008
20
76.5074996948242
40
0.0
41
0.0
42
0.0
10
74.492301940918
20
76.6584014892578
40
0.0
41
0.0
42
0.0
10
74.5129013061523
20
76.6602020263672
40
0.0
41
0.0
42
0.0
10
74.5727996826172
20
76.497802734375
40
0.0
41
0.0
42
0.0
10
74.5165023803711
20
76.3301010131836
40
0.0
41
0.0
42
0.0
10
74.4941024780273
20
76.331901550293
40
0.0
41
0.0
42
0.0
10
74.4718017578125
20
76.4697036743164
40
0.0
41
0.0
42
0.0
10
74.4633026123047
20
76.4786987304688
40
0.0
41
0.0
42
0.0
10
74.4654006958008
20
76.5074996948242
40
0.0
41
0.0
42
0.0
210
0.0
220
0.0
230
1.0
0
LWPOLYLINE
5
2D
330
1C
100
AcDbEntity
67
0
8
0
62
256
6
ByLayer
370
-1
48
1.0
60
0
100
AcDbPolyline
90
9
70
1
38
0.0
39
0.0
10
75.4833984375
20
73.6697998046875
40
0.0
41
0.0
42
0.0
10
75.5057983398438
20
73.6679992675781
40
0.0
41
0.0
42
0.0
10
75.5279006958008
20
73.5300979614258
40
0.0
41
0.0
42
0.0
10
75.5365982055664
20
73.5211029052734
40
0.0
41
0.0
42
0.0
10
75.5343017578125
20
73.492301940918
40
0.0
41
0.0
42
0.0
10
75.5075988769531
20
73.3414993286133
40
0.0
41
0.0
42
0.0
10
75.4869995117188
20
73.3396987915039
40
0.0
41
0.0
42
0.0
10
75.4269027709961
20
73.5020980834961
40
0.0
41
0.0
42
0.0
10
75.4833984375
20
73.6697998046875
40
0.0
41
0.0
42
0.0
210
0.0
220
0.0
230
1.0
0
LWPOLYLINE
5
2E
330
1C
100
AcDbEntity
67
0
8
0
62
256
6
ByLayer
370
-1
48
1.0
60
0
100
AcDbPolyline
90
9
70
1
38
0.0
39
0.0
10
76.4786987304688
20
75.5364990234375
40
0.0
41
0.0
42
0.0
10
76.5075988769531
20
75.5343017578125
40
0.0
41
0.0
42
0.0
10
76.6584014892578
20
75.5075988769531
40
0.0
41
0.0
42
0.0
10
76.6602020263672
20
75.4869995117188
40
0.0
41
0.0
42
0.0
10
76.497802734375
20
75.4269027709961
40
0.0
41
0.0
42
0.0
10
76.3301010131836
20
75.4833984375
40
0.0
41
0.0
42
0.0
10
76.331901550293
20
75.5057983398438
40
0.0
41
0.0
42
0.0
10
76.4697036743164
20
75.5279998779297
40
0.0
41
0.0
42
0.0
10
76.4786987304688
20
75.5364990234375
40
0.0
41
0.0
42
0.0
210
0.0
220
0.0
230
1.0
0
LWPOLYLINE
5
2F
330
1C
100
AcDbEntity
67
0
8
0
62
256
6
ByLayer
370
-1
48
1.0
60
0
100
AcDbPolyline
90
35
70
1
38
0.0
39
0.0
10
81.513298034668
20
84.8425979614258
40
0.0
41
0.0
42
0.0
10
81.9853973388672
20
84.690803527832
40
0.0
41
0.0
42
0.0
10
82.4607009887695
20
84.5875015258789
40
0.0
41
0.0
42
0.0
10
82.4860992431641
20
84.5783996582031
40
0.0
41
0.0
42
0.0
10
82.5091018676758
20
84.5725021362305
40
0.0
41
0.0
42
0.0
10
82.9857025146484
20
84.5014038085938
40
0.0
41
0.0
42
0.0
10
83.4802017211914
20
84.4877014160156
40
0.0
41
0.0
42
0.0
10
83.5178985595703
20
84.4876022338867
40
0.0
41
0.0
42
0.0
10
83.5815963745117
20
84.5
40
0.0
41
0.0
42
0.0
10
83.8817977905273
20
84.6552963256836
40
0.0
41
0.0
42
0.0
10
83.9677963256836
20
84.6947021484375
40
0.0
41
0.0
42
0.0
10
84.0120010375977
20
84.6949996948242
40
0.0
41
0.0
42
0.0
10
84.0643005371094
20
84.7413024902344
40
0.0
41
0.0
42
0.0
10
84.1783981323242
20
84.9845962524414
40
0.0
41
0.0
42
0.0
10
84.1783981323242
20
84.9990005493164
40
0.0
41
0.0
42
0.0
10
84.1455993652344
20
84.9989013671875
40
0.0
41
0.0
42
0.0
10
84.0207977294922
20
84.7323989868164
40
0.0
41
0.0
42
0.0
10
83.9878997802734
20
84.7033996582031
40
0.0
41
0.0
42
0.0
10
83.9577026367188
20
84.7032012939453
40
0.0
41
0.0
42
0.0
10
83.9219970703125
20
84.6940002441406
40
0.0
41
0.0
42
0.0
10
83.6539001464844
20
84.5706024169922
40
0.0
41
0.0
42
0.0
10
83.5175018310547
20
84.4998016357422
40
0.0
41
0.0
42
0.0
10
83.4868011474609
20
84.493896484375
40
0.0
41
0.0
42
0.0
10
83.0637969970703
20
84.5063018798828
40
0.0
41
0.0
42
0.0
10
82.5808029174805
20
84.5792999267578
40
0.0
41
0.0
42
0.0
10
82.513801574707
20
84.5963973999023
40
0.0
41
0.0
42
0.0
10
82.4490966796875
20
84.6195983886719
40
0.0
41
0.0
42
0.0
10
82.0145034790039
20
84.7141036987305
40
0.0
41
0.0
42
0.0
10
81.5764999389648
20
84.8548965454102
40
0.0
41
0.0
42
0.0
10
81.5099029541016
20
84.8920974731445
40
0.0
41
0.0
42
0.0
10
81.3090972900391
20
84.9990005493164
40
0.0
41
0.0
42
0.0
10
81.2326965332031
20
84.9990005493164
40
0.0
41
0.0
42
0.0
10
81.2325973510742
20
84.9925003051758
40
0.0
41
0.0
42
0.0
10
81.4899978637695
20
84.8556976318359
40
0.0
41
0.0
42
0.0
10
81.513298034668
20
84.8425979614258
40
0.0
41
0.0
42
0.0
210
0.0
220
0.0
230
1.0
0
LWPOLYLINE
5
30
330
1C
100
AcDbEntity
67
0
8
0
62
256
6
ByLayer
370
-1
48
1.0
60
0
100
AcDbPolyline
90
34
70
1
38
0.0
39
0.0
10
84.6551971435547
20
66.1179962158203
40
0.0
41
0.0
42
0.0
10
84.6947021484375
20
66.032096862793
40
0.0
41
0.0
42
0.0
10
84.6949005126953
20
65.9878997802734
40
0.0
41
0.0
42
0.0
10
84.7412033081055
20
65.9354019165039
40
0.0
41
0.0
42
0.0
10
84.9845962524414
20
65.8215026855469
40
0.0
41
0.0
42
0.0
10
84.9990005493164
20
65.8215026855469
40
0.0
41
0.0
42
0.0
10
84.9988021850586
20
65.8541030883789
40
0.0
41
0.0
42
0.0
10
84.7322998046875
20
65.9789962768555
40
0.0
41
0.0
42
0.0
10
84.7033996582031
20
66.0120010375977
40
0.0
41
0.0
42
0.0
10
84.7032012939453
20
66.0421981811523
40
0.0
41
0.0
42
0.0
10
84.6940002441406
20
66.0779037475586
40
0.0
41
0.0
42
0.0
10
84.5705032348633
20
66.3459014892578
40
0.0
41
0.0
42
0.0
10
84.4998016357422
20
66.4823989868164
40
0.0
41
0.0
42
0.0
10
84.493896484375
20
66.5131988525391
40
0.0
41
0.0
42
0.0
10
84.5063018798828
20
66.9359970092773
40
0.0
41
0.0
42
0.0
10
84.5792999267578
20
67.4190979003906
40
0.0
41
0.0
42
0.0
10
84.5963973999023
20
67.4860992431641
40
0.0
41
0.0
42
0.0
10
84.6196975708008
20
67.5507965087891
40
0.0
41
0.0
42
0.0
10
84.7141036987305
20
67.9853973388672
40
0.0
41
0.0
42
0.0
10
84.8550033569336
20
68.4234008789062
40
0.0
41
0.0
42
0.0
10
84.8921966552734
20
68.4899978637695
40
0.0
41
0.0
42
0.0
10
84.9990005493164
20
68.6906967163086
40
0.0
41
0.0
42
0.0
10
84.9990005493164
20
68.7673034667969
40
0.0
41
0.0
42
0.0
10
84.9925003051758
20
68.7673034667969
40
0.0
41
0.0
42
0.0
10
84.8426971435547
20
68.486701965332
40
0.0
41
0.0
42
0.0
10
84.690803527832
20
68.0145034790039
40
0.0
41
0.0
42
0.0
10
84.5876007080078
20
67.5391006469727
40
0.0
41
0.0
42
0.0
10
84.5783996582031
20
67.513801574707
40
0.0
41
0.0
42
0.0
10
84.5725021362305
20
67.4907989501953
40
0.0
41
0.0
42
0.0
10
84.5014038085938
20
67.0140991210938
40
0.0
41
0.0
42
0.0
10
84.4877014160156
20
66.5196990966797
40
0.0
41
0.0
42
0.0
10
84.4876022338867
20
66.4820022583008
40
0.0
41
0.0
42
0.0
10
84.4999008178711
20
66.4181976318359
40
0.0
41
0.0
42
0.0
10
84.6551971435547
20
66.1179962158203
40
0.0
41
0.0
42
0.0
210
0.0
220
0.0
230
1.0
0
VIEWPORT
5
35
330
31
100
AcDbEntity
67
1
8
0
62
256
6
ByLayer
370
-1
48
1.0
60
0
100
AcDbViewport
10
0.0
20
0.0
30
0.0
40
297.0
41
210.0
68
1
69
1
12
50.0
22
100.0
13
0.0
23
0.0
14
10.0
24
10.0
15
10.0
25
10.0
16
0.0
26
0.0
36
1.0
17
0.0
27
0.0
37
0.0
42
50.0
43
0.0
44
0.0
45
250.0
50
0.0
51
0.0
72
1000
90
819232
110
0.0
120
0.0
130
0.0
111
1.0
121
0.0
131
0.0
112
0.0
122
1.0
132
0.0
0
ENDSEC
0
SECTION
2
OBJECTS
0
DICTIONARY
5
3B
330
0
100
AcDbDictionary
280
1
281
1
3
ACAD_GROUP
350
12
3
ACAD_LAYOUT
350
34
3
ACAD_DGNDEFINITIONS
350
F
3
ACAD_DWFDEFINITIONS
350
10
3
ACAD_PDFDEFINITIONS
350
11
3
ACAD_MLINESTYLE
350
B
3
ACAD_IMAGE_DICT
350
E
3
ACAD_IMAGE_VARS
350
21
0
DICTIONARY
5
12
330
3B
100
AcDbDictionary
280
1
281
1
0
DICTIONARY
5
34
330
3B
100
AcDbDictionary
280
1
281
1
3
Model
350
20
3
Layout1
350
36
0
DICTIONARY
5
F
330
3B
100
AcDbDictionary
280
1
281
1
0
DICTIONARY
5
10
330
3B
100
AcDbDictionary
280
1
281
1
0
DICTIONARY
5
11
330
3B
100
AcDbDictionary
280
1
281
1
0
DICTIONARY
5
B
330
3B
100
AcDbDictionary
280
1
281
1
3
Standard
350
1B
0
DICTIONARY
5
E
330
3B
100
AcDbDictionary
280
1
281
1
0
DICTIONARY
5
6
330
5
100
AcDbDictionary
280
1
281
1
3
ACAD_LAYERSTATES
360
3C
0
DICTIONARY
5
3C
330
6
100
AcDbDictionary
280
1
281
1
0
LAYOUT
5
20
330
34
100
AcDbPlotSettings
1

2
none_device
4
ISO_A4_(210.00_x_297.00_MM)
6

40
7.5
41
20.0
42
7.5
43
20.0
44
210.0
45
297.0
46
0.0
47
0.0
48
0.0
49
0.0
140
0.0
141
0.0
142
1.0
143
1.0
70
11952
72
1
73
1
74
1
7

75
0
76
0
77
2
78
300
147
1.0
148
0.0
149
0.0
100
AcDbLayout
1
Model
71
0
10
-20.0
20
-7.5
11
277.0
21
202.5
12
0.0
22
0.0
32
0.0
14
25.7
24
19.5
34
0.0
15
231.3
25
175.5
35
0.0
146
0.0
13
0.0
23
0.0
33
0.0
16
1.0
26
0.0
36
0.0
17
0.0
27
1.0
37
0.0
76
0
330
1C
0
LAYOUT
5
36
330
34
100
AcDbPlotSettings
1

2
none_device
4
ISO_A4_(210.00_x_297.00_MM)
6

40
7.5
41
20.0
42
7.5
43
20.0
44
210.0
45
297.0
46
0.0
47
0.0
48
0.0
49
0.0
140
0.0
141
0.0
142
1.0
143
1.0
70
688
72
1
73
1
74
1
7

75
0
76
0
77
2
78
300
147
1.0
148
0.0
149
0.0
100
AcDbLayout
1
Layout1
71
1
10
-20.0
20
-7.5
11
277.0
21
202.5
12
0.0
22
0.0
32
0.0
14
25.7
24
19.5
34
0.0
15
231.3
25
175.5
35
0.0
146
0.0
13
0.0
23
0.0
33
0.0
16
1.0
26
0.0
36
0.0
17
0.0
27
1.0
37
0.0
76
0
330
31
0
MLINESTYLE
5
1B
330
B
100
AcDbMlineStyle
2
Standard
70
0
3

62
256
51
90.0
52
90.0
71
2
49
0.5
62
256
6
ByLayer
49
-0.5
62
256
6
ByLayer
0
RASTERVARIABLES
5
21
330
E
100
AcDbRasterVariables
90
0
70
1
71
1
72
0
0
ENDSEC
0
EOF
