999
DXF file generated by netDxf https://github.com/haplokuon/netDxf, Copyright(C) Daniel Carvajal, Licensed under MIT
0
SECTION
2
HEADER
9
$ACADVER
1
AC1015
9
$DWGCODEPAGE
3
ANSI_1252
9
$HANDSEED
5
42
9
$ANGBASE
50
0.0
9
$ANGDIR
70
0
9
$ATTMODE
70
1
9
$AUNITS
70
0
9
$AUPREC
70
0
9
$CECOLOR
62
256
9
$CELTSCALE
40
1.0
9
$CELTYPE
6
ByLayer
9
$CELWEIGHT
370
-1
9
$CLAYER
8
0
9
$CMLJUST
70
0
9
$CMLSCALE
40
20.0
9
$CMLSTYLE
2
Standard
9
$DIMSTYLE
2
Standard
9
$TEXTSIZE
40
2.5
9
$TEXTSTYLE
7
Standard
9
$LUNITS
70
2
9
$LUPREC
70
4
9
$MIRRTEXT
70
0
9
$EXTNAMES
290
1
9
$INSBASE
10
0.0
20
0.0
30
0.0
9
$INSUNITS
70
0
9
$LTSCALE
40
1.0
9
$LWDISPLAY
290
0
9
$PDMODE
70
0
9
$PDSIZE
40
0.0
9
$PLINEGEN
70
0
9
$PSLTSCALE
70
1
9
$SPLINESEGS
70
8
9
$SURFU
70
6
9
$SURFV
70
6
9
$TDCREATE
40
2460823.48359972
9
$TDUCREATE
40
2460823.15026639
9
$TDUPDATE
40
2460823.48359972
9
$TDUUPDATE
40
2460823.15026639
9
$TDINDWG
40
0.0
9
$UCSORG
10
0.0
20
0.0
30
0.0
9
$UCSXDIR
10
1.0
20
0.0
30
0.0
9
$UCSYDIR
10
0.0
20
1.0
30
0.0
9
$DIMADEC
70
0
9
$DIMALT
70
0
9
$DIMALTD
70
2
9
$DIMALTF
40
25.4
9
$DIMALTRND
40
0.0
9
$DIMALTTD
70
2
9
$DIMALTTZ
70
0
9
$DIMALTU
70
2
9
$DIMALTZ
70
0
9
$DIMAPOST
1

9
$DIMATFIT
70
3
9
$DIMAUNIT
70
0
9
$DIMASZ
40
0.18
9
$DIMAZIN
70
0
9
$DIMSAH
70
0
9
$DIMBLK
1

9
$DIMLDRBLK
1

9
$DIMCEN
40
0.09
9
$DIMCLRD
70
0
9
$DIMCLRE
70
0
9
$DIMCLRT
70
0
9
$DIMDEC
70
4
9
$DIMDLE
40
0.0
9
$DIMDLI
40
0.38
9
$DIMDSEP
70
46
9
$DIMEXE
40
0.18
9
$DIMEXO
40
0.0625
9
$DIMFXLON
70
0
9
$DIMFXL
40
1.0
9
$DIMGAP
40
0.09
9
$DIMJUST
70
0
9
$DIMLFAC
40
1.0
9
$DIMLUNIT
70
2
9
$DIMLWD
70
-2
9
$DIMLWE
70
-2
9
$DIMPOST
1

9
$DIMRND
40
0.0
9
$DIMSCALE
40
1.0
9
$DIMSD1
70
0
9
$DIMSD2
70
0
9
$DIMSE1
70
0
9
$DIMSE2
70
0
9
$DIMSOXD
70
0
9
$DIMTAD
70
0
9
$DIMTDEC
70
4
9
$DIMTFAC
40
1.0
9
$DIMTIH
70
0
9
$DIMTIX
70
0
9
$DIMTM
40
0.0
9
$DIMTMOVE
70
0
9
$DIMTOFL
70
0
9
$DIMTOH
70
0
9
$DIMTOL
70
0
9
$DIMLIM
70
0
9
$DIMTOLJ
70
1
9
$DIMTP
40
0.0
9
$DIMTXT
40
0.18
9
$DIMTXTDIRECTION
70
0
9
$DIMTZIN
70
0
9
$DIMZIN
70
0
9
$DIMFRAC
70
0
9
$DIMLTYPE
6
ByBlock
9
$DIMLTEX1
6
ByBlock
9
$DIMLTEX2
6
ByBlock
0
ENDSEC
0
SECTION
2
CLASSES
0
CLASS
1
RASTERVARIABLES
2
AcDbRasterVariables
3
ISM
90
0
280
0
281
0
0
ENDSEC
0
SECTION
2
TABLES
0
TABLE
2
APPID
5
4
330
0
100
AcDbSymbolTable
70
5
0
APPID
5
19
330
4
100
AcDbSymbolTableRecord
100
AcDbRegAppTableRecord
2
ACAD
70
0
0
APPID
5
3C
330
4
100
AcDbSymbolTableRecord
100
AcDbRegAppTableRecord
2
AcCmTransparency
70
0
0
APPID
5
3D
330
4
100
AcDbSymbolTableRecord
100
AcDbRegAppTableRecord
2
AcAecLayerStandard
70
0
0
APPID
5
3E
330
4
100
AcDbSymbolTableRecord
100
AcDbRegAppTableRecord
2
GradientColor1ACI
70
0
0
APPID
5
3F
330
4
100
AcDbSymbolTableRecord
100
AcDbRegAppTableRecord
2
GradientColor2ACI
70
0
0
ENDTAB
0
TABLE
2
VPORT
5
1
330
0
100
AcDbSymbolTable
70
1
0
VPORT
5
2
330
1
100
AcDbSymbolTableRecord
100
AcDbViewportTableRecord
2
*Active
70
0
10
0.0
20
0.0
11
1.0
21
1.0
12
0.0
22
0.0
13
0.0
23
0.0
14
0.5
24
0.5
15
10.0
25
10.0
16
0.0
26
0.0
36
1.0
17
0.0
27
0.0
37
0.0
40
10.0
41
1.0
75
0
76
1
0
ENDTAB
0
TABLE
2
LTYPE
5
7
330
0
100
AcDbSymbolTable
70
3
0
LTYPE
5
15
330
7
100
AcDbSymbolTableRecord
100
AcDbLinetypeTableRecord
2
Continuous
70
0
3
Solid line
72
65
73
0
40
0.0
0
LTYPE
5
16
330
7
100
AcDbSymbolTableRecord
100
AcDbLinetypeTableRecord
2
ByLayer
70
0
3

72
65
73
0
40
0.0
0
LTYPE
5
17
330
7
100
AcDbSymbolTableRecord
100
AcDbLinetypeTableRecord
2
ByBlock
70
0
3

72
65
73
0
40
0.0
0
ENDTAB
0
TABLE
2
LAYER
5
5
102
{ACAD_XDICTIONARY
360
6
102
}
330
0
100
AcDbSymbolTable
70
1
0
LAYER
5
14
330
5
100
AcDbSymbolTableRecord
100
AcDbLayerTableRecord
2
0
70
0
62
7
6
Continuous
290
1
370
-3
390
0
0
ENDTAB
0
TABLE
2
STYLE
5
8
330
0
100
AcDbSymbolTable
70
1
0
STYLE
5
18
330
8
100
AcDbSymbolTableRecord
100
AcDbTextStyleTableRecord
2
Standard
3
simplex.shx
70
0
71
0
40
0.0
41
1.0
42
0.0
50
0.0
0
ENDTAB
0
TABLE
2
DIMSTYLE
5
A
330
0
100
AcDbSymbolTable
70
1
100
AcDbDimStyleTable
0
DIMSTYLE
105
1A
330
A
100
AcDbSymbolTableRecord
100
AcDbDimStyleTableRecord
2
Standard
3

4

40
1.0
41
0.18
42
0.0625
43
0.38
44
0.18
45
0.0
46
0.0
47
0.0
48
0.0
49
1.0
70
0
71
0
72
0
73
0
74
0
75
0
76
0
77
0
78
0
79
0
140
0.18
141
0.09
143
25.4
144
1.0
146
1.0
147
0.09
148
0.0
170
0
171
2
172
0
174
0
175
0
176
0
177
0
178
0
179
0
271
4
272
4
273
2
274
2
275
0
276
0
277
2
278
46
279
0
280
0
281
0
282
0
283
1
284
0
285
0
286
0
289
3
290
0
294
0
340
18
173
0
345
17
346
17
347
17
371
-2
372
-2
0
ENDTAB
0
TABLE
2
VIEW
5
3
330
0
100
AcDbSymbolTable
70
0
0
ENDTAB
0
TABLE
2
UCS
5
C
330
0
100
AcDbSymbolTable
70
0
0
ENDTAB
0
TABLE
2
BLOCK_RECORD
5
D
330
0
100
AcDbSymbolTable
70
2
0
BLOCK_RECORD
5
1C
330
D
100
AcDbSymbolTableRecord
100
AcDbBlockTableRecord
2
*Model_Space
340
20
0
BLOCK_RECORD
5
36
330
D
100
AcDbSymbolTableRecord
100
AcDbBlockTableRecord
2
*Paper_Space
340
3B
0
ENDTAB
0
ENDSEC
0
SECTION
2
BLOCKS
0
BLOCK
5
1E
330
1C
100
AcDbEntity
67
0
8
0
100
AcDbBlockBegin
2
*Model_Space
70
0
10
0.0
20
0.0
30
0.0
3
*Model_Space
4

0
ENDBLK
5
1D
330
1C
100
AcDbEntity
8
0
100
AcDbBlockEnd
0
BLOCK
5
38
330
36
100
AcDbEntity
67
1
8
0
100
AcDbBlockBegin
2
*Paper_Space
70
0
10
0.0
20
0.0
30
0.0
3
*Paper_Space
4

0
ENDBLK
5
37
330
36
100
AcDbEntity
8
0
100
AcDbBlockEnd
0
ENDSEC
0
SECTION
2
ENTITIES
0
LWPOLYLINE
5
22
330
1C
100
AcDbEntity
67
0
8
0
62
256
6
ByLayer
370
-1
48
1.0
60
0
100
AcDbPolyline
90
35
70
1
38
0.0
39
0.0
10
65.0009002685547
20
67.4804992675781
40
0.0
41
0.0
42
0.0
10
65.0008010864258
20
67.4692001342773
40
0.0
41
0.0
42
0.0
10
65.3264007568359
20
67.2649993896484
40
0.0
41
0.0
42
0.0
10
65.6676025390625
20
67.0311965942383
40
0.0
41
0.0
42
0.0
10
65.7153015136719
20
66.9960021972656
40
0.0
41
0.0
42
0.0
10
65.8342971801758
20
66.8827972412109
40
0.0
41
0.0
42
0.0
10
65.993896484375
20
66.7518997192383
40
0.0
41
0.0
42
0.0
10
66.2054977416992
20
66.5464019775391
40
0.0
41
0.0
42
0.0
10
66.2519989013672
20
66.4926986694336
40
0.0
41
0.0
42
0.0
10
66.3636016845703
20
66.3271026611328
40
0.0
41
0.0
42
0.0
10
66.379997253418
20
66.3053970336914
40
0.0
41
0.0
42
0.0
10
66.4964981079102
20
66.1664962768555
40
0.0
41
0.0
42
0.0
10
66.6201019287109
20
65.991096496582
40
0.0
41
0.0
42
0.0
10
66.71240234375
20
65.8254013061523
40
0.0
41
0.0
42
0.0
10
66.9144973754883
20
65.4901962280273
40
0.0
41
0.0
42
0.0
10
66.9964981079102
20
65.3330001831055
40
0.0
41
0.0
42
0.0
10
67.1762008666992
20
65.0009994506836
40
0.0
41
0.0
42
0.0
10
67.2032012939453
20
65.0009994506836
40
0.0
41
0.0
42
0.0
10
67.2031021118164
20
65.0146026611328
40
0.0
41
0.0
42
0.0
10
66.9991989135742
20
65.3911972045898
40
0.0
41
0.0
42
0.0
10
66.9375
20
65.5095977783203
40
0.0
41
0.0
42
0.0
10
66.7116012573242
20
65.8843994140625
40
0.0
41
0.0
42
0.0
10
66.6489028930664
20
65.9981002807617
40
0.0
41
0.0
42
0.0
10
66.5031967163086
20
66.206298828125
40
0.0
41
0.0
42
0.0
10
66.3703002929688
20
66.3646011352539
40
0.0
41
0.0
42
0.0
10
66.3565979003906
20
66.382698059082
40
0.0
41
0.0
42
0.0
10
66.2727966308594
20
66.5071029663086
40
0.0
41
0.0
42
0.0
10
66.2400970458984
20
66.5448989868164
40
0.0
41
0.0
42
0.0
10
66.0058975219727
20
66.7723007202148
40
0.0
41
0.0
42
0.0
10
65.8274993896484
20
66.9185028076172
40
0.0
41
0.0
42
0.0
10
65.7379989624023
20
67.0037002563477
40
0.0
41
0.0
42
0.0
10
65.7041015625
20
67.0287017822266
40
0.0
41
0.0
42
0.0
10
65.3833999633789
20
67.2485961914062
40
0.0
41
0.0
42
0.0
10
65.0139007568359
20
67.4804992675781
40
0.0
41
0.0
42
0.0
10
65.0009002685547
20
67.4804992675781
40
0.0
41
0.0
42
0.0
210
0.0
220
0.0
230
1.0
0
LWPOLYLINE
5
23
330
1C
100
AcDbEntity
67
0
8
0
62
256
6
ByLayer
370
-1
48
1.0
60
0
100
AcDbPolyline
90
35
70
1
38
0.0
39
0.0
10
65.0146026611328
20
82.7966003417969
40
0.0
41
0.0
42
0.0
10
65.3912963867188
20
83.000602722168
40
0.0
41
0.0
42
0.0
10
65.5096969604492
20
83.0622024536133
40
0.0
41
0.0
42
0.0
10
65.8844985961914
20
83.2881011962891
40
0.0
41
0.0
42
0.0
10
65.9981002807617
20
83.3507995605469
40
0.0
41
0.0
42
0.0
10
66.2063980102539
20
83.4965972900391
40
0.0
41
0.0
42
0.0
10
66.3647003173828
20
83.6295013427734
40
0.0
41
0.0
42
0.0
10
66.382698059082
20
83.6432037353516
40
0.0
41
0.0
42
0.0
10
66.5072021484375
20
83.7268981933594
40
0.0
41
0.0
42
0.0
10
66.5448989868164
20
83.7596969604492
40
0.0
41
0.0
42
0.0
10
66.7723007202148
20
83.9940032958984
40
0.0
41
0.0
42
0.0
10
66.9186019897461
20
84.1724014282227
40
0.0
41
0.0
42
0.0
10
67.0037994384766
20
84.2618026733398
40
0.0
41
0.0
42
0.0
10
67.0294036865234
20
84.2966003417969
40
0.0
41
0.0
42
0.0
10
67.2485961914062
20
84.6165008544922
40
0.0
41
0.0
42
0.0
10
67.4804992675781
20
84.9860000610352
40
0.0
41
0.0
42
0.0
10
67.4804992675781
20
84.9990005493164
40
0.0
41
0.0
42
0.0
10
67.4692001342773
20
84.9990005493164
40
0.0
41
0.0
42
0.0
10
67.2649993896484
20
84.6734008789062
40
0.0
41
0.0
42
0.0
10
67.0313034057617
20
84.3321990966797
40
0.0
41
0.0
42
0.0
10
66.9961013793945
20
84.2844009399414
40
0.0
41
0.0
42
0.0
10
66.8827972412109
20
84.165397644043
40
0.0
41
0.0
42
0.0
10
66.7518997192383
20
84.0059967041016
40
0.0
41
0.0
42
0.0
10
66.546501159668
20
83.7942962646484
40
0.0
41
0.0
42
0.0
10
66.4927978515625
20
83.7477035522461
40
0.0
41
0.0
42
0.0
10
66.3272018432617
20
83.6361999511719
40
0.0
41
0.0
42
0.0
10
66.3053970336914
20
83.6197967529297
40
0.0
41
0.0
42
0.0
10
66.1666030883789
20
83.503303527832
40
0.0
41
0.0
42
0.0
10
65.9912033081055
20
83.3796005249023
40
0.0
41
0.0
42
0.0
10
65.8255004882812
20
83.2873001098633
40
0.0
41
0.0
42
0.0
10
65.4903030395508
20
83.0851974487305
40
0.0
41
0.0
42
0.0
10
65.3330001831055
20
83.0031967163086
40
0.0
41
0.0
42
0.0
10
65.0009994506836
20
82.823600769043
40
0.0
41
0.0
42
0.0
10
65.0009994506836
20
82.7966995239258
40
0.0
41
0.0
42
0.0
10
65.0146026611328
20
82.7966003417969
40
0.0
41
0.0
42
0.0
210
0.0
220
0.0
230
1.0
0
LWPOLYLINE
5
24
330
1C
100
AcDbEntity
67
0
8
0
62
256
6
ByLayer
370
-1
48
1.0
60
0
100
AcDbPolyline
90
88
70
1
38
0.0
39
0.0
10
65.4763031005859
20
74.9858016967773
40
0.0
41
0.0
42
0.0
10
65.4989013671875
20
74.9412994384766
40
0.0
41
0.0
42
0.0
10
65.5736999511719
20
74.7712020874023
40
0.0
41
0.0
42
0.0
10
65.6762008666992
20
74.4903030395508
40
0.0
41
0.0
42
0.0
10
65.7789001464844
20
74.3604965209961
40
0.0
41
0.0
42
0.0
10
65.9951019287109
20
74.14990234375
40
0.0
41
0.0
42
0.0
10
66.133903503418
20
73.9953002929688
40
0.0
41
0.0
42
0.0
10
66.3259963989258
20
73.8416976928711
40
0.0
41
0.0
42
0.0
10
66.489501953125
20
73.7679977416992
40
0.0
41
0.0
42
0.0
10
66.8245010375977
20
73.5727996826172
40
0.0
41
0.0
42
0.0
10
66.8610000610352
20
73.5565032958984
40
0.0
41
0.0
42
0.0
10
66.9815979003906
20
73.53759765625
40
0.0
41
0.0
42
0.0
10
67.0188980102539
20
73.5374984741211
40
0.0
41
0.0
42
0.0
10
67.1166000366211
20
73.5475997924805
40
0.0
41
0.0
42
0.0
10
67.4850006103516
20
73.4172973632812
40
0.0
41
0.0
42
0.0
10
67.7166976928711
20
73.3841018676758
40
0.0
41
0.0
42
0.0
10
67.7543029785156
20
73.3840026855469
40
0.0
41
0.0
42
0.0
10
68.0186004638672
20
73.4055023193359
40
0.0
41
0.0
42
0.0
10
68.2088012695312
20
73.4150009155273
40
0.0
41
0.0
42
0.0
10
68.5447998046875
20
73.4934005737305
40
0.0
41
0.0
42
0.0
10
68.5641021728516
20
73.5000991821289
40
0.0
41
0.0
42
0.0
10
69.1563034057617
20
73.6417007446289
40
0.0
41
0.0
42
0.0
10
69.5141983032227
20
73.7371978759766
40
0.0
41
0.0
42
0.0
10
69.8139038085938
20
73.8285980224609
40
0.0
41
0.0
42
0.0
10
70.013801574707
20
73.8752975463867
40
0.0
41
0.0
42
0.0
10
70.2307968139648
20
73.9578018188477
40
0.0
41
0.0
42
0.0
10
70.363899230957
20
74.0001983642578
40
0.0
41
0.0
42
0.0
10
70.5142974853516
20
74.032096862793
40
0.0
41
0.0
42
0.0
10
70.8906021118164
20
74.1628036499023
40
0.0
41
0.0
42
0.0
10
71.0152969360352
20
74.1733016967773
40
0.0
41
0.0
42
0.0
10
71.3895034790039
20
74.3155975341797
40
0.0
41
0.0
42
0.0
10
71.5152969360352
20
74.3356018066406
40
0.0
41
0.0
42
0.0
10
71.5624008178711
20
74.3496017456055
40
0.0
41
0.0
42
0.0
10
71.8843994140625
20
74.4989013671875
40
0.0
41
0.0
42
0.0
10
71.9372024536133
20
74.5257034301758
40
0.0
41
0.0
42
0.0
10
72.0122985839844
20
74.546501159668
40
0.0
41
0.0
42
0.0
10
72.3683013916016
20
74.7286987304688
40
0.0
41
0.0
42
0.0
10
72.5130004882812
20
74.776496887207
40
0.0
41
0.0
42
0.0
10
72.8483963012695
20
74.899299621582
40
0.0
41
0.0
42
0.0
10
73.0147018432617
20
74.9483032226562
40
0.0
41
0.0
42
0.0
10
73.1688003540039
20
74.9825973510742
40
0.0
41
0.0
42
0.0
10
73.2180023193359
20
74.9960021972656
40
0.0
41
0.0
42
0.0
10
73.217903137207
20
75.004997253418
40
0.0
41
0.0
42
0.0
10
73.0103988647461
20
75.0768966674805
40
0.0
41
0.0
42
0.0
10
72.8442001342773
20
75.1886978149414
40
0.0
41
0.0
42
0.0
10
72.508903503418
20
75.3618011474609
40
0.0
41
0.0
42
0.0
10
72.315299987793
20
75.5011978149414
40
0.0
41
0.0
42
0.0
10
72.1517028808594
20
75.5633010864258
40
0.0
41
0.0
42
0.0
10
72.0120010375977
20
75.6386032104492
40
0.0
41
0.0
42
0.0
10
71.8491973876953
20
75.685302734375
40
0.0
41
0.0
42
0.0
10
71.5136032104492
20
75.8348007202148
40
0.0
41
0.0
42
0.0
10
71.3883972167969
20
75.8638000488281
40
0.0
41
0.0
42
0.0
10
71.0930023193359
20
75.9884033203125
40
0.0
41
0.0
42
0.0
10
71.0659027099609
20
76.0016021728516
40
0.0
41
0.0
42
0.0
10
71.0117034912109
20
76.0372009277344
40
0.0
41
0.0
42
0.0
10
70.888298034668
20
76.0645980834961
40
0.0
41
0.0
42
0.0
10
70.5139999389648
20
76.2323989868164
40
0.0
41
0.0
42
0.0
10
70.3898010253906
20
76.2511978149414
40
0.0
41
0.0
42
0.0
10
70.0145034790039
20
76.3849029541016
40
0.0
41
0.0
42
0.0
10
69.8897018432617
20
76.4078979492188
40
0.0
41
0.0
42
0.0
10
69.6110992431641
20
76.5003967285156
40
0.0
41
0.0
42
0.0
10
69.5121994018555
20
76.5475997924805
40
0.0
41
0.0
42
0.0
10
69.3952026367188
20
76.5854034423828
40
0.0
41
0.0
42
0.0
10
69.0121002197266
20
76.7285003662109
40
0.0
41
0.0
42
0.0
10
68.8884963989258
20
76.7824020385742
40
0.0
41
0.0
42
0.0
10
68.5136032104492
20
76.8610000610352
40
0.0
41
0.0
42
0.0
10
68.3899993896484
20
76.9131011962891
40
0.0
41
0.0
42
0.0
10
68.0192031860352
20
76.9393997192383
40
0.0
41
0.0
42
0.0
10
67.9811019897461
20
76.9393005371094
40
0.0
41
0.0
42
0.0
10
67.6324996948242
20
76.9002990722656
40
0.0
41
0.0
42
0.0
10
67.5152969360352
20
76.9387969970703
40
0.0
41
0.0
42
0.0
10
67.3928985595703
20
76.9542999267578
40
0.0
41
0.0
42
0.0
10
67.3542022705078
20
76.9570999145508
40
0.0
41
0.0
42
0.0
10
67.3182983398438
20
76.9570999145508
40
0.0
41
0.0
42
0.0
10
66.9848022460938
20
76.8488998413086
40
0.0
41
0.0
42
0.0
10
66.8217010498047
20
76.8245010375977
40
0.0
41
0.0
42
0.0
10
66.4891967773438
20
76.6439971923828
40
0.0
41
0.0
42
0.0
10
66.3258972167969
20
76.5718994140625
40
0.0
41
0.0
42
0.0
10
66.2404022216797
20
76.5038986206055
40
0.0
41
0.0
42
0.0
10
65.9934005737305
20
76.279296875
40
0.0
41
0.0
42
0.0
10
65.9046020507812
20
76.2110977172852
40
0.0
41
0.0
42
0.0
10
65.8654022216797
20
76.1701965332031
40
0.0
41
0.0
42
0.0
10
65.7904968261719
20
76.0971984863281
40
0.0
41
0.0
42
0.0
10
65.7239990234375
20
76.0090026855469
40
0.0
41
0.0
42
0.0
10
65.4914016723633
20
75.5149002075195
40
0.0
41
0.0
42
0.0
10
65.4739990234375
20
75.0513000488281
40
0.0
41
0.0
42
0.0
10
65.4738998413086
20
75.0126037597656
40
0.0
41
0.0
42
0.0
10
65.4763031005859
20
74.9858016967773
40
0.0
41
0.0
42
0.0
210
0.0
220
0.0
230
1.0
0
LWPOLYLINE
5
25
330
1C
100
AcDbEntity
67
0
8
0
62
256
6
ByLayer
370
-1
48
1.0
60
0
100
AcDbPolyline
90
82
70
1
38
0.0
39
0.0
10
65.5197982788086
20
75.0420989990234
40
0.0
41
0.0
42
0.0
10
65.5342025756836
20
75.4856033325195
40
0.0
41
0.0
42
0.0
10
65.5920028686523
20
75.5924987792969
40
0.0
41
0.0
42
0.0
10
65.7798004150391
20
75.9908981323242
40
0.0
41
0.0
42
0.0
10
65.834098815918
20
76.0630035400391
40
0.0
41
0.0
42
0.0
10
65.8923034667969
20
76.1197967529297
40
0.0
41
0.0
42
0.0
10
65.9382019042969
20
76.1673965454102
40
0.0
41
0.0
42
0.0
10
66.0065002441406
20
76.2199020385742
40
0.0
41
0.0
42
0.0
10
66.3099975585938
20
76.4960021972656
40
0.0
41
0.0
42
0.0
10
66.3840026855469
20
76.5543975830078
40
0.0
41
0.0
42
0.0
10
66.5106964111328
20
76.6103973388672
40
0.0
41
0.0
42
0.0
10
66.8881988525391
20
76.8152008056641
40
0.0
41
0.0
42
0.0
10
67.0150985717773
20
76.8341979980469
40
0.0
41
0.0
42
0.0
10
67.3765029907227
20
76.951301574707
40
0.0
41
0.0
42
0.0
10
67.4845962524414
20
76.9376983642578
40
0.0
41
0.0
42
0.0
10
67.6483001708984
20
76.883903503418
40
0.0
41
0.0
42
0.0
10
67.6837997436523
20
76.8837966918945
40
0.0
41
0.0
42
0.0
10
68.0036010742188
20
76.9197006225586
40
0.0
41
0.0
42
0.0
10
68.3199005126953
20
76.8973999023438
40
0.0
41
0.0
42
0.0
10
68.486198425293
20
76.8272018432617
40
0.0
41
0.0
42
0.0
10
68.8212966918945
20
76.7570037841797
40
0.0
41
0.0
42
0.0
10
68.9878005981445
20
76.6843032836914
40
0.0
41
0.0
42
0.0
10
69.4824981689453
20
76.4997024536133
40
0.0
41
0.0
42
0.0
10
69.820198059082
20
76.3876037597656
40
0.0
41
0.0
42
0.0
10
69.9853973388672
20
76.3571014404297
40
0.0
41
0.0
42
0.0
10
70.3200988769531
20
76.2377014160156
40
0.0
41
0.0
42
0.0
10
70.4859008789062
20
76.2126998901367
40
0.0
41
0.0
42
0.0
10
70.8216018676758
20
76.0622024536133
40
0.0
41
0.0
42
0.0
10
70.9881973266602
20
76.0251007080078
40
0.0
41
0.0
42
0.0
10
71.0295028686523
20
75.9981994628906
40
0.0
41
0.0
42
0.0
10
71.0625
20
75.9821014404297
40
0.0
41
0.0
42
0.0
10
71.321403503418
20
75.8730010986328
40
0.0
41
0.0
42
0.0
10
71.4866027832031
20
75.8347015380859
40
0.0
41
0.0
42
0.0
10
71.8620986938477
20
75.6676025390625
40
0.0
41
0.0
42
0.0
10
71.9878997802734
20
75.6315002441406
40
0.0
41
0.0
42
0.0
10
72.1460037231445
20
75.5464019775391
40
0.0
41
0.0
42
0.0
10
72.2722015380859
20
75.4984970092773
40
0.0
41
0.0
42
0.0
10
72.4908981323242
20
75.3410034179688
40
0.0
41
0.0
42
0.0
10
72.8656005859375
20
75.1474990844727
40
0.0
41
0.0
42
0.0
10
72.9893035888672
20
75.0643997192383
40
0.0
41
0.0
42
0.0
10
73.1474990844727
20
75.0102005004883
40
0.0
41
0.0
42
0.0
10
73.1464004516602
20
74.9905014038086
40
0.0
41
0.0
42
0.0
10
72.9852981567383
20
74.9539031982422
40
0.0
41
0.0
42
0.0
10
72.8616027832031
20
74.9172973632812
40
0.0
41
0.0
42
0.0
10
72.4869003295898
20
74.7801971435547
40
0.0
41
0.0
42
0.0
10
72.3622970581055
20
74.7390975952148
40
0.0
41
0.0
42
0.0
10
72.3237991333008
20
74.7230987548828
40
0.0
41
0.0
42
0.0
10
71.9876022338867
20
74.5511016845703
40
0.0
41
0.0
42
0.0
10
71.8884963989258
20
74.5234985351562
40
0.0
41
0.0
42
0.0
10
71.8442001342773
20
74.5009994506836
40
0.0
41
0.0
42
0.0
10
71.5532989501953
20
74.3662033081055
40
0.0
41
0.0
42
0.0
10
71.4845962524414
20
74.345703125
40
0.0
41
0.0
42
0.0
10
71.3203964233398
20
74.3197021484375
40
0.0
41
0.0
42
0.0
10
70.9847030639648
20
74.1920013427734
40
0.0
41
0.0
42
0.0
10
70.8192977905273
20
74.1781997680664
40
0.0
41
0.0
42
0.0
10
70.4856033325195
20
74.0622024536133
40
0.0
41
0.0
42
0.0
10
70.1899032592773
20
73.9996032714844
40
0.0
41
0.0
42
0.0
10
70.1144027709961
20
73.9755020141602
40
0.0
41
0.0
42
0.0
10
69.9860992431641
20
73.9266967773438
40
0.0
41
0.0
42
0.0
10
69.720703125
20
73.8648986816406
40
0.0
41
0.0
42
0.0
10
69.4857025146484
20
73.793098449707
40
0.0
41
0.0
42
0.0
10
69.2033996582031
20
73.7177963256836
40
0.0
41
0.0
42
0.0
10
68.5457992553711
20
73.5602035522461
40
0.0
41
0.0
42
0.0
10
68.4847030639648
20
73.5432968139648
40
0.0
41
0.0
42
0.0
10
68.2557983398438
20
73.499397277832
40
0.0
41
0.0
42
0.0
10
68.0759963989258
20
73.4572982788086
40
0.0
41
0.0
42
0.0
10
67.9813003540039
20
73.4524993896484
40
0.0
41
0.0
42
0.0
10
67.6552963256836
20
73.4261016845703
40
0.0
41
0.0
42
0.0
10
67.5149002075195
20
73.4462966918945
40
0.0
41
0.0
42
0.0
10
67.1812973022461
20
73.5644989013672
40
0.0
41
0.0
42
0.0
10
67.1460037231445
20
73.5643997192383
40
0.0
41
0.0
42
0.0
10
67.0034027099609
20
73.5494003295898
40
0.0
41
0.0
42
0.0
10
66.8603973388672
20
73.5719985961914
40
0.0
41
0.0
42
0.0
10
66.5102996826172
20
73.7759017944336
40
0.0
41
0.0
42
0.0
10
66.383903503418
20
73.8328018188477
40
0.0
41
0.0
42
0.0
10
66.1686019897461
20
74.0045013427734
40
0.0
41
0.0
42
0.0
10
66.0046997070312
20
74.1872024536133
40
0.0
41
0.0
42
0.0
10
65.840202331543
20
74.3476028442383
40
0.0
41
0.0
42
0.0
10
65.7119979858398
20
74.5094985961914
40
0.0
41
0.0
42
0.0
10
65.5885009765625
20
74.8479995727539
40
0.0
41
0.0
42
0.0
10
65.5170974731445
20
75.0102996826172
40
0.0
41
0.0
42
0.0
10
65.5197982788086
20
75.0420989990234
40
0.0
41
0.0
42
0.0
210
0.0
220
0.0
230
1.0
0
LWPOLYLINE
5
26
330
1C
100
AcDbEntity
67
0
8
0
62
256
6
ByLayer
370
-1
48
1.0
60
0
100
AcDbPolyline
90
98
70
1
38
0.0
39
0.0
10
67.7660980224609
20
68.9857025146484
40
0.0
41
0.0
42
0.0
10
67.7927017211914
20
68.9232025146484
40
0.0
41
0.0
42
0.0
10
67.9981994628906
20
68.5093002319336
40
0.0
41
0.0
42
0.0
10
68.0075988769531
20
68.4945983886719
40
0.0
41
0.0
42
0.0
10
68.4885025024414
20
68.1519012451172
40
0.0
41
0.0
42
0.0
10
68.8632965087891
20
68.0748977661133
40
0.0
41
0.0
42
0.0
10
68.9835968017578
20
68.0319976806641
40
0.0
41
0.0
42
0.0
10
69.0189971923828
20
68.0318984985352
40
0.0
41
0.0
42
0.0
10
69.2837982177734
20
68.0550003051758
40
0.0
41
0.0
42
0.0
10
69.480598449707
20
68.0423965454102
40
0.0
41
0.0
42
0.0
10
69.5162963867188
20
68.0422973632812
40
0.0
41
0.0
42
0.0
10
69.5731964111328
20
68.0625991821289
40
0.0
41
0.0
42
0.0
10
69.6787033081055
20
68.1153030395508
40
0.0
41
0.0
42
0.0
10
70.0151977539062
20
68.1623001098633
40
0.0
41
0.0
42
0.0
10
70.3844985961914
20
68.282600402832
40
0.0
41
0.0
42
0.0
10
70.4823989868164
20
68.3665008544922
40
0.0
41
0.0
42
0.0
10
70.5093994140625
20
68.3843002319336
40
0.0
41
0.0
42
0.0
10
70.7311019897461
20
68.4973983764648
40
0.0
41
0.0
42
0.0
10
70.7590026855469
20
68.5231018066406
40
0.0
41
0.0
42
0.0
10
70.8203964233398
20
68.620002746582
40
0.0
41
0.0
42
0.0
10
70.9413986206055
20
68.6993026733398
40
0.0
41
0.0
42
0.0
10
71.0050964355469
20
68.7701034545898
40
0.0
41
0.0
42
0.0
10
71.2547988891602
20
68.9937973022461
40
0.0
41
0.0
42
0.0
10
71.3352966308594
20
69.1174011230469
40
0.0
41
0.0
42
0.0
10
71.3784027099609
20
69.1692962646484
40
0.0
41
0.0
42
0.0
10
71.5024032592773
20
69.3769989013672
40
0.0
41
0.0
42
0.0
10
71.5855026245117
20
69.491096496582
40
0.0
41
0.0
42
0.0
10
71.6768035888672
20
69.6654968261719
40
0.0
41
0.0
42
0.0
10
71.8674011230469
20
69.9906997680664
40
0.0
41
0.0
42
0.0
10
72.0017013549805
20
70.2143020629883
40
0.0
41
0.0
42
0.0
10
72.1508026123047
20
70.4915008544922
40
0.0
41
0.0
42
0.0
10
72.2491989135742
20
70.6159973144531
40
0.0
41
0.0
42
0.0
10
72.3768005371094
20
70.8949966430664
40
0.0
41
0.0
42
0.0
10
72.4190979003906
20
70.9912033081055
40
0.0
41
0.0
42
0.0
10
72.4903030395508
20
71.0759963989258
40
0.0
41
0.0
42
0.0
10
72.5017013549805
20
71.0932998657227
40
0.0
41
0.0
42
0.0
10
72.6977996826172
20
71.4907989501953
40
0.0
41
0.0
42
0.0
10
72.788200378418
20
71.6153030395508
40
0.0
41
0.0
42
0.0
10
72.9413986206055
20
71.9888000488281
40
0.0
41
0.0
42
0.0
10
72.9535980224609
20
72.0123977661133
40
0.0
41
0.0
42
0.0
10
73.0022964477539
20
72.0772018432617
40
0.0
41
0.0
42
0.0
10
73.035400390625
20
72.1352996826172
40
0.0
41
0.0
42
0.0
10
73.1745986938477
20
72.4886016845703
40
0.0
41
0.0
42
0.0
10
73.2389984130859
20
72.6138000488281
40
0.0
41
0.0
42
0.0
10
73.2552032470703
20
72.652702331543
40
0.0
41
0.0
42
0.0
10
73.3788986206055
20
72.9878005981445
40
0.0
41
0.0
42
0.0
10
73.4666976928711
20
73.1857986450195
40
0.0
41
0.0
42
0.0
10
73.5010986328125
20
73.2414016723633
40
0.0
41
0.0
42
0.0
10
73.5447998046875
20
73.3479995727539
40
0.0
41
0.0
42
0.0
10
73.5850982666016
20
73.4830017089844
40
0.0
41
0.0
42
0.0
10
73.5849990844727
20
73.5141983032227
40
0.0
41
0.0
42
0.0
10
73.5438003540039
20
73.5848999023438
40
0.0
41
0.0
42
0.0
10
73.5096969604492
20
73.6288986206055
40
0.0
41
0.0
42
0.0
10
73.4822998046875
20
73.6288986206055
40
0.0
41
0.0
42
0.0
10
73.3187026977539
20
73.5922012329102
40
0.0
41
0.0
42
0.0
10
72.9851989746094
20
73.5476989746094
40
0.0
41
0.0
42
0.0
10
72.8849029541016
20
73.5084991455078
40
0.0
41
0.0
42
0.0
10
72.8595962524414
20
73.5002975463867
40
0.0
41
0.0
42
0.0
10
72.5522994995117
20
73.3664016723633
40
0.0
41
0.0
42
0.0
10
72.4897003173828
20
73.3304977416992
40
0.0
41
0.0
42
0.0
10
72.3227005004883
20
73.2514038085938
40
0.0
41
0.0
42
0.0
10
71.9884033203125
20
73.1458969116211
40
0.0
41
0.0
42
0.0
10
71.915397644043
20
73.1044998168945
40
0.0
41
0.0
42
0.0
10
71.6397018432617
20
73.0005035400391
40
0.0
41
0.0
42
0.0
10
71.5475006103516
20
72.9593963623047
40
0.0
41
0.0
42
0.0
10
71.4898986816406
20
72.9177017211914
40
0.0
41
0.0
42
0.0
10
71.1147003173828
20
72.7807006835938
40
0.0
41
0.0
42
0.0
10
70.9900970458984
20
72.6953964233398
40
0.0
41
0.0
42
0.0
10
70.6203002929688
20
72.5361022949219
40
0.0
41
0.0
42
0.0
10
70.5848999023438
20
72.5037002563477
40
0.0
41
0.0
42
0.0
10
70.4916000366211
20
72.4357986450195
40
0.0
41
0.0
42
0.0
10
70.4521026611328
20
72.4121017456055
40
0.0
41
0.0
42
0.0
10
70.3610992431641
20
72.3759994506836
40
0.0
41
0.0
42
0.0
10
70.2287979125977
20
72.3010025024414
40
0.0
41
0.0
42
0.0
10
69.9885025024414
20
72.2015991210938
40
0.0
41
0.0
42
0.0
10
69.6905975341797
20
72.0602035522461
40
0.0
41
0.0
42
0.0
10
69.6098022460938
20
72.0018997192383
40
0.0
41
0.0
42
0.0
10
69.4885025024414
20
71.9427032470703
40
0.0
41
0.0
42
0.0
10
69.3253021240234
20
71.8760986328125
40
0.0
41
0.0
42
0.0
10
68.9924011230469
20
71.6782989501953
40
0.0
41
0.0
42
0.0
10
68.7982025146484
20
71.5048980712891
40
0.0
41
0.0
42
0.0
10
68.6977005004883
20
71.3974990844727
40
0.0
41
0.0
42
0.0
10
68.6159973144531
20
71.3313980102539
40
0.0
41
0.0
42
0.0
10
68.4897003173828
20
71.2758026123047
40
0.0
41
0.0
42
0.0
10
68.4365997314453
20
71.2440032958984
40
0.0
41
0.0
42
0.0
10
68.2753982543945
20
71.0093994140625
40
0.0
41
0.0
42
0.0
10
68.1138000488281
20
70.6731033325195
40
0.0
41
0.0
42
0.0
10
68.0434036254883
20
70.5961990356445
40
0.0
41
0.0
42
0.0
10
67.9945983886719
20
70.5578002929688
40
0.0
41
0.0
42
0.0
10
67.9524002075195
20
70.5091018676758
40
0.0
41
0.0
42
0.0
10
67.9176025390625
20
70.4158020019531
40
0.0
41
0.0
42
0.0
10
67.8575973510742
20
70.1773986816406
40
0.0
41
0.0
42
0.0
10
67.7744979858398
20
70.0210037231445
40
0.0
41
0.0
42
0.0
10
67.7722015380859
20
70.0146026611328
40
0.0
41
0.0
42
0.0
10
67.736701965332
20
69.8044967651367
40
0.0
41
0.0
42
0.0
10
67.7164993286133
20
69.519401550293
40
0.0
41
0.0
42
0.0
10
67.7213973999023
20
69.2754974365234
40
0.0
41
0.0
42
0.0
10
67.7660980224609
20
68.9857025146484
40
0.0
41
0.0
42
0.0
210
0.0
220
0.0
230
1.0
0
LWPOLYLINE
5
27
330
1C
100
AcDbEntity
67
0
8
0
62
256
6
ByLayer
370
-1
48
1.0
60
0
100
AcDbPolyline
90
95
70
1
38
0.0
39
0.0
10
67.7772979736328
20
69.8210983276367
40
0.0
41
0.0
42
0.0
10
67.8050994873047
20
69.9851989746094
40
0.0
41
0.0
42
0.0
10
67.8087005615234
20
69.9955978393555
40
0.0
41
0.0
42
0.0
10
67.8709030151367
20
70.1126022338867
40
0.0
41
0.0
42
0.0
10
67.9374008178711
20
70.3766021728516
40
0.0
41
0.0
42
0.0
10
67.9801025390625
20
70.4907989501953
40
0.0
41
0.0
42
0.0
10
68.0053024291992
20
70.5201034545898
40
0.0
41
0.0
42
0.0
10
68.0287017822266
20
70.5383987426758
40
0.0
41
0.0
42
0.0
10
68.1005020141602
20
70.6168975830078
40
0.0
41
0.0
42
0.0
10
68.2799987792969
20
70.9905014038086
40
0.0
41
0.0
42
0.0
10
68.4303970336914
20
71.2108993530273
40
0.0
41
0.0
42
0.0
10
68.5102996826172
20
71.2587966918945
40
0.0
41
0.0
42
0.0
10
68.6738967895508
20
71.3309020996094
40
0.0
41
0.0
42
0.0
10
68.7741012573242
20
71.4119033813477
40
0.0
41
0.0
42
0.0
10
68.8519973754883
20
71.495002746582
40
0.0
41
0.0
42
0.0
10
69.0074996948242
20
71.6337966918945
40
0.0
41
0.0
42
0.0
10
69.3450012207031
20
71.8338012695312
40
0.0
41
0.0
42
0.0
10
69.5113983154297
20
71.9016036987305
40
0.0
41
0.0
42
0.0
10
69.7092971801758
20
71.9980010986328
40
0.0
41
0.0
42
0.0
10
69.7731018066406
20
72.0440979003906
40
0.0
41
0.0
42
0.0
10
70.0113983154297
20
72.1573028564453
40
0.0
41
0.0
42
0.0
10
70.1992034912109
20
72.2348022460938
40
0.0
41
0.0
42
0.0
10
70.3741989135742
20
72.3339004516602
40
0.0
41
0.0
42
0.0
10
70.4550018310547
20
72.366096496582
40
0.0
41
0.0
42
0.0
10
70.50830078125
20
72.3981018066406
40
0.0
41
0.0
42
0.0
10
70.6436996459961
20
72.4962997436523
40
0.0
41
0.0
42
0.0
10
70.6783981323242
20
72.5279998779297
40
0.0
41
0.0
42
0.0
10
71.0098037719727
20
72.6707000732422
40
0.0
41
0.0
42
0.0
10
71.1753005981445
20
72.7842025756836
40
0.0
41
0.0
42
0.0
10
71.5100021362305
20
72.9065017700195
40
0.0
41
0.0
42
0.0
10
71.584602355957
20
72.9605026245117
40
0.0
41
0.0
42
0.0
10
71.6718978881836
20
72.999397277832
40
0.0
41
0.0
42
0.0
10
71.9213027954102
20
73.0934982299805
40
0.0
41
0.0
42
0.0
10
72.0115966796875
20
73.1436004638672
40
0.0
41
0.0
42
0.0
10
72.3872985839844
20
73.2621994018555
40
0.0
41
0.0
42
0.0
10
72.5102005004883
20
73.3203964233398
40
0.0
41
0.0
42
0.0
10
72.5580978393555
20
73.347900390625
40
0.0
41
0.0
42
0.0
10
72.9064025878906
20
73.4996032714844
40
0.0
41
0.0
42
0.0
10
72.9354019165039
20
73.5092010498047
40
0.0
41
0.0
42
0.0
10
73.0147018432617
20
73.5401000976562
40
0.0
41
0.0
42
0.0
10
73.3912963867188
20
73.5903015136719
40
0.0
41
0.0
42
0.0
10
73.4942016601562
20
73.6131973266602
40
0.0
41
0.0
42
0.0
10
73.5436019897461
20
73.5497970581055
40
0.0
41
0.0
42
0.0
10
73.5748977661133
20
73.4962005615234
40
0.0
41
0.0
42
0.0
10
73.5336990356445
20
73.3573989868164
40
0.0
41
0.0
42
0.0
10
73.4987030029297
20
73.272102355957
40
0.0
41
0.0
42
0.0
10
73.472297668457
20
73.2294998168945
40
0.0
41
0.0
42
0.0
10
73.3758010864258
20
73.0120010375977
40
0.0
41
0.0
42
0.0
10
73.2470016479492
20
72.6628036499023
40
0.0
41
0.0
42
0.0
10
73.1690979003906
20
72.5112991333008
40
0.0
41
0.0
42
0.0
10
73.0444030761719
20
72.1948013305664
40
0.0
41
0.0
42
0.0
10
72.9974975585938
20
72.1123962402344
40
0.0
41
0.0
42
0.0
10
72.9337005615234
20
72.027702331543
40
0.0
41
0.0
42
0.0
10
72.9252014160156
20
72.0111999511719
40
0.0
41
0.0
42
0.0
10
72.7872009277344
20
71.6746978759766
40
0.0
41
0.0
42
0.0
10
72.6669006347656
20
71.5091018676758
40
0.0
41
0.0
42
0.0
10
72.4981994628906
20
71.1672973632812
40
0.0
41
0.0
42
0.0
10
72.4775009155273
20
71.1352996826172
40
0.0
41
0.0
42
0.0
10
72.3712005615234
20
71.0087966918945
40
0.0
41
0.0
42
0.0
10
72.3356018066406
20
70.9278030395508
40
0.0
41
0.0
42
0.0
10
72.2193984985352
20
70.6738967895508
40
0.0
41
0.0
42
0.0
10
72.0885009765625
20
70.5083999633789
40
0.0
41
0.0
42
0.0
10
71.9981994628906
20
70.3404006958008
40
0.0
41
0.0
42
0.0
10
71.7994995117188
20
70.0092010498047
40
0.0
41
0.0
42
0.0
10
71.518798828125
20
69.5302963256836
40
0.0
41
0.0
42
0.0
10
71.5075988769531
20
69.5087966918945
40
0.0
41
0.0
42
0.0
10
71.4974975585938
20
69.495002746582
40
0.0
41
0.0
42
0.0
10
71.3330001831055
20
69.2193984985352
40
0.0
41
0.0
42
0.0
10
71.2939987182617
20
69.1725006103516
40
0.0
41
0.0
42
0.0
10
71.1859970092773
20
69.006103515625
40
0.0
41
0.0
42
0.0
10
70.9947967529297
20
68.8348999023438
40
0.0
41
0.0
42
0.0
10
70.9083023071289
20
68.7387008666992
40
0.0
41
0.0
42
0.0
10
70.8031005859375
20
68.6698989868164
40
0.0
41
0.0
42
0.0
10
70.7242965698242
20
68.5455017089844
40
0.0
41
0.0
42
0.0
10
70.6780014038086
20
68.5025024414062
40
0.0
41
0.0
42
0.0
10
70.4909973144531
20
68.4072036743164
40
0.0
41
0.0
42
0.0
10
70.459602355957
20
68.3868026733398
40
0.0
41
0.0
42
0.0
10
70.3265991210938
20
68.2726974487305
40
0.0
41
0.0
42
0.0
10
69.9847030639648
20
68.1617965698242
40
0.0
41
0.0
42
0.0
10
69.611198425293
20
68.1097030639648
40
0.0
41
0.0
42
0.0
10
69.5346984863281
20
68.0716018676758
40
0.0
41
0.0
42
0.0
10
69.4890975952148
20
68.0551986694336
40
0.0
41
0.0
42
0.0
10
69.2322006225586
20
68.0718002319336
40
0.0
41
0.0
42
0.0
10
69.1939010620117
20
68.0718002319336
40
0.0
41
0.0
42
0.0
10
69.0093994140625
20
68.0557022094727
40
0.0
41
0.0
42
0.0
10
68.8003997802734
20
68.1304016113281
40
0.0
41
0.0
42
0.0
10
68.5113983154297
20
68.1897964477539
40
0.0
41
0.0
42
0.0
10
68.1470031738281
20
68.4487991333008
40
0.0
41
0.0
42
0.0
10
68.0747985839844
20
68.505500793457
40
0.0
41
0.0
42
0.0
10
68.0016021728516
20
68.6181030273438
40
0.0
41
0.0
42
0.0
10
67.8444976806641
20
68.9344024658203
40
0.0
41
0.0
42
0.0
10
67.8105010986328
20
69.0140991210938
40
0.0
41
0.0
42
0.0
10
67.7570037841797
20
69.3618011474609
40
0.0
41
0.0
42
0.0
10
67.7538986206055
20
69.4905014038086
40
0.0
41
0.0
42
0.0
10
67.7772979736328
20
69.8210983276367
40
0.0
41
0.0
42
0.0
210
0.0
220
0.0
230
1.0
0
LWPOLYLINE
5
28
330
1C
100
AcDbEntity
67
0
8
0
62
256
6
ByLayer
370
-1
48
1.0
60
0
100
AcDbPolyline
90
103
70
1
38
0.0
39
0.0
10
68.1153030395508
20
80.3211975097656
40
0.0
41
0.0
42
0.0
10
68.1622009277344
20
79.9847030639648
40
0.0
41
0.0
42
0.0
10
68.282600402832
20
79.6154022216797
40
0.0
41
0.0
42
0.0
10
68.3665008544922
20
79.5175018310547
40
0.0
41
0.0
42
0.0
10
68.3842010498047
20
79.4905014038086
40
0.0
41
0.0
42
0.0
10
68.4972991943359
20
79.2686004638672
40
0.0
41
0.0
42
0.0
10
68.5231018066406
20
79.2407989501953
40
0.0
41
0.0
42
0.0
10
68.620002746582
20
79.1793975830078
40
0.0
41
0.0
42
0.0
10
68.6992034912109
20
79.0582962036133
40
0.0
41
0.0
42
0.0
10
68.7699966430664
20
78.9947967529297
40
0.0
41
0.0
42
0.0
10
68.9936981201172
20
78.7449035644531
40
0.0
41
0.0
42
0.0
10
69.1174011230469
20
78.6644973754883
40
0.0
41
0.0
42
0.0
10
69.1692962646484
20
78.6212997436523
40
0.0
41
0.0
42
0.0
10
69.3769989013672
20
78.4973983764648
40
0.0
41
0.0
42
0.0
10
69.491096496582
20
78.4141998291016
40
0.0
41
0.0
42
0.0
10
69.665397644043
20
78.3228988647461
40
0.0
41
0.0
42
0.0
10
69.9906005859375
20
78.1323013305664
40
0.0
41
0.0
42
0.0
10
70.2143020629883
20
77.9981002807617
40
0.0
41
0.0
42
0.0
10
70.4915008544922
20
77.8488998413086
40
0.0
41
0.0
42
0.0
10
70.6158981323242
20
77.7505035400391
40
0.0
41
0.0
42
0.0
10
70.8948974609375
20
77.6229019165039
40
0.0
41
0.0
42
0.0
10
70.991096496582
20
77.5805969238281
40
0.0
41
0.0
42
0.0
10
71.0758972167969
20
77.5093994140625
40
0.0
41
0.0
42
0.0
10
71.0932006835938
20
77.4981994628906
40
0.0
41
0.0
42
0.0
10
71.4907989501953
20
77.3019027709961
40
0.0
41
0.0
42
0.0
10
71.6151962280273
20
77.2116012573242
40
0.0
41
0.0
42
0.0
10
71.9887008666992
20
77.0584030151367
40
0.0
41
0.0
42
0.0
10
72.0122985839844
20
77.0462036132812
40
0.0
41
0.0
42
0.0
10
72.0772018432617
20
76.9974975585938
40
0.0
41
0.0
42
0.0
10
72.1352005004883
20
76.9644012451172
40
0.0
41
0.0
42
0.0
10
72.4873962402344
20
76.8255996704102
40
0.0
41
0.0
42
0.0
10
72.8497009277344
20
76.6920013427734
40
0.0
41
0.0
42
0.0
10
72.9889984130859
20
76.6203002929688
40
0.0
41
0.0
42
0.0
10
73.1856994628906
20
76.5329971313477
40
0.0
41
0.0
42
0.0
10
73.2414016723633
20
76.4987030029297
40
0.0
41
0.0
42
0.0
10
73.347900390625
20
76.4549026489258
40
0.0
41
0.0
42
0.0
10
73.4830017089844
20
76.4148025512695
40
0.0
41
0.0
42
0.0
10
73.5142974853516
20
76.4147033691406
40
0.0
41
0.0
42
0.0
10
73.5848999023438
20
76.4559020996094
40
0.0
41
0.0
42
0.0
10
73.6288986206055
20
76.4901962280273
40
0.0
41
0.0
42
0.0
10
73.6287994384766
20
76.5176010131836
40
0.0
41
0.0
42
0.0
10
73.5922012329102
20
76.6811981201172
40
0.0
41
0.0
42
0.0
10
73.5476989746094
20
77.0146026611328
40
0.0
41
0.0
42
0.0
10
73.5084991455078
20
77.1147994995117
40
0.0
41
0.0
42
0.0
10
73.5002975463867
20
77.1401977539062
40
0.0
41
0.0
42
0.0
10
73.3664016723633
20
77.4475021362305
40
0.0
41
0.0
42
0.0
10
73.3304977416992
20
77.5102005004883
40
0.0
41
0.0
42
0.0
10
73.2514038085938
20
77.6772003173828
40
0.0
41
0.0
42
0.0
10
73.1457977294922
20
78.0114974975586
40
0.0
41
0.0
42
0.0
10
73.1044998168945
20
78.0843963623047
40
0.0
41
0.0
42
0.0
10
73.0005035400391
20
78.3600997924805
40
0.0
41
0.0
42
0.0
10
72.9592971801758
20
78.4523010253906
40
0.0
41
0.0
42
0.0
10
72.9176025390625
20
78.5100021362305
40
0.0
41
0.0
42
0.0
10
72.7807006835938
20
78.8852005004883
40
0.0
41
0.0
42
0.0
10
72.6952972412109
20
79.0096969604492
40
0.0
41
0.0
42
0.0
10
72.5361022949219
20
79.3795013427734
40
0.0
41
0.0
42
0.0
10
72.5036010742188
20
79.4148025512695
40
0.0
41
0.0
42
0.0
10
72.4357986450195
20
79.50830078125
40
0.0
41
0.0
42
0.0
10
72.4128036499023
20
79.5466003417969
40
0.0
41
0.0
42
0.0
10
72.3503036499023
20
79.6613006591797
40
0.0
41
0.0
42
0.0
10
72.3005981445312
20
79.7718963623047
40
0.0
41
0.0
42
0.0
10
72.2015991210938
20
80.0113983154297
40
0.0
41
0.0
42
0.0
10
72.0602035522461
20
80.3090972900391
40
0.0
41
0.0
42
0.0
10
72.0018005371094
20
80.3899993896484
40
0.0
41
0.0
42
0.0
10
71.9425964355469
20
80.5113983154297
40
0.0
41
0.0
42
0.0
10
71.9332962036133
20
80.5351028442383
40
0.0
41
0.0
42
0.0
10
71.8795013427734
20
80.6320037841797
40
0.0
41
0.0
42
0.0
10
71.7977981567383
20
80.8077011108398
40
0.0
41
0.0
42
0.0
10
71.6781997680664
20
81.0074005126953
40
0.0
41
0.0
42
0.0
10
71.5048980712891
20
81.2014999389648
40
0.0
41
0.0
42
0.0
10
71.3974990844727
20
81.3021011352539
40
0.0
41
0.0
42
0.0
10
71.3313980102539
20
81.383903503418
40
0.0
41
0.0
42
0.0
10
71.2758026123047
20
81.5102005004883
40
0.0
41
0.0
42
0.0
10
71.2437973022461
20
81.5634002685547
40
0.0
41
0.0
42
0.0
10
71.2220001220703
20
81.5792007446289
40
0.0
41
0.0
42
0.0
10
71.0093994140625
20
81.7244033813477
40
0.0
41
0.0
42
0.0
10
70.6729965209961
20
81.8859024047852
40
0.0
41
0.0
42
0.0
10
70.5960998535156
20
81.9563980102539
40
0.0
41
0.0
42
0.0
10
70.5578002929688
20
82.0053024291992
40
0.0
41
0.0
42
0.0
10
70.5091018676758
20
82.0474014282227
40
0.0
41
0.0
42
0.0
10
70.4158020019531
20
82.0821990966797
40
0.0
41
0.0
42
0.0
10
70.1772994995117
20
82.1421966552734
40
0.0
41
0.0
42
0.0
10
70.0210037231445
20
82.2253036499023
40
0.0
41
0.0
42
0.0
10
70.0147018432617
20
82.2274017333984
40
0.0
41
0.0
42
0.0
10
69.8043975830078
20
82.2630004882812
40
0.0
41
0.0
42
0.0
10
69.519401550293
20
82.283203125
40
0.0
41
0.0
42
0.0
10
69.2754974365234
20
82.2783966064453
40
0.0
41
0.0
42
0.0
10
68.9842987060547
20
82.2335968017578
40
0.0
41
0.0
42
0.0
10
68.8460006713867
20
82.1968002319336
40
0.0
41
0.0
42
0.0
10
68.75
20
82.1565017700195
40
0.0
41
0.0
42
0.0
10
68.4932022094727
20
81.991096496582
40
0.0
41
0.0
42
0.0
10
68.3385009765625
20
81.8367004394531
40
0.0
41
0.0
42
0.0
10
68.2108001708984
20
81.6740036010742
40
0.0
41
0.0
42
0.0
10
68.2043991088867
20
81.6598968505859
40
0.0
41
0.0
42
0.0
10
68.1524963378906
20
81.5142974853516
40
0.0
41
0.0
42
0.0
10
68.0749969482422
20
81.1364974975586
40
0.0
41
0.0
42
0.0
10
68.0319976806641
20
81.0162963867188
40
0.0
41
0.0
42
0.0
10
68.0318984985352
20
80.9809036254883
40
0.0
41
0.0
42
0.0
10
68.0550994873047
20
80.7160034179688
40
0.0
41
0.0
42
0.0
10
68.0423965454102
20
80.5193023681641
40
0.0
41
0.0
42
0.0
10
68.0422973632812
20
80.4835968017578
40
0.0
41
0.0
42
0.0
10
68.0625991821289
20
80.4265975952148
40
0.0
41
0.0
42
0.0
10
68.1153030395508
20
80.3211975097656
40
0.0
41
0.0
42
0.0
210
0.0
220
0.0
230
1.0
0
LWPOLYLINE
5
29
330
1C
100
AcDbEntity
67
0
8
0
62
256
6
ByLayer
370
-1
48
1.0
60
0
100
AcDbPolyline
90
100
70
1
38
0.0
39
0.0
10
68.0551986694336
20
80.5109024047852
40
0.0
41
0.0
42
0.0
10
68.0718002319336
20
80.7676010131836
40
0.0
41
0.0
42
0.0
10
68.0718002319336
20
80.8059997558594
40
0.0
41
0.0
42
0.0
10
68.0557022094727
20
80.9905014038086
40
0.0
41
0.0
42
0.0
10
68.130500793457
20
81.1994018554688
40
0.0
41
0.0
42
0.0
10
68.1893005371094
20
81.4856033325195
40
0.0
41
0.0
42
0.0
10
68.2298965454102
20
81.5997009277344
40
0.0
41
0.0
42
0.0
10
68.2371978759766
20
81.6158981323242
40
0.0
41
0.0
42
0.0
10
68.3851013183594
20
81.8043975830078
40
0.0
41
0.0
42
0.0
10
68.5066986083984
20
81.9256973266602
40
0.0
41
0.0
42
0.0
10
68.801399230957
20
82.1162033081055
40
0.0
41
0.0
42
0.0
10
68.9065017700195
20
82.160400390625
40
0.0
41
0.0
42
0.0
10
69.0157012939453
20
82.1893997192383
40
0.0
41
0.0
42
0.0
10
69.3618011474609
20
82.2426986694336
40
0.0
41
0.0
42
0.0
10
69.4905014038086
20
82.2457962036133
40
0.0
41
0.0
42
0.0
10
69.8209991455078
20
82.2223968505859
40
0.0
41
0.0
42
0.0
10
69.9851989746094
20
82.1946029663086
40
0.0
41
0.0
42
0.0
10
69.9954986572266
20
82.1910018920898
40
0.0
41
0.0
42
0.0
10
70.1125030517578
20
82.1287994384766
40
0.0
41
0.0
42
0.0
10
70.3766021728516
20
82.0623016357422
40
0.0
41
0.0
42
0.0
10
70.4907989501953
20
82.0195999145508
40
0.0
41
0.0
42
0.0
10
70.5201034545898
20
81.994499206543
40
0.0
41
0.0
42
0.0
10
70.5382995605469
20
81.9710998535156
40
0.0
41
0.0
42
0.0
10
70.6167984008789
20
81.8992004394531
40
0.0
41
0.0
42
0.0
10
70.9904022216797
20
81.7197036743164
40
0.0
41
0.0
42
0.0
10
71.2108001708984
20
81.5692977905273
40
0.0
41
0.0
42
0.0
10
71.2587966918945
20
81.4896011352539
40
0.0
41
0.0
42
0.0
10
71.3308029174805
20
81.3258972167969
40
0.0
41
0.0
42
0.0
10
71.4117965698242
20
81.2256011962891
40
0.0
41
0.0
42
0.0
10
71.4949035644531
20
81.1477966308594
40
0.0
41
0.0
42
0.0
10
71.6336975097656
20
80.9924011230469
40
0.0
41
0.0
42
0.0
10
71.7298965454102
20
80.831901550293
40
0.0
41
0.0
42
0.0
10
71.7938003540039
20
80.6940994262695
40
0.0
41
0.0
42
0.0
10
71.8852005004883
20
80.5297012329102
40
0.0
41
0.0
42
0.0
10
71.9016036987305
20
80.4884033203125
40
0.0
41
0.0
42
0.0
10
71.9980010986328
20
80.290397644043
40
0.0
41
0.0
42
0.0
10
72.0439987182617
20
80.2266998291016
40
0.0
41
0.0
42
0.0
10
72.1572036743164
20
79.9885025024414
40
0.0
41
0.0
42
0.0
10
72.2351989746094
20
79.7995986938477
40
0.0
41
0.0
42
0.0
10
72.2733993530273
20
79.7145004272461
40
0.0
41
0.0
42
0.0
10
72.3655014038086
20
79.5458984375
40
0.0
41
0.0
42
0.0
10
72.3981018066406
20
79.4915008544922
40
0.0
41
0.0
42
0.0
10
72.4962005615234
20
79.3560028076172
40
0.0
41
0.0
42
0.0
10
72.5279998779297
20
79.321403503418
40
0.0
41
0.0
42
0.0
10
72.6707000732422
20
78.9900970458984
40
0.0
41
0.0
42
0.0
10
72.7841033935547
20
78.8246002197266
40
0.0
41
0.0
42
0.0
10
72.9065017700195
20
78.4898986816406
40
0.0
41
0.0
42
0.0
10
72.9605026245117
20
78.4151000976562
40
0.0
41
0.0
42
0.0
10
72.9992980957031
20
78.3279037475586
40
0.0
41
0.0
42
0.0
10
73.0934982299805
20
78.078498840332
40
0.0
41
0.0
42
0.0
10
73.1436004638672
20
77.9882965087891
40
0.0
41
0.0
42
0.0
10
73.2621002197266
20
77.6126022338867
40
0.0
41
0.0
42
0.0
10
73.3202972412109
20
77.4897003173828
40
0.0
41
0.0
42
0.0
10
73.347900390625
20
77.4417037963867
40
0.0
41
0.0
42
0.0
10
73.4994964599609
20
77.0933990478516
40
0.0
41
0.0
42
0.0
10
73.5091018676758
20
77.0643997192383
40
0.0
41
0.0
42
0.0
10
73.5401000976562
20
76.9851989746094
40
0.0
41
0.0
42
0.0
10
73.590202331543
20
76.6085968017578
40
0.0
41
0.0
42
0.0
10
73.6134033203125
20
76.5056991577148
40
0.0
41
0.0
42
0.0
10
73.5498962402344
20
76.4561004638672
40
0.0
41
0.0
42
0.0
10
73.4962005615234
20
76.4246978759766
40
0.0
41
0.0
42
0.0
10
73.3572998046875
20
76.4662017822266
40
0.0
41
0.0
42
0.0
10
73.2720031738281
20
76.5010986328125
40
0.0
41
0.0
42
0.0
10
73.2294998168945
20
76.5274963378906
40
0.0
41
0.0
42
0.0
10
73.0109024047852
20
76.624397277832
40
0.0
41
0.0
42
0.0
10
72.8856964111328
20
76.6887969970703
40
0.0
41
0.0
42
0.0
10
72.8468017578125
20
76.7068023681641
40
0.0
41
0.0
42
0.0
10
72.5123977661133
20
76.8302001953125
40
0.0
41
0.0
42
0.0
10
72.1947021484375
20
76.9552993774414
40
0.0
41
0.0
42
0.0
10
72.1123962402344
20
77.0022964477539
40
0.0
41
0.0
42
0.0
10
72.0276031494141
20
77.0661010742188
40
0.0
41
0.0
42
0.0
10
72.011100769043
20
77.0746002197266
40
0.0
41
0.0
42
0.0
10
71.6745986938477
20
77.2125015258789
40
0.0
41
0.0
42
0.0
10
71.5090026855469
20
77.3329010009766
40
0.0
41
0.0
42
0.0
10
71.1671981811523
20
77.5016021728516
40
0.0
41
0.0
42
0.0
10
71.1352996826172
20
77.5223007202148
40
0.0
41
0.0
42
0.0
10
71.0086975097656
20
77.6286010742188
40
0.0
41
0.0
42
0.0
10
70.9276962280273
20
77.6641998291016
40
0.0
41
0.0
42
0.0
10
70.6738967895508
20
77.7802963256836
40
0.0
41
0.0
42
0.0
10
70.5083999633789
20
77.9112014770508
40
0.0
41
0.0
42
0.0
10
70.3404006958008
20
78.0016021728516
40
0.0
41
0.0
42
0.0
10
70.0092010498047
20
78.2002029418945
40
0.0
41
0.0
42
0.0
10
69.5301971435547
20
78.4810028076172
40
0.0
41
0.0
42
0.0
10
69.5087966918945
20
78.492301940918
40
0.0
41
0.0
42
0.0
10
69.4949035644531
20
78.5024032592773
40
0.0
41
0.0
42
0.0
10
69.2192993164062
20
78.6667022705078
40
0.0
41
0.0
42
0.0
10
69.1724014282227
20
78.7057037353516
40
0.0
41
0.0
42
0.0
10
69.006103515625
20
78.8137969970703
40
0.0
41
0.0
42
0.0
10
68.8348999023438
20
79.004997253418
40
0.0
41
0.0
42
0.0
10
68.7387008666992
20
79.0914001464844
40
0.0
41
0.0
42
0.0
10
68.6697998046875
20
79.1967010498047
40
0.0
41
0.0
42
0.0
10
68.5454025268555
20
79.2753982543945
40
0.0
41
0.0
42
0.0
10
68.5025024414062
20
79.3218994140625
40
0.0
41
0.0
42
0.0
10
68.4068984985352
20
79.5093994140625
40
0.0
41
0.0
42
0.0
10
68.3868026733398
20
79.5401992797852
40
0.0
41
0.0
42
0.0
10
68.2725982666016
20
79.6733016967773
40
0.0
41
0.0
42
0.0
10
68.1619033813477
20
80.0148010253906
40
0.0
41
0.0
42
0.0
10
68.1097030639648
20
80.3886032104492
40
0.0
41
0.0
42
0.0
10
68.0716018676758
20
80.4651031494141
40
0.0
41
0.0
42
0.0
10
68.0551986694336
20
80.5109024047852
40
0.0
41
0.0
42
0.0
210
0.0
220
0.0
230
1.0
0
LWPOLYLINE
5
2A
330
1C
100
AcDbEntity
67
0
8
0
62
256
6
ByLayer
370
-1
48
1.0
60
0
100
AcDbPolyline
90
87
70
1
38
0.0
39
0.0
10
73.0614013671875
20
67.5166015625
40
0.0
41
0.0
42
0.0
10
73.0613021850586
20
67.4832992553711
40
0.0
41
0.0
42
0.0
10
73.1682968139648
20
67.1530990600586
40
0.0
41
0.0
42
0.0
10
73.1513977050781
20
67.0186004638672
40
0.0
41
0.0
42
0.0
10
73.1512985229492
20
66.9852981567383
40
0.0
41
0.0
42
0.0
10
73.3322982788086
20
66.6517028808594
40
0.0
41
0.0
42
0.0
10
73.3572006225586
20
66.4858016967773
40
0.0
41
0.0
42
0.0
10
73.4278030395508
20
66.3258972167969
40
0.0
41
0.0
42
0.0
10
73.4959030151367
20
66.2403030395508
40
0.0
41
0.0
42
0.0
10
73.7194976806641
20
65.9944000244141
40
0.0
41
0.0
42
0.0
10
73.9922027587891
20
65.7233963012695
40
0.0
41
0.0
42
0.0
10
74.4850006103516
20
65.4914016723633
40
0.0
41
0.0
42
0.0
10
74.9485015869141
20
65.4739990234375
40
0.0
41
0.0
42
0.0
10
74.9871978759766
20
65.4738998413086
40
0.0
41
0.0
42
0.0
10
75.0139999389648
20
65.4763031005859
40
0.0
41
0.0
42
0.0
10
75.0585021972656
20
65.4989013671875
40
0.0
41
0.0
42
0.0
10
75.2285995483398
20
65.5736999511719
40
0.0
41
0.0
42
0.0
10
75.5094985961914
20
65.6762008666992
40
0.0
41
0.0
42
0.0
10
75.7031021118164
20
65.8302001953125
40
0.0
41
0.0
42
0.0
10
75.8495025634766
20
65.9947967529297
40
0.0
41
0.0
42
0.0
10
76.0046005249023
20
66.1340026855469
40
0.0
41
0.0
42
0.0
10
76.1580963134766
20
66.3259963989258
40
0.0
41
0.0
42
0.0
10
76.2301025390625
20
66.4860000610352
40
0.0
41
0.0
42
0.0
10
76.2519989013672
20
66.6247024536133
40
0.0
41
0.0
42
0.0
10
76.4623031616211
20
66.9856033325195
40
0.0
41
0.0
42
0.0
10
76.4621963500977
20
67.0188980102539
40
0.0
41
0.0
42
0.0
10
76.4521026611328
20
67.1166000366211
40
0.0
41
0.0
42
0.0
10
76.5823974609375
20
67.4850006103516
40
0.0
41
0.0
42
0.0
10
76.6157989501953
20
67.7166976928711
40
0.0
41
0.0
42
0.0
10
76.6156997680664
20
67.7543029785156
40
0.0
41
0.0
42
0.0
10
76.5942001342773
20
68.0186004638672
40
0.0
41
0.0
42
0.0
10
76.5847015380859
20
68.2088012695312
40
0.0
41
0.0
42
0.0
10
76.5063018798828
20
68.5447998046875
40
0.0
41
0.0
42
0.0
10
76.4997024536133
20
68.5642013549805
40
0.0
41
0.0
42
0.0
10
76.4164962768555
20
68.9316024780273
40
0.0
41
0.0
42
0.0
10
76.3925018310547
20
69.0145034790039
40
0.0
41
0.0
42
0.0
10
76.3580017089844
20
69.1561965942383
40
0.0
41
0.0
42
0.0
10
76.2624969482422
20
69.5141983032227
40
0.0
41
0.0
42
0.0
10
76.1710968017578
20
69.8139038085938
40
0.0
41
0.0
42
0.0
10
76.124397277832
20
70.013801574707
40
0.0
41
0.0
42
0.0
10
76.0419006347656
20
70.2307968139648
40
0.0
41
0.0
42
0.0
10
75.9996032714844
20
70.363899230957
40
0.0
41
0.0
42
0.0
10
75.9675979614258
20
70.5142974853516
40
0.0
41
0.0
42
0.0
10
75.8368988037109
20
70.8905029296875
40
0.0
41
0.0
42
0.0
10
75.8262023925781
20
71.0174026489258
40
0.0
41
0.0
42
0.0
10
75.806999206543
20
71.1395034790039
40
0.0
41
0.0
42
0.0
10
75.6648025512695
20
71.5131988525391
40
0.0
41
0.0
42
0.0
10
75.6501998901367
20
71.5624008178711
40
0.0
41
0.0
42
0.0
10
75.5009994506836
20
71.8843002319336
40
0.0
41
0.0
42
0.0
10
75.4739990234375
20
71.9372024536133
40
0.0
41
0.0
42
0.0
10
75.4526977539062
20
72.013801574707
40
0.0
41
0.0
42
0.0
10
75.4120025634766
20
72.1374969482422
40
0.0
41
0.0
42
0.0
10
75.3954010009766
20
72.1760025024414
40
0.0
41
0.0
42
0.0
10
75.223503112793
20
72.5121002197266
40
0.0
41
0.0
42
0.0
10
75.1743011474609
20
72.6782989501953
40
0.0
41
0.0
42
0.0
10
75.0514984130859
20
73.0139999389648
40
0.0
41
0.0
42
0.0
10
75.0170974731445
20
73.1688003540039
40
0.0
41
0.0
42
0.0
10
75.0038986206055
20
73.2180023193359
40
0.0
41
0.0
42
0.0
10
74.9949035644531
20
73.2180023193359
40
0.0
41
0.0
42
0.0
10
74.9232025146484
20
73.0117034912109
40
0.0
41
0.0
42
0.0
10
74.7490005493164
20
72.674201965332
40
0.0
41
0.0
42
0.0
10
74.6371994018555
20
72.5080032348633
40
0.0
41
0.0
42
0.0
10
74.4985961914062
20
72.3153991699219
40
0.0
41
0.0
42
0.0
10
74.4364013671875
20
72.1517028808594
40
0.0
41
0.0
42
0.0
10
74.3606033325195
20
72.0106964111328
40
0.0
41
0.0
42
0.0
10
74.2120971679688
20
71.6778030395508
40
0.0
41
0.0
42
0.0
10
74.1651000976562
20
71.5148010253906
40
0.0
41
0.0
42
0.0
10
74.1359024047852
20
71.3884963989258
40
0.0
41
0.0
42
0.0
10
74.0113983154297
20
71.0931015014648
40
0.0
41
0.0
42
0.0
10
73.9982986450195
20
71.0660018920898
40
0.0
41
0.0
42
0.0
10
73.9625015258789
20
71.0117034912109
40
0.0
41
0.0
42
0.0
10
73.9350967407227
20
70.888298034668
40
0.0
41
0.0
42
0.0
10
73.7666015625
20
70.5121002197266
40
0.0
41
0.0
42
0.0
10
73.6337966918945
20
70.1398010253906
40
0.0
41
0.0
42
0.0
10
73.6150970458984
20
70.0165023803711
40
0.0
41
0.0
42
0.0
10
73.591796875
20
69.8897018432617
40
0.0
41
0.0
42
0.0
10
73.499397277832
20
69.6110992431641
40
0.0
41
0.0
42
0.0
10
73.4521026611328
20
69.5121994018555
40
0.0
41
0.0
42
0.0
10
73.4142990112305
20
69.3953018188477
40
0.0
41
0.0
42
0.0
10
73.2712020874023
20
69.0121002197266
40
0.0
41
0.0
42
0.0
10
73.217399597168
20
68.8884963989258
40
0.0
41
0.0
42
0.0
10
73.138801574707
20
68.5137023925781
40
0.0
41
0.0
42
0.0
10
73.0866012573242
20
68.3899993896484
40
0.0
41
0.0
42
0.0
10
73.0605010986328
20
68.0192031860352
40
0.0
41
0.0
42
0.0
10
73.0604019165039
20
67.9811019897461
40
0.0
41
0.0
42
0.0
10
73.0995025634766
20
67.6324996948242
40
0.0
41
0.0
42
0.0
10
73.0614013671875
20
67.5166015625
40
0.0
41
0.0
42
0.0
210
0.0
220
0.0
230
1.0
0
LWPOLYLINE
5
2B
330
1C
100
AcDbEntity
67
0
8
0
62
256
6
ByLayer
370
-1
48
1.0
60
0
100
AcDbPolyline
90
82
70
1
38
0.0
39
0.0
10
73.1023025512695
20
68.3199005126953
40
0.0
41
0.0
42
0.0
10
73.1725006103516
20
68.4862976074219
40
0.0
41
0.0
42
0.0
10
73.2427978515625
20
68.821403503418
40
0.0
41
0.0
42
0.0
10
73.3153991699219
20
68.9878005981445
40
0.0
41
0.0
42
0.0
10
73.5000991821289
20
69.4825973510742
40
0.0
41
0.0
42
0.0
10
73.6120986938477
20
69.820198059082
40
0.0
41
0.0
42
0.0
10
73.6421966552734
20
69.9833984375
40
0.0
41
0.0
42
0.0
10
73.6675033569336
20
70.1501007080078
40
0.0
41
0.0
42
0.0
10
73.7879028320312
20
70.4878005981445
40
0.0
41
0.0
42
0.0
10
73.9375
20
70.8216018676758
40
0.0
41
0.0
42
0.0
10
73.9746017456055
20
70.9882965087891
40
0.0
41
0.0
42
0.0
10
74.0016021728516
20
71.0296020507812
40
0.0
41
0.0
42
0.0
10
74.0176010131836
20
71.0625
40
0.0
41
0.0
42
0.0
10
74.1267013549805
20
71.3215026855469
40
0.0
41
0.0
42
0.0
10
74.1647033691406
20
71.4851989746094
40
0.0
41
0.0
42
0.0
10
74.2014999389648
20
71.6136016845703
40
0.0
41
0.0
42
0.0
10
74.368896484375
20
71.9891967773438
40
0.0
41
0.0
42
0.0
10
74.4533996582031
20
72.1460037231445
40
0.0
41
0.0
42
0.0
10
74.5012969970703
20
72.2723007202148
40
0.0
41
0.0
42
0.0
10
74.6595001220703
20
72.4919967651367
40
0.0
41
0.0
42
0.0
10
74.7425994873047
20
72.6156997680664
40
0.0
41
0.0
42
0.0
10
74.9349975585938
20
72.9881973266602
40
0.0
41
0.0
42
0.0
10
74.9897994995117
20
73.1474990844727
40
0.0
41
0.0
42
0.0
10
75.0094985961914
20
73.1464004516602
40
0.0
41
0.0
42
0.0
10
75.0457000732422
20
72.9859008789062
40
0.0
41
0.0
42
0.0
10
75.1828002929688
20
72.6115036010742
40
0.0
41
0.0
42
0.0
10
75.2192001342773
20
72.4877014160156
40
0.0
41
0.0
42
0.0
10
75.39990234375
20
72.1344985961914
40
0.0
41
0.0
42
0.0
10
75.4489974975586
20
71.9860992431641
40
0.0
41
0.0
42
0.0
10
75.4761962890625
20
71.8884963989258
40
0.0
41
0.0
42
0.0
10
75.4988021850586
20
71.8442001342773
40
0.0
41
0.0
42
0.0
10
75.6335983276367
20
71.5532989501953
40
0.0
41
0.0
42
0.0
10
75.6533966064453
20
71.486701965332
40
0.0
41
0.0
42
0.0
10
75.7813034057617
20
71.1503982543945
40
0.0
41
0.0
42
0.0
10
75.8078994750977
20
70.9824981689453
40
0.0
41
0.0
42
0.0
10
75.8215026855469
20
70.8192977905273
40
0.0
41
0.0
42
0.0
10
75.9375991821289
20
70.4856033325195
40
0.0
41
0.0
42
0.0
10
76.0001983642578
20
70.1897964477539
40
0.0
41
0.0
42
0.0
10
76.0242004394531
20
70.1144027709961
40
0.0
41
0.0
42
0.0
10
76.072998046875
20
69.9860992431641
40
0.0
41
0.0
42
0.0
10
76.1349029541016
20
69.720703125
40
0.0
41
0.0
42
0.0
10
76.2065963745117
20
69.4857025146484
40
0.0
41
0.0
42
0.0
10
76.2818984985352
20
69.2033996582031
40
0.0
41
0.0
42
0.0
10
76.3348999023438
20
68.9852981567383
40
0.0
41
0.0
42
0.0
10
76.3721008300781
20
68.8571014404297
40
0.0
41
0.0
42
0.0
10
76.4564971923828
20
68.4841995239258
40
0.0
41
0.0
42
0.0
10
76.5003967285156
20
68.2557983398438
40
0.0
41
0.0
42
0.0
10
76.5423965454102
20
68.0759963989258
40
0.0
41
0.0
42
0.0
10
76.5472030639648
20
67.9813003540039
40
0.0
41
0.0
42
0.0
10
76.573600769043
20
67.6552963256836
40
0.0
41
0.0
42
0.0
10
76.5533981323242
20
67.5149002075195
40
0.0
41
0.0
42
0.0
10
76.435302734375
20
67.181396484375
40
0.0
41
0.0
42
0.0
10
76.4354019165039
20
67.1461029052734
40
0.0
41
0.0
42
0.0
10
76.4496002197266
20
67.0092010498047
40
0.0
41
0.0
42
0.0
10
76.2557983398438
20
66.6765975952148
40
0.0
41
0.0
42
0.0
10
76.2452011108398
20
66.6404037475586
40
0.0
41
0.0
42
0.0
10
76.2254028320312
20
66.5139007568359
40
0.0
41
0.0
42
0.0
10
76.1669006347656
20
66.383903503418
40
0.0
41
0.0
42
0.0
10
75.9953002929688
20
66.168701171875
40
0.0
41
0.0
42
0.0
10
75.8128967285156
20
66.0050964355469
40
0.0
41
0.0
42
0.0
10
75.7011032104492
20
65.8796005249023
40
0.0
41
0.0
42
0.0
10
75.4904022216797
20
65.7120971679688
40
0.0
41
0.0
42
0.0
10
75.1518020629883
20
65.5885009765625
40
0.0
41
0.0
42
0.0
10
74.9897003173828
20
65.5170974731445
40
0.0
41
0.0
42
0.0
10
74.9578018188477
20
65.5197982788086
40
0.0
41
0.0
42
0.0
10
74.5142974853516
20
65.5342025756836
40
0.0
41
0.0
42
0.0
10
74.4073028564453
20
65.5920028686523
40
0.0
41
0.0
42
0.0
10
74.007698059082
20
65.7802963256836
40
0.0
41
0.0
42
0.0
10
73.7807998657227
20
66.0054016113281
40
0.0
41
0.0
42
0.0
10
73.5038986206055
20
66.3098983764648
40
0.0
41
0.0
42
0.0
10
73.4452972412109
20
66.3840026855469
40
0.0
41
0.0
42
0.0
10
73.3880004882812
20
66.5139999389648
40
0.0
41
0.0
42
0.0
10
73.3694000244141
20
66.6381988525391
40
0.0
41
0.0
42
0.0
10
73.1684036254883
20
67.00830078125
40
0.0
41
0.0
42
0.0
10
73.1809005737305
20
67.1063003540039
40
0.0
41
0.0
42
0.0
10
73.1808013916016
20
67.1421966552734
40
0.0
41
0.0
42
0.0
10
73.1710968017578
20
67.1790008544922
40
0.0
41
0.0
42
0.0
10
73.0670013427734
20
67.4999008178711
40
0.0
41
0.0
42
0.0
10
73.1159973144531
20
67.6483001708984
40
0.0
41
0.0
42
0.0
10
73.1158981323242
20
67.6837997436523
40
0.0
41
0.0
42
0.0
10
73.0801010131836
20
68.0052032470703
40
0.0
41
0.0
42
0.0
10
73.1023025512695
20
68.3199005126953
40
0.0
41
0.0
42
0.0
210
0.0
220
0.0
230
1.0
0
LWPOLYLINE
5
2C
330
1C
100
AcDbEntity
67
0
8
0
62
256
6
ByLayer
370
-1
48
1.0
60
0
100
AcDbPolyline
90
90
70
1
38
0.0
39
0.0
10
73.4934005737305
20
81.4550018310547
40
0.0
41
0.0
42
0.0
10
73.5000991821289
20
81.4356002807617
40
0.0
41
0.0
42
0.0
10
73.5831985473633
20
81.0681991577148
40
0.0
41
0.0
42
0.0
10
73.6072006225586
20
80.9852981567383
40
0.0
41
0.0
42
0.0
10
73.6417007446289
20
80.8434982299805
40
0.0
41
0.0
42
0.0
10
73.7371978759766
20
80.4857025146484
40
0.0
41
0.0
42
0.0
10
73.8285980224609
20
80.1858978271484
40
0.0
41
0.0
42
0.0
10
73.8751983642578
20
79.9860992431641
40
0.0
41
0.0
42
0.0
10
73.9578018188477
20
79.7689971923828
40
0.0
41
0.0
42
0.0
10
74.0001983642578
20
79.6359024047852
40
0.0
41
0.0
42
0.0
10
74.032096862793
20
79.4856033325195
40
0.0
41
0.0
42
0.0
10
74.1628036499023
20
79.1092987060547
40
0.0
41
0.0
42
0.0
10
74.1733016967773
20
78.9845962524414
40
0.0
41
0.0
42
0.0
10
74.3155975341797
20
78.6103973388672
40
0.0
41
0.0
42
0.0
10
74.3355026245117
20
78.4845962524414
40
0.0
41
0.0
42
0.0
10
74.3496017456055
20
78.4374008178711
40
0.0
41
0.0
42
0.0
10
74.4988021850586
20
78.1154022216797
40
0.0
41
0.0
42
0.0
10
74.5257034301758
20
78.0625991821289
40
0.0
41
0.0
42
0.0
10
74.546501159668
20
77.9876022338867
40
0.0
41
0.0
42
0.0
10
74.7285995483398
20
77.6315002441406
40
0.0
41
0.0
42
0.0
10
74.776496887207
20
77.4868011474609
40
0.0
41
0.0
42
0.0
10
74.899299621582
20
77.151496887207
40
0.0
41
0.0
42
0.0
10
74.9484024047852
20
76.9851989746094
40
0.0
41
0.0
42
0.0
10
74.9825973510742
20
76.8310012817383
40
0.0
41
0.0
42
0.0
10
74.9960021972656
20
76.7818984985352
40
0.0
41
0.0
42
0.0
10
75.004997253418
20
76.7818984985352
40
0.0
41
0.0
42
0.0
10
75.0770034790039
20
76.9894027709961
40
0.0
41
0.0
42
0.0
10
75.1886978149414
20
77.1557006835938
40
0.0
41
0.0
42
0.0
10
75.3619003295898
20
77.4909973144531
40
0.0
41
0.0
42
0.0
10
75.5012969970703
20
77.6845016479492
40
0.0
41
0.0
42
0.0
10
75.5633010864258
20
77.8480987548828
40
0.0
41
0.0
42
0.0
10
75.6386032104492
20
77.9878997802734
40
0.0
41
0.0
42
0.0
10
75.6854019165039
20
78.1508026123047
40
0.0
41
0.0
42
0.0
10
75.8348007202148
20
78.4862976074219
40
0.0
41
0.0
42
0.0
10
75.863899230957
20
78.6115036010742
40
0.0
41
0.0
42
0.0
10
75.9884033203125
20
78.9067993164062
40
0.0
41
0.0
42
0.0
10
76.0017013549805
20
78.9337997436523
40
0.0
41
0.0
42
0.0
10
76.0372009277344
20
78.9881973266602
40
0.0
41
0.0
42
0.0
10
76.0645980834961
20
79.1116027832031
40
0.0
41
0.0
42
0.0
10
76.2323989868164
20
79.4859008789062
40
0.0
41
0.0
42
0.0
10
76.2511978149414
20
79.6100997924805
40
0.0
41
0.0
42
0.0
10
76.3850021362305
20
79.9853973388672
40
0.0
41
0.0
42
0.0
10
76.4078979492188
20
80.1101989746094
40
0.0
41
0.0
42
0.0
10
76.5003967285156
20
80.3887023925781
40
0.0
41
0.0
42
0.0
10
76.5475997924805
20
80.4877014160156
40
0.0
41
0.0
42
0.0
10
76.5854034423828
20
80.6045989990234
40
0.0
41
0.0
42
0.0
10
76.7285995483398
20
80.9878005981445
40
0.0
41
0.0
42
0.0
10
76.7824020385742
20
81.1113967895508
40
0.0
41
0.0
42
0.0
10
76.8610000610352
20
81.486198425293
40
0.0
41
0.0
42
0.0
10
76.9131011962891
20
81.6099014282227
40
0.0
41
0.0
42
0.0
10
76.9393997192383
20
81.9806976318359
40
0.0
41
0.0
42
0.0
10
76.9393005371094
20
82.018798828125
40
0.0
41
0.0
42
0.0
10
76.9002990722656
20
82.3674011230469
40
0.0
41
0.0
42
0.0
10
76.9387969970703
20
82.4845962524414
40
0.0
41
0.0
42
0.0
10
76.9542999267578
20
82.6070022583008
40
0.0
41
0.0
42
0.0
10
76.9570999145508
20
82.6456985473633
40
0.0
41
0.0
42
0.0
10
76.9570007324219
20
82.6816024780273
40
0.0
41
0.0
42
0.0
10
76.8488998413086
20
83.0150985717773
40
0.0
41
0.0
42
0.0
10
76.8245010375977
20
83.1781997680664
40
0.0
41
0.0
42
0.0
10
76.6439971923828
20
83.5105972290039
40
0.0
41
0.0
42
0.0
10
76.5718994140625
20
83.6740036010742
40
0.0
41
0.0
42
0.0
10
76.5038986206055
20
83.7593994140625
40
0.0
41
0.0
42
0.0
10
76.279296875
20
84.0064010620117
40
0.0
41
0.0
42
0.0
10
76.2109985351562
20
84.0951995849609
40
0.0
41
0.0
42
0.0
10
76.1700973510742
20
84.1344985961914
40
0.0
41
0.0
42
0.0
10
76.0971984863281
20
84.2091979980469
40
0.0
41
0.0
42
0.0
10
76.0090026855469
20
84.2757034301758
40
0.0
41
0.0
42
0.0
10
75.5149002075195
20
84.50830078125
40
0.0
41
0.0
42
0.0
10
75.0513000488281
20
84.5259017944336
40
0.0
41
0.0
42
0.0
10
75.0126037597656
20
84.5258026123047
40
0.0
41
0.0
42
0.0
10
74.9858016967773
20
84.5234985351562
40
0.0
41
0.0
42
0.0
10
74.9413986206055
20
84.5009002685547
40
0.0
41
0.0
42
0.0
10
74.7712020874023
20
84.4260025024414
40
0.0
41
0.0
42
0.0
10
74.4904022216797
20
84.323600769043
40
0.0
41
0.0
42
0.0
10
74.2966995239258
20
84.1697006225586
40
0.0
41
0.0
42
0.0
10
74.1502990722656
20
84.0050964355469
40
0.0
41
0.0
42
0.0
10
73.9953002929688
20
83.8658981323242
40
0.0
41
0.0
42
0.0
10
73.8416976928711
20
83.6738967895508
40
0.0
41
0.0
42
0.0
10
73.7679977416992
20
83.5102996826172
40
0.0
41
0.0
42
0.0
10
73.5727996826172
20
83.1753997802734
40
0.0
41
0.0
42
0.0
10
73.5565032958984
20
83.1389007568359
40
0.0
41
0.0
42
0.0
10
73.53759765625
20
83.0183029174805
40
0.0
41
0.0
42
0.0
10
73.5374984741211
20
82.9810028076172
40
0.0
41
0.0
42
0.0
10
73.5476989746094
20
82.88330078125
40
0.0
41
0.0
42
0.0
10
73.4173965454102
20
82.5149002075195
40
0.0
41
0.0
42
0.0
10
73.3841018676758
20
82.2830963134766
40
0.0
41
0.0
42
0.0
10
73.3840026855469
20
82.2454986572266
40
0.0
41
0.0
42
0.0
10
73.4055023193359
20
81.9813003540039
40
0.0
41
0.0
42
0.0
10
73.4150009155273
20
81.7910003662109
40
0.0
41
0.0
42
0.0
10
73.4934005737305
20
81.4550018310547
40
0.0
41
0.0
42
0.0
210
0.0
220
0.0
230
1.0
0
LWPOLYLINE
5
2D
330
1C
100
AcDbEntity
67
0
8
0
62
256
6
ByLayer
370
-1
48
1.0
60
0
100
AcDbPolyline
90
83
70
1
38
0.0
39
0.0
10
73.5644989013672
20
82.818603515625
40
0.0
41
0.0
42
0.0
10
73.5643997192383
20
82.8538970947266
40
0.0
41
0.0
42
0.0
10
73.5494003295898
20
82.9964981079102
40
0.0
41
0.0
42
0.0
10
73.5719985961914
20
83.1395034790039
40
0.0
41
0.0
42
0.0
10
73.7759017944336
20
83.4896011352539
40
0.0
41
0.0
42
0.0
10
73.8328018188477
20
83.6159973144531
40
0.0
41
0.0
42
0.0
10
74.0046005249023
20
83.8311004638672
40
0.0
41
0.0
42
0.0
10
74.186897277832
20
83.9947967529297
40
0.0
41
0.0
42
0.0
10
74.298698425293
20
84.1203002929688
40
0.0
41
0.0
42
0.0
10
74.5095977783203
20
84.2876968383789
40
0.0
41
0.0
42
0.0
10
74.8479995727539
20
84.4112014770508
40
0.0
41
0.0
42
0.0
10
75.0103988647461
20
84.4825973510742
40
0.0
41
0.0
42
0.0
10
75.0420989990234
20
84.4798965454102
40
0.0
41
0.0
42
0.0
10
75.4856033325195
20
84.4654998779297
40
0.0
41
0.0
42
0.0
10
75.5924987792969
20
84.4076995849609
40
0.0
41
0.0
42
0.0
10
75.9907989501953
20
84.2200012207031
40
0.0
41
0.0
42
0.0
10
76.0628967285156
20
84.1656036376953
40
0.0
41
0.0
42
0.0
10
76.1196975708008
20
84.1073989868164
40
0.0
41
0.0
42
0.0
10
76.1673965454102
20
84.0615997314453
40
0.0
41
0.0
42
0.0
10
76.2198028564453
20
83.9934005737305
40
0.0
41
0.0
42
0.0
10
76.4959030151367
20
83.6897964477539
40
0.0
41
0.0
42
0.0
10
76.5542984008789
20
83.6158981323242
40
0.0
41
0.0
42
0.0
10
76.6103973388672
20
83.4891967773438
40
0.0
41
0.0
42
0.0
10
76.8152008056641
20
83.111701965332
40
0.0
41
0.0
42
0.0
10
76.8341979980469
20
82.9848022460938
40
0.0
41
0.0
42
0.0
10
76.951301574707
20
82.6233978271484
40
0.0
41
0.0
42
0.0
10
76.9376983642578
20
82.5152969360352
40
0.0
41
0.0
42
0.0
10
76.883903503418
20
82.3516006469727
40
0.0
41
0.0
42
0.0
10
76.8837966918945
20
82.3161010742188
40
0.0
41
0.0
42
0.0
10
76.9197006225586
20
81.9962997436523
40
0.0
41
0.0
42
0.0
10
76.8973999023438
20
81.6800003051758
40
0.0
41
0.0
42
0.0
10
76.8273010253906
20
81.5137023925781
40
0.0
41
0.0
42
0.0
10
76.7570037841797
20
81.1784973144531
40
0.0
41
0.0
42
0.0
10
76.6844024658203
20
81.0121002197266
40
0.0
41
0.0
42
0.0
10
76.4998016357422
20
80.5173034667969
40
0.0
41
0.0
42
0.0
10
76.3876037597656
20
80.1797027587891
40
0.0
41
0.0
42
0.0
10
76.3571014404297
20
80.0145034790039
40
0.0
41
0.0
42
0.0
10
76.2378005981445
20
79.679801940918
40
0.0
41
0.0
42
0.0
10
76.2126998901367
20
79.5139999389648
40
0.0
41
0.0
42
0.0
10
76.0622024536133
20
79.1782989501953
40
0.0
41
0.0
42
0.0
10
76.0251998901367
20
79.0117034912109
40
0.0
41
0.0
42
0.0
10
75.9981994628906
20
78.9702987670898
40
0.0
41
0.0
42
0.0
10
75.9821014404297
20
78.9374008178711
40
0.0
41
0.0
42
0.0
10
75.8731002807617
20
78.6784973144531
40
0.0
41
0.0
42
0.0
10
75.8347015380859
20
78.513298034668
40
0.0
41
0.0
42
0.0
10
75.6677017211914
20
78.1378021240234
40
0.0
41
0.0
42
0.0
10
75.6315994262695
20
78.0120010375977
40
0.0
41
0.0
42
0.0
10
75.5464019775391
20
77.8537979125977
40
0.0
41
0.0
42
0.0
10
75.4985961914062
20
77.7276000976562
40
0.0
41
0.0
42
0.0
10
75.3411026000977
20
77.508903503418
40
0.0
41
0.0
42
0.0
10
75.1475982666016
20
77.1342010498047
40
0.0
41
0.0
42
0.0
10
75.0643997192383
20
77.010498046875
40
0.0
41
0.0
42
0.0
10
75.0102005004883
20
76.8524017333984
40
0.0
41
0.0
42
0.0
10
74.9905014038086
20
76.8535003662109
40
0.0
41
0.0
42
0.0
10
74.9537963867188
20
77.0146026611328
40
0.0
41
0.0
42
0.0
10
74.9172973632812
20
77.138298034668
40
0.0
41
0.0
42
0.0
10
74.7801971435547
20
77.5130004882812
40
0.0
41
0.0
42
0.0
10
74.7389984130859
20
77.6376037597656
40
0.0
41
0.0
42
0.0
10
74.7230987548828
20
77.6761016845703
40
0.0
41
0.0
42
0.0
10
74.5511016845703
20
78.0121994018555
40
0.0
41
0.0
42
0.0
10
74.5234985351562
20
78.1112976074219
40
0.0
41
0.0
42
0.0
10
74.5009994506836
20
78.1555023193359
40
0.0
41
0.0
42
0.0
10
74.3662033081055
20
78.4465026855469
40
0.0
41
0.0
42
0.0
10
74.345703125
20
78.5152969360352
40
0.0
41
0.0
42
0.0
10
74.3197021484375
20
78.6794967651367
40
0.0
41
0.0
42
0.0
10
74.1920013427734
20
79.0151977539062
40
0.0
41
0.0
42
0.0
10
74.1781997680664
20
79.1804962158203
40
0.0
41
0.0
42
0.0
10
74.0622024536133
20
79.5142974853516
40
0.0
41
0.0
42
0.0
10
73.9994964599609
20
79.8098983764648
40
0.0
41
0.0
42
0.0
10
73.9754028320312
20
79.8853988647461
40
0.0
41
0.0
42
0.0
10
73.9266967773438
20
80.013801574707
40
0.0
41
0.0
42
0.0
10
73.8647994995117
20
80.2790985107422
40
0.0
41
0.0
42
0.0
10
73.793098449707
20
80.5141983032227
40
0.0
41
0.0
42
0.0
10
73.7177963256836
20
80.7963027954102
40
0.0
41
0.0
42
0.0
10
73.6648025512695
20
81.0145034790039
40
0.0
41
0.0
42
0.0
10
73.6277008056641
20
81.1427993774414
40
0.0
41
0.0
42
0.0
10
73.5431976318359
20
81.5156021118164
40
0.0
41
0.0
42
0.0
10
73.499397277832
20
81.7440032958984
40
0.0
41
0.0
42
0.0
10
73.4572982788086
20
81.9237976074219
40
0.0
41
0.0
42
0.0
10
73.4524993896484
20
82.0186004638672
40
0.0
41
0.0
42
0.0
10
73.4261016845703
20
82.3444976806641
40
0.0
41
0.0
42
0.0
10
73.446403503418
20
82.4850006103516
40
0.0
41
0.0
42
0.0
10
73.5644989013672
20
82.818603515625
40
0.0
41
0.0
42
0.0
210
0.0
220
0.0
230
1.0
0
LWPOLYLINE
5
2E
330
1C
100
AcDbEntity
67
0
8
0
62
256
6
ByLayer
370
-1
48
1.0
60
0
100
AcDbPolyline
90
94
70
1
38
0.0
39
0.0
10
76.3709030151367
20
73.4813003540039
40
0.0
41
0.0
42
0.0
10
76.4151992797852
20
73.1485977172852
40
0.0
41
0.0
42
0.0
10
76.4515991210938
20
72.9860992431641
40
0.0
41
0.0
42
0.0
10
76.4912033081055
20
72.8850021362305
40
0.0
41
0.0
42
0.0
10
76.4994964599609
20
72.8595962524414
40
0.0
41
0.0
42
0.0
10
76.63330078125
20
72.5522994995117
40
0.0
41
0.0
42
0.0
10
76.6699981689453
20
72.4884033203125
40
0.0
41
0.0
42
0.0
10
76.7760009765625
20
72.1526031494141
40
0.0
41
0.0
42
0.0
10
76.8536987304688
20
71.9886016845703
40
0.0
41
0.0
42
0.0
10
76.8952026367188
20
71.915397644043
40
0.0
41
0.0
42
0.0
10
76.9992980957031
20
71.6397018432617
40
0.0
41
0.0
42
0.0
10
77.0402984619141
20
71.5475006103516
40
0.0
41
0.0
42
0.0
10
77.0820999145508
20
71.4898986816406
40
0.0
41
0.0
42
0.0
10
77.2190017700195
20
71.1146011352539
40
0.0
41
0.0
42
0.0
10
77.3043975830078
20
70.9900970458984
40
0.0
41
0.0
42
0.0
10
77.4636993408203
20
70.6203002929688
40
0.0
41
0.0
42
0.0
10
77.4962005615234
20
70.5848999023438
40
0.0
41
0.0
42
0.0
10
77.5651016235352
20
70.4897994995117
40
0.0
41
0.0
42
0.0
10
77.5925979614258
20
70.4133987426758
40
0.0
41
0.0
42
0.0
10
77.6237030029297
20
70.3615036010742
40
0.0
41
0.0
42
0.0
10
77.747200012207
20
70.0625991821289
40
0.0
41
0.0
42
0.0
10
77.7970962524414
20
69.9905014038086
40
0.0
41
0.0
42
0.0
10
77.9394989013672
20
69.6905975341797
40
0.0
41
0.0
42
0.0
10
77.9979019165039
20
69.6097030639648
40
0.0
41
0.0
42
0.0
10
78.056999206543
20
69.4885025024414
40
0.0
41
0.0
42
0.0
10
78.1237030029297
20
69.3253021240234
40
0.0
41
0.0
42
0.0
10
78.2761993408203
20
69.07080078125
40
0.0
41
0.0
42
0.0
10
78.3216018676758
20
68.992301940918
40
0.0
41
0.0
42
0.0
10
78.495002746582
20
68.7982025146484
40
0.0
41
0.0
42
0.0
10
78.6022033691406
20
68.6977005004883
40
0.0
41
0.0
42
0.0
10
78.6682968139648
20
68.6159973144531
40
0.0
41
0.0
42
0.0
10
78.7238998413086
20
68.4896011352539
40
0.0
41
0.0
42
0.0
10
78.7557983398438
20
68.4365005493164
40
0.0
41
0.0
42
0.0
10
78.9905014038086
20
68.2752990722656
40
0.0
41
0.0
42
0.0
10
79.3267974853516
20
68.1138000488281
40
0.0
41
0.0
42
0.0
10
79.4036026000977
20
68.0432968139648
40
0.0
41
0.0
42
0.0
10
79.4419021606445
20
67.994499206543
40
0.0
41
0.0
42
0.0
10
79.49169921875
20
67.9514999389648
40
0.0
41
0.0
42
0.0
10
79.5826034545898
20
67.9047012329102
40
0.0
41
0.0
42
0.0
10
79.9850006103516
20
67.7723007202148
40
0.0
41
0.0
42
0.0
10
80.1952972412109
20
67.736701965332
40
0.0
41
0.0
42
0.0
10
80.4804992675781
20
67.7164993286133
40
0.0
41
0.0
42
0.0
10
80.7244033813477
20
67.7213973999023
40
0.0
41
0.0
42
0.0
10
81.0140991210938
20
67.7660980224609
40
0.0
41
0.0
42
0.0
10
81.0783996582031
20
67.7935028076172
40
0.0
41
0.0
42
0.0
10
81.2267990112305
20
67.8343963623047
40
0.0
41
0.0
42
0.0
10
81.5063018798828
20
68.0083999633789
40
0.0
41
0.0
42
0.0
10
81.7885971069336
20
68.3259963989258
40
0.0
41
0.0
42
0.0
10
81.847297668457
20
68.4857025146484
40
0.0
41
0.0
42
0.0
10
81.9247970581055
20
68.8632965087891
40
0.0
41
0.0
42
0.0
10
81.967903137207
20
68.9835968017578
40
0.0
41
0.0
42
0.0
10
81.9677963256836
20
69.0189971923828
40
0.0
41
0.0
42
0.0
10
81.9447021484375
20
69.2837982177734
40
0.0
41
0.0
42
0.0
10
81.9574966430664
20
69.480598449707
40
0.0
41
0.0
42
0.0
10
81.9573974609375
20
69.5162963867188
40
0.0
41
0.0
42
0.0
10
81.9371032714844
20
69.5731964111328
40
0.0
41
0.0
42
0.0
10
81.8843994140625
20
69.678596496582
40
0.0
41
0.0
42
0.0
10
81.83740234375
20
70.0151977539062
40
0.0
41
0.0
42
0.0
10
81.7171020507812
20
70.3843994140625
40
0.0
41
0.0
42
0.0
10
81.6332015991211
20
70.4822998046875
40
0.0
41
0.0
42
0.0
10
81.6155014038086
20
70.5093994140625
40
0.0
41
0.0
42
0.0
10
81.5029983520508
20
70.7300033569336
40
0.0
41
0.0
42
0.0
10
81.2879028320312
20
70.915397644043
40
0.0
41
0.0
42
0.0
10
81.227897644043
20
71.0071029663086
40
0.0
41
0.0
42
0.0
10
81.0062026977539
20
71.2546997070312
40
0.0
41
0.0
42
0.0
10
80.6406021118164
20
71.4875030517578
40
0.0
41
0.0
42
0.0
10
80.6213989257812
20
71.503303527832
40
0.0
41
0.0
42
0.0
10
80.5087966918945
20
71.5855026245117
40
0.0
41
0.0
42
0.0
10
80.3342971801758
20
71.6768035888672
40
0.0
41
0.0
42
0.0
10
80.0092010498047
20
71.8674011230469
40
0.0
41
0.0
42
0.0
10
79.7854995727539
20
72.0017013549805
40
0.0
41
0.0
42
0.0
10
79.5103988647461
20
72.1496963500977
40
0.0
41
0.0
42
0.0
10
79.2203979492188
20
72.2907028198242
40
0.0
41
0.0
42
0.0
10
79.007698059082
20
72.4199981689453
40
0.0
41
0.0
42
0.0
10
78.9237976074219
20
72.4903030395508
40
0.0
41
0.0
42
0.0
10
78.9065017700195
20
72.5016021728516
40
0.0
41
0.0
42
0.0
10
78.5090026855469
20
72.6977996826172
40
0.0
41
0.0
42
0.0
10
78.3845977783203
20
72.788200378418
40
0.0
41
0.0
42
0.0
10
78.011100769043
20
72.9412994384766
40
0.0
41
0.0
42
0.0
10
77.9873962402344
20
72.9535980224609
40
0.0
41
0.0
42
0.0
10
77.9225006103516
20
73.0022964477539
40
0.0
41
0.0
42
0.0
10
77.864501953125
20
73.035400390625
40
0.0
41
0.0
42
0.0
10
77.5112991333008
20
73.1744995117188
40
0.0
41
0.0
42
0.0
10
77.3860015869141
20
73.238899230957
40
0.0
41
0.0
42
0.0
10
77.3471984863281
20
73.2552032470703
40
0.0
41
0.0
42
0.0
10
77.0120010375977
20
73.3787994384766
40
0.0
41
0.0
42
0.0
10
76.8140029907227
20
73.4666976928711
40
0.0
41
0.0
42
0.0
10
76.7583999633789
20
73.5010986328125
40
0.0
41
0.0
42
0.0
10
76.6518020629883
20
73.5447998046875
40
0.0
41
0.0
42
0.0
10
76.5168991088867
20
73.5850982666016
40
0.0
41
0.0
42
0.0
10
76.4856033325195
20
73.5849990844727
40
0.0
41
0.0
42
0.0
10
76.4149017333984
20
73.5438003540039
40
0.0
41
0.0
42
0.0
10
76.3710021972656
20
73.5096969604492
40
0.0
41
0.0
42
0.0
10
76.3709030151367
20
73.4813003540039
40
0.0
41
0.0
42
0.0
210
0.0
220
0.0
230
1.0
0
LWPOLYLINE
5
2F
330
1C
100
AcDbEntity
67
0
8
0
62
256
6
ByLayer
370
-1
48
1.0
60
0
100
AcDbPolyline
90
91
70
1
38
0.0
39
0.0
10
76.5037002563477
20
73.5748977661133
40
0.0
41
0.0
42
0.0
10
76.6424026489258
20
73.5335998535156
40
0.0
41
0.0
42
0.0
10
76.7276992797852
20
73.4987030029297
40
0.0
41
0.0
42
0.0
10
76.7702026367188
20
73.472297668457
40
0.0
41
0.0
42
0.0
10
76.9878005981445
20
73.3758010864258
40
0.0
41
0.0
42
0.0
10
77.3370971679688
20
73.2469024658203
40
0.0
41
0.0
42
0.0
10
77.4886016845703
20
73.1689987182617
40
0.0
41
0.0
42
0.0
10
77.8050003051758
20
73.0444030761719
40
0.0
41
0.0
42
0.0
10
77.8873977661133
20
72.9974975585938
40
0.0
41
0.0
42
0.0
10
77.9720993041992
20
72.9337005615234
40
0.0
41
0.0
42
0.0
10
77.9887008666992
20
72.9252014160156
40
0.0
41
0.0
42
0.0
10
78.3252029418945
20
72.7871017456055
40
0.0
41
0.0
42
0.0
10
78.4907989501953
20
72.6668014526367
40
0.0
41
0.0
42
0.0
10
78.8324966430664
20
72.4981002807617
40
0.0
41
0.0
42
0.0
10
78.8644027709961
20
72.4774017333984
40
0.0
41
0.0
42
0.0
10
78.9922027587891
20
72.3702011108398
40
0.0
41
0.0
42
0.0
10
79.3125991821289
20
72.1755981445312
40
0.0
41
0.0
42
0.0
10
79.489501953125
20
72.089599609375
40
0.0
41
0.0
42
0.0
10
79.6593017578125
20
71.9981994628906
40
0.0
41
0.0
42
0.0
10
79.9906005859375
20
71.7994995117188
40
0.0
41
0.0
42
0.0
10
80.4694976806641
20
71.5186996459961
40
0.0
41
0.0
42
0.0
10
80.491096496582
20
71.5074005126953
40
0.0
41
0.0
42
0.0
10
80.5073013305664
20
71.4953994750977
40
0.0
41
0.0
42
0.0
10
80.9935989379883
20
71.1859970092773
40
0.0
41
0.0
42
0.0
10
81.1666030883789
20
70.9926986694336
40
0.0
41
0.0
42
0.0
10
81.2107009887695
20
70.9253005981445
40
0.0
41
0.0
42
0.0
10
81.4968032836914
20
70.6791000366211
40
0.0
41
0.0
42
0.0
10
81.5924987792969
20
70.4909973144531
40
0.0
41
0.0
42
0.0
10
81.6128997802734
20
70.4595031738281
40
0.0
41
0.0
42
0.0
10
81.7269973754883
20
70.3265991210938
40
0.0
41
0.0
42
0.0
10
81.8378982543945
20
69.9847030639648
40
0.0
41
0.0
42
0.0
10
81.8899993896484
20
69.611198425293
40
0.0
41
0.0
42
0.0
10
81.9281005859375
20
69.5346984863281
40
0.0
41
0.0
42
0.0
10
81.9445037841797
20
69.4889984130859
40
0.0
41
0.0
42
0.0
10
81.9279022216797
20
69.2322998046875
40
0.0
41
0.0
42
0.0
10
81.9279022216797
20
69.1938018798828
40
0.0
41
0.0
42
0.0
10
81.9440002441406
20
69.0093994140625
40
0.0
41
0.0
42
0.0
10
81.8693008422852
20
68.8003997802734
40
0.0
41
0.0
42
0.0
10
81.8105010986328
20
68.5141983032227
40
0.0
41
0.0
42
0.0
10
81.7628021240234
20
68.3840026855469
40
0.0
41
0.0
42
0.0
10
81.5503005981445
20
68.1462020874023
40
0.0
41
0.0
42
0.0
10
81.4944000244141
20
68.0747985839844
40
0.0
41
0.0
42
0.0
10
81.3825988769531
20
68.002197265625
40
0.0
41
0.0
42
0.0
10
81.1787033081055
20
67.8755035400391
40
0.0
41
0.0
42
0.0
10
81.0634994506836
20
67.8436965942383
40
0.0
41
0.0
42
0.0
10
80.9858016967773
20
67.8106002807617
40
0.0
41
0.0
42
0.0
10
80.6380996704102
20
67.7570037841797
40
0.0
41
0.0
42
0.0
10
80.5093994140625
20
67.7538986206055
40
0.0
41
0.0
42
0.0
10
80.1787033081055
20
67.7772979736328
40
0.0
41
0.0
42
0.0
10
80.0149002075195
20
67.8050003051758
40
0.0
41
0.0
42
0.0
10
79.5560989379883
20
67.9561004638672
40
0.0
41
0.0
42
0.0
10
79.5081024169922
20
67.9809036254883
40
0.0
41
0.0
42
0.0
10
79.4795989990234
20
68.0052032470703
40
0.0
41
0.0
42
0.0
10
79.4613037109375
20
68.0286026000977
40
0.0
41
0.0
42
0.0
10
79.3830032348633
20
68.1005020141602
40
0.0
41
0.0
42
0.0
10
79.0093994140625
20
68.279899597168
40
0.0
41
0.0
42
0.0
10
78.7888031005859
20
68.4302978515625
40
0.0
41
0.0
42
0.0
10
78.7408981323242
20
68.5102005004883
40
0.0
41
0.0
42
0.0
10
78.6688995361328
20
68.6738967895508
40
0.0
41
0.0
42
0.0
10
78.5878982543945
20
68.7741012573242
40
0.0
41
0.0
42
0.0
10
78.5048980712891
20
68.8518981933594
40
0.0
41
0.0
42
0.0
10
78.3658981323242
20
69.0074996948242
40
0.0
41
0.0
42
0.0
10
78.303596496582
20
69.1150970458984
40
0.0
41
0.0
42
0.0
10
78.1660003662109
20
69.3449020385742
40
0.0
41
0.0
42
0.0
10
78.0980987548828
20
69.5113983154297
40
0.0
41
0.0
42
0.0
10
78.0018005371094
20
69.7092971801758
40
0.0
41
0.0
42
0.0
10
77.9555969238281
20
69.7731018066406
40
0.0
41
0.0
42
0.0
10
77.8434982299805
20
70.0093994140625
40
0.0
41
0.0
42
0.0
10
77.7769012451172
20
70.1056976318359
40
0.0
41
0.0
42
0.0
10
77.6660995483398
20
70.3739013671875
40
0.0
41
0.0
42
0.0
10
77.624397277832
20
70.4433975219727
40
0.0
41
0.0
42
0.0
10
77.6005020141602
20
70.5100021362305
40
0.0
41
0.0
42
0.0
10
77.5036010742188
20
70.6436996459961
40
0.0
41
0.0
42
0.0
10
77.4717025756836
20
70.6782989501953
40
0.0
41
0.0
42
0.0
10
77.3289031982422
20
71.0096969604492
40
0.0
41
0.0
42
0.0
10
77.2154006958008
20
71.1752014160156
40
0.0
41
0.0
42
0.0
10
77.0932006835938
20
71.5099029541016
40
0.0
41
0.0
42
0.0
10
77.0391998291016
20
71.584602355957
40
0.0
41
0.0
42
0.0
10
77.0003967285156
20
71.6717987060547
40
0.0
41
0.0
42
0.0
10
76.9061965942383
20
71.9213027954102
40
0.0
41
0.0
42
0.0
10
76.8569030761719
20
72.0103988647461
40
0.0
41
0.0
42
0.0
10
76.7967987060547
20
72.1371994018555
40
0.0
41
0.0
42
0.0
10
76.678596496582
20
72.5113983154297
40
0.0
41
0.0
42
0.0
10
76.6518020629883
20
72.5580978393555
40
0.0
41
0.0
42
0.0
10
76.5001983642578
20
72.9063034057617
40
0.0
41
0.0
42
0.0
10
76.4905014038086
20
72.9354019165039
40
0.0
41
0.0
42
0.0
10
76.4599990844727
20
73.013801574707
40
0.0
41
0.0
42
0.0
10
76.4315032958984
20
73.1412963867188
40
0.0
41
0.0
42
0.0
10
76.3846969604492
20
73.4928970336914
40
0.0
41
0.0
42
0.0
10
76.4499969482422
20
73.543701171875
40
0.0
41
0.0
42
0.0
10
76.5037002563477
20
73.5748977661133
40
0.0
41
0.0
42
0.0
210
0.0
220
0.0
230
1.0
0
LWPOLYLINE
5
30
330
1C
100
AcDbEntity
67
0
8
0
62
256
6
ByLayer
370
-1
48
1.0
60
0
100
AcDbPolyline
90
97
70
1
38
0.0
39
0.0
10
76.4147033691406
20
76.4856033325195
40
0.0
41
0.0
42
0.0
10
76.4559020996094
20
76.4149017333984
40
0.0
41
0.0
42
0.0
10
76.4901962280273
20
76.3710021972656
40
0.0
41
0.0
42
0.0
10
76.5186004638672
20
76.3709030151367
40
0.0
41
0.0
42
0.0
10
76.8513031005859
20
76.4152984619141
40
0.0
41
0.0
42
0.0
10
77.013801574707
20
76.4516983032227
40
0.0
41
0.0
42
0.0
10
77.1147994995117
20
76.4912033081055
40
0.0
41
0.0
42
0.0
10
77.1401977539062
20
76.4994964599609
40
0.0
41
0.0
42
0.0
10
77.4475021362305
20
76.6333999633789
40
0.0
41
0.0
42
0.0
10
77.5114974975586
20
76.6699981689453
40
0.0
41
0.0
42
0.0
10
77.847297668457
20
76.7761001586914
40
0.0
41
0.0
42
0.0
10
78.0102996826172
20
76.8533020019531
40
0.0
41
0.0
42
0.0
10
78.0843963623047
20
76.8952026367188
40
0.0
41
0.0
42
0.0
10
78.3600997924805
20
76.9992980957031
40
0.0
41
0.0
42
0.0
10
78.4523010253906
20
77.040397644043
40
0.0
41
0.0
42
0.0
10
78.5100021362305
20
77.0820999145508
40
0.0
41
0.0
42
0.0
10
78.8852996826172
20
77.2191009521484
40
0.0
41
0.0
42
0.0
10
79.0098037719727
20
77.3043975830078
40
0.0
41
0.0
42
0.0
10
79.3795013427734
20
77.4637985229492
40
0.0
41
0.0
42
0.0
10
79.4148025512695
20
77.4962997436523
40
0.0
41
0.0
42
0.0
10
79.5101013183594
20
77.5652008056641
40
0.0
41
0.0
42
0.0
10
79.5864028930664
20
77.5926971435547
40
0.0
41
0.0
42
0.0
10
79.638298034668
20
77.6238021850586
40
0.0
41
0.0
42
0.0
10
79.9372024536133
20
77.7472991943359
40
0.0
41
0.0
42
0.0
10
80.0093994140625
20
77.7972030639648
40
0.0
41
0.0
42
0.0
10
80.309196472168
20
77.9394989013672
40
0.0
41
0.0
42
0.0
10
80.3900985717773
20
77.9980010986328
40
0.0
41
0.0
42
0.0
10
80.5113983154297
20
78.056999206543
40
0.0
41
0.0
42
0.0
10
80.6744003295898
20
78.1238021850586
40
0.0
41
0.0
42
0.0
10
80.9291000366211
20
78.2761993408203
40
0.0
41
0.0
42
0.0
10
81.0075988769531
20
78.3216018676758
40
0.0
41
0.0
42
0.0
10
81.2015991210938
20
78.495002746582
40
0.0
41
0.0
42
0.0
10
81.3021011352539
20
78.6023025512695
40
0.0
41
0.0
42
0.0
10
81.383903503418
20
78.6682968139648
40
0.0
41
0.0
42
0.0
10
81.5102996826172
20
78.7238998413086
40
0.0
41
0.0
42
0.0
10
81.5632019042969
20
78.7557983398438
40
0.0
41
0.0
42
0.0
10
81.7244033813477
20
78.9905014038086
40
0.0
41
0.0
42
0.0
10
81.8860015869141
20
79.3268966674805
40
0.0
41
0.0
42
0.0
10
81.9563980102539
20
79.4036026000977
40
0.0
41
0.0
42
0.0
10
82.0054016113281
20
79.4419021606445
40
0.0
41
0.0
42
0.0
10
82.0467987060547
20
79.4901962280273
40
0.0
41
0.0
42
0.0
10
82.1424026489258
20
79.8227996826172
40
0.0
41
0.0
42
0.0
10
82.2276992797852
20
79.986701965332
40
0.0
41
0.0
42
0.0
10
82.2630004882812
20
80.1953964233398
40
0.0
41
0.0
42
0.0
10
82.283203125
20
80.4804992675781
40
0.0
41
0.0
42
0.0
10
82.2782974243164
20
80.7244033813477
40
0.0
41
0.0
42
0.0
10
82.2335968017578
20
81.0156021118164
40
0.0
41
0.0
42
0.0
10
82.1968002319336
20
81.1538009643555
40
0.0
41
0.0
42
0.0
10
82.1565017700195
20
81.2498016357422
40
0.0
41
0.0
42
0.0
10
81.991096496582
20
81.5066986083984
40
0.0
41
0.0
42
0.0
10
81.8366012573242
20
81.6612014770508
40
0.0
41
0.0
42
0.0
10
81.6738967895508
20
81.7889022827148
40
0.0
41
0.0
42
0.0
10
81.6598968505859
20
81.7953033447266
40
0.0
41
0.0
42
0.0
10
81.5142974853516
20
81.8471984863281
40
0.0
41
0.0
42
0.0
10
81.1364974975586
20
81.9246978759766
40
0.0
41
0.0
42
0.0
10
81.0162963867188
20
81.967903137207
40
0.0
41
0.0
42
0.0
10
80.9809036254883
20
81.9677963256836
40
0.0
41
0.0
42
0.0
10
80.7160034179688
20
81.9446029663086
40
0.0
41
0.0
42
0.0
10
80.5193023681641
20
81.9574966430664
40
0.0
41
0.0
42
0.0
10
80.4835968017578
20
81.9573974609375
40
0.0
41
0.0
42
0.0
10
80.4265975952148
20
81.9371032714844
40
0.0
41
0.0
42
0.0
10
80.3212966918945
20
81.8843994140625
40
0.0
41
0.0
42
0.0
10
79.9847030639648
20
81.8375015258789
40
0.0
41
0.0
42
0.0
10
79.6154022216797
20
81.7172012329102
40
0.0
41
0.0
42
0.0
10
79.5175018310547
20
81.6332015991211
40
0.0
41
0.0
42
0.0
10
79.4905014038086
20
81.6155014038086
40
0.0
41
0.0
42
0.0
10
79.2705001831055
20
81.5035018920898
40
0.0
41
0.0
42
0.0
10
79.1800003051758
20
81.381103515625
40
0.0
41
0.0
42
0.0
10
79.0836029052734
20
81.2873992919922
40
0.0
41
0.0
42
0.0
10
78.9927978515625
20
81.227897644043
40
0.0
41
0.0
42
0.0
10
78.745002746582
20
81.006103515625
40
0.0
41
0.0
42
0.0
10
78.6652984619141
20
80.8836975097656
40
0.0
41
0.0
42
0.0
10
78.5123977661133
20
80.6406021118164
40
0.0
41
0.0
42
0.0
10
78.4964981079102
20
80.6214981079102
40
0.0
41
0.0
42
0.0
10
78.4141998291016
20
80.5087966918945
40
0.0
41
0.0
42
0.0
10
78.3228988647461
20
80.3343963623047
40
0.0
41
0.0
42
0.0
10
78.1323013305664
20
80.0092010498047
40
0.0
41
0.0
42
0.0
10
77.9981994628906
20
79.7854995727539
40
0.0
41
0.0
42
0.0
10
77.8489990234375
20
79.5083999633789
40
0.0
41
0.0
42
0.0
10
77.750602722168
20
79.383903503418
40
0.0
41
0.0
42
0.0
10
77.5804977416992
20
79.0086975097656
40
0.0
41
0.0
42
0.0
10
77.5094985961914
20
78.9237976074219
40
0.0
41
0.0
42
0.0
10
77.4981994628906
20
78.9066009521484
40
0.0
41
0.0
42
0.0
10
77.302001953125
20
78.5091018676758
40
0.0
41
0.0
42
0.0
10
77.2116012573242
20
78.3846969604492
40
0.0
41
0.0
42
0.0
10
77.0584030151367
20
78.0111999511719
40
0.0
41
0.0
42
0.0
10
77.0463027954102
20
77.9875030517578
40
0.0
41
0.0
42
0.0
10
76.9974975585938
20
77.9225997924805
40
0.0
41
0.0
42
0.0
10
76.9644012451172
20
77.8646011352539
40
0.0
41
0.0
42
0.0
10
76.8256988525391
20
77.5124969482422
40
0.0
41
0.0
42
0.0
10
76.6921005249023
20
77.1501998901367
40
0.0
41
0.0
42
0.0
10
76.6203994750977
20
77.0109024047852
40
0.0
41
0.0
42
0.0
10
76.5329971313477
20
76.8140029907227
40
0.0
41
0.0
42
0.0
10
76.4987030029297
20
76.7584991455078
40
0.0
41
0.0
42
0.0
10
76.4550018310547
20
76.6519012451172
40
0.0
41
0.0
42
0.0
10
76.4148025512695
20
76.5168991088867
40
0.0
41
0.0
42
0.0
10
76.4147033691406
20
76.4856033325195
40
0.0
41
0.0
42
0.0
210
0.0
220
0.0
230
1.0
0
LWPOLYLINE
5
31
330
1C
100
AcDbEntity
67
0
8
0
62
256
6
ByLayer
370
-1
48
1.0
60
0
100
AcDbPolyline
90
94
70
1
38
0.0
39
0.0
10
76.5011978149414
20
76.7276992797852
40
0.0
41
0.0
42
0.0
10
76.5274963378906
20
76.7703018188477
40
0.0
41
0.0
42
0.0
10
76.6244964599609
20
76.9889984130859
40
0.0
41
0.0
42
0.0
10
76.6889038085938
20
77.1141967773438
40
0.0
41
0.0
42
0.0
10
76.706901550293
20
77.1529998779297
40
0.0
41
0.0
42
0.0
10
76.8302001953125
20
77.4873962402344
40
0.0
41
0.0
42
0.0
10
76.9552993774414
20
77.8050994873047
40
0.0
41
0.0
42
0.0
10
77.0024032592773
20
77.8873977661133
40
0.0
41
0.0
42
0.0
10
77.0661010742188
20
77.9721984863281
40
0.0
41
0.0
42
0.0
10
77.0746002197266
20
77.9888000488281
40
0.0
41
0.0
42
0.0
10
77.2126007080078
20
78.3252029418945
40
0.0
41
0.0
42
0.0
10
77.3329010009766
20
78.4908981323242
40
0.0
41
0.0
42
0.0
10
77.5016021728516
20
78.8326034545898
40
0.0
41
0.0
42
0.0
10
77.5223999023438
20
78.8644027709961
40
0.0
41
0.0
42
0.0
10
77.6287002563477
20
78.9913024902344
40
0.0
41
0.0
42
0.0
10
77.780403137207
20
79.3259963989258
40
0.0
41
0.0
42
0.0
10
77.9113006591797
20
79.4915008544922
40
0.0
41
0.0
42
0.0
10
78.0017013549805
20
79.6593017578125
40
0.0
41
0.0
42
0.0
10
78.2002029418945
20
79.9906997680664
40
0.0
41
0.0
42
0.0
10
78.4810028076172
20
80.4694976806641
40
0.0
41
0.0
42
0.0
10
78.492301940918
20
80.4912033081055
40
0.0
41
0.0
42
0.0
10
78.5044021606445
20
80.5073013305664
40
0.0
41
0.0
42
0.0
10
78.7050018310547
20
80.826301574707
40
0.0
41
0.0
42
0.0
10
78.8137969970703
20
80.9937973022461
40
0.0
41
0.0
42
0.0
10
79.0072021484375
20
81.1666030883789
40
0.0
41
0.0
42
0.0
10
79.0753021240234
20
81.2111968994141
40
0.0
41
0.0
42
0.0
10
79.1961975097656
20
81.3287963867188
40
0.0
41
0.0
42
0.0
10
79.3200988769531
20
81.4963989257812
40
0.0
41
0.0
42
0.0
10
79.5093994140625
20
81.5927963256836
40
0.0
41
0.0
42
0.0
10
79.5401992797852
20
81.6129989624023
40
0.0
41
0.0
42
0.0
10
79.6733016967773
20
81.7270965576172
40
0.0
41
0.0
42
0.0
10
80.0151977539062
20
81.8378982543945
40
0.0
41
0.0
42
0.0
10
80.3887023925781
20
81.8899993896484
40
0.0
41
0.0
42
0.0
10
80.4651031494141
20
81.9281005859375
40
0.0
41
0.0
42
0.0
10
80.5109024047852
20
81.9445037841797
40
0.0
41
0.0
42
0.0
10
80.7676010131836
20
81.9279022216797
40
0.0
41
0.0
42
0.0
10
80.8059005737305
20
81.9279022216797
40
0.0
41
0.0
42
0.0
10
80.9905014038086
20
81.9440002441406
40
0.0
41
0.0
42
0.0
10
81.1994018554688
20
81.8693008422852
40
0.0
41
0.0
42
0.0
10
81.4856033325195
20
81.8104019165039
40
0.0
41
0.0
42
0.0
10
81.5997009277344
20
81.7697982788086
40
0.0
41
0.0
42
0.0
10
81.6158981323242
20
81.7624969482422
40
0.0
41
0.0
42
0.0
10
81.8043975830078
20
81.6146011352539
40
0.0
41
0.0
42
0.0
10
81.9255981445312
20
81.4932022094727
40
0.0
41
0.0
42
0.0
10
82.116096496582
20
81.1984024047852
40
0.0
41
0.0
42
0.0
10
82.160400390625
20
81.0932998657227
40
0.0
41
0.0
42
0.0
10
82.1893997192383
20
80.9841995239258
40
0.0
41
0.0
42
0.0
10
82.2426986694336
20
80.6380996704102
40
0.0
41
0.0
42
0.0
10
82.2457962036133
20
80.5093994140625
40
0.0
41
0.0
42
0.0
10
82.2223968505859
20
80.1787033081055
40
0.0
41
0.0
42
0.0
10
82.1943969726562
20
80.0131988525391
40
0.0
41
0.0
42
0.0
10
82.1287002563477
20
79.8871002197266
40
0.0
41
0.0
42
0.0
10
82.0203018188477
20
79.5098037719727
40
0.0
41
0.0
42
0.0
10
81.9945983886719
20
79.4796981811523
40
0.0
41
0.0
42
0.0
10
81.9711990356445
20
79.4614028930664
40
0.0
41
0.0
42
0.0
10
81.8992004394531
20
79.3831024169922
40
0.0
41
0.0
42
0.0
10
81.7198028564453
20
79.0093994140625
40
0.0
41
0.0
42
0.0
10
81.5693969726562
20
78.7889022827148
40
0.0
41
0.0
42
0.0
10
81.4896011352539
20
78.7408981323242
40
0.0
41
0.0
42
0.0
10
81.3259963989258
20
78.6689987182617
40
0.0
41
0.0
42
0.0
10
81.225700378418
20
78.5878982543945
40
0.0
41
0.0
42
0.0
10
81.1477966308594
20
78.5048980712891
40
0.0
41
0.0
42
0.0
10
80.992301940918
20
78.3658981323242
40
0.0
41
0.0
42
0.0
10
80.8846969604492
20
78.303596496582
40
0.0
41
0.0
42
0.0
10
80.6549987792969
20
78.1660995483398
40
0.0
41
0.0
42
0.0
10
80.4885025024414
20
78.0981979370117
40
0.0
41
0.0
42
0.0
10
80.2904968261719
20
78.0018005371094
40
0.0
41
0.0
42
0.0
10
80.2266998291016
20
77.9557037353516
40
0.0
41
0.0
42
0.0
10
79.9905014038086
20
77.8434982299805
40
0.0
41
0.0
42
0.0
10
79.8940963745117
20
77.7769012451172
40
0.0
41
0.0
42
0.0
10
79.6259002685547
20
77.6660995483398
40
0.0
41
0.0
42
0.0
10
79.556396484375
20
77.6244964599609
40
0.0
41
0.0
42
0.0
10
79.4898986816406
20
77.6005020141602
40
0.0
41
0.0
42
0.0
10
79.3561019897461
20
77.5037002563477
40
0.0
41
0.0
42
0.0
10
79.3215026855469
20
77.4718017578125
40
0.0
41
0.0
42
0.0
10
78.9900970458984
20
77.3290023803711
40
0.0
41
0.0
42
0.0
10
78.8246994018555
20
77.2154998779297
40
0.0
41
0.0
42
0.0
10
78.4898986816406
20
77.0932998657227
40
0.0
41
0.0
42
0.0
10
78.4151992797852
20
77.0392990112305
40
0.0
41
0.0
42
0.0
10
78.3279037475586
20
77.0005035400391
40
0.0
41
0.0
42
0.0
10
78.078498840332
20
76.9063034057617
40
0.0
41
0.0
42
0.0
10
77.989501953125
20
76.8570022583008
40
0.0
41
0.0
42
0.0
10
77.8627014160156
20
76.7967987060547
40
0.0
41
0.0
42
0.0
10
77.4885025024414
20
76.6787033081055
40
0.0
41
0.0
42
0.0
10
77.4417037963867
20
76.6519012451172
40
0.0
41
0.0
42
0.0
10
77.0934982299805
20
76.5002975463867
40
0.0
41
0.0
42
0.0
10
77.0643997192383
20
76.4906005859375
40
0.0
41
0.0
42
0.0
10
76.9860992431641
20
76.4599990844727
40
0.0
41
0.0
42
0.0
10
76.8585968017578
20
76.4315032958984
40
0.0
41
0.0
42
0.0
10
76.5068969726562
20
76.3845977783203
40
0.0
41
0.0
42
0.0
10
76.4561004638672
20
76.4498977661133
40
0.0
41
0.0
42
0.0
10
76.4246978759766
20
76.5037002563477
40
0.0
41
0.0
42
0.0
10
76.4662017822266
20
76.6425018310547
40
0.0
41
0.0
42
0.0
10
76.5011978149414
20
76.7276992797852
40
0.0
41
0.0
42
0.0
210
0.0
220
0.0
230
1.0
0
LWPOLYLINE
5
32
330
1C
100
AcDbEntity
67
0
8
0
62
256
6
ByLayer
370
-1
48
1.0
60
0
100
AcDbPolyline
90
87
70
1
38
0.0
39
0.0
10
76.7817993164062
20
75.0037994384766
40
0.0
41
0.0
42
0.0
10
76.7817993164062
20
74.9947967529297
40
0.0
41
0.0
42
0.0
10
76.9881973266602
20
74.9231033325195
40
0.0
41
0.0
42
0.0
10
77.3255996704102
20
74.7489013671875
40
0.0
41
0.0
42
0.0
10
77.4918975830078
20
74.6371002197266
40
0.0
41
0.0
42
0.0
10
77.6844024658203
20
74.4985961914062
40
0.0
41
0.0
42
0.0
10
77.8479995727539
20
74.4364013671875
40
0.0
41
0.0
42
0.0
10
77.9891967773438
20
74.3604965209961
40
0.0
41
0.0
42
0.0
10
78.3220977783203
20
74.2119979858398
40
0.0
41
0.0
42
0.0
10
78.4850006103516
20
74.1651000976562
40
0.0
41
0.0
42
0.0
10
78.6113967895508
20
74.1358032226562
40
0.0
41
0.0
42
0.0
10
78.9067001342773
20
74.0113983154297
40
0.0
41
0.0
42
0.0
10
78.9337997436523
20
73.9981994628906
40
0.0
41
0.0
42
0.0
10
78.9881973266602
20
73.9625015258789
40
0.0
41
0.0
42
0.0
10
79.1116027832031
20
73.9350967407227
40
0.0
41
0.0
42
0.0
10
79.4877014160156
20
73.7666015625
40
0.0
41
0.0
42
0.0
10
79.8600997924805
20
73.6336975097656
40
0.0
41
0.0
42
0.0
10
79.9833984375
20
73.6150970458984
40
0.0
41
0.0
42
0.0
10
80.1101989746094
20
73.591796875
40
0.0
41
0.0
42
0.0
10
80.3887023925781
20
73.499397277832
40
0.0
41
0.0
42
0.0
10
80.4877014160156
20
73.4521026611328
40
0.0
41
0.0
42
0.0
10
80.6044998168945
20
73.4142990112305
40
0.0
41
0.0
42
0.0
10
80.9878005981445
20
73.2712020874023
40
0.0
41
0.0
42
0.0
10
81.1112976074219
20
73.217399597168
40
0.0
41
0.0
42
0.0
10
81.486198425293
20
73.1387023925781
40
0.0
41
0.0
42
0.0
10
81.6099014282227
20
73.0866012573242
40
0.0
41
0.0
42
0.0
10
81.9806976318359
20
73.0605010986328
40
0.0
41
0.0
42
0.0
10
82.018798828125
20
73.0604019165039
40
0.0
41
0.0
42
0.0
10
82.3674011230469
20
73.0995025634766
40
0.0
41
0.0
42
0.0
10
82.4832992553711
20
73.0614013671875
40
0.0
41
0.0
42
0.0
10
82.5166015625
20
73.0613021850586
40
0.0
41
0.0
42
0.0
10
82.8468017578125
20
73.1682968139648
40
0.0
41
0.0
42
0.0
10
82.9813003540039
20
73.1513977050781
40
0.0
41
0.0
42
0.0
10
83.0146026611328
20
73.1512985229492
40
0.0
41
0.0
42
0.0
10
83.3481979370117
20
73.3322982788086
40
0.0
41
0.0
42
0.0
10
83.5139999389648
20
73.3572006225586
40
0.0
41
0.0
42
0.0
10
83.6740036010742
20
73.4279022216797
40
0.0
41
0.0
42
0.0
10
83.7593994140625
20
73.4960021972656
40
0.0
41
0.0
42
0.0
10
84.0053024291992
20
73.7193984985352
40
0.0
41
0.0
42
0.0
10
84.0364990234375
20
73.7519989013672
40
0.0
41
0.0
42
0.0
10
84.1349029541016
20
73.8302001953125
40
0.0
41
0.0
42
0.0
10
84.2760009765625
20
73.9916000366211
40
0.0
41
0.0
42
0.0
10
84.50830078125
20
74.4850006103516
40
0.0
41
0.0
42
0.0
10
84.5259017944336
20
74.9485015869141
40
0.0
41
0.0
42
0.0
10
84.5258026123047
20
74.9871978759766
40
0.0
41
0.0
42
0.0
10
84.5233993530273
20
75.0139999389648
40
0.0
41
0.0
42
0.0
10
84.5009002685547
20
75.0584030151367
40
0.0
41
0.0
42
0.0
10
84.4260025024414
20
75.2285995483398
40
0.0
41
0.0
42
0.0
10
84.3235015869141
20
75.5094985961914
40
0.0
41
0.0
42
0.0
10
84.1696014404297
20
75.7030029296875
40
0.0
41
0.0
42
0.0
10
84.004997253418
20
75.8495025634766
40
0.0
41
0.0
42
0.0
10
83.8657989501953
20
76.0045013427734
40
0.0
41
0.0
42
0.0
10
83.6738967895508
20
76.1579971313477
40
0.0
41
0.0
42
0.0
10
83.5139007568359
20
76.2301025390625
40
0.0
41
0.0
42
0.0
10
83.3751983642578
20
76.2519989013672
40
0.0
41
0.0
42
0.0
10
83.0142974853516
20
76.4623031616211
40
0.0
41
0.0
42
0.0
10
82.9810028076172
20
76.4621963500977
40
0.0
41
0.0
42
0.0
10
82.88330078125
20
76.4520034790039
40
0.0
41
0.0
42
0.0
10
82.5149002075195
20
76.5822982788086
40
0.0
41
0.0
42
0.0
10
82.2830963134766
20
76.6157989501953
40
0.0
41
0.0
42
0.0
10
82.2454986572266
20
76.6156997680664
40
0.0
41
0.0
42
0.0
10
81.9813003540039
20
76.5942001342773
40
0.0
41
0.0
42
0.0
10
81.7910003662109
20
76.5847015380859
40
0.0
41
0.0
42
0.0
10
81.4549026489258
20
76.5063018798828
40
0.0
41
0.0
42
0.0
10
81.4356994628906
20
76.4997024536133
40
0.0
41
0.0
42
0.0
10
80.8434982299805
20
76.3580017089844
40
0.0
41
0.0
42
0.0
10
80.4857025146484
20
76.2624969482422
40
0.0
41
0.0
42
0.0
10
80.1858978271484
20
76.1710968017578
40
0.0
41
0.0
42
0.0
10
79.9860992431641
20
76.1244964599609
40
0.0
41
0.0
42
0.0
10
79.7689971923828
20
76.0419998168945
40
0.0
41
0.0
42
0.0
10
79.6359024047852
20
75.9996032714844
40
0.0
41
0.0
42
0.0
10
79.4856033325195
20
75.9676971435547
40
0.0
41
0.0
42
0.0
10
79.1093978881836
20
75.8368988037109
40
0.0
41
0.0
42
0.0
10
78.9824981689453
20
75.8262023925781
40
0.0
41
0.0
42
0.0
10
78.8603973388672
20
75.806999206543
40
0.0
41
0.0
42
0.0
10
78.486701965332
20
75.6648025512695
40
0.0
41
0.0
42
0.0
10
78.4374008178711
20
75.6501998901367
40
0.0
41
0.0
42
0.0
10
78.1155014038086
20
75.5009994506836
40
0.0
41
0.0
42
0.0
10
78.0626983642578
20
75.4739990234375
40
0.0
41
0.0
42
0.0
10
77.9834976196289
20
75.4518966674805
40
0.0
41
0.0
42
0.0
10
77.8623962402344
20
75.4120025634766
40
0.0
41
0.0
42
0.0
10
77.8238983154297
20
75.3955001831055
40
0.0
41
0.0
42
0.0
10
77.4878005981445
20
75.223503112793
40
0.0
41
0.0
42
0.0
10
77.3216018676758
20
75.1743011474609
40
0.0
41
0.0
42
0.0
10
76.9859008789062
20
75.0514984130859
40
0.0
41
0.0
42
0.0
10
76.8310012817383
20
75.0170974731445
40
0.0
41
0.0
42
0.0
10
76.7817993164062
20
75.0037994384766
40
0.0
41
0.0
42
0.0
210
0.0
220
0.0
230
1.0
0
LWPOLYLINE
5
33
330
1C
100
AcDbEntity
67
0
8
0
62
256
6
ByLayer
370
-1
48
1.0
60
0
100
AcDbPolyline
90
84
70
1
38
0.0
39
0.0
10
77.0139999389648
20
75.0457992553711
40
0.0
41
0.0
42
0.0
10
77.3883972167969
20
75.1828002929688
40
0.0
41
0.0
42
0.0
10
77.5121994018555
20
75.2192993164062
40
0.0
41
0.0
42
0.0
10
77.8653030395508
20
75.4000015258789
40
0.0
41
0.0
42
0.0
10
78.013801574707
20
75.4489974975586
40
0.0
41
0.0
42
0.0
10
78.1112976074219
20
75.4761962890625
40
0.0
41
0.0
42
0.0
10
78.1556015014648
20
75.4988021850586
40
0.0
41
0.0
42
0.0
10
78.4465026855469
20
75.6335983276367
40
0.0
41
0.0
42
0.0
10
78.5131988525391
20
75.6533966064453
40
0.0
41
0.0
42
0.0
10
78.8495025634766
20
75.7813034057617
40
0.0
41
0.0
42
0.0
10
79.0174026489258
20
75.8078994750977
40
0.0
41
0.0
42
0.0
10
79.1806030273438
20
75.8215026855469
40
0.0
41
0.0
42
0.0
10
79.5142974853516
20
75.9375991821289
40
0.0
41
0.0
42
0.0
10
79.8099975585938
20
76.0002975463867
40
0.0
41
0.0
42
0.0
10
79.8853988647461
20
76.024299621582
40
0.0
41
0.0
42
0.0
10
80.013801574707
20
76.072998046875
40
0.0
41
0.0
42
0.0
10
80.2790985107422
20
76.1349029541016
40
0.0
41
0.0
42
0.0
10
80.5141983032227
20
76.2065963745117
40
0.0
41
0.0
42
0.0
10
80.7964019775391
20
76.2818984985352
40
0.0
41
0.0
42
0.0
10
81.4540023803711
20
76.4395980834961
40
0.0
41
0.0
42
0.0
10
81.5151977539062
20
76.4563980102539
40
0.0
41
0.0
42
0.0
10
81.7440032958984
20
76.5005035400391
40
0.0
41
0.0
42
0.0
10
81.9237976074219
20
76.5423965454102
40
0.0
41
0.0
42
0.0
10
82.0186004638672
20
76.5472030639648
40
0.0
41
0.0
42
0.0
10
82.3444976806641
20
76.573600769043
40
0.0
41
0.0
42
0.0
10
82.4850006103516
20
76.5532989501953
40
0.0
41
0.0
42
0.0
10
82.8184967041016
20
76.435302734375
40
0.0
41
0.0
42
0.0
10
82.8537979125977
20
76.4354019165039
40
0.0
41
0.0
42
0.0
10
82.9906997680664
20
76.4496002197266
40
0.0
41
0.0
42
0.0
10
83.3233032226562
20
76.2557983398438
40
0.0
41
0.0
42
0.0
10
83.3594970703125
20
76.2452011108398
40
0.0
41
0.0
42
0.0
10
83.4860000610352
20
76.2254028320312
40
0.0
41
0.0
42
0.0
10
83.6158981323242
20
76.1669006347656
40
0.0
41
0.0
42
0.0
10
83.8311004638672
20
75.9952011108398
40
0.0
41
0.0
42
0.0
10
83.9946975708008
20
75.8128967285156
40
0.0
41
0.0
42
0.0
10
84.1202011108398
20
75.7011032104492
40
0.0
41
0.0
42
0.0
10
84.2876968383789
20
75.4903030395508
40
0.0
41
0.0
42
0.0
10
84.4112014770508
20
75.1518020629883
40
0.0
41
0.0
42
0.0
10
84.4825973510742
20
74.989501953125
40
0.0
41
0.0
42
0.0
10
84.4798965454102
20
74.9577026367188
40
0.0
41
0.0
42
0.0
10
84.4654998779297
20
74.5142974853516
40
0.0
41
0.0
42
0.0
10
84.4076995849609
20
74.4073028564453
40
0.0
41
0.0
42
0.0
10
84.2197036743164
20
74.00830078125
40
0.0
41
0.0
42
0.0
10
84.1071014404297
20
73.8796997070312
40
0.0
41
0.0
42
0.0
10
84.0318984985352
20
73.8199005126953
40
0.0
41
0.0
42
0.0
10
83.9945983886719
20
73.7809982299805
40
0.0
41
0.0
42
0.0
10
83.6897964477539
20
73.5038986206055
40
0.0
41
0.0
42
0.0
10
83.6158981323242
20
73.4453964233398
40
0.0
41
0.0
42
0.0
10
83.4859008789062
20
73.3880004882812
40
0.0
41
0.0
42
0.0
10
83.361701965332
20
73.3694000244141
40
0.0
41
0.0
42
0.0
10
82.9916000366211
20
73.1684036254883
40
0.0
41
0.0
42
0.0
10
82.8936004638672
20
73.1809005737305
40
0.0
41
0.0
42
0.0
10
82.8576965332031
20
73.1809005737305
40
0.0
41
0.0
42
0.0
10
82.8208999633789
20
73.1710968017578
40
0.0
41
0.0
42
0.0
10
82.5
20
73.0670013427734
40
0.0
41
0.0
42
0.0
10
82.3516006469727
20
73.1159973144531
40
0.0
41
0.0
42
0.0
10
82.3161010742188
20
73.1158981323242
40
0.0
41
0.0
42
0.0
10
81.9962997436523
20
73.0800018310547
40
0.0
41
0.0
42
0.0
10
81.6800003051758
20
73.1023025512695
40
0.0
41
0.0
42
0.0
10
81.5136032104492
20
73.1725006103516
40
0.0
41
0.0
42
0.0
10
81.1784973144531
20
73.2427978515625
40
0.0
41
0.0
42
0.0
10
81.0121002197266
20
73.315299987793
40
0.0
41
0.0
42
0.0
10
80.5171966552734
20
73.5000991821289
40
0.0
41
0.0
42
0.0
10
80.1797027587891
20
73.6120986938477
40
0.0
41
0.0
42
0.0
10
80.0165023803711
20
73.6421966552734
40
0.0
41
0.0
42
0.0
10
79.8498001098633
20
73.6675033569336
40
0.0
41
0.0
42
0.0
10
79.5121002197266
20
73.7878036499023
40
0.0
41
0.0
42
0.0
10
79.1782989501953
20
73.9375
40
0.0
41
0.0
42
0.0
10
79.0115966796875
20
73.9746017456055
40
0.0
41
0.0
42
0.0
10
78.9702987670898
20
74.0016021728516
40
0.0
41
0.0
42
0.0
10
78.9374008178711
20
74.0176010131836
40
0.0
41
0.0
42
0.0
10
78.6783981323242
20
74.1266021728516
40
0.0
41
0.0
42
0.0
10
78.5147018432617
20
74.1647033691406
40
0.0
41
0.0
42
0.0
10
78.3862991333008
20
74.2014007568359
40
0.0
41
0.0
42
0.0
10
78.0106964111328
20
74.368896484375
40
0.0
41
0.0
42
0.0
10
77.8537979125977
20
74.4533004760742
40
0.0
41
0.0
42
0.0
10
77.7275009155273
20
74.5011978149414
40
0.0
41
0.0
42
0.0
10
77.5078964233398
20
74.6594009399414
40
0.0
41
0.0
42
0.0
10
77.3842010498047
20
74.7425994873047
40
0.0
41
0.0
42
0.0
10
77.0117034912109
20
74.9348983764648
40
0.0
41
0.0
42
0.0
10
76.8526000976562
20
74.9897994995117
40
0.0
41
0.0
42
0.0
10
76.8532028198242
20
75.0078964233398
40
0.0
41
0.0
42
0.0
10
76.8982009887695
20
75.0201034545898
40
0.0
41
0.0
42
0.0
10
77.0139999389648
20
75.0457992553711
40
0.0
41
0.0
42
0.0
210
0.0
220
0.0
230
1.0
0
LWPOLYLINE
5
34
330
1C
100
AcDbEntity
67
0
8
0
62
256
6
ByLayer
370
-1
48
1.0
60
0
100
AcDbPolyline
90
37
70
1
38
0.0
39
0.0
10
82.6374969482422
20
65.1565017700195
40
0.0
41
0.0
42
0.0
10
82.8477020263672
20
65.4915008544922
40
0.0
41
0.0
42
0.0
10
82.9685974121094
20
65.6676025390625
40
0.0
41
0.0
42
0.0
10
83.0037994384766
20
65.7154006958008
40
0.0
41
0.0
42
0.0
10
83.1169967651367
20
65.8343963623047
40
0.0
41
0.0
42
0.0
10
83.2479019165039
20
65.993896484375
40
0.0
41
0.0
42
0.0
10
83.4533004760742
20
66.2054977416992
40
0.0
41
0.0
42
0.0
10
83.5072021484375
20
66.2520980834961
40
0.0
41
0.0
42
0.0
10
83.6726989746094
20
66.3637008666992
40
0.0
41
0.0
42
0.0
10
83.6943969726562
20
66.379997253418
40
0.0
41
0.0
42
0.0
10
83.8331985473633
20
66.496696472168
40
0.0
41
0.0
42
0.0
10
84.0229034423828
20
66.6289978027344
40
0.0
41
0.0
42
0.0
10
84.1744995117188
20
66.7125015258789
40
0.0
41
0.0
42
0.0
10
84.5095977783203
20
66.9145965576172
40
0.0
41
0.0
42
0.0
10
84.6668014526367
20
66.9964981079102
40
0.0
41
0.0
42
0.0
10
84.9990005493164
20
67.1762008666992
40
0.0
41
0.0
42
0.0
10
84.9990005493164
20
67.2032012939453
40
0.0
41
0.0
42
0.0
10
84.9848022460938
20
67.2031021118164
40
0.0
41
0.0
42
0.0
10
84.6084976196289
20
66.9992980957031
40
0.0
41
0.0
42
0.0
10
84.4901962280273
20
66.9375
40
0.0
41
0.0
42
0.0
10
84.1154022216797
20
66.7117004394531
40
0.0
41
0.0
42
0.0
10
84.0017013549805
20
66.6490020751953
40
0.0
41
0.0
42
0.0
10
83.7936019897461
20
66.503303527832
40
0.0
41
0.0
42
0.0
10
83.6352005004883
20
66.3703002929688
40
0.0
41
0.0
42
0.0
10
83.6172027587891
20
66.3565979003906
40
0.0
41
0.0
42
0.0
10
83.4926986694336
20
66.2727966308594
40
0.0
41
0.0
42
0.0
10
83.4549026489258
20
66.2401962280273
40
0.0
41
0.0
42
0.0
10
83.2274017333984
20
66.0058975219727
40
0.0
41
0.0
42
0.0
10
83.0811996459961
20
65.8274993896484
40
0.0
41
0.0
42
0.0
10
82.9960021972656
20
65.7380981445312
40
0.0
41
0.0
42
0.0
10
82.9710998535156
20
65.7042007446289
40
0.0
41
0.0
42
0.0
10
82.8367004394531
20
65.5084991455078
40
0.0
41
0.0
42
0.0
10
82.6014022827148
20
65.1333999633789
40
0.0
41
0.0
42
0.0
10
82.519401550293
20
65.0134963989258
40
0.0
41
0.0
42
0.0
10
82.519401550293
20
65.0009994506836
40
0.0
41
0.0
42
0.0
10
82.5310974121094
20
65.0009994506836
40
0.0
41
0.0
42
0.0
10
82.6374969482422
20
65.1565017700195
40
0.0
41
0.0
42
0.0
210
0.0
220
0.0
230
1.0
0
LWPOLYLINE
5
35
330
1C
100
AcDbEntity
67
0
8
0
62
256
6
ByLayer
370
-1
48
1.0
60
0
100
AcDbPolyline
90
37
70
1
38
0.0
39
0.0
10
83.000602722168
20
84.6084976196289
40
0.0
41
0.0
42
0.0
10
83.0622024536133
20
84.4901962280273
40
0.0
41
0.0
42
0.0
10
83.2881011962891
20
84.1154022216797
40
0.0
41
0.0
42
0.0
10
83.350700378418
20
84.0016021728516
40
0.0
41
0.0
42
0.0
10
83.4964981079102
20
83.7935028076172
40
0.0
41
0.0
42
0.0
10
83.6294021606445
20
83.6351013183594
40
0.0
41
0.0
42
0.0
10
83.6430969238281
20
83.6172027587891
40
0.0
41
0.0
42
0.0
10
83.7268981933594
20
83.4926986694336
40
0.0
41
0.0
42
0.0
10
83.7596969604492
20
83.4548034667969
40
0.0
41
0.0
42
0.0
10
83.993896484375
20
83.2274017333984
40
0.0
41
0.0
42
0.0
10
84.1723022460938
20
83.0811996459961
40
0.0
41
0.0
42
0.0
10
84.2645034790039
20
82.9940032958984
40
0.0
41
0.0
42
0.0
10
84.2966003417969
20
82.9702987670898
40
0.0
41
0.0
42
0.0
10
84.4914016723633
20
82.8366012573242
40
0.0
41
0.0
42
0.0
10
84.8664016723633
20
82.6014022827148
40
0.0
41
0.0
42
0.0
10
84.9863967895508
20
82.519401550293
40
0.0
41
0.0
42
0.0
10
84.9990005493164
20
82.519401550293
40
0.0
41
0.0
42
0.0
10
84.9989013671875
20
82.5309982299805
40
0.0
41
0.0
42
0.0
10
84.8433990478516
20
82.6374969482422
40
0.0
41
0.0
42
0.0
10
84.5083999633789
20
82.8476028442383
40
0.0
41
0.0
42
0.0
10
84.3321990966797
20
82.9684982299805
40
0.0
41
0.0
42
0.0
10
84.2844009399414
20
83.0037994384766
40
0.0
41
0.0
42
0.0
10
84.165397644043
20
83.1168975830078
40
0.0
41
0.0
42
0.0
10
84.0058975219727
20
83.247802734375
40
0.0
41
0.0
42
0.0
10
83.7941970825195
20
83.4533004760742
40
0.0
41
0.0
42
0.0
10
83.7477035522461
20
83.5071029663086
40
0.0
41
0.0
42
0.0
10
83.6361999511719
20
83.6726989746094
40
0.0
41
0.0
42
0.0
10
83.6196975708008
20
83.6942977905273
40
0.0
41
0.0
42
0.0
10
83.5031967163086
20
83.8331985473633
40
0.0
41
0.0
42
0.0
10
83.3707962036133
20
84.0227966308594
40
0.0
41
0.0
42
0.0
10
83.2872009277344
20
84.1744003295898
40
0.0
41
0.0
42
0.0
10
83.0850982666016
20
84.5095977783203
40
0.0
41
0.0
42
0.0
10
83.0031967163086
20
84.6668014526367
40
0.0
41
0.0
42
0.0
10
82.823600769043
20
84.9990005493164
40
0.0
41
0.0
42
0.0
10
82.7966995239258
20
84.9990005493164
40
0.0
41
0.0
42
0.0
10
82.796501159668
20
84.9851989746094
40
0.0
41
0.0
42
0.0
10
83.000602722168
20
84.6084976196289
40
0.0
41
0.0
42
0.0
210
0.0
220
0.0
230
1.0
0
VIEWPORT
5
3A
330
36
100
AcDbEntity
67
1
8
0
62
256
6
ByLayer
370
-1
48
1.0
60
0
100
AcDbViewport
10
0.0
20
0.0
30
0.0
40
297.0
41
210.0
68
1
69
1
12
50.0
22
100.0
13
0.0
23
0.0
14
10.0
24
10.0
15
10.0
25
10.0
16
0.0
26
0.0
36
1.0
17
0.0
27
0.0
37
0.0
42
50.0
43
0.0
44
0.0
45
250.0
50
0.0
51
0.0
72
1000
90
819232
110
0.0
120
0.0
130
0.0
111
1.0
121
0.0
131
0.0
112
0.0
122
1.0
132
0.0
0
ENDSEC
0
SECTION
2
OBJECTS
0
DICTIONARY
5
40
330
0
100
AcDbDictionary
280
1
281
1
3
ACAD_GROUP
350
12
3
ACAD_LAYOUT
350
39
3
ACAD_DGNDEFINITIONS
350
F
3
ACAD_DWFDEFINITIONS
350
10
3
ACAD_PDFDEFINITIONS
350
11
3
ACAD_MLINESTYLE
350
B
3
ACAD_IMAGE_DICT
350
E
3
ACAD_IMAGE_VARS
350
21
0
DICTIONARY
5
12
330
40
100
AcDbDictionary
280
1
281
1
0
DICTIONARY
5
39
330
40
100
AcDbDictionary
280
1
281
1
3
Model
350
20
3
Layout1
350
3B
0
DICTIONARY
5
F
330
40
100
AcDbDictionary
280
1
281
1
0
DICTIONARY
5
10
330
40
100
AcDbDictionary
280
1
281
1
0
DICTIONARY
5
11
330
40
100
AcDbDictionary
280
1
281
1
0
DICTIONARY
5
B
330
40
100
AcDbDictionary
280
1
281
1
3
Standard
350
1B
0
DICTIONARY
5
E
330
40
100
AcDbDictionary
280
1
281
1
0
DICTIONARY
5
6
330
5
100
AcDbDictionary
280
1
281
1
3
ACAD_LAYERSTATES
360
41
0
DICTIONARY
5
41
330
6
100
AcDbDictionary
280
1
281
1
0
LAYOUT
5
20
330
39
100
AcDbPlotSettings
1

2
none_device
4
ISO_A4_(210.00_x_297.00_MM)
6

40
7.5
41
20.0
42
7.5
43
20.0
44
210.0
45
297.0
46
0.0
47
0.0
48
0.0
49
0.0
140
0.0
141
0.0
142
1.0
143
1.0
70
11952
72
1
73
1
74
1
7

75
0
76
0
77
2
78
300
147
1.0
148
0.0
149
0.0
100
AcDbLayout
1
Model
71
0
10
-20.0
20
-7.5
11
277.0
21
202.5
12
0.0
22
0.0
32
0.0
14
25.7
24
19.5
34
0.0
15
231.3
25
175.5
35
0.0
146
0.0
13
0.0
23
0.0
33
0.0
16
1.0
26
0.0
36
0.0
17
0.0
27
1.0
37
0.0
76
0
330
1C
0
LAYOUT
5
3B
330
39
100
AcDbPlotSettings
1

2
none_device
4
ISO_A4_(210.00_x_297.00_MM)
6

40
7.5
41
20.0
42
7.5
43
20.0
44
210.0
45
297.0
46
0.0
47
0.0
48
0.0
49
0.0
140
0.0
141
0.0
142
1.0
143
1.0
70
688
72
1
73
1
74
1
7

75
0
76
0
77
2
78
300
147
1.0
148
0.0
149
0.0
100
AcDbLayout
1
Layout1
71
1
10
-20.0
20
-7.5
11
277.0
21
202.5
12
0.0
22
0.0
32
0.0
14
25.7
24
19.5
34
0.0
15
231.3
25
175.5
35
0.0
146
0.0
13
0.0
23
0.0
33
0.0
16
1.0
26
0.0
36
0.0
17
0.0
27
1.0
37
0.0
76
0
330
36
0
MLINESTYLE
5
1B
330
B
100
AcDbMlineStyle
2
Standard
70
0
3

62
256
51
90.0
52
90.0
71
2
49
0.5
62
256
6
ByLayer
49
-0.5
62
256
6
ByLayer
0
RASTERVARIABLES
5
21
330
E
100
AcDbRasterVariables
90
0
70
1
71
1
72
0
0
ENDSEC
0
EOF
