999
DXF file generated by netDxf https://github.com/haplokuon/netDxf, Copyright(C) Daniel Carvajal, Licensed under MIT
0
SECTION
2
HEADER
9
$ACADVER
1
AC1015
9
$DWGCODEPAGE
3
ANSI_1252
9
$HANDSEED
5
42
9
$ANGBASE
50
0.0
9
$ANGDIR
70
0
9
$ATTMODE
70
1
9
$AUNITS
70
0
9
$AUPREC
70
0
9
$CECOLOR
62
256
9
$CELTSCALE
40
1.0
9
$CELTYPE
6
ByLayer
9
$CELWEIGHT
370
-1
9
$CLAYER
8
0
9
$CMLJUST
70
0
9
$CMLSCALE
40
20.0
9
$CMLSTYLE
2
Standard
9
$DIMSTYLE
2
Standard
9
$TEXTSIZE
40
2.5
9
$TEXTSTYLE
7
Standard
9
$LUNITS
70
2
9
$LUPREC
70
4
9
$MIRRTEXT
70
0
9
$EXTNAMES
290
1
9
$INSBASE
10
0.0
20
0.0
30
0.0
9
$INSUNITS
70
0
9
$LTSCALE
40
1.0
9
$LWDISPLAY
290
0
9
$PDMODE
70
0
9
$PDSIZE
40
0.0
9
$PLINEGEN
70
0
9
$PSLTSCALE
70
1
9
$SPLINESEGS
70
8
9
$SURFU
70
6
9
$SURFV
70
6
9
$TDCREATE
40
2460823.48360297
9
$TDUCREATE
40
2460823.15026964
9
$TDUPDATE
40
2460823.48360297
9
$TDUUPDATE
40
2460823.15026964
9
$TDINDWG
40
0.0
9
$UCSORG
10
0.0
20
0.0
30
0.0
9
$UCSXDIR
10
1.0
20
0.0
30
0.0
9
$UCSYDIR
10
0.0
20
1.0
30
0.0
9
$DIMADEC
70
0
9
$DIMALT
70
0
9
$DIMALTD
70
2
9
$DIMALTF
40
25.4
9
$DIMALTRND
40
0.0
9
$DIMALTTD
70
2
9
$DIMALTTZ
70
0
9
$DIMALTU
70
2
9
$DIMALTZ
70
0
9
$DIMAPOST
1

9
$DIMATFIT
70
3
9
$DIMAUNIT
70
0
9
$DIMASZ
40
0.18
9
$DIMAZIN
70
0
9
$DIMSAH
70
0
9
$DIMBLK
1

9
$DIMLDRBLK
1

9
$DIMCEN
40
0.09
9
$DIMCLRD
70
0
9
$DIMCLRE
70
0
9
$DIMCLRT
70
0
9
$DIMDEC
70
4
9
$DIMDLE
40
0.0
9
$DIMDLI
40
0.38
9
$DIMDSEP
70
46
9
$DIMEXE
40
0.18
9
$DIMEXO
40
0.0625
9
$DIMFXLON
70
0
9
$DIMFXL
40
1.0
9
$DIMGAP
40
0.09
9
$DIMJUST
70
0
9
$DIMLFAC
40
1.0
9
$DIMLUNIT
70
2
9
$DIMLWD
70
-2
9
$DIMLWE
70
-2
9
$DIMPOST
1

9
$DIMRND
40
0.0
9
$DIMSCALE
40
1.0
9
$DIMSD1
70
0
9
$DIMSD2
70
0
9
$DIMSE1
70
0
9
$DIMSE2
70
0
9
$DIMSOXD
70
0
9
$DIMTAD
70
0
9
$DIMTDEC
70
4
9
$DIMTFAC
40
1.0
9
$DIMTIH
70
0
9
$DIMTIX
70
0
9
$DIMTM
40
0.0
9
$DIMTMOVE
70
0
9
$DIMTOFL
70
0
9
$DIMTOH
70
0
9
$DIMTOL
70
0
9
$DIMLIM
70
0
9
$DIMTOLJ
70
1
9
$DIMTP
40
0.0
9
$DIMTXT
40
0.18
9
$DIMTXTDIRECTION
70
0
9
$DIMTZIN
70
0
9
$DIMZIN
70
0
9
$DIMFRAC
70
0
9
$DIMLTYPE
6
ByBlock
9
$DIMLTEX1
6
ByBlock
9
$DIMLTEX2
6
ByBlock
0
ENDSEC
0
SECTION
2
CLASSES
0
CLASS
1
RASTERVARIABLES
2
AcDbRasterVariables
3
ISM
90
0
280
0
281
0
0
ENDSEC
0
SECTION
2
TABLES
0
TABLE
2
APPID
5
4
330
0
100
AcDbSymbolTable
70
5
0
APPID
5
19
330
4
100
AcDbSymbolTableRecord
100
AcDbRegAppTableRecord
2
ACAD
70
0
0
APPID
5
3C
330
4
100
AcDbSymbolTableRecord
100
AcDbRegAppTableRecord
2
AcCmTransparency
70
0
0
APPID
5
3D
330
4
100
AcDbSymbolTableRecord
100
AcDbRegAppTableRecord
2
AcAecLayerStandard
70
0
0
APPID
5
3E
330
4
100
AcDbSymbolTableRecord
100
AcDbRegAppTableRecord
2
GradientColor1ACI
70
0
0
APPID
5
3F
330
4
100
AcDbSymbolTableRecord
100
AcDbRegAppTableRecord
2
GradientColor2ACI
70
0
0
ENDTAB
0
TABLE
2
VPORT
5
1
330
0
100
AcDbSymbolTable
70
1
0
VPORT
5
2
330
1
100
AcDbSymbolTableRecord
100
AcDbViewportTableRecord
2
*Active
70
0
10
0.0
20
0.0
11
1.0
21
1.0
12
0.0
22
0.0
13
0.0
23
0.0
14
0.5
24
0.5
15
10.0
25
10.0
16
0.0
26
0.0
36
1.0
17
0.0
27
0.0
37
0.0
40
10.0
41
1.0
75
0
76
1
0
ENDTAB
0
TABLE
2
LTYPE
5
7
330
0
100
AcDbSymbolTable
70
3
0
LTYPE
5
15
330
7
100
AcDbSymbolTableRecord
100
AcDbLinetypeTableRecord
2
Continuous
70
0
3
Solid line
72
65
73
0
40
0.0
0
LTYPE
5
16
330
7
100
AcDbSymbolTableRecord
100
AcDbLinetypeTableRecord
2
ByLayer
70
0
3

72
65
73
0
40
0.0
0
LTYPE
5
17
330
7
100
AcDbSymbolTableRecord
100
AcDbLinetypeTableRecord
2
ByBlock
70
0
3

72
65
73
0
40
0.0
0
ENDTAB
0
TABLE
2
LAYER
5
5
102
{ACAD_XDICTIONARY
360
6
102
}
330
0
100
AcDbSymbolTable
70
1
0
LAYER
5
14
330
5
100
AcDbSymbolTableRecord
100
AcDbLayerTableRecord
2
0
70
0
62
7
6
Continuous
290
1
370
-3
390
0
0
ENDTAB
0
TABLE
2
STYLE
5
8
330
0
100
AcDbSymbolTable
70
1
0
STYLE
5
18
330
8
100
AcDbSymbolTableRecord
100
AcDbTextStyleTableRecord
2
Standard
3
simplex.shx
70
0
71
0
40
0.0
41
1.0
42
0.0
50
0.0
0
ENDTAB
0
TABLE
2
DIMSTYLE
5
A
330
0
100
AcDbSymbolTable
70
1
100
AcDbDimStyleTable
0
DIMSTYLE
105
1A
330
A
100
AcDbSymbolTableRecord
100
AcDbDimStyleTableRecord
2
Standard
3

4

40
1.0
41
0.18
42
0.0625
43
0.38
44
0.18
45
0.0
46
0.0
47
0.0
48
0.0
49
1.0
70
0
71
0
72
0
73
0
74
0
75
0
76
0
77
0
78
0
79
0
140
0.18
141
0.09
143
25.4
144
1.0
146
1.0
147
0.09
148
0.0
170
0
171
2
172
0
174
0
175
0
176
0
177
0
178
0
179
0
271
4
272
4
273
2
274
2
275
0
276
0
277
2
278
46
279
0
280
0
281
0
282
0
283
1
284
0
285
0
286
0
289
3
290
0
294
0
340
18
173
0
345
17
346
17
347
17
371
-2
372
-2
0
ENDTAB
0
TABLE
2
VIEW
5
3
330
0
100
AcDbSymbolTable
70
0
0
ENDTAB
0
TABLE
2
UCS
5
C
330
0
100
AcDbSymbolTable
70
0
0
ENDTAB
0
TABLE
2
BLOCK_RECORD
5
D
330
0
100
AcDbSymbolTable
70
2
0
BLOCK_RECORD
5
1C
330
D
100
AcDbSymbolTableRecord
100
AcDbBlockTableRecord
2
*Model_Space
340
20
0
BLOCK_RECORD
5
36
330
D
100
AcDbSymbolTableRecord
100
AcDbBlockTableRecord
2
*Paper_Space
340
3B
0
ENDTAB
0
ENDSEC
0
SECTION
2
BLOCKS
0
BLOCK
5
1E
330
1C
100
AcDbEntity
67
0
8
0
100
AcDbBlockBegin
2
*Model_Space
70
0
10
0.0
20
0.0
30
0.0
3
*Model_Space
4

0
ENDBLK
5
1D
330
1C
100
AcDbEntity
8
0
100
AcDbBlockEnd
0
BLOCK
5
38
330
36
100
AcDbEntity
67
1
8
0
100
AcDbBlockBegin
2
*Paper_Space
70
0
10
0.0
20
0.0
30
0.0
3
*Paper_Space
4

0
ENDBLK
5
37
330
36
100
AcDbEntity
8
0
100
AcDbBlockEnd
0
ENDSEC
0
SECTION
2
ENTITIES
0
LWPOLYLINE
5
22
330
1C
100
AcDbEntity
67
0
8
0
62
256
6
ByLayer
370
-1
48
1.0
60
0
100
AcDbPolyline
90
29
70
1
38
0.0
39
0.0
10
65.4921035766602
20
67.1022033691406
40
0.0
41
0.0
42
0.0
10
65.6359024047852
20
66.9953002929688
40
0.0
41
0.0
42
0.0
10
65.689697265625
20
66.9322967529297
40
0.0
41
0.0
42
0.0
10
65.9951019287109
20
66.6415023803711
40
0.0
41
0.0
42
0.0
10
66.1127014160156
20
66.5055999755859
40
0.0
41
0.0
42
0.0
10
66.4085998535156
20
66.065803527832
40
0.0
41
0.0
42
0.0
10
66.4502029418945
20
65.9894027709961
40
0.0
41
0.0
42
0.0
10
66.475700378418
20
65.9349975585938
40
0.0
41
0.0
42
0.0
10
66.4980010986328
20
65.8992004394531
40
0.0
41
0.0
42
0.0
10
66.7128982543945
20
65.5093994140625
40
0.0
41
0.0
42
0.0
10
66.7567977905273
20
65.4141998291016
40
0.0
41
0.0
42
0.0
10
66.9718017578125
20
65.0009994506836
40
0.0
41
0.0
42
0.0
10
66.9957962036133
20
65.0009994506836
40
0.0
41
0.0
42
0.0
10
66.9956970214844
20
65.0148010253906
40
0.0
41
0.0
42
0.0
10
66.7559967041016
20
65.475700378418
40
0.0
41
0.0
42
0.0
10
66.7357025146484
20
65.5197982788086
40
0.0
41
0.0
42
0.0
10
66.5017013549805
20
65.9439010620117
40
0.0
41
0.0
42
0.0
10
66.4767990112305
20
65.9839019775391
40
0.0
41
0.0
42
0.0
10
66.44580078125
20
66.0441970825195
40
0.0
41
0.0
42
0.0
10
66.1303024291992
20
66.5130996704102
40
0.0
41
0.0
42
0.0
10
66.0046997070312
20
66.6583023071289
40
0.0
41
0.0
42
0.0
10
65.6761016845703
20
66.9709014892578
40
0.0
41
0.0
42
0.0
10
65.6481018066406
20
67.0046997070312
40
0.0
41
0.0
42
0.0
10
65.6267013549805
20
67.0214996337891
40
0.0
41
0.0
42
0.0
10
65.507698059082
20
67.1094970703125
40
0.0
41
0.0
42
0.0
10
65.0134963989258
20
67.4478988647461
40
0.0
41
0.0
42
0.0
10
65.0009994506836
20
67.4478988647461
40
0.0
41
0.0
42
0.0
10
65.0009002685547
20
67.4384002685547
40
0.0
41
0.0
42
0.0
10
65.4921035766602
20
67.1022033691406
40
0.0
41
0.0
42
0.0
210
0.0
220
0.0
230
1.0
0
LWPOLYLINE
5
23
330
1C
100
AcDbEntity
67
0
8
0
62
256
6
ByLayer
370
-1
48
1.0
60
0
100
AcDbPolyline
90
83
70
1
38
0.0
39
0.0
10
65.3012008666992
20
74.492301940918
40
0.0
41
0.0
42
0.0
10
65.3881988525391
20
74.39990234375
40
0.0
41
0.0
42
0.0
10
65.4935989379883
20
74.311897277832
40
0.0
41
0.0
42
0.0
10
65.8489990234375
20
73.9963989257812
40
0.0
41
0.0
42
0.0
10
65.9143981933594
20
73.9511032104492
40
0.0
41
0.0
42
0.0
10
65.9875030517578
20
73.9271011352539
40
0.0
41
0.0
42
0.0
10
66.411003112793
20
73.7363967895508
40
0.0
41
0.0
42
0.0
10
66.4465026855469
20
73.7309036254883
40
0.0
41
0.0
42
0.0
10
66.4904022216797
20
73.7310028076172
40
0.0
41
0.0
42
0.0
10
66.9466018676758
20
73.6594009399414
40
0.0
41
0.0
42
0.0
10
66.9811019897461
20
73.6593017578125
40
0.0
41
0.0
42
0.0
10
67.0149993896484
20
73.6724014282227
40
0.0
41
0.0
42
0.0
10
67.4769973754883
20
73.720703125
40
0.0
41
0.0
42
0.0
10
67.5121994018555
20
73.7391967773438
40
0.0
41
0.0
42
0.0
10
67.9440994262695
20
73.8595962524414
40
0.0
41
0.0
42
0.0
10
68.0124969482422
20
73.888801574707
40
0.0
41
0.0
42
0.0
10
68.3536987304688
20
74.0046005249023
40
0.0
41
0.0
42
0.0
10
68.5136032104492
20
74.0605010986328
40
0.0
41
0.0
42
0.0
10
68.9608993530273
20
74.1876983642578
40
0.0
41
0.0
42
0.0
10
69.4497985839844
20
74.2757034301758
40
0.0
41
0.0
42
0.0
10
69.5186004638672
20
74.2780990600586
40
0.0
41
0.0
42
0.0
10
69.931999206543
20
74.3180999755859
40
0.0
41
0.0
42
0.0
10
69.980598449707
20
74.3153991699219
40
0.0
41
0.0
42
0.0
10
70.0193023681641
20
74.315299987793
40
0.0
41
0.0
42
0.0
10
70.432502746582
20
74.3414001464844
40
0.0
41
0.0
42
0.0
10
70.4831008911133
20
74.3356018066406
40
0.0
41
0.0
42
0.0
10
70.5168991088867
20
74.3292999267578
40
0.0
41
0.0
42
0.0
10
70.5541000366211
20
74.3292007446289
40
0.0
41
0.0
42
0.0
10
71.0174026489258
20
74.3681030273438
40
0.0
41
0.0
42
0.0
10
71.4593963623047
20
74.4378967285156
40
0.0
41
0.0
42
0.0
10
71.4806976318359
20
74.4364013671875
40
0.0
41
0.0
42
0.0
10
71.5188980102539
20
74.4363021850586
40
0.0
41
0.0
42
0.0
10
71.5907974243164
20
74.4434967041016
40
0.0
41
0.0
42
0.0
10
71.7771987915039
20
74.5000991821289
40
0.0
41
0.0
42
0.0
10
72.0288009643555
20
74.5707015991211
40
0.0
41
0.0
42
0.0
10
72.0893020629883
20
74.5848007202148
40
0.0
41
0.0
42
0.0
10
72.5137023925781
20
74.72509765625
40
0.0
41
0.0
42
0.0
10
73.0146026611328
20
74.8720016479492
40
0.0
41
0.0
42
0.0
10
73.0903015136719
20
74.8899993896484
40
0.0
41
0.0
42
0.0
10
73.5158996582031
20
74.9835968017578
40
0.0
41
0.0
42
0.0
10
73.5941009521484
20
74.9974975585938
40
0.0
41
0.0
42
0.0
10
73.5940017700195
20
75.0022964477539
40
0.0
41
0.0
42
0.0
10
73.5721969604492
20
75.006103515625
40
0.0
41
0.0
42
0.0
10
73.4851989746094
20
75.0300979614258
40
0.0
41
0.0
42
0.0
10
73.0854034423828
20
75.1703033447266
40
0.0
41
0.0
42
0.0
10
72.5845031738281
20
75.5081024169922
40
0.0
41
0.0
42
0.0
10
72.5120010375977
20
75.5401000976562
40
0.0
41
0.0
42
0.0
10
72.0884017944336
20
75.7006988525391
40
0.0
41
0.0
42
0.0
10
72.0152969360352
20
75.7210006713867
40
0.0
41
0.0
42
0.0
10
71.9402008056641
20
75.7344970703125
40
0.0
41
0.0
42
0.0
10
71.5158996582031
20
75.856201171875
40
0.0
41
0.0
42
0.0
10
71.0920028686523
20
75.9544982910156
40
0.0
41
0.0
42
0.0
10
71.019401550293
20
75.9580993652344
40
0.0
41
0.0
42
0.0
10
70.9807968139648
20
75.9580001831055
40
0.0
41
0.0
42
0.0
10
70.9505996704102
20
75.9557037353516
40
0.0
41
0.0
42
0.0
10
70.7089996337891
20
75.9991989135742
40
0.0
41
0.0
42
0.0
10
70.5162963867188
20
76.0371017456055
40
0.0
41
0.0
42
0.0
10
70.0733032226562
20
76.1042022705078
40
0.0
41
0.0
42
0.0
10
70.0119018554688
20
76.1035003662109
40
0.0
41
0.0
42
0.0
10
69.5803985595703
20
76.1829986572266
40
0.0
41
0.0
42
0.0
10
69.5168991088867
20
76.1843032836914
40
0.0
41
0.0
42
0.0
10
69.0753021240234
20
76.3054962158203
40
0.0
41
0.0
42
0.0
10
69.0148010253906
20
76.3130035400391
40
0.0
41
0.0
42
0.0
10
68.6505966186523
20
76.451301574707
40
0.0
41
0.0
42
0.0
10
68.5270004272461
20
76.5005035400391
40
0.0
41
0.0
42
0.0
10
68.0095977783203
20
76.7245025634766
40
0.0
41
0.0
42
0.0
10
67.9754028320312
20
76.7484970092773
40
0.0
41
0.0
42
0.0
10
67.5152969360352
20
76.8998031616211
40
0.0
41
0.0
42
0.0
10
67.0522994995117
20
76.9583969116211
40
0.0
41
0.0
42
0.0
10
67.0131988525391
20
76.9857025146484
40
0.0
41
0.0
42
0.0
10
66.7434005737305
20
76.988899230957
40
0.0
41
0.0
42
0.0
10
66.3579025268555
20
76.929801940918
40
0.0
41
0.0
42
0.0
10
65.9898986816406
20
76.7671966552734
40
0.0
41
0.0
42
0.0
10
65.6877975463867
20
76.5751037597656
40
0.0
41
0.0
42
0.0
10
65.5832977294922
20
76.5036010742188
40
0.0
41
0.0
42
0.0
10
65.4953002929688
20
76.4176025390625
40
0.0
41
0.0
42
0.0
10
65.1433029174805
20
76.0093002319336
40
0.0
41
0.0
42
0.0
10
65.0009994506836
20
75.6009979248047
40
0.0
41
0.0
42
0.0
10
65.0009002685547
20
75.2710037231445
40
0.0
41
0.0
42
0.0
10
65.0201034545898
20
75.1100006103516
40
0.0
41
0.0
42
0.0
10
65.0307998657227
20
74.9865036010742
40
0.0
41
0.0
42
0.0
10
65.0916976928711
20
74.8842010498047
40
0.0
41
0.0
42
0.0
10
65.3012008666992
20
74.492301940918
40
0.0
41
0.0
42
0.0
210
0.0
220
0.0
230
1.0
0
LWPOLYLINE
5
24
330
1C
100
AcDbEntity
67
0
8
0
62
256
6
ByLayer
370
-1
48
1.0
60
0
100
AcDbPolyline
90
30
70
1
38
0.0
39
0.0
10
65.0148010253906
20
83.0039978027344
40
0.0
41
0.0
42
0.0
10
65.475700378418
20
83.2437973022461
40
0.0
41
0.0
42
0.0
10
65.5197982788086
20
83.2640991210938
40
0.0
41
0.0
42
0.0
10
65.9439010620117
20
83.4981002807617
40
0.0
41
0.0
42
0.0
10
65.9841995239258
20
83.5231018066406
40
0.0
41
0.0
42
0.0
10
66.0094985961914
20
83.5351028442383
40
0.0
41
0.0
42
0.0
10
66.4738998413086
20
83.8478012084961
40
0.0
41
0.0
42
0.0
10
66.513801574707
20
83.870002746582
40
0.0
41
0.0
42
0.0
10
66.6583023071289
20
83.9952011108398
40
0.0
41
0.0
42
0.0
10
66.9709014892578
20
84.323600769043
40
0.0
41
0.0
42
0.0
10
67.0046005249023
20
84.3515014648438
40
0.0
41
0.0
42
0.0
10
67.1094970703125
20
84.4922027587891
40
0.0
41
0.0
42
0.0
10
67.4478988647461
20
84.9863967895508
40
0.0
41
0.0
42
0.0
10
67.4478988647461
20
84.9990005493164
40
0.0
41
0.0
42
0.0
10
67.4384002685547
20
84.9990005493164
40
0.0
41
0.0
42
0.0
10
67.1023025512695
20
84.5077972412109
40
0.0
41
0.0
42
0.0
10
66.9953994750977
20
84.3638000488281
40
0.0
41
0.0
42
0.0
10
66.9322967529297
20
84.3100967407227
40
0.0
41
0.0
42
0.0
10
66.6416015625
20
84.0046997070312
40
0.0
41
0.0
42
0.0
10
66.505500793457
20
83.8870010375977
40
0.0
41
0.0
42
0.0
10
66.4906997680664
20
83.8772964477539
40
0.0
41
0.0
42
0.0
10
66.415901184082
20
83.8365020751953
40
0.0
41
0.0
42
0.0
10
65.9904022216797
20
83.5500030517578
40
0.0
41
0.0
42
0.0
10
65.9349975585938
20
83.5241012573242
40
0.0
41
0.0
42
0.0
10
65.899299621582
20
83.5018005371094
40
0.0
41
0.0
42
0.0
10
65.5093994140625
20
83.2867965698242
40
0.0
41
0.0
42
0.0
10
65.4141998291016
20
83.2428970336914
40
0.0
41
0.0
42
0.0
10
65.0009994506836
20
83.0279998779297
40
0.0
41
0.0
42
0.0
10
65.0009994506836
20
83.0040969848633
40
0.0
41
0.0
42
0.0
10
65.0148010253906
20
83.0039978027344
40
0.0
41
0.0
42
0.0
210
0.0
220
0.0
230
1.0
0
LWPOLYLINE
5
25
330
1C
100
AcDbEntity
67
0
8
0
62
256
6
ByLayer
370
-1
48
1.0
60
0
100
AcDbPolyline
90
79
70
1
38
0.0
39
0.0
10
65.0482025146484
20
75.3441009521484
40
0.0
41
0.0
42
0.0
10
65.0306015014648
20
75.4922027587891
40
0.0
41
0.0
42
0.0
10
65.0996017456055
20
75.6762008666992
40
0.0
41
0.0
42
0.0
10
65.2091979980469
20
75.9906005859375
40
0.0
41
0.0
42
0.0
10
65.5046005249023
20
76.3339996337891
40
0.0
41
0.0
42
0.0
10
65.6707992553711
20
76.4962997436523
40
0.0
41
0.0
42
0.0
10
65.86669921875
20
76.6302032470703
40
0.0
41
0.0
42
0.0
10
66.0100021362305
20
76.7212982177734
40
0.0
41
0.0
42
0.0
10
66.4542007446289
20
76.9176025390625
40
0.0
41
0.0
42
0.0
10
66.9039001464844
20
76.9856033325195
40
0.0
41
0.0
42
0.0
10
66.986701965332
20
76.9843978881836
40
0.0
41
0.0
42
0.0
10
67.0244979858398
20
76.9580001831055
40
0.0
41
0.0
42
0.0
10
67.0621032714844
20
76.934700012207
40
0.0
41
0.0
42
0.0
10
67.4845962524414
20
76.8812026977539
40
0.0
41
0.0
42
0.0
10
67.9143981933594
20
76.7397994995117
40
0.0
41
0.0
42
0.0
10
67.9901962280273
20
76.6865005493164
40
0.0
41
0.0
42
0.0
10
68.4219970703125
20
76.4987030029297
40
0.0
41
0.0
42
0.0
10
68.4880981445312
20
76.4613037109375
40
0.0
41
0.0
42
0.0
10
68.5399017333984
20
76.4465026855469
40
0.0
41
0.0
42
0.0
10
68.6707000732422
20
76.3945999145508
40
0.0
41
0.0
42
0.0
10
68.9850006103516
20
76.2751998901367
40
0.0
41
0.0
42
0.0
10
69.1116027832031
20
76.2593994140625
40
0.0
41
0.0
42
0.0
10
69.4830017089844
20
76.1574020385742
40
0.0
41
0.0
42
0.0
10
69.6164016723633
20
76.1547012329102
40
0.0
41
0.0
42
0.0
10
69.9815979003906
20
76.08740234375
40
0.0
41
0.0
42
0.0
10
70.1061019897461
20
76.090202331543
40
0.0
41
0.0
42
0.0
10
70.4834976196289
20
76.0330963134766
40
0.0
41
0.0
42
0.0
10
70.6490020751953
20
76.000602722168
40
0.0
41
0.0
42
0.0
10
70.9073028564453
20
75.9531021118164
40
0.0
41
0.0
42
0.0
10
70.945198059082
20
75.9514007568359
40
0.0
41
0.0
42
0.0
10
71.0170974731445
20
75.9529037475586
40
0.0
41
0.0
42
0.0
10
71.4851989746094
20
75.8442993164062
40
0.0
41
0.0
42
0.0
10
71.9496994018555
20
75.7110977172852
40
0.0
41
0.0
42
0.0
10
71.9845962524414
20
75.7048034667969
40
0.0
41
0.0
42
0.0
10
72.0214996337891
20
75.6947021484375
40
0.0
41
0.0
42
0.0
10
72.4877014160156
20
75.5178985595703
40
0.0
41
0.0
42
0.0
10
72.52490234375
20
75.5015029907227
40
0.0
41
0.0
42
0.0
10
73.0243988037109
20
75.1651000976562
40
0.0
41
0.0
42
0.0
10
73.4658966064453
20
75.0102996826172
40
0.0
41
0.0
42
0.0
10
73.4646987915039
20
74.9906997680664
40
0.0
41
0.0
42
0.0
10
73.0198974609375
20
74.8927001953125
40
0.0
41
0.0
42
0.0
10
72.9505996704102
20
74.8747024536133
40
0.0
41
0.0
42
0.0
10
72.486198425293
20
74.7376022338867
40
0.0
41
0.0
42
0.0
10
72.0206985473633
20
74.5838012695312
40
0.0
41
0.0
42
0.0
10
71.9927978515625
20
74.5772018432617
40
0.0
41
0.0
42
0.0
10
71.7151031494141
20
74.4997024536133
40
0.0
41
0.0
42
0.0
10
71.5190963745117
20
74.4409027099609
40
0.0
41
0.0
42
0.0
10
71.4982986450195
20
74.4386978149414
40
0.0
41
0.0
42
0.0
10
71.4065017700195
20
74.4400024414062
40
0.0
41
0.0
42
0.0
10
70.9824981689453
20
74.3730010986328
40
0.0
41
0.0
42
0.0
10
70.5815963745117
20
74.3394012451172
40
0.0
41
0.0
42
0.0
10
70.5167999267578
20
74.3516006469727
40
0.0
41
0.0
42
0.0
10
70.385498046875
20
74.3666000366211
40
0.0
41
0.0
42
0.0
10
70.347297668457
20
74.3665008544922
40
0.0
41
0.0
42
0.0
10
69.999397277832
20
74.344596862793
40
0.0
41
0.0
42
0.0
10
69.8643035888672
20
74.3526992797852
40
0.0
41
0.0
42
0.0
10
69.8259963989258
20
74.3526000976562
40
0.0
41
0.0
42
0.0
10
69.4813003540039
20
74.3192977905273
40
0.0
41
0.0
42
0.0
10
69.3368988037109
20
74.3142013549805
40
0.0
41
0.0
42
0.0
10
68.8683013916016
20
74.2303009033203
40
0.0
41
0.0
42
0.0
10
68.4862976074219
20
74.1215972900391
40
0.0
41
0.0
42
0.0
10
68.1452026367188
20
74.0022964477539
40
0.0
41
0.0
42
0.0
10
67.9875030517578
20
73.9487991333008
40
0.0
41
0.0
42
0.0
10
67.8393020629883
20
73.8853988647461
40
0.0
41
0.0
42
0.0
10
67.4878005981445
20
73.7874984741211
40
0.0
41
0.0
42
0.0
10
67.4074020385742
20
73.7451019287109
40
0.0
41
0.0
42
0.0
10
66.9849014282227
20
73.7009963989258
40
0.0
41
0.0
42
0.0
10
66.9188003540039
20
73.6753997802734
40
0.0
41
0.0
42
0.0
10
66.5184020996094
20
73.7385025024414
40
0.0
41
0.0
42
0.0
10
66.4608001708984
20
73.7377014160156
40
0.0
41
0.0
42
0.0
10
66.0122985839844
20
73.9395980834961
40
0.0
41
0.0
42
0.0
10
65.9755020141602
20
73.9516983032227
40
0.0
41
0.0
42
0.0
10
65.9040985107422
20
74.0009002685547
40
0.0
41
0.0
42
0.0
10
65.5062026977539
20
74.3536987304688
40
0.0
41
0.0
42
0.0
10
65.4559020996094
20
74.3955993652344
40
0.0
41
0.0
42
0.0
10
65.3504028320312
20
74.5074996948242
40
0.0
41
0.0
42
0.0
10
65.1085968017578
20
74.9599990844727
40
0.0
41
0.0
42
0.0
10
65.0768966674805
20
75.013298034668
40
0.0
41
0.0
42
0.0
10
65.0482025146484
20
75.3441009521484
40
0.0
41
0.0
42
0.0
210
0.0
220
0.0
230
1.0
0
LWPOLYLINE
5
26
330
1C
100
AcDbEntity
67
0
8
0
62
256
6
ByLayer
370
-1
48
1.0
60
0
100
AcDbPolyline
90
101
70
1
38
0.0
39
0.0
10
67.4951019287109
20
68.3602981567383
40
0.0
41
0.0
42
0.0
10
67.8569030761719
20
67.9972991943359
40
0.0
41
0.0
42
0.0
10
67.9851989746094
20
67.9352035522461
40
0.0
41
0.0
42
0.0
10
68.0515975952148
20
67.9324035644531
40
0.0
41
0.0
42
0.0
10
68.113899230957
20
67.9150009155273
40
0.0
41
0.0
42
0.0
10
68.4831008911133
20
67.8012008666992
40
0.0
41
0.0
42
0.0
10
68.5178985595703
20
67.8013000488281
40
0.0
41
0.0
42
0.0
10
68.5866012573242
20
67.814697265625
40
0.0
41
0.0
42
0.0
10
68.9804000854492
20
67.7979965209961
40
0.0
41
0.0
42
0.0
10
69.0180969238281
20
67.7978973388672
40
0.0
41
0.0
42
0.0
10
69.438102722168
20
67.8709030151367
40
0.0
41
0.0
42
0.0
10
69.5074996948242
20
67.907600402832
40
0.0
41
0.0
42
0.0
10
69.5370025634766
20
67.9360961914062
40
0.0
41
0.0
42
0.0
10
69.692497253418
20
67.9969024658203
40
0.0
41
0.0
42
0.0
10
69.7126007080078
20
68.0310974121094
40
0.0
41
0.0
42
0.0
10
70.0068969726562
20
68.1782989501953
40
0.0
41
0.0
42
0.0
10
70.372200012207
20
68.4918975830078
40
0.0
41
0.0
42
0.0
10
70.3823013305664
20
68.5251998901367
40
0.0
41
0.0
42
0.0
10
70.4766006469727
20
68.6371002197266
40
0.0
41
0.0
42
0.0
10
70.5018005371094
20
68.6828994750977
40
0.0
41
0.0
42
0.0
10
70.696403503418
20
68.9905014038086
40
0.0
41
0.0
42
0.0
10
70.9040985107422
20
69.3871994018555
40
0.0
41
0.0
42
0.0
10
70.9505004882812
20
69.4889984130859
40
0.0
41
0.0
42
0.0
10
71.0011978149414
20
69.590202331543
40
0.0
41
0.0
42
0.0
10
71.2107009887695
20
69.9906997680664
40
0.0
41
0.0
42
0.0
10
71.3974990844727
20
70.2668991088867
40
0.0
41
0.0
42
0.0
10
71.5025024414062
20
70.4156036376953
40
0.0
41
0.0
42
0.0
10
71.5516967773438
20
70.492301940918
40
0.0
41
0.0
42
0.0
10
71.7544021606445
20
70.7408981323242
40
0.0
41
0.0
42
0.0
10
71.9672012329102
20
70.9959030151367
40
0.0
41
0.0
42
0.0
10
72.0080032348633
20
71.021598815918
40
0.0
41
0.0
42
0.0
10
72.0190963745117
20
71.0301971435547
40
0.0
41
0.0
42
0.0
10
72.4085006713867
20
71.4940032958984
40
0.0
41
0.0
42
0.0
10
72.4811019897461
20
71.5692977905273
40
0.0
41
0.0
42
0.0
10
72.5072021484375
20
71.5863037109375
40
0.0
41
0.0
42
0.0
10
72.5252990722656
20
71.6022033691406
40
0.0
41
0.0
42
0.0
10
72.8087005615234
20
71.9924011230469
40
0.0
41
0.0
42
0.0
10
72.975700378418
20
72.214599609375
40
0.0
41
0.0
42
0.0
10
73.0045013427734
20
72.2408981323242
40
0.0
41
0.0
42
0.0
10
73.0406036376953
20
72.286003112793
40
0.0
41
0.0
42
0.0
10
73.1568984985352
20
72.4899978637695
40
0.0
41
0.0
42
0.0
10
73.3757019042969
20
72.9156036376953
40
0.0
41
0.0
42
0.0
10
73.4259033203125
20
72.9913024902344
40
0.0
41
0.0
42
0.0
10
73.5128021240234
20
73.13330078125
40
0.0
41
0.0
42
0.0
10
73.6276016235352
20
73.413200378418
40
0.0
41
0.0
42
0.0
10
73.6595001220703
20
73.4843978881836
40
0.0
41
0.0
42
0.0
10
73.6594009399414
20
73.5142974853516
40
0.0
41
0.0
42
0.0
10
73.5539016723633
20
73.6952972412109
40
0.0
41
0.0
42
0.0
10
73.9994964599609
20
73.9893035888672
40
0.0
41
0.0
42
0.0
10
73.9992980957031
20
73.999397277832
40
0.0
41
0.0
42
0.0
10
73.9785995483398
20
73.9990005493164
40
0.0
41
0.0
42
0.0
10
73.4907989501953
20
73.8003005981445
40
0.0
41
0.0
42
0.0
10
73.4598007202148
20
73.77490234375
40
0.0
41
0.0
42
0.0
10
73.4121017456055
20
73.7507019042969
40
0.0
41
0.0
42
0.0
10
72.9858016967773
20
73.655403137207
40
0.0
41
0.0
42
0.0
10
72.9128036499023
20
73.6295013427734
40
0.0
41
0.0
42
0.0
10
72.7872009277344
20
73.5728988647461
40
0.0
41
0.0
42
0.0
10
72.6031036376953
20
73.5009002685547
40
0.0
41
0.0
42
0.0
10
72.4906997680664
20
73.4363021850586
40
0.0
41
0.0
42
0.0
10
72.4473037719727
20
73.4093017578125
40
0.0
41
0.0
42
0.0
10
72.4156036376953
20
73.3870010375977
40
0.0
41
0.0
42
0.0
10
71.9912033081055
20
73.1862030029297
40
0.0
41
0.0
42
0.0
10
71.926399230957
20
73.13330078125
40
0.0
41
0.0
42
0.0
10
71.6948013305664
20
73.002197265625
40
0.0
41
0.0
42
0.0
10
71.5037994384766
20
72.8638000488281
40
0.0
41
0.0
42
0.0
10
71.4508972167969
20
72.8041000366211
40
0.0
41
0.0
42
0.0
10
71.0114974975586
20
72.5034027099609
40
0.0
41
0.0
42
0.0
10
71.0046997070312
20
72.4972991943359
40
0.0
41
0.0
42
0.0
10
70.9956970214844
20
72.4825973510742
40
0.0
41
0.0
42
0.0
10
70.530403137207
20
72.1430969238281
40
0.0
41
0.0
42
0.0
10
70.5130004882812
20
72.121696472168
40
0.0
41
0.0
42
0.0
10
70.4922027587891
20
72.1044006347656
40
0.0
41
0.0
42
0.0
10
70.3234024047852
20
72.0034027099609
40
0.0
41
0.0
42
0.0
10
70.2894973754883
20
71.9682006835938
40
0.0
41
0.0
42
0.0
10
70.2481994628906
20
71.9447021484375
40
0.0
41
0.0
42
0.0
10
69.9903030395508
20
71.7758026123047
40
0.0
41
0.0
42
0.0
10
69.4884033203125
20
71.5376968383789
40
0.0
41
0.0
42
0.0
10
69.3079986572266
20
71.4646987915039
40
0.0
41
0.0
42
0.0
10
69.2810974121094
20
71.459098815918
40
0.0
41
0.0
42
0.0
10
68.5270004272461
20
71.127799987793
40
0.0
41
0.0
42
0.0
10
68.4877014160156
20
71.1195983886719
40
0.0
41
0.0
42
0.0
10
68.2927017211914
20
71.0026016235352
40
0.0
41
0.0
42
0.0
10
68.0632019042969
20
70.822998046875
40
0.0
41
0.0
42
0.0
10
68.0229034423828
20
70.7959976196289
40
0.0
41
0.0
42
0.0
10
67.9853973388672
20
70.7895965576172
40
0.0
41
0.0
42
0.0
10
67.9169998168945
20
70.7642974853516
40
0.0
41
0.0
42
0.0
10
67.8898010253906
20
70.7349014282227
40
0.0
41
0.0
42
0.0
10
67.6947021484375
20
70.5080032348633
40
0.0
41
0.0
42
0.0
10
67.4977035522461
20
70.1371002197266
40
0.0
41
0.0
42
0.0
10
67.4766006469727
20
70.1088027954102
40
0.0
41
0.0
42
0.0
10
67.4660034179688
20
70.0836029052734
40
0.0
41
0.0
42
0.0
10
67.4122009277344
20
70.0241012573242
40
0.0
41
0.0
42
0.0
10
67.4063034057617
20
70.0122985839844
40
0.0
41
0.0
42
0.0
10
67.3735961914062
20
69.8973007202148
40
0.0
41
0.0
42
0.0
10
67.2910003662109
20
69.5168991088867
40
0.0
41
0.0
42
0.0
10
67.280403137207
20
69.3871994018555
40
0.0
41
0.0
42
0.0
10
67.2809982299805
20
68.9829025268555
40
0.0
41
0.0
42
0.0
10
67.3929977416992
20
68.5916976928711
40
0.0
41
0.0
42
0.0
10
67.4092025756836
20
68.4857025146484
40
0.0
41
0.0
42
0.0
10
67.4339981079102
20
68.4275970458984
40
0.0
41
0.0
42
0.0
10
67.4951019287109
20
68.3602981567383
40
0.0
41
0.0
42
0.0
210
0.0
220
0.0
230
1.0
0
LWPOLYLINE
5
27
330
1C
100
AcDbEntity
67
0
8
0
62
256
6
ByLayer
370
-1
48
1.0
60
0
100
AcDbPolyline
90
93
70
1
38
0.0
39
0.0
10
67.4720001220703
20
68.5139999389648
40
0.0
41
0.0
42
0.0
10
67.4661026000977
20
68.5505981445312
40
0.0
41
0.0
42
0.0
10
67.3327026367188
20
69.0169982910156
40
0.0
41
0.0
42
0.0
10
67.331901550293
20
69.4203033447266
40
0.0
41
0.0
42
0.0
10
67.3370971679688
20
69.4831008911133
40
0.0
41
0.0
42
0.0
10
67.4339981079102
20
69.9301986694336
40
0.0
41
0.0
42
0.0
10
67.4504013061523
20
69.9876022338867
40
0.0
41
0.0
42
0.0
10
67.4563980102539
20
69.999397277832
40
0.0
41
0.0
42
0.0
10
67.4806976318359
20
70.0262985229492
40
0.0
41
0.0
42
0.0
10
67.4914016723633
20
70.0521011352539
40
0.0
41
0.0
42
0.0
10
67.5020980834961
20
70.0665969848633
40
0.0
41
0.0
42
0.0
10
67.7279968261719
20
70.4918975830078
40
0.0
41
0.0
42
0.0
10
67.9720993041992
20
70.7744979858398
40
0.0
41
0.0
42
0.0
10
68.0146026611328
20
70.7899017333984
40
0.0
41
0.0
42
0.0
10
68.0869979858398
20
70.8022994995117
40
0.0
41
0.0
42
0.0
10
68.1595001220703
20
70.8509979248047
40
0.0
41
0.0
42
0.0
10
68.3462982177734
20
70.9972991943359
40
0.0
41
0.0
42
0.0
10
68.5121994018555
20
71.0967025756836
40
0.0
41
0.0
42
0.0
10
68.6005020141602
20
71.1151962280273
40
0.0
41
0.0
42
0.0
10
69.2783966064453
20
71.4129028320312
40
0.0
41
0.0
42
0.0
10
69.3369979858398
20
71.4251022338867
40
0.0
41
0.0
42
0.0
10
69.5115966796875
20
71.4965972900391
40
0.0
41
0.0
42
0.0
10
69.6337966918945
20
71.5528030395508
40
0.0
41
0.0
42
0.0
10
70.0096969604492
20
71.7319030761719
40
0.0
41
0.0
42
0.0
10
70.2283020019531
20
71.875
40
0.0
41
0.0
42
0.0
10
70.3100967407227
20
71.9216995239258
40
0.0
41
0.0
42
0.0
10
70.3824005126953
20
71.9964981079102
40
0.0
41
0.0
42
0.0
10
70.5077972412109
20
72.0717010498047
40
0.0
41
0.0
42
0.0
10
70.5434036254883
20
72.1013031005859
40
0.0
41
0.0
42
0.0
10
70.5802993774414
20
72.1473007202148
40
0.0
41
0.0
42
0.0
10
71.0042037963867
20
72.4567031860352
40
0.0
41
0.0
42
0.0
10
71.0216979980469
20
72.4850997924805
40
0.0
41
0.0
42
0.0
10
71.0342025756836
20
72.4964981079102
40
0.0
41
0.0
42
0.0
10
71.4499969482422
20
72.7809982299805
40
0.0
41
0.0
42
0.0
10
71.4785003662109
20
72.8061981201172
40
0.0
41
0.0
42
0.0
10
71.5101013183594
20
72.8419036865234
40
0.0
41
0.0
42
0.0
10
71.72509765625
20
72.9975967407227
40
0.0
41
0.0
42
0.0
10
71.9775009155273
20
73.1404037475586
40
0.0
41
0.0
42
0.0
10
72.0086975097656
20
73.1658020019531
40
0.0
41
0.0
42
0.0
10
72.4746017456055
20
73.3862991333008
40
0.0
41
0.0
42
0.0
10
72.508903503418
20
73.4088973999023
40
0.0
41
0.0
42
0.0
10
72.6658020019531
20
73.4989013671875
40
0.0
41
0.0
42
0.0
10
72.9179992675781
20
73.5975036621094
40
0.0
41
0.0
42
0.0
10
72.9770965576172
20
73.6240997314453
40
0.0
41
0.0
42
0.0
10
73.0141983032227
20
73.6371994018555
40
0.0
41
0.0
42
0.0
10
73.4777984619141
20
73.7409973144531
40
0.0
41
0.0
42
0.0
10
73.522102355957
20
73.7634963989258
40
0.0
41
0.0
42
0.0
10
73.5220031738281
20
73.7018966674805
40
0.0
41
0.0
42
0.0
10
73.6404037475586
20
73.4990005493164
40
0.0
41
0.0
42
0.0
10
73.5040969848633
20
73.1677017211914
40
0.0
41
0.0
42
0.0
10
73.4061965942383
20
73.0085983276367
40
0.0
41
0.0
42
0.0
10
73.3833999633789
20
72.9742965698242
40
0.0
41
0.0
42
0.0
10
73.1445007324219
20
72.5100021362305
40
0.0
41
0.0
42
0.0
10
73.0151977539062
20
72.2828979492188
40
0.0
41
0.0
42
0.0
10
72.9953002929688
20
72.2580032348633
40
0.0
41
0.0
42
0.0
10
72.9814987182617
20
72.2454986572266
40
0.0
41
0.0
42
0.0
10
72.802001953125
20
72.0074996948242
40
0.0
41
0.0
42
0.0
10
72.5407028198242
20
71.6474990844727
40
0.0
41
0.0
42
0.0
10
72.4926986694336
20
71.6050033569336
40
0.0
41
0.0
42
0.0
10
72.4389038085938
20
71.5703964233398
40
0.0
41
0.0
42
0.0
10
72.3768997192383
20
71.5058975219727
40
0.0
41
0.0
42
0.0
10
72.0188980102539
20
71.0794982910156
40
0.0
41
0.0
42
0.0
10
71.9917984008789
20
71.0595016479492
40
0.0
41
0.0
42
0.0
10
71.9038009643555
20
71.0039978027344
40
0.0
41
0.0
42
0.0
10
71.495002746582
20
70.5126037597656
40
0.0
41
0.0
42
0.0
10
71.4870986938477
20
70.5057983398438
40
0.0
41
0.0
42
0.0
10
71.2717971801758
20
70.1994018554688
40
0.0
41
0.0
42
0.0
10
71.1432037353516
20
70.0092010498047
40
0.0
41
0.0
42
0.0
10
70.9985961914062
20
69.7324981689453
40
0.0
41
0.0
42
0.0
10
70.8873977661133
20
69.5109024047852
40
0.0
41
0.0
42
0.0
10
70.7911987304688
20
69.2994003295898
40
0.0
41
0.0
42
0.0
10
70.6393966674805
20
69.0093994140625
40
0.0
41
0.0
42
0.0
10
70.4981002807617
20
68.7861022949219
40
0.0
41
0.0
42
0.0
10
70.4419021606445
20
68.6837005615234
40
0.0
41
0.0
42
0.0
10
70.3582992553711
20
68.5848007202148
40
0.0
41
0.0
42
0.0
10
70.3351974487305
20
68.5080032348633
40
0.0
41
0.0
42
0.0
10
69.9889984130859
20
68.2104034423828
40
0.0
41
0.0
42
0.0
10
69.7256011962891
20
68.0789031982422
40
0.0
41
0.0
42
0.0
10
69.6810989379883
20
68.0029983520508
40
0.0
41
0.0
42
0.0
10
69.5056991577148
20
67.9346008300781
40
0.0
41
0.0
42
0.0
10
69.4922027587891
20
67.9220962524414
40
0.0
41
0.0
42
0.0
10
69.4517974853516
20
67.9007034301758
40
0.0
41
0.0
42
0.0
10
68.9891967773438
20
67.8202972412109
40
0.0
41
0.0
42
0.0
10
68.5544967651367
20
67.8391036987305
40
0.0
41
0.0
42
0.0
10
68.5171966552734
20
67.838996887207
40
0.0
41
0.0
42
0.0
10
68.5036010742188
20
67.8360977172852
40
0.0
41
0.0
42
0.0
10
68.1016006469727
20
67.9599990844727
40
0.0
41
0.0
42
0.0
10
68.0380020141602
20
67.9776992797852
40
0.0
41
0.0
42
0.0
10
68.0147018432617
20
67.9786987304688
40
0.0
41
0.0
42
0.0
10
67.9654006958008
20
68.0025024414062
40
0.0
41
0.0
42
0.0
10
67.5046997070312
20
68.4648971557617
40
0.0
41
0.0
42
0.0
10
67.4825973510742
20
68.4890975952148
40
0.0
41
0.0
42
0.0
10
67.4720001220703
20
68.5139999389648
40
0.0
41
0.0
42
0.0
210
0.0
220
0.0
230
1.0
0
LWPOLYLINE
5
28
330
1C
100
AcDbEntity
67
0
8
0
62
256
6
ByLayer
370
-1
48
1.0
60
0
100
AcDbPolyline
90
100
70
1
38
0.0
39
0.0
10
67.814697265625
20
81.4133987426758
40
0.0
41
0.0
42
0.0
10
67.7979965209961
20
81.0195007324219
40
0.0
41
0.0
42
0.0
10
67.7977981567383
20
80.9817962646484
40
0.0
41
0.0
42
0.0
10
67.8707962036133
20
80.5617980957031
40
0.0
41
0.0
42
0.0
10
67.907600402832
20
80.4924011230469
40
0.0
41
0.0
42
0.0
10
67.9360961914062
20
80.4627990722656
40
0.0
41
0.0
42
0.0
10
67.9968032836914
20
80.3072967529297
40
0.0
41
0.0
42
0.0
10
68.0310974121094
20
80.2871017456055
40
0.0
41
0.0
42
0.0
10
68.1781997680664
20
79.9927978515625
40
0.0
41
0.0
42
0.0
10
68.4917984008789
20
79.6275024414062
40
0.0
41
0.0
42
0.0
10
68.5251007080078
20
79.6174011230469
40
0.0
41
0.0
42
0.0
10
68.6370010375977
20
79.5231018066406
40
0.0
41
0.0
42
0.0
10
68.6828994750977
20
79.4980010986328
40
0.0
41
0.0
42
0.0
10
68.9904022216797
20
79.3032989501953
40
0.0
41
0.0
42
0.0
10
69.3871994018555
20
79.0955963134766
40
0.0
41
0.0
42
0.0
10
69.4878997802734
20
79.0496978759766
40
0.0
41
0.0
42
0.0
10
69.5255966186523
20
79.0356979370117
40
0.0
41
0.0
42
0.0
10
69.5906982421875
20
78.9982986450195
40
0.0
41
0.0
42
0.0
10
69.9906997680664
20
78.7890014648438
40
0.0
41
0.0
42
0.0
10
70.2668991088867
20
78.6023025512695
40
0.0
41
0.0
42
0.0
10
70.4154968261719
20
78.4972991943359
40
0.0
41
0.0
42
0.0
10
70.4922027587891
20
78.447998046875
40
0.0
41
0.0
42
0.0
10
70.7408981323242
20
78.2453002929688
40
0.0
41
0.0
42
0.0
10
70.9959030151367
20
78.032600402832
40
0.0
41
0.0
42
0.0
10
71.0214996337891
20
77.9918975830078
40
0.0
41
0.0
42
0.0
10
71.0301971435547
20
77.980598449707
40
0.0
41
0.0
42
0.0
10
71.4940032958984
20
77.5912017822266
40
0.0
41
0.0
42
0.0
10
71.5692977905273
20
77.5186996459961
40
0.0
41
0.0
42
0.0
10
71.5861968994141
20
77.4925994873047
40
0.0
41
0.0
42
0.0
10
71.6022033691406
20
77.4744033813477
40
0.0
41
0.0
42
0.0
10
71.9924011230469
20
77.1911010742188
40
0.0
41
0.0
42
0.0
10
72.2144012451172
20
77.0240020751953
40
0.0
41
0.0
42
0.0
10
72.2407989501953
20
76.9953002929688
40
0.0
41
0.0
42
0.0
10
72.2858963012695
20
76.959098815918
40
0.0
41
0.0
42
0.0
10
72.4898986816406
20
76.842903137207
40
0.0
41
0.0
42
0.0
10
72.9154968261719
20
76.6239013671875
40
0.0
41
0.0
42
0.0
10
72.9912033081055
20
76.5738983154297
40
0.0
41
0.0
42
0.0
10
73.13330078125
20
76.4869003295898
40
0.0
41
0.0
42
0.0
10
73.413200378418
20
76.3721008300781
40
0.0
41
0.0
42
0.0
10
73.4843978881836
20
76.3404006958008
40
0.0
41
0.0
42
0.0
10
73.5142974853516
20
76.3403015136719
40
0.0
41
0.0
42
0.0
10
73.6952972412109
20
76.44580078125
40
0.0
41
0.0
42
0.0
10
73.9893035888672
20
76.0001983642578
40
0.0
41
0.0
42
0.0
10
73.999397277832
20
76.0005035400391
40
0.0
41
0.0
42
0.0
10
73.9990005493164
20
76.0212020874023
40
0.0
41
0.0
42
0.0
10
73.8002014160156
20
76.5090026855469
40
0.0
41
0.0
42
0.0
10
73.77490234375
20
76.5400009155273
40
0.0
41
0.0
42
0.0
10
73.7507019042969
20
76.5877990722656
40
0.0
41
0.0
42
0.0
10
73.655403137207
20
77.0140991210938
40
0.0
41
0.0
42
0.0
10
73.6295013427734
20
77.0870971679688
40
0.0
41
0.0
42
0.0
10
73.5727996826172
20
77.2126007080078
40
0.0
41
0.0
42
0.0
10
73.5009002685547
20
77.3966979980469
40
0.0
41
0.0
42
0.0
10
73.4363021850586
20
77.5091018676758
40
0.0
41
0.0
42
0.0
10
73.4093017578125
20
77.5524978637695
40
0.0
41
0.0
42
0.0
10
73.3869018554688
20
77.5842971801758
40
0.0
41
0.0
42
0.0
10
73.1860961914062
20
78.0085983276367
40
0.0
41
0.0
42
0.0
10
73.13330078125
20
78.0734024047852
40
0.0
41
0.0
42
0.0
10
73.002197265625
20
78.3050003051758
40
0.0
41
0.0
42
0.0
10
72.8637008666992
20
78.4961013793945
40
0.0
41
0.0
42
0.0
10
72.8040008544922
20
78.5488967895508
40
0.0
41
0.0
42
0.0
10
72.5034027099609
20
78.9882965087891
40
0.0
41
0.0
42
0.0
10
72.497200012207
20
78.9951019287109
40
0.0
41
0.0
42
0.0
10
72.4824981689453
20
79.0042037963867
40
0.0
41
0.0
42
0.0
10
72.1424026489258
20
79.4701995849609
40
0.0
41
0.0
42
0.0
10
72.121696472168
20
79.4868011474609
40
0.0
41
0.0
42
0.0
10
72.1043014526367
20
79.507698059082
40
0.0
41
0.0
42
0.0
10
72.0025024414062
20
79.6775970458984
40
0.0
41
0.0
42
0.0
10
71.9455032348633
20
79.7501983642578
40
0.0
41
0.0
42
0.0
10
71.7757034301758
20
80.0095977783203
40
0.0
41
0.0
42
0.0
10
71.53759765625
20
80.5114974975586
40
0.0
41
0.0
42
0.0
10
71.5002975463867
20
80.6054000854492
40
0.0
41
0.0
42
0.0
10
71.4597015380859
20
80.7173004150391
40
0.0
41
0.0
42
0.0
10
71.127799987793
20
81.4728012084961
40
0.0
41
0.0
42
0.0
10
71.1195983886719
20
81.5121994018555
40
0.0
41
0.0
42
0.0
10
71.0025024414062
20
81.7070999145508
40
0.0
41
0.0
42
0.0
10
70.822998046875
20
81.9365997314453
40
0.0
41
0.0
42
0.0
10
70.7959976196289
20
81.9769973754883
40
0.0
41
0.0
42
0.0
10
70.7895965576172
20
82.0145034790039
40
0.0
41
0.0
42
0.0
10
70.7641983032227
20
82.0829010009766
40
0.0
41
0.0
42
0.0
10
70.7349014282227
20
82.1099014282227
40
0.0
41
0.0
42
0.0
10
70.5080032348633
20
82.3050003051758
40
0.0
41
0.0
42
0.0
10
70.1370010375977
20
82.5020980834961
40
0.0
41
0.0
42
0.0
10
70.1088027954102
20
82.5232009887695
40
0.0
41
0.0
42
0.0
10
70.0835037231445
20
82.5336990356445
40
0.0
41
0.0
42
0.0
10
70.0240020751953
20
82.5875015258789
40
0.0
41
0.0
42
0.0
10
70.0122985839844
20
82.5933990478516
40
0.0
41
0.0
42
0.0
10
69.8972015380859
20
82.6260986328125
40
0.0
41
0.0
42
0.0
10
69.5167999267578
20
82.7087020874023
40
0.0
41
0.0
42
0.0
10
69.3871994018555
20
82.7192993164062
40
0.0
41
0.0
42
0.0
10
68.9829025268555
20
82.7186965942383
40
0.0
41
0.0
42
0.0
10
68.5916976928711
20
82.6066970825195
40
0.0
41
0.0
42
0.0
10
68.4878005981445
20
82.5908966064453
40
0.0
41
0.0
42
0.0
10
68.3592987060547
20
82.5037002563477
40
0.0
41
0.0
42
0.0
10
67.9972991943359
20
82.1428985595703
40
0.0
41
0.0
42
0.0
10
67.9352035522461
20
82.0147018432617
40
0.0
41
0.0
42
0.0
10
67.9324035644531
20
81.9483032226562
40
0.0
41
0.0
42
0.0
10
67.9150009155273
20
81.8859024047852
40
0.0
41
0.0
42
0.0
10
67.8012008666992
20
81.5167999267578
40
0.0
41
0.0
42
0.0
10
67.8012008666992
20
81.4819030761719
40
0.0
41
0.0
42
0.0
10
67.814697265625
20
81.4133987426758
40
0.0
41
0.0
42
0.0
210
0.0
220
0.0
230
1.0
0
LWPOLYLINE
5
29
330
1C
100
AcDbEntity
67
0
8
0
62
256
6
ByLayer
370
-1
48
1.0
60
0
100
AcDbPolyline
90
91
70
1
38
0.0
39
0.0
10
67.9787979125977
20
81.9851989746094
40
0.0
41
0.0
42
0.0
10
68.0026016235352
20
82.0344009399414
40
0.0
41
0.0
42
0.0
10
68.4661026000977
20
82.4962005615234
40
0.0
41
0.0
42
0.0
10
68.5120010375977
20
82.5272979736328
40
0.0
41
0.0
42
0.0
10
68.5506973266602
20
82.5335998535156
40
0.0
41
0.0
42
0.0
10
69.0169982910156
20
82.6669998168945
40
0.0
41
0.0
42
0.0
10
69.4203033447266
20
82.6678009033203
40
0.0
41
0.0
42
0.0
10
69.4830017089844
20
82.66259765625
40
0.0
41
0.0
42
0.0
10
69.9300994873047
20
82.5656967163086
40
0.0
41
0.0
42
0.0
10
69.9876022338867
20
82.5493011474609
40
0.0
41
0.0
42
0.0
10
69.999397277832
20
82.5432968139648
40
0.0
41
0.0
42
0.0
10
70.0262985229492
20
82.5190963745117
40
0.0
41
0.0
42
0.0
10
70.0521011352539
20
82.5083999633789
40
0.0
41
0.0
42
0.0
10
70.0664978027344
20
82.4977035522461
40
0.0
41
0.0
42
0.0
10
70.4917984008789
20
82.2716979980469
40
0.0
41
0.0
42
0.0
10
70.7744979858398
20
82.0278015136719
40
0.0
41
0.0
42
0.0
10
70.7899017333984
20
81.9852981567383
40
0.0
41
0.0
42
0.0
10
70.8022003173828
20
81.9129028320312
40
0.0
41
0.0
42
0.0
10
70.8508987426758
20
81.8403015136719
40
0.0
41
0.0
42
0.0
10
70.9972991943359
20
81.6535034179688
40
0.0
41
0.0
42
0.0
10
71.0967025756836
20
81.4877014160156
40
0.0
41
0.0
42
0.0
10
71.1150970458984
20
81.399299621582
40
0.0
41
0.0
42
0.0
10
71.4123001098633
20
80.7227020263672
40
0.0
41
0.0
42
0.0
10
71.496696472168
20
80.4878997802734
40
0.0
41
0.0
42
0.0
10
71.5528030395508
20
80.3659973144531
40
0.0
41
0.0
42
0.0
10
71.7319030761719
20
79.9901962280273
40
0.0
41
0.0
42
0.0
10
71.8741989135742
20
79.7727966308594
40
0.0
41
0.0
42
0.0
10
71.997200012207
20
79.616096496582
40
0.0
41
0.0
42
0.0
10
72.0716018676758
20
79.4919967651367
40
0.0
41
0.0
42
0.0
10
72.1011962890625
20
79.456298828125
40
0.0
41
0.0
42
0.0
10
72.1473007202148
20
79.4195022583008
40
0.0
41
0.0
42
0.0
10
72.4565963745117
20
78.9955978393555
40
0.0
41
0.0
42
0.0
10
72.4850006103516
20
78.9781036376953
40
0.0
41
0.0
42
0.0
10
72.4963989257812
20
78.9654998779297
40
0.0
41
0.0
42
0.0
10
72.7809982299805
20
78.5496978759766
40
0.0
41
0.0
42
0.0
10
72.8060989379883
20
78.5213012695312
40
0.0
41
0.0
42
0.0
10
72.8419036865234
20
78.4896011352539
40
0.0
41
0.0
42
0.0
10
72.9975967407227
20
78.2746963500977
40
0.0
41
0.0
42
0.0
10
73.1404037475586
20
78.0223007202148
40
0.0
41
0.0
42
0.0
10
73.1657028198242
20
77.9912033081055
40
0.0
41
0.0
42
0.0
10
73.3862991333008
20
77.5251998901367
40
0.0
41
0.0
42
0.0
10
73.4087982177734
20
77.4908981323242
40
0.0
41
0.0
42
0.0
10
73.4989013671875
20
77.3339996337891
40
0.0
41
0.0
42
0.0
10
73.5975036621094
20
77.0818023681641
40
0.0
41
0.0
42
0.0
10
73.6240997314453
20
77.0227966308594
40
0.0
41
0.0
42
0.0
10
73.6371994018555
20
76.9857025146484
40
0.0
41
0.0
42
0.0
10
73.7408981323242
20
76.522102355957
40
0.0
41
0.0
42
0.0
10
73.7633972167969
20
76.4777984619141
40
0.0
41
0.0
42
0.0
10
73.7018966674805
20
76.4776992797852
40
0.0
41
0.0
42
0.0
10
73.4990005493164
20
76.3592987060547
40
0.0
41
0.0
42
0.0
10
73.1677017211914
20
76.4955978393555
40
0.0
41
0.0
42
0.0
10
73.0085983276367
20
76.5936965942383
40
0.0
41
0.0
42
0.0
10
72.9742965698242
20
76.6163024902344
40
0.0
41
0.0
42
0.0
10
72.5099029541016
20
76.8552017211914
40
0.0
41
0.0
42
0.0
10
72.2828979492188
20
76.9845962524414
40
0.0
41
0.0
42
0.0
10
72.2580032348633
20
77.0045013427734
40
0.0
41
0.0
42
0.0
10
72.2454986572266
20
77.0182037353516
40
0.0
41
0.0
42
0.0
10
72.0074005126953
20
77.1977005004883
40
0.0
41
0.0
42
0.0
10
71.6474990844727
20
77.4589996337891
40
0.0
41
0.0
42
0.0
10
71.6048965454102
20
77.5072021484375
40
0.0
41
0.0
42
0.0
10
71.5703964233398
20
77.5608978271484
40
0.0
41
0.0
42
0.0
10
71.5058975219727
20
77.6229019165039
40
0.0
41
0.0
42
0.0
10
71.0794982910156
20
77.9810028076172
40
0.0
41
0.0
42
0.0
10
71.0594024658203
20
78.0080032348633
40
0.0
41
0.0
42
0.0
10
71.0038986206055
20
78.0960006713867
40
0.0
41
0.0
42
0.0
10
70.5126037597656
20
78.5047988891602
40
0.0
41
0.0
42
0.0
10
70.5057983398438
20
78.5126037597656
40
0.0
41
0.0
42
0.0
10
70.1993026733398
20
78.727897644043
40
0.0
41
0.0
42
0.0
10
70.0091018676758
20
78.8564987182617
40
0.0
41
0.0
42
0.0
10
69.7319030761719
20
79.0015029907227
40
0.0
41
0.0
42
0.0
10
69.5923004150391
20
79.0821990966797
40
0.0
41
0.0
42
0.0
10
69.5119018554688
20
79.1118011474609
40
0.0
41
0.0
42
0.0
10
69.2994003295898
20
79.2085037231445
40
0.0
41
0.0
42
0.0
10
69.0093994140625
20
79.3603973388672
40
0.0
41
0.0
42
0.0
10
68.786003112793
20
79.5018005371094
40
0.0
41
0.0
42
0.0
10
68.6837005615234
20
79.5578994750977
40
0.0
41
0.0
42
0.0
10
68.5847015380859
20
79.6414031982422
40
0.0
41
0.0
42
0.0
10
68.5080032348633
20
79.6645965576172
40
0.0
41
0.0
42
0.0
10
68.2104034423828
20
80.0108032226562
40
0.0
41
0.0
42
0.0
10
68.0789031982422
20
80.2741012573242
40
0.0
41
0.0
42
0.0
10
68.0029983520508
20
80.3187026977539
40
0.0
41
0.0
42
0.0
10
67.9346008300781
20
80.4941024780273
40
0.0
41
0.0
42
0.0
10
67.9219970703125
20
80.507698059082
40
0.0
41
0.0
42
0.0
10
67.9007034301758
20
80.5481033325195
40
0.0
41
0.0
42
0.0
10
67.8203964233398
20
81.0106964111328
40
0.0
41
0.0
42
0.0
10
67.8391036987305
20
81.4453964233398
40
0.0
41
0.0
42
0.0
10
67.838996887207
20
81.4826965332031
40
0.0
41
0.0
42
0.0
10
67.8361968994141
20
81.4962005615234
40
0.0
41
0.0
42
0.0
10
67.9599990844727
20
81.8982009887695
40
0.0
41
0.0
42
0.0
10
67.9777984619141
20
81.9634017944336
40
0.0
41
0.0
42
0.0
10
67.9787979125977
20
81.9851989746094
40
0.0
41
0.0
42
0.0
210
0.0
220
0.0
230
1.0
0
LWPOLYLINE
5
2A
330
1C
100
AcDbEntity
67
0
8
0
62
256
6
ByLayer
370
-1
48
1.0
60
0
100
AcDbPolyline
90
82
70
1
38
0.0
39
0.0
10
73.2325973510742
20
65.9898986816406
40
0.0
41
0.0
42
0.0
10
73.4245986938477
20
65.6877975463867
40
0.0
41
0.0
42
0.0
10
73.4962005615234
20
65.5832977294922
40
0.0
41
0.0
42
0.0
10
73.5820999145508
20
65.4953002929688
40
0.0
41
0.0
42
0.0
10
73.9906005859375
20
65.1432037353516
40
0.0
41
0.0
42
0.0
10
74.3988037109375
20
65.0009994506836
40
0.0
41
0.0
42
0.0
10
74.7287979125977
20
65.0009002685547
40
0.0
41
0.0
42
0.0
10
74.8898010253906
20
65.0201034545898
40
0.0
41
0.0
42
0.0
10
75.013298034668
20
65.0307998657227
40
0.0
41
0.0
42
0.0
10
75.1156005859375
20
65.0916976928711
40
0.0
41
0.0
42
0.0
10
75.5075988769531
20
65.3012008666992
40
0.0
41
0.0
42
0.0
10
75.6320037841797
20
65.4189987182617
40
0.0
41
0.0
42
0.0
10
75.6874008178711
20
65.4933013916016
40
0.0
41
0.0
42
0.0
10
76.0034027099609
20
65.8489990234375
40
0.0
41
0.0
42
0.0
10
76.0485992431641
20
65.9143981933594
40
0.0
41
0.0
42
0.0
10
76.0711975097656
20
65.9831008911133
40
0.0
41
0.0
42
0.0
10
76.0700988769531
20
66.0466995239258
40
0.0
41
0.0
42
0.0
10
76.2679977416992
20
66.4860000610352
40
0.0
41
0.0
42
0.0
10
76.3404998779297
20
66.9466018676758
40
0.0
41
0.0
42
0.0
10
76.3404006958008
20
66.9810028076172
40
0.0
41
0.0
42
0.0
10
76.3273010253906
20
67.0149993896484
40
0.0
41
0.0
42
0.0
10
76.2791976928711
20
67.4768981933594
40
0.0
41
0.0
42
0.0
10
76.260498046875
20
67.5121002197266
40
0.0
41
0.0
42
0.0
10
76.1400985717773
20
67.9440002441406
40
0.0
41
0.0
42
0.0
10
76.1110000610352
20
68.0123977661133
40
0.0
41
0.0
42
0.0
10
75.9951019287109
20
68.3536987304688
40
0.0
41
0.0
42
0.0
10
75.9392013549805
20
68.5136032104492
40
0.0
41
0.0
42
0.0
10
75.8119964599609
20
68.9608993530273
40
0.0
41
0.0
42
0.0
10
75.7239990234375
20
69.4497985839844
40
0.0
41
0.0
42
0.0
10
75.7216033935547
20
69.5186004638672
40
0.0
41
0.0
42
0.0
10
75.6816024780273
20
69.9319000244141
40
0.0
41
0.0
42
0.0
10
75.6845016479492
20
69.980598449707
40
0.0
41
0.0
42
0.0
10
75.6844024658203
20
70.0193023681641
40
0.0
41
0.0
42
0.0
10
75.6584014892578
20
70.4327011108398
40
0.0
41
0.0
42
0.0
10
75.6641006469727
20
70.4831008911133
40
0.0
41
0.0
42
0.0
10
75.6706008911133
20
70.5168991088867
40
0.0
41
0.0
42
0.0
10
75.6705017089844
20
70.5541000366211
40
0.0
41
0.0
42
0.0
10
75.6331024169922
20
70.9999008178711
40
0.0
41
0.0
42
0.0
10
75.6341018676758
20
71.05419921875
40
0.0
41
0.0
42
0.0
10
75.6306991577148
20
71.092399597168
40
0.0
41
0.0
42
0.0
10
75.5643005371094
20
71.5128021240234
40
0.0
41
0.0
42
0.0
10
75.5562973022461
20
71.5907974243164
40
0.0
41
0.0
42
0.0
10
75.4980010986328
20
71.7828979492188
40
0.0
41
0.0
42
0.0
10
75.4284973144531
20
72.0309982299805
40
0.0
41
0.0
42
0.0
10
75.4149017333984
20
72.0892028808594
40
0.0
41
0.0
42
0.0
10
75.2745971679688
20
72.5137023925781
40
0.0
41
0.0
42
0.0
10
75.1277008056641
20
73.0145034790039
40
0.0
41
0.0
42
0.0
10
75.1097030639648
20
73.090202331543
40
0.0
41
0.0
42
0.0
10
75.0160980224609
20
73.5158996582031
40
0.0
41
0.0
42
0.0
10
75.0022964477539
20
73.5941009521484
40
0.0
41
0.0
42
0.0
10
74.9974975585938
20
73.5941009521484
40
0.0
41
0.0
42
0.0
10
74.9935989379883
20
73.5721969604492
40
0.0
41
0.0
42
0.0
10
74.969596862793
20
73.4852981567383
40
0.0
41
0.0
42
0.0
10
74.8293991088867
20
73.0854034423828
40
0.0
41
0.0
42
0.0
10
74.4916000366211
20
72.584602355957
40
0.0
41
0.0
42
0.0
10
74.459602355957
20
72.5120010375977
40
0.0
41
0.0
42
0.0
10
74.2988967895508
20
72.0884017944336
40
0.0
41
0.0
42
0.0
10
74.1567993164062
20
71.590202331543
40
0.0
41
0.0
42
0.0
10
74.1435012817383
20
71.5157012939453
40
0.0
41
0.0
42
0.0
10
74.0451965332031
20
71.0921020507812
40
0.0
41
0.0
42
0.0
10
74.0418014526367
20
71.019401550293
40
0.0
41
0.0
42
0.0
10
74.0417022705078
20
70.9807968139648
40
0.0
41
0.0
42
0.0
10
74.0439987182617
20
70.9505996704102
40
0.0
41
0.0
42
0.0
10
74.000602722168
20
70.709098815918
40
0.0
41
0.0
42
0.0
10
73.9626007080078
20
70.5164031982422
40
0.0
41
0.0
42
0.0
10
73.8955001831055
20
70.0733032226562
40
0.0
41
0.0
42
0.0
10
73.8962020874023
20
70.0120010375977
40
0.0
41
0.0
42
0.0
10
73.8167037963867
20
69.5803985595703
40
0.0
41
0.0
42
0.0
10
73.8154983520508
20
69.5168991088867
40
0.0
41
0.0
42
0.0
10
73.6941986083984
20
69.0754013061523
40
0.0
41
0.0
42
0.0
10
73.6866989135742
20
69.0149002075195
40
0.0
41
0.0
42
0.0
10
73.5484008789062
20
68.6505966186523
40
0.0
41
0.0
42
0.0
10
73.4992980957031
20
68.5270004272461
40
0.0
41
0.0
42
0.0
10
73.2751998901367
20
68.0096969604492
40
0.0
41
0.0
42
0.0
10
73.2511978149414
20
67.9754028320312
40
0.0
41
0.0
42
0.0
10
73.0998992919922
20
67.5152969360352
40
0.0
41
0.0
42
0.0
10
73.0414962768555
20
67.0523986816406
40
0.0
41
0.0
42
0.0
10
73.0139999389648
20
67.013298034668
40
0.0
41
0.0
42
0.0
10
73.0108032226562
20
66.7434005737305
40
0.0
41
0.0
42
0.0
10
73.0497970581055
20
66.4832000732422
40
0.0
41
0.0
42
0.0
10
73.0699996948242
20
66.3580017089844
40
0.0
41
0.0
42
0.0
10
73.2325973510742
20
65.9898986816406
40
0.0
41
0.0
42
0.0
210
0.0
220
0.0
230
1.0
0
LWPOLYLINE
5
2B
330
1C
100
AcDbEntity
67
0
8
0
62
256
6
ByLayer
370
-1
48
1.0
60
0
100
AcDbPolyline
90
80
70
1
38
0.0
39
0.0
10
73.0140991210938
20
66.9039001464844
40
0.0
41
0.0
42
0.0
10
73.0152969360352
20
66.986701965332
40
0.0
41
0.0
42
0.0
10
73.0417022705078
20
67.0244979858398
40
0.0
41
0.0
42
0.0
10
73.0650024414062
20
67.0622024536133
40
0.0
41
0.0
42
0.0
10
73.1184997558594
20
67.4845962524414
40
0.0
41
0.0
42
0.0
10
73.2599029541016
20
67.9144973754883
40
0.0
41
0.0
42
0.0
10
73.3132019042969
20
67.9903030395508
40
0.0
41
0.0
42
0.0
10
73.5010986328125
20
68.4219970703125
40
0.0
41
0.0
42
0.0
10
73.5384979248047
20
68.4880981445312
40
0.0
41
0.0
42
0.0
10
73.5531997680664
20
68.5399017333984
40
0.0
41
0.0
42
0.0
10
73.6051025390625
20
68.6707992553711
40
0.0
41
0.0
42
0.0
10
73.7245025634766
20
68.9850997924805
40
0.0
41
0.0
42
0.0
10
73.7403030395508
20
69.111701965332
40
0.0
41
0.0
42
0.0
10
73.8423004150391
20
69.4830017089844
40
0.0
41
0.0
42
0.0
10
73.8450012207031
20
69.6164016723633
40
0.0
41
0.0
42
0.0
10
73.9123001098633
20
69.9815979003906
40
0.0
41
0.0
42
0.0
10
73.9095001220703
20
70.1061019897461
40
0.0
41
0.0
42
0.0
10
73.9665985107422
20
70.4835968017578
40
0.0
41
0.0
42
0.0
10
73.9992980957031
20
70.6498031616211
40
0.0
41
0.0
42
0.0
10
74.0466003417969
20
70.9074020385742
40
0.0
41
0.0
42
0.0
10
74.0484008789062
20
70.945198059082
40
0.0
41
0.0
42
0.0
10
74.0467987060547
20
71.0170974731445
40
0.0
41
0.0
42
0.0
10
74.1551971435547
20
71.4841995239258
40
0.0
41
0.0
42
0.0
10
74.1614990234375
20
71.5196990966797
40
0.0
41
0.0
42
0.0
10
74.3050994873047
20
72.021598815918
40
0.0
41
0.0
42
0.0
10
74.4819030761719
20
72.4877014160156
40
0.0
41
0.0
42
0.0
10
74.4981994628906
20
72.52490234375
40
0.0
41
0.0
42
0.0
10
74.834602355957
20
73.0244979858398
40
0.0
41
0.0
42
0.0
10
74.9896011352539
20
73.4658966064453
40
0.0
41
0.0
42
0.0
10
75.0092010498047
20
73.4646987915039
40
0.0
41
0.0
42
0.0
10
75.1151962280273
20
72.9851989746094
40
0.0
41
0.0
42
0.0
10
75.2621002197266
20
72.486198425293
40
0.0
41
0.0
42
0.0
10
75.415901184082
20
72.0205993652344
40
0.0
41
0.0
42
0.0
10
75.4225006103516
20
71.9927978515625
40
0.0
41
0.0
42
0.0
10
75.5000991821289
20
71.7151031494141
40
0.0
41
0.0
42
0.0
10
75.5587997436523
20
71.5189971923828
40
0.0
41
0.0
42
0.0
10
75.5625
20
71.4825973510742
40
0.0
41
0.0
42
0.0
10
75.6296997070312
20
71.0572967529297
40
0.0
41
0.0
42
0.0
10
75.6268997192383
20
71.0190963745117
40
0.0
41
0.0
42
0.0
10
75.6268005371094
20
70.9807968139648
40
0.0
41
0.0
42
0.0
10
75.6603012084961
20
70.5815963745117
40
0.0
41
0.0
42
0.0
10
75.6481018066406
20
70.5167999267578
40
0.0
41
0.0
42
0.0
10
75.63330078125
20
70.385498046875
40
0.0
41
0.0
42
0.0
10
75.6332015991211
20
70.347297668457
40
0.0
41
0.0
42
0.0
10
75.6550979614258
20
69.999397277832
40
0.0
41
0.0
42
0.0
10
75.6472015380859
20
69.8643035888672
40
0.0
41
0.0
42
0.0
10
75.647102355957
20
69.8259963989258
40
0.0
41
0.0
42
0.0
10
75.6804962158203
20
69.4813003540039
40
0.0
41
0.0
42
0.0
10
75.6855010986328
20
69.3368988037109
40
0.0
41
0.0
42
0.0
10
75.769401550293
20
68.8683013916016
40
0.0
41
0.0
42
0.0
10
75.8780975341797
20
68.4862976074219
40
0.0
41
0.0
42
0.0
10
75.9973983764648
20
68.1452026367188
40
0.0
41
0.0
42
0.0
10
76.0510025024414
20
67.9873962402344
40
0.0
41
0.0
42
0.0
10
76.1143035888672
20
67.8393020629883
40
0.0
41
0.0
42
0.0
10
76.2121963500977
20
67.4877014160156
40
0.0
41
0.0
42
0.0
10
76.2546005249023
20
67.4073028564453
40
0.0
41
0.0
42
0.0
10
76.298698425293
20
66.9849014282227
40
0.0
41
0.0
42
0.0
10
76.3243026733398
20
66.918701171875
40
0.0
41
0.0
42
0.0
10
76.2605972290039
20
66.5139007568359
40
0.0
41
0.0
42
0.0
10
76.0687026977539
20
66.0880966186523
40
0.0
41
0.0
42
0.0
10
76.0599975585938
20
66.0523986816406
40
0.0
41
0.0
42
0.0
10
76.0598983764648
20
66.0118026733398
40
0.0
41
0.0
42
0.0
10
76.0479965209961
20
65.9755020141602
40
0.0
41
0.0
42
0.0
10
75.9964981079102
20
65.9009017944336
40
0.0
41
0.0
42
0.0
10
75.6464004516602
20
65.5066986083984
40
0.0
41
0.0
42
0.0
10
75.6197967529297
20
65.4709014892578
40
0.0
41
0.0
42
0.0
10
75.492301940918
20
65.3504028320312
40
0.0
41
0.0
42
0.0
10
75.0398025512695
20
65.1085968017578
40
0.0
41
0.0
42
0.0
10
74.9866027832031
20
65.0768966674805
40
0.0
41
0.0
42
0.0
10
74.6557006835938
20
65.0482025146484
40
0.0
41
0.0
42
0.0
10
74.507698059082
20
65.0305023193359
40
0.0
41
0.0
42
0.0
10
74.323600769043
20
65.0996017456055
40
0.0
41
0.0
42
0.0
10
74.0092010498047
20
65.2091979980469
40
0.0
41
0.0
42
0.0
10
73.6657028198242
20
65.5046005249023
40
0.0
41
0.0
42
0.0
10
73.5036010742188
20
65.6707000732422
40
0.0
41
0.0
42
0.0
10
73.369499206543
20
65.8666000366211
40
0.0
41
0.0
42
0.0
10
73.2783966064453
20
66.0100021362305
40
0.0
41
0.0
42
0.0
10
73.0821990966797
20
66.4541015625
40
0.0
41
0.0
42
0.0
10
73.0727005004883
20
66.5130996704102
40
0.0
41
0.0
42
0.0
10
73.0140991210938
20
66.9039001464844
40
0.0
41
0.0
42
0.0
210
0.0
220
0.0
230
1.0
0
LWPOLYLINE
5
2C
330
1C
100
AcDbEntity
67
0
8
0
62
256
6
ByLayer
370
-1
48
1.0
60
0
100
AcDbPolyline
90
83
70
1
38
0.0
39
0.0
10
73.7390975952148
20
82.4877014160156
40
0.0
41
0.0
42
0.0
10
73.8595962524414
20
82.0557022094727
40
0.0
41
0.0
42
0.0
10
73.888801574707
20
81.9873962402344
40
0.0
41
0.0
42
0.0
10
74.0046005249023
20
81.6461029052734
40
0.0
41
0.0
42
0.0
10
74.0606002807617
20
81.4862976074219
40
0.0
41
0.0
42
0.0
10
74.1876983642578
20
81.0389022827148
40
0.0
41
0.0
42
0.0
10
74.2757034301758
20
80.5500030517578
40
0.0
41
0.0
42
0.0
10
74.2780990600586
20
80.4813003540039
40
0.0
41
0.0
42
0.0
10
74.3181991577148
20
80.0678024291992
40
0.0
41
0.0
42
0.0
10
74.3153991699219
20
80.0193023681641
40
0.0
41
0.0
42
0.0
10
74.315299987793
20
79.980598449707
40
0.0
41
0.0
42
0.0
10
74.3414001464844
20
79.5672988891602
40
0.0
41
0.0
42
0.0
10
74.3356018066406
20
79.5167999267578
40
0.0
41
0.0
42
0.0
10
74.3292999267578
20
79.4830017089844
40
0.0
41
0.0
42
0.0
10
74.3292007446289
20
79.44580078125
40
0.0
41
0.0
42
0.0
10
74.3681030273438
20
78.9824981689453
40
0.0
41
0.0
42
0.0
10
74.4378967285156
20
78.5404968261719
40
0.0
41
0.0
42
0.0
10
74.4364013671875
20
78.5192031860352
40
0.0
41
0.0
42
0.0
10
74.4362030029297
20
78.4810028076172
40
0.0
41
0.0
42
0.0
10
74.4433975219727
20
78.4091033935547
40
0.0
41
0.0
42
0.0
10
74.5000991821289
20
78.2226028442383
40
0.0
41
0.0
42
0.0
10
74.5706024169922
20
77.9710006713867
40
0.0
41
0.0
42
0.0
10
74.5848007202148
20
77.9105987548828
40
0.0
41
0.0
42
0.0
10
74.72509765625
20
77.486198425293
40
0.0
41
0.0
42
0.0
10
74.8720016479492
20
76.9852981567383
40
0.0
41
0.0
42
0.0
10
74.8899993896484
20
76.9095993041992
40
0.0
41
0.0
42
0.0
10
74.9835968017578
20
76.484001159668
40
0.0
41
0.0
42
0.0
10
74.9975967407227
20
76.4057998657227
40
0.0
41
0.0
42
0.0
10
75.0022964477539
20
76.4057998657227
40
0.0
41
0.0
42
0.0
10
75.0062026977539
20
76.4276962280273
40
0.0
41
0.0
42
0.0
10
75.0229034423828
20
76.4862976074219
40
0.0
41
0.0
42
0.0
10
75.1703033447266
20
76.9143981933594
40
0.0
41
0.0
42
0.0
10
75.5081024169922
20
77.4152984619141
40
0.0
41
0.0
42
0.0
10
75.5401992797852
20
77.4878997802734
40
0.0
41
0.0
42
0.0
10
75.7006988525391
20
77.9114990234375
40
0.0
41
0.0
42
0.0
10
75.7210006713867
20
77.9845962524414
40
0.0
41
0.0
42
0.0
10
75.7344970703125
20
78.059700012207
40
0.0
41
0.0
42
0.0
10
75.856201171875
20
78.484001159668
40
0.0
41
0.0
42
0.0
10
75.9544982910156
20
78.9078979492188
40
0.0
41
0.0
42
0.0
10
75.9580993652344
20
78.9804992675781
40
0.0
41
0.0
42
0.0
10
75.9580001831055
20
79.0190963745117
40
0.0
41
0.0
42
0.0
10
75.9557037353516
20
79.0493011474609
40
0.0
41
0.0
42
0.0
10
75.9991989135742
20
79.2908020019531
40
0.0
41
0.0
42
0.0
10
76.0371017456055
20
79.4835968017578
40
0.0
41
0.0
42
0.0
10
76.1042022705078
20
79.9264984130859
40
0.0
41
0.0
42
0.0
10
76.1035003662109
20
79.9879989624023
40
0.0
41
0.0
42
0.0
10
76.1829986572266
20
80.4194030761719
40
0.0
41
0.0
42
0.0
10
76.1843032836914
20
80.4830017089844
40
0.0
41
0.0
42
0.0
10
76.3054962158203
20
80.9244995117188
40
0.0
41
0.0
42
0.0
10
76.313102722168
20
80.9850997924805
40
0.0
41
0.0
42
0.0
10
76.451301574707
20
81.3491973876953
40
0.0
41
0.0
42
0.0
10
76.5005035400391
20
81.4728012084961
40
0.0
41
0.0
42
0.0
10
76.7246017456055
20
81.9903030395508
40
0.0
41
0.0
42
0.0
10
76.7484970092773
20
82.0244979858398
40
0.0
41
0.0
42
0.0
10
76.8998031616211
20
82.4845962524414
40
0.0
41
0.0
42
0.0
10
76.9585037231445
20
82.9474029541016
40
0.0
41
0.0
42
0.0
10
76.9857025146484
20
82.9866027832031
40
0.0
41
0.0
42
0.0
10
76.988899230957
20
83.2564010620117
40
0.0
41
0.0
42
0.0
10
76.9297027587891
20
83.6418991088867
40
0.0
41
0.0
42
0.0
10
76.7670974731445
20
84.0100021362305
40
0.0
41
0.0
42
0.0
10
76.5751037597656
20
84.311897277832
40
0.0
41
0.0
42
0.0
10
76.5036010742188
20
84.4163970947266
40
0.0
41
0.0
42
0.0
10
76.4176025390625
20
84.5045013427734
40
0.0
41
0.0
42
0.0
10
76.0092010498047
20
84.8565979003906
40
0.0
41
0.0
42
0.0
10
75.6009979248047
20
84.9990005493164
40
0.0
41
0.0
42
0.0
10
75.2710037231445
20
84.9989013671875
40
0.0
41
0.0
42
0.0
10
75.1100006103516
20
84.9795989990234
40
0.0
41
0.0
42
0.0
10
74.9866027832031
20
84.9689025878906
40
0.0
41
0.0
42
0.0
10
74.8842010498047
20
84.9079971313477
40
0.0
41
0.0
42
0.0
10
74.492301940918
20
84.6985015869141
40
0.0
41
0.0
42
0.0
10
74.3677978515625
20
84.5809020996094
40
0.0
41
0.0
42
0.0
10
74.3124008178711
20
84.5066986083984
40
0.0
41
0.0
42
0.0
10
73.9964981079102
20
84.1508026123047
40
0.0
41
0.0
42
0.0
10
73.9511032104492
20
84.0855026245117
40
0.0
41
0.0
42
0.0
10
73.9271011352539
20
84.0122985839844
40
0.0
41
0.0
42
0.0
10
73.7363967895508
20
83.5888977050781
40
0.0
41
0.0
42
0.0
10
73.7309036254883
20
83.5533981323242
40
0.0
41
0.0
42
0.0
10
73.7310028076172
20
83.5094985961914
40
0.0
41
0.0
42
0.0
10
73.6594009399414
20
83.0532989501953
40
0.0
41
0.0
42
0.0
10
73.6592025756836
20
83.018798828125
40
0.0
41
0.0
42
0.0
10
73.6724014282227
20
82.9849014282227
40
0.0
41
0.0
42
0.0
10
73.7205963134766
20
82.5227966308594
40
0.0
41
0.0
42
0.0
10
73.7390975952148
20
82.4877014160156
40
0.0
41
0.0
42
0.0
210
0.0
220
0.0
230
1.0
0
LWPOLYLINE
5
2D
330
1C
100
AcDbEntity
67
0
8
0
62
256
6
ByLayer
370
-1
48
1.0
60
0
100
AcDbPolyline
90
79
70
1
38
0.0
39
0.0
10
73.6753997802734
20
83.0811004638672
40
0.0
41
0.0
42
0.0
10
73.7385025024414
20
83.4814987182617
40
0.0
41
0.0
42
0.0
10
73.7378005981445
20
83.5391006469727
40
0.0
41
0.0
42
0.0
10
73.9389038085938
20
83.9860000610352
40
0.0
41
0.0
42
0.0
10
73.9517974853516
20
84.0243988037109
40
0.0
41
0.0
42
0.0
10
74.0034027099609
20
84.0989990234375
40
0.0
41
0.0
42
0.0
10
74.3533020019531
20
84.4932022094727
40
0.0
41
0.0
42
0.0
10
74.379997253418
20
84.5289993286133
40
0.0
41
0.0
42
0.0
10
74.5075988769531
20
84.649299621582
40
0.0
41
0.0
42
0.0
10
74.9599990844727
20
84.8910980224609
40
0.0
41
0.0
42
0.0
10
75.0133972167969
20
84.9227981567383
40
0.0
41
0.0
42
0.0
10
75.3441009521484
20
84.9514999389648
40
0.0
41
0.0
42
0.0
10
75.4922027587891
20
84.9691009521484
40
0.0
41
0.0
42
0.0
10
75.6762008666992
20
84.9001007080078
40
0.0
41
0.0
42
0.0
10
75.9906005859375
20
84.7904968261719
40
0.0
41
0.0
42
0.0
10
76.3339996337891
20
84.4952011108398
40
0.0
41
0.0
42
0.0
10
76.4962005615234
20
84.3290023803711
40
0.0
41
0.0
42
0.0
10
76.6300964355469
20
84.1332015991211
40
0.0
41
0.0
42
0.0
10
76.7212982177734
20
83.9898986816406
40
0.0
41
0.0
42
0.0
10
76.9176025390625
20
83.5455017089844
40
0.0
41
0.0
42
0.0
10
76.9856033325195
20
83.0959014892578
40
0.0
41
0.0
42
0.0
10
76.9843978881836
20
83.0131988525391
40
0.0
41
0.0
42
0.0
10
76.9568023681641
20
82.9733963012695
40
0.0
41
0.0
42
0.0
10
76.934700012207
20
82.9377975463867
40
0.0
41
0.0
42
0.0
10
76.8812026977539
20
82.5152969360352
40
0.0
41
0.0
42
0.0
10
76.7398986816406
20
82.0854034423828
40
0.0
41
0.0
42
0.0
10
76.6865005493164
20
82.0095977783203
40
0.0
41
0.0
42
0.0
10
76.4987030029297
20
81.5777969360352
40
0.0
41
0.0
42
0.0
10
76.4613037109375
20
81.5118026733398
40
0.0
41
0.0
42
0.0
10
76.4466018676758
20
81.4598999023438
40
0.0
41
0.0
42
0.0
10
76.3945999145508
20
81.3291015625
40
0.0
41
0.0
42
0.0
10
76.2751998901367
20
81.0149002075195
40
0.0
41
0.0
42
0.0
10
76.2594985961914
20
80.8881988525391
40
0.0
41
0.0
42
0.0
10
76.1574020385742
20
80.5168991088867
40
0.0
41
0.0
42
0.0
10
76.1547012329102
20
80.3833999633789
40
0.0
41
0.0
42
0.0
10
76.08740234375
20
80.0183029174805
40
0.0
41
0.0
42
0.0
10
76.090202331543
20
79.8936996459961
40
0.0
41
0.0
42
0.0
10
76.0330963134766
20
79.5164031982422
40
0.0
41
0.0
42
0.0
10
76.000602722168
20
79.3507995605469
40
0.0
41
0.0
42
0.0
10
75.9531021118164
20
79.0925979614258
40
0.0
41
0.0
42
0.0
10
75.951301574707
20
79.0519027709961
40
0.0
41
0.0
42
0.0
10
75.9530029296875
20
78.9828033447266
40
0.0
41
0.0
42
0.0
10
75.8442993164062
20
78.5147018432617
40
0.0
41
0.0
42
0.0
10
75.7110977172852
20
78.0502014160156
40
0.0
41
0.0
42
0.0
10
75.7048034667969
20
78.0152969360352
40
0.0
41
0.0
42
0.0
10
75.6947021484375
20
77.978401184082
40
0.0
41
0.0
42
0.0
10
75.5178985595703
20
77.5121002197266
40
0.0
41
0.0
42
0.0
10
75.5015029907227
20
77.4748992919922
40
0.0
41
0.0
42
0.0
10
75.1651992797852
20
76.9755020141602
40
0.0
41
0.0
42
0.0
10
75.0115966796875
20
76.529296875
40
0.0
41
0.0
42
0.0
10
74.99169921875
20
76.5305023193359
40
0.0
41
0.0
42
0.0
10
74.8927001953125
20
76.9800033569336
40
0.0
41
0.0
42
0.0
10
74.8746032714844
20
77.0493011474609
40
0.0
41
0.0
42
0.0
10
74.7375030517578
20
77.5137023925781
40
0.0
41
0.0
42
0.0
10
74.5838012695312
20
77.9792022705078
40
0.0
41
0.0
42
0.0
10
74.5772018432617
20
78.0070037841797
40
0.0
41
0.0
42
0.0
10
74.4997024536133
20
78.2846984863281
40
0.0
41
0.0
42
0.0
10
74.440803527832
20
78.4807968139648
40
0.0
41
0.0
42
0.0
10
74.4386978149414
20
78.5016021728516
40
0.0
41
0.0
42
0.0
10
74.4400024414062
20
78.5933990478516
40
0.0
41
0.0
42
0.0
10
74.3730010986328
20
79.0174026489258
40
0.0
41
0.0
42
0.0
10
74.3394012451172
20
79.4182968139648
40
0.0
41
0.0
42
0.0
10
74.3516006469727
20
79.4831008911133
40
0.0
41
0.0
42
0.0
10
74.3666000366211
20
79.6143035888672
40
0.0
41
0.0
42
0.0
10
74.3665008544922
20
79.6524963378906
40
0.0
41
0.0
42
0.0
10
74.3447036743164
20
80.0005035400391
40
0.0
41
0.0
42
0.0
10
74.3526992797852
20
80.1355972290039
40
0.0
41
0.0
42
0.0
10
74.3525009155273
20
80.1737976074219
40
0.0
41
0.0
42
0.0
10
74.3192977905273
20
80.5186004638672
40
0.0
41
0.0
42
0.0
10
74.3142013549805
20
80.6629028320312
40
0.0
41
0.0
42
0.0
10
74.2302017211914
20
81.1315002441406
40
0.0
41
0.0
42
0.0
10
74.1214981079102
20
81.5136032104492
40
0.0
41
0.0
42
0.0
10
74.0022964477539
20
81.8545989990234
40
0.0
41
0.0
42
0.0
10
73.9486999511719
20
82.0123977661133
40
0.0
41
0.0
42
0.0
10
73.8853988647461
20
82.160400390625
40
0.0
41
0.0
42
0.0
10
73.7874984741211
20
82.5121002197266
40
0.0
41
0.0
42
0.0
10
73.7451019287109
20
82.592399597168
40
0.0
41
0.0
42
0.0
10
73.7008972167969
20
83.0149993896484
40
0.0
41
0.0
42
0.0
10
73.6753997802734
20
83.0811004638672
40
0.0
41
0.0
42
0.0
210
0.0
220
0.0
230
1.0
0
LWPOLYLINE
5
2E
330
1C
100
AcDbEntity
67
0
8
0
62
256
6
ByLayer
370
-1
48
1.0
60
0
100
AcDbPolyline
90
103
70
1
38
0.0
39
0.0
10
76.0001983642578
20
76.0102996826172
40
0.0
41
0.0
42
0.0
10
76.0001983642578
20
76.0009994506836
40
0.0
41
0.0
42
0.0
10
76.0214004516602
20
76.0009002685547
40
0.0
41
0.0
42
0.0
10
76.5091018676758
20
76.1995010375977
40
0.0
41
0.0
42
0.0
10
76.5400009155273
20
76.2248001098633
40
0.0
41
0.0
42
0.0
10
76.5877990722656
20
76.2490005493164
40
0.0
41
0.0
42
0.0
10
77.0140991210938
20
76.3442993164062
40
0.0
41
0.0
42
0.0
10
77.0870971679688
20
76.3702011108398
40
0.0
41
0.0
42
0.0
10
77.2126007080078
20
76.4269027709961
40
0.0
41
0.0
42
0.0
10
77.3966979980469
20
76.4989013671875
40
0.0
41
0.0
42
0.0
10
77.5092010498047
20
76.5634994506836
40
0.0
41
0.0
42
0.0
10
77.5525970458984
20
76.5904006958008
40
0.0
41
0.0
42
0.0
10
77.5843963623047
20
76.6128005981445
40
0.0
41
0.0
42
0.0
10
78.0086975097656
20
76.8135986328125
40
0.0
41
0.0
42
0.0
10
78.0735015869141
20
76.8664016723633
40
0.0
41
0.0
42
0.0
10
78.3078994750977
20
76.9997024536133
40
0.0
41
0.0
42
0.0
10
78.4961013793945
20
77.1360015869141
40
0.0
41
0.0
42
0.0
10
78.5488967895508
20
77.1957015991211
40
0.0
41
0.0
42
0.0
10
78.9882965087891
20
77.4964981079102
40
0.0
41
0.0
42
0.0
10
78.9952011108398
20
77.5026016235352
40
0.0
41
0.0
42
0.0
10
79.0043029785156
20
77.5173034667969
40
0.0
41
0.0
42
0.0
10
79.4702987670898
20
77.8573989868164
40
0.0
41
0.0
42
0.0
10
79.4868011474609
20
77.8779983520508
40
0.0
41
0.0
42
0.0
10
79.5077972412109
20
77.8954010009766
40
0.0
41
0.0
42
0.0
10
79.676399230957
20
77.9964981079102
40
0.0
41
0.0
42
0.0
10
79.7098999023438
20
78.0311965942383
40
0.0
41
0.0
42
0.0
10
79.9830017089844
20
78.2098007202148
40
0.0
41
0.0
42
0.0
10
80.010498046875
20
78.2244033813477
40
0.0
41
0.0
42
0.0
10
80.5114974975586
20
78.4620971679688
40
0.0
41
0.0
42
0.0
10
80.6046981811523
20
78.4991989135742
40
0.0
41
0.0
42
0.0
10
80.6803970336914
20
78.5330963134766
40
0.0
41
0.0
42
0.0
10
80.6918029785156
20
78.5352020263672
40
0.0
41
0.0
42
0.0
10
80.9901962280273
20
78.6656036376953
40
0.0
41
0.0
42
0.0
10
81.013801574707
20
78.6697998046875
40
0.0
41
0.0
42
0.0
10
81.4728012084961
20
78.8719024658203
40
0.0
41
0.0
42
0.0
10
81.5121994018555
20
78.8800964355469
40
0.0
41
0.0
42
0.0
10
81.7070999145508
20
78.9972991943359
40
0.0
41
0.0
42
0.0
10
81.9365997314453
20
79.1766967773438
40
0.0
41
0.0
42
0.0
10
81.9769973754883
20
79.2036972045898
40
0.0
41
0.0
42
0.0
10
82.0145034790039
20
79.2100982666016
40
0.0
41
0.0
42
0.0
10
82.0829010009766
20
79.2354965209961
40
0.0
41
0.0
42
0.0
10
82.1100006103516
20
79.2649002075195
40
0.0
41
0.0
42
0.0
10
82.3050994873047
20
79.4918975830078
40
0.0
41
0.0
42
0.0
10
82.5009002685547
20
79.8603973388672
40
0.0
41
0.0
42
0.0
10
82.5108032226562
20
79.8844985961914
40
0.0
41
0.0
42
0.0
10
82.5351028442383
20
79.9178009033203
40
0.0
41
0.0
42
0.0
10
82.5942001342773
20
79.9898986816406
40
0.0
41
0.0
42
0.0
10
82.6260986328125
20
80.1026000976562
40
0.0
41
0.0
42
0.0
10
82.7087020874023
20
80.4831008911133
40
0.0
41
0.0
42
0.0
10
82.7192993164062
20
80.6126022338867
40
0.0
41
0.0
42
0.0
10
82.7185974121094
20
81.0169982910156
40
0.0
41
0.0
42
0.0
10
82.6065979003906
20
81.4080963134766
40
0.0
41
0.0
42
0.0
10
82.5904998779297
20
81.5140991210938
40
0.0
41
0.0
42
0.0
10
82.5655975341797
20
81.5720977783203
40
0.0
41
0.0
42
0.0
10
82.5046997070312
20
81.6393966674805
40
0.0
41
0.0
42
0.0
10
82.1427993774414
20
82.0025024414062
40
0.0
41
0.0
42
0.0
10
82.0147018432617
20
82.0644989013672
40
0.0
41
0.0
42
0.0
10
81.9481964111328
20
82.0673980712891
40
0.0
41
0.0
42
0.0
10
81.8859024047852
20
82.0847015380859
40
0.0
41
0.0
42
0.0
10
81.5167999267578
20
82.1985015869141
40
0.0
41
0.0
42
0.0
10
81.4820022583008
20
82.1985015869141
40
0.0
41
0.0
42
0.0
10
81.413200378418
20
82.1849975585938
40
0.0
41
0.0
42
0.0
10
81.0195007324219
20
82.2018966674805
40
0.0
41
0.0
42
0.0
10
80.9851989746094
20
82.2017974853516
40
0.0
41
0.0
42
0.0
10
80.9117965698242
20
82.1630020141602
40
0.0
41
0.0
42
0.0
10
80.4898986816406
20
82.0897979736328
40
0.0
41
0.0
42
0.0
10
80.4627990722656
20
82.0635986328125
40
0.0
41
0.0
42
0.0
10
80.3072967529297
20
82.0029983520508
40
0.0
41
0.0
42
0.0
10
80.2872009277344
20
81.9688034057617
40
0.0
41
0.0
42
0.0
10
79.9928970336914
20
81.8215026855469
40
0.0
41
0.0
42
0.0
10
79.6275024414062
20
81.5081024169922
40
0.0
41
0.0
42
0.0
10
79.6178970336914
20
81.4763031005859
40
0.0
41
0.0
42
0.0
10
79.5774993896484
20
81.4106979370117
40
0.0
41
0.0
42
0.0
10
79.4969024658203
20
81.3151016235352
40
0.0
41
0.0
42
0.0
10
79.3033981323242
20
81.0093994140625
40
0.0
41
0.0
42
0.0
10
79.0955963134766
20
80.6126022338867
40
0.0
41
0.0
42
0.0
10
79.049201965332
20
80.5109024047852
40
0.0
41
0.0
42
0.0
10
78.9987030029297
20
80.4096984863281
40
0.0
41
0.0
42
0.0
10
78.7891006469727
20
80.0092010498047
40
0.0
41
0.0
42
0.0
10
78.6023025512695
20
79.7329025268555
40
0.0
41
0.0
42
0.0
10
78.4972991943359
20
79.5841979980469
40
0.0
41
0.0
42
0.0
10
78.447998046875
20
79.5075988769531
40
0.0
41
0.0
42
0.0
10
78.2453994750977
20
79.258903503418
40
0.0
41
0.0
42
0.0
10
78.0326995849609
20
79.0038986206055
40
0.0
41
0.0
42
0.0
10
77.9918975830078
20
78.9782028198242
40
0.0
41
0.0
42
0.0
10
77.980598449707
20
78.969596862793
40
0.0
41
0.0
42
0.0
10
77.5913009643555
20
78.5058975219727
40
0.0
41
0.0
42
0.0
10
77.518798828125
20
78.4303970336914
40
0.0
41
0.0
42
0.0
10
77.4934997558594
20
78.4141998291016
40
0.0
41
0.0
42
0.0
10
77.4744033813477
20
78.3974990844727
40
0.0
41
0.0
42
0.0
10
77.1911010742188
20
78.0074996948242
40
0.0
41
0.0
42
0.0
10
77.0240020751953
20
77.7853012084961
40
0.0
41
0.0
42
0.0
10
76.9953002929688
20
77.7590026855469
40
0.0
41
0.0
42
0.0
10
76.9591979980469
20
77.7137985229492
40
0.0
41
0.0
42
0.0
10
76.842903137207
20
77.5100021362305
40
0.0
41
0.0
42
0.0
10
76.6240005493164
20
77.0842971801758
40
0.0
41
0.0
42
0.0
10
76.5739974975586
20
77.0086975097656
40
0.0
41
0.0
42
0.0
10
76.4869003295898
20
76.8665008544922
40
0.0
41
0.0
42
0.0
10
76.3721008300781
20
76.5867004394531
40
0.0
41
0.0
42
0.0
10
76.3404006958008
20
76.5155029296875
40
0.0
41
0.0
42
0.0
10
76.3403015136719
20
76.4856033325195
40
0.0
41
0.0
42
0.0
10
76.4458999633789
20
76.3044967651367
40
0.0
41
0.0
42
0.0
10
76.0001983642578
20
76.0102996826172
40
0.0
41
0.0
42
0.0
210
0.0
220
0.0
230
1.0
0
LWPOLYLINE
5
2F
330
1C
100
AcDbEntity
67
0
8
0
62
256
6
ByLayer
370
-1
48
1.0
60
0
100
AcDbPolyline
90
100
70
1
38
0.0
39
0.0
10
76.2490005493164
20
73.4121017456055
40
0.0
41
0.0
42
0.0
10
76.3442993164062
20
72.9857025146484
40
0.0
41
0.0
42
0.0
10
76.3702011108398
20
72.9128036499023
40
0.0
41
0.0
42
0.0
10
76.4268035888672
20
72.7872009277344
40
0.0
41
0.0
42
0.0
10
76.4989013671875
20
72.6029968261719
40
0.0
41
0.0
42
0.0
10
76.5634002685547
20
72.4906997680664
40
0.0
41
0.0
42
0.0
10
76.5904006958008
20
72.4471969604492
40
0.0
41
0.0
42
0.0
10
76.6128005981445
20
72.4154968261719
40
0.0
41
0.0
42
0.0
10
76.8135986328125
20
71.9912033081055
40
0.0
41
0.0
42
0.0
10
76.8664016723633
20
71.926399230957
40
0.0
41
0.0
42
0.0
10
76.9996032714844
20
71.6918029785156
40
0.0
41
0.0
42
0.0
10
77.1360015869141
20
71.5037002563477
40
0.0
41
0.0
42
0.0
10
77.1957015991211
20
71.450798034668
40
0.0
41
0.0
42
0.0
10
77.4964981079102
20
71.0113983154297
40
0.0
41
0.0
42
0.0
10
77.5026016235352
20
71.0046005249023
40
0.0
41
0.0
42
0.0
10
77.5171966552734
20
70.9955978393555
40
0.0
41
0.0
42
0.0
10
77.8566970825195
20
70.5302963256836
40
0.0
41
0.0
42
0.0
10
77.8780975341797
20
70.5129013061523
40
0.0
41
0.0
42
0.0
10
77.8954010009766
20
70.4921035766602
40
0.0
41
0.0
42
0.0
10
77.9964981079102
20
70.3234024047852
40
0.0
41
0.0
42
0.0
10
78.0310974121094
20
70.2898025512695
40
0.0
41
0.0
42
0.0
10
78.2098007202148
20
70.0167999267578
40
0.0
41
0.0
42
0.0
10
78.2244033813477
20
69.9893035888672
40
0.0
41
0.0
42
0.0
10
78.4620971679688
20
69.4882965087891
40
0.0
41
0.0
42
0.0
10
78.4991989135742
20
69.3951034545898
40
0.0
41
0.0
42
0.0
10
78.5330963134766
20
69.3193969726562
40
0.0
41
0.0
42
0.0
10
78.5352020263672
20
69.3078994750977
40
0.0
41
0.0
42
0.0
10
78.6656036376953
20
69.0095977783203
40
0.0
41
0.0
42
0.0
10
78.6697998046875
20
68.9860992431641
40
0.0
41
0.0
42
0.0
10
78.8719024658203
20
68.5270004272461
40
0.0
41
0.0
42
0.0
10
78.8800964355469
20
68.4877014160156
40
0.0
41
0.0
42
0.0
10
78.997200012207
20
68.2926025390625
40
0.0
41
0.0
42
0.0
10
79.1766967773438
20
68.0632019042969
40
0.0
41
0.0
42
0.0
10
79.2036972045898
20
68.0229034423828
40
0.0
41
0.0
42
0.0
10
79.2100982666016
20
67.9853973388672
40
0.0
41
0.0
42
0.0
10
79.2354965209961
20
67.9169006347656
40
0.0
41
0.0
42
0.0
10
79.2649002075195
20
67.8898010253906
40
0.0
41
0.0
42
0.0
10
79.4917984008789
20
67.6946029663086
40
0.0
41
0.0
42
0.0
10
79.8603973388672
20
67.4990005493164
40
0.0
41
0.0
42
0.0
10
79.8849029541016
20
67.4888000488281
40
0.0
41
0.0
42
0.0
10
79.9897003173828
20
67.4056015014648
40
0.0
41
0.0
42
0.0
10
80.1025009155273
20
67.3735961914062
40
0.0
41
0.0
42
0.0
10
80.4830017089844
20
67.2910003662109
40
0.0
41
0.0
42
0.0
10
80.6126022338867
20
67.280403137207
40
0.0
41
0.0
42
0.0
10
81.0169982910156
20
67.2810974121094
40
0.0
41
0.0
42
0.0
10
81.4080963134766
20
67.3930969238281
40
0.0
41
0.0
42
0.0
10
81.5121002197266
20
67.4088973999023
40
0.0
41
0.0
42
0.0
10
81.6405029296875
20
67.4962005615234
40
0.0
41
0.0
42
0.0
10
82.0025024414062
20
67.8569030761719
40
0.0
41
0.0
42
0.0
10
82.0644989013672
20
67.9851989746094
40
0.0
41
0.0
42
0.0
10
82.0673980712891
20
68.0516967773438
40
0.0
41
0.0
42
0.0
10
82.0847015380859
20
68.113899230957
40
0.0
41
0.0
42
0.0
10
82.1985015869141
20
68.4831008911133
40
0.0
41
0.0
42
0.0
10
82.1984024047852
20
68.5178985595703
40
0.0
41
0.0
42
0.0
10
82.1849975585938
20
68.5865020751953
40
0.0
41
0.0
42
0.0
10
82.2018966674805
20
68.9804000854492
40
0.0
41
0.0
42
0.0
10
82.2017974853516
20
69.0147018432617
40
0.0
41
0.0
42
0.0
10
82.1630020141602
20
69.0880966186523
40
0.0
41
0.0
42
0.0
10
82.0896987915039
20
69.5100021362305
40
0.0
41
0.0
42
0.0
10
82.0635986328125
20
69.5369033813477
40
0.0
41
0.0
42
0.0
10
82.0028991699219
20
69.6923980712891
40
0.0
41
0.0
42
0.0
10
81.9686965942383
20
69.7126007080078
40
0.0
41
0.0
42
0.0
10
81.8215026855469
20
70.0068969726562
40
0.0
41
0.0
42
0.0
10
81.5066986083984
20
70.3735961914062
40
0.0
41
0.0
42
0.0
10
81.4113998413086
20
70.4216003417969
40
0.0
41
0.0
42
0.0
10
81.3151016235352
20
70.5028991699219
40
0.0
41
0.0
42
0.0
10
81.0093994140625
20
70.6962966918945
40
0.0
41
0.0
42
0.0
10
80.6126022338867
20
70.9040985107422
40
0.0
41
0.0
42
0.0
10
80.5119018554688
20
70.9498977661133
40
0.0
41
0.0
42
0.0
10
80.4740982055664
20
70.9638977050781
40
0.0
41
0.0
42
0.0
10
80.4091033935547
20
71.0014038085938
40
0.0
41
0.0
42
0.0
10
80.0092010498047
20
71.2107009887695
40
0.0
41
0.0
42
0.0
10
79.7329025268555
20
71.3973999023438
40
0.0
41
0.0
42
0.0
10
79.5841979980469
20
71.5025024414062
40
0.0
41
0.0
42
0.0
10
79.5075988769531
20
71.5516967773438
40
0.0
41
0.0
42
0.0
10
79.2587966918945
20
71.7544021606445
40
0.0
41
0.0
42
0.0
10
79.0038986206055
20
71.9671020507812
40
0.0
41
0.0
42
0.0
10
78.9781036376953
20
72.0078964233398
40
0.0
41
0.0
42
0.0
10
78.969596862793
20
72.0190963745117
40
0.0
41
0.0
42
0.0
10
78.5058975219727
20
72.4085006713867
40
0.0
41
0.0
42
0.0
10
78.4303970336914
20
72.4811019897461
40
0.0
41
0.0
42
0.0
10
78.4134979248047
20
72.5072021484375
40
0.0
41
0.0
42
0.0
10
78.3974990844727
20
72.5252990722656
40
0.0
41
0.0
42
0.0
10
78.0074005126953
20
72.8086013793945
40
0.0
41
0.0
42
0.0
10
77.7852020263672
20
72.975700378418
40
0.0
41
0.0
42
0.0
10
77.758903503418
20
73.0045013427734
40
0.0
41
0.0
42
0.0
10
77.7137985229492
20
73.0404968261719
40
0.0
41
0.0
42
0.0
10
77.5099029541016
20
73.1567993164062
40
0.0
41
0.0
42
0.0
10
77.0841979980469
20
73.3757019042969
40
0.0
41
0.0
42
0.0
10
77.0085983276367
20
73.4259033203125
40
0.0
41
0.0
42
0.0
10
76.8665008544922
20
73.5128021240234
40
0.0
41
0.0
42
0.0
10
76.5867004394531
20
73.6276016235352
40
0.0
41
0.0
42
0.0
10
76.5093994140625
20
73.6620025634766
40
0.0
41
0.0
42
0.0
10
76.4713973999023
20
73.6892013549805
40
0.0
41
0.0
42
0.0
10
76.4473037719727
20
73.6892013549805
40
0.0
41
0.0
42
0.0
10
76.3695983886719
20
73.6054000854492
40
0.0
41
0.0
42
0.0
10
76.2023010253906
20
73.5078964233398
40
0.0
41
0.0
42
0.0
10
76.2021026611328
20
73.4873962402344
40
0.0
41
0.0
42
0.0
10
76.2248001098633
20
73.4598007202148
40
0.0
41
0.0
42
0.0
10
76.2490005493164
20
73.4121017456055
40
0.0
41
0.0
42
0.0
210
0.0
220
0.0
230
1.0
0
LWPOLYLINE
5
30
330
1C
100
AcDbEntity
67
0
8
0
62
256
6
ByLayer
370
-1
48
1.0
60
0
100
AcDbPolyline
90
83
70
1
38
0.0
39
0.0
10
76.4887008666992
20
74.9760971069336
40
0.0
41
0.0
42
0.0
10
76.55419921875
20
74.9337997436523
40
0.0
41
0.0
42
0.0
10
76.989501953125
20
74.7778015136719
40
0.0
41
0.0
42
0.0
10
77.4151992797852
20
74.4916000366211
40
0.0
41
0.0
42
0.0
10
77.4878997802734
20
74.4595031738281
40
0.0
41
0.0
42
0.0
10
77.9114990234375
20
74.2988967895508
40
0.0
41
0.0
42
0.0
10
78.4096984863281
20
74.1567001342773
40
0.0
41
0.0
42
0.0
10
78.4841995239258
20
74.1435012817383
40
0.0
41
0.0
42
0.0
10
78.9077987670898
20
74.0451965332031
40
0.0
41
0.0
42
0.0
10
78.9804992675781
20
74.0418014526367
40
0.0
41
0.0
42
0.0
10
79.0190963745117
20
74.0417022705078
40
0.0
41
0.0
42
0.0
10
79.0493011474609
20
74.0439987182617
40
0.0
41
0.0
42
0.0
10
79.2907028198242
20
74.000602722168
40
0.0
41
0.0
42
0.0
10
79.4834976196289
20
73.9626007080078
40
0.0
41
0.0
42
0.0
10
79.9264984130859
20
73.8955001831055
40
0.0
41
0.0
42
0.0
10
79.9878997802734
20
73.8962020874023
40
0.0
41
0.0
42
0.0
10
80.4194030761719
20
73.8167037963867
40
0.0
41
0.0
42
0.0
10
80.4830017089844
20
73.8153991699219
40
0.0
41
0.0
42
0.0
10
80.9244003295898
20
73.6941986083984
40
0.0
41
0.0
42
0.0
10
80.9850006103516
20
73.6865997314453
40
0.0
41
0.0
42
0.0
10
81.3490982055664
20
73.5484008789062
40
0.0
41
0.0
42
0.0
10
81.4728012084961
20
73.4992980957031
40
0.0
41
0.0
42
0.0
10
81.9901962280273
20
73.2751998901367
40
0.0
41
0.0
42
0.0
10
82.0243988037109
20
73.2511978149414
40
0.0
41
0.0
42
0.0
10
82.4845962524414
20
73.0998992919922
40
0.0
41
0.0
42
0.0
10
82.9474029541016
20
73.0413970947266
40
0.0
41
0.0
42
0.0
10
82.9866027832031
20
73.0139999389648
40
0.0
41
0.0
42
0.0
10
83.2564010620117
20
73.0108032226562
40
0.0
41
0.0
42
0.0
10
83.5167007446289
20
73.0497970581055
40
0.0
41
0.0
42
0.0
10
83.6417999267578
20
73.0699996948242
40
0.0
41
0.0
42
0.0
10
84.0100021362305
20
73.2325973510742
40
0.0
41
0.0
42
0.0
10
84.3119964599609
20
73.4246978759766
40
0.0
41
0.0
42
0.0
10
84.4164962768555
20
73.4962997436523
40
0.0
41
0.0
42
0.0
10
84.5046005249023
20
73.5821990966797
40
0.0
41
0.0
42
0.0
10
84.8565979003906
20
73.9906997680664
40
0.0
41
0.0
42
0.0
10
84.9990005493164
20
74.3988037109375
40
0.0
41
0.0
42
0.0
10
84.9989013671875
20
74.7287979125977
40
0.0
41
0.0
42
0.0
10
84.9795989990234
20
74.8898010253906
40
0.0
41
0.0
42
0.0
10
84.9689025878906
20
75.013298034668
40
0.0
41
0.0
42
0.0
10
84.9079971313477
20
75.1156005859375
40
0.0
41
0.0
42
0.0
10
84.6985015869141
20
75.5074996948242
40
0.0
41
0.0
42
0.0
10
84.5809020996094
20
75.6318969726562
40
0.0
41
0.0
42
0.0
10
84.5065994262695
20
75.6874008178711
40
0.0
41
0.0
42
0.0
10
84.1507034301758
20
76.0034027099609
40
0.0
41
0.0
42
0.0
10
84.0855026245117
20
76.0485992431641
40
0.0
41
0.0
42
0.0
10
84.0167999267578
20
76.0711975097656
40
0.0
41
0.0
42
0.0
10
83.9532012939453
20
76.0700988769531
40
0.0
41
0.0
42
0.0
10
83.5139007568359
20
76.2679977416992
40
0.0
41
0.0
42
0.0
10
83.0532989501953
20
76.3404998779297
40
0.0
41
0.0
42
0.0
10
83.0188980102539
20
76.3404998779297
40
0.0
41
0.0
42
0.0
10
82.9849014282227
20
76.3273010253906
40
0.0
41
0.0
42
0.0
10
82.5229034423828
20
76.2791976928711
40
0.0
41
0.0
42
0.0
10
82.4878005981445
20
76.2605972290039
40
0.0
41
0.0
42
0.0
10
82.0557022094727
20
76.1400985717773
40
0.0
41
0.0
42
0.0
10
81.9875030517578
20
76.1110000610352
40
0.0
41
0.0
42
0.0
10
81.6461029052734
20
75.9951019287109
40
0.0
41
0.0
42
0.0
10
81.4862976074219
20
75.9391021728516
40
0.0
41
0.0
42
0.0
10
81.0389022827148
20
75.8119964599609
40
0.0
41
0.0
42
0.0
10
80.5500030517578
20
75.7239990234375
40
0.0
41
0.0
42
0.0
10
80.4813003540039
20
75.7216033935547
40
0.0
41
0.0
42
0.0
10
80.0678024291992
20
75.6815032958984
40
0.0
41
0.0
42
0.0
10
80.0193023681641
20
75.6845016479492
40
0.0
41
0.0
42
0.0
10
79.980598449707
20
75.6844024658203
40
0.0
41
0.0
42
0.0
10
79.5672988891602
20
75.6583023071289
40
0.0
41
0.0
42
0.0
10
79.5167999267578
20
75.6641006469727
40
0.0
41
0.0
42
0.0
10
79.4830017089844
20
75.6706008911133
40
0.0
41
0.0
42
0.0
10
79.44580078125
20
75.6705017089844
40
0.0
41
0.0
42
0.0
10
78.9999008178711
20
75.6331024169922
40
0.0
41
0.0
42
0.0
10
78.9457015991211
20
75.6342010498047
40
0.0
41
0.0
42
0.0
10
78.9075012207031
20
75.6307983398438
40
0.0
41
0.0
42
0.0
10
78.4869995117188
20
75.5643005371094
40
0.0
41
0.0
42
0.0
10
78.4091033935547
20
75.5561981201172
40
0.0
41
0.0
42
0.0
10
78.216796875
20
75.4980010986328
40
0.0
41
0.0
42
0.0
10
77.9688034057617
20
75.4284973144531
40
0.0
41
0.0
42
0.0
10
77.9106979370117
20
75.4149017333984
40
0.0
41
0.0
42
0.0
10
77.486198425293
20
75.2746963500977
40
0.0
41
0.0
42
0.0
10
76.9852981567383
20
75.1277008056641
40
0.0
41
0.0
42
0.0
10
76.9096984863281
20
75.1097030639648
40
0.0
41
0.0
42
0.0
10
76.484001159668
20
75.0160980224609
40
0.0
41
0.0
42
0.0
10
76.4057998657227
20
75.0022964477539
40
0.0
41
0.0
42
0.0
10
76.4057006835938
20
74.9974975585938
40
0.0
41
0.0
42
0.0
10
76.4276962280273
20
74.9934997558594
40
0.0
41
0.0
42
0.0
10
76.4887008666992
20
74.9760971069336
40
0.0
41
0.0
42
0.0
210
0.0
220
0.0
230
1.0
0
LWPOLYLINE
5
31
330
1C
100
AcDbEntity
67
0
8
0
62
256
6
ByLayer
370
-1
48
1.0
60
0
100
AcDbPolyline
90
92
70
1
38
0.0
39
0.0
10
76.4798965454102
20
73.6498031616211
40
0.0
41
0.0
42
0.0
10
76.8320999145508
20
73.5039978027344
40
0.0
41
0.0
42
0.0
10
76.9913024902344
20
73.4060974121094
40
0.0
41
0.0
42
0.0
10
77.0255966186523
20
73.38330078125
40
0.0
41
0.0
42
0.0
10
77.4898986816406
20
73.144401550293
40
0.0
41
0.0
42
0.0
10
77.7169036865234
20
73.0151977539062
40
0.0
41
0.0
42
0.0
10
77.74169921875
20
72.9953002929688
40
0.0
41
0.0
42
0.0
10
77.7542037963867
20
72.9814987182617
40
0.0
41
0.0
42
0.0
10
77.9924011230469
20
72.802001953125
40
0.0
41
0.0
42
0.0
10
78.3522033691406
20
72.5407028198242
40
0.0
41
0.0
42
0.0
10
78.3947982788086
20
72.4925994873047
40
0.0
41
0.0
42
0.0
10
78.4292984008789
20
72.4387969970703
40
0.0
41
0.0
42
0.0
10
78.493896484375
20
72.3768005371094
40
0.0
41
0.0
42
0.0
10
78.9203033447266
20
72.0186996459961
40
0.0
41
0.0
42
0.0
10
78.940299987793
20
71.9917984008789
40
0.0
41
0.0
42
0.0
10
78.9959030151367
20
71.9037017822266
40
0.0
41
0.0
42
0.0
10
79.4870986938477
20
71.495002746582
40
0.0
41
0.0
42
0.0
10
79.4940032958984
20
71.4870986938477
40
0.0
41
0.0
42
0.0
10
79.8003997802734
20
71.2716979980469
40
0.0
41
0.0
42
0.0
10
79.9906997680664
20
71.1432037353516
40
0.0
41
0.0
42
0.0
10
80.2677993774414
20
70.9982986450195
40
0.0
41
0.0
42
0.0
10
80.4075012207031
20
70.9175033569336
40
0.0
41
0.0
42
0.0
10
80.4878997802734
20
70.8878021240234
40
0.0
41
0.0
42
0.0
10
80.7004013061523
20
70.7911987304688
40
0.0
41
0.0
42
0.0
10
80.9904022216797
20
70.6392974853516
40
0.0
41
0.0
42
0.0
10
81.2154998779297
20
70.4969024658203
40
0.0
41
0.0
42
0.0
10
81.2839965820312
20
70.4390029907227
40
0.0
41
0.0
42
0.0
10
81.4931030273438
20
70.3337020874023
40
0.0
41
0.0
42
0.0
10
81.7892990112305
20
69.9889984130859
40
0.0
41
0.0
42
0.0
10
81.9208984375
20
69.7256011962891
40
0.0
41
0.0
42
0.0
10
81.9968032836914
20
69.6809997558594
40
0.0
41
0.0
42
0.0
10
82.0651016235352
20
69.5056991577148
40
0.0
41
0.0
42
0.0
10
82.0800018310547
20
69.4896011352539
40
0.0
41
0.0
42
0.0
10
82.1613006591797
20
69.0217971801758
40
0.0
41
0.0
42
0.0
10
82.1792984008789
20
68.9877014160156
40
0.0
41
0.0
42
0.0
10
82.1607971191406
20
68.5544967651367
40
0.0
41
0.0
42
0.0
10
82.1606979370117
20
68.5170974731445
40
0.0
41
0.0
42
0.0
10
82.1635971069336
20
68.5036010742188
40
0.0
41
0.0
42
0.0
10
82.0397033691406
20
68.1016998291016
40
0.0
41
0.0
42
0.0
10
82.0220031738281
20
68.0380020141602
40
0.0
41
0.0
42
0.0
10
82.0210037231445
20
68.0147018432617
40
0.0
41
0.0
42
0.0
10
81.9972991943359
20
67.9654006958008
40
0.0
41
0.0
42
0.0
10
81.5337982177734
20
67.5037002563477
40
0.0
41
0.0
42
0.0
10
81.4879989624023
20
67.4723968505859
40
0.0
41
0.0
42
0.0
10
81.4492034912109
20
67.4661026000977
40
0.0
41
0.0
42
0.0
10
80.9829025268555
20
67.3327026367188
40
0.0
41
0.0
42
0.0
10
80.5794982910156
20
67.331901550293
40
0.0
41
0.0
42
0.0
10
80.5167999267578
20
67.3370971679688
40
0.0
41
0.0
42
0.0
10
80.0696029663086
20
67.4340972900391
40
0.0
41
0.0
42
0.0
10
80.0102005004883
20
67.4508972167969
40
0.0
41
0.0
42
0.0
10
79.9598007202148
20
67.4908981323242
40
0.0
41
0.0
42
0.0
10
79.9355010986328
20
67.5009002685547
40
0.0
41
0.0
42
0.0
10
79.5080032348633
20
67.7279968261719
40
0.0
41
0.0
42
0.0
10
79.2251968383789
20
67.9720001220703
40
0.0
41
0.0
42
0.0
10
79.2098007202148
20
68.0145034790039
40
0.0
41
0.0
42
0.0
10
79.1974029541016
20
68.0868988037109
40
0.0
41
0.0
42
0.0
10
79.1488037109375
20
68.1595001220703
40
0.0
41
0.0
42
0.0
10
79.0025024414062
20
68.3462982177734
40
0.0
41
0.0
42
0.0
10
78.9029998779297
20
68.5121994018555
40
0.0
41
0.0
42
0.0
10
78.8845977783203
20
68.6005020141602
40
0.0
41
0.0
42
0.0
10
78.7026977539062
20
69.013801574707
40
0.0
41
0.0
42
0.0
10
78.6939010620117
20
69.0643005371094
40
0.0
41
0.0
42
0.0
10
78.5746994018555
20
69.3369979858398
40
0.0
41
0.0
42
0.0
10
78.5703964233398
20
69.3612976074219
40
0.0
41
0.0
42
0.0
10
78.4468002319336
20
69.6337966918945
40
0.0
41
0.0
42
0.0
10
78.2674026489258
20
70.010498046875
40
0.0
41
0.0
42
0.0
10
78.2384033203125
20
70.0653991699219
40
0.0
41
0.0
42
0.0
10
78.0782012939453
20
70.3104019165039
40
0.0
41
0.0
42
0.0
10
78.0633010864258
20
70.3272018432617
40
0.0
41
0.0
42
0.0
10
78.0034027099609
20
70.3821029663086
40
0.0
41
0.0
42
0.0
10
77.9281005859375
20
70.507698059082
40
0.0
41
0.0
42
0.0
10
77.8984985351562
20
70.5434036254883
40
0.0
41
0.0
42
0.0
10
77.8524017333984
20
70.5802993774414
40
0.0
41
0.0
42
0.0
10
77.543098449707
20
71.0040969848633
40
0.0
41
0.0
42
0.0
10
77.5146026611328
20
71.021598815918
40
0.0
41
0.0
42
0.0
10
77.503303527832
20
71.0342025756836
40
0.0
41
0.0
42
0.0
10
77.2186965942383
20
71.4499969482422
40
0.0
41
0.0
42
0.0
10
77.193603515625
20
71.478401184082
40
0.0
41
0.0
42
0.0
10
77.1577987670898
20
71.5101013183594
40
0.0
41
0.0
42
0.0
10
77.002197265625
20
71.72509765625
40
0.0
41
0.0
42
0.0
10
76.8592987060547
20
71.9774017333984
40
0.0
41
0.0
42
0.0
10
76.8339004516602
20
72.0086975097656
40
0.0
41
0.0
42
0.0
10
76.6134033203125
20
72.4746017456055
40
0.0
41
0.0
42
0.0
10
76.5908966064453
20
72.508903503418
40
0.0
41
0.0
42
0.0
10
76.5009002685547
20
72.6657028198242
40
0.0
41
0.0
42
0.0
10
76.4021987915039
20
72.9179992675781
40
0.0
41
0.0
42
0.0
10
76.375602722168
20
72.9770965576172
40
0.0
41
0.0
42
0.0
10
76.3625030517578
20
73.0140991210938
40
0.0
41
0.0
42
0.0
10
76.2587966918945
20
73.477897644043
40
0.0
41
0.0
42
0.0
10
76.2481002807617
20
73.499397277832
40
0.0
41
0.0
42
0.0
10
76.4489974975586
20
73.6165008544922
40
0.0
41
0.0
42
0.0
10
76.4798965454102
20
73.6498031616211
40
0.0
41
0.0
42
0.0
210
0.0
220
0.0
230
1.0
0
LWPOLYLINE
5
32
330
1C
100
AcDbEntity
67
0
8
0
62
256
6
ByLayer
370
-1
48
1.0
60
0
100
AcDbPolyline
90
94
70
1
38
0.0
39
0.0
10
76.4956970214844
20
76.8320999145508
40
0.0
41
0.0
42
0.0
10
76.5936965942383
20
76.9913024902344
40
0.0
41
0.0
42
0.0
10
76.6164016723633
20
77.0255966186523
40
0.0
41
0.0
42
0.0
10
76.8552017211914
20
77.4899978637695
40
0.0
41
0.0
42
0.0
10
76.9847030639648
20
77.7169036865234
40
0.0
41
0.0
42
0.0
10
77.0046005249023
20
77.7417984008789
40
0.0
41
0.0
42
0.0
10
77.0182037353516
20
77.7542037963867
40
0.0
41
0.0
42
0.0
10
77.1977996826172
20
77.9924011230469
40
0.0
41
0.0
42
0.0
10
77.459098815918
20
78.3523025512695
40
0.0
41
0.0
42
0.0
10
77.5073013305664
20
78.3947982788086
40
0.0
41
0.0
42
0.0
10
77.5608978271484
20
78.4293975830078
40
0.0
41
0.0
42
0.0
10
77.6229019165039
20
78.4940032958984
40
0.0
41
0.0
42
0.0
10
77.9810028076172
20
78.9204025268555
40
0.0
41
0.0
42
0.0
10
78.0081024169922
20
78.940299987793
40
0.0
41
0.0
42
0.0
10
78.0960006713867
20
78.9959030151367
40
0.0
41
0.0
42
0.0
10
78.5047988891602
20
79.4870986938477
40
0.0
41
0.0
42
0.0
10
78.5126037597656
20
79.4940032958984
40
0.0
41
0.0
42
0.0
10
78.7279968261719
20
79.8004989624023
40
0.0
41
0.0
42
0.0
10
78.8564987182617
20
79.9907989501953
40
0.0
41
0.0
42
0.0
10
79.0011978149414
20
80.2673034667969
40
0.0
41
0.0
42
0.0
10
79.1123962402344
20
80.4889984130859
40
0.0
41
0.0
42
0.0
10
79.2085037231445
20
80.7004013061523
40
0.0
41
0.0
42
0.0
10
79.3603973388672
20
80.9905014038086
40
0.0
41
0.0
42
0.0
10
79.5029983520508
20
81.2154998779297
40
0.0
41
0.0
42
0.0
10
79.5613021850586
20
81.2846984863281
40
0.0
41
0.0
42
0.0
10
79.640998840332
20
81.4135971069336
40
0.0
41
0.0
42
0.0
10
79.6645965576172
20
81.4918975830078
40
0.0
41
0.0
42
0.0
10
80.0109024047852
20
81.7892990112305
40
0.0
41
0.0
42
0.0
10
80.2741012573242
20
81.9209976196289
40
0.0
41
0.0
42
0.0
10
80.3188018798828
20
81.9968032836914
40
0.0
41
0.0
42
0.0
10
80.4941024780273
20
82.0652008056641
40
0.0
41
0.0
42
0.0
10
80.5102996826172
20
82.0800018310547
40
0.0
41
0.0
42
0.0
10
80.9781036376953
20
82.1613998413086
40
0.0
41
0.0
42
0.0
10
81.0121994018555
20
82.1792984008789
40
0.0
41
0.0
42
0.0
10
81.4453964233398
20
82.1607971191406
40
0.0
41
0.0
42
0.0
10
81.4826965332031
20
82.1606979370117
40
0.0
41
0.0
42
0.0
10
81.4962005615234
20
82.1634979248047
40
0.0
41
0.0
42
0.0
10
81.8982009887695
20
82.0397033691406
40
0.0
41
0.0
42
0.0
10
81.961799621582
20
82.0220031738281
40
0.0
41
0.0
42
0.0
10
81.9851989746094
20
82.0210037231445
40
0.0
41
0.0
42
0.0
10
82.0344009399414
20
81.9972991943359
40
0.0
41
0.0
42
0.0
10
82.4951019287109
20
81.5346984863281
40
0.0
41
0.0
42
0.0
10
82.5170974731445
20
81.5105972290039
40
0.0
41
0.0
42
0.0
10
82.5276031494141
20
81.4858016967773
40
0.0
41
0.0
42
0.0
10
82.5335998535156
20
81.4490966796875
40
0.0
41
0.0
42
0.0
10
82.6669998168945
20
80.9829025268555
40
0.0
41
0.0
42
0.0
10
82.6678009033203
20
80.5794982910156
40
0.0
41
0.0
42
0.0
10
82.6626968383789
20
80.5167999267578
40
0.0
41
0.0
42
0.0
10
82.5656967163086
20
80.0697021484375
40
0.0
41
0.0
42
0.0
10
82.5487976074219
20
80.0102005004883
40
0.0
41
0.0
42
0.0
10
82.508903503418
20
79.9598007202148
40
0.0
41
0.0
42
0.0
10
82.4990005493164
20
79.9356002807617
40
0.0
41
0.0
42
0.0
10
82.2717971801758
20
79.5080032348633
40
0.0
41
0.0
42
0.0
10
82.0279006958008
20
79.2251968383789
40
0.0
41
0.0
42
0.0
10
81.9853973388672
20
79.2098007202148
40
0.0
41
0.0
42
0.0
10
81.9129028320312
20
79.1975021362305
40
0.0
41
0.0
42
0.0
10
81.8403015136719
20
79.1488037109375
40
0.0
41
0.0
42
0.0
10
81.6535034179688
20
79.0026016235352
40
0.0
41
0.0
42
0.0
10
81.4877014160156
20
78.9029998779297
40
0.0
41
0.0
42
0.0
10
81.399299621582
20
78.8845977783203
40
0.0
41
0.0
42
0.0
10
80.9860000610352
20
78.7026977539062
40
0.0
41
0.0
42
0.0
10
80.9354019165039
20
78.6939010620117
40
0.0
41
0.0
42
0.0
10
80.6628036499023
20
78.5746994018555
40
0.0
41
0.0
42
0.0
10
80.6384963989258
20
78.5703964233398
40
0.0
41
0.0
42
0.0
10
80.3659973144531
20
78.4468994140625
40
0.0
41
0.0
42
0.0
10
79.9894027709961
20
78.2674026489258
40
0.0
41
0.0
42
0.0
10
79.9344024658203
20
78.2385025024414
40
0.0
41
0.0
42
0.0
10
79.6893997192383
20
78.0782012939453
40
0.0
41
0.0
42
0.0
10
79.6725006103516
20
78.0634002685547
40
0.0
41
0.0
42
0.0
10
79.6176986694336
20
78.0034027099609
40
0.0
41
0.0
42
0.0
10
79.4921035766602
20
77.9281997680664
40
0.0
41
0.0
42
0.0
10
79.456298828125
20
77.8985977172852
40
0.0
41
0.0
42
0.0
10
79.4196014404297
20
77.8525009155273
40
0.0
41
0.0
42
0.0
10
78.9955978393555
20
77.543098449707
40
0.0
41
0.0
42
0.0
10
78.9781036376953
20
77.5146026611328
40
0.0
41
0.0
42
0.0
10
78.9654998779297
20
77.5034027099609
40
0.0
41
0.0
42
0.0
10
78.5497970581055
20
77.2188034057617
40
0.0
41
0.0
42
0.0
10
78.5213012695312
20
77.193603515625
40
0.0
41
0.0
42
0.0
10
78.4897003173828
20
77.1577987670898
40
0.0
41
0.0
42
0.0
10
78.2746963500977
20
77.0022964477539
40
0.0
41
0.0
42
0.0
10
78.0223007202148
20
76.8593978881836
40
0.0
41
0.0
42
0.0
10
77.9912033081055
20
76.8339996337891
40
0.0
41
0.0
42
0.0
10
77.5252990722656
20
76.6135025024414
40
0.0
41
0.0
42
0.0
10
77.4909973144531
20
76.5908966064453
40
0.0
41
0.0
42
0.0
10
77.334098815918
20
76.5009002685547
40
0.0
41
0.0
42
0.0
10
77.0818023681641
20
76.4022979736328
40
0.0
41
0.0
42
0.0
10
77.0227966308594
20
76.375602722168
40
0.0
41
0.0
42
0.0
10
76.9858016967773
20
76.3625030517578
40
0.0
41
0.0
42
0.0
10
76.5220031738281
20
76.2587966918945
40
0.0
41
0.0
42
0.0
10
76.4777984619141
20
76.236701965332
40
0.0
41
0.0
42
0.0
10
76.4776992797852
20
76.2978973388672
40
0.0
41
0.0
42
0.0
10
76.3591003417969
20
76.5012969970703
40
0.0
41
0.0
42
0.0
10
76.3690032958984
20
76.5233001708984
40
0.0
41
0.0
42
0.0
10
76.4956970214844
20
76.8320999145508
40
0.0
41
0.0
42
0.0
210
0.0
220
0.0
230
1.0
0
LWPOLYLINE
5
33
330
1C
100
AcDbEntity
67
0
8
0
62
256
6
ByLayer
370
-1
48
1.0
60
0
100
AcDbPolyline
90
79
70
1
38
0.0
39
0.0
10
77.0147018432617
20
75.1153030395508
40
0.0
41
0.0
42
0.0
10
77.5137023925781
20
75.2621994018555
40
0.0
41
0.0
42
0.0
10
77.9793014526367
20
75.415901184082
40
0.0
41
0.0
42
0.0
10
78.0070037841797
20
75.4225006103516
40
0.0
41
0.0
42
0.0
10
78.2846984863281
20
75.5000991821289
40
0.0
41
0.0
42
0.0
10
78.4809036254883
20
75.5588989257812
40
0.0
41
0.0
42
0.0
10
78.5173034667969
20
75.5625
40
0.0
41
0.0
42
0.0
10
78.9425964355469
20
75.6296997070312
40
0.0
41
0.0
42
0.0
10
78.9807968139648
20
75.6268997192383
40
0.0
41
0.0
42
0.0
10
79.0190963745117
20
75.6268005371094
40
0.0
41
0.0
42
0.0
10
79.4182968139648
20
75.6603012084961
40
0.0
41
0.0
42
0.0
10
79.4831008911133
20
75.6481018066406
40
0.0
41
0.0
42
0.0
10
79.6143035888672
20
75.63330078125
40
0.0
41
0.0
42
0.0
10
79.6524963378906
20
75.6332015991211
40
0.0
41
0.0
42
0.0
10
80.0005035400391
20
75.6549987792969
40
0.0
41
0.0
42
0.0
10
80.1355972290039
20
75.6472015380859
40
0.0
41
0.0
42
0.0
10
80.1737976074219
20
75.6472015380859
40
0.0
41
0.0
42
0.0
10
80.5186004638672
20
75.6804962158203
40
0.0
41
0.0
42
0.0
10
80.6629028320312
20
75.6855010986328
40
0.0
41
0.0
42
0.0
10
81.1315002441406
20
75.7695007324219
40
0.0
41
0.0
42
0.0
10
81.5136032104492
20
75.8781967163086
40
0.0
41
0.0
42
0.0
10
81.8545989990234
20
75.9973983764648
40
0.0
41
0.0
42
0.0
10
82.0123977661133
20
76.0511016845703
40
0.0
41
0.0
42
0.0
10
82.1604995727539
20
76.1143035888672
40
0.0
41
0.0
42
0.0
10
82.5121002197266
20
76.2123031616211
40
0.0
41
0.0
42
0.0
10
82.5924987792969
20
76.2546005249023
40
0.0
41
0.0
42
0.0
10
83.0149993896484
20
76.2987976074219
40
0.0
41
0.0
42
0.0
10
83.0811996459961
20
76.3243026733398
40
0.0
41
0.0
42
0.0
10
83.4860000610352
20
76.2605972290039
40
0.0
41
0.0
42
0.0
10
83.9117965698242
20
76.0687026977539
40
0.0
41
0.0
42
0.0
10
83.9475021362305
20
76.0599975585938
40
0.0
41
0.0
42
0.0
10
83.9879989624023
20
76.0598983764648
40
0.0
41
0.0
42
0.0
10
84.024299621582
20
76.0479965209961
40
0.0
41
0.0
42
0.0
10
84.0988998413086
20
75.9964981079102
40
0.0
41
0.0
42
0.0
10
84.4932022094727
20
75.6464004516602
40
0.0
41
0.0
42
0.0
10
84.5289001464844
20
75.6196975708008
40
0.0
41
0.0
42
0.0
10
84.649299621582
20
75.492301940918
40
0.0
41
0.0
42
0.0
10
84.8910980224609
20
75.0397033691406
40
0.0
41
0.0
42
0.0
10
84.9227981567383
20
74.9866027832031
40
0.0
41
0.0
42
0.0
10
84.9514999389648
20
74.6557006835938
40
0.0
41
0.0
42
0.0
10
84.9692001342773
20
74.507698059082
40
0.0
41
0.0
42
0.0
10
84.9001007080078
20
74.323600769043
40
0.0
41
0.0
42
0.0
10
84.7906036376953
20
74.0093002319336
40
0.0
41
0.0
42
0.0
10
84.4953002929688
20
73.6658020019531
40
0.0
41
0.0
42
0.0
10
84.3290023803711
20
73.5036010742188
40
0.0
41
0.0
42
0.0
10
84.1332015991211
20
73.3695983886719
40
0.0
41
0.0
42
0.0
10
83.9898986816406
20
73.2783966064453
40
0.0
41
0.0
42
0.0
10
83.5456008911133
20
73.0821990966797
40
0.0
41
0.0
42
0.0
10
83.0959014892578
20
73.0140991210938
40
0.0
41
0.0
42
0.0
10
83.0131988525391
20
73.0152969360352
40
0.0
41
0.0
42
0.0
10
82.9733963012695
20
73.0429000854492
40
0.0
41
0.0
42
0.0
10
82.9376983642578
20
73.0650024414062
40
0.0
41
0.0
42
0.0
10
82.5152969360352
20
73.1184997558594
40
0.0
41
0.0
42
0.0
10
82.0854034423828
20
73.2599029541016
40
0.0
41
0.0
42
0.0
10
82.0095977783203
20
73.3132019042969
40
0.0
41
0.0
42
0.0
10
81.5776977539062
20
73.5010986328125
40
0.0
41
0.0
42
0.0
10
81.5117034912109
20
73.5383987426758
40
0.0
41
0.0
42
0.0
10
81.4598999023438
20
73.5531005859375
40
0.0
41
0.0
42
0.0
10
81.3290023803711
20
73.6051025390625
40
0.0
41
0.0
42
0.0
10
81.0148010253906
20
73.7245025634766
40
0.0
41
0.0
42
0.0
10
80.8880996704102
20
73.7401962280273
40
0.0
41
0.0
42
0.0
10
80.5168991088867
20
73.8423004150391
40
0.0
41
0.0
42
0.0
10
80.3833999633789
20
73.8450012207031
40
0.0
41
0.0
42
0.0
10
80.0183029174805
20
73.9123001098633
40
0.0
41
0.0
42
0.0
10
79.8936996459961
20
73.9095001220703
40
0.0
41
0.0
42
0.0
10
79.5162963867188
20
73.9665985107422
40
0.0
41
0.0
42
0.0
10
79.35009765625
20
73.9992980957031
40
0.0
41
0.0
42
0.0
10
79.0924987792969
20
74.0466003417969
40
0.0
41
0.0
42
0.0
10
79.0547027587891
20
74.0484008789062
40
0.0
41
0.0
42
0.0
10
78.9828033447266
20
74.0466995239258
40
0.0
41
0.0
42
0.0
10
78.5157012939453
20
74.1550979614258
40
0.0
41
0.0
42
0.0
10
78.4802017211914
20
74.1613998413086
40
0.0
41
0.0
42
0.0
10
77.9783020019531
20
74.3050003051758
40
0.0
41
0.0
42
0.0
10
77.5121002197266
20
74.4817962646484
40
0.0
41
0.0
42
0.0
10
77.4748001098633
20
74.4981994628906
40
0.0
41
0.0
42
0.0
10
77.0103988647461
20
74.8105010986328
40
0.0
41
0.0
42
0.0
10
76.5195007324219
20
74.986701965332
40
0.0
41
0.0
42
0.0
10
76.5206985473633
20
75.0058975219727
40
0.0
41
0.0
42
0.0
10
77.0147018432617
20
75.1153030395508
40
0.0
41
0.0
42
0.0
210
0.0
220
0.0
230
1.0
0
LWPOLYLINE
5
34
330
1C
100
AcDbEntity
67
0
8
0
62
256
6
ByLayer
370
-1
48
1.0
60
0
100
AcDbPolyline
90
28
70
1
38
0.0
39
0.0
10
82.552001953125
20
65.0134963989258
40
0.0
41
0.0
42
0.0
10
82.552001953125
20
65.0009994506836
40
0.0
41
0.0
42
0.0
10
82.5614013671875
20
65.0009994506836
40
0.0
41
0.0
42
0.0
10
82.8974990844727
20
65.4922027587891
40
0.0
41
0.0
42
0.0
10
83.0045013427734
20
65.6360015869141
40
0.0
41
0.0
42
0.0
10
83.067497253418
20
65.689697265625
40
0.0
41
0.0
42
0.0
10
83.3582992553711
20
65.9951019287109
40
0.0
41
0.0
42
0.0
10
83.4942016601562
20
66.1128005981445
40
0.0
41
0.0
42
0.0
10
83.9340972900391
20
66.4085998535156
40
0.0
41
0.0
42
0.0
10
84.0103988647461
20
66.4502029418945
40
0.0
41
0.0
42
0.0
10
84.0647964477539
20
66.475700378418
40
0.0
41
0.0
42
0.0
10
84.1005020141602
20
66.4980010986328
40
0.0
41
0.0
42
0.0
10
84.4904022216797
20
66.7129974365234
40
0.0
41
0.0
42
0.0
10
84.5857009887695
20
66.7568969726562
40
0.0
41
0.0
42
0.0
10
84.9990005493164
20
66.9718017578125
40
0.0
41
0.0
42
0.0
10
84.9990005493164
20
66.9957962036133
40
0.0
41
0.0
42
0.0
10
84.9850997924805
20
66.9956970214844
40
0.0
41
0.0
42
0.0
10
84.5242004394531
20
66.7559967041016
40
0.0
41
0.0
42
0.0
10
84.4800033569336
20
66.7357025146484
40
0.0
41
0.0
42
0.0
10
84.0559005737305
20
66.5018005371094
40
0.0
41
0.0
42
0.0
10
84.0158996582031
20
66.4768981933594
40
0.0
41
0.0
42
0.0
10
83.9557037353516
20
66.4458999633789
40
0.0
41
0.0
42
0.0
10
83.4866027832031
20
66.1303024291992
40
0.0
41
0.0
42
0.0
10
83.3415985107422
20
66.0046997070312
40
0.0
41
0.0
42
0.0
10
83.0289001464844
20
65.6762008666992
40
0.0
41
0.0
42
0.0
10
82.9953002929688
20
65.6483001708984
40
0.0
41
0.0
42
0.0
10
82.8901977539062
20
65.507698059082
40
0.0
41
0.0
42
0.0
10
82.552001953125
20
65.0134963989258
40
0.0
41
0.0
42
0.0
210
0.0
220
0.0
230
1.0
0
LWPOLYLINE
5
35
330
1C
100
AcDbEntity
67
0
8
0
62
256
6
ByLayer
370
-1
48
1.0
60
0
100
AcDbPolyline
90
29
70
1
38
0.0
39
0.0
10
83.2436981201172
20
84.5241012573242
40
0.0
41
0.0
42
0.0
10
83.2639999389648
20
84.4800033569336
40
0.0
41
0.0
42
0.0
10
83.4980010986328
20
84.0558013916016
40
0.0
41
0.0
42
0.0
10
83.5230026245117
20
84.0156021118164
40
0.0
41
0.0
42
0.0
10
83.5350036621094
20
83.9903030395508
40
0.0
41
0.0
42
0.0
10
83.8477020263672
20
83.5259017944336
40
0.0
41
0.0
42
0.0
10
83.870002746582
20
83.4859008789062
40
0.0
41
0.0
42
0.0
10
83.9951019287109
20
83.3414993286133
40
0.0
41
0.0
42
0.0
10
84.323600769043
20
83.0289001464844
40
0.0
41
0.0
42
0.0
10
84.3515014648438
20
82.9952011108398
40
0.0
41
0.0
42
0.0
10
84.4921035766602
20
82.8901977539062
40
0.0
41
0.0
42
0.0
10
84.9863967895508
20
82.552001953125
40
0.0
41
0.0
42
0.0
10
84.9990005493164
20
82.552001953125
40
0.0
41
0.0
42
0.0
10
84.9989013671875
20
82.5613021850586
40
0.0
41
0.0
42
0.0
10
84.507698059082
20
82.8974990844727
40
0.0
41
0.0
42
0.0
10
84.3638000488281
20
83.0045013427734
40
0.0
41
0.0
42
0.0
10
84.3099975585938
20
83.0673980712891
40
0.0
41
0.0
42
0.0
10
84.0046997070312
20
83.3582000732422
40
0.0
41
0.0
42
0.0
10
83.8863983154297
20
83.4947967529297
40
0.0
41
0.0
42
0.0
10
83.8366012573242
20
83.5839004516602
40
0.0
41
0.0
42
0.0
10
83.5498962402344
20
84.0094985961914
40
0.0
41
0.0
42
0.0
10
83.5240020751953
20
84.0647964477539
40
0.0
41
0.0
42
0.0
10
83.5018005371094
20
84.1005020141602
40
0.0
41
0.0
42
0.0
10
83.2867965698242
20
84.4904022216797
40
0.0
41
0.0
42
0.0
10
83.2427978515625
20
84.5857009887695
40
0.0
41
0.0
42
0.0
10
83.0279998779297
20
84.9990005493164
40
0.0
41
0.0
42
0.0
10
83.0040969848633
20
84.9990005493164
40
0.0
41
0.0
42
0.0
10
83.0039978027344
20
84.9850997924805
40
0.0
41
0.0
42
0.0
10
83.2436981201172
20
84.5241012573242
40
0.0
41
0.0
42
0.0
210
0.0
220
0.0
230
1.0
0
VIEWPORT
5
3A
330
36
100
AcDbEntity
67
1
8
0
62
256
6
ByLayer
370
-1
48
1.0
60
0
100
AcDbViewport
10
0.0
20
0.0
30
0.0
40
297.0
41
210.0
68
1
69
1
12
50.0
22
100.0
13
0.0
23
0.0
14
10.0
24
10.0
15
10.0
25
10.0
16
0.0
26
0.0
36
1.0
17
0.0
27
0.0
37
0.0
42
50.0
43
0.0
44
0.0
45
250.0
50
0.0
51
0.0
72
1000
90
819232
110
0.0
120
0.0
130
0.0
111
1.0
121
0.0
131
0.0
112
0.0
122
1.0
132
0.0
0
ENDSEC
0
SECTION
2
OBJECTS
0
DICTIONARY
5
40
330
0
100
AcDbDictionary
280
1
281
1
3
ACAD_GROUP
350
12
3
ACAD_LAYOUT
350
39
3
ACAD_DGNDEFINITIONS
350
F
3
ACAD_DWFDEFINITIONS
350
10
3
ACAD_PDFDEFINITIONS
350
11
3
ACAD_MLINESTYLE
350
B
3
ACAD_IMAGE_DICT
350
E
3
ACAD_IMAGE_VARS
350
21
0
DICTIONARY
5
12
330
40
100
AcDbDictionary
280
1
281
1
0
DICTIONARY
5
39
330
40
100
AcDbDictionary
280
1
281
1
3
Model
350
20
3
Layout1
350
3B
0
DICTIONARY
5
F
330
40
100
AcDbDictionary
280
1
281
1
0
DICTIONARY
5
10
330
40
100
AcDbDictionary
280
1
281
1
0
DICTIONARY
5
11
330
40
100
AcDbDictionary
280
1
281
1
0
DICTIONARY
5
B
330
40
100
AcDbDictionary
280
1
281
1
3
Standard
350
1B
0
DICTIONARY
5
E
330
40
100
AcDbDictionary
280
1
281
1
0
DICTIONARY
5
6
330
5
100
AcDbDictionary
280
1
281
1
3
ACAD_LAYERSTATES
360
41
0
DICTIONARY
5
41
330
6
100
AcDbDictionary
280
1
281
1
0
LAYOUT
5
20
330
39
100
AcDbPlotSettings
1

2
none_device
4
ISO_A4_(210.00_x_297.00_MM)
6

40
7.5
41
20.0
42
7.5
43
20.0
44
210.0
45
297.0
46
0.0
47
0.0
48
0.0
49
0.0
140
0.0
141
0.0
142
1.0
143
1.0
70
11952
72
1
73
1
74
1
7

75
0
76
0
77
2
78
300
147
1.0
148
0.0
149
0.0
100
AcDbLayout
1
Model
71
0
10
-20.0
20
-7.5
11
277.0
21
202.5
12
0.0
22
0.0
32
0.0
14
25.7
24
19.5
34
0.0
15
231.3
25
175.5
35
0.0
146
0.0
13
0.0
23
0.0
33
0.0
16
1.0
26
0.0
36
0.0
17
0.0
27
1.0
37
0.0
76
0
330
1C
0
LAYOUT
5
3B
330
39
100
AcDbPlotSettings
1

2
none_device
4
ISO_A4_(210.00_x_297.00_MM)
6

40
7.5
41
20.0
42
7.5
43
20.0
44
210.0
45
297.0
46
0.0
47
0.0
48
0.0
49
0.0
140
0.0
141
0.0
142
1.0
143
1.0
70
688
72
1
73
1
74
1
7

75
0
76
0
77
2
78
300
147
1.0
148
0.0
149
0.0
100
AcDbLayout
1
Layout1
71
1
10
-20.0
20
-7.5
11
277.0
21
202.5
12
0.0
22
0.0
32
0.0
14
25.7
24
19.5
34
0.0
15
231.3
25
175.5
35
0.0
146
0.0
13
0.0
23
0.0
33
0.0
16
1.0
26
0.0
36
0.0
17
0.0
27
1.0
37
0.0
76
0
330
36
0
MLINESTYLE
5
1B
330
B
100
AcDbMlineStyle
2
Standard
70
0
3

62
256
51
90.0
52
90.0
71
2
49
0.5
62
256
6
ByLayer
49
-0.5
62
256
6
ByLayer
0
RASTERVARIABLES
5
21
330
E
100
AcDbRasterVariables
90
0
70
1
71
1
72
0
0
ENDSEC
0
EOF
