999
DXF file generated by netDxf https://github.com/haplokuon/netDxf, Copyright(C) Daniel Carvajal, Licensed under MIT
0
SECTION
2
HEADER
9
$ACADVER
1
AC1015
9
$DWGCODEPAGE
3
ANSI_1252
9
$HANDSEED
5
36
9
$ANGBASE
50
0.0
9
$ANGDIR
70
0
9
$ATTMODE
70
1
9
$AUNITS
70
0
9
$AUPREC
70
0
9
$CECOLOR
62
256
9
$CELTSCALE
40
1.0
9
$CELTYPE
6
ByLayer
9
$CELWEIGHT
370
-1
9
$CLAYER
8
0
9
$CMLJUST
70
0
9
$CMLSCALE
40
20.0
9
$CMLSTYLE
2
Standard
9
$DIMSTYLE
2
Standard
9
$TEXTSIZE
40
2.5
9
$TEXTSTYLE
7
Standard
9
$LUNITS
70
2
9
$LUPREC
70
4
9
$MIRRTEXT
70
0
9
$EXTNAMES
290
1
9
$INSBASE
10
0.0
20
0.0
30
0.0
9
$INSUNITS
70
0
9
$LTSCALE
40
1.0
9
$LWDISPLAY
290
0
9
$PDMODE
70
0
9
$PDSIZE
40
0.0
9
$PLINEGEN
70
0
9
$PSLTSCALE
70
1
9
$SPLINESEGS
70
8
9
$SURFU
70
6
9
$SURFV
70
6
9
$TDCREATE
40
2460823.4837156
9
$TDUCREATE
40
2460823.15038227
9
$TDUPDATE
40
2460823.4837156
9
$TDUUPDATE
40
2460823.15038227
9
$TDINDWG
40
0.0
9
$UCSORG
10
0.0
20
0.0
30
0.0
9
$UCSXDIR
10
1.0
20
0.0
30
0.0
9
$UCSYDIR
10
0.0
20
1.0
30
0.0
9
$DIMADEC
70
0
9
$DIMALT
70
0
9
$DIMALTD
70
2
9
$DIMALTF
40
25.4
9
$DIMALTRND
40
0.0
9
$DIMALTTD
70
2
9
$DIMALTTZ
70
0
9
$DIMALTU
70
2
9
$DIMALTZ
70
0
9
$DIMAPOST
1

9
$DIMATFIT
70
3
9
$DIMAUNIT
70
0
9
$DIMASZ
40
0.18
9
$DIMAZIN
70
0
9
$DIMSAH
70
0
9
$DIMBLK
1

9
$DIMLDRBLK
1

9
$DIMCEN
40
0.09
9
$DIMCLRD
70
0
9
$DIMCLRE
70
0
9
$DIMCLRT
70
0
9
$DIMDEC
70
4
9
$DIMDLE
40
0.0
9
$DIMDLI
40
0.38
9
$DIMDSEP
70
46
9
$DIMEXE
40
0.18
9
$DIMEXO
40
0.0625
9
$DIMFXLON
70
0
9
$DIMFXL
40
1.0
9
$DIMGAP
40
0.09
9
$DIMJUST
70
0
9
$DIMLFAC
40
1.0
9
$DIMLUNIT
70
2
9
$DIMLWD
70
-2
9
$DIMLWE
70
-2
9
$DIMPOST
1

9
$DIMRND
40
0.0
9
$DIMSCALE
40
1.0
9
$DIMSD1
70
0
9
$DIMSD2
70
0
9
$DIMSE1
70
0
9
$DIMSE2
70
0
9
$DIMSOXD
70
0
9
$DIMTAD
70
0
9
$DIMTDEC
70
4
9
$DIMTFAC
40
1.0
9
$DIMTIH
70
0
9
$DIMTIX
70
0
9
$DIMTM
40
0.0
9
$DIMTMOVE
70
0
9
$DIMTOFL
70
0
9
$DIMTOH
70
0
9
$DIMTOL
70
0
9
$DIMLIM
70
0
9
$DIMTOLJ
70
1
9
$DIMTP
40
0.0
9
$DIMTXT
40
0.18
9
$DIMTXTDIRECTION
70
0
9
$DIMTZIN
70
0
9
$DIMZIN
70
0
9
$DIMFRAC
70
0
9
$DIMLTYPE
6
ByBlock
9
$DIMLTEX1
6
ByBlock
9
$DIMLTEX2
6
ByBlock
0
ENDSEC
0
SECTION
2
CLASSES
0
CLASS
1
RASTERVARIABLES
2
AcDbRasterVariables
3
ISM
90
0
280
0
281
0
0
ENDSEC
0
SECTION
2
TABLES
0
TABLE
2
APPID
5
4
330
0
100
AcDbSymbolTable
70
5
0
APPID
5
19
330
4
100
AcDbSymbolTableRecord
100
AcDbRegAppTableRecord
2
ACAD
70
0
0
APPID
5
30
330
4
100
AcDbSymbolTableRecord
100
AcDbRegAppTableRecord
2
AcCmTransparency
70
0
0
APPID
5
31
330
4
100
AcDbSymbolTableRecord
100
AcDbRegAppTableRecord
2
AcAecLayerStandard
70
0
0
APPID
5
32
330
4
100
AcDbSymbolTableRecord
100
AcDbRegAppTableRecord
2
GradientColor1ACI
70
0
0
APPID
5
33
330
4
100
AcDbSymbolTableRecord
100
AcDbRegAppTableRecord
2
GradientColor2ACI
70
0
0
ENDTAB
0
TABLE
2
VPORT
5
1
330
0
100
AcDbSymbolTable
70
1
0
VPORT
5
2
330
1
100
AcDbSymbolTableRecord
100
AcDbViewportTableRecord
2
*Active
70
0
10
0.0
20
0.0
11
1.0
21
1.0
12
0.0
22
0.0
13
0.0
23
0.0
14
0.5
24
0.5
15
10.0
25
10.0
16
0.0
26
0.0
36
1.0
17
0.0
27
0.0
37
0.0
40
10.0
41
1.0
75
0
76
1
0
ENDTAB
0
TABLE
2
LTYPE
5
7
330
0
100
AcDbSymbolTable
70
3
0
LTYPE
5
15
330
7
100
AcDbSymbolTableRecord
100
AcDbLinetypeTableRecord
2
Continuous
70
0
3
Solid line
72
65
73
0
40
0.0
0
LTYPE
5
16
330
7
100
AcDbSymbolTableRecord
100
AcDbLinetypeTableRecord
2
ByLayer
70
0
3

72
65
73
0
40
0.0
0
LTYPE
5
17
330
7
100
AcDbSymbolTableRecord
100
AcDbLinetypeTableRecord
2
ByBlock
70
0
3

72
65
73
0
40
0.0
0
ENDTAB
0
TABLE
2
LAYER
5
5
102
{ACAD_XDICTIONARY
360
6
102
}
330
0
100
AcDbSymbolTable
70
1
0
LAYER
5
14
330
5
100
AcDbSymbolTableRecord
100
AcDbLayerTableRecord
2
0
70
0
62
7
6
Continuous
290
1
370
-3
390
0
0
ENDTAB
0
TABLE
2
STYLE
5
8
330
0
100
AcDbSymbolTable
70
1
0
STYLE
5
18
330
8
100
AcDbSymbolTableRecord
100
AcDbTextStyleTableRecord
2
Standard
3
simplex.shx
70
0
71
0
40
0.0
41
1.0
42
0.0
50
0.0
0
ENDTAB
0
TABLE
2
DIMSTYLE
5
A
330
0
100
AcDbSymbolTable
70
1
100
AcDbDimStyleTable
0
DIMSTYLE
105
1A
330
A
100
AcDbSymbolTableRecord
100
AcDbDimStyleTableRecord
2
Standard
3

4

40
1.0
41
0.18
42
0.0625
43
0.38
44
0.18
45
0.0
46
0.0
47
0.0
48
0.0
49
1.0
70
0
71
0
72
0
73
0
74
0
75
0
76
0
77
0
78
0
79
0
140
0.18
141
0.09
143
25.4
144
1.0
146
1.0
147
0.09
148
0.0
170
0
171
2
172
0
174
0
175
0
176
0
177
0
178
0
179
0
271
4
272
4
273
2
274
2
275
0
276
0
277
2
278
46
279
0
280
0
281
0
282
0
283
1
284
0
285
0
286
0
289
3
290
0
294
0
340
18
173
0
345
17
346
17
347
17
371
-2
372
-2
0
ENDTAB
0
TABLE
2
VIEW
5
3
330
0
100
AcDbSymbolTable
70
0
0
ENDTAB
0
TABLE
2
UCS
5
C
330
0
100
AcDbSymbolTable
70
0
0
ENDTAB
0
TABLE
2
BLOCK_RECORD
5
D
330
0
100
AcDbSymbolTable
70
2
0
BLOCK_RECORD
5
1C
330
D
100
AcDbSymbolTableRecord
100
AcDbBlockTableRecord
2
*Model_Space
340
20
0
BLOCK_RECORD
5
2A
330
D
100
AcDbSymbolTableRecord
100
AcDbBlockTableRecord
2
*Paper_Space
340
2F
0
ENDTAB
0
ENDSEC
0
SECTION
2
BLOCKS
0
BLOCK
5
1E
330
1C
100
AcDbEntity
67
0
8
0
100
AcDbBlockBegin
2
*Model_Space
70
0
10
0.0
20
0.0
30
0.0
3
*Model_Space
4

0
ENDBLK
5
1D
330
1C
100
AcDbEntity
8
0
100
AcDbBlockEnd
0
BLOCK
5
2C
330
2A
100
AcDbEntity
67
1
8
0
100
AcDbBlockBegin
2
*Paper_Space
70
0
10
0.0
20
0.0
30
0.0
3
*Paper_Space
4

0
ENDBLK
5
2B
330
2A
100
AcDbEntity
8
0
100
AcDbBlockEnd
0
ENDSEC
0
SECTION
2
ENTITIES
0
LWPOLYLINE
5
22
330
1C
100
AcDbEntity
67
0
8
0
62
256
6
ByLayer
370
-1
48
1.0
60
0
100
AcDbPolyline
90
29
70
1
38
0.0
39
0.0
10
65.0887985229492
20
65.0009002685547
40
0.0
41
0.0
42
0.0
10
65.5008010864258
20
65.2767028808594
40
0.0
41
0.0
42
0.0
10
65.5373001098633
20
65.4817962646484
40
0.0
41
0.0
42
0.0
10
65.5372009277344
20
65.5176010131836
40
0.0
41
0.0
42
0.0
10
65.5121994018555
20
65.6303024291992
40
0.0
41
0.0
42
0.0
10
65.5077972412109
20
66.0165023803711
40
0.0
41
0.0
42
0.0
10
65.4837036132812
20
66.0895004272461
40
0.0
41
0.0
42
0.0
10
65.4682998657227
20
66.1287994384766
40
0.0
41
0.0
42
0.0
10
65.3832015991211
20
66.5147018432617
40
0.0
41
0.0
42
0.0
10
65.2592010498047
20
66.9382019042969
40
0.0
41
0.0
42
0.0
10
65.2303009033203
20
67.0124969482422
40
0.0
41
0.0
42
0.0
10
65.0728988647461
20
67.4366989135742
40
0.0
41
0.0
42
0.0
10
65.0067977905273
20
67.5737991333008
40
0.0
41
0.0
42
0.0
10
65.0009994506836
20
67.5737991333008
40
0.0
41
0.0
42
0.0
10
65.0008010864258
20
67.543701171875
40
0.0
41
0.0
42
0.0
10
65.0835037231445
20
67.3731994628906
40
0.0
41
0.0
42
0.0
10
65.2266006469727
20
66.9873962402344
40
0.0
41
0.0
42
0.0
10
65.2677001953125
20
66.8816986083984
40
0.0
41
0.0
42
0.0
10
65.3830032348633
20
66.4850997924805
40
0.0
41
0.0
42
0.0
10
65.4765014648438
20
66.0609970092773
40
0.0
41
0.0
42
0.0
10
65.4926986694336
20
66.0196990966797
40
0.0
41
0.0
42
0.0
10
65.5046005249023
20
65.9833984375
40
0.0
41
0.0
42
0.0
10
65.5093002319336
20
65.5550003051758
40
0.0
41
0.0
42
0.0
10
65.5220031738281
20
65.4981994628906
40
0.0
41
0.0
42
0.0
10
65.4990997314453
20
65.3685989379883
40
0.0
41
0.0
42
0.0
10
65.0726013183594
20
65.0830993652344
40
0.0
41
0.0
42
0.0
10
65.0009994506836
20
65.0260009765625
40
0.0
41
0.0
42
0.0
10
65.0009994506836
20
65.0009994506836
40
0.0
41
0.0
42
0.0
10
65.0887985229492
20
65.0009002685547
40
0.0
41
0.0
42
0.0
210
0.0
220
0.0
230
1.0
0
LWPOLYLINE
5
23
330
1C
100
AcDbEntity
67
0
8
0
62
256
6
ByLayer
370
-1
48
1.0
60
0
100
AcDbPolyline
90
28
70
1
38
0.0
39
0.0
10
65.2767028808594
20
84.4990005493164
40
0.0
41
0.0
42
0.0
10
65.4817962646484
20
84.4626007080078
40
0.0
41
0.0
42
0.0
10
65.5177001953125
20
84.4625015258789
40
0.0
41
0.0
42
0.0
10
65.6303024291992
20
84.4875030517578
40
0.0
41
0.0
42
0.0
10
66.0165023803711
20
84.4918975830078
40
0.0
41
0.0
42
0.0
10
66.0895004272461
20
84.515998840332
40
0.0
41
0.0
42
0.0
10
66.1287994384766
20
84.5314025878906
40
0.0
41
0.0
42
0.0
10
66.5139007568359
20
84.6163024902344
40
0.0
41
0.0
42
0.0
10
66.5981979370117
20
84.6491012573242
40
0.0
41
0.0
42
0.0
10
67.0133972167969
20
84.7697982788086
40
0.0
41
0.0
42
0.0
10
67.4366989135742
20
84.9268035888672
40
0.0
41
0.0
42
0.0
10
67.5737991333008
20
84.9931030273438
40
0.0
41
0.0
42
0.0
10
67.5737991333008
20
84.9990005493164
40
0.0
41
0.0
42
0.0
10
67.5438003540039
20
84.9990005493164
40
0.0
41
0.0
42
0.0
10
67.3731994628906
20
84.9161987304688
40
0.0
41
0.0
42
0.0
10
66.9865036010742
20
84.7727966308594
40
0.0
41
0.0
42
0.0
10
66.6016006469727
20
84.6608963012695
40
0.0
41
0.0
42
0.0
10
66.4860000610352
20
84.6168975830078
40
0.0
41
0.0
42
0.0
10
66.0608978271484
20
84.5232009887695
40
0.0
41
0.0
42
0.0
10
65.9838027954102
20
84.4951019287109
40
0.0
41
0.0
42
0.0
10
65.5550003051758
20
84.4904022216797
40
0.0
41
0.0
42
0.0
10
65.4981994628906
20
84.4776992797852
40
0.0
41
0.0
42
0.0
10
65.3684997558594
20
84.5008010864258
40
0.0
41
0.0
42
0.0
10
65.0830993652344
20
84.9272003173828
40
0.0
41
0.0
42
0.0
10
65.0259017944336
20
84.9990005493164
40
0.0
41
0.0
42
0.0
10
65.0009994506836
20
84.9990005493164
40
0.0
41
0.0
42
0.0
10
65.0009002685547
20
84.911003112793
40
0.0
41
0.0
42
0.0
10
65.2767028808594
20
84.4990005493164
40
0.0
41
0.0
42
0.0
210
0.0
220
0.0
230
1.0
0
LWPOLYLINE
5
24
330
1C
100
AcDbEntity
67
0
8
0
62
256
6
ByLayer
370
-1
48
1.0
60
0
100
AcDbPolyline
90
417
70
1
38
0.0
39
0.0
10
65.3392028808594
20
75.9857025146484
40
0.0
41
0.0
42
0.0
10
65.3830032348633
20
75.8727035522461
40
0.0
41
0.0
42
0.0
10
65.4779968261719
20
75.640998840332
40
0.0
41
0.0
42
0.0
10
65.5446014404297
20
75.4905014038086
40
0.0
41
0.0
42
0.0
10
65.627799987793
20
75.3768005371094
40
0.0
41
0.0
42
0.0
10
65.8738021850586
20
74.99169921875
40
0.0
41
0.0
42
0.0
10
65.9445037841797
20
74.8934020996094
40
0.0
41
0.0
42
0.0
10
65.9921035766602
20
74.8436965942383
40
0.0
41
0.0
42
0.0
10
66.0841979980469
20
74.8038024902344
40
0.0
41
0.0
42
0.0
10
66.4234008789062
20
74.4949035644531
40
0.0
41
0.0
42
0.0
10
66.4889984130859
20
74.4250030517578
40
0.0
41
0.0
42
0.0
10
66.6045989990234
20
74.4248962402344
40
0.0
41
0.0
42
0.0
10
66.9839019775391
20
74.2754974365234
40
0.0
41
0.0
42
0.0
10
67.015998840332
20
74.2753982543945
40
0.0
41
0.0
42
0.0
10
67.3676986694336
20
74.4132995605469
40
0.0
41
0.0
42
0.0
10
67.5105972290039
20
74.4524002075195
40
0.0
41
0.0
42
0.0
10
67.5719985961914
20
74.497802734375
40
0.0
41
0.0
42
0.0
10
67.7184982299805
20
74.5735015869141
40
0.0
41
0.0
42
0.0
10
67.7928009033203
20
74.613899230957
40
0.0
41
0.0
42
0.0
10
68.011100769043
20
74.7197036743164
40
0.0
41
0.0
42
0.0
10
68.3079986572266
20
74.8514022827148
40
0.0
41
0.0
42
0.0
10
68.5123977661133
20
74.950798034668
40
0.0
41
0.0
42
0.0
10
68.870002746582
20
75.0557022094727
40
0.0
41
0.0
42
0.0
10
68.9345016479492
20
75.0725021362305
40
0.0
41
0.0
42
0.0
10
68.9852981567383
20
75.0689010620117
40
0.0
41
0.0
42
0.0
10
69.0596008300781
20
75.0341033935547
40
0.0
41
0.0
42
0.0
10
69.094596862793
20
75.0339965820312
40
0.0
41
0.0
42
0.0
10
69.4882965087891
20
75.0483016967773
40
0.0
41
0.0
42
0.0
10
69.5098037719727
20
75.0326995849609
40
0.0
41
0.0
42
0.0
10
69.5158004760742
20
75.0309982299805
40
0.0
41
0.0
42
0.0
10
69.7399978637695
20
75.0007019042969
40
0.0
41
0.0
42
0.0
10
69.9029998779297
20
74.9804992675781
40
0.0
41
0.0
42
0.0
10
69.9898986816406
20
74.9319000244141
40
0.0
41
0.0
42
0.0
10
70.1015014648438
20
74.8739013671875
40
0.0
41
0.0
42
0.0
10
70.4821014404297
20
74.8154983520508
40
0.0
41
0.0
42
0.0
10
70.8685989379883
20
74.796501159668
40
0.0
41
0.0
42
0.0
10
70.9831008911133
20
74.7612991333008
40
0.0
41
0.0
42
0.0
10
71.018798828125
20
74.7611999511719
40
0.0
41
0.0
42
0.0
10
71.3671035766602
20
74.8003005981445
40
0.0
41
0.0
42
0.0
10
71.5158004760742
20
74.8080978393555
40
0.0
41
0.0
42
0.0
10
71.5783004760742
20
74.8304977416992
40
0.0
41
0.0
42
0.0
10
71.8179016113281
20
74.8852005004883
40
0.0
41
0.0
42
0.0
10
71.8690032958984
20
74.9010009765625
40
0.0
41
0.0
42
0.0
10
72.0137023925781
20
74.92919921875
40
0.0
41
0.0
42
0.0
10
72.095703125
20
74.9646987915039
40
0.0
41
0.0
42
0.0
10
72.2879028320312
20
75.0005035400391
40
0.0
41
0.0
42
0.0
10
72.5154037475586
20
75.046501159668
40
0.0
41
0.0
42
0.0
10
72.6966018676758
20
75.0446014404297
40
0.0
41
0.0
42
0.0
10
72.9900970458984
20
75.0711975097656
40
0.0
41
0.0
42
0.0
10
73.1455001831055
20
74.9981994628906
40
0.0
41
0.0
42
0.0
10
73.2858963012695
20
74.9044036865234
40
0.0
41
0.0
42
0.0
10
73.3719024658203
20
74.8600997924805
40
0.0
41
0.0
42
0.0
10
73.4934997558594
20
74.8369979858398
40
0.0
41
0.0
42
0.0
10
73.5278015136719
20
74.7757034301758
40
0.0
41
0.0
42
0.0
10
73.6277008056641
20
74.5037994384766
40
0.0
41
0.0
42
0.0
10
73.6025009155273
20
74.4785003662109
40
0.0
41
0.0
42
0.0
10
73.4936981201172
20
74.3373031616211
40
0.0
41
0.0
42
0.0
10
73.0950012207031
20
74.1396026611328
40
0.0
41
0.0
42
0.0
10
72.9837036132812
20
74.1089019775391
40
0.0
41
0.0
42
0.0
10
72.8697967529297
20
74.0994033813477
40
0.0
41
0.0
42
0.0
10
72.6990966796875
20
74.0324020385742
40
0.0
41
0.0
42
0.0
10
72.651496887207
20
74.0017013549805
40
0.0
41
0.0
42
0.0
10
72.4868011474609
20
73.9188995361328
40
0.0
41
0.0
42
0.0
10
72.1869964599609
20
73.8602981567383
40
0.0
41
0.0
42
0.0
10
71.9832992553711
20
73.8378982543945
40
0.0
41
0.0
42
0.0
10
71.6390991210938
20
73.7652969360352
40
0.0
41
0.0
42
0.0
10
71.4850006103516
20
73.7556991577148
40
0.0
41
0.0
42
0.0
10
71.196403503418
20
73.640998840332
40
0.0
41
0.0
42
0.0
10
71.1039962768555
20
73.6156005859375
40
0.0
41
0.0
42
0.0
10
71.0067977905273
20
73.5470962524414
40
0.0
41
0.0
42
0.0
10
70.9937973022461
20
73.5410003662109
40
0.0
41
0.0
42
0.0
10
70.9691009521484
20
73.5070037841797
40
0.0
41
0.0
42
0.0
10
70.9498977661133
20
73.484001159668
40
0.0
41
0.0
42
0.0
10
70.8776016235352
20
73.4129028320312
40
0.0
41
0.0
42
0.0
10
70.4900970458984
20
73.2049026489258
40
0.0
41
0.0
42
0.0
10
70.2403030395508
20
73.0623016357422
40
0.0
41
0.0
42
0.0
10
70.217399597168
20
73.0441970825195
40
0.0
41
0.0
42
0.0
10
70.1902008056641
20
73.007698059082
40
0.0
41
0.0
42
0.0
10
70.1420974731445
20
72.9384994506836
40
0.0
41
0.0
42
0.0
10
69.989501953125
20
72.8405990600586
40
0.0
41
0.0
42
0.0
10
69.5654983520508
20
72.6756973266602
40
0.0
41
0.0
42
0.0
10
69.4890975952148
20
72.6147003173828
40
0.0
41
0.0
42
0.0
10
69.0656967163086
20
72.5311965942383
40
0.0
41
0.0
42
0.0
10
68.9822998046875
20
72.5190963745117
40
0.0
41
0.0
42
0.0
10
68.6072006225586
20
72.5203018188477
40
0.0
41
0.0
42
0.0
10
68.5184020996094
20
72.524299621582
40
0.0
41
0.0
42
0.0
10
68.2092971801758
20
72.5544967651367
40
0.0
41
0.0
42
0.0
10
68.0185012817383
20
72.5811996459961
40
0.0
41
0.0
42
0.0
10
67.7032012939453
20
72.5800018310547
40
0.0
41
0.0
42
0.0
10
67.5196990966797
20
72.5854034423828
40
0.0
41
0.0
42
0.0
10
67.4860000610352
20
72.5854034423828
40
0.0
41
0.0
42
0.0
10
67.3520965576172
20
72.5015029907227
40
0.0
41
0.0
42
0.0
10
67.0915985107422
20
72.3777008056641
40
0.0
41
0.0
42
0.0
10
66.9961013793945
20
72.3087997436523
40
0.0
41
0.0
42
0.0
10
66.8339996337891
20
72.0093002319336
40
0.0
41
0.0
42
0.0
10
66.811897277832
20
71.9748992919922
40
0.0
41
0.0
42
0.0
10
66.7811965942383
20
71.934700012207
40
0.0
41
0.0
42
0.0
10
66.6222991943359
20
71.5121002197266
40
0.0
41
0.0
42
0.0
10
66.5904006958008
20
71.4386978149414
40
0.0
41
0.0
42
0.0
10
66.5065002441406
20
71.0165023803711
40
0.0
41
0.0
42
0.0
10
66.4962997436523
20
70.9432983398438
40
0.0
41
0.0
42
0.0
10
66.4947967529297
20
70.8696975708008
40
0.0
41
0.0
42
0.0
10
66.511100769043
20
70.9834976196289
40
0.0
41
0.0
42
0.0
10
66.5884017944336
20
71.3712005615234
40
0.0
41
0.0
42
0.0
10
66.638801574707
20
71.4878005981445
40
0.0
41
0.0
42
0.0
10
66.7844009399414
20
71.8751983642578
40
0.0
41
0.0
42
0.0
10
66.8348007202148
20
71.9415969848633
40
0.0
41
0.0
42
0.0
10
66.8667984008789
20
71.9906997680664
40
0.0
41
0.0
42
0.0
10
67.0037002563477
20
72.243896484375
40
0.0
41
0.0
42
0.0
10
67.0923004150391
20
72.3078994750977
40
0.0
41
0.0
42
0.0
10
67.4933013916016
20
72.4983978271484
40
0.0
41
0.0
42
0.0
10
67.5128021240234
20
72.5103988647461
40
0.0
41
0.0
42
0.0
10
67.9822006225586
20
72.5124969482422
40
0.0
41
0.0
42
0.0
10
68.0911026000977
20
72.5008010864258
40
0.0
41
0.0
42
0.0
10
68.4809036254883
20
72.4661026000977
40
0.0
41
0.0
42
0.0
10
69.0173034667969
20
72.4651031494141
40
0.0
41
0.0
42
0.0
10
69.1516036987305
20
72.5003967285156
40
0.0
41
0.0
42
0.0
10
69.5109024047852
20
72.571403503418
40
0.0
41
0.0
42
0.0
10
69.624397277832
20
72.6617965698242
40
0.0
41
0.0
42
0.0
10
70.0103988647461
20
72.811897277832
40
0.0
41
0.0
42
0.0
10
70.1386032104492
20
72.8942031860352
40
0.0
41
0.0
42
0.0
10
70.2065963745117
20
72.9922027587891
40
0.0
41
0.0
42
0.0
10
70.2463989257812
20
73.0455017089844
40
0.0
41
0.0
42
0.0
10
70.5084991455078
20
73.1950988769531
40
0.0
41
0.0
42
0.0
10
70.9324035644531
20
73.4225997924805
40
0.0
41
0.0
42
0.0
10
71.0065002441406
20
73.4952011108398
40
0.0
41
0.0
42
0.0
10
71.1191024780273
20
73.5742034912109
40
0.0
41
0.0
42
0.0
10
71.1834030151367
20
73.5919036865234
40
0.0
41
0.0
42
0.0
10
71.5152969360352
20
73.7230987548828
40
0.0
41
0.0
42
0.0
10
71.6190032958984
20
73.7301025390625
40
0.0
41
0.0
42
0.0
10
72.0166015625
20
73.8139038085938
40
0.0
41
0.0
42
0.0
10
72.1498031616211
20
73.828498840332
40
0.0
41
0.0
42
0.0
10
72.5130996704102
20
73.8998031616211
40
0.0
41
0.0
42
0.0
10
72.7091979980469
20
73.9981994628906
40
0.0
41
0.0
42
0.0
10
72.7416000366211
20
74.0190963745117
40
0.0
41
0.0
42
0.0
10
72.9401016235352
20
74.0969009399414
40
0.0
41
0.0
42
0.0
10
73.0162963867188
20
74.1033020019531
40
0.0
41
0.0
42
0.0
10
73.0877990722656
20
74.1230010986328
40
0.0
41
0.0
42
0.0
10
73.1259002685547
20
74.1404037475586
40
0.0
41
0.0
42
0.0
10
73.5063018798828
20
74.3291015625
40
0.0
41
0.0
42
0.0
10
73.6007995605469
20
74.4514999389648
40
0.0
41
0.0
42
0.0
10
73.6379013061523
20
74.4886016845703
40
0.0
41
0.0
42
0.0
10
73.6377029418945
20
74.5161972045898
40
0.0
41
0.0
42
0.0
10
73.5429000854492
20
74.7742004394531
40
0.0
41
0.0
42
0.0
10
73.5063018798828
20
74.8404998779297
40
0.0
41
0.0
42
0.0
10
73.4380035400391
20
74.853401184082
40
0.0
41
0.0
42
0.0
10
73.3757019042969
20
74.8855972290039
40
0.0
41
0.0
42
0.0
10
73.2021026611328
20
75.0015029907227
40
0.0
41
0.0
42
0.0
10
73.0152969360352
20
75.0893020629883
40
0.0
41
0.0
42
0.0
10
72.9809036254883
20
75.0892028808594
40
0.0
41
0.0
42
0.0
10
72.7757034301758
20
75.0707015991211
40
0.0
41
0.0
42
0.0
10
72.4819030761719
20
75.0743026733398
40
0.0
41
0.0
42
0.0
10
72.1118011474609
20
74.9992980957031
40
0.0
41
0.0
42
0.0
10
72.0245971679688
20
74.9830017089844
40
0.0
41
0.0
42
0.0
10
71.986198425293
20
74.9664001464844
40
0.0
41
0.0
42
0.0
10
71.8240966796875
20
74.934700012207
40
0.0
41
0.0
42
0.0
10
71.7912979125977
20
74.9245986938477
40
0.0
41
0.0
42
0.0
10
71.527702331543
20
74.864501953125
40
0.0
41
0.0
42
0.0
10
71.4841995239258
20
74.8488006591797
40
0.0
41
0.0
42
0.0
10
71.3831024169922
20
74.8435974121094
40
0.0
41
0.0
42
0.0
10
71.0073013305664
20
74.8014984130859
40
0.0
41
0.0
42
0.0
10
70.9412994384766
20
74.8218002319336
40
0.0
41
0.0
42
0.0
10
70.5177993774414
20
74.8424987792969
40
0.0
41
0.0
42
0.0
10
70.0883026123047
20
74.9085006713867
40
0.0
41
0.0
42
0.0
10
70.0099029541016
20
74.9490966796875
40
0.0
41
0.0
42
0.0
10
69.9588012695312
20
74.9777984619141
40
0.0
41
0.0
42
0.0
10
69.7846984863281
20
74.9992980957031
40
0.0
41
0.0
42
0.0
10
69.540397644043
20
75.0323028564453
40
0.0
41
0.0
42
0.0
10
69.5130996704102
20
75.0522994995117
40
0.0
41
0.0
42
0.0
10
69.4804000854492
20
75.0522003173828
40
0.0
41
0.0
42
0.0
10
69.1277008056641
20
75.0393981933594
40
0.0
41
0.0
42
0.0
10
69.0145034790039
20
75.0925979614258
40
0.0
41
0.0
42
0.0
10
68.9064025878906
20
75.1004028320312
40
0.0
41
0.0
42
0.0
10
68.8675994873047
20
75.1004028320312
40
0.0
41
0.0
42
0.0
10
68.8078002929688
20
75.0848007202148
40
0.0
41
0.0
42
0.0
10
68.4876022338867
20
74.989501953125
40
0.0
41
0.0
42
0.0
10
68.4440002441406
20
74.9683990478516
40
0.0
41
0.0
42
0.0
10
67.9888000488281
20
74.7661972045898
40
0.0
41
0.0
42
0.0
10
67.8068008422852
20
74.6781005859375
40
0.0
41
0.0
42
0.0
10
67.6934967041016
20
74.6164016723633
40
0.0
41
0.0
42
0.0
10
67.4760971069336
20
74.5035018920898
40
0.0
41
0.0
42
0.0
10
67.4642028808594
20
74.5
40
0.0
41
0.0
42
0.0
10
67.0
20
74.318000793457
40
0.0
41
0.0
42
0.0
10
66.7009963989258
20
74.4357986450195
40
0.0
41
0.0
42
0.0
10
66.5108032226562
20
74.4356994628906
40
0.0
41
0.0
42
0.0
10
66.44580078125
20
74.5048980712891
40
0.0
41
0.0
42
0.0
10
66.1221008300781
20
74.7994995117188
40
0.0
41
0.0
42
0.0
10
66.0849990844727
20
74.8233032226562
40
0.0
41
0.0
42
0.0
10
66.007698059082
20
74.8567962646484
40
0.0
41
0.0
42
0.0
10
65.9700012207031
20
74.8960037231445
40
0.0
41
0.0
42
0.0
10
65.8893966674805
20
75.0081024169922
40
0.0
41
0.0
42
0.0
10
65.6179962158203
20
75.4329986572266
40
0.0
41
0.0
42
0.0
10
65.5622024536133
20
75.5093002319336
40
0.0
41
0.0
42
0.0
10
65.4868011474609
20
75.6803970336914
40
0.0
41
0.0
42
0.0
10
65.3814010620117
20
75.9372024536133
40
0.0
41
0.0
42
0.0
10
65.3516006469727
20
76.0141983032227
40
0.0
41
0.0
42
0.0
10
65.2731018066406
20
76.4418029785156
40
0.0
41
0.0
42
0.0
10
65.2655029296875
20
76.5027008056641
40
0.0
41
0.0
42
0.0
10
65.3024978637695
20
76.9076995849609
40
0.0
41
0.0
42
0.0
10
65.3162994384766
20
76.9869003295898
40
0.0
41
0.0
42
0.0
10
65.3564987182617
20
77.0625
40
0.0
41
0.0
42
0.0
10
65.5007019042969
20
77.3962020874023
40
0.0
41
0.0
42
0.0
10
65.5438995361328
20
77.491096496582
40
0.0
41
0.0
42
0.0
10
65.8710021972656
20
77.897102355957
40
0.0
41
0.0
42
0.0
10
65.967903137207
20
77.9952011108398
40
0.0
41
0.0
42
0.0
10
66.0075988769531
20
78.0307998657227
40
0.0
41
0.0
42
0.0
10
66.1233978271484
20
78.0963973999023
40
0.0
41
0.0
42
0.0
10
66.5110015869141
20
78.3925018310547
40
0.0
41
0.0
42
0.0
10
66.6278991699219
20
78.4171981811523
40
0.0
41
0.0
42
0.0
10
66.7371978759766
20
78.472297668457
40
0.0
41
0.0
42
0.0
10
66.7774963378906
20
78.4981002807617
40
0.0
41
0.0
42
0.0
10
67.0121994018555
20
78.6215972900391
40
0.0
41
0.0
42
0.0
10
67.3347015380859
20
78.7093963623047
40
0.0
41
0.0
42
0.0
10
67.4825973510742
20
78.6938018798828
40
0.0
41
0.0
42
0.0
10
67.7880020141602
20
78.6480026245117
40
0.0
41
0.0
42
0.0
10
67.9943008422852
20
78.486701965332
40
0.0
41
0.0
42
0.0
10
68.4420013427734
20
77.993896484375
40
0.0
41
0.0
42
0.0
10
68.4954986572266
20
77.9326019287109
40
0.0
41
0.0
42
0.0
10
68.9021987915039
20
77.4953994750977
40
0.0
41
0.0
42
0.0
10
68.9906005859375
20
77.4268035888672
40
0.0
41
0.0
42
0.0
10
69.1132965087891
20
77.3749008178711
40
0.0
41
0.0
42
0.0
10
69.4897003173828
20
77.1364974975586
40
0.0
41
0.0
42
0.0
10
69.7571029663086
20
77.0241012573242
40
0.0
41
0.0
42
0.0
10
69.9177017211914
20
77.0007019042969
40
0.0
41
0.0
42
0.0
10
69.9838027954102
20
76.9928970336914
40
0.0
41
0.0
42
0.0
10
70.3675994873047
20
76.8939971923828
40
0.0
41
0.0
42
0.0
10
70.4037017822266
20
76.8938980102539
40
0.0
41
0.0
42
0.0
10
70.4431991577148
20
76.8985977172852
40
0.0
41
0.0
42
0.0
10
70.5168991088867
20
76.9114990234375
40
0.0
41
0.0
42
0.0
10
70.5688018798828
20
76.9175033569336
40
0.0
41
0.0
42
0.0
10
70.9866027832031
20
76.8100967407227
40
0.0
41
0.0
42
0.0
10
71.4089965820312
20
76.6327972412109
40
0.0
41
0.0
42
0.0
10
71.4884033203125
20
76.6343002319336
40
0.0
41
0.0
42
0.0
10
71.6147994995117
20
76.5483016967773
40
0.0
41
0.0
42
0.0
10
71.6812973022461
20
76.4973983764648
40
0.0
41
0.0
42
0.0
10
71.991096496582
20
76.3225021362305
40
0.0
41
0.0
42
0.0
10
72.3599014282227
20
76.0678024291992
40
0.0
41
0.0
42
0.0
10
72.4693984985352
20
75.997200012207
40
0.0
41
0.0
42
0.0
10
72.4942016601562
20
75.9785995483398
40
0.0
41
0.0
42
0.0
10
72.5270004272461
20
75.9414978027344
40
0.0
41
0.0
42
0.0
10
72.5650024414062
20
75.915901184082
40
0.0
41
0.0
42
0.0
10
72.9869003295898
20
75.7387008666992
40
0.0
41
0.0
42
0.0
10
73.0590972900391
20
75.7176971435547
40
0.0
41
0.0
42
0.0
10
73.0970993041992
20
75.7132034301758
40
0.0
41
0.0
42
0.0
10
73.4769973754883
20
75.6809005737305
40
0.0
41
0.0
42
0.0
10
73.5126037597656
20
75.6808013916016
40
0.0
41
0.0
42
0.0
10
73.8066024780273
20
75.9188995361328
40
0.0
41
0.0
42
0.0
10
73.8846969604492
20
75.9893035888672
40
0.0
41
0.0
42
0.0
10
73.8845977783203
20
76.0145034790039
40
0.0
41
0.0
42
0.0
10
73.6533966064453
20
76.4326019287109
40
0.0
41
0.0
42
0.0
10
73.5864028930664
20
76.5063018798828
40
0.0
41
0.0
42
0.0
10
73.5047988891602
20
76.6106033325195
40
0.0
41
0.0
42
0.0
10
73.4857025146484
20
76.6259002685547
40
0.0
41
0.0
42
0.0
10
73.4327011108398
20
76.6563034057617
40
0.0
41
0.0
42
0.0
10
73.088996887207
20
76.9580001831055
40
0.0
41
0.0
42
0.0
10
73.0173034667969
20
77.0028991699219
40
0.0
41
0.0
42
0.0
10
73.007698059082
20
77.0110015869141
40
0.0
41
0.0
42
0.0
10
72.9123001098633
20
77.0679016113281
40
0.0
41
0.0
42
0.0
10
72.5080032348633
20
77.3444976806641
40
0.0
41
0.0
42
0.0
10
72.3591995239258
20
77.4486999511719
40
0.0
41
0.0
42
0.0
10
72.2766036987305
20
77.5031967163086
40
0.0
41
0.0
42
0.0
10
71.9446029663086
20
77.8022003173828
40
0.0
41
0.0
42
0.0
10
71.9269027709961
20
77.8481979370117
40
0.0
41
0.0
42
0.0
10
71.7932968139648
20
77.9786987304688
40
0.0
41
0.0
42
0.0
10
71.7825012207031
20
78.0099029541016
40
0.0
41
0.0
42
0.0
10
71.502799987793
20
78.3764038085938
40
0.0
41
0.0
42
0.0
10
71.4942016601562
20
78.3895034790039
40
0.0
41
0.0
42
0.0
10
71.4564971923828
20
78.434700012207
40
0.0
41
0.0
42
0.0
10
71.4334030151367
20
78.5099029541016
40
0.0
41
0.0
42
0.0
10
71.1026000976562
20
78.9205017089844
40
0.0
41
0.0
42
0.0
10
71.0785980224609
20
79.0094985961914
40
0.0
41
0.0
42
0.0
10
71.0369033813477
20
79.0552978515625
40
0.0
41
0.0
42
0.0
10
71.0022964477539
20
79.14990234375
40
0.0
41
0.0
42
0.0
10
70.618896484375
20
79.4318008422852
40
0.0
41
0.0
42
0.0
10
70.6080017089844
20
79.4506988525391
40
0.0
41
0.0
42
0.0
10
70.5438003540039
20
79.5043029785156
40
0.0
41
0.0
42
0.0
10
70.5081024169922
20
79.5391006469727
40
0.0
41
0.0
42
0.0
10
70.4484024047852
20
79.5637969970703
40
0.0
41
0.0
42
0.0
10
70.0128021240234
20
79.7557983398438
40
0.0
41
0.0
42
0.0
10
69.6743011474609
20
79.85009765625
40
0.0
41
0.0
42
0.0
10
69.5130004882812
20
79.9056015014648
40
0.0
41
0.0
42
0.0
10
69.2976989746094
20
79.9830017089844
40
0.0
41
0.0
42
0.0
10
69.2619018554688
20
80.0003967285156
40
0.0
41
0.0
42
0.0
10
69.0112991333008
20
80.081901550293
40
0.0
41
0.0
42
0.0
10
68.9929962158203
20
80.0924987792969
40
0.0
41
0.0
42
0.0
10
68.9391021728516
20
80.1184997558594
40
0.0
41
0.0
42
0.0
10
68.6726989746094
20
80.5121994018555
40
0.0
41
0.0
42
0.0
10
68.6212997436523
20
80.896598815918
40
0.0
41
0.0
42
0.0
10
68.5344009399414
20
81.0099029541016
40
0.0
41
0.0
42
0.0
10
68.5662002563477
20
81.4057998657227
40
0.0
41
0.0
42
0.0
10
68.5662002563477
20
81.4438018798828
40
0.0
41
0.0
42
0.0
10
68.5600967407227
20
81.4981994628906
40
0.0
41
0.0
42
0.0
10
68.5689010620117
20
81.5589981079102
40
0.0
41
0.0
42
0.0
10
68.6709976196289
20
81.9865036010742
40
0.0
41
0.0
42
0.0
10
68.8471984863281
20
82.4128036499023
40
0.0
41
0.0
42
0.0
10
68.8769989013672
20
82.4897003173828
40
0.0
41
0.0
42
0.0
10
68.9190979003906
20
82.5534973144531
40
0.0
41
0.0
42
0.0
10
69.0027008056641
20
82.6942977905273
40
0.0
41
0.0
42
0.0
10
69.2415008544922
20
82.9813995361328
40
0.0
41
0.0
42
0.0
10
69.2556991577148
20
82.9959030151367
40
0.0
41
0.0
42
0.0
10
69.3190994262695
20
83.0418014526367
40
0.0
41
0.0
42
0.0
10
69.5093002319336
20
83.2085037231445
40
0.0
41
0.0
42
0.0
10
69.5871963500977
20
83.2345962524414
40
0.0
41
0.0
42
0.0
10
70.0136032104492
20
83.4337005615234
40
0.0
41
0.0
42
0.0
10
70.361701965332
20
83.4962005615234
40
0.0
41
0.0
42
0.0
10
70.4445037841797
20
83.502197265625
40
0.0
41
0.0
42
0.0
10
70.5071029663086
20
83.5120010375977
40
0.0
41
0.0
42
0.0
10
70.4809036254883
20
83.5126037597656
40
0.0
41
0.0
42
0.0
10
70.4020004272461
20
83.4999008178711
40
0.0
41
0.0
42
0.0
10
70.2946014404297
20
83.4922027587891
40
0.0
41
0.0
42
0.0
10
69.9863967895508
20
83.4367980957031
40
0.0
41
0.0
42
0.0
10
69.6027984619141
20
83.2575988769531
40
0.0
41
0.0
42
0.0
10
69.4906005859375
20
83.2201995849609
40
0.0
41
0.0
42
0.0
10
69.322998046875
20
83.0730972290039
40
0.0
41
0.0
42
0.0
10
69.2275009155273
20
83.0039978027344
40
0.0
41
0.0
42
0.0
10
69.2105026245117
20
82.9865036010742
40
0.0
41
0.0
42
0.0
10
68.997200012207
20
82.7301025390625
40
0.0
41
0.0
42
0.0
10
68.9225006103516
20
82.6044006347656
40
0.0
41
0.0
42
0.0
10
68.8601989746094
20
82.5102996826172
40
0.0
41
0.0
42
0.0
10
68.8164978027344
20
82.397102355957
40
0.0
41
0.0
42
0.0
10
68.6579971313477
20
82.0134963989258
40
0.0
41
0.0
42
0.0
10
68.5664978027344
20
81.6309967041016
40
0.0
41
0.0
42
0.0
10
68.5503997802734
20
81.5185012817383
40
0.0
41
0.0
42
0.0
10
68.5504989624023
20
81.4811019897461
40
0.0
41
0.0
42
0.0
10
68.5614013671875
20
81.3821029663086
40
0.0
41
0.0
42
0.0
10
68.5324020385742
20
81.0190963745117
40
0.0
41
0.0
42
0.0
10
68.5323028564453
20
80.9871978759766
40
0.0
41
0.0
42
0.0
10
68.5923004150391
20
80.9106979370117
40
0.0
41
0.0
42
0.0
10
68.6486968994141
20
80.4876022338867
40
0.0
41
0.0
42
0.0
10
68.9303970336914
20
80.0712966918945
40
0.0
41
0.0
42
0.0
10
68.9878997802734
20
80.0429000854492
40
0.0
41
0.0
42
0.0
10
69.1213989257812
20
79.999397277832
40
0.0
41
0.0
42
0.0
10
69.1744995117188
20
79.9737014770508
40
0.0
41
0.0
42
0.0
10
69.4869003295898
20
79.8613967895508
40
0.0
41
0.0
42
0.0
10
69.5908966064453
20
79.8256988525391
40
0.0
41
0.0
42
0.0
10
69.9869995117188
20
79.7153015136719
40
0.0
41
0.0
42
0.0
10
70.491096496582
20
79.4934997558594
40
0.0
41
0.0
42
0.0
10
70.5643997192383
20
79.4324035644531
40
0.0
41
0.0
42
0.0
10
70.5708999633789
20
79.4209976196289
40
0.0
41
0.0
42
0.0
10
70.9974975585938
20
79.1074981689453
40
0.0
41
0.0
42
0.0
10
71.0212020874023
20
79.0422973632812
40
0.0
41
0.0
42
0.0
10
71.068603515625
20
78.9903030395508
40
0.0
41
0.0
42
0.0
10
71.089599609375
20
78.9121017456055
40
0.0
41
0.0
42
0.0
10
71.1063995361328
20
78.8760986328125
40
0.0
41
0.0
42
0.0
10
71.4176025390625
20
78.4898986816406
40
0.0
41
0.0
42
0.0
10
71.4527969360352
20
78.3750991821289
40
0.0
41
0.0
42
0.0
10
71.4832992553711
20
78.3385009765625
40
0.0
41
0.0
42
0.0
10
71.4970016479492
20
78.3173980712891
40
0.0
41
0.0
42
0.0
10
71.7469024658203
20
77.9899978637695
40
0.0
41
0.0
42
0.0
10
71.7621994018555
20
77.9461975097656
40
0.0
41
0.0
42
0.0
10
71.8828964233398
20
77.8283996582031
40
0.0
41
0.0
42
0.0
10
71.9095001220703
20
77.7590026855469
40
0.0
41
0.0
42
0.0
10
72.2014999389648
20
77.4965972900391
40
0.0
41
0.0
42
0.0
10
72.2634963989258
20
77.4554977416992
40
0.0
41
0.0
42
0.0
10
72.4940032958984
20
77.2940979003906
40
0.0
41
0.0
42
0.0
10
72.8435974121094
20
77.0549011230469
40
0.0
41
0.0
42
0.0
10
72.9383010864258
20
76.9985961914062
40
0.0
41
0.0
42
0.0
10
72.9897994995117
20
76.9758987426758
40
0.0
41
0.0
42
0.0
10
73.0664978027344
20
76.9279022216797
40
0.0
41
0.0
42
0.0
10
73.377197265625
20
76.6550979614258
40
0.0
41
0.0
42
0.0
10
73.4574966430664
20
76.6092987060547
40
0.0
41
0.0
42
0.0
10
73.4949035644531
20
76.5792999267578
40
0.0
41
0.0
42
0.0
10
73.5619964599609
20
76.4934997558594
40
0.0
41
0.0
42
0.0
10
73.6676025390625
20
76.377197265625
40
0.0
41
0.0
42
0.0
10
73.8749008178711
20
76.002197265625
40
0.0
41
0.0
42
0.0
10
73.8012008666992
20
75.9343032836914
40
0.0
41
0.0
42
0.0
10
73.4904022216797
20
75.682502746582
40
0.0
41
0.0
42
0.0
10
73.1240005493164
20
75.7136001586914
40
0.0
41
0.0
42
0.0
10
73.0129013061523
20
75.7459030151367
40
0.0
41
0.0
42
0.0
10
72.6249008178711
20
75.9086990356445
40
0.0
41
0.0
42
0.0
10
72.5565032958984
20
75.9549026489258
40
0.0
41
0.0
42
0.0
10
72.5057983398438
20
76.0139999389648
40
0.0
41
0.0
42
0.0
10
72.0087966918945
20
76.3572006225586
40
0.0
41
0.0
42
0.0
10
71.7518997192383
20
76.5022964477539
40
0.0
41
0.0
42
0.0
10
71.6956024169922
20
76.5453033447266
40
0.0
41
0.0
42
0.0
10
71.5134963989258
20
76.6694030761719
40
0.0
41
0.0
42
0.0
10
71.4804000854492
20
76.6692962646484
40
0.0
41
0.0
42
0.0
10
71.3975982666016
20
76.665901184082
40
0.0
41
0.0
42
0.0
10
71.0131988525391
20
76.8274002075195
40
0.0
41
0.0
42
0.0
10
70.6323013305664
20
76.9253997802734
40
0.0
41
0.0
42
0.0
10
70.5961990356445
20
76.9253005981445
40
0.0
41
0.0
42
0.0
10
70.4830017089844
20
76.9121017456055
40
0.0
41
0.0
42
0.0
10
70.4227981567383
20
76.9016036987305
40
0.0
41
0.0
42
0.0
10
70.0432968139648
20
76.9997024536133
40
0.0
41
0.0
42
0.0
10
70.0152969360352
20
77.0084991455078
40
0.0
41
0.0
42
0.0
10
69.8653030395508
20
77.0302963256836
40
0.0
41
0.0
42
0.0
10
69.5102005004883
20
77.1794967651367
40
0.0
41
0.0
42
0.0
10
69.0234985351562
20
77.4877014160156
40
0.0
41
0.0
42
0.0
10
69.0092010498047
20
77.4937973022461
40
0.0
41
0.0
42
0.0
10
68.9955978393555
20
77.5043029785156
40
0.0
41
0.0
42
0.0
10
68.5267028808594
20
78.0067977905273
40
0.0
41
0.0
42
0.0
10
68.503303527832
20
78.0416030883789
40
0.0
41
0.0
42
0.0
10
68.1663970947266
20
78.4241027832031
40
0.0
41
0.0
42
0.0
10
68.0058975219727
20
78.5841979980469
40
0.0
41
0.0
42
0.0
10
67.880500793457
20
78.6827011108398
40
0.0
41
0.0
42
0.0
10
67.5173034667969
20
78.7370986938477
40
0.0
41
0.0
42
0.0
10
67.4065017700195
20
78.7488021850586
40
0.0
41
0.0
42
0.0
10
67.3703994750977
20
78.7487030029297
40
0.0
41
0.0
42
0.0
10
66.9877014160156
20
78.6445999145508
40
0.0
41
0.0
42
0.0
10
66.7162017822266
20
78.5018005371094
40
0.0
41
0.0
42
0.0
10
66.689697265625
20
78.4848022460938
40
0.0
41
0.0
42
0.0
10
66.5619964599609
20
78.4203033447266
40
0.0
41
0.0
42
0.0
10
66.488899230957
20
78.404899597168
40
0.0
41
0.0
42
0.0
10
66.0665969848633
20
78.0821990966797
40
0.0
41
0.0
42
0.0
10
65.992301940918
20
78.0401000976562
40
0.0
41
0.0
42
0.0
10
65.9529037475586
20
78.0046997070312
40
0.0
41
0.0
42
0.0
10
65.8795013427734
20
77.9306030273438
40
0.0
41
0.0
42
0.0
10
65.8447036743164
20
77.8914031982422
40
0.0
41
0.0
42
0.0
10
65.5351028442383
20
77.5065002441406
40
0.0
41
0.0
42
0.0
10
65.4990997314453
20
77.4269027709961
40
0.0
41
0.0
42
0.0
10
65.3679962158203
20
77.1234970092773
40
0.0
41
0.0
42
0.0
10
65.3093032836914
20
77.0130996704102
40
0.0
41
0.0
42
0.0
10
65.2900009155273
20
76.9021987915039
40
0.0
41
0.0
42
0.0
10
65.2550964355469
20
76.5189971923828
40
0.0
41
0.0
42
0.0
10
65.254997253418
20
76.4813003540039
40
0.0
41
0.0
42
0.0
10
65.2690963745117
20
76.3681030273438
40
0.0
41
0.0
42
0.0
10
65.3392028808594
20
75.9857025146484
40
0.0
41
0.0
42
0.0
210
0.0
220
0.0
230
1.0
0
LWPOLYLINE
5
25
330
1C
100
AcDbEntity
67
0
8
0
62
256
6
ByLayer
370
-1
48
1.0
60
0
100
AcDbPolyline
90
420
70
1
38
0.0
39
0.0
10
70.8712005615234
20
83.5047988891602
40
0.0
41
0.0
42
0.0
10
70.9064025878906
20
83.5007019042969
40
0.0
41
0.0
42
0.0
10
70.9835968017578
20
83.4885025024414
40
0.0
41
0.0
42
0.0
10
71.3712005615234
20
83.4113006591797
40
0.0
41
0.0
42
0.0
10
71.4878005981445
20
83.3609008789062
40
0.0
41
0.0
42
0.0
10
71.8751983642578
20
83.2153015136719
40
0.0
41
0.0
42
0.0
10
71.9414978027344
20
83.1649017333984
40
0.0
41
0.0
42
0.0
10
71.9906005859375
20
83.1328964233398
40
0.0
41
0.0
42
0.0
10
72.2437973022461
20
82.9961013793945
40
0.0
41
0.0
42
0.0
10
72.3078002929688
20
82.9075012207031
40
0.0
41
0.0
42
0.0
10
72.4983978271484
20
82.5064010620117
40
0.0
41
0.0
42
0.0
10
72.5103988647461
20
82.4869995117188
40
0.0
41
0.0
42
0.0
10
72.5124969482422
20
82.0177001953125
40
0.0
41
0.0
42
0.0
10
72.5008010864258
20
81.9087982177734
40
0.0
41
0.0
42
0.0
10
72.4661026000977
20
81.5189971923828
40
0.0
41
0.0
42
0.0
10
72.4649963378906
20
80.9825973510742
40
0.0
41
0.0
42
0.0
10
72.5003967285156
20
80.8481979370117
40
0.0
41
0.0
42
0.0
10
72.5712966918945
20
80.4889984130859
40
0.0
41
0.0
42
0.0
10
72.6617965698242
20
80.3755035400391
40
0.0
41
0.0
42
0.0
10
72.811897277832
20
79.989501953125
40
0.0
41
0.0
42
0.0
10
72.8940963745117
20
79.861198425293
40
0.0
41
0.0
42
0.0
10
72.9922027587891
20
79.793098449707
40
0.0
41
0.0
42
0.0
10
73.0455017089844
20
79.753303527832
40
0.0
41
0.0
42
0.0
10
73.19580078125
20
79.4900970458984
40
0.0
41
0.0
42
0.0
10
73.4225006103516
20
79.0673980712891
40
0.0
41
0.0
42
0.0
10
73.4960021972656
20
78.9925003051758
40
0.0
41
0.0
42
0.0
10
73.5910034179688
20
78.8187026977539
40
0.0
41
0.0
42
0.0
10
73.7230987548828
20
78.4845962524414
40
0.0
41
0.0
42
0.0
10
73.7301025390625
20
78.3807983398438
40
0.0
41
0.0
42
0.0
10
73.8139038085938
20
77.9832992553711
40
0.0
41
0.0
42
0.0
10
73.828498840332
20
77.8499984741211
40
0.0
41
0.0
42
0.0
10
73.8996963500977
20
77.4868011474609
40
0.0
41
0.0
42
0.0
10
73.9981002807617
20
77.2904968261719
40
0.0
41
0.0
42
0.0
10
74.0190963745117
20
77.2581024169922
40
0.0
41
0.0
42
0.0
10
74.0969009399414
20
77.0597991943359
40
0.0
41
0.0
42
0.0
10
74.1032028198242
20
76.9835968017578
40
0.0
41
0.0
42
0.0
10
74.1230010986328
20
76.9121017456055
40
0.0
41
0.0
42
0.0
10
74.1404037475586
20
76.8740005493164
40
0.0
41
0.0
42
0.0
10
74.3291015625
20
76.4935989379883
40
0.0
41
0.0
42
0.0
10
74.4514999389648
20
76.3990020751953
40
0.0
41
0.0
42
0.0
10
74.4886016845703
20
76.3620986938477
40
0.0
41
0.0
42
0.0
10
74.5161972045898
20
76.3620986938477
40
0.0
41
0.0
42
0.0
10
74.7742004394531
20
76.456901550293
40
0.0
41
0.0
42
0.0
10
74.840202331543
20
76.4934005737305
40
0.0
41
0.0
42
0.0
10
74.8535003662109
20
76.561897277832
40
0.0
41
0.0
42
0.0
10
74.8855972290039
20
76.6240005493164
40
0.0
41
0.0
42
0.0
10
75.0015029907227
20
76.7975997924805
40
0.0
41
0.0
42
0.0
10
75.0893020629883
20
76.9845962524414
40
0.0
41
0.0
42
0.0
10
75.0892028808594
20
77.0189971923828
40
0.0
41
0.0
42
0.0
10
75.0707015991211
20
77.2240982055664
40
0.0
41
0.0
42
0.0
10
75.0743026733398
20
77.5179977416992
40
0.0
41
0.0
42
0.0
10
74.9992980957031
20
77.8880004882812
40
0.0
41
0.0
42
0.0
10
74.9830017089844
20
77.9751968383789
40
0.0
41
0.0
42
0.0
10
74.9664001464844
20
78.0137023925781
40
0.0
41
0.0
42
0.0
10
74.934700012207
20
78.1756973266602
40
0.0
41
0.0
42
0.0
10
74.9245986938477
20
78.2085037231445
40
0.0
41
0.0
42
0.0
10
74.864501953125
20
78.4720993041992
40
0.0
41
0.0
42
0.0
10
74.8488006591797
20
78.5158004760742
40
0.0
41
0.0
42
0.0
10
74.8435974121094
20
78.61669921875
40
0.0
41
0.0
42
0.0
10
74.8014984130859
20
78.9925003051758
40
0.0
41
0.0
42
0.0
10
74.8218002319336
20
79.0586013793945
40
0.0
41
0.0
42
0.0
10
74.8424987792969
20
79.4821014404297
40
0.0
41
0.0
42
0.0
10
74.9085006713867
20
79.9115982055664
40
0.0
41
0.0
42
0.0
10
74.9490966796875
20
79.9898986816406
40
0.0
41
0.0
42
0.0
10
74.9777984619141
20
80.0410003662109
40
0.0
41
0.0
42
0.0
10
74.9992980957031
20
80.2151031494141
40
0.0
41
0.0
42
0.0
10
75.0324020385742
20
80.4592971801758
40
0.0
41
0.0
42
0.0
10
75.0522994995117
20
80.4868011474609
40
0.0
41
0.0
42
0.0
10
75.0522003173828
20
80.5195007324219
40
0.0
41
0.0
42
0.0
10
75.0393981933594
20
80.872200012207
40
0.0
41
0.0
42
0.0
10
75.0925979614258
20
80.9853973388672
40
0.0
41
0.0
42
0.0
10
75.1004028320312
20
81.0933990478516
40
0.0
41
0.0
42
0.0
10
75.1003036499023
20
81.1323013305664
40
0.0
41
0.0
42
0.0
10
75.0848007202148
20
81.1920013427734
40
0.0
41
0.0
42
0.0
10
74.989501953125
20
81.5122985839844
40
0.0
41
0.0
42
0.0
10
74.9683990478516
20
81.5558013916016
40
0.0
41
0.0
42
0.0
10
74.7662963867188
20
82.011100769043
40
0.0
41
0.0
42
0.0
10
74.6780014038086
20
82.1930999755859
40
0.0
41
0.0
42
0.0
10
74.5035018920898
20
82.5236968994141
40
0.0
41
0.0
42
0.0
10
74.5
20
82.5355987548828
40
0.0
41
0.0
42
0.0
10
74.3180999755859
20
82.9999008178711
40
0.0
41
0.0
42
0.0
10
74.4357986450195
20
83.2987976074219
40
0.0
41
0.0
42
0.0
10
74.4356994628906
20
83.4890975952148
40
0.0
41
0.0
42
0.0
10
74.504997253418
20
83.5539016723633
40
0.0
41
0.0
42
0.0
10
74.7994995117188
20
83.877799987793
40
0.0
41
0.0
42
0.0
10
74.8234024047852
20
83.9149017333984
40
0.0
41
0.0
42
0.0
10
74.8569030761719
20
83.9922027587891
40
0.0
41
0.0
42
0.0
10
74.8961029052734
20
84.0297012329102
40
0.0
41
0.0
42
0.0
10
75.0082015991211
20
84.1102981567383
40
0.0
41
0.0
42
0.0
10
75.4330978393555
20
84.3816986083984
40
0.0
41
0.0
42
0.0
10
75.5093994140625
20
84.4375
40
0.0
41
0.0
42
0.0
10
75.6803970336914
20
84.5130004882812
40
0.0
41
0.0
42
0.0
10
75.9372024536133
20
84.6183013916016
40
0.0
41
0.0
42
0.0
10
76.0148010253906
20
84.6483001708984
40
0.0
41
0.0
42
0.0
10
76.091796875
20
84.6578979492188
40
0.0
41
0.0
42
0.0
10
76.5003967285156
20
84.7328033447266
40
0.0
41
0.0
42
0.0
10
76.5577011108398
20
84.7228012084961
40
0.0
41
0.0
42
0.0
10
76.9860000610352
20
84.6837997436523
40
0.0
41
0.0
42
0.0
10
77.0624008178711
20
84.6432037353516
40
0.0
41
0.0
42
0.0
10
77.3962020874023
20
84.4990997314453
40
0.0
41
0.0
42
0.0
10
77.4909973144531
20
84.4558029174805
40
0.0
41
0.0
42
0.0
10
77.8970031738281
20
84.1287994384766
40
0.0
41
0.0
42
0.0
10
77.9951019287109
20
84.0317993164062
40
0.0
41
0.0
42
0.0
10
78.0307006835938
20
83.992301940918
40
0.0
41
0.0
42
0.0
10
78.0962982177734
20
83.8765029907227
40
0.0
41
0.0
42
0.0
10
78.3925018310547
20
83.488899230957
40
0.0
41
0.0
42
0.0
10
78.4171981811523
20
83.3719024658203
40
0.0
41
0.0
42
0.0
10
78.4721984863281
20
83.2626037597656
40
0.0
41
0.0
42
0.0
10
78.4980010986328
20
83.222297668457
40
0.0
41
0.0
42
0.0
10
78.6214981079102
20
82.9877014160156
40
0.0
41
0.0
42
0.0
10
78.7093963623047
20
82.6651000976562
40
0.0
41
0.0
42
0.0
10
78.6938018798828
20
82.5173034667969
40
0.0
41
0.0
42
0.0
10
78.6481018066406
20
82.211799621582
40
0.0
41
0.0
42
0.0
10
78.486701965332
20
82.0055999755859
40
0.0
41
0.0
42
0.0
10
77.993896484375
20
81.5578002929688
40
0.0
41
0.0
42
0.0
10
77.9326019287109
20
81.5043029785156
40
0.0
41
0.0
42
0.0
10
77.4953994750977
20
81.0976028442383
40
0.0
41
0.0
42
0.0
10
77.4268035888672
20
81.0092010498047
40
0.0
41
0.0
42
0.0
10
77.3749008178711
20
80.8864974975586
40
0.0
41
0.0
42
0.0
10
77.1364974975586
20
80.5102005004883
40
0.0
41
0.0
42
0.0
10
77.0241012573242
20
80.2426986694336
40
0.0
41
0.0
42
0.0
10
77.0007019042969
20
80.0820999145508
40
0.0
41
0.0
42
0.0
10
76.9928970336914
20
80.0160980224609
40
0.0
41
0.0
42
0.0
10
76.8939971923828
20
79.6323013305664
40
0.0
41
0.0
42
0.0
10
76.8938980102539
20
79.5961990356445
40
0.0
41
0.0
42
0.0
10
76.8984985351562
20
79.5566024780273
40
0.0
41
0.0
42
0.0
10
76.9114990234375
20
79.4830017089844
40
0.0
41
0.0
42
0.0
10
76.9175033569336
20
79.4309997558594
40
0.0
41
0.0
42
0.0
10
76.8102035522461
20
79.0131988525391
40
0.0
41
0.0
42
0.0
10
76.6327972412109
20
78.5908966064453
40
0.0
41
0.0
42
0.0
10
76.6343994140625
20
78.5114974975586
40
0.0
41
0.0
42
0.0
10
76.5484008789062
20
78.3850021362305
40
0.0
41
0.0
42
0.0
10
76.4974975585938
20
78.3184967041016
40
0.0
41
0.0
42
0.0
10
76.3000030517578
20
77.9705963134766
40
0.0
41
0.0
42
0.0
10
76.2689971923828
20
77.9326019287109
40
0.0
41
0.0
42
0.0
10
76.0410995483398
20
77.5794982910156
40
0.0
41
0.0
42
0.0
10
75.9962005615234
20
77.5289993286133
40
0.0
41
0.0
42
0.0
10
75.9786987304688
20
77.5055999755859
40
0.0
41
0.0
42
0.0
10
75.9414978027344
20
77.4728012084961
40
0.0
41
0.0
42
0.0
10
75.915901184082
20
77.4348983764648
40
0.0
41
0.0
42
0.0
10
75.7387008666992
20
77.0129013061523
40
0.0
41
0.0
42
0.0
10
75.7177963256836
20
76.9406967163086
40
0.0
41
0.0
42
0.0
10
75.7132034301758
20
76.9028015136719
40
0.0
41
0.0
42
0.0
10
75.6809005737305
20
76.5227966308594
40
0.0
41
0.0
42
0.0
10
75.6807022094727
20
76.4872970581055
40
0.0
41
0.0
42
0.0
10
75.9188003540039
20
76.1930999755859
40
0.0
41
0.0
42
0.0
10
75.9893035888672
20
76.1151962280273
40
0.0
41
0.0
42
0.0
10
76.0145034790039
20
76.1150970458984
40
0.0
41
0.0
42
0.0
10
76.4326019287109
20
76.3463973999023
40
0.0
41
0.0
42
0.0
10
76.5064010620117
20
76.4132995605469
40
0.0
41
0.0
42
0.0
10
76.6098022460938
20
76.4943008422852
40
0.0
41
0.0
42
0.0
10
76.6565017700195
20
76.5673980712891
40
0.0
41
0.0
42
0.0
10
76.9674987792969
20
76.9420013427734
40
0.0
41
0.0
42
0.0
10
77.0111999511719
20
76.992301940918
40
0.0
41
0.0
42
0.0
10
77.0679016113281
20
77.0875015258789
40
0.0
41
0.0
42
0.0
10
77.3444976806641
20
77.4918975830078
40
0.0
41
0.0
42
0.0
10
77.4487991333008
20
77.6406021118164
40
0.0
41
0.0
42
0.0
10
77.503303527832
20
77.7230987548828
40
0.0
41
0.0
42
0.0
10
77.7490005493164
20
77.9953994750977
40
0.0
41
0.0
42
0.0
10
77.8491973876953
20
78.0730972290039
40
0.0
41
0.0
42
0.0
10
77.8820037841797
20
78.0875015258789
40
0.0
41
0.0
42
0.0
10
78.0059967041016
20
78.2144012451172
40
0.0
41
0.0
42
0.0
10
78.3765029907227
20
78.4971008300781
40
0.0
41
0.0
42
0.0
10
78.3896026611328
20
78.5055999755859
40
0.0
41
0.0
42
0.0
10
78.4347991943359
20
78.5431976318359
40
0.0
41
0.0
42
0.0
10
78.5141983032227
20
78.5675964355469
40
0.0
41
0.0
42
0.0
10
78.5866012573242
20
78.5871963500977
40
0.0
41
0.0
42
0.0
10
78.6229019165039
20
78.6091995239258
40
0.0
41
0.0
42
0.0
10
79.0063018798828
20
78.9181976318359
40
0.0
41
0.0
42
0.0
10
79.0553970336914
20
78.9628982543945
40
0.0
41
0.0
42
0.0
10
79.1500015258789
20
78.9974975585938
40
0.0
41
0.0
42
0.0
10
79.4318008422852
20
79.3809967041016
40
0.0
41
0.0
42
0.0
10
79.4506988525391
20
79.3917999267578
40
0.0
41
0.0
42
0.0
10
79.5043029785156
20
79.4559020996094
40
0.0
41
0.0
42
0.0
10
79.5398025512695
20
79.4924011230469
40
0.0
41
0.0
42
0.0
10
79.602897644043
20
79.6147994995117
40
0.0
41
0.0
42
0.0
10
79.7107009887695
20
79.8733978271484
40
0.0
41
0.0
42
0.0
10
79.7233963012695
20
79.9008026123047
40
0.0
41
0.0
42
0.0
10
79.7556991577148
20
79.9865036010742
40
0.0
41
0.0
42
0.0
10
79.8501968383789
20
80.3255004882812
40
0.0
41
0.0
42
0.0
10
79.9056015014648
20
80.4869003295898
40
0.0
41
0.0
42
0.0
10
79.9831008911133
20
80.7021026611328
40
0.0
41
0.0
42
0.0
10
80.0003967285156
20
80.7378997802734
40
0.0
41
0.0
42
0.0
10
80.0820007324219
20
80.9886016845703
40
0.0
41
0.0
42
0.0
10
80.0925979614258
20
81.0067977905273
40
0.0
41
0.0
42
0.0
10
80.1184997558594
20
81.0606002807617
40
0.0
41
0.0
42
0.0
10
80.5075988769531
20
81.3237991333008
40
0.0
41
0.0
42
0.0
10
80.6238021850586
20
81.4149017333984
40
0.0
41
0.0
42
0.0
10
81.0044021606445
20
81.4657974243164
40
0.0
41
0.0
42
0.0
10
81.4050979614258
20
81.4337005615234
40
0.0
41
0.0
42
0.0
10
81.4438018798828
20
81.4336013793945
40
0.0
41
0.0
42
0.0
10
81.4982986450195
20
81.4395980834961
40
0.0
41
0.0
42
0.0
10
81.5588989257812
20
81.4309005737305
40
0.0
41
0.0
42
0.0
10
81.986198425293
20
81.3286972045898
40
0.0
41
0.0
42
0.0
10
82.0627975463867
20
81.2988967895508
40
0.0
41
0.0
42
0.0
10
82.4897994995117
20
81.1225967407227
40
0.0
41
0.0
42
0.0
10
82.5534973144531
20
81.0805969238281
40
0.0
41
0.0
42
0.0
10
82.6942977905273
20
80.9971008300781
40
0.0
41
0.0
42
0.0
10
82.9813995361328
20
80.7582015991211
40
0.0
41
0.0
42
0.0
10
82.9959030151367
20
80.7441024780273
40
0.0
41
0.0
42
0.0
10
83.0417022705078
20
80.6807022094727
40
0.0
41
0.0
42
0.0
10
83.2085037231445
20
80.4906005859375
40
0.0
41
0.0
42
0.0
10
83.2344970703125
20
80.4126968383789
40
0.0
41
0.0
42
0.0
10
83.4337005615234
20
79.9862976074219
40
0.0
41
0.0
42
0.0
10
83.4962005615234
20
79.6380996704102
40
0.0
41
0.0
42
0.0
10
83.502197265625
20
79.5552978515625
40
0.0
41
0.0
42
0.0
10
83.5119018554688
20
79.4932022094727
40
0.0
41
0.0
42
0.0
10
83.5124969482422
20
79.5188980102539
40
0.0
41
0.0
42
0.0
10
83.4999008178711
20
79.5978012084961
40
0.0
41
0.0
42
0.0
10
83.4921035766602
20
79.7052001953125
40
0.0
41
0.0
42
0.0
10
83.4367980957031
20
80.0134963989258
40
0.0
41
0.0
42
0.0
10
83.2574996948242
20
80.397102355957
40
0.0
41
0.0
42
0.0
10
83.220100402832
20
80.5093002319336
40
0.0
41
0.0
42
0.0
10
83.072998046875
20
80.6768035888672
40
0.0
41
0.0
42
0.0
10
83.0039978027344
20
80.7723007202148
40
0.0
41
0.0
42
0.0
10
82.9863967895508
20
80.7892990112305
40
0.0
41
0.0
42
0.0
10
82.7301025390625
20
81.0027008056641
40
0.0
41
0.0
42
0.0
10
82.6044006347656
20
81.0772018432617
40
0.0
41
0.0
42
0.0
10
82.5100021362305
20
81.1395034790039
40
0.0
41
0.0
42
0.0
10
82.1270980834961
20
81.2975997924805
40
0.0
41
0.0
42
0.0
10
82.0137023925781
20
81.3416976928711
40
0.0
41
0.0
42
0.0
10
81.6309967041016
20
81.4331970214844
40
0.0
41
0.0
42
0.0
10
81.5185012817383
20
81.4493026733398
40
0.0
41
0.0
42
0.0
10
81.4811019897461
20
81.4492034912109
40
0.0
41
0.0
42
0.0
10
81.3821029663086
20
81.4383010864258
40
0.0
41
0.0
42
0.0
10
81.0190963745117
20
81.4674987792969
40
0.0
41
0.0
42
0.0
10
80.9813995361328
20
81.467399597168
40
0.0
41
0.0
42
0.0
10
80.5981979370117
20
81.4161987304688
40
0.0
41
0.0
42
0.0
10
80.5637969970703
20
81.4101028442383
40
0.0
41
0.0
42
0.0
10
80.492301940918
20
81.3542022705078
40
0.0
41
0.0
42
0.0
10
80.0712966918945
20
81.0693969726562
40
0.0
41
0.0
42
0.0
10
80.0429000854492
20
81.0120010375977
40
0.0
41
0.0
42
0.0
10
79.999397277832
20
80.8784027099609
40
0.0
41
0.0
42
0.0
10
79.9737014770508
20
80.8253021240234
40
0.0
41
0.0
42
0.0
10
79.8613967895508
20
80.5130004882812
40
0.0
41
0.0
42
0.0
10
79.8256988525391
20
80.4088973999023
40
0.0
41
0.0
42
0.0
10
79.7154998779297
20
80.0133972167969
40
0.0
41
0.0
42
0.0
10
79.6934967041016
20
79.9552993774414
40
0.0
41
0.0
42
0.0
10
79.5654983520508
20
79.6501998901367
40
0.0
41
0.0
42
0.0
10
79.4932022094727
20
79.50830078125
40
0.0
41
0.0
42
0.0
10
79.432502746582
20
79.4355010986328
40
0.0
41
0.0
42
0.0
10
79.4210968017578
20
79.4289016723633
40
0.0
41
0.0
42
0.0
10
79.1075973510742
20
79.0024032592773
40
0.0
41
0.0
42
0.0
10
79.0423965454102
20
78.9785003662109
40
0.0
41
0.0
42
0.0
10
78.9935989379883
20
78.9340972900391
40
0.0
41
0.0
42
0.0
10
78.5899963378906
20
78.6089019775391
40
0.0
41
0.0
42
0.0
10
78.4858016967773
20
78.5809020996094
40
0.0
41
0.0
42
0.0
10
78.3751983642578
20
78.5468978881836
40
0.0
41
0.0
42
0.0
10
78.3386001586914
20
78.5164031982422
40
0.0
41
0.0
42
0.0
10
78.3173980712891
20
78.502799987793
40
0.0
41
0.0
42
0.0
10
77.993896484375
20
78.2557983398438
40
0.0
41
0.0
42
0.0
10
77.881103515625
20
78.1402969360352
40
0.0
41
0.0
42
0.0
10
77.8274002075195
20
78.1167984008789
40
0.0
41
0.0
42
0.0
10
77.6827011108398
20
78.0045013427734
40
0.0
41
0.0
42
0.0
10
77.4965972900391
20
77.7983016967773
40
0.0
41
0.0
42
0.0
10
77.4555969238281
20
77.7362976074219
40
0.0
41
0.0
42
0.0
10
77.2956008911133
20
77.5080032348633
40
0.0
41
0.0
42
0.0
10
77.0550003051758
20
77.1560974121094
40
0.0
41
0.0
42
0.0
10
76.9985961914062
20
77.0615005493164
40
0.0
41
0.0
42
0.0
10
76.9754028320312
20
77.0087966918945
40
0.0
41
0.0
42
0.0
10
76.654899597168
20
76.6225967407227
40
0.0
41
0.0
42
0.0
10
76.5802001953125
20
76.5055999755859
40
0.0
41
0.0
42
0.0
10
76.4934997558594
20
76.4377975463867
40
0.0
41
0.0
42
0.0
10
76.377197265625
20
76.3321990966797
40
0.0
41
0.0
42
0.0
10
76.002197265625
20
76.1249008178711
40
0.0
41
0.0
42
0.0
10
75.9387969970703
20
76.1930999755859
40
0.0
41
0.0
42
0.0
10
75.682502746582
20
76.5094985961914
40
0.0
41
0.0
42
0.0
10
75.7136001586914
20
76.8759002685547
40
0.0
41
0.0
42
0.0
10
75.7459030151367
20
76.9869995117188
40
0.0
41
0.0
42
0.0
10
75.9087982177734
20
77.375
40
0.0
41
0.0
42
0.0
10
75.9549026489258
20
77.4432983398438
40
0.0
41
0.0
42
0.0
10
76.0149993896484
20
77.4949035644531
40
0.0
41
0.0
42
0.0
10
76.0712966918945
20
77.5581970214844
40
0.0
41
0.0
42
0.0
10
76.2773971557617
20
77.8772964477539
40
0.0
41
0.0
42
0.0
10
76.3238983154297
20
77.9346008300781
40
0.0
41
0.0
42
0.0
10
76.3569030761719
20
77.9905014038086
40
0.0
41
0.0
42
0.0
10
76.5024032592773
20
78.247802734375
40
0.0
41
0.0
42
0.0
10
76.5454025268555
20
78.30419921875
40
0.0
41
0.0
42
0.0
10
76.6694030761719
20
78.4863967895508
40
0.0
41
0.0
42
0.0
10
76.6692962646484
20
78.5195007324219
40
0.0
41
0.0
42
0.0
10
76.6660003662109
20
78.6023025512695
40
0.0
41
0.0
42
0.0
10
76.8274002075195
20
78.986701965332
40
0.0
41
0.0
42
0.0
10
76.9253997802734
20
79.3675994873047
40
0.0
41
0.0
42
0.0
10
76.9253005981445
20
79.4037017822266
40
0.0
41
0.0
42
0.0
10
76.9121017456055
20
79.5168991088867
40
0.0
41
0.0
42
0.0
10
76.9016036987305
20
79.5771026611328
40
0.0
41
0.0
42
0.0
10
76.9997024536133
20
79.9564971923828
40
0.0
41
0.0
42
0.0
10
77.0084991455078
20
79.9845962524414
40
0.0
41
0.0
42
0.0
10
77.0302963256836
20
80.1344985961914
40
0.0
41
0.0
42
0.0
10
77.1794967651367
20
80.4897003173828
40
0.0
41
0.0
42
0.0
10
77.4878005981445
20
80.9761962890625
40
0.0
41
0.0
42
0.0
10
77.493896484375
20
80.9906997680664
40
0.0
41
0.0
42
0.0
10
77.5044021606445
20
81.0042037963867
40
0.0
41
0.0
42
0.0
10
78.0068969726562
20
81.4729995727539
40
0.0
41
0.0
42
0.0
10
78.0416030883789
20
81.4965972900391
40
0.0
41
0.0
42
0.0
10
78.424201965332
20
81.8333969116211
40
0.0
41
0.0
42
0.0
10
78.5842971801758
20
81.993896484375
40
0.0
41
0.0
42
0.0
10
78.6827011108398
20
82.1193008422852
40
0.0
41
0.0
42
0.0
10
78.7370986938477
20
82.4825973510742
40
0.0
41
0.0
42
0.0
10
78.7488021850586
20
82.5933990478516
40
0.0
41
0.0
42
0.0
10
78.7487030029297
20
82.6294021606445
40
0.0
41
0.0
42
0.0
10
78.6445999145508
20
83.0121994018555
40
0.0
41
0.0
42
0.0
10
78.5017013549805
20
83.2835998535156
40
0.0
41
0.0
42
0.0
10
78.4847030639648
20
83.3100967407227
40
0.0
41
0.0
42
0.0
10
78.4203033447266
20
83.4378967285156
40
0.0
41
0.0
42
0.0
10
78.404899597168
20
83.5109024047852
40
0.0
41
0.0
42
0.0
10
78.0820999145508
20
83.9332962036133
40
0.0
41
0.0
42
0.0
10
78.0400009155273
20
84.0074996948242
40
0.0
41
0.0
42
0.0
10
78.0046997070312
20
84.0467987060547
40
0.0
41
0.0
42
0.0
10
77.9306030273438
20
84.1202011108398
40
0.0
41
0.0
42
0.0
10
77.8912963867188
20
84.1550979614258
40
0.0
41
0.0
42
0.0
10
77.5064010620117
20
84.464599609375
40
0.0
41
0.0
42
0.0
10
77.4268035888672
20
84.5007019042969
40
0.0
41
0.0
42
0.0
10
77.1233978271484
20
84.6316986083984
40
0.0
41
0.0
42
0.0
10
77.013801574707
20
84.6899032592773
40
0.0
41
0.0
42
0.0
10
76.6322021484375
20
84.7247009277344
40
0.0
41
0.0
42
0.0
10
76.5180969238281
20
84.7447967529297
40
0.0
41
0.0
42
0.0
10
76.4819030761719
20
84.7446975708008
40
0.0
41
0.0
42
0.0
10
76.0981979370117
20
84.6743011474609
40
0.0
41
0.0
42
0.0
10
75.9850997924805
20
84.6602020263672
40
0.0
41
0.0
42
0.0
10
75.8727035522461
20
84.61669921875
40
0.0
41
0.0
42
0.0
10
75.640998840332
20
84.5216979980469
40
0.0
41
0.0
42
0.0
10
75.4905014038086
20
84.4551010131836
40
0.0
41
0.0
42
0.0
10
75.3768005371094
20
84.3719024658203
40
0.0
41
0.0
42
0.0
10
74.99169921875
20
84.1259994506836
40
0.0
41
0.0
42
0.0
10
74.8934020996094
20
84.0552978515625
40
0.0
41
0.0
42
0.0
10
74.8436965942383
20
84.007698059082
40
0.0
41
0.0
42
0.0
10
74.8038024902344
20
83.9157028198242
40
0.0
41
0.0
42
0.0
10
74.4949035644531
20
83.5764007568359
40
0.0
41
0.0
42
0.0
10
74.4250030517578
20
83.5108032226562
40
0.0
41
0.0
42
0.0
10
74.4250030517578
20
83.3952026367188
40
0.0
41
0.0
42
0.0
10
74.2754974365234
20
83.015998840332
40
0.0
41
0.0
42
0.0
10
74.2753982543945
20
82.9839019775391
40
0.0
41
0.0
42
0.0
10
74.413200378418
20
82.6321029663086
40
0.0
41
0.0
42
0.0
10
74.4524002075195
20
82.4891967773438
40
0.0
41
0.0
42
0.0
10
74.4977035522461
20
82.4278030395508
40
0.0
41
0.0
42
0.0
10
74.613899230957
20
82.206901550293
40
0.0
41
0.0
42
0.0
10
74.719596862793
20
81.9888000488281
40
0.0
41
0.0
42
0.0
10
74.8514022827148
20
81.6918029785156
40
0.0
41
0.0
42
0.0
10
74.950798034668
20
81.4875030517578
40
0.0
41
0.0
42
0.0
10
75.0557022094727
20
81.1297988891602
40
0.0
41
0.0
42
0.0
10
75.0725021362305
20
81.0653991699219
40
0.0
41
0.0
42
0.0
10
75.0689010620117
20
81.0146026611328
40
0.0
41
0.0
42
0.0
10
75.0341033935547
20
80.940299987793
40
0.0
41
0.0
42
0.0
10
75.0339965820312
20
80.9052963256836
40
0.0
41
0.0
42
0.0
10
75.0484008789062
20
80.5115966796875
40
0.0
41
0.0
42
0.0
10
75.0327987670898
20
80.4899978637695
40
0.0
41
0.0
42
0.0
10
75.0310974121094
20
80.484001159668
40
0.0
41
0.0
42
0.0
10
75.0007019042969
20
80.2598037719727
40
0.0
41
0.0
42
0.0
10
74.980598449707
20
80.0968017578125
40
0.0
41
0.0
42
0.0
10
74.9319000244141
20
80.0100021362305
40
0.0
41
0.0
42
0.0
10
74.8739013671875
20
79.8983993530273
40
0.0
41
0.0
42
0.0
10
74.8154983520508
20
79.5177993774414
40
0.0
41
0.0
42
0.0
10
74.796501159668
20
79.1313018798828
40
0.0
41
0.0
42
0.0
10
74.7612991333008
20
79.0167999267578
40
0.0
41
0.0
42
0.0
10
74.7611999511719
20
78.9811019897461
40
0.0
41
0.0
42
0.0
10
74.8003005981445
20
78.632698059082
40
0.0
41
0.0
42
0.0
10
74.8080978393555
20
78.4841003417969
40
0.0
41
0.0
42
0.0
10
74.8304977416992
20
78.4216003417969
40
0.0
41
0.0
42
0.0
10
74.8852005004883
20
78.1819000244141
40
0.0
41
0.0
42
0.0
10
74.9009017944336
20
78.1307983398438
40
0.0
41
0.0
42
0.0
10
74.9291000366211
20
77.986198425293
40
0.0
41
0.0
42
0.0
10
74.9646987915039
20
77.9040985107422
40
0.0
41
0.0
42
0.0
10
75.0005035400391
20
77.7118988037109
40
0.0
41
0.0
42
0.0
10
75.046501159668
20
77.4844970703125
40
0.0
41
0.0
42
0.0
10
75.0446014404297
20
77.3031997680664
40
0.0
41
0.0
42
0.0
10
75.0711975097656
20
77.0098037719727
40
0.0
41
0.0
42
0.0
10
74.9982986450195
20
76.8543014526367
40
0.0
41
0.0
42
0.0
10
74.9044036865234
20
76.7138977050781
40
0.0
41
0.0
42
0.0
10
74.8600997924805
20
76.6279983520508
40
0.0
41
0.0
42
0.0
10
74.8370971679688
20
76.5064010620117
40
0.0
41
0.0
42
0.0
10
74.7758026123047
20
76.4720001220703
40
0.0
41
0.0
42
0.0
10
74.5037994384766
20
76.3720016479492
40
0.0
41
0.0
42
0.0
10
74.478401184082
20
76.3973007202148
40
0.0
41
0.0
42
0.0
10
74.3373031616211
20
76.5062026977539
40
0.0
41
0.0
42
0.0
10
74.1396026611328
20
76.904899597168
40
0.0
41
0.0
42
0.0
10
74.1089019775391
20
77.0161972045898
40
0.0
41
0.0
42
0.0
10
74.0992965698242
20
77.1300964355469
40
0.0
41
0.0
42
0.0
10
74.0324020385742
20
77.3006973266602
40
0.0
41
0.0
42
0.0
10
74.0016021728516
20
77.3482971191406
40
0.0
41
0.0
42
0.0
10
73.9188995361328
20
77.5130996704102
40
0.0
41
0.0
42
0.0
10
73.8601989746094
20
77.8127975463867
40
0.0
41
0.0
42
0.0
10
73.8378982543945
20
78.0166015625
40
0.0
41
0.0
42
0.0
10
73.7652969360352
20
78.3607025146484
40
0.0
41
0.0
42
0.0
10
73.7556991577148
20
78.5148010253906
40
0.0
41
0.0
42
0.0
10
73.6420974731445
20
78.8004989624023
40
0.0
41
0.0
42
0.0
10
73.5586013793945
20
78.9535980224609
40
0.0
41
0.0
42
0.0
10
73.5457000732422
20
78.9961013793945
40
0.0
41
0.0
42
0.0
10
73.540901184082
20
79.0059967041016
40
0.0
41
0.0
42
0.0
10
73.5070037841797
20
79.0306015014648
40
0.0
41
0.0
42
0.0
10
73.4838027954102
20
79.0497970581055
40
0.0
41
0.0
42
0.0
10
73.4129028320312
20
79.1222991943359
40
0.0
41
0.0
42
0.0
10
73.2049026489258
20
79.5096969604492
40
0.0
41
0.0
42
0.0
10
73.0623016357422
20
79.7594985961914
40
0.0
41
0.0
42
0.0
10
73.0440979003906
20
79.7823028564453
40
0.0
41
0.0
42
0.0
10
73.0075988769531
20
79.809700012207
40
0.0
41
0.0
42
0.0
10
72.9384994506836
20
79.8575973510742
40
0.0
41
0.0
42
0.0
10
72.8405990600586
20
80.0103988647461
40
0.0
41
0.0
42
0.0
10
72.6756973266602
20
80.4343032836914
40
0.0
41
0.0
42
0.0
10
72.6146011352539
20
80.5108032226562
40
0.0
41
0.0
42
0.0
10
72.5311965942383
20
80.9340972900391
40
0.0
41
0.0
42
0.0
10
72.5190963745117
20
81.0176010131836
40
0.0
41
0.0
42
0.0
10
72.5203018188477
20
81.3926010131836
40
0.0
41
0.0
42
0.0
10
72.524299621582
20
81.4814987182617
40
0.0
41
0.0
42
0.0
10
72.5544967651367
20
81.7904968261719
40
0.0
41
0.0
42
0.0
10
72.5811996459961
20
81.9813995361328
40
0.0
41
0.0
42
0.0
10
72.5800018310547
20
82.2966995239258
40
0.0
41
0.0
42
0.0
10
72.5854034423828
20
82.4802017211914
40
0.0
41
0.0
42
0.0
10
72.5852966308594
20
82.5139007568359
40
0.0
41
0.0
42
0.0
10
72.5014038085938
20
82.6476974487305
40
0.0
41
0.0
42
0.0
10
72.3776016235352
20
82.908203125
40
0.0
41
0.0
42
0.0
10
72.3087005615234
20
83.0037002563477
40
0.0
41
0.0
42
0.0
10
72.0092010498047
20
83.1657028198242
40
0.0
41
0.0
42
0.0
10
71.9748001098633
20
83.1880035400391
40
0.0
41
0.0
42
0.0
10
71.934700012207
20
83.2184982299805
40
0.0
41
0.0
42
0.0
10
71.5121002197266
20
83.3774032592773
40
0.0
41
0.0
42
0.0
10
71.4386978149414
20
83.4093017578125
40
0.0
41
0.0
42
0.0
10
71.0165023803711
20
83.4932022094727
40
0.0
41
0.0
42
0.0
10
70.9432983398438
20
83.5034027099609
40
0.0
41
0.0
42
0.0
10
70.8712005615234
20
83.5047988891602
40
0.0
41
0.0
42
0.0
210
0.0
220
0.0
230
1.0
0
LWPOLYLINE
5
26
330
1C
100
AcDbEntity
67
0
8
0
62
256
6
ByLayer
370
-1
48
1.0
60
0
100
AcDbPolyline
90
424
70
1
38
0.0
39
0.0
10
83.5047988891602
20
79.1285018920898
40
0.0
41
0.0
42
0.0
10
83.5007019042969
20
79.0933990478516
40
0.0
41
0.0
42
0.0
10
83.4886016845703
20
79.0162963867188
40
0.0
41
0.0
42
0.0
10
83.4113998413086
20
78.6287002563477
40
0.0
41
0.0
42
0.0
10
83.3610000610352
20
78.5121002197266
40
0.0
41
0.0
42
0.0
10
83.2153015136719
20
78.1247024536133
40
0.0
41
0.0
42
0.0
10
83.1650009155273
20
78.0581970214844
40
0.0
41
0.0
42
0.0
10
83.1330032348633
20
78.0092010498047
40
0.0
41
0.0
42
0.0
10
82.9961013793945
20
77.7558975219727
40
0.0
41
0.0
42
0.0
10
82.9075012207031
20
77.6919021606445
40
0.0
41
0.0
42
0.0
10
82.5065002441406
20
77.5015029907227
40
0.0
41
0.0
42
0.0
10
82.4870986938477
20
77.4893035888672
40
0.0
41
0.0
42
0.0
10
82.0177001953125
20
77.4871978759766
40
0.0
41
0.0
42
0.0
10
81.9087982177734
20
77.4990005493164
40
0.0
41
0.0
42
0.0
10
81.5189971923828
20
77.5335998535156
40
0.0
41
0.0
42
0.0
10
80.9825973510742
20
77.5346984863281
40
0.0
41
0.0
42
0.0
10
80.8481979370117
20
77.499397277832
40
0.0
41
0.0
42
0.0
10
80.4889984130859
20
77.4283981323242
40
0.0
41
0.0
42
0.0
10
80.375602722168
20
77.3378982543945
40
0.0
41
0.0
42
0.0
10
79.989501953125
20
77.1877975463867
40
0.0
41
0.0
42
0.0
10
79.861198425293
20
77.105598449707
40
0.0
41
0.0
42
0.0
10
79.7931976318359
20
77.007698059082
40
0.0
41
0.0
42
0.0
10
79.7534027099609
20
76.9542007446289
40
0.0
41
0.0
42
0.0
10
79.4901962280273
20
76.8039016723633
40
0.0
41
0.0
42
0.0
10
79.067497253418
20
76.5772018432617
40
0.0
41
0.0
42
0.0
10
78.9937973022461
20
76.5048980712891
40
0.0
41
0.0
42
0.0
10
78.9095001220703
20
76.439697265625
40
0.0
41
0.0
42
0.0
10
78.879997253418
20
76.4255981445312
40
0.0
41
0.0
42
0.0
10
78.5344009399414
20
76.2888031005859
40
0.0
41
0.0
42
0.0
10
78.4831008911133
20
76.276496887207
40
0.0
41
0.0
42
0.0
10
78.3807983398438
20
76.2696990966797
40
0.0
41
0.0
42
0.0
10
77.9832992553711
20
76.1857986450195
40
0.0
41
0.0
42
0.0
10
77.8499984741211
20
76.1712036132812
40
0.0
41
0.0
42
0.0
10
77.4868011474609
20
76.0999984741211
40
0.0
41
0.0
42
0.0
10
77.2906036376953
20
76.0017013549805
40
0.0
41
0.0
42
0.0
10
77.2582015991211
20
75.9806976318359
40
0.0
41
0.0
42
0.0
10
77.0597991943359
20
75.9028015136719
40
0.0
41
0.0
42
0.0
10
76.9857025146484
20
75.896598815918
40
0.0
41
0.0
42
0.0
10
76.5699996948242
20
75.6903991699219
40
0.0
41
0.0
42
0.0
10
76.492301940918
20
75.6689987182617
40
0.0
41
0.0
42
0.0
10
76.3991012573242
20
75.5483016967773
40
0.0
41
0.0
42
0.0
10
76.3620986938477
20
75.5112991333008
40
0.0
41
0.0
42
0.0
10
76.3619995117188
20
75.4837036132812
40
0.0
41
0.0
42
0.0
10
76.4568023681641
20
75.2256011962891
40
0.0
41
0.0
42
0.0
10
76.4934005737305
20
75.1595001220703
40
0.0
41
0.0
42
0.0
10
76.561897277832
20
75.1462020874023
40
0.0
41
0.0
42
0.0
10
76.6240005493164
20
75.1140975952148
40
0.0
41
0.0
42
0.0
10
76.7975997924805
20
74.9982986450195
40
0.0
41
0.0
42
0.0
10
76.9845962524414
20
74.9105987548828
40
0.0
41
0.0
42
0.0
10
77.0189971923828
20
74.9104995727539
40
0.0
41
0.0
42
0.0
10
77.2240982055664
20
74.9290008544922
40
0.0
41
0.0
42
0.0
10
77.5179977416992
20
74.9253997802734
40
0.0
41
0.0
42
0.0
10
77.8880004882812
20
75.0005035400391
40
0.0
41
0.0
42
0.0
10
77.9751968383789
20
75.0167007446289
40
0.0
41
0.0
42
0.0
10
78.0127029418945
20
75.0327987670898
40
0.0
41
0.0
42
0.0
10
78.0317001342773
20
75.0388031005859
40
0.0
41
0.0
42
0.0
10
78.2085037231445
20
75.0753021240234
40
0.0
41
0.0
42
0.0
10
78.2610015869141
20
75.0925979614258
40
0.0
41
0.0
42
0.0
10
78.5170974731445
20
75.1510009765625
40
0.0
41
0.0
42
0.0
10
78.61669921875
20
75.1560974121094
40
0.0
41
0.0
42
0.0
10
78.9925003051758
20
75.1981964111328
40
0.0
41
0.0
42
0.0
10
79.0586013793945
20
75.1779022216797
40
0.0
41
0.0
42
0.0
10
79.4854965209961
20
75.1569976806641
40
0.0
41
0.0
42
0.0
10
79.5615005493164
20
75.1175994873047
40
0.0
41
0.0
42
0.0
10
79.9869003295898
20
75.0522994995117
40
0.0
41
0.0
42
0.0
10
80.0410003662109
20
75.0218963623047
40
0.0
41
0.0
42
0.0
10
80.2125015258789
20
75.0008010864258
40
0.0
41
0.0
42
0.0
10
80.4592971801758
20
74.967399597168
40
0.0
41
0.0
42
0.0
10
80.4906997680664
20
74.9447021484375
40
0.0
41
0.0
42
0.0
10
80.5996017456055
20
74.8935012817383
40
0.0
41
0.0
42
0.0
10
80.6345977783203
20
74.8934020996094
40
0.0
41
0.0
42
0.0
10
80.993896484375
20
74.9064025878906
40
0.0
41
0.0
42
0.0
10
81.095703125
20
74.8993988037109
40
0.0
41
0.0
42
0.0
10
81.1322021484375
20
74.8993988037109
40
0.0
41
0.0
42
0.0
10
81.1920013427734
20
74.9151000976562
40
0.0
41
0.0
42
0.0
10
81.5122985839844
20
75.0102005004883
40
0.0
41
0.0
42
0.0
10
81.5558013916016
20
75.0313034057617
40
0.0
41
0.0
42
0.0
10
82.0103988647461
20
75.2332000732422
40
0.0
41
0.0
42
0.0
10
82.0886001586914
20
75.2779998779297
40
0.0
41
0.0
42
0.0
10
82.3061981201172
20
75.3833999633789
40
0.0
41
0.0
42
0.0
10
82.3425979614258
20
75.4049987792969
40
0.0
41
0.0
42
0.0
10
82.5238037109375
20
75.4962997436523
40
0.0
41
0.0
42
0.0
10
82.5361022949219
20
75.4999008178711
40
0.0
41
0.0
42
0.0
10
82.9999008178711
20
75.6816024780273
40
0.0
41
0.0
42
0.0
10
83.2987976074219
20
75.5639038085938
40
0.0
41
0.0
42
0.0
10
83.4889984130859
20
75.5640029907227
40
0.0
41
0.0
42
0.0
10
83.5539016723633
20
75.4949035644531
40
0.0
41
0.0
42
0.0
10
83.8777008056641
20
75.2002029418945
40
0.0
41
0.0
42
0.0
10
83.9148025512695
20
75.176399230957
40
0.0
41
0.0
42
0.0
10
83.9922027587891
20
75.1428985595703
40
0.0
41
0.0
42
0.0
10
84.0297012329102
20
75.1036987304688
40
0.0
41
0.0
42
0.0
10
84.1102981567383
20
74.99169921875
40
0.0
41
0.0
42
0.0
10
84.3816986083984
20
74.5668029785156
40
0.0
41
0.0
42
0.0
10
84.4375
20
74.4905014038086
40
0.0
41
0.0
42
0.0
10
84.5129013061523
20
74.3193969726562
40
0.0
41
0.0
42
0.0
10
84.6183013916016
20
74.0626983642578
40
0.0
41
0.0
42
0.0
10
84.6483001708984
20
73.9850997924805
40
0.0
41
0.0
42
0.0
10
84.6577987670898
20
73.9080963134766
40
0.0
41
0.0
42
0.0
10
84.7328033447266
20
73.4994964599609
40
0.0
41
0.0
42
0.0
10
84.7228012084961
20
73.4421997070312
40
0.0
41
0.0
42
0.0
10
84.6838989257812
20
73.013801574707
40
0.0
41
0.0
42
0.0
10
84.6433029174805
20
72.9374008178711
40
0.0
41
0.0
42
0.0
10
84.4990997314453
20
72.6036987304688
40
0.0
41
0.0
42
0.0
10
84.456901550293
20
72.5103988647461
40
0.0
41
0.0
42
0.0
10
84.1287994384766
20
72.1027984619141
40
0.0
41
0.0
42
0.0
10
84.0317993164062
20
72.0047988891602
40
0.0
41
0.0
42
0.0
10
83.992301940918
20
71.9690017700195
40
0.0
41
0.0
42
0.0
10
83.8765029907227
20
71.9033966064453
40
0.0
41
0.0
42
0.0
10
83.488899230957
20
71.6072006225586
40
0.0
41
0.0
42
0.0
10
83.3720016479492
20
71.5826034545898
40
0.0
41
0.0
42
0.0
10
83.2627029418945
20
71.5273971557617
40
0.0
41
0.0
42
0.0
10
83.222297668457
20
71.5018005371094
40
0.0
41
0.0
42
0.0
10
82.9877014160156
20
71.3781967163086
40
0.0
41
0.0
42
0.0
10
82.6651000976562
20
71.2902984619141
40
0.0
41
0.0
42
0.0
10
82.5173034667969
20
71.3059005737305
40
0.0
41
0.0
42
0.0
10
82.2117004394531
20
71.3516006469727
40
0.0
41
0.0
42
0.0
10
82.005500793457
20
71.5130004882812
40
0.0
41
0.0
42
0.0
10
81.5577011108398
20
72.0058975219727
40
0.0
41
0.0
42
0.0
10
81.5043029785156
20
72.0671005249023
40
0.0
41
0.0
42
0.0
10
81.0975036621094
20
72.5044021606445
40
0.0
41
0.0
42
0.0
10
81.0092010498047
20
72.5728988647461
40
0.0
41
0.0
42
0.0
10
80.8863983154297
20
72.6248016357422
40
0.0
41
0.0
42
0.0
10
80.5102005004883
20
72.8631973266602
40
0.0
41
0.0
42
0.0
10
80.2426986694336
20
72.9756011962891
40
0.0
41
0.0
42
0.0
10
80.0820999145508
20
72.9990997314453
40
0.0
41
0.0
42
0.0
10
80.0160980224609
20
73.0067977905273
40
0.0
41
0.0
42
0.0
10
79.6323013305664
20
73.1059036254883
40
0.0
41
0.0
42
0.0
10
79.5961990356445
20
73.1057968139648
40
0.0
41
0.0
42
0.0
10
79.5579986572266
20
73.1014022827148
40
0.0
41
0.0
42
0.0
10
79.5029983520508
20
73.0916976928711
40
0.0
41
0.0
42
0.0
10
79.0923004150391
20
73.1974029541016
40
0.0
41
0.0
42
0.0
10
79.0561981201172
20
73.1973037719727
40
0.0
41
0.0
42
0.0
10
79.0082015991211
20
73.1917037963867
40
0.0
41
0.0
42
0.0
10
78.5908966064453
20
73.3668975830078
40
0.0
41
0.0
42
0.0
10
78.5113983154297
20
73.3654022216797
40
0.0
41
0.0
42
0.0
10
78.3849029541016
20
73.4514007568359
40
0.0
41
0.0
42
0.0
10
78.3183975219727
20
73.5024032592773
40
0.0
41
0.0
42
0.0
10
77.9704971313477
20
73.6996994018555
40
0.0
41
0.0
42
0.0
10
77.932502746582
20
73.7306976318359
40
0.0
41
0.0
42
0.0
10
77.5794982910156
20
73.9587020874023
40
0.0
41
0.0
42
0.0
10
77.5289993286133
20
74.0036010742188
40
0.0
41
0.0
42
0.0
10
77.5055999755859
20
74.0210037231445
40
0.0
41
0.0
42
0.0
10
77.4728012084961
20
74.0581970214844
40
0.0
41
0.0
42
0.0
10
77.4348983764648
20
74.0838012695312
40
0.0
41
0.0
42
0.0
10
77.0149002075195
20
74.2601013183594
40
0.0
41
0.0
42
0.0
10
76.5981979370117
20
74.2955017089844
40
0.0
41
0.0
42
0.0
10
76.5169982910156
20
74.3191986083984
40
0.0
41
0.0
42
0.0
10
76.4873962402344
20
74.3190994262695
40
0.0
41
0.0
42
0.0
10
76.1931991577148
20
74.0809020996094
40
0.0
41
0.0
42
0.0
10
76.1151962280273
20
74.0105972290039
40
0.0
41
0.0
42
0.0
10
76.1150970458984
20
73.9852981567383
40
0.0
41
0.0
42
0.0
10
76.3462982177734
20
73.5671997070312
40
0.0
41
0.0
42
0.0
10
76.4132995605469
20
73.4934997558594
40
0.0
41
0.0
42
0.0
10
76.4949035644531
20
73.3890991210938
40
0.0
41
0.0
42
0.0
10
76.9418029785156
20
73.0324020385742
40
0.0
41
0.0
42
0.0
10
76.992301940918
20
72.9886016845703
40
0.0
41
0.0
42
0.0
10
77.08740234375
20
72.9318008422852
40
0.0
41
0.0
42
0.0
10
77.4917984008789
20
72.6551971435547
40
0.0
41
0.0
42
0.0
10
77.6405029296875
20
72.5511016845703
40
0.0
41
0.0
42
0.0
10
77.7230987548828
20
72.4964981079102
40
0.0
41
0.0
42
0.0
10
77.9959030151367
20
72.2503967285156
40
0.0
41
0.0
42
0.0
10
78.0859985351562
20
72.1192016601562
40
0.0
41
0.0
42
0.0
10
78.2143020629883
20
71.9937973022461
40
0.0
41
0.0
42
0.0
10
78.4971008300781
20
71.6232986450195
40
0.0
41
0.0
42
0.0
10
78.5055999755859
20
71.6101989746094
40
0.0
41
0.0
42
0.0
10
78.5431976318359
20
71.5651016235352
40
0.0
41
0.0
42
0.0
10
78.567497253418
20
71.4857025146484
40
0.0
41
0.0
42
0.0
10
78.5870971679688
20
71.4132995605469
40
0.0
41
0.0
42
0.0
10
78.6091995239258
20
71.3769989013672
40
0.0
41
0.0
42
0.0
10
78.9181976318359
20
70.9935989379883
40
0.0
41
0.0
42
0.0
10
78.9627990722656
20
70.9443969726562
40
0.0
41
0.0
42
0.0
10
78.9974975585938
20
70.8498992919922
40
0.0
41
0.0
42
0.0
10
79.3808975219727
20
70.5679016113281
40
0.0
41
0.0
42
0.0
10
79.3917999267578
20
70.5490036010742
40
0.0
41
0.0
42
0.0
10
79.4559020996094
20
70.4954986572266
40
0.0
41
0.0
42
0.0
10
79.492301940918
20
70.4598999023438
40
0.0
41
0.0
42
0.0
10
79.6147994995117
20
70.3967971801758
40
0.0
41
0.0
42
0.0
10
79.8733978271484
20
70.2890014648438
40
0.0
41
0.0
42
0.0
10
79.9008026123047
20
70.2762985229492
40
0.0
41
0.0
42
0.0
10
79.9865036010742
20
70.2440032958984
40
0.0
41
0.0
42
0.0
10
80.3255004882812
20
70.1495971679688
40
0.0
41
0.0
42
0.0
10
80.4869003295898
20
70.0941009521484
40
0.0
41
0.0
42
0.0
10
80.7021026611328
20
70.0167007446289
40
0.0
41
0.0
42
0.0
10
80.7378997802734
20
69.999397277832
40
0.0
41
0.0
42
0.0
10
80.9886016845703
20
69.9178009033203
40
0.0
41
0.0
42
0.0
10
81.0067977905273
20
69.9072036743164
40
0.0
41
0.0
42
0.0
10
81.0606002807617
20
69.8813018798828
40
0.0
41
0.0
42
0.0
10
81.3237991333008
20
69.492301940918
40
0.0
41
0.0
42
0.0
10
81.4149017333984
20
69.3760986328125
40
0.0
41
0.0
42
0.0
10
81.4657974243164
20
68.9954986572266
40
0.0
41
0.0
42
0.0
10
81.4337005615234
20
68.5947036743164
40
0.0
41
0.0
42
0.0
10
81.4336013793945
20
68.5560989379883
40
0.0
41
0.0
42
0.0
10
81.4395980834961
20
68.5016021728516
40
0.0
41
0.0
42
0.0
10
81.4309005737305
20
68.4410018920898
40
0.0
41
0.0
42
0.0
10
81.3286972045898
20
68.0137023925781
40
0.0
41
0.0
42
0.0
10
81.2990036010742
20
67.9371032714844
40
0.0
41
0.0
42
0.0
10
81.1227035522461
20
67.5101013183594
40
0.0
41
0.0
42
0.0
10
81.0805969238281
20
67.446403503418
40
0.0
41
0.0
42
0.0
10
80.997200012207
20
67.3054962158203
40
0.0
41
0.0
42
0.0
10
80.75830078125
20
67.0185012817383
40
0.0
41
0.0
42
0.0
10
80.7441024780273
20
67.0039978027344
40
0.0
41
0.0
42
0.0
10
80.6808013916016
20
66.9580001831055
40
0.0
41
0.0
42
0.0
10
80.4916000366211
20
66.7920989990234
40
0.0
41
0.0
42
0.0
10
80.0627975463867
20
66.5916976928711
40
0.0
41
0.0
42
0.0
10
79.9851989746094
20
66.565803527832
40
0.0
41
0.0
42
0.0
10
79.6380996704102
20
66.5035018920898
40
0.0
41
0.0
42
0.0
10
79.5552978515625
20
66.4974975585938
40
0.0
41
0.0
42
0.0
10
79.4932022094727
20
66.4877014160156
40
0.0
41
0.0
42
0.0
10
79.5188980102539
20
66.4871978759766
40
0.0
41
0.0
42
0.0
10
79.5978012084961
20
66.4998016357422
40
0.0
41
0.0
42
0.0
10
79.7052001953125
20
66.507698059082
40
0.0
41
0.0
42
0.0
10
80.0148010253906
20
66.5633010864258
40
0.0
41
0.0
42
0.0
10
80.127197265625
20
66.600700378418
40
0.0
41
0.0
42
0.0
10
80.5083999633789
20
66.7788009643555
40
0.0
41
0.0
42
0.0
10
80.6768035888672
20
66.9266967773438
40
0.0
41
0.0
42
0.0
10
80.7723999023438
20
66.9959030151367
40
0.0
41
0.0
42
0.0
10
80.7892990112305
20
67.013298034668
40
0.0
41
0.0
42
0.0
10
81.0027008056641
20
67.2696990966797
40
0.0
41
0.0
42
0.0
10
81.0772018432617
20
67.3954010009766
40
0.0
41
0.0
42
0.0
10
81.1395034790039
20
67.4898986816406
40
0.0
41
0.0
42
0.0
10
81.2975997924805
20
67.872802734375
40
0.0
41
0.0
42
0.0
10
81.3416976928711
20
67.986198425293
40
0.0
41
0.0
42
0.0
10
81.4331970214844
20
68.368896484375
40
0.0
41
0.0
42
0.0
10
81.4493026733398
20
68.4813995361328
40
0.0
41
0.0
42
0.0
10
81.4492034912109
20
68.518798828125
40
0.0
41
0.0
42
0.0
10
81.4383010864258
20
68.6177978515625
40
0.0
41
0.0
42
0.0
10
81.4674987792969
20
68.9807968139648
40
0.0
41
0.0
42
0.0
10
81.467399597168
20
69.0185012817383
40
0.0
41
0.0
42
0.0
10
81.4161987304688
20
69.4017028808594
40
0.0
41
0.0
42
0.0
10
81.4100036621094
20
69.4360961914062
40
0.0
41
0.0
42
0.0
10
81.3541030883789
20
69.5075988769531
40
0.0
41
0.0
42
0.0
10
81.0692977905273
20
69.9284973144531
40
0.0
41
0.0
42
0.0
10
81.0120010375977
20
69.9568023681641
40
0.0
41
0.0
42
0.0
10
80.8784027099609
20
70.0002975463867
40
0.0
41
0.0
42
0.0
10
80.8253021240234
20
70.0260009765625
40
0.0
41
0.0
42
0.0
10
80.5130004882812
20
70.138298034668
40
0.0
41
0.0
42
0.0
10
80.4088973999023
20
70.1740036010742
40
0.0
41
0.0
42
0.0
10
80.0133972167969
20
70.2843017578125
40
0.0
41
0.0
42
0.0
10
79.9552993774414
20
70.3061981201172
40
0.0
41
0.0
42
0.0
10
79.6501998901367
20
70.434196472168
40
0.0
41
0.0
42
0.0
10
79.50830078125
20
70.5065002441406
40
0.0
41
0.0
42
0.0
10
79.4355010986328
20
70.5673980712891
40
0.0
41
0.0
42
0.0
10
79.4289016723633
20
70.5786972045898
40
0.0
41
0.0
42
0.0
10
79.0022964477539
20
70.8923034667969
40
0.0
41
0.0
42
0.0
10
78.9785003662109
20
70.9573974609375
40
0.0
41
0.0
42
0.0
10
78.9320983886719
20
71.0085983276367
40
0.0
41
0.0
42
0.0
10
78.6089019775391
20
71.4098968505859
40
0.0
41
0.0
42
0.0
10
78.5808029174805
20
71.5140991210938
40
0.0
41
0.0
42
0.0
10
78.5467987060547
20
71.6247024536133
40
0.0
41
0.0
42
0.0
10
78.5162963867188
20
71.6612014770508
40
0.0
41
0.0
42
0.0
10
78.5027008056641
20
71.6822967529297
40
0.0
41
0.0
42
0.0
10
78.2556991577148
20
72.0058975219727
40
0.0
41
0.0
42
0.0
10
78.1417999267578
20
72.117301940918
40
0.0
41
0.0
42
0.0
10
78.0039978027344
20
72.317497253418
40
0.0
41
0.0
42
0.0
10
77.7982025146484
20
72.5031967163086
40
0.0
41
0.0
42
0.0
10
77.736198425293
20
72.5441970825195
40
0.0
41
0.0
42
0.0
10
77.5123977661133
20
72.7009963989258
40
0.0
41
0.0
42
0.0
10
77.1560974121094
20
72.9448013305664
40
0.0
41
0.0
42
0.0
10
77.0615005493164
20
73.0011978149414
40
0.0
41
0.0
42
0.0
10
77.0093994140625
20
73.0241012573242
40
0.0
41
0.0
42
0.0
10
76.9250030517578
20
73.0854034423828
40
0.0
41
0.0
42
0.0
10
76.5048980712891
20
73.4204025268555
40
0.0
41
0.0
42
0.0
10
76.4376983642578
20
73.5063018798828
40
0.0
41
0.0
42
0.0
10
76.3320999145508
20
73.6225967407227
40
0.0
41
0.0
42
0.0
10
76.1249008178711
20
73.9977035522461
40
0.0
41
0.0
42
0.0
10
76.1931991577148
20
74.0609970092773
40
0.0
41
0.0
42
0.0
10
76.5045013427734
20
74.313102722168
40
0.0
41
0.0
42
0.0
10
76.5986022949219
20
74.2874984741211
40
0.0
41
0.0
42
0.0
10
76.9850006103516
20
74.2546005249023
40
0.0
41
0.0
42
0.0
10
77.3749008178711
20
74.0908966064453
40
0.0
41
0.0
42
0.0
10
77.4431991577148
20
74.0448989868164
40
0.0
41
0.0
42
0.0
10
77.4949035644531
20
73.9847030639648
40
0.0
41
0.0
42
0.0
10
77.5581970214844
20
73.9283981323242
40
0.0
41
0.0
42
0.0
10
77.877197265625
20
73.7223968505859
40
0.0
41
0.0
42
0.0
10
77.9345016479492
20
73.6757965087891
40
0.0
41
0.0
42
0.0
10
77.9904022216797
20
73.6428985595703
40
0.0
41
0.0
42
0.0
10
78.247802734375
20
73.4973983764648
40
0.0
41
0.0
42
0.0
10
78.3041000366211
20
73.4542999267578
40
0.0
41
0.0
42
0.0
10
78.4863967895508
20
73.3304977416992
40
0.0
41
0.0
42
0.0
10
78.5195007324219
20
73.3303985595703
40
0.0
41
0.0
42
0.0
10
78.6023025512695
20
73.3338012695312
40
0.0
41
0.0
42
0.0
10
78.9841003417969
20
73.1733016967773
40
0.0
41
0.0
42
0.0
10
79.0186996459961
20
73.1734008789062
40
0.0
41
0.0
42
0.0
10
79.1089019775391
20
73.1838989257812
40
0.0
41
0.0
42
0.0
10
79.4825973510742
20
73.0878982543945
40
0.0
41
0.0
42
0.0
10
79.5180969238281
20
73.0877990722656
40
0.0
41
0.0
42
0.0
10
79.5771026611328
20
73.0980987548828
40
0.0
41
0.0
42
0.0
10
79.9564971923828
20
73.0000991821289
40
0.0
41
0.0
42
0.0
10
79.9845962524414
20
72.9912033081055
40
0.0
41
0.0
42
0.0
10
80.1344985961914
20
72.9693984985352
40
0.0
41
0.0
42
0.0
10
80.4897003173828
20
72.820198059082
40
0.0
41
0.0
42
0.0
10
80.9761962890625
20
72.5120010375977
40
0.0
41
0.0
42
0.0
10
80.9906005859375
20
72.5058975219727
40
0.0
41
0.0
42
0.0
10
81.0040969848633
20
72.4954986572266
40
0.0
41
0.0
42
0.0
10
81.472900390625
20
71.9929962158203
40
0.0
41
0.0
42
0.0
10
81.4964981079102
20
71.9581985473633
40
0.0
41
0.0
42
0.0
10
81.8332977294922
20
71.5755996704102
40
0.0
41
0.0
42
0.0
10
81.993896484375
20
71.4154968261719
40
0.0
41
0.0
42
0.0
10
82.1192016601562
20
71.3170013427734
40
0.0
41
0.0
42
0.0
10
82.4825973510742
20
71.2626037597656
40
0.0
41
0.0
42
0.0
10
82.5933990478516
20
71.2510986328125
40
0.0
41
0.0
42
0.0
10
82.6294021606445
20
71.2509994506836
40
0.0
41
0.0
42
0.0
10
83.0121994018555
20
71.3551025390625
40
0.0
41
0.0
42
0.0
10
83.2835998535156
20
71.4981002807617
40
0.0
41
0.0
42
0.0
10
83.3102035522461
20
71.5149993896484
40
0.0
41
0.0
42
0.0
10
83.4378967285156
20
71.5793991088867
40
0.0
41
0.0
42
0.0
10
83.5110015869141
20
71.5949020385742
40
0.0
41
0.0
42
0.0
10
83.9334030151367
20
71.9176025390625
40
0.0
41
0.0
42
0.0
10
84.0075988769531
20
71.9597015380859
40
0.0
41
0.0
42
0.0
10
84.048698425293
20
71.9970016479492
40
0.0
41
0.0
42
0.0
10
84.1203002929688
20
72.0692977905273
40
0.0
41
0.0
42
0.0
10
84.1550979614258
20
72.1084976196289
40
0.0
41
0.0
42
0.0
10
84.4646987915039
20
72.4934005737305
40
0.0
41
0.0
42
0.0
10
84.5007019042969
20
72.5728988647461
40
0.0
41
0.0
42
0.0
10
84.6317977905273
20
72.8764038085938
40
0.0
41
0.0
42
0.0
10
84.6899032592773
20
72.9860992431641
40
0.0
41
0.0
42
0.0
10
84.7247009277344
20
73.3676986694336
40
0.0
41
0.0
42
0.0
10
84.7447967529297
20
73.4817962646484
40
0.0
41
0.0
42
0.0
10
84.7446975708008
20
73.5179977416992
40
0.0
41
0.0
42
0.0
10
84.6743011474609
20
73.9017028808594
40
0.0
41
0.0
42
0.0
10
84.6602020263672
20
74.0148010253906
40
0.0
41
0.0
42
0.0
10
84.61669921875
20
74.1270980834961
40
0.0
41
0.0
42
0.0
10
84.521598815918
20
74.3588027954102
40
0.0
41
0.0
42
0.0
10
84.4550018310547
20
74.5093994140625
40
0.0
41
0.0
42
0.0
10
84.3719024658203
20
74.6231002807617
40
0.0
41
0.0
42
0.0
10
84.1259002685547
20
75.0081024169922
40
0.0
41
0.0
42
0.0
10
84.0551986694336
20
75.1063003540039
40
0.0
41
0.0
42
0.0
10
84.007698059082
20
75.1559982299805
40
0.0
41
0.0
42
0.0
10
83.9156036376953
20
75.1958999633789
40
0.0
41
0.0
42
0.0
10
83.576301574707
20
75.5048980712891
40
0.0
41
0.0
42
0.0
10
83.5109024047852
20
75.5748977661133
40
0.0
41
0.0
42
0.0
10
83.3951034545898
20
75.5747985839844
40
0.0
41
0.0
42
0.0
10
83.015998840332
20
75.7244033813477
40
0.0
41
0.0
42
0.0
10
82.9839019775391
20
75.7242965698242
40
0.0
41
0.0
42
0.0
10
82.6321029663086
20
75.5865020751953
40
0.0
41
0.0
42
0.0
10
82.4893035888672
20
75.5473022460938
40
0.0
41
0.0
42
0.0
10
82.4276962280273
20
75.5019989013672
40
0.0
41
0.0
42
0.0
10
82.3052978515625
20
75.4405975341797
40
0.0
41
0.0
42
0.0
10
82.2814025878906
20
75.4264984130859
40
0.0
41
0.0
42
0.0
10
82.040901184082
20
75.3097991943359
40
0.0
41
0.0
42
0.0
10
81.989501953125
20
75.280403137207
40
0.0
41
0.0
42
0.0
10
81.6918029785156
20
75.1483001708984
40
0.0
41
0.0
42
0.0
10
81.4875030517578
20
75.0490036010742
40
0.0
41
0.0
42
0.0
10
81.3159027099609
20
74.9997024536133
40
0.0
41
0.0
42
0.0
10
81.1297988891602
20
74.9441986083984
40
0.0
41
0.0
42
0.0
10
81.065299987793
20
74.9272003173828
40
0.0
41
0.0
42
0.0
10
81.0192031860352
20
74.9306030273438
40
0.0
41
0.0
42
0.0
10
80.9803009033203
20
74.9304962158203
40
0.0
41
0.0
42
0.0
10
80.5876998901367
20
74.9160995483398
40
0.0
41
0.0
42
0.0
10
80.5092010498047
20
74.9530029296875
40
0.0
41
0.0
42
0.0
10
80.4899978637695
20
74.9670028686523
40
0.0
41
0.0
42
0.0
10
80.484001159668
20
74.9686965942383
40
0.0
41
0.0
42
0.0
10
80.2596969604492
20
74.9990997314453
40
0.0
41
0.0
42
0.0
10
80.0968017578125
20
75.0192031860352
40
0.0
41
0.0
42
0.0
10
80.0130004882812
20
75.0661010742188
40
0.0
41
0.0
42
0.0
10
79.628303527832
20
75.1252975463867
40
0.0
41
0.0
42
0.0
10
79.5142974853516
20
75.1844024658203
40
0.0
41
0.0
42
0.0
10
79.1313018798828
20
75.2032012939453
40
0.0
41
0.0
42
0.0
10
79.0167999267578
20
75.2386016845703
40
0.0
41
0.0
42
0.0
10
78.9811019897461
20
75.2385025024414
40
0.0
41
0.0
42
0.0
10
78.632698059082
20
75.1994018554688
40
0.0
41
0.0
42
0.0
10
78.4828033447266
20
75.1917037963867
40
0.0
41
0.0
42
0.0
10
78.2636032104492
20
75.1416015625
40
0.0
41
0.0
42
0.0
10
78.1819000244141
20
75.1146011352539
40
0.0
41
0.0
42
0.0
10
78.0214004516602
20
75.0814971923828
40
0.0
41
0.0
42
0.0
10
77.9871978759766
20
75.0709991455078
40
0.0
41
0.0
42
0.0
10
77.9040985107422
20
75.0350036621094
40
0.0
41
0.0
42
0.0
10
77.7119979858398
20
74.9992980957031
40
0.0
41
0.0
42
0.0
10
77.4844970703125
20
74.9532012939453
40
0.0
41
0.0
42
0.0
10
77.3031997680664
20
74.9551010131836
40
0.0
41
0.0
42
0.0
10
77.0098037719727
20
74.9284973144531
40
0.0
41
0.0
42
0.0
10
76.8543014526367
20
75.0016021728516
40
0.0
41
0.0
42
0.0
10
76.7137985229492
20
75.0952987670898
40
0.0
41
0.0
42
0.0
10
76.6279983520508
20
75.1396026611328
40
0.0
41
0.0
42
0.0
10
76.5064010620117
20
75.1626968383789
40
0.0
41
0.0
42
0.0
10
76.4719009399414
20
75.2239990234375
40
0.0
41
0.0
42
0.0
10
76.3721008300781
20
75.4961013793945
40
0.0
41
0.0
42
0.0
10
76.3973007202148
20
75.5214004516602
40
0.0
41
0.0
42
0.0
10
76.5075988769531
20
75.6641006469727
40
0.0
41
0.0
42
0.0
10
76.588996887207
20
75.6865997314453
40
0.0
41
0.0
42
0.0
10
76.6270980834961
20
75.6986999511719
40
0.0
41
0.0
42
0.0
10
77.0141983032227
20
75.8906021118164
40
0.0
41
0.0
42
0.0
10
77.1300964355469
20
75.9003982543945
40
0.0
41
0.0
42
0.0
10
77.3006973266602
20
75.9673004150391
40
0.0
41
0.0
42
0.0
10
77.3482971191406
20
75.9981994628906
40
0.0
41
0.0
42
0.0
10
77.5130996704102
20
76.0808029174805
40
0.0
41
0.0
42
0.0
10
77.8127975463867
20
76.1395034790039
40
0.0
41
0.0
42
0.0
10
78.0166015625
20
76.1617965698242
40
0.0
41
0.0
42
0.0
10
78.3607025146484
20
76.2343978881836
40
0.0
41
0.0
42
0.0
10
78.5161972045898
20
76.2440032958984
40
0.0
41
0.0
42
0.0
10
78.5873031616211
20
76.2618026733398
40
0.0
41
0.0
42
0.0
10
78.896598815918
20
76.3842010498047
40
0.0
41
0.0
42
0.0
10
78.9350967407227
20
76.4023971557617
40
0.0
41
0.0
42
0.0
10
79.0046997070312
20
76.456901550293
40
0.0
41
0.0
42
0.0
10
79.0306015014648
20
76.4928970336914
40
0.0
41
0.0
42
0.0
10
79.0498962402344
20
76.5158996582031
40
0.0
41
0.0
42
0.0
10
79.1223983764648
20
76.5868988037109
40
0.0
41
0.0
42
0.0
10
79.5098037719727
20
76.7947998046875
40
0.0
41
0.0
42
0.0
10
79.7595977783203
20
76.9375
40
0.0
41
0.0
42
0.0
10
79.7823028564453
20
76.9555969238281
40
0.0
41
0.0
42
0.0
10
79.809700012207
20
76.9922027587891
40
0.0
41
0.0
42
0.0
10
79.8576965332031
20
77.0612030029297
40
0.0
41
0.0
42
0.0
10
80.0103988647461
20
77.1591033935547
40
0.0
41
0.0
42
0.0
10
80.4344024658203
20
77.3240966796875
40
0.0
41
0.0
42
0.0
10
80.5109024047852
20
77.3851013183594
40
0.0
41
0.0
42
0.0
10
80.9340972900391
20
77.4684982299805
40
0.0
41
0.0
42
0.0
10
81.0176010131836
20
77.480598449707
40
0.0
41
0.0
42
0.0
10
81.3926010131836
20
77.4794006347656
40
0.0
41
0.0
42
0.0
10
81.4813995361328
20
77.4754028320312
40
0.0
41
0.0
42
0.0
10
81.7904968261719
20
77.445198059082
40
0.0
41
0.0
42
0.0
10
81.9813995361328
20
77.4185028076172
40
0.0
41
0.0
42
0.0
10
82.2966995239258
20
77.4197006225586
40
0.0
41
0.0
42
0.0
10
82.5141983032227
20
77.4144973754883
40
0.0
41
0.0
42
0.0
10
82.6476974487305
20
77.4983978271484
40
0.0
41
0.0
42
0.0
10
82.908203125
20
77.6221008300781
40
0.0
41
0.0
42
0.0
10
83.0037994384766
20
77.6911010742188
40
0.0
41
0.0
42
0.0
10
83.1657028198242
20
77.9906997680664
40
0.0
41
0.0
42
0.0
10
83.188102722168
20
78.02490234375
40
0.0
41
0.0
42
0.0
10
83.2185974121094
20
78.0652008056641
40
0.0
41
0.0
42
0.0
10
83.3775024414062
20
78.4878005981445
40
0.0
41
0.0
42
0.0
10
83.4093017578125
20
78.5612030029297
40
0.0
41
0.0
42
0.0
10
83.4932022094727
20
78.9833984375
40
0.0
41
0.0
42
0.0
10
83.5034027099609
20
79.0566024780273
40
0.0
41
0.0
42
0.0
10
83.5047988891602
20
79.1285018920898
40
0.0
41
0.0
42
0.0
210
0.0
220
0.0
230
1.0
0
LWPOLYLINE
5
27
330
1C
100
AcDbEntity
67
0
8
0
62
256
6
ByLayer
370
-1
48
1.0
60
0
100
AcDbPolyline
90
418
70
1
38
0.0
39
0.0
10
79.129997253418
20
66.4947967529297
40
0.0
41
0.0
42
0.0
10
79.0164031982422
20
66.511100769043
40
0.0
41
0.0
42
0.0
10
78.6286010742188
20
66.5883026123047
40
0.0
41
0.0
42
0.0
10
78.5121002197266
20
66.6387023925781
40
0.0
41
0.0
42
0.0
10
78.1247024536133
20
66.7844009399414
40
0.0
41
0.0
42
0.0
10
78.0581970214844
20
66.8348007202148
40
0.0
41
0.0
42
0.0
10
78.0092010498047
20
66.8667984008789
40
0.0
41
0.0
42
0.0
10
77.7558975219727
20
67.0037002563477
40
0.0
41
0.0
42
0.0
10
77.6918029785156
20
67.0923004150391
40
0.0
41
0.0
42
0.0
10
77.5015029907227
20
67.4933013916016
40
0.0
41
0.0
42
0.0
10
77.4893035888672
20
67.5127029418945
40
0.0
41
0.0
42
0.0
10
77.4871978759766
20
67.9822006225586
40
0.0
41
0.0
42
0.0
10
77.4990005493164
20
68.0911026000977
40
0.0
41
0.0
42
0.0
10
77.5335998535156
20
68.4809036254883
40
0.0
41
0.0
42
0.0
10
77.5345993041992
20
69.0171966552734
40
0.0
41
0.0
42
0.0
10
77.499397277832
20
69.1516036987305
40
0.0
41
0.0
42
0.0
10
77.4283981323242
20
69.5108032226562
40
0.0
41
0.0
42
0.0
10
77.3378982543945
20
69.6242980957031
40
0.0
41
0.0
42
0.0
10
77.1877975463867
20
70.0103988647461
40
0.0
41
0.0
42
0.0
10
77.105598449707
20
70.1386032104492
40
0.0
41
0.0
42
0.0
10
77.0075988769531
20
70.2064971923828
40
0.0
41
0.0
42
0.0
10
76.9542007446289
20
70.2463989257812
40
0.0
41
0.0
42
0.0
10
76.8039016723633
20
70.5096969604492
40
0.0
41
0.0
42
0.0
10
76.5772018432617
20
70.9324035644531
40
0.0
41
0.0
42
0.0
10
76.5048980712891
20
71.006103515625
40
0.0
41
0.0
42
0.0
10
76.4395980834961
20
71.0903015136719
40
0.0
41
0.0
42
0.0
10
76.4255981445312
20
71.1196975708008
40
0.0
41
0.0
42
0.0
10
76.2888031005859
20
71.4654006958008
40
0.0
41
0.0
42
0.0
10
76.276496887207
20
71.5167999267578
40
0.0
41
0.0
42
0.0
10
76.2695999145508
20
71.6190032958984
40
0.0
41
0.0
42
0.0
10
76.1857986450195
20
72.0166015625
40
0.0
41
0.0
42
0.0
10
76.1712036132812
20
72.1498031616211
40
0.0
41
0.0
42
0.0
10
76.0998992919922
20
72.5130996704102
40
0.0
41
0.0
42
0.0
10
76.0016021728516
20
72.709098815918
40
0.0
41
0.0
42
0.0
10
75.980598449707
20
72.7416000366211
40
0.0
41
0.0
42
0.0
10
75.9028015136719
20
72.9401016235352
40
0.0
41
0.0
42
0.0
10
75.896598815918
20
73.0141983032227
40
0.0
41
0.0
42
0.0
10
75.6903991699219
20
73.4299011230469
40
0.0
41
0.0
42
0.0
10
75.6689987182617
20
73.5075988769531
40
0.0
41
0.0
42
0.0
10
75.5482025146484
20
73.6007995605469
40
0.0
41
0.0
42
0.0
10
75.5112991333008
20
73.6379013061523
40
0.0
41
0.0
42
0.0
10
75.4837036132812
20
73.6378021240234
40
0.0
41
0.0
42
0.0
10
75.2256011962891
20
73.5429000854492
40
0.0
41
0.0
42
0.0
10
75.1592025756836
20
73.5063018798828
40
0.0
41
0.0
42
0.0
10
75.1463012695312
20
73.4380035400391
40
0.0
41
0.0
42
0.0
10
75.1140975952148
20
73.3758010864258
40
0.0
41
0.0
42
0.0
10
74.9982986450195
20
73.2022018432617
40
0.0
41
0.0
42
0.0
10
74.9105987548828
20
73.0152969360352
40
0.0
41
0.0
42
0.0
10
74.9104995727539
20
72.9809036254883
40
0.0
41
0.0
42
0.0
10
74.9290008544922
20
72.7757034301758
40
0.0
41
0.0
42
0.0
10
74.9253997802734
20
72.4819030761719
40
0.0
41
0.0
42
0.0
10
75.0005035400391
20
72.111701965332
40
0.0
41
0.0
42
0.0
10
75.0167007446289
20
72.0245971679688
40
0.0
41
0.0
42
0.0
10
75.0327987670898
20
71.9872970581055
40
0.0
41
0.0
42
0.0
10
75.048698425293
20
71.9367980957031
40
0.0
41
0.0
42
0.0
10
75.1510009765625
20
71.4828033447266
40
0.0
41
0.0
42
0.0
10
75.1560974121094
20
71.3831024169922
40
0.0
41
0.0
42
0.0
10
75.1981964111328
20
71.0074005126953
40
0.0
41
0.0
42
0.0
10
75.1779022216797
20
70.9412994384766
40
0.0
41
0.0
42
0.0
10
75.157096862793
20
70.5143966674805
40
0.0
41
0.0
42
0.0
10
75.1175994873047
20
70.4384002685547
40
0.0
41
0.0
42
0.0
10
75.0522994995117
20
70.0130004882812
40
0.0
41
0.0
42
0.0
10
75.0218963623047
20
69.9588012695312
40
0.0
41
0.0
42
0.0
10
75.0008010864258
20
69.7873001098633
40
0.0
41
0.0
42
0.0
10
74.967399597168
20
69.5404968261719
40
0.0
41
0.0
42
0.0
10
74.9447021484375
20
69.5092010498047
40
0.0
41
0.0
42
0.0
10
74.8935012817383
20
69.4002990722656
40
0.0
41
0.0
42
0.0
10
74.8934020996094
20
69.3653030395508
40
0.0
41
0.0
42
0.0
10
74.9064025878906
20
69.0059967041016
40
0.0
41
0.0
42
0.0
10
74.8993988037109
20
68.9041976928711
40
0.0
41
0.0
42
0.0
10
74.899299621582
20
68.8676986694336
40
0.0
41
0.0
42
0.0
10
74.9150009155273
20
68.8078002929688
40
0.0
41
0.0
42
0.0
10
75.0102005004883
20
68.4875030517578
40
0.0
41
0.0
42
0.0
10
75.0313034057617
20
68.4440002441406
40
0.0
41
0.0
42
0.0
10
75.2332000732422
20
67.9894027709961
40
0.0
41
0.0
42
0.0
10
75.2779006958008
20
67.9112014770508
40
0.0
41
0.0
42
0.0
10
75.3833999633789
20
67.6934967041016
40
0.0
41
0.0
42
0.0
10
75.404899597168
20
67.6572036743164
40
0.0
41
0.0
42
0.0
10
75.4962997436523
20
67.4759979248047
40
0.0
41
0.0
42
0.0
10
75.4999008178711
20
67.4636993408203
40
0.0
41
0.0
42
0.0
10
75.6817016601562
20
67.0
40
0.0
41
0.0
42
0.0
10
75.5639038085938
20
66.7009963989258
40
0.0
41
0.0
42
0.0
10
75.5641021728516
20
66.5109024047852
40
0.0
41
0.0
42
0.0
10
75.4949035644531
20
66.4458999633789
40
0.0
41
0.0
42
0.0
10
75.2002029418945
20
66.1221008300781
40
0.0
41
0.0
42
0.0
10
75.176399230957
20
66.0850982666016
40
0.0
41
0.0
42
0.0
10
75.1428985595703
20
66.007698059082
40
0.0
41
0.0
42
0.0
10
75.1036987304688
20
65.970100402832
40
0.0
41
0.0
42
0.0
10
74.99169921875
20
65.8895034790039
40
0.0
41
0.0
42
0.0
10
74.5668029785156
20
65.6181030273438
40
0.0
41
0.0
42
0.0
10
74.4905014038086
20
65.5622024536133
40
0.0
41
0.0
42
0.0
10
74.3193969726562
20
65.4868011474609
40
0.0
41
0.0
42
0.0
10
74.0626983642578
20
65.3815002441406
40
0.0
41
0.0
42
0.0
10
73.9857025146484
20
65.3516006469727
40
0.0
41
0.0
42
0.0
10
73.5580978393555
20
65.2731018066406
40
0.0
41
0.0
42
0.0
10
73.497200012207
20
65.2655029296875
40
0.0
41
0.0
42
0.0
10
73.0922012329102
20
65.3024978637695
40
0.0
41
0.0
42
0.0
10
73.0130004882812
20
65.3162994384766
40
0.0
41
0.0
42
0.0
10
72.9373016357422
20
65.3564987182617
40
0.0
41
0.0
42
0.0
10
72.6035995483398
20
65.5007019042969
40
0.0
41
0.0
42
0.0
10
72.5102996826172
20
65.5429000854492
40
0.0
41
0.0
42
0.0
10
72.1027984619141
20
65.8709030151367
40
0.0
41
0.0
42
0.0
10
72.0046997070312
20
65.967903137207
40
0.0
41
0.0
42
0.0
10
71.9690017700195
20
66.0075988769531
40
0.0
41
0.0
42
0.0
10
71.9033966064453
20
66.1232986450195
40
0.0
41
0.0
42
0.0
10
71.6072006225586
20
66.5109024047852
40
0.0
41
0.0
42
0.0
10
71.5824966430664
20
66.6278991699219
40
0.0
41
0.0
42
0.0
10
71.5273971557617
20
66.7370986938477
40
0.0
41
0.0
42
0.0
10
71.5018005371094
20
66.7774963378906
40
0.0
41
0.0
42
0.0
10
71.3780975341797
20
67.0121994018555
40
0.0
41
0.0
42
0.0
10
71.2902984619141
20
67.3347015380859
40
0.0
41
0.0
42
0.0
10
71.3059005737305
20
67.4825973510742
40
0.0
41
0.0
42
0.0
10
71.3516998291016
20
67.7880020141602
40
0.0
41
0.0
42
0.0
10
71.5130996704102
20
67.9943008422852
40
0.0
41
0.0
42
0.0
10
72.0058975219727
20
68.4421005249023
40
0.0
41
0.0
42
0.0
10
72.0671997070312
20
68.4955978393555
40
0.0
41
0.0
42
0.0
10
72.5044021606445
20
68.9021987915039
40
0.0
41
0.0
42
0.0
10
72.572998046875
20
68.9906997680664
40
0.0
41
0.0
42
0.0
10
72.6249008178711
20
69.1132965087891
40
0.0
41
0.0
42
0.0
10
72.8631973266602
20
69.4897003173828
40
0.0
41
0.0
42
0.0
10
72.9756011962891
20
69.7571029663086
40
0.0
41
0.0
42
0.0
10
72.9990997314453
20
69.9177017211914
40
0.0
41
0.0
42
0.0
10
73.0067977905273
20
69.9838027954102
40
0.0
41
0.0
42
0.0
10
73.1059036254883
20
70.3675994873047
40
0.0
41
0.0
42
0.0
10
73.1057968139648
20
70.4037017822266
40
0.0
41
0.0
42
0.0
10
73.1013031005859
20
70.4419021606445
40
0.0
41
0.0
42
0.0
10
73.0916976928711
20
70.4969024658203
40
0.0
41
0.0
42
0.0
10
73.1974029541016
20
70.907600402832
40
0.0
41
0.0
42
0.0
10
73.1973037719727
20
70.9437026977539
40
0.0
41
0.0
42
0.0
10
73.1917037963867
20
70.99169921875
40
0.0
41
0.0
42
0.0
10
73.3668975830078
20
71.4089965820312
40
0.0
41
0.0
42
0.0
10
73.3654022216797
20
71.4884033203125
40
0.0
41
0.0
42
0.0
10
73.4514007568359
20
71.6147994995117
40
0.0
41
0.0
42
0.0
10
73.5024032592773
20
71.681396484375
40
0.0
41
0.0
42
0.0
10
73.6772003173828
20
71.991096496582
40
0.0
41
0.0
42
0.0
10
73.9318008422852
20
72.3599014282227
40
0.0
41
0.0
42
0.0
10
74.0027008056641
20
72.4693984985352
40
0.0
41
0.0
42
0.0
10
74.0211029052734
20
72.4942016601562
40
0.0
41
0.0
42
0.0
10
74.0581970214844
20
72.527099609375
40
0.0
41
0.0
42
0.0
10
74.0839004516602
20
72.5650024414062
40
0.0
41
0.0
42
0.0
10
74.2601013183594
20
72.9850006103516
40
0.0
41
0.0
42
0.0
10
74.2955017089844
20
73.4017028808594
40
0.0
41
0.0
42
0.0
10
74.3191986083984
20
73.4829025268555
40
0.0
41
0.0
42
0.0
10
74.3190002441406
20
73.5124969482422
40
0.0
41
0.0
42
0.0
10
74.0808029174805
20
73.8065032958984
40
0.0
41
0.0
42
0.0
10
74.0105972290039
20
73.8846969604492
40
0.0
41
0.0
42
0.0
10
73.9853973388672
20
73.8846969604492
40
0.0
41
0.0
42
0.0
10
73.5672988891602
20
73.6533966064453
40
0.0
41
0.0
42
0.0
10
73.4934997558594
20
73.5865020751953
40
0.0
41
0.0
42
0.0
10
73.3891983032227
20
73.5048980712891
40
0.0
41
0.0
42
0.0
10
73.3738021850586
20
73.4857025146484
40
0.0
41
0.0
42
0.0
10
73.3433990478516
20
73.4327011108398
40
0.0
41
0.0
42
0.0
10
73.0418014526367
20
73.0891036987305
40
0.0
41
0.0
42
0.0
10
72.9969024658203
20
73.0173034667969
40
0.0
41
0.0
42
0.0
10
72.9887008666992
20
73.007698059082
40
0.0
41
0.0
42
0.0
10
72.9319000244141
20
72.9123001098633
40
0.0
41
0.0
42
0.0
10
72.6552963256836
20
72.5080032348633
40
0.0
41
0.0
42
0.0
10
72.5511016845703
20
72.3591995239258
40
0.0
41
0.0
42
0.0
10
72.4965972900391
20
72.2766036987305
40
0.0
41
0.0
42
0.0
10
72.1975021362305
20
71.9446029663086
40
0.0
41
0.0
42
0.0
10
72.1516036987305
20
71.927001953125
40
0.0
41
0.0
42
0.0
10
72.0211029052734
20
71.7932968139648
40
0.0
41
0.0
42
0.0
10
71.9899978637695
20
71.7825012207031
40
0.0
41
0.0
42
0.0
10
71.6233978271484
20
71.502799987793
40
0.0
41
0.0
42
0.0
10
71.6102981567383
20
71.4942016601562
40
0.0
41
0.0
42
0.0
10
71.5652008056641
20
71.4564971923828
40
0.0
41
0.0
42
0.0
10
71.4899978637695
20
71.4335021972656
40
0.0
41
0.0
42
0.0
10
71.0793991088867
20
71.1026000976562
40
0.0
41
0.0
42
0.0
10
70.9903030395508
20
71.0786972045898
40
0.0
41
0.0
42
0.0
10
70.9445037841797
20
71.0369033813477
40
0.0
41
0.0
42
0.0
10
70.8498992919922
20
71.0024032592773
40
0.0
41
0.0
42
0.0
10
70.568000793457
20
70.6190032958984
40
0.0
41
0.0
42
0.0
10
70.5491027832031
20
70.6080017089844
40
0.0
41
0.0
42
0.0
10
70.4954986572266
20
70.5438995361328
40
0.0
41
0.0
42
0.0
10
70.4604034423828
20
70.5078964233398
40
0.0
41
0.0
42
0.0
10
70.2891998291016
20
70.1268005371094
40
0.0
41
0.0
42
0.0
10
70.2440032958984
20
70.0131988525391
40
0.0
41
0.0
42
0.0
10
70.1495971679688
20
69.6743011474609
40
0.0
41
0.0
42
0.0
10
70.0941009521484
20
69.5130004882812
40
0.0
41
0.0
42
0.0
10
70.0167999267578
20
69.2976989746094
40
0.0
41
0.0
42
0.0
10
69.999397277832
20
69.2619018554688
40
0.0
41
0.0
42
0.0
10
69.9178009033203
20
69.0113983154297
40
0.0
41
0.0
42
0.0
10
69.9072036743164
20
68.9931030273438
40
0.0
41
0.0
42
0.0
10
69.8814010620117
20
68.9392013549805
40
0.0
41
0.0
42
0.0
10
69.4877014160156
20
68.6726989746094
40
0.0
41
0.0
42
0.0
10
69.1033020019531
20
68.6213989257812
40
0.0
41
0.0
42
0.0
10
68.9899978637695
20
68.5344009399414
40
0.0
41
0.0
42
0.0
10
68.5941009521484
20
68.5662002563477
40
0.0
41
0.0
42
0.0
10
68.5560989379883
20
68.5662002563477
40
0.0
41
0.0
42
0.0
10
68.5017013549805
20
68.5600967407227
40
0.0
41
0.0
42
0.0
10
68.4409027099609
20
68.5688018798828
40
0.0
41
0.0
42
0.0
10
68.0133972167969
20
68.6709976196289
40
0.0
41
0.0
42
0.0
10
67.5870971679688
20
68.8470993041992
40
0.0
41
0.0
42
0.0
10
67.5102005004883
20
68.8768997192383
40
0.0
41
0.0
42
0.0
10
67.446403503418
20
68.9190979003906
40
0.0
41
0.0
42
0.0
10
67.3054962158203
20
69.0027008056641
40
0.0
41
0.0
42
0.0
10
67.0184020996094
20
69.2415008544922
40
0.0
41
0.0
42
0.0
10
67.0039978027344
20
69.2555999755859
40
0.0
41
0.0
42
0.0
10
66.9580001831055
20
69.3190002441406
40
0.0
41
0.0
42
0.0
10
66.7919998168945
20
69.50830078125
40
0.0
41
0.0
42
0.0
10
66.5915985107422
20
69.9371032714844
40
0.0
41
0.0
42
0.0
10
66.565803527832
20
70.0147018432617
40
0.0
41
0.0
42
0.0
10
66.5035018920898
20
70.361701965332
40
0.0
41
0.0
42
0.0
10
66.4974975585938
20
70.4445037841797
40
0.0
41
0.0
42
0.0
10
66.4876022338867
20
70.5071029663086
40
0.0
41
0.0
42
0.0
10
66.4870986938477
20
70.4809036254883
40
0.0
41
0.0
42
0.0
10
66.4998016357422
20
70.4020004272461
40
0.0
41
0.0
42
0.0
10
66.5075988769531
20
70.2946014404297
40
0.0
41
0.0
42
0.0
10
66.5632019042969
20
69.9850997924805
40
0.0
41
0.0
42
0.0
10
66.6006011962891
20
69.8727035522461
40
0.0
41
0.0
42
0.0
10
66.7787017822266
20
69.4915008544922
40
0.0
41
0.0
42
0.0
10
66.9266967773438
20
69.322998046875
40
0.0
41
0.0
42
0.0
10
66.9957962036133
20
69.2274017333984
40
0.0
41
0.0
42
0.0
10
67.013298034668
20
69.2104034423828
40
0.0
41
0.0
42
0.0
10
67.2696990966797
20
68.9971008300781
40
0.0
41
0.0
42
0.0
10
67.3954010009766
20
68.9225006103516
40
0.0
41
0.0
42
0.0
10
67.4896011352539
20
68.8601989746094
40
0.0
41
0.0
42
0.0
10
67.6026992797852
20
68.8163986206055
40
0.0
41
0.0
42
0.0
10
67.9863967895508
20
68.6578979492188
40
0.0
41
0.0
42
0.0
10
68.368896484375
20
68.5664978027344
40
0.0
41
0.0
42
0.0
10
68.4813995361328
20
68.5503997802734
40
0.0
41
0.0
42
0.0
10
68.518798828125
20
68.5504989624023
40
0.0
41
0.0
42
0.0
10
68.6177978515625
20
68.5614013671875
40
0.0
41
0.0
42
0.0
10
68.9807968139648
20
68.5324020385742
40
0.0
41
0.0
42
0.0
10
69.0127029418945
20
68.5324020385742
40
0.0
41
0.0
42
0.0
10
69.0892028808594
20
68.5923004150391
40
0.0
41
0.0
42
0.0
10
69.5122985839844
20
68.6488037109375
40
0.0
41
0.0
42
0.0
10
69.928596496582
20
68.9303970336914
40
0.0
41
0.0
42
0.0
10
69.9568023681641
20
68.9878997802734
40
0.0
41
0.0
42
0.0
10
70.0003967285156
20
69.1213989257812
40
0.0
41
0.0
42
0.0
10
70.0260009765625
20
69.1744995117188
40
0.0
41
0.0
42
0.0
10
70.138298034668
20
69.4869003295898
40
0.0
41
0.0
42
0.0
10
70.1740036010742
20
69.5908966064453
40
0.0
41
0.0
42
0.0
10
70.2844009399414
20
69.986701965332
40
0.0
41
0.0
42
0.0
10
70.3147964477539
20
70.063102722168
40
0.0
41
0.0
42
0.0
10
70.5062026977539
20
70.4912033081055
40
0.0
41
0.0
42
0.0
10
70.5673980712891
20
70.5643005371094
40
0.0
41
0.0
42
0.0
10
70.5786972045898
20
70.5709991455078
40
0.0
41
0.0
42
0.0
10
70.8924026489258
20
70.9974975585938
40
0.0
41
0.0
42
0.0
10
70.9574966430664
20
71.0213012695312
40
0.0
41
0.0
42
0.0
10
71.0095977783203
20
71.0687026977539
40
0.0
41
0.0
42
0.0
10
71.0876998901367
20
71.089599609375
40
0.0
41
0.0
42
0.0
10
71.1238021850586
20
71.1064987182617
40
0.0
41
0.0
42
0.0
10
71.5100021362305
20
71.4176025390625
40
0.0
41
0.0
42
0.0
10
71.6247024536133
20
71.4529037475586
40
0.0
41
0.0
42
0.0
10
71.6613006591797
20
71.4832992553711
40
0.0
41
0.0
42
0.0
10
71.6824035644531
20
71.4971008300781
40
0.0
41
0.0
42
0.0
10
72.0099029541016
20
71.7470016479492
40
0.0
41
0.0
42
0.0
10
72.053596496582
20
71.7622985839844
40
0.0
41
0.0
42
0.0
10
72.1714019775391
20
71.8828964233398
40
0.0
41
0.0
42
0.0
10
72.2407989501953
20
71.9095993041992
40
0.0
41
0.0
42
0.0
10
72.503303527832
20
72.2014999389648
40
0.0
41
0.0
42
0.0
10
72.5441970825195
20
72.2634963989258
40
0.0
41
0.0
42
0.0
10
72.7011032104492
20
72.4872970581055
40
0.0
41
0.0
42
0.0
10
72.9448013305664
20
72.8436965942383
40
0.0
41
0.0
42
0.0
10
73.0011978149414
20
72.9383010864258
40
0.0
41
0.0
42
0.0
10
73.0238037109375
20
72.9897994995117
40
0.0
41
0.0
42
0.0
10
73.0718994140625
20
73.0664978027344
40
0.0
41
0.0
42
0.0
10
73.344596862793
20
73.377197265625
40
0.0
41
0.0
42
0.0
10
73.3905029296875
20
73.4574966430664
40
0.0
41
0.0
42
0.0
10
73.4205017089844
20
73.495002746582
40
0.0
41
0.0
42
0.0
10
73.5064010620117
20
73.5619964599609
40
0.0
41
0.0
42
0.0
10
73.6227035522461
20
73.6676025390625
40
0.0
41
0.0
42
0.0
10
73.9977035522461
20
73.8748016357422
40
0.0
41
0.0
42
0.0
10
74.0608978271484
20
73.8066024780273
40
0.0
41
0.0
42
0.0
10
74.313102722168
20
73.4953994750977
40
0.0
41
0.0
42
0.0
10
74.2874984741211
20
73.4012985229492
40
0.0
41
0.0
42
0.0
10
74.2546997070312
20
73.0149002075195
40
0.0
41
0.0
42
0.0
10
74.0910034179688
20
72.6249008178711
40
0.0
41
0.0
42
0.0
10
74.0448989868164
20
72.5566024780273
40
0.0
41
0.0
42
0.0
10
73.9858016967773
20
72.5057983398438
40
0.0
41
0.0
42
0.0
10
73.7227020263672
20
72.1230010986328
40
0.0
41
0.0
42
0.0
10
73.6425018310547
20
72.0086975097656
40
0.0
41
0.0
42
0.0
10
73.4974975585938
20
71.7519989013672
40
0.0
41
0.0
42
0.0
10
73.4543991088867
20
71.6956024169922
40
0.0
41
0.0
42
0.0
10
73.3304977416992
20
71.5134963989258
40
0.0
41
0.0
42
0.0
10
73.3303985595703
20
71.4804000854492
40
0.0
41
0.0
42
0.0
10
73.3338012695312
20
71.3975982666016
40
0.0
41
0.0
42
0.0
10
73.1733016967773
20
71.0158004760742
40
0.0
41
0.0
42
0.0
10
73.1734008789062
20
70.981201171875
40
0.0
41
0.0
42
0.0
10
73.1838989257812
20
70.890998840332
40
0.0
41
0.0
42
0.0
10
73.0878982543945
20
70.5173034667969
40
0.0
41
0.0
42
0.0
10
73.0877990722656
20
70.4817962646484
40
0.0
41
0.0
42
0.0
10
73.0980987548828
20
70.4227981567383
40
0.0
41
0.0
42
0.0
10
73.0000991821289
20
70.0432968139648
40
0.0
41
0.0
42
0.0
10
72.9912033081055
20
70.0152969360352
40
0.0
41
0.0
42
0.0
10
72.9693984985352
20
69.8653030395508
40
0.0
41
0.0
42
0.0
10
72.820198059082
20
69.5102005004883
40
0.0
41
0.0
42
0.0
10
72.5120010375977
20
69.0235977172852
40
0.0
41
0.0
42
0.0
10
72.5059967041016
20
69.0093002319336
40
0.0
41
0.0
42
0.0
10
72.4955978393555
20
68.9956970214844
40
0.0
41
0.0
42
0.0
10
71.9931030273438
20
68.5267028808594
40
0.0
41
0.0
42
0.0
10
71.9581985473633
20
68.503303527832
40
0.0
41
0.0
42
0.0
10
71.5755996704102
20
68.1663970947266
40
0.0
41
0.0
42
0.0
10
71.4154968261719
20
68.0059967041016
40
0.0
41
0.0
42
0.0
10
71.3170013427734
20
67.8805999755859
40
0.0
41
0.0
42
0.0
10
71.2626037597656
20
67.5173034667969
40
0.0
41
0.0
42
0.0
10
71.2510986328125
20
67.4065017700195
40
0.0
41
0.0
42
0.0
10
71.2509994506836
20
67.3703002929688
40
0.0
41
0.0
42
0.0
10
71.3551025390625
20
66.9877014160156
40
0.0
41
0.0
42
0.0
10
71.4981002807617
20
66.7162017822266
40
0.0
41
0.0
42
0.0
10
71.5149993896484
20
66.6895980834961
40
0.0
41
0.0
42
0.0
10
71.5793991088867
20
66.5619964599609
40
0.0
41
0.0
42
0.0
10
71.5948028564453
20
66.488899230957
40
0.0
41
0.0
42
0.0
10
71.9175033569336
20
66.0664978027344
40
0.0
41
0.0
42
0.0
10
71.959602355957
20
65.992301940918
40
0.0
41
0.0
42
0.0
10
71.9970016479492
20
65.9509963989258
40
0.0
41
0.0
42
0.0
10
72.0692977905273
20
65.8795013427734
40
0.0
41
0.0
42
0.0
10
72.1084976196289
20
65.844596862793
40
0.0
41
0.0
42
0.0
10
72.4933013916016
20
65.5350036621094
40
0.0
41
0.0
42
0.0
10
72.5728988647461
20
65.4990997314453
40
0.0
41
0.0
42
0.0
10
72.8762969970703
20
65.3678970336914
40
0.0
41
0.0
42
0.0
10
72.9868011474609
20
65.3093032836914
40
0.0
41
0.0
42
0.0
10
73.0977020263672
20
65.2900009155273
40
0.0
41
0.0
42
0.0
10
73.4809036254883
20
65.2550964355469
40
0.0
41
0.0
42
0.0
10
73.5186004638672
20
65.254997253418
40
0.0
41
0.0
42
0.0
10
73.6317977905273
20
65.2692031860352
40
0.0
41
0.0
42
0.0
10
74.0141983032227
20
65.3393020629883
40
0.0
41
0.0
42
0.0
10
74.127197265625
20
65.3830032348633
40
0.0
41
0.0
42
0.0
10
74.3588027954102
20
65.4781036376953
40
0.0
41
0.0
42
0.0
10
74.5093994140625
20
65.5447006225586
40
0.0
41
0.0
42
0.0
10
74.6231002807617
20
65.6278991699219
40
0.0
41
0.0
42
0.0
10
75.0082015991211
20
65.8738021850586
40
0.0
41
0.0
42
0.0
10
75.1063995361328
20
65.9445037841797
40
0.0
41
0.0
42
0.0
10
75.1560974121094
20
65.9922027587891
40
0.0
41
0.0
42
0.0
10
75.1958999633789
20
66.0841979980469
40
0.0
41
0.0
42
0.0
10
75.504997253418
20
66.4234008789062
40
0.0
41
0.0
42
0.0
10
75.5748977661133
20
66.4889984130859
40
0.0
41
0.0
42
0.0
10
75.5747985839844
20
66.6046981811523
40
0.0
41
0.0
42
0.0
10
75.7244033813477
20
66.9839019775391
40
0.0
41
0.0
42
0.0
10
75.7242965698242
20
67.015998840332
40
0.0
41
0.0
42
0.0
10
75.5864028930664
20
67.3676986694336
40
0.0
41
0.0
42
0.0
10
75.5472030639648
20
67.5105972290039
40
0.0
41
0.0
42
0.0
10
75.5018997192383
20
67.5720977783203
40
0.0
41
0.0
42
0.0
10
75.4404983520508
20
67.6943969726562
40
0.0
41
0.0
42
0.0
10
75.426399230957
20
67.7183990478516
40
0.0
41
0.0
42
0.0
10
75.3097991943359
20
67.9589004516602
40
0.0
41
0.0
42
0.0
10
75.280403137207
20
68.0103988647461
40
0.0
41
0.0
42
0.0
10
75.1483001708984
20
68.3079986572266
40
0.0
41
0.0
42
0.0
10
75.0490036010742
20
68.5123977661133
40
0.0
41
0.0
42
0.0
10
74.9997024536133
20
68.6838989257812
40
0.0
41
0.0
42
0.0
10
74.9440994262695
20
68.8699035644531
40
0.0
41
0.0
42
0.0
10
74.9272003173828
20
68.9345016479492
40
0.0
41
0.0
42
0.0
10
74.9306030273438
20
68.9806976318359
40
0.0
41
0.0
42
0.0
10
74.9304962158203
20
69.0195999145508
40
0.0
41
0.0
42
0.0
10
74.9160995483398
20
69.4122009277344
40
0.0
41
0.0
42
0.0
10
74.9531021118164
20
69.4906997680664
40
0.0
41
0.0
42
0.0
10
74.9670028686523
20
69.5098037719727
40
0.0
41
0.0
42
0.0
10
74.9686965942383
20
69.5158004760742
40
0.0
41
0.0
42
0.0
10
74.9990997314453
20
69.7400970458984
40
0.0
41
0.0
42
0.0
10
75.0193023681641
20
69.9029998779297
40
0.0
41
0.0
42
0.0
10
75.0661010742188
20
69.9869003295898
40
0.0
41
0.0
42
0.0
10
75.1252975463867
20
70.3715972900391
40
0.0
41
0.0
42
0.0
10
75.1844024658203
20
70.4856033325195
40
0.0
41
0.0
42
0.0
10
75.2032012939453
20
70.8685989379883
40
0.0
41
0.0
42
0.0
10
75.2386016845703
20
70.9831008911133
40
0.0
41
0.0
42
0.0
10
75.2385025024414
20
71.018798828125
40
0.0
41
0.0
42
0.0
10
75.1994018554688
20
71.3671035766602
40
0.0
41
0.0
42
0.0
10
75.1915969848633
20
71.5170974731445
40
0.0
41
0.0
42
0.0
10
75.1027984619141
20
71.9112014770508
40
0.0
41
0.0
42
0.0
10
75.0709991455078
20
72.0126037597656
40
0.0
41
0.0
42
0.0
10
75.0350036621094
20
72.095703125
40
0.0
41
0.0
42
0.0
10
74.9992980957031
20
72.2878036499023
40
0.0
41
0.0
42
0.0
10
74.9532012939453
20
72.5154037475586
40
0.0
41
0.0
42
0.0
10
74.9551010131836
20
72.6966018676758
40
0.0
41
0.0
42
0.0
10
74.928596496582
20
72.9900970458984
40
0.0
41
0.0
42
0.0
10
75.0016021728516
20
73.1455001831055
40
0.0
41
0.0
42
0.0
10
75.0952987670898
20
73.2858963012695
40
0.0
41
0.0
42
0.0
10
75.1396026611328
20
73.3719024658203
40
0.0
41
0.0
42
0.0
10
75.1626968383789
20
73.4934997558594
40
0.0
41
0.0
42
0.0
10
75.2239990234375
20
73.5278015136719
40
0.0
41
0.0
42
0.0
10
75.4961013793945
20
73.6276016235352
40
0.0
41
0.0
42
0.0
10
75.5213012695312
20
73.6024017333984
40
0.0
41
0.0
42
0.0
10
75.6641006469727
20
73.492301940918
40
0.0
41
0.0
42
0.0
10
75.6865997314453
20
73.4108963012695
40
0.0
41
0.0
42
0.0
10
75.6986999511719
20
73.372802734375
40
0.0
41
0.0
42
0.0
10
75.8906021118164
20
72.9857025146484
40
0.0
41
0.0
42
0.0
10
75.9002990722656
20
72.8696975708008
40
0.0
41
0.0
42
0.0
10
75.9673004150391
20
72.6990966796875
40
0.0
41
0.0
42
0.0
10
75.9981002807617
20
72.651496887207
40
0.0
41
0.0
42
0.0
10
76.0808029174805
20
72.4868011474609
40
0.0
41
0.0
42
0.0
10
76.1393966674805
20
72.1869964599609
40
0.0
41
0.0
42
0.0
10
76.1617965698242
20
71.9832992553711
40
0.0
41
0.0
42
0.0
10
76.2343978881836
20
71.6390991210938
40
0.0
41
0.0
42
0.0
10
76.2440032958984
20
71.4835968017578
40
0.0
41
0.0
42
0.0
10
76.2618026733398
20
71.4124984741211
40
0.0
41
0.0
42
0.0
10
76.3841018676758
20
71.1032028198242
40
0.0
41
0.0
42
0.0
10
76.4023971557617
20
71.064697265625
40
0.0
41
0.0
42
0.0
10
76.456901550293
20
70.9952011108398
40
0.0
41
0.0
42
0.0
10
76.4927978515625
20
70.9691009521484
40
0.0
41
0.0
42
0.0
10
76.5158004760742
20
70.9497985839844
40
0.0
41
0.0
42
0.0
10
76.586799621582
20
70.8775024414062
40
0.0
41
0.0
42
0.0
10
76.7947998046875
20
70.4900970458984
40
0.0
41
0.0
42
0.0
10
76.9374008178711
20
70.2401962280273
40
0.0
41
0.0
42
0.0
10
76.9553985595703
20
70.2175979614258
40
0.0
41
0.0
42
0.0
10
77.0613021850586
20
70.1418991088867
40
0.0
41
0.0
42
0.0
10
77.1591033935547
20
69.989501953125
40
0.0
41
0.0
42
0.0
10
77.3239974975586
20
69.5654983520508
40
0.0
41
0.0
42
0.0
10
77.3850021362305
20
69.4889984130859
40
0.0
41
0.0
42
0.0
10
77.4684982299805
20
69.0656967163086
40
0.0
41
0.0
42
0.0
10
77.480598449707
20
68.9822998046875
40
0.0
41
0.0
42
0.0
10
77.4794006347656
20
68.6072006225586
40
0.0
41
0.0
42
0.0
10
77.4754028320312
20
68.5185012817383
40
0.0
41
0.0
42
0.0
10
77.445198059082
20
68.2092971801758
40
0.0
41
0.0
42
0.0
10
77.4185028076172
20
68.0185012817383
40
0.0
41
0.0
42
0.0
10
77.4197006225586
20
67.7032012939453
40
0.0
41
0.0
42
0.0
10
77.4144973754883
20
67.4857025146484
40
0.0
41
0.0
42
0.0
10
77.4982986450195
20
67.3519973754883
40
0.0
41
0.0
42
0.0
10
77.6220016479492
20
67.0915985107422
40
0.0
41
0.0
42
0.0
10
77.6910018920898
20
66.9961013793945
40
0.0
41
0.0
42
0.0
10
77.9906997680664
20
66.8339996337891
40
0.0
41
0.0
42
0.0
10
78.02490234375
20
66.8117980957031
40
0.0
41
0.0
42
0.0
10
78.0652008056641
20
66.7811965942383
40
0.0
41
0.0
42
0.0
10
78.4878005981445
20
66.622200012207
40
0.0
41
0.0
42
0.0
10
78.5612030029297
20
66.5904006958008
40
0.0
41
0.0
42
0.0
10
78.9833984375
20
66.5065002441406
40
0.0
41
0.0
42
0.0
10
79.0566024780273
20
66.4962997436523
40
0.0
41
0.0
42
0.0
10
79.129997253418
20
66.4947967529297
40
0.0
41
0.0
42
0.0
210
0.0
220
0.0
230
1.0
0
LWPOLYLINE
5
28
330
1C
100
AcDbEntity
67
0
8
0
62
256
6
ByLayer
370
-1
48
1.0
60
0
100
AcDbPolyline
90
29
70
1
38
0.0
39
0.0
10
82.4261016845703
20
65.0009994506836
40
0.0
41
0.0
42
0.0
10
82.4560012817383
20
65.0009994506836
40
0.0
41
0.0
42
0.0
10
82.6267013549805
20
65.0835037231445
40
0.0
41
0.0
42
0.0
10
83.0124969482422
20
65.2266998291016
40
0.0
41
0.0
42
0.0
10
83.1182022094727
20
65.2677001953125
40
0.0
41
0.0
42
0.0
10
83.5147018432617
20
65.3830032348633
40
0.0
41
0.0
42
0.0
10
83.9387969970703
20
65.4766006469727
40
0.0
41
0.0
42
0.0
10
83.9800033569336
20
65.4926986694336
40
0.0
41
0.0
42
0.0
10
84.0165023803711
20
65.5046005249023
40
0.0
41
0.0
42
0.0
10
84.4448013305664
20
65.5093002319336
40
0.0
41
0.0
42
0.0
10
84.5017013549805
20
65.5220031738281
40
0.0
41
0.0
42
0.0
10
84.6312026977539
20
65.4990005493164
40
0.0
41
0.0
42
0.0
10
84.9166030883789
20
65.0726013183594
40
0.0
41
0.0
42
0.0
10
84.9738006591797
20
65.0009994506836
40
0.0
41
0.0
42
0.0
10
84.9990005493164
20
65.0009994506836
40
0.0
41
0.0
42
0.0
10
84.9989013671875
20
65.0887985229492
40
0.0
41
0.0
42
0.0
10
84.7230987548828
20
65.5008010864258
40
0.0
41
0.0
42
0.0
10
84.5180969238281
20
65.5373001098633
40
0.0
41
0.0
42
0.0
10
84.4822998046875
20
65.5373001098633
40
0.0
41
0.0
42
0.0
10
84.369499206543
20
65.5121994018555
40
0.0
41
0.0
42
0.0
10
83.9833984375
20
65.5078964233398
40
0.0
41
0.0
42
0.0
10
83.9103012084961
20
65.4838027954102
40
0.0
41
0.0
42
0.0
10
83.8711013793945
20
65.4682998657227
40
0.0
41
0.0
42
0.0
10
83.4851989746094
20
65.38330078125
40
0.0
41
0.0
42
0.0
10
83.0616989135742
20
65.2592010498047
40
0.0
41
0.0
42
0.0
10
82.9873962402344
20
65.2303009033203
40
0.0
41
0.0
42
0.0
10
82.5632019042969
20
65.0728988647461
40
0.0
41
0.0
42
0.0
10
82.4261016845703
20
65.0067977905273
40
0.0
41
0.0
42
0.0
10
82.4261016845703
20
65.0009994506836
40
0.0
41
0.0
42
0.0
210
0.0
220
0.0
230
1.0
0
LWPOLYLINE
5
29
330
1C
100
AcDbEntity
67
0
8
0
62
256
6
ByLayer
370
-1
48
1.0
60
0
100
AcDbPolyline
90
29
70
1
38
0.0
39
0.0
10
84.4917984008789
20
83.9833984375
40
0.0
41
0.0
42
0.0
10
84.5158996582031
20
83.9103012084961
40
0.0
41
0.0
42
0.0
10
84.5314025878906
20
83.8711013793945
40
0.0
41
0.0
42
0.0
10
84.6162033081055
20
83.4860000610352
40
0.0
41
0.0
42
0.0
10
84.6491012573242
20
83.4017028808594
40
0.0
41
0.0
42
0.0
10
84.7696990966797
20
82.9865036010742
40
0.0
41
0.0
42
0.0
10
84.9268035888672
20
82.5632019042969
40
0.0
41
0.0
42
0.0
10
84.9931030273438
20
82.4261016845703
40
0.0
41
0.0
42
0.0
10
84.9990005493164
20
82.4261016845703
40
0.0
41
0.0
42
0.0
10
84.9989013671875
20
82.4560012817383
40
0.0
41
0.0
42
0.0
10
84.9161987304688
20
82.6267013549805
40
0.0
41
0.0
42
0.0
10
84.7727966308594
20
83.013298034668
40
0.0
41
0.0
42
0.0
10
84.6607971191406
20
83.3983001708984
40
0.0
41
0.0
42
0.0
10
84.6168975830078
20
83.5139007568359
40
0.0
41
0.0
42
0.0
10
84.5232009887695
20
83.9387969970703
40
0.0
41
0.0
42
0.0
10
84.5071029663086
20
83.9800033569336
40
0.0
41
0.0
42
0.0
10
84.4951019287109
20
84.0164031982422
40
0.0
41
0.0
42
0.0
10
84.4904022216797
20
84.4448013305664
40
0.0
41
0.0
42
0.0
10
84.4776992797852
20
84.5017013549805
40
0.0
41
0.0
42
0.0
10
84.5009002685547
20
84.6312026977539
40
0.0
41
0.0
42
0.0
10
84.9272003173828
20
84.9167022705078
40
0.0
41
0.0
42
0.0
10
84.9990005493164
20
84.9738998413086
40
0.0
41
0.0
42
0.0
10
84.9990005493164
20
84.9990005493164
40
0.0
41
0.0
42
0.0
10
84.911003112793
20
84.9990005493164
40
0.0
41
0.0
42
0.0
10
84.4990005493164
20
84.7230987548828
40
0.0
41
0.0
42
0.0
10
84.4626007080078
20
84.5180969238281
40
0.0
41
0.0
42
0.0
10
84.46240234375
20
84.4822006225586
40
0.0
41
0.0
42
0.0
10
84.4875030517578
20
84.369499206543
40
0.0
41
0.0
42
0.0
10
84.4917984008789
20
83.9833984375
40
0.0
41
0.0
42
0.0
210
0.0
220
0.0
230
1.0
0
VIEWPORT
5
2E
330
2A
100
AcDbEntity
67
1
8
0
62
256
6
ByLayer
370
-1
48
1.0
60
0
100
AcDbViewport
10
0.0
20
0.0
30
0.0
40
297.0
41
210.0
68
1
69
1
12
50.0
22
100.0
13
0.0
23
0.0
14
10.0
24
10.0
15
10.0
25
10.0
16
0.0
26
0.0
36
1.0
17
0.0
27
0.0
37
0.0
42
50.0
43
0.0
44
0.0
45
250.0
50
0.0
51
0.0
72
1000
90
819232
110
0.0
120
0.0
130
0.0
111
1.0
121
0.0
131
0.0
112
0.0
122
1.0
132
0.0
0
ENDSEC
0
SECTION
2
OBJECTS
0
DICTIONARY
5
34
330
0
100
AcDbDictionary
280
1
281
1
3
ACAD_GROUP
350
12
3
ACAD_LAYOUT
350
2D
3
ACAD_DGNDEFINITIONS
350
F
3
ACAD_DWFDEFINITIONS
350
10
3
ACAD_PDFDEFINITIONS
350
11
3
ACAD_MLINESTYLE
350
B
3
ACAD_IMAGE_DICT
350
E
3
ACAD_IMAGE_VARS
350
21
0
DICTIONARY
5
12
330
34
100
AcDbDictionary
280
1
281
1
0
DICTIONARY
5
2D
330
34
100
AcDbDictionary
280
1
281
1
3
Model
350
20
3
Layout1
350
2F
0
DICTIONARY
5
F
330
34
100
AcDbDictionary
280
1
281
1
0
DICTIONARY
5
10
330
34
100
AcDbDictionary
280
1
281
1
0
DICTIONARY
5
11
330
34
100
AcDbDictionary
280
1
281
1
0
DICTIONARY
5
B
330
34
100
AcDbDictionary
280
1
281
1
3
Standard
350
1B
0
DICTIONARY
5
E
330
34
100
AcDbDictionary
280
1
281
1
0
DICTIONARY
5
6
330
5
100
AcDbDictionary
280
1
281
1
3
ACAD_LAYERSTATES
360
35
0
DICTIONARY
5
35
330
6
100
AcDbDictionary
280
1
281
1
0
LAYOUT
5
20
330
2D
100
AcDbPlotSettings
1

2
none_device
4
ISO_A4_(210.00_x_297.00_MM)
6

40
7.5
41
20.0
42
7.5
43
20.0
44
210.0
45
297.0
46
0.0
47
0.0
48
0.0
49
0.0
140
0.0
141
0.0
142
1.0
143
1.0
70
11952
72
1
73
1
74
1
7

75
0
76
0
77
2
78
300
147
1.0
148
0.0
149
0.0
100
AcDbLayout
1
Model
71
0
10
-20.0
20
-7.5
11
277.0
21
202.5
12
0.0
22
0.0
32
0.0
14
25.7
24
19.5
34
0.0
15
231.3
25
175.5
35
0.0
146
0.0
13
0.0
23
0.0
33
0.0
16
1.0
26
0.0
36
0.0
17
0.0
27
1.0
37
0.0
76
0
330
1C
0
LAYOUT
5
2F
330
2D
100
AcDbPlotSettings
1

2
none_device
4
ISO_A4_(210.00_x_297.00_MM)
6

40
7.5
41
20.0
42
7.5
43
20.0
44
210.0
45
297.0
46
0.0
47
0.0
48
0.0
49
0.0
140
0.0
141
0.0
142
1.0
143
1.0
70
688
72
1
73
1
74
1
7

75
0
76
0
77
2
78
300
147
1.0
148
0.0
149
0.0
100
AcDbLayout
1
Layout1
71
1
10
-20.0
20
-7.5
11
277.0
21
202.5
12
0.0
22
0.0
32
0.0
14
25.7
24
19.5
34
0.0
15
231.3
25
175.5
35
0.0
146
0.0
13
0.0
23
0.0
33
0.0
16
1.0
26
0.0
36
0.0
17
0.0
27
1.0
37
0.0
76
0
330
2A
0
MLINESTYLE
5
1B
330
B
100
AcDbMlineStyle
2
Standard
70
0
3

62
256
51
90.0
52
90.0
71
2
49
0.5
62
256
6
ByLayer
49
-0.5
62
256
6
ByLayer
0
RASTERVARIABLES
5
21
330
E
100
AcDbRasterVariables
90
0
70
1
71
1
72
0
0
ENDSEC
0
EOF
