999
DXF file generated by netDxf https://github.com/haplokuon/netDxf, Copyright(C) Daniel Carvajal, Licensed under MIT
0
SECTION
2
HEADER
9
$ACADVER
1
AC1015
9
$DWGCODEPAGE
3
ANSI_1252
9
$HANDSEED
5
3A
9
$ANGBASE
50
0.0
9
$ANGDIR
70
0
9
$ATTMODE
70
1
9
$AUNITS
70
0
9
$AUPREC
70
0
9
$CECOLOR
62
256
9
$CELTSCALE
40
1.0
9
$CELTYPE
6
ByLayer
9
$CELWEIGHT
370
-1
9
$CLAYER
8
0
9
$CMLJUST
70
0
9
$CMLSCALE
40
20.0
9
$CMLSTYLE
2
Standard
9
$DIMSTYLE
2
Standard
9
$TEXTSIZE
40
2.5
9
$TEXTSTYLE
7
Standard
9
$LUNITS
70
2
9
$LUPREC
70
4
9
$MIRRTEXT
70
0
9
$EXTNAMES
290
1
9
$INSBASE
10
0.0
20
0.0
30
0.0
9
$INSUNITS
70
0
9
$LTSCALE
40
1.0
9
$LWDISPLAY
290
0
9
$PDMODE
70
0
9
$PDSIZE
40
0.0
9
$PLINEGEN
70
0
9
$PSLTSCALE
70
1
9
$SPLINESEGS
70
8
9
$SURFU
70
6
9
$SURFV
70
6
9
$TDCREATE
40
2460823.48363748
9
$TDUCREATE
40
2460823.15030414
9
$TDUPDATE
40
2460823.48363748
9
$TDUUPDATE
40
2460823.15030414
9
$TDINDWG
40
0.0
9
$UCSORG
10
0.0
20
0.0
30
0.0
9
$UCSXDIR
10
1.0
20
0.0
30
0.0
9
$UCSYDIR
10
0.0
20
1.0
30
0.0
9
$DIMADEC
70
0
9
$DIMALT
70
0
9
$DIMALTD
70
2
9
$DIMALTF
40
25.4
9
$DIMALTRND
40
0.0
9
$DIMALTTD
70
2
9
$DIMALTTZ
70
0
9
$DIMALTU
70
2
9
$DIMALTZ
70
0
9
$DIMAPOST
1

9
$DIMATFIT
70
3
9
$DIMAUNIT
70
0
9
$DIMASZ
40
0.18
9
$DIMAZIN
70
0
9
$DIMSAH
70
0
9
$DIMBLK
1

9
$DIMLDRBLK
1

9
$DIMCEN
40
0.09
9
$DIMCLRD
70
0
9
$DIMCLRE
70
0
9
$DIMCLRT
70
0
9
$DIMDEC
70
4
9
$DIMDLE
40
0.0
9
$DIMDLI
40
0.38
9
$DIMDSEP
70
46
9
$DIMEXE
40
0.18
9
$DIMEXO
40
0.0625
9
$DIMFXLON
70
0
9
$DIMFXL
40
1.0
9
$DIMGAP
40
0.09
9
$DIMJUST
70
0
9
$DIMLFAC
40
1.0
9
$DIMLUNIT
70
2
9
$DIMLWD
70
-2
9
$DIMLWE
70
-2
9
$DIMPOST
1

9
$DIMRND
40
0.0
9
$DIMSCALE
40
1.0
9
$DIMSD1
70
0
9
$DIMSD2
70
0
9
$DIMSE1
70
0
9
$DIMSE2
70
0
9
$DIMSOXD
70
0
9
$DIMTAD
70
0
9
$DIMTDEC
70
4
9
$DIMTFAC
40
1.0
9
$DIMTIH
70
0
9
$DIMTIX
70
0
9
$DIMTM
40
0.0
9
$DIMTMOVE
70
0
9
$DIMTOFL
70
0
9
$DIMTOH
70
0
9
$DIMTOL
70
0
9
$DIMLIM
70
0
9
$DIMTOLJ
70
1
9
$DIMTP
40
0.0
9
$DIMTXT
40
0.18
9
$DIMTXTDIRECTION
70
0
9
$DIMTZIN
70
0
9
$DIMZIN
70
0
9
$DIMFRAC
70
0
9
$DIMLTYPE
6
ByBlock
9
$DIMLTEX1
6
ByBlock
9
$DIMLTEX2
6
ByBlock
0
ENDSEC
0
SECTION
2
CLASSES
0
CLASS
1
RASTERVARIABLES
2
AcDbRasterVariables
3
ISM
90
0
280
0
281
0
0
ENDSEC
0
SECTION
2
TABLES
0
TABLE
2
APPID
5
4
330
0
100
AcDbSymbolTable
70
5
0
APPID
5
19
330
4
100
AcDbSymbolTableRecord
100
AcDbRegAppTableRecord
2
ACAD
70
0
0
APPID
5
34
330
4
100
AcDbSymbolTableRecord
100
AcDbRegAppTableRecord
2
AcCmTransparency
70
0
0
APPID
5
35
330
4
100
AcDbSymbolTableRecord
100
AcDbRegAppTableRecord
2
AcAecLayerStandard
70
0
0
APPID
5
36
330
4
100
AcDbSymbolTableRecord
100
AcDbRegAppTableRecord
2
GradientColor1ACI
70
0
0
APPID
5
37
330
4
100
AcDbSymbolTableRecord
100
AcDbRegAppTableRecord
2
GradientColor2ACI
70
0
0
ENDTAB
0
TABLE
2
VPORT
5
1
330
0
100
AcDbSymbolTable
70
1
0
VPORT
5
2
330
1
100
AcDbSymbolTableRecord
100
AcDbViewportTableRecord
2
*Active
70
0
10
0.0
20
0.0
11
1.0
21
1.0
12
0.0
22
0.0
13
0.0
23
0.0
14
0.5
24
0.5
15
10.0
25
10.0
16
0.0
26
0.0
36
1.0
17
0.0
27
0.0
37
0.0
40
10.0
41
1.0
75
0
76
1
0
ENDTAB
0
TABLE
2
LTYPE
5
7
330
0
100
AcDbSymbolTable
70
3
0
LTYPE
5
15
330
7
100
AcDbSymbolTableRecord
100
AcDbLinetypeTableRecord
2
Continuous
70
0
3
Solid line
72
65
73
0
40
0.0
0
LTYPE
5
16
330
7
100
AcDbSymbolTableRecord
100
AcDbLinetypeTableRecord
2
ByLayer
70
0
3

72
65
73
0
40
0.0
0
LTYPE
5
17
330
7
100
AcDbSymbolTableRecord
100
AcDbLinetypeTableRecord
2
ByBlock
70
0
3

72
65
73
0
40
0.0
0
ENDTAB
0
TABLE
2
LAYER
5
5
102
{ACAD_XDICTIONARY
360
6
102
}
330
0
100
AcDbSymbolTable
70
1
0
LAYER
5
14
330
5
100
AcDbSymbolTableRecord
100
AcDbLayerTableRecord
2
0
70
0
62
7
6
Continuous
290
1
370
-3
390
0
0
ENDTAB
0
TABLE
2
STYLE
5
8
330
0
100
AcDbSymbolTable
70
1
0
STYLE
5
18
330
8
100
AcDbSymbolTableRecord
100
AcDbTextStyleTableRecord
2
Standard
3
simplex.shx
70
0
71
0
40
0.0
41
1.0
42
0.0
50
0.0
0
ENDTAB
0
TABLE
2
DIMSTYLE
5
A
330
0
100
AcDbSymbolTable
70
1
100
AcDbDimStyleTable
0
DIMSTYLE
105
1A
330
A
100
AcDbSymbolTableRecord
100
AcDbDimStyleTableRecord
2
Standard
3

4

40
1.0
41
0.18
42
0.0625
43
0.38
44
0.18
45
0.0
46
0.0
47
0.0
48
0.0
49
1.0
70
0
71
0
72
0
73
0
74
0
75
0
76
0
77
0
78
0
79
0
140
0.18
141
0.09
143
25.4
144
1.0
146
1.0
147
0.09
148
0.0
170
0
171
2
172
0
174
0
175
0
176
0
177
0
178
0
179
0
271
4
272
4
273
2
274
2
275
0
276
0
277
2
278
46
279
0
280
0
281
0
282
0
283
1
284
0
285
0
286
0
289
3
290
0
294
0
340
18
173
0
345
17
346
17
347
17
371
-2
372
-2
0
ENDTAB
0
TABLE
2
VIEW
5
3
330
0
100
AcDbSymbolTable
70
0
0
ENDTAB
0
TABLE
2
UCS
5
C
330
0
100
AcDbSymbolTable
70
0
0
ENDTAB
0
TABLE
2
BLOCK_RECORD
5
D
330
0
100
AcDbSymbolTable
70
2
0
BLOCK_RECORD
5
1C
330
D
100
AcDbSymbolTableRecord
100
AcDbBlockTableRecord
2
*Model_Space
340
20
0
BLOCK_RECORD
5
2E
330
D
100
AcDbSymbolTableRecord
100
AcDbBlockTableRecord
2
*Paper_Space
340
33
0
ENDTAB
0
ENDSEC
0
SECTION
2
BLOCKS
0
BLOCK
5
1E
330
1C
100
AcDbEntity
67
0
8
0
100
AcDbBlockBegin
2
*Model_Space
70
0
10
0.0
20
0.0
30
0.0
3
*Model_Space
4

0
ENDBLK
5
1D
330
1C
100
AcDbEntity
8
0
100
AcDbBlockEnd
0
BLOCK
5
30
330
2E
100
AcDbEntity
67
1
8
0
100
AcDbBlockBegin
2
*Paper_Space
70
0
10
0.0
20
0.0
30
0.0
3
*Paper_Space
4

0
ENDBLK
5
2F
330
2E
100
AcDbEntity
8
0
100
AcDbBlockEnd
0
ENDSEC
0
SECTION
2
ENTITIES
0
LWPOLYLINE
5
22
330
1C
100
AcDbEntity
67
0
8
0
62
256
6
ByLayer
370
-1
48
1.0
60
0
100
AcDbPolyline
90
31
70
1
38
0.0
39
0.0
10
65.0075988769531
20
81.4677963256836
40
0.0
41
0.0
42
0.0
10
65.1156997680664
20
81.6632995605469
40
0.0
41
0.0
42
0.0
10
65.219596862793
20
81.986701965332
40
0.0
41
0.0
42
0.0
10
65.2824020385742
20
82.1607971191406
40
0.0
41
0.0
42
0.0
10
65.3527984619141
20
82.4848022460938
40
0.0
41
0.0
42
0.0
10
65.3972015380859
20
82.6591033935547
40
0.0
41
0.0
42
0.0
10
65.4455032348633
20
82.9832992553711
40
0.0
41
0.0
42
0.0
10
65.4730987548828
20
83.1427001953125
40
0.0
41
0.0
42
0.0
10
65.4833984375
20
83.4803009033203
40
0.0
41
0.0
42
0.0
10
65.4832992553711
20
83.5152969360352
40
0.0
41
0.0
42
0.0
10
65.3441009521484
20
83.8178024291992
40
0.0
41
0.0
42
0.0
10
65.3432006835938
20
84.0120010375977
40
0.0
41
0.0
42
0.0
10
65.1716995239258
20
84.2065963745117
40
0.0
41
0.0
42
0.0
10
65.0152969360352
20
84.2799987792969
40
0.0
41
0.0
42
0.0
10
65.0009994506836
20
84.2799987792969
40
0.0
41
0.0
42
0.0
10
65.0009002685547
20
84.247200012207
40
0.0
41
0.0
42
0.0
10
65.1807022094727
20
84.1629028320312
40
0.0
41
0.0
42
0.0
10
65.3348007202148
20
83.9878997802734
40
0.0
41
0.0
42
0.0
10
65.3356018066406
20
83.8077011108398
40
0.0
41
0.0
42
0.0
10
65.3449020385742
20
83.7720031738281
40
0.0
41
0.0
42
0.0
10
65.4763031005859
20
83.486701965332
40
0.0
41
0.0
42
0.0
10
65.4682006835938
20
83.220100402832
40
0.0
41
0.0
42
0.0
10
65.4329986572266
20
83.0166015625
40
0.0
41
0.0
42
0.0
10
65.3904037475586
20
82.7307968139648
40
0.0
41
0.0
42
0.0
10
65.3356018066406
20
82.5150985717773
40
0.0
41
0.0
42
0.0
10
65.2734985351562
20
82.2291030883789
40
0.0
41
0.0
42
0.0
10
65.1955032348633
20
82.0131988525391
40
0.0
41
0.0
42
0.0
10
65.1033020019531
20
81.7266006469727
40
0.0
41
0.0
42
0.0
10
65.0009994506836
20
81.5425033569336
40
0.0
41
0.0
42
0.0
10
65.0009994506836
20
81.467903137207
40
0.0
41
0.0
42
0.0
10
65.0075988769531
20
81.4677963256836
40
0.0
41
0.0
42
0.0
210
0.0
220
0.0
230
1.0
0
LWPOLYLINE
5
23
330
1C
100
AcDbEntity
67
0
8
0
62
256
6
ByLayer
370
-1
48
1.0
60
0
100
AcDbPolyline
90
464
70
1
38
0.0
39
0.0
10
65.3923034667969
20
73.1595001220703
40
0.0
41
0.0
42
0.0
10
65.4291000366211
20
73.4849014282227
40
0.0
41
0.0
42
0.0
10
65.4572982788086
20
73.559196472168
40
0.0
41
0.0
42
0.0
10
65.5014038085938
20
73.7333984375
40
0.0
41
0.0
42
0.0
10
65.5747985839844
20
73.9869995117188
40
0.0
41
0.0
42
0.0
10
65.6503982543945
20
74.1634979248047
40
0.0
41
0.0
42
0.0
10
65.7998962402344
20
74.489501953125
40
0.0
41
0.0
42
0.0
10
65.9031982421875
20
74.6744995117188
40
0.0
41
0.0
42
0.0
10
66.0018997192383
20
74.8461990356445
40
0.0
41
0.0
42
0.0
10
66.0894012451172
20
74.9916000366211
40
0.0
41
0.0
42
0.0
10
66.2225036621094
20
75.1717987060547
40
0.0
41
0.0
42
0.0
10
66.4108963012695
20
75.4896011352539
40
0.0
41
0.0
42
0.0
10
66.4587020874023
20
75.5980987548828
40
0.0
41
0.0
42
0.0
10
66.5018005371094
20
75.6697006225586
40
0.0
41
0.0
42
0.0
10
66.6024017333984
20
75.7772979736328
40
0.0
41
0.0
42
0.0
10
66.6232986450195
20
75.802001953125
40
0.0
41
0.0
42
0.0
10
66.7283020019531
20
75.9887008666992
40
0.0
41
0.0
42
0.0
10
66.8049011230469
20
76.2005996704102
40
0.0
41
0.0
42
0.0
10
66.8600997924805
20
76.4820022583008
40
0.0
41
0.0
42
0.0
10
66.8600006103516
20
76.5186996459961
40
0.0
41
0.0
42
0.0
10
66.8337020874023
20
76.7325973510742
40
0.0
41
0.0
42
0.0
10
66.8046035766602
20
77.0157012939453
40
0.0
41
0.0
42
0.0
10
66.738899230957
20
77.2294998168945
40
0.0
41
0.0
42
0.0
10
66.6734008789062
20
77.5145034790039
40
0.0
41
0.0
42
0.0
10
66.6087036132812
20
77.7294998168945
40
0.0
41
0.0
42
0.0
10
66.5422973632812
20
78.0152969360352
40
0.0
41
0.0
42
0.0
10
66.5010986328125
20
78.2033996582031
40
0.0
41
0.0
42
0.0
10
66.4456024169922
20
78.5170974731445
40
0.0
41
0.0
42
0.0
10
66.4237976074219
20
78.7330017089844
40
0.0
41
0.0
42
0.0
10
66.4001007080078
20
79.0068969726562
40
0.0
41
0.0
42
0.0
10
66.407600402832
20
79.1959991455078
40
0.0
41
0.0
42
0.0
10
66.4245986938477
20
79.4837036132812
40
0.0
41
0.0
42
0.0
10
66.4811019897461
20
79.6707992553711
40
0.0
41
0.0
42
0.0
10
66.4994964599609
20
79.7489013671875
40
0.0
41
0.0
42
0.0
10
66.5351028442383
20
79.8862991333008
40
0.0
41
0.0
42
0.0
10
66.5689010620117
20
79.9888000488281
40
0.0
41
0.0
42
0.0
10
66.6837997436523
20
80.1784973144531
40
0.0
41
0.0
42
0.0
10
66.9294967651367
20
80.4952011108398
40
0.0
41
0.0
42
0.0
10
66.9663009643555
20
80.5220031738281
40
0.0
41
0.0
42
0.0
10
67.0071029663086
20
80.5602035522461
40
0.0
41
0.0
42
0.0
10
67.3332977294922
20
80.7633972167969
40
0.0
41
0.0
42
0.0
10
67.5090026855469
20
80.8887023925781
40
0.0
41
0.0
42
0.0
10
67.535400390625
20
80.902099609375
40
0.0
41
0.0
42
0.0
10
67.7543029785156
20
80.999397277832
40
0.0
41
0.0
42
0.0
10
67.861701965332
20
81.0400009155273
40
0.0
41
0.0
42
0.0
10
68.0128021240234
20
81.1035995483398
40
0.0
41
0.0
42
0.0
10
68.338996887207
20
81.2045974731445
40
0.0
41
0.0
42
0.0
10
68.5143966674805
20
81.2552032470703
40
0.0
41
0.0
42
0.0
10
68.8403015136719
20
81.3385009765625
40
0.0
41
0.0
42
0.0
10
69.0151977539062
20
81.3729019165039
40
0.0
41
0.0
42
0.0
10
69.3406982421875
20
81.4613037109375
40
0.0
41
0.0
42
0.0
10
69.5307998657227
20
81.4882965087891
40
0.0
41
0.0
42
0.0
10
69.5643005371094
20
81.4994964599609
40
0.0
41
0.0
42
0.0
10
69.8196029663086
20
81.6100997924805
40
0.0
41
0.0
42
0.0
10
70.0128021240234
20
81.6408996582031
40
0.0
41
0.0
42
0.0
10
70.2208023071289
20
81.7618026733398
40
0.0
41
0.0
42
0.0
10
70.3032989501953
20
81.8705978393555
40
0.0
41
0.0
42
0.0
10
70.4419021606445
20
81.9949035644531
40
0.0
41
0.0
42
0.0
10
70.5050964355469
20
82.0637969970703
40
0.0
41
0.0
42
0.0
10
70.5350036621094
20
82.0914001464844
40
0.0
41
0.0
42
0.0
10
70.651496887207
20
82.2757034301758
40
0.0
41
0.0
42
0.0
10
70.7720031738281
20
82.4907989501953
40
0.0
41
0.0
42
0.0
10
70.9389038085938
20
82.7484970092773
40
0.0
41
0.0
42
0.0
10
71.0016021728516
20
82.8494033813477
40
0.0
41
0.0
42
0.0
10
71.0585021972656
20
82.9623031616211
40
0.0
41
0.0
42
0.0
10
71.0754013061523
20
82.991096496582
40
0.0
41
0.0
42
0.0
10
71.2170028686523
20
83.2067031860352
40
0.0
41
0.0
42
0.0
10
71.415901184082
20
83.4922027587891
40
0.0
41
0.0
42
0.0
10
71.5036010742188
20
83.6100997924805
40
0.0
41
0.0
42
0.0
10
71.6752014160156
20
83.803596496582
40
0.0
41
0.0
42
0.0
10
72.0067977905273
20
84.1507034301758
40
0.0
41
0.0
42
0.0
10
72.293701171875
20
84.3171997070312
40
0.0
41
0.0
42
0.0
10
72.5105972290039
20
84.4654006958008
40
0.0
41
0.0
42
0.0
10
72.581298828125
20
84.4882965087891
40
0.0
41
0.0
42
0.0
10
72.6389007568359
20
84.5003967285156
40
0.0
41
0.0
42
0.0
10
72.8663024902344
20
84.5566024780273
40
0.0
41
0.0
42
0.0
10
72.8928985595703
20
84.5643005371094
40
0.0
41
0.0
42
0.0
10
73.007698059082
20
84.6038970947266
40
0.0
41
0.0
42
0.0
10
73.3060989379883
20
84.5700988769531
40
0.0
41
0.0
42
0.0
10
73.4841995239258
20
84.5708999633789
40
0.0
41
0.0
42
0.0
10
73.559196472168
20
84.5423965454102
40
0.0
41
0.0
42
0.0
10
73.7332992553711
20
84.4982986450195
40
0.0
41
0.0
42
0.0
10
73.9872970581055
20
84.4247970581055
40
0.0
41
0.0
42
0.0
10
74.3134002685547
20
84.2751998901367
40
0.0
41
0.0
42
0.0
10
74.4891967773438
20
84.1999969482422
40
0.0
41
0.0
42
0.0
10
74.6744995117188
20
84.0964965820312
40
0.0
41
0.0
42
0.0
10
74.8460998535156
20
83.9980010986328
40
0.0
41
0.0
42
0.0
10
75.3165969848633
20
83.7175979614258
40
0.0
41
0.0
42
0.0
10
75.4906005859375
20
83.5884017944336
40
0.0
41
0.0
42
0.0
10
75.5979995727539
20
83.5410003662109
40
0.0
41
0.0
42
0.0
10
75.6716003417969
20
83.496696472168
40
0.0
41
0.0
42
0.0
10
75.7772979736328
20
83.3973007202148
40
0.0
41
0.0
42
0.0
10
75.802001953125
20
83.3764038085938
40
0.0
41
0.0
42
0.0
10
75.9872970581055
20
83.2723007202148
40
0.0
41
0.0
42
0.0
10
76.2705993652344
20
83.216796875
40
0.0
41
0.0
42
0.0
10
76.4835968017578
20
83.1399002075195
40
0.0
41
0.0
42
0.0
10
76.5188980102539
20
83.1398010253906
40
0.0
41
0.0
42
0.0
10
76.8025970458984
20
83.1688995361328
40
0.0
41
0.0
42
0.0
10
77.0162963867188
20
83.1950988769531
40
0.0
41
0.0
42
0.0
10
77.2994995117188
20
83.2601013183594
40
0.0
41
0.0
42
0.0
10
77.5145034790039
20
83.3262023925781
40
0.0
41
0.0
42
0.0
10
77.7994995117188
20
83.3924026489258
40
0.0
41
0.0
42
0.0
10
78.0147018432617
20
83.4572982788086
40
0.0
41
0.0
42
0.0
10
78.2033996582031
20
83.4985961914062
40
0.0
41
0.0
42
0.0
10
78.5171966552734
20
83.55419921875
40
0.0
41
0.0
42
0.0
10
78.8030014038086
20
83.5789031982422
40
0.0
41
0.0
42
0.0
10
79.0047988891602
20
83.5992965698242
40
0.0
41
0.0
42
0.0
10
79.265998840332
20
83.5839004516602
40
0.0
41
0.0
42
0.0
10
79.4833984375
20
83.5752029418945
40
0.0
41
0.0
42
0.0
10
79.6707992553711
20
83.5186004638672
40
0.0
41
0.0
42
0.0
10
79.7489013671875
20
83.5002975463867
40
0.0
41
0.0
42
0.0
10
79.8862991333008
20
83.464599609375
40
0.0
41
0.0
42
0.0
10
79.9898986816406
20
83.4304962158203
40
0.0
41
0.0
42
0.0
10
80.2774963378906
20
83.2073974609375
40
0.0
41
0.0
42
0.0
10
80.3164978027344
20
83.1790008544922
40
0.0
41
0.0
42
0.0
10
80.4944000244141
20
83.0711975097656
40
0.0
41
0.0
42
0.0
10
80.5218963623047
20
83.0334014892578
40
0.0
41
0.0
42
0.0
10
80.5602035522461
20
82.9927978515625
40
0.0
41
0.0
42
0.0
10
80.7633972167969
20
82.6666030883789
40
0.0
41
0.0
42
0.0
10
80.8886032104492
20
82.4907989501953
40
0.0
41
0.0
42
0.0
10
80.9020004272461
20
82.4643020629883
40
0.0
41
0.0
42
0.0
10
80.9992980957031
20
82.2454986572266
40
0.0
41
0.0
42
0.0
10
81.0400009155273
20
82.1380996704102
40
0.0
41
0.0
42
0.0
10
81.1035003662109
20
81.9870986938477
40
0.0
41
0.0
42
0.0
10
81.2045974731445
20
81.6608963012695
40
0.0
41
0.0
42
0.0
10
81.2552032470703
20
81.4853973388672
40
0.0
41
0.0
42
0.0
10
81.3385009765625
20
81.1595993041992
40
0.0
41
0.0
42
0.0
10
81.372802734375
20
80.9847030639648
40
0.0
41
0.0
42
0.0
10
81.4613037109375
20
80.6592025756836
40
0.0
41
0.0
42
0.0
10
81.4882965087891
20
80.4690017700195
40
0.0
41
0.0
42
0.0
10
81.4994964599609
20
80.4355010986328
40
0.0
41
0.0
42
0.0
10
81.6100997924805
20
80.1801986694336
40
0.0
41
0.0
42
0.0
10
81.6408004760742
20
79.9870986938477
40
0.0
41
0.0
42
0.0
10
81.7618026733398
20
79.7790985107422
40
0.0
41
0.0
42
0.0
10
81.8704986572266
20
79.696403503418
40
0.0
41
0.0
42
0.0
10
81.9947967529297
20
79.5578994750977
40
0.0
41
0.0
42
0.0
10
82.0637969970703
20
79.4947967529297
40
0.0
41
0.0
42
0.0
10
82.0914001464844
20
79.4647979736328
40
0.0
41
0.0
42
0.0
10
82.2757034301758
20
79.3482971191406
40
0.0
41
0.0
42
0.0
10
82.4907989501953
20
79.2276992797852
40
0.0
41
0.0
42
0.0
10
82.7484970092773
20
79.0607986450195
40
0.0
41
0.0
42
0.0
10
82.8494033813477
20
78.9981994628906
40
0.0
41
0.0
42
0.0
10
82.9623031616211
20
78.9412002563477
40
0.0
41
0.0
42
0.0
10
82.9913024902344
20
78.924201965332
40
0.0
41
0.0
42
0.0
10
83.2767028808594
20
78.7254028320312
40
0.0
41
0.0
42
0.0
10
83.4919967651367
20
78.5839996337891
40
0.0
41
0.0
42
0.0
10
83.6100006103516
20
78.4962005615234
40
0.0
41
0.0
42
0.0
10
83.8034973144531
20
78.3246002197266
40
0.0
41
0.0
42
0.0
10
84.1507034301758
20
77.9929962158203
40
0.0
41
0.0
42
0.0
10
84.3171997070312
20
77.7061004638672
40
0.0
41
0.0
42
0.0
10
84.4654006958008
20
77.4893035888672
40
0.0
41
0.0
42
0.0
10
84.4882965087891
20
77.4185028076172
40
0.0
41
0.0
42
0.0
10
84.5002975463867
20
77.3609008789062
40
0.0
41
0.0
42
0.0
10
84.5565032958984
20
77.1334991455078
40
0.0
41
0.0
42
0.0
10
84.5642013549805
20
77.1069030761719
40
0.0
41
0.0
42
0.0
10
84.6038970947266
20
76.9922027587891
40
0.0
41
0.0
42
0.0
10
84.5700988769531
20
76.6938018798828
40
0.0
41
0.0
42
0.0
10
84.5709991455078
20
76.5156021118164
40
0.0
41
0.0
42
0.0
10
84.5425033569336
20
76.4405975341797
40
0.0
41
0.0
42
0.0
10
84.4983978271484
20
76.2665023803711
40
0.0
41
0.0
42
0.0
10
84.4247970581055
20
76.0126037597656
40
0.0
41
0.0
42
0.0
10
84.2752990722656
20
75.6864013671875
40
0.0
41
0.0
42
0.0
10
84.1999969482422
20
75.5106964111328
40
0.0
41
0.0
42
0.0
10
84.0964965820312
20
75.3253021240234
40
0.0
41
0.0
42
0.0
10
83.9981002807617
20
75.1537017822266
40
0.0
41
0.0
42
0.0
10
83.7175979614258
20
74.6832962036133
40
0.0
41
0.0
42
0.0
10
83.5884017944336
20
74.5093002319336
40
0.0
41
0.0
42
0.0
10
83.5410995483398
20
74.4018020629883
40
0.0
41
0.0
42
0.0
10
83.496696472168
20
74.3281021118164
40
0.0
41
0.0
42
0.0
10
83.3973007202148
20
74.2225036621094
40
0.0
41
0.0
42
0.0
10
83.3765029907227
20
74.1977996826172
40
0.0
41
0.0
42
0.0
10
83.2723007202148
20
74.0126037597656
40
0.0
41
0.0
42
0.0
10
83.216796875
20
73.7293014526367
40
0.0
41
0.0
42
0.0
10
83.1399002075195
20
73.5162963867188
40
0.0
41
0.0
42
0.0
10
83.1398010253906
20
73.4810028076172
40
0.0
41
0.0
42
0.0
10
83.1688995361328
20
73.1973037719727
40
0.0
41
0.0
42
0.0
10
83.1950988769531
20
72.9835968017578
40
0.0
41
0.0
42
0.0
10
83.2601013183594
20
72.7004013061523
40
0.0
41
0.0
42
0.0
10
83.3262023925781
20
72.4853973388672
40
0.0
41
0.0
42
0.0
10
83.3923034667969
20
72.2004013061523
40
0.0
41
0.0
42
0.0
10
83.4572982788086
20
71.9851989746094
40
0.0
41
0.0
42
0.0
10
83.4985961914062
20
71.7964019775391
40
0.0
41
0.0
42
0.0
10
83.55419921875
20
71.4826965332031
40
0.0
41
0.0
42
0.0
10
83.5789031982422
20
71.1968994140625
40
0.0
41
0.0
42
0.0
10
83.5994033813477
20
70.9951019287109
40
0.0
41
0.0
42
0.0
10
83.5839004516602
20
70.7339019775391
40
0.0
41
0.0
42
0.0
10
83.5753021240234
20
70.5164031982422
40
0.0
41
0.0
42
0.0
10
83.5186004638672
20
70.3290023803711
40
0.0
41
0.0
42
0.0
10
83.5002975463867
20
70.2509002685547
40
0.0
41
0.0
42
0.0
10
83.4646987915039
20
70.1135025024414
40
0.0
41
0.0
42
0.0
10
83.4304962158203
20
70.0100021362305
40
0.0
41
0.0
42
0.0
10
83.2073974609375
20
69.7223968505859
40
0.0
41
0.0
42
0.0
10
83.1790008544922
20
69.6832962036133
40
0.0
41
0.0
42
0.0
10
83.0712966918945
20
69.505500793457
40
0.0
41
0.0
42
0.0
10
83.0335006713867
20
69.4777984619141
40
0.0
41
0.0
42
0.0
10
82.9933013916016
20
69.4401016235352
40
0.0
41
0.0
42
0.0
10
82.8165969848633
20
69.3141021728516
40
0.0
41
0.0
42
0.0
10
82.4903030395508
20
69.1108016967773
40
0.0
41
0.0
42
0.0
10
82.4644012451172
20
69.0977020263672
40
0.0
41
0.0
42
0.0
10
82.2455978393555
20
69.0005035400391
40
0.0
41
0.0
42
0.0
10
82.1381988525391
20
68.9597015380859
40
0.0
41
0.0
42
0.0
10
81.9869995117188
20
68.8961029052734
40
0.0
41
0.0
42
0.0
10
81.8109970092773
20
68.8453979492188
40
0.0
41
0.0
42
0.0
10
81.4850997924805
20
68.7444000244141
40
0.0
41
0.0
42
0.0
10
81.3096008300781
20
68.7099990844727
40
0.0
41
0.0
42
0.0
10
80.9841003417969
20
68.6267013549805
40
0.0
41
0.0
42
0.0
10
80.809196472168
20
68.6016006469727
40
0.0
41
0.0
42
0.0
10
80.484001159668
20
68.5131988525391
40
0.0
41
0.0
42
0.0
10
80.4688034057617
20
68.5113983154297
40
0.0
41
0.0
42
0.0
10
80.4356994628906
20
68.5002975463867
40
0.0
41
0.0
42
0.0
10
80.1801986694336
20
68.3896026611328
40
0.0
41
0.0
42
0.0
10
79.9870986938477
20
68.3589019775391
40
0.0
41
0.0
42
0.0
10
79.7791976928711
20
68.2379989624023
40
0.0
41
0.0
42
0.0
10
79.6965026855469
20
68.1292037963867
40
0.0
41
0.0
42
0.0
10
79.5578994750977
20
68.004997253418
40
0.0
41
0.0
42
0.0
10
79.4949035644531
20
67.9359970092773
40
0.0
41
0.0
42
0.0
10
79.4647979736328
20
67.9084014892578
40
0.0
41
0.0
42
0.0
10
79.3482971191406
20
67.7241973876953
40
0.0
41
0.0
42
0.0
10
79.2277984619141
20
67.5091018676758
40
0.0
41
0.0
42
0.0
10
79.0608978271484
20
67.2514038085938
40
0.0
41
0.0
42
0.0
10
78.9982986450195
20
67.1503982543945
40
0.0
41
0.0
42
0.0
10
78.9412002563477
20
67.03759765625
40
0.0
41
0.0
42
0.0
10
78.9243011474609
20
67.0085983276367
40
0.0
41
0.0
42
0.0
10
78.7254028320312
20
66.7231979370117
40
0.0
41
0.0
42
0.0
10
78.584098815918
20
66.5078964233398
40
0.0
41
0.0
42
0.0
10
78.4962997436523
20
66.3898010253906
40
0.0
41
0.0
42
0.0
10
78.3246002197266
20
66.1961975097656
40
0.0
41
0.0
42
0.0
10
77.9935989379883
20
65.8496017456055
40
0.0
41
0.0
42
0.0
10
77.7761993408203
20
65.7011032104492
40
0.0
41
0.0
42
0.0
10
77.4886016845703
20
65.5341033935547
40
0.0
41
0.0
42
0.0
10
77.4185028076172
20
65.5113983154297
40
0.0
41
0.0
42
0.0
10
77.3609008789062
20
65.4994964599609
40
0.0
41
0.0
42
0.0
10
77.1335983276367
20
65.4431991577148
40
0.0
41
0.0
42
0.0
10
77.1069030761719
20
65.4355010986328
40
0.0
41
0.0
42
0.0
10
76.9839019775391
20
65.3929977416992
40
0.0
41
0.0
42
0.0
10
77.0164031982422
20
65.3932037353516
40
0.0
41
0.0
42
0.0
10
77.1509017944336
20
65.4395980834961
40
0.0
41
0.0
42
0.0
10
77.3960037231445
20
65.5003967285156
40
0.0
41
0.0
42
0.0
10
77.4601974487305
20
65.5137023925781
40
0.0
41
0.0
42
0.0
10
77.5113983154297
20
65.5302963256836
40
0.0
41
0.0
42
0.0
10
77.8337020874023
20
65.7174987792969
40
0.0
41
0.0
42
0.0
10
78.0063018798828
20
65.8355026245117
40
0.0
41
0.0
42
0.0
10
78.3655014038086
20
66.2114028930664
40
0.0
41
0.0
42
0.0
10
78.5036010742188
20
66.3672027587891
40
0.0
41
0.0
42
0.0
10
78.5962982177734
20
66.4919967651367
40
0.0
41
0.0
42
0.0
10
78.7109985351562
20
66.6667022705078
40
0.0
41
0.0
42
0.0
10
78.9372024536133
20
66.9913024902344
40
0.0
41
0.0
42
0.0
10
78.9550018310547
20
67.0214996337891
40
0.0
41
0.0
42
0.0
10
79.0016021728516
20
67.1137008666992
40
0.0
41
0.0
42
0.0
10
79.053596496582
20
67.1977005004883
40
0.0
41
0.0
42
0.0
10
79.2434005737305
20
67.4907989501953
40
0.0
41
0.0
42
0.0
10
79.3414001464844
20
67.6657028198242
40
0.0
41
0.0
42
0.0
10
79.4781036376953
20
67.8817977905273
40
0.0
41
0.0
42
0.0
10
79.5050964355469
20
67.9066009521484
40
0.0
41
0.0
42
0.0
10
79.5858001708984
20
67.9949035644531
40
0.0
41
0.0
42
0.0
10
79.7610015869141
20
68.152099609375
40
0.0
41
0.0
42
0.0
10
79.8308029174805
20
68.2436981201172
40
0.0
41
0.0
42
0.0
10
80.0128021240234
20
68.3495025634766
40
0.0
41
0.0
42
0.0
10
80.1733016967773
20
68.375
40
0.0
41
0.0
42
0.0
10
80.4614028930664
20
68.4996032714844
40
0.0
41
0.0
42
0.0
10
80.4959030151367
20
68.511100769043
40
0.0
41
0.0
42
0.0
10
80.5158996582031
20
68.5134963989258
40
0.0
41
0.0
42
0.0
10
80.8006973266602
20
68.5908966064453
40
0.0
41
0.0
42
0.0
10
81.0158996582031
20
68.6218032836914
40
0.0
41
0.0
42
0.0
10
81.3003005981445
20
68.6945037841797
40
0.0
41
0.0
42
0.0
10
81.5148010253906
20
68.7366027832031
40
0.0
41
0.0
42
0.0
10
81.7990036010742
20
68.8246994018555
40
0.0
41
0.0
42
0.0
10
82.0130004882812
20
68.8862991333008
40
0.0
41
0.0
42
0.0
10
82.1969985961914
20
68.9636993408203
40
0.0
41
0.0
42
0.0
10
82.2908020019531
20
68.9992980957031
40
0.0
41
0.0
42
0.0
10
82.4806976318359
20
69.0837020874023
40
0.0
41
0.0
42
0.0
10
82.5095977783203
20
69.098503112793
40
0.0
41
0.0
42
0.0
10
82.7932968139648
20
69.2751007080078
40
0.0
41
0.0
42
0.0
10
83.0065994262695
20
69.4271011352539
40
0.0
41
0.0
42
0.0
10
83.0558013916016
20
69.4733963012695
40
0.0
41
0.0
42
0.0
10
83.084602355957
20
69.4944000244141
40
0.0
41
0.0
42
0.0
10
83.2061996459961
20
69.6950988769531
40
0.0
41
0.0
42
0.0
10
83.4348983764648
20
69.9899978637695
40
0.0
41
0.0
42
0.0
10
83.4703979492188
20
70.0979995727539
40
0.0
41
0.0
42
0.0
10
83.4994964599609
20
70.209602355957
40
0.0
41
0.0
42
0.0
10
83.5146026611328
20
70.2738037109375
40
0.0
41
0.0
42
0.0
10
83.5781021118164
20
70.4834976196289
40
0.0
41
0.0
42
0.0
10
83.5848999023438
20
70.6559982299805
40
0.0
41
0.0
42
0.0
10
83.6039962768555
20
70.980598449707
40
0.0
41
0.0
42
0.0
10
83.6038970947266
20
71.0188980102539
40
0.0
41
0.0
42
0.0
10
83.5863037109375
20
71.193000793457
40
0.0
41
0.0
42
0.0
10
83.5582962036133
20
71.5171966552734
40
0.0
41
0.0
42
0.0
10
83.4970016479492
20
71.8630981445312
40
0.0
41
0.0
42
0.0
10
83.4637985229492
20
72.0146026611328
40
0.0
41
0.0
42
0.0
10
83.4112014770508
20
72.1894989013672
40
0.0
41
0.0
42
0.0
10
83.3358001708984
20
72.5145034790039
40
0.0
41
0.0
42
0.0
10
83.2819976806641
20
72.6894989013672
40
0.0
41
0.0
42
0.0
10
83.2070007324219
20
73.0162963867188
40
0.0
41
0.0
42
0.0
10
83.185302734375
20
73.1925964355469
40
0.0
41
0.0
42
0.0
10
83.1546020507812
20
73.4914016723633
40
0.0
41
0.0
42
0.0
10
83.2157974243164
20
73.6605987548828
40
0.0
41
0.0
42
0.0
10
83.279899597168
20
73.9872970581055
40
0.0
41
0.0
42
0.0
10
83.4008026123047
20
74.2018966674805
40
0.0
41
0.0
42
0.0
10
83.5029983520508
20
74.3107986450195
40
0.0
41
0.0
42
0.0
10
83.5532989501953
20
74.3945007324219
40
0.0
41
0.0
42
0.0
10
83.595703125
20
74.4906005859375
40
0.0
41
0.0
42
0.0
10
83.7562026977539
20
74.7065963745117
40
0.0
41
0.0
42
0.0
10
84.0018005371094
20
75.1184005737305
40
0.0
41
0.0
42
0.0
10
84.1223983764648
20
75.3286972045898
40
0.0
41
0.0
42
0.0
10
84.2120971679688
20
75.4893035888672
40
0.0
41
0.0
42
0.0
10
84.3038024902344
20
75.703498840332
40
0.0
41
0.0
42
0.0
10
84.4339981079102
20
75.9872970581055
40
0.0
41
0.0
42
0.0
10
84.4974975585938
20
76.2064971923828
40
0.0
41
0.0
42
0.0
10
84.552001953125
20
76.4223022460938
40
0.0
41
0.0
42
0.0
10
84.5754013061523
20
76.4838027954102
40
0.0
41
0.0
42
0.0
10
84.5745010375977
20
76.6977996826172
40
0.0
41
0.0
42
0.0
10
84.6065979003906
20
76.9811019897461
40
0.0
41
0.0
42
0.0
10
84.6064987182617
20
77.0164031982422
40
0.0
41
0.0
42
0.0
10
84.5600967407227
20
77.1509017944336
40
0.0
41
0.0
42
0.0
10
84.5008010864258
20
77.3899993896484
40
0.0
41
0.0
42
0.0
10
84.4860000610352
20
77.4600982666016
40
0.0
41
0.0
42
0.0
10
84.469596862793
20
77.5105972290039
40
0.0
41
0.0
42
0.0
10
84.3513031005859
20
77.6837005615234
40
0.0
41
0.0
42
0.0
10
84.1636962890625
20
78.0067977905273
40
0.0
41
0.0
42
0.0
10
83.7883987426758
20
78.3654022216797
40
0.0
41
0.0
42
0.0
10
83.6324996948242
20
78.5036010742188
40
0.0
41
0.0
42
0.0
10
83.5078964233398
20
78.5962982177734
40
0.0
41
0.0
42
0.0
10
83.3330993652344
20
78.7109985351562
40
0.0
41
0.0
42
0.0
10
83.0085983276367
20
78.9371032714844
40
0.0
41
0.0
42
0.0
10
82.9782028198242
20
78.9550018310547
40
0.0
41
0.0
42
0.0
10
82.8860015869141
20
79.0016021728516
40
0.0
41
0.0
42
0.0
10
82.8021011352539
20
79.0534973144531
40
0.0
41
0.0
42
0.0
10
82.5091018676758
20
79.2434005737305
40
0.0
41
0.0
42
0.0
10
82.3341979980469
20
79.3413009643555
40
0.0
41
0.0
42
0.0
10
82.1178970336914
20
79.4779968261719
40
0.0
41
0.0
42
0.0
10
82.0932006835938
20
79.5050964355469
40
0.0
41
0.0
42
0.0
10
82.0048980712891
20
79.5858001708984
40
0.0
41
0.0
42
0.0
10
81.8477020263672
20
79.7610015869141
40
0.0
41
0.0
42
0.0
10
81.756103515625
20
79.8307037353516
40
0.0
41
0.0
42
0.0
10
81.6501998901367
20
80.0128021240234
40
0.0
41
0.0
42
0.0
10
81.6247024536133
20
80.1732025146484
40
0.0
41
0.0
42
0.0
10
81.5002975463867
20
80.4614028930664
40
0.0
41
0.0
42
0.0
10
81.4887008666992
20
80.4956970214844
40
0.0
41
0.0
42
0.0
10
81.4553985595703
20
80.7306976318359
40
0.0
41
0.0
42
0.0
10
81.3780975341797
20
81.0150985717773
40
0.0
41
0.0
42
0.0
10
81.3358993530273
20
81.2303009033203
40
0.0
41
0.0
42
0.0
10
81.2631988525391
20
81.5143966674805
40
0.0
41
0.0
42
0.0
10
81.2014999389648
20
81.7288970947266
40
0.0
41
0.0
42
0.0
10
81.1135025024414
20
82.0127029418945
40
0.0
41
0.0
42
0.0
10
81.036003112793
20
82.1968994140625
40
0.0
41
0.0
42
0.0
10
81.0005035400391
20
82.2907028198242
40
0.0
41
0.0
42
0.0
10
80.9160003662109
20
82.4806976318359
40
0.0
41
0.0
42
0.0
10
80.9016036987305
20
82.5090026855469
40
0.0
41
0.0
42
0.0
10
80.7489013671875
20
82.7231979370117
40
0.0
41
0.0
42
0.0
10
80.5721969604492
20
83.0071029663086
40
0.0
41
0.0
42
0.0
10
80.5262985229492
20
83.0558013916016
40
0.0
41
0.0
42
0.0
10
80.5054016113281
20
83.084602355957
40
0.0
41
0.0
42
0.0
10
80.3047027587891
20
83.2061996459961
40
0.0
41
0.0
42
0.0
10
80.0099029541016
20
83.4348983764648
40
0.0
41
0.0
42
0.0
10
79.9020004272461
20
83.4703979492188
40
0.0
41
0.0
42
0.0
10
79.7257995605469
20
83.5147018432617
40
0.0
41
0.0
42
0.0
10
79.5164031982422
20
83.5781021118164
40
0.0
41
0.0
42
0.0
10
79.3439025878906
20
83.5848999023438
40
0.0
41
0.0
42
0.0
10
79.0193023681641
20
83.6039962768555
40
0.0
41
0.0
42
0.0
10
78.9810028076172
20
83.6038970947266
40
0.0
41
0.0
42
0.0
10
78.8069000244141
20
83.5863037109375
40
0.0
41
0.0
42
0.0
10
78.4826965332031
20
83.5582962036133
40
0.0
41
0.0
42
0.0
10
78.1365966796875
20
83.4971008300781
40
0.0
41
0.0
42
0.0
10
77.9852981567383
20
83.4637985229492
40
0.0
41
0.0
42
0.0
10
77.8104019165039
20
83.4112014770508
40
0.0
41
0.0
42
0.0
10
77.4853973388672
20
83.3358993530273
40
0.0
41
0.0
42
0.0
10
77.3104019165039
20
83.2819976806641
40
0.0
41
0.0
42
0.0
10
76.9835968017578
20
83.2070007324219
40
0.0
41
0.0
42
0.0
10
76.8072967529297
20
83.185302734375
40
0.0
41
0.0
42
0.0
10
76.5084991455078
20
83.1546020507812
40
0.0
41
0.0
42
0.0
10
76.3393020629883
20
83.2157974243164
40
0.0
41
0.0
42
0.0
10
76.0126037597656
20
83.2798004150391
40
0.0
41
0.0
42
0.0
10
75.7977981567383
20
83.4007034301758
40
0.0
41
0.0
42
0.0
10
75.6889038085938
20
83.5029983520508
40
0.0
41
0.0
42
0.0
10
75.6052017211914
20
83.5532989501953
40
0.0
41
0.0
42
0.0
10
75.5093002319336
20
83.5955963134766
40
0.0
41
0.0
42
0.0
10
75.2931976318359
20
83.7562026977539
40
0.0
41
0.0
42
0.0
10
74.8814010620117
20
84.0017013549805
40
0.0
41
0.0
42
0.0
10
74.6710968017578
20
84.1223983764648
40
0.0
41
0.0
42
0.0
10
74.5105972290039
20
84.2120971679688
40
0.0
41
0.0
42
0.0
10
74.2964019775391
20
84.3037033081055
40
0.0
41
0.0
42
0.0
10
74.0126037597656
20
84.4339981079102
40
0.0
41
0.0
42
0.0
10
73.7932968139648
20
84.4973983764648
40
0.0
41
0.0
42
0.0
10
73.5774993896484
20
84.552001953125
40
0.0
41
0.0
42
0.0
10
73.5160980224609
20
84.5754013061523
40
0.0
41
0.0
42
0.0
10
73.3021011352539
20
84.5745010375977
40
0.0
41
0.0
42
0.0
10
73.018798828125
20
84.6065979003906
40
0.0
41
0.0
42
0.0
10
72.9834976196289
20
84.6064987182617
40
0.0
41
0.0
42
0.0
10
72.8488998413086
20
84.5600967407227
40
0.0
41
0.0
42
0.0
10
72.6098022460938
20
84.5008010864258
40
0.0
41
0.0
42
0.0
10
72.5397033691406
20
84.4860000610352
40
0.0
41
0.0
42
0.0
10
72.4893035888672
20
84.4697036743164
40
0.0
41
0.0
42
0.0
10
72.3162002563477
20
84.3514022827148
40
0.0
41
0.0
42
0.0
10
71.9931030273438
20
84.1638031005859
40
0.0
41
0.0
42
0.0
10
71.6343002319336
20
83.7883987426758
40
0.0
41
0.0
42
0.0
10
71.4962997436523
20
83.6325988769531
40
0.0
41
0.0
42
0.0
10
71.4032974243164
20
83.507698059082
40
0.0
41
0.0
42
0.0
10
71.1772003173828
20
83.1831970214844
40
0.0
41
0.0
42
0.0
10
71.0626983642578
20
83.008903503418
40
0.0
41
0.0
42
0.0
10
71.0447998046875
20
82.9783020019531
40
0.0
41
0.0
42
0.0
10
70.9982986450195
20
82.886100769043
40
0.0
41
0.0
42
0.0
10
70.9461975097656
20
82.8021011352539
40
0.0
41
0.0
42
0.0
10
70.7563018798828
20
82.5091018676758
40
0.0
41
0.0
42
0.0
10
70.6584014892578
20
82.3341979980469
40
0.0
41
0.0
42
0.0
10
70.5216979980469
20
82.1179962158203
40
0.0
41
0.0
42
0.0
10
70.4947967529297
20
82.0932006835938
40
0.0
41
0.0
42
0.0
10
70.4141006469727
20
82.004997253418
40
0.0
41
0.0
42
0.0
10
70.2388000488281
20
81.8477020263672
40
0.0
41
0.0
42
0.0
10
70.1690979003906
20
81.756103515625
40
0.0
41
0.0
42
0.0
10
69.9870986938477
20
81.6501998901367
40
0.0
41
0.0
42
0.0
10
69.8265991210938
20
81.6247024536133
40
0.0
41
0.0
42
0.0
10
69.5383987426758
20
81.5002975463867
40
0.0
41
0.0
42
0.0
10
69.5040969848633
20
81.4887008666992
40
0.0
41
0.0
42
0.0
10
69.2692031860352
20
81.4553985595703
40
0.0
41
0.0
42
0.0
10
68.9847030639648
20
81.3780975341797
40
0.0
41
0.0
42
0.0
10
68.7695999145508
20
81.3358993530273
40
0.0
41
0.0
42
0.0
10
68.4854965209961
20
81.263298034668
40
0.0
41
0.0
42
0.0
10
68.2710037231445
20
81.2014999389648
40
0.0
41
0.0
42
0.0
10
67.9871978759766
20
81.1136016845703
40
0.0
41
0.0
42
0.0
10
67.8029022216797
20
81.036003112793
40
0.0
41
0.0
42
0.0
10
67.7089996337891
20
81.0005035400391
40
0.0
41
0.0
42
0.0
10
67.5190963745117
20
80.9160995483398
40
0.0
41
0.0
42
0.0
10
67.4908981323242
20
80.9016036987305
40
0.0
41
0.0
42
0.0
10
67.2766036987305
20
80.7489013671875
40
0.0
41
0.0
42
0.0
10
66.9927978515625
20
80.5721969604492
40
0.0
41
0.0
42
0.0
10
66.9440002441406
20
80.5263977050781
40
0.0
41
0.0
42
0.0
10
66.9141998291016
20
80.5047988891602
40
0.0
41
0.0
42
0.0
10
66.6953964233398
20
80.2227020263672
40
0.0
41
0.0
42
0.0
10
66.6697998046875
20
80.1837997436523
40
0.0
41
0.0
42
0.0
10
66.565299987793
20
80.011100769043
40
0.0
41
0.0
42
0.0
10
66.529296875
20
79.9020004272461
40
0.0
41
0.0
42
0.0
10
66.4850006103516
20
79.7258987426758
40
0.0
41
0.0
42
0.0
10
66.4216003417969
20
79.5162963867188
40
0.0
41
0.0
42
0.0
10
66.402702331543
20
79.1939010620117
40
0.0
41
0.0
42
0.0
10
66.3958969116211
20
79.0195007324219
40
0.0
41
0.0
42
0.0
10
66.3957977294922
20
78.9809036254883
40
0.0
41
0.0
42
0.0
10
66.4237976074219
20
78.6568984985352
40
0.0
41
0.0
42
0.0
10
66.4413986206055
20
78.4828033447266
40
0.0
41
0.0
42
0.0
10
66.5026016235352
20
78.1365966796875
40
0.0
41
0.0
42
0.0
10
66.536003112793
20
77.9845962524414
40
0.0
41
0.0
42
0.0
10
66.611198425293
20
77.660400390625
40
0.0
41
0.0
42
0.0
10
66.6639022827148
20
77.4852981567383
40
0.0
41
0.0
42
0.0
10
66.7386016845703
20
77.160400390625
40
0.0
41
0.0
42
0.0
10
66.7927017211914
20
76.9841003417969
40
0.0
41
0.0
42
0.0
10
66.8262023925781
20
76.6573028564453
40
0.0
41
0.0
42
0.0
10
66.845100402832
20
76.5037994384766
40
0.0
41
0.0
42
0.0
10
66.7835006713867
20
76.1893005371094
40
0.0
41
0.0
42
0.0
10
66.7191009521484
20
76.0111999511719
40
0.0
41
0.0
42
0.0
10
66.5990982055664
20
75.7977981567383
40
0.0
41
0.0
42
0.0
10
66.4968032836914
20
75.6890029907227
40
0.0
41
0.0
42
0.0
10
66.446403503418
20
75.6053009033203
40
0.0
41
0.0
42
0.0
10
66.4045028686523
20
75.5102996826172
40
0.0
41
0.0
42
0.0
10
66.2342987060547
20
75.2232971191406
40
0.0
41
0.0
42
0.0
10
66.0744018554688
20
75.00830078125
40
0.0
41
0.0
42
0.0
10
65.9981002807617
20
74.8814010620117
40
0.0
41
0.0
42
0.0
10
65.8772964477539
20
74.6710968017578
40
0.0
41
0.0
42
0.0
10
65.7873992919922
20
74.510498046875
40
0.0
41
0.0
42
0.0
10
65.6573028564453
20
74.2264022827148
40
0.0
41
0.0
42
0.0
10
65.565803527832
20
74.0129013061523
40
0.0
41
0.0
42
0.0
10
65.5022964477539
20
73.7934036254883
40
0.0
41
0.0
42
0.0
10
65.4477005004883
20
73.5774993896484
40
0.0
41
0.0
42
0.0
10
65.4238967895508
20
73.5149993896484
40
0.0
41
0.0
42
0.0
10
65.3921966552734
20
73.2338027954102
40
0.0
41
0.0
42
0.0
10
65.3923034667969
20
73.1595001220703
40
0.0
41
0.0
42
0.0
210
0.0
220
0.0
230
1.0
0
LWPOLYLINE
5
24
330
1C
100
AcDbEntity
67
0
8
0
62
256
6
ByLayer
370
-1
48
1.0
60
0
100
AcDbPolyline
90
157
70
1
38
0.0
39
0.0
10
76.8392028808594
20
65.3924026489258
40
0.0
41
0.0
42
0.0
10
76.5149993896484
20
65.4291000366211
40
0.0
41
0.0
42
0.0
10
76.440803527832
20
65.4571990966797
40
0.0
41
0.0
42
0.0
10
76.2664031982422
20
65.5012969970703
40
0.0
41
0.0
42
0.0
10
76.0128021240234
20
65.5746994018555
40
0.0
41
0.0
42
0.0
10
75.8364028930664
20
65.6502990722656
40
0.0
41
0.0
42
0.0
10
75.5103988647461
20
65.7997970581055
40
0.0
41
0.0
42
0.0
10
75.3253021240234
20
65.9031982421875
40
0.0
41
0.0
42
0.0
10
75.1536026000977
20
66.0018005371094
40
0.0
41
0.0
42
0.0
10
75.0082015991211
20
66.0893020629883
40
0.0
41
0.0
42
0.0
10
74.8332977294922
20
66.2192993164062
40
0.0
41
0.0
42
0.0
10
74.5102996826172
20
66.4108963012695
40
0.0
41
0.0
42
0.0
10
74.4017028808594
20
66.4587020874023
40
0.0
41
0.0
42
0.0
10
74.3301010131836
20
66.5017013549805
40
0.0
41
0.0
42
0.0
10
74.2223968505859
20
66.6024017333984
40
0.0
41
0.0
42
0.0
10
74.1977996826172
20
66.6232986450195
40
0.0
41
0.0
42
0.0
10
74.011100769043
20
66.7282028198242
40
0.0
41
0.0
42
0.0
10
73.7993011474609
20
66.8049011230469
40
0.0
41
0.0
42
0.0
10
73.5178985595703
20
66.8600997924805
40
0.0
41
0.0
42
0.0
10
73.481201171875
20
66.8600006103516
40
0.0
41
0.0
42
0.0
10
73.2673034667969
20
66.8337020874023
40
0.0
41
0.0
42
0.0
10
72.9841003417969
20
66.8047027587891
40
0.0
41
0.0
42
0.0
10
72.7704010009766
20
66.738899230957
40
0.0
41
0.0
42
0.0
10
72.4853973388672
20
66.6735000610352
40
0.0
41
0.0
42
0.0
10
72.2704010009766
20
66.6087036132812
40
0.0
41
0.0
42
0.0
10
71.9845962524414
20
66.5422973632812
40
0.0
41
0.0
42
0.0
10
71.7964019775391
20
66.5010986328125
40
0.0
41
0.0
42
0.0
10
71.4828033447266
20
66.4456024169922
40
0.0
41
0.0
42
0.0
10
71.2668991088867
20
66.4237976074219
40
0.0
41
0.0
42
0.0
10
70.9929962158203
20
66.4001007080078
40
0.0
41
0.0
42
0.0
10
70.8039016723633
20
66.407600402832
40
0.0
41
0.0
42
0.0
10
70.5161972045898
20
66.4244003295898
40
0.0
41
0.0
42
0.0
10
70.3290023803711
20
66.4811019897461
40
0.0
41
0.0
42
0.0
10
70.2509002685547
20
66.4994964599609
40
0.0
41
0.0
42
0.0
10
70.1135025024414
20
66.5350036621094
40
0.0
41
0.0
42
0.0
10
70.011100769043
20
66.5688018798828
40
0.0
41
0.0
42
0.0
10
69.8212966918945
20
66.6837997436523
40
0.0
41
0.0
42
0.0
10
69.5046997070312
20
66.9293975830078
40
0.0
41
0.0
42
0.0
10
69.4777984619141
20
66.9663009643555
40
0.0
41
0.0
42
0.0
10
69.4400024414062
20
67.0065994262695
40
0.0
41
0.0
42
0.0
10
69.3141021728516
20
67.1831970214844
40
0.0
41
0.0
42
0.0
10
69.1108016967773
20
67.5095977783203
40
0.0
41
0.0
42
0.0
10
69.0977020263672
20
67.535400390625
40
0.0
41
0.0
42
0.0
10
69.0003967285156
20
67.7542037963867
40
0.0
41
0.0
42
0.0
10
68.9597015380859
20
67.8616027832031
40
0.0
41
0.0
42
0.0
10
68.8961029052734
20
68.0129013061523
40
0.0
41
0.0
42
0.0
10
68.8453979492188
20
68.1889038085938
40
0.0
41
0.0
42
0.0
10
68.7444000244141
20
68.5148010253906
40
0.0
41
0.0
42
0.0
10
68.7099990844727
20
68.690299987793
40
0.0
41
0.0
42
0.0
10
68.6267013549805
20
69.0158004760742
40
0.0
41
0.0
42
0.0
10
68.6016006469727
20
69.1906967163086
40
0.0
41
0.0
42
0.0
10
68.5131988525391
20
69.5158996582031
40
0.0
41
0.0
42
0.0
10
68.5113983154297
20
69.5309982299805
40
0.0
41
0.0
42
0.0
10
68.5002975463867
20
69.5641021728516
40
0.0
41
0.0
42
0.0
10
68.3896026611328
20
69.8196029663086
40
0.0
41
0.0
42
0.0
10
68.3589019775391
20
70.0128021240234
40
0.0
41
0.0
42
0.0
10
68.2379989624023
20
70.220703125
40
0.0
41
0.0
42
0.0
10
68.1292037963867
20
70.3032989501953
40
0.0
41
0.0
42
0.0
10
68.004997253418
20
70.4418029785156
40
0.0
41
0.0
42
0.0
10
67.9359970092773
20
70.504997253418
40
0.0
41
0.0
42
0.0
10
67.9083023071289
20
70.5348968505859
40
0.0
41
0.0
42
0.0
10
67.7241973876953
20
70.6513977050781
40
0.0
41
0.0
42
0.0
10
67.5090026855469
20
70.7720031738281
40
0.0
41
0.0
42
0.0
10
67.2514038085938
20
70.9389038085938
40
0.0
41
0.0
42
0.0
10
67.1502990722656
20
71.0016021728516
40
0.0
41
0.0
42
0.0
10
67.03759765625
20
71.0585021972656
40
0.0
41
0.0
42
0.0
10
67.0087966918945
20
71.0753021240234
40
0.0
41
0.0
42
0.0
10
66.793098449707
20
71.2170028686523
40
0.0
41
0.0
42
0.0
10
66.5075988769531
20
71.4158020019531
40
0.0
41
0.0
42
0.0
10
66.3897018432617
20
71.5036010742188
40
0.0
41
0.0
42
0.0
10
66.1961975097656
20
71.6751022338867
40
0.0
41
0.0
42
0.0
10
65.8496017456055
20
72.0062026977539
40
0.0
41
0.0
42
0.0
10
65.7009963989258
20
72.2237014770508
40
0.0
41
0.0
42
0.0
10
65.5339965820312
20
72.5112991333008
40
0.0
41
0.0
42
0.0
10
65.5113983154297
20
72.581298828125
40
0.0
41
0.0
42
0.0
10
65.499397277832
20
72.6389007568359
40
0.0
41
0.0
42
0.0
10
65.4430999755859
20
72.8662033081055
40
0.0
41
0.0
42
0.0
10
65.4355010986328
20
72.8928985595703
40
0.0
41
0.0
42
0.0
10
65.3929977416992
20
73.015998840332
40
0.0
41
0.0
42
0.0
10
65.3932037353516
20
72.9834976196289
40
0.0
41
0.0
42
0.0
10
65.4395980834961
20
72.8488998413086
40
0.0
41
0.0
42
0.0
10
65.5003967285156
20
72.6037979125977
40
0.0
41
0.0
42
0.0
10
65.5137023925781
20
72.5395965576172
40
0.0
41
0.0
42
0.0
10
65.5302963256836
20
72.4885025024414
40
0.0
41
0.0
42
0.0
10
65.7170028686523
20
72.1669006347656
40
0.0
41
0.0
42
0.0
10
65.8354034423828
20
71.9935989379883
40
0.0
41
0.0
42
0.0
10
66.2114028930664
20
71.6343002319336
40
0.0
41
0.0
42
0.0
10
66.3672027587891
20
71.4962005615234
40
0.0
41
0.0
42
0.0
10
66.4922027587891
20
71.4032974243164
40
0.0
41
0.0
42
0.0
10
66.8167037963867
20
71.1772003173828
40
0.0
41
0.0
42
0.0
10
66.9909973144531
20
71.0626983642578
40
0.0
41
0.0
42
0.0
10
67.0214996337891
20
71.0447006225586
40
0.0
41
0.0
42
0.0
10
67.1137008666992
20
70.9981994628906
40
0.0
41
0.0
42
0.0
10
67.1977005004883
20
70.9461975097656
40
0.0
41
0.0
42
0.0
10
67.4907989501953
20
70.7563018798828
40
0.0
41
0.0
42
0.0
10
67.6657028198242
20
70.6584014892578
40
0.0
41
0.0
42
0.0
10
67.8817977905273
20
70.5216979980469
40
0.0
41
0.0
42
0.0
10
67.9065017700195
20
70.4947967529297
40
0.0
41
0.0
42
0.0
10
67.9949035644531
20
70.4140014648438
40
0.0
41
0.0
42
0.0
10
68.1520004272461
20
70.2387008666992
40
0.0
41
0.0
42
0.0
10
68.2435989379883
20
70.1690979003906
40
0.0
41
0.0
42
0.0
10
68.3495025634766
20
69.9870986938477
40
0.0
41
0.0
42
0.0
10
68.375
20
69.8264999389648
40
0.0
41
0.0
42
0.0
10
68.4994964599609
20
69.5383987426758
40
0.0
41
0.0
42
0.0
10
68.511100769043
20
69.5038986206055
40
0.0
41
0.0
42
0.0
10
68.5134963989258
20
69.484001159668
40
0.0
41
0.0
42
0.0
10
68.5908966064453
20
69.1992034912109
40
0.0
41
0.0
42
0.0
10
68.621696472168
20
68.984001159668
40
0.0
41
0.0
42
0.0
10
68.6945037841797
20
68.6996002197266
40
0.0
41
0.0
42
0.0
10
68.7366027832031
20
68.4850997924805
40
0.0
41
0.0
42
0.0
10
68.8246994018555
20
68.2008972167969
40
0.0
41
0.0
42
0.0
10
68.8861999511719
20
67.9869003295898
40
0.0
41
0.0
42
0.0
10
68.9636993408203
20
67.8028030395508
40
0.0
41
0.0
42
0.0
10
68.9992980957031
20
67.7089996337891
40
0.0
41
0.0
42
0.0
10
69.0836029052734
20
67.5190963745117
40
0.0
41
0.0
42
0.0
10
69.0983963012695
20
67.4903030395508
40
0.0
41
0.0
42
0.0
10
69.2751007080078
20
67.2065963745117
40
0.0
41
0.0
42
0.0
10
69.4271011352539
20
66.9933013916016
40
0.0
41
0.0
42
0.0
10
69.4733963012695
20
66.9439010620117
40
0.0
41
0.0
42
0.0
10
69.4951019287109
20
66.9141006469727
40
0.0
41
0.0
42
0.0
10
69.777099609375
20
66.6953964233398
40
0.0
41
0.0
42
0.0
10
69.8161010742188
20
66.6697006225586
40
0.0
41
0.0
42
0.0
10
69.9888000488281
20
66.565299987793
40
0.0
41
0.0
42
0.0
10
70.097900390625
20
66.529296875
40
0.0
41
0.0
42
0.0
10
70.2739028930664
20
66.4850997924805
40
0.0
41
0.0
42
0.0
10
70.4835968017578
20
66.4216003417969
40
0.0
41
0.0
42
0.0
10
70.8059997558594
20
66.402702331543
40
0.0
41
0.0
42
0.0
10
70.9804000854492
20
66.3958969116211
40
0.0
41
0.0
42
0.0
10
71.0189971923828
20
66.3957977294922
40
0.0
41
0.0
42
0.0
10
71.3430023193359
20
66.4237976074219
40
0.0
41
0.0
42
0.0
10
71.5170974731445
20
66.4413986206055
40
0.0
41
0.0
42
0.0
10
71.8631973266602
20
66.5027008056641
40
0.0
41
0.0
42
0.0
10
72.0152969360352
20
66.536003112793
40
0.0
41
0.0
42
0.0
10
72.3395004272461
20
66.6112976074219
40
0.0
41
0.0
42
0.0
10
72.5146026611328
20
66.6639022827148
40
0.0
41
0.0
42
0.0
10
72.8395004272461
20
66.7386016845703
40
0.0
41
0.0
42
0.0
10
73.0158004760742
20
66.7927017211914
40
0.0
41
0.0
42
0.0
10
73.3425979614258
20
66.8262023925781
40
0.0
41
0.0
42
0.0
10
73.4961013793945
20
66.845100402832
40
0.0
41
0.0
42
0.0
10
73.8106002807617
20
66.7835006713867
40
0.0
41
0.0
42
0.0
10
73.9887008666992
20
66.7191009521484
40
0.0
41
0.0
42
0.0
10
74.2018966674805
20
66.5990982055664
40
0.0
41
0.0
42
0.0
10
74.3106994628906
20
66.496696472168
40
0.0
41
0.0
42
0.0
10
74.3945007324219
20
66.446403503418
40
0.0
41
0.0
42
0.0
10
74.489501953125
20
66.4045028686523
40
0.0
41
0.0
42
0.0
10
74.7766036987305
20
66.2341995239258
40
0.0
41
0.0
42
0.0
10
74.9916000366211
20
66.0743026733398
40
0.0
41
0.0
42
0.0
10
75.1184005737305
20
65.9980010986328
40
0.0
41
0.0
42
0.0
10
75.3286972045898
20
65.8772964477539
40
0.0
41
0.0
42
0.0
10
75.4894027709961
20
65.7873992919922
40
0.0
41
0.0
42
0.0
10
75.7733993530273
20
65.6572036743164
40
0.0
41
0.0
42
0.0
10
75.9869995117188
20
65.565803527832
40
0.0
41
0.0
42
0.0
10
76.2063980102539
20
65.5022964477539
40
0.0
41
0.0
42
0.0
10
76.4223022460938
20
65.4477005004883
40
0.0
41
0.0
42
0.0
10
76.4849014282227
20
65.4237976074219
40
0.0
41
0.0
42
0.0
10
76.7660980224609
20
65.3920974731445
40
0.0
41
0.0
42
0.0
10
76.8392028808594
20
65.3924026489258
40
0.0
41
0.0
42
0.0
210
0.0
220
0.0
230
1.0
0
LWPOLYLINE
5
25
330
1C
100
AcDbEntity
67
0
8
0
62
256
6
ByLayer
370
-1
48
1.0
60
0
100
AcDbPolyline
90
31
70
1
38
0.0
39
0.0
10
65.7526016235352
20
65.0009994506836
40
0.0
41
0.0
42
0.0
10
65.836799621582
20
65.1807022094727
40
0.0
41
0.0
42
0.0
10
66.0120010375977
20
65.3348007202148
40
0.0
41
0.0
42
0.0
10
66.1921997070312
20
65.3356018066406
40
0.0
41
0.0
42
0.0
10
66.227897644043
20
65.3449020385742
40
0.0
41
0.0
42
0.0
10
66.5131988525391
20
65.4763031005859
40
0.0
41
0.0
42
0.0
10
66.7797012329102
20
65.4682006835938
40
0.0
41
0.0
42
0.0
10
66.9832992553711
20
65.4329986572266
40
0.0
41
0.0
42
0.0
10
67.2690963745117
20
65.3904037475586
40
0.0
41
0.0
42
0.0
10
67.4848022460938
20
65.3356018066406
40
0.0
41
0.0
42
0.0
10
67.7707977294922
20
65.2733993530273
40
0.0
41
0.0
42
0.0
10
67.986701965332
20
65.1953964233398
40
0.0
41
0.0
42
0.0
10
68.2733001708984
20
65.1033020019531
40
0.0
41
0.0
42
0.0
10
68.4572982788086
20
65.0009994506836
40
0.0
41
0.0
42
0.0
10
68.5319976806641
20
65.0009994506836
40
0.0
41
0.0
42
0.0
10
68.5318984985352
20
65.0074996948242
40
0.0
41
0.0
42
0.0
10
68.3366012573242
20
65.1156997680664
40
0.0
41
0.0
42
0.0
10
68.0131988525391
20
65.219596862793
40
0.0
41
0.0
42
0.0
10
67.8391036987305
20
65.2823028564453
40
0.0
41
0.0
42
0.0
10
67.5150985717773
20
65.3527984619141
40
0.0
41
0.0
42
0.0
10
67.3407974243164
20
65.3972015380859
40
0.0
41
0.0
42
0.0
10
67.0166015625
20
65.4455032348633
40
0.0
41
0.0
42
0.0
10
66.8571014404297
20
65.4730987548828
40
0.0
41
0.0
42
0.0
10
66.5195999145508
20
65.4833984375
40
0.0
41
0.0
42
0.0
10
66.4845962524414
20
65.4833984375
40
0.0
41
0.0
42
0.0
10
66.1820983886719
20
65.3441009521484
40
0.0
41
0.0
42
0.0
10
65.9878997802734
20
65.3432998657227
40
0.0
41
0.0
42
0.0
10
65.793098449707
20
65.1717987060547
40
0.0
41
0.0
42
0.0
10
65.7199020385742
20
65.0152969360352
40
0.0
41
0.0
42
0.0
10
65.7199020385742
20
65.0009994506836
40
0.0
41
0.0
42
0.0
10
65.7526016235352
20
65.0009994506836
40
0.0
41
0.0
42
0.0
210
0.0
220
0.0
230
1.0
0
LWPOLYLINE
5
26
330
1C
100
AcDbEntity
67
0
8
0
62
256
6
ByLayer
370
-1
48
1.0
60
0
100
AcDbPolyline
90
274
70
1
38
0.0
39
0.0
10
68.7679977416992
20
75.9847030639648
40
0.0
41
0.0
42
0.0
10
68.9998016357422
20
75.5035018920898
40
0.0
41
0.0
42
0.0
10
69.002799987793
20
75.491096496582
40
0.0
41
0.0
42
0.0
10
69.0908966064453
20
75.4096984863281
40
0.0
41
0.0
42
0.0
10
69.2773971557617
20
75.2269973754883
40
0.0
41
0.0
42
0.0
10
69.4925003051758
20
75.1128005981445
40
0.0
41
0.0
42
0.0
10
69.5935974121094
20
75.0130004882812
40
0.0
41
0.0
42
0.0
10
69.6259994506836
20
74.9996032714844
40
0.0
41
0.0
42
0.0
10
69.7879028320312
20
74.9461975097656
40
0.0
41
0.0
42
0.0
10
69.9906997680664
20
74.8136978149414
40
0.0
41
0.0
42
0.0
10
70.3125991821289
20
74.6378021240234
40
0.0
41
0.0
42
0.0
10
70.4844970703125
20
74.595703125
40
0.0
41
0.0
42
0.0
10
70.6611022949219
20
74.560302734375
40
0.0
41
0.0
42
0.0
10
70.8108978271484
20
74.4980010986328
40
0.0
41
0.0
42
0.0
10
70.9941024780273
20
74.3439025878906
40
0.0
41
0.0
42
0.0
10
71.0393981933594
20
74.2991027832031
40
0.0
41
0.0
42
0.0
10
71.3218994140625
20
74.0007019042969
40
0.0
41
0.0
42
0.0
10
71.0817031860352
20
73.8304977416992
40
0.0
41
0.0
42
0.0
10
71.0641021728516
20
73.8004989624023
40
0.0
41
0.0
42
0.0
10
70.9982986450195
20
73.7053985595703
40
0.0
41
0.0
42
0.0
10
70.9095001220703
20
73.5075988769531
40
0.0
41
0.0
42
0.0
10
70.8981018066406
20
73.496696472168
40
0.0
41
0.0
42
0.0
10
70.6726989746094
20
73.1790008544922
40
0.0
41
0.0
42
0.0
10
70.4928970336914
20
73.0474014282227
40
0.0
41
0.0
42
0.0
10
70.4434967041016
20
73.0062026977539
40
0.0
41
0.0
42
0.0
10
70.2807006835938
20
72.7220001220703
40
0.0
41
0.0
42
0.0
10
70.1203002929688
20
72.565803527832
40
0.0
41
0.0
42
0.0
10
70.0813980102539
20
72.5102996826172
40
0.0
41
0.0
42
0.0
10
69.9991989135742
20
72.2807006835938
40
0.0
41
0.0
42
0.0
10
69.9512023925781
20
72.184196472168
40
0.0
41
0.0
42
0.0
10
69.8327026367188
20
72.0111999511719
40
0.0
41
0.0
42
0.0
10
69.7781982421875
20
71.7945022583008
40
0.0
41
0.0
42
0.0
10
69.7780990600586
20
71.7578964233398
40
0.0
41
0.0
42
0.0
10
69.7978973388672
20
71.4835968017578
40
0.0
41
0.0
42
0.0
10
69.8395004272461
20
71.3384017944336
40
0.0
41
0.0
42
0.0
10
69.9833984375
20
71.2864990234375
40
0.0
41
0.0
42
0.0
10
70.1952972412109
20
71.2913970947266
40
0.0
41
0.0
42
0.0
10
70.3188018798828
20
71.2273025512695
40
0.0
41
0.0
42
0.0
10
70.4860000610352
20
71.1223983764648
40
0.0
41
0.0
42
0.0
10
70.5161972045898
20
71.1222991943359
40
0.0
41
0.0
42
0.0
10
70.5932006835938
20
71.1508026123047
40
0.0
41
0.0
42
0.0
10
70.7236022949219
20
71.1917037963867
40
0.0
41
0.0
42
0.0
10
70.9809036254883
20
71.1681976318359
40
0.0
41
0.0
42
0.0
10
71.0185012817383
20
71.1681976318359
40
0.0
41
0.0
42
0.0
10
71.2997970581055
20
71.2060012817383
40
0.0
41
0.0
42
0.0
10
71.336799621582
20
71.2198028564453
40
0.0
41
0.0
42
0.0
10
71.5127029418945
20
71.3028030395508
40
0.0
41
0.0
42
0.0
10
71.8364028930664
20
71.3897018432617
40
0.0
41
0.0
42
0.0
10
71.9254989624023
20
71.446403503418
40
0.0
41
0.0
42
0.0
10
72.0118026733398
20
71.4924011230469
40
0.0
41
0.0
42
0.0
10
72.3355026245117
20
71.594596862793
40
0.0
41
0.0
42
0.0
10
72.5101013183594
20
71.7182998657227
40
0.0
41
0.0
42
0.0
10
72.8150024414062
20
71.6704025268555
40
0.0
41
0.0
42
0.0
10
72.8451995849609
20
71.6706008911133
40
0.0
41
0.0
42
0.0
10
72.9990005493164
20
71.8102035522461
40
0.0
41
0.0
42
0.0
10
73.095703125
20
71.4852981567383
40
0.0
41
0.0
42
0.0
10
73.1690979003906
20
71.1704025268555
40
0.0
41
0.0
42
0.0
10
73.1493988037109
20
71.0186004638672
40
0.0
41
0.0
42
0.0
10
73.149299621582
20
70.9820022583008
40
0.0
41
0.0
42
0.0
10
73.2072982788086
20
70.6834030151367
40
0.0
41
0.0
42
0.0
10
73.1886978149414
20
70.518798828125
40
0.0
41
0.0
42
0.0
10
73.1885986328125
20
70.4826965332031
40
0.0
41
0.0
42
0.0
10
73.2630996704102
20
70.2041015625
40
0.0
41
0.0
42
0.0
10
73.252799987793
20
70.019401550293
40
0.0
41
0.0
42
0.0
10
73.2527008056641
20
69.980598449707
40
0.0
41
0.0
42
0.0
10
73.2656021118164
20
69.7695999145508
40
0.0
41
0.0
42
0.0
10
73.3793029785156
20
69.4876022338867
40
0.0
41
0.0
42
0.0
10
73.4979019165039
20
69.1772994995117
40
0.0
41
0.0
42
0.0
10
73.684700012207
20
68.993896484375
40
0.0
41
0.0
42
0.0
10
73.8160018920898
20
68.8212966918945
40
0.0
41
0.0
42
0.0
10
73.9832000732422
20
68.7680969238281
40
0.0
41
0.0
42
0.0
10
74.0151977539062
20
68.7680969238281
40
0.0
41
0.0
42
0.0
10
74.4962997436523
20
68.9998016357422
40
0.0
41
0.0
42
0.0
10
74.5087966918945
20
69.0028991699219
40
0.0
41
0.0
42
0.0
10
74.5901031494141
20
69.0910034179688
40
0.0
41
0.0
42
0.0
10
74.7726974487305
20
69.2774963378906
40
0.0
41
0.0
42
0.0
10
74.8869018554688
20
69.4925003051758
40
0.0
41
0.0
42
0.0
10
74.986701965332
20
69.5936965942383
40
0.0
41
0.0
42
0.0
10
75.0001983642578
20
69.6259994506836
40
0.0
41
0.0
42
0.0
10
75.0534973144531
20
69.7879028320312
40
0.0
41
0.0
42
0.0
10
75.1845016479492
20
69.9884033203125
40
0.0
41
0.0
42
0.0
10
75.2272033691406
20
70.16259765625
40
0.0
41
0.0
42
0.0
10
75.4047012329102
20
70.4871978759766
40
0.0
41
0.0
42
0.0
10
75.4394989013672
20
70.6611022949219
40
0.0
41
0.0
42
0.0
10
75.5018005371094
20
70.8108978271484
40
0.0
41
0.0
42
0.0
10
75.6557998657227
20
70.9941024780273
40
0.0
41
0.0
42
0.0
10
75.7006988525391
20
71.0394973754883
40
0.0
41
0.0
42
0.0
10
75.9990005493164
20
71.3216018676758
40
0.0
41
0.0
42
0.0
10
76.0474014282227
20
71.2406997680664
40
0.0
41
0.0
42
0.0
10
76.1696014404297
20
71.081298828125
40
0.0
41
0.0
42
0.0
10
76.2727966308594
20
71.0098037719727
40
0.0
41
0.0
42
0.0
10
76.2932968139648
20
70.9987030029297
40
0.0
41
0.0
42
0.0
10
76.4903030395508
20
70.9103012084961
40
0.0
41
0.0
42
0.0
10
76.7658004760742
20
70.7191009521484
40
0.0
41
0.0
42
0.0
10
76.9947967529297
20
70.4420013427734
40
0.0
41
0.0
42
0.0
10
77.293098449707
20
70.1959991455078
40
0.0
41
0.0
42
0.0
10
77.4888000488281
20
70.0817031860352
40
0.0
41
0.0
42
0.0
10
77.7191009521484
20
69.9991989135742
40
0.0
41
0.0
42
0.0
10
77.8155975341797
20
69.9511032104492
40
0.0
41
0.0
42
0.0
10
77.9887008666992
20
69.8326034545898
40
0.0
41
0.0
42
0.0
10
78.2052993774414
20
69.7781982421875
40
0.0
41
0.0
42
0.0
10
78.2418975830078
20
69.7780990600586
40
0.0
41
0.0
42
0.0
10
78.5110015869141
20
69.7976989746094
40
0.0
41
0.0
42
0.0
10
78.7129974365234
20
69.9888000488281
40
0.0
41
0.0
42
0.0
10
78.7082977294922
20
70.1953964233398
40
0.0
41
0.0
42
0.0
10
78.7723999023438
20
70.3189010620117
40
0.0
41
0.0
42
0.0
10
78.8775024414062
20
70.4860000610352
40
0.0
41
0.0
42
0.0
10
78.8774032592773
20
70.5161972045898
40
0.0
41
0.0
42
0.0
10
78.8488998413086
20
70.5931015014648
40
0.0
41
0.0
42
0.0
10
78.8079986572266
20
70.7236022949219
40
0.0
41
0.0
42
0.0
10
78.8317031860352
20
70.9809036254883
40
0.0
41
0.0
42
0.0
10
78.8314971923828
20
71.0151977539062
40
0.0
41
0.0
42
0.0
10
78.7363967895508
20
71.2174987792969
40
0.0
41
0.0
42
0.0
10
78.6960983276367
20
71.5158004760742
40
0.0
41
0.0
42
0.0
10
78.6100006103516
20
71.8364028930664
40
0.0
41
0.0
42
0.0
10
78.5532989501953
20
71.9253997802734
40
0.0
41
0.0
42
0.0
10
78.5073013305664
20
72.0117034912109
40
0.0
41
0.0
42
0.0
10
78.4050979614258
20
72.3355026245117
40
0.0
41
0.0
42
0.0
10
78.283203125
20
72.5075988769531
40
0.0
41
0.0
42
0.0
10
78.3256988525391
20
72.7871017456055
40
0.0
41
0.0
42
0.0
10
78.3255996704102
20
72.8179016113281
40
0.0
41
0.0
42
0.0
10
78.1779022216797
20
72.9954986572266
40
0.0
41
0.0
42
0.0
10
78.5146026611328
20
73.095703125
40
0.0
41
0.0
42
0.0
10
78.8294982910156
20
73.1689987182617
40
0.0
41
0.0
42
0.0
10
78.9813003540039
20
73.1493988037109
40
0.0
41
0.0
42
0.0
10
79.0178985595703
20
73.1493988037109
40
0.0
41
0.0
42
0.0
10
79.3164978027344
20
73.2072982788086
40
0.0
41
0.0
42
0.0
10
79.4811019897461
20
73.1886978149414
40
0.0
41
0.0
42
0.0
10
79.5171966552734
20
73.1885986328125
40
0.0
41
0.0
42
0.0
10
79.7957992553711
20
73.2630996704102
40
0.0
41
0.0
42
0.0
10
79.9804992675781
20
73.252799987793
40
0.0
41
0.0
42
0.0
10
80.0193023681641
20
73.2527008056641
40
0.0
41
0.0
42
0.0
10
80.2303009033203
20
73.2656021118164
40
0.0
41
0.0
42
0.0
10
80.5122985839844
20
73.3793029785156
40
0.0
41
0.0
42
0.0
10
80.8225021362305
20
73.4979019165039
40
0.0
41
0.0
42
0.0
10
81.0039978027344
20
73.6827011108398
40
0.0
41
0.0
42
0.0
10
81.2317962646484
20
73.9869003295898
40
0.0
41
0.0
42
0.0
10
81.2315979003906
20
74.0150985717773
40
0.0
41
0.0
42
0.0
10
81.0000991821289
20
74.4962997436523
40
0.0
41
0.0
42
0.0
10
80.9969024658203
20
74.5086975097656
40
0.0
41
0.0
42
0.0
10
80.9087982177734
20
74.5901031494141
40
0.0
41
0.0
42
0.0
10
80.7223968505859
20
74.7726974487305
40
0.0
41
0.0
42
0.0
10
80.5074005126953
20
74.8869018554688
40
0.0
41
0.0
42
0.0
10
80.4060974121094
20
74.986701965332
40
0.0
41
0.0
42
0.0
10
80.3738021850586
20
75.0001983642578
40
0.0
41
0.0
42
0.0
10
80.2118988037109
20
75.0533981323242
40
0.0
41
0.0
42
0.0
10
80.0114974975586
20
75.1845016479492
40
0.0
41
0.0
42
0.0
10
79.8373031616211
20
75.2270965576172
40
0.0
41
0.0
42
0.0
10
79.5127029418945
20
75.4047012329102
40
0.0
41
0.0
42
0.0
10
79.3387985229492
20
75.4393997192383
40
0.0
41
0.0
42
0.0
10
79.1889038085938
20
75.5017013549805
40
0.0
41
0.0
42
0.0
10
79.0056991577148
20
75.6557998657227
40
0.0
41
0.0
42
0.0
10
78.9602966308594
20
75.7005996704102
40
0.0
41
0.0
42
0.0
10
78.6781997680664
20
75.9990005493164
40
0.0
41
0.0
42
0.0
10
78.7590026855469
20
76.0474014282227
40
0.0
41
0.0
42
0.0
10
78.9185028076172
20
76.1696014404297
40
0.0
41
0.0
42
0.0
10
78.9898986816406
20
76.2729034423828
40
0.0
41
0.0
42
0.0
10
79.0010986328125
20
76.2934036254883
40
0.0
41
0.0
42
0.0
10
79.0894012451172
20
76.4903030395508
40
0.0
41
0.0
42
0.0
10
79.2807006835938
20
76.7658996582031
40
0.0
41
0.0
42
0.0
10
79.5562973022461
20
76.9936981201172
40
0.0
41
0.0
42
0.0
10
79.7188034057617
20
77.2774963378906
40
0.0
41
0.0
42
0.0
10
79.9188003540039
20
77.491096496582
40
0.0
41
0.0
42
0.0
10
80.0005035400391
20
77.7191009521484
40
0.0
41
0.0
42
0.0
10
80.0485992431641
20
77.8155975341797
40
0.0
41
0.0
42
0.0
10
80.1670989990234
20
77.9887008666992
40
0.0
41
0.0
42
0.0
10
80.2217025756836
20
78.2052993774414
40
0.0
41
0.0
42
0.0
10
80.2216033935547
20
78.2418975830078
40
0.0
41
0.0
42
0.0
10
80.2016983032227
20
78.5162963867188
40
0.0
41
0.0
42
0.0
10
80.1602020263672
20
78.6613006591797
40
0.0
41
0.0
42
0.0
10
80.0165023803711
20
78.7132034301758
40
0.0
41
0.0
42
0.0
10
79.8043975830078
20
78.7082977294922
40
0.0
41
0.0
42
0.0
10
79.6809005737305
20
78.7723999023438
40
0.0
41
0.0
42
0.0
10
79.5139007568359
20
78.8775024414062
40
0.0
41
0.0
42
0.0
10
79.4837036132812
20
78.8775024414062
40
0.0
41
0.0
42
0.0
10
79.4066009521484
20
78.8488998413086
40
0.0
41
0.0
42
0.0
10
79.2761993408203
20
78.8079986572266
40
0.0
41
0.0
42
0.0
10
79.0189971923828
20
78.8317031860352
40
0.0
41
0.0
42
0.0
10
78.9847030639648
20
78.8315963745117
40
0.0
41
0.0
42
0.0
10
78.7824020385742
20
78.7363967895508
40
0.0
41
0.0
42
0.0
10
78.4841003417969
20
78.6960983276367
40
0.0
41
0.0
42
0.0
10
78.1634979248047
20
78.6100997924805
40
0.0
41
0.0
42
0.0
10
78.0744018554688
20
78.5533981323242
40
0.0
41
0.0
42
0.0
10
77.9880981445312
20
78.5073013305664
40
0.0
41
0.0
42
0.0
10
77.6643981933594
20
78.4051971435547
40
0.0
41
0.0
42
0.0
10
77.492301940918
20
78.283203125
40
0.0
41
0.0
42
0.0
10
77.2126998901367
20
78.3256988525391
40
0.0
41
0.0
42
0.0
10
77.1819000244141
20
78.3255996704102
40
0.0
41
0.0
42
0.0
10
77.0043029785156
20
78.1776962280273
40
0.0
41
0.0
42
0.0
10
76.9039993286133
20
78.5146026611328
40
0.0
41
0.0
42
0.0
10
76.8307037353516
20
78.8294982910156
40
0.0
41
0.0
42
0.0
10
76.8506011962891
20
78.9824981689453
40
0.0
41
0.0
42
0.0
10
76.8704986572266
20
79.1560974121094
40
0.0
41
0.0
42
0.0
10
76.8703994750977
20
79.1940002441406
40
0.0
41
0.0
42
0.0
10
76.86669921875
20
79.2319030761719
40
0.0
41
0.0
42
0.0
10
76.8127975463867
20
79.5094985961914
40
0.0
41
0.0
42
0.0
10
76.8234024047852
20
79.6955032348633
40
0.0
41
0.0
42
0.0
10
76.8233032226562
20
79.7322006225586
40
0.0
41
0.0
42
0.0
10
76.747200012207
20
80.0166015625
40
0.0
41
0.0
42
0.0
10
76.7341003417969
20
80.2303009033203
40
0.0
41
0.0
42
0.0
10
76.6203994750977
20
80.5121994018555
40
0.0
41
0.0
42
0.0
10
76.5018997192383
20
80.8224029541016
40
0.0
41
0.0
42
0.0
10
76.3150024414062
20
81.0058975219727
40
0.0
41
0.0
42
0.0
10
76.1837005615234
20
81.1783981323242
40
0.0
41
0.0
42
0.0
10
76.0167007446289
20
81.2317962646484
40
0.0
41
0.0
42
0.0
10
75.9848022460938
20
81.2316970825195
40
0.0
41
0.0
42
0.0
10
75.5035018920898
20
81.0000991821289
40
0.0
41
0.0
42
0.0
10
75.491096496582
20
80.9970016479492
40
0.0
41
0.0
42
0.0
10
75.409797668457
20
80.9087982177734
40
0.0
41
0.0
42
0.0
10
75.2270965576172
20
80.7223968505859
40
0.0
41
0.0
42
0.0
10
75.1128997802734
20
80.5074005126953
40
0.0
41
0.0
42
0.0
10
75.0130004882812
20
80.4061965942383
40
0.0
41
0.0
42
0.0
10
74.9996032714844
20
80.3738021850586
40
0.0
41
0.0
42
0.0
10
74.9462966918945
20
80.2118988037109
40
0.0
41
0.0
42
0.0
10
74.8137969970703
20
80.0092010498047
40
0.0
41
0.0
42
0.0
10
74.6378021240234
20
79.6873016357422
40
0.0
41
0.0
42
0.0
10
74.595703125
20
79.5154037475586
40
0.0
41
0.0
42
0.0
10
74.5604019165039
20
79.3387985229492
40
0.0
41
0.0
42
0.0
10
74.4981002807617
20
79.1889038085938
40
0.0
41
0.0
42
0.0
10
74.3440017700195
20
79.0057983398438
40
0.0
41
0.0
42
0.0
10
74.299201965332
20
78.9602966308594
40
0.0
41
0.0
42
0.0
10
74.000602722168
20
78.6776962280273
40
0.0
41
0.0
42
0.0
10
73.7972030639648
20
78.9378967285156
40
0.0
41
0.0
42
0.0
10
73.7053985595703
20
79.0015029907227
40
0.0
41
0.0
42
0.0
10
73.5074996948242
20
79.090202331543
40
0.0
41
0.0
42
0.0
10
73.496696472168
20
79.1016006469727
40
0.0
41
0.0
42
0.0
10
73.1790008544922
20
79.3271026611328
40
0.0
41
0.0
42
0.0
10
73.0473022460938
20
79.5070037841797
40
0.0
41
0.0
42
0.0
10
73.0062026977539
20
79.5561981201172
40
0.0
41
0.0
42
0.0
10
72.7219009399414
20
79.7190017700195
40
0.0
41
0.0
42
0.0
10
72.565803527832
20
79.8796005249023
40
0.0
41
0.0
42
0.0
10
72.5102005004883
20
79.9182968139648
40
0.0
41
0.0
42
0.0
10
72.2807006835938
20
80.0005035400391
40
0.0
41
0.0
42
0.0
10
72.1840972900391
20
80.0485000610352
40
0.0
41
0.0
42
0.0
10
72.0111999511719
20
80.1670989990234
40
0.0
41
0.0
42
0.0
10
71.7945022583008
20
80.2217025756836
40
0.0
41
0.0
42
0.0
10
71.7578964233398
20
80.2216033935547
40
0.0
41
0.0
42
0.0
10
71.488899230957
20
80.2021026611328
40
0.0
41
0.0
42
0.0
10
71.2866973876953
20
80.011100769043
40
0.0
41
0.0
42
0.0
10
71.2913970947266
20
79.8044967651367
40
0.0
41
0.0
42
0.0
10
71.2273025512695
20
79.6809005737305
40
0.0
41
0.0
42
0.0
10
71.1223983764648
20
79.5139007568359
40
0.0
41
0.0
42
0.0
10
71.122200012207
20
79.4837036132812
40
0.0
41
0.0
42
0.0
10
71.1508026123047
20
79.4066009521484
40
0.0
41
0.0
42
0.0
10
71.1917037963867
20
79.2761993408203
40
0.0
41
0.0
42
0.0
10
71.1681976318359
20
79.0189971923828
40
0.0
41
0.0
42
0.0
10
71.168098449707
20
78.9813995361328
40
0.0
41
0.0
42
0.0
10
71.2060012817383
20
78.7001037597656
40
0.0
41
0.0
42
0.0
10
71.2198028564453
20
78.6631011962891
40
0.0
41
0.0
42
0.0
10
71.3028030395508
20
78.4871978759766
40
0.0
41
0.0
42
0.0
10
71.3896026611328
20
78.1634979248047
40
0.0
41
0.0
42
0.0
10
71.4462966918945
20
78.0743026733398
40
0.0
41
0.0
42
0.0
10
71.4924011230469
20
77.9880981445312
40
0.0
41
0.0
42
0.0
10
71.5944976806641
20
77.6643981933594
40
0.0
41
0.0
42
0.0
10
71.7164993286133
20
77.492301940918
40
0.0
41
0.0
42
0.0
10
71.674201965332
20
77.2126998901367
40
0.0
41
0.0
42
0.0
10
71.6741027832031
20
77.1818008422852
40
0.0
41
0.0
42
0.0
10
71.8219985961914
20
77.0043029785156
40
0.0
41
0.0
42
0.0
10
71.4852981567383
20
76.9039993286133
40
0.0
41
0.0
42
0.0
10
71.1704025268555
20
76.8305969238281
40
0.0
41
0.0
42
0.0
10
71.0174026489258
20
76.8506011962891
40
0.0
41
0.0
42
0.0
10
70.8438034057617
20
76.8704986572266
40
0.0
41
0.0
42
0.0
10
70.8059005737305
20
76.8703994750977
40
0.0
41
0.0
42
0.0
10
70.7679977416992
20
76.8667984008789
40
0.0
41
0.0
42
0.0
10
70.4904022216797
20
76.8127975463867
40
0.0
41
0.0
42
0.0
10
70.3043975830078
20
76.8234024047852
40
0.0
41
0.0
42
0.0
10
70.2677001953125
20
76.8233032226562
40
0.0
41
0.0
42
0.0
10
69.9832992553711
20
76.747200012207
40
0.0
41
0.0
42
0.0
10
69.7695999145508
20
76.7341003417969
40
0.0
41
0.0
42
0.0
10
69.4876022338867
20
76.6204986572266
40
0.0
41
0.0
42
0.0
10
69.1772994995117
20
76.5019989013672
40
0.0
41
0.0
42
0.0
10
68.9959030151367
20
76.3171005249023
40
0.0
41
0.0
42
0.0
10
68.7680969238281
20
76.0130004882812
40
0.0
41
0.0
42
0.0
10
68.7679977416992
20
75.9847030639648
40
0.0
41
0.0
42
0.0
210
0.0
220
0.0
230
1.0
0
LWPOLYLINE
5
27
330
1C
100
AcDbEntity
67
0
8
0
62
256
6
ByLayer
370
-1
48
1.0
60
0
100
AcDbPolyline
90
280
70
1
38
0.0
39
0.0
10
69.0039978027344
20
76.2231979370117
40
0.0
41
0.0
42
0.0
10
69.2739028930664
20
76.4979019165039
40
0.0
41
0.0
42
0.0
10
69.5122985839844
20
76.588996887207
40
0.0
41
0.0
42
0.0
10
69.8403015136719
20
76.7210006713867
40
0.0
41
0.0
42
0.0
10
70.0166015625
20
76.7319030761719
40
0.0
41
0.0
42
0.0
10
70.3358001708984
20
76.8172988891602
40
0.0
41
0.0
42
0.0
10
70.4804992675781
20
76.8093032836914
40
0.0
41
0.0
42
0.0
10
70.5178985595703
20
76.8093032836914
40
0.0
41
0.0
42
0.0
10
70.8021011352539
20
76.8644027709961
40
0.0
41
0.0
42
0.0
10
70.9824981689453
20
76.8440017700195
40
0.0
41
0.0
42
0.0
10
71.1962966918945
20
76.8162002563477
40
0.0
41
0.0
42
0.0
10
71.2324981689453
20
76.8161010742188
40
0.0
41
0.0
42
0.0
10
71.5146026611328
20
76.8816986083984
40
0.0
41
0.0
42
0.0
10
71.8998031616211
20
76.9964981079102
40
0.0
41
0.0
42
0.0
10
71.8998031616211
20
77.0180969238281
40
0.0
41
0.0
42
0.0
10
71.7155990600586
20
77.239501953125
40
0.0
41
0.0
42
0.0
10
71.7525024414062
20
77.4814987182617
40
0.0
41
0.0
42
0.0
10
71.7524032592773
20
77.5131988525391
40
0.0
41
0.0
42
0.0
10
71.6018981933594
20
77.7254028320312
40
0.0
41
0.0
42
0.0
10
71.5110015869141
20
78.0117034912109
40
0.0
41
0.0
42
0.0
10
71.4564971923828
20
78.1122970581055
40
0.0
41
0.0
42
0.0
10
71.383903503418
20
78.2264022827148
40
0.0
41
0.0
42
0.0
10
71.3070983886719
20
78.5127029418945
40
0.0
41
0.0
42
0.0
10
71.2186965942383
20
78.7003021240234
40
0.0
41
0.0
42
0.0
10
71.1776962280273
20
79.0034027099609
40
0.0
41
0.0
42
0.0
10
71.2057037353516
20
79.3059005737305
40
0.0
41
0.0
42
0.0
10
71.2055969238281
20
79.3416976928711
40
0.0
41
0.0
42
0.0
10
71.1723022460938
20
79.447998046875
40
0.0
41
0.0
42
0.0
10
71.1540985107422
20
79.497200012207
40
0.0
41
0.0
42
0.0
10
71.2811965942383
20
79.6995010375977
40
0.0
41
0.0
42
0.0
10
71.3542022705078
20
79.8403015136719
40
0.0
41
0.0
42
0.0
10
71.3514022827148
20
79.9897994995117
40
0.0
41
0.0
42
0.0
10
71.5110015869141
20
80.1407012939453
40
0.0
41
0.0
42
0.0
10
71.8259963989258
20
80.1634979248047
40
0.0
41
0.0
42
0.0
10
71.9887008666992
20
80.1224975585938
40
0.0
41
0.0
42
0.0
10
72.1199035644531
20
80.032600402832
40
0.0
41
0.0
42
0.0
10
72.1869964599609
20
79.9991989135742
40
0.0
41
0.0
42
0.0
10
72.4896011352539
20
79.8907012939453
40
0.0
41
0.0
42
0.0
10
72.5419998168945
20
79.8543014526367
40
0.0
41
0.0
42
0.0
10
72.6679000854492
20
79.7248992919922
40
0.0
41
0.0
42
0.0
10
72.9935989379883
20
79.5384979248047
40
0.0
41
0.0
42
0.0
10
73.0316009521484
20
79.4928970336914
40
0.0
41
0.0
42
0.0
10
73.1518020629883
20
79.3286972045898
40
0.0
41
0.0
42
0.0
10
73.1884994506836
20
79.2898025512695
40
0.0
41
0.0
42
0.0
10
73.4821014404297
20
79.0815963745117
40
0.0
41
0.0
42
0.0
10
73.492301940918
20
79.07080078125
40
0.0
41
0.0
42
0.0
10
73.6541976928711
20
78.9981994628906
40
0.0
41
0.0
42
0.0
10
73.738899230957
20
78.9395980834961
40
0.0
41
0.0
42
0.0
10
73.9901962280273
20
78.6183013916016
40
0.0
41
0.0
42
0.0
10
74.0115966796875
20
78.6183013916016
40
0.0
41
0.0
42
0.0
10
74.3794021606445
20
78.9663009643555
40
0.0
41
0.0
42
0.0
10
74.4068984985352
20
78.9941024780273
40
0.0
41
0.0
42
0.0
10
74.5018005371094
20
79.1069030761719
40
0.0
41
0.0
42
0.0
10
74.5699996948242
20
79.2711029052734
40
0.0
41
0.0
42
0.0
10
74.6127014160156
20
79.4844970703125
40
0.0
41
0.0
42
0.0
10
74.6660995483398
20
79.7025985717773
40
0.0
41
0.0
42
0.0
10
74.823600769043
20
79.9906997680664
40
0.0
41
0.0
42
0.0
10
74.9425964355469
20
80.1728973388672
40
0.0
41
0.0
42
0.0
10
74.9524002075195
20
80.1960983276367
40
0.0
41
0.0
42
0.0
10
75.0002975463867
20
80.3411026000977
40
0.0
41
0.0
42
0.0
10
75.0146026611328
20
80.3755035400391
40
0.0
41
0.0
42
0.0
10
75.1298980712891
20
80.4925003051758
40
0.0
41
0.0
42
0.0
10
75.222900390625
20
80.6673965454102
40
0.0
41
0.0
42
0.0
10
75.4350967407227
20
80.8841018676758
40
0.0
41
0.0
42
0.0
10
75.5092010498047
20
80.9642028808594
40
0.0
41
0.0
42
0.0
10
75.6169967651367
20
80.9859008789062
40
0.0
41
0.0
42
0.0
10
75.6549987792969
20
80.999397277832
40
0.0
41
0.0
42
0.0
10
76.0025024414062
20
81.1666030883789
40
0.0
41
0.0
42
0.0
10
76.1229019165039
20
81.1281967163086
40
0.0
41
0.0
42
0.0
10
76.2251968383789
20
80.9937973022461
40
0.0
41
0.0
42
0.0
10
76.4979019165039
20
80.7258987426758
40
0.0
41
0.0
42
0.0
10
76.5888977050781
20
80.4876022338867
40
0.0
41
0.0
42
0.0
10
76.7210006713867
20
80.1595993041992
40
0.0
41
0.0
42
0.0
10
76.7319030761719
20
79.9832992553711
40
0.0
41
0.0
42
0.0
10
76.8172988891602
20
79.6641006469727
40
0.0
41
0.0
42
0.0
10
76.8093032836914
20
79.519401550293
40
0.0
41
0.0
42
0.0
10
76.809196472168
20
79.4820022583008
40
0.0
41
0.0
42
0.0
10
76.8644027709961
20
79.1977996826172
40
0.0
41
0.0
42
0.0
10
76.8440017700195
20
79.0174026489258
40
0.0
41
0.0
42
0.0
10
76.8162002563477
20
78.803596496582
40
0.0
41
0.0
42
0.0
10
76.8161010742188
20
78.7674026489258
40
0.0
41
0.0
42
0.0
10
76.8816986083984
20
78.4852981567383
40
0.0
41
0.0
42
0.0
10
76.9964981079102
20
78.0999984741211
40
0.0
41
0.0
42
0.0
10
77.0182037353516
20
78.0999984741211
40
0.0
41
0.0
42
0.0
10
77.239501953125
20
78.2841033935547
40
0.0
41
0.0
42
0.0
10
77.4814987182617
20
78.2473983764648
40
0.0
41
0.0
42
0.0
10
77.513298034668
20
78.2473983764648
40
0.0
41
0.0
42
0.0
10
77.7255020141602
20
78.3977966308594
40
0.0
41
0.0
42
0.0
10
78.0117034912109
20
78.4888000488281
40
0.0
41
0.0
42
0.0
10
78.1122970581055
20
78.5432968139648
40
0.0
41
0.0
42
0.0
10
78.2264022827148
20
78.6157989501953
40
0.0
41
0.0
42
0.0
10
78.5158004760742
20
78.693603515625
40
0.0
41
0.0
42
0.0
10
78.8012008666992
20
78.7321014404297
40
0.0
41
0.0
42
0.0
10
78.8380966186523
20
78.7405014038086
40
0.0
41
0.0
42
0.0
10
79.0096969604492
20
78.8215026855469
40
0.0
41
0.0
42
0.0
10
79.3059005737305
20
78.7941970825195
40
0.0
41
0.0
42
0.0
10
79.3416976928711
20
78.7940979003906
40
0.0
41
0.0
42
0.0
10
79.447998046875
20
78.8274002075195
40
0.0
41
0.0
42
0.0
10
79.497200012207
20
78.8455963134766
40
0.0
41
0.0
42
0.0
10
79.6995010375977
20
78.7184982299805
40
0.0
41
0.0
42
0.0
10
79.8403015136719
20
78.6455001831055
40
0.0
41
0.0
42
0.0
10
79.9862976074219
20
78.6483993530273
40
0.0
41
0.0
42
0.0
10
80.106201171875
20
78.6051025390625
40
0.0
41
0.0
42
0.0
10
80.1410980224609
20
78.4835968017578
40
0.0
41
0.0
42
0.0
10
80.1634979248047
20
78.1737976074219
40
0.0
41
0.0
42
0.0
10
80.1225967407227
20
78.0111999511719
40
0.0
41
0.0
42
0.0
10
80.032600402832
20
77.8798980712891
40
0.0
41
0.0
42
0.0
10
79.9991989135742
20
77.8127975463867
40
0.0
41
0.0
42
0.0
10
79.8902969360352
20
77.5087966918945
40
0.0
41
0.0
42
0.0
10
79.7251968383789
20
77.3323974609375
40
0.0
41
0.0
42
0.0
10
79.5383987426758
20
77.0062026977539
40
0.0
41
0.0
42
0.0
10
79.2845001220703
20
76.7963027954102
40
0.0
41
0.0
42
0.0
10
79.2391967773438
20
76.7509002685547
40
0.0
41
0.0
42
0.0
10
79.0718002319336
20
76.5095977783203
40
0.0
41
0.0
42
0.0
10
78.9988021850586
20
76.3466033935547
40
0.0
41
0.0
42
0.0
10
78.9830017089844
20
76.3177032470703
40
0.0
41
0.0
42
0.0
10
78.9154968261719
20
76.2202987670898
40
0.0
41
0.0
42
0.0
10
78.711799621582
20
76.0640029907227
40
0.0
41
0.0
42
0.0
10
78.6183013916016
20
76.0080032348633
40
0.0
41
0.0
42
0.0
10
78.6182022094727
20
75.9882965087891
40
0.0
41
0.0
42
0.0
10
78.9662017822266
20
75.6203994750977
40
0.0
41
0.0
42
0.0
10
78.9941024780273
20
75.5927963256836
40
0.0
41
0.0
42
0.0
10
79.1067962646484
20
75.4980010986328
40
0.0
41
0.0
42
0.0
10
79.2711029052734
20
75.4297027587891
40
0.0
41
0.0
42
0.0
10
79.4871978759766
20
75.3865966796875
40
0.0
41
0.0
42
0.0
10
79.7725982666016
20
75.2304992675781
40
0.0
41
0.0
42
0.0
10
79.9884033203125
20
75.1775970458984
40
0.0
41
0.0
42
0.0
10
80.1727981567383
20
75.0570983886719
40
0.0
41
0.0
42
0.0
10
80.1959991455078
20
75.0473022460938
40
0.0
41
0.0
42
0.0
10
80.3411026000977
20
74.9996032714844
40
0.0
41
0.0
42
0.0
10
80.3755035400391
20
74.9850997924805
40
0.0
41
0.0
42
0.0
10
80.4925003051758
20
74.8697967529297
40
0.0
41
0.0
42
0.0
10
80.6673965454102
20
74.7769012451172
40
0.0
41
0.0
42
0.0
10
80.8841018676758
20
74.5645980834961
40
0.0
41
0.0
42
0.0
10
80.9642028808594
20
74.4906997680664
40
0.0
41
0.0
42
0.0
10
80.9859008789062
20
74.3827972412109
40
0.0
41
0.0
42
0.0
10
80.9992980957031
20
74.3448028564453
40
0.0
41
0.0
42
0.0
10
81.1644973754883
20
74.0018997192383
40
0.0
41
0.0
42
0.0
10
80.9959030151367
20
73.7766036987305
40
0.0
41
0.0
42
0.0
10
80.7259979248047
20
73.5018997192383
40
0.0
41
0.0
42
0.0
10
80.4876022338867
20
73.4107971191406
40
0.0
41
0.0
42
0.0
10
80.1595993041992
20
73.2787017822266
40
0.0
41
0.0
42
0.0
10
79.9991989135742
20
73.268798828125
40
0.0
41
0.0
42
0.0
10
79.8443984985352
20
73.2776031494141
40
0.0
41
0.0
42
0.0
10
79.8077011108398
20
73.2774963378906
40
0.0
41
0.0
42
0.0
10
79.4934005737305
20
73.1934967041016
40
0.0
41
0.0
42
0.0
10
79.3436965942383
20
73.2106018066406
40
0.0
41
0.0
42
0.0
10
79.2668991088867
20
73.2110977172852
40
0.0
41
0.0
42
0.0
10
78.9965972900391
20
73.1584014892578
40
0.0
41
0.0
42
0.0
10
78.803596496582
20
73.1837005615234
40
0.0
41
0.0
42
0.0
10
78.7674026489258
20
73.1836013793945
40
0.0
41
0.0
42
0.0
10
78.4852981567383
20
73.1179962158203
40
0.0
41
0.0
42
0.0
10
78.0998992919922
20
73.003303527832
40
0.0
41
0.0
42
0.0
10
78.0998992919922
20
72.9815979003906
40
0.0
41
0.0
42
0.0
10
78.2841033935547
20
72.7602996826172
40
0.0
41
0.0
42
0.0
10
78.2473983764648
20
72.5184020996094
40
0.0
41
0.0
42
0.0
10
78.2472991943359
20
72.4866027832031
40
0.0
41
0.0
42
0.0
10
78.3976974487305
20
72.2743988037109
40
0.0
41
0.0
42
0.0
10
78.4887008666992
20
71.9881973266602
40
0.0
41
0.0
42
0.0
10
78.5431976318359
20
71.8874969482422
40
0.0
41
0.0
42
0.0
10
78.6157989501953
20
71.7734985351562
40
0.0
41
0.0
42
0.0
10
78.693603515625
20
71.4841003417969
40
0.0
41
0.0
42
0.0
10
78.7321014404297
20
71.1986999511719
40
0.0
41
0.0
42
0.0
10
78.7405014038086
20
71.1617965698242
40
0.0
41
0.0
42
0.0
10
78.8215026855469
20
70.9901962280273
40
0.0
41
0.0
42
0.0
10
78.7941970825195
20
70.6940002441406
40
0.0
41
0.0
42
0.0
10
78.7940979003906
20
70.658203125
40
0.0
41
0.0
42
0.0
10
78.8274002075195
20
70.5518035888672
40
0.0
41
0.0
42
0.0
10
78.845703125
20
70.502799987793
40
0.0
41
0.0
42
0.0
10
78.7185974121094
20
70.3003997802734
40
0.0
41
0.0
42
0.0
10
78.6455001831055
20
70.1595001220703
40
0.0
41
0.0
42
0.0
10
78.6483993530273
20
70.0101013183594
40
0.0
41
0.0
42
0.0
10
78.4889984130859
20
69.859001159668
40
0.0
41
0.0
42
0.0
10
78.1737976074219
20
69.8361968994141
40
0.0
41
0.0
42
0.0
10
78.011100769043
20
69.8770980834961
40
0.0
41
0.0
42
0.0
10
77.8798980712891
20
69.9671020507812
40
0.0
41
0.0
42
0.0
10
77.8127975463867
20
70.000602722168
40
0.0
41
0.0
42
0.0
10
77.5110015869141
20
70.1087036132812
40
0.0
41
0.0
42
0.0
10
77.2484970092773
20
70.2618026733398
40
0.0
41
0.0
42
0.0
10
77.004997253418
20
70.4626998901367
40
0.0
41
0.0
42
0.0
10
76.7963027954102
20
70.715202331543
40
0.0
41
0.0
42
0.0
10
76.7508010864258
20
70.760498046875
40
0.0
41
0.0
42
0.0
10
76.5095977783203
20
70.9280014038086
40
0.0
41
0.0
42
0.0
10
76.3466033935547
20
71.0010986328125
40
0.0
41
0.0
42
0.0
10
76.3177032470703
20
71.0167007446289
40
0.0
41
0.0
42
0.0
10
76.2202987670898
20
71.0841979980469
40
0.0
41
0.0
42
0.0
10
76.0640029907227
20
71.2880020141602
40
0.0
41
0.0
42
0.0
10
76.0080032348633
20
71.3815994262695
40
0.0
41
0.0
42
0.0
10
75.9882965087891
20
71.3815002441406
40
0.0
41
0.0
42
0.0
10
75.6203994750977
20
71.0335006713867
40
0.0
41
0.0
42
0.0
10
75.592903137207
20
71.0057983398438
40
0.0
41
0.0
42
0.0
10
75.4980010986328
20
70.8928985595703
40
0.0
41
0.0
42
0.0
10
75.429801940918
20
70.7287979125977
40
0.0
41
0.0
42
0.0
10
75.3865966796875
20
70.5127029418945
40
0.0
41
0.0
42
0.0
10
75.2304992675781
20
70.2273025512695
40
0.0
41
0.0
42
0.0
10
75.1775970458984
20
70.0114974975586
40
0.0
41
0.0
42
0.0
10
75.0570983886719
20
69.8268966674805
40
0.0
41
0.0
42
0.0
10
75.0473022460938
20
69.8038024902344
40
0.0
41
0.0
42
0.0
10
74.9996032714844
20
69.6586990356445
40
0.0
41
0.0
42
0.0
10
74.9850997924805
20
69.6242980957031
40
0.0
41
0.0
42
0.0
10
74.8697967529297
20
69.5074005126953
40
0.0
41
0.0
42
0.0
10
74.7770004272461
20
69.3323974609375
40
0.0
41
0.0
42
0.0
10
74.564697265625
20
69.1156997680664
40
0.0
41
0.0
42
0.0
10
74.4907989501953
20
69.0354995727539
40
0.0
41
0.0
42
0.0
10
74.3827972412109
20
69.013801574707
40
0.0
41
0.0
42
0.0
10
74.3448028564453
20
69.0005035400391
40
0.0
41
0.0
42
0.0
10
73.9973983764648
20
68.8330993652344
40
0.0
41
0.0
42
0.0
10
73.8768005371094
20
68.8713989257812
40
0.0
41
0.0
42
0.0
10
73.7744979858398
20
69.0059967041016
40
0.0
41
0.0
42
0.0
10
73.5018997192383
20
69.2738037109375
40
0.0
41
0.0
42
0.0
10
73.4107971191406
20
69.5122985839844
40
0.0
41
0.0
42
0.0
10
73.2787017822266
20
69.8403015136719
40
0.0
41
0.0
42
0.0
10
73.268798828125
20
70.0007019042969
40
0.0
41
0.0
42
0.0
10
73.2776031494141
20
70.1555023193359
40
0.0
41
0.0
42
0.0
10
73.2774963378906
20
70.1921997070312
40
0.0
41
0.0
42
0.0
10
73.1934967041016
20
70.5065002441406
40
0.0
41
0.0
42
0.0
10
73.2106018066406
20
70.6561965942383
40
0.0
41
0.0
42
0.0
10
73.2109985351562
20
70.7330017089844
40
0.0
41
0.0
42
0.0
10
73.1584014892578
20
71.003303527832
40
0.0
41
0.0
42
0.0
10
73.1837005615234
20
71.1962966918945
40
0.0
41
0.0
42
0.0
10
73.1836013793945
20
71.2324981689453
40
0.0
41
0.0
42
0.0
10
73.1179962158203
20
71.5146026611328
40
0.0
41
0.0
42
0.0
10
73.0043029785156
20
71.8967971801758
40
0.0
41
0.0
42
0.0
10
72.9880981445312
20
71.8966979980469
40
0.0
41
0.0
42
0.0
10
72.7858963012695
20
71.7130966186523
40
0.0
41
0.0
42
0.0
10
72.522102355957
20
71.7546997070312
40
0.0
41
0.0
42
0.0
10
72.4904022216797
20
71.7546005249023
40
0.0
41
0.0
42
0.0
10
72.2743988037109
20
71.6019973754883
40
0.0
41
0.0
42
0.0
10
71.9881973266602
20
71.511100769043
40
0.0
41
0.0
42
0.0
10
71.8874969482422
20
71.4564971923828
40
0.0
41
0.0
42
0.0
10
71.7734985351562
20
71.383903503418
40
0.0
41
0.0
42
0.0
10
71.4871978759766
20
71.3071975708008
40
0.0
41
0.0
42
0.0
10
71.2995986938477
20
71.2186965942383
40
0.0
41
0.0
42
0.0
10
70.9965972900391
20
71.1776962280273
40
0.0
41
0.0
42
0.0
10
70.6940002441406
20
71.2057037353516
40
0.0
41
0.0
42
0.0
10
70.658203125
20
71.2055969238281
40
0.0
41
0.0
42
0.0
10
70.5519027709961
20
71.1723022460938
40
0.0
41
0.0
42
0.0
10
70.5027008056641
20
71.1539993286133
40
0.0
41
0.0
42
0.0
10
70.3003997802734
20
71.2810974121094
40
0.0
41
0.0
42
0.0
10
70.1595001220703
20
71.3542022705078
40
0.0
41
0.0
42
0.0
10
70.0136032104492
20
71.3513031005859
40
0.0
41
0.0
42
0.0
10
69.8935012817383
20
71.3945999145508
40
0.0
41
0.0
42
0.0
10
69.8585968017578
20
71.5161972045898
40
0.0
41
0.0
42
0.0
10
69.8361968994141
20
71.8259963989258
40
0.0
41
0.0
42
0.0
10
69.877197265625
20
71.9887008666992
40
0.0
41
0.0
42
0.0
10
69.9671020507812
20
72.1199035644531
40
0.0
41
0.0
42
0.0
10
70.000602722168
20
72.1869964599609
40
0.0
41
0.0
42
0.0
10
70.109001159668
20
72.4897003173828
40
0.0
41
0.0
42
0.0
10
70.1455001831055
20
72.5419998168945
40
0.0
41
0.0
42
0.0
10
70.27490234375
20
72.6679992675781
40
0.0
41
0.0
42
0.0
10
70.4613037109375
20
72.9936981201172
40
0.0
41
0.0
42
0.0
10
70.5063018798828
20
73.0310974121094
40
0.0
41
0.0
42
0.0
10
70.6710968017578
20
73.1518020629883
40
0.0
41
0.0
42
0.0
10
70.7098007202148
20
73.1885986328125
40
0.0
41
0.0
42
0.0
10
70.9181976318359
20
73.4822006225586
40
0.0
41
0.0
42
0.0
10
70.9289016723633
20
73.492301940918
40
0.0
41
0.0
42
0.0
10
71.0016021728516
20
73.6541976928711
40
0.0
41
0.0
42
0.0
10
71.0579986572266
20
73.7357025146484
40
0.0
41
0.0
42
0.0
10
71.0838012695312
20
73.7795028686523
40
0.0
41
0.0
42
0.0
10
71.3815994262695
20
73.9907989501953
40
0.0
41
0.0
42
0.0
10
71.3815002441406
20
74.0115966796875
40
0.0
41
0.0
42
0.0
10
71.0335006713867
20
74.3793029785156
40
0.0
41
0.0
42
0.0
10
71.0056991577148
20
74.4068984985352
40
0.0
41
0.0
42
0.0
10
70.8928985595703
20
74.5018005371094
40
0.0
41
0.0
42
0.0
10
70.7287979125977
20
74.5699005126953
40
0.0
41
0.0
42
0.0
10
70.5154037475586
20
74.6126022338867
40
0.0
41
0.0
42
0.0
10
70.2973022460938
20
74.6660003662109
40
0.0
41
0.0
42
0.0
10
70.0091018676758
20
74.823600769043
40
0.0
41
0.0
42
0.0
10
69.8268966674805
20
74.9425964355469
40
0.0
41
0.0
42
0.0
10
69.8037033081055
20
74.9524002075195
40
0.0
41
0.0
42
0.0
10
69.6586990356445
20
75.0001983642578
40
0.0
41
0.0
42
0.0
10
69.6242980957031
20
75.0146026611328
40
0.0
41
0.0
42
0.0
10
69.5073013305664
20
75.1298980712891
40
0.0
41
0.0
42
0.0
10
69.3323974609375
20
75.2228012084961
40
0.0
41
0.0
42
0.0
10
69.1156005859375
20
75.4350967407227
40
0.0
41
0.0
42
0.0
10
69.0354995727539
20
75.5091018676758
40
0.0
41
0.0
42
0.0
10
69.013801574707
20
75.6169967651367
40
0.0
41
0.0
42
0.0
10
69.0003967285156
20
75.6549987792969
40
0.0
41
0.0
42
0.0
10
68.8352966308594
20
75.9980010986328
40
0.0
41
0.0
42
0.0
10
69.0039978027344
20
76.2231979370117
40
0.0
41
0.0
42
0.0
210
0.0
220
0.0
230
1.0
0
LWPOLYLINE
5
28
330
1C
100
AcDbEntity
67
0
8
0
62
256
6
ByLayer
370
-1
48
1.0
60
0
100
AcDbPolyline
90
16
70
1
38
0.0
39
0.0
10
73.2675018310547
20
74.4457015991211
40
0.0
41
0.0
42
0.0
10
73.4838027954102
20
74.4300994873047
40
0.0
41
0.0
42
0.0
10
73.697998046875
20
74.3657989501953
40
0.0
41
0.0
42
0.0
10
73.7266006469727
20
74.3657989501953
40
0.0
41
0.0
42
0.0
10
73.8581008911133
20
74.4901962280273
40
0.0
41
0.0
42
0.0
10
73.9051971435547
20
74.497802734375
40
0.0
41
0.0
42
0.0
10
73.9050979614258
20
74.5047988891602
40
0.0
41
0.0
42
0.0
10
73.8574981689453
20
74.5207977294922
40
0.0
41
0.0
42
0.0
10
73.5754013061523
20
74.7508010864258
40
0.0
41
0.0
42
0.0
10
73.5522003173828
20
74.7507019042969
40
0.0
41
0.0
42
0.0
10
73.4925003051758
20
74.684196472168
40
0.0
41
0.0
42
0.0
10
73.2725982666016
20
74.5886993408203
40
0.0
41
0.0
42
0.0
10
73.0311965942383
20
74.504997253418
40
0.0
41
0.0
42
0.0
10
73.0310974121094
20
74.4964981079102
40
0.0
41
0.0
42
0.0
10
73.1699981689453
20
74.4628982543945
40
0.0
41
0.0
42
0.0
10
73.2675018310547
20
74.4457015991211
40
0.0
41
0.0
42
0.0
210
0.0
220
0.0
230
1.0
0
LWPOLYLINE
5
29
330
1C
100
AcDbEntity
67
0
8
0
62
256
6
ByLayer
370
-1
48
1.0
60
0
100
AcDbPolyline
90
14
70
1
38
0.0
39
0.0
10
73.3373031616211
20
74.5833969116211
40
0.0
41
0.0
42
0.0
10
73.5073013305664
20
74.6573028564453
40
0.0
41
0.0
42
0.0
10
73.5519027709961
20
74.7068023681641
40
0.0
41
0.0
42
0.0
10
73.7731018066406
20
74.5267028808594
40
0.0
41
0.0
42
0.0
10
73.8086013793945
20
74.5157012939453
40
0.0
41
0.0
42
0.0
10
73.8070983886719
20
74.4928970336914
40
0.0
41
0.0
42
0.0
10
73.7729034423828
20
74.4869003295898
40
0.0
41
0.0
42
0.0
10
73.6701965332031
20
74.3895034790039
40
0.0
41
0.0
42
0.0
10
73.5160980224609
20
74.4358978271484
40
0.0
41
0.0
42
0.0
10
73.342399597168
20
74.448600769043
40
0.0
41
0.0
42
0.0
10
73.2274017333984
20
74.4688034057617
40
0.0
41
0.0
42
0.0
10
73.1298980712891
20
74.4925003051758
40
0.0
41
0.0
42
0.0
10
73.1289978027344
20
74.5115966796875
40
0.0
41
0.0
42
0.0
10
73.3373031616211
20
74.5833969116211
40
0.0
41
0.0
42
0.0
210
0.0
220
0.0
230
1.0
0
LWPOLYLINE
5
2A
330
1C
100
AcDbEntity
67
0
8
0
62
256
6
ByLayer
370
-1
48
1.0
60
0
100
AcDbPolyline
90
111
70
1
38
0.0
39
0.0
10
73.3336029052734
20
75.9916000366211
40
0.0
41
0.0
42
0.0
10
73.4957962036133
20
75.8904037475586
40
0.0
41
0.0
42
0.0
10
73.6467971801758
20
75.6041030883789
40
0.0
41
0.0
42
0.0
10
73.7194976806641
20
75.4878997802734
40
0.0
41
0.0
42
0.0
10
73.7126007080078
20
75.3044967651367
40
0.0
41
0.0
42
0.0
10
73.7125015258789
20
75.2705993652344
40
0.0
41
0.0
42
0.0
10
73.8762969970703
20
74.9890975952148
40
0.0
41
0.0
42
0.0
10
73.9990997314453
20
74.6801986694336
40
0.0
41
0.0
42
0.0
10
74.0195999145508
20
74.6392974853516
40
0.0
41
0.0
42
0.0
10
74.0586013793945
20
74.4868011474609
40
0.0
41
0.0
42
0.0
10
74.1102981567383
20
74.3684005737305
40
0.0
41
0.0
42
0.0
10
74.1280975341797
20
74.2676010131836
40
0.0
41
0.0
42
0.0
10
74.1476974487305
20
74.0103988647461
40
0.0
41
0.0
42
0.0
10
73.9990005493164
20
73.6948013305664
40
0.0
41
0.0
42
0.0
10
73.9212036132812
20
73.5156021118164
40
0.0
41
0.0
42
0.0
10
73.9210968017578
20
73.4847030639648
40
0.0
41
0.0
42
0.0
10
73.9932022094727
20
73.3337020874023
40
0.0
41
0.0
42
0.0
10
74.00830078125
20
73.3337020874023
40
0.0
41
0.0
42
0.0
10
74.1089019775391
20
73.4951019287109
40
0.0
41
0.0
42
0.0
10
74.2274017333984
20
73.5692977905273
40
0.0
41
0.0
42
0.0
10
74.5124969482422
20
73.719596862793
40
0.0
41
0.0
42
0.0
10
74.6953964233398
20
73.7126007080078
40
0.0
41
0.0
42
0.0
10
74.7293014526367
20
73.7125015258789
40
0.0
41
0.0
42
0.0
10
74.9982986450195
20
73.868896484375
40
0.0
41
0.0
42
0.0
10
75.0494995117188
20
73.8227996826172
40
0.0
41
0.0
42
0.0
10
75.3489990234375
20
73.6052017211914
40
0.0
41
0.0
42
0.0
10
75.3191986083984
20
73.5165023803711
40
0.0
41
0.0
42
0.0
10
75.3190994262695
20
73.4842987060547
40
0.0
41
0.0
42
0.0
10
75.411003112793
20
73.2725982666016
40
0.0
41
0.0
42
0.0
10
75.4949035644531
20
73.0311965942383
40
0.0
41
0.0
42
0.0
10
75.503303527832
20
73.0311965942383
40
0.0
41
0.0
42
0.0
10
75.5367965698242
20
73.1699981689453
40
0.0
41
0.0
42
0.0
10
75.5540008544922
20
73.2676010131836
40
0.0
41
0.0
42
0.0
10
75.5696029663086
20
73.4838027954102
40
0.0
41
0.0
42
0.0
10
75.6341018676758
20
73.697998046875
40
0.0
41
0.0
42
0.0
10
75.6340026855469
20
73.7266006469727
40
0.0
41
0.0
42
0.0
10
75.5094985961914
20
73.8581008911133
40
0.0
41
0.0
42
0.0
10
75.5009002685547
20
73.9120025634766
40
0.0
41
0.0
42
0.0
10
75.3264999389648
20
73.9974975585938
40
0.0
41
0.0
42
0.0
10
75.3279037475586
20
74.0111999511719
40
0.0
41
0.0
42
0.0
10
75.5130996704102
20
74.0587005615234
40
0.0
41
0.0
42
0.0
10
75.6314010620117
20
74.1102981567383
40
0.0
41
0.0
42
0.0
10
75.7322998046875
20
74.1280975341797
40
0.0
41
0.0
42
0.0
10
75.989501953125
20
74.1476974487305
40
0.0
41
0.0
42
0.0
10
76.3050003051758
20
73.9990005493164
40
0.0
41
0.0
42
0.0
10
76.4842987060547
20
73.9212036132812
40
0.0
41
0.0
42
0.0
10
76.5151977539062
20
73.9210968017578
40
0.0
41
0.0
42
0.0
10
76.6661987304688
20
73.9932022094727
40
0.0
41
0.0
42
0.0
10
76.6660003662109
20
74.0082015991211
40
0.0
41
0.0
42
0.0
10
76.5046997070312
20
74.1089019775391
40
0.0
41
0.0
42
0.0
10
76.4303970336914
20
74.2273025512695
40
0.0
41
0.0
42
0.0
10
76.2800979614258
20
74.5123977661133
40
0.0
41
0.0
42
0.0
10
76.2873001098633
20
74.6953964233398
40
0.0
41
0.0
42
0.0
10
76.2872009277344
20
74.7293014526367
40
0.0
41
0.0
42
0.0
10
76.1307983398438
20
74.9982986450195
40
0.0
41
0.0
42
0.0
10
76.1769027709961
20
75.0495986938477
40
0.0
41
0.0
42
0.0
10
76.3945999145508
20
75.3488998413086
40
0.0
41
0.0
42
0.0
10
76.4833984375
20
75.3191986083984
40
0.0
41
0.0
42
0.0
10
76.5156021118164
20
75.3190994262695
40
0.0
41
0.0
42
0.0
10
76.7273025512695
20
75.411003112793
40
0.0
41
0.0
42
0.0
10
76.9686965942383
20
75.4949035644531
40
0.0
41
0.0
42
0.0
10
76.9684982299805
20
75.503303527832
40
0.0
41
0.0
42
0.0
10
76.8298034667969
20
75.5367965698242
40
0.0
41
0.0
42
0.0
10
76.7322998046875
20
75.5540008544922
40
0.0
41
0.0
42
0.0
10
76.5160980224609
20
75.5696029663086
40
0.0
41
0.0
42
0.0
10
76.3019027709961
20
75.6341018676758
40
0.0
41
0.0
42
0.0
10
76.2733001708984
20
75.6340026855469
40
0.0
41
0.0
42
0.0
10
76.1417007446289
20
75.5094985961914
40
0.0
41
0.0
42
0.0
10
76.0876998901367
20
75.5009994506836
40
0.0
41
0.0
42
0.0
10
76.0024032592773
20
75.3264999389648
40
0.0
41
0.0
42
0.0
10
75.9887008666992
20
75.3279037475586
40
0.0
41
0.0
42
0.0
10
75.9410018920898
20
75.5130996704102
40
0.0
41
0.0
42
0.0
10
75.8893966674805
20
75.6313018798828
40
0.0
41
0.0
42
0.0
10
75.8715972900391
20
75.7322998046875
40
0.0
41
0.0
42
0.0
10
75.8520965576172
20
75.9893035888672
40
0.0
41
0.0
42
0.0
10
76.0008010864258
20
76.3050003051758
40
0.0
41
0.0
42
0.0
10
76.0786972045898
20
76.4842987060547
40
0.0
41
0.0
42
0.0
10
76.0785980224609
20
76.5151977539062
40
0.0
41
0.0
42
0.0
10
76.0066986083984
20
76.6661987304688
40
0.0
41
0.0
42
0.0
10
75.9916000366211
20
76.6660995483398
40
0.0
41
0.0
42
0.0
10
75.8905029296875
20
76.5039978027344
40
0.0
41
0.0
42
0.0
10
75.6042022705078
20
76.352897644043
40
0.0
41
0.0
42
0.0
10
75.4878997802734
20
76.2801971435547
40
0.0
41
0.0
42
0.0
10
75.3044967651367
20
76.2873001098633
40
0.0
41
0.0
42
0.0
10
75.2705993652344
20
76.2872009277344
40
0.0
41
0.0
42
0.0
10
75.0016021728516
20
76.1306991577148
40
0.0
41
0.0
42
0.0
10
74.9502029418945
20
76.1769027709961
40
0.0
41
0.0
42
0.0
10
74.6508026123047
20
76.3945999145508
40
0.0
41
0.0
42
0.0
10
74.6807022094727
20
76.4833984375
40
0.0
41
0.0
42
0.0
10
74.6806030273438
20
76.5156021118164
40
0.0
41
0.0
42
0.0
10
74.5886993408203
20
76.7273025512695
40
0.0
41
0.0
42
0.0
10
74.504997253418
20
76.9686965942383
40
0.0
41
0.0
42
0.0
10
74.4964981079102
20
76.9685974121094
40
0.0
41
0.0
42
0.0
10
74.4628982543945
20
76.8298034667969
40
0.0
41
0.0
42
0.0
10
74.4457015991211
20
76.7323989868164
40
0.0
41
0.0
42
0.0
10
74.4300994873047
20
76.5160980224609
40
0.0
41
0.0
42
0.0
10
74.3657989501953
20
76.3019027709961
40
0.0
41
0.0
42
0.0
10
74.3656997680664
20
76.2733001708984
40
0.0
41
0.0
42
0.0
10
74.4901962280273
20
76.1417007446289
40
0.0
41
0.0
42
0.0
10
74.4989013671875
20
76.0876998901367
40
0.0
41
0.0
42
0.0
10
74.6734008789062
20
76.0024032592773
40
0.0
41
0.0
42
0.0
10
74.6719970703125
20
75.9887008666992
40
0.0
41
0.0
42
0.0
10
74.4868011474609
20
75.9411010742188
40
0.0
41
0.0
42
0.0
10
74.3684997558594
20
75.8893966674805
40
0.0
41
0.0
42
0.0
10
74.2676010131836
20
75.8715972900391
40
0.0
41
0.0
42
0.0
10
74.0105972290039
20
75.8520965576172
40
0.0
41
0.0
42
0.0
10
73.6948013305664
20
76.0008010864258
40
0.0
41
0.0
42
0.0
10
73.5156021118164
20
76.0786972045898
40
0.0
41
0.0
42
0.0
10
73.4847030639648
20
76.0785980224609
40
0.0
41
0.0
42
0.0
10
73.3337020874023
20
76.0066986083984
40
0.0
41
0.0
42
0.0
10
73.3336029052734
20
75.9916000366211
40
0.0
41
0.0
42
0.0
210
0.0
220
0.0
230
1.0
0
LWPOLYLINE
5
2B
330
1C
100
AcDbEntity
67
0
8
0
62
256
6
ByLayer
370
-1
48
1.0
60
0
100
AcDbPolyline
90
114
70
1
38
0.0
39
0.0
10
73.6390991210938
20
75.9990997314453
40
0.0
41
0.0
42
0.0
10
73.9845962524414
20
75.8365020751953
40
0.0
41
0.0
42
0.0
10
74.0192031860352
20
75.8364028930664
40
0.0
41
0.0
42
0.0
10
74.3423004150391
20
75.8610000610352
40
0.0
41
0.0
42
0.0
10
74.418098449707
20
75.874397277832
40
0.0
41
0.0
42
0.0
10
74.5130996704102
20
75.915901184082
40
0.0
41
0.0
42
0.0
10
74.7293014526367
20
75.9712982177734
40
0.0
41
0.0
42
0.0
10
74.7722015380859
20
75.9928970336914
40
0.0
41
0.0
42
0.0
10
74.772102355957
20
76.0067977905273
40
0.0
41
0.0
42
0.0
10
74.5009002685547
20
76.1392974853516
40
0.0
41
0.0
42
0.0
10
74.4868011474609
20
76.2269973754883
40
0.0
41
0.0
42
0.0
10
74.3896026611328
20
76.3296966552734
40
0.0
41
0.0
42
0.0
10
74.4358978271484
20
76.4838027954102
40
0.0
41
0.0
42
0.0
10
74.448600769043
20
76.6575012207031
40
0.0
41
0.0
42
0.0
10
74.4688034057617
20
76.7723007202148
40
0.0
41
0.0
42
0.0
10
74.4925003051758
20
76.870002746582
40
0.0
41
0.0
42
0.0
10
74.5115966796875
20
76.8709030151367
40
0.0
41
0.0
42
0.0
10
74.5835037231445
20
76.6624984741211
40
0.0
41
0.0
42
0.0
10
74.6548004150391
20
76.4983978271484
40
0.0
41
0.0
42
0.0
10
74.6187973022461
20
76.3916015625
40
0.0
41
0.0
42
0.0
10
74.6187973022461
20
76.3656997680664
40
0.0
41
0.0
42
0.0
10
74.9514999389648
20
76.1237030029297
40
0.0
41
0.0
42
0.0
10
74.9879989624023
20
76.0911026000977
40
0.0
41
0.0
42
0.0
10
75.0142974853516
20
76.0910034179688
40
0.0
41
0.0
42
0.0
10
75.3371963500977
20
76.2788009643555
40
0.0
41
0.0
42
0.0
10
75.4804000854492
20
76.2733993530273
40
0.0
41
0.0
42
0.0
10
75.5139007568359
20
76.2733001708984
40
0.0
41
0.0
42
0.0
10
75.6019973754883
20
76.328498840332
40
0.0
41
0.0
42
0.0
10
75.9192962646484
20
76.4959030151367
40
0.0
41
0.0
42
0.0
10
75.9985961914062
20
76.6225967407227
40
0.0
41
0.0
42
0.0
10
76.0002975463867
20
76.6224975585938
40
0.0
41
0.0
42
0.0
10
76.0593032836914
20
76.499397277832
40
0.0
41
0.0
42
0.0
10
75.9990005493164
20
76.3607025146484
40
0.0
41
0.0
42
0.0
10
75.8365020751953
20
76.0152969360352
40
0.0
41
0.0
42
0.0
10
75.8364028930664
20
75.9806976318359
40
0.0
41
0.0
42
0.0
10
75.8610000610352
20
75.657600402832
40
0.0
41
0.0
42
0.0
10
75.874397277832
20
75.5815963745117
40
0.0
41
0.0
42
0.0
10
75.9158020019531
20
75.4868011474609
40
0.0
41
0.0
42
0.0
10
75.9712982177734
20
75.2704010009766
40
0.0
41
0.0
42
0.0
10
75.9928970336914
20
75.2276992797852
40
0.0
41
0.0
42
0.0
10
76.0067977905273
20
75.2276992797852
40
0.0
41
0.0
42
0.0
10
76.1393966674805
20
75.4989013671875
40
0.0
41
0.0
42
0.0
10
76.2269973754883
20
75.5130004882812
40
0.0
41
0.0
42
0.0
10
76.3298034667969
20
75.6100997924805
40
0.0
41
0.0
42
0.0
10
76.4838027954102
20
75.5637969970703
40
0.0
41
0.0
42
0.0
10
76.6575012207031
20
75.5511016845703
40
0.0
41
0.0
42
0.0
10
76.7723007202148
20
75.5308990478516
40
0.0
41
0.0
42
0.0
10
76.870002746582
20
75.5074005126953
40
0.0
41
0.0
42
0.0
10
76.8709030151367
20
75.4882965087891
40
0.0
41
0.0
42
0.0
10
76.66259765625
20
75.4162979125977
40
0.0
41
0.0
42
0.0
10
76.4983978271484
20
75.3449020385742
40
0.0
41
0.0
42
0.0
10
76.3916015625
20
75.3808975219727
40
0.0
41
0.0
42
0.0
10
76.3656997680664
20
75.3809967041016
40
0.0
41
0.0
42
0.0
10
76.1237030029297
20
75.0482025146484
40
0.0
41
0.0
42
0.0
10
76.0911026000977
20
75.0119018554688
40
0.0
41
0.0
42
0.0
10
76.0910034179688
20
74.9856033325195
40
0.0
41
0.0
42
0.0
10
76.2788009643555
20
74.6626968383789
40
0.0
41
0.0
42
0.0
10
76.2733993530273
20
74.5195007324219
40
0.0
41
0.0
42
0.0
10
76.2732009887695
20
74.4850997924805
40
0.0
41
0.0
42
0.0
10
76.4401016235352
20
74.168701171875
40
0.0
41
0.0
42
0.0
10
76.4952011108398
20
74.0809020996094
40
0.0
41
0.0
42
0.0
10
76.6225967407227
20
74.0012969970703
40
0.0
41
0.0
42
0.0
10
76.6224975585938
20
73.9996032714844
40
0.0
41
0.0
42
0.0
10
76.499397277832
20
73.9403991699219
40
0.0
41
0.0
42
0.0
10
76.3607025146484
20
74.0008010864258
40
0.0
41
0.0
42
0.0
10
76.0152969360352
20
74.1634979248047
40
0.0
41
0.0
42
0.0
10
75.9807968139648
20
74.1633987426758
40
0.0
41
0.0
42
0.0
10
75.657600402832
20
74.1387023925781
40
0.0
41
0.0
42
0.0
10
75.5817031860352
20
74.1253967285156
40
0.0
41
0.0
42
0.0
10
75.4868011474609
20
74.0839004516602
40
0.0
41
0.0
42
0.0
10
75.2705001831055
20
74.0285034179688
40
0.0
41
0.0
42
0.0
10
75.2276992797852
20
74.0070037841797
40
0.0
41
0.0
42
0.0
10
75.2276000976562
20
73.9929962158203
40
0.0
41
0.0
42
0.0
10
75.4989013671875
20
73.8603973388672
40
0.0
41
0.0
42
0.0
10
75.5129013061523
20
73.7726974487305
40
0.0
41
0.0
42
0.0
10
75.6101989746094
20
73.6701965332031
40
0.0
41
0.0
42
0.0
10
75.5637969970703
20
73.5160980224609
40
0.0
41
0.0
42
0.0
10
75.5511016845703
20
73.342399597168
40
0.0
41
0.0
42
0.0
10
75.5308990478516
20
73.2275009155273
40
0.0
41
0.0
42
0.0
10
75.5074005126953
20
73.1298980712891
40
0.0
41
0.0
42
0.0
10
75.4882965087891
20
73.1289978027344
40
0.0
41
0.0
42
0.0
10
75.4161987304688
20
73.3373031616211
40
0.0
41
0.0
42
0.0
10
75.3449020385742
20
73.5015029907227
40
0.0
41
0.0
42
0.0
10
75.3808975219727
20
73.6082000732422
40
0.0
41
0.0
42
0.0
10
75.3808975219727
20
73.6341018676758
40
0.0
41
0.0
42
0.0
10
75.0482025146484
20
73.8759994506836
40
0.0
41
0.0
42
0.0
10
75.0119018554688
20
73.9087982177734
40
0.0
41
0.0
42
0.0
10
74.9856033325195
20
73.9086990356445
40
0.0
41
0.0
42
0.0
10
74.6626968383789
20
73.7209014892578
40
0.0
41
0.0
42
0.0
10
74.5195007324219
20
73.7265014648438
40
0.0
41
0.0
42
0.0
10
74.4850997924805
20
73.7265014648438
40
0.0
41
0.0
42
0.0
10
74.168701171875
20
73.5597991943359
40
0.0
41
0.0
42
0.0
10
74.0809020996094
20
73.5046997070312
40
0.0
41
0.0
42
0.0
10
74.0012969970703
20
73.3772964477539
40
0.0
41
0.0
42
0.0
10
73.9996032714844
20
73.3774032592773
40
0.0
41
0.0
42
0.0
10
73.9404983520508
20
73.5003967285156
40
0.0
41
0.0
42
0.0
10
74.0008010864258
20
73.6390991210938
40
0.0
41
0.0
42
0.0
10
74.1634979248047
20
73.9845962524414
40
0.0
41
0.0
42
0.0
10
74.1633987426758
20
74.0190963745117
40
0.0
41
0.0
42
0.0
10
74.1387023925781
20
74.3423004150391
40
0.0
41
0.0
42
0.0
10
74.1252975463867
20
74.418098449707
40
0.0
41
0.0
42
0.0
10
74.0839004516602
20
74.5130996704102
40
0.0
41
0.0
42
0.0
10
74.0283966064453
20
74.7293014526367
40
0.0
41
0.0
42
0.0
10
74.0007019042969
20
74.7845001220703
40
0.0
41
0.0
42
0.0
10
73.9107971191406
20
75.0106964111328
40
0.0
41
0.0
42
0.0
10
73.7209014892578
20
75.3371963500977
40
0.0
41
0.0
42
0.0
10
73.7265014648438
20
75.4804000854492
40
0.0
41
0.0
42
0.0
10
73.7264022827148
20
75.5139007568359
40
0.0
41
0.0
42
0.0
10
73.6712036132812
20
75.6019973754883
40
0.0
41
0.0
42
0.0
10
73.5038986206055
20
75.9192962646484
40
0.0
41
0.0
42
0.0
10
73.3772964477539
20
75.9985961914062
40
0.0
41
0.0
42
0.0
10
73.3774032592773
20
76.0002975463867
40
0.0
41
0.0
42
0.0
10
73.5003967285156
20
76.059196472168
40
0.0
41
0.0
42
0.0
10
73.6390991210938
20
75.9990997314453
40
0.0
41
0.0
42
0.0
210
0.0
220
0.0
230
1.0
0
LWPOLYLINE
5
2C
330
1C
100
AcDbEntity
67
0
8
0
62
256
6
ByLayer
370
-1
48
1.0
60
0
100
AcDbPolyline
90
31
70
1
38
0.0
39
0.0
10
81.6632995605469
20
84.8840026855469
40
0.0
41
0.0
42
0.0
10
81.9853973388672
20
84.7805023193359
40
0.0
41
0.0
42
0.0
10
82.3106994628906
20
84.7098007202148
40
0.0
41
0.0
42
0.0
10
82.4860992431641
20
84.646598815918
40
0.0
41
0.0
42
0.0
10
82.6591033935547
20
84.6025009155273
40
0.0
41
0.0
42
0.0
10
82.9832992553711
20
84.55419921875
40
0.0
41
0.0
42
0.0
10
83.1427001953125
20
84.5266036987305
40
0.0
41
0.0
42
0.0
10
83.4803009033203
20
84.5165023803711
40
0.0
41
0.0
42
0.0
10
83.5154037475586
20
84.5164031982422
40
0.0
41
0.0
42
0.0
10
83.8178024291992
20
84.6556015014648
40
0.0
41
0.0
42
0.0
10
84.0120010375977
20
84.6565017700195
40
0.0
41
0.0
42
0.0
10
84.2067031860352
20
84.8280029296875
40
0.0
41
0.0
42
0.0
10
84.2799987792969
20
84.9845962524414
40
0.0
41
0.0
42
0.0
10
84.2799987792969
20
84.9990005493164
40
0.0
41
0.0
42
0.0
10
84.247200012207
20
84.9989013671875
40
0.0
41
0.0
42
0.0
10
84.1630020141602
20
84.8190994262695
40
0.0
41
0.0
42
0.0
10
83.9878997802734
20
84.6649017333984
40
0.0
41
0.0
42
0.0
10
83.8077011108398
20
84.6641006469727
40
0.0
41
0.0
42
0.0
10
83.772102355957
20
84.6548004150391
40
0.0
41
0.0
42
0.0
10
83.4868011474609
20
84.5233993530273
40
0.0
41
0.0
42
0.0
10
83.220100402832
20
84.5315017700195
40
0.0
41
0.0
42
0.0
10
83.0166015625
20
84.5667037963867
40
0.0
41
0.0
42
0.0
10
82.7307968139648
20
84.6092987060547
40
0.0
41
0.0
42
0.0
10
82.513801574707
20
84.6644973754883
40
0.0
41
0.0
42
0.0
10
82.2991027832031
20
84.7418975830078
40
0.0
41
0.0
42
0.0
10
82.0145034790039
20
84.8038024902344
40
0.0
41
0.0
42
0.0
10
81.7265014648438
20
84.8964004516602
40
0.0
41
0.0
42
0.0
10
81.5425033569336
20
84.9990005493164
40
0.0
41
0.0
42
0.0
10
81.467903137207
20
84.9990005493164
40
0.0
41
0.0
42
0.0
10
81.4677963256836
20
84.9925003051758
40
0.0
41
0.0
42
0.0
10
81.6632995605469
20
84.8840026855469
40
0.0
41
0.0
42
0.0
210
0.0
220
0.0
230
1.0
0
LWPOLYLINE
5
2D
330
1C
100
AcDbEntity
67
0
8
0
62
256
6
ByLayer
370
-1
48
1.0
60
0
100
AcDbPolyline
90
31
70
1
38
0.0
39
0.0
10
84.6556015014648
20
66.1820983886719
40
0.0
41
0.0
42
0.0
10
84.6564025878906
20
65.9878997802734
40
0.0
41
0.0
42
0.0
10
84.8280029296875
20
65.793098449707
40
0.0
41
0.0
42
0.0
10
84.9845962524414
20
65.7199020385742
40
0.0
41
0.0
42
0.0
10
84.9990005493164
20
65.7199020385742
40
0.0
41
0.0
42
0.0
10
84.9988021850586
20
65.7525024414062
40
0.0
41
0.0
42
0.0
10
84.8190994262695
20
65.836799621582
40
0.0
41
0.0
42
0.0
10
84.6649017333984
20
66.0120010375977
40
0.0
41
0.0
42
0.0
10
84.6641006469727
20
66.1921997070312
40
0.0
41
0.0
42
0.0
10
84.6548004150391
20
66.2277984619141
40
0.0
41
0.0
42
0.0
10
84.5233993530273
20
66.5130996704102
40
0.0
41
0.0
42
0.0
10
84.5315017700195
20
66.7797012329102
40
0.0
41
0.0
42
0.0
10
84.5667037963867
20
66.9832992553711
40
0.0
41
0.0
42
0.0
10
84.6092987060547
20
67.2690963745117
40
0.0
41
0.0
42
0.0
10
84.6644973754883
20
67.4860992431641
40
0.0
41
0.0
42
0.0
10
84.7419967651367
20
67.700798034668
40
0.0
41
0.0
42
0.0
10
84.8038024902344
20
67.9853973388672
40
0.0
41
0.0
42
0.0
10
84.8964996337891
20
68.2733993530273
40
0.0
41
0.0
42
0.0
10
84.9990005493164
20
68.4572982788086
40
0.0
41
0.0
42
0.0
10
84.9990005493164
20
68.5319976806641
40
0.0
41
0.0
42
0.0
10
84.992301940918
20
68.5319976806641
40
0.0
41
0.0
42
0.0
10
84.8841018676758
20
68.3366012573242
40
0.0
41
0.0
42
0.0
10
84.7805023193359
20
68.0145034790039
40
0.0
41
0.0
42
0.0
10
84.7098999023438
20
67.6891021728516
40
0.0
41
0.0
42
0.0
10
84.646598815918
20
67.513801574707
40
0.0
41
0.0
42
0.0
10
84.6025009155273
20
67.3407974243164
40
0.0
41
0.0
42
0.0
10
84.55419921875
20
67.0166015625
40
0.0
41
0.0
42
0.0
10
84.5266036987305
20
66.8571014404297
40
0.0
41
0.0
42
0.0
10
84.5165023803711
20
66.5195999145508
40
0.0
41
0.0
42
0.0
10
84.5162963867188
20
66.4844970703125
40
0.0
41
0.0
42
0.0
10
84.6556015014648
20
66.1820983886719
40
0.0
41
0.0
42
0.0
210
0.0
220
0.0
230
1.0
0
VIEWPORT
5
32
330
2E
100
AcDbEntity
67
1
8
0
62
256
6
ByLayer
370
-1
48
1.0
60
0
100
AcDbViewport
10
0.0
20
0.0
30
0.0
40
297.0
41
210.0
68
1
69
1
12
50.0
22
100.0
13
0.0
23
0.0
14
10.0
24
10.0
15
10.0
25
10.0
16
0.0
26
0.0
36
1.0
17
0.0
27
0.0
37
0.0
42
50.0
43
0.0
44
0.0
45
250.0
50
0.0
51
0.0
72
1000
90
819232
110
0.0
120
0.0
130
0.0
111
1.0
121
0.0
131
0.0
112
0.0
122
1.0
132
0.0
0
ENDSEC
0
SECTION
2
OBJECTS
0
DICTIONARY
5
38
330
0
100
AcDbDictionary
280
1
281
1
3
ACAD_GROUP
350
12
3
ACAD_LAYOUT
350
31
3
ACAD_DGNDEFINITIONS
350
F
3
ACAD_DWFDEFINITIONS
350
10
3
ACAD_PDFDEFINITIONS
350
11
3
ACAD_MLINESTYLE
350
B
3
ACAD_IMAGE_DICT
350
E
3
ACAD_IMAGE_VARS
350
21
0
DICTIONARY
5
12
330
38
100
AcDbDictionary
280
1
281
1
0
DICTIONARY
5
31
330
38
100
AcDbDictionary
280
1
281
1
3
Model
350
20
3
Layout1
350
33
0
DICTIONARY
5
F
330
38
100
AcDbDictionary
280
1
281
1
0
DICTIONARY
5
10
330
38
100
AcDbDictionary
280
1
281
1
0
DICTIONARY
5
11
330
38
100
AcDbDictionary
280
1
281
1
0
DICTIONARY
5
B
330
38
100
AcDbDictionary
280
1
281
1
3
Standard
350
1B
0
DICTIONARY
5
E
330
38
100
AcDbDictionary
280
1
281
1
0
DICTIONARY
5
6
330
5
100
AcDbDictionary
280
1
281
1
3
ACAD_LAYERSTATES
360
39
0
DICTIONARY
5
39
330
6
100
AcDbDictionary
280
1
281
1
0
LAYOUT
5
20
330
31
100
AcDbPlotSettings
1

2
none_device
4
ISO_A4_(210.00_x_297.00_MM)
6

40
7.5
41
20.0
42
7.5
43
20.0
44
210.0
45
297.0
46
0.0
47
0.0
48
0.0
49
0.0
140
0.0
141
0.0
142
1.0
143
1.0
70
11952
72
1
73
1
74
1
7

75
0
76
0
77
2
78
300
147
1.0
148
0.0
149
0.0
100
AcDbLayout
1
Model
71
0
10
-20.0
20
-7.5
11
277.0
21
202.5
12
0.0
22
0.0
32
0.0
14
25.7
24
19.5
34
0.0
15
231.3
25
175.5
35
0.0
146
0.0
13
0.0
23
0.0
33
0.0
16
1.0
26
0.0
36
0.0
17
0.0
27
1.0
37
0.0
76
0
330
1C
0
LAYOUT
5
33
330
31
100
AcDbPlotSettings
1

2
none_device
4
ISO_A4_(210.00_x_297.00_MM)
6

40
7.5
41
20.0
42
7.5
43
20.0
44
210.0
45
297.0
46
0.0
47
0.0
48
0.0
49
0.0
140
0.0
141
0.0
142
1.0
143
1.0
70
688
72
1
73
1
74
1
7

75
0
76
0
77
2
78
300
147
1.0
148
0.0
149
0.0
100
AcDbLayout
1
Layout1
71
1
10
-20.0
20
-7.5
11
277.0
21
202.5
12
0.0
22
0.0
32
0.0
14
25.7
24
19.5
34
0.0
15
231.3
25
175.5
35
0.0
146
0.0
13
0.0
23
0.0
33
0.0
16
1.0
26
0.0
36
0.0
17
0.0
27
1.0
37
0.0
76
0
330
2E
0
MLINESTYLE
5
1B
330
B
100
AcDbMlineStyle
2
Standard
70
0
3

62
256
51
90.0
52
90.0
71
2
49
0.5
62
256
6
ByLayer
49
-0.5
62
256
6
ByLayer
0
RASTERVARIABLES
5
21
330
E
100
AcDbRasterVariables
90
0
70
1
71
1
72
0
0
ENDSEC
0
EOF
