999
DXF file generated by netDxf https://github.com/haplokuon/netDxf, Copyright(C) Daniel Carvajal, Licensed under MIT
0
SECTION
2
HEADER
9
$ACADVER
1
AC1015
9
$DWGCODEPAGE
3
ANSI_1252
9
$HANDSEED
5
46
9
$ANGBASE
50
0.0
9
$ANGDIR
70
0
9
$ATTMODE
70
1
9
$AUNITS
70
0
9
$AUPREC
70
0
9
$CECOLOR
62
256
9
$CELTSCALE
40
1.0
9
$CELTYPE
6
ByLayer
9
$CELWEIGHT
370
-1
9
$CLAYER
8
0
9
$CMLJUST
70
0
9
$CMLSCALE
40
20.0
9
$CMLSTYLE
2
Standard
9
$DIMSTYLE
2
Standard
9
$TEXTSIZE
40
2.5
9
$TEXTSTYLE
7
Standard
9
$LUNITS
70
2
9
$LUPREC
70
4
9
$MIRRTEXT
70
0
9
$EXTNAMES
290
1
9
$INSBASE
10
0.0
20
0.0
30
0.0
9
$INSUNITS
70
0
9
$LTSCALE
40
1.0
9
$LWDISPLAY
290
0
9
$PDMODE
70
0
9
$PDSIZE
40
0.0
9
$PLINEGEN
70
0
9
$PSLTSCALE
70
1
9
$SPLINESEGS
70
8
9
$SURFU
70
6
9
$SURFV
70
6
9
$TDCREATE
40
2460823.48370479
9
$TDUCREATE
40
2460823.15037146
9
$TDUPDATE
40
2460823.48370479
9
$TDUUPDATE
40
2460823.15037146
9
$TDINDWG
40
0.0
9
$UCSORG
10
0.0
20
0.0
30
0.0
9
$UCSXDIR
10
1.0
20
0.0
30
0.0
9
$UCSYDIR
10
0.0
20
1.0
30
0.0
9
$DIMADEC
70
0
9
$DIMALT
70
0
9
$DIMALTD
70
2
9
$DIMALTF
40
25.4
9
$DIMALTRND
40
0.0
9
$DIMALTTD
70
2
9
$DIMALTTZ
70
0
9
$DIMALTU
70
2
9
$DIMALTZ
70
0
9
$DIMAPOST
1

9
$DIMATFIT
70
3
9
$DIMAUNIT
70
0
9
$DIMASZ
40
0.18
9
$DIMAZIN
70
0
9
$DIMSAH
70
0
9
$DIMBLK
1

9
$DIMLDRBLK
1

9
$DIMCEN
40
0.09
9
$DIMCLRD
70
0
9
$DIMCLRE
70
0
9
$DIMCLRT
70
0
9
$DIMDEC
70
4
9
$DIMDLE
40
0.0
9
$DIMDLI
40
0.38
9
$DIMDSEP
70
46
9
$DIMEXE
40
0.18
9
$DIMEXO
40
0.0625
9
$DIMFXLON
70
0
9
$DIMFXL
40
1.0
9
$DIMGAP
40
0.09
9
$DIMJUST
70
0
9
$DIMLFAC
40
1.0
9
$DIMLUNIT
70
2
9
$DIMLWD
70
-2
9
$DIMLWE
70
-2
9
$DIMPOST
1

9
$DIMRND
40
0.0
9
$DIMSCALE
40
1.0
9
$DIMSD1
70
0
9
$DIMSD2
70
0
9
$DIMSE1
70
0
9
$DIMSE2
70
0
9
$DIMSOXD
70
0
9
$DIMTAD
70
0
9
$DIMTDEC
70
4
9
$DIMTFAC
40
1.0
9
$DIMTIH
70
0
9
$DIMTIX
70
0
9
$DIMTM
40
0.0
9
$DIMTMOVE
70
0
9
$DIMTOFL
70
0
9
$DIMTOH
70
0
9
$DIMTOL
70
0
9
$DIMLIM
70
0
9
$DIMTOLJ
70
1
9
$DIMTP
40
0.0
9
$DIMTXT
40
0.18
9
$DIMTXTDIRECTION
70
0
9
$DIMTZIN
70
0
9
$DIMZIN
70
0
9
$DIMFRAC
70
0
9
$DIMLTYPE
6
ByBlock
9
$DIMLTEX1
6
ByBlock
9
$DIMLTEX2
6
ByBlock
0
ENDSEC
0
SECTION
2
CLASSES
0
CLASS
1
RASTERVARIABLES
2
AcDbRasterVariables
3
ISM
90
0
280
0
281
0
0
ENDSEC
0
SECTION
2
TABLES
0
TABLE
2
APPID
5
4
330
0
100
AcDbSymbolTable
70
5
0
APPID
5
19
330
4
100
AcDbSymbolTableRecord
100
AcDbRegAppTableRecord
2
ACAD
70
0
0
APPID
5
40
330
4
100
AcDbSymbolTableRecord
100
AcDbRegAppTableRecord
2
AcCmTransparency
70
0
0
APPID
5
41
330
4
100
AcDbSymbolTableRecord
100
AcDbRegAppTableRecord
2
AcAecLayerStandard
70
0
0
APPID
5
42
330
4
100
AcDbSymbolTableRecord
100
AcDbRegAppTableRecord
2
GradientColor1ACI
70
0
0
APPID
5
43
330
4
100
AcDbSymbolTableRecord
100
AcDbRegAppTableRecord
2
GradientColor2ACI
70
0
0
ENDTAB
0
TABLE
2
VPORT
5
1
330
0
100
AcDbSymbolTable
70
1
0
VPORT
5
2
330
1
100
AcDbSymbolTableRecord
100
AcDbViewportTableRecord
2
*Active
70
0
10
0.0
20
0.0
11
1.0
21
1.0
12
0.0
22
0.0
13
0.0
23
0.0
14
0.5
24
0.5
15
10.0
25
10.0
16
0.0
26
0.0
36
1.0
17
0.0
27
0.0
37
0.0
40
10.0
41
1.0
75
0
76
1
0
ENDTAB
0
TABLE
2
LTYPE
5
7
330
0
100
AcDbSymbolTable
70
3
0
LTYPE
5
15
330
7
100
AcDbSymbolTableRecord
100
AcDbLinetypeTableRecord
2
Continuous
70
0
3
Solid line
72
65
73
0
40
0.0
0
LTYPE
5
16
330
7
100
AcDbSymbolTableRecord
100
AcDbLinetypeTableRecord
2
ByLayer
70
0
3

72
65
73
0
40
0.0
0
LTYPE
5
17
330
7
100
AcDbSymbolTableRecord
100
AcDbLinetypeTableRecord
2
ByBlock
70
0
3

72
65
73
0
40
0.0
0
ENDTAB
0
TABLE
2
LAYER
5
5
102
{ACAD_XDICTIONARY
360
6
102
}
330
0
100
AcDbSymbolTable
70
1
0
LAYER
5
14
330
5
100
AcDbSymbolTableRecord
100
AcDbLayerTableRecord
2
0
70
0
62
7
6
Continuous
290
1
370
-3
390
0
0
ENDTAB
0
TABLE
2
STYLE
5
8
330
0
100
AcDbSymbolTable
70
1
0
STYLE
5
18
330
8
100
AcDbSymbolTableRecord
100
AcDbTextStyleTableRecord
2
Standard
3
simplex.shx
70
0
71
0
40
0.0
41
1.0
42
0.0
50
0.0
0
ENDTAB
0
TABLE
2
DIMSTYLE
5
A
330
0
100
AcDbSymbolTable
70
1
100
AcDbDimStyleTable
0
DIMSTYLE
105
1A
330
A
100
AcDbSymbolTableRecord
100
AcDbDimStyleTableRecord
2
Standard
3

4

40
1.0
41
0.18
42
0.0625
43
0.38
44
0.18
45
0.0
46
0.0
47
0.0
48
0.0
49
1.0
70
0
71
0
72
0
73
0
74
0
75
0
76
0
77
0
78
0
79
0
140
0.18
141
0.09
143
25.4
144
1.0
146
1.0
147
0.09
148
0.0
170
0
171
2
172
0
174
0
175
0
176
0
177
0
178
0
179
0
271
4
272
4
273
2
274
2
275
0
276
0
277
2
278
46
279
0
280
0
281
0
282
0
283
1
284
0
285
0
286
0
289
3
290
0
294
0
340
18
173
0
345
17
346
17
347
17
371
-2
372
-2
0
ENDTAB
0
TABLE
2
VIEW
5
3
330
0
100
AcDbSymbolTable
70
0
0
ENDTAB
0
TABLE
2
UCS
5
C
330
0
100
AcDbSymbolTable
70
0
0
ENDTAB
0
TABLE
2
BLOCK_RECORD
5
D
330
0
100
AcDbSymbolTable
70
2
0
BLOCK_RECORD
5
1C
330
D
100
AcDbSymbolTableRecord
100
AcDbBlockTableRecord
2
*Model_Space
340
20
0
BLOCK_RECORD
5
3A
330
D
100
AcDbSymbolTableRecord
100
AcDbBlockTableRecord
2
*Paper_Space
340
3F
0
ENDTAB
0
ENDSEC
0
SECTION
2
BLOCKS
0
BLOCK
5
1E
330
1C
100
AcDbEntity
67
0
8
0
100
AcDbBlockBegin
2
*Model_Space
70
0
10
0.0
20
0.0
30
0.0
3
*Model_Space
4

0
ENDBLK
5
1D
330
1C
100
AcDbEntity
8
0
100
AcDbBlockEnd
0
BLOCK
5
3C
330
3A
100
AcDbEntity
67
1
8
0
100
AcDbBlockBegin
2
*Paper_Space
70
0
10
0.0
20
0.0
30
0.0
3
*Paper_Space
4

0
ENDBLK
5
3B
330
3A
100
AcDbEntity
8
0
100
AcDbBlockEnd
0
ENDSEC
0
SECTION
2
ENTITIES
0
LWPOLYLINE
5
22
330
1C
100
AcDbEntity
67
0
8
0
62
256
6
ByLayer
370
-1
48
1.0
60
0
100
AcDbPolyline
90
25
70
1
38
0.0
39
0.0
10
65.254997253418
20
67.1169967651367
40
0.0
41
0.0
42
0.0
10
65.3466033935547
20
66.991096496582
40
0.0
41
0.0
42
0.0
10
65.4914016723633
20
66.7183990478516
40
0.0
41
0.0
42
0.0
10
65.5609970092773
20
66.5931015014648
40
0.0
41
0.0
42
0.0
10
65.611701965332
20
66.4888000488281
40
0.0
41
0.0
42
0.0
10
65.834602355957
20
65.9882965087891
40
0.0
41
0.0
42
0.0
10
65.992301940918
20
65.6229019165039
40
0.0
41
0.0
42
0.0
10
66.1094970703125
20
65.3630981445312
40
0.0
41
0.0
42
0.0
10
66.2544021606445
20
65.0009994506836
40
0.0
41
0.0
42
0.0
10
66.2768020629883
20
65.0009994506836
40
0.0
41
0.0
42
0.0
10
66.2767028808594
20
65.0158996582031
40
0.0
41
0.0
42
0.0
10
66.144401550293
20
65.3467025756836
40
0.0
41
0.0
42
0.0
10
65.99169921875
20
65.6848983764648
40
0.0
41
0.0
42
0.0
10
65.8507995605469
20
66.0114974975586
40
0.0
41
0.0
42
0.0
10
65.628303527832
20
66.511100769043
40
0.0
41
0.0
42
0.0
10
65.5838012695312
20
66.6026992797852
40
0.0
41
0.0
42
0.0
10
65.492301940918
20
66.7674026489258
40
0.0
41
0.0
42
0.0
10
65.3640975952148
20
67.0087966918945
40
0.0
41
0.0
42
0.0
10
65.2446975708008
20
67.1728973388672
40
0.0
41
0.0
42
0.0
10
65.0398025512695
20
67.4748992919922
40
0.0
41
0.0
42
0.0
10
65.0118026733398
20
67.5005035400391
40
0.0
41
0.0
42
0.0
10
65.0009994506836
20
67.5005035400391
40
0.0
41
0.0
42
0.0
10
65.0009002685547
20
67.4791030883789
40
0.0
41
0.0
42
0.0
10
65.0230026245117
20
67.4589004516602
40
0.0
41
0.0
42
0.0
10
65.254997253418
20
67.1169967651367
40
0.0
41
0.0
42
0.0
210
0.0
220
0.0
230
1.0
0
LWPOLYLINE
5
23
330
1C
100
AcDbEntity
67
0
8
0
62
256
6
ByLayer
370
-1
48
1.0
60
0
100
AcDbPolyline
90
75
70
1
38
0.0
39
0.0
10
65.3332977294922
20
74.4962997436523
40
0.0
41
0.0
42
0.0
10
65.4884033203125
20
74.3897018432617
40
0.0
41
0.0
42
0.0
10
65.8171005249023
20
74.3207015991211
40
0.0
41
0.0
42
0.0
10
65.8533020019531
20
74.3206024169922
40
0.0
41
0.0
42
0.0
10
66.0128021240234
20
74.3467025756836
40
0.0
41
0.0
42
0.0
10
66.0643005371094
20
74.3761978149414
40
0.0
41
0.0
42
0.0
10
66.2294006347656
20
74.5423965454102
40
0.0
41
0.0
42
0.0
10
66.5068969726562
20
74.6960983276367
40
0.0
41
0.0
42
0.0
10
66.6735992431641
20
74.8737030029297
40
0.0
41
0.0
42
0.0
10
66.7536010742188
20
74.9909973144531
40
0.0
41
0.0
42
0.0
10
66.8179016113281
20
75.1080017089844
40
0.0
41
0.0
42
0.0
10
67.0035018920898
20
75.3331985473633
40
0.0
41
0.0
42
0.0
10
67.1162033081055
20
75.4826965332031
40
0.0
41
0.0
42
0.0
10
67.1196975708008
20
75.4890975952148
40
0.0
41
0.0
42
0.0
10
67.2714996337891
20
75.8615036010742
40
0.0
41
0.0
42
0.0
10
67.3014984130859
20
75.9822998046875
40
0.0
41
0.0
42
0.0
10
67.2914962768555
20
76.393798828125
40
0.0
41
0.0
42
0.0
10
67.2813034057617
20
76.5157012939453
40
0.0
41
0.0
42
0.0
10
67.1595993041992
20
76.8886032104492
40
0.0
41
0.0
42
0.0
10
67.1223983764648
20
77.0123977661133
40
0.0
41
0.0
42
0.0
10
66.9894027709961
20
77.2982025146484
40
0.0
41
0.0
42
0.0
10
66.9309005737305
20
77.3844985961914
40
0.0
41
0.0
42
0.0
10
66.8731002807617
20
77.5081024169922
40
0.0
41
0.0
42
0.0
10
66.5572967529297
20
77.8536987304688
40
0.0
41
0.0
42
0.0
10
66.5044021606445
20
77.9469985961914
40
0.0
41
0.0
42
0.0
10
66.4635009765625
20
77.9711990356445
40
0.0
41
0.0
42
0.0
10
66.4524002075195
20
77.9733963012695
40
0.0
41
0.0
42
0.0
10
66.2158966064453
20
77.9990005493164
40
0.0
41
0.0
42
0.0
10
66.1151962280273
20
78.0073013305664
40
0.0
41
0.0
42
0.0
10
66.0154037475586
20
78.0528030395508
40
0.0
41
0.0
42
0.0
10
65.9848022460938
20
78.0526962280273
40
0.0
41
0.0
42
0.0
10
65.9709014892578
20
78.0458984375
40
0.0
41
0.0
42
0.0
10
65.8059997558594
20
77.9974975585938
40
0.0
41
0.0
42
0.0
10
65.4908981323242
20
77.8386993408203
40
0.0
41
0.0
42
0.0
10
65.3280029296875
20
77.7202987670898
40
0.0
41
0.0
42
0.0
10
65.0793991088867
20
77.5050964355469
40
0.0
41
0.0
42
0.0
10
65.0009994506836
20
77.4129028320312
40
0.0
41
0.0
42
0.0
10
65.0009994506836
20
77.368896484375
40
0.0
41
0.0
42
0.0
10
65.0102005004883
20
77.3687973022461
40
0.0
41
0.0
42
0.0
10
65.117301940918
20
77.4947967529297
40
0.0
41
0.0
42
0.0
10
65.3818969726562
20
77.7238006591797
40
0.0
41
0.0
42
0.0
10
65.5090026855469
20
77.8161010742188
40
0.0
41
0.0
42
0.0
10
65.8685989379883
20
77.9973983764648
40
0.0
41
0.0
42
0.0
10
66.0020980834961
20
78.0365982055664
40
0.0
41
0.0
42
0.0
10
66.0615005493164
20
78.0095977783203
40
0.0
41
0.0
42
0.0
10
66.1671981811523
20
78.0008010864258
40
0.0
41
0.0
42
0.0
10
66.4251022338867
20
77.972900390625
40
0.0
41
0.0
42
0.0
10
66.4953994750977
20
77.9311981201172
40
0.0
41
0.0
42
0.0
10
66.5690002441406
20
77.8015975952148
40
0.0
41
0.0
42
0.0
10
66.8522033691406
20
77.49169921875
40
0.0
41
0.0
42
0.0
10
66.929801940918
20
77.3253021240234
40
0.0
41
0.0
42
0.0
10
66.9821014404297
20
77.2481002807617
40
0.0
41
0.0
42
0.0
10
67.1035995483398
20
76.9873962402344
40
0.0
41
0.0
42
0.0
10
67.1535034179688
20
76.8211975097656
40
0.0
41
0.0
42
0.0
10
67.2634963989258
20
76.4841003417969
40
0.0
41
0.0
42
0.0
10
67.2774963378906
20
76.3161010742188
40
0.0
41
0.0
42
0.0
10
67.2855987548828
20
76.013801574707
40
0.0
41
0.0
42
0.0
10
67.2446975708008
20
75.8483963012695
40
0.0
41
0.0
42
0.0
10
67.1071014404297
20
75.5108032226562
40
0.0
41
0.0
42
0.0
10
67.0992965698242
20
75.4969024658203
40
0.0
41
0.0
42
0.0
10
66.9964981079102
20
75.3603973388672
40
0.0
41
0.0
42
0.0
10
66.8324966430664
20
75.1614990234375
40
0.0
41
0.0
42
0.0
10
66.7487030029297
20
75.0090026855469
40
0.0
41
0.0
42
0.0
10
66.684196472168
20
74.9134979248047
40
0.0
41
0.0
42
0.0
10
66.4929962158203
20
74.7098999023438
40
0.0
41
0.0
42
0.0
10
66.1818008422852
20
74.5374984741211
40
0.0
41
0.0
42
0.0
10
66.0569000244141
20
74.4119033813477
40
0.0
41
0.0
42
0.0
10
65.9870986938477
20
74.3715972900391
40
0.0
41
0.0
42
0.0
10
65.8769989013672
20
74.3535995483398
40
0.0
41
0.0
42
0.0
10
65.5114974975586
20
74.4303970336914
40
0.0
41
0.0
42
0.0
10
65.405403137207
20
74.5036010742188
40
0.0
41
0.0
42
0.0
10
65.0115966796875
20
74.8744964599609
40
0.0
41
0.0
42
0.0
10
65.0009994506836
20
74.8744964599609
40
0.0
41
0.0
42
0.0
10
65.0008010864258
20
74.8094024658203
40
0.0
41
0.0
42
0.0
10
65.3332977294922
20
74.4962997436523
40
0.0
41
0.0
42
0.0
210
0.0
220
0.0
230
1.0
0
LWPOLYLINE
5
24
330
1C
100
AcDbEntity
67
0
8
0
62
256
6
ByLayer
370
-1
48
1.0
60
0
100
AcDbPolyline
90
27
70
1
38
0.0
39
0.0
10
65.0154037475586
20
83.7230987548828
40
0.0
41
0.0
42
0.0
10
65.1766967773438
20
83.7966995239258
40
0.0
41
0.0
42
0.0
10
65.5203018188477
20
83.9340972900391
40
0.0
41
0.0
42
0.0
10
65.6849975585938
20
84.0080032348633
40
0.0
41
0.0
42
0.0
10
66.0114974975586
20
84.1489028930664
40
0.0
41
0.0
42
0.0
10
66.511100769043
20
84.3713989257812
40
0.0
41
0.0
42
0.0
10
66.6027984619141
20
84.4160003662109
40
0.0
41
0.0
42
0.0
10
66.7674026489258
20
84.5074005126953
40
0.0
41
0.0
42
0.0
10
67.0087966918945
20
84.6356964111328
40
0.0
41
0.0
42
0.0
10
67.1728973388672
20
84.754997253418
40
0.0
41
0.0
42
0.0
10
67.4749984741211
20
84.9598999023438
40
0.0
41
0.0
42
0.0
10
67.5005035400391
20
84.9879989624023
40
0.0
41
0.0
42
0.0
10
67.5005035400391
20
84.9990005493164
40
0.0
41
0.0
42
0.0
10
67.4792022705078
20
84.9989013671875
40
0.0
41
0.0
42
0.0
10
67.4589996337891
20
84.9767990112305
40
0.0
41
0.0
42
0.0
10
67.1169967651367
20
84.7447967529297
40
0.0
41
0.0
42
0.0
10
66.991096496582
20
84.6531982421875
40
0.0
41
0.0
42
0.0
10
66.7184982299805
20
84.50830078125
40
0.0
41
0.0
42
0.0
10
66.5931015014648
20
84.4387969970703
40
0.0
41
0.0
42
0.0
10
66.4888000488281
20
84.3880004882812
40
0.0
41
0.0
42
0.0
10
65.9884033203125
20
84.1651000976562
40
0.0
41
0.0
42
0.0
10
65.6229019165039
20
84.0074005126953
40
0.0
41
0.0
42
0.0
10
65.4975967407227
20
83.951301574707
40
0.0
41
0.0
42
0.0
10
65.1132965087891
20
83.7974014282227
40
0.0
41
0.0
42
0.0
10
65.0009994506836
20
83.7462005615234
40
0.0
41
0.0
42
0.0
10
65.0009994506836
20
83.7230987548828
40
0.0
41
0.0
42
0.0
10
65.0154037475586
20
83.7230987548828
40
0.0
41
0.0
42
0.0
210
0.0
220
0.0
230
1.0
0
LWPOLYLINE
5
25
330
1C
100
AcDbEntity
67
0
8
0
62
256
6
ByLayer
370
-1
48
1.0
60
0
100
AcDbPolyline
90
59
70
1
38
0.0
39
0.0
10
66.2572021484375
20
69.3190002441406
40
0.0
41
0.0
42
0.0
10
66.3503036499023
20
68.986198425293
40
0.0
41
0.0
42
0.0
10
66.4063034057617
20
68.8235015869141
40
0.0
41
0.0
42
0.0
10
66.4309997558594
20
68.7790985107422
40
0.0
41
0.0
42
0.0
10
66.4971008300781
20
68.6791000366211
40
0.0
41
0.0
42
0.0
10
66.6327972412109
20
68.4925994873047
40
0.0
41
0.0
42
0.0
10
66.7045974731445
20
68.4029006958008
40
0.0
41
0.0
42
0.0
10
66.8290023803711
20
68.3010025024414
40
0.0
41
0.0
42
0.0
10
66.9016036987305
20
68.2286987304688
40
0.0
41
0.0
42
0.0
10
66.9906005859375
20
68.1706008911133
40
0.0
41
0.0
42
0.0
10
67.2381973266602
20
68.0388031005859
40
0.0
41
0.0
42
0.0
10
67.3208999633789
20
67.9989013671875
40
0.0
41
0.0
42
0.0
10
67.4868011474609
20
67.924201965332
40
0.0
41
0.0
42
0.0
10
67.8198013305664
20
67.8414001464844
40
0.0
41
0.0
42
0.0
10
67.9822998046875
20
67.8046035766602
40
0.0
41
0.0
42
0.0
10
68.3197021484375
20
67.8058013916016
40
0.0
41
0.0
42
0.0
10
68.4803009033203
20
67.8006973266602
40
0.0
41
0.0
42
0.0
10
68.5177001953125
20
67.8005981445312
40
0.0
41
0.0
42
0.0
10
68.5326995849609
20
67.8038024902344
40
0.0
41
0.0
42
0.0
10
68.6265029907227
20
67.8347015380859
40
0.0
41
0.0
42
0.0
10
68.7711029052734
20
67.8915023803711
40
0.0
41
0.0
42
0.0
10
68.9481964111328
20
67.9974975585938
40
0.0
41
0.0
42
0.0
10
69.0034027099609
20
68.0371017456055
40
0.0
41
0.0
42
0.0
10
69.021598815918
20
68.0736999511719
40
0.0
41
0.0
42
0.0
10
69.1528015136719
20
68.3208999633789
40
0.0
41
0.0
42
0.0
10
69.1651000976562
20
68.4819030761719
40
0.0
41
0.0
42
0.0
10
69.2024002075195
20
68.8161010742188
40
0.0
41
0.0
42
0.0
10
69.2023010253906
20
68.8535995483398
40
0.0
41
0.0
42
0.0
10
69.1819000244141
20
69.0179977416992
40
0.0
41
0.0
42
0.0
10
69.159797668457
20
69.3532028198242
40
0.0
41
0.0
42
0.0
10
69.1557998657227
20
69.3914031982422
40
0.0
41
0.0
42
0.0
10
69.1265029907227
20
69.5152969360352
40
0.0
41
0.0
42
0.0
10
69.0446014404297
20
69.8883972167969
40
0.0
41
0.0
42
0.0
10
69.0009002685547
20
69.9878997802734
40
0.0
41
0.0
42
0.0
10
68.9621963500977
20
70.0643005371094
40
0.0
41
0.0
42
0.0
10
68.8786010742188
20
70.1521987915039
40
0.0
41
0.0
42
0.0
10
68.6602020263672
20
70.4692001342773
40
0.0
41
0.0
42
0.0
10
68.6154022216797
20
70.5029983520508
40
0.0
41
0.0
42
0.0
10
68.4601974487305
20
70.6137008666992
40
0.0
41
0.0
42
0.0
10
68.3851013183594
20
70.6549987792969
40
0.0
41
0.0
42
0.0
10
68.0109024047852
20
70.8475036621094
40
0.0
41
0.0
42
0.0
10
67.8873977661133
20
70.901496887207
40
0.0
41
0.0
42
0.0
10
67.5931015014648
20
70.9999008178711
40
0.0
41
0.0
42
0.0
10
67.5139999389648
20
71.0246963500977
40
0.0
41
0.0
42
0.0
10
67.3914031982422
20
71.0584030151367
40
0.0
41
0.0
42
0.0
10
67.0193023681641
20
71.0828018188477
40
0.0
41
0.0
42
0.0
10
66.9848022460938
20
71.0827026367188
40
0.0
41
0.0
42
0.0
10
66.8271026611328
20
71.0054016113281
40
0.0
41
0.0
42
0.0
10
66.7842025756836
20
70.9992980957031
40
0.0
41
0.0
42
0.0
10
66.6832962036133
20
70.973503112793
40
0.0
41
0.0
42
0.0
10
66.4973983764648
20
70.8000030517578
40
0.0
41
0.0
42
0.0
10
66.4304962158203
20
70.6474990844727
40
0.0
41
0.0
42
0.0
10
66.3414001464844
20
70.5112991333008
40
0.0
41
0.0
42
0.0
10
66.2977981567383
20
70.3503036499023
40
0.0
41
0.0
42
0.0
10
66.2352981567383
20
70.0175018310547
40
0.0
41
0.0
42
0.0
10
66.2268981933594
20
69.8544006347656
40
0.0
41
0.0
42
0.0
10
66.2267990112305
20
69.815299987793
40
0.0
41
0.0
42
0.0
10
66.2377014160156
20
69.4814987182617
40
0.0
41
0.0
42
0.0
10
66.2572021484375
20
69.3190002441406
40
0.0
41
0.0
42
0.0
210
0.0
220
0.0
230
1.0
0
LWPOLYLINE
5
26
330
1C
100
AcDbEntity
67
0
8
0
62
256
6
ByLayer
370
-1
48
1.0
60
0
100
AcDbPolyline
90
54
70
1
38
0.0
39
0.0
10
66.3215026855469
20
70.3595962524414
40
0.0
41
0.0
42
0.0
10
66.3563995361328
20
70.4887008666992
40
0.0
41
0.0
42
0.0
10
66.4254989624023
20
70.5942001342773
40
0.0
41
0.0
42
0.0
10
66.5024032592773
20
70.7697982788086
40
0.0
41
0.0
42
0.0
10
66.7241973876953
20
70.9768981933594
40
0.0
41
0.0
42
0.0
10
66.8199996948242
20
71.0005035400391
40
0.0
41
0.0
42
0.0
10
66.8715972900391
20
71.0078964233398
40
0.0
41
0.0
42
0.0
10
67.0110015869141
20
71.0762023925781
40
0.0
41
0.0
42
0.0
10
67.3183975219727
20
71.0560989379883
40
0.0
41
0.0
42
0.0
10
67.4860000610352
20
71.0102005004883
40
0.0
41
0.0
42
0.0
10
67.8224029541016
20
70.8992004394531
40
0.0
41
0.0
42
0.0
10
67.988899230957
20
70.8264007568359
40
0.0
41
0.0
42
0.0
10
68.3247985839844
20
70.6537017822266
40
0.0
41
0.0
42
0.0
10
68.427001953125
20
70.5975036621094
40
0.0
41
0.0
42
0.0
10
68.5682983398438
20
70.4968032836914
40
0.0
41
0.0
42
0.0
10
68.6343002319336
20
70.4469985961914
40
0.0
41
0.0
42
0.0
10
68.831298828125
20
70.1612014770508
40
0.0
41
0.0
42
0.0
10
68.9440994262695
20
70.0427017211914
40
0.0
41
0.0
42
0.0
10
68.9990997314453
20
69.9355010986328
40
0.0
41
0.0
42
0.0
10
69.0126037597656
20
69.9007034301758
40
0.0
41
0.0
42
0.0
10
69.0482025146484
20
69.8216018676758
40
0.0
41
0.0
42
0.0
10
69.1221008300781
20
69.4845962524414
40
0.0
41
0.0
42
0.0
10
69.1595001220703
20
69.3266983032227
40
0.0
41
0.0
42
0.0
10
69.1821975708008
20
68.9819030761719
40
0.0
41
0.0
42
0.0
10
69.1956024169922
20
68.8740005493164
40
0.0
41
0.0
42
0.0
10
69.1559982299805
20
68.5179977416992
40
0.0
41
0.0
42
0.0
10
69.1462020874023
20
68.3889999389648
40
0.0
41
0.0
42
0.0
10
69.0434036254883
20
68.195198059082
40
0.0
41
0.0
42
0.0
10
68.9963989257812
20
68.1006011962891
40
0.0
41
0.0
42
0.0
10
68.8591995239258
20
68.0022964477539
40
0.0
41
0.0
42
0.0
10
68.7210998535156
20
67.9197006225586
40
0.0
41
0.0
42
0.0
10
68.6078033447266
20
67.8751983642578
40
0.0
41
0.0
42
0.0
10
68.4992980957031
20
67.839599609375
40
0.0
41
0.0
42
0.0
10
68.4871978759766
20
67.8368988037109
40
0.0
41
0.0
42
0.0
10
68.3946990966797
20
67.8397979736328
40
0.0
41
0.0
42
0.0
10
68.0168991088867
20
67.8384017944336
40
0.0
41
0.0
42
0.0
10
67.8900985717773
20
67.8672027587891
40
0.0
41
0.0
42
0.0
10
67.5130004882812
20
67.9609985351562
40
0.0
41
0.0
42
0.0
10
67.4244003295898
20
68.0008010864258
40
0.0
41
0.0
42
0.0
10
67.3200988769531
20
68.0511016845703
40
0.0
41
0.0
42
0.0
10
67.0092010498047
20
68.2166976928711
40
0.0
41
0.0
42
0.0
10
66.9372024536133
20
68.2636032104492
40
0.0
41
0.0
42
0.0
10
66.8807983398438
20
68.3199005126953
40
0.0
41
0.0
42
0.0
10
66.7397003173828
20
68.4355010986328
40
0.0
41
0.0
42
0.0
10
66.6822967529297
20
68.5072021484375
40
0.0
41
0.0
42
0.0
10
66.5026016235352
20
68.7540969848633
40
0.0
41
0.0
42
0.0
10
66.4512023925781
20
68.8318023681641
40
0.0
41
0.0
42
0.0
10
66.4207992553711
20
68.8862991333008
40
0.0
41
0.0
42
0.0
10
66.3770980834961
20
69.0137023925781
40
0.0
41
0.0
42
0.0
10
66.2714004516602
20
69.3908004760742
40
0.0
41
0.0
42
0.0
10
66.2563018798828
20
69.5184020996094
40
0.0
41
0.0
42
0.0
10
66.2446975708008
20
69.8706970214844
40
0.0
41
0.0
42
0.0
10
66.2505035400391
20
69.9824981689453
40
0.0
41
0.0
42
0.0
10
66.3215026855469
20
70.3595962524414
40
0.0
41
0.0
42
0.0
210
0.0
220
0.0
230
1.0
0
LWPOLYLINE
5
27
330
1C
100
AcDbEntity
67
0
8
0
62
256
6
ByLayer
370
-1
48
1.0
60
0
100
AcDbPolyline
90
59
70
1
38
0.0
39
0.0
10
67.9974975585938
20
81.0514984130859
40
0.0
41
0.0
42
0.0
10
68.0371017456055
20
80.9961013793945
40
0.0
41
0.0
42
0.0
10
68.3208999633789
20
80.8469009399414
40
0.0
41
0.0
42
0.0
10
68.4807968139648
20
80.8348007202148
40
0.0
41
0.0
42
0.0
10
68.5186996459961
20
80.8347015380859
40
0.0
41
0.0
42
0.0
10
68.665901184082
20
80.852897644043
40
0.0
41
0.0
42
0.0
10
68.9811019897461
20
80.818000793457
40
0.0
41
0.0
42
0.0
10
69.0175018310547
20
80.8179016113281
40
0.0
41
0.0
42
0.0
10
69.1503982543945
20
80.8492965698242
40
0.0
41
0.0
42
0.0
10
69.5169982910156
20
80.8735961914062
40
0.0
41
0.0
42
0.0
10
69.8883972167969
20
80.9551010131836
40
0.0
41
0.0
42
0.0
10
69.9877014160156
20
80.9989013671875
40
0.0
41
0.0
42
0.0
10
70.0075988769531
20
81.0093994140625
40
0.0
41
0.0
42
0.0
10
70.0334014892578
20
81.0339965820312
40
0.0
41
0.0
42
0.0
10
70.1523971557617
20
81.1213989257812
40
0.0
41
0.0
42
0.0
10
70.2863998413086
20
81.236701965332
40
0.0
41
0.0
42
0.0
10
70.504997253418
20
81.3872985839844
40
0.0
41
0.0
42
0.0
10
70.6138000488281
20
81.5397033691406
40
0.0
41
0.0
42
0.0
10
70.6550979614258
20
81.6147994995117
40
0.0
41
0.0
42
0.0
10
70.8475036621094
20
81.9889984130859
40
0.0
41
0.0
42
0.0
10
70.9016036987305
20
82.1125030517578
40
0.0
41
0.0
42
0.0
10
70.9999008178711
20
82.4067001342773
40
0.0
41
0.0
42
0.0
10
71.0248031616211
20
82.4859008789062
40
0.0
41
0.0
42
0.0
10
71.0584030151367
20
82.6084976196289
40
0.0
41
0.0
42
0.0
10
71.0828018188477
20
82.980598449707
40
0.0
41
0.0
42
0.0
10
71.0827026367188
20
83.0150985717773
40
0.0
41
0.0
42
0.0
10
71.0054016113281
20
83.1726989746094
40
0.0
41
0.0
42
0.0
10
70.9991989135742
20
83.2155990600586
40
0.0
41
0.0
42
0.0
10
70.973503112793
20
83.3164978027344
40
0.0
41
0.0
42
0.0
10
70.7998962402344
20
83.5024032592773
40
0.0
41
0.0
42
0.0
10
70.6474990844727
20
83.5691986083984
40
0.0
41
0.0
42
0.0
10
70.5119018554688
20
83.6577987670898
40
0.0
41
0.0
42
0.0
10
70.1802978515625
20
83.7201995849609
40
0.0
41
0.0
42
0.0
10
70.0170974731445
20
83.7643966674805
40
0.0
41
0.0
42
0.0
10
69.9803009033203
20
83.7643966674805
40
0.0
41
0.0
42
0.0
10
69.6691970825195
20
83.7542037963867
40
0.0
41
0.0
42
0.0
10
69.519401550293
20
83.7621002197266
40
0.0
41
0.0
42
0.0
10
69.4828033447266
20
83.7620010375977
40
0.0
41
0.0
42
0.0
10
69.1491012573242
20
83.6685028076172
40
0.0
41
0.0
42
0.0
10
68.9847030639648
20
83.6488037109375
40
0.0
41
0.0
42
0.0
10
68.823600769043
20
83.5934982299805
40
0.0
41
0.0
42
0.0
10
68.7791976928711
20
83.5688018798828
40
0.0
41
0.0
42
0.0
10
68.6791000366211
20
83.5027008056641
40
0.0
41
0.0
42
0.0
10
68.494499206543
20
83.3682022094727
40
0.0
41
0.0
42
0.0
10
68.428596496582
20
83.2879028320312
40
0.0
41
0.0
42
0.0
10
68.3007965087891
20
83.1706008911133
40
0.0
41
0.0
42
0.0
10
68.1700973510742
20
83.00830078125
40
0.0
41
0.0
42
0.0
10
68.0388031005859
20
82.7614974975586
40
0.0
41
0.0
42
0.0
10
67.9990005493164
20
82.6789016723633
40
0.0
41
0.0
42
0.0
10
67.924201965332
20
82.5130996704102
40
0.0
41
0.0
42
0.0
10
67.8414001464844
20
82.1800994873047
40
0.0
41
0.0
42
0.0
10
67.8046035766602
20
82.0176010131836
40
0.0
41
0.0
42
0.0
10
67.8058013916016
20
81.6800994873047
40
0.0
41
0.0
42
0.0
10
67.8006973266602
20
81.5276031494141
40
0.0
41
0.0
42
0.0
10
67.8005981445312
20
81.4821014404297
40
0.0
41
0.0
42
0.0
10
67.8038024902344
20
81.4671020507812
40
0.0
41
0.0
42
0.0
10
67.834602355957
20
81.3731994628906
40
0.0
41
0.0
42
0.0
10
67.8914031982422
20
81.2286987304688
40
0.0
41
0.0
42
0.0
10
67.9974975585938
20
81.0514984130859
40
0.0
41
0.0
42
0.0
210
0.0
220
0.0
230
1.0
0
LWPOLYLINE
5
28
330
1C
100
AcDbEntity
67
0
8
0
62
256
6
ByLayer
370
-1
48
1.0
60
0
100
AcDbPolyline
90
56
70
1
38
0.0
39
0.0
10
67.8398971557617
20
81.6352005004883
40
0.0
41
0.0
42
0.0
10
67.8384017944336
20
81.9830017089844
40
0.0
41
0.0
42
0.0
10
67.8672027587891
20
82.1098022460938
40
0.0
41
0.0
42
0.0
10
67.9609985351562
20
82.4869003295898
40
0.0
41
0.0
42
0.0
10
68.0009002685547
20
82.5753021240234
40
0.0
41
0.0
42
0.0
10
68.0511016845703
20
82.6797027587891
40
0.0
41
0.0
42
0.0
10
68.2173004150391
20
82.9916000366211
40
0.0
41
0.0
42
0.0
10
68.320198059082
20
83.1194000244141
40
0.0
41
0.0
42
0.0
10
68.4169998168945
20
83.2082977294922
40
0.0
41
0.0
42
0.0
10
68.5054016113281
20
83.3161010742188
40
0.0
41
0.0
42
0.0
10
68.7542037963867
20
83.497200012207
40
0.0
41
0.0
42
0.0
10
68.8318023681641
20
83.5485000610352
40
0.0
41
0.0
42
0.0
10
68.8863983154297
20
83.5789031982422
40
0.0
41
0.0
42
0.0
10
69.0151977539062
20
83.6231002807617
40
0.0
41
0.0
42
0.0
10
69.1408004760742
20
83.6381988525391
40
0.0
41
0.0
42
0.0
10
69.5113983154297
20
83.7418975830078
40
0.0
41
0.0
42
0.0
10
69.6054992675781
20
83.7371978759766
40
0.0
41
0.0
42
0.0
10
69.6445999145508
20
83.7370986938477
40
0.0
41
0.0
42
0.0
10
69.986701965332
20
83.7482986450195
40
0.0
41
0.0
42
0.0
10
70.1095962524414
20
83.7149963378906
40
0.0
41
0.0
42
0.0
10
70.4878997802734
20
83.6438980102539
40
0.0
41
0.0
42
0.0
10
70.5942001342773
20
83.5743026733398
40
0.0
41
0.0
42
0.0
10
70.7697982788086
20
83.4973983764648
40
0.0
41
0.0
42
0.0
10
70.9767990112305
20
83.2755966186523
40
0.0
41
0.0
42
0.0
10
71.0005035400391
20
83.179801940918
40
0.0
41
0.0
42
0.0
10
71.0078964233398
20
83.1281967163086
40
0.0
41
0.0
42
0.0
10
71.0762023925781
20
82.988899230957
40
0.0
41
0.0
42
0.0
10
71.0560989379883
20
82.6815032958984
40
0.0
41
0.0
42
0.0
10
71.0102005004883
20
82.5139007568359
40
0.0
41
0.0
42
0.0
10
70.899299621582
20
82.1773986816406
40
0.0
41
0.0
42
0.0
10
70.8264007568359
20
82.0109024047852
40
0.0
41
0.0
42
0.0
10
70.6537017822266
20
81.6751022338867
40
0.0
41
0.0
42
0.0
10
70.5976028442383
20
81.5727996826172
40
0.0
41
0.0
42
0.0
10
70.495002746582
20
81.428596496582
40
0.0
41
0.0
42
0.0
10
70.3373031616211
20
81.320198059082
40
0.0
41
0.0
42
0.0
10
70.1611022949219
20
81.1685028076172
40
0.0
41
0.0
42
0.0
10
70.0554962158203
20
81.0911026000977
40
0.0
41
0.0
42
0.0
10
69.992301940918
20
81.0307998657227
40
0.0
41
0.0
42
0.0
10
69.9356002807617
20
81.0008010864258
40
0.0
41
0.0
42
0.0
10
69.9008026123047
20
80.9870986938477
40
0.0
41
0.0
42
0.0
10
69.8216018676758
20
80.9514999389648
40
0.0
41
0.0
42
0.0
10
69.4829025268555
20
80.8772964477539
40
0.0
41
0.0
42
0.0
10
69.1476974487305
20
80.8551025390625
40
0.0
41
0.0
42
0.0
10
69.1093978881836
20
80.8473968505859
40
0.0
41
0.0
42
0.0
10
68.9940032958984
20
80.8200988769531
40
0.0
41
0.0
42
0.0
10
68.643798828125
20
80.8591995239258
40
0.0
41
0.0
42
0.0
10
68.606201171875
20
80.8591003417969
40
0.0
41
0.0
42
0.0
10
68.4956970214844
20
80.8453979492188
40
0.0
41
0.0
42
0.0
10
68.3889999389648
20
80.8535003662109
40
0.0
41
0.0
42
0.0
10
68.195198059082
20
80.9563980102539
40
0.0
41
0.0
42
0.0
10
68.1006011962891
20
81.0034027099609
40
0.0
41
0.0
42
0.0
10
68.0022964477539
20
81.1406021118164
40
0.0
41
0.0
42
0.0
10
67.9197006225586
20
81.2787017822266
40
0.0
41
0.0
42
0.0
10
67.8750991821289
20
81.3921966552734
40
0.0
41
0.0
42
0.0
10
67.8368988037109
20
81.5115966796875
40
0.0
41
0.0
42
0.0
10
67.8398971557617
20
81.6352005004883
40
0.0
41
0.0
42
0.0
210
0.0
220
0.0
230
1.0
0
LWPOLYLINE
5
29
330
1C
100
AcDbEntity
67
0
8
0
62
256
6
ByLayer
370
-1
48
1.0
60
0
100
AcDbPolyline
90
93
70
1
38
0.0
39
0.0
10
69.3998031616211
20
75.4860992431641
40
0.0
41
0.0
42
0.0
10
69.4919967651367
20
75.3491973876953
40
0.0
41
0.0
42
0.0
10
69.4989013671875
20
75.3364028930664
40
0.0
41
0.0
42
0.0
10
69.5472030639648
20
75.222297668457
40
0.0
41
0.0
42
0.0
10
69.6660003662109
20
74.9922027587891
40
0.0
41
0.0
42
0.0
10
69.9945983886719
20
74.6491012573242
40
0.0
41
0.0
42
0.0
10
70.0431976318359
20
74.6043014526367
40
0.0
41
0.0
42
0.0
10
70.1567993164062
20
74.4944000244141
40
0.0
41
0.0
42
0.0
10
70.4189987182617
20
74.1945037841797
40
0.0
41
0.0
42
0.0
10
70.4937973022461
20
74.1233978271484
40
0.0
41
0.0
42
0.0
10
70.559700012207
20
74.0706024169922
40
0.0
41
0.0
42
0.0
10
70.6408996582031
20
73.9897994995117
40
0.0
41
0.0
42
0.0
10
70.6589965820312
20
73.8572998046875
40
0.0
41
0.0
42
0.0
10
70.6900024414062
20
73.5091018676758
40
0.0
41
0.0
42
0.0
10
70.6500015258789
20
73.3887023925781
40
0.0
41
0.0
42
0.0
10
70.5057983398438
20
72.8892974853516
40
0.0
41
0.0
42
0.0
10
70.4029998779297
20
72.5161972045898
40
0.0
41
0.0
42
0.0
10
70.3599014282227
20
72.0189971923828
40
0.0
41
0.0
42
0.0
10
70.3598022460938
20
71.9839019775391
40
0.0
41
0.0
42
0.0
10
70.4942016601562
20
71.6438980102539
40
0.0
41
0.0
42
0.0
10
70.4996032714844
20
71.6247024536133
40
0.0
41
0.0
42
0.0
10
70.548698425293
20
71.5232009887695
40
0.0
41
0.0
42
0.0
10
70.5687026977539
20
71.4965972900391
40
0.0
41
0.0
42
0.0
10
70.9157028198242
20
71.3295974731445
40
0.0
41
0.0
42
0.0
10
70.9873962402344
20
71.2869033813477
40
0.0
41
0.0
42
0.0
10
71.1082000732422
20
71.2649002075195
40
0.0
41
0.0
42
0.0
10
71.4811019897461
20
71.2169036865234
40
0.0
41
0.0
42
0.0
10
71.511100769043
20
71.217399597168
40
0.0
41
0.0
42
0.0
10
71.1817016601562
20
71.2598037719727
40
0.0
41
0.0
42
0.0
10
71.0123977661133
20
71.2907028198242
40
0.0
41
0.0
42
0.0
10
70.9120025634766
20
71.3505020141602
40
0.0
41
0.0
42
0.0
10
70.5949020385742
20
71.5031967163086
40
0.0
41
0.0
42
0.0
10
70.5689010620117
20
71.5376968383789
40
0.0
41
0.0
42
0.0
10
70.5001983642578
20
71.6799011230469
40
0.0
41
0.0
42
0.0
10
70.4925003051758
20
71.7070007324219
40
0.0
41
0.0
42
0.0
10
70.3729019165039
20
72.0095977783203
40
0.0
41
0.0
42
0.0
10
70.4142990112305
20
72.4837036132812
40
0.0
41
0.0
42
0.0
10
70.5070037841797
20
72.8207015991211
40
0.0
41
0.0
42
0.0
10
70.6513977050781
20
73.3211975097656
40
0.0
41
0.0
42
0.0
10
70.7053985595703
20
73.4833984375
40
0.0
41
0.0
42
0.0
10
70.7053985595703
20
73.5189971923828
40
0.0
41
0.0
42
0.0
10
70.6756973266602
20
73.8526000976562
40
0.0
41
0.0
42
0.0
10
70.6541976928711
20
74.0100021362305
40
0.0
41
0.0
42
0.0
10
70.5927963256836
20
74.0711975097656
40
0.0
41
0.0
42
0.0
10
70.506103515625
20
74.1404037475586
40
0.0
41
0.0
42
0.0
10
70.4041976928711
20
74.2372970581055
40
0.0
41
0.0
42
0.0
10
70.1698989868164
20
74.505500793457
40
0.0
41
0.0
42
0.0
10
70.0699996948242
20
74.6019973754883
40
0.0
41
0.0
42
0.0
10
70.0052032470703
20
74.6617965698242
40
0.0
41
0.0
42
0.0
10
69.6740036010742
20
75.0075988769531
40
0.0
41
0.0
42
0.0
10
69.5645980834961
20
75.219596862793
40
0.0
41
0.0
42
0.0
10
69.5009002685547
20
75.3697967529297
40
0.0
41
0.0
42
0.0
10
69.4940032958984
20
75.382698059082
40
0.0
41
0.0
42
0.0
10
69.4092025756836
20
75.5087966918945
40
0.0
41
0.0
42
0.0
10
69.4448013305664
20
75.8191986083984
40
0.0
41
0.0
42
0.0
10
69.4533996582031
20
75.8473968505859
40
0.0
41
0.0
42
0.0
10
69.5040969848633
20
75.9903030395508
40
0.0
41
0.0
42
0.0
10
69.5426025390625
20
76.0381011962891
40
0.0
41
0.0
42
0.0
10
69.8394012451172
20
76.3303985595703
40
0.0
41
0.0
42
0.0
10
69.9675979614258
20
76.4422988891602
40
0.0
41
0.0
42
0.0
10
70.0476989746094
20
76.4977035522461
40
0.0
41
0.0
42
0.0
10
70.5098037719727
20
76.7667999267578
40
0.0
41
0.0
42
0.0
10
70.8958969116211
20
76.9709014892578
40
0.0
41
0.0
42
0.0
10
70.9360961914062
20
76.9962997436523
40
0.0
41
0.0
42
0.0
10
71.0029983520508
20
77.0660018920898
40
0.0
41
0.0
42
0.0
10
71.081298828125
20
77.1994018554688
40
0.0
41
0.0
42
0.0
10
71.1735992431641
20
77.3245010375977
40
0.0
41
0.0
42
0.0
10
71.2203979492188
20
77.4833984375
40
0.0
41
0.0
42
0.0
10
71.2338027954102
20
77.8153991699219
40
0.0
41
0.0
42
0.0
10
71.2337036132812
20
77.8541030883789
40
0.0
41
0.0
42
0.0
10
71.2201995849609
20
78.0184020996094
40
0.0
41
0.0
42
0.0
10
71.220703125
20
78.3546981811523
40
0.0
41
0.0
42
0.0
10
71.2176971435547
20
78.4744033813477
40
0.0
41
0.0
42
0.0
10
71.2199020385742
20
78.3573989868164
40
0.0
41
0.0
42
0.0
10
71.2193984985352
20
77.9807968139648
40
0.0
41
0.0
42
0.0
10
71.2285003662109
20
77.8685989379883
40
0.0
41
0.0
42
0.0
10
71.2144012451172
20
77.5165023803711
40
0.0
41
0.0
42
0.0
10
71.1759033203125
20
77.385498046875
40
0.0
41
0.0
42
0.0
10
71.1032028198242
20
77.2871017456055
40
0.0
41
0.0
42
0.0
10
70.9968032836914
20
77.1053009033203
40
0.0
41
0.0
42
0.0
10
70.8989028930664
20
77.0035018920898
40
0.0
41
0.0
42
0.0
10
70.8635025024414
20
76.981201171875
40
0.0
41
0.0
42
0.0
10
70.4900970458984
20
76.7842025756836
40
0.0
41
0.0
42
0.0
10
70.0062026977539
20
76.502197265625
40
0.0
41
0.0
42
0.0
10
69.9487991333008
20
76.4623031616211
40
0.0
41
0.0
42
0.0
10
69.8541030883789
20
76.3796005249023
40
0.0
41
0.0
42
0.0
10
69.5244979858398
20
76.0550003051758
40
0.0
41
0.0
42
0.0
10
69.4953994750977
20
76.0188980102539
40
0.0
41
0.0
42
0.0
10
69.4838027954102
20
76.0081024169922
40
0.0
41
0.0
42
0.0
10
69.4477005004883
20
75.9079971313477
40
0.0
41
0.0
42
0.0
10
69.4425964355469
20
75.8907012939453
40
0.0
41
0.0
42
0.0
10
69.3998031616211
20
75.5186996459961
40
0.0
41
0.0
42
0.0
10
69.3998031616211
20
75.4860992431641
40
0.0
41
0.0
42
0.0
210
0.0
220
0.0
230
1.0
0
LWPOLYLINE
5
2A
330
1C
100
AcDbEntity
67
0
8
0
62
256
6
ByLayer
370
-1
48
1.0
60
0
100
AcDbPolyline
90
93
70
1
38
0.0
39
0.0
10
71.217399597168
20
78.4879989624023
40
0.0
41
0.0
42
0.0
10
71.2599029541016
20
78.8181991577148
40
0.0
41
0.0
42
0.0
10
71.2907028198242
20
78.9875030517578
40
0.0
41
0.0
42
0.0
10
71.3506011962891
20
79.0876998901367
40
0.0
41
0.0
42
0.0
10
71.5031967163086
20
79.404899597168
40
0.0
41
0.0
42
0.0
10
71.5378036499023
20
79.4307022094727
40
0.0
41
0.0
42
0.0
10
71.6800003051758
20
79.4997024536133
40
0.0
41
0.0
42
0.0
10
71.7070999145508
20
79.5072021484375
40
0.0
41
0.0
42
0.0
10
72.0095977783203
20
79.6268005371094
40
0.0
41
0.0
42
0.0
10
72.4837036132812
20
79.5854034423828
40
0.0
41
0.0
42
0.0
10
72.8206024169922
20
79.4926986694336
40
0.0
41
0.0
42
0.0
10
72.986198425293
20
79.4450988769531
40
0.0
41
0.0
42
0.0
10
73.1511993408203
20
79.3900985717773
40
0.0
41
0.0
42
0.0
10
73.4829025268555
20
79.2945022583008
40
0.0
41
0.0
42
0.0
10
73.5185012817383
20
79.2945022583008
40
0.0
41
0.0
42
0.0
10
73.6826019287109
20
79.3168029785156
40
0.0
41
0.0
42
0.0
10
74.010498046875
20
79.3459014892578
40
0.0
41
0.0
42
0.0
10
74.0711975097656
20
79.4069976806641
40
0.0
41
0.0
42
0.0
10
74.1405029296875
20
79.4937973022461
40
0.0
41
0.0
42
0.0
10
74.2373962402344
20
79.5955963134766
40
0.0
41
0.0
42
0.0
10
74.505500793457
20
79.8298034667969
40
0.0
41
0.0
42
0.0
10
74.6020965576172
20
79.929801940918
40
0.0
41
0.0
42
0.0
10
74.6617965698242
20
79.9946975708008
40
0.0
41
0.0
42
0.0
10
75.0075988769531
20
80.3256988525391
40
0.0
41
0.0
42
0.0
10
75.219596862793
20
80.4350967407227
40
0.0
41
0.0
42
0.0
10
75.3697967529297
20
80.4990005493164
40
0.0
41
0.0
42
0.0
10
75.3827972412109
20
80.5056991577148
40
0.0
41
0.0
42
0.0
10
75.508903503418
20
80.5904998779297
40
0.0
41
0.0
42
0.0
10
75.8191986083984
20
80.5549011230469
40
0.0
41
0.0
42
0.0
10
75.8473968505859
20
80.5463027954102
40
0.0
41
0.0
42
0.0
10
75.9903030395508
20
80.4956970214844
40
0.0
41
0.0
42
0.0
10
76.0380020141602
20
80.4571990966797
40
0.0
41
0.0
42
0.0
10
76.3302993774414
20
80.1603012084961
40
0.0
41
0.0
42
0.0
10
76.4422988891602
20
80.032096862793
40
0.0
41
0.0
42
0.0
10
76.4975967407227
20
79.9521026611328
40
0.0
41
0.0
42
0.0
10
76.7667999267578
20
79.4900970458984
40
0.0
41
0.0
42
0.0
10
76.9709014892578
20
79.1038970947266
40
0.0
41
0.0
42
0.0
10
76.9962997436523
20
79.0636978149414
40
0.0
41
0.0
42
0.0
10
77.0659027099609
20
78.9968032836914
40
0.0
41
0.0
42
0.0
10
77.1994018554688
20
78.9184036254883
40
0.0
41
0.0
42
0.0
10
77.3244018554688
20
78.8261032104492
40
0.0
41
0.0
42
0.0
10
77.4830017089844
20
78.7796020507812
40
0.0
41
0.0
42
0.0
10
77.5190963745117
20
78.7795028686523
40
0.0
41
0.0
42
0.0
10
77.6713027954102
20
78.7919998168945
40
0.0
41
0.0
42
0.0
10
77.9802017211914
20
78.7796020507812
40
0.0
41
0.0
42
0.0
10
78.1641006469727
20
78.7833023071289
40
0.0
41
0.0
42
0.0
10
78.1052017211914
20
78.7834014892578
40
0.0
41
0.0
42
0.0
10
78.0045013427734
20
78.7808990478516
40
0.0
41
0.0
42
0.0
10
77.6445007324219
20
78.7956008911133
40
0.0
41
0.0
42
0.0
10
77.6057968139648
20
78.7955017089844
40
0.0
41
0.0
42
0.0
10
77.5091018676758
20
78.7874984741211
40
0.0
41
0.0
42
0.0
10
77.385498046875
20
78.8238983154297
40
0.0
41
0.0
42
0.0
10
77.2870025634766
20
78.8964996337891
40
0.0
41
0.0
42
0.0
10
77.1052017211914
20
79.0029983520508
40
0.0
41
0.0
42
0.0
10
77.0035018920898
20
79.1007995605469
40
0.0
41
0.0
42
0.0
10
76.9811019897461
20
79.1362991333008
40
0.0
41
0.0
42
0.0
10
76.7841033935547
20
79.5096969604492
40
0.0
41
0.0
42
0.0
10
76.502197265625
20
79.9935989379883
40
0.0
41
0.0
42
0.0
10
76.4623031616211
20
80.0510025024414
40
0.0
41
0.0
42
0.0
10
76.3795013427734
20
80.1456985473633
40
0.0
41
0.0
42
0.0
10
76.0550003051758
20
80.4753036499023
40
0.0
41
0.0
42
0.0
10
76.0188980102539
20
80.5044021606445
40
0.0
41
0.0
42
0.0
10
76.0081024169922
20
80.5158004760742
40
0.0
41
0.0
42
0.0
10
75.8910980224609
20
80.556999206543
40
0.0
41
0.0
42
0.0
10
75.5186996459961
20
80.60009765625
40
0.0
41
0.0
42
0.0
10
75.4863967895508
20
80.5999984741211
40
0.0
41
0.0
42
0.0
10
75.3486022949219
20
80.5072021484375
40
0.0
41
0.0
42
0.0
10
75.2225036621094
20
80.4524993896484
40
0.0
41
0.0
42
0.0
10
74.992301940918
20
80.3338012695312
40
0.0
41
0.0
42
0.0
10
74.6492004394531
20
80.0052032470703
40
0.0
41
0.0
42
0.0
10
74.6043014526367
20
79.9567031860352
40
0.0
41
0.0
42
0.0
10
74.494499206543
20
79.8430023193359
40
0.0
41
0.0
42
0.0
10
74.1945037841797
20
79.5809020996094
40
0.0
41
0.0
42
0.0
10
74.1233978271484
20
79.506103515625
40
0.0
41
0.0
42
0.0
10
74.0706024169922
20
79.4400024414062
40
0.0
41
0.0
42
0.0
10
73.989501953125
20
79.3583984375
40
0.0
41
0.0
42
0.0
10
73.6072998046875
20
79.3244018554688
40
0.0
41
0.0
42
0.0
10
73.5055999755859
20
79.3106002807617
40
0.0
41
0.0
42
0.0
10
73.1387023925781
20
79.4164962768555
40
0.0
41
0.0
42
0.0
10
73.0137023925781
20
79.4580993652344
40
0.0
41
0.0
42
0.0
10
72.8891983032227
20
79.4940032958984
40
0.0
41
0.0
42
0.0
10
72.5161972045898
20
79.5967025756836
40
0.0
41
0.0
42
0.0
10
72.0189971923828
20
79.6399993896484
40
0.0
41
0.0
42
0.0
10
71.984001159668
20
79.6399002075195
40
0.0
41
0.0
42
0.0
10
71.6438980102539
20
79.505500793457
40
0.0
41
0.0
42
0.0
10
71.6247024536133
20
79.5001983642578
40
0.0
41
0.0
42
0.0
10
71.5232009887695
20
79.4509963989258
40
0.0
41
0.0
42
0.0
10
71.496696472168
20
79.4310989379883
40
0.0
41
0.0
42
0.0
10
71.3296966552734
20
79.084098815918
40
0.0
41
0.0
42
0.0
10
71.2869033813477
20
79.0124969482422
40
0.0
41
0.0
42
0.0
10
71.2649002075195
20
78.8917007446289
40
0.0
41
0.0
42
0.0
10
71.2169036865234
20
78.518798828125
40
0.0
41
0.0
42
0.0
10
71.217399597168
20
78.4879989624023
40
0.0
41
0.0
42
0.0
210
0.0
220
0.0
230
1.0
0
LWPOLYLINE
5
2B
330
1C
100
AcDbEntity
67
0
8
0
62
256
6
ByLayer
370
-1
48
1.0
60
0
100
AcDbPolyline
90
94
70
1
38
0.0
39
0.0
10
78.4832992553711
20
78.7828979492188
40
0.0
41
0.0
42
0.0
10
78.6482009887695
20
78.7528991699219
40
0.0
41
0.0
42
0.0
10
78.9869003295898
20
78.7092971801758
40
0.0
41
0.0
42
0.0
10
79.0876998901367
20
78.6491012573242
40
0.0
41
0.0
42
0.0
10
79.404899597168
20
78.4965972900391
40
0.0
41
0.0
42
0.0
10
79.4307022094727
20
78.4619979858398
40
0.0
41
0.0
42
0.0
10
79.4996032714844
20
78.3198013305664
40
0.0
41
0.0
42
0.0
10
79.5072021484375
20
78.2927017211914
40
0.0
41
0.0
42
0.0
10
79.6268005371094
20
77.9903030395508
40
0.0
41
0.0
42
0.0
10
79.5855026245117
20
77.5161972045898
40
0.0
41
0.0
42
0.0
10
79.4926986694336
20
77.1792984008789
40
0.0
41
0.0
42
0.0
10
79.4450988769531
20
77.0137023925781
40
0.0
41
0.0
42
0.0
10
79.3901977539062
20
76.8487014770508
40
0.0
41
0.0
42
0.0
10
79.2945022583008
20
76.5169982910156
40
0.0
41
0.0
42
0.0
10
79.2944030761719
20
76.4813995361328
40
0.0
41
0.0
42
0.0
10
79.3168029785156
20
76.3172988891602
40
0.0
41
0.0
42
0.0
10
79.3458023071289
20
75.9894027709961
40
0.0
41
0.0
42
0.0
10
79.4068984985352
20
75.928596496582
40
0.0
41
0.0
42
0.0
10
79.4936981201172
20
75.8591995239258
40
0.0
41
0.0
42
0.0
10
79.5954971313477
20
75.7624969482422
40
0.0
41
0.0
42
0.0
10
79.8298034667969
20
75.4944000244141
40
0.0
41
0.0
42
0.0
10
79.9297027587891
20
75.3976974487305
40
0.0
41
0.0
42
0.0
10
79.9945983886719
20
75.3378982543945
40
0.0
41
0.0
42
0.0
10
80.3256988525391
20
74.9922027587891
40
0.0
41
0.0
42
0.0
10
80.4349975585938
20
74.7801971435547
40
0.0
41
0.0
42
0.0
10
80.4989013671875
20
74.6298980712891
40
0.0
41
0.0
42
0.0
10
80.5056991577148
20
74.6169967651367
40
0.0
41
0.0
42
0.0
10
80.5904998779297
20
74.4909973144531
40
0.0
41
0.0
42
0.0
10
80.5549011230469
20
74.1807022094727
40
0.0
41
0.0
42
0.0
10
80.5464019775391
20
74.1523971557617
40
0.0
41
0.0
42
0.0
10
80.4953994750977
20
74.0084991455078
40
0.0
41
0.0
42
0.0
10
80.1601028442383
20
73.6694030761719
40
0.0
41
0.0
42
0.0
10
80.0559997558594
20
73.5851974487305
40
0.0
41
0.0
42
0.0
10
79.9927978515625
20
73.5299987792969
40
0.0
41
0.0
42
0.0
10
79.9521026611328
20
73.502197265625
40
0.0
41
0.0
42
0.0
10
79.4901962280273
20
73.2330017089844
40
0.0
41
0.0
42
0.0
10
79.1038970947266
20
73.0289001464844
40
0.0
41
0.0
42
0.0
10
79.0636978149414
20
73.0035018920898
40
0.0
41
0.0
42
0.0
10
78.9968032836914
20
72.9338989257812
40
0.0
41
0.0
42
0.0
10
78.9184036254883
20
72.8003997802734
40
0.0
41
0.0
42
0.0
10
78.8261032104492
20
72.6754989624023
40
0.0
41
0.0
42
0.0
10
78.7796020507812
20
72.5168991088867
40
0.0
41
0.0
42
0.0
10
78.7795028686523
20
72.4807968139648
40
0.0
41
0.0
42
0.0
10
78.7919998168945
20
72.3285980224609
40
0.0
41
0.0
42
0.0
10
78.7796020507812
20
72.0196990966797
40
0.0
41
0.0
42
0.0
10
78.7833023071289
20
71.8357009887695
40
0.0
41
0.0
42
0.0
10
78.7834014892578
20
71.8946990966797
40
0.0
41
0.0
42
0.0
10
78.7808990478516
20
71.9953994750977
40
0.0
41
0.0
42
0.0
10
78.7956008911133
20
72.3554000854492
40
0.0
41
0.0
42
0.0
10
78.7955017089844
20
72.3940963745117
40
0.0
41
0.0
42
0.0
10
78.78759765625
20
72.4907989501953
40
0.0
41
0.0
42
0.0
10
78.8239974975586
20
72.6144027709961
40
0.0
41
0.0
42
0.0
10
78.8964996337891
20
72.7127990722656
40
0.0
41
0.0
42
0.0
10
79.0030975341797
20
72.8945007324219
40
0.0
41
0.0
42
0.0
10
79.1008987426758
20
72.9962997436523
40
0.0
41
0.0
42
0.0
10
79.1363983154297
20
73.0186004638672
40
0.0
41
0.0
42
0.0
10
79.5098037719727
20
73.2155990600586
40
0.0
41
0.0
42
0.0
10
79.9935989379883
20
73.4977035522461
40
0.0
41
0.0
42
0.0
10
80.0070037841797
20
73.5068969726562
40
0.0
41
0.0
42
0.0
10
80.0306015014648
20
73.5273971557617
40
0.0
41
0.0
42
0.0
10
80.1458969116211
20
73.6205978393555
40
0.0
41
0.0
42
0.0
10
80.415397644043
20
73.8930969238281
40
0.0
41
0.0
42
0.0
10
80.5158996582031
20
73.9916000366211
40
0.0
41
0.0
42
0.0
10
80.552001953125
20
74.091796875
40
0.0
41
0.0
42
0.0
10
80.5571975708008
20
74.1091995239258
40
0.0
41
0.0
42
0.0
10
80.60009765625
20
74.481201171875
40
0.0
41
0.0
42
0.0
10
80.5998992919922
20
74.5134963989258
40
0.0
41
0.0
42
0.0
10
80.5072021484375
20
74.6511993408203
40
0.0
41
0.0
42
0.0
10
80.4524993896484
20
74.7772979736328
40
0.0
41
0.0
42
0.0
10
80.3337020874023
20
75.0075988769531
40
0.0
41
0.0
42
0.0
10
80.0052032470703
20
75.3506011962891
40
0.0
41
0.0
42
0.0
10
79.9565963745117
20
75.3954010009766
40
0.0
41
0.0
42
0.0
10
79.842903137207
20
75.5054016113281
40
0.0
41
0.0
42
0.0
10
79.5808029174805
20
75.8052978515625
40
0.0
41
0.0
42
0.0
10
79.5059967041016
20
75.8762969970703
40
0.0
41
0.0
42
0.0
10
79.4400024414062
20
75.92919921875
40
0.0
41
0.0
42
0.0
10
79.3583984375
20
76.0103988647461
40
0.0
41
0.0
42
0.0
10
79.3244018554688
20
76.3926010131836
40
0.0
41
0.0
42
0.0
10
79.3106002807617
20
76.4943008422852
40
0.0
41
0.0
42
0.0
10
79.4164962768555
20
76.861198425293
40
0.0
41
0.0
42
0.0
10
79.4581985473633
20
76.986198425293
40
0.0
41
0.0
42
0.0
10
79.4940032958984
20
77.1107025146484
40
0.0
41
0.0
42
0.0
10
79.5967025756836
20
77.4837036132812
40
0.0
41
0.0
42
0.0
10
79.6399993896484
20
77.9809036254883
40
0.0
41
0.0
42
0.0
10
79.6399002075195
20
78.0158996582031
40
0.0
41
0.0
42
0.0
10
79.5054016113281
20
78.3559036254883
40
0.0
41
0.0
42
0.0
10
79.5001983642578
20
78.3750991821289
40
0.0
41
0.0
42
0.0
10
79.4509963989258
20
78.4765014648438
40
0.0
41
0.0
42
0.0
10
79.4309997558594
20
78.5031967163086
40
0.0
41
0.0
42
0.0
10
79.084098815918
20
78.6700973510742
40
0.0
41
0.0
42
0.0
10
79.0129013061523
20
78.7125015258789
40
0.0
41
0.0
42
0.0
10
78.6417007446289
20
78.7602996826172
40
0.0
41
0.0
42
0.0
10
78.5179977416992
20
78.7828979492188
40
0.0
41
0.0
42
0.0
10
78.4832992553711
20
78.7828979492188
40
0.0
41
0.0
42
0.0
210
0.0
220
0.0
230
1.0
0
LWPOLYLINE
5
2C
330
1C
100
AcDbEntity
67
0
8
0
62
256
6
ByLayer
370
-1
48
1.0
60
0
100
AcDbPolyline
90
91
70
1
38
0.0
39
0.0
10
78.7828979492188
20
71.5165023803711
40
0.0
41
0.0
42
0.0
10
78.7528991699219
20
71.3516998291016
40
0.0
41
0.0
42
0.0
10
78.7092971801758
20
71.0129013061523
40
0.0
41
0.0
42
0.0
10
78.6492004394531
20
70.9121017456055
40
0.0
41
0.0
42
0.0
10
78.496696472168
20
70.5949020385742
40
0.0
41
0.0
42
0.0
10
78.4619979858398
20
70.5690002441406
40
0.0
41
0.0
42
0.0
10
78.3198013305664
20
70.5001983642578
40
0.0
41
0.0
42
0.0
10
78.2928009033203
20
70.4925994873047
40
0.0
41
0.0
42
0.0
10
77.9903030395508
20
70.3729019165039
40
0.0
41
0.0
42
0.0
10
77.5161972045898
20
70.4141998291016
40
0.0
41
0.0
42
0.0
10
77.17919921875
20
70.5070037841797
40
0.0
41
0.0
42
0.0
10
76.6787033081055
20
70.6513977050781
40
0.0
41
0.0
42
0.0
10
76.5165023803711
20
70.7053985595703
40
0.0
41
0.0
42
0.0
10
76.4809036254883
20
70.7053985595703
40
0.0
41
0.0
42
0.0
10
76.1473007202148
20
70.6756973266602
40
0.0
41
0.0
42
0.0
10
75.9897994995117
20
70.654296875
40
0.0
41
0.0
42
0.0
10
75.9287033081055
20
70.5927963256836
40
0.0
41
0.0
42
0.0
10
75.8592987060547
20
70.506103515625
40
0.0
41
0.0
42
0.0
10
75.7624969482422
20
70.4041976928711
40
0.0
41
0.0
42
0.0
10
75.4944000244141
20
70.1698989868164
40
0.0
41
0.0
42
0.0
10
75.3976974487305
20
70.0699996948242
40
0.0
41
0.0
42
0.0
10
75.3379974365234
20
70.0052032470703
40
0.0
41
0.0
42
0.0
10
74.992301940918
20
69.6741027832031
40
0.0
41
0.0
42
0.0
10
74.7801971435547
20
69.564697265625
40
0.0
41
0.0
42
0.0
10
74.629997253418
20
69.5009994506836
40
0.0
41
0.0
42
0.0
10
74.6171035766602
20
69.4941024780273
40
0.0
41
0.0
42
0.0
10
74.491096496582
20
69.4092025756836
40
0.0
41
0.0
42
0.0
10
74.1807022094727
20
69.4448013305664
40
0.0
41
0.0
42
0.0
10
74.1523971557617
20
69.4533996582031
40
0.0
41
0.0
42
0.0
10
74.0082015991211
20
69.5044021606445
40
0.0
41
0.0
42
0.0
10
73.5858001708984
20
69.9430999755859
40
0.0
41
0.0
42
0.0
10
73.5299987792969
20
70.0070037841797
40
0.0
41
0.0
42
0.0
10
73.5020980834961
20
70.0476989746094
40
0.0
41
0.0
42
0.0
10
73.2329025268555
20
70.5096969604492
40
0.0
41
0.0
42
0.0
10
73.0288009643555
20
70.8958969116211
40
0.0
41
0.0
42
0.0
10
73.0035018920898
20
70.9359970092773
40
0.0
41
0.0
42
0.0
10
72.9337997436523
20
71.0029983520508
40
0.0
41
0.0
42
0.0
10
72.8003997802734
20
71.081298828125
40
0.0
41
0.0
42
0.0
10
72.6753997802734
20
71.1735992431641
40
0.0
41
0.0
42
0.0
10
72.5165023803711
20
71.2203979492188
40
0.0
41
0.0
42
0.0
10
72.1845016479492
20
71.2338027954102
40
0.0
41
0.0
42
0.0
10
72.1457977294922
20
71.2337036132812
40
0.0
41
0.0
42
0.0
10
71.9814987182617
20
71.2201995849609
40
0.0
41
0.0
42
0.0
10
71.6452026367188
20
71.220703125
40
0.0
41
0.0
42
0.0
10
71.5382995605469
20
71.217903137207
40
0.0
41
0.0
42
0.0
10
71.6425018310547
20
71.2199020385742
40
0.0
41
0.0
42
0.0
10
72.0190963745117
20
71.2193984985352
40
0.0
41
0.0
42
0.0
10
72.1313018798828
20
71.2285003662109
40
0.0
41
0.0
42
0.0
10
72.4833984375
20
71.2144012451172
40
0.0
41
0.0
42
0.0
10
72.6144027709961
20
71.1757965087891
40
0.0
41
0.0
42
0.0
10
72.7126998901367
20
71.1032028198242
40
0.0
41
0.0
42
0.0
10
72.8945007324219
20
70.9968032836914
40
0.0
41
0.0
42
0.0
10
72.9962997436523
20
70.8988037109375
40
0.0
41
0.0
42
0.0
10
73.0186004638672
20
70.8634033203125
40
0.0
41
0.0
42
0.0
10
73.2155990600586
20
70.4900970458984
40
0.0
41
0.0
42
0.0
10
73.4977035522461
20
70.0062026977539
40
0.0
41
0.0
42
0.0
10
73.5068969726562
20
69.9927978515625
40
0.0
41
0.0
42
0.0
10
73.5268020629883
20
69.9699020385742
40
0.0
41
0.0
42
0.0
10
73.7156982421875
20
69.7736968994141
40
0.0
41
0.0
42
0.0
10
73.8934020996094
20
69.584098815918
40
0.0
41
0.0
42
0.0
10
73.9916000366211
20
69.4838027954102
40
0.0
41
0.0
42
0.0
10
74.091796875
20
69.4477005004883
40
0.0
41
0.0
42
0.0
10
74.1091003417969
20
69.442497253418
40
0.0
41
0.0
42
0.0
10
74.481201171875
20
69.3998031616211
40
0.0
41
0.0
42
0.0
10
74.5134963989258
20
69.3998031616211
40
0.0
41
0.0
42
0.0
10
74.6511993408203
20
69.4925003051758
40
0.0
41
0.0
42
0.0
10
74.7773971557617
20
69.5472030639648
40
0.0
41
0.0
42
0.0
10
75.0075988769531
20
69.6660003662109
40
0.0
41
0.0
42
0.0
10
75.3506011962891
20
69.9946975708008
40
0.0
41
0.0
42
0.0
10
75.3955001831055
20
70.0432968139648
40
0.0
41
0.0
42
0.0
10
75.5054016113281
20
70.1567993164062
40
0.0
41
0.0
42
0.0
10
75.8053970336914
20
70.4189987182617
40
0.0
41
0.0
42
0.0
10
75.8764038085938
20
70.4937973022461
40
0.0
41
0.0
42
0.0
10
75.9292984008789
20
70.5597991943359
40
0.0
41
0.0
42
0.0
10
76.0101013183594
20
70.6408996582031
40
0.0
41
0.0
42
0.0
10
76.1426010131836
20
70.6589965820312
40
0.0
41
0.0
42
0.0
10
76.4907989501953
20
70.6899032592773
40
0.0
41
0.0
42
0.0
10
76.6181030273438
20
70.6477966308594
40
0.0
41
0.0
42
0.0
10
77.1106033325195
20
70.5057983398438
40
0.0
41
0.0
42
0.0
10
77.4837036132812
20
70.4029998779297
40
0.0
41
0.0
42
0.0
10
77.9809036254883
20
70.3599014282227
40
0.0
41
0.0
42
0.0
10
78.0158996582031
20
70.3599014282227
40
0.0
41
0.0
42
0.0
10
78.3557968139648
20
70.4943008422852
40
0.0
41
0.0
42
0.0
10
78.3750991821289
20
70.4997024536133
40
0.0
41
0.0
42
0.0
10
78.4766006469727
20
70.5487976074219
40
0.0
41
0.0
42
0.0
10
78.5031967163086
20
70.5687026977539
40
0.0
41
0.0
42
0.0
10
78.6700973510742
20
70.9157028198242
40
0.0
41
0.0
42
0.0
10
78.7125015258789
20
70.9869995117188
40
0.0
41
0.0
42
0.0
10
78.7603988647461
20
71.3582000732422
40
0.0
41
0.0
42
0.0
10
78.7828979492188
20
71.4819030761719
40
0.0
41
0.0
42
0.0
10
78.7828979492188
20
71.5165023803711
40
0.0
41
0.0
42
0.0
210
0.0
220
0.0
230
1.0
0
LWPOLYLINE
5
2D
330
1C
100
AcDbEntity
67
0
8
0
62
256
6
ByLayer
370
-1
48
1.0
60
0
100
AcDbPolyline
90
75
70
1
38
0.0
39
0.0
10
71.9469985961914
20
65.9847030639648
40
0.0
41
0.0
42
0.0
10
71.9537963867188
20
65.9709014892578
40
0.0
41
0.0
42
0.0
10
72.002197265625
20
65.8059997558594
40
0.0
41
0.0
42
0.0
10
72.1611022949219
20
65.4908981323242
40
0.0
41
0.0
42
0.0
10
72.2794036865234
20
65.3280029296875
40
0.0
41
0.0
42
0.0
10
72.4946975708008
20
65.0792999267578
40
0.0
41
0.0
42
0.0
10
72.5868988037109
20
65.0009994506836
40
0.0
41
0.0
42
0.0
10
72.6309967041016
20
65.0009994506836
40
0.0
41
0.0
42
0.0
10
72.6308975219727
20
65.0102005004883
40
0.0
41
0.0
42
0.0
10
72.5050964355469
20
65.117301940918
40
0.0
41
0.0
42
0.0
10
72.2760009765625
20
65.3818969726562
40
0.0
41
0.0
42
0.0
10
72.1836013793945
20
65.508903503418
40
0.0
41
0.0
42
0.0
10
72.0024032592773
20
65.8685989379883
40
0.0
41
0.0
42
0.0
10
71.9632034301758
20
66.0020980834961
40
0.0
41
0.0
42
0.0
10
71.9900970458984
20
66.0615005493164
40
0.0
41
0.0
42
0.0
10
71.999397277832
20
66.171501159668
40
0.0
41
0.0
42
0.0
10
72.0268020629883
20
66.4251022338867
40
0.0
41
0.0
42
0.0
10
72.068603515625
20
66.4953994750977
40
0.0
41
0.0
42
0.0
10
72.1980972290039
20
66.5690994262695
40
0.0
41
0.0
42
0.0
10
72.5082015991211
20
66.8522033691406
40
0.0
41
0.0
42
0.0
10
72.6745986938477
20
66.929801940918
40
0.0
41
0.0
42
0.0
10
72.7517013549805
20
66.9822006225586
40
0.0
41
0.0
42
0.0
10
73.0124969482422
20
67.1035995483398
40
0.0
41
0.0
42
0.0
10
73.1787033081055
20
67.1536026000977
40
0.0
41
0.0
42
0.0
10
73.5158004760742
20
67.2636032104492
40
0.0
41
0.0
42
0.0
10
73.6837997436523
20
67.2774963378906
40
0.0
41
0.0
42
0.0
10
73.9860992431641
20
67.2855987548828
40
0.0
41
0.0
42
0.0
10
74.151496887207
20
67.2445983886719
40
0.0
41
0.0
42
0.0
10
74.4890975952148
20
67.1070022583008
40
0.0
41
0.0
42
0.0
10
74.5028991699219
20
67.0991973876953
40
0.0
41
0.0
42
0.0
10
74.6392974853516
20
66.9963989257812
40
0.0
41
0.0
42
0.0
10
74.8382034301758
20
66.8324966430664
40
0.0
41
0.0
42
0.0
10
74.9908981323242
20
66.7487030029297
40
0.0
41
0.0
42
0.0
10
75.0863037109375
20
66.684196472168
40
0.0
41
0.0
42
0.0
10
75.2898025512695
20
66.4928970336914
40
0.0
41
0.0
42
0.0
10
75.4621963500977
20
66.1818008422852
40
0.0
41
0.0
42
0.0
10
75.5877990722656
20
66.0569000244141
40
0.0
41
0.0
42
0.0
10
75.6280975341797
20
65.9870986938477
40
0.0
41
0.0
42
0.0
10
75.6461029052734
20
65.8769989013672
40
0.0
41
0.0
42
0.0
10
75.5691986083984
20
65.5114974975586
40
0.0
41
0.0
42
0.0
10
75.4962997436523
20
65.4055023193359
40
0.0
41
0.0
42
0.0
10
75.1253967285156
20
65.0115966796875
40
0.0
41
0.0
42
0.0
10
75.1253967285156
20
65.0009994506836
40
0.0
41
0.0
42
0.0
10
75.1903991699219
20
65.0009994506836
40
0.0
41
0.0
42
0.0
10
75.5035018920898
20
65.3333969116211
40
0.0
41
0.0
42
0.0
10
75.6100006103516
20
65.4884033203125
40
0.0
41
0.0
42
0.0
10
75.67919921875
20
65.8171005249023
40
0.0
41
0.0
42
0.0
10
75.6791000366211
20
65.8532028198242
40
0.0
41
0.0
42
0.0
10
75.6529998779297
20
66.0128021240234
40
0.0
41
0.0
42
0.0
10
75.6235961914062
20
66.0642013549805
40
0.0
41
0.0
42
0.0
10
75.4572982788086
20
66.2293014526367
40
0.0
41
0.0
42
0.0
10
75.303596496582
20
66.5067977905273
40
0.0
41
0.0
42
0.0
10
75.1259994506836
20
66.6735992431641
40
0.0
41
0.0
42
0.0
10
75.008903503418
20
66.7535018920898
40
0.0
41
0.0
42
0.0
10
74.8917999267578
20
66.8178024291992
40
0.0
41
0.0
42
0.0
10
74.6666030883789
20
67.0034027099609
40
0.0
41
0.0
42
0.0
10
74.5170974731445
20
67.1162033081055
40
0.0
41
0.0
42
0.0
10
74.5108032226562
20
67.1196975708008
40
0.0
41
0.0
42
0.0
10
74.1383972167969
20
67.2714996337891
40
0.0
41
0.0
42
0.0
10
74.0176010131836
20
67.3014984130859
40
0.0
41
0.0
42
0.0
10
73.6061019897461
20
67.2914962768555
40
0.0
41
0.0
42
0.0
10
73.4841003417969
20
67.2813034057617
40
0.0
41
0.0
42
0.0
10
73.1112976074219
20
67.1595993041992
40
0.0
41
0.0
42
0.0
10
72.9875030517578
20
67.1223983764648
40
0.0
41
0.0
42
0.0
10
72.7015991210938
20
66.989501953125
40
0.0
41
0.0
42
0.0
10
72.6154022216797
20
66.9309005737305
40
0.0
41
0.0
42
0.0
10
72.4917984008789
20
66.8731994628906
40
0.0
41
0.0
42
0.0
10
72.1461029052734
20
66.5574035644531
40
0.0
41
0.0
42
0.0
10
72.0528030395508
20
66.5044021606445
40
0.0
41
0.0
42
0.0
10
72.0285034179688
20
66.4636001586914
40
0.0
41
0.0
42
0.0
10
72.0262985229492
20
66.4524002075195
40
0.0
41
0.0
42
0.0
10
72.0008010864258
20
66.2158966064453
40
0.0
41
0.0
42
0.0
10
71.9924011230469
20
66.1151962280273
40
0.0
41
0.0
42
0.0
10
71.9471969604492
20
66.0154037475586
40
0.0
41
0.0
42
0.0
10
71.9469985961914
20
65.9847030639648
40
0.0
41
0.0
42
0.0
210
0.0
220
0.0
230
1.0
0
LWPOLYLINE
5
2E
330
1C
100
AcDbEntity
67
0
8
0
62
256
6
ByLayer
370
-1
48
1.0
60
0
100
AcDbPolyline
90
98
70
1
38
0.0
39
0.0
10
72.6050033569336
20
74.4903030395508
40
0.0
41
0.0
42
0.0
10
72.8986968994141
20
74.2660980224609
40
0.0
41
0.0
42
0.0
10
72.9900970458984
20
74.1824035644531
40
0.0
41
0.0
42
0.0
10
73.1489028930664
20
74.1442031860352
40
0.0
41
0.0
42
0.0
10
73.4858016967773
20
74.0960006713867
40
0.0
41
0.0
42
0.0
10
73.529296875
20
74.0765991210938
40
0.0
41
0.0
42
0.0
10
73.7282028198242
20
73.9946975708008
40
0.0
41
0.0
42
0.0
10
73.747802734375
20
73.8443984985352
40
0.0
41
0.0
42
0.0
10
73.6743011474609
20
73.5176010131836
40
0.0
41
0.0
42
0.0
10
73.674201965332
20
73.4822006225586
40
0.0
41
0.0
42
0.0
10
73.7012023925781
20
73.3587036132812
40
0.0
41
0.0
42
0.0
10
73.7556991577148
20
72.9931030273438
40
0.0
41
0.0
42
0.0
10
73.9380035400391
20
72.8892974853516
40
0.0
41
0.0
42
0.0
10
73.9870986938477
20
72.8514022827148
40
0.0
41
0.0
42
0.0
10
74.0124969482422
20
72.8514022827148
40
0.0
41
0.0
42
0.0
10
74.1922988891602
20
72.997200012207
40
0.0
41
0.0
42
0.0
10
74.2928009033203
20
73.0565032958984
40
0.0
41
0.0
42
0.0
10
74.5113983154297
20
73.2414016723633
40
0.0
41
0.0
42
0.0
10
74.6837005615234
20
73.2591018676758
40
0.0
41
0.0
42
0.0
10
74.9901962280273
20
73.2629013061523
40
0.0
41
0.0
42
0.0
10
75.0511016845703
20
73.1885986328125
40
0.0
41
0.0
42
0.0
10
75.1603012084961
20
72.9918975830078
40
0.0
41
0.0
42
0.0
10
75.4184036254883
20
72.6863021850586
40
0.0
41
0.0
42
0.0
10
75.489501953125
20
72.6051025390625
40
0.0
41
0.0
42
0.0
10
75.5095977783203
20
72.6050033569336
40
0.0
41
0.0
42
0.0
10
75.7338027954102
20
72.8986968994141
40
0.0
41
0.0
42
0.0
10
75.8167037963867
20
72.9893035888672
40
0.0
41
0.0
42
0.0
10
75.8638000488281
20
73.3189010620117
40
0.0
41
0.0
42
0.0
10
75.9041976928711
20
73.486701965332
40
0.0
41
0.0
42
0.0
10
75.9231033325195
20
73.5294036865234
40
0.0
41
0.0
42
0.0
10
76.0052032470703
20
73.7282028198242
40
0.0
41
0.0
42
0.0
10
76.1555023193359
20
73.747802734375
40
0.0
41
0.0
42
0.0
10
76.4822998046875
20
73.6743011474609
40
0.0
41
0.0
42
0.0
10
76.5177001953125
20
73.674201965332
40
0.0
41
0.0
42
0.0
10
76.6411972045898
20
73.7012023925781
40
0.0
41
0.0
42
0.0
10
77.0067977905273
20
73.7557983398438
40
0.0
41
0.0
42
0.0
10
77.1103973388672
20
73.938102722168
40
0.0
41
0.0
42
0.0
10
77.1484985351562
20
73.9870986938477
40
0.0
41
0.0
42
0.0
10
77.1483001708984
20
74.0124969482422
40
0.0
41
0.0
42
0.0
10
77.0026016235352
20
74.1921997070312
40
0.0
41
0.0
42
0.0
10
76.9432983398438
20
74.2928009033203
40
0.0
41
0.0
42
0.0
10
76.7575988769531
20
74.5121002197266
40
0.0
41
0.0
42
0.0
10
76.7535018920898
20
74.8536987304688
40
0.0
41
0.0
42
0.0
10
76.7393035888672
20
74.9921035766602
40
0.0
41
0.0
42
0.0
10
76.8112030029297
20
75.0511016845703
40
0.0
41
0.0
42
0.0
10
77.0080032348633
20
75.1603012084961
40
0.0
41
0.0
42
0.0
10
77.3134002685547
20
75.4184036254883
40
0.0
41
0.0
42
0.0
10
77.3947982788086
20
75.489501953125
40
0.0
41
0.0
42
0.0
10
77.3946990966797
20
75.5094985961914
40
0.0
41
0.0
42
0.0
10
77.1009979248047
20
75.7337036132812
40
0.0
41
0.0
42
0.0
10
77.010498046875
20
75.8167037963867
40
0.0
41
0.0
42
0.0
10
76.6809997558594
20
75.8638000488281
40
0.0
41
0.0
42
0.0
10
76.5133972167969
20
75.9040985107422
40
0.0
41
0.0
42
0.0
10
76.2748031616211
20
76.0039978027344
40
0.0
41
0.0
42
0.0
10
76.3453979492188
20
76.3172988891602
40
0.0
41
0.0
42
0.0
10
76.3452987670898
20
76.3539962768555
40
0.0
41
0.0
42
0.0
10
76.3420028686523
20
76.3927001953125
40
0.0
41
0.0
42
0.0
10
76.3256988525391
20
76.5169982910156
40
0.0
41
0.0
42
0.0
10
76.2698974609375
20
76.8910980224609
40
0.0
41
0.0
42
0.0
10
76.2446975708008
20
77.0063018798828
40
0.0
41
0.0
42
0.0
10
76.0616989135742
20
77.1103973388672
40
0.0
41
0.0
42
0.0
10
76.0128021240234
20
77.1484985351562
40
0.0
41
0.0
42
0.0
10
75.9873962402344
20
77.1483993530273
40
0.0
41
0.0
42
0.0
10
75.807502746582
20
77.0027008056641
40
0.0
41
0.0
42
0.0
10
75.7070007324219
20
76.9433975219727
40
0.0
41
0.0
42
0.0
10
75.4878005981445
20
76.7575988769531
40
0.0
41
0.0
42
0.0
10
75.1462020874023
20
76.7536010742188
40
0.0
41
0.0
42
0.0
10
75.0077972412109
20
76.7391967773438
40
0.0
41
0.0
42
0.0
10
74.948600769043
20
76.8112030029297
40
0.0
41
0.0
42
0.0
10
74.8395004272461
20
77.0078964233398
40
0.0
41
0.0
42
0.0
10
74.581298828125
20
77.3134002685547
40
0.0
41
0.0
42
0.0
10
74.5103988647461
20
77.3947982788086
40
0.0
41
0.0
42
0.0
10
74.4903030395508
20
77.3947982788086
40
0.0
41
0.0
42
0.0
10
74.2660980224609
20
77.1010971069336
40
0.0
41
0.0
42
0.0
10
74.1824035644531
20
77.0098037719727
40
0.0
41
0.0
42
0.0
10
74.1442031860352
20
76.8509979248047
40
0.0
41
0.0
42
0.0
10
74.0960998535156
20
76.5140991210938
40
0.0
41
0.0
42
0.0
10
74.0766983032227
20
76.4704971313477
40
0.0
41
0.0
42
0.0
10
73.9960021972656
20
76.2746963500977
40
0.0
41
0.0
42
0.0
10
73.6826019287109
20
76.3453979492188
40
0.0
41
0.0
42
0.0
10
73.6458969116211
20
76.3452987670898
40
0.0
41
0.0
42
0.0
10
73.6072006225586
20
76.3420028686523
40
0.0
41
0.0
42
0.0
10
73.4829025268555
20
76.3256988525391
40
0.0
41
0.0
42
0.0
10
73.1088027954102
20
76.2698974609375
40
0.0
41
0.0
42
0.0
10
72.9934997558594
20
76.2447967529297
40
0.0
41
0.0
42
0.0
10
72.8892974853516
20
76.0617980957031
40
0.0
41
0.0
42
0.0
10
72.8514022827148
20
76.0128021240234
40
0.0
41
0.0
42
0.0
10
72.8513031005859
20
75.9873962402344
40
0.0
41
0.0
42
0.0
10
72.997200012207
20
75.807502746582
40
0.0
41
0.0
42
0.0
10
73.0565032958984
20
75.706901550293
40
0.0
41
0.0
42
0.0
10
73.2414016723633
20
75.4885025024414
40
0.0
41
0.0
42
0.0
10
73.2591018676758
20
75.3162002563477
40
0.0
41
0.0
42
0.0
10
73.2630004882812
20
75.0096969604492
40
0.0
41
0.0
42
0.0
10
73.1886978149414
20
74.948600769043
40
0.0
41
0.0
42
0.0
10
72.9918975830078
20
74.839599609375
40
0.0
41
0.0
42
0.0
10
72.6864013671875
20
74.5813980102539
40
0.0
41
0.0
42
0.0
10
72.6051025390625
20
74.5103988647461
40
0.0
41
0.0
42
0.0
10
72.6050033569336
20
74.4903030395508
40
0.0
41
0.0
42
0.0
210
0.0
220
0.0
230
1.0
0
LWPOLYLINE
5
2F
330
1C
100
AcDbEntity
67
0
8
0
62
256
6
ByLayer
370
-1
48
1.0
60
0
100
AcDbPolyline
90
93
70
1
38
0.0
39
0.0
10
73.0080032348633
20
74.831298828125
40
0.0
41
0.0
42
0.0
10
73.1948013305664
20
74.9348983764648
40
0.0
41
0.0
42
0.0
10
73.2154006958008
20
74.9492034912109
40
0.0
41
0.0
42
0.0
10
73.2648010253906
20
74.9897994995117
40
0.0
41
0.0
42
0.0
10
73.2603988647461
20
75.393798828125
40
0.0
41
0.0
42
0.0
10
73.2482986450195
20
75.5112991333008
40
0.0
41
0.0
42
0.0
10
73.0476989746094
20
75.7481994628906
40
0.0
41
0.0
42
0.0
10
73.0026016235352
20
75.8247985839844
40
0.0
41
0.0
42
0.0
10
72.8601989746094
20
76.0
40
0.0
41
0.0
42
0.0
10
72.9040985107422
20
76.0577011108398
40
0.0
41
0.0
42
0.0
10
73.0063018798828
20
76.2371978759766
40
0.0
41
0.0
42
0.0
10
73.1811981201172
20
76.2753982543945
40
0.0
41
0.0
42
0.0
10
73.5029983520508
20
76.3235015869141
40
0.0
41
0.0
42
0.0
10
73.6257019042969
20
76.3396987915039
40
0.0
41
0.0
42
0.0
10
73.9822998046875
20
76.2594985961914
40
0.0
41
0.0
42
0.0
10
74.0059967041016
20
76.2593994140625
40
0.0
41
0.0
42
0.0
10
74.10009765625
20
76.4856033325195
40
0.0
41
0.0
42
0.0
10
74.1533966064453
20
76.8589019775391
40
0.0
41
0.0
42
0.0
10
74.1849975585938
20
76.9900970458984
40
0.0
41
0.0
42
0.0
10
74.2941970825195
20
77.1101989746094
40
0.0
41
0.0
42
0.0
10
74.5002975463867
20
77.379997253418
40
0.0
41
0.0
42
0.0
10
74.5979995727539
20
77.2679977416992
40
0.0
41
0.0
42
0.0
10
74.8311996459961
20
76.9918975830078
40
0.0
41
0.0
42
0.0
10
74.9347991943359
20
76.8050003051758
40
0.0
41
0.0
42
0.0
10
74.9490966796875
20
76.7844009399414
40
0.0
41
0.0
42
0.0
10
74.9898986816406
20
76.7349014282227
40
0.0
41
0.0
42
0.0
10
75.0188980102539
20
76.7348022460938
40
0.0
41
0.0
42
0.0
10
75.1436996459961
20
76.7475967407227
40
0.0
41
0.0
42
0.0
10
75.5121002197266
20
76.752197265625
40
0.0
41
0.0
42
0.0
10
75.7482986450195
20
76.9521026611328
40
0.0
41
0.0
42
0.0
10
75.8248977661133
20
76.997200012207
40
0.0
41
0.0
42
0.0
10
76.0
20
77.1395034790039
40
0.0
41
0.0
42
0.0
10
76.0576019287109
20
77.0955963134766
40
0.0
41
0.0
42
0.0
10
76.2370986938477
20
76.9935989379883
40
0.0
41
0.0
42
0.0
10
76.2752990722656
20
76.8187026977539
40
0.0
41
0.0
42
0.0
10
76.3235015869141
20
76.4968032836914
40
0.0
41
0.0
42
0.0
10
76.3396987915039
20
76.3741989135742
40
0.0
41
0.0
42
0.0
10
76.2594985961914
20
76.0176010131836
40
0.0
41
0.0
42
0.0
10
76.2593002319336
20
75.993896484375
40
0.0
41
0.0
42
0.0
10
76.4865036010742
20
75.8992004394531
40
0.0
41
0.0
42
0.0
10
76.6089019775391
20
75.8699035644531
40
0.0
41
0.0
42
0.0
10
76.9893035888672
20
75.8154983520508
40
0.0
41
0.0
42
0.0
10
77.1101989746094
20
75.7054977416992
40
0.0
41
0.0
42
0.0
10
77.3800964355469
20
75.4997024536133
40
0.0
41
0.0
42
0.0
10
77.2679977416992
20
75.4017028808594
40
0.0
41
0.0
42
0.0
10
76.9918975830078
20
75.1685028076172
40
0.0
41
0.0
42
0.0
10
76.8050003051758
20
75.0649032592773
40
0.0
41
0.0
42
0.0
10
76.7844009399414
20
75.0505981445312
40
0.0
41
0.0
42
0.0
10
76.7349014282227
20
75.0100021362305
40
0.0
41
0.0
42
0.0
10
76.7348022460938
20
74.9810028076172
40
0.0
41
0.0
42
0.0
10
76.7475967407227
20
74.856201171875
40
0.0
41
0.0
42
0.0
10
76.7520980834961
20
74.4877014160156
40
0.0
41
0.0
42
0.0
10
76.9520034790039
20
74.2515029907227
40
0.0
41
0.0
42
0.0
10
76.997200012207
20
74.1750030517578
40
0.0
41
0.0
42
0.0
10
77.1395034790039
20
73.9999008178711
40
0.0
41
0.0
42
0.0
10
77.095703125
20
73.9421997070312
40
0.0
41
0.0
42
0.0
10
76.9932022094727
20
73.7619018554688
40
0.0
41
0.0
42
0.0
10
76.6488037109375
20
73.7104034423828
40
0.0
41
0.0
42
0.0
10
76.5001983642578
20
73.6779022216797
40
0.0
41
0.0
42
0.0
10
76.1808013916016
20
73.7499008178711
40
0.0
41
0.0
42
0.0
10
76.1430969238281
20
73.7567977905273
40
0.0
41
0.0
42
0.0
10
76.1063003540039
20
73.7566986083984
40
0.0
41
0.0
42
0.0
10
75.9945983886719
20
73.7422027587891
40
0.0
41
0.0
42
0.0
10
75.899299621582
20
73.5133972167969
40
0.0
41
0.0
42
0.0
10
75.8699035644531
20
73.390998840332
40
0.0
41
0.0
42
0.0
10
75.8154983520508
20
73.0105972290039
40
0.0
41
0.0
42
0.0
10
75.7055969238281
20
72.8895034790039
40
0.0
41
0.0
42
0.0
10
75.4997024536133
20
72.6195983886719
40
0.0
41
0.0
42
0.0
10
75.4017028808594
20
72.7316970825195
40
0.0
41
0.0
42
0.0
10
75.1684036254883
20
73.0078964233398
40
0.0
41
0.0
42
0.0
10
75.0647964477539
20
73.1947021484375
40
0.0
41
0.0
42
0.0
10
75.0505981445312
20
73.2153015136719
40
0.0
41
0.0
42
0.0
10
75.0101013183594
20
73.2648010253906
40
0.0
41
0.0
42
0.0
10
74.6061019897461
20
73.260498046875
40
0.0
41
0.0
42
0.0
10
74.4886016845703
20
73.2482986450195
40
0.0
41
0.0
42
0.0
10
74.2515029907227
20
73.0477981567383
40
0.0
41
0.0
42
0.0
10
74.1751022338867
20
73.0027008056641
40
0.0
41
0.0
42
0.0
10
73.9999008178711
20
72.8601989746094
40
0.0
41
0.0
42
0.0
10
73.9421005249023
20
72.9039993286133
40
0.0
41
0.0
42
0.0
10
73.7619018554688
20
73.0066986083984
40
0.0
41
0.0
42
0.0
10
73.7104034423828
20
73.3510971069336
40
0.0
41
0.0
42
0.0
10
73.6779022216797
20
73.4997024536133
40
0.0
41
0.0
42
0.0
10
73.7499008178711
20
73.8190994262695
40
0.0
41
0.0
42
0.0
10
73.7567977905273
20
73.8567962646484
40
0.0
41
0.0
42
0.0
10
73.7566986083984
20
73.8936004638672
40
0.0
41
0.0
42
0.0
10
73.7421035766602
20
74.0052032470703
40
0.0
41
0.0
42
0.0
10
73.5142974853516
20
74.10009765625
40
0.0
41
0.0
42
0.0
10
73.140998840332
20
74.1533966064453
40
0.0
41
0.0
42
0.0
10
73.0098037719727
20
74.1848983764648
40
0.0
41
0.0
42
0.0
10
72.8896026611328
20
74.2941970825195
40
0.0
41
0.0
42
0.0
10
72.6196975708008
20
74.5002975463867
40
0.0
41
0.0
42
0.0
10
72.7317962646484
20
74.5980987548828
40
0.0
41
0.0
42
0.0
10
73.0080032348633
20
74.831298828125
40
0.0
41
0.0
42
0.0
210
0.0
220
0.0
230
1.0
0
LWPOLYLINE
5
30
330
1C
100
AcDbEntity
67
0
8
0
62
256
6
ByLayer
370
-1
48
1.0
60
0
100
AcDbPolyline
90
75
70
1
38
0.0
39
0.0
10
74.3760986328125
20
83.9355010986328
40
0.0
41
0.0
42
0.0
10
74.5423965454102
20
83.7704010009766
40
0.0
41
0.0
42
0.0
10
74.6960983276367
20
83.4929962158203
40
0.0
41
0.0
42
0.0
10
74.8737030029297
20
83.3262023925781
40
0.0
41
0.0
42
0.0
10
74.9908981323242
20
83.2462005615234
40
0.0
41
0.0
42
0.0
10
75.1080017089844
20
83.1819000244141
40
0.0
41
0.0
42
0.0
10
75.3330993652344
20
82.9963989257812
40
0.0
41
0.0
42
0.0
10
75.4825973510742
20
82.8834991455078
40
0.0
41
0.0
42
0.0
10
75.4877014160156
20
82.8806991577148
40
0.0
41
0.0
42
0.0
10
75.6115036010742
20
82.8499984741211
40
0.0
41
0.0
42
0.0
10
75.9841003417969
20
82.6983032226562
40
0.0
41
0.0
42
0.0
10
76.0190963745117
20
82.6981964111328
40
0.0
41
0.0
42
0.0
10
76.143798828125
20
82.7086029052734
40
0.0
41
0.0
42
0.0
10
76.5162963867188
20
82.7186965942383
40
0.0
41
0.0
42
0.0
10
76.8887023925781
20
82.8401031494141
40
0.0
41
0.0
42
0.0
10
77.0124969482422
20
82.8772964477539
40
0.0
41
0.0
42
0.0
10
77.2982025146484
20
83.0102996826172
40
0.0
41
0.0
42
0.0
10
77.3845977783203
20
83.0690002441406
40
0.0
41
0.0
42
0.0
10
77.5081024169922
20
83.1266021728516
40
0.0
41
0.0
42
0.0
10
77.8536987304688
20
83.4423980712891
40
0.0
41
0.0
42
0.0
10
77.9470977783203
20
83.4955978393555
40
0.0
41
0.0
42
0.0
10
77.9712982177734
20
83.5363006591797
40
0.0
41
0.0
42
0.0
10
77.9990005493164
20
83.7838973999023
40
0.0
41
0.0
42
0.0
10
78.0074005126953
20
83.8845977783203
40
0.0
41
0.0
42
0.0
10
78.0528030395508
20
83.9844970703125
40
0.0
41
0.0
42
0.0
10
78.0525970458984
20
84.0149993896484
40
0.0
41
0.0
42
0.0
10
78.0457992553711
20
84.0289001464844
40
0.0
41
0.0
42
0.0
10
77.9974975585938
20
84.1938018798828
40
0.0
41
0.0
42
0.0
10
77.8386001586914
20
84.5090026855469
40
0.0
41
0.0
42
0.0
10
77.7201995849609
20
84.6717987060547
40
0.0
41
0.0
42
0.0
10
77.5050964355469
20
84.9205017089844
40
0.0
41
0.0
42
0.0
10
77.4129028320312
20
84.9990005493164
40
0.0
41
0.0
42
0.0
10
77.368896484375
20
84.9990005493164
40
0.0
41
0.0
42
0.0
10
77.3687973022461
20
84.9896011352539
40
0.0
41
0.0
42
0.0
10
77.4946975708008
20
84.8824005126953
40
0.0
41
0.0
42
0.0
10
77.7237014770508
20
84.6179962158203
40
0.0
41
0.0
42
0.0
10
77.8161010742188
20
84.4908981323242
40
0.0
41
0.0
42
0.0
10
77.9973983764648
20
84.1313018798828
40
0.0
41
0.0
42
0.0
10
78.0366973876953
20
83.9977035522461
40
0.0
41
0.0
42
0.0
10
78.0096969604492
20
83.9383010864258
40
0.0
41
0.0
42
0.0
10
78.0008010864258
20
83.8326034545898
40
0.0
41
0.0
42
0.0
10
77.972900390625
20
83.5746994018555
40
0.0
41
0.0
42
0.0
10
77.9312973022461
20
83.5044021606445
40
0.0
41
0.0
42
0.0
10
77.8016967773438
20
83.4307022094727
40
0.0
41
0.0
42
0.0
10
77.4917984008789
20
83.1475982666016
40
0.0
41
0.0
42
0.0
10
77.3253021240234
20
83.0699996948242
40
0.0
41
0.0
42
0.0
10
77.2481994628906
20
83.0176010131836
40
0.0
41
0.0
42
0.0
10
76.9875030517578
20
82.8961029052734
40
0.0
41
0.0
42
0.0
10
76.8211975097656
20
82.8461990356445
40
0.0
41
0.0
42
0.0
10
76.4835968017578
20
82.7360992431641
40
0.0
41
0.0
42
0.0
10
76.1461029052734
20
82.7269973754883
40
0.0
41
0.0
42
0.0
10
76.0099029541016
20
82.7154998779297
40
0.0
41
0.0
42
0.0
10
75.6783981323242
20
82.8506011962891
40
0.0
41
0.0
42
0.0
10
75.5121002197266
20
82.8918991088867
40
0.0
41
0.0
42
0.0
10
75.4968032836914
20
82.9004974365234
40
0.0
41
0.0
42
0.0
10
75.3603973388672
20
83.0034027099609
40
0.0
41
0.0
42
0.0
10
75.1613998413086
20
83.1671981811523
40
0.0
41
0.0
42
0.0
10
75.008903503418
20
83.2509994506836
40
0.0
41
0.0
42
0.0
10
74.9133987426758
20
83.3154983520508
40
0.0
41
0.0
42
0.0
10
74.7098007202148
20
83.5068969726562
40
0.0
41
0.0
42
0.0
10
74.5374984741211
20
83.8179016113281
40
0.0
41
0.0
42
0.0
10
74.4117965698242
20
83.9428024291992
40
0.0
41
0.0
42
0.0
10
74.3715972900391
20
84.0128021240234
40
0.0
41
0.0
42
0.0
10
74.3535995483398
20
84.1229019165039
40
0.0
41
0.0
42
0.0
10
74.4306030273438
20
84.4884033203125
40
0.0
41
0.0
42
0.0
10
74.5036010742188
20
84.5942993164062
40
0.0
41
0.0
42
0.0
10
74.8744964599609
20
84.9882965087891
40
0.0
41
0.0
42
0.0
10
74.8744964599609
20
84.9990005493164
40
0.0
41
0.0
42
0.0
10
74.8094024658203
20
84.9990005493164
40
0.0
41
0.0
42
0.0
10
74.4962997436523
20
84.6663970947266
40
0.0
41
0.0
42
0.0
10
74.3897018432617
20
84.5114974975586
40
0.0
41
0.0
42
0.0
10
74.3207015991211
20
84.1828002929688
40
0.0
41
0.0
42
0.0
10
74.3206024169922
20
84.146598815918
40
0.0
41
0.0
42
0.0
10
74.3466033935547
20
83.9870986938477
40
0.0
41
0.0
42
0.0
10
74.3760986328125
20
83.9355010986328
40
0.0
41
0.0
42
0.0
210
0.0
220
0.0
230
1.0
0
LWPOLYLINE
5
31
330
1C
100
AcDbEntity
67
0
8
0
62
256
6
ByLayer
370
-1
48
1.0
60
0
100
AcDbPolyline
90
29
70
1
38
0.0
39
0.0
10
74.1740036010742
20
74.9847030639648
40
0.0
41
0.0
42
0.0
10
74.3522033691406
20
74.6140975952148
40
0.0
41
0.0
42
0.0
10
74.411003112793
20
74.4954986572266
40
0.0
41
0.0
42
0.0
10
74.4872970581055
20
74.4567031860352
40
0.0
41
0.0
42
0.0
10
74.5774993896484
20
74.4340972900391
40
0.0
41
0.0
42
0.0
10
74.6154022216797
20
74.4152984619141
40
0.0
41
0.0
42
0.0
10
74.986198425293
20
74.1741027832031
40
0.0
41
0.0
42
0.0
10
75.0151977539062
20
74.1740036010742
40
0.0
41
0.0
42
0.0
10
75.3856964111328
20
74.3522033691406
40
0.0
41
0.0
42
0.0
10
75.5044021606445
20
74.411003112793
40
0.0
41
0.0
42
0.0
10
75.5429992675781
20
74.4872970581055
40
0.0
41
0.0
42
0.0
10
75.5656967163086
20
74.5775985717773
40
0.0
41
0.0
42
0.0
10
75.5843963623047
20
74.6154022216797
40
0.0
41
0.0
42
0.0
10
75.825798034668
20
74.986198425293
40
0.0
41
0.0
42
0.0
10
75.8256988525391
20
75.0150985717773
40
0.0
41
0.0
42
0.0
10
75.6474990844727
20
75.3856964111328
40
0.0
41
0.0
42
0.0
10
75.5887985229492
20
75.5043029785156
40
0.0
41
0.0
42
0.0
10
75.5126037597656
20
75.5429992675781
40
0.0
41
0.0
42
0.0
10
75.4222030639648
20
75.5655975341797
40
0.0
41
0.0
42
0.0
10
75.3843994140625
20
75.5843963623047
40
0.0
41
0.0
42
0.0
10
75.0137023925781
20
75.825798034668
40
0.0
41
0.0
42
0.0
10
74.9847030639648
20
75.8256988525391
40
0.0
41
0.0
42
0.0
10
74.6141967773438
20
75.6474990844727
40
0.0
41
0.0
42
0.0
10
74.4954986572266
20
75.5887985229492
40
0.0
41
0.0
42
0.0
10
74.4567031860352
20
75.5126037597656
40
0.0
41
0.0
42
0.0
10
74.4340972900391
20
75.4222030639648
40
0.0
41
0.0
42
0.0
10
74.4152984619141
20
75.3844985961914
40
0.0
41
0.0
42
0.0
10
74.1741027832031
20
75.0137023925781
40
0.0
41
0.0
42
0.0
10
74.1740036010742
20
74.9847030639648
40
0.0
41
0.0
42
0.0
210
0.0
220
0.0
230
1.0
0
LWPOLYLINE
5
32
330
1C
100
AcDbEntity
67
0
8
0
62
256
6
ByLayer
370
-1
48
1.0
60
0
100
AcDbPolyline
90
25
70
1
38
0.0
39
0.0
10
74.4201965332031
20
75.3254013061523
40
0.0
41
0.0
42
0.0
10
74.4414978027344
20
75.3679962158203
40
0.0
41
0.0
42
0.0
10
74.4712982177734
20
75.4873962402344
40
0.0
41
0.0
42
0.0
10
74.5044021606445
20
75.5522994995117
40
0.0
41
0.0
42
0.0
10
74.6757965087891
20
75.6370010375977
40
0.0
41
0.0
42
0.0
10
74.9984970092773
20
75.7921981811523
40
0.0
41
0.0
42
0.0
10
75.3254013061523
20
75.5794982910156
40
0.0
41
0.0
42
0.0
10
75.3679962158203
20
75.5581970214844
40
0.0
41
0.0
42
0.0
10
75.4872970581055
20
75.5283966064453
40
0.0
41
0.0
42
0.0
10
75.5522994995117
20
75.4954986572266
40
0.0
41
0.0
42
0.0
10
75.6370010375977
20
75.3240966796875
40
0.0
41
0.0
42
0.0
10
75.7921981811523
20
75.0014038085938
40
0.0
41
0.0
42
0.0
10
75.5794982910156
20
74.6744995117188
40
0.0
41
0.0
42
0.0
10
75.5581970214844
20
74.6317977905273
40
0.0
41
0.0
42
0.0
10
75.5283966064453
20
74.5126037597656
40
0.0
41
0.0
42
0.0
10
75.4955978393555
20
74.4475021362305
40
0.0
41
0.0
42
0.0
10
75.3242034912109
20
74.3628005981445
40
0.0
41
0.0
42
0.0
10
75.0014038085938
20
74.2074966430664
40
0.0
41
0.0
42
0.0
10
74.6744995117188
20
74.4201965332031
40
0.0
41
0.0
42
0.0
10
74.6317977905273
20
74.4414978027344
40
0.0
41
0.0
42
0.0
10
74.5124969482422
20
74.4711990356445
40
0.0
41
0.0
42
0.0
10
74.4474029541016
20
74.5043029785156
40
0.0
41
0.0
42
0.0
10
74.3627014160156
20
74.6756973266602
40
0.0
41
0.0
42
0.0
10
74.2074966430664
20
74.9984970092773
40
0.0
41
0.0
42
0.0
10
74.4201965332031
20
75.3254013061523
40
0.0
41
0.0
42
0.0
210
0.0
220
0.0
230
1.0
0
LWPOLYLINE
5
33
330
1C
100
AcDbEntity
67
0
8
0
62
256
6
ByLayer
370
-1
48
1.0
60
0
100
AcDbPolyline
90
57
70
1
38
0.0
39
0.0
10
78.9169998168945
20
66.9848022460938
40
0.0
41
0.0
42
0.0
10
78.9943008422852
20
66.8271026611328
40
0.0
41
0.0
42
0.0
10
79.0002975463867
20
66.784797668457
40
0.0
41
0.0
42
0.0
10
79.0261993408203
20
66.6831970214844
40
0.0
41
0.0
42
0.0
10
79.1997985839844
20
66.4973983764648
40
0.0
41
0.0
42
0.0
10
79.3522033691406
20
66.4304962158203
40
0.0
41
0.0
42
0.0
10
79.4886016845703
20
66.3414001464844
40
0.0
41
0.0
42
0.0
10
79.6495971679688
20
66.2977981567383
40
0.0
41
0.0
42
0.0
10
79.9823989868164
20
66.2352981567383
40
0.0
41
0.0
42
0.0
10
80.1455001831055
20
66.2268981933594
40
0.0
41
0.0
42
0.0
10
80.1846008300781
20
66.2267990112305
40
0.0
41
0.0
42
0.0
10
80.5184020996094
20
66.2377014160156
40
0.0
41
0.0
42
0.0
10
80.6808013916016
20
66.2572021484375
40
0.0
41
0.0
42
0.0
10
81.0137023925781
20
66.3504028320312
40
0.0
41
0.0
42
0.0
10
81.176399230957
20
66.4063034057617
40
0.0
41
0.0
42
0.0
10
81.2205963134766
20
66.4309997558594
40
0.0
41
0.0
42
0.0
10
81.3207015991211
20
66.497200012207
40
0.0
41
0.0
42
0.0
10
81.5072021484375
20
66.6327972412109
40
0.0
41
0.0
42
0.0
10
81.5969009399414
20
66.7046966552734
40
0.0
41
0.0
42
0.0
10
81.6986999511719
20
66.8290023803711
40
0.0
41
0.0
42
0.0
10
81.7711029052734
20
66.9016036987305
40
0.0
41
0.0
42
0.0
10
81.8291015625
20
66.9906997680664
40
0.0
41
0.0
42
0.0
10
81.9609985351562
20
67.2382965087891
40
0.0
41
0.0
42
0.0
10
82.0009002685547
20
67.3208999633789
40
0.0
41
0.0
42
0.0
10
82.0755004882812
20
67.4868011474609
40
0.0
41
0.0
42
0.0
10
82.1583023071289
20
67.8198013305664
40
0.0
41
0.0
42
0.0
10
82.1950988769531
20
67.9822998046875
40
0.0
41
0.0
42
0.0
10
82.1939010620117
20
68.3197021484375
40
0.0
41
0.0
42
0.0
10
82.1989974975586
20
68.4721984863281
40
0.0
41
0.0
42
0.0
10
82.1990966796875
20
68.5166015625
40
0.0
41
0.0
42
0.0
10
82.1697006225586
20
68.606201171875
40
0.0
41
0.0
42
0.0
10
82.0018005371094
20
68.9488983154297
40
0.0
41
0.0
42
0.0
10
81.9626998901367
20
69.0034027099609
40
0.0
41
0.0
42
0.0
10
81.9261016845703
20
69.021598815918
40
0.0
41
0.0
42
0.0
10
81.6790008544922
20
69.1528015136719
40
0.0
41
0.0
42
0.0
10
81.5179977416992
20
69.1651000976562
40
0.0
41
0.0
42
0.0
10
81.1837997436523
20
69.2024002075195
40
0.0
41
0.0
42
0.0
10
81.1463012695312
20
69.2023010253906
40
0.0
41
0.0
42
0.0
10
80.9819030761719
20
69.1819000244141
40
0.0
41
0.0
42
0.0
10
80.6466979980469
20
69.159797668457
40
0.0
41
0.0
42
0.0
10
80.6084976196289
20
69.1557998657227
40
0.0
41
0.0
42
0.0
10
80.4845962524414
20
69.1265029907227
40
0.0
41
0.0
42
0.0
10
80.1115036010742
20
69.0446014404297
40
0.0
41
0.0
42
0.0
10
80.0119018554688
20
69.0009002685547
40
0.0
41
0.0
42
0.0
10
79.9355010986328
20
68.9623031616211
40
0.0
41
0.0
42
0.0
10
79.8475036621094
20
68.8786010742188
40
0.0
41
0.0
42
0.0
10
79.5307006835938
20
68.6603012084961
40
0.0
41
0.0
42
0.0
10
79.4969024658203
20
68.6154022216797
40
0.0
41
0.0
42
0.0
10
79.3860015869141
20
68.4601974487305
40
0.0
41
0.0
42
0.0
10
79.3447036743164
20
68.3851013183594
40
0.0
41
0.0
42
0.0
10
79.1521987915039
20
68.0109024047852
40
0.0
41
0.0
42
0.0
10
79.0981979370117
20
67.8873977661133
40
0.0
41
0.0
42
0.0
10
78.9999008178711
20
67.5931015014648
40
0.0
41
0.0
42
0.0
10
78.9749984741211
20
67.5139999389648
40
0.0
41
0.0
42
0.0
10
78.9413986206055
20
67.3915023803711
40
0.0
41
0.0
42
0.0
10
78.9170989990234
20
67.0193023681641
40
0.0
41
0.0
42
0.0
10
78.9169998168945
20
66.9848022460938
40
0.0
41
0.0
42
0.0
210
0.0
220
0.0
230
1.0
0
LWPOLYLINE
5
34
330
1C
100
AcDbEntity
67
0
8
0
62
256
6
ByLayer
370
-1
48
1.0
60
0
100
AcDbPolyline
90
52
70
1
38
0.0
39
0.0
10
78.989501953125
20
67.4860000610352
40
0.0
41
0.0
42
0.0
10
79.1005020141602
20
67.8225021362305
40
0.0
41
0.0
42
0.0
10
79.1734008789062
20
67.9889984130859
40
0.0
41
0.0
42
0.0
10
79.3460006713867
20
68.3247985839844
40
0.0
41
0.0
42
0.0
10
79.4021987915039
20
68.427001953125
40
0.0
41
0.0
42
0.0
10
79.4483032226562
20
68.492301940918
40
0.0
41
0.0
42
0.0
10
79.5525970458984
20
68.6342010498047
40
0.0
41
0.0
42
0.0
10
79.8386001586914
20
68.831298828125
40
0.0
41
0.0
42
0.0
10
79.9570999145508
20
68.9440994262695
40
0.0
41
0.0
42
0.0
10
80.0643005371094
20
68.9990997314453
40
0.0
41
0.0
42
0.0
10
80.0989990234375
20
69.0127029418945
40
0.0
41
0.0
42
0.0
10
80.1782989501953
20
69.0482025146484
40
0.0
41
0.0
42
0.0
10
80.5152969360352
20
69.1221008300781
40
0.0
41
0.0
42
0.0
10
80.6732025146484
20
69.1595001220703
40
0.0
41
0.0
42
0.0
10
81.0179977416992
20
69.1821975708008
40
0.0
41
0.0
42
0.0
10
81.1259002685547
20
69.1956024169922
40
0.0
41
0.0
42
0.0
10
81.4819030761719
20
69.1559982299805
40
0.0
41
0.0
42
0.0
10
81.6109008789062
20
69.1462020874023
40
0.0
41
0.0
42
0.0
10
81.8044967651367
20
69.0434036254883
40
0.0
41
0.0
42
0.0
10
81.8991012573242
20
68.9963989257812
40
0.0
41
0.0
42
0.0
10
81.9980010986328
20
68.8583984375
40
0.0
41
0.0
42
0.0
10
82.1276016235352
20
68.5938034057617
40
0.0
41
0.0
42
0.0
10
82.1626968383789
20
68.4866027832031
40
0.0
41
0.0
42
0.0
10
82.159797668457
20
68.3647003173828
40
0.0
41
0.0
42
0.0
10
82.1613006591797
20
68.0168991088867
40
0.0
41
0.0
42
0.0
10
82.1324996948242
20
67.8900985717773
40
0.0
41
0.0
42
0.0
10
82.0388031005859
20
67.5130996704102
40
0.0
41
0.0
42
0.0
10
81.9990005493164
20
67.4244995117188
40
0.0
41
0.0
42
0.0
10
81.9486999511719
20
67.320198059082
40
0.0
41
0.0
42
0.0
10
81.7830963134766
20
67.0093002319336
40
0.0
41
0.0
42
0.0
10
81.736198425293
20
66.9373016357422
40
0.0
41
0.0
42
0.0
10
81.6800003051758
20
66.8807983398438
40
0.0
41
0.0
42
0.0
10
81.5643005371094
20
66.7397003173828
40
0.0
41
0.0
42
0.0
10
81.4926986694336
20
66.6824035644531
40
0.0
41
0.0
42
0.0
10
81.2456970214844
20
66.5026016235352
40
0.0
41
0.0
42
0.0
10
81.168098449707
20
66.451301574707
40
0.0
41
0.0
42
0.0
10
81.1136016845703
20
66.4208984375
40
0.0
41
0.0
42
0.0
10
80.986198425293
20
66.3770980834961
40
0.0
41
0.0
42
0.0
10
80.6091003417969
20
66.2714996337891
40
0.0
41
0.0
42
0.0
10
80.4814987182617
20
66.2563018798828
40
0.0
41
0.0
42
0.0
10
80.1292037963867
20
66.2446975708008
40
0.0
41
0.0
42
0.0
10
80.0174026489258
20
66.2505035400391
40
0.0
41
0.0
42
0.0
10
79.6401977539062
20
66.321403503418
40
0.0
41
0.0
42
0.0
10
79.5111999511719
20
66.3563995361328
40
0.0
41
0.0
42
0.0
10
79.4056015014648
20
66.4253997802734
40
0.0
41
0.0
42
0.0
10
79.2298965454102
20
66.5024032592773
40
0.0
41
0.0
42
0.0
10
79.0227966308594
20
66.7241973876953
40
0.0
41
0.0
42
0.0
10
78.9992980957031
20
66.8199005126953
40
0.0
41
0.0
42
0.0
10
78.9917984008789
20
66.8715972900391
40
0.0
41
0.0
42
0.0
10
78.9235000610352
20
67.0110015869141
40
0.0
41
0.0
42
0.0
10
78.943603515625
20
67.3184967041016
40
0.0
41
0.0
42
0.0
10
78.989501953125
20
67.4860000610352
40
0.0
41
0.0
42
0.0
210
0.0
220
0.0
230
1.0
0
LWPOLYLINE
5
35
330
1C
100
AcDbEntity
67
0
8
0
62
256
6
ByLayer
370
-1
48
1.0
60
0
100
AcDbPolyline
90
57
70
1
38
0.0
39
0.0
10
80.818000793457
20
81.018798828125
40
0.0
41
0.0
42
0.0
10
80.8179016113281
20
80.9823989868164
40
0.0
41
0.0
42
0.0
10
80.8492965698242
20
80.8495025634766
40
0.0
41
0.0
42
0.0
10
80.8735961914062
20
80.4829025268555
40
0.0
41
0.0
42
0.0
10
80.9551010131836
20
80.1115036010742
40
0.0
41
0.0
42
0.0
10
80.9988021850586
20
80.0121002197266
40
0.0
41
0.0
42
0.0
10
81.0093002319336
20
79.992301940918
40
0.0
41
0.0
42
0.0
10
81.0335006713867
20
79.966796875
40
0.0
41
0.0
42
0.0
10
81.0888977050781
20
79.9002990722656
40
0.0
41
0.0
42
0.0
10
81.2369003295898
20
79.7129974365234
40
0.0
41
0.0
42
0.0
10
81.3871994018555
20
79.4947967529297
40
0.0
41
0.0
42
0.0
10
81.5395965576172
20
79.3859024047852
40
0.0
41
0.0
42
0.0
10
81.6147994995117
20
79.344596862793
40
0.0
41
0.0
42
0.0
10
81.9889984130859
20
79.1521987915039
40
0.0
41
0.0
42
0.0
10
82.1125030517578
20
79.0980987548828
40
0.0
41
0.0
42
0.0
10
82.4067001342773
20
78.9999008178711
40
0.0
41
0.0
42
0.0
10
82.4859008789062
20
78.9748992919922
40
0.0
41
0.0
42
0.0
10
82.6083984375
20
78.9413986206055
40
0.0
41
0.0
42
0.0
10
82.980598449707
20
78.9170989990234
40
0.0
41
0.0
42
0.0
10
83.0150985717773
20
78.9169998168945
40
0.0
41
0.0
42
0.0
10
83.1726989746094
20
78.9943008422852
40
0.0
41
0.0
42
0.0
10
83.2149963378906
20
79.0002975463867
40
0.0
41
0.0
42
0.0
10
83.3164978027344
20
79.0262985229492
40
0.0
41
0.0
42
0.0
10
83.5024032592773
20
79.1998977661133
40
0.0
41
0.0
42
0.0
10
83.5691986083984
20
79.3523025512695
40
0.0
41
0.0
42
0.0
10
83.6577987670898
20
79.4879989624023
40
0.0
41
0.0
42
0.0
10
83.7202987670898
20
79.8196029663086
40
0.0
41
0.0
42
0.0
10
83.7643966674805
20
79.9828033447266
40
0.0
41
0.0
42
0.0
10
83.7643966674805
20
80.0195999145508
40
0.0
41
0.0
42
0.0
10
83.7542037963867
20
80.3307037353516
40
0.0
41
0.0
42
0.0
10
83.7621002197266
20
80.4804992675781
40
0.0
41
0.0
42
0.0
10
83.7620010375977
20
80.5170974731445
40
0.0
41
0.0
42
0.0
10
83.6684036254883
20
80.8507995605469
40
0.0
41
0.0
42
0.0
10
83.6488037109375
20
81.0151977539062
40
0.0
41
0.0
42
0.0
10
83.5933990478516
20
81.1763000488281
40
0.0
41
0.0
42
0.0
10
83.5687026977539
20
81.2205963134766
40
0.0
41
0.0
42
0.0
10
83.5027008056641
20
81.3207015991211
40
0.0
41
0.0
42
0.0
10
83.3682022094727
20
81.5053024291992
40
0.0
41
0.0
42
0.0
10
83.2884979248047
20
81.5706024169922
40
0.0
41
0.0
42
0.0
10
83.007698059082
20
81.8299026489258
40
0.0
41
0.0
42
0.0
10
82.7614974975586
20
81.9608993530273
40
0.0
41
0.0
42
0.0
10
82.6788024902344
20
82.0008010864258
40
0.0
41
0.0
42
0.0
10
82.5130004882812
20
82.0755004882812
40
0.0
41
0.0
42
0.0
10
82.1800994873047
20
82.1583023071289
40
0.0
41
0.0
42
0.0
10
82.0176010131836
20
82.1950988769531
40
0.0
41
0.0
42
0.0
10
81.6800994873047
20
82.1939010620117
40
0.0
41
0.0
42
0.0
10
81.5276031494141
20
82.1989974975586
40
0.0
41
0.0
42
0.0
10
81.4832992553711
20
82.1990966796875
40
0.0
41
0.0
42
0.0
10
81.3911972045898
20
82.1688995361328
40
0.0
41
0.0
42
0.0
10
81.3732986450195
20
82.1650009155273
40
0.0
41
0.0
42
0.0
10
81.0510025024414
20
82.0018997192383
40
0.0
41
0.0
42
0.0
10
80.9962005615234
20
81.9626007080078
40
0.0
41
0.0
42
0.0
10
80.8469009399414
20
81.6790008544922
40
0.0
41
0.0
42
0.0
10
80.8348007202148
20
81.5190963745117
40
0.0
41
0.0
42
0.0
10
80.8347015380859
20
81.481201171875
40
0.0
41
0.0
42
0.0
10
80.852897644043
20
81.3339996337891
40
0.0
41
0.0
42
0.0
10
80.818000793457
20
81.018798828125
40
0.0
41
0.0
42
0.0
210
0.0
220
0.0
230
1.0
0
LWPOLYLINE
5
36
330
1C
100
AcDbEntity
67
0
8
0
62
256
6
ByLayer
370
-1
48
1.0
60
0
100
AcDbPolyline
90
55
70
1
38
0.0
39
0.0
10
80.9563980102539
20
81.8044967651367
40
0.0
41
0.0
42
0.0
10
81.0035018920898
20
81.8992004394531
40
0.0
41
0.0
42
0.0
10
81.1411972045898
20
81.9979019165039
40
0.0
41
0.0
42
0.0
10
81.3921966552734
20
82.1249008178711
40
0.0
41
0.0
42
0.0
10
81.4084014892578
20
82.1284027099609
40
0.0
41
0.0
42
0.0
10
81.513298034668
20
82.1628036499023
40
0.0
41
0.0
42
0.0
10
81.6135025024414
20
82.159797668457
40
0.0
41
0.0
42
0.0
10
81.9830017089844
20
82.1613006591797
40
0.0
41
0.0
42
0.0
10
82.1098022460938
20
82.1324996948242
40
0.0
41
0.0
42
0.0
10
82.4868011474609
20
82.0386962890625
40
0.0
41
0.0
42
0.0
10
82.5753021240234
20
81.9990005493164
40
0.0
41
0.0
42
0.0
10
82.6796035766602
20
81.948600769043
40
0.0
41
0.0
42
0.0
10
82.9922027587891
20
81.7823028564453
40
0.0
41
0.0
42
0.0
10
83.2076034545898
20
81.5832977294922
40
0.0
41
0.0
42
0.0
10
83.3161010742188
20
81.4944000244141
40
0.0
41
0.0
42
0.0
10
83.497200012207
20
81.2455978393555
40
0.0
41
0.0
42
0.0
10
83.5485000610352
20
81.1679992675781
40
0.0
41
0.0
42
0.0
10
83.5787963867188
20
81.1135025024414
40
0.0
41
0.0
42
0.0
10
83.6231002807617
20
80.9847030639648
40
0.0
41
0.0
42
0.0
10
83.6381988525391
20
80.859001159668
40
0.0
41
0.0
42
0.0
10
83.7418975830078
20
80.4885025024414
40
0.0
41
0.0
42
0.0
10
83.7371978759766
20
80.394401550293
40
0.0
41
0.0
42
0.0
10
83.7370986938477
20
80.3553009033203
40
0.0
41
0.0
42
0.0
10
83.7482986450195
20
80.0131988525391
40
0.0
41
0.0
42
0.0
10
83.7149963378906
20
79.8902969360352
40
0.0
41
0.0
42
0.0
10
83.6438980102539
20
79.5120010375977
40
0.0
41
0.0
42
0.0
10
83.5744018554688
20
79.4056015014648
40
0.0
41
0.0
42
0.0
10
83.4974975585938
20
79.2298965454102
40
0.0
41
0.0
42
0.0
10
83.2757034301758
20
79.0229034423828
40
0.0
41
0.0
42
0.0
10
83.1799011230469
20
78.9992980957031
40
0.0
41
0.0
42
0.0
10
83.1281967163086
20
78.9917984008789
40
0.0
41
0.0
42
0.0
10
82.988899230957
20
78.9235000610352
40
0.0
41
0.0
42
0.0
10
82.681396484375
20
78.943603515625
40
0.0
41
0.0
42
0.0
10
82.5139007568359
20
78.989501953125
40
0.0
41
0.0
42
0.0
10
82.1773986816406
20
79.1004028320312
40
0.0
41
0.0
42
0.0
10
82.0109024047852
20
79.1733016967773
40
0.0
41
0.0
42
0.0
10
81.6751022338867
20
79.3460006713867
40
0.0
41
0.0
42
0.0
10
81.5727996826172
20
79.4021987915039
40
0.0
41
0.0
42
0.0
10
81.428596496582
20
79.504997253418
40
0.0
41
0.0
42
0.0
10
81.3199005126953
20
79.6628036499023
40
0.0
41
0.0
42
0.0
10
81.2166976928711
20
79.7935028076172
40
0.0
41
0.0
42
0.0
10
81.0914001464844
20
79.9437026977539
40
0.0
41
0.0
42
0.0
10
81.0307006835938
20
80.0074996948242
40
0.0
41
0.0
42
0.0
10
81.0008010864258
20
80.0642013549805
40
0.0
41
0.0
42
0.0
10
80.9870986938477
20
80.0989990234375
40
0.0
41
0.0
42
0.0
10
80.9514999389648
20
80.1782989501953
40
0.0
41
0.0
42
0.0
10
80.8772964477539
20
80.5169982910156
40
0.0
41
0.0
42
0.0
10
80.8551025390625
20
80.8522033691406
40
0.0
41
0.0
42
0.0
10
80.8473968505859
20
80.8905029296875
40
0.0
41
0.0
42
0.0
10
80.820198059082
20
81.0058975219727
40
0.0
41
0.0
42
0.0
10
80.8591995239258
20
81.3561019897461
40
0.0
41
0.0
42
0.0
10
80.8591003417969
20
81.3936996459961
40
0.0
41
0.0
42
0.0
10
80.8453979492188
20
81.5042037963867
40
0.0
41
0.0
42
0.0
10
80.8535003662109
20
81.6109008789062
40
0.0
41
0.0
42
0.0
10
80.9563980102539
20
81.8044967651367
40
0.0
41
0.0
42
0.0
210
0.0
220
0.0
230
1.0
0
LWPOLYLINE
5
37
330
1C
100
AcDbEntity
67
0
8
0
62
256
6
ByLayer
370
-1
48
1.0
60
0
100
AcDbPolyline
90
25
70
1
38
0.0
39
0.0
10
82.5206985473633
20
65.0009994506836
40
0.0
41
0.0
42
0.0
10
82.540901184082
20
65.0231018066406
40
0.0
41
0.0
42
0.0
10
82.8828964233398
20
65.254997253418
40
0.0
41
0.0
42
0.0
10
83.0087966918945
20
65.3467025756836
40
0.0
41
0.0
42
0.0
10
83.2813034057617
20
65.4915008544922
40
0.0
41
0.0
42
0.0
10
83.4067001342773
20
65.5609970092773
40
0.0
41
0.0
42
0.0
10
83.511100769043
20
65.611701965332
40
0.0
41
0.0
42
0.0
10
84.0114974975586
20
65.834602355957
40
0.0
41
0.0
42
0.0
10
84.3768997192383
20
65.9924011230469
40
0.0
41
0.0
42
0.0
10
84.6368026733398
20
66.1094970703125
40
0.0
41
0.0
42
0.0
10
84.9990005493164
20
66.2544021606445
40
0.0
41
0.0
42
0.0
10
84.9990005493164
20
66.2768020629883
40
0.0
41
0.0
42
0.0
10
84.984001159668
20
66.2767028808594
40
0.0
41
0.0
42
0.0
10
84.6531982421875
20
66.1445007324219
40
0.0
41
0.0
42
0.0
10
84.3147964477539
20
65.99169921875
40
0.0
41
0.0
42
0.0
10
83.9884033203125
20
65.8507995605469
40
0.0
41
0.0
42
0.0
10
83.4888000488281
20
65.628303527832
40
0.0
41
0.0
42
0.0
10
83.3970031738281
20
65.5838012695312
40
0.0
41
0.0
42
0.0
10
83.2323989868164
20
65.4924011230469
40
0.0
41
0.0
42
0.0
10
82.991096496582
20
65.3640975952148
40
0.0
41
0.0
42
0.0
10
82.8270034790039
20
65.2447967529297
40
0.0
41
0.0
42
0.0
10
82.5248031616211
20
65.0399017333984
40
0.0
41
0.0
42
0.0
10
82.499397277832
20
65.0118026733398
40
0.0
41
0.0
42
0.0
10
82.499397277832
20
65.0009994506836
40
0.0
41
0.0
42
0.0
10
82.5206985473633
20
65.0009994506836
40
0.0
41
0.0
42
0.0
210
0.0
220
0.0
230
1.0
0
LWPOLYLINE
5
38
330
1C
100
AcDbEntity
67
0
8
0
62
256
6
ByLayer
370
-1
48
1.0
60
0
100
AcDbPolyline
90
76
70
1
38
0.0
39
0.0
10
82.7086029052734
20
73.8560028076172
40
0.0
41
0.0
42
0.0
10
82.7186965942383
20
73.4834976196289
40
0.0
41
0.0
42
0.0
10
82.8401031494141
20
73.111198425293
40
0.0
41
0.0
42
0.0
10
82.8772964477539
20
72.9873962402344
40
0.0
41
0.0
42
0.0
10
83.0102996826172
20
72.7015991210938
40
0.0
41
0.0
42
0.0
10
83.0689010620117
20
72.6153030395508
40
0.0
41
0.0
42
0.0
10
83.1266021728516
20
72.49169921875
40
0.0
41
0.0
42
0.0
10
83.4423980712891
20
72.1460037231445
40
0.0
41
0.0
42
0.0
10
83.4954986572266
20
72.0525970458984
40
0.0
41
0.0
42
0.0
10
83.5362014770508
20
72.0283966064453
40
0.0
41
0.0
42
0.0
10
83.5474014282227
20
72.0261993408203
40
0.0
41
0.0
42
0.0
10
83.7838973999023
20
72.0008010864258
40
0.0
41
0.0
42
0.0
10
83.8845977783203
20
71.992301940918
40
0.0
41
0.0
42
0.0
10
83.9844970703125
20
71.9469985961914
40
0.0
41
0.0
42
0.0
10
84.0150985717773
20
71.9470977783203
40
0.0
41
0.0
42
0.0
10
84.0289001464844
20
71.9539031982422
40
0.0
41
0.0
42
0.0
10
84.1938018798828
20
72.002197265625
40
0.0
41
0.0
42
0.0
10
84.5090026855469
20
72.1611022949219
40
0.0
41
0.0
42
0.0
10
84.6718978881836
20
72.2795028686523
40
0.0
41
0.0
42
0.0
10
84.9205017089844
20
72.4947967529297
40
0.0
41
0.0
42
0.0
10
84.9990005493164
20
72.5868988037109
40
0.0
41
0.0
42
0.0
10
84.9990005493164
20
72.6309967041016
40
0.0
41
0.0
42
0.0
10
84.9896011352539
20
72.6309967041016
40
0.0
41
0.0
42
0.0
10
84.8824996948242
20
72.5050964355469
40
0.0
41
0.0
42
0.0
10
84.6179962158203
20
72.2760009765625
40
0.0
41
0.0
42
0.0
10
84.4908981323242
20
72.1836013793945
40
0.0
41
0.0
42
0.0
10
84.1313018798828
20
72.0024032592773
40
0.0
41
0.0
42
0.0
10
83.9977035522461
20
71.9630966186523
40
0.0
41
0.0
42
0.0
10
83.9383010864258
20
71.9900970458984
40
0.0
41
0.0
42
0.0
10
83.8283004760742
20
71.999397277832
40
0.0
41
0.0
42
0.0
10
83.5746002197266
20
72.0268020629883
40
0.0
41
0.0
42
0.0
10
83.5044021606445
20
72.0684967041016
40
0.0
41
0.0
42
0.0
10
83.4307022094727
20
72.1980972290039
40
0.0
41
0.0
42
0.0
10
83.1474990844727
20
72.5081024169922
40
0.0
41
0.0
42
0.0
10
83.0699005126953
20
72.6744995117188
40
0.0
41
0.0
42
0.0
10
83.0176010131836
20
72.7516021728516
40
0.0
41
0.0
42
0.0
10
82.8961029052734
20
73.0123977661133
40
0.0
41
0.0
42
0.0
10
82.8461990356445
20
73.1787033081055
40
0.0
41
0.0
42
0.0
10
82.7360992431641
20
73.5162963867188
40
0.0
41
0.0
42
0.0
10
82.7269973754883
20
73.8537979125977
40
0.0
41
0.0
42
0.0
10
82.7155990600586
20
73.9899978637695
40
0.0
41
0.0
42
0.0
10
82.8506011962891
20
74.3215026855469
40
0.0
41
0.0
42
0.0
10
82.8919982910156
20
74.4878005981445
40
0.0
41
0.0
42
0.0
10
82.9005966186523
20
74.5029983520508
40
0.0
41
0.0
42
0.0
10
83.0034027099609
20
74.6393966674805
40
0.0
41
0.0
42
0.0
10
83.1671981811523
20
74.8383026123047
40
0.0
41
0.0
42
0.0
10
83.2510986328125
20
74.9908981323242
40
0.0
41
0.0
42
0.0
10
83.3155975341797
20
75.0863037109375
40
0.0
41
0.0
42
0.0
10
83.5068969726562
20
75.2899017333984
40
0.0
41
0.0
42
0.0
10
83.818000793457
20
75.4623031616211
40
0.0
41
0.0
42
0.0
10
83.9428024291992
20
75.5879974365234
40
0.0
41
0.0
42
0.0
10
84.0128021240234
20
75.6280975341797
40
0.0
41
0.0
42
0.0
10
84.1229019165039
20
75.6461029052734
40
0.0
41
0.0
42
0.0
10
84.4884033203125
20
75.5691986083984
40
0.0
41
0.0
42
0.0
10
84.5942993164062
20
75.4962005615234
40
0.0
41
0.0
42
0.0
10
84.9882965087891
20
75.1253967285156
40
0.0
41
0.0
42
0.0
10
84.9990005493164
20
75.1253967285156
40
0.0
41
0.0
42
0.0
10
84.9989013671875
20
75.1903991699219
40
0.0
41
0.0
42
0.0
10
84.6663970947266
20
75.5035018920898
40
0.0
41
0.0
42
0.0
10
84.5114974975586
20
75.6100006103516
40
0.0
41
0.0
42
0.0
10
84.1828002929688
20
75.67919921875
40
0.0
41
0.0
42
0.0
10
84.1466979980469
20
75.6791000366211
40
0.0
41
0.0
42
0.0
10
83.9870986938477
20
75.6530990600586
40
0.0
41
0.0
42
0.0
10
83.9355010986328
20
75.6235961914062
40
0.0
41
0.0
42
0.0
10
83.7704010009766
20
75.4572982788086
40
0.0
41
0.0
42
0.0
10
83.4929962158203
20
75.3037033081055
40
0.0
41
0.0
42
0.0
10
83.326301574707
20
75.1260986328125
40
0.0
41
0.0
42
0.0
10
83.2462005615234
20
75.008903503418
40
0.0
41
0.0
42
0.0
10
83.1819000244141
20
74.8917999267578
40
0.0
41
0.0
42
0.0
10
82.9963989257812
20
74.6667022705078
40
0.0
41
0.0
42
0.0
10
82.8834991455078
20
74.5170974731445
40
0.0
41
0.0
42
0.0
10
82.8806991577148
20
74.5121994018555
40
0.0
41
0.0
42
0.0
10
82.85009765625
20
74.3883972167969
40
0.0
41
0.0
42
0.0
10
82.6983032226562
20
74.0158004760742
40
0.0
41
0.0
42
0.0
10
82.6981964111328
20
73.9907989501953
40
0.0
41
0.0
42
0.0
10
82.7086029052734
20
73.8560028076172
40
0.0
41
0.0
42
0.0
210
0.0
220
0.0
230
1.0
0
LWPOLYLINE
5
39
330
1C
100
AcDbEntity
67
0
8
0
62
256
6
ByLayer
370
-1
48
1.0
60
0
100
AcDbPolyline
90
27
70
1
38
0.0
39
0.0
10
83.7966003417969
20
84.8231964111328
40
0.0
41
0.0
42
0.0
10
83.9340972900391
20
84.4794998168945
40
0.0
41
0.0
42
0.0
10
84.0080032348633
20
84.3147964477539
40
0.0
41
0.0
42
0.0
10
84.1489028930664
20
83.9882965087891
40
0.0
41
0.0
42
0.0
10
84.3713989257812
20
83.4888000488281
40
0.0
41
0.0
42
0.0
10
84.4160003662109
20
83.3970031738281
40
0.0
41
0.0
42
0.0
10
84.5073013305664
20
83.2322998046875
40
0.0
41
0.0
42
0.0
10
84.6355972290039
20
82.991096496582
40
0.0
41
0.0
42
0.0
10
84.7548980712891
20
82.8270034790039
40
0.0
41
0.0
42
0.0
10
84.9598007202148
20
82.5246963500977
40
0.0
41
0.0
42
0.0
10
84.9879989624023
20
82.499397277832
40
0.0
41
0.0
42
0.0
10
84.9990005493164
20
82.499397277832
40
0.0
41
0.0
42
0.0
10
84.9989013671875
20
82.5205993652344
40
0.0
41
0.0
42
0.0
10
84.9766998291016
20
82.540901184082
40
0.0
41
0.0
42
0.0
10
84.7446975708008
20
82.8828964233398
40
0.0
41
0.0
42
0.0
10
84.6530990600586
20
83.0087966918945
40
0.0
41
0.0
42
0.0
10
84.50830078125
20
83.2813034057617
40
0.0
41
0.0
42
0.0
10
84.4387969970703
20
83.4066009521484
40
0.0
41
0.0
42
0.0
10
84.3880004882812
20
83.511100769043
40
0.0
41
0.0
42
0.0
10
84.1651000976562
20
84.0114974975586
40
0.0
41
0.0
42
0.0
10
84.0074005126953
20
84.3768997192383
40
0.0
41
0.0
42
0.0
10
83.951301574707
20
84.5020980834961
40
0.0
41
0.0
42
0.0
10
83.7973022460938
20
84.8865966796875
40
0.0
41
0.0
42
0.0
10
83.7462005615234
20
84.9990005493164
40
0.0
41
0.0
42
0.0
10
83.7230987548828
20
84.9990005493164
40
0.0
41
0.0
42
0.0
10
83.7229995727539
20
84.9844970703125
40
0.0
41
0.0
42
0.0
10
83.7966003417969
20
84.8231964111328
40
0.0
41
0.0
42
0.0
210
0.0
220
0.0
230
1.0
0
VIEWPORT
5
3E
330
3A
100
AcDbEntity
67
1
8
0
62
256
6
ByLayer
370
-1
48
1.0
60
0
100
AcDbViewport
10
0.0
20
0.0
30
0.0
40
297.0
41
210.0
68
1
69
1
12
50.0
22
100.0
13
0.0
23
0.0
14
10.0
24
10.0
15
10.0
25
10.0
16
0.0
26
0.0
36
1.0
17
0.0
27
0.0
37
0.0
42
50.0
43
0.0
44
0.0
45
250.0
50
0.0
51
0.0
72
1000
90
819232
110
0.0
120
0.0
130
0.0
111
1.0
121
0.0
131
0.0
112
0.0
122
1.0
132
0.0
0
ENDSEC
0
SECTION
2
OBJECTS
0
DICTIONARY
5
44
330
0
100
AcDbDictionary
280
1
281
1
3
ACAD_GROUP
350
12
3
ACAD_LAYOUT
350
3D
3
ACAD_DGNDEFINITIONS
350
F
3
ACAD_DWFDEFINITIONS
350
10
3
ACAD_PDFDEFINITIONS
350
11
3
ACAD_MLINESTYLE
350
B
3
ACAD_IMAGE_DICT
350
E
3
ACAD_IMAGE_VARS
350
21
0
DICTIONARY
5
12
330
44
100
AcDbDictionary
280
1
281
1
0
DICTIONARY
5
3D
330
44
100
AcDbDictionary
280
1
281
1
3
Model
350
20
3
Layout1
350
3F
0
DICTIONARY
5
F
330
44
100
AcDbDictionary
280
1
281
1
0
DICTIONARY
5
10
330
44
100
AcDbDictionary
280
1
281
1
0
DICTIONARY
5
11
330
44
100
AcDbDictionary
280
1
281
1
0
DICTIONARY
5
B
330
44
100
AcDbDictionary
280
1
281
1
3
Standard
350
1B
0
DICTIONARY
5
E
330
44
100
AcDbDictionary
280
1
281
1
0
DICTIONARY
5
6
330
5
100
AcDbDictionary
280
1
281
1
3
ACAD_LAYERSTATES
360
45
0
DICTIONARY
5
45
330
6
100
AcDbDictionary
280
1
281
1
0
LAYOUT
5
20
330
3D
100
AcDbPlotSettings
1

2
none_device
4
ISO_A4_(210.00_x_297.00_MM)
6

40
7.5
41
20.0
42
7.5
43
20.0
44
210.0
45
297.0
46
0.0
47
0.0
48
0.0
49
0.0
140
0.0
141
0.0
142
1.0
143
1.0
70
11952
72
1
73
1
74
1
7

75
0
76
0
77
2
78
300
147
1.0
148
0.0
149
0.0
100
AcDbLayout
1
Model
71
0
10
-20.0
20
-7.5
11
277.0
21
202.5
12
0.0
22
0.0
32
0.0
14
25.7
24
19.5
34
0.0
15
231.3
25
175.5
35
0.0
146
0.0
13
0.0
23
0.0
33
0.0
16
1.0
26
0.0
36
0.0
17
0.0
27
1.0
37
0.0
76
0
330
1C
0
LAYOUT
5
3F
330
3D
100
AcDbPlotSettings
1

2
none_device
4
ISO_A4_(210.00_x_297.00_MM)
6

40
7.5
41
20.0
42
7.5
43
20.0
44
210.0
45
297.0
46
0.0
47
0.0
48
0.0
49
0.0
140
0.0
141
0.0
142
1.0
143
1.0
70
688
72
1
73
1
74
1
7

75
0
76
0
77
2
78
300
147
1.0
148
0.0
149
0.0
100
AcDbLayout
1
Layout1
71
1
10
-20.0
20
-7.5
11
277.0
21
202.5
12
0.0
22
0.0
32
0.0
14
25.7
24
19.5
34
0.0
15
231.3
25
175.5
35
0.0
146
0.0
13
0.0
23
0.0
33
0.0
16
1.0
26
0.0
36
0.0
17
0.0
27
1.0
37
0.0
76
0
330
3A
0
MLINESTYLE
5
1B
330
B
100
AcDbMlineStyle
2
Standard
70
0
3

62
256
51
90.0
52
90.0
71
2
49
0.5
62
256
6
ByLayer
49
-0.5
62
256
6
ByLayer
0
RASTERVARIABLES
5
21
330
E
100
AcDbRasterVariables
90
0
70
1
71
1
72
0
0
ENDSEC
0
EOF
