999
DXF file generated by netDxf https://github.com/haplokuon/netDxf, Copyright(C) Daniel Carvajal, Licensed under MIT
0
SECTION
2
HEADER
9
$ACADVER
1
AC1015
9
$DWGCODEPAGE
3
ANSI_1252
9
$HANDSEED
5
44
9
$ANGBASE
50
0.0
9
$ANGDIR
70
0
9
$ATTMODE
70
1
9
$AUNITS
70
0
9
$AUPREC
70
0
9
$CECOLOR
62
256
9
$CELTSCALE
40
1.0
9
$CELTYPE
6
ByLayer
9
$CELWEIGHT
370
-1
9
$CLAYER
8
0
9
$CMLJUST
70
0
9
$CMLSCALE
40
20.0
9
$CMLSTYLE
2
Standard
9
$DIMSTYLE
2
Standard
9
$TEXTSIZE
40
2.5
9
$TEXTSTYLE
7
Standard
9
$LUNITS
70
2
9
$LUPREC
70
4
9
$MIRRTEXT
70
0
9
$EXTNAMES
290
1
9
$INSBASE
10
0.0
20
0.0
30
0.0
9
$INSUNITS
70
0
9
$LTSCALE
40
1.0
9
$LWDISPLAY
290
0
9
$PDMODE
70
0
9
$PDSIZE
40
0.0
9
$PLINEGEN
70
0
9
$PSLTSCALE
70
1
9
$SPLINESEGS
70
8
9
$SURFU
70
6
9
$SURFV
70
6
9
$TDCREATE
40
2460823.4836531
9
$TDUCREATE
40
2460823.15031977
9
$TDUPDATE
40
2460823.4836531
9
$TDUUPDATE
40
2460823.15031977
9
$TDINDWG
40
0.0
9
$UCSORG
10
0.0
20
0.0
30
0.0
9
$UCSXDIR
10
1.0
20
0.0
30
0.0
9
$UCSYDIR
10
0.0
20
1.0
30
0.0
9
$DIMADEC
70
0
9
$DIMALT
70
0
9
$DIMALTD
70
2
9
$DIMALTF
40
25.4
9
$DIMALTRND
40
0.0
9
$DIMALTTD
70
2
9
$DIMALTTZ
70
0
9
$DIMALTU
70
2
9
$DIMALTZ
70
0
9
$DIMAPOST
1

9
$DIMATFIT
70
3
9
$DIMAUNIT
70
0
9
$DIMASZ
40
0.18
9
$DIMAZIN
70
0
9
$DIMSAH
70
0
9
$DIMBLK
1

9
$DIMLDRBLK
1

9
$DIMCEN
40
0.09
9
$DIMCLRD
70
0
9
$DIMCLRE
70
0
9
$DIMCLRT
70
0
9
$DIMDEC
70
4
9
$DIMDLE
40
0.0
9
$DIMDLI
40
0.38
9
$DIMDSEP
70
46
9
$DIMEXE
40
0.18
9
$DIMEXO
40
0.0625
9
$DIMFXLON
70
0
9
$DIMFXL
40
1.0
9
$DIMGAP
40
0.09
9
$DIMJUST
70
0
9
$DIMLFAC
40
1.0
9
$DIMLUNIT
70
2
9
$DIMLWD
70
-2
9
$DIMLWE
70
-2
9
$DIMPOST
1

9
$DIMRND
40
0.0
9
$DIMSCALE
40
1.0
9
$DIMSD1
70
0
9
$DIMSD2
70
0
9
$DIMSE1
70
0
9
$DIMSE2
70
0
9
$DIMSOXD
70
0
9
$DIMTAD
70
0
9
$DIMTDEC
70
4
9
$DIMTFAC
40
1.0
9
$DIMTIH
70
0
9
$DIMTIX
70
0
9
$DIMTM
40
0.0
9
$DIMTMOVE
70
0
9
$DIMTOFL
70
0
9
$DIMTOH
70
0
9
$DIMTOL
70
0
9
$DIMLIM
70
0
9
$DIMTOLJ
70
1
9
$DIMTP
40
0.0
9
$DIMTXT
40
0.18
9
$DIMTXTDIRECTION
70
0
9
$DIMTZIN
70
0
9
$DIMZIN
70
0
9
$DIMFRAC
70
0
9
$DIMLTYPE
6
ByBlock
9
$DIMLTEX1
6
ByBlock
9
$DIMLTEX2
6
ByBlock
0
ENDSEC
0
SECTION
2
CLASSES
0
CLASS
1
RASTERVARIABLES
2
AcDbRasterVariables
3
ISM
90
0
280
0
281
0
0
ENDSEC
0
SECTION
2
TABLES
0
TABLE
2
APPID
5
4
330
0
100
AcDbSymbolTable
70
5
0
APPID
5
19
330
4
100
AcDbSymbolTableRecord
100
AcDbRegAppTableRecord
2
ACAD
70
0
0
APPID
5
3E
330
4
100
AcDbSymbolTableRecord
100
AcDbRegAppTableRecord
2
AcCmTransparency
70
0
0
APPID
5
3F
330
4
100
AcDbSymbolTableRecord
100
AcDbRegAppTableRecord
2
AcAecLayerStandard
70
0
0
APPID
5
40
330
4
100
AcDbSymbolTableRecord
100
AcDbRegAppTableRecord
2
GradientColor1ACI
70
0
0
APPID
5
41
330
4
100
AcDbSymbolTableRecord
100
AcDbRegAppTableRecord
2
GradientColor2ACI
70
0
0
ENDTAB
0
TABLE
2
VPORT
5
1
330
0
100
AcDbSymbolTable
70
1
0
VPORT
5
2
330
1
100
AcDbSymbolTableRecord
100
AcDbViewportTableRecord
2
*Active
70
0
10
0.0
20
0.0
11
1.0
21
1.0
12
0.0
22
0.0
13
0.0
23
0.0
14
0.5
24
0.5
15
10.0
25
10.0
16
0.0
26
0.0
36
1.0
17
0.0
27
0.0
37
0.0
40
10.0
41
1.0
75
0
76
1
0
ENDTAB
0
TABLE
2
LTYPE
5
7
330
0
100
AcDbSymbolTable
70
3
0
LTYPE
5
15
330
7
100
AcDbSymbolTableRecord
100
AcDbLinetypeTableRecord
2
Continuous
70
0
3
Solid line
72
65
73
0
40
0.0
0
LTYPE
5
16
330
7
100
AcDbSymbolTableRecord
100
AcDbLinetypeTableRecord
2
ByLayer
70
0
3

72
65
73
0
40
0.0
0
LTYPE
5
17
330
7
100
AcDbSymbolTableRecord
100
AcDbLinetypeTableRecord
2
ByBlock
70
0
3

72
65
73
0
40
0.0
0
ENDTAB
0
TABLE
2
LAYER
5
5
102
{ACAD_XDICTIONARY
360
6
102
}
330
0
100
AcDbSymbolTable
70
1
0
LAYER
5
14
330
5
100
AcDbSymbolTableRecord
100
AcDbLayerTableRecord
2
0
70
0
62
7
6
Continuous
290
1
370
-3
390
0
0
ENDTAB
0
TABLE
2
STYLE
5
8
330
0
100
AcDbSymbolTable
70
1
0
STYLE
5
18
330
8
100
AcDbSymbolTableRecord
100
AcDbTextStyleTableRecord
2
Standard
3
simplex.shx
70
0
71
0
40
0.0
41
1.0
42
0.0
50
0.0
0
ENDTAB
0
TABLE
2
DIMSTYLE
5
A
330
0
100
AcDbSymbolTable
70
1
100
AcDbDimStyleTable
0
DIMSTYLE
105
1A
330
A
100
AcDbSymbolTableRecord
100
AcDbDimStyleTableRecord
2
Standard
3

4

40
1.0
41
0.18
42
0.0625
43
0.38
44
0.18
45
0.0
46
0.0
47
0.0
48
0.0
49
1.0
70
0
71
0
72
0
73
0
74
0
75
0
76
0
77
0
78
0
79
0
140
0.18
141
0.09
143
25.4
144
1.0
146
1.0
147
0.09
148
0.0
170
0
171
2
172
0
174
0
175
0
176
0
177
0
178
0
179
0
271
4
272
4
273
2
274
2
275
0
276
0
277
2
278
46
279
0
280
0
281
0
282
0
283
1
284
0
285
0
286
0
289
3
290
0
294
0
340
18
173
0
345
17
346
17
347
17
371
-2
372
-2
0
ENDTAB
0
TABLE
2
VIEW
5
3
330
0
100
AcDbSymbolTable
70
0
0
ENDTAB
0
TABLE
2
UCS
5
C
330
0
100
AcDbSymbolTable
70
0
0
ENDTAB
0
TABLE
2
BLOCK_RECORD
5
D
330
0
100
AcDbSymbolTable
70
2
0
BLOCK_RECORD
5
1C
330
D
100
AcDbSymbolTableRecord
100
AcDbBlockTableRecord
2
*Model_Space
340
20
0
BLOCK_RECORD
5
38
330
D
100
AcDbSymbolTableRecord
100
AcDbBlockTableRecord
2
*Paper_Space
340
3D
0
ENDTAB
0
ENDSEC
0
SECTION
2
BLOCKS
0
BLOCK
5
1E
330
1C
100
AcDbEntity
67
0
8
0
100
AcDbBlockBegin
2
*Model_Space
70
0
10
0.0
20
0.0
30
0.0
3
*Model_Space
4

0
ENDBLK
5
1D
330
1C
100
AcDbEntity
8
0
100
AcDbBlockEnd
0
BLOCK
5
3A
330
38
100
AcDbEntity
67
1
8
0
100
AcDbBlockBegin
2
*Paper_Space
70
0
10
0.0
20
0.0
30
0.0
3
*Paper_Space
4

0
ENDBLK
5
39
330
38
100
AcDbEntity
8
0
100
AcDbBlockEnd
0
ENDSEC
0
SECTION
2
ENTITIES
0
LWPOLYLINE
5
22
330
1C
100
AcDbEntity
67
0
8
0
62
256
6
ByLayer
370
-1
48
1.0
60
0
100
AcDbPolyline
90
27
70
1
38
0.0
39
0.0
10
65.1958999633789
20
66.0018005371094
40
0.0
41
0.0
42
0.0
10
65.4873962402344
20
65.905403137207
40
0.0
41
0.0
42
0.0
10
65.7025985717773
20
65.8124008178711
40
0.0
41
0.0
42
0.0
10
65.9877014160156
20
65.7118988037109
40
0.0
41
0.0
42
0.0
10
66.2030029296875
20
65.6159973144531
40
0.0
41
0.0
42
0.0
10
66.4260025024414
20
65.5281982421875
40
0.0
41
0.0
42
0.0
10
66.488899230957
20
65.5012969970703
40
0.0
41
0.0
42
0.0
10
66.7042007446289
20
65.3899002075195
40
0.0
41
0.0
42
0.0
10
66.9896011352539
20
65.2565994262695
40
0.0
41
0.0
42
0.0
10
67.2089004516602
20
65.129997253418
40
0.0
41
0.0
42
0.0
10
67.3992004394531
20
65.0009994506836
40
0.0
41
0.0
42
0.0
10
67.4175033569336
20
65.0009994506836
40
0.0
41
0.0
42
0.0
10
67.4173965454102
20
65.0087966918945
40
0.0
41
0.0
42
0.0
10
67.1959991455078
20
65.1589965820312
40
0.0
41
0.0
42
0.0
10
67.0102005004883
20
65.2662963867188
40
0.0
41
0.0
42
0.0
10
66.7656021118164
20
65.3804016113281
40
0.0
41
0.0
42
0.0
10
66.5110015869141
20
65.5122985839844
40
0.0
41
0.0
42
0.0
10
66.4587020874023
20
65.5346984863281
40
0.0
41
0.0
42
0.0
10
66.2667999267578
20
65.6101989746094
40
0.0
41
0.0
42
0.0
10
66.0121002197266
20
65.7236022949219
40
0.0
41
0.0
42
0.0
10
65.7673034667969
20
65.8098983764648
40
0.0
41
0.0
42
0.0
10
65.5124969482422
20
65.9201965332031
40
0.0
41
0.0
42
0.0
10
65.2623977661133
20
66.002799987793
40
0.0
41
0.0
42
0.0
10
65.0158996582031
20
66.1014022827148
40
0.0
41
0.0
42
0.0
10
65.0009994506836
20
66.1014022827148
40
0.0
41
0.0
42
0.0
10
65.0008010864258
20
66.0798034667969
40
0.0
41
0.0
42
0.0
10
65.1958999633789
20
66.0018005371094
40
0.0
41
0.0
42
0.0
210
0.0
220
0.0
230
1.0
0
LWPOLYLINE
5
23
330
1C
100
AcDbEntity
67
0
8
0
62
256
6
ByLayer
370
-1
48
1.0
60
0
100
AcDbPolyline
90
89
70
1
38
0.0
39
0.0
10
65.0009002685547
20
72.9073028564453
40
0.0
41
0.0
42
0.0
10
65.0350036621094
20
72.8572998046875
40
0.0
41
0.0
42
0.0
10
65.1368026733398
20
72.7375030517578
40
0.0
41
0.0
42
0.0
10
65.2955017089844
20
72.4937973022461
40
0.0
41
0.0
42
0.0
10
65.4470977783203
20
72.3622970581055
40
0.0
41
0.0
42
0.0
10
65.4937973022461
20
72.3147964477539
40
0.0
41
0.0
42
0.0
10
65.7360992431641
20
72.1317977905273
40
0.0
41
0.0
42
0.0
10
65.9876022338867
20
72.0048980712891
40
0.0
41
0.0
42
0.0
10
66.2300033569336
20
71.9360961914062
40
0.0
41
0.0
42
0.0
10
66.2671966552734
20
71.9282989501953
40
0.0
41
0.0
42
0.0
10
66.3041000366211
20
71.9281997680664
40
0.0
41
0.0
42
0.0
10
66.5158004760742
20
71.9462966918945
40
0.0
41
0.0
42
0.0
10
66.681396484375
20
71.9997024536133
40
0.0
41
0.0
42
0.0
10
66.7172012329102
20
72.0140991210938
40
0.0
41
0.0
42
0.0
10
66.8985977172852
20
72.2126007080078
40
0.0
41
0.0
42
0.0
10
66.9738998413086
20
72.2434005737305
40
0.0
41
0.0
42
0.0
10
67.0039978027344
20
72.2770004272461
40
0.0
41
0.0
42
0.0
10
67.1831970214844
20
72.492301940918
40
0.0
41
0.0
42
0.0
10
67.2128982543945
20
72.5393981933594
40
0.0
41
0.0
42
0.0
10
67.2901000976562
20
72.7053985595703
40
0.0
41
0.0
42
0.0
10
67.3638000488281
20
72.8134002685547
40
0.0
41
0.0
42
0.0
10
67.4517974853516
20
72.9879989624023
40
0.0
41
0.0
42
0.0
10
67.5002975463867
20
73.1352005004883
40
0.0
41
0.0
42
0.0
10
67.654899597168
20
73.4849014282227
40
0.0
41
0.0
42
0.0
10
67.6647033691406
20
73.661003112793
40
0.0
41
0.0
42
0.0
10
67.6697006225586
20
74.0130996704102
40
0.0
41
0.0
42
0.0
10
67.5343017578125
20
74.193603515625
40
0.0
41
0.0
42
0.0
10
67.5014038085938
20
74.2422027587891
40
0.0
41
0.0
42
0.0
10
67.3834991455078
20
74.5092010498047
40
0.0
41
0.0
42
0.0
10
67.3345031738281
20
74.5742034912109
40
0.0
41
0.0
42
0.0
10
67.0045013427734
20
74.8880004882812
40
0.0
41
0.0
42
0.0
10
66.9073028564453
20
75.0059967041016
40
0.0
41
0.0
42
0.0
10
66.7914962768555
20
75.1285018920898
40
0.0
41
0.0
42
0.0
10
66.5133972167969
20
75.3000030517578
40
0.0
41
0.0
42
0.0
10
66.2602005004883
20
75.3153991699219
40
0.0
41
0.0
42
0.0
10
66.0145034790039
20
75.4515991210938
40
0.0
41
0.0
42
0.0
10
65.9821014404297
20
75.4514999389648
40
0.0
41
0.0
42
0.0
10
65.8650970458984
20
75.4278030395508
40
0.0
41
0.0
42
0.0
10
65.7332000732422
20
75.3991012573242
40
0.0
41
0.0
42
0.0
10
65.4931030273438
20
75.2427978515625
40
0.0
41
0.0
42
0.0
10
65.263298034668
20
75.0195007324219
40
0.0
41
0.0
42
0.0
10
65.2530975341797
20
75.0074996948242
40
0.0
41
0.0
42
0.0
10
65.0939025878906
20
74.7639007568359
40
0.0
41
0.0
42
0.0
10
65.0070037841797
20
74.614501953125
40
0.0
41
0.0
42
0.0
10
65.0009994506836
20
74.6063003540039
40
0.0
41
0.0
42
0.0
10
65.0009994506836
20
74.5376968383789
40
0.0
41
0.0
42
0.0
10
65.0085983276367
20
74.5376968383789
40
0.0
41
0.0
42
0.0
10
65.1064987182617
20
74.7060012817383
40
0.0
41
0.0
42
0.0
10
65.2939987182617
20
74.9924011230469
40
0.0
41
0.0
42
0.0
10
65.3087997436523
20
75.0103988647461
40
0.0
41
0.0
42
0.0
10
65.5067977905273
20
75.2025985717773
40
0.0
41
0.0
42
0.0
10
65.7967987060547
20
75.3915023803711
40
0.0
41
0.0
42
0.0
10
65.993896484375
20
75.4331970214844
40
0.0
41
0.0
42
0.0
10
66.2020034790039
20
75.3180999755859
40
0.0
41
0.0
42
0.0
10
66.2372970581055
20
75.3122024536133
40
0.0
41
0.0
42
0.0
10
66.4865036010742
20
75.2969970703125
40
0.0
41
0.0
42
0.0
10
66.7382965087891
20
75.1417999267578
40
0.0
41
0.0
42
0.0
10
66.8778991699219
20
74.9937973022461
40
0.0
41
0.0
42
0.0
10
66.9953002929688
20
74.8513031005859
40
0.0
41
0.0
42
0.0
10
67.2795028686523
20
74.5809020996094
40
0.0
41
0.0
42
0.0
10
67.3476028442383
20
74.4906005859375
40
0.0
41
0.0
42
0.0
10
67.4983978271484
20
74.1494979858398
40
0.0
41
0.0
42
0.0
10
67.5186004638672
20
74.119499206543
40
0.0
41
0.0
42
0.0
10
67.6175003051758
20
73.9876022338867
40
0.0
41
0.0
42
0.0
10
67.6119003295898
20
73.6399993896484
40
0.0
41
0.0
42
0.0
10
67.6050033569336
20
73.5149993896484
40
0.0
41
0.0
42
0.0
10
67.4994964599609
20
73.2762985229492
40
0.0
41
0.0
42
0.0
10
67.4124984741211
20
73.0119018554688
40
0.0
41
0.0
42
0.0
10
67.3343963623047
20
72.8570022583008
40
0.0
41
0.0
42
0.0
10
67.2714996337891
20
72.7646026611328
40
0.0
41
0.0
42
0.0
10
67.1801986694336
20
72.568603515625
40
0.0
41
0.0
42
0.0
10
67.1417999267578
20
72.5075988769531
40
0.0
41
0.0
42
0.0
10
66.9959030151367
20
72.3320999145508
40
0.0
41
0.0
42
0.0
10
66.9524993896484
20
72.2837982177734
40
0.0
41
0.0
42
0.0
10
66.8876037597656
20
72.2573013305664
40
0.0
41
0.0
42
0.0
10
66.6723022460938
20
72.0216979980469
40
0.0
41
0.0
42
0.0
10
66.6185989379883
20
72.0001983642578
40
0.0
41
0.0
42
0.0
10
66.4841003417969
20
71.956901550293
40
0.0
41
0.0
42
0.0
10
66.2614974975586
20
71.9376983642578
40
0.0
41
0.0
42
0.0
10
66.0122985839844
20
72.0084991455078
40
0.0
41
0.0
42
0.0
10
65.7938003540039
20
72.1186981201172
40
0.0
41
0.0
42
0.0
10
65.5059967041016
20
72.3361968994141
40
0.0
41
0.0
42
0.0
10
65.4505996704102
20
72.3925018310547
40
0.0
41
0.0
42
0.0
10
65.3198013305664
20
72.5059967041016
40
0.0
41
0.0
42
0.0
10
65.1333999633789
20
72.7922973632812
40
0.0
41
0.0
42
0.0
10
65.0477981567383
20
72.8928985595703
40
0.0
41
0.0
42
0.0
10
65.0087966918945
20
72.9503021240234
40
0.0
41
0.0
42
0.0
10
65.0009994506836
20
72.9503021240234
40
0.0
41
0.0
42
0.0
10
65.0009002685547
20
72.9073028564453
40
0.0
41
0.0
42
0.0
210
0.0
220
0.0
230
1.0
0
LWPOLYLINE
5
24
330
1C
100
AcDbEntity
67
0
8
0
62
256
6
ByLayer
370
-1
48
1.0
60
0
100
AcDbPolyline
90
27
70
1
38
0.0
39
0.0
10
65.0009994506836
20
82.5823974609375
40
0.0
41
0.0
42
0.0
10
65.0087966918945
20
82.5822982788086
40
0.0
41
0.0
42
0.0
10
65.1589965820312
20
82.8038024902344
40
0.0
41
0.0
42
0.0
10
65.2664031982422
20
82.9897003173828
40
0.0
41
0.0
42
0.0
10
65.380500793457
20
83.2341995239258
40
0.0
41
0.0
42
0.0
10
65.5123977661133
20
83.488899230957
40
0.0
41
0.0
42
0.0
10
65.5346984863281
20
83.5410995483398
40
0.0
41
0.0
42
0.0
10
65.6102981567383
20
83.7331008911133
40
0.0
41
0.0
42
0.0
10
65.7237014770508
20
83.9877014160156
40
0.0
41
0.0
42
0.0
10
65.8099975585938
20
84.2325973510742
40
0.0
41
0.0
42
0.0
10
65.9203033447266
20
84.4873962402344
40
0.0
41
0.0
42
0.0
10
66.002799987793
20
84.7375030517578
40
0.0
41
0.0
42
0.0
10
66.1014022827148
20
84.984001159668
40
0.0
41
0.0
42
0.0
10
66.1014022827148
20
84.9990005493164
40
0.0
41
0.0
42
0.0
10
66.0798034667969
20
84.9990005493164
40
0.0
41
0.0
42
0.0
10
66.0018997192383
20
84.8039016723633
40
0.0
41
0.0
42
0.0
10
65.9055023193359
20
84.5124969482422
40
0.0
41
0.0
42
0.0
10
65.8124008178711
20
84.2973022460938
40
0.0
41
0.0
42
0.0
10
65.7118988037109
20
84.0121994018555
40
0.0
41
0.0
42
0.0
10
65.6159973144531
20
83.7967987060547
40
0.0
41
0.0
42
0.0
10
65.5281982421875
20
83.5738983154297
40
0.0
41
0.0
42
0.0
10
65.5012969970703
20
83.5110015869141
40
0.0
41
0.0
42
0.0
10
65.3899993896484
20
83.2957000732422
40
0.0
41
0.0
42
0.0
10
65.2566986083984
20
83.0102005004883
40
0.0
41
0.0
42
0.0
10
65.129997253418
20
82.7910003662109
40
0.0
41
0.0
42
0.0
10
65.0009994506836
20
82.6006011962891
40
0.0
41
0.0
42
0.0
10
65.0009994506836
20
82.5823974609375
40
0.0
41
0.0
42
0.0
210
0.0
220
0.0
230
1.0
0
LWPOLYLINE
5
25
330
1C
100
AcDbEntity
67
0
8
0
62
256
6
ByLayer
370
-1
48
1.0
60
0
100
AcDbPolyline
90
53
70
1
38
0.0
39
0.0
10
66.3739013671875
20
79.980598449707
40
0.0
41
0.0
42
0.0
10
66.388298034668
20
79.7375030517578
40
0.0
41
0.0
42
0.0
10
66.4355010986328
20
79.486198425293
40
0.0
41
0.0
42
0.0
10
66.4868011474609
20
79.3690032958984
40
0.0
41
0.0
42
0.0
10
66.4998016357422
20
79.3195037841797
40
0.0
41
0.0
42
0.0
10
66.5813980102539
20
79.1268997192383
40
0.0
41
0.0
42
0.0
10
66.5924987792969
20
79.109001159668
40
0.0
41
0.0
42
0.0
10
66.7121963500977
20
78.9973983764648
40
0.0
41
0.0
42
0.0
10
66.8038024902344
20
78.9524002075195
40
0.0
41
0.0
42
0.0
10
66.9903030395508
20
78.7585983276367
40
0.0
41
0.0
42
0.0
10
67.2667007446289
20
78.7126007080078
40
0.0
41
0.0
42
0.0
10
67.3042984008789
20
78.7125015258789
40
0.0
41
0.0
42
0.0
10
67.5175018310547
20
78.7265014648438
40
0.0
41
0.0
42
0.0
10
67.8000030517578
20
78.7743988037109
40
0.0
41
0.0
42
0.0
10
67.8958969116211
20
78.8044967651367
40
0.0
41
0.0
42
0.0
10
68.013801574707
20
78.8439025878906
40
0.0
41
0.0
42
0.0
10
68.2405014038086
20
78.9072036743164
40
0.0
41
0.0
42
0.0
10
68.5090026855469
20
79.0270004272461
40
0.0
41
0.0
42
0.0
10
68.6435012817383
20
79.1328964233398
40
0.0
41
0.0
42
0.0
10
69.0050964355469
20
79.3675994873047
40
0.0
41
0.0
42
0.0
10
69.0912017822266
20
79.4915008544922
40
0.0
41
0.0
42
0.0
10
69.2230987548828
20
79.7014007568359
40
0.0
41
0.0
42
0.0
10
69.2347030639648
20
79.9826965332031
40
0.0
41
0.0
42
0.0
10
69.2818984985352
20
80.1971969604492
40
0.0
41
0.0
42
0.0
10
69.2817993164062
20
80.2343978881836
40
0.0
41
0.0
42
0.0
10
69.2674026489258
20
80.4981994628906
40
0.0
41
0.0
42
0.0
10
69.2805023193359
20
80.6956024169922
40
0.0
41
0.0
42
0.0
10
69.280403137207
20
80.7332992553711
40
0.0
41
0.0
42
0.0
10
69.2351989746094
20
81.0170974731445
40
0.0
41
0.0
42
0.0
10
69.2113037109375
20
81.2304992675781
40
0.0
41
0.0
42
0.0
10
69.1997985839844
20
81.2670974731445
40
0.0
41
0.0
42
0.0
10
69.0202026367188
20
81.6314010620117
40
0.0
41
0.0
42
0.0
10
69.0086975097656
20
81.6419982910156
40
0.0
41
0.0
42
0.0
10
68.7658004760742
20
81.730598449707
40
0.0
41
0.0
42
0.0
10
68.5140991210938
20
81.8841018676758
40
0.0
41
0.0
42
0.0
10
68.1834030151367
20
81.8832015991211
40
0.0
41
0.0
42
0.0
10
67.9828033447266
20
81.8753967285156
40
0.0
41
0.0
42
0.0
10
67.8784027099609
20
81.8505020141602
40
0.0
41
0.0
42
0.0
10
67.7306976318359
20
81.8095016479492
40
0.0
41
0.0
42
0.0
10
67.4878997802734
20
81.7385025024414
40
0.0
41
0.0
42
0.0
10
67.2354965209961
20
81.6041030883789
40
0.0
41
0.0
42
0.0
10
67.0882034301758
20
81.5111999511719
40
0.0
41
0.0
42
0.0
10
67.0697021484375
20
81.5018005371094
40
0.0
41
0.0
42
0.0
10
66.9928970336914
20
81.4481964111328
40
0.0
41
0.0
42
0.0
10
66.8991012573242
20
81.36669921875
40
0.0
41
0.0
42
0.0
10
66.7990036010742
20
81.2614974975586
40
0.0
41
0.0
42
0.0
10
66.6406021118164
20
81.043701171875
40
0.0
41
0.0
42
0.0
10
66.6202011108398
20
81.0099029541016
40
0.0
41
0.0
42
0.0
10
66.4989013671875
20
80.7611999511719
40
0.0
41
0.0
42
0.0
10
66.4831008911133
20
80.7263031005859
40
0.0
41
0.0
42
0.0
10
66.4240036010742
20
80.5152969360352
40
0.0
41
0.0
42
0.0
10
66.3821029663086
20
80.2727966308594
40
0.0
41
0.0
42
0.0
10
66.3739013671875
20
79.980598449707
40
0.0
41
0.0
42
0.0
210
0.0
220
0.0
230
1.0
0
LWPOLYLINE
5
26
330
1C
100
AcDbEntity
67
0
8
0
62
256
6
ByLayer
370
-1
48
1.0
60
0
100
AcDbPolyline
90
51
70
1
38
0.0
39
0.0
10
66.383903503418
20
80.005500793457
40
0.0
41
0.0
42
0.0
10
66.3899993896484
20
80.1969985961914
40
0.0
41
0.0
42
0.0
10
66.4222030639648
20
80.3892974853516
40
0.0
41
0.0
42
0.0
10
66.439697265625
20
80.4847030639648
40
0.0
41
0.0
42
0.0
10
66.4872970581055
20
80.6540985107422
40
0.0
41
0.0
42
0.0
10
66.6500015258789
20
80.9899978637695
40
0.0
41
0.0
42
0.0
10
66.6690979003906
20
81.0214996337891
40
0.0
41
0.0
42
0.0
10
66.8050003051758
20
81.2083969116211
40
0.0
41
0.0
42
0.0
10
66.9250030517578
20
81.3345031738281
40
0.0
41
0.0
42
0.0
10
67.0070037841797
20
81.4057998657227
40
0.0
41
0.0
42
0.0
10
67.138801574707
20
81.4980010986328
40
0.0
41
0.0
42
0.0
10
67.1705017089844
20
81.5140991210938
40
0.0
41
0.0
42
0.0
10
67.2944030761719
20
81.5921020507812
40
0.0
41
0.0
42
0.0
10
67.5120010375977
20
81.7080001831055
40
0.0
41
0.0
42
0.0
10
67.799201965332
20
81.7920989990234
40
0.0
41
0.0
42
0.0
10
67.9246978759766
20
81.8268966674805
40
0.0
41
0.0
42
0.0
10
68.0170974731445
20
81.8488998413086
40
0.0
41
0.0
42
0.0
10
68.2690963745117
20
81.8585968017578
40
0.0
41
0.0
42
0.0
10
68.4860000610352
20
81.8592987060547
40
0.0
41
0.0
42
0.0
10
68.7041015625
20
81.7264022827148
40
0.0
41
0.0
42
0.0
10
68.991096496582
20
81.621696472168
40
0.0
41
0.0
42
0.0
10
69.0171966552734
20
81.5975036621094
40
0.0
41
0.0
42
0.0
10
69.2016983032227
20
81.2228012084961
40
0.0
41
0.0
42
0.0
10
69.2285003662109
20
80.9828033447266
40
0.0
41
0.0
42
0.0
10
69.265998840332
20
80.7475967407227
40
0.0
41
0.0
42
0.0
10
69.2508010864258
20
80.5192031860352
40
0.0
41
0.0
42
0.0
10
69.2508010864258
20
80.4804992675781
40
0.0
41
0.0
42
0.0
10
69.2627029418945
20
80.2651977539062
40
0.0
41
0.0
42
0.0
10
69.2081985473633
20
80.0173034667969
40
0.0
41
0.0
42
0.0
10
69.1978988647461
20
79.7685012817383
40
0.0
41
0.0
42
0.0
10
69.0345001220703
20
79.5083999633789
40
0.0
41
0.0
42
0.0
10
68.9949035644531
20
79.4512023925781
40
0.0
41
0.0
42
0.0
10
68.8403015136719
20
79.3509979248047
40
0.0
41
0.0
42
0.0
10
68.5363998413086
20
79.1088027954102
40
0.0
41
0.0
42
0.0
10
68.4906005859375
20
79.075798034668
40
0.0
41
0.0
42
0.0
10
68.3289031982422
20
79.0008010864258
40
0.0
41
0.0
42
0.0
10
68.1641006469727
20
78.9281005859375
40
0.0
41
0.0
42
0.0
10
67.9860992431641
20
78.8784027099609
40
0.0
41
0.0
42
0.0
10
67.8469009399414
20
78.831901550293
40
0.0
41
0.0
42
0.0
10
67.7298965454102
20
78.7950973510742
40
0.0
41
0.0
42
0.0
10
67.4823989868164
20
78.7531967163086
40
0.0
41
0.0
42
0.0
10
67.2526016235352
20
78.7380981445312
40
0.0
41
0.0
42
0.0
10
67.0095977783203
20
78.7786026000977
40
0.0
41
0.0
42
0.0
10
66.845100402832
20
78.9496002197266
40
0.0
41
0.0
42
0.0
10
66.7375030517578
20
79.0024032592773
40
0.0
41
0.0
42
0.0
10
66.592399597168
20
79.1379013061523
40
0.0
41
0.0
42
0.0
10
66.4999008178711
20
79.3563995361328
40
0.0
41
0.0
42
0.0
10
66.4849014282227
20
79.4135971069336
40
0.0
41
0.0
42
0.0
10
66.4411010742188
20
79.5137023925781
40
0.0
41
0.0
42
0.0
10
66.4000015258789
20
79.7323989868164
40
0.0
41
0.0
42
0.0
10
66.383903503418
20
80.005500793457
40
0.0
41
0.0
42
0.0
210
0.0
220
0.0
230
1.0
0
LWPOLYLINE
5
27
330
1C
100
AcDbEntity
67
0
8
0
62
256
6
ByLayer
370
-1
48
1.0
60
0
100
AcDbPolyline
90
54
70
1
38
0.0
39
0.0
10
68.1902008056641
20
67.7306976318359
40
0.0
41
0.0
42
0.0
10
68.2611999511719
20
67.4878997802734
40
0.0
41
0.0
42
0.0
10
68.3955993652344
20
67.2353973388672
40
0.0
41
0.0
42
0.0
10
68.4885025024414
20
67.0882034301758
40
0.0
41
0.0
42
0.0
10
68.4980010986328
20
67.0697021484375
40
0.0
41
0.0
42
0.0
10
68.5510025024414
20
66.9936981201172
40
0.0
41
0.0
42
0.0
10
68.591796875
20
66.9549026489258
40
0.0
41
0.0
42
0.0
10
68.9914016723633
20
66.6194000244141
40
0.0
41
0.0
42
0.0
10
69.2386016845703
20
66.4989013671875
40
0.0
41
0.0
42
0.0
10
69.2734985351562
20
66.4831008911133
40
0.0
41
0.0
42
0.0
10
69.4845962524414
20
66.4240036010742
40
0.0
41
0.0
42
0.0
10
69.7270965576172
20
66.3821029663086
40
0.0
41
0.0
42
0.0
10
69.9803009033203
20
66.3740005493164
40
0.0
41
0.0
42
0.0
10
70.0193023681641
20
66.3739013671875
40
0.0
41
0.0
42
0.0
10
70.2623977661133
20
66.388298034668
40
0.0
41
0.0
42
0.0
10
70.5137023925781
20
66.4355010986328
40
0.0
41
0.0
42
0.0
10
70.6307983398438
20
66.4868011474609
40
0.0
41
0.0
42
0.0
10
70.6826019287109
20
66.5008010864258
40
0.0
41
0.0
42
0.0
10
70.8729019165039
20
66.5814971923828
40
0.0
41
0.0
42
0.0
10
70.8908004760742
20
66.5925979614258
40
0.0
41
0.0
42
0.0
10
71.0024032592773
20
66.7121963500977
40
0.0
41
0.0
42
0.0
10
71.0473022460938
20
66.8038024902344
40
0.0
41
0.0
42
0.0
10
71.2397994995117
20
66.988899230957
40
0.0
41
0.0
42
0.0
10
71.2397003173828
20
67.0193023681641
40
0.0
41
0.0
42
0.0
10
71.2274017333984
20
67.2072982788086
40
0.0
41
0.0
42
0.0
10
71.2732009887695
20
67.4816970825195
40
0.0
41
0.0
42
0.0
10
71.2730026245117
20
67.5182037353516
40
0.0
41
0.0
42
0.0
10
71.2253036499023
20
67.8000030517578
40
0.0
41
0.0
42
0.0
10
71.195198059082
20
67.8957977294922
40
0.0
41
0.0
42
0.0
10
71.1557998657227
20
68.013801574707
40
0.0
41
0.0
42
0.0
10
71.092399597168
20
68.2405014038086
40
0.0
41
0.0
42
0.0
10
71.0008010864258
20
68.4488983154297
40
0.0
41
0.0
42
0.0
10
70.972900390625
20
68.5087966918945
40
0.0
41
0.0
42
0.0
10
70.8668975830078
20
68.6434020996094
40
0.0
41
0.0
42
0.0
10
70.6321029663086
20
69.004997253418
40
0.0
41
0.0
42
0.0
10
70.50830078125
20
69.0912017822266
40
0.0
41
0.0
42
0.0
10
70.2985000610352
20
69.2230987548828
40
0.0
41
0.0
42
0.0
10
70.0171966552734
20
69.2345962524414
40
0.0
41
0.0
42
0.0
10
69.8026962280273
20
69.2818984985352
40
0.0
41
0.0
42
0.0
10
69.7655029296875
20
69.2817993164062
40
0.0
41
0.0
42
0.0
10
69.5017013549805
20
69.2674026489258
40
0.0
41
0.0
42
0.0
10
69.3042984008789
20
69.2805023193359
40
0.0
41
0.0
42
0.0
10
69.2666015625
20
69.280403137207
40
0.0
41
0.0
42
0.0
10
68.9828033447266
20
69.2351989746094
40
0.0
41
0.0
42
0.0
10
68.7693023681641
20
69.2113037109375
40
0.0
41
0.0
42
0.0
10
68.7328033447266
20
69.1997985839844
40
0.0
41
0.0
42
0.0
10
68.3683013916016
20
69.0202026367188
40
0.0
41
0.0
42
0.0
10
68.3576965332031
20
69.0087966918945
40
0.0
41
0.0
42
0.0
10
68.2690963745117
20
68.7658004760742
40
0.0
41
0.0
42
0.0
10
68.1156005859375
20
68.5140991210938
40
0.0
41
0.0
42
0.0
10
68.1165008544922
20
68.1834030151367
40
0.0
41
0.0
42
0.0
10
68.1242980957031
20
67.9828033447266
40
0.0
41
0.0
42
0.0
10
68.149299621582
20
67.8784027099609
40
0.0
41
0.0
42
0.0
10
68.1902008056641
20
67.7306976318359
40
0.0
41
0.0
42
0.0
210
0.0
220
0.0
230
1.0
0
LWPOLYLINE
5
28
330
1C
100
AcDbEntity
67
0
8
0
62
256
6
ByLayer
370
-1
48
1.0
60
0
100
AcDbPolyline
90
50
70
1
38
0.0
39
0.0
10
68.1727981567383
20
67.9246978759766
40
0.0
41
0.0
42
0.0
10
68.1508026123047
20
68.0170974731445
40
0.0
41
0.0
42
0.0
10
68.1410980224609
20
68.2690963745117
40
0.0
41
0.0
42
0.0
10
68.1404037475586
20
68.4860000610352
40
0.0
41
0.0
42
0.0
10
68.2733001708984
20
68.7041015625
40
0.0
41
0.0
42
0.0
10
68.3780975341797
20
68.991096496582
40
0.0
41
0.0
42
0.0
10
68.4022979736328
20
69.0173034667969
40
0.0
41
0.0
42
0.0
10
68.777099609375
20
69.2017974853516
40
0.0
41
0.0
42
0.0
10
69.0170974731445
20
69.2285003662109
40
0.0
41
0.0
42
0.0
10
69.2522964477539
20
69.265998840332
40
0.0
41
0.0
42
0.0
10
69.4806976318359
20
69.2508010864258
40
0.0
41
0.0
42
0.0
10
69.519401550293
20
69.2508010864258
40
0.0
41
0.0
42
0.0
10
69.7347030639648
20
69.2627029418945
40
0.0
41
0.0
42
0.0
10
69.9825973510742
20
69.2081985473633
40
0.0
41
0.0
42
0.0
10
70.2313995361328
20
69.1978988647461
40
0.0
41
0.0
42
0.0
10
70.4915008544922
20
69.0344009399414
40
0.0
41
0.0
42
0.0
10
70.5485000610352
20
68.9947967529297
40
0.0
41
0.0
42
0.0
10
70.6486968994141
20
68.8403015136719
40
0.0
41
0.0
42
0.0
10
70.890998840332
20
68.5363998413086
40
0.0
41
0.0
42
0.0
10
70.9238967895508
20
68.4906005859375
40
0.0
41
0.0
42
0.0
10
70.9990005493164
20
68.3289031982422
40
0.0
41
0.0
42
0.0
10
71.0716018676758
20
68.1640014648438
40
0.0
41
0.0
42
0.0
10
71.1212997436523
20
67.9860992431641
40
0.0
41
0.0
42
0.0
10
71.1678009033203
20
67.8469009399414
40
0.0
41
0.0
42
0.0
10
71.2045974731445
20
67.7298965454102
40
0.0
41
0.0
42
0.0
10
71.2434997558594
20
67.4998016357422
40
0.0
41
0.0
42
0.0
10
71.2059020996094
20
67.2732009887695
40
0.0
41
0.0
42
0.0
10
71.2058029174805
20
67.2356033325195
40
0.0
41
0.0
42
0.0
10
71.2205963134766
20
67.0092010498047
40
0.0
41
0.0
42
0.0
10
71.0502014160156
20
66.8451995849609
40
0.0
41
0.0
42
0.0
10
70.9973983764648
20
66.7376022338867
40
0.0
41
0.0
42
0.0
10
70.8619003295898
20
66.592399597168
40
0.0
41
0.0
42
0.0
10
70.6434020996094
20
66.5
40
0.0
41
0.0
42
0.0
10
70.5861968994141
20
66.4849014282227
40
0.0
41
0.0
42
0.0
10
70.486198425293
20
66.4411010742188
40
0.0
41
0.0
42
0.0
10
70.2675018310547
20
66.4000015258789
40
0.0
41
0.0
42
0.0
10
69.9944000244141
20
66.383903503418
40
0.0
41
0.0
42
0.0
10
69.8029022216797
20
66.3899993896484
40
0.0
41
0.0
42
0.0
10
69.6104965209961
20
66.4222030639648
40
0.0
41
0.0
42
0.0
10
69.5151977539062
20
66.439697265625
40
0.0
41
0.0
42
0.0
10
69.345703125
20
66.4871978759766
40
0.0
41
0.0
42
0.0
10
69.0083999633789
20
66.6505966186523
40
0.0
41
0.0
42
0.0
10
68.6668014526367
20
66.9373016357422
40
0.0
41
0.0
42
0.0
10
68.5944976806641
20
67.006103515625
40
0.0
41
0.0
42
0.0
10
68.5018997192383
20
67.138801574707
40
0.0
41
0.0
42
0.0
10
68.4857025146484
20
67.1704025268555
40
0.0
41
0.0
42
0.0
10
68.407600402832
20
67.2944030761719
40
0.0
41
0.0
42
0.0
10
68.2917022705078
20
67.5120010375977
40
0.0
41
0.0
42
0.0
10
68.2076034545898
20
67.799201965332
40
0.0
41
0.0
42
0.0
10
68.1727981567383
20
67.9246978759766
40
0.0
41
0.0
42
0.0
210
0.0
220
0.0
230
1.0
0
LWPOLYLINE
5
29
330
1C
100
AcDbEntity
67
0
8
0
62
256
6
ByLayer
370
-1
48
1.0
60
0
100
AcDbPolyline
90
306
70
1
38
0.0
39
0.0
10
69.2249984741211
20
73.9899978637695
40
0.0
41
0.0
42
0.0
10
69.4944000244141
20
73.738899230957
40
0.0
41
0.0
42
0.0
10
69.7412033081055
20
73.496696472168
40
0.0
41
0.0
42
0.0
10
69.7636032104492
20
73.4833984375
40
0.0
41
0.0
42
0.0
10
69.9888000488281
20
73.3730010986328
40
0.0
41
0.0
42
0.0
10
70.2744979858398
20
73.2453994750977
40
0.0
41
0.0
42
0.0
10
70.4889984130859
20
73.1202011108398
40
0.0
41
0.0
42
0.0
10
70.6121978759766
20
73.073600769043
40
0.0
41
0.0
42
0.0
10
70.7584991455078
20
72.9969024658203
40
0.0
41
0.0
42
0.0
10
70.8320999145508
20
72.9203033447266
40
0.0
41
0.0
42
0.0
10
70.9943008422852
20
72.8113021850586
40
0.0
41
0.0
42
0.0
10
71.1212005615234
20
72.6528015136719
40
0.0
41
0.0
42
0.0
10
71.2190017700195
20
72.4857025146484
40
0.0
41
0.0
42
0.0
10
71.2220001220703
20
72.2354965209961
40
0.0
41
0.0
42
0.0
10
71.2313003540039
20
72.0048980712891
40
0.0
41
0.0
42
0.0
10
71.2154998779297
20
71.7742004394531
40
0.0
41
0.0
42
0.0
10
71.2154006958008
20
71.7110977172852
40
0.0
41
0.0
42
0.0
10
71.2339019775391
20
71.9806976318359
40
0.0
41
0.0
42
0.0
10
71.2338027954102
20
72.0195007324219
40
0.0
41
0.0
42
0.0
10
71.2251968383789
20
72.2343978881836
40
0.0
41
0.0
42
0.0
10
71.2217025756836
20
72.5140991210938
40
0.0
41
0.0
42
0.0
10
71.1436996459961
20
72.6472015380859
40
0.0
41
0.0
42
0.0
10
71.005500793457
20
72.8212966918945
40
0.0
41
0.0
42
0.0
10
70.8675994873047
20
72.9138031005859
40
0.0
41
0.0
42
0.0
10
70.7819976806641
20
73.002799987793
40
0.0
41
0.0
42
0.0
10
70.6175994873047
20
73.088996887207
40
0.0
41
0.0
42
0.0
10
70.5108032226562
20
73.1295013427734
40
0.0
41
0.0
42
0.0
10
70.2553024291992
20
73.2787017822266
40
0.0
41
0.0
42
0.0
10
70.0110015869141
20
73.3878021240234
40
0.0
41
0.0
42
0.0
10
69.8154983520508
20
73.4837036132812
40
0.0
41
0.0
42
0.0
10
69.7825012207031
20
73.5030975341797
40
0.0
41
0.0
42
0.0
10
69.5054016113281
20
73.7751998901367
40
0.0
41
0.0
42
0.0
10
69.2929000854492
20
73.9728012084961
40
0.0
41
0.0
42
0.0
10
69.2537994384766
20
74.0100021362305
40
0.0
41
0.0
42
0.0
10
69.2261962890625
20
74.2497024536133
40
0.0
41
0.0
42
0.0
10
69.2795028686523
20
74.4905014038086
40
0.0
41
0.0
42
0.0
10
69.4386978149414
20
74.6492004394531
40
0.0
41
0.0
42
0.0
10
69.5018005371094
20
74.7426986694336
40
0.0
41
0.0
42
0.0
10
69.5839004516602
20
74.9019012451172
40
0.0
41
0.0
42
0.0
10
69.6519012451172
20
74.9942016601562
40
0.0
41
0.0
42
0.0
10
69.8327026367188
20
75.1529998779297
40
0.0
41
0.0
42
0.0
10
69.8591995239258
20
75.1781005859375
40
0.0
41
0.0
42
0.0
10
70.0050964355469
20
75.3304977416992
40
0.0
41
0.0
42
0.0
10
70.0706024169922
20
75.393798828125
40
0.0
41
0.0
42
0.0
10
70.1941986083984
20
75.495002746582
40
0.0
41
0.0
42
0.0
10
70.3535995483398
20
75.6819000244141
40
0.0
41
0.0
42
0.0
10
70.5046005249023
20
75.8544998168945
40
0.0
41
0.0
42
0.0
10
70.5481033325195
20
75.8977966308594
40
0.0
41
0.0
42
0.0
10
70.6350021362305
20
75.9891967773438
40
0.0
41
0.0
42
0.0
10
70.6535034179688
20
76.1958999633789
40
0.0
41
0.0
42
0.0
10
70.6533966064453
20
76.2345962524414
40
0.0
41
0.0
42
0.0
10
70.6520004272461
20
76.2733001708984
40
0.0
41
0.0
42
0.0
10
70.6214981079102
20
76.5157012939453
40
0.0
41
0.0
42
0.0
10
70.548698425293
20
76.7677001953125
40
0.0
41
0.0
42
0.0
10
70.500602722168
20
76.874397277832
40
0.0
41
0.0
42
0.0
10
70.4449005126953
20
77.0131988525391
40
0.0
41
0.0
42
0.0
10
70.374397277832
20
77.2684020996094
40
0.0
41
0.0
42
0.0
10
70.2802963256836
20
77.5151977539062
40
0.0
41
0.0
42
0.0
10
70.2582015991211
20
77.771598815918
40
0.0
41
0.0
42
0.0
10
70.2020034790039
20
78.0063018798828
40
0.0
41
0.0
42
0.0
10
70.2257995605469
20
78.230598449707
40
0.0
41
0.0
42
0.0
10
70.345703125
20
78.4947967529297
40
0.0
41
0.0
42
0.0
10
70.5080032348633
20
78.5876998901367
40
0.0
41
0.0
42
0.0
10
70.52490234375
20
78.6016998291016
40
0.0
41
0.0
42
0.0
10
70.768798828125
20
78.7189025878906
40
0.0
41
0.0
42
0.0
10
71.0166015625
20
78.7545013427734
40
0.0
41
0.0
42
0.0
10
71.2637023925781
20
78.7529983520508
40
0.0
41
0.0
42
0.0
10
71.505500793457
20
78.7834014892578
40
0.0
41
0.0
42
0.0
10
71.7657012939453
20
78.7655029296875
40
0.0
41
0.0
42
0.0
10
72.0197982788086
20
78.7658996582031
40
0.0
41
0.0
42
0.0
10
72.3043975830078
20
78.7693023681641
40
0.0
41
0.0
42
0.0
10
72.513801574707
20
78.7778015136719
40
0.0
41
0.0
42
0.0
10
72.6473007202148
20
78.8560028076172
40
0.0
41
0.0
42
0.0
10
72.8212966918945
20
78.9944000244141
40
0.0
41
0.0
42
0.0
10
72.9139022827148
20
79.1321029663086
40
0.0
41
0.0
42
0.0
10
73.0028991699219
20
79.2177963256836
40
0.0
41
0.0
42
0.0
10
73.088996887207
20
79.3822021484375
40
0.0
41
0.0
42
0.0
10
73.1295013427734
20
79.4889984130859
40
0.0
41
0.0
42
0.0
10
73.2787017822266
20
79.7445983886719
40
0.0
41
0.0
42
0.0
10
73.3878021240234
20
79.988899230957
40
0.0
41
0.0
42
0.0
10
73.4838027954102
20
80.1843032836914
40
0.0
41
0.0
42
0.0
10
73.5031967163086
20
80.2172012329102
40
0.0
41
0.0
42
0.0
10
73.7752990722656
20
80.494499206543
40
0.0
41
0.0
42
0.0
10
74.0058975219727
20
80.7417984008789
40
0.0
41
0.0
42
0.0
10
74.2272033691406
20
80.6929016113281
40
0.0
41
0.0
42
0.0
10
74.2637023925781
20
80.6928024291992
40
0.0
41
0.0
42
0.0
10
74.49169921875
20
80.7190017700195
40
0.0
41
0.0
42
0.0
10
74.6492004394531
20
80.5608978271484
40
0.0
41
0.0
42
0.0
10
74.7425994873047
20
80.4980010986328
40
0.0
41
0.0
42
0.0
10
74.9018020629883
20
80.4158020019531
40
0.0
41
0.0
42
0.0
10
74.9942016601562
20
80.3478012084961
40
0.0
41
0.0
42
0.0
10
75.1529006958008
20
80.1670989990234
40
0.0
41
0.0
42
0.0
10
75.1780014038086
20
80.1405029296875
40
0.0
41
0.0
42
0.0
10
75.3303985595703
20
79.9947967529297
40
0.0
41
0.0
42
0.0
10
75.393798828125
20
79.9291000366211
40
0.0
41
0.0
42
0.0
10
75.495002746582
20
79.8054962158203
40
0.0
41
0.0
42
0.0
10
75.6819000244141
20
79.6461029052734
40
0.0
41
0.0
42
0.0
10
75.8544998168945
20
79.4952011108398
40
0.0
41
0.0
42
0.0
10
75.8976974487305
20
79.4516983032227
40
0.0
41
0.0
42
0.0
10
75.9881973266602
20
79.3654022216797
40
0.0
41
0.0
42
0.0
10
76.0214004516602
20
79.3657989501953
40
0.0
41
0.0
42
0.0
10
76.2708969116211
20
79.3972015380859
40
0.0
41
0.0
42
0.0
10
76.4809036254883
20
79.3787002563477
40
0.0
41
0.0
42
0.0
10
76.5169982910156
20
79.3786010742188
40
0.0
41
0.0
42
0.0
10
76.7677001953125
20
79.4509963989258
40
0.0
41
0.0
42
0.0
10
76.874397277832
20
79.4991989135742
40
0.0
41
0.0
42
0.0
10
77.0131988525391
20
79.554801940918
40
0.0
41
0.0
42
0.0
10
77.2684020996094
20
79.6252975463867
40
0.0
41
0.0
42
0.0
10
77.5137023925781
20
79.7189025878906
40
0.0
41
0.0
42
0.0
10
77.7615966796875
20
79.7782974243164
40
0.0
41
0.0
42
0.0
10
77.9981002807617
20
79.7985992431641
40
0.0
41
0.0
42
0.0
10
78.2304992675781
20
79.7739028930664
40
0.0
41
0.0
42
0.0
10
78.4947967529297
20
79.6539993286133
40
0.0
41
0.0
42
0.0
10
78.5876007080078
20
79.4917984008789
40
0.0
41
0.0
42
0.0
10
78.6016998291016
20
79.4748001098633
40
0.0
41
0.0
42
0.0
10
78.7189025878906
20
79.2311019897461
40
0.0
41
0.0
42
0.0
10
78.7545013427734
20
78.9832992553711
40
0.0
41
0.0
42
0.0
10
78.7529983520508
20
78.736198425293
40
0.0
41
0.0
42
0.0
10
78.7834014892578
20
78.4944000244141
40
0.0
41
0.0
42
0.0
10
78.7655029296875
20
78.2341995239258
40
0.0
41
0.0
42
0.0
10
78.7658996582031
20
77.9801025390625
40
0.0
41
0.0
42
0.0
10
78.7693023681641
20
77.6955032348633
40
0.0
41
0.0
42
0.0
10
78.7778015136719
20
77.4860000610352
40
0.0
41
0.0
42
0.0
10
78.8560028076172
20
77.3525009155273
40
0.0
41
0.0
42
0.0
10
78.9943008422852
20
77.1783981323242
40
0.0
41
0.0
42
0.0
10
79.1321029663086
20
77.0858993530273
40
0.0
41
0.0
42
0.0
10
79.2176971435547
20
76.9969024658203
40
0.0
41
0.0
42
0.0
10
79.3822021484375
20
76.9106979370117
40
0.0
41
0.0
42
0.0
10
79.4878997802734
20
76.8705978393555
40
0.0
41
0.0
42
0.0
10
79.7344970703125
20
76.760498046875
40
0.0
41
0.0
42
0.0
10
79.9897994995117
20
76.6113967895508
40
0.0
41
0.0
42
0.0
10
80.1843032836914
20
76.5160980224609
40
0.0
41
0.0
42
0.0
10
80.2172012329102
20
76.496696472168
40
0.0
41
0.0
42
0.0
10
80.4944000244141
20
76.2245025634766
40
0.0
41
0.0
42
0.0
10
80.7418975830078
20
75.9940032958984
40
0.0
41
0.0
42
0.0
10
80.6929016113281
20
75.7726974487305
40
0.0
41
0.0
42
0.0
10
80.6928024291992
20
75.7360992431641
40
0.0
41
0.0
42
0.0
10
80.7191009521484
20
75.5081024169922
40
0.0
41
0.0
42
0.0
10
80.5608978271484
20
75.3506011962891
40
0.0
41
0.0
42
0.0
10
80.4980010986328
20
75.2571029663086
40
0.0
41
0.0
42
0.0
10
80.415901184082
20
75.097900390625
40
0.0
41
0.0
42
0.0
10
80.347900390625
20
75.0056991577148
40
0.0
41
0.0
42
0.0
10
80.1670989990234
20
74.8468017578125
40
0.0
41
0.0
42
0.0
10
80.1406021118164
20
74.8217010498047
40
0.0
41
0.0
42
0.0
10
79.9947967529297
20
74.6692962646484
40
0.0
41
0.0
42
0.0
10
79.92919921875
20
74.6060028076172
40
0.0
41
0.0
42
0.0
10
79.8056030273438
20
74.5048980712891
40
0.0
41
0.0
42
0.0
10
79.6462020874023
20
74.318000793457
40
0.0
41
0.0
42
0.0
10
79.4953002929688
20
74.1453018188477
40
0.0
41
0.0
42
0.0
10
79.4516983032227
20
74.1019973754883
40
0.0
41
0.0
42
0.0
10
79.3654022216797
20
74.0117034912109
40
0.0
41
0.0
42
0.0
10
79.3657989501953
20
73.978401184082
40
0.0
41
0.0
42
0.0
10
79.3973007202148
20
73.7289962768555
40
0.0
41
0.0
42
0.0
10
79.3787002563477
20
73.5189971923828
40
0.0
41
0.0
42
0.0
10
79.3786010742188
20
73.4829025268555
40
0.0
41
0.0
42
0.0
10
79.4509963989258
20
73.2322006225586
40
0.0
41
0.0
42
0.0
10
79.4991989135742
20
73.1252975463867
40
0.0
41
0.0
42
0.0
10
79.554801940918
20
72.986701965332
40
0.0
41
0.0
42
0.0
10
79.6252975463867
20
72.7314987182617
40
0.0
41
0.0
42
0.0
10
79.7188034057617
20
72.486198425293
40
0.0
41
0.0
42
0.0
10
79.7782974243164
20
72.2382965087891
40
0.0
41
0.0
42
0.0
10
79.7985992431641
20
72.0018005371094
40
0.0
41
0.0
42
0.0
10
79.7740020751953
20
71.769401550293
40
0.0
41
0.0
42
0.0
10
79.6540985107422
20
71.5050964355469
40
0.0
41
0.0
42
0.0
10
79.4918975830078
20
71.4121017456055
40
0.0
41
0.0
42
0.0
10
79.4748001098633
20
71.3981018066406
40
0.0
41
0.0
42
0.0
10
79.2311019897461
20
71.2807998657227
40
0.0
41
0.0
42
0.0
10
78.9828033447266
20
71.2452011108398
40
0.0
41
0.0
42
0.0
10
78.7460021972656
20
71.214599609375
40
0.0
41
0.0
42
0.0
10
78.803596496582
20
71.214599609375
40
0.0
41
0.0
42
0.0
10
79.0170974731445
20
71.2421035766602
40
0.0
41
0.0
42
0.0
10
79.2987976074219
20
71.2825012207031
40
0.0
41
0.0
42
0.0
10
79.4946975708008
20
71.3768005371094
40
0.0
41
0.0
42
0.0
10
79.5080032348633
20
71.3877029418945
40
0.0
41
0.0
42
0.0
10
79.6947021484375
20
71.4947967529297
40
0.0
41
0.0
42
0.0
10
79.7881011962891
20
71.7005004882812
40
0.0
41
0.0
42
0.0
10
79.818000793457
20
71.9811019897461
40
0.0
41
0.0
42
0.0
10
79.8179016113281
20
72.0189971923828
40
0.0
41
0.0
42
0.0
10
79.7995986938477
20
72.2315979003906
40
0.0
41
0.0
42
0.0
10
79.7319030761719
20
72.5137023925781
40
0.0
41
0.0
42
0.0
10
79.6232986450195
20
72.7984008789062
40
0.0
41
0.0
42
0.0
10
79.5640029907227
20
73.0131988525391
40
0.0
41
0.0
42
0.0
10
79.500602722168
20
73.171501159668
40
0.0
41
0.0
42
0.0
10
79.4440002441406
20
73.2966995239258
40
0.0
41
0.0
42
0.0
10
79.382698059082
20
73.5084991455078
40
0.0
41
0.0
42
0.0
10
79.3993988037109
20
73.6958999633789
40
0.0
41
0.0
42
0.0
10
79.3992004394531
20
73.7735977172852
40
0.0
41
0.0
42
0.0
10
79.3718032836914
20
73.9918975830078
40
0.0
41
0.0
42
0.0
10
79.4535980224609
20
74.0777969360352
40
0.0
41
0.0
42
0.0
10
79.5046005249023
20
74.1286010742188
40
0.0
41
0.0
42
0.0
10
79.6824035644531
20
74.331901550293
40
0.0
41
0.0
42
0.0
10
79.8215026855469
20
74.495002746582
40
0.0
41
0.0
42
0.0
10
79.9292984008789
20
74.5830993652344
40
0.0
41
0.0
42
0.0
10
80.0050964355469
20
74.6564025878906
40
0.0
41
0.0
42
0.0
10
80.1670989990234
20
74.825798034668
40
0.0
41
0.0
42
0.0
10
80.3589019775391
20
74.9943008422852
40
0.0
41
0.0
42
0.0
10
80.4328994750977
20
75.0947036743164
40
0.0
41
0.0
42
0.0
10
80.5018005371094
20
75.2282028198242
40
0.0
41
0.0
42
0.0
10
80.5582962036133
20
75.3119964599609
40
0.0
41
0.0
42
0.0
10
80.7357025146484
20
75.4887008666992
40
0.0
41
0.0
42
0.0
10
80.7356033325195
20
75.5186996459961
40
0.0
41
0.0
42
0.0
10
80.7135009765625
20
75.7097015380859
40
0.0
41
0.0
42
0.0
10
80.7738037109375
20
75.9822006225586
40
0.0
41
0.0
42
0.0
10
80.7736968994141
20
76.0108032226562
40
0.0
41
0.0
42
0.0
10
80.5054016113281
20
76.2608032226562
40
0.0
41
0.0
42
0.0
10
80.2585983276367
20
76.5030975341797
40
0.0
41
0.0
42
0.0
10
80.236198425293
20
76.5162963867188
40
0.0
41
0.0
42
0.0
10
80.0100021362305
20
76.627197265625
40
0.0
41
0.0
42
0.0
10
79.7953033447266
20
76.7526016235352
40
0.0
41
0.0
42
0.0
10
79.5119018554688
20
76.8790969848633
40
0.0
41
0.0
42
0.0
10
79.3876037597656
20
76.9261016845703
40
0.0
41
0.0
42
0.0
10
79.2412033081055
20
77.0028991699219
40
0.0
41
0.0
42
0.0
10
79.1676025390625
20
77.0793991088867
40
0.0
41
0.0
42
0.0
10
79.005500793457
20
77.1884002685547
40
0.0
41
0.0
42
0.0
10
78.8785018920898
20
77.3470001220703
40
0.0
41
0.0
42
0.0
10
78.7808990478516
20
77.5139007568359
40
0.0
41
0.0
42
0.0
10
78.7704010009766
20
77.7743988037109
40
0.0
41
0.0
42
0.0
10
78.7675018310547
20
78.0197982788086
40
0.0
41
0.0
42
0.0
10
78.7669982910156
20
78.2366027832031
40
0.0
41
0.0
42
0.0
10
78.7838973999023
20
78.4806976318359
40
0.0
41
0.0
42
0.0
10
78.7837982177734
20
78.5186004638672
40
0.0
41
0.0
42
0.0
10
78.7556991577148
20
78.7369003295898
40
0.0
41
0.0
42
0.0
10
78.7574005126953
20
79.0185012817383
40
0.0
41
0.0
42
0.0
10
78.7172012329102
20
79.298698425293
40
0.0
41
0.0
42
0.0
10
78.6229019165039
20
79.4945983886719
40
0.0
41
0.0
42
0.0
10
78.6119995117188
20
79.5078964233398
40
0.0
41
0.0
42
0.0
10
78.504997253418
20
79.6947021484375
40
0.0
41
0.0
42
0.0
10
78.2994003295898
20
79.7881011962891
40
0.0
41
0.0
42
0.0
10
78.018798828125
20
79.818000793457
40
0.0
41
0.0
42
0.0
10
77.9809036254883
20
79.8179016113281
40
0.0
41
0.0
42
0.0
10
77.7683029174805
20
79.7995986938477
40
0.0
41
0.0
42
0.0
10
77.486198425293
20
79.7319030761719
40
0.0
41
0.0
42
0.0
10
77.2014999389648
20
79.6232986450195
40
0.0
41
0.0
42
0.0
10
76.986701965332
20
79.5640029907227
40
0.0
41
0.0
42
0.0
10
76.8283004760742
20
79.500602722168
40
0.0
41
0.0
42
0.0
10
76.7031021118164
20
79.4440002441406
40
0.0
41
0.0
42
0.0
10
76.4914016723633
20
79.382698059082
40
0.0
41
0.0
42
0.0
10
76.3040008544922
20
79.3993988037109
40
0.0
41
0.0
42
0.0
10
76.2263031005859
20
79.3992004394531
40
0.0
41
0.0
42
0.0
10
76.0080032348633
20
79.371696472168
40
0.0
41
0.0
42
0.0
10
75.9219970703125
20
79.4535980224609
40
0.0
41
0.0
42
0.0
10
75.8712997436523
20
79.5045013427734
40
0.0
41
0.0
42
0.0
10
75.6679992675781
20
79.6822967529297
40
0.0
41
0.0
42
0.0
10
75.5048980712891
20
79.8215026855469
40
0.0
41
0.0
42
0.0
10
75.4167022705078
20
79.92919921875
40
0.0
41
0.0
42
0.0
10
75.3433990478516
20
80.004997253418
40
0.0
41
0.0
42
0.0
10
75.1738967895508
20
80.1670989990234
40
0.0
41
0.0
42
0.0
10
75.0055999755859
20
80.3588027954102
40
0.0
41
0.0
42
0.0
10
74.9050979614258
20
80.4328994750977
40
0.0
41
0.0
42
0.0
10
74.771598815918
20
80.5018005371094
40
0.0
41
0.0
42
0.0
10
74.6877975463867
20
80.5581970214844
40
0.0
41
0.0
42
0.0
10
74.5111999511719
20
80.7357025146484
40
0.0
41
0.0
42
0.0
10
74.481201171875
20
80.7356033325195
40
0.0
41
0.0
42
0.0
10
74.2901992797852
20
80.7135009765625
40
0.0
41
0.0
42
0.0
10
74.0177001953125
20
80.7738037109375
40
0.0
41
0.0
42
0.0
10
73.9890975952148
20
80.7736968994141
40
0.0
41
0.0
42
0.0
10
73.738899230957
20
80.5054016113281
40
0.0
41
0.0
42
0.0
10
73.496696472168
20
80.2585983276367
40
0.0
41
0.0
42
0.0
10
73.4833984375
20
80.236198425293
40
0.0
41
0.0
42
0.0
10
73.3730010986328
20
80.011100769043
40
0.0
41
0.0
42
0.0
10
73.2453994750977
20
79.7254028320312
40
0.0
41
0.0
42
0.0
10
73.1203002929688
20
79.5109024047852
40
0.0
41
0.0
42
0.0
10
73.0736999511719
20
79.3876037597656
40
0.0
41
0.0
42
0.0
10
72.9970016479492
20
79.2413024902344
40
0.0
41
0.0
42
0.0
10
72.9203033447266
20
79.1677017211914
40
0.0
41
0.0
42
0.0
10
72.8114013671875
20
79.0055999755859
40
0.0
41
0.0
42
0.0
10
72.6528015136719
20
78.8786010742188
40
0.0
41
0.0
42
0.0
10
72.4860000610352
20
78.7808990478516
40
0.0
41
0.0
42
0.0
10
72.2255020141602
20
78.7704010009766
40
0.0
41
0.0
42
0.0
10
71.9801025390625
20
78.7675018310547
40
0.0
41
0.0
42
0.0
10
71.763298034668
20
78.7669982910156
40
0.0
41
0.0
42
0.0
10
71.5192031860352
20
78.7838973999023
40
0.0
41
0.0
42
0.0
10
71.4813003540039
20
78.7837982177734
40
0.0
41
0.0
42
0.0
10
71.2630004882812
20
78.7556991577148
40
0.0
41
0.0
42
0.0
10
70.9813995361328
20
78.7574005126953
40
0.0
41
0.0
42
0.0
10
70.7012023925781
20
78.7173004150391
40
0.0
41
0.0
42
0.0
10
70.5050964355469
20
78.6231002807617
40
0.0
41
0.0
42
0.0
10
70.4919967651367
20
78.6120986938477
40
0.0
41
0.0
42
0.0
10
70.3050994873047
20
78.5050964355469
40
0.0
41
0.0
42
0.0
10
70.2116012573242
20
78.2994003295898
40
0.0
41
0.0
42
0.0
10
70.1819000244141
20
78.018798828125
40
0.0
41
0.0
42
0.0
10
70.1818008422852
20
77.9823989868164
40
0.0
41
0.0
42
0.0
10
70.25
20
77.6983032226562
40
0.0
41
0.0
42
0.0
10
70.2684020996094
20
77.4847030639648
40
0.0
41
0.0
42
0.0
10
70.3764038085938
20
77.2014999389648
40
0.0
41
0.0
42
0.0
10
70.4356994628906
20
76.9866027832031
40
0.0
41
0.0
42
0.0
10
70.4991989135742
20
76.8283004760742
40
0.0
41
0.0
42
0.0
10
70.5557022094727
20
76.7031021118164
40
0.0
41
0.0
42
0.0
10
70.6191024780273
20
76.4841995239258
40
0.0
41
0.0
42
0.0
10
70.6505966186523
20
76.2347030639648
40
0.0
41
0.0
42
0.0
10
70.6305999755859
20
76.0108032226562
40
0.0
41
0.0
42
0.0
10
70.5462036132812
20
75.9220962524414
40
0.0
41
0.0
42
0.0
10
70.4953002929688
20
75.8713989257812
40
0.0
41
0.0
42
0.0
10
70.3173980712891
20
75.6679992675781
40
0.0
41
0.0
42
0.0
10
70.1782989501953
20
75.5048980712891
40
0.0
41
0.0
42
0.0
10
70.0705032348633
20
75.4167022705078
40
0.0
41
0.0
42
0.0
10
69.9949035644531
20
75.3433990478516
40
0.0
41
0.0
42
0.0
10
69.8327026367188
20
75.1740036010742
40
0.0
41
0.0
42
0.0
10
69.6408996582031
20
75.0056991577148
40
0.0
41
0.0
42
0.0
10
69.5669021606445
20
74.9051971435547
40
0.0
41
0.0
42
0.0
10
69.4981002807617
20
74.771598815918
40
0.0
41
0.0
42
0.0
10
69.4414978027344
20
74.6877975463867
40
0.0
41
0.0
42
0.0
10
69.2622985839844
20
74.5093994140625
40
0.0
41
0.0
42
0.0
10
69.201301574707
20
74.2326965332031
40
0.0
41
0.0
42
0.0
10
69.2012023925781
20
74.1961975097656
40
0.0
41
0.0
42
0.0
10
69.2249984741211
20
73.9899978637695
40
0.0
41
0.0
42
0.0
210
0.0
220
0.0
230
1.0
0
LWPOLYLINE
5
2A
330
1C
100
AcDbEntity
67
0
8
0
62
256
6
ByLayer
370
-1
48
1.0
60
0
100
AcDbPolyline
90
99
70
1
38
0.0
39
0.0
10
78.2886962890625
20
71.2154006958008
40
0.0
41
0.0
42
0.0
10
78.0192031860352
20
71.2339019775391
40
0.0
41
0.0
42
0.0
10
77.9804000854492
20
71.2338027954102
40
0.0
41
0.0
42
0.0
10
77.7655029296875
20
71.2251968383789
40
0.0
41
0.0
42
0.0
10
77.4858016967773
20
71.2218017578125
40
0.0
41
0.0
42
0.0
10
77.3525009155273
20
71.143798828125
40
0.0
41
0.0
42
0.0
10
77.1784973144531
20
71.005500793457
40
0.0
41
0.0
42
0.0
10
77.0858993530273
20
70.8676986694336
40
0.0
41
0.0
42
0.0
10
76.9969024658203
20
70.782096862793
40
0.0
41
0.0
42
0.0
10
76.9106979370117
20
70.6175994873047
40
0.0
41
0.0
42
0.0
10
76.8705978393555
20
70.5120010375977
40
0.0
41
0.0
42
0.0
10
76.760498046875
20
70.2654037475586
40
0.0
41
0.0
42
0.0
10
76.6113967895508
20
70.0100021362305
40
0.0
41
0.0
42
0.0
10
76.5160980224609
20
69.8154983520508
40
0.0
41
0.0
42
0.0
10
76.496696472168
20
69.782600402832
40
0.0
41
0.0
42
0.0
10
76.2245025634766
20
69.5054016113281
40
0.0
41
0.0
42
0.0
10
75.9899978637695
20
69.2537994384766
40
0.0
41
0.0
42
0.0
10
75.7500991821289
20
69.2261962890625
40
0.0
41
0.0
42
0.0
10
75.5093994140625
20
69.2794036865234
40
0.0
41
0.0
42
0.0
10
75.3505020141602
20
69.4386978149414
40
0.0
41
0.0
42
0.0
10
75.2571029663086
20
69.5018005371094
40
0.0
41
0.0
42
0.0
10
75.097900390625
20
69.5839004516602
40
0.0
41
0.0
42
0.0
10
75.0055999755859
20
69.6519012451172
40
0.0
41
0.0
42
0.0
10
74.8468017578125
20
69.8327026367188
40
0.0
41
0.0
42
0.0
10
74.8217010498047
20
69.8591995239258
40
0.0
41
0.0
42
0.0
10
74.6692962646484
20
70.004997253418
40
0.0
41
0.0
42
0.0
10
74.6059036254883
20
70.0706024169922
40
0.0
41
0.0
42
0.0
10
74.5047988891602
20
70.1941986083984
40
0.0
41
0.0
42
0.0
10
74.3179016113281
20
70.3535995483398
40
0.0
41
0.0
42
0.0
10
74.1452026367188
20
70.5046005249023
40
0.0
41
0.0
42
0.0
10
74.1019973754883
20
70.5479965209961
40
0.0
41
0.0
42
0.0
10
74.0106964111328
20
70.6350021362305
40
0.0
41
0.0
42
0.0
10
73.8040008544922
20
70.6535034179688
40
0.0
41
0.0
42
0.0
10
73.7652969360352
20
70.6533966064453
40
0.0
41
0.0
42
0.0
10
73.7266006469727
20
70.6520004272461
40
0.0
41
0.0
42
0.0
10
73.4841995239258
20
70.6214981079102
40
0.0
41
0.0
42
0.0
10
73.2321014404297
20
70.5487976074219
40
0.0
41
0.0
42
0.0
10
73.1253967285156
20
70.500602722168
40
0.0
41
0.0
42
0.0
10
72.986701965332
20
70.4449005126953
40
0.0
41
0.0
42
0.0
10
72.7314987182617
20
70.374397277832
40
0.0
41
0.0
42
0.0
10
72.4847030639648
20
70.2802963256836
40
0.0
41
0.0
42
0.0
10
72.2283020019531
20
70.2582015991211
40
0.0
41
0.0
42
0.0
10
71.9935989379883
20
70.2020034790039
40
0.0
41
0.0
42
0.0
10
71.7693023681641
20
70.225700378418
40
0.0
41
0.0
42
0.0
10
71.504997253418
20
70.345703125
40
0.0
41
0.0
42
0.0
10
71.4120025634766
20
70.5078964233398
40
0.0
41
0.0
42
0.0
10
71.3980026245117
20
70.52490234375
40
0.0
41
0.0
42
0.0
10
71.2807998657227
20
70.768798828125
40
0.0
41
0.0
42
0.0
10
71.2452011108398
20
71.0170974731445
40
0.0
41
0.0
42
0.0
10
71.214599609375
20
71.2537994384766
40
0.0
41
0.0
42
0.0
10
71.214599609375
20
71.1962966918945
40
0.0
41
0.0
42
0.0
10
71.2421035766602
20
70.9828033447266
40
0.0
41
0.0
42
0.0
10
71.2825012207031
20
70.7011032104492
40
0.0
41
0.0
42
0.0
10
71.3767013549805
20
70.5050964355469
40
0.0
41
0.0
42
0.0
10
71.3876037597656
20
70.4918975830078
40
0.0
41
0.0
42
0.0
10
71.4947967529297
20
70.3050003051758
40
0.0
41
0.0
42
0.0
10
71.7005004882812
20
70.2116012573242
40
0.0
41
0.0
42
0.0
10
71.9811019897461
20
70.1819000244141
40
0.0
41
0.0
42
0.0
10
72.0175018310547
20
70.1819000244141
40
0.0
41
0.0
42
0.0
10
72.3015975952148
20
70.25
40
0.0
41
0.0
42
0.0
10
72.5151977539062
20
70.2684020996094
40
0.0
41
0.0
42
0.0
10
72.7984008789062
20
70.3764038085938
40
0.0
41
0.0
42
0.0
10
73.0131988525391
20
70.4356994628906
40
0.0
41
0.0
42
0.0
10
73.171501159668
20
70.4992980957031
40
0.0
41
0.0
42
0.0
10
73.2966995239258
20
70.5558013916016
40
0.0
41
0.0
42
0.0
10
73.5157012939453
20
70.6192016601562
40
0.0
41
0.0
42
0.0
10
73.7651977539062
20
70.6504974365234
40
0.0
41
0.0
42
0.0
10
73.9890975952148
20
70.6305999755859
40
0.0
41
0.0
42
0.0
10
74.0777969360352
20
70.5460968017578
40
0.0
41
0.0
42
0.0
10
74.1285018920898
20
70.4953002929688
40
0.0
41
0.0
42
0.0
10
74.3318023681641
20
70.3173980712891
40
0.0
41
0.0
42
0.0
10
74.4949035644531
20
70.1781997680664
40
0.0
41
0.0
42
0.0
10
74.5830001831055
20
70.0705032348633
40
0.0
41
0.0
42
0.0
10
74.6563034057617
20
69.9947967529297
40
0.0
41
0.0
42
0.0
10
74.825798034668
20
69.8326034545898
40
0.0
41
0.0
42
0.0
10
74.9942016601562
20
69.6408996582031
40
0.0
41
0.0
42
0.0
10
75.094596862793
20
69.5669021606445
40
0.0
41
0.0
42
0.0
10
75.2282028198242
20
69.4980010986328
40
0.0
41
0.0
42
0.0
10
75.311897277832
20
69.4414978027344
40
0.0
41
0.0
42
0.0
10
75.4905014038086
20
69.2622985839844
40
0.0
41
0.0
42
0.0
10
75.7671966552734
20
69.201301574707
40
0.0
41
0.0
42
0.0
10
75.8037033081055
20
69.2012023925781
40
0.0
41
0.0
42
0.0
10
76.0099029541016
20
69.2249984741211
40
0.0
41
0.0
42
0.0
10
76.2609024047852
20
69.494499206543
40
0.0
41
0.0
42
0.0
10
76.5031967163086
20
69.7412033081055
40
0.0
41
0.0
42
0.0
10
76.5162963867188
20
69.7636032104492
40
0.0
41
0.0
42
0.0
10
76.627197265625
20
69.9898986816406
40
0.0
41
0.0
42
0.0
10
76.7526016235352
20
70.2045974731445
40
0.0
41
0.0
42
0.0
10
76.8790969848633
20
70.4879989624023
40
0.0
41
0.0
42
0.0
10
76.9262008666992
20
70.6121978759766
40
0.0
41
0.0
42
0.0
10
77.0028991699219
20
70.7584991455078
40
0.0
41
0.0
42
0.0
10
77.0793991088867
20
70.8321990966797
40
0.0
41
0.0
42
0.0
10
77.1884002685547
20
70.9943008422852
40
0.0
41
0.0
42
0.0
10
77.3470001220703
20
71.1212005615234
40
0.0
41
0.0
42
0.0
10
77.5141983032227
20
71.2190017700195
40
0.0
41
0.0
42
0.0
10
77.7643966674805
20
71.2220001220703
40
0.0
41
0.0
42
0.0
10
77.995002746582
20
71.2313003540039
40
0.0
41
0.0
42
0.0
10
78.225700378418
20
71.2154998779297
40
0.0
41
0.0
42
0.0
10
78.2886962890625
20
71.2154006958008
40
0.0
41
0.0
42
0.0
210
0.0
220
0.0
230
1.0
0
LWPOLYLINE
5
2B
330
1C
100
AcDbEntity
67
0
8
0
62
256
6
ByLayer
370
-1
48
1.0
60
0
100
AcDbPolyline
90
92
70
1
38
0.0
39
0.0
10
71.9462966918945
20
83.4841003417969
40
0.0
41
0.0
42
0.0
10
71.9996032714844
20
83.3183975219727
40
0.0
41
0.0
42
0.0
10
72.0139999389648
20
83.282600402832
40
0.0
41
0.0
42
0.0
10
72.2126007080078
20
83.1010971069336
40
0.0
41
0.0
42
0.0
10
72.2433013916016
20
83.0258026123047
40
0.0
41
0.0
42
0.0
10
72.2769012451172
20
82.9957962036133
40
0.0
41
0.0
42
0.0
10
72.492301940918
20
82.8164978027344
40
0.0
41
0.0
42
0.0
10
72.5393981933594
20
82.7867965698242
40
0.0
41
0.0
42
0.0
10
72.7052993774414
20
82.709602355957
40
0.0
41
0.0
42
0.0
10
72.8134002685547
20
82.6359024047852
40
0.0
41
0.0
42
0.0
10
72.9879989624023
20
82.5478973388672
40
0.0
41
0.0
42
0.0
10
73.1352005004883
20
82.4994964599609
40
0.0
41
0.0
42
0.0
10
73.4849014282227
20
82.3448028564453
40
0.0
41
0.0
42
0.0
10
73.661003112793
20
82.3349990844727
40
0.0
41
0.0
42
0.0
10
74.0130996704102
20
82.3301010131836
40
0.0
41
0.0
42
0.0
10
74.1937026977539
20
82.4654006958008
40
0.0
41
0.0
42
0.0
10
74.2422027587891
20
82.4983978271484
40
0.0
41
0.0
42
0.0
10
74.5084991455078
20
82.6158981323242
40
0.0
41
0.0
42
0.0
10
74.5423965454102
20
82.6457977294922
40
0.0
41
0.0
42
0.0
10
74.6280975341797
20
82.7105026245117
40
0.0
41
0.0
42
0.0
10
74.8766021728516
20
82.9841995239258
40
0.0
41
0.0
42
0.0
10
74.8884963989258
20
82.9956970214844
40
0.0
41
0.0
42
0.0
10
75.0059967041016
20
83.092399597168
40
0.0
41
0.0
42
0.0
10
75.128303527832
20
83.2080001831055
40
0.0
41
0.0
42
0.0
10
75.3000030517578
20
83.4865036010742
40
0.0
41
0.0
42
0.0
10
75.3154983520508
20
83.7397003173828
40
0.0
41
0.0
42
0.0
10
75.4515991210938
20
83.9853973388672
40
0.0
41
0.0
42
0.0
10
75.4514999389648
20
84.0177993774414
40
0.0
41
0.0
42
0.0
10
75.4278030395508
20
84.1346969604492
40
0.0
41
0.0
42
0.0
10
75.3990020751953
20
84.2667007446289
40
0.0
41
0.0
42
0.0
10
75.2426986694336
20
84.5066986083984
40
0.0
41
0.0
42
0.0
10
75.0195007324219
20
84.7365036010742
40
0.0
41
0.0
42
0.0
10
75.0074005126953
20
84.7465972900391
40
0.0
41
0.0
42
0.0
10
74.7639007568359
20
84.9057998657227
40
0.0
41
0.0
42
0.0
10
74.6144027709961
20
84.9927978515625
40
0.0
41
0.0
42
0.0
10
74.6063003540039
20
84.9990005493164
40
0.0
41
0.0
42
0.0
10
74.5376968383789
20
84.9990005493164
40
0.0
41
0.0
42
0.0
10
74.5376968383789
20
84.991096496582
40
0.0
41
0.0
42
0.0
10
74.7059020996094
20
84.8932037353516
40
0.0
41
0.0
42
0.0
10
74.9924011230469
20
84.7059020996094
40
0.0
41
0.0
42
0.0
10
75.0103988647461
20
84.6909027099609
40
0.0
41
0.0
42
0.0
10
75.2024993896484
20
84.4929962158203
40
0.0
41
0.0
42
0.0
10
75.3914031982422
20
84.2031021118164
40
0.0
41
0.0
42
0.0
10
75.4332962036133
20
84.0058975219727
40
0.0
41
0.0
42
0.0
10
75.3181991577148
20
83.7978973388672
40
0.0
41
0.0
42
0.0
10
75.3122024536133
20
83.7626037597656
40
0.0
41
0.0
42
0.0
10
75.2970962524414
20
83.5133972167969
40
0.0
41
0.0
42
0.0
10
75.1418991088867
20
83.2615966796875
40
0.0
41
0.0
42
0.0
10
74.993896484375
20
83.1219024658203
40
0.0
41
0.0
42
0.0
10
74.8422012329102
20
82.9957962036133
40
0.0
41
0.0
42
0.0
10
74.6276016235352
20
82.7593994140625
40
0.0
41
0.0
42
0.0
10
74.5239028930664
20
82.6811981201172
40
0.0
41
0.0
42
0.0
10
74.4914016723633
20
82.6523971557617
40
0.0
41
0.0
42
0.0
10
74.1495971679688
20
82.5015029907227
40
0.0
41
0.0
42
0.0
10
74.1195983886719
20
82.4811019897461
40
0.0
41
0.0
42
0.0
10
73.9876022338867
20
82.3822021484375
40
0.0
41
0.0
42
0.0
10
73.6399993896484
20
82.3878021240234
40
0.0
41
0.0
42
0.0
10
73.5149002075195
20
82.3946990966797
40
0.0
41
0.0
42
0.0
10
73.2762985229492
20
82.5002975463867
40
0.0
41
0.0
42
0.0
10
73.0119018554688
20
82.5871963500977
40
0.0
41
0.0
42
0.0
10
72.8569030761719
20
82.6652984619141
40
0.0
41
0.0
42
0.0
10
72.7645034790039
20
82.7283020019531
40
0.0
41
0.0
42
0.0
10
72.568603515625
20
82.8195037841797
40
0.0
41
0.0
42
0.0
10
72.5074996948242
20
82.8580017089844
40
0.0
41
0.0
42
0.0
10
72.3320999145508
20
83.0039978027344
40
0.0
41
0.0
42
0.0
10
72.2837982177734
20
83.0473022460938
40
0.0
41
0.0
42
0.0
10
72.2572021484375
20
83.1121978759766
40
0.0
41
0.0
42
0.0
10
72.0216979980469
20
83.3274993896484
40
0.0
41
0.0
42
0.0
10
72.0001983642578
20
83.3812026977539
40
0.0
41
0.0
42
0.0
10
71.9568023681641
20
83.5158004760742
40
0.0
41
0.0
42
0.0
10
71.9376983642578
20
83.7384033203125
40
0.0
41
0.0
42
0.0
10
72.0085983276367
20
83.9876022338867
40
0.0
41
0.0
42
0.0
10
72.1187973022461
20
84.2061004638672
40
0.0
41
0.0
42
0.0
10
72.3361968994141
20
84.4937973022461
40
0.0
41
0.0
42
0.0
10
72.3925018310547
20
84.5491027832031
40
0.0
41
0.0
42
0.0
10
72.5059967041016
20
84.6800003051758
40
0.0
41
0.0
42
0.0
10
72.7923965454102
20
84.8663024902344
40
0.0
41
0.0
42
0.0
10
72.8929977416992
20
84.9520034790039
40
0.0
41
0.0
42
0.0
10
72.9503021240234
20
84.9909973144531
40
0.0
41
0.0
42
0.0
10
72.9503021240234
20
84.9990005493164
40
0.0
41
0.0
42
0.0
10
72.9074020385742
20
84.9989013671875
40
0.0
41
0.0
42
0.0
10
72.8572998046875
20
84.9646987915039
40
0.0
41
0.0
42
0.0
10
72.7375030517578
20
84.8628997802734
40
0.0
41
0.0
42
0.0
10
72.493896484375
20
84.7042999267578
40
0.0
41
0.0
42
0.0
10
72.3623962402344
20
84.5526962280273
40
0.0
41
0.0
42
0.0
10
72.3149032592773
20
84.506103515625
40
0.0
41
0.0
42
0.0
10
72.1317977905273
20
84.263801574707
40
0.0
41
0.0
42
0.0
10
72.0048980712891
20
84.0122985839844
40
0.0
41
0.0
42
0.0
10
71.9360961914062
20
83.7698974609375
40
0.0
41
0.0
42
0.0
10
71.9282989501953
20
83.7326965332031
40
0.0
41
0.0
42
0.0
10
71.9281997680664
20
83.69580078125
40
0.0
41
0.0
42
0.0
10
71.9462966918945
20
83.4841003417969
40
0.0
41
0.0
42
0.0
210
0.0
220
0.0
230
1.0
0
LWPOLYLINE
5
2C
330
1C
100
AcDbEntity
67
0
8
0
62
256
6
ByLayer
370
-1
48
1.0
60
0
100
AcDbPolyline
90
123
70
1
38
0.0
39
0.0
10
73.2354965209961
20
75.0933990478516
40
0.0
41
0.0
42
0.0
10
73.2914962768555
20
75.059196472168
40
0.0
41
0.0
42
0.0
10
73.4101028442383
20
74.9935989379883
40
0.0
41
0.0
42
0.0
10
73.3897018432617
20
74.7685012817383
40
0.0
41
0.0
42
0.0
10
73.3868026733398
20
74.5121994018555
40
0.0
41
0.0
42
0.0
10
73.2390975952148
20
74.3375015258789
40
0.0
41
0.0
42
0.0
10
72.9942016601562
20
74.1759033203125
40
0.0
41
0.0
42
0.0
10
72.9276962280273
20
74.0947036743164
40
0.0
41
0.0
42
0.0
10
72.8397979736328
20
74.0110015869141
40
0.0
41
0.0
42
0.0
10
72.8396987915039
20
73.9854965209961
40
0.0
41
0.0
42
0.0
10
72.9010009765625
20
73.877799987793
40
0.0
41
0.0
42
0.0
10
72.9946975708008
20
73.6122970581055
40
0.0
41
0.0
42
0.0
10
73.0169982910156
20
73.6123962402344
40
0.0
41
0.0
42
0.0
10
73.2898025512695
20
73.6900024414062
40
0.0
41
0.0
42
0.0
10
73.4814987182617
20
73.6615982055664
40
0.0
41
0.0
42
0.0
10
73.5176010131836
20
73.6614990234375
40
0.0
41
0.0
42
0.0
10
73.7655029296875
20
73.7182998657227
40
0.0
41
0.0
42
0.0
10
73.9985961914062
20
73.9066009521484
40
0.0
41
0.0
42
0.0
10
74.0399017333984
20
73.8062973022461
40
0.0
41
0.0
42
0.0
10
74.2940979003906
20
73.6880035400391
40
0.0
41
0.0
42
0.0
10
74.1679992675781
20
73.5128021240234
40
0.0
41
0.0
42
0.0
10
74.1584014892578
20
73.2744979858398
40
0.0
41
0.0
42
0.0
10
74.1583023071289
20
73.2363967895508
40
0.0
41
0.0
42
0.0
10
74.1942977905273
20
72.9856033325195
40
0.0
41
0.0
42
0.0
10
74.3127975463867
20
72.7054977416992
40
0.0
41
0.0
42
0.0
10
74.4437026977539
20
72.5342025756836
40
0.0
41
0.0
42
0.0
10
74.4863967895508
20
72.5052032470703
40
0.0
41
0.0
42
0.0
10
74.5102996826172
20
72.5050964355469
40
0.0
41
0.0
42
0.0
10
74.6843032836914
20
72.7072982788086
40
0.0
41
0.0
42
0.0
10
74.8538970947266
20
72.9878005981445
40
0.0
41
0.0
42
0.0
10
74.9063034057617
20
73.2354965209961
40
0.0
41
0.0
42
0.0
10
74.9404983520508
20
73.2914962768555
40
0.0
41
0.0
42
0.0
10
75.0063018798828
20
73.4101028442383
40
0.0
41
0.0
42
0.0
10
75.2313003540039
20
73.3897018432617
40
0.0
41
0.0
42
0.0
10
75.4877014160156
20
73.3867034912109
40
0.0
41
0.0
42
0.0
10
75.6623001098633
20
73.2389984130859
40
0.0
41
0.0
42
0.0
10
75.8238983154297
20
72.9941024780273
40
0.0
41
0.0
42
0.0
10
75.9049987792969
20
72.9275970458984
40
0.0
41
0.0
42
0.0
10
75.988899230957
20
72.8397979736328
40
0.0
41
0.0
42
0.0
10
76.0143966674805
20
72.8396987915039
40
0.0
41
0.0
42
0.0
10
76.1220016479492
20
72.9010009765625
40
0.0
41
0.0
42
0.0
10
76.3895034790039
20
72.9955978393555
40
0.0
41
0.0
42
0.0
10
76.4195022583008
20
73.1965026855469
40
0.0
41
0.0
42
0.0
10
76.4194030761719
20
73.2320022583008
40
0.0
41
0.0
42
0.0
10
76.3388977050781
20
73.5147018432617
40
0.0
41
0.0
42
0.0
10
76.2814025878906
20
73.7655029296875
40
0.0
41
0.0
42
0.0
10
76.0931015014648
20
73.9985961914062
40
0.0
41
0.0
42
0.0
10
76.1934967041016
20
74.0400009155273
40
0.0
41
0.0
42
0.0
10
76.3117980957031
20
74.2939987182617
40
0.0
41
0.0
42
0.0
10
76.4870986938477
20
74.1679992675781
40
0.0
41
0.0
42
0.0
10
76.7254028320312
20
74.1584014892578
40
0.0
41
0.0
42
0.0
10
76.7634963989258
20
74.1583023071289
40
0.0
41
0.0
42
0.0
10
77.0142974853516
20
74.1942977905273
40
0.0
41
0.0
42
0.0
10
77.2942962646484
20
74.3127975463867
40
0.0
41
0.0
42
0.0
10
77.4655990600586
20
74.4438018798828
40
0.0
41
0.0
42
0.0
10
77.4946975708008
20
74.4863967895508
40
0.0
41
0.0
42
0.0
10
77.494499206543
20
74.5102996826172
40
0.0
41
0.0
42
0.0
10
77.2926025390625
20
74.6843032836914
40
0.0
41
0.0
42
0.0
10
77.0121002197266
20
74.8538970947266
40
0.0
41
0.0
42
0.0
10
76.7643966674805
20
74.9063034057617
40
0.0
41
0.0
42
0.0
10
76.7082977294922
20
74.9404983520508
40
0.0
41
0.0
42
0.0
10
76.589599609375
20
75.0063018798828
40
0.0
41
0.0
42
0.0
10
76.6100006103516
20
75.2313003540039
40
0.0
41
0.0
42
0.0
10
76.6129989624023
20
75.4878005981445
40
0.0
41
0.0
42
0.0
10
76.7609024047852
20
75.6623001098633
40
0.0
41
0.0
42
0.0
10
77.0056991577148
20
75.8238983154297
40
0.0
41
0.0
42
0.0
10
77.0721969604492
20
75.9049987792969
40
0.0
41
0.0
42
0.0
10
77.1601028442383
20
75.988899230957
40
0.0
41
0.0
42
0.0
10
77.1600036621094
20
76.0143966674805
40
0.0
41
0.0
42
0.0
10
77.0988006591797
20
76.1220016479492
40
0.0
41
0.0
42
0.0
10
77.0043029785156
20
76.3895034790039
40
0.0
41
0.0
42
0.0
10
76.8033981323242
20
76.4195022583008
40
0.0
41
0.0
42
0.0
10
76.7678985595703
20
76.4195022583008
40
0.0
41
0.0
42
0.0
10
76.4851989746094
20
76.3388977050781
40
0.0
41
0.0
42
0.0
10
76.2343978881836
20
76.2815017700195
40
0.0
41
0.0
42
0.0
10
76.0011978149414
20
76.0930023193359
40
0.0
41
0.0
42
0.0
10
75.9598007202148
20
76.1933975219727
40
0.0
41
0.0
42
0.0
10
75.7057037353516
20
76.3117980957031
40
0.0
41
0.0
42
0.0
10
75.8314971923828
20
76.486701965332
40
0.0
41
0.0
42
0.0
10
75.8313980102539
20
76.5185012817383
40
0.0
41
0.0
42
0.0
10
75.7962036132812
20
76.7650985717773
40
0.0
41
0.0
42
0.0
10
75.8049011230469
20
76.9804000854492
40
0.0
41
0.0
42
0.0
10
75.804801940918
20
77.0157012939453
40
0.0
41
0.0
42
0.0
10
75.686897277832
20
77.2942962646484
40
0.0
41
0.0
42
0.0
10
75.5559997558594
20
77.4655990600586
40
0.0
41
0.0
42
0.0
10
75.5134963989258
20
77.4946975708008
40
0.0
41
0.0
42
0.0
10
75.4896011352539
20
77.4945983886719
40
0.0
41
0.0
42
0.0
10
75.3154983520508
20
77.2926025390625
40
0.0
41
0.0
42
0.0
10
75.1457977294922
20
77.0121002197266
40
0.0
41
0.0
42
0.0
10
75.0934982299805
20
76.7643966674805
40
0.0
41
0.0
42
0.0
10
75.0593032836914
20
76.7082977294922
40
0.0
41
0.0
42
0.0
10
74.9935989379883
20
76.589599609375
40
0.0
41
0.0
42
0.0
10
74.7685012817383
20
76.6100006103516
40
0.0
41
0.0
42
0.0
10
74.5121002197266
20
76.6129989624023
40
0.0
41
0.0
42
0.0
10
74.33740234375
20
76.7608032226562
40
0.0
41
0.0
42
0.0
10
74.1757965087891
20
77.0056991577148
40
0.0
41
0.0
42
0.0
10
74.0947036743164
20
77.0720977783203
40
0.0
41
0.0
42
0.0
10
74.0110015869141
20
77.1601028442383
40
0.0
41
0.0
42
0.0
10
73.9854965209961
20
77.1601028442383
40
0.0
41
0.0
42
0.0
10
73.877799987793
20
77.0988006591797
40
0.0
41
0.0
42
0.0
10
73.6122970581055
20
77.0052032470703
40
0.0
41
0.0
42
0.0
10
73.6122970581055
20
76.9829025268555
40
0.0
41
0.0
42
0.0
10
73.6900024414062
20
76.7100982666016
40
0.0
41
0.0
42
0.0
10
73.6615982055664
20
76.5184020996094
40
0.0
41
0.0
42
0.0
10
73.6614990234375
20
76.4822998046875
40
0.0
41
0.0
42
0.0
10
73.7092971801758
20
76.2697982788086
40
0.0
41
0.0
42
0.0
10
73.7181015014648
20
76.2344970703125
40
0.0
41
0.0
42
0.0
10
73.9173965454102
20
75.9878997802734
40
0.0
41
0.0
42
0.0
10
73.9356002807617
20
75.665397644043
40
0.0
41
0.0
42
0.0
10
73.927001953125
20
75.6611022949219
40
0.0
41
0.0
42
0.0
10
73.6551971435547
20
75.8905029296875
40
0.0
41
0.0
42
0.0
10
73.6269989013672
20
75.8904037475586
40
0.0
41
0.0
42
0.0
10
73.4854965209961
20
75.8320007324219
40
0.0
41
0.0
42
0.0
10
73.2348022460938
20
75.7962036132812
40
0.0
41
0.0
42
0.0
10
73.0195007324219
20
75.8049011230469
40
0.0
41
0.0
42
0.0
10
72.9841995239258
20
75.804801940918
40
0.0
41
0.0
42
0.0
10
72.7055969238281
20
75.6869964599609
40
0.0
41
0.0
42
0.0
10
72.5342025756836
20
75.5559997558594
40
0.0
41
0.0
42
0.0
10
72.5052032470703
20
75.5134963989258
40
0.0
41
0.0
42
0.0
10
72.5050964355469
20
75.4896011352539
40
0.0
41
0.0
42
0.0
10
72.7072982788086
20
75.3153991699219
40
0.0
41
0.0
42
0.0
10
72.9878005981445
20
75.1457977294922
40
0.0
41
0.0
42
0.0
10
73.2354965209961
20
75.0933990478516
40
0.0
41
0.0
42
0.0
210
0.0
220
0.0
230
1.0
0
LWPOLYLINE
5
2D
330
1C
100
AcDbEntity
67
0
8
0
62
256
6
ByLayer
370
-1
48
1.0
60
0
100
AcDbPolyline
90
117
70
1
38
0.0
39
0.0
10
72.5255966186523
20
75.5016021728516
40
0.0
41
0.0
42
0.0
10
72.5504989624023
20
75.538200378418
40
0.0
41
0.0
42
0.0
10
72.7611999511719
20
75.6988983154297
40
0.0
41
0.0
42
0.0
10
73.0126037597656
20
75.8043975830078
40
0.0
41
0.0
42
0.0
10
73.2654037475586
20
75.7942962646484
40
0.0
41
0.0
42
0.0
10
73.3034973144531
20
75.7941970825195
40
0.0
41
0.0
42
0.0
10
73.5143966674805
20
75.8245010375977
40
0.0
41
0.0
42
0.0
10
73.6174011230469
20
75.8668975830078
40
0.0
41
0.0
42
0.0
10
73.9502029418945
20
75.5860977172852
40
0.0
41
0.0
42
0.0
10
73.9615020751953
20
75.5859985351562
40
0.0
41
0.0
42
0.0
10
73.9615020751953
20
75.6044998168945
40
0.0
41
0.0
42
0.0
10
73.9384994506836
20
76.0120010375977
40
0.0
41
0.0
42
0.0
10
73.7108993530273
20
76.2938003540039
40
0.0
41
0.0
42
0.0
10
73.6638031005859
20
76.503303527832
40
0.0
41
0.0
42
0.0
10
73.698600769043
20
76.7365036010742
40
0.0
41
0.0
42
0.0
10
73.6985015869141
20
76.7720031738281
40
0.0
41
0.0
42
0.0
10
73.6344985961914
20
76.9969024658203
40
0.0
41
0.0
42
0.0
10
73.8796997070312
20
77.0832977294922
40
0.0
41
0.0
42
0.0
10
73.9979019165039
20
77.1504974365234
40
0.0
41
0.0
42
0.0
10
74.0746002197266
20
77.0700988769531
40
0.0
41
0.0
42
0.0
10
74.1661987304688
20
76.9941024780273
40
0.0
41
0.0
42
0.0
10
74.3544006347656
20
76.7089996337891
40
0.0
41
0.0
42
0.0
10
74.4877014160156
20
76.5961990356445
40
0.0
41
0.0
42
0.0
10
74.6895980834961
20
76.5936965942383
40
0.0
41
0.0
42
0.0
10
74.9809036254883
20
76.5675964355469
40
0.0
41
0.0
42
0.0
10
75.0075988769531
20
76.567497253418
40
0.0
41
0.0
42
0.0
10
75.0478973388672
20
76.6402969360352
40
0.0
41
0.0
42
0.0
10
75.0858993530273
20
76.7029037475586
40
0.0
41
0.0
42
0.0
10
75.1473999023438
20
76.9878005981445
40
0.0
41
0.0
42
0.0
10
75.2983016967773
20
77.2372970581055
40
0.0
41
0.0
42
0.0
10
75.5017013549805
20
77.4740982055664
40
0.0
41
0.0
42
0.0
10
75.5381011962891
20
77.4492034912109
40
0.0
41
0.0
42
0.0
10
75.6988983154297
20
77.2387008666992
40
0.0
41
0.0
42
0.0
10
75.8043975830078
20
76.9872970581055
40
0.0
41
0.0
42
0.0
10
75.7942962646484
20
76.7344970703125
40
0.0
41
0.0
42
0.0
10
75.7941970825195
20
76.696403503418
40
0.0
41
0.0
42
0.0
10
75.8211975097656
20
76.5080032348633
40
0.0
41
0.0
42
0.0
10
75.6662979125977
20
76.2925033569336
40
0.0
41
0.0
42
0.0
10
75.6661987304688
20
76.2725982666016
40
0.0
41
0.0
42
0.0
10
75.9642028808594
20
76.1337966918945
40
0.0
41
0.0
42
0.0
10
75.993896484375
20
76.0615997314453
40
0.0
41
0.0
42
0.0
10
76.0126037597656
20
76.0615997314453
40
0.0
41
0.0
42
0.0
10
76.2938995361328
20
76.2889022827148
40
0.0
41
0.0
42
0.0
10
76.513801574707
20
76.3383026123047
40
0.0
41
0.0
42
0.0
10
76.7498016357422
20
76.4055023193359
40
0.0
41
0.0
42
0.0
10
76.9954986572266
20
76.368896484375
40
0.0
41
0.0
42
0.0
10
77.0831985473633
20
76.1201019287109
40
0.0
41
0.0
42
0.0
10
77.1504974365234
20
76.0019989013672
40
0.0
41
0.0
42
0.0
10
77.0700988769531
20
75.9252014160156
40
0.0
41
0.0
42
0.0
10
76.9941024780273
20
75.8335037231445
40
0.0
41
0.0
42
0.0
10
76.7089996337891
20
75.6454010009766
40
0.0
41
0.0
42
0.0
10
76.5961990356445
20
75.5121994018555
40
0.0
41
0.0
42
0.0
10
76.5936965942383
20
75.3102035522461
40
0.0
41
0.0
42
0.0
10
76.5675964355469
20
75.0189971923828
40
0.0
41
0.0
42
0.0
10
76.567497253418
20
74.992301940918
40
0.0
41
0.0
42
0.0
10
76.6402969360352
20
74.9518966674805
40
0.0
41
0.0
42
0.0
10
76.7027969360352
20
74.9138031005859
40
0.0
41
0.0
42
0.0
10
76.9878005981445
20
74.8523025512695
40
0.0
41
0.0
42
0.0
10
77.2372970581055
20
74.7014999389648
40
0.0
41
0.0
42
0.0
10
77.4740982055664
20
74.4982986450195
40
0.0
41
0.0
42
0.0
10
77.4493026733398
20
74.4616012573242
40
0.0
41
0.0
42
0.0
10
77.2388000488281
20
74.3009033203125
40
0.0
41
0.0
42
0.0
10
76.9856033325195
20
74.1945037841797
40
0.0
41
0.0
42
0.0
10
76.7748031616211
20
74.1643981933594
40
0.0
41
0.0
42
0.0
10
76.5128021240234
20
74.1750030517578
40
0.0
41
0.0
42
0.0
10
76.2925033569336
20
74.3336029052734
40
0.0
41
0.0
42
0.0
10
76.2725982666016
20
74.3336029052734
40
0.0
41
0.0
42
0.0
10
76.1340026855469
20
74.0355987548828
40
0.0
41
0.0
42
0.0
10
76.0616989135742
20
74.0058975219727
40
0.0
41
0.0
42
0.0
10
76.0615997314453
20
73.9872970581055
40
0.0
41
0.0
42
0.0
10
76.2889022827148
20
73.7060012817383
40
0.0
41
0.0
42
0.0
10
76.3383026123047
20
73.4860000610352
40
0.0
41
0.0
42
0.0
10
76.4055023193359
20
73.2500991821289
40
0.0
41
0.0
42
0.0
10
76.3690032958984
20
73.0043029785156
40
0.0
41
0.0
42
0.0
10
76.1201019287109
20
72.9164962768555
40
0.0
41
0.0
42
0.0
10
76.0019989013672
20
72.8491973876953
40
0.0
41
0.0
42
0.0
10
75.9251022338867
20
72.9296035766602
40
0.0
41
0.0
42
0.0
10
75.8335037231445
20
73.0056991577148
40
0.0
41
0.0
42
0.0
10
75.6453018188477
20
73.2908020019531
40
0.0
41
0.0
42
0.0
10
75.5121002197266
20
73.4036026000977
40
0.0
41
0.0
42
0.0
10
75.3102035522461
20
73.4059982299805
40
0.0
41
0.0
42
0.0
10
75.0189971923828
20
73.4322967529297
40
0.0
41
0.0
42
0.0
10
74.992301940918
20
73.4322967529297
40
0.0
41
0.0
42
0.0
10
74.9518966674805
20
73.3594970703125
40
0.0
41
0.0
42
0.0
10
74.9138031005859
20
73.2970962524414
40
0.0
41
0.0
42
0.0
10
74.8524017333984
20
73.0121002197266
40
0.0
41
0.0
42
0.0
10
74.7014999389648
20
72.7626037597656
40
0.0
41
0.0
42
0.0
10
74.4982986450195
20
72.5255966186523
40
0.0
41
0.0
42
0.0
10
74.4616012573242
20
72.5504989624023
40
0.0
41
0.0
42
0.0
10
74.3009033203125
20
72.761100769043
40
0.0
41
0.0
42
0.0
10
74.1945037841797
20
73.0142974853516
40
0.0
41
0.0
42
0.0
10
74.1643981933594
20
73.22509765625
40
0.0
41
0.0
42
0.0
10
74.1750030517578
20
73.4870986938477
40
0.0
41
0.0
42
0.0
10
74.3336029052734
20
73.7073974609375
40
0.0
41
0.0
42
0.0
10
74.3335037231445
20
73.7270965576172
40
0.0
41
0.0
42
0.0
10
74.0354995727539
20
73.8658981323242
40
0.0
41
0.0
42
0.0
10
74.0058975219727
20
73.938102722168
40
0.0
41
0.0
42
0.0
10
73.9872970581055
20
73.938102722168
40
0.0
41
0.0
42
0.0
10
73.7060012817383
20
73.7108993530273
40
0.0
41
0.0
42
0.0
10
73.4965972900391
20
73.6638031005859
40
0.0
41
0.0
42
0.0
10
73.2633972167969
20
73.698600769043
40
0.0
41
0.0
42
0.0
10
73.227897644043
20
73.698600769043
40
0.0
41
0.0
42
0.0
10
73.0029983520508
20
73.6343994140625
40
0.0
41
0.0
42
0.0
10
72.9163970947266
20
73.8796997070312
40
0.0
41
0.0
42
0.0
10
72.8491973876953
20
73.9979019165039
40
0.0
41
0.0
42
0.0
10
72.9297027587891
20
74.0746002197266
40
0.0
41
0.0
42
0.0
10
73.0057983398438
20
74.1662979125977
40
0.0
41
0.0
42
0.0
10
73.290901184082
20
74.3544006347656
40
0.0
41
0.0
42
0.0
10
73.4036026000977
20
74.4877014160156
40
0.0
41
0.0
42
0.0
10
73.4059982299805
20
74.6895980834961
40
0.0
41
0.0
42
0.0
10
73.4322967529297
20
74.9809036254883
40
0.0
41
0.0
42
0.0
10
73.4321975708008
20
75.0075988769531
40
0.0
41
0.0
42
0.0
10
73.3593978881836
20
75.0477981567383
40
0.0
41
0.0
42
0.0
10
73.2969970703125
20
75.0858993530273
40
0.0
41
0.0
42
0.0
10
73.0121002197266
20
75.1473007202148
40
0.0
41
0.0
42
0.0
10
72.7624969482422
20
75.2982025146484
40
0.0
41
0.0
42
0.0
10
72.5255966186523
20
75.5016021728516
40
0.0
41
0.0
42
0.0
210
0.0
220
0.0
230
1.0
0
LWPOLYLINE
5
2E
330
1C
100
AcDbEntity
67
0
8
0
62
256
6
ByLayer
370
-1
48
1.0
60
0
100
AcDbPolyline
90
57
70
1
38
0.0
39
0.0
10
73.9977035522461
20
74.9001998901367
40
0.0
41
0.0
42
0.0
10
74.0886001586914
20
74.7739028930664
40
0.0
41
0.0
42
0.0
10
74.1540985107422
20
74.7081985473633
40
0.0
41
0.0
42
0.0
10
74.2906036376953
20
74.4984970092773
40
0.0
41
0.0
42
0.0
10
74.1783981323242
20
74.2645034790039
40
0.0
41
0.0
42
0.0
10
74.1782989501953
20
74.2417984008789
40
0.0
41
0.0
42
0.0
10
74.480598449707
20
74.0805969238281
40
0.0
41
0.0
42
0.0
10
74.4953994750977
20
74.0515975952148
40
0.0
41
0.0
42
0.0
10
74.5730972290039
20
74.0140991210938
40
0.0
41
0.0
42
0.0
10
74.6191024780273
20
73.9987030029297
40
0.0
41
0.0
42
0.0
10
74.9871978759766
20
73.7109985351562
40
0.0
41
0.0
42
0.0
10
75.0169982910156
20
73.7109985351562
40
0.0
41
0.0
42
0.0
10
75.2248001098633
20
73.7698974609375
40
0.0
41
0.0
42
0.0
10
75.2248001098633
20
73.788200378418
40
0.0
41
0.0
42
0.0
10
75.0995025634766
20
73.9977035522461
40
0.0
41
0.0
42
0.0
10
75.2257995605469
20
74.0886001586914
40
0.0
41
0.0
42
0.0
10
75.2917022705078
20
74.1541976928711
40
0.0
41
0.0
42
0.0
10
75.5093994140625
20
74.2957992553711
40
0.0
41
0.0
42
0.0
10
75.5733032226562
20
74.3281021118164
40
0.0
41
0.0
42
0.0
10
75.8948974609375
20
74.1391983032227
40
0.0
41
0.0
42
0.0
10
75.9101028442383
20
74.1393966674805
40
0.0
41
0.0
42
0.0
10
75.9433975219727
20
74.4857025146484
40
0.0
41
0.0
42
0.0
10
75.9856033325195
20
74.5730972290039
40
0.0
41
0.0
42
0.0
10
76.0011978149414
20
74.6192016601562
40
0.0
41
0.0
42
0.0
10
76.2889022827148
20
74.9871978759766
40
0.0
41
0.0
42
0.0
10
76.2886962890625
20
75.0169982910156
40
0.0
41
0.0
42
0.0
10
76.2298965454102
20
75.2248001098633
40
0.0
41
0.0
42
0.0
10
76.2116012573242
20
75.2248001098633
40
0.0
41
0.0
42
0.0
10
76.002197265625
20
75.0994033813477
40
0.0
41
0.0
42
0.0
10
75.9111022949219
20
75.2257995605469
40
0.0
41
0.0
42
0.0
10
75.8454971313477
20
75.2916030883789
40
0.0
41
0.0
42
0.0
10
75.7091979980469
20
75.5014038085938
40
0.0
41
0.0
42
0.0
10
75.8215026855469
20
75.7353973388672
40
0.0
41
0.0
42
0.0
10
75.821403503418
20
75.7580032348633
40
0.0
41
0.0
42
0.0
10
75.5190963745117
20
75.9191970825195
40
0.0
41
0.0
42
0.0
10
75.5044021606445
20
75.9481964111328
40
0.0
41
0.0
42
0.0
10
75.4266967773438
20
75.9854965209961
40
0.0
41
0.0
42
0.0
10
75.3805999755859
20
76.0010986328125
40
0.0
41
0.0
42
0.0
10
75.0127029418945
20
76.2889022827148
40
0.0
41
0.0
42
0.0
10
74.9829025268555
20
76.2888031005859
40
0.0
41
0.0
42
0.0
10
74.77490234375
20
76.2298965454102
40
0.0
41
0.0
42
0.0
10
74.77490234375
20
76.2116012573242
40
0.0
41
0.0
42
0.0
10
74.9002990722656
20
76.002197265625
40
0.0
41
0.0
42
0.0
10
74.7740020751953
20
75.9112014770508
40
0.0
41
0.0
42
0.0
10
74.7082977294922
20
75.8455963134766
40
0.0
41
0.0
42
0.0
10
74.4984970092773
20
75.709098815918
40
0.0
41
0.0
42
0.0
10
74.2643966674805
20
75.8215026855469
40
0.0
41
0.0
42
0.0
10
74.2417984008789
20
75.8215026855469
40
0.0
41
0.0
42
0.0
10
74.0805969238281
20
75.5190963745117
40
0.0
41
0.0
42
0.0
10
74.0515975952148
20
75.5045013427734
40
0.0
41
0.0
42
0.0
10
74.0141983032227
20
75.4266967773438
40
0.0
41
0.0
42
0.0
10
73.9987030029297
20
75.3806991577148
40
0.0
41
0.0
42
0.0
10
73.7109985351562
20
75.0127029418945
40
0.0
41
0.0
42
0.0
10
73.7108993530273
20
74.9829025268555
40
0.0
41
0.0
42
0.0
10
73.7698974609375
20
74.77490234375
40
0.0
41
0.0
42
0.0
10
73.788200378418
20
74.7750015258789
40
0.0
41
0.0
42
0.0
10
73.9977035522461
20
74.9001998901367
40
0.0
41
0.0
42
0.0
210
0.0
220
0.0
230
1.0
0
LWPOLYLINE
5
2F
330
1C
100
AcDbEntity
67
0
8
0
62
256
6
ByLayer
370
-1
48
1.0
60
0
100
AcDbPolyline
90
53
70
1
38
0.0
39
0.0
10
74.0011978149414
20
75.2726974487305
40
0.0
41
0.0
42
0.0
10
74.0253982543945
20
75.3443984985352
40
0.0
41
0.0
42
0.0
10
74.0980987548828
20
75.4954986572266
40
0.0
41
0.0
42
0.0
10
74.1479034423828
20
75.5206985473633
40
0.0
41
0.0
42
0.0
10
74.2872009277344
20
75.7817001342773
40
0.0
41
0.0
42
0.0
10
74.4847030639648
20
75.6871032714844
40
0.0
41
0.0
42
0.0
10
74.5137023925781
20
75.6869964599609
40
0.0
41
0.0
42
0.0
10
74.7617034912109
20
75.848503112793
40
0.0
41
0.0
42
0.0
10
74.8388977050781
20
75.9253005981445
40
0.0
41
0.0
42
0.0
10
74.9297027587891
20
75.9906997680664
40
0.0
41
0.0
42
0.0
10
74.9296035766602
20
76.0140991210938
40
0.0
41
0.0
42
0.0
10
74.8358993530273
20
76.1707000732422
40
0.0
41
0.0
42
0.0
10
74.9951019287109
20
76.2156982421875
40
0.0
41
0.0
42
0.0
10
75.2725982666016
20
75.9985961914062
40
0.0
41
0.0
42
0.0
10
75.3443984985352
20
75.9742965698242
40
0.0
41
0.0
42
0.0
10
75.4953994750977
20
75.9016036987305
40
0.0
41
0.0
42
0.0
10
75.5205993652344
20
75.8517990112305
40
0.0
41
0.0
42
0.0
10
75.7817993164062
20
75.7126007080078
40
0.0
41
0.0
42
0.0
10
75.6871032714844
20
75.5151977539062
40
0.0
41
0.0
42
0.0
10
75.686897277832
20
75.4860992431641
40
0.0
41
0.0
42
0.0
10
75.8483963012695
20
75.2381973266602
40
0.0
41
0.0
42
0.0
10
75.9253005981445
20
75.1607971191406
40
0.0
41
0.0
42
0.0
10
75.9906997680664
20
75.070198059082
40
0.0
41
0.0
42
0.0
10
76.0140991210938
20
75.0700988769531
40
0.0
41
0.0
42
0.0
10
76.1707000732422
20
75.1638031005859
40
0.0
41
0.0
42
0.0
10
76.2157974243164
20
75.0047988891602
40
0.0
41
0.0
42
0.0
10
75.9985961914062
20
74.7272033691406
40
0.0
41
0.0
42
0.0
10
75.9742965698242
20
74.655403137207
40
0.0
41
0.0
42
0.0
10
75.9064025878906
20
74.5141983032227
40
0.0
41
0.0
42
0.0
10
75.8759002685547
20
74.1962966918945
40
0.0
41
0.0
42
0.0
10
75.6019973754883
20
74.3572998046875
40
0.0
41
0.0
42
0.0
10
75.5727996826172
20
74.3572006225586
40
0.0
41
0.0
42
0.0
10
75.4905014038086
20
74.3154983520508
40
0.0
41
0.0
42
0.0
10
75.2381973266602
20
74.1513977050781
40
0.0
41
0.0
42
0.0
10
75.1608963012695
20
74.0745010375977
40
0.0
41
0.0
42
0.0
10
75.070198059082
20
74.0092010498047
40
0.0
41
0.0
42
0.0
10
75.0700988769531
20
73.9857025146484
40
0.0
41
0.0
42
0.0
10
75.1640014648438
20
73.8290023803711
40
0.0
41
0.0
42
0.0
10
75.0047988891602
20
73.7841033935547
40
0.0
41
0.0
42
0.0
10
74.7270965576172
20
74.0011978149414
40
0.0
41
0.0
42
0.0
10
74.655403137207
20
74.0253982543945
40
0.0
41
0.0
42
0.0
10
74.5044021606445
20
74.0979995727539
40
0.0
41
0.0
42
0.0
10
74.4791030883789
20
74.1479034423828
40
0.0
41
0.0
42
0.0
10
74.2180023193359
20
74.2872009277344
40
0.0
41
0.0
42
0.0
10
74.3127975463867
20
74.4847030639648
40
0.0
41
0.0
42
0.0
10
74.3125991821289
20
74.5137023925781
40
0.0
41
0.0
42
0.0
10
74.1513977050781
20
74.7615966796875
40
0.0
41
0.0
42
0.0
10
74.0744018554688
20
74.8388977050781
40
0.0
41
0.0
42
0.0
10
74.0092010498047
20
74.9297027587891
40
0.0
41
0.0
42
0.0
10
73.9858016967773
20
74.9296035766602
40
0.0
41
0.0
42
0.0
10
73.8290023803711
20
74.8358001708984
40
0.0
41
0.0
42
0.0
10
73.7841033935547
20
74.9951019287109
40
0.0
41
0.0
42
0.0
10
74.0011978149414
20
75.2726974487305
40
0.0
41
0.0
42
0.0
210
0.0
220
0.0
230
1.0
0
LWPOLYLINE
5
30
330
1C
100
AcDbEntity
67
0
8
0
62
256
6
ByLayer
370
-1
48
1.0
60
0
100
AcDbPolyline
90
83
70
1
38
0.0
39
0.0
10
74.6006011962891
20
65.7331008911133
40
0.0
41
0.0
42
0.0
10
74.7570037841797
20
65.4931030273438
40
0.0
41
0.0
42
0.0
10
74.9801025390625
20
65.2631988525391
40
0.0
41
0.0
42
0.0
10
74.9924011230469
20
65.2530975341797
40
0.0
41
0.0
42
0.0
10
75.2359008789062
20
65.0939025878906
40
0.0
41
0.0
42
0.0
10
75.3852996826172
20
65.0070037841797
40
0.0
41
0.0
42
0.0
10
75.3935012817383
20
65.0009994506836
40
0.0
41
0.0
42
0.0
10
75.4621963500977
20
65.0009994506836
40
0.0
41
0.0
42
0.0
10
75.4621963500977
20
65.0085983276367
40
0.0
41
0.0
42
0.0
10
75.2938995361328
20
65.1064987182617
40
0.0
41
0.0
42
0.0
10
75.0074005126953
20
65.2938003540039
40
0.0
41
0.0
42
0.0
10
74.9894027709961
20
65.3087005615234
40
0.0
41
0.0
42
0.0
10
74.7970962524414
20
65.5067977905273
40
0.0
41
0.0
42
0.0
10
74.6082992553711
20
65.7966995239258
40
0.0
41
0.0
42
0.0
10
74.5664978027344
20
65.9940032958984
40
0.0
41
0.0
42
0.0
10
74.6816024780273
20
66.2020034790039
40
0.0
41
0.0
42
0.0
10
74.6875
20
66.2372970581055
40
0.0
41
0.0
42
0.0
10
74.7026977539062
20
66.4865036010742
40
0.0
41
0.0
42
0.0
10
74.8580017089844
20
66.7382965087891
40
0.0
41
0.0
42
0.0
10
75.006103515625
20
66.8778991699219
40
0.0
41
0.0
42
0.0
10
75.1482009887695
20
66.9952011108398
40
0.0
41
0.0
42
0.0
10
75.3719024658203
20
67.2400970458984
40
0.0
41
0.0
42
0.0
10
75.4197998046875
20
67.2802963256836
40
0.0
41
0.0
42
0.0
10
75.5092010498047
20
67.3477020263672
40
0.0
41
0.0
42
0.0
10
75.8501968383789
20
67.4983978271484
40
0.0
41
0.0
42
0.0
10
75.8803024291992
20
67.5186996459961
40
0.0
41
0.0
42
0.0
10
76.0122985839844
20
67.6175003051758
40
0.0
41
0.0
42
0.0
10
76.3598022460938
20
67.6119003295898
40
0.0
41
0.0
42
0.0
10
76.4849014282227
20
67.6050033569336
40
0.0
41
0.0
42
0.0
10
76.723503112793
20
67.4994964599609
40
0.0
41
0.0
42
0.0
10
76.9880981445312
20
67.4123992919922
40
0.0
41
0.0
42
0.0
10
77.1685028076172
20
67.3197021484375
40
0.0
41
0.0
42
0.0
10
77.4917984008789
20
67.1420974731445
40
0.0
41
0.0
42
0.0
10
77.6714019775391
20
66.9926986694336
40
0.0
41
0.0
42
0.0
10
77.6929016113281
20
66.9399032592773
40
0.0
41
0.0
42
0.0
10
77.9983978271484
20
66.6224975585938
40
0.0
41
0.0
42
0.0
10
78.0428009033203
20
66.4841003417969
40
0.0
41
0.0
42
0.0
10
78.0619964599609
20
66.2614974975586
40
0.0
41
0.0
42
0.0
10
77.9912033081055
20
66.0122985839844
40
0.0
41
0.0
42
0.0
10
77.8809967041016
20
65.7938003540039
40
0.0
41
0.0
42
0.0
10
77.6635971069336
20
65.506103515625
40
0.0
41
0.0
42
0.0
10
77.6072998046875
20
65.4506988525391
40
0.0
41
0.0
42
0.0
10
77.493896484375
20
65.3198013305664
40
0.0
41
0.0
42
0.0
10
77.2074966430664
20
65.1334991455078
40
0.0
41
0.0
42
0.0
10
77.1067962646484
20
65.0477981567383
40
0.0
41
0.0
42
0.0
10
77.0495986938477
20
65.0087966918945
40
0.0
41
0.0
42
0.0
10
77.0495986938477
20
65.0009994506836
40
0.0
41
0.0
42
0.0
10
77.0924987792969
20
65.0009002685547
40
0.0
41
0.0
42
0.0
10
77.1425018310547
20
65.0351028442383
40
0.0
41
0.0
42
0.0
10
77.2623977661133
20
65.1369018554688
40
0.0
41
0.0
42
0.0
10
77.5059967041016
20
65.2955017089844
40
0.0
41
0.0
42
0.0
10
77.6373977661133
20
65.4470977783203
40
0.0
41
0.0
42
0.0
10
77.6848983764648
20
65.4937973022461
40
0.0
41
0.0
42
0.0
10
77.8679962158203
20
65.7360992431641
40
0.0
41
0.0
42
0.0
10
77.9947967529297
20
65.9876022338867
40
0.0
41
0.0
42
0.0
10
78.0635986328125
20
66.2300033569336
40
0.0
41
0.0
42
0.0
10
78.0716018676758
20
66.2671966552734
40
0.0
41
0.0
42
0.0
10
78.0715026855469
20
66.3040008544922
40
0.0
41
0.0
42
0.0
10
78.0533981323242
20
66.5158004760742
40
0.0
41
0.0
42
0.0
10
78.0014038085938
20
66.6774978637695
40
0.0
41
0.0
42
0.0
10
77.745002746582
20
66.9439010620117
40
0.0
41
0.0
42
0.0
10
77.7190017700195
20
67.0071029663086
40
0.0
41
0.0
42
0.0
10
77.5080032348633
20
67.1827011108398
40
0.0
41
0.0
42
0.0
10
77.1101989746094
20
67.4011001586914
40
0.0
41
0.0
42
0.0
10
77.0118026733398
20
67.4517974853516
40
0.0
41
0.0
42
0.0
10
76.8646011352539
20
67.5001983642578
40
0.0
41
0.0
42
0.0
10
76.5149993896484
20
67.654899597168
40
0.0
41
0.0
42
0.0
10
76.3387985229492
20
67.6647033691406
40
0.0
41
0.0
42
0.0
10
75.9868011474609
20
67.6697006225586
40
0.0
41
0.0
42
0.0
10
75.8060989379883
20
67.5344009399414
40
0.0
41
0.0
42
0.0
10
75.7575988769531
20
67.5015029907227
40
0.0
41
0.0
42
0.0
10
75.4906997680664
20
67.3834991455078
40
0.0
41
0.0
42
0.0
10
75.4245986938477
20
67.3338012695312
40
0.0
41
0.0
42
0.0
10
75.3721008300781
20
67.2897033691406
40
0.0
41
0.0
42
0.0
10
75.1119003295898
20
67.0046997070312
40
0.0
41
0.0
42
0.0
10
74.993896484375
20
66.9074020385742
40
0.0
41
0.0
42
0.0
10
74.8712997436523
20
66.7916030883789
40
0.0
41
0.0
42
0.0
10
74.6996994018555
20
66.5133972167969
40
0.0
41
0.0
42
0.0
10
74.6843032836914
20
66.2602005004883
40
0.0
41
0.0
42
0.0
10
74.5483016967773
20
66.0145034790039
40
0.0
41
0.0
42
0.0
10
74.5482025146484
20
65.9820022583008
40
0.0
41
0.0
42
0.0
10
74.5718994140625
20
65.8650970458984
40
0.0
41
0.0
42
0.0
10
74.6006011962891
20
65.7331008911133
40
0.0
41
0.0
42
0.0
210
0.0
220
0.0
230
1.0
0
LWPOLYLINE
5
31
330
1C
100
AcDbEntity
67
0
8
0
62
256
6
ByLayer
370
-1
48
1.0
60
0
100
AcDbPolyline
90
56
70
1
38
0.0
39
0.0
10
78.8044967651367
20
82.1038970947266
40
0.0
41
0.0
42
0.0
10
78.8439025878906
20
81.9860992431641
40
0.0
41
0.0
42
0.0
10
78.9072036743164
20
81.7592010498047
40
0.0
41
0.0
42
0.0
10
78.9990005493164
20
81.5509033203125
40
0.0
41
0.0
42
0.0
10
79.0268020629883
20
81.4909973144531
40
0.0
41
0.0
42
0.0
10
79.1327972412109
20
81.3563003540039
40
0.0
41
0.0
42
0.0
10
79.3675994873047
20
80.9947967529297
40
0.0
41
0.0
42
0.0
10
79.4915008544922
20
80.9085998535156
40
0.0
41
0.0
42
0.0
10
79.7014007568359
20
80.7766036987305
40
0.0
41
0.0
42
0.0
10
79.9804000854492
20
80.7651977539062
40
0.0
41
0.0
42
0.0
10
80.019401550293
20
80.7650985717773
40
0.0
41
0.0
42
0.0
10
80.2746963500977
20
80.7789993286133
40
0.0
41
0.0
42
0.0
10
80.4822006225586
20
80.7335968017578
40
0.0
41
0.0
42
0.0
10
80.5183029174805
20
80.7334976196289
40
0.0
41
0.0
42
0.0
10
80.7922973632812
20
80.7771987915039
40
0.0
41
0.0
42
0.0
10
80.980598449707
20
80.7648010253906
40
0.0
41
0.0
42
0.0
10
81.0150985717773
20
80.7647018432617
40
0.0
41
0.0
42
0.0
10
81.2808990478516
20
80.8951034545898
40
0.0
41
0.0
42
0.0
10
81.5139007568359
20
80.9208984375
40
0.0
41
0.0
42
0.0
10
81.6314010620117
20
80.9794998168945
40
0.0
41
0.0
42
0.0
10
81.6419982910156
20
80.991096496582
40
0.0
41
0.0
42
0.0
10
81.7306976318359
20
81.2341003417969
40
0.0
41
0.0
42
0.0
10
81.8841018676758
20
81.4858016967773
40
0.0
41
0.0
42
0.0
10
81.8832015991211
20
81.8163986206055
40
0.0
41
0.0
42
0.0
10
81.8753967285156
20
82.0170974731445
40
0.0
41
0.0
42
0.0
10
81.8504028320312
20
82.1213989257812
40
0.0
41
0.0
42
0.0
10
81.8095016479492
20
82.2692031860352
40
0.0
41
0.0
42
0.0
10
81.7384033203125
20
82.5120010375977
40
0.0
41
0.0
42
0.0
10
81.6039962768555
20
82.7643966674805
40
0.0
41
0.0
42
0.0
10
81.5111999511719
20
82.9115982055664
40
0.0
41
0.0
42
0.0
10
81.5018005371094
20
82.9300994873047
40
0.0
41
0.0
42
0.0
10
81.4480972290039
20
83.0070037841797
40
0.0
41
0.0
42
0.0
10
81.36669921875
20
83.100700378418
40
0.0
41
0.0
42
0.0
10
81.2614974975586
20
83.2006988525391
40
0.0
41
0.0
42
0.0
10
81.043701171875
20
83.3591003417969
40
0.0
41
0.0
42
0.0
10
81.0099029541016
20
83.3795013427734
40
0.0
41
0.0
42
0.0
10
80.7611999511719
20
83.5009002685547
40
0.0
41
0.0
42
0.0
10
80.7261962890625
20
83.5166015625
40
0.0
41
0.0
42
0.0
10
80.5152969360352
20
83.5756988525391
40
0.0
41
0.0
42
0.0
10
80.2727966308594
20
83.6175994873047
40
0.0
41
0.0
42
0.0
10
80.0195999145508
20
83.6259002685547
40
0.0
41
0.0
42
0.0
10
79.9819030761719
20
83.6258010864258
40
0.0
41
0.0
42
0.0
10
79.7275009155273
20
83.5780029296875
40
0.0
41
0.0
42
0.0
10
79.4849014282227
20
83.5636978149414
40
0.0
41
0.0
42
0.0
10
79.3690032958984
20
83.5129013061523
40
0.0
41
0.0
42
0.0
10
79.3195037841797
20
83.5
40
0.0
41
0.0
42
0.0
10
79.1268997192383
20
83.4182968139648
40
0.0
41
0.0
42
0.0
10
79.109001159668
20
83.4072036743164
40
0.0
41
0.0
42
0.0
10
78.9973983764648
20
83.28759765625
40
0.0
41
0.0
42
0.0
10
78.9524993896484
20
83.1959991455078
40
0.0
41
0.0
42
0.0
10
78.7585983276367
20
83.0095977783203
40
0.0
41
0.0
42
0.0
10
78.7126007080078
20
82.7332000732422
40
0.0
41
0.0
42
0.0
10
78.7125015258789
20
82.6956024169922
40
0.0
41
0.0
42
0.0
10
78.7265014648438
20
82.4823989868164
40
0.0
41
0.0
42
0.0
10
78.7743988037109
20
82.1998977661133
40
0.0
41
0.0
42
0.0
10
78.8044967651367
20
82.1038970947266
40
0.0
41
0.0
42
0.0
210
0.0
220
0.0
230
1.0
0
LWPOLYLINE
5
32
330
1C
100
AcDbEntity
67
0
8
0
62
256
6
ByLayer
370
-1
48
1.0
60
0
100
AcDbPolyline
90
54
70
1
38
0.0
39
0.0
10
78.9496002197266
20
83.1546020507812
40
0.0
41
0.0
42
0.0
10
79.0025024414062
20
83.2621994018555
40
0.0
41
0.0
42
0.0
10
79.1380004882812
20
83.4073028564453
40
0.0
41
0.0
42
0.0
10
79.3564987182617
20
83.4999008178711
40
0.0
41
0.0
42
0.0
10
79.4135971069336
20
83.5148010253906
40
0.0
41
0.0
42
0.0
10
79.5149993896484
20
83.5590972900391
40
0.0
41
0.0
42
0.0
10
79.8023986816406
20
83.5762023925781
40
0.0
41
0.0
42
0.0
10
80.0123977661133
20
83.6156005859375
40
0.0
41
0.0
42
0.0
10
80.1969985961914
20
83.6097030639648
40
0.0
41
0.0
42
0.0
10
80.3892974853516
20
83.5774993896484
40
0.0
41
0.0
42
0.0
10
80.4847030639648
20
83.5599975585938
40
0.0
41
0.0
42
0.0
10
80.6540985107422
20
83.5124969482422
40
0.0
41
0.0
42
0.0
10
80.9898986816406
20
83.3497009277344
40
0.0
41
0.0
42
0.0
10
81.0214004516602
20
83.3307037353516
40
0.0
41
0.0
42
0.0
10
81.2083969116211
20
83.1948013305664
40
0.0
41
0.0
42
0.0
10
81.3345031738281
20
83.0746994018555
40
0.0
41
0.0
42
0.0
10
81.4057998657227
20
82.9928970336914
40
0.0
41
0.0
42
0.0
10
81.4980010986328
20
82.8610000610352
40
0.0
41
0.0
42
0.0
10
81.5139999389648
20
82.8292999267578
40
0.0
41
0.0
42
0.0
10
81.5921020507812
20
82.7054977416992
40
0.0
41
0.0
42
0.0
10
81.7079010009766
20
82.4878997802734
40
0.0
41
0.0
42
0.0
10
81.7920989990234
20
82.2006988525391
40
0.0
41
0.0
42
0.0
10
81.8267974853516
20
82.0752029418945
40
0.0
41
0.0
42
0.0
10
81.8488998413086
20
81.9828033447266
40
0.0
41
0.0
42
0.0
10
81.8585968017578
20
81.7306976318359
40
0.0
41
0.0
42
0.0
10
81.8593978881836
20
81.5139007568359
40
0.0
41
0.0
42
0.0
10
81.7264022827148
20
81.2957992553711
40
0.0
41
0.0
42
0.0
10
81.6218032836914
20
81.0087966918945
40
0.0
41
0.0
42
0.0
10
81.5976028442383
20
80.9825973510742
40
0.0
41
0.0
42
0.0
10
81.4860000610352
20
80.927001953125
40
0.0
41
0.0
42
0.0
10
81.2689971923828
20
80.9028015136719
40
0.0
41
0.0
42
0.0
10
81.2324981689453
20
80.8925018310547
40
0.0
41
0.0
42
0.0
10
80.9889984130859
20
80.7731018066406
40
0.0
41
0.0
42
0.0
10
80.7642974853516
20
80.7880020141602
40
0.0
41
0.0
42
0.0
10
80.7266006469727
20
80.7879028320312
40
0.0
41
0.0
42
0.0
10
80.5025024414062
20
80.752197265625
40
0.0
41
0.0
42
0.0
10
80.2627029418945
20
80.804801940918
40
0.0
41
0.0
42
0.0
10
80.2225036621094
20
80.8047027587891
40
0.0
41
0.0
42
0.0
10
79.9972991943359
20
80.7923965454102
40
0.0
41
0.0
42
0.0
10
79.7685012817383
20
80.8019027709961
40
0.0
41
0.0
42
0.0
10
79.50830078125
20
80.9653015136719
40
0.0
41
0.0
42
0.0
10
79.4512023925781
20
81.004997253418
40
0.0
41
0.0
42
0.0
10
79.3508987426758
20
81.1594009399414
40
0.0
41
0.0
42
0.0
10
79.1087036132812
20
81.4633026123047
40
0.0
41
0.0
42
0.0
10
79.075798034668
20
81.5093002319336
40
0.0
41
0.0
42
0.0
10
79.0007019042969
20
81.6708984375
40
0.0
41
0.0
42
0.0
10
78.9280014038086
20
81.8357009887695
40
0.0
41
0.0
42
0.0
10
78.8784027099609
20
82.013801574707
40
0.0
41
0.0
42
0.0
10
78.831901550293
20
82.1529006958008
40
0.0
41
0.0
42
0.0
10
78.7950973510742
20
82.2699966430664
40
0.0
41
0.0
42
0.0
10
78.7531967163086
20
82.5175018310547
40
0.0
41
0.0
42
0.0
10
78.7381973266602
20
82.7472991943359
40
0.0
41
0.0
42
0.0
10
78.7787017822266
20
82.9903030395508
40
0.0
41
0.0
42
0.0
10
78.9496002197266
20
83.1546020507812
40
0.0
41
0.0
42
0.0
210
0.0
220
0.0
230
1.0
0
LWPOLYLINE
5
33
330
1C
100
AcDbEntity
67
0
8
0
62
256
6
ByLayer
370
-1
48
1.0
60
0
100
AcDbPolyline
90
56
70
1
38
0.0
39
0.0
10
80.7335968017578
20
69.5177001953125
40
0.0
41
0.0
42
0.0
10
80.7334976196289
20
69.4815979003906
40
0.0
41
0.0
42
0.0
10
80.7771987915039
20
69.2076034545898
40
0.0
41
0.0
42
0.0
10
80.7648010253906
20
69.0193023681641
40
0.0
41
0.0
42
0.0
10
80.7647018432617
20
68.9848022460938
40
0.0
41
0.0
42
0.0
10
80.8949966430664
20
68.7190017700195
40
0.0
41
0.0
42
0.0
10
80.9209976196289
20
68.4860000610352
40
0.0
41
0.0
42
0.0
10
80.9794998168945
20
68.3683013916016
40
0.0
41
0.0
42
0.0
10
80.991096496582
20
68.3576965332031
40
0.0
41
0.0
42
0.0
10
81.2341003417969
20
68.2689971923828
40
0.0
41
0.0
42
0.0
10
81.4858016967773
20
68.1156005859375
40
0.0
41
0.0
42
0.0
10
81.8163986206055
20
68.1165008544922
40
0.0
41
0.0
42
0.0
10
82.0170974731445
20
68.1242980957031
40
0.0
41
0.0
42
0.0
10
82.1213989257812
20
68.149299621582
40
0.0
41
0.0
42
0.0
10
82.2692031860352
20
68.1902008056641
40
0.0
41
0.0
42
0.0
10
82.5120010375977
20
68.2612991333008
40
0.0
41
0.0
42
0.0
10
82.7643966674805
20
68.3956985473633
40
0.0
41
0.0
42
0.0
10
82.9114990234375
20
68.4885025024414
40
0.0
41
0.0
42
0.0
10
82.9300994873047
20
68.4980010986328
40
0.0
41
0.0
42
0.0
10
83.0062026977539
20
68.5511016845703
40
0.0
41
0.0
42
0.0
10
83.0457992553711
20
68.5926971435547
40
0.0
41
0.0
42
0.0
10
83.2009963989258
20
68.7388000488281
40
0.0
41
0.0
42
0.0
10
83.3798980712891
20
68.9906997680664
40
0.0
41
0.0
42
0.0
10
83.5009002685547
20
69.2386016845703
40
0.0
41
0.0
42
0.0
10
83.5166015625
20
69.2734985351562
40
0.0
41
0.0
42
0.0
10
83.5756988525391
20
69.4845962524414
40
0.0
41
0.0
42
0.0
10
83.6175994873047
20
69.7270965576172
40
0.0
41
0.0
42
0.0
10
83.6259002685547
20
69.9803009033203
40
0.0
41
0.0
42
0.0
10
83.6258010864258
20
70.0179977416992
40
0.0
41
0.0
42
0.0
10
83.5780029296875
20
70.2723999023438
40
0.0
41
0.0
42
0.0
10
83.5635986328125
20
70.5149002075195
40
0.0
41
0.0
42
0.0
10
83.5129013061523
20
70.6307983398438
40
0.0
41
0.0
42
0.0
10
83.5
20
70.6801986694336
40
0.0
41
0.0
42
0.0
10
83.4182968139648
20
70.8729019165039
40
0.0
41
0.0
42
0.0
10
83.407096862793
20
70.8907012939453
40
0.0
41
0.0
42
0.0
10
83.28759765625
20
71.0024032592773
40
0.0
41
0.0
42
0.0
10
83.1958999633789
20
71.0473022460938
40
0.0
41
0.0
42
0.0
10
83.0110015869141
20
71.2397994995117
40
0.0
41
0.0
42
0.0
10
82.980598449707
20
71.2397003173828
40
0.0
41
0.0
42
0.0
10
82.7926025390625
20
71.2273025512695
40
0.0
41
0.0
42
0.0
10
82.5182037353516
20
71.2732009887695
40
0.0
41
0.0
42
0.0
10
82.4816970825195
20
71.2731018066406
40
0.0
41
0.0
42
0.0
10
82.1998977661133
20
71.2254028320312
40
0.0
41
0.0
42
0.0
10
82.1038970947266
20
71.195198059082
40
0.0
41
0.0
42
0.0
10
81.9860992431641
20
71.1557998657227
40
0.0
41
0.0
42
0.0
10
81.7593002319336
20
71.0924987792969
40
0.0
41
0.0
42
0.0
10
81.5509033203125
20
71.0008010864258
40
0.0
41
0.0
42
0.0
10
81.4909973144531
20
70.972900390625
40
0.0
41
0.0
42
0.0
10
81.3563003540039
20
70.8668975830078
40
0.0
41
0.0
42
0.0
10
80.9947967529297
20
70.6322021484375
40
0.0
41
0.0
42
0.0
10
80.9085998535156
20
70.5083999633789
40
0.0
41
0.0
42
0.0
10
80.7766036987305
20
70.2985000610352
40
0.0
41
0.0
42
0.0
10
80.7651977539062
20
70.0195007324219
40
0.0
41
0.0
42
0.0
10
80.7650985717773
20
69.9804992675781
40
0.0
41
0.0
42
0.0
10
80.7790985107422
20
69.7251968383789
40
0.0
41
0.0
42
0.0
10
80.7335968017578
20
69.5177001953125
40
0.0
41
0.0
42
0.0
210
0.0
220
0.0
230
1.0
0
LWPOLYLINE
5
34
330
1C
100
AcDbEntity
67
0
8
0
62
256
6
ByLayer
370
-1
48
1.0
60
0
100
AcDbPolyline
90
54
70
1
38
0.0
39
0.0
10
80.9653015136719
20
70.4916000366211
40
0.0
41
0.0
42
0.0
10
81.0050964355469
20
70.5485000610352
40
0.0
41
0.0
42
0.0
10
81.1595001220703
20
70.6488037109375
40
0.0
41
0.0
42
0.0
10
81.4634017944336
20
70.8910980224609
40
0.0
41
0.0
42
0.0
10
81.5093002319336
20
70.9240036010742
40
0.0
41
0.0
42
0.0
10
81.6708984375
20
70.9990997314453
40
0.0
41
0.0
42
0.0
10
81.8358001708984
20
71.0717010498047
40
0.0
41
0.0
42
0.0
10
82.013801574707
20
71.1212997436523
40
0.0
41
0.0
42
0.0
10
82.1529006958008
20
71.1678009033203
40
0.0
41
0.0
42
0.0
10
82.2699966430664
20
71.2045974731445
40
0.0
41
0.0
42
0.0
10
82.5000991821289
20
71.2434997558594
40
0.0
41
0.0
42
0.0
10
82.7266998291016
20
71.2059020996094
40
0.0
41
0.0
42
0.0
10
82.7642974853516
20
71.2058029174805
40
0.0
41
0.0
42
0.0
10
82.9906997680664
20
71.2205963134766
40
0.0
41
0.0
42
0.0
10
83.1546020507812
20
71.0501022338867
40
0.0
41
0.0
42
0.0
10
83.2621994018555
20
70.9973983764648
40
0.0
41
0.0
42
0.0
10
83.4073028564453
20
70.8618011474609
40
0.0
41
0.0
42
0.0
10
83.4999008178711
20
70.6433029174805
40
0.0
41
0.0
42
0.0
10
83.5148010253906
20
70.5861968994141
40
0.0
41
0.0
42
0.0
10
83.5590972900391
20
70.4849014282227
40
0.0
41
0.0
42
0.0
10
83.5762023925781
20
70.1975021362305
40
0.0
41
0.0
42
0.0
10
83.6156005859375
20
69.9875030517578
40
0.0
41
0.0
42
0.0
10
83.6097030639648
20
69.8029022216797
40
0.0
41
0.0
42
0.0
10
83.5774993896484
20
69.6104965209961
40
0.0
41
0.0
42
0.0
10
83.5599975585938
20
69.5151977539062
40
0.0
41
0.0
42
0.0
10
83.5124969482422
20
69.345703125
40
0.0
41
0.0
42
0.0
10
83.3495025634766
20
69.0092010498047
40
0.0
41
0.0
42
0.0
10
83.1945037841797
20
68.7910995483398
40
0.0
41
0.0
42
0.0
10
83.0615997314453
20
68.6660003662109
40
0.0
41
0.0
42
0.0
10
82.9936981201172
20
68.5944976806641
40
0.0
41
0.0
42
0.0
10
82.8610000610352
20
68.5018997192383
40
0.0
41
0.0
42
0.0
10
82.8292999267578
20
68.4857025146484
40
0.0
41
0.0
42
0.0
10
82.7054977416992
20
68.4076995849609
40
0.0
41
0.0
42
0.0
10
82.4878997802734
20
68.2918014526367
40
0.0
41
0.0
42
0.0
10
82.2006988525391
20
68.2076034545898
40
0.0
41
0.0
42
0.0
10
82.0752029418945
20
68.1728973388672
40
0.0
41
0.0
42
0.0
10
81.9828033447266
20
68.1508026123047
40
0.0
41
0.0
42
0.0
10
81.7306976318359
20
68.1410980224609
40
0.0
41
0.0
42
0.0
10
81.5139007568359
20
68.1402969360352
40
0.0
41
0.0
42
0.0
10
81.2957992553711
20
68.2733001708984
40
0.0
41
0.0
42
0.0
10
81.0087966918945
20
68.3779983520508
40
0.0
41
0.0
42
0.0
10
80.9824981689453
20
68.4021987915039
40
0.0
41
0.0
42
0.0
10
80.927001953125
20
68.5139007568359
40
0.0
41
0.0
42
0.0
10
80.9028015136719
20
68.7309036254883
40
0.0
41
0.0
42
0.0
10
80.8925018310547
20
68.7674026489258
40
0.0
41
0.0
42
0.0
10
80.7731018066406
20
69.0109024047852
40
0.0
41
0.0
42
0.0
10
80.7880020141602
20
69.2356033325195
40
0.0
41
0.0
42
0.0
10
80.7879028320312
20
69.2733001708984
40
0.0
41
0.0
42
0.0
10
80.752197265625
20
69.4973983764648
40
0.0
41
0.0
42
0.0
10
80.804801940918
20
69.7371978759766
40
0.0
41
0.0
42
0.0
10
80.8047027587891
20
69.7772979736328
40
0.0
41
0.0
42
0.0
10
80.7923965454102
20
70.0026016235352
40
0.0
41
0.0
42
0.0
10
80.8019027709961
20
70.2313995361328
40
0.0
41
0.0
42
0.0
10
80.9653015136719
20
70.4916000366211
40
0.0
41
0.0
42
0.0
210
0.0
220
0.0
230
1.0
0
LWPOLYLINE
5
35
330
1C
100
AcDbEntity
67
0
8
0
62
256
6
ByLayer
370
-1
48
1.0
60
0
100
AcDbPolyline
90
83
70
1
38
0.0
39
0.0
10
82.4983978271484
20
75.7574996948242
40
0.0
41
0.0
42
0.0
10
82.6158981323242
20
75.4913024902344
40
0.0
41
0.0
42
0.0
10
82.6457977294922
20
75.4573974609375
40
0.0
41
0.0
42
0.0
10
82.7105026245117
20
75.371696472168
40
0.0
41
0.0
42
0.0
10
82.9847030639648
20
75.1229019165039
40
0.0
41
0.0
42
0.0
10
83.0923004150391
20
74.993896484375
40
0.0
41
0.0
42
0.0
10
83.2082977294922
20
74.8712005615234
40
0.0
41
0.0
42
0.0
10
83.4865036010742
20
74.6996994018555
40
0.0
41
0.0
42
0.0
10
83.7396011352539
20
74.684196472168
40
0.0
41
0.0
42
0.0
10
83.9853973388672
20
74.5483016967773
40
0.0
41
0.0
42
0.0
10
84.0178985595703
20
74.5482025146484
40
0.0
41
0.0
42
0.0
10
84.1346969604492
20
74.5718994140625
40
0.0
41
0.0
42
0.0
10
84.2667007446289
20
74.600700378418
40
0.0
41
0.0
42
0.0
10
84.5067977905273
20
74.7570037841797
40
0.0
41
0.0
42
0.0
10
84.7365036010742
20
74.9802017211914
40
0.0
41
0.0
42
0.0
10
84.7465972900391
20
74.9924011230469
40
0.0
41
0.0
42
0.0
10
84.9058990478516
20
75.2360000610352
40
0.0
41
0.0
42
0.0
10
84.9927978515625
20
75.3853988647461
40
0.0
41
0.0
42
0.0
10
84.9990005493164
20
75.3936004638672
40
0.0
41
0.0
42
0.0
10
84.9990005493164
20
75.4621963500977
40
0.0
41
0.0
42
0.0
10
84.991096496582
20
75.4621963500977
40
0.0
41
0.0
42
0.0
10
84.8933029174805
20
75.2938995361328
40
0.0
41
0.0
42
0.0
10
84.7059020996094
20
75.0074996948242
40
0.0
41
0.0
42
0.0
10
84.6910018920898
20
74.9894027709961
40
0.0
41
0.0
42
0.0
10
84.4931030273438
20
74.7972030639648
40
0.0
41
0.0
42
0.0
10
84.2032012939453
20
74.6082992553711
40
0.0
41
0.0
42
0.0
10
84.0058975219727
20
74.5663986206055
40
0.0
41
0.0
42
0.0
10
83.7978973388672
20
74.6815032958984
40
0.0
41
0.0
42
0.0
10
83.7626037597656
20
74.6875
40
0.0
41
0.0
42
0.0
10
83.5133972167969
20
74.7025985717773
40
0.0
41
0.0
42
0.0
10
83.2614974975586
20
74.8580017089844
40
0.0
41
0.0
42
0.0
10
83.1219024658203
20
75.0059967041016
40
0.0
41
0.0
42
0.0
10
82.9957962036133
20
75.1575012207031
40
0.0
41
0.0
42
0.0
10
82.7593002319336
20
75.372200012207
40
0.0
41
0.0
42
0.0
10
82.6810989379883
20
75.4757995605469
40
0.0
41
0.0
42
0.0
10
82.6523971557617
20
75.5084991455078
40
0.0
41
0.0
42
0.0
10
82.5015029907227
20
75.8501968383789
40
0.0
41
0.0
42
0.0
10
82.4811019897461
20
75.8802032470703
40
0.0
41
0.0
42
0.0
10
82.3822021484375
20
76.0122985839844
40
0.0
41
0.0
42
0.0
10
82.3878021240234
20
76.3598022460938
40
0.0
41
0.0
42
0.0
10
82.3946990966797
20
76.4850006103516
40
0.0
41
0.0
42
0.0
10
82.5002975463867
20
76.723503112793
40
0.0
41
0.0
42
0.0
10
82.58740234375
20
76.9885025024414
40
0.0
41
0.0
42
0.0
10
82.7281036376953
20
77.2349014282227
40
0.0
41
0.0
42
0.0
10
82.8573989868164
20
77.4916000366211
40
0.0
41
0.0
42
0.0
10
83.0072021484375
20
77.6714019775391
40
0.0
41
0.0
42
0.0
10
83.0598983764648
20
77.693000793457
40
0.0
41
0.0
42
0.0
10
83.3772964477539
20
77.9983978271484
40
0.0
41
0.0
42
0.0
10
83.5158004760742
20
78.0429000854492
40
0.0
41
0.0
42
0.0
10
83.7384033203125
20
78.0619964599609
40
0.0
41
0.0
42
0.0
10
83.9876022338867
20
77.991096496582
40
0.0
41
0.0
42
0.0
10
84.2061004638672
20
77.8809967041016
40
0.0
41
0.0
42
0.0
10
84.4937973022461
20
77.6634979248047
40
0.0
41
0.0
42
0.0
10
84.5491027832031
20
77.6072006225586
40
0.0
41
0.0
42
0.0
10
84.6799011230469
20
77.493896484375
40
0.0
41
0.0
42
0.0
10
84.8663024902344
20
77.2074966430664
40
0.0
41
0.0
42
0.0
10
84.9518966674805
20
77.1067962646484
40
0.0
41
0.0
42
0.0
10
84.9909973144531
20
77.0495986938477
40
0.0
41
0.0
42
0.0
10
84.9990005493164
20
77.0495986938477
40
0.0
41
0.0
42
0.0
10
84.9989013671875
20
77.092399597168
40
0.0
41
0.0
42
0.0
10
84.9646987915039
20
77.1424026489258
40
0.0
41
0.0
42
0.0
10
84.8628997802734
20
77.2623977661133
40
0.0
41
0.0
42
0.0
10
84.7042007446289
20
77.5059967041016
40
0.0
41
0.0
42
0.0
10
84.5525970458984
20
77.6373977661133
40
0.0
41
0.0
42
0.0
10
84.5059967041016
20
77.6848983764648
40
0.0
41
0.0
42
0.0
10
84.263801574707
20
77.8679962158203
40
0.0
41
0.0
42
0.0
10
84.0121994018555
20
77.9947967529297
40
0.0
41
0.0
42
0.0
10
83.7698974609375
20
78.0635986328125
40
0.0
41
0.0
42
0.0
10
83.7326965332031
20
78.0716018676758
40
0.0
41
0.0
42
0.0
10
83.69580078125
20
78.0715026855469
40
0.0
41
0.0
42
0.0
10
83.4841003417969
20
78.0533981323242
40
0.0
41
0.0
42
0.0
10
83.3223037719727
20
78.0014038085938
40
0.0
41
0.0
42
0.0
10
83.0559997558594
20
77.745002746582
40
0.0
41
0.0
42
0.0
10
82.9927978515625
20
77.7191009521484
40
0.0
41
0.0
42
0.0
10
82.8171997070312
20
77.5083999633789
40
0.0
41
0.0
42
0.0
10
82.7098999023438
20
77.2949981689453
40
0.0
41
0.0
42
0.0
10
82.5477981567383
20
77.0113983154297
40
0.0
41
0.0
42
0.0
10
82.4996032714844
20
76.8646011352539
40
0.0
41
0.0
42
0.0
10
82.3448028564453
20
76.5149993896484
40
0.0
41
0.0
42
0.0
10
82.3349990844727
20
76.3387985229492
40
0.0
41
0.0
42
0.0
10
82.3300018310547
20
75.9868011474609
40
0.0
41
0.0
42
0.0
10
82.4654006958008
20
75.8060989379883
40
0.0
41
0.0
42
0.0
10
82.4983978271484
20
75.7574996948242
40
0.0
41
0.0
42
0.0
210
0.0
220
0.0
230
1.0
0
LWPOLYLINE
5
36
330
1C
100
AcDbEntity
67
0
8
0
62
256
6
ByLayer
370
-1
48
1.0
60
0
100
AcDbPolyline
90
27
70
1
38
0.0
39
0.0
10
82.5822982788086
20
84.9990005493164
40
0.0
41
0.0
42
0.0
10
82.5821990966797
20
84.9909973144531
40
0.0
41
0.0
42
0.0
10
82.8038024902344
20
84.8406982421875
40
0.0
41
0.0
42
0.0
10
82.9896011352539
20
84.7332992553711
40
0.0
41
0.0
42
0.0
10
83.2341995239258
20
84.6192016601562
40
0.0
41
0.0
42
0.0
10
83.488899230957
20
84.4872970581055
40
0.0
41
0.0
42
0.0
10
83.5410995483398
20
84.4649963378906
40
0.0
41
0.0
42
0.0
10
83.7330017089844
20
84.3893966674805
40
0.0
41
0.0
42
0.0
10
83.9877014160156
20
84.2760009765625
40
0.0
41
0.0
42
0.0
10
84.2325973510742
20
84.189697265625
40
0.0
41
0.0
42
0.0
10
84.4873962402344
20
84.0793991088867
40
0.0
41
0.0
42
0.0
10
84.7373962402344
20
83.9970016479492
40
0.0
41
0.0
42
0.0
10
84.984001159668
20
83.8984985351562
40
0.0
41
0.0
42
0.0
10
84.9990005493164
20
83.8984985351562
40
0.0
41
0.0
42
0.0
10
84.9989013671875
20
83.9199981689453
40
0.0
41
0.0
42
0.0
10
84.8038024902344
20
83.9979019165039
40
0.0
41
0.0
42
0.0
10
84.5124969482422
20
84.0942993164062
40
0.0
41
0.0
42
0.0
10
84.2972030639648
20
84.1873016357422
40
0.0
41
0.0
42
0.0
10
84.0121994018555
20
84.2878036499023
40
0.0
41
0.0
42
0.0
10
83.7967987060547
20
84.3836975097656
40
0.0
41
0.0
42
0.0
10
83.5737991333008
20
84.4714965820312
40
0.0
41
0.0
42
0.0
10
83.5110015869141
20
84.4983978271484
40
0.0
41
0.0
42
0.0
10
83.2956008911133
20
84.6097030639648
40
0.0
41
0.0
42
0.0
10
83.0102005004883
20
84.7431030273438
40
0.0
41
0.0
42
0.0
10
82.7910003662109
20
84.8696975708008
40
0.0
41
0.0
42
0.0
10
82.6006011962891
20
84.9990005493164
40
0.0
41
0.0
42
0.0
10
82.5822982788086
20
84.9990005493164
40
0.0
41
0.0
42
0.0
210
0.0
220
0.0
230
1.0
0
LWPOLYLINE
5
37
330
1C
100
AcDbEntity
67
0
8
0
62
256
6
ByLayer
370
-1
48
1.0
60
0
100
AcDbPolyline
90
27
70
1
38
0.0
39
0.0
10
83.9199981689453
20
65.0009994506836
40
0.0
41
0.0
42
0.0
10
83.9979019165039
20
65.1959991455078
40
0.0
41
0.0
42
0.0
10
84.0942993164062
20
65.4873962402344
40
0.0
41
0.0
42
0.0
10
84.1873016357422
20
65.7025985717773
40
0.0
41
0.0
42
0.0
10
84.2878036499023
20
65.9877014160156
40
0.0
41
0.0
42
0.0
10
84.3837966918945
20
66.2031021118164
40
0.0
41
0.0
42
0.0
10
84.4716033935547
20
66.4260025024414
40
0.0
41
0.0
42
0.0
10
84.4983978271484
20
66.488899230957
40
0.0
41
0.0
42
0.0
10
84.6098022460938
20
66.7042007446289
40
0.0
41
0.0
42
0.0
10
84.7431030273438
20
66.9897003173828
40
0.0
41
0.0
42
0.0
10
84.8697967529297
20
67.2089004516602
40
0.0
41
0.0
42
0.0
10
84.9990005493164
20
67.3992004394531
40
0.0
41
0.0
42
0.0
10
84.9990005493164
20
67.4175033569336
40
0.0
41
0.0
42
0.0
10
84.9909973144531
20
67.4175033569336
40
0.0
41
0.0
42
0.0
10
84.8406982421875
20
67.1959991455078
40
0.0
41
0.0
42
0.0
10
84.7333984375
20
67.0102005004883
40
0.0
41
0.0
42
0.0
10
84.6193008422852
20
66.7657012939453
40
0.0
41
0.0
42
0.0
10
84.4873962402344
20
66.5110015869141
40
0.0
41
0.0
42
0.0
10
84.4651031494141
20
66.4587020874023
40
0.0
41
0.0
42
0.0
10
84.3895034790039
20
66.2667999267578
40
0.0
41
0.0
42
0.0
10
84.2761001586914
20
66.0121994018555
40
0.0
41
0.0
42
0.0
10
84.1897964477539
20
65.7673034667969
40
0.0
41
0.0
42
0.0
10
84.0794982910156
20
65.5124969482422
40
0.0
41
0.0
42
0.0
10
83.9969024658203
20
65.2623977661133
40
0.0
41
0.0
42
0.0
10
83.8984985351562
20
65.0158996582031
40
0.0
41
0.0
42
0.0
10
83.8984985351562
20
65.0009994506836
40
0.0
41
0.0
42
0.0
10
83.9199981689453
20
65.0009994506836
40
0.0
41
0.0
42
0.0
210
0.0
220
0.0
230
1.0
0
VIEWPORT
5
3C
330
38
100
AcDbEntity
67
1
8
0
62
256
6
ByLayer
370
-1
48
1.0
60
0
100
AcDbViewport
10
0.0
20
0.0
30
0.0
40
297.0
41
210.0
68
1
69
1
12
50.0
22
100.0
13
0.0
23
0.0
14
10.0
24
10.0
15
10.0
25
10.0
16
0.0
26
0.0
36
1.0
17
0.0
27
0.0
37
0.0
42
50.0
43
0.0
44
0.0
45
250.0
50
0.0
51
0.0
72
1000
90
819232
110
0.0
120
0.0
130
0.0
111
1.0
121
0.0
131
0.0
112
0.0
122
1.0
132
0.0
0
ENDSEC
0
SECTION
2
OBJECTS
0
DICTIONARY
5
42
330
0
100
AcDbDictionary
280
1
281
1
3
ACAD_GROUP
350
12
3
ACAD_LAYOUT
350
3B
3
ACAD_DGNDEFINITIONS
350
F
3
ACAD_DWFDEFINITIONS
350
10
3
ACAD_PDFDEFINITIONS
350
11
3
ACAD_MLINESTYLE
350
B
3
ACAD_IMAGE_DICT
350
E
3
ACAD_IMAGE_VARS
350
21
0
DICTIONARY
5
12
330
42
100
AcDbDictionary
280
1
281
1
0
DICTIONARY
5
3B
330
42
100
AcDbDictionary
280
1
281
1
3
Model
350
20
3
Layout1
350
3D
0
DICTIONARY
5
F
330
42
100
AcDbDictionary
280
1
281
1
0
DICTIONARY
5
10
330
42
100
AcDbDictionary
280
1
281
1
0
DICTIONARY
5
11
330
42
100
AcDbDictionary
280
1
281
1
0
DICTIONARY
5
B
330
42
100
AcDbDictionary
280
1
281
1
3
Standard
350
1B
0
DICTIONARY
5
E
330
42
100
AcDbDictionary
280
1
281
1
0
DICTIONARY
5
6
330
5
100
AcDbDictionary
280
1
281
1
3
ACAD_LAYERSTATES
360
43
0
DICTIONARY
5
43
330
6
100
AcDbDictionary
280
1
281
1
0
LAYOUT
5
20
330
3B
100
AcDbPlotSettings
1

2
none_device
4
ISO_A4_(210.00_x_297.00_MM)
6

40
7.5
41
20.0
42
7.5
43
20.0
44
210.0
45
297.0
46
0.0
47
0.0
48
0.0
49
0.0
140
0.0
141
0.0
142
1.0
143
1.0
70
11952
72
1
73
1
74
1
7

75
0
76
0
77
2
78
300
147
1.0
148
0.0
149
0.0
100
AcDbLayout
1
Model
71
0
10
-20.0
20
-7.5
11
277.0
21
202.5
12
0.0
22
0.0
32
0.0
14
25.7
24
19.5
34
0.0
15
231.3
25
175.5
35
0.0
146
0.0
13
0.0
23
0.0
33
0.0
16
1.0
26
0.0
36
0.0
17
0.0
27
1.0
37
0.0
76
0
330
1C
0
LAYOUT
5
3D
330
3B
100
AcDbPlotSettings
1

2
none_device
4
ISO_A4_(210.00_x_297.00_MM)
6

40
7.5
41
20.0
42
7.5
43
20.0
44
210.0
45
297.0
46
0.0
47
0.0
48
0.0
49
0.0
140
0.0
141
0.0
142
1.0
143
1.0
70
688
72
1
73
1
74
1
7

75
0
76
0
77
2
78
300
147
1.0
148
0.0
149
0.0
100
AcDbLayout
1
Layout1
71
1
10
-20.0
20
-7.5
11
277.0
21
202.5
12
0.0
22
0.0
32
0.0
14
25.7
24
19.5
34
0.0
15
231.3
25
175.5
35
0.0
146
0.0
13
0.0
23
0.0
33
0.0
16
1.0
26
0.0
36
0.0
17
0.0
27
1.0
37
0.0
76
0
330
38
0
MLINESTYLE
5
1B
330
B
100
AcDbMlineStyle
2
Standard
70
0
3

62
256
51
90.0
52
90.0
71
2
49
0.5
62
256
6
ByLayer
49
-0.5
62
256
6
ByLayer
0
RASTERVARIABLES
5
21
330
E
100
AcDbRasterVariables
90
0
70
1
71
1
72
0
0
ENDSEC
0
EOF
