999
DXF file generated by netDxf https://github.com/haplokuon/netDxf, Copyright(C) Daniel Carvajal, Licensed under MIT
0
SECTION
2
HEADER
9
$ACADVER
1
AC1015
9
$DWGCODEPAGE
3
ANSI_1252
9
$HANDSEED
5
44
9
$ANGBASE
50
0.0
9
$ANGDIR
70
0
9
$ATTMODE
70
1
9
$AUNITS
70
0
9
$AUPREC
70
0
9
$CECOLOR
62
256
9
$CELTSCALE
40
1.0
9
$CELTYPE
6
ByLayer
9
$CELWEIGHT
370
-1
9
$CLAYER
8
0
9
$CMLJUST
70
0
9
$CMLSCALE
40
20.0
9
$CMLSTYLE
2
Standard
9
$DIMSTYLE
2
Standard
9
$TEXTSIZE
40
2.5
9
$TEXTSTYLE
7
Standard
9
$LUNITS
70
2
9
$LUPREC
70
4
9
$MIRRTEXT
70
0
9
$EXTNAMES
290
1
9
$INSBASE
10
0.0
20
0.0
30
0.0
9
$INSUNITS
70
0
9
$LTSCALE
40
1.0
9
$LWDISPLAY
290
0
9
$PDMODE
70
0
9
$PDSIZE
40
0.0
9
$PLINEGEN
70
0
9
$PSLTSCALE
70
1
9
$SPLINESEGS
70
8
9
$SURFU
70
6
9
$SURFV
70
6
9
$TDCREATE
40
2460823.48365821
9
$TDUCREATE
40
2460823.15032487
9
$TDUPDATE
40
2460823.48365821
9
$TDUUPDATE
40
2460823.15032487
9
$TDINDWG
40
0.0
9
$UCSORG
10
0.0
20
0.0
30
0.0
9
$UCSXDIR
10
1.0
20
0.0
30
0.0
9
$UCSYDIR
10
0.0
20
1.0
30
0.0
9
$DIMADEC
70
0
9
$DIMALT
70
0
9
$DIMALTD
70
2
9
$DIMALTF
40
25.4
9
$DIMALTRND
40
0.0
9
$DIMALTTD
70
2
9
$DIMALTTZ
70
0
9
$DIMALTU
70
2
9
$DIMALTZ
70
0
9
$DIMAPOST
1

9
$DIMATFIT
70
3
9
$DIMAUNIT
70
0
9
$DIMASZ
40
0.18
9
$DIMAZIN
70
0
9
$DIMSAH
70
0
9
$DIMBLK
1

9
$DIMLDRBLK
1

9
$DIMCEN
40
0.09
9
$DIMCLRD
70
0
9
$DIMCLRE
70
0
9
$DIMCLRT
70
0
9
$DIMDEC
70
4
9
$DIMDLE
40
0.0
9
$DIMDLI
40
0.38
9
$DIMDSEP
70
46
9
$DIMEXE
40
0.18
9
$DIMEXO
40
0.0625
9
$DIMFXLON
70
0
9
$DIMFXL
40
1.0
9
$DIMGAP
40
0.09
9
$DIMJUST
70
0
9
$DIMLFAC
40
1.0
9
$DIMLUNIT
70
2
9
$DIMLWD
70
-2
9
$DIMLWE
70
-2
9
$DIMPOST
1

9
$DIMRND
40
0.0
9
$DIMSCALE
40
1.0
9
$DIMSD1
70
0
9
$DIMSD2
70
0
9
$DIMSE1
70
0
9
$DIMSE2
70
0
9
$DIMSOXD
70
0
9
$DIMTAD
70
0
9
$DIMTDEC
70
4
9
$DIMTFAC
40
1.0
9
$DIMTIH
70
0
9
$DIMTIX
70
0
9
$DIMTM
40
0.0
9
$DIMTMOVE
70
0
9
$DIMTOFL
70
0
9
$DIMTOH
70
0
9
$DIMTOL
70
0
9
$DIMLIM
70
0
9
$DIMTOLJ
70
1
9
$DIMTP
40
0.0
9
$DIMTXT
40
0.18
9
$DIMTXTDIRECTION
70
0
9
$DIMTZIN
70
0
9
$DIMZIN
70
0
9
$DIMFRAC
70
0
9
$DIMLTYPE
6
ByBlock
9
$DIMLTEX1
6
ByBlock
9
$DIMLTEX2
6
ByBlock
0
ENDSEC
0
SECTION
2
CLASSES
0
CLASS
1
RASTERVARIABLES
2
AcDbRasterVariables
3
ISM
90
0
280
0
281
0
0
ENDSEC
0
SECTION
2
TABLES
0
TABLE
2
APPID
5
4
330
0
100
AcDbSymbolTable
70
5
0
APPID
5
19
330
4
100
AcDbSymbolTableRecord
100
AcDbRegAppTableRecord
2
ACAD
70
0
0
APPID
5
3E
330
4
100
AcDbSymbolTableRecord
100
AcDbRegAppTableRecord
2
AcCmTransparency
70
0
0
APPID
5
3F
330
4
100
AcDbSymbolTableRecord
100
AcDbRegAppTableRecord
2
AcAecLayerStandard
70
0
0
APPID
5
40
330
4
100
AcDbSymbolTableRecord
100
AcDbRegAppTableRecord
2
GradientColor1ACI
70
0
0
APPID
5
41
330
4
100
AcDbSymbolTableRecord
100
AcDbRegAppTableRecord
2
GradientColor2ACI
70
0
0
ENDTAB
0
TABLE
2
VPORT
5
1
330
0
100
AcDbSymbolTable
70
1
0
VPORT
5
2
330
1
100
AcDbSymbolTableRecord
100
AcDbViewportTableRecord
2
*Active
70
0
10
0.0
20
0.0
11
1.0
21
1.0
12
0.0
22
0.0
13
0.0
23
0.0
14
0.5
24
0.5
15
10.0
25
10.0
16
0.0
26
0.0
36
1.0
17
0.0
27
0.0
37
0.0
40
10.0
41
1.0
75
0
76
1
0
ENDTAB
0
TABLE
2
LTYPE
5
7
330
0
100
AcDbSymbolTable
70
3
0
LTYPE
5
15
330
7
100
AcDbSymbolTableRecord
100
AcDbLinetypeTableRecord
2
Continuous
70
0
3
Solid line
72
65
73
0
40
0.0
0
LTYPE
5
16
330
7
100
AcDbSymbolTableRecord
100
AcDbLinetypeTableRecord
2
ByLayer
70
0
3

72
65
73
0
40
0.0
0
LTYPE
5
17
330
7
100
AcDbSymbolTableRecord
100
AcDbLinetypeTableRecord
2
ByBlock
70
0
3

72
65
73
0
40
0.0
0
ENDTAB
0
TABLE
2
LAYER
5
5
102
{ACAD_XDICTIONARY
360
6
102
}
330
0
100
AcDbSymbolTable
70
1
0
LAYER
5
14
330
5
100
AcDbSymbolTableRecord
100
AcDbLayerTableRecord
2
0
70
0
62
7
6
Continuous
290
1
370
-3
390
0
0
ENDTAB
0
TABLE
2
STYLE
5
8
330
0
100
AcDbSymbolTable
70
1
0
STYLE
5
18
330
8
100
AcDbSymbolTableRecord
100
AcDbTextStyleTableRecord
2
Standard
3
simplex.shx
70
0
71
0
40
0.0
41
1.0
42
0.0
50
0.0
0
ENDTAB
0
TABLE
2
DIMSTYLE
5
A
330
0
100
AcDbSymbolTable
70
1
100
AcDbDimStyleTable
0
DIMSTYLE
105
1A
330
A
100
AcDbSymbolTableRecord
100
AcDbDimStyleTableRecord
2
Standard
3

4

40
1.0
41
0.18
42
0.0625
43
0.38
44
0.18
45
0.0
46
0.0
47
0.0
48
0.0
49
1.0
70
0
71
0
72
0
73
0
74
0
75
0
76
0
77
0
78
0
79
0
140
0.18
141
0.09
143
25.4
144
1.0
146
1.0
147
0.09
148
0.0
170
0
171
2
172
0
174
0
175
0
176
0
177
0
178
0
179
0
271
4
272
4
273
2
274
2
275
0
276
0
277
2
278
46
279
0
280
0
281
0
282
0
283
1
284
0
285
0
286
0
289
3
290
0
294
0
340
18
173
0
345
17
346
17
347
17
371
-2
372
-2
0
ENDTAB
0
TABLE
2
VIEW
5
3
330
0
100
AcDbSymbolTable
70
0
0
ENDTAB
0
TABLE
2
UCS
5
C
330
0
100
AcDbSymbolTable
70
0
0
ENDTAB
0
TABLE
2
BLOCK_RECORD
5
D
330
0
100
AcDbSymbolTable
70
2
0
BLOCK_RECORD
5
1C
330
D
100
AcDbSymbolTableRecord
100
AcDbBlockTableRecord
2
*Model_Space
340
20
0
BLOCK_RECORD
5
38
330
D
100
AcDbSymbolTableRecord
100
AcDbBlockTableRecord
2
*Paper_Space
340
3D
0
ENDTAB
0
ENDSEC
0
SECTION
2
BLOCKS
0
BLOCK
5
1E
330
1C
100
AcDbEntity
67
0
8
0
100
AcDbBlockBegin
2
*Model_Space
70
0
10
0.0
20
0.0
30
0.0
3
*Model_Space
4

0
ENDBLK
5
1D
330
1C
100
AcDbEntity
8
0
100
AcDbBlockEnd
0
BLOCK
5
3A
330
38
100
AcDbEntity
67
1
8
0
100
AcDbBlockBegin
2
*Paper_Space
70
0
10
0.0
20
0.0
30
0.0
3
*Paper_Space
4

0
ENDBLK
5
39
330
38
100
AcDbEntity
8
0
100
AcDbBlockEnd
0
ENDSEC
0
SECTION
2
ENTITIES
0
LWPOLYLINE
5
22
330
1C
100
AcDbEntity
67
0
8
0
62
256
6
ByLayer
370
-1
48
1.0
60
0
100
AcDbPolyline
90
20
70
1
38
0.0
39
0.0
10
65.033203125
20
66.3868026733398
40
0.0
41
0.0
42
0.0
10
65.4897003173828
20
66.1781997680664
40
0.0
41
0.0
42
0.0
10
66.5017013549805
20
65.7263031005859
40
0.0
41
0.0
42
0.0
10
66.9168014526367
20
65.4981002807617
40
0.0
41
0.0
42
0.0
10
66.9577026367188
20
65.4729995727539
40
0.0
41
0.0
42
0.0
10
66.991096496582
20
65.4552993774414
40
0.0
41
0.0
42
0.0
10
67.4469985961914
20
65.1237030029297
40
0.0
41
0.0
42
0.0
10
67.489501953125
20
65.0949020385742
40
0.0
41
0.0
42
0.0
10
67.5770034790039
20
65.0009994506836
40
0.0
41
0.0
42
0.0
10
67.5988998413086
20
65.0009994506836
40
0.0
41
0.0
42
0.0
10
67.5988006591797
20
65.0115966796875
40
0.0
41
0.0
42
0.0
10
67.5054016113281
20
65.1118011474609
40
0.0
41
0.0
42
0.0
10
67.00830078125
20
65.4731979370117
40
0.0
41
0.0
42
0.0
10
66.9609985351562
20
65.5016021728516
40
0.0
41
0.0
42
0.0
10
66.5119018554688
20
65.7485961914062
40
0.0
41
0.0
42
0.0
10
65.5112991333008
20
66.1957015991211
40
0.0
41
0.0
42
0.0
10
65.0167007446289
20
66.4216995239258
40
0.0
41
0.0
42
0.0
10
65.0009994506836
20
66.4220962524414
40
0.0
41
0.0
42
0.0
10
65.0009002685547
20
66.3995971679688
40
0.0
41
0.0
42
0.0
10
65.033203125
20
66.3868026733398
40
0.0
41
0.0
42
0.0
210
0.0
220
0.0
230
1.0
0
LWPOLYLINE
5
23
330
1C
100
AcDbEntity
67
0
8
0
62
256
6
ByLayer
370
-1
48
1.0
60
0
100
AcDbPolyline
90
58
70
1
38
0.0
39
0.0
10
65.0009994506836
20
72.364501953125
40
0.0
41
0.0
42
0.0
10
65.4893035888672
20
72.0096969604492
40
0.0
41
0.0
42
0.0
10
65.9830017089844
20
71.863899230957
40
0.0
41
0.0
42
0.0
10
66.0154037475586
20
71.8638000488281
40
0.0
41
0.0
42
0.0
10
66.3154983520508
20
71.9999008178711
40
0.0
41
0.0
42
0.0
10
66.3349990844727
20
72.0034027099609
40
0.0
41
0.0
42
0.0
10
66.5044021606445
20
72.1038970947266
40
0.0
41
0.0
42
0.0
10
66.701301574707
20
72.450798034668
40
0.0
41
0.0
42
0.0
10
66.7388000488281
20
72.4917984008789
40
0.0
41
0.0
42
0.0
10
66.9504013061523
20
72.9453964233398
40
0.0
41
0.0
42
0.0
10
66.9573974609375
20
72.9557037353516
40
0.0
41
0.0
42
0.0
10
66.972297668457
20
72.9876022338867
40
0.0
41
0.0
42
0.0
10
66.9999008178711
20
73.0731964111328
40
0.0
41
0.0
42
0.0
10
67.0586013793945
20
73.2751007080078
40
0.0
41
0.0
42
0.0
10
67.1224975585938
20
73.484001159668
40
0.0
41
0.0
42
0.0
10
67.1605987548828
20
73.9359970092773
40
0.0
41
0.0
42
0.0
10
67.1616973876953
20
74.0175018310547
40
0.0
41
0.0
42
0.0
10
67.0496978759766
20
74.4683990478516
40
0.0
41
0.0
42
0.0
10
67.0325012207031
20
74.5108032226562
40
0.0
41
0.0
42
0.0
10
67.015998840332
20
74.5398025512695
40
0.0
41
0.0
42
0.0
10
66.9801025390625
20
74.5849990844727
40
0.0
41
0.0
42
0.0
10
66.7475967407227
20
75.0090026855469
40
0.0
41
0.0
42
0.0
10
66.5070037841797
20
75.3631973266602
40
0.0
41
0.0
42
0.0
10
66.5018997192383
20
75.3669967651367
40
0.0
41
0.0
42
0.0
10
66.0098037719727
20
75.8619003295898
40
0.0
41
0.0
42
0.0
10
65.5234985351562
20
75.9413986206055
40
0.0
41
0.0
42
0.0
10
65.486701965332
20
75.9404983520508
40
0.0
41
0.0
42
0.0
10
65.4670028686523
20
75.927001953125
40
0.0
41
0.0
42
0.0
10
65.0009994506836
20
75.6314010620117
40
0.0
41
0.0
42
0.0
10
65.0009994506836
20
75.5734024047852
40
0.0
41
0.0
42
0.0
10
65.0139007568359
20
75.5733032226562
40
0.0
41
0.0
42
0.0
10
65.2881011962891
20
75.747200012207
40
0.0
41
0.0
42
0.0
10
65.5114974975586
20
75.9009017944336
40
0.0
41
0.0
42
0.0
10
65.5469970703125
20
75.9084014892578
40
0.0
41
0.0
42
0.0
10
65.9870986938477
20
75.8364028930664
40
0.0
41
0.0
42
0.0
10
66.0003967285156
20
75.8286972045898
40
0.0
41
0.0
42
0.0
10
66.4552993774414
20
75.3709030151367
40
0.0
41
0.0
42
0.0
10
66.4929962158203
20
75.35009765625
40
0.0
41
0.0
42
0.0
10
66.5165023803711
20
75.3247985839844
40
0.0
41
0.0
42
0.0
10
66.7426986694336
20
74.9908981323242
40
0.0
41
0.0
42
0.0
10
66.9955978393555
20
74.529899597168
40
0.0
41
0.0
42
0.0
10
67.0204010009766
20
74.4879989624023
40
0.0
41
0.0
42
0.0
10
67.1446990966797
20
73.9908981323242
40
0.0
41
0.0
42
0.0
10
67.1047973632812
20
73.5160980224609
40
0.0
41
0.0
42
0.0
10
67.0
20
73.1574020385742
40
0.0
41
0.0
42
0.0
10
66.9532012939453
20
73.0122985839844
40
0.0
41
0.0
42
0.0
10
66.7177963256836
20
72.50830078125
40
0.0
41
0.0
42
0.0
10
66.7130966186523
20
72.5029983520508
40
0.0
41
0.0
42
0.0
10
66.4954986572266
20
72.1195983886719
40
0.0
41
0.0
42
0.0
10
66.2963027954102
20
72.0014038085938
40
0.0
41
0.0
42
0.0
10
66.2629013061523
20
71.9981994628906
40
0.0
41
0.0
42
0.0
10
65.997802734375
20
71.8778991699219
40
0.0
41
0.0
42
0.0
10
65.5549011230469
20
72.0078964233398
40
0.0
41
0.0
42
0.0
10
65.508903503418
20
72.0310974121094
40
0.0
41
0.0
42
0.0
10
65.0518035888672
20
72.3631973266602
40
0.0
41
0.0
42
0.0
10
65.0121002197266
20
72.3975982666016
40
0.0
41
0.0
42
0.0
10
65.0009994506836
20
72.3975982666016
40
0.0
41
0.0
42
0.0
10
65.0009994506836
20
72.364501953125
40
0.0
41
0.0
42
0.0
210
0.0
220
0.0
230
1.0
0
LWPOLYLINE
5
24
330
1C
100
AcDbEntity
67
0
8
0
62
256
6
ByLayer
370
-1
48
1.0
60
0
100
AcDbPolyline
90
20
70
1
38
0.0
39
0.0
10
65.0119018554688
20
82.4011001586914
40
0.0
41
0.0
42
0.0
10
65.1119003295898
20
82.4943008422852
40
0.0
41
0.0
42
0.0
10
65.4731979370117
20
82.9916000366211
40
0.0
41
0.0
42
0.0
10
65.5017013549805
20
83.0388031005859
40
0.0
41
0.0
42
0.0
10
65.7485961914062
20
83.4878997802734
40
0.0
41
0.0
42
0.0
10
66.1957015991211
20
84.4886016845703
40
0.0
41
0.0
42
0.0
10
66.4217987060547
20
84.9832000732422
40
0.0
41
0.0
42
0.0
10
66.4220962524414
20
84.9990005493164
40
0.0
41
0.0
42
0.0
10
66.3995971679688
20
84.9989013671875
40
0.0
41
0.0
42
0.0
10
66.3868026733398
20
84.9666976928711
40
0.0
41
0.0
42
0.0
10
66.1787033081055
20
84.5112991333008
40
0.0
41
0.0
42
0.0
10
65.7322998046875
20
83.5105972290039
40
0.0
41
0.0
42
0.0
10
65.4981002807617
20
83.0830993652344
40
0.0
41
0.0
42
0.0
10
65.4730987548828
20
83.0420989990234
40
0.0
41
0.0
42
0.0
10
65.4553985595703
20
83.0087966918945
40
0.0
41
0.0
42
0.0
10
65.1238021850586
20
82.5529022216797
40
0.0
41
0.0
42
0.0
10
65.0950012207031
20
82.5102996826172
40
0.0
41
0.0
42
0.0
10
65.0009994506836
20
82.4227981567383
40
0.0
41
0.0
42
0.0
10
65.0009002685547
20
82.4012985229492
40
0.0
41
0.0
42
0.0
10
65.0119018554688
20
82.4011001586914
40
0.0
41
0.0
42
0.0
210
0.0
220
0.0
230
1.0
0
LWPOLYLINE
5
25
330
1C
100
AcDbEntity
67
0
8
0
62
256
6
ByLayer
370
-1
48
1.0
60
0
100
AcDbPolyline
90
38
70
1
38
0.0
39
0.0
10
66.094596862793
20
79.9832992553711
40
0.0
41
0.0
42
0.0
10
66.2282028198242
20
79.4886016845703
40
0.0
41
0.0
42
0.0
10
66.4956970214844
20
79.0802993774414
40
0.0
41
0.0
42
0.0
10
66.8161010742188
20
79.0005035400391
40
0.0
41
0.0
42
0.0
10
66.9671020507812
20
78.9787979125977
40
0.0
41
0.0
42
0.0
10
66.9849014282227
20
78.970100402832
40
0.0
41
0.0
42
0.0
10
67.0193023681641
20
78.9700012207031
40
0.0
41
0.0
42
0.0
10
67.0612030029297
20
78.9728012084961
40
0.0
41
0.0
42
0.0
10
67.129997253418
20
78.9936981201172
40
0.0
41
0.0
42
0.0
10
67.5139999389648
20
79.0967025756836
40
0.0
41
0.0
42
0.0
10
67.5574035644531
20
79.1110992431641
40
0.0
41
0.0
42
0.0
10
68.0109024047852
20
79.3094024658203
40
0.0
41
0.0
42
0.0
10
68.0550994873047
20
79.3321990966797
40
0.0
41
0.0
42
0.0
10
68.3320007324219
20
79.4841003417969
40
0.0
41
0.0
42
0.0
10
68.5245971679688
20
79.6268005371094
40
0.0
41
0.0
42
0.0
10
68.8311004638672
20
79.9487991333008
40
0.0
41
0.0
42
0.0
10
68.8554992675781
20
79.9841995239258
40
0.0
41
0.0
42
0.0
10
69.0008010864258
20
80.258903503418
40
0.0
41
0.0
42
0.0
10
69.0727005004883
20
80.4412994384766
40
0.0
41
0.0
42
0.0
10
69.189697265625
20
80.9384002685547
40
0.0
41
0.0
42
0.0
10
69.1940002441406
20
80.9824981689453
40
0.0
41
0.0
42
0.0
10
69.2554016113281
20
81.4761962890625
40
0.0
41
0.0
42
0.0
10
69.2553024291992
20
81.5140991210938
40
0.0
41
0.0
42
0.0
10
69.217399597168
20
82.0077972412109
40
0.0
41
0.0
42
0.0
10
69.006103515625
20
82.3225021362305
40
0.0
41
0.0
42
0.0
10
68.568603515625
20
82.4951019287109
40
0.0
41
0.0
42
0.0
10
68.5177993774414
20
82.5056991577148
40
0.0
41
0.0
42
0.0
10
68.4803009033203
20
82.5055999755859
40
0.0
41
0.0
42
0.0
10
67.9825973510742
20
82.4899978637695
40
0.0
41
0.0
42
0.0
10
67.4862976074219
20
82.3772964477539
40
0.0
41
0.0
42
0.0
10
66.9897003173828
20
82.1737976074219
40
0.0
41
0.0
42
0.0
10
66.716796875
20
81.9984970092773
40
0.0
41
0.0
42
0.0
10
66.4990005493164
20
81.7817993164062
40
0.0
41
0.0
42
0.0
10
66.2976989746094
20
81.5052032470703
40
0.0
41
0.0
42
0.0
10
66.1280975341797
20
81.0102996826172
40
0.0
41
0.0
42
0.0
10
66.0691986083984
20
80.5186996459961
40
0.0
41
0.0
42
0.0
10
66.0690994262695
20
80.4757995605469
40
0.0
41
0.0
42
0.0
10
66.094596862793
20
79.9832992553711
40
0.0
41
0.0
42
0.0
210
0.0
220
0.0
230
1.0
0
LWPOLYLINE
5
26
330
1C
100
AcDbEntity
67
0
8
0
62
256
6
ByLayer
370
-1
48
1.0
60
0
100
AcDbPolyline
90
41
70
1
38
0.0
39
0.0
10
66.0877990722656
20
80.4815979003906
40
0.0
41
0.0
42
0.0
10
66.1424026489258
20
80.9391021728516
40
0.0
41
0.0
42
0.0
10
66.1557006835938
20
80.986198425293
40
0.0
41
0.0
42
0.0
10
66.3128967285156
20
81.4441986083984
40
0.0
41
0.0
42
0.0
10
66.3436965942383
20
81.4917984008789
40
0.0
41
0.0
42
0.0
10
66.5031967163086
20
81.7107009887695
40
0.0
41
0.0
42
0.0
10
66.5324020385742
20
81.747200012207
40
0.0
41
0.0
42
0.0
10
66.736701965332
20
81.9505004882812
40
0.0
41
0.0
42
0.0
10
66.7550964355469
20
81.9655990600586
40
0.0
41
0.0
42
0.0
10
67.0102005004883
20
82.1297988891602
40
0.0
41
0.0
42
0.0
10
67.380500793457
20
82.2809982299805
40
0.0
41
0.0
42
0.0
10
67.5130996704102
20
82.3406982421875
40
0.0
41
0.0
42
0.0
10
67.5600967407227
20
82.3524017333984
40
0.0
41
0.0
42
0.0
10
68.0168991088867
20
82.4561004638672
40
0.0
41
0.0
42
0.0
10
68.0659027099609
20
82.4560012817383
40
0.0
41
0.0
42
0.0
10
68.4870986938477
20
82.4699020385742
40
0.0
41
0.0
42
0.0
10
68.5363006591797
20
82.4592971801758
40
0.0
41
0.0
42
0.0
10
68.9570007324219
20
82.2947006225586
40
0.0
41
0.0
42
0.0
10
68.9946975708008
20
82.272102355957
40
0.0
41
0.0
42
0.0
10
69.1843032836914
20
81.9906997680664
40
0.0
41
0.0
42
0.0
10
69.2108001708984
20
81.9409027099609
40
0.0
41
0.0
42
0.0
10
69.2485961914062
20
81.4555969238281
40
0.0
41
0.0
42
0.0
10
69.1931991577148
20
81.0026016235352
40
0.0
41
0.0
42
0.0
10
69.076301574707
20
80.5086975097656
40
0.0
41
0.0
42
0.0
10
68.9990005493164
20
80.3113021850586
40
0.0
41
0.0
42
0.0
10
68.8348007202148
20
80.0025024414062
40
0.0
41
0.0
42
0.0
10
68.4959030151367
20
79.646598815918
40
0.0
41
0.0
42
0.0
10
68.299201965332
20
79.5007019042969
40
0.0
41
0.0
42
0.0
10
67.9891967773438
20
79.3305969238281
40
0.0
41
0.0
42
0.0
10
67.4918975830078
20
79.1131973266602
40
0.0
41
0.0
42
0.0
10
67.0702972412109
20
78.9997024536133
40
0.0
41
0.0
42
0.0
10
66.9987030029297
20
78.9781036376953
40
0.0
41
0.0
42
0.0
10
66.8517990112305
20
78.9992980957031
40
0.0
41
0.0
42
0.0
10
66.5341033935547
20
79.0774993896484
40
0.0
41
0.0
42
0.0
10
66.5024032592773
20
79.1071014404297
40
0.0
41
0.0
42
0.0
10
66.4922027587891
20
79.1303024291992
40
0.0
41
0.0
42
0.0
10
66.2431030273438
20
79.5111999511719
40
0.0
41
0.0
42
0.0
10
66.1187973022461
20
79.9701995849609
40
0.0
41
0.0
42
0.0
10
66.1099014282227
20
80.0174026489258
40
0.0
41
0.0
42
0.0
10
66.0869979858398
20
80.4592971801758
40
0.0
41
0.0
42
0.0
10
66.0877990722656
20
80.4815979003906
40
0.0
41
0.0
42
0.0
210
0.0
220
0.0
230
1.0
0
LWPOLYLINE
5
27
330
1C
100
AcDbEntity
67
0
8
0
62
256
6
ByLayer
370
-1
48
1.0
60
0
100
AcDbPolyline
90
39
70
1
38
0.0
39
0.0
10
67.5096969604492
20
67.9825973510742
40
0.0
41
0.0
42
0.0
10
67.6223983764648
20
67.4862976074219
40
0.0
41
0.0
42
0.0
10
67.8258972167969
20
66.9896011352539
40
0.0
41
0.0
42
0.0
10
67.996696472168
20
66.7233963012695
40
0.0
41
0.0
42
0.0
10
68.0072021484375
20
66.7116012573242
40
0.0
41
0.0
42
0.0
10
68.2219009399414
20
66.4959030151367
40
0.0
41
0.0
42
0.0
10
68.4940032958984
20
66.2979965209961
40
0.0
41
0.0
42
0.0
10
68.9896011352539
20
66.1280975341797
40
0.0
41
0.0
42
0.0
10
69.486198425293
20
66.0691986083984
40
0.0
41
0.0
42
0.0
10
69.5243988037109
20
66.0690994262695
40
0.0
41
0.0
42
0.0
10
70.0166015625
20
66.094596862793
40
0.0
41
0.0
42
0.0
10
70.5111999511719
20
66.2282028198242
40
0.0
41
0.0
42
0.0
10
70.9195022583008
20
66.4957962036133
40
0.0
41
0.0
42
0.0
10
70.9992980957031
20
66.8161010742188
40
0.0
41
0.0
42
0.0
10
71.0210037231445
20
66.9670028686523
40
0.0
41
0.0
42
0.0
10
71.0298004150391
20
66.9848022460938
40
0.0
41
0.0
42
0.0
10
71.0297012329102
20
67.0192031860352
40
0.0
41
0.0
42
0.0
10
71.0269012451172
20
67.0610961914062
40
0.0
41
0.0
42
0.0
10
71.0059967041016
20
67.129997253418
40
0.0
41
0.0
42
0.0
10
70.9029998779297
20
67.5139007568359
40
0.0
41
0.0
42
0.0
10
70.8886032104492
20
67.5574035644531
40
0.0
41
0.0
42
0.0
10
70.690299987793
20
68.0109024047852
40
0.0
41
0.0
42
0.0
10
70.6675033569336
20
68.0550003051758
40
0.0
41
0.0
42
0.0
10
70.5156021118164
20
68.3320007324219
40
0.0
41
0.0
42
0.0
10
70.3871002197266
20
68.5059967041016
40
0.0
41
0.0
42
0.0
10
70.0996017456055
20
68.7798004150391
40
0.0
41
0.0
42
0.0
10
70.0080032348633
20
68.8593978881836
40
0.0
41
0.0
42
0.0
10
69.7408981323242
20
69.0008010864258
40
0.0
41
0.0
42
0.0
10
69.5586013793945
20
69.0727005004883
40
0.0
41
0.0
42
0.0
10
69.0615005493164
20
69.189697265625
40
0.0
41
0.0
42
0.0
10
69.0176010131836
20
69.1940002441406
40
0.0
41
0.0
42
0.0
10
68.5236968994141
20
69.2554016113281
40
0.0
41
0.0
42
0.0
10
68.4858016967773
20
69.2553024291992
40
0.0
41
0.0
42
0.0
10
67.9921035766602
20
69.2174987792969
40
0.0
41
0.0
42
0.0
10
67.6772003173828
20
69.0062026977539
40
0.0
41
0.0
42
0.0
10
67.5046005249023
20
68.568603515625
40
0.0
41
0.0
42
0.0
10
67.4942016601562
20
68.5177993774414
40
0.0
41
0.0
42
0.0
10
67.4941024780273
20
68.4803009033203
40
0.0
41
0.0
42
0.0
10
67.5096969604492
20
67.9825973510742
40
0.0
41
0.0
42
0.0
210
0.0
220
0.0
230
1.0
0
LWPOLYLINE
5
28
330
1C
100
AcDbEntity
67
0
8
0
62
256
6
ByLayer
370
-1
48
1.0
60
0
100
AcDbPolyline
90
39
70
1
38
0.0
39
0.0
10
67.5298004150391
20
68.4871978759766
40
0.0
41
0.0
42
0.0
10
67.5404968261719
20
68.5363006591797
40
0.0
41
0.0
42
0.0
10
67.7050018310547
20
68.9570007324219
40
0.0
41
0.0
42
0.0
10
67.7276000976562
20
68.9947967529297
40
0.0
41
0.0
42
0.0
10
68.0091018676758
20
69.1844024658203
40
0.0
41
0.0
42
0.0
10
68.0589981079102
20
69.2108001708984
40
0.0
41
0.0
42
0.0
10
68.5442962646484
20
69.2485961914062
40
0.0
41
0.0
42
0.0
10
68.997200012207
20
69.1931991577148
40
0.0
41
0.0
42
0.0
10
69.4912033081055
20
69.076301574707
40
0.0
41
0.0
42
0.0
10
69.6884994506836
20
68.9990005493164
40
0.0
41
0.0
42
0.0
10
69.992301940918
20
68.8380966186523
40
0.0
41
0.0
42
0.0
10
70.3546981811523
20
68.493896484375
40
0.0
41
0.0
42
0.0
10
70.4990997314453
20
68.299201965332
40
0.0
41
0.0
42
0.0
10
70.6666030883789
20
67.9942016601562
40
0.0
41
0.0
42
0.0
10
70.8864974975586
20
67.4918975830078
40
0.0
41
0.0
42
0.0
10
71.0008010864258
20
67.0677032470703
40
0.0
41
0.0
42
0.0
10
71.021598815918
20
66.9987030029297
40
0.0
41
0.0
42
0.0
10
71.0005035400391
20
66.8518981933594
40
0.0
41
0.0
42
0.0
10
70.9222030639648
20
66.5341033935547
40
0.0
41
0.0
42
0.0
10
70.8927001953125
20
66.5024032592773
40
0.0
41
0.0
42
0.0
10
70.869499206543
20
66.492301940918
40
0.0
41
0.0
42
0.0
10
70.4887008666992
20
66.2431030273438
40
0.0
41
0.0
42
0.0
10
70.0297012329102
20
66.1187973022461
40
0.0
41
0.0
42
0.0
10
69.9824981689453
20
66.1099014282227
40
0.0
41
0.0
42
0.0
10
69.5406036376953
20
66.0869979858398
40
0.0
41
0.0
42
0.0
10
69.5183029174805
20
66.0876998901367
40
0.0
41
0.0
42
0.0
10
69.0607986450195
20
66.1424026489258
40
0.0
41
0.0
42
0.0
10
69.0137023925781
20
66.1556015014648
40
0.0
41
0.0
42
0.0
10
68.5557022094727
20
66.3127975463867
40
0.0
41
0.0
42
0.0
10
68.5080032348633
20
66.3436965942383
40
0.0
41
0.0
42
0.0
10
68.2881011962891
20
66.5038986206055
40
0.0
41
0.0
42
0.0
10
68.1128005981445
20
66.6799011230469
40
0.0
41
0.0
42
0.0
10
68.0030975341797
20
66.8025970458984
40
0.0
41
0.0
42
0.0
10
67.870002746582
20
67.0102005004883
40
0.0
41
0.0
42
0.0
10
67.7186965942383
20
67.3804016113281
40
0.0
41
0.0
42
0.0
10
67.6588973999023
20
67.5131988525391
40
0.0
41
0.0
42
0.0
10
67.5438003540039
20
68.0168991088867
40
0.0
41
0.0
42
0.0
10
67.543701171875
20
68.0659027099609
40
0.0
41
0.0
42
0.0
10
67.5298004150391
20
68.4871978759766
40
0.0
41
0.0
42
0.0
210
0.0
220
0.0
230
1.0
0
LWPOLYLINE
5
29
330
1C
100
AcDbEntity
67
0
8
0
62
256
6
ByLayer
370
-1
48
1.0
60
0
100
AcDbPolyline
90
163
70
1
38
0.0
39
0.0
10
69.5000991821289
20
74.3517990112305
40
0.0
41
0.0
42
0.0
10
69.5997009277344
20
73.9897003173828
40
0.0
41
0.0
42
0.0
10
69.9492034912109
20
73.6836013793945
40
0.0
41
0.0
42
0.0
10
69.9879989624023
20
73.6454010009766
40
0.0
41
0.0
42
0.0
10
70.2036972045898
20
73.4977035522461
40
0.0
41
0.0
42
0.0
10
70.4900970458984
20
73.331901550293
40
0.0
41
0.0
42
0.0
10
70.9749984741211
20
73.072998046875
40
0.0
41
0.0
42
0.0
10
71.1041030883789
20
72.9956970214844
40
0.0
41
0.0
42
0.0
10
71.1420974731445
20
72.9443969726562
40
0.0
41
0.0
42
0.0
10
71.2774963378906
20
72.4833984375
40
0.0
41
0.0
42
0.0
10
71.2785034179688
20
72.4613037109375
40
0.0
41
0.0
42
0.0
10
71.2422027587891
20
72.0190963745117
40
0.0
41
0.0
42
0.0
10
71.242301940918
20
71.9723968505859
40
0.0
41
0.0
42
0.0
10
71.2310028076172
20
71.5196990966797
40
0.0
41
0.0
42
0.0
10
71.2309036254883
20
71.4813003540039
40
0.0
41
0.0
42
0.0
10
71.2363967895508
20
71.4382019042969
40
0.0
41
0.0
42
0.0
10
71.318603515625
20
70.9873962402344
40
0.0
41
0.0
42
0.0
10
71.4781036376953
20
70.7199020385742
40
0.0
41
0.0
42
0.0
10
71.4963989257812
20
70.6820983886719
40
0.0
41
0.0
42
0.0
10
71.8735961914062
20
70.4996032714844
40
0.0
41
0.0
42
0.0
10
71.9453964233398
20
70.4796981811523
40
0.0
41
0.0
42
0.0
10
71.984001159668
20
70.4645004272461
40
0.0
41
0.0
42
0.0
10
72.0189971923828
20
70.4644012451172
40
0.0
41
0.0
42
0.0
10
72.2714996337891
20
70.4884033203125
40
0.0
41
0.0
42
0.0
10
72.5161972045898
20
70.5081024169922
40
0.0
41
0.0
42
0.0
10
73.0578002929688
20
70.6632995605469
40
0.0
41
0.0
42
0.0
10
73.5094985961914
20
70.8134002685547
40
0.0
41
0.0
42
0.0
10
73.9897994995117
20
70.7484970092773
40
0.0
41
0.0
42
0.0
10
74.0046997070312
20
70.7335968017578
40
0.0
41
0.0
42
0.0
10
74.1962966918945
20
70.4936981201172
40
0.0
41
0.0
42
0.0
10
74.4585037231445
20
70.2180023193359
40
0.0
41
0.0
42
0.0
10
74.4944000244141
20
70.1865997314453
40
0.0
41
0.0
42
0.0
10
74.6720962524414
20
69.9945983886719
40
0.0
41
0.0
42
0.0
10
74.992301940918
20
69.6875
40
0.0
41
0.0
42
0.0
10
75.0168991088867
20
69.6747970581055
40
0.0
41
0.0
42
0.0
10
75.431396484375
20
69.4988021850586
40
0.0
41
0.0
42
0.0
10
75.4737014770508
20
69.4766006469727
40
0.0
41
0.0
42
0.0
10
75.4863967895508
20
69.4682006835938
40
0.0
41
0.0
42
0.0
10
75.5186996459961
20
69.4681015014648
40
0.0
41
0.0
42
0.0
10
75.5606002807617
20
69.4729995727539
40
0.0
41
0.0
42
0.0
10
75.6480026245117
20
69.5000991821289
40
0.0
41
0.0
42
0.0
10
76.0101013183594
20
69.5997009277344
40
0.0
41
0.0
42
0.0
10
76.3162002563477
20
69.9492034912109
40
0.0
41
0.0
42
0.0
10
76.3544006347656
20
69.9880981445312
40
0.0
41
0.0
42
0.0
10
76.502197265625
20
70.2037963867188
40
0.0
41
0.0
42
0.0
10
76.6678009033203
20
70.4901962280273
40
0.0
41
0.0
42
0.0
10
76.9266967773438
20
70.9749984741211
40
0.0
41
0.0
42
0.0
10
77.0040969848633
20
71.1041030883789
40
0.0
41
0.0
42
0.0
10
77.0554962158203
20
71.1420974731445
40
0.0
41
0.0
42
0.0
10
77.5165023803711
20
71.2776031494141
40
0.0
41
0.0
42
0.0
10
77.5385971069336
20
71.2785034179688
40
0.0
41
0.0
42
0.0
10
77.9807968139648
20
71.2422027587891
40
0.0
41
0.0
42
0.0
10
78.0274963378906
20
71.242301940918
40
0.0
41
0.0
42
0.0
10
78.4802017211914
20
71.2310028076172
40
0.0
41
0.0
42
0.0
10
78.5186004638672
20
71.2309036254883
40
0.0
41
0.0
42
0.0
10
78.5616989135742
20
71.2365036010742
40
0.0
41
0.0
42
0.0
10
79.0124969482422
20
71.318603515625
40
0.0
41
0.0
42
0.0
10
79.279899597168
20
71.4782028198242
40
0.0
41
0.0
42
0.0
10
79.3162994384766
20
71.4956970214844
40
0.0
41
0.0
42
0.0
10
79.5001983642578
20
71.8735961914062
40
0.0
41
0.0
42
0.0
10
79.5202026367188
20
71.9453964233398
40
0.0
41
0.0
42
0.0
10
79.535400390625
20
71.9839019775391
40
0.0
41
0.0
42
0.0
10
79.5353012084961
20
72.0188980102539
40
0.0
41
0.0
42
0.0
10
79.5112991333008
20
72.2714996337891
40
0.0
41
0.0
42
0.0
10
79.4916000366211
20
72.5161972045898
40
0.0
41
0.0
42
0.0
10
79.3490982055664
20
73.0137023925781
40
0.0
41
0.0
42
0.0
10
79.1978988647461
20
73.4686965942383
40
0.0
41
0.0
42
0.0
10
79.1873016357422
20
73.5055999755859
40
0.0
41
0.0
42
0.0
10
79.2461013793945
20
73.9373016357422
40
0.0
41
0.0
42
0.0
10
79.2508010864258
20
73.989501953125
40
0.0
41
0.0
42
0.0
10
79.2660980224609
20
74.0046997070312
40
0.0
41
0.0
42
0.0
10
79.506103515625
20
74.196403503418
40
0.0
41
0.0
42
0.0
10
79.7817001342773
20
74.4585037231445
40
0.0
41
0.0
42
0.0
10
79.813102722168
20
74.494499206543
40
0.0
41
0.0
42
0.0
10
80.0052032470703
20
74.6722030639648
40
0.0
41
0.0
42
0.0
10
80.3122024536133
20
74.992301940918
40
0.0
41
0.0
42
0.0
10
80.3248977661133
20
75.0168991088867
40
0.0
41
0.0
42
0.0
10
80.5009994506836
20
75.431396484375
40
0.0
41
0.0
42
0.0
10
80.5232009887695
20
75.4737014770508
40
0.0
41
0.0
42
0.0
10
80.5317001342773
20
75.4862976074219
40
0.0
41
0.0
42
0.0
10
80.5316009521484
20
75.5186996459961
40
0.0
41
0.0
42
0.0
10
80.5267028808594
20
75.5606002807617
40
0.0
41
0.0
42
0.0
10
80.4997024536133
20
75.6479034423828
40
0.0
41
0.0
42
0.0
10
80.4004974365234
20
76.0082015991211
40
0.0
41
0.0
42
0.0
10
80.0712966918945
20
76.2963027954102
40
0.0
41
0.0
42
0.0
10
80.0065994262695
20
76.3579025268555
40
0.0
41
0.0
42
0.0
10
79.7959976196289
20
76.5020980834961
40
0.0
41
0.0
42
0.0
10
79.5096969604492
20
76.6677017211914
40
0.0
41
0.0
42
0.0
10
79.0248031616211
20
76.9266967773438
40
0.0
41
0.0
42
0.0
10
78.8956985473633
20
77.0040969848633
40
0.0
41
0.0
42
0.0
10
78.8575973510742
20
77.0553970336914
40
0.0
41
0.0
42
0.0
10
78.7242965698242
20
77.5091018676758
40
0.0
41
0.0
42
0.0
10
78.7593002319336
20
77.9356002807617
40
0.0
41
0.0
42
0.0
10
78.7581024169922
20
78.0046997070312
40
0.0
41
0.0
42
0.0
10
78.7688980102539
20
78.4352035522461
40
0.0
41
0.0
42
0.0
10
78.768798828125
20
78.5179977416992
40
0.0
41
0.0
42
0.0
10
78.6860961914062
20
78.9717025756836
40
0.0
41
0.0
42
0.0
10
78.6808013916016
20
79.0129013061523
40
0.0
41
0.0
42
0.0
10
78.521598815918
20
79.279899597168
40
0.0
41
0.0
42
0.0
10
78.5042037963867
20
79.3162994384766
40
0.0
41
0.0
42
0.0
10
78.1260986328125
20
79.5001983642578
40
0.0
41
0.0
42
0.0
10
78.0542984008789
20
79.5201034545898
40
0.0
41
0.0
42
0.0
10
78.015998840332
20
79.535400390625
40
0.0
41
0.0
42
0.0
10
77.9810028076172
20
79.5353012084961
40
0.0
41
0.0
42
0.0
10
77.7283020019531
20
79.5112991333008
40
0.0
41
0.0
42
0.0
10
77.4837036132812
20
79.4916000366211
40
0.0
41
0.0
42
0.0
10
76.986198425293
20
79.3490982055664
40
0.0
41
0.0
42
0.0
10
76.5311965942383
20
79.197998046875
40
0.0
41
0.0
42
0.0
10
76.4943008422852
20
79.1872024536133
40
0.0
41
0.0
42
0.0
10
76.0625991821289
20
79.2461013793945
40
0.0
41
0.0
42
0.0
10
76.0103988647461
20
79.2507019042969
40
0.0
41
0.0
42
0.0
10
75.9951019287109
20
79.2660980224609
40
0.0
41
0.0
42
0.0
10
75.8032989501953
20
79.506103515625
40
0.0
41
0.0
42
0.0
10
75.5412979125977
20
79.7817001342773
40
0.0
41
0.0
42
0.0
10
75.5054016113281
20
79.813102722168
40
0.0
41
0.0
42
0.0
10
75.3275985717773
20
80.0052032470703
40
0.0
41
0.0
42
0.0
10
75.0075988769531
20
80.3121032714844
40
0.0
41
0.0
42
0.0
10
74.9829025268555
20
80.3247985839844
40
0.0
41
0.0
42
0.0
10
74.5682983398438
20
80.5009002685547
40
0.0
41
0.0
42
0.0
10
74.5260009765625
20
80.5231018066406
40
0.0
41
0.0
42
0.0
10
74.5134963989258
20
80.5317001342773
40
0.0
41
0.0
42
0.0
10
74.481201171875
20
80.5316009521484
40
0.0
41
0.0
42
0.0
10
74.4393005371094
20
80.5268020629883
40
0.0
41
0.0
42
0.0
10
74.3517990112305
20
80.4998016357422
40
0.0
41
0.0
42
0.0
10
73.9916000366211
20
80.4004974365234
40
0.0
41
0.0
42
0.0
10
73.7033996582031
20
80.0712966918945
40
0.0
41
0.0
42
0.0
10
73.6417999267578
20
80.0066986083984
40
0.0
41
0.0
42
0.0
10
73.4977035522461
20
79.7960968017578
40
0.0
41
0.0
42
0.0
10
73.3320007324219
20
79.5096969604492
40
0.0
41
0.0
42
0.0
10
73.072998046875
20
79.0248031616211
40
0.0
41
0.0
42
0.0
10
72.9957962036133
20
78.8956985473633
40
0.0
41
0.0
42
0.0
10
72.9445037841797
20
78.8575973510742
40
0.0
41
0.0
42
0.0
10
72.4907989501953
20
78.7242965698242
40
0.0
41
0.0
42
0.0
10
72.0643005371094
20
78.7593002319336
40
0.0
41
0.0
42
0.0
10
71.9952011108398
20
78.7581024169922
40
0.0
41
0.0
42
0.0
10
71.564697265625
20
78.7688980102539
40
0.0
41
0.0
42
0.0
10
71.4819030761719
20
78.768798828125
40
0.0
41
0.0
42
0.0
10
71.0281982421875
20
78.6860961914062
40
0.0
41
0.0
42
0.0
10
70.9869995117188
20
78.6809005737305
40
0.0
41
0.0
42
0.0
10
70.7199020385742
20
78.521598815918
40
0.0
41
0.0
42
0.0
10
70.6836013793945
20
78.5042037963867
40
0.0
41
0.0
42
0.0
10
70.4997024536133
20
78.1261978149414
40
0.0
41
0.0
42
0.0
10
70.4796981811523
20
78.0542984008789
40
0.0
41
0.0
42
0.0
10
70.4645004272461
20
78.0158996582031
40
0.0
41
0.0
42
0.0
10
70.4644012451172
20
77.9809036254883
40
0.0
41
0.0
42
0.0
10
70.4884033203125
20
77.7283020019531
40
0.0
41
0.0
42
0.0
10
70.5081024169922
20
77.4837036132812
40
0.0
41
0.0
42
0.0
10
70.6632995605469
20
76.9419021606445
40
0.0
41
0.0
42
0.0
10
70.8134002685547
20
76.4904022216797
40
0.0
41
0.0
42
0.0
10
70.7485961914062
20
76.0100021362305
40
0.0
41
0.0
42
0.0
10
70.7337036132812
20
75.9952011108398
40
0.0
41
0.0
42
0.0
10
70.4937973022461
20
75.8033981323242
40
0.0
41
0.0
42
0.0
10
70.2181015014648
20
75.5413970947266
40
0.0
41
0.0
42
0.0
10
70.1866989135742
20
75.505500793457
40
0.0
41
0.0
42
0.0
10
69.9946975708008
20
75.3275985717773
40
0.0
41
0.0
42
0.0
10
69.6875991821289
20
75.0075988769531
40
0.0
41
0.0
42
0.0
10
69.6748962402344
20
74.9829025268555
40
0.0
41
0.0
42
0.0
10
69.4989013671875
20
74.5683975219727
40
0.0
41
0.0
42
0.0
10
69.4766998291016
20
74.5260009765625
40
0.0
41
0.0
42
0.0
10
69.4682006835938
20
74.5134963989258
40
0.0
41
0.0
42
0.0
10
69.4681015014648
20
74.4811019897461
40
0.0
41
0.0
42
0.0
10
69.4725036621094
20
74.4421997070312
40
0.0
41
0.0
42
0.0
10
69.5000991821289
20
74.3517990112305
40
0.0
41
0.0
42
0.0
210
0.0
220
0.0
230
1.0
0
LWPOLYLINE
5
2A
330
1C
100
AcDbEntity
67
0
8
0
62
256
6
ByLayer
370
-1
48
1.0
60
0
100
AcDbPolyline
90
109
70
1
38
0.0
39
0.0
10
69.4800033569336
20
74.495002746582
40
0.0
41
0.0
42
0.0
10
69.5009002685547
20
74.5348968505859
40
0.0
41
0.0
42
0.0
10
69.6950988769531
20
74.99169921875
40
0.0
41
0.0
42
0.0
10
70.004997253418
20
75.3147964477539
40
0.0
41
0.0
42
0.0
10
70.1990966796875
20
75.4936981201172
40
0.0
41
0.0
42
0.0
10
70.506103515625
20
75.7863006591797
40
0.0
41
0.0
42
0.0
10
70.7620010375977
20
75.991096496582
40
0.0
41
0.0
42
0.0
10
70.8283004760742
20
76.4763031005859
40
0.0
41
0.0
42
0.0
10
70.8285980224609
20
76.5166015625
40
0.0
41
0.0
42
0.0
10
70.6650009155273
20
77.0086975097656
40
0.0
41
0.0
42
0.0
10
70.5190963745117
20
77.5161972045898
40
0.0
41
0.0
42
0.0
10
70.4974975585938
20
77.7862014770508
40
0.0
41
0.0
42
0.0
10
70.4777984619141
20
77.9905014038086
40
0.0
41
0.0
42
0.0
10
70.5001983642578
20
78.0708999633789
40
0.0
41
0.0
42
0.0
10
70.7053985595703
20
78.4947967529297
40
0.0
41
0.0
42
0.0
10
71.0124969482422
20
78.6772003173828
40
0.0
41
0.0
42
0.0
10
71.5140991210938
20
78.7684020996094
40
0.0
41
0.0
42
0.0
10
71.9885025024414
20
78.7566986083984
40
0.0
41
0.0
42
0.0
10
72.480598449707
20
78.7164001464844
40
0.0
41
0.0
42
0.0
10
72.5168991088867
20
78.7163009643555
40
0.0
41
0.0
42
0.0
10
73.0044021606445
20
78.8595962524414
40
0.0
41
0.0
42
0.0
10
73.0830001831055
20
78.9918975830078
40
0.0
41
0.0
42
0.0
10
73.3494033813477
20
79.4901962280273
40
0.0
41
0.0
42
0.0
10
73.5020980834961
20
79.7545013427734
40
0.0
41
0.0
42
0.0
10
73.6651992797852
20
79.9927978515625
40
0.0
41
0.0
42
0.0
10
74.00830078125
20
80.3841018676758
40
0.0
41
0.0
42
0.0
10
74.42919921875
20
80.5000991821289
40
0.0
41
0.0
42
0.0
10
74.495002746582
20
80.5196990966797
40
0.0
41
0.0
42
0.0
10
74.534797668457
20
80.4989013671875
40
0.0
41
0.0
42
0.0
10
74.99169921875
20
80.3046035766602
40
0.0
41
0.0
42
0.0
10
75.3147964477539
20
79.9945983886719
40
0.0
41
0.0
42
0.0
10
75.4935989379883
20
79.8005981445312
40
0.0
41
0.0
42
0.0
10
75.7862014770508
20
79.4936981201172
40
0.0
41
0.0
42
0.0
10
75.991096496582
20
79.2377014160156
40
0.0
41
0.0
42
0.0
10
76.4813995361328
20
79.1710968017578
40
0.0
41
0.0
42
0.0
10
76.5166015625
20
79.1709976196289
40
0.0
41
0.0
42
0.0
10
77.013801574707
20
79.3360977172852
40
0.0
41
0.0
42
0.0
10
77.5161972045898
20
79.480598449707
40
0.0
41
0.0
42
0.0
10
77.7862014770508
20
79.502197265625
40
0.0
41
0.0
42
0.0
10
77.9905014038086
20
79.5218963623047
40
0.0
41
0.0
42
0.0
10
78.0708999633789
20
79.4997024536133
40
0.0
41
0.0
42
0.0
10
78.4946975708008
20
79.2944030761719
40
0.0
41
0.0
42
0.0
10
78.6772003173828
20
78.9873962402344
40
0.0
41
0.0
42
0.0
10
78.7684020996094
20
78.4858016967773
40
0.0
41
0.0
42
0.0
10
78.7566986083984
20
78.0112991333008
40
0.0
41
0.0
42
0.0
10
78.7164001464844
20
77.5192031860352
40
0.0
41
0.0
42
0.0
10
78.7163009643555
20
77.4830017089844
40
0.0
41
0.0
42
0.0
10
78.8595962524414
20
76.9953002929688
40
0.0
41
0.0
42
0.0
10
78.9917984008789
20
76.9167022705078
40
0.0
41
0.0
42
0.0
10
79.4900970458984
20
76.6502990722656
40
0.0
41
0.0
42
0.0
10
79.7544021606445
20
76.4977035522461
40
0.0
41
0.0
42
0.0
10
79.9927978515625
20
76.3345031738281
40
0.0
41
0.0
42
0.0
10
80.3841018676758
20
75.9916000366211
40
0.0
41
0.0
42
0.0
10
80.5000991821289
20
75.5705032348633
40
0.0
41
0.0
42
0.0
10
80.5197982788086
20
75.5047988891602
40
0.0
41
0.0
42
0.0
10
80.4990005493164
20
75.4648971557617
40
0.0
41
0.0
42
0.0
10
80.3047027587891
20
75.0082015991211
40
0.0
41
0.0
42
0.0
10
79.9946975708008
20
74.6848983764648
40
0.0
41
0.0
42
0.0
10
79.7991027832031
20
74.5046997070312
40
0.0
41
0.0
42
0.0
10
79.4937973022461
20
74.2135009765625
40
0.0
41
0.0
42
0.0
10
79.2377014160156
20
74.0087966918945
40
0.0
41
0.0
42
0.0
10
79.1710968017578
20
73.5185012817383
40
0.0
41
0.0
42
0.0
10
79.1709976196289
20
73.4832992553711
40
0.0
41
0.0
42
0.0
10
79.3359985351562
20
72.9860992431641
40
0.0
41
0.0
42
0.0
10
79.480598449707
20
72.4837036132812
40
0.0
41
0.0
42
0.0
10
79.502197265625
20
72.2136001586914
40
0.0
41
0.0
42
0.0
10
79.5218963623047
20
72.0093002319336
40
0.0
41
0.0
42
0.0
10
79.4996032714844
20
71.9289016723633
40
0.0
41
0.0
42
0.0
10
79.2944030761719
20
71.5050964355469
40
0.0
41
0.0
42
0.0
10
78.9873962402344
20
71.3225021362305
40
0.0
41
0.0
42
0.0
10
78.4877014160156
20
71.2313995361328
40
0.0
41
0.0
42
0.0
10
78.0186996459961
20
71.2429962158203
40
0.0
41
0.0
42
0.0
10
77.5241012573242
20
71.2835998535156
40
0.0
41
0.0
42
0.0
10
77.4830017089844
20
71.2834014892578
40
0.0
41
0.0
42
0.0
10
76.9953002929688
20
71.1400985717773
40
0.0
41
0.0
42
0.0
10
76.9168014526367
20
71.0078964233398
40
0.0
41
0.0
42
0.0
10
76.6503982543945
20
70.5098037719727
40
0.0
41
0.0
42
0.0
10
76.4977035522461
20
70.2453994750977
40
0.0
41
0.0
42
0.0
10
76.334098815918
20
70.0065002441406
40
0.0
41
0.0
42
0.0
10
75.9922027587891
20
69.6162033081055
40
0.0
41
0.0
42
0.0
10
75.5706024169922
20
69.4997024536133
40
0.0
41
0.0
42
0.0
10
75.5047988891602
20
69.4798965454102
40
0.0
41
0.0
42
0.0
10
75.4648971557617
20
69.5009002685547
40
0.0
41
0.0
42
0.0
10
75.0081024169922
20
69.6950988769531
40
0.0
41
0.0
42
0.0
10
74.6849975585938
20
70.004997253418
40
0.0
41
0.0
42
0.0
10
74.5046005249023
20
70.2005996704102
40
0.0
41
0.0
42
0.0
10
74.2135009765625
20
70.506103515625
40
0.0
41
0.0
42
0.0
10
74.0086975097656
20
70.7620010375977
40
0.0
41
0.0
42
0.0
10
73.5234985351562
20
70.8283004760742
40
0.0
41
0.0
42
0.0
10
73.4832000732422
20
70.8286972045898
40
0.0
41
0.0
42
0.0
10
72.9912033081055
20
70.6651000976562
40
0.0
41
0.0
42
0.0
10
72.4837036132812
20
70.5190963745117
40
0.0
41
0.0
42
0.0
10
72.2136001586914
20
70.4974975585938
40
0.0
41
0.0
42
0.0
10
72.0093002319336
20
70.4777984619141
40
0.0
41
0.0
42
0.0
10
71.9289016723633
20
70.5000991821289
40
0.0
41
0.0
42
0.0
10
71.5050964355469
20
70.7052993774414
40
0.0
41
0.0
42
0.0
10
71.3225021362305
20
71.0123977661133
40
0.0
41
0.0
42
0.0
10
71.2313995361328
20
71.5121002197266
40
0.0
41
0.0
42
0.0
10
71.2429962158203
20
71.9811019897461
40
0.0
41
0.0
42
0.0
10
71.2835998535156
20
72.4757995605469
40
0.0
41
0.0
42
0.0
10
71.2834014892578
20
72.5168991088867
40
0.0
41
0.0
42
0.0
10
71.1400985717773
20
73.0044021606445
40
0.0
41
0.0
42
0.0
10
71.0078964233398
20
73.0830001831055
40
0.0
41
0.0
42
0.0
10
70.5096969604492
20
73.3492965698242
40
0.0
41
0.0
42
0.0
10
70.2453002929688
20
73.5020980834961
40
0.0
41
0.0
42
0.0
10
70.0064010620117
20
73.6656036376953
40
0.0
41
0.0
42
0.0
10
69.6156005859375
20
74.00830078125
40
0.0
41
0.0
42
0.0
10
69.4957962036133
20
74.4419021606445
40
0.0
41
0.0
42
0.0
10
69.4800033569336
20
74.495002746582
40
0.0
41
0.0
42
0.0
210
0.0
220
0.0
230
1.0
0
LWPOLYLINE
5
2B
330
1C
100
AcDbEntity
67
0
8
0
62
256
6
ByLayer
370
-1
48
1.0
60
0
100
AcDbPolyline
90
59
70
1
38
0.0
39
0.0
10
71.9999008178711
20
83.6843032836914
40
0.0
41
0.0
42
0.0
10
72.003303527832
20
83.6648025512695
40
0.0
41
0.0
42
0.0
10
72.1037979125977
20
83.4953994750977
40
0.0
41
0.0
42
0.0
10
72.4506988525391
20
83.2984008789062
40
0.0
41
0.0
42
0.0
10
72.49169921875
20
83.2610015869141
40
0.0
41
0.0
42
0.0
10
72.9452972412109
20
83.0493011474609
40
0.0
41
0.0
42
0.0
10
72.9555969238281
20
83.0422973632812
40
0.0
41
0.0
42
0.0
10
72.9876022338867
20
83.0274963378906
40
0.0
41
0.0
42
0.0
10
73.0731964111328
20
83.0
40
0.0
41
0.0
42
0.0
10
73.2750015258789
20
82.9411010742188
40
0.0
41
0.0
42
0.0
10
73.4833984375
20
82.8772964477539
40
0.0
41
0.0
42
0.0
10
73.5261001586914
20
82.8761978149414
40
0.0
41
0.0
42
0.0
10
73.9807968139648
20
82.8380966186523
40
0.0
41
0.0
42
0.0
10
74.0158004760742
20
82.8379974365234
40
0.0
41
0.0
42
0.0
10
74.0585021972656
20
82.8553009033203
40
0.0
41
0.0
42
0.0
10
74.5121002197266
20
82.9680023193359
40
0.0
41
0.0
42
0.0
10
74.5399017333984
20
82.9837036132812
40
0.0
41
0.0
42
0.0
10
74.5850982666016
20
83.0195999145508
40
0.0
41
0.0
42
0.0
10
75.0090026855469
20
83.2520980834961
40
0.0
41
0.0
42
0.0
10
75.3631973266602
20
83.4927978515625
40
0.0
41
0.0
42
0.0
10
75.3669967651367
20
83.4979019165039
40
0.0
41
0.0
42
0.0
10
75.8615036010742
20
83.9891967773438
40
0.0
41
0.0
42
0.0
10
75.9414978027344
20
84.4766998291016
40
0.0
41
0.0
42
0.0
10
75.9414978027344
20
84.5117034912109
40
0.0
41
0.0
42
0.0
10
75.927001953125
20
84.5326995849609
40
0.0
41
0.0
42
0.0
10
75.6314010620117
20
84.9990005493164
40
0.0
41
0.0
42
0.0
10
75.5734024047852
20
84.9990005493164
40
0.0
41
0.0
42
0.0
10
75.5733032226562
20
84.9860000610352
40
0.0
41
0.0
42
0.0
10
75.7471008300781
20
84.7117004394531
40
0.0
41
0.0
42
0.0
10
75.9009017944336
20
84.4884033203125
40
0.0
41
0.0
42
0.0
10
75.9084014892578
20
84.4529037475586
40
0.0
41
0.0
42
0.0
10
75.8365020751953
20
84.0128021240234
40
0.0
41
0.0
42
0.0
10
75.8287963867188
20
83.999397277832
40
0.0
41
0.0
42
0.0
10
75.3709030151367
20
83.5445022583008
40
0.0
41
0.0
42
0.0
10
75.35009765625
20
83.5068969726562
40
0.0
41
0.0
42
0.0
10
75.3248977661133
20
83.4832000732422
40
0.0
41
0.0
42
0.0
10
74.9909973144531
20
83.2570037841797
40
0.0
41
0.0
42
0.0
10
74.529899597168
20
83.0040969848633
40
0.0
41
0.0
42
0.0
10
74.4879989624023
20
82.9793014526367
40
0.0
41
0.0
42
0.0
10
73.9893035888672
20
82.8554000854492
40
0.0
41
0.0
42
0.0
10
73.5160980224609
20
82.8948974609375
40
0.0
41
0.0
42
0.0
10
73.1574020385742
20
82.9998016357422
40
0.0
41
0.0
42
0.0
10
73.0121994018555
20
83.046501159668
40
0.0
41
0.0
42
0.0
10
72.5082015991211
20
83.2818984985352
40
0.0
41
0.0
42
0.0
10
72.5028991699219
20
83.2866973876953
40
0.0
41
0.0
42
0.0
10
72.119499206543
20
83.5045013427734
40
0.0
41
0.0
42
0.0
10
72.0014038085938
20
83.703498840332
40
0.0
41
0.0
42
0.0
10
71.9981994628906
20
83.7369003295898
40
0.0
41
0.0
42
0.0
10
71.8779983520508
20
84.0019989013672
40
0.0
41
0.0
42
0.0
10
72.0078964233398
20
84.4449005126953
40
0.0
41
0.0
42
0.0
10
72.0311965942383
20
84.4908981323242
40
0.0
41
0.0
42
0.0
10
72.3631973266602
20
84.947998046875
40
0.0
41
0.0
42
0.0
10
72.3975982666016
20
84.9878005981445
40
0.0
41
0.0
42
0.0
10
72.3975982666016
20
84.9990005493164
40
0.0
41
0.0
42
0.0
10
72.364501953125
20
84.9990005493164
40
0.0
41
0.0
42
0.0
10
72.0096969604492
20
84.510498046875
40
0.0
41
0.0
42
0.0
10
71.863899230957
20
84.0168991088867
40
0.0
41
0.0
42
0.0
10
71.8638000488281
20
83.9845962524414
40
0.0
41
0.0
42
0.0
10
71.9999008178711
20
83.6843032836914
40
0.0
41
0.0
42
0.0
210
0.0
220
0.0
230
1.0
0
LWPOLYLINE
5
2C
330
1C
100
AcDbEntity
67
0
8
0
62
256
6
ByLayer
370
-1
48
1.0
60
0
100
AcDbPolyline
90
75
70
1
38
0.0
39
0.0
10
72.9567031860352
20
75.2138977050781
40
0.0
41
0.0
42
0.0
10
72.9918975830078
20
75.1843032836914
40
0.0
41
0.0
42
0.0
10
73.0054016113281
20
75.1766967773438
40
0.0
41
0.0
42
0.0
10
73.230598449707
20
74.99169921875
40
0.0
41
0.0
42
0.0
10
73.1811981201172
20
74.5131988525391
40
0.0
41
0.0
42
0.0
10
72.997200012207
20
74.2023010253906
40
0.0
41
0.0
42
0.0
10
72.8454971313477
20
74.0126037597656
40
0.0
41
0.0
42
0.0
10
72.8452987670898
20
73.9870986938477
40
0.0
41
0.0
42
0.0
10
72.9860992431641
20
73.8058013916016
40
0.0
41
0.0
42
0.0
10
72.9931030273438
20
73.7936019897461
40
0.0
41
0.0
42
0.0
10
73.0287017822266
20
73.7883987426758
40
0.0
41
0.0
42
0.0
10
73.4822006225586
20
73.6891021728516
40
0.0
41
0.0
42
0.0
10
73.5086975097656
20
73.6890029907227
40
0.0
41
0.0
42
0.0
10
73.9943008422852
20
73.6255035400391
40
0.0
41
0.0
42
0.0
10
74.0560989379883
20
73.486701965332
40
0.0
41
0.0
42
0.0
10
74.1745986938477
20
72.9899978637695
40
0.0
41
0.0
42
0.0
10
74.4725036621094
20
72.6649017333984
40
0.0
41
0.0
42
0.0
10
74.4903030395508
20
72.6417007446289
40
0.0
41
0.0
42
0.0
10
74.5103988647461
20
72.6417007446289
40
0.0
41
0.0
42
0.0
10
74.7857971191406
20
72.9567031860352
40
0.0
41
0.0
42
0.0
10
74.8154983520508
20
72.9919967651367
40
0.0
41
0.0
42
0.0
10
74.822998046875
20
73.005500793457
40
0.0
41
0.0
42
0.0
10
75.0081024169922
20
73.230598449707
40
0.0
41
0.0
42
0.0
10
75.486701965332
20
73.1811981201172
40
0.0
41
0.0
42
0.0
10
75.7975006103516
20
72.997200012207
40
0.0
41
0.0
42
0.0
10
75.9872970581055
20
72.8454971313477
40
0.0
41
0.0
42
0.0
10
76.0128021240234
20
72.8453979492188
40
0.0
41
0.0
42
0.0
10
76.1939010620117
20
72.9860992431641
40
0.0
41
0.0
42
0.0
10
76.2068023681641
20
72.9935989379883
40
0.0
41
0.0
42
0.0
10
76.3042984008789
20
73.4385986328125
40
0.0
41
0.0
42
0.0
10
76.3703002929688
20
73.9371032714844
40
0.0
41
0.0
42
0.0
10
76.3747024536133
20
73.9944000244141
40
0.0
41
0.0
42
0.0
10
76.5131988525391
20
74.0560989379883
40
0.0
41
0.0
42
0.0
10
77.0098037719727
20
74.1746978759766
40
0.0
41
0.0
42
0.0
10
77.3348999023438
20
74.4725036621094
40
0.0
41
0.0
42
0.0
10
77.3582000732422
20
74.4903030395508
40
0.0
41
0.0
42
0.0
10
77.3580017089844
20
74.5103988647461
40
0.0
41
0.0
42
0.0
10
77.0429992675781
20
74.7857971191406
40
0.0
41
0.0
42
0.0
10
77.0078964233398
20
74.8154983520508
40
0.0
41
0.0
42
0.0
10
76.9943008422852
20
74.8228988647461
40
0.0
41
0.0
42
0.0
10
76.7695007324219
20
75.007698059082
40
0.0
41
0.0
42
0.0
10
76.8184967041016
20
75.486701965332
40
0.0
41
0.0
42
0.0
10
77.0026016235352
20
75.7975997924805
40
0.0
41
0.0
42
0.0
10
77.1544036865234
20
75.9872970581055
40
0.0
41
0.0
42
0.0
10
77.154296875
20
76.0127029418945
40
0.0
41
0.0
42
0.0
10
77.0136032104492
20
76.1939010620117
40
0.0
41
0.0
42
0.0
10
77.0063018798828
20
76.2068023681641
40
0.0
41
0.0
42
0.0
10
76.5613021850586
20
76.3042984008789
40
0.0
41
0.0
42
0.0
10
76.0627975463867
20
76.3703002929688
40
0.0
41
0.0
42
0.0
10
76.0053024291992
20
76.3746032714844
40
0.0
41
0.0
42
0.0
10
75.9437026977539
20
76.5131988525391
40
0.0
41
0.0
42
0.0
10
75.8251037597656
20
77.0098037719727
40
0.0
41
0.0
42
0.0
10
75.5272979736328
20
77.3348007202148
40
0.0
41
0.0
42
0.0
10
75.5095977783203
20
77.3582000732422
40
0.0
41
0.0
42
0.0
10
75.489501953125
20
77.3581008911133
40
0.0
41
0.0
42
0.0
10
75.213996887207
20
77.043098449707
40
0.0
41
0.0
42
0.0
10
75.1843032836914
20
77.0080032348633
40
0.0
41
0.0
42
0.0
10
75.1768035888672
20
76.9944000244141
40
0.0
41
0.0
42
0.0
10
74.9921035766602
20
76.7695007324219
40
0.0
41
0.0
42
0.0
10
74.5131988525391
20
76.8184967041016
40
0.0
41
0.0
42
0.0
10
74.2023010253906
20
77.0026016235352
40
0.0
41
0.0
42
0.0
10
74.0126037597656
20
77.1544036865234
40
0.0
41
0.0
42
0.0
10
73.9870986938477
20
77.1544036865234
40
0.0
41
0.0
42
0.0
10
73.8058013916016
20
77.0136032104492
40
0.0
41
0.0
42
0.0
10
73.793701171875
20
77.0067977905273
40
0.0
41
0.0
42
0.0
10
73.7883987426758
20
76.9711990356445
40
0.0
41
0.0
42
0.0
10
73.6891021728516
20
76.5177001953125
40
0.0
41
0.0
42
0.0
10
73.6890029907227
20
76.491096496582
40
0.0
41
0.0
42
0.0
10
73.6255035400391
20
76.0055999755859
40
0.0
41
0.0
42
0.0
10
73.486701965332
20
75.9437026977539
40
0.0
41
0.0
42
0.0
10
72.9899978637695
20
75.8251037597656
40
0.0
41
0.0
42
0.0
10
72.6649017333984
20
75.5272979736328
40
0.0
41
0.0
42
0.0
10
72.6417007446289
20
75.5095977783203
40
0.0
41
0.0
42
0.0
10
72.6416015625
20
75.489501953125
40
0.0
41
0.0
42
0.0
10
72.9567031860352
20
75.2138977050781
40
0.0
41
0.0
42
0.0
210
0.0
220
0.0
230
1.0
0
LWPOLYLINE
5
2D
330
1C
100
AcDbEntity
67
0
8
0
62
256
6
ByLayer
370
-1
48
1.0
60
0
100
AcDbPolyline
90
71
70
1
38
0.0
39
0.0
10
72.6567993164062
20
75.499397277832
40
0.0
41
0.0
42
0.0
10
73.0105972290039
20
75.8230972290039
40
0.0
41
0.0
42
0.0
10
73.0609970092773
20
75.8303985595703
40
0.0
41
0.0
42
0.0
10
73.5131988525391
20
75.9387969970703
40
0.0
41
0.0
42
0.0
10
73.6392974853516
20
75.994499206543
40
0.0
41
0.0
42
0.0
10
73.6973037719727
20
76.4363021850586
40
0.0
41
0.0
42
0.0
10
73.6971969604492
20
76.4730987548828
40
0.0
41
0.0
42
0.0
10
73.6925964355469
20
76.4990005493164
40
0.0
41
0.0
42
0.0
10
73.8001022338867
20
76.9918975830078
40
0.0
41
0.0
42
0.0
10
73.9997024536133
20
77.1454010009766
40
0.0
41
0.0
42
0.0
10
74.1848983764648
20
76.997200012207
40
0.0
41
0.0
42
0.0
10
74.4632034301758
20
76.8332977294922
40
0.0
41
0.0
42
0.0
10
74.4877014160156
20
76.8125
40
0.0
41
0.0
42
0.0
10
74.5261001586914
20
76.8119964599609
40
0.0
41
0.0
42
0.0
10
74.9810028076172
20
76.7650985717773
40
0.0
41
0.0
42
0.0
10
75.0100021362305
20
76.7650985717773
40
0.0
41
0.0
42
0.0
10
75.1763000488281
20
76.9674987792969
40
0.0
41
0.0
42
0.0
10
75.193000793457
20
76.9926986694336
40
0.0
41
0.0
42
0.0
10
75.499397277832
20
77.342903137207
40
0.0
41
0.0
42
0.0
10
75.8230972290039
20
76.9893035888672
40
0.0
41
0.0
42
0.0
10
75.8303985595703
20
76.9389038085938
40
0.0
41
0.0
42
0.0
10
75.9387969970703
20
76.486701965332
40
0.0
41
0.0
42
0.0
10
75.9936981201172
20
76.3621978759766
40
0.0
41
0.0
42
0.0
10
76.0177001953125
20
76.3620986938477
40
0.0
41
0.0
42
0.0
10
76.0441970825195
20
76.3679962158203
40
0.0
41
0.0
42
0.0
10
76.4886016845703
20
76.3097991943359
40
0.0
41
0.0
42
0.0
10
76.9918975830078
20
76.1996002197266
40
0.0
41
0.0
42
0.0
10
77.1455001831055
20
76.0000991821289
40
0.0
41
0.0
42
0.0
10
76.997200012207
20
75.8147964477539
40
0.0
41
0.0
42
0.0
10
76.8332977294922
20
75.5364990234375
40
0.0
41
0.0
42
0.0
10
76.8125
20
75.5121994018555
40
0.0
41
0.0
42
0.0
10
76.8121032714844
20
75.4738006591797
40
0.0
41
0.0
42
0.0
10
76.7650985717773
20
75.0188980102539
40
0.0
41
0.0
42
0.0
10
76.7649993896484
20
74.9898986816406
40
0.0
41
0.0
42
0.0
10
76.967399597168
20
74.8235015869141
40
0.0
41
0.0
42
0.0
10
76.9925994873047
20
74.8067016601562
40
0.0
41
0.0
42
0.0
10
77.3430023193359
20
74.5003967285156
40
0.0
41
0.0
42
0.0
10
76.9901962280273
20
74.1772003173828
40
0.0
41
0.0
42
0.0
10
76.5289001464844
20
74.0667037963867
40
0.0
41
0.0
42
0.0
10
76.4858016967773
20
74.0605010986328
40
0.0
41
0.0
42
0.0
10
76.3621978759766
20
74.0062026977539
40
0.0
41
0.0
42
0.0
10
76.3619995117188
20
73.9822006225586
40
0.0
41
0.0
42
0.0
10
76.3679962158203
20
73.9557037353516
40
0.0
41
0.0
42
0.0
10
76.3097991943359
20
73.5112991333008
40
0.0
41
0.0
42
0.0
10
76.1996994018555
20
73.0080032348633
40
0.0
41
0.0
42
0.0
10
76.0000991821289
20
72.8543014526367
40
0.0
41
0.0
42
0.0
10
75.8147964477539
20
73.0026016235352
40
0.0
41
0.0
42
0.0
10
75.5364990234375
20
73.1664962768555
40
0.0
41
0.0
42
0.0
10
75.5112991333008
20
73.1878967285156
40
0.0
41
0.0
42
0.0
10
75.0637969970703
20
73.2341995239258
40
0.0
41
0.0
42
0.0
10
74.9897994995117
20
73.2347030639648
40
0.0
41
0.0
42
0.0
10
74.8235015869141
20
73.0323028564453
40
0.0
41
0.0
42
0.0
10
74.8068008422852
20
73.0071029663086
40
0.0
41
0.0
42
0.0
10
74.5003967285156
20
72.6567001342773
40
0.0
41
0.0
42
0.0
10
74.1772003173828
20
73.0096969604492
40
0.0
41
0.0
42
0.0
10
74.0667037963867
20
73.4710006713867
40
0.0
41
0.0
42
0.0
10
74.0605010986328
20
73.5140991210938
40
0.0
41
0.0
42
0.0
10
74.0054016113281
20
73.6392974853516
40
0.0
41
0.0
42
0.0
10
73.5635986328125
20
73.6973037719727
40
0.0
41
0.0
42
0.0
10
73.5268020629883
20
73.6971969604492
40
0.0
41
0.0
42
0.0
10
73.5008010864258
20
73.6925964355469
40
0.0
41
0.0
42
0.0
10
73.0078964233398
20
73.8001022338867
40
0.0
41
0.0
42
0.0
10
72.8544006347656
20
73.9997024536133
40
0.0
41
0.0
42
0.0
10
73.0026016235352
20
74.1849975585938
40
0.0
41
0.0
42
0.0
10
73.1664962768555
20
74.4632034301758
40
0.0
41
0.0
42
0.0
10
73.1878967285156
20
74.4886016845703
40
0.0
41
0.0
42
0.0
10
73.2341995239258
20
74.9360961914062
40
0.0
41
0.0
42
0.0
10
73.2345962524414
20
75.0100021362305
40
0.0
41
0.0
42
0.0
10
73.0323028564453
20
75.1762008666992
40
0.0
41
0.0
42
0.0
10
73.0071029663086
20
75.1929016113281
40
0.0
41
0.0
42
0.0
10
72.6567993164062
20
75.499397277832
40
0.0
41
0.0
42
0.0
210
0.0
220
0.0
230
1.0
0
LWPOLYLINE
5
2E
330
1C
100
AcDbEntity
67
0
8
0
62
256
6
ByLayer
370
-1
48
1.0
60
0
100
AcDbPolyline
90
58
70
1
38
0.0
39
0.0
10
74.0584030151367
20
65.5232009887695
40
0.0
41
0.0
42
0.0
10
74.0584030151367
20
65.4878997802734
40
0.0
41
0.0
42
0.0
10
74.0727005004883
20
65.4670028686523
40
0.0
41
0.0
42
0.0
10
74.3684005737305
20
65.0009994506836
40
0.0
41
0.0
42
0.0
10
74.4264984130859
20
65.0009994506836
40
0.0
41
0.0
42
0.0
10
74.426399230957
20
65.013801574707
40
0.0
41
0.0
42
0.0
10
74.2526016235352
20
65.2880020141602
40
0.0
41
0.0
42
0.0
10
74.0988006591797
20
65.5114974975586
40
0.0
41
0.0
42
0.0
10
74.0913009643555
20
65.5469970703125
40
0.0
41
0.0
42
0.0
10
74.1632995605469
20
65.9870986938477
40
0.0
41
0.0
42
0.0
10
74.1710968017578
20
66.0005035400391
40
0.0
41
0.0
42
0.0
10
74.6287994384766
20
66.4552993774414
40
0.0
41
0.0
42
0.0
10
74.6496963500977
20
66.4929962158203
40
0.0
41
0.0
42
0.0
10
74.6748962402344
20
66.5166015625
40
0.0
41
0.0
42
0.0
10
75.008903503418
20
66.7426986694336
40
0.0
41
0.0
42
0.0
10
75.4699020385742
20
66.9956970214844
40
0.0
41
0.0
42
0.0
10
75.5119018554688
20
67.0204010009766
40
0.0
41
0.0
42
0.0
10
76.008903503418
20
67.1446990966797
40
0.0
41
0.0
42
0.0
10
76.4838027954102
20
67.1047973632812
40
0.0
41
0.0
42
0.0
10
76.842399597168
20
66.9999008178711
40
0.0
41
0.0
42
0.0
10
76.9876022338867
20
66.9532012939453
40
0.0
41
0.0
42
0.0
10
77.49169921875
20
66.7177963256836
40
0.0
41
0.0
42
0.0
10
77.4969024658203
20
66.7129974365234
40
0.0
41
0.0
42
0.0
10
77.8800964355469
20
66.4953994750977
40
0.0
41
0.0
42
0.0
10
77.9981994628906
20
66.2962036132812
40
0.0
41
0.0
42
0.0
10
78.0016021728516
20
66.2629013061523
40
0.0
41
0.0
42
0.0
10
78.1218032836914
20
65.997802734375
40
0.0
41
0.0
42
0.0
10
77.9917984008789
20
65.5549011230469
40
0.0
41
0.0
42
0.0
10
77.9686965942383
20
65.5090026855469
40
0.0
41
0.0
42
0.0
10
77.6365966796875
20
65.0519027709961
40
0.0
41
0.0
42
0.0
10
77.6023025512695
20
65.0121002197266
40
0.0
41
0.0
42
0.0
10
77.6023025512695
20
65.0009994506836
40
0.0
41
0.0
42
0.0
10
77.6349029541016
20
65.0009994506836
40
0.0
41
0.0
42
0.0
10
77.9899978637695
20
65.4894027709961
40
0.0
41
0.0
42
0.0
10
78.1360015869141
20
65.9830017089844
40
0.0
41
0.0
42
0.0
10
78.1359024047852
20
66.0154037475586
40
0.0
41
0.0
42
0.0
10
77.9998016357422
20
66.3154983520508
40
0.0
41
0.0
42
0.0
10
77.9963989257812
20
66.3348999023438
40
0.0
41
0.0
42
0.0
10
77.8958969116211
20
66.5044021606445
40
0.0
41
0.0
42
0.0
10
77.5490036010742
20
66.701301574707
40
0.0
41
0.0
42
0.0
10
77.5081024169922
20
66.7387008666992
40
0.0
41
0.0
42
0.0
10
77.0544967651367
20
66.9503021240234
40
0.0
41
0.0
42
0.0
10
77.0441970825195
20
66.9572982788086
40
0.0
41
0.0
42
0.0
10
77.0122985839844
20
66.9721984863281
40
0.0
41
0.0
42
0.0
10
76.9265975952148
20
66.9998016357422
40
0.0
41
0.0
42
0.0
10
76.7247009277344
20
67.0586013793945
40
0.0
41
0.0
42
0.0
10
76.5158996582031
20
67.1224975585938
40
0.0
41
0.0
42
0.0
10
76.0639038085938
20
67.1605987548828
40
0.0
41
0.0
42
0.0
10
75.9823989868164
20
67.1616973876953
40
0.0
41
0.0
42
0.0
10
75.5315017700195
20
67.0496978759766
40
0.0
41
0.0
42
0.0
10
75.4890975952148
20
67.0324020385742
40
0.0
41
0.0
42
0.0
10
75.4598999023438
20
67.0160980224609
40
0.0
41
0.0
42
0.0
10
75.4149017333984
20
66.9801025390625
40
0.0
41
0.0
42
0.0
10
74.9908981323242
20
66.7475967407227
40
0.0
41
0.0
42
0.0
10
74.6365966796875
20
66.5071029663086
40
0.0
41
0.0
42
0.0
10
74.6327972412109
20
66.5018997192383
40
0.0
41
0.0
42
0.0
10
74.1378021240234
20
66.0099029541016
40
0.0
41
0.0
42
0.0
10
74.0584030151367
20
65.5232009887695
40
0.0
41
0.0
42
0.0
210
0.0
220
0.0
230
1.0
0
LWPOLYLINE
5
2F
330
1C
100
AcDbEntity
67
0
8
0
62
256
6
ByLayer
370
-1
48
1.0
60
0
100
AcDbPolyline
90
25
70
1
38
0.0
39
0.0
10
74.4917984008789
20
74.8162002563477
40
0.0
41
0.0
42
0.0
10
74.4988021850586
20
74.788200378418
40
0.0
41
0.0
42
0.0
10
74.7898025512695
20
74.497200012207
40
0.0
41
0.0
42
0.0
10
74.9849014282227
20
74.4007034301758
40
0.0
41
0.0
42
0.0
10
75.0137023925781
20
74.4005966186523
40
0.0
41
0.0
42
0.0
10
75.0544967651367
20
74.4272003173828
40
0.0
41
0.0
42
0.0
10
75.1836013793945
20
74.4917984008789
40
0.0
41
0.0
42
0.0
10
75.2116012573242
20
74.4989013671875
40
0.0
41
0.0
42
0.0
10
75.5026016235352
20
74.7899017333984
40
0.0
41
0.0
42
0.0
10
75.5991973876953
20
74.9849014282227
40
0.0
41
0.0
42
0.0
10
75.5990982055664
20
75.0137023925781
40
0.0
41
0.0
42
0.0
10
75.5725021362305
20
75.0544967651367
40
0.0
41
0.0
42
0.0
10
75.5078964233398
20
75.1836013793945
40
0.0
41
0.0
42
0.0
10
75.5009002685547
20
75.2116012573242
40
0.0
41
0.0
42
0.0
10
75.2098999023438
20
75.5026016235352
40
0.0
41
0.0
42
0.0
10
75.0149993896484
20
75.5991973876953
40
0.0
41
0.0
42
0.0
10
74.986198425293
20
75.5991973876953
40
0.0
41
0.0
42
0.0
10
74.9453964233398
20
75.5726013183594
40
0.0
41
0.0
42
0.0
10
74.8162002563477
20
75.5078964233398
40
0.0
41
0.0
42
0.0
10
74.788200378418
20
75.5009994506836
40
0.0
41
0.0
42
0.0
10
74.4972991943359
20
75.2098999023438
40
0.0
41
0.0
42
0.0
10
74.4007034301758
20
75.0149993896484
40
0.0
41
0.0
42
0.0
10
74.4004974365234
20
74.986198425293
40
0.0
41
0.0
42
0.0
10
74.4271011352539
20
74.9453964233398
40
0.0
41
0.0
42
0.0
10
74.4917984008789
20
74.8162002563477
40
0.0
41
0.0
42
0.0
210
0.0
220
0.0
230
1.0
0
LWPOLYLINE
5
30
330
1C
100
AcDbEntity
67
0
8
0
62
256
6
ByLayer
370
-1
48
1.0
60
0
100
AcDbPolyline
90
14
70
1
38
0.0
39
0.0
10
74.4338989257812
20
75.0007019042969
40
0.0
41
0.0
42
0.0
10
74.5027008056641
20
75.1380004882812
40
0.0
41
0.0
42
0.0
10
74.8619003295898
20
75.497200012207
40
0.0
41
0.0
42
0.0
10
75.0008010864258
20
75.5656967163086
40
0.0
41
0.0
42
0.0
10
75.1379013061523
20
75.497200012207
40
0.0
41
0.0
42
0.0
10
75.497200012207
20
75.1379013061523
40
0.0
41
0.0
42
0.0
10
75.5656967163086
20
74.9990005493164
40
0.0
41
0.0
42
0.0
10
75.497200012207
20
74.8618011474609
40
0.0
41
0.0
42
0.0
10
75.1380004882812
20
74.5026016235352
40
0.0
41
0.0
42
0.0
10
74.9990005493164
20
74.4338989257812
40
0.0
41
0.0
42
0.0
10
74.8618011474609
20
74.5026016235352
40
0.0
41
0.0
42
0.0
10
74.5025024414062
20
74.8619003295898
40
0.0
41
0.0
42
0.0
10
74.4804992675781
20
74.9076995849609
40
0.0
41
0.0
42
0.0
10
74.4338989257812
20
75.0007019042969
40
0.0
41
0.0
42
0.0
210
0.0
220
0.0
230
1.0
0
LWPOLYLINE
5
31
330
1C
100
AcDbEntity
67
0
8
0
62
256
6
ByLayer
370
-1
48
1.0
60
0
100
AcDbPolyline
90
41
70
1
38
0.0
39
0.0
10
78.9727020263672
20
82.9387969970703
40
0.0
41
0.0
42
0.0
10
78.9936981201172
20
82.8697967529297
40
0.0
41
0.0
42
0.0
10
79.0967025756836
20
82.4859008789062
40
0.0
41
0.0
42
0.0
10
79.1110000610352
20
82.4423980712891
40
0.0
41
0.0
42
0.0
10
79.3094024658203
20
81.988899230957
40
0.0
41
0.0
42
0.0
10
79.3321990966797
20
81.9448013305664
40
0.0
41
0.0
42
0.0
10
79.4841003417969
20
81.6677017211914
40
0.0
41
0.0
42
0.0
10
79.6267013549805
20
81.4751968383789
40
0.0
41
0.0
42
0.0
10
79.9481964111328
20
81.1688995361328
40
0.0
41
0.0
42
0.0
10
79.9841003417969
20
81.1442031860352
40
0.0
41
0.0
42
0.0
10
80.2587966918945
20
80.9990005493164
40
0.0
41
0.0
42
0.0
10
80.4411010742188
20
80.9271011352539
40
0.0
41
0.0
42
0.0
10
80.4829025268555
20
80.9178009033203
40
0.0
41
0.0
42
0.0
10
80.5195007324219
20
80.9156036376953
40
0.0
41
0.0
42
0.0
10
80.9823989868164
20
80.8059005737305
40
0.0
41
0.0
42
0.0
10
80.9906005859375
20
80.8058013916016
40
0.0
41
0.0
42
0.0
10
81.481201171875
20
80.7451019287109
40
0.0
41
0.0
42
0.0
10
81.5192031860352
20
80.745002746582
40
0.0
41
0.0
42
0.0
10
82.0077972412109
20
80.7823028564453
40
0.0
41
0.0
42
0.0
10
82.3224029541016
20
80.9936981201172
40
0.0
41
0.0
42
0.0
10
82.3936996459961
20
81.1828002929688
40
0.0
41
0.0
42
0.0
10
82.4997024536133
20
81.4522018432617
40
0.0
41
0.0
42
0.0
10
82.5056991577148
20
81.4820022583008
40
0.0
41
0.0
42
0.0
10
82.5055999755859
20
81.5195999145508
40
0.0
41
0.0
42
0.0
10
82.4899978637695
20
82.0173034667969
40
0.0
41
0.0
42
0.0
10
82.3772964477539
20
82.5136032104492
40
0.0
41
0.0
42
0.0
10
82.1737976074219
20
83.0102005004883
40
0.0
41
0.0
42
0.0
10
81.9999008178711
20
83.2811965942383
40
0.0
41
0.0
42
0.0
10
81.7817001342773
20
83.5007019042969
40
0.0
41
0.0
42
0.0
10
81.5050964355469
20
83.7021026611328
40
0.0
41
0.0
42
0.0
10
81.0151977539062
20
83.8702011108398
40
0.0
41
0.0
42
0.0
10
80.5186996459961
20
83.9304962158203
40
0.0
41
0.0
42
0.0
10
80.4804992675781
20
83.9303970336914
40
0.0
41
0.0
42
0.0
10
79.9832992553711
20
83.9050979614258
40
0.0
41
0.0
42
0.0
10
79.4887008666992
20
83.7714996337891
40
0.0
41
0.0
42
0.0
10
79.0802993774414
20
83.5039978027344
40
0.0
41
0.0
42
0.0
10
79.0005035400391
20
83.1837005615234
40
0.0
41
0.0
42
0.0
10
78.9788970947266
20
83.0326995849609
40
0.0
41
0.0
42
0.0
10
78.970100402832
20
83.0149993896484
40
0.0
41
0.0
42
0.0
10
78.9700012207031
20
82.980598449707
40
0.0
41
0.0
42
0.0
10
78.9727020263672
20
82.9387969970703
40
0.0
41
0.0
42
0.0
210
0.0
220
0.0
230
1.0
0
LWPOLYLINE
5
32
330
1C
100
AcDbEntity
67
0
8
0
62
256
6
ByLayer
370
-1
48
1.0
60
0
100
AcDbPolyline
90
43
70
1
38
0.0
39
0.0
10
78.9781036376953
20
83.0010986328125
40
0.0
41
0.0
42
0.0
10
78.9992980957031
20
83.1480026245117
40
0.0
41
0.0
42
0.0
10
79.0775985717773
20
83.4657974243164
40
0.0
41
0.0
42
0.0
10
79.1072006225586
20
83.4974975585938
40
0.0
41
0.0
42
0.0
10
79.1304016113281
20
83.5074996948242
40
0.0
41
0.0
42
0.0
10
79.5120010375977
20
83.7571029663086
40
0.0
41
0.0
42
0.0
10
79.560302734375
20
83.7661972045898
40
0.0
41
0.0
42
0.0
10
80.0129013061523
20
83.8887023925781
40
0.0
41
0.0
42
0.0
10
80.0644989013672
20
83.8883972167969
40
0.0
41
0.0
42
0.0
10
80.4885025024414
20
83.910400390625
40
0.0
41
0.0
42
0.0
10
80.5289993286133
20
83.8989028930664
40
0.0
41
0.0
42
0.0
10
80.9845962524414
20
83.844596862793
40
0.0
41
0.0
42
0.0
10
81.443603515625
20
83.6869964599609
40
0.0
41
0.0
42
0.0
10
81.4521026611328
20
83.6821975708008
40
0.0
41
0.0
42
0.0
10
81.4918975830078
20
83.6558990478516
40
0.0
41
0.0
42
0.0
10
81.7107009887695
20
83.4965972900391
40
0.0
41
0.0
42
0.0
10
81.747200012207
20
83.4673004150391
40
0.0
41
0.0
42
0.0
10
81.9505004882812
20
83.2630996704102
40
0.0
41
0.0
42
0.0
10
81.9655990600586
20
83.2445983886719
40
0.0
41
0.0
42
0.0
10
82.1296997070312
20
82.9897003173828
40
0.0
41
0.0
42
0.0
10
82.2809982299805
20
82.6193008422852
40
0.0
41
0.0
42
0.0
10
82.3407974243164
20
82.4866027832031
40
0.0
41
0.0
42
0.0
10
82.4561004638672
20
81.9830017089844
40
0.0
41
0.0
42
0.0
10
82.4560012817383
20
81.9338989257812
40
0.0
41
0.0
42
0.0
10
82.4699020385742
20
81.513298034668
40
0.0
41
0.0
42
0.0
10
82.2993011474609
20
81.056396484375
40
0.0
41
0.0
42
0.0
10
82.2726974487305
20
81.005500793457
40
0.0
41
0.0
42
0.0
10
81.9907989501953
20
80.8153991699219
40
0.0
41
0.0
42
0.0
10
81.9409027099609
20
80.7890014648438
40
0.0
41
0.0
42
0.0
10
81.5043029785156
20
80.7556991577148
40
0.0
41
0.0
42
0.0
10
81.0636978149414
20
80.8104019165039
40
0.0
41
0.0
42
0.0
10
81.0261001586914
20
80.810302734375
40
0.0
41
0.0
42
0.0
10
81.0058975219727
20
80.8079986572266
40
0.0
41
0.0
42
0.0
10
80.5606002807617
20
80.9133987426758
40
0.0
41
0.0
42
0.0
10
80.5091018676758
20
80.9232025146484
40
0.0
41
0.0
42
0.0
10
80.3113021850586
20
81.0008010864258
40
0.0
41
0.0
42
0.0
10
80.0066986083984
20
81.1619033813477
40
0.0
41
0.0
42
0.0
10
79.646598815918
20
81.5037994384766
40
0.0
41
0.0
42
0.0
10
79.5007019042969
20
81.7005996704102
40
0.0
41
0.0
42
0.0
10
79.3305969238281
20
82.0105972290039
40
0.0
41
0.0
42
0.0
10
79.1131973266602
20
82.5080032348633
40
0.0
41
0.0
42
0.0
10
78.9957962036133
20
82.9422988891602
40
0.0
41
0.0
42
0.0
10
78.9781036376953
20
83.0010986328125
40
0.0
41
0.0
42
0.0
210
0.0
220
0.0
230
1.0
0
LWPOLYLINE
5
33
330
1C
100
AcDbEntity
67
0
8
0
62
256
6
ByLayer
370
-1
48
1.0
60
0
100
AcDbPolyline
90
43
70
1
38
0.0
39
0.0
10
80.7822036743164
20
67.9921035766602
40
0.0
41
0.0
42
0.0
10
80.9935989379883
20
67.6772994995117
40
0.0
41
0.0
42
0.0
10
81.1828002929688
20
67.6060028076172
40
0.0
41
0.0
42
0.0
10
81.4522018432617
20
67.5000991821289
40
0.0
41
0.0
42
0.0
10
81.4820022583008
20
67.4942016601562
40
0.0
41
0.0
42
0.0
10
81.5195999145508
20
67.4941024780273
40
0.0
41
0.0
42
0.0
10
82.0173034667969
20
67.5096969604492
40
0.0
41
0.0
42
0.0
10
82.5136032104492
20
67.6223983764648
40
0.0
41
0.0
42
0.0
10
83.0102005004883
20
67.8258972167969
40
0.0
41
0.0
42
0.0
10
83.2829971313477
20
68.0014038085938
40
0.0
41
0.0
42
0.0
10
83.5038986206055
20
68.2219009399414
40
0.0
41
0.0
42
0.0
10
83.7021026611328
20
68.4947967529297
40
0.0
41
0.0
42
0.0
10
83.8702011108398
20
68.9847030639648
40
0.0
41
0.0
42
0.0
10
83.9304962158203
20
69.481201171875
40
0.0
41
0.0
42
0.0
10
83.9303970336914
20
69.519401550293
40
0.0
41
0.0
42
0.0
10
83.9050979614258
20
70.0166015625
40
0.0
41
0.0
42
0.0
10
83.7714996337891
20
70.5112991333008
40
0.0
41
0.0
42
0.0
10
83.5050964355469
20
70.9194030761719
40
0.0
41
0.0
42
0.0
10
83.4886016845703
20
70.9241027832031
40
0.0
41
0.0
42
0.0
10
83.1837005615234
20
70.9992980957031
40
0.0
41
0.0
42
0.0
10
83.0326995849609
20
71.0210037231445
40
0.0
41
0.0
42
0.0
10
83.0150985717773
20
71.0298004150391
40
0.0
41
0.0
42
0.0
10
82.9806976318359
20
71.0297012329102
40
0.0
41
0.0
42
0.0
10
82.9386978149414
20
71.0270004272461
40
0.0
41
0.0
42
0.0
10
82.8697967529297
20
71.0059967041016
40
0.0
41
0.0
42
0.0
10
82.4860000610352
20
70.9029998779297
40
0.0
41
0.0
42
0.0
10
82.442497253418
20
70.8887023925781
40
0.0
41
0.0
42
0.0
10
81.9889984130859
20
70.6903991699219
40
0.0
41
0.0
42
0.0
10
81.9449005126953
20
70.6675033569336
40
0.0
41
0.0
42
0.0
10
81.6678009033203
20
70.5157012939453
40
0.0
41
0.0
42
0.0
10
81.493896484375
20
70.3871002197266
40
0.0
41
0.0
42
0.0
10
81.2192993164062
20
70.0988006591797
40
0.0
41
0.0
42
0.0
10
81.1688003540039
20
70.0513000488281
40
0.0
41
0.0
42
0.0
10
81.140998840332
20
70.0092010498047
40
0.0
41
0.0
42
0.0
10
80.9990997314453
20
69.7409973144531
40
0.0
41
0.0
42
0.0
10
80.9271011352539
20
69.5587997436523
40
0.0
41
0.0
42
0.0
10
80.9179000854492
20
69.5169982910156
40
0.0
41
0.0
42
0.0
10
80.9156036376953
20
69.4804000854492
40
0.0
41
0.0
42
0.0
10
80.8059005737305
20
69.0175018310547
40
0.0
41
0.0
42
0.0
10
80.8058013916016
20
69.0092010498047
40
0.0
41
0.0
42
0.0
10
80.7451019287109
20
68.5186996459961
40
0.0
41
0.0
42
0.0
10
80.745002746582
20
68.4811019897461
40
0.0
41
0.0
42
0.0
10
80.7822036743164
20
67.9921035766602
40
0.0
41
0.0
42
0.0
210
0.0
220
0.0
230
1.0
0
LWPOLYLINE
5
34
330
1C
100
AcDbEntity
67
0
8
0
62
256
6
ByLayer
370
-1
48
1.0
60
0
100
AcDbPolyline
90
42
70
1
38
0.0
39
0.0
10
80.810302734375
20
68.935302734375
40
0.0
41
0.0
42
0.0
10
80.810302734375
20
68.9738006591797
40
0.0
41
0.0
42
0.0
10
80.8079986572266
20
68.9940032958984
40
0.0
41
0.0
42
0.0
10
80.9133987426758
20
69.4393005371094
40
0.0
41
0.0
42
0.0
10
80.9233016967773
20
69.4907989501953
40
0.0
41
0.0
42
0.0
10
81.0008010864258
20
69.6885986328125
40
0.0
41
0.0
42
0.0
10
81.1650009155273
20
69.9972991943359
40
0.0
41
0.0
42
0.0
10
81.5059967041016
20
70.3546981811523
40
0.0
41
0.0
42
0.0
10
81.7005996704102
20
70.4990997314453
40
0.0
41
0.0
42
0.0
10
82.0056991577148
20
70.6666030883789
40
0.0
41
0.0
42
0.0
10
82.5130004882812
20
70.888298034668
40
0.0
41
0.0
42
0.0
10
82.9320983886719
20
71.0009002685547
40
0.0
41
0.0
42
0.0
10
83.0010986328125
20
71.021598815918
40
0.0
41
0.0
42
0.0
10
83.1477966308594
20
71.0005035400391
40
0.0
41
0.0
42
0.0
10
83.4657974243164
20
70.9222030639648
40
0.0
41
0.0
42
0.0
10
83.4973983764648
20
70.8926010131836
40
0.0
41
0.0
42
0.0
10
83.5074996948242
20
70.8694000244141
40
0.0
41
0.0
42
0.0
10
83.7571029663086
20
70.4878997802734
40
0.0
41
0.0
42
0.0
10
83.7660980224609
20
70.4395980834961
40
0.0
41
0.0
42
0.0
10
83.8887023925781
20
69.9869995117188
40
0.0
41
0.0
42
0.0
10
83.8883972167969
20
69.9354019165039
40
0.0
41
0.0
42
0.0
10
83.910400390625
20
69.5113983154297
40
0.0
41
0.0
42
0.0
10
83.8990020751953
20
69.4709014892578
40
0.0
41
0.0
42
0.0
10
83.844596862793
20
69.0152969360352
40
0.0
41
0.0
42
0.0
10
83.686897277832
20
68.5557022094727
40
0.0
41
0.0
42
0.0
10
83.6559982299805
20
68.5081024169922
40
0.0
41
0.0
42
0.0
10
83.4959030151367
20
68.2881011962891
40
0.0
41
0.0
42
0.0
10
83.3207015991211
20
68.1137008666992
40
0.0
41
0.0
42
0.0
10
83.2630996704102
20
68.0491027832031
40
0.0
41
0.0
42
0.0
10
83.1960983276367
20
68.0025024414062
40
0.0
41
0.0
42
0.0
10
82.9897003173828
20
67.870002746582
40
0.0
41
0.0
42
0.0
10
82.6194000244141
20
67.7186965942383
40
0.0
41
0.0
42
0.0
10
82.486701965332
20
67.6588973999023
40
0.0
41
0.0
42
0.0
10
81.9830017089844
20
67.5438003540039
40
0.0
41
0.0
42
0.0
10
81.9337997436523
20
67.543701171875
40
0.0
41
0.0
42
0.0
10
81.5129013061523
20
67.5298004150391
40
0.0
41
0.0
42
0.0
10
81.4561004638672
20
67.5560989379883
40
0.0
41
0.0
42
0.0
10
81.0062026977539
20
67.7258987426758
40
0.0
41
0.0
42
0.0
10
80.815299987793
20
68.0091018676758
40
0.0
41
0.0
42
0.0
10
80.7890014648438
20
68.0589981079102
40
0.0
41
0.0
42
0.0
10
80.7556991577148
20
68.4955978393555
40
0.0
41
0.0
42
0.0
10
80.810302734375
20
68.935302734375
40
0.0
41
0.0
42
0.0
210
0.0
220
0.0
230
1.0
0
LWPOLYLINE
5
35
330
1C
100
AcDbEntity
67
0
8
0
62
256
6
ByLayer
370
-1
48
1.0
60
0
100
AcDbPolyline
90
20
70
1
38
0.0
39
0.0
10
82.4943008422852
20
84.8879013061523
40
0.0
41
0.0
42
0.0
10
82.9915008544922
20
84.526496887207
40
0.0
41
0.0
42
0.0
10
83.0386962890625
20
84.4981002807617
40
0.0
41
0.0
42
0.0
10
83.4878997802734
20
84.2511978149414
40
0.0
41
0.0
42
0.0
10
84.4935989379883
20
83.802001953125
40
0.0
41
0.0
42
0.0
10
84.9844970703125
20
83.5779037475586
40
0.0
41
0.0
42
0.0
10
84.9990005493164
20
83.5779037475586
40
0.0
41
0.0
42
0.0
10
84.9988021850586
20
83.6008987426758
40
0.0
41
0.0
42
0.0
10
84.5567016601562
20
83.8028030395508
40
0.0
41
0.0
42
0.0
10
84.510498046875
20
83.8212966918945
40
0.0
41
0.0
42
0.0
10
83.4980010986328
20
84.2734985351562
40
0.0
41
0.0
42
0.0
10
83.0830993652344
20
84.5017013549805
40
0.0
41
0.0
42
0.0
10
83.0419998168945
20
84.5266036987305
40
0.0
41
0.0
42
0.0
10
83.0087966918945
20
84.5444030761719
40
0.0
41
0.0
42
0.0
10
82.5528030395508
20
84.8759994506836
40
0.0
41
0.0
42
0.0
10
82.5102996826172
20
84.9048004150391
40
0.0
41
0.0
42
0.0
10
82.4227981567383
20
84.9990005493164
40
0.0
41
0.0
42
0.0
10
82.4010009765625
20
84.9990005493164
40
0.0
41
0.0
42
0.0
10
82.4009017944336
20
84.9887008666992
40
0.0
41
0.0
42
0.0
10
82.4943008422852
20
84.8879013061523
40
0.0
41
0.0
42
0.0
210
0.0
220
0.0
230
1.0
0
LWPOLYLINE
5
36
330
1C
100
AcDbEntity
67
0
8
0
62
256
6
ByLayer
370
-1
48
1.0
60
0
100
AcDbPolyline
90
59
70
1
38
0.0
39
0.0
10
82.9680023193359
20
75.4878005981445
40
0.0
41
0.0
42
0.0
10
82.9837036132812
20
75.4598999023438
40
0.0
41
0.0
42
0.0
10
83.0195999145508
20
75.4148025512695
40
0.0
41
0.0
42
0.0
10
83.2520980834961
20
74.9908981323242
40
0.0
41
0.0
42
0.0
10
83.4926986694336
20
74.6364974975586
40
0.0
41
0.0
42
0.0
10
83.497802734375
20
74.632698059082
40
0.0
41
0.0
42
0.0
10
83.9890975952148
20
74.1381988525391
40
0.0
41
0.0
42
0.0
10
84.4764022827148
20
74.0582962036133
40
0.0
41
0.0
42
0.0
10
84.5131988525391
20
74.0593032836914
40
0.0
41
0.0
42
0.0
10
84.5327987670898
20
74.0727996826172
40
0.0
41
0.0
42
0.0
10
84.9990005493164
20
74.3684005737305
40
0.0
41
0.0
42
0.0
10
84.9990005493164
20
74.4264984130859
40
0.0
41
0.0
42
0.0
10
84.9860992431641
20
74.426399230957
40
0.0
41
0.0
42
0.0
10
84.7117004394531
20
74.2526016235352
40
0.0
41
0.0
42
0.0
10
84.4884033203125
20
74.0988006591797
40
0.0
41
0.0
42
0.0
10
84.4529037475586
20
74.0913009643555
40
0.0
41
0.0
42
0.0
10
84.0128021240234
20
74.163200378418
40
0.0
41
0.0
42
0.0
10
83.9992980957031
20
74.1709976196289
40
0.0
41
0.0
42
0.0
10
83.5444030761719
20
74.6287994384766
40
0.0
41
0.0
42
0.0
10
83.5067977905273
20
74.6495971679688
40
0.0
41
0.0
42
0.0
10
83.4832000732422
20
74.6748962402344
40
0.0
41
0.0
42
0.0
10
83.2570037841797
20
75.0087966918945
40
0.0
41
0.0
42
0.0
10
83.0040969848633
20
75.4699020385742
40
0.0
41
0.0
42
0.0
10
82.9793014526367
20
75.5119018554688
40
0.0
41
0.0
42
0.0
10
82.8554000854492
20
76.010498046875
40
0.0
41
0.0
42
0.0
10
82.8948974609375
20
76.4838027954102
40
0.0
41
0.0
42
0.0
10
82.9999008178711
20
76.842399597168
40
0.0
41
0.0
42
0.0
10
83.046501159668
20
76.9876022338867
40
0.0
41
0.0
42
0.0
10
83.2819976806641
20
77.4917984008789
40
0.0
41
0.0
42
0.0
10
83.2867965698242
20
77.4970016479492
40
0.0
41
0.0
42
0.0
10
83.5046005249023
20
77.8803024291992
40
0.0
41
0.0
42
0.0
10
83.7035980224609
20
77.9981994628906
40
0.0
41
0.0
42
0.0
10
83.7369003295898
20
78.0016021728516
40
0.0
41
0.0
42
0.0
10
84.0019989013672
20
78.121696472168
40
0.0
41
0.0
42
0.0
10
84.4449005126953
20
77.9917984008789
40
0.0
41
0.0
42
0.0
10
84.4908981323242
20
77.9686965942383
40
0.0
41
0.0
42
0.0
10
84.947998046875
20
77.6364974975586
40
0.0
41
0.0
42
0.0
10
84.9878005981445
20
77.6023025512695
40
0.0
41
0.0
42
0.0
10
84.9990005493164
20
77.6023025512695
40
0.0
41
0.0
42
0.0
10
84.9989013671875
20
77.6344985961914
40
0.0
41
0.0
42
0.0
10
84.510498046875
20
77.9899978637695
40
0.0
41
0.0
42
0.0
10
84.0168991088867
20
78.1359024047852
40
0.0
41
0.0
42
0.0
10
83.9841995239258
20
78.1358032226562
40
0.0
41
0.0
42
0.0
10
83.6843032836914
20
77.9998016357422
40
0.0
41
0.0
42
0.0
10
83.6649017333984
20
77.9963989257812
40
0.0
41
0.0
42
0.0
10
83.4960021972656
20
77.8964996337891
40
0.0
41
0.0
42
0.0
10
83.2984008789062
20
77.5490036010742
40
0.0
41
0.0
42
0.0
10
83.2610015869141
20
77.5082015991211
40
0.0
41
0.0
42
0.0
10
83.0494003295898
20
77.0546035766602
40
0.0
41
0.0
42
0.0
10
83.0423965454102
20
77.0441970825195
40
0.0
41
0.0
42
0.0
10
83.0274963378906
20
77.0122985839844
40
0.0
41
0.0
42
0.0
10
83.0
20
76.9265975952148
40
0.0
41
0.0
42
0.0
10
82.9411010742188
20
76.7248001098633
40
0.0
41
0.0
42
0.0
10
82.8772964477539
20
76.5165023803711
40
0.0
41
0.0
42
0.0
10
82.8761978149414
20
76.4738006591797
40
0.0
41
0.0
42
0.0
10
82.8380966186523
20
76.0190963745117
40
0.0
41
0.0
42
0.0
10
82.8379974365234
20
75.984001159668
40
0.0
41
0.0
42
0.0
10
82.8553009033203
20
75.9413986206055
40
0.0
41
0.0
42
0.0
10
82.9680023193359
20
75.4878005981445
40
0.0
41
0.0
42
0.0
210
0.0
220
0.0
230
1.0
0
LWPOLYLINE
5
37
330
1C
100
AcDbEntity
67
0
8
0
62
256
6
ByLayer
370
-1
48
1.0
60
0
100
AcDbPolyline
90
20
70
1
38
0.0
39
0.0
10
83.6008987426758
20
65.0010986328125
40
0.0
41
0.0
42
0.0
10
83.8029022216797
20
65.4431991577148
40
0.0
41
0.0
42
0.0
10
83.82080078125
20
65.4880981445312
40
0.0
41
0.0
42
0.0
10
84.2675018310547
20
66.4893035888672
40
0.0
41
0.0
42
0.0
10
84.5017013549805
20
66.9168014526367
40
0.0
41
0.0
42
0.0
10
84.5267028808594
20
66.9577026367188
40
0.0
41
0.0
42
0.0
10
84.5444030761719
20
66.991096496582
40
0.0
41
0.0
42
0.0
10
84.8760986328125
20
67.4469985961914
40
0.0
41
0.0
42
0.0
10
84.9048004150391
20
67.489501953125
40
0.0
41
0.0
42
0.0
10
84.9990005493164
20
67.5770034790039
40
0.0
41
0.0
42
0.0
10
84.9990005493164
20
67.5988998413086
40
0.0
41
0.0
42
0.0
10
84.9881973266602
20
67.5988006591797
40
0.0
41
0.0
42
0.0
10
84.8879013061523
20
67.505500793457
40
0.0
41
0.0
42
0.0
10
84.526496887207
20
67.0083999633789
40
0.0
41
0.0
42
0.0
10
84.4981994628906
20
66.9610977172852
40
0.0
41
0.0
42
0.0
10
84.2505035400391
20
66.5105972290039
40
0.0
41
0.0
42
0.0
10
83.802001953125
20
65.5063018798828
40
0.0
41
0.0
42
0.0
10
83.5779037475586
20
65.0154037475586
40
0.0
41
0.0
42
0.0
10
83.5777969360352
20
65.0010986328125
40
0.0
41
0.0
42
0.0
10
83.6008987426758
20
65.0010986328125
40
0.0
41
0.0
42
0.0
210
0.0
220
0.0
230
1.0
0
VIEWPORT
5
3C
330
38
100
AcDbEntity
67
1
8
0
62
256
6
ByLayer
370
-1
48
1.0
60
0
100
AcDbViewport
10
0.0
20
0.0
30
0.0
40
297.0
41
210.0
68
1
69
1
12
50.0
22
100.0
13
0.0
23
0.0
14
10.0
24
10.0
15
10.0
25
10.0
16
0.0
26
0.0
36
1.0
17
0.0
27
0.0
37
0.0
42
50.0
43
0.0
44
0.0
45
250.0
50
0.0
51
0.0
72
1000
90
819232
110
0.0
120
0.0
130
0.0
111
1.0
121
0.0
131
0.0
112
0.0
122
1.0
132
0.0
0
ENDSEC
0
SECTION
2
OBJECTS
0
DICTIONARY
5
42
330
0
100
AcDbDictionary
280
1
281
1
3
ACAD_GROUP
350
12
3
ACAD_LAYOUT
350
3B
3
ACAD_DGNDEFINITIONS
350
F
3
ACAD_DWFDEFINITIONS
350
10
3
ACAD_PDFDEFINITIONS
350
11
3
ACAD_MLINESTYLE
350
B
3
ACAD_IMAGE_DICT
350
E
3
ACAD_IMAGE_VARS
350
21
0
DICTIONARY
5
12
330
42
100
AcDbDictionary
280
1
281
1
0
DICTIONARY
5
3B
330
42
100
AcDbDictionary
280
1
281
1
3
Model
350
20
3
Layout1
350
3D
0
DICTIONARY
5
F
330
42
100
AcDbDictionary
280
1
281
1
0
DICTIONARY
5
10
330
42
100
AcDbDictionary
280
1
281
1
0
DICTIONARY
5
11
330
42
100
AcDbDictionary
280
1
281
1
0
DICTIONARY
5
B
330
42
100
AcDbDictionary
280
1
281
1
3
Standard
350
1B
0
DICTIONARY
5
E
330
42
100
AcDbDictionary
280
1
281
1
0
DICTIONARY
5
6
330
5
100
AcDbDictionary
280
1
281
1
3
ACAD_LAYERSTATES
360
43
0
DICTIONARY
5
43
330
6
100
AcDbDictionary
280
1
281
1
0
LAYOUT
5
20
330
3B
100
AcDbPlotSettings
1

2
none_device
4
ISO_A4_(210.00_x_297.00_MM)
6

40
7.5
41
20.0
42
7.5
43
20.0
44
210.0
45
297.0
46
0.0
47
0.0
48
0.0
49
0.0
140
0.0
141
0.0
142
1.0
143
1.0
70
11952
72
1
73
1
74
1
7

75
0
76
0
77
2
78
300
147
1.0
148
0.0
149
0.0
100
AcDbLayout
1
Model
71
0
10
-20.0
20
-7.5
11
277.0
21
202.5
12
0.0
22
0.0
32
0.0
14
25.7
24
19.5
34
0.0
15
231.3
25
175.5
35
0.0
146
0.0
13
0.0
23
0.0
33
0.0
16
1.0
26
0.0
36
0.0
17
0.0
27
1.0
37
0.0
76
0
330
1C
0
LAYOUT
5
3D
330
3B
100
AcDbPlotSettings
1

2
none_device
4
ISO_A4_(210.00_x_297.00_MM)
6

40
7.5
41
20.0
42
7.5
43
20.0
44
210.0
45
297.0
46
0.0
47
0.0
48
0.0
49
0.0
140
0.0
141
0.0
142
1.0
143
1.0
70
688
72
1
73
1
74
1
7

75
0
76
0
77
2
78
300
147
1.0
148
0.0
149
0.0
100
AcDbLayout
1
Layout1
71
1
10
-20.0
20
-7.5
11
277.0
21
202.5
12
0.0
22
0.0
32
0.0
14
25.7
24
19.5
34
0.0
15
231.3
25
175.5
35
0.0
146
0.0
13
0.0
23
0.0
33
0.0
16
1.0
26
0.0
36
0.0
17
0.0
27
1.0
37
0.0
76
0
330
38
0
MLINESTYLE
5
1B
330
B
100
AcDbMlineStyle
2
Standard
70
0
3

62
256
51
90.0
52
90.0
71
2
49
0.5
62
256
6
ByLayer
49
-0.5
62
256
6
ByLayer
0
RASTERVARIABLES
5
21
330
E
100
AcDbRasterVariables
90
0
70
1
71
1
72
0
0
ENDSEC
0
EOF
