999
DXF file generated by netDxf https://github.com/haplokuon/netDxf, Copyright(C) Daniel Carvajal, Licensed under MIT
0
SECTION
2
HEADER
9
$ACADVER
1
AC1015
9
$DWGCODEPAGE
3
ANSI_1252
9
$HANDSEED
5
54
9
$ANGBASE
50
0.0
9
$ANGDIR
70
0
9
$ATTMODE
70
1
9
$AUNITS
70
0
9
$AUPREC
70
0
9
$CECOLOR
62
256
9
$CELTSCALE
40
1.0
9
$CELTYPE
6
ByLayer
9
$CELWEIGHT
370
-1
9
$CLAYER
8
0
9
$CMLJUST
70
0
9
$CMLSCALE
40
20.0
9
$CMLSTYLE
2
Standard
9
$DIMSTYLE
2
Standard
9
$TEXTSIZE
40
2.5
9
$TEXTSTYLE
7
Standard
9
$LUNITS
70
2
9
$LUPREC
70
4
9
$MIRRTEXT
70
0
9
$EXTNAMES
290
1
9
$INSBASE
10
0.0
20
0.0
30
0.0
9
$INSUNITS
70
0
9
$LTSCALE
40
1.0
9
$LWDISPLAY
290
0
9
$PDMODE
70
0
9
$PDSIZE
40
0.0
9
$PLINEGEN
70
0
9
$PSLTSCALE
70
1
9
$SPLINESEGS
70
8
9
$SURFU
70
6
9
$SURFV
70
6
9
$TDCREATE
40
2460823.48370909
9
$TDUCREATE
40
2460823.15037575
9
$TDUPDATE
40
2460823.48370909
9
$TDUUPDATE
40
2460823.15037575
9
$TDINDWG
40
0.0
9
$UCSORG
10
0.0
20
0.0
30
0.0
9
$UCSXDIR
10
1.0
20
0.0
30
0.0
9
$UCSYDIR
10
0.0
20
1.0
30
0.0
9
$DIMADEC
70
0
9
$DIMALT
70
0
9
$DIMALTD
70
2
9
$DIMALTF
40
25.4
9
$DIMALTRND
40
0.0
9
$DIMALTTD
70
2
9
$DIMALTTZ
70
0
9
$DIMALTU
70
2
9
$DIMALTZ
70
0
9
$DIMAPOST
1

9
$DIMATFIT
70
3
9
$DIMAUNIT
70
0
9
$DIMASZ
40
0.18
9
$DIMAZIN
70
0
9
$DIMSAH
70
0
9
$DIMBLK
1

9
$DIMLDRBLK
1

9
$DIMCEN
40
0.09
9
$DIMCLRD
70
0
9
$DIMCLRE
70
0
9
$DIMCLRT
70
0
9
$DIMDEC
70
4
9
$DIMDLE
40
0.0
9
$DIMDLI
40
0.38
9
$DIMDSEP
70
46
9
$DIMEXE
40
0.18
9
$DIMEXO
40
0.0625
9
$DIMFXLON
70
0
9
$DIMFXL
40
1.0
9
$DIMGAP
40
0.09
9
$DIMJUST
70
0
9
$DIMLFAC
40
1.0
9
$DIMLUNIT
70
2
9
$DIMLWD
70
-2
9
$DIMLWE
70
-2
9
$DIMPOST
1

9
$DIMRND
40
0.0
9
$DIMSCALE
40
1.0
9
$DIMSD1
70
0
9
$DIMSD2
70
0
9
$DIMSE1
70
0
9
$DIMSE2
70
0
9
$DIMSOXD
70
0
9
$DIMTAD
70
0
9
$DIMTDEC
70
4
9
$DIMTFAC
40
1.0
9
$DIMTIH
70
0
9
$DIMTIX
70
0
9
$DIMTM
40
0.0
9
$DIMTMOVE
70
0
9
$DIMTOFL
70
0
9
$DIMTOH
70
0
9
$DIMTOL
70
0
9
$DIMLIM
70
0
9
$DIMTOLJ
70
1
9
$DIMTP
40
0.0
9
$DIMTXT
40
0.18
9
$DIMTXTDIRECTION
70
0
9
$DIMTZIN
70
0
9
$DIMZIN
70
0
9
$DIMFRAC
70
0
9
$DIMLTYPE
6
ByBlock
9
$DIMLTEX1
6
ByBlock
9
$DIMLTEX2
6
ByBlock
0
ENDSEC
0
SECTION
2
CLASSES
0
CLASS
1
RASTERVARIABLES
2
AcDbRasterVariables
3
ISM
90
0
280
0
281
0
0
ENDSEC
0
SECTION
2
TABLES
0
TABLE
2
APPID
5
4
330
0
100
AcDbSymbolTable
70
5
0
APPID
5
19
330
4
100
AcDbSymbolTableRecord
100
AcDbRegAppTableRecord
2
ACAD
70
0
0
APPID
5
4E
330
4
100
AcDbSymbolTableRecord
100
AcDbRegAppTableRecord
2
AcCmTransparency
70
0
0
APPID
5
4F
330
4
100
AcDbSymbolTableRecord
100
AcDbRegAppTableRecord
2
AcAecLayerStandard
70
0
0
APPID
5
50
330
4
100
AcDbSymbolTableRecord
100
AcDbRegAppTableRecord
2
GradientColor1ACI
70
0
0
APPID
5
51
330
4
100
AcDbSymbolTableRecord
100
AcDbRegAppTableRecord
2
GradientColor2ACI
70
0
0
ENDTAB
0
TABLE
2
VPORT
5
1
330
0
100
AcDbSymbolTable
70
1
0
VPORT
5
2
330
1
100
AcDbSymbolTableRecord
100
AcDbViewportTableRecord
2
*Active
70
0
10
0.0
20
0.0
11
1.0
21
1.0
12
0.0
22
0.0
13
0.0
23
0.0
14
0.5
24
0.5
15
10.0
25
10.0
16
0.0
26
0.0
36
1.0
17
0.0
27
0.0
37
0.0
40
10.0
41
1.0
75
0
76
1
0
ENDTAB
0
TABLE
2
LTYPE
5
7
330
0
100
AcDbSymbolTable
70
3
0
LTYPE
5
15
330
7
100
AcDbSymbolTableRecord
100
AcDbLinetypeTableRecord
2
Continuous
70
0
3
Solid line
72
65
73
0
40
0.0
0
LTYPE
5
16
330
7
100
AcDbSymbolTableRecord
100
AcDbLinetypeTableRecord
2
ByLayer
70
0
3

72
65
73
0
40
0.0
0
LTYPE
5
17
330
7
100
AcDbSymbolTableRecord
100
AcDbLinetypeTableRecord
2
ByBlock
70
0
3

72
65
73
0
40
0.0
0
ENDTAB
0
TABLE
2
LAYER
5
5
102
{ACAD_XDICTIONARY
360
6
102
}
330
0
100
AcDbSymbolTable
70
1
0
LAYER
5
14
330
5
100
AcDbSymbolTableRecord
100
AcDbLayerTableRecord
2
0
70
0
62
7
6
Continuous
290
1
370
-3
390
0
0
ENDTAB
0
TABLE
2
STYLE
5
8
330
0
100
AcDbSymbolTable
70
1
0
STYLE
5
18
330
8
100
AcDbSymbolTableRecord
100
AcDbTextStyleTableRecord
2
Standard
3
simplex.shx
70
0
71
0
40
0.0
41
1.0
42
0.0
50
0.0
0
ENDTAB
0
TABLE
2
DIMSTYLE
5
A
330
0
100
AcDbSymbolTable
70
1
100
AcDbDimStyleTable
0
DIMSTYLE
105
1A
330
A
100
AcDbSymbolTableRecord
100
AcDbDimStyleTableRecord
2
Standard
3

4

40
1.0
41
0.18
42
0.0625
43
0.38
44
0.18
45
0.0
46
0.0
47
0.0
48
0.0
49
1.0
70
0
71
0
72
0
73
0
74
0
75
0
76
0
77
0
78
0
79
0
140
0.18
141
0.09
143
25.4
144
1.0
146
1.0
147
0.09
148
0.0
170
0
171
2
172
0
174
0
175
0
176
0
177
0
178
0
179
0
271
4
272
4
273
2
274
2
275
0
276
0
277
2
278
46
279
0
280
0
281
0
282
0
283
1
284
0
285
0
286
0
289
3
290
0
294
0
340
18
173
0
345
17
346
17
347
17
371
-2
372
-2
0
ENDTAB
0
TABLE
2
VIEW
5
3
330
0
100
AcDbSymbolTable
70
0
0
ENDTAB
0
TABLE
2
UCS
5
C
330
0
100
AcDbSymbolTable
70
0
0
ENDTAB
0
TABLE
2
BLOCK_RECORD
5
D
330
0
100
AcDbSymbolTable
70
2
0
BLOCK_RECORD
5
1C
330
D
100
AcDbSymbolTableRecord
100
AcDbBlockTableRecord
2
*Model_Space
340
20
0
BLOCK_RECORD
5
48
330
D
100
AcDbSymbolTableRecord
100
AcDbBlockTableRecord
2
*Paper_Space
340
4D
0
ENDTAB
0
ENDSEC
0
SECTION
2
BLOCKS
0
BLOCK
5
1E
330
1C
100
AcDbEntity
67
0
8
0
100
AcDbBlockBegin
2
*Model_Space
70
0
10
0.0
20
0.0
30
0.0
3
*Model_Space
4

0
ENDBLK
5
1D
330
1C
100
AcDbEntity
8
0
100
AcDbBlockEnd
0
BLOCK
5
4A
330
48
100
AcDbEntity
67
1
8
0
100
AcDbBlockBegin
2
*Paper_Space
70
0
10
0.0
20
0.0
30
0.0
3
*Paper_Space
4

0
ENDBLK
5
49
330
48
100
AcDbEntity
8
0
100
AcDbBlockEnd
0
ENDSEC
0
SECTION
2
ENTITIES
0
LWPOLYLINE
5
22
330
1C
100
AcDbEntity
67
0
8
0
62
256
6
ByLayer
370
-1
48
1.0
60
0
100
AcDbPolyline
90
23
70
1
38
0.0
39
0.0
10
65.2153015136719
20
66.9962997436523
40
0.0
41
0.0
42
0.0
10
65.44580078125
20
66.5029983520508
40
0.0
41
0.0
42
0.0
10
65.4549026489258
20
66.4781036376953
40
0.0
41
0.0
42
0.0
10
65.4992980957031
20
66.3730010986328
40
0.0
41
0.0
42
0.0
10
65.6491012573242
20
65.9927978515625
40
0.0
41
0.0
42
0.0
10
65.8224029541016
20
65.5007019042969
40
0.0
41
0.0
42
0.0
10
65.8256988525391
20
65.4854965209961
40
0.0
41
0.0
42
0.0
10
65.9839019775391
20
65.0009994506836
40
0.0
41
0.0
42
0.0
10
66.004997253418
20
65.0009994506836
40
0.0
41
0.0
42
0.0
10
66.0048980712891
20
65.0165023803711
40
0.0
41
0.0
42
0.0
10
65.8394012451172
20
65.5123977661133
40
0.0
41
0.0
42
0.0
10
65.8285980224609
20
65.5373001098633
40
0.0
41
0.0
42
0.0
10
65.6613006591797
20
66.0121994018555
40
0.0
41
0.0
42
0.0
10
65.6502990722656
20
66.0367965698242
40
0.0
41
0.0
42
0.0
10
65.5037002563477
20
66.4087982177734
40
0.0
41
0.0
42
0.0
10
65.4607009887695
20
66.5110015869141
40
0.0
41
0.0
42
0.0
10
65.4477996826172
20
66.5355987548828
40
0.0
41
0.0
42
0.0
10
65.2264022827148
20
67.0102005004883
40
0.0
41
0.0
42
0.0
10
65.0173034667969
20
67.371696472168
40
0.0
41
0.0
42
0.0
10
65.0087966918945
20
67.3845977783203
40
0.0
41
0.0
42
0.0
10
65.0009994506836
20
67.3845977783203
40
0.0
41
0.0
42
0.0
10
65.0009002685547
20
67.3676986694336
40
0.0
41
0.0
42
0.0
10
65.2153015136719
20
66.9962997436523
40
0.0
41
0.0
42
0.0
210
0.0
220
0.0
230
1.0
0
LWPOLYLINE
5
23
330
1C
100
AcDbEntity
67
0
8
0
62
256
6
ByLayer
370
-1
48
1.0
60
0
100
AcDbPolyline
90
77
70
1
38
0.0
39
0.0
10
65.1284027099609
20
75.488899230957
40
0.0
41
0.0
42
0.0
10
65.1417007446289
20
75.4658966064453
40
0.0
41
0.0
42
0.0
10
65.4515991210938
20
74.9924011230469
40
0.0
41
0.0
42
0.0
10
65.4725036621094
20
74.9671020507812
40
0.0
41
0.0
42
0.0
10
65.4929962158203
20
74.9471969604492
40
0.0
41
0.0
42
0.0
10
65.9630966186523
20
74.6410980224609
40
0.0
41
0.0
42
0.0
10
65.9822006225586
20
74.6371994018555
40
0.0
41
0.0
42
0.0
10
66.0145034790039
20
74.6371002197266
40
0.0
41
0.0
42
0.0
10
66.0334014892578
20
74.6475982666016
40
0.0
41
0.0
42
0.0
10
66.4807968139648
20
74.6747970581055
40
0.0
41
0.0
42
0.0
10
66.4842987060547
20
74.6734008789062
40
0.0
41
0.0
42
0.0
10
66.5139999389648
20
74.6733016967773
40
0.0
41
0.0
42
0.0
10
66.9973983764648
20
74.9712982177734
40
0.0
41
0.0
42
0.0
10
67.0130004882812
20
74.9739990234375
40
0.0
41
0.0
42
0.0
10
67.0227966308594
20
74.9793014526367
40
0.0
41
0.0
42
0.0
10
67.5066986083984
20
75.4169998168945
40
0.0
41
0.0
42
0.0
10
67.5897979736328
20
75.4785995483398
40
0.0
41
0.0
42
0.0
10
67.61669921875
20
75.4955978393555
40
0.0
41
0.0
42
0.0
10
67.9863967895508
20
75.9869995117188
40
0.0
41
0.0
42
0.0
10
67.9862976074219
20
76.0193023681641
40
0.0
41
0.0
42
0.0
10
67.9572982788086
20
76.5139999389648
40
0.0
41
0.0
42
0.0
10
67.9383010864258
20
76.5485992431641
40
0.0
41
0.0
42
0.0
10
67.7143020629883
20
77.0095977783203
40
0.0
41
0.0
42
0.0
10
67.6580963134766
20
77.095703125
40
0.0
41
0.0
42
0.0
10
67.502197265625
20
77.3522033691406
40
0.0
41
0.0
42
0.0
10
67.3967971801758
20
77.5070037841797
40
0.0
41
0.0
42
0.0
10
67.2626037597656
20
77.6576995849609
40
0.0
41
0.0
42
0.0
10
67.0071029663086
20
77.964599609375
40
0.0
41
0.0
42
0.0
10
66.9204025268555
20
78.0001983642578
40
0.0
41
0.0
42
0.0
10
66.5317001342773
20
78.1251983642578
40
0.0
41
0.0
42
0.0
10
66.4971008300781
20
78.1250991821289
40
0.0
41
0.0
42
0.0
10
66.4873962402344
20
78.1231994628906
40
0.0
41
0.0
42
0.0
10
66.4741973876953
20
78.1156005859375
40
0.0
41
0.0
42
0.0
10
65.9876022338867
20
77.977897644043
40
0.0
41
0.0
42
0.0
10
65.9661026000977
20
77.9671020507812
40
0.0
41
0.0
42
0.0
10
65.4937973022461
20
77.6100997924805
40
0.0
41
0.0
42
0.0
10
65.4029998779297
20
77.5176010131836
40
0.0
41
0.0
42
0.0
10
65.3893966674805
20
77.5059967041016
40
0.0
41
0.0
42
0.0
10
65.0815963745117
20
77.0327987670898
40
0.0
41
0.0
42
0.0
10
65.0643997192383
20
77.0103988647461
40
0.0
41
0.0
42
0.0
10
65.0009994506836
20
76.7894973754883
40
0.0
41
0.0
42
0.0
10
65.0009994506836
20
76.7025985717773
40
0.0
41
0.0
42
0.0
10
65.0040969848633
20
76.7024993896484
40
0.0
41
0.0
42
0.0
10
65.0801010131836
20
76.969596862793
40
0.0
41
0.0
42
0.0
10
65.0830993652344
20
76.9878005981445
40
0.0
41
0.0
42
0.0
10
65.4005966186523
20
77.475700378418
40
0.0
41
0.0
42
0.0
10
65.4095993041992
20
77.4925003051758
40
0.0
41
0.0
42
0.0
10
65.5184020996094
20
77.6029968261719
40
0.0
41
0.0
42
0.0
10
66.010498046875
20
77.9748001098633
40
0.0
41
0.0
42
0.0
10
66.486701965332
20
78.1103973388672
40
0.0
41
0.0
42
0.0
10
66.8315963745117
20
77.9996032714844
40
0.0
41
0.0
42
0.0
10
66.9673004150391
20
77.9440994262695
40
0.0
41
0.0
42
0.0
10
66.9956970214844
20
77.9128036499023
40
0.0
41
0.0
42
0.0
10
67.3455963134766
20
77.4925994873047
40
0.0
41
0.0
42
0.0
10
67.4730987548828
20
77.3050003051758
40
0.0
41
0.0
42
0.0
10
67.4983978271484
20
77.2534027099609
40
0.0
41
0.0
42
0.0
10
67.6584014892578
20
76.9899978637695
40
0.0
41
0.0
42
0.0
10
67.8649978637695
20
76.5649032592773
40
0.0
41
0.0
42
0.0
10
67.9002990722656
20
76.4849014282227
40
0.0
41
0.0
42
0.0
10
67.9264984130859
20
76.0126037597656
40
0.0
41
0.0
42
0.0
10
67.5755996704102
20
75.5442962646484
40
0.0
41
0.0
42
0.0
10
67.5493011474609
20
75.5052032470703
40
0.0
41
0.0
42
0.0
10
67.4933013916016
20
75.4636993408203
40
0.0
41
0.0
42
0.0
10
67.1878967285156
20
75.1866989135742
40
0.0
41
0.0
42
0.0
10
67.0197982788086
20
75.030403137207
40
0.0
41
0.0
42
0.0
10
66.9984970092773
20
75.0056991577148
40
0.0
41
0.0
42
0.0
10
66.9681015014648
20
74.97509765625
40
0.0
41
0.0
42
0.0
10
66.4865036010742
20
74.6781997680664
40
0.0
41
0.0
42
0.0
10
66.0109024047852
20
74.6502990722656
40
0.0
41
0.0
42
0.0
10
65.5213012695312
20
74.9690017700195
40
0.0
41
0.0
42
0.0
10
65.5039978027344
20
74.9876022338867
40
0.0
41
0.0
42
0.0
10
65.4800033569336
20
75.0178985595703
40
0.0
41
0.0
42
0.0
10
65.1579971313477
20
75.5103988647461
40
0.0
41
0.0
42
0.0
10
65.0053024291992
20
75.9244995117188
40
0.0
41
0.0
42
0.0
10
65.0009994506836
20
75.9244995117188
40
0.0
41
0.0
42
0.0
10
65.0009002685547
20
75.8323974609375
40
0.0
41
0.0
42
0.0
10
65.1284027099609
20
75.488899230957
40
0.0
41
0.0
42
0.0
210
0.0
220
0.0
230
1.0
0
LWPOLYLINE
5
24
330
1C
100
AcDbEntity
67
0
8
0
62
256
6
ByLayer
370
-1
48
1.0
60
0
100
AcDbPolyline
90
23
70
1
38
0.0
39
0.0
10
65.0165023803711
20
83.9947967529297
40
0.0
41
0.0
42
0.0
10
65.5124969482422
20
84.1603012084961
40
0.0
41
0.0
42
0.0
10
65.5373001098633
20
84.1710968017578
40
0.0
41
0.0
42
0.0
10
66.0121994018555
20
84.3384017944336
40
0.0
41
0.0
42
0.0
10
66.0367965698242
20
84.3494033813477
40
0.0
41
0.0
42
0.0
10
66.4087982177734
20
84.4960021972656
40
0.0
41
0.0
42
0.0
10
66.5110015869141
20
84.5391006469727
40
0.0
41
0.0
42
0.0
10
66.5356979370117
20
84.5519027709961
40
0.0
41
0.0
42
0.0
10
67.0102005004883
20
84.7733993530273
40
0.0
41
0.0
42
0.0
10
67.371696472168
20
84.9822998046875
40
0.0
41
0.0
42
0.0
10
67.3845977783203
20
84.991096496582
40
0.0
41
0.0
42
0.0
10
67.3845977783203
20
84.9990005493164
40
0.0
41
0.0
42
0.0
10
67.3676986694336
20
84.9989013671875
40
0.0
41
0.0
42
0.0
10
66.9963989257812
20
84.7844009399414
40
0.0
41
0.0
42
0.0
10
66.4884033203125
20
84.5482025146484
40
0.0
41
0.0
42
0.0
10
66.3729019165039
20
84.5005035400391
40
0.0
41
0.0
42
0.0
10
65.9918975830078
20
84.3503036499023
40
0.0
41
0.0
42
0.0
10
65.9710006713867
20
84.345100402832
40
0.0
41
0.0
42
0.0
10
65.484001159668
20
84.1735000610352
40
0.0
41
0.0
42
0.0
10
65.4686965942383
20
84.1728973388672
40
0.0
41
0.0
42
0.0
10
65.0009994506836
20
84.0199966430664
40
0.0
41
0.0
42
0.0
10
65.0009994506836
20
83.9949035644531
40
0.0
41
0.0
42
0.0
10
65.0165023803711
20
83.9947967529297
40
0.0
41
0.0
42
0.0
210
0.0
220
0.0
230
1.0
0
LWPOLYLINE
5
25
330
1C
100
AcDbEntity
67
0
8
0
62
256
6
ByLayer
370
-1
48
1.0
60
0
100
AcDbPolyline
90
46
70
1
38
0.0
39
0.0
10
66.4916000366211
20
69.6408004760742
40
0.0
41
0.0
42
0.0
10
66.5218963623047
20
69.4869003295898
40
0.0
41
0.0
42
0.0
10
66.6899032592773
20
69.1620025634766
40
0.0
41
0.0
42
0.0
10
66.77490234375
20
68.9886016845703
40
0.0
41
0.0
42
0.0
10
66.9710998535156
20
68.7824020385742
40
0.0
41
0.0
42
0.0
10
66.9860992431641
20
68.7618026733398
40
0.0
41
0.0
42
0.0
10
66.9927978515625
20
68.7558975219727
40
0.0
41
0.0
42
0.0
10
67.3619995117188
20
68.4980010986328
40
0.0
41
0.0
42
0.0
10
67.4504013061523
20
68.4527969360352
40
0.0
41
0.0
42
0.0
10
67.4880981445312
20
68.431396484375
40
0.0
41
0.0
42
0.0
10
67.9832992553711
20
68.2871017456055
40
0.0
41
0.0
42
0.0
10
68.4512023925781
20
68.2688980102539
40
0.0
41
0.0
42
0.0
10
68.5140991210938
20
68.2689971923828
40
0.0
41
0.0
42
0.0
10
68.5357971191406
20
68.2822036743164
40
0.0
41
0.0
42
0.0
10
69.0087966918945
20
68.4548034667969
40
0.0
41
0.0
42
0.0
10
69.0365982055664
20
68.4804992675781
40
0.0
41
0.0
42
0.0
10
69.2731018066406
20
68.9627990722656
40
0.0
41
0.0
42
0.0
10
69.2773971557617
20
68.9764022827148
40
0.0
41
0.0
42
0.0
10
69.2894973754883
20
68.9898986816406
40
0.0
41
0.0
42
0.0
10
69.2969970703125
20
69.0225982666016
40
0.0
41
0.0
42
0.0
10
69.3702011108398
20
69.4828033447266
40
0.0
41
0.0
42
0.0
10
69.377799987793
20
69.5477981567383
40
0.0
41
0.0
42
0.0
10
69.4067001342773
20
70.0695037841797
40
0.0
41
0.0
42
0.0
10
69.4066009521484
20
70.1084976196289
40
0.0
41
0.0
42
0.0
10
69.3896026611328
20
70.5186004638672
40
0.0
41
0.0
42
0.0
10
69.3844985961914
20
70.5810012817383
40
0.0
41
0.0
42
0.0
10
69.1199035644531
20
71.0036010742188
40
0.0
41
0.0
42
0.0
10
69.0622024536133
20
71.0310974121094
40
0.0
41
0.0
42
0.0
10
69.0141983032227
20
71.0503997802734
40
0.0
41
0.0
42
0.0
10
68.9776992797852
20
71.0565032958984
40
0.0
41
0.0
42
0.0
10
68.5140991210938
20
71.2246017456055
40
0.0
41
0.0
42
0.0
10
68.4564971923828
20
71.2371978759766
40
0.0
41
0.0
42
0.0
10
68.0156021118164
20
71.3602981567383
40
0.0
41
0.0
42
0.0
10
67.9085998535156
20
71.3758010864258
40
0.0
41
0.0
42
0.0
10
67.5182037353516
20
71.4421005249023
40
0.0
41
0.0
42
0.0
10
67.4824981689453
20
71.4421005249023
40
0.0
41
0.0
42
0.0
10
67.4441986083984
20
71.4326019287109
40
0.0
41
0.0
42
0.0
10
66.9903030395508
20
71.3569030761719
40
0.0
41
0.0
42
0.0
10
66.6704025268555
20
71.0232009887695
40
0.0
41
0.0
42
0.0
10
66.5018005371094
20
70.625602722168
40
0.0
41
0.0
42
0.0
10
66.4747009277344
20
70.5243988037109
40
0.0
41
0.0
42
0.0
10
66.4699020385742
20
70.5137023925781
40
0.0
41
0.0
42
0.0
10
66.4658966064453
20
70.4924011230469
40
0.0
41
0.0
42
0.0
10
66.4378967285156
20
70.0195007324219
40
0.0
41
0.0
42
0.0
10
66.4386978149414
20
69.9568023681641
40
0.0
41
0.0
42
0.0
10
66.4916000366211
20
69.6408004760742
40
0.0
41
0.0
42
0.0
210
0.0
220
0.0
230
1.0
0
LWPOLYLINE
5
26
330
1C
100
AcDbEntity
67
0
8
0
62
256
6
ByLayer
370
-1
48
1.0
60
0
100
AcDbPolyline
90
39
70
1
38
0.0
39
0.0
10
66.4456024169922
20
70.0167999267578
40
0.0
41
0.0
42
0.0
10
66.4732971191406
20
70.4832000732422
40
0.0
41
0.0
42
0.0
10
66.5002975463867
20
70.5882034301758
40
0.0
41
0.0
42
0.0
10
66.6675033569336
20
70.9830017089844
40
0.0
41
0.0
42
0.0
10
66.6828994750977
20
70.9973983764648
40
0.0
41
0.0
42
0.0
10
66.693000793457
20
71.0024032592773
40
0.0
41
0.0
42
0.0
10
67.0093994140625
20
71.3313980102539
40
0.0
41
0.0
42
0.0
10
67.0431976318359
20
71.331298828125
40
0.0
41
0.0
42
0.0
10
67.4998016357422
20
71.4074020385742
40
0.0
41
0.0
42
0.0
10
67.9598999023438
20
71.3293991088867
40
0.0
41
0.0
42
0.0
10
67.9860000610352
20
71.3209991455078
40
0.0
41
0.0
42
0.0
10
68.4552993774414
20
71.1899032592773
40
0.0
41
0.0
42
0.0
10
68.4878005981445
20
71.1755981445312
40
0.0
41
0.0
42
0.0
10
68.9223022460938
20
71.0180969238281
40
0.0
41
0.0
42
0.0
10
68.9615020751953
20
70.9981002807617
40
0.0
41
0.0
42
0.0
10
68.9947967529297
20
70.9765014648438
40
0.0
41
0.0
42
0.0
10
69.3320999145508
20
70.4915008544922
40
0.0
41
0.0
42
0.0
10
69.3509979248047
20
70.4614028930664
40
0.0
41
0.0
42
0.0
10
69.3706970214844
20
69.9826965332031
40
0.0
41
0.0
42
0.0
10
69.3748016357422
20
69.9646987915039
40
0.0
41
0.0
42
0.0
10
69.3504028320312
20
69.519401550293
40
0.0
41
0.0
42
0.0
10
69.3505020141602
20
69.4829025268555
40
0.0
41
0.0
42
0.0
10
69.2744979858398
20
69.0018997192383
40
0.0
41
0.0
42
0.0
10
69.0310974121094
20
68.5072021484375
40
0.0
41
0.0
42
0.0
10
68.9891967773438
20
68.4683990478516
40
0.0
41
0.0
42
0.0
10
68.9698028564453
20
68.4662017822266
40
0.0
41
0.0
42
0.0
10
68.4870986938477
20
68.2901000976562
40
0.0
41
0.0
42
0.0
10
68.0330963134766
20
68.3077011108398
40
0.0
41
0.0
42
0.0
10
68.0154037475586
20
68.3102035522461
40
0.0
41
0.0
42
0.0
10
67.9317016601562
20
68.3359985351562
40
0.0
41
0.0
42
0.0
10
67.5121002197266
20
68.4589004516602
40
0.0
41
0.0
42
0.0
10
67.4150009155273
20
68.5084991455078
40
0.0
41
0.0
42
0.0
10
67.0086975097656
20
68.7919998168945
40
0.0
41
0.0
42
0.0
10
66.8043975830078
20
69.0063018798828
40
0.0
41
0.0
42
0.0
10
66.7913970947266
20
69.0236968994141
40
0.0
41
0.0
42
0.0
10
66.5391006469727
20
69.5117034912109
40
0.0
41
0.0
42
0.0
10
66.5330963134766
20
69.5295028686523
40
0.0
41
0.0
42
0.0
10
66.4991989135742
20
69.6966018676758
40
0.0
41
0.0
42
0.0
10
66.4456024169922
20
70.0167999267578
40
0.0
41
0.0
42
0.0
210
0.0
220
0.0
230
1.0
0
LWPOLYLINE
5
27
330
1C
100
AcDbEntity
67
0
8
0
62
256
6
ByLayer
370
-1
48
1.0
60
0
100
AcDbPolyline
90
46
70
1
38
0.0
39
0.0
10
68.4548034667969
20
80.991096496582
40
0.0
41
0.0
42
0.0
10
68.4804992675781
20
80.9630966186523
40
0.0
41
0.0
42
0.0
10
68.4859008789062
20
80.9604034423828
40
0.0
41
0.0
42
0.0
10
68.497200012207
20
80.959098815918
40
0.0
41
0.0
42
0.0
10
68.9728012084961
20
80.7258987426758
40
0.0
41
0.0
42
0.0
10
68.9899978637695
20
80.7101974487305
40
0.0
41
0.0
42
0.0
10
69.0225982666016
20
80.7026977539062
40
0.0
41
0.0
42
0.0
10
69.4828033447266
20
80.6295013427734
40
0.0
41
0.0
42
0.0
10
69.5476989746094
20
80.6219024658203
40
0.0
41
0.0
42
0.0
10
70.0695037841797
20
80.5932006835938
40
0.0
41
0.0
42
0.0
10
70.1084976196289
20
80.5931015014648
40
0.0
41
0.0
42
0.0
10
70.5186996459961
20
80.6100997924805
40
0.0
41
0.0
42
0.0
10
70.5811004638672
20
80.6151962280273
40
0.0
41
0.0
42
0.0
10
71.0036010742188
20
80.8798980712891
40
0.0
41
0.0
42
0.0
10
71.0310974121094
20
80.9375991821289
40
0.0
41
0.0
42
0.0
10
71.0503997802734
20
80.9856033325195
40
0.0
41
0.0
42
0.0
10
71.0565032958984
20
81.022102355957
40
0.0
41
0.0
42
0.0
10
71.2246017456055
20
81.4858016967773
40
0.0
41
0.0
42
0.0
10
71.2371978759766
20
81.5432968139648
40
0.0
41
0.0
42
0.0
10
71.3602981567383
20
81.9842987060547
40
0.0
41
0.0
42
0.0
10
71.3758010864258
20
82.0912017822266
40
0.0
41
0.0
42
0.0
10
71.4421005249023
20
82.4816970825195
40
0.0
41
0.0
42
0.0
10
71.4420013427734
20
82.5174026489258
40
0.0
41
0.0
42
0.0
10
71.4326019287109
20
82.5556030273438
40
0.0
41
0.0
42
0.0
10
71.3567962646484
20
83.0095977783203
40
0.0
41
0.0
42
0.0
10
71.0232009887695
20
83.3293991088867
40
0.0
41
0.0
42
0.0
10
70.625602722168
20
83.4979019165039
40
0.0
41
0.0
42
0.0
10
70.5243988037109
20
83.5251007080078
40
0.0
41
0.0
42
0.0
10
70.5149002075195
20
83.529296875
40
0.0
41
0.0
42
0.0
10
70.0423965454102
20
83.5571975708008
40
0.0
41
0.0
42
0.0
10
70.0180969238281
20
83.5617980957031
40
0.0
41
0.0
42
0.0
10
69.9568023681641
20
83.5609970092773
40
0.0
41
0.0
42
0.0
10
69.6408004760742
20
83.5081024169922
40
0.0
41
0.0
42
0.0
10
69.4869995117188
20
83.4777984619141
40
0.0
41
0.0
42
0.0
10
69.1620025634766
20
83.3097991943359
40
0.0
41
0.0
42
0.0
10
68.9921035766602
20
83.2268981933594
40
0.0
41
0.0
42
0.0
10
68.7879028320312
20
83.0326995849609
40
0.0
41
0.0
42
0.0
10
68.7548980712891
20
83.005500793457
40
0.0
41
0.0
42
0.0
10
68.4980010986328
20
82.6378021240234
40
0.0
41
0.0
42
0.0
10
68.4527969360352
20
82.5494003295898
40
0.0
41
0.0
42
0.0
10
68.431396484375
20
82.5117034912109
40
0.0
41
0.0
42
0.0
10
68.2871017456055
20
82.0166015625
40
0.0
41
0.0
42
0.0
10
68.2688980102539
20
81.5485992431641
40
0.0
41
0.0
42
0.0
10
68.2688980102539
20
81.4858016967773
40
0.0
41
0.0
42
0.0
10
68.282096862793
20
81.4641036987305
40
0.0
41
0.0
42
0.0
10
68.4548034667969
20
80.991096496582
40
0.0
41
0.0
42
0.0
210
0.0
220
0.0
230
1.0
0
LWPOLYLINE
5
28
330
1C
100
AcDbEntity
67
0
8
0
62
256
6
ByLayer
370
-1
48
1.0
60
0
100
AcDbPolyline
90
43
70
1
38
0.0
39
0.0
10
68.3102035522461
20
81.9844970703125
40
0.0
41
0.0
42
0.0
10
68.3359985351562
20
82.0680999755859
40
0.0
41
0.0
42
0.0
10
68.4589996337891
20
82.4877014160156
40
0.0
41
0.0
42
0.0
10
68.5018997192383
20
82.5718002319336
40
0.0
41
0.0
42
0.0
10
68.7378997802734
20
82.9095993041992
40
0.0
41
0.0
42
0.0
10
68.7940979003906
20
82.9935989379883
40
0.0
41
0.0
42
0.0
10
69.0064010620117
20
83.1952972412109
40
0.0
41
0.0
42
0.0
10
69.0238037109375
20
83.2082977294922
40
0.0
41
0.0
42
0.0
10
69.5118026733398
20
83.4608001708984
40
0.0
41
0.0
42
0.0
10
69.5295028686523
20
83.4665985107422
40
0.0
41
0.0
42
0.0
10
69.6966018676758
20
83.500602722168
40
0.0
41
0.0
42
0.0
10
70.0167999267578
20
83.5541000366211
40
0.0
41
0.0
42
0.0
10
70.4832000732422
20
83.5263977050781
40
0.0
41
0.0
42
0.0
10
70.5882034301758
20
83.499397277832
40
0.0
41
0.0
42
0.0
10
70.9830017089844
20
83.3321990966797
40
0.0
41
0.0
42
0.0
10
70.9973983764648
20
83.3169021606445
40
0.0
41
0.0
42
0.0
10
71.0022964477539
20
83.3068008422852
40
0.0
41
0.0
42
0.0
10
71.3313980102539
20
82.9904022216797
40
0.0
41
0.0
42
0.0
10
71.331298828125
20
82.9567031860352
40
0.0
41
0.0
42
0.0
10
71.4075012207031
20
82.5000991821289
40
0.0
41
0.0
42
0.0
10
71.3293991088867
20
82.0399017333984
40
0.0
41
0.0
42
0.0
10
71.3209991455078
20
82.0139007568359
40
0.0
41
0.0
42
0.0
10
71.1900024414062
20
81.5444030761719
40
0.0
41
0.0
42
0.0
10
71.1755981445312
20
81.5121002197266
40
0.0
41
0.0
42
0.0
10
71.0182037353516
20
81.0775985717773
40
0.0
41
0.0
42
0.0
10
70.9981994628906
20
81.0382995605469
40
0.0
41
0.0
42
0.0
10
70.9765014648438
20
81.0050964355469
40
0.0
41
0.0
42
0.0
10
70.4915008544922
20
80.6676025390625
40
0.0
41
0.0
42
0.0
10
70.4614028930664
20
80.6486968994141
40
0.0
41
0.0
42
0.0
10
70.0026016235352
20
80.6296997070312
40
0.0
41
0.0
42
0.0
10
69.5446014404297
20
80.654899597168
40
0.0
41
0.0
42
0.0
10
69.5072021484375
20
80.6548004150391
40
0.0
41
0.0
42
0.0
10
69.4973983764648
20
80.6526031494141
40
0.0
41
0.0
42
0.0
10
69.0432968139648
20
80.7249984741211
40
0.0
41
0.0
42
0.0
10
69.0115966796875
20
80.7248992919922
40
0.0
41
0.0
42
0.0
10
68.5373992919922
20
80.9574966430664
40
0.0
41
0.0
42
0.0
10
68.5199966430664
20
80.96240234375
40
0.0
41
0.0
42
0.0
10
68.5071029663086
20
80.9685974121094
40
0.0
41
0.0
42
0.0
10
68.4683990478516
20
81.0108032226562
40
0.0
41
0.0
42
0.0
10
68.4662017822266
20
81.0300979614258
40
0.0
41
0.0
42
0.0
10
68.2901000976562
20
81.5128021240234
40
0.0
41
0.0
42
0.0
10
68.3077011108398
20
81.966796875
40
0.0
41
0.0
42
0.0
10
68.3102035522461
20
81.9844970703125
40
0.0
41
0.0
42
0.0
210
0.0
220
0.0
230
1.0
0
LWPOLYLINE
5
29
330
1C
100
AcDbEntity
67
0
8
0
62
256
6
ByLayer
370
-1
48
1.0
60
0
100
AcDbPolyline
90
89
70
1
38
0.0
39
0.0
10
69.4770965576172
20
75.1837997436523
40
0.0
41
0.0
42
0.0
10
69.4936981201172
20
75.1761016845703
40
0.0
41
0.0
42
0.0
10
69.6251983642578
20
74.9971008300781
40
0.0
41
0.0
42
0.0
10
69.9842987060547
20
74.6824035644531
40
0.0
41
0.0
42
0.0
10
70.0015029907227
20
74.6649017333984
40
0.0
41
0.0
42
0.0
10
70.2095031738281
20
74.495002746582
40
0.0
41
0.0
42
0.0
10
70.4953994750977
20
74.1602020263672
40
0.0
41
0.0
42
0.0
10
70.6588973999023
20
73.9889984130859
40
0.0
41
0.0
42
0.0
10
70.5991973876953
20
73.5141983032227
40
0.0
41
0.0
42
0.0
10
70.4982986450195
20
73.290901184082
40
0.0
41
0.0
42
0.0
10
70.4925994873047
20
73.2827987670898
40
0.0
41
0.0
42
0.0
10
70.3842010498047
20
73.0122985839844
40
0.0
41
0.0
42
0.0
10
70.1984024047852
20
72.5251998901367
40
0.0
41
0.0
42
0.0
10
70.1887969970703
20
72.5109024047852
40
0.0
41
0.0
42
0.0
10
70.1689987182617
20
72.4440002441406
40
0.0
41
0.0
42
0.0
10
70.0665969848633
20
72.0169982910156
40
0.0
41
0.0
42
0.0
10
70.0627975463867
20
71.9233016967773
40
0.0
41
0.0
42
0.0
10
70.0626983642578
20
71.8849029541016
40
0.0
41
0.0
42
0.0
10
70.1043014526367
20
71.4941024780273
40
0.0
41
0.0
42
0.0
10
70.1318969726562
20
71.4814987182617
40
0.0
41
0.0
42
0.0
10
70.4854965209961
20
71.2789001464844
40
0.0
41
0.0
42
0.0
10
70.5154037475586
20
71.2788009643555
40
0.0
41
0.0
42
0.0
10
70.5205001831055
20
71.2810974121094
40
0.0
41
0.0
42
0.0
10
70.9813995361328
20
71.2151031494141
40
0.0
41
0.0
42
0.0
10
71.0374984741211
20
71.2154006958008
40
0.0
41
0.0
42
0.0
10
70.5386962890625
20
71.2865982055664
40
0.0
41
0.0
42
0.0
10
70.5117034912109
20
71.2996978759766
40
0.0
41
0.0
42
0.0
10
70.1540985107422
20
71.504997253418
40
0.0
41
0.0
42
0.0
10
70.1386032104492
20
71.5392990112305
40
0.0
41
0.0
42
0.0
10
70.090202331543
20
71.9935989379883
40
0.0
41
0.0
42
0.0
10
70.2014999389648
20
72.4574966430664
40
0.0
41
0.0
42
0.0
10
70.2039031982422
20
72.4847030639648
40
0.0
41
0.0
42
0.0
10
70.3858032226562
20
72.9615020751953
40
0.0
41
0.0
42
0.0
10
70.3927993774414
20
72.986701965332
40
0.0
41
0.0
42
0.0
10
70.500602722168
20
73.2554016113281
40
0.0
41
0.0
42
0.0
10
70.5941009521484
20
73.4623031616211
40
0.0
41
0.0
42
0.0
10
70.6011962890625
20
73.4844970703125
40
0.0
41
0.0
42
0.0
10
70.6626968383789
20
73.9729995727539
40
0.0
41
0.0
42
0.0
10
70.6728973388672
20
73.9868011474609
40
0.0
41
0.0
42
0.0
10
70.6728973388672
20
74.0136032104492
40
0.0
41
0.0
42
0.0
10
70.5201034545898
20
74.1740036010742
40
0.0
41
0.0
42
0.0
10
70.5118026733398
20
74.1819000244141
40
0.0
41
0.0
42
0.0
10
70.5070037841797
20
74.1838989257812
40
0.0
41
0.0
42
0.0
10
70.2332992553711
20
74.5048980712891
40
0.0
41
0.0
42
0.0
10
70.0233001708984
20
74.6764984130859
40
0.0
41
0.0
42
0.0
10
70.0080032348633
20
74.6845016479492
40
0.0
41
0.0
42
0.0
10
69.6521987915039
20
74.9969024658203
40
0.0
41
0.0
42
0.0
10
69.6405029296875
20
75.0043029785156
40
0.0
41
0.0
42
0.0
10
69.5102996826172
20
75.1811981201172
40
0.0
41
0.0
42
0.0
10
69.496696472168
20
75.2048034667969
40
0.0
41
0.0
42
0.0
10
69.1909027099609
20
75.5093994140625
40
0.0
41
0.0
42
0.0
10
69.0854034423828
20
75.9873962402344
40
0.0
41
0.0
42
0.0
10
69.505500793457
20
76.378303527832
40
0.0
41
0.0
42
0.0
10
69.6277008056641
20
76.4972991943359
40
0.0
41
0.0
42
0.0
10
70.0100021362305
20
76.6849975585938
40
0.0
41
0.0
42
0.0
10
70.035400390625
20
76.6997985839844
40
0.0
41
0.0
42
0.0
10
70.5119018554688
20
76.9126968383789
40
0.0
41
0.0
42
0.0
10
70.736198425293
20
76.9987030029297
40
0.0
41
0.0
42
0.0
10
71.0055999755859
20
77.1797027587891
40
0.0
41
0.0
42
0.0
10
71.2487030029297
20
77.4833984375
40
0.0
41
0.0
42
0.0
10
71.2550964355469
20
77.4844970703125
40
0.0
41
0.0
42
0.0
10
71.2573013305664
20
77.4871978759766
40
0.0
41
0.0
42
0.0
10
71.2572021484375
20
77.5167999267578
40
0.0
41
0.0
42
0.0
10
71.2530975341797
20
77.530403137207
40
0.0
41
0.0
42
0.0
10
71.2583999633789
20
78.0168991088867
40
0.0
41
0.0
42
0.0
10
71.2539978027344
20
78.0310974121094
40
0.0
41
0.0
42
0.0
10
71.2208023071289
20
78.5165023803711
40
0.0
41
0.0
42
0.0
10
71.2185974121094
20
78.52490234375
40
0.0
41
0.0
42
0.0
10
71.2160034179688
20
78.8720016479492
40
0.0
41
0.0
42
0.0
10
71.2184982299805
20
78.4983978271484
40
0.0
41
0.0
42
0.0
10
71.2201995849609
20
78.4849014282227
40
0.0
41
0.0
42
0.0
10
71.220100402832
20
78.4557037353516
40
0.0
41
0.0
42
0.0
10
71.2516021728516
20
77.9952011108398
40
0.0
41
0.0
42
0.0
10
71.2457962036133
20
77.5141983032227
40
0.0
41
0.0
42
0.0
10
71.2342987060547
20
77.494499206543
40
0.0
41
0.0
42
0.0
10
70.9944000244141
20
77.1945037841797
40
0.0
41
0.0
42
0.0
10
70.7067031860352
20
77.0010986328125
40
0.0
41
0.0
42
0.0
10
70.4873962402344
20
76.9181976318359
40
0.0
41
0.0
42
0.0
10
70.4710998535156
20
76.915397644043
40
0.0
41
0.0
42
0.0
10
69.9859008789062
20
76.6986999511719
40
0.0
41
0.0
42
0.0
10
69.9717025756836
20
76.6965026855469
40
0.0
41
0.0
42
0.0
10
69.9188003540039
20
76.6681976318359
40
0.0
41
0.0
42
0.0
10
69.5807037353516
20
76.5026016235352
40
0.0
41
0.0
42
0.0
10
69.4944000244141
20
76.418701171875
40
0.0
41
0.0
42
0.0
10
69.0539016723633
20
76.0108032226562
40
0.0
41
0.0
42
0.0
10
69.0538024902344
20
75.9842987060547
40
0.0
41
0.0
42
0.0
10
69.0659027099609
20
75.9563980102539
40
0.0
41
0.0
42
0.0
10
69.168701171875
20
75.4908981323242
40
0.0
41
0.0
42
0.0
10
69.4770965576172
20
75.1837997436523
40
0.0
41
0.0
42
0.0
210
0.0
220
0.0
230
1.0
0
LWPOLYLINE
5
2A
330
1C
100
AcDbEntity
67
0
8
0
62
256
6
ByLayer
370
-1
48
1.0
60
0
100
AcDbPolyline
90
261
70
1
38
0.0
39
0.0
10
71.2154006958008
20
78.9621963500977
40
0.0
41
0.0
42
0.0
10
71.2866973876953
20
79.4611968994141
40
0.0
41
0.0
42
0.0
10
71.2996978759766
20
79.4880981445312
40
0.0
41
0.0
42
0.0
10
71.5050964355469
20
79.8455963134766
40
0.0
41
0.0
42
0.0
10
71.5393981933594
20
79.8610992431641
40
0.0
41
0.0
42
0.0
10
72.0063018798828
20
79.9103012084961
40
0.0
41
0.0
42
0.0
10
72.486198425293
20
79.7951965332031
40
0.0
41
0.0
42
0.0
10
72.9615020751953
20
79.613899230957
40
0.0
41
0.0
42
0.0
10
72.9866027832031
20
79.6069030761719
40
0.0
41
0.0
42
0.0
10
73.2554016113281
20
79.4991989135742
40
0.0
41
0.0
42
0.0
10
73.4623031616211
20
79.4056015014648
40
0.0
41
0.0
42
0.0
10
73.4844970703125
20
79.3984985351562
40
0.0
41
0.0
42
0.0
10
73.9729995727539
20
79.3370971679688
40
0.0
41
0.0
42
0.0
10
73.9868011474609
20
79.3270034790039
40
0.0
41
0.0
42
0.0
10
74.0114974975586
20
79.3270034790039
40
0.0
41
0.0
42
0.0
10
74.1710968017578
20
79.4788970947266
40
0.0
41
0.0
42
0.0
10
74.1752014160156
20
79.4813003540039
40
0.0
41
0.0
42
0.0
10
74.1862030029297
20
79.4946975708008
40
0.0
41
0.0
42
0.0
10
74.5048980712891
20
79.7665023803711
40
0.0
41
0.0
42
0.0
10
74.6764984130859
20
79.9766006469727
40
0.0
41
0.0
42
0.0
10
74.6845016479492
20
79.9918975830078
40
0.0
41
0.0
42
0.0
10
74.9969024658203
20
80.3476028442383
40
0.0
41
0.0
42
0.0
10
75.0043029785156
20
80.3592987060547
40
0.0
41
0.0
42
0.0
10
75.1812973022461
20
80.4894027709961
40
0.0
41
0.0
42
0.0
10
75.2048034667969
20
80.5030975341797
40
0.0
41
0.0
42
0.0
10
75.50830078125
20
80.8078994750977
40
0.0
41
0.0
42
0.0
10
75.5427017211914
20
80.8078994750977
40
0.0
41
0.0
42
0.0
10
75.993896484375
20
80.9075012207031
40
0.0
41
0.0
42
0.0
10
76.3781967163086
20
80.4944000244141
40
0.0
41
0.0
42
0.0
10
76.4972991943359
20
80.3721008300781
40
0.0
41
0.0
42
0.0
10
76.6849975585938
20
79.9898986816406
40
0.0
41
0.0
42
0.0
10
76.6997985839844
20
79.9645004272461
40
0.0
41
0.0
42
0.0
10
76.91259765625
20
79.4878997802734
40
0.0
41
0.0
42
0.0
10
76.9906997680664
20
79.2817001342773
40
0.0
41
0.0
42
0.0
10
76.9983978271484
20
79.2640991210938
40
0.0
41
0.0
42
0.0
10
77.1796035766602
20
78.9943008422852
40
0.0
41
0.0
42
0.0
10
77.4785003662109
20
78.7550964355469
40
0.0
41
0.0
42
0.0
10
77.489501953125
20
78.7425994873047
40
0.0
41
0.0
42
0.0
10
77.5167999267578
20
78.7425003051758
40
0.0
41
0.0
42
0.0
10
77.530403137207
20
78.746696472168
40
0.0
41
0.0
42
0.0
10
78.0193023681641
20
78.7413024902344
40
0.0
41
0.0
42
0.0
10
78.5010986328125
20
78.774299621582
40
0.0
41
0.0
42
0.0
10
78.5142974853516
20
78.7782974243164
40
0.0
41
0.0
42
0.0
10
78.9832992553711
20
78.7815017700195
40
0.0
41
0.0
42
0.0
10
79.4610977172852
20
78.7129974365234
40
0.0
41
0.0
42
0.0
10
79.4880981445312
20
78.6999969482422
40
0.0
41
0.0
42
0.0
10
79.8454971313477
20
78.4947967529297
40
0.0
41
0.0
42
0.0
10
79.8610992431641
20
78.4605026245117
40
0.0
41
0.0
42
0.0
10
79.9103012084961
20
77.9935989379883
40
0.0
41
0.0
42
0.0
10
79.7951965332031
20
77.5137023925781
40
0.0
41
0.0
42
0.0
10
79.613899230957
20
77.0383987426758
40
0.0
41
0.0
42
0.0
10
79.6069030761719
20
77.0131988525391
40
0.0
41
0.0
42
0.0
10
79.4992980957031
20
76.744499206543
40
0.0
41
0.0
42
0.0
10
79.4056015014648
20
76.5374984741211
40
0.0
41
0.0
42
0.0
10
79.3984985351562
20
76.5154037475586
40
0.0
41
0.0
42
0.0
10
79.3370971679688
20
76.0269012451172
40
0.0
41
0.0
42
0.0
10
79.3270034790039
20
76.0130996704102
40
0.0
41
0.0
42
0.0
10
79.3268966674805
20
75.9884033203125
40
0.0
41
0.0
42
0.0
10
79.4954986572266
20
75.8125991821289
40
0.0
41
0.0
42
0.0
10
79.7664031982422
20
75.4949035644531
40
0.0
41
0.0
42
0.0
10
79.9765014648438
20
75.3231964111328
40
0.0
41
0.0
42
0.0
10
79.9917984008789
20
75.3152008056641
40
0.0
41
0.0
42
0.0
10
80.3475036621094
20
75.002799987793
40
0.0
41
0.0
42
0.0
10
80.3591995239258
20
74.9955978393555
40
0.0
41
0.0
42
0.0
10
80.4894027709961
20
74.8184967041016
40
0.0
41
0.0
42
0.0
10
80.5029983520508
20
74.7948989868164
40
0.0
41
0.0
42
0.0
10
80.8078994750977
20
74.4915008544922
40
0.0
41
0.0
42
0.0
10
80.8078002929688
20
74.4571990966797
40
0.0
41
0.0
42
0.0
10
80.907600402832
20
74.0057983398438
40
0.0
41
0.0
42
0.0
10
80.4944000244141
20
73.6214981079102
40
0.0
41
0.0
42
0.0
10
80.3721008300781
20
73.5026016235352
40
0.0
41
0.0
42
0.0
10
79.988899230957
20
73.3142013549805
40
0.0
41
0.0
42
0.0
10
79.5146026611328
20
73.1024017333984
40
0.0
41
0.0
42
0.0
10
79.4890975952148
20
73.0875015258789
40
0.0
41
0.0
42
0.0
10
79.2637023925781
20
73.0010986328125
40
0.0
41
0.0
42
0.0
10
78.9869995117188
20
72.8152008056641
40
0.0
41
0.0
42
0.0
10
78.9842987060547
20
72.8151016235352
40
0.0
41
0.0
42
0.0
10
78.745002746582
20
72.5158996582031
40
0.0
41
0.0
42
0.0
10
78.7425003051758
20
72.5152969360352
40
0.0
41
0.0
42
0.0
10
78.7425003051758
20
72.4831008911133
40
0.0
41
0.0
42
0.0
10
78.746696472168
20
72.4694976806641
40
0.0
41
0.0
42
0.0
10
78.7413024902344
20
71.9804992675781
40
0.0
41
0.0
42
0.0
10
78.7742004394531
20
71.4988021850586
40
0.0
41
0.0
42
0.0
10
78.7782974243164
20
71.4854965209961
40
0.0
41
0.0
42
0.0
10
78.7815017700195
20
71.0166015625
40
0.0
41
0.0
42
0.0
10
78.7130966186523
20
70.5386962890625
40
0.0
41
0.0
42
0.0
10
78.6999969482422
20
70.5117034912109
40
0.0
41
0.0
42
0.0
10
78.4949035644531
20
70.1541976928711
40
0.0
41
0.0
42
0.0
10
78.4606018066406
20
70.1386032104492
40
0.0
41
0.0
42
0.0
10
78.0063018798828
20
70.090202331543
40
0.0
41
0.0
42
0.0
10
77.5416030883789
20
70.2016983032227
40
0.0
41
0.0
42
0.0
10
77.5151977539062
20
70.2039031982422
40
0.0
41
0.0
42
0.0
10
77.0383987426758
20
70.3858032226562
40
0.0
41
0.0
42
0.0
10
77.0131988525391
20
70.3927993774414
40
0.0
41
0.0
42
0.0
10
76.744499206543
20
70.500602722168
40
0.0
41
0.0
42
0.0
10
76.5373992919922
20
70.5941009521484
40
0.0
41
0.0
42
0.0
10
76.5154037475586
20
70.6011962890625
40
0.0
41
0.0
42
0.0
10
76.0269012451172
20
70.66259765625
40
0.0
41
0.0
42
0.0
10
76.0130996704102
20
70.6728973388672
40
0.0
41
0.0
42
0.0
10
75.9860992431641
20
70.6728973388672
40
0.0
41
0.0
42
0.0
10
75.825798034668
20
70.5201034545898
40
0.0
41
0.0
42
0.0
10
75.8179016113281
20
70.5118026733398
40
0.0
41
0.0
42
0.0
10
75.815803527832
20
70.5071029663086
40
0.0
41
0.0
42
0.0
10
75.495002746582
20
70.2332992553711
40
0.0
41
0.0
42
0.0
10
75.3233032226562
20
70.0233001708984
40
0.0
41
0.0
42
0.0
10
75.315299987793
20
70.0080032348633
40
0.0
41
0.0
42
0.0
10
75.0028991699219
20
69.6522979736328
40
0.0
41
0.0
42
0.0
10
74.9955978393555
20
69.6406021118164
40
0.0
41
0.0
42
0.0
10
74.8184967041016
20
69.5103988647461
40
0.0
41
0.0
42
0.0
10
74.7949981689453
20
69.496696472168
40
0.0
41
0.0
42
0.0
10
74.4905014038086
20
69.1909027099609
40
0.0
41
0.0
42
0.0
10
74.0122985839844
20
69.0852966308594
40
0.0
41
0.0
42
0.0
10
73.6214981079102
20
69.5054016113281
40
0.0
41
0.0
42
0.0
10
73.5025024414062
20
69.6277008056641
40
0.0
41
0.0
42
0.0
10
73.3142013549805
20
70.0110015869141
40
0.0
41
0.0
42
0.0
10
73.1024017333984
20
70.4852981567383
40
0.0
41
0.0
42
0.0
10
73.08740234375
20
70.5108032226562
40
0.0
41
0.0
42
0.0
10
73.0010986328125
20
70.736198425293
40
0.0
41
0.0
42
0.0
10
72.8152008056641
20
71.0129013061523
40
0.0
41
0.0
42
0.0
10
72.8151016235352
20
71.0154037475586
40
0.0
41
0.0
42
0.0
10
72.5158996582031
20
71.2547988891602
40
0.0
41
0.0
42
0.0
10
72.5152969360352
20
71.2572021484375
40
0.0
41
0.0
42
0.0
10
72.4831008911133
20
71.2572021484375
40
0.0
41
0.0
42
0.0
10
72.4694976806641
20
71.2530975341797
40
0.0
41
0.0
42
0.0
10
71.9830017089844
20
71.2583999633789
40
0.0
41
0.0
42
0.0
10
71.9688034057617
20
71.2539978027344
40
0.0
41
0.0
42
0.0
10
71.4833984375
20
71.2209014892578
40
0.0
41
0.0
42
0.0
10
71.4748992919922
20
71.2185974121094
40
0.0
41
0.0
42
0.0
10
71.1270980834961
20
71.2160034179688
40
0.0
41
0.0
42
0.0
10
71.5014038085938
20
71.2184982299805
40
0.0
41
0.0
42
0.0
10
71.5149002075195
20
71.2201995849609
40
0.0
41
0.0
42
0.0
10
71.5441970825195
20
71.220100402832
40
0.0
41
0.0
42
0.0
10
72.0046005249023
20
71.2516021728516
40
0.0
41
0.0
42
0.0
10
72.4858016967773
20
71.2457962036133
40
0.0
41
0.0
42
0.0
10
72.5053024291992
20
71.2341995239258
40
0.0
41
0.0
42
0.0
10
72.8053970336914
20
70.9943008422852
40
0.0
41
0.0
42
0.0
10
72.9987030029297
20
70.7065963745117
40
0.0
41
0.0
42
0.0
10
73.0809020996094
20
70.4878997802734
40
0.0
41
0.0
42
0.0
10
73.2984008789062
20
70.0009994506836
40
0.0
41
0.0
42
0.0
10
73.3031005859375
20
69.9718017578125
40
0.0
41
0.0
42
0.0
10
73.3314971923828
20
69.9188003540039
40
0.0
41
0.0
42
0.0
10
73.4972991943359
20
69.5805969238281
40
0.0
41
0.0
42
0.0
10
73.5811004638672
20
69.4944000244141
40
0.0
41
0.0
42
0.0
10
73.9890975952148
20
69.0539016723633
40
0.0
41
0.0
42
0.0
10
74.0156021118164
20
69.0538024902344
40
0.0
41
0.0
42
0.0
10
74.0432968139648
20
69.0659027099609
40
0.0
41
0.0
42
0.0
10
74.5093994140625
20
69.1688003540039
40
0.0
41
0.0
42
0.0
10
74.8159027099609
20
69.4772033691406
40
0.0
41
0.0
42
0.0
10
74.8236999511719
20
69.4936981201172
40
0.0
41
0.0
42
0.0
10
75.0027008056641
20
69.6252975463867
40
0.0
41
0.0
42
0.0
10
75.3173980712891
20
69.9842987060547
40
0.0
41
0.0
42
0.0
10
75.3348007202148
20
70.0016021728516
40
0.0
41
0.0
42
0.0
10
75.5048980712891
20
70.209602355957
40
0.0
41
0.0
42
0.0
10
75.8395004272461
20
70.4954986572266
40
0.0
41
0.0
42
0.0
10
76.0108032226562
20
70.6588973999023
40
0.0
41
0.0
42
0.0
10
76.4857025146484
20
70.5990982055664
40
0.0
41
0.0
42
0.0
10
76.7089996337891
20
70.4981994628906
40
0.0
41
0.0
42
0.0
10
76.7171020507812
20
70.4925994873047
40
0.0
41
0.0
42
0.0
10
76.9876022338867
20
70.3842010498047
40
0.0
41
0.0
42
0.0
10
77.4747009277344
20
70.1984024047852
40
0.0
41
0.0
42
0.0
10
77.4889984130859
20
70.1886978149414
40
0.0
41
0.0
42
0.0
10
77.5558013916016
20
70.1689987182617
40
0.0
41
0.0
42
0.0
10
77.9829025268555
20
70.0665969848633
40
0.0
41
0.0
42
0.0
10
78.0764999389648
20
70.0627975463867
40
0.0
41
0.0
42
0.0
10
78.1148986816406
20
70.0626983642578
40
0.0
41
0.0
42
0.0
10
78.5056991577148
20
70.1044006347656
40
0.0
41
0.0
42
0.0
10
78.5182037353516
20
70.1318969726562
40
0.0
41
0.0
42
0.0
10
78.7210006713867
20
70.4854965209961
40
0.0
41
0.0
42
0.0
10
78.7209014892578
20
70.5152969360352
40
0.0
41
0.0
42
0.0
10
78.7185974121094
20
70.5205001831055
40
0.0
41
0.0
42
0.0
10
78.7846984863281
20
70.9813995361328
40
0.0
41
0.0
42
0.0
10
78.7845993041992
20
71.0171966552734
40
0.0
41
0.0
42
0.0
10
78.7827987670898
20
71.0242004394531
40
0.0
41
0.0
42
0.0
10
78.7796020507812
20
71.5192031860352
40
0.0
41
0.0
42
0.0
10
78.7472991943359
20
71.9916000366211
40
0.0
41
0.0
42
0.0
10
78.7528991699219
20
72.4554977416992
40
0.0
41
0.0
42
0.0
10
78.7540969848633
20
72.4860000610352
40
0.0
41
0.0
42
0.0
10
78.7655029296875
20
72.5054016113281
40
0.0
41
0.0
42
0.0
10
79.005500793457
20
72.8053970336914
40
0.0
41
0.0
42
0.0
10
79.2932968139648
20
72.9987030029297
40
0.0
41
0.0
42
0.0
10
79.5120010375977
20
73.0809020996094
40
0.0
41
0.0
42
0.0
10
79.9989013671875
20
73.2984008789062
40
0.0
41
0.0
42
0.0
10
80.0280990600586
20
73.3031005859375
40
0.0
41
0.0
42
0.0
10
80.0810012817383
20
73.3314971923828
40
0.0
41
0.0
42
0.0
10
80.4190979003906
20
73.4972991943359
40
0.0
41
0.0
42
0.0
10
80.505500793457
20
73.5811004638672
40
0.0
41
0.0
42
0.0
10
80.9459991455078
20
73.9890975952148
40
0.0
41
0.0
42
0.0
10
80.9458999633789
20
74.0156021118164
40
0.0
41
0.0
42
0.0
10
80.9337997436523
20
74.0432968139648
40
0.0
41
0.0
42
0.0
10
80.8309020996094
20
74.5093994140625
40
0.0
41
0.0
42
0.0
10
80.5226974487305
20
74.8159027099609
40
0.0
41
0.0
42
0.0
10
80.506103515625
20
74.823600769043
40
0.0
41
0.0
42
0.0
10
80.3744964599609
20
75.0026016235352
40
0.0
41
0.0
42
0.0
10
80.0154037475586
20
75.3173980712891
40
0.0
41
0.0
42
0.0
10
79.9981994628906
20
75.3348007202148
40
0.0
41
0.0
42
0.0
10
79.7902984619141
20
75.5047988891602
40
0.0
41
0.0
42
0.0
10
79.5044021606445
20
75.8395004272461
40
0.0
41
0.0
42
0.0
10
79.3434982299805
20
76.0080032348633
40
0.0
41
0.0
42
0.0
10
79.4001007080078
20
76.456298828125
40
0.0
41
0.0
42
0.0
10
79.4001007080078
20
76.4844970703125
40
0.0
41
0.0
42
0.0
10
79.5016021728516
20
76.7089996337891
40
0.0
41
0.0
42
0.0
10
79.5071029663086
20
76.7170028686523
40
0.0
41
0.0
42
0.0
10
79.6156005859375
20
76.9876022338867
40
0.0
41
0.0
42
0.0
10
79.8013000488281
20
77.4747009277344
40
0.0
41
0.0
42
0.0
10
79.8109970092773
20
77.4889984130859
40
0.0
41
0.0
42
0.0
10
79.8307037353516
20
77.5558013916016
40
0.0
41
0.0
42
0.0
10
79.9330978393555
20
77.9829025268555
40
0.0
41
0.0
42
0.0
10
79.9371032714844
20
78.0764999389648
40
0.0
41
0.0
42
0.0
10
79.9369964599609
20
78.1148986816406
40
0.0
41
0.0
42
0.0
10
79.8954010009766
20
78.5056991577148
40
0.0
41
0.0
42
0.0
10
79.8677978515625
20
78.5180969238281
40
0.0
41
0.0
42
0.0
10
79.5143966674805
20
78.7210006713867
40
0.0
41
0.0
42
0.0
10
79.4844970703125
20
78.7210006713867
40
0.0
41
0.0
42
0.0
10
79.4794006347656
20
78.7185974121094
40
0.0
41
0.0
42
0.0
10
79.0185012817383
20
78.7846984863281
40
0.0
41
0.0
42
0.0
10
78.9826965332031
20
78.7845993041992
40
0.0
41
0.0
42
0.0
10
78.9755020141602
20
78.7827987670898
40
0.0
41
0.0
42
0.0
10
78.4806976318359
20
78.7796020507812
40
0.0
41
0.0
42
0.0
10
78.0082015991211
20
78.7472991943359
40
0.0
41
0.0
42
0.0
10
77.5444030761719
20
78.7528991699219
40
0.0
41
0.0
42
0.0
10
77.5139007568359
20
78.7540969848633
40
0.0
41
0.0
42
0.0
10
77.4944000244141
20
78.7654037475586
40
0.0
41
0.0
42
0.0
10
77.1943969726562
20
79.005500793457
40
0.0
41
0.0
42
0.0
10
77.0010986328125
20
79.2931976318359
40
0.0
41
0.0
42
0.0
10
76.918098449707
20
79.5123977661133
40
0.0
41
0.0
42
0.0
10
76.915397644043
20
79.5288009643555
40
0.0
41
0.0
42
0.0
10
76.6986999511719
20
80.0139999389648
40
0.0
41
0.0
42
0.0
10
76.6966018676758
20
80.0281982421875
40
0.0
41
0.0
42
0.0
10
76.6681976318359
20
80.0809020996094
40
0.0
41
0.0
42
0.0
10
76.5025024414062
20
80.4190979003906
40
0.0
41
0.0
42
0.0
10
76.4186019897461
20
80.5054016113281
40
0.0
41
0.0
42
0.0
10
76.0108032226562
20
80.9459991455078
40
0.0
41
0.0
42
0.0
10
75.9842987060547
20
80.9458999633789
40
0.0
41
0.0
42
0.0
10
75.9564971923828
20
80.9337997436523
40
0.0
41
0.0
42
0.0
10
75.4905014038086
20
80.8310012817383
40
0.0
41
0.0
42
0.0
10
75.1837997436523
20
80.5227966308594
40
0.0
41
0.0
42
0.0
10
75.1761016845703
20
80.5062026977539
40
0.0
41
0.0
42
0.0
10
74.9971008300781
20
80.3744964599609
40
0.0
41
0.0
42
0.0
10
74.6824035644531
20
80.0154037475586
40
0.0
41
0.0
42
0.0
10
74.6650009155273
20
79.9981994628906
40
0.0
41
0.0
42
0.0
10
74.495002746582
20
79.7902984619141
40
0.0
41
0.0
42
0.0
10
74.1603012084961
20
79.5044021606445
40
0.0
41
0.0
42
0.0
10
73.9919967651367
20
79.3434982299805
40
0.0
41
0.0
42
0.0
10
73.5436019897461
20
79.4001007080078
40
0.0
41
0.0
42
0.0
10
73.5154037475586
20
79.4001007080078
40
0.0
41
0.0
42
0.0
10
73.290901184082
20
79.5015029907227
40
0.0
41
0.0
42
0.0
10
73.2827987670898
20
79.5071029663086
40
0.0
41
0.0
42
0.0
10
73.0122985839844
20
79.6155014038086
40
0.0
41
0.0
42
0.0
10
72.5251998901367
20
79.8013000488281
40
0.0
41
0.0
42
0.0
10
72.5109024047852
20
79.8109970092773
40
0.0
41
0.0
42
0.0
10
72.4440002441406
20
79.8307037353516
40
0.0
41
0.0
42
0.0
10
72.0169982910156
20
79.9330978393555
40
0.0
41
0.0
42
0.0
10
71.9233016967773
20
79.9371032714844
40
0.0
41
0.0
42
0.0
10
71.8849029541016
20
79.9369964599609
40
0.0
41
0.0
42
0.0
10
71.4941024780273
20
79.8954010009766
40
0.0
41
0.0
42
0.0
10
71.4815979003906
20
79.8678970336914
40
0.0
41
0.0
42
0.0
10
71.2789001464844
20
79.5143966674805
40
0.0
41
0.0
42
0.0
10
71.2787017822266
20
79.4844970703125
40
0.0
41
0.0
42
0.0
10
71.2810974121094
20
79.4794006347656
40
0.0
41
0.0
42
0.0
10
71.2151031494141
20
79.0185012817383
40
0.0
41
0.0
42
0.0
10
71.2154006958008
20
78.9621963500977
40
0.0
41
0.0
42
0.0
210
0.0
220
0.0
230
1.0
0
LWPOLYLINE
5
2B
330
1C
100
AcDbEntity
67
0
8
0
62
256
6
ByLayer
370
-1
48
1.0
60
0
100
AcDbPolyline
90
73
70
1
38
0.0
39
0.0
10
71.8746032714844
20
66.4971008300781
40
0.0
41
0.0
42
0.0
10
71.8766021728516
20
66.4873962402344
40
0.0
41
0.0
42
0.0
10
71.8842010498047
20
66.4741973876953
40
0.0
41
0.0
42
0.0
10
72.0217971801758
20
65.9876022338867
40
0.0
41
0.0
42
0.0
10
72.0326995849609
20
65.9661026000977
40
0.0
41
0.0
42
0.0
10
72.3896026611328
20
65.4937973022461
40
0.0
41
0.0
42
0.0
10
72.4821014404297
20
65.4029006958008
40
0.0
41
0.0
42
0.0
10
72.493896484375
20
65.3893966674805
40
0.0
41
0.0
42
0.0
10
72.9670028686523
20
65.0814971923828
40
0.0
41
0.0
42
0.0
10
72.989501953125
20
65.0643997192383
40
0.0
41
0.0
42
0.0
10
73.2102966308594
20
65.0009994506836
40
0.0
41
0.0
42
0.0
10
73.2974014282227
20
65.0009994506836
40
0.0
41
0.0
42
0.0
10
73.2973022460938
20
65.0040969848633
40
0.0
41
0.0
42
0.0
10
73.0302963256836
20
65.0800018310547
40
0.0
41
0.0
42
0.0
10
73.0121002197266
20
65.0830993652344
40
0.0
41
0.0
42
0.0
10
72.5242004394531
20
65.4005966186523
40
0.0
41
0.0
42
0.0
10
72.5073013305664
20
65.4095993041992
40
0.0
41
0.0
42
0.0
10
72.3967971801758
20
65.5183029174805
40
0.0
41
0.0
42
0.0
10
72.0250015258789
20
66.0103988647461
40
0.0
41
0.0
42
0.0
10
71.8892974853516
20
66.486701965332
40
0.0
41
0.0
42
0.0
10
72.0001983642578
20
66.8317031860352
40
0.0
41
0.0
42
0.0
10
72.0557022094727
20
66.9673004150391
40
0.0
41
0.0
42
0.0
10
72.0868988037109
20
66.9957962036133
40
0.0
41
0.0
42
0.0
10
72.5073013305664
20
67.3455963134766
40
0.0
41
0.0
42
0.0
10
72.6948013305664
20
67.4730987548828
40
0.0
41
0.0
42
0.0
10
72.7463989257812
20
67.4983978271484
40
0.0
41
0.0
42
0.0
10
73.0099029541016
20
67.6584014892578
40
0.0
41
0.0
42
0.0
10
73.4348983764648
20
67.8649978637695
40
0.0
41
0.0
42
0.0
10
73.5149993896484
20
67.9002990722656
40
0.0
41
0.0
42
0.0
10
73.9872970581055
20
67.9264984130859
40
0.0
41
0.0
42
0.0
10
74.4554977416992
20
67.5755996704102
40
0.0
41
0.0
42
0.0
10
74.4945983886719
20
67.549201965332
40
0.0
41
0.0
42
0.0
10
74.535400390625
20
67.4941024780273
40
0.0
41
0.0
42
0.0
10
74.5542984008789
20
67.4774017333984
40
0.0
41
0.0
42
0.0
10
74.969596862793
20
67.0195999145508
40
0.0
41
0.0
42
0.0
10
74.9942016601562
20
66.9983978271484
40
0.0
41
0.0
42
0.0
10
75.0246963500977
20
66.9680023193359
40
0.0
41
0.0
42
0.0
10
75.3215026855469
20
66.4865036010742
40
0.0
41
0.0
42
0.0
10
75.3504028320312
20
66.0121994018555
40
0.0
41
0.0
42
0.0
10
75.0306015014648
20
65.5211029052734
40
0.0
41
0.0
42
0.0
10
74.9926986694336
20
65.4878005981445
40
0.0
41
0.0
42
0.0
10
74.489501953125
20
65.1579971313477
40
0.0
41
0.0
42
0.0
10
74.0754013061523
20
65.0053024291992
40
0.0
41
0.0
42
0.0
10
74.0754013061523
20
65.0009994506836
40
0.0
41
0.0
42
0.0
10
74.1673965454102
20
65.0009002685547
40
0.0
41
0.0
42
0.0
10
74.5110015869141
20
65.1285018920898
40
0.0
41
0.0
42
0.0
10
74.5339965820312
20
65.1417999267578
40
0.0
41
0.0
42
0.0
10
75.0074996948242
20
65.4516983032227
40
0.0
41
0.0
42
0.0
10
75.0326995849609
20
65.4726028442383
40
0.0
41
0.0
42
0.0
10
75.0525970458984
20
65.4931030273438
40
0.0
41
0.0
42
0.0
10
75.3585968017578
20
65.9630966186523
40
0.0
41
0.0
42
0.0
10
75.3627014160156
20
65.9822006225586
40
0.0
41
0.0
42
0.0
10
75.3626022338867
20
66.0145034790039
40
0.0
41
0.0
42
0.0
10
75.356201171875
20
66.0260009765625
40
0.0
41
0.0
42
0.0
10
75.3264999389648
20
66.5175018310547
40
0.0
41
0.0
42
0.0
10
75.3247985839844
20
66.5273971557617
40
0.0
41
0.0
42
0.0
10
75.0208969116211
20
67.0223007202148
40
0.0
41
0.0
42
0.0
10
74.5827026367188
20
67.5065994262695
40
0.0
41
0.0
42
0.0
10
74.5175018310547
20
67.5951995849609
40
0.0
41
0.0
42
0.0
10
74.5040969848633
20
67.61669921875
40
0.0
41
0.0
42
0.0
10
74.0129013061523
20
67.9863967895508
40
0.0
41
0.0
42
0.0
10
73.980598449707
20
67.9862976074219
40
0.0
41
0.0
42
0.0
10
73.4859008789062
20
67.9572982788086
40
0.0
41
0.0
42
0.0
10
73.4512023925781
20
67.9383010864258
40
0.0
41
0.0
42
0.0
10
72.9903030395508
20
67.7144012451172
40
0.0
41
0.0
42
0.0
10
72.9040985107422
20
67.6580963134766
40
0.0
41
0.0
42
0.0
10
72.6474990844727
20
67.5022964477539
40
0.0
41
0.0
42
0.0
10
72.4928970336914
20
67.3968963623047
40
0.0
41
0.0
42
0.0
10
72.3421020507812
20
67.2626037597656
40
0.0
41
0.0
42
0.0
10
72.0351028442383
20
67.0072021484375
40
0.0
41
0.0
42
0.0
10
71.9996032714844
20
66.9205017089844
40
0.0
41
0.0
42
0.0
10
71.8747024536133
20
66.5305023193359
40
0.0
41
0.0
42
0.0
10
71.8746032714844
20
66.4971008300781
40
0.0
41
0.0
42
0.0
210
0.0
220
0.0
230
1.0
0
LWPOLYLINE
5
2C
330
1C
100
AcDbEntity
67
0
8
0
62
256
6
ByLayer
370
-1
48
1.0
60
0
100
AcDbPolyline
90
22
70
1
38
0.0
39
0.0
10
72.3935012817383
20
74.4851989746094
40
0.0
41
0.0
42
0.0
10
72.4758987426758
20
74.4057006835938
40
0.0
41
0.0
42
0.0
10
72.4870986938477
20
74.4022979736328
40
0.0
41
0.0
42
0.0
10
72.9692001342773
20
74.2001037597656
40
0.0
41
0.0
42
0.0
10
72.9900970458984
20
74.1999969482422
40
0.0
41
0.0
42
0.0
10
73.0064010620117
20
74.1976013183594
40
0.0
41
0.0
42
0.0
10
73.0445022583008
20
74.1977005004883
40
0.0
41
0.0
42
0.0
10
73.5128021240234
20
74.2166976928711
40
0.0
41
0.0
42
0.0
10
73.8662033081055
20
74.4709014892578
40
0.0
41
0.0
42
0.0
10
73.9069976806641
20
74.3828964233398
40
0.0
41
0.0
42
0.0
10
73.9128036499023
20
74.3830032348633
40
0.0
41
0.0
42
0.0
10
73.9126968383789
20
74.4011993408203
40
0.0
41
0.0
42
0.0
10
73.9046020507812
20
74.5117034912109
40
0.0
41
0.0
42
0.0
10
73.584098815918
20
74.8968963623047
40
0.0
41
0.0
42
0.0
10
73.5110015869141
20
74.9737014770508
40
0.0
41
0.0
42
0.0
10
73.4858016967773
20
74.9736022949219
40
0.0
41
0.0
42
0.0
10
73.4692001342773
20
74.9635009765625
40
0.0
41
0.0
42
0.0
10
72.9728012084961
20
74.8575973510742
40
0.0
41
0.0
42
0.0
10
72.4896011352539
20
74.5652008056641
40
0.0
41
0.0
42
0.0
10
72.4747009277344
20
74.5587997436523
40
0.0
41
0.0
42
0.0
10
72.3935012817383
20
74.50830078125
40
0.0
41
0.0
42
0.0
10
72.3935012817383
20
74.4851989746094
40
0.0
41
0.0
42
0.0
210
0.0
220
0.0
230
1.0
0
LWPOLYLINE
5
2D
330
1C
100
AcDbEntity
67
0
8
0
62
256
6
ByLayer
370
-1
48
1.0
60
0
100
AcDbPolyline
90
14
70
1
38
0.0
39
0.0
10
72.5074996948242
20
74.5468978881836
40
0.0
41
0.0
42
0.0
10
72.532600402832
20
74.568603515625
40
0.0
41
0.0
42
0.0
10
73.0121002197266
20
74.8587036132812
40
0.0
41
0.0
42
0.0
10
73.4915008544922
20
74.9601974487305
40
0.0
41
0.0
42
0.0
10
73.8723983764648
20
74.5022964477539
40
0.0
41
0.0
42
0.0
10
73.4990997314453
20
74.2334976196289
40
0.0
41
0.0
42
0.0
10
73.4907989501953
20
74.2251968383789
40
0.0
41
0.0
42
0.0
10
73.4710006713867
20
74.2198028564453
40
0.0
41
0.0
42
0.0
10
73.0126037597656
20
74.2012023925781
40
0.0
41
0.0
42
0.0
10
72.5323028564453
20
74.402702331543
40
0.0
41
0.0
42
0.0
10
72.5090026855469
20
74.4206008911133
40
0.0
41
0.0
42
0.0
10
72.5037994384766
20
74.4281997680664
40
0.0
41
0.0
42
0.0
10
72.4301986694336
20
74.4991989135742
40
0.0
41
0.0
42
0.0
10
72.5074996948242
20
74.5468978881836
40
0.0
41
0.0
42
0.0
210
0.0
220
0.0
230
1.0
0
LWPOLYLINE
5
2E
330
1C
100
AcDbEntity
67
0
8
0
62
256
6
ByLayer
370
-1
48
1.0
60
0
100
AcDbPolyline
90
30
70
1
38
0.0
39
0.0
10
72.9718017578125
20
76.4957962036133
40
0.0
41
0.0
42
0.0
10
72.9718017578125
20
76.4783020019531
40
0.0
41
0.0
42
0.0
10
72.9851989746094
20
76.4682998657227
40
0.0
41
0.0
42
0.0
10
72.8255996704102
20
76.0162963867188
40
0.0
41
0.0
42
0.0
10
72.8254013061523
20
75.9909973144531
40
0.0
41
0.0
42
0.0
10
72.9929962158203
20
75.8315963745117
40
0.0
41
0.0
42
0.0
10
73.4690017700195
20
75.5175018310547
40
0.0
41
0.0
42
0.0
10
73.4935989379883
20
75.4882965087891
40
0.0
41
0.0
42
0.0
10
73.4992980957031
20
75.4144973754883
40
0.0
41
0.0
42
0.0
10
73.5039978027344
20
75.4145965576172
40
0.0
41
0.0
42
0.0
10
73.5204010009766
20
75.4725036621094
40
0.0
41
0.0
42
0.0
10
73.9847030639648
20
75.1948013305664
40
0.0
41
0.0
42
0.0
10
74.0093002319336
20
75.1945037841797
40
0.0
41
0.0
42
0.0
10
74.2004013061523
20
75.4600982666016
40
0.0
41
0.0
42
0.0
10
74.2081985473633
20
75.4682006835938
40
0.0
41
0.0
42
0.0
10
74.2244033813477
20
75.4935989379883
40
0.0
41
0.0
42
0.0
10
74.2241973876953
20
75.5227966308594
40
0.0
41
0.0
42
0.0
10
74.1623992919922
20
75.6279983520508
40
0.0
41
0.0
42
0.0
10
74.0066986083984
20
75.9530029296875
40
0.0
41
0.0
42
0.0
10
73.9460983276367
20
75.9530029296875
40
0.0
41
0.0
42
0.0
10
73.942497253418
20
75.9611968994141
40
0.0
41
0.0
42
0.0
10
73.9672012329102
20
75.9880981445312
40
0.0
41
0.0
42
0.0
10
73.9672012329102
20
76.0094985961914
40
0.0
41
0.0
42
0.0
10
73.6248016357422
20
76.2667999267578
40
0.0
41
0.0
42
0.0
10
73.5351028442383
20
76.3394012451172
40
0.0
41
0.0
42
0.0
10
73.0223007202148
20
76.4865036010742
40
0.0
41
0.0
42
0.0
10
73.0117034912109
20
76.500602722168
40
0.0
41
0.0
42
0.0
10
72.9820022583008
20
76.500602722168
40
0.0
41
0.0
42
0.0
10
72.9788970947266
20
76.5
40
0.0
41
0.0
42
0.0
10
72.9718017578125
20
76.4957962036133
40
0.0
41
0.0
42
0.0
210
0.0
220
0.0
230
1.0
0
LWPOLYLINE
5
2F
330
1C
100
AcDbEntity
67
0
8
0
62
256
6
ByLayer
370
-1
48
1.0
60
0
100
AcDbPolyline
90
7
70
1
38
0.0
39
0.0
10
73.0065994262695
20
76.4804992675781
40
0.0
41
0.0
42
0.0
10
73.4905014038086
20
76.3427963256836
40
0.0
41
0.0
42
0.0
10
73.9458999633789
20
76.0003967285156
40
0.0
41
0.0
42
0.0
10
73.4964981079102
20
75.5160980224609
40
0.0
41
0.0
42
0.0
10
73.0066986083984
20
75.8394012451172
40
0.0
41
0.0
42
0.0
10
72.83740234375
20
76.0020980834961
40
0.0
41
0.0
42
0.0
10
73.0065994262695
20
76.4804992675781
40
0.0
41
0.0
42
0.0
210
0.0
220
0.0
230
1.0
0
LWPOLYLINE
5
30
330
1C
100
AcDbEntity
67
0
8
0
62
256
6
ByLayer
370
-1
48
1.0
60
0
100
AcDbPolyline
90
30
70
1
38
0.0
39
0.0
10
73.513298034668
20
73.0223007202148
40
0.0
41
0.0
42
0.0
10
73.4990997314453
20
73.0118026733398
40
0.0
41
0.0
42
0.0
10
73.4990997314453
20
72.9821014404297
40
0.0
41
0.0
42
0.0
10
73.4997024536133
20
72.9788970947266
40
0.0
41
0.0
42
0.0
10
73.5038986206055
20
72.9718017578125
40
0.0
41
0.0
42
0.0
10
73.5214004516602
20
72.9719009399414
40
0.0
41
0.0
42
0.0
10
73.5315017700195
20
72.9852981567383
40
0.0
41
0.0
42
0.0
10
73.9835968017578
20
72.8255996704102
40
0.0
41
0.0
42
0.0
10
74.0086975097656
20
72.8255004882812
40
0.0
41
0.0
42
0.0
10
74.168098449707
20
72.9931030273438
40
0.0
41
0.0
42
0.0
10
74.4822006225586
20
73.4691009521484
40
0.0
41
0.0
42
0.0
10
74.5115966796875
20
73.4935989379883
40
0.0
41
0.0
42
0.0
10
74.5851974487305
20
73.499397277832
40
0.0
41
0.0
42
0.0
10
74.5850982666016
20
73.5039978027344
40
0.0
41
0.0
42
0.0
10
74.5271987915039
20
73.5204010009766
40
0.0
41
0.0
42
0.0
10
74.8049011230469
20
73.9847030639648
40
0.0
41
0.0
42
0.0
10
74.8051986694336
20
74.0093002319336
40
0.0
41
0.0
42
0.0
10
74.5395965576172
20
74.2004013061523
40
0.0
41
0.0
42
0.0
10
74.5317001342773
20
74.2081985473633
40
0.0
41
0.0
42
0.0
10
74.5062026977539
20
74.2244033813477
40
0.0
41
0.0
42
0.0
10
74.4769973754883
20
74.2242965698242
40
0.0
41
0.0
42
0.0
10
74.371696472168
20
74.16259765625
40
0.0
41
0.0
42
0.0
10
74.0468978881836
20
74.0066986083984
40
0.0
41
0.0
42
0.0
10
74.0468978881836
20
73.9460983276367
40
0.0
41
0.0
42
0.0
10
74.0383987426758
20
73.9423980712891
40
0.0
41
0.0
42
0.0
10
74.0117034912109
20
73.9672012329102
40
0.0
41
0.0
42
0.0
10
73.9904022216797
20
73.9672012329102
40
0.0
41
0.0
42
0.0
10
73.7329025268555
20
73.6249008178711
40
0.0
41
0.0
42
0.0
10
73.660400390625
20
73.5351028442383
40
0.0
41
0.0
42
0.0
10
73.513298034668
20
73.0223007202148
40
0.0
41
0.0
42
0.0
210
0.0
220
0.0
230
1.0
0
LWPOLYLINE
5
31
330
1C
100
AcDbEntity
67
0
8
0
62
256
6
ByLayer
370
-1
48
1.0
60
0
100
AcDbPolyline
90
9
70
1
38
0.0
39
0.0
10
73.6585998535156
20
73.4926986694336
40
0.0
41
0.0
42
0.0
10
73.999397277832
20
73.94580078125
40
0.0
41
0.0
42
0.0
10
74.480598449707
20
73.4992980957031
40
0.0
41
0.0
42
0.0
10
74.1679992675781
20
73.0257034301758
40
0.0
41
0.0
42
0.0
10
74.1623001098633
20
73.0087966918945
40
0.0
41
0.0
42
0.0
10
73.9977035522461
20
72.8373031616211
40
0.0
41
0.0
42
0.0
10
73.5289993286133
20
73.0029983520508
40
0.0
41
0.0
42
0.0
10
73.6585998535156
20
73.4579010009766
40
0.0
41
0.0
42
0.0
10
73.6585998535156
20
73.4926986694336
40
0.0
41
0.0
42
0.0
210
0.0
220
0.0
230
1.0
0
LWPOLYLINE
5
32
330
1C
100
AcDbEntity
67
0
8
0
62
256
6
ByLayer
370
-1
48
1.0
60
0
100
AcDbPolyline
90
5
70
1
38
0.0
39
0.0
10
73.9988021850586
20
75.918098449707
40
0.0
41
0.0
42
0.0
10
74.1984024047852
20
75.5020980834961
40
0.0
41
0.0
42
0.0
10
73.9975967407227
20
75.2231979370117
40
0.0
41
0.0
42
0.0
10
73.5328979492188
20
75.5008010864258
40
0.0
41
0.0
42
0.0
10
73.9988021850586
20
75.918098449707
40
0.0
41
0.0
42
0.0
210
0.0
220
0.0
230
1.0
0
LWPOLYLINE
5
33
330
1C
100
AcDbEntity
67
0
8
0
62
256
6
ByLayer
370
-1
48
1.0
60
0
100
AcDbPolyline
90
22
70
1
38
0.0
39
0.0
10
74.2110977172852
20
76.473503112793
40
0.0
41
0.0
42
0.0
10
74.2622985839844
20
76.4128036499023
40
0.0
41
0.0
42
0.0
10
74.4906997680664
20
76.095703125
40
0.0
41
0.0
42
0.0
10
74.5123977661133
20
76.095703125
40
0.0
41
0.0
42
0.0
10
74.8970031738281
20
76.4156036376953
40
0.0
41
0.0
42
0.0
10
74.9737014770508
20
76.488899230957
40
0.0
41
0.0
42
0.0
10
74.9736022949219
20
76.5139999389648
40
0.0
41
0.0
42
0.0
10
74.9635009765625
20
76.5305023193359
40
0.0
41
0.0
42
0.0
10
74.8574981689453
20
77.027099609375
40
0.0
41
0.0
42
0.0
10
74.5652008056641
20
77.5102996826172
40
0.0
41
0.0
42
0.0
10
74.5587005615234
20
77.5251007080078
40
0.0
41
0.0
42
0.0
10
74.50830078125
20
77.6063995361328
40
0.0
41
0.0
42
0.0
10
74.4852981567383
20
77.6063995361328
40
0.0
41
0.0
42
0.0
10
74.4057006835938
20
77.5240020751953
40
0.0
41
0.0
42
0.0
10
74.4022979736328
20
77.5128021240234
40
0.0
41
0.0
42
0.0
10
74.2001037597656
20
77.0307006835938
40
0.0
41
0.0
42
0.0
10
74.1999969482422
20
77.0096969604492
40
0.0
41
0.0
42
0.0
10
74.1976013183594
20
76.9934005737305
40
0.0
41
0.0
42
0.0
10
74.1977005004883
20
76.9553985595703
40
0.0
41
0.0
42
0.0
10
74.2155990600586
20
76.5128021240234
40
0.0
41
0.0
42
0.0
10
74.2110977172852
20
76.5016021728516
40
0.0
41
0.0
42
0.0
10
74.2110977172852
20
76.473503112793
40
0.0
41
0.0
42
0.0
210
0.0
220
0.0
230
1.0
0
LWPOLYLINE
5
34
330
1C
100
AcDbEntity
67
0
8
0
62
256
6
ByLayer
370
-1
48
1.0
60
0
100
AcDbPolyline
90
5
70
1
38
0.0
39
0.0
10
74.4990005493164
20
73.5327987670898
40
0.0
41
0.0
42
0.0
10
74.0817031860352
20
73.9988021850586
40
0.0
41
0.0
42
0.0
10
74.4977035522461
20
74.1983032226562
40
0.0
41
0.0
42
0.0
10
74.776496887207
20
73.9975967407227
40
0.0
41
0.0
42
0.0
10
74.4990005493164
20
73.5327987670898
40
0.0
41
0.0
42
0.0
210
0.0
220
0.0
230
1.0
0
LWPOLYLINE
5
35
330
1C
100
AcDbEntity
67
0
8
0
62
256
6
ByLayer
370
-1
48
1.0
60
0
100
AcDbPolyline
90
14
70
1
38
0.0
39
0.0
10
74.4029006958008
20
77.4675979614258
40
0.0
41
0.0
42
0.0
10
74.4205017089844
20
77.4906997680664
40
0.0
41
0.0
42
0.0
10
74.4281997680664
20
77.4960021972656
40
0.0
41
0.0
42
0.0
10
74.4991989135742
20
77.5693969726562
40
0.0
41
0.0
42
0.0
10
74.5468978881836
20
77.4924011230469
40
0.0
41
0.0
42
0.0
10
74.5684967041016
20
77.4673004150391
40
0.0
41
0.0
42
0.0
10
74.8587036132812
20
76.9878005981445
40
0.0
41
0.0
42
0.0
10
74.9601974487305
20
76.50830078125
40
0.0
41
0.0
42
0.0
10
74.5022964477539
20
76.1272964477539
40
0.0
41
0.0
42
0.0
10
74.2333984375
20
76.5007019042969
40
0.0
41
0.0
42
0.0
10
74.2251968383789
20
76.5091018676758
40
0.0
41
0.0
42
0.0
10
74.2198028564453
20
76.5288009643555
40
0.0
41
0.0
42
0.0
10
74.201301574707
20
76.9872970581055
40
0.0
41
0.0
42
0.0
10
74.4029006958008
20
77.4675979614258
40
0.0
41
0.0
42
0.0
210
0.0
220
0.0
230
1.0
0
LWPOLYLINE
5
36
330
1C
100
AcDbEntity
67
0
8
0
62
256
6
ByLayer
370
-1
48
1.0
60
0
100
AcDbPolyline
90
75
70
1
38
0.0
39
0.0
10
74.6475982666016
20
83.9663009643555
40
0.0
41
0.0
42
0.0
10
74.6747970581055
20
83.518798828125
40
0.0
41
0.0
42
0.0
10
74.6734008789062
20
83.5155029296875
40
0.0
41
0.0
42
0.0
10
74.6733016967773
20
83.4859008789062
40
0.0
41
0.0
42
0.0
10
74.9712982177734
20
83.0025024414062
40
0.0
41
0.0
42
0.0
10
74.9739990234375
20
82.9869003295898
40
0.0
41
0.0
42
0.0
10
74.9792022705078
20
82.9770965576172
40
0.0
41
0.0
42
0.0
10
75.4169006347656
20
82.4932022094727
40
0.0
41
0.0
42
0.0
10
75.4785003662109
20
82.4100036621094
40
0.0
41
0.0
42
0.0
10
75.4955978393555
20
82.3831024169922
40
0.0
41
0.0
42
0.0
10
75.9869995117188
20
82.0136032104492
40
0.0
41
0.0
42
0.0
10
76.0193023681641
20
82.0134963989258
40
0.0
41
0.0
42
0.0
10
76.5139999389648
20
82.0423965454102
40
0.0
41
0.0
42
0.0
10
76.5485992431641
20
82.0614013671875
40
0.0
41
0.0
42
0.0
10
77.0095977783203
20
82.285400390625
40
0.0
41
0.0
42
0.0
10
77.0958023071289
20
82.3415985107422
40
0.0
41
0.0
42
0.0
10
77.3523025512695
20
82.4975967407227
40
0.0
41
0.0
42
0.0
10
77.5070037841797
20
82.602897644043
40
0.0
41
0.0
42
0.0
10
77.6576995849609
20
82.7371978759766
40
0.0
41
0.0
42
0.0
10
77.9646987915039
20
82.9927978515625
40
0.0
41
0.0
42
0.0
10
78.0001983642578
20
83.0793991088867
40
0.0
41
0.0
42
0.0
10
78.1251983642578
20
83.4682006835938
40
0.0
41
0.0
42
0.0
10
78.1250991821289
20
83.502799987793
40
0.0
41
0.0
42
0.0
10
78.1231002807617
20
83.5123977661133
40
0.0
41
0.0
42
0.0
10
78.1155014038086
20
83.5254974365234
40
0.0
41
0.0
42
0.0
10
77.9777984619141
20
84.0122985839844
40
0.0
41
0.0
42
0.0
10
77.9670028686523
20
84.0337982177734
40
0.0
41
0.0
42
0.0
10
77.6100997924805
20
84.5059967041016
40
0.0
41
0.0
42
0.0
10
77.5175018310547
20
84.5968017578125
40
0.0
41
0.0
42
0.0
10
77.5058975219727
20
84.6102981567383
40
0.0
41
0.0
42
0.0
10
77.0327987670898
20
84.9181976318359
40
0.0
41
0.0
42
0.0
10
77.0102996826172
20
84.935302734375
40
0.0
41
0.0
42
0.0
10
76.7894973754883
20
84.9990005493164
40
0.0
41
0.0
42
0.0
10
76.7025985717773
20
84.9990005493164
40
0.0
41
0.0
42
0.0
10
76.7024002075195
20
84.9956970214844
40
0.0
41
0.0
42
0.0
10
76.969596862793
20
84.9196014404297
40
0.0
41
0.0
42
0.0
10
76.9878005981445
20
84.9166030883789
40
0.0
41
0.0
42
0.0
10
77.4756011962891
20
84.5990982055664
40
0.0
41
0.0
42
0.0
10
77.4925003051758
20
84.5901031494141
40
0.0
41
0.0
42
0.0
10
77.602897644043
20
84.4813995361328
40
0.0
41
0.0
42
0.0
10
77.9748001098633
20
83.9894027709961
40
0.0
41
0.0
42
0.0
10
78.1103973388672
20
83.5130996704102
40
0.0
41
0.0
42
0.0
10
77.9997024536133
20
83.168098449707
40
0.0
41
0.0
42
0.0
10
77.9440994262695
20
83.032600402832
40
0.0
41
0.0
42
0.0
10
77.9129028320312
20
83.0040969848633
40
0.0
41
0.0
42
0.0
10
77.4925994873047
20
82.6541976928711
40
0.0
41
0.0
42
0.0
10
77.3050003051758
20
82.5267028808594
40
0.0
41
0.0
42
0.0
10
77.2535018920898
20
82.5015029907227
40
0.0
41
0.0
42
0.0
10
76.9899978637695
20
82.3413009643555
40
0.0
41
0.0
42
0.0
10
76.5649032592773
20
82.1346969604492
40
0.0
41
0.0
42
0.0
10
76.4849014282227
20
82.0995025634766
40
0.0
41
0.0
42
0.0
10
76.0126037597656
20
82.0731964111328
40
0.0
41
0.0
42
0.0
10
75.5441970825195
20
82.4241027832031
40
0.0
41
0.0
42
0.0
10
75.5052032470703
20
82.4505996704102
40
0.0
41
0.0
42
0.0
10
75.4636001586914
20
82.5065994262695
40
0.0
41
0.0
42
0.0
10
75.1866989135742
20
82.8117980957031
40
0.0
41
0.0
42
0.0
10
75.0020980834961
20
83.0050964355469
40
0.0
41
0.0
42
0.0
10
74.97509765625
20
83.0317001342773
40
0.0
41
0.0
42
0.0
10
74.6781997680664
20
83.513298034668
40
0.0
41
0.0
42
0.0
10
74.6502990722656
20
83.9889984130859
40
0.0
41
0.0
42
0.0
10
74.9692001342773
20
84.4788970947266
40
0.0
41
0.0
42
0.0
10
75.0072021484375
20
84.5120010375977
40
0.0
41
0.0
42
0.0
10
75.5103988647461
20
84.8416976928711
40
0.0
41
0.0
42
0.0
10
75.9244995117188
20
84.9945983886719
40
0.0
41
0.0
42
0.0
10
75.9244995117188
20
84.9990005493164
40
0.0
41
0.0
42
0.0
10
75.8323974609375
20
84.9989013671875
40
0.0
41
0.0
42
0.0
10
75.488899230957
20
84.8712997436523
40
0.0
41
0.0
42
0.0
10
75.4660034179688
20
84.8580017089844
40
0.0
41
0.0
42
0.0
10
74.9924011230469
20
84.5482025146484
40
0.0
41
0.0
42
0.0
10
74.9671020507812
20
84.5271987915039
40
0.0
41
0.0
42
0.0
10
74.9471969604492
20
84.5067977905273
40
0.0
41
0.0
42
0.0
10
74.6411972045898
20
84.0367965698242
40
0.0
41
0.0
42
0.0
10
74.6371994018555
20
84.0177001953125
40
0.0
41
0.0
42
0.0
10
74.6371002197266
20
83.9852981567383
40
0.0
41
0.0
42
0.0
10
74.6475982666016
20
83.9663009643555
40
0.0
41
0.0
42
0.0
210
0.0
220
0.0
230
1.0
0
LWPOLYLINE
5
37
330
1C
100
AcDbEntity
67
0
8
0
62
256
6
ByLayer
370
-1
48
1.0
60
0
100
AcDbPolyline
90
24
70
1
38
0.0
39
0.0
10
75.0391006469727
20
73.4644012451172
40
0.0
41
0.0
42
0.0
10
75.1393966674805
20
72.9908981323242
40
0.0
41
0.0
42
0.0
10
75.1392974853516
20
72.9858016967773
40
0.0
41
0.0
42
0.0
10
75.4311981201172
20
72.503303527832
40
0.0
41
0.0
42
0.0
10
75.4356002807617
20
72.4869003295898
40
0.0
41
0.0
42
0.0
10
75.4410018920898
20
72.4747009277344
40
0.0
41
0.0
42
0.0
10
75.4916000366211
20
72.3935012817383
40
0.0
41
0.0
42
0.0
10
75.5145034790039
20
72.3935012817383
40
0.0
41
0.0
42
0.0
10
75.5940017700195
20
72.4758987426758
40
0.0
41
0.0
42
0.0
10
75.5962982177734
20
72.4831008911133
40
0.0
41
0.0
42
0.0
10
75.5961990356445
20
72.502197265625
40
0.0
41
0.0
42
0.0
10
75.7985992431641
20
72.9841995239258
40
0.0
41
0.0
42
0.0
10
75.7985000610352
20
73.0195007324219
40
0.0
41
0.0
42
0.0
10
75.7805023193359
20
73.4647979736328
40
0.0
41
0.0
42
0.0
10
75.7834014892578
20
73.4856033325195
40
0.0
41
0.0
42
0.0
10
75.7886962890625
20
73.4981002807617
40
0.0
41
0.0
42
0.0
10
75.7885971069336
20
73.5261993408203
40
0.0
41
0.0
42
0.0
10
75.7373962402344
20
73.5868988037109
40
0.0
41
0.0
42
0.0
10
75.5092010498047
20
73.9041976928711
40
0.0
41
0.0
42
0.0
10
75.4876022338867
20
73.9040985107422
40
0.0
41
0.0
42
0.0
10
75.1027984619141
20
73.5841979980469
40
0.0
41
0.0
42
0.0
10
75.0261993408203
20
73.5110015869141
40
0.0
41
0.0
42
0.0
10
75.0261001586914
20
73.4858016967773
40
0.0
41
0.0
42
0.0
10
75.0391006469727
20
73.4644012451172
40
0.0
41
0.0
42
0.0
210
0.0
220
0.0
230
1.0
0
LWPOLYLINE
5
38
330
1C
100
AcDbEntity
67
0
8
0
62
256
6
ByLayer
370
-1
48
1.0
60
0
100
AcDbPolyline
90
29
70
1
38
0.0
39
0.0
10
75.4682006835938
20
75.7914962768555
40
0.0
41
0.0
42
0.0
10
75.486198425293
20
75.779899597168
40
0.0
41
0.0
42
0.0
10
75.5151977539062
20
75.7798004150391
40
0.0
41
0.0
42
0.0
10
75.9149017333984
20
75.9714965820312
40
0.0
41
0.0
42
0.0
10
75.9419021606445
20
75.9207992553711
40
0.0
41
0.0
42
0.0
10
75.9495010375977
20
75.9209976196289
40
0.0
41
0.0
42
0.0
10
75.9530029296875
20
75.980598449707
40
0.0
41
0.0
42
0.0
10
75.9531021118164
20
76.0538024902344
40
0.0
41
0.0
42
0.0
10
75.9613037109375
20
76.0574035644531
40
0.0
41
0.0
42
0.0
10
75.9880981445312
20
76.0326995849609
40
0.0
41
0.0
42
0.0
10
76.0094985961914
20
76.032600402832
40
0.0
41
0.0
42
0.0
10
76.2668991088867
20
76.375
40
0.0
41
0.0
42
0.0
10
76.3394012451172
20
76.4647979736328
40
0.0
41
0.0
42
0.0
10
76.4865036010742
20
76.9776000976562
40
0.0
41
0.0
42
0.0
10
76.5007019042969
20
76.9879989624023
40
0.0
41
0.0
42
0.0
10
76.5007019042969
20
77.0081024169922
40
0.0
41
0.0
42
0.0
10
76.0251007080078
20
77.1809005737305
40
0.0
41
0.0
42
0.0
10
75.9957962036133
20
77.1809005737305
40
0.0
41
0.0
42
0.0
10
75.9906997680664
20
77.1735992431641
40
0.0
41
0.0
42
0.0
10
75.8315963745117
20
77.0067977905273
40
0.0
41
0.0
42
0.0
10
75.5176010131836
20
76.5307998657227
40
0.0
41
0.0
42
0.0
10
75.4882965087891
20
76.506103515625
40
0.0
41
0.0
42
0.0
10
75.4144973754883
20
76.500602722168
40
0.0
41
0.0
42
0.0
10
75.4145965576172
20
76.4957962036133
40
0.0
41
0.0
42
0.0
10
75.4725036621094
20
76.4794006347656
40
0.0
41
0.0
42
0.0
10
75.1943969726562
20
76.0141983032227
40
0.0
41
0.0
42
0.0
10
75.1942977905273
20
75.9906997680664
40
0.0
41
0.0
42
0.0
10
75.4608001708984
20
75.798698425293
40
0.0
41
0.0
42
0.0
10
75.4682006835938
20
75.7914962768555
40
0.0
41
0.0
42
0.0
210
0.0
220
0.0
230
1.0
0
LWPOLYLINE
5
39
330
1C
100
AcDbEntity
67
0
8
0
62
256
6
ByLayer
370
-1
48
1.0
60
0
100
AcDbPolyline
90
14
70
1
38
0.0
39
0.0
10
75.4974975585938
20
73.8722991943359
40
0.0
41
0.0
42
0.0
10
75.7661972045898
20
73.4990997314453
40
0.0
41
0.0
42
0.0
10
75.7762985229492
20
73.4889984130859
40
0.0
41
0.0
42
0.0
10
75.7958984375
20
73.0063018798828
40
0.0
41
0.0
42
0.0
10
75.5970001220703
20
72.5323028564453
40
0.0
41
0.0
42
0.0
10
75.5792007446289
20
72.5090026855469
40
0.0
41
0.0
42
0.0
10
75.5716018676758
20
72.5037994384766
40
0.0
41
0.0
42
0.0
10
75.5007019042969
20
72.4300994873047
40
0.0
41
0.0
42
0.0
10
75.4527969360352
20
72.5074005126953
40
0.0
41
0.0
42
0.0
10
75.4311981201172
20
72.5325012207031
40
0.0
41
0.0
42
0.0
10
75.1401977539062
20
73.0136032104492
40
0.0
41
0.0
42
0.0
10
75.1400985717773
20
73.0326995849609
40
0.0
41
0.0
42
0.0
10
75.0426025390625
20
73.4940032958984
40
0.0
41
0.0
42
0.0
10
75.4974975585938
20
73.8722991943359
40
0.0
41
0.0
42
0.0
210
0.0
220
0.0
230
1.0
0
LWPOLYLINE
5
3A
330
1C
100
AcDbEntity
67
0
8
0
62
256
6
ByLayer
370
-1
48
1.0
60
0
100
AcDbPolyline
90
5
70
1
38
0.0
39
0.0
10
75.500602722168
20
76.4663009643555
40
0.0
41
0.0
42
0.0
10
75.9178009033203
20
76.0008010864258
40
0.0
41
0.0
42
0.0
10
75.5020980834961
20
75.8013000488281
40
0.0
41
0.0
42
0.0
10
75.2232971191406
20
76.002197265625
40
0.0
41
0.0
42
0.0
10
75.500602722168
20
76.4663009643555
40
0.0
41
0.0
42
0.0
210
0.0
220
0.0
230
1.0
0
LWPOLYLINE
5
3B
330
1C
100
AcDbEntity
67
0
8
0
62
256
6
ByLayer
370
-1
48
1.0
60
0
100
AcDbPolyline
90
29
70
1
38
0.0
39
0.0
10
75.8371963500977
20
74.371696472168
40
0.0
41
0.0
42
0.0
10
75.9932022094727
20
74.0468978881836
40
0.0
41
0.0
42
0.0
10
76.0539016723633
20
74.0467987060547
40
0.0
41
0.0
42
0.0
10
76.057502746582
20
74.0382995605469
40
0.0
41
0.0
42
0.0
10
76.0326995849609
20
74.0117034912109
40
0.0
41
0.0
42
0.0
10
76.032600402832
20
73.9904022216797
40
0.0
41
0.0
42
0.0
10
76.3749008178711
20
73.7328033447266
40
0.0
41
0.0
42
0.0
10
76.4647979736328
20
73.660400390625
40
0.0
41
0.0
42
0.0
10
76.9776000976562
20
73.5131988525391
40
0.0
41
0.0
42
0.0
10
76.9878997802734
20
73.4991989135742
40
0.0
41
0.0
42
0.0
10
77.0201034545898
20
73.4996032714844
40
0.0
41
0.0
42
0.0
10
77.0279006958008
20
73.5040969848633
40
0.0
41
0.0
42
0.0
10
77.0278015136719
20
73.5214004516602
40
0.0
41
0.0
42
0.0
10
77.0143966674805
20
73.5315017700195
40
0.0
41
0.0
42
0.0
10
77.1743011474609
20
73.9835968017578
40
0.0
41
0.0
42
0.0
10
77.174201965332
20
74.0086975097656
40
0.0
41
0.0
42
0.0
10
77.0067977905273
20
74.168098449707
40
0.0
41
0.0
42
0.0
10
76.5307998657227
20
74.4821014404297
40
0.0
41
0.0
42
0.0
10
76.506103515625
20
74.5115966796875
40
0.0
41
0.0
42
0.0
10
76.5005035400391
20
74.5851974487305
40
0.0
41
0.0
42
0.0
10
76.4957962036133
20
74.5851974487305
40
0.0
41
0.0
42
0.0
10
76.4794006347656
20
74.527099609375
40
0.0
41
0.0
42
0.0
10
76.0150985717773
20
74.8049011230469
40
0.0
41
0.0
42
0.0
10
75.9906005859375
20
74.8052978515625
40
0.0
41
0.0
42
0.0
10
75.7993011474609
20
74.5397033691406
40
0.0
41
0.0
42
0.0
10
75.7914962768555
20
74.5317001342773
40
0.0
41
0.0
42
0.0
10
75.7754974365234
20
74.5062026977539
40
0.0
41
0.0
42
0.0
10
75.7753982543945
20
74.4769973754883
40
0.0
41
0.0
42
0.0
10
75.8371963500977
20
74.371696472168
40
0.0
41
0.0
42
0.0
210
0.0
220
0.0
230
1.0
0
LWPOLYLINE
5
3C
330
1C
100
AcDbEntity
67
0
8
0
62
256
6
ByLayer
370
-1
48
1.0
60
0
100
AcDbPolyline
90
7
70
1
38
0.0
39
0.0
10
76.0009994506836
20
76.0547027587891
40
0.0
41
0.0
42
0.0
10
75.5168991088867
20
76.5042037963867
40
0.0
41
0.0
42
0.0
10
75.8395004272461
20
76.9931030273438
40
0.0
41
0.0
42
0.0
10
76.0020980834961
20
77.1623001098633
40
0.0
41
0.0
42
0.0
10
76.480598449707
20
76.9932022094727
40
0.0
41
0.0
42
0.0
10
76.342903137207
20
76.5093002319336
40
0.0
41
0.0
42
0.0
10
76.0009994506836
20
76.0547027587891
40
0.0
41
0.0
42
0.0
210
0.0
220
0.0
230
1.0
0
LWPOLYLINE
5
3D
330
1C
100
AcDbEntity
67
0
8
0
62
256
6
ByLayer
370
-1
48
1.0
60
0
100
AcDbPolyline
90
5
70
1
38
0.0
39
0.0
10
76.002197265625
20
74.7763977050781
40
0.0
41
0.0
42
0.0
10
76.4664993286133
20
74.4992980957031
40
0.0
41
0.0
42
0.0
10
76.0008010864258
20
74.0820007324219
40
0.0
41
0.0
42
0.0
10
75.801399230957
20
74.4977035522461
40
0.0
41
0.0
42
0.0
10
76.002197265625
20
74.7763977050781
40
0.0
41
0.0
42
0.0
210
0.0
220
0.0
230
1.0
0
LWPOLYLINE
5
3E
330
1C
100
AcDbEntity
67
0
8
0
62
256
6
ByLayer
370
-1
48
1.0
60
0
100
AcDbPolyline
90
24
70
1
38
0.0
39
0.0
10
76.4156036376953
20
75.1027984619141
40
0.0
41
0.0
42
0.0
10
76.488899230957
20
75.0261993408203
40
0.0
41
0.0
42
0.0
10
76.5140991210938
20
75.0261993408203
40
0.0
41
0.0
42
0.0
10
76.535400390625
20
75.0391006469727
40
0.0
41
0.0
42
0.0
10
77.008903503418
20
75.1393966674805
40
0.0
41
0.0
42
0.0
10
77.0140991210938
20
75.1392974853516
40
0.0
41
0.0
42
0.0
10
77.4965972900391
20
75.4311981201172
40
0.0
41
0.0
42
0.0
10
77.5130004882812
20
75.4356994628906
40
0.0
41
0.0
42
0.0
10
77.5251998901367
20
75.4410018920898
40
0.0
41
0.0
42
0.0
10
77.6063995361328
20
75.4916000366211
40
0.0
41
0.0
42
0.0
10
77.6063995361328
20
75.5143966674805
40
0.0
41
0.0
42
0.0
10
77.5240020751953
20
75.5940017700195
40
0.0
41
0.0
42
0.0
10
77.5167999267578
20
75.5962982177734
40
0.0
41
0.0
42
0.0
10
77.4975967407227
20
75.5961990356445
40
0.0
41
0.0
42
0.0
10
77.0157012939453
20
75.7985992431641
40
0.0
41
0.0
42
0.0
10
76.9804000854492
20
75.7985000610352
40
0.0
41
0.0
42
0.0
10
76.5351028442383
20
75.7805023193359
40
0.0
41
0.0
42
0.0
10
76.5143966674805
20
75.7834014892578
40
0.0
41
0.0
42
0.0
10
76.5017013549805
20
75.7886962890625
40
0.0
41
0.0
42
0.0
10
76.473503112793
20
75.7885971069336
40
0.0
41
0.0
42
0.0
10
76.4130020141602
20
75.7375030517578
40
0.0
41
0.0
42
0.0
10
76.095703125
20
75.5092010498047
40
0.0
41
0.0
42
0.0
10
76.0955963134766
20
75.4875030517578
40
0.0
41
0.0
42
0.0
10
76.4156036376953
20
75.1027984619141
40
0.0
41
0.0
42
0.0
210
0.0
220
0.0
230
1.0
0
LWPOLYLINE
5
3F
330
1C
100
AcDbEntity
67
0
8
0
62
256
6
ByLayer
370
-1
48
1.0
60
0
100
AcDbPolyline
90
9
70
1
38
0.0
39
0.0
10
76.054801940918
20
73.9988021850586
40
0.0
41
0.0
42
0.0
10
76.5015029907227
20
74.4798965454102
40
0.0
41
0.0
42
0.0
10
76.9741973876953
20
74.1679992675781
40
0.0
41
0.0
42
0.0
10
76.991096496582
20
74.1623001098633
40
0.0
41
0.0
42
0.0
10
77.1623992919922
20
73.9977035522461
40
0.0
41
0.0
42
0.0
10
76.9969024658203
20
73.5289001464844
40
0.0
41
0.0
42
0.0
10
76.5419998168945
20
73.6585998535156
40
0.0
41
0.0
42
0.0
10
76.5071029663086
20
73.6585006713867
40
0.0
41
0.0
42
0.0
10
76.054801940918
20
73.9988021850586
40
0.0
41
0.0
42
0.0
210
0.0
220
0.0
230
1.0
0
LWPOLYLINE
5
40
330
1C
100
AcDbEntity
67
0
8
0
62
256
6
ByLayer
370
-1
48
1.0
60
0
100
AcDbPolyline
90
14
70
1
38
0.0
39
0.0
10
76.5008010864258
20
75.7664031982422
40
0.0
41
0.0
42
0.0
10
76.5110015869141
20
75.7762985229492
40
0.0
41
0.0
42
0.0
10
76.9934997558594
20
75.7958984375
40
0.0
41
0.0
42
0.0
10
77.4674987792969
20
75.5969009399414
40
0.0
41
0.0
42
0.0
10
77.4906997680664
20
75.5792007446289
40
0.0
41
0.0
42
0.0
10
77.4960021972656
20
75.5716018676758
40
0.0
41
0.0
42
0.0
10
77.5696029663086
20
75.5007019042969
40
0.0
41
0.0
42
0.0
10
77.4924011230469
20
75.4529037475586
40
0.0
41
0.0
42
0.0
10
77.4673004150391
20
75.4311981201172
40
0.0
41
0.0
42
0.0
10
76.986198425293
20
75.1401977539062
40
0.0
41
0.0
42
0.0
10
76.9672012329102
20
75.1400985717773
40
0.0
41
0.0
42
0.0
10
76.5058975219727
20
75.0425033569336
40
0.0
41
0.0
42
0.0
10
76.1274032592773
20
75.4974975585938
40
0.0
41
0.0
42
0.0
10
76.5008010864258
20
75.7664031982422
40
0.0
41
0.0
42
0.0
210
0.0
220
0.0
230
1.0
0
LWPOLYLINE
5
41
330
1C
100
AcDbEntity
67
0
8
0
62
256
6
ByLayer
370
-1
48
1.0
60
0
100
AcDbPolyline
90
46
70
1
38
0.0
39
0.0
10
78.9766998291016
20
66.6703033447266
40
0.0
41
0.0
42
0.0
10
79.3741989135742
20
66.5018005371094
40
0.0
41
0.0
42
0.0
10
79.4753036499023
20
66.4747009277344
40
0.0
41
0.0
42
0.0
10
79.486198425293
20
66.4699020385742
40
0.0
41
0.0
42
0.0
10
79.5074996948242
20
66.4658966064453
40
0.0
41
0.0
42
0.0
10
79.9804000854492
20
66.4378967285156
40
0.0
41
0.0
42
0.0
10
80.043098449707
20
66.4386978149414
40
0.0
41
0.0
42
0.0
10
80.359001159668
20
66.4916000366211
40
0.0
41
0.0
42
0.0
10
80.5130004882812
20
66.5220031738281
40
0.0
41
0.0
42
0.0
10
80.8377990722656
20
66.6900024414062
40
0.0
41
0.0
42
0.0
10
81.0111999511719
20
66.7750015258789
40
0.0
41
0.0
42
0.0
10
81.217399597168
20
66.9710998535156
40
0.0
41
0.0
42
0.0
10
81.2380981445312
20
66.986198425293
40
0.0
41
0.0
42
0.0
10
81.243896484375
20
66.9928970336914
40
0.0
41
0.0
42
0.0
10
81.5018997192383
20
67.3619995117188
40
0.0
41
0.0
42
0.0
10
81.5469970703125
20
67.4504013061523
40
0.0
41
0.0
42
0.0
10
81.5683975219727
20
67.4881973266602
40
0.0
41
0.0
42
0.0
10
81.7126007080078
20
67.9828033447266
40
0.0
41
0.0
42
0.0
10
81.7307968139648
20
68.4512023925781
40
0.0
41
0.0
42
0.0
10
81.7306976318359
20
68.5140991210938
40
0.0
41
0.0
42
0.0
10
81.7174987792969
20
68.5357971191406
40
0.0
41
0.0
42
0.0
10
81.5448989868164
20
69.0086975097656
40
0.0
41
0.0
42
0.0
10
81.5192031860352
20
69.0365982055664
40
0.0
41
0.0
42
0.0
10
81.4980010986328
20
69.0470962524414
40
0.0
41
0.0
42
0.0
10
81.4894027709961
20
69.0550003051758
40
0.0
41
0.0
42
0.0
10
81.0129013061523
20
69.2888031005859
40
0.0
41
0.0
42
0.0
10
80.9772033691406
20
69.2969970703125
40
0.0
41
0.0
42
0.0
10
80.5170974731445
20
69.3702011108398
40
0.0
41
0.0
42
0.0
10
80.4521026611328
20
69.377799987793
40
0.0
41
0.0
42
0.0
10
79.9302978515625
20
69.4067001342773
40
0.0
41
0.0
42
0.0
10
79.8912963867188
20
69.4066009521484
40
0.0
41
0.0
42
0.0
10
79.4813003540039
20
69.3896026611328
40
0.0
41
0.0
42
0.0
10
79.4188003540039
20
69.3845977783203
40
0.0
41
0.0
42
0.0
10
78.9962997436523
20
69.120002746582
40
0.0
41
0.0
42
0.0
10
78.9685974121094
20
69.0622024536133
40
0.0
41
0.0
42
0.0
10
78.9493026733398
20
69.0141983032227
40
0.0
41
0.0
42
0.0
10
78.9431991577148
20
68.9776992797852
40
0.0
41
0.0
42
0.0
10
78.7751998901367
20
68.5140991210938
40
0.0
41
0.0
42
0.0
10
78.7624969482422
20
68.4564971923828
40
0.0
41
0.0
42
0.0
10
78.6393966674805
20
68.0156021118164
40
0.0
41
0.0
42
0.0
10
78.6240005493164
20
67.9085998535156
40
0.0
41
0.0
42
0.0
10
78.5578002929688
20
67.5182037353516
40
0.0
41
0.0
42
0.0
10
78.5577011108398
20
67.4824981689453
40
0.0
41
0.0
42
0.0
10
78.5671997070312
20
67.4441986083984
40
0.0
41
0.0
42
0.0
10
78.6427001953125
20
66.9912033081055
40
0.0
41
0.0
42
0.0
10
78.9766998291016
20
66.6703033447266
40
0.0
41
0.0
42
0.0
210
0.0
220
0.0
230
1.0
0
LWPOLYLINE
5
42
330
1C
100
AcDbEntity
67
0
8
0
62
256
6
ByLayer
370
-1
48
1.0
60
0
100
AcDbPolyline
90
38
70
1
38
0.0
39
0.0
10
78.6703033447266
20
67.9599990844727
40
0.0
41
0.0
42
0.0
10
78.6788024902344
20
67.9860992431641
40
0.0
41
0.0
42
0.0
10
78.8097991943359
20
68.4553985595703
40
0.0
41
0.0
42
0.0
10
78.8240966796875
20
68.4878005981445
40
0.0
41
0.0
42
0.0
10
78.9816970825195
20
68.9223022460938
40
0.0
41
0.0
42
0.0
10
79.0017013549805
20
68.9615020751953
40
0.0
41
0.0
42
0.0
10
79.0233001708984
20
68.9947967529297
40
0.0
41
0.0
42
0.0
10
79.5083999633789
20
69.3320999145508
40
0.0
41
0.0
42
0.0
10
79.5384979248047
20
69.3509979248047
40
0.0
41
0.0
42
0.0
10
80.0171966552734
20
69.3707962036133
40
0.0
41
0.0
42
0.0
10
80.0352020263672
20
69.3748016357422
40
0.0
41
0.0
42
0.0
10
80.4804992675781
20
69.3504028320312
40
0.0
41
0.0
42
0.0
10
80.5168991088867
20
69.3505020141602
40
0.0
41
0.0
42
0.0
10
80.9999008178711
20
69.2741012573242
40
0.0
41
0.0
42
0.0
10
81.4897003173828
20
69.0339965820312
40
0.0
41
0.0
42
0.0
10
81.5313034057617
20
68.9890975952148
40
0.0
41
0.0
42
0.0
10
81.5335006713867
20
68.9698028564453
40
0.0
41
0.0
42
0.0
10
81.709602355957
20
68.4870986938477
40
0.0
41
0.0
42
0.0
10
81.6920013427734
20
68.0330963134766
40
0.0
41
0.0
42
0.0
10
81.6895980834961
20
68.0154037475586
40
0.0
41
0.0
42
0.0
10
81.6636962890625
20
67.9317016601562
40
0.0
41
0.0
42
0.0
10
81.5408020019531
20
67.5121994018555
40
0.0
41
0.0
42
0.0
10
81.4912033081055
20
67.4150009155273
40
0.0
41
0.0
42
0.0
10
81.2078018188477
20
67.0086975097656
40
0.0
41
0.0
42
0.0
10
80.9934997558594
20
66.8044967651367
40
0.0
41
0.0
42
0.0
10
80.9760971069336
20
66.7914962768555
40
0.0
41
0.0
42
0.0
10
80.4881973266602
20
66.5391998291016
40
0.0
41
0.0
42
0.0
10
80.4703979492188
20
66.5330963134766
40
0.0
41
0.0
42
0.0
10
80.3031997680664
20
66.4991989135742
40
0.0
41
0.0
42
0.0
10
79.9830017089844
20
66.4456024169922
40
0.0
41
0.0
42
0.0
10
79.5167007446289
20
66.4731979370117
40
0.0
41
0.0
42
0.0
10
79.4116973876953
20
66.5001983642578
40
0.0
41
0.0
42
0.0
10
79.0167007446289
20
66.6676025390625
40
0.0
41
0.0
42
0.0
10
79.0025024414062
20
66.6827011108398
40
0.0
41
0.0
42
0.0
10
78.997200012207
20
66.6931991577148
40
0.0
41
0.0
42
0.0
10
78.6681976318359
20
67.0095977783203
40
0.0
41
0.0
42
0.0
10
78.5893020629883
20
67.4824981689453
40
0.0
41
0.0
42
0.0
10
78.6703033447266
20
67.9599990844727
40
0.0
41
0.0
42
0.0
210
0.0
220
0.0
230
1.0
0
LWPOLYLINE
5
43
330
1C
100
AcDbEntity
67
0
8
0
62
256
6
ByLayer
370
-1
48
1.0
60
0
100
AcDbPolyline
90
46
70
1
38
0.0
39
0.0
10
80.6151962280273
20
79.4186019897461
40
0.0
41
0.0
42
0.0
10
80.8798980712891
20
78.9962005615234
40
0.0
41
0.0
42
0.0
10
80.9375991821289
20
78.9685974121094
40
0.0
41
0.0
42
0.0
10
80.9856033325195
20
78.9493026733398
40
0.0
41
0.0
42
0.0
10
81.022102355957
20
78.9431991577148
40
0.0
41
0.0
42
0.0
10
81.4858016967773
20
78.7751998901367
40
0.0
41
0.0
42
0.0
10
81.5432968139648
20
78.7624969482422
40
0.0
41
0.0
42
0.0
10
81.9842987060547
20
78.6393966674805
40
0.0
41
0.0
42
0.0
10
82.0912017822266
20
78.6240005493164
40
0.0
41
0.0
42
0.0
10
82.4816970825195
20
78.5578002929688
40
0.0
41
0.0
42
0.0
10
82.5174026489258
20
78.5577011108398
40
0.0
41
0.0
42
0.0
10
82.5556030273438
20
78.5671997070312
40
0.0
41
0.0
42
0.0
10
83.0095977783203
20
78.6428985595703
40
0.0
41
0.0
42
0.0
10
83.3293991088867
20
78.9766998291016
40
0.0
41
0.0
42
0.0
10
83.4979019165039
20
79.3741989135742
40
0.0
41
0.0
42
0.0
10
83.5250015258789
20
79.4754028320312
40
0.0
41
0.0
42
0.0
10
83.529296875
20
79.4850006103516
40
0.0
41
0.0
42
0.0
10
83.5571975708008
20
79.9574966430664
40
0.0
41
0.0
42
0.0
10
83.5617980957031
20
79.9817962646484
40
0.0
41
0.0
42
0.0
10
83.5609970092773
20
80.043098449707
40
0.0
41
0.0
42
0.0
10
83.5081024169922
20
80.359001159668
40
0.0
41
0.0
42
0.0
10
83.4777984619141
20
80.5129013061523
40
0.0
41
0.0
42
0.0
10
83.309700012207
20
80.8377990722656
40
0.0
41
0.0
42
0.0
10
83.2267990112305
20
81.0077972412109
40
0.0
41
0.0
42
0.0
10
83.032600402832
20
81.2118988037109
40
0.0
41
0.0
42
0.0
10
83.005500793457
20
81.2449035644531
40
0.0
41
0.0
42
0.0
10
82.6378021240234
20
81.5018005371094
40
0.0
41
0.0
42
0.0
10
82.5494003295898
20
81.5469970703125
40
0.0
41
0.0
42
0.0
10
82.5117034912109
20
81.5682983398438
40
0.0
41
0.0
42
0.0
10
82.0166015625
20
81.7126007080078
40
0.0
41
0.0
42
0.0
10
81.5485992431641
20
81.7307968139648
40
0.0
41
0.0
42
0.0
10
81.4858016967773
20
81.7307968139648
40
0.0
41
0.0
42
0.0
10
81.4641036987305
20
81.7175979614258
40
0.0
41
0.0
42
0.0
10
80.991096496582
20
81.5448989868164
40
0.0
41
0.0
42
0.0
10
80.9632034301758
20
81.5192031860352
40
0.0
41
0.0
42
0.0
10
80.9604034423828
20
81.5139007568359
40
0.0
41
0.0
42
0.0
10
80.959602355957
20
81.5054016113281
40
0.0
41
0.0
42
0.0
10
80.9447021484375
20
81.489501953125
40
0.0
41
0.0
42
0.0
10
80.7108993530273
20
81.0129013061523
40
0.0
41
0.0
42
0.0
10
80.7026977539062
20
80.9772033691406
40
0.0
41
0.0
42
0.0
10
80.6295013427734
20
80.5170974731445
40
0.0
41
0.0
42
0.0
10
80.6219024658203
20
80.4521026611328
40
0.0
41
0.0
42
0.0
10
80.5932006835938
20
79.9302978515625
40
0.0
41
0.0
42
0.0
10
80.5931015014648
20
79.8912963867188
40
0.0
41
0.0
42
0.0
10
80.6100997924805
20
79.481201171875
40
0.0
41
0.0
42
0.0
10
80.6151962280273
20
79.4186019897461
40
0.0
41
0.0
42
0.0
210
0.0
220
0.0
230
1.0
0
LWPOLYLINE
5
44
330
1C
100
AcDbEntity
67
0
8
0
62
256
6
ByLayer
370
-1
48
1.0
60
0
100
AcDbPolyline
90
41
70
1
38
0.0
39
0.0
10
80.654899597168
20
80.4552001953125
40
0.0
41
0.0
42
0.0
10
80.6547012329102
20
80.4926986694336
40
0.0
41
0.0
42
0.0
10
80.6526031494141
20
80.5025024414062
40
0.0
41
0.0
42
0.0
10
80.7249984741211
20
80.9565963745117
40
0.0
41
0.0
42
0.0
10
80.7248992919922
20
80.9881973266602
40
0.0
41
0.0
42
0.0
10
80.9574966430664
20
81.4625015258789
40
0.0
41
0.0
42
0.0
10
80.9651031494141
20
81.4893035888672
40
0.0
41
0.0
42
0.0
10
81.0108032226562
20
81.5313034057617
40
0.0
41
0.0
42
0.0
10
81.0300979614258
20
81.5335006713867
40
0.0
41
0.0
42
0.0
10
81.5128021240234
20
81.709602355957
40
0.0
41
0.0
42
0.0
10
81.966796875
20
81.6920013427734
40
0.0
41
0.0
42
0.0
10
81.9844970703125
20
81.6895980834961
40
0.0
41
0.0
42
0.0
10
82.0680999755859
20
81.6636962890625
40
0.0
41
0.0
42
0.0
10
82.4877014160156
20
81.5408020019531
40
0.0
41
0.0
42
0.0
10
82.5718002319336
20
81.4980010986328
40
0.0
41
0.0
42
0.0
10
82.9095993041992
20
81.2618026733398
40
0.0
41
0.0
42
0.0
10
82.9934997558594
20
81.2057037353516
40
0.0
41
0.0
42
0.0
10
83.1952972412109
20
80.9934997558594
40
0.0
41
0.0
42
0.0
10
83.2082977294922
20
80.9760971069336
40
0.0
41
0.0
42
0.0
10
83.4607009887695
20
80.4880981445312
40
0.0
41
0.0
42
0.0
10
83.4665985107422
20
80.4703979492188
40
0.0
41
0.0
42
0.0
10
83.500602722168
20
80.3031997680664
40
0.0
41
0.0
42
0.0
10
83.5541000366211
20
79.9830017089844
40
0.0
41
0.0
42
0.0
10
83.526496887207
20
79.5167007446289
40
0.0
41
0.0
42
0.0
10
83.4994964599609
20
79.4116973876953
40
0.0
41
0.0
42
0.0
10
83.3321990966797
20
79.0167999267578
40
0.0
41
0.0
42
0.0
10
83.3170013427734
20
79.0025024414062
40
0.0
41
0.0
42
0.0
10
83.3065032958984
20
78.997200012207
40
0.0
41
0.0
42
0.0
10
82.9903030395508
20
78.6681976318359
40
0.0
41
0.0
42
0.0
10
82.5173034667969
20
78.5892028808594
40
0.0
41
0.0
42
0.0
10
82.0399017333984
20
78.6701965332031
40
0.0
41
0.0
42
0.0
10
82.013801574707
20
78.6788024902344
40
0.0
41
0.0
42
0.0
10
81.5444030761719
20
78.809700012207
40
0.0
41
0.0
42
0.0
10
81.5121002197266
20
78.8240966796875
40
0.0
41
0.0
42
0.0
10
81.0774993896484
20
78.9815979003906
40
0.0
41
0.0
42
0.0
10
81.0382995605469
20
79.0016021728516
40
0.0
41
0.0
42
0.0
10
81.004997253418
20
79.0232009887695
40
0.0
41
0.0
42
0.0
10
80.6676025390625
20
79.50830078125
40
0.0
41
0.0
42
0.0
10
80.6486968994141
20
79.5384979248047
40
0.0
41
0.0
42
0.0
10
80.6296997070312
20
79.9972991943359
40
0.0
41
0.0
42
0.0
10
80.654899597168
20
80.4552001953125
40
0.0
41
0.0
42
0.0
210
0.0
220
0.0
230
1.0
0
LWPOLYLINE
5
45
330
1C
100
AcDbEntity
67
0
8
0
62
256
6
ByLayer
370
-1
48
1.0
60
0
100
AcDbPolyline
90
74
70
1
38
0.0
39
0.0
10
82.285400390625
20
72.9903030395508
40
0.0
41
0.0
42
0.0
10
82.3415985107422
20
72.9039993286133
40
0.0
41
0.0
42
0.0
10
82.4975967407227
20
72.6474990844727
40
0.0
41
0.0
42
0.0
10
82.602897644043
20
72.4927978515625
40
0.0
41
0.0
42
0.0
10
82.7370986938477
20
72.3420028686523
40
0.0
41
0.0
42
0.0
10
82.9926986694336
20
72.0351028442383
40
0.0
41
0.0
42
0.0
10
83.0792999267578
20
71.9996032714844
40
0.0
41
0.0
42
0.0
10
83.4682006835938
20
71.8747024536133
40
0.0
41
0.0
42
0.0
10
83.502799987793
20
71.8746032714844
40
0.0
41
0.0
42
0.0
10
83.5123977661133
20
71.8766021728516
40
0.0
41
0.0
42
0.0
10
83.5254974365234
20
71.8842010498047
40
0.0
41
0.0
42
0.0
10
84.0122985839844
20
72.0218963623047
40
0.0
41
0.0
42
0.0
10
84.0337982177734
20
72.0326995849609
40
0.0
41
0.0
42
0.0
10
84.5059967041016
20
72.3897018432617
40
0.0
41
0.0
42
0.0
10
84.5969009399414
20
72.4821014404297
40
0.0
41
0.0
42
0.0
10
84.6102981567383
20
72.493896484375
40
0.0
41
0.0
42
0.0
10
84.9181976318359
20
72.9671020507812
40
0.0
41
0.0
42
0.0
10
84.935302734375
20
72.989501953125
40
0.0
41
0.0
42
0.0
10
84.9990005493164
20
73.2102966308594
40
0.0
41
0.0
42
0.0
10
84.9990005493164
20
73.2974014282227
40
0.0
41
0.0
42
0.0
10
84.9956970214844
20
73.2974014282227
40
0.0
41
0.0
42
0.0
10
84.9197006225586
20
73.0302963256836
40
0.0
41
0.0
42
0.0
10
84.9166030883789
20
73.0121002197266
40
0.0
41
0.0
42
0.0
10
84.5990982055664
20
72.524299621582
40
0.0
41
0.0
42
0.0
10
84.590202331543
20
72.5074005126953
40
0.0
41
0.0
42
0.0
10
84.4813995361328
20
72.3967971801758
40
0.0
41
0.0
42
0.0
10
83.989501953125
20
72.0250015258789
40
0.0
41
0.0
42
0.0
10
83.5130996704102
20
71.8892974853516
40
0.0
41
0.0
42
0.0
10
83.168098449707
20
72.0000991821289
40
0.0
41
0.0
42
0.0
10
83.0397033691406
20
72.0526962280273
40
0.0
41
0.0
42
0.0
10
83.0045013427734
20
72.0863037109375
40
0.0
41
0.0
42
0.0
10
82.6540985107422
20
72.5072021484375
40
0.0
41
0.0
42
0.0
10
82.5315017700195
20
72.6869964599609
40
0.0
41
0.0
42
0.0
10
82.5015029907227
20
72.7462005615234
40
0.0
41
0.0
42
0.0
10
82.3413009643555
20
73.0099029541016
40
0.0
41
0.0
42
0.0
10
82.1346969604492
20
73.4348983764648
40
0.0
41
0.0
42
0.0
10
82.0995025634766
20
73.5149993896484
40
0.0
41
0.0
42
0.0
10
82.0731964111328
20
73.9872970581055
40
0.0
41
0.0
42
0.0
10
82.4241027832031
20
74.4555969238281
40
0.0
41
0.0
42
0.0
10
82.4505996704102
20
74.4946975708008
40
0.0
41
0.0
42
0.0
10
82.5056991577148
20
74.5354995727539
40
0.0
41
0.0
42
0.0
10
82.5223999023438
20
74.5542984008789
40
0.0
41
0.0
42
0.0
10
82.9801025390625
20
74.969596862793
40
0.0
41
0.0
42
0.0
10
83.0014038085938
20
74.9943008422852
40
0.0
41
0.0
42
0.0
10
83.0318984985352
20
75.0246963500977
40
0.0
41
0.0
42
0.0
10
83.5133972167969
20
75.3215026855469
40
0.0
41
0.0
42
0.0
10
83.9876022338867
20
75.3503036499023
40
0.0
41
0.0
42
0.0
10
84.4785003662109
20
75.0307006835938
40
0.0
41
0.0
42
0.0
10
84.4957962036133
20
75.0121002197266
40
0.0
41
0.0
42
0.0
10
84.5196990966797
20
74.9817962646484
40
0.0
41
0.0
42
0.0
10
84.8416976928711
20
74.4894027709961
40
0.0
41
0.0
42
0.0
10
84.9945983886719
20
74.0754013061523
40
0.0
41
0.0
42
0.0
10
84.9990005493164
20
74.0754013061523
40
0.0
41
0.0
42
0.0
10
84.9989013671875
20
74.1673965454102
40
0.0
41
0.0
42
0.0
10
84.8712005615234
20
74.5109024047852
40
0.0
41
0.0
42
0.0
10
84.8579025268555
20
74.5338973999023
40
0.0
41
0.0
42
0.0
10
84.5481033325195
20
75.0074005126953
40
0.0
41
0.0
42
0.0
10
84.527099609375
20
75.032600402832
40
0.0
41
0.0
42
0.0
10
84.5067977905273
20
75.0525970458984
40
0.0
41
0.0
42
0.0
10
84.0366973876953
20
75.3585968017578
40
0.0
41
0.0
42
0.0
10
84.0177001953125
20
75.3627014160156
40
0.0
41
0.0
42
0.0
10
83.9853973388672
20
75.3627014160156
40
0.0
41
0.0
42
0.0
10
83.9738006591797
20
75.356201171875
40
0.0
41
0.0
42
0.0
10
83.4823989868164
20
75.3265991210938
40
0.0
41
0.0
42
0.0
10
83.4725036621094
20
75.3248977661133
40
0.0
41
0.0
42
0.0
10
82.9776000976562
20
75.0208969116211
40
0.0
41
0.0
42
0.0
10
82.4933013916016
20
74.5827026367188
40
0.0
41
0.0
42
0.0
10
82.4045028686523
20
74.5175018310547
40
0.0
41
0.0
42
0.0
10
82.3831024169922
20
74.5042037963867
40
0.0
41
0.0
42
0.0
10
82.0136032104492
20
74.0129013061523
40
0.0
41
0.0
42
0.0
10
82.0134963989258
20
73.980598449707
40
0.0
41
0.0
42
0.0
10
82.0423965454102
20
73.4859008789062
40
0.0
41
0.0
42
0.0
10
82.0614013671875
20
73.4511032104492
40
0.0
41
0.0
42
0.0
10
82.285400390625
20
72.9903030395508
40
0.0
41
0.0
42
0.0
210
0.0
220
0.0
230
1.0
0
LWPOLYLINE
5
46
330
1C
100
AcDbEntity
67
0
8
0
62
256
6
ByLayer
370
-1
48
1.0
60
0
100
AcDbPolyline
90
22
70
1
38
0.0
39
0.0
10
82.6322021484375
20
65.0009002685547
40
0.0
41
0.0
42
0.0
10
83.0034027099609
20
65.2154006958008
40
0.0
41
0.0
42
0.0
10
83.4964981079102
20
65.4457015991211
40
0.0
41
0.0
42
0.0
10
83.6268997192383
20
65.499397277832
40
0.0
41
0.0
42
0.0
10
84.0070037841797
20
65.6491012573242
40
0.0
41
0.0
42
0.0
10
84.4991989135742
20
65.8224029541016
40
0.0
41
0.0
42
0.0
10
84.5143966674805
20
65.8256988525391
40
0.0
41
0.0
42
0.0
10
84.9990005493164
20
65.9839019775391
40
0.0
41
0.0
42
0.0
10
84.9990005493164
20
66.004997253418
40
0.0
41
0.0
42
0.0
10
84.9833984375
20
66.0048980712891
40
0.0
41
0.0
42
0.0
10
84.4875030517578
20
65.8394012451172
40
0.0
41
0.0
42
0.0
10
84.4626007080078
20
65.8285980224609
40
0.0
41
0.0
42
0.0
10
83.9877014160156
20
65.6613006591797
40
0.0
41
0.0
42
0.0
10
83.9630966186523
20
65.6503982543945
40
0.0
41
0.0
42
0.0
10
83.5911026000977
20
65.5037994384766
40
0.0
41
0.0
42
0.0
10
83.488899230957
20
65.4607009887695
40
0.0
41
0.0
42
0.0
10
83.4643020629883
20
65.4478988647461
40
0.0
41
0.0
42
0.0
10
82.9897003173828
20
65.2264022827148
40
0.0
41
0.0
42
0.0
10
82.6280975341797
20
65.0174026489258
40
0.0
41
0.0
42
0.0
10
82.6153030395508
20
65.0087966918945
40
0.0
41
0.0
42
0.0
10
82.6153030395508
20
65.0009994506836
40
0.0
41
0.0
42
0.0
10
82.6322021484375
20
65.0009002685547
40
0.0
41
0.0
42
0.0
210
0.0
220
0.0
230
1.0
0
LWPOLYLINE
5
47
330
1C
100
AcDbEntity
67
0
8
0
62
256
6
ByLayer
370
-1
48
1.0
60
0
100
AcDbPolyline
90
24
70
1
38
0.0
39
0.0
10
84.1603012084961
20
84.4873962402344
40
0.0
41
0.0
42
0.0
10
84.1710968017578
20
84.4626007080078
40
0.0
41
0.0
42
0.0
10
84.3384017944336
20
83.9877014160156
40
0.0
41
0.0
42
0.0
10
84.3494033813477
20
83.9629974365234
40
0.0
41
0.0
42
0.0
10
84.4959030151367
20
83.5911026000977
40
0.0
41
0.0
42
0.0
10
84.5390014648438
20
83.488899230957
40
0.0
41
0.0
42
0.0
10
84.5518035888672
20
83.4642028808594
40
0.0
41
0.0
42
0.0
10
84.7733001708984
20
82.9896011352539
40
0.0
41
0.0
42
0.0
10
84.9822998046875
20
82.6280975341797
40
0.0
41
0.0
42
0.0
10
84.991096496582
20
82.6153030395508
40
0.0
41
0.0
42
0.0
10
84.9990005493164
20
82.6153030395508
40
0.0
41
0.0
42
0.0
10
84.9989013671875
20
82.6322021484375
40
0.0
41
0.0
42
0.0
10
84.7843017578125
20
83.0034027099609
40
0.0
41
0.0
42
0.0
10
84.5483016967773
20
83.5114974975586
40
0.0
41
0.0
42
0.0
10
84.5003967285156
20
83.6268997192383
40
0.0
41
0.0
42
0.0
10
84.3503036499023
20
84.0078964233398
40
0.0
41
0.0
42
0.0
10
84.3450012207031
20
84.0289001464844
40
0.0
41
0.0
42
0.0
10
84.1735000610352
20
84.5158996582031
40
0.0
41
0.0
42
0.0
10
84.1727981567383
20
84.5311965942383
40
0.0
41
0.0
42
0.0
10
84.0199966430664
20
84.9990005493164
40
0.0
41
0.0
42
0.0
10
83.9949035644531
20
84.9990005493164
40
0.0
41
0.0
42
0.0
10
83.9947967529297
20
84.984001159668
40
0.0
41
0.0
42
0.0
10
83.9994964599609
20
84.972297668457
40
0.0
41
0.0
42
0.0
10
84.1603012084961
20
84.4873962402344
40
0.0
41
0.0
42
0.0
210
0.0
220
0.0
230
1.0
0
VIEWPORT
5
4C
330
48
100
AcDbEntity
67
1
8
0
62
256
6
ByLayer
370
-1
48
1.0
60
0
100
AcDbViewport
10
0.0
20
0.0
30
0.0
40
297.0
41
210.0
68
1
69
1
12
50.0
22
100.0
13
0.0
23
0.0
14
10.0
24
10.0
15
10.0
25
10.0
16
0.0
26
0.0
36
1.0
17
0.0
27
0.0
37
0.0
42
50.0
43
0.0
44
0.0
45
250.0
50
0.0
51
0.0
72
1000
90
819232
110
0.0
120
0.0
130
0.0
111
1.0
121
0.0
131
0.0
112
0.0
122
1.0
132
0.0
0
ENDSEC
0
SECTION
2
OBJECTS
0
DICTIONARY
5
52
330
0
100
AcDbDictionary
280
1
281
1
3
ACAD_GROUP
350
12
3
ACAD_LAYOUT
350
4B
3
ACAD_DGNDEFINITIONS
350
F
3
ACAD_DWFDEFINITIONS
350
10
3
ACAD_PDFDEFINITIONS
350
11
3
ACAD_MLINESTYLE
350
B
3
ACAD_IMAGE_DICT
350
E
3
ACAD_IMAGE_VARS
350
21
0
DICTIONARY
5
12
330
52
100
AcDbDictionary
280
1
281
1
0
DICTIONARY
5
4B
330
52
100
AcDbDictionary
280
1
281
1
3
Model
350
20
3
Layout1
350
4D
0
DICTIONARY
5
F
330
52
100
AcDbDictionary
280
1
281
1
0
DICTIONARY
5
10
330
52
100
AcDbDictionary
280
1
281
1
0
DICTIONARY
5
11
330
52
100
AcDbDictionary
280
1
281
1
0
DICTIONARY
5
B
330
52
100
AcDbDictionary
280
1
281
1
3
Standard
350
1B
0
DICTIONARY
5
E
330
52
100
AcDbDictionary
280
1
281
1
0
DICTIONARY
5
6
330
5
100
AcDbDictionary
280
1
281
1
3
ACAD_LAYERSTATES
360
53
0
DICTIONARY
5
53
330
6
100
AcDbDictionary
280
1
281
1
0
LAYOUT
5
20
330
4B
100
AcDbPlotSettings
1

2
none_device
4
ISO_A4_(210.00_x_297.00_MM)
6

40
7.5
41
20.0
42
7.5
43
20.0
44
210.0
45
297.0
46
0.0
47
0.0
48
0.0
49
0.0
140
0.0
141
0.0
142
1.0
143
1.0
70
11952
72
1
73
1
74
1
7

75
0
76
0
77
2
78
300
147
1.0
148
0.0
149
0.0
100
AcDbLayout
1
Model
71
0
10
-20.0
20
-7.5
11
277.0
21
202.5
12
0.0
22
0.0
32
0.0
14
25.7
24
19.5
34
0.0
15
231.3
25
175.5
35
0.0
146
0.0
13
0.0
23
0.0
33
0.0
16
1.0
26
0.0
36
0.0
17
0.0
27
1.0
37
0.0
76
0
330
1C
0
LAYOUT
5
4D
330
4B
100
AcDbPlotSettings
1

2
none_device
4
ISO_A4_(210.00_x_297.00_MM)
6

40
7.5
41
20.0
42
7.5
43
20.0
44
210.0
45
297.0
46
0.0
47
0.0
48
0.0
49
0.0
140
0.0
141
0.0
142
1.0
143
1.0
70
688
72
1
73
1
74
1
7

75
0
76
0
77
2
78
300
147
1.0
148
0.0
149
0.0
100
AcDbLayout
1
Layout1
71
1
10
-20.0
20
-7.5
11
277.0
21
202.5
12
0.0
22
0.0
32
0.0
14
25.7
24
19.5
34
0.0
15
231.3
25
175.5
35
0.0
146
0.0
13
0.0
23
0.0
33
0.0
16
1.0
26
0.0
36
0.0
17
0.0
27
1.0
37
0.0
76
0
330
48
0
MLINESTYLE
5
1B
330
B
100
AcDbMlineStyle
2
Standard
70
0
3

62
256
51
90.0
52
90.0
71
2
49
0.5
62
256
6
ByLayer
49
-0.5
62
256
6
ByLayer
0
RASTERVARIABLES
5
21
330
E
100
AcDbRasterVariables
90
0
70
1
71
1
72
0
0
ENDSEC
0
EOF
