999
DXF file generated by netDxf https://github.com/haplokuon/netDxf, Copyright(C) Daniel Carvajal, Licensed under MIT
0
SECTION
2
HEADER
9
$ACADVER
1
AC1015
9
$DWGCODEPAGE
3
ANSI_1252
9
$HANDSEED
5
44
9
$ANGBASE
50
0.0
9
$ANGDIR
70
0
9
$ATTMODE
70
1
9
$AUNITS
70
0
9
$AUPREC
70
0
9
$CECOLOR
62
256
9
$CELTSCALE
40
1.0
9
$CELTYPE
6
ByLayer
9
$CELWEIGHT
370
-1
9
$CLAYER
8
0
9
$CMLJUST
70
0
9
$CMLSCALE
40
20.0
9
$CMLSTYLE
2
Standard
9
$DIMSTYLE
2
Standard
9
$TEXTSIZE
40
2.5
9
$TEXTSTYLE
7
Standard
9
$LUNITS
70
2
9
$LUPREC
70
4
9
$MIRRTEXT
70
0
9
$EXTNAMES
290
1
9
$INSBASE
10
0.0
20
0.0
30
0.0
9
$INSUNITS
70
0
9
$LTSCALE
40
1.0
9
$LWDISPLAY
290
0
9
$PDMODE
70
0
9
$PDSIZE
40
0.0
9
$PLINEGEN
70
0
9
$PSLTSCALE
70
1
9
$SPLINESEGS
70
8
9
$SURFU
70
6
9
$SURFV
70
6
9
$TDCREATE
40
2460823.48365862
9
$TDUCREATE
40
2460823.15032529
9
$TDUPDATE
40
2460823.48365862
9
$TDUUPDATE
40
2460823.15032529
9
$TDINDWG
40
0.0
9
$UCSORG
10
0.0
20
0.0
30
0.0
9
$UCSXDIR
10
1.0
20
0.0
30
0.0
9
$UCSYDIR
10
0.0
20
1.0
30
0.0
9
$DIMADEC
70
0
9
$DIMALT
70
0
9
$DIMALTD
70
2
9
$DIMALTF
40
25.4
9
$DIMALTRND
40
0.0
9
$DIMALTTD
70
2
9
$DIMALTTZ
70
0
9
$DIMALTU
70
2
9
$DIMALTZ
70
0
9
$DIMAPOST
1

9
$DIMATFIT
70
3
9
$DIMAUNIT
70
0
9
$DIMASZ
40
0.18
9
$DIMAZIN
70
0
9
$DIMSAH
70
0
9
$DIMBLK
1

9
$DIMLDRBLK
1

9
$DIMCEN
40
0.09
9
$DIMCLRD
70
0
9
$DIMCLRE
70
0
9
$DIMCLRT
70
0
9
$DIMDEC
70
4
9
$DIMDLE
40
0.0
9
$DIMDLI
40
0.38
9
$DIMDSEP
70
46
9
$DIMEXE
40
0.18
9
$DIMEXO
40
0.0625
9
$DIMFXLON
70
0
9
$DIMFXL
40
1.0
9
$DIMGAP
40
0.09
9
$DIMJUST
70
0
9
$DIMLFAC
40
1.0
9
$DIMLUNIT
70
2
9
$DIMLWD
70
-2
9
$DIMLWE
70
-2
9
$DIMPOST
1

9
$DIMRND
40
0.0
9
$DIMSCALE
40
1.0
9
$DIMSD1
70
0
9
$DIMSD2
70
0
9
$DIMSE1
70
0
9
$DIMSE2
70
0
9
$DIMSOXD
70
0
9
$DIMTAD
70
0
9
$DIMTDEC
70
4
9
$DIMTFAC
40
1.0
9
$DIMTIH
70
0
9
$DIMTIX
70
0
9
$DIMTM
40
0.0
9
$DIMTMOVE
70
0
9
$DIMTOFL
70
0
9
$DIMTOH
70
0
9
$DIMTOL
70
0
9
$DIMLIM
70
0
9
$DIMTOLJ
70
1
9
$DIMTP
40
0.0
9
$DIMTXT
40
0.18
9
$DIMTXTDIRECTION
70
0
9
$DIMTZIN
70
0
9
$DIMZIN
70
0
9
$DIMFRAC
70
0
9
$DIMLTYPE
6
ByBlock
9
$DIMLTEX1
6
ByBlock
9
$DIMLTEX2
6
ByBlock
0
ENDSEC
0
SECTION
2
CLASSES
0
CLASS
1
RASTERVARIABLES
2
AcDbRasterVariables
3
ISM
90
0
280
0
281
0
0
ENDSEC
0
SECTION
2
TABLES
0
TABLE
2
APPID
5
4
330
0
100
AcDbSymbolTable
70
5
0
APPID
5
19
330
4
100
AcDbSymbolTableRecord
100
AcDbRegAppTableRecord
2
ACAD
70
0
0
APPID
5
3E
330
4
100
AcDbSymbolTableRecord
100
AcDbRegAppTableRecord
2
AcCmTransparency
70
0
0
APPID
5
3F
330
4
100
AcDbSymbolTableRecord
100
AcDbRegAppTableRecord
2
AcAecLayerStandard
70
0
0
APPID
5
40
330
4
100
AcDbSymbolTableRecord
100
AcDbRegAppTableRecord
2
GradientColor1ACI
70
0
0
APPID
5
41
330
4
100
AcDbSymbolTableRecord
100
AcDbRegAppTableRecord
2
GradientColor2ACI
70
0
0
ENDTAB
0
TABLE
2
VPORT
5
1
330
0
100
AcDbSymbolTable
70
1
0
VPORT
5
2
330
1
100
AcDbSymbolTableRecord
100
AcDbViewportTableRecord
2
*Active
70
0
10
0.0
20
0.0
11
1.0
21
1.0
12
0.0
22
0.0
13
0.0
23
0.0
14
0.5
24
0.5
15
10.0
25
10.0
16
0.0
26
0.0
36
1.0
17
0.0
27
0.0
37
0.0
40
10.0
41
1.0
75
0
76
1
0
ENDTAB
0
TABLE
2
LTYPE
5
7
330
0
100
AcDbSymbolTable
70
3
0
LTYPE
5
15
330
7
100
AcDbSymbolTableRecord
100
AcDbLinetypeTableRecord
2
Continuous
70
0
3
Solid line
72
65
73
0
40
0.0
0
LTYPE
5
16
330
7
100
AcDbSymbolTableRecord
100
AcDbLinetypeTableRecord
2
ByLayer
70
0
3

72
65
73
0
40
0.0
0
LTYPE
5
17
330
7
100
AcDbSymbolTableRecord
100
AcDbLinetypeTableRecord
2
ByBlock
70
0
3

72
65
73
0
40
0.0
0
ENDTAB
0
TABLE
2
LAYER
5
5
102
{ACAD_XDICTIONARY
360
6
102
}
330
0
100
AcDbSymbolTable
70
1
0
LAYER
5
14
330
5
100
AcDbSymbolTableRecord
100
AcDbLayerTableRecord
2
0
70
0
62
7
6
Continuous
290
1
370
-3
390
0
0
ENDTAB
0
TABLE
2
STYLE
5
8
330
0
100
AcDbSymbolTable
70
1
0
STYLE
5
18
330
8
100
AcDbSymbolTableRecord
100
AcDbTextStyleTableRecord
2
Standard
3
simplex.shx
70
0
71
0
40
0.0
41
1.0
42
0.0
50
0.0
0
ENDTAB
0
TABLE
2
DIMSTYLE
5
A
330
0
100
AcDbSymbolTable
70
1
100
AcDbDimStyleTable
0
DIMSTYLE
105
1A
330
A
100
AcDbSymbolTableRecord
100
AcDbDimStyleTableRecord
2
Standard
3

4

40
1.0
41
0.18
42
0.0625
43
0.38
44
0.18
45
0.0
46
0.0
47
0.0
48
0.0
49
1.0
70
0
71
0
72
0
73
0
74
0
75
0
76
0
77
0
78
0
79
0
140
0.18
141
0.09
143
25.4
144
1.0
146
1.0
147
0.09
148
0.0
170
0
171
2
172
0
174
0
175
0
176
0
177
0
178
0
179
0
271
4
272
4
273
2
274
2
275
0
276
0
277
2
278
46
279
0
280
0
281
0
282
0
283
1
284
0
285
0
286
0
289
3
290
0
294
0
340
18
173
0
345
17
346
17
347
17
371
-2
372
-2
0
ENDTAB
0
TABLE
2
VIEW
5
3
330
0
100
AcDbSymbolTable
70
0
0
ENDTAB
0
TABLE
2
UCS
5
C
330
0
100
AcDbSymbolTable
70
0
0
ENDTAB
0
TABLE
2
BLOCK_RECORD
5
D
330
0
100
AcDbSymbolTable
70
2
0
BLOCK_RECORD
5
1C
330
D
100
AcDbSymbolTableRecord
100
AcDbBlockTableRecord
2
*Model_Space
340
20
0
BLOCK_RECORD
5
38
330
D
100
AcDbSymbolTableRecord
100
AcDbBlockTableRecord
2
*Paper_Space
340
3D
0
ENDTAB
0
ENDSEC
0
SECTION
2
BLOCKS
0
BLOCK
5
1E
330
1C
100
AcDbEntity
67
0
8
0
100
AcDbBlockBegin
2
*Model_Space
70
0
10
0.0
20
0.0
30
0.0
3
*Model_Space
4

0
ENDBLK
5
1D
330
1C
100
AcDbEntity
8
0
100
AcDbBlockEnd
0
BLOCK
5
3A
330
38
100
AcDbEntity
67
1
8
0
100
AcDbBlockBegin
2
*Paper_Space
70
0
10
0.0
20
0.0
30
0.0
3
*Paper_Space
4

0
ENDBLK
5
39
330
38
100
AcDbEntity
8
0
100
AcDbBlockEnd
0
ENDSEC
0
SECTION
2
ENTITIES
0
LWPOLYLINE
5
22
330
1C
100
AcDbEntity
67
0
8
0
62
256
6
ByLayer
370
-1
48
1.0
60
0
100
AcDbPolyline
90
29
70
1
38
0.0
39
0.0
10
65.4885025024414
20
66.2029037475586
40
0.0
41
0.0
42
0.0
10
65.9324035644531
20
66.0057983398438
40
0.0
41
0.0
42
0.0
10
65.9888000488281
20
65.978401184082
40
0.0
41
0.0
42
0.0
10
66.3647003173828
20
65.8108978271484
40
0.0
41
0.0
42
0.0
10
66.5040969848633
20
65.7516021728516
40
0.0
41
0.0
42
0.0
10
66.9487991333008
20
65.5070037841797
40
0.0
41
0.0
42
0.0
10
66.9589996337891
20
65.4965972900391
40
0.0
41
0.0
42
0.0
10
67.0064010620117
20
65.4691009521484
40
0.0
41
0.0
42
0.0
10
67.493896484375
20
65.114501953125
40
0.0
41
0.0
42
0.0
10
67.594596862793
20
65.0065002441406
40
0.0
41
0.0
42
0.0
10
67.598503112793
20
65.0009994506836
40
0.0
41
0.0
42
0.0
10
67.6232986450195
20
65.0009994506836
40
0.0
41
0.0
42
0.0
10
67.6231002807617
20
65.013298034668
40
0.0
41
0.0
42
0.0
10
67.5936965942383
20
65.0554962158203
40
0.0
41
0.0
42
0.0
10
67.5058975219727
20
65.1498031616211
40
0.0
41
0.0
42
0.0
10
67.0637969970703
20
65.4713973999023
40
0.0
41
0.0
42
0.0
10
67.0035018920898
20
65.502799987793
40
0.0
41
0.0
42
0.0
10
66.9666976928711
20
65.5407028198242
40
0.0
41
0.0
42
0.0
10
66.5660018920898
20
65.7610015869141
40
0.0
41
0.0
42
0.0
10
66.5245971679688
20
65.7771987915039
40
0.0
41
0.0
42
0.0
10
66.5136032104492
20
65.7795028686523
40
0.0
41
0.0
42
0.0
10
66.004997253418
20
66.0009994506836
40
0.0
41
0.0
42
0.0
10
65.9588012695312
20
66.026496887207
40
0.0
41
0.0
42
0.0
10
65.5667037963867
20
66.2012023925781
40
0.0
41
0.0
42
0.0
10
65.5117034912109
20
66.2231979370117
40
0.0
41
0.0
42
0.0
10
65.0154037475586
20
66.4506988525391
40
0.0
41
0.0
42
0.0
10
65.0009994506836
20
66.4506988525391
40
0.0
41
0.0
42
0.0
10
65.0008010864258
20
66.4259033203125
40
0.0
41
0.0
42
0.0
10
65.4885025024414
20
66.2029037475586
40
0.0
41
0.0
42
0.0
210
0.0
220
0.0
230
1.0
0
LWPOLYLINE
5
23
330
1C
100
AcDbEntity
67
0
8
0
62
256
6
ByLayer
370
-1
48
1.0
60
0
100
AcDbPolyline
90
61
70
1
38
0.0
39
0.0
10
65.0009002685547
20
72.3607025146484
40
0.0
41
0.0
42
0.0
10
65.0009002685547
20
72.325798034668
40
0.0
41
0.0
42
0.0
10
65.4367980957031
20
72.0091018676758
40
0.0
41
0.0
42
0.0
10
65.4887008666992
20
71.975700378418
40
0.0
41
0.0
42
0.0
10
65.9303970336914
20
71.8461990356445
40
0.0
41
0.0
42
0.0
10
65.9824981689453
20
71.8335037231445
40
0.0
41
0.0
42
0.0
10
66.0122985839844
20
71.8333969116211
40
0.0
41
0.0
42
0.0
10
66.0612030029297
20
71.8748016357422
40
0.0
41
0.0
42
0.0
10
66.3341979980469
20
71.9985961914062
40
0.0
41
0.0
42
0.0
10
66.5030975341797
20
72.0998001098633
40
0.0
41
0.0
42
0.0
10
66.5177001953125
20
72.135498046875
40
0.0
41
0.0
42
0.0
10
66.7183990478516
20
72.488899230957
40
0.0
41
0.0
42
0.0
10
66.7238006591797
20
72.5030975341797
40
0.0
41
0.0
42
0.0
10
66.9498977661133
20
72.9876022338867
40
0.0
41
0.0
42
0.0
10
67.0011978149414
20
73.1472015380859
40
0.0
41
0.0
42
0.0
10
67.0995025634766
20
73.4850006103516
40
0.0
41
0.0
42
0.0
10
67.1016006469727
20
73.4985961914062
40
0.0
41
0.0
42
0.0
10
67.1421966552734
20
73.9807968139648
40
0.0
41
0.0
42
0.0
10
67.1420974731445
20
74.0185012817383
40
0.0
41
0.0
42
0.0
10
67.1343994140625
20
74.0708999633789
40
0.0
41
0.0
42
0.0
10
67.0243988037109
20
74.5131988525391
40
0.0
41
0.0
42
0.0
10
67.0183029174805
20
74.5271987915039
40
0.0
41
0.0
42
0.0
10
66.7736968994141
20
74.9723968505859
40
0.0
41
0.0
42
0.0
10
66.7584991455078
20
75.0110015869141
40
0.0
41
0.0
42
0.0
10
66.7293014526367
20
75.0641021728516
40
0.0
41
0.0
42
0.0
10
66.6905975341797
20
75.1238021850586
40
0.0
41
0.0
42
0.0
10
66.5036010742188
20
75.4001007080078
40
0.0
41
0.0
42
0.0
10
66.0589981079102
20
75.8479995727539
40
0.0
41
0.0
42
0.0
10
66.0080032348633
20
75.9154968261719
40
0.0
41
0.0
42
0.0
10
65.564697265625
20
75.9992980957031
40
0.0
41
0.0
42
0.0
10
65.5173034667969
20
76.0119018554688
40
0.0
41
0.0
42
0.0
10
65.4850997924805
20
76.0119018554688
40
0.0
41
0.0
42
0.0
10
65.3856964111328
20
75.9593963623047
40
0.0
41
0.0
42
0.0
10
65.0009994506836
20
75.7154006958008
40
0.0
41
0.0
42
0.0
10
65.0009994506836
20
75.651496887207
40
0.0
41
0.0
42
0.0
10
65.0139007568359
20
75.6513977050781
40
0.0
41
0.0
42
0.0
10
65.4809036254883
20
75.9477996826172
40
0.0
41
0.0
42
0.0
10
65.5070037841797
20
75.9613037109375
40
0.0
41
0.0
42
0.0
10
65.8159027099609
20
75.9107971191406
40
0.0
41
0.0
42
0.0
10
65.9917984008789
20
75.8775024414062
40
0.0
41
0.0
42
0.0
10
66.0108032226562
20
75.8523025512695
40
0.0
41
0.0
42
0.0
10
66.4962005615234
20
75.3637008666992
40
0.0
41
0.0
42
0.0
10
66.7380981445312
20
75.0054016113281
40
0.0
41
0.0
42
0.0
10
66.7509994506836
20
74.9789962768555
40
0.0
41
0.0
42
0.0
10
67.0186004638672
20
74.4919967651367
40
0.0
41
0.0
42
0.0
10
67.1390991210938
20
74.0102005004883
40
0.0
41
0.0
42
0.0
10
67.1407012939453
20
73.996696472168
40
0.0
41
0.0
42
0.0
10
67.1051025390625
20
73.5724029541016
40
0.0
41
0.0
42
0.0
10
67.0959014892578
20
73.5152969360352
40
0.0
41
0.0
42
0.0
10
67.0048980712891
20
73.2029037475586
40
0.0
41
0.0
42
0.0
10
66.9439010620117
20
73.0122985839844
40
0.0
41
0.0
42
0.0
10
66.7360992431641
20
72.5667037963867
40
0.0
41
0.0
42
0.0
10
66.7146987915039
20
72.5110015869141
40
0.0
41
0.0
42
0.0
10
66.5201034545898
20
72.168098449707
40
0.0
41
0.0
42
0.0
10
66.4962005615234
20
72.1179962158203
40
0.0
41
0.0
42
0.0
10
66.2997970581055
20
72.0012969970703
40
0.0
41
0.0
42
0.0
10
66.0055999755859
20
71.8677978515625
40
0.0
41
0.0
42
0.0
10
65.9945983886719
20
71.8583984375
40
0.0
41
0.0
42
0.0
10
65.510498046875
20
72.0002975463867
40
0.0
41
0.0
42
0.0
10
65.0130996704102
20
72.3607025146484
40
0.0
41
0.0
42
0.0
10
65.0009002685547
20
72.3607025146484
40
0.0
41
0.0
42
0.0
210
0.0
220
0.0
230
1.0
0
LWPOLYLINE
5
24
330
1C
100
AcDbEntity
67
0
8
0
62
256
6
ByLayer
370
-1
48
1.0
60
0
100
AcDbPolyline
90
27
70
1
38
0.0
39
0.0
10
65.0009994506836
20
82.4011993408203
40
0.0
41
0.0
42
0.0
10
65.0009994506836
20
82.3766021728516
40
0.0
41
0.0
42
0.0
10
65.013298034668
20
82.3766021728516
40
0.0
41
0.0
42
0.0
10
65.0554962158203
20
82.4059982299805
40
0.0
41
0.0
42
0.0
10
65.14990234375
20
82.493896484375
40
0.0
41
0.0
42
0.0
10
65.4714965820312
20
82.9360961914062
40
0.0
41
0.0
42
0.0
10
65.5220031738281
20
83.0311965942383
40
0.0
41
0.0
42
0.0
10
65.7610015869141
20
83.4338989257812
40
0.0
41
0.0
42
0.0
10
65.7800979614258
20
83.4877014160156
40
0.0
41
0.0
42
0.0
10
65.9983978271484
20
83.9891967773438
40
0.0
41
0.0
42
0.0
10
66.026496887207
20
84.040901184082
40
0.0
41
0.0
42
0.0
10
66.2012023925781
20
84.4330978393555
40
0.0
41
0.0
42
0.0
10
66.2231979370117
20
84.4881973266602
40
0.0
41
0.0
42
0.0
10
66.4506988525391
20
84.9844970703125
40
0.0
41
0.0
42
0.0
10
66.4506988525391
20
84.9990005493164
40
0.0
41
0.0
42
0.0
10
66.4259033203125
20
84.9990005493164
40
0.0
41
0.0
42
0.0
10
66.2029037475586
20
84.5112991333008
40
0.0
41
0.0
42
0.0
10
66.0057983398438
20
84.0673980712891
40
0.0
41
0.0
42
0.0
10
65.978401184082
20
84.011100769043
40
0.0
41
0.0
42
0.0
10
65.8108978271484
20
83.6351013183594
40
0.0
41
0.0
42
0.0
10
65.7514038085938
20
83.4953994750977
40
0.0
41
0.0
42
0.0
10
65.6855010986328
20
83.3842010498047
40
0.0
41
0.0
42
0.0
10
65.4981994628906
20
83.0434036254883
40
0.0
41
0.0
42
0.0
10
65.4691009521484
20
82.9934997558594
40
0.0
41
0.0
42
0.0
10
65.1146011352539
20
82.5059967041016
40
0.0
41
0.0
42
0.0
10
65.0065002441406
20
82.4050979614258
40
0.0
41
0.0
42
0.0
10
65.0009994506836
20
82.4011993408203
40
0.0
41
0.0
42
0.0
210
0.0
220
0.0
230
1.0
0
LWPOLYLINE
5
25
330
1C
100
AcDbEntity
67
0
8
0
62
256
6
ByLayer
370
-1
48
1.0
60
0
100
AcDbPolyline
90
56
70
1
38
0.0
39
0.0
10
66.1930999755859
20
79.4886016845703
40
0.0
41
0.0
42
0.0
10
66.4235992431641
20
79.1361999511719
40
0.0
41
0.0
42
0.0
10
66.4917984008789
20
79.0524978637695
40
0.0
41
0.0
42
0.0
10
66.7033004760742
20
79.0003967285156
40
0.0
41
0.0
42
0.0
10
66.7828979492188
20
78.9842987060547
40
0.0
41
0.0
42
0.0
10
66.9264984130859
20
78.9636993408203
40
0.0
41
0.0
42
0.0
10
66.9630966186523
20
78.9636001586914
40
0.0
41
0.0
42
0.0
10
67.0133972167969
20
78.9727020263672
40
0.0
41
0.0
42
0.0
10
67.0253982543945
20
78.9785003662109
40
0.0
41
0.0
42
0.0
10
67.0966033935547
20
79.0000991821289
40
0.0
41
0.0
42
0.0
10
67.4720993041992
20
79.1007995605469
40
0.0
41
0.0
42
0.0
10
67.5124969482422
20
79.1139984130859
40
0.0
41
0.0
42
0.0
10
68.0110015869141
20
79.3328018188477
40
0.0
41
0.0
42
0.0
10
68.3113021850586
20
79.4975967407227
40
0.0
41
0.0
42
0.0
10
68.5062026977539
20
79.6415023803711
40
0.0
41
0.0
42
0.0
10
68.5426025390625
20
79.6778030395508
40
0.0
41
0.0
42
0.0
10
68.8422012329102
20
79.9924011230469
40
0.0
41
0.0
42
0.0
10
68.9847030639648
20
80.2613983154297
40
0.0
41
0.0
42
0.0
10
69.0018997192383
20
80.2856979370117
40
0.0
41
0.0
42
0.0
10
69.0167999267578
20
80.3141021728516
40
0.0
41
0.0
42
0.0
10
69.0845031738281
20
80.4871978759766
40
0.0
41
0.0
42
0.0
10
69.1029968261719
20
80.5408020019531
40
0.0
41
0.0
42
0.0
10
69.2082977294922
20
80.9850997924805
40
0.0
41
0.0
42
0.0
10
69.222900390625
20
81.0390014648438
40
0.0
41
0.0
42
0.0
10
69.2779006958008
20
81.481201171875
40
0.0
41
0.0
42
0.0
10
69.2778015136719
20
81.5190963745117
40
0.0
41
0.0
42
0.0
10
69.2460021972656
20
81.9359970092773
40
0.0
41
0.0
42
0.0
10
69.2581024169922
20
81.9825973510742
40
0.0
41
0.0
42
0.0
10
69.2580032348633
20
82.0141983032227
40
0.0
41
0.0
42
0.0
10
69.1061019897461
20
82.2713012695312
40
0.0
41
0.0
42
0.0
10
69.006103515625
20
82.4197998046875
40
0.0
41
0.0
42
0.0
10
68.802001953125
20
82.5
40
0.0
41
0.0
42
0.0
10
68.6191024780273
20
82.5533981323242
40
0.0
41
0.0
42
0.0
10
68.5720977783203
20
82.5627975463867
40
0.0
41
0.0
42
0.0
10
68.5192031860352
20
82.5667037963867
40
0.0
41
0.0
42
0.0
10
68.4809036254883
20
82.5665969848633
40
0.0
41
0.0
42
0.0
10
68.4478988647461
20
82.5637969970703
40
0.0
41
0.0
42
0.0
10
67.9824981689453
20
82.5485000610352
40
0.0
41
0.0
42
0.0
10
67.7500991821289
20
82.499397277832
40
0.0
41
0.0
42
0.0
10
67.4858016967773
20
82.4393005371094
40
0.0
41
0.0
42
0.0
10
67.3902969360352
20
82.4052963256836
40
0.0
41
0.0
42
0.0
10
66.9899978637695
20
82.24169921875
40
0.0
41
0.0
42
0.0
10
66.8047027587891
20
82.1138000488281
40
0.0
41
0.0
42
0.0
10
66.6325988769531
20
82.0035018920898
40
0.0
41
0.0
42
0.0
10
66.495002746582
20
81.8664016723633
40
0.0
41
0.0
42
0.0
10
66.4414978027344
20
81.809196472168
40
0.0
41
0.0
42
0.0
10
66.2639999389648
20
81.5654983520508
40
0.0
41
0.0
42
0.0
10
66.2488021850586
20
81.5142974853516
40
0.0
41
0.0
42
0.0
10
66.2104034423828
20
81.3676986694336
40
0.0
41
0.0
42
0.0
10
66.0894012451172
20
81.0155029296875
40
0.0
41
0.0
42
0.0
10
66.0660018920898
20
80.7772979736328
40
0.0
41
0.0
42
0.0
10
66.0352020263672
20
80.5186996459961
40
0.0
41
0.0
42
0.0
10
66.0351028442383
20
80.4804992675781
40
0.0
41
0.0
42
0.0
10
66.0621032714844
20
79.9829025268555
40
0.0
41
0.0
42
0.0
10
66.078498840332
20
79.9117965698242
40
0.0
41
0.0
42
0.0
10
66.1930999755859
20
79.4886016845703
40
0.0
41
0.0
42
0.0
210
0.0
220
0.0
230
1.0
0
LWPOLYLINE
5
26
330
1C
100
AcDbEntity
67
0
8
0
62
256
6
ByLayer
370
-1
48
1.0
60
0
100
AcDbPolyline
90
40
70
1
38
0.0
39
0.0
10
66.0576019287109
20
80.4940032958984
40
0.0
41
0.0
42
0.0
10
66.1082000732422
20
80.9166030883789
40
0.0
41
0.0
42
0.0
10
66.1148986816406
20
80.9843978881836
40
0.0
41
0.0
42
0.0
10
66.2733993530273
20
81.4461975097656
40
0.0
41
0.0
42
0.0
10
66.2891998291016
20
81.5042037963867
40
0.0
41
0.0
42
0.0
10
66.4889984130859
20
81.7785034179688
40
0.0
41
0.0
42
0.0
10
66.7067031860352
20
81.9963989257812
40
0.0
41
0.0
42
0.0
10
66.9572982788086
20
82.1569976806641
40
0.0
41
0.0
42
0.0
10
67.0099029541016
20
82.1932983398438
40
0.0
41
0.0
42
0.0
10
67.4860000610352
20
82.3878021240234
40
0.0
41
0.0
42
0.0
10
67.5140991210938
20
82.3979034423828
40
0.0
41
0.0
42
0.0
10
68.0173034667969
20
82.5112991333008
40
0.0
41
0.0
42
0.0
10
68.4975967407227
20
82.5261993408203
40
0.0
41
0.0
42
0.0
10
68.553596496582
20
82.5149993896484
40
0.0
41
0.0
42
0.0
10
68.6056976318359
20
82.4998016357422
40
0.0
41
0.0
42
0.0
10
68.9936981201172
20
82.347297668457
40
0.0
41
0.0
42
0.0
10
69.185302734375
20
82.0626983642578
40
0.0
41
0.0
42
0.0
10
69.2270965576172
20
81.9922027587891
40
0.0
41
0.0
42
0.0
10
69.2269973754883
20
81.9656982421875
40
0.0
41
0.0
42
0.0
10
69.2621994018555
20
81.5043029785156
40
0.0
41
0.0
42
0.0
10
69.2035980224609
20
81.0315017700195
40
0.0
41
0.0
42
0.0
10
69.0839996337891
20
80.5287017822266
40
0.0
41
0.0
42
0.0
10
69.0034027099609
20
80.3208999633789
40
0.0
41
0.0
42
0.0
10
68.8363037109375
20
80.0074996948242
40
0.0
41
0.0
42
0.0
10
68.5302963256836
20
79.6860961914062
40
0.0
41
0.0
42
0.0
10
68.4926986694336
20
79.6532974243164
40
0.0
41
0.0
42
0.0
10
68.4589004516602
20
79.6307983398438
40
0.0
41
0.0
42
0.0
10
68.2855987548828
20
79.502197265625
40
0.0
41
0.0
42
0.0
10
68.0115966796875
20
79.3516998291016
40
0.0
41
0.0
42
0.0
10
67.9338989257812
20
79.313102722168
40
0.0
41
0.0
42
0.0
10
67.4880981445312
20
79.1181030273438
40
0.0
41
0.0
42
0.0
10
67.4514007568359
20
79.1035995483398
40
0.0
41
0.0
42
0.0
10
67.0647964477539
20
78.9997024536133
40
0.0
41
0.0
42
0.0
10
66.9830017089844
20
78.9745025634766
40
0.0
41
0.0
42
0.0
10
66.8423004150391
20
78.9946975708008
40
0.0
41
0.0
42
0.0
10
66.5081024169922
20
79.0761032104492
40
0.0
41
0.0
42
0.0
10
66.4830017089844
20
79.1070022583008
40
0.0
41
0.0
42
0.0
10
66.2185974121094
20
79.5111999511719
40
0.0
41
0.0
42
0.0
10
66.0824966430664
20
80.0166015625
40
0.0
41
0.0
42
0.0
10
66.0576019287109
20
80.4940032958984
40
0.0
41
0.0
42
0.0
210
0.0
220
0.0
230
1.0
0
LWPOLYLINE
5
27
330
1C
100
AcDbEntity
67
0
8
0
62
256
6
ByLayer
370
-1
48
1.0
60
0
100
AcDbPolyline
90
55
70
1
38
0.0
39
0.0
10
67.4511032104492
20
67.9830017089844
40
0.0
41
0.0
42
0.0
10
67.5003967285156
20
67.75
40
0.0
41
0.0
42
0.0
10
67.5604019165039
20
67.4858016967773
40
0.0
41
0.0
42
0.0
10
67.5944976806641
20
67.3901977539062
40
0.0
41
0.0
42
0.0
10
67.7581024169922
20
66.9899978637695
40
0.0
41
0.0
42
0.0
10
67.8860015869141
20
66.8046035766602
40
0.0
41
0.0
42
0.0
10
67.9963989257812
20
66.6324996948242
40
0.0
41
0.0
42
0.0
10
68.1324005126953
20
66.4959030151367
40
0.0
41
0.0
42
0.0
10
68.3050003051758
20
66.3701019287109
40
0.0
41
0.0
42
0.0
10
68.4887008666992
20
66.2480010986328
40
0.0
41
0.0
42
0.0
10
68.6321029663086
20
66.2104034423828
40
0.0
41
0.0
42
0.0
10
68.9843978881836
20
66.0894012451172
40
0.0
41
0.0
42
0.0
10
69.2225036621094
20
66.0660018920898
40
0.0
41
0.0
42
0.0
10
69.481201171875
20
66.0352020263672
40
0.0
41
0.0
42
0.0
10
69.519401550293
20
66.0351028442383
40
0.0
41
0.0
42
0.0
10
70.0169982910156
20
66.0621032714844
40
0.0
41
0.0
42
0.0
10
70.0878982543945
20
66.0785980224609
40
0.0
41
0.0
42
0.0
10
70.5112991333008
20
66.1931991577148
40
0.0
41
0.0
42
0.0
10
70.8654022216797
20
66.4250030517578
40
0.0
41
0.0
42
0.0
10
70.8992004394531
20
66.4421005249023
40
0.0
41
0.0
42
0.0
10
70.9468994140625
20
66.4906005859375
40
0.0
41
0.0
42
0.0
10
70.999397277832
20
66.7033004760742
40
0.0
41
0.0
42
0.0
10
71.0154037475586
20
66.7828979492188
40
0.0
41
0.0
42
0.0
10
71.0362014770508
20
66.926399230957
40
0.0
41
0.0
42
0.0
10
71.0361022949219
20
66.9629974365234
40
0.0
41
0.0
42
0.0
10
71.0270004272461
20
67.013298034668
40
0.0
41
0.0
42
0.0
10
71.0212020874023
20
67.0252990722656
40
0.0
41
0.0
42
0.0
10
70.9999008178711
20
67.0955963134766
40
0.0
41
0.0
42
0.0
10
70.8900985717773
20
67.5014038085938
40
0.0
41
0.0
42
0.0
10
70.6670989990234
20
68.0105972290039
40
0.0
41
0.0
42
0.0
10
70.502197265625
20
68.3113021850586
40
0.0
41
0.0
42
0.0
10
70.3578033447266
20
68.5066986083984
40
0.0
41
0.0
42
0.0
10
70.35009765625
20
68.5157012939453
40
0.0
41
0.0
42
0.0
10
70.0074996948242
20
68.8422012329102
40
0.0
41
0.0
42
0.0
10
69.7385025024414
20
68.9847030639648
40
0.0
41
0.0
42
0.0
10
69.7142028808594
20
69.0018997192383
40
0.0
41
0.0
42
0.0
10
69.6856994628906
20
69.0167007446289
40
0.0
41
0.0
42
0.0
10
69.5127029418945
20
69.0845031738281
40
0.0
41
0.0
42
0.0
10
69.459098815918
20
69.1029968261719
40
0.0
41
0.0
42
0.0
10
69.0148010253906
20
69.2081985473633
40
0.0
41
0.0
42
0.0
10
68.9608993530273
20
69.222900390625
40
0.0
41
0.0
42
0.0
10
68.5186996459961
20
69.2779006958008
40
0.0
41
0.0
42
0.0
10
68.4807968139648
20
69.2778015136719
40
0.0
41
0.0
42
0.0
10
68.0639038085938
20
69.2460021972656
40
0.0
41
0.0
42
0.0
10
68.0173034667969
20
69.2581024169922
40
0.0
41
0.0
42
0.0
10
67.9857025146484
20
69.2581024169922
40
0.0
41
0.0
42
0.0
10
67.7285003662109
20
69.1061019897461
40
0.0
41
0.0
42
0.0
10
67.5800018310547
20
69.0062026977539
40
0.0
41
0.0
42
0.0
10
67.4998016357422
20
68.8021011352539
40
0.0
41
0.0
42
0.0
10
67.4462966918945
20
68.6191024780273
40
0.0
41
0.0
42
0.0
10
67.436897277832
20
68.5720977783203
40
0.0
41
0.0
42
0.0
10
67.4331970214844
20
68.5192031860352
40
0.0
41
0.0
42
0.0
10
67.4330978393555
20
68.4803009033203
40
0.0
41
0.0
42
0.0
10
67.4468994140625
20
68.0350036621094
40
0.0
41
0.0
42
0.0
10
67.4511032104492
20
67.9830017089844
40
0.0
41
0.0
42
0.0
210
0.0
220
0.0
230
1.0
0
LWPOLYLINE
5
28
330
1C
100
AcDbEntity
67
0
8
0
62
256
6
ByLayer
370
-1
48
1.0
60
0
100
AcDbPolyline
90
44
70
1
38
0.0
39
0.0
10
67.4732971191406
20
68.496696472168
40
0.0
41
0.0
42
0.0
10
67.4847030639648
20
68.553596496582
40
0.0
41
0.0
42
0.0
10
67.5
20
68.6057968139648
40
0.0
41
0.0
42
0.0
10
67.6524963378906
20
68.9936981201172
40
0.0
41
0.0
42
0.0
10
67.9371032714844
20
69.1854019165039
40
0.0
41
0.0
42
0.0
10
68.0075988769531
20
69.2270965576172
40
0.0
41
0.0
42
0.0
10
68.0342025756836
20
69.2269973754883
40
0.0
41
0.0
42
0.0
10
68.4955978393555
20
69.2621994018555
40
0.0
41
0.0
42
0.0
10
68.9683990478516
20
69.2035980224609
40
0.0
41
0.0
42
0.0
10
69.4711990356445
20
69.0839996337891
40
0.0
41
0.0
42
0.0
10
69.6789016723633
20
69.003303527832
40
0.0
41
0.0
42
0.0
10
69.992301940918
20
68.8363037109375
40
0.0
41
0.0
42
0.0
10
70.3135986328125
20
68.5302963256836
40
0.0
41
0.0
42
0.0
10
70.3463973999023
20
68.4926986694336
40
0.0
41
0.0
42
0.0
10
70.368896484375
20
68.4589004516602
40
0.0
41
0.0
42
0.0
10
70.4975967407227
20
68.2854995727539
40
0.0
41
0.0
42
0.0
10
70.6598968505859
20
67.9891967773438
40
0.0
41
0.0
42
0.0
10
70.8546981811523
20
67.543701171875
40
0.0
41
0.0
42
0.0
10
70.8814010620117
20
67.4884033203125
40
0.0
41
0.0
42
0.0
10
70.8962020874023
20
67.4514007568359
40
0.0
41
0.0
42
0.0
10
70.9999008178711
20
67.0650024414062
40
0.0
41
0.0
42
0.0
10
71.0251998901367
20
66.9830017089844
40
0.0
41
0.0
42
0.0
10
71.004997253418
20
66.8427963256836
40
0.0
41
0.0
42
0.0
10
71.0003967285156
20
66.8198013305664
40
0.0
41
0.0
42
0.0
10
70.9240036010742
20
66.5093002319336
40
0.0
41
0.0
42
0.0
10
70.9028015136719
20
66.4877014160156
40
0.0
41
0.0
42
0.0
10
70.8908996582031
20
66.4817962646484
40
0.0
41
0.0
42
0.0
10
70.4886016845703
20
66.2185974121094
40
0.0
41
0.0
42
0.0
10
69.9832992553711
20
66.0824966430664
40
0.0
41
0.0
42
0.0
10
69.5058975219727
20
66.0576019287109
40
0.0
41
0.0
42
0.0
10
69.0831985473633
20
66.1082000732422
40
0.0
41
0.0
42
0.0
10
69.0154037475586
20
66.1147994995117
40
0.0
41
0.0
42
0.0
10
68.553596496582
20
66.2733001708984
40
0.0
41
0.0
42
0.0
10
68.5111999511719
20
66.2845001220703
40
0.0
41
0.0
42
0.0
10
68.456901550293
20
66.3206024169922
40
0.0
41
0.0
42
0.0
10
68.2052993774414
20
66.5038986206055
40
0.0
41
0.0
42
0.0
10
68.0034027099609
20
66.7067031860352
40
0.0
41
0.0
42
0.0
10
67.8426971435547
20
66.9572982788086
40
0.0
41
0.0
42
0.0
10
67.806396484375
20
67.0099029541016
40
0.0
41
0.0
42
0.0
10
67.6119003295898
20
67.4859008789062
40
0.0
41
0.0
42
0.0
10
67.6017990112305
20
67.5140991210938
40
0.0
41
0.0
42
0.0
10
67.499397277832
20
67.9656982421875
40
0.0
41
0.0
42
0.0
10
67.4880981445312
20
68.0217971801758
40
0.0
41
0.0
42
0.0
10
67.4732971191406
20
68.496696472168
40
0.0
41
0.0
42
0.0
210
0.0
220
0.0
230
1.0
0
LWPOLYLINE
5
29
330
1C
100
AcDbEntity
67
0
8
0
62
256
6
ByLayer
370
-1
48
1.0
60
0
100
AcDbPolyline
90
273
70
1
38
0.0
39
0.0
10
69.4764022827148
20
74.4848022460938
40
0.0
41
0.0
42
0.0
10
69.477897644043
20
74.4816970825195
40
0.0
41
0.0
42
0.0
10
69.5000991821289
20
74.4073028564453
40
0.0
41
0.0
42
0.0
10
69.611701965332
20
74.0015029907227
40
0.0
41
0.0
42
0.0
10
69.6154022216797
20
73.9943008422852
40
0.0
41
0.0
42
0.0
10
69.6203002929688
20
73.9909973144531
40
0.0
41
0.0
42
0.0
10
69.9914016723633
20
73.6661987304688
40
0.0
41
0.0
42
0.0
10
70.0053024291992
20
73.659797668457
40
0.0
41
0.0
42
0.0
10
70.2385025024414
20
73.5002975463867
40
0.0
41
0.0
42
0.0
10
70.4877014160156
20
73.356201171875
40
0.0
41
0.0
42
0.0
10
70.5024032592773
20
73.352897644043
40
0.0
41
0.0
42
0.0
10
70.9869995117188
20
73.0936965942383
40
0.0
41
0.0
42
0.0
10
71.0025024414062
20
73.0906982421875
40
0.0
41
0.0
42
0.0
10
71.1439971923828
20
73.0065994262695
40
0.0
41
0.0
42
0.0
10
71.1557998657227
20
72.988899230957
40
0.0
41
0.0
42
0.0
10
71.2938995361328
20
72.5189971923828
40
0.0
41
0.0
42
0.0
10
71.2866973876953
20
72.5001983642578
40
0.0
41
0.0
42
0.0
10
71.247200012207
20
72.018798828125
40
0.0
41
0.0
42
0.0
10
71.2351989746094
20
71.5344009399414
40
0.0
41
0.0
42
0.0
10
71.2326965332031
20
71.5183029174805
40
0.0
41
0.0
42
0.0
10
71.2325973510742
20
71.4817962646484
40
0.0
41
0.0
42
0.0
10
71.3133010864258
20
71.0382995605469
40
0.0
41
0.0
42
0.0
10
71.3203964233398
20
70.9878005981445
40
0.0
41
0.0
42
0.0
10
71.3375015258789
20
70.9633026123047
40
0.0
41
0.0
42
0.0
10
71.4937973022461
20
70.7014007568359
40
0.0
41
0.0
42
0.0
10
71.5024032592773
20
70.6988983154297
40
0.0
41
0.0
42
0.0
10
71.9098968505859
20
70.5016021728516
40
0.0
41
0.0
42
0.0
10
71.9828033447266
20
70.481201171875
40
0.0
41
0.0
42
0.0
10
72.0188980102539
20
70.481201171875
40
0.0
41
0.0
42
0.0
10
72.2220001220703
20
70.5008010864258
40
0.0
41
0.0
42
0.0
10
72.5017013549805
20
70.5235977172852
40
0.0
41
0.0
42
0.0
10
72.5148010253906
20
70.526496887207
40
0.0
41
0.0
42
0.0
10
72.9972991943359
20
70.665397644043
40
0.0
41
0.0
42
0.0
10
73.0120010375977
20
70.6725997924805
40
0.0
41
0.0
42
0.0
10
73.4862976074219
20
70.8302001953125
40
0.0
41
0.0
42
0.0
10
73.5092010498047
20
70.8396987915039
40
0.0
41
0.0
42
0.0
10
73.9495010375977
20
70.7796020507812
40
0.0
41
0.0
42
0.0
10
73.9905014038086
20
70.7773971557617
40
0.0
41
0.0
42
0.0
10
74.2071990966797
20
70.506103515625
40
0.0
41
0.0
42
0.0
10
74.2166976928711
20
70.4860992431641
40
0.0
41
0.0
42
0.0
10
74.4953002929688
20
70.193000793457
40
0.0
41
0.0
42
0.0
10
74.7105026245117
20
69.9579010009766
40
0.0
41
0.0
42
0.0
10
74.99169921875
20
69.688102722168
40
0.0
41
0.0
42
0.0
10
75.3933029174805
20
69.5176010131836
40
0.0
41
0.0
42
0.0
10
75.4405975341797
20
69.4990005493164
40
0.0
41
0.0
42
0.0
10
75.4850006103516
20
69.4765014648438
40
0.0
41
0.0
42
0.0
10
75.5150985717773
20
69.4764022827148
40
0.0
41
0.0
42
0.0
10
75.5182037353516
20
69.4779968261719
40
0.0
41
0.0
42
0.0
10
75.5924987792969
20
69.5000991821289
40
0.0
41
0.0
42
0.0
10
75.9992980957031
20
69.6120986938477
40
0.0
41
0.0
42
0.0
10
76.005500793457
20
69.6153030395508
40
0.0
41
0.0
42
0.0
10
76.0086975097656
20
69.6203002929688
40
0.0
41
0.0
42
0.0
10
76.3336029052734
20
69.9915008544922
40
0.0
41
0.0
42
0.0
10
76.3398971557617
20
70.0054016113281
40
0.0
41
0.0
42
0.0
10
76.4994964599609
20
70.2386016845703
40
0.0
41
0.0
42
0.0
10
76.6435012817383
20
70.4878005981445
40
0.0
41
0.0
42
0.0
10
76.6468963623047
20
70.5024032592773
40
0.0
41
0.0
42
0.0
10
76.9059982299805
20
70.9870986938477
40
0.0
41
0.0
42
0.0
10
76.9089965820312
20
71.0025024414062
40
0.0
41
0.0
42
0.0
10
76.9932022094727
20
71.1440963745117
40
0.0
41
0.0
42
0.0
10
77.0110015869141
20
71.1558990478516
40
0.0
41
0.0
42
0.0
10
77.4809036254883
20
71.2938995361328
40
0.0
41
0.0
42
0.0
10
77.4997024536133
20
71.2866973876953
40
0.0
41
0.0
42
0.0
10
77.9811019897461
20
71.247200012207
40
0.0
41
0.0
42
0.0
10
78.4654998779297
20
71.2351989746094
40
0.0
41
0.0
42
0.0
10
78.4815979003906
20
71.2326965332031
40
0.0
41
0.0
42
0.0
10
78.5180969238281
20
71.2325973510742
40
0.0
41
0.0
42
0.0
10
78.9616012573242
20
71.3133010864258
40
0.0
41
0.0
42
0.0
10
79.0120010375977
20
71.3205032348633
40
0.0
41
0.0
42
0.0
10
79.0363998413086
20
71.3375015258789
40
0.0
41
0.0
42
0.0
10
79.2984008789062
20
71.4937973022461
40
0.0
41
0.0
42
0.0
10
79.3007965087891
20
71.5025024414062
40
0.0
41
0.0
42
0.0
10
79.4981994628906
20
71.9100036621094
40
0.0
41
0.0
42
0.0
10
79.5186996459961
20
71.9828033447266
40
0.0
41
0.0
42
0.0
10
79.5185012817383
20
72.0188980102539
40
0.0
41
0.0
42
0.0
10
79.4990005493164
20
72.2220001220703
40
0.0
41
0.0
42
0.0
10
79.4760971069336
20
72.5017013549805
40
0.0
41
0.0
42
0.0
10
79.4736022949219
20
72.5129013061523
40
0.0
41
0.0
42
0.0
10
79.4664993286133
20
72.5272979736328
40
0.0
41
0.0
42
0.0
10
79.3264999389648
20
73.0137023925781
40
0.0
41
0.0
42
0.0
10
79.1695022583008
20
73.4862976074219
40
0.0
41
0.0
42
0.0
10
79.1600036621094
20
73.5091018676758
40
0.0
41
0.0
42
0.0
10
79.220100402832
20
73.9496002197266
40
0.0
41
0.0
42
0.0
10
79.2223968505859
20
73.9905014038086
40
0.0
41
0.0
42
0.0
10
79.4937973022461
20
74.2071990966797
40
0.0
41
0.0
42
0.0
10
79.5136032104492
20
74.2166976928711
40
0.0
41
0.0
42
0.0
10
79.8067016601562
20
74.4953994750977
40
0.0
41
0.0
42
0.0
10
79.9971008300781
20
74.6707992553711
40
0.0
41
0.0
42
0.0
10
80.0161972045898
20
74.6856994628906
40
0.0
41
0.0
42
0.0
10
80.0417022705078
20
74.7104034423828
40
0.0
41
0.0
42
0.0
10
80.3115997314453
20
74.99169921875
40
0.0
41
0.0
42
0.0
10
80.4821014404297
20
75.3934020996094
40
0.0
41
0.0
42
0.0
10
80.5043029785156
20
75.4492034912109
40
0.0
41
0.0
42
0.0
10
80.5233993530273
20
75.4851989746094
40
0.0
41
0.0
42
0.0
10
80.5233001708984
20
75.5150985717773
40
0.0
41
0.0
42
0.0
10
80.5217971801758
20
75.5180969238281
40
0.0
41
0.0
42
0.0
10
80.4997024536133
20
75.592399597168
40
0.0
41
0.0
42
0.0
10
80.3876037597656
20
75.9991989135742
40
0.0
41
0.0
42
0.0
10
80.3843994140625
20
76.0054016113281
40
0.0
41
0.0
42
0.0
10
80.3795013427734
20
76.0085983276367
40
0.0
41
0.0
42
0.0
10
80.0083999633789
20
76.3335037231445
40
0.0
41
0.0
42
0.0
10
79.994499206543
20
76.3397979736328
40
0.0
41
0.0
42
0.0
10
79.7611999511719
20
76.499397277832
40
0.0
41
0.0
42
0.0
10
79.5121002197266
20
76.6435012817383
40
0.0
41
0.0
42
0.0
10
79.4973983764648
20
76.6467971801758
40
0.0
41
0.0
42
0.0
10
79.0128021240234
20
76.9059982299805
40
0.0
41
0.0
42
0.0
10
78.9972991943359
20
76.9089965820312
40
0.0
41
0.0
42
0.0
10
78.855598449707
20
76.9932022094727
40
0.0
41
0.0
42
0.0
10
78.8439025878906
20
77.0110015869141
40
0.0
41
0.0
42
0.0
10
78.7059020996094
20
77.4807968139648
40
0.0
41
0.0
42
0.0
10
78.7129974365234
20
77.4996032714844
40
0.0
41
0.0
42
0.0
10
78.7525024414062
20
77.9824981689453
40
0.0
41
0.0
42
0.0
10
78.7548980712891
20
77.9969024658203
40
0.0
41
0.0
42
0.0
10
78.7565994262695
20
78.0642013549805
40
0.0
41
0.0
42
0.0
10
78.7490997314453
20
78.0174026489258
40
0.0
41
0.0
42
0.0
10
78.7125015258789
20
77.570198059082
40
0.0
41
0.0
42
0.0
10
78.6909027099609
20
77.5143966674805
40
0.0
41
0.0
42
0.0
10
78.6759033203125
20
77.4257965087891
40
0.0
41
0.0
42
0.0
10
78.6757965087891
20
77.3906021118164
40
0.0
41
0.0
42
0.0
10
78.7938995361328
20
76.988899230957
40
0.0
41
0.0
42
0.0
10
78.8164978027344
20
76.9546966552734
40
0.0
41
0.0
42
0.0
10
78.932502746582
20
76.8856964111328
40
0.0
41
0.0
42
0.0
10
78.9870986938477
20
76.875
40
0.0
41
0.0
42
0.0
10
79.4322967529297
20
76.6370010375977
40
0.0
41
0.0
42
0.0
10
79.4877014160156
20
76.6242980957031
40
0.0
41
0.0
42
0.0
10
79.7228012084961
20
76.4880981445312
40
0.0
41
0.0
42
0.0
10
79.935302734375
20
76.3426971435547
40
0.0
41
0.0
42
0.0
10
79.9915008544922
20
76.3171005249023
40
0.0
41
0.0
42
0.0
10
80.3343963623047
20
76.0167999267578
40
0.0
41
0.0
42
0.0
10
80.3678970336914
20
75.9944000244141
40
0.0
41
0.0
42
0.0
10
80.3963012695312
20
75.9400024414062
40
0.0
41
0.0
42
0.0
10
80.5178985595703
20
75.502197265625
40
0.0
41
0.0
42
0.0
10
80.4998016357422
20
75.4677963256836
40
0.0
41
0.0
42
0.0
10
80.304801940918
20
75.007698059082
40
0.0
41
0.0
42
0.0
10
80.0168991088867
20
74.7077026367188
40
0.0
41
0.0
42
0.0
10
79.9927978515625
20
74.6862030029297
40
0.0
41
0.0
42
0.0
10
79.9589996337891
20
74.6639022827148
40
0.0
41
0.0
42
0.0
10
79.7862014770508
20
74.5046005249023
40
0.0
41
0.0
42
0.0
10
79.5139007568359
20
74.2455978393555
40
0.0
41
0.0
42
0.0
10
79.4896011352539
20
74.230598449707
40
0.0
41
0.0
42
0.0
10
79.4357986450195
20
74.2079010009766
40
0.0
41
0.0
42
0.0
10
79.1869964599609
20
74.0093994140625
40
0.0
41
0.0
42
0.0
10
79.1811981201172
20
73.899299621582
40
0.0
41
0.0
42
0.0
10
79.1293029785156
20
73.5185012817383
40
0.0
41
0.0
42
0.0
10
79.1292037963867
20
73.4852981567383
40
0.0
41
0.0
42
0.0
10
79.157600402832
20
73.4332962036133
40
0.0
41
0.0
42
0.0
10
79.3060989379883
20
72.9860992431641
40
0.0
41
0.0
42
0.0
10
79.4337005615234
20
72.5425033569336
40
0.0
41
0.0
42
0.0
10
79.4611968994141
20
72.4869003295898
40
0.0
41
0.0
42
0.0
10
79.4739990234375
20
72.4281005859375
40
0.0
41
0.0
42
0.0
10
79.5114974975586
20
72.0075988769531
40
0.0
41
0.0
42
0.0
10
79.4921035766602
20
71.9412994384766
40
0.0
41
0.0
42
0.0
10
79.3110961914062
20
71.5673980712891
40
0.0
41
0.0
42
0.0
10
79.2935028076172
20
71.5062026977539
40
0.0
41
0.0
42
0.0
10
78.9875030517578
20
71.3221969604492
40
0.0
41
0.0
42
0.0
10
78.4988021850586
20
71.2338027954102
40
0.0
41
0.0
42
0.0
10
78.4630966186523
20
71.2394027709961
40
0.0
41
0.0
42
0.0
10
78.018798828125
20
71.2505035400391
40
0.0
41
0.0
42
0.0
10
77.570198059082
20
71.2873001098633
40
0.0
41
0.0
42
0.0
10
77.5143966674805
20
71.3087997436523
40
0.0
41
0.0
42
0.0
10
77.4257965087891
20
71.3240966796875
40
0.0
41
0.0
42
0.0
10
77.3906021118164
20
71.3239974975586
40
0.0
41
0.0
42
0.0
10
76.988899230957
20
71.2059020996094
40
0.0
41
0.0
42
0.0
10
76.9546966552734
20
71.1832962036133
40
0.0
41
0.0
42
0.0
10
76.8858032226562
20
71.0673980712891
40
0.0
41
0.0
42
0.0
10
76.875
20
71.0128021240234
40
0.0
41
0.0
42
0.0
10
76.6370010375977
20
70.567497253418
40
0.0
41
0.0
42
0.0
10
76.624397277832
20
70.5121994018555
40
0.0
41
0.0
42
0.0
10
76.4880981445312
20
70.2769012451172
40
0.0
41
0.0
42
0.0
10
76.3426971435547
20
70.0645980834961
40
0.0
41
0.0
42
0.0
10
76.3171005249023
20
70.0083999633789
40
0.0
41
0.0
42
0.0
10
76.0167999267578
20
69.665397644043
40
0.0
41
0.0
42
0.0
10
75.9944000244141
20
69.6317977905273
40
0.0
41
0.0
42
0.0
10
75.9400024414062
20
69.6035003662109
40
0.0
41
0.0
42
0.0
10
75.563102722168
20
69.4997024536133
40
0.0
41
0.0
42
0.0
10
75.5025024414062
20
69.4815979003906
40
0.0
41
0.0
42
0.0
10
75.4654998779297
20
69.5009002685547
40
0.0
41
0.0
42
0.0
10
75.007698059082
20
69.6949996948242
40
0.0
41
0.0
42
0.0
10
74.7077026367188
20
69.9830017089844
40
0.0
41
0.0
42
0.0
10
74.6862030029297
20
70.0071029663086
40
0.0
41
0.0
42
0.0
10
74.6638031005859
20
70.0408020019531
40
0.0
41
0.0
42
0.0
10
74.5046005249023
20
70.2135009765625
40
0.0
41
0.0
42
0.0
10
74.2455978393555
20
70.4859008789062
40
0.0
41
0.0
42
0.0
10
74.230598449707
20
70.5102996826172
40
0.0
41
0.0
42
0.0
10
74.2078018188477
20
70.5640029907227
40
0.0
41
0.0
42
0.0
10
74.0093994140625
20
70.8126983642578
40
0.0
41
0.0
42
0.0
10
73.899299621582
20
70.8184967041016
40
0.0
41
0.0
42
0.0
10
73.5185012817383
20
70.8705978393555
40
0.0
41
0.0
42
0.0
10
73.4852981567383
20
70.8704986572266
40
0.0
41
0.0
42
0.0
10
73.4334030151367
20
70.8423004150391
40
0.0
41
0.0
42
0.0
10
72.9878997802734
20
70.6941986083984
40
0.0
41
0.0
42
0.0
10
72.932502746582
20
70.6669998168945
40
0.0
41
0.0
42
0.0
10
72.4850997924805
20
70.5381011962891
40
0.0
41
0.0
42
0.0
10
72.4281005859375
20
70.5257034301758
40
0.0
41
0.0
42
0.0
10
72.0075988769531
20
70.4881973266602
40
0.0
41
0.0
42
0.0
10
71.9412002563477
20
70.5075988769531
40
0.0
41
0.0
42
0.0
10
71.5673980712891
20
70.6885986328125
40
0.0
41
0.0
42
0.0
10
71.506103515625
20
70.7061004638672
40
0.0
41
0.0
42
0.0
10
71.3221969604492
20
71.0123977661133
40
0.0
41
0.0
42
0.0
10
71.2338027954102
20
71.5009994506836
40
0.0
41
0.0
42
0.0
10
71.2394027709961
20
71.5367965698242
40
0.0
41
0.0
42
0.0
10
71.2505035400391
20
71.9811019897461
40
0.0
41
0.0
42
0.0
10
71.2873001098633
20
72.4297027587891
40
0.0
41
0.0
42
0.0
10
71.3087997436523
20
72.4854965209961
40
0.0
41
0.0
42
0.0
10
71.3240966796875
20
72.5739974975586
40
0.0
41
0.0
42
0.0
10
71.3239974975586
20
72.6091995239258
40
0.0
41
0.0
42
0.0
10
71.2059020996094
20
73.0110015869141
40
0.0
41
0.0
42
0.0
10
71.1831970214844
20
73.0449981689453
40
0.0
41
0.0
42
0.0
10
71.0672988891602
20
73.113899230957
40
0.0
41
0.0
42
0.0
10
71.0128021240234
20
73.1246032714844
40
0.0
41
0.0
42
0.0
10
70.567497253418
20
73.3628005981445
40
0.0
41
0.0
42
0.0
10
70.5121994018555
20
73.3752975463867
40
0.0
41
0.0
42
0.0
10
70.2769012451172
20
73.5115966796875
40
0.0
41
0.0
42
0.0
10
70.0645980834961
20
73.657096862793
40
0.0
41
0.0
42
0.0
10
70.0083999633789
20
73.6827011108398
40
0.0
41
0.0
42
0.0
10
69.6652984619141
20
73.9829025268555
40
0.0
41
0.0
42
0.0
10
69.6316986083984
20
74.0054016113281
40
0.0
41
0.0
42
0.0
10
69.603401184082
20
74.0597991943359
40
0.0
41
0.0
42
0.0
10
69.4997024536133
20
74.4366989135742
40
0.0
41
0.0
42
0.0
10
69.4816970825195
20
74.4973983764648
40
0.0
41
0.0
42
0.0
10
69.4999008178711
20
74.532096862793
40
0.0
41
0.0
42
0.0
10
69.6949996948242
20
74.9921035766602
40
0.0
41
0.0
42
0.0
10
69.9830017089844
20
75.2920989990234
40
0.0
41
0.0
42
0.0
10
70.0071029663086
20
75.3134994506836
40
0.0
41
0.0
42
0.0
10
70.0408020019531
20
75.3358993530273
40
0.0
41
0.0
42
0.0
10
70.2136001586914
20
75.4953002929688
40
0.0
41
0.0
42
0.0
10
70.4860000610352
20
75.7542037963867
40
0.0
41
0.0
42
0.0
10
70.5102996826172
20
75.7690963745117
40
0.0
41
0.0
42
0.0
10
70.5641021728516
20
75.7919006347656
40
0.0
41
0.0
42
0.0
10
70.8127975463867
20
75.9905014038086
40
0.0
41
0.0
42
0.0
10
70.8184967041016
20
76.1005020141602
40
0.0
41
0.0
42
0.0
10
70.8705978393555
20
76.4813995361328
40
0.0
41
0.0
42
0.0
10
70.8704986572266
20
76.5146026611328
40
0.0
41
0.0
42
0.0
10
70.8422012329102
20
76.5664978027344
40
0.0
41
0.0
42
0.0
10
70.6940994262695
20
77.0119018554688
40
0.0
41
0.0
42
0.0
10
70.6669006347656
20
77.0672988891602
40
0.0
41
0.0
42
0.0
10
70.5381011962891
20
77.5148010253906
40
0.0
41
0.0
42
0.0
10
70.5257034301758
20
77.5718002319336
40
0.0
41
0.0
42
0.0
10
70.4881973266602
20
77.992301940918
40
0.0
41
0.0
42
0.0
10
70.5075988769531
20
78.0586013793945
40
0.0
41
0.0
42
0.0
10
70.6886978149414
20
78.432502746582
40
0.0
41
0.0
42
0.0
10
70.7061996459961
20
78.4936981201172
40
0.0
41
0.0
42
0.0
10
71.0123977661133
20
78.6774978637695
40
0.0
41
0.0
42
0.0
10
71.5068969726562
20
78.7670974731445
40
0.0
41
0.0
42
0.0
10
71.4813995361328
20
78.7670974731445
40
0.0
41
0.0
42
0.0
10
71.4282989501953
20
78.7599029541016
40
0.0
41
0.0
42
0.0
10
70.9881973266602
20
78.6796035766602
40
0.0
41
0.0
42
0.0
10
70.9634017944336
20
78.6623001098633
40
0.0
41
0.0
42
0.0
10
70.7014007568359
20
78.5062026977539
40
0.0
41
0.0
42
0.0
10
70.6989974975586
20
78.4973983764648
40
0.0
41
0.0
42
0.0
10
70.5016021728516
20
78.0898971557617
40
0.0
41
0.0
42
0.0
10
70.481201171875
20
78.0169982910156
40
0.0
41
0.0
42
0.0
10
70.4811019897461
20
77.9810028076172
40
0.0
41
0.0
42
0.0
10
70.5008010864258
20
77.7778015136719
40
0.0
41
0.0
42
0.0
10
70.5235977172852
20
77.4981994628906
40
0.0
41
0.0
42
0.0
10
70.5263977050781
20
77.4850997924805
40
0.0
41
0.0
42
0.0
10
70.6652984619141
20
77.0025024414062
40
0.0
41
0.0
42
0.0
10
70.6725997924805
20
76.9878997802734
40
0.0
41
0.0
42
0.0
10
70.8301010131836
20
76.5134963989258
40
0.0
41
0.0
42
0.0
10
70.8396987915039
20
76.4907989501953
40
0.0
41
0.0
42
0.0
10
70.7796020507812
20
76.0503005981445
40
0.0
41
0.0
42
0.0
10
70.7774963378906
20
76.0093994140625
40
0.0
41
0.0
42
0.0
10
70.506103515625
20
75.7925033569336
40
0.0
41
0.0
42
0.0
10
70.486198425293
20
75.7830963134766
40
0.0
41
0.0
42
0.0
10
70.1930999755859
20
75.5044021606445
40
0.0
41
0.0
42
0.0
10
70.002197265625
20
75.3283996582031
40
0.0
41
0.0
42
0.0
10
69.9928970336914
20
75.3221969604492
40
0.0
41
0.0
42
0.0
10
69.9580001831055
20
75.2893981933594
40
0.0
41
0.0
42
0.0
10
69.6882019042969
20
75.0082015991211
40
0.0
41
0.0
42
0.0
10
69.5177001953125
20
74.6064987182617
40
0.0
41
0.0
42
0.0
10
69.4991989135742
20
74.559196472168
40
0.0
41
0.0
42
0.0
10
69.4765014648438
20
74.5133972167969
40
0.0
41
0.0
42
0.0
10
69.4764022827148
20
74.4848022460938
40
0.0
41
0.0
42
0.0
210
0.0
220
0.0
230
1.0
0
LWPOLYLINE
5
2A
330
1C
100
AcDbEntity
67
0
8
0
62
256
6
ByLayer
370
-1
48
1.0
60
0
100
AcDbPolyline
90
91
70
1
38
0.0
39
0.0
10
71.9355010986328
20
78.7565994262695
40
0.0
41
0.0
42
0.0
10
71.9824981689453
20
78.7490997314453
40
0.0
41
0.0
42
0.0
10
72.4297027587891
20
78.71240234375
40
0.0
41
0.0
42
0.0
10
72.4854965209961
20
78.6909027099609
40
0.0
41
0.0
42
0.0
10
72.5739974975586
20
78.6759033203125
40
0.0
41
0.0
42
0.0
10
72.6091995239258
20
78.6757965087891
40
0.0
41
0.0
42
0.0
10
73.0110015869141
20
78.7938995361328
40
0.0
41
0.0
42
0.0
10
73.0449981689453
20
78.8164978027344
40
0.0
41
0.0
42
0.0
10
73.1139984130859
20
78.9326019287109
40
0.0
41
0.0
42
0.0
10
73.1247024536133
20
78.9870986938477
40
0.0
41
0.0
42
0.0
10
73.3628005981445
20
79.4324035644531
40
0.0
41
0.0
42
0.0
10
73.3753967285156
20
79.4877014160156
40
0.0
41
0.0
42
0.0
10
73.5117034912109
20
79.722900390625
40
0.0
41
0.0
42
0.0
10
73.657096862793
20
79.935302734375
40
0.0
41
0.0
42
0.0
10
73.6828002929688
20
79.9915008544922
40
0.0
41
0.0
42
0.0
10
73.9829025268555
20
80.3345031738281
40
0.0
41
0.0
42
0.0
10
74.005500793457
20
80.3679962158203
40
0.0
41
0.0
42
0.0
10
74.0597991943359
20
80.3963012695312
40
0.0
41
0.0
42
0.0
10
74.4974975585938
20
80.5178985595703
40
0.0
41
0.0
42
0.0
10
74.5319976806641
20
80.4998016357422
40
0.0
41
0.0
42
0.0
10
74.99169921875
20
80.3050994873047
40
0.0
41
0.0
42
0.0
10
75.2919998168945
20
80.0167999267578
40
0.0
41
0.0
42
0.0
10
75.3134994506836
20
79.9926986694336
40
0.0
41
0.0
42
0.0
10
75.3358993530273
20
79.9589004516602
40
0.0
41
0.0
42
0.0
10
75.4952011108398
20
79.7862014770508
40
0.0
41
0.0
42
0.0
10
75.7540969848633
20
79.513801574707
40
0.0
41
0.0
42
0.0
10
75.7690963745117
20
79.4896011352539
40
0.0
41
0.0
42
0.0
10
75.7919006347656
20
79.4357986450195
40
0.0
41
0.0
42
0.0
10
75.9904022216797
20
79.1869964599609
40
0.0
41
0.0
42
0.0
10
76.1005020141602
20
79.1811981201172
40
0.0
41
0.0
42
0.0
10
76.4813995361328
20
79.1293029785156
40
0.0
41
0.0
42
0.0
10
76.5146026611328
20
79.1292037963867
40
0.0
41
0.0
42
0.0
10
76.5664978027344
20
79.157600402832
40
0.0
41
0.0
42
0.0
10
77.0137023925781
20
79.3061981201172
40
0.0
41
0.0
42
0.0
10
77.4573974609375
20
79.4337997436523
40
0.0
41
0.0
42
0.0
10
77.5130004882812
20
79.4611968994141
40
0.0
41
0.0
42
0.0
10
77.5718002319336
20
79.4739990234375
40
0.0
41
0.0
42
0.0
10
77.992301940918
20
79.5114974975586
40
0.0
41
0.0
42
0.0
10
78.0585021972656
20
79.4921035766602
40
0.0
41
0.0
42
0.0
10
78.4324035644531
20
79.3109970092773
40
0.0
41
0.0
42
0.0
10
78.4936981201172
20
79.2935028076172
40
0.0
41
0.0
42
0.0
10
78.6774978637695
20
78.9873962402344
40
0.0
41
0.0
42
0.0
10
78.7670974731445
20
78.4931030273438
40
0.0
41
0.0
42
0.0
10
78.7669982910156
20
78.5185012817383
40
0.0
41
0.0
42
0.0
10
78.7599029541016
20
78.5716018676758
40
0.0
41
0.0
42
0.0
10
78.6794967651367
20
79.0115966796875
40
0.0
41
0.0
42
0.0
10
78.6622009277344
20
79.0363998413086
40
0.0
41
0.0
42
0.0
10
78.5062026977539
20
79.2983016967773
40
0.0
41
0.0
42
0.0
10
78.4973983764648
20
79.3007965087891
40
0.0
41
0.0
42
0.0
10
78.0896987915039
20
79.4981994628906
40
0.0
41
0.0
42
0.0
10
78.0170974731445
20
79.5186996459961
40
0.0
41
0.0
42
0.0
10
77.9810028076172
20
79.5186004638672
40
0.0
41
0.0
42
0.0
10
77.7778015136719
20
79.4990005493164
40
0.0
41
0.0
42
0.0
10
77.4981994628906
20
79.4760971069336
40
0.0
41
0.0
42
0.0
10
77.4869995117188
20
79.4737014770508
40
0.0
41
0.0
42
0.0
10
77.4726028442383
20
79.4665985107422
40
0.0
41
0.0
42
0.0
10
76.986198425293
20
79.3264999389648
40
0.0
41
0.0
42
0.0
10
76.5134963989258
20
79.1696014404297
40
0.0
41
0.0
42
0.0
10
76.4907989501953
20
79.1600036621094
40
0.0
41
0.0
42
0.0
10
76.0502014160156
20
79.220100402832
40
0.0
41
0.0
42
0.0
10
76.0093002319336
20
79.222297668457
40
0.0
41
0.0
42
0.0
10
75.7925033569336
20
79.4936981201172
40
0.0
41
0.0
42
0.0
10
75.7829971313477
20
79.5136032104492
40
0.0
41
0.0
42
0.0
10
75.5044021606445
20
79.8066024780273
40
0.0
41
0.0
42
0.0
10
75.3289031982422
20
79.9971008300781
40
0.0
41
0.0
42
0.0
10
75.3140029907227
20
80.0160980224609
40
0.0
41
0.0
42
0.0
10
75.2894973754883
20
80.0416030883789
40
0.0
41
0.0
42
0.0
10
75.0081024169922
20
80.3115005493164
40
0.0
41
0.0
42
0.0
10
74.6063995361328
20
80.4820022583008
40
0.0
41
0.0
42
0.0
10
74.5505981445312
20
80.5043029785156
40
0.0
41
0.0
42
0.0
10
74.5147018432617
20
80.5233993530273
40
0.0
41
0.0
42
0.0
10
74.4848022460938
20
80.5233001708984
40
0.0
41
0.0
42
0.0
10
74.4816970825195
20
80.5217971801758
40
0.0
41
0.0
42
0.0
10
74.4074020385742
20
80.4997024536133
40
0.0
41
0.0
42
0.0
10
74.0015029907227
20
80.3880004882812
40
0.0
41
0.0
42
0.0
10
73.9943008422852
20
80.3843002319336
40
0.0
41
0.0
42
0.0
10
73.991096496582
20
80.3795013427734
40
0.0
41
0.0
42
0.0
10
73.6661987304688
20
80.0083999633789
40
0.0
41
0.0
42
0.0
10
73.6598968505859
20
79.9945983886719
40
0.0
41
0.0
42
0.0
10
73.5002975463867
20
79.7612991333008
40
0.0
41
0.0
42
0.0
10
73.3563003540039
20
79.5121994018555
40
0.0
41
0.0
42
0.0
10
73.352897644043
20
79.4974975585938
40
0.0
41
0.0
42
0.0
10
73.0938034057617
20
79.0129013061523
40
0.0
41
0.0
42
0.0
10
73.0907974243164
20
78.9973983764648
40
0.0
41
0.0
42
0.0
10
73.0066986083984
20
78.855598449707
40
0.0
41
0.0
42
0.0
10
72.988899230957
20
78.8439025878906
40
0.0
41
0.0
42
0.0
10
72.5190963745117
20
78.7058029174805
40
0.0
41
0.0
42
0.0
10
72.5002975463867
20
78.7129974365234
40
0.0
41
0.0
42
0.0
10
72.0174026489258
20
78.7525024414062
40
0.0
41
0.0
42
0.0
10
72.0029983520508
20
78.7548980712891
40
0.0
41
0.0
42
0.0
10
71.9355010986328
20
78.7565994262695
40
0.0
41
0.0
42
0.0
210
0.0
220
0.0
230
1.0
0
LWPOLYLINE
5
2B
330
1C
100
AcDbEntity
67
0
8
0
62
256
6
ByLayer
370
-1
48
1.0
60
0
100
AcDbPolyline
90
61
70
1
38
0.0
39
0.0
10
71.8333969116211
20
83.9876022338867
40
0.0
41
0.0
42
0.0
10
71.8747024536133
20
83.9384994506836
40
0.0
41
0.0
42
0.0
10
71.9984970092773
20
83.6654968261719
40
0.0
41
0.0
42
0.0
10
72.0982971191406
20
83.4972991943359
40
0.0
41
0.0
42
0.0
10
72.135498046875
20
83.4820022583008
40
0.0
41
0.0
42
0.0
10
72.4891967773438
20
83.2811965942383
40
0.0
41
0.0
42
0.0
10
72.9731979370117
20
83.0553970336914
40
0.0
41
0.0
42
0.0
10
72.986198425293
20
83.0503005981445
40
0.0
41
0.0
42
0.0
10
73.1472015380859
20
82.9985961914062
40
0.0
41
0.0
42
0.0
10
73.4838027954102
20
82.9005966186523
40
0.0
41
0.0
42
0.0
10
73.9674987792969
20
82.8599014282227
40
0.0
41
0.0
42
0.0
10
73.9815979003906
20
82.8576965332031
40
0.0
41
0.0
42
0.0
10
74.0174026489258
20
82.8575973510742
40
0.0
41
0.0
42
0.0
10
74.4726028442383
20
82.970703125
40
0.0
41
0.0
42
0.0
10
74.5143966674805
20
82.9757995605469
40
0.0
41
0.0
42
0.0
10
74.5271987915039
20
82.9813995361328
40
0.0
41
0.0
42
0.0
10
74.9723968505859
20
83.2259979248047
40
0.0
41
0.0
42
0.0
10
75.0110015869141
20
83.2412033081055
40
0.0
41
0.0
42
0.0
10
75.0641021728516
20
83.2704010009766
40
0.0
41
0.0
42
0.0
10
75.1239013671875
20
83.3090972900391
40
0.0
41
0.0
42
0.0
10
75.4001007080078
20
83.4962005615234
40
0.0
41
0.0
42
0.0
10
75.8480987548828
20
83.940803527832
40
0.0
41
0.0
42
0.0
10
75.9156036376953
20
83.9918975830078
40
0.0
41
0.0
42
0.0
10
75.999397277832
20
84.4350967407227
40
0.0
41
0.0
42
0.0
10
76.0119018554688
20
84.4825973510742
40
0.0
41
0.0
42
0.0
10
76.0118026733398
20
84.5147018432617
40
0.0
41
0.0
42
0.0
10
75.9593963623047
20
84.6140975952148
40
0.0
41
0.0
42
0.0
10
75.7154006958008
20
84.9990005493164
40
0.0
41
0.0
42
0.0
10
75.651496887207
20
84.9990005493164
40
0.0
41
0.0
42
0.0
10
75.6513977050781
20
84.9860000610352
40
0.0
41
0.0
42
0.0
10
75.9477005004883
20
84.5188980102539
40
0.0
41
0.0
42
0.0
10
75.9613037109375
20
84.4929962158203
40
0.0
41
0.0
42
0.0
10
75.9107971191406
20
84.1838989257812
40
0.0
41
0.0
42
0.0
10
75.8776016235352
20
84.0081024169922
40
0.0
41
0.0
42
0.0
10
75.8523025512695
20
83.9889984130859
40
0.0
41
0.0
42
0.0
10
75.3638000488281
20
83.5036010742188
40
0.0
41
0.0
42
0.0
10
75.0054016113281
20
83.2615966796875
40
0.0
41
0.0
42
0.0
10
74.9789962768555
20
83.2487030029297
40
0.0
41
0.0
42
0.0
10
74.4870986938477
20
82.9788970947266
40
0.0
41
0.0
42
0.0
10
74.4293975830078
20
82.9681015014648
40
0.0
41
0.0
42
0.0
10
73.9965972900391
20
82.8606033325195
40
0.0
41
0.0
42
0.0
10
73.96240234375
20
82.8659973144531
40
0.0
41
0.0
42
0.0
10
73.5160980224609
20
82.9036026000977
40
0.0
41
0.0
42
0.0
10
73.2029037475586
20
82.9947967529297
40
0.0
41
0.0
42
0.0
10
73.0129013061523
20
83.0554962158203
40
0.0
41
0.0
42
0.0
10
72.9567031860352
20
83.0771026611328
40
0.0
41
0.0
42
0.0
10
72.5102996826172
20
83.285400390625
40
0.0
41
0.0
42
0.0
10
72.168098449707
20
83.4796981811523
40
0.0
41
0.0
42
0.0
10
72.1172027587891
20
83.5044021606445
40
0.0
41
0.0
42
0.0
10
72.0011978149414
20
83.6999969482422
40
0.0
41
0.0
42
0.0
10
71.8677978515625
20
83.9942016601562
40
0.0
41
0.0
42
0.0
10
71.8584976196289
20
84.0052032470703
40
0.0
41
0.0
42
0.0
10
72.0003967285156
20
84.4894027709961
40
0.0
41
0.0
42
0.0
10
72.3607025146484
20
84.9868011474609
40
0.0
41
0.0
42
0.0
10
72.3607025146484
20
84.9990005493164
40
0.0
41
0.0
42
0.0
10
72.325798034668
20
84.9990005493164
40
0.0
41
0.0
42
0.0
10
72.0092010498047
20
84.563102722168
40
0.0
41
0.0
42
0.0
10
71.975700378418
20
84.511100769043
40
0.0
41
0.0
42
0.0
10
71.8462982177734
20
84.0697021484375
40
0.0
41
0.0
42
0.0
10
71.8335037231445
20
84.0131988525391
40
0.0
41
0.0
42
0.0
10
71.8333969116211
20
83.9876022338867
40
0.0
41
0.0
42
0.0
210
0.0
220
0.0
230
1.0
0
LWPOLYLINE
5
2C
330
1C
100
AcDbEntity
67
0
8
0
62
256
6
ByLayer
370
-1
48
1.0
60
0
100
AcDbPolyline
90
81
70
1
38
0.0
39
0.0
10
72.6425018310547
20
75.5106964111328
40
0.0
41
0.0
42
0.0
10
72.6425018310547
20
75.4918975830078
40
0.0
41
0.0
42
0.0
10
72.6549987792969
20
75.4844970703125
40
0.0
41
0.0
42
0.0
10
72.9926986694336
20
75.1891021728516
40
0.0
41
0.0
42
0.0
10
73.2322006225586
20
74.9922027587891
40
0.0
41
0.0
42
0.0
10
73.1849975585938
20
74.5353012084961
40
0.0
41
0.0
42
0.0
10
73.1781997680664
20
74.5115966796875
40
0.0
41
0.0
42
0.0
10
72.9959030151367
20
74.2017974853516
40
0.0
41
0.0
42
0.0
10
72.9647979736328
20
74.1779022216797
40
0.0
41
0.0
42
0.0
10
72.8326034545898
20
74.0126037597656
40
0.0
41
0.0
42
0.0
10
72.8324966430664
20
73.9897003173828
40
0.0
41
0.0
42
0.0
10
72.8566970825195
20
73.9693984985352
40
0.0
41
0.0
42
0.0
10
72.9918975830078
20
73.7954025268555
40
0.0
41
0.0
42
0.0
10
73.4289016723633
20
73.6997985839844
40
0.0
41
0.0
42
0.0
10
73.4672012329102
20
73.6933975219727
40
0.0
41
0.0
42
0.0
10
73.4819030761719
20
73.6927032470703
40
0.0
41
0.0
42
0.0
10
73.9943008422852
20
73.6249008178711
40
0.0
41
0.0
42
0.0
10
74.0560989379883
20
73.4860000610352
40
0.0
41
0.0
42
0.0
10
74.1676025390625
20
73.0203018188477
40
0.0
41
0.0
42
0.0
10
74.1731033325195
20
72.9893035888672
40
0.0
41
0.0
42
0.0
10
74.2065963745117
20
72.950798034668
40
0.0
41
0.0
42
0.0
10
74.4891967773438
20
72.6426010131836
40
0.0
41
0.0
42
0.0
10
74.5078964233398
20
72.6426010131836
40
0.0
41
0.0
42
0.0
10
74.5151977539062
20
72.6549987792969
40
0.0
41
0.0
42
0.0
10
74.8110961914062
20
72.9933013916016
40
0.0
41
0.0
42
0.0
10
75.007698059082
20
73.2322006225586
40
0.0
41
0.0
42
0.0
10
75.4644012451172
20
73.1848983764648
40
0.0
41
0.0
42
0.0
10
75.4882965087891
20
73.1781005859375
40
0.0
41
0.0
42
0.0
10
75.7979965209961
20
72.9959030151367
40
0.0
41
0.0
42
0.0
10
75.8218994140625
20
72.9646987915039
40
0.0
41
0.0
42
0.0
10
75.9872970581055
20
72.8326034545898
40
0.0
41
0.0
42
0.0
10
76.0101013183594
20
72.8326034545898
40
0.0
41
0.0
42
0.0
10
76.0302963256836
20
72.8566970825195
40
0.0
41
0.0
42
0.0
10
76.2027969360352
20
72.9906997680664
40
0.0
41
0.0
42
0.0
10
76.2039031982422
20
73.0111999511719
40
0.0
41
0.0
42
0.0
10
76.3098983764648
20
73.4985961914062
40
0.0
41
0.0
42
0.0
10
76.3748016357422
20
73.9943008422852
40
0.0
41
0.0
42
0.0
10
76.513801574707
20
74.0560989379883
40
0.0
41
0.0
42
0.0
10
76.9795989990234
20
74.1676025390625
40
0.0
41
0.0
42
0.0
10
77.010498046875
20
74.1733016967773
40
0.0
41
0.0
42
0.0
10
77.0490036010742
20
74.2067031860352
40
0.0
41
0.0
42
0.0
10
77.3572998046875
20
74.4891967773438
40
0.0
41
0.0
42
0.0
10
77.3571014404297
20
74.5078964233398
40
0.0
41
0.0
42
0.0
10
77.3447036743164
20
74.5150985717773
40
0.0
41
0.0
42
0.0
10
77.0065002441406
20
74.8110961914062
40
0.0
41
0.0
42
0.0
10
76.7704010009766
20
75.0050964355469
40
0.0
41
0.0
42
0.0
10
76.8207015991211
20
75.486701965332
40
0.0
41
0.0
42
0.0
10
77.0039978027344
20
75.7979965209961
40
0.0
41
0.0
42
0.0
10
77.0350036621094
20
75.8218994140625
40
0.0
41
0.0
42
0.0
10
77.1672973632812
20
75.9872970581055
40
0.0
41
0.0
42
0.0
10
77.1671981811523
20
76.0101013183594
40
0.0
41
0.0
42
0.0
10
77.1429977416992
20
76.0302963256836
40
0.0
41
0.0
42
0.0
10
77.0092010498047
20
76.2027969360352
40
0.0
41
0.0
42
0.0
10
76.9887008666992
20
76.2039031982422
40
0.0
41
0.0
42
0.0
10
76.5012969970703
20
76.3098983764648
40
0.0
41
0.0
42
0.0
10
76.005500793457
20
76.3747024536133
40
0.0
41
0.0
42
0.0
10
75.9437026977539
20
76.5136032104492
40
0.0
41
0.0
42
0.0
10
75.9324035644531
20
76.5703964233398
40
0.0
41
0.0
42
0.0
10
75.8268966674805
20
77.0100021362305
40
0.0
41
0.0
42
0.0
10
75.793098449707
20
77.0488967895508
40
0.0
41
0.0
42
0.0
10
75.5106964111328
20
77.3572998046875
40
0.0
41
0.0
42
0.0
10
75.4918975830078
20
77.3572998046875
40
0.0
41
0.0
42
0.0
10
75.4845962524414
20
77.3448028564453
40
0.0
41
0.0
42
0.0
10
75.1885986328125
20
77.0064010620117
40
0.0
41
0.0
42
0.0
10
74.9946975708008
20
76.7704010009766
40
0.0
41
0.0
42
0.0
10
74.5131988525391
20
76.8206024169922
40
0.0
41
0.0
42
0.0
10
74.2016983032227
20
77.0038986206055
40
0.0
41
0.0
42
0.0
10
74.1778030395508
20
77.0350036621094
40
0.0
41
0.0
42
0.0
10
74.0126037597656
20
77.1672973632812
40
0.0
41
0.0
42
0.0
10
73.9897994995117
20
77.1671981811523
40
0.0
41
0.0
42
0.0
10
73.9694976806641
20
77.1430969238281
40
0.0
41
0.0
42
0.0
10
73.7954025268555
20
77.0080032348633
40
0.0
41
0.0
42
0.0
10
73.6997985839844
20
76.5709991455078
40
0.0
41
0.0
42
0.0
10
73.6933975219727
20
76.5326995849609
40
0.0
41
0.0
42
0.0
10
73.6927032470703
20
76.5179977416992
40
0.0
41
0.0
42
0.0
10
73.625
20
76.0055999755859
40
0.0
41
0.0
42
0.0
10
73.4862976074219
20
75.9437026977539
40
0.0
41
0.0
42
0.0
10
73.4294967651367
20
75.9324035644531
40
0.0
41
0.0
42
0.0
10
72.9897994995117
20
75.8270034790039
40
0.0
41
0.0
42
0.0
10
72.950798034668
20
75.793098449707
40
0.0
41
0.0
42
0.0
10
72.6425018310547
20
75.5106964111328
40
0.0
41
0.0
42
0.0
210
0.0
220
0.0
230
1.0
0
LWPOLYLINE
5
2D
330
1C
100
AcDbEntity
67
0
8
0
62
256
6
ByLayer
370
-1
48
1.0
60
0
100
AcDbPolyline
90
74
70
1
38
0.0
39
0.0
10
73.0100021362305
20
75.8240966796875
40
0.0
41
0.0
42
0.0
10
73.4817962646484
20
75.9373016357422
40
0.0
41
0.0
42
0.0
10
73.513801574707
20
75.9428024291992
40
0.0
41
0.0
42
0.0
10
73.6296997070312
20
75.9945983886719
40
0.0
41
0.0
42
0.0
10
73.6371002197266
20
76.0381011962891
40
0.0
41
0.0
42
0.0
10
73.695198059082
20
76.4819030761719
40
0.0
41
0.0
42
0.0
10
73.6975021362305
20
76.5243988037109
40
0.0
41
0.0
42
0.0
10
73.7998962402344
20
76.9917984008789
40
0.0
41
0.0
42
0.0
10
74.0016021728516
20
77.1483993530273
40
0.0
41
0.0
42
0.0
10
74.1835021972656
20
77.002799987793
40
0.0
41
0.0
42
0.0
10
74.1889038085938
20
76.9959030151367
40
0.0
41
0.0
42
0.0
10
74.486701965332
20
76.8205032348633
40
0.0
41
0.0
42
0.0
10
74.9334030151367
20
76.7742004394531
40
0.0
41
0.0
42
0.0
10
74.9829025268555
20
76.7602996826172
40
0.0
41
0.0
42
0.0
10
75.0101013183594
20
76.7602005004883
40
0.0
41
0.0
42
0.0
10
75.2025985717773
20
76.9935989379883
40
0.0
41
0.0
42
0.0
10
75.4776000976562
20
77.3078994750977
40
0.0
41
0.0
42
0.0
10
75.5009002685547
20
77.3432998657227
40
0.0
41
0.0
42
0.0
10
75.8240966796875
20
76.9900970458984
40
0.0
41
0.0
42
0.0
10
75.9372024536133
20
76.5180969238281
40
0.0
41
0.0
42
0.0
10
75.9428024291992
20
76.4860992431641
40
0.0
41
0.0
42
0.0
10
75.9943008422852
20
76.3705978393555
40
0.0
41
0.0
42
0.0
10
76.4281005859375
20
76.3137969970703
40
0.0
41
0.0
42
0.0
10
76.484001159668
20
76.30419921875
40
0.0
41
0.0
42
0.0
10
76.9281997680664
20
76.2070007324219
40
0.0
41
0.0
42
0.0
10
76.9908981323242
20
76.2009963989258
40
0.0
41
0.0
42
0.0
10
77.1484985351562
20
75.9981994628906
40
0.0
41
0.0
42
0.0
10
77.0028991699219
20
75.8162002563477
40
0.0
41
0.0
42
0.0
10
76.9960021972656
20
75.8108978271484
40
0.0
41
0.0
42
0.0
10
76.8205032348633
20
75.5130996704102
40
0.0
41
0.0
42
0.0
10
76.774299621582
20
75.0664978027344
40
0.0
41
0.0
42
0.0
10
76.7602996826172
20
75.0169982910156
40
0.0
41
0.0
42
0.0
10
76.7601013183594
20
74.9897994995117
40
0.0
41
0.0
42
0.0
10
76.9934997558594
20
74.7970962524414
40
0.0
41
0.0
42
0.0
10
77.3078002929688
20
74.5222015380859
40
0.0
41
0.0
42
0.0
10
77.3433990478516
20
74.4989013671875
40
0.0
41
0.0
42
0.0
10
76.9897994995117
20
74.1753997802734
40
0.0
41
0.0
42
0.0
10
76.9294967651367
20
74.1633987426758
40
0.0
41
0.0
42
0.0
10
76.486701965332
20
74.0572967529297
40
0.0
41
0.0
42
0.0
10
76.3705978393555
20
74.0055999755859
40
0.0
41
0.0
42
0.0
10
76.3137969970703
20
73.5718002319336
40
0.0
41
0.0
42
0.0
10
76.3042984008789
20
73.5158996582031
40
0.0
41
0.0
42
0.0
10
76.2070007324219
20
73.0717010498047
40
0.0
41
0.0
42
0.0
10
76.2011032104492
20
73.0090026855469
40
0.0
41
0.0
42
0.0
10
75.9981994628906
20
72.8511962890625
40
0.0
41
0.0
42
0.0
10
75.8161010742188
20
72.9969024658203
40
0.0
41
0.0
42
0.0
10
75.8107986450195
20
73.0038986206055
40
0.0
41
0.0
42
0.0
10
75.5117034912109
20
73.1800003051758
40
0.0
41
0.0
42
0.0
10
75.4610977172852
20
73.1938018798828
40
0.0
41
0.0
42
0.0
10
75.0188980102539
20
73.2396011352539
40
0.0
41
0.0
42
0.0
10
74.9897994995117
20
73.2396011352539
40
0.0
41
0.0
42
0.0
10
74.7972030639648
20
73.0063018798828
40
0.0
41
0.0
42
0.0
10
74.5222015380859
20
72.6919021606445
40
0.0
41
0.0
42
0.0
10
74.4989013671875
20
72.6563034057617
40
0.0
41
0.0
42
0.0
10
74.1753997802734
20
73.0101013183594
40
0.0
41
0.0
42
0.0
10
74.1633987426758
20
73.0703964233398
40
0.0
41
0.0
42
0.0
10
74.0571975708008
20
73.5131988525391
40
0.0
41
0.0
42
0.0
10
74.0053024291992
20
73.6296997070312
40
0.0
41
0.0
42
0.0
10
73.961799621582
20
73.6371002197266
40
0.0
41
0.0
42
0.0
10
73.5179977416992
20
73.695198059082
40
0.0
41
0.0
42
0.0
10
73.4755020141602
20
73.6975021362305
40
0.0
41
0.0
42
0.0
10
73.0080032348633
20
73.7997970581055
40
0.0
41
0.0
42
0.0
10
72.8513031005859
20
74.0016021728516
40
0.0
41
0.0
42
0.0
10
72.9970016479492
20
74.1836013793945
40
0.0
41
0.0
42
0.0
10
73.0038986206055
20
74.1890029907227
40
0.0
41
0.0
42
0.0
10
73.1800003051758
20
74.4880981445312
40
0.0
41
0.0
42
0.0
10
73.1938018798828
20
74.5388031005859
40
0.0
41
0.0
42
0.0
10
73.2396011352539
20
74.9810028076172
40
0.0
41
0.0
42
0.0
10
73.239501953125
20
75.0100021362305
40
0.0
41
0.0
42
0.0
10
73.0063018798828
20
75.2025985717773
40
0.0
41
0.0
42
0.0
10
72.6919021606445
20
75.4775009155273
40
0.0
41
0.0
42
0.0
10
72.6564025878906
20
75.5009002685547
40
0.0
41
0.0
42
0.0
10
72.9941024780273
20
75.810302734375
40
0.0
41
0.0
42
0.0
10
73.0100021362305
20
75.8240966796875
40
0.0
41
0.0
42
0.0
210
0.0
220
0.0
230
1.0
0
LWPOLYLINE
5
2E
330
1C
100
AcDbEntity
67
0
8
0
62
256
6
ByLayer
370
-1
48
1.0
60
0
100
AcDbPolyline
90
61
70
1
38
0.0
39
0.0
10
73.9878005981445
20
65.4850997924805
40
0.0
41
0.0
42
0.0
10
74.0402984619141
20
65.3856964111328
40
0.0
41
0.0
42
0.0
10
74.2844009399414
20
65.0009994506836
40
0.0
41
0.0
42
0.0
10
74.3483963012695
20
65.0009994506836
40
0.0
41
0.0
42
0.0
10
74.3482971191406
20
65.013801574707
40
0.0
41
0.0
42
0.0
10
74.052001953125
20
65.4807968139648
40
0.0
41
0.0
42
0.0
10
74.0383987426758
20
65.5070037841797
40
0.0
41
0.0
42
0.0
10
74.0888977050781
20
65.8159027099609
40
0.0
41
0.0
42
0.0
10
74.122200012207
20
65.9917984008789
40
0.0
41
0.0
42
0.0
10
74.1474990844727
20
66.0109024047852
40
0.0
41
0.0
42
0.0
10
74.6360015869141
20
66.4962997436523
40
0.0
41
0.0
42
0.0
10
74.994499206543
20
66.7380981445312
40
0.0
41
0.0
42
0.0
10
75.0207977294922
20
66.7509994506836
40
0.0
41
0.0
42
0.0
10
75.5122985839844
20
67.0205001831055
40
0.0
41
0.0
42
0.0
10
75.9897003173828
20
67.1390991210938
40
0.0
41
0.0
42
0.0
10
76.0031967163086
20
67.1407012939453
40
0.0
41
0.0
42
0.0
10
76.4274978637695
20
67.1051025390625
40
0.0
41
0.0
42
0.0
10
76.4844970703125
20
67.0959014892578
40
0.0
41
0.0
42
0.0
10
76.7968978881836
20
67.0048980712891
40
0.0
41
0.0
42
0.0
10
76.9876022338867
20
66.9439010620117
40
0.0
41
0.0
42
0.0
10
77.4331970214844
20
66.7360992431641
40
0.0
41
0.0
42
0.0
10
77.488899230957
20
66.714599609375
40
0.0
41
0.0
42
0.0
10
77.8317031860352
20
66.5198974609375
40
0.0
41
0.0
42
0.0
10
77.8824996948242
20
66.4953002929688
40
0.0
41
0.0
42
0.0
10
77.9985961914062
20
66.2996978759766
40
0.0
41
0.0
42
0.0
10
78.1318969726562
20
66.0055999755859
40
0.0
41
0.0
42
0.0
10
78.1412963867188
20
65.9945983886719
40
0.0
41
0.0
42
0.0
10
77.999397277832
20
65.510498046875
40
0.0
41
0.0
42
0.0
10
77.6391983032227
20
65.0130996704102
40
0.0
41
0.0
42
0.0
10
77.6391983032227
20
65.0009994506836
40
0.0
41
0.0
42
0.0
10
77.6740036010742
20
65.0009002685547
40
0.0
41
0.0
42
0.0
10
77.9906005859375
20
65.4367980957031
40
0.0
41
0.0
42
0.0
10
78.0240020751953
20
65.4888000488281
40
0.0
41
0.0
42
0.0
10
78.1535034179688
20
65.9303970336914
40
0.0
41
0.0
42
0.0
10
78.1663970947266
20
65.9824981689453
40
0.0
41
0.0
42
0.0
10
78.1662979125977
20
66.0121994018555
40
0.0
41
0.0
42
0.0
10
78.125
20
66.0612030029297
40
0.0
41
0.0
42
0.0
10
78.0011978149414
20
66.3341979980469
40
0.0
41
0.0
42
0.0
10
77.9013977050781
20
66.5025024414062
40
0.0
41
0.0
42
0.0
10
77.8641967773438
20
66.5177001953125
40
0.0
41
0.0
42
0.0
10
77.5109024047852
20
66.7182998657227
40
0.0
41
0.0
42
0.0
10
77.496696472168
20
66.7237014770508
40
0.0
41
0.0
42
0.0
10
77.0122985839844
20
66.9497985839844
40
0.0
41
0.0
42
0.0
10
76.8526000976562
20
67.0010986328125
40
0.0
41
0.0
42
0.0
10
76.5152969360352
20
67.0992965698242
40
0.0
41
0.0
42
0.0
10
76.5022964477539
20
67.1015014648438
40
0.0
41
0.0
42
0.0
10
76.0190963745117
20
67.1421966552734
40
0.0
41
0.0
42
0.0
10
75.9813003540039
20
67.1420974731445
40
0.0
41
0.0
42
0.0
10
75.9290008544922
20
67.1343994140625
40
0.0
41
0.0
42
0.0
10
75.4929962158203
20
67.0261001586914
40
0.0
41
0.0
42
0.0
10
75.472297668457
20
67.0182037353516
40
0.0
41
0.0
42
0.0
10
75.0273971557617
20
66.7738037109375
40
0.0
41
0.0
42
0.0
10
74.988899230957
20
66.7584991455078
40
0.0
41
0.0
42
0.0
10
74.9357986450195
20
66.7294006347656
40
0.0
41
0.0
42
0.0
10
74.8759002685547
20
66.6906967163086
40
0.0
41
0.0
42
0.0
10
74.5996017456055
20
66.5037002563477
40
0.0
41
0.0
42
0.0
10
74.1517028808594
20
66.0589981079102
40
0.0
41
0.0
42
0.0
10
74.0842971801758
20
66.0081024169922
40
0.0
41
0.0
42
0.0
10
74.0003967285156
20
65.5647964477539
40
0.0
41
0.0
42
0.0
10
73.9879989624023
20
65.5161972045898
40
0.0
41
0.0
42
0.0
10
73.9878005981445
20
65.4850997924805
40
0.0
41
0.0
42
0.0
210
0.0
220
0.0
230
1.0
0
LWPOLYLINE
5
2F
330
1C
100
AcDbEntity
67
0
8
0
62
256
6
ByLayer
370
-1
48
1.0
60
0
100
AcDbPolyline
90
20
70
1
38
0.0
39
0.0
10
74.5012969970703
20
74.8571014404297
40
0.0
41
0.0
42
0.0
10
74.8579025268555
20
74.5005035400391
40
0.0
41
0.0
42
0.0
10
74.9848022460938
20
74.4382019042969
40
0.0
41
0.0
42
0.0
10
75.0150985717773
20
74.438102722168
40
0.0
41
0.0
42
0.0
10
75.1418991088867
20
74.500602722168
40
0.0
41
0.0
42
0.0
10
75.4991989135742
20
74.8580017089844
40
0.0
41
0.0
42
0.0
10
75.5616989135742
20
74.9848022460938
40
0.0
41
0.0
42
0.0
10
75.5615997314453
20
75.0149993896484
40
0.0
41
0.0
42
0.0
10
75.5026016235352
20
75.1328964233398
40
0.0
41
0.0
42
0.0
10
75.1328964233398
20
75.5027008056641
40
0.0
41
0.0
42
0.0
10
75.0149993896484
20
75.5616989135742
40
0.0
41
0.0
42
0.0
10
74.9849014282227
20
75.5616989135742
40
0.0
41
0.0
42
0.0
10
74.8654022216797
20
75.5018997192383
40
0.0
41
0.0
42
0.0
10
74.848503112793
20
75.489501953125
40
0.0
41
0.0
42
0.0
10
74.8227996826172
20
75.4586029052734
40
0.0
41
0.0
42
0.0
10
74.497200012207
20
75.1328964233398
40
0.0
41
0.0
42
0.0
10
74.4382019042969
20
75.0149993896484
40
0.0
41
0.0
42
0.0
10
74.4380035400391
20
74.9849014282227
40
0.0
41
0.0
42
0.0
10
74.4991989135742
20
74.8628005981445
40
0.0
41
0.0
42
0.0
10
74.5012969970703
20
74.8571014404297
40
0.0
41
0.0
42
0.0
210
0.0
220
0.0
230
1.0
0
LWPOLYLINE
5
30
330
1C
100
AcDbEntity
67
0
8
0
62
256
6
ByLayer
370
-1
48
1.0
60
0
100
AcDbPolyline
90
19
70
1
38
0.0
39
0.0
10
74.4610977172852
20
75.0
40
0.0
41
0.0
42
0.0
10
74.5027008056641
20
75.0829010009766
40
0.0
41
0.0
42
0.0
10
74.7406997680664
20
75.3209991455078
40
0.0
41
0.0
42
0.0
10
74.8395004272461
20
75.440299987793
40
0.0
41
0.0
42
0.0
10
74.9184036254883
20
75.4979019165039
40
0.0
41
0.0
42
0.0
10
75.0
20
75.5386962890625
40
0.0
41
0.0
42
0.0
10
75.0829010009766
20
75.4971008300781
40
0.0
41
0.0
42
0.0
10
75.4971008300781
20
75.0829010009766
40
0.0
41
0.0
42
0.0
10
75.5386962890625
20
75.0
40
0.0
41
0.0
42
0.0
10
75.4991989135742
20
74.9209976196289
40
0.0
41
0.0
42
0.0
10
75.4857025146484
20
74.8850021362305
40
0.0
41
0.0
42
0.0
10
75.1147994995117
20
74.5140991210938
40
0.0
41
0.0
42
0.0
10
75.0789031982422
20
74.5007019042969
40
0.0
41
0.0
42
0.0
10
75.0
20
74.4610977172852
40
0.0
41
0.0
42
0.0
10
74.9208984375
20
74.500602722168
40
0.0
41
0.0
42
0.0
10
74.8850021362305
20
74.5139999389648
40
0.0
41
0.0
42
0.0
10
74.5139999389648
20
74.8850021362305
40
0.0
41
0.0
42
0.0
10
74.500602722168
20
74.9209976196289
40
0.0
41
0.0
42
0.0
10
74.4610977172852
20
75.0
40
0.0
41
0.0
42
0.0
210
0.0
220
0.0
230
1.0
0
LWPOLYLINE
5
31
330
1C
100
AcDbEntity
67
0
8
0
62
256
6
ByLayer
370
-1
48
1.0
60
0
100
AcDbPolyline
90
58
70
1
38
0.0
39
0.0
10
78.9636001586914
20
83.0367965698242
40
0.0
41
0.0
42
0.0
10
78.9726028442383
20
82.9865036010742
40
0.0
41
0.0
42
0.0
10
78.9785003662109
20
82.9744033813477
40
0.0
41
0.0
42
0.0
10
78.9998016357422
20
82.904296875
40
0.0
41
0.0
42
0.0
10
79.1095962524414
20
82.4982986450195
40
0.0
41
0.0
42
0.0
10
79.3251037597656
20
82.0045013427734
40
0.0
41
0.0
42
0.0
10
79.3358001708984
20
81.9832992553711
40
0.0
41
0.0
42
0.0
10
79.4975967407227
20
81.6884002685547
40
0.0
41
0.0
42
0.0
10
79.6414031982422
20
81.4936981201172
40
0.0
41
0.0
42
0.0
10
79.6778030395508
20
81.4570999145508
40
0.0
41
0.0
42
0.0
10
79.992301940918
20
81.1575012207031
40
0.0
41
0.0
42
0.0
10
80.2612991333008
20
81.0149993896484
40
0.0
41
0.0
42
0.0
10
80.2855987548828
20
80.997802734375
40
0.0
41
0.0
42
0.0
10
80.3140029907227
20
80.9829025268555
40
0.0
41
0.0
42
0.0
10
80.486198425293
20
80.9156036376953
40
0.0
41
0.0
42
0.0
10
80.9308013916016
20
80.810302734375
40
0.0
41
0.0
42
0.0
10
80.9847030639648
20
80.7917022705078
40
0.0
41
0.0
42
0.0
10
81.4290008544922
20
80.7365036010742
40
0.0
41
0.0
42
0.0
10
81.4828033447266
20
80.7220001220703
40
0.0
41
0.0
42
0.0
10
81.5192031860352
20
80.7219009399414
40
0.0
41
0.0
42
0.0
10
81.9359970092773
20
80.7537002563477
40
0.0
41
0.0
42
0.0
10
81.9825973510742
20
80.7417984008789
40
0.0
41
0.0
42
0.0
10
82.0141983032227
20
80.74169921875
40
0.0
41
0.0
42
0.0
10
82.2713012695312
20
80.8936004638672
40
0.0
41
0.0
42
0.0
10
82.4197998046875
20
80.9936981201172
40
0.0
41
0.0
42
0.0
10
82.4996032714844
20
81.1968994140625
40
0.0
41
0.0
42
0.0
10
82.5046005249023
20
81.2221984863281
40
0.0
41
0.0
42
0.0
10
82.5628967285156
20
81.428596496582
40
0.0
41
0.0
42
0.0
10
82.5667037963867
20
81.4806976318359
40
0.0
41
0.0
42
0.0
10
82.5665969848633
20
81.5189971923828
40
0.0
41
0.0
42
0.0
10
82.5637969970703
20
81.5519027709961
40
0.0
41
0.0
42
0.0
10
82.5485000610352
20
82.0174026489258
40
0.0
41
0.0
42
0.0
10
82.499397277832
20
82.2497024536133
40
0.0
41
0.0
42
0.0
10
82.4393005371094
20
82.5140991210938
40
0.0
41
0.0
42
0.0
10
82.4052963256836
20
82.6094970703125
40
0.0
41
0.0
42
0.0
10
82.2416000366211
20
83.0099029541016
40
0.0
41
0.0
42
0.0
10
82.1137008666992
20
83.1950988769531
40
0.0
41
0.0
42
0.0
10
82.0034027099609
20
83.3672027587891
40
0.0
41
0.0
42
0.0
10
81.8664016723633
20
83.5047988891602
40
0.0
41
0.0
42
0.0
10
81.8090972900391
20
83.5581970214844
40
0.0
41
0.0
42
0.0
10
81.5654983520508
20
83.7357025146484
40
0.0
41
0.0
42
0.0
10
81.5142974853516
20
83.7509002685547
40
0.0
41
0.0
42
0.0
10
81.3676986694336
20
83.7892990112305
40
0.0
41
0.0
42
0.0
10
81.0154037475586
20
83.9103012084961
40
0.0
41
0.0
42
0.0
10
80.7772979736328
20
83.9337005615234
40
0.0
41
0.0
42
0.0
10
80.5186996459961
20
83.9646987915039
40
0.0
41
0.0
42
0.0
10
80.4804992675781
20
83.964599609375
40
0.0
41
0.0
42
0.0
10
79.9829025268555
20
83.9375991821289
40
0.0
41
0.0
42
0.0
10
79.9119033813477
20
83.9212036132812
40
0.0
41
0.0
42
0.0
10
79.4866027832031
20
83.8059997558594
40
0.0
41
0.0
42
0.0
10
79.4691009521484
20
83.7990036010742
40
0.0
41
0.0
42
0.0
10
79.1005020141602
20
83.5579986572266
40
0.0
41
0.0
42
0.0
10
79.0690002441406
20
83.532096862793
40
0.0
41
0.0
42
0.0
10
79.0531997680664
20
83.5109024047852
40
0.0
41
0.0
42
0.0
10
79.0003967285156
20
83.2966003417969
40
0.0
41
0.0
42
0.0
10
78.9842987060547
20
83.2169036865234
40
0.0
41
0.0
42
0.0
10
78.9636993408203
20
83.0696029663086
40
0.0
41
0.0
42
0.0
10
78.9636001586914
20
83.0367965698242
40
0.0
41
0.0
42
0.0
210
0.0
220
0.0
230
1.0
0
LWPOLYLINE
5
32
330
1C
100
AcDbEntity
67
0
8
0
62
256
6
ByLayer
370
-1
48
1.0
60
0
100
AcDbPolyline
90
42
70
1
38
0.0
39
0.0
10
79.0755004882812
20
83.4891967773438
40
0.0
41
0.0
42
0.0
10
79.0850982666016
20
83.5018005371094
40
0.0
41
0.0
42
0.0
10
79.097297668457
20
83.5118026733398
40
0.0
41
0.0
42
0.0
10
79.5055999755859
20
83.7789001464844
40
0.0
41
0.0
42
0.0
10
80.0166015625
20
83.9171981811523
40
0.0
41
0.0
42
0.0
10
80.4940032958984
20
83.9421005249023
40
0.0
41
0.0
42
0.0
10
80.9166030883789
20
83.8915023803711
40
0.0
41
0.0
42
0.0
10
80.9843978881836
20
83.8848037719727
40
0.0
41
0.0
42
0.0
10
81.4461975097656
20
83.7263031005859
40
0.0
41
0.0
42
0.0
10
81.5040969848633
20
83.7105026245117
40
0.0
41
0.0
42
0.0
10
81.7785034179688
20
83.5106964111328
40
0.0
41
0.0
42
0.0
10
81.9962997436523
20
83.2929992675781
40
0.0
41
0.0
42
0.0
10
82.1569976806641
20
83.0423965454102
40
0.0
41
0.0
42
0.0
10
82.1932983398438
20
82.9899978637695
40
0.0
41
0.0
42
0.0
10
82.3878021240234
20
82.5139007568359
40
0.0
41
0.0
42
0.0
10
82.3979034423828
20
82.4858016967773
40
0.0
41
0.0
42
0.0
10
82.5112991333008
20
81.9825973510742
40
0.0
41
0.0
42
0.0
10
82.5263977050781
20
81.5017013549805
40
0.0
41
0.0
42
0.0
10
82.5098037719727
20
81.4433975219727
40
0.0
41
0.0
42
0.0
10
82.5000991821289
20
81.3948974609375
40
0.0
41
0.0
42
0.0
10
82.347297668457
20
81.0062026977539
40
0.0
41
0.0
42
0.0
10
82.0627975463867
20
80.8143997192383
40
0.0
41
0.0
42
0.0
10
81.9922027587891
20
80.7727966308594
40
0.0
41
0.0
42
0.0
10
81.9657974243164
20
80.7726974487305
40
0.0
41
0.0
42
0.0
10
81.5106964111328
20
80.7379989624023
40
0.0
41
0.0
42
0.0
10
81.0151977539062
20
80.8004989624023
40
0.0
41
0.0
42
0.0
10
80.9990997314453
20
80.8059005737305
40
0.0
41
0.0
42
0.0
10
80.5137023925781
20
80.9208984375
40
0.0
41
0.0
42
0.0
10
80.32080078125
20
80.9963989257812
40
0.0
41
0.0
42
0.0
10
80.0074996948242
20
81.1633987426758
40
0.0
41
0.0
42
0.0
10
79.6860961914062
20
81.4694976806641
40
0.0
41
0.0
42
0.0
10
79.6532974243164
20
81.5071029663086
40
0.0
41
0.0
42
0.0
10
79.6307983398438
20
81.540901184082
40
0.0
41
0.0
42
0.0
10
79.502197265625
20
81.7143020629883
40
0.0
41
0.0
42
0.0
10
79.3399963378906
20
82.0102996826172
40
0.0
41
0.0
42
0.0
10
79.3130035400391
20
82.0661010742188
40
0.0
41
0.0
42
0.0
10
79.1181030273438
20
82.5118026733398
40
0.0
41
0.0
42
0.0
10
79.1035995483398
20
82.5484008789062
40
0.0
41
0.0
42
0.0
10
78.9997024536133
20
82.9349975585938
40
0.0
41
0.0
42
0.0
10
78.9745025634766
20
83.0168991088867
40
0.0
41
0.0
42
0.0
10
78.9946975708008
20
83.1575012207031
40
0.0
41
0.0
42
0.0
10
79.0755004882812
20
83.4891967773438
40
0.0
41
0.0
42
0.0
210
0.0
220
0.0
230
1.0
0
LWPOLYLINE
5
33
330
1C
100
AcDbEntity
67
0
8
0
62
256
6
ByLayer
370
-1
48
1.0
60
0
100
AcDbPolyline
90
57
70
1
38
0.0
39
0.0
10
80.7416000366211
20
67.9857025146484
40
0.0
41
0.0
42
0.0
10
80.8936004638672
20
67.7285003662109
40
0.0
41
0.0
42
0.0
10
80.9936981201172
20
67.5799026489258
40
0.0
41
0.0
42
0.0
10
81.1971969604492
20
67.5
40
0.0
41
0.0
42
0.0
10
81.4823989868164
20
67.4331970214844
40
0.0
41
0.0
42
0.0
10
81.5195999145508
20
67.4330978393555
40
0.0
41
0.0
42
0.0
10
81.8397979736328
20
67.4429016113281
40
0.0
41
0.0
42
0.0
10
81.8751983642578
20
67.44580078125
40
0.0
41
0.0
42
0.0
10
82.0174026489258
20
67.4512023925781
40
0.0
41
0.0
42
0.0
10
82.2498016357422
20
67.5003967285156
40
0.0
41
0.0
42
0.0
10
82.5140991210938
20
67.5604019165039
40
0.0
41
0.0
42
0.0
10
82.6094970703125
20
67.594596862793
40
0.0
41
0.0
42
0.0
10
83.0099029541016
20
67.7581024169922
40
0.0
41
0.0
42
0.0
10
83.1950988769531
20
67.8860015869141
40
0.0
41
0.0
42
0.0
10
83.3672027587891
20
67.9963989257812
40
0.0
41
0.0
42
0.0
10
83.5039978027344
20
68.1324005126953
40
0.0
41
0.0
42
0.0
10
83.6302032470703
20
68.3059005737305
40
0.0
41
0.0
42
0.0
10
83.7359008789062
20
68.4349975585938
40
0.0
41
0.0
42
0.0
10
83.7509002685547
20
68.4856033325195
40
0.0
41
0.0
42
0.0
10
83.7892990112305
20
68.6321029663086
40
0.0
41
0.0
42
0.0
10
83.9103012084961
20
68.9843978881836
40
0.0
41
0.0
42
0.0
10
83.9337005615234
20
69.2225036621094
40
0.0
41
0.0
42
0.0
10
83.9646987915039
20
69.481201171875
40
0.0
41
0.0
42
0.0
10
83.964599609375
20
69.519401550293
40
0.0
41
0.0
42
0.0
10
83.9375991821289
20
70.0169982910156
40
0.0
41
0.0
42
0.0
10
83.9212036132812
20
70.0878982543945
40
0.0
41
0.0
42
0.0
10
83.8059997558594
20
70.5131988525391
40
0.0
41
0.0
42
0.0
10
83.7988967895508
20
70.5307006835938
40
0.0
41
0.0
42
0.0
10
83.5578994750977
20
70.8992004394531
40
0.0
41
0.0
42
0.0
10
83.5319976806641
20
70.9308013916016
40
0.0
41
0.0
42
0.0
10
83.5108032226562
20
70.9465026855469
40
0.0
41
0.0
42
0.0
10
83.2966003417969
20
70.999397277832
40
0.0
41
0.0
42
0.0
10
83.2169036865234
20
71.0154037475586
40
0.0
41
0.0
42
0.0
10
83.0735015869141
20
71.0362014770508
40
0.0
41
0.0
42
0.0
10
83.0369033813477
20
71.0361022949219
40
0.0
41
0.0
42
0.0
10
82.9865036010742
20
71.027099609375
40
0.0
41
0.0
42
0.0
10
82.9744033813477
20
71.0213012695312
40
0.0
41
0.0
42
0.0
10
82.904296875
20
71.0
40
0.0
41
0.0
42
0.0
10
82.527702331543
20
70.8989028930664
40
0.0
41
0.0
42
0.0
10
82.4875030517578
20
70.8858032226562
40
0.0
41
0.0
42
0.0
10
81.9829025268555
20
70.6636962890625
40
0.0
41
0.0
42
0.0
10
81.6884994506836
20
70.5022964477539
40
0.0
41
0.0
42
0.0
10
81.4937973022461
20
70.3583984375
40
0.0
41
0.0
42
0.0
10
81.4570999145508
20
70.3218994140625
40
0.0
41
0.0
42
0.0
10
81.1575012207031
20
70.0075988769531
40
0.0
41
0.0
42
0.0
10
81.0150985717773
20
69.7385025024414
40
0.0
41
0.0
42
0.0
10
80.9979019165039
20
69.7143020629883
40
0.0
41
0.0
42
0.0
10
80.9830017089844
20
69.6856994628906
40
0.0
41
0.0
42
0.0
10
80.9156036376953
20
69.5137023925781
40
0.0
41
0.0
42
0.0
10
80.810302734375
20
69.0690994262695
40
0.0
41
0.0
42
0.0
10
80.7917022705078
20
69.0151977539062
40
0.0
41
0.0
42
0.0
10
80.7366027832031
20
68.5708999633789
40
0.0
41
0.0
42
0.0
10
80.7220001220703
20
68.5170974731445
40
0.0
41
0.0
42
0.0
10
80.7219009399414
20
68.4806976318359
40
0.0
41
0.0
42
0.0
10
80.7537002563477
20
68.0639038085938
40
0.0
41
0.0
42
0.0
10
80.7417984008789
20
68.0173034667969
40
0.0
41
0.0
42
0.0
10
80.7416000366211
20
67.9857025146484
40
0.0
41
0.0
42
0.0
210
0.0
220
0.0
230
1.0
0
LWPOLYLINE
5
34
330
1C
100
AcDbEntity
67
0
8
0
62
256
6
ByLayer
370
-1
48
1.0
60
0
100
AcDbPolyline
90
45
70
1
38
0.0
39
0.0
10
80.7379989624023
20
68.4891967773438
40
0.0
41
0.0
42
0.0
10
80.8004989624023
20
68.9847030639648
40
0.0
41
0.0
42
0.0
10
80.8059005737305
20
69.0008010864258
40
0.0
41
0.0
42
0.0
10
80.9208984375
20
69.486198425293
40
0.0
41
0.0
42
0.0
10
80.9963989257812
20
69.6790008544922
40
0.0
41
0.0
42
0.0
10
81.1634979248047
20
69.9924011230469
40
0.0
41
0.0
42
0.0
10
81.469596862793
20
70.3136978149414
40
0.0
41
0.0
42
0.0
10
81.5072021484375
20
70.3463973999023
40
0.0
41
0.0
42
0.0
10
81.5410003662109
20
70.368896484375
40
0.0
41
0.0
42
0.0
10
81.7143020629883
20
70.4977035522461
40
0.0
41
0.0
42
0.0
10
82.0106964111328
20
70.6598968505859
40
0.0
41
0.0
42
0.0
10
82.4561996459961
20
70.8546981811523
40
0.0
41
0.0
42
0.0
10
82.5114974975586
20
70.8814010620117
40
0.0
41
0.0
42
0.0
10
82.5484008789062
20
70.8962020874023
40
0.0
41
0.0
42
0.0
10
82.9347991943359
20
71.0
40
0.0
41
0.0
42
0.0
10
83.0168991088867
20
71.0251998901367
40
0.0
41
0.0
42
0.0
10
83.1569976806641
20
71.004997253418
40
0.0
41
0.0
42
0.0
10
83.1800003051758
20
71.0003967285156
40
0.0
41
0.0
42
0.0
10
83.4891967773438
20
70.924201965332
40
0.0
41
0.0
42
0.0
10
83.5017013549805
20
70.9145965576172
40
0.0
41
0.0
42
0.0
10
83.5118026733398
20
70.9026031494141
40
0.0
41
0.0
42
0.0
10
83.7781982421875
20
70.4952011108398
40
0.0
41
0.0
42
0.0
10
83.7816009521484
20
70.4865036010742
40
0.0
41
0.0
42
0.0
10
83.9171981811523
20
69.9832992553711
40
0.0
41
0.0
42
0.0
10
83.9421005249023
20
69.5058975219727
40
0.0
41
0.0
42
0.0
10
83.8915023803711
20
69.0831985473633
40
0.0
41
0.0
42
0.0
10
83.8849029541016
20
69.0155029296875
40
0.0
41
0.0
42
0.0
10
83.7263031005859
20
68.553596496582
40
0.0
41
0.0
42
0.0
10
83.7104034423828
20
68.4951019287109
40
0.0
41
0.0
42
0.0
10
83.678596496582
20
68.4561004638672
40
0.0
41
0.0
42
0.0
10
83.4959030151367
20
68.2052993774414
40
0.0
41
0.0
42
0.0
10
83.293098449707
20
68.0035018920898
40
0.0
41
0.0
42
0.0
10
83.0425033569336
20
67.8427963256836
40
0.0
41
0.0
42
0.0
10
82.9899978637695
20
67.806396484375
40
0.0
41
0.0
42
0.0
10
82.5139007568359
20
67.6119003295898
40
0.0
41
0.0
42
0.0
10
82.4859008789062
20
67.6017990112305
40
0.0
41
0.0
42
0.0
10
82.0341033935547
20
67.499397277832
40
0.0
41
0.0
42
0.0
10
81.9781036376953
20
67.4880981445312
40
0.0
41
0.0
42
0.0
10
81.5133972167969
20
67.4733963012695
40
0.0
41
0.0
42
0.0
10
81.3946990966797
20
67.4998016357422
40
0.0
41
0.0
42
0.0
10
81.006103515625
20
67.6523971557617
40
0.0
41
0.0
42
0.0
10
80.8143997192383
20
67.9369964599609
40
0.0
41
0.0
42
0.0
10
80.7727966308594
20
68.0075988769531
40
0.0
41
0.0
42
0.0
10
80.7726974487305
20
68.0329971313477
40
0.0
41
0.0
42
0.0
10
80.7379989624023
20
68.4891967773438
40
0.0
41
0.0
42
0.0
210
0.0
220
0.0
230
1.0
0
LWPOLYLINE
5
35
330
1C
100
AcDbEntity
67
0
8
0
62
256
6
ByLayer
370
-1
48
1.0
60
0
100
AcDbPolyline
90
25
70
1
38
0.0
39
0.0
10
82.3765029907227
20
84.9990005493164
40
0.0
41
0.0
42
0.0
10
82.3765029907227
20
84.9865036010742
40
0.0
41
0.0
42
0.0
10
82.4059982299805
20
84.9441986083984
40
0.0
41
0.0
42
0.0
10
82.493896484375
20
84.8498992919922
40
0.0
41
0.0
42
0.0
10
82.9360961914062
20
84.5282974243164
40
0.0
41
0.0
42
0.0
10
83.0308990478516
20
84.4777984619141
40
0.0
41
0.0
42
0.0
10
83.4893035888672
20
84.2189025878906
40
0.0
41
0.0
42
0.0
10
83.9890975952148
20
84.0012969970703
40
0.0
41
0.0
42
0.0
10
84.040901184082
20
83.9731979370117
40
0.0
41
0.0
42
0.0
10
84.4330978393555
20
83.7985000610352
40
0.0
41
0.0
42
0.0
10
84.4881973266602
20
83.776496887207
40
0.0
41
0.0
42
0.0
10
84.9844970703125
20
83.549201965332
40
0.0
41
0.0
42
0.0
10
84.9990005493164
20
83.549201965332
40
0.0
41
0.0
42
0.0
10
84.9989013671875
20
83.5737991333008
40
0.0
41
0.0
42
0.0
10
84.5112991333008
20
83.7967987060547
40
0.0
41
0.0
42
0.0
10
84.0673980712891
20
83.993896484375
40
0.0
41
0.0
42
0.0
10
84.0110015869141
20
84.0212020874023
40
0.0
41
0.0
42
0.0
10
83.510498046875
20
84.2428970336914
40
0.0
41
0.0
42
0.0
10
83.3843994140625
20
84.3141021728516
40
0.0
41
0.0
42
0.0
10
83.0434036254883
20
84.5016021728516
40
0.0
41
0.0
42
0.0
10
82.9934997558594
20
84.5306015014648
40
0.0
41
0.0
42
0.0
10
82.5058975219727
20
84.8852005004883
40
0.0
41
0.0
42
0.0
10
82.4050979614258
20
84.9933013916016
40
0.0
41
0.0
42
0.0
10
82.4012985229492
20
84.9990005493164
40
0.0
41
0.0
42
0.0
10
82.3765029907227
20
84.9990005493164
40
0.0
41
0.0
42
0.0
210
0.0
220
0.0
230
1.0
0
LWPOLYLINE
5
36
330
1C
100
AcDbEntity
67
0
8
0
62
256
6
ByLayer
370
-1
48
1.0
60
0
100
AcDbPolyline
90
61
70
1
38
0.0
39
0.0
10
82.970703125
20
75.5272979736328
40
0.0
41
0.0
42
0.0
10
82.9757995605469
20
75.4854965209961
40
0.0
41
0.0
42
0.0
10
82.9813003540039
20
75.4727020263672
40
0.0
41
0.0
42
0.0
10
83.2259979248047
20
75.0273971557617
40
0.0
41
0.0
42
0.0
10
83.2412033081055
20
74.988899230957
40
0.0
41
0.0
42
0.0
10
83.2704010009766
20
74.9356994628906
40
0.0
41
0.0
42
0.0
10
83.3090972900391
20
74.8759002685547
40
0.0
41
0.0
42
0.0
10
83.4961013793945
20
74.5996017456055
40
0.0
41
0.0
42
0.0
10
83.8796997070312
20
74.2136001586914
40
0.0
41
0.0
42
0.0
10
83.9909973144531
20
74.0843963623047
40
0.0
41
0.0
42
0.0
10
84.4350967407227
20
74.0003967285156
40
0.0
41
0.0
42
0.0
10
84.4826965332031
20
73.9879989624023
40
0.0
41
0.0
42
0.0
10
84.5148010253906
20
73.9878997802734
40
0.0
41
0.0
42
0.0
10
84.6140975952148
20
74.0402984619141
40
0.0
41
0.0
42
0.0
10
84.9990005493164
20
74.2844009399414
40
0.0
41
0.0
42
0.0
10
84.9990005493164
20
74.3483963012695
40
0.0
41
0.0
42
0.0
10
84.9860992431641
20
74.3482971191406
40
0.0
41
0.0
42
0.0
10
84.5189971923828
20
74.052001953125
40
0.0
41
0.0
42
0.0
10
84.4929962158203
20
74.0383987426758
40
0.0
41
0.0
42
0.0
10
84.1838989257812
20
74.0888977050781
40
0.0
41
0.0
42
0.0
10
84.0087966918945
20
74.1220016479492
40
0.0
41
0.0
42
0.0
10
83.972900390625
20
74.1636962890625
40
0.0
41
0.0
42
0.0
10
83.5036010742188
20
74.6360015869141
40
0.0
41
0.0
42
0.0
10
83.2615966796875
20
74.9944000244141
40
0.0
41
0.0
42
0.0
10
83.2487030029297
20
75.0207977294922
40
0.0
41
0.0
42
0.0
10
82.9788970947266
20
75.5128021240234
40
0.0
41
0.0
42
0.0
10
82.9681015014648
20
75.5705032348633
40
0.0
41
0.0
42
0.0
10
82.8606033325195
20
76.003303527832
40
0.0
41
0.0
42
0.0
10
82.8659973144531
20
76.0374984741211
40
0.0
41
0.0
42
0.0
10
82.9036026000977
20
76.4838027954102
40
0.0
41
0.0
42
0.0
10
82.9947967529297
20
76.7968978881836
40
0.0
41
0.0
42
0.0
10
83.0556030273438
20
76.9869003295898
40
0.0
41
0.0
42
0.0
10
83.0772018432617
20
77.0431976318359
40
0.0
41
0.0
42
0.0
10
83.2854995727539
20
77.4896011352539
40
0.0
41
0.0
42
0.0
10
83.4797973632812
20
77.8317031860352
40
0.0
41
0.0
42
0.0
10
83.5044021606445
20
77.8824996948242
40
0.0
41
0.0
42
0.0
10
83.6999969482422
20
77.9985961914062
40
0.0
41
0.0
42
0.0
10
83.9942016601562
20
78.1320037841797
40
0.0
41
0.0
42
0.0
10
84.0052032470703
20
78.1411972045898
40
0.0
41
0.0
42
0.0
10
84.4893035888672
20
77.999397277832
40
0.0
41
0.0
42
0.0
10
84.9868011474609
20
77.6391983032227
40
0.0
41
0.0
42
0.0
10
84.9990005493164
20
77.6391983032227
40
0.0
41
0.0
42
0.0
10
84.9989013671875
20
77.6738967895508
40
0.0
41
0.0
42
0.0
10
84.563102722168
20
77.9906005859375
40
0.0
41
0.0
42
0.0
10
84.511100769043
20
78.0240020751953
40
0.0
41
0.0
42
0.0
10
84.0695037841797
20
78.1533966064453
40
0.0
41
0.0
42
0.0
10
84.0174026489258
20
78.1663970947266
40
0.0
41
0.0
42
0.0
10
83.9876022338867
20
78.1662979125977
40
0.0
41
0.0
42
0.0
10
83.9385986328125
20
78.125
40
0.0
41
0.0
42
0.0
10
83.6656036376953
20
78.0012969970703
40
0.0
41
0.0
42
0.0
10
83.4972991943359
20
77.9013977050781
40
0.0
41
0.0
42
0.0
10
83.4820022583008
20
77.8643035888672
40
0.0
41
0.0
42
0.0
10
83.2809982299805
20
77.5102996826172
40
0.0
41
0.0
42
0.0
10
83.0553970336914
20
77.0268020629883
40
0.0
41
0.0
42
0.0
10
83.0501022338867
20
77.0130004882812
40
0.0
41
0.0
42
0.0
10
82.9985961914062
20
76.8526000976562
40
0.0
41
0.0
42
0.0
10
82.9005966186523
20
76.5160980224609
40
0.0
41
0.0
42
0.0
10
82.8599014282227
20
76.0324020385742
40
0.0
41
0.0
42
0.0
10
82.8576965332031
20
76.0183029174805
40
0.0
41
0.0
42
0.0
10
82.8575973510742
20
75.9824981689453
40
0.0
41
0.0
42
0.0
10
82.970703125
20
75.5272979736328
40
0.0
41
0.0
42
0.0
210
0.0
220
0.0
230
1.0
0
LWPOLYLINE
5
37
330
1C
100
AcDbEntity
67
0
8
0
62
256
6
ByLayer
370
-1
48
1.0
60
0
100
AcDbPolyline
90
30
70
1
38
0.0
39
0.0
10
83.549201965332
20
65.0009994506836
40
0.0
41
0.0
42
0.0
10
83.5738983154297
20
65.0009002685547
40
0.0
41
0.0
42
0.0
10
83.7967987060547
20
65.4886016845703
40
0.0
41
0.0
42
0.0
10
83.993896484375
20
65.9324035644531
40
0.0
41
0.0
42
0.0
10
84.0213012695312
20
65.9888000488281
40
0.0
41
0.0
42
0.0
10
84.1887969970703
20
66.3647994995117
40
0.0
41
0.0
42
0.0
10
84.2481994628906
20
66.5042037963867
40
0.0
41
0.0
42
0.0
10
84.4927978515625
20
66.9488983154297
40
0.0
41
0.0
42
0.0
10
84.5031967163086
20
66.959098815918
40
0.0
41
0.0
42
0.0
10
84.5306015014648
20
67.0064010620117
40
0.0
41
0.0
42
0.0
10
84.8852005004883
20
67.493896484375
40
0.0
41
0.0
42
0.0
10
84.9934005737305
20
67.594596862793
40
0.0
41
0.0
42
0.0
10
84.9990005493164
20
67.598503112793
40
0.0
41
0.0
42
0.0
10
84.9990005493164
20
67.6232986450195
40
0.0
41
0.0
42
0.0
10
84.9866027832031
20
67.6231994628906
40
0.0
41
0.0
42
0.0
10
84.9442977905273
20
67.5938034057617
40
0.0
41
0.0
42
0.0
10
84.8498992919922
20
67.5059967041016
40
0.0
41
0.0
42
0.0
10
84.5285034179688
20
67.0637969970703
40
0.0
41
0.0
42
0.0
10
84.4970016479492
20
67.0035018920898
40
0.0
41
0.0
42
0.0
10
84.459098815918
20
66.9666976928711
40
0.0
41
0.0
42
0.0
10
84.2387008666992
20
66.5661010742188
40
0.0
41
0.0
42
0.0
10
84.2226028442383
20
66.5244979858398
40
0.0
41
0.0
42
0.0
10
84.2201995849609
20
66.5134963989258
40
0.0
41
0.0
42
0.0
10
84.0224990844727
20
66.0584030151367
40
0.0
41
0.0
42
0.0
10
83.9987030029297
20
66.0050964355469
40
0.0
41
0.0
42
0.0
10
83.9731979370117
20
65.9588012695312
40
0.0
41
0.0
42
0.0
10
83.7985000610352
20
65.5668029785156
40
0.0
41
0.0
42
0.0
10
83.776496887207
20
65.5117034912109
40
0.0
41
0.0
42
0.0
10
83.549201965332
20
65.0154037475586
40
0.0
41
0.0
42
0.0
10
83.549201965332
20
65.0009994506836
40
0.0
41
0.0
42
0.0
210
0.0
220
0.0
230
1.0
0
VIEWPORT
5
3C
330
38
100
AcDbEntity
67
1
8
0
62
256
6
ByLayer
370
-1
48
1.0
60
0
100
AcDbViewport
10
0.0
20
0.0
30
0.0
40
297.0
41
210.0
68
1
69
1
12
50.0
22
100.0
13
0.0
23
0.0
14
10.0
24
10.0
15
10.0
25
10.0
16
0.0
26
0.0
36
1.0
17
0.0
27
0.0
37
0.0
42
50.0
43
0.0
44
0.0
45
250.0
50
0.0
51
0.0
72
1000
90
819232
110
0.0
120
0.0
130
0.0
111
1.0
121
0.0
131
0.0
112
0.0
122
1.0
132
0.0
0
ENDSEC
0
SECTION
2
OBJECTS
0
DICTIONARY
5
42
330
0
100
AcDbDictionary
280
1
281
1
3
ACAD_GROUP
350
12
3
ACAD_LAYOUT
350
3B
3
ACAD_DGNDEFINITIONS
350
F
3
ACAD_DWFDEFINITIONS
350
10
3
ACAD_PDFDEFINITIONS
350
11
3
ACAD_MLINESTYLE
350
B
3
ACAD_IMAGE_DICT
350
E
3
ACAD_IMAGE_VARS
350
21
0
DICTIONARY
5
12
330
42
100
AcDbDictionary
280
1
281
1
0
DICTIONARY
5
3B
330
42
100
AcDbDictionary
280
1
281
1
3
Model
350
20
3
Layout1
350
3D
0
DICTIONARY
5
F
330
42
100
AcDbDictionary
280
1
281
1
0
DICTIONARY
5
10
330
42
100
AcDbDictionary
280
1
281
1
0
DICTIONARY
5
11
330
42
100
AcDbDictionary
280
1
281
1
0
DICTIONARY
5
B
330
42
100
AcDbDictionary
280
1
281
1
3
Standard
350
1B
0
DICTIONARY
5
E
330
42
100
AcDbDictionary
280
1
281
1
0
DICTIONARY
5
6
330
5
100
AcDbDictionary
280
1
281
1
3
ACAD_LAYERSTATES
360
43
0
DICTIONARY
5
43
330
6
100
AcDbDictionary
280
1
281
1
0
LAYOUT
5
20
330
3B
100
AcDbPlotSettings
1

2
none_device
4
ISO_A4_(210.00_x_297.00_MM)
6

40
7.5
41
20.0
42
7.5
43
20.0
44
210.0
45
297.0
46
0.0
47
0.0
48
0.0
49
0.0
140
0.0
141
0.0
142
1.0
143
1.0
70
11952
72
1
73
1
74
1
7

75
0
76
0
77
2
78
300
147
1.0
148
0.0
149
0.0
100
AcDbLayout
1
Model
71
0
10
-20.0
20
-7.5
11
277.0
21
202.5
12
0.0
22
0.0
32
0.0
14
25.7
24
19.5
34
0.0
15
231.3
25
175.5
35
0.0
146
0.0
13
0.0
23
0.0
33
0.0
16
1.0
26
0.0
36
0.0
17
0.0
27
1.0
37
0.0
76
0
330
1C
0
LAYOUT
5
3D
330
3B
100
AcDbPlotSettings
1

2
none_device
4
ISO_A4_(210.00_x_297.00_MM)
6

40
7.5
41
20.0
42
7.5
43
20.0
44
210.0
45
297.0
46
0.0
47
0.0
48
0.0
49
0.0
140
0.0
141
0.0
142
1.0
143
1.0
70
688
72
1
73
1
74
1
7

75
0
76
0
77
2
78
300
147
1.0
148
0.0
149
0.0
100
AcDbLayout
1
Layout1
71
1
10
-20.0
20
-7.5
11
277.0
21
202.5
12
0.0
22
0.0
32
0.0
14
25.7
24
19.5
34
0.0
15
231.3
25
175.5
35
0.0
146
0.0
13
0.0
23
0.0
33
0.0
16
1.0
26
0.0
36
0.0
17
0.0
27
1.0
37
0.0
76
0
330
38
0
MLINESTYLE
5
1B
330
B
100
AcDbMlineStyle
2
Standard
70
0
3

62
256
51
90.0
52
90.0
71
2
49
0.5
62
256
6
ByLayer
49
-0.5
62
256
6
ByLayer
0
RASTERVARIABLES
5
21
330
E
100
AcDbRasterVariables
90
0
70
1
71
1
72
0
0
ENDSEC
0
EOF
