999
DXF file generated by netDxf https://github.com/haplokuon/netDxf, Copyright(C) Daniel Carvajal, Licensed under MIT
0
SECTION
2
HEADER
9
$ACADVER
1
AC1015
9
$DWGCODEPAGE
3
ANSI_1252
9
$HANDSEED
5
4A
9
$ANGBASE
50
0.0
9
$ANGDIR
70
0
9
$ATTMODE
70
1
9
$AUNITS
70
0
9
$AUPREC
70
0
9
$CECOLOR
62
256
9
$CELTSCALE
40
1.0
9
$CELTYPE
6
ByLayer
9
$CELWEIGHT
370
-1
9
$CLAYER
8
0
9
$CMLJUST
70
0
9
$CMLSCALE
40
20.0
9
$CMLSTYLE
2
Standard
9
$DIMSTYLE
2
Standard
9
$TEXTSIZE
40
2.5
9
$TEXTSTYLE
7
Standard
9
$LUNITS
70
2
9
$LUPREC
70
4
9
$MIRRTEXT
70
0
9
$EXTNAMES
290
1
9
$INSBASE
10
0.0
20
0.0
30
0.0
9
$INSUNITS
70
0
9
$LTSCALE
40
1.0
9
$LWDISPLAY
290
0
9
$PDMODE
70
0
9
$PDSIZE
40
0.0
9
$PLINEGEN
70
0
9
$PSLTSCALE
70
1
9
$SPLINESEGS
70
8
9
$SURFU
70
6
9
$SURFV
70
6
9
$TDCREATE
40
2460823.48368628
9
$TDUCREATE
40
2460823.15035295
9
$TDUPDATE
40
2460823.48368628
9
$TDUUPDATE
40
2460823.15035295
9
$TDINDWG
40
0.0
9
$UCSORG
10
0.0
20
0.0
30
0.0
9
$UCSXDIR
10
1.0
20
0.0
30
0.0
9
$UCSYDIR
10
0.0
20
1.0
30
0.0
9
$DIMADEC
70
0
9
$DIMALT
70
0
9
$DIMALTD
70
2
9
$DIMALTF
40
25.4
9
$DIMALTRND
40
0.0
9
$DIMALTTD
70
2
9
$DIMALTTZ
70
0
9
$DIMALTU
70
2
9
$DIMALTZ
70
0
9
$DIMAPOST
1

9
$DIMATFIT
70
3
9
$DIMAUNIT
70
0
9
$DIMASZ
40
0.18
9
$DIMAZIN
70
0
9
$DIMSAH
70
0
9
$DIMBLK
1

9
$DIMLDRBLK
1

9
$DIMCEN
40
0.09
9
$DIMCLRD
70
0
9
$DIMCLRE
70
0
9
$DIMCLRT
70
0
9
$DIMDEC
70
4
9
$DIMDLE
40
0.0
9
$DIMDLI
40
0.38
9
$DIMDSEP
70
46
9
$DIMEXE
40
0.18
9
$DIMEXO
40
0.0625
9
$DIMFXLON
70
0
9
$DIMFXL
40
1.0
9
$DIMGAP
40
0.09
9
$DIMJUST
70
0
9
$DIMLFAC
40
1.0
9
$DIMLUNIT
70
2
9
$DIMLWD
70
-2
9
$DIMLWE
70
-2
9
$DIMPOST
1

9
$DIMRND
40
0.0
9
$DIMSCALE
40
1.0
9
$DIMSD1
70
0
9
$DIMSD2
70
0
9
$DIMSE1
70
0
9
$DIMSE2
70
0
9
$DIMSOXD
70
0
9
$DIMTAD
70
0
9
$DIMTDEC
70
4
9
$DIMTFAC
40
1.0
9
$DIMTIH
70
0
9
$DIMTIX
70
0
9
$DIMTM
40
0.0
9
$DIMTMOVE
70
0
9
$DIMTOFL
70
0
9
$DIMTOH
70
0
9
$DIMTOL
70
0
9
$DIMLIM
70
0
9
$DIMTOLJ
70
1
9
$DIMTP
40
0.0
9
$DIMTXT
40
0.18
9
$DIMTXTDIRECTION
70
0
9
$DIMTZIN
70
0
9
$DIMZIN
70
0
9
$DIMFRAC
70
0
9
$DIMLTYPE
6
ByBlock
9
$DIMLTEX1
6
ByBlock
9
$DIMLTEX2
6
ByBlock
0
ENDSEC
0
SECTION
2
CLASSES
0
CLASS
1
RASTERVARIABLES
2
AcDbRasterVariables
3
ISM
90
0
280
0
281
0
0
ENDSEC
0
SECTION
2
TABLES
0
TABLE
2
APPID
5
4
330
0
100
AcDbSymbolTable
70
5
0
APPID
5
19
330
4
100
AcDbSymbolTableRecord
100
AcDbRegAppTableRecord
2
ACAD
70
0
0
APPID
5
44
330
4
100
AcDbSymbolTableRecord
100
AcDbRegAppTableRecord
2
AcCmTransparency
70
0
0
APPID
5
45
330
4
100
AcDbSymbolTableRecord
100
AcDbRegAppTableRecord
2
AcAecLayerStandard
70
0
0
APPID
5
46
330
4
100
AcDbSymbolTableRecord
100
AcDbRegAppTableRecord
2
GradientColor1ACI
70
0
0
APPID
5
47
330
4
100
AcDbSymbolTableRecord
100
AcDbRegAppTableRecord
2
GradientColor2ACI
70
0
0
ENDTAB
0
TABLE
2
VPORT
5
1
330
0
100
AcDbSymbolTable
70
1
0
VPORT
5
2
330
1
100
AcDbSymbolTableRecord
100
AcDbViewportTableRecord
2
*Active
70
0
10
0.0
20
0.0
11
1.0
21
1.0
12
0.0
22
0.0
13
0.0
23
0.0
14
0.5
24
0.5
15
10.0
25
10.0
16
0.0
26
0.0
36
1.0
17
0.0
27
0.0
37
0.0
40
10.0
41
1.0
75
0
76
1
0
ENDTAB
0
TABLE
2
LTYPE
5
7
330
0
100
AcDbSymbolTable
70
3
0
LTYPE
5
15
330
7
100
AcDbSymbolTableRecord
100
AcDbLinetypeTableRecord
2
Continuous
70
0
3
Solid line
72
65
73
0
40
0.0
0
LTYPE
5
16
330
7
100
AcDbSymbolTableRecord
100
AcDbLinetypeTableRecord
2
ByLayer
70
0
3

72
65
73
0
40
0.0
0
LTYPE
5
17
330
7
100
AcDbSymbolTableRecord
100
AcDbLinetypeTableRecord
2
ByBlock
70
0
3

72
65
73
0
40
0.0
0
ENDTAB
0
TABLE
2
LAYER
5
5
102
{ACAD_XDICTIONARY
360
6
102
}
330
0
100
AcDbSymbolTable
70
1
0
LAYER
5
14
330
5
100
AcDbSymbolTableRecord
100
AcDbLayerTableRecord
2
0
70
0
62
7
6
Continuous
290
1
370
-3
390
0
0
ENDTAB
0
TABLE
2
STYLE
5
8
330
0
100
AcDbSymbolTable
70
1
0
STYLE
5
18
330
8
100
AcDbSymbolTableRecord
100
AcDbTextStyleTableRecord
2
Standard
3
simplex.shx
70
0
71
0
40
0.0
41
1.0
42
0.0
50
0.0
0
ENDTAB
0
TABLE
2
DIMSTYLE
5
A
330
0
100
AcDbSymbolTable
70
1
100
AcDbDimStyleTable
0
DIMSTYLE
105
1A
330
A
100
AcDbSymbolTableRecord
100
AcDbDimStyleTableRecord
2
Standard
3

4

40
1.0
41
0.18
42
0.0625
43
0.38
44
0.18
45
0.0
46
0.0
47
0.0
48
0.0
49
1.0
70
0
71
0
72
0
73
0
74
0
75
0
76
0
77
0
78
0
79
0
140
0.18
141
0.09
143
25.4
144
1.0
146
1.0
147
0.09
148
0.0
170
0
171
2
172
0
174
0
175
0
176
0
177
0
178
0
179
0
271
4
272
4
273
2
274
2
275
0
276
0
277
2
278
46
279
0
280
0
281
0
282
0
283
1
284
0
285
0
286
0
289
3
290
0
294
0
340
18
173
0
345
17
346
17
347
17
371
-2
372
-2
0
ENDTAB
0
TABLE
2
VIEW
5
3
330
0
100
AcDbSymbolTable
70
0
0
ENDTAB
0
TABLE
2
UCS
5
C
330
0
100
AcDbSymbolTable
70
0
0
ENDTAB
0
TABLE
2
BLOCK_RECORD
5
D
330
0
100
AcDbSymbolTable
70
2
0
BLOCK_RECORD
5
1C
330
D
100
AcDbSymbolTableRecord
100
AcDbBlockTableRecord
2
*Model_Space
340
20
0
BLOCK_RECORD
5
3E
330
D
100
AcDbSymbolTableRecord
100
AcDbBlockTableRecord
2
*Paper_Space
340
43
0
ENDTAB
0
ENDSEC
0
SECTION
2
BLOCKS
0
BLOCK
5
1E
330
1C
100
AcDbEntity
67
0
8
0
100
AcDbBlockBegin
2
*Model_Space
70
0
10
0.0
20
0.0
30
0.0
3
*Model_Space
4

0
ENDBLK
5
1D
330
1C
100
AcDbEntity
8
0
100
AcDbBlockEnd
0
BLOCK
5
40
330
3E
100
AcDbEntity
67
1
8
0
100
AcDbBlockBegin
2
*Paper_Space
70
0
10
0.0
20
0.0
30
0.0
3
*Paper_Space
4

0
ENDBLK
5
3F
330
3E
100
AcDbEntity
8
0
100
AcDbBlockEnd
0
ENDSEC
0
SECTION
2
ENTITIES
0
LWPOLYLINE
5
22
330
1C
100
AcDbEntity
67
0
8
0
62
256
6
ByLayer
370
-1
48
1.0
60
0
100
AcDbPolyline
90
27
70
1
38
0.0
39
0.0
10
65.0009994506836
20
68.5791015625
40
0.0
41
0.0
42
0.0
10
65.0042037963867
20
68.5791015625
40
0.0
41
0.0
42
0.0
10
65.0792999267578
20
68.834098815918
40
0.0
41
0.0
42
0.0
10
65.116096496582
20
68.9834976196289
40
0.0
41
0.0
42
0.0
10
65.1470031738281
20
69.2866973876953
40
0.0
41
0.0
42
0.0
10
65.159797668457
20
69.4809036254883
40
0.0
41
0.0
42
0.0
10
65.1662979125977
20
69.7779006958008
40
0.0
41
0.0
42
0.0
10
65.1662979125977
20
69.8246002197266
40
0.0
41
0.0
42
0.0
10
65.1601028442383
20
70.0192031860352
40
0.0
41
0.0
42
0.0
10
65.1467971801758
20
70.3230972290039
40
0.0
41
0.0
42
0.0
10
65.1212005615234
20
70.5169982910156
40
0.0
41
0.0
42
0.0
10
65.0739974975586
20
70.8202972412109
40
0.0
41
0.0
42
0.0
10
65.0160980224609
20
71.0133972167969
40
0.0
41
0.0
42
0.0
10
65.0050964355469
20
71.0442962646484
40
0.0
41
0.0
42
0.0
10
65.0009994506836
20
71.0442962646484
40
0.0
41
0.0
42
0.0
10
65.0009002685547
20
70.9841003417969
40
0.0
41
0.0
42
0.0
10
65.0712966918945
20
70.7496032714844
40
0.0
41
0.0
42
0.0
10
65.1128005981445
20
70.4829025268555
40
0.0
41
0.0
42
0.0
10
65.1439971923828
20
70.2468032836914
40
0.0
41
0.0
42
0.0
10
65.1556015014648
20
69.9806976318359
40
0.0
41
0.0
42
0.0
10
65.1626968383789
20
69.7612991333008
40
0.0
41
0.0
42
0.0
10
65.1574020385742
20
69.5189971923828
40
0.0
41
0.0
42
0.0
10
65.1418991088867
20
69.283203125
40
0.0
41
0.0
42
0.0
10
65.1147003173828
20
69.0164031982422
40
0.0
41
0.0
42
0.0
10
65.0693969726562
20
68.8321990966797
40
0.0
41
0.0
42
0.0
10
65.0009994506836
20
68.5995025634766
40
0.0
41
0.0
42
0.0
10
65.0009994506836
20
68.5791015625
40
0.0
41
0.0
42
0.0
210
0.0
220
0.0
230
1.0
0
LWPOLYLINE
5
23
330
1C
100
AcDbEntity
67
0
8
0
62
256
6
ByLayer
370
-1
48
1.0
60
0
100
AcDbPolyline
90
36
70
1
38
0.0
39
0.0
10
65.0009994506836
20
79.056396484375
40
0.0
41
0.0
42
0.0
10
65.0080032348633
20
79.056396484375
40
0.0
41
0.0
42
0.0
10
65.0290985107422
20
79.0914001464844
40
0.0
41
0.0
42
0.0
10
65.073600769043
20
79.184700012207
40
0.0
41
0.0
42
0.0
10
65.2487030029297
20
79.4886016845703
40
0.0
41
0.0
42
0.0
10
65.3471984863281
20
79.7910003662109
40
0.0
41
0.0
42
0.0
10
65.4001998901367
20
79.9841995239258
40
0.0
41
0.0
42
0.0
10
65.4280014038086
20
80.1783981323242
40
0.0
41
0.0
42
0.0
10
65.4865036010742
20
80.4829025268555
40
0.0
41
0.0
42
0.0
10
65.532096862793
20
80.9809036254883
40
0.0
41
0.0
42
0.0
10
65.532600402832
20
81.355598449707
40
0.0
41
0.0
42
0.0
10
65.535400390625
20
81.5186996459961
40
0.0
41
0.0
42
0.0
10
65.4990997314453
20
81.7922973632812
40
0.0
41
0.0
42
0.0
10
65.4718017578125
20
81.9394989013672
40
0.0
41
0.0
42
0.0
10
65.436897277832
20
82.008903503418
40
0.0
41
0.0
42
0.0
10
65.3323974609375
20
82.1501007080078
40
0.0
41
0.0
42
0.0
10
65.3147964477539
20
82.1630020141602
40
0.0
41
0.0
42
0.0
10
65.0160980224609
20
82.2757034301758
40
0.0
41
0.0
42
0.0
10
65.0009994506836
20
82.2757034301758
40
0.0
41
0.0
42
0.0
10
65.0009002685547
20
82.2404022216797
40
0.0
41
0.0
42
0.0
10
65.254997253418
20
82.1445999145508
40
0.0
41
0.0
42
0.0
10
65.2870025634766
20
82.1211013793945
40
0.0
41
0.0
42
0.0
10
65.38330078125
20
81.9909973144531
40
0.0
41
0.0
42
0.0
10
65.4506988525391
20
81.8572006225586
40
0.0
41
0.0
42
0.0
10
65.5007019042969
20
81.5882034301758
40
0.0
41
0.0
42
0.0
10
65.5139999389648
20
81.4871978759766
40
0.0
41
0.0
42
0.0
10
65.5130004882812
20
81.0189971923828
40
0.0
41
0.0
42
0.0
10
65.466796875
20
80.5169982910156
40
0.0
41
0.0
42
0.0
10
65.4156036376953
20
80.2515029907227
40
0.0
41
0.0
42
0.0
10
65.3817977905273
20
80.0157012939453
40
0.0
41
0.0
42
0.0
10
65.3168029785156
20
79.7789001464844
40
0.0
41
0.0
42
0.0
10
65.2296981811523
20
79.5113983154297
40
0.0
41
0.0
42
0.0
10
65.0762023925781
20
79.2452011108398
40
0.0
41
0.0
42
0.0
10
65.0224990844727
20
79.1324005126953
40
0.0
41
0.0
42
0.0
10
65.0009994506836
20
79.0963973999023
40
0.0
41
0.0
42
0.0
10
65.0009994506836
20
79.056396484375
40
0.0
41
0.0
42
0.0
210
0.0
220
0.0
230
1.0
0
LWPOLYLINE
5
24
330
1C
100
AcDbEntity
67
0
8
0
62
256
6
ByLayer
370
-1
48
1.0
60
0
100
AcDbPolyline
90
45
70
1
38
0.0
39
0.0
10
66.796501159668
20
72.4809036254883
40
0.0
41
0.0
42
0.0
10
66.8144989013672
20
72.2873001098633
40
0.0
41
0.0
42
0.0
10
66.8550033569336
20
71.9870986938477
40
0.0
41
0.0
42
0.0
10
66.9918975830078
20
71.7646026611328
40
0.0
41
0.0
42
0.0
10
67.0986022949219
20
71.5700988769531
40
0.0
41
0.0
42
0.0
10
67.1516036987305
20
71.4944000244141
40
0.0
41
0.0
42
0.0
10
67.3993988037109
20
71.2940979003906
40
0.0
41
0.0
42
0.0
10
67.4925003051758
20
71.2102966308594
40
0.0
41
0.0
42
0.0
10
67.6710968017578
20
71.1010971069336
40
0.0
41
0.0
42
0.0
10
67.8477020263672
20
70.9983978271484
40
0.0
41
0.0
42
0.0
10
67.9869003295898
20
70.9307022094727
40
0.0
41
0.0
42
0.0
10
68.1801986694336
20
70.8886032104492
40
0.0
41
0.0
42
0.0
10
68.4831008911133
20
70.7979965209961
40
0.0
41
0.0
42
0.0
10
68.8224029541016
20
70.7956008911133
40
0.0
41
0.0
42
0.0
10
69.0106964111328
20
70.8438034057617
40
0.0
41
0.0
42
0.0
10
69.2097015380859
20
70.994499206543
40
0.0
41
0.0
42
0.0
10
69.3330001831055
20
71.1857986450195
40
0.0
41
0.0
42
0.0
10
69.5005035400391
20
71.4813995361328
40
0.0
41
0.0
42
0.0
10
69.5632019042969
20
71.6817016601562
40
0.0
41
0.0
42
0.0
10
69.6760025024414
20
71.9877014160156
40
0.0
41
0.0
42
0.0
10
69.8053970336914
20
72.2908020019531
40
0.0
41
0.0
42
0.0
10
69.8359985351562
20
72.4815979003906
40
0.0
41
0.0
42
0.0
10
69.8358993530273
20
72.5175018310547
40
0.0
41
0.0
42
0.0
10
69.8080978393555
20
72.6372985839844
40
0.0
41
0.0
42
0.0
10
69.9167022705078
20
72.9601974487305
40
0.0
41
0.0
42
0.0
10
69.9167022705078
20
72.9931030273438
40
0.0
41
0.0
42
0.0
10
69.9111022949219
20
73.0085983276367
40
0.0
41
0.0
42
0.0
10
69.5054016113281
20
73.4335021972656
40
0.0
41
0.0
42
0.0
10
69.4262008666992
20
73.5028991699219
40
0.0
41
0.0
42
0.0
10
69.2814025878906
20
73.5933990478516
40
0.0
41
0.0
42
0.0
10
68.9574966430664
20
73.7733993530273
40
0.0
41
0.0
42
0.0
10
68.8145980834961
20
73.8565979003906
40
0.0
41
0.0
42
0.0
10
68.5512008666992
20
74.0017013549805
40
0.0
41
0.0
42
0.0
10
68.5110015869141
20
74.0261993408203
40
0.0
41
0.0
42
0.0
10
68.0165023803711
20
74.1949996948242
40
0.0
41
0.0
42
0.0
10
67.9835968017578
20
74.1949005126953
40
0.0
41
0.0
42
0.0
10
67.4925003051758
20
74.0196990966797
40
0.0
41
0.0
42
0.0
10
67.321403503418
20
73.8123016357422
40
0.0
41
0.0
42
0.0
10
67.1110992431641
20
73.508903503418
40
0.0
41
0.0
42
0.0
10
66.9988021850586
20
73.3061981201172
40
0.0
41
0.0
42
0.0
10
66.9860992431641
20
73.2759017944336
40
0.0
41
0.0
42
0.0
10
66.8870010375977
20
73.0139999389648
40
0.0
41
0.0
42
0.0
10
66.845703125
20
72.8210983276367
40
0.0
41
0.0
42
0.0
10
66.7966003417969
20
72.5183029174805
40
0.0
41
0.0
42
0.0
10
66.796501159668
20
72.4809036254883
40
0.0
41
0.0
42
0.0
210
0.0
220
0.0
230
1.0
0
LWPOLYLINE
5
25
330
1C
100
AcDbEntity
67
0
8
0
62
256
6
ByLayer
370
-1
48
1.0
60
0
100
AcDbPolyline
90
43
70
1
38
0.0
39
0.0
10
66.815299987793
20
72.4952011108398
40
0.0
41
0.0
42
0.0
10
66.8563995361328
20
72.7489013671875
40
0.0
41
0.0
42
0.0
10
66.9074020385742
20
72.9860000610352
40
0.0
41
0.0
42
0.0
10
67.0009002685547
20
73.2298965454102
40
0.0
41
0.0
42
0.0
10
67.1455001831055
20
73.4909973144531
40
0.0
41
0.0
42
0.0
10
67.3302993774414
20
73.7575988769531
40
0.0
41
0.0
42
0.0
10
67.5075988769531
20
73.9719009399414
40
0.0
41
0.0
42
0.0
10
67.5940017700195
20
74.0012969970703
40
0.0
41
0.0
42
0.0
10
68.0001983642578
20
74.1464004516602
40
0.0
41
0.0
42
0.0
10
68.4302978515625
20
73.9999008178711
40
0.0
41
0.0
42
0.0
10
68.4881973266602
20
73.9819030761719
40
0.0
41
0.0
42
0.0
10
68.7553024291992
20
73.8347015380859
40
0.0
41
0.0
42
0.0
10
68.9275970458984
20
73.7342987060547
40
0.0
41
0.0
42
0.0
10
69.2161026000977
20
73.5738983154297
40
0.0
41
0.0
42
0.0
10
69.3395004272461
20
73.4968032836914
40
0.0
41
0.0
42
0.0
10
69.494499206543
20
73.3607025146484
40
0.0
41
0.0
42
0.0
10
69.8473968505859
20
72.9912033081055
40
0.0
41
0.0
42
0.0
10
69.8582000732422
20
72.9608001708984
40
0.0
41
0.0
42
0.0
10
69.7656021118164
20
72.685302734375
40
0.0
41
0.0
42
0.0
10
69.7655029296875
20
72.6511001586914
40
0.0
41
0.0
42
0.0
10
69.8012008666992
20
72.4971008300781
40
0.0
41
0.0
42
0.0
10
69.7662963867188
20
72.2790985107422
40
0.0
41
0.0
42
0.0
10
69.6524963378906
20
72.0121994018555
40
0.0
41
0.0
42
0.0
10
69.5550994873047
20
71.7481994628906
40
0.0
41
0.0
42
0.0
10
69.4999008178711
20
71.570198059082
40
0.0
41
0.0
42
0.0
10
69.4779968261719
20
71.511100769043
40
0.0
41
0.0
42
0.0
10
69.3275985717773
20
71.2441024780273
40
0.0
41
0.0
42
0.0
10
69.1738967895508
20
71.0054016113281
40
0.0
41
0.0
42
0.0
10
68.9893035888672
20
70.8656997680664
40
0.0
41
0.0
42
0.0
10
68.7488021850586
20
70.80419921875
40
0.0
41
0.0
42
0.0
10
68.5167999267578
20
70.8060989379883
40
0.0
41
0.0
42
0.0
10
68.2497024536133
20
70.8858032226562
40
0.0
41
0.0
42
0.0
10
68.0130004882812
20
70.9375
40
0.0
41
0.0
42
0.0
10
67.8815994262695
20
71.0012969970703
40
0.0
41
0.0
42
0.0
10
67.7265014648438
20
71.0914001464844
40
0.0
41
0.0
42
0.0
10
67.5073013305664
20
71.2255020141602
40
0.0
41
0.0
42
0.0
10
67.3927001953125
20
71.328498840332
40
0.0
41
0.0
42
0.0
10
67.1740036010742
20
71.5054016113281
40
0.0
41
0.0
42
0.0
10
67.1234970092773
20
71.5774993896484
40
0.0
41
0.0
42
0.0
10
66.9943008422852
20
71.813102722168
40
0.0
41
0.0
42
0.0
10
66.8715972900391
20
72.0127029418945
40
0.0
41
0.0
42
0.0
10
66.8349990844727
20
72.282600402832
40
0.0
41
0.0
42
0.0
10
66.815299987793
20
72.4952011108398
40
0.0
41
0.0
42
0.0
210
0.0
220
0.0
230
1.0
0
LWPOLYLINE
5
26
330
1C
100
AcDbEntity
67
0
8
0
62
256
6
ByLayer
370
-1
48
1.0
60
0
100
AcDbPolyline
90
50
70
1
38
0.0
39
0.0
10
67.0201034545898
20
77.6750030517578
40
0.0
41
0.0
42
0.0
10
67.0352020263672
20
77.4844970703125
40
0.0
41
0.0
42
0.0
10
67.1456985473633
20
77.1822967529297
40
0.0
41
0.0
42
0.0
10
67.2193984985352
20
76.988899230957
40
0.0
41
0.0
42
0.0
10
67.3899993896484
20
76.6894989013672
40
0.0
41
0.0
42
0.0
10
67.4946975708008
20
76.5295028686523
40
0.0
41
0.0
42
0.0
10
67.5496978759766
20
76.497802734375
40
0.0
41
0.0
42
0.0
10
67.6005020141602
20
76.465202331543
40
0.0
41
0.0
42
0.0
10
67.6847991943359
20
76.4279022216797
40
0.0
41
0.0
42
0.0
10
67.9860000610352
20
76.2397003173828
40
0.0
41
0.0
42
0.0
10
68.0178985595703
20
76.2396011352539
40
0.0
41
0.0
42
0.0
10
68.3206024169922
20
76.3002014160156
40
0.0
41
0.0
42
0.0
10
68.5130996704102
20
76.3432006835938
40
0.0
41
0.0
42
0.0
10
68.848503112793
20
76.5036010742188
40
0.0
41
0.0
42
0.0
10
69.0092010498047
20
76.5908966064453
40
0.0
41
0.0
42
0.0
10
69.1155014038086
20
76.659797668457
40
0.0
41
0.0
42
0.0
10
69.3081970214844
20
76.7669982910156
40
0.0
41
0.0
42
0.0
10
69.5111999511719
20
76.8648986816406
40
0.0
41
0.0
42
0.0
10
69.8177032470703
20
76.9962997436523
40
0.0
41
0.0
42
0.0
10
70.0045013427734
20
77.3719024658203
40
0.0
41
0.0
42
0.0
10
70.0842971801758
20
77.4080963134766
40
0.0
41
0.0
42
0.0
10
70.0841979980469
20
77.4311981201172
40
0.0
41
0.0
42
0.0
10
70.0571975708008
20
77.5140991210938
40
0.0
41
0.0
42
0.0
10
69.999397277832
20
77.7453994750977
40
0.0
41
0.0
42
0.0
10
69.9611968994141
20
77.9613037109375
40
0.0
41
0.0
42
0.0
10
69.9598999023438
20
78.0167999267578
40
0.0
41
0.0
42
0.0
10
69.871696472168
20
78.3292007446289
40
0.0
41
0.0
42
0.0
10
69.8243026733398
20
78.5485992431641
40
0.0
41
0.0
42
0.0
10
69.720703125
20
78.8827972412109
40
0.0
41
0.0
42
0.0
10
69.6710968017578
20
79.0111999511719
40
0.0
41
0.0
42
0.0
10
69.503303527832
20
79.3287963867188
40
0.0
41
0.0
42
0.0
10
69.2904968261719
20
79.502799987793
40
0.0
41
0.0
42
0.0
10
69.2067031860352
20
79.5541000366211
40
0.0
41
0.0
42
0.0
10
69.0177001953125
20
79.5981979370117
40
0.0
41
0.0
42
0.0
10
68.6640014648438
20
79.5919036865234
40
0.0
41
0.0
42
0.0
10
68.4850006103516
20
79.5655975341797
40
0.0
41
0.0
42
0.0
10
68.2968978881836
20
79.5002975463867
40
0.0
41
0.0
42
0.0
10
68.173698425293
20
79.4492034912109
40
0.0
41
0.0
42
0.0
10
67.9882965087891
20
79.393798828125
40
0.0
41
0.0
42
0.0
10
67.8380966186523
20
79.306999206543
40
0.0
41
0.0
42
0.0
10
67.5426025390625
20
79.1190032958984
40
0.0
41
0.0
42
0.0
10
67.4926986694336
20
79.0847015380859
40
0.0
41
0.0
42
0.0
10
67.3984985351562
20
79.0046997070312
40
0.0
41
0.0
42
0.0
10
67.3584976196289
20
78.9621963500977
40
0.0
41
0.0
42
0.0
10
67.238899230957
20
78.8132019042969
40
0.0
41
0.0
42
0.0
10
67.071403503418
20
78.5130996704102
40
0.0
41
0.0
42
0.0
10
66.9990997314453
20
78.1928024291992
40
0.0
41
0.0
42
0.0
10
66.9749984741211
20
78.0185012817383
40
0.0
41
0.0
42
0.0
10
66.9748992919922
20
77.9814987182617
40
0.0
41
0.0
42
0.0
10
67.0201034545898
20
77.6750030517578
40
0.0
41
0.0
42
0.0
210
0.0
220
0.0
230
1.0
0
LWPOLYLINE
5
27
330
1C
100
AcDbEntity
67
0
8
0
62
256
6
ByLayer
370
-1
48
1.0
60
0
100
AcDbPolyline
90
45
70
1
38
0.0
39
0.0
10
67.0868988037109
20
78.4869995117188
40
0.0
41
0.0
42
0.0
10
67.2370986938477
20
78.7566986083984
40
0.0
41
0.0
42
0.0
10
67.3848037719727
20
78.9406967163086
40
0.0
41
0.0
42
0.0
10
67.4359970092773
20
78.9952011108398
40
0.0
41
0.0
42
0.0
10
67.5072021484375
20
79.0557022094727
40
0.0
41
0.0
42
0.0
10
67.5699996948242
20
79.0988006591797
40
0.0
41
0.0
42
0.0
10
67.8280029296875
20
79.2629013061523
40
0.0
41
0.0
42
0.0
10
68.0115966796875
20
79.3691024780273
40
0.0
41
0.0
42
0.0
10
68.2406997680664
20
79.4375991821289
40
0.0
41
0.0
42
0.0
10
68.3899993896484
20
79.4996032714844
40
0.0
41
0.0
42
0.0
10
68.5149993896484
20
79.5429000854492
40
0.0
41
0.0
42
0.0
10
68.6352996826172
20
79.5604019165039
40
0.0
41
0.0
42
0.0
10
68.9852981567383
20
79.5675964355469
40
0.0
41
0.0
42
0.0
10
69.1203994750977
20
79.5362014770508
40
0.0
41
0.0
42
0.0
10
69.1839981079102
20
79.4970016479492
40
0.0
41
0.0
42
0.0
10
69.4964981079102
20
79.24169921875
40
0.0
41
0.0
42
0.0
10
69.6302032470703
20
78.9886016845703
40
0.0
41
0.0
42
0.0
10
69.6913986206055
20
78.8299026489258
40
0.0
41
0.0
42
0.0
10
69.7890014648438
20
78.5148010253906
40
0.0
41
0.0
42
0.0
10
69.8441009521484
20
78.2580032348633
40
0.0
41
0.0
42
0.0
10
69.9217987060547
20
77.9831008911133
40
0.0
41
0.0
42
0.0
10
69.9241027832031
20
77.8672027587891
40
0.0
41
0.0
42
0.0
10
69.9881973266602
20
77.506103515625
40
0.0
41
0.0
42
0.0
10
69.9726028442383
20
77.4837036132812
40
0.0
41
0.0
42
0.0
10
69.7341003417969
20
77.0036010742188
40
0.0
41
0.0
42
0.0
10
69.4887008666992
20
76.8984985351562
40
0.0
41
0.0
42
0.0
10
69.3355026245117
20
76.8247985839844
40
0.0
41
0.0
42
0.0
10
69.1264038085938
20
76.7080993652344
40
0.0
41
0.0
42
0.0
10
68.9906997680664
20
76.6202011108398
40
0.0
41
0.0
42
0.0
10
68.783203125
20
76.5074996948242
40
0.0
41
0.0
42
0.0
10
68.4869003295898
20
76.3658981323242
40
0.0
41
0.0
42
0.0
10
68.2492980957031
20
76.3127975463867
40
0.0
41
0.0
42
0.0
10
68.0062026977539
20
76.2639999389648
40
0.0
41
0.0
42
0.0
10
67.7451019287109
20
76.4272994995117
40
0.0
41
0.0
42
0.0
10
67.6432037353516
20
76.4726028442383
40
0.0
41
0.0
42
0.0
10
67.5973968505859
20
76.5019989013672
40
0.0
41
0.0
42
0.0
10
67.5050964355469
20
76.5550994873047
40
0.0
41
0.0
42
0.0
10
67.3814010620117
20
76.743896484375
40
0.0
41
0.0
42
0.0
10
67.2291030883789
20
77.0109024047852
40
0.0
41
0.0
42
0.0
10
67.1389007568359
20
77.2475967407227
40
0.0
41
0.0
42
0.0
10
67.0410995483398
20
77.5154037475586
40
0.0
41
0.0
42
0.0
10
67.0223007202148
20
77.750602722168
40
0.0
41
0.0
42
0.0
10
66.9851989746094
20
78.0002975463867
40
0.0
41
0.0
42
0.0
10
66.9982986450195
20
78.0939025878906
40
0.0
41
0.0
42
0.0
10
67.0868988037109
20
78.4869995117188
40
0.0
41
0.0
42
0.0
210
0.0
220
0.0
230
1.0
0
LWPOLYLINE
5
28
330
1C
100
AcDbEntity
67
0
8
0
62
256
6
ByLayer
370
-1
48
1.0
60
0
100
AcDbPolyline
90
36
70
1
38
0.0
39
0.0
10
67.7593002319336
20
65.0009994506836
40
0.0
41
0.0
42
0.0
10
67.8551025390625
20
65.254997253418
40
0.0
41
0.0
42
0.0
10
67.8786010742188
20
65.2871017456055
40
0.0
41
0.0
42
0.0
10
68.008903503418
20
65.3833999633789
40
0.0
41
0.0
42
0.0
10
68.1426010131836
20
65.4506988525391
40
0.0
41
0.0
42
0.0
10
68.4115982055664
20
65.5007019042969
40
0.0
41
0.0
42
0.0
10
68.5127029418945
20
65.5139999389648
40
0.0
41
0.0
42
0.0
10
68.9809036254883
20
65.5130004882812
40
0.0
41
0.0
42
0.0
10
69.4829025268555
20
65.4666976928711
40
0.0
41
0.0
42
0.0
10
69.7483978271484
20
65.4156036376953
40
0.0
41
0.0
42
0.0
10
69.9841995239258
20
65.3817977905273
40
0.0
41
0.0
42
0.0
10
70.2210006713867
20
65.3168029785156
40
0.0
41
0.0
42
0.0
10
70.4885025024414
20
65.2295989990234
40
0.0
41
0.0
42
0.0
10
70.7546997070312
20
65.0762023925781
40
0.0
41
0.0
42
0.0
10
70.8674011230469
20
65.0224990844727
40
0.0
41
0.0
42
0.0
10
70.9033966064453
20
65.0009994506836
40
0.0
41
0.0
42
0.0
10
70.9434967041016
20
65.0009994506836
40
0.0
41
0.0
42
0.0
10
70.9432983398438
20
65.0080032348633
40
0.0
41
0.0
42
0.0
10
70.9084014892578
20
65.0290985107422
40
0.0
41
0.0
42
0.0
10
70.8152008056641
20
65.0735015869141
40
0.0
41
0.0
42
0.0
10
70.5112991333008
20
65.2487030029297
40
0.0
41
0.0
42
0.0
10
70.2089004516602
20
65.3471984863281
40
0.0
41
0.0
42
0.0
10
70.0157012939453
20
65.4001998901367
40
0.0
41
0.0
42
0.0
10
69.8215026855469
20
65.4280014038086
40
0.0
41
0.0
42
0.0
10
69.5169982910156
20
65.4865036010742
40
0.0
41
0.0
42
0.0
10
69.0189971923828
20
65.532096862793
40
0.0
41
0.0
42
0.0
10
68.6442031860352
20
65.532600402832
40
0.0
41
0.0
42
0.0
10
68.481201171875
20
65.5354995727539
40
0.0
41
0.0
42
0.0
10
68.2074966430664
20
65.4991989135742
40
0.0
41
0.0
42
0.0
10
68.0602035522461
20
65.4718017578125
40
0.0
41
0.0
42
0.0
10
67.9909973144531
20
65.436897277832
40
0.0
41
0.0
42
0.0
10
67.8497009277344
20
65.3323974609375
40
0.0
41
0.0
42
0.0
10
67.836799621582
20
65.3149032592773
40
0.0
41
0.0
42
0.0
10
67.7241973876953
20
65.0160980224609
40
0.0
41
0.0
42
0.0
10
67.7241973876953
20
65.0009994506836
40
0.0
41
0.0
42
0.0
10
67.7593002319336
20
65.0009994506836
40
0.0
41
0.0
42
0.0
210
0.0
220
0.0
230
1.0
0
LWPOLYLINE
5
29
330
1C
100
AcDbEntity
67
0
8
0
62
256
6
ByLayer
370
-1
48
1.0
60
0
100
AcDbPolyline
90
27
70
1
38
0.0
39
0.0
10
68.5790023803711
20
84.9955978393555
40
0.0
41
0.0
42
0.0
10
68.834098815918
20
84.9204025268555
40
0.0
41
0.0
42
0.0
10
68.9832000732422
20
84.8836975097656
40
0.0
41
0.0
42
0.0
10
69.1766967773438
20
84.8710021972656
40
0.0
41
0.0
42
0.0
10
69.4810028076172
20
84.8401031494141
40
0.0
41
0.0
42
0.0
10
69.5195999145508
20
84.8399963378906
40
0.0
41
0.0
42
0.0
10
69.698600769043
20
84.845703125
40
0.0
41
0.0
42
0.0
10
70.018798828125
20
84.8396987915039
40
0.0
41
0.0
42
0.0
10
70.2130966186523
20
84.8653030395508
40
0.0
41
0.0
42
0.0
10
70.5178985595703
20
84.8787002563477
40
0.0
41
0.0
42
0.0
10
70.8202972412109
20
84.9256973266602
40
0.0
41
0.0
42
0.0
10
71.0133972167969
20
84.9835968017578
40
0.0
41
0.0
42
0.0
10
71.0442962646484
20
84.9946975708008
40
0.0
41
0.0
42
0.0
10
71.0442962646484
20
84.9990005493164
40
0.0
41
0.0
42
0.0
10
70.9841003417969
20
84.9989013671875
40
0.0
41
0.0
42
0.0
10
70.7496032714844
20
84.9283981323242
40
0.0
41
0.0
42
0.0
10
70.4820022583008
20
84.8868026733398
40
0.0
41
0.0
42
0.0
10
70.216796875
20
84.875
40
0.0
41
0.0
42
0.0
10
69.9868011474609
20
84.8447036743164
40
0.0
41
0.0
42
0.0
10
69.7151031494141
20
84.8498001098633
40
0.0
41
0.0
42
0.0
10
69.5095977783203
20
84.8432006835938
40
0.0
41
0.0
42
0.0
10
69.2531967163086
20
84.8693008422852
40
0.0
41
0.0
42
0.0
10
69.0167007446289
20
84.8849029541016
40
0.0
41
0.0
42
0.0
10
68.8320999145508
20
84.9302978515625
40
0.0
41
0.0
42
0.0
10
68.5995025634766
20
84.9990005493164
40
0.0
41
0.0
42
0.0
10
68.5791015625
20
84.9990005493164
40
0.0
41
0.0
42
0.0
10
68.5790023803711
20
84.9955978393555
40
0.0
41
0.0
42
0.0
210
0.0
220
0.0
230
1.0
0
LWPOLYLINE
5
2A
330
1C
100
AcDbEntity
67
0
8
0
62
256
6
ByLayer
370
-1
48
1.0
60
0
100
AcDbPolyline
90
51
70
1
38
0.0
39
0.0
10
70.4077987670898
20
68.6640014648438
40
0.0
41
0.0
42
0.0
10
70.4340972900391
20
68.4850006103516
40
0.0
41
0.0
42
0.0
10
70.4994964599609
20
68.2968978881836
40
0.0
41
0.0
42
0.0
10
70.5505981445312
20
68.173698425293
40
0.0
41
0.0
42
0.0
10
70.6060028076172
20
67.9882965087891
40
0.0
41
0.0
42
0.0
10
70.6844024658203
20
67.8531036376953
40
0.0
41
0.0
42
0.0
10
70.7757034301758
20
67.7130966186523
40
0.0
41
0.0
42
0.0
10
70.9152984619141
20
67.4924011230469
40
0.0
41
0.0
42
0.0
10
70.9934997558594
20
67.4003982543945
40
0.0
41
0.0
42
0.0
10
71.2108993530273
20
67.2779998779297
40
0.0
41
0.0
42
0.0
10
71.488899230957
20
67.0708999633789
40
0.0
41
0.0
42
0.0
10
71.806999206543
20
66.9990997314453
40
0.0
41
0.0
42
0.0
10
71.9813995361328
20
66.9749984741211
40
0.0
41
0.0
42
0.0
10
72.0184020996094
20
66.9748992919922
40
0.0
41
0.0
42
0.0
10
72.3247985839844
20
67.0201034545898
40
0.0
41
0.0
42
0.0
10
72.5154037475586
20
67.0353012084961
40
0.0
41
0.0
42
0.0
10
72.8175964355469
20
67.1456985473633
40
0.0
41
0.0
42
0.0
10
73.0110015869141
20
67.2193984985352
40
0.0
41
0.0
42
0.0
10
73.3140029907227
20
67.3923034667969
40
0.0
41
0.0
42
0.0
10
73.4702987670898
20
67.4946975708008
40
0.0
41
0.0
42
0.0
10
73.5019989013672
20
67.5497970581055
40
0.0
41
0.0
42
0.0
10
73.5345001220703
20
67.6005020141602
40
0.0
41
0.0
42
0.0
10
73.5718002319336
20
67.6847991943359
40
0.0
41
0.0
42
0.0
10
73.7602005004883
20
67.9860000610352
40
0.0
41
0.0
42
0.0
10
73.7601013183594
20
68.0178985595703
40
0.0
41
0.0
42
0.0
10
73.6995010375977
20
68.3206024169922
40
0.0
41
0.0
42
0.0
10
73.6565017700195
20
68.5130004882812
40
0.0
41
0.0
42
0.0
10
73.4962005615234
20
68.848503112793
40
0.0
41
0.0
42
0.0
10
73.408203125
20
69.0102996826172
40
0.0
41
0.0
42
0.0
10
73.3896026611328
20
69.0482025146484
40
0.0
41
0.0
42
0.0
10
73.3065032958984
20
69.1765975952148
40
0.0
41
0.0
42
0.0
10
73.1781005859375
20
69.4429016113281
40
0.0
41
0.0
42
0.0
10
73.1352996826172
20
69.5101013183594
40
0.0
41
0.0
42
0.0
10
73.0036010742188
20
69.8177032470703
40
0.0
41
0.0
42
0.0
10
72.6278991699219
20
70.0044021606445
40
0.0
41
0.0
42
0.0
10
72.5916976928711
20
70.0842971801758
40
0.0
41
0.0
42
0.0
10
72.568603515625
20
70.0841979980469
40
0.0
41
0.0
42
0.0
10
72.4858016967773
20
70.0572967529297
40
0.0
41
0.0
42
0.0
10
72.2544021606445
20
69.999397277832
40
0.0
41
0.0
42
0.0
10
72.0384979248047
20
69.9611968994141
40
0.0
41
0.0
42
0.0
10
71.9831008911133
20
69.9598999023438
40
0.0
41
0.0
42
0.0
10
71.6706008911133
20
69.871696472168
40
0.0
41
0.0
42
0.0
10
71.4512023925781
20
69.8243026733398
40
0.0
41
0.0
42
0.0
10
71.1168975830078
20
69.720703125
40
0.0
41
0.0
42
0.0
10
70.9887008666992
20
69.6712036132812
40
0.0
41
0.0
42
0.0
10
70.6709976196289
20
69.5034027099609
40
0.0
41
0.0
42
0.0
10
70.4971008300781
20
69.2904968261719
40
0.0
41
0.0
42
0.0
10
70.4456024169922
20
69.2068023681641
40
0.0
41
0.0
42
0.0
10
70.4016036987305
20
69.0175018310547
40
0.0
41
0.0
42
0.0
10
70.401496887207
20
68.9802017211914
40
0.0
41
0.0
42
0.0
10
70.4077987670898
20
68.6640014648438
40
0.0
41
0.0
42
0.0
210
0.0
220
0.0
230
1.0
0
LWPOLYLINE
5
2B
330
1C
100
AcDbEntity
67
0
8
0
62
256
6
ByLayer
370
-1
48
1.0
60
0
100
AcDbPolyline
90
45
70
1
38
0.0
39
0.0
10
70.4320983886719
20
68.9853973388672
40
0.0
41
0.0
42
0.0
10
70.4636001586914
20
69.1204986572266
40
0.0
41
0.0
42
0.0
10
70.502799987793
20
69.1839981079102
40
0.0
41
0.0
42
0.0
10
70.7581024169922
20
69.4964981079102
40
0.0
41
0.0
42
0.0
10
71.0112991333008
20
69.6302032470703
40
0.0
41
0.0
42
0.0
10
71.1698989868164
20
69.6914978027344
40
0.0
41
0.0
42
0.0
10
71.4850006103516
20
69.7890014648438
40
0.0
41
0.0
42
0.0
10
71.7417984008789
20
69.8442001342773
40
0.0
41
0.0
42
0.0
10
72.0167999267578
20
69.9217987060547
40
0.0
41
0.0
42
0.0
10
72.1325988769531
20
69.9241027832031
40
0.0
41
0.0
42
0.0
10
72.4936981201172
20
69.9880981445312
40
0.0
41
0.0
42
0.0
10
72.5160980224609
20
69.9725036621094
40
0.0
41
0.0
42
0.0
10
72.9962005615234
20
69.734001159668
40
0.0
41
0.0
42
0.0
10
73.100700378418
20
69.4897994995117
40
0.0
41
0.0
42
0.0
10
73.1517028808594
20
69.4096984863281
40
0.0
41
0.0
42
0.0
10
73.263298034668
20
69.1783981323242
40
0.0
41
0.0
42
0.0
10
73.3632965087891
20
69.0240020751953
40
0.0
41
0.0
42
0.0
10
73.3802032470703
20
68.9896011352539
40
0.0
41
0.0
42
0.0
10
73.4922027587891
20
68.783203125
40
0.0
41
0.0
42
0.0
10
73.6337966918945
20
68.4868011474609
40
0.0
41
0.0
42
0.0
10
73.686897277832
20
68.2492980957031
40
0.0
41
0.0
42
0.0
10
73.7357025146484
20
68.0062026977539
40
0.0
41
0.0
42
0.0
10
73.5724029541016
20
67.7451019287109
40
0.0
41
0.0
42
0.0
10
73.5271987915039
20
67.6433029174805
40
0.0
41
0.0
42
0.0
10
73.497802734375
20
67.5975036621094
40
0.0
41
0.0
42
0.0
10
73.4448013305664
20
67.5050964355469
40
0.0
41
0.0
42
0.0
10
73.2558975219727
20
67.3815002441406
40
0.0
41
0.0
42
0.0
10
72.9889984130859
20
67.2292022705078
40
0.0
41
0.0
42
0.0
10
72.7522964477539
20
67.1389007568359
40
0.0
41
0.0
42
0.0
10
72.4844970703125
20
67.0410995483398
40
0.0
41
0.0
42
0.0
10
72.2491989135742
20
67.0223999023438
40
0.0
41
0.0
42
0.0
10
71.9997024536133
20
66.9851989746094
40
0.0
41
0.0
42
0.0
10
71.9058990478516
20
66.9981994628906
40
0.0
41
0.0
42
0.0
10
71.5109024047852
20
67.0873031616211
40
0.0
41
0.0
42
0.0
10
71.1673965454102
20
67.3432998657227
40
0.0
41
0.0
42
0.0
10
71.0063018798828
20
67.4338989257812
40
0.0
41
0.0
42
0.0
10
70.9438018798828
20
67.5074005126953
40
0.0
41
0.0
42
0.0
10
70.8414993286133
20
67.6690979003906
40
0.0
41
0.0
42
0.0
10
70.7297973632812
20
67.8407974243164
40
0.0
41
0.0
42
0.0
10
70.6306991577148
20
68.0114974975586
40
0.0
41
0.0
42
0.0
10
70.5619964599609
20
68.2406997680664
40
0.0
41
0.0
42
0.0
10
70.5002975463867
20
68.3899993896484
40
0.0
41
0.0
42
0.0
10
70.4568023681641
20
68.5149002075195
40
0.0
41
0.0
42
0.0
10
70.4393005371094
20
68.6352996826172
40
0.0
41
0.0
42
0.0
10
70.4320983886719
20
68.9853973388672
40
0.0
41
0.0
42
0.0
210
0.0
220
0.0
230
1.0
0
LWPOLYLINE
5
2C
330
1C
100
AcDbEntity
67
0
8
0
62
256
6
ByLayer
370
-1
48
1.0
60
0
100
AcDbPolyline
90
151
70
1
38
0.0
39
0.0
10
70.9915008544922
20
73.381103515625
40
0.0
41
0.0
42
0.0
10
71.1159973144531
20
73.2543029785156
40
0.0
41
0.0
42
0.0
10
71.1828994750977
20
73.2116012573242
40
0.0
41
0.0
42
0.0
10
71.4850006103516
20
73.1513977050781
40
0.0
41
0.0
42
0.0
10
71.6791000366211
20
73.0932998657227
40
0.0
41
0.0
42
0.0
10
71.9819030761719
20
73.0610961914062
40
0.0
41
0.0
42
0.0
10
72.4308013916016
20
73.0242004394531
40
0.0
41
0.0
42
0.0
10
72.4826965332031
20
73.0220031738281
40
0.0
41
0.0
42
0.0
10
72.5941009521484
20
72.996696472168
40
0.0
41
0.0
42
0.0
10
72.5932006835938
20
72.8939971923828
40
0.0
41
0.0
42
0.0
10
72.7794036865234
20
72.6210021972656
40
0.0
41
0.0
42
0.0
10
72.8575973510742
20
72.4872970581055
40
0.0
41
0.0
42
0.0
10
72.850700378418
20
72.2108001708984
40
0.0
41
0.0
42
0.0
10
72.8702011108398
20
71.9822006225586
40
0.0
41
0.0
42
0.0
10
72.9162979125977
20
71.631103515625
40
0.0
41
0.0
42
0.0
10
72.9266967773438
20
71.4833984375
40
0.0
41
0.0
42
0.0
10
72.9974975585938
20
71.2120971679688
40
0.0
41
0.0
42
0.0
10
73.4760971069336
20
71.0127029418945
40
0.0
41
0.0
42
0.0
10
73.4873962402344
20
71.0036010742188
40
0.0
41
0.0
42
0.0
10
73.5141983032227
20
71.0035018920898
40
0.0
41
0.0
42
0.0
10
73.8331985473633
20
71.1941986083984
40
0.0
41
0.0
42
0.0
10
73.8560028076172
20
71.2014007568359
40
0.0
41
0.0
42
0.0
10
74.0078964233398
20
71.2884979248047
40
0.0
41
0.0
42
0.0
10
74.2631988525391
20
71.5009002685547
40
0.0
41
0.0
42
0.0
10
74.3106994628906
20
71.5422973632812
40
0.0
41
0.0
42
0.0
10
74.5091018676758
20
71.7350997924805
40
0.0
41
0.0
42
0.0
10
74.8161010742188
20
71.8215026855469
40
0.0
41
0.0
42
0.0
10
74.9987030029297
20
71.9419021606445
40
0.0
41
0.0
42
0.0
10
75.4804000854492
20
71.4954986572266
40
0.0
41
0.0
42
0.0
10
75.9900970458984
20
71.052001953125
40
0.0
41
0.0
42
0.0
10
76.1789016723633
20
70.999397277832
40
0.0
41
0.0
42
0.0
10
76.4852981567383
20
70.8309020996094
40
0.0
41
0.0
42
0.0
10
76.5164031982422
20
70.8309020996094
40
0.0
41
0.0
42
0.0
10
76.5683975219727
20
70.8490982055664
40
0.0
41
0.0
42
0.0
10
76.6186981201172
20
70.9915008544922
40
0.0
41
0.0
42
0.0
10
76.7453994750977
20
71.116096496582
40
0.0
41
0.0
42
0.0
10
76.7881011962891
20
71.1828994750977
40
0.0
41
0.0
42
0.0
10
76.8482971191406
20
71.4850006103516
40
0.0
41
0.0
42
0.0
10
76.9064025878906
20
71.6791000366211
40
0.0
41
0.0
42
0.0
10
76.9385986328125
20
71.9819030761719
40
0.0
41
0.0
42
0.0
10
76.9755020141602
20
72.4308013916016
40
0.0
41
0.0
42
0.0
10
76.9776992797852
20
72.4828033447266
40
0.0
41
0.0
42
0.0
10
77.0031967163086
20
72.5941009521484
40
0.0
41
0.0
42
0.0
10
77.1057968139648
20
72.5932006835938
40
0.0
41
0.0
42
0.0
10
77.3787994384766
20
72.7794036865234
40
0.0
41
0.0
42
0.0
10
77.5126037597656
20
72.8575973510742
40
0.0
41
0.0
42
0.0
10
77.7890014648438
20
72.850700378418
40
0.0
41
0.0
42
0.0
10
78.0177001953125
20
72.8702011108398
40
0.0
41
0.0
42
0.0
10
78.3686981201172
20
72.9162979125977
40
0.0
41
0.0
42
0.0
10
78.5165023803711
20
72.9268035888672
40
0.0
41
0.0
42
0.0
10
78.7876968383789
20
72.9975967407227
40
0.0
41
0.0
42
0.0
10
78.9870986938477
20
73.4760971069336
40
0.0
41
0.0
42
0.0
10
78.9962997436523
20
73.4873962402344
40
0.0
41
0.0
42
0.0
10
78.9962005615234
20
73.5121994018555
40
0.0
41
0.0
42
0.0
10
78.8752975463867
20
73.6548004150391
40
0.0
41
0.0
42
0.0
10
78.8059005737305
20
73.8327026367188
40
0.0
41
0.0
42
0.0
10
78.713996887207
20
73.9928970336914
40
0.0
41
0.0
42
0.0
10
78.7093963623047
20
74.0101013183594
40
0.0
41
0.0
42
0.0
10
78.5038986206055
20
74.2571029663086
40
0.0
41
0.0
42
0.0
10
78.4573974609375
20
74.3106994628906
40
0.0
41
0.0
42
0.0
10
78.2646026611328
20
74.5091018676758
40
0.0
41
0.0
42
0.0
10
78.1781005859375
20
74.8161010742188
40
0.0
41
0.0
42
0.0
10
78.0578994750977
20
74.9985961914062
40
0.0
41
0.0
42
0.0
10
78.2463989257812
20
75.1893005371094
40
0.0
41
0.0
42
0.0
10
78.5152969360352
20
75.4940032958984
40
0.0
41
0.0
42
0.0
10
78.6922988891602
20
75.6887969970703
40
0.0
41
0.0
42
0.0
10
78.9477005004883
20
75.9899978637695
40
0.0
41
0.0
42
0.0
10
79.0003967285156
20
76.1789016723633
40
0.0
41
0.0
42
0.0
10
79.1689987182617
20
76.4852981567383
40
0.0
41
0.0
42
0.0
10
79.1688995361328
20
76.5164031982422
40
0.0
41
0.0
42
0.0
10
79.1507034301758
20
76.5683975219727
40
0.0
41
0.0
42
0.0
10
79.00830078125
20
76.6185989379883
40
0.0
41
0.0
42
0.0
10
78.8836975097656
20
76.7453994750977
40
0.0
41
0.0
42
0.0
10
78.8170013427734
20
76.7881011962891
40
0.0
41
0.0
42
0.0
10
78.5149002075195
20
76.8481979370117
40
0.0
41
0.0
42
0.0
10
78.32080078125
20
76.9063034057617
40
0.0
41
0.0
42
0.0
10
78.0179977416992
20
76.9385986328125
40
0.0
41
0.0
42
0.0
10
77.5690002441406
20
76.9755020141602
40
0.0
41
0.0
42
0.0
10
77.5170974731445
20
76.9776992797852
40
0.0
41
0.0
42
0.0
10
77.4056015014648
20
77.0030975341797
40
0.0
41
0.0
42
0.0
10
77.4065017700195
20
77.1056976318359
40
0.0
41
0.0
42
0.0
10
77.2203979492188
20
77.3787994384766
40
0.0
41
0.0
42
0.0
10
77.1420974731445
20
77.5126037597656
40
0.0
41
0.0
42
0.0
10
77.1490020751953
20
77.7890014648438
40
0.0
41
0.0
42
0.0
10
77.1295013427734
20
78.0177001953125
40
0.0
41
0.0
42
0.0
10
77.0835037231445
20
78.3686981201172
40
0.0
41
0.0
42
0.0
10
77.0728988647461
20
78.5165023803711
40
0.0
41
0.0
42
0.0
10
77.002197265625
20
78.7876968383789
40
0.0
41
0.0
42
0.0
10
76.5235977172852
20
78.9869995117188
40
0.0
41
0.0
42
0.0
10
76.5123977661133
20
78.9962997436523
40
0.0
41
0.0
42
0.0
10
76.4877014160156
20
78.9962005615234
40
0.0
41
0.0
42
0.0
10
76.3450012207031
20
78.8752975463867
40
0.0
41
0.0
42
0.0
10
76.1671981811523
20
78.8059005737305
40
0.0
41
0.0
42
0.0
10
76.0068969726562
20
78.713996887207
40
0.0
41
0.0
42
0.0
10
75.9897994995117
20
78.7095031738281
40
0.0
41
0.0
42
0.0
10
75.7425994873047
20
78.5039978027344
40
0.0
41
0.0
42
0.0
10
75.6892013549805
20
78.4574966430664
40
0.0
41
0.0
42
0.0
10
75.4907989501953
20
78.2646026611328
40
0.0
41
0.0
42
0.0
10
75.1837997436523
20
78.1782989501953
40
0.0
41
0.0
42
0.0
10
75.0014038085938
20
78.0578994750977
40
0.0
41
0.0
42
0.0
10
74.8809967041016
20
78.181999206543
40
0.0
41
0.0
42
0.0
10
74.8049011230469
20
78.2516021728516
40
0.0
41
0.0
42
0.0
10
74.6756973266602
20
78.3737030029297
40
0.0
41
0.0
42
0.0
10
74.5062026977539
20
78.5149993896484
40
0.0
41
0.0
42
0.0
10
74.3622970581055
20
78.6436996459961
40
0.0
41
0.0
42
0.0
10
74.3109970092773
20
78.6922988891602
40
0.0
41
0.0
42
0.0
10
74.1120986938477
20
78.8576965332031
40
0.0
41
0.0
42
0.0
10
74.0095977783203
20
78.9477005004883
40
0.0
41
0.0
42
0.0
10
73.8208999633789
20
79.0002975463867
40
0.0
41
0.0
42
0.0
10
73.5146026611328
20
79.1689987182617
40
0.0
41
0.0
42
0.0
10
73.4834976196289
20
79.1688995361328
40
0.0
41
0.0
42
0.0
10
73.4312973022461
20
79.1507034301758
40
0.0
41
0.0
42
0.0
10
73.381103515625
20
79.0083999633789
40
0.0
41
0.0
42
0.0
10
73.2543029785156
20
78.8837966918945
40
0.0
41
0.0
42
0.0
10
73.2116012573242
20
78.8170013427734
40
0.0
41
0.0
42
0.0
10
73.151496887207
20
78.5149002075195
40
0.0
41
0.0
42
0.0
10
73.0933990478516
20
78.32080078125
40
0.0
41
0.0
42
0.0
10
73.0610961914062
20
78.0179977416992
40
0.0
41
0.0
42
0.0
10
73.0242004394531
20
77.5690002441406
40
0.0
41
0.0
42
0.0
10
73.0220031738281
20
77.5171966552734
40
0.0
41
0.0
42
0.0
10
72.9968032836914
20
77.4056015014648
40
0.0
41
0.0
42
0.0
10
72.8939971923828
20
77.4066009521484
40
0.0
41
0.0
42
0.0
10
72.6210021972656
20
77.2203979492188
40
0.0
41
0.0
42
0.0
10
72.4872970581055
20
77.1420974731445
40
0.0
41
0.0
42
0.0
10
72.2108001708984
20
77.1490020751953
40
0.0
41
0.0
42
0.0
10
71.9822006225586
20
77.1295013427734
40
0.0
41
0.0
42
0.0
10
71.631103515625
20
77.0835037231445
40
0.0
41
0.0
42
0.0
10
71.4833984375
20
77.072998046875
40
0.0
41
0.0
42
0.0
10
71.2120971679688
20
77.0022964477539
40
0.0
41
0.0
42
0.0
10
71.0128021240234
20
76.5235977172852
40
0.0
41
0.0
42
0.0
10
71.0036010742188
20
76.5123977661133
40
0.0
41
0.0
42
0.0
10
71.0034027099609
20
76.4854965209961
40
0.0
41
0.0
42
0.0
10
71.2883987426758
20
75.9919967651367
40
0.0
41
0.0
42
0.0
10
71.5009002685547
20
75.7366027832031
40
0.0
41
0.0
42
0.0
10
71.5422973632812
20
75.6891021728516
40
0.0
41
0.0
42
0.0
10
71.7350997924805
20
75.4906997680664
40
0.0
41
0.0
42
0.0
10
71.821403503418
20
75.1837997436523
40
0.0
41
0.0
42
0.0
10
71.9418029785156
20
75.0014038085938
40
0.0
41
0.0
42
0.0
10
71.8177032470703
20
74.881103515625
40
0.0
41
0.0
42
0.0
10
71.7481002807617
20
74.8049011230469
40
0.0
41
0.0
42
0.0
10
71.6260986328125
20
74.6757965087891
40
0.0
41
0.0
42
0.0
10
71.4848022460938
20
74.5062026977539
40
0.0
41
0.0
42
0.0
10
71.3560028076172
20
74.3622970581055
40
0.0
41
0.0
42
0.0
10
71.307502746582
20
74.3109970092773
40
0.0
41
0.0
42
0.0
10
71.1420974731445
20
74.1120986938477
40
0.0
41
0.0
42
0.0
10
71.052001953125
20
74.0096969604492
40
0.0
41
0.0
42
0.0
10
70.9994964599609
20
73.8208999633789
40
0.0
41
0.0
42
0.0
10
70.8309020996094
20
73.5146026611328
40
0.0
41
0.0
42
0.0
10
70.8308029174805
20
73.4834976196289
40
0.0
41
0.0
42
0.0
10
70.8489990234375
20
73.4312973022461
40
0.0
41
0.0
42
0.0
10
70.9915008544922
20
73.381103515625
40
0.0
41
0.0
42
0.0
210
0.0
220
0.0
230
1.0
0
LWPOLYLINE
5
2D
330
1C
100
AcDbEntity
67
0
8
0
62
256
6
ByLayer
370
-1
48
1.0
60
0
100
AcDbPolyline
90
154
70
1
38
0.0
39
0.0
10
71.0002975463867
20
73.6451034545898
40
0.0
41
0.0
42
0.0
10
71.0962982177734
20
73.9901962280273
40
0.0
41
0.0
42
0.0
10
71.1801986694336
20
74.0856018066406
40
0.0
41
0.0
42
0.0
10
71.3243026733398
20
74.258903503418
40
0.0
41
0.0
42
0.0
10
71.38330078125
20
74.321403503418
40
0.0
41
0.0
42
0.0
10
71.538200378418
20
74.4936981201172
40
0.0
41
0.0
42
0.0
10
71.6613998413086
20
74.6415023803711
40
0.0
41
0.0
42
0.0
10
71.7726974487305
20
74.7593002319336
40
0.0
41
0.0
42
0.0
10
71.8507995605469
20
74.8450012207031
40
0.0
41
0.0
42
0.0
10
71.9994964599609
20
74.988899230957
40
0.0
41
0.0
42
0.0
10
71.999397277832
20
75.0136032104492
40
0.0
41
0.0
42
0.0
10
71.8459014892578
20
75.2461013793945
40
0.0
41
0.0
42
0.0
10
71.7718963623047
20
75.5091018676758
40
0.0
41
0.0
42
0.0
10
71.5468978881836
20
75.7406997680664
40
0.0
41
0.0
42
0.0
10
71.5099029541016
20
75.7830963134766
40
0.0
41
0.0
42
0.0
10
71.3228988647461
20
76.0078964233398
40
0.0
41
0.0
42
0.0
10
71.0742034912109
20
76.4374008178711
40
0.0
41
0.0
42
0.0
10
71.051399230957
20
76.4964981079102
40
0.0
41
0.0
42
0.0
10
71.0734024047852
20
76.5192031860352
40
0.0
41
0.0
42
0.0
10
71.2508010864258
20
76.7398986816406
40
0.0
41
0.0
42
0.0
10
71.3582000732422
20
76.9975967407227
40
0.0
41
0.0
42
0.0
10
71.5165023803711
20
77.0389022827148
40
0.0
41
0.0
42
0.0
10
71.5948028564453
20
77.0444030761719
40
0.0
41
0.0
42
0.0
10
72.0177001953125
20
77.0999984741211
40
0.0
41
0.0
42
0.0
10
72.1840972900391
20
77.1139984130859
40
0.0
41
0.0
42
0.0
10
72.4803009033203
20
77.105598449707
40
0.0
41
0.0
42
0.0
10
72.5142974853516
20
77.105598449707
40
0.0
41
0.0
42
0.0
10
72.6041030883789
20
77.1580963134766
40
0.0
41
0.0
42
0.0
10
72.8124008178711
20
77.3000030517578
40
0.0
41
0.0
42
0.0
10
73.0031967163086
20
77.2975997924805
40
0.0
41
0.0
42
0.0
10
73.0449981689453
20
77.4826965332031
40
0.0
41
0.0
42
0.0
10
73.0496978759766
20
77.5905990600586
40
0.0
41
0.0
42
0.0
10
73.081901550293
20
77.9819030761719
40
0.0
41
0.0
42
0.0
10
73.1102981567383
20
78.2490997314453
40
0.0
41
0.0
42
0.0
10
73.1809005737305
20
78.4850006103516
40
0.0
41
0.0
42
0.0
10
73.2342987060547
20
78.7528991699219
40
0.0
41
0.0
42
0.0
10
73.2931976318359
20
78.8451995849609
40
0.0
41
0.0
42
0.0
10
73.4421997070312
20
78.9915008544922
40
0.0
41
0.0
42
0.0
10
73.4702987670898
20
79.071403503418
40
0.0
41
0.0
42
0.0
10
73.4973983764648
20
79.0805969238281
40
0.0
41
0.0
42
0.0
10
73.6449966430664
20
78.9994964599609
40
0.0
41
0.0
42
0.0
10
73.9901962280273
20
78.9033966064453
40
0.0
41
0.0
42
0.0
10
74.0856018066406
20
78.8197021484375
40
0.0
41
0.0
42
0.0
10
74.258903503418
20
78.6754989624023
40
0.0
41
0.0
42
0.0
10
74.321403503418
20
78.6165008544922
40
0.0
41
0.0
42
0.0
10
74.4936981201172
20
78.4616012573242
40
0.0
41
0.0
42
0.0
10
74.6415023803711
20
78.3383026123047
40
0.0
41
0.0
42
0.0
10
74.7592010498047
20
78.2270965576172
40
0.0
41
0.0
42
0.0
10
74.8449020385742
20
78.1490020751953
40
0.0
41
0.0
42
0.0
10
74.988899230957
20
78.0003967285156
40
0.0
41
0.0
42
0.0
10
75.0136032104492
20
78.0002975463867
40
0.0
41
0.0
42
0.0
10
75.2461013793945
20
78.1538009643555
40
0.0
41
0.0
42
0.0
10
75.5091018676758
20
78.2277984619141
40
0.0
41
0.0
42
0.0
10
75.7407989501953
20
78.4529037475586
40
0.0
41
0.0
42
0.0
10
75.7902984619141
20
78.4960021972656
40
0.0
41
0.0
42
0.0
10
76.0101013183594
20
78.678596496582
40
0.0
41
0.0
42
0.0
10
76.0346984863281
20
78.6852035522461
40
0.0
41
0.0
42
0.0
10
76.1719970703125
20
78.7639007568359
40
0.0
41
0.0
42
0.0
10
76.3822021484375
20
78.8460006713867
40
0.0
41
0.0
42
0.0
10
76.4983978271484
20
78.9445037841797
40
0.0
41
0.0
42
0.0
10
76.7400970458984
20
78.7487030029297
40
0.0
41
0.0
42
0.0
10
76.9975967407227
20
78.6416015625
40
0.0
41
0.0
42
0.0
10
77.0389022827148
20
78.4833984375
40
0.0
41
0.0
42
0.0
10
77.0444030761719
20
78.4049987792969
40
0.0
41
0.0
42
0.0
10
77.0999984741211
20
77.9822006225586
40
0.0
41
0.0
42
0.0
10
77.1139984130859
20
77.8156967163086
40
0.0
41
0.0
42
0.0
10
77.105598449707
20
77.5195999145508
40
0.0
41
0.0
42
0.0
10
77.1054992675781
20
77.4856033325195
40
0.0
41
0.0
42
0.0
10
77.1580963134766
20
77.3955993652344
40
0.0
41
0.0
42
0.0
10
77.3000030517578
20
77.1874008178711
40
0.0
41
0.0
42
0.0
10
77.2975006103516
20
76.9965972900391
40
0.0
41
0.0
42
0.0
10
77.4826965332031
20
76.9546966552734
40
0.0
41
0.0
42
0.0
10
77.5905990600586
20
76.9499969482422
40
0.0
41
0.0
42
0.0
10
77.9819030761719
20
76.9178009033203
40
0.0
41
0.0
42
0.0
10
78.2490997314453
20
76.8893966674805
40
0.0
41
0.0
42
0.0
10
78.4850006103516
20
76.8189010620117
40
0.0
41
0.0
42
0.0
10
78.7528991699219
20
76.7654037475586
40
0.0
41
0.0
42
0.0
10
78.845100402832
20
76.7064971923828
40
0.0
41
0.0
42
0.0
10
78.9915008544922
20
76.5576019287109
40
0.0
41
0.0
42
0.0
10
79.0712966918945
20
76.5295028686523
40
0.0
41
0.0
42
0.0
10
79.0808029174805
20
76.5025024414062
40
0.0
41
0.0
42
0.0
10
78.9994964599609
20
76.3547973632812
40
0.0
41
0.0
42
0.0
10
78.9035034179688
20
76.0099029541016
40
0.0
41
0.0
42
0.0
10
78.6755981445312
20
75.741096496582
40
0.0
41
0.0
42
0.0
10
78.4614028930664
20
75.5058975219727
40
0.0
41
0.0
42
0.0
10
78.2270965576172
20
75.2406005859375
40
0.0
41
0.0
42
0.0
10
78.0003967285156
20
75.0112991333008
40
0.0
41
0.0
42
0.0
10
78.0002975463867
20
74.986198425293
40
0.0
41
0.0
42
0.0
10
78.1537017822266
20
74.7537994384766
40
0.0
41
0.0
42
0.0
10
78.2277984619141
20
74.4906997680664
40
0.0
41
0.0
42
0.0
10
78.4529037475586
20
74.2591018676758
40
0.0
41
0.0
42
0.0
10
78.4959030151367
20
74.2093963623047
40
0.0
41
0.0
42
0.0
10
78.678596496582
20
73.9897994995117
40
0.0
41
0.0
42
0.0
10
78.6852035522461
20
73.9651031494141
40
0.0
41
0.0
42
0.0
10
78.7639007568359
20
73.8277969360352
40
0.0
41
0.0
42
0.0
10
78.8460006713867
20
73.6175003051758
40
0.0
41
0.0
42
0.0
10
78.9446029663086
20
73.5015029907227
40
0.0
41
0.0
42
0.0
10
78.7487030029297
20
73.2596969604492
40
0.0
41
0.0
42
0.0
10
78.6417007446289
20
73.002197265625
40
0.0
41
0.0
42
0.0
10
78.4833984375
20
72.9608001708984
40
0.0
41
0.0
42
0.0
10
78.4049987792969
20
72.9552993774414
40
0.0
41
0.0
42
0.0
10
77.9822006225586
20
72.8996963500977
40
0.0
41
0.0
42
0.0
10
77.8156967163086
20
72.8856964111328
40
0.0
41
0.0
42
0.0
10
77.5196990966797
20
72.8943023681641
40
0.0
41
0.0
42
0.0
10
77.4857025146484
20
72.8943023681641
40
0.0
41
0.0
42
0.0
10
77.3956985473633
20
72.8416976928711
40
0.0
41
0.0
42
0.0
10
77.1874008178711
20
72.6996994018555
40
0.0
41
0.0
42
0.0
10
76.9965972900391
20
72.7023010253906
40
0.0
41
0.0
42
0.0
10
76.9546966552734
20
72.5171966552734
40
0.0
41
0.0
42
0.0
10
76.9499969482422
20
72.4092025756836
40
0.0
41
0.0
42
0.0
10
76.9178009033203
20
72.0179977416992
40
0.0
41
0.0
42
0.0
10
76.8893966674805
20
71.7508010864258
40
0.0
41
0.0
42
0.0
10
76.8189010620117
20
71.5149002075195
40
0.0
41
0.0
42
0.0
10
76.7655029296875
20
71.2470016479492
40
0.0
41
0.0
42
0.0
10
76.7065963745117
20
71.1546020507812
40
0.0
41
0.0
42
0.0
10
76.5576019287109
20
71.0083999633789
40
0.0
41
0.0
42
0.0
10
76.5296020507812
20
70.9283981323242
40
0.0
41
0.0
42
0.0
10
76.5025024414062
20
70.9189987182617
40
0.0
41
0.0
42
0.0
10
76.3546981811523
20
71.0002975463867
40
0.0
41
0.0
42
0.0
10
76.0096969604492
20
71.0961990356445
40
0.0
41
0.0
42
0.0
10
75.5568008422852
20
71.4915008544922
40
0.0
41
0.0
42
0.0
10
75.0117034912109
20
71.9994964599609
40
0.0
41
0.0
42
0.0
10
74.9862976074219
20
71.999397277832
40
0.0
41
0.0
42
0.0
10
74.7537994384766
20
71.8460006713867
40
0.0
41
0.0
42
0.0
10
74.4907989501953
20
71.7720031738281
40
0.0
41
0.0
42
0.0
10
74.2590026855469
20
71.5467987060547
40
0.0
41
0.0
42
0.0
10
73.9919967651367
20
71.3228988647461
40
0.0
41
0.0
42
0.0
10
73.8545989990234
20
71.2442016601562
40
0.0
41
0.0
42
0.0
10
73.8274002075195
20
71.2356033325195
40
0.0
41
0.0
42
0.0
10
73.5516967773438
20
71.070198059082
40
0.0
41
0.0
42
0.0
10
73.5035018920898
20
71.0513000488281
40
0.0
41
0.0
42
0.0
10
73.480598449707
20
71.0733032226562
40
0.0
41
0.0
42
0.0
10
73.2600021362305
20
71.2507019042969
40
0.0
41
0.0
42
0.0
10
73.002197265625
20
71.3581008911133
40
0.0
41
0.0
42
0.0
10
72.9608001708984
20
71.5165023803711
40
0.0
41
0.0
42
0.0
10
72.9552993774414
20
71.5948028564453
40
0.0
41
0.0
42
0.0
10
72.8996963500977
20
72.0177001953125
40
0.0
41
0.0
42
0.0
10
72.8856964111328
20
72.1840972900391
40
0.0
41
0.0
42
0.0
10
72.8943023681641
20
72.4802017211914
40
0.0
41
0.0
42
0.0
10
72.8942031860352
20
72.5141983032227
40
0.0
41
0.0
42
0.0
10
72.8415985107422
20
72.6041030883789
40
0.0
41
0.0
42
0.0
10
72.6996994018555
20
72.8124008178711
40
0.0
41
0.0
42
0.0
10
72.7022018432617
20
73.0031967163086
40
0.0
41
0.0
42
0.0
10
72.5170974731445
20
73.0449981689453
40
0.0
41
0.0
42
0.0
10
72.4092025756836
20
73.0496978759766
40
0.0
41
0.0
42
0.0
10
72.0179977416992
20
73.081901550293
40
0.0
41
0.0
42
0.0
10
71.7508010864258
20
73.1102981567383
40
0.0
41
0.0
42
0.0
10
71.5149002075195
20
73.1809005737305
40
0.0
41
0.0
42
0.0
10
71.2469024658203
20
73.2341995239258
40
0.0
41
0.0
42
0.0
10
71.1546020507812
20
73.2931976318359
40
0.0
41
0.0
42
0.0
10
71.00830078125
20
73.4421997070312
40
0.0
41
0.0
42
0.0
10
70.9283981323242
20
73.4701995849609
40
0.0
41
0.0
42
0.0
10
70.9190979003906
20
73.4973983764648
40
0.0
41
0.0
42
0.0
10
71.0002975463867
20
73.6451034545898
40
0.0
41
0.0
42
0.0
210
0.0
220
0.0
230
1.0
0
LWPOLYLINE
5
2E
330
1C
100
AcDbEntity
67
0
8
0
62
256
6
ByLayer
370
-1
48
1.0
60
0
100
AcDbPolyline
90
44
70
1
38
0.0
39
0.0
10
70.8438034057617
20
80.9891967773438
40
0.0
41
0.0
42
0.0
10
70.9942016601562
20
80.7902984619141
40
0.0
41
0.0
42
0.0
10
71.4815979003906
20
80.4991989135742
40
0.0
41
0.0
42
0.0
10
71.6817016601562
20
80.4365005493164
40
0.0
41
0.0
42
0.0
10
71.9852981567383
20
80.3246002197266
40
0.0
41
0.0
42
0.0
10
72.1808013916016
20
80.2931976318359
40
0.0
41
0.0
42
0.0
10
72.4841995239258
20
80.1639022827148
40
0.0
41
0.0
42
0.0
10
72.5175018310547
20
80.1638031005859
40
0.0
41
0.0
42
0.0
10
72.6372985839844
20
80.1915969848633
40
0.0
41
0.0
42
0.0
10
72.9601974487305
20
80.0830001831055
40
0.0
41
0.0
42
0.0
10
72.9931030273438
20
80.0830001831055
40
0.0
41
0.0
42
0.0
10
73.0086975097656
20
80.0886001586914
40
0.0
41
0.0
42
0.0
10
73.4336013793945
20
80.494499206543
40
0.0
41
0.0
42
0.0
10
73.5029983520508
20
80.573600769043
40
0.0
41
0.0
42
0.0
10
73.5934982299805
20
80.7182998657227
40
0.0
41
0.0
42
0.0
10
73.7443008422852
20
80.9903030395508
40
0.0
41
0.0
42
0.0
10
73.8566970825195
20
81.185302734375
40
0.0
41
0.0
42
0.0
10
74.0018005371094
20
81.448600769043
40
0.0
41
0.0
42
0.0
10
74.0261993408203
20
81.488899230957
40
0.0
41
0.0
42
0.0
10
74.1949996948242
20
81.9833984375
40
0.0
41
0.0
42
0.0
10
74.1949005126953
20
82.0162963867188
40
0.0
41
0.0
42
0.0
10
74.0195999145508
20
82.5074005126953
40
0.0
41
0.0
42
0.0
10
73.8122024536133
20
82.6782989501953
40
0.0
41
0.0
42
0.0
10
73.508903503418
20
82.8886032104492
40
0.0
41
0.0
42
0.0
10
73.3061981201172
20
83.0009994506836
40
0.0
41
0.0
42
0.0
10
73.2759017944336
20
83.0136032104492
40
0.0
41
0.0
42
0.0
10
73.0139999389648
20
83.1127014160156
40
0.0
41
0.0
42
0.0
10
72.8209991455078
20
83.1540985107422
40
0.0
41
0.0
42
0.0
10
72.5183029174805
20
83.2033004760742
40
0.0
41
0.0
42
0.0
10
72.4813995361328
20
83.2032012939453
40
0.0
41
0.0
42
0.0
10
72.1772994995117
20
83.1619033813477
40
0.0
41
0.0
42
0.0
10
71.9868011474609
20
83.144401550293
40
0.0
41
0.0
42
0.0
10
71.7646026611328
20
83.0077972412109
40
0.0
41
0.0
42
0.0
10
71.570198059082
20
82.9011001586914
40
0.0
41
0.0
42
0.0
10
71.4944000244141
20
82.8480987548828
40
0.0
41
0.0
42
0.0
10
71.2941970825195
20
82.6004028320312
40
0.0
41
0.0
42
0.0
10
71.2104034423828
20
82.5073013305664
40
0.0
41
0.0
42
0.0
10
71.1011962890625
20
82.3286972045898
40
0.0
41
0.0
42
0.0
10
70.9983978271484
20
82.152099609375
40
0.0
41
0.0
42
0.0
10
70.9307022094727
20
82.0130004882812
40
0.0
41
0.0
42
0.0
10
70.8886032104492
20
81.8197021484375
40
0.0
41
0.0
42
0.0
10
70.7979965209961
20
81.5167999267578
40
0.0
41
0.0
42
0.0
10
70.7956008911133
20
81.1774978637695
40
0.0
41
0.0
42
0.0
10
70.8438034057617
20
80.9891967773438
40
0.0
41
0.0
42
0.0
210
0.0
220
0.0
230
1.0
0
LWPOLYLINE
5
2F
330
1C
100
AcDbEntity
67
0
8
0
62
256
6
ByLayer
370
-1
48
1.0
60
0
100
AcDbPolyline
90
43
70
1
38
0.0
39
0.0
10
70.8858032226562
20
81.7501983642578
40
0.0
41
0.0
42
0.0
10
70.9375991821289
20
81.9869003295898
40
0.0
41
0.0
42
0.0
10
71.0014038085938
20
82.1181030273438
40
0.0
41
0.0
42
0.0
10
71.0914993286133
20
82.2732009887695
40
0.0
41
0.0
42
0.0
10
71.2255020141602
20
82.4925994873047
40
0.0
41
0.0
42
0.0
10
71.328498840332
20
82.6070022583008
40
0.0
41
0.0
42
0.0
10
71.505500793457
20
82.825798034668
40
0.0
41
0.0
42
0.0
10
71.5774993896484
20
82.8761978149414
40
0.0
41
0.0
42
0.0
10
71.813102722168
20
83.0054016113281
40
0.0
41
0.0
42
0.0
10
72.0130996704102
20
83.1284027099609
40
0.0
41
0.0
42
0.0
10
72.2526016235352
20
83.1504974365234
40
0.0
41
0.0
42
0.0
10
72.4983978271484
20
83.1837997436523
40
0.0
41
0.0
42
0.0
10
72.7488021850586
20
83.1433029174805
40
0.0
41
0.0
42
0.0
10
72.9859008789062
20
83.0923004150391
40
0.0
41
0.0
42
0.0
10
73.2298965454102
20
82.9989013671875
40
0.0
41
0.0
42
0.0
10
73.4909973144531
20
82.8543014526367
40
0.0
41
0.0
42
0.0
10
73.7575988769531
20
82.6694030761719
40
0.0
41
0.0
42
0.0
10
73.9718017578125
20
82.492301940918
40
0.0
41
0.0
42
0.0
10
74.0012969970703
20
82.4057006835938
40
0.0
41
0.0
42
0.0
10
74.1464004516602
20
81.9997024536133
40
0.0
41
0.0
42
0.0
10
73.9999008178711
20
81.5695037841797
40
0.0
41
0.0
42
0.0
10
73.9819030761719
20
81.5117034912109
40
0.0
41
0.0
42
0.0
10
73.8347015380859
20
81.2446975708008
40
0.0
41
0.0
42
0.0
10
73.6990966796875
20
81.0095977783203
40
0.0
41
0.0
42
0.0
10
73.5739974975586
20
80.7836990356445
40
0.0
41
0.0
42
0.0
10
73.4968032836914
20
80.6603012084961
40
0.0
41
0.0
42
0.0
10
73.3607025146484
20
80.5054016113281
40
0.0
41
0.0
42
0.0
10
72.9912033081055
20
80.1522979736328
40
0.0
41
0.0
42
0.0
10
72.9608001708984
20
80.1415023803711
40
0.0
41
0.0
42
0.0
10
72.685302734375
20
80.2342987060547
40
0.0
41
0.0
42
0.0
10
72.6511993408203
20
80.2341995239258
40
0.0
41
0.0
42
0.0
10
72.5038986206055
20
80.1999969482422
40
0.0
41
0.0
42
0.0
10
72.2490997314453
20
80.3087005615234
40
0.0
41
0.0
42
0.0
10
72.0146026611328
20
80.3462982177734
40
0.0
41
0.0
42
0.0
10
71.7481994628906
20
80.4446029663086
40
0.0
41
0.0
42
0.0
10
71.570198059082
20
80.5
40
0.0
41
0.0
42
0.0
10
71.510498046875
20
80.5218963623047
40
0.0
41
0.0
42
0.0
10
71.4501037597656
20
80.5606994628906
40
0.0
41
0.0
42
0.0
10
71.0055999755859
20
80.8255996704102
40
0.0
41
0.0
42
0.0
10
70.8656997680664
20
81.0105972290039
40
0.0
41
0.0
42
0.0
10
70.80419921875
20
81.2510986328125
40
0.0
41
0.0
42
0.0
10
70.8060989379883
20
81.4831008911133
40
0.0
41
0.0
42
0.0
10
70.8858032226562
20
81.7501983642578
40
0.0
41
0.0
42
0.0
210
0.0
220
0.0
230
1.0
0
LWPOLYLINE
5
30
330
1C
100
AcDbEntity
67
0
8
0
62
256
6
ByLayer
370
-1
48
1.0
60
0
100
AcDbPolyline
90
78
70
1
38
0.0
39
0.0
10
73.486701965332
20
75.0080032348633
40
0.0
41
0.0
42
0.0
10
73.486701965332
20
74.9926986694336
40
0.0
41
0.0
42
0.0
10
73.5906982421875
20
74.9646987915039
40
0.0
41
0.0
42
0.0
10
73.6849975585938
20
74.9374008178711
40
0.0
41
0.0
42
0.0
10
73.9961013793945
20
74.6790008544922
40
0.0
41
0.0
42
0.0
10
74.0960998535156
20
74.5109024047852
40
0.0
41
0.0
42
0.0
10
74.1175994873047
20
74.4961013793945
40
0.0
41
0.0
42
0.0
10
74.0146026611328
20
74.2129974365234
40
0.0
41
0.0
42
0.0
10
73.9991989135742
20
74.1826019287109
40
0.0
41
0.0
42
0.0
10
73.9385986328125
20
74.0161972045898
40
0.0
41
0.0
42
0.0
10
73.9384994506836
20
73.9905014038086
40
0.0
41
0.0
42
0.0
10
73.9869003295898
20
73.9550018310547
40
0.0
41
0.0
42
0.0
10
74.0158004760742
20
73.9549026489258
40
0.0
41
0.0
42
0.0
10
74.1225967407227
20
73.9987030029297
40
0.0
41
0.0
42
0.0
10
74.2115020751953
20
74.0531997680664
40
0.0
41
0.0
42
0.0
10
74.4982986450195
20
74.1810989379883
40
0.0
41
0.0
42
0.0
10
74.6652984619141
20
74.0785980224609
40
0.0
41
0.0
42
0.0
10
74.7294998168945
20
73.9919967651367
40
0.0
41
0.0
42
0.0
10
74.9334030151367
20
73.6838989257812
40
0.0
41
0.0
42
0.0
10
74.9906005859375
20
73.4884033203125
40
0.0
41
0.0
42
0.0
10
74.9917984008789
20
73.4868011474609
40
0.0
41
0.0
42
0.0
10
75.0070037841797
20
73.4868011474609
40
0.0
41
0.0
42
0.0
10
75.0350036621094
20
73.5906982421875
40
0.0
41
0.0
42
0.0
10
75.0624008178711
20
73.6849975585938
40
0.0
41
0.0
42
0.0
10
75.32080078125
20
73.9961013793945
40
0.0
41
0.0
42
0.0
10
75.488899230957
20
74.0961990356445
40
0.0
41
0.0
42
0.0
10
75.5038986206055
20
74.1175003051758
40
0.0
41
0.0
42
0.0
10
75.7867965698242
20
74.0146026611328
40
0.0
41
0.0
42
0.0
10
75.8171997070312
20
73.9991989135742
40
0.0
41
0.0
42
0.0
10
75.9837036132812
20
73.9385986328125
40
0.0
41
0.0
42
0.0
10
76.0093002319336
20
73.9385986328125
40
0.0
41
0.0
42
0.0
10
76.0448989868164
20
73.9868011474609
40
0.0
41
0.0
42
0.0
10
76.0447998046875
20
74.0158004760742
40
0.0
41
0.0
42
0.0
10
76.0010986328125
20
74.1225967407227
40
0.0
41
0.0
42
0.0
10
75.9465026855469
20
74.2114028930664
40
0.0
41
0.0
42
0.0
10
75.818603515625
20
74.4982986450195
40
0.0
41
0.0
42
0.0
10
75.9212036132812
20
74.6652984619141
40
0.0
41
0.0
42
0.0
10
76.0078964233398
20
74.7295989990234
40
0.0
41
0.0
42
0.0
10
76.3160018920898
20
74.9334030151367
40
0.0
41
0.0
42
0.0
10
76.5130996704102
20
74.99169921875
40
0.0
41
0.0
42
0.0
10
76.5129013061523
20
75.0070037841797
40
0.0
41
0.0
42
0.0
10
76.4091033935547
20
75.0350036621094
40
0.0
41
0.0
42
0.0
10
76.3149032592773
20
75.0623016357422
40
0.0
41
0.0
42
0.0
10
76.0037002563477
20
75.32080078125
40
0.0
41
0.0
42
0.0
10
75.9035034179688
20
75.4888000488281
40
0.0
41
0.0
42
0.0
10
75.8822021484375
20
75.5037994384766
40
0.0
41
0.0
42
0.0
10
75.9850997924805
20
75.7869033813477
40
0.0
41
0.0
42
0.0
10
76.000602722168
20
75.8172988891602
40
0.0
41
0.0
42
0.0
10
76.0613021850586
20
75.9837036132812
40
0.0
41
0.0
42
0.0
10
76.0610961914062
20
76.0093002319336
40
0.0
41
0.0
42
0.0
10
76.0130004882812
20
76.0448989868164
40
0.0
41
0.0
42
0.0
10
75.9841003417969
20
76.0447998046875
40
0.0
41
0.0
42
0.0
10
75.877197265625
20
76.0011978149414
40
0.0
41
0.0
42
0.0
10
75.7883987426758
20
75.9465026855469
40
0.0
41
0.0
42
0.0
10
75.5016021728516
20
75.8184967041016
40
0.0
41
0.0
42
0.0
10
75.3343963623047
20
75.9210968017578
40
0.0
41
0.0
42
0.0
10
75.2702026367188
20
76.0078964233398
40
0.0
41
0.0
42
0.0
10
75.0662994384766
20
76.3160018920898
40
0.0
41
0.0
42
0.0
10
75.0081024169922
20
76.5130996704102
40
0.0
41
0.0
42
0.0
10
74.9926986694336
20
76.5130996704102
40
0.0
41
0.0
42
0.0
10
74.9646987915039
20
76.4091033935547
40
0.0
41
0.0
42
0.0
10
74.9374008178711
20
76.3149032592773
40
0.0
41
0.0
42
0.0
10
74.6790008544922
20
76.0037002563477
40
0.0
41
0.0
42
0.0
10
74.5109024047852
20
75.9037017822266
40
0.0
41
0.0
42
0.0
10
74.4962005615234
20
75.8821029663086
40
0.0
41
0.0
42
0.0
10
74.2128982543945
20
75.9850997924805
40
0.0
41
0.0
42
0.0
10
74.182502746582
20
76.000602722168
40
0.0
41
0.0
42
0.0
10
74.0161972045898
20
76.0613021850586
40
0.0
41
0.0
42
0.0
10
73.9905014038086
20
76.0613021850586
40
0.0
41
0.0
42
0.0
10
73.9550018310547
20
76.0130004882812
40
0.0
41
0.0
42
0.0
10
73.9549026489258
20
75.9841003417969
40
0.0
41
0.0
42
0.0
10
73.9985961914062
20
75.8770980834961
40
0.0
41
0.0
42
0.0
10
74.0531997680664
20
75.7882995605469
40
0.0
41
0.0
42
0.0
10
74.1811981201172
20
75.5016021728516
40
0.0
41
0.0
42
0.0
10
74.0785980224609
20
75.3345031738281
40
0.0
41
0.0
42
0.0
10
73.9919967651367
20
75.2702026367188
40
0.0
41
0.0
42
0.0
10
73.6838989257812
20
75.0662994384766
40
0.0
41
0.0
42
0.0
10
73.486701965332
20
75.0080032348633
40
0.0
41
0.0
42
0.0
210
0.0
220
0.0
230
1.0
0
LWPOLYLINE
5
31
330
1C
100
AcDbEntity
67
0
8
0
62
256
6
ByLayer
370
-1
48
1.0
60
0
100
AcDbPolyline
90
73
70
1
38
0.0
39
0.0
10
73.5615997314453
20
75.0102996826172
40
0.0
41
0.0
42
0.0
10
73.7460021972656
20
75.0643997192383
40
0.0
41
0.0
42
0.0
10
74.0078964233398
20
75.2377014160156
40
0.0
41
0.0
42
0.0
10
74.0762023925781
20
75.2882995605469
40
0.0
41
0.0
42
0.0
10
74.1976013183594
20
75.4859008789062
40
0.0
41
0.0
42
0.0
10
74.1975021362305
20
75.5155029296875
40
0.0
41
0.0
42
0.0
10
74.0391998291016
20
75.8699035644531
40
0.0
41
0.0
42
0.0
10
74.0010986328125
20
75.9321975708008
40
0.0
41
0.0
42
0.0
10
73.9745025634766
20
75.9972991943359
40
0.0
41
0.0
42
0.0
10
74.0038986206055
20
76.0367965698242
40
0.0
41
0.0
42
0.0
10
74.1071014404297
20
75.9991989135742
40
0.0
41
0.0
42
0.0
10
74.13330078125
20
75.9866027832031
40
0.0
41
0.0
42
0.0
10
74.4837036132812
20
75.8591995239258
40
0.0
41
0.0
42
0.0
10
74.5090026855469
20
75.8592987060547
40
0.0
41
0.0
42
0.0
10
74.519401550293
20
75.8742980957031
40
0.0
41
0.0
42
0.0
10
74.7238006591797
20
75.9962005615234
40
0.0
41
0.0
42
0.0
10
74.9386978149414
20
76.254997253418
40
0.0
41
0.0
42
0.0
10
74.9908981323242
20
76.4382019042969
40
0.0
41
0.0
42
0.0
10
75.0102996826172
20
76.4383010864258
40
0.0
41
0.0
42
0.0
10
75.0643997192383
20
76.2538986206055
40
0.0
41
0.0
42
0.0
10
75.2376022338867
20
75.9918975830078
40
0.0
41
0.0
42
0.0
10
75.288200378418
20
75.9235000610352
40
0.0
41
0.0
42
0.0
10
75.4859008789062
20
75.8022994995117
40
0.0
41
0.0
42
0.0
10
75.5155029296875
20
75.8022003173828
40
0.0
41
0.0
42
0.0
10
75.870002746582
20
75.9604034423828
40
0.0
41
0.0
42
0.0
10
75.9321975708008
20
75.9987030029297
40
0.0
41
0.0
42
0.0
10
75.997200012207
20
76.0251998901367
40
0.0
41
0.0
42
0.0
10
76.0367965698242
20
75.9960021972656
40
0.0
41
0.0
42
0.0
10
75.9992980957031
20
75.8927993774414
40
0.0
41
0.0
42
0.0
10
75.9866027832031
20
75.8665008544922
40
0.0
41
0.0
42
0.0
10
75.8591995239258
20
75.5161972045898
40
0.0
41
0.0
42
0.0
10
75.8591995239258
20
75.4908981323242
40
0.0
41
0.0
42
0.0
10
75.8742980957031
20
75.4804000854492
40
0.0
41
0.0
42
0.0
10
75.9961013793945
20
75.2760009765625
40
0.0
41
0.0
42
0.0
10
76.254997253418
20
75.0609970092773
40
0.0
41
0.0
42
0.0
10
76.4382019042969
20
75.0090026855469
40
0.0
41
0.0
42
0.0
10
76.4383010864258
20
74.9896011352539
40
0.0
41
0.0
42
0.0
10
76.2538986206055
20
74.9354019165039
40
0.0
41
0.0
42
0.0
10
75.9919967651367
20
74.7621002197266
40
0.0
41
0.0
42
0.0
10
75.923698425293
20
74.7115020751953
40
0.0
41
0.0
42
0.0
10
75.8022994995117
20
74.5139999389648
40
0.0
41
0.0
42
0.0
10
75.8022003173828
20
74.4843978881836
40
0.0
41
0.0
42
0.0
10
75.9604034423828
20
74.1297988891602
40
0.0
41
0.0
42
0.0
10
75.9987030029297
20
74.0675964355469
40
0.0
41
0.0
42
0.0
10
76.0252990722656
20
74.0027008056641
40
0.0
41
0.0
42
0.0
10
75.9961013793945
20
73.9627990722656
40
0.0
41
0.0
42
0.0
10
75.8927993774414
20
74.0005035400391
40
0.0
41
0.0
42
0.0
10
75.8665008544922
20
74.0130996704102
40
0.0
41
0.0
42
0.0
10
75.5161972045898
20
74.1405029296875
40
0.0
41
0.0
42
0.0
10
75.4908981323242
20
74.1406021118164
40
0.0
41
0.0
42
0.0
10
75.4804000854492
20
74.1253967285156
40
0.0
41
0.0
42
0.0
10
75.2760009765625
20
74.0037002563477
40
0.0
41
0.0
42
0.0
10
75.0610961914062
20
73.7449035644531
40
0.0
41
0.0
42
0.0
10
75.0090026855469
20
73.5616989135742
40
0.0
41
0.0
42
0.0
10
74.9896011352539
20
73.5615997314453
40
0.0
41
0.0
42
0.0
10
74.935302734375
20
73.7460021972656
40
0.0
41
0.0
42
0.0
10
74.7621002197266
20
74.0077972412109
40
0.0
41
0.0
42
0.0
10
74.7115020751953
20
74.0762023925781
40
0.0
41
0.0
42
0.0
10
74.5139999389648
20
74.1976013183594
40
0.0
41
0.0
42
0.0
10
74.4843978881836
20
74.1976013183594
40
0.0
41
0.0
42
0.0
10
74.1298980712891
20
74.0392990112305
40
0.0
41
0.0
42
0.0
10
74.0675964355469
20
74.0010986328125
40
0.0
41
0.0
42
0.0
10
74.0027008056641
20
73.9745025634766
40
0.0
41
0.0
42
0.0
10
73.9628982543945
20
74.0038986206055
40
0.0
41
0.0
42
0.0
10
74.0005035400391
20
74.1071014404297
40
0.0
41
0.0
42
0.0
10
74.0130996704102
20
74.13330078125
40
0.0
41
0.0
42
0.0
10
74.1405029296875
20
74.4835968017578
40
0.0
41
0.0
42
0.0
10
74.1404037475586
20
74.508903503418
40
0.0
41
0.0
42
0.0
10
74.1253967285156
20
74.5193023681641
40
0.0
41
0.0
42
0.0
10
74.0037002563477
20
74.7237014770508
40
0.0
41
0.0
42
0.0
10
73.7449035644531
20
74.9386978149414
40
0.0
41
0.0
42
0.0
10
73.5616989135742
20
74.9908981323242
40
0.0
41
0.0
42
0.0
10
73.5615997314453
20
75.0102996826172
40
0.0
41
0.0
42
0.0
210
0.0
220
0.0
230
1.0
0
LWPOLYLINE
5
32
330
1C
100
AcDbEntity
67
0
8
0
62
256
6
ByLayer
370
-1
48
1.0
60
0
100
AcDbPolyline
90
45
70
1
38
0.0
39
0.0
10
75.804801940918
20
67.9835968017578
40
0.0
41
0.0
42
0.0
10
75.9797973632812
20
67.4931030273438
40
0.0
41
0.0
42
0.0
10
76.0392990112305
20
67.4497985839844
40
0.0
41
0.0
42
0.0
10
76.4913024902344
20
67.1108016967773
40
0.0
41
0.0
42
0.0
10
76.693603515625
20
66.9988021850586
40
0.0
41
0.0
42
0.0
10
76.7238998413086
20
66.9860992431641
40
0.0
41
0.0
42
0.0
10
76.9859008789062
20
66.8870010375977
40
0.0
41
0.0
42
0.0
10
77.1788024902344
20
66.845703125
40
0.0
41
0.0
42
0.0
10
77.4815979003906
20
66.7966003417969
40
0.0
41
0.0
42
0.0
10
77.5189971923828
20
66.796501159668
40
0.0
41
0.0
42
0.0
10
77.7126007080078
20
66.8144989013672
40
0.0
41
0.0
42
0.0
10
78.0128021240234
20
66.8551025390625
40
0.0
41
0.0
42
0.0
10
78.2351989746094
20
66.9918975830078
40
0.0
41
0.0
42
0.0
10
78.4296035766602
20
67.0986022949219
40
0.0
41
0.0
42
0.0
10
78.505500793457
20
67.1516036987305
40
0.0
41
0.0
42
0.0
10
78.7055969238281
20
67.3993988037109
40
0.0
41
0.0
42
0.0
10
78.7893981933594
20
67.4925994873047
40
0.0
41
0.0
42
0.0
10
78.89990234375
20
67.6732025146484
40
0.0
41
0.0
42
0.0
10
79.0014038085938
20
67.8477020263672
40
0.0
41
0.0
42
0.0
10
79.0692977905273
20
67.9876022338867
40
0.0
41
0.0
42
0.0
10
79.1595993041992
20
68.2901992797852
40
0.0
41
0.0
42
0.0
10
79.2016983032227
20
68.4822998046875
40
0.0
41
0.0
42
0.0
10
79.2041015625
20
68.8224029541016
40
0.0
41
0.0
42
0.0
10
79.1558990478516
20
69.0105972290039
40
0.0
41
0.0
42
0.0
10
79.0047988891602
20
69.2101974487305
40
0.0
41
0.0
42
0.0
10
78.8130035400391
20
69.3336029052734
40
0.0
41
0.0
42
0.0
10
78.6794967651367
20
69.4316024780273
40
0.0
41
0.0
42
0.0
10
78.5195007324219
20
69.5001983642578
40
0.0
41
0.0
42
0.0
10
78.3180999755859
20
69.5632019042969
40
0.0
41
0.0
42
0.0
10
78.0121994018555
20
69.6759033203125
40
0.0
41
0.0
42
0.0
10
77.709098815918
20
69.8053970336914
40
0.0
41
0.0
42
0.0
10
77.5168991088867
20
69.8364028930664
40
0.0
41
0.0
42
0.0
10
77.4809036254883
20
69.8364028930664
40
0.0
41
0.0
42
0.0
10
77.293701171875
20
69.7946014404297
40
0.0
41
0.0
42
0.0
10
77.0158004760742
20
69.9085006713867
40
0.0
41
0.0
42
0.0
10
76.9884033203125
20
69.9084014892578
40
0.0
41
0.0
42
0.0
10
76.5662994384766
20
69.5054016113281
40
0.0
41
0.0
42
0.0
10
76.4969024658203
20
69.4263000488281
40
0.0
41
0.0
42
0.0
10
76.4063034057617
20
69.2815017700195
40
0.0
41
0.0
42
0.0
10
76.2263031005859
20
68.9576034545898
40
0.0
41
0.0
42
0.0
10
76.1430969238281
20
68.8145980834961
40
0.0
41
0.0
42
0.0
10
75.9981002807617
20
68.5512008666992
40
0.0
41
0.0
42
0.0
10
75.973503112793
20
68.5110015869141
40
0.0
41
0.0
42
0.0
10
75.8049011230469
20
68.0165023803711
40
0.0
41
0.0
42
0.0
10
75.804801940918
20
67.9835968017578
40
0.0
41
0.0
42
0.0
210
0.0
220
0.0
230
1.0
0
LWPOLYLINE
5
33
330
1C
100
AcDbEntity
67
0
8
0
62
256
6
ByLayer
370
-1
48
1.0
60
0
100
AcDbPolyline
90
43
70
1
38
0.0
39
0.0
10
76.0
20
68.4302978515625
40
0.0
41
0.0
42
0.0
10
76.0177993774414
20
68.4881973266602
40
0.0
41
0.0
42
0.0
10
76.1651000976562
20
68.7553024291992
40
0.0
41
0.0
42
0.0
10
76.2655029296875
20
68.9276962280273
40
0.0
41
0.0
42
0.0
10
76.4257965087891
20
69.2162017822266
40
0.0
41
0.0
42
0.0
10
76.5030975341797
20
69.3395004272461
40
0.0
41
0.0
42
0.0
10
76.6390991210938
20
69.494499206543
40
0.0
41
0.0
42
0.0
10
77.003303527832
20
69.8422012329102
40
0.0
41
0.0
42
0.0
10
77.2311019897461
20
69.7490997314453
40
0.0
41
0.0
42
0.0
10
77.2646026611328
20
69.7490997314453
40
0.0
41
0.0
42
0.0
10
77.5009002685547
20
69.8014984130859
40
0.0
41
0.0
42
0.0
10
77.7208023071289
20
69.7661972045898
40
0.0
41
0.0
42
0.0
10
77.9877014160156
20
69.6523971557617
40
0.0
41
0.0
42
0.0
10
78.2517013549805
20
69.5550994873047
40
0.0
41
0.0
42
0.0
10
78.4296035766602
20
69.4998016357422
40
0.0
41
0.0
42
0.0
10
78.4877014160156
20
69.478401184082
40
0.0
41
0.0
42
0.0
10
78.6380996704102
20
69.4140014648438
40
0.0
41
0.0
42
0.0
10
78.7567977905273
20
69.3268966674805
40
0.0
41
0.0
42
0.0
10
78.9944000244141
20
69.1737976074219
40
0.0
41
0.0
42
0.0
10
79.1340026855469
20
68.9891967773438
40
0.0
41
0.0
42
0.0
10
79.1956024169922
20
68.7488021850586
40
0.0
41
0.0
42
0.0
10
79.193603515625
20
68.5176010131836
40
0.0
41
0.0
42
0.0
10
79.1417007446289
20
68.2797012329102
40
0.0
41
0.0
42
0.0
10
79.0617980957031
20
68.0122985839844
40
0.0
41
0.0
42
0.0
10
78.9984970092773
20
67.8816986083984
40
0.0
41
0.0
42
0.0
10
78.9083023071289
20
67.7266006469727
40
0.0
41
0.0
42
0.0
10
78.774299621582
20
67.5073013305664
40
0.0
41
0.0
42
0.0
10
78.6713027954102
20
67.3927993774414
40
0.0
41
0.0
42
0.0
10
78.494499206543
20
67.1740036010742
40
0.0
41
0.0
42
0.0
10
78.4223022460938
20
67.1234970092773
40
0.0
41
0.0
42
0.0
10
78.1866989135742
20
66.9943008422852
40
0.0
41
0.0
42
0.0
10
77.9871978759766
20
66.871696472168
40
0.0
41
0.0
42
0.0
10
77.7173004150391
20
66.8349990844727
40
0.0
41
0.0
42
0.0
10
77.5046997070312
20
66.815299987793
40
0.0
41
0.0
42
0.0
10
77.2509994506836
20
66.8563995361328
40
0.0
41
0.0
42
0.0
10
77.0139999389648
20
66.9074020385742
40
0.0
41
0.0
42
0.0
10
76.7967987060547
20
66.989501953125
40
0.0
41
0.0
42
0.0
10
76.7695007324219
20
67.0009994506836
40
0.0
41
0.0
42
0.0
10
76.5084991455078
20
67.1455993652344
40
0.0
41
0.0
42
0.0
10
76.0279998779297
20
67.5070037841797
40
0.0
41
0.0
42
0.0
10
76.0000991821289
20
67.5893020629883
40
0.0
41
0.0
42
0.0
10
75.8533020019531
20
68.0001983642578
40
0.0
41
0.0
42
0.0
10
76.0
20
68.4302978515625
40
0.0
41
0.0
42
0.0
210
0.0
220
0.0
230
1.0
0
LWPOLYLINE
5
34
330
1C
100
AcDbEntity
67
0
8
0
62
256
6
ByLayer
370
-1
48
1.0
60
0
100
AcDbPolyline
90
52
70
1
38
0.0
39
0.0
10
76.2396011352539
20
81.9820022583008
40
0.0
41
0.0
42
0.0
10
76.3002014160156
20
81.6792984008789
40
0.0
41
0.0
42
0.0
10
76.3432006835938
20
81.4868011474609
40
0.0
41
0.0
42
0.0
10
76.5035018920898
20
81.1512985229492
40
0.0
41
0.0
42
0.0
10
76.5908966064453
20
80.9906997680664
40
0.0
41
0.0
42
0.0
10
76.6596984863281
20
80.8842010498047
40
0.0
41
0.0
42
0.0
10
76.7669982910156
20
80.6917037963867
40
0.0
41
0.0
42
0.0
10
76.8647994995117
20
80.4886016845703
40
0.0
41
0.0
42
0.0
10
76.9962005615234
20
80.181999206543
40
0.0
41
0.0
42
0.0
10
77.3718032836914
20
79.9953994750977
40
0.0
41
0.0
42
0.0
10
77.4080963134766
20
79.9156036376953
40
0.0
41
0.0
42
0.0
10
77.4311981201172
20
79.9154968261719
40
0.0
41
0.0
42
0.0
10
77.5141983032227
20
79.942497253418
40
0.0
41
0.0
42
0.0
10
77.7453994750977
20
80.0003967285156
40
0.0
41
0.0
42
0.0
10
77.9613037109375
20
80.0384979248047
40
0.0
41
0.0
42
0.0
10
78.0167999267578
20
80.0398025512695
40
0.0
41
0.0
42
0.0
10
78.3292007446289
20
80.1279983520508
40
0.0
41
0.0
42
0.0
10
78.5147018432617
20
80.1670989990234
40
0.0
41
0.0
42
0.0
10
78.5759963989258
20
80.1856994628906
40
0.0
41
0.0
42
0.0
10
78.6126022338867
20
80.1949996948242
40
0.0
41
0.0
42
0.0
10
78.8039016723633
20
80.2640991210938
40
0.0
41
0.0
42
0.0
10
79.0119018554688
20
80.3289031982422
40
0.0
41
0.0
42
0.0
10
79.3287963867188
20
80.4964981079102
40
0.0
41
0.0
42
0.0
10
79.502799987793
20
80.7092971801758
40
0.0
41
0.0
42
0.0
10
79.5541000366211
20
80.7929992675781
40
0.0
41
0.0
42
0.0
10
79.5981979370117
20
80.9822006225586
40
0.0
41
0.0
42
0.0
10
79.591796875
20
81.3358001708984
40
0.0
41
0.0
42
0.0
10
79.5655975341797
20
81.5149002075195
40
0.0
41
0.0
42
0.0
10
79.5002975463867
20
81.7030029296875
40
0.0
41
0.0
42
0.0
10
79.4490966796875
20
81.8261032104492
40
0.0
41
0.0
42
0.0
10
79.3936996459961
20
82.0115966796875
40
0.0
41
0.0
42
0.0
10
79.3069000244141
20
82.1616973876953
40
0.0
41
0.0
42
0.0
10
79.1190032958984
20
82.4570999145508
40
0.0
41
0.0
42
0.0
10
79.0847015380859
20
82.5071029663086
40
0.0
41
0.0
42
0.0
10
79.0046997070312
20
82.6013031005859
40
0.0
41
0.0
42
0.0
10
78.9620971679688
20
82.6411972045898
40
0.0
41
0.0
42
0.0
10
78.813102722168
20
82.7608032226562
40
0.0
41
0.0
42
0.0
10
78.5123977661133
20
82.9284973144531
40
0.0
41
0.0
42
0.0
10
78.1928024291992
20
83.0007019042969
40
0.0
41
0.0
42
0.0
10
78.0185012817383
20
83.0250015258789
40
0.0
41
0.0
42
0.0
10
77.9814987182617
20
83.02490234375
40
0.0
41
0.0
42
0.0
10
77.6750030517578
20
82.9795989990234
40
0.0
41
0.0
42
0.0
10
77.4844970703125
20
82.9645004272461
40
0.0
41
0.0
42
0.0
10
77.1838989257812
20
82.8545989990234
40
0.0
41
0.0
42
0.0
10
76.9889984130859
20
82.780403137207
40
0.0
41
0.0
42
0.0
10
76.6858978271484
20
82.6074981689453
40
0.0
41
0.0
42
0.0
10
76.5296020507812
20
82.5050964355469
40
0.0
41
0.0
42
0.0
10
76.4979019165039
20
82.4501037597656
40
0.0
41
0.0
42
0.0
10
76.465202331543
20
82.399299621582
40
0.0
41
0.0
42
0.0
10
76.4280014038086
20
82.3151016235352
40
0.0
41
0.0
42
0.0
10
76.2397003173828
20
82.0139007568359
40
0.0
41
0.0
42
0.0
10
76.2396011352539
20
81.9820022583008
40
0.0
41
0.0
42
0.0
210
0.0
220
0.0
230
1.0
0
LWPOLYLINE
5
35
330
1C
100
AcDbEntity
67
0
8
0
62
256
6
ByLayer
370
-1
48
1.0
60
0
100
AcDbPolyline
90
47
70
1
38
0.0
39
0.0
10
76.4273986816406
20
82.2547988891602
40
0.0
41
0.0
42
0.0
10
76.4726028442383
20
82.3564987182617
40
0.0
41
0.0
42
0.0
10
76.5019989013672
20
82.4023971557617
40
0.0
41
0.0
42
0.0
10
76.5551986694336
20
82.4946975708008
40
0.0
41
0.0
42
0.0
10
76.7440032958984
20
82.6183013916016
40
0.0
41
0.0
42
0.0
10
77.0110015869141
20
82.7705993652344
40
0.0
41
0.0
42
0.0
10
77.2475967407227
20
82.8608016967773
40
0.0
41
0.0
42
0.0
10
77.5154037475586
20
82.9587020874023
40
0.0
41
0.0
42
0.0
10
77.750602722168
20
82.9774017333984
40
0.0
41
0.0
42
0.0
10
78.0002975463867
20
83.0145034790039
40
0.0
41
0.0
42
0.0
10
78.0939025878906
20
83.0014038085938
40
0.0
41
0.0
42
0.0
10
78.4875030517578
20
82.9126968383789
40
0.0
41
0.0
42
0.0
10
78.7566986083984
20
82.7627029418945
40
0.0
41
0.0
42
0.0
10
78.9406967163086
20
82.6149978637695
40
0.0
41
0.0
42
0.0
10
78.9951019287109
20
82.5637969970703
40
0.0
41
0.0
42
0.0
10
79.0556030273438
20
82.4926986694336
40
0.0
41
0.0
42
0.0
10
79.0987014770508
20
82.429801940918
40
0.0
41
0.0
42
0.0
10
79.2628021240234
20
82.1717987060547
40
0.0
41
0.0
42
0.0
10
79.3690032958984
20
81.9882965087891
40
0.0
41
0.0
42
0.0
10
79.4375991821289
20
81.7591018676758
40
0.0
41
0.0
42
0.0
10
79.4994964599609
20
81.6098022460938
40
0.0
41
0.0
42
0.0
10
79.5429000854492
20
81.4849014282227
40
0.0
41
0.0
42
0.0
10
79.5604019165039
20
81.364501953125
40
0.0
41
0.0
42
0.0
10
79.5677032470703
20
81.0146026611328
40
0.0
41
0.0
42
0.0
10
79.5362014770508
20
80.8794021606445
40
0.0
41
0.0
42
0.0
10
79.4971008300781
20
80.815803527832
40
0.0
41
0.0
42
0.0
10
79.24169921875
20
80.5034027099609
40
0.0
41
0.0
42
0.0
10
78.9880981445312
20
80.3691024780273
40
0.0
41
0.0
42
0.0
10
78.8255004882812
20
80.318603515625
40
0.0
41
0.0
42
0.0
10
78.5938034057617
20
80.2348022460938
40
0.0
41
0.0
42
0.0
10
78.5609970092773
20
80.2266006469727
40
0.0
41
0.0
42
0.0
10
78.4851989746094
20
80.2033996582031
40
0.0
41
0.0
42
0.0
10
78.2580032348633
20
80.1556015014648
40
0.0
41
0.0
42
0.0
10
77.9831008911133
20
80.0779037475586
40
0.0
41
0.0
42
0.0
10
77.8672027587891
20
80.0755996704102
40
0.0
41
0.0
42
0.0
10
77.5059967041016
20
80.0114974975586
40
0.0
41
0.0
42
0.0
10
77.4837036132812
20
80.027099609375
40
0.0
41
0.0
42
0.0
10
77.0036010742188
20
80.2657012939453
40
0.0
41
0.0
42
0.0
10
76.8983993530273
20
80.5111999511719
40
0.0
41
0.0
42
0.0
10
76.8246994018555
20
80.6641998291016
40
0.0
41
0.0
42
0.0
10
76.7080993652344
20
80.8734970092773
40
0.0
41
0.0
42
0.0
10
76.6201019287109
20
81.0092010498047
40
0.0
41
0.0
42
0.0
10
76.5074996948242
20
81.2165985107422
40
0.0
41
0.0
42
0.0
10
76.3658981323242
20
81.5130004882812
40
0.0
41
0.0
42
0.0
10
76.3127975463867
20
81.750602722168
40
0.0
41
0.0
42
0.0
10
76.2640991210938
20
81.9936981201172
40
0.0
41
0.0
42
0.0
10
76.4273986816406
20
82.2547988891602
40
0.0
41
0.0
42
0.0
210
0.0
220
0.0
230
1.0
0
LWPOLYLINE
5
36
330
1C
100
AcDbEntity
67
0
8
0
62
256
6
ByLayer
370
-1
48
1.0
60
0
100
AcDbPolyline
90
27
70
1
38
0.0
39
0.0
10
78.9555969238281
20
65.0050964355469
40
0.0
41
0.0
42
0.0
10
78.9555969238281
20
65.0009994506836
40
0.0
41
0.0
42
0.0
10
79.0157012939453
20
65.0009994506836
40
0.0
41
0.0
42
0.0
10
79.2502975463867
20
65.0712966918945
40
0.0
41
0.0
42
0.0
10
79.5169982910156
20
65.1128005981445
40
0.0
41
0.0
42
0.0
10
79.7530975341797
20
65.1439971923828
40
0.0
41
0.0
42
0.0
10
80.0192031860352
20
65.1556015014648
40
0.0
41
0.0
42
0.0
10
80.2386016845703
20
65.1626968383789
40
0.0
41
0.0
42
0.0
10
80.4809036254883
20
65.1574020385742
40
0.0
41
0.0
42
0.0
10
80.7166976928711
20
65.1418991088867
40
0.0
41
0.0
42
0.0
10
80.9834976196289
20
65.1147003173828
40
0.0
41
0.0
42
0.0
10
81.1676025390625
20
65.0693969726562
40
0.0
41
0.0
42
0.0
10
81.4002990722656
20
65.0009994506836
40
0.0
41
0.0
42
0.0
10
81.4207992553711
20
65.0009994506836
40
0.0
41
0.0
42
0.0
10
81.4207000732422
20
65.0042037963867
40
0.0
41
0.0
42
0.0
10
81.1657028198242
20
65.0792007446289
40
0.0
41
0.0
42
0.0
10
81.0162963867188
20
65.116096496582
40
0.0
41
0.0
42
0.0
10
80.7132034301758
20
65.1470031738281
40
0.0
41
0.0
42
0.0
10
80.5189971923828
20
65.159797668457
40
0.0
41
0.0
42
0.0
10
80.2146987915039
20
65.1663970947266
40
0.0
41
0.0
42
0.0
10
80.1753005981445
20
65.1662979125977
40
0.0
41
0.0
42
0.0
10
79.9806976318359
20
65.1601028442383
40
0.0
41
0.0
42
0.0
10
79.6768035888672
20
65.1467971801758
40
0.0
41
0.0
42
0.0
10
79.4829025268555
20
65.1212005615234
40
0.0
41
0.0
42
0.0
10
79.1796035766602
20
65.0740966796875
40
0.0
41
0.0
42
0.0
10
78.9865036010742
20
65.0160980224609
40
0.0
41
0.0
42
0.0
10
78.9555969238281
20
65.0050964355469
40
0.0
41
0.0
42
0.0
210
0.0
220
0.0
230
1.0
0
LWPOLYLINE
5
37
330
1C
100
AcDbEntity
67
0
8
0
62
256
6
ByLayer
370
-1
48
1.0
60
0
100
AcDbPolyline
90
36
70
1
38
0.0
39
0.0
10
79.184700012207
20
84.9261016845703
40
0.0
41
0.0
42
0.0
10
79.4880981445312
20
84.7511978149414
40
0.0
41
0.0
42
0.0
10
79.6809997558594
20
84.6983032226562
40
0.0
41
0.0
42
0.0
10
79.9847030639648
20
84.5994033813477
40
0.0
41
0.0
42
0.0
10
80.1783981323242
20
84.5717010498047
40
0.0
41
0.0
42
0.0
10
80.4829025268555
20
84.5131988525391
40
0.0
41
0.0
42
0.0
10
80.9809036254883
20
84.4676971435547
40
0.0
41
0.0
42
0.0
10
81.355598449707
20
84.4671020507812
40
0.0
41
0.0
42
0.0
10
81.5186996459961
20
84.4643020629883
40
0.0
41
0.0
42
0.0
10
81.7923965454102
20
84.5007019042969
40
0.0
41
0.0
42
0.0
10
81.9395980834961
20
84.5279006958008
40
0.0
41
0.0
42
0.0
10
82.008903503418
20
84.5627975463867
40
0.0
41
0.0
42
0.0
10
82.1501998901367
20
84.6672973632812
40
0.0
41
0.0
42
0.0
10
82.1631011962891
20
84.6849975585938
40
0.0
41
0.0
42
0.0
10
82.2757034301758
20
84.9838027954102
40
0.0
41
0.0
42
0.0
10
82.2757034301758
20
84.9990005493164
40
0.0
41
0.0
42
0.0
10
82.2405014038086
20
84.9990005493164
40
0.0
41
0.0
42
0.0
10
82.1446990966797
20
84.7449035644531
40
0.0
41
0.0
42
0.0
10
82.1212005615234
20
84.7126998901367
40
0.0
41
0.0
42
0.0
10
81.9909973144531
20
84.6164016723633
40
0.0
41
0.0
42
0.0
10
81.8572006225586
20
84.5490036010742
40
0.0
41
0.0
42
0.0
10
81.5883026123047
20
84.4990997314453
40
0.0
41
0.0
42
0.0
10
81.4871978759766
20
84.4857025146484
40
0.0
41
0.0
42
0.0
10
81.0189971923828
20
84.486701965332
40
0.0
41
0.0
42
0.0
10
80.5169982910156
20
84.5330963134766
40
0.0
41
0.0
42
0.0
10
80.2515029907227
20
84.584098815918
40
0.0
41
0.0
42
0.0
10
80.0151977539062
20
84.6179962158203
40
0.0
41
0.0
42
0.0
10
79.7489013671875
20
84.7046966552734
40
0.0
41
0.0
42
0.0
10
79.5118026733398
20
84.7697982788086
40
0.0
41
0.0
42
0.0
10
79.2451019287109
20
84.9235000610352
40
0.0
41
0.0
42
0.0
10
79.1324005126953
20
84.9772033691406
40
0.0
41
0.0
42
0.0
10
79.0963973999023
20
84.9990005493164
40
0.0
41
0.0
42
0.0
10
79.056396484375
20
84.9990005493164
40
0.0
41
0.0
42
0.0
10
79.0562973022461
20
84.9917984008789
40
0.0
41
0.0
42
0.0
10
79.0914001464844
20
84.9705963134766
40
0.0
41
0.0
42
0.0
10
79.184700012207
20
84.9261016845703
40
0.0
41
0.0
42
0.0
210
0.0
220
0.0
230
1.0
0
LWPOLYLINE
5
38
330
1C
100
AcDbEntity
67
0
8
0
62
256
6
ByLayer
370
-1
48
1.0
60
0
100
AcDbPolyline
90
52
70
1
38
0.0
39
0.0
10
79.942497253418
20
72.4858016967773
40
0.0
41
0.0
42
0.0
10
80.0003967285156
20
72.2544021606445
40
0.0
41
0.0
42
0.0
10
80.0384979248047
20
72.0384979248047
40
0.0
41
0.0
42
0.0
10
80.0398025512695
20
71.9831008911133
40
0.0
41
0.0
42
0.0
10
80.1279983520508
20
71.6706008911133
40
0.0
41
0.0
42
0.0
10
80.1670989990234
20
71.4850997924805
40
0.0
41
0.0
42
0.0
10
80.1854019165039
20
71.4246978759766
40
0.0
41
0.0
42
0.0
10
80.2544021606445
20
71.2315979003906
40
0.0
41
0.0
42
0.0
10
80.2643966674805
20
71.1950988769531
40
0.0
41
0.0
42
0.0
10
80.3289031982422
20
70.9879989624023
40
0.0
41
0.0
42
0.0
10
80.4963989257812
20
70.6709976196289
40
0.0
41
0.0
42
0.0
10
80.7092971801758
20
70.4970016479492
40
0.0
41
0.0
42
0.0
10
80.7929992675781
20
70.4456024169922
40
0.0
41
0.0
42
0.0
10
80.9822006225586
20
70.401496887207
40
0.0
41
0.0
42
0.0
10
81.3358001708984
20
70.4078979492188
40
0.0
41
0.0
42
0.0
10
81.5149002075195
20
70.4340972900391
40
0.0
41
0.0
42
0.0
10
81.7030029296875
20
70.4994964599609
40
0.0
41
0.0
42
0.0
10
81.8261032104492
20
70.5506973266602
40
0.0
41
0.0
42
0.0
10
82.0115966796875
20
70.6060028076172
40
0.0
41
0.0
42
0.0
10
82.1616973876953
20
70.6928024291992
40
0.0
41
0.0
42
0.0
10
82.3014984130859
20
70.7843017578125
40
0.0
41
0.0
42
0.0
10
82.5074996948242
20
70.9152984619141
40
0.0
41
0.0
42
0.0
10
82.6008987426758
20
70.9947967529297
40
0.0
41
0.0
42
0.0
10
82.7609024047852
20
71.186897277832
40
0.0
41
0.0
42
0.0
10
82.9284973144531
20
71.4875030517578
40
0.0
41
0.0
42
0.0
10
83.0007019042969
20
71.806999206543
40
0.0
41
0.0
42
0.0
10
83.0250015258789
20
71.9813995361328
40
0.0
41
0.0
42
0.0
10
83.02490234375
20
72.0184020996094
40
0.0
41
0.0
42
0.0
10
82.9795989990234
20
72.3247985839844
40
0.0
41
0.0
42
0.0
10
82.9644012451172
20
72.5154037475586
40
0.0
41
0.0
42
0.0
10
82.8539962768555
20
72.8175964355469
40
0.0
41
0.0
42
0.0
10
82.7802963256836
20
73.0109024047852
40
0.0
41
0.0
42
0.0
10
82.6074981689453
20
73.3139038085938
40
0.0
41
0.0
42
0.0
10
82.5050964355469
20
73.4701995849609
40
0.0
41
0.0
42
0.0
10
82.4499969482422
20
73.5019989013672
40
0.0
41
0.0
42
0.0
10
82.399299621582
20
73.5345001220703
40
0.0
41
0.0
42
0.0
10
82.3150024414062
20
73.5718002319336
40
0.0
41
0.0
42
0.0
10
82.0139007568359
20
73.7602005004883
40
0.0
41
0.0
42
0.0
10
81.9820022583008
20
73.7601013183594
40
0.0
41
0.0
42
0.0
10
81.6792984008789
20
73.6995010375977
40
0.0
41
0.0
42
0.0
10
81.4869003295898
20
73.6566009521484
40
0.0
41
0.0
42
0.0
10
81.1512985229492
20
73.4962005615234
40
0.0
41
0.0
42
0.0
10
80.9896011352539
20
73.4083023071289
40
0.0
41
0.0
42
0.0
10
80.9514999389648
20
73.3896026611328
40
0.0
41
0.0
42
0.0
10
80.8231964111328
20
73.3065032958984
40
0.0
41
0.0
42
0.0
10
80.5569000244141
20
73.1781005859375
40
0.0
41
0.0
42
0.0
10
80.4897994995117
20
73.1353988647461
40
0.0
41
0.0
42
0.0
10
80.181999206543
20
73.0037002563477
40
0.0
41
0.0
42
0.0
10
79.9954986572266
20
72.6278991699219
40
0.0
41
0.0
42
0.0
10
79.9156036376953
20
72.5916976928711
40
0.0
41
0.0
42
0.0
10
79.9154968261719
20
72.568603515625
40
0.0
41
0.0
42
0.0
10
79.942497253418
20
72.4858016967773
40
0.0
41
0.0
42
0.0
210
0.0
220
0.0
230
1.0
0
LWPOLYLINE
5
39
330
1C
100
AcDbEntity
67
0
8
0
62
256
6
ByLayer
370
-1
48
1.0
60
0
100
AcDbPolyline
90
45
70
1
38
0.0
39
0.0
10
80.0830001831055
20
77.0065994262695
40
0.0
41
0.0
42
0.0
10
80.0886001586914
20
76.9912033081055
40
0.0
41
0.0
42
0.0
10
80.4944000244141
20
76.5662002563477
40
0.0
41
0.0
42
0.0
10
80.5735015869141
20
76.4968032836914
40
0.0
41
0.0
42
0.0
10
80.7182998657227
20
76.4063034057617
40
0.0
41
0.0
42
0.0
10
80.9901962280273
20
76.255500793457
40
0.0
41
0.0
42
0.0
10
81.448600769043
20
75.9980010986328
40
0.0
41
0.0
42
0.0
10
81.488899230957
20
75.973503112793
40
0.0
41
0.0
42
0.0
10
81.9833984375
20
75.8049011230469
40
0.0
41
0.0
42
0.0
10
82.0162963867188
20
75.804801940918
40
0.0
41
0.0
42
0.0
10
82.5074005126953
20
75.9801025390625
40
0.0
41
0.0
42
0.0
10
82.6783981323242
20
76.1875991821289
40
0.0
41
0.0
42
0.0
10
82.8887023925781
20
76.4909973144531
40
0.0
41
0.0
42
0.0
10
83.0009994506836
20
76.693603515625
40
0.0
41
0.0
42
0.0
10
83.0136032104492
20
76.7238998413086
40
0.0
41
0.0
42
0.0
10
83.1127014160156
20
76.9859008789062
40
0.0
41
0.0
42
0.0
10
83.1540985107422
20
77.1788024902344
40
0.0
41
0.0
42
0.0
10
83.2033004760742
20
77.4815979003906
40
0.0
41
0.0
42
0.0
10
83.2031021118164
20
77.5185012817383
40
0.0
41
0.0
42
0.0
10
83.1619033813477
20
77.8226013183594
40
0.0
41
0.0
42
0.0
10
83.144401550293
20
78.0130996704102
40
0.0
41
0.0
42
0.0
10
83.0077972412109
20
78.2350997924805
40
0.0
41
0.0
42
0.0
10
82.9011001586914
20
78.4296035766602
40
0.0
41
0.0
42
0.0
10
82.8480987548828
20
78.5054016113281
40
0.0
41
0.0
42
0.0
10
82.6003036499023
20
78.7055969238281
40
0.0
41
0.0
42
0.0
10
82.5073013305664
20
78.7893981933594
40
0.0
41
0.0
42
0.0
10
82.3265991210938
20
78.89990234375
40
0.0
41
0.0
42
0.0
10
82.152099609375
20
79.0014038085938
40
0.0
41
0.0
42
0.0
10
82.0122985839844
20
79.0692977905273
40
0.0
41
0.0
42
0.0
10
81.7097015380859
20
79.1595993041992
40
0.0
41
0.0
42
0.0
10
81.5176010131836
20
79.2016983032227
40
0.0
41
0.0
42
0.0
10
81.1774978637695
20
79.2041015625
40
0.0
41
0.0
42
0.0
10
80.9893035888672
20
79.1559982299805
40
0.0
41
0.0
42
0.0
10
80.7895965576172
20
79.0048980712891
40
0.0
41
0.0
42
0.0
10
80.6661987304688
20
78.8130035400391
40
0.0
41
0.0
42
0.0
10
80.5681991577148
20
78.6794967651367
40
0.0
41
0.0
42
0.0
10
80.4996032714844
20
78.5195999145508
40
0.0
41
0.0
42
0.0
10
80.4365005493164
20
78.3181991577148
40
0.0
41
0.0
42
0.0
10
80.3246002197266
20
78.0146026611328
40
0.0
41
0.0
42
0.0
10
80.2932968139648
20
77.8190994262695
40
0.0
41
0.0
42
0.0
10
80.1639022827148
20
77.5157012939453
40
0.0
41
0.0
42
0.0
10
80.1638031005859
20
77.4822998046875
40
0.0
41
0.0
42
0.0
10
80.1915969848633
20
77.3625030517578
40
0.0
41
0.0
42
0.0
10
80.0831985473633
20
77.0395965576172
40
0.0
41
0.0
42
0.0
10
80.0830001831055
20
77.0065994262695
40
0.0
41
0.0
42
0.0
210
0.0
220
0.0
230
1.0
0
LWPOLYLINE
5
3A
330
1C
100
AcDbEntity
67
0
8
0
62
256
6
ByLayer
370
-1
48
1.0
60
0
100
AcDbPolyline
90
47
70
1
38
0.0
39
0.0
10
80.3108978271484
20
71.2024993896484
40
0.0
41
0.0
42
0.0
10
80.2268981933594
20
71.4377975463867
40
0.0
41
0.0
42
0.0
10
80.2033996582031
20
71.5147018432617
40
0.0
41
0.0
42
0.0
10
80.1555023193359
20
71.7417984008789
40
0.0
41
0.0
42
0.0
10
80.0779037475586
20
72.0167999267578
40
0.0
41
0.0
42
0.0
10
80.0755996704102
20
72.1325988769531
40
0.0
41
0.0
42
0.0
10
80.0115966796875
20
72.4936981201172
40
0.0
41
0.0
42
0.0
10
80.0271987915039
20
72.5160980224609
40
0.0
41
0.0
42
0.0
10
80.2658004760742
20
72.9962005615234
40
0.0
41
0.0
42
0.0
10
80.5101013183594
20
73.1007995605469
40
0.0
41
0.0
42
0.0
10
80.5901031494141
20
73.1517028808594
40
0.0
41
0.0
42
0.0
10
80.8212966918945
20
73.263298034668
40
0.0
41
0.0
42
0.0
10
80.9757995605469
20
73.3632965087891
40
0.0
41
0.0
42
0.0
10
81.0102996826172
20
73.3802032470703
40
0.0
41
0.0
42
0.0
10
81.2165985107422
20
73.4922027587891
40
0.0
41
0.0
42
0.0
10
81.5130996704102
20
73.6337966918945
40
0.0
41
0.0
42
0.0
10
81.750602722168
20
73.686897277832
40
0.0
41
0.0
42
0.0
10
81.9936981201172
20
73.7357025146484
40
0.0
41
0.0
42
0.0
10
82.2547988891602
20
73.5724029541016
40
0.0
41
0.0
42
0.0
10
82.3564987182617
20
73.527099609375
40
0.0
41
0.0
42
0.0
10
82.4022979736328
20
73.4979019165039
40
0.0
41
0.0
42
0.0
10
82.4946975708008
20
73.4447021484375
40
0.0
41
0.0
42
0.0
10
82.6182022094727
20
73.2558975219727
40
0.0
41
0.0
42
0.0
10
82.7705001831055
20
72.988899230957
40
0.0
41
0.0
42
0.0
10
82.8608016967773
20
72.7522964477539
40
0.0
41
0.0
42
0.0
10
82.9587020874023
20
72.4844970703125
40
0.0
41
0.0
42
0.0
10
82.9773025512695
20
72.2491989135742
40
0.0
41
0.0
42
0.0
10
83.0145034790039
20
71.9997024536133
40
0.0
41
0.0
42
0.0
10
83.0015029907227
20
71.9058990478516
40
0.0
41
0.0
42
0.0
10
82.9128036499023
20
71.5123977661133
40
0.0
41
0.0
42
0.0
10
82.7626037597656
20
71.2429962158203
40
0.0
41
0.0
42
0.0
10
82.5643005371094
20
71.0050964355469
40
0.0
41
0.0
42
0.0
10
82.4925003051758
20
70.9439010620117
40
0.0
41
0.0
42
0.0
10
82.3413009643555
20
70.8478012084961
40
0.0
41
0.0
42
0.0
10
82.1719970703125
20
70.7370986938477
40
0.0
41
0.0
42
0.0
10
81.9884033203125
20
70.6306991577148
40
0.0
41
0.0
42
0.0
10
81.7591018676758
20
70.5621032714844
40
0.0
41
0.0
42
0.0
10
81.6098022460938
20
70.5002975463867
40
0.0
41
0.0
42
0.0
10
81.4850006103516
20
70.4568023681641
40
0.0
41
0.0
42
0.0
10
81.364501953125
20
70.4393005371094
40
0.0
41
0.0
42
0.0
10
81.0145034790039
20
70.431999206543
40
0.0
41
0.0
42
0.0
10
80.8793029785156
20
70.4635009765625
40
0.0
41
0.0
42
0.0
10
80.8164978027344
20
70.502197265625
40
0.0
41
0.0
42
0.0
10
80.503303527832
20
70.7580032348633
40
0.0
41
0.0
42
0.0
10
80.3691024780273
20
71.0118026733398
40
0.0
41
0.0
42
0.0
10
80.3182983398438
20
71.1751022338867
40
0.0
41
0.0
42
0.0
10
80.3108978271484
20
71.2024993896484
40
0.0
41
0.0
42
0.0
210
0.0
220
0.0
230
1.0
0
LWPOLYLINE
5
3B
330
1C
100
AcDbEntity
67
0
8
0
62
256
6
ByLayer
370
-1
48
1.0
60
0
100
AcDbPolyline
90
43
70
1
38
0.0
39
0.0
10
80.2341995239258
20
77.3486022949219
40
0.0
41
0.0
42
0.0
10
80.2001037597656
20
77.4960021972656
40
0.0
41
0.0
42
0.0
10
80.3087997436523
20
77.7508010864258
40
0.0
41
0.0
42
0.0
10
80.3463973999023
20
77.9852981567383
40
0.0
41
0.0
42
0.0
10
80.4446029663086
20
78.2517013549805
40
0.0
41
0.0
42
0.0
10
80.5
20
78.4296035766602
40
0.0
41
0.0
42
0.0
10
80.5213012695312
20
78.4877014160156
40
0.0
41
0.0
42
0.0
10
80.5858001708984
20
78.6381988525391
40
0.0
41
0.0
42
0.0
10
80.6727981567383
20
78.7568969726562
40
0.0
41
0.0
42
0.0
10
80.8258972167969
20
78.9944000244141
40
0.0
41
0.0
42
0.0
10
81.0106964111328
20
79.1340026855469
40
0.0
41
0.0
42
0.0
10
81.2510986328125
20
79.1956024169922
40
0.0
41
0.0
42
0.0
10
81.4822998046875
20
79.193603515625
40
0.0
41
0.0
42
0.0
10
81.7201995849609
20
79.1417007446289
40
0.0
41
0.0
42
0.0
10
81.9875030517578
20
79.0617980957031
40
0.0
41
0.0
42
0.0
10
82.1181030273438
20
78.9983978271484
40
0.0
41
0.0
42
0.0
10
82.2732009887695
20
78.9083023071289
40
0.0
41
0.0
42
0.0
10
82.4925003051758
20
78.7742004394531
40
0.0
41
0.0
42
0.0
10
82.6070022583008
20
78.6712036132812
40
0.0
41
0.0
42
0.0
10
82.8256988525391
20
78.4944000244141
40
0.0
41
0.0
42
0.0
10
82.8761978149414
20
78.4222030639648
40
0.0
41
0.0
42
0.0
10
83.0054016113281
20
78.1865997314453
40
0.0
41
0.0
42
0.0
10
83.1284027099609
20
77.9868011474609
40
0.0
41
0.0
42
0.0
10
83.1504974365234
20
77.7472991943359
40
0.0
41
0.0
42
0.0
10
83.1838989257812
20
77.5015029907227
40
0.0
41
0.0
42
0.0
10
83.1433029174805
20
77.2510986328125
40
0.0
41
0.0
42
0.0
10
83.0923004150391
20
77.0139999389648
40
0.0
41
0.0
42
0.0
10
82.9990005493164
20
76.7698974609375
40
0.0
41
0.0
42
0.0
10
82.8543014526367
20
76.508903503418
40
0.0
41
0.0
42
0.0
10
82.6695022583008
20
76.242301940918
40
0.0
41
0.0
42
0.0
10
82.492301940918
20
76.0279006958008
40
0.0
41
0.0
42
0.0
10
82.4104995727539
20
76.0000991821289
40
0.0
41
0.0
42
0.0
10
81.9997024536133
20
75.8533020019531
40
0.0
41
0.0
42
0.0
10
81.5695037841797
20
75.9999008178711
40
0.0
41
0.0
42
0.0
10
81.5115966796875
20
76.0177993774414
40
0.0
41
0.0
42
0.0
10
81.0096969604492
20
76.3005981445312
40
0.0
41
0.0
42
0.0
10
80.7835998535156
20
76.4257965087891
40
0.0
41
0.0
42
0.0
10
80.6602020263672
20
76.5029983520508
40
0.0
41
0.0
42
0.0
10
80.5053024291992
20
76.6389999389648
40
0.0
41
0.0
42
0.0
10
80.1522979736328
20
77.0086975097656
40
0.0
41
0.0
42
0.0
10
80.1416015625
20
77.0390014648438
40
0.0
41
0.0
42
0.0
10
80.2342987060547
20
77.3144989013672
40
0.0
41
0.0
42
0.0
10
80.2341995239258
20
77.3486022949219
40
0.0
41
0.0
42
0.0
210
0.0
220
0.0
230
1.0
0
LWPOLYLINE
5
3C
330
1C
100
AcDbEntity
67
0
8
0
62
256
6
ByLayer
370
-1
48
1.0
60
0
100
AcDbPolyline
90
36
70
1
38
0.0
39
0.0
10
84.500602722168
20
68.2073974609375
40
0.0
41
0.0
42
0.0
10
84.5279006958008
20
68.0602035522461
40
0.0
41
0.0
42
0.0
10
84.5627975463867
20
67.9908981323242
40
0.0
41
0.0
42
0.0
10
84.6672973632812
20
67.8496017456055
40
0.0
41
0.0
42
0.0
10
84.6849975585938
20
67.8367004394531
40
0.0
41
0.0
42
0.0
10
84.9838027954102
20
67.7241973876953
40
0.0
41
0.0
42
0.0
10
84.9990005493164
20
67.7241973876953
40
0.0
41
0.0
42
0.0
10
84.9989013671875
20
67.7593002319336
40
0.0
41
0.0
42
0.0
10
84.7449035644531
20
67.8551025390625
40
0.0
41
0.0
42
0.0
10
84.7126998901367
20
67.8786010742188
40
0.0
41
0.0
42
0.0
10
84.6163024902344
20
68.008903503418
40
0.0
41
0.0
42
0.0
10
84.5490036010742
20
68.1426010131836
40
0.0
41
0.0
42
0.0
10
84.4990997314453
20
68.4114990234375
40
0.0
41
0.0
42
0.0
10
84.4857025146484
20
68.5127029418945
40
0.0
41
0.0
42
0.0
10
84.486701965332
20
68.9809036254883
40
0.0
41
0.0
42
0.0
10
84.5330963134766
20
69.4829025268555
40
0.0
41
0.0
42
0.0
10
84.584098815918
20
69.7483978271484
40
0.0
41
0.0
42
0.0
10
84.6179962158203
20
69.9847030639648
40
0.0
41
0.0
42
0.0
10
84.7046966552734
20
70.2509994506836
40
0.0
41
0.0
42
0.0
10
84.7697982788086
20
70.4880981445312
40
0.0
41
0.0
42
0.0
10
84.9235000610352
20
70.7546997070312
40
0.0
41
0.0
42
0.0
10
84.9772033691406
20
70.8674011230469
40
0.0
41
0.0
42
0.0
10
84.9990005493164
20
70.9033966064453
40
0.0
41
0.0
42
0.0
10
84.9990005493164
20
70.9434967041016
40
0.0
41
0.0
42
0.0
10
84.9917984008789
20
70.9434967041016
40
0.0
41
0.0
42
0.0
10
84.9705963134766
20
70.9084014892578
40
0.0
41
0.0
42
0.0
10
84.9262008666992
20
70.8152008056641
40
0.0
41
0.0
42
0.0
10
84.7512969970703
20
70.5118026733398
40
0.0
41
0.0
42
0.0
10
84.6983032226562
20
70.3189010620117
40
0.0
41
0.0
42
0.0
10
84.5994033813477
20
70.0151977539062
40
0.0
41
0.0
42
0.0
10
84.5718002319336
20
69.8215026855469
40
0.0
41
0.0
42
0.0
10
84.5131988525391
20
69.5169982910156
40
0.0
41
0.0
42
0.0
10
84.4676971435547
20
69.0189971923828
40
0.0
41
0.0
42
0.0
10
84.4671020507812
20
68.6442031860352
40
0.0
41
0.0
42
0.0
10
84.4642028808594
20
68.481201171875
40
0.0
41
0.0
42
0.0
10
84.500602722168
20
68.2073974609375
40
0.0
41
0.0
42
0.0
210
0.0
220
0.0
230
1.0
0
LWPOLYLINE
5
3D
330
1C
100
AcDbEntity
67
0
8
0
62
256
6
ByLayer
370
-1
48
1.0
60
0
100
AcDbPolyline
90
27
70
1
38
0.0
39
0.0
10
84.839599609375
20
79.9813003540039
40
0.0
41
0.0
42
0.0
10
84.8653030395508
20
79.7867965698242
40
0.0
41
0.0
42
0.0
10
84.8787002563477
20
79.4820022583008
40
0.0
41
0.0
42
0.0
10
84.9256973266602
20
79.1796035766602
40
0.0
41
0.0
42
0.0
10
84.9835968017578
20
78.9865036010742
40
0.0
41
0.0
42
0.0
10
84.9947967529297
20
78.9555969238281
40
0.0
41
0.0
42
0.0
10
84.9990005493164
20
78.9555969238281
40
0.0
41
0.0
42
0.0
10
84.9988021850586
20
79.0156021118164
40
0.0
41
0.0
42
0.0
10
84.9283981323242
20
79.2502975463867
40
0.0
41
0.0
42
0.0
10
84.8868026733398
20
79.5178985595703
40
0.0
41
0.0
42
0.0
10
84.875
20
79.7830963134766
40
0.0
41
0.0
42
0.0
10
84.8447036743164
20
80.0130996704102
40
0.0
41
0.0
42
0.0
10
84.8498001098633
20
80.284797668457
40
0.0
41
0.0
42
0.0
10
84.8432006835938
20
80.4903030395508
40
0.0
41
0.0
42
0.0
10
84.8693008422852
20
80.746696472168
40
0.0
41
0.0
42
0.0
10
84.8849029541016
20
80.9832000732422
40
0.0
41
0.0
42
0.0
10
84.9302978515625
20
81.1676025390625
40
0.0
41
0.0
42
0.0
10
84.9990005493164
20
81.4002990722656
40
0.0
41
0.0
42
0.0
10
84.9990005493164
20
81.4207992553711
40
0.0
41
0.0
42
0.0
10
84.9955978393555
20
81.4207992553711
40
0.0
41
0.0
42
0.0
10
84.9205017089844
20
81.1657028198242
40
0.0
41
0.0
42
0.0
10
84.8836975097656
20
81.0167007446289
40
0.0
41
0.0
42
0.0
10
84.8710021972656
20
80.8231964111328
40
0.0
41
0.0
42
0.0
10
84.8401031494141
20
80.5188980102539
40
0.0
41
0.0
42
0.0
10
84.8399963378906
20
80.4803009033203
40
0.0
41
0.0
42
0.0
10
84.845703125
20
80.3013000488281
40
0.0
41
0.0
42
0.0
10
84.839599609375
20
79.9813003540039
40
0.0
41
0.0
42
0.0
210
0.0
220
0.0
230
1.0
0
VIEWPORT
5
42
330
3E
100
AcDbEntity
67
1
8
0
62
256
6
ByLayer
370
-1
48
1.0
60
0
100
AcDbViewport
10
0.0
20
0.0
30
0.0
40
297.0
41
210.0
68
1
69
1
12
50.0
22
100.0
13
0.0
23
0.0
14
10.0
24
10.0
15
10.0
25
10.0
16
0.0
26
0.0
36
1.0
17
0.0
27
0.0
37
0.0
42
50.0
43
0.0
44
0.0
45
250.0
50
0.0
51
0.0
72
1000
90
819232
110
0.0
120
0.0
130
0.0
111
1.0
121
0.0
131
0.0
112
0.0
122
1.0
132
0.0
0
ENDSEC
0
SECTION
2
OBJECTS
0
DICTIONARY
5
48
330
0
100
AcDbDictionary
280
1
281
1
3
ACAD_GROUP
350
12
3
ACAD_LAYOUT
350
41
3
ACAD_DGNDEFINITIONS
350
F
3
ACAD_DWFDEFINITIONS
350
10
3
ACAD_PDFDEFINITIONS
350
11
3
ACAD_MLINESTYLE
350
B
3
ACAD_IMAGE_DICT
350
E
3
ACAD_IMAGE_VARS
350
21
0
DICTIONARY
5
12
330
48
100
AcDbDictionary
280
1
281
1
0
DICTIONARY
5
41
330
48
100
AcDbDictionary
280
1
281
1
3
Model
350
20
3
Layout1
350
43
0
DICTIONARY
5
F
330
48
100
AcDbDictionary
280
1
281
1
0
DICTIONARY
5
10
330
48
100
AcDbDictionary
280
1
281
1
0
DICTIONARY
5
11
330
48
100
AcDbDictionary
280
1
281
1
0
DICTIONARY
5
B
330
48
100
AcDbDictionary
280
1
281
1
3
Standard
350
1B
0
DICTIONARY
5
E
330
48
100
AcDbDictionary
280
1
281
1
0
DICTIONARY
5
6
330
5
100
AcDbDictionary
280
1
281
1
3
ACAD_LAYERSTATES
360
49
0
DICTIONARY
5
49
330
6
100
AcDbDictionary
280
1
281
1
0
LAYOUT
5
20
330
41
100
AcDbPlotSettings
1

2
none_device
4
ISO_A4_(210.00_x_297.00_MM)
6

40
7.5
41
20.0
42
7.5
43
20.0
44
210.0
45
297.0
46
0.0
47
0.0
48
0.0
49
0.0
140
0.0
141
0.0
142
1.0
143
1.0
70
11952
72
1
73
1
74
1
7

75
0
76
0
77
2
78
300
147
1.0
148
0.0
149
0.0
100
AcDbLayout
1
Model
71
0
10
-20.0
20
-7.5
11
277.0
21
202.5
12
0.0
22
0.0
32
0.0
14
25.7
24
19.5
34
0.0
15
231.3
25
175.5
35
0.0
146
0.0
13
0.0
23
0.0
33
0.0
16
1.0
26
0.0
36
0.0
17
0.0
27
1.0
37
0.0
76
0
330
1C
0
LAYOUT
5
43
330
41
100
AcDbPlotSettings
1

2
none_device
4
ISO_A4_(210.00_x_297.00_MM)
6

40
7.5
41
20.0
42
7.5
43
20.0
44
210.0
45
297.0
46
0.0
47
0.0
48
0.0
49
0.0
140
0.0
141
0.0
142
1.0
143
1.0
70
688
72
1
73
1
74
1
7

75
0
76
0
77
2
78
300
147
1.0
148
0.0
149
0.0
100
AcDbLayout
1
Layout1
71
1
10
-20.0
20
-7.5
11
277.0
21
202.5
12
0.0
22
0.0
32
0.0
14
25.7
24
19.5
34
0.0
15
231.3
25
175.5
35
0.0
146
0.0
13
0.0
23
0.0
33
0.0
16
1.0
26
0.0
36
0.0
17
0.0
27
1.0
37
0.0
76
0
330
3E
0
MLINESTYLE
5
1B
330
B
100
AcDbMlineStyle
2
Standard
70
0
3

62
256
51
90.0
52
90.0
71
2
49
0.5
62
256
6
ByLayer
49
-0.5
62
256
6
ByLayer
0
RASTERVARIABLES
5
21
330
E
100
AcDbRasterVariables
90
0
70
1
71
1
72
0
0
ENDSEC
0
EOF
