999
DXF file generated by netDxf https://github.com/haplokuon/netDxf, Copyright(C) Daniel Carvajal, Licensed under MIT
0
SECTION
2
HEADER
9
$ACADVER
1
AC1015
9
$DWGCODEPAGE
3
ANSI_1252
9
$HANDSEED
5
40
9
$ANGBASE
50
0.0
9
$ANGDIR
70
0
9
$ATTMODE
70
1
9
$AUNITS
70
0
9
$AUPREC
70
0
9
$CECOLOR
62
256
9
$CELTSCALE
40
1.0
9
$CELTYPE
6
ByLayer
9
$CELWEIGHT
370
-1
9
$CLAYER
8
0
9
$CMLJUST
70
0
9
$CMLSCALE
40
20.0
9
$CMLSTYLE
2
Standard
9
$DIMSTYLE
2
Standard
9
$TEXTSIZE
40
2.5
9
$TEXTSTYLE
7
Standard
9
$LUNITS
70
2
9
$LUPREC
70
4
9
$MIRRTEXT
70
0
9
$EXTNAMES
290
1
9
$INSBASE
10
0.0
20
0.0
30
0.0
9
$INSUNITS
70
0
9
$LTSCALE
40
1.0
9
$LWDISPLAY
290
0
9
$PDMODE
70
0
9
$PDSIZE
40
0.0
9
$PLINEGEN
70
0
9
$PSLTSCALE
70
1
9
$SPLINESEGS
70
8
9
$SURFU
70
6
9
$SURFV
70
6
9
$TDCREATE
40
2460823.48372582
9
$TDUCREATE
40
2460823.15039249
9
$TDUPDATE
40
2460823.48372582
9
$TDUUPDATE
40
2460823.15039249
9
$TDINDWG
40
0.0
9
$UCSORG
10
0.0
20
0.0
30
0.0
9
$UCSXDIR
10
1.0
20
0.0
30
0.0
9
$UCSYDIR
10
0.0
20
1.0
30
0.0
9
$DIMADEC
70
0
9
$DIMALT
70
0
9
$DIMALTD
70
2
9
$DIMALTF
40
25.4
9
$DIMALTRND
40
0.0
9
$DIMALTTD
70
2
9
$DIMALTTZ
70
0
9
$DIMALTU
70
2
9
$DIMALTZ
70
0
9
$DIMAPOST
1

9
$DIMATFIT
70
3
9
$DIMAUNIT
70
0
9
$DIMASZ
40
0.18
9
$DIMAZIN
70
0
9
$DIMSAH
70
0
9
$DIMBLK
1

9
$DIMLDRBLK
1

9
$DIMCEN
40
0.09
9
$DIMCLRD
70
0
9
$DIMCLRE
70
0
9
$DIMCLRT
70
0
9
$DIMDEC
70
4
9
$DIMDLE
40
0.0
9
$DIMDLI
40
0.38
9
$DIMDSEP
70
46
9
$DIMEXE
40
0.18
9
$DIMEXO
40
0.0625
9
$DIMFXLON
70
0
9
$DIMFXL
40
1.0
9
$DIMGAP
40
0.09
9
$DIMJUST
70
0
9
$DIMLFAC
40
1.0
9
$DIMLUNIT
70
2
9
$DIMLWD
70
-2
9
$DIMLWE
70
-2
9
$DIMPOST
1

9
$DIMRND
40
0.0
9
$DIMSCALE
40
1.0
9
$DIMSD1
70
0
9
$DIMSD2
70
0
9
$DIMSE1
70
0
9
$DIMSE2
70
0
9
$DIMSOXD
70
0
9
$DIMTAD
70
0
9
$DIMTDEC
70
4
9
$DIMTFAC
40
1.0
9
$DIMTIH
70
0
9
$DIMTIX
70
0
9
$DIMTM
40
0.0
9
$DIMTMOVE
70
0
9
$DIMTOFL
70
0
9
$DIMTOH
70
0
9
$DIMTOL
70
0
9
$DIMLIM
70
0
9
$DIMTOLJ
70
1
9
$DIMTP
40
0.0
9
$DIMTXT
40
0.18
9
$DIMTXTDIRECTION
70
0
9
$DIMTZIN
70
0
9
$DIMZIN
70
0
9
$DIMFRAC
70
0
9
$DIMLTYPE
6
ByBlock
9
$DIMLTEX1
6
ByBlock
9
$DIMLTEX2
6
ByBlock
0
ENDSEC
0
SECTION
2
CLASSES
0
CLASS
1
RASTERVARIABLES
2
AcDbRasterVariables
3
ISM
90
0
280
0
281
0
0
ENDSEC
0
SECTION
2
TABLES
0
TABLE
2
APPID
5
4
330
0
100
AcDbSymbolTable
70
5
0
APPID
5
19
330
4
100
AcDbSymbolTableRecord
100
AcDbRegAppTableRecord
2
ACAD
70
0
0
APPID
5
3A
330
4
100
AcDbSymbolTableRecord
100
AcDbRegAppTableRecord
2
AcCmTransparency
70
0
0
APPID
5
3B
330
4
100
AcDbSymbolTableRecord
100
AcDbRegAppTableRecord
2
AcAecLayerStandard
70
0
0
APPID
5
3C
330
4
100
AcDbSymbolTableRecord
100
AcDbRegAppTableRecord
2
GradientColor1ACI
70
0
0
APPID
5
3D
330
4
100
AcDbSymbolTableRecord
100
AcDbRegAppTableRecord
2
GradientColor2ACI
70
0
0
ENDTAB
0
TABLE
2
VPORT
5
1
330
0
100
AcDbSymbolTable
70
1
0
VPORT
5
2
330
1
100
AcDbSymbolTableRecord
100
AcDbViewportTableRecord
2
*Active
70
0
10
0.0
20
0.0
11
1.0
21
1.0
12
0.0
22
0.0
13
0.0
23
0.0
14
0.5
24
0.5
15
10.0
25
10.0
16
0.0
26
0.0
36
1.0
17
0.0
27
0.0
37
0.0
40
10.0
41
1.0
75
0
76
1
0
ENDTAB
0
TABLE
2
LTYPE
5
7
330
0
100
AcDbSymbolTable
70
3
0
LTYPE
5
15
330
7
100
AcDbSymbolTableRecord
100
AcDbLinetypeTableRecord
2
Continuous
70
0
3
Solid line
72
65
73
0
40
0.0
0
LTYPE
5
16
330
7
100
AcDbSymbolTableRecord
100
AcDbLinetypeTableRecord
2
ByLayer
70
0
3

72
65
73
0
40
0.0
0
LTYPE
5
17
330
7
100
AcDbSymbolTableRecord
100
AcDbLinetypeTableRecord
2
ByBlock
70
0
3

72
65
73
0
40
0.0
0
ENDTAB
0
TABLE
2
LAYER
5
5
102
{ACAD_XDICTIONARY
360
6
102
}
330
0
100
AcDbSymbolTable
70
1
0
LAYER
5
14
330
5
100
AcDbSymbolTableRecord
100
AcDbLayerTableRecord
2
0
70
0
62
7
6
Continuous
290
1
370
-3
390
0
0
ENDTAB
0
TABLE
2
STYLE
5
8
330
0
100
AcDbSymbolTable
70
1
0
STYLE
5
18
330
8
100
AcDbSymbolTableRecord
100
AcDbTextStyleTableRecord
2
Standard
3
simplex.shx
70
0
71
0
40
0.0
41
1.0
42
0.0
50
0.0
0
ENDTAB
0
TABLE
2
DIMSTYLE
5
A
330
0
100
AcDbSymbolTable
70
1
100
AcDbDimStyleTable
0
DIMSTYLE
105
1A
330
A
100
AcDbSymbolTableRecord
100
AcDbDimStyleTableRecord
2
Standard
3

4

40
1.0
41
0.18
42
0.0625
43
0.38
44
0.18
45
0.0
46
0.0
47
0.0
48
0.0
49
1.0
70
0
71
0
72
0
73
0
74
0
75
0
76
0
77
0
78
0
79
0
140
0.18
141
0.09
143
25.4
144
1.0
146
1.0
147
0.09
148
0.0
170
0
171
2
172
0
174
0
175
0
176
0
177
0
178
0
179
0
271
4
272
4
273
2
274
2
275
0
276
0
277
2
278
46
279
0
280
0
281
0
282
0
283
1
284
0
285
0
286
0
289
3
290
0
294
0
340
18
173
0
345
17
346
17
347
17
371
-2
372
-2
0
ENDTAB
0
TABLE
2
VIEW
5
3
330
0
100
AcDbSymbolTable
70
0
0
ENDTAB
0
TABLE
2
UCS
5
C
330
0
100
AcDbSymbolTable
70
0
0
ENDTAB
0
TABLE
2
BLOCK_RECORD
5
D
330
0
100
AcDbSymbolTable
70
2
0
BLOCK_RECORD
5
1C
330
D
100
AcDbSymbolTableRecord
100
AcDbBlockTableRecord
2
*Model_Space
340
20
0
BLOCK_RECORD
5
34
330
D
100
AcDbSymbolTableRecord
100
AcDbBlockTableRecord
2
*Paper_Space
340
39
0
ENDTAB
0
ENDSEC
0
SECTION
2
BLOCKS
0
BLOCK
5
1E
330
1C
100
AcDbEntity
67
0
8
0
100
AcDbBlockBegin
2
*Model_Space
70
0
10
0.0
20
0.0
30
0.0
3
*Model_Space
4

0
ENDBLK
5
1D
330
1C
100
AcDbEntity
8
0
100
AcDbBlockEnd
0
BLOCK
5
36
330
34
100
AcDbEntity
67
1
8
0
100
AcDbBlockBegin
2
*Paper_Space
70
0
10
0.0
20
0.0
30
0.0
3
*Paper_Space
4

0
ENDBLK
5
35
330
34
100
AcDbEntity
8
0
100
AcDbBlockEnd
0
ENDSEC
0
SECTION
2
ENTITIES
0
LWPOLYLINE
5
22
330
1C
100
AcDbEntity
67
0
8
0
62
256
6
ByLayer
370
-1
48
1.0
60
0
100
AcDbPolyline
90
35
70
1
38
0.0
39
0.0
10
65.0106964111328
20
66.0348968505859
40
0.0
41
0.0
42
0.0
10
65.1065979003906
20
66.1400985717773
40
0.0
41
0.0
42
0.0
10
65.5059967041016
20
66.2683029174805
40
0.0
41
0.0
42
0.0
10
65.6281967163086
20
66.4732971191406
40
0.0
41
0.0
42
0.0
10
65.6930999755859
20
66.9064025878906
40
0.0
41
0.0
42
0.0
10
65.6871032714844
20
67.4432983398438
40
0.0
41
0.0
42
0.0
10
65.655403137207
20
67.6623001098633
40
0.0
41
0.0
42
0.0
10
65.6317977905273
20
68.0174026489258
40
0.0
41
0.0
42
0.0
10
65.5843963623047
20
68.2886962890625
40
0.0
41
0.0
42
0.0
10
65.5593032836914
20
68.5162963867188
40
0.0
41
0.0
42
0.0
10
65.4996032714844
20
68.7667007446289
40
0.0
41
0.0
42
0.0
10
65.4219970703125
20
69.0108032226562
40
0.0
41
0.0
42
0.0
10
65.277702331543
20
69.2332992553711
40
0.0
41
0.0
42
0.0
10
65.2528991699219
20
69.2814025878906
40
0.0
41
0.0
42
0.0
10
65.1485977172852
20
69.5074005126953
40
0.0
41
0.0
42
0.0
10
65.0115966796875
20
69.6377029418945
40
0.0
41
0.0
42
0.0
10
65.0009994506836
20
69.6377029418945
40
0.0
41
0.0
42
0.0
10
65.0009002685547
20
69.554801940918
40
0.0
41
0.0
42
0.0
10
65.0667037963867
20
69.4924011230469
40
0.0
41
0.0
42
0.0
10
65.1294021606445
20
69.359001159668
40
0.0
41
0.0
42
0.0
10
65.369499206543
20
68.9889984130859
40
0.0
41
0.0
42
0.0
10
65.5001983642578
20
68.5776977539062
40
0.0
41
0.0
42
0.0
10
65.5225982666016
20
68.4834976196289
40
0.0
41
0.0
42
0.0
10
65.5317993164062
20
68.3994979858398
40
0.0
41
0.0
42
0.0
10
65.6047973632812
20
67.9824981689453
40
0.0
41
0.0
42
0.0
10
65.6232986450195
20
67.7039031982422
40
0.0
41
0.0
42
0.0
10
65.6718978881836
20
67.3666000366211
40
0.0
41
0.0
42
0.0
10
65.6776962280273
20
66.8983993530273
40
0.0
41
0.0
42
0.0
10
65.6164016723633
20
66.4914016723633
40
0.0
41
0.0
42
0.0
10
65.493896484375
20
66.286003112793
40
0.0
41
0.0
42
0.0
10
65.1039962768555
20
66.1608963012695
40
0.0
41
0.0
42
0.0
10
65.068603515625
20
66.1380996704102
40
0.0
41
0.0
42
0.0
10
65.0009994506836
20
66.0639038085938
40
0.0
41
0.0
42
0.0
10
65.0009994506836
20
66.0348968505859
40
0.0
41
0.0
42
0.0
10
65.0106964111328
20
66.0348968505859
40
0.0
41
0.0
42
0.0
210
0.0
220
0.0
230
1.0
0
LWPOLYLINE
5
23
330
1C
100
AcDbEntity
67
0
8
0
62
256
6
ByLayer
370
-1
48
1.0
60
0
100
AcDbPolyline
90
274
70
1
38
0.0
39
0.0
10
65.3794021606445
20
76.9079971313477
40
0.0
41
0.0
42
0.0
10
65.3862991333008
20
76.8703002929688
40
0.0
41
0.0
42
0.0
10
65.4904022216797
20
76.57080078125
40
0.0
41
0.0
42
0.0
10
65.5085983276367
20
76.4850997924805
40
0.0
41
0.0
42
0.0
10
65.5423965454102
20
76.3718032836914
40
0.0
41
0.0
42
0.0
10
65.6955032348633
20
75.9881973266602
40
0.0
41
0.0
42
0.0
10
65.7477035522461
20
75.8742980957031
40
0.0
41
0.0
42
0.0
10
65.9561004638672
20
75.4901962280273
40
0.0
41
0.0
42
0.0
10
66.24169921875
20
74.9905014038086
40
0.0
41
0.0
42
0.0
10
66.3102035522461
20
74.8751983642578
40
0.0
41
0.0
42
0.0
10
66.4813003540039
20
74.5485992431641
40
0.0
41
0.0
42
0.0
10
66.5152969360352
20
74.4901962280273
40
0.0
41
0.0
42
0.0
10
66.5781021118164
20
74.3737030029297
40
0.0
41
0.0
42
0.0
10
66.7254028320312
20
73.9857025146484
40
0.0
41
0.0
42
0.0
10
66.7468032836914
20
73.8761978149414
40
0.0
41
0.0
42
0.0
10
66.7730026245117
20
73.5031967163086
40
0.0
41
0.0
42
0.0
10
66.7667999267578
20
73.4422988891602
40
0.0
41
0.0
42
0.0
10
66.7008972167969
20
73.0158996582031
40
0.0
41
0.0
42
0.0
10
66.5002975463867
20
72.1893997192383
40
0.0
41
0.0
42
0.0
10
66.4557037353516
20
72.0155029296875
40
0.0
41
0.0
42
0.0
10
66.4427032470703
20
71.9409027099609
40
0.0
41
0.0
42
0.0
10
66.3516006469727
20
71.5167999267578
40
0.0
41
0.0
42
0.0
10
66.3451995849609
20
71.4425964355469
40
0.0
41
0.0
42
0.0
10
66.28759765625
20
71.0185012817383
40
0.0
41
0.0
42
0.0
10
66.2874984741211
20
70.980598449707
40
0.0
41
0.0
42
0.0
10
66.2917022705078
20
70.9086990356445
40
0.0
41
0.0
42
0.0
10
66.2897033691406
20
70.4832000732422
40
0.0
41
0.0
42
0.0
10
66.424201965332
20
70.0624008178711
40
0.0
41
0.0
42
0.0
10
66.4554977416992
20
69.9916000366211
40
0.0
41
0.0
42
0.0
10
66.497802734375
20
69.945198059082
40
0.0
41
0.0
42
0.0
10
66.5059967041016
20
69.9259033203125
40
0.0
41
0.0
42
0.0
10
66.8973999023438
20
69.5752029418945
40
0.0
41
0.0
42
0.0
10
66.9582977294922
20
69.4968032836914
40
0.0
41
0.0
42
0.0
10
66.9774017333984
20
69.4880981445312
40
0.0
41
0.0
42
0.0
10
67.1051025390625
20
69.4072036743164
40
0.0
41
0.0
42
0.0
10
67.4879989624023
20
69.2233963012695
40
0.0
41
0.0
42
0.0
10
67.8727035522461
20
69.0866012573242
40
0.0
41
0.0
42
0.0
10
67.9499969482422
20
69.0521011352539
40
0.0
41
0.0
42
0.0
10
67.9868011474609
20
69.0380020141602
40
0.0
41
0.0
42
0.0
10
68.4856033325195
20
68.8880004882812
40
0.0
41
0.0
42
0.0
10
68.6003036499023
20
68.8585968017578
40
0.0
41
0.0
42
0.0
10
69.1009979248047
20
68.7202987670898
40
0.0
41
0.0
42
0.0
10
69.5005035400391
20
68.5898971557617
40
0.0
41
0.0
42
0.0
10
69.6893997192383
20
68.4982986450195
40
0.0
41
0.0
42
0.0
10
69.8873977661133
20
68.3741989135742
40
0.0
41
0.0
42
0.0
10
69.9914016723633
20
68.3292007446289
40
0.0
41
0.0
42
0.0
10
70.0617980957031
20
68.2660980224609
40
0.0
41
0.0
42
0.0
10
70.320198059082
20
67.9935989379883
40
0.0
41
0.0
42
0.0
10
70.472297668457
20
67.7994003295898
40
0.0
41
0.0
42
0.0
10
70.4968032836914
20
67.7726974487305
40
0.0
41
0.0
42
0.0
10
70.9291000366211
20
67.0660018920898
40
0.0
41
0.0
42
0.0
10
71.0018005371094
20
66.9502029418945
40
0.0
41
0.0
42
0.0
10
71.2552032470703
20
66.5667037963867
40
0.0
41
0.0
42
0.0
10
71.3074035644531
20
66.4917984008789
40
0.0
41
0.0
42
0.0
10
71.4785003662109
20
66.2373962402344
40
0.0
41
0.0
42
0.0
10
71.4960021972656
20
66.213996887207
40
0.0
41
0.0
42
0.0
10
71.7070999145508
20
65.9942016601562
40
0.0
41
0.0
42
0.0
10
71.9682998657227
20
65.6984024047852
40
0.0
41
0.0
42
0.0
10
71.9929962158203
20
65.6725997924805
40
0.0
41
0.0
42
0.0
10
72.0642013549805
20
65.631103515625
40
0.0
41
0.0
42
0.0
10
72.0912017822266
20
65.620002746582
40
0.0
41
0.0
42
0.0
10
72.3461990356445
20
65.4981994628906
40
0.0
41
0.0
42
0.0
10
72.4903030395508
20
65.4009017944336
40
0.0
41
0.0
42
0.0
10
72.5017013549805
20
65.3955993652344
40
0.0
41
0.0
42
0.0
10
72.5577011108398
20
65.3817977905273
40
0.0
41
0.0
42
0.0
10
72.9802017211914
20
65.3712005615234
40
0.0
41
0.0
42
0.0
10
73.018798828125
20
65.3711013793945
40
0.0
41
0.0
42
0.0
10
73.0919036865234
20
65.3794021606445
40
0.0
41
0.0
42
0.0
10
73.1296005249023
20
65.3863983154297
40
0.0
41
0.0
42
0.0
10
73.4290008544922
20
65.4904022216797
40
0.0
41
0.0
42
0.0
10
73.5148010253906
20
65.5085983276367
40
0.0
41
0.0
42
0.0
10
73.6279983520508
20
65.5423965454102
40
0.0
41
0.0
42
0.0
10
74.0117034912109
20
65.6955032348633
40
0.0
41
0.0
42
0.0
10
74.125602722168
20
65.7477035522461
40
0.0
41
0.0
42
0.0
10
74.5096969604492
20
65.9561004638672
40
0.0
41
0.0
42
0.0
10
75.0093994140625
20
66.2417984008789
40
0.0
41
0.0
42
0.0
10
75.1247024536133
20
66.3100967407227
40
0.0
41
0.0
42
0.0
10
75.4512023925781
20
66.4813003540039
40
0.0
41
0.0
42
0.0
10
75.5096969604492
20
66.5152969360352
40
0.0
41
0.0
42
0.0
10
75.6261978149414
20
66.5782012939453
40
0.0
41
0.0
42
0.0
10
76.0141983032227
20
66.7254028320312
40
0.0
41
0.0
42
0.0
10
76.1235961914062
20
66.7468032836914
40
0.0
41
0.0
42
0.0
10
76.496696472168
20
66.7730026245117
40
0.0
41
0.0
42
0.0
10
76.5576019287109
20
66.7667999267578
40
0.0
41
0.0
42
0.0
10
76.984001159668
20
66.700798034668
40
0.0
41
0.0
42
0.0
10
77.8104019165039
20
66.5002975463867
40
0.0
41
0.0
42
0.0
10
77.9843978881836
20
66.4557037353516
40
0.0
41
0.0
42
0.0
10
78.0589981079102
20
66.4425964355469
40
0.0
41
0.0
42
0.0
10
78.4831008911133
20
66.3516006469727
40
0.0
41
0.0
42
0.0
10
78.5572967529297
20
66.3451995849609
40
0.0
41
0.0
42
0.0
10
78.9813995361328
20
66.28759765625
40
0.0
41
0.0
42
0.0
10
79.0193023681641
20
66.2874984741211
40
0.0
41
0.0
42
0.0
10
79.0912017822266
20
66.2917022705078
40
0.0
41
0.0
42
0.0
10
79.5167007446289
20
66.2898025512695
40
0.0
41
0.0
42
0.0
10
79.9375
20
66.424201965332
40
0.0
41
0.0
42
0.0
10
80.00830078125
20
66.4554977416992
40
0.0
41
0.0
42
0.0
10
80.0546035766602
20
66.4979019165039
40
0.0
41
0.0
42
0.0
10
80.0737991333008
20
66.506103515625
40
0.0
41
0.0
42
0.0
10
80.4245986938477
20
66.8973999023438
40
0.0
41
0.0
42
0.0
10
80.5028991699219
20
66.9583969116211
40
0.0
41
0.0
42
0.0
10
80.5119018554688
20
66.9779968261719
40
0.0
41
0.0
42
0.0
10
80.5211029052734
20
66.9906997680664
40
0.0
41
0.0
42
0.0
10
80.7057037353516
20
67.3750991821289
40
0.0
41
0.0
42
0.0
10
80.7767028808594
20
67.4890975952148
40
0.0
41
0.0
42
0.0
10
80.913200378418
20
67.8727035522461
40
0.0
41
0.0
42
0.0
10
80.9476013183594
20
67.9499969482422
40
0.0
41
0.0
42
0.0
10
80.9617004394531
20
67.9868011474609
40
0.0
41
0.0
42
0.0
10
81.111701965332
20
68.4858016967773
40
0.0
41
0.0
42
0.0
10
81.2184982299805
20
68.8703994750977
40
0.0
41
0.0
42
0.0
10
81.2480010986328
20
68.9858016967773
40
0.0
41
0.0
42
0.0
10
81.3735961914062
20
69.3710021972656
40
0.0
41
0.0
42
0.0
10
81.4096984863281
20
69.5000991821289
40
0.0
41
0.0
42
0.0
10
81.5016021728516
20
69.6893997192383
40
0.0
41
0.0
42
0.0
10
81.6255035400391
20
69.8874969482422
40
0.0
41
0.0
42
0.0
10
81.6705017089844
20
69.9915008544922
40
0.0
41
0.0
42
0.0
10
81.7337036132812
20
70.0617980957031
40
0.0
41
0.0
42
0.0
10
82.0062026977539
20
70.3202972412109
40
0.0
41
0.0
42
0.0
10
82.2004013061523
20
70.472297668457
40
0.0
41
0.0
42
0.0
10
82.2270965576172
20
70.4968032836914
40
0.0
41
0.0
42
0.0
10
82.9338989257812
20
70.92919921875
40
0.0
41
0.0
42
0.0
10
83.0495986938477
20
71.0018005371094
40
0.0
41
0.0
42
0.0
10
83.4331970214844
20
71.2552032470703
40
0.0
41
0.0
42
0.0
10
83.5081024169922
20
71.3074035644531
40
0.0
41
0.0
42
0.0
10
83.7622985839844
20
71.4785995483398
40
0.0
41
0.0
42
0.0
10
83.7857971191406
20
71.4960021972656
40
0.0
41
0.0
42
0.0
10
84.0056991577148
20
71.7070999145508
40
0.0
41
0.0
42
0.0
10
84.3013000488281
20
71.9682998657227
40
0.0
41
0.0
42
0.0
10
84.3272018432617
20
71.9931030273438
40
0.0
41
0.0
42
0.0
10
84.3685989379883
20
72.0643005371094
40
0.0
41
0.0
42
0.0
10
84.3796997070312
20
72.0912017822266
40
0.0
41
0.0
42
0.0
10
84.5016021728516
20
72.3461990356445
40
0.0
41
0.0
42
0.0
10
84.5988006591797
20
72.4903030395508
40
0.0
41
0.0
42
0.0
10
84.6041030883789
20
72.5018005371094
40
0.0
41
0.0
42
0.0
10
84.6178970336914
20
72.5578002929688
40
0.0
41
0.0
42
0.0
10
84.6287002563477
20
72.9802017211914
40
0.0
41
0.0
42
0.0
10
84.6286010742188
20
73.018798828125
40
0.0
41
0.0
42
0.0
10
84.6205978393555
20
73.0898971557617
40
0.0
41
0.0
42
0.0
10
84.6132965087891
20
73.1296005249023
40
0.0
41
0.0
42
0.0
10
84.5093002319336
20
73.4290008544922
40
0.0
41
0.0
42
0.0
10
84.491096496582
20
73.5147018432617
40
0.0
41
0.0
42
0.0
10
84.4572982788086
20
73.6279983520508
40
0.0
41
0.0
42
0.0
10
84.3043975830078
20
74.0110015869141
40
0.0
41
0.0
42
0.0
10
84.0960006713867
20
74.3955001831055
40
0.0
41
0.0
42
0.0
10
84.0432968139648
20
74.5102996826172
40
0.0
41
0.0
42
0.0
10
83.7578964233398
20
75.0093002319336
40
0.0
41
0.0
42
0.0
10
83.6895980834961
20
75.1247024536133
40
0.0
41
0.0
42
0.0
10
83.5184020996094
20
75.4512023925781
40
0.0
41
0.0
42
0.0
10
83.4843978881836
20
75.5096969604492
40
0.0
41
0.0
42
0.0
10
83.421501159668
20
75.6261978149414
40
0.0
41
0.0
42
0.0
10
83.2739028930664
20
76.0154037475586
40
0.0
41
0.0
42
0.0
10
83.2464981079102
20
76.4022979736328
40
0.0
41
0.0
42
0.0
10
83.2281036376953
20
76.5018997192383
40
0.0
41
0.0
42
0.0
10
83.2910003662109
20
76.907600402832
40
0.0
41
0.0
42
0.0
10
83.2987976074219
20
76.9834976196289
40
0.0
41
0.0
42
0.0
10
83.4037017822266
20
77.409797668457
40
0.0
41
0.0
42
0.0
10
83.4383010864258
20
77.5597991943359
40
0.0
41
0.0
42
0.0
10
83.4994964599609
20
77.8104019165039
40
0.0
41
0.0
42
0.0
10
83.5439987182617
20
77.9843978881836
40
0.0
41
0.0
42
0.0
10
83.5570983886719
20
78.0589981079102
40
0.0
41
0.0
42
0.0
10
83.6482009887695
20
78.4835968017578
40
0.0
41
0.0
42
0.0
10
83.7058029174805
20
78.9073028564453
40
0.0
41
0.0
42
0.0
10
83.7123031616211
20
78.9809036254883
40
0.0
41
0.0
42
0.0
10
83.7144012451172
20
79.4443969726562
40
0.0
41
0.0
42
0.0
10
83.7100982666016
20
79.5160980224609
40
0.0
41
0.0
42
0.0
10
83.5755004882812
20
79.9374008178711
40
0.0
41
0.0
42
0.0
10
83.5441970825195
20
80.00830078125
40
0.0
41
0.0
42
0.0
10
83.5019989013672
20
80.0544967651367
40
0.0
41
0.0
42
0.0
10
83.4936981201172
20
80.0736999511719
40
0.0
41
0.0
42
0.0
10
83.1023025512695
20
80.4245986938477
40
0.0
41
0.0
42
0.0
10
83.0413970947266
20
80.5028991699219
40
0.0
41
0.0
42
0.0
10
83.0217971801758
20
80.5119018554688
40
0.0
41
0.0
42
0.0
10
83.0091018676758
20
80.5211029052734
40
0.0
41
0.0
42
0.0
10
82.6248016357422
20
80.7057037353516
40
0.0
41
0.0
42
0.0
10
82.5108032226562
20
80.7767028808594
40
0.0
41
0.0
42
0.0
10
82.1270980834961
20
80.913200378418
40
0.0
41
0.0
42
0.0
10
82.0497970581055
20
80.9475021362305
40
0.0
41
0.0
42
0.0
10
82.0130996704102
20
80.9617004394531
40
0.0
41
0.0
42
0.0
10
81.5140991210938
20
81.111701965332
40
0.0
41
0.0
42
0.0
10
81.1295013427734
20
81.2184982299805
40
0.0
41
0.0
42
0.0
10
81.0140991210938
20
81.2480010986328
40
0.0
41
0.0
42
0.0
10
80.6288986206055
20
81.3735961914062
40
0.0
41
0.0
42
0.0
10
80.4997024536133
20
81.4095993041992
40
0.0
41
0.0
42
0.0
10
80.310302734375
20
81.5015029907227
40
0.0
41
0.0
42
0.0
10
80.1122970581055
20
81.6255035400391
40
0.0
41
0.0
42
0.0
10
80.0083999633789
20
81.6704025268555
40
0.0
41
0.0
42
0.0
10
79.9378967285156
20
81.7335968017578
40
0.0
41
0.0
42
0.0
10
79.6794967651367
20
82.0062026977539
40
0.0
41
0.0
42
0.0
10
79.5272979736328
20
82.2003021240234
40
0.0
41
0.0
42
0.0
10
79.5029983520508
20
82.2269973754883
40
0.0
41
0.0
42
0.0
10
79.0706024169922
20
82.9338989257812
40
0.0
41
0.0
42
0.0
10
78.9979019165039
20
83.0494995117188
40
0.0
41
0.0
42
0.0
10
78.744499206543
20
83.4330978393555
40
0.0
41
0.0
42
0.0
10
78.6922988891602
20
83.5080032348633
40
0.0
41
0.0
42
0.0
10
78.5212020874023
20
83.7622985839844
40
0.0
41
0.0
42
0.0
10
78.5037994384766
20
83.7856979370117
40
0.0
41
0.0
42
0.0
10
78.2926025390625
20
84.0055999755859
40
0.0
41
0.0
42
0.0
10
78.0315017700195
20
84.3013000488281
40
0.0
41
0.0
42
0.0
10
78.0067977905273
20
84.3271026611328
40
0.0
41
0.0
42
0.0
10
77.9356002807617
20
84.3684997558594
40
0.0
41
0.0
42
0.0
10
77.9085998535156
20
84.3796997070312
40
0.0
41
0.0
42
0.0
10
77.6535034179688
20
84.5016021728516
40
0.0
41
0.0
42
0.0
10
77.5095977783203
20
84.5988006591797
40
0.0
41
0.0
42
0.0
10
77.4980010986328
20
84.6041030883789
40
0.0
41
0.0
42
0.0
10
77.4421005249023
20
84.6178970336914
40
0.0
41
0.0
42
0.0
10
77.0196990966797
20
84.6287002563477
40
0.0
41
0.0
42
0.0
10
76.9811019897461
20
84.6286010742188
40
0.0
41
0.0
42
0.0
10
76.9098968505859
20
84.6205978393555
40
0.0
41
0.0
42
0.0
10
76.8703002929688
20
84.6134033203125
40
0.0
41
0.0
42
0.0
10
76.57080078125
20
84.5093002319336
40
0.0
41
0.0
42
0.0
10
76.4851989746094
20
84.491096496582
40
0.0
41
0.0
42
0.0
10
76.3719024658203
20
84.4572982788086
40
0.0
41
0.0
42
0.0
10
75.988899230957
20
84.3044967651367
40
0.0
41
0.0
42
0.0
10
75.6043014526367
20
84.0960998535156
40
0.0
41
0.0
42
0.0
10
75.4896011352539
20
84.0432968139648
40
0.0
41
0.0
42
0.0
10
74.9905014038086
20
83.7580032348633
40
0.0
41
0.0
42
0.0
10
74.8751983642578
20
83.6894989013672
40
0.0
41
0.0
42
0.0
10
74.5485992431641
20
83.5185012817383
40
0.0
41
0.0
42
0.0
10
74.4901962280273
20
83.4843978881836
40
0.0
41
0.0
42
0.0
10
74.3737030029297
20
83.4216003417969
40
0.0
41
0.0
42
0.0
10
73.9844970703125
20
83.2739028930664
40
0.0
41
0.0
42
0.0
10
73.5976028442383
20
83.2464981079102
40
0.0
41
0.0
42
0.0
10
73.4980010986328
20
83.2281036376953
40
0.0
41
0.0
42
0.0
10
73.0923004150391
20
83.2910003662109
40
0.0
41
0.0
42
0.0
10
73.0162963867188
20
83.2987976074219
40
0.0
41
0.0
42
0.0
10
72.5901031494141
20
83.4037017822266
40
0.0
41
0.0
42
0.0
10
72.4401016235352
20
83.4383010864258
40
0.0
41
0.0
42
0.0
10
72.1893005371094
20
83.4994964599609
40
0.0
41
0.0
42
0.0
10
72.0155029296875
20
83.5439987182617
40
0.0
41
0.0
42
0.0
10
71.9409027099609
20
83.5570983886719
40
0.0
41
0.0
42
0.0
10
71.5162963867188
20
83.6482009887695
40
0.0
41
0.0
42
0.0
10
71.0925979614258
20
83.7058029174805
40
0.0
41
0.0
42
0.0
10
71.0189971923828
20
83.7123031616211
40
0.0
41
0.0
42
0.0
10
70.5554962158203
20
83.7144012451172
40
0.0
41
0.0
42
0.0
10
70.4838027954102
20
83.7101974487305
40
0.0
41
0.0
42
0.0
10
70.0624008178711
20
83.5755004882812
40
0.0
41
0.0
42
0.0
10
69.9916000366211
20
83.5441970825195
40
0.0
41
0.0
42
0.0
10
69.9452972412109
20
83.5019989013672
40
0.0
41
0.0
42
0.0
10
69.9260025024414
20
83.4937973022461
40
0.0
41
0.0
42
0.0
10
69.5753021240234
20
83.1024017333984
40
0.0
41
0.0
42
0.0
10
69.4968032836914
20
83.0414962768555
40
0.0
41
0.0
42
0.0
10
69.4880981445312
20
83.0223999023438
40
0.0
41
0.0
42
0.0
10
69.4072036743164
20
82.8947982788086
40
0.0
41
0.0
42
0.0
10
69.2233963012695
20
82.5119018554688
40
0.0
41
0.0
42
0.0
10
69.0866012573242
20
82.127197265625
40
0.0
41
0.0
42
0.0
10
69.0522003173828
20
82.0497970581055
40
0.0
41
0.0
42
0.0
10
69.0380020141602
20
82.0130996704102
40
0.0
41
0.0
42
0.0
10
68.8880996704102
20
81.5142974853516
40
0.0
41
0.0
42
0.0
10
68.8585968017578
20
81.3995971679688
40
0.0
41
0.0
42
0.0
10
68.7202987670898
20
80.8989028930664
40
0.0
41
0.0
42
0.0
10
68.5898971557617
20
80.4992980957031
40
0.0
41
0.0
42
0.0
10
68.4982986450195
20
80.3104019165039
40
0.0
41
0.0
42
0.0
10
68.3741989135742
20
80.1123962402344
40
0.0
41
0.0
42
0.0
10
68.3292999267578
20
80.0084991455078
40
0.0
41
0.0
42
0.0
10
68.2660980224609
20
79.9380035400391
40
0.0
41
0.0
42
0.0
10
67.9936981201172
20
79.6794967651367
40
0.0
41
0.0
42
0.0
10
67.7994003295898
20
79.5273971557617
40
0.0
41
0.0
42
0.0
10
67.7726974487305
20
79.5029983520508
40
0.0
41
0.0
42
0.0
10
67.0660018920898
20
79.0706024169922
40
0.0
41
0.0
42
0.0
10
66.9502029418945
20
78.9980010986328
40
0.0
41
0.0
42
0.0
10
66.5667037963867
20
78.7445983886719
40
0.0
41
0.0
42
0.0
10
66.4917984008789
20
78.6923980712891
40
0.0
41
0.0
42
0.0
10
66.2373962402344
20
78.5212020874023
40
0.0
41
0.0
42
0.0
10
66.213996887207
20
78.5038986206055
40
0.0
41
0.0
42
0.0
10
65.9942016601562
20
78.2927017211914
40
0.0
41
0.0
42
0.0
10
65.6984024047852
20
78.0315017700195
40
0.0
41
0.0
42
0.0
10
65.6725997924805
20
78.0067977905273
40
0.0
41
0.0
42
0.0
10
65.6312026977539
20
77.9356002807617
40
0.0
41
0.0
42
0.0
10
65.620002746582
20
77.9085998535156
40
0.0
41
0.0
42
0.0
10
65.4981994628906
20
77.6536026000977
40
0.0
41
0.0
42
0.0
10
65.4009017944336
20
77.5096969604492
40
0.0
41
0.0
42
0.0
10
65.3955993652344
20
77.4981002807617
40
0.0
41
0.0
42
0.0
10
65.3817977905273
20
77.4421997070312
40
0.0
41
0.0
42
0.0
10
65.3711013793945
20
76.9832000732422
40
0.0
41
0.0
42
0.0
10
65.3794021606445
20
76.9079971313477
40
0.0
41
0.0
42
0.0
210
0.0
220
0.0
230
1.0
0
LWPOLYLINE
5
24
330
1C
100
AcDbEntity
67
0
8
0
62
256
6
ByLayer
370
-1
48
1.0
60
0
100
AcDbPolyline
90
288
70
1
38
0.0
39
0.0
10
65.3817977905273
20
77.3677978515625
40
0.0
41
0.0
42
0.0
10
65.4056015014648
20
77.4638977050781
40
0.0
41
0.0
42
0.0
10
65.4176025390625
20
77.4903030395508
40
0.0
41
0.0
42
0.0
10
65.5017013549805
20
77.6146011352539
40
0.0
41
0.0
42
0.0
10
65.6050033569336
20
77.8308029174805
40
0.0
41
0.0
42
0.0
10
65.6230010986328
20
77.8742980957031
40
0.0
41
0.0
42
0.0
10
65.6920013427734
20
77.9929962158203
40
0.0
41
0.0
42
0.0
10
65.7378005981445
20
78.0367965698242
40
0.0
41
0.0
42
0.0
10
66.0056991577148
20
78.2733993530273
40
0.0
41
0.0
42
0.0
10
66.2376022338867
20
78.4960021972656
40
0.0
41
0.0
42
0.0
10
66.277099609375
20
78.5253982543945
40
0.0
41
0.0
42
0.0
10
66.5081024169922
20
78.6808013916016
40
0.0
41
0.0
42
0.0
10
66.6231994628906
20
78.7609024047852
40
0.0
41
0.0
42
0.0
10
66.9716033935547
20
78.991096496582
40
0.0
41
0.0
42
0.0
10
67.008903503418
20
79.0133972167969
40
0.0
41
0.0
42
0.0
10
67.1238021850586
20
79.0871963500977
40
0.0
41
0.0
42
0.0
10
67.5018997192383
20
79.3191986083984
40
0.0
41
0.0
42
0.0
10
67.7180023193359
20
79.4499969482422
40
0.0
41
0.0
42
0.0
10
67.7918014526367
20
79.496696472168
40
0.0
41
0.0
42
0.0
10
67.8305969238281
20
79.532096862793
40
0.0
41
0.0
42
0.0
10
68.0062026977539
20
79.6696014404297
40
0.0
41
0.0
42
0.0
10
68.2658996582031
20
79.9160995483398
40
0.0
41
0.0
42
0.0
10
68.2923965454102
20
79.9429016113281
40
0.0
41
0.0
42
0.0
10
68.3358993530273
20
79.9914016723633
40
0.0
41
0.0
42
0.0
10
68.3640975952148
20
80.0562973022461
40
0.0
41
0.0
42
0.0
10
68.5016021728516
20
80.2757034301758
40
0.0
41
0.0
42
0.0
10
68.6003036499023
20
80.4794006347656
40
0.0
41
0.0
42
0.0
10
68.741096496582
20
80.911003112793
40
0.0
41
0.0
42
0.0
10
68.8792037963867
20
81.410400390625
40
0.0
41
0.0
42
0.0
10
68.8983993530273
20
81.4856033325195
40
0.0
41
0.0
42
0.0
10
69.0488967895508
20
81.9870986938477
40
0.0
41
0.0
42
0.0
10
69.0811996459961
20
82.0625991821289
40
0.0
41
0.0
42
0.0
10
69.2323989868164
20
82.4879989624023
40
0.0
41
0.0
42
0.0
10
69.4375
20
82.9151992797852
40
0.0
41
0.0
42
0.0
10
69.4900970458984
20
82.9981002807617
40
0.0
41
0.0
42
0.0
10
69.5030975341797
20
83.0262985229492
40
0.0
41
0.0
42
0.0
10
69.581901550293
20
83.08740234375
40
0.0
41
0.0
42
0.0
10
69.6203002929688
20
83.1193008422852
40
0.0
41
0.0
42
0.0
10
69.9470977783203
20
83.4841003417969
40
0.0
41
0.0
42
0.0
10
69.9792022705078
20
83.4979019165039
40
0.0
41
0.0
42
0.0
10
70.0083999633789
20
83.5242004394531
40
0.0
41
0.0
42
0.0
10
70.1275024414062
20
83.5771026611328
40
0.0
41
0.0
42
0.0
10
70.5160980224609
20
83.7011032104492
40
0.0
41
0.0
42
0.0
10
70.6312026977539
20
83.7079010009766
40
0.0
41
0.0
42
0.0
10
70.9809036254883
20
83.7061004638672
40
0.0
41
0.0
42
0.0
10
71.097297668457
20
83.6960983276367
40
0.0
41
0.0
42
0.0
10
71.4835968017578
20
83.6435012817383
40
0.0
41
0.0
42
0.0
10
71.8690032958984
20
83.5608978271484
40
0.0
41
0.0
42
0.0
10
71.9843978881836
20
83.5404968261719
40
0.0
41
0.0
42
0.0
10
72.1417999267578
20
83.5001983642578
40
0.0
41
0.0
42
0.0
10
72.3621978759766
20
83.446403503418
40
0.0
41
0.0
42
0.0
10
72.5998001098633
20
83.3915023803711
40
0.0
41
0.0
42
0.0
10
72.9834976196289
20
83.2970962524414
40
0.0
41
0.0
42
0.0
10
73.0976028442383
20
83.285400390625
40
0.0
41
0.0
42
0.0
10
73.4815979003906
20
83.2259979248047
40
0.0
41
0.0
42
0.0
10
73.5178985595703
20
83.2259979248047
40
0.0
41
0.0
42
0.0
10
73.6007995605469
20
83.2421035766602
40
0.0
41
0.0
42
0.0
10
74.0154037475586
20
83.2714996337891
40
0.0
41
0.0
42
0.0
10
74.4362030029297
20
83.4310989379883
40
0.0
41
0.0
42
0.0
10
74.5095977783203
20
83.470703125
40
0.0
41
0.0
42
0.0
10
74.5743026733398
20
83.5092010498047
40
0.0
41
0.0
42
0.0
10
74.934700012207
20
83.6981964111328
40
0.0
41
0.0
42
0.0
10
75.0093994140625
20
83.7425003051758
40
0.0
41
0.0
42
0.0
10
75.5103988647461
20
84.0287017822266
40
0.0
41
0.0
42
0.0
10
75.5856018066406
20
84.0632019042969
40
0.0
41
0.0
42
0.0
10
76.0110015869141
20
84.2938995361328
40
0.0
41
0.0
42
0.0
10
76.4380035400391
20
84.4643020629883
40
0.0
41
0.0
42
0.0
10
76.5148010253906
20
84.4871978759766
40
0.0
41
0.0
42
0.0
10
76.6083984375
20
84.5065002441406
40
0.0
41
0.0
42
0.0
10
76.9280014038086
20
84.6175003051758
40
0.0
41
0.0
42
0.0
10
77.0117034912109
20
84.6268997192383
40
0.0
41
0.0
42
0.0
10
77.3677978515625
20
84.6178970336914
40
0.0
41
0.0
42
0.0
10
77.4638977050781
20
84.5942001342773
40
0.0
41
0.0
42
0.0
10
77.4901962280273
20
84.5820999145508
40
0.0
41
0.0
42
0.0
10
77.6146011352539
20
84.4981994628906
40
0.0
41
0.0
42
0.0
10
77.8308029174805
20
84.3946990966797
40
0.0
41
0.0
42
0.0
10
77.8742980957031
20
84.3767013549805
40
0.0
41
0.0
42
0.0
10
77.9929962158203
20
84.3077011108398
40
0.0
41
0.0
42
0.0
10
78.0367965698242
20
84.2619018554688
40
0.0
41
0.0
42
0.0
10
78.2733993530273
20
83.9941024780273
40
0.0
41
0.0
42
0.0
10
78.4960021972656
20
83.7621994018555
40
0.0
41
0.0
42
0.0
10
78.5253982543945
20
83.7227020263672
40
0.0
41
0.0
42
0.0
10
78.6808013916016
20
83.4917984008789
40
0.0
41
0.0
42
0.0
10
78.7609024047852
20
83.3767013549805
40
0.0
41
0.0
42
0.0
10
78.991096496582
20
83.0281982421875
40
0.0
41
0.0
42
0.0
10
79.013298034668
20
82.9909973144531
40
0.0
41
0.0
42
0.0
10
79.0870971679688
20
82.8760986328125
40
0.0
41
0.0
42
0.0
10
79.3235015869141
20
82.4907989501953
40
0.0
41
0.0
42
0.0
10
79.4499969482422
20
82.2817993164062
40
0.0
41
0.0
42
0.0
10
79.496696472168
20
82.2079010009766
40
0.0
41
0.0
42
0.0
10
79.5319976806641
20
82.1691970825195
40
0.0
41
0.0
42
0.0
10
79.6695022583008
20
81.9935989379883
40
0.0
41
0.0
42
0.0
10
79.9160003662109
20
81.7339019775391
40
0.0
41
0.0
42
0.0
10
79.9428024291992
20
81.7072982788086
40
0.0
41
0.0
42
0.0
10
79.9914016723633
20
81.6638031005859
40
0.0
41
0.0
42
0.0
10
80.0562973022461
20
81.6355972290039
40
0.0
41
0.0
42
0.0
10
80.2757034301758
20
81.4981994628906
40
0.0
41
0.0
42
0.0
10
80.4789962768555
20
81.3995971679688
40
0.0
41
0.0
42
0.0
10
80.5609970092773
20
81.3768005371094
40
0.0
41
0.0
42
0.0
10
80.9858016967773
20
81.2384033203125
40
0.0
41
0.0
42
0.0
10
81.0604019165039
20
81.2192993164062
40
0.0
41
0.0
42
0.0
10
81.4858016967773
20
81.1011962890625
40
0.0
41
0.0
42
0.0
10
81.9870986938477
20
80.950798034668
40
0.0
41
0.0
42
0.0
10
82.0625991821289
20
80.9186019897461
40
0.0
41
0.0
42
0.0
10
82.4890975952148
20
80.7669982910156
40
0.0
41
0.0
42
0.0
10
82.5650024414062
20
80.719596862793
40
0.0
41
0.0
42
0.0
10
82.9906997680664
20
80.5151977539062
40
0.0
41
0.0
42
0.0
10
82.9987030029297
20
80.5094985961914
40
0.0
41
0.0
42
0.0
10
83.0261993408203
20
80.4968032836914
40
0.0
41
0.0
42
0.0
10
83.08740234375
20
80.4179992675781
40
0.0
41
0.0
42
0.0
10
83.1192016601562
20
80.3795013427734
40
0.0
41
0.0
42
0.0
10
83.4841003417969
20
80.0526962280273
40
0.0
41
0.0
42
0.0
10
83.497802734375
20
80.0205001831055
40
0.0
41
0.0
42
0.0
10
83.5242004394531
20
79.9915008544922
40
0.0
41
0.0
42
0.0
10
83.5771026611328
20
79.8723983764648
40
0.0
41
0.0
42
0.0
10
83.7011032104492
20
79.4838027954102
40
0.0
41
0.0
42
0.0
10
83.7079010009766
20
79.3686981201172
40
0.0
41
0.0
42
0.0
10
83.7061004638672
20
79.0189971923828
40
0.0
41
0.0
42
0.0
10
83.6960983276367
20
78.9026031494141
40
0.0
41
0.0
42
0.0
10
83.6435012817383
20
78.5162963867188
40
0.0
41
0.0
42
0.0
10
83.5608978271484
20
78.1308975219727
40
0.0
41
0.0
42
0.0
10
83.5404968261719
20
78.0156021118164
40
0.0
41
0.0
42
0.0
10
83.446403503418
20
77.6377029418945
40
0.0
41
0.0
42
0.0
10
83.3915023803711
20
77.4001007080078
40
0.0
41
0.0
42
0.0
10
83.2970962524414
20
77.0164031982422
40
0.0
41
0.0
42
0.0
10
83.285400390625
20
76.9022979736328
40
0.0
41
0.0
42
0.0
10
83.2259979248047
20
76.5183029174805
40
0.0
41
0.0
42
0.0
10
83.2258987426758
20
76.4820022583008
40
0.0
41
0.0
42
0.0
10
83.2421035766602
20
76.3991012573242
40
0.0
41
0.0
42
0.0
10
83.2714004516602
20
75.9844970703125
40
0.0
41
0.0
42
0.0
10
83.4318008422852
20
75.5623016357422
40
0.0
41
0.0
42
0.0
10
83.470703125
20
75.4903030395508
40
0.0
41
0.0
42
0.0
10
83.5092010498047
20
75.4255981445312
40
0.0
41
0.0
42
0.0
10
83.6980972290039
20
75.0652008056641
40
0.0
41
0.0
42
0.0
10
83.7425003051758
20
74.9905014038086
40
0.0
41
0.0
42
0.0
10
84.0287017822266
20
74.489501953125
40
0.0
41
0.0
42
0.0
10
84.0632019042969
20
74.4142990112305
40
0.0
41
0.0
42
0.0
10
84.2938995361328
20
73.988899230957
40
0.0
41
0.0
42
0.0
10
84.4643020629883
20
73.561897277832
40
0.0
41
0.0
42
0.0
10
84.4871978759766
20
73.4850997924805
40
0.0
41
0.0
42
0.0
10
84.5065002441406
20
73.3914031982422
40
0.0
41
0.0
42
0.0
10
84.6175003051758
20
73.0718994140625
40
0.0
41
0.0
42
0.0
10
84.6268997192383
20
72.9881973266602
40
0.0
41
0.0
42
0.0
10
84.6178970336914
20
72.6321029663086
40
0.0
41
0.0
42
0.0
10
84.5941009521484
20
72.5358963012695
40
0.0
41
0.0
42
0.0
10
84.5820999145508
20
72.5095977783203
40
0.0
41
0.0
42
0.0
10
84.4981994628906
20
72.3852005004883
40
0.0
41
0.0
42
0.0
10
84.3947982788086
20
72.1689987182617
40
0.0
41
0.0
42
0.0
10
84.3768005371094
20
72.125602722168
40
0.0
41
0.0
42
0.0
10
84.3078002929688
20
72.0067977905273
40
0.0
41
0.0
42
0.0
10
84.2620010375977
20
71.9629974365234
40
0.0
41
0.0
42
0.0
10
83.9942016601562
20
71.7264022827148
40
0.0
41
0.0
42
0.0
10
83.7622985839844
20
71.5038986206055
40
0.0
41
0.0
42
0.0
10
83.7227020263672
20
71.4744033813477
40
0.0
41
0.0
42
0.0
10
83.4917984008789
20
71.3190002441406
40
0.0
41
0.0
42
0.0
10
83.3768005371094
20
71.238899230957
40
0.0
41
0.0
42
0.0
10
83.0281982421875
20
71.0085983276367
40
0.0
41
0.0
42
0.0
10
82.9909973144531
20
70.9863967895508
40
0.0
41
0.0
42
0.0
10
82.8760986328125
20
70.9124984741211
40
0.0
41
0.0
42
0.0
10
82.2817993164062
20
70.5497970581055
40
0.0
41
0.0
42
0.0
10
82.2079010009766
20
70.5031967163086
40
0.0
41
0.0
42
0.0
10
82.1692962646484
20
70.4676971435547
40
0.0
41
0.0
42
0.0
10
81.9936981201172
20
70.3302001953125
40
0.0
41
0.0
42
0.0
10
81.7339019775391
20
70.0838012695312
40
0.0
41
0.0
42
0.0
10
81.7073974609375
20
70.0569000244141
40
0.0
41
0.0
42
0.0
10
81.6638031005859
20
70.0084991455078
40
0.0
41
0.0
42
0.0
10
81.6355972290039
20
69.9434967041016
40
0.0
41
0.0
42
0.0
10
81.4982986450195
20
69.7240982055664
40
0.0
41
0.0
42
0.0
10
81.3996963500977
20
69.5207977294922
40
0.0
41
0.0
42
0.0
10
81.3768005371094
20
69.4389038085938
40
0.0
41
0.0
42
0.0
10
81.2384033203125
20
69.0140991210938
40
0.0
41
0.0
42
0.0
10
81.2192993164062
20
68.9394989013672
40
0.0
41
0.0
42
0.0
10
81.1011962890625
20
68.5140991210938
40
0.0
41
0.0
42
0.0
10
80.950798034668
20
68.0128021240234
40
0.0
41
0.0
42
0.0
10
80.918701171875
20
67.9373016357422
40
0.0
41
0.0
42
0.0
10
80.7669982910156
20
67.5108032226562
40
0.0
41
0.0
42
0.0
10
80.7197036743164
20
67.4347991943359
40
0.0
41
0.0
42
0.0
10
80.5152969360352
20
67.0092010498047
40
0.0
41
0.0
42
0.0
10
80.5094985961914
20
67.0010986328125
40
0.0
41
0.0
42
0.0
10
80.4969024658203
20
66.9736022949219
40
0.0
41
0.0
42
0.0
10
80.4197006225586
20
66.9138031005859
40
0.0
41
0.0
42
0.0
10
80.3796005249023
20
66.880500793457
40
0.0
41
0.0
42
0.0
10
80.0526962280273
20
66.5156021118164
40
0.0
41
0.0
42
0.0
10
80.0205993652344
20
66.5019989013672
40
0.0
41
0.0
42
0.0
10
79.9916000366211
20
66.4755020141602
40
0.0
41
0.0
42
0.0
10
79.8723983764648
20
66.4225997924805
40
0.0
41
0.0
42
0.0
10
79.4838027954102
20
66.2985000610352
40
0.0
41
0.0
42
0.0
10
79.0954971313477
20
66.3003997802734
40
0.0
41
0.0
42
0.0
10
79.0072021484375
20
66.2950973510742
40
0.0
41
0.0
42
0.0
10
78.6325988769531
20
66.3460006713867
40
0.0
41
0.0
42
0.0
10
78.5167999267578
20
66.3561019897461
40
0.0
41
0.0
42
0.0
10
78.1308975219727
20
66.4389038085938
40
0.0
41
0.0
42
0.0
10
78.0155029296875
20
66.459098815918
40
0.0
41
0.0
42
0.0
10
77.8579025268555
20
66.4994964599609
40
0.0
41
0.0
42
0.0
10
77.6377029418945
20
66.5532989501953
40
0.0
41
0.0
42
0.0
10
77.5150985717773
20
66.5818023681641
40
0.0
41
0.0
42
0.0
10
77.1300964355469
20
66.6765975952148
40
0.0
41
0.0
42
0.0
10
77.015998840332
20
66.7026977539062
40
0.0
41
0.0
42
0.0
10
76.6323013305664
20
66.7621994018555
40
0.0
41
0.0
42
0.0
10
76.5188980102539
20
66.7739028930664
40
0.0
41
0.0
42
0.0
10
76.4806976318359
20
66.7738037109375
40
0.0
41
0.0
42
0.0
10
76.0578002929688
20
66.7427978515625
40
0.0
41
0.0
42
0.0
10
75.9857025146484
20
66.7286987304688
40
0.0
41
0.0
42
0.0
10
75.5636978149414
20
66.568603515625
40
0.0
41
0.0
42
0.0
10
75.4903030395508
20
66.5290985107422
40
0.0
41
0.0
42
0.0
10
75.4255981445312
20
66.4905014038086
40
0.0
41
0.0
42
0.0
10
75.0652008056641
20
66.3015975952148
40
0.0
41
0.0
42
0.0
10
74.9905014038086
20
66.2573013305664
40
0.0
41
0.0
42
0.0
10
74.4901962280273
20
65.9713973999023
40
0.0
41
0.0
42
0.0
10
74.0643005371094
20
65.7406005859375
40
0.0
41
0.0
42
0.0
10
73.9881973266602
20
65.7055969238281
40
0.0
41
0.0
42
0.0
10
73.561897277832
20
65.535400390625
40
0.0
41
0.0
42
0.0
10
73.4850997924805
20
65.5124969482422
40
0.0
41
0.0
42
0.0
10
73.3914031982422
20
65.4932022094727
40
0.0
41
0.0
42
0.0
10
73.0718994140625
20
65.3822021484375
40
0.0
41
0.0
42
0.0
10
72.9881973266602
20
65.372802734375
40
0.0
41
0.0
42
0.0
10
72.6321029663086
20
65.3817977905273
40
0.0
41
0.0
42
0.0
10
72.5358963012695
20
65.4056015014648
40
0.0
41
0.0
42
0.0
10
72.5095977783203
20
65.4176025390625
40
0.0
41
0.0
42
0.0
10
72.3852005004883
20
65.5016021728516
40
0.0
41
0.0
42
0.0
10
72.1689987182617
20
65.6048965454102
40
0.0
41
0.0
42
0.0
10
72.125602722168
20
65.6229019165039
40
0.0
41
0.0
42
0.0
10
72.0067977905273
20
65.6919021606445
40
0.0
41
0.0
42
0.0
10
71.9628982543945
20
65.7378005981445
40
0.0
41
0.0
42
0.0
10
71.7263031005859
20
66.0056991577148
40
0.0
41
0.0
42
0.0
10
71.5037994384766
20
66.2375030517578
40
0.0
41
0.0
42
0.0
10
71.4742965698242
20
66.2770004272461
40
0.0
41
0.0
42
0.0
10
71.3189010620117
20
66.5080032348633
40
0.0
41
0.0
42
0.0
10
71.2388000488281
20
66.6231002807617
40
0.0
41
0.0
42
0.0
10
71.0085983276367
20
66.9714965820312
40
0.0
41
0.0
42
0.0
10
70.9862976074219
20
67.008903503418
40
0.0
41
0.0
42
0.0
10
70.901496887207
20
67.1416015625
40
0.0
41
0.0
42
0.0
10
70.5496978759766
20
67.717903137207
40
0.0
41
0.0
42
0.0
10
70.5031967163086
20
67.7918014526367
40
0.0
41
0.0
42
0.0
10
70.4676971435547
20
67.8304977416992
40
0.0
41
0.0
42
0.0
10
70.3302001953125
20
68.0062026977539
40
0.0
41
0.0
42
0.0
10
70.0838012695312
20
68.2658004760742
40
0.0
41
0.0
42
0.0
10
70.0569000244141
20
68.2923965454102
40
0.0
41
0.0
42
0.0
10
70.0083999633789
20
68.3358993530273
40
0.0
41
0.0
42
0.0
10
69.9433975219727
20
68.3640975952148
40
0.0
41
0.0
42
0.0
10
69.7240982055664
20
68.5015029907227
40
0.0
41
0.0
42
0.0
10
69.5204010009766
20
68.6003036499023
40
0.0
41
0.0
42
0.0
10
69.0888977050781
20
68.741096496582
40
0.0
41
0.0
42
0.0
10
68.5895004272461
20
68.8792037963867
40
0.0
41
0.0
42
0.0
10
68.5142974853516
20
68.8983993530273
40
0.0
41
0.0
42
0.0
10
68.0128021240234
20
69.0488967895508
40
0.0
41
0.0
42
0.0
10
67.9373016357422
20
69.0811004638672
40
0.0
41
0.0
42
0.0
10
67.5118026733398
20
69.2323989868164
40
0.0
41
0.0
42
0.0
10
67.0847015380859
20
69.4375
40
0.0
41
0.0
42
0.0
10
67.0017013549805
20
69.4899978637695
40
0.0
41
0.0
42
0.0
10
66.973503112793
20
69.5029983520508
40
0.0
41
0.0
42
0.0
10
66.9123001098633
20
69.5818023681641
40
0.0
41
0.0
42
0.0
10
66.880500793457
20
69.6203002929688
40
0.0
41
0.0
42
0.0
10
66.5156021118164
20
69.9470977783203
40
0.0
41
0.0
42
0.0
10
66.5018997192383
20
69.9792022705078
40
0.0
41
0.0
42
0.0
10
66.4755020141602
20
70.00830078125
40
0.0
41
0.0
42
0.0
10
66.4225997924805
20
70.1274032592773
40
0.0
41
0.0
42
0.0
10
66.2985000610352
20
70.5160980224609
40
0.0
41
0.0
42
0.0
10
66.3003997802734
20
70.9044036865234
40
0.0
41
0.0
42
0.0
10
66.2950973510742
20
70.9926986694336
40
0.0
41
0.0
42
0.0
10
66.3460006713867
20
71.367301940918
40
0.0
41
0.0
42
0.0
10
66.3561019897461
20
71.4831008911133
40
0.0
41
0.0
42
0.0
10
66.4389038085938
20
71.8690032958984
40
0.0
41
0.0
42
0.0
10
66.4591979980469
20
71.9843978881836
40
0.0
41
0.0
42
0.0
10
66.4994964599609
20
72.1418991088867
40
0.0
41
0.0
42
0.0
10
66.5532989501953
20
72.3621978759766
40
0.0
41
0.0
42
0.0
10
66.5818023681641
20
72.4848022460938
40
0.0
41
0.0
42
0.0
10
66.6765975952148
20
72.8697967529297
40
0.0
41
0.0
42
0.0
10
66.7026977539062
20
72.9839019775391
40
0.0
41
0.0
42
0.0
10
66.7621994018555
20
73.3675994873047
40
0.0
41
0.0
42
0.0
10
66.7739028930664
20
73.4810028076172
40
0.0
41
0.0
42
0.0
10
66.7738037109375
20
73.5192031860352
40
0.0
41
0.0
42
0.0
10
66.7427978515625
20
73.9421005249023
40
0.0
41
0.0
42
0.0
10
66.7286987304688
20
74.0140991210938
40
0.0
41
0.0
42
0.0
10
66.568603515625
20
74.4362030029297
40
0.0
41
0.0
42
0.0
10
66.5289993286133
20
74.5095977783203
40
0.0
41
0.0
42
0.0
10
66.4905014038086
20
74.5743026733398
40
0.0
41
0.0
42
0.0
10
66.3014984130859
20
74.934700012207
40
0.0
41
0.0
42
0.0
10
66.2572021484375
20
75.0093002319336
40
0.0
41
0.0
42
0.0
10
65.9712982177734
20
75.5096969604492
40
0.0
41
0.0
42
0.0
10
65.7405014038086
20
75.9355010986328
40
0.0
41
0.0
42
0.0
10
65.7055969238281
20
76.0115966796875
40
0.0
41
0.0
42
0.0
10
65.535400390625
20
76.4380035400391
40
0.0
41
0.0
42
0.0
10
65.5124969482422
20
76.5148010253906
40
0.0
41
0.0
42
0.0
10
65.4932022094727
20
76.6082992553711
40
0.0
41
0.0
42
0.0
10
65.3822021484375
20
76.9280014038086
40
0.0
41
0.0
42
0.0
10
65.372802734375
20
77.0117034912109
40
0.0
41
0.0
42
0.0
10
65.3817977905273
20
77.3677978515625
40
0.0
41
0.0
42
0.0
210
0.0
220
0.0
230
1.0
0
LWPOLYLINE
5
25
330
1C
100
AcDbEntity
67
0
8
0
62
256
6
ByLayer
370
-1
48
1.0
60
0
100
AcDbPolyline
90
39
70
1
38
0.0
39
0.0
10
66.1399993896484
20
84.8932037353516
40
0.0
41
0.0
42
0.0
10
66.2683029174805
20
84.493896484375
40
0.0
41
0.0
42
0.0
10
66.4737014770508
20
84.3713989257812
40
0.0
41
0.0
42
0.0
10
66.4817962646484
20
84.3696975708008
40
0.0
41
0.0
42
0.0
10
66.5615005493164
20
84.3705978393555
40
0.0
41
0.0
42
0.0
10
66.9813995361328
20
84.3081970214844
40
0.0
41
0.0
42
0.0
10
67.4432983398438
20
84.3125991821289
40
0.0
41
0.0
42
0.0
10
67.6623992919922
20
84.3442993164062
40
0.0
41
0.0
42
0.0
10
68.0174026489258
20
84.3678970336914
40
0.0
41
0.0
42
0.0
10
68.2886962890625
20
84.4152984619141
40
0.0
41
0.0
42
0.0
10
68.5164031982422
20
84.4403991699219
40
0.0
41
0.0
42
0.0
10
68.7667007446289
20
84.5001983642578
40
0.0
41
0.0
42
0.0
10
69.0109024047852
20
84.5776977539062
40
0.0
41
0.0
42
0.0
10
69.2332992553711
20
84.7220001220703
40
0.0
41
0.0
42
0.0
10
69.2815017700195
20
84.7468032836914
40
0.0
41
0.0
42
0.0
10
69.5074996948242
20
84.8510971069336
40
0.0
41
0.0
42
0.0
10
69.6377029418945
20
84.9882965087891
40
0.0
41
0.0
42
0.0
10
69.6377029418945
20
84.9990005493164
40
0.0
41
0.0
42
0.0
10
69.5549011230469
20
84.9989013671875
40
0.0
41
0.0
42
0.0
10
69.4925003051758
20
84.9330978393555
40
0.0
41
0.0
42
0.0
10
69.359001159668
20
84.8703002929688
40
0.0
41
0.0
42
0.0
10
68.9889984130859
20
84.6302032470703
40
0.0
41
0.0
42
0.0
10
68.5776977539062
20
84.4997024536133
40
0.0
41
0.0
42
0.0
10
68.4835968017578
20
84.4772033691406
40
0.0
41
0.0
42
0.0
10
68.3994979858398
20
84.467903137207
40
0.0
41
0.0
42
0.0
10
67.9824981689453
20
84.3948974609375
40
0.0
41
0.0
42
0.0
10
67.7039031982422
20
84.3764038085938
40
0.0
41
0.0
42
0.0
10
67.3666000366211
20
84.3277969360352
40
0.0
41
0.0
42
0.0
10
67.0158996582031
20
84.3240966796875
40
0.0
41
0.0
42
0.0
10
66.6335983276367
20
84.3808975219727
40
0.0
41
0.0
42
0.0
10
66.5140991210938
20
84.3789978027344
40
0.0
41
0.0
42
0.0
10
66.4909973144531
20
84.3835983276367
40
0.0
41
0.0
42
0.0
10
66.286003112793
20
84.5059967041016
40
0.0
41
0.0
42
0.0
10
66.1608963012695
20
84.8958969116211
40
0.0
41
0.0
42
0.0
10
66.1380004882812
20
84.9311981201172
40
0.0
41
0.0
42
0.0
10
66.0639038085938
20
84.9990005493164
40
0.0
41
0.0
42
0.0
10
66.0348968505859
20
84.9990005493164
40
0.0
41
0.0
42
0.0
10
66.034797668457
20
84.9891967773438
40
0.0
41
0.0
42
0.0
10
66.1399993896484
20
84.8932037353516
40
0.0
41
0.0
42
0.0
210
0.0
220
0.0
230
1.0
0
LWPOLYLINE
5
26
330
1C
100
AcDbEntity
67
0
8
0
62
256
6
ByLayer
370
-1
48
1.0
60
0
100
AcDbPolyline
90
208
70
1
38
0.0
39
0.0
10
69.3877029418945
20
73.9896011352539
40
0.0
41
0.0
42
0.0
10
69.4940032958984
20
73.8832015991211
40
0.0
41
0.0
42
0.0
10
69.8777008056641
20
73.5690994262695
40
0.0
41
0.0
42
0.0
10
69.8956985473633
20
73.5560989379883
40
0.0
41
0.0
42
0.0
10
69.9897003173828
20
73.5131988525391
40
0.0
41
0.0
42
0.0
10
70.0143966674805
20
73.4985961914062
40
0.0
41
0.0
42
0.0
10
70.3720016479492
20
73.3373031616211
40
0.0
41
0.0
42
0.0
10
70.4847030639648
20
73.3071975708008
40
0.0
41
0.0
42
0.0
10
70.6007995605469
20
73.2845001220703
40
0.0
41
0.0
42
0.0
10
70.9860992431641
20
73.135498046875
40
0.0
41
0.0
42
0.0
10
71.0699996948242
20
73.1159973144531
40
0.0
41
0.0
42
0.0
10
71.3339004516602
20
72.9949035644531
40
0.0
41
0.0
42
0.0
10
71.4586029052734
20
72.559700012207
40
0.0
41
0.0
42
0.0
10
71.4686965942383
20
72.5042037963867
40
0.0
41
0.0
42
0.0
10
71.4493026733398
20
72.4401016235352
40
0.0
41
0.0
42
0.0
10
71.3772964477539
20
72.0155029296875
40
0.0
41
0.0
42
0.0
10
71.3572006225586
20
71.9404983520508
40
0.0
41
0.0
42
0.0
10
71.3507995605469
20
71.9020004272461
40
0.0
41
0.0
42
0.0
10
71.3049011230469
20
71.5173034667969
40
0.0
41
0.0
42
0.0
10
71.2895965576172
20
71.4035034179688
40
0.0
41
0.0
42
0.0
10
71.2894973754883
20
71.3655014038086
40
0.0
41
0.0
42
0.0
10
71.3087005615234
20
70.9813995361328
40
0.0
41
0.0
42
0.0
10
71.3189010620117
20
70.870002746582
40
0.0
41
0.0
42
0.0
10
71.4446029663086
20
70.5635986328125
40
0.0
41
0.0
42
0.0
10
71.494499206543
20
70.481201171875
40
0.0
41
0.0
42
0.0
10
71.8707962036133
20
70.314697265625
40
0.0
41
0.0
42
0.0
10
71.9814987182617
20
70.2987976074219
40
0.0
41
0.0
42
0.0
10
72.0166015625
20
70.298698425293
40
0.0
41
0.0
42
0.0
10
72.129997253418
20
70.3360977172852
40
0.0
41
0.0
42
0.0
10
72.5141983032227
20
70.3983993530273
40
0.0
41
0.0
42
0.0
10
72.5990982055664
20
70.4338989257812
40
0.0
41
0.0
42
0.0
10
72.7143020629883
20
70.4994964599609
40
0.0
41
0.0
42
0.0
10
73.0101013183594
20
70.613899230957
40
0.0
41
0.0
42
0.0
10
73.124397277832
20
70.6931991577148
40
0.0
41
0.0
42
0.0
10
73.5139007568359
20
70.8790969848633
40
0.0
41
0.0
42
0.0
10
73.9012985229492
20
70.9331970214844
40
0.0
41
0.0
42
0.0
10
73.9382019042969
20
70.9412994384766
40
0.0
41
0.0
42
0.0
10
73.9969024658203
20
70.9686965942383
40
0.0
41
0.0
42
0.0
10
74.4961013793945
20
70.4138031005859
40
0.0
41
0.0
42
0.0
10
74.7543029785156
20
70.0715026855469
40
0.0
41
0.0
42
0.0
10
74.7977981567383
20
69.9917984008789
40
0.0
41
0.0
42
0.0
10
74.9485015869141
20
69.8113021850586
40
0.0
41
0.0
42
0.0
10
74.9962997436523
20
69.7381973266602
40
0.0
41
0.0
42
0.0
10
75.0337982177734
20
69.7001037597656
40
0.0
41
0.0
42
0.0
10
75.3404006958008
20
69.4970016479492
40
0.0
41
0.0
42
0.0
10
75.4192962646484
20
69.4372024536133
40
0.0
41
0.0
42
0.0
10
75.4904022216797
20
69.3647003173828
40
0.0
41
0.0
42
0.0
10
75.5970001220703
20
69.3434982299805
40
0.0
41
0.0
42
0.0
10
75.6336975097656
20
69.3433990478516
40
0.0
41
0.0
42
0.0
10
76.0102996826172
20
69.3878021240234
40
0.0
41
0.0
42
0.0
10
76.1165008544922
20
69.4941024780273
40
0.0
41
0.0
42
0.0
10
76.4307022094727
20
69.877799987793
40
0.0
41
0.0
42
0.0
10
76.4437026977539
20
69.8956985473633
40
0.0
41
0.0
42
0.0
10
76.4865036010742
20
69.9897003173828
40
0.0
41
0.0
42
0.0
10
76.5012969970703
20
70.0145034790039
40
0.0
41
0.0
42
0.0
10
76.6623992919922
20
70.3720016479492
40
0.0
41
0.0
42
0.0
10
76.6930999755859
20
70.4865036010742
40
0.0
41
0.0
42
0.0
10
76.8415985107422
20
70.8707962036133
40
0.0
41
0.0
42
0.0
10
76.8638000488281
20
70.9842987060547
40
0.0
41
0.0
42
0.0
10
76.8836975097656
20
71.0700988769531
40
0.0
41
0.0
42
0.0
10
77.004997253418
20
71.3339004516602
40
0.0
41
0.0
42
0.0
10
77.4402008056641
20
71.4586029052734
40
0.0
41
0.0
42
0.0
10
77.4956970214844
20
71.4686965942383
40
0.0
41
0.0
42
0.0
10
77.5597991943359
20
71.4493026733398
40
0.0
41
0.0
42
0.0
10
77.9843978881836
20
71.3772964477539
40
0.0
41
0.0
42
0.0
10
78.0594024658203
20
71.3572006225586
40
0.0
41
0.0
42
0.0
10
78.097900390625
20
71.3507995605469
40
0.0
41
0.0
42
0.0
10
78.4825973510742
20
71.3049011230469
40
0.0
41
0.0
42
0.0
10
78.5963973999023
20
71.2895965576172
40
0.0
41
0.0
42
0.0
10
78.6343994140625
20
71.2894973754883
40
0.0
41
0.0
42
0.0
10
79.0185012817383
20
71.3087005615234
40
0.0
41
0.0
42
0.0
10
79.1298980712891
20
71.3190002441406
40
0.0
41
0.0
42
0.0
10
79.4362030029297
20
71.4446029663086
40
0.0
41
0.0
42
0.0
10
79.5185012817383
20
71.494499206543
40
0.0
41
0.0
42
0.0
10
79.6849975585938
20
71.8707962036133
40
0.0
41
0.0
42
0.0
10
79.7011032104492
20
71.9814987182617
40
0.0
41
0.0
42
0.0
10
79.7009963989258
20
72.0183029174805
40
0.0
41
0.0
42
0.0
10
79.6389999389648
20
72.39990234375
40
0.0
41
0.0
42
0.0
10
79.6018981933594
20
72.5126037597656
40
0.0
41
0.0
42
0.0
10
79.565803527832
20
72.5990982055664
40
0.0
41
0.0
42
0.0
10
79.5002975463867
20
72.7143020629883
40
0.0
41
0.0
42
0.0
10
79.3852005004883
20
73.0115966796875
40
0.0
41
0.0
42
0.0
10
79.2024993896484
20
73.3943023681641
40
0.0
41
0.0
42
0.0
10
79.1207962036133
20
73.5121002197266
40
0.0
41
0.0
42
0.0
10
79.0664978027344
20
73.9012985229492
40
0.0
41
0.0
42
0.0
10
79.0585021972656
20
73.9382019042969
40
0.0
41
0.0
42
0.0
10
79.0309982299805
20
73.9970016479492
40
0.0
41
0.0
42
0.0
10
79.1113967895508
20
74.0708999633789
40
0.0
41
0.0
42
0.0
10
79.1344985961914
20
74.089599609375
40
0.0
41
0.0
42
0.0
10
79.5058975219727
20
74.4226989746094
40
0.0
41
0.0
42
0.0
10
79.5858993530273
20
74.4961013793945
40
0.0
41
0.0
42
0.0
10
79.9282989501953
20
74.7543029785156
40
0.0
41
0.0
42
0.0
10
80.0081024169922
20
74.7978973388672
40
0.0
41
0.0
42
0.0
10
80.1884994506836
20
74.9485015869141
40
0.0
41
0.0
42
0.0
10
80.2615966796875
20
74.9963989257812
40
0.0
41
0.0
42
0.0
10
80.2995986938477
20
75.0338973999023
40
0.0
41
0.0
42
0.0
10
80.502799987793
20
75.3404006958008
40
0.0
41
0.0
42
0.0
10
80.5625
20
75.4194030761719
40
0.0
41
0.0
42
0.0
10
80.6333999633789
20
75.4888000488281
40
0.0
41
0.0
42
0.0
10
80.63330078125
20
75.5186996459961
40
0.0
41
0.0
42
0.0
10
80.5906982421875
20
75.8805999755859
40
0.0
41
0.0
42
0.0
10
80.6110000610352
20
75.9821014404297
40
0.0
41
0.0
42
0.0
10
80.6110000610352
20
76.0111999511719
40
0.0
41
0.0
42
0.0
10
80.5057983398438
20
76.1165008544922
40
0.0
41
0.0
42
0.0
10
80.1221008300781
20
76.4306030273438
40
0.0
41
0.0
42
0.0
10
80.1039962768555
20
76.443603515625
40
0.0
41
0.0
42
0.0
10
80.0102005004883
20
76.4863967895508
40
0.0
41
0.0
42
0.0
10
79.9852981567383
20
76.5011978149414
40
0.0
41
0.0
42
0.0
10
79.6278991699219
20
76.6623992919922
40
0.0
41
0.0
42
0.0
10
79.5133972167969
20
76.693000793457
40
0.0
41
0.0
42
0.0
10
79.1290969848633
20
76.8415985107422
40
0.0
41
0.0
42
0.0
10
79.0156021118164
20
76.8638000488281
40
0.0
41
0.0
42
0.0
10
78.9297027587891
20
76.8835983276367
40
0.0
41
0.0
42
0.0
10
78.6658020019531
20
77.0048980712891
40
0.0
41
0.0
42
0.0
10
78.5410995483398
20
77.4402008056641
40
0.0
41
0.0
42
0.0
10
78.5309982299805
20
77.4956970214844
40
0.0
41
0.0
42
0.0
10
78.5503997802734
20
77.5597991943359
40
0.0
41
0.0
42
0.0
10
78.6221008300781
20
77.9830017089844
40
0.0
41
0.0
42
0.0
10
78.6716003417969
20
78.3964996337891
40
0.0
41
0.0
42
0.0
10
78.6948013305664
20
78.4826965332031
40
0.0
41
0.0
42
0.0
10
78.6947021484375
20
78.519401550293
40
0.0
41
0.0
42
0.0
10
78.6768035888672
20
78.8766021728516
40
0.0
41
0.0
42
0.0
10
78.6911010742188
20
78.9813995361328
40
0.0
41
0.0
42
0.0
10
78.6910018920898
20
79.0189971923828
40
0.0
41
0.0
42
0.0
10
78.6808013916016
20
79.1298980712891
40
0.0
41
0.0
42
0.0
10
78.5550994873047
20
79.4362030029297
40
0.0
41
0.0
42
0.0
10
78.5053024291992
20
79.5185012817383
40
0.0
41
0.0
42
0.0
10
78.1290969848633
20
79.6849975585938
40
0.0
41
0.0
42
0.0
10
78.0184020996094
20
79.7011032104492
40
0.0
41
0.0
42
0.0
10
77.9815979003906
20
79.7009963989258
40
0.0
41
0.0
42
0.0
10
77.5999984741211
20
79.6390991210938
40
0.0
41
0.0
42
0.0
10
77.4872970581055
20
79.6019973754883
40
0.0
41
0.0
42
0.0
10
77.4007034301758
20
79.5659027099609
40
0.0
41
0.0
42
0.0
10
77.2854995727539
20
79.5002975463867
40
0.0
41
0.0
42
0.0
10
76.9882965087891
20
79.3852005004883
40
0.0
41
0.0
42
0.0
10
76.6054992675781
20
79.2024993896484
40
0.0
41
0.0
42
0.0
10
76.4878005981445
20
79.1207962036133
40
0.0
41
0.0
42
0.0
10
76.0986022949219
20
79.0664978027344
40
0.0
41
0.0
42
0.0
10
76.0616989135742
20
79.0586013793945
40
0.0
41
0.0
42
0.0
10
75.9989013671875
20
79.0289993286133
40
0.0
41
0.0
42
0.0
10
75.9291000366211
20
79.1112976074219
40
0.0
41
0.0
42
0.0
10
75.5786972045898
20
79.5017013549805
40
0.0
41
0.0
42
0.0
10
75.5755004882812
20
79.5075988769531
40
0.0
41
0.0
42
0.0
10
75.5037002563477
20
79.5858993530273
40
0.0
41
0.0
42
0.0
10
75.2453994750977
20
79.9282989501953
40
0.0
41
0.0
42
0.0
10
75.2017974853516
20
80.0080032348633
40
0.0
41
0.0
42
0.0
10
75.0512008666992
20
80.1884002685547
40
0.0
41
0.0
42
0.0
10
75.0035018920898
20
80.2615966796875
40
0.0
41
0.0
42
0.0
10
74.9658966064453
20
80.2994995117188
40
0.0
41
0.0
42
0.0
10
74.6594009399414
20
80.502799987793
40
0.0
41
0.0
42
0.0
10
74.5803985595703
20
80.5625
40
0.0
41
0.0
42
0.0
10
74.511100769043
20
80.6333999633789
40
0.0
41
0.0
42
0.0
10
74.481201171875
20
80.63330078125
40
0.0
41
0.0
42
0.0
10
74.1193008422852
20
80.5906982421875
40
0.0
41
0.0
42
0.0
10
74.0177993774414
20
80.6110000610352
40
0.0
41
0.0
42
0.0
10
73.9886016845703
20
80.6110000610352
40
0.0
41
0.0
42
0.0
10
73.88330078125
20
80.5057983398438
40
0.0
41
0.0
42
0.0
10
73.5690994262695
20
80.1221008300781
40
0.0
41
0.0
42
0.0
10
73.5560989379883
20
80.1041030883789
40
0.0
41
0.0
42
0.0
10
73.5131988525391
20
80.0102996826172
40
0.0
41
0.0
42
0.0
10
73.4985961914062
20
79.9853973388672
40
0.0
41
0.0
42
0.0
10
73.3373031616211
20
79.6278991699219
40
0.0
41
0.0
42
0.0
10
73.3071975708008
20
79.5151977539062
40
0.0
41
0.0
42
0.0
10
73.2845001220703
20
79.3991012573242
40
0.0
41
0.0
42
0.0
10
73.135498046875
20
79.013801574707
40
0.0
41
0.0
42
0.0
10
73.116096496582
20
78.929801940918
40
0.0
41
0.0
42
0.0
10
72.995002746582
20
78.6658020019531
40
0.0
41
0.0
42
0.0
10
72.559700012207
20
78.5410995483398
40
0.0
41
0.0
42
0.0
10
72.5042037963867
20
78.5309982299805
40
0.0
41
0.0
42
0.0
10
72.4401016235352
20
78.5503997802734
40
0.0
41
0.0
42
0.0
10
72.0168991088867
20
78.6221008300781
40
0.0
41
0.0
42
0.0
10
71.603401184082
20
78.671501159668
40
0.0
41
0.0
42
0.0
10
71.5171966552734
20
78.6948013305664
40
0.0
41
0.0
42
0.0
10
71.4804992675781
20
78.6947021484375
40
0.0
41
0.0
42
0.0
10
71.1232986450195
20
78.6768035888672
40
0.0
41
0.0
42
0.0
10
71.0185012817383
20
78.6911010742188
40
0.0
41
0.0
42
0.0
10
70.9809036254883
20
78.6910018920898
40
0.0
41
0.0
42
0.0
10
70.870002746582
20
78.6808013916016
40
0.0
41
0.0
42
0.0
10
70.5635986328125
20
78.5550994873047
40
0.0
41
0.0
42
0.0
10
70.4813003540039
20
78.5054016113281
40
0.0
41
0.0
42
0.0
10
70.3147964477539
20
78.1290969848633
40
0.0
41
0.0
42
0.0
10
70.2987976074219
20
78.0184020996094
40
0.0
41
0.0
42
0.0
10
70.298698425293
20
77.9832992553711
40
0.0
41
0.0
42
0.0
10
70.3360977172852
20
77.8699035644531
40
0.0
41
0.0
42
0.0
10
70.3983993530273
20
77.4857025146484
40
0.0
41
0.0
42
0.0
10
70.4338989257812
20
77.4007034301758
40
0.0
41
0.0
42
0.0
10
70.4994964599609
20
77.285400390625
40
0.0
41
0.0
42
0.0
10
70.613899230957
20
76.9897994995117
40
0.0
41
0.0
42
0.0
10
70.6931991577148
20
76.8755035400391
40
0.0
41
0.0
42
0.0
10
70.8790969848633
20
76.4860000610352
40
0.0
41
0.0
42
0.0
10
70.9331970214844
20
76.0986022949219
40
0.0
41
0.0
42
0.0
10
70.9412002563477
20
76.0616989135742
40
0.0
41
0.0
42
0.0
10
70.970703125
20
75.9989013671875
40
0.0
41
0.0
42
0.0
10
70.8884963989258
20
75.9291000366211
40
0.0
41
0.0
42
0.0
10
70.4981002807617
20
75.5787963867188
40
0.0
41
0.0
42
0.0
10
70.4924011230469
20
75.5755996704102
40
0.0
41
0.0
42
0.0
10
70.4139022827148
20
75.5037994384766
40
0.0
41
0.0
42
0.0
10
70.0716018676758
20
75.2453994750977
40
0.0
41
0.0
42
0.0
10
69.9917984008789
20
75.2018966674805
40
0.0
41
0.0
42
0.0
10
69.8113021850586
20
75.0513000488281
40
0.0
41
0.0
42
0.0
10
69.7382965087891
20
75.0035018920898
40
0.0
41
0.0
42
0.0
10
69.7001037597656
20
74.9658966064453
40
0.0
41
0.0
42
0.0
10
69.4971008300781
20
74.6594009399414
40
0.0
41
0.0
42
0.0
10
69.4373016357422
20
74.5803985595703
40
0.0
41
0.0
42
0.0
10
69.3647003173828
20
74.5094985961914
40
0.0
41
0.0
42
0.0
10
69.3434982299805
20
74.4029006958008
40
0.0
41
0.0
42
0.0
10
69.3433990478516
20
74.3662033081055
40
0.0
41
0.0
42
0.0
10
69.3877029418945
20
73.9896011352539
40
0.0
41
0.0
42
0.0
210
0.0
220
0.0
230
1.0
0
LWPOLYLINE
5
27
330
1C
100
AcDbEntity
67
0
8
0
62
256
6
ByLayer
370
-1
48
1.0
60
0
100
AcDbPolyline
90
216
70
1
38
0.0
39
0.0
10
69.4208984375
20
74.0096969604492
40
0.0
41
0.0
42
0.0
10
69.3724975585938
20
74.4206008911133
40
0.0
41
0.0
42
0.0
10
69.3863983154297
20
74.4904022216797
40
0.0
41
0.0
42
0.0
10
69.439697265625
20
74.5423965454102
40
0.0
41
0.0
42
0.0
10
69.502799987793
20
74.6258010864258
40
0.0
41
0.0
42
0.0
10
69.7286987304688
20
74.9669036865234
40
0.0
41
0.0
42
0.0
10
69.7585983276367
20
74.9962997436523
40
0.0
41
0.0
42
0.0
10
69.807502746582
20
75.0282974243164
40
0.0
41
0.0
42
0.0
10
70.0080032348633
20
75.1957015991211
40
0.0
41
0.0
42
0.0
10
70.1234970092773
20
75.2598037719727
40
0.0
41
0.0
42
0.0
10
70.4367980957031
20
75.4961013793945
40
0.0
41
0.0
42
0.0
10
70.5075988769531
20
75.5606994628906
40
0.0
41
0.0
42
0.0
10
70.5166015625
20
75.5659027099609
40
0.0
41
0.0
42
0.0
10
70.8674011230469
20
75.8807983398438
40
0.0
41
0.0
42
0.0
10
70.9718017578125
20
75.9685974121094
40
0.0
41
0.0
42
0.0
10
70.9856033325195
20
75.9869003295898
40
0.0
41
0.0
42
0.0
10
70.9853973388672
20
76.0151977539062
40
0.0
41
0.0
42
0.0
10
70.9365005493164
20
76.1196975708008
40
0.0
41
0.0
42
0.0
10
70.8814010620117
20
76.513801574707
40
0.0
41
0.0
42
0.0
10
70.6807022094727
20
76.9343032836914
40
0.0
41
0.0
42
0.0
10
70.6281967163086
20
77.0100021362305
40
0.0
41
0.0
42
0.0
10
70.5011978149414
20
77.3382034301758
40
0.0
41
0.0
42
0.0
10
70.4586029052734
20
77.4130020141602
40
0.0
41
0.0
42
0.0
10
70.4163970947266
20
77.5140991210938
40
0.0
41
0.0
42
0.0
10
70.3473968505859
20
77.9399032592773
40
0.0
41
0.0
42
0.0
10
70.3256988525391
20
78.0057983398438
40
0.0
41
0.0
42
0.0
10
70.3337020874023
20
78.0607986450195
40
0.0
41
0.0
42
0.0
10
70.4693984985352
20
78.3675003051758
40
0.0
41
0.0
42
0.0
10
70.5010986328125
20
78.459602355957
40
0.0
41
0.0
42
0.0
10
70.5288009643555
20
78.4959030151367
40
0.0
41
0.0
42
0.0
10
70.592399597168
20
78.5339965820312
40
0.0
41
0.0
42
0.0
10
70.9399032592773
20
78.6765975952148
40
0.0
41
0.0
42
0.0
10
70.9965972900391
20
78.6818008422852
40
0.0
41
0.0
42
0.0
10
71.056396484375
20
78.673698425293
40
0.0
41
0.0
42
0.0
10
71.0943984985352
20
78.6735992431641
40
0.0
41
0.0
42
0.0
10
71.4885025024414
20
78.6931991577148
40
0.0
41
0.0
42
0.0
10
71.5599975585938
20
78.6741027832031
40
0.0
41
0.0
42
0.0
10
71.598503112793
20
78.665397644043
40
0.0
41
0.0
42
0.0
10
71.9829025268555
20
78.6196975708008
40
0.0
41
0.0
42
0.0
10
72.3697967529297
20
78.5540008544922
40
0.0
41
0.0
42
0.0
10
72.4831008911133
20
78.5196990966797
40
0.0
41
0.0
42
0.0
10
72.5180969238281
20
78.5195999145508
40
0.0
41
0.0
42
0.0
10
72.6302032470703
20
78.5397033691406
40
0.0
41
0.0
42
0.0
10
73.0048980712891
20
78.647102355957
40
0.0
41
0.0
42
0.0
10
73.1100006103516
20
78.8761978149414
40
0.0
41
0.0
42
0.0
10
73.1207962036133
20
78.9128036499023
40
0.0
41
0.0
42
0.0
10
73.1378021240234
20
78.9860992431641
40
0.0
41
0.0
42
0.0
10
73.302001953125
20
79.4107971191406
40
0.0
41
0.0
42
0.0
10
73.3164978027344
20
79.4848022460938
40
0.0
41
0.0
42
0.0
10
73.3371963500977
20
79.5621032714844
40
0.0
41
0.0
42
0.0
10
73.4226989746094
20
79.7507019042969
40
0.0
41
0.0
42
0.0
10
73.5011978149414
20
79.92919921875
40
0.0
41
0.0
42
0.0
10
73.5370025634766
20
79.9897003173828
40
0.0
41
0.0
42
0.0
10
73.5656967163086
20
80.0522994995117
40
0.0
41
0.0
42
0.0
10
73.5767974853516
20
80.0678024291992
40
0.0
41
0.0
42
0.0
10
73.9257965087891
20
80.4941024780273
40
0.0
41
0.0
42
0.0
10
74.0070037841797
20
80.5748977661133
40
0.0
41
0.0
42
0.0
10
74.056999206543
20
80.5647964477539
40
0.0
41
0.0
42
0.0
10
74.0936965942383
20
80.5649032592773
40
0.0
41
0.0
42
0.0
10
74.4917984008789
20
80.611701965332
40
0.0
41
0.0
42
0.0
10
74.5422973632812
20
80.5600967407227
40
0.0
41
0.0
42
0.0
10
74.6258010864258
20
80.4971008300781
40
0.0
41
0.0
42
0.0
10
74.966796875
20
80.2710037231445
40
0.0
41
0.0
42
0.0
10
74.9962997436523
20
80.241096496582
40
0.0
41
0.0
42
0.0
10
75.0281982421875
20
80.1921997070312
40
0.0
41
0.0
42
0.0
10
75.1957015991211
20
79.9917984008789
40
0.0
41
0.0
42
0.0
10
75.2596969604492
20
79.8764038085938
40
0.0
41
0.0
42
0.0
10
75.4960021972656
20
79.5628967285156
40
0.0
41
0.0
42
0.0
10
75.5606994628906
20
79.492301940918
40
0.0
41
0.0
42
0.0
10
75.5659027099609
20
79.4832992553711
40
0.0
41
0.0
42
0.0
10
75.8807983398438
20
79.1324005126953
40
0.0
41
0.0
42
0.0
10
75.9684982299805
20
79.0279998779297
40
0.0
41
0.0
42
0.0
10
75.9869003295898
20
79.0142974853516
40
0.0
41
0.0
42
0.0
10
76.0152969360352
20
79.0142974853516
40
0.0
41
0.0
42
0.0
10
76.1196975708008
20
79.0632019042969
40
0.0
41
0.0
42
0.0
10
76.5121002197266
20
79.1179962158203
40
0.0
41
0.0
42
0.0
10
76.5843963623047
20
79.1681976318359
40
0.0
41
0.0
42
0.0
10
77.0117034912109
20
79.3721008300781
40
0.0
41
0.0
42
0.0
10
77.3382034301758
20
79.4984970092773
40
0.0
41
0.0
42
0.0
10
77.4130020141602
20
79.5410995483398
40
0.0
41
0.0
42
0.0
10
77.5126037597656
20
79.5826034545898
40
0.0
41
0.0
42
0.0
10
77.5899963378906
20
79.6081008911133
40
0.0
41
0.0
42
0.0
10
78.0009002685547
20
79.6746978759766
40
0.0
41
0.0
42
0.0
10
78.0607986450195
20
79.6660995483398
40
0.0
41
0.0
42
0.0
10
78.3675994873047
20
79.530403137207
40
0.0
41
0.0
42
0.0
10
78.459602355957
20
79.4985961914062
40
0.0
41
0.0
42
0.0
10
78.4959030151367
20
79.4710006713867
40
0.0
41
0.0
42
0.0
10
78.5338973999023
20
79.4074020385742
40
0.0
41
0.0
42
0.0
10
78.6765975952148
20
79.0599975585938
40
0.0
41
0.0
42
0.0
10
78.6818008422852
20
79.003303527832
40
0.0
41
0.0
42
0.0
10
78.673698425293
20
78.9434967041016
40
0.0
41
0.0
42
0.0
10
78.6735992431641
20
78.9055023193359
40
0.0
41
0.0
42
0.0
10
78.6931991577148
20
78.5113983154297
40
0.0
41
0.0
42
0.0
10
78.6741027832031
20
78.4399032592773
40
0.0
41
0.0
42
0.0
10
78.665397644043
20
78.4013977050781
40
0.0
41
0.0
42
0.0
10
78.6197967529297
20
78.0169982910156
40
0.0
41
0.0
42
0.0
10
78.5541000366211
20
77.6300964355469
40
0.0
41
0.0
42
0.0
10
78.5196990966797
20
77.5167999267578
40
0.0
41
0.0
42
0.0
10
78.5195999145508
20
77.4817962646484
40
0.0
41
0.0
42
0.0
10
78.5395965576172
20
77.3696975708008
40
0.0
41
0.0
42
0.0
10
78.6470031738281
20
76.9949035644531
40
0.0
41
0.0
42
0.0
10
78.8760986328125
20
76.8897018432617
40
0.0
41
0.0
42
0.0
10
78.9128036499023
20
76.8788986206055
40
0.0
41
0.0
42
0.0
10
78.9842987060547
20
76.8623962402344
40
0.0
41
0.0
42
0.0
10
79.0607986450195
20
76.8473968505859
40
0.0
41
0.0
42
0.0
10
79.4863967895508
20
76.6828002929688
40
0.0
41
0.0
42
0.0
10
79.5619964599609
20
76.6624984741211
40
0.0
41
0.0
42
0.0
10
79.7507019042969
20
76.5770034790039
40
0.0
41
0.0
42
0.0
10
79.9291000366211
20
76.4985961914062
40
0.0
41
0.0
42
0.0
10
79.9897003173828
20
76.4626998901367
40
0.0
41
0.0
42
0.0
10
80.0522994995117
20
76.4339981079102
40
0.0
41
0.0
42
0.0
10
80.0677032470703
20
76.4229965209961
40
0.0
41
0.0
42
0.0
10
80.4940032958984
20
76.0739974975586
40
0.0
41
0.0
42
0.0
10
80.5748977661133
20
75.9928970336914
40
0.0
41
0.0
42
0.0
10
80.5647964477539
20
75.9429016113281
40
0.0
41
0.0
42
0.0
10
80.5649032592773
20
75.9061965942383
40
0.0
41
0.0
42
0.0
10
80.611701965332
20
75.5081024169922
40
0.0
41
0.0
42
0.0
10
80.5600967407227
20
75.4574966430664
40
0.0
41
0.0
42
0.0
10
80.4971008300781
20
75.3740005493164
40
0.0
41
0.0
42
0.0
10
80.2710037231445
20
75.0328979492188
40
0.0
41
0.0
42
0.0
10
80.2412033081055
20
75.0035018920898
40
0.0
41
0.0
42
0.0
10
80.1922988891602
20
74.9714965820312
40
0.0
41
0.0
42
0.0
10
79.9918975830078
20
74.8041000366211
40
0.0
41
0.0
42
0.0
10
79.8764038085938
20
74.7399978637695
40
0.0
41
0.0
42
0.0
10
79.5628967285156
20
74.5037002563477
40
0.0
41
0.0
42
0.0
10
79.1675033569336
20
74.1475982666016
40
0.0
41
0.0
42
0.0
10
79.1323013305664
20
74.1191024780273
40
0.0
41
0.0
42
0.0
10
79.0142974853516
20
74.0106964111328
40
0.0
41
0.0
42
0.0
10
79.0141983032227
20
73.9845962524414
40
0.0
41
0.0
42
0.0
10
79.0632019042969
20
73.8802032470703
40
0.0
41
0.0
42
0.0
10
79.1179962158203
20
73.4878005981445
40
0.0
41
0.0
42
0.0
10
79.168098449707
20
73.4154968261719
40
0.0
41
0.0
42
0.0
10
79.3720016479492
20
72.9881973266602
40
0.0
41
0.0
42
0.0
10
79.4984970092773
20
72.6614990234375
40
0.0
41
0.0
42
0.0
10
79.5410003662109
20
72.586799621582
40
0.0
41
0.0
42
0.0
10
79.5826034545898
20
72.4872970581055
40
0.0
41
0.0
42
0.0
10
79.6081008911133
20
72.4098968505859
40
0.0
41
0.0
42
0.0
10
79.6746978759766
20
71.9990005493164
40
0.0
41
0.0
42
0.0
10
79.6660995483398
20
71.9391021728516
40
0.0
41
0.0
42
0.0
10
79.530403137207
20
71.6323013305664
40
0.0
41
0.0
42
0.0
10
79.4987030029297
20
71.5401992797852
40
0.0
41
0.0
42
0.0
10
79.4710006713867
20
71.5038986206055
40
0.0
41
0.0
42
0.0
10
79.4074020385742
20
71.4657974243164
40
0.0
41
0.0
42
0.0
10
79.0599975585938
20
71.3230972290039
40
0.0
41
0.0
42
0.0
10
78.9813995361328
20
71.3160018920898
40
0.0
41
0.0
42
0.0
10
78.5833969116211
20
71.2960968017578
40
0.0
41
0.0
42
0.0
10
78.1184997558594
20
71.3526992797852
40
0.0
41
0.0
42
0.0
10
78.0154037475586
20
71.3802032470703
40
0.0
41
0.0
42
0.0
10
77.6300964355469
20
71.4456024169922
40
0.0
41
0.0
42
0.0
10
77.5167999267578
20
71.4802017211914
40
0.0
41
0.0
42
0.0
10
77.4817962646484
20
71.4801025390625
40
0.0
41
0.0
42
0.0
10
77.3696975708008
20
71.4601974487305
40
0.0
41
0.0
42
0.0
10
76.995002746582
20
71.3527984619141
40
0.0
41
0.0
42
0.0
10
76.8897018432617
20
71.1237030029297
40
0.0
41
0.0
42
0.0
10
76.8788986206055
20
71.0869979858398
40
0.0
41
0.0
42
0.0
10
76.8623962402344
20
71.0156021118164
40
0.0
41
0.0
42
0.0
10
76.8473968505859
20
70.9391021728516
40
0.0
41
0.0
42
0.0
10
76.6828002929688
20
70.5133972167969
40
0.0
41
0.0
42
0.0
10
76.66259765625
20
70.4378967285156
40
0.0
41
0.0
42
0.0
10
76.5770034790039
20
70.2490997314453
40
0.0
41
0.0
42
0.0
10
76.4985961914062
20
70.0706024169922
40
0.0
41
0.0
42
0.0
10
76.4626998901367
20
70.0102005004883
40
0.0
41
0.0
42
0.0
10
76.4340972900391
20
69.9474029541016
40
0.0
41
0.0
42
0.0
10
76.4229965209961
20
69.9320983886719
40
0.0
41
0.0
42
0.0
10
76.0740966796875
20
69.5058975219727
40
0.0
41
0.0
42
0.0
10
75.9897003173828
20
69.4207992553711
40
0.0
41
0.0
42
0.0
10
75.5792999267578
20
69.3724975585938
40
0.0
41
0.0
42
0.0
10
75.5093994140625
20
69.3863983154297
40
0.0
41
0.0
42
0.0
10
75.4573974609375
20
69.4395980834961
40
0.0
41
0.0
42
0.0
10
75.3740005493164
20
69.5027008056641
40
0.0
41
0.0
42
0.0
10
75.0328979492188
20
69.7286987304688
40
0.0
41
0.0
42
0.0
10
75.0035018920898
20
69.7585983276367
40
0.0
41
0.0
42
0.0
10
74.9714965820312
20
69.807502746582
40
0.0
41
0.0
42
0.0
10
74.8040008544922
20
70.0080032348633
40
0.0
41
0.0
42
0.0
10
74.7398986816406
20
70.1233978271484
40
0.0
41
0.0
42
0.0
10
74.5036010742188
20
70.4367980957031
40
0.0
41
0.0
42
0.0
10
74.0105972290039
20
70.9856033325195
40
0.0
41
0.0
42
0.0
10
73.9847030639648
20
70.9854965209961
40
0.0
41
0.0
42
0.0
10
73.8802032470703
20
70.9365005493164
40
0.0
41
0.0
42
0.0
10
73.4860992431641
20
70.8815002441406
40
0.0
41
0.0
42
0.0
10
73.0654983520508
20
70.6807022094727
40
0.0
41
0.0
42
0.0
10
72.9898986816406
20
70.628303527832
40
0.0
41
0.0
42
0.0
10
72.6615982055664
20
70.5011978149414
40
0.0
41
0.0
42
0.0
10
72.586799621582
20
70.4587020874023
40
0.0
41
0.0
42
0.0
10
72.4858016967773
20
70.4164962768555
40
0.0
41
0.0
42
0.0
10
72.0599975585938
20
70.3475036621094
40
0.0
41
0.0
42
0.0
10
71.9941024780273
20
70.3256988525391
40
0.0
41
0.0
42
0.0
10
71.9391021728516
20
70.3337020874023
40
0.0
41
0.0
42
0.0
10
71.6322021484375
20
70.4692993164062
40
0.0
41
0.0
42
0.0
10
71.5401000976562
20
70.5010986328125
40
0.0
41
0.0
42
0.0
10
71.5038986206055
20
70.5287017822266
40
0.0
41
0.0
42
0.0
10
71.4657974243164
20
70.592399597168
40
0.0
41
0.0
42
0.0
10
71.3230972290039
20
70.9399032592773
40
0.0
41
0.0
42
0.0
10
71.3160018920898
20
71.0185012817383
40
0.0
41
0.0
42
0.0
10
71.2960968017578
20
71.4164962768555
40
0.0
41
0.0
42
0.0
10
71.3526992797852
20
71.8814010620117
40
0.0
41
0.0
42
0.0
10
71.3802032470703
20
71.9844970703125
40
0.0
41
0.0
42
0.0
10
71.4457015991211
20
72.3697967529297
40
0.0
41
0.0
42
0.0
10
71.4802017211914
20
72.4831008911133
40
0.0
41
0.0
42
0.0
10
71.4801025390625
20
72.5180969238281
40
0.0
41
0.0
42
0.0
10
71.4600982666016
20
72.6302032470703
40
0.0
41
0.0
42
0.0
10
71.3526992797852
20
73.0048980712891
40
0.0
41
0.0
42
0.0
10
71.1235961914062
20
73.1100006103516
40
0.0
41
0.0
42
0.0
10
71.0869979858398
20
73.1207962036133
40
0.0
41
0.0
42
0.0
10
71.013801574707
20
73.1378021240234
40
0.0
41
0.0
42
0.0
10
70.5891036987305
20
73.302001953125
40
0.0
41
0.0
42
0.0
10
70.5149993896484
20
73.3163986206055
40
0.0
41
0.0
42
0.0
10
70.4377975463867
20
73.3370971679688
40
0.0
41
0.0
42
0.0
10
70.2490997314453
20
73.4226989746094
40
0.0
41
0.0
42
0.0
10
70.0706024169922
20
73.5011978149414
40
0.0
41
0.0
42
0.0
10
70.0102005004883
20
73.5370025634766
40
0.0
41
0.0
42
0.0
10
69.9474029541016
20
73.5655975341797
40
0.0
41
0.0
42
0.0
10
69.9320983886719
20
73.5766983032227
40
0.0
41
0.0
42
0.0
10
69.5056991577148
20
73.9256973266602
40
0.0
41
0.0
42
0.0
10
69.4404983520508
20
73.99169921875
40
0.0
41
0.0
42
0.0
10
69.4208984375
20
74.0096969604492
40
0.0
41
0.0
42
0.0
210
0.0
220
0.0
230
1.0
0
LWPOLYLINE
5
28
330
1C
100
AcDbEntity
67
0
8
0
62
256
6
ByLayer
370
-1
48
1.0
60
0
100
AcDbPolyline
90
16
70
1
38
0.0
39
0.0
10
74.0103988647461
20
74.338996887207
40
0.0
41
0.0
42
0.0
10
74.0958023071289
20
74.3324966430664
40
0.0
41
0.0
42
0.0
10
74.1302032470703
20
74.3323974609375
40
0.0
41
0.0
42
0.0
10
74.3266983032227
20
74.4256973266602
40
0.0
41
0.0
42
0.0
10
74.3647994995117
20
74.4860000610352
40
0.0
41
0.0
42
0.0
10
74.3647003173828
20
74.5090026855469
40
0.0
41
0.0
42
0.0
10
74.2183990478516
20
74.6119003295898
40
0.0
41
0.0
42
0.0
10
74.0278015136719
20
74.7591018676758
40
0.0
41
0.0
42
0.0
10
74.0015029907227
20
74.7590026855469
40
0.0
41
0.0
42
0.0
10
73.9947967529297
20
74.7545013427734
40
0.0
41
0.0
42
0.0
10
73.8916015625
20
74.6134033203125
40
0.0
41
0.0
42
0.0
10
73.7779998779297
20
74.3973007202148
40
0.0
41
0.0
42
0.0
10
73.7779006958008
20
74.3715972900391
40
0.0
41
0.0
42
0.0
10
73.8706970214844
20
74.2862014770508
40
0.0
41
0.0
42
0.0
10
73.8977966308594
20
74.2862014770508
40
0.0
41
0.0
42
0.0
10
74.0103988647461
20
74.338996887207
40
0.0
41
0.0
42
0.0
210
0.0
220
0.0
230
1.0
0
LWPOLYLINE
5
29
330
1C
100
AcDbEntity
67
0
8
0
62
256
6
ByLayer
370
-1
48
1.0
60
0
100
AcDbPolyline
90
11
70
1
38
0.0
39
0.0
10
73.8848037719727
20
74.5594024658203
40
0.0
41
0.0
42
0.0
10
74.0078964233398
20
74.7275009155273
40
0.0
41
0.0
42
0.0
10
74.129997253418
20
74.63330078125
40
0.0
41
0.0
42
0.0
10
74.3226013183594
20
74.4979019165039
40
0.0
41
0.0
42
0.0
10
74.2973022460938
20
74.4576034545898
40
0.0
41
0.0
42
0.0
10
74.0644989013672
20
74.3470001220703
40
0.0
41
0.0
42
0.0
10
74.0190963745117
20
74.3506011962891
40
0.0
41
0.0
42
0.0
10
73.9845962524414
20
74.3505020141602
40
0.0
41
0.0
42
0.0
10
73.9259033203125
20
74.3228988647461
40
0.0
41
0.0
42
0.0
10
73.8145980834961
20
74.4256973266602
40
0.0
41
0.0
42
0.0
10
73.8848037719727
20
74.5594024658203
40
0.0
41
0.0
42
0.0
210
0.0
220
0.0
230
1.0
0
LWPOLYLINE
5
2A
330
1C
100
AcDbEntity
67
0
8
0
62
256
6
ByLayer
370
-1
48
1.0
60
0
100
AcDbPolyline
90
16
70
1
38
0.0
39
0.0
10
74.3324966430664
20
75.9040985107422
40
0.0
41
0.0
42
0.0
10
74.3322982788086
20
75.8696975708008
40
0.0
41
0.0
42
0.0
10
74.4256973266602
20
75.6729965209961
40
0.0
41
0.0
42
0.0
10
74.4860000610352
20
75.6349029541016
40
0.0
41
0.0
42
0.0
10
74.5090026855469
20
75.6350021362305
40
0.0
41
0.0
42
0.0
10
74.6119003295898
20
75.7813034057617
40
0.0
41
0.0
42
0.0
10
74.7591018676758
20
75.9720001220703
40
0.0
41
0.0
42
0.0
10
74.7590026855469
20
75.9982986450195
40
0.0
41
0.0
42
0.0
10
74.7544021606445
20
76.0050964355469
40
0.0
41
0.0
42
0.0
10
74.6134033203125
20
76.1082000732422
40
0.0
41
0.0
42
0.0
10
74.3973007202148
20
76.2219009399414
40
0.0
41
0.0
42
0.0
10
74.371696472168
20
76.2218017578125
40
0.0
41
0.0
42
0.0
10
74.2862014770508
20
76.1290969848633
40
0.0
41
0.0
42
0.0
10
74.2861022949219
20
76.1019973754883
40
0.0
41
0.0
42
0.0
10
74.338996887207
20
75.989501953125
40
0.0
41
0.0
42
0.0
10
74.3324966430664
20
75.9040985107422
40
0.0
41
0.0
42
0.0
210
0.0
220
0.0
230
1.0
0
LWPOLYLINE
5
2B
330
1C
100
AcDbEntity
67
0
8
0
62
256
6
ByLayer
370
-1
48
1.0
60
0
100
AcDbPolyline
90
11
70
1
38
0.0
39
0.0
10
74.4257965087891
20
76.1850967407227
40
0.0
41
0.0
42
0.0
10
74.5594024658203
20
76.1149978637695
40
0.0
41
0.0
42
0.0
10
74.7276000976562
20
75.9918975830078
40
0.0
41
0.0
42
0.0
10
74.63330078125
20
75.8697967529297
40
0.0
41
0.0
42
0.0
10
74.4980010986328
20
75.6771011352539
40
0.0
41
0.0
42
0.0
10
74.4574966430664
20
75.7024993896484
40
0.0
41
0.0
42
0.0
10
74.3470001220703
20
75.9354019165039
40
0.0
41
0.0
42
0.0
10
74.3506011962891
20
75.9807968139648
40
0.0
41
0.0
42
0.0
10
74.3504028320312
20
76.0151977539062
40
0.0
41
0.0
42
0.0
10
74.322998046875
20
76.0738983154297
40
0.0
41
0.0
42
0.0
10
74.4257965087891
20
76.1850967407227
40
0.0
41
0.0
42
0.0
210
0.0
220
0.0
230
1.0
0
LWPOLYLINE
5
2C
330
1C
100
AcDbEntity
67
0
8
0
62
256
6
ByLayer
370
-1
48
1.0
60
0
100
AcDbPolyline
90
9
70
1
38
0.0
39
0.0
10
74.9886016845703
20
74.5073013305664
40
0.0
41
0.0
42
0.0
10
75.0111999511719
20
74.5073013305664
40
0.0
41
0.0
42
0.0
10
75.4925994873047
20
74.9887008666992
40
0.0
41
0.0
42
0.0
10
75.4925994873047
20
75.0111999511719
40
0.0
41
0.0
42
0.0
10
75.0112991333008
20
75.4925994873047
40
0.0
41
0.0
42
0.0
10
74.9886016845703
20
75.4925003051758
40
0.0
41
0.0
42
0.0
10
74.5073013305664
20
75.0112991333008
40
0.0
41
0.0
42
0.0
10
74.5072021484375
20
74.9886016845703
40
0.0
41
0.0
42
0.0
10
74.9886016845703
20
74.5073013305664
40
0.0
41
0.0
42
0.0
210
0.0
220
0.0
230
1.0
0
LWPOLYLINE
5
2D
330
1C
100
AcDbEntity
67
0
8
0
62
256
6
ByLayer
370
-1
48
1.0
60
0
100
AcDbPolyline
90
16
70
1
38
0.0
39
0.0
10
75.3862991333008
20
73.8915023803711
40
0.0
41
0.0
42
0.0
10
75.6025009155273
20
73.7779998779297
40
0.0
41
0.0
42
0.0
10
75.6280975341797
20
73.7779998779297
40
0.0
41
0.0
42
0.0
10
75.7137985229492
20
73.8706970214844
40
0.0
41
0.0
42
0.0
10
75.7136001586914
20
73.8976974487305
40
0.0
41
0.0
42
0.0
10
75.6606979370117
20
74.0103988647461
40
0.0
41
0.0
42
0.0
10
75.6673965454102
20
74.0958023071289
40
0.0
41
0.0
42
0.0
10
75.6672973632812
20
74.1302032470703
40
0.0
41
0.0
42
0.0
10
75.5739974975586
20
74.3266983032227
40
0.0
41
0.0
42
0.0
10
75.5139007568359
20
74.3647994995117
40
0.0
41
0.0
42
0.0
10
75.4907989501953
20
74.3647994995117
40
0.0
41
0.0
42
0.0
10
75.3879013061523
20
74.2184982299805
40
0.0
41
0.0
42
0.0
10
75.2407989501953
20
74.0278015136719
40
0.0
41
0.0
42
0.0
10
75.2406997680664
20
74.0014038085938
40
0.0
41
0.0
42
0.0
10
75.2453002929688
20
73.9946975708008
40
0.0
41
0.0
42
0.0
10
75.3862991333008
20
73.8915023803711
40
0.0
41
0.0
42
0.0
210
0.0
220
0.0
230
1.0
0
LWPOLYLINE
5
2E
330
1C
100
AcDbEntity
67
0
8
0
62
256
6
ByLayer
370
-1
48
1.0
60
0
100
AcDbPolyline
90
11
70
1
38
0.0
39
0.0
10
75.2722015380859
20
74.0078964233398
40
0.0
41
0.0
42
0.0
10
75.3665008544922
20
74.1300964355469
40
0.0
41
0.0
42
0.0
10
75.5019989013672
20
74.3226013183594
40
0.0
41
0.0
42
0.0
10
75.5421981811523
20
74.2972030639648
40
0.0
41
0.0
42
0.0
10
75.652702331543
20
74.0644989013672
40
0.0
41
0.0
42
0.0
10
75.649299621582
20
74.0190963745117
40
0.0
41
0.0
42
0.0
10
75.6492004394531
20
73.9845962524414
40
0.0
41
0.0
42
0.0
10
75.6768035888672
20
73.9259033203125
40
0.0
41
0.0
42
0.0
10
75.5740966796875
20
73.8144989013672
40
0.0
41
0.0
42
0.0
10
75.440299987793
20
73.8846969604492
40
0.0
41
0.0
42
0.0
10
75.2722015380859
20
74.0078964233398
40
0.0
41
0.0
42
0.0
210
0.0
220
0.0
230
1.0
0
LWPOLYLINE
5
2F
330
1C
100
AcDbEntity
67
0
8
0
62
256
6
ByLayer
370
-1
48
1.0
60
0
100
AcDbPolyline
90
17
70
1
38
0.0
39
0.0
10
75.5266036987305
20
75.072998046875
40
0.0
41
0.0
42
0.0
10
75.5266036987305
20
75.0565032958984
40
0.0
41
0.0
42
0.0
10
75.5355987548828
20
75.0566024780273
40
0.0
41
0.0
42
0.0
10
75.7950973510742
20
75.385498046875
40
0.0
41
0.0
42
0.0
10
75.9866027832031
20
75.2510986328125
40
0.0
41
0.0
42
0.0
10
76.0093002319336
20
75.2509994506836
40
0.0
41
0.0
42
0.0
10
76.1082000732422
20
75.3863983154297
40
0.0
41
0.0
42
0.0
10
76.2219009399414
20
75.6025009155273
40
0.0
41
0.0
42
0.0
10
76.2218017578125
20
75.6280975341797
40
0.0
41
0.0
42
0.0
10
76.1290969848633
20
75.7137985229492
40
0.0
41
0.0
42
0.0
10
76.1020965576172
20
75.7136993408203
40
0.0
41
0.0
42
0.0
10
75.989501953125
20
75.6606979370117
40
0.0
41
0.0
42
0.0
10
75.904296875
20
75.6672973632812
40
0.0
41
0.0
42
0.0
10
75.8683013916016
20
75.6667022705078
40
0.0
41
0.0
42
0.0
10
75.6729965209961
20
75.5740966796875
40
0.0
41
0.0
42
0.0
10
75.6334991455078
20
75.5115966796875
40
0.0
41
0.0
42
0.0
10
75.5266036987305
20
75.072998046875
40
0.0
41
0.0
42
0.0
210
0.0
220
0.0
230
1.0
0
LWPOLYLINE
5
30
330
1C
100
AcDbEntity
67
0
8
0
62
256
6
ByLayer
370
-1
48
1.0
60
0
100
AcDbPolyline
90
14
70
1
38
0.0
39
0.0
10
75.6684036254883
20
75.4882965087891
40
0.0
41
0.0
42
0.0
10
75.7026977539062
20
75.5421981811523
40
0.0
41
0.0
42
0.0
10
75.9354019165039
20
75.652702331543
40
0.0
41
0.0
42
0.0
10
75.9807968139648
20
75.649299621582
40
0.0
41
0.0
42
0.0
10
76.0152969360352
20
75.649299621582
40
0.0
41
0.0
42
0.0
10
76.0738983154297
20
75.6766967773438
40
0.0
41
0.0
42
0.0
10
76.1852035522461
20
75.5739974975586
40
0.0
41
0.0
42
0.0
10
76.1149978637695
20
75.4403991699219
40
0.0
41
0.0
42
0.0
10
75.9982986450195
20
75.2808990478516
40
0.0
41
0.0
42
0.0
10
75.785400390625
20
75.4307022094727
40
0.0
41
0.0
42
0.0
10
75.7621994018555
20
75.4307022094727
40
0.0
41
0.0
42
0.0
10
75.6424026489258
20
75.2785034179688
40
0.0
41
0.0
42
0.0
10
75.6202011108398
20
75.2891998291016
40
0.0
41
0.0
42
0.0
10
75.6684036254883
20
75.4882965087891
40
0.0
41
0.0
42
0.0
210
0.0
220
0.0
230
1.0
0
LWPOLYLINE
5
31
330
1C
100
AcDbEntity
67
0
8
0
62
256
6
ByLayer
370
-1
48
1.0
60
0
100
AcDbPolyline
90
35
70
1
38
0.0
39
0.0
10
80.4449005126953
20
65.0009994506836
40
0.0
41
0.0
42
0.0
10
80.5074005126953
20
65.0667037963867
40
0.0
41
0.0
42
0.0
10
80.6408004760742
20
65.1295013427734
40
0.0
41
0.0
42
0.0
10
81.0109024047852
20
65.369499206543
40
0.0
41
0.0
42
0.0
10
81.4220962524414
20
65.5001983642578
40
0.0
41
0.0
42
0.0
10
81.5164031982422
20
65.5225982666016
40
0.0
41
0.0
42
0.0
10
81.6003036499023
20
65.5317993164062
40
0.0
41
0.0
42
0.0
10
82.0174026489258
20
65.6047973632812
40
0.0
41
0.0
42
0.0
10
82.2958984375
20
65.6232986450195
40
0.0
41
0.0
42
0.0
10
82.63330078125
20
65.6718978881836
40
0.0
41
0.0
42
0.0
10
83.1015014648438
20
65.6776962280273
40
0.0
41
0.0
42
0.0
10
83.50830078125
20
65.6163024902344
40
0.0
41
0.0
42
0.0
10
83.7136993408203
20
65.493896484375
40
0.0
41
0.0
42
0.0
10
83.8388977050781
20
65.1039962768555
40
0.0
41
0.0
42
0.0
10
83.861701965332
20
65.068603515625
40
0.0
41
0.0
42
0.0
10
83.9358978271484
20
65.0009994506836
40
0.0
41
0.0
42
0.0
10
83.9649963378906
20
65.0009994506836
40
0.0
41
0.0
42
0.0
10
83.9648971557617
20
65.0105972290039
40
0.0
41
0.0
42
0.0
10
83.8595962524414
20
65.1065979003906
40
0.0
41
0.0
42
0.0
10
83.7313995361328
20
65.5058975219727
40
0.0
41
0.0
42
0.0
10
83.526496887207
20
65.6281967163086
40
0.0
41
0.0
42
0.0
10
83.0933990478516
20
65.6931991577148
40
0.0
41
0.0
42
0.0
10
82.5566024780273
20
65.6872024536133
40
0.0
41
0.0
42
0.0
10
82.3375015258789
20
65.655403137207
40
0.0
41
0.0
42
0.0
10
81.9824981689453
20
65.6318969726562
40
0.0
41
0.0
42
0.0
10
81.7110977172852
20
65.5843963623047
40
0.0
41
0.0
42
0.0
10
81.4835968017578
20
65.5594024658203
40
0.0
41
0.0
42
0.0
10
81.2331008911133
20
65.4996032714844
40
0.0
41
0.0
42
0.0
10
80.9889984130859
20
65.4219970703125
40
0.0
41
0.0
42
0.0
10
80.7665023803711
20
65.277702331543
40
0.0
41
0.0
42
0.0
10
80.7183990478516
20
65.2528991699219
40
0.0
41
0.0
42
0.0
10
80.4924011230469
20
65.1486968994141
40
0.0
41
0.0
42
0.0
10
80.3621978759766
20
65.0115966796875
40
0.0
41
0.0
42
0.0
10
80.3621978759766
20
65.0009994506836
40
0.0
41
0.0
42
0.0
10
80.4449005126953
20
65.0009994506836
40
0.0
41
0.0
42
0.0
210
0.0
220
0.0
230
1.0
0
LWPOLYLINE
5
32
330
1C
100
AcDbEntity
67
0
8
0
62
256
6
ByLayer
370
-1
48
1.0
60
0
100
AcDbPolyline
90
39
70
1
38
0.0
39
0.0
10
84.3125991821289
20
82.5566024780273
40
0.0
41
0.0
42
0.0
10
84.3442993164062
20
82.33740234375
40
0.0
41
0.0
42
0.0
10
84.3677978515625
20
81.9824981689453
40
0.0
41
0.0
42
0.0
10
84.4152984619141
20
81.7110977172852
40
0.0
41
0.0
42
0.0
10
84.440299987793
20
81.4834976196289
40
0.0
41
0.0
42
0.0
10
84.5001983642578
20
81.2331008911133
40
0.0
41
0.0
42
0.0
10
84.5776977539062
20
80.9889984130859
40
0.0
41
0.0
42
0.0
10
84.7220001220703
20
80.7665023803711
40
0.0
41
0.0
42
0.0
10
84.7468032836914
20
80.7182998657227
40
0.0
41
0.0
42
0.0
10
84.8510971069336
20
80.4924011230469
40
0.0
41
0.0
42
0.0
10
84.9882965087891
20
80.3621978759766
40
0.0
41
0.0
42
0.0
10
84.9990005493164
20
80.3621978759766
40
0.0
41
0.0
42
0.0
10
84.9989013671875
20
80.4449005126953
40
0.0
41
0.0
42
0.0
10
84.9329986572266
20
80.5074005126953
40
0.0
41
0.0
42
0.0
10
84.8703002929688
20
80.6408004760742
40
0.0
41
0.0
42
0.0
10
84.6302032470703
20
81.0109024047852
40
0.0
41
0.0
42
0.0
10
84.4996032714844
20
81.4220962524414
40
0.0
41
0.0
42
0.0
10
84.4772033691406
20
81.5162963867188
40
0.0
41
0.0
42
0.0
10
84.467903137207
20
81.6003036499023
40
0.0
41
0.0
42
0.0
10
84.3948974609375
20
82.0174026489258
40
0.0
41
0.0
42
0.0
10
84.3764038085938
20
82.2957992553711
40
0.0
41
0.0
42
0.0
10
84.3277969360352
20
82.63330078125
40
0.0
41
0.0
42
0.0
10
84.3240966796875
20
82.984001159668
40
0.0
41
0.0
42
0.0
10
84.3808975219727
20
83.3663024902344
40
0.0
41
0.0
42
0.0
10
84.3789978027344
20
83.4859008789062
40
0.0
41
0.0
42
0.0
10
84.3835983276367
20
83.5087966918945
40
0.0
41
0.0
42
0.0
10
84.5059967041016
20
83.7137985229492
40
0.0
41
0.0
42
0.0
10
84.8958969116211
20
83.838996887207
40
0.0
41
0.0
42
0.0
10
84.9312973022461
20
83.8618011474609
40
0.0
41
0.0
42
0.0
10
84.9990005493164
20
83.9358978271484
40
0.0
41
0.0
42
0.0
10
84.9990005493164
20
83.9649963378906
40
0.0
41
0.0
42
0.0
10
84.9891967773438
20
83.9648971557617
40
0.0
41
0.0
42
0.0
10
84.8933029174805
20
83.8597030639648
40
0.0
41
0.0
42
0.0
10
84.493896484375
20
83.7314987182617
40
0.0
41
0.0
42
0.0
10
84.3713989257812
20
83.5261001586914
40
0.0
41
0.0
42
0.0
10
84.3696975708008
20
83.5179977416992
40
0.0
41
0.0
42
0.0
10
84.3705978393555
20
83.4384002685547
40
0.0
41
0.0
42
0.0
10
84.3082962036133
20
83.0184020996094
40
0.0
41
0.0
42
0.0
10
84.3125991821289
20
82.5566024780273
40
0.0
41
0.0
42
0.0
210
0.0
220
0.0
230
1.0
0
LWPOLYLINE
5
33
330
1C
100
AcDbEntity
67
0
8
0
62
256
6
ByLayer
370
-1
48
1.0
60
0
100
AcDbPolyline
90
5
70
1
38
0.0
39
0.0
10
75.0
20
75.4654998779297
40
0.0
41
0.0
42
0.0
10
75.4657974243164
20
75.0
40
0.0
41
0.0
42
0.0
10
75.0
20
74.5341033935547
40
0.0
41
0.0
42
0.0
10
74.5339965820312
20
75.0
40
0.0
41
0.0
42
0.0
10
75.0
20
75.4654998779297
40
0.0
41
0.0
42
0.0
210
0.0
220
0.0
230
1.0
0
VIEWPORT
5
38
330
34
100
AcDbEntity
67
1
8
0
62
256
6
ByLayer
370
-1
48
1.0
60
0
100
AcDbViewport
10
0.0
20
0.0
30
0.0
40
297.0
41
210.0
68
1
69
1
12
50.0
22
100.0
13
0.0
23
0.0
14
10.0
24
10.0
15
10.0
25
10.0
16
0.0
26
0.0
36
1.0
17
0.0
27
0.0
37
0.0
42
50.0
43
0.0
44
0.0
45
250.0
50
0.0
51
0.0
72
1000
90
819232
110
0.0
120
0.0
130
0.0
111
1.0
121
0.0
131
0.0
112
0.0
122
1.0
132
0.0
0
ENDSEC
0
SECTION
2
OBJECTS
0
DICTIONARY
5
3E
330
0
100
AcDbDictionary
280
1
281
1
3
ACAD_GROUP
350
12
3
ACAD_LAYOUT
350
37
3
ACAD_DGNDEFINITIONS
350
F
3
ACAD_DWFDEFINITIONS
350
10
3
ACAD_PDFDEFINITIONS
350
11
3
ACAD_MLINESTYLE
350
B
3
ACAD_IMAGE_DICT
350
E
3
ACAD_IMAGE_VARS
350
21
0
DICTIONARY
5
12
330
3E
100
AcDbDictionary
280
1
281
1
0
DICTIONARY
5
37
330
3E
100
AcDbDictionary
280
1
281
1
3
Model
350
20
3
Layout1
350
39
0
DICTIONARY
5
F
330
3E
100
AcDbDictionary
280
1
281
1
0
DICTIONARY
5
10
330
3E
100
AcDbDictionary
280
1
281
1
0
DICTIONARY
5
11
330
3E
100
AcDbDictionary
280
1
281
1
0
DICTIONARY
5
B
330
3E
100
AcDbDictionary
280
1
281
1
3
Standard
350
1B
0
DICTIONARY
5
E
330
3E
100
AcDbDictionary
280
1
281
1
0
DICTIONARY
5
6
330
5
100
AcDbDictionary
280
1
281
1
3
ACAD_LAYERSTATES
360
3F
0
DICTIONARY
5
3F
330
6
100
AcDbDictionary
280
1
281
1
0
LAYOUT
5
20
330
37
100
AcDbPlotSettings
1

2
none_device
4
ISO_A4_(210.00_x_297.00_MM)
6

40
7.5
41
20.0
42
7.5
43
20.0
44
210.0
45
297.0
46
0.0
47
0.0
48
0.0
49
0.0
140
0.0
141
0.0
142
1.0
143
1.0
70
11952
72
1
73
1
74
1
7

75
0
76
0
77
2
78
300
147
1.0
148
0.0
149
0.0
100
AcDbLayout
1
Model
71
0
10
-20.0
20
-7.5
11
277.0
21
202.5
12
0.0
22
0.0
32
0.0
14
25.7
24
19.5
34
0.0
15
231.3
25
175.5
35
0.0
146
0.0
13
0.0
23
0.0
33
0.0
16
1.0
26
0.0
36
0.0
17
0.0
27
1.0
37
0.0
76
0
330
1C
0
LAYOUT
5
39
330
37
100
AcDbPlotSettings
1

2
none_device
4
ISO_A4_(210.00_x_297.00_MM)
6

40
7.5
41
20.0
42
7.5
43
20.0
44
210.0
45
297.0
46
0.0
47
0.0
48
0.0
49
0.0
140
0.0
141
0.0
142
1.0
143
1.0
70
688
72
1
73
1
74
1
7

75
0
76
0
77
2
78
300
147
1.0
148
0.0
149
0.0
100
AcDbLayout
1
Layout1
71
1
10
-20.0
20
-7.5
11
277.0
21
202.5
12
0.0
22
0.0
32
0.0
14
25.7
24
19.5
34
0.0
15
231.3
25
175.5
35
0.0
146
0.0
13
0.0
23
0.0
33
0.0
16
1.0
26
0.0
36
0.0
17
0.0
27
1.0
37
0.0
76
0
330
34
0
MLINESTYLE
5
1B
330
B
100
AcDbMlineStyle
2
Standard
70
0
3

62
256
51
90.0
52
90.0
71
2
49
0.5
62
256
6
ByLayer
49
-0.5
62
256
6
ByLayer
0
RASTERVARIABLES
5
21
330
E
100
AcDbRasterVariables
90
0
70
1
71
1
72
0
0
ENDSEC
0
EOF
