999
DXF file generated by netDxf https://github.com/haplokuon/netDxf, Copyright(C) Daniel Carvajal, Licensed under MIT
0
SECTION
2
HEADER
9
$ACADVER
1
AC1015
9
$DWGCODEPAGE
3
ANSI_1252
9
$HANDSEED
5
46
9
$ANGBASE
50
0.0
9
$ANGDIR
70
0
9
$ATTMODE
70
1
9
$AUNITS
70
0
9
$AUPREC
70
0
9
$CECOLOR
62
256
9
$CELTSCALE
40
1.0
9
$CELTYPE
6
ByLayer
9
$CELWEIGHT
370
-1
9
$CLAYER
8
0
9
$CMLJUST
70
0
9
$CMLSCALE
40
20.0
9
$CMLSTYLE
2
Standard
9
$DIMSTYLE
2
Standard
9
$TEXTSIZE
40
2.5
9
$TEXTSTYLE
7
Standard
9
$LUNITS
70
2
9
$LUPREC
70
4
9
$MIRRTEXT
70
0
9
$EXTNAMES
290
1
9
$INSBASE
10
0.0
20
0.0
30
0.0
9
$INSUNITS
70
0
9
$LTSCALE
40
1.0
9
$LWDISPLAY
290
0
9
$PDMODE
70
0
9
$PDSIZE
40
0.0
9
$PLINEGEN
70
0
9
$PSLTSCALE
70
1
9
$SPLINESEGS
70
8
9
$SURFU
70
6
9
$SURFV
70
6
9
$TDCREATE
40
2460823.48361039
9
$TDUCREATE
40
2460823.15027706
9
$TDUPDATE
40
2460823.48361039
9
$TDUUPDATE
40
2460823.15027706
9
$TDINDWG
40
0.0
9
$UCSORG
10
0.0
20
0.0
30
0.0
9
$UCSXDIR
10
1.0
20
0.0
30
0.0
9
$UCSYDIR
10
0.0
20
1.0
30
0.0
9
$DIMADEC
70
0
9
$DIMALT
70
0
9
$DIMALTD
70
2
9
$DIMALTF
40
25.4
9
$DIMALTRND
40
0.0
9
$DIMALTTD
70
2
9
$DIMALTTZ
70
0
9
$DIMALTU
70
2
9
$DIMALTZ
70
0
9
$DIMAPOST
1

9
$DIMATFIT
70
3
9
$DIMAUNIT
70
0
9
$DIMASZ
40
0.18
9
$DIMAZIN
70
0
9
$DIMSAH
70
0
9
$DIMBLK
1

9
$DIMLDRBLK
1

9
$DIMCEN
40
0.09
9
$DIMCLRD
70
0
9
$DIMCLRE
70
0
9
$DIMCLRT
70
0
9
$DIMDEC
70
4
9
$DIMDLE
40
0.0
9
$DIMDLI
40
0.38
9
$DIMDSEP
70
46
9
$DIMEXE
40
0.18
9
$DIMEXO
40
0.0625
9
$DIMFXLON
70
0
9
$DIMFXL
40
1.0
9
$DIMGAP
40
0.09
9
$DIMJUST
70
0
9
$DIMLFAC
40
1.0
9
$DIMLUNIT
70
2
9
$DIMLWD
70
-2
9
$DIMLWE
70
-2
9
$DIMPOST
1

9
$DIMRND
40
0.0
9
$DIMSCALE
40
1.0
9
$DIMSD1
70
0
9
$DIMSD2
70
0
9
$DIMSE1
70
0
9
$DIMSE2
70
0
9
$DIMSOXD
70
0
9
$DIMTAD
70
0
9
$DIMTDEC
70
4
9
$DIMTFAC
40
1.0
9
$DIMTIH
70
0
9
$DIMTIX
70
0
9
$DIMTM
40
0.0
9
$DIMTMOVE
70
0
9
$DIMTOFL
70
0
9
$DIMTOH
70
0
9
$DIMTOL
70
0
9
$DIMLIM
70
0
9
$DIMTOLJ
70
1
9
$DIMTP
40
0.0
9
$DIMTXT
40
0.18
9
$DIMTXTDIRECTION
70
0
9
$DIMTZIN
70
0
9
$DIMZIN
70
0
9
$DIMFRAC
70
0
9
$DIMLTYPE
6
ByBlock
9
$DIMLTEX1
6
ByBlock
9
$DIMLTEX2
6
ByBlock
0
ENDSEC
0
SECTION
2
CLASSES
0
CLASS
1
RASTERVARIABLES
2
AcDbRasterVariables
3
ISM
90
0
280
0
281
0
0
ENDSEC
0
SECTION
2
TABLES
0
TABLE
2
APPID
5
4
330
0
100
AcDbSymbolTable
70
5
0
APPID
5
19
330
4
100
AcDbSymbolTableRecord
100
AcDbRegAppTableRecord
2
ACAD
70
0
0
APPID
5
40
330
4
100
AcDbSymbolTableRecord
100
AcDbRegAppTableRecord
2
AcCmTransparency
70
0
0
APPID
5
41
330
4
100
AcDbSymbolTableRecord
100
AcDbRegAppTableRecord
2
AcAecLayerStandard
70
0
0
APPID
5
42
330
4
100
AcDbSymbolTableRecord
100
AcDbRegAppTableRecord
2
GradientColor1ACI
70
0
0
APPID
5
43
330
4
100
AcDbSymbolTableRecord
100
AcDbRegAppTableRecord
2
GradientColor2ACI
70
0
0
ENDTAB
0
TABLE
2
VPORT
5
1
330
0
100
AcDbSymbolTable
70
1
0
VPORT
5
2
330
1
100
AcDbSymbolTableRecord
100
AcDbViewportTableRecord
2
*Active
70
0
10
0.0
20
0.0
11
1.0
21
1.0
12
0.0
22
0.0
13
0.0
23
0.0
14
0.5
24
0.5
15
10.0
25
10.0
16
0.0
26
0.0
36
1.0
17
0.0
27
0.0
37
0.0
40
10.0
41
1.0
75
0
76
1
0
ENDTAB
0
TABLE
2
LTYPE
5
7
330
0
100
AcDbSymbolTable
70
3
0
LTYPE
5
15
330
7
100
AcDbSymbolTableRecord
100
AcDbLinetypeTableRecord
2
Continuous
70
0
3
Solid line
72
65
73
0
40
0.0
0
LTYPE
5
16
330
7
100
AcDbSymbolTableRecord
100
AcDbLinetypeTableRecord
2
ByLayer
70
0
3

72
65
73
0
40
0.0
0
LTYPE
5
17
330
7
100
AcDbSymbolTableRecord
100
AcDbLinetypeTableRecord
2
ByBlock
70
0
3

72
65
73
0
40
0.0
0
ENDTAB
0
TABLE
2
LAYER
5
5
102
{ACAD_XDICTIONARY
360
6
102
}
330
0
100
AcDbSymbolTable
70
1
0
LAYER
5
14
330
5
100
AcDbSymbolTableRecord
100
AcDbLayerTableRecord
2
0
70
0
62
7
6
Continuous
290
1
370
-3
390
0
0
ENDTAB
0
TABLE
2
STYLE
5
8
330
0
100
AcDbSymbolTable
70
1
0
STYLE
5
18
330
8
100
AcDbSymbolTableRecord
100
AcDbTextStyleTableRecord
2
Standard
3
simplex.shx
70
0
71
0
40
0.0
41
1.0
42
0.0
50
0.0
0
ENDTAB
0
TABLE
2
DIMSTYLE
5
A
330
0
100
AcDbSymbolTable
70
1
100
AcDbDimStyleTable
0
DIMSTYLE
105
1A
330
A
100
AcDbSymbolTableRecord
100
AcDbDimStyleTableRecord
2
Standard
3

4

40
1.0
41
0.18
42
0.0625
43
0.38
44
0.18
45
0.0
46
0.0
47
0.0
48
0.0
49
1.0
70
0
71
0
72
0
73
0
74
0
75
0
76
0
77
0
78
0
79
0
140
0.18
141
0.09
143
25.4
144
1.0
146
1.0
147
0.09
148
0.0
170
0
171
2
172
0
174
0
175
0
176
0
177
0
178
0
179
0
271
4
272
4
273
2
274
2
275
0
276
0
277
2
278
46
279
0
280
0
281
0
282
0
283
1
284
0
285
0
286
0
289
3
290
0
294
0
340
18
173
0
345
17
346
17
347
17
371
-2
372
-2
0
ENDTAB
0
TABLE
2
VIEW
5
3
330
0
100
AcDbSymbolTable
70
0
0
ENDTAB
0
TABLE
2
UCS
5
C
330
0
100
AcDbSymbolTable
70
0
0
ENDTAB
0
TABLE
2
BLOCK_RECORD
5
D
330
0
100
AcDbSymbolTable
70
2
0
BLOCK_RECORD
5
1C
330
D
100
AcDbSymbolTableRecord
100
AcDbBlockTableRecord
2
*Model_Space
340
20
0
BLOCK_RECORD
5
3A
330
D
100
AcDbSymbolTableRecord
100
AcDbBlockTableRecord
2
*Paper_Space
340
3F
0
ENDTAB
0
ENDSEC
0
SECTION
2
BLOCKS
0
BLOCK
5
1E
330
1C
100
AcDbEntity
67
0
8
0
100
AcDbBlockBegin
2
*Model_Space
70
0
10
0.0
20
0.0
30
0.0
3
*Model_Space
4

0
ENDBLK
5
1D
330
1C
100
AcDbEntity
8
0
100
AcDbBlockEnd
0
BLOCK
5
3C
330
3A
100
AcDbEntity
67
1
8
0
100
AcDbBlockBegin
2
*Paper_Space
70
0
10
0.0
20
0.0
30
0.0
3
*Paper_Space
4

0
ENDBLK
5
3B
330
3A
100
AcDbEntity
8
0
100
AcDbBlockEnd
0
ENDSEC
0
SECTION
2
ENTITIES
0
LWPOLYLINE
5
22
330
1C
100
AcDbEntity
67
0
8
0
62
256
6
ByLayer
370
-1
48
1.0
60
0
100
AcDbPolyline
90
41
70
1
38
0.0
39
0.0
10
65.0835037231445
20
67.4693984985352
40
0.0
41
0.0
42
0.0
10
65.4865036010742
20
67.1927032470703
40
0.0
41
0.0
42
0.0
10
65.5036010742188
20
67.1925964355469
40
0.0
41
0.0
42
0.0
10
65.5987014770508
20
67.092399597168
40
0.0
41
0.0
42
0.0
10
65.7226028442383
20
66.9951019287109
40
0.0
41
0.0
42
0.0
10
65.9969024658203
20
66.6652984619141
40
0.0
41
0.0
42
0.0
10
66.0369033813477
20
66.6027984619141
40
0.0
41
0.0
42
0.0
10
66.0804977416992
20
66.591796875
40
0.0
41
0.0
42
0.0
10
66.0742034912109
20
66.5189971923828
40
0.0
41
0.0
42
0.0
10
66.0740966796875
20
66.4852981567383
40
0.0
41
0.0
42
0.0
10
66.2839965820312
20
66.0992965698242
40
0.0
41
0.0
42
0.0
10
66.3089981079102
20
65.9851989746094
40
0.0
41
0.0
42
0.0
10
66.3481979370117
20
65.8523025512695
40
0.0
41
0.0
42
0.0
10
66.4991989135742
20
65.5254974365234
40
0.0
41
0.0
42
0.0
10
66.5664978027344
20
65.3532028198242
40
0.0
41
0.0
42
0.0
10
66.7331008911133
20
65.0009994506836
40
0.0
41
0.0
42
0.0
10
66.7542037963867
20
65.0009994506836
40
0.0
41
0.0
42
0.0
10
66.7540969848633
20
65.0151977539062
40
0.0
41
0.0
42
0.0
10
66.5644989013672
20
65.4167022705078
40
0.0
41
0.0
42
0.0
10
66.5276031494141
20
65.5121002197266
40
0.0
41
0.0
42
0.0
10
66.5007019042969
20
65.5773010253906
40
0.0
41
0.0
42
0.0
10
66.415901184082
20
65.7573013305664
40
0.0
41
0.0
42
0.0
10
66.3424987792969
20
65.9175033569336
40
0.0
41
0.0
42
0.0
10
66.3136978149414
20
66.0147018432617
40
0.0
41
0.0
42
0.0
10
66.2931976318359
20
66.1091003417969
40
0.0
41
0.0
42
0.0
10
66.279899597168
20
66.1463012695312
40
0.0
41
0.0
42
0.0
10
66.0820999145508
20
66.5099029541016
40
0.0
41
0.0
42
0.0
10
66.0914993286133
20
66.6158981323242
40
0.0
41
0.0
42
0.0
10
66.0914001464844
20
66.6386032104492
40
0.0
41
0.0
42
0.0
10
66.0456008911133
20
66.6502990722656
40
0.0
41
0.0
42
0.0
10
66.0028991699219
20
66.7169036865234
40
0.0
41
0.0
42
0.0
10
65.7636032104492
20
67.0046997070312
40
0.0
41
0.0
42
0.0
10
65.6544036865234
20
67.0904006958008
40
0.0
41
0.0
42
0.0
10
65.5282974243164
20
67.223503112793
40
0.0
41
0.0
42
0.0
10
65.5081024169922
20
67.2233963012695
40
0.0
41
0.0
42
0.0
10
65.1463012695312
20
67.4719009399414
40
0.0
41
0.0
42
0.0
10
65.027099609375
20
67.4992980957031
40
0.0
41
0.0
42
0.0
10
65.0165023803711
20
67.5029983520508
40
0.0
41
0.0
42
0.0
10
65.0009994506836
20
67.5029983520508
40
0.0
41
0.0
42
0.0
10
65.0009002685547
20
67.4884033203125
40
0.0
41
0.0
42
0.0
10
65.0835037231445
20
67.4693984985352
40
0.0
41
0.0
42
0.0
210
0.0
220
0.0
230
1.0
0
LWPOLYLINE
5
23
330
1C
100
AcDbEntity
67
0
8
0
62
256
6
ByLayer
370
-1
48
1.0
60
0
100
AcDbPolyline
90
224
70
1
38
0.0
39
0.0
10
65.3535995483398
20
73.9319000244141
40
0.0
41
0.0
42
0.0
10
65.486198425293
20
73.8930969238281
40
0.0
41
0.0
42
0.0
10
65.8482971191406
20
73.7743988037109
40
0.0
41
0.0
42
0.0
10
65.8830032348633
20
73.774299621582
40
0.0
41
0.0
42
0.0
10
66.0176010131836
20
73.7990036010742
40
0.0
41
0.0
42
0.0
10
66.3836975097656
20
73.815299987793
40
0.0
41
0.0
42
0.0
10
66.4178009033203
20
73.8178024291992
40
0.0
41
0.0
42
0.0
10
66.4733963012695
20
73.8554992675781
40
0.0
41
0.0
42
0.0
10
66.5105972290039
20
73.8784027099609
40
0.0
41
0.0
42
0.0
10
66.8205032348633
20
73.999397277832
40
0.0
41
0.0
42
0.0
10
66.8723983764648
20
74.0210037231445
40
0.0
41
0.0
42
0.0
10
66.9497985839844
20
74.0930023193359
40
0.0
41
0.0
42
0.0
10
66.9909973144531
20
74.1092987060547
40
0.0
41
0.0
42
0.0
10
67.0075988769531
20
74.1240005493164
40
0.0
41
0.0
42
0.0
10
67.3963012695312
20
74.3518981933594
40
0.0
41
0.0
42
0.0
10
67.5078964233398
20
74.4458999633789
40
0.0
41
0.0
42
0.0
10
67.5997009277344
20
74.4977035522461
40
0.0
41
0.0
42
0.0
10
68.0092010498047
20
74.7942962646484
40
0.0
41
0.0
42
0.0
10
68.2779006958008
20
74.9235000610352
40
0.0
41
0.0
42
0.0
10
68.4642028808594
20
74.9973983764648
40
0.0
41
0.0
42
0.0
10
68.507698059082
20
75.0506973266602
40
0.0
41
0.0
42
0.0
10
68.9957962036133
20
75.2033004760742
40
0.0
41
0.0
42
0.0
10
69.0728988647461
20
75.0710983276367
40
0.0
41
0.0
42
0.0
10
69.1677017211914
20
74.9996032714844
40
0.0
41
0.0
42
0.0
10
69.4884033203125
20
74.9384994506836
40
0.0
41
0.0
42
0.0
10
69.5843963623047
20
74.8693008422852
40
0.0
41
0.0
42
0.0
10
69.986198425293
20
74.7481002807617
40
0.0
41
0.0
42
0.0
10
70.393798828125
20
74.6175994873047
40
0.0
41
0.0
42
0.0
10
70.4880981445312
20
74.5593032836914
40
0.0
41
0.0
42
0.0
10
70.6493988037109
20
74.5204010009766
40
0.0
41
0.0
42
0.0
10
70.6934967041016
20
74.4987030029297
40
0.0
41
0.0
42
0.0
10
70.7673034667969
20
74.4674987792969
40
0.0
41
0.0
42
0.0
10
70.9826965332031
20
74.4280014038086
40
0.0
41
0.0
42
0.0
10
71.3489990234375
20
74.39990234375
40
0.0
41
0.0
42
0.0
10
71.4832000732422
20
74.3570022583008
40
0.0
41
0.0
42
0.0
10
71.5188980102539
20
74.3569030761719
40
0.0
41
0.0
42
0.0
10
71.8587036132812
20
74.3908996582031
40
0.0
41
0.0
42
0.0
10
71.9822006225586
20
74.3636016845703
40
0.0
41
0.0
42
0.0
10
72.0158996582031
20
74.3636016845703
40
0.0
41
0.0
42
0.0
10
72.0818023681641
20
74.3897018432617
40
0.0
41
0.0
42
0.0
10
72.2074966430664
20
74.3532028198242
40
0.0
41
0.0
42
0.0
10
72.2349014282227
20
74.3533020019531
40
0.0
41
0.0
42
0.0
10
72.3595962524414
20
74.4988021850586
40
0.0
41
0.0
42
0.0
10
72.5142974853516
20
74.534797668457
40
0.0
41
0.0
42
0.0
10
72.6112976074219
20
74.5663986206055
40
0.0
41
0.0
42
0.0
10
73.0147018432617
20
74.6800994873047
40
0.0
41
0.0
42
0.0
10
73.3798980712891
20
74.7669982910156
40
0.0
41
0.0
42
0.0
10
73.5158996582031
20
74.8022003173828
40
0.0
41
0.0
42
0.0
10
73.8714981079102
20
74.8495025634766
40
0.0
41
0.0
42
0.0
10
73.980598449707
20
74.842903137207
40
0.0
41
0.0
42
0.0
10
74.0179977416992
20
74.8427963256836
40
0.0
41
0.0
42
0.0
10
74.3766021728516
20
74.9111022949219
40
0.0
41
0.0
42
0.0
10
74.4199981689453
20
74.8749008178711
40
0.0
41
0.0
42
0.0
10
74.3914031982422
20
74.5190963745117
40
0.0
41
0.0
42
0.0
10
74.3912963867188
20
74.4907989501953
40
0.0
41
0.0
42
0.0
10
74.4001998901367
20
74.4843978881836
40
0.0
41
0.0
42
0.0
10
74.4857025146484
20
74.434196472168
40
0.0
41
0.0
42
0.0
10
74.519401550293
20
74.4340972900391
40
0.0
41
0.0
42
0.0
10
74.8740005493164
20
74.4527969360352
40
0.0
41
0.0
42
0.0
10
74.9434967041016
20
74.3751983642578
40
0.0
41
0.0
42
0.0
10
74.8945007324219
20
74.0157012939453
40
0.0
41
0.0
42
0.0
10
74.7894973754883
20
73.6466979980469
40
0.0
41
0.0
42
0.0
10
74.7100982666016
20
73.508903503418
40
0.0
41
0.0
42
0.0
10
74.4918975830078
20
73.1790008544922
40
0.0
41
0.0
42
0.0
10
74.3951034545898
20
73.1712036132812
40
0.0
41
0.0
42
0.0
10
74.372200012207
20
73.1456985473633
40
0.0
41
0.0
42
0.0
10
74.3538970947266
20
73.0141983032227
40
0.0
41
0.0
42
0.0
10
74.1925964355469
20
72.6476974487305
40
0.0
41
0.0
42
0.0
10
74.1503982543945
20
72.5074996948242
40
0.0
41
0.0
42
0.0
10
74.0146026611328
20
72.0152969360352
40
0.0
41
0.0
42
0.0
10
74.0003967285156
20
71.9347991943359
40
0.0
41
0.0
42
0.0
10
73.915397644043
20
71.6427001953125
40
0.0
41
0.0
42
0.0
10
73.9152984619141
20
71.6066970825195
40
0.0
41
0.0
42
0.0
10
73.9261016845703
20
71.4933013916016
40
0.0
41
0.0
42
0.0
10
73.9100036621094
20
71.1544036865234
40
0.0
41
0.0
42
0.0
10
73.9098968505859
20
71.11669921875
40
0.0
41
0.0
42
0.0
10
73.9324035644531
20
70.9845962524414
40
0.0
41
0.0
42
0.0
10
73.970703125
20
70.8486022949219
40
0.0
41
0.0
42
0.0
10
73.9973983764648
20
70.4852981567383
40
0.0
41
0.0
42
0.0
10
74.018798828125
20
70.439697265625
40
0.0
41
0.0
42
0.0
10
74.0690994262695
20
70.3676986694336
40
0.0
41
0.0
42
0.0
10
74.1468963623047
20
69.9842987060547
40
0.0
41
0.0
42
0.0
10
74.2329025268555
20
69.5843963623047
40
0.0
41
0.0
42
0.0
10
74.2828979492188
20
69.5242004394531
40
0.0
41
0.0
42
0.0
10
74.3161010742188
20
69.4886016845703
40
0.0
41
0.0
42
0.0
10
74.3303985595703
20
69.1346969604492
40
0.0
41
0.0
42
0.0
10
74.4029006958008
20
68.9987030029297
40
0.0
41
0.0
42
0.0
10
74.3293991088867
20
68.8274002075195
40
0.0
41
0.0
42
0.0
10
74.2814025878906
20
68.5101013183594
40
0.0
41
0.0
42
0.0
10
74.256103515625
20
68.4841003417969
40
0.0
41
0.0
42
0.0
10
73.9963989257812
20
68.2487030029297
40
0.0
41
0.0
42
0.0
10
73.8535995483398
20
68.0071029663086
40
0.0
41
0.0
42
0.0
10
73.7590026855469
20
67.9101028442383
40
0.0
41
0.0
42
0.0
10
73.6187973022461
20
67.7736968994141
40
0.0
41
0.0
42
0.0
10
73.4962997436523
20
67.6267013549805
40
0.0
41
0.0
42
0.0
10
73.4032974243164
20
67.5052032470703
40
0.0
41
0.0
42
0.0
10
73.2858963012695
20
67.410400390625
40
0.0
41
0.0
42
0.0
10
72.9980010986328
20
67.0058975219727
40
0.0
41
0.0
42
0.0
10
72.8927001953125
20
66.9103012084961
40
0.0
41
0.0
42
0.0
10
72.8618011474609
20
66.8740005493164
40
0.0
41
0.0
42
0.0
10
72.7188034057617
20
66.5158004760742
40
0.0
41
0.0
42
0.0
10
72.7156982421875
20
66.1496963500977
40
0.0
41
0.0
42
0.0
10
72.6443023681641
20
66.0147018432617
40
0.0
41
0.0
42
0.0
10
72.6442031860352
20
65.9806976318359
40
0.0
41
0.0
42
0.0
10
72.6596984863281
20
65.7740020751953
40
0.0
41
0.0
42
0.0
10
72.7540969848633
20
65.4881973266602
40
0.0
41
0.0
42
0.0
10
72.997802734375
20
65.0268020629883
40
0.0
41
0.0
42
0.0
10
73.0162963867188
20
65.0009994506836
40
0.0
41
0.0
42
0.0
10
73.1003036499023
20
65.0009994506836
40
0.0
41
0.0
42
0.0
10
73.1001968383789
20
65.0131988525391
40
0.0
41
0.0
42
0.0
10
73.002197265625
20
65.1503982543945
40
0.0
41
0.0
42
0.0
10
72.9796981811523
20
65.1899032592773
40
0.0
41
0.0
42
0.0
10
72.8100967407227
20
65.5117034912109
40
0.0
41
0.0
42
0.0
10
72.6923980712891
20
65.8678970336914
40
0.0
41
0.0
42
0.0
10
72.6832962036133
20
65.9894027709961
40
0.0
41
0.0
42
0.0
10
72.7314987182617
20
66.0802993774414
40
0.0
41
0.0
42
0.0
10
72.7350006103516
20
66.4841003417969
40
0.0
41
0.0
42
0.0
10
72.8942031860352
20
66.8831024169922
40
0.0
41
0.0
42
0.0
10
73.018798828125
20
66.9941024780273
40
0.0
41
0.0
42
0.0
10
73.2789001464844
20
67.3594970703125
40
0.0
41
0.0
42
0.0
10
73.446403503418
20
67.4946975708008
40
0.0
41
0.0
42
0.0
10
73.5035018920898
20
67.5691986083984
40
0.0
41
0.0
42
0.0
10
73.5829010009766
20
67.6645965576172
40
0.0
41
0.0
42
0.0
10
73.7835998535156
20
67.8598022460938
40
0.0
41
0.0
42
0.0
10
73.9133987426758
20
67.9927978515625
40
0.0
41
0.0
42
0.0
10
74.0035018920898
20
68.1453018188477
40
0.0
41
0.0
42
0.0
10
74.3770980834961
20
68.4838027954102
40
0.0
41
0.0
42
0.0
10
74.382698059082
20
68.4897003173828
40
0.0
41
0.0
42
0.0
10
74.4494018554688
20
68.9310989379883
40
0.0
41
0.0
42
0.0
10
74.472297668457
20
68.9842987060547
40
0.0
41
0.0
42
0.0
10
74.4721984863281
20
69.0147018432617
40
0.0
41
0.0
42
0.0
10
74.3592987060547
20
69.2263031005859
40
0.0
41
0.0
42
0.0
10
74.3478012084961
20
69.5112991333008
40
0.0
41
0.0
42
0.0
10
74.3123016357422
20
69.549201965332
40
0.0
41
0.0
42
0.0
10
74.2324981689453
20
69.6455001831055
40
0.0
41
0.0
42
0.0
10
74.1529006958008
20
70.0156021118164
40
0.0
41
0.0
42
0.0
10
74.0791015625
20
70.3790969848633
40
0.0
41
0.0
42
0.0
10
74.0653991699219
20
70.4150009155273
40
0.0
41
0.0
42
0.0
10
74.0245971679688
20
70.4733963012695
40
0.0
41
0.0
42
0.0
10
74.0047988891602
20
70.5140991210938
40
0.0
41
0.0
42
0.0
10
73.9990005493164
20
70.5718994140625
40
0.0
41
0.0
42
0.0
10
73.9730987548828
20
70.9213027954102
40
0.0
41
0.0
42
0.0
10
73.9466018676758
20
71.0152969360352
40
0.0
41
0.0
42
0.0
10
73.931396484375
20
71.1047973632812
40
0.0
41
0.0
42
0.0
10
73.9494018554688
20
71.4804000854492
40
0.0
41
0.0
42
0.0
10
73.9493026733398
20
71.5188980102539
40
0.0
41
0.0
42
0.0
10
73.9438018798828
20
71.5765991210938
40
0.0
41
0.0
42
0.0
10
73.9994964599609
20
71.7675018310547
40
0.0
41
0.0
42
0.0
10
74.0379028320312
20
71.9845962524414
40
0.0
41
0.0
42
0.0
10
74.1763000488281
20
72.4858016967773
40
0.0
41
0.0
42
0.0
10
74.2053985595703
20
72.5822982788086
40
0.0
41
0.0
42
0.0
10
74.3831024169922
20
72.9858016967773
40
0.0
41
0.0
42
0.0
10
74.3968963623047
20
73.0841979980469
40
0.0
41
0.0
42
0.0
10
74.4432983398438
20
73.1356964111328
40
0.0
41
0.0
42
0.0
10
74.5081024169922
20
73.140998840332
40
0.0
41
0.0
42
0.0
10
74.7397994995117
20
73.4909973144531
40
0.0
41
0.0
42
0.0
10
74.7929000854492
20
73.5831985473633
40
0.0
41
0.0
42
0.0
10
74.9069976806641
20
73.9842987060547
40
0.0
41
0.0
42
0.0
10
74.9645004272461
20
74.4067993164062
40
0.0
41
0.0
42
0.0
10
74.9644012451172
20
74.4373016357422
40
0.0
41
0.0
42
0.0
10
74.9358978271484
20
74.4692993164062
40
0.0
41
0.0
42
0.0
10
74.9058990478516
20
74.4692001342773
40
0.0
41
0.0
42
0.0
10
74.5113983154297
20
74.4481964111328
40
0.0
41
0.0
42
0.0
10
74.4443969726562
20
74.4878005981445
40
0.0
41
0.0
42
0.0
10
74.4163970947266
20
74.5074005126953
40
0.0
41
0.0
42
0.0
10
74.448600769043
20
74.9061965942383
40
0.0
41
0.0
42
0.0
10
74.4485015869141
20
74.9355010986328
40
0.0
41
0.0
42
0.0
10
74.4376983642578
20
74.9446029663086
40
0.0
41
0.0
42
0.0
10
74.4073028564453
20
74.9445037841797
40
0.0
41
0.0
42
0.0
10
73.991096496582
20
74.8651962280273
40
0.0
41
0.0
42
0.0
10
73.9243011474609
20
74.8694000244141
40
0.0
41
0.0
42
0.0
10
73.8862991333008
20
74.8693008422852
40
0.0
41
0.0
42
0.0
10
73.484001159668
20
74.8155975341797
40
0.0
41
0.0
42
0.0
10
73.3899993896484
20
74.7913970947266
40
0.0
41
0.0
42
0.0
10
72.9852981567383
20
74.6949005126953
40
0.0
41
0.0
42
0.0
10
72.5547027587891
20
74.5735015869141
40
0.0
41
0.0
42
0.0
10
72.4856033325195
20
74.5510025024414
40
0.0
41
0.0
42
0.0
10
72.2707977294922
20
74.5010986328125
40
0.0
41
0.0
42
0.0
10
72.1854019165039
20
74.4013977050781
40
0.0
41
0.0
42
0.0
10
72.1054000854492
20
74.4245986938477
40
0.0
41
0.0
42
0.0
10
72.0725021362305
20
74.4244995117188
40
0.0
41
0.0
42
0.0
10
71.9960021972656
20
74.3939971923828
40
0.0
41
0.0
42
0.0
10
71.9226989746094
20
74.410400390625
40
0.0
41
0.0
42
0.0
10
71.8860015869141
20
74.410400390625
40
0.0
41
0.0
42
0.0
10
71.5082015991211
20
74.3725967407227
40
0.0
41
0.0
42
0.0
10
71.4208984375
20
74.4004974365234
40
0.0
41
0.0
42
0.0
10
71.0171966552734
20
74.4316024780273
40
0.0
41
0.0
42
0.0
10
70.7741012573242
20
74.4763031005859
40
0.0
41
0.0
42
0.0
10
70.7172012329102
20
74.5008010864258
40
0.0
41
0.0
42
0.0
10
70.6589965820312
20
74.529296875
40
0.0
41
0.0
42
0.0
10
70.5117034912109
20
74.5647964477539
40
0.0
41
0.0
42
0.0
10
70.3759994506836
20
74.6486968994141
40
0.0
41
0.0
42
0.0
10
70.0137023925781
20
74.7647018432617
40
0.0
41
0.0
42
0.0
10
69.6455001831055
20
74.8758010864258
40
0.0
41
0.0
42
0.0
10
69.5113983154297
20
74.9725036621094
40
0.0
41
0.0
42
0.0
10
69.36669921875
20
75.0001983642578
40
0.0
41
0.0
42
0.0
10
69.1566009521484
20
75.1584014892578
40
0.0
41
0.0
42
0.0
10
69.0078964233398
20
75.4134979248047
40
0.0
41
0.0
42
0.0
10
68.9831008911133
20
75.4133987426758
40
0.0
41
0.0
42
0.0
10
68.4922027587891
20
75.2610015869141
40
0.0
41
0.0
42
0.0
10
68.2810974121094
20
75.0024032592773
40
0.0
41
0.0
42
0.0
10
68.1565017700195
20
74.9529037475586
40
0.0
41
0.0
42
0.0
10
67.9907989501953
20
74.8733978271484
40
0.0
41
0.0
42
0.0
10
67.4929962158203
20
74.510498046875
40
0.0
41
0.0
42
0.0
10
67.3338012695312
20
74.3749008178711
40
0.0
41
0.0
42
0.0
10
66.9924011230469
20
74.1747970581055
40
0.0
41
0.0
42
0.0
10
66.9657974243164
20
74.1512985229492
40
0.0
41
0.0
42
0.0
10
66.92919921875
20
74.1369018554688
40
0.0
41
0.0
42
0.0
10
66.8196029663086
20
74.034797668457
40
0.0
41
0.0
42
0.0
10
66.7368011474609
20
74.0003967285156
40
0.0
41
0.0
42
0.0
10
66.4894027709961
20
73.9039001464844
40
0.0
41
0.0
42
0.0
10
66.4412002563477
20
73.8741989135742
40
0.0
41
0.0
42
0.0
10
66.3536987304688
20
73.8149032592773
40
0.0
41
0.0
42
0.0
10
65.9822998046875
20
73.7984008789062
40
0.0
41
0.0
42
0.0
10
65.9092025756836
20
73.7850036621094
40
0.0
41
0.0
42
0.0
10
65.5137023925781
20
73.9147033691406
40
0.0
41
0.0
42
0.0
10
65.4160995483398
20
73.9432983398438
40
0.0
41
0.0
42
0.0
10
65.323600769043
20
74.0026016235352
40
0.0
41
0.0
42
0.0
10
65.0130004882812
20
74.2343978881836
40
0.0
41
0.0
42
0.0
10
65.0009994506836
20
74.2343978881836
40
0.0
41
0.0
42
0.0
10
65.0009002685547
20
74.1848983764648
40
0.0
41
0.0
42
0.0
10
65.252799987793
20
73.9971008300781
40
0.0
41
0.0
42
0.0
10
65.3171005249023
20
73.9548034667969
40
0.0
41
0.0
42
0.0
10
65.3535995483398
20
73.9319000244141
40
0.0
41
0.0
42
0.0
210
0.0
220
0.0
230
1.0
0
LWPOLYLINE
5
24
330
1C
100
AcDbEntity
67
0
8
0
62
256
6
ByLayer
370
-1
48
1.0
60
0
100
AcDbPolyline
90
221
70
1
38
0.0
39
0.0
10
65.0131988525391
20
76.8994979858398
40
0.0
41
0.0
42
0.0
10
65.1504974365234
20
76.9975967407227
40
0.0
41
0.0
42
0.0
10
65.1900024414062
20
77.0199966430664
40
0.0
41
0.0
42
0.0
10
65.5117034912109
20
77.1895980834961
40
0.0
41
0.0
42
0.0
10
65.8678970336914
20
77.3072967529297
40
0.0
41
0.0
42
0.0
10
65.9894027709961
20
77.3163986206055
40
0.0
41
0.0
42
0.0
10
66.0802001953125
20
77.2682037353516
40
0.0
41
0.0
42
0.0
10
66.4841003417969
20
77.2647018432617
40
0.0
41
0.0
42
0.0
10
66.8831024169922
20
77.1054992675781
40
0.0
41
0.0
42
0.0
10
66.9949035644531
20
76.9798965454102
40
0.0
41
0.0
42
0.0
10
67.1955032348633
20
76.7938003540039
40
0.0
41
0.0
42
0.0
10
67.4928970336914
20
76.5547027587891
40
0.0
41
0.0
42
0.0
10
67.5690994262695
20
76.4962997436523
40
0.0
41
0.0
42
0.0
10
67.6644973754883
20
76.4169006347656
40
0.0
41
0.0
42
0.0
10
67.9928970336914
20
76.0863037109375
40
0.0
41
0.0
42
0.0
10
68.1452026367188
20
75.9963989257812
40
0.0
41
0.0
42
0.0
10
68.4838027954102
20
75.6227035522461
40
0.0
41
0.0
42
0.0
10
68.4897003173828
20
75.6169967651367
40
0.0
41
0.0
42
0.0
10
68.9309997558594
20
75.5502014160156
40
0.0
41
0.0
42
0.0
10
68.9841995239258
20
75.5276031494141
40
0.0
41
0.0
42
0.0
10
69.0147018432617
20
75.5274963378906
40
0.0
41
0.0
42
0.0
10
69.2261962890625
20
75.6404037475586
40
0.0
41
0.0
42
0.0
10
69.5112991333008
20
75.6519012451172
40
0.0
41
0.0
42
0.0
10
69.5493011474609
20
75.6874008178711
40
0.0
41
0.0
42
0.0
10
69.6455001831055
20
75.7671966552734
40
0.0
41
0.0
42
0.0
10
70.0157012939453
20
75.8468017578125
40
0.0
41
0.0
42
0.0
10
70.3790969848633
20
75.9206008911133
40
0.0
41
0.0
42
0.0
10
70.4150009155273
20
75.9343032836914
40
0.0
41
0.0
42
0.0
10
70.473503112793
20
75.97509765625
40
0.0
41
0.0
42
0.0
10
70.5140991210938
20
75.9949035644531
40
0.0
41
0.0
42
0.0
10
70.5718994140625
20
76.0008010864258
40
0.0
41
0.0
42
0.0
10
70.9213027954102
20
76.0266036987305
40
0.0
41
0.0
42
0.0
10
71.0152969360352
20
76.0531005859375
40
0.0
41
0.0
42
0.0
10
71.1047973632812
20
76.0682983398438
40
0.0
41
0.0
42
0.0
10
71.4804000854492
20
76.0504989624023
40
0.0
41
0.0
42
0.0
10
71.5189971923828
20
76.0503997802734
40
0.0
41
0.0
42
0.0
10
71.5764999389648
20
76.0559005737305
40
0.0
41
0.0
42
0.0
10
71.7675018310547
20
76.0002975463867
40
0.0
41
0.0
42
0.0
10
71.9845962524414
20
75.961799621582
40
0.0
41
0.0
42
0.0
10
72.4858016967773
20
75.8234024047852
40
0.0
41
0.0
42
0.0
10
72.5821990966797
20
75.7942962646484
40
0.0
41
0.0
42
0.0
10
72.9857025146484
20
75.6166000366211
40
0.0
41
0.0
42
0.0
10
73.0841979980469
20
75.602897644043
40
0.0
41
0.0
42
0.0
10
73.1356964111328
20
75.5565032958984
40
0.0
41
0.0
42
0.0
10
73.1408996582031
20
75.4917984008789
40
0.0
41
0.0
42
0.0
10
73.4908981323242
20
75.2599029541016
40
0.0
41
0.0
42
0.0
10
73.5830993652344
20
75.2068023681641
40
0.0
41
0.0
42
0.0
10
73.9842987060547
20
75.0926971435547
40
0.0
41
0.0
42
0.0
10
74.4067993164062
20
75.035400390625
40
0.0
41
0.0
42
0.0
10
74.4374008178711
20
75.0353012084961
40
0.0
41
0.0
42
0.0
10
74.4692993164062
20
75.0639038085938
40
0.0
41
0.0
42
0.0
10
74.4692001342773
20
75.0939025878906
40
0.0
41
0.0
42
0.0
10
74.4483032226562
20
75.4885025024414
40
0.0
41
0.0
42
0.0
10
74.4878005981445
20
75.5552978515625
40
0.0
41
0.0
42
0.0
10
74.5074996948242
20
75.5832977294922
40
0.0
41
0.0
42
0.0
10
74.9061965942383
20
75.5511016845703
40
0.0
41
0.0
42
0.0
10
74.9355010986328
20
75.5512008666992
40
0.0
41
0.0
42
0.0
10
74.9446029663086
20
75.5621032714844
40
0.0
41
0.0
42
0.0
10
74.9445037841797
20
75.5924987792969
40
0.0
41
0.0
42
0.0
10
74.8651962280273
20
76.0087966918945
40
0.0
41
0.0
42
0.0
10
74.8694000244141
20
76.0755996704102
40
0.0
41
0.0
42
0.0
10
74.8693008422852
20
76.1136016845703
40
0.0
41
0.0
42
0.0
10
74.8155975341797
20
76.5158996582031
40
0.0
41
0.0
42
0.0
10
74.7913970947266
20
76.6099014282227
40
0.0
41
0.0
42
0.0
10
74.6949005126953
20
77.0146026611328
40
0.0
41
0.0
42
0.0
10
74.5735015869141
20
77.4450988769531
40
0.0
41
0.0
42
0.0
10
74.5509033203125
20
77.5142974853516
40
0.0
41
0.0
42
0.0
10
74.5009994506836
20
77.7289962768555
40
0.0
41
0.0
42
0.0
10
74.4013977050781
20
77.8143997192383
40
0.0
41
0.0
42
0.0
10
74.4245986938477
20
77.894401550293
40
0.0
41
0.0
42
0.0
10
74.4244995117188
20
77.9272994995117
40
0.0
41
0.0
42
0.0
10
74.3940963745117
20
78.0038986206055
40
0.0
41
0.0
42
0.0
10
74.410400390625
20
78.0772018432617
40
0.0
41
0.0
42
0.0
10
74.4103012084961
20
78.113899230957
40
0.0
41
0.0
42
0.0
10
74.3725967407227
20
78.49169921875
40
0.0
41
0.0
42
0.0
10
74.4004974365234
20
78.5790023803711
40
0.0
41
0.0
42
0.0
10
74.4316024780273
20
78.9826965332031
40
0.0
41
0.0
42
0.0
10
74.4763031005859
20
79.225700378418
40
0.0
41
0.0
42
0.0
10
74.5008010864258
20
79.282600402832
40
0.0
41
0.0
42
0.0
10
74.529296875
20
79.3407974243164
40
0.0
41
0.0
42
0.0
10
74.5647964477539
20
79.4880981445312
40
0.0
41
0.0
42
0.0
10
74.6488037109375
20
79.6239013671875
40
0.0
41
0.0
42
0.0
10
74.7647018432617
20
79.986198425293
40
0.0
41
0.0
42
0.0
10
74.8759002685547
20
80.3544006347656
40
0.0
41
0.0
42
0.0
10
74.9725036621094
20
80.4885025024414
40
0.0
41
0.0
42
0.0
10
75.0007019042969
20
80.635498046875
40
0.0
41
0.0
42
0.0
10
75.4134979248047
20
80.9896011352539
40
0.0
41
0.0
42
0.0
10
75.4133987426758
20
81.0167999267578
40
0.0
41
0.0
42
0.0
10
75.2611999511719
20
81.5067977905273
40
0.0
41
0.0
42
0.0
10
75.1126022338867
20
81.6099014282227
40
0.0
41
0.0
42
0.0
10
75.0019989013672
20
81.7197036743164
40
0.0
41
0.0
42
0.0
10
74.9527969360352
20
81.8432998657227
40
0.0
41
0.0
42
0.0
10
74.8732986450195
20
82.0091018676758
40
0.0
41
0.0
42
0.0
10
74.510498046875
20
82.5068969726562
40
0.0
41
0.0
42
0.0
10
74.3749008178711
20
82.6660003662109
40
0.0
41
0.0
42
0.0
10
74.1747970581055
20
83.0074996948242
40
0.0
41
0.0
42
0.0
10
74.1512985229492
20
83.0339965820312
40
0.0
41
0.0
42
0.0
10
74.1368026733398
20
83.0706024169922
40
0.0
41
0.0
42
0.0
10
74.034797668457
20
83.1801986694336
40
0.0
41
0.0
42
0.0
10
74.0003967285156
20
83.2630004882812
40
0.0
41
0.0
42
0.0
10
73.9038009643555
20
83.510498046875
40
0.0
41
0.0
42
0.0
10
73.8741989135742
20
83.5585021972656
40
0.0
41
0.0
42
0.0
10
73.8149032592773
20
83.6462020874023
40
0.0
41
0.0
42
0.0
10
73.7984008789062
20
84.0176010131836
40
0.0
41
0.0
42
0.0
10
73.7850036621094
20
84.0906982421875
40
0.0
41
0.0
42
0.0
10
73.9148025512695
20
84.486198425293
40
0.0
41
0.0
42
0.0
10
73.9432983398438
20
84.5838012695312
40
0.0
41
0.0
42
0.0
10
74.0027008056641
20
84.6761016845703
40
0.0
41
0.0
42
0.0
10
74.2343978881836
20
84.9869003295898
40
0.0
41
0.0
42
0.0
10
74.2343978881836
20
84.9990005493164
40
0.0
41
0.0
42
0.0
10
74.1848983764648
20
84.9990005493164
40
0.0
41
0.0
42
0.0
10
73.997200012207
20
84.747200012207
40
0.0
41
0.0
42
0.0
10
73.9319000244141
20
84.6461029052734
40
0.0
41
0.0
42
0.0
10
73.8932037353516
20
84.5137023925781
40
0.0
41
0.0
42
0.0
10
73.7743988037109
20
84.1516036987305
40
0.0
41
0.0
42
0.0
10
73.774299621582
20
84.1168975830078
40
0.0
41
0.0
42
0.0
10
73.7990036010742
20
83.9822998046875
40
0.0
41
0.0
42
0.0
10
73.815299987793
20
83.6162033081055
40
0.0
41
0.0
42
0.0
10
73.8178024291992
20
83.5820007324219
40
0.0
41
0.0
42
0.0
10
73.8554000854492
20
83.5263977050781
40
0.0
41
0.0
42
0.0
10
73.8784027099609
20
83.4893035888672
40
0.0
41
0.0
42
0.0
10
73.9992980957031
20
83.1792984008789
40
0.0
41
0.0
42
0.0
10
74.0208969116211
20
83.1274032592773
40
0.0
41
0.0
42
0.0
10
74.0930023193359
20
83.0500030517578
40
0.0
41
0.0
42
0.0
10
74.1091995239258
20
83.0087966918945
40
0.0
41
0.0
42
0.0
10
74.1239013671875
20
82.992301940918
40
0.0
41
0.0
42
0.0
10
74.3517990112305
20
82.6035003662109
40
0.0
41
0.0
42
0.0
10
74.4458999633789
20
82.4918975830078
40
0.0
41
0.0
42
0.0
10
74.4975967407227
20
82.4001007080078
40
0.0
41
0.0
42
0.0
10
74.7942962646484
20
81.9906997680664
40
0.0
41
0.0
42
0.0
10
74.9235000610352
20
81.7219009399414
40
0.0
41
0.0
42
0.0
10
74.997802734375
20
81.5346984863281
40
0.0
41
0.0
42
0.0
10
75.0149002075195
20
81.5176010131836
40
0.0
41
0.0
42
0.0
10
75.0503997802734
20
81.4931030273438
40
0.0
41
0.0
42
0.0
10
75.2032012939453
20
81.0046005249023
40
0.0
41
0.0
42
0.0
10
74.9991989135742
20
80.8296966552734
40
0.0
41
0.0
42
0.0
10
74.9385986328125
20
80.5113983154297
40
0.0
41
0.0
42
0.0
10
74.8693008422852
20
80.4154968261719
40
0.0
41
0.0
42
0.0
10
74.7481002807617
20
80.0137023925781
40
0.0
41
0.0
42
0.0
10
74.6175994873047
20
79.6061019897461
40
0.0
41
0.0
42
0.0
10
74.5593032836914
20
79.5118026733398
40
0.0
41
0.0
42
0.0
10
74.5204010009766
20
79.3504028320312
40
0.0
41
0.0
42
0.0
10
74.4987030029297
20
79.3061981201172
40
0.0
41
0.0
42
0.0
10
74.4674987792969
20
79.2324981689453
40
0.0
41
0.0
42
0.0
10
74.4280014038086
20
79.0171966552734
40
0.0
41
0.0
42
0.0
10
74.39990234375
20
78.6509017944336
40
0.0
41
0.0
42
0.0
10
74.3570022583008
20
78.5167007446289
40
0.0
41
0.0
42
0.0
10
74.3567962646484
20
78.4810028076172
40
0.0
41
0.0
42
0.0
10
74.3908996582031
20
78.1411972045898
40
0.0
41
0.0
42
0.0
10
74.3636016845703
20
78.0177001953125
40
0.0
41
0.0
42
0.0
10
74.3635025024414
20
77.984001159668
40
0.0
41
0.0
42
0.0
10
74.3898010253906
20
77.9179992675781
40
0.0
41
0.0
42
0.0
10
74.3532028198242
20
77.7922973632812
40
0.0
41
0.0
42
0.0
10
74.3532028198242
20
77.7649002075195
40
0.0
41
0.0
42
0.0
10
74.4988021850586
20
77.6401977539062
40
0.0
41
0.0
42
0.0
10
74.5346984863281
20
77.4856033325195
40
0.0
41
0.0
42
0.0
10
74.5663986206055
20
77.3883972167969
40
0.0
41
0.0
42
0.0
10
74.6800003051758
20
76.9851989746094
40
0.0
41
0.0
42
0.0
10
74.7669982910156
20
76.620002746582
40
0.0
41
0.0
42
0.0
10
74.8022003173828
20
76.484001159668
40
0.0
41
0.0
42
0.0
10
74.8495025634766
20
76.1284027099609
40
0.0
41
0.0
42
0.0
10
74.842903137207
20
76.0193023681641
40
0.0
41
0.0
42
0.0
10
74.8427963256836
20
75.9819030761719
40
0.0
41
0.0
42
0.0
10
74.9111022949219
20
75.6231994628906
40
0.0
41
0.0
42
0.0
10
74.8749008178711
20
75.5796966552734
40
0.0
41
0.0
42
0.0
10
74.5190963745117
20
75.6084976196289
40
0.0
41
0.0
42
0.0
10
74.4907989501953
20
75.6083984375
40
0.0
41
0.0
42
0.0
10
74.4843978881836
20
75.5996017456055
40
0.0
41
0.0
42
0.0
10
74.434196472168
20
75.5141983032227
40
0.0
41
0.0
42
0.0
10
74.4340972900391
20
75.4804992675781
40
0.0
41
0.0
42
0.0
10
74.4529037475586
20
75.1258010864258
40
0.0
41
0.0
42
0.0
10
74.3752975463867
20
75.0561981201172
40
0.0
41
0.0
42
0.0
10
74.0156021118164
20
75.1052017211914
40
0.0
41
0.0
42
0.0
10
73.6466979980469
20
75.2102966308594
40
0.0
41
0.0
42
0.0
10
73.508903503418
20
75.2895965576172
40
0.0
41
0.0
42
0.0
10
73.1790008544922
20
75.5080032348633
40
0.0
41
0.0
42
0.0
10
73.1712036132812
20
75.6045989990234
40
0.0
41
0.0
42
0.0
10
73.1455993652344
20
75.6275024414062
40
0.0
41
0.0
42
0.0
10
73.0140991210938
20
75.6457977294922
40
0.0
41
0.0
42
0.0
10
72.6475982666016
20
75.8070983886719
40
0.0
41
0.0
42
0.0
10
72.5140991210938
20
75.8475036621094
40
0.0
41
0.0
42
0.0
10
72.0152969360352
20
75.9850997924805
40
0.0
41
0.0
42
0.0
10
71.9347991943359
20
75.999397277832
40
0.0
41
0.0
42
0.0
10
71.6427001953125
20
76.0845031738281
40
0.0
41
0.0
42
0.0
10
71.6066970825195
20
76.0843963623047
40
0.0
41
0.0
42
0.0
10
71.4934005737305
20
76.073600769043
40
0.0
41
0.0
42
0.0
10
71.1544036865234
20
76.0898971557617
40
0.0
41
0.0
42
0.0
10
71.11669921875
20
76.0897979736328
40
0.0
41
0.0
42
0.0
10
70.9845962524414
20
76.0672988891602
40
0.0
41
0.0
42
0.0
10
70.8486022949219
20
76.0289993286133
40
0.0
41
0.0
42
0.0
10
70.4852981567383
20
76.0022964477539
40
0.0
41
0.0
42
0.0
10
70.439697265625
20
75.9809036254883
40
0.0
41
0.0
42
0.0
10
70.3676986694336
20
75.9306030273438
40
0.0
41
0.0
42
0.0
10
69.9842987060547
20
75.8527984619141
40
0.0
41
0.0
42
0.0
10
69.5843963623047
20
75.7667999267578
40
0.0
41
0.0
42
0.0
10
69.5242004394531
20
75.7169036865234
40
0.0
41
0.0
42
0.0
10
69.4886016845703
20
75.6836013793945
40
0.0
41
0.0
42
0.0
10
69.1346969604492
20
75.6692962646484
40
0.0
41
0.0
42
0.0
10
68.9987030029297
20
75.5968017578125
40
0.0
41
0.0
42
0.0
10
68.8273010253906
20
75.6703033447266
40
0.0
41
0.0
42
0.0
10
68.5101013183594
20
75.7182998657227
40
0.0
41
0.0
42
0.0
10
68.4841003417969
20
75.7436981201172
40
0.0
41
0.0
42
0.0
10
68.2485961914062
20
76.0035018920898
40
0.0
41
0.0
42
0.0
10
68.0068969726562
20
76.1463012695312
40
0.0
41
0.0
42
0.0
10
67.7736968994141
20
76.3808975219727
40
0.0
41
0.0
42
0.0
10
67.6266021728516
20
76.5035018920898
40
0.0
41
0.0
42
0.0
10
67.5070037841797
20
76.595100402832
40
0.0
41
0.0
42
0.0
10
67.0373001098633
20
76.9728012084961
40
0.0
41
0.0
42
0.0
10
67.0048980712891
20
77.002799987793
40
0.0
41
0.0
42
0.0
10
66.9102020263672
20
77.1070022583008
40
0.0
41
0.0
42
0.0
10
66.8739013671875
20
77.1379013061523
40
0.0
41
0.0
42
0.0
10
66.5158004760742
20
77.2808990478516
40
0.0
41
0.0
42
0.0
10
66.1495971679688
20
77.2839965820312
40
0.0
41
0.0
42
0.0
10
66.0147018432617
20
77.355598449707
40
0.0
41
0.0
42
0.0
10
65.9806976318359
20
77.3554992675781
40
0.0
41
0.0
42
0.0
10
65.7740020751953
20
77.3399963378906
40
0.0
41
0.0
42
0.0
10
65.4881973266602
20
77.2455978393555
40
0.0
41
0.0
42
0.0
10
65.0268020629883
20
77.0019989013672
40
0.0
41
0.0
42
0.0
10
65.0009994506836
20
76.9835968017578
40
0.0
41
0.0
42
0.0
10
65.0009994506836
20
76.8995971679688
40
0.0
41
0.0
42
0.0
10
65.0131988525391
20
76.8994979858398
40
0.0
41
0.0
42
0.0
210
0.0
220
0.0
230
1.0
0
LWPOLYLINE
5
25
330
1C
100
AcDbEntity
67
0
8
0
62
256
6
ByLayer
370
-1
48
1.0
60
0
100
AcDbPolyline
90
44
70
1
38
0.0
39
0.0
10
65.0152969360352
20
83.2455978393555
40
0.0
41
0.0
42
0.0
10
65.4167022705078
20
83.4354019165039
40
0.0
41
0.0
42
0.0
10
65.5121994018555
20
83.4720001220703
40
0.0
41
0.0
42
0.0
10
65.5774002075195
20
83.4990997314453
40
0.0
41
0.0
42
0.0
10
65.7573013305664
20
83.5838012695312
40
0.0
41
0.0
42
0.0
10
65.9176025390625
20
83.6572036743164
40
0.0
41
0.0
42
0.0
10
66.0119018554688
20
83.6850967407227
40
0.0
41
0.0
42
0.0
10
66.3946990966797
20
83.8934020996094
40
0.0
41
0.0
42
0.0
10
66.5071029663086
20
83.9179000854492
40
0.0
41
0.0
42
0.0
10
66.6158981323242
20
83.9084014892578
40
0.0
41
0.0
42
0.0
10
66.6386032104492
20
83.9084014892578
40
0.0
41
0.0
42
0.0
10
66.6503982543945
20
83.9541015625
40
0.0
41
0.0
42
0.0
10
66.7169036865234
20
83.9969024658203
40
0.0
41
0.0
42
0.0
10
67.0123977661133
20
84.242301940918
40
0.0
41
0.0
42
0.0
10
67.1467971801758
20
84.2429962158203
40
0.0
41
0.0
42
0.0
10
67.1466979980469
20
84.2610015869141
40
0.0
41
0.0
42
0.0
10
67.1333999633789
20
84.377197265625
40
0.0
41
0.0
42
0.0
10
67.2238006591797
20
84.4924011230469
40
0.0
41
0.0
42
0.0
10
67.4720001220703
20
84.8535003662109
40
0.0
41
0.0
42
0.0
10
67.4992980957031
20
84.9727020263672
40
0.0
41
0.0
42
0.0
10
67.5029983520508
20
84.9833984375
40
0.0
41
0.0
42
0.0
10
67.5029983520508
20
84.9990005493164
40
0.0
41
0.0
42
0.0
10
67.4884033203125
20
84.9990005493164
40
0.0
41
0.0
42
0.0
10
67.4693984985352
20
84.9162979125977
40
0.0
41
0.0
42
0.0
10
67.1885986328125
20
84.5074996948242
40
0.0
41
0.0
42
0.0
10
67.0933990478516
20
84.3861999511719
40
0.0
41
0.0
42
0.0
10
67.0932998657227
20
84.3546981811523
40
0.0
41
0.0
42
0.0
10
67.102897644043
20
84.2713012695312
40
0.0
41
0.0
42
0.0
10
66.9875030517578
20
84.2712020874023
40
0.0
41
0.0
42
0.0
10
66.6649017333984
20
84.0029983520508
40
0.0
41
0.0
42
0.0
10
66.6024017333984
20
83.9628982543945
40
0.0
41
0.0
42
0.0
10
66.5922012329102
20
83.9191970825195
40
0.0
41
0.0
42
0.0
10
66.5189971923828
20
83.9256973266602
40
0.0
41
0.0
42
0.0
10
66.4822006225586
20
83.9255981445312
40
0.0
41
0.0
42
0.0
10
66.3911972045898
20
83.9057998657227
40
0.0
41
0.0
42
0.0
10
66.3539962768555
20
83.8907012939453
40
0.0
41
0.0
42
0.0
10
65.9880981445312
20
83.6915969848633
40
0.0
41
0.0
42
0.0
10
65.8524017333984
20
83.651496887207
40
0.0
41
0.0
42
0.0
10
65.5255966186523
20
83.5007019042969
40
0.0
41
0.0
42
0.0
10
65.4240036010742
20
83.4598007202148
40
0.0
41
0.0
42
0.0
10
65.3531036376953
20
83.4331970214844
40
0.0
41
0.0
42
0.0
10
65.0009994506836
20
83.2667007446289
40
0.0
41
0.0
42
0.0
10
65.0009994506836
20
83.2456970214844
40
0.0
41
0.0
42
0.0
10
65.0152969360352
20
83.2455978393555
40
0.0
41
0.0
42
0.0
210
0.0
220
0.0
230
1.0
0
LWPOLYLINE
5
26
330
1C
100
AcDbEntity
67
0
8
0
62
256
6
ByLayer
370
-1
48
1.0
60
0
100
AcDbPolyline
90
124
70
1
38
0.0
39
0.0
10
66.5738983154297
20
68.1447982788086
40
0.0
41
0.0
42
0.0
10
66.6355972290039
20
67.9914016723633
40
0.0
41
0.0
42
0.0
10
66.9785003662109
20
67.6231002807617
40
0.0
41
0.0
42
0.0
10
66.9936981201172
20
67.6048965454102
40
0.0
41
0.0
42
0.0
10
67.1744995117188
20
67.4992980957031
40
0.0
41
0.0
42
0.0
10
67.4830017089844
20
67.4059982299805
40
0.0
41
0.0
42
0.0
10
67.5765991210938
20
67.4059982299805
40
0.0
41
0.0
42
0.0
10
67.8464965820312
20
67.3580017089844
40
0.0
41
0.0
42
0.0
10
67.9820022583008
20
67.331298828125
40
0.0
41
0.0
42
0.0
10
68.0185012817383
20
67.331298828125
40
0.0
41
0.0
42
0.0
10
68.1495971679688
20
67.3494033813477
40
0.0
41
0.0
42
0.0
10
68.5161972045898
20
67.3443984985352
40
0.0
41
0.0
42
0.0
10
68.6491012573242
20
67.3948974609375
40
0.0
41
0.0
42
0.0
10
69.010498046875
20
67.4699020385742
40
0.0
41
0.0
42
0.0
10
69.0423965454102
20
67.4964981079102
40
0.0
41
0.0
42
0.0
10
69.0895004272461
20
67.5311965942383
40
0.0
41
0.0
42
0.0
10
69.1380004882812
20
67.6219024658203
40
0.0
41
0.0
42
0.0
10
69.5026016235352
20
67.8150024414062
40
0.0
41
0.0
42
0.0
10
69.5115966796875
20
67.8420028686523
40
0.0
41
0.0
42
0.0
10
69.6644973754883
20
67.9898986816406
40
0.0
41
0.0
42
0.0
10
69.6762008666992
20
68.0818023681641
40
0.0
41
0.0
42
0.0
10
69.9121017456055
20
68.4858016967773
40
0.0
41
0.0
42
0.0
10
69.9141006469727
20
68.5789031982422
40
0.0
41
0.0
42
0.0
10
69.9291000366211
20
68.6196975708008
40
0.0
41
0.0
42
0.0
10
69.9997024536133
20
68.8920974731445
40
0.0
41
0.0
42
0.0
10
70.0263977050781
20
68.9852981567383
40
0.0
41
0.0
42
0.0
10
70.0510025024414
20
69.08740234375
40
0.0
41
0.0
42
0.0
10
70.1233978271484
20
69.4849014282227
40
0.0
41
0.0
42
0.0
10
70.1980972290039
20
69.7322006225586
40
0.0
41
0.0
42
0.0
10
70.2331008911133
20
69.9857025146484
40
0.0
41
0.0
42
0.0
10
70.4113006591797
20
70.3964996337891
40
0.0
41
0.0
42
0.0
10
70.4095993041992
20
70.4875030517578
40
0.0
41
0.0
42
0.0
10
70.5048980712891
20
70.6458969116211
40
0.0
41
0.0
42
0.0
10
70.8454971313477
20
70.8348999023438
40
0.0
41
0.0
42
0.0
10
71.0067977905273
20
70.9766006469727
40
0.0
41
0.0
42
0.0
10
71.0363006591797
20
70.9980010986328
40
0.0
41
0.0
42
0.0
10
71.0727005004883
20
71.0155029296875
40
0.0
41
0.0
42
0.0
10
71.4121017456055
20
71.19580078125
40
0.0
41
0.0
42
0.0
10
71.4815979003906
20
71.1848983764648
40
0.0
41
0.0
42
0.0
10
71.5147018432617
20
71.1847991943359
40
0.0
41
0.0
42
0.0
10
71.9177017211914
20
71.3995971679688
40
0.0
41
0.0
42
0.0
10
72.0141983032227
20
71.4201965332031
40
0.0
41
0.0
42
0.0
10
72.122200012207
20
71.4972991943359
40
0.0
41
0.0
42
0.0
10
72.4046020507812
20
71.6788024902344
40
0.0
41
0.0
42
0.0
10
72.5106964111328
20
71.7205963134766
40
0.0
41
0.0
42
0.0
10
72.6426010131836
20
71.7981033325195
40
0.0
41
0.0
42
0.0
10
72.8655014038086
20
71.9963989257812
40
0.0
41
0.0
42
0.0
10
73.0045013427734
20
72.1234970092773
40
0.0
41
0.0
42
0.0
10
73.1863021850586
20
72.350700378418
40
0.0
41
0.0
42
0.0
10
73.2037963867188
20
72.3615036010742
40
0.0
41
0.0
42
0.0
10
73.3332977294922
20
72.4932022094727
40
0.0
41
0.0
42
0.0
10
73.5071029663086
20
72.7545013427734
40
0.0
41
0.0
42
0.0
10
73.6567993164062
20
72.7404022216797
40
0.0
41
0.0
42
0.0
10
73.6746978759766
20
72.7405014038086
40
0.0
41
0.0
42
0.0
10
73.6746978759766
20
72.7554016113281
40
0.0
41
0.0
42
0.0
10
73.6135025024414
20
72.9028015136719
40
0.0
41
0.0
42
0.0
10
73.6642990112305
20
72.9876022338867
40
0.0
41
0.0
42
0.0
10
73.6901016235352
20
73.1212997436523
40
0.0
41
0.0
42
0.0
10
73.8553009033203
20
73.4904022216797
40
0.0
41
0.0
42
0.0
10
74.002197265625
20
73.6968002319336
40
0.0
41
0.0
42
0.0
10
74.0746994018555
20
73.8280029296875
40
0.0
41
0.0
42
0.0
10
74.1572036743164
20
73.9850997924805
40
0.0
41
0.0
42
0.0
10
74.1569976806641
20
74.0133972167969
40
0.0
41
0.0
42
0.0
10
74.0878982543945
20
74.1139984130859
40
0.0
41
0.0
42
0.0
10
74.0095977783203
20
74.2164001464844
40
0.0
41
0.0
42
0.0
10
73.981201171875
20
74.2163009643555
40
0.0
41
0.0
42
0.0
10
73.5005035400391
20
74.1595993041992
40
0.0
41
0.0
42
0.0
10
73.3836975097656
20
74.1741027832031
40
0.0
41
0.0
42
0.0
10
73.3531036376953
20
74.1740036010742
40
0.0
41
0.0
42
0.0
10
73.2092971801758
20
74.0431976318359
40
0.0
41
0.0
42
0.0
10
73.1148986816406
20
74.0009002685547
40
0.0
41
0.0
42
0.0
10
72.9875030517578
20
73.9363021850586
40
0.0
41
0.0
42
0.0
10
72.8385009765625
20
73.8964996337891
40
0.0
41
0.0
42
0.0
10
72.4856033325195
20
73.7712020874023
40
0.0
41
0.0
42
0.0
10
72.4466018676758
20
73.763298034668
40
0.0
41
0.0
42
0.0
10
72.2329025268555
20
73.6359024047852
40
0.0
41
0.0
42
0.0
10
72.1419982910156
20
73.6015014648438
40
0.0
41
0.0
42
0.0
10
72.0565032958984
20
73.5042037963867
40
0.0
41
0.0
42
0.0
10
71.9925003051758
20
73.459098815918
40
0.0
41
0.0
42
0.0
10
71.9141006469727
20
73.3980026245117
40
0.0
41
0.0
42
0.0
10
71.597297668457
20
73.1398010253906
40
0.0
41
0.0
42
0.0
10
71.4964981079102
20
73.0253982543945
40
0.0
41
0.0
42
0.0
10
71.4446029663086
20
72.9508972167969
40
0.0
41
0.0
42
0.0
10
71.168098449707
20
72.6426010131836
40
0.0
41
0.0
42
0.0
10
71.0930023193359
20
72.508903503418
40
0.0
41
0.0
42
0.0
10
71.0066986083984
20
72.3681030273438
40
0.0
41
0.0
42
0.0
10
71.0
20
72.3433990478516
40
0.0
41
0.0
42
0.0
10
70.9673004150391
20
72.2494964599609
40
0.0
41
0.0
42
0.0
10
70.7779006958008
20
72.0126037597656
40
0.0
41
0.0
42
0.0
10
70.7779006958008
20
71.9820022583008
40
0.0
41
0.0
42
0.0
10
70.7920989990234
20
71.9113006591797
40
0.0
41
0.0
42
0.0
10
70.5835037231445
20
71.5955963134766
40
0.0
41
0.0
42
0.0
10
70.4940032958984
20
71.5117034912109
40
0.0
41
0.0
42
0.0
10
70.4608001708984
20
71.4829025268555
40
0.0
41
0.0
42
0.0
10
69.9908981323242
20
71.0260009765625
40
0.0
41
0.0
42
0.0
10
69.9145965576172
20
71.0035018920898
40
0.0
41
0.0
42
0.0
10
69.8915023803711
20
70.999397277832
40
0.0
41
0.0
42
0.0
10
69.5025024414062
20
70.8951034545898
40
0.0
41
0.0
42
0.0
10
69.4375991821289
20
70.9206008911133
40
0.0
41
0.0
42
0.0
10
69.4033966064453
20
70.9205017089844
40
0.0
41
0.0
42
0.0
10
69.0025024414062
20
70.8495025634766
40
0.0
41
0.0
42
0.0
10
68.9224014282227
20
70.8691024780273
40
0.0
41
0.0
42
0.0
10
68.8862991333008
20
70.8690032958984
40
0.0
41
0.0
42
0.0
10
68.5018997192383
20
70.8181991577148
40
0.0
41
0.0
42
0.0
10
68.4232025146484
20
70.8314971923828
40
0.0
41
0.0
42
0.0
10
68.3867034912109
20
70.8314971923828
40
0.0
41
0.0
42
0.0
10
67.9949035644531
20
70.7640991210938
40
0.0
41
0.0
42
0.0
10
67.9240036010742
20
70.7710037231445
40
0.0
41
0.0
42
0.0
10
67.8863983154297
20
70.7708969116211
40
0.0
41
0.0
42
0.0
10
67.85009765625
20
70.7657012939453
40
0.0
41
0.0
42
0.0
10
67.4843978881836
20
70.6330032348633
40
0.0
41
0.0
42
0.0
10
67.3520965576172
20
70.6237030029297
40
0.0
41
0.0
42
0.0
10
67.2538986206055
20
70.556999206543
40
0.0
41
0.0
42
0.0
10
67.1800003051758
20
70.5042037963867
40
0.0
41
0.0
42
0.0
10
66.9943008422852
20
70.2987976074219
40
0.0
41
0.0
42
0.0
10
66.8911972045898
20
70.2193984985352
40
0.0
41
0.0
42
0.0
10
66.8453979492188
20
70.1405029296875
40
0.0
41
0.0
42
0.0
10
66.8149032592773
20
70.1184997558594
40
0.0
41
0.0
42
0.0
10
66.7474975585938
20
70.0106964111328
40
0.0
41
0.0
42
0.0
10
66.6146011352539
20
69.6442031860352
40
0.0
41
0.0
42
0.0
10
66.5693969726562
20
69.5148010253906
40
0.0
41
0.0
42
0.0
10
66.4889984130859
20
69.0065994262695
40
0.0
41
0.0
42
0.0
10
66.5001983642578
20
68.4816970825195
40
0.0
41
0.0
42
0.0
10
66.5738983154297
20
68.1447982788086
40
0.0
41
0.0
42
0.0
210
0.0
220
0.0
230
1.0
0
LWPOLYLINE
5
27
330
1C
100
AcDbEntity
67
0
8
0
62
256
6
ByLayer
370
-1
48
1.0
60
0
100
AcDbPolyline
90
65
70
1
38
0.0
39
0.0
10
66.5675964355469
20
68.5168991088867
40
0.0
41
0.0
42
0.0
10
66.5567016601562
20
68.6660995483398
40
0.0
41
0.0
42
0.0
10
66.5502014160156
20
68.9863967895508
40
0.0
41
0.0
42
0.0
10
66.5670013427734
20
69.1119995117188
40
0.0
41
0.0
42
0.0
10
66.6259002685547
20
69.4850997924805
40
0.0
41
0.0
42
0.0
10
66.7106018066406
20
69.7275009155273
40
0.0
41
0.0
42
0.0
10
66.8053970336914
20
69.9891967773438
40
0.0
41
0.0
42
0.0
10
66.8585968017578
20
70.0743026733398
40
0.0
41
0.0
42
0.0
10
66.8796005249023
20
70.0894012451172
40
0.0
41
0.0
42
0.0
10
66.9300003051758
20
70.1762008666992
40
0.0
41
0.0
42
0.0
10
67.0056991577148
20
70.2343978881836
40
0.0
41
0.0
42
0.0
10
67.2419967651367
20
70.4956970214844
40
0.0
41
0.0
42
0.0
10
67.3404006958008
20
70.5660018920898
40
0.0
41
0.0
42
0.0
10
67.4178009033203
20
70.6186981201172
40
0.0
41
0.0
42
0.0
10
67.5156021118164
20
70.625602722168
40
0.0
41
0.0
42
0.0
10
67.8934020996094
20
70.7627029418945
40
0.0
41
0.0
42
0.0
10
67.9809036254883
20
70.7545013427734
40
0.0
41
0.0
42
0.0
10
68.0182037353516
20
70.7544021606445
40
0.0
41
0.0
42
0.0
10
68.3651962280273
20
70.8141021728516
40
0.0
41
0.0
42
0.0
10
68.4816970825195
20
70.7947006225586
40
0.0
41
0.0
42
0.0
10
68.5186004638672
20
70.7946014404297
40
0.0
41
0.0
42
0.0
10
68.8600997924805
20
70.8396987915039
40
0.0
41
0.0
42
0.0
10
68.9824981689453
20
70.8098983764648
40
0.0
41
0.0
42
0.0
10
69.0180969238281
20
70.8097991943359
40
0.0
41
0.0
42
0.0
10
69.3699035644531
20
70.8721008300781
40
0.0
41
0.0
42
0.0
10
69.4839019775391
20
70.8274993896484
40
0.0
41
0.0
42
0.0
10
69.5171966552734
20
70.8274002075195
40
0.0
41
0.0
42
0.0
10
69.9406967163086
20
70.9409027099609
40
0.0
41
0.0
42
0.0
10
69.9888000488281
20
70.8912963867188
40
0.0
41
0.0
42
0.0
10
70.0155029296875
20
70.8914031982422
40
0.0
41
0.0
42
0.0
10
70.2544021606445
20
70.9979019165039
40
0.0
41
0.0
42
0.0
10
70.4998016357422
20
71.2063980102539
40
0.0
41
0.0
42
0.0
10
70.7322006225586
20
71.000602722168
40
0.0
41
0.0
42
0.0
10
70.4951019287109
20
70.8686981201172
40
0.0
41
0.0
42
0.0
10
70.282096862793
20
70.5143966674805
40
0.0
41
0.0
42
0.0
10
70.2874984741211
20
70.3009033203125
40
0.0
41
0.0
42
0.0
10
70.1632995605469
20
70.0141983032227
40
0.0
41
0.0
42
0.0
10
70.1140975952148
20
69.6569976806641
40
0.0
41
0.0
42
0.0
10
70.0710983276367
20
69.5149993896484
40
0.0
41
0.0
42
0.0
10
69.9850997924805
20
69.038200378418
40
0.0
41
0.0
42
0.0
10
69.9850006103516
20
69.0139007568359
40
0.0
41
0.0
42
0.0
10
69.8994979858398
20
68.6834030151367
40
0.0
41
0.0
42
0.0
10
69.8876037597656
20
68.6511001586914
40
0.0
41
0.0
42
0.0
10
69.8844985961914
20
68.5140991210938
40
0.0
41
0.0
42
0.0
10
69.6709976196289
20
68.1481018066406
40
0.0
41
0.0
42
0.0
10
69.6531982421875
20
68.0100021362305
40
0.0
41
0.0
42
0.0
10
69.5123977661133
20
67.8738021850586
40
0.0
41
0.0
42
0.0
10
69.4972991943359
20
67.8276977539062
40
0.0
41
0.0
42
0.0
10
69.1250991821289
20
67.6308975219727
40
0.0
41
0.0
42
0.0
10
69.0906982421875
20
67.6109008789062
40
0.0
41
0.0
42
0.0
10
69.0567016601562
20
67.5470962524414
40
0.0
41
0.0
42
0.0
10
68.9888000488281
20
67.4964981079102
40
0.0
41
0.0
42
0.0
10
68.5809020996094
20
67.4121017456055
40
0.0
41
0.0
42
0.0
10
68.4852981567383
20
67.3757019042969
40
0.0
41
0.0
42
0.0
10
68.076301574707
20
67.3814010620117
40
0.0
41
0.0
42
0.0
10
68.0029983520508
20
67.3712005615234
40
0.0
41
0.0
42
0.0
10
67.8626022338867
20
67.3990020751953
40
0.0
41
0.0
42
0.0
10
67.5651016235352
20
67.4518966674805
40
0.0
41
0.0
42
0.0
10
67.5167999267578
20
67.4518966674805
40
0.0
41
0.0
42
0.0
10
67.3556976318359
20
67.5005035400391
40
0.0
41
0.0
42
0.0
10
67.006103515625
20
67.7046966552734
40
0.0
41
0.0
42
0.0
10
66.9723968505859
20
67.7451019287109
40
0.0
41
0.0
42
0.0
10
66.7273025512695
20
68.0084991455078
40
0.0
41
0.0
42
0.0
10
66.6206970214844
20
68.2734985351562
40
0.0
41
0.0
42
0.0
10
66.5675964355469
20
68.5168991088867
40
0.0
41
0.0
42
0.0
210
0.0
220
0.0
230
1.0
0
LWPOLYLINE
5
28
330
1C
100
AcDbEntity
67
0
8
0
62
256
6
ByLayer
370
-1
48
1.0
60
0
100
AcDbPolyline
90
127
70
1
38
0.0
39
0.0
10
67.3494033813477
20
81.8503036499023
40
0.0
41
0.0
42
0.0
10
67.3443984985352
20
81.4837036132812
40
0.0
41
0.0
42
0.0
10
67.3948974609375
20
81.3507995605469
40
0.0
41
0.0
42
0.0
10
67.4698028564453
20
80.9893035888672
40
0.0
41
0.0
42
0.0
10
67.4964981079102
20
80.9573974609375
40
0.0
41
0.0
42
0.0
10
67.5310974121094
20
80.9102020263672
40
0.0
41
0.0
42
0.0
10
67.6218032836914
20
80.8619003295898
40
0.0
41
0.0
42
0.0
10
67.8150024414062
20
80.497200012207
40
0.0
41
0.0
42
0.0
10
67.8419036865234
20
80.4880981445312
40
0.0
41
0.0
42
0.0
10
67.9929962158203
20
80.3320999145508
40
0.0
41
0.0
42
0.0
10
68.3917999267578
20
80.0992965698242
40
0.0
41
0.0
42
0.0
10
68.4814987182617
20
80.0876998901367
40
0.0
41
0.0
42
0.0
10
68.5789031982422
20
80.0856018066406
40
0.0
41
0.0
42
0.0
10
68.6196975708008
20
80.0706024169922
40
0.0
41
0.0
42
0.0
10
68.8920974731445
20
80.0000991821289
40
0.0
41
0.0
42
0.0
10
68.9852981567383
20
79.9732971191406
40
0.0
41
0.0
42
0.0
10
69.08740234375
20
79.9486999511719
40
0.0
41
0.0
42
0.0
10
69.4849014282227
20
79.8762969970703
40
0.0
41
0.0
42
0.0
10
69.7321014404297
20
79.8015975952148
40
0.0
41
0.0
42
0.0
10
69.9856033325195
20
79.7666015625
40
0.0
41
0.0
42
0.0
10
70.3964996337891
20
79.5884017944336
40
0.0
41
0.0
42
0.0
10
70.5130004882812
20
79.5910034179688
40
0.0
41
0.0
42
0.0
10
70.7614974975586
20
79.7699966430664
40
0.0
41
0.0
42
0.0
10
70.779296875
20
79.7545013427734
40
0.0
41
0.0
42
0.0
10
70.6512985229492
20
79.5147018432617
40
0.0
41
0.0
42
0.0
10
70.6512985229492
20
79.4852981567383
40
0.0
41
0.0
42
0.0
10
70.8348007202148
20
79.154296875
40
0.0
41
0.0
42
0.0
10
70.9766998291016
20
78.9931030273438
40
0.0
41
0.0
42
0.0
10
70.9980010986328
20
78.9635009765625
40
0.0
41
0.0
42
0.0
10
71.0154037475586
20
78.9271011352539
40
0.0
41
0.0
42
0.0
10
71.1958999633789
20
78.5877990722656
40
0.0
41
0.0
42
0.0
10
71.1848983764648
20
78.5183029174805
40
0.0
41
0.0
42
0.0
10
71.1847991943359
20
78.4851989746094
40
0.0
41
0.0
42
0.0
10
71.3995971679688
20
78.0821990966797
40
0.0
41
0.0
42
0.0
10
71.4200973510742
20
77.9856033325195
40
0.0
41
0.0
42
0.0
10
71.4972991943359
20
77.8776016235352
40
0.0
41
0.0
42
0.0
10
71.6788024902344
20
77.5951995849609
40
0.0
41
0.0
42
0.0
10
71.7205963134766
20
77.4891967773438
40
0.0
41
0.0
42
0.0
10
71.7979965209961
20
77.3572998046875
40
0.0
41
0.0
42
0.0
10
71.9962997436523
20
77.1342010498047
40
0.0
41
0.0
42
0.0
10
72.1233978271484
20
76.9953002929688
40
0.0
41
0.0
42
0.0
10
72.3488006591797
20
76.8150024414062
40
0.0
41
0.0
42
0.0
10
72.4934005737305
20
76.6662979125977
40
0.0
41
0.0
42
0.0
10
72.7545013427734
20
76.4927978515625
40
0.0
41
0.0
42
0.0
10
72.7404022216797
20
76.3431015014648
40
0.0
41
0.0
42
0.0
10
72.7404022216797
20
76.3249969482422
40
0.0
41
0.0
42
0.0
10
72.7554016113281
20
76.3249969482422
40
0.0
41
0.0
42
0.0
10
72.9028015136719
20
76.3861999511719
40
0.0
41
0.0
42
0.0
10
72.9896011352539
20
76.334098815918
40
0.0
41
0.0
42
0.0
10
73.3513031005859
20
76.1723022460938
40
0.0
41
0.0
42
0.0
10
73.4884033203125
20
76.1458969116211
40
0.0
41
0.0
42
0.0
10
73.6968002319336
20
75.9977035522461
40
0.0
41
0.0
42
0.0
10
73.8280029296875
20
75.9250030517578
40
0.0
41
0.0
42
0.0
10
73.9850997924805
20
75.8426971435547
40
0.0
41
0.0
42
0.0
10
74.0133972167969
20
75.8426971435547
40
0.0
41
0.0
42
0.0
10
74.1139984130859
20
75.9117965698242
40
0.0
41
0.0
42
0.0
10
74.2164001464844
20
75.9903030395508
40
0.0
41
0.0
42
0.0
10
74.2163009643555
20
76.0186996459961
40
0.0
41
0.0
42
0.0
10
74.1595993041992
20
76.499397277832
40
0.0
41
0.0
42
0.0
10
74.1741027832031
20
76.6162033081055
40
0.0
41
0.0
42
0.0
10
74.1740036010742
20
76.6467971801758
40
0.0
41
0.0
42
0.0
10
74.043098449707
20
76.7904968261719
40
0.0
41
0.0
42
0.0
10
74.0009002685547
20
76.8849029541016
40
0.0
41
0.0
42
0.0
10
73.9363021850586
20
77.0123977661133
40
0.0
41
0.0
42
0.0
10
73.8964004516602
20
77.1613006591797
40
0.0
41
0.0
42
0.0
10
73.7730026245117
20
77.5084991455078
40
0.0
41
0.0
42
0.0
10
73.7633972167969
20
77.5530014038086
40
0.0
41
0.0
42
0.0
10
73.6359024047852
20
77.7667999267578
40
0.0
41
0.0
42
0.0
10
73.6014022827148
20
77.8578033447266
40
0.0
41
0.0
42
0.0
10
73.5042037963867
20
77.9432983398438
40
0.0
41
0.0
42
0.0
10
73.4589996337891
20
78.0074005126953
40
0.0
41
0.0
42
0.0
10
73.3979034423828
20
78.0856018066406
40
0.0
41
0.0
42
0.0
10
73.1397018432617
20
78.4023971557617
40
0.0
41
0.0
42
0.0
10
73.0253982543945
20
78.5034027099609
40
0.0
41
0.0
42
0.0
10
72.950798034668
20
78.5551986694336
40
0.0
41
0.0
42
0.0
10
72.6426010131836
20
78.8315963745117
40
0.0
41
0.0
42
0.0
10
72.508903503418
20
78.9067993164062
40
0.0
41
0.0
42
0.0
10
72.3679962158203
20
78.9931030273438
40
0.0
41
0.0
42
0.0
10
72.3433990478516
20
78.9998016357422
40
0.0
41
0.0
42
0.0
10
72.2494964599609
20
79.0324020385742
40
0.0
41
0.0
42
0.0
10
72.0126037597656
20
79.2218017578125
40
0.0
41
0.0
42
0.0
10
71.9820022583008
20
79.2218017578125
40
0.0
41
0.0
42
0.0
10
71.9113006591797
20
79.2076034545898
40
0.0
41
0.0
42
0.0
10
71.5955963134766
20
79.4161987304688
40
0.0
41
0.0
42
0.0
10
71.5115966796875
20
79.5058975219727
40
0.0
41
0.0
42
0.0
10
71.4828033447266
20
79.5391006469727
40
0.0
41
0.0
42
0.0
10
71.0260009765625
20
80.0090026855469
40
0.0
41
0.0
42
0.0
10
71.0034027099609
20
80.0851974487305
40
0.0
41
0.0
42
0.0
10
71.0000991821289
20
80.1043014526367
40
0.0
41
0.0
42
0.0
10
70.8324966430664
20
80.3295974731445
40
0.0
41
0.0
42
0.0
10
70.8911972045898
20
80.4875030517578
40
0.0
41
0.0
42
0.0
10
70.9206008911133
20
80.5621032714844
40
0.0
41
0.0
42
0.0
10
70.9205017089844
20
80.5963973999023
40
0.0
41
0.0
42
0.0
10
70.8495025634766
20
80.9973983764648
40
0.0
41
0.0
42
0.0
10
70.8691024780273
20
81.0774993896484
40
0.0
41
0.0
42
0.0
10
70.8690032958984
20
81.1136016845703
40
0.0
41
0.0
42
0.0
10
70.8181991577148
20
81.4980010986328
40
0.0
41
0.0
42
0.0
10
70.8314971923828
20
81.5766983032227
40
0.0
41
0.0
42
0.0
10
70.8313980102539
20
81.6131973266602
40
0.0
41
0.0
42
0.0
10
70.7640991210938
20
82.004997253418
40
0.0
41
0.0
42
0.0
10
70.7710037231445
20
82.0758972167969
40
0.0
41
0.0
42
0.0
10
70.7708969116211
20
82.1135025024414
40
0.0
41
0.0
42
0.0
10
70.7657012939453
20
82.1498031616211
40
0.0
41
0.0
42
0.0
10
70.6330032348633
20
82.5155029296875
40
0.0
41
0.0
42
0.0
10
70.6235961914062
20
82.6477966308594
40
0.0
41
0.0
42
0.0
10
70.556999206543
20
82.7459030151367
40
0.0
41
0.0
42
0.0
10
70.5042037963867
20
82.8198013305664
40
0.0
41
0.0
42
0.0
10
70.2987976074219
20
83.0055999755859
40
0.0
41
0.0
42
0.0
10
70.2192993164062
20
83.1084976196289
40
0.0
41
0.0
42
0.0
10
70.1405029296875
20
83.1544036865234
40
0.0
41
0.0
42
0.0
10
70.1184997558594
20
83.1847991943359
40
0.0
41
0.0
42
0.0
10
70.0106964111328
20
83.252197265625
40
0.0
41
0.0
42
0.0
10
69.6442031860352
20
83.3851013183594
40
0.0
41
0.0
42
0.0
10
69.5148010253906
20
83.4302978515625
40
0.0
41
0.0
42
0.0
10
69.0185012817383
20
83.5098037719727
40
0.0
41
0.0
42
0.0
10
68.4823989868164
20
83.4994964599609
40
0.0
41
0.0
42
0.0
10
68.1448974609375
20
83.4257965087891
40
0.0
41
0.0
42
0.0
10
67.9914016723633
20
83.3640975952148
40
0.0
41
0.0
42
0.0
10
67.6231002807617
20
83.0213012695312
40
0.0
41
0.0
42
0.0
10
67.6048965454102
20
83.0062026977539
40
0.0
41
0.0
42
0.0
10
67.4992980957031
20
82.8253021240234
40
0.0
41
0.0
42
0.0
10
67.4059982299805
20
82.5168991088867
40
0.0
41
0.0
42
0.0
10
67.4059982299805
20
82.4232025146484
40
0.0
41
0.0
42
0.0
10
67.3580017089844
20
82.1532974243164
40
0.0
41
0.0
42
0.0
10
67.331298828125
20
82.0178985595703
40
0.0
41
0.0
42
0.0
10
67.3311996459961
20
81.9813995361328
40
0.0
41
0.0
42
0.0
10
67.3494033813477
20
81.8503036499023
40
0.0
41
0.0
42
0.0
210
0.0
220
0.0
230
1.0
0
LWPOLYLINE
5
29
330
1C
100
AcDbEntity
67
0
8
0
62
256
6
ByLayer
370
-1
48
1.0
60
0
100
AcDbPolyline
90
60
70
1
38
0.0
39
0.0
10
67.3712005615234
20
81.9969024658203
40
0.0
41
0.0
42
0.0
10
67.3990020751953
20
82.1371994018555
40
0.0
41
0.0
42
0.0
10
67.4518966674805
20
82.434700012207
40
0.0
41
0.0
42
0.0
10
67.4518966674805
20
82.4831008911133
40
0.0
41
0.0
42
0.0
10
67.500602722168
20
82.6440963745117
40
0.0
41
0.0
42
0.0
10
67.7048034667969
20
82.9936981201172
40
0.0
41
0.0
42
0.0
10
67.7452011108398
20
83.0272979736328
40
0.0
41
0.0
42
0.0
10
68.0084991455078
20
83.2723999023438
40
0.0
41
0.0
42
0.0
10
68.2735977172852
20
83.3789978027344
40
0.0
41
0.0
42
0.0
10
68.5168991088867
20
83.4320983886719
40
0.0
41
0.0
42
0.0
10
68.6660995483398
20
83.443000793457
40
0.0
41
0.0
42
0.0
10
68.9863967895508
20
83.4495010375977
40
0.0
41
0.0
42
0.0
10
69.1119995117188
20
83.4328002929688
40
0.0
41
0.0
42
0.0
10
69.4850997924805
20
83.3738021850586
40
0.0
41
0.0
42
0.0
10
69.7275009155273
20
83.2891006469727
40
0.0
41
0.0
42
0.0
10
69.9891967773438
20
83.1942977905273
40
0.0
41
0.0
42
0.0
10
70.0742034912109
20
83.1410980224609
40
0.0
41
0.0
42
0.0
10
70.0893020629883
20
83.1201019287109
40
0.0
41
0.0
42
0.0
10
70.1761016845703
20
83.0697021484375
40
0.0
41
0.0
42
0.0
10
70.2342987060547
20
82.9942016601562
40
0.0
41
0.0
42
0.0
10
70.4956970214844
20
82.7577972412109
40
0.0
41
0.0
42
0.0
10
70.5660018920898
20
82.6594009399414
40
0.0
41
0.0
42
0.0
10
70.6185989379883
20
82.5820999145508
40
0.0
41
0.0
42
0.0
10
70.6255035400391
20
82.4842987060547
40
0.0
41
0.0
42
0.0
10
70.7627029418945
20
82.1064987182617
40
0.0
41
0.0
42
0.0
10
70.7545013427734
20
82.0189971923828
40
0.0
41
0.0
42
0.0
10
70.7543029785156
20
81.9816970825195
40
0.0
41
0.0
42
0.0
10
70.8141021728516
20
81.6346969604492
40
0.0
41
0.0
42
0.0
10
70.7947006225586
20
81.5182037353516
40
0.0
41
0.0
42
0.0
10
70.7946014404297
20
81.4813003540039
40
0.0
41
0.0
42
0.0
10
70.8396987915039
20
81.1398010253906
40
0.0
41
0.0
42
0.0
10
70.8098983764648
20
81.0174026489258
40
0.0
41
0.0
42
0.0
10
70.8097991943359
20
80.9817962646484
40
0.0
41
0.0
42
0.0
10
70.8721008300781
20
80.6298980712891
40
0.0
41
0.0
42
0.0
10
70.8259963989258
20
80.5124969482422
40
0.0
41
0.0
42
0.0
10
70.7247009277344
20
80.2400970458984
40
0.0
41
0.0
42
0.0
10
70.7247009277344
20
80.2107009887695
40
0.0
41
0.0
42
0.0
10
70.8807983398438
20
80.0014038085938
40
0.0
41
0.0
42
0.0
10
70.4869995117188
20
79.7177963256836
40
0.0
41
0.0
42
0.0
10
70.3009033203125
20
79.7121963500977
40
0.0
41
0.0
42
0.0
10
70.0141983032227
20
79.8364028930664
40
0.0
41
0.0
42
0.0
10
69.6568984985352
20
79.8855972290039
40
0.0
41
0.0
42
0.0
10
69.5149993896484
20
79.928596496582
40
0.0
41
0.0
42
0.0
10
69.038200378418
20
80.0148010253906
40
0.0
41
0.0
42
0.0
10
69.0139007568359
20
80.0147018432617
40
0.0
41
0.0
42
0.0
10
68.6834030151367
20
80.1001968383789
40
0.0
41
0.0
42
0.0
10
68.6511001586914
20
80.1120986938477
40
0.0
41
0.0
42
0.0
10
68.5184020996094
20
80.1150970458984
40
0.0
41
0.0
42
0.0
10
68.3779983520508
20
80.1331024169922
40
0.0
41
0.0
42
0.0
10
68.0067977905273
20
80.3497009277344
40
0.0
41
0.0
42
0.0
10
67.8737030029297
20
80.4872970581055
40
0.0
41
0.0
42
0.0
10
67.8276977539062
20
80.5026016235352
40
0.0
41
0.0
42
0.0
10
67.6307983398438
20
80.8747024536133
40
0.0
41
0.0
42
0.0
10
67.6108016967773
20
80.9092025756836
40
0.0
41
0.0
42
0.0
10
67.5470962524414
20
80.9430999755859
40
0.0
41
0.0
42
0.0
10
67.4964981079102
20
81.011100769043
40
0.0
41
0.0
42
0.0
10
67.4121017456055
20
81.4189987182617
40
0.0
41
0.0
42
0.0
10
67.3757019042969
20
81.5146026611328
40
0.0
41
0.0
42
0.0
10
67.3814010620117
20
81.9235992431641
40
0.0
41
0.0
42
0.0
10
67.3712005615234
20
81.9969024658203
40
0.0
41
0.0
42
0.0
210
0.0
220
0.0
230
1.0
0
LWPOLYLINE
5
2A
330
1C
100
AcDbEntity
67
0
8
0
62
256
6
ByLayer
370
-1
48
1.0
60
0
100
AcDbPolyline
90
58
70
1
38
0.0
39
0.0
10
70.8112030029297
20
71.8511962890625
40
0.0
41
0.0
42
0.0
10
70.8110961914062
20
71.8828964233398
40
0.0
41
0.0
42
0.0
10
70.7891006469727
20
71.9934005737305
40
0.0
41
0.0
42
0.0
10
70.9642028808594
20
72.2126998901367
40
0.0
41
0.0
42
0.0
10
70.9738006591797
20
72.2337036132812
40
0.0
41
0.0
42
0.0
10
70.9999008178711
20
72.3081970214844
40
0.0
41
0.0
42
0.0
10
71.005500793457
20
72.3292999267578
40
0.0
41
0.0
42
0.0
10
71.1043014526367
20
72.4906005859375
40
0.0
41
0.0
42
0.0
10
71.1585998535156
20
72.5873031616211
40
0.0
41
0.0
42
0.0
10
71.4669036865234
20
72.9309005737305
40
0.0
41
0.0
42
0.0
10
71.503303527832
20
72.9835968017578
40
0.0
41
0.0
42
0.0
10
71.5966033935547
20
73.0901031494141
40
0.0
41
0.0
42
0.0
10
71.951301574707
20
73.3792037963867
40
0.0
41
0.0
42
0.0
10
72.0074996948242
20
73.4229965209961
40
0.0
41
0.0
42
0.0
10
72.1104965209961
20
73.4956970214844
40
0.0
41
0.0
42
0.0
10
72.1737976074219
20
73.567497253418
40
0.0
41
0.0
42
0.0
10
72.2431030273438
20
73.5939025878906
40
0.0
41
0.0
42
0.0
10
72.4833984375
20
73.7372970581055
40
0.0
41
0.0
42
0.0
10
72.5143966674805
20
73.7433013916016
40
0.0
41
0.0
42
0.0
10
72.909797668457
20
73.8837966918945
40
0.0
41
0.0
42
0.0
10
73.0123977661133
20
73.9112014770508
40
0.0
41
0.0
42
0.0
10
73.1852035522461
20
73.9989013671875
40
0.0
41
0.0
42
0.0
10
73.3096008300781
20
74.0544967651367
40
0.0
41
0.0
42
0.0
10
73.4131011962891
20
74.1486968994141
40
0.0
41
0.0
42
0.0
10
73.481201171875
20
74.1402969360352
40
0.0
41
0.0
42
0.0
10
73.518798828125
20
74.1402969360352
40
0.0
41
0.0
42
0.0
10
73.9927978515625
20
74.1956024169922
40
0.0
41
0.0
42
0.0
10
74.0912017822266
20
74.0670013427734
40
0.0
41
0.0
42
0.0
10
74.138298034668
20
73.9987030029297
40
0.0
41
0.0
42
0.0
10
74.0498962402344
20
73.8303985595703
40
0.0
41
0.0
42
0.0
10
73.997802734375
20
73.7359008789062
40
0.0
41
0.0
42
0.0
10
73.8366012573242
20
73.5094985961914
40
0.0
41
0.0
42
0.0
10
73.6573028564453
20
73.1085968017578
40
0.0
41
0.0
42
0.0
10
73.6387023925781
20
73.0122985839844
40
0.0
41
0.0
42
0.0
10
73.576301574707
20
72.9083023071289
40
0.0
41
0.0
42
0.0
10
73.5761032104492
20
72.8784027099609
40
0.0
41
0.0
42
0.0
10
73.6175994873047
20
72.779296875
40
0.0
41
0.0
42
0.0
10
73.5189971923828
20
72.7885971069336
40
0.0
41
0.0
42
0.0
10
73.4912033081055
20
72.7885971069336
40
0.0
41
0.0
42
0.0
10
73.303596496582
20
72.5066986083984
40
0.0
41
0.0
42
0.0
10
73.2070999145508
20
72.4084014892578
40
0.0
41
0.0
42
0.0
10
73.196403503418
20
72.4018020629883
40
0.0
41
0.0
42
0.0
10
72.9953002929688
20
72.1502990722656
40
0.0
41
0.0
42
0.0
10
72.8355026245117
20
72.0044021606445
40
0.0
41
0.0
42
0.0
10
72.58740234375
20
71.7836990356445
40
0.0
41
0.0
42
0.0
10
72.4891967773438
20
71.7260971069336
40
0.0
41
0.0
42
0.0
10
72.3963012695312
20
71.6894989013672
40
0.0
41
0.0
42
0.0
10
72.3593978881836
20
71.6717987060547
40
0.0
41
0.0
42
0.0
10
72.0960006713867
20
71.5026016235352
40
0.0
41
0.0
42
0.0
10
71.9927978515625
20
71.4287033081055
40
0.0
41
0.0
42
0.0
10
71.8522033691406
20
71.3988037109375
40
0.0
41
0.0
42
0.0
10
71.4927978515625
20
71.2071990966797
40
0.0
41
0.0
42
0.0
10
71.38330078125
20
71.2247009277344
40
0.0
41
0.0
42
0.0
10
71.3501968383789
20
71.2246017456055
40
0.0
41
0.0
42
0.0
10
71.0022964477539
20
71.0397033691406
40
0.0
41
0.0
42
0.0
10
70.5491027832031
20
71.5001983642578
40
0.0
41
0.0
42
0.0
10
70.6279983520508
20
71.5740966796875
40
0.0
41
0.0
42
0.0
10
70.8112030029297
20
71.8511962890625
40
0.0
41
0.0
42
0.0
210
0.0
220
0.0
230
1.0
0
LWPOLYLINE
5
2B
330
1C
100
AcDbEntity
67
0
8
0
62
256
6
ByLayer
370
-1
48
1.0
60
0
100
AcDbPolyline
90
5
70
1
38
0.0
39
0.0
10
71.000602722168
20
79.742301940918
40
0.0
41
0.0
42
0.0
10
71.2064971923828
20
79.5000991821289
40
0.0
41
0.0
42
0.0
10
71.000602722168
20
79.2675018310547
40
0.0
41
0.0
42
0.0
10
70.8712997436523
20
79.5000991821289
40
0.0
41
0.0
42
0.0
10
71.000602722168
20
79.742301940918
40
0.0
41
0.0
42
0.0
210
0.0
220
0.0
230
1.0
0
LWPOLYLINE
5
2C
330
1C
100
AcDbEntity
67
0
8
0
62
256
6
ByLayer
370
-1
48
1.0
60
0
100
AcDbPolyline
90
57
70
1
38
0.0
39
0.0
10
71.5001983642578
20
79.4505996704102
40
0.0
41
0.0
42
0.0
10
71.5739974975586
20
79.3718032836914
40
0.0
41
0.0
42
0.0
10
71.8513031005859
20
79.1886978149414
40
0.0
41
0.0
42
0.0
10
71.8828964233398
20
79.1885986328125
40
0.0
41
0.0
42
0.0
10
71.9934005737305
20
79.2106018066406
40
0.0
41
0.0
42
0.0
10
72.2126007080078
20
79.0355987548828
40
0.0
41
0.0
42
0.0
10
72.2337036132812
20
79.0259017944336
40
0.0
41
0.0
42
0.0
10
72.3081970214844
20
79.0
40
0.0
41
0.0
42
0.0
10
72.3292999267578
20
78.9942016601562
40
0.0
41
0.0
42
0.0
10
72.4906005859375
20
78.8954010009766
40
0.0
41
0.0
42
0.0
10
72.5871963500977
20
78.8411026000977
40
0.0
41
0.0
42
0.0
10
72.9308013916016
20
78.5328979492188
40
0.0
41
0.0
42
0.0
10
72.9834976196289
20
78.4964981079102
40
0.0
41
0.0
42
0.0
10
73.0899963378906
20
78.4030990600586
40
0.0
41
0.0
42
0.0
10
73.3790969848633
20
78.0485000610352
40
0.0
41
0.0
42
0.0
10
73.4228973388672
20
77.9924011230469
40
0.0
41
0.0
42
0.0
10
73.4955978393555
20
77.8891983032227
40
0.0
41
0.0
42
0.0
10
73.567497253418
20
77.8258972167969
40
0.0
41
0.0
42
0.0
10
73.5939025878906
20
77.7566986083984
40
0.0
41
0.0
42
0.0
10
73.7371978759766
20
77.5164031982422
40
0.0
41
0.0
42
0.0
10
73.7433013916016
20
77.4854965209961
40
0.0
41
0.0
42
0.0
10
73.8836975097656
20
77.0899963378906
40
0.0
41
0.0
42
0.0
10
73.9112014770508
20
76.9875030517578
40
0.0
41
0.0
42
0.0
10
73.9988021850586
20
76.8144989013672
40
0.0
41
0.0
42
0.0
10
74.0543975830078
20
76.6902008056641
40
0.0
41
0.0
42
0.0
10
74.1486968994141
20
76.586799621582
40
0.0
41
0.0
42
0.0
10
74.1402969360352
20
76.5186996459961
40
0.0
41
0.0
42
0.0
10
74.1402969360352
20
76.4811019897461
40
0.0
41
0.0
42
0.0
10
74.1957015991211
20
76.0071029663086
40
0.0
41
0.0
42
0.0
10
74.0671005249023
20
75.9086990356445
40
0.0
41
0.0
42
0.0
10
73.9987030029297
20
75.8613967895508
40
0.0
41
0.0
42
0.0
10
73.8303985595703
20
75.9497985839844
40
0.0
41
0.0
42
0.0
10
73.7359008789062
20
76.0020980834961
40
0.0
41
0.0
42
0.0
10
73.5114974975586
20
76.1615982055664
40
0.0
41
0.0
42
0.0
10
73.4186019897461
20
76.1796035766602
40
0.0
41
0.0
42
0.0
10
73.0102005004883
20
76.3622970581055
40
0.0
41
0.0
42
0.0
10
72.9083023071289
20
76.4235992431641
40
0.0
41
0.0
42
0.0
10
72.8784027099609
20
76.4235992431641
40
0.0
41
0.0
42
0.0
10
72.779296875
20
76.3822021484375
40
0.0
41
0.0
42
0.0
10
72.7885971069336
20
76.4809036254883
40
0.0
41
0.0
42
0.0
10
72.7884979248047
20
76.5086975097656
40
0.0
41
0.0
42
0.0
10
72.5064010620117
20
76.6961975097656
40
0.0
41
0.0
42
0.0
10
72.4036026000977
20
76.8019027709961
40
0.0
41
0.0
42
0.0
10
72.1502990722656
20
77.0046005249023
40
0.0
41
0.0
42
0.0
10
72.0043029785156
20
77.1642990112305
40
0.0
41
0.0
42
0.0
10
71.7836990356445
20
77.4124984741211
40
0.0
41
0.0
42
0.0
10
71.7259979248047
20
77.5106964111328
40
0.0
41
0.0
42
0.0
10
71.6893997192383
20
77.6035003662109
40
0.0
41
0.0
42
0.0
10
71.6716995239258
20
77.6404037475586
40
0.0
41
0.0
42
0.0
10
71.5025024414062
20
77.9037017822266
40
0.0
41
0.0
42
0.0
10
71.4287033081055
20
78.0070037841797
40
0.0
41
0.0
42
0.0
10
71.3988037109375
20
78.1476974487305
40
0.0
41
0.0
42
0.0
10
71.2072982788086
20
78.5071029663086
40
0.0
41
0.0
42
0.0
10
71.2247009277344
20
78.6166000366211
40
0.0
41
0.0
42
0.0
10
71.2246017456055
20
78.6496963500977
40
0.0
41
0.0
42
0.0
10
71.0398025512695
20
78.9975967407227
40
0.0
41
0.0
42
0.0
10
71.5001983642578
20
79.4505996704102
40
0.0
41
0.0
42
0.0
210
0.0
220
0.0
230
1.0
0
LWPOLYLINE
5
2D
330
1C
100
AcDbEntity
67
0
8
0
62
256
6
ByLayer
370
-1
48
1.0
60
0
100
AcDbPolyline
90
15
70
1
38
0.0
39
0.0
10
74.5208969116211
20
74.9782028198242
40
0.0
41
0.0
42
0.0
10
74.5259017944336
20
74.8657989501953
40
0.0
41
0.0
42
0.0
10
74.8658981323242
20
74.5259017944336
40
0.0
41
0.0
42
0.0
10
74.9804000854492
20
74.5208969116211
40
0.0
41
0.0
42
0.0
10
75.0195007324219
20
74.5207977294922
40
0.0
41
0.0
42
0.0
10
75.1340026855469
20
74.5260009765625
40
0.0
41
0.0
42
0.0
10
75.4738006591797
20
74.8658981323242
40
0.0
41
0.0
42
0.0
10
75.4789962768555
20
74.9804000854492
40
0.0
41
0.0
42
0.0
10
75.4788970947266
20
75.0111999511719
40
0.0
41
0.0
42
0.0
10
75.0112991333008
20
75.4789962768555
40
0.0
41
0.0
42
0.0
10
74.9886016845703
20
75.4788970947266
40
0.0
41
0.0
42
0.0
10
74.9352035522461
20
75.4254989624023
40
0.0
41
0.0
42
0.0
10
74.799201965332
20
75.4055023193359
40
0.0
41
0.0
42
0.0
10
74.5207977294922
20
75.013298034668
40
0.0
41
0.0
42
0.0
10
74.5208969116211
20
74.9782028198242
40
0.0
41
0.0
42
0.0
210
0.0
220
0.0
230
1.0
0
LWPOLYLINE
5
2E
330
1C
100
AcDbEntity
67
0
8
0
62
256
6
ByLayer
370
-1
48
1.0
60
0
100
AcDbPolyline
90
224
70
1
38
0.0
39
0.0
10
74.8871002197266
20
68.3898010253906
40
0.0
41
0.0
42
0.0
10
74.997802734375
20
68.2800979614258
40
0.0
41
0.0
42
0.0
10
75.0467987060547
20
68.1565017700195
40
0.0
41
0.0
42
0.0
10
75.1264038085938
20
67.9906997680664
40
0.0
41
0.0
42
0.0
10
75.4891967773438
20
67.4928970336914
40
0.0
41
0.0
42
0.0
10
75.6248016357422
20
67.3337020874023
40
0.0
41
0.0
42
0.0
10
75.8267974853516
20
66.9891967773438
40
0.0
41
0.0
42
0.0
10
75.8401031494141
20
66.9555969238281
40
0.0
41
0.0
42
0.0
10
75.9984970092773
20
66.7390975952148
40
0.0
41
0.0
42
0.0
10
76.0959014892578
20
66.4893035888672
40
0.0
41
0.0
42
0.0
10
76.1255035400391
20
66.4412002563477
40
0.0
41
0.0
42
0.0
10
76.1847991943359
20
66.3536987304688
40
0.0
41
0.0
42
0.0
10
76.1999969482422
20
66.0122985839844
40
0.0
41
0.0
42
0.0
10
76.0683975219727
20
65.6116027832031
40
0.0
41
0.0
42
0.0
10
76.0683975219727
20
65.5767974853516
40
0.0
41
0.0
42
0.0
10
76.0818023681641
20
65.5034027099609
40
0.0
41
0.0
42
0.0
10
76.056396484375
20
65.4161987304688
40
0.0
41
0.0
42
0.0
10
75.997200012207
20
65.3236999511719
40
0.0
41
0.0
42
0.0
10
75.7655029296875
20
65.0130004882812
40
0.0
41
0.0
42
0.0
10
75.7655029296875
20
65.0009994506836
40
0.0
41
0.0
42
0.0
10
75.8149032592773
20
65.0009994506836
40
0.0
41
0.0
42
0.0
10
76.0027008056641
20
65.2527008056641
40
0.0
41
0.0
42
0.0
10
76.0678024291992
20
65.3537979125977
40
0.0
41
0.0
42
0.0
10
76.105598449707
20
65.4829025268555
40
0.0
41
0.0
42
0.0
10
76.1054992675781
20
65.5179977416992
40
0.0
41
0.0
42
0.0
10
76.0848999023438
20
65.6306991577148
40
0.0
41
0.0
42
0.0
10
76.2006988525391
20
65.9832992553711
40
0.0
41
0.0
42
0.0
10
76.2005996704102
20
66.0195007324219
40
0.0
41
0.0
42
0.0
10
76.1844024658203
20
66.3836975097656
40
0.0
41
0.0
42
0.0
10
76.1819000244141
20
66.4178009033203
40
0.0
41
0.0
42
0.0
10
76.1443023681641
20
66.4732971191406
40
0.0
41
0.0
42
0.0
10
76.1212997436523
20
66.510498046875
40
0.0
41
0.0
42
0.0
10
76.0012969970703
20
66.8180999755859
40
0.0
41
0.0
42
0.0
10
75.8898010253906
20
66.9703979492188
40
0.0
41
0.0
42
0.0
10
75.8739013671875
20
67.0106964111328
40
0.0
41
0.0
42
0.0
10
75.6479034423828
20
67.3962020874023
40
0.0
41
0.0
42
0.0
10
75.5537033081055
20
67.5078964233398
40
0.0
41
0.0
42
0.0
10
75.5020980834961
20
67.5996017456055
40
0.0
41
0.0
42
0.0
10
75.2053985595703
20
68.0091018676758
40
0.0
41
0.0
42
0.0
10
75.0762023925781
20
68.2779006958008
40
0.0
41
0.0
42
0.0
10
75.0019989013672
20
68.4651031494141
40
0.0
41
0.0
42
0.0
10
74.9848022460938
20
68.4821014404297
40
0.0
41
0.0
42
0.0
10
74.9493026733398
20
68.5067977905273
40
0.0
41
0.0
42
0.0
10
74.7966003417969
20
68.9953002929688
40
0.0
41
0.0
42
0.0
10
75.000602722168
20
69.1700973510742
40
0.0
41
0.0
42
0.0
10
75.0612030029297
20
69.4885025024414
40
0.0
41
0.0
42
0.0
10
75.1304016113281
20
69.5843963623047
40
0.0
41
0.0
42
0.0
10
75.2522964477539
20
69.9887008666992
40
0.0
41
0.0
42
0.0
10
75.3112030029297
20
70.0838012695312
40
0.0
41
0.0
42
0.0
10
75.4397964477539
20
70.4856033325195
40
0.0
41
0.0
42
0.0
10
75.4794006347656
20
70.6493988037109
40
0.0
41
0.0
42
0.0
10
75.5007019042969
20
70.6928024291992
40
0.0
41
0.0
42
0.0
10
75.5322036743164
20
70.7673034667969
40
0.0
41
0.0
42
0.0
10
75.5721969604492
20
70.9850997924805
40
0.0
41
0.0
42
0.0
10
75.6150970458984
20
71.1190032958984
40
0.0
41
0.0
42
0.0
10
75.6428985595703
20
71.4830017089844
40
0.0
41
0.0
42
0.0
10
75.6727981567383
20
71.6172027587891
40
0.0
41
0.0
42
0.0
10
75.6726989746094
20
71.6539001464844
40
0.0
41
0.0
42
0.0
10
75.6365966796875
20
72.0149002075195
40
0.0
41
0.0
42
0.0
10
75.6100997924805
20
72.0818023681641
40
0.0
41
0.0
42
0.0
10
75.6464996337891
20
72.2076034545898
40
0.0
41
0.0
42
0.0
10
75.6464996337891
20
72.2349014282227
40
0.0
41
0.0
42
0.0
10
75.5009994506836
20
72.3595962524414
40
0.0
41
0.0
42
0.0
10
75.4648971557617
20
72.5142974853516
40
0.0
41
0.0
42
0.0
10
75.4332962036133
20
72.6112976074219
40
0.0
41
0.0
42
0.0
10
75.3197021484375
20
73.0145034790039
40
0.0
41
0.0
42
0.0
10
75.2846984863281
20
73.14990234375
40
0.0
41
0.0
42
0.0
10
75.1989974975586
20
73.5099029541016
40
0.0
41
0.0
42
0.0
10
75.2055969238281
20
73.6156005859375
40
0.0
41
0.0
42
0.0
10
75.2054977416992
20
73.6536026000977
40
0.0
41
0.0
42
0.0
10
75.157096862793
20
74.0166015625
40
0.0
41
0.0
42
0.0
10
75.0886001586914
20
74.3766021728516
40
0.0
41
0.0
42
0.0
10
75.1249008178711
20
74.4199981689453
40
0.0
41
0.0
42
0.0
10
75.4807968139648
20
74.3914031982422
40
0.0
41
0.0
42
0.0
10
75.5080032348633
20
74.3912963867188
40
0.0
41
0.0
42
0.0
10
75.5559997558594
20
74.4728012084961
40
0.0
41
0.0
42
0.0
10
75.5656967163086
20
74.4866027832031
40
0.0
41
0.0
42
0.0
10
75.5655975341797
20
74.519401550293
40
0.0
41
0.0
42
0.0
10
75.5468978881836
20
74.8740005493164
40
0.0
41
0.0
42
0.0
10
75.6246032714844
20
74.9434967041016
40
0.0
41
0.0
42
0.0
10
75.9841995239258
20
74.8945007324219
40
0.0
41
0.0
42
0.0
10
76.3531036376953
20
74.7893981933594
40
0.0
41
0.0
42
0.0
10
76.4909973144531
20
74.7100982666016
40
0.0
41
0.0
42
0.0
10
76.8207015991211
20
74.4917984008789
40
0.0
41
0.0
42
0.0
10
76.8285980224609
20
74.3952026367188
40
0.0
41
0.0
42
0.0
10
76.8542022705078
20
74.372200012207
40
0.0
41
0.0
42
0.0
10
76.9857025146484
20
74.3538970947266
40
0.0
41
0.0
42
0.0
10
77.3522033691406
20
74.1925964355469
40
0.0
41
0.0
42
0.0
10
77.4858016967773
20
74.1521987915039
40
0.0
41
0.0
42
0.0
10
77.9845962524414
20
74.0146026611328
40
0.0
41
0.0
42
0.0
10
78.0650024414062
20
74.0003967285156
40
0.0
41
0.0
42
0.0
10
78.3571014404297
20
73.915397644043
40
0.0
41
0.0
42
0.0
10
78.3930969238281
20
73.9152984619141
40
0.0
41
0.0
42
0.0
10
78.5065994262695
20
73.9261016845703
40
0.0
41
0.0
42
0.0
10
78.8454971313477
20
73.9100036621094
40
0.0
41
0.0
42
0.0
10
78.8832015991211
20
73.9100036621094
40
0.0
41
0.0
42
0.0
10
79.0152969360352
20
73.932502746582
40
0.0
41
0.0
42
0.0
10
79.1512985229492
20
73.970703125
40
0.0
41
0.0
42
0.0
10
79.5146026611328
20
73.9974975585938
40
0.0
41
0.0
42
0.0
10
79.5600967407227
20
74.018798828125
40
0.0
41
0.0
42
0.0
10
79.6322021484375
20
74.0690994262695
40
0.0
41
0.0
42
0.0
10
80.0155029296875
20
74.1468963623047
40
0.0
41
0.0
42
0.0
10
80.4154968261719
20
74.2330017089844
40
0.0
41
0.0
42
0.0
10
80.4756011962891
20
74.2828979492188
40
0.0
41
0.0
42
0.0
10
80.5113983154297
20
74.3161010742188
40
0.0
41
0.0
42
0.0
10
80.8650970458984
20
74.3303985595703
40
0.0
41
0.0
42
0.0
10
81.0011978149414
20
74.4029006958008
40
0.0
41
0.0
42
0.0
10
81.1724014282227
20
74.3292999267578
40
0.0
41
0.0
42
0.0
10
81.4897994995117
20
74.2813034057617
40
0.0
41
0.0
42
0.0
10
81.5157012939453
20
74.2559967041016
40
0.0
41
0.0
42
0.0
10
81.7510986328125
20
73.9962997436523
40
0.0
41
0.0
42
0.0
10
81.9925003051758
20
73.8537979125977
40
0.0
41
0.0
42
0.0
10
82.0783004760742
20
73.7752990722656
40
0.0
41
0.0
42
0.0
10
82.0904006958008
20
73.7584991455078
40
0.0
41
0.0
42
0.0
10
82.3139038085938
20
73.5723037719727
40
0.0
41
0.0
42
0.0
10
82.3748016357422
20
73.4949035644531
40
0.0
41
0.0
42
0.0
10
82.4941024780273
20
73.4037017822266
40
0.0
41
0.0
42
0.0
10
82.5399017333984
20
73.3546981811523
40
0.0
41
0.0
42
0.0
10
82.5898971557617
20
73.2855987548828
40
0.0
41
0.0
42
0.0
10
82.9686965942383
20
73.0204010009766
40
0.0
41
0.0
42
0.0
10
82.9947967529297
20
72.9970016479492
40
0.0
41
0.0
42
0.0
10
83.0886001586914
20
72.8935012817383
40
0.0
41
0.0
42
0.0
10
83.1259002685547
20
72.861701965332
40
0.0
41
0.0
42
0.0
10
83.4841003417969
20
72.7188034057617
40
0.0
41
0.0
42
0.0
10
83.8501968383789
20
72.7155990600586
40
0.0
41
0.0
42
0.0
10
83.9851989746094
20
72.6443023681641
40
0.0
41
0.0
42
0.0
10
84.0192031860352
20
72.6442031860352
40
0.0
41
0.0
42
0.0
10
84.2257995605469
20
72.659797668457
40
0.0
41
0.0
42
0.0
10
84.5117034912109
20
72.7540969848633
40
0.0
41
0.0
42
0.0
10
84.9730987548828
20
72.9979019165039
40
0.0
41
0.0
42
0.0
10
84.9990005493164
20
73.0162963867188
40
0.0
41
0.0
42
0.0
10
84.9990005493164
20
73.1003036499023
40
0.0
41
0.0
42
0.0
10
84.986701965332
20
73.1001968383789
40
0.0
41
0.0
42
0.0
10
84.8494033813477
20
73.002197265625
40
0.0
41
0.0
42
0.0
10
84.8097991943359
20
72.9797973632812
40
0.0
41
0.0
42
0.0
10
84.4881973266602
20
72.8100967407227
40
0.0
41
0.0
42
0.0
10
84.1318969726562
20
72.6923980712891
40
0.0
41
0.0
42
0.0
10
84.010498046875
20
72.6832962036133
40
0.0
41
0.0
42
0.0
10
83.9196014404297
20
72.7314987182617
40
0.0
41
0.0
42
0.0
10
83.5158004760742
20
72.7350006103516
40
0.0
41
0.0
42
0.0
10
83.11669921875
20
72.8942031860352
40
0.0
41
0.0
42
0.0
10
83.004997253418
20
73.0195999145508
40
0.0
41
0.0
42
0.0
10
82.9849014282227
20
73.0376968383789
40
0.0
41
0.0
42
0.0
10
82.6399002075195
20
73.2790985107422
40
0.0
41
0.0
42
0.0
10
82.565803527832
20
73.3815994262695
40
0.0
41
0.0
42
0.0
10
82.5057983398438
20
73.4458999633789
40
0.0
41
0.0
42
0.0
10
82.4289016723633
20
73.5048980712891
40
0.0
41
0.0
42
0.0
10
82.3415985107422
20
73.6156997680664
40
0.0
41
0.0
42
0.0
10
82.1393966674805
20
73.7839965820312
40
0.0
41
0.0
42
0.0
10
82.1214981079102
20
73.8088989257812
40
0.0
41
0.0
42
0.0
10
82.0074005126953
20
73.913200378418
40
0.0
41
0.0
42
0.0
10
81.8545989990234
20
74.0034027099609
40
0.0
41
0.0
42
0.0
10
81.5093994140625
20
74.3827972412109
40
0.0
41
0.0
42
0.0
10
81.0687026977539
20
74.4495010375977
40
0.0
41
0.0
42
0.0
10
81.0157012939453
20
74.472297668457
40
0.0
41
0.0
42
0.0
10
80.9851989746094
20
74.4721984863281
40
0.0
41
0.0
42
0.0
10
80.7735977172852
20
74.3592987060547
40
0.0
41
0.0
42
0.0
10
80.4886016845703
20
74.347900390625
40
0.0
41
0.0
42
0.0
10
80.4505004882812
20
74.3124008178711
40
0.0
41
0.0
42
0.0
10
80.3544006347656
20
74.2324981689453
40
0.0
41
0.0
42
0.0
10
79.9841995239258
20
74.1529006958008
40
0.0
41
0.0
42
0.0
10
79.6207962036133
20
74.0792007446289
40
0.0
41
0.0
42
0.0
10
79.5848999023438
20
74.0654983520508
40
0.0
41
0.0
42
0.0
10
79.5263977050781
20
74.0246963500977
40
0.0
41
0.0
42
0.0
10
79.4858016967773
20
74.0047988891602
40
0.0
41
0.0
42
0.0
10
79.4279022216797
20
73.9990005493164
40
0.0
41
0.0
42
0.0
10
79.0785980224609
20
73.9730987548828
40
0.0
41
0.0
42
0.0
10
78.9845962524414
20
73.9466018676758
40
0.0
41
0.0
42
0.0
10
78.8951034545898
20
73.931396484375
40
0.0
41
0.0
42
0.0
10
78.5195007324219
20
73.9494018554688
40
0.0
41
0.0
42
0.0
10
78.4809036254883
20
73.9493026733398
40
0.0
41
0.0
42
0.0
10
78.4232025146484
20
73.9438018798828
40
0.0
41
0.0
42
0.0
10
78.2322998046875
20
73.999397277832
40
0.0
41
0.0
42
0.0
10
78.0152969360352
20
74.0379028320312
40
0.0
41
0.0
42
0.0
10
77.5140991210938
20
74.1763000488281
40
0.0
41
0.0
42
0.0
10
77.4176025390625
20
74.2052993774414
40
0.0
41
0.0
42
0.0
10
77.0140991210938
20
74.3831024169922
40
0.0
41
0.0
42
0.0
10
76.9156036376953
20
74.3966979980469
40
0.0
41
0.0
42
0.0
10
76.8639984130859
20
74.4431991577148
40
0.0
41
0.0
42
0.0
10
76.8588027954102
20
74.5080032348633
40
0.0
41
0.0
42
0.0
10
76.508903503418
20
74.7397994995117
40
0.0
41
0.0
42
0.0
10
76.4167022705078
20
74.7928009033203
40
0.0
41
0.0
42
0.0
10
76.0156021118164
20
74.9068984985352
40
0.0
41
0.0
42
0.0
10
75.5930023193359
20
74.9645004272461
40
0.0
41
0.0
42
0.0
10
75.5625
20
74.9645004272461
40
0.0
41
0.0
42
0.0
10
75.5306015014648
20
74.9358978271484
40
0.0
41
0.0
42
0.0
10
75.5305023193359
20
74.9058990478516
40
0.0
41
0.0
42
0.0
10
75.5514984130859
20
74.5110015869141
40
0.0
41
0.0
42
0.0
10
75.5353012084961
20
74.4879989624023
40
0.0
41
0.0
42
0.0
10
75.4932022094727
20
74.4162979125977
40
0.0
41
0.0
42
0.0
10
75.0935974121094
20
74.448600769043
40
0.0
41
0.0
42
0.0
10
75.0643005371094
20
74.448600769043
40
0.0
41
0.0
42
0.0
10
75.0552978515625
20
74.4376983642578
40
0.0
41
0.0
42
0.0
10
75.0551986694336
20
74.4073028564453
40
0.0
41
0.0
42
0.0
10
75.136100769043
20
73.9832992553711
40
0.0
41
0.0
42
0.0
10
75.1885986328125
20
73.5884017944336
40
0.0
41
0.0
42
0.0
10
75.1843032836914
20
73.5193023681641
40
0.0
41
0.0
42
0.0
10
75.1844024658203
20
73.4823989868164
40
0.0
41
0.0
42
0.0
10
75.2801971435547
20
73.0800018310547
40
0.0
41
0.0
42
0.0
10
75.3047027587891
20
72.9853973388672
40
0.0
41
0.0
42
0.0
10
75.4262008666992
20
72.5546035766602
40
0.0
41
0.0
42
0.0
10
75.4486999511719
20
72.4856033325195
40
0.0
41
0.0
42
0.0
10
75.4988021850586
20
72.2707977294922
40
0.0
41
0.0
42
0.0
10
75.5982971191406
20
72.1854019165039
40
0.0
41
0.0
42
0.0
10
75.5753021240234
20
72.1054000854492
40
0.0
41
0.0
42
0.0
10
75.5752029418945
20
72.0725021362305
40
0.0
41
0.0
42
0.0
10
75.6100006103516
20
71.9849014282227
40
0.0
41
0.0
42
0.0
10
75.6483993530273
20
71.6011962890625
40
0.0
41
0.0
42
0.0
10
75.6296997070312
20
71.5168991088867
40
0.0
41
0.0
42
0.0
10
75.598503112793
20
71.1109008789062
40
0.0
41
0.0
42
0.0
10
75.5677032470703
20
71.0148010253906
40
0.0
41
0.0
42
0.0
10
75.5233993530273
20
70.7742004394531
40
0.0
41
0.0
42
0.0
10
75.4990005493164
20
70.7173004150391
40
0.0
41
0.0
42
0.0
10
75.4703979492188
20
70.6589965820312
40
0.0
41
0.0
42
0.0
10
75.4355010986328
20
70.5142974853516
40
0.0
41
0.0
42
0.0
10
75.3175964355469
20
70.1461029052734
40
0.0
41
0.0
42
0.0
10
75.2342987060547
20
70.0111999511719
40
0.0
41
0.0
42
0.0
10
75.1239013671875
20
69.6455001831055
40
0.0
41
0.0
42
0.0
10
75.0271987915039
20
69.5114974975586
40
0.0
41
0.0
42
0.0
10
74.9991989135742
20
69.3643035888672
40
0.0
41
0.0
42
0.0
10
74.5864028930664
20
69.0102996826172
40
0.0
41
0.0
42
0.0
10
74.5863037109375
20
68.9828033447266
40
0.0
41
0.0
42
0.0
10
74.7385025024414
20
68.4929962158203
40
0.0
41
0.0
42
0.0
10
74.8871002197266
20
68.3898010253906
40
0.0
41
0.0
42
0.0
210
0.0
220
0.0
230
1.0
0
LWPOLYLINE
5
2F
330
1C
100
AcDbEntity
67
0
8
0
62
256
6
ByLayer
370
-1
48
1.0
60
0
100
AcDbPolyline
90
11
70
1
38
0.0
39
0.0
10
74.7983016967773
20
75.3643035888672
40
0.0
41
0.0
42
0.0
10
74.9245986938477
20
75.3831024169922
40
0.0
41
0.0
42
0.0
10
75.0
20
75.4581985473633
40
0.0
41
0.0
42
0.0
10
75.4682998657227
20
74.9898986816406
40
0.0
41
0.0
42
0.0
10
75.4644012451172
20
74.9000015258789
40
0.0
41
0.0
42
0.0
10
75.0998001098633
20
74.535400390625
40
0.0
41
0.0
42
0.0
10
75.0
20
74.5309982299805
40
0.0
41
0.0
42
0.0
10
74.89990234375
20
74.535400390625
40
0.0
41
0.0
42
0.0
10
74.535400390625
20
74.9000015258789
40
0.0
41
0.0
42
0.0
10
74.5314025878906
20
74.9886016845703
40
0.0
41
0.0
42
0.0
10
74.7983016967773
20
75.3643035888672
40
0.0
41
0.0
42
0.0
210
0.0
220
0.0
230
1.0
0
LWPOLYLINE
5
30
330
1C
100
AcDbEntity
67
0
8
0
62
256
6
ByLayer
370
-1
48
1.0
60
0
100
AcDbPolyline
90
230
70
1
38
0.0
39
0.0
10
75.0639038085938
20
75.5306015014648
40
0.0
41
0.0
42
0.0
10
75.0939025878906
20
75.5305023193359
40
0.0
41
0.0
42
0.0
10
75.488899230957
20
75.5514984130859
40
0.0
41
0.0
42
0.0
10
75.5118026733398
20
75.5352020263672
40
0.0
41
0.0
42
0.0
10
75.5833969116211
20
75.4932022094727
40
0.0
41
0.0
42
0.0
10
75.5513000488281
20
75.0935974121094
40
0.0
41
0.0
42
0.0
10
75.5511016845703
20
75.0643005371094
40
0.0
41
0.0
42
0.0
10
75.5621032714844
20
75.0552978515625
40
0.0
41
0.0
42
0.0
10
75.5924987792969
20
75.0551986694336
40
0.0
41
0.0
42
0.0
10
76.0166015625
20
75.136100769043
40
0.0
41
0.0
42
0.0
10
76.4114990234375
20
75.1885986328125
40
0.0
41
0.0
42
0.0
10
76.480598449707
20
75.1843032836914
40
0.0
41
0.0
42
0.0
10
76.5175018310547
20
75.1844024658203
40
0.0
41
0.0
42
0.0
10
76.9198989868164
20
75.2801971435547
40
0.0
41
0.0
42
0.0
10
77.0145034790039
20
75.3047027587891
40
0.0
41
0.0
42
0.0
10
77.445198059082
20
75.4262008666992
40
0.0
41
0.0
42
0.0
10
77.5142974853516
20
75.4487991333008
40
0.0
41
0.0
42
0.0
10
77.7341995239258
20
75.5
40
0.0
41
0.0
42
0.0
10
77.7920989990234
20
75.5231018066406
40
0.0
41
0.0
42
0.0
10
77.9377975463867
20
75.6246032714844
40
0.0
41
0.0
42
0.0
10
77.9831008911133
20
75.6103973388672
40
0.0
41
0.0
42
0.0
10
78.0188980102539
20
75.6103973388672
40
0.0
41
0.0
42
0.0
10
78.3986968994141
20
75.6483993530273
40
0.0
41
0.0
42
0.0
10
78.4830017089844
20
75.6296997070312
40
0.0
41
0.0
42
0.0
10
78.8889999389648
20
75.598503112793
40
0.0
41
0.0
42
0.0
10
78.9850997924805
20
75.5677032470703
40
0.0
41
0.0
42
0.0
10
79.2256011962891
20
75.5233993530273
40
0.0
41
0.0
42
0.0
10
79.282600402832
20
75.4990005493164
40
0.0
41
0.0
42
0.0
10
79.3407974243164
20
75.4703979492188
40
0.0
41
0.0
42
0.0
10
79.4856033325195
20
75.4355010986328
40
0.0
41
0.0
42
0.0
10
79.8537979125977
20
75.3175964355469
40
0.0
41
0.0
42
0.0
10
79.9886016845703
20
75.2341995239258
40
0.0
41
0.0
42
0.0
10
80.3543014526367
20
75.1239013671875
40
0.0
41
0.0
42
0.0
10
80.4884033203125
20
75.0271987915039
40
0.0
41
0.0
42
0.0
10
80.6330032348633
20
74.9996032714844
40
0.0
41
0.0
42
0.0
10
80.8431015014648
20
74.8413009643555
40
0.0
41
0.0
42
0.0
10
80.9919967651367
20
74.5864028930664
40
0.0
41
0.0
42
0.0
10
81.0167999267578
20
74.5863037109375
40
0.0
41
0.0
42
0.0
10
81.507698059082
20
74.7388000488281
40
0.0
41
0.0
42
0.0
10
81.7186965942383
20
74.9974975585938
40
0.0
41
0.0
42
0.0
10
81.8432998657227
20
75.0468978881836
40
0.0
41
0.0
42
0.0
10
82.0092010498047
20
75.1264038085938
40
0.0
41
0.0
42
0.0
10
82.506103515625
20
75.4886016845703
40
0.0
41
0.0
42
0.0
10
82.5124969482422
20
75.4953002929688
40
0.0
41
0.0
42
0.0
10
82.6660995483398
20
75.6249008178711
40
0.0
41
0.0
42
0.0
10
83.0106964111328
20
75.8267974853516
40
0.0
41
0.0
42
0.0
10
83.0435028076172
20
75.8397979736328
40
0.0
41
0.0
42
0.0
10
83.0690994262695
20
75.8615036010742
40
0.0
41
0.0
42
0.0
10
83.2608032226562
20
75.9984970092773
40
0.0
41
0.0
42
0.0
10
83.5105972290039
20
76.0960006713867
40
0.0
41
0.0
42
0.0
10
83.5586013793945
20
76.1255035400391
40
0.0
41
0.0
42
0.0
10
83.6462020874023
20
76.1847991943359
40
0.0
41
0.0
42
0.0
10
83.9876022338867
20
76.1998977661133
40
0.0
41
0.0
42
0.0
10
84.388298034668
20
76.0683975219727
40
0.0
41
0.0
42
0.0
10
84.4231033325195
20
76.0683975219727
40
0.0
41
0.0
42
0.0
10
84.4963989257812
20
76.0818023681641
40
0.0
41
0.0
42
0.0
10
84.5836029052734
20
76.0565032958984
40
0.0
41
0.0
42
0.0
10
84.6296997070312
20
76.027702331543
40
0.0
41
0.0
42
0.0
10
84.6762008666992
20
75.9971008300781
40
0.0
41
0.0
42
0.0
10
84.9869003295898
20
75.7655029296875
40
0.0
41
0.0
42
0.0
10
84.9990005493164
20
75.7655029296875
40
0.0
41
0.0
42
0.0
10
84.9989013671875
20
75.8149032592773
40
0.0
41
0.0
42
0.0
10
84.7471008300781
20
76.0026016235352
40
0.0
41
0.0
42
0.0
10
84.6461029052734
20
76.0678024291992
40
0.0
41
0.0
42
0.0
10
84.5169982910156
20
76.105598449707
40
0.0
41
0.0
42
0.0
10
84.4819030761719
20
76.1054992675781
40
0.0
41
0.0
42
0.0
10
84.3692016601562
20
76.0848999023438
40
0.0
41
0.0
42
0.0
10
84.0166015625
20
76.2006988525391
40
0.0
41
0.0
42
0.0
10
83.9804000854492
20
76.2005996704102
40
0.0
41
0.0
42
0.0
10
83.6162033081055
20
76.1844024658203
40
0.0
41
0.0
42
0.0
10
83.5820999145508
20
76.181999206543
40
0.0
41
0.0
42
0.0
10
83.526496887207
20
76.1443023681641
40
0.0
41
0.0
42
0.0
10
83.4894027709961
20
76.1213989257812
40
0.0
41
0.0
42
0.0
10
83.1815032958984
20
76.0012969970703
40
0.0
41
0.0
42
0.0
10
83.0515975952148
20
75.9084014892578
40
0.0
41
0.0
42
0.0
10
83.0300979614258
20
75.8900985717773
40
0.0
41
0.0
42
0.0
10
82.9891967773438
20
75.8740005493164
40
0.0
41
0.0
42
0.0
10
82.6035003662109
20
75.6479034423828
40
0.0
41
0.0
42
0.0
10
82.4919967651367
20
75.5538024902344
40
0.0
41
0.0
42
0.0
10
82.4001007080078
20
75.502197265625
40
0.0
41
0.0
42
0.0
10
81.9907989501953
20
75.2053985595703
40
0.0
41
0.0
42
0.0
10
81.7219009399414
20
75.0762023925781
40
0.0
41
0.0
42
0.0
10
81.5356979370117
20
75.0025024414062
40
0.0
41
0.0
42
0.0
10
81.492301940918
20
74.9490966796875
40
0.0
41
0.0
42
0.0
10
81.0039978027344
20
74.7963027954102
40
0.0
41
0.0
42
0.0
10
80.9268035888672
20
74.928596496582
40
0.0
41
0.0
42
0.0
10
80.8320999145508
20
75.0001983642578
40
0.0
41
0.0
42
0.0
10
80.5113983154297
20
75.0610961914062
40
0.0
41
0.0
42
0.0
10
80.4154968261719
20
75.1304016113281
40
0.0
41
0.0
42
0.0
10
80.0111999511719
20
75.2522964477539
40
0.0
41
0.0
42
0.0
10
79.9160995483398
20
75.3112030029297
40
0.0
41
0.0
42
0.0
10
79.5142974853516
20
75.4397964477539
40
0.0
41
0.0
42
0.0
10
79.3503036499023
20
75.4793014526367
40
0.0
41
0.0
42
0.0
10
79.306999206543
20
75.5007019042969
40
0.0
41
0.0
42
0.0
10
79.2324981689453
20
75.5322036743164
40
0.0
41
0.0
42
0.0
10
79.0148010253906
20
75.5721969604492
40
0.0
41
0.0
42
0.0
10
78.8808975219727
20
75.6150970458984
40
0.0
41
0.0
42
0.0
10
78.5167999267578
20
75.6428985595703
40
0.0
41
0.0
42
0.0
10
78.382698059082
20
75.6726989746094
40
0.0
41
0.0
42
0.0
10
78.3460006713867
20
75.6726989746094
40
0.0
41
0.0
42
0.0
10
78.0081024169922
20
75.6389007568359
40
0.0
41
0.0
42
0.0
10
77.9225997924805
20
75.6657028198242
40
0.0
41
0.0
42
0.0
10
77.8925018310547
20
75.6656036376953
40
0.0
41
0.0
42
0.0
10
77.6804962158203
20
75.5177993774414
40
0.0
41
0.0
42
0.0
10
77.6350021362305
20
75.4998016357422
40
0.0
41
0.0
42
0.0
10
77.4856033325195
20
75.4649963378906
40
0.0
41
0.0
42
0.0
10
77.3884963989258
20
75.4332962036133
40
0.0
41
0.0
42
0.0
10
76.9853973388672
20
75.3197021484375
40
0.0
41
0.0
42
0.0
10
76.8499984741211
20
75.2846984863281
40
0.0
41
0.0
42
0.0
10
76.4900970458984
20
75.1989974975586
40
0.0
41
0.0
42
0.0
10
76.3843002319336
20
75.2055969238281
40
0.0
41
0.0
42
0.0
10
76.3462982177734
20
75.2054977416992
40
0.0
41
0.0
42
0.0
10
75.9832992553711
20
75.157096862793
40
0.0
41
0.0
42
0.0
10
75.6231994628906
20
75.0886001586914
40
0.0
41
0.0
42
0.0
10
75.5796966552734
20
75.1249008178711
40
0.0
41
0.0
42
0.0
10
75.6084976196289
20
75.4807968139648
40
0.0
41
0.0
42
0.0
10
75.6083984375
20
75.5078964233398
40
0.0
41
0.0
42
0.0
10
75.5269012451172
20
75.5559005737305
40
0.0
41
0.0
42
0.0
10
75.513298034668
20
75.5656967163086
40
0.0
41
0.0
42
0.0
10
75.4804992675781
20
75.5655975341797
40
0.0
41
0.0
42
0.0
10
75.1258010864258
20
75.5467987060547
40
0.0
41
0.0
42
0.0
10
75.0561981201172
20
75.6246032714844
40
0.0
41
0.0
42
0.0
10
75.1053009033203
20
75.9842987060547
40
0.0
41
0.0
42
0.0
10
75.2102966308594
20
76.3532028198242
40
0.0
41
0.0
42
0.0
10
75.2897033691406
20
76.4909973144531
40
0.0
41
0.0
42
0.0
10
75.5081024169922
20
76.8207015991211
40
0.0
41
0.0
42
0.0
10
75.6045989990234
20
76.8285980224609
40
0.0
41
0.0
42
0.0
10
75.6275024414062
20
76.8542022705078
40
0.0
41
0.0
42
0.0
10
75.6457977294922
20
76.9857025146484
40
0.0
41
0.0
42
0.0
10
75.8070983886719
20
77.3523025512695
40
0.0
41
0.0
42
0.0
10
75.8475036621094
20
77.4858016967773
40
0.0
41
0.0
42
0.0
10
75.9850997924805
20
77.9845962524414
40
0.0
41
0.0
42
0.0
10
75.9994964599609
20
78.0650024414062
40
0.0
41
0.0
42
0.0
10
76.0845031738281
20
78.3571014404297
40
0.0
41
0.0
42
0.0
10
76.0843963623047
20
78.3930969238281
40
0.0
41
0.0
42
0.0
10
76.073600769043
20
78.5065002441406
40
0.0
41
0.0
42
0.0
10
76.0898971557617
20
78.8454971313477
40
0.0
41
0.0
42
0.0
10
76.0896987915039
20
78.8832015991211
40
0.0
41
0.0
42
0.0
10
76.0672988891602
20
79.0152969360352
40
0.0
41
0.0
42
0.0
10
76.0289993286133
20
79.1512985229492
40
0.0
41
0.0
42
0.0
10
76.002197265625
20
79.5145034790039
40
0.0
41
0.0
42
0.0
10
75.9809036254883
20
79.5600967407227
40
0.0
41
0.0
42
0.0
10
75.9306030273438
20
79.6322021484375
40
0.0
41
0.0
42
0.0
10
75.8527984619141
20
80.0156021118164
40
0.0
41
0.0
42
0.0
10
75.7667007446289
20
80.4154968261719
40
0.0
41
0.0
42
0.0
10
75.716796875
20
80.4755020141602
40
0.0
41
0.0
42
0.0
10
75.6836013793945
20
80.5112991333008
40
0.0
41
0.0
42
0.0
10
75.6692962646484
20
80.8650970458984
40
0.0
41
0.0
42
0.0
10
75.5968017578125
20
81.0011978149414
40
0.0
41
0.0
42
0.0
10
75.6704025268555
20
81.1725006103516
40
0.0
41
0.0
42
0.0
10
75.7183990478516
20
81.4897994995117
40
0.0
41
0.0
42
0.0
10
75.7437973022461
20
81.5157012939453
40
0.0
41
0.0
42
0.0
10
76.0035018920898
20
81.7511978149414
40
0.0
41
0.0
42
0.0
10
76.1461029052734
20
81.9925003051758
40
0.0
41
0.0
42
0.0
10
76.2244033813477
20
82.0783004760742
40
0.0
41
0.0
42
0.0
10
76.2412033081055
20
82.0904006958008
40
0.0
41
0.0
42
0.0
10
76.4273986816406
20
82.3140029907227
40
0.0
41
0.0
42
0.0
10
76.5048980712891
20
82.3749008178711
40
0.0
41
0.0
42
0.0
10
76.5960006713867
20
82.4941024780273
40
0.0
41
0.0
42
0.0
10
76.6451034545898
20
82.5399017333984
40
0.0
41
0.0
42
0.0
10
76.7141036987305
20
82.5898971557617
40
0.0
41
0.0
42
0.0
10
76.9793014526367
20
82.9686965942383
40
0.0
41
0.0
42
0.0
10
77.0027008056641
20
82.9947967529297
40
0.0
41
0.0
42
0.0
10
77.106201171875
20
83.0886993408203
40
0.0
41
0.0
42
0.0
10
77.1380004882812
20
83.1259994506836
40
0.0
41
0.0
42
0.0
10
77.2808990478516
20
83.4841003417969
40
0.0
41
0.0
42
0.0
10
77.2841033935547
20
83.8503036499023
40
0.0
41
0.0
42
0.0
10
77.355598449707
20
83.9851989746094
40
0.0
41
0.0
42
0.0
10
77.3554992675781
20
84.0192031860352
40
0.0
41
0.0
42
0.0
10
77.3398971557617
20
84.2257995605469
40
0.0
41
0.0
42
0.0
10
77.2455978393555
20
84.5117034912109
40
0.0
41
0.0
42
0.0
10
77.0019989013672
20
84.9730987548828
40
0.0
41
0.0
42
0.0
10
76.9835968017578
20
84.9990005493164
40
0.0
41
0.0
42
0.0
10
76.8995971679688
20
84.9990005493164
40
0.0
41
0.0
42
0.0
10
76.8994979858398
20
84.986701965332
40
0.0
41
0.0
42
0.0
10
76.9975967407227
20
84.8492965698242
40
0.0
41
0.0
42
0.0
10
77.0199966430664
20
84.8097991943359
40
0.0
41
0.0
42
0.0
10
77.1895980834961
20
84.4881973266602
40
0.0
41
0.0
42
0.0
10
77.3072967529297
20
84.1318969726562
40
0.0
41
0.0
42
0.0
10
77.3163986206055
20
84.010498046875
40
0.0
41
0.0
42
0.0
10
77.2682037353516
20
83.9197006225586
40
0.0
41
0.0
42
0.0
10
77.2647018432617
20
83.5158004760742
40
0.0
41
0.0
42
0.0
10
77.105598449707
20
83.1168975830078
40
0.0
41
0.0
42
0.0
10
76.9934997558594
20
83.0156021118164
40
0.0
41
0.0
42
0.0
10
76.9796981811523
20
83.0046005249023
40
0.0
41
0.0
42
0.0
10
76.9619979858398
20
82.9849014282227
40
0.0
41
0.0
42
0.0
10
76.720703125
20
82.6399993896484
40
0.0
41
0.0
42
0.0
10
76.6182022094727
20
82.5659027099609
40
0.0
41
0.0
42
0.0
10
76.5538024902344
20
82.5057983398438
40
0.0
41
0.0
42
0.0
10
76.495002746582
20
82.4289016723633
40
0.0
41
0.0
42
0.0
10
76.3841018676758
20
82.3415985107422
40
0.0
41
0.0
42
0.0
10
76.2157974243164
20
82.1395034790039
40
0.0
41
0.0
42
0.0
10
76.1909027099609
20
82.1215972900391
40
0.0
41
0.0
42
0.0
10
76.0866012573242
20
82.0074005126953
40
0.0
41
0.0
42
0.0
10
75.9963989257812
20
81.8545989990234
40
0.0
41
0.0
42
0.0
10
75.6227035522461
20
81.515998840332
40
0.0
41
0.0
42
0.0
10
75.6171035766602
20
81.5102005004883
40
0.0
41
0.0
42
0.0
10
75.5503005981445
20
81.0687026977539
40
0.0
41
0.0
42
0.0
10
75.5276031494141
20
81.0156021118164
40
0.0
41
0.0
42
0.0
10
75.5274963378906
20
80.9851989746094
40
0.0
41
0.0
42
0.0
10
75.6404037475586
20
80.7734985351562
40
0.0
41
0.0
42
0.0
10
75.6519012451172
20
80.4886016845703
40
0.0
41
0.0
42
0.0
10
75.6874008178711
20
80.4505004882812
40
0.0
41
0.0
42
0.0
10
75.7671966552734
20
80.3544006347656
40
0.0
41
0.0
42
0.0
10
75.8468017578125
20
79.9841995239258
40
0.0
41
0.0
42
0.0
10
75.9205017089844
20
79.6207962036133
40
0.0
41
0.0
42
0.0
10
75.934196472168
20
79.5848007202148
40
0.0
41
0.0
42
0.0
10
75.9749984741211
20
79.5262985229492
40
0.0
41
0.0
42
0.0
10
75.9949035644531
20
79.4858016967773
40
0.0
41
0.0
42
0.0
10
76.0008010864258
20
79.4279022216797
40
0.0
41
0.0
42
0.0
10
76.0266036987305
20
79.0785980224609
40
0.0
41
0.0
42
0.0
10
76.0531005859375
20
78.9845962524414
40
0.0
41
0.0
42
0.0
10
76.0682983398438
20
78.8951034545898
40
0.0
41
0.0
42
0.0
10
76.0504989624023
20
78.5195007324219
40
0.0
41
0.0
42
0.0
10
76.0503997802734
20
78.4809036254883
40
0.0
41
0.0
42
0.0
10
76.0559005737305
20
78.4232025146484
40
0.0
41
0.0
42
0.0
10
76.0003967285156
20
78.2322998046875
40
0.0
41
0.0
42
0.0
10
75.961799621582
20
78.0152969360352
40
0.0
41
0.0
42
0.0
10
75.8234024047852
20
77.5140991210938
40
0.0
41
0.0
42
0.0
10
75.7944030761719
20
77.4177017211914
40
0.0
41
0.0
42
0.0
10
75.6166000366211
20
77.0141983032227
40
0.0
41
0.0
42
0.0
10
75.6029968261719
20
76.9157028198242
40
0.0
41
0.0
42
0.0
10
75.5566024780273
20
76.8639984130859
40
0.0
41
0.0
42
0.0
10
75.4917984008789
20
76.8588027954102
40
0.0
41
0.0
42
0.0
10
75.2600021362305
20
76.508903503418
40
0.0
41
0.0
42
0.0
10
75.206901550293
20
76.4167022705078
40
0.0
41
0.0
42
0.0
10
75.0927963256836
20
76.0156021118164
40
0.0
41
0.0
42
0.0
10
75.035400390625
20
75.5930023193359
40
0.0
41
0.0
42
0.0
10
75.0353012084961
20
75.5625
40
0.0
41
0.0
42
0.0
10
75.0639038085938
20
75.5306015014648
40
0.0
41
0.0
42
0.0
210
0.0
220
0.0
230
1.0
0
LWPOLYLINE
5
31
330
1C
100
AcDbEntity
67
0
8
0
62
256
6
ByLayer
370
-1
48
1.0
60
0
100
AcDbPolyline
90
124
70
1
38
0.0
39
0.0
10
75.7834014892578
20
74.0087966918945
40
0.0
41
0.0
42
0.0
10
75.7834014892578
20
73.981201171875
40
0.0
41
0.0
42
0.0
10
75.8401031494141
20
73.4999008178711
40
0.0
41
0.0
42
0.0
10
75.825798034668
20
73.3836975097656
40
0.0
41
0.0
42
0.0
10
75.8256988525391
20
73.3531036376953
40
0.0
41
0.0
42
0.0
10
75.9565963745117
20
73.2091979980469
40
0.0
41
0.0
42
0.0
10
75.9988021850586
20
73.1148986816406
40
0.0
41
0.0
42
0.0
10
76.0634002685547
20
72.9875030517578
40
0.0
41
0.0
42
0.0
10
76.1032028198242
20
72.8385009765625
40
0.0
41
0.0
42
0.0
10
76.2274017333984
20
72.488899230957
40
0.0
41
0.0
42
0.0
10
76.3499984741211
20
72.283203125
40
0.0
41
0.0
42
0.0
10
76.4972991943359
20
72.0540008544922
40
0.0
41
0.0
42
0.0
10
76.5404968261719
20
71.9925994873047
40
0.0
41
0.0
42
0.0
10
76.6477966308594
20
71.8610000610352
40
0.0
41
0.0
42
0.0
10
76.8386001586914
20
71.6507034301758
40
0.0
41
0.0
42
0.0
10
76.9605026245117
20
71.508903503418
40
0.0
41
0.0
42
0.0
10
76.9744033813477
20
71.4963989257812
40
0.0
41
0.0
42
0.0
10
77.0488967895508
20
71.4445037841797
40
0.0
41
0.0
42
0.0
10
77.3572006225586
20
71.168098449707
40
0.0
41
0.0
42
0.0
10
77.4906005859375
20
71.0931015014648
40
0.0
41
0.0
42
0.0
10
77.6316986083984
20
71.0066986083984
40
0.0
41
0.0
42
0.0
10
77.6564025878906
20
71.0
40
0.0
41
0.0
42
0.0
10
77.7501983642578
20
70.9673004150391
40
0.0
41
0.0
42
0.0
10
77.9871978759766
20
70.7779006958008
40
0.0
41
0.0
42
0.0
10
78.0178985595703
20
70.7779998779297
40
0.0
41
0.0
42
0.0
10
78.0885009765625
20
70.7920989990234
40
0.0
41
0.0
42
0.0
10
78.4040985107422
20
70.5835037231445
40
0.0
41
0.0
42
0.0
10
78.4880981445312
20
70.4940032958984
40
0.0
41
0.0
42
0.0
10
78.5168991088867
20
70.4607009887695
40
0.0
41
0.0
42
0.0
10
78.9737014770508
20
69.9908981323242
40
0.0
41
0.0
42
0.0
10
78.9962005615234
20
69.9145965576172
40
0.0
41
0.0
42
0.0
10
78.9997024536133
20
69.8955001831055
40
0.0
41
0.0
42
0.0
10
79.1672973632812
20
69.6701965332031
40
0.0
41
0.0
42
0.0
10
79.1087036132812
20
69.5123977661133
40
0.0
41
0.0
42
0.0
10
79.0791015625
20
69.4376983642578
40
0.0
41
0.0
42
0.0
10
79.0792007446289
20
69.4033966064453
40
0.0
41
0.0
42
0.0
10
79.1502990722656
20
69.0025024414062
40
0.0
41
0.0
42
0.0
10
79.1307983398438
20
68.9224014282227
40
0.0
41
0.0
42
0.0
10
79.1306991577148
20
68.8862991333008
40
0.0
41
0.0
42
0.0
10
79.1838989257812
20
68.4831008911133
40
0.0
41
0.0
42
0.0
10
79.2507019042969
20
68.0947036743164
40
0.0
41
0.0
42
0.0
10
79.2379989624023
20
68.0182037353516
40
0.0
41
0.0
42
0.0
10
79.2378997802734
20
67.9835968017578
40
0.0
41
0.0
42
0.0
10
79.3752975463867
20
67.6054992675781
40
0.0
41
0.0
42
0.0
10
79.3671035766602
20
67.5189971923828
40
0.0
41
0.0
42
0.0
10
79.3669967651367
20
67.4806976318359
40
0.0
41
0.0
42
0.0
10
79.3759994506836
20
67.3519973754883
40
0.0
41
0.0
42
0.0
10
79.4427032470703
20
67.2537994384766
40
0.0
41
0.0
42
0.0
10
79.4955978393555
20
67.1799011230469
40
0.0
41
0.0
42
0.0
10
79.6978988647461
20
66.9969024658203
40
0.0
41
0.0
42
0.0
10
79.7543029785156
20
66.9641036987305
40
0.0
41
0.0
42
0.0
10
79.9909973144531
20
66.7468032836914
40
0.0
41
0.0
42
0.0
10
80.355598449707
20
66.6146011352539
40
0.0
41
0.0
42
0.0
10
80.4850997924805
20
66.5693969726562
40
0.0
41
0.0
42
0.0
10
80.9813995361328
20
66.4898986816406
40
0.0
41
0.0
42
0.0
10
81.5175018310547
20
66.5001983642578
40
0.0
41
0.0
42
0.0
10
81.8550033569336
20
66.5738983154297
40
0.0
41
0.0
42
0.0
10
82.0084991455078
20
66.6356964111328
40
0.0
41
0.0
42
0.0
10
82.3766021728516
20
66.9785003662109
40
0.0
41
0.0
42
0.0
10
82.3948974609375
20
66.9936981201172
40
0.0
41
0.0
42
0.0
10
82.5005035400391
20
67.1744995117188
40
0.0
41
0.0
42
0.0
10
82.5936965942383
20
67.4831008911133
40
0.0
41
0.0
42
0.0
10
82.5936965942383
20
67.5765991210938
40
0.0
41
0.0
42
0.0
10
82.6417007446289
20
67.8464965820312
40
0.0
41
0.0
42
0.0
10
82.6686019897461
20
67.9820022583008
40
0.0
41
0.0
42
0.0
10
82.6684036254883
20
68.0185012817383
40
0.0
41
0.0
42
0.0
10
82.6502990722656
20
68.1495971679688
40
0.0
41
0.0
42
0.0
10
82.655403137207
20
68.5161972045898
40
0.0
41
0.0
42
0.0
10
82.6047973632812
20
68.6490020751953
40
0.0
41
0.0
42
0.0
10
82.529899597168
20
69.010498046875
40
0.0
41
0.0
42
0.0
10
82.503303527832
20
69.0422973632812
40
0.0
41
0.0
42
0.0
10
82.4685974121094
20
69.0895004272461
40
0.0
41
0.0
42
0.0
10
82.377799987793
20
69.1379013061523
40
0.0
41
0.0
42
0.0
10
82.1848983764648
20
69.5026016235352
40
0.0
41
0.0
42
0.0
10
82.1578979492188
20
69.5115966796875
40
0.0
41
0.0
42
0.0
10
82.0099029541016
20
69.6644973754883
40
0.0
41
0.0
42
0.0
10
81.9179992675781
20
69.6762008666992
40
0.0
41
0.0
42
0.0
10
81.5140991210938
20
69.9121017456055
40
0.0
41
0.0
42
0.0
10
81.4209976196289
20
69.9140014648438
40
0.0
41
0.0
42
0.0
10
81.3800964355469
20
69.9291000366211
40
0.0
41
0.0
42
0.0
10
81.1076965332031
20
69.9997024536133
40
0.0
41
0.0
42
0.0
10
81.0146026611328
20
70.0262985229492
40
0.0
41
0.0
42
0.0
10
80.9123992919922
20
70.0510025024414
40
0.0
41
0.0
42
0.0
10
80.5149993896484
20
70.1233978271484
40
0.0
41
0.0
42
0.0
10
80.2676010131836
20
70.1980972290039
40
0.0
41
0.0
42
0.0
10
80.0141983032227
20
70.2331008911133
40
0.0
41
0.0
42
0.0
10
79.6033020019531
20
70.4113006591797
40
0.0
41
0.0
42
0.0
10
79.4869003295898
20
70.4087982177734
40
0.0
41
0.0
42
0.0
10
79.2384033203125
20
70.2298965454102
40
0.0
41
0.0
42
0.0
10
79.2205963134766
20
70.2453994750977
40
0.0
41
0.0
42
0.0
10
79.3483963012695
20
70.4851989746094
40
0.0
41
0.0
42
0.0
10
79.3483963012695
20
70.5145034790039
40
0.0
41
0.0
42
0.0
10
79.1648025512695
20
70.8454971313477
40
0.0
41
0.0
42
0.0
10
79.0230026245117
20
71.0067977905273
40
0.0
41
0.0
42
0.0
10
79.0017013549805
20
71.0362014770508
40
0.0
41
0.0
42
0.0
10
78.9841995239258
20
71.0726013183594
40
0.0
41
0.0
42
0.0
10
78.8040008544922
20
71.4121017456055
40
0.0
41
0.0
42
0.0
10
78.8150024414062
20
71.4815979003906
40
0.0
41
0.0
42
0.0
10
78.8149032592773
20
71.5177993774414
40
0.0
41
0.0
42
0.0
10
78.7963027954102
20
71.6076965332031
40
0.0
41
0.0
42
0.0
10
78.581298828125
20
72.0117034912109
40
0.0
41
0.0
42
0.0
10
78.5025024414062
20
72.1221008300781
40
0.0
41
0.0
42
0.0
10
78.3209991455078
20
72.4045028686523
40
0.0
41
0.0
42
0.0
10
78.2790985107422
20
72.5106964111328
40
0.0
41
0.0
42
0.0
10
78.2016983032227
20
72.6425018310547
40
0.0
41
0.0
42
0.0
10
78.0043029785156
20
72.8646011352539
40
0.0
41
0.0
42
0.0
10
77.8721008300781
20
73.0091018676758
40
0.0
41
0.0
42
0.0
10
77.8690032958984
20
73.0186996459961
40
0.0
41
0.0
42
0.0
10
77.6401977539062
20
73.2017974853516
40
0.0
41
0.0
42
0.0
10
77.5374984741211
20
73.3224029541016
40
0.0
41
0.0
42
0.0
10
77.5085983276367
20
73.3318023681641
40
0.0
41
0.0
42
0.0
10
77.2526016235352
20
73.5020980834961
40
0.0
41
0.0
42
0.0
10
77.158203125
20
73.5587997436523
40
0.0
41
0.0
42
0.0
10
77.0767974853516
20
73.6912002563477
40
0.0
41
0.0
42
0.0
10
77.0525970458984
20
73.6911010742188
40
0.0
41
0.0
42
0.0
10
76.995002746582
20
73.6677017211914
40
0.0
41
0.0
42
0.0
10
76.8786010742188
20
73.6902008056641
40
0.0
41
0.0
42
0.0
10
76.5093994140625
20
73.8553009033203
40
0.0
41
0.0
42
0.0
10
76.3029022216797
20
74.0020980834961
40
0.0
41
0.0
42
0.0
10
76.1717987060547
20
74.0746002197266
40
0.0
41
0.0
42
0.0
10
76.0148010253906
20
74.1572036743164
40
0.0
41
0.0
42
0.0
10
75.9870986938477
20
74.1572036743164
40
0.0
41
0.0
42
0.0
10
75.8812026977539
20
74.0761032104492
40
0.0
41
0.0
42
0.0
10
75.7834014892578
20
74.0087966918945
40
0.0
41
0.0
42
0.0
210
0.0
220
0.0
230
1.0
0
LWPOLYLINE
5
32
330
1C
100
AcDbEntity
67
0
8
0
62
256
6
ByLayer
370
-1
48
1.0
60
0
100
AcDbPolyline
90
55
70
1
38
0.0
39
0.0
10
75.8593978881836
20
73.5186996459961
40
0.0
41
0.0
42
0.0
10
75.8037033081055
20
73.9931030273438
40
0.0
41
0.0
42
0.0
10
75.8843002319336
20
74.0485000610352
40
0.0
41
0.0
42
0.0
10
76.0016021728516
20
74.1380004882812
40
0.0
41
0.0
42
0.0
10
76.1694030761719
20
74.0498962402344
40
0.0
41
0.0
42
0.0
10
76.263801574707
20
73.9977035522461
40
0.0
41
0.0
42
0.0
10
76.4904022216797
20
73.8366012573242
40
0.0
41
0.0
42
0.0
10
76.8912963867188
20
73.6573028564453
40
0.0
41
0.0
42
0.0
10
76.9819030761719
20
73.6397018432617
40
0.0
41
0.0
42
0.0
10
77.0158004760742
20
73.6398010253906
40
0.0
41
0.0
42
0.0
10
77.0447998046875
20
73.6513977050781
40
0.0
41
0.0
42
0.0
10
77.1031036376953
20
73.5567016601562
40
0.0
41
0.0
42
0.0
10
77.2014007568359
20
73.4975967407227
40
0.0
41
0.0
42
0.0
10
77.4889984130859
20
73.3062973022461
40
0.0
41
0.0
42
0.0
10
77.5128021240234
20
73.2991027832031
40
0.0
41
0.0
42
0.0
10
77.589599609375
20
73.2089996337891
40
0.0
41
0.0
42
0.0
10
77.8504028320312
20
73.0003967285156
40
0.0
41
0.0
42
0.0
10
77.8535003662109
20
72.9906997680664
40
0.0
41
0.0
42
0.0
10
77.9954986572266
20
72.8354034423828
40
0.0
41
0.0
42
0.0
10
78.2160034179688
20
72.5873031616211
40
0.0
41
0.0
42
0.0
10
78.2736968994141
20
72.4891967773438
40
0.0
41
0.0
42
0.0
10
78.3102035522461
20
72.3962020874023
40
0.0
41
0.0
42
0.0
10
78.3279037475586
20
72.3593978881836
40
0.0
41
0.0
42
0.0
10
78.4972991943359
20
72.0960006713867
40
0.0
41
0.0
42
0.0
10
78.5692977905273
20
71.9952011108398
40
0.0
41
0.0
42
0.0
10
78.7676010131836
20
71.6221008300781
40
0.0
41
0.0
42
0.0
10
78.7932968139648
20
71.497802734375
40
0.0
41
0.0
42
0.0
10
78.7751998901367
20
71.38330078125
40
0.0
41
0.0
42
0.0
10
78.7751007080078
20
71.3501968383789
40
0.0
41
0.0
42
0.0
10
78.9599990844727
20
71.0022964477539
40
0.0
41
0.0
42
0.0
10
78.4996032714844
20
70.5490036010742
40
0.0
41
0.0
42
0.0
10
78.4256973266602
20
70.6278991699219
40
0.0
41
0.0
42
0.0
10
78.1485977172852
20
70.8112030029297
40
0.0
41
0.0
42
0.0
10
78.1169967651367
20
70.8112030029297
40
0.0
41
0.0
42
0.0
10
78.0064010620117
20
70.7890014648438
40
0.0
41
0.0
42
0.0
10
77.7871017456055
20
70.9641036987305
40
0.0
41
0.0
42
0.0
10
77.7660980224609
20
70.9738006591797
40
0.0
41
0.0
42
0.0
10
77.6915969848633
20
70.9998016357422
40
0.0
41
0.0
42
0.0
10
77.6705017089844
20
71.005500793457
40
0.0
41
0.0
42
0.0
10
77.5093002319336
20
71.1043014526367
40
0.0
41
0.0
42
0.0
10
77.41259765625
20
71.1585998535156
40
0.0
41
0.0
42
0.0
10
77.0688018798828
20
71.4670028686523
40
0.0
41
0.0
42
0.0
10
77.0058975219727
20
71.5118026733398
40
0.0
41
0.0
42
0.0
10
76.7591018676758
20
71.7836990356445
40
0.0
41
0.0
42
0.0
10
76.5768966674805
20
72.0072021484375
40
0.0
41
0.0
42
0.0
10
76.5025024414062
20
72.1128997802734
40
0.0
41
0.0
42
0.0
10
76.3981018066406
20
72.2752990722656
40
0.0
41
0.0
42
0.0
10
76.2575988769531
20
72.5110015869141
40
0.0
41
0.0
42
0.0
10
76.1159973144531
20
72.909797668457
40
0.0
41
0.0
42
0.0
10
76.0885009765625
20
73.0123977661133
40
0.0
41
0.0
42
0.0
10
76.0009994506836
20
73.1852035522461
40
0.0
41
0.0
42
0.0
10
75.9452972412109
20
73.3095016479492
40
0.0
41
0.0
42
0.0
10
75.8509979248047
20
73.4131011962891
40
0.0
41
0.0
42
0.0
10
75.8594970703125
20
73.481201171875
40
0.0
41
0.0
42
0.0
10
75.8593978881836
20
73.5186996459961
40
0.0
41
0.0
42
0.0
210
0.0
220
0.0
230
1.0
0
LWPOLYLINE
5
33
330
1C
100
AcDbEntity
67
0
8
0
62
256
6
ByLayer
370
-1
48
1.0
60
0
100
AcDbPolyline
90
121
70
1
38
0.0
39
0.0
10
75.8425979614258
20
75.9869995117188
40
0.0
41
0.0
42
0.0
10
75.9235992431641
20
75.881103515625
40
0.0
41
0.0
42
0.0
10
75.9909973144531
20
75.7835006713867
40
0.0
41
0.0
42
0.0
10
76.0186996459961
20
75.7834014892578
40
0.0
41
0.0
42
0.0
10
76.5
20
75.8401031494141
40
0.0
41
0.0
42
0.0
10
76.6162033081055
20
75.825798034668
40
0.0
41
0.0
42
0.0
10
76.6467971801758
20
75.825798034668
40
0.0
41
0.0
42
0.0
10
76.7904968261719
20
75.9565963745117
40
0.0
41
0.0
42
0.0
10
76.8849029541016
20
75.9989013671875
40
0.0
41
0.0
42
0.0
10
77.0123977661133
20
76.0634002685547
40
0.0
41
0.0
42
0.0
10
77.1613006591797
20
76.1033020019531
40
0.0
41
0.0
42
0.0
10
77.5110015869141
20
76.2274017333984
40
0.0
41
0.0
42
0.0
10
77.7194976806641
20
76.3518981933594
40
0.0
41
0.0
42
0.0
10
77.7667999267578
20
76.3641967773438
40
0.0
41
0.0
42
0.0
10
77.945198059082
20
76.4969024658203
40
0.0
41
0.0
42
0.0
10
78.0073013305664
20
76.5407028198242
40
0.0
41
0.0
42
0.0
10
78.4023971557617
20
76.8601989746094
40
0.0
41
0.0
42
0.0
10
78.5034027099609
20
76.9742965698242
40
0.0
41
0.0
42
0.0
10
78.5551986694336
20
77.0488967895508
40
0.0
41
0.0
42
0.0
10
78.8315963745117
20
77.3572998046875
40
0.0
41
0.0
42
0.0
10
78.9066009521484
20
77.4906005859375
40
0.0
41
0.0
42
0.0
10
78.9931030273438
20
77.6317977905273
40
0.0
41
0.0
42
0.0
10
78.9998016357422
20
77.6564025878906
40
0.0
41
0.0
42
0.0
10
79.0324020385742
20
77.7502975463867
40
0.0
41
0.0
42
0.0
10
79.2218017578125
20
77.9872970581055
40
0.0
41
0.0
42
0.0
10
79.2217025756836
20
78.0177993774414
40
0.0
41
0.0
42
0.0
10
79.2076034545898
20
78.0885009765625
40
0.0
41
0.0
42
0.0
10
79.4162979125977
20
78.4041976928711
40
0.0
41
0.0
42
0.0
10
79.5058975219727
20
78.4880981445312
40
0.0
41
0.0
42
0.0
10
79.5391006469727
20
78.5168991088867
40
0.0
41
0.0
42
0.0
10
80.0090026855469
20
78.9737014770508
40
0.0
41
0.0
42
0.0
10
80.0851974487305
20
78.9962997436523
40
0.0
41
0.0
42
0.0
10
80.1082992553711
20
79.0003967285156
40
0.0
41
0.0
42
0.0
10
80.4973983764648
20
79.1045989990234
40
0.0
41
0.0
42
0.0
10
80.5622024536133
20
79.0792999267578
40
0.0
41
0.0
42
0.0
10
80.5963973999023
20
79.0792007446289
40
0.0
41
0.0
42
0.0
10
80.9973983764648
20
79.1502990722656
40
0.0
41
0.0
42
0.0
10
81.0774993896484
20
79.1307983398438
40
0.0
41
0.0
42
0.0
10
81.1136016845703
20
79.1306991577148
40
0.0
41
0.0
42
0.0
10
81.5167999267578
20
79.1838989257812
40
0.0
41
0.0
42
0.0
10
81.9051971435547
20
79.2507019042969
40
0.0
41
0.0
42
0.0
10
81.9816970825195
20
79.2379989624023
40
0.0
41
0.0
42
0.0
10
82.0162963867188
20
79.2378997802734
40
0.0
41
0.0
42
0.0
10
82.394401550293
20
79.3752975463867
40
0.0
41
0.0
42
0.0
10
82.4809036254883
20
79.3671035766602
40
0.0
41
0.0
42
0.0
10
82.5192031860352
20
79.3669967651367
40
0.0
41
0.0
42
0.0
10
82.6477966308594
20
79.3760986328125
40
0.0
41
0.0
42
0.0
10
82.7459030151367
20
79.4428024291992
40
0.0
41
0.0
42
0.0
10
82.8198013305664
20
79.4956970214844
40
0.0
41
0.0
42
0.0
10
83.0028991699219
20
79.6978988647461
40
0.0
41
0.0
42
0.0
10
83.0362014770508
20
79.7554016113281
40
0.0
41
0.0
42
0.0
10
83.1548004150391
20
79.8592987060547
40
0.0
41
0.0
42
0.0
10
83.2525024414062
20
79.9899978637695
40
0.0
41
0.0
42
0.0
10
83.3851013183594
20
80.355598449707
40
0.0
41
0.0
42
0.0
10
83.4303970336914
20
80.4850997924805
40
0.0
41
0.0
42
0.0
10
83.5106964111328
20
80.9932022094727
40
0.0
41
0.0
42
0.0
10
83.4994964599609
20
81.5179977416992
40
0.0
41
0.0
42
0.0
10
83.4257965087891
20
81.8548965454102
40
0.0
41
0.0
42
0.0
10
83.3639984130859
20
82.0084991455078
40
0.0
41
0.0
42
0.0
10
83.0212020874023
20
82.3766021728516
40
0.0
41
0.0
42
0.0
10
83.006103515625
20
82.3947982788086
40
0.0
41
0.0
42
0.0
10
82.8253021240234
20
82.5005035400391
40
0.0
41
0.0
42
0.0
10
82.5167999267578
20
82.5936965942383
40
0.0
41
0.0
42
0.0
10
82.4232025146484
20
82.5936965942383
40
0.0
41
0.0
42
0.0
10
82.1532974243164
20
82.6417007446289
40
0.0
41
0.0
42
0.0
10
82.0178985595703
20
82.6686019897461
40
0.0
41
0.0
42
0.0
10
81.9813995361328
20
82.6685028076172
40
0.0
41
0.0
42
0.0
10
81.8503036499023
20
82.6502990722656
40
0.0
41
0.0
42
0.0
10
81.4837036132812
20
82.6555023193359
40
0.0
41
0.0
42
0.0
10
81.3508987426758
20
82.6047973632812
40
0.0
41
0.0
42
0.0
10
80.9894027709961
20
82.529899597168
40
0.0
41
0.0
42
0.0
10
80.9573974609375
20
82.5034027099609
40
0.0
41
0.0
42
0.0
10
80.9102020263672
20
82.4686965942383
40
0.0
41
0.0
42
0.0
10
80.8619995117188
20
82.3778991699219
40
0.0
41
0.0
42
0.0
10
80.497200012207
20
82.1848983764648
40
0.0
41
0.0
42
0.0
10
80.4880981445312
20
82.1578979492188
40
0.0
41
0.0
42
0.0
10
80.3320999145508
20
82.0068969726562
40
0.0
41
0.0
42
0.0
10
80.0992965698242
20
81.6081008911133
40
0.0
41
0.0
42
0.0
10
80.0876998901367
20
81.5184020996094
40
0.0
41
0.0
42
0.0
10
80.0857009887695
20
81.4209976196289
40
0.0
41
0.0
42
0.0
10
80.0706024169922
20
81.3800964355469
40
0.0
41
0.0
42
0.0
10
80.0001983642578
20
81.1076965332031
40
0.0
41
0.0
42
0.0
10
79.9733963012695
20
81.0146026611328
40
0.0
41
0.0
42
0.0
10
79.9487991333008
20
80.9123992919922
40
0.0
41
0.0
42
0.0
10
79.8762969970703
20
80.5149993896484
40
0.0
41
0.0
42
0.0
10
79.8015975952148
20
80.2677001953125
40
0.0
41
0.0
42
0.0
10
79.7666015625
20
80.0141983032227
40
0.0
41
0.0
42
0.0
10
79.5884017944336
20
79.6033020019531
40
0.0
41
0.0
42
0.0
10
79.5901031494141
20
79.5123977661133
40
0.0
41
0.0
42
0.0
10
79.4951019287109
20
79.3537979125977
40
0.0
41
0.0
42
0.0
10
79.154296875
20
79.1649017333984
40
0.0
41
0.0
42
0.0
10
78.9931030273438
20
79.0231018066406
40
0.0
41
0.0
42
0.0
10
78.9636001586914
20
79.0018005371094
40
0.0
41
0.0
42
0.0
10
78.9271011352539
20
78.9842987060547
40
0.0
41
0.0
42
0.0
10
78.5877990722656
20
78.8040008544922
40
0.0
41
0.0
42
0.0
10
78.5183029174805
20
78.8150024414062
40
0.0
41
0.0
42
0.0
10
78.4822006225586
20
78.8149032592773
40
0.0
41
0.0
42
0.0
10
78.3900985717773
20
78.7954025268555
40
0.0
41
0.0
42
0.0
10
77.9879989624023
20
78.5813980102539
40
0.0
41
0.0
42
0.0
10
77.8776016235352
20
78.5026016235352
40
0.0
41
0.0
42
0.0
10
77.5952987670898
20
78.3209991455078
40
0.0
41
0.0
42
0.0
10
77.4891967773438
20
78.2791976928711
40
0.0
41
0.0
42
0.0
10
77.3573989868164
20
78.2016983032227
40
0.0
41
0.0
42
0.0
10
77.1352005004883
20
78.0044021606445
40
0.0
41
0.0
42
0.0
10
76.9907989501953
20
77.872200012207
40
0.0
41
0.0
42
0.0
10
76.9810028076172
20
77.8690032958984
40
0.0
41
0.0
42
0.0
10
76.7979965209961
20
77.6402969360352
40
0.0
41
0.0
42
0.0
10
76.6772994995117
20
77.5374984741211
40
0.0
41
0.0
42
0.0
10
76.6679000854492
20
77.5085983276367
40
0.0
41
0.0
42
0.0
10
76.4927978515625
20
77.2452011108398
40
0.0
41
0.0
42
0.0
10
76.3430023193359
20
77.2593002319336
40
0.0
41
0.0
42
0.0
10
76.3249969482422
20
77.2593994140625
40
0.0
41
0.0
42
0.0
10
76.3249969482422
20
77.2444000244141
40
0.0
41
0.0
42
0.0
10
76.3862991333008
20
77.0970993041992
40
0.0
41
0.0
42
0.0
10
76.3341979980469
20
77.0102996826172
40
0.0
41
0.0
42
0.0
10
76.1723022460938
20
76.6485977172852
40
0.0
41
0.0
42
0.0
10
76.1458969116211
20
76.5114974975586
40
0.0
41
0.0
42
0.0
10
75.9977035522461
20
76.3030014038086
40
0.0
41
0.0
42
0.0
10
75.9251022338867
20
76.1717987060547
40
0.0
41
0.0
42
0.0
10
75.8426971435547
20
76.0148010253906
40
0.0
41
0.0
42
0.0
10
75.8425979614258
20
75.9869995117188
40
0.0
41
0.0
42
0.0
210
0.0
220
0.0
230
1.0
0
LWPOLYLINE
5
34
330
1C
100
AcDbEntity
67
0
8
0
62
256
6
ByLayer
370
-1
48
1.0
60
0
100
AcDbPolyline
90
57
70
1
38
0.0
39
0.0
10
76.0020980834961
20
76.2639007568359
40
0.0
41
0.0
42
0.0
10
76.1615982055664
20
76.4884033203125
40
0.0
41
0.0
42
0.0
10
76.1796035766602
20
76.581298828125
40
0.0
41
0.0
42
0.0
10
76.3622970581055
20
76.9897003173828
40
0.0
41
0.0
42
0.0
10
76.4235992431641
20
77.0914993286133
40
0.0
41
0.0
42
0.0
10
76.4235000610352
20
77.1213989257812
40
0.0
41
0.0
42
0.0
10
76.3824005126953
20
77.2203979492188
40
0.0
41
0.0
42
0.0
10
76.4809036254883
20
77.2110977172852
40
0.0
41
0.0
42
0.0
10
76.5086975097656
20
77.2111968994141
40
0.0
41
0.0
42
0.0
10
76.6933975219727
20
77.4889984130859
40
0.0
41
0.0
42
0.0
10
76.7006988525391
20
77.5129013061523
40
0.0
41
0.0
42
0.0
10
76.7908020019531
20
77.589599609375
40
0.0
41
0.0
42
0.0
10
76.9994964599609
20
77.8504028320312
40
0.0
41
0.0
42
0.0
10
77.0092010498047
20
77.8535995483398
40
0.0
41
0.0
42
0.0
10
77.1642990112305
20
77.9955978393555
40
0.0
41
0.0
42
0.0
10
77.4124984741211
20
78.2160034179688
40
0.0
41
0.0
42
0.0
10
77.5106964111328
20
78.2736968994141
40
0.0
41
0.0
42
0.0
10
77.6035003662109
20
78.310302734375
40
0.0
41
0.0
42
0.0
10
77.6404037475586
20
78.3280029296875
40
0.0
41
0.0
42
0.0
10
77.9038009643555
20
78.4972991943359
40
0.0
41
0.0
42
0.0
10
78.0046005249023
20
78.5692977905273
40
0.0
41
0.0
42
0.0
10
78.377799987793
20
78.7677001953125
40
0.0
41
0.0
42
0.0
10
78.5020980834961
20
78.7931976318359
40
0.0
41
0.0
42
0.0
10
78.6166000366211
20
78.7751998901367
40
0.0
41
0.0
42
0.0
10
78.6496963500977
20
78.7751007080078
40
0.0
41
0.0
42
0.0
10
78.9975967407227
20
78.9599990844727
40
0.0
41
0.0
42
0.0
10
79.4506988525391
20
78.4996032714844
40
0.0
41
0.0
42
0.0
10
79.3718032836914
20
78.4256973266602
40
0.0
41
0.0
42
0.0
10
79.1886978149414
20
78.1485977172852
40
0.0
41
0.0
42
0.0
10
79.1884994506836
20
78.1169967651367
40
0.0
41
0.0
42
0.0
10
79.2107009887695
20
78.0065002441406
40
0.0
41
0.0
42
0.0
10
79.0355987548828
20
77.7872009277344
40
0.0
41
0.0
42
0.0
10
79.0260009765625
20
77.7660980224609
40
0.0
41
0.0
42
0.0
10
79.0
20
77.6915969848633
40
0.0
41
0.0
42
0.0
10
78.9942016601562
20
77.6705017089844
40
0.0
41
0.0
42
0.0
10
78.8955001831055
20
77.5093002319336
40
0.0
41
0.0
42
0.0
10
78.8411026000977
20
77.41259765625
40
0.0
41
0.0
42
0.0
10
78.5328979492188
20
77.0689010620117
40
0.0
41
0.0
42
0.0
10
78.4964981079102
20
77.0161972045898
40
0.0
41
0.0
42
0.0
10
78.4031982421875
20
76.9096984863281
40
0.0
41
0.0
42
0.0
10
77.9925994873047
20
76.5768966674805
40
0.0
41
0.0
42
0.0
10
77.8874969482422
20
76.5028991699219
40
0.0
41
0.0
42
0.0
10
77.7567977905273
20
76.4056015014648
40
0.0
41
0.0
42
0.0
10
77.7217025756836
20
76.3964996337891
40
0.0
41
0.0
42
0.0
10
77.488899230957
20
76.257698059082
40
0.0
41
0.0
42
0.0
10
77.0899963378906
20
76.1159973144531
40
0.0
41
0.0
42
0.0
10
76.9875030517578
20
76.0885009765625
40
0.0
41
0.0
42
0.0
10
76.8145980834961
20
76.0009994506836
40
0.0
41
0.0
42
0.0
10
76.6902008056641
20
75.9452972412109
40
0.0
41
0.0
42
0.0
10
76.586799621582
20
75.8509979248047
40
0.0
41
0.0
42
0.0
10
76.5186996459961
20
75.8594970703125
40
0.0
41
0.0
42
0.0
10
76.481201171875
20
75.8593978881836
40
0.0
41
0.0
42
0.0
10
76.0067977905273
20
75.8037033081055
40
0.0
41
0.0
42
0.0
10
75.9512023925781
20
75.8843002319336
40
0.0
41
0.0
42
0.0
10
75.8616027832031
20
76.0016021728516
40
0.0
41
0.0
42
0.0
10
75.9498977661133
20
76.1694030761719
40
0.0
41
0.0
42
0.0
10
76.0020980834961
20
76.2639007568359
40
0.0
41
0.0
42
0.0
210
0.0
220
0.0
230
1.0
0
LWPOLYLINE
5
35
330
1C
100
AcDbEntity
67
0
8
0
62
256
6
ByLayer
370
-1
48
1.0
60
0
100
AcDbPolyline
90
5
70
1
38
0.0
39
0.0
10
78.999397277832
20
70.2574005126953
40
0.0
41
0.0
42
0.0
10
78.7932968139648
20
70.4998016357422
40
0.0
41
0.0
42
0.0
10
78.9992980957031
20
70.7321014404297
40
0.0
41
0.0
42
0.0
10
79.1284027099609
20
70.4998016357422
40
0.0
41
0.0
42
0.0
10
78.999397277832
20
70.2574005126953
40
0.0
41
0.0
42
0.0
210
0.0
220
0.0
230
1.0
0
LWPOLYLINE
5
36
330
1C
100
AcDbEntity
67
0
8
0
62
256
6
ByLayer
370
-1
48
1.0
60
0
100
AcDbPolyline
90
59
70
1
38
0.0
39
0.0
10
79.5129013061523
20
70.2818984985352
40
0.0
41
0.0
42
0.0
10
79.6988983154297
20
70.2874984741211
40
0.0
41
0.0
42
0.0
10
79.9857025146484
20
70.163200378418
40
0.0
41
0.0
42
0.0
10
80.3427963256836
20
70.1140975952148
40
0.0
41
0.0
42
0.0
10
80.4849014282227
20
70.0710983276367
40
0.0
41
0.0
42
0.0
10
80.9616012573242
20
69.9850997924805
40
0.0
41
0.0
42
0.0
10
80.9859008789062
20
69.9850006103516
40
0.0
41
0.0
42
0.0
10
81.3163986206055
20
69.8994979858398
40
0.0
41
0.0
42
0.0
10
81.3487014770508
20
69.8876037597656
40
0.0
41
0.0
42
0.0
10
81.4858016967773
20
69.8843994140625
40
0.0
41
0.0
42
0.0
10
81.8517990112305
20
69.6709976196289
40
0.0
41
0.0
42
0.0
10
81.9898986816406
20
69.6531982421875
40
0.0
41
0.0
42
0.0
10
82.1260986328125
20
69.5123977661133
40
0.0
41
0.0
42
0.0
10
82.1719970703125
20
69.497200012207
40
0.0
41
0.0
42
0.0
10
82.368896484375
20
69.1250991821289
40
0.0
41
0.0
42
0.0
10
82.3889007568359
20
69.0905990600586
40
0.0
41
0.0
42
0.0
10
82.4525985717773
20
69.0566024780273
40
0.0
41
0.0
42
0.0
10
82.5031967163086
20
68.9887008666992
40
0.0
41
0.0
42
0.0
10
82.5876007080078
20
68.5808029174805
40
0.0
41
0.0
42
0.0
10
82.6240005493164
20
68.4852981567383
40
0.0
41
0.0
42
0.0
10
82.6183013916016
20
68.076301574707
40
0.0
41
0.0
42
0.0
10
82.6285018920898
20
68.0030975341797
40
0.0
41
0.0
42
0.0
10
82.600700378418
20
67.8626022338867
40
0.0
41
0.0
42
0.0
10
82.5477981567383
20
67.5651016235352
40
0.0
41
0.0
42
0.0
10
82.5477981567383
20
67.5167999267578
40
0.0
41
0.0
42
0.0
10
82.4992980957031
20
67.3556976318359
40
0.0
41
0.0
42
0.0
10
82.2949981689453
20
67.0062026977539
40
0.0
41
0.0
42
0.0
10
82.2546997070312
20
66.9725036621094
40
0.0
41
0.0
42
0.0
10
81.9914016723633
20
66.7273025512695
40
0.0
41
0.0
42
0.0
10
81.7263031005859
20
66.6206970214844
40
0.0
41
0.0
42
0.0
10
81.4830017089844
20
66.5675964355469
40
0.0
41
0.0
42
0.0
10
81.3337020874023
20
66.5567016601562
40
0.0
41
0.0
42
0.0
10
81.0134963989258
20
66.5502014160156
40
0.0
41
0.0
42
0.0
10
80.8878021240234
20
66.5670013427734
40
0.0
41
0.0
42
0.0
10
80.5148010253906
20
66.6259002685547
40
0.0
41
0.0
42
0.0
10
80.2723007202148
20
66.7106018066406
40
0.0
41
0.0
42
0.0
10
80.0087966918945
20
66.8060989379883
40
0.0
41
0.0
42
0.0
10
79.8397979736328
20
66.9613037109375
40
0.0
41
0.0
42
0.0
10
79.7684020996094
20
67.0028991699219
40
0.0
41
0.0
42
0.0
10
79.5040969848633
20
67.2418975830078
40
0.0
41
0.0
42
0.0
10
79.4337005615234
20
67.3403015136719
40
0.0
41
0.0
42
0.0
10
79.3809967041016
20
67.4178009033203
40
0.0
41
0.0
42
0.0
10
79.3755035400391
20
67.4972991943359
40
0.0
41
0.0
42
0.0
10
79.3831024169922
20
67.5758972167969
40
0.0
41
0.0
42
0.0
10
79.3830032348633
20
67.6136016845703
40
0.0
41
0.0
42
0.0
10
79.378303527832
20
67.64990234375
40
0.0
41
0.0
42
0.0
10
79.2491989135742
20
68.0054016113281
40
0.0
41
0.0
42
0.0
10
79.2678985595703
20
68.11669921875
40
0.0
41
0.0
42
0.0
10
79.2677993774414
20
68.1530990600586
40
0.0
41
0.0
42
0.0
10
79.2052993774414
20
68.5167999267578
40
0.0
41
0.0
42
0.0
10
79.1600036621094
20
68.8600997924805
40
0.0
41
0.0
42
0.0
10
79.1900024414062
20
68.9824981689453
40
0.0
41
0.0
42
0.0
10
79.1899032592773
20
69.0180969238281
40
0.0
41
0.0
42
0.0
10
79.1276016235352
20
69.3699035644531
40
0.0
41
0.0
42
0.0
10
79.173698425293
20
69.4873962402344
40
0.0
41
0.0
42
0.0
10
79.2750015258789
20
69.7598037719727
40
0.0
41
0.0
42
0.0
10
79.2750015258789
20
69.7891006469727
40
0.0
41
0.0
42
0.0
10
79.1191024780273
20
69.9984970092773
40
0.0
41
0.0
42
0.0
10
79.5129013061523
20
70.2818984985352
40
0.0
41
0.0
42
0.0
210
0.0
220
0.0
230
1.0
0
LWPOLYLINE
5
37
330
1C
100
AcDbEntity
67
0
8
0
62
256
6
ByLayer
370
-1
48
1.0
60
0
100
AcDbPolyline
90
65
70
1
38
0.0
39
0.0
10
79.5047988891602
20
79.131103515625
40
0.0
41
0.0
42
0.0
10
79.7175979614258
20
79.4854965209961
40
0.0
41
0.0
42
0.0
10
79.7121963500977
20
79.6989974975586
40
0.0
41
0.0
42
0.0
10
79.8365020751953
20
79.9857025146484
40
0.0
41
0.0
42
0.0
10
79.8855972290039
20
80.342903137207
40
0.0
41
0.0
42
0.0
10
79.928596496582
20
80.4849014282227
40
0.0
41
0.0
42
0.0
10
80.0148010253906
20
80.9616012573242
40
0.0
41
0.0
42
0.0
10
80.0147018432617
20
80.9859008789062
40
0.0
41
0.0
42
0.0
10
80.1001968383789
20
81.3163986206055
40
0.0
41
0.0
42
0.0
10
80.1120986938477
20
81.3487014770508
40
0.0
41
0.0
42
0.0
10
80.1150970458984
20
81.4814987182617
40
0.0
41
0.0
42
0.0
10
80.1332015991211
20
81.6219024658203
40
0.0
41
0.0
42
0.0
10
80.3498001098633
20
81.9929962158203
40
0.0
41
0.0
42
0.0
10
80.4872970581055
20
82.1261978149414
40
0.0
41
0.0
42
0.0
10
80.5027008056641
20
82.1720962524414
40
0.0
41
0.0
42
0.0
10
80.8748016357422
20
82.368896484375
40
0.0
41
0.0
42
0.0
10
80.9092025756836
20
82.3889007568359
40
0.0
41
0.0
42
0.0
10
80.9430999755859
20
82.4526977539062
40
0.0
41
0.0
42
0.0
10
81.0111999511719
20
82.5031967163086
40
0.0
41
0.0
42
0.0
10
81.4189987182617
20
82.5876998901367
40
0.0
41
0.0
42
0.0
10
81.5146026611328
20
82.6240005493164
40
0.0
41
0.0
42
0.0
10
81.9235992431641
20
82.6183013916016
40
0.0
41
0.0
42
0.0
10
81.9968032836914
20
82.6285018920898
40
0.0
41
0.0
42
0.0
10
82.1371994018555
20
82.600700378418
40
0.0
41
0.0
42
0.0
10
82.434700012207
20
82.5477981567383
40
0.0
41
0.0
42
0.0
10
82.4831008911133
20
82.5477981567383
40
0.0
41
0.0
42
0.0
10
82.6440963745117
20
82.4992980957031
40
0.0
41
0.0
42
0.0
10
82.9936981201172
20
82.2949981689453
40
0.0
41
0.0
42
0.0
10
83.0272979736328
20
82.2546005249023
40
0.0
41
0.0
42
0.0
10
83.2723999023438
20
81.9914016723633
40
0.0
41
0.0
42
0.0
10
83.3789978027344
20
81.7261962890625
40
0.0
41
0.0
42
0.0
10
83.4320983886719
20
81.4830017089844
40
0.0
41
0.0
42
0.0
10
83.443000793457
20
81.3337020874023
40
0.0
41
0.0
42
0.0
10
83.4495010375977
20
81.0134963989258
40
0.0
41
0.0
42
0.0
10
83.4328002929688
20
80.8878021240234
40
0.0
41
0.0
42
0.0
10
83.3738021850586
20
80.5148010253906
40
0.0
41
0.0
42
0.0
10
83.2891006469727
20
80.2723007202148
40
0.0
41
0.0
42
0.0
10
83.1940002441406
20
80.0099029541016
40
0.0
41
0.0
42
0.0
10
83.1196975708008
20
79.9105987548828
40
0.0
41
0.0
42
0.0
10
83.0379028320312
20
79.8387985229492
40
0.0
41
0.0
42
0.0
10
82.9970016479492
20
79.7684020996094
40
0.0
41
0.0
42
0.0
10
82.7577972412109
20
79.5042037963867
40
0.0
41
0.0
42
0.0
10
82.6595001220703
20
79.4337005615234
40
0.0
41
0.0
42
0.0
10
82.5820999145508
20
79.3809967041016
40
0.0
41
0.0
42
0.0
10
82.5025024414062
20
79.3755035400391
40
0.0
41
0.0
42
0.0
10
82.4240036010742
20
79.3831024169922
40
0.0
41
0.0
42
0.0
10
82.3862991333008
20
79.3830032348633
40
0.0
41
0.0
42
0.0
10
82.3499984741211
20
79.378303527832
40
0.0
41
0.0
42
0.0
10
81.994499206543
20
79.2491989135742
40
0.0
41
0.0
42
0.0
10
81.8832015991211
20
79.2678985595703
40
0.0
41
0.0
42
0.0
10
81.8468017578125
20
79.2678985595703
40
0.0
41
0.0
42
0.0
10
81.4831008911133
20
79.2052993774414
40
0.0
41
0.0
42
0.0
10
81.1398010253906
20
79.1600036621094
40
0.0
41
0.0
42
0.0
10
81.0174026489258
20
79.1900024414062
40
0.0
41
0.0
42
0.0
10
80.9817962646484
20
79.1899032592773
40
0.0
41
0.0
42
0.0
10
80.6298980712891
20
79.1276016235352
40
0.0
41
0.0
42
0.0
10
80.515998840332
20
79.1724014282227
40
0.0
41
0.0
42
0.0
10
80.4826965332031
20
79.1723022460938
40
0.0
41
0.0
42
0.0
10
80.0589981079102
20
79.0587997436523
40
0.0
41
0.0
42
0.0
10
80.011100769043
20
79.1084976196289
40
0.0
41
0.0
42
0.0
10
79.9844970703125
20
79.1083984375
40
0.0
41
0.0
42
0.0
10
79.7453994750977
20
79.0019989013672
40
0.0
41
0.0
42
0.0
10
79.5000991821289
20
78.7931976318359
40
0.0
41
0.0
42
0.0
10
79.2677001953125
20
78.9992980957031
40
0.0
41
0.0
42
0.0
10
79.5047988891602
20
79.131103515625
40
0.0
41
0.0
42
0.0
210
0.0
220
0.0
230
1.0
0
LWPOLYLINE
5
38
330
1C
100
AcDbEntity
67
0
8
0
62
256
6
ByLayer
370
-1
48
1.0
60
0
100
AcDbPolyline
90
43
70
1
38
0.0
39
0.0
10
82.5113983154297
20
65.0009994506836
40
0.0
41
0.0
42
0.0
10
82.530403137207
20
65.0836029052734
40
0.0
41
0.0
42
0.0
10
82.8112030029297
20
65.4924011230469
40
0.0
41
0.0
42
0.0
10
82.9065017700195
20
65.6136016845703
40
0.0
41
0.0
42
0.0
10
82.9064025878906
20
65.6451034545898
40
0.0
41
0.0
42
0.0
10
82.8968963623047
20
65.7285995483398
40
0.0
41
0.0
42
0.0
10
83.0123977661133
20
65.7285995483398
40
0.0
41
0.0
42
0.0
10
83.3348999023438
20
65.9969024658203
40
0.0
41
0.0
42
0.0
10
83.3973999023438
20
66.0370025634766
40
0.0
41
0.0
42
0.0
10
83.4078979492188
20
66.0804977416992
40
0.0
41
0.0
42
0.0
10
83.4809036254883
20
66.0742034912109
40
0.0
41
0.0
42
0.0
10
83.5146026611328
20
66.0740966796875
40
0.0
41
0.0
42
0.0
10
83.9003982543945
20
66.2839965820312
40
0.0
41
0.0
42
0.0
10
84.0147018432617
20
66.3089981079102
40
0.0
41
0.0
42
0.0
10
84.1474990844727
20
66.3481979370117
40
0.0
41
0.0
42
0.0
10
84.4742965698242
20
66.4991989135742
40
0.0
41
0.0
42
0.0
10
84.6466979980469
20
66.5665969848633
40
0.0
41
0.0
42
0.0
10
84.9990005493164
20
66.7331008911133
40
0.0
41
0.0
42
0.0
10
84.9990005493164
20
66.7542037963867
40
0.0
41
0.0
42
0.0
10
84.9847030639648
20
66.7542037963867
40
0.0
41
0.0
42
0.0
10
84.5831985473633
20
66.5644989013672
40
0.0
41
0.0
42
0.0
10
84.4878005981445
20
66.527702331543
40
0.0
41
0.0
42
0.0
10
84.4224014282227
20
66.5008010864258
40
0.0
41
0.0
42
0.0
10
84.2425003051758
20
66.415901184082
40
0.0
41
0.0
42
0.0
10
84.0823974609375
20
66.3424987792969
40
0.0
41
0.0
42
0.0
10
83.9851989746094
20
66.3136978149414
40
0.0
41
0.0
42
0.0
10
83.8907012939453
20
66.2931976318359
40
0.0
41
0.0
42
0.0
10
83.8535995483398
20
66.279899597168
40
0.0
41
0.0
42
0.0
10
83.4899978637695
20
66.0820999145508
40
0.0
41
0.0
42
0.0
10
83.3840026855469
20
66.0914993286133
40
0.0
41
0.0
42
0.0
10
83.361198425293
20
66.0914993286133
40
0.0
41
0.0
42
0.0
10
83.3494033813477
20
66.0456008911133
40
0.0
41
0.0
42
0.0
10
83.2828979492188
20
66.0029983520508
40
0.0
41
0.0
42
0.0
10
82.9876022338867
20
65.7574005126953
40
0.0
41
0.0
42
0.0
10
82.8531036376953
20
65.7567977905273
40
0.0
41
0.0
42
0.0
10
82.8529968261719
20
65.7388000488281
40
0.0
41
0.0
42
0.0
10
82.8664016723633
20
65.6225967407227
40
0.0
41
0.0
42
0.0
10
82.7760009765625
20
65.5074996948242
40
0.0
41
0.0
42
0.0
10
82.5278015136719
20
65.1464004516602
40
0.0
41
0.0
42
0.0
10
82.5003967285156
20
65.027099609375
40
0.0
41
0.0
42
0.0
10
82.4969024658203
20
65.0165023803711
40
0.0
41
0.0
42
0.0
10
82.4969024658203
20
65.0009994506836
40
0.0
41
0.0
42
0.0
10
82.5113983154297
20
65.0009994506836
40
0.0
41
0.0
42
0.0
210
0.0
220
0.0
230
1.0
0
LWPOLYLINE
5
39
330
1C
100
AcDbEntity
67
0
8
0
62
256
6
ByLayer
370
-1
48
1.0
60
0
100
AcDbPolyline
90
43
70
1
38
0.0
39
0.0
10
83.4354019165039
20
84.5831985473633
40
0.0
41
0.0
42
0.0
10
83.4720001220703
20
84.4877014160156
40
0.0
41
0.0
42
0.0
10
83.4990997314453
20
84.4224014282227
40
0.0
41
0.0
42
0.0
10
83.6572036743164
20
84.0823974609375
40
0.0
41
0.0
42
0.0
10
83.6850967407227
20
83.9879989624023
40
0.0
41
0.0
42
0.0
10
83.8934020996094
20
83.6052017211914
40
0.0
41
0.0
42
0.0
10
83.9179000854492
20
83.4927978515625
40
0.0
41
0.0
42
0.0
10
83.9084014892578
20
83.3840026855469
40
0.0
41
0.0
42
0.0
10
83.9083023071289
20
83.361198425293
40
0.0
41
0.0
42
0.0
10
83.9541015625
20
83.3494033813477
40
0.0
41
0.0
42
0.0
10
83.9969024658203
20
83.2828979492188
40
0.0
41
0.0
42
0.0
10
84.242301940918
20
82.9875030517578
40
0.0
41
0.0
42
0.0
10
84.2431030273438
20
82.8531036376953
40
0.0
41
0.0
42
0.0
10
84.261100769043
20
82.8529968261719
40
0.0
41
0.0
42
0.0
10
84.377197265625
20
82.8663024902344
40
0.0
41
0.0
42
0.0
10
84.4924011230469
20
82.7759017944336
40
0.0
41
0.0
42
0.0
10
84.8535003662109
20
82.527702331543
40
0.0
41
0.0
42
0.0
10
84.9727020263672
20
82.5003967285156
40
0.0
41
0.0
42
0.0
10
84.9833984375
20
82.4969024658203
40
0.0
41
0.0
42
0.0
10
84.9990005493164
20
82.4969024658203
40
0.0
41
0.0
42
0.0
10
84.9989013671875
20
82.5113983154297
40
0.0
41
0.0
42
0.0
10
84.9162979125977
20
82.5302963256836
40
0.0
41
0.0
42
0.0
10
84.5074996948242
20
82.8112030029297
40
0.0
41
0.0
42
0.0
10
84.3861999511719
20
82.9065017700195
40
0.0
41
0.0
42
0.0
10
84.3546981811523
20
82.9064025878906
40
0.0
41
0.0
42
0.0
10
84.2713012695312
20
82.8968963623047
40
0.0
41
0.0
42
0.0
10
84.2712020874023
20
83.0122985839844
40
0.0
41
0.0
42
0.0
10
84.0028991699219
20
83.3348999023438
40
0.0
41
0.0
42
0.0
10
83.9627990722656
20
83.3973007202148
40
0.0
41
0.0
42
0.0
10
83.9191970825195
20
83.4077987670898
40
0.0
41
0.0
42
0.0
10
83.9256973266602
20
83.4809036254883
40
0.0
41
0.0
42
0.0
10
83.9255981445312
20
83.5177001953125
40
0.0
41
0.0
42
0.0
10
83.9057998657227
20
83.6087036132812
40
0.0
41
0.0
42
0.0
10
83.8907012939453
20
83.6458969116211
40
0.0
41
0.0
42
0.0
10
83.6915969848633
20
84.0118026733398
40
0.0
41
0.0
42
0.0
10
83.651496887207
20
84.1474990844727
40
0.0
41
0.0
42
0.0
10
83.500602722168
20
84.4741973876953
40
0.0
41
0.0
42
0.0
10
83.4597015380859
20
84.575798034668
40
0.0
41
0.0
42
0.0
10
83.4331970214844
20
84.6467971801758
40
0.0
41
0.0
42
0.0
10
83.2667007446289
20
84.9990005493164
40
0.0
41
0.0
42
0.0
10
83.2456970214844
20
84.9990005493164
40
0.0
41
0.0
42
0.0
10
83.2454986572266
20
84.9845962524414
40
0.0
41
0.0
42
0.0
10
83.4354019165039
20
84.5831985473633
40
0.0
41
0.0
42
0.0
210
0.0
220
0.0
230
1.0
0
VIEWPORT
5
3E
330
3A
100
AcDbEntity
67
1
8
0
62
256
6
ByLayer
370
-1
48
1.0
60
0
100
AcDbViewport
10
0.0
20
0.0
30
0.0
40
297.0
41
210.0
68
1
69
1
12
50.0
22
100.0
13
0.0
23
0.0
14
10.0
24
10.0
15
10.0
25
10.0
16
0.0
26
0.0
36
1.0
17
0.0
27
0.0
37
0.0
42
50.0
43
0.0
44
0.0
45
250.0
50
0.0
51
0.0
72
1000
90
819232
110
0.0
120
0.0
130
0.0
111
1.0
121
0.0
131
0.0
112
0.0
122
1.0
132
0.0
0
ENDSEC
0
SECTION
2
OBJECTS
0
DICTIONARY
5
44
330
0
100
AcDbDictionary
280
1
281
1
3
ACAD_GROUP
350
12
3
ACAD_LAYOUT
350
3D
3
ACAD_DGNDEFINITIONS
350
F
3
ACAD_DWFDEFINITIONS
350
10
3
ACAD_PDFDEFINITIONS
350
11
3
ACAD_MLINESTYLE
350
B
3
ACAD_IMAGE_DICT
350
E
3
ACAD_IMAGE_VARS
350
21
0
DICTIONARY
5
12
330
44
100
AcDbDictionary
280
1
281
1
0
DICTIONARY
5
3D
330
44
100
AcDbDictionary
280
1
281
1
3
Model
350
20
3
Layout1
350
3F
0
DICTIONARY
5
F
330
44
100
AcDbDictionary
280
1
281
1
0
DICTIONARY
5
10
330
44
100
AcDbDictionary
280
1
281
1
0
DICTIONARY
5
11
330
44
100
AcDbDictionary
280
1
281
1
0
DICTIONARY
5
B
330
44
100
AcDbDictionary
280
1
281
1
3
Standard
350
1B
0
DICTIONARY
5
E
330
44
100
AcDbDictionary
280
1
281
1
0
DICTIONARY
5
6
330
5
100
AcDbDictionary
280
1
281
1
3
ACAD_LAYERSTATES
360
45
0
DICTIONARY
5
45
330
6
100
AcDbDictionary
280
1
281
1
0
LAYOUT
5
20
330
3D
100
AcDbPlotSettings
1

2
none_device
4
ISO_A4_(210.00_x_297.00_MM)
6

40
7.5
41
20.0
42
7.5
43
20.0
44
210.0
45
297.0
46
0.0
47
0.0
48
0.0
49
0.0
140
0.0
141
0.0
142
1.0
143
1.0
70
11952
72
1
73
1
74
1
7

75
0
76
0
77
2
78
300
147
1.0
148
0.0
149
0.0
100
AcDbLayout
1
Model
71
0
10
-20.0
20
-7.5
11
277.0
21
202.5
12
0.0
22
0.0
32
0.0
14
25.7
24
19.5
34
0.0
15
231.3
25
175.5
35
0.0
146
0.0
13
0.0
23
0.0
33
0.0
16
1.0
26
0.0
36
0.0
17
0.0
27
1.0
37
0.0
76
0
330
1C
0
LAYOUT
5
3F
330
3D
100
AcDbPlotSettings
1

2
none_device
4
ISO_A4_(210.00_x_297.00_MM)
6

40
7.5
41
20.0
42
7.5
43
20.0
44
210.0
45
297.0
46
0.0
47
0.0
48
0.0
49
0.0
140
0.0
141
0.0
142
1.0
143
1.0
70
688
72
1
73
1
74
1
7

75
0
76
0
77
2
78
300
147
1.0
148
0.0
149
0.0
100
AcDbLayout
1
Layout1
71
1
10
-20.0
20
-7.5
11
277.0
21
202.5
12
0.0
22
0.0
32
0.0
14
25.7
24
19.5
34
0.0
15
231.3
25
175.5
35
0.0
146
0.0
13
0.0
23
0.0
33
0.0
16
1.0
26
0.0
36
0.0
17
0.0
27
1.0
37
0.0
76
0
330
3A
0
MLINESTYLE
5
1B
330
B
100
AcDbMlineStyle
2
Standard
70
0
3

62
256
51
90.0
52
90.0
71
2
49
0.5
62
256
6
ByLayer
49
-0.5
62
256
6
ByLayer
0
RASTERVARIABLES
5
21
330
E
100
AcDbRasterVariables
90
0
70
1
71
1
72
0
0
ENDSEC
0
EOF
