999
DXF file generated by netDxf https://github.com/haplokuon/netDxf, Copyright(C) Daniel Carvajal, Licensed under MIT
0
SECTION
2
HEADER
9
$ACADVER
1
AC1015
9
$DWGCODEPAGE
3
ANSI_1252
9
$HANDSEED
5
34
9
$ANGBASE
50
0.0
9
$ANGDIR
70
0
9
$ATTMODE
70
1
9
$AUNITS
70
0
9
$AUPREC
70
0
9
$CECOLOR
62
256
9
$CELTSCALE
40
1.0
9
$CELTYPE
6
ByLayer
9
$CELWEIGHT
370
-1
9
$CLAYER
8
0
9
$CMLJUST
70
0
9
$CMLSCALE
40
20.0
9
$CMLSTYLE
2
Standard
9
$DIMSTYLE
2
Standard
9
$TEXTSIZE
40
2.5
9
$TEXTSTYLE
7
Standard
9
$LUNITS
70
2
9
$LUPREC
70
4
9
$MIRRTEXT
70
0
9
$EXTNAMES
290
1
9
$INSBASE
10
0.0
20
0.0
30
0.0
9
$INSUNITS
70
0
9
$LTSCALE
40
1.0
9
$LWDISPLAY
290
0
9
$PDMODE
70
0
9
$PDSIZE
40
0.0
9
$PLINEGEN
70
0
9
$PSLTSCALE
70
1
9
$SPLINESEGS
70
8
9
$SURFU
70
6
9
$SURFV
70
6
9
$TDCREATE
40
2460823.48371655
9
$TDUCREATE
40
2460823.15038322
9
$TDUPDATE
40
2460823.48371655
9
$TDUUPDATE
40
2460823.15038322
9
$TDINDWG
40
0.0
9
$UCSORG
10
0.0
20
0.0
30
0.0
9
$UCSXDIR
10
1.0
20
0.0
30
0.0
9
$UCSYDIR
10
0.0
20
1.0
30
0.0
9
$DIMADEC
70
0
9
$DIMALT
70
0
9
$DIMALTD
70
2
9
$DIMALTF
40
25.4
9
$DIMALTRND
40
0.0
9
$DIMALTTD
70
2
9
$DIMALTTZ
70
0
9
$DIMALTU
70
2
9
$DIMALTZ
70
0
9
$DIMAPOST
1

9
$DIMATFIT
70
3
9
$DIMAUNIT
70
0
9
$DIMASZ
40
0.18
9
$DIMAZIN
70
0
9
$DIMSAH
70
0
9
$DIMBLK
1

9
$DIMLDRBLK
1

9
$DIMCEN
40
0.09
9
$DIMCLRD
70
0
9
$DIMCLRE
70
0
9
$DIMCLRT
70
0
9
$DIMDEC
70
4
9
$DIMDLE
40
0.0
9
$DIMDLI
40
0.38
9
$DIMDSEP
70
46
9
$DIMEXE
40
0.18
9
$DIMEXO
40
0.0625
9
$DIMFXLON
70
0
9
$DIMFXL
40
1.0
9
$DIMGAP
40
0.09
9
$DIMJUST
70
0
9
$DIMLFAC
40
1.0
9
$DIMLUNIT
70
2
9
$DIMLWD
70
-2
9
$DIMLWE
70
-2
9
$DIMPOST
1

9
$DIMRND
40
0.0
9
$DIMSCALE
40
1.0
9
$DIMSD1
70
0
9
$DIMSD2
70
0
9
$DIMSE1
70
0
9
$DIMSE2
70
0
9
$DIMSOXD
70
0
9
$DIMTAD
70
0
9
$DIMTDEC
70
4
9
$DIMTFAC
40
1.0
9
$DIMTIH
70
0
9
$DIMTIX
70
0
9
$DIMTM
40
0.0
9
$DIMTMOVE
70
0
9
$DIMTOFL
70
0
9
$DIMTOH
70
0
9
$DIMTOL
70
0
9
$DIMLIM
70
0
9
$DIMTOLJ
70
1
9
$DIMTP
40
0.0
9
$DIMTXT
40
0.18
9
$DIMTXTDIRECTION
70
0
9
$DIMTZIN
70
0
9
$DIMZIN
70
0
9
$DIMFRAC
70
0
9
$DIMLTYPE
6
ByBlock
9
$DIMLTEX1
6
ByBlock
9
$DIMLTEX2
6
ByBlock
0
ENDSEC
0
SECTION
2
CLASSES
0
CLASS
1
RASTERVARIABLES
2
AcDbRasterVariables
3
ISM
90
0
280
0
281
0
0
ENDSEC
0
SECTION
2
TABLES
0
TABLE
2
APPID
5
4
330
0
100
AcDbSymbolTable
70
5
0
APPID
5
19
330
4
100
AcDbSymbolTableRecord
100
AcDbRegAppTableRecord
2
ACAD
70
0
0
APPID
5
2E
330
4
100
AcDbSymbolTableRecord
100
AcDbRegAppTableRecord
2
AcCmTransparency
70
0
0
APPID
5
2F
330
4
100
AcDbSymbolTableRecord
100
AcDbRegAppTableRecord
2
AcAecLayerStandard
70
0
0
APPID
5
30
330
4
100
AcDbSymbolTableRecord
100
AcDbRegAppTableRecord
2
GradientColor1ACI
70
0
0
APPID
5
31
330
4
100
AcDbSymbolTableRecord
100
AcDbRegAppTableRecord
2
GradientColor2ACI
70
0
0
ENDTAB
0
TABLE
2
VPORT
5
1
330
0
100
AcDbSymbolTable
70
1
0
VPORT
5
2
330
1
100
AcDbSymbolTableRecord
100
AcDbViewportTableRecord
2
*Active
70
0
10
0.0
20
0.0
11
1.0
21
1.0
12
0.0
22
0.0
13
0.0
23
0.0
14
0.5
24
0.5
15
10.0
25
10.0
16
0.0
26
0.0
36
1.0
17
0.0
27
0.0
37
0.0
40
10.0
41
1.0
75
0
76
1
0
ENDTAB
0
TABLE
2
LTYPE
5
7
330
0
100
AcDbSymbolTable
70
3
0
LTYPE
5
15
330
7
100
AcDbSymbolTableRecord
100
AcDbLinetypeTableRecord
2
Continuous
70
0
3
Solid line
72
65
73
0
40
0.0
0
LTYPE
5
16
330
7
100
AcDbSymbolTableRecord
100
AcDbLinetypeTableRecord
2
ByLayer
70
0
3

72
65
73
0
40
0.0
0
LTYPE
5
17
330
7
100
AcDbSymbolTableRecord
100
AcDbLinetypeTableRecord
2
ByBlock
70
0
3

72
65
73
0
40
0.0
0
ENDTAB
0
TABLE
2
LAYER
5
5
102
{ACAD_XDICTIONARY
360
6
102
}
330
0
100
AcDbSymbolTable
70
1
0
LAYER
5
14
330
5
100
AcDbSymbolTableRecord
100
AcDbLayerTableRecord
2
0
70
0
62
7
6
Continuous
290
1
370
-3
390
0
0
ENDTAB
0
TABLE
2
STYLE
5
8
330
0
100
AcDbSymbolTable
70
1
0
STYLE
5
18
330
8
100
AcDbSymbolTableRecord
100
AcDbTextStyleTableRecord
2
Standard
3
simplex.shx
70
0
71
0
40
0.0
41
1.0
42
0.0
50
0.0
0
ENDTAB
0
TABLE
2
DIMSTYLE
5
A
330
0
100
AcDbSymbolTable
70
1
100
AcDbDimStyleTable
0
DIMSTYLE
105
1A
330
A
100
AcDbSymbolTableRecord
100
AcDbDimStyleTableRecord
2
Standard
3

4

40
1.0
41
0.18
42
0.0625
43
0.38
44
0.18
45
0.0
46
0.0
47
0.0
48
0.0
49
1.0
70
0
71
0
72
0
73
0
74
0
75
0
76
0
77
0
78
0
79
0
140
0.18
141
0.09
143
25.4
144
1.0
146
1.0
147
0.09
148
0.0
170
0
171
2
172
0
174
0
175
0
176
0
177
0
178
0
179
0
271
4
272
4
273
2
274
2
275
0
276
0
277
2
278
46
279
0
280
0
281
0
282
0
283
1
284
0
285
0
286
0
289
3
290
0
294
0
340
18
173
0
345
17
346
17
347
17
371
-2
372
-2
0
ENDTAB
0
TABLE
2
VIEW
5
3
330
0
100
AcDbSymbolTable
70
0
0
ENDTAB
0
TABLE
2
UCS
5
C
330
0
100
AcDbSymbolTable
70
0
0
ENDTAB
0
TABLE
2
BLOCK_RECORD
5
D
330
0
100
AcDbSymbolTable
70
2
0
BLOCK_RECORD
5
1C
330
D
100
AcDbSymbolTableRecord
100
AcDbBlockTableRecord
2
*Model_Space
340
20
0
BLOCK_RECORD
5
28
330
D
100
AcDbSymbolTableRecord
100
AcDbBlockTableRecord
2
*Paper_Space
340
2D
0
ENDTAB
0
ENDSEC
0
SECTION
2
BLOCKS
0
BLOCK
5
1E
330
1C
100
AcDbEntity
67
0
8
0
100
AcDbBlockBegin
2
*Model_Space
70
0
10
0.0
20
0.0
30
0.0
3
*Model_Space
4

0
ENDBLK
5
1D
330
1C
100
AcDbEntity
8
0
100
AcDbBlockEnd
0
BLOCK
5
2A
330
28
100
AcDbEntity
67
1
8
0
100
AcDbBlockBegin
2
*Paper_Space
70
0
10
0.0
20
0.0
30
0.0
3
*Paper_Space
4

0
ENDBLK
5
29
330
28
100
AcDbEntity
8
0
100
AcDbBlockEnd
0
ENDSEC
0
SECTION
2
ENTITIES
0
LWPOLYLINE
5
22
330
1C
100
AcDbEntity
67
0
8
0
62
256
6
ByLayer
370
-1
48
1.0
60
0
100
AcDbPolyline
90
23
70
1
38
0.0
39
0.0
10
65.0126037597656
20
65.125602722168
40
0.0
41
0.0
42
0.0
10
65.4770965576172
20
65.4953002929688
40
0.0
41
0.0
42
0.0
10
65.4927978515625
20
65.5128021240234
40
0.0
41
0.0
42
0.0
10
65.4866027832031
20
66.0432968139648
40
0.0
41
0.0
42
0.0
10
65.4811019897461
20
66.0811996459961
40
0.0
41
0.0
42
0.0
10
65.3852005004883
20
66.5158996582031
40
0.0
41
0.0
42
0.0
10
65.3740997314453
20
66.5802001953125
40
0.0
41
0.0
42
0.0
10
65.247802734375
20
67.0143966674805
40
0.0
41
0.0
42
0.0
10
65.2315979003906
20
67.0786972045898
40
0.0
41
0.0
42
0.0
10
65.0473022460938
20
67.5766983032227
40
0.0
41
0.0
42
0.0
10
65.0067977905273
20
67.6608963012695
40
0.0
41
0.0
42
0.0
10
65.0009994506836
20
67.6608963012695
40
0.0
41
0.0
42
0.0
10
65.0009002685547
20
67.611198425293
40
0.0
41
0.0
42
0.0
10
65.0479965209961
20
67.5130996704102
40
0.0
41
0.0
42
0.0
10
65.2339019775391
20
67.0114974975586
40
0.0
41
0.0
42
0.0
10
65.3788986206055
20
66.5095977783203
40
0.0
41
0.0
42
0.0
10
65.3834991455078
20
66.4832000732422
40
0.0
41
0.0
42
0.0
10
65.4823989868164
20
66.0343017578125
40
0.0
41
0.0
42
0.0
10
65.4879989624023
20
65.5764999389648
40
0.0
41
0.0
42
0.0
10
65.4241027832031
20
65.5046005249023
40
0.0
41
0.0
42
0.0
10
65.0009994506836
20
65.1679992675781
40
0.0
41
0.0
42
0.0
10
65.0009994506836
20
65.1257019042969
40
0.0
41
0.0
42
0.0
10
65.0126037597656
20
65.125602722168
40
0.0
41
0.0
42
0.0
210
0.0
220
0.0
230
1.0
0
LWPOLYLINE
5
23
330
1C
100
AcDbEntity
67
0
8
0
62
256
6
ByLayer
370
-1
48
1.0
60
0
100
AcDbPolyline
90
28
70
1
38
0.0
39
0.0
10
65.4952011108398
20
84.5225982666016
40
0.0
41
0.0
42
0.0
10
65.5128021240234
20
84.5070037841797
40
0.0
41
0.0
42
0.0
10
66.0175018310547
20
84.513298034668
40
0.0
41
0.0
42
0.0
10
66.4782028198242
20
84.6149978637695
40
0.0
41
0.0
42
0.0
10
66.5169982910156
20
84.6148986816406
40
0.0
41
0.0
42
0.0
10
66.9502029418945
20
84.7407989501953
40
0.0
41
0.0
42
0.0
10
67.0145034790039
20
84.7519989013672
40
0.0
41
0.0
42
0.0
10
67.4486999511719
20
84.9131011962891
40
0.0
41
0.0
42
0.0
10
67.513801574707
20
84.9296035766602
40
0.0
41
0.0
42
0.0
10
67.5767974853516
20
84.9524002075195
40
0.0
41
0.0
42
0.0
10
67.6608963012695
20
84.9931030273438
40
0.0
41
0.0
42
0.0
10
67.6608963012695
20
84.9990005493164
40
0.0
41
0.0
42
0.0
10
67.6112976074219
20
84.9989013671875
40
0.0
41
0.0
42
0.0
10
67.5130996704102
20
84.9515991210938
40
0.0
41
0.0
42
0.0
10
67.4860992431641
20
84.9419021606445
40
0.0
41
0.0
42
0.0
10
67.4611968994141
20
84.9356002807617
40
0.0
41
0.0
42
0.0
10
66.9853973388672
20
84.7591018676758
40
0.0
41
0.0
42
0.0
10
66.9597015380859
20
84.7546005249023
40
0.0
41
0.0
42
0.0
10
66.4832000732422
20
84.6162033081055
40
0.0
41
0.0
42
0.0
10
66.4554977416992
20
84.616096496582
40
0.0
41
0.0
42
0.0
10
66.4179992675781
20
84.6132965087891
40
0.0
41
0.0
42
0.0
10
65.9823989868164
20
84.5173034667969
40
0.0
41
0.0
42
0.0
10
65.5764999389648
20
84.5117034912109
40
0.0
41
0.0
42
0.0
10
65.5046005249023
20
84.5755996704102
40
0.0
41
0.0
42
0.0
10
65.1679992675781
20
84.9990005493164
40
0.0
41
0.0
42
0.0
10
65.1257019042969
20
84.9990005493164
40
0.0
41
0.0
42
0.0
10
65.125602722168
20
84.9872970581055
40
0.0
41
0.0
42
0.0
10
65.4952011108398
20
84.5225982666016
40
0.0
41
0.0
42
0.0
210
0.0
220
0.0
230
1.0
0
LWPOLYLINE
5
24
330
1C
100
AcDbEntity
67
0
8
0
62
256
6
ByLayer
370
-1
48
1.0
60
0
100
AcDbPolyline
90
778
70
1
38
0.0
39
0.0
10
65.3825988769531
20
75.9865036010742
40
0.0
41
0.0
42
0.0
10
65.4991989135742
20
75.7023010253906
40
0.0
41
0.0
42
0.0
10
65.5923004150391
20
75.4897994995117
40
0.0
41
0.0
42
0.0
10
65.8951034545898
20
75.0158004760742
40
0.0
41
0.0
42
0.0
10
65.9087982177734
20
74.9917984008789
40
0.0
41
0.0
42
0.0
10
65.9956970214844
20
74.8711013793945
40
0.0
41
0.0
42
0.0
10
66.3744964599609
20
74.5257034301758
40
0.0
41
0.0
42
0.0
10
66.39990234375
20
74.4916000366211
40
0.0
41
0.0
42
0.0
10
66.4151000976562
20
74.4663009643555
40
0.0
41
0.0
42
0.0
10
66.4919967651367
20
74.3843002319336
40
0.0
41
0.0
42
0.0
10
66.9269027709961
20
74.2128982543945
40
0.0
41
0.0
42
0.0
10
66.988899230957
20
74.1483993530273
40
0.0
41
0.0
42
0.0
10
67.1559982299805
20
74.1473007202148
40
0.0
41
0.0
42
0.0
10
67.5110015869141
20
74.244499206543
40
0.0
41
0.0
42
0.0
10
67.7617034912109
20
74.418098449707
40
0.0
41
0.0
42
0.0
10
67.8697967529297
20
74.4980010986328
40
0.0
41
0.0
42
0.0
10
68.0102996826172
20
74.5660018920898
40
0.0
41
0.0
42
0.0
10
68.0943984985352
20
74.6123962402344
40
0.0
41
0.0
42
0.0
10
68.5123977661133
20
74.8155975341797
40
0.0
41
0.0
42
0.0
10
68.8604965209961
20
74.915397644043
40
0.0
41
0.0
42
0.0
10
68.899299621582
20
74.9343032836914
40
0.0
41
0.0
42
0.0
10
68.9908981323242
20
74.967903137207
40
0.0
41
0.0
42
0.0
10
69.0112991333008
20
74.980598449707
40
0.0
41
0.0
42
0.0
10
69.1350021362305
20
75.0170974731445
40
0.0
41
0.0
42
0.0
10
69.4894027709961
20
75.0300979614258
40
0.0
41
0.0
42
0.0
10
69.9161987304688
20
74.9738998413086
40
0.0
41
0.0
42
0.0
10
69.9909973144531
20
74.9748001098633
40
0.0
41
0.0
42
0.0
10
70.005500793457
20
74.9802017211914
40
0.0
41
0.0
42
0.0
10
70.3160018920898
20
74.932502746582
40
0.0
41
0.0
42
0.0
10
70.4813995361328
20
74.9172973632812
40
0.0
41
0.0
42
0.0
10
70.8876037597656
20
74.8974990844727
40
0.0
41
0.0
42
0.0
10
71.0186004638672
20
74.89990234375
40
0.0
41
0.0
42
0.0
10
71.4151992797852
20
74.9443969726562
40
0.0
41
0.0
42
0.0
10
71.5161972045898
20
74.9580001831055
40
0.0
41
0.0
42
0.0
10
71.7023010253906
20
75.0003967285156
40
0.0
41
0.0
42
0.0
10
71.9917984008789
20
75.0597991943359
40
0.0
41
0.0
42
0.0
10
72.0165023803711
20
75.0623016357422
40
0.0
41
0.0
42
0.0
10
72.4887008666992
20
75.1482009887695
40
0.0
41
0.0
42
0.0
10
72.9570999145508
20
75.1417999267578
40
0.0
41
0.0
42
0.0
10
72.986198425293
20
75.1360015869141
40
0.0
41
0.0
42
0.0
10
73.0136032104492
20
75.1241989135742
40
0.0
41
0.0
42
0.0
10
73.2648010253906
20
75.0063018798828
40
0.0
41
0.0
42
0.0
10
73.4972991943359
20
74.8520965576172
40
0.0
41
0.0
42
0.0
10
73.6112976074219
20
74.5418014526367
40
0.0
41
0.0
42
0.0
10
73.6270980834961
20
74.5108032226562
40
0.0
41
0.0
42
0.0
10
73.5054016113281
20
74.353401184082
40
0.0
41
0.0
42
0.0
10
73.4946975708008
20
74.3358993530273
40
0.0
41
0.0
42
0.0
10
73.0149993896484
20
74.0979995727539
40
0.0
41
0.0
42
0.0
10
72.9891967773438
20
74.0829010009766
40
0.0
41
0.0
42
0.0
10
72.7892990112305
20
74.0046005249023
40
0.0
41
0.0
42
0.0
10
72.7835006713867
20
73.9749984741211
40
0.0
41
0.0
42
0.0
10
72.7434005737305
20
73.97509765625
40
0.0
41
0.0
42
0.0
10
72.4868011474609
20
73.8462982177734
40
0.0
41
0.0
42
0.0
10
71.9841003417969
20
73.7487030029297
40
0.0
41
0.0
42
0.0
10
71.5149002075195
20
73.6498031616211
40
0.0
41
0.0
42
0.0
10
71.4863967895508
20
73.6427001953125
40
0.0
41
0.0
42
0.0
10
71.1272964477539
20
73.5007019042969
40
0.0
41
0.0
42
0.0
10
71.0109024047852
20
73.4456024169922
40
0.0
41
0.0
42
0.0
10
70.9614028930664
20
73.4394989013672
40
0.0
41
0.0
42
0.0
10
70.4860992431641
20
73.1843032836914
40
0.0
41
0.0
42
0.0
10
70.4213027954102
20
73.178596496582
40
0.0
41
0.0
42
0.0
10
70.1091995239258
20
73.0019989013672
40
0.0
41
0.0
42
0.0
10
69.9873962402344
20
72.923698425293
40
0.0
41
0.0
42
0.0
10
69.8852005004883
20
72.910400390625
40
0.0
41
0.0
42
0.0
10
69.4871978759766
20
72.7556991577148
40
0.0
41
0.0
42
0.0
10
69.374397277832
20
72.7584991455078
40
0.0
41
0.0
42
0.0
10
69.0002975463867
20
72.7045974731445
40
0.0
41
0.0
42
0.0
10
68.8844985961914
20
72.7220001220703
40
0.0
41
0.0
42
0.0
10
68.5175018310547
20
72.7382965087891
40
0.0
41
0.0
42
0.0
10
68.3337020874023
20
72.7736968994141
40
0.0
41
0.0
42
0.0
10
68.0178985595703
20
72.8178024291992
40
0.0
41
0.0
42
0.0
10
67.8151016235352
20
72.8299026489258
40
0.0
41
0.0
42
0.0
10
67.5195999145508
20
72.8386001586914
40
0.0
41
0.0
42
0.0
10
67.486701965332
20
72.8385009765625
40
0.0
41
0.0
42
0.0
10
67.0723037719727
20
72.5393981933594
40
0.0
41
0.0
42
0.0
10
67.013298034668
20
72.5025024414062
40
0.0
41
0.0
42
0.0
10
66.9965972900391
20
72.4904022216797
40
0.0
41
0.0
42
0.0
10
66.9655990600586
20
72.4260025024414
40
0.0
41
0.0
42
0.0
10
66.7767028808594
20
72.0767974853516
40
0.0
41
0.0
42
0.0
10
66.7574996948242
20
72.0131988525391
40
0.0
41
0.0
42
0.0
10
66.5942001342773
20
71.5790023803711
40
0.0
41
0.0
42
0.0
10
66.5802001953125
20
71.5156021118164
40
0.0
41
0.0
42
0.0
10
66.500602722168
20
71.1126022338867
40
0.0
41
0.0
42
0.0
10
66.4954986572266
20
71.0821990966797
40
0.0
41
0.0
42
0.0
10
66.4889984130859
20
71.0186996459961
40
0.0
41
0.0
42
0.0
10
66.4795989990234
20
70.5849990844727
40
0.0
41
0.0
42
0.0
10
66.4820022583008
20
70.4825973510742
40
0.0
41
0.0
42
0.0
10
66.4872970581055
20
70.4601974487305
40
0.0
41
0.0
42
0.0
10
66.500602722168
20
70.3772964477539
40
0.0
41
0.0
42
0.0
10
66.5636978149414
20
70.0254974365234
40
0.0
41
0.0
42
0.0
10
66.5728988647461
20
69.9869003295898
40
0.0
41
0.0
42
0.0
10
66.7928009033203
20
69.5162963867188
40
0.0
41
0.0
42
0.0
10
66.8070983886719
20
69.492301940918
40
0.0
41
0.0
42
0.0
10
66.9941024780273
20
69.2802963256836
40
0.0
41
0.0
42
0.0
10
67.0177001953125
20
69.2634963989258
40
0.0
41
0.0
42
0.0
10
67.3358001708984
20
68.9988021850586
40
0.0
41
0.0
42
0.0
10
67.4894027709961
20
68.9077987670898
40
0.0
41
0.0
42
0.0
10
67.9863967895508
20
68.7020034790039
40
0.0
41
0.0
42
0.0
10
68.4602966308594
20
68.5887985229492
40
0.0
41
0.0
42
0.0
10
68.4837036132812
20
68.5820999145508
40
0.0
41
0.0
42
0.0
10
68.9578018188477
20
68.5440979003906
40
0.0
41
0.0
42
0.0
10
68.9820022583008
20
68.5393981933594
40
0.0
41
0.0
42
0.0
10
69.0186004638672
20
68.5392990112305
40
0.0
41
0.0
42
0.0
10
69.4460983276367
20
68.5963973999023
40
0.0
41
0.0
42
0.0
10
69.4813995361328
20
68.5914001464844
40
0.0
41
0.0
42
0.0
10
69.5136032104492
20
68.5914001464844
40
0.0
41
0.0
42
0.0
10
69.9394989013672
20
68.8795013427734
40
0.0
41
0.0
42
0.0
10
69.9829025268555
20
68.867301940918
40
0.0
41
0.0
42
0.0
10
70.0130004882812
20
68.8672027587891
40
0.0
41
0.0
42
0.0
10
70.1240005493164
20
68.9501037597656
40
0.0
41
0.0
42
0.0
10
70.1500015258789
20
68.9877014160156
40
0.0
41
0.0
42
0.0
10
70.1660003662109
20
69.1219024658203
40
0.0
41
0.0
42
0.0
10
70.2967987060547
20
69.4858016967773
40
0.0
41
0.0
42
0.0
10
70.3444976806641
20
69.7077026367188
40
0.0
41
0.0
42
0.0
10
70.4223022460938
20
69.9868011474609
40
0.0
41
0.0
42
0.0
10
70.5008010864258
20
70.1748962402344
40
0.0
41
0.0
42
0.0
10
70.5514984130859
20
70.2811965942383
40
0.0
41
0.0
42
0.0
10
70.6128005981445
20
70.4203033447266
40
0.0
41
0.0
42
0.0
10
70.6194000244141
20
70.4878005981445
40
0.0
41
0.0
42
0.0
10
70.9410018920898
20
70.9252014160156
40
0.0
41
0.0
42
0.0
10
70.9671020507812
20
70.9922027587891
40
0.0
41
0.0
42
0.0
10
71.0063018798828
20
71.0278015136719
40
0.0
41
0.0
42
0.0
10
71.2967987060547
20
71.2618026733398
40
0.0
41
0.0
42
0.0
10
71.4245986938477
20
71.3788986206055
40
0.0
41
0.0
42
0.0
10
71.505500793457
20
71.4649963378906
40
0.0
41
0.0
42
0.0
10
71.5412979125977
20
71.4951019287109
40
0.0
41
0.0
42
0.0
10
71.5507965087891
20
71.505500793457
40
0.0
41
0.0
42
0.0
10
71.5588989257812
20
71.5190963745117
40
0.0
41
0.0
42
0.0
10
71.9873962402344
20
71.8461990356445
40
0.0
41
0.0
42
0.0
10
72.0044021606445
20
71.8663024902344
40
0.0
41
0.0
42
0.0
10
72.1296005249023
20
71.9943008422852
40
0.0
41
0.0
42
0.0
10
72.4112014770508
20
72.3062973022461
40
0.0
41
0.0
42
0.0
10
72.5029983520508
20
72.418701171875
40
0.0
41
0.0
42
0.0
10
72.5511016845703
20
72.49169921875
40
0.0
41
0.0
42
0.0
10
72.7683029174805
20
72.8090972900391
40
0.0
41
0.0
42
0.0
10
72.8932037353516
20
72.9887008666992
40
0.0
41
0.0
42
0.0
10
72.8992004394531
20
73.0130996704102
40
0.0
41
0.0
42
0.0
10
72.9113998413086
20
73.0208969116211
40
0.0
41
0.0
42
0.0
10
72.9915008544922
20
73.1155014038086
40
0.0
41
0.0
42
0.0
10
73.0090026855469
20
73.1187973022461
40
0.0
41
0.0
42
0.0
10
73.339599609375
20
73.4953002929688
40
0.0
41
0.0
42
0.0
10
73.473503112793
20
73.5999984741211
40
0.0
41
0.0
42
0.0
10
73.4830017089844
20
73.6249008178711
40
0.0
41
0.0
42
0.0
10
73.5145034790039
20
73.6248016357422
40
0.0
41
0.0
42
0.0
10
73.9959030151367
20
73.8908004760742
40
0.0
41
0.0
42
0.0
10
74.288200378418
20
73.5298004150391
40
0.0
41
0.0
42
0.0
10
74.3088989257812
20
73.5196990966797
40
0.0
41
0.0
42
0.0
10
74.317497253418
20
73.4908981323242
40
0.0
41
0.0
42
0.0
10
74.2797012329102
20
73.0440979003906
40
0.0
41
0.0
42
0.0
10
74.2796020507812
20
73.0112991333008
40
0.0
41
0.0
42
0.0
10
74.0821990966797
20
72.5410003662109
40
0.0
41
0.0
42
0.0
10
74.0835037231445
20
72.4869003295898
40
0.0
41
0.0
42
0.0
10
74.0157012939453
20
72.3963012695312
40
0.0
41
0.0
42
0.0
10
73.9935989379883
20
72.388801574707
40
0.0
41
0.0
42
0.0
10
73.7487030029297
20
72.0095977783203
40
0.0
41
0.0
42
0.0
10
73.736701965332
20
71.9849014282227
40
0.0
41
0.0
42
0.0
10
73.6573028564453
20
71.8523025512695
40
0.0
41
0.0
42
0.0
10
73.4974975585938
20
71.5693969726562
40
0.0
41
0.0
42
0.0
10
73.431999206543
20
71.4842987060547
40
0.0
41
0.0
42
0.0
10
73.2342987060547
20
71.0131988525391
40
0.0
41
0.0
42
0.0
10
73.1116027832031
20
70.5357971191406
40
0.0
41
0.0
42
0.0
10
73.0932006835938
20
70.5108032226562
40
0.0
41
0.0
42
0.0
10
73.0113983154297
20
70.1955032348633
40
0.0
41
0.0
42
0.0
10
72.9955978393555
20
70.1764984130859
40
0.0
41
0.0
42
0.0
10
72.9514999389648
20
70.1312026977539
40
0.0
41
0.0
42
0.0
10
72.9143981933594
20
70.0127029418945
40
0.0
41
0.0
42
0.0
10
72.7297973632812
20
69.5730972290039
40
0.0
41
0.0
42
0.0
10
72.6645965576172
20
69.5065002441406
40
0.0
41
0.0
42
0.0
10
72.4959030151367
20
69.2645034790039
40
0.0
41
0.0
42
0.0
10
72.3145980834961
20
69.0990982055664
40
0.0
41
0.0
42
0.0
10
72.2241973876953
20
69.0048980712891
40
0.0
41
0.0
42
0.0
10
71.9933013916016
20
68.7913970947266
40
0.0
41
0.0
42
0.0
10
71.6818008422852
20
68.5667037963867
40
0.0
41
0.0
42
0.0
10
71.5887985229492
20
68.5037002563477
40
0.0
41
0.0
42
0.0
10
71.4956970214844
20
68.4104995727539
40
0.0
41
0.0
42
0.0
10
71.2976989746094
20
68.1559982299805
40
0.0
41
0.0
42
0.0
10
71.1535034179688
20
68.0112991333008
40
0.0
41
0.0
42
0.0
10
71.1533966064453
20
67.9828033447266
40
0.0
41
0.0
42
0.0
10
71.1852035522461
20
67.8672027587891
40
0.0
41
0.0
42
0.0
10
71.1331024169922
20
67.5184020996094
40
0.0
41
0.0
42
0.0
10
71.1330032348633
20
67.4868011474609
40
0.0
41
0.0
42
0.0
10
71.1524963378906
20
67.4599990844727
40
0.0
41
0.0
42
0.0
10
71.1714019775391
20
67.4225006103516
40
0.0
41
0.0
42
0.0
10
71.2894973754883
20
66.9887008666992
40
0.0
41
0.0
42
0.0
10
71.3310012817383
20
66.9255981445312
40
0.0
41
0.0
42
0.0
10
71.4985961914062
20
66.6054000854492
40
0.0
41
0.0
42
0.0
10
71.5559005737305
20
66.4917984008789
40
0.0
41
0.0
42
0.0
10
71.6119003295898
20
66.4281997680664
40
0.0
41
0.0
42
0.0
10
71.9440994262695
20
65.9934005737305
40
0.0
41
0.0
42
0.0
10
71.9943008422852
20
65.9384994506836
40
0.0
41
0.0
42
0.0
10
72.4274978637695
20
65.5896987915039
40
0.0
41
0.0
42
0.0
10
72.4901962280273
20
65.5466995239258
40
0.0
41
0.0
42
0.0
10
72.5888977050781
20
65.5018997192383
40
0.0
41
0.0
42
0.0
10
72.6138000488281
20
65.4934997558594
40
0.0
41
0.0
42
0.0
10
72.9851989746094
20
65.3330993652344
40
0.0
41
0.0
42
0.0
10
73.4559020996094
20
65.2901992797852
40
0.0
41
0.0
42
0.0
10
73.5180969238281
20
65.2901000976562
40
0.0
41
0.0
42
0.0
10
73.9905014038086
20
65.3768005371094
40
0.0
41
0.0
42
0.0
10
74.0133972167969
20
65.3825988769531
40
0.0
41
0.0
42
0.0
10
74.2975006103516
20
65.4992980957031
40
0.0
41
0.0
42
0.0
10
74.5100021362305
20
65.5923004150391
40
0.0
41
0.0
42
0.0
10
74.9841003417969
20
65.8951034545898
40
0.0
41
0.0
42
0.0
10
75.0080032348633
20
65.9087982177734
40
0.0
41
0.0
42
0.0
10
75.1287002563477
20
65.9956970214844
40
0.0
41
0.0
42
0.0
10
75.4740982055664
20
66.3746032714844
40
0.0
41
0.0
42
0.0
10
75.50830078125
20
66.39990234375
40
0.0
41
0.0
42
0.0
10
75.5334014892578
20
66.4151000976562
40
0.0
41
0.0
42
0.0
10
75.6154022216797
20
66.4921035766602
40
0.0
41
0.0
42
0.0
10
75.7869033813477
20
66.9269027709961
40
0.0
41
0.0
42
0.0
10
75.8513031005859
20
66.988899230957
40
0.0
41
0.0
42
0.0
10
75.8524017333984
20
67.1559982299805
40
0.0
41
0.0
42
0.0
10
75.7552032470703
20
67.5109024047852
40
0.0
41
0.0
42
0.0
10
75.5817031860352
20
67.7615966796875
40
0.0
41
0.0
42
0.0
10
75.5018997192383
20
67.8697967529297
40
0.0
41
0.0
42
0.0
10
75.4337997436523
20
68.0102996826172
40
0.0
41
0.0
42
0.0
10
75.3872985839844
20
68.0943984985352
40
0.0
41
0.0
42
0.0
10
75.1854019165039
20
68.5098037719727
40
0.0
41
0.0
42
0.0
10
75.1698989868164
20
68.5348968505859
40
0.0
41
0.0
42
0.0
10
75.0654983520508
20
68.8989028930664
40
0.0
41
0.0
42
0.0
10
75.0395965576172
20
68.9402008056641
40
0.0
41
0.0
42
0.0
10
74.9825973510742
20
69.1350021362305
40
0.0
41
0.0
42
0.0
10
74.969596862793
20
69.4894027709961
40
0.0
41
0.0
42
0.0
10
75.0258026123047
20
69.9161987304688
40
0.0
41
0.0
42
0.0
10
75.02490234375
20
69.991096496582
40
0.0
41
0.0
42
0.0
10
75.0195999145508
20
70.0055999755859
40
0.0
41
0.0
42
0.0
10
75.0672988891602
20
70.3160018920898
40
0.0
41
0.0
42
0.0
10
75.0823974609375
20
70.4813995361328
40
0.0
41
0.0
42
0.0
10
75.1022033691406
20
70.8876037597656
40
0.0
41
0.0
42
0.0
10
75.0998001098633
20
71.0186004638672
40
0.0
41
0.0
42
0.0
10
75.0552978515625
20
71.4151992797852
40
0.0
41
0.0
42
0.0
10
75.0417022705078
20
71.5161972045898
40
0.0
41
0.0
42
0.0
10
74.999397277832
20
71.7023010253906
40
0.0
41
0.0
42
0.0
10
74.9399032592773
20
71.9917984008789
40
0.0
41
0.0
42
0.0
10
74.9378967285156
20
72.0120010375977
40
0.0
41
0.0
42
0.0
10
74.9377975463867
20
72.043098449707
40
0.0
41
0.0
42
0.0
10
74.8546981811523
20
72.499397277832
40
0.0
41
0.0
42
0.0
10
74.8563003540039
20
72.5071029663086
40
0.0
41
0.0
42
0.0
10
74.8628997802734
20
72.9847030639648
40
0.0
41
0.0
42
0.0
10
74.9934005737305
20
73.2648010253906
40
0.0
41
0.0
42
0.0
10
75.1475982666016
20
73.4972991943359
40
0.0
41
0.0
42
0.0
10
75.4579010009766
20
73.6113967895508
40
0.0
41
0.0
42
0.0
10
75.4889984130859
20
73.6269989013672
40
0.0
41
0.0
42
0.0
10
75.6464004516602
20
73.5054016113281
40
0.0
41
0.0
42
0.0
10
75.6638031005859
20
73.4945983886719
40
0.0
41
0.0
42
0.0
10
75.9016036987305
20
73.0149002075195
40
0.0
41
0.0
42
0.0
10
75.9169006347656
20
72.9891967773438
40
0.0
41
0.0
42
0.0
10
75.9953002929688
20
72.7892990112305
40
0.0
41
0.0
42
0.0
10
76.0246963500977
20
72.7834014892578
40
0.0
41
0.0
42
0.0
10
76.0245971679688
20
72.7434005737305
40
0.0
41
0.0
42
0.0
10
76.1533966064453
20
72.4868011474609
40
0.0
41
0.0
42
0.0
10
76.2509994506836
20
71.9841003417969
40
0.0
41
0.0
42
0.0
10
76.3498992919922
20
71.5148010253906
40
0.0
41
0.0
42
0.0
10
76.3571014404297
20
71.4863967895508
40
0.0
41
0.0
42
0.0
10
76.4990997314453
20
71.1272964477539
40
0.0
41
0.0
42
0.0
10
76.5541000366211
20
71.0109024047852
40
0.0
41
0.0
42
0.0
10
76.5574035644531
20
70.9865036010742
40
0.0
41
0.0
42
0.0
10
76.8124008178711
20
70.5111999511719
40
0.0
41
0.0
42
0.0
10
76.8209991455078
20
70.4214019775391
40
0.0
41
0.0
42
0.0
10
76.9979019165039
20
70.1091995239258
40
0.0
41
0.0
42
0.0
10
77.0759963989258
20
69.9872970581055
40
0.0
41
0.0
42
0.0
10
77.0893020629883
20
69.8852005004883
40
0.0
41
0.0
42
0.0
10
77.2440032958984
20
69.4871978759766
40
0.0
41
0.0
42
0.0
10
77.2412033081055
20
69.374397277832
40
0.0
41
0.0
42
0.0
10
77.2950973510742
20
69.0002975463867
40
0.0
41
0.0
42
0.0
10
77.277702331543
20
68.8844985961914
40
0.0
41
0.0
42
0.0
10
77.2613983154297
20
68.5175018310547
40
0.0
41
0.0
42
0.0
10
77.2259979248047
20
68.3337020874023
40
0.0
41
0.0
42
0.0
10
77.1819000244141
20
68.0178985595703
40
0.0
41
0.0
42
0.0
10
77.1697998046875
20
67.8151016235352
40
0.0
41
0.0
42
0.0
10
77.1613006591797
20
67.5195999145508
40
0.0
41
0.0
42
0.0
10
77.1612014770508
20
67.486701965332
40
0.0
41
0.0
42
0.0
10
77.4602966308594
20
67.0721969604492
40
0.0
41
0.0
42
0.0
10
77.4972991943359
20
67.0131988525391
40
0.0
41
0.0
42
0.0
10
77.5093994140625
20
66.9964981079102
40
0.0
41
0.0
42
0.0
10
77.5736999511719
20
66.9655990600586
40
0.0
41
0.0
42
0.0
10
77.9231033325195
20
66.7767028808594
40
0.0
41
0.0
42
0.0
10
77.986701965332
20
66.7574996948242
40
0.0
41
0.0
42
0.0
10
78.4208984375
20
66.5942001342773
40
0.0
41
0.0
42
0.0
10
78.4842987060547
20
66.5802001953125
40
0.0
41
0.0
42
0.0
10
78.8871994018555
20
66.500602722168
40
0.0
41
0.0
42
0.0
10
78.9177017211914
20
66.4954986572266
40
0.0
41
0.0
42
0.0
10
78.981201171875
20
66.4889984130859
40
0.0
41
0.0
42
0.0
10
79.4149017333984
20
66.4795989990234
40
0.0
41
0.0
42
0.0
10
79.5173034667969
20
66.4821014404297
40
0.0
41
0.0
42
0.0
10
79.5395965576172
20
66.4872970581055
40
0.0
41
0.0
42
0.0
10
79.6224975585938
20
66.500602722168
40
0.0
41
0.0
42
0.0
10
79.9744033813477
20
66.5636978149414
40
0.0
41
0.0
42
0.0
10
80.0130004882812
20
66.572998046875
40
0.0
41
0.0
42
0.0
10
80.4834976196289
20
66.7928009033203
40
0.0
41
0.0
42
0.0
10
80.5074996948242
20
66.8071975708008
40
0.0
41
0.0
42
0.0
10
80.7193984985352
20
66.9941024780273
40
0.0
41
0.0
42
0.0
10
80.7362976074219
20
67.0177993774414
40
0.0
41
0.0
42
0.0
10
81.0009002685547
20
67.3358001708984
40
0.0
41
0.0
42
0.0
10
81.0920028686523
20
67.4894027709961
40
0.0
41
0.0
42
0.0
10
81.2978973388672
20
67.9869003295898
40
0.0
41
0.0
42
0.0
10
81.3046035766602
20
68.0102996826172
40
0.0
41
0.0
42
0.0
10
81.4225006103516
20
68.5082015991211
40
0.0
41
0.0
42
0.0
10
81.4606018066406
20
68.9822998046875
40
0.0
41
0.0
42
0.0
10
81.4641036987305
20
69.0071029663086
40
0.0
41
0.0
42
0.0
10
81.4664993286133
20
69.0456008911133
40
0.0
41
0.0
42
0.0
10
81.4664001464844
20
69.0835037231445
40
0.0
41
0.0
42
0.0
10
81.4092025756836
20
69.5122985839844
40
0.0
41
0.0
42
0.0
10
81.1202011108398
20
69.9394989013672
40
0.0
41
0.0
42
0.0
10
81.1325988769531
20
69.9829025268555
40
0.0
41
0.0
42
0.0
10
81.1325988769531
20
70.0130004882812
40
0.0
41
0.0
42
0.0
10
81.0495986938477
20
70.1239013671875
40
0.0
41
0.0
42
0.0
10
81.0121994018555
20
70.1500015258789
40
0.0
41
0.0
42
0.0
10
80.8778991699219
20
70.1660003662109
40
0.0
41
0.0
42
0.0
10
80.5140991210938
20
70.2966995239258
40
0.0
41
0.0
42
0.0
10
80.2920989990234
20
70.3444976806641
40
0.0
41
0.0
42
0.0
10
80.0130996704102
20
70.4222030639648
40
0.0
41
0.0
42
0.0
10
79.8247985839844
20
70.5007019042969
40
0.0
41
0.0
42
0.0
10
79.7185974121094
20
70.5514984130859
40
0.0
41
0.0
42
0.0
10
79.5795974731445
20
70.6128005981445
40
0.0
41
0.0
42
0.0
10
79.5121002197266
20
70.6193008422852
40
0.0
41
0.0
42
0.0
10
79.0746994018555
20
70.9409027099609
40
0.0
41
0.0
42
0.0
10
79.007698059082
20
70.9670028686523
40
0.0
41
0.0
42
0.0
10
78.973503112793
20
71.0046005249023
40
0.0
41
0.0
42
0.0
10
78.9577026367188
20
71.0171966552734
40
0.0
41
0.0
42
0.0
10
78.7520980834961
20
71.2353973388672
40
0.0
41
0.0
42
0.0
10
78.5040969848633
20
71.5419998168945
40
0.0
41
0.0
42
0.0
10
78.4111022949219
20
71.6399993896484
40
0.0
41
0.0
42
0.0
10
78.1318969726562
20
72.0059967041016
40
0.0
41
0.0
42
0.0
10
78.0055999755859
20
72.1295013427734
40
0.0
41
0.0
42
0.0
10
77.6934967041016
20
72.4112014770508
40
0.0
41
0.0
42
0.0
10
77.5810012817383
20
72.5028991699219
40
0.0
41
0.0
42
0.0
10
77.5082015991211
20
72.5511016845703
40
0.0
41
0.0
42
0.0
10
77.1906967163086
20
72.7682037353516
40
0.0
41
0.0
42
0.0
10
77.006103515625
20
72.896598815918
40
0.0
41
0.0
42
0.0
10
76.9765014648438
20
72.9279022216797
40
0.0
41
0.0
42
0.0
10
76.8865966796875
20
73.0039978027344
40
0.0
41
0.0
42
0.0
10
76.5121002197266
20
73.3330001831055
40
0.0
41
0.0
42
0.0
10
76.4831008911133
20
73.3328018188477
40
0.0
41
0.0
42
0.0
10
76.4829025268555
20
73.3744964599609
40
0.0
41
0.0
42
0.0
10
76.378303527832
20
73.50830078125
40
0.0
41
0.0
42
0.0
10
76.1089019775391
20
73.9959030151367
40
0.0
41
0.0
42
0.0
10
76.4699020385742
20
74.2882995605469
40
0.0
41
0.0
42
0.0
10
76.4802017211914
20
74.3089981079102
40
0.0
41
0.0
42
0.0
10
76.5090026855469
20
74.317497253418
40
0.0
41
0.0
42
0.0
10
76.9558029174805
20
74.2797012329102
40
0.0
41
0.0
42
0.0
10
76.9885025024414
20
74.2796020507812
40
0.0
41
0.0
42
0.0
10
77.4589004516602
20
74.0821990966797
40
0.0
41
0.0
42
0.0
10
77.5129013061523
20
74.0835037231445
40
0.0
41
0.0
42
0.0
10
77.603401184082
20
74.0156021118164
40
0.0
41
0.0
42
0.0
10
77.6110000610352
20
73.9935989379883
40
0.0
41
0.0
42
0.0
10
77.9903030395508
20
73.7487030029297
40
0.0
41
0.0
42
0.0
10
78.0147018432617
20
73.7368011474609
40
0.0
41
0.0
42
0.0
10
78.4067993164062
20
73.5151977539062
40
0.0
41
0.0
42
0.0
10
78.5155029296875
20
73.431999206543
40
0.0
41
0.0
42
0.0
10
78.9866027832031
20
73.2342987060547
40
0.0
41
0.0
42
0.0
10
79.4641036987305
20
73.1115036010742
40
0.0
41
0.0
42
0.0
10
79.4890975952148
20
73.0932006835938
40
0.0
41
0.0
42
0.0
10
79.80419921875
20
73.0112991333008
40
0.0
41
0.0
42
0.0
10
79.8233032226562
20
72.9954986572266
40
0.0
41
0.0
42
0.0
10
79.8685989379883
20
72.9514007568359
40
0.0
41
0.0
42
0.0
10
79.9870986938477
20
72.9142990112305
40
0.0
41
0.0
42
0.0
10
80.4266967773438
20
72.7296981811523
40
0.0
41
0.0
42
0.0
10
80.4934005737305
20
72.6645965576172
40
0.0
41
0.0
42
0.0
10
80.7352981567383
20
72.4957962036133
40
0.0
41
0.0
42
0.0
10
80.9005966186523
20
72.3145980834961
40
0.0
41
0.0
42
0.0
10
80.9949035644531
20
72.2240982055664
40
0.0
41
0.0
42
0.0
10
81.2083969116211
20
71.9932022094727
40
0.0
41
0.0
42
0.0
10
81.4330978393555
20
71.6817016601562
40
0.0
41
0.0
42
0.0
10
81.4962005615234
20
71.5886993408203
40
0.0
41
0.0
42
0.0
10
81.5893020629883
20
71.4955978393555
40
0.0
41
0.0
42
0.0
10
81.8436965942383
20
71.2976989746094
40
0.0
41
0.0
42
0.0
10
81.9886016845703
20
71.1535034179688
40
0.0
41
0.0
42
0.0
10
82.0170974731445
20
71.1533966064453
40
0.0
41
0.0
42
0.0
10
82.1325988769531
20
71.1852035522461
40
0.0
41
0.0
42
0.0
10
82.4814987182617
20
71.1331024169922
40
0.0
41
0.0
42
0.0
10
82.5130996704102
20
71.1330032348633
40
0.0
41
0.0
42
0.0
10
82.5398025512695
20
71.1524963378906
40
0.0
41
0.0
42
0.0
10
82.5774002075195
20
71.1714019775391
40
0.0
41
0.0
42
0.0
10
83.0111999511719
20
71.2894973754883
40
0.0
41
0.0
42
0.0
10
83.0743026733398
20
71.3310012817383
40
0.0
41
0.0
42
0.0
10
83.394401550293
20
71.4985961914062
40
0.0
41
0.0
42
0.0
10
83.5081024169922
20
71.5559005737305
40
0.0
41
0.0
42
0.0
10
83.5716018676758
20
71.6119995117188
40
0.0
41
0.0
42
0.0
10
84.0065002441406
20
71.9440994262695
40
0.0
41
0.0
42
0.0
10
84.0606002807617
20
71.9937973022461
40
0.0
41
0.0
42
0.0
10
84.1033020019531
20
72.0561981201172
40
0.0
41
0.0
42
0.0
10
84.453498840332
20
72.491096496582
40
0.0
41
0.0
42
0.0
10
84.497802734375
20
72.588996887207
40
0.0
41
0.0
42
0.0
10
84.5062026977539
20
72.6138000488281
40
0.0
41
0.0
42
0.0
10
84.6662979125977
20
72.9842987060547
40
0.0
41
0.0
42
0.0
10
84.6662979125977
20
73.0059967041016
40
0.0
41
0.0
42
0.0
10
84.7097015380859
20
73.4809036254883
40
0.0
41
0.0
42
0.0
10
84.709602355957
20
73.5179977416992
40
0.0
41
0.0
42
0.0
10
84.6229019165039
20
73.9905014038086
40
0.0
41
0.0
42
0.0
10
84.6171035766602
20
74.013298034668
40
0.0
41
0.0
42
0.0
10
84.5005035400391
20
74.2974014282227
40
0.0
41
0.0
42
0.0
10
84.4074020385742
20
74.5100021362305
40
0.0
41
0.0
42
0.0
10
84.1045989990234
20
74.984001159668
40
0.0
41
0.0
42
0.0
10
84.0908966064453
20
75.0078964233398
40
0.0
41
0.0
42
0.0
10
84.0040969848633
20
75.1286010742188
40
0.0
41
0.0
42
0.0
10
83.6250991821289
20
75.4740982055664
40
0.0
41
0.0
42
0.0
10
83.5998001098633
20
75.5082015991211
40
0.0
41
0.0
42
0.0
10
83.584602355957
20
75.5334014892578
40
0.0
41
0.0
42
0.0
10
83.5077972412109
20
75.6154022216797
40
0.0
41
0.0
42
0.0
10
83.072998046875
20
75.7867965698242
40
0.0
41
0.0
42
0.0
10
83.0110015869141
20
75.8513031005859
40
0.0
41
0.0
42
0.0
10
82.8438034057617
20
75.8524017333984
40
0.0
41
0.0
42
0.0
10
82.4889984130859
20
75.7552032470703
40
0.0
41
0.0
42
0.0
10
82.2380981445312
20
75.5818023681641
40
0.0
41
0.0
42
0.0
10
82.1298980712891
20
75.5018997192383
40
0.0
41
0.0
42
0.0
10
81.9896011352539
20
75.4337997436523
40
0.0
41
0.0
42
0.0
10
81.905403137207
20
75.3872985839844
40
0.0
41
0.0
42
0.0
10
81.4899978637695
20
75.1855010986328
40
0.0
41
0.0
42
0.0
10
81.4648971557617
20
75.1699981689453
40
0.0
41
0.0
42
0.0
10
81.1008987426758
20
75.0654983520508
40
0.0
41
0.0
42
0.0
10
81.0596008300781
20
75.0397033691406
40
0.0
41
0.0
42
0.0
10
80.8647994995117
20
74.9825973510742
40
0.0
41
0.0
42
0.0
10
80.510498046875
20
74.969596862793
40
0.0
41
0.0
42
0.0
10
80.0837020874023
20
75.0258026123047
40
0.0
41
0.0
42
0.0
10
80.0087966918945
20
75.02490234375
40
0.0
41
0.0
42
0.0
10
79.9943008422852
20
75.0195999145508
40
0.0
41
0.0
42
0.0
10
79.6838989257812
20
75.0672988891602
40
0.0
41
0.0
42
0.0
10
79.5185012817383
20
75.0823974609375
40
0.0
41
0.0
42
0.0
10
79.1121978759766
20
75.1022033691406
40
0.0
41
0.0
42
0.0
10
78.9813003540039
20
75.0998001098633
40
0.0
41
0.0
42
0.0
10
78.584602355957
20
75.0552978515625
40
0.0
41
0.0
42
0.0
10
78.4837036132812
20
75.0418014526367
40
0.0
41
0.0
42
0.0
10
78.2975006103516
20
74.999397277832
40
0.0
41
0.0
42
0.0
10
78.0081024169922
20
74.9399032592773
40
0.0
41
0.0
42
0.0
10
77.9878005981445
20
74.9378967285156
40
0.0
41
0.0
42
0.0
10
77.9568023681641
20
74.9377975463867
40
0.0
41
0.0
42
0.0
10
77.5005035400391
20
74.8546981811523
40
0.0
41
0.0
42
0.0
10
77.4927978515625
20
74.8563003540039
40
0.0
41
0.0
42
0.0
10
77.0150985717773
20
74.8628005981445
40
0.0
41
0.0
42
0.0
10
76.7349014282227
20
74.9933013916016
40
0.0
41
0.0
42
0.0
10
76.5025024414062
20
75.1475982666016
40
0.0
41
0.0
42
0.0
10
76.3883972167969
20
75.4579010009766
40
0.0
41
0.0
42
0.0
10
76.3727035522461
20
75.4889984130859
40
0.0
41
0.0
42
0.0
10
76.4944000244141
20
75.6464996337891
40
0.0
41
0.0
42
0.0
10
76.5053024291992
20
75.6638031005859
40
0.0
41
0.0
42
0.0
10
76.9850006103516
20
75.9017028808594
40
0.0
41
0.0
42
0.0
10
77.0106964111328
20
75.9169998168945
40
0.0
41
0.0
42
0.0
10
77.2202987670898
20
75.9990997314453
40
0.0
41
0.0
42
0.0
10
77.4666976928711
20
76.1225967407227
40
0.0
41
0.0
42
0.0
10
77.5028991699219
20
76.1544036865234
40
0.0
41
0.0
42
0.0
10
77.5178985595703
20
76.1544036865234
40
0.0
41
0.0
42
0.0
10
78.0158004760742
20
76.2509994506836
40
0.0
41
0.0
42
0.0
10
78.4850006103516
20
76.3499984741211
40
0.0
41
0.0
42
0.0
10
78.5134963989258
20
76.3571014404297
40
0.0
41
0.0
42
0.0
10
78.8724975585938
20
76.4991989135742
40
0.0
41
0.0
42
0.0
10
78.9889984130859
20
76.5541000366211
40
0.0
41
0.0
42
0.0
10
79.0133972167969
20
76.5574035644531
40
0.0
41
0.0
42
0.0
10
79.4887008666992
20
76.8125
40
0.0
41
0.0
42
0.0
10
79.578498840332
20
76.8210983276367
40
0.0
41
0.0
42
0.0
10
79.8906021118164
20
76.9979019165039
40
0.0
41
0.0
42
0.0
10
80.0126037597656
20
77.0761032104492
40
0.0
41
0.0
42
0.0
10
80.1146011352539
20
77.0893020629883
40
0.0
41
0.0
42
0.0
10
80.5127029418945
20
77.2440032958984
40
0.0
41
0.0
42
0.0
10
80.6253967285156
20
77.2412033081055
40
0.0
41
0.0
42
0.0
10
80.9996032714844
20
77.2950973510742
40
0.0
41
0.0
42
0.0
10
81.1153030395508
20
77.277702331543
40
0.0
41
0.0
42
0.0
10
81.4823989868164
20
77.2613983154297
40
0.0
41
0.0
42
0.0
10
81.6660995483398
20
77.2259979248047
40
0.0
41
0.0
42
0.0
10
81.9820022583008
20
77.1819000244141
40
0.0
41
0.0
42
0.0
10
82.184700012207
20
77.1697998046875
40
0.0
41
0.0
42
0.0
10
82.4803009033203
20
77.1613006591797
40
0.0
41
0.0
42
0.0
10
82.5131988525391
20
77.1612014770508
40
0.0
41
0.0
42
0.0
10
82.9274978637695
20
77.4602966308594
40
0.0
41
0.0
42
0.0
10
82.9865036010742
20
77.4973983764648
40
0.0
41
0.0
42
0.0
10
83.003303527832
20
77.5094985961914
40
0.0
41
0.0
42
0.0
10
83.0341033935547
20
77.5737991333008
40
0.0
41
0.0
42
0.0
10
83.2229995727539
20
77.9231033325195
40
0.0
41
0.0
42
0.0
10
83.2422027587891
20
77.986701965332
40
0.0
41
0.0
42
0.0
10
83.4055023193359
20
78.4209976196289
40
0.0
41
0.0
42
0.0
10
83.4195022583008
20
78.4842987060547
40
0.0
41
0.0
42
0.0
10
83.4991989135742
20
78.8871994018555
40
0.0
41
0.0
42
0.0
10
83.5042037963867
20
78.9177017211914
40
0.0
41
0.0
42
0.0
10
83.5105972290039
20
78.9807968139648
40
0.0
41
0.0
42
0.0
10
83.5084991455078
20
79.0706024169922
40
0.0
41
0.0
42
0.0
10
83.5175018310547
20
79.5177001953125
40
0.0
41
0.0
42
0.0
10
83.5123977661133
20
79.5395965576172
40
0.0
41
0.0
42
0.0
10
83.4991989135742
20
79.6224975585938
40
0.0
41
0.0
42
0.0
10
83.4359970092773
20
79.9742965698242
40
0.0
41
0.0
42
0.0
10
83.427001953125
20
80.0118026733398
40
0.0
41
0.0
42
0.0
10
83.4129028320312
20
80.0350036621094
40
0.0
41
0.0
42
0.0
10
83.1919021606445
20
80.50830078125
40
0.0
41
0.0
42
0.0
10
83.0056991577148
20
80.7193984985352
40
0.0
41
0.0
42
0.0
10
82.9821014404297
20
80.736198425293
40
0.0
41
0.0
42
0.0
10
82.6640014648438
20
81.0009002685547
40
0.0
41
0.0
42
0.0
10
82.510498046875
20
81.0919036865234
40
0.0
41
0.0
42
0.0
10
82.0130004882812
20
81.2978973388672
40
0.0
41
0.0
42
0.0
10
81.9896011352539
20
81.3046035766602
40
0.0
41
0.0
42
0.0
10
81.49169921875
20
81.4225006103516
40
0.0
41
0.0
42
0.0
10
81.0176010131836
20
81.4606018066406
40
0.0
41
0.0
42
0.0
10
80.9927978515625
20
81.4641036987305
40
0.0
41
0.0
42
0.0
10
80.9542999267578
20
81.4664993286133
40
0.0
41
0.0
42
0.0
10
80.9163970947266
20
81.4664001464844
40
0.0
41
0.0
42
0.0
10
80.4876022338867
20
81.4092025756836
40
0.0
41
0.0
42
0.0
10
80.0604019165039
20
81.1202011108398
40
0.0
41
0.0
42
0.0
10
80.0169982910156
20
81.1325988769531
40
0.0
41
0.0
42
0.0
10
79.9869003295898
20
81.1325988769531
40
0.0
41
0.0
42
0.0
10
79.8759002685547
20
81.0495986938477
40
0.0
41
0.0
42
0.0
10
79.8497009277344
20
81.0122985839844
40
0.0
41
0.0
42
0.0
10
79.8337020874023
20
80.8778991699219
40
0.0
41
0.0
42
0.0
10
79.7030029296875
20
80.5141983032227
40
0.0
41
0.0
42
0.0
10
79.6551971435547
20
80.2920989990234
40
0.0
41
0.0
42
0.0
10
79.5774993896484
20
80.0130996704102
40
0.0
41
0.0
42
0.0
10
79.4990997314453
20
79.8248977661133
40
0.0
41
0.0
42
0.0
10
79.4481964111328
20
79.7185974121094
40
0.0
41
0.0
42
0.0
10
79.3869018554688
20
79.5795974731445
40
0.0
41
0.0
42
0.0
10
79.3804016113281
20
79.5121002197266
40
0.0
41
0.0
42
0.0
10
79.0587997436523
20
79.0747985839844
40
0.0
41
0.0
42
0.0
10
79.0326995849609
20
79.0077972412109
40
0.0
41
0.0
42
0.0
10
78.9953002929688
20
78.973503112793
40
0.0
41
0.0
42
0.0
10
78.9824981689453
20
78.9577026367188
40
0.0
41
0.0
42
0.0
10
78.7643966674805
20
78.752197265625
40
0.0
41
0.0
42
0.0
10
78.4589996337891
20
78.5053024291992
40
0.0
41
0.0
42
0.0
10
78.440299987793
20
78.4804992675781
40
0.0
41
0.0
42
0.0
10
78.3593978881836
20
78.4107971191406
40
0.0
41
0.0
42
0.0
10
77.993896484375
20
78.1320037841797
40
0.0
41
0.0
42
0.0
10
77.8702011108398
20
78.0055999755859
40
0.0
41
0.0
42
0.0
10
77.5886001586914
20
77.693603515625
40
0.0
41
0.0
42
0.0
10
77.4969024658203
20
77.5811004638672
40
0.0
41
0.0
42
0.0
10
77.4487991333008
20
77.5082015991211
40
0.0
41
0.0
42
0.0
10
77.2315979003906
20
77.1906967163086
40
0.0
41
0.0
42
0.0
10
77.1052017211914
20
77.0091018676758
40
0.0
41
0.0
42
0.0
10
77.0886993408203
20
76.9765014648438
40
0.0
41
0.0
42
0.0
10
77.0680999755859
20
76.9720993041992
40
0.0
41
0.0
42
0.0
10
76.9957962036133
20
76.8867034912109
40
0.0
41
0.0
42
0.0
10
76.6667022705078
20
76.5121002197266
40
0.0
41
0.0
42
0.0
10
76.6669998168945
20
76.4831008911133
40
0.0
41
0.0
42
0.0
10
76.6252975463867
20
76.4830017089844
40
0.0
41
0.0
42
0.0
10
76.4916000366211
20
76.3784027099609
40
0.0
41
0.0
42
0.0
10
76.0038986206055
20
76.1088027954102
40
0.0
41
0.0
42
0.0
10
75.7113037109375
20
76.4699020385742
40
0.0
41
0.0
42
0.0
10
75.6904983520508
20
76.4803009033203
40
0.0
41
0.0
42
0.0
10
75.6792984008789
20
76.5214004516602
40
0.0
41
0.0
42
0.0
10
75.7183990478516
20
76.9807968139648
40
0.0
41
0.0
42
0.0
10
75.7182998657227
20
77.0155029296875
40
0.0
41
0.0
42
0.0
10
75.9150009155273
20
77.4843978881836
40
0.0
41
0.0
42
0.0
10
75.9156036376953
20
77.5121002197266
40
0.0
41
0.0
42
0.0
10
75.9842987060547
20
77.6035003662109
40
0.0
41
0.0
42
0.0
10
76.0063018798828
20
77.6110992431641
40
0.0
41
0.0
42
0.0
10
76.2509994506836
20
77.9903030395508
40
0.0
41
0.0
42
0.0
10
76.2630004882812
20
78.0147018432617
40
0.0
41
0.0
42
0.0
10
76.4844970703125
20
78.4067993164062
40
0.0
41
0.0
42
0.0
10
76.5677032470703
20
78.5156021118164
40
0.0
41
0.0
42
0.0
10
76.7669982910156
20
78.9904022216797
40
0.0
41
0.0
42
0.0
10
76.7844009399414
20
79.0140991210938
40
0.0
41
0.0
42
0.0
10
76.9885025024414
20
79.8042984008789
40
0.0
41
0.0
42
0.0
10
77.0043029785156
20
79.8233032226562
40
0.0
41
0.0
42
0.0
10
77.0483016967773
20
79.8685989379883
40
0.0
41
0.0
42
0.0
10
77.0854034423828
20
79.9871978759766
40
0.0
41
0.0
42
0.0
10
77.2699966430664
20
80.4268035888672
40
0.0
41
0.0
42
0.0
10
77.3351974487305
20
80.4934005737305
40
0.0
41
0.0
42
0.0
10
77.5039978027344
20
80.7352981567383
40
0.0
41
0.0
42
0.0
10
77.6852035522461
20
80.9007034301758
40
0.0
41
0.0
42
0.0
10
77.7755966186523
20
80.995002746582
40
0.0
41
0.0
42
0.0
10
78.0065994262695
20
81.2083969116211
40
0.0
41
0.0
42
0.0
10
78.318000793457
20
81.4330978393555
40
0.0
41
0.0
42
0.0
10
78.411003112793
20
81.4962005615234
40
0.0
41
0.0
42
0.0
10
78.5042037963867
20
81.5893020629883
40
0.0
41
0.0
42
0.0
10
78.7021026611328
20
81.8438034057617
40
0.0
41
0.0
42
0.0
10
78.8463973999023
20
81.9886016845703
40
0.0
41
0.0
42
0.0
10
78.8462982177734
20
82.0170974731445
40
0.0
41
0.0
42
0.0
10
78.8144989013672
20
82.1325988769531
40
0.0
41
0.0
42
0.0
10
78.8667984008789
20
82.4814987182617
40
0.0
41
0.0
42
0.0
10
78.86669921875
20
82.5130996704102
40
0.0
41
0.0
42
0.0
10
78.847297668457
20
82.5397033691406
40
0.0
41
0.0
42
0.0
10
78.8283004760742
20
82.5774002075195
40
0.0
41
0.0
42
0.0
10
78.7101974487305
20
83.0111999511719
40
0.0
41
0.0
42
0.0
10
78.668701171875
20
83.0742034912109
40
0.0
41
0.0
42
0.0
10
78.5011978149414
20
83.3943023681641
40
0.0
41
0.0
42
0.0
10
78.4438018798828
20
83.5080032348633
40
0.0
41
0.0
42
0.0
10
78.3878021240234
20
83.5716018676758
40
0.0
41
0.0
42
0.0
10
78.0556030273438
20
84.0064010620117
40
0.0
41
0.0
42
0.0
10
78.0059967041016
20
84.0605010986328
40
0.0
41
0.0
42
0.0
10
77.9437026977539
20
84.1032028198242
40
0.0
41
0.0
42
0.0
10
77.5087966918945
20
84.4533996582031
40
0.0
41
0.0
42
0.0
10
77.4107971191406
20
84.497802734375
40
0.0
41
0.0
42
0.0
10
77.3860015869141
20
84.5062026977539
40
0.0
41
0.0
42
0.0
10
77.0156021118164
20
84.6662979125977
40
0.0
41
0.0
42
0.0
10
76.993896484375
20
84.6662979125977
40
0.0
41
0.0
42
0.0
10
76.5189971923828
20
84.7097015380859
40
0.0
41
0.0
42
0.0
10
76.4819030761719
20
84.709602355957
40
0.0
41
0.0
42
0.0
10
76.0093994140625
20
84.6229019165039
40
0.0
41
0.0
42
0.0
10
75.9865036010742
20
84.6171035766602
40
0.0
41
0.0
42
0.0
10
75.7024002075195
20
84.500602722168
40
0.0
41
0.0
42
0.0
10
75.4898986816406
20
84.4075012207031
40
0.0
41
0.0
42
0.0
10
75.0158004760742
20
84.1045989990234
40
0.0
41
0.0
42
0.0
10
74.9917984008789
20
84.0910034179688
40
0.0
41
0.0
42
0.0
10
74.8711013793945
20
84.0042037963867
40
0.0
41
0.0
42
0.0
10
74.5257034301758
20
83.6251983642578
40
0.0
41
0.0
42
0.0
10
74.49169921875
20
83.5998001098633
40
0.0
41
0.0
42
0.0
10
74.4664001464844
20
83.5847015380859
40
0.0
41
0.0
42
0.0
10
74.3843994140625
20
83.5078964233398
40
0.0
41
0.0
42
0.0
10
74.2128982543945
20
83.072998046875
40
0.0
41
0.0
42
0.0
10
74.1483993530273
20
83.0110015869141
40
0.0
41
0.0
42
0.0
10
74.1473007202148
20
82.8438034057617
40
0.0
41
0.0
42
0.0
10
74.244499206543
20
82.488899230957
40
0.0
41
0.0
42
0.0
10
74.4179992675781
20
82.2380981445312
40
0.0
41
0.0
42
0.0
10
74.4979019165039
20
82.1298980712891
40
0.0
41
0.0
42
0.0
10
74.5659027099609
20
81.9896011352539
40
0.0
41
0.0
42
0.0
10
74.6123962402344
20
81.905403137207
40
0.0
41
0.0
42
0.0
10
74.8154983520508
20
81.4875030517578
40
0.0
41
0.0
42
0.0
10
74.9156036376953
20
81.1384963989258
40
0.0
41
0.0
42
0.0
10
74.9581985473633
20
81.0290985107422
40
0.0
41
0.0
42
0.0
10
74.967399597168
20
81.0096969604492
40
0.0
41
0.0
42
0.0
10
74.9804992675781
20
80.9886016845703
40
0.0
41
0.0
42
0.0
10
75.0170974731445
20
80.8647994995117
40
0.0
41
0.0
42
0.0
10
75.0300979614258
20
80.510498046875
40
0.0
41
0.0
42
0.0
10
74.9738998413086
20
80.0837020874023
40
0.0
41
0.0
42
0.0
10
74.9747009277344
20
80.008903503418
40
0.0
41
0.0
42
0.0
10
74.9802017211914
20
79.9944000244141
40
0.0
41
0.0
42
0.0
10
74.932502746582
20
79.6838989257812
40
0.0
41
0.0
42
0.0
10
74.9172973632812
20
79.5185012817383
40
0.0
41
0.0
42
0.0
10
74.8974990844727
20
79.1121978759766
40
0.0
41
0.0
42
0.0
10
74.89990234375
20
78.9813003540039
40
0.0
41
0.0
42
0.0
10
74.9443969726562
20
78.584602355957
40
0.0
41
0.0
42
0.0
10
74.9579010009766
20
78.4837036132812
40
0.0
41
0.0
42
0.0
10
75.0003967285156
20
78.2975006103516
40
0.0
41
0.0
42
0.0
10
75.0598983764648
20
78.0081024169922
40
0.0
41
0.0
42
0.0
10
75.0623016357422
20
77.9832000732422
40
0.0
41
0.0
42
0.0
10
75.1482009887695
20
77.511100769043
40
0.0
41
0.0
42
0.0
10
75.1417999267578
20
77.0428009033203
40
0.0
41
0.0
42
0.0
10
75.136100769043
20
77.0137023925781
40
0.0
41
0.0
42
0.0
10
75.1241989135742
20
76.9862976074219
40
0.0
41
0.0
42
0.0
10
75.0064010620117
20
76.7349014282227
40
0.0
41
0.0
42
0.0
10
74.8522033691406
20
76.5026016235352
40
0.0
41
0.0
42
0.0
10
74.5419006347656
20
76.3883972167969
40
0.0
41
0.0
42
0.0
10
74.5108032226562
20
76.3725967407227
40
0.0
41
0.0
42
0.0
10
74.3533020019531
20
76.4944000244141
40
0.0
41
0.0
42
0.0
10
74.3358993530273
20
76.5052032470703
40
0.0
41
0.0
42
0.0
10
74.0979995727539
20
76.9849014282227
40
0.0
41
0.0
42
0.0
10
74.0829010009766
20
77.0106964111328
40
0.0
41
0.0
42
0.0
10
74.0045013427734
20
77.2104034423828
40
0.0
41
0.0
42
0.0
10
73.9749984741211
20
77.2163009643555
40
0.0
41
0.0
42
0.0
10
73.97509765625
20
77.2564010620117
40
0.0
41
0.0
42
0.0
10
73.8462982177734
20
77.5130996704102
40
0.0
41
0.0
42
0.0
10
73.7487030029297
20
78.0158004760742
40
0.0
41
0.0
42
0.0
10
73.6498031616211
20
78.4850006103516
40
0.0
41
0.0
42
0.0
10
73.6426010131836
20
78.5134963989258
40
0.0
41
0.0
42
0.0
10
73.5007019042969
20
78.8724975585938
40
0.0
41
0.0
42
0.0
10
73.4456024169922
20
78.9889984130859
40
0.0
41
0.0
42
0.0
10
73.4394989013672
20
79.0384979248047
40
0.0
41
0.0
42
0.0
10
73.1843032836914
20
79.513801574707
40
0.0
41
0.0
42
0.0
10
73.178596496582
20
79.578498840332
40
0.0
41
0.0
42
0.0
10
73.0018997192383
20
79.8906021118164
40
0.0
41
0.0
42
0.0
10
72.9235992431641
20
80.0124969482422
40
0.0
41
0.0
42
0.0
10
72.910400390625
20
80.1146011352539
40
0.0
41
0.0
42
0.0
10
72.7556991577148
20
80.5127029418945
40
0.0
41
0.0
42
0.0
10
72.7584991455078
20
80.6253967285156
40
0.0
41
0.0
42
0.0
10
72.7045974731445
20
80.9996032714844
40
0.0
41
0.0
42
0.0
10
72.7220001220703
20
81.1153030395508
40
0.0
41
0.0
42
0.0
10
72.7382965087891
20
81.4823989868164
40
0.0
41
0.0
42
0.0
10
72.7736968994141
20
81.6660995483398
40
0.0
41
0.0
42
0.0
10
72.8178024291992
20
81.9820022583008
40
0.0
41
0.0
42
0.0
10
72.8299026489258
20
82.184700012207
40
0.0
41
0.0
42
0.0
10
72.8386001586914
20
82.4803009033203
40
0.0
41
0.0
42
0.0
10
72.8385009765625
20
82.5130996704102
40
0.0
41
0.0
42
0.0
10
72.5392990112305
20
82.9274978637695
40
0.0
41
0.0
42
0.0
10
72.5024032592773
20
82.9863967895508
40
0.0
41
0.0
42
0.0
10
72.4903030395508
20
83.003303527832
40
0.0
41
0.0
42
0.0
10
72.4260025024414
20
83.0341033935547
40
0.0
41
0.0
42
0.0
10
72.0767974853516
20
83.2229995727539
40
0.0
41
0.0
42
0.0
10
72.0131988525391
20
83.2422027587891
40
0.0
41
0.0
42
0.0
10
71.5789031982422
20
83.4055023193359
40
0.0
41
0.0
42
0.0
10
71.5156021118164
20
83.4195022583008
40
0.0
41
0.0
42
0.0
10
71.1126022338867
20
83.4991989135742
40
0.0
41
0.0
42
0.0
10
71.0821990966797
20
83.5042037963867
40
0.0
41
0.0
42
0.0
10
71.0190963745117
20
83.5105972290039
40
0.0
41
0.0
42
0.0
10
70.9292984008789
20
83.5084991455078
40
0.0
41
0.0
42
0.0
10
70.4822006225586
20
83.5175018310547
40
0.0
41
0.0
42
0.0
10
70.4601974487305
20
83.5123977661133
40
0.0
41
0.0
42
0.0
10
70.3772964477539
20
83.4991989135742
40
0.0
41
0.0
42
0.0
10
70.0254974365234
20
83.4359970092773
40
0.0
41
0.0
42
0.0
10
69.9880981445312
20
83.4271011352539
40
0.0
41
0.0
42
0.0
10
69.9648971557617
20
83.4130020141602
40
0.0
41
0.0
42
0.0
10
69.4916000366211
20
83.1919021606445
40
0.0
41
0.0
42
0.0
10
69.280403137207
20
83.0057983398438
40
0.0
41
0.0
42
0.0
10
69.2634963989258
20
82.9821014404297
40
0.0
41
0.0
42
0.0
10
68.9989013671875
20
82.6640014648438
40
0.0
41
0.0
42
0.0
10
68.9077987670898
20
82.510498046875
40
0.0
41
0.0
42
0.0
10
68.7021026611328
20
82.0134963989258
40
0.0
41
0.0
42
0.0
10
68.5887985229492
20
81.5395965576172
40
0.0
41
0.0
42
0.0
10
68.5820999145508
20
81.5161972045898
40
0.0
41
0.0
42
0.0
10
68.5440979003906
20
81.0420989990234
40
0.0
41
0.0
42
0.0
10
68.5393981933594
20
81.0178985595703
40
0.0
41
0.0
42
0.0
10
68.5392990112305
20
80.9813003540039
40
0.0
41
0.0
42
0.0
10
68.5964965820312
20
80.5538024902344
40
0.0
41
0.0
42
0.0
10
68.5914001464844
20
80.5185012817383
40
0.0
41
0.0
42
0.0
10
68.5914001464844
20
80.4862976074219
40
0.0
41
0.0
42
0.0
10
68.8795013427734
20
80.0604019165039
40
0.0
41
0.0
42
0.0
10
68.867301940918
20
80.0169982910156
40
0.0
41
0.0
42
0.0
10
68.8672027587891
20
79.9869003295898
40
0.0
41
0.0
42
0.0
10
68.9501037597656
20
79.8758010864258
40
0.0
41
0.0
42
0.0
10
68.9876022338867
20
79.8497009277344
40
0.0
41
0.0
42
0.0
10
69.1219024658203
20
79.8337020874023
40
0.0
41
0.0
42
0.0
10
69.4857025146484
20
79.7030029296875
40
0.0
41
0.0
42
0.0
10
69.7077026367188
20
79.6551971435547
40
0.0
41
0.0
42
0.0
10
69.9868011474609
20
79.5774002075195
40
0.0
41
0.0
42
0.0
10
70.1748962402344
20
79.4990997314453
40
0.0
41
0.0
42
0.0
10
70.2811965942383
20
79.4481964111328
40
0.0
41
0.0
42
0.0
10
70.4203033447266
20
79.3869018554688
40
0.0
41
0.0
42
0.0
10
70.4877014160156
20
79.3803024291992
40
0.0
41
0.0
42
0.0
10
70.9251022338867
20
79.0587997436523
40
0.0
41
0.0
42
0.0
10
70.9921035766602
20
79.0326995849609
40
0.0
41
0.0
42
0.0
10
71.027702331543
20
78.9935989379883
40
0.0
41
0.0
42
0.0
10
71.2618026733398
20
78.7030029296875
40
0.0
41
0.0
42
0.0
10
71.3788986206055
20
78.5752029418945
40
0.0
41
0.0
42
0.0
10
71.4649963378906
20
78.4944000244141
40
0.0
41
0.0
42
0.0
10
71.4951019287109
20
78.4583969116211
40
0.0
41
0.0
42
0.0
10
71.5054016113281
20
78.4488983154297
40
0.0
41
0.0
42
0.0
10
71.5190963745117
20
78.4409027099609
40
0.0
41
0.0
42
0.0
10
71.8460998535156
20
78.0123977661133
40
0.0
41
0.0
42
0.0
10
71.8662033081055
20
77.9954986572266
40
0.0
41
0.0
42
0.0
10
71.9943008422852
20
77.8702011108398
40
0.0
41
0.0
42
0.0
10
72.3062973022461
20
77.5885009765625
40
0.0
41
0.0
42
0.0
10
72.418701171875
20
77.4968032836914
40
0.0
41
0.0
42
0.0
10
72.4916000366211
20
77.4486999511719
40
0.0
41
0.0
42
0.0
10
72.8089981079102
20
77.2315979003906
40
0.0
41
0.0
42
0.0
10
72.9887008666992
20
77.1064987182617
40
0.0
41
0.0
42
0.0
10
73.0130004882812
20
77.1006011962891
40
0.0
41
0.0
42
0.0
10
73.0208969116211
20
77.0884017944336
40
0.0
41
0.0
42
0.0
10
73.1155014038086
20
77.00830078125
40
0.0
41
0.0
42
0.0
10
73.1186981201172
20
76.9908981323242
40
0.0
41
0.0
42
0.0
10
73.4878005981445
20
76.6667022705078
40
0.0
41
0.0
42
0.0
10
73.5168991088867
20
76.6669998168945
40
0.0
41
0.0
42
0.0
10
73.5167999267578
20
76.6252975463867
40
0.0
41
0.0
42
0.0
10
73.6212997436523
20
76.4915008544922
40
0.0
41
0.0
42
0.0
10
73.8908996582031
20
76.0038986206055
40
0.0
41
0.0
42
0.0
10
73.5298004150391
20
75.7115020751953
40
0.0
41
0.0
42
0.0
10
73.5195999145508
20
75.6905975341797
40
0.0
41
0.0
42
0.0
10
73.4785003662109
20
75.6792984008789
40
0.0
41
0.0
42
0.0
10
73.0190963745117
20
75.7183990478516
40
0.0
41
0.0
42
0.0
10
72.9842987060547
20
75.7182998657227
40
0.0
41
0.0
42
0.0
10
72.5155029296875
20
75.9150009155273
40
0.0
41
0.0
42
0.0
10
72.4877014160156
20
75.9154968261719
40
0.0
41
0.0
42
0.0
10
72.3962020874023
20
75.9841995239258
40
0.0
41
0.0
42
0.0
10
72.3887023925781
20
76.0062026977539
40
0.0
41
0.0
42
0.0
10
72.008903503418
20
76.2514038085938
40
0.0
41
0.0
42
0.0
10
71.8524017333984
20
76.342399597168
40
0.0
41
0.0
42
0.0
10
71.5693969726562
20
76.5024032592773
40
0.0
41
0.0
42
0.0
10
71.4842987060547
20
76.5677032470703
40
0.0
41
0.0
42
0.0
10
71.0094985961914
20
76.7669982910156
40
0.0
41
0.0
42
0.0
10
70.9858016967773
20
76.7844009399414
40
0.0
41
0.0
42
0.0
10
70.1955032348633
20
76.9884033203125
40
0.0
41
0.0
42
0.0
10
70.176399230957
20
77.0043029785156
40
0.0
41
0.0
42
0.0
10
70.1312026977539
20
77.0482025146484
40
0.0
41
0.0
42
0.0
10
70.0127029418945
20
77.0852966308594
40
0.0
41
0.0
42
0.0
10
69.5730972290039
20
77.2699966430664
40
0.0
41
0.0
42
0.0
10
69.5064010620117
20
77.3350982666016
40
0.0
41
0.0
42
0.0
10
69.2645034790039
20
77.5039978027344
40
0.0
41
0.0
42
0.0
10
69.0990982055664
20
77.6850967407227
40
0.0
41
0.0
42
0.0
10
69.0048980712891
20
77.7755966186523
40
0.0
41
0.0
42
0.0
10
68.7912979125977
20
78.0065994262695
40
0.0
41
0.0
42
0.0
10
68.5665969848633
20
78.318000793457
40
0.0
41
0.0
42
0.0
10
68.5036010742188
20
78.411003112793
40
0.0
41
0.0
42
0.0
10
68.410400390625
20
78.5042037963867
40
0.0
41
0.0
42
0.0
10
68.1559982299805
20
78.7020034790039
40
0.0
41
0.0
42
0.0
10
68.0112991333008
20
78.8463973999023
40
0.0
41
0.0
42
0.0
10
67.9828033447266
20
78.8462982177734
40
0.0
41
0.0
42
0.0
10
67.8672027587891
20
78.8144989013672
40
0.0
41
0.0
42
0.0
10
67.5184020996094
20
78.8667984008789
40
0.0
41
0.0
42
0.0
10
67.4868011474609
20
78.86669921875
40
0.0
41
0.0
42
0.0
10
67.4600982666016
20
78.847297668457
40
0.0
41
0.0
42
0.0
10
67.4225006103516
20
78.8283004760742
40
0.0
41
0.0
42
0.0
10
66.9887008666992
20
78.7101974487305
40
0.0
41
0.0
42
0.0
10
66.9255981445312
20
78.6688003540039
40
0.0
41
0.0
42
0.0
10
66.6054992675781
20
78.5012969970703
40
0.0
41
0.0
42
0.0
10
66.4917984008789
20
78.4439010620117
40
0.0
41
0.0
42
0.0
10
66.4282989501953
20
78.3878021240234
40
0.0
41
0.0
42
0.0
10
65.9934005737305
20
78.0556030273438
40
0.0
41
0.0
42
0.0
10
65.9385986328125
20
78.005500793457
40
0.0
41
0.0
42
0.0
10
65.5896987915039
20
77.5724029541016
40
0.0
41
0.0
42
0.0
10
65.5466995239258
20
77.5095977783203
40
0.0
41
0.0
42
0.0
10
65.5018997192383
20
77.4107971191406
40
0.0
41
0.0
42
0.0
10
65.4934997558594
20
77.3860015869141
40
0.0
41
0.0
42
0.0
10
65.3331985473633
20
77.0147018432617
40
0.0
41
0.0
42
0.0
10
65.2901992797852
20
76.5439987182617
40
0.0
41
0.0
42
0.0
10
65.2901000976562
20
76.4817962646484
40
0.0
41
0.0
42
0.0
10
65.3768005371094
20
76.0093994140625
40
0.0
41
0.0
42
0.0
10
65.3825988769531
20
75.9865036010742
40
0.0
41
0.0
42
0.0
210
0.0
220
0.0
230
1.0
0
LWPOLYLINE
5
25
330
1C
100
AcDbEntity
67
0
8
0
62
256
6
ByLayer
370
-1
48
1.0
60
0
100
AcDbPolyline
90
790
70
1
38
0.0
39
0.0
10
65.4848022460938
20
77.3295974731445
40
0.0
41
0.0
42
0.0
10
65.5068969726562
20
77.3947982788086
40
0.0
41
0.0
42
0.0
10
65.5501022338867
20
77.4903030395508
40
0.0
41
0.0
42
0.0
10
65.5696029663086
20
77.518798828125
40
0.0
41
0.0
42
0.0
10
65.9526977539062
20
77.9944000244141
40
0.0
41
0.0
42
0.0
10
66.0065002441406
20
78.0431976318359
40
0.0
41
0.0
42
0.0
10
66.4815979003906
20
78.4061965942383
40
0.0
41
0.0
42
0.0
10
66.5081024169922
20
78.4294967651367
40
0.0
41
0.0
42
0.0
10
66.6449966430664
20
78.4985961914062
40
0.0
41
0.0
42
0.0
10
66.9842987060547
20
78.6769027709961
40
0.0
41
0.0
42
0.0
10
67.0111999511719
20
78.6945037841797
40
0.0
41
0.0
42
0.0
10
67.4869003295898
20
78.8239974975586
40
0.0
41
0.0
42
0.0
10
67.5091018676758
20
78.8365020751953
40
0.0
41
0.0
42
0.0
10
67.9321975708008
20
78.7733001708984
40
0.0
41
0.0
42
0.0
10
67.9677963256836
20
78.7732009887695
40
0.0
41
0.0
42
0.0
10
67.9947967529297
20
78.7805023193359
40
0.0
41
0.0
42
0.0
10
68.2042999267578
20
78.5717010498047
40
0.0
41
0.0
42
0.0
10
68.3022003173828
20
78.4956970214844
40
0.0
41
0.0
42
0.0
10
68.4961013793945
20
78.3018035888672
40
0.0
41
0.0
42
0.0
10
68.6252975463867
20
78.1110992431641
40
0.0
41
0.0
42
0.0
10
68.7105026245117
20
77.9932022094727
40
0.0
41
0.0
42
0.0
10
68.9949035644531
20
77.6856002807617
40
0.0
41
0.0
42
0.0
10
69.1219024658203
20
77.5637969970703
40
0.0
41
0.0
42
0.0
10
69.1838989257812
20
77.4957962036133
40
0.0
41
0.0
42
0.0
10
69.4933013916016
20
77.279899597168
40
0.0
41
0.0
42
0.0
10
69.5167007446289
20
77.2570037841797
40
0.0
41
0.0
42
0.0
10
69.9870986938477
20
77.0594024658203
40
0.0
41
0.0
42
0.0
10
70.1242980957031
20
77.0165023803711
40
0.0
41
0.0
42
0.0
10
70.1489028930664
20
76.9934997558594
40
0.0
41
0.0
42
0.0
10
70.4851989746094
20
76.9049987792969
40
0.0
41
0.0
42
0.0
10
70.9241027832031
20
76.7921981811523
40
0.0
41
0.0
42
0.0
10
70.9903030395508
20
76.7436981201172
40
0.0
41
0.0
42
0.0
10
71.4255981445312
20
76.5609970092773
40
0.0
41
0.0
42
0.0
10
71.5078964233398
20
76.4973983764648
40
0.0
41
0.0
42
0.0
10
71.9908981323242
20
76.2177963256836
40
0.0
41
0.0
42
0.0
10
72.3380966186523
20
75.9935989379883
40
0.0
41
0.0
42
0.0
10
72.3585968017578
20
75.9335021972656
40
0.0
41
0.0
42
0.0
10
72.4220962524414
20
75.8859024047852
40
0.0
41
0.0
42
0.0
10
72.4843978881836
20
75.8846969604492
40
0.0
41
0.0
42
0.0
10
72.9190979003906
20
75.7022018432617
40
0.0
41
0.0
42
0.0
10
72.9537963867188
20
75.7023010253906
40
0.0
41
0.0
42
0.0
10
73.0018997192383
20
75.7073974609375
40
0.0
41
0.0
42
0.0
10
73.4158020019531
20
75.6724014282227
40
0.0
41
0.0
42
0.0
10
73.4542007446289
20
75.6723022460938
40
0.0
41
0.0
42
0.0
10
73.5160980224609
20
75.6768035888672
40
0.0
41
0.0
42
0.0
10
73.5700988769531
20
75.6930999755859
40
0.0
41
0.0
42
0.0
10
73.5894012451172
20
75.7319030761719
40
0.0
41
0.0
42
0.0
10
73.9079971313477
20
75.9899978637695
40
0.0
41
0.0
42
0.0
10
73.9078979492188
20
76.0156021118164
40
0.0
41
0.0
42
0.0
10
73.8817977905273
20
76.0755996704102
40
0.0
41
0.0
42
0.0
10
73.6426010131836
20
76.50830078125
40
0.0
41
0.0
42
0.0
10
73.5500030517578
20
76.6268005371094
40
0.0
41
0.0
42
0.0
10
73.6066970825195
20
76.7082977294922
40
0.0
41
0.0
42
0.0
10
73.6066970825195
20
76.720703125
40
0.0
41
0.0
42
0.0
10
73.5897979736328
20
76.7205963134766
40
0.0
41
0.0
42
0.0
10
73.506103515625
20
76.7026977539062
40
0.0
41
0.0
42
0.0
10
73.1574020385742
20
77.0090026855469
40
0.0
41
0.0
42
0.0
10
73.1492004394531
20
77.0533981323242
40
0.0
41
0.0
42
0.0
10
73.0689010620117
20
77.1213989257812
40
0.0
41
0.0
42
0.0
10
73.0587997436523
20
77.1372985839844
40
0.0
41
0.0
42
0.0
10
73.0111999511719
20
77.1489028930664
40
0.0
41
0.0
42
0.0
10
72.5015029907227
20
77.5030975341797
40
0.0
41
0.0
42
0.0
10
72.2049026489258
20
77.7451019287109
40
0.0
41
0.0
42
0.0
10
72.005500793457
20
77.9251022338867
40
0.0
41
0.0
42
0.0
10
71.9244995117188
20
78.0044021606445
40
0.0
41
0.0
42
0.0
10
71.8681030273438
20
78.0521011352539
40
0.0
41
0.0
42
0.0
10
71.5707015991211
20
78.4415969848633
40
0.0
41
0.0
42
0.0
10
71.5411987304688
20
78.4589996337891
40
0.0
41
0.0
42
0.0
10
71.5046997070312
20
78.4922027587891
40
0.0
41
0.0
42
0.0
10
71.4940032958984
20
78.504997253418
40
0.0
41
0.0
42
0.0
10
71.4692001342773
20
78.5257034301758
40
0.0
41
0.0
42
0.0
10
71.3313980102539
20
78.6569976806641
40
0.0
41
0.0
42
0.0
10
71.0500030517578
20
79.0062026977539
40
0.0
41
0.0
42
0.0
10
71.007698059082
20
79.0526962280273
40
0.0
41
0.0
42
0.0
10
70.9847030639648
20
79.0615997314453
40
0.0
41
0.0
42
0.0
10
70.5121002197266
20
79.4091033935547
40
0.0
41
0.0
42
0.0
10
70.4896011352539
20
79.4113006591797
40
0.0
41
0.0
42
0.0
10
70.3304977416992
20
79.481201171875
40
0.0
41
0.0
42
0.0
10
70.2899017333984
20
79.5008010864258
40
0.0
41
0.0
42
0.0
10
70.0130004882812
20
79.616096496582
40
0.0
41
0.0
42
0.0
10
69.6005020141602
20
79.7311019897461
40
0.0
41
0.0
42
0.0
10
69.5140991210938
20
79.7496032714844
40
0.0
41
0.0
42
0.0
10
69.0678024291992
20
79.9100036621094
40
0.0
41
0.0
42
0.0
10
69.0121994018555
20
79.9166030883789
40
0.0
41
0.0
42
0.0
10
68.9518966674805
20
79.9587020874023
40
0.0
41
0.0
42
0.0
10
68.9186019897461
20
80.0034027099609
40
0.0
41
0.0
42
0.0
10
68.9182968139648
20
80.0389022827148
40
0.0
41
0.0
42
0.0
10
68.6010971069336
20
80.5078964233398
40
0.0
41
0.0
42
0.0
10
68.5988006591797
20
80.5831985473633
40
0.0
41
0.0
42
0.0
10
68.5435028076172
20
80.9968032836914
40
0.0
41
0.0
42
0.0
10
68.5534973144531
20
81.0477981567383
40
0.0
41
0.0
42
0.0
10
68.5885009765625
20
81.4837036132812
40
0.0
41
0.0
42
0.0
10
68.6075973510742
20
81.5503005981445
40
0.0
41
0.0
42
0.0
10
68.711799621582
20
81.9865036010742
40
0.0
41
0.0
42
0.0
10
68.8920974731445
20
82.4231033325195
40
0.0
41
0.0
42
0.0
10
68.9207992553711
20
82.489501953125
40
0.0
41
0.0
42
0.0
10
69.0073013305664
20
82.6352005004883
40
0.0
41
0.0
42
0.0
10
69.2507019042969
20
82.9278030395508
40
0.0
41
0.0
42
0.0
10
69.2979965209961
20
82.9941024780273
40
0.0
41
0.0
42
0.0
10
69.4913024902344
20
83.1635971069336
40
0.0
41
0.0
42
0.0
10
69.5074996948242
20
83.1807022094727
40
0.0
41
0.0
42
0.0
10
69.9450988769531
20
83.3851013183594
40
0.0
41
0.0
42
0.0
10
70.0117034912109
20
83.4254989624023
40
0.0
41
0.0
42
0.0
10
70.040901184082
20
83.4329986572266
40
0.0
41
0.0
42
0.0
10
70.4171981811523
20
83.500602722168
40
0.0
41
0.0
42
0.0
10
70.5150985717773
20
83.5165023803711
40
0.0
41
0.0
42
0.0
10
70.9914016723633
20
83.5067977905273
40
0.0
41
0.0
42
0.0
10
71.0355987548828
20
83.5005035400391
40
0.0
41
0.0
42
0.0
10
71.5106964111328
20
83.4059982299805
40
0.0
41
0.0
42
0.0
10
71.986701965332
20
83.2270965576172
40
0.0
41
0.0
42
0.0
10
72.0130004882812
20
83.2190017700195
40
0.0
41
0.0
42
0.0
10
72.3972015380859
20
83.0111999511719
40
0.0
41
0.0
42
0.0
10
72.4280014038086
20
82.9965972900391
40
0.0
41
0.0
42
0.0
10
72.4972991943359
20
82.9005966186523
40
0.0
41
0.0
42
0.0
10
72.6523971557617
20
82.6530990600586
40
0.0
41
0.0
42
0.0
10
72.7716979980469
20
82.4879989624023
40
0.0
41
0.0
42
0.0
10
72.7602005004883
20
82.0973968505859
40
0.0
41
0.0
42
0.0
10
72.7554016113281
20
82.0178985595703
40
0.0
41
0.0
42
0.0
10
72.695198059082
20
81.586799621582
40
0.0
41
0.0
42
0.0
10
72.6818008422852
20
81.5175018310547
40
0.0
41
0.0
42
0.0
10
72.6617965698242
20
81.0690994262695
40
0.0
41
0.0
42
0.0
10
72.654296875
20
81.0184020996094
40
0.0
41
0.0
42
0.0
10
72.6541976928711
20
80.9813995361328
40
0.0
41
0.0
42
0.0
10
72.7191009521484
20
80.5308990478516
40
0.0
41
0.0
42
0.0
10
72.7186965942383
20
80.4838027954102
40
0.0
41
0.0
42
0.0
10
72.8976974487305
20
80.0235977172852
40
0.0
41
0.0
42
0.0
10
72.9023971557617
20
79.9872970581055
40
0.0
41
0.0
42
0.0
10
72.9979019165039
20
79.8385009765625
40
0.0
41
0.0
42
0.0
10
73.1816024780273
20
79.5154037475586
40
0.0
41
0.0
42
0.0
10
73.1835021972656
20
79.4858016967773
40
0.0
41
0.0
42
0.0
10
73.4167022705078
20
79.051399230957
40
0.0
41
0.0
42
0.0
10
73.4326019287109
20
78.9207992553711
40
0.0
41
0.0
42
0.0
10
73.4991989135742
20
78.779899597168
40
0.0
41
0.0
42
0.0
10
73.6153030395508
20
78.4862976074219
40
0.0
41
0.0
42
0.0
10
73.6352005004883
20
78.4059982299805
40
0.0
41
0.0
42
0.0
10
73.7242965698242
20
77.9838027954102
40
0.0
41
0.0
42
0.0
10
73.7351989746094
20
77.9158020019531
40
0.0
41
0.0
42
0.0
10
73.8191986083984
20
77.4868011474609
40
0.0
41
0.0
42
0.0
10
73.9345016479492
20
77.2571029663086
40
0.0
41
0.0
42
0.0
10
73.9259033203125
20
77.2115020751953
40
0.0
41
0.0
42
0.0
10
73.9257965087891
20
77.1906967163086
40
0.0
41
0.0
42
0.0
10
73.9953002929688
20
77.177001953125
40
0.0
41
0.0
42
0.0
10
74.0691986083984
20
76.9882965087891
40
0.0
41
0.0
42
0.0
10
74.0759963989258
20
76.9742965698242
40
0.0
41
0.0
42
0.0
10
74.1065979003906
20
76.9252014160156
40
0.0
41
0.0
42
0.0
10
74.3200988769531
20
76.494499206543
40
0.0
41
0.0
42
0.0
10
74.3504028320312
20
76.4756011962891
40
0.0
41
0.0
42
0.0
10
74.4869003295898
20
76.3701019287109
40
0.0
41
0.0
42
0.0
10
74.5796966552734
20
76.3724975585938
40
0.0
41
0.0
42
0.0
10
74.6509017944336
20
76.4085006713867
40
0.0
41
0.0
42
0.0
10
74.8919982910156
20
76.4972991943359
40
0.0
41
0.0
42
0.0
10
75.002197265625
20
76.6622009277344
40
0.0
41
0.0
42
0.0
10
75.0223999023438
20
76.6961975097656
40
0.0
41
0.0
42
0.0
10
75.1290969848633
20
76.9235992431641
40
0.0
41
0.0
42
0.0
10
75.1561965942383
20
76.986198425293
40
0.0
41
0.0
42
0.0
10
75.1681976318359
20
77.0470962524414
40
0.0
41
0.0
42
0.0
10
75.1760025024414
20
77.5831985473633
40
0.0
41
0.0
42
0.0
10
75.0969009399414
20
78.0169982910156
40
0.0
41
0.0
42
0.0
10
75.0904998779297
20
78.0818023681641
40
0.0
41
0.0
42
0.0
10
75.0014038085938
20
78.5164031982422
40
0.0
41
0.0
42
0.0
10
74.9658966064453
20
78.7828979492188
40
0.0
41
0.0
42
0.0
10
74.9393997192383
20
79.0185012817383
40
0.0
41
0.0
42
0.0
10
74.9337005615234
20
79.2348022460938
40
0.0
41
0.0
42
0.0
10
74.94580078125
20
79.4813995361328
40
0.0
41
0.0
42
0.0
10
74.9853973388672
20
79.9158020019531
40
0.0
41
0.0
42
0.0
10
74.9954986572266
20
79.9814987182617
40
0.0
41
0.0
42
0.0
10
74.9953994750977
20
80.0164031982422
40
0.0
41
0.0
42
0.0
10
74.9797973632812
20
80.0609970092773
40
0.0
41
0.0
42
0.0
10
75.0348968505859
20
80.4813003540039
40
0.0
41
0.0
42
0.0
10
75.034797668457
20
80.5195999145508
40
0.0
41
0.0
42
0.0
10
75.0184020996094
20
80.9710998535156
40
0.0
41
0.0
42
0.0
10
74.9999008178711
20
81.0385971069336
40
0.0
41
0.0
42
0.0
10
74.9675979614258
20
81.121696472168
40
0.0
41
0.0
42
0.0
10
74.855598449707
20
81.5123977661133
40
0.0
41
0.0
42
0.0
10
74.6294021606445
20
81.977897644043
40
0.0
41
0.0
42
0.0
10
74.6115036010742
20
82.0102996826172
40
0.0
41
0.0
42
0.0
10
74.5018997192383
20
82.2365036010742
40
0.0
41
0.0
42
0.0
10
74.3738021850586
20
82.4100036621094
40
0.0
41
0.0
42
0.0
10
74.3040008544922
20
82.5109024047852
40
0.0
41
0.0
42
0.0
10
74.1803970336914
20
82.9626007080078
40
0.0
41
0.0
42
0.0
10
74.1806030273438
20
82.988899230957
40
0.0
41
0.0
42
0.0
10
74.2097015380859
20
83.0173034667969
40
0.0
41
0.0
42
0.0
10
74.3968963623047
20
83.4919967651367
40
0.0
41
0.0
42
0.0
10
74.4965972900391
20
83.5854034423828
40
0.0
41
0.0
42
0.0
10
74.5324020385742
20
83.6106033325195
40
0.0
41
0.0
42
0.0
10
74.5705032348633
20
83.6410980224609
40
0.0
41
0.0
42
0.0
10
74.8942031860352
20
83.9956970214844
40
0.0
41
0.0
42
0.0
10
75.0099029541016
20
84.0787963867188
40
0.0
41
0.0
42
0.0
10
75.0740966796875
20
84.1156997680664
40
0.0
41
0.0
42
0.0
10
75.5100021362305
20
84.3939971923828
40
0.0
41
0.0
42
0.0
10
75.7511978149414
20
84.4992980957031
40
0.0
41
0.0
42
0.0
10
76.0133972167969
20
84.6067962646484
40
0.0
41
0.0
42
0.0
10
76.0804977416992
20
84.6238021850586
40
0.0
41
0.0
42
0.0
10
76.5056991577148
20
84.7018966674805
40
0.0
41
0.0
42
0.0
10
76.9160003662109
20
84.6643981933594
40
0.0
41
0.0
42
0.0
10
76.9842987060547
20
84.6640014648438
40
0.0
41
0.0
42
0.0
10
77.3295974731445
20
84.5149002075195
40
0.0
41
0.0
42
0.0
10
77.3946990966797
20
84.4928970336914
40
0.0
41
0.0
42
0.0
10
77.4909973144531
20
84.4493026733398
40
0.0
41
0.0
42
0.0
10
77.9653015136719
20
84.0673980712891
40
0.0
41
0.0
42
0.0
10
77.9937973022461
20
84.0476989746094
40
0.0
41
0.0
42
0.0
10
78.043098449707
20
83.9933013916016
40
0.0
41
0.0
42
0.0
10
78.4060974121094
20
83.5182037353516
40
0.0
41
0.0
42
0.0
10
78.4293975830078
20
83.4917984008789
40
0.0
41
0.0
42
0.0
10
78.4984970092773
20
83.3547973632812
40
0.0
41
0.0
42
0.0
10
78.6768035888672
20
83.0156021118164
40
0.0
41
0.0
42
0.0
10
78.6945037841797
20
82.9887008666992
40
0.0
41
0.0
42
0.0
10
78.8238983154297
20
82.5130004882812
40
0.0
41
0.0
42
0.0
10
78.8365020751953
20
82.4907989501953
40
0.0
41
0.0
42
0.0
10
78.7733001708984
20
82.0675964355469
40
0.0
41
0.0
42
0.0
10
78.7732009887695
20
82.0319976806641
40
0.0
41
0.0
42
0.0
10
78.7806015014648
20
82.0050964355469
40
0.0
41
0.0
42
0.0
10
78.5718002319336
20
81.7955017089844
40
0.0
41
0.0
42
0.0
10
78.4956970214844
20
81.6975021362305
40
0.0
41
0.0
42
0.0
10
78.3019027709961
20
81.5037002563477
40
0.0
41
0.0
42
0.0
10
78.111198425293
20
81.374397277832
40
0.0
41
0.0
42
0.0
10
77.9933013916016
20
81.2892990112305
40
0.0
41
0.0
42
0.0
10
77.6856994628906
20
81.004997253418
40
0.0
41
0.0
42
0.0
10
77.5637969970703
20
80.8778991699219
40
0.0
41
0.0
42
0.0
10
77.4959030151367
20
80.8159027099609
40
0.0
41
0.0
42
0.0
10
77.279899597168
20
80.5065002441406
40
0.0
41
0.0
42
0.0
10
77.2570037841797
20
80.4831008911133
40
0.0
41
0.0
42
0.0
10
77.0595016479492
20
80.0127029418945
40
0.0
41
0.0
42
0.0
10
77.0166015625
20
79.8755035400391
40
0.0
41
0.0
42
0.0
10
76.9934997558594
20
79.8508987426758
40
0.0
41
0.0
42
0.0
10
76.9050979614258
20
79.5147018432617
40
0.0
41
0.0
42
0.0
10
76.7922973632812
20
79.075798034668
40
0.0
41
0.0
42
0.0
10
76.7436981201172
20
79.0095977783203
40
0.0
41
0.0
42
0.0
10
76.5609970092773
20
78.5743026733398
40
0.0
41
0.0
42
0.0
10
76.4511032104492
20
78.4308013916016
40
0.0
41
0.0
42
0.0
10
76.2319030761719
20
78.0421981811523
40
0.0
41
0.0
42
0.0
10
76.2185974121094
20
78.0102005004883
40
0.0
41
0.0
42
0.0
10
75.9935989379883
20
77.6615982055664
40
0.0
41
0.0
42
0.0
10
75.9336013793945
20
77.6411972045898
40
0.0
41
0.0
42
0.0
10
75.8859024047852
20
77.5777969360352
40
0.0
41
0.0
42
0.0
10
75.8846969604492
20
77.5155029296875
40
0.0
41
0.0
42
0.0
10
75.7022018432617
20
77.0808029174805
40
0.0
41
0.0
42
0.0
10
75.7023010253906
20
77.0460968017578
40
0.0
41
0.0
42
0.0
10
75.7073974609375
20
76.9980010986328
40
0.0
41
0.0
42
0.0
10
75.6724014282227
20
76.584098815918
40
0.0
41
0.0
42
0.0
10
75.6723022460938
20
76.5457000732422
40
0.0
41
0.0
42
0.0
10
75.6768035888672
20
76.4838027954102
40
0.0
41
0.0
42
0.0
10
75.693000793457
20
76.4297027587891
40
0.0
41
0.0
42
0.0
10
75.7319030761719
20
76.410400390625
40
0.0
41
0.0
42
0.0
10
75.9899978637695
20
76.0919036865234
40
0.0
41
0.0
42
0.0
10
76.0156021118164
20
76.091796875
40
0.0
41
0.0
42
0.0
10
76.0756988525391
20
76.1179962158203
40
0.0
41
0.0
42
0.0
10
76.50830078125
20
76.3572006225586
40
0.0
41
0.0
42
0.0
10
76.6268005371094
20
76.4496994018555
40
0.0
41
0.0
42
0.0
10
76.7082977294922
20
76.3932037353516
40
0.0
41
0.0
42
0.0
10
76.720703125
20
76.3932037353516
40
0.0
41
0.0
42
0.0
10
76.7205963134766
20
76.4100036621094
40
0.0
41
0.0
42
0.0
10
76.7026977539062
20
76.4937973022461
40
0.0
41
0.0
42
0.0
10
77.0039978027344
20
76.836799621582
40
0.0
41
0.0
42
0.0
10
77.0775985717773
20
76.9237976074219
40
0.0
41
0.0
42
0.0
10
77.1212005615234
20
76.9334030151367
40
0.0
41
0.0
42
0.0
10
77.1503982543945
20
76.9906997680664
40
0.0
41
0.0
42
0.0
10
77.5031967163086
20
77.4982986450195
40
0.0
41
0.0
42
0.0
10
77.7451019287109
20
77.7947998046875
40
0.0
41
0.0
42
0.0
10
77.9251022338867
20
77.9943008422852
40
0.0
41
0.0
42
0.0
10
78.0059967041016
20
78.0768966674805
40
0.0
41
0.0
42
0.0
10
78.239501953125
20
78.2552032470703
40
0.0
41
0.0
42
0.0
10
78.4423980712891
20
78.4293975830078
40
0.0
41
0.0
42
0.0
10
78.4916000366211
20
78.4946975708008
40
0.0
41
0.0
42
0.0
10
78.6362991333008
20
78.6115036010742
40
0.0
41
0.0
42
0.0
10
78.8631973266602
20
78.8135986328125
40
0.0
41
0.0
42
0.0
10
79.0055999755859
20
78.9490966796875
40
0.0
41
0.0
42
0.0
10
79.0528030395508
20
78.9921035766602
40
0.0
41
0.0
42
0.0
10
79.0615997314453
20
79.0151977539062
40
0.0
41
0.0
42
0.0
10
79.4091033935547
20
79.4878005981445
40
0.0
41
0.0
42
0.0
10
79.4113006591797
20
79.5102996826172
40
0.0
41
0.0
42
0.0
10
79.481201171875
20
79.6691970825195
40
0.0
41
0.0
42
0.0
10
79.5008010864258
20
79.7098007202148
40
0.0
41
0.0
42
0.0
10
79.616096496582
20
79.9869003295898
40
0.0
41
0.0
42
0.0
10
79.7311019897461
20
80.399299621582
40
0.0
41
0.0
42
0.0
10
79.7497024536133
20
80.4857025146484
40
0.0
41
0.0
42
0.0
10
79.9100036621094
20
80.931999206543
40
0.0
41
0.0
42
0.0
10
79.9167022705078
20
80.9877014160156
40
0.0
41
0.0
42
0.0
10
79.9588012695312
20
81.0477981567383
40
0.0
41
0.0
42
0.0
10
80.0035018920898
20
81.081298828125
40
0.0
41
0.0
42
0.0
10
80.0384979248047
20
81.0811996459961
40
0.0
41
0.0
42
0.0
10
80.5122985839844
20
81.4016036987305
40
0.0
41
0.0
42
0.0
10
80.9626998901367
20
81.461799621582
40
0.0
41
0.0
42
0.0
10
80.9822998046875
20
81.4589996337891
40
0.0
41
0.0
42
0.0
10
81.4178009033203
20
81.424201965332
40
0.0
41
0.0
42
0.0
10
81.4843978881836
20
81.411003112793
40
0.0
41
0.0
42
0.0
10
81.9203033447266
20
81.3069000244141
40
0.0
41
0.0
42
0.0
10
81.9869003295898
20
81.2878036499023
40
0.0
41
0.0
42
0.0
10
82.4231033325195
20
81.1075973510742
40
0.0
41
0.0
42
0.0
10
82.489501953125
20
81.0789031982422
40
0.0
41
0.0
42
0.0
10
82.6352005004883
20
80.9924011230469
40
0.0
41
0.0
42
0.0
10
82.9276962280273
20
80.7490997314453
40
0.0
41
0.0
42
0.0
10
82.9941024780273
20
80.7017974853516
40
0.0
41
0.0
42
0.0
10
83.1634979248047
20
80.5084991455078
40
0.0
41
0.0
42
0.0
10
83.1806030273438
20
80.4925003051758
40
0.0
41
0.0
42
0.0
10
83.3850021362305
20
80.054801940918
40
0.0
41
0.0
42
0.0
10
83.4254989624023
20
79.9881973266602
40
0.0
41
0.0
42
0.0
10
83.4329986572266
20
79.9589004516602
40
0.0
41
0.0
42
0.0
10
83.500602722168
20
79.5826034545898
40
0.0
41
0.0
42
0.0
10
83.5165023803711
20
79.4848022460938
40
0.0
41
0.0
42
0.0
10
83.5067977905273
20
79.0083999633789
40
0.0
41
0.0
42
0.0
10
83.500602722168
20
78.9642028808594
40
0.0
41
0.0
42
0.0
10
83.4060974121094
20
78.4891967773438
40
0.0
41
0.0
42
0.0
10
83.2270965576172
20
78.0131988525391
40
0.0
41
0.0
42
0.0
10
83.2191009521484
20
77.9868011474609
40
0.0
41
0.0
42
0.0
10
83.0112991333008
20
77.6025009155273
40
0.0
41
0.0
42
0.0
10
82.9965972900391
20
77.5718002319336
40
0.0
41
0.0
42
0.0
10
82.9007034301758
20
77.5025024414062
40
0.0
41
0.0
42
0.0
10
82.6531982421875
20
77.347297668457
40
0.0
41
0.0
42
0.0
10
82.4880981445312
20
77.2279968261719
40
0.0
41
0.0
42
0.0
10
82.0973968505859
20
77.2396011352539
40
0.0
41
0.0
42
0.0
10
82.0178985595703
20
77.2443008422852
40
0.0
41
0.0
42
0.0
10
81.586799621582
20
77.3044967651367
40
0.0
41
0.0
42
0.0
10
81.5175018310547
20
77.3179016113281
40
0.0
41
0.0
42
0.0
10
81.0690994262695
20
77.3378982543945
40
0.0
41
0.0
42
0.0
10
81.0184020996094
20
77.3455963134766
40
0.0
41
0.0
42
0.0
10
80.9814987182617
20
77.3454971313477
40
0.0
41
0.0
42
0.0
10
80.5308990478516
20
77.2806015014648
40
0.0
41
0.0
42
0.0
10
80.4838027954102
20
77.2809982299805
40
0.0
41
0.0
42
0.0
10
80.0235977172852
20
77.1019973754883
40
0.0
41
0.0
42
0.0
10
79.9872970581055
20
77.097297668457
40
0.0
41
0.0
42
0.0
10
79.8385009765625
20
77.0019989013672
40
0.0
41
0.0
42
0.0
10
79.5154037475586
20
76.8180999755859
40
0.0
41
0.0
42
0.0
10
79.4817962646484
20
76.8160018920898
40
0.0
41
0.0
42
0.0
10
79.4214019775391
20
76.8090972900391
40
0.0
41
0.0
42
0.0
10
78.9865036010742
20
76.5756988525391
40
0.0
41
0.0
42
0.0
10
78.9208984375
20
76.5672988891602
40
0.0
41
0.0
42
0.0
10
78.779899597168
20
76.500602722168
40
0.0
41
0.0
42
0.0
10
78.4863967895508
20
76.3843994140625
40
0.0
41
0.0
42
0.0
10
78.4059982299805
20
76.364501953125
40
0.0
41
0.0
42
0.0
10
77.9838027954102
20
76.2753982543945
40
0.0
41
0.0
42
0.0
10
77.9208984375
20
76.2655029296875
40
0.0
41
0.0
42
0.0
10
77.4980010986328
20
76.1827011108398
40
0.0
41
0.0
42
0.0
10
77.4674987792969
20
76.1827011108398
40
0.0
41
0.0
42
0.0
10
77.3840026855469
20
76.1093978881836
40
0.0
41
0.0
42
0.0
10
77.1661987304688
20
76.0001983642578
40
0.0
41
0.0
42
0.0
10
76.9783020019531
20
75.9256973266602
40
0.0
41
0.0
42
0.0
10
76.9251022338867
20
75.8930969238281
40
0.0
41
0.0
42
0.0
10
76.494499206543
20
75.6797027587891
40
0.0
41
0.0
42
0.0
10
76.4756011962891
20
75.6493988037109
40
0.0
41
0.0
42
0.0
10
76.3701019287109
20
75.5128021240234
40
0.0
41
0.0
42
0.0
10
76.370002746582
20
75.4804000854492
40
0.0
41
0.0
42
0.0
10
76.3723983764648
20
75.4203033447266
40
0.0
41
0.0
42
0.0
10
76.4085006713867
20
75.3488998413086
40
0.0
41
0.0
42
0.0
10
76.497200012207
20
75.1078033447266
40
0.0
41
0.0
42
0.0
10
76.6622009277344
20
74.9977035522461
40
0.0
41
0.0
42
0.0
10
76.6960983276367
20
74.9773025512695
40
0.0
41
0.0
42
0.0
10
76.9235992431641
20
74.8705978393555
40
0.0
41
0.0
42
0.0
10
76.9843978881836
20
74.8442001342773
40
0.0
41
0.0
42
0.0
10
77.4170989990234
20
74.8382034301758
40
0.0
41
0.0
42
0.0
10
77.4820022583008
20
74.8255996704102
40
0.0
41
0.0
42
0.0
10
77.5180969238281
20
74.8255004882812
40
0.0
41
0.0
42
0.0
10
77.9480972290039
20
74.9039001464844
40
0.0
41
0.0
42
0.0
10
78.0190963745117
20
74.9029998779297
40
0.0
41
0.0
42
0.0
10
78.0818023681641
20
74.9092025756836
40
0.0
41
0.0
42
0.0
10
78.5164031982422
20
74.9982986450195
40
0.0
41
0.0
42
0.0
10
78.7828979492188
20
75.0338973999023
40
0.0
41
0.0
42
0.0
10
79.0185012817383
20
75.060302734375
40
0.0
41
0.0
42
0.0
10
79.2348022460938
20
75.0660018920898
40
0.0
41
0.0
42
0.0
10
79.4813995361328
20
75.0539016723633
40
0.0
41
0.0
42
0.0
10
79.9158020019531
20
75.0142974853516
40
0.0
41
0.0
42
0.0
10
79.9814987182617
20
75.0044021606445
40
0.0
41
0.0
42
0.0
10
80.0164031982422
20
75.0044021606445
40
0.0
41
0.0
42
0.0
10
80.0609970092773
20
75.0197982788086
40
0.0
41
0.0
42
0.0
10
80.2157974243164
20
75.0008010864258
40
0.0
41
0.0
42
0.0
10
80.4813995361328
20
74.9649963378906
40
0.0
41
0.0
42
0.0
10
80.5195999145508
20
74.9648971557617
40
0.0
41
0.0
42
0.0
10
80.9710998535156
20
74.9813003540039
40
0.0
41
0.0
42
0.0
10
81.0887985229492
20
75.0142974853516
40
0.0
41
0.0
42
0.0
10
81.1045989990234
20
75.0242004394531
40
0.0
41
0.0
42
0.0
10
81.503303527832
20
75.1386032104492
40
0.0
41
0.0
42
0.0
10
81.977897644043
20
75.3703002929688
40
0.0
41
0.0
42
0.0
10
82.0102996826172
20
75.3881988525391
40
0.0
41
0.0
42
0.0
10
82.2365036010742
20
75.4980010986328
40
0.0
41
0.0
42
0.0
10
82.4101028442383
20
75.6259002685547
40
0.0
41
0.0
42
0.0
10
82.5110015869141
20
75.6957015991211
40
0.0
41
0.0
42
0.0
10
82.9626007080078
20
75.8192977905273
40
0.0
41
0.0
42
0.0
10
82.9888000488281
20
75.8190994262695
40
0.0
41
0.0
42
0.0
10
83.0171966552734
20
75.7900009155273
40
0.0
41
0.0
42
0.0
10
83.4919967651367
20
75.6027984619141
40
0.0
41
0.0
42
0.0
10
83.5854034423828
20
75.5031967163086
40
0.0
41
0.0
42
0.0
10
83.6104965209961
20
75.4675979614258
40
0.0
41
0.0
42
0.0
10
83.6456985473633
20
75.4245986938477
40
0.0
41
0.0
42
0.0
10
83.9956970214844
20
75.1054992675781
40
0.0
41
0.0
42
0.0
10
84.0777969360352
20
74.9913024902344
40
0.0
41
0.0
42
0.0
10
84.1156997680664
20
74.9257965087891
40
0.0
41
0.0
42
0.0
10
84.3939971923828
20
74.4897994995117
40
0.0
41
0.0
42
0.0
10
84.4991989135742
20
74.2485961914062
40
0.0
41
0.0
42
0.0
10
84.6067962646484
20
73.9865036010742
40
0.0
41
0.0
42
0.0
10
84.6238021850586
20
73.9194030761719
40
0.0
41
0.0
42
0.0
10
84.7018966674805
20
73.4942016601562
40
0.0
41
0.0
42
0.0
10
84.6643981933594
20
73.0839004516602
40
0.0
41
0.0
42
0.0
10
84.6641006469727
20
73.0156021118164
40
0.0
41
0.0
42
0.0
10
84.5149002075195
20
72.6701965332031
40
0.0
41
0.0
42
0.0
10
84.4928970336914
20
72.6050033569336
40
0.0
41
0.0
42
0.0
10
84.4494018554688
20
72.508903503418
40
0.0
41
0.0
42
0.0
10
84.065803527832
20
72.0324020385742
40
0.0
41
0.0
42
0.0
10
84.0477981567383
20
72.0059967041016
40
0.0
41
0.0
42
0.0
10
83.9934005737305
20
71.9565963745117
40
0.0
41
0.0
42
0.0
10
83.5183029174805
20
71.5935974121094
40
0.0
41
0.0
42
0.0
10
83.4917984008789
20
71.5702972412109
40
0.0
41
0.0
42
0.0
10
83.3548965454102
20
71.5012969970703
40
0.0
41
0.0
42
0.0
10
83.0156021118164
20
71.3228988647461
40
0.0
41
0.0
42
0.0
10
82.9887008666992
20
71.3051986694336
40
0.0
41
0.0
42
0.0
10
82.5130004882812
20
71.1757965087891
40
0.0
41
0.0
42
0.0
10
82.4907989501953
20
71.163200378418
40
0.0
41
0.0
42
0.0
10
82.0675964355469
20
71.2266006469727
40
0.0
41
0.0
42
0.0
10
82.0319976806641
20
71.2265014648438
40
0.0
41
0.0
42
0.0
10
82.004997253418
20
71.2191009521484
40
0.0
41
0.0
42
0.0
10
81.7954025268555
20
71.4279022216797
40
0.0
41
0.0
42
0.0
10
81.6975021362305
20
71.5040969848633
40
0.0
41
0.0
42
0.0
10
81.5037002563477
20
71.6978988647461
40
0.0
41
0.0
42
0.0
10
81.374397277832
20
71.8886032104492
40
0.0
41
0.0
42
0.0
10
81.2892990112305
20
72.0065994262695
40
0.0
41
0.0
42
0.0
10
81.0048980712891
20
72.3141021728516
40
0.0
41
0.0
42
0.0
10
80.877799987793
20
72.4358978271484
40
0.0
41
0.0
42
0.0
10
80.815803527832
20
72.5039978027344
40
0.0
41
0.0
42
0.0
10
80.5065002441406
20
72.7198028564453
40
0.0
41
0.0
42
0.0
10
80.4831008911133
20
72.7426986694336
40
0.0
41
0.0
42
0.0
10
80.0127029418945
20
72.9402008056641
40
0.0
41
0.0
42
0.0
10
79.8755035400391
20
72.9832000732422
40
0.0
41
0.0
42
0.0
10
79.8507995605469
20
73.0062026977539
40
0.0
41
0.0
42
0.0
10
79.5106964111328
20
73.095703125
40
0.0
41
0.0
42
0.0
10
79.44580078125
20
73.1432037353516
40
0.0
41
0.0
42
0.0
10
79.0131988525391
20
73.2544021606445
40
0.0
41
0.0
42
0.0
10
78.5743026733398
20
73.4386978149414
40
0.0
41
0.0
42
0.0
10
78.4307022094727
20
73.548698425293
40
0.0
41
0.0
42
0.0
10
78.0421981811523
20
73.7677993774414
40
0.0
41
0.0
42
0.0
10
78.0101013183594
20
73.7810974121094
40
0.0
41
0.0
42
0.0
10
77.6615982055664
20
74.0062026977539
40
0.0
41
0.0
42
0.0
10
77.6411972045898
20
74.0662002563477
40
0.0
41
0.0
42
0.0
10
77.5777969360352
20
74.1137008666992
40
0.0
41
0.0
42
0.0
10
77.4809036254883
20
74.1148986816406
40
0.0
41
0.0
42
0.0
10
77.4437026977539
20
74.1109008789062
40
0.0
41
0.0
42
0.0
10
77.0157012939453
20
74.2907028198242
40
0.0
41
0.0
42
0.0
10
76.9806976318359
20
74.2906036376953
40
0.0
41
0.0
42
0.0
10
76.9364013671875
20
74.2873001098633
40
0.0
41
0.0
42
0.0
10
76.5190963745117
20
74.3227996826172
40
0.0
41
0.0
42
0.0
10
76.4830017089844
20
74.3227005004883
40
0.0
41
0.0
42
0.0
10
76.4297027587891
20
74.3067016601562
40
0.0
41
0.0
42
0.0
10
76.4104995727539
20
74.2678985595703
40
0.0
41
0.0
42
0.0
10
76.0919036865234
20
74.0099029541016
40
0.0
41
0.0
42
0.0
10
76.091796875
20
73.9842987060547
40
0.0
41
0.0
42
0.0
10
76.1178970336914
20
73.924201965332
40
0.0
41
0.0
42
0.0
10
76.3572006225586
20
73.4915008544922
40
0.0
41
0.0
42
0.0
10
76.4497985839844
20
73.3730010986328
40
0.0
41
0.0
42
0.0
10
76.3932037353516
20
73.2914962768555
40
0.0
41
0.0
42
0.0
10
76.3932037353516
20
73.2791976928711
40
0.0
41
0.0
42
0.0
10
76.4100036621094
20
73.2790985107422
40
0.0
41
0.0
42
0.0
10
76.4936981201172
20
73.2969970703125
40
0.0
41
0.0
42
0.0
10
76.8338012695312
20
72.9982986450195
40
0.0
41
0.0
42
0.0
10
76.9192962646484
20
72.9260025024414
40
0.0
41
0.0
42
0.0
10
76.9936981201172
20
72.8473968505859
40
0.0
41
0.0
42
0.0
10
77.4981994628906
20
72.4965972900391
40
0.0
41
0.0
42
0.0
10
77.7947998046875
20
72.2546997070312
40
0.0
41
0.0
42
0.0
10
77.9943008422852
20
72.0746002197266
40
0.0
41
0.0
42
0.0
10
78.0767974853516
20
71.9937973022461
40
0.0
41
0.0
42
0.0
10
78.2547988891602
20
71.7605972290039
40
0.0
41
0.0
42
0.0
10
78.4956970214844
20
71.5067977905273
40
0.0
41
0.0
42
0.0
10
78.6115036010742
20
71.3635025024414
40
0.0
41
0.0
42
0.0
10
78.8134994506836
20
71.1363983154297
40
0.0
41
0.0
42
0.0
10
78.9413986206055
20
71.0007019042969
40
0.0
41
0.0
42
0.0
10
78.9481964111328
20
70.9952011108398
40
0.0
41
0.0
42
0.0
10
78.9921035766602
20
70.9469985961914
40
0.0
41
0.0
42
0.0
10
79.0150985717773
20
70.938102722168
40
0.0
41
0.0
42
0.0
10
79.4877014160156
20
70.5905990600586
40
0.0
41
0.0
42
0.0
10
79.5102996826172
20
70.5884017944336
40
0.0
41
0.0
42
0.0
10
79.6691970825195
20
70.5185012817383
40
0.0
41
0.0
42
0.0
10
79.7098007202148
20
70.4990005493164
40
0.0
41
0.0
42
0.0
10
79.9868011474609
20
70.3835983276367
40
0.0
41
0.0
42
0.0
10
80.399299621582
20
70.2686004638672
40
0.0
41
0.0
42
0.0
10
80.4857025146484
20
70.25
40
0.0
41
0.0
42
0.0
10
80.931999206543
20
70.0896987915039
40
0.0
41
0.0
42
0.0
10
80.9877014160156
20
70.0830993652344
40
0.0
41
0.0
42
0.0
10
81.0477981567383
20
70.0410003662109
40
0.0
41
0.0
42
0.0
10
81.081298828125
20
69.9962997436523
40
0.0
41
0.0
42
0.0
10
81.0811004638672
20
69.9613037109375
40
0.0
41
0.0
42
0.0
10
81.4016036987305
20
69.4876022338867
40
0.0
41
0.0
42
0.0
10
81.461799621582
20
69.0372009277344
40
0.0
41
0.0
42
0.0
10
81.4589996337891
20
69.0176010131836
40
0.0
41
0.0
42
0.0
10
81.424201965332
20
68.5820999145508
40
0.0
41
0.0
42
0.0
10
81.4111022949219
20
68.5155029296875
40
0.0
41
0.0
42
0.0
10
81.3069000244141
20
68.0795974731445
40
0.0
41
0.0
42
0.0
10
81.2878036499023
20
68.0130004882812
40
0.0
41
0.0
42
0.0
10
81.1076965332031
20
67.5767974853516
40
0.0
41
0.0
42
0.0
10
81.0790023803711
20
67.5103988647461
40
0.0
41
0.0
42
0.0
10
80.9925003051758
20
67.3646011352539
40
0.0
41
0.0
42
0.0
10
80.7490997314453
20
67.0720977783203
40
0.0
41
0.0
42
0.0
10
80.7017974853516
20
67.0057983398438
40
0.0
41
0.0
42
0.0
10
80.5085983276367
20
66.8361968994141
40
0.0
41
0.0
42
0.0
10
80.4933013916016
20
66.8199996948242
40
0.0
41
0.0
42
0.0
10
80.4248962402344
20
66.7785034179688
40
0.0
41
0.0
42
0.0
10
79.9870986938477
20
66.5739974975586
40
0.0
41
0.0
42
0.0
10
79.9589004516602
20
66.5667037963867
40
0.0
41
0.0
42
0.0
10
79.5839004516602
20
66.499397277832
40
0.0
41
0.0
42
0.0
10
79.4814987182617
20
66.4823989868164
40
0.0
41
0.0
42
0.0
10
79.0183029174805
20
66.4917984008789
40
0.0
41
0.0
42
0.0
10
78.9643020629883
20
66.4991989135742
40
0.0
41
0.0
42
0.0
10
78.4891967773438
20
66.5935974121094
40
0.0
41
0.0
42
0.0
10
78.0131988525391
20
66.7725982666016
40
0.0
41
0.0
42
0.0
10
77.9868011474609
20
66.7806015014648
40
0.0
41
0.0
42
0.0
10
77.6024017333984
20
66.9884033203125
40
0.0
41
0.0
42
0.0
10
77.5717010498047
20
67.0031967163086
40
0.0
41
0.0
42
0.0
10
77.5025024414062
20
67.0990982055664
40
0.0
41
0.0
42
0.0
10
77.347297668457
20
67.3467025756836
40
0.0
41
0.0
42
0.0
10
77.2279968261719
20
67.5118026733398
40
0.0
41
0.0
42
0.0
10
77.2396011352539
20
67.9023971557617
40
0.0
41
0.0
42
0.0
10
77.2443008422852
20
67.9820022583008
40
0.0
41
0.0
42
0.0
10
77.3046035766602
20
68.4130020141602
40
0.0
41
0.0
42
0.0
10
77.3179016113281
20
68.4823989868164
40
0.0
41
0.0
42
0.0
10
77.3378982543945
20
68.9307022094727
40
0.0
41
0.0
42
0.0
10
77.3455963134766
20
68.9814987182617
40
0.0
41
0.0
42
0.0
10
77.3454971313477
20
69.0184020996094
40
0.0
41
0.0
42
0.0
10
77.2806015014648
20
69.4689025878906
40
0.0
41
0.0
42
0.0
10
77.2809982299805
20
69.5160980224609
40
0.0
41
0.0
42
0.0
10
77.1019973754883
20
69.9761962890625
40
0.0
41
0.0
42
0.0
10
77.097297668457
20
70.0126037597656
40
0.0
41
0.0
42
0.0
10
77.0018997192383
20
70.1613006591797
40
0.0
41
0.0
42
0.0
10
76.818000793457
20
70.4844970703125
40
0.0
41
0.0
42
0.0
10
76.8160018920898
20
70.5180969238281
40
0.0
41
0.0
42
0.0
10
76.8089981079102
20
70.578498840332
40
0.0
41
0.0
42
0.0
10
76.5755996704102
20
71.0133972167969
40
0.0
41
0.0
42
0.0
10
76.5671997070312
20
71.0790023803711
40
0.0
41
0.0
42
0.0
10
76.500602722168
20
71.2199020385742
40
0.0
41
0.0
42
0.0
10
76.3843994140625
20
71.5134963989258
40
0.0
41
0.0
42
0.0
10
76.364501953125
20
71.5936965942383
40
0.0
41
0.0
42
0.0
10
76.2753982543945
20
72.0160980224609
40
0.0
41
0.0
42
0.0
10
76.2645034790039
20
72.0839004516602
40
0.0
41
0.0
42
0.0
10
76.1803970336914
20
72.5130996704102
40
0.0
41
0.0
42
0.0
10
76.0652008056641
20
72.7426986694336
40
0.0
41
0.0
42
0.0
10
76.0739974975586
20
72.7882995605469
40
0.0
41
0.0
42
0.0
10
76.0737991333008
20
72.8089981079102
40
0.0
41
0.0
42
0.0
10
76.0046005249023
20
72.8227005004883
40
0.0
41
0.0
42
0.0
10
75.9304962158203
20
73.0114974975586
40
0.0
41
0.0
42
0.0
10
75.923698425293
20
73.0253982543945
40
0.0
41
0.0
42
0.0
10
75.8930969238281
20
73.0746994018555
40
0.0
41
0.0
42
0.0
10
75.6796035766602
20
73.5052032470703
40
0.0
41
0.0
42
0.0
10
75.6493988037109
20
73.5241012573242
40
0.0
41
0.0
42
0.0
10
75.5130004882812
20
73.6296005249023
40
0.0
41
0.0
42
0.0
10
75.4201965332031
20
73.6272964477539
40
0.0
41
0.0
42
0.0
10
75.3489990234375
20
73.5912017822266
40
0.0
41
0.0
42
0.0
10
75.1078033447266
20
73.5026016235352
40
0.0
41
0.0
42
0.0
10
74.9977035522461
20
73.3376007080078
40
0.0
41
0.0
42
0.0
10
74.9773025512695
20
73.303596496582
40
0.0
41
0.0
42
0.0
10
74.8706970214844
20
73.076301574707
40
0.0
41
0.0
42
0.0
10
74.8442001342773
20
73.0155029296875
40
0.0
41
0.0
42
0.0
10
74.8382034301758
20
72.5828018188477
40
0.0
41
0.0
42
0.0
10
74.8255996704102
20
72.5178985595703
40
0.0
41
0.0
42
0.0
10
74.8255004882812
20
72.4817962646484
40
0.0
41
0.0
42
0.0
10
74.9039001464844
20
72.0518035888672
40
0.0
41
0.0
42
0.0
10
74.9029998779297
20
71.9807968139648
40
0.0
41
0.0
42
0.0
10
74.9092025756836
20
71.918098449707
40
0.0
41
0.0
42
0.0
10
74.9981994628906
20
71.4834976196289
40
0.0
41
0.0
42
0.0
10
75.0338973999023
20
71.2169036865234
40
0.0
41
0.0
42
0.0
10
75.060302734375
20
70.9813995361328
40
0.0
41
0.0
42
0.0
10
75.0660018920898
20
70.7649993896484
40
0.0
41
0.0
42
0.0
10
75.0539016723633
20
70.5185012817383
40
0.0
41
0.0
42
0.0
10
75.0143966674805
20
70.0839996337891
40
0.0
41
0.0
42
0.0
10
75.0044021606445
20
70.0184020996094
40
0.0
41
0.0
42
0.0
10
75.0043029785156
20
69.9834976196289
40
0.0
41
0.0
42
0.0
10
75.0198974609375
20
69.9389038085938
40
0.0
41
0.0
42
0.0
10
75.0008010864258
20
69.7839965820312
40
0.0
41
0.0
42
0.0
10
74.9649963378906
20
69.5185012817383
40
0.0
41
0.0
42
0.0
10
74.9648971557617
20
69.4803009033203
40
0.0
41
0.0
42
0.0
10
74.9813003540039
20
69.0287017822266
40
0.0
41
0.0
42
0.0
10
75.0141983032227
20
68.911003112793
40
0.0
41
0.0
42
0.0
10
75.0242004394531
20
68.8952026367188
40
0.0
41
0.0
42
0.0
10
75.1386032104492
20
68.4964981079102
40
0.0
41
0.0
42
0.0
10
75.3703002929688
20
68.0218963623047
40
0.0
41
0.0
42
0.0
10
75.3881988525391
20
67.9896011352539
40
0.0
41
0.0
42
0.0
10
75.4980010986328
20
67.7631988525391
40
0.0
41
0.0
42
0.0
10
75.6259002685547
20
67.5896987915039
40
0.0
41
0.0
42
0.0
10
75.6957015991211
20
67.488899230957
40
0.0
41
0.0
42
0.0
10
75.8192977905273
20
67.0372009277344
40
0.0
41
0.0
42
0.0
10
75.8191986083984
20
67.0110015869141
40
0.0
41
0.0
42
0.0
10
75.7901992797852
20
66.9830017089844
40
0.0
41
0.0
42
0.0
10
75.6027984619141
20
66.507698059082
40
0.0
41
0.0
42
0.0
10
75.5031967163086
20
66.4142990112305
40
0.0
41
0.0
42
0.0
10
75.4676971435547
20
66.3892974853516
40
0.0
41
0.0
42
0.0
10
75.4246978759766
20
66.3541030883789
40
0.0
41
0.0
42
0.0
10
75.105598449707
20
66.0042037963867
40
0.0
41
0.0
42
0.0
10
74.9914016723633
20
65.9217987060547
40
0.0
41
0.0
42
0.0
10
74.9257965087891
20
65.8842010498047
40
0.0
41
0.0
42
0.0
10
74.4898986816406
20
65.6057968139648
40
0.0
41
0.0
42
0.0
10
74.2487030029297
20
65.500602722168
40
0.0
41
0.0
42
0.0
10
73.9866027832031
20
65.3928985595703
40
0.0
41
0.0
42
0.0
10
73.9194030761719
20
65.3759002685547
40
0.0
41
0.0
42
0.0
10
73.4829025268555
20
65.2957992553711
40
0.0
41
0.0
42
0.0
10
73.4539031982422
20
65.2959976196289
40
0.0
41
0.0
42
0.0
10
73.0147018432617
20
65.3359985351562
40
0.0
41
0.0
42
0.0
10
72.6701965332031
20
65.4848022460938
40
0.0
41
0.0
42
0.0
10
72.6050033569336
20
65.5067977905273
40
0.0
41
0.0
42
0.0
10
72.5095977783203
20
65.5500030517578
40
0.0
41
0.0
42
0.0
10
72.4811019897461
20
65.5695037841797
40
0.0
41
0.0
42
0.0
10
72.0054016113281
20
65.9525985717773
40
0.0
41
0.0
42
0.0
10
71.9565963745117
20
66.0065002441406
40
0.0
41
0.0
42
0.0
10
71.5935974121094
20
66.4815979003906
40
0.0
41
0.0
42
0.0
10
71.5702972412109
20
66.5081024169922
40
0.0
41
0.0
42
0.0
10
71.5012969970703
20
66.6448974609375
40
0.0
41
0.0
42
0.0
10
71.3228988647461
20
66.9841995239258
40
0.0
41
0.0
42
0.0
10
71.3051986694336
20
67.0111999511719
40
0.0
41
0.0
42
0.0
10
71.1756973266602
20
67.4869003295898
40
0.0
41
0.0
42
0.0
10
71.163200378418
20
67.5091018676758
40
0.0
41
0.0
42
0.0
10
71.2266006469727
20
67.9321975708008
40
0.0
41
0.0
42
0.0
10
71.2265014648438
20
67.9677963256836
40
0.0
41
0.0
42
0.0
10
71.2192001342773
20
67.9949035644531
40
0.0
41
0.0
42
0.0
10
71.4280014038086
20
68.2042999267578
40
0.0
41
0.0
42
0.0
10
71.5042037963867
20
68.3022994995117
40
0.0
41
0.0
42
0.0
10
71.6978988647461
20
68.4962005615234
40
0.0
41
0.0
42
0.0
10
71.8886032104492
20
68.6252975463867
40
0.0
41
0.0
42
0.0
10
72.0065994262695
20
68.7105026245117
40
0.0
41
0.0
42
0.0
10
72.3141021728516
20
68.9949035644531
40
0.0
41
0.0
42
0.0
10
72.4359970092773
20
69.1219024658203
40
0.0
41
0.0
42
0.0
10
72.5039978027344
20
69.1838989257812
40
0.0
41
0.0
42
0.0
10
72.7199020385742
20
69.4934005737305
40
0.0
41
0.0
42
0.0
10
72.7426986694336
20
69.5167999267578
40
0.0
41
0.0
42
0.0
10
72.940299987793
20
69.9871978759766
40
0.0
41
0.0
42
0.0
10
72.9832000732422
20
70.1242980957031
40
0.0
41
0.0
42
0.0
10
73.0062026977539
20
70.1490020751953
40
0.0
41
0.0
42
0.0
10
73.095703125
20
70.4891967773438
40
0.0
41
0.0
42
0.0
10
73.1433029174805
20
70.5541000366211
40
0.0
41
0.0
42
0.0
10
73.2545013427734
20
70.986701965332
40
0.0
41
0.0
42
0.0
10
73.4386978149414
20
71.4255981445312
40
0.0
41
0.0
42
0.0
10
73.5024032592773
20
71.5078964233398
40
0.0
41
0.0
42
0.0
10
73.5442962646484
20
71.5821990966797
40
0.0
41
0.0
42
0.0
10
73.7498016357422
20
71.9248962402344
40
0.0
41
0.0
42
0.0
10
73.7815017700195
20
71.9903030395508
40
0.0
41
0.0
42
0.0
10
74.0063018798828
20
72.3380966186523
40
0.0
41
0.0
42
0.0
10
74.0662002563477
20
72.3585968017578
40
0.0
41
0.0
42
0.0
10
74.1137008666992
20
72.4220962524414
40
0.0
41
0.0
42
0.0
10
74.1148986816406
20
72.5189971923828
40
0.0
41
0.0
42
0.0
10
74.1110000610352
20
72.5561981201172
40
0.0
41
0.0
42
0.0
10
74.2907028198242
20
72.9841995239258
40
0.0
41
0.0
42
0.0
10
74.2906036376953
20
73.0192031860352
40
0.0
41
0.0
42
0.0
10
74.2873001098633
20
73.0634994506836
40
0.0
41
0.0
42
0.0
10
74.3227996826172
20
73.4807968139648
40
0.0
41
0.0
42
0.0
10
74.3226013183594
20
73.5168991088867
40
0.0
41
0.0
42
0.0
10
74.3067016601562
20
73.5700988769531
40
0.0
41
0.0
42
0.0
10
74.2677993774414
20
73.5894012451172
40
0.0
41
0.0
42
0.0
10
74.0099029541016
20
73.9079971313477
40
0.0
41
0.0
42
0.0
10
73.9842987060547
20
73.9078979492188
40
0.0
41
0.0
42
0.0
10
73.924201965332
20
73.8817977905273
40
0.0
41
0.0
42
0.0
10
73.4991989135742
20
73.6468963623047
40
0.0
41
0.0
42
0.0
10
73.4660034179688
20
73.6629028320312
40
0.0
41
0.0
42
0.0
10
73.4450988769531
20
73.6628036499023
40
0.0
41
0.0
42
0.0
10
73.4224014282227
20
73.6035995483398
40
0.0
41
0.0
42
0.0
10
73.2957000732422
20
73.5046005249023
40
0.0
41
0.0
42
0.0
10
72.9908981323242
20
73.1574020385742
40
0.0
41
0.0
42
0.0
10
72.9462966918945
20
73.1492004394531
40
0.0
41
0.0
42
0.0
10
72.8789978027344
20
73.0696029663086
40
0.0
41
0.0
42
0.0
10
72.8625030517578
20
73.0589981079102
40
0.0
41
0.0
42
0.0
10
72.8508987426758
20
73.0111999511719
40
0.0
41
0.0
42
0.0
10
72.496696472168
20
72.5015029907227
40
0.0
41
0.0
42
0.0
10
72.2547988891602
20
72.2050018310547
40
0.0
41
0.0
42
0.0
10
72.0746994018555
20
72.0055999755859
40
0.0
41
0.0
42
0.0
10
71.9954986572266
20
71.9244995117188
40
0.0
41
0.0
42
0.0
10
71.9477005004883
20
71.8682022094727
40
0.0
41
0.0
42
0.0
10
71.5580978393555
20
71.5707015991211
40
0.0
41
0.0
42
0.0
10
71.5408020019531
20
71.5411987304688
40
0.0
41
0.0
42
0.0
10
71.5075988769531
20
71.5047988891602
40
0.0
41
0.0
42
0.0
10
71.4949035644531
20
71.4941024780273
40
0.0
41
0.0
42
0.0
10
71.4739990234375
20
71.4692001342773
40
0.0
41
0.0
42
0.0
10
71.3427963256836
20
71.3314971923828
40
0.0
41
0.0
42
0.0
10
70.9935989379883
20
71.0501022338867
40
0.0
41
0.0
42
0.0
10
70.9469985961914
20
71.0077972412109
40
0.0
41
0.0
42
0.0
10
70.938102722168
20
70.9847030639648
40
0.0
41
0.0
42
0.0
10
70.5905990600586
20
70.5121994018555
40
0.0
41
0.0
42
0.0
10
70.5884017944336
20
70.489501953125
40
0.0
41
0.0
42
0.0
10
70.5185012817383
20
70.3305969238281
40
0.0
41
0.0
42
0.0
10
70.4990997314453
20
70.2900009155273
40
0.0
41
0.0
42
0.0
10
70.3835983276367
20
70.0130996704102
40
0.0
41
0.0
42
0.0
10
70.2686004638672
20
69.6005020141602
40
0.0
41
0.0
42
0.0
10
70.2500991821289
20
69.5141983032227
40
0.0
41
0.0
42
0.0
10
70.0896987915039
20
69.0678024291992
40
0.0
41
0.0
42
0.0
10
70.0830993652344
20
69.0121994018555
40
0.0
41
0.0
42
0.0
10
70.0410995483398
20
68.9518966674805
40
0.0
41
0.0
42
0.0
10
69.9963989257812
20
68.9186019897461
40
0.0
41
0.0
42
0.0
10
69.9608993530273
20
68.9182968139648
40
0.0
41
0.0
42
0.0
10
69.4919967651367
20
68.6010971069336
40
0.0
41
0.0
42
0.0
10
69.4167022705078
20
68.5988006591797
40
0.0
41
0.0
42
0.0
10
69.0030975341797
20
68.5435028076172
40
0.0
41
0.0
42
0.0
10
68.9521026611328
20
68.5533981323242
40
0.0
41
0.0
42
0.0
10
68.5161972045898
20
68.5884017944336
40
0.0
41
0.0
42
0.0
10
68.4496002197266
20
68.6075973510742
40
0.0
41
0.0
42
0.0
10
68.0133972167969
20
68.711799621582
40
0.0
41
0.0
42
0.0
10
67.5767974853516
20
68.8920974731445
40
0.0
41
0.0
42
0.0
10
67.5102996826172
20
68.9207000732422
40
0.0
41
0.0
42
0.0
10
67.364501953125
20
69.0073013305664
40
0.0
41
0.0
42
0.0
10
67.0720977783203
20
69.250602722168
40
0.0
41
0.0
42
0.0
10
67.0056991577148
20
69.2978973388672
40
0.0
41
0.0
42
0.0
10
66.8360977172852
20
69.4912033081055
40
0.0
41
0.0
42
0.0
10
66.8199005126953
20
69.5065994262695
40
0.0
41
0.0
42
0.0
10
66.7783966064453
20
69.5749969482422
40
0.0
41
0.0
42
0.0
10
66.5738983154297
20
70.0128021240234
40
0.0
41
0.0
42
0.0
10
66.5667037963867
20
70.0408020019531
40
0.0
41
0.0
42
0.0
10
66.499397277832
20
70.415901184082
40
0.0
41
0.0
42
0.0
10
66.4823989868164
20
70.5184020996094
40
0.0
41
0.0
42
0.0
10
66.4917984008789
20
70.9815979003906
40
0.0
41
0.0
42
0.0
10
66.4991989135742
20
71.0354995727539
40
0.0
41
0.0
42
0.0
10
66.5936965942383
20
71.5106964111328
40
0.0
41
0.0
42
0.0
10
66.7726974487305
20
71.986701965332
40
0.0
41
0.0
42
0.0
10
66.7807006835938
20
72.0130996704102
40
0.0
41
0.0
42
0.0
10
66.9885025024414
20
72.3973007202148
40
0.0
41
0.0
42
0.0
10
67.003303527832
20
72.4281005859375
40
0.0
41
0.0
42
0.0
10
67.0990982055664
20
72.4972991943359
40
0.0
41
0.0
42
0.0
10
67.3467025756836
20
72.6524963378906
40
0.0
41
0.0
42
0.0
10
67.5119018554688
20
72.7716979980469
40
0.0
41
0.0
42
0.0
10
67.9023971557617
20
72.7602005004883
40
0.0
41
0.0
42
0.0
10
67.9820022583008
20
72.7554016113281
40
0.0
41
0.0
42
0.0
10
68.4130020141602
20
72.6950988769531
40
0.0
41
0.0
42
0.0
10
68.4823989868164
20
72.6818008422852
40
0.0
41
0.0
42
0.0
10
68.9307022094727
20
72.6617965698242
40
0.0
41
0.0
42
0.0
10
68.9814987182617
20
72.654296875
40
0.0
41
0.0
42
0.0
10
69.0185012817383
20
72.6541976928711
40
0.0
41
0.0
42
0.0
10
69.4689025878906
20
72.7191009521484
40
0.0
41
0.0
42
0.0
10
69.5160980224609
20
72.7186965942383
40
0.0
41
0.0
42
0.0
10
69.9761962890625
20
72.8976974487305
40
0.0
41
0.0
42
0.0
10
70.0126037597656
20
72.9023971557617
40
0.0
41
0.0
42
0.0
10
70.1613006591797
20
72.9979019165039
40
0.0
41
0.0
42
0.0
10
70.4844970703125
20
73.1817016601562
40
0.0
41
0.0
42
0.0
10
70.5140991210938
20
73.1836013793945
40
0.0
41
0.0
42
0.0
10
70.9485015869141
20
73.4167022705078
40
0.0
41
0.0
42
0.0
10
71.0791015625
20
73.4326019287109
40
0.0
41
0.0
42
0.0
10
71.2199020385742
20
73.4991989135742
40
0.0
41
0.0
42
0.0
10
71.5136032104492
20
73.6153030395508
40
0.0
41
0.0
42
0.0
10
71.5938034057617
20
73.6352005004883
40
0.0
41
0.0
42
0.0
10
72.0160980224609
20
73.7242965698242
40
0.0
41
0.0
42
0.0
10
72.0839996337891
20
73.7351989746094
40
0.0
41
0.0
42
0.0
10
72.5130996704102
20
73.8192977905273
40
0.0
41
0.0
42
0.0
10
72.7426986694336
20
73.9345016479492
40
0.0
41
0.0
42
0.0
10
72.7882995605469
20
73.9259033203125
40
0.0
41
0.0
42
0.0
10
72.8089981079102
20
73.9259033203125
40
0.0
41
0.0
42
0.0
10
72.8227996826172
20
73.9953002929688
40
0.0
41
0.0
42
0.0
10
73.0114974975586
20
74.0691986083984
40
0.0
41
0.0
42
0.0
10
73.0257034301758
20
74.0761032104492
40
0.0
41
0.0
42
0.0
10
73.0746994018555
20
74.1065979003906
40
0.0
41
0.0
42
0.0
10
73.5053024291992
20
74.320198059082
40
0.0
41
0.0
42
0.0
10
73.5242004394531
20
74.3504028320312
40
0.0
41
0.0
42
0.0
10
73.6296005249023
20
74.4869003295898
40
0.0
41
0.0
42
0.0
10
73.627197265625
20
74.5796966552734
40
0.0
41
0.0
42
0.0
10
73.5912017822266
20
74.6508026123047
40
0.0
41
0.0
42
0.0
10
73.5026016235352
20
74.8919982910156
40
0.0
41
0.0
42
0.0
10
73.3376007080078
20
75.0020980834961
40
0.0
41
0.0
42
0.0
10
73.303596496582
20
75.0223999023438
40
0.0
41
0.0
42
0.0
10
73.076301574707
20
75.1290969848633
40
0.0
41
0.0
42
0.0
10
73.0137023925781
20
75.1561965942383
40
0.0
41
0.0
42
0.0
10
72.9527969360352
20
75.1681976318359
40
0.0
41
0.0
42
0.0
10
72.4167022705078
20
75.1760025024414
40
0.0
41
0.0
42
0.0
10
71.9829025268555
20
75.0969009399414
40
0.0
41
0.0
42
0.0
10
71.918098449707
20
75.0904998779297
40
0.0
41
0.0
42
0.0
10
71.4834976196289
20
75.0015029907227
40
0.0
41
0.0
42
0.0
10
71.2169036865234
20
74.9658966064453
40
0.0
41
0.0
42
0.0
10
70.9813995361328
20
74.9393997192383
40
0.0
41
0.0
42
0.0
10
70.7649993896484
20
74.9337005615234
40
0.0
41
0.0
42
0.0
10
70.5185012817383
20
74.94580078125
40
0.0
41
0.0
42
0.0
10
70.0839996337891
20
74.9853973388672
40
0.0
41
0.0
42
0.0
10
70.0184020996094
20
74.9954986572266
40
0.0
41
0.0
42
0.0
10
69.9834976196289
20
74.9953994750977
40
0.0
41
0.0
42
0.0
10
69.9389038085938
20
74.9797973632812
40
0.0
41
0.0
42
0.0
10
69.7838973999023
20
74.9990005493164
40
0.0
41
0.0
42
0.0
10
69.5185012817383
20
75.0348968505859
40
0.0
41
0.0
42
0.0
10
69.4803009033203
20
75.034797668457
40
0.0
41
0.0
42
0.0
10
69.0286026000977
20
75.0184020996094
40
0.0
41
0.0
42
0.0
10
68.9609985351562
20
74.9999008178711
40
0.0
41
0.0
42
0.0
10
68.8947982788086
20
74.9756011962891
40
0.0
41
0.0
42
0.0
10
68.8788986206055
20
74.967903137207
40
0.0
41
0.0
42
0.0
10
68.4875030517578
20
74.8556976318359
40
0.0
41
0.0
42
0.0
10
68.0218963623047
20
74.6294021606445
40
0.0
41
0.0
42
0.0
10
67.9897003173828
20
74.6113967895508
40
0.0
41
0.0
42
0.0
10
67.7631988525391
20
74.5018997192383
40
0.0
41
0.0
42
0.0
10
67.5897979736328
20
74.3739013671875
40
0.0
41
0.0
42
0.0
10
67.4889984130859
20
74.3040008544922
40
0.0
41
0.0
42
0.0
10
67.0372009277344
20
74.1803970336914
40
0.0
41
0.0
42
0.0
10
67.0109024047852
20
74.1804962158203
40
0.0
41
0.0
42
0.0
10
66.9830017089844
20
74.2095031738281
40
0.0
41
0.0
42
0.0
10
66.5075988769531
20
74.3970031738281
40
0.0
41
0.0
42
0.0
10
66.4142990112305
20
74.4965972900391
40
0.0
41
0.0
42
0.0
10
66.3891983032227
20
74.5323028564453
40
0.0
41
0.0
42
0.0
10
66.3587036132812
20
74.5705032348633
40
0.0
41
0.0
42
0.0
10
66.0040969848633
20
74.8942031860352
40
0.0
41
0.0
42
0.0
10
65.9208984375
20
75.0098037719727
40
0.0
41
0.0
42
0.0
10
65.8841018676758
20
75.0739974975586
40
0.0
41
0.0
42
0.0
10
65.6056976318359
20
75.5100021362305
40
0.0
41
0.0
42
0.0
10
65.5005035400391
20
75.7510986328125
40
0.0
41
0.0
42
0.0
10
65.3928985595703
20
76.013298034668
40
0.0
41
0.0
42
0.0
10
65.3759002685547
20
76.0804977416992
40
0.0
41
0.0
42
0.0
10
65.2957992553711
20
76.5169982910156
40
0.0
41
0.0
42
0.0
10
65.2959976196289
20
76.5459976196289
40
0.0
41
0.0
42
0.0
10
65.3359985351562
20
76.9851989746094
40
0.0
41
0.0
42
0.0
10
65.4848022460938
20
77.3295974731445
40
0.0
41
0.0
42
0.0
210
0.0
220
0.0
230
1.0
0
LWPOLYLINE
5
26
330
1C
100
AcDbEntity
67
0
8
0
62
256
6
ByLayer
370
-1
48
1.0
60
0
100
AcDbPolyline
90
23
70
1
38
0.0
39
0.0
10
82.338996887207
20
65.0066986083984
40
0.0
41
0.0
42
0.0
10
82.338996887207
20
65.0009994506836
40
0.0
41
0.0
42
0.0
10
82.3886032104492
20
65.0009002685547
40
0.0
41
0.0
42
0.0
10
82.4868011474609
20
65.0479965209961
40
0.0
41
0.0
42
0.0
10
82.9884033203125
20
65.234001159668
40
0.0
41
0.0
42
0.0
10
83.4903030395508
20
65.3788986206055
40
0.0
41
0.0
42
0.0
10
83.5166015625
20
65.3834991455078
40
0.0
41
0.0
42
0.0
10
83.9655990600586
20
65.4823989868164
40
0.0
41
0.0
42
0.0
10
84.4234008789062
20
65.4878997802734
40
0.0
41
0.0
42
0.0
10
84.4952011108398
20
65.4241027832031
40
0.0
41
0.0
42
0.0
10
84.8318023681641
20
65.0009994506836
40
0.0
41
0.0
42
0.0
10
84.8741989135742
20
65.0009994506836
40
0.0
41
0.0
42
0.0
10
84.8740997314453
20
65.0126037597656
40
0.0
41
0.0
42
0.0
10
84.5046005249023
20
65.4770965576172
40
0.0
41
0.0
42
0.0
10
84.4870986938477
20
65.4927978515625
40
0.0
41
0.0
42
0.0
10
83.9565963745117
20
65.4866027832031
40
0.0
41
0.0
42
0.0
10
83.918701171875
20
65.4811019897461
40
0.0
41
0.0
42
0.0
10
83.484001159668
20
65.3852005004883
40
0.0
41
0.0
42
0.0
10
83.4197006225586
20
65.3740997314453
40
0.0
41
0.0
42
0.0
10
82.9854965209961
20
65.2479019165039
40
0.0
41
0.0
42
0.0
10
82.9212036132812
20
65.2315979003906
40
0.0
41
0.0
42
0.0
10
82.4232025146484
20
65.0473022460938
40
0.0
41
0.0
42
0.0
10
82.338996887207
20
65.0066986083984
40
0.0
41
0.0
42
0.0
210
0.0
220
0.0
230
1.0
0
LWPOLYLINE
5
27
330
1C
100
AcDbEntity
67
0
8
0
62
256
6
ByLayer
370
-1
48
1.0
60
0
100
AcDbPolyline
90
28
70
1
38
0.0
39
0.0
10
84.6149978637695
20
83.521598815918
40
0.0
41
0.0
42
0.0
10
84.6148986816406
20
83.4829025268555
40
0.0
41
0.0
42
0.0
10
84.7406997680664
20
83.0496978759766
40
0.0
41
0.0
42
0.0
10
84.7518997192383
20
82.9853973388672
40
0.0
41
0.0
42
0.0
10
84.9131011962891
20
82.5512008666992
40
0.0
41
0.0
42
0.0
10
84.9296035766602
20
82.4860992431641
40
0.0
41
0.0
42
0.0
10
84.9524002075195
20
82.4231033325195
40
0.0
41
0.0
42
0.0
10
84.9931030273438
20
82.338996887207
40
0.0
41
0.0
42
0.0
10
84.9990005493164
20
82.338996887207
40
0.0
41
0.0
42
0.0
10
84.9988021850586
20
82.3884963989258
40
0.0
41
0.0
42
0.0
10
84.9515991210938
20
82.4868011474609
40
0.0
41
0.0
42
0.0
10
84.9419021606445
20
82.513801574707
40
0.0
41
0.0
42
0.0
10
84.9355010986328
20
82.5386962890625
40
0.0
41
0.0
42
0.0
10
84.7591018676758
20
83.0145034790039
40
0.0
41
0.0
42
0.0
10
84.7546005249023
20
83.0401992797852
40
0.0
41
0.0
42
0.0
10
84.6162033081055
20
83.5166015625
40
0.0
41
0.0
42
0.0
10
84.616096496582
20
83.5442962646484
40
0.0
41
0.0
42
0.0
10
84.6132965087891
20
83.581901550293
40
0.0
41
0.0
42
0.0
10
84.5173034667969
20
84.0175018310547
40
0.0
41
0.0
42
0.0
10
84.5118026733398
20
84.4234008789062
40
0.0
41
0.0
42
0.0
10
84.5756988525391
20
84.4953002929688
40
0.0
41
0.0
42
0.0
10
84.9990005493164
20
84.8318023681641
40
0.0
41
0.0
42
0.0
10
84.9990005493164
20
84.8741989135742
40
0.0
41
0.0
42
0.0
10
84.9872970581055
20
84.8740997314453
40
0.0
41
0.0
42
0.0
10
84.5226974487305
20
84.5046005249023
40
0.0
41
0.0
42
0.0
10
84.5068969726562
20
84.4870986938477
40
0.0
41
0.0
42
0.0
10
84.513298034668
20
83.9823989868164
40
0.0
41
0.0
42
0.0
10
84.6149978637695
20
83.521598815918
40
0.0
41
0.0
42
0.0
210
0.0
220
0.0
230
1.0
0
VIEWPORT
5
2C
330
28
100
AcDbEntity
67
1
8
0
62
256
6
ByLayer
370
-1
48
1.0
60
0
100
AcDbViewport
10
0.0
20
0.0
30
0.0
40
297.0
41
210.0
68
1
69
1
12
50.0
22
100.0
13
0.0
23
0.0
14
10.0
24
10.0
15
10.0
25
10.0
16
0.0
26
0.0
36
1.0
17
0.0
27
0.0
37
0.0
42
50.0
43
0.0
44
0.0
45
250.0
50
0.0
51
0.0
72
1000
90
819232
110
0.0
120
0.0
130
0.0
111
1.0
121
0.0
131
0.0
112
0.0
122
1.0
132
0.0
0
ENDSEC
0
SECTION
2
OBJECTS
0
DICTIONARY
5
32
330
0
100
AcDbDictionary
280
1
281
1
3
ACAD_GROUP
350
12
3
ACAD_LAYOUT
350
2B
3
ACAD_DGNDEFINITIONS
350
F
3
ACAD_DWFDEFINITIONS
350
10
3
ACAD_PDFDEFINITIONS
350
11
3
ACAD_MLINESTYLE
350
B
3
ACAD_IMAGE_DICT
350
E
3
ACAD_IMAGE_VARS
350
21
0
DICTIONARY
5
12
330
32
100
AcDbDictionary
280
1
281
1
0
DICTIONARY
5
2B
330
32
100
AcDbDictionary
280
1
281
1
3
Model
350
20
3
Layout1
350
2D
0
DICTIONARY
5
F
330
32
100
AcDbDictionary
280
1
281
1
0
DICTIONARY
5
10
330
32
100
AcDbDictionary
280
1
281
1
0
DICTIONARY
5
11
330
32
100
AcDbDictionary
280
1
281
1
0
DICTIONARY
5
B
330
32
100
AcDbDictionary
280
1
281
1
3
Standard
350
1B
0
DICTIONARY
5
E
330
32
100
AcDbDictionary
280
1
281
1
0
DICTIONARY
5
6
330
5
100
AcDbDictionary
280
1
281
1
3
ACAD_LAYERSTATES
360
33
0
DICTIONARY
5
33
330
6
100
AcDbDictionary
280
1
281
1
0
LAYOUT
5
20
330
2B
100
AcDbPlotSettings
1

2
none_device
4
ISO_A4_(210.00_x_297.00_MM)
6

40
7.5
41
20.0
42
7.5
43
20.0
44
210.0
45
297.0
46
0.0
47
0.0
48
0.0
49
0.0
140
0.0
141
0.0
142
1.0
143
1.0
70
11952
72
1
73
1
74
1
7

75
0
76
0
77
2
78
300
147
1.0
148
0.0
149
0.0
100
AcDbLayout
1
Model
71
0
10
-20.0
20
-7.5
11
277.0
21
202.5
12
0.0
22
0.0
32
0.0
14
25.7
24
19.5
34
0.0
15
231.3
25
175.5
35
0.0
146
0.0
13
0.0
23
0.0
33
0.0
16
1.0
26
0.0
36
0.0
17
0.0
27
1.0
37
0.0
76
0
330
1C
0
LAYOUT
5
2D
330
2B
100
AcDbPlotSettings
1

2
none_device
4
ISO_A4_(210.00_x_297.00_MM)
6

40
7.5
41
20.0
42
7.5
43
20.0
44
210.0
45
297.0
46
0.0
47
0.0
48
0.0
49
0.0
140
0.0
141
0.0
142
1.0
143
1.0
70
688
72
1
73
1
74
1
7

75
0
76
0
77
2
78
300
147
1.0
148
0.0
149
0.0
100
AcDbLayout
1
Layout1
71
1
10
-20.0
20
-7.5
11
277.0
21
202.5
12
0.0
22
0.0
32
0.0
14
25.7
24
19.5
34
0.0
15
231.3
25
175.5
35
0.0
146
0.0
13
0.0
23
0.0
33
0.0
16
1.0
26
0.0
36
0.0
17
0.0
27
1.0
37
0.0
76
0
330
28
0
MLINESTYLE
5
1B
330
B
100
AcDbMlineStyle
2
Standard
70
0
3

62
256
51
90.0
52
90.0
71
2
49
0.5
62
256
6
ByLayer
49
-0.5
62
256
6
ByLayer
0
RASTERVARIABLES
5
21
330
E
100
AcDbRasterVariables
90
0
70
1
71
1
72
0
0
ENDSEC
0
EOF
