999
DXF file generated by netDxf https://github.com/haplokuon/netDxf, Copyright(C) Daniel Carvajal, Licensed under MIT
0
SECTION
2
HEADER
9
$ACADVER
1
AC1015
9
$DWGCODEPAGE
3
ANSI_1252
9
$HANDSEED
5
42
9
$ANGBASE
50
0.0
9
$ANGDIR
70
0
9
$ATTMODE
70
1
9
$AUNITS
70
0
9
$AUPREC
70
0
9
$CECOLOR
62
256
9
$CELTSCALE
40
1.0
9
$CELTYPE
6
ByLayer
9
$CELWEIGHT
370
-1
9
$CLAYER
8
0
9
$CMLJUST
70
0
9
$CMLSCALE
40
20.0
9
$CMLSTYLE
2
Standard
9
$DIMSTYLE
2
Standard
9
$TEXTSIZE
40
2.5
9
$TEXTSTYLE
7
Standard
9
$LUNITS
70
2
9
$LUPREC
70
4
9
$MIRRTEXT
70
0
9
$EXTNAMES
290
1
9
$INSBASE
10
0.0
20
0.0
30
0.0
9
$INSUNITS
70
0
9
$LTSCALE
40
1.0
9
$LWDISPLAY
290
0
9
$PDMODE
70
0
9
$PDSIZE
40
0.0
9
$PLINEGEN
70
0
9
$PSLTSCALE
70
1
9
$SPLINESEGS
70
8
9
$SURFU
70
6
9
$SURFV
70
6
9
$TDCREATE
40
2460823.48372697
9
$TDUCREATE
40
2460823.15039363
9
$TDUPDATE
40
2460823.48372697
9
$TDUUPDATE
40
2460823.15039363
9
$TDINDWG
40
0.0
9
$UCSORG
10
0.0
20
0.0
30
0.0
9
$UCSXDIR
10
1.0
20
0.0
30
0.0
9
$UCSYDIR
10
0.0
20
1.0
30
0.0
9
$DIMADEC
70
0
9
$DIMALT
70
0
9
$DIMALTD
70
2
9
$DIMALTF
40
25.4
9
$DIMALTRND
40
0.0
9
$DIMALTTD
70
2
9
$DIMALTTZ
70
0
9
$DIMALTU
70
2
9
$DIMALTZ
70
0
9
$DIMAPOST
1

9
$DIMATFIT
70
3
9
$DIMAUNIT
70
0
9
$DIMASZ
40
0.18
9
$DIMAZIN
70
0
9
$DIMSAH
70
0
9
$DIMBLK
1

9
$DIMLDRBLK
1

9
$DIMCEN
40
0.09
9
$DIMCLRD
70
0
9
$DIMCLRE
70
0
9
$DIMCLRT
70
0
9
$DIMDEC
70
4
9
$DIMDLE
40
0.0
9
$DIMDLI
40
0.38
9
$DIMDSEP
70
46
9
$DIMEXE
40
0.18
9
$DIMEXO
40
0.0625
9
$DIMFXLON
70
0
9
$DIMFXL
40
1.0
9
$DIMGAP
40
0.09
9
$DIMJUST
70
0
9
$DIMLFAC
40
1.0
9
$DIMLUNIT
70
2
9
$DIMLWD
70
-2
9
$DIMLWE
70
-2
9
$DIMPOST
1

9
$DIMRND
40
0.0
9
$DIMSCALE
40
1.0
9
$DIMSD1
70
0
9
$DIMSD2
70
0
9
$DIMSE1
70
0
9
$DIMSE2
70
0
9
$DIMSOXD
70
0
9
$DIMTAD
70
0
9
$DIMTDEC
70
4
9
$DIMTFAC
40
1.0
9
$DIMTIH
70
0
9
$DIMTIX
70
0
9
$DIMTM
40
0.0
9
$DIMTMOVE
70
0
9
$DIMTOFL
70
0
9
$DIMTOH
70
0
9
$DIMTOL
70
0
9
$DIMLIM
70
0
9
$DIMTOLJ
70
1
9
$DIMTP
40
0.0
9
$DIMTXT
40
0.18
9
$DIMTXTDIRECTION
70
0
9
$DIMTZIN
70
0
9
$DIMZIN
70
0
9
$DIMFRAC
70
0
9
$DIMLTYPE
6
ByBlock
9
$DIMLTEX1
6
ByBlock
9
$DIMLTEX2
6
ByBlock
0
ENDSEC
0
SECTION
2
CLASSES
0
CLASS
1
RASTERVARIABLES
2
AcDbRasterVariables
3
ISM
90
0
280
0
281
0
0
ENDSEC
0
SECTION
2
TABLES
0
TABLE
2
APPID
5
4
330
0
100
AcDbSymbolTable
70
5
0
APPID
5
19
330
4
100
AcDbSymbolTableRecord
100
AcDbRegAppTableRecord
2
ACAD
70
0
0
APPID
5
3C
330
4
100
AcDbSymbolTableRecord
100
AcDbRegAppTableRecord
2
AcCmTransparency
70
0
0
APPID
5
3D
330
4
100
AcDbSymbolTableRecord
100
AcDbRegAppTableRecord
2
AcAecLayerStandard
70
0
0
APPID
5
3E
330
4
100
AcDbSymbolTableRecord
100
AcDbRegAppTableRecord
2
GradientColor1ACI
70
0
0
APPID
5
3F
330
4
100
AcDbSymbolTableRecord
100
AcDbRegAppTableRecord
2
GradientColor2ACI
70
0
0
ENDTAB
0
TABLE
2
VPORT
5
1
330
0
100
AcDbSymbolTable
70
1
0
VPORT
5
2
330
1
100
AcDbSymbolTableRecord
100
AcDbViewportTableRecord
2
*Active
70
0
10
0.0
20
0.0
11
1.0
21
1.0
12
0.0
22
0.0
13
0.0
23
0.0
14
0.5
24
0.5
15
10.0
25
10.0
16
0.0
26
0.0
36
1.0
17
0.0
27
0.0
37
0.0
40
10.0
41
1.0
75
0
76
1
0
ENDTAB
0
TABLE
2
LTYPE
5
7
330
0
100
AcDbSymbolTable
70
3
0
LTYPE
5
15
330
7
100
AcDbSymbolTableRecord
100
AcDbLinetypeTableRecord
2
Continuous
70
0
3
Solid line
72
65
73
0
40
0.0
0
LTYPE
5
16
330
7
100
AcDbSymbolTableRecord
100
AcDbLinetypeTableRecord
2
ByLayer
70
0
3

72
65
73
0
40
0.0
0
LTYPE
5
17
330
7
100
AcDbSymbolTableRecord
100
AcDbLinetypeTableRecord
2
ByBlock
70
0
3

72
65
73
0
40
0.0
0
ENDTAB
0
TABLE
2
LAYER
5
5
102
{ACAD_XDICTIONARY
360
6
102
}
330
0
100
AcDbSymbolTable
70
1
0
LAYER
5
14
330
5
100
AcDbSymbolTableRecord
100
AcDbLayerTableRecord
2
0
70
0
62
7
6
Continuous
290
1
370
-3
390
0
0
ENDTAB
0
TABLE
2
STYLE
5
8
330
0
100
AcDbSymbolTable
70
1
0
STYLE
5
18
330
8
100
AcDbSymbolTableRecord
100
AcDbTextStyleTableRecord
2
Standard
3
simplex.shx
70
0
71
0
40
0.0
41
1.0
42
0.0
50
0.0
0
ENDTAB
0
TABLE
2
DIMSTYLE
5
A
330
0
100
AcDbSymbolTable
70
1
100
AcDbDimStyleTable
0
DIMSTYLE
105
1A
330
A
100
AcDbSymbolTableRecord
100
AcDbDimStyleTableRecord
2
Standard
3

4

40
1.0
41
0.18
42
0.0625
43
0.38
44
0.18
45
0.0
46
0.0
47
0.0
48
0.0
49
1.0
70
0
71
0
72
0
73
0
74
0
75
0
76
0
77
0
78
0
79
0
140
0.18
141
0.09
143
25.4
144
1.0
146
1.0
147
0.09
148
0.0
170
0
171
2
172
0
174
0
175
0
176
0
177
0
178
0
179
0
271
4
272
4
273
2
274
2
275
0
276
0
277
2
278
46
279
0
280
0
281
0
282
0
283
1
284
0
285
0
286
0
289
3
290
0
294
0
340
18
173
0
345
17
346
17
347
17
371
-2
372
-2
0
ENDTAB
0
TABLE
2
VIEW
5
3
330
0
100
AcDbSymbolTable
70
0
0
ENDTAB
0
TABLE
2
UCS
5
C
330
0
100
AcDbSymbolTable
70
0
0
ENDTAB
0
TABLE
2
BLOCK_RECORD
5
D
330
0
100
AcDbSymbolTable
70
2
0
BLOCK_RECORD
5
1C
330
D
100
AcDbSymbolTableRecord
100
AcDbBlockTableRecord
2
*Model_Space
340
20
0
BLOCK_RECORD
5
36
330
D
100
AcDbSymbolTableRecord
100
AcDbBlockTableRecord
2
*Paper_Space
340
3B
0
ENDTAB
0
ENDSEC
0
SECTION
2
BLOCKS
0
BLOCK
5
1E
330
1C
100
AcDbEntity
67
0
8
0
100
AcDbBlockBegin
2
*Model_Space
70
0
10
0.0
20
0.0
30
0.0
3
*Model_Space
4

0
ENDBLK
5
1D
330
1C
100
AcDbEntity
8
0
100
AcDbBlockEnd
0
BLOCK
5
38
330
36
100
AcDbEntity
67
1
8
0
100
AcDbBlockBegin
2
*Paper_Space
70
0
10
0.0
20
0.0
30
0.0
3
*Paper_Space
4

0
ENDBLK
5
37
330
36
100
AcDbEntity
8
0
100
AcDbBlockEnd
0
ENDSEC
0
SECTION
2
ENTITIES
0
LWPOLYLINE
5
22
330
1C
100
AcDbEntity
67
0
8
0
62
256
6
ByLayer
370
-1
48
1.0
60
0
100
AcDbPolyline
90
8
70
1
38
0.0
39
0.0
10
65.0167007446289
20
66.1144027709961
40
0.0
41
0.0
42
0.0
10
65.4366989135742
20
66.2490997314453
40
0.0
41
0.0
42
0.0
10
65.4400024414062
20
66.2490005493164
40
0.0
41
0.0
42
0.0
10
65.4045028686523
20
66.250602722168
40
0.0
41
0.0
42
0.0
10
65.3682022094727
20
66.250602722168
40
0.0
41
0.0
42
0.0
10
65.0009994506836
20
66.1325988769531
40
0.0
41
0.0
42
0.0
10
65.0009994506836
20
66.114501953125
40
0.0
41
0.0
42
0.0
10
65.0167007446289
20
66.1144027709961
40
0.0
41
0.0
42
0.0
210
0.0
220
0.0
230
1.0
0
LWPOLYLINE
5
23
330
1C
100
AcDbEntity
67
0
8
0
62
256
6
ByLayer
370
-1
48
1.0
60
0
100
AcDbPolyline
90
39
70
1
38
0.0
39
0.0
10
65.4899978637695
20
66.2479019165039
40
0.0
41
0.0
42
0.0
10
65.5139999389648
20
66.2474975585938
40
0.0
41
0.0
42
0.0
10
65.5953979492188
20
66.2998962402344
40
0.0
41
0.0
42
0.0
10
65.7071990966797
20
66.4870986938477
40
0.0
41
0.0
42
0.0
10
65.7639007568359
20
66.869499206543
40
0.0
41
0.0
42
0.0
10
65.7981033325195
20
66.9834976196289
40
0.0
41
0.0
42
0.0
10
65.8042984008789
20
67.1259994506836
40
0.0
41
0.0
42
0.0
10
65.8007965087891
20
67.500602722168
40
0.0
41
0.0
42
0.0
10
65.802001953125
20
67.6675033569336
40
0.0
41
0.0
42
0.0
10
65.779296875
20
68.0093002319336
40
0.0
41
0.0
42
0.0
10
65.782096862793
20
68.1727981567383
40
0.0
41
0.0
42
0.0
10
65.7454986572266
20
68.5057983398438
40
0.0
41
0.0
42
0.0
10
65.7536010742188
20
68.647102355957
40
0.0
41
0.0
42
0.0
10
65.7535018920898
20
68.684196472168
40
0.0
41
0.0
42
0.0
10
65.6791000366211
20
69.0141983032227
40
0.0
41
0.0
42
0.0
10
65.5098037719727
20
69.5015029907227
40
0.0
41
0.0
42
0.0
10
65.5098037719727
20
69.5147018432617
40
0.0
41
0.0
42
0.0
10
65.0372009277344
20
70.0042037963867
40
0.0
41
0.0
42
0.0
10
65.0233001708984
20
70.0149993896484
40
0.0
41
0.0
42
0.0
10
65.0161972045898
20
70.0177993774414
40
0.0
41
0.0
42
0.0
10
65.0009994506836
20
70.0177993774414
40
0.0
41
0.0
42
0.0
10
65.0009002685547
20
69.9244003295898
40
0.0
41
0.0
42
0.0
10
65.0777969360352
20
69.8513031005859
40
0.0
41
0.0
42
0.0
10
65.4294967651367
20
69.4919967651367
40
0.0
41
0.0
42
0.0
10
65.5055999755859
20
69.3262023925781
40
0.0
41
0.0
42
0.0
10
65.6237030029297
20
68.9857025146484
40
0.0
41
0.0
42
0.0
10
65.7110977172852
20
68.5982971191406
40
0.0
41
0.0
42
0.0
10
65.7065963745117
20
68.519401550293
40
0.0
41
0.0
42
0.0
10
65.7067031860352
20
68.4811019897461
40
0.0
41
0.0
42
0.0
10
65.7499008178711
20
68.0878982543945
40
0.0
41
0.0
42
0.0
10
65.7483978271484
20
67.9804992675781
40
0.0
41
0.0
42
0.0
10
65.7748031616211
20
67.5822982788086
40
0.0
41
0.0
42
0.0
10
65.7742004394531
20
67.4800033569336
40
0.0
41
0.0
42
0.0
10
65.7780990600586
20
67.1069030761719
40
0.0
41
0.0
42
0.0
10
65.7742004394531
20
67.0164031982422
40
0.0
41
0.0
42
0.0
10
65.7512969970703
20
66.9403991699219
40
0.0
41
0.0
42
0.0
10
65.6878967285156
20
66.5128021240234
40
0.0
41
0.0
42
0.0
10
65.554801940918
20
66.2894973754883
40
0.0
41
0.0
42
0.0
10
65.4899978637695
20
66.2479019165039
40
0.0
41
0.0
42
0.0
210
0.0
220
0.0
230
1.0
0
LWPOLYLINE
5
24
330
1C
100
AcDbEntity
67
0
8
0
62
256
6
ByLayer
370
-1
48
1.0
60
0
100
AcDbPolyline
90
308
70
1
38
0.0
39
0.0
10
65.3137969970703
20
77.3732986450195
40
0.0
41
0.0
42
0.0
10
65.3050994873047
20
76.9887008666992
40
0.0
41
0.0
42
0.0
10
65.3935012817383
20
76.9048004150391
40
0.0
41
0.0
42
0.0
10
65.5002975463867
20
76.5977020263672
40
0.0
41
0.0
42
0.0
10
65.5186004638672
20
76.5039978027344
40
0.0
41
0.0
42
0.0
10
65.6946029663086
20
76.0643997192383
40
0.0
41
0.0
42
0.0
10
65.7397994995117
20
75.9904022216797
40
0.0
41
0.0
42
0.0
10
65.9698028564453
20
75.5662002563477
40
0.0
41
0.0
42
0.0
10
65.9912033081055
20
75.5370025634766
40
0.0
41
0.0
42
0.0
10
66.2606964111328
20
75.0656967163086
40
0.0
41
0.0
42
0.0
10
66.3076019287109
20
74.9904022216797
40
0.0
41
0.0
42
0.0
10
66.4981002807617
20
74.6266021728516
40
0.0
41
0.0
42
0.0
10
66.5379028320312
20
74.5619964599609
40
0.0
41
0.0
42
0.0
10
66.576301574707
20
74.4886016845703
40
0.0
41
0.0
42
0.0
10
66.7384033203125
20
74.0612030029297
40
0.0
41
0.0
42
0.0
10
66.7578964233398
20
73.9832992553711
40
0.0
41
0.0
42
0.0
10
66.7867965698242
20
73.5726013183594
40
0.0
41
0.0
42
0.0
10
66.7838973999023
20
73.5177993774414
40
0.0
41
0.0
42
0.0
10
66.7177963256836
20
73.0907974243164
40
0.0
41
0.0
42
0.0
10
66.5970001220703
20
72.6025009155273
40
0.0
41
0.0
42
0.0
10
66.5684967041016
20
72.5141983032227
40
0.0
41
0.0
42
0.0
10
66.5136032104492
20
72.2893981933594
40
0.0
41
0.0
42
0.0
10
66.4998016357422
20
72.2447967529297
40
0.0
41
0.0
42
0.0
10
66.472900390625
20
72.1735992431641
40
0.0
41
0.0
42
0.0
10
66.4322967529297
20
72.0150985717773
40
0.0
41
0.0
42
0.0
10
66.3496017456055
20
71.6292037963867
40
0.0
41
0.0
42
0.0
10
66.3095016479492
20
71.5149993896484
40
0.0
41
0.0
42
0.0
10
66.2570037841797
20
71.1300964355469
40
0.0
41
0.0
42
0.0
10
66.2180023193359
20
71.0164031982422
40
0.0
41
0.0
42
0.0
10
66.2161026000977
20
70.6321029663086
40
0.0
41
0.0
42
0.0
10
66.1840972900391
20
70.5161972045898
40
0.0
41
0.0
42
0.0
10
66.1673965454102
20
70.3283996582031
40
0.0
41
0.0
42
0.0
10
66.1672973632812
20
70.2926025390625
40
0.0
41
0.0
42
0.0
10
66.2630996704102
20
69.9929962158203
40
0.0
41
0.0
42
0.0
10
66.4410018920898
20
69.8666000366211
40
0.0
41
0.0
42
0.0
10
66.4946975708008
20
69.8078002929688
40
0.0
41
0.0
42
0.0
10
66.8440017700195
20
69.4947967529297
40
0.0
41
0.0
42
0.0
10
66.8550033569336
20
69.4826965332031
40
0.0
41
0.0
42
0.0
10
66.8694000244141
20
69.4761962890625
40
0.0
41
0.0
42
0.0
10
66.9850006103516
20
69.4764022827148
40
0.0
41
0.0
42
0.0
10
67.3732986450195
20
69.2899017333984
40
0.0
41
0.0
42
0.0
10
67.411003112793
20
69.2754974365234
40
0.0
41
0.0
42
0.0
10
67.4857025146484
20
69.2592010498047
40
0.0
41
0.0
42
0.0
10
67.9107971191406
20
69.1081008911133
40
0.0
41
0.0
42
0.0
10
68.060302734375
20
69.0733032226562
40
0.0
41
0.0
42
0.0
10
68.4853973388672
20
68.9458999633789
40
0.0
41
0.0
42
0.0
10
68.5602035522461
20
68.9281005859375
40
0.0
41
0.0
42
0.0
10
68.9860000610352
20
68.8098983764648
40
0.0
41
0.0
42
0.0
10
69.4887008666992
20
68.6452026367188
40
0.0
41
0.0
42
0.0
10
69.5649032592773
20
68.5992965698242
40
0.0
41
0.0
42
0.0
10
69.7711029052734
20
68.499397277832
40
0.0
41
0.0
42
0.0
10
69.9933013916016
20
68.3600997924805
40
0.0
41
0.0
42
0.0
10
70.2698974609375
20
68.0687026977539
40
0.0
41
0.0
42
0.0
10
70.3300018310547
20
67.9919967651367
40
0.0
41
0.0
42
0.0
10
70.345100402832
20
67.967903137207
40
0.0
41
0.0
42
0.0
10
70.497200012207
20
67.7735977172852
40
0.0
41
0.0
42
0.0
10
70.6378021240234
20
67.5410995483398
40
0.0
41
0.0
42
0.0
10
70.6651000976562
20
67.4888000488281
40
0.0
41
0.0
42
0.0
10
70.9059982299805
20
67.0960998535156
40
0.0
41
0.0
42
0.0
10
70.9605026245117
20
66.9890975952148
40
0.0
41
0.0
42
0.0
10
70.9760971069336
20
66.9545974731445
40
0.0
41
0.0
42
0.0
10
70.9977035522461
20
66.9188003540039
40
0.0
41
0.0
42
0.0
10
71.2276000976562
20
66.5706024169922
40
0.0
41
0.0
42
0.0
10
71.2714996337891
20
66.489501953125
40
0.0
41
0.0
42
0.0
10
71.3266983032227
20
66.3762969970703
40
0.0
41
0.0
42
0.0
10
71.3566970825195
20
66.3397979736328
40
0.0
41
0.0
42
0.0
10
71.4962997436523
20
66.1323013305664
40
0.0
41
0.0
42
0.0
10
71.6292037963867
20
65.9942016601562
40
0.0
41
0.0
42
0.0
10
71.8432006835938
20
65.7518997192383
40
0.0
41
0.0
42
0.0
10
71.9932022094727
20
65.5681991577148
40
0.0
41
0.0
42
0.0
10
72.1405029296875
20
65.4979019165039
40
0.0
41
0.0
42
0.0
10
72.3758010864258
20
65.3175964355469
40
0.0
41
0.0
42
0.0
10
72.4862976074219
20
65.2428970336914
40
0.0
41
0.0
42
0.0
10
72.5143966674805
20
65.2429962158203
40
0.0
41
0.0
42
0.0
10
72.5934982299805
20
65.2880020141602
40
0.0
41
0.0
42
0.0
10
72.6267013549805
20
65.3137969970703
40
0.0
41
0.0
42
0.0
10
73.011100769043
20
65.3051986694336
40
0.0
41
0.0
42
0.0
10
73.095100402832
20
65.3935012817383
40
0.0
41
0.0
42
0.0
10
73.402099609375
20
65.5002975463867
40
0.0
41
0.0
42
0.0
10
73.4957962036133
20
65.5186996459961
40
0.0
41
0.0
42
0.0
10
73.9355010986328
20
65.6946029663086
40
0.0
41
0.0
42
0.0
10
74.0094985961914
20
65.7397994995117
40
0.0
41
0.0
42
0.0
10
74.4337005615234
20
65.9698028564453
40
0.0
41
0.0
42
0.0
10
74.4627990722656
20
65.9912033081055
40
0.0
41
0.0
42
0.0
10
74.934196472168
20
66.2608032226562
40
0.0
41
0.0
42
0.0
10
75.0095977783203
20
66.307502746582
40
0.0
41
0.0
42
0.0
10
75.3731994628906
20
66.4981994628906
40
0.0
41
0.0
42
0.0
10
75.4377975463867
20
66.5379028320312
40
0.0
41
0.0
42
0.0
10
75.5112991333008
20
66.576301574707
40
0.0
41
0.0
42
0.0
10
75.9386978149414
20
66.7384033203125
40
0.0
41
0.0
42
0.0
10
76.0166015625
20
66.7578964233398
40
0.0
41
0.0
42
0.0
10
76.4272994995117
20
66.7867965698242
40
0.0
41
0.0
42
0.0
10
76.4821014404297
20
66.7838973999023
40
0.0
41
0.0
42
0.0
10
76.9091033935547
20
66.7177963256836
40
0.0
41
0.0
42
0.0
10
77.3973999023438
20
66.5970001220703
40
0.0
41
0.0
42
0.0
10
77.4857025146484
20
66.5683975219727
40
0.0
41
0.0
42
0.0
10
77.7104034423828
20
66.5134963989258
40
0.0
41
0.0
42
0.0
10
77.754997253418
20
66.4998016357422
40
0.0
41
0.0
42
0.0
10
77.8262023925781
20
66.472900390625
40
0.0
41
0.0
42
0.0
10
77.9847030639648
20
66.4322967529297
40
0.0
41
0.0
42
0.0
10
78.3705978393555
20
66.3496017456055
40
0.0
41
0.0
42
0.0
10
78.4849014282227
20
66.3095016479492
40
0.0
41
0.0
42
0.0
10
78.8697967529297
20
66.2570037841797
40
0.0
41
0.0
42
0.0
10
78.9834976196289
20
66.2180023193359
40
0.0
41
0.0
42
0.0
10
79.3677978515625
20
66.2161026000977
40
0.0
41
0.0
42
0.0
10
79.4837036132812
20
66.1840972900391
40
0.0
41
0.0
42
0.0
10
79.671501159668
20
66.1673965454102
40
0.0
41
0.0
42
0.0
10
79.7071990966797
20
66.1672973632812
40
0.0
41
0.0
42
0.0
10
80.0068969726562
20
66.2630004882812
40
0.0
41
0.0
42
0.0
10
80.1331024169922
20
66.4411010742188
40
0.0
41
0.0
42
0.0
10
80.1920013427734
20
66.4947967529297
40
0.0
41
0.0
42
0.0
10
80.5002975463867
20
66.838996887207
40
0.0
41
0.0
42
0.0
10
80.5168991088867
20
66.8547973632812
40
0.0
41
0.0
42
0.0
10
80.5234985351562
20
66.869499206543
40
0.0
41
0.0
42
0.0
10
80.5233001708984
20
66.9828033447266
40
0.0
41
0.0
42
0.0
10
80.5436019897461
20
67.076301574707
40
0.0
41
0.0
42
0.0
10
80.7407989501953
20
67.4869995117188
40
0.0
41
0.0
42
0.0
10
80.75830078125
20
67.5608978271484
40
0.0
41
0.0
42
0.0
10
80.9093017578125
20
67.9858016967773
40
0.0
41
0.0
42
0.0
10
80.926399230957
20
68.060302734375
40
0.0
41
0.0
42
0.0
10
81.0538024902344
20
68.4853973388672
40
0.0
41
0.0
42
0.0
10
81.0717010498047
20
68.5602035522461
40
0.0
41
0.0
42
0.0
10
81.1897964477539
20
68.9860000610352
40
0.0
41
0.0
42
0.0
10
81.3544998168945
20
69.4887008666992
40
0.0
41
0.0
42
0.0
10
81.4003982543945
20
69.5650024414062
40
0.0
41
0.0
42
0.0
10
81.5003967285156
20
69.7711029052734
40
0.0
41
0.0
42
0.0
10
81.6397018432617
20
69.9934005737305
40
0.0
41
0.0
42
0.0
10
81.9311981201172
20
70.2699966430664
40
0.0
41
0.0
42
0.0
10
82.0078964233398
20
70.3300018310547
40
0.0
41
0.0
42
0.0
10
82.0317993164062
20
70.3451995849609
40
0.0
41
0.0
42
0.0
10
82.2260971069336
20
70.497200012207
40
0.0
41
0.0
42
0.0
10
82.4587020874023
20
70.6379013061523
40
0.0
41
0.0
42
0.0
10
82.5095977783203
20
70.6642990112305
40
0.0
41
0.0
42
0.0
10
82.9038009643555
20
70.9059982299805
40
0.0
41
0.0
42
0.0
10
83.0108032226562
20
70.9604034423828
40
0.0
41
0.0
42
0.0
10
83.0451965332031
20
70.9760971069336
40
0.0
41
0.0
42
0.0
10
83.0809020996094
20
70.9977035522461
40
0.0
41
0.0
42
0.0
10
83.42919921875
20
71.2276000976562
40
0.0
41
0.0
42
0.0
10
83.5103988647461
20
71.2714996337891
40
0.0
41
0.0
42
0.0
10
83.6234970092773
20
71.3267974853516
40
0.0
41
0.0
42
0.0
10
83.6600036621094
20
71.3566970825195
40
0.0
41
0.0
42
0.0
10
83.8674011230469
20
71.4963989257812
40
0.0
41
0.0
42
0.0
10
84.0056991577148
20
71.6292037963867
40
0.0
41
0.0
42
0.0
10
84.2502975463867
20
71.8453979492188
40
0.0
41
0.0
42
0.0
10
84.3440017700195
20
71.8824005126953
40
0.0
41
0.0
42
0.0
10
84.4304962158203
20
71.9912033081055
40
0.0
41
0.0
42
0.0
10
84.5019989013672
20
72.1406021118164
40
0.0
41
0.0
42
0.0
10
84.6821975708008
20
72.3758010864258
40
0.0
41
0.0
42
0.0
10
84.7567977905273
20
72.4862976074219
40
0.0
41
0.0
42
0.0
10
84.7566986083984
20
72.5143966674805
40
0.0
41
0.0
42
0.0
10
84.7117004394531
20
72.5934982299805
40
0.0
41
0.0
42
0.0
10
84.6858978271484
20
72.6266021728516
40
0.0
41
0.0
42
0.0
10
84.6946029663086
20
73.011100769043
40
0.0
41
0.0
42
0.0
10
84.606201171875
20
73.0950012207031
40
0.0
41
0.0
42
0.0
10
84.4996032714844
20
73.4020004272461
40
0.0
41
0.0
42
0.0
10
84.4810028076172
20
73.4955978393555
40
0.0
41
0.0
42
0.0
10
84.4748001098633
20
73.5102996826172
40
0.0
41
0.0
42
0.0
10
84.4288024902344
20
73.5855026245117
40
0.0
41
0.0
42
0.0
10
84.2590026855469
20
74.0110015869141
40
0.0
41
0.0
42
0.0
10
84.029899597168
20
74.4336013793945
40
0.0
41
0.0
42
0.0
10
84.0084991455078
20
74.4626998901367
40
0.0
41
0.0
42
0.0
10
83.7389984130859
20
74.934196472168
40
0.0
41
0.0
42
0.0
10
83.6921005249023
20
75.0094985961914
40
0.0
41
0.0
42
0.0
10
83.5016021728516
20
75.3731002807617
40
0.0
41
0.0
42
0.0
10
83.461799621582
20
75.4376983642578
40
0.0
41
0.0
42
0.0
10
83.4228973388672
20
75.5123977661133
40
0.0
41
0.0
42
0.0
10
83.4038009643555
20
75.5886001586914
40
0.0
41
0.0
42
0.0
10
83.2434005737305
20
76.0115966796875
40
0.0
41
0.0
42
0.0
10
83.2459030151367
20
76.0554962158203
40
0.0
41
0.0
42
0.0
10
83.2457962036133
20
76.0942001342773
40
0.0
41
0.0
42
0.0
10
83.2176971435547
20
76.4905014038086
40
0.0
41
0.0
42
0.0
10
83.2350997924805
20
76.559196472168
40
0.0
41
0.0
42
0.0
10
83.3012008666992
20
76.9848022460938
40
0.0
41
0.0
42
0.0
10
83.3256988525391
20
77.0608978271484
40
0.0
41
0.0
42
0.0
10
83.3364028930664
20
77.1001968383789
40
0.0
41
0.0
42
0.0
10
83.486198425293
20
77.7105026245117
40
0.0
41
0.0
42
0.0
10
83.5
20
77.754997253418
40
0.0
41
0.0
42
0.0
10
83.5268020629883
20
77.8262023925781
40
0.0
41
0.0
42
0.0
10
83.5678024291992
20
77.9860992431641
40
0.0
41
0.0
42
0.0
10
83.6080017089844
20
78.100700378418
40
0.0
41
0.0
42
0.0
10
83.6905975341797
20
78.4856033325195
40
0.0
41
0.0
42
0.0
10
83.7296981811523
20
78.5998001098633
40
0.0
41
0.0
42
0.0
10
83.7817001342773
20
78.9813995361328
40
0.0
41
0.0
42
0.0
10
83.7836990356445
20
79.3678970336914
40
0.0
41
0.0
42
0.0
10
83.8155975341797
20
79.4837036132812
40
0.0
41
0.0
42
0.0
10
83.8324966430664
20
79.6714019775391
40
0.0
41
0.0
42
0.0
10
83.8323974609375
20
79.7071990966797
40
0.0
41
0.0
42
0.0
10
83.7366027832031
20
80.0067977905273
40
0.0
41
0.0
42
0.0
10
83.5587005615234
20
80.1331024169922
40
0.0
41
0.0
42
0.0
10
83.5050964355469
20
80.1919021606445
40
0.0
41
0.0
42
0.0
10
83.1607971191406
20
80.5002975463867
40
0.0
41
0.0
42
0.0
10
83.1448974609375
20
80.5167999267578
40
0.0
41
0.0
42
0.0
10
83.1304016113281
20
80.5234985351562
40
0.0
41
0.0
42
0.0
10
83.0170974731445
20
80.5233001708984
40
0.0
41
0.0
42
0.0
10
82.9235992431641
20
80.5436019897461
40
0.0
41
0.0
42
0.0
10
82.5129013061523
20
80.7407989501953
40
0.0
41
0.0
42
0.0
10
82.4390029907227
20
80.7582015991211
40
0.0
41
0.0
42
0.0
10
82.0140991210938
20
80.9093017578125
40
0.0
41
0.0
42
0.0
10
81.9395980834961
20
80.9263000488281
40
0.0
41
0.0
42
0.0
10
81.5145034790039
20
81.0538024902344
40
0.0
41
0.0
42
0.0
10
81.439697265625
20
81.0716018676758
40
0.0
41
0.0
42
0.0
10
81.0139007568359
20
81.1897964477539
40
0.0
41
0.0
42
0.0
10
80.511100769043
20
81.3544998168945
40
0.0
41
0.0
42
0.0
10
80.4348983764648
20
81.4002990722656
40
0.0
41
0.0
42
0.0
10
80.2285995483398
20
81.5002975463867
40
0.0
41
0.0
42
0.0
10
80.0065002441406
20
81.6396026611328
40
0.0
41
0.0
42
0.0
10
79.7297973632812
20
81.9311981201172
40
0.0
41
0.0
42
0.0
10
79.6697006225586
20
82.0077972412109
40
0.0
41
0.0
42
0.0
10
79.6546020507812
20
82.0317993164062
40
0.0
41
0.0
42
0.0
10
79.5026016235352
20
82.2260971069336
40
0.0
41
0.0
42
0.0
10
79.3619003295898
20
82.4586029052734
40
0.0
41
0.0
42
0.0
10
79.2760009765625
20
82.6246032714844
40
0.0
41
0.0
42
0.0
10
79.0397033691406
20
83.0100021362305
40
0.0
41
0.0
42
0.0
10
79.0235977172852
20
83.0450973510742
40
0.0
41
0.0
42
0.0
10
79.0020980834961
20
83.0809020996094
40
0.0
41
0.0
42
0.0
10
78.772102355957
20
83.4291000366211
40
0.0
41
0.0
42
0.0
10
78.7282028198242
20
83.5102996826172
40
0.0
41
0.0
42
0.0
10
78.6729965209961
20
83.6234970092773
40
0.0
41
0.0
42
0.0
10
78.6429977416992
20
83.6598968505859
40
0.0
41
0.0
42
0.0
10
78.5035018920898
20
83.8674011230469
40
0.0
41
0.0
42
0.0
10
78.36669921875
20
84.0096969604492
40
0.0
41
0.0
42
0.0
10
78.3519973754883
20
84.0793991088867
40
0.0
41
0.0
42
0.0
10
78.1172027587891
20
84.3451995849609
40
0.0
41
0.0
42
0.0
10
78.0970001220703
20
84.3869018554688
40
0.0
41
0.0
42
0.0
10
77.8592987060547
20
84.5018997192383
40
0.0
41
0.0
42
0.0
10
77.6240005493164
20
84.6821975708008
40
0.0
41
0.0
42
0.0
10
77.5134963989258
20
84.7567977905273
40
0.0
41
0.0
42
0.0
10
77.4854965209961
20
84.7567977905273
40
0.0
41
0.0
42
0.0
10
77.4063034057617
20
84.7117004394531
40
0.0
41
0.0
42
0.0
10
77.3732986450195
20
84.6858978271484
40
0.0
41
0.0
42
0.0
10
76.9888000488281
20
84.6946029663086
40
0.0
41
0.0
42
0.0
10
76.904899597168
20
84.6063003540039
40
0.0
41
0.0
42
0.0
10
76.5978012084961
20
84.4997024536133
40
0.0
41
0.0
42
0.0
10
76.5042037963867
20
84.4811019897461
40
0.0
41
0.0
42
0.0
10
76.489501953125
20
84.4748992919922
40
0.0
41
0.0
42
0.0
10
76.4143981933594
20
84.4289016723633
40
0.0
41
0.0
42
0.0
10
75.988899230957
20
84.2591018676758
40
0.0
41
0.0
42
0.0
10
75.5662002563477
20
84.0299987792969
40
0.0
41
0.0
42
0.0
10
75.5370025634766
20
84.0085983276367
40
0.0
41
0.0
42
0.0
10
75.0656967163086
20
83.7389984130859
40
0.0
41
0.0
42
0.0
10
74.9904022216797
20
83.6921005249023
40
0.0
41
0.0
42
0.0
10
74.6266021728516
20
83.5017013549805
40
0.0
41
0.0
42
0.0
10
74.5621032714844
20
83.461799621582
40
0.0
41
0.0
42
0.0
10
74.4875030517578
20
83.4228973388672
40
0.0
41
0.0
42
0.0
10
74.4112014770508
20
83.4038009643555
40
0.0
41
0.0
42
0.0
10
73.9882965087891
20
83.2434005737305
40
0.0
41
0.0
42
0.0
10
73.9443969726562
20
83.2459030151367
40
0.0
41
0.0
42
0.0
10
73.9057006835938
20
83.2457962036133
40
0.0
41
0.0
42
0.0
10
73.5093994140625
20
83.2176971435547
40
0.0
41
0.0
42
0.0
10
73.4406967163086
20
83.2350997924805
40
0.0
41
0.0
42
0.0
10
73.0150985717773
20
83.3011016845703
40
0.0
41
0.0
42
0.0
10
72.9389038085938
20
83.3256988525391
40
0.0
41
0.0
42
0.0
10
72.8996963500977
20
83.3364028930664
40
0.0
41
0.0
42
0.0
10
72.2892990112305
20
83.4860992431641
40
0.0
41
0.0
42
0.0
10
72.2447967529297
20
83.5
40
0.0
41
0.0
42
0.0
10
72.1735992431641
20
83.5268020629883
40
0.0
41
0.0
42
0.0
10
72.013801574707
20
83.5677032470703
40
0.0
41
0.0
42
0.0
10
71.8992004394531
20
83.6080017089844
40
0.0
41
0.0
42
0.0
10
71.5142974853516
20
83.6904983520508
40
0.0
41
0.0
42
0.0
10
71.4001007080078
20
83.7296981811523
40
0.0
41
0.0
42
0.0
10
71.0185012817383
20
83.7817001342773
40
0.0
41
0.0
42
0.0
10
70.6320037841797
20
83.7836990356445
40
0.0
41
0.0
42
0.0
10
70.5161972045898
20
83.8155975341797
40
0.0
41
0.0
42
0.0
10
70.3283004760742
20
83.8324966430664
40
0.0
41
0.0
42
0.0
10
70.2926025390625
20
83.8323974609375
40
0.0
41
0.0
42
0.0
10
69.9929962158203
20
83.7368011474609
40
0.0
41
0.0
42
0.0
10
69.86669921875
20
83.5587005615234
40
0.0
41
0.0
42
0.0
10
69.8078002929688
20
83.5050964355469
40
0.0
41
0.0
42
0.0
10
69.4949035644531
20
83.1557006835938
40
0.0
41
0.0
42
0.0
10
69.4828033447266
20
83.1446990966797
40
0.0
41
0.0
42
0.0
10
69.4761962890625
20
83.1304016113281
40
0.0
41
0.0
42
0.0
10
69.4764022827148
20
83.0149002075195
40
0.0
41
0.0
42
0.0
10
69.2900009155273
20
82.6266021728516
40
0.0
41
0.0
42
0.0
10
69.2754974365234
20
82.5888977050781
40
0.0
41
0.0
42
0.0
10
69.2592010498047
20
82.5141983032227
40
0.0
41
0.0
42
0.0
10
69.1081008911133
20
82.088996887207
40
0.0
41
0.0
42
0.0
10
69.0734024047852
20
81.9394989013672
40
0.0
41
0.0
42
0.0
10
68.9458999633789
20
81.5145034790039
40
0.0
41
0.0
42
0.0
10
68.9281005859375
20
81.439697265625
40
0.0
41
0.0
42
0.0
10
68.8098983764648
20
81.0139007568359
40
0.0
41
0.0
42
0.0
10
68.6452026367188
20
80.5111999511719
40
0.0
41
0.0
42
0.0
10
68.5994033813477
20
80.4349975585938
40
0.0
41
0.0
42
0.0
10
68.499397277832
20
80.2286987304688
40
0.0
41
0.0
42
0.0
10
68.3600997924805
20
80.0065002441406
40
0.0
41
0.0
42
0.0
10
68.0687026977539
20
79.7297973632812
40
0.0
41
0.0
42
0.0
10
67.9919967651367
20
79.6697998046875
40
0.0
41
0.0
42
0.0
10
67.967903137207
20
79.6546020507812
40
0.0
41
0.0
42
0.0
10
67.7736968994141
20
79.5026016235352
40
0.0
41
0.0
42
0.0
10
67.5410995483398
20
79.3619003295898
40
0.0
41
0.0
42
0.0
10
67.3752975463867
20
79.2760009765625
40
0.0
41
0.0
42
0.0
10
66.9898986816406
20
79.0395965576172
40
0.0
41
0.0
42
0.0
10
66.9545974731445
20
79.0235977172852
40
0.0
41
0.0
42
0.0
10
66.9188995361328
20
79.002197265625
40
0.0
41
0.0
42
0.0
10
66.5706024169922
20
78.772102355957
40
0.0
41
0.0
42
0.0
10
66.4896011352539
20
78.7283020019531
40
0.0
41
0.0
42
0.0
10
66.3764038085938
20
78.6729965209961
40
0.0
41
0.0
42
0.0
10
66.3397979736328
20
78.6429977416992
40
0.0
41
0.0
42
0.0
10
66.1324005126953
20
78.5035018920898
40
0.0
41
0.0
42
0.0
10
65.9901962280273
20
78.36669921875
40
0.0
41
0.0
42
0.0
10
65.9204025268555
20
78.3520965576172
40
0.0
41
0.0
42
0.0
10
65.6546020507812
20
78.1172027587891
40
0.0
41
0.0
42
0.0
10
65.6128005981445
20
78.0970993041992
40
0.0
41
0.0
42
0.0
10
65.4979019165039
20
77.8592987060547
40
0.0
41
0.0
42
0.0
10
65.3175964355469
20
77.6240005493164
40
0.0
41
0.0
42
0.0
10
65.2428970336914
20
77.5136032104492
40
0.0
41
0.0
42
0.0
10
65.2428970336914
20
77.4854965209961
40
0.0
41
0.0
42
0.0
10
65.2880020141602
20
77.4061965942383
40
0.0
41
0.0
42
0.0
10
65.3137969970703
20
77.3732986450195
40
0.0
41
0.0
42
0.0
210
0.0
220
0.0
230
1.0
0
LWPOLYLINE
5
25
330
1C
100
AcDbEntity
67
0
8
0
62
256
6
ByLayer
370
-1
48
1.0
60
0
100
AcDbPolyline
90
300
70
1
38
0.0
39
0.0
10
65.2966995239258
20
77.4991989135742
40
0.0
41
0.0
42
0.0
10
65.3859024047852
20
77.631103515625
40
0.0
41
0.0
42
0.0
10
65.5018997192383
20
77.782600402832
40
0.0
41
0.0
42
0.0
10
65.6334991455078
20
78.0562973022461
40
0.0
41
0.0
42
0.0
10
65.6673965454102
20
78.0726013183594
40
0.0
41
0.0
42
0.0
10
65.9649963378906
20
78.3355026245117
40
0.0
41
0.0
42
0.0
10
66.0096969604492
20
78.3449020385742
40
0.0
41
0.0
42
0.0
10
66.1671981811523
20
78.4963989257812
40
0.0
41
0.0
42
0.0
10
66.4077987670898
20
78.658203125
40
0.0
41
0.0
42
0.0
10
66.4336013793945
20
78.67919921875
40
0.0
41
0.0
42
0.0
10
66.5103988647461
20
78.716796875
40
0.0
41
0.0
42
0.0
10
66.5613021850586
20
78.7443008422852
40
0.0
41
0.0
42
0.0
10
66.9448013305664
20
78.9977035522461
40
0.0
41
0.0
42
0.0
10
66.9872970581055
20
79.0232009887695
40
0.0
41
0.0
42
0.0
10
67.0101013183594
20
79.0335006713867
40
0.0
41
0.0
42
0.0
10
67.4255981445312
20
79.2882995605469
40
0.0
41
0.0
42
0.0
10
67.5876007080078
20
79.371696472168
40
0.0
41
0.0
42
0.0
10
67.7953033447266
20
79.4972991943359
40
0.0
41
0.0
42
0.0
10
67.9709014892578
20
79.6346969604492
40
0.0
41
0.0
42
0.0
10
68.0078964233398
20
79.6579971313477
40
0.0
41
0.0
42
0.0
10
68.1212005615234
20
79.7468032836914
40
0.0
41
0.0
42
0.0
10
68.3808975219727
20
79.9933013916016
40
0.0
41
0.0
42
0.0
10
68.503303527832
20
80.1884002685547
40
0.0
41
0.0
42
0.0
10
68.5936965942383
20
80.375
40
0.0
41
0.0
42
0.0
10
68.6621017456055
20
80.4888000488281
40
0.0
41
0.0
42
0.0
10
68.8253021240234
20
80.9860992431641
40
0.0
41
0.0
42
0.0
10
68.931999206543
20
81.3702011108398
40
0.0
41
0.0
42
0.0
10
68.9593963623047
20
81.4853973388672
40
0.0
41
0.0
42
0.0
10
69.0751037597656
20
81.8703994750977
40
0.0
41
0.0
42
0.0
10
69.1287002563477
20
82.1008987426758
40
0.0
41
0.0
42
0.0
10
69.2655029296875
20
82.4857025146484
40
0.0
41
0.0
42
0.0
10
69.2874984741211
20
82.5873031616211
40
0.0
41
0.0
42
0.0
10
69.478401184082
20
82.9847030639648
40
0.0
41
0.0
42
0.0
10
69.4783020019531
20
83.059700012207
40
0.0
41
0.0
42
0.0
10
69.4932022094727
20
83.0923004150391
40
0.0
41
0.0
42
0.0
10
69.504997253418
20
83.1031036376953
40
0.0
41
0.0
42
0.0
10
69.8557968139648
20
83.4947967529297
40
0.0
41
0.0
42
0.0
10
69.9198989868164
20
83.5532989501953
40
0.0
41
0.0
42
0.0
10
70.0068969726562
20
83.6755981445312
40
0.0
41
0.0
42
0.0
10
70.3845977783203
20
83.7962036132812
40
0.0
41
0.0
42
0.0
10
70.4837036132812
20
83.7873001098633
40
0.0
41
0.0
42
0.0
10
70.5578002929688
20
83.7668991088867
40
0.0
41
0.0
42
0.0
10
70.9813995361328
20
83.7647018432617
40
0.0
41
0.0
42
0.0
10
71.409797668457
20
83.7063980102539
40
0.0
41
0.0
42
0.0
10
71.4856033325195
20
83.6804962158203
40
0.0
41
0.0
42
0.0
10
71.9106979370117
20
83.5894012451172
40
0.0
41
0.0
42
0.0
10
71.9860000610352
20
83.5627975463867
40
0.0
41
0.0
42
0.0
10
72.1628036499023
20
83.5175018310547
40
0.0
41
0.0
42
0.0
10
72.2101974487305
20
83.4998016357422
40
0.0
41
0.0
42
0.0
10
72.2371978759766
20
83.4913024902344
40
0.0
41
0.0
42
0.0
10
72.8840026855469
20
83.3326034545898
40
0.0
41
0.0
42
0.0
10
72.9848022460938
20
83.3001022338867
40
0.0
41
0.0
42
0.0
10
73.3691024780273
20
83.2404022216797
40
0.0
41
0.0
42
0.0
10
73.4824981689453
20
83.2117004394531
40
0.0
41
0.0
42
0.0
10
73.5255966186523
20
83.2120971679688
40
0.0
41
0.0
42
0.0
10
73.8872985839844
20
83.2377014160156
40
0.0
41
0.0
42
0.0
10
73.9804992675781
20
83.2326965332031
40
0.0
41
0.0
42
0.0
10
74.0160980224609
20
83.2325973510742
40
0.0
41
0.0
42
0.0
10
74.3986968994141
20
83.3777008056641
40
0.0
41
0.0
42
0.0
10
74.5123977661133
20
83.4061965942383
40
0.0
41
0.0
42
0.0
10
74.6195983886719
20
83.4620971679688
40
0.0
41
0.0
42
0.0
10
74.6780014038086
20
83.4981994628906
40
0.0
41
0.0
42
0.0
10
75.0094985961914
20
83.6717987060547
40
0.0
41
0.0
42
0.0
10
75.1241989135742
20
83.7429962158203
40
0.0
41
0.0
42
0.0
10
75.578498840332
20
84.003303527832
40
0.0
41
0.0
42
0.0
10
75.6237030029297
20
84.0363006591797
40
0.0
41
0.0
42
0.0
10
76.0110015869141
20
84.2463989257812
40
0.0
41
0.0
42
0.0
10
76.3955001831055
20
84.3998031616211
40
0.0
41
0.0
42
0.0
10
76.5102996826172
20
84.470100402832
40
0.0
41
0.0
42
0.0
10
76.5414962768555
20
84.4831008911133
40
0.0
41
0.0
42
0.0
10
76.6274032592773
20
84.5001983642578
40
0.0
41
0.0
42
0.0
10
76.951301574707
20
84.6128997802734
40
0.0
41
0.0
42
0.0
10
77.0102996826172
20
84.6748962402344
40
0.0
41
0.0
42
0.0
10
77.4378967285156
20
84.6651000976562
40
0.0
41
0.0
42
0.0
10
77.4524993896484
20
84.6764984130859
40
0.0
41
0.0
42
0.0
10
77.4991989135742
20
84.7030029296875
40
0.0
41
0.0
42
0.0
10
77.631103515625
20
84.613899230957
40
0.0
41
0.0
42
0.0
10
77.782600402832
20
84.4979019165039
40
0.0
41
0.0
42
0.0
10
78.0562973022461
20
84.3663024902344
40
0.0
41
0.0
42
0.0
10
78.0726013183594
20
84.3323974609375
40
0.0
41
0.0
42
0.0
10
78.3355026245117
20
84.0346984863281
40
0.0
41
0.0
42
0.0
10
78.3448028564453
20
83.9900970458984
40
0.0
41
0.0
42
0.0
10
78.4962997436523
20
83.8326034545898
40
0.0
41
0.0
42
0.0
10
78.658203125
20
83.5920028686523
40
0.0
41
0.0
42
0.0
10
78.67919921875
20
83.5662994384766
40
0.0
41
0.0
42
0.0
10
78.7166976928711
20
83.489501953125
40
0.0
41
0.0
42
0.0
10
78.7442016601562
20
83.4384994506836
40
0.0
41
0.0
42
0.0
10
78.9977035522461
20
83.0550003051758
40
0.0
41
0.0
42
0.0
10
79.0232009887695
20
83.0124969482422
40
0.0
41
0.0
42
0.0
10
79.0335006713867
20
82.9897994995117
40
0.0
41
0.0
42
0.0
10
79.2882995605469
20
82.5743026733398
40
0.0
41
0.0
42
0.0
10
79.3715972900391
20
82.4121017456055
40
0.0
41
0.0
42
0.0
10
79.497200012207
20
82.2045974731445
40
0.0
41
0.0
42
0.0
10
79.6346969604492
20
82.0289001464844
40
0.0
41
0.0
42
0.0
10
79.6578979492188
20
81.9919967651367
40
0.0
41
0.0
42
0.0
10
79.7468032836914
20
81.8784027099609
40
0.0
41
0.0
42
0.0
10
79.9933013916016
20
81.6187973022461
40
0.0
41
0.0
42
0.0
10
80.1884002685547
20
81.4963989257812
40
0.0
41
0.0
42
0.0
10
80.3749008178711
20
81.4059982299805
40
0.0
41
0.0
42
0.0
10
80.4887008666992
20
81.3376007080078
40
0.0
41
0.0
42
0.0
10
80.9860000610352
20
81.1744003295898
40
0.0
41
0.0
42
0.0
10
81.3702011108398
20
81.0677032470703
40
0.0
41
0.0
42
0.0
10
81.4853973388672
20
81.0402984619141
40
0.0
41
0.0
42
0.0
10
81.8703002929688
20
80.9245986938477
40
0.0
41
0.0
42
0.0
10
81.9858016967773
20
80.8982009887695
40
0.0
41
0.0
42
0.0
10
82.3709030151367
20
80.7612991333008
40
0.0
41
0.0
42
0.0
10
82.4869995117188
20
80.7339019775391
40
0.0
41
0.0
42
0.0
10
82.8725967407227
20
80.548698425293
40
0.0
41
0.0
42
0.0
10
82.9103012084961
20
80.5369033813477
40
0.0
41
0.0
42
0.0
10
82.9822006225586
20
80.5213012695312
40
0.0
41
0.0
42
0.0
10
83.059700012207
20
80.5214004516602
40
0.0
41
0.0
42
0.0
10
83.0922012329102
20
80.5065994262695
40
0.0
41
0.0
42
0.0
10
83.1029968261719
20
80.4949035644531
40
0.0
41
0.0
42
0.0
10
83.4946975708008
20
80.1439971923828
40
0.0
41
0.0
42
0.0
10
83.5531997680664
20
80.0798034667969
40
0.0
41
0.0
42
0.0
10
83.6755981445312
20
79.9929962158203
40
0.0
41
0.0
42
0.0
10
83.7962036132812
20
79.6151962280273
40
0.0
41
0.0
42
0.0
10
83.7873992919922
20
79.5161972045898
40
0.0
41
0.0
42
0.0
10
83.7668991088867
20
79.4421005249023
40
0.0
41
0.0
42
0.0
10
83.7647018432617
20
79.0185012817383
40
0.0
41
0.0
42
0.0
10
83.7063980102539
20
78.5901031494141
40
0.0
41
0.0
42
0.0
10
83.6804962158203
20
78.5142974853516
40
0.0
41
0.0
42
0.0
10
83.5894012451172
20
78.0892028808594
40
0.0
41
0.0
42
0.0
10
83.5627975463867
20
78.0139007568359
40
0.0
41
0.0
42
0.0
10
83.5176010131836
20
77.8368988037109
40
0.0
41
0.0
42
0.0
10
83.4998016357422
20
77.7895965576172
40
0.0
41
0.0
42
0.0
10
83.4913024902344
20
77.7626037597656
40
0.0
41
0.0
42
0.0
10
83.3326034545898
20
77.1158981323242
40
0.0
41
0.0
42
0.0
10
83.3001022338867
20
77.0150985717773
40
0.0
41
0.0
42
0.0
10
83.2404022216797
20
76.6307983398438
40
0.0
41
0.0
42
0.0
10
83.2117004394531
20
76.5174026489258
40
0.0
41
0.0
42
0.0
10
83.2120971679688
20
76.4741973876953
40
0.0
41
0.0
42
0.0
10
83.2377014160156
20
76.1126022338867
40
0.0
41
0.0
42
0.0
10
83.2326965332031
20
76.019401550293
40
0.0
41
0.0
42
0.0
10
83.2325973510742
20
75.9838027954102
40
0.0
41
0.0
42
0.0
10
83.3777008056641
20
75.6011962890625
40
0.0
41
0.0
42
0.0
10
83.4061965942383
20
75.4875030517578
40
0.0
41
0.0
42
0.0
10
83.4620971679688
20
75.3802032470703
40
0.0
41
0.0
42
0.0
10
83.4981994628906
20
75.3217010498047
40
0.0
41
0.0
42
0.0
10
83.6716995239258
20
74.9903030395508
40
0.0
41
0.0
42
0.0
10
83.7429962158203
20
74.8757019042969
40
0.0
41
0.0
42
0.0
10
84.003303527832
20
74.4213027954102
40
0.0
41
0.0
42
0.0
10
84.0363006591797
20
74.3761978149414
40
0.0
41
0.0
42
0.0
10
84.2463989257812
20
73.988899230957
40
0.0
41
0.0
42
0.0
10
84.3998031616211
20
73.6044006347656
40
0.0
41
0.0
42
0.0
10
84.4700012207031
20
73.489501953125
40
0.0
41
0.0
42
0.0
10
84.4831008911133
20
73.4582977294922
40
0.0
41
0.0
42
0.0
10
84.5001983642578
20
73.3724975585938
40
0.0
41
0.0
42
0.0
10
84.6128997802734
20
73.0484008789062
40
0.0
41
0.0
42
0.0
10
84.6748962402344
20
72.9896011352539
40
0.0
41
0.0
42
0.0
10
84.6651000976562
20
72.5619964599609
40
0.0
41
0.0
42
0.0
10
84.6764984130859
20
72.5474014282227
40
0.0
41
0.0
42
0.0
10
84.7032012939453
20
72.5007019042969
40
0.0
41
0.0
42
0.0
10
84.6139984130859
20
72.3686981201172
40
0.0
41
0.0
42
0.0
10
84.4979019165039
20
72.2172012329102
40
0.0
41
0.0
42
0.0
10
84.3983001708984
20
72.0086975097656
40
0.0
41
0.0
42
0.0
10
84.3336029052734
20
71.9273986816406
40
0.0
41
0.0
42
0.0
10
84.2695999145508
20
71.902099609375
40
0.0
41
0.0
42
0.0
10
83.9942016601562
20
71.6587982177734
40
0.0
41
0.0
42
0.0
10
83.8326034545898
20
71.5035018920898
40
0.0
41
0.0
42
0.0
10
83.5920028686523
20
71.3415985107422
40
0.0
41
0.0
42
0.0
10
83.5663986206055
20
71.3205032348633
40
0.0
41
0.0
42
0.0
10
83.489501953125
20
71.2829971313477
40
0.0
41
0.0
42
0.0
10
83.4384994506836
20
71.255500793457
40
0.0
41
0.0
42
0.0
10
83.0550003051758
20
71.002197265625
40
0.0
41
0.0
42
0.0
10
83.0129013061523
20
70.9767990112305
40
0.0
41
0.0
42
0.0
10
82.9085998535156
20
70.9244003295898
40
0.0
41
0.0
42
0.0
10
82.4903030395508
20
70.6686019897461
40
0.0
41
0.0
42
0.0
10
82.4122009277344
20
70.6280975341797
40
0.0
41
0.0
42
0.0
10
82.2045974731445
20
70.5026016235352
40
0.0
41
0.0
42
0.0
10
82.0289001464844
20
70.3650970458984
40
0.0
41
0.0
42
0.0
10
81.9921035766602
20
70.341796875
40
0.0
41
0.0
42
0.0
10
81.8785018920898
20
70.2528991699219
40
0.0
41
0.0
42
0.0
10
81.618896484375
20
70.0065994262695
40
0.0
41
0.0
42
0.0
10
81.4964981079102
20
69.8114013671875
40
0.0
41
0.0
42
0.0
10
81.4060974121094
20
69.625
40
0.0
41
0.0
42
0.0
10
81.3376007080078
20
69.5111999511719
40
0.0
41
0.0
42
0.0
10
81.1744003295898
20
69.0139007568359
40
0.0
41
0.0
42
0.0
10
81.0678024291992
20
68.6296997070312
40
0.0
41
0.0
42
0.0
10
81.0402984619141
20
68.5145034790039
40
0.0
41
0.0
42
0.0
10
80.9245986938477
20
68.1296005249023
40
0.0
41
0.0
42
0.0
10
80.8982009887695
20
68.0140991210938
40
0.0
41
0.0
42
0.0
10
80.7612991333008
20
67.6289978027344
40
0.0
41
0.0
42
0.0
10
80.7339019775391
20
67.5129013061523
40
0.0
41
0.0
42
0.0
10
80.548698425293
20
67.127197265625
40
0.0
41
0.0
42
0.0
10
80.5370025634766
20
67.089599609375
40
0.0
41
0.0
42
0.0
10
80.5213012695312
20
67.0177001953125
40
0.0
41
0.0
42
0.0
10
80.5214004516602
20
66.9401016235352
40
0.0
41
0.0
42
0.0
10
80.5066986083984
20
66.907600402832
40
0.0
41
0.0
42
0.0
10
80.4949035644531
20
66.8966979980469
40
0.0
41
0.0
42
0.0
10
80.1439971923828
20
66.5050964355469
40
0.0
41
0.0
42
0.0
10
80.0799026489258
20
66.4467010498047
40
0.0
41
0.0
42
0.0
10
79.9931030273438
20
66.3240966796875
40
0.0
41
0.0
42
0.0
10
79.6151962280273
20
66.203498840332
40
0.0
41
0.0
42
0.0
10
79.5161972045898
20
66.2123031616211
40
0.0
41
0.0
42
0.0
10
79.4421005249023
20
66.2328033447266
40
0.0
41
0.0
42
0.0
10
79.0164031982422
20
66.2350006103516
40
0.0
41
0.0
42
0.0
10
78.9401016235352
20
66.261100769043
40
0.0
41
0.0
42
0.0
10
78.5149993896484
20
66.3189010620117
40
0.0
41
0.0
42
0.0
10
78.4392013549805
20
66.3455963134766
40
0.0
41
0.0
42
0.0
10
78.0150985717773
20
66.4365005493164
40
0.0
41
0.0
42
0.0
10
77.8368988037109
20
66.4821014404297
40
0.0
41
0.0
42
0.0
10
77.7895965576172
20
66.5
40
0.0
41
0.0
42
0.0
10
77.7626037597656
20
66.50830078125
40
0.0
41
0.0
42
0.0
10
77.5142974853516
20
66.5689010620117
40
0.0
41
0.0
42
0.0
10
77.399299621582
20
66.6052017211914
40
0.0
41
0.0
42
0.0
10
76.9008026123047
20
66.7287979125977
40
0.0
41
0.0
42
0.0
10
76.5177993774414
20
66.7881011962891
40
0.0
41
0.0
42
0.0
10
76.4044036865234
20
66.7945022583008
40
0.0
41
0.0
42
0.0
10
76.3656997680664
20
66.7944030761719
40
0.0
41
0.0
42
0.0
10
75.9832992553711
20
66.7673034667969
40
0.0
41
0.0
42
0.0
10
75.8712997436523
20
66.7393035888672
40
0.0
41
0.0
42
0.0
10
75.4886016845703
20
66.5941009521484
40
0.0
41
0.0
42
0.0
10
75.3802032470703
20
66.5376968383789
40
0.0
41
0.0
42
0.0
10
75.3217010498047
20
66.5017013549805
40
0.0
41
0.0
42
0.0
10
74.9904022216797
20
66.3280029296875
40
0.0
41
0.0
42
0.0
10
74.8757019042969
20
66.2567977905273
40
0.0
41
0.0
42
0.0
10
74.4213027954102
20
65.9964981079102
40
0.0
41
0.0
42
0.0
10
74.3761978149414
20
65.9634017944336
40
0.0
41
0.0
42
0.0
10
73.9905014038086
20
65.7542037963867
40
0.0
41
0.0
42
0.0
10
73.874397277832
20
65.6831970214844
40
0.0
41
0.0
42
0.0
10
73.4581985473633
20
65.5164031982422
40
0.0
41
0.0
42
0.0
10
73.3724975585938
20
65.4996032714844
40
0.0
41
0.0
42
0.0
10
73.0485000610352
20
65.3869018554688
40
0.0
41
0.0
42
0.0
10
72.9897003173828
20
65.3247985839844
40
0.0
41
0.0
42
0.0
10
72.5619964599609
20
65.3347015380859
40
0.0
41
0.0
42
0.0
10
72.5474014282227
20
65.3231964111328
40
0.0
41
0.0
42
0.0
10
72.5007019042969
20
65.2966003417969
40
0.0
41
0.0
42
0.0
10
72.3685989379883
20
65.3859024047852
40
0.0
41
0.0
42
0.0
10
72.2172012329102
20
65.5018997192383
40
0.0
41
0.0
42
0.0
10
72.0065994262695
20
65.6025009155273
40
0.0
41
0.0
42
0.0
10
71.904296875
20
65.7276992797852
40
0.0
41
0.0
42
0.0
10
71.6586990356445
20
66.0056991577148
40
0.0
41
0.0
42
0.0
10
71.5035018920898
20
66.1670989990234
40
0.0
41
0.0
42
0.0
10
71.3414993286133
20
66.4077987670898
40
0.0
41
0.0
42
0.0
10
71.3205032348633
20
66.4335021972656
40
0.0
41
0.0
42
0.0
10
71.2828979492188
20
66.5102996826172
40
0.0
41
0.0
42
0.0
10
71.2554016113281
20
66.5612030029297
40
0.0
41
0.0
42
0.0
10
71.0020980834961
20
66.9447021484375
40
0.0
41
0.0
42
0.0
10
70.9767990112305
20
66.9869003295898
40
0.0
41
0.0
42
0.0
10
70.9244003295898
20
67.0912017822266
40
0.0
41
0.0
42
0.0
10
70.6686019897461
20
67.5095977783203
40
0.0
41
0.0
42
0.0
10
70.6280975341797
20
67.5875015258789
40
0.0
41
0.0
42
0.0
10
70.5026016235352
20
67.7953033447266
40
0.0
41
0.0
42
0.0
10
70.3649978637695
20
67.9708023071289
40
0.0
41
0.0
42
0.0
10
70.341796875
20
68.0077972412109
40
0.0
41
0.0
42
0.0
10
70.2529983520508
20
68.1212005615234
40
0.0
41
0.0
42
0.0
10
70.0065002441406
20
68.3807983398438
40
0.0
41
0.0
42
0.0
10
69.8114013671875
20
68.5031967163086
40
0.0
41
0.0
42
0.0
10
69.6249008178711
20
68.5935974121094
40
0.0
41
0.0
42
0.0
10
69.511100769043
20
68.6621017456055
40
0.0
41
0.0
42
0.0
10
69.013801574707
20
68.8253021240234
40
0.0
41
0.0
42
0.0
10
68.6296997070312
20
68.9319000244141
40
0.0
41
0.0
42
0.0
10
68.5145034790039
20
68.9593963623047
40
0.0
41
0.0
42
0.0
10
68.1295013427734
20
69.0751037597656
40
0.0
41
0.0
42
0.0
10
67.8990020751953
20
69.1286010742188
40
0.0
41
0.0
42
0.0
10
67.5141983032227
20
69.2654037475586
40
0.0
41
0.0
42
0.0
10
67.41259765625
20
69.2874984741211
40
0.0
41
0.0
42
0.0
10
67.0151977539062
20
69.478401184082
40
0.0
41
0.0
42
0.0
10
66.9401016235352
20
69.4783020019531
40
0.0
41
0.0
42
0.0
10
66.9075012207031
20
69.4931030273438
40
0.0
41
0.0
42
0.0
10
66.896598815918
20
69.504997253418
40
0.0
41
0.0
42
0.0
10
66.5050964355469
20
69.8556976318359
40
0.0
41
0.0
42
0.0
10
66.4466018676758
20
69.9198989868164
40
0.0
41
0.0
42
0.0
10
66.3240966796875
20
70.0067977905273
40
0.0
41
0.0
42
0.0
10
66.203498840332
20
70.3845977783203
40
0.0
41
0.0
42
0.0
10
66.21240234375
20
70.4837036132812
40
0.0
41
0.0
42
0.0
10
66.2328033447266
20
70.5578002929688
40
0.0
41
0.0
42
0.0
10
66.2350006103516
20
70.9834976196289
40
0.0
41
0.0
42
0.0
10
66.261100769043
20
71.0597991943359
40
0.0
41
0.0
42
0.0
10
66.3190002441406
20
71.4849014282227
40
0.0
41
0.0
42
0.0
10
66.3455963134766
20
71.5606994628906
40
0.0
41
0.0
42
0.0
10
66.4365997314453
20
71.9848022460938
40
0.0
41
0.0
42
0.0
10
66.4822006225586
20
72.1629028320312
40
0.0
41
0.0
42
0.0
10
66.5000991821289
20
72.2101974487305
40
0.0
41
0.0
42
0.0
10
66.50830078125
20
72.2371978759766
40
0.0
41
0.0
42
0.0
10
66.5690002441406
20
72.4856033325195
40
0.0
41
0.0
42
0.0
10
66.6052017211914
20
72.6006011962891
40
0.0
41
0.0
42
0.0
10
66.7287979125977
20
73.0990982055664
40
0.0
41
0.0
42
0.0
10
66.7881011962891
20
73.4821014404297
40
0.0
41
0.0
42
0.0
10
66.7945022583008
20
73.5954971313477
40
0.0
41
0.0
42
0.0
10
66.7944030761719
20
73.6342010498047
40
0.0
41
0.0
42
0.0
10
66.7673034667969
20
74.0166015625
40
0.0
41
0.0
42
0.0
10
66.7393035888672
20
74.1286010742188
40
0.0
41
0.0
42
0.0
10
66.5941009521484
20
74.5112991333008
40
0.0
41
0.0
42
0.0
10
66.53759765625
20
74.619499206543
40
0.0
41
0.0
42
0.0
10
66.5016021728516
20
74.6780014038086
40
0.0
41
0.0
42
0.0
10
66.3280029296875
20
75.0094985961914
40
0.0
41
0.0
42
0.0
10
66.2566986083984
20
75.1240997314453
40
0.0
41
0.0
42
0.0
10
65.9964981079102
20
75.578498840332
40
0.0
41
0.0
42
0.0
10
65.9634017944336
20
75.6237030029297
40
0.0
41
0.0
42
0.0
10
65.7542037963867
20
76.0093994140625
40
0.0
41
0.0
42
0.0
10
65.6831970214844
20
76.1255035400391
40
0.0
41
0.0
42
0.0
10
65.5164031982422
20
76.5416030883789
40
0.0
41
0.0
42
0.0
10
65.4994964599609
20
76.6274032592773
40
0.0
41
0.0
42
0.0
10
65.3868026733398
20
76.951301574707
40
0.0
41
0.0
42
0.0
10
65.3247985839844
20
77.0102005004883
40
0.0
41
0.0
42
0.0
10
65.334602355957
20
77.4378967285156
40
0.0
41
0.0
42
0.0
10
65.3231964111328
20
77.4524993896484
40
0.0
41
0.0
42
0.0
10
65.2966995239258
20
77.4991989135742
40
0.0
41
0.0
42
0.0
210
0.0
220
0.0
230
1.0
0
LWPOLYLINE
5
26
330
1C
100
AcDbEntity
67
0
8
0
62
256
6
ByLayer
370
-1
48
1.0
60
0
100
AcDbPolyline
90
8
70
1
38
0.0
39
0.0
10
66.2490997314453
20
84.5632019042969
40
0.0
41
0.0
42
0.0
10
66.2490005493164
20
84.5596008300781
40
0.0
41
0.0
42
0.0
10
66.250602722168
20
84.5953979492188
40
0.0
41
0.0
42
0.0
10
66.2505035400391
20
84.6316986083984
40
0.0
41
0.0
42
0.0
10
66.1325988769531
20
84.9990005493164
40
0.0
41
0.0
42
0.0
10
66.114501953125
20
84.9990005493164
40
0.0
41
0.0
42
0.0
10
66.1144027709961
20
84.9832000732422
40
0.0
41
0.0
42
0.0
10
66.2490997314453
20
84.5632019042969
40
0.0
41
0.0
42
0.0
210
0.0
220
0.0
230
1.0
0
LWPOLYLINE
5
27
330
1C
100
AcDbEntity
67
0
8
0
62
256
6
ByLayer
370
-1
48
1.0
60
0
100
AcDbPolyline
90
39
70
1
38
0.0
39
0.0
10
66.2479019165039
20
84.5099029541016
40
0.0
41
0.0
42
0.0
10
66.2473983764648
20
84.4859008789062
40
0.0
41
0.0
42
0.0
10
66.2997970581055
20
84.404296875
40
0.0
41
0.0
42
0.0
10
66.4870986938477
20
84.2925033569336
40
0.0
41
0.0
42
0.0
10
66.869499206543
20
84.2358016967773
40
0.0
41
0.0
42
0.0
10
66.9834976196289
20
84.2015991210938
40
0.0
41
0.0
42
0.0
10
67.1259994506836
20
84.1953964233398
40
0.0
41
0.0
42
0.0
10
67.500602722168
20
84.1988983154297
40
0.0
41
0.0
42
0.0
10
67.6675033569336
20
84.1977005004883
40
0.0
41
0.0
42
0.0
10
68.0093002319336
20
84.2203979492188
40
0.0
41
0.0
42
0.0
10
68.1727981567383
20
84.2175979614258
40
0.0
41
0.0
42
0.0
10
68.5057983398438
20
84.2542037963867
40
0.0
41
0.0
42
0.0
10
68.647102355957
20
84.2462997436523
40
0.0
41
0.0
42
0.0
10
68.684196472168
20
84.2462005615234
40
0.0
41
0.0
42
0.0
10
69.0141983032227
20
84.3206024169922
40
0.0
41
0.0
42
0.0
10
69.5029983520508
20
84.4905014038086
40
0.0
41
0.0
42
0.0
10
69.5129013061523
20
84.4904022216797
40
0.0
41
0.0
42
0.0
10
69.5202026367188
20
84.4959030151367
40
0.0
41
0.0
42
0.0
10
70.003303527832
20
84.9616012573242
40
0.0
41
0.0
42
0.0
10
70.0177993774414
20
84.9857025146484
40
0.0
41
0.0
42
0.0
10
70.0177993774414
20
84.9990005493164
40
0.0
41
0.0
42
0.0
10
69.9244995117188
20
84.9989013671875
40
0.0
41
0.0
42
0.0
10
69.8513031005859
20
84.9218978881836
40
0.0
41
0.0
42
0.0
10
69.4919967651367
20
84.570198059082
40
0.0
41
0.0
42
0.0
10
69.3262023925781
20
84.4941024780273
40
0.0
41
0.0
42
0.0
10
68.9857025146484
20
84.3759994506836
40
0.0
41
0.0
42
0.0
10
68.5982971191406
20
84.2885971069336
40
0.0
41
0.0
42
0.0
10
68.519401550293
20
84.293098449707
40
0.0
41
0.0
42
0.0
10
68.4811019897461
20
84.2929992675781
40
0.0
41
0.0
42
0.0
10
68.0879974365234
20
84.2498016357422
40
0.0
41
0.0
42
0.0
10
67.9804992675781
20
84.2512969970703
40
0.0
41
0.0
42
0.0
10
67.5822982788086
20
84.2248992919922
40
0.0
41
0.0
42
0.0
10
67.4800033569336
20
84.2255020141602
40
0.0
41
0.0
42
0.0
10
67.1069030761719
20
84.2216033935547
40
0.0
41
0.0
42
0.0
10
67.0164031982422
20
84.2255020141602
40
0.0
41
0.0
42
0.0
10
66.9403991699219
20
84.2483978271484
40
0.0
41
0.0
42
0.0
10
66.5127029418945
20
84.3117980957031
40
0.0
41
0.0
42
0.0
10
66.2894973754883
20
84.4449996948242
40
0.0
41
0.0
42
0.0
10
66.2479019165039
20
84.5099029541016
40
0.0
41
0.0
42
0.0
210
0.0
220
0.0
230
1.0
0
LWPOLYLINE
5
28
330
1C
100
AcDbEntity
67
0
8
0
62
256
6
ByLayer
370
-1
48
1.0
60
0
100
AcDbPolyline
90
175
70
1
38
0.0
39
0.0
10
69.5005035400391
20
74.1230010986328
40
0.0
41
0.0
42
0.0
10
69.5262985229492
20
73.9919967651367
40
0.0
41
0.0
42
0.0
10
69.5447006225586
20
73.9785003662109
40
0.0
41
0.0
42
0.0
10
69.568603515625
20
73.9570007324219
40
0.0
41
0.0
42
0.0
10
69.9919967651367
20
73.6103973388672
40
0.0
41
0.0
42
0.0
10
70.1723022460938
20
73.5034027099609
40
0.0
41
0.0
42
0.0
10
70.4885025024414
20
73.3644027709961
40
0.0
41
0.0
42
0.0
10
70.563102722168
20
73.3301010131836
40
0.0
41
0.0
42
0.0
10
70.9880981445312
20
73.1657028198242
40
0.0
41
0.0
42
0.0
10
71.2538986206055
20
73.0436019897461
40
0.0
41
0.0
42
0.0
10
71.3335037231445
20
72.9934005737305
40
0.0
41
0.0
42
0.0
10
71.4582977294922
20
72.5581970214844
40
0.0
41
0.0
42
0.0
10
71.4595031738281
20
72.5128021240234
40
0.0
41
0.0
42
0.0
10
71.3747024536133
20
72.0168991088867
40
0.0
41
0.0
42
0.0
10
71.3239974975586
20
71.592903137207
40
0.0
41
0.0
42
0.0
10
71.318603515625
20
71.5192031860352
40
0.0
41
0.0
42
0.0
10
71.3184967041016
20
71.4804992675781
40
0.0
41
0.0
42
0.0
10
71.339599609375
20
71.0571975708008
40
0.0
41
0.0
42
0.0
10
71.3511962890625
20
70.986701965332
40
0.0
41
0.0
42
0.0
10
71.3581008911133
20
70.9738006591797
40
0.0
41
0.0
42
0.0
10
71.4965972900391
20
70.6361999511719
40
0.0
41
0.0
42
0.0
10
71.5665969848633
20
70.5949020385742
40
0.0
41
0.0
42
0.0
10
71.6722030639648
20
70.5141983032227
40
0.0
41
0.0
42
0.0
10
71.9834976196289
20
70.4068984985352
40
0.0
41
0.0
42
0.0
10
72.0183029174805
20
70.4067993164062
40
0.0
41
0.0
42
0.0
10
72.3807983398438
20
70.4656982421875
40
0.0
41
0.0
42
0.0
10
72.5145034790039
20
70.4856033325195
40
0.0
41
0.0
42
0.0
10
72.9376983642578
20
70.6501007080078
40
0.0
41
0.0
42
0.0
10
73.0120010375977
20
70.6759033203125
40
0.0
41
0.0
42
0.0
10
73.4364013671875
20
70.8785018920898
40
0.0
41
0.0
42
0.0
10
73.4956970214844
20
70.9035034179688
40
0.0
41
0.0
42
0.0
10
73.5134963989258
20
70.9126968383789
40
0.0
41
0.0
42
0.0
10
73.9072036743164
20
70.9675979614258
40
0.0
41
0.0
42
0.0
10
73.9906997680664
20
70.9720001220703
40
0.0
41
0.0
42
0.0
10
74.3518981933594
20
70.5684967041016
40
0.0
41
0.0
42
0.0
10
74.4196014404297
20
70.4857025146484
40
0.0
41
0.0
42
0.0
10
74.4960021972656
20
70.4022979736328
40
0.0
41
0.0
42
0.0
10
74.7543029785156
20
70.0599975585938
40
0.0
41
0.0
42
0.0
10
74.9933013916016
20
69.77490234375
40
0.0
41
0.0
42
0.0
10
75.0655975341797
20
69.7372970581055
40
0.0
41
0.0
42
0.0
10
75.4289016723633
20
69.4970016479492
40
0.0
41
0.0
42
0.0
10
75.4869995117188
20
69.4532012939453
40
0.0
41
0.0
42
0.0
10
75.5186996459961
20
69.4531021118164
40
0.0
41
0.0
42
0.0
10
75.8308029174805
20
69.4898986816406
40
0.0
41
0.0
42
0.0
10
75.8768005371094
20
69.5005035400391
40
0.0
41
0.0
42
0.0
10
76.0077972412109
20
69.5262985229492
40
0.0
41
0.0
42
0.0
10
76.0213012695312
20
69.5447006225586
40
0.0
41
0.0
42
0.0
10
76.0428009033203
20
69.5687026977539
40
0.0
41
0.0
42
0.0
10
76.3893966674805
20
69.9919967651367
40
0.0
41
0.0
42
0.0
10
76.4962997436523
20
70.1724014282227
40
0.0
41
0.0
42
0.0
10
76.6352996826172
20
70.4886016845703
40
0.0
41
0.0
42
0.0
10
76.6696014404297
20
70.563102722168
40
0.0
41
0.0
42
0.0
10
76.8339996337891
20
70.9880981445312
40
0.0
41
0.0
42
0.0
10
76.9561004638672
20
71.2539978027344
40
0.0
41
0.0
42
0.0
10
77.0065002441406
20
71.3336029052734
40
0.0
41
0.0
42
0.0
10
77.4417037963867
20
71.4582977294922
40
0.0
41
0.0
42
0.0
10
77.4870986938477
20
71.4595031738281
40
0.0
41
0.0
42
0.0
10
77.9830017089844
20
71.3747024536133
40
0.0
41
0.0
42
0.0
10
78.4069976806641
20
71.3239974975586
40
0.0
41
0.0
42
0.0
10
78.4806976318359
20
71.318603515625
40
0.0
41
0.0
42
0.0
10
78.519401550293
20
71.3184967041016
40
0.0
41
0.0
42
0.0
10
78.9427032470703
20
71.3396987915039
40
0.0
41
0.0
42
0.0
10
79.0130996704102
20
71.3513031005859
40
0.0
41
0.0
42
0.0
10
79.0260009765625
20
71.3582000732422
40
0.0
41
0.0
42
0.0
10
79.3636016845703
20
71.496696472168
40
0.0
41
0.0
42
0.0
10
79.404899597168
20
71.5667037963867
40
0.0
41
0.0
42
0.0
10
79.4854965209961
20
71.6722030639648
40
0.0
41
0.0
42
0.0
10
79.5930023193359
20
71.9834976196289
40
0.0
41
0.0
42
0.0
10
79.592903137207
20
72.0182037353516
40
0.0
41
0.0
42
0.0
10
79.5339965820312
20
72.3807983398438
40
0.0
41
0.0
42
0.0
10
79.5141983032227
20
72.5145034790039
40
0.0
41
0.0
42
0.0
10
79.3497009277344
20
72.9376983642578
40
0.0
41
0.0
42
0.0
10
79.3237991333008
20
73.0119018554688
40
0.0
41
0.0
42
0.0
10
79.1212005615234
20
73.4363021850586
40
0.0
41
0.0
42
0.0
10
79.0961990356445
20
73.4956970214844
40
0.0
41
0.0
42
0.0
10
79.0869979858398
20
73.5133972167969
40
0.0
41
0.0
42
0.0
10
79.032096862793
20
73.907096862793
40
0.0
41
0.0
42
0.0
10
79.027702331543
20
73.9906997680664
40
0.0
41
0.0
42
0.0
10
79.4312973022461
20
74.3519973754883
40
0.0
41
0.0
42
0.0
10
79.5139999389648
20
74.4197006225586
40
0.0
41
0.0
42
0.0
10
79.5973968505859
20
74.4961013793945
40
0.0
41
0.0
42
0.0
10
79.939697265625
20
74.7543029785156
40
0.0
41
0.0
42
0.0
10
80.2248001098633
20
74.9934005737305
40
0.0
41
0.0
42
0.0
10
80.2623977661133
20
75.0655975341797
40
0.0
41
0.0
42
0.0
10
80.502799987793
20
75.4290008544922
40
0.0
41
0.0
42
0.0
10
80.5466995239258
20
75.4869995117188
40
0.0
41
0.0
42
0.0
10
80.5466003417969
20
75.5186996459961
40
0.0
41
0.0
42
0.0
10
80.5098037719727
20
75.8310012817383
40
0.0
41
0.0
42
0.0
10
80.4733963012695
20
76.007698059082
40
0.0
41
0.0
42
0.0
10
80.4552001953125
20
76.0212020874023
40
0.0
41
0.0
42
0.0
10
80.4311981201172
20
76.0427017211914
40
0.0
41
0.0
42
0.0
10
80.0077972412109
20
76.3892974853516
40
0.0
41
0.0
42
0.0
10
79.8274002075195
20
76.4962997436523
40
0.0
41
0.0
42
0.0
10
79.5112991333008
20
76.6352996826172
40
0.0
41
0.0
42
0.0
10
79.4367980957031
20
76.6696014404297
40
0.0
41
0.0
42
0.0
10
79.0118026733398
20
76.8339996337891
40
0.0
41
0.0
42
0.0
10
78.7457962036133
20
76.9561004638672
40
0.0
41
0.0
42
0.0
10
78.6634979248047
20
77.0082015991211
40
0.0
41
0.0
42
0.0
10
78.6611022949219
20
77.0916976928711
40
0.0
41
0.0
42
0.0
10
78.5429992675781
20
77.503303527832
40
0.0
41
0.0
42
0.0
10
78.6249008178711
20
77.9824981689453
40
0.0
41
0.0
42
0.0
10
78.6305999755859
20
78.056999206543
40
0.0
41
0.0
42
0.0
10
78.6812973022461
20
78.481201171875
40
0.0
41
0.0
42
0.0
10
78.6811981201172
20
78.5182037353516
40
0.0
41
0.0
42
0.0
10
78.6688003540039
20
78.5926971435547
40
0.0
41
0.0
42
0.0
10
78.6477966308594
20
79.0141983032227
40
0.0
41
0.0
42
0.0
10
78.6416015625
20
79.0260009765625
40
0.0
41
0.0
42
0.0
10
78.5031967163086
20
79.3635025024414
40
0.0
41
0.0
42
0.0
10
78.4331970214844
20
79.404899597168
40
0.0
41
0.0
42
0.0
10
78.3275985717773
20
79.4853973388672
40
0.0
41
0.0
42
0.0
10
78.0164031982422
20
79.5930023193359
40
0.0
41
0.0
42
0.0
10
77.9816970825195
20
79.592903137207
40
0.0
41
0.0
42
0.0
10
77.6190032958984
20
79.5339965820312
40
0.0
41
0.0
42
0.0
10
77.4853973388672
20
79.5141983032227
40
0.0
41
0.0
42
0.0
10
77.0622024536133
20
79.3497009277344
40
0.0
41
0.0
42
0.0
10
76.9879989624023
20
79.3238983154297
40
0.0
41
0.0
42
0.0
10
76.5635986328125
20
79.1212997436523
40
0.0
41
0.0
42
0.0
10
76.5040969848633
20
79.0963973999023
40
0.0
41
0.0
42
0.0
10
76.4865036010742
20
79.0870971679688
40
0.0
41
0.0
42
0.0
10
76.0926971435547
20
79.032096862793
40
0.0
41
0.0
42
0.0
10
76.0092010498047
20
79.0276031494141
40
0.0
41
0.0
42
0.0
10
75.6476974487305
20
79.4311981201172
40
0.0
41
0.0
42
0.0
10
75.5800018310547
20
79.5139999389648
40
0.0
41
0.0
42
0.0
10
75.5037002563477
20
79.5973968505859
40
0.0
41
0.0
42
0.0
10
75.2453994750977
20
79.939697265625
40
0.0
41
0.0
42
0.0
10
75.0065002441406
20
80.2248001098633
40
0.0
41
0.0
42
0.0
10
74.934196472168
20
80.2623977661133
40
0.0
41
0.0
42
0.0
10
74.57080078125
20
80.502799987793
40
0.0
41
0.0
42
0.0
10
74.5129013061523
20
80.5466995239258
40
0.0
41
0.0
42
0.0
10
74.481201171875
20
80.5466003417969
40
0.0
41
0.0
42
0.0
10
74.1688003540039
20
80.5098037719727
40
0.0
41
0.0
42
0.0
10
73.9921035766602
20
80.473503112793
40
0.0
41
0.0
42
0.0
10
73.9785003662109
20
80.4552001953125
40
0.0
41
0.0
42
0.0
10
73.9570007324219
20
80.4311981201172
40
0.0
41
0.0
42
0.0
10
73.6103973388672
20
80.0078964233398
40
0.0
41
0.0
42
0.0
10
73.5035018920898
20
79.8274002075195
40
0.0
41
0.0
42
0.0
10
73.3644027709961
20
79.5113983154297
40
0.0
41
0.0
42
0.0
10
73.3301010131836
20
79.4367980957031
40
0.0
41
0.0
42
0.0
10
73.1657028198242
20
79.0118026733398
40
0.0
41
0.0
42
0.0
10
73.0436019897461
20
78.7459030151367
40
0.0
41
0.0
42
0.0
10
72.99169921875
20
78.6634979248047
40
0.0
41
0.0
42
0.0
10
72.908203125
20
78.6611022949219
40
0.0
41
0.0
42
0.0
10
72.4965972900391
20
78.5429992675781
40
0.0
41
0.0
42
0.0
10
72.0174026489258
20
78.6249008178711
40
0.0
41
0.0
42
0.0
10
71.9429016113281
20
78.6305999755859
40
0.0
41
0.0
42
0.0
10
71.5186996459961
20
78.6812973022461
40
0.0
41
0.0
42
0.0
10
71.4816970825195
20
78.6811981201172
40
0.0
41
0.0
42
0.0
10
71.4072036743164
20
78.6688003540039
40
0.0
41
0.0
42
0.0
10
70.9857025146484
20
78.6479034423828
40
0.0
41
0.0
42
0.0
10
70.9738006591797
20
78.6416015625
40
0.0
41
0.0
42
0.0
10
70.6361999511719
20
78.5031967163086
40
0.0
41
0.0
42
0.0
10
70.5950012207031
20
78.4331970214844
40
0.0
41
0.0
42
0.0
10
70.5142974853516
20
78.3275985717773
40
0.0
41
0.0
42
0.0
10
70.4068984985352
20
78.0164031982422
40
0.0
41
0.0
42
0.0
10
70.4067993164062
20
77.9815979003906
40
0.0
41
0.0
42
0.0
10
70.4656982421875
20
77.6190032958984
40
0.0
41
0.0
42
0.0
10
70.4856033325195
20
77.4852981567383
40
0.0
41
0.0
42
0.0
10
70.6501007080078
20
77.0622024536133
40
0.0
41
0.0
42
0.0
10
70.6757965087891
20
76.9878997802734
40
0.0
41
0.0
42
0.0
10
70.8785018920898
20
76.5634994506836
40
0.0
41
0.0
42
0.0
10
70.9033966064453
20
76.5040969848633
40
0.0
41
0.0
42
0.0
10
70.91259765625
20
76.4865036010742
40
0.0
41
0.0
42
0.0
10
70.9675979614258
20
76.0925979614258
40
0.0
41
0.0
42
0.0
10
70.9720993041992
20
76.0092010498047
40
0.0
41
0.0
42
0.0
10
70.568603515625
20
75.6477966308594
40
0.0
41
0.0
42
0.0
10
70.4858016967773
20
75.5801010131836
40
0.0
41
0.0
42
0.0
10
70.4023971557617
20
75.5037994384766
40
0.0
41
0.0
42
0.0
10
70.0600967407227
20
75.2454986572266
40
0.0
41
0.0
42
0.0
10
69.77490234375
20
75.0065994262695
40
0.0
41
0.0
42
0.0
10
69.7373962402344
20
74.9343032836914
40
0.0
41
0.0
42
0.0
10
69.4971008300781
20
74.57080078125
40
0.0
41
0.0
42
0.0
10
69.4532012939453
20
74.5129013061523
40
0.0
41
0.0
42
0.0
10
69.4531021118164
20
74.481201171875
40
0.0
41
0.0
42
0.0
10
69.4898986816406
20
74.1689987182617
40
0.0
41
0.0
42
0.0
10
69.5005035400391
20
74.1230010986328
40
0.0
41
0.0
42
0.0
210
0.0
220
0.0
230
1.0
0
LWPOLYLINE
5
29
330
1C
100
AcDbEntity
67
0
8
0
62
256
6
ByLayer
370
-1
48
1.0
60
0
100
AcDbPolyline
90
167
70
1
38
0.0
39
0.0
10
69.502799987793
20
74.5352020263672
40
0.0
41
0.0
42
0.0
10
69.7275009155273
20
74.875602722168
40
0.0
41
0.0
42
0.0
10
69.7886962890625
20
74.9933013916016
40
0.0
41
0.0
42
0.0
10
70.1099014282227
20
75.2626037597656
40
0.0
41
0.0
42
0.0
10
70.4188003540039
20
75.4956970214844
40
0.0
41
0.0
42
0.0
10
70.4942016601562
20
75.564697265625
40
0.0
41
0.0
42
0.0
10
70.6212997436523
20
75.668701171875
40
0.0
41
0.0
42
0.0
10
70.9797973632812
20
75.9893035888672
40
0.0
41
0.0
42
0.0
10
70.9796981811523
20
76.019401550293
40
0.0
41
0.0
42
0.0
10
70.9708023071289
20
76.1876983642578
40
0.0
41
0.0
42
0.0
10
70.9253997802734
20
76.5133972167969
40
0.0
41
0.0
42
0.0
10
70.9143981933594
20
76.5344009399414
40
0.0
41
0.0
42
0.0
10
70.8757019042969
20
76.6262969970703
40
0.0
41
0.0
42
0.0
10
70.6915969848633
20
77.0119018554688
40
0.0
41
0.0
42
0.0
10
70.651496887207
20
77.1277008056641
40
0.0
41
0.0
42
0.0
10
70.502197265625
20
77.5146026611328
40
0.0
41
0.0
42
0.0
10
70.4710998535156
20
77.7249984741211
40
0.0
41
0.0
42
0.0
10
70.4273986816406
20
77.9945983886719
40
0.0
41
0.0
42
0.0
10
70.5251998901367
20
78.2778015136719
40
0.0
41
0.0
42
0.0
10
70.600700378418
20
78.3767013549805
40
0.0
41
0.0
42
0.0
10
70.6716003417969
20
78.496696472168
40
0.0
41
0.0
42
0.0
10
70.9878997802734
20
78.6264038085938
40
0.0
41
0.0
42
0.0
10
71.0142974853516
20
78.6402969360352
40
0.0
41
0.0
42
0.0
10
71.402702331543
20
78.6596984863281
40
0.0
41
0.0
42
0.0
10
71.502799987793
20
78.6763000488281
40
0.0
41
0.0
42
0.0
10
71.8669967651367
20
78.6328964233398
40
0.0
41
0.0
42
0.0
10
71.9824981689453
20
78.6240997314453
40
0.0
41
0.0
42
0.0
10
72.4816970825195
20
78.5382995605469
40
0.0
41
0.0
42
0.0
10
72.5169982910156
20
78.538200378418
40
0.0
41
0.0
42
0.0
10
72.9017028808594
20
78.6483993530273
40
0.0
41
0.0
42
0.0
10
73.0081024169922
20
78.651496887207
40
0.0
41
0.0
42
0.0
10
73.07080078125
20
78.7507019042969
40
0.0
41
0.0
42
0.0
10
73.179801940918
20
78.9880981445312
40
0.0
41
0.0
42
0.0
10
73.3286972045898
20
79.3731002807617
40
0.0
41
0.0
42
0.0
10
73.3817977905273
20
79.4886016845703
40
0.0
41
0.0
42
0.0
10
73.5085983276367
20
79.7768020629883
40
0.0
41
0.0
42
0.0
10
73.6361999511719
20
79.9919967651367
40
0.0
41
0.0
42
0.0
10
73.9526977539062
20
80.3786010742188
40
0.0
41
0.0
42
0.0
10
73.9713973999023
20
80.3994979858398
40
0.0
41
0.0
42
0.0
10
74.0078964233398
20
80.4488983154297
40
0.0
41
0.0
42
0.0
10
74.3010025024414
20
80.5080032348633
40
0.0
41
0.0
42
0.0
10
74.4913024902344
20
80.5302963256836
40
0.0
41
0.0
42
0.0
10
74.5352020263672
20
80.4970016479492
40
0.0
41
0.0
42
0.0
10
74.875602722168
20
80.2722015380859
40
0.0
41
0.0
42
0.0
10
74.9933013916016
20
80.2110977172852
40
0.0
41
0.0
42
0.0
10
75.2624969482422
20
79.8899002075195
40
0.0
41
0.0
42
0.0
10
75.4956970214844
20
79.5809020996094
40
0.0
41
0.0
42
0.0
10
75.5748977661133
20
79.4935989379883
40
0.0
41
0.0
42
0.0
10
75.6686019897461
20
79.3785018920898
40
0.0
41
0.0
42
0.0
10
75.9893035888672
20
79.0201034545898
40
0.0
41
0.0
42
0.0
10
76.019401550293
20
79.0199966430664
40
0.0
41
0.0
42
0.0
10
76.1877975463867
20
79.0289001464844
40
0.0
41
0.0
42
0.0
10
76.5133972167969
20
79.0743026733398
40
0.0
41
0.0
42
0.0
10
76.5344009399414
20
79.0852966308594
40
0.0
41
0.0
42
0.0
10
76.6264038085938
20
79.1240005493164
40
0.0
41
0.0
42
0.0
10
77.0120010375977
20
79.3080978393555
40
0.0
41
0.0
42
0.0
10
77.1277008056641
20
79.3482971191406
40
0.0
41
0.0
42
0.0
10
77.5146026611328
20
79.4974975585938
40
0.0
41
0.0
42
0.0
10
77.7249984741211
20
79.5286026000977
40
0.0
41
0.0
42
0.0
10
77.9945983886719
20
79.5723037719727
40
0.0
41
0.0
42
0.0
10
78.2778015136719
20
79.4745025634766
40
0.0
41
0.0
42
0.0
10
78.3766021728516
20
79.3990020751953
40
0.0
41
0.0
42
0.0
10
78.496696472168
20
79.3282012939453
40
0.0
41
0.0
42
0.0
10
78.6264038085938
20
79.0119018554688
40
0.0
41
0.0
42
0.0
10
78.6402969360352
20
78.9856033325195
40
0.0
41
0.0
42
0.0
10
78.6595993041992
20
78.5971984863281
40
0.0
41
0.0
42
0.0
10
78.6763000488281
20
78.4971008300781
40
0.0
41
0.0
42
0.0
10
78.6328964233398
20
78.1328964233398
40
0.0
41
0.0
42
0.0
10
78.6240997314453
20
78.0174026489258
40
0.0
41
0.0
42
0.0
10
78.5382995605469
20
77.5182037353516
40
0.0
41
0.0
42
0.0
10
78.5381011962891
20
77.4829025268555
40
0.0
41
0.0
42
0.0
10
78.6483993530273
20
77.0981979370117
40
0.0
41
0.0
42
0.0
10
78.6513977050781
20
76.99169921875
40
0.0
41
0.0
42
0.0
10
78.750602722168
20
76.9290008544922
40
0.0
41
0.0
42
0.0
10
78.9880981445312
20
76.8199005126953
40
0.0
41
0.0
42
0.0
10
79.3731002807617
20
76.6709976196289
40
0.0
41
0.0
42
0.0
10
79.4886016845703
20
76.6179962158203
40
0.0
41
0.0
42
0.0
10
79.7767028808594
20
76.491096496582
40
0.0
41
0.0
42
0.0
10
79.9919967651367
20
76.3636016845703
40
0.0
41
0.0
42
0.0
10
80.3786010742188
20
76.0470962524414
40
0.0
41
0.0
42
0.0
10
80.3993988037109
20
76.0282974243164
40
0.0
41
0.0
42
0.0
10
80.4487991333008
20
75.9919967651367
40
0.0
41
0.0
42
0.0
10
80.5078964233398
20
75.6987991333008
40
0.0
41
0.0
42
0.0
10
80.530403137207
20
75.5085983276367
40
0.0
41
0.0
42
0.0
10
80.4971008300781
20
75.464599609375
40
0.0
41
0.0
42
0.0
10
80.2723007202148
20
75.1242980957031
40
0.0
41
0.0
42
0.0
10
80.2110977172852
20
75.0065994262695
40
0.0
41
0.0
42
0.0
10
79.8899002075195
20
74.7371978759766
40
0.0
41
0.0
42
0.0
10
79.5805969238281
20
74.5037002563477
40
0.0
41
0.0
42
0.0
10
79.4935989379883
20
74.4247970581055
40
0.0
41
0.0
42
0.0
10
79.3786010742188
20
74.3311996459961
40
0.0
41
0.0
42
0.0
10
79.0201034545898
20
74.0105972290039
40
0.0
41
0.0
42
0.0
10
79.0199966430664
20
73.9804992675781
40
0.0
41
0.0
42
0.0
10
79.0289001464844
20
73.8121032714844
40
0.0
41
0.0
42
0.0
10
79.0743026733398
20
73.4865036010742
40
0.0
41
0.0
42
0.0
10
79.0852966308594
20
73.4654006958008
40
0.0
41
0.0
42
0.0
10
79.1240005493164
20
73.3734970092773
40
0.0
41
0.0
42
0.0
10
79.3079986572266
20
72.9878997802734
40
0.0
41
0.0
42
0.0
10
79.3482971191406
20
72.8721008300781
40
0.0
41
0.0
42
0.0
10
79.4974975585938
20
72.4852981567383
40
0.0
41
0.0
42
0.0
10
79.5286026000977
20
72.2748031616211
40
0.0
41
0.0
42
0.0
10
79.5723037719727
20
72.0053024291992
40
0.0
41
0.0
42
0.0
10
79.4746017456055
20
71.7220001220703
40
0.0
41
0.0
42
0.0
10
79.3990020751953
20
71.6231994628906
40
0.0
41
0.0
42
0.0
10
79.3283004760742
20
71.5031967163086
40
0.0
41
0.0
42
0.0
10
79.0120010375977
20
71.3732986450195
40
0.0
41
0.0
42
0.0
10
78.9868011474609
20
71.3599014282227
40
0.0
41
0.0
42
0.0
10
78.8672027587891
20
71.3401031494141
40
0.0
41
0.0
42
0.0
10
78.5037002563477
20
71.3220977783203
40
0.0
41
0.0
42
0.0
10
78.4029006958008
20
71.3295974731445
40
0.0
41
0.0
42
0.0
10
78.0168991088867
20
71.3757019042969
40
0.0
41
0.0
42
0.0
10
77.5184020996094
20
71.4616012573242
40
0.0
41
0.0
42
0.0
10
77.3681030273438
20
71.4583969116211
40
0.0
41
0.0
42
0.0
10
76.9934005737305
20
71.3510971069336
40
0.0
41
0.0
42
0.0
10
76.9290008544922
20
71.2490997314453
40
0.0
41
0.0
42
0.0
10
76.8199005126953
20
71.0118026733398
40
0.0
41
0.0
42
0.0
10
76.6709976196289
20
70.6268005371094
40
0.0
41
0.0
42
0.0
10
76.6179962158203
20
70.5112991333008
40
0.0
41
0.0
42
0.0
10
76.4912033081055
20
70.2229995727539
40
0.0
41
0.0
42
0.0
10
76.3636016845703
20
70.0078964233398
40
0.0
41
0.0
42
0.0
10
76.0470962524414
20
69.6212997436523
40
0.0
41
0.0
42
0.0
10
76.0283966064453
20
69.6004028320312
40
0.0
41
0.0
42
0.0
10
75.9921035766602
20
69.5509033203125
40
0.0
41
0.0
42
0.0
10
75.6988983154297
20
69.4917984008789
40
0.0
41
0.0
42
0.0
10
75.5085983276367
20
69.4692993164062
40
0.0
41
0.0
42
0.0
10
75.464599609375
20
69.5027008056641
40
0.0
41
0.0
42
0.0
10
75.1242980957031
20
69.7275009155273
40
0.0
41
0.0
42
0.0
10
75.0065002441406
20
69.7885971069336
40
0.0
41
0.0
42
0.0
10
74.7371978759766
20
70.1098022460938
40
0.0
41
0.0
42
0.0
10
74.5037994384766
20
70.4191970825195
40
0.0
41
0.0
42
0.0
10
74.4349975585938
20
70.4942016601562
40
0.0
41
0.0
42
0.0
10
74.3311004638672
20
70.6212005615234
40
0.0
41
0.0
42
0.0
10
74.0105972290039
20
70.9797973632812
40
0.0
41
0.0
42
0.0
10
73.9804992675781
20
70.9796981811523
40
0.0
41
0.0
42
0.0
10
73.8122024536133
20
70.9708023071289
40
0.0
41
0.0
42
0.0
10
73.4865036010742
20
70.9253997802734
40
0.0
41
0.0
42
0.0
10
73.4654006958008
20
70.9143981933594
40
0.0
41
0.0
42
0.0
10
73.3735961914062
20
70.8758010864258
40
0.0
41
0.0
42
0.0
10
72.9879989624023
20
70.6917037963867
40
0.0
41
0.0
42
0.0
10
72.872200012207
20
70.651496887207
40
0.0
41
0.0
42
0.0
10
72.4852981567383
20
70.502197265625
40
0.0
41
0.0
42
0.0
10
72.2748031616211
20
70.4710998535156
40
0.0
41
0.0
42
0.0
10
72.0053024291992
20
70.4273986816406
40
0.0
41
0.0
42
0.0
10
71.7220001220703
20
70.5251998901367
40
0.0
41
0.0
42
0.0
10
71.6231994628906
20
70.600700378418
40
0.0
41
0.0
42
0.0
10
71.5030975341797
20
70.671501159668
40
0.0
41
0.0
42
0.0
10
71.3732986450195
20
70.9878005981445
40
0.0
41
0.0
42
0.0
10
71.3599014282227
20
71.0130996704102
40
0.0
41
0.0
42
0.0
10
71.3401031494141
20
71.132698059082
40
0.0
41
0.0
42
0.0
10
71.3220977783203
20
71.4962005615234
40
0.0
41
0.0
42
0.0
10
71.3295974731445
20
71.5970001220703
40
0.0
41
0.0
42
0.0
10
71.3757019042969
20
71.9830017089844
40
0.0
41
0.0
42
0.0
10
71.4616012573242
20
72.4814987182617
40
0.0
41
0.0
42
0.0
10
71.4583969116211
20
72.6317977905273
40
0.0
41
0.0
42
0.0
10
71.3509979248047
20
73.0064010620117
40
0.0
41
0.0
42
0.0
10
71.2490997314453
20
73.0707015991211
40
0.0
41
0.0
42
0.0
10
71.0118026733398
20
73.179801940918
40
0.0
41
0.0
42
0.0
10
70.6268005371094
20
73.3286972045898
40
0.0
41
0.0
42
0.0
10
70.5112991333008
20
73.3816986083984
40
0.0
41
0.0
42
0.0
10
70.2229995727539
20
73.5085983276367
40
0.0
41
0.0
42
0.0
10
70.0077972412109
20
73.636100769043
40
0.0
41
0.0
42
0.0
10
69.6212005615234
20
73.9525985717773
40
0.0
41
0.0
42
0.0
10
69.6003036499023
20
73.9713973999023
40
0.0
41
0.0
42
0.0
10
69.5507965087891
20
74.0077972412109
40
0.0
41
0.0
42
0.0
10
69.49169921875
20
74.3009033203125
40
0.0
41
0.0
42
0.0
10
69.4692993164062
20
74.4913024902344
40
0.0
41
0.0
42
0.0
10
69.502799987793
20
74.5352020263672
40
0.0
41
0.0
42
0.0
210
0.0
220
0.0
230
1.0
0
LWPOLYLINE
5
2A
330
1C
100
AcDbEntity
67
0
8
0
62
256
6
ByLayer
370
-1
48
1.0
60
0
100
AcDbPolyline
90
13
70
1
38
0.0
39
0.0
10
73.8760986328125
20
74.4853973388672
40
0.0
41
0.0
42
0.0
10
73.9881973266602
20
74.3823013305664
40
0.0
41
0.0
42
0.0
10
74.0141983032227
20
74.3822021484375
40
0.0
41
0.0
42
0.0
10
74.027702331543
20
74.3902969360352
40
0.0
41
0.0
42
0.0
10
74.2444000244141
20
74.4932022094727
40
0.0
41
0.0
42
0.0
10
74.2443008422852
20
74.5098037719727
40
0.0
41
0.0
42
0.0
10
74.2350997924805
20
74.5170974731445
40
0.0
41
0.0
42
0.0
10
74.013298034668
20
74.6732025146484
40
0.0
41
0.0
42
0.0
10
73.9886016845703
20
74.6731033325195
40
0.0
41
0.0
42
0.0
10
73.9817962646484
20
74.6663970947266
40
0.0
41
0.0
42
0.0
10
73.8696975708008
20
74.5130996704102
40
0.0
41
0.0
42
0.0
10
73.8695983886719
20
74.4904022216797
40
0.0
41
0.0
42
0.0
10
73.8760986328125
20
74.4853973388672
40
0.0
41
0.0
42
0.0
210
0.0
220
0.0
230
1.0
0
LWPOLYLINE
5
2B
330
1C
100
AcDbEntity
67
0
8
0
62
256
6
ByLayer
370
-1
48
1.0
60
0
100
AcDbPolyline
90
6
70
1
38
0.0
39
0.0
10
73.9823989868164
20
74.638801574707
40
0.0
41
0.0
42
0.0
10
74.0011978149414
20
74.657096862793
40
0.0
41
0.0
42
0.0
10
74.2230987548828
20
74.5014038085938
40
0.0
41
0.0
42
0.0
10
74.0005035400391
20
74.3951034545898
40
0.0
41
0.0
42
0.0
10
73.8831024169922
20
74.5029983520508
40
0.0
41
0.0
42
0.0
10
73.9823989868164
20
74.638801574707
40
0.0
41
0.0
42
0.0
210
0.0
220
0.0
230
1.0
0
LWPOLYLINE
5
2C
330
1C
100
AcDbEntity
67
0
8
0
62
256
6
ByLayer
370
-1
48
1.0
60
0
100
AcDbPolyline
90
13
70
1
38
0.0
39
0.0
10
74.3901977539062
20
75.9720993041992
40
0.0
41
0.0
42
0.0
10
74.4932022094727
20
75.755500793457
40
0.0
41
0.0
42
0.0
10
74.5098037719727
20
75.755500793457
40
0.0
41
0.0
42
0.0
10
74.5171966552734
20
75.7646026611328
40
0.0
41
0.0
42
0.0
10
74.6732025146484
20
75.9866027832031
40
0.0
41
0.0
42
0.0
10
74.6731033325195
20
76.0111999511719
40
0.0
41
0.0
42
0.0
10
74.6663970947266
20
76.0178985595703
40
0.0
41
0.0
42
0.0
10
74.5130996704102
20
76.1302032470703
40
0.0
41
0.0
42
0.0
10
74.4904022216797
20
76.1302032470703
40
0.0
41
0.0
42
0.0
10
74.4854965209961
20
76.1237030029297
40
0.0
41
0.0
42
0.0
10
74.3823013305664
20
76.0117034912109
40
0.0
41
0.0
42
0.0
10
74.3822021484375
20
75.9857025146484
40
0.0
41
0.0
42
0.0
10
74.3901977539062
20
75.9720993041992
40
0.0
41
0.0
42
0.0
210
0.0
220
0.0
230
1.0
0
LWPOLYLINE
5
2D
330
1C
100
AcDbEntity
67
0
8
0
62
256
6
ByLayer
370
-1
48
1.0
60
0
100
AcDbPolyline
90
6
70
1
38
0.0
39
0.0
10
74.3951034545898
20
75.999397277832
40
0.0
41
0.0
42
0.0
10
74.5029983520508
20
76.1165008544922
40
0.0
41
0.0
42
0.0
10
74.6387023925781
20
76.0174026489258
40
0.0
41
0.0
42
0.0
10
74.6573028564453
20
75.9988021850586
40
0.0
41
0.0
42
0.0
10
74.5012969970703
20
75.7766036987305
40
0.0
41
0.0
42
0.0
10
74.3951034545898
20
75.999397277832
40
0.0
41
0.0
42
0.0
210
0.0
220
0.0
230
1.0
0
LWPOLYLINE
5
2E
330
1C
100
AcDbEntity
67
0
8
0
62
256
6
ByLayer
370
-1
48
1.0
60
0
100
AcDbPolyline
90
9
70
1
38
0.0
39
0.0
10
74.5785980224609
20
74.9886016845703
40
0.0
41
0.0
42
0.0
10
74.9886016845703
20
74.5786972045898
40
0.0
41
0.0
42
0.0
10
75.0111999511719
20
74.5786972045898
40
0.0
41
0.0
42
0.0
10
75.4212036132812
20
74.9886016845703
40
0.0
41
0.0
42
0.0
10
75.4210968017578
20
75.0111999511719
40
0.0
41
0.0
42
0.0
10
75.0112991333008
20
75.4212036132812
40
0.0
41
0.0
42
0.0
10
74.9886016845703
20
75.4210968017578
40
0.0
41
0.0
42
0.0
10
74.5786972045898
20
75.0112991333008
40
0.0
41
0.0
42
0.0
10
74.5785980224609
20
74.9886016845703
40
0.0
41
0.0
42
0.0
210
0.0
220
0.0
230
1.0
0
LWPOLYLINE
5
2F
330
1C
100
AcDbEntity
67
0
8
0
62
256
6
ByLayer
370
-1
48
1.0
60
0
100
AcDbPolyline
90
5
70
1
38
0.0
39
0.0
10
75.0
20
74.5988998413086
40
0.0
41
0.0
42
0.0
10
74.5989990234375
20
75.0
40
0.0
41
0.0
42
0.0
10
75.0
20
75.4005966186523
40
0.0
41
0.0
42
0.0
10
75.4007034301758
20
75.0
40
0.0
41
0.0
42
0.0
10
75.0
20
74.5988998413086
40
0.0
41
0.0
42
0.0
210
0.0
220
0.0
230
1.0
0
LWPOLYLINE
5
30
330
1C
100
AcDbEntity
67
0
8
0
62
256
6
ByLayer
370
-1
48
1.0
60
0
100
AcDbPolyline
90
13
70
1
38
0.0
39
0.0
10
75.3332977294922
20
73.9816970825195
40
0.0
41
0.0
42
0.0
10
75.4868011474609
20
73.8696975708008
40
0.0
41
0.0
42
0.0
10
75.5094985961914
20
73.8696975708008
40
0.0
41
0.0
42
0.0
10
75.5142974853516
20
73.8760986328125
40
0.0
41
0.0
42
0.0
10
75.6175994873047
20
73.9881973266602
40
0.0
41
0.0
42
0.0
10
75.6175003051758
20
74.0140991210938
40
0.0
41
0.0
42
0.0
10
75.6093978881836
20
74.0276031494141
40
0.0
41
0.0
42
0.0
10
75.5066986083984
20
74.2444000244141
40
0.0
41
0.0
42
0.0
10
75.4899978637695
20
74.2444000244141
40
0.0
41
0.0
42
0.0
10
75.4825973510742
20
74.2351989746094
40
0.0
41
0.0
42
0.0
10
75.3266983032227
20
74.013298034668
40
0.0
41
0.0
42
0.0
10
75.3265991210938
20
73.9886016845703
40
0.0
41
0.0
42
0.0
10
75.3332977294922
20
73.9816970825195
40
0.0
41
0.0
42
0.0
210
0.0
220
0.0
230
1.0
0
LWPOLYLINE
5
31
330
1C
100
AcDbEntity
67
0
8
0
62
256
6
ByLayer
370
-1
48
1.0
60
0
100
AcDbPolyline
90
6
70
1
38
0.0
39
0.0
10
75.4983978271484
20
74.222900390625
40
0.0
41
0.0
42
0.0
10
75.6044998168945
20
74.0005035400391
40
0.0
41
0.0
42
0.0
10
75.4969024658203
20
73.8831024169922
40
0.0
41
0.0
42
0.0
10
75.3610992431641
20
73.9822998046875
40
0.0
41
0.0
42
0.0
10
75.3424987792969
20
74.0010986328125
40
0.0
41
0.0
42
0.0
10
75.4983978271484
20
74.222900390625
40
0.0
41
0.0
42
0.0
210
0.0
220
0.0
230
1.0
0
LWPOLYLINE
5
32
330
1C
100
AcDbEntity
67
0
8
0
62
256
6
ByLayer
370
-1
48
1.0
60
0
100
AcDbPolyline
90
13
70
1
38
0.0
39
0.0
10
75.7646026611328
20
75.4825973510742
40
0.0
41
0.0
42
0.0
10
75.9866027832031
20
75.3266983032227
40
0.0
41
0.0
42
0.0
10
76.0112991333008
20
75.3266983032227
40
0.0
41
0.0
42
0.0
10
76.0179977416992
20
75.3332977294922
40
0.0
41
0.0
42
0.0
10
76.1302032470703
20
75.4868011474609
40
0.0
41
0.0
42
0.0
10
76.1302032470703
20
75.5094985961914
40
0.0
41
0.0
42
0.0
10
76.1235961914062
20
75.5141983032227
40
0.0
41
0.0
42
0.0
10
76.0117034912109
20
75.6175994873047
40
0.0
41
0.0
42
0.0
10
75.9857025146484
20
75.6175003051758
40
0.0
41
0.0
42
0.0
10
75.9720993041992
20
75.6094970703125
40
0.0
41
0.0
42
0.0
10
75.755500793457
20
75.5066986083984
40
0.0
41
0.0
42
0.0
10
75.7554016113281
20
75.4899978637695
40
0.0
41
0.0
42
0.0
10
75.7646026611328
20
75.4825973510742
40
0.0
41
0.0
42
0.0
210
0.0
220
0.0
230
1.0
0
LWPOLYLINE
5
33
330
1C
100
AcDbEntity
67
0
8
0
62
256
6
ByLayer
370
-1
48
1.0
60
0
100
AcDbPolyline
90
5
70
1
38
0.0
39
0.0
10
76.0010986328125
20
75.3407974243164
40
0.0
41
0.0
42
0.0
10
75.7768020629883
20
75.4983978271484
40
0.0
41
0.0
42
0.0
10
75.999397277832
20
75.6044998168945
40
0.0
41
0.0
42
0.0
10
76.1167984008789
20
75.4968032836914
40
0.0
41
0.0
42
0.0
10
76.0010986328125
20
75.3407974243164
40
0.0
41
0.0
42
0.0
210
0.0
220
0.0
230
1.0
0
LWPOLYLINE
5
34
330
1C
100
AcDbEntity
67
0
8
0
62
256
6
ByLayer
370
-1
48
1.0
60
0
100
AcDbPolyline
90
45
70
1
38
0.0
39
0.0
10
80.0753021240234
20
65.0009994506836
40
0.0
41
0.0
42
0.0
10
80.1484985351562
20
65.0779037475586
40
0.0
41
0.0
42
0.0
10
80.5078964233398
20
65.4296035766602
40
0.0
41
0.0
42
0.0
10
80.6735992431641
20
65.5055999755859
40
0.0
41
0.0
42
0.0
10
81.0141983032227
20
65.6237030029297
40
0.0
41
0.0
42
0.0
10
81.401496887207
20
65.7110977172852
40
0.0
41
0.0
42
0.0
10
81.4804992675781
20
65.7065963745117
40
0.0
41
0.0
42
0.0
10
81.518798828125
20
65.7067031860352
40
0.0
41
0.0
42
0.0
10
81.9119033813477
20
65.7499008178711
40
0.0
41
0.0
42
0.0
10
82.019401550293
20
65.7483978271484
40
0.0
41
0.0
42
0.0
10
82.4175033569336
20
65.7748031616211
40
0.0
41
0.0
42
0.0
10
82.5198974609375
20
65.7742004394531
40
0.0
41
0.0
42
0.0
10
82.8928985595703
20
65.7780990600586
40
0.0
41
0.0
42
0.0
10
82.9834976196289
20
65.7742004394531
40
0.0
41
0.0
42
0.0
10
83.0595016479492
20
65.7512969970703
40
0.0
41
0.0
42
0.0
10
83.4870986938477
20
65.6878967285156
40
0.0
41
0.0
42
0.0
10
83.7101974487305
20
65.554801940918
40
0.0
41
0.0
42
0.0
10
83.7524032592773
20
65.488899230957
40
0.0
41
0.0
42
0.0
10
83.8765029907227
20
65.1025009155273
40
0.0
41
0.0
42
0.0
10
83.8727035522461
20
65.0195007324219
40
0.0
41
0.0
42
0.0
10
83.872802734375
20
65.0009994506836
40
0.0
41
0.0
42
0.0
10
83.8862991333008
20
65.0009994506836
40
0.0
41
0.0
42
0.0
10
83.888801574707
20
65.0553970336914
40
0.0
41
0.0
42
0.0
10
83.8887023925781
20
65.0916976928711
40
0.0
41
0.0
42
0.0
10
83.7542037963867
20
65.5109024047852
40
0.0
41
0.0
42
0.0
10
83.6998977661133
20
65.5953979492188
40
0.0
41
0.0
42
0.0
10
83.5127029418945
20
65.7071990966797
40
0.0
41
0.0
42
0.0
10
83.1304016113281
20
65.7639007568359
40
0.0
41
0.0
42
0.0
10
83.0164031982422
20
65.7981033325195
40
0.0
41
0.0
42
0.0
10
82.8738021850586
20
65.8042984008789
40
0.0
41
0.0
42
0.0
10
82.4992980957031
20
65.8007965087891
40
0.0
41
0.0
42
0.0
10
82.3322982788086
20
65.802001953125
40
0.0
41
0.0
42
0.0
10
81.9906005859375
20
65.779296875
40
0.0
41
0.0
42
0.0
10
81.8271026611328
20
65.782096862793
40
0.0
41
0.0
42
0.0
10
81.4941024780273
20
65.7453994750977
40
0.0
41
0.0
42
0.0
10
81.3526992797852
20
65.7536010742188
40
0.0
41
0.0
42
0.0
10
81.3155975341797
20
65.7535018920898
40
0.0
41
0.0
42
0.0
10
80.9857025146484
20
65.6791000366211
40
0.0
41
0.0
42
0.0
10
80.4969024658203
20
65.5094985961914
40
0.0
41
0.0
42
0.0
10
80.4869995117188
20
65.5093994140625
40
0.0
41
0.0
42
0.0
10
80.4795989990234
20
65.5038986206055
40
0.0
41
0.0
42
0.0
10
79.9964981079102
20
65.038200378418
40
0.0
41
0.0
42
0.0
10
79.9821014404297
20
65.0140991210938
40
0.0
41
0.0
42
0.0
10
79.9821014404297
20
65.0009994506836
40
0.0
41
0.0
42
0.0
10
80.0753021240234
20
65.0009994506836
40
0.0
41
0.0
42
0.0
210
0.0
220
0.0
230
1.0
0
LWPOLYLINE
5
35
330
1C
100
AcDbEntity
67
0
8
0
62
256
6
ByLayer
370
-1
48
1.0
60
0
100
AcDbPolyline
90
46
70
1
38
0.0
39
0.0
10
84.2462005615234
20
81.3155975341797
40
0.0
41
0.0
42
0.0
10
84.3206024169922
20
80.9857025146484
40
0.0
41
0.0
42
0.0
10
84.4899978637695
20
80.4982986450195
40
0.0
41
0.0
42
0.0
10
84.4898986816406
20
80.4849014282227
40
0.0
41
0.0
42
0.0
10
84.4909973144531
20
80.4845962524414
40
0.0
41
0.0
42
0.0
10
84.9625015258789
20
79.9955978393555
40
0.0
41
0.0
42
0.0
10
84.9764022827148
20
79.9845962524414
40
0.0
41
0.0
42
0.0
10
84.9837036132812
20
79.9821014404297
40
0.0
41
0.0
42
0.0
10
84.9990005493164
20
79.9821014404297
40
0.0
41
0.0
42
0.0
10
84.9989013671875
20
80.0753021240234
40
0.0
41
0.0
42
0.0
10
84.9218978881836
20
80.1483993530273
40
0.0
41
0.0
42
0.0
10
84.570198059082
20
80.5078964233398
40
0.0
41
0.0
42
0.0
10
84.4941024780273
20
80.6735992431641
40
0.0
41
0.0
42
0.0
10
84.3759994506836
20
81.0141983032227
40
0.0
41
0.0
42
0.0
10
84.2885971069336
20
81.401496887207
40
0.0
41
0.0
42
0.0
10
84.293098449707
20
81.4804992675781
40
0.0
41
0.0
42
0.0
10
84.2929992675781
20
81.518798828125
40
0.0
41
0.0
42
0.0
10
84.2498016357422
20
81.9117965698242
40
0.0
41
0.0
42
0.0
10
84.2512969970703
20
82.019401550293
40
0.0
41
0.0
42
0.0
10
84.2248992919922
20
82.4175033569336
40
0.0
41
0.0
42
0.0
10
84.2255020141602
20
82.5198974609375
40
0.0
41
0.0
42
0.0
10
84.2216033935547
20
82.8928985595703
40
0.0
41
0.0
42
0.0
10
84.2255020141602
20
82.9834976196289
40
0.0
41
0.0
42
0.0
10
84.2483978271484
20
83.0595016479492
40
0.0
41
0.0
42
0.0
10
84.311897277832
20
83.4871978759766
40
0.0
41
0.0
42
0.0
10
84.4450988769531
20
83.7101974487305
40
0.0
41
0.0
42
0.0
10
84.5109024047852
20
83.7524032592773
40
0.0
41
0.0
42
0.0
10
84.8973999023438
20
83.8765029907227
40
0.0
41
0.0
42
0.0
10
84.9804000854492
20
83.8727035522461
40
0.0
41
0.0
42
0.0
10
84.9990005493164
20
83.872802734375
40
0.0
41
0.0
42
0.0
10
84.9989013671875
20
83.8862991333008
40
0.0
41
0.0
42
0.0
10
84.9445037841797
20
83.888801574707
40
0.0
41
0.0
42
0.0
10
84.908203125
20
83.888801574707
40
0.0
41
0.0
42
0.0
10
84.4889984130859
20
83.7543029785156
40
0.0
41
0.0
42
0.0
10
84.404296875
20
83.6999969482422
40
0.0
41
0.0
42
0.0
10
84.2925033569336
20
83.5128021240234
40
0.0
41
0.0
42
0.0
10
84.2358016967773
20
83.1304016113281
40
0.0
41
0.0
42
0.0
10
84.2015991210938
20
83.0164031982422
40
0.0
41
0.0
42
0.0
10
84.1953964233398
20
82.8738021850586
40
0.0
41
0.0
42
0.0
10
84.1988983154297
20
82.4992980957031
40
0.0
41
0.0
42
0.0
10
84.1977005004883
20
82.3322982788086
40
0.0
41
0.0
42
0.0
10
84.2203979492188
20
81.9906005859375
40
0.0
41
0.0
42
0.0
10
84.2175979614258
20
81.8271026611328
40
0.0
41
0.0
42
0.0
10
84.2542037963867
20
81.4941024780273
40
0.0
41
0.0
42
0.0
10
84.2462997436523
20
81.3526992797852
40
0.0
41
0.0
42
0.0
10
84.2462005615234
20
81.3155975341797
40
0.0
41
0.0
42
0.0
210
0.0
220
0.0
230
1.0
0
VIEWPORT
5
3A
330
36
100
AcDbEntity
67
1
8
0
62
256
6
ByLayer
370
-1
48
1.0
60
0
100
AcDbViewport
10
0.0
20
0.0
30
0.0
40
297.0
41
210.0
68
1
69
1
12
50.0
22
100.0
13
0.0
23
0.0
14
10.0
24
10.0
15
10.0
25
10.0
16
0.0
26
0.0
36
1.0
17
0.0
27
0.0
37
0.0
42
50.0
43
0.0
44
0.0
45
250.0
50
0.0
51
0.0
72
1000
90
819232
110
0.0
120
0.0
130
0.0
111
1.0
121
0.0
131
0.0
112
0.0
122
1.0
132
0.0
0
ENDSEC
0
SECTION
2
OBJECTS
0
DICTIONARY
5
40
330
0
100
AcDbDictionary
280
1
281
1
3
ACAD_GROUP
350
12
3
ACAD_LAYOUT
350
39
3
ACAD_DGNDEFINITIONS
350
F
3
ACAD_DWFDEFINITIONS
350
10
3
ACAD_PDFDEFINITIONS
350
11
3
ACAD_MLINESTYLE
350
B
3
ACAD_IMAGE_DICT
350
E
3
ACAD_IMAGE_VARS
350
21
0
DICTIONARY
5
12
330
40
100
AcDbDictionary
280
1
281
1
0
DICTIONARY
5
39
330
40
100
AcDbDictionary
280
1
281
1
3
Model
350
20
3
Layout1
350
3B
0
DICTIONARY
5
F
330
40
100
AcDbDictionary
280
1
281
1
0
DICTIONARY
5
10
330
40
100
AcDbDictionary
280
1
281
1
0
DICTIONARY
5
11
330
40
100
AcDbDictionary
280
1
281
1
0
DICTIONARY
5
B
330
40
100
AcDbDictionary
280
1
281
1
3
Standard
350
1B
0
DICTIONARY
5
E
330
40
100
AcDbDictionary
280
1
281
1
0
DICTIONARY
5
6
330
5
100
AcDbDictionary
280
1
281
1
3
ACAD_LAYERSTATES
360
41
0
DICTIONARY
5
41
330
6
100
AcDbDictionary
280
1
281
1
0
LAYOUT
5
20
330
39
100
AcDbPlotSettings
1

2
none_device
4
ISO_A4_(210.00_x_297.00_MM)
6

40
7.5
41
20.0
42
7.5
43
20.0
44
210.0
45
297.0
46
0.0
47
0.0
48
0.0
49
0.0
140
0.0
141
0.0
142
1.0
143
1.0
70
11952
72
1
73
1
74
1
7

75
0
76
0
77
2
78
300
147
1.0
148
0.0
149
0.0
100
AcDbLayout
1
Model
71
0
10
-20.0
20
-7.5
11
277.0
21
202.5
12
0.0
22
0.0
32
0.0
14
25.7
24
19.5
34
0.0
15
231.3
25
175.5
35
0.0
146
0.0
13
0.0
23
0.0
33
0.0
16
1.0
26
0.0
36
0.0
17
0.0
27
1.0
37
0.0
76
0
330
1C
0
LAYOUT
5
3B
330
39
100
AcDbPlotSettings
1

2
none_device
4
ISO_A4_(210.00_x_297.00_MM)
6

40
7.5
41
20.0
42
7.5
43
20.0
44
210.0
45
297.0
46
0.0
47
0.0
48
0.0
49
0.0
140
0.0
141
0.0
142
1.0
143
1.0
70
688
72
1
73
1
74
1
7

75
0
76
0
77
2
78
300
147
1.0
148
0.0
149
0.0
100
AcDbLayout
1
Layout1
71
1
10
-20.0
20
-7.5
11
277.0
21
202.5
12
0.0
22
0.0
32
0.0
14
25.7
24
19.5
34
0.0
15
231.3
25
175.5
35
0.0
146
0.0
13
0.0
23
0.0
33
0.0
16
1.0
26
0.0
36
0.0
17
0.0
27
1.0
37
0.0
76
0
330
36
0
MLINESTYLE
5
1B
330
B
100
AcDbMlineStyle
2
Standard
70
0
3

62
256
51
90.0
52
90.0
71
2
49
0.5
62
256
6
ByLayer
49
-0.5
62
256
6
ByLayer
0
RASTERVARIABLES
5
21
330
E
100
AcDbRasterVariables
90
0
70
1
71
1
72
0
0
ENDSEC
0
EOF
