999
DXF file generated by netDxf https://github.com/haplokuon/netDxf, Copyright(C) Daniel Carvajal, Licensed under MIT
0
SECTION
2
HEADER
9
$ACADVER
1
AC1015
9
$DWGCODEPAGE
3
ANSI_1252
9
$HANDSEED
5
44
9
$ANGBASE
50
0.0
9
$ANGDIR
70
0
9
$ATTMODE
70
1
9
$AUNITS
70
0
9
$AUPREC
70
0
9
$CECOLOR
62
256
9
$CELTSCALE
40
1.0
9
$CELTYPE
6
ByLayer
9
$CELWEIGHT
370
-1
9
$CLAYER
8
0
9
$CMLJUST
70
0
9
$CMLSCALE
40
20.0
9
$CMLSTYLE
2
Standard
9
$DIMSTYLE
2
Standard
9
$TEXTSIZE
40
2.5
9
$TEXTSTYLE
7
Standard
9
$LUNITS
70
2
9
$LUPREC
70
4
9
$MIRRTEXT
70
0
9
$EXTNAMES
290
1
9
$INSBASE
10
0.0
20
0.0
30
0.0
9
$INSUNITS
70
0
9
$LTSCALE
40
1.0
9
$LWDISPLAY
290
0
9
$PDMODE
70
0
9
$PDSIZE
40
0.0
9
$PLINEGEN
70
0
9
$PSLTSCALE
70
1
9
$SPLINESEGS
70
8
9
$SURFU
70
6
9
$SURFV
70
6
9
$TDCREATE
40
2460823.48366047
9
$TDUCREATE
40
2460823.15032714
9
$TDUPDATE
40
2460823.48366047
9
$TDUUPDATE
40
2460823.15032714
9
$TDINDWG
40
0.0
9
$UCSORG
10
0.0
20
0.0
30
0.0
9
$UCSXDIR
10
1.0
20
0.0
30
0.0
9
$UCSYDIR
10
0.0
20
1.0
30
0.0
9
$DIMADEC
70
0
9
$DIMALT
70
0
9
$DIMALTD
70
2
9
$DIMALTF
40
25.4
9
$DIMALTRND
40
0.0
9
$DIMALTTD
70
2
9
$DIMALTTZ
70
0
9
$DIMALTU
70
2
9
$DIMALTZ
70
0
9
$DIMAPOST
1

9
$DIMATFIT
70
3
9
$DIMAUNIT
70
0
9
$DIMASZ
40
0.18
9
$DIMAZIN
70
0
9
$DIMSAH
70
0
9
$DIMBLK
1

9
$DIMLDRBLK
1

9
$DIMCEN
40
0.09
9
$DIMCLRD
70
0
9
$DIMCLRE
70
0
9
$DIMCLRT
70
0
9
$DIMDEC
70
4
9
$DIMDLE
40
0.0
9
$DIMDLI
40
0.38
9
$DIMDSEP
70
46
9
$DIMEXE
40
0.18
9
$DIMEXO
40
0.0625
9
$DIMFXLON
70
0
9
$DIMFXL
40
1.0
9
$DIMGAP
40
0.09
9
$DIMJUST
70
0
9
$DIMLFAC
40
1.0
9
$DIMLUNIT
70
2
9
$DIMLWD
70
-2
9
$DIMLWE
70
-2
9
$DIMPOST
1

9
$DIMRND
40
0.0
9
$DIMSCALE
40
1.0
9
$DIMSD1
70
0
9
$DIMSD2
70
0
9
$DIMSE1
70
0
9
$DIMSE2
70
0
9
$DIMSOXD
70
0
9
$DIMTAD
70
0
9
$DIMTDEC
70
4
9
$DIMTFAC
40
1.0
9
$DIMTIH
70
0
9
$DIMTIX
70
0
9
$DIMTM
40
0.0
9
$DIMTMOVE
70
0
9
$DIMTOFL
70
0
9
$DIMTOH
70
0
9
$DIMTOL
70
0
9
$DIMLIM
70
0
9
$DIMTOLJ
70
1
9
$DIMTP
40
0.0
9
$DIMTXT
40
0.18
9
$DIMTXTDIRECTION
70
0
9
$DIMTZIN
70
0
9
$DIMZIN
70
0
9
$DIMFRAC
70
0
9
$DIMLTYPE
6
ByBlock
9
$DIMLTEX1
6
ByBlock
9
$DIMLTEX2
6
ByBlock
0
ENDSEC
0
SECTION
2
CLASSES
0
CLASS
1
RASTERVARIABLES
2
AcDbRasterVariables
3
ISM
90
0
280
0
281
0
0
ENDSEC
0
SECTION
2
TABLES
0
TABLE
2
APPID
5
4
330
0
100
AcDbSymbolTable
70
5
0
APPID
5
19
330
4
100
AcDbSymbolTableRecord
100
AcDbRegAppTableRecord
2
ACAD
70
0
0
APPID
5
3E
330
4
100
AcDbSymbolTableRecord
100
AcDbRegAppTableRecord
2
AcCmTransparency
70
0
0
APPID
5
3F
330
4
100
AcDbSymbolTableRecord
100
AcDbRegAppTableRecord
2
AcAecLayerStandard
70
0
0
APPID
5
40
330
4
100
AcDbSymbolTableRecord
100
AcDbRegAppTableRecord
2
GradientColor1ACI
70
0
0
APPID
5
41
330
4
100
AcDbSymbolTableRecord
100
AcDbRegAppTableRecord
2
GradientColor2ACI
70
0
0
ENDTAB
0
TABLE
2
VPORT
5
1
330
0
100
AcDbSymbolTable
70
1
0
VPORT
5
2
330
1
100
AcDbSymbolTableRecord
100
AcDbViewportTableRecord
2
*Active
70
0
10
0.0
20
0.0
11
1.0
21
1.0
12
0.0
22
0.0
13
0.0
23
0.0
14
0.5
24
0.5
15
10.0
25
10.0
16
0.0
26
0.0
36
1.0
17
0.0
27
0.0
37
0.0
40
10.0
41
1.0
75
0
76
1
0
ENDTAB
0
TABLE
2
LTYPE
5
7
330
0
100
AcDbSymbolTable
70
3
0
LTYPE
5
15
330
7
100
AcDbSymbolTableRecord
100
AcDbLinetypeTableRecord
2
Continuous
70
0
3
Solid line
72
65
73
0
40
0.0
0
LTYPE
5
16
330
7
100
AcDbSymbolTableRecord
100
AcDbLinetypeTableRecord
2
ByLayer
70
0
3

72
65
73
0
40
0.0
0
LTYPE
5
17
330
7
100
AcDbSymbolTableRecord
100
AcDbLinetypeTableRecord
2
ByBlock
70
0
3

72
65
73
0
40
0.0
0
ENDTAB
0
TABLE
2
LAYER
5
5
102
{ACAD_XDICTIONARY
360
6
102
}
330
0
100
AcDbSymbolTable
70
1
0
LAYER
5
14
330
5
100
AcDbSymbolTableRecord
100
AcDbLayerTableRecord
2
0
70
0
62
7
6
Continuous
290
1
370
-3
390
0
0
ENDTAB
0
TABLE
2
STYLE
5
8
330
0
100
AcDbSymbolTable
70
1
0
STYLE
5
18
330
8
100
AcDbSymbolTableRecord
100
AcDbTextStyleTableRecord
2
Standard
3
simplex.shx
70
0
71
0
40
0.0
41
1.0
42
0.0
50
0.0
0
ENDTAB
0
TABLE
2
DIMSTYLE
5
A
330
0
100
AcDbSymbolTable
70
1
100
AcDbDimStyleTable
0
DIMSTYLE
105
1A
330
A
100
AcDbSymbolTableRecord
100
AcDbDimStyleTableRecord
2
Standard
3

4

40
1.0
41
0.18
42
0.0625
43
0.38
44
0.18
45
0.0
46
0.0
47
0.0
48
0.0
49
1.0
70
0
71
0
72
0
73
0
74
0
75
0
76
0
77
0
78
0
79
0
140
0.18
141
0.09
143
25.4
144
1.0
146
1.0
147
0.09
148
0.0
170
0
171
2
172
0
174
0
175
0
176
0
177
0
178
0
179
0
271
4
272
4
273
2
274
2
275
0
276
0
277
2
278
46
279
0
280
0
281
0
282
0
283
1
284
0
285
0
286
0
289
3
290
0
294
0
340
18
173
0
345
17
346
17
347
17
371
-2
372
-2
0
ENDTAB
0
TABLE
2
VIEW
5
3
330
0
100
AcDbSymbolTable
70
0
0
ENDTAB
0
TABLE
2
UCS
5
C
330
0
100
AcDbSymbolTable
70
0
0
ENDTAB
0
TABLE
2
BLOCK_RECORD
5
D
330
0
100
AcDbSymbolTable
70
2
0
BLOCK_RECORD
5
1C
330
D
100
AcDbSymbolTableRecord
100
AcDbBlockTableRecord
2
*Model_Space
340
20
0
BLOCK_RECORD
5
38
330
D
100
AcDbSymbolTableRecord
100
AcDbBlockTableRecord
2
*Paper_Space
340
3D
0
ENDTAB
0
ENDSEC
0
SECTION
2
BLOCKS
0
BLOCK
5
1E
330
1C
100
AcDbEntity
67
0
8
0
100
AcDbBlockBegin
2
*Model_Space
70
0
10
0.0
20
0.0
30
0.0
3
*Model_Space
4

0
ENDBLK
5
1D
330
1C
100
AcDbEntity
8
0
100
AcDbBlockEnd
0
BLOCK
5
3A
330
38
100
AcDbEntity
67
1
8
0
100
AcDbBlockBegin
2
*Paper_Space
70
0
10
0.0
20
0.0
30
0.0
3
*Paper_Space
4

0
ENDBLK
5
39
330
38
100
AcDbEntity
8
0
100
AcDbBlockEnd
0
ENDSEC
0
SECTION
2
ENTITIES
0
LWPOLYLINE
5
22
330
1C
100
AcDbEntity
67
0
8
0
62
256
6
ByLayer
370
-1
48
1.0
60
0
100
AcDbPolyline
90
41
70
1
38
0.0
39
0.0
10
65.7431030273438
20
66.2135009765625
40
0.0
41
0.0
42
0.0
10
65.9608001708984
20
66.1165008544922
40
0.0
41
0.0
42
0.0
10
65.988899230957
20
66.1010971069336
40
0.0
41
0.0
42
0.0
10
66.2108001708984
20
66.0121994018555
40
0.0
41
0.0
42
0.0
10
66.2315979003906
20
65.9983978271484
40
0.0
41
0.0
42
0.0
10
66.4862976074219
20
65.8877029418945
40
0.0
41
0.0
42
0.0
10
66.5353012084961
20
65.8776016235352
40
0.0
41
0.0
42
0.0
10
66.743896484375
20
65.7963027954102
40
0.0
41
0.0
42
0.0
10
66.9705963134766
20
65.6716003417969
40
0.0
41
0.0
42
0.0
10
66.9940032958984
20
65.6474990844727
40
0.0
41
0.0
42
0.0
10
67.1880035400391
20
65.4960021972656
40
0.0
41
0.0
42
0.0
10
67.2136001586914
20
65.4726028442383
40
0.0
41
0.0
42
0.0
10
67.2459030151367
20
65.4559020996094
40
0.0
41
0.0
42
0.0
10
67.493896484375
20
65.2754974365234
40
0.0
41
0.0
42
0.0
10
67.5458984375
20
65.2197036743164
40
0.0
41
0.0
42
0.0
10
67.698600769043
20
65.0009994506836
40
0.0
41
0.0
42
0.0
10
67.7233963012695
20
65.0009994506836
40
0.0
41
0.0
42
0.0
10
67.7231979370117
20
65.013298034668
40
0.0
41
0.0
42
0.0
10
67.5449981689453
20
65.268798828125
40
0.0
41
0.0
42
0.0
10
67.5058975219727
20
65.3107986450195
40
0.0
41
0.0
42
0.0
10
67.3039016723633
20
65.4578018188477
40
0.0
41
0.0
42
0.0
10
67.27490234375
20
65.4727020263672
40
0.0
41
0.0
42
0.0
10
67.2406997680664
20
65.5037994384766
40
0.0
41
0.0
42
0.0
10
67.0058975219727
20
65.6873016357422
40
0.0
41
0.0
42
0.0
10
66.9884033203125
20
65.7052001953125
40
0.0
41
0.0
42
0.0
10
66.8059997558594
20
65.8054962158203
40
0.0
41
0.0
42
0.0
10
66.5711975097656
20
65.8972015380859
40
0.0
41
0.0
42
0.0
10
66.5136032104492
20
65.9091033935547
40
0.0
41
0.0
42
0.0
10
66.3013000488281
20
66.0014038085938
40
0.0
41
0.0
42
0.0
10
66.2767028808594
20
66.0176010131836
40
0.0
41
0.0
42
0.0
10
66.0109024047852
20
66.1240997314453
40
0.0
41
0.0
42
0.0
10
65.986701965332
20
66.1373977661133
40
0.0
41
0.0
42
0.0
10
65.8068008422852
20
66.2175979614258
40
0.0
41
0.0
42
0.0
10
65.5117034912109
20
66.3348999023438
40
0.0
41
0.0
42
0.0
10
65.3060989379883
20
66.4288024902344
40
0.0
41
0.0
42
0.0
10
65.0152969360352
20
66.5645980834961
40
0.0
41
0.0
42
0.0
10
65.0009994506836
20
66.5645980834961
40
0.0
41
0.0
42
0.0
10
65.0009002685547
20
66.5401000976562
40
0.0
41
0.0
42
0.0
10
65.2437973022461
20
66.4266967773438
40
0.0
41
0.0
42
0.0
10
65.4881973266602
20
66.3150024414062
40
0.0
41
0.0
42
0.0
10
65.7431030273438
20
66.2135009765625
40
0.0
41
0.0
42
0.0
210
0.0
220
0.0
230
1.0
0
LWPOLYLINE
5
23
330
1C
100
AcDbEntity
67
0
8
0
62
256
6
ByLayer
370
-1
48
1.0
60
0
100
AcDbPolyline
90
74
70
1
38
0.0
39
0.0
10
65.0009002685547
20
72.1669998168945
40
0.0
41
0.0
42
0.0
10
65.1968002319336
20
72.0245971679688
40
0.0
41
0.0
42
0.0
10
65.4887008666992
20
71.83740234375
40
0.0
41
0.0
42
0.0
10
65.6903991699219
20
71.7781982421875
40
0.0
41
0.0
42
0.0
10
65.9824981689453
20
71.7061004638672
40
0.0
41
0.0
42
0.0
10
66.0122985839844
20
71.7060012817383
40
0.0
41
0.0
42
0.0
10
66.2910995483398
20
71.9412002563477
40
0.0
41
0.0
42
0.0
10
66.4177017211914
20
71.9985961914062
40
0.0
41
0.0
42
0.0
10
66.4940032958984
20
72.0438003540039
40
0.0
41
0.0
42
0.0
10
66.5018997192383
20
72.0524978637695
40
0.0
41
0.0
42
0.0
10
66.6116027832031
20
72.3200988769531
40
0.0
41
0.0
42
0.0
10
66.7073974609375
20
72.4889984130859
40
0.0
41
0.0
42
0.0
10
66.8050994873047
20
72.7432022094727
40
0.0
41
0.0
42
0.0
10
66.9190979003906
20
72.9876022338867
40
0.0
41
0.0
42
0.0
10
67.0225982666016
20
73.3149032592773
40
0.0
41
0.0
42
0.0
10
67.0720977783203
20
73.4845962524414
40
0.0
41
0.0
42
0.0
10
67.1128005981445
20
73.7375030517578
40
0.0
41
0.0
42
0.0
10
67.13330078125
20
73.9807968139648
40
0.0
41
0.0
42
0.0
10
67.1332015991211
20
74.0186996459961
40
0.0
41
0.0
42
0.0
10
67.1026992797852
20
74.272102355957
40
0.0
41
0.0
42
0.0
10
67.0966033935547
20
74.3107986450195
40
0.0
41
0.0
42
0.0
10
67.0463027954102
20
74.5131988525391
40
0.0
41
0.0
42
0.0
10
67.0090026855469
20
74.5988006591797
40
0.0
41
0.0
42
0.0
10
66.8961029052734
20
74.80419921875
40
0.0
41
0.0
42
0.0
10
66.814697265625
20
75.0110015869141
40
0.0
41
0.0
42
0.0
10
66.6538009643555
20
75.3041000366211
40
0.0
41
0.0
42
0.0
10
66.5210037231445
20
75.5090026855469
40
0.0
41
0.0
42
0.0
10
66.5028991699219
20
75.5412979125977
40
0.0
41
0.0
42
0.0
10
66.4489974975586
20
75.597297668457
40
0.0
41
0.0
42
0.0
10
66.2990036010742
20
75.747802734375
40
0.0
41
0.0
42
0.0
10
66.1044006347656
20
76.007698059082
40
0.0
41
0.0
42
0.0
10
66.006103515625
20
76.1539993286133
40
0.0
41
0.0
42
0.0
10
65.7639007568359
20
76.2492980957031
40
0.0
41
0.0
42
0.0
10
65.5171966552734
20
76.3142013549805
40
0.0
41
0.0
42
0.0
10
65.4853973388672
20
76.3141021728516
40
0.0
41
0.0
42
0.0
10
65.0802993774414
20
76.0919036865234
40
0.0
41
0.0
42
0.0
10
65.0380020141602
20
76.0693969726562
40
0.0
41
0.0
42
0.0
10
65.0009994506836
20
76.0519027709961
40
0.0
41
0.0
42
0.0
10
65.0009994506836
20
75.9901962280273
40
0.0
41
0.0
42
0.0
10
65.013801574707
20
75.9900970458984
40
0.0
41
0.0
42
0.0
10
65.0235977172852
20
75.9963989257812
40
0.0
41
0.0
42
0.0
10
65.5043029785156
20
76.2601013183594
40
0.0
41
0.0
42
0.0
10
65.8052978515625
20
76.1810989379883
40
0.0
41
0.0
42
0.0
10
65.9936981201172
20
76.1069030761719
40
0.0
41
0.0
42
0.0
10
66.0708999633789
20
75.9921035766602
40
0.0
41
0.0
42
0.0
10
66.2508010864258
20
75.7520980834961
40
0.0
41
0.0
42
0.0
10
66.4281005859375
20
75.5742034912109
40
0.0
41
0.0
42
0.0
10
66.4963989257812
20
75.5031967163086
40
0.0
41
0.0
42
0.0
10
66.66259765625
20
75.2456970214844
40
0.0
41
0.0
42
0.0
10
66.8033981323242
20
74.988899230957
40
0.0
41
0.0
42
0.0
10
66.8739013671875
20
74.8100967407227
40
0.0
41
0.0
42
0.0
10
67.00830078125
20
74.5653991699219
40
0.0
41
0.0
42
0.0
10
67.0426025390625
20
74.486701965332
40
0.0
41
0.0
42
0.0
10
67.1013031005859
20
74.2501983642578
40
0.0
41
0.0
42
0.0
10
67.1317977905273
20
73.996696472168
40
0.0
41
0.0
42
0.0
10
67.1164016723633
20
73.8124008178711
40
0.0
41
0.0
42
0.0
10
67.0684967041016
20
73.5152969360352
40
0.0
41
0.0
42
0.0
10
67.0263977050781
20
73.3705978393555
40
0.0
41
0.0
42
0.0
10
66.913200378418
20
73.0122985839844
40
0.0
41
0.0
42
0.0
10
66.8172988891602
20
72.8067016601562
40
0.0
41
0.0
42
0.0
10
66.7037963867188
20
72.5110015869141
40
0.0
41
0.0
42
0.0
10
66.613899230957
20
72.3524017333984
40
0.0
41
0.0
42
0.0
10
66.5987014770508
20
72.3227996826172
40
0.0
41
0.0
42
0.0
10
66.4980010986328
20
72.0771026611328
40
0.0
41
0.0
42
0.0
10
66.4825973510742
20
72.0600967407227
40
0.0
41
0.0
42
0.0
10
66.38330078125
20
72.0012969970703
40
0.0
41
0.0
42
0.0
10
66.2354965209961
20
71.934196472168
40
0.0
41
0.0
42
0.0
10
65.9944000244141
20
71.7309036254883
40
0.0
41
0.0
42
0.0
10
65.7594985961914
20
71.7890014648438
40
0.0
41
0.0
42
0.0
10
65.511100769043
20
71.8618011474609
40
0.0
41
0.0
42
0.0
10
65.2530975341797
20
72.0273971557617
40
0.0
41
0.0
42
0.0
10
65.0130996704102
20
72.2017974853516
40
0.0
41
0.0
42
0.0
10
65.0009994506836
20
72.2017974853516
40
0.0
41
0.0
42
0.0
10
65.0009002685547
20
72.1669998168945
40
0.0
41
0.0
42
0.0
210
0.0
220
0.0
230
1.0
0
LWPOLYLINE
5
24
330
1C
100
AcDbEntity
67
0
8
0
62
256
6
ByLayer
370
-1
48
1.0
60
0
100
AcDbPolyline
90
37
70
1
38
0.0
39
0.0
10
65.0009994506836
20
82.276496887207
40
0.0
41
0.0
42
0.0
10
65.013298034668
20
82.276496887207
40
0.0
41
0.0
42
0.0
10
65.268798828125
20
82.4546966552734
40
0.0
41
0.0
42
0.0
10
65.3108978271484
20
82.493896484375
40
0.0
41
0.0
42
0.0
10
65.4578018188477
20
82.6959991455078
40
0.0
41
0.0
42
0.0
10
65.4728012084961
20
82.7248992919922
40
0.0
41
0.0
42
0.0
10
65.5038986206055
20
82.7590026855469
40
0.0
41
0.0
42
0.0
10
65.6856994628906
20
82.9917984008789
40
0.0
41
0.0
42
0.0
10
65.8054962158203
20
83.1939010620117
40
0.0
41
0.0
42
0.0
10
65.9096984863281
20
83.4877014160156
40
0.0
41
0.0
42
0.0
10
66.0014038085938
20
83.6985015869141
40
0.0
41
0.0
42
0.0
10
66.0176010131836
20
83.7229995727539
40
0.0
41
0.0
42
0.0
10
66.1240997314453
20
83.988899230957
40
0.0
41
0.0
42
0.0
10
66.1373977661133
20
84.0130996704102
40
0.0
41
0.0
42
0.0
10
66.2175979614258
20
84.1930999755859
40
0.0
41
0.0
42
0.0
10
66.3349990844727
20
84.4881973266602
40
0.0
41
0.0
42
0.0
10
66.4289016723633
20
84.6938018798828
40
0.0
41
0.0
42
0.0
10
66.5645980834961
20
84.9845962524414
40
0.0
41
0.0
42
0.0
10
66.5645980834961
20
84.9990005493164
40
0.0
41
0.0
42
0.0
10
66.5401000976562
20
84.9990005493164
40
0.0
41
0.0
42
0.0
10
66.4266967773438
20
84.756103515625
40
0.0
41
0.0
42
0.0
10
66.3151016235352
20
84.5117034912109
40
0.0
41
0.0
42
0.0
10
66.2136001586914
20
84.2567977905273
40
0.0
41
0.0
42
0.0
10
66.1166000366211
20
84.0390014648438
40
0.0
41
0.0
42
0.0
10
66.1010971069336
20
84.0110015869141
40
0.0
41
0.0
42
0.0
10
66.0121994018555
20
83.7890014648438
40
0.0
41
0.0
42
0.0
10
65.9983978271484
20
83.7682037353516
40
0.0
41
0.0
42
0.0
10
65.8871002197266
20
83.5122985839844
40
0.0
41
0.0
42
0.0
10
65.7963027954102
20
83.2559967041016
40
0.0
41
0.0
42
0.0
10
65.6492004394531
20
83.0081024169922
40
0.0
41
0.0
42
0.0
10
65.4960021972656
20
82.8117980957031
40
0.0
41
0.0
42
0.0
10
65.4726028442383
20
82.7862014770508
40
0.0
41
0.0
42
0.0
10
65.4559020996094
20
82.7538986206055
40
0.0
41
0.0
42
0.0
10
65.2757034301758
20
82.5058975219727
40
0.0
41
0.0
42
0.0
10
65.2197036743164
20
82.4537963867188
40
0.0
41
0.0
42
0.0
10
65.0009994506836
20
82.3012008666992
40
0.0
41
0.0
42
0.0
10
65.0009994506836
20
82.276496887207
40
0.0
41
0.0
42
0.0
210
0.0
220
0.0
230
1.0
0
LWPOLYLINE
5
25
330
1C
100
AcDbEntity
67
0
8
0
62
256
6
ByLayer
370
-1
48
1.0
60
0
100
AcDbPolyline
90
66
70
1
38
0.0
39
0.0
10
65.9204025268555
20
80.1747970581055
40
0.0
41
0.0
42
0.0
10
65.9375
20
79.9830017089844
40
0.0
41
0.0
42
0.0
10
66.0003967285156
20
79.677001953125
40
0.0
41
0.0
42
0.0
10
66.0198974609375
20
79.5927963256836
40
0.0
41
0.0
42
0.0
10
66.0481033325195
20
79.4886016845703
40
0.0
41
0.0
42
0.0
10
66.1045989990234
20
79.4023971557617
40
0.0
41
0.0
42
0.0
10
66.1821975708008
20
79.3068008422852
40
0.0
41
0.0
42
0.0
10
66.2960968017578
20
79.1176986694336
40
0.0
41
0.0
42
0.0
10
66.3963012695312
20
78.9960021972656
40
0.0
41
0.0
42
0.0
10
66.4877014160156
20
78.9401016235352
40
0.0
41
0.0
42
0.0
10
66.6213989257812
20
78.9131011962891
40
0.0
41
0.0
42
0.0
10
66.6865005493164
20
78.9037017822266
40
0.0
41
0.0
42
0.0
10
66.7230987548828
20
78.9037017822266
40
0.0
41
0.0
42
0.0
10
67.0133972167969
20
78.9565963745117
40
0.0
41
0.0
42
0.0
10
67.0831985473633
20
78.9899978637695
40
0.0
41
0.0
42
0.0
10
67.3191986083984
20
79.0552978515625
40
0.0
41
0.0
42
0.0
10
67.5118026733398
20
79.1325988769531
40
0.0
41
0.0
42
0.0
10
67.7562026977539
20
79.239501953125
40
0.0
41
0.0
42
0.0
10
68.010498046875
20
79.3626022338867
40
0.0
41
0.0
42
0.0
10
68.1115036010742
20
79.4160995483398
40
0.0
41
0.0
42
0.0
10
68.2600021362305
20
79.4977035522461
40
0.0
41
0.0
42
0.0
10
68.3544006347656
20
79.5675964355469
40
0.0
41
0.0
42
0.0
10
68.5071029663086
20
79.6694030761719
40
0.0
41
0.0
42
0.0
10
68.6803970336914
20
79.8206024169922
40
0.0
41
0.0
42
0.0
10
68.8440017700195
20
79.9921035766602
40
0.0
41
0.0
42
0.0
10
68.9094009399414
20
80.1155014038086
40
0.0
41
0.0
42
0.0
10
69.0018997192383
20
80.2459030151367
40
0.0
41
0.0
42
0.0
10
69.0868988037109
20
80.408203125
40
0.0
41
0.0
42
0.0
10
69.1177978515625
20
80.4871978759766
40
0.0
41
0.0
42
0.0
10
69.2189025878906
20
80.7807998657227
40
0.0
41
0.0
42
0.0
10
69.2673034667969
20
80.9850997924805
40
0.0
41
0.0
42
0.0
10
69.3476028442383
20
81.2789993286133
40
0.0
41
0.0
42
0.0
10
69.372802734375
20
81.481201171875
40
0.0
41
0.0
42
0.0
10
69.3727035522461
20
81.5190963745117
40
0.0
41
0.0
42
0.0
10
69.3591995239258
20
81.6959991455078
40
0.0
41
0.0
42
0.0
10
69.4326019287109
20
81.9825973510742
40
0.0
41
0.0
42
0.0
10
69.432502746582
20
82.0141983032227
40
0.0
41
0.0
42
0.0
10
69.3375015258789
20
82.1750030517578
40
0.0
41
0.0
42
0.0
10
69.2998962402344
20
82.5117034912109
40
0.0
41
0.0
42
0.0
10
69.2461013793945
20
82.5817031860352
40
0.0
41
0.0
42
0.0
10
69.0110015869141
20
82.7368011474609
40
0.0
41
0.0
42
0.0
10
68.8324966430664
20
82.7890014648438
40
0.0
41
0.0
42
0.0
10
68.811897277832
20
82.7929992675781
40
0.0
41
0.0
42
0.0
10
68.7546997070312
20
82.7985000610352
40
0.0
41
0.0
42
0.0
10
68.5193023681641
20
82.8136978149414
40
0.0
41
0.0
42
0.0
10
68.4807968139648
20
82.8135986328125
40
0.0
41
0.0
42
0.0
10
68.3026962280273
20
82.7985000610352
40
0.0
41
0.0
42
0.0
10
68.1537017822266
20
82.7938995361328
40
0.0
41
0.0
42
0.0
10
68.0371017456055
20
82.7843017578125
40
0.0
41
0.0
42
0.0
10
67.9824981689453
20
82.782600402832
40
0.0
41
0.0
42
0.0
10
67.7193984985352
20
82.7268981933594
40
0.0
41
0.0
42
0.0
10
67.4852981567383
20
82.6846008300781
40
0.0
41
0.0
42
0.0
10
67.013298034668
20
82.5213012695312
40
0.0
41
0.0
42
0.0
10
66.9871978759766
20
82.5141983032227
40
0.0
41
0.0
42
0.0
10
66.9597015380859
20
82.5014038085938
40
0.0
41
0.0
42
0.0
10
66.4889984130859
20
82.2231979370117
40
0.0
41
0.0
42
0.0
10
66.4570999145508
20
82.2116012573242
40
0.0
41
0.0
42
0.0
10
66.2880020141602
20
82.006103515625
40
0.0
41
0.0
42
0.0
10
66.203498840332
20
81.9157028198242
40
0.0
41
0.0
42
0.0
10
66.1229019165039
20
81.804801940918
40
0.0
41
0.0
42
0.0
10
66.0363998413086
20
81.5142974853516
40
0.0
41
0.0
42
0.0
10
66.0001983642578
20
81.3759002685547
40
0.0
41
0.0
42
0.0
10
65.9468994140625
20
81.1873016357422
40
0.0
41
0.0
42
0.0
10
65.9039001464844
20
80.7529983520508
40
0.0
41
0.0
42
0.0
10
65.9033966064453
20
80.4804992675781
40
0.0
41
0.0
42
0.0
10
65.9204025268555
20
80.1747970581055
40
0.0
41
0.0
42
0.0
210
0.0
220
0.0
230
1.0
0
LWPOLYLINE
5
26
330
1C
100
AcDbEntity
67
0
8
0
62
256
6
ByLayer
370
-1
48
1.0
60
0
100
AcDbPolyline
90
64
70
1
38
0.0
39
0.0
10
65.9231033325195
20
80.5177001953125
40
0.0
41
0.0
42
0.0
10
65.9235992431641
20
80.6632995605469
40
0.0
41
0.0
42
0.0
10
65.9654998779297
20
81.0910034179688
40
0.0
41
0.0
42
0.0
10
65.9996032714844
20
81.2116012573242
40
0.0
41
0.0
42
0.0
10
66.0712966918945
20
81.4856033325195
40
0.0
41
0.0
42
0.0
10
66.1486968994141
20
81.7444000244141
40
0.0
41
0.0
42
0.0
10
66.2508010864258
20
81.8846969604492
40
0.0
41
0.0
42
0.0
10
66.3526000976562
20
81.9937973022461
40
0.0
41
0.0
42
0.0
10
66.4814987182617
20
82.1503982543945
40
0.0
41
0.0
42
0.0
10
66.5109024047852
20
82.1612014770508
40
0.0
41
0.0
42
0.0
10
66.904899597168
20
82.3938980102539
40
0.0
41
0.0
42
0.0
10
67.0099029541016
20
82.4664001464844
40
0.0
41
0.0
42
0.0
10
67.0622024536133
20
82.4878005981445
40
0.0
41
0.0
42
0.0
10
67.5146026611328
20
82.6447982788086
40
0.0
41
0.0
42
0.0
10
67.6996002197266
20
82.6781997680664
40
0.0
41
0.0
42
0.0
10
68.0175018310547
20
82.7453994750977
40
0.0
41
0.0
42
0.0
10
68.0858001708984
20
82.7474975585938
40
0.0
41
0.0
42
0.0
10
68.1865005493164
20
82.7557983398438
40
0.0
41
0.0
42
0.0
10
68.3644027709961
20
82.7612991333008
40
0.0
41
0.0
42
0.0
10
68.5025024414062
20
82.7730026245117
40
0.0
41
0.0
42
0.0
10
68.6859970092773
20
82.7612991333008
40
0.0
41
0.0
42
0.0
10
68.7379989624023
20
82.7564010620117
40
0.0
41
0.0
42
0.0
10
68.7670974731445
20
82.7505035400391
40
0.0
41
0.0
42
0.0
10
68.988899230957
20
82.6856994628906
40
0.0
41
0.0
42
0.0
10
69.1845016479492
20
82.5566024780273
40
0.0
41
0.0
42
0.0
10
69.2372970581055
20
82.4880981445312
40
0.0
41
0.0
42
0.0
10
69.2670974731445
20
82.2197036743164
40
0.0
41
0.0
42
0.0
10
69.3998031616211
20
81.9953002929688
40
0.0
41
0.0
42
0.0
10
69.3403015136719
20
81.7622985839844
40
0.0
41
0.0
42
0.0
10
69.340202331543
20
81.725700378418
40
0.0
41
0.0
42
0.0
10
69.3571014404297
20
81.5043029785156
40
0.0
41
0.0
42
0.0
10
69.3282012939453
20
81.2708969116211
40
0.0
41
0.0
42
0.0
10
69.2582015991211
20
81.0148010253906
40
0.0
41
0.0
42
0.0
10
69.1999969482422
20
80.7690963745117
40
0.0
41
0.0
42
0.0
10
69.111701965332
20
80.5127029418945
40
0.0
41
0.0
42
0.0
10
69.073600769043
20
80.4151000976562
40
0.0
41
0.0
42
0.0
10
68.9979019165039
20
80.2704010009766
40
0.0
41
0.0
42
0.0
10
68.9178009033203
20
80.1577987670898
40
0.0
41
0.0
42
0.0
10
68.8383026123047
20
80.0075988769531
40
0.0
41
0.0
42
0.0
10
68.6949996948242
20
79.8570022583008
40
0.0
41
0.0
42
0.0
10
68.4926986694336
20
79.6803970336914
40
0.0
41
0.0
42
0.0
10
68.3143997192383
20
79.5616989135742
40
0.0
41
0.0
42
0.0
10
68.2342987060547
20
79.502197265625
40
0.0
41
0.0
42
0.0
10
68.1072998046875
20
79.432502746582
40
0.0
41
0.0
42
0.0
10
67.989501953125
20
79.3701019287109
40
0.0
41
0.0
42
0.0
10
67.6938018798828
20
79.2268981933594
40
0.0
41
0.0
42
0.0
10
67.4880981445312
20
79.1370010375977
40
0.0
41
0.0
42
0.0
10
67.2688980102539
20
79.0491027832031
40
0.0
41
0.0
42
0.0
10
67.0848007202148
20
78.9998016357422
40
0.0
41
0.0
42
0.0
10
67.0485992431641
20
78.9887008666992
40
0.0
41
0.0
42
0.0
10
66.9865036010742
20
78.9589996337891
40
0.0
41
0.0
42
0.0
10
66.7429962158203
20
78.9145965576172
40
0.0
41
0.0
42
0.0
10
66.6811981201172
20
78.9235992431641
40
0.0
41
0.0
42
0.0
10
66.5121002197266
20
78.9577026367188
40
0.0
41
0.0
42
0.0
10
66.4365997314453
20
79.0037994384766
40
0.0
41
0.0
42
0.0
10
66.3600997924805
20
79.0969009399414
40
0.0
41
0.0
42
0.0
10
66.279296875
20
79.2311019897461
40
0.0
41
0.0
42
0.0
10
66.1638031005859
20
79.3731994628906
40
0.0
41
0.0
42
0.0
10
66.073600769043
20
79.5111999511719
40
0.0
41
0.0
42
0.0
10
66.0289993286133
20
79.6756973266602
40
0.0
41
0.0
42
0.0
10
65.999397277832
20
79.8031997680664
40
0.0
41
0.0
42
0.0
10
65.9554977416992
20
80.0168991088867
40
0.0
41
0.0
42
0.0
10
65.9433975219727
20
80.1518020629883
40
0.0
41
0.0
42
0.0
10
65.9231033325195
20
80.5177001953125
40
0.0
41
0.0
42
0.0
210
0.0
220
0.0
230
1.0
0
LWPOLYLINE
5
27
330
1C
100
AcDbEntity
67
0
8
0
62
256
6
ByLayer
370
-1
48
1.0
60
0
100
AcDbPolyline
90
63
70
1
38
0.0
39
0.0
10
67.2170028686523
20
67.9830017089844
40
0.0
41
0.0
42
0.0
10
67.2727966308594
20
67.7193984985352
40
0.0
41
0.0
42
0.0
10
67.3151016235352
20
67.4852981567383
40
0.0
41
0.0
42
0.0
10
67.4785995483398
20
67.013298034668
40
0.0
41
0.0
42
0.0
10
67.4856033325195
20
66.9871978759766
40
0.0
41
0.0
42
0.0
10
67.4983978271484
20
66.959602355957
40
0.0
41
0.0
42
0.0
10
67.7766036987305
20
66.488899230957
40
0.0
41
0.0
42
0.0
10
67.788200378418
20
66.4570999145508
40
0.0
41
0.0
42
0.0
10
67.9913024902344
20
66.2900009155273
40
0.0
41
0.0
42
0.0
10
68.3817977905273
20
66.1064987182617
40
0.0
41
0.0
42
0.0
10
68.4887008666992
20
66.0355987548828
40
0.0
41
0.0
42
0.0
10
68.6239013671875
20
66.0001983642578
40
0.0
41
0.0
42
0.0
10
68.8125
20
65.9468994140625
40
0.0
41
0.0
42
0.0
10
69.2468032836914
20
65.9039001464844
40
0.0
41
0.0
42
0.0
10
69.519401550293
20
65.9033966064453
40
0.0
41
0.0
42
0.0
10
69.8251037597656
20
65.9204025268555
40
0.0
41
0.0
42
0.0
10
70.0168991088867
20
65.9375
40
0.0
41
0.0
42
0.0
10
70.3227996826172
20
66.0003967285156
40
0.0
41
0.0
42
0.0
10
70.4069976806641
20
66.0199966430664
40
0.0
41
0.0
42
0.0
10
70.5111999511719
20
66.0482025146484
40
0.0
41
0.0
42
0.0
10
70.5991973876953
20
66.1059036254883
40
0.0
41
0.0
42
0.0
10
70.7888031005859
20
66.2021026611328
40
0.0
41
0.0
42
0.0
10
70.8800964355469
20
66.2945022583008
40
0.0
41
0.0
42
0.0
10
71.0037994384766
20
66.3963012695312
40
0.0
41
0.0
42
0.0
10
71.0596008300781
20
66.4877014160156
40
0.0
41
0.0
42
0.0
10
71.0866012573242
20
66.6213989257812
40
0.0
41
0.0
42
0.0
10
71.0960998535156
20
66.6865005493164
40
0.0
41
0.0
42
0.0
10
71.0960006713867
20
66.7230987548828
40
0.0
41
0.0
42
0.0
10
71.043098449707
20
67.0133972167969
40
0.0
41
0.0
42
0.0
10
71.0096969604492
20
67.0830993652344
40
0.0
41
0.0
42
0.0
10
70.9443969726562
20
67.3191986083984
40
0.0
41
0.0
42
0.0
10
70.8672027587891
20
67.5113983154297
40
0.0
41
0.0
42
0.0
10
70.7440032958984
20
67.7660980224609
40
0.0
41
0.0
42
0.0
10
70.6370010375977
20
68.0108032226562
40
0.0
41
0.0
42
0.0
10
70.5837020874023
20
68.1113967895508
40
0.0
41
0.0
42
0.0
10
70.502197265625
20
68.2599029541016
40
0.0
41
0.0
42
0.0
10
70.4320983886719
20
68.3543014526367
40
0.0
41
0.0
42
0.0
10
70.3302993774414
20
68.5071029663086
40
0.0
41
0.0
42
0.0
10
70.1791000366211
20
68.6803970336914
40
0.0
41
0.0
42
0.0
10
70.0074996948242
20
68.8442001342773
40
0.0
41
0.0
42
0.0
10
69.8843002319336
20
68.9094009399414
40
0.0
41
0.0
42
0.0
10
69.7539978027344
20
69.0018997192383
40
0.0
41
0.0
42
0.0
10
69.5915985107422
20
69.0868988037109
40
0.0
41
0.0
42
0.0
10
69.5127029418945
20
69.1177978515625
40
0.0
41
0.0
42
0.0
10
69.2191009521484
20
69.2189025878906
40
0.0
41
0.0
42
0.0
10
69.0147018432617
20
69.2671966552734
40
0.0
41
0.0
42
0.0
10
68.7209014892578
20
69.3476028442383
40
0.0
41
0.0
42
0.0
10
68.5186996459961
20
69.372802734375
40
0.0
41
0.0
42
0.0
10
68.4807968139648
20
69.3727035522461
40
0.0
41
0.0
42
0.0
10
68.3039016723633
20
69.3591995239258
40
0.0
41
0.0
42
0.0
10
68.0173034667969
20
69.4326019287109
40
0.0
41
0.0
42
0.0
10
67.9857025146484
20
69.4326019287109
40
0.0
41
0.0
42
0.0
10
67.8247985839844
20
69.3376007080078
40
0.0
41
0.0
42
0.0
10
67.4880981445312
20
69.3000030517578
40
0.0
41
0.0
42
0.0
10
67.4179992675781
20
69.2462005615234
40
0.0
41
0.0
42
0.0
10
67.2629013061523
20
69.0110015869141
40
0.0
41
0.0
42
0.0
10
67.2107009887695
20
68.8326034545898
40
0.0
41
0.0
42
0.0
10
67.2067031860352
20
68.811897277832
40
0.0
41
0.0
42
0.0
10
67.2012023925781
20
68.7546997070312
40
0.0
41
0.0
42
0.0
10
67.1862030029297
20
68.5193023681641
40
0.0
41
0.0
42
0.0
10
67.1860961914062
20
68.4803009033203
40
0.0
41
0.0
42
0.0
10
67.1920013427734
20
68.2900009155273
40
0.0
41
0.0
42
0.0
10
67.2170028686523
20
67.9830017089844
40
0.0
41
0.0
42
0.0
210
0.0
220
0.0
230
1.0
0
LWPOLYLINE
5
28
330
1C
100
AcDbEntity
67
0
8
0
62
256
6
ByLayer
370
-1
48
1.0
60
0
100
AcDbPolyline
90
60
70
1
38
0.0
39
0.0
10
67.2324981689453
20
68.2852020263672
40
0.0
41
0.0
42
0.0
10
67.2259979248047
20
68.4932022094727
40
0.0
41
0.0
42
0.0
10
67.2384033203125
20
68.6859970092773
40
0.0
41
0.0
42
0.0
10
67.2433013916016
20
68.7379989624023
40
0.0
41
0.0
42
0.0
10
67.2491989135742
20
68.7670974731445
40
0.0
41
0.0
42
0.0
10
67.3141021728516
20
68.988899230957
40
0.0
41
0.0
42
0.0
10
67.4430999755859
20
69.1846008300781
40
0.0
41
0.0
42
0.0
10
67.5118026733398
20
69.2372970581055
40
0.0
41
0.0
42
0.0
10
67.7800979614258
20
69.2671966552734
40
0.0
41
0.0
42
0.0
10
68.0046997070312
20
69.3998031616211
40
0.0
41
0.0
42
0.0
10
68.2376022338867
20
69.3403015136719
40
0.0
41
0.0
42
0.0
10
68.2742004394531
20
69.340202331543
40
0.0
41
0.0
42
0.0
10
68.4955978393555
20
69.3571014404297
40
0.0
41
0.0
42
0.0
10
68.7289962768555
20
69.3281021118164
40
0.0
41
0.0
42
0.0
10
68.9850997924805
20
69.2582015991211
40
0.0
41
0.0
42
0.0
10
69.2307968139648
20
69.1999969482422
40
0.0
41
0.0
42
0.0
10
69.4871978759766
20
69.111701965332
40
0.0
41
0.0
42
0.0
10
69.5847015380859
20
69.073600769043
40
0.0
41
0.0
42
0.0
10
69.7293014526367
20
68.9979019165039
40
0.0
41
0.0
42
0.0
10
69.8420028686523
20
68.9178009033203
40
0.0
41
0.0
42
0.0
10
69.9932022094727
20
68.83740234375
40
0.0
41
0.0
42
0.0
10
70.1427001953125
20
68.6949996948242
40
0.0
41
0.0
42
0.0
10
70.3192977905273
20
68.4926986694336
40
0.0
41
0.0
42
0.0
10
70.4380035400391
20
68.3143997192383
40
0.0
41
0.0
42
0.0
10
70.4975967407227
20
68.2341003417969
40
0.0
41
0.0
42
0.0
10
70.6297988891602
20
67.9890975952148
40
0.0
41
0.0
42
0.0
10
70.7197036743164
20
67.7836990356445
40
0.0
41
0.0
42
0.0
10
70.8626022338867
20
67.4884033203125
40
0.0
41
0.0
42
0.0
10
70.9505996704102
20
67.2688980102539
40
0.0
41
0.0
42
0.0
10
71.0000991821289
20
67.0848007202148
40
0.0
41
0.0
42
0.0
10
71.0110015869141
20
67.0485000610352
40
0.0
41
0.0
42
0.0
10
71.0407028198242
20
66.9865036010742
40
0.0
41
0.0
42
0.0
10
71.0850982666016
20
66.7429962158203
40
0.0
41
0.0
42
0.0
10
71.0761032104492
20
66.6811981201172
40
0.0
41
0.0
42
0.0
10
71.0419998168945
20
66.5121994018555
40
0.0
41
0.0
42
0.0
10
70.9961013793945
20
66.4366989135742
40
0.0
41
0.0
42
0.0
10
70.904899597168
20
66.3618011474609
40
0.0
41
0.0
42
0.0
10
70.7922973632812
20
66.2477035522461
40
0.0
41
0.0
42
0.0
10
70.6247024536133
20
66.1626968383789
40
0.0
41
0.0
42
0.0
10
70.4887008666992
20
66.073600769043
40
0.0
41
0.0
42
0.0
10
70.3240966796875
20
66.0290985107422
40
0.0
41
0.0
42
0.0
10
70.1965026855469
20
65.999397277832
40
0.0
41
0.0
42
0.0
10
69.9830017089844
20
65.9554977416992
40
0.0
41
0.0
42
0.0
10
69.8479995727539
20
65.9433975219727
40
0.0
41
0.0
42
0.0
10
69.4822006225586
20
65.9231033325195
40
0.0
41
0.0
42
0.0
10
69.3365020751953
20
65.9235000610352
40
0.0
41
0.0
42
0.0
10
68.9087982177734
20
65.9654998779297
40
0.0
41
0.0
42
0.0
10
68.788200378418
20
65.9996032714844
40
0.0
41
0.0
42
0.0
10
68.5111999511719
20
66.0720977783203
40
0.0
41
0.0
42
0.0
10
68.2951965332031
20
66.2157974243164
40
0.0
41
0.0
42
0.0
10
68.0085983276367
20
66.3505020141602
40
0.0
41
0.0
42
0.0
10
67.8492965698242
20
66.4813995361328
40
0.0
41
0.0
42
0.0
10
67.8386993408203
20
66.5109024047852
40
0.0
41
0.0
42
0.0
10
67.6057968139648
20
66.904899597168
40
0.0
41
0.0
42
0.0
10
67.5333023071289
20
67.0099029541016
40
0.0
41
0.0
42
0.0
10
67.5119018554688
20
67.0622024536133
40
0.0
41
0.0
42
0.0
10
67.3548965454102
20
67.5146026611328
40
0.0
41
0.0
42
0.0
10
67.3215026855469
20
67.6996002197266
40
0.0
41
0.0
42
0.0
10
67.2544021606445
20
68.0168991088867
40
0.0
41
0.0
42
0.0
10
67.2324981689453
20
68.2852020263672
40
0.0
41
0.0
42
0.0
210
0.0
220
0.0
230
1.0
0
LWPOLYLINE
5
29
330
1C
100
AcDbEntity
67
0
8
0
62
256
6
ByLayer
370
-1
48
1.0
60
0
100
AcDbPolyline
90
306
70
1
38
0.0
39
0.0
10
69.4719009399414
20
74.4848022460938
40
0.0
41
0.0
42
0.0
10
69.4891967773438
20
74.4494018554688
40
0.0
41
0.0
42
0.0
10
69.5562973022461
20
74.2086029052734
40
0.0
41
0.0
42
0.0
10
69.6679000854492
20
73.9944000244141
40
0.0
41
0.0
42
0.0
10
69.8046035766602
20
73.9026031494141
40
0.0
41
0.0
42
0.0
10
69.9914016723633
20
73.7390975952148
40
0.0
41
0.0
42
0.0
10
70.2453002929688
20
73.6230010986328
40
0.0
41
0.0
42
0.0
10
70.3636016845703
20
73.5419998168945
40
0.0
41
0.0
42
0.0
10
70.4878005981445
20
73.4682998657227
40
0.0
41
0.0
42
0.0
10
70.7424011230469
20
73.4101028442383
40
0.0
41
0.0
42
0.0
10
70.9870986938477
20
73.2791976928711
40
0.0
41
0.0
42
0.0
10
71.2425003051758
20
73.2288970947266
40
0.0
41
0.0
42
0.0
10
71.3175964355469
20
73.1843032836914
40
0.0
41
0.0
42
0.0
10
71.4470977783203
20
72.988899230957
40
0.0
41
0.0
42
0.0
10
71.4661026000977
20
72.9238967895508
40
0.0
41
0.0
42
0.0
10
71.3957977294922
20
72.5142974853516
40
0.0
41
0.0
42
0.0
10
71.2981033325195
20
72.2602005004883
40
0.0
41
0.0
42
0.0
10
71.2782974243164
20
72.018798828125
40
0.0
41
0.0
42
0.0
10
71.2723007202148
20
71.7743988037109
40
0.0
41
0.0
42
0.0
10
71.2314987182617
20
71.5183029174805
40
0.0
41
0.0
42
0.0
10
71.2313995361328
20
71.4817962646484
40
0.0
41
0.0
42
0.0
10
71.2686004638672
20
71.2782974243164
40
0.0
41
0.0
42
0.0
10
71.3087005615234
20
70.9878005981445
40
0.0
41
0.0
42
0.0
10
71.4223022460938
20
70.8247985839844
40
0.0
41
0.0
42
0.0
10
71.4936981201172
20
70.7052001953125
40
0.0
41
0.0
42
0.0
10
71.7424011230469
20
70.6335983276367
40
0.0
41
0.0
42
0.0
10
71.9485015869141
20
70.5338973999023
40
0.0
41
0.0
42
0.0
10
71.9832000732422
20
70.5229034423828
40
0.0
41
0.0
42
0.0
10
72.0189971923828
20
70.5227966308594
40
0.0
41
0.0
42
0.0
10
72.2617034912109
20
70.5457000732422
40
0.0
41
0.0
42
0.0
10
72.5148010253906
20
70.6009979248047
40
0.0
41
0.0
42
0.0
10
72.7574005126953
20
70.6707992553711
40
0.0
41
0.0
42
0.0
10
73.0120010375977
20
70.7959976196289
40
0.0
41
0.0
42
0.0
10
73.2565002441406
20
70.8772964477539
40
0.0
41
0.0
42
0.0
10
73.4768981933594
20
70.9973983764648
40
0.0
41
0.0
42
0.0
10
73.5084991455078
20
71.0236968994141
40
0.0
41
0.0
42
0.0
10
73.5558013916016
20
71.0463027954102
40
0.0
41
0.0
42
0.0
10
73.8768005371094
20
71.0008010864258
40
0.0
41
0.0
42
0.0
10
73.9905014038086
20
70.9945983886719
40
0.0
41
0.0
42
0.0
10
74.1886978149414
20
70.7456970214844
40
0.0
41
0.0
42
0.0
10
74.2966003417969
20
70.4896011352539
40
0.0
41
0.0
42
0.0
10
74.3547973632812
20
70.3951034545898
40
0.0
41
0.0
42
0.0
10
74.4952011108398
20
70.2473983764648
40
0.0
41
0.0
42
0.0
10
74.5848999023438
20
70.1501998901367
40
0.0
41
0.0
42
0.0
10
74.6893997192383
20
69.9927978515625
40
0.0
41
0.0
42
0.0
10
74.8386001586914
20
69.8240966796875
40
0.0
41
0.0
42
0.0
10
74.8637008666992
20
69.7981033325195
40
0.0
41
0.0
42
0.0
10
74.99169921875
20
69.6753997802734
40
0.0
41
0.0
42
0.0
10
75.1745986938477
20
69.5977020263672
40
0.0
41
0.0
42
0.0
10
75.4255981445312
20
69.4992980957031
40
0.0
41
0.0
42
0.0
10
75.4708023071289
20
69.4794998168945
40
0.0
41
0.0
42
0.0
10
75.4843978881836
20
69.4721984863281
40
0.0
41
0.0
42
0.0
10
75.5151977539062
20
69.4720993041992
40
0.0
41
0.0
42
0.0
10
75.5503997802734
20
69.4893035888672
40
0.0
41
0.0
42
0.0
10
75.7911987304688
20
69.556396484375
40
0.0
41
0.0
42
0.0
10
76.005500793457
20
69.6679000854492
40
0.0
41
0.0
42
0.0
10
76.0970993041992
20
69.8046035766602
40
0.0
41
0.0
42
0.0
10
76.2605972290039
20
69.9915008544922
40
0.0
41
0.0
42
0.0
10
76.3767013549805
20
70.2453002929688
40
0.0
41
0.0
42
0.0
10
76.4577026367188
20
70.3637008666992
40
0.0
41
0.0
42
0.0
10
76.5314025878906
20
70.4878005981445
40
0.0
41
0.0
42
0.0
10
76.589599609375
20
70.7424011230469
40
0.0
41
0.0
42
0.0
10
76.7204971313477
20
70.9870986938477
40
0.0
41
0.0
42
0.0
10
76.7707977294922
20
71.2425994873047
40
0.0
41
0.0
42
0.0
10
76.8155975341797
20
71.3175964355469
40
0.0
41
0.0
42
0.0
10
77.0110015869141
20
71.4470977783203
40
0.0
41
0.0
42
0.0
10
77.0758972167969
20
71.4661026000977
40
0.0
41
0.0
42
0.0
10
77.4854965209961
20
71.3957977294922
40
0.0
41
0.0
42
0.0
10
77.7397003173828
20
71.2981033325195
40
0.0
41
0.0
42
0.0
10
77.9811019897461
20
71.2782974243164
40
0.0
41
0.0
42
0.0
10
78.2255020141602
20
71.2723007202148
40
0.0
41
0.0
42
0.0
10
78.4815979003906
20
71.2314987182617
40
0.0
41
0.0
42
0.0
10
78.5180969238281
20
71.2313995361328
40
0.0
41
0.0
42
0.0
10
78.7216033935547
20
71.2686004638672
40
0.0
41
0.0
42
0.0
10
79.0121002197266
20
71.3087997436523
40
0.0
41
0.0
42
0.0
10
79.1750030517578
20
71.4223022460938
40
0.0
41
0.0
42
0.0
10
79.2945022583008
20
71.4936981201172
40
0.0
41
0.0
42
0.0
10
79.366096496582
20
71.7425003051758
40
0.0
41
0.0
42
0.0
10
79.4657974243164
20
71.948600769043
40
0.0
41
0.0
42
0.0
10
79.4769973754883
20
71.9832000732422
40
0.0
41
0.0
42
0.0
10
79.4768981933594
20
72.0189971923828
40
0.0
41
0.0
42
0.0
10
79.4540023803711
20
72.2617034912109
40
0.0
41
0.0
42
0.0
10
79.3991012573242
20
72.5130004882812
40
0.0
41
0.0
42
0.0
10
79.2740020751953
20
72.7673034667969
40
0.0
41
0.0
42
0.0
10
79.2031021118164
20
73.0137023925781
40
0.0
41
0.0
42
0.0
10
79.1223983764648
20
73.2565002441406
40
0.0
41
0.0
42
0.0
10
79.0024032592773
20
73.4767990112305
40
0.0
41
0.0
42
0.0
10
78.9760971069336
20
73.5084991455078
40
0.0
41
0.0
42
0.0
10
78.9533996582031
20
73.5558013916016
40
0.0
41
0.0
42
0.0
10
78.9990005493164
20
73.8768005371094
40
0.0
41
0.0
42
0.0
10
79.0050964355469
20
73.9905014038086
40
0.0
41
0.0
42
0.0
10
79.2540969848633
20
74.1887969970703
40
0.0
41
0.0
42
0.0
10
79.5102996826172
20
74.2966995239258
40
0.0
41
0.0
42
0.0
10
79.6047973632812
20
74.3548965454102
40
0.0
41
0.0
42
0.0
10
79.7524032592773
20
74.4953002929688
40
0.0
41
0.0
42
0.0
10
79.8495025634766
20
74.5849990844727
40
0.0
41
0.0
42
0.0
10
80.0071029663086
20
74.6894989013672
40
0.0
41
0.0
42
0.0
10
80.1755981445312
20
74.8386993408203
40
0.0
41
0.0
42
0.0
10
80.2016983032227
20
74.8637008666992
40
0.0
41
0.0
42
0.0
10
80.3244018554688
20
74.99169921875
40
0.0
41
0.0
42
0.0
10
80.4020004272461
20
75.1745986938477
40
0.0
41
0.0
42
0.0
10
80.5005035400391
20
75.4255981445312
40
0.0
41
0.0
42
0.0
10
80.5202026367188
20
75.4708023071289
40
0.0
41
0.0
42
0.0
10
80.5274963378906
20
75.4844970703125
40
0.0
41
0.0
42
0.0
10
80.527702331543
20
75.5151977539062
40
0.0
41
0.0
42
0.0
10
80.510498046875
20
75.5503005981445
40
0.0
41
0.0
42
0.0
10
80.4432983398438
20
75.7911987304688
40
0.0
41
0.0
42
0.0
10
80.331901550293
20
76.005500793457
40
0.0
41
0.0
42
0.0
10
80.195198059082
20
76.0970993041992
40
0.0
41
0.0
42
0.0
10
80.0083999633789
20
76.2605972290039
40
0.0
41
0.0
42
0.0
10
79.7545013427734
20
76.3766021728516
40
0.0
41
0.0
42
0.0
10
79.636100769043
20
76.4577026367188
40
0.0
41
0.0
42
0.0
10
79.5120010375977
20
76.5314025878906
40
0.0
41
0.0
42
0.0
10
79.2574996948242
20
76.589599609375
40
0.0
41
0.0
42
0.0
10
79.0128021240234
20
76.7204971313477
40
0.0
41
0.0
42
0.0
10
78.7573013305664
20
76.7707977294922
40
0.0
41
0.0
42
0.0
10
78.6820983886719
20
76.8154983520508
40
0.0
41
0.0
42
0.0
10
78.5525970458984
20
77.0110015869141
40
0.0
41
0.0
42
0.0
10
78.5335998535156
20
77.0758972167969
40
0.0
41
0.0
42
0.0
10
78.6038970947266
20
77.4856033325195
40
0.0
41
0.0
42
0.0
10
78.7015991210938
20
77.7397003173828
40
0.0
41
0.0
42
0.0
10
78.7213973999023
20
77.9824981689453
40
0.0
41
0.0
42
0.0
10
78.7620010375977
20
78.2368011474609
40
0.0
41
0.0
42
0.0
10
78.7633972167969
20
78.3023986816406
40
0.0
41
0.0
42
0.0
10
78.7180023193359
20
78.0174026489258
40
0.0
41
0.0
42
0.0
10
78.7011032104492
20
77.8102035522461
40
0.0
41
0.0
42
0.0
10
78.5873031616211
20
77.5143966674805
40
0.0
41
0.0
42
0.0
10
78.5029983520508
20
77.0230026245117
40
0.0
41
0.0
42
0.0
10
78.5029983520508
20
76.9884033203125
40
0.0
41
0.0
42
0.0
10
78.6429977416992
20
76.7770004272461
40
0.0
41
0.0
42
0.0
10
78.6925964355469
20
76.7475967407227
40
0.0
41
0.0
42
0.0
10
78.9870986938477
20
76.6895980834961
40
0.0
41
0.0
42
0.0
10
79.1922988891602
20
76.5798034667969
40
0.0
41
0.0
42
0.0
10
79.4878997802734
20
76.5122985839844
40
0.0
41
0.0
42
0.0
10
79.5979995727539
20
76.4460983276367
40
0.0
41
0.0
42
0.0
10
79.6952972412109
20
76.3795013427734
40
0.0
41
0.0
42
0.0
10
79.9915008544922
20
76.2442016601562
40
0.0
41
0.0
42
0.0
10
80.1501007080078
20
76.1052017211914
40
0.0
41
0.0
42
0.0
10
80.3154983520508
20
75.9944000244141
40
0.0
41
0.0
42
0.0
10
80.4518966674805
20
75.7319030761719
40
0.0
41
0.0
42
0.0
10
80.5000991821289
20
75.5574035644531
40
0.0
41
0.0
42
0.0
10
80.5102996826172
20
75.5232009887695
40
0.0
41
0.0
42
0.0
10
80.5208969116211
20
75.5009994506836
40
0.0
41
0.0
42
0.0
10
80.4992980957031
20
75.4518966674805
40
0.0
41
0.0
42
0.0
10
80.4142990112305
20
75.2350997924805
40
0.0
41
0.0
42
0.0
10
80.3179016113281
20
75.0082015991211
40
0.0
41
0.0
42
0.0
10
80.1768035888672
20
74.8610992431641
40
0.0
41
0.0
42
0.0
10
79.9927978515625
20
74.697998046875
40
0.0
41
0.0
42
0.0
10
79.8108978271484
20
74.5773010253906
40
0.0
41
0.0
42
0.0
10
79.7320022583008
20
74.5046005249023
40
0.0
41
0.0
42
0.0
10
79.6056976318359
20
74.3844985961914
40
0.0
41
0.0
42
0.0
10
79.4896011352539
20
74.3128967285156
40
0.0
41
0.0
42
0.0
10
79.19580078125
20
74.1891021728516
40
0.0
41
0.0
42
0.0
10
78.9898986816406
20
74.0251007080078
40
0.0
41
0.0
42
0.0
10
78.9173965454102
20
74.0037002563477
40
0.0
41
0.0
42
0.0
10
78.8675994873047
20
73.6518020629883
40
0.0
41
0.0
42
0.0
10
78.8675003051758
20
73.6175994873047
40
0.0
41
0.0
42
0.0
10
78.8808975219727
20
73.5865020751953
40
0.0
41
0.0
42
0.0
10
78.9271011352539
20
73.4914016723633
40
0.0
41
0.0
42
0.0
10
78.9973983764648
20
73.4067993164062
40
0.0
41
0.0
42
0.0
10
79.113899230957
20
73.1932983398438
40
0.0
41
0.0
42
0.0
10
79.1827011108398
20
72.9860992431641
40
0.0
41
0.0
42
0.0
10
79.2414016723633
20
72.7825012207031
40
0.0
41
0.0
42
0.0
10
79.3867034912109
20
72.4869003295898
40
0.0
41
0.0
42
0.0
10
79.4518966674805
20
72.1882019042969
40
0.0
41
0.0
42
0.0
10
79.4689025878906
20
72.0085983276367
40
0.0
41
0.0
42
0.0
10
79.459602355957
20
71.9794006347656
40
0.0
41
0.0
42
0.0
10
79.3762969970703
20
71.8074035644531
40
0.0
41
0.0
42
0.0
10
79.2897033691406
20
71.5062026977539
40
0.0
41
0.0
42
0.0
10
79.1384963989258
20
71.4156036376953
40
0.0
41
0.0
42
0.0
10
78.9878997802734
20
71.3105010986328
40
0.0
41
0.0
42
0.0
10
78.7283020019531
20
71.2745971679688
40
0.0
41
0.0
42
0.0
10
78.4989013671875
20
71.2326965332031
40
0.0
41
0.0
42
0.0
10
78.2229995727539
20
71.276496887207
40
0.0
41
0.0
42
0.0
10
78.018798828125
20
71.2816009521484
40
0.0
41
0.0
42
0.0
10
77.8102035522461
20
71.298698425293
40
0.0
41
0.0
42
0.0
10
77.5143966674805
20
71.4123992919922
40
0.0
41
0.0
42
0.0
10
77.0230026245117
20
71.4969024658203
40
0.0
41
0.0
42
0.0
10
76.9886016845703
20
71.4969024658203
40
0.0
41
0.0
42
0.0
10
76.7770004272461
20
71.3567962646484
40
0.0
41
0.0
42
0.0
10
76.7477035522461
20
71.3072967529297
40
0.0
41
0.0
42
0.0
10
76.689697265625
20
71.0128021240234
40
0.0
41
0.0
42
0.0
10
76.5798034667969
20
70.8076019287109
40
0.0
41
0.0
42
0.0
10
76.5122985839844
20
70.5120010375977
40
0.0
41
0.0
42
0.0
10
76.4460983276367
20
70.4018020629883
40
0.0
41
0.0
42
0.0
10
76.3795013427734
20
70.3046035766602
40
0.0
41
0.0
42
0.0
10
76.2442016601562
20
70.0083999633789
40
0.0
41
0.0
42
0.0
10
76.1052017211914
20
69.8497009277344
40
0.0
41
0.0
42
0.0
10
75.9944000244141
20
69.6843032836914
40
0.0
41
0.0
42
0.0
10
75.7320022583008
20
69.5477981567383
40
0.0
41
0.0
42
0.0
10
75.5574035644531
20
69.4998016357422
40
0.0
41
0.0
42
0.0
10
75.5216979980469
20
69.4888000488281
40
0.0
41
0.0
42
0.0
10
75.5010986328125
20
69.4786987304688
40
0.0
41
0.0
42
0.0
10
75.4517974853516
20
69.5005035400391
40
0.0
41
0.0
42
0.0
10
75.2350997924805
20
69.5854034423828
40
0.0
41
0.0
42
0.0
10
75.0082015991211
20
69.6819000244141
40
0.0
41
0.0
42
0.0
10
74.8610000610352
20
69.8228988647461
40
0.0
41
0.0
42
0.0
10
74.6978988647461
20
70.0071029663086
40
0.0
41
0.0
42
0.0
10
74.5772018432617
20
70.1889038085938
40
0.0
41
0.0
42
0.0
10
74.5046005249023
20
70.2677001953125
40
0.0
41
0.0
42
0.0
10
74.3844985961914
20
70.3939971923828
40
0.0
41
0.0
42
0.0
10
74.3128967285156
20
70.5102996826172
40
0.0
41
0.0
42
0.0
10
74.1891021728516
20
70.8041000366211
40
0.0
41
0.0
42
0.0
10
74.0251007080078
20
71.0100021362305
40
0.0
41
0.0
42
0.0
10
74.0037002563477
20
71.0822982788086
40
0.0
41
0.0
42
0.0
10
73.6518020629883
20
71.1323013305664
40
0.0
41
0.0
42
0.0
10
73.6175994873047
20
71.1322021484375
40
0.0
41
0.0
42
0.0
10
73.5865020751953
20
71.1187973022461
40
0.0
41
0.0
42
0.0
10
73.4914016723633
20
71.0726013183594
40
0.0
41
0.0
42
0.0
10
73.4067993164062
20
71.0025024414062
40
0.0
41
0.0
42
0.0
10
73.1933975219727
20
70.8859024047852
40
0.0
41
0.0
42
0.0
10
72.9878997802734
20
70.8175964355469
40
0.0
41
0.0
42
0.0
10
72.6925964355469
20
70.6724014282227
40
0.0
41
0.0
42
0.0
10
72.4850997924805
20
70.6126022338867
40
0.0
41
0.0
42
0.0
10
72.1882019042969
20
70.5477981567383
40
0.0
41
0.0
42
0.0
10
72.0084991455078
20
70.5308990478516
40
0.0
41
0.0
42
0.0
10
71.9793014526367
20
70.5401992797852
40
0.0
41
0.0
42
0.0
10
71.8074035644531
20
70.6234970092773
40
0.0
41
0.0
42
0.0
10
71.506103515625
20
70.7100982666016
40
0.0
41
0.0
42
0.0
10
71.4154968261719
20
70.8612976074219
40
0.0
41
0.0
42
0.0
10
71.3104019165039
20
71.0120010375977
40
0.0
41
0.0
42
0.0
10
71.2745971679688
20
71.271598815918
40
0.0
41
0.0
42
0.0
10
71.2326965332031
20
71.5009994506836
40
0.0
41
0.0
42
0.0
10
71.276496887207
20
71.7769012451172
40
0.0
41
0.0
42
0.0
10
71.2816009521484
20
71.9811019897461
40
0.0
41
0.0
42
0.0
10
71.298698425293
20
72.189697265625
40
0.0
41
0.0
42
0.0
10
71.4123992919922
20
72.4854965209961
40
0.0
41
0.0
42
0.0
10
71.4969024658203
20
72.9767990112305
40
0.0
41
0.0
42
0.0
10
71.4969024658203
20
73.0111999511719
40
0.0
41
0.0
42
0.0
10
71.3566970825195
20
73.2227020263672
40
0.0
41
0.0
42
0.0
10
71.3072967529297
20
73.2519989013672
40
0.0
41
0.0
42
0.0
10
71.0128021240234
20
73.3099975585938
40
0.0
41
0.0
42
0.0
10
70.807502746582
20
73.4198989868164
40
0.0
41
0.0
42
0.0
10
70.5120010375977
20
73.4873962402344
40
0.0
41
0.0
42
0.0
10
70.4018020629883
20
73.553596496582
40
0.0
41
0.0
42
0.0
10
70.3046035766602
20
73.6202011108398
40
0.0
41
0.0
42
0.0
10
70.0083999633789
20
73.755500793457
40
0.0
41
0.0
42
0.0
10
69.8496017456055
20
73.8945007324219
40
0.0
41
0.0
42
0.0
10
69.684196472168
20
74.005500793457
40
0.0
41
0.0
42
0.0
10
69.5476989746094
20
74.2677993774414
40
0.0
41
0.0
42
0.0
10
69.4997024536133
20
74.4423980712891
40
0.0
41
0.0
42
0.0
10
69.4893035888672
20
74.4766006469727
40
0.0
41
0.0
42
0.0
10
69.4785003662109
20
74.4997024536133
40
0.0
41
0.0
42
0.0
10
69.4842987060547
20
74.5108032226562
40
0.0
41
0.0
42
0.0
10
69.5005035400391
20
74.5478973388672
40
0.0
41
0.0
42
0.0
10
69.5854034423828
20
74.7647018432617
40
0.0
41
0.0
42
0.0
10
69.6819000244141
20
74.99169921875
40
0.0
41
0.0
42
0.0
10
69.822998046875
20
75.1387023925781
40
0.0
41
0.0
42
0.0
10
70.0071029663086
20
75.3018035888672
40
0.0
41
0.0
42
0.0
10
70.1889038085938
20
75.4225006103516
40
0.0
41
0.0
42
0.0
10
70.3940963745117
20
75.6153030395508
40
0.0
41
0.0
42
0.0
10
70.5102996826172
20
75.6867980957031
40
0.0
41
0.0
42
0.0
10
70.8041000366211
20
75.8106994628906
40
0.0
41
0.0
42
0.0
10
71.0100021362305
20
75.9746017456055
40
0.0
41
0.0
42
0.0
10
71.0822982788086
20
75.9962005615234
40
0.0
41
0.0
42
0.0
10
71.1323013305664
20
76.3479995727539
40
0.0
41
0.0
42
0.0
10
71.1322021484375
20
76.3822021484375
40
0.0
41
0.0
42
0.0
10
71.1186981201172
20
76.413200378418
40
0.0
41
0.0
42
0.0
10
71.0726013183594
20
76.5084991455078
40
0.0
41
0.0
42
0.0
10
71.0024032592773
20
76.5930023193359
40
0.0
41
0.0
42
0.0
10
70.8858032226562
20
76.8065032958984
40
0.0
41
0.0
42
0.0
10
70.817497253418
20
77.0119018554688
40
0.0
41
0.0
42
0.0
10
70.6723022460938
20
77.3072967529297
40
0.0
41
0.0
42
0.0
10
70.6126022338867
20
77.5148010253906
40
0.0
41
0.0
42
0.0
10
70.5477981567383
20
77.8116989135742
40
0.0
41
0.0
42
0.0
10
70.5308990478516
20
77.9914016723633
40
0.0
41
0.0
42
0.0
10
70.5401992797852
20
78.0205001831055
40
0.0
41
0.0
42
0.0
10
70.6234970092773
20
78.192497253418
40
0.0
41
0.0
42
0.0
10
70.7101974487305
20
78.4936981201172
40
0.0
41
0.0
42
0.0
10
70.8612976074219
20
78.5841979980469
40
0.0
41
0.0
42
0.0
10
71.0117034912109
20
78.6889038085938
40
0.0
41
0.0
42
0.0
10
71.2615966796875
20
78.7345962524414
40
0.0
41
0.0
42
0.0
10
71.5019989013672
20
78.7677001953125
40
0.0
41
0.0
42
0.0
10
71.481201171875
20
78.7682037353516
40
0.0
41
0.0
42
0.0
10
71.1883010864258
20
78.7277984619141
40
0.0
41
0.0
42
0.0
10
70.9881973266602
20
78.6912994384766
40
0.0
41
0.0
42
0.0
10
70.8248977661133
20
78.5774993896484
40
0.0
41
0.0
42
0.0
10
70.7052001953125
20
78.5062026977539
40
0.0
41
0.0
42
0.0
10
70.6337966918945
20
78.2574005126953
40
0.0
41
0.0
42
0.0
10
70.5338973999023
20
78.0512008666992
40
0.0
41
0.0
42
0.0
10
70.5229034423828
20
78.0167007446289
40
0.0
41
0.0
42
0.0
10
70.5227966308594
20
77.9809036254883
40
0.0
41
0.0
42
0.0
10
70.5457000732422
20
77.7381973266602
40
0.0
41
0.0
42
0.0
10
70.6008987426758
20
77.4850997924805
40
0.0
41
0.0
42
0.0
10
70.6707992553711
20
77.2425003051758
40
0.0
41
0.0
42
0.0
10
70.7959976196289
20
76.9878997802734
40
0.0
41
0.0
42
0.0
10
70.877197265625
20
76.7433013916016
40
0.0
41
0.0
42
0.0
10
70.9973983764648
20
76.5230026245117
40
0.0
41
0.0
42
0.0
10
71.0235977172852
20
76.4914016723633
40
0.0
41
0.0
42
0.0
10
71.0464019775391
20
76.4440002441406
40
0.0
41
0.0
42
0.0
10
71.0008010864258
20
76.1230010986328
40
0.0
41
0.0
42
0.0
10
70.9946975708008
20
76.0093994140625
40
0.0
41
0.0
42
0.0
10
70.7457962036133
20
75.8109970092773
40
0.0
41
0.0
42
0.0
10
70.4896011352539
20
75.7031021118164
40
0.0
41
0.0
42
0.0
10
70.3951034545898
20
75.6448974609375
40
0.0
41
0.0
42
0.0
10
70.2451019287109
20
75.5024032592773
40
0.0
41
0.0
42
0.0
10
70.1502990722656
20
75.4149017333984
40
0.0
41
0.0
42
0.0
10
69.9927978515625
20
75.310302734375
40
0.0
41
0.0
42
0.0
10
69.8242034912109
20
75.1611022949219
40
0.0
41
0.0
42
0.0
10
69.7981033325195
20
75.136100769043
40
0.0
41
0.0
42
0.0
10
69.6753997802734
20
75.0082015991211
40
0.0
41
0.0
42
0.0
10
69.5978012084961
20
74.8252029418945
40
0.0
41
0.0
42
0.0
10
69.4992980957031
20
74.5742034912109
40
0.0
41
0.0
42
0.0
10
69.4794998168945
20
74.5290985107422
40
0.0
41
0.0
42
0.0
10
69.4720993041992
20
74.5148010253906
40
0.0
41
0.0
42
0.0
10
69.4719009399414
20
74.4848022460938
40
0.0
41
0.0
42
0.0
210
0.0
220
0.0
230
1.0
0
LWPOLYLINE
5
2A
330
1C
100
AcDbEntity
67
0
8
0
62
256
6
ByLayer
370
-1
48
1.0
60
0
100
AcDbPolyline
90
101
70
1
38
0.0
39
0.0
10
71.6973037719727
20
78.7633972167969
40
0.0
41
0.0
42
0.0
10
71.9824981689453
20
78.7180023193359
40
0.0
41
0.0
42
0.0
10
72.189697265625
20
78.7009963989258
40
0.0
41
0.0
42
0.0
10
72.4854965209961
20
78.5873031616211
40
0.0
41
0.0
42
0.0
10
72.9767990112305
20
78.5029983520508
40
0.0
41
0.0
42
0.0
10
73.0113983154297
20
78.5029983520508
40
0.0
41
0.0
42
0.0
10
73.2227020263672
20
78.6429977416992
40
0.0
41
0.0
42
0.0
10
73.2520980834961
20
78.6925964355469
40
0.0
41
0.0
42
0.0
10
73.3100967407227
20
78.9870986938477
40
0.0
41
0.0
42
0.0
10
73.4198989868164
20
79.1923980712891
40
0.0
41
0.0
42
0.0
10
73.4875030517578
20
79.4878997802734
40
0.0
41
0.0
42
0.0
10
73.553596496582
20
79.5979995727539
40
0.0
41
0.0
42
0.0
10
73.6202011108398
20
79.6952972412109
40
0.0
41
0.0
42
0.0
10
73.7555999755859
20
79.9915008544922
40
0.0
41
0.0
42
0.0
10
73.8945007324219
20
80.1501998901367
40
0.0
41
0.0
42
0.0
10
74.005500793457
20
80.3154983520508
40
0.0
41
0.0
42
0.0
10
74.2677993774414
20
80.4520034790039
40
0.0
41
0.0
42
0.0
10
74.4423980712891
20
80.5000991821289
40
0.0
41
0.0
42
0.0
10
74.4766006469727
20
80.5103988647461
40
0.0
41
0.0
42
0.0
10
74.4990005493164
20
80.5208969116211
40
0.0
41
0.0
42
0.0
10
74.5478973388672
20
80.4992980957031
40
0.0
41
0.0
42
0.0
10
74.7647018432617
20
80.4142990112305
40
0.0
41
0.0
42
0.0
10
74.99169921875
20
80.3178024291992
40
0.0
41
0.0
42
0.0
10
75.1387023925781
20
80.1768035888672
40
0.0
41
0.0
42
0.0
10
75.3018035888672
20
79.9926986694336
40
0.0
41
0.0
42
0.0
10
75.4224014282227
20
79.8108978271484
40
0.0
41
0.0
42
0.0
10
75.6153030395508
20
79.605598449707
40
0.0
41
0.0
42
0.0
10
75.6867980957031
20
79.4896011352539
40
0.0
41
0.0
42
0.0
10
75.8106002807617
20
79.1957015991211
40
0.0
41
0.0
42
0.0
10
75.9746017456055
20
78.9897994995117
40
0.0
41
0.0
42
0.0
10
75.9961013793945
20
78.9173965454102
40
0.0
41
0.0
42
0.0
10
76.3479995727539
20
78.8675994873047
40
0.0
41
0.0
42
0.0
10
76.3822021484375
20
78.8675003051758
40
0.0
41
0.0
42
0.0
10
76.4132995605469
20
78.881103515625
40
0.0
41
0.0
42
0.0
10
76.5084991455078
20
78.9271011352539
40
0.0
41
0.0
42
0.0
10
76.5930023193359
20
78.9973983764648
40
0.0
41
0.0
42
0.0
10
76.8065032958984
20
79.113899230957
40
0.0
41
0.0
42
0.0
10
77.0137023925781
20
79.1828002929688
40
0.0
41
0.0
42
0.0
10
77.217399597168
20
79.2414016723633
40
0.0
41
0.0
42
0.0
10
77.5130004882812
20
79.3867034912109
40
0.0
41
0.0
42
0.0
10
77.8116989135742
20
79.4518966674805
40
0.0
41
0.0
42
0.0
10
77.9913024902344
20
79.4688034057617
40
0.0
41
0.0
42
0.0
10
78.0204010009766
20
79.459602355957
40
0.0
41
0.0
42
0.0
10
78.192497253418
20
79.3762969970703
40
0.0
41
0.0
42
0.0
10
78.4936981201172
20
79.2895965576172
40
0.0
41
0.0
42
0.0
10
78.5841979980469
20
79.1383972167969
40
0.0
41
0.0
42
0.0
10
78.6889038085938
20
78.9881973266602
40
0.0
41
0.0
42
0.0
10
78.7345962524414
20
78.7382965087891
40
0.0
41
0.0
42
0.0
10
78.7677001953125
20
78.497802734375
40
0.0
41
0.0
42
0.0
10
78.7682037353516
20
78.5186996459961
40
0.0
41
0.0
42
0.0
10
78.7277984619141
20
78.8115997314453
40
0.0
41
0.0
42
0.0
10
78.6912002563477
20
79.0115966796875
40
0.0
41
0.0
42
0.0
10
78.5774002075195
20
79.1748962402344
40
0.0
41
0.0
42
0.0
10
78.506103515625
20
79.2945022583008
40
0.0
41
0.0
42
0.0
10
78.2574005126953
20
79.3659973144531
40
0.0
41
0.0
42
0.0
10
78.0512008666992
20
79.4657974243164
40
0.0
41
0.0
42
0.0
10
78.0167007446289
20
79.4769973754883
40
0.0
41
0.0
42
0.0
10
77.9809036254883
20
79.4768981933594
40
0.0
41
0.0
42
0.0
10
77.7381973266602
20
79.4540023803711
40
0.0
41
0.0
42
0.0
10
77.4869003295898
20
79.3992004394531
40
0.0
41
0.0
42
0.0
10
77.2325973510742
20
79.2741012573242
40
0.0
41
0.0
42
0.0
10
76.986198425293
20
79.2031021118164
40
0.0
41
0.0
42
0.0
10
76.7434005737305
20
79.1224975585938
40
0.0
41
0.0
42
0.0
10
76.5230026245117
20
79.0025024414062
40
0.0
41
0.0
42
0.0
10
76.4914016723633
20
78.9760971069336
40
0.0
41
0.0
42
0.0
10
76.4440002441406
20
78.9533004760742
40
0.0
41
0.0
42
0.0
10
76.1230010986328
20
78.9990005493164
40
0.0
41
0.0
42
0.0
10
76.0093994140625
20
79.004997253418
40
0.0
41
0.0
42
0.0
10
75.8109970092773
20
79.2540969848633
40
0.0
41
0.0
42
0.0
10
75.7031021118164
20
79.5102996826172
40
0.0
41
0.0
42
0.0
10
75.6448974609375
20
79.6046981811523
40
0.0
41
0.0
42
0.0
10
75.5024032592773
20
79.7546005249023
40
0.0
41
0.0
42
0.0
10
75.4148025512695
20
79.8495025634766
40
0.0
41
0.0
42
0.0
10
75.310302734375
20
80.0071029663086
40
0.0
41
0.0
42
0.0
10
75.161003112793
20
80.1755981445312
40
0.0
41
0.0
42
0.0
10
75.1360015869141
20
80.2015991210938
40
0.0
41
0.0
42
0.0
10
75.0082015991211
20
80.3244018554688
40
0.0
41
0.0
42
0.0
10
74.8252029418945
20
80.4020004272461
40
0.0
41
0.0
42
0.0
10
74.5742034912109
20
80.5005035400391
40
0.0
41
0.0
42
0.0
10
74.5289993286133
20
80.5202026367188
40
0.0
41
0.0
42
0.0
10
74.5148010253906
20
80.5278015136719
40
0.0
41
0.0
42
0.0
10
74.4848022460938
20
80.5278015136719
40
0.0
41
0.0
42
0.0
10
74.4494018554688
20
80.510498046875
40
0.0
41
0.0
42
0.0
10
74.2086029052734
20
80.4433975219727
40
0.0
41
0.0
42
0.0
10
73.9944000244141
20
80.331901550293
40
0.0
41
0.0
42
0.0
10
73.902702331543
20
80.195198059082
40
0.0
41
0.0
42
0.0
10
73.7390975952148
20
80.0084991455078
40
0.0
41
0.0
42
0.0
10
73.6231002807617
20
79.7546005249023
40
0.0
41
0.0
42
0.0
10
73.5420989990234
20
79.6361999511719
40
0.0
41
0.0
42
0.0
10
73.4682998657227
20
79.5121002197266
40
0.0
41
0.0
42
0.0
10
73.4101028442383
20
79.2574996948242
40
0.0
41
0.0
42
0.0
10
73.279296875
20
79.0128021240234
40
0.0
41
0.0
42
0.0
10
73.2288970947266
20
78.7573013305664
40
0.0
41
0.0
42
0.0
10
73.1844024658203
20
78.6821975708008
40
0.0
41
0.0
42
0.0
10
72.988899230957
20
78.5526962280273
40
0.0
41
0.0
42
0.0
10
72.9238967895508
20
78.5335998535156
40
0.0
41
0.0
42
0.0
10
72.5142974853516
20
78.6038970947266
40
0.0
41
0.0
42
0.0
10
72.2602005004883
20
78.7015991210938
40
0.0
41
0.0
42
0.0
10
72.0174026489258
20
78.7213973999023
40
0.0
41
0.0
42
0.0
10
71.7630996704102
20
78.7620010375977
40
0.0
41
0.0
42
0.0
10
71.6973037719727
20
78.7633972167969
40
0.0
41
0.0
42
0.0
210
0.0
220
0.0
230
1.0
0
LWPOLYLINE
5
2B
330
1C
100
AcDbEntity
67
0
8
0
62
256
6
ByLayer
370
-1
48
1.0
60
0
100
AcDbPolyline
90
72
70
1
38
0.0
39
0.0
10
71.7060012817383
20
83.9876022338867
40
0.0
41
0.0
42
0.0
10
71.9411010742188
20
83.7086029052734
40
0.0
41
0.0
42
0.0
10
71.9991989135742
20
83.5808029174805
40
0.0
41
0.0
42
0.0
10
72.043701171875
20
83.5056991577148
40
0.0
41
0.0
42
0.0
10
72.0523986816406
20
83.4979019165039
40
0.0
41
0.0
42
0.0
10
72.3199996948242
20
83.3880996704102
40
0.0
41
0.0
42
0.0
10
72.4896011352539
20
83.2919006347656
40
0.0
41
0.0
42
0.0
10
72.7332000732422
20
83.1782989501953
40
0.0
41
0.0
42
0.0
10
72.9869003295898
20
83.0808029174805
40
0.0
41
0.0
42
0.0
10
73.3147964477539
20
82.9770965576172
40
0.0
41
0.0
42
0.0
10
73.4838027954102
20
82.9279022216797
40
0.0
41
0.0
42
0.0
10
73.7275009155273
20
82.9075012207031
40
0.0
41
0.0
42
0.0
10
73.9815979003906
20
82.8666000366211
40
0.0
41
0.0
42
0.0
10
74.0174026489258
20
82.8665008544922
40
0.0
41
0.0
42
0.0
10
74.2326965332031
20
82.9198989868164
40
0.0
41
0.0
42
0.0
10
74.5143966674805
20
82.9539031982422
40
0.0
41
0.0
42
0.0
10
74.5988998413086
20
82.9907989501953
40
0.0
41
0.0
42
0.0
10
74.80419921875
20
83.1035995483398
40
0.0
41
0.0
42
0.0
10
75.0110015869141
20
83.1849975585938
40
0.0
41
0.0
42
0.0
10
75.30419921875
20
83.3459014892578
40
0.0
41
0.0
42
0.0
10
75.5091018676758
20
83.4786987304688
40
0.0
41
0.0
42
0.0
10
75.5411987304688
20
83.4969024658203
40
0.0
41
0.0
42
0.0
10
75.7479019165039
20
83.7008972167969
40
0.0
41
0.0
42
0.0
10
76.0077972412109
20
83.8953018188477
40
0.0
41
0.0
42
0.0
10
76.1539993286133
20
83.9936981201172
40
0.0
41
0.0
42
0.0
10
76.2492980957031
20
84.2359008789062
40
0.0
41
0.0
42
0.0
10
76.3142013549805
20
84.4826965332031
40
0.0
41
0.0
42
0.0
10
76.3140029907227
20
84.5145034790039
40
0.0
41
0.0
42
0.0
10
76.091796875
20
84.9194030761719
40
0.0
41
0.0
42
0.0
10
76.0693969726562
20
84.961799621582
40
0.0
41
0.0
42
0.0
10
76.0518035888672
20
84.9990005493164
40
0.0
41
0.0
42
0.0
10
75.9901962280273
20
84.9990005493164
40
0.0
41
0.0
42
0.0
10
75.9900970458984
20
84.9860000610352
40
0.0
41
0.0
42
0.0
10
75.9963989257812
20
84.9760971069336
40
0.0
41
0.0
42
0.0
10
76.2601013183594
20
84.4955978393555
40
0.0
41
0.0
42
0.0
10
76.1810989379883
20
84.1946029663086
40
0.0
41
0.0
42
0.0
10
76.1069030761719
20
84.006103515625
40
0.0
41
0.0
42
0.0
10
75.9921035766602
20
83.9288024902344
40
0.0
41
0.0
42
0.0
10
75.7520980834961
20
83.7490005493164
40
0.0
41
0.0
42
0.0
10
75.5034027099609
20
83.5035018920898
40
0.0
41
0.0
42
0.0
10
75.2456970214844
20
83.3370971679688
40
0.0
41
0.0
42
0.0
10
74.988899230957
20
83.1962966918945
40
0.0
41
0.0
42
0.0
10
74.8100967407227
20
83.1258010864258
40
0.0
41
0.0
42
0.0
10
74.5653991699219
20
82.9914016723633
40
0.0
41
0.0
42
0.0
10
74.4854965209961
20
82.9564971923828
40
0.0
41
0.0
42
0.0
10
74.228401184082
20
82.9255981445312
40
0.0
41
0.0
42
0.0
10
74.1895980834961
20
82.9175033569336
40
0.0
41
0.0
42
0.0
10
73.9964981079102
20
82.869499206543
40
0.0
41
0.0
42
0.0
10
73.7223968505859
20
82.9135971069336
40
0.0
41
0.0
42
0.0
10
73.5160980224609
20
82.9309997558594
40
0.0
41
0.0
42
0.0
10
73.3704986572266
20
82.9732971191406
40
0.0
41
0.0
42
0.0
10
73.0130004882812
20
83.0861968994141
40
0.0
41
0.0
42
0.0
10
72.7166976928711
20
83.1998977661133
40
0.0
41
0.0
42
0.0
10
72.5102996826172
20
83.2963027954102
40
0.0
41
0.0
42
0.0
10
72.3523025512695
20
83.3859024047852
40
0.0
41
0.0
42
0.0
10
72.3227005004883
20
83.4010009765625
40
0.0
41
0.0
42
0.0
10
72.0771026611328
20
83.5018005371094
40
0.0
41
0.0
42
0.0
10
72.0600967407227
20
83.5171966552734
40
0.0
41
0.0
42
0.0
10
72.0011978149414
20
83.6165008544922
40
0.0
41
0.0
42
0.0
10
71.934196472168
20
83.7642974853516
40
0.0
41
0.0
42
0.0
10
71.7309036254883
20
84.005500793457
40
0.0
41
0.0
42
0.0
10
71.7890014648438
20
84.2404022216797
40
0.0
41
0.0
42
0.0
10
71.8618011474609
20
84.4888000488281
40
0.0
41
0.0
42
0.0
10
72.0273971557617
20
84.7468032836914
40
0.0
41
0.0
42
0.0
10
72.2017974853516
20
84.9868011474609
40
0.0
41
0.0
42
0.0
10
72.2017974853516
20
84.9990005493164
40
0.0
41
0.0
42
0.0
10
72.1669998168945
20
84.9990005493164
40
0.0
41
0.0
42
0.0
10
72.0246963500977
20
84.8031005859375
40
0.0
41
0.0
42
0.0
10
71.83740234375
20
84.5111999511719
40
0.0
41
0.0
42
0.0
10
71.7782974243164
20
84.3095016479492
40
0.0
41
0.0
42
0.0
10
71.7061004638672
20
84.0174026489258
40
0.0
41
0.0
42
0.0
10
71.7060012817383
20
83.9876022338867
40
0.0
41
0.0
42
0.0
210
0.0
220
0.0
230
1.0
0
LWPOLYLINE
5
2C
330
1C
100
AcDbEntity
67
0
8
0
62
256
6
ByLayer
370
-1
48
1.0
60
0
100
AcDbPolyline
90
93
70
1
38
0.0
39
0.0
10
72.6246032714844
20
75.4918975830078
40
0.0
41
0.0
42
0.0
10
72.8249969482422
20
75.372802734375
40
0.0
41
0.0
42
0.0
10
72.9934997558594
20
75.2255020141602
40
0.0
41
0.0
42
0.0
10
73.1069030761719
20
75.1323013305664
40
0.0
41
0.0
42
0.0
10
73.2712020874023
20
74.9918975830078
40
0.0
41
0.0
42
0.0
10
73.2489013671875
20
74.7753982543945
40
0.0
41
0.0
42
0.0
10
73.1733016967773
20
74.5115966796875
40
0.0
41
0.0
42
0.0
10
72.9960021972656
20
74.2085037231445
40
0.0
41
0.0
42
0.0
10
72.8339996337891
20
74.0845031738281
40
0.0
41
0.0
42
0.0
10
72.776496887207
20
74.0126037597656
40
0.0
41
0.0
42
0.0
10
72.7763977050781
20
73.9897003173828
40
0.0
41
0.0
42
0.0
10
72.9312973022461
20
73.8600997924805
40
0.0
41
0.0
42
0.0
10
72.9918975830078
20
73.7822036743164
40
0.0
41
0.0
42
0.0
10
73.1889038085938
20
73.7391967773438
40
0.0
41
0.0
42
0.0
10
73.2272033691406
20
73.7328033447266
40
0.0
41
0.0
42
0.0
10
73.4819030761719
20
73.7190017700195
40
0.0
41
0.0
42
0.0
10
73.7281036376953
20
73.6865997314453
40
0.0
41
0.0
42
0.0
10
73.994499206543
20
73.6407012939453
40
0.0
41
0.0
42
0.0
10
74.0632019042969
20
73.486701965332
40
0.0
41
0.0
42
0.0
10
74.1174011230469
20
73.2602996826172
40
0.0
41
0.0
42
0.0
10
74.1650009155273
20
72.9893035888672
40
0.0
41
0.0
42
0.0
10
74.3623962402344
20
72.7629013061523
40
0.0
41
0.0
42
0.0
10
74.4891967773438
20
72.6247024536133
40
0.0
41
0.0
42
0.0
10
74.5080032348633
20
72.6247024536133
40
0.0
41
0.0
42
0.0
10
74.6268997192383
20
72.8251037597656
40
0.0
41
0.0
42
0.0
10
74.7742004394531
20
72.9935989379883
40
0.0
41
0.0
42
0.0
10
74.8675003051758
20
73.1069030761719
40
0.0
41
0.0
42
0.0
10
75.0080032348633
20
73.2712020874023
40
0.0
41
0.0
42
0.0
10
75.2244033813477
20
73.2488021850586
40
0.0
41
0.0
42
0.0
10
75.4882965087891
20
73.1733016967773
40
0.0
41
0.0
42
0.0
10
75.7913970947266
20
72.9959030151367
40
0.0
41
0.0
42
0.0
10
75.9152984619141
20
72.8339004516602
40
0.0
41
0.0
42
0.0
10
75.9872970581055
20
72.776496887207
40
0.0
41
0.0
42
0.0
10
76.0101013183594
20
72.776496887207
40
0.0
41
0.0
42
0.0
10
76.1397018432617
20
72.9312973022461
40
0.0
41
0.0
42
0.0
10
76.2160034179688
20
72.9906997680664
40
0.0
41
0.0
42
0.0
10
76.2302017211914
20
73.2511978149414
40
0.0
41
0.0
42
0.0
10
76.2811965942383
20
73.484001159668
40
0.0
41
0.0
42
0.0
10
76.3248977661133
20
73.7380981445312
40
0.0
41
0.0
42
0.0
10
76.3585968017578
20
73.9943008422852
40
0.0
41
0.0
42
0.0
10
76.5131988525391
20
74.0632019042969
40
0.0
41
0.0
42
0.0
10
76.7396011352539
20
74.1175003051758
40
0.0
41
0.0
42
0.0
10
77.010498046875
20
74.1651000976562
40
0.0
41
0.0
42
0.0
10
77.2369003295898
20
74.3625030517578
40
0.0
41
0.0
42
0.0
10
77.3751983642578
20
74.4891967773438
40
0.0
41
0.0
42
0.0
10
77.3750991821289
20
74.5080032348633
40
0.0
41
0.0
42
0.0
10
77.1746978759766
20
74.6268997192383
40
0.0
41
0.0
42
0.0
10
77.0063018798828
20
74.7742004394531
40
0.0
41
0.0
42
0.0
10
76.8927993774414
20
74.8674011230469
40
0.0
41
0.0
42
0.0
10
76.7321014404297
20
75.0048980712891
40
0.0
41
0.0
42
0.0
10
76.7991027832031
20
75.2389984130859
40
0.0
41
0.0
42
0.0
10
76.8255004882812
20
75.486701965332
40
0.0
41
0.0
42
0.0
10
77.0038986206055
20
75.7913970947266
40
0.0
41
0.0
42
0.0
10
77.1658020019531
20
75.9152984619141
40
0.0
41
0.0
42
0.0
10
77.2233963012695
20
75.9872970581055
40
0.0
41
0.0
42
0.0
10
77.2232971191406
20
76.0101013183594
40
0.0
41
0.0
42
0.0
10
77.0683975219727
20
76.1397018432617
40
0.0
41
0.0
42
0.0
10
77.0092010498047
20
76.2160034179688
40
0.0
41
0.0
42
0.0
10
76.7487030029297
20
76.2302017211914
40
0.0
41
0.0
42
0.0
10
76.5158996582031
20
76.2811965942383
40
0.0
41
0.0
42
0.0
10
76.2618026733398
20
76.3248977661133
40
0.0
41
0.0
42
0.0
10
76.005500793457
20
76.3584976196289
40
0.0
41
0.0
42
0.0
10
75.9363021850586
20
76.513801574707
40
0.0
41
0.0
42
0.0
10
75.8911972045898
20
76.7710037231445
40
0.0
41
0.0
42
0.0
10
75.8830032348633
20
76.8104019165039
40
0.0
41
0.0
42
0.0
10
75.8350982666016
20
77.0100021362305
40
0.0
41
0.0
42
0.0
10
75.6372985839844
20
77.2368011474609
40
0.0
41
0.0
42
0.0
10
75.5106964111328
20
77.3751983642578
40
0.0
41
0.0
42
0.0
10
75.4918975830078
20
77.3751983642578
40
0.0
41
0.0
42
0.0
10
75.3729019165039
20
77.1746978759766
40
0.0
41
0.0
42
0.0
10
75.2256011962891
20
77.0064010620117
40
0.0
41
0.0
42
0.0
10
75.1323013305664
20
76.8928985595703
40
0.0
41
0.0
42
0.0
10
74.9951019287109
20
76.7320022583008
40
0.0
41
0.0
42
0.0
10
74.7609024047852
20
76.7991027832031
40
0.0
41
0.0
42
0.0
10
74.5131988525391
20
76.8254013061523
40
0.0
41
0.0
42
0.0
10
74.2085037231445
20
77.0038986206055
40
0.0
41
0.0
42
0.0
10
74.0843963623047
20
77.1658020019531
40
0.0
41
0.0
42
0.0
10
74.0126037597656
20
77.2233963012695
40
0.0
41
0.0
42
0.0
10
73.9897994995117
20
77.2232971191406
40
0.0
41
0.0
42
0.0
10
73.8601989746094
20
77.0684967041016
40
0.0
41
0.0
42
0.0
10
73.7822036743164
20
77.0080032348633
40
0.0
41
0.0
42
0.0
10
73.7391967773438
20
76.8109970092773
40
0.0
41
0.0
42
0.0
10
73.7328033447266
20
76.7726974487305
40
0.0
41
0.0
42
0.0
10
73.7190017700195
20
76.5179977416992
40
0.0
41
0.0
42
0.0
10
73.6865997314453
20
76.2717971801758
40
0.0
41
0.0
42
0.0
10
73.6407012939453
20
76.0053024291992
40
0.0
41
0.0
42
0.0
10
73.4860992431641
20
75.9363021850586
40
0.0
41
0.0
42
0.0
10
73.2288970947266
20
75.8911972045898
40
0.0
41
0.0
42
0.0
10
73.1894989013672
20
75.8830032348633
40
0.0
41
0.0
42
0.0
10
72.9898986816406
20
75.8351974487305
40
0.0
41
0.0
42
0.0
10
72.7629013061523
20
75.6372985839844
40
0.0
41
0.0
42
0.0
10
72.6247024536133
20
75.5106964111328
40
0.0
41
0.0
42
0.0
10
72.6246032714844
20
75.4918975830078
40
0.0
41
0.0
42
0.0
210
0.0
220
0.0
230
1.0
0
LWPOLYLINE
5
2D
330
1C
100
AcDbEntity
67
0
8
0
62
256
6
ByLayer
370
-1
48
1.0
60
0
100
AcDbPolyline
90
93
70
1
38
0.0
39
0.0
10
73.0100021362305
20
75.8322982788086
40
0.0
41
0.0
42
0.0
10
73.2417984008789
20
75.8879013061523
40
0.0
41
0.0
42
0.0
10
73.513801574707
20
75.9355010986328
40
0.0
41
0.0
42
0.0
10
73.6458969116211
20
75.9945983886719
40
0.0
41
0.0
42
0.0
10
73.6947021484375
20
76.2780990600586
40
0.0
41
0.0
42
0.0
10
73.7214965820312
20
76.4819030761719
40
0.0
41
0.0
42
0.0
10
73.7369003295898
20
76.7643966674805
40
0.0
41
0.0
42
0.0
10
73.7866973876953
20
76.9917984008789
40
0.0
41
0.0
42
0.0
10
73.8890991210938
20
77.071403503418
40
0.0
41
0.0
42
0.0
10
74.0009994506836
20
77.2051010131836
40
0.0
41
0.0
42
0.0
10
74.0903015136719
20
77.1335983276367
40
0.0
41
0.0
42
0.0
10
74.1956024169922
20
76.9960021972656
40
0.0
41
0.0
42
0.0
10
74.4857025146484
20
76.8258972167969
40
0.0
41
0.0
42
0.0
10
74.6933975219727
20
76.8040008544922
40
0.0
41
0.0
42
0.0
10
74.9829025268555
20
76.7212982177734
40
0.0
41
0.0
42
0.0
10
75.0102996826172
20
76.7211990356445
40
0.0
41
0.0
42
0.0
10
75.1583023071289
20
76.8945999145508
40
0.0
41
0.0
42
0.0
10
75.2396011352539
20
76.9935989379883
40
0.0
41
0.0
42
0.0
10
75.3658981323242
20
77.1379013061523
40
0.0
41
0.0
42
0.0
10
75.3833999633789
20
77.1645965576172
40
0.0
41
0.0
42
0.0
10
75.5007019042969
20
77.3615036010742
40
0.0
41
0.0
42
0.0
10
75.6546020507812
20
77.1934967041016
40
0.0
41
0.0
42
0.0
10
75.8321990966797
20
76.9898986816406
40
0.0
41
0.0
42
0.0
10
75.8878021240234
20
76.7581024169922
40
0.0
41
0.0
42
0.0
10
75.9355010986328
20
76.4860992431641
40
0.0
41
0.0
42
0.0
10
75.9943008422852
20
76.3544006347656
40
0.0
41
0.0
42
0.0
10
76.188102722168
20
76.3289031982422
40
0.0
41
0.0
42
0.0
10
76.484001159668
20
76.2779998779297
40
0.0
41
0.0
42
0.0
10
76.6883010864258
20
76.2332000732422
40
0.0
41
0.0
42
0.0
10
76.7266998291016
20
76.2289962768555
40
0.0
41
0.0
42
0.0
10
76.9906005859375
20
76.214599609375
40
0.0
41
0.0
42
0.0
10
77.0712966918945
20
76.1107025146484
40
0.0
41
0.0
42
0.0
10
77.2051010131836
20
75.9989013671875
40
0.0
41
0.0
42
0.0
10
77.1335983276367
20
75.9094009399414
40
0.0
41
0.0
42
0.0
10
76.9960021972656
20
75.80419921875
40
0.0
41
0.0
42
0.0
10
76.8255004882812
20
75.513298034668
40
0.0
41
0.0
42
0.0
10
76.8041000366211
20
75.3065032958984
40
0.0
41
0.0
42
0.0
10
76.7212982177734
20
75.0169982910156
40
0.0
41
0.0
42
0.0
10
76.7211990356445
20
74.9896011352539
40
0.0
41
0.0
42
0.0
10
76.8945007324219
20
74.8414001464844
40
0.0
41
0.0
42
0.0
10
76.9934997558594
20
74.7602005004883
40
0.0
41
0.0
42
0.0
10
77.1379013061523
20
74.633903503418
40
0.0
41
0.0
42
0.0
10
77.1645965576172
20
74.6163024902344
40
0.0
41
0.0
42
0.0
10
77.3616027832031
20
74.4992980957031
40
0.0
41
0.0
42
0.0
10
77.193603515625
20
74.3451995849609
40
0.0
41
0.0
42
0.0
10
76.9894027709961
20
74.1670989990234
40
0.0
41
0.0
42
0.0
10
76.7288970947266
20
74.1212997436523
40
0.0
41
0.0
42
0.0
10
76.6895980834961
20
74.1130981445312
40
0.0
41
0.0
42
0.0
10
76.486701965332
20
74.0644989013672
40
0.0
41
0.0
42
0.0
10
76.3544006347656
20
74.0055999755859
40
0.0
41
0.0
42
0.0
10
76.3289031982422
20
73.8117980957031
40
0.0
41
0.0
42
0.0
10
76.2780990600586
20
73.5158996582031
40
0.0
41
0.0
42
0.0
10
76.2332000732422
20
73.3115997314453
40
0.0
41
0.0
42
0.0
10
76.2289962768555
20
73.2732009887695
40
0.0
41
0.0
42
0.0
10
76.2146987915039
20
73.0093002319336
40
0.0
41
0.0
42
0.0
10
76.1107025146484
20
72.9283981323242
40
0.0
41
0.0
42
0.0
10
75.9989013671875
20
72.7945022583008
40
0.0
41
0.0
42
0.0
10
75.9094009399414
20
72.8662033081055
40
0.0
41
0.0
42
0.0
10
75.8041000366211
20
73.0037994384766
40
0.0
41
0.0
42
0.0
10
75.5115966796875
20
73.1751022338867
40
0.0
41
0.0
42
0.0
10
75.2210006713867
20
73.2575988769531
40
0.0
41
0.0
42
0.0
10
75.0188980102539
20
73.2786026000977
40
0.0
41
0.0
42
0.0
10
74.9896011352539
20
73.2786026000977
40
0.0
41
0.0
42
0.0
10
74.8414993286133
20
73.1052017211914
40
0.0
41
0.0
42
0.0
10
74.7602005004883
20
73.0063018798828
40
0.0
41
0.0
42
0.0
10
74.633903503418
20
72.8619003295898
40
0.0
41
0.0
42
0.0
10
74.6164016723633
20
72.8351974487305
40
0.0
41
0.0
42
0.0
10
74.4992980957031
20
72.6380996704102
40
0.0
41
0.0
42
0.0
10
74.3451995849609
20
72.8061981201172
40
0.0
41
0.0
42
0.0
10
74.1670989990234
20
73.010498046875
40
0.0
41
0.0
42
0.0
10
74.1212997436523
20
73.2710037231445
40
0.0
41
0.0
42
0.0
10
74.1130981445312
20
73.310302734375
40
0.0
41
0.0
42
0.0
10
74.0643997192383
20
73.5131988525391
40
0.0
41
0.0
42
0.0
10
74.0053024291992
20
73.6458969116211
40
0.0
41
0.0
42
0.0
10
73.7218017578125
20
73.6947021484375
40
0.0
41
0.0
42
0.0
10
73.5179977416992
20
73.7214965820312
40
0.0
41
0.0
42
0.0
10
73.2354965209961
20
73.7369003295898
40
0.0
41
0.0
42
0.0
10
73.0080032348633
20
73.7865982055664
40
0.0
41
0.0
42
0.0
10
72.9283981323242
20
73.8889999389648
40
0.0
41
0.0
42
0.0
10
72.7947006225586
20
74.0009994506836
40
0.0
41
0.0
42
0.0
10
72.8663024902344
20
74.0903015136719
40
0.0
41
0.0
42
0.0
10
73.0038986206055
20
74.1957015991211
40
0.0
41
0.0
42
0.0
10
73.1747970581055
20
74.4873962402344
40
0.0
41
0.0
42
0.0
10
73.2575988769531
20
74.7789001464844
40
0.0
41
0.0
42
0.0
10
73.2786026000977
20
74.9810028076172
40
0.0
41
0.0
42
0.0
10
73.2785034179688
20
75.0102005004883
40
0.0
41
0.0
42
0.0
10
73.1052017211914
20
75.1583023071289
40
0.0
41
0.0
42
0.0
10
73.0063018798828
20
75.239501953125
40
0.0
41
0.0
42
0.0
10
72.8619003295898
20
75.3657989501953
40
0.0
41
0.0
42
0.0
10
72.8351974487305
20
75.3833999633789
40
0.0
41
0.0
42
0.0
10
72.6381988525391
20
75.5007019042969
40
0.0
41
0.0
42
0.0
10
72.8062973022461
20
75.6546020507812
40
0.0
41
0.0
42
0.0
10
73.0100021362305
20
75.8322982788086
40
0.0
41
0.0
42
0.0
210
0.0
220
0.0
230
1.0
0
LWPOLYLINE
5
2E
330
1C
100
AcDbEntity
67
0
8
0
62
256
6
ByLayer
370
-1
48
1.0
60
0
100
AcDbPolyline
90
72
70
1
38
0.0
39
0.0
10
73.9478988647461
20
65.0009994506836
40
0.0
41
0.0
42
0.0
10
74.0096969604492
20
65.0009994506836
40
0.0
41
0.0
42
0.0
10
74.0095977783203
20
65.013801574707
40
0.0
41
0.0
42
0.0
10
74.003303527832
20
65.0235977172852
40
0.0
41
0.0
42
0.0
10
73.7396011352539
20
65.5043029785156
40
0.0
41
0.0
42
0.0
10
73.8187026977539
20
65.8052978515625
40
0.0
41
0.0
42
0.0
10
73.8928985595703
20
65.9936981201172
40
0.0
41
0.0
42
0.0
10
74.0077972412109
20
66.0709991455078
40
0.0
41
0.0
42
0.0
10
74.2477035522461
20
66.2509002685547
40
0.0
41
0.0
42
0.0
10
74.4255981445312
20
66.4281997680664
40
0.0
41
0.0
42
0.0
10
74.4965972900391
20
66.4964981079102
40
0.0
41
0.0
42
0.0
10
74.7542037963867
20
66.66259765625
40
0.0
41
0.0
42
0.0
10
75.0110015869141
20
66.8034973144531
40
0.0
41
0.0
42
0.0
10
75.189697265625
20
66.8739013671875
40
0.0
41
0.0
42
0.0
10
75.4344024658203
20
67.0083999633789
40
0.0
41
0.0
42
0.0
10
75.5131988525391
20
67.0426025390625
40
0.0
41
0.0
42
0.0
10
75.7497024536133
20
67.1013031005859
40
0.0
41
0.0
42
0.0
10
76.0031967163086
20
67.1317977905273
40
0.0
41
0.0
42
0.0
10
76.1875
20
67.1164016723633
40
0.0
41
0.0
42
0.0
10
76.4845962524414
20
67.0684967041016
40
0.0
41
0.0
42
0.0
10
76.6292037963867
20
67.0263977050781
40
0.0
41
0.0
42
0.0
10
76.9876022338867
20
66.913200378418
40
0.0
41
0.0
42
0.0
10
77.1931991577148
20
66.8172988891602
40
0.0
41
0.0
42
0.0
10
77.488899230957
20
66.7036972045898
40
0.0
41
0.0
42
0.0
10
77.6473999023438
20
66.6138000488281
40
0.0
41
0.0
42
0.0
10
77.677001953125
20
66.5987014770508
40
0.0
41
0.0
42
0.0
10
77.9226989746094
20
66.4979019165039
40
0.0
41
0.0
42
0.0
10
77.939697265625
20
66.4824981689453
40
0.0
41
0.0
42
0.0
10
77.9985961914062
20
66.3832015991211
40
0.0
41
0.0
42
0.0
10
78.0654983520508
20
66.2353973388672
40
0.0
41
0.0
42
0.0
10
78.268798828125
20
65.9944000244141
40
0.0
41
0.0
42
0.0
10
78.2107009887695
20
65.7594985961914
40
0.0
41
0.0
42
0.0
10
78.1379013061523
20
65.5111999511719
40
0.0
41
0.0
42
0.0
10
77.9723968505859
20
65.2530975341797
40
0.0
41
0.0
42
0.0
10
77.7981033325195
20
65.0130996704102
40
0.0
41
0.0
42
0.0
10
77.7981033325195
20
65.0009994506836
40
0.0
41
0.0
42
0.0
10
77.8328018188477
20
65.0009002685547
40
0.0
41
0.0
42
0.0
10
77.97509765625
20
65.1968002319336
40
0.0
41
0.0
42
0.0
10
78.1623001098633
20
65.4888000488281
40
0.0
41
0.0
42
0.0
10
78.2216033935547
20
65.6903991699219
40
0.0
41
0.0
42
0.0
10
78.2938003540039
20
65.9824981689453
40
0.0
41
0.0
42
0.0
10
78.293701171875
20
66.0122985839844
40
0.0
41
0.0
42
0.0
10
78.0587005615234
20
66.2910995483398
40
0.0
41
0.0
42
0.0
10
78.0011978149414
20
66.4177017211914
40
0.0
41
0.0
42
0.0
10
77.9559020996094
20
66.4940032958984
40
0.0
41
0.0
42
0.0
10
77.9473037719727
20
66.5018997192383
40
0.0
41
0.0
42
0.0
10
77.6797027587891
20
66.6116027832031
40
0.0
41
0.0
42
0.0
10
77.5109024047852
20
66.7073974609375
40
0.0
41
0.0
42
0.0
10
77.2566986083984
20
66.8050003051758
40
0.0
41
0.0
42
0.0
10
77.0122985839844
20
66.9190979003906
40
0.0
41
0.0
42
0.0
10
76.6848983764648
20
67.0225982666016
40
0.0
41
0.0
42
0.0
10
76.5152969360352
20
67.0720977783203
40
0.0
41
0.0
42
0.0
10
76.2623977661133
20
67.1128005981445
40
0.0
41
0.0
42
0.0
10
76.0190963745117
20
67.13330078125
40
0.0
41
0.0
42
0.0
10
75.981201171875
20
67.1332015991211
40
0.0
41
0.0
42
0.0
10
75.7277984619141
20
67.1026992797852
40
0.0
41
0.0
42
0.0
10
75.6891021728516
20
67.0966033935547
40
0.0
41
0.0
42
0.0
10
75.486701965332
20
67.0464019775391
40
0.0
41
0.0
42
0.0
10
75.4009017944336
20
67.0090026855469
40
0.0
41
0.0
42
0.0
10
75.1956024169922
20
66.8962020874023
40
0.0
41
0.0
42
0.0
10
74.988899230957
20
66.8147964477539
40
0.0
41
0.0
42
0.0
10
74.6968994140625
20
66.6546020507812
40
0.0
41
0.0
42
0.0
10
74.4907989501953
20
66.5210037231445
40
0.0
41
0.0
42
0.0
10
74.4586029052734
20
66.5029983520508
40
0.0
41
0.0
42
0.0
10
74.2518997192383
20
66.2990036010742
40
0.0
41
0.0
42
0.0
10
73.9921035766602
20
66.1044998168945
40
0.0
41
0.0
42
0.0
10
73.8458023071289
20
66.0062026977539
40
0.0
41
0.0
42
0.0
10
73.7505035400391
20
65.7639007568359
40
0.0
41
0.0
42
0.0
10
73.6856994628906
20
65.5171966552734
40
0.0
41
0.0
42
0.0
10
73.6856002807617
20
65.4852981567383
40
0.0
41
0.0
42
0.0
10
73.9302978515625
20
65.0380020141602
40
0.0
41
0.0
42
0.0
10
73.9478988647461
20
65.0009994506836
40
0.0
41
0.0
42
0.0
210
0.0
220
0.0
230
1.0
0
LWPOLYLINE
5
2F
330
1C
100
AcDbEntity
67
0
8
0
62
256
6
ByLayer
370
-1
48
1.0
60
0
100
AcDbPolyline
90
15
70
1
38
0.0
39
0.0
10
74.9235992431641
20
74.554801940918
40
0.0
41
0.0
42
0.0
10
74.9838027954102
20
74.5324020385742
40
0.0
41
0.0
42
0.0
10
75.0160980224609
20
74.5323028564453
40
0.0
41
0.0
42
0.0
10
75.0761032104492
20
74.5549011230469
40
0.0
41
0.0
42
0.0
10
75.4449005126953
20
74.923698425293
40
0.0
41
0.0
42
0.0
10
75.4674987792969
20
74.9838027954102
40
0.0
41
0.0
42
0.0
10
75.467399597168
20
75.0111999511719
40
0.0
41
0.0
42
0.0
10
75.0112991333008
20
75.4674987792969
40
0.0
41
0.0
42
0.0
10
74.9886016845703
20
75.467399597168
40
0.0
41
0.0
42
0.0
10
74.8841018676758
20
75.3630981445312
40
0.0
41
0.0
42
0.0
10
74.728401184082
20
75.2496032714844
40
0.0
41
0.0
42
0.0
10
74.5324020385742
20
75.0123977661133
40
0.0
41
0.0
42
0.0
10
74.5323028564453
20
74.9837036132812
40
0.0
41
0.0
42
0.0
10
74.5549011230469
20
74.9235992431641
40
0.0
41
0.0
42
0.0
10
74.9235992431641
20
74.554801940918
40
0.0
41
0.0
42
0.0
210
0.0
220
0.0
230
1.0
0
LWPOLYLINE
5
30
330
1C
100
AcDbEntity
67
0
8
0
62
256
6
ByLayer
370
-1
48
1.0
60
0
100
AcDbPolyline
90
11
70
1
38
0.0
39
0.0
10
74.7194976806641
20
75.2003021240234
40
0.0
41
0.0
42
0.0
10
74.8513031005859
20
75.296501159668
40
0.0
41
0.0
42
0.0
10
75.0
20
75.4450988769531
40
0.0
41
0.0
42
0.0
10
75.4487991333008
20
74.9961013793945
40
0.0
41
0.0
42
0.0
10
75.4320983886719
20
74.9514999389648
40
0.0
41
0.0
42
0.0
10
75.0483016967773
20
74.5677032470703
40
0.0
41
0.0
42
0.0
10
75.0
20
74.5494995117188
40
0.0
41
0.0
42
0.0
10
74.9514999389648
20
74.5675964355469
40
0.0
41
0.0
42
0.0
10
74.5675964355469
20
74.9514999389648
40
0.0
41
0.0
42
0.0
10
74.5509033203125
20
74.9964981079102
40
0.0
41
0.0
42
0.0
10
74.7194976806641
20
75.2003021240234
40
0.0
41
0.0
42
0.0
210
0.0
220
0.0
230
1.0
0
LWPOLYLINE
5
31
330
1C
100
AcDbEntity
67
0
8
0
62
256
6
ByLayer
370
-1
48
1.0
60
0
100
AcDbPolyline
90
64
70
1
38
0.0
39
0.0
10
78.9037017822266
20
83.2768020629883
40
0.0
41
0.0
42
0.0
10
78.9564971923828
20
82.9865036010742
40
0.0
41
0.0
42
0.0
10
78.9899978637695
20
82.9166030883789
40
0.0
41
0.0
42
0.0
10
79.0552978515625
20
82.6806030273438
40
0.0
41
0.0
42
0.0
10
79.1325988769531
20
82.4880981445312
40
0.0
41
0.0
42
0.0
10
79.239501953125
20
82.2436981201172
40
0.0
41
0.0
42
0.0
10
79.3625030517578
20
81.9894027709961
40
0.0
41
0.0
42
0.0
10
79.4160003662109
20
81.888298034668
40
0.0
41
0.0
42
0.0
10
79.4975967407227
20
81.7397994995117
40
0.0
41
0.0
42
0.0
10
79.5675964355469
20
81.6454010009766
40
0.0
41
0.0
42
0.0
10
79.6694030761719
20
81.4926986694336
40
0.0
41
0.0
42
0.0
10
79.8206024169922
20
81.3192977905273
40
0.0
41
0.0
42
0.0
10
79.9919967651367
20
81.1557006835938
40
0.0
41
0.0
42
0.0
10
80.1155014038086
20
81.0903015136719
40
0.0
41
0.0
42
0.0
10
80.2457962036133
20
80.9979019165039
40
0.0
41
0.0
42
0.0
10
80.4080963134766
20
80.9128036499023
40
0.0
41
0.0
42
0.0
10
80.486198425293
20
80.8823013305664
40
0.0
41
0.0
42
0.0
10
80.690803527832
20
80.8338012695312
40
0.0
41
0.0
42
0.0
10
80.9847030639648
20
80.7326965332031
40
0.0
41
0.0
42
0.0
10
81.1890029907227
20
80.7072982788086
40
0.0
41
0.0
42
0.0
10
81.4828033447266
20
80.6270980834961
40
0.0
41
0.0
42
0.0
10
81.5192031860352
20
80.6269989013672
40
0.0
41
0.0
42
0.0
10
81.6959991455078
20
80.6405029296875
40
0.0
41
0.0
42
0.0
10
81.9825973510742
20
80.5672988891602
40
0.0
41
0.0
42
0.0
10
82.0141983032227
20
80.5671997070312
40
0.0
41
0.0
42
0.0
10
82.1751022338867
20
80.6622009277344
40
0.0
41
0.0
42
0.0
10
82.5118026733398
20
80.6997985839844
40
0.0
41
0.0
42
0.0
10
82.5817031860352
20
80.7537002563477
40
0.0
41
0.0
42
0.0
10
82.7368011474609
20
80.9888000488281
40
0.0
41
0.0
42
0.0
10
82.793098449707
20
81.1885986328125
40
0.0
41
0.0
42
0.0
10
82.8136978149414
20
81.4806976318359
40
0.0
41
0.0
42
0.0
10
82.8135986328125
20
81.5190963745117
40
0.0
41
0.0
42
0.0
10
82.7985000610352
20
81.6970977783203
40
0.0
41
0.0
42
0.0
10
82.7938995361328
20
81.8460998535156
40
0.0
41
0.0
42
0.0
10
82.7843017578125
20
81.9626998901367
40
0.0
41
0.0
42
0.0
10
82.782600402832
20
82.0174026489258
40
0.0
41
0.0
42
0.0
10
82.7268981933594
20
82.280403137207
40
0.0
41
0.0
42
0.0
10
82.6846008300781
20
82.5146026611328
40
0.0
41
0.0
42
0.0
10
82.5212020874023
20
82.9865036010742
40
0.0
41
0.0
42
0.0
10
82.5140991210938
20
83.0127029418945
40
0.0
41
0.0
42
0.0
10
82.5012969970703
20
83.0401000976562
40
0.0
41
0.0
42
0.0
10
82.2230987548828
20
83.5109024047852
40
0.0
41
0.0
42
0.0
10
82.2115020751953
20
83.5427017211914
40
0.0
41
0.0
42
0.0
10
82.0059967041016
20
83.711799621582
40
0.0
41
0.0
42
0.0
10
81.9156036376953
20
83.7962036132812
40
0.0
41
0.0
42
0.0
10
81.8053970336914
20
83.8764038085938
40
0.0
41
0.0
42
0.0
10
81.5142974853516
20
83.9634017944336
40
0.0
41
0.0
42
0.0
10
81.3759002685547
20
83.9996032714844
40
0.0
41
0.0
42
0.0
10
81.1872024536133
20
84.0528030395508
40
0.0
41
0.0
42
0.0
10
80.7529983520508
20
84.0958023071289
40
0.0
41
0.0
42
0.0
10
80.4804992675781
20
84.0962982177734
40
0.0
41
0.0
42
0.0
10
80.1747970581055
20
84.0792999267578
40
0.0
41
0.0
42
0.0
10
79.9830017089844
20
84.0622024536133
40
0.0
41
0.0
42
0.0
10
79.6771011352539
20
83.999397277832
40
0.0
41
0.0
42
0.0
10
79.5927963256836
20
83.9797973632812
40
0.0
41
0.0
42
0.0
10
79.4866027832031
20
83.9509963989258
40
0.0
41
0.0
42
0.0
10
79.3792037963867
20
83.9080963134766
40
0.0
41
0.0
42
0.0
10
79.2108993530273
20
83.7979965209961
40
0.0
41
0.0
42
0.0
10
79.0291976928711
20
83.6485977172852
40
0.0
41
0.0
42
0.0
10
78.9973983764648
20
83.6056976318359
40
0.0
41
0.0
42
0.0
10
78.9401016235352
20
83.5121994018555
40
0.0
41
0.0
42
0.0
10
78.9131011962891
20
83.3784027099609
40
0.0
41
0.0
42
0.0
10
78.9039001464844
20
83.3134994506836
40
0.0
41
0.0
42
0.0
10
78.9037017822266
20
83.2768020629883
40
0.0
41
0.0
42
0.0
210
0.0
220
0.0
230
1.0
0
LWPOLYLINE
5
32
330
1C
100
AcDbEntity
67
0
8
0
62
256
6
ByLayer
370
-1
48
1.0
60
0
100
AcDbPolyline
90
63
70
1
38
0.0
39
0.0
10
79.0025024414062
20
83.5608978271484
40
0.0
41
0.0
42
0.0
10
79.0451965332031
20
83.6184005737305
40
0.0
41
0.0
42
0.0
10
79.2076034545898
20
83.7518997192383
40
0.0
41
0.0
42
0.0
10
79.4148025512695
20
83.8871994018555
40
0.0
41
0.0
42
0.0
10
79.513298034668
20
83.9265975952148
40
0.0
41
0.0
42
0.0
10
79.6756973266602
20
83.970703125
40
0.0
41
0.0
42
0.0
10
79.8032989501953
20
84.0003967285156
40
0.0
41
0.0
42
0.0
10
80.0168991088867
20
84.0441970825195
40
0.0
41
0.0
42
0.0
10
80.1518020629883
20
84.0562973022461
40
0.0
41
0.0
42
0.0
10
80.5177001953125
20
84.0765991210938
40
0.0
41
0.0
42
0.0
10
80.6632995605469
20
84.0761032104492
40
0.0
41
0.0
42
0.0
10
81.0908966064453
20
84.0341033935547
40
0.0
41
0.0
42
0.0
10
81.2115020751953
20
84.0001983642578
40
0.0
41
0.0
42
0.0
10
81.4856033325195
20
83.9283981323242
40
0.0
41
0.0
42
0.0
10
81.736198425293
20
83.8541030883789
40
0.0
41
0.0
42
0.0
10
81.7451019287109
20
83.8505020141602
40
0.0
41
0.0
42
0.0
10
81.8845977783203
20
83.7489013671875
40
0.0
41
0.0
42
0.0
10
81.9937973022461
20
83.647102355957
40
0.0
41
0.0
42
0.0
10
82.1503982543945
20
83.5183029174805
40
0.0
41
0.0
42
0.0
10
82.1611022949219
20
83.488899230957
40
0.0
41
0.0
42
0.0
10
82.3938980102539
20
83.0948028564453
40
0.0
41
0.0
42
0.0
10
82.4664001464844
20
82.9897994995117
40
0.0
41
0.0
42
0.0
10
82.4996032714844
20
82.9045028686523
40
0.0
41
0.0
42
0.0
10
82.6447982788086
20
82.4852981567383
40
0.0
41
0.0
42
0.0
10
82.6781997680664
20
82.3002014160156
40
0.0
41
0.0
42
0.0
10
82.7453994750977
20
81.9823989868164
40
0.0
41
0.0
42
0.0
10
82.7474975585938
20
81.9140014648438
40
0.0
41
0.0
42
0.0
10
82.7557983398438
20
81.8133010864258
40
0.0
41
0.0
42
0.0
10
82.7612991333008
20
81.635498046875
40
0.0
41
0.0
42
0.0
10
82.7731018066406
20
81.4981994628906
40
0.0
41
0.0
42
0.0
10
82.7565002441406
20
81.2612991333008
40
0.0
41
0.0
42
0.0
10
82.6857986450195
20
81.011100769043
40
0.0
41
0.0
42
0.0
10
82.5567016601562
20
80.8152008056641
40
0.0
41
0.0
42
0.0
10
82.4880981445312
20
80.7623977661133
40
0.0
41
0.0
42
0.0
10
82.2197036743164
20
80.7325973510742
40
0.0
41
0.0
42
0.0
10
81.9953002929688
20
80.5998992919922
40
0.0
41
0.0
42
0.0
10
81.7622985839844
20
80.6595993041992
40
0.0
41
0.0
42
0.0
10
81.7257995605469
20
80.6595001220703
40
0.0
41
0.0
42
0.0
10
81.5092010498047
20
80.6429977416992
40
0.0
41
0.0
42
0.0
10
81.2609024047852
20
80.7108001708984
40
0.0
41
0.0
42
0.0
10
81.0151977539062
20
80.7413024902344
40
0.0
41
0.0
42
0.0
10
80.7591018676758
20
80.8294982910156
40
0.0
41
0.0
42
0.0
10
80.5137023925781
20
80.8876037597656
40
0.0
41
0.0
42
0.0
10
80.4151000976562
20
80.9261016845703
40
0.0
41
0.0
42
0.0
10
80.2704010009766
20
81.0018997192383
40
0.0
41
0.0
42
0.0
10
80.1577987670898
20
81.081901550293
40
0.0
41
0.0
42
0.0
10
80.0074996948242
20
81.1614990234375
40
0.0
41
0.0
42
0.0
10
79.8570022583008
20
81.3047027587891
40
0.0
41
0.0
42
0.0
10
79.6803970336914
20
81.5071029663086
40
0.0
41
0.0
42
0.0
10
79.5616989135742
20
81.685302734375
40
0.0
41
0.0
42
0.0
10
79.5020980834961
20
81.7655029296875
40
0.0
41
0.0
42
0.0
10
79.432502746582
20
81.8925018310547
40
0.0
41
0.0
42
0.0
10
79.370002746582
20
82.0103988647461
40
0.0
41
0.0
42
0.0
10
79.2268981933594
20
82.3060989379883
40
0.0
41
0.0
42
0.0
10
79.1369018554688
20
82.5118026733398
40
0.0
41
0.0
42
0.0
10
79.0491027832031
20
82.7309036254883
40
0.0
41
0.0
42
0.0
10
78.9997024536133
20
82.9150009155273
40
0.0
41
0.0
42
0.0
10
78.9887008666992
20
82.9512023925781
40
0.0
41
0.0
42
0.0
10
78.9589004516602
20
83.0133972167969
40
0.0
41
0.0
42
0.0
10
78.9147033691406
20
83.2568969726562
40
0.0
41
0.0
42
0.0
10
78.9235992431641
20
83.318603515625
40
0.0
41
0.0
42
0.0
10
78.9578018188477
20
83.4878005981445
40
0.0
41
0.0
42
0.0
10
79.0025024414062
20
83.5608978271484
40
0.0
41
0.0
42
0.0
210
0.0
220
0.0
230
1.0
0
LWPOLYLINE
5
33
330
1C
100
AcDbEntity
67
0
8
0
62
256
6
ByLayer
370
-1
48
1.0
60
0
100
AcDbPolyline
90
61
70
1
38
0.0
39
0.0
10
80.9869995117188
20
67.2640991210938
40
0.0
41
0.0
42
0.0
10
81.2401962280273
20
67.2435989379883
40
0.0
41
0.0
42
0.0
10
81.4822006225586
20
67.1860961914062
40
0.0
41
0.0
42
0.0
10
81.6563034057617
20
67.190299987793
40
0.0
41
0.0
42
0.0
10
81.8460998535156
20
67.2058029174805
40
0.0
41
0.0
42
0.0
10
81.9029006958008
20
67.2076034545898
40
0.0
41
0.0
42
0.0
10
82.0168991088867
20
67.2170028686523
40
0.0
41
0.0
42
0.0
10
82.280403137207
20
67.2727966308594
40
0.0
41
0.0
42
0.0
10
82.5146026611328
20
67.3151016235352
40
0.0
41
0.0
42
0.0
10
82.9865036010742
20
67.4785995483398
40
0.0
41
0.0
42
0.0
10
83.0127029418945
20
67.4857025146484
40
0.0
41
0.0
42
0.0
10
83.0401992797852
20
67.4984970092773
40
0.0
41
0.0
42
0.0
10
83.5109024047852
20
67.7766036987305
40
0.0
41
0.0
42
0.0
10
83.5427017211914
20
67.788200378418
40
0.0
41
0.0
42
0.0
10
83.8766021728516
20
68.1949996948242
40
0.0
41
0.0
42
0.0
10
83.9635009765625
20
68.4856033325195
40
0.0
41
0.0
42
0.0
10
83.9996032714844
20
68.6239013671875
40
0.0
41
0.0
42
0.0
10
84.0528030395508
20
68.8125991821289
40
0.0
41
0.0
42
0.0
10
84.0958023071289
20
69.2468032836914
40
0.0
41
0.0
42
0.0
10
84.0962982177734
20
69.519401550293
40
0.0
41
0.0
42
0.0
10
84.0792999267578
20
69.8251037597656
40
0.0
41
0.0
42
0.0
10
84.0622024536133
20
70.0168991088867
40
0.0
41
0.0
42
0.0
10
83.999397277832
20
70.3227005004883
40
0.0
41
0.0
42
0.0
10
83.9797973632812
20
70.4069976806641
40
0.0
41
0.0
42
0.0
10
83.9509963989258
20
70.513298034668
40
0.0
41
0.0
42
0.0
10
83.9079971313477
20
70.6205978393555
40
0.0
41
0.0
42
0.0
10
83.7978973388672
20
70.7888031005859
40
0.0
41
0.0
42
0.0
10
83.6484985351562
20
70.9705963134766
40
0.0
41
0.0
42
0.0
10
83.605598449707
20
71.0024032592773
40
0.0
41
0.0
42
0.0
10
83.5121994018555
20
71.0596008300781
40
0.0
41
0.0
42
0.0
10
83.3784027099609
20
71.0866012573242
40
0.0
41
0.0
42
0.0
10
83.3134002685547
20
71.0960998535156
40
0.0
41
0.0
42
0.0
10
83.2768020629883
20
71.0960006713867
40
0.0
41
0.0
42
0.0
10
82.9865036010742
20
71.0431976318359
40
0.0
41
0.0
42
0.0
10
82.9167022705078
20
71.0098037719727
40
0.0
41
0.0
42
0.0
10
82.6806030273438
20
70.9443969726562
40
0.0
41
0.0
42
0.0
10
82.4885025024414
20
70.867301940918
40
0.0
41
0.0
42
0.0
10
82.2338027954102
20
70.7440032958984
40
0.0
41
0.0
42
0.0
10
81.9890975952148
20
70.6370010375977
40
0.0
41
0.0
42
0.0
10
81.888298034668
20
70.5837020874023
40
0.0
41
0.0
42
0.0
10
81.7397994995117
20
70.502197265625
40
0.0
41
0.0
42
0.0
10
81.6455001831055
20
70.4321975708008
40
0.0
41
0.0
42
0.0
10
81.4876022338867
20
70.3259963989258
40
0.0
41
0.0
42
0.0
10
81.3193969726562
20
70.17919921875
40
0.0
41
0.0
42
0.0
10
81.1555023193359
20
70.0075988769531
40
0.0
41
0.0
42
0.0
10
81.0904006958008
20
69.8843002319336
40
0.0
41
0.0
42
0.0
10
80.9979019165039
20
69.7539978027344
40
0.0
41
0.0
42
0.0
10
80.9129028320312
20
69.5915985107422
40
0.0
41
0.0
42
0.0
10
80.8823013305664
20
69.5137023925781
40
0.0
41
0.0
42
0.0
10
80.8338012695312
20
69.3090972900391
40
0.0
41
0.0
42
0.0
10
80.7326965332031
20
69.0151977539062
40
0.0
41
0.0
42
0.0
10
80.7073974609375
20
68.8108978271484
40
0.0
41
0.0
42
0.0
10
80.6270980834961
20
68.5170974731445
40
0.0
41
0.0
42
0.0
10
80.6269989013672
20
68.4806976318359
40
0.0
41
0.0
42
0.0
10
80.6405029296875
20
68.3039016723633
40
0.0
41
0.0
42
0.0
10
80.5672988891602
20
68.0173034667969
40
0.0
41
0.0
42
0.0
10
80.5671005249023
20
67.9857025146484
40
0.0
41
0.0
42
0.0
10
80.6622009277344
20
67.8246994018555
40
0.0
41
0.0
42
0.0
10
80.6996994018555
20
67.4880981445312
40
0.0
41
0.0
42
0.0
10
80.7536010742188
20
67.4179992675781
40
0.0
41
0.0
42
0.0
10
80.9869995117188
20
67.2640991210938
40
0.0
41
0.0
42
0.0
210
0.0
220
0.0
230
1.0
0
LWPOLYLINE
5
34
330
1C
100
AcDbEntity
67
0
8
0
62
256
6
ByLayer
370
-1
48
1.0
60
0
100
AcDbPolyline
90
60
70
1
38
0.0
39
0.0
10
80.7623977661133
20
67.5118026733398
40
0.0
41
0.0
42
0.0
10
80.7325973510742
20
67.7799987792969
40
0.0
41
0.0
42
0.0
10
80.5998992919922
20
68.0046005249023
40
0.0
41
0.0
42
0.0
10
80.6595993041992
20
68.2376022338867
40
0.0
41
0.0
42
0.0
10
80.6595001220703
20
68.2741012573242
40
0.0
41
0.0
42
0.0
10
80.6429977416992
20
68.4906997680664
40
0.0
41
0.0
42
0.0
10
80.7108001708984
20
68.7389984130859
40
0.0
41
0.0
42
0.0
10
80.7414016723633
20
68.9847030639648
40
0.0
41
0.0
42
0.0
10
80.8294982910156
20
69.2407989501953
40
0.0
41
0.0
42
0.0
10
80.8876037597656
20
69.486198425293
40
0.0
41
0.0
42
0.0
10
80.9262008666992
20
69.5847015380859
40
0.0
41
0.0
42
0.0
10
81.0019989013672
20
69.7294006347656
40
0.0
41
0.0
42
0.0
10
81.081901550293
20
69.8420028686523
40
0.0
41
0.0
42
0.0
10
81.1614990234375
20
69.992301940918
40
0.0
41
0.0
42
0.0
10
81.304801940918
20
70.1427993774414
40
0.0
41
0.0
42
0.0
10
81.5072021484375
20
70.3192977905273
40
0.0
41
0.0
42
0.0
10
81.6854019165039
20
70.4380035400391
40
0.0
41
0.0
42
0.0
10
81.7656021118164
20
70.4977035522461
40
0.0
41
0.0
42
0.0
10
81.8925018310547
20
70.5671997070312
40
0.0
41
0.0
42
0.0
10
82.0108032226562
20
70.6298980712891
40
0.0
41
0.0
42
0.0
10
82.2162017822266
20
70.7197036743164
40
0.0
41
0.0
42
0.0
10
82.5114974975586
20
70.8626022338867
40
0.0
41
0.0
42
0.0
10
82.7309036254883
20
70.9505996704102
40
0.0
41
0.0
42
0.0
10
82.9150009155273
20
71.0001983642578
40
0.0
41
0.0
42
0.0
10
82.951301574707
20
71.011100769043
40
0.0
41
0.0
42
0.0
10
83.0133972167969
20
71.0408020019531
40
0.0
41
0.0
42
0.0
10
83.2568969726562
20
71.0849990844727
40
0.0
41
0.0
42
0.0
10
83.318603515625
20
71.0761032104492
40
0.0
41
0.0
42
0.0
10
83.4877014160156
20
71.0419998168945
40
0.0
41
0.0
42
0.0
10
83.5608978271484
20
70.9972991943359
40
0.0
41
0.0
42
0.0
10
83.6183013916016
20
70.9544982910156
40
0.0
41
0.0
42
0.0
10
83.7518005371094
20
70.7920989990234
40
0.0
41
0.0
42
0.0
10
83.8871994018555
20
70.5850982666016
40
0.0
41
0.0
42
0.0
10
83.9265975952148
20
70.4866027832031
40
0.0
41
0.0
42
0.0
10
83.970703125
20
70.3240966796875
40
0.0
41
0.0
42
0.0
10
84.0003967285156
20
70.1965026855469
40
0.0
41
0.0
42
0.0
10
84.0441970825195
20
69.9830017089844
40
0.0
41
0.0
42
0.0
10
84.0562973022461
20
69.8479995727539
40
0.0
41
0.0
42
0.0
10
84.0765991210938
20
69.4822006225586
40
0.0
41
0.0
42
0.0
10
84.0762023925781
20
69.3365020751953
40
0.0
41
0.0
42
0.0
10
84.0342025756836
20
68.9087982177734
40
0.0
41
0.0
42
0.0
10
84.0001983642578
20
68.788200378418
40
0.0
41
0.0
42
0.0
10
83.9284973144531
20
68.5142974853516
40
0.0
41
0.0
42
0.0
10
83.8509979248047
20
68.2548980712891
40
0.0
41
0.0
42
0.0
10
83.5184020996094
20
67.8494033813477
40
0.0
41
0.0
42
0.0
10
83.4889984130859
20
67.8386993408203
40
0.0
41
0.0
42
0.0
10
83.0949020385742
20
67.6059036254883
40
0.0
41
0.0
42
0.0
10
82.9897994995117
20
67.5333023071289
40
0.0
41
0.0
42
0.0
10
82.9045028686523
20
67.5001983642578
40
0.0
41
0.0
42
0.0
10
82.4852981567383
20
67.3548965454102
40
0.0
41
0.0
42
0.0
10
82.3002014160156
20
67.3215026855469
40
0.0
41
0.0
42
0.0
10
81.9830017089844
20
67.2544021606445
40
0.0
41
0.0
42
0.0
10
81.881103515625
20
67.2460021972656
40
0.0
41
0.0
42
0.0
10
81.8133010864258
20
67.243896484375
40
0.0
41
0.0
42
0.0
10
81.6492004394531
20
67.2304992675781
40
0.0
41
0.0
42
0.0
10
81.5131988525391
20
67.2263031005859
40
0.0
41
0.0
42
0.0
10
81.219596862793
20
67.2959976196289
40
0.0
41
0.0
42
0.0
10
81.0129013061523
20
67.3127975463867
40
0.0
41
0.0
42
0.0
10
80.8152008056641
20
67.4430999755859
40
0.0
41
0.0
42
0.0
10
80.7623977661133
20
67.5118026733398
40
0.0
41
0.0
42
0.0
210
0.0
220
0.0
230
1.0
0
LWPOLYLINE
5
35
330
1C
100
AcDbEntity
67
0
8
0
62
256
6
ByLayer
370
-1
48
1.0
60
0
100
AcDbPolyline
90
37
70
1
38
0.0
39
0.0
10
82.2763977050781
20
84.9865036010742
40
0.0
41
0.0
42
0.0
10
82.4546966552734
20
84.7309036254883
40
0.0
41
0.0
42
0.0
10
82.493896484375
20
84.6889038085938
40
0.0
41
0.0
42
0.0
10
82.6959991455078
20
84.5419006347656
40
0.0
41
0.0
42
0.0
10
82.7248992919922
20
84.5270004272461
40
0.0
41
0.0
42
0.0
10
82.7590026855469
20
84.4960021972656
40
0.0
41
0.0
42
0.0
10
82.9903030395508
20
84.3152008056641
40
0.0
41
0.0
42
0.0
10
83.2806015014648
20
84.2070999145508
40
0.0
41
0.0
42
0.0
10
83.4893035888672
20
84.0893020629883
40
0.0
41
0.0
42
0.0
10
83.6985015869141
20
83.9983978271484
40
0.0
41
0.0
42
0.0
10
83.7229995727539
20
83.9821014404297
40
0.0
41
0.0
42
0.0
10
83.988899230957
20
83.875602722168
40
0.0
41
0.0
42
0.0
10
84.0130996704102
20
83.8622970581055
40
0.0
41
0.0
42
0.0
10
84.1930999755859
20
83.782096862793
40
0.0
41
0.0
42
0.0
10
84.4881973266602
20
83.6648025512695
40
0.0
41
0.0
42
0.0
10
84.6937026977539
20
83.5708999633789
40
0.0
41
0.0
42
0.0
10
84.9845962524414
20
83.435302734375
40
0.0
41
0.0
42
0.0
10
84.9990005493164
20
83.435302734375
40
0.0
41
0.0
42
0.0
10
84.9989013671875
20
83.459602355957
40
0.0
41
0.0
42
0.0
10
84.756103515625
20
83.5730972290039
40
0.0
41
0.0
42
0.0
10
84.5117034912109
20
83.6846008300781
40
0.0
41
0.0
42
0.0
10
84.2567977905273
20
83.7862014770508
40
0.0
41
0.0
42
0.0
10
84.0389022827148
20
83.8831024169922
40
0.0
41
0.0
42
0.0
10
84.0109024047852
20
83.8985977172852
40
0.0
41
0.0
42
0.0
10
83.7889022827148
20
83.9875030517578
40
0.0
41
0.0
42
0.0
10
83.7680969238281
20
84.0014038085938
40
0.0
41
0.0
42
0.0
10
83.5105972290039
20
84.1132965087891
40
0.0
41
0.0
42
0.0
10
83.2530975341797
20
84.2585983276367
40
0.0
41
0.0
42
0.0
10
83.0094985961914
20
84.3492965698242
40
0.0
41
0.0
42
0.0
10
82.8116989135742
20
84.5037994384766
40
0.0
41
0.0
42
0.0
10
82.7861022949219
20
84.527099609375
40
0.0
41
0.0
42
0.0
10
82.7538986206055
20
84.5438003540039
40
0.0
41
0.0
42
0.0
10
82.5058975219727
20
84.7240982055664
40
0.0
41
0.0
42
0.0
10
82.4537963867188
20
84.7800979614258
40
0.0
41
0.0
42
0.0
10
82.3012008666992
20
84.9990005493164
40
0.0
41
0.0
42
0.0
10
82.276496887207
20
84.9990005493164
40
0.0
41
0.0
42
0.0
10
82.2763977050781
20
84.9865036010742
40
0.0
41
0.0
42
0.0
210
0.0
220
0.0
230
1.0
0
LWPOLYLINE
5
36
330
1C
100
AcDbEntity
67
0
8
0
62
256
6
ByLayer
370
-1
48
1.0
60
0
100
AcDbPolyline
90
72
70
1
38
0.0
39
0.0
10
82.9198989868164
20
75.7671966552734
40
0.0
41
0.0
42
0.0
10
82.9539031982422
20
75.4854965209961
40
0.0
41
0.0
42
0.0
10
82.9906997680664
20
75.4009017944336
40
0.0
41
0.0
42
0.0
10
83.1035003662109
20
75.1956024169922
40
0.0
41
0.0
42
0.0
10
83.1848983764648
20
74.988899230957
40
0.0
41
0.0
42
0.0
10
83.3451995849609
20
74.6968002319336
40
0.0
41
0.0
42
0.0
10
83.4786987304688
20
74.4907989501953
40
0.0
41
0.0
42
0.0
10
83.4970016479492
20
74.4580993652344
40
0.0
41
0.0
42
0.0
10
83.7881011962891
20
74.1362991333008
40
0.0
41
0.0
42
0.0
10
83.8953018188477
20
73.9921035766602
40
0.0
41
0.0
42
0.0
10
83.9936981201172
20
73.845703125
40
0.0
41
0.0
42
0.0
10
84.2359008789062
20
73.7503967285156
40
0.0
41
0.0
42
0.0
10
84.4826965332031
20
73.6856994628906
40
0.0
41
0.0
42
0.0
10
84.5146026611328
20
73.6856994628906
40
0.0
41
0.0
42
0.0
10
84.9195022583008
20
73.9078979492188
40
0.0
41
0.0
42
0.0
10
84.9618988037109
20
73.9303970336914
40
0.0
41
0.0
42
0.0
10
84.9990005493164
20
73.947998046875
40
0.0
41
0.0
42
0.0
10
84.9990005493164
20
74.0096969604492
40
0.0
41
0.0
42
0.0
10
84.9860992431641
20
74.0095977783203
40
0.0
41
0.0
42
0.0
10
84.9761962890625
20
74.003303527832
40
0.0
41
0.0
42
0.0
10
84.4955978393555
20
73.7396011352539
40
0.0
41
0.0
42
0.0
10
84.1946029663086
20
73.8187026977539
40
0.0
41
0.0
42
0.0
10
84.006103515625
20
73.8927993774414
40
0.0
41
0.0
42
0.0
10
83.9287033081055
20
74.0077972412109
40
0.0
41
0.0
42
0.0
10
83.8526000976562
20
74.1104965209961
40
0.0
41
0.0
42
0.0
10
83.5031967163086
20
74.4968032836914
40
0.0
41
0.0
42
0.0
10
83.3370971679688
20
74.7540969848633
40
0.0
41
0.0
42
0.0
10
83.1961975097656
20
75.0110015869141
40
0.0
41
0.0
42
0.0
10
83.1258010864258
20
75.189697265625
40
0.0
41
0.0
42
0.0
10
82.9913024902344
20
75.4344024658203
40
0.0
41
0.0
42
0.0
10
82.9564971923828
20
75.5143966674805
40
0.0
41
0.0
42
0.0
10
82.9254989624023
20
75.7714996337891
40
0.0
41
0.0
42
0.0
10
82.9173965454102
20
75.810302734375
40
0.0
41
0.0
42
0.0
10
82.869499206543
20
76.0034027099609
40
0.0
41
0.0
42
0.0
10
82.9135971069336
20
76.2774963378906
40
0.0
41
0.0
42
0.0
10
82.9309997558594
20
76.4838027954102
40
0.0
41
0.0
42
0.0
10
82.9732971191406
20
76.6293029785156
40
0.0
41
0.0
42
0.0
10
83.0861968994141
20
76.9869003295898
40
0.0
41
0.0
42
0.0
10
83.1999969482422
20
77.283203125
40
0.0
41
0.0
42
0.0
10
83.2964019775391
20
77.4896011352539
40
0.0
41
0.0
42
0.0
10
83.3859024047852
20
77.6473999023438
40
0.0
41
0.0
42
0.0
10
83.4010009765625
20
77.677001953125
40
0.0
41
0.0
42
0.0
10
83.5018997192383
20
77.9226989746094
40
0.0
41
0.0
42
0.0
10
83.5171966552734
20
77.939697265625
40
0.0
41
0.0
42
0.0
10
83.6165008544922
20
77.9985961914062
40
0.0
41
0.0
42
0.0
10
83.7642974853516
20
78.0655975341797
40
0.0
41
0.0
42
0.0
10
84.005500793457
20
78.268798828125
40
0.0
41
0.0
42
0.0
10
84.2404022216797
20
78.2107009887695
40
0.0
41
0.0
42
0.0
10
84.4887008666992
20
78.1379013061523
40
0.0
41
0.0
42
0.0
10
84.746696472168
20
77.972297668457
40
0.0
41
0.0
42
0.0
10
84.9868011474609
20
77.7981033325195
40
0.0
41
0.0
42
0.0
10
84.9990005493164
20
77.7981033325195
40
0.0
41
0.0
42
0.0
10
84.9989013671875
20
77.8327026367188
40
0.0
41
0.0
42
0.0
10
84.8031005859375
20
77.97509765625
40
0.0
41
0.0
42
0.0
10
84.511100769043
20
78.1623001098633
40
0.0
41
0.0
42
0.0
10
84.3095016479492
20
78.2214965820312
40
0.0
41
0.0
42
0.0
10
84.0174026489258
20
78.2938003540039
40
0.0
41
0.0
42
0.0
10
83.9876022338867
20
78.293701171875
40
0.0
41
0.0
42
0.0
10
83.7087020874023
20
78.0587005615234
40
0.0
41
0.0
42
0.0
10
83.5820999145508
20
78.0012969970703
40
0.0
41
0.0
42
0.0
10
83.5057983398438
20
77.9560012817383
40
0.0
41
0.0
42
0.0
10
83.4980010986328
20
77.9474029541016
40
0.0
41
0.0
42
0.0
10
83.3880996704102
20
77.679801940918
40
0.0
41
0.0
42
0.0
10
83.2919006347656
20
77.5102996826172
40
0.0
41
0.0
42
0.0
10
83.1782989501953
20
77.2667007446289
40
0.0
41
0.0
42
0.0
10
83.0809020996094
20
77.0130004882812
40
0.0
41
0.0
42
0.0
10
82.9770965576172
20
76.6849975585938
40
0.0
41
0.0
42
0.0
10
82.9279022216797
20
76.5160980224609
40
0.0
41
0.0
42
0.0
10
82.9075012207031
20
76.2723999023438
40
0.0
41
0.0
42
0.0
10
82.8666000366211
20
76.0183029174805
40
0.0
41
0.0
42
0.0
10
82.8665008544922
20
75.9824981689453
40
0.0
41
0.0
42
0.0
10
82.9198989868164
20
75.7671966552734
40
0.0
41
0.0
42
0.0
210
0.0
220
0.0
230
1.0
0
LWPOLYLINE
5
37
330
1C
100
AcDbEntity
67
0
8
0
62
256
6
ByLayer
370
-1
48
1.0
60
0
100
AcDbPolyline
90
41
70
1
38
0.0
39
0.0
10
83.4597015380859
20
65.0009994506836
40
0.0
41
0.0
42
0.0
10
83.5730972290039
20
65.2437973022461
40
0.0
41
0.0
42
0.0
10
83.684700012207
20
65.4881973266602
40
0.0
41
0.0
42
0.0
10
83.7862014770508
20
65.7431030273438
40
0.0
41
0.0
42
0.0
10
83.8832015991211
20
65.9608001708984
40
0.0
41
0.0
42
0.0
10
83.8985977172852
20
65.988899230957
40
0.0
41
0.0
42
0.0
10
83.9876022338867
20
66.2108993530273
40
0.0
41
0.0
42
0.0
10
84.0014038085938
20
66.2316970825195
40
0.0
41
0.0
42
0.0
10
84.1119995117188
20
66.4862976074219
40
0.0
41
0.0
42
0.0
10
84.122200012207
20
66.535400390625
40
0.0
41
0.0
42
0.0
10
84.2033996582031
20
66.743896484375
40
0.0
41
0.0
42
0.0
10
84.3282012939453
20
66.9705963134766
40
0.0
41
0.0
42
0.0
10
84.3523025512695
20
66.9940032958984
40
0.0
41
0.0
42
0.0
10
84.5038986206055
20
67.1880035400391
40
0.0
41
0.0
42
0.0
10
84.527099609375
20
67.2136001586914
40
0.0
41
0.0
42
0.0
10
84.5438003540039
20
67.2460021972656
40
0.0
41
0.0
42
0.0
10
84.7241973876953
20
67.493896484375
40
0.0
41
0.0
42
0.0
10
84.7800979614258
20
67.5459976196289
40
0.0
41
0.0
42
0.0
10
84.9990005493164
20
67.698600769043
40
0.0
41
0.0
42
0.0
10
84.9990005493164
20
67.7233963012695
40
0.0
41
0.0
42
0.0
10
84.9866027832031
20
67.7232971191406
40
0.0
41
0.0
42
0.0
10
84.7310028076172
20
67.5450973510742
40
0.0
41
0.0
42
0.0
10
84.6889038085938
20
67.5059967041016
40
0.0
41
0.0
42
0.0
10
84.5419998168945
20
67.3039016723633
40
0.0
41
0.0
42
0.0
10
84.527099609375
20
67.2750015258789
40
0.0
41
0.0
42
0.0
10
84.4960021972656
20
67.2407989501953
40
0.0
41
0.0
42
0.0
10
84.3124008178711
20
67.0058975219727
40
0.0
41
0.0
42
0.0
10
84.2946014404297
20
66.9885025024414
40
0.0
41
0.0
42
0.0
10
84.1941986083984
20
66.8060989379883
40
0.0
41
0.0
42
0.0
10
84.1026000976562
20
66.5711975097656
40
0.0
41
0.0
42
0.0
10
84.0905990600586
20
66.5136032104492
40
0.0
41
0.0
42
0.0
10
83.9983978271484
20
66.3013000488281
40
0.0
41
0.0
42
0.0
10
83.9821014404297
20
66.2768020629883
40
0.0
41
0.0
42
0.0
10
83.8757019042969
20
66.0110015869141
40
0.0
41
0.0
42
0.0
10
83.8622970581055
20
65.986701965332
40
0.0
41
0.0
42
0.0
10
83.782096862793
20
65.8068008422852
40
0.0
41
0.0
42
0.0
10
83.6648025512695
20
65.5117034912109
40
0.0
41
0.0
42
0.0
10
83.5708999633789
20
65.3061981201172
40
0.0
41
0.0
42
0.0
10
83.435302734375
20
65.0152969360352
40
0.0
41
0.0
42
0.0
10
83.435302734375
20
65.0009994506836
40
0.0
41
0.0
42
0.0
10
83.4597015380859
20
65.0009994506836
40
0.0
41
0.0
42
0.0
210
0.0
220
0.0
230
1.0
0
VIEWPORT
5
3C
330
38
100
AcDbEntity
67
1
8
0
62
256
6
ByLayer
370
-1
48
1.0
60
0
100
AcDbViewport
10
0.0
20
0.0
30
0.0
40
297.0
41
210.0
68
1
69
1
12
50.0
22
100.0
13
0.0
23
0.0
14
10.0
24
10.0
15
10.0
25
10.0
16
0.0
26
0.0
36
1.0
17
0.0
27
0.0
37
0.0
42
50.0
43
0.0
44
0.0
45
250.0
50
0.0
51
0.0
72
1000
90
819232
110
0.0
120
0.0
130
0.0
111
1.0
121
0.0
131
0.0
112
0.0
122
1.0
132
0.0
0
ENDSEC
0
SECTION
2
OBJECTS
0
DICTIONARY
5
42
330
0
100
AcDbDictionary
280
1
281
1
3
ACAD_GROUP
350
12
3
ACAD_LAYOUT
350
3B
3
ACAD_DGNDEFINITIONS
350
F
3
ACAD_DWFDEFINITIONS
350
10
3
ACAD_PDFDEFINITIONS
350
11
3
ACAD_MLINESTYLE
350
B
3
ACAD_IMAGE_DICT
350
E
3
ACAD_IMAGE_VARS
350
21
0
DICTIONARY
5
12
330
42
100
AcDbDictionary
280
1
281
1
0
DICTIONARY
5
3B
330
42
100
AcDbDictionary
280
1
281
1
3
Model
350
20
3
Layout1
350
3D
0
DICTIONARY
5
F
330
42
100
AcDbDictionary
280
1
281
1
0
DICTIONARY
5
10
330
42
100
AcDbDictionary
280
1
281
1
0
DICTIONARY
5
11
330
42
100
AcDbDictionary
280
1
281
1
0
DICTIONARY
5
B
330
42
100
AcDbDictionary
280
1
281
1
3
Standard
350
1B
0
DICTIONARY
5
E
330
42
100
AcDbDictionary
280
1
281
1
0
DICTIONARY
5
6
330
5
100
AcDbDictionary
280
1
281
1
3
ACAD_LAYERSTATES
360
43
0
DICTIONARY
5
43
330
6
100
AcDbDictionary
280
1
281
1
0
LAYOUT
5
20
330
3B
100
AcDbPlotSettings
1

2
none_device
4
ISO_A4_(210.00_x_297.00_MM)
6

40
7.5
41
20.0
42
7.5
43
20.0
44
210.0
45
297.0
46
0.0
47
0.0
48
0.0
49
0.0
140
0.0
141
0.0
142
1.0
143
1.0
70
11952
72
1
73
1
74
1
7

75
0
76
0
77
2
78
300
147
1.0
148
0.0
149
0.0
100
AcDbLayout
1
Model
71
0
10
-20.0
20
-7.5
11
277.0
21
202.5
12
0.0
22
0.0
32
0.0
14
25.7
24
19.5
34
0.0
15
231.3
25
175.5
35
0.0
146
0.0
13
0.0
23
0.0
33
0.0
16
1.0
26
0.0
36
0.0
17
0.0
27
1.0
37
0.0
76
0
330
1C
0
LAYOUT
5
3D
330
3B
100
AcDbPlotSettings
1

2
none_device
4
ISO_A4_(210.00_x_297.00_MM)
6

40
7.5
41
20.0
42
7.5
43
20.0
44
210.0
45
297.0
46
0.0
47
0.0
48
0.0
49
0.0
140
0.0
141
0.0
142
1.0
143
1.0
70
688
72
1
73
1
74
1
7

75
0
76
0
77
2
78
300
147
1.0
148
0.0
149
0.0
100
AcDbLayout
1
Layout1
71
1
10
-20.0
20
-7.5
11
277.0
21
202.5
12
0.0
22
0.0
32
0.0
14
25.7
24
19.5
34
0.0
15
231.3
25
175.5
35
0.0
146
0.0
13
0.0
23
0.0
33
0.0
16
1.0
26
0.0
36
0.0
17
0.0
27
1.0
37
0.0
76
0
330
38
0
MLINESTYLE
5
1B
330
B
100
AcDbMlineStyle
2
Standard
70
0
3

62
256
51
90.0
52
90.0
71
2
49
0.5
62
256
6
ByLayer
49
-0.5
62
256
6
ByLayer
0
RASTERVARIABLES
5
21
330
E
100
AcDbRasterVariables
90
0
70
1
71
1
72
0
0
ENDSEC
0
EOF
