999
DXF file generated by netDxf https://github.com/haplokuon/netDxf, Copyright(C) Daniel Carvajal, Licensed under MIT
0
SECTION
2
HEADER
9
$ACADVER
1
AC1015
9
$DWGCODEPAGE
3
ANSI_1252
9
$HANDSEED
5
3A
9
$ANGBASE
50
0.0
9
$ANGDIR
70
0
9
$ATTMODE
70
1
9
$AUNITS
70
0
9
$AUPREC
70
0
9
$CECOLOR
62
256
9
$CELTSCALE
40
1.0
9
$CELTYPE
6
ByLayer
9
$CELWEIGHT
370
-1
9
$CLAYER
8
0
9
$CMLJUST
70
0
9
$CMLSCALE
40
20.0
9
$CMLSTYLE
2
Standard
9
$DIMSTYLE
2
Standard
9
$TEXTSIZE
40
2.5
9
$TEXTSTYLE
7
Standard
9
$LUNITS
70
2
9
$LUPREC
70
4
9
$MIRRTEXT
70
0
9
$EXTNAMES
290
1
9
$INSBASE
10
0.0
20
0.0
30
0.0
9
$INSUNITS
70
0
9
$LTSCALE
40
1.0
9
$LWDISPLAY
290
0
9
$PDMODE
70
0
9
$PDSIZE
40
0.0
9
$PLINEGEN
70
0
9
$PSLTSCALE
70
1
9
$SPLINESEGS
70
8
9
$SURFU
70
6
9
$SURFV
70
6
9
$TDCREATE
40
2460823.48364635
9
$TDUCREATE
40
2460823.15031302
9
$TDUPDATE
40
2460823.48364635
9
$TDUUPDATE
40
2460823.15031302
9
$TDINDWG
40
0.0
9
$UCSORG
10
0.0
20
0.0
30
0.0
9
$UCSXDIR
10
1.0
20
0.0
30
0.0
9
$UCSYDIR
10
0.0
20
1.0
30
0.0
9
$DIMADEC
70
0
9
$DIMALT
70
0
9
$DIMALTD
70
2
9
$DIMALTF
40
25.4
9
$DIMALTRND
40
0.0
9
$DIMALTTD
70
2
9
$DIMALTTZ
70
0
9
$DIMALTU
70
2
9
$DIMALTZ
70
0
9
$DIMAPOST
1

9
$DIMATFIT
70
3
9
$DIMAUNIT
70
0
9
$DIMASZ
40
0.18
9
$DIMAZIN
70
0
9
$DIMSAH
70
0
9
$DIMBLK
1

9
$DIMLDRBLK
1

9
$DIMCEN
40
0.09
9
$DIMCLRD
70
0
9
$DIMCLRE
70
0
9
$DIMCLRT
70
0
9
$DIMDEC
70
4
9
$DIMDLE
40
0.0
9
$DIMDLI
40
0.38
9
$DIMDSEP
70
46
9
$DIMEXE
40
0.18
9
$DIMEXO
40
0.0625
9
$DIMFXLON
70
0
9
$DIMFXL
40
1.0
9
$DIMGAP
40
0.09
9
$DIMJUST
70
0
9
$DIMLFAC
40
1.0
9
$DIMLUNIT
70
2
9
$DIMLWD
70
-2
9
$DIMLWE
70
-2
9
$DIMPOST
1

9
$DIMRND
40
0.0
9
$DIMSCALE
40
1.0
9
$DIMSD1
70
0
9
$DIMSD2
70
0
9
$DIMSE1
70
0
9
$DIMSE2
70
0
9
$DIMSOXD
70
0
9
$DIMTAD
70
0
9
$DIMTDEC
70
4
9
$DIMTFAC
40
1.0
9
$DIMTIH
70
0
9
$DIMTIX
70
0
9
$DIMTM
40
0.0
9
$DIMTMOVE
70
0
9
$DIMTOFL
70
0
9
$DIMTOH
70
0
9
$DIMTOL
70
0
9
$DIMLIM
70
0
9
$DIMTOLJ
70
1
9
$DIMTP
40
0.0
9
$DIMTXT
40
0.18
9
$DIMTXTDIRECTION
70
0
9
$DIMTZIN
70
0
9
$DIMZIN
70
0
9
$DIMFRAC
70
0
9
$DIMLTYPE
6
ByBlock
9
$DIMLTEX1
6
ByBlock
9
$DIMLTEX2
6
ByBlock
0
ENDSEC
0
SECTION
2
CLASSES
0
CLASS
1
RASTERVARIABLES
2
AcDbRasterVariables
3
ISM
90
0
280
0
281
0
0
ENDSEC
0
SECTION
2
TABLES
0
TABLE
2
APPID
5
4
330
0
100
AcDbSymbolTable
70
5
0
APPID
5
19
330
4
100
AcDbSymbolTableRecord
100
AcDbRegAppTableRecord
2
ACAD
70
0
0
APPID
5
34
330
4
100
AcDbSymbolTableRecord
100
AcDbRegAppTableRecord
2
AcCmTransparency
70
0
0
APPID
5
35
330
4
100
AcDbSymbolTableRecord
100
AcDbRegAppTableRecord
2
AcAecLayerStandard
70
0
0
APPID
5
36
330
4
100
AcDbSymbolTableRecord
100
AcDbRegAppTableRecord
2
GradientColor1ACI
70
0
0
APPID
5
37
330
4
100
AcDbSymbolTableRecord
100
AcDbRegAppTableRecord
2
GradientColor2ACI
70
0
0
ENDTAB
0
TABLE
2
VPORT
5
1
330
0
100
AcDbSymbolTable
70
1
0
VPORT
5
2
330
1
100
AcDbSymbolTableRecord
100
AcDbViewportTableRecord
2
*Active
70
0
10
0.0
20
0.0
11
1.0
21
1.0
12
0.0
22
0.0
13
0.0
23
0.0
14
0.5
24
0.5
15
10.0
25
10.0
16
0.0
26
0.0
36
1.0
17
0.0
27
0.0
37
0.0
40
10.0
41
1.0
75
0
76
1
0
ENDTAB
0
TABLE
2
LTYPE
5
7
330
0
100
AcDbSymbolTable
70
3
0
LTYPE
5
15
330
7
100
AcDbSymbolTableRecord
100
AcDbLinetypeTableRecord
2
Continuous
70
0
3
Solid line
72
65
73
0
40
0.0
0
LTYPE
5
16
330
7
100
AcDbSymbolTableRecord
100
AcDbLinetypeTableRecord
2
ByLayer
70
0
3

72
65
73
0
40
0.0
0
LTYPE
5
17
330
7
100
AcDbSymbolTableRecord
100
AcDbLinetypeTableRecord
2
ByBlock
70
0
3

72
65
73
0
40
0.0
0
ENDTAB
0
TABLE
2
LAYER
5
5
102
{ACAD_XDICTIONARY
360
6
102
}
330
0
100
AcDbSymbolTable
70
1
0
LAYER
5
14
330
5
100
AcDbSymbolTableRecord
100
AcDbLayerTableRecord
2
0
70
0
62
7
6
Continuous
290
1
370
-3
390
0
0
ENDTAB
0
TABLE
2
STYLE
5
8
330
0
100
AcDbSymbolTable
70
1
0
STYLE
5
18
330
8
100
AcDbSymbolTableRecord
100
AcDbTextStyleTableRecord
2
Standard
3
simplex.shx
70
0
71
0
40
0.0
41
1.0
42
0.0
50
0.0
0
ENDTAB
0
TABLE
2
DIMSTYLE
5
A
330
0
100
AcDbSymbolTable
70
1
100
AcDbDimStyleTable
0
DIMSTYLE
105
1A
330
A
100
AcDbSymbolTableRecord
100
AcDbDimStyleTableRecord
2
Standard
3

4

40
1.0
41
0.18
42
0.0625
43
0.38
44
0.18
45
0.0
46
0.0
47
0.0
48
0.0
49
1.0
70
0
71
0
72
0
73
0
74
0
75
0
76
0
77
0
78
0
79
0
140
0.18
141
0.09
143
25.4
144
1.0
146
1.0
147
0.09
148
0.0
170
0
171
2
172
0
174
0
175
0
176
0
177
0
178
0
179
0
271
4
272
4
273
2
274
2
275
0
276
0
277
2
278
46
279
0
280
0
281
0
282
0
283
1
284
0
285
0
286
0
289
3
290
0
294
0
340
18
173
0
345
17
346
17
347
17
371
-2
372
-2
0
ENDTAB
0
TABLE
2
VIEW
5
3
330
0
100
AcDbSymbolTable
70
0
0
ENDTAB
0
TABLE
2
UCS
5
C
330
0
100
AcDbSymbolTable
70
0
0
ENDTAB
0
TABLE
2
BLOCK_RECORD
5
D
330
0
100
AcDbSymbolTable
70
2
0
BLOCK_RECORD
5
1C
330
D
100
AcDbSymbolTableRecord
100
AcDbBlockTableRecord
2
*Model_Space
340
20
0
BLOCK_RECORD
5
2E
330
D
100
AcDbSymbolTableRecord
100
AcDbBlockTableRecord
2
*Paper_Space
340
33
0
ENDTAB
0
ENDSEC
0
SECTION
2
BLOCKS
0
BLOCK
5
1E
330
1C
100
AcDbEntity
67
0
8
0
100
AcDbBlockBegin
2
*Model_Space
70
0
10
0.0
20
0.0
30
0.0
3
*Model_Space
4

0
ENDBLK
5
1D
330
1C
100
AcDbEntity
8
0
100
AcDbBlockEnd
0
BLOCK
5
30
330
2E
100
AcDbEntity
67
1
8
0
100
AcDbBlockBegin
2
*Paper_Space
70
0
10
0.0
20
0.0
30
0.0
3
*Paper_Space
4

0
ENDBLK
5
2F
330
2E
100
AcDbEntity
8
0
100
AcDbBlockEnd
0
ENDSEC
0
SECTION
2
ENTITIES
0
LWPOLYLINE
5
22
330
1C
100
AcDbEntity
67
0
8
0
62
256
6
ByLayer
370
-1
48
1.0
60
0
100
AcDbPolyline
90
29
70
1
38
0.0
39
0.0
10
65.1533966064453
20
65.559700012207
40
0.0
41
0.0
42
0.0
10
65.1912002563477
20
65.5596008300781
40
0.0
41
0.0
42
0.0
10
65.4981994628906
20
65.6140975952148
40
0.0
41
0.0
42
0.0
10
65.8264999389648
20
65.5410995483398
40
0.0
41
0.0
42
0.0
10
65.9832992553711
20
65.5394973754883
40
0.0
41
0.0
42
0.0
10
66.1079025268555
20
65.4998016357422
40
0.0
41
0.0
42
0.0
10
66.3305969238281
20
65.423698425293
40
0.0
41
0.0
42
0.0
10
66.4850997924805
20
65.3895034790039
40
0.0
41
0.0
42
0.0
10
66.611701965332
20
65.3527984619141
40
0.0
41
0.0
42
0.0
10
66.9873962402344
20
65.2068023681641
40
0.0
41
0.0
42
0.0
10
67.1032028198242
20
65.1639022827148
40
0.0
41
0.0
42
0.0
10
67.4403991699219
20
65.0009994506836
40
0.0
41
0.0
42
0.0
10
67.4692993164062
20
65.0009994506836
40
0.0
41
0.0
42
0.0
10
67.4691009521484
20
65.0066986083984
40
0.0
41
0.0
42
0.0
10
67.1667022705078
20
65.1532974243164
40
0.0
41
0.0
42
0.0
10
67.0124969482422
20
65.2105026245117
40
0.0
41
0.0
42
0.0
10
66.668098449707
20
65.3443984985352
40
0.0
41
0.0
42
0.0
10
66.5147018432617
20
65.3898010253906
40
0.0
41
0.0
42
0.0
10
66.399299621582
20
65.415397644043
40
0.0
41
0.0
42
0.0
10
66.1510009765625
20
65.4999008178711
40
0.0
41
0.0
42
0.0
10
66.0166015625
20
65.5427017211914
40
0.0
41
0.0
42
0.0
10
65.9018020629883
20
65.5439987182617
40
0.0
41
0.0
42
0.0
10
65.5176010131836
20
65.6295013427734
40
0.0
41
0.0
42
0.0
10
65.4817962646484
20
65.6294021606445
40
0.0
41
0.0
42
0.0
10
65.2455978393555
20
65.5875015258789
40
0.0
41
0.0
42
0.0
10
65.0195999145508
20
65.5954971313477
40
0.0
41
0.0
42
0.0
10
65.0009994506836
20
65.5954971313477
40
0.0
41
0.0
42
0.0
10
65.0009002685547
20
65.5650024414062
40
0.0
41
0.0
42
0.0
10
65.1533966064453
20
65.559700012207
40
0.0
41
0.0
42
0.0
210
0.0
220
0.0
230
1.0
0
LWPOLYLINE
5
23
330
1C
100
AcDbEntity
67
0
8
0
62
256
6
ByLayer
370
-1
48
1.0
60
0
100
AcDbPolyline
90
29
70
1
38
0.0
39
0.0
10
65.0066986083984
20
82.5306015014648
40
0.0
41
0.0
42
0.0
10
65.1532974243164
20
82.8331985473633
40
0.0
41
0.0
42
0.0
10
65.2105026245117
20
82.9873962402344
40
0.0
41
0.0
42
0.0
10
65.3443984985352
20
83.3318023681641
40
0.0
41
0.0
42
0.0
10
65.3895034790039
20
83.484001159668
40
0.0
41
0.0
42
0.0
10
65.415397644043
20
83.6006011962891
40
0.0
41
0.0
42
0.0
10
65.4999008178711
20
83.8488006591797
40
0.0
41
0.0
42
0.0
10
65.5427017211914
20
83.9832992553711
40
0.0
41
0.0
42
0.0
10
65.5439987182617
20
84.0979995727539
40
0.0
41
0.0
42
0.0
10
65.6295013427734
20
84.4822998046875
40
0.0
41
0.0
42
0.0
10
65.6294021606445
20
84.5180969238281
40
0.0
41
0.0
42
0.0
10
65.5875015258789
20
84.7543029785156
40
0.0
41
0.0
42
0.0
10
65.5954971313477
20
84.9803009033203
40
0.0
41
0.0
42
0.0
10
65.5954971313477
20
84.9990005493164
40
0.0
41
0.0
42
0.0
10
65.5650024414062
20
84.9990005493164
40
0.0
41
0.0
42
0.0
10
65.559700012207
20
84.8463973999023
40
0.0
41
0.0
42
0.0
10
65.5596008300781
20
84.8086013793945
40
0.0
41
0.0
42
0.0
10
65.6141967773438
20
84.5017013549805
40
0.0
41
0.0
42
0.0
10
65.5410995483398
20
84.1733016967773
40
0.0
41
0.0
42
0.0
10
65.5394973754883
20
84.0166015625
40
0.0
41
0.0
42
0.0
10
65.4999008178711
20
83.8918991088867
40
0.0
41
0.0
42
0.0
10
65.423698425293
20
83.6692962646484
40
0.0
41
0.0
42
0.0
10
65.3896026611328
20
83.5148010253906
40
0.0
41
0.0
42
0.0
10
65.3527984619141
20
83.3881988525391
40
0.0
41
0.0
42
0.0
10
65.2068023681641
20
83.0124969482422
40
0.0
41
0.0
42
0.0
10
65.1639022827148
20
82.8966979980469
40
0.0
41
0.0
42
0.0
10
65.0009994506836
20
82.5594024658203
40
0.0
41
0.0
42
0.0
10
65.0009994506836
20
82.5306015014648
40
0.0
41
0.0
42
0.0
10
65.0066986083984
20
82.5306015014648
40
0.0
41
0.0
42
0.0
210
0.0
220
0.0
230
1.0
0
LWPOLYLINE
5
24
330
1C
100
AcDbEntity
67
0
8
0
62
256
6
ByLayer
370
-1
48
1.0
60
0
100
AcDbPolyline
90
432
70
1
38
0.0
39
0.0
10
65.1939010620117
20
73.3675994873047
40
0.0
41
0.0
42
0.0
10
65.2605972290039
20
72.9868011474609
40
0.0
41
0.0
42
0.0
10
65.4597015380859
20
72.6120986938477
40
0.0
41
0.0
42
0.0
10
65.5096969604492
20
72.497802734375
40
0.0
41
0.0
42
0.0
10
65.5130996704102
20
72.4921035766602
40
0.0
41
0.0
42
0.0
10
65.6047973632812
20
72.3785018920898
40
0.0
41
0.0
42
0.0
10
65.6395034790039
20
72.3393020629883
40
0.0
41
0.0
42
0.0
10
65.9801025390625
20
71.9951019287109
40
0.0
41
0.0
42
0.0
10
65.992301940918
20
71.9841003417969
40
0.0
41
0.0
42
0.0
10
66.3365020751953
20
71.7890014648438
40
0.0
41
0.0
42
0.0
10
66.488899230957
20
71.6726989746094
40
0.0
41
0.0
42
0.0
10
66.8320007324219
20
71.6001968383789
40
0.0
41
0.0
42
0.0
10
66.8805999755859
20
71.5755996704102
40
0.0
41
0.0
42
0.0
10
66.9860992431641
20
71.5085983276367
40
0.0
41
0.0
42
0.0
10
67.0164031982422
20
71.5085983276367
40
0.0
41
0.0
42
0.0
10
67.0490036010742
20
71.5198974609375
40
0.0
41
0.0
42
0.0
10
67.5099029541016
20
71.5781021118164
40
0.0
41
0.0
42
0.0
10
67.5608978271484
20
71.6317977905273
40
0.0
41
0.0
42
0.0
10
67.9841003417969
20
71.973503112793
40
0.0
41
0.0
42
0.0
10
68.0055999755859
20
71.989501953125
40
0.0
41
0.0
42
0.0
10
68.4456024169922
20
72.4940032958984
40
0.0
41
0.0
42
0.0
10
68.5064010620117
20
72.559700012207
40
0.0
41
0.0
42
0.0
10
68.5373001098633
20
72.5796966552734
40
0.0
41
0.0
42
0.0
10
68.7253036499023
20
72.714599609375
40
0.0
41
0.0
42
0.0
10
69.0093002319336
20
72.9352035522461
40
0.0
41
0.0
42
0.0
10
69.1623001098633
20
72.9999008178711
40
0.0
41
0.0
42
0.0
10
69.5037002563477
20
73.0833969116211
40
0.0
41
0.0
42
0.0
10
69.6694030761719
20
73.0581970214844
40
0.0
41
0.0
42
0.0
10
69.7064971923828
20
73.0580978393555
40
0.0
41
0.0
42
0.0
10
70.0160980224609
20
73.0947036743164
40
0.0
41
0.0
42
0.0
10
70.1528015136719
20
73.1298980712891
40
0.0
41
0.0
42
0.0
10
70.4817962646484
20
73.0727996826172
40
0.0
41
0.0
42
0.0
10
70.5173034667969
20
73.0727005004883
40
0.0
41
0.0
42
0.0
10
70.6210021972656
20
73.0992965698242
40
0.0
41
0.0
42
0.0
10
70.981201171875
20
73.057502746582
40
0.0
41
0.0
42
0.0
10
71.0157012939453
20
73.0574035644531
40
0.0
41
0.0
42
0.0
10
71.1276016235352
20
73.1043014526367
40
0.0
41
0.0
42
0.0
10
71.4804000854492
20
73.0903015136719
40
0.0
41
0.0
42
0.0
10
71.5134963989258
20
73.090202331543
40
0.0
41
0.0
42
0.0
10
71.7922973632812
20
73.2798004150391
40
0.0
41
0.0
42
0.0
10
71.9851989746094
20
73.2773971557617
40
0.0
41
0.0
42
0.0
10
72.4573974609375
20
73.0282974243164
40
0.0
41
0.0
42
0.0
10
72.4711990356445
20
73.0287017822266
40
0.0
41
0.0
42
0.0
10
72.4713973999023
20
73.040397644043
40
0.0
41
0.0
42
0.0
10
72.2074966430664
20
73.3889999389648
40
0.0
41
0.0
42
0.0
10
72.1121978759766
20
73.4988021850586
40
0.0
41
0.0
42
0.0
10
72.2951965332031
20
73.6120986938477
40
0.0
41
0.0
42
0.0
10
72.5046005249023
20
73.7838973999023
40
0.0
41
0.0
42
0.0
10
72.6606979370117
20
73.9932022094727
40
0.0
41
0.0
42
0.0
10
72.6760025024414
20
74.0103988647461
40
0.0
41
0.0
42
0.0
10
72.8948974609375
20
74.1586990356445
40
0.0
41
0.0
42
0.0
10
73.0149002075195
20
74.2089996337891
40
0.0
41
0.0
42
0.0
10
73.1315002441406
20
74.2189025878906
40
0.0
41
0.0
42
0.0
10
73.1695022583008
20
74.2285003662109
40
0.0
41
0.0
42
0.0
10
73.4952011108398
20
74.3233032226562
40
0.0
41
0.0
42
0.0
10
73.5960006713867
20
74.2415008544922
40
0.0
41
0.0
42
0.0
10
73.8591003417969
20
73.9977035522461
40
0.0
41
0.0
42
0.0
10
73.8012008666992
20
73.8926010131836
40
0.0
41
0.0
42
0.0
10
73.6723022460938
20
73.7508010864258
40
0.0
41
0.0
42
0.0
10
73.4935989379883
20
73.5477981567383
40
0.0
41
0.0
42
0.0
10
73.4189987182617
20
73.5027008056641
40
0.0
41
0.0
42
0.0
10
73.3786010742188
20
73.4703979492188
40
0.0
41
0.0
42
0.0
10
73.2845001220703
20
73.3877029418945
40
0.0
41
0.0
42
0.0
10
73.0128021240234
20
73.2325973510742
40
0.0
41
0.0
42
0.0
10
72.9897994995117
20
73.2180023193359
40
0.0
41
0.0
42
0.0
10
72.4971008300781
20
73.0011978149414
40
0.0
41
0.0
42
0.0
10
72.4729995727539
20
72.9843978881836
40
0.0
41
0.0
42
0.0
10
71.9841003417969
20
72.7866973876953
40
0.0
41
0.0
42
0.0
10
71.7158966064453
20
72.7842025756836
40
0.0
41
0.0
42
0.0
10
71.7160034179688
20
72.7683029174805
40
0.0
41
0.0
42
0.0
10
71.7317962646484
20
72.7211990356445
40
0.0
41
0.0
42
0.0
10
71.7892990112305
20
72.5052032470703
40
0.0
41
0.0
42
0.0
10
71.6992034912109
20
72.4247970581055
40
0.0
41
0.0
42
0.0
10
71.6666030883789
20
72.3932037353516
40
0.0
41
0.0
42
0.0
10
71.5785980224609
20
72.1641006469727
40
0.0
41
0.0
42
0.0
10
71.5244979858398
20
72.0099029541016
40
0.0
41
0.0
42
0.0
10
71.497200012207
20
71.9738998413086
40
0.0
41
0.0
42
0.0
10
71.4518966674805
20
71.9039001464844
40
0.0
41
0.0
42
0.0
10
71.4440002441406
20
71.8946990966797
40
0.0
41
0.0
42
0.0
10
71.3258972167969
20
71.5099029541016
40
0.0
41
0.0
42
0.0
10
71.2323989868164
20
71.393798828125
40
0.0
41
0.0
42
0.0
10
71.2154998779297
20
71.3576965332031
40
0.0
41
0.0
42
0.0
10
71.1220016479492
20
71.0095977783203
40
0.0
41
0.0
42
0.0
10
71.1043014526367
20
70.9900970458984
40
0.0
41
0.0
42
0.0
10
70.9974975585938
20
70.697998046875
40
0.0
41
0.0
42
0.0
10
70.8408966064453
20
70.5828018188477
40
0.0
41
0.0
42
0.0
10
70.8095016479492
20
70.5285034179688
40
0.0
41
0.0
42
0.0
10
70.7805023193359
20
70.5044021606445
40
0.0
41
0.0
42
0.0
10
70.4921035766602
20
70.222297668457
40
0.0
41
0.0
42
0.0
10
70.4129028320312
20
70.1854019165039
40
0.0
41
0.0
42
0.0
10
70.3544006347656
20
70.1557006835938
40
0.0
41
0.0
42
0.0
10
69.986701965332
20
70.0129013061523
40
0.0
41
0.0
42
0.0
10
69.486198425293
20
69.8656005859375
40
0.0
41
0.0
42
0.0
10
68.9886016845703
20
69.7017974853516
40
0.0
41
0.0
42
0.0
10
68.927001953125
20
69.665901184082
40
0.0
41
0.0
42
0.0
10
68.9113998413086
20
69.6585006713867
40
0.0
41
0.0
42
0.0
10
68.8125991821289
20
69.5122985839844
40
0.0
41
0.0
42
0.0
10
68.7920989990234
20
69.3591995239258
40
0.0
41
0.0
42
0.0
10
68.5206985473633
20
69.0127029418945
40
0.0
41
0.0
42
0.0
10
68.5205993652344
20
68.9807968139648
40
0.0
41
0.0
42
0.0
10
68.5280990600586
20
68.8878021240234
40
0.0
41
0.0
42
0.0
10
68.5055999755859
20
68.6849975585938
40
0.0
41
0.0
42
0.0
10
68.5007019042969
20
68.6537017822266
40
0.0
41
0.0
42
0.0
10
68.4869003295898
20
68.5188980102539
40
0.0
41
0.0
42
0.0
10
68.4868011474609
20
68.4813995361328
40
0.0
41
0.0
42
0.0
10
68.5182037353516
20
68.253303527832
40
0.0
41
0.0
42
0.0
10
68.5419998168945
20
68.0989990234375
40
0.0
41
0.0
42
0.0
10
68.5690002441406
20
67.9863967895508
40
0.0
41
0.0
42
0.0
10
68.6158981323242
20
67.8727035522461
40
0.0
41
0.0
42
0.0
10
68.7648010253906
20
67.4896011352539
40
0.0
41
0.0
42
0.0
10
68.9751968383789
20
67.1707000732422
40
0.0
41
0.0
42
0.0
10
68.9971008300781
20
67.133903503418
40
0.0
41
0.0
42
0.0
10
69.0596008300781
20
67.0586013793945
40
0.0
41
0.0
42
0.0
10
69.1210021972656
20
66.9957962036133
40
0.0
41
0.0
42
0.0
10
69.4421005249023
20
66.7630004882812
40
0.0
41
0.0
42
0.0
10
69.4915008544922
20
66.7198028564453
40
0.0
41
0.0
42
0.0
10
69.6026992797852
20
66.6679000854492
40
0.0
41
0.0
42
0.0
10
69.9850997924805
20
66.5401992797852
40
0.0
41
0.0
42
0.0
10
70.075798034668
20
66.5239028930664
40
0.0
41
0.0
42
0.0
10
70.4532012939453
20
66.4963989257812
40
0.0
41
0.0
42
0.0
10
70.4813995361328
20
66.4917984008789
40
0.0
41
0.0
42
0.0
10
70.5068969726562
20
66.4922027587891
40
0.0
41
0.0
42
0.0
10
70.4956970214844
20
66.4941024780273
40
0.0
41
0.0
42
0.0
10
70.1428985595703
20
66.5196990966797
40
0.0
41
0.0
42
0.0
10
70.0147018432617
20
66.5428009033203
40
0.0
41
0.0
42
0.0
10
69.6670989990234
20
66.6586990356445
40
0.0
41
0.0
42
0.0
10
69.50830078125
20
66.7330017089844
40
0.0
41
0.0
42
0.0
10
69.4383010864258
20
66.7942962646484
40
0.0
41
0.0
42
0.0
10
69.1492004394531
20
67.0038986206055
40
0.0
41
0.0
42
0.0
10
69.0907974243164
20
67.0636978149414
40
0.0
41
0.0
42
0.0
10
69.0027008056641
20
67.1697006225586
40
0.0
41
0.0
42
0.0
10
68.9718017578125
20
67.2217025756836
40
0.0
41
0.0
42
0.0
10
68.7813034057617
20
67.5102005004883
40
0.0
41
0.0
42
0.0
10
68.6464996337891
20
67.8571014404297
40
0.0
41
0.0
42
0.0
10
68.5820007324219
20
68.0133972167969
40
0.0
41
0.0
42
0.0
10
68.5444030761719
20
68.1708984375
40
0.0
41
0.0
42
0.0
10
68.5227966308594
20
68.3110961914062
40
0.0
41
0.0
42
0.0
10
68.4968032836914
20
68.502799987793
40
0.0
41
0.0
42
0.0
10
68.5328979492188
20
68.8261032104492
40
0.0
41
0.0
42
0.0
10
68.5327987670898
20
68.8640975952148
40
0.0
41
0.0
42
0.0
10
68.5226974487305
20
68.9901962280273
40
0.0
41
0.0
42
0.0
10
68.7949981689453
20
69.3376998901367
40
0.0
41
0.0
42
0.0
10
68.8210983276367
20
69.3731002807617
40
0.0
41
0.0
42
0.0
10
68.8365020751953
20
69.4876022338867
40
0.0
41
0.0
42
0.0
10
68.9203033447266
20
69.6113967895508
40
0.0
41
0.0
42
0.0
10
68.9394989013672
20
69.6204986572266
40
0.0
41
0.0
42
0.0
10
69.0112991333008
20
69.6623992919922
40
0.0
41
0.0
42
0.0
10
69.5137023925781
20
69.8283996582031
40
0.0
41
0.0
42
0.0
10
69.9188995361328
20
69.9468994140625
40
0.0
41
0.0
42
0.0
10
70.0134963989258
20
69.9721984863281
40
0.0
41
0.0
42
0.0
10
70.3806991577148
20
70.1141967773438
40
0.0
41
0.0
42
0.0
10
70.4229965209961
20
70.1355972290039
40
0.0
41
0.0
42
0.0
10
70.5077972412109
20
70.1751022338867
40
0.0
41
0.0
42
0.0
10
70.8356018066406
20
70.4955978393555
40
0.0
41
0.0
42
0.0
10
70.8531036376953
20
70.5102005004883
40
0.0
41
0.0
42
0.0
10
70.8889999389648
20
70.5720977783203
40
0.0
41
0.0
42
0.0
10
71.0022964477539
20
70.6556015014648
40
0.0
41
0.0
42
0.0
10
71.1199035644531
20
70.9772033691406
40
0.0
41
0.0
42
0.0
10
71.1320037841797
20
70.9903030395508
40
0.0
41
0.0
42
0.0
10
71.2285003662109
20
71.3494033813477
40
0.0
41
0.0
42
0.0
10
71.341796875
20
71.4899978637695
40
0.0
41
0.0
42
0.0
10
71.4477005004883
20
71.8351974487305
40
0.0
41
0.0
42
0.0
10
71.4626998901367
20
71.8531036376953
40
0.0
41
0.0
42
0.0
10
71.502799987793
20
71.9149017333984
40
0.0
41
0.0
42
0.0
10
71.5599975585938
20
71.9900970458984
40
0.0
41
0.0
42
0.0
10
71.6064987182617
20
72.1229019165039
40
0.0
41
0.0
42
0.0
10
71.6889038085938
20
72.336799621582
40
0.0
41
0.0
42
0.0
10
71.741096496582
20
72.3878021240234
40
0.0
41
0.0
42
0.0
10
71.8553009033203
20
72.4894027709961
40
0.0
41
0.0
42
0.0
10
71.8552017211914
20
72.5171966552734
40
0.0
41
0.0
42
0.0
10
71.8067016601562
20
72.7002029418945
40
0.0
41
0.0
42
0.0
10
72.0158004760742
20
72.7001037597656
40
0.0
41
0.0
42
0.0
10
72.3477020263672
20
72.8363037109375
40
0.0
41
0.0
42
0.0
10
72.5081024169922
20
72.9487991333008
40
0.0
41
0.0
42
0.0
10
72.5826034545898
20
72.9983978271484
40
0.0
41
0.0
42
0.0
10
73.0101013183594
20
73.1865997314453
40
0.0
41
0.0
42
0.0
10
73.0390014648438
20
73.2045974731445
40
0.0
41
0.0
42
0.0
10
73.2797012329102
20
73.3421020507812
40
0.0
41
0.0
42
0.0
10
73.4036026000977
20
73.4508972167969
40
0.0
41
0.0
42
0.0
10
73.4613037109375
20
73.497200012207
40
0.0
41
0.0
42
0.0
10
73.5063018798828
20
73.524299621582
40
0.0
41
0.0
42
0.0
10
73.6169967651367
20
73.6501998901367
40
0.0
41
0.0
42
0.0
10
73.7870025634766
20
73.8371963500977
40
0.0
41
0.0
42
0.0
10
73.868896484375
20
73.9853973388672
40
0.0
41
0.0
42
0.0
10
73.8687973022461
20
74.0106964111328
40
0.0
41
0.0
42
0.0
10
73.6269989013672
20
74.2347030639648
40
0.0
41
0.0
42
0.0
10
73.5128021240234
20
74.3286972045898
40
0.0
41
0.0
42
0.0
10
73.4828033447266
20
74.3290023803711
40
0.0
41
0.0
42
0.0
10
73.1316986083984
20
74.2267990112305
40
0.0
41
0.0
42
0.0
10
72.9850006103516
20
74.2145004272461
40
0.0
41
0.0
42
0.0
10
72.8349990844727
20
74.151496887207
40
0.0
41
0.0
42
0.0
10
72.6462020874023
20
74.0238037109375
40
0.0
41
0.0
42
0.0
10
72.631103515625
20
74.0066986083984
40
0.0
41
0.0
42
0.0
10
72.4952011108398
20
73.8243026733398
40
0.0
41
0.0
42
0.0
10
72.3404006958008
20
73.6984024047852
40
0.0
41
0.0
42
0.0
10
72.293098449707
20
73.6578979492188
40
0.0
41
0.0
42
0.0
10
72.0513000488281
20
73.50830078125
40
0.0
41
0.0
42
0.0
10
72.0512008666992
20
73.4878005981445
40
0.0
41
0.0
42
0.0
10
72.0970993041992
20
73.4347991943359
40
0.0
41
0.0
42
0.0
10
72.1766967773438
20
73.3300018310547
40
0.0
41
0.0
42
0.0
10
72.1606979370117
20
73.3114013671875
40
0.0
41
0.0
42
0.0
10
72.0147018432617
20
73.3891983032227
40
0.0
41
0.0
42
0.0
10
71.877197265625
20
73.3897018432617
40
0.0
41
0.0
42
0.0
10
71.4881973266602
20
73.1250991821289
40
0.0
41
0.0
42
0.0
10
71.1744995117188
20
73.1377029418945
40
0.0
41
0.0
42
0.0
10
71.1391983032227
20
73.1376037597656
40
0.0
41
0.0
42
0.0
10
70.99169921875
20
73.0756988525391
40
0.0
41
0.0
42
0.0
10
70.673698425293
20
73.1128997802734
40
0.0
41
0.0
42
0.0
10
70.6376037597656
20
73.1128005981445
40
0.0
41
0.0
42
0.0
10
70.4969024658203
20
73.0765991210938
40
0.0
41
0.0
42
0.0
10
70.1718978881836
20
73.1331024169922
40
0.0
41
0.0
42
0.0
10
70.1336975097656
20
73.1377029418945
40
0.0
41
0.0
42
0.0
10
70.0976028442383
20
73.1376037597656
40
0.0
41
0.0
42
0.0
10
69.9838027954102
20
73.1082992553711
40
0.0
41
0.0
42
0.0
10
69.7705001831055
20
73.0830993652344
40
0.0
41
0.0
42
0.0
10
69.5184020996094
20
73.1215972900391
40
0.0
41
0.0
42
0.0
10
69.4824981689453
20
73.1214981079102
40
0.0
41
0.0
42
0.0
10
68.988899230957
20
73.0010986328125
40
0.0
41
0.0
42
0.0
10
68.559196472168
20
72.6927032470703
40
0.0
41
0.0
42
0.0
10
68.4935989379883
20
72.6503982543945
40
0.0
41
0.0
42
0.0
10
68.3602981567383
20
72.5058975219727
40
0.0
41
0.0
42
0.0
10
68.0314025878906
20
72.1287002563477
40
0.0
41
0.0
42
0.0
10
67.9959030151367
20
72.0841979980469
40
0.0
41
0.0
42
0.0
10
67.921501159668
20
72.0045013427734
40
0.0
41
0.0
42
0.0
10
67.58740234375
20
71.7348022460938
40
0.0
41
0.0
42
0.0
10
67.4900970458984
20
71.6320037841797
40
0.0
41
0.0
42
0.0
10
67.1389999389648
20
71.5876007080078
40
0.0
41
0.0
42
0.0
10
67.0029983520508
20
71.5402984619141
40
0.0
41
0.0
42
0.0
10
66.9281005859375
20
71.5879974365234
40
0.0
41
0.0
42
0.0
10
66.8979034423828
20
71.6032028198242
40
0.0
41
0.0
42
0.0
10
66.5109024047852
20
71.6849975585938
40
0.0
41
0.0
42
0.0
10
66.3933029174805
20
71.77490234375
40
0.0
41
0.0
42
0.0
10
66.0070037841797
20
71.9937973022461
40
0.0
41
0.0
42
0.0
10
65.6308975219727
20
72.372802734375
40
0.0
41
0.0
42
0.0
10
65.5167007446289
20
72.5160980224609
40
0.0
41
0.0
42
0.0
10
65.4483032226562
20
72.6728973388672
40
0.0
41
0.0
42
0.0
10
65.2676010131836
20
73.0130004882812
40
0.0
41
0.0
42
0.0
10
65.2064971923828
20
73.3621978759766
40
0.0
41
0.0
42
0.0
10
65.1942977905273
20
73.497200012207
40
0.0
41
0.0
42
0.0
10
65.2354965209961
20
73.8281021118164
40
0.0
41
0.0
42
0.0
10
65.2643966674805
20
73.9857025146484
40
0.0
41
0.0
42
0.0
10
65.3986968994141
20
74.3327026367188
40
0.0
41
0.0
42
0.0
10
65.4373016357422
20
74.4265975952148
40
0.0
41
0.0
42
0.0
10
65.4654998779297
20
74.4897003173828
40
0.0
41
0.0
42
0.0
10
65.5026016235352
20
74.552001953125
40
0.0
41
0.0
42
0.0
10
65.6106033325195
20
74.6874008178711
40
0.0
41
0.0
42
0.0
10
65.7200012207031
20
74.836799621582
40
0.0
41
0.0
42
0.0
10
65.8190002441406
20
74.99169921875
40
0.0
41
0.0
42
0.0
10
65.8490982055664
20
75.0335998535156
40
0.0
41
0.0
42
0.0
10
66.007698059082
20
75.1992034912109
40
0.0
41
0.0
42
0.0
10
66.3551025390625
20
75.3496017456055
40
0.0
41
0.0
42
0.0
10
66.3921966552734
20
75.3733978271484
40
0.0
41
0.0
42
0.0
10
66.5119018554688
20
75.4815979003906
40
0.0
41
0.0
42
0.0
10
66.7855987548828
20
75.4813995361328
40
0.0
41
0.0
42
0.0
10
66.9847030639648
20
75.4473037719727
40
0.0
41
0.0
42
0.0
10
67.1337966918945
20
75.4035034179688
40
0.0
41
0.0
42
0.0
10
67.4899978637695
20
75.2108001708984
40
0.0
41
0.0
42
0.0
10
67.8188018798828
20
75.030403137207
40
0.0
41
0.0
42
0.0
10
67.9896011352539
20
74.9299011230469
40
0.0
41
0.0
42
0.0
10
68.1415023803711
20
74.8608016967773
40
0.0
41
0.0
42
0.0
10
68.4862976074219
20
74.7436981201172
40
0.0
41
0.0
42
0.0
10
68.5979995727539
20
74.7110977172852
40
0.0
41
0.0
42
0.0
10
68.6342010498047
20
74.7109985351562
40
0.0
41
0.0
42
0.0
10
69.0058975219727
20
74.7371978759766
40
0.0
41
0.0
42
0.0
10
69.130500793457
20
74.7341003417969
40
0.0
41
0.0
42
0.0
10
69.5092010498047
20
74.9123001098633
40
0.0
41
0.0
42
0.0
10
69.614501953125
20
74.988899230957
40
0.0
41
0.0
42
0.0
10
69.7627029418945
20
75.0082015991211
40
0.0
41
0.0
42
0.0
10
70.0130004882812
20
75.1483001708984
40
0.0
41
0.0
42
0.0
10
70.1684036254883
20
75.1722030639648
40
0.0
41
0.0
42
0.0
10
70.5143966674805
20
75.3516006469727
40
0.0
41
0.0
42
0.0
10
70.6713027954102
20
75.3592987060547
40
0.0
41
0.0
42
0.0
10
71.0067977905273
20
75.4627990722656
40
0.0
41
0.0
42
0.0
10
71.4841003417969
20
75.4367980957031
40
0.0
41
0.0
42
0.0
10
71.6791000366211
20
75.36669921875
40
0.0
41
0.0
42
0.0
10
71.8303985595703
20
75.3200988769531
40
0.0
41
0.0
42
0.0
10
71.9255981445312
20
75.2985000610352
40
0.0
41
0.0
42
0.0
10
71.986198425293
20
75.2864990234375
40
0.0
41
0.0
42
0.0
10
72.3178024291992
20
75.1429977416992
40
0.0
41
0.0
42
0.0
10
72.4847030639648
20
75.1119995117188
40
0.0
41
0.0
42
0.0
10
72.7425003051758
20
75.0410003662109
40
0.0
41
0.0
42
0.0
10
72.9806976318359
20
75.0236968994141
40
0.0
41
0.0
42
0.0
10
73.0149002075195
20
75.0235977172852
40
0.0
41
0.0
42
0.0
10
73.1679992675781
20
75.1027984619141
40
0.0
41
0.0
42
0.0
10
73.5064010620117
20
75.1669998168945
40
0.0
41
0.0
42
0.0
10
73.6418991088867
20
75.4102020263672
40
0.0
41
0.0
42
0.0
10
73.6690979003906
20
75.4837036132812
40
0.0
41
0.0
42
0.0
10
73.6689987182617
20
75.5111999511719
40
0.0
41
0.0
42
0.0
10
73.5328979492188
20
75.6472015380859
40
0.0
41
0.0
42
0.0
10
73.5074996948242
20
75.6801986694336
40
0.0
41
0.0
42
0.0
10
73.1598968505859
20
75.7760009765625
40
0.0
41
0.0
42
0.0
10
73.0141983032227
20
75.8482971191406
40
0.0
41
0.0
42
0.0
10
72.6700973510742
20
75.8774032592773
40
0.0
41
0.0
42
0.0
10
72.594596862793
20
75.9068984985352
40
0.0
41
0.0
42
0.0
10
72.5137023925781
20
75.9595031738281
40
0.0
41
0.0
42
0.0
10
72.4831008911133
20
75.9593963623047
40
0.0
41
0.0
42
0.0
10
72.3564987182617
20
75.9207992553711
40
0.0
41
0.0
42
0.0
10
72.1476974487305
20
75.9992980957031
40
0.0
41
0.0
42
0.0
10
72.0166015625
20
76.0136032104492
40
0.0
41
0.0
42
0.0
10
71.9860992431641
20
76.0199966430664
40
0.0
41
0.0
42
0.0
10
71.5148010253906
20
76.0513000488281
40
0.0
41
0.0
42
0.0
10
71.4176025390625
20
76.0947036743164
40
0.0
41
0.0
42
0.0
10
71.0066986083984
20
76.2390975952148
40
0.0
41
0.0
42
0.0
10
70.8127975463867
20
76.5070037841797
40
0.0
41
0.0
42
0.0
10
70.6874008178711
20
76.6574020385742
40
0.0
41
0.0
42
0.0
10
70.6623001098633
20
76.681999206543
40
0.0
41
0.0
42
0.0
10
70.5096969604492
20
76.7639007568359
40
0.0
41
0.0
42
0.0
10
70.4227981567383
20
76.8134994506836
40
0.0
41
0.0
42
0.0
10
70.2779006958008
20
77.0075988769531
40
0.0
41
0.0
42
0.0
10
70.0447998046875
20
77.3431015014648
40
0.0
41
0.0
42
0.0
10
70.0102996826172
20
77.3653030395508
40
0.0
41
0.0
42
0.0
10
69.8943023681641
20
77.410400390625
40
0.0
41
0.0
42
0.0
10
69.8247985839844
20
77.4657974243164
40
0.0
41
0.0
42
0.0
10
69.508903503418
20
77.7807998657227
40
0.0
41
0.0
42
0.0
10
69.1246032714844
20
77.8892974853516
40
0.0
41
0.0
42
0.0
10
69.0173034667969
20
77.9176025390625
40
0.0
41
0.0
42
0.0
10
68.9304962158203
20
77.9172973632812
40
0.0
41
0.0
42
0.0
10
68.4807968139648
20
77.923698425293
40
0.0
41
0.0
42
0.0
10
67.9823989868164
20
77.8780975341797
40
0.0
41
0.0
42
0.0
10
67.8598022460938
20
77.8785018920898
40
0.0
41
0.0
42
0.0
10
67.5133972167969
20
77.870002746582
40
0.0
41
0.0
42
0.0
10
67.2465972900391
20
78.0009002685547
40
0.0
41
0.0
42
0.0
10
67.2209014892578
20
78.0122985839844
40
0.0
41
0.0
42
0.0
10
67.0059967041016
20
78.0943984985352
40
0.0
41
0.0
42
0.0
10
66.9524993896484
20
78.1766967773438
40
0.0
41
0.0
42
0.0
10
66.7871017456055
20
78.3946990966797
40
0.0
41
0.0
42
0.0
10
66.7429962158203
20
78.5121002197266
40
0.0
41
0.0
42
0.0
10
66.5756988525391
20
78.8985977172852
40
0.0
41
0.0
42
0.0
10
66.5522003173828
20
79.0162963867188
40
0.0
41
0.0
42
0.0
10
66.4990997314453
20
79.3551025390625
40
0.0
41
0.0
42
0.0
10
66.493896484375
20
79.3973007202148
40
0.0
41
0.0
42
0.0
10
66.4952011108398
20
79.3264007568359
40
0.0
41
0.0
42
0.0
10
66.5007019042969
20
79.2823028564453
40
0.0
41
0.0
42
0.0
10
66.5475006103516
20
78.9835968017578
40
0.0
41
0.0
42
0.0
10
66.5777969360352
20
78.8311996459961
40
0.0
41
0.0
42
0.0
10
66.7264022827148
20
78.4878005981445
40
0.0
41
0.0
42
0.0
10
66.7838973999023
20
78.3351974487305
40
0.0
41
0.0
42
0.0
10
66.9294967651367
20
78.1433029174805
40
0.0
41
0.0
42
0.0
10
66.9937973022461
20
78.0442962646484
40
0.0
41
0.0
42
0.0
10
67.1099014282227
20
77.9990997314453
40
0.0
41
0.0
42
0.0
10
67.4845962524414
20
77.815299987793
40
0.0
41
0.0
42
0.0
10
67.836799621582
20
77.8228988647461
40
0.0
41
0.0
42
0.0
10
68.0189971923828
20
77.8224029541016
40
0.0
41
0.0
42
0.0
10
68.513298034668
20
77.867301940918
40
0.0
41
0.0
42
0.0
10
68.8415985107422
20
77.8623962402344
40
0.0
41
0.0
42
0.0
10
68.9831008911133
20
77.8627014160156
40
0.0
41
0.0
42
0.0
10
69.1725997924805
20
77.8130035400391
40
0.0
41
0.0
42
0.0
10
69.4908981323242
20
77.7230987548828
40
0.0
41
0.0
42
0.0
10
69.7498016357422
20
77.4646987915039
40
0.0
41
0.0
42
0.0
10
69.8355026245117
20
77.3964996337891
40
0.0
41
0.0
42
0.0
10
69.989501953125
20
77.3366012573242
40
0.0
41
0.0
42
0.0
10
70.0485000610352
20
77.298698425293
40
0.0
41
0.0
42
0.0
10
70.2612991333008
20
76.9922027587891
40
0.0
41
0.0
42
0.0
10
70.393798828125
20
76.8147964477539
40
0.0
41
0.0
42
0.0
10
70.4164962768555
20
76.7967987060547
40
0.0
41
0.0
42
0.0
10
70.4900970458984
20
76.7547988891602
40
0.0
41
0.0
42
0.0
10
70.6074981689453
20
76.6918029785156
40
0.0
41
0.0
42
0.0
10
70.631103515625
20
76.6686019897461
40
0.0
41
0.0
42
0.0
10
70.7776031494141
20
76.4927978515625
40
0.0
41
0.0
42
0.0
10
70.9931030273438
20
76.1952972412109
40
0.0
41
0.0
42
0.0
10
71.4536972045898
20
76.0333023071289
40
0.0
41
0.0
42
0.0
10
71.491096496582
20
76.0166015625
40
0.0
41
0.0
42
0.0
10
71.7619018554688
20
75.9999008178711
40
0.0
41
0.0
42
0.0
10
71.7617034912109
20
75.7907028198242
40
0.0
41
0.0
42
0.0
10
71.771598815918
20
75.782600402832
40
0.0
41
0.0
42
0.0
10
71.7714996337891
20
75.7713012695312
40
0.0
41
0.0
42
0.0
10
71.7827987670898
20
75.7713012695312
40
0.0
41
0.0
42
0.0
10
71.9774017333984
20
75.9307022094727
40
0.0
41
0.0
42
0.0
10
72.0037002563477
20
75.9558029174805
40
0.0
41
0.0
42
0.0
10
72.2473983764648
20
75.8641967773438
40
0.0
41
0.0
42
0.0
10
72.280403137207
20
75.8641967773438
40
0.0
41
0.0
42
0.0
10
72.4960021972656
20
75.9300994873047
40
0.0
41
0.0
42
0.0
10
72.5522003173828
20
75.8936004638672
40
0.0
41
0.0
42
0.0
10
72.5998001098633
20
75.875
40
0.0
41
0.0
42
0.0
10
72.9857025146484
20
75.842399597168
40
0.0
41
0.0
42
0.0
10
73.102897644043
20
75.7844009399414
40
0.0
41
0.0
42
0.0
10
73.1408996582031
20
75.772102355957
40
0.0
41
0.0
42
0.0
10
73.492301940918
20
75.6753005981445
40
0.0
41
0.0
42
0.0
10
73.5345993041992
20
75.6203994750977
40
0.0
41
0.0
42
0.0
10
73.6589965820312
20
75.4961013793945
40
0.0
41
0.0
42
0.0
10
73.6268997192383
20
75.4085006713867
40
0.0
41
0.0
42
0.0
10
73.4934997558594
20
75.1705017089844
40
0.0
41
0.0
42
0.0
10
73.1018981933594
20
75.0962982177734
40
0.0
41
0.0
42
0.0
10
72.9893035888672
20
75.0380020141602
40
0.0
41
0.0
42
0.0
10
72.8376007080078
20
75.0491027832031
40
0.0
41
0.0
42
0.0
10
72.5151977539062
20
75.1378021240234
40
0.0
41
0.0
42
0.0
10
72.3889007568359
20
75.1613006591797
40
0.0
41
0.0
42
0.0
10
72.0134963989258
20
75.3237991333008
40
0.0
41
0.0
42
0.0
10
71.8995971679688
20
75.3483963012695
40
0.0
41
0.0
42
0.0
10
71.7282028198242
20
75.4011993408203
40
0.0
41
0.0
42
0.0
10
71.5150985717773
20
75.4777984619141
40
0.0
41
0.0
42
0.0
10
71.4951019287109
20
75.4803009033203
40
0.0
41
0.0
42
0.0
10
71.0951995849609
20
75.4999008178711
40
0.0
41
0.0
42
0.0
10
71.0925979614258
20
75.5803985595703
40
0.0
41
0.0
42
0.0
10
71.0692977905273
20
75.5804977416992
40
0.0
41
0.0
42
0.0
10
70.9763031005859
20
75.5011978149414
40
0.0
41
0.0
42
0.0
10
70.5986022949219
20
75.3844985961914
40
0.0
41
0.0
42
0.0
10
70.4856033325195
20
75.3789978027344
40
0.0
41
0.0
42
0.0
10
70.1016006469727
20
75.1797027587891
40
0.0
41
0.0
42
0.0
10
69.9869003295898
20
75.1621017456055
40
0.0
41
0.0
42
0.0
10
69.7070999145508
20
75.0054016113281
40
0.0
41
0.0
42
0.0
10
69.589599609375
20
74.9900970458984
40
0.0
41
0.0
42
0.0
10
69.5838012695312
20
74.9885025024414
40
0.0
41
0.0
42
0.0
10
69.4906997680664
20
74.9206008911133
40
0.0
41
0.0
42
0.0
10
69.1421966552734
20
74.7567977905273
40
0.0
41
0.0
42
0.0
10
69.0195999145508
20
74.7612991333008
40
0.0
41
0.0
42
0.0
10
68.9806976318359
20
74.7611999511719
40
0.0
41
0.0
42
0.0
10
68.6641006469727
20
74.7389984130859
40
0.0
41
0.0
42
0.0
10
68.5136032104492
20
74.783203125
40
0.0
41
0.0
42
0.0
10
68.2194976806641
20
74.8831024169922
40
0.0
41
0.0
42
0.0
10
68.0102005004883
20
74.9783020019531
40
0.0
41
0.0
42
0.0
10
67.9523010253906
20
75.0122985839844
40
0.0
41
0.0
42
0.0
10
67.5099029541016
20
75.2552032470703
40
0.0
41
0.0
42
0.0
10
67.2085037231445
20
75.4181976318359
40
0.0
41
0.0
42
0.0
10
67.0151977539062
20
75.4748992919922
40
0.0
41
0.0
42
0.0
10
66.9278030395508
20
75.4899978637695
40
0.0
41
0.0
42
0.0
10
66.4879989624023
20
75.4901962280273
40
0.0
41
0.0
42
0.0
10
66.3542022705078
20
75.3691024780273
40
0.0
41
0.0
42
0.0
10
65.9922027587891
20
75.2125015258789
40
0.0
41
0.0
42
0.0
10
65.8235015869141
20
75.0363006591797
40
0.0
41
0.0
42
0.0
10
65.8031997680664
20
75.0081024169922
40
0.0
41
0.0
42
0.0
10
65.7297973632812
20
74.8930969238281
40
0.0
41
0.0
42
0.0
10
65.6474990844727
20
74.7807006835938
40
0.0
41
0.0
42
0.0
10
65.497200012207
20
74.592399597168
40
0.0
41
0.0
42
0.0
10
65.4483032226562
20
74.5102996826172
40
0.0
41
0.0
42
0.0
10
65.4284973144531
20
74.4660034179688
40
0.0
41
0.0
42
0.0
10
65.4001998901367
20
74.3972015380859
40
0.0
41
0.0
42
0.0
10
65.2519989013672
20
74.0141983032227
40
0.0
41
0.0
42
0.0
10
65.2313995361328
20
73.9018020629883
40
0.0
41
0.0
42
0.0
10
65.1837997436523
20
73.5186004638672
40
0.0
41
0.0
42
0.0
10
65.1837005615234
20
73.4899978637695
40
0.0
41
0.0
42
0.0
10
65.1939010620117
20
73.3675994873047
40
0.0
41
0.0
42
0.0
210
0.0
220
0.0
230
1.0
0
LWPOLYLINE
5
25
330
1C
100
AcDbEntity
67
0
8
0
62
256
6
ByLayer
370
-1
48
1.0
60
0
100
AcDbPolyline
90
432
70
1
38
0.0
39
0.0
10
66.4922027587891
20
79.4924011230469
40
0.0
41
0.0
42
0.0
10
66.4941024780273
20
79.5040969848633
40
0.0
41
0.0
42
0.0
10
66.5197982788086
20
79.8569030761719
40
0.0
41
0.0
42
0.0
10
66.5428009033203
20
79.9851989746094
40
0.0
41
0.0
42
0.0
10
66.6587982177734
20
80.3328018188477
40
0.0
41
0.0
42
0.0
10
66.7330017089844
20
80.4915008544922
40
0.0
41
0.0
42
0.0
10
66.7944030761719
20
80.5615005493164
40
0.0
41
0.0
42
0.0
10
67.0039978027344
20
80.8506011962891
40
0.0
41
0.0
42
0.0
10
67.0637969970703
20
80.9089965820312
40
0.0
41
0.0
42
0.0
10
67.1697006225586
20
80.997200012207
40
0.0
41
0.0
42
0.0
10
67.2217025756836
20
81.0279998779297
40
0.0
41
0.0
42
0.0
10
67.5101013183594
20
81.2182998657227
40
0.0
41
0.0
42
0.0
10
67.6671981811523
20
81.2830963134766
40
0.0
41
0.0
42
0.0
10
68.0137023925781
20
81.4177017211914
40
0.0
41
0.0
42
0.0
10
68.1708984375
20
81.4552993774414
40
0.0
41
0.0
42
0.0
10
68.3110961914062
20
81.4768981933594
40
0.0
41
0.0
42
0.0
10
68.502799987793
20
81.5029983520508
40
0.0
41
0.0
42
0.0
10
68.8261032104492
20
81.4670028686523
40
0.0
41
0.0
42
0.0
10
68.8640975952148
20
81.4669036865234
40
0.0
41
0.0
42
0.0
10
68.9954986572266
20
81.4774017333984
40
0.0
41
0.0
42
0.0
10
69.1061019897461
20
81.4626998901367
40
0.0
41
0.0
42
0.0
10
69.492301940918
20
81.1600036621094
40
0.0
41
0.0
42
0.0
10
69.6113967895508
20
81.0793991088867
40
0.0
41
0.0
42
0.0
10
69.6204986572266
20
81.060302734375
40
0.0
41
0.0
42
0.0
10
69.6623001098633
20
80.9886016845703
40
0.0
41
0.0
42
0.0
10
69.8283004760742
20
80.486198425293
40
0.0
41
0.0
42
0.0
10
69.9468994140625
20
80.0809020996094
40
0.0
41
0.0
42
0.0
10
69.9721984863281
20
79.9863967895508
40
0.0
41
0.0
42
0.0
10
69.999397277832
20
79.9151992797852
40
0.0
41
0.0
42
0.0
10
70.1360015869141
20
79.5759963989258
40
0.0
41
0.0
42
0.0
10
70.1750030517578
20
79.4919967651367
40
0.0
41
0.0
42
0.0
10
70.4954986572266
20
79.1641998291016
40
0.0
41
0.0
42
0.0
10
70.5101013183594
20
79.146598815918
40
0.0
41
0.0
42
0.0
10
70.5719985961914
20
79.1109008789062
40
0.0
41
0.0
42
0.0
10
70.6555023193359
20
78.9974975585938
40
0.0
41
0.0
42
0.0
10
70.9765014648438
20
78.879997253418
40
0.0
41
0.0
42
0.0
10
71.1071014404297
20
78.7733993530273
40
0.0
41
0.0
42
0.0
10
71.1433029174805
20
78.7514038085938
40
0.0
41
0.0
42
0.0
10
71.4857025146484
20
78.6592025756836
40
0.0
41
0.0
42
0.0
10
71.8351974487305
20
78.552001953125
40
0.0
41
0.0
42
0.0
10
71.8529968261719
20
78.5370025634766
40
0.0
41
0.0
42
0.0
10
71.9149017333984
20
78.4971008300781
40
0.0
41
0.0
42
0.0
10
71.9899978637695
20
78.439697265625
40
0.0
41
0.0
42
0.0
10
72.1229019165039
20
78.3932037353516
40
0.0
41
0.0
42
0.0
10
72.3367004394531
20
78.3107986450195
40
0.0
41
0.0
42
0.0
10
72.3877029418945
20
78.2585983276367
40
0.0
41
0.0
42
0.0
10
72.4893035888672
20
78.1445007324219
40
0.0
41
0.0
42
0.0
10
72.5171966552734
20
78.1445007324219
40
0.0
41
0.0
42
0.0
10
72.7002029418945
20
78.1930999755859
40
0.0
41
0.0
42
0.0
10
72.7001037597656
20
77.9841003417969
40
0.0
41
0.0
42
0.0
10
72.8363037109375
20
77.6520004272461
40
0.0
41
0.0
42
0.0
10
72.9486999511719
20
77.49169921875
40
0.0
41
0.0
42
0.0
10
72.9983978271484
20
77.4171981811523
40
0.0
41
0.0
42
0.0
10
73.1865005493164
20
76.9897003173828
40
0.0
41
0.0
42
0.0
10
73.2045974731445
20
76.9608001708984
40
0.0
41
0.0
42
0.0
10
73.3420028686523
20
76.720100402832
40
0.0
41
0.0
42
0.0
10
73.4508972167969
20
76.5961990356445
40
0.0
41
0.0
42
0.0
10
73.4971008300781
20
76.5383987426758
40
0.0
41
0.0
42
0.0
10
73.524299621582
20
76.4934997558594
40
0.0
41
0.0
42
0.0
10
73.6501007080078
20
76.3827972412109
40
0.0
41
0.0
42
0.0
10
73.8371963500977
20
76.2127990722656
40
0.0
41
0.0
42
0.0
10
73.9853973388672
20
76.1309967041016
40
0.0
41
0.0
42
0.0
10
74.0108032226562
20
76.1309967041016
40
0.0
41
0.0
42
0.0
10
74.2348022460938
20
76.372802734375
40
0.0
41
0.0
42
0.0
10
74.3286972045898
20
76.4869995117188
40
0.0
41
0.0
42
0.0
10
74.3290023803711
20
76.5170974731445
40
0.0
41
0.0
42
0.0
10
74.2267990112305
20
76.8682022094727
40
0.0
41
0.0
42
0.0
10
74.2144012451172
20
77.0149002075195
40
0.0
41
0.0
42
0.0
10
74.151496887207
20
77.1649017333984
40
0.0
41
0.0
42
0.0
10
74.0236968994141
20
77.3535995483398
40
0.0
41
0.0
42
0.0
10
74.0065994262695
20
77.3686981201172
40
0.0
41
0.0
42
0.0
10
73.8243026733398
20
77.5046005249023
40
0.0
41
0.0
42
0.0
10
73.6975021362305
20
77.660400390625
40
0.0
41
0.0
42
0.0
10
73.5085983276367
20
77.948600769043
40
0.0
41
0.0
42
0.0
10
73.4878005981445
20
77.948600769043
40
0.0
41
0.0
42
0.0
10
73.4348983764648
20
77.9026031494141
40
0.0
41
0.0
42
0.0
10
73.3300018310547
20
77.8231964111328
40
0.0
41
0.0
42
0.0
10
73.3114013671875
20
77.8391036987305
40
0.0
41
0.0
42
0.0
10
73.3891983032227
20
77.9851989746094
40
0.0
41
0.0
42
0.0
10
73.3896026611328
20
78.1225967407227
40
0.0
41
0.0
42
0.0
10
73.1250991821289
20
78.5117034912109
40
0.0
41
0.0
42
0.0
10
73.1377029418945
20
78.8254013061523
40
0.0
41
0.0
42
0.0
10
73.1376037597656
20
78.8607025146484
40
0.0
41
0.0
42
0.0
10
73.0756988525391
20
79.0082015991211
40
0.0
41
0.0
42
0.0
10
73.1128997802734
20
79.3262023925781
40
0.0
41
0.0
42
0.0
10
73.1128005981445
20
79.3622970581055
40
0.0
41
0.0
42
0.0
10
73.0765991210938
20
79.5029983520508
40
0.0
41
0.0
42
0.0
10
73.1331024169922
20
79.8280029296875
40
0.0
41
0.0
42
0.0
10
73.1377029418945
20
79.8662033081055
40
0.0
41
0.0
42
0.0
10
73.1376037597656
20
79.9022979736328
40
0.0
41
0.0
42
0.0
10
73.1082992553711
20
80.0160980224609
40
0.0
41
0.0
42
0.0
10
73.0830993652344
20
80.2293014526367
40
0.0
41
0.0
42
0.0
10
73.1215972900391
20
80.4814987182617
40
0.0
41
0.0
42
0.0
10
73.1213989257812
20
80.5174026489258
40
0.0
41
0.0
42
0.0
10
73.0010986328125
20
81.0110015869141
40
0.0
41
0.0
42
0.0
10
72.6925964355469
20
81.4405975341797
40
0.0
41
0.0
42
0.0
10
72.6503982543945
20
81.5063018798828
40
0.0
41
0.0
42
0.0
10
72.5058975219727
20
81.6393966674805
40
0.0
41
0.0
42
0.0
10
72.1286010742188
20
81.9683990478516
40
0.0
41
0.0
42
0.0
10
72.0841979980469
20
82.0039978027344
40
0.0
41
0.0
42
0.0
10
72.0045013427734
20
82.0783004760742
40
0.0
41
0.0
42
0.0
10
71.7347030639648
20
82.4123001098633
40
0.0
41
0.0
42
0.0
10
71.6320037841797
20
82.5098037719727
40
0.0
41
0.0
42
0.0
10
71.5876007080078
20
82.8609008789062
40
0.0
41
0.0
42
0.0
10
71.5402984619141
20
82.9969024658203
40
0.0
41
0.0
42
0.0
10
71.5879974365234
20
83.0716018676758
40
0.0
41
0.0
42
0.0
10
71.6032028198242
20
83.1019973754883
40
0.0
41
0.0
42
0.0
10
71.6850967407227
20
83.488899230957
40
0.0
41
0.0
42
0.0
10
71.7750015258789
20
83.6065979003906
40
0.0
41
0.0
42
0.0
10
71.993896484375
20
83.9927978515625
40
0.0
41
0.0
42
0.0
10
72.372802734375
20
84.3687973022461
40
0.0
41
0.0
42
0.0
10
72.5075988769531
20
84.4774017333984
40
0.0
41
0.0
42
0.0
10
72.5169982910156
20
84.4833984375
40
0.0
41
0.0
42
0.0
10
72.5516967773438
20
84.4990997314453
40
0.0
41
0.0
42
0.0
10
72.6729965209961
20
84.5514984130859
40
0.0
41
0.0
42
0.0
10
73.013801574707
20
84.7325973510742
40
0.0
41
0.0
42
0.0
10
73.1722030639648
20
84.7469024658203
40
0.0
41
0.0
42
0.0
10
73.4994964599609
20
84.8041000366211
40
0.0
41
0.0
42
0.0
10
73.6380996704102
20
84.7788009643555
40
0.0
41
0.0
42
0.0
10
73.9850997924805
20
84.7356033325195
40
0.0
41
0.0
42
0.0
10
74.3327026367188
20
84.6009979248047
40
0.0
41
0.0
42
0.0
10
74.4265975952148
20
84.5625
40
0.0
41
0.0
42
0.0
10
74.4896011352539
20
84.5343017578125
40
0.0
41
0.0
42
0.0
10
74.552001953125
20
84.4972991943359
40
0.0
41
0.0
42
0.0
10
74.6874008178711
20
84.3890991210938
40
0.0
41
0.0
42
0.0
10
74.836799621582
20
84.2797012329102
40
0.0
41
0.0
42
0.0
10
74.99169921875
20
84.1808013916016
40
0.0
41
0.0
42
0.0
10
75.0335998535156
20
84.1507034301758
40
0.0
41
0.0
42
0.0
10
75.1992034912109
20
83.9921035766602
40
0.0
41
0.0
42
0.0
10
75.3496017456055
20
83.6447982788086
40
0.0
41
0.0
42
0.0
10
75.3733978271484
20
83.6076965332031
40
0.0
41
0.0
42
0.0
10
75.4815979003906
20
83.4879989624023
40
0.0
41
0.0
42
0.0
10
75.4814987182617
20
83.2142028808594
40
0.0
41
0.0
42
0.0
10
75.4473037719727
20
83.0151977539062
40
0.0
41
0.0
42
0.0
10
75.4035034179688
20
82.8659973144531
40
0.0
41
0.0
42
0.0
10
75.2110977172852
20
82.5102996826172
40
0.0
41
0.0
42
0.0
10
75.1544036865234
20
82.3949966430664
40
0.0
41
0.0
42
0.0
10
75.0813980102539
20
82.2718963623047
40
0.0
41
0.0
42
0.0
10
74.9299011230469
20
82.0102996826172
40
0.0
41
0.0
42
0.0
10
74.8608016967773
20
81.8582992553711
40
0.0
41
0.0
42
0.0
10
74.7437973022461
20
81.5136032104492
40
0.0
41
0.0
42
0.0
10
74.7110977172852
20
81.4019012451172
40
0.0
41
0.0
42
0.0
10
74.7109985351562
20
81.3656997680664
40
0.0
41
0.0
42
0.0
10
74.7371978759766
20
80.9940032958984
40
0.0
41
0.0
42
0.0
10
74.7341003417969
20
80.8694000244141
40
0.0
41
0.0
42
0.0
10
74.9122009277344
20
80.4906005859375
40
0.0
41
0.0
42
0.0
10
74.988899230957
20
80.3852996826172
40
0.0
41
0.0
42
0.0
10
75.0081024169922
20
80.2370986938477
40
0.0
41
0.0
42
0.0
10
75.1483001708984
20
79.9869003295898
40
0.0
41
0.0
42
0.0
10
75.1720962524414
20
79.8314971923828
40
0.0
41
0.0
42
0.0
10
75.3516006469727
20
79.4854965209961
40
0.0
41
0.0
42
0.0
10
75.3592987060547
20
79.3285980224609
40
0.0
41
0.0
42
0.0
10
75.4627990722656
20
78.9931030273438
40
0.0
41
0.0
42
0.0
10
75.436897277832
20
78.5158996582031
40
0.0
41
0.0
42
0.0
10
75.3200988769531
20
78.1694030761719
40
0.0
41
0.0
42
0.0
10
75.2864990234375
20
78.0134963989258
40
0.0
41
0.0
42
0.0
10
75.1429977416992
20
77.681999206543
40
0.0
41
0.0
42
0.0
10
75.1119995117188
20
77.5151977539062
40
0.0
41
0.0
42
0.0
10
75.0410003662109
20
77.2573013305664
40
0.0
41
0.0
42
0.0
10
75.0236968994141
20
77.0192031860352
40
0.0
41
0.0
42
0.0
10
75.0235977172852
20
76.9850006103516
40
0.0
41
0.0
42
0.0
10
75.1027984619141
20
76.831901550293
40
0.0
41
0.0
42
0.0
10
75.1669006347656
20
76.4934997558594
40
0.0
41
0.0
42
0.0
10
75.4101028442383
20
76.3578033447266
40
0.0
41
0.0
42
0.0
10
75.4837036132812
20
76.3308029174805
40
0.0
41
0.0
42
0.0
10
75.5111999511719
20
76.3308029174805
40
0.0
41
0.0
42
0.0
10
75.6472015380859
20
76.4669036865234
40
0.0
41
0.0
42
0.0
10
75.6801986694336
20
76.492301940918
40
0.0
41
0.0
42
0.0
10
75.7761001586914
20
76.8399963378906
40
0.0
41
0.0
42
0.0
10
75.8482971191406
20
76.9857025146484
40
0.0
41
0.0
42
0.0
10
75.8775024414062
20
77.3298034667969
40
0.0
41
0.0
42
0.0
10
75.9068984985352
20
77.4051971435547
40
0.0
41
0.0
42
0.0
10
75.9595031738281
20
77.486198425293
40
0.0
41
0.0
42
0.0
10
75.9593963623047
20
77.5167999267578
40
0.0
41
0.0
42
0.0
10
75.9208984375
20
77.6433029174805
40
0.0
41
0.0
42
0.0
10
75.9992980957031
20
77.8520965576172
40
0.0
41
0.0
42
0.0
10
76.0136032104492
20
77.9832992553711
40
0.0
41
0.0
42
0.0
10
76.0201034545898
20
78.0137023925781
40
0.0
41
0.0
42
0.0
10
76.0511016845703
20
78.4831008911133
40
0.0
41
0.0
42
0.0
10
76.1054000854492
20
78.7083969116211
40
0.0
41
0.0
42
0.0
10
76.1647033691406
20
78.8333969116211
40
0.0
41
0.0
42
0.0
10
76.215202331543
20
78.9608001708984
40
0.0
41
0.0
42
0.0
10
76.2421035766602
20
78.9953002929688
40
0.0
41
0.0
42
0.0
10
76.5070037841797
20
79.186897277832
40
0.0
41
0.0
42
0.0
10
76.6575012207031
20
79.3124008178711
40
0.0
41
0.0
42
0.0
10
76.681999206543
20
79.3375015258789
40
0.0
41
0.0
42
0.0
10
76.7639007568359
20
79.4900970458984
40
0.0
41
0.0
42
0.0
10
76.8135986328125
20
79.5770034790039
40
0.0
41
0.0
42
0.0
10
77.004997253418
20
79.7200012207031
40
0.0
41
0.0
42
0.0
10
77.3431015014648
20
79.9549026489258
40
0.0
41
0.0
42
0.0
10
77.3653030395508
20
79.989501953125
40
0.0
41
0.0
42
0.0
10
77.410400390625
20
80.105598449707
40
0.0
41
0.0
42
0.0
10
77.4658966064453
20
80.1750030517578
40
0.0
41
0.0
42
0.0
10
77.7807998657227
20
80.4909973144531
40
0.0
41
0.0
42
0.0
10
77.8892974853516
20
80.8751983642578
40
0.0
41
0.0
42
0.0
10
77.9177017211914
20
80.9828033447266
40
0.0
41
0.0
42
0.0
10
77.9240036010742
20
81.4051971435547
40
0.0
41
0.0
42
0.0
10
77.923698425293
20
81.5189971923828
40
0.0
41
0.0
42
0.0
10
77.8781967163086
20
82.0186996459961
40
0.0
41
0.0
42
0.0
10
77.868896484375
20
82.3846969604492
40
0.0
41
0.0
42
0.0
10
77.8692016601562
20
82.4849014282227
40
0.0
41
0.0
42
0.0
10
78.0009002685547
20
82.7530975341797
40
0.0
41
0.0
42
0.0
10
78.0122985839844
20
82.7789001464844
40
0.0
41
0.0
42
0.0
10
78.0944976806641
20
82.993896484375
40
0.0
41
0.0
42
0.0
10
78.1768035888672
20
83.0472030639648
40
0.0
41
0.0
42
0.0
10
78.3946990966797
20
83.2126007080078
40
0.0
41
0.0
42
0.0
10
78.5121002197266
20
83.2566986083984
40
0.0
41
0.0
42
0.0
10
78.8986968994141
20
83.4240036010742
40
0.0
41
0.0
42
0.0
10
79.0162963867188
20
83.4475021362305
40
0.0
41
0.0
42
0.0
10
79.3552017211914
20
83.5007019042969
40
0.0
41
0.0
42
0.0
10
79.397102355957
20
83.5056991577148
40
0.0
41
0.0
42
0.0
10
79.3264007568359
20
83.5045013427734
40
0.0
41
0.0
42
0.0
10
79.2823028564453
20
83.4990997314453
40
0.0
41
0.0
42
0.0
10
78.9835968017578
20
83.4523010253906
40
0.0
41
0.0
42
0.0
10
78.8311996459961
20
83.4218978881836
40
0.0
41
0.0
42
0.0
10
78.4878005981445
20
83.2733001708984
40
0.0
41
0.0
42
0.0
10
78.3351974487305
20
83.2158966064453
40
0.0
41
0.0
42
0.0
10
78.1434020996094
20
83.070198059082
40
0.0
41
0.0
42
0.0
10
78.0442962646484
20
83.0059967041016
40
0.0
41
0.0
42
0.0
10
77.9991989135742
20
82.8899002075195
40
0.0
41
0.0
42
0.0
10
77.8151016235352
20
82.5150985717773
40
0.0
41
0.0
42
0.0
10
77.8145980834961
20
82.2938995361328
40
0.0
41
0.0
42
0.0
10
77.8224029541016
20
81.981201171875
40
0.0
41
0.0
42
0.0
10
77.8676986694336
20
81.4809036254883
40
0.0
41
0.0
42
0.0
10
77.8682022094727
20
81.3794021606445
40
0.0
41
0.0
42
0.0
10
77.8628997802734
20
81.0170974731445
40
0.0
41
0.0
42
0.0
10
77.8130035400391
20
80.8272018432617
40
0.0
41
0.0
42
0.0
10
77.7231979370117
20
80.5090026855469
40
0.0
41
0.0
42
0.0
10
77.4646987915039
20
80.25
40
0.0
41
0.0
42
0.0
10
77.3964996337891
20
80.1643981933594
40
0.0
41
0.0
42
0.0
10
77.3366012573242
20
80.0103988647461
40
0.0
41
0.0
42
0.0
10
77.2987976074219
20
79.951301574707
40
0.0
41
0.0
42
0.0
10
76.9922027587891
20
79.7384033203125
40
0.0
41
0.0
42
0.0
10
76.8149032592773
20
79.6060028076172
40
0.0
41
0.0
42
0.0
10
76.7967987060547
20
79.5831985473633
40
0.0
41
0.0
42
0.0
10
76.7547988891602
20
79.5098037719727
40
0.0
41
0.0
42
0.0
10
76.6918029785156
20
79.3924026489258
40
0.0
41
0.0
42
0.0
10
76.6686019897461
20
79.3686981201172
40
0.0
41
0.0
42
0.0
10
76.4928970336914
20
79.2220993041992
40
0.0
41
0.0
42
0.0
10
76.1922988891602
20
79.0046997070312
40
0.0
41
0.0
42
0.0
10
76.1789016723633
20
78.9872970581055
40
0.0
41
0.0
42
0.0
10
76.1428985595703
20
78.896598815918
40
0.0
41
0.0
42
0.0
10
76.0780029296875
20
78.7600021362305
40
0.0
41
0.0
42
0.0
10
76.0171966552734
20
78.5067977905273
40
0.0
41
0.0
42
0.0
10
76.0165023803711
20
78.5064010620117
40
0.0
41
0.0
42
0.0
10
75.9999008178711
20
78.2380981445312
40
0.0
41
0.0
42
0.0
10
75.7907028198242
20
78.2380981445312
40
0.0
41
0.0
42
0.0
10
75.782600402832
20
78.2282028198242
40
0.0
41
0.0
42
0.0
10
75.7711029052734
20
78.228401184082
40
0.0
41
0.0
42
0.0
10
75.7708969116211
20
78.2173004150391
40
0.0
41
0.0
42
0.0
10
75.9307022094727
20
78.0224990844727
40
0.0
41
0.0
42
0.0
10
75.9559020996094
20
77.9962005615234
40
0.0
41
0.0
42
0.0
10
75.8641967773438
20
77.7524032592773
40
0.0
41
0.0
42
0.0
10
75.8641967773438
20
77.7193984985352
40
0.0
41
0.0
42
0.0
10
75.9300994873047
20
77.5038986206055
40
0.0
41
0.0
42
0.0
10
75.8936004638672
20
77.4476013183594
40
0.0
41
0.0
42
0.0
10
75.875
20
77.4001007080078
40
0.0
41
0.0
42
0.0
10
75.8424987792969
20
77.0141983032227
40
0.0
41
0.0
42
0.0
10
75.7844009399414
20
76.8970031738281
40
0.0
41
0.0
42
0.0
10
75.772102355957
20
76.859001159668
40
0.0
41
0.0
42
0.0
10
75.6753997802734
20
76.5075988769531
40
0.0
41
0.0
42
0.0
10
75.6204986572266
20
76.465202331543
40
0.0
41
0.0
42
0.0
10
75.4961013793945
20
76.3406982421875
40
0.0
41
0.0
42
0.0
10
75.4085006713867
20
76.372802734375
40
0.0
41
0.0
42
0.0
10
75.1705017089844
20
76.5064010620117
40
0.0
41
0.0
42
0.0
10
75.0961990356445
20
76.8980026245117
40
0.0
41
0.0
42
0.0
10
75.0380020141602
20
77.0105972290039
40
0.0
41
0.0
42
0.0
10
75.0491027832031
20
77.1622009277344
40
0.0
41
0.0
42
0.0
10
75.1378021240234
20
77.4847030639648
40
0.0
41
0.0
42
0.0
10
75.1613006591797
20
77.6109008789062
40
0.0
41
0.0
42
0.0
10
75.3237991333008
20
77.9863967895508
40
0.0
41
0.0
42
0.0
10
75.3483963012695
20
78.1006011962891
40
0.0
41
0.0
42
0.0
10
75.4777984619141
20
78.4845962524414
40
0.0
41
0.0
42
0.0
10
75.4803009033203
20
78.5046997070312
40
0.0
41
0.0
42
0.0
10
75.5
20
78.9045028686523
40
0.0
41
0.0
42
0.0
10
75.5803985595703
20
78.9069976806641
40
0.0
41
0.0
42
0.0
10
75.5805969238281
20
78.9302978515625
40
0.0
41
0.0
42
0.0
10
75.5010986328125
20
79.0234985351562
40
0.0
41
0.0
42
0.0
10
75.3844985961914
20
79.4012985229492
40
0.0
41
0.0
42
0.0
10
75.3788986206055
20
79.5142974853516
40
0.0
41
0.0
42
0.0
10
75.1797027587891
20
79.8983001708984
40
0.0
41
0.0
42
0.0
10
75.1621017456055
20
80.0130004882812
40
0.0
41
0.0
42
0.0
10
75.0054016113281
20
80.2927017211914
40
0.0
41
0.0
42
0.0
10
74.9900970458984
20
80.4102020263672
40
0.0
41
0.0
42
0.0
10
74.9884033203125
20
80.4160003662109
40
0.0
41
0.0
42
0.0
10
74.9206008911133
20
80.5092010498047
40
0.0
41
0.0
42
0.0
10
74.7567977905273
20
80.8576965332031
40
0.0
41
0.0
42
0.0
10
74.7612991333008
20
80.9803009033203
40
0.0
41
0.0
42
0.0
10
74.7611999511719
20
81.0192031860352
40
0.0
41
0.0
42
0.0
10
74.7389984130859
20
81.3356018066406
40
0.0
41
0.0
42
0.0
10
74.783203125
20
81.4862976074219
40
0.0
41
0.0
42
0.0
10
74.8832015991211
20
81.7802963256836
40
0.0
41
0.0
42
0.0
10
74.9783020019531
20
81.9896011352539
40
0.0
41
0.0
42
0.0
10
75.1143035888672
20
82.2258987426758
40
0.0
41
0.0
42
0.0
10
75.1789016723633
20
82.3349990844727
40
0.0
41
0.0
42
0.0
10
75.254997253418
20
82.4896011352539
40
0.0
41
0.0
42
0.0
10
75.4181976318359
20
82.7913970947266
40
0.0
41
0.0
42
0.0
10
75.4749984741211
20
82.9847030639648
40
0.0
41
0.0
42
0.0
10
75.4899978637695
20
83.0719985961914
40
0.0
41
0.0
42
0.0
10
75.4900970458984
20
83.5119018554688
40
0.0
41
0.0
42
0.0
10
75.3691024780273
20
83.6456985473633
40
0.0
41
0.0
42
0.0
10
75.21240234375
20
84.007698059082
40
0.0
41
0.0
42
0.0
10
75.0362014770508
20
84.1762008666992
40
0.0
41
0.0
42
0.0
10
75.0081024169922
20
84.1965026855469
40
0.0
41
0.0
42
0.0
10
74.8929977416992
20
84.2698974609375
40
0.0
41
0.0
42
0.0
10
74.7806015014648
20
84.3522033691406
40
0.0
41
0.0
42
0.0
10
74.5923004150391
20
84.5026016235352
40
0.0
41
0.0
42
0.0
10
74.5103988647461
20
84.5513000488281
40
0.0
41
0.0
42
0.0
10
74.3970031738281
20
84.5996017456055
40
0.0
41
0.0
42
0.0
10
74.0148010253906
20
84.7474975585938
40
0.0
41
0.0
42
0.0
10
73.6317977905273
20
84.7951965332031
40
0.0
41
0.0
42
0.0
10
73.5179977416992
20
84.8161010742188
40
0.0
41
0.0
42
0.0
10
73.4817962646484
20
84.8160018920898
40
0.0
41
0.0
42
0.0
10
73.0977020263672
20
84.7488021850586
40
0.0
41
0.0
42
0.0
10
72.9860992431641
20
84.7387008666992
40
0.0
41
0.0
42
0.0
10
72.6120986938477
20
84.5400009155273
40
0.0
41
0.0
42
0.0
10
72.5213012695312
20
84.5009002685547
40
0.0
41
0.0
42
0.0
10
72.4914016723633
20
84.4860000610352
40
0.0
41
0.0
42
0.0
10
72.3785018920898
20
84.3949966430664
40
0.0
41
0.0
42
0.0
10
72.3393020629883
20
84.3601989746094
40
0.0
41
0.0
42
0.0
10
71.9839019775391
20
84.0071029663086
40
0.0
41
0.0
42
0.0
10
71.7891006469727
20
83.6633987426758
40
0.0
41
0.0
42
0.0
10
71.6726989746094
20
83.5110015869141
40
0.0
41
0.0
42
0.0
10
71.6001968383789
20
83.1679000854492
40
0.0
41
0.0
42
0.0
10
71.5755996704102
20
83.1192016601562
40
0.0
41
0.0
42
0.0
10
71.5085983276367
20
83.013801574707
40
0.0
41
0.0
42
0.0
10
71.5084991455078
20
82.9834976196289
40
0.0
41
0.0
42
0.0
10
71.5198974609375
20
82.950798034668
40
0.0
41
0.0
42
0.0
10
71.5780029296875
20
82.4899978637695
40
0.0
41
0.0
42
0.0
10
71.6317977905273
20
82.4389038085938
40
0.0
41
0.0
42
0.0
10
71.973503112793
20
82.0157012939453
40
0.0
41
0.0
42
0.0
10
71.9894027709961
20
81.9943008422852
40
0.0
41
0.0
42
0.0
10
72.493896484375
20
81.5541000366211
40
0.0
41
0.0
42
0.0
10
72.559700012207
20
81.4934997558594
40
0.0
41
0.0
42
0.0
10
72.5796966552734
20
81.46240234375
40
0.0
41
0.0
42
0.0
10
72.714599609375
20
81.2744979858398
40
0.0
41
0.0
42
0.0
10
72.9352035522461
20
80.9906005859375
40
0.0
41
0.0
42
0.0
10
72.9998016357422
20
80.8375015258789
40
0.0
41
0.0
42
0.0
10
73.0833969116211
20
80.4962005615234
40
0.0
41
0.0
42
0.0
10
73.0581970214844
20
80.3303985595703
40
0.0
41
0.0
42
0.0
10
73.0580978393555
20
80.2932968139648
40
0.0
41
0.0
42
0.0
10
73.0947036743164
20
79.9838027954102
40
0.0
41
0.0
42
0.0
10
73.1298980712891
20
79.8470993041992
40
0.0
41
0.0
42
0.0
10
73.0727996826172
20
79.5180969238281
40
0.0
41
0.0
42
0.0
10
73.0727005004883
20
79.4825973510742
40
0.0
41
0.0
42
0.0
10
73.0992965698242
20
79.3788986206055
40
0.0
41
0.0
42
0.0
10
73.057502746582
20
79.0186996459961
40
0.0
41
0.0
42
0.0
10
73.0574035644531
20
78.9841995239258
40
0.0
41
0.0
42
0.0
10
73.1043014526367
20
78.8722991943359
40
0.0
41
0.0
42
0.0
10
73.0903015136719
20
78.5195007324219
40
0.0
41
0.0
42
0.0
10
73.090202331543
20
78.4863967895508
40
0.0
41
0.0
42
0.0
10
73.2798004150391
20
78.2074966430664
40
0.0
41
0.0
42
0.0
10
73.2773971557617
20
78.0146026611328
40
0.0
41
0.0
42
0.0
10
73.0282974243164
20
77.5423965454102
40
0.0
41
0.0
42
0.0
10
73.0287017822266
20
77.5285034179688
40
0.0
41
0.0
42
0.0
10
73.040397644043
20
77.5283966064453
40
0.0
41
0.0
42
0.0
10
73.3889999389648
20
77.7923965454102
40
0.0
41
0.0
42
0.0
10
73.4988021850586
20
77.8876037597656
40
0.0
41
0.0
42
0.0
10
73.6410980224609
20
77.6704025268555
40
0.0
41
0.0
42
0.0
10
73.7837982177734
20
77.4952011108398
40
0.0
41
0.0
42
0.0
10
73.9932022094727
20
77.3391036987305
40
0.0
41
0.0
42
0.0
10
74.0103988647461
20
77.3236999511719
40
0.0
41
0.0
42
0.0
10
74.1585998535156
20
77.1050033569336
40
0.0
41
0.0
42
0.0
10
74.2089996337891
20
76.9850006103516
40
0.0
41
0.0
42
0.0
10
74.2189025878906
20
76.8684005737305
40
0.0
41
0.0
42
0.0
10
74.228401184082
20
76.8303985595703
40
0.0
41
0.0
42
0.0
10
74.3233032226562
20
76.5046997070312
40
0.0
41
0.0
42
0.0
10
74.2415008544922
20
76.4038009643555
40
0.0
41
0.0
42
0.0
10
73.9977035522461
20
76.1406021118164
40
0.0
41
0.0
42
0.0
10
73.8926010131836
20
76.198600769043
40
0.0
41
0.0
42
0.0
10
73.7507019042969
20
76.3274993896484
40
0.0
41
0.0
42
0.0
10
73.5476989746094
20
76.5063018798828
40
0.0
41
0.0
42
0.0
10
73.5027008056641
20
76.5808029174805
40
0.0
41
0.0
42
0.0
10
73.4702987670898
20
76.6211013793945
40
0.0
41
0.0
42
0.0
10
73.3877029418945
20
76.715202331543
40
0.0
41
0.0
42
0.0
10
73.2177963256836
20
77.0103988647461
40
0.0
41
0.0
42
0.0
10
73.0012969970703
20
77.5024032592773
40
0.0
41
0.0
42
0.0
10
72.9842987060547
20
77.5268020629883
40
0.0
41
0.0
42
0.0
10
72.7866973876953
20
78.0158004760742
40
0.0
41
0.0
42
0.0
10
72.7841033935547
20
78.2838973999023
40
0.0
41
0.0
42
0.0
10
72.7683029174805
20
78.2838973999023
40
0.0
41
0.0
42
0.0
10
72.7211990356445
20
78.2678985595703
40
0.0
41
0.0
42
0.0
10
72.5052032470703
20
78.2104034423828
40
0.0
41
0.0
42
0.0
10
72.4246978759766
20
78.3005981445312
40
0.0
41
0.0
42
0.0
10
72.3930969238281
20
78.3330993652344
40
0.0
41
0.0
42
0.0
10
72.1641006469727
20
78.4210968017578
40
0.0
41
0.0
42
0.0
10
72.0098037719727
20
78.4751968383789
40
0.0
41
0.0
42
0.0
10
71.9738006591797
20
78.5027008056641
40
0.0
41
0.0
42
0.0
10
71.9039001464844
20
78.5478973388672
40
0.0
41
0.0
42
0.0
10
71.8946990966797
20
78.5557022094727
40
0.0
41
0.0
42
0.0
10
71.5140991210938
20
78.6725006103516
40
0.0
41
0.0
42
0.0
10
71.1399002075195
20
78.7732009887695
40
0.0
41
0.0
42
0.0
10
71.0063018798828
20
78.8808975219727
40
0.0
41
0.0
42
0.0
10
70.9899978637695
20
78.8954010009766
40
0.0
41
0.0
42
0.0
10
70.6978988647461
20
79.0022964477539
40
0.0
41
0.0
42
0.0
10
70.5828018188477
20
79.1588973999023
40
0.0
41
0.0
42
0.0
10
70.5285034179688
20
79.190299987793
40
0.0
41
0.0
42
0.0
10
70.5043029785156
20
79.2192001342773
40
0.0
41
0.0
42
0.0
10
70.222297668457
20
79.5077972412109
40
0.0
41
0.0
42
0.0
10
70.1849975585938
20
79.5877990722656
40
0.0
41
0.0
42
0.0
10
70.0129013061523
20
80.0130004882812
40
0.0
41
0.0
42
0.0
10
69.8655014038086
20
80.5137023925781
40
0.0
41
0.0
42
0.0
10
69.7016983032227
20
81.0112991333008
40
0.0
41
0.0
42
0.0
10
69.6658020019531
20
81.0727996826172
40
0.0
41
0.0
42
0.0
10
69.6584014892578
20
81.0883026123047
40
0.0
41
0.0
42
0.0
10
69.5074996948242
20
81.190299987793
40
0.0
41
0.0
42
0.0
10
69.1660995483398
20
81.4579010009766
40
0.0
41
0.0
42
0.0
10
69.1316986083984
20
81.4638977050781
40
0.0
41
0.0
42
0.0
10
69.0186004638672
20
81.4792022705078
40
0.0
41
0.0
42
0.0
10
68.9807968139648
20
81.4791030883789
40
0.0
41
0.0
42
0.0
10
68.8878021240234
20
81.4716033935547
40
0.0
41
0.0
42
0.0
10
68.6848983764648
20
81.4941024780273
40
0.0
41
0.0
42
0.0
10
68.6536026000977
20
81.4990997314453
40
0.0
41
0.0
42
0.0
10
68.5188980102539
20
81.5130004882812
40
0.0
41
0.0
42
0.0
10
68.4813995361328
20
81.5129013061523
40
0.0
41
0.0
42
0.0
10
68.253303527832
20
81.4814987182617
40
0.0
41
0.0
42
0.0
10
68.0989990234375
20
81.4577026367188
40
0.0
41
0.0
42
0.0
10
67.986198425293
20
81.4307022094727
40
0.0
41
0.0
42
0.0
10
67.6027984619141
20
81.2817001342773
40
0.0
41
0.0
42
0.0
10
67.4897994995117
20
81.2350997924805
40
0.0
41
0.0
42
0.0
10
67.1707000732422
20
81.0244979858398
40
0.0
41
0.0
42
0.0
10
67.133903503418
20
81.0027008056641
40
0.0
41
0.0
42
0.0
10
67.0586013793945
20
80.9401016235352
40
0.0
41
0.0
42
0.0
10
66.9959030151367
20
80.8787994384766
40
0.0
41
0.0
42
0.0
10
66.7630004882812
20
80.5577011108398
40
0.0
41
0.0
42
0.0
10
66.7198028564453
20
80.5083999633789
40
0.0
41
0.0
42
0.0
10
66.6679000854492
20
80.3972015380859
40
0.0
41
0.0
42
0.0
10
66.5401992797852
20
80.0148010253906
40
0.0
41
0.0
42
0.0
10
66.5239028930664
20
79.9240036010742
40
0.0
41
0.0
42
0.0
10
66.4963989257812
20
79.5466995239258
40
0.0
41
0.0
42
0.0
10
66.4917984008789
20
79.5185012817383
40
0.0
41
0.0
42
0.0
10
66.4922027587891
20
79.4924011230469
40
0.0
41
0.0
42
0.0
210
0.0
220
0.0
230
1.0
0
LWPOLYLINE
5
26
330
1C
100
AcDbEntity
67
0
8
0
62
256
6
ByLayer
370
-1
48
1.0
60
0
100
AcDbPolyline
90
431
70
1
38
0.0
39
0.0
10
79.4924011230469
20
83.5074005126953
40
0.0
41
0.0
42
0.0
10
79.5040969848633
20
83.5055999755859
40
0.0
41
0.0
42
0.0
10
79.8569030761719
20
83.4798965454102
40
0.0
41
0.0
42
0.0
10
79.9862976074219
20
83.4567031860352
40
0.0
41
0.0
42
0.0
10
80.1427001953125
20
83.3836975097656
40
0.0
41
0.0
42
0.0
10
80.4906005859375
20
83.2675018310547
40
0.0
41
0.0
42
0.0
10
80.5615005493164
20
83.2053985595703
40
0.0
41
0.0
42
0.0
10
80.8506011962891
20
82.9957962036133
40
0.0
41
0.0
42
0.0
10
80.9088973999023
20
82.9359970092773
40
0.0
41
0.0
42
0.0
10
80.9971008300781
20
82.8301010131836
40
0.0
41
0.0
42
0.0
10
81.0279006958008
20
82.7780990600586
40
0.0
41
0.0
42
0.0
10
81.2182998657227
20
82.4897994995117
40
0.0
41
0.0
42
0.0
10
81.2830963134766
20
82.3327026367188
40
0.0
41
0.0
42
0.0
10
81.4177017211914
20
81.986198425293
40
0.0
41
0.0
42
0.0
10
81.4552993774414
20
81.8290023803711
40
0.0
41
0.0
42
0.0
10
81.4768981933594
20
81.6886978149414
40
0.0
41
0.0
42
0.0
10
81.5029983520508
20
81.4971008300781
40
0.0
41
0.0
42
0.0
10
81.4670028686523
20
81.1737976074219
40
0.0
41
0.0
42
0.0
10
81.4669036865234
20
81.1358032226562
40
0.0
41
0.0
42
0.0
10
81.4774017333984
20
81.0044021606445
40
0.0
41
0.0
42
0.0
10
81.4626998901367
20
80.893798828125
40
0.0
41
0.0
42
0.0
10
81.1601028442383
20
80.5075988769531
40
0.0
41
0.0
42
0.0
10
81.0795974731445
20
80.3884963989258
40
0.0
41
0.0
42
0.0
10
81.0604019165039
20
80.3793029785156
40
0.0
41
0.0
42
0.0
10
80.9886016845703
20
80.33740234375
40
0.0
41
0.0
42
0.0
10
80.486198425293
20
80.1714019775391
40
0.0
41
0.0
42
0.0
10
80.0809020996094
20
80.0528030395508
40
0.0
41
0.0
42
0.0
10
79.9863967895508
20
80.0274963378906
40
0.0
41
0.0
42
0.0
10
79.6957015991211
20
79.9176025390625
40
0.0
41
0.0
42
0.0
10
79.6190032958984
20
79.8856964111328
40
0.0
41
0.0
42
0.0
10
79.5268020629883
20
79.8427963256836
40
0.0
41
0.0
42
0.0
10
79.4924011230469
20
79.8249969482422
40
0.0
41
0.0
42
0.0
10
79.1641998291016
20
79.5044021606445
40
0.0
41
0.0
42
0.0
10
79.1466979980469
20
79.4897003173828
40
0.0
41
0.0
42
0.0
10
79.1110000610352
20
79.4276962280273
40
0.0
41
0.0
42
0.0
10
78.9974975585938
20
79.3443984985352
40
0.0
41
0.0
42
0.0
10
78.8798980712891
20
79.0225982666016
40
0.0
41
0.0
42
0.0
10
78.8648986816406
20
79.0063018798828
40
0.0
41
0.0
42
0.0
10
78.7734985351562
20
78.8928985595703
40
0.0
41
0.0
42
0.0
10
78.7514038085938
20
78.8565979003906
40
0.0
41
0.0
42
0.0
10
78.6593017578125
20
78.5141983032227
40
0.0
41
0.0
42
0.0
10
78.5521011352539
20
78.1647033691406
40
0.0
41
0.0
42
0.0
10
78.5371017456055
20
78.1467971801758
40
0.0
41
0.0
42
0.0
10
78.4971008300781
20
78.0848999023438
40
0.0
41
0.0
42
0.0
10
78.4395980834961
20
78.0096969604492
40
0.0
41
0.0
42
0.0
10
78.3107986450195
20
77.6629028320312
40
0.0
41
0.0
42
0.0
10
78.1445007324219
20
77.5106964111328
40
0.0
41
0.0
42
0.0
10
78.1445007324219
20
77.4826965332031
40
0.0
41
0.0
42
0.0
10
78.1932983398438
20
77.2996978759766
40
0.0
41
0.0
42
0.0
10
77.9841003417969
20
77.2995986938477
40
0.0
41
0.0
42
0.0
10
77.652099609375
20
77.1633987426758
40
0.0
41
0.0
42
0.0
10
77.4917984008789
20
77.0510025024414
40
0.0
41
0.0
42
0.0
10
77.4171981811523
20
77.0014038085938
40
0.0
41
0.0
42
0.0
10
76.9894027709961
20
76.8130035400391
40
0.0
41
0.0
42
0.0
10
76.7702026367188
20
76.6878967285156
40
0.0
41
0.0
42
0.0
10
76.7201995849609
20
76.6578979492188
40
0.0
41
0.0
42
0.0
10
76.5388031005859
20
76.5028991699219
40
0.0
41
0.0
42
0.0
10
76.4935989379883
20
76.4755020141602
40
0.0
41
0.0
42
0.0
10
76.3827972412109
20
76.3496017456055
40
0.0
41
0.0
42
0.0
10
76.2127990722656
20
76.1626968383789
40
0.0
41
0.0
42
0.0
10
76.1309967041016
20
76.0145034790039
40
0.0
41
0.0
42
0.0
10
76.1308975219727
20
75.9890975952148
40
0.0
41
0.0
42
0.0
10
76.3727035522461
20
75.7649002075195
40
0.0
41
0.0
42
0.0
10
76.4875030517578
20
75.6707992553711
40
0.0
41
0.0
42
0.0
10
76.5190963745117
20
75.6707000732422
40
0.0
41
0.0
42
0.0
10
76.6327972412109
20
75.6802978515625
40
0.0
41
0.0
42
0.0
10
76.6707000732422
20
75.6848983764648
40
0.0
41
0.0
42
0.0
10
77.0129013061523
20
75.7844009399414
40
0.0
41
0.0
42
0.0
10
77.1649017333984
20
75.8482971191406
40
0.0
41
0.0
42
0.0
10
77.3535003662109
20
75.9760971069336
40
0.0
41
0.0
42
0.0
10
77.3686981201172
20
75.9932022094727
40
0.0
41
0.0
42
0.0
10
77.5044021606445
20
76.1751022338867
40
0.0
41
0.0
42
0.0
10
77.5326995849609
20
76.2002029418945
40
0.0
41
0.0
42
0.0
10
77.7068023681641
20
76.3419036865234
40
0.0
41
0.0
42
0.0
10
77.8367004394531
20
76.4257965087891
40
0.0
41
0.0
42
0.0
10
77.948600769043
20
76.4918975830078
40
0.0
41
0.0
42
0.0
10
77.9485015869141
20
76.5121002197266
40
0.0
41
0.0
42
0.0
10
77.9026031494141
20
76.5649032592773
40
0.0
41
0.0
42
0.0
10
77.8231964111328
20
76.6698989868164
40
0.0
41
0.0
42
0.0
10
77.8391036987305
20
76.6884994506836
40
0.0
41
0.0
42
0.0
10
77.9851989746094
20
76.6104965209961
40
0.0
41
0.0
42
0.0
10
78.1225967407227
20
76.6100997924805
40
0.0
41
0.0
42
0.0
10
78.5117034912109
20
76.8746032714844
40
0.0
41
0.0
42
0.0
10
78.8254013061523
20
76.8621978759766
40
0.0
41
0.0
42
0.0
10
78.8607025146484
20
76.8620986938477
40
0.0
41
0.0
42
0.0
10
79.0131988525391
20
76.9261016845703
40
0.0
41
0.0
42
0.0
10
79.161003112793
20
76.9641036987305
40
0.0
41
0.0
42
0.0
10
79.4830017089844
20
76.9265975952148
40
0.0
41
0.0
42
0.0
10
79.8208999633789
20
76.8677978515625
40
0.0
41
0.0
42
0.0
10
79.8662033081055
20
76.8619995117188
40
0.0
41
0.0
42
0.0
10
79.9022979736328
20
76.8620986938477
40
0.0
41
0.0
42
0.0
10
80.0160980224609
20
76.8914031982422
40
0.0
41
0.0
42
0.0
10
80.2293014526367
20
76.9166030883789
40
0.0
41
0.0
42
0.0
10
80.4814987182617
20
76.878303527832
40
0.0
41
0.0
42
0.0
10
80.5174026489258
20
76.878303527832
40
0.0
41
0.0
42
0.0
10
81.0110015869141
20
76.9987030029297
40
0.0
41
0.0
42
0.0
10
81.4406967163086
20
77.3070983886719
40
0.0
41
0.0
42
0.0
10
81.5063018798828
20
77.3494033813477
40
0.0
41
0.0
42
0.0
10
81.6395034790039
20
77.4940032958984
40
0.0
41
0.0
42
0.0
10
81.9683990478516
20
77.8711013793945
40
0.0
41
0.0
42
0.0
10
82.0039978027344
20
77.9156036376953
40
0.0
41
0.0
42
0.0
10
82.0783004760742
20
77.9953002929688
40
0.0
41
0.0
42
0.0
10
82.4123992919922
20
78.2650985717773
40
0.0
41
0.0
42
0.0
10
82.5099029541016
20
78.3676986694336
40
0.0
41
0.0
42
0.0
10
82.8609008789062
20
78.4121017456055
40
0.0
41
0.0
42
0.0
10
82.9969024658203
20
78.4593963623047
40
0.0
41
0.0
42
0.0
10
83.0716018676758
20
78.4116973876953
40
0.0
41
0.0
42
0.0
10
83.1018981933594
20
78.3964996337891
40
0.0
41
0.0
42
0.0
10
83.488899230957
20
78.3145980834961
40
0.0
41
0.0
42
0.0
10
83.6064987182617
20
78.2247009277344
40
0.0
41
0.0
42
0.0
10
83.9927978515625
20
78.0057983398438
40
0.0
41
0.0
42
0.0
10
84.3687973022461
20
77.6269989013672
40
0.0
41
0.0
42
0.0
10
84.4781036376953
20
77.4912033081055
40
0.0
41
0.0
42
0.0
10
84.4990005493164
20
77.4484024047852
40
0.0
41
0.0
42
0.0
10
84.551399230957
20
77.3267974853516
40
0.0
41
0.0
42
0.0
10
84.7325973510742
20
76.9860992431641
40
0.0
41
0.0
42
0.0
10
84.7469024658203
20
76.8276977539062
40
0.0
41
0.0
42
0.0
10
84.8041000366211
20
76.5003967285156
40
0.0
41
0.0
42
0.0
10
84.7788009643555
20
76.3618011474609
40
0.0
41
0.0
42
0.0
10
84.7356033325195
20
76.0148010253906
40
0.0
41
0.0
42
0.0
10
84.6009979248047
20
75.6671981811523
40
0.0
41
0.0
42
0.0
10
84.5625
20
75.5731964111328
40
0.0
41
0.0
42
0.0
10
84.5343017578125
20
75.5102996826172
40
0.0
41
0.0
42
0.0
10
84.4972991943359
20
75.4477996826172
40
0.0
41
0.0
42
0.0
10
84.3890991210938
20
75.3124008178711
40
0.0
41
0.0
42
0.0
10
84.2798004150391
20
75.1631011962891
40
0.0
41
0.0
42
0.0
10
84.1808013916016
20
75.0082015991211
40
0.0
41
0.0
42
0.0
10
84.1508026123047
20
74.9662017822266
40
0.0
41
0.0
42
0.0
10
83.9922027587891
20
74.8005981445312
40
0.0
41
0.0
42
0.0
10
83.6448974609375
20
74.6501998901367
40
0.0
41
0.0
42
0.0
10
83.6076965332031
20
74.6262969970703
40
0.0
41
0.0
42
0.0
10
83.4879989624023
20
74.5183029174805
40
0.0
41
0.0
42
0.0
10
83.2142028808594
20
74.5182037353516
40
0.0
41
0.0
42
0.0
10
83.0151977539062
20
74.5524978637695
40
0.0
41
0.0
42
0.0
10
82.8659973144531
20
74.5962982177734
40
0.0
41
0.0
42
0.0
10
82.5102996826172
20
74.7885971069336
40
0.0
41
0.0
42
0.0
10
82.3948974609375
20
74.8452987670898
40
0.0
41
0.0
42
0.0
10
82.2718963623047
20
74.9182968139648
40
0.0
41
0.0
42
0.0
10
82.0102996826172
20
75.0698013305664
40
0.0
41
0.0
42
0.0
10
81.8582992553711
20
75.1389007568359
40
0.0
41
0.0
42
0.0
10
81.5136032104492
20
75.2559967041016
40
0.0
41
0.0
42
0.0
10
81.4019012451172
20
75.2888031005859
40
0.0
41
0.0
42
0.0
10
81.3656997680664
20
75.2886962890625
40
0.0
41
0.0
42
0.0
10
80.9853973388672
20
75.2619018554688
40
0.0
41
0.0
42
0.0
10
80.6023025512695
20
75.0817031860352
40
0.0
41
0.0
42
0.0
10
80.4865036010742
20
75.084602355957
40
0.0
41
0.0
42
0.0
10
80.3852996826172
20
75.0109024047852
40
0.0
41
0.0
42
0.0
10
80.2370986938477
20
74.9916000366211
40
0.0
41
0.0
42
0.0
10
79.9898986816406
20
74.8531036376953
40
0.0
41
0.0
42
0.0
10
79.6416015625
20
74.6725006103516
40
0.0
41
0.0
42
0.0
10
79.4821014404297
20
74.6479034423828
40
0.0
41
0.0
42
0.0
10
79.3285980224609
20
74.6404037475586
40
0.0
41
0.0
42
0.0
10
78.9932022094727
20
74.5369033813477
40
0.0
41
0.0
42
0.0
10
78.5169982910156
20
74.5627975463867
40
0.0
41
0.0
42
0.0
10
78.431999206543
20
74.5820007324219
40
0.0
41
0.0
42
0.0
10
78.0126037597656
20
74.7136001586914
40
0.0
41
0.0
42
0.0
10
77.681999206543
20
74.8566970825195
40
0.0
41
0.0
42
0.0
10
77.5151977539062
20
74.8877029418945
40
0.0
41
0.0
42
0.0
10
77.2573013305664
20
74.9587020874023
40
0.0
41
0.0
42
0.0
10
77.0192031860352
20
74.9761962890625
40
0.0
41
0.0
42
0.0
10
76.9850997924805
20
74.9760971069336
40
0.0
41
0.0
42
0.0
10
76.831901550293
20
74.8967971801758
40
0.0
41
0.0
42
0.0
10
76.4934997558594
20
74.8328018188477
40
0.0
41
0.0
42
0.0
10
76.3578033447266
20
74.589599609375
40
0.0
41
0.0
42
0.0
10
76.3308029174805
20
74.5161972045898
40
0.0
41
0.0
42
0.0
10
76.3307037353516
20
74.4886016845703
40
0.0
41
0.0
42
0.0
10
76.466796875
20
74.3525009155273
40
0.0
41
0.0
42
0.0
10
76.4935989379883
20
74.3178024291992
40
0.0
41
0.0
42
0.0
10
76.6038970947266
20
74.2630996704102
40
0.0
41
0.0
42
0.0
10
76.6420974731445
20
74.2456970214844
40
0.0
41
0.0
42
0.0
10
76.9835968017578
20
74.1516036987305
40
0.0
41
0.0
42
0.0
10
77.3298034667969
20
74.1222991943359
40
0.0
41
0.0
42
0.0
10
77.4051971435547
20
74.0927963256836
40
0.0
41
0.0
42
0.0
10
77.486198425293
20
74.040397644043
40
0.0
41
0.0
42
0.0
10
77.5167999267578
20
74.0402984619141
40
0.0
41
0.0
42
0.0
10
77.6432037353516
20
74.0787963867188
40
0.0
41
0.0
42
0.0
10
77.8519973754883
20
74.0005035400391
40
0.0
41
0.0
42
0.0
10
77.9832992553711
20
73.9860992431641
40
0.0
41
0.0
42
0.0
10
78.0137023925781
20
73.9795989990234
40
0.0
41
0.0
42
0.0
10
78.4831008911133
20
73.948600769043
40
0.0
41
0.0
42
0.0
10
78.7083969116211
20
73.894401550293
40
0.0
41
0.0
42
0.0
10
78.8332977294922
20
73.8349990844727
40
0.0
41
0.0
42
0.0
10
78.9608001708984
20
73.7845001220703
40
0.0
41
0.0
42
0.0
10
78.9952011108398
20
73.757698059082
40
0.0
41
0.0
42
0.0
10
79.186897277832
20
73.4927978515625
40
0.0
41
0.0
42
0.0
10
79.3123016357422
20
73.3423004150391
40
0.0
41
0.0
42
0.0
10
79.3375015258789
20
73.3177032470703
40
0.0
41
0.0
42
0.0
10
79.4900970458984
20
73.2358016967773
40
0.0
41
0.0
42
0.0
10
79.5768966674805
20
73.1862030029297
40
0.0
41
0.0
42
0.0
10
79.7218017578125
20
72.9922027587891
40
0.0
41
0.0
42
0.0
10
79.9549026489258
20
72.6566009521484
40
0.0
41
0.0
42
0.0
10
79.989501953125
20
72.6343994140625
40
0.0
41
0.0
42
0.0
10
80.1054992675781
20
72.5893020629883
40
0.0
41
0.0
42
0.0
10
80.1748962402344
20
72.5339965820312
40
0.0
41
0.0
42
0.0
10
80.4908981323242
20
72.2189025878906
40
0.0
41
0.0
42
0.0
10
80.8751983642578
20
72.1103973388672
40
0.0
41
0.0
42
0.0
10
80.9825973510742
20
72.0820999145508
40
0.0
41
0.0
42
0.0
10
81.0692977905273
20
72.0823974609375
40
0.0
41
0.0
42
0.0
10
81.5190963745117
20
72.0761032104492
40
0.0
41
0.0
42
0.0
10
82.0175018310547
20
72.1215972900391
40
0.0
41
0.0
42
0.0
10
82.1399993896484
20
72.1212005615234
40
0.0
41
0.0
42
0.0
10
82.4863967895508
20
72.1296997070312
40
0.0
41
0.0
42
0.0
10
82.7791976928711
20
71.9872970581055
40
0.0
41
0.0
42
0.0
10
82.9937973022461
20
71.9052963256836
40
0.0
41
0.0
42
0.0
10
83.0472030639648
20
71.822998046875
40
0.0
41
0.0
42
0.0
10
83.2126007080078
20
71.6052017211914
40
0.0
41
0.0
42
0.0
10
83.2565994262695
20
71.4878005981445
40
0.0
41
0.0
42
0.0
10
83.4240036010742
20
71.1011962890625
40
0.0
41
0.0
42
0.0
10
83.4475021362305
20
70.9835968017578
40
0.0
41
0.0
42
0.0
10
83.5007019042969
20
70.6445999145508
40
0.0
41
0.0
42
0.0
10
83.5056991577148
20
70.6026000976562
40
0.0
41
0.0
42
0.0
10
83.5045013427734
20
70.6735000610352
40
0.0
41
0.0
42
0.0
10
83.4990997314453
20
70.7174987792969
40
0.0
41
0.0
42
0.0
10
83.4522018432617
20
71.0162963867188
40
0.0
41
0.0
42
0.0
10
83.4217987060547
20
71.1686019897461
40
0.0
41
0.0
42
0.0
10
83.2732009887695
20
71.5121002197266
40
0.0
41
0.0
42
0.0
10
83.2157974243164
20
71.6647033691406
40
0.0
41
0.0
42
0.0
10
83.070198059082
20
71.8563995361328
40
0.0
41
0.0
42
0.0
10
83.0059967041016
20
71.9554977416992
40
0.0
41
0.0
42
0.0
10
82.8899002075195
20
72.000602722168
40
0.0
41
0.0
42
0.0
10
82.5152969360352
20
72.1844024658203
40
0.0
41
0.0
42
0.0
10
82.1630020141602
20
72.1768035888672
40
0.0
41
0.0
42
0.0
10
81.9809036254883
20
72.1772994995117
40
0.0
41
0.0
42
0.0
10
81.4866027832031
20
72.1324005126953
40
0.0
41
0.0
42
0.0
10
81.1583023071289
20
72.1373977661133
40
0.0
41
0.0
42
0.0
10
81.0167999267578
20
72.1369018554688
40
0.0
41
0.0
42
0.0
10
80.8272018432617
20
72.1866989135742
40
0.0
41
0.0
42
0.0
10
80.508903503418
20
72.2766036987305
40
0.0
41
0.0
42
0.0
10
80.2499008178711
20
72.5350036621094
40
0.0
41
0.0
42
0.0
10
80.1642990112305
20
72.6033020019531
40
0.0
41
0.0
42
0.0
10
80.0103988647461
20
72.6631011962891
40
0.0
41
0.0
42
0.0
10
79.9512023925781
20
72.7009963989258
40
0.0
41
0.0
42
0.0
10
79.7382965087891
20
73.0075988769531
40
0.0
41
0.0
42
0.0
10
79.6059036254883
20
73.1848983764648
40
0.0
41
0.0
42
0.0
10
79.5831985473633
20
73.2029037475586
40
0.0
41
0.0
42
0.0
10
79.5096969604492
20
73.2449035644531
40
0.0
41
0.0
42
0.0
10
79.3923034667969
20
73.3078994750977
40
0.0
41
0.0
42
0.0
10
79.3685989379883
20
73.3311004638672
40
0.0
41
0.0
42
0.0
10
79.2220993041992
20
73.5070037841797
40
0.0
41
0.0
42
0.0
10
79.0046997070312
20
73.8074035644531
40
0.0
41
0.0
42
0.0
10
78.9872970581055
20
73.82080078125
40
0.0
41
0.0
42
0.0
10
78.8964996337891
20
73.8567962646484
40
0.0
41
0.0
42
0.0
10
78.7600021362305
20
73.9216995239258
40
0.0
41
0.0
42
0.0
10
78.5065994262695
20
73.9832000732422
40
0.0
41
0.0
42
0.0
10
78.2380981445312
20
74.0000991821289
40
0.0
41
0.0
42
0.0
10
78.2379989624023
20
74.2091979980469
40
0.0
41
0.0
42
0.0
10
78.2282028198242
20
74.2173004150391
40
0.0
41
0.0
42
0.0
10
78.2283020019531
20
74.2285003662109
40
0.0
41
0.0
42
0.0
10
78.2171020507812
20
74.2285995483398
40
0.0
41
0.0
42
0.0
10
78.0224990844727
20
74.0690002441406
40
0.0
41
0.0
42
0.0
10
77.9962997436523
20
74.0438003540039
40
0.0
41
0.0
42
0.0
10
77.7524032592773
20
74.135498046875
40
0.0
41
0.0
42
0.0
10
77.7194976806641
20
74.135498046875
40
0.0
41
0.0
42
0.0
10
77.5038986206055
20
74.0696029663086
40
0.0
41
0.0
42
0.0
10
77.4476013183594
20
74.1061019897461
40
0.0
41
0.0
42
0.0
10
77.4001007080078
20
74.1247024536133
40
0.0
41
0.0
42
0.0
10
77.0161972045898
20
74.157096862793
40
0.0
41
0.0
42
0.0
10
76.6349029541016
20
74.2621994018555
40
0.0
41
0.0
42
0.0
10
76.5062026977539
20
74.3261032104492
40
0.0
41
0.0
42
0.0
10
76.4651031494141
20
74.3793029785156
40
0.0
41
0.0
42
0.0
10
76.3406982421875
20
74.5037994384766
40
0.0
41
0.0
42
0.0
10
76.3729019165039
20
74.5913009643555
40
0.0
41
0.0
42
0.0
10
76.5064010620117
20
74.8292007446289
40
0.0
41
0.0
42
0.0
10
76.8980026245117
20
74.9035034179688
40
0.0
41
0.0
42
0.0
10
77.0105972290039
20
74.9617004394531
40
0.0
41
0.0
42
0.0
10
77.1622009277344
20
74.9505996704102
40
0.0
41
0.0
42
0.0
10
77.4847030639648
20
74.8619003295898
40
0.0
41
0.0
42
0.0
10
77.6109008789062
20
74.8384017944336
40
0.0
41
0.0
42
0.0
10
77.9872970581055
20
74.6754989624023
40
0.0
41
0.0
42
0.0
10
78.4577026367188
20
74.527702331543
40
0.0
41
0.0
42
0.0
10
78.4834976196289
20
74.5220031738281
40
0.0
41
0.0
42
0.0
10
78.5046997070312
20
74.519401550293
40
0.0
41
0.0
42
0.0
10
78.9045028686523
20
74.4999008178711
40
0.0
41
0.0
42
0.0
10
78.9069976806641
20
74.4190979003906
40
0.0
41
0.0
42
0.0
10
78.9304962158203
20
74.4189987182617
40
0.0
41
0.0
42
0.0
10
79.0059967041016
20
74.4823989868164
40
0.0
41
0.0
42
0.0
10
79.0230026245117
20
74.4984970092773
40
0.0
41
0.0
42
0.0
10
79.4012985229492
20
74.6151962280273
40
0.0
41
0.0
42
0.0
10
79.5177993774414
20
74.6209030151367
40
0.0
41
0.0
42
0.0
10
79.6284027099609
20
74.6380004882812
40
0.0
41
0.0
42
0.0
10
80.0100021362305
20
74.8358993530273
40
0.0
41
0.0
42
0.0
10
80.2927017211914
20
74.9943008422852
40
0.0
41
0.0
42
0.0
10
80.4102020263672
20
75.0095977783203
40
0.0
41
0.0
42
0.0
10
80.4160003662109
20
75.0112991333008
40
0.0
41
0.0
42
0.0
10
80.5115966796875
20
75.0805969238281
40
0.0
41
0.0
42
0.0
10
80.6352996826172
20
75.076301574707
40
0.0
41
0.0
42
0.0
10
80.6703033447266
20
75.076301574707
40
0.0
41
0.0
42
0.0
10
81.0146026611328
20
75.2381973266602
40
0.0
41
0.0
42
0.0
10
81.3356018066406
20
75.2606964111328
40
0.0
41
0.0
42
0.0
10
81.4862976074219
20
75.2164993286133
40
0.0
41
0.0
42
0.0
10
81.7802963256836
20
75.1165008544922
40
0.0
41
0.0
42
0.0
10
81.989501953125
20
75.0214004516602
40
0.0
41
0.0
42
0.0
10
82.2257995605469
20
74.8853988647461
40
0.0
41
0.0
42
0.0
10
82.3348999023438
20
74.82080078125
40
0.0
41
0.0
42
0.0
10
82.489501953125
20
74.7446975708008
40
0.0
41
0.0
42
0.0
10
82.7913970947266
20
74.5814971923828
40
0.0
41
0.0
42
0.0
10
82.9847030639648
20
74.5246963500977
40
0.0
41
0.0
42
0.0
10
83.0719985961914
20
74.5096969604492
40
0.0
41
0.0
42
0.0
10
83.5119018554688
20
74.5096969604492
40
0.0
41
0.0
42
0.0
10
83.6457977294922
20
74.6305999755859
40
0.0
41
0.0
42
0.0
10
84.007698059082
20
74.7873001098633
40
0.0
41
0.0
42
0.0
10
84.1763000488281
20
74.9635009765625
40
0.0
41
0.0
42
0.0
10
84.1965026855469
20
74.9917984008789
40
0.0
41
0.0
42
0.0
10
84.2699966430664
20
75.1067962646484
40
0.0
41
0.0
42
0.0
10
84.3522033691406
20
75.2192001342773
40
0.0
41
0.0
42
0.0
10
84.5026016235352
20
75.4074020385742
40
0.0
41
0.0
42
0.0
10
84.5513000488281
20
75.489501953125
40
0.0
41
0.0
42
0.0
10
84.5996017456055
20
75.6027984619141
40
0.0
41
0.0
42
0.0
10
84.7474975585938
20
75.9850997924805
40
0.0
41
0.0
42
0.0
10
84.7953033447266
20
76.3681030273438
40
0.0
41
0.0
42
0.0
10
84.8161010742188
20
76.4819030761719
40
0.0
41
0.0
42
0.0
10
84.8160018920898
20
76.5180969238281
40
0.0
41
0.0
42
0.0
10
84.7488021850586
20
76.9021987915039
40
0.0
41
0.0
42
0.0
10
84.7387008666992
20
77.013801574707
40
0.0
41
0.0
42
0.0
10
84.5400009155273
20
77.3877029418945
40
0.0
41
0.0
42
0.0
10
84.5008010864258
20
77.4785003662109
40
0.0
41
0.0
42
0.0
10
84.4859008789062
20
77.5084991455078
40
0.0
41
0.0
42
0.0
10
84.3948974609375
20
77.6212997436523
40
0.0
41
0.0
42
0.0
10
84.3601989746094
20
77.6604995727539
40
0.0
41
0.0
42
0.0
10
84.0195999145508
20
78.0046997070312
40
0.0
41
0.0
42
0.0
10
84.0075988769531
20
78.0156021118164
40
0.0
41
0.0
42
0.0
10
83.6632995605469
20
78.2107009887695
40
0.0
41
0.0
42
0.0
10
83.5109024047852
20
78.3270034790039
40
0.0
41
0.0
42
0.0
10
83.1679000854492
20
78.3994979858398
40
0.0
41
0.0
42
0.0
10
83.1191024780273
20
78.4241027832031
40
0.0
41
0.0
42
0.0
10
83.013801574707
20
78.4913024902344
40
0.0
41
0.0
42
0.0
10
82.9834976196289
20
78.4912033081055
40
0.0
41
0.0
42
0.0
10
82.950798034668
20
78.4797973632812
40
0.0
41
0.0
42
0.0
10
82.4899978637695
20
78.4216995239258
40
0.0
41
0.0
42
0.0
10
82.4389038085938
20
78.3679962158203
40
0.0
41
0.0
42
0.0
10
82.0157012939453
20
78.0261993408203
40
0.0
41
0.0
42
0.0
10
81.9943008422852
20
78.0102996826172
40
0.0
41
0.0
42
0.0
10
81.55419921875
20
77.5058975219727
40
0.0
41
0.0
42
0.0
10
81.4935989379883
20
77.4400024414062
40
0.0
41
0.0
42
0.0
10
81.4625015258789
20
77.4200973510742
40
0.0
41
0.0
42
0.0
10
81.2744979858398
20
77.2852020263672
40
0.0
41
0.0
42
0.0
10
80.9906997680664
20
77.0645980834961
40
0.0
41
0.0
42
0.0
10
80.8376007080078
20
77.0
40
0.0
41
0.0
42
0.0
10
80.4962005615234
20
76.9162979125977
40
0.0
41
0.0
42
0.0
10
80.3303985595703
20
76.9417037963867
40
0.0
41
0.0
42
0.0
10
80.2932968139648
20
76.9415969848633
40
0.0
41
0.0
42
0.0
10
79.9838027954102
20
76.9050979614258
40
0.0
41
0.0
42
0.0
10
79.8470993041992
20
76.8697967529297
40
0.0
41
0.0
42
0.0
10
79.5168991088867
20
76.9272003173828
40
0.0
41
0.0
42
0.0
10
79.1336975097656
20
76.9720001220703
40
0.0
41
0.0
42
0.0
10
79.0976028442383
20
76.9719009399414
40
0.0
41
0.0
42
0.0
10
78.986701965332
20
76.9434967041016
40
0.0
41
0.0
42
0.0
10
78.8722991943359
20
76.8954010009766
40
0.0
41
0.0
42
0.0
10
78.5195007324219
20
76.9095993041992
40
0.0
41
0.0
42
0.0
10
78.4863967895508
20
76.9095001220703
40
0.0
41
0.0
42
0.0
10
78.2074966430664
20
76.7199020385742
40
0.0
41
0.0
42
0.0
10
78.0146026611328
20
76.722297668457
40
0.0
41
0.0
42
0.0
10
77.5422973632812
20
76.9713973999023
40
0.0
41
0.0
42
0.0
10
77.5285034179688
20
76.9710006713867
40
0.0
41
0.0
42
0.0
10
77.5283966064453
20
76.9593963623047
40
0.0
41
0.0
42
0.0
10
77.7922973632812
20
76.6107025146484
40
0.0
41
0.0
42
0.0
10
77.8874969482422
20
76.5010986328125
40
0.0
41
0.0
42
0.0
10
77.7987976074219
20
76.448600769043
40
0.0
41
0.0
42
0.0
10
77.7046966552734
20
76.3879013061523
40
0.0
41
0.0
42
0.0
10
77.5130996704102
20
76.2320022583008
40
0.0
41
0.0
42
0.0
10
77.4954986572266
20
76.2163009643555
40
0.0
41
0.0
42
0.0
10
77.3392028808594
20
76.0066986083984
40
0.0
41
0.0
42
0.0
10
77.3237991333008
20
75.9894027709961
40
0.0
41
0.0
42
0.0
10
77.1050033569336
20
75.8411026000977
40
0.0
41
0.0
42
0.0
10
76.9869995117188
20
75.7916030883789
40
0.0
41
0.0
42
0.0
10
76.6059036254883
20
75.6807022094727
40
0.0
41
0.0
42
0.0
10
76.5094985961914
20
75.6725006103516
40
0.0
41
0.0
42
0.0
10
76.4037017822266
20
75.7582015991211
40
0.0
41
0.0
42
0.0
10
76.1406021118164
20
76.002197265625
40
0.0
41
0.0
42
0.0
10
76.198600769043
20
76.1072998046875
40
0.0
41
0.0
42
0.0
10
76.3274993896484
20
76.2490005493164
40
0.0
41
0.0
42
0.0
10
76.5063018798828
20
76.4520034790039
40
0.0
41
0.0
42
0.0
10
76.5804977416992
20
76.4970016479492
40
0.0
41
0.0
42
0.0
10
76.7154006958008
20
76.6121978759766
40
0.0
41
0.0
42
0.0
10
77.010498046875
20
76.7818984985352
40
0.0
41
0.0
42
0.0
10
77.5022964477539
20
76.9982986450195
40
0.0
41
0.0
42
0.0
10
77.5268020629883
20
77.0154037475586
40
0.0
41
0.0
42
0.0
10
78.0158004760742
20
77.2130966186523
40
0.0
41
0.0
42
0.0
10
78.2838973999023
20
77.2157974243164
40
0.0
41
0.0
42
0.0
10
78.2837982177734
20
77.2314987182617
40
0.0
41
0.0
42
0.0
10
78.2678985595703
20
77.2786026000977
40
0.0
41
0.0
42
0.0
10
78.2104034423828
20
77.4945983886719
40
0.0
41
0.0
42
0.0
10
78.3330993652344
20
77.6070022583008
40
0.0
41
0.0
42
0.0
10
78.4755020141602
20
77.9901962280273
40
0.0
41
0.0
42
0.0
10
78.502799987793
20
78.0259017944336
40
0.0
41
0.0
42
0.0
10
78.5478973388672
20
78.0958023071289
40
0.0
41
0.0
42
0.0
10
78.5557022094727
20
78.1052017211914
40
0.0
41
0.0
42
0.0
10
78.6725997924805
20
78.4858016967773
40
0.0
41
0.0
42
0.0
10
78.7732009887695
20
78.8600006103516
40
0.0
41
0.0
42
0.0
10
78.8808975219727
20
78.9935989379883
40
0.0
41
0.0
42
0.0
10
78.8955001831055
20
79.0098037719727
40
0.0
41
0.0
42
0.0
10
79.0024032592773
20
79.3019027709961
40
0.0
41
0.0
42
0.0
10
79.1589965820312
20
79.4169998168945
40
0.0
41
0.0
42
0.0
10
79.1903991699219
20
79.4711990356445
40
0.0
41
0.0
42
0.0
10
79.2192001342773
20
79.4954986572266
40
0.0
41
0.0
42
0.0
10
79.5074996948242
20
79.777099609375
40
0.0
41
0.0
42
0.0
10
79.5614013671875
20
79.8050003051758
40
0.0
41
0.0
42
0.0
10
79.6455993652344
20
79.8441009521484
40
0.0
41
0.0
42
0.0
10
79.7505035400391
20
79.8879013061523
40
0.0
41
0.0
42
0.0
10
80.013298034668
20
79.9869003295898
40
0.0
41
0.0
42
0.0
10
80.5137023925781
20
80.1342010498047
40
0.0
41
0.0
42
0.0
10
81.0112991333008
20
80.2979965209961
40
0.0
41
0.0
42
0.0
10
81.0727996826172
20
80.3339004516602
40
0.0
41
0.0
42
0.0
10
81.0883026123047
20
80.3414001464844
40
0.0
41
0.0
42
0.0
10
81.190299987793
20
80.492301940918
40
0.0
41
0.0
42
0.0
10
81.4579010009766
20
80.8338012695312
40
0.0
41
0.0
42
0.0
10
81.4638977050781
20
80.8682022094727
40
0.0
41
0.0
42
0.0
10
81.4792022705078
20
80.9813003540039
40
0.0
41
0.0
42
0.0
10
81.4791030883789
20
81.0190963745117
40
0.0
41
0.0
42
0.0
10
81.4716033935547
20
81.1120986938477
40
0.0
41
0.0
42
0.0
10
81.4941024780273
20
81.3149032592773
40
0.0
41
0.0
42
0.0
10
81.4990997314453
20
81.3461990356445
40
0.0
41
0.0
42
0.0
10
81.5130004882812
20
81.4810028076172
40
0.0
41
0.0
42
0.0
10
81.5128021240234
20
81.5185012817383
40
0.0
41
0.0
42
0.0
10
81.4814987182617
20
81.7464981079102
40
0.0
41
0.0
42
0.0
10
81.4577026367188
20
81.9009017944336
40
0.0
41
0.0
42
0.0
10
81.4307022094727
20
82.0137023925781
40
0.0
41
0.0
42
0.0
10
81.2816009521484
20
82.397102355957
40
0.0
41
0.0
42
0.0
10
81.2350006103516
20
82.5100021362305
40
0.0
41
0.0
42
0.0
10
81.0244979858398
20
82.8291015625
40
0.0
41
0.0
42
0.0
10
81.0027008056641
20
82.8658981323242
40
0.0
41
0.0
42
0.0
10
80.9401016235352
20
82.9411010742188
40
0.0
41
0.0
42
0.0
10
80.8787002563477
20
83.0038986206055
40
0.0
41
0.0
42
0.0
10
80.5576019287109
20
83.2368011474609
40
0.0
41
0.0
42
0.0
10
80.5092010498047
20
83.2790985107422
40
0.0
41
0.0
42
0.0
10
80.1270980834961
20
83.4066009521484
40
0.0
41
0.0
42
0.0
10
80.0134963989258
20
83.4598007202148
40
0.0
41
0.0
42
0.0
10
79.9240036010742
20
83.4757995605469
40
0.0
41
0.0
42
0.0
10
79.5466995239258
20
83.503303527832
40
0.0
41
0.0
42
0.0
10
79.5185012817383
20
83.5078964233398
40
0.0
41
0.0
42
0.0
10
79.4924011230469
20
83.5074005126953
40
0.0
41
0.0
42
0.0
210
0.0
220
0.0
230
1.0
0
LWPOLYLINE
5
27
330
1C
100
AcDbEntity
67
0
8
0
62
256
6
ByLayer
370
-1
48
1.0
60
0
100
AcDbPolyline
90
425
70
1
38
0.0
39
0.0
10
83.5074005126953
20
70.5070037841797
40
0.0
41
0.0
42
0.0
10
83.5055999755859
20
70.4956970214844
40
0.0
41
0.0
42
0.0
10
83.4800033569336
20
70.1428985595703
40
0.0
41
0.0
42
0.0
10
83.4567031860352
20
70.0134963989258
40
0.0
41
0.0
42
0.0
10
83.3836975097656
20
69.8572006225586
40
0.0
41
0.0
42
0.0
10
83.2676010131836
20
69.5093002319336
40
0.0
41
0.0
42
0.0
10
83.2053985595703
20
69.4383010864258
40
0.0
41
0.0
42
0.0
10
82.9959030151367
20
69.149299621582
40
0.0
41
0.0
42
0.0
10
82.9359970092773
20
69.0907974243164
40
0.0
41
0.0
42
0.0
10
82.8301010131836
20
69.0027008056641
40
0.0
41
0.0
42
0.0
10
82.7780990600586
20
68.9718017578125
40
0.0
41
0.0
42
0.0
10
82.4897003173828
20
68.7814025878906
40
0.0
41
0.0
42
0.0
10
82.1427993774414
20
68.646598815918
40
0.0
41
0.0
42
0.0
10
81.9865036010742
20
68.5820999145508
40
0.0
41
0.0
42
0.0
10
81.8290023803711
20
68.5444030761719
40
0.0
41
0.0
42
0.0
10
81.6886978149414
20
68.5227966308594
40
0.0
41
0.0
42
0.0
10
81.4971008300781
20
68.4968032836914
40
0.0
41
0.0
42
0.0
10
81.1737976074219
20
68.5328979492188
40
0.0
41
0.0
42
0.0
10
81.1358032226562
20
68.5327987670898
40
0.0
41
0.0
42
0.0
10
81.0096969604492
20
68.5226974487305
40
0.0
41
0.0
42
0.0
10
80.6622009277344
20
68.7949981689453
40
0.0
41
0.0
42
0.0
10
80.6268005371094
20
68.8210983276367
40
0.0
41
0.0
42
0.0
10
80.5122985839844
20
68.8365020751953
40
0.0
41
0.0
42
0.0
10
80.3883972167969
20
68.9201965332031
40
0.0
41
0.0
42
0.0
10
80.3792037963867
20
68.9393997192383
40
0.0
41
0.0
42
0.0
10
80.3373031616211
20
69.0112991333008
40
0.0
41
0.0
42
0.0
10
80.1714019775391
20
69.5137023925781
40
0.0
41
0.0
42
0.0
10
80.0528030395508
20
69.9188995361328
40
0.0
41
0.0
42
0.0
10
80.0274963378906
20
70.0134963989258
40
0.0
41
0.0
42
0.0
10
79.9176025390625
20
70.3041000366211
40
0.0
41
0.0
42
0.0
10
79.8856964111328
20
70.3807983398438
40
0.0
41
0.0
42
0.0
10
79.8426971435547
20
70.4729995727539
40
0.0
41
0.0
42
0.0
10
79.8249969482422
20
70.5074996948242
40
0.0
41
0.0
42
0.0
10
79.5044021606445
20
70.8355026245117
40
0.0
41
0.0
42
0.0
10
79.4896011352539
20
70.8531036376953
40
0.0
41
0.0
42
0.0
10
79.4276962280273
20
70.8889007568359
40
0.0
41
0.0
42
0.0
10
79.3442993164062
20
71.0022964477539
40
0.0
41
0.0
42
0.0
10
79.0225982666016
20
71.1199035644531
40
0.0
41
0.0
42
0.0
10
79.0094985961914
20
71.1320037841797
40
0.0
41
0.0
42
0.0
10
78.6504974365234
20
71.2285003662109
40
0.0
41
0.0
42
0.0
10
78.5099029541016
20
71.3416976928711
40
0.0
41
0.0
42
0.0
10
78.1647033691406
20
71.4476013183594
40
0.0
41
0.0
42
0.0
10
78.1466979980469
20
71.4626007080078
40
0.0
41
0.0
42
0.0
10
78.0848007202148
20
71.5027008056641
40
0.0
41
0.0
42
0.0
10
78.0074005126953
20
71.561897277832
40
0.0
41
0.0
42
0.0
10
77.7918014526367
20
71.7190017700195
40
0.0
41
0.0
42
0.0
10
77.5150985717773
20
71.8553009033203
40
0.0
41
0.0
42
0.0
10
77.4826965332031
20
71.8552017211914
40
0.0
41
0.0
42
0.0
10
77.2996978759766
20
71.8065032958984
40
0.0
41
0.0
42
0.0
10
77.2995986938477
20
72.0158004760742
40
0.0
41
0.0
42
0.0
10
77.1633987426758
20
72.3477020263672
40
0.0
41
0.0
42
0.0
10
77.0510025024414
20
72.5081024169922
40
0.0
41
0.0
42
0.0
10
77.0014038085938
20
72.5826034545898
40
0.0
41
0.0
42
0.0
10
76.8130035400391
20
73.0103988647461
40
0.0
41
0.0
42
0.0
10
76.6884994506836
20
73.2283020019531
40
0.0
41
0.0
42
0.0
10
76.5027008056641
20
73.4613037109375
40
0.0
41
0.0
42
0.0
10
76.4754028320312
20
73.5063018798828
40
0.0
41
0.0
42
0.0
10
76.3496017456055
20
73.6168975830078
40
0.0
41
0.0
42
0.0
10
76.16259765625
20
73.7869033813477
40
0.0
41
0.0
42
0.0
10
76.0145034790039
20
73.868896484375
40
0.0
41
0.0
42
0.0
10
75.9890975952148
20
73.8687973022461
40
0.0
41
0.0
42
0.0
10
75.7649993896484
20
73.6269989013672
40
0.0
41
0.0
42
0.0
10
75.6707992553711
20
73.5123977661133
40
0.0
41
0.0
42
0.0
10
75.6707000732422
20
73.4807968139648
40
0.0
41
0.0
42
0.0
10
75.6802978515625
20
73.3671035766602
40
0.0
41
0.0
42
0.0
10
75.6848983764648
20
73.3292007446289
40
0.0
41
0.0
42
0.0
10
75.7844009399414
20
72.9869003295898
40
0.0
41
0.0
42
0.0
10
75.8481979370117
20
72.8348999023438
40
0.0
41
0.0
42
0.0
10
75.9759979248047
20
72.6462020874023
40
0.0
41
0.0
42
0.0
10
75.9932022094727
20
72.6309967041016
40
0.0
41
0.0
42
0.0
10
76.1751022338867
20
72.4954986572266
40
0.0
41
0.0
42
0.0
10
76.2002029418945
20
72.4671020507812
40
0.0
41
0.0
42
0.0
10
76.3419036865234
20
72.2929992675781
40
0.0
41
0.0
42
0.0
10
76.4256973266602
20
72.1630020141602
40
0.0
41
0.0
42
0.0
10
76.4918975830078
20
72.0513000488281
40
0.0
41
0.0
42
0.0
10
76.5121002197266
20
72.0512008666992
40
0.0
41
0.0
42
0.0
10
76.5649032592773
20
72.0970993041992
40
0.0
41
0.0
42
0.0
10
76.6698989868164
20
72.1766967773438
40
0.0
41
0.0
42
0.0
10
76.6884994506836
20
72.1606979370117
40
0.0
41
0.0
42
0.0
10
76.6104965209961
20
72.0147018432617
40
0.0
41
0.0
42
0.0
10
76.6100006103516
20
71.877197265625
40
0.0
41
0.0
42
0.0
10
76.8746032714844
20
71.4881973266602
40
0.0
41
0.0
42
0.0
10
76.8621978759766
20
71.1744995117188
40
0.0
41
0.0
42
0.0
10
76.8620986938477
20
71.1391983032227
40
0.0
41
0.0
42
0.0
10
76.9261016845703
20
70.9866027832031
40
0.0
41
0.0
42
0.0
10
76.9641036987305
20
70.8387985229492
40
0.0
41
0.0
42
0.0
10
76.9265975952148
20
70.5168991088867
40
0.0
41
0.0
42
0.0
10
76.8666000366211
20
70.1718978881836
40
0.0
41
0.0
42
0.0
10
76.8619995117188
20
70.1336975097656
40
0.0
41
0.0
42
0.0
10
76.8620986938477
20
70.0976028442383
40
0.0
41
0.0
42
0.0
10
76.8914031982422
20
69.9838027954102
40
0.0
41
0.0
42
0.0
10
76.9166030883789
20
69.7705001831055
40
0.0
41
0.0
42
0.0
10
76.878303527832
20
69.5184020996094
40
0.0
41
0.0
42
0.0
10
76.8781967163086
20
69.4824981689453
40
0.0
41
0.0
42
0.0
10
76.9985961914062
20
68.988899230957
40
0.0
41
0.0
42
0.0
10
77.306999206543
20
68.5590972900391
40
0.0
41
0.0
42
0.0
10
77.3492965698242
20
68.4934997558594
40
0.0
41
0.0
42
0.0
10
77.4940032958984
20
68.3602981567383
40
0.0
41
0.0
42
0.0
10
77.8711013793945
20
68.0314025878906
40
0.0
41
0.0
42
0.0
10
77.9154968261719
20
67.9957962036133
40
0.0
41
0.0
42
0.0
10
77.9953002929688
20
67.9214019775391
40
0.0
41
0.0
42
0.0
10
78.2650985717773
20
67.58740234375
40
0.0
41
0.0
42
0.0
10
78.3676986694336
20
67.4899978637695
40
0.0
41
0.0
42
0.0
10
78.4121017456055
20
67.1389999389648
40
0.0
41
0.0
42
0.0
10
78.4593963623047
20
67.0029983520508
40
0.0
41
0.0
42
0.0
10
78.4116973876953
20
66.9281997680664
40
0.0
41
0.0
42
0.0
10
78.3964996337891
20
66.8980026245117
40
0.0
41
0.0
42
0.0
10
78.314697265625
20
66.5110015869141
40
0.0
41
0.0
42
0.0
10
78.2248001098633
20
66.3934020996094
40
0.0
41
0.0
42
0.0
10
78.0058975219727
20
66.0071029663086
40
0.0
41
0.0
42
0.0
10
77.6270980834961
20
65.6309967041016
40
0.0
41
0.0
42
0.0
10
77.4922027587891
20
65.5223999023438
40
0.0
41
0.0
42
0.0
10
77.4828033447266
20
65.5162963867188
40
0.0
41
0.0
42
0.0
10
77.3268966674805
20
65.4483032226562
40
0.0
41
0.0
42
0.0
10
76.9869003295898
20
65.2676010131836
40
0.0
41
0.0
42
0.0
10
76.6377029418945
20
65.2064971923828
40
0.0
41
0.0
42
0.0
10
76.5027008056641
20
65.1942977905273
40
0.0
41
0.0
42
0.0
10
76.1717987060547
20
65.2353973388672
40
0.0
41
0.0
42
0.0
10
76.0141983032227
20
65.2642974853516
40
0.0
41
0.0
42
0.0
10
75.6670989990234
20
65.3986968994141
40
0.0
41
0.0
42
0.0
10
75.5731964111328
20
65.4372024536133
40
0.0
41
0.0
42
0.0
10
75.5102005004883
20
65.4654006958008
40
0.0
41
0.0
42
0.0
10
75.4477005004883
20
65.5026016235352
40
0.0
41
0.0
42
0.0
10
75.3123016357422
20
65.6106033325195
40
0.0
41
0.0
42
0.0
10
75.1631011962891
20
65.7200012207031
40
0.0
41
0.0
42
0.0
10
75.0081024169922
20
65.8189010620117
40
0.0
41
0.0
42
0.0
10
74.9662017822266
20
65.8489990234375
40
0.0
41
0.0
42
0.0
10
74.8004989624023
20
66.007698059082
40
0.0
41
0.0
42
0.0
10
74.6501007080078
20
66.3550033569336
40
0.0
41
0.0
42
0.0
10
74.6262969970703
20
66.3920974731445
40
0.0
41
0.0
42
0.0
10
74.5183029174805
20
66.5119018554688
40
0.0
41
0.0
42
0.0
10
74.5183029174805
20
66.7855987548828
40
0.0
41
0.0
42
0.0
10
74.5524978637695
20
66.9847030639648
40
0.0
41
0.0
42
0.0
10
74.5962982177734
20
67.1337966918945
40
0.0
41
0.0
42
0.0
10
74.7886962890625
20
67.4896011352539
40
0.0
41
0.0
42
0.0
10
74.8452987670898
20
67.6048965454102
40
0.0
41
0.0
42
0.0
10
75.0698013305664
20
67.9896011352539
40
0.0
41
0.0
42
0.0
10
75.1389007568359
20
68.1415023803711
40
0.0
41
0.0
42
0.0
10
75.2559967041016
20
68.4862976074219
40
0.0
41
0.0
42
0.0
10
75.2888031005859
20
68.5979995727539
40
0.0
41
0.0
42
0.0
10
75.2886962890625
20
68.6342010498047
40
0.0
41
0.0
42
0.0
10
75.2619018554688
20
69.0145034790039
40
0.0
41
0.0
42
0.0
10
75.0817031860352
20
69.3975982666016
40
0.0
41
0.0
42
0.0
10
75.0845031738281
20
69.513298034668
40
0.0
41
0.0
42
0.0
10
75.0109024047852
20
69.614501953125
40
0.0
41
0.0
42
0.0
10
74.9916000366211
20
69.7627029418945
40
0.0
41
0.0
42
0.0
10
74.8531036376953
20
70.0100021362305
40
0.0
41
0.0
42
0.0
10
74.6725006103516
20
70.3582992553711
40
0.0
41
0.0
42
0.0
10
74.6479034423828
20
70.5177993774414
40
0.0
41
0.0
42
0.0
10
74.6404037475586
20
70.6713027954102
40
0.0
41
0.0
42
0.0
10
74.5369033813477
20
71.0066986083984
40
0.0
41
0.0
42
0.0
10
74.5628967285156
20
71.4841995239258
40
0.0
41
0.0
42
0.0
10
74.6330032348633
20
71.6791000366211
40
0.0
41
0.0
42
0.0
10
74.6796035766602
20
71.8303985595703
40
0.0
41
0.0
42
0.0
10
74.7012023925781
20
71.9255981445312
40
0.0
41
0.0
42
0.0
10
74.7132034301758
20
71.986198425293
40
0.0
41
0.0
42
0.0
10
74.8566970825195
20
72.3178024291992
40
0.0
41
0.0
42
0.0
10
74.8877029418945
20
72.4847030639648
40
0.0
41
0.0
42
0.0
10
74.9587020874023
20
72.7425003051758
40
0.0
41
0.0
42
0.0
10
74.9761962890625
20
72.9806976318359
40
0.0
41
0.0
42
0.0
10
74.9760971069336
20
73.0148010253906
40
0.0
41
0.0
42
0.0
10
74.8967971801758
20
73.1679992675781
40
0.0
41
0.0
42
0.0
10
74.8328018188477
20
73.5063018798828
40
0.0
41
0.0
42
0.0
10
74.589599609375
20
73.6418991088867
40
0.0
41
0.0
42
0.0
10
74.5161972045898
20
73.6690979003906
40
0.0
41
0.0
42
0.0
10
74.4886016845703
20
73.6689987182617
40
0.0
41
0.0
42
0.0
10
74.3525009155273
20
73.5328979492188
40
0.0
41
0.0
42
0.0
10
74.3178024291992
20
73.5062026977539
40
0.0
41
0.0
42
0.0
10
74.2630996704102
20
73.3958969116211
40
0.0
41
0.0
42
0.0
10
74.2456970214844
20
73.3578033447266
40
0.0
41
0.0
42
0.0
10
74.1516036987305
20
73.0161972045898
40
0.0
41
0.0
42
0.0
10
74.1223983764648
20
72.6700973510742
40
0.0
41
0.0
42
0.0
10
74.0927963256836
20
72.594596862793
40
0.0
41
0.0
42
0.0
10
74.040397644043
20
72.5137023925781
40
0.0
41
0.0
42
0.0
10
74.0402984619141
20
72.4831008911133
40
0.0
41
0.0
42
0.0
10
74.0789031982422
20
72.3565979003906
40
0.0
41
0.0
42
0.0
10
74.0005035400391
20
72.1477966308594
40
0.0
41
0.0
42
0.0
10
73.9860992431641
20
72.0166015625
40
0.0
41
0.0
42
0.0
10
73.9796981811523
20
71.9860992431641
40
0.0
41
0.0
42
0.0
10
73.9485015869141
20
71.515998840332
40
0.0
41
0.0
42
0.0
10
73.8352966308594
20
71.1671981811523
40
0.0
41
0.0
42
0.0
10
73.7596969604492
20
71.006103515625
40
0.0
41
0.0
42
0.0
10
73.4928970336914
20
70.8127975463867
40
0.0
41
0.0
42
0.0
10
73.3423004150391
20
70.6875
40
0.0
41
0.0
42
0.0
10
73.3178024291992
20
70.6623992919922
40
0.0
41
0.0
42
0.0
10
73.2358016967773
20
70.5098037719727
40
0.0
41
0.0
42
0.0
10
73.1862030029297
20
70.4227981567383
40
0.0
41
0.0
42
0.0
10
72.9922027587891
20
70.2779006958008
40
0.0
41
0.0
42
0.0
10
72.6566009521484
20
70.0448989868164
40
0.0
41
0.0
42
0.0
10
72.6343994140625
20
70.0103988647461
40
0.0
41
0.0
42
0.0
10
72.5894012451172
20
69.894401550293
40
0.0
41
0.0
42
0.0
10
72.5339965820312
20
69.8248977661133
40
0.0
41
0.0
42
0.0
10
72.2189025878906
20
69.5090026855469
40
0.0
41
0.0
42
0.0
10
72.1103973388672
20
69.1246032714844
40
0.0
41
0.0
42
0.0
10
72.0820007324219
20
69.0170974731445
40
0.0
41
0.0
42
0.0
10
72.0756988525391
20
68.594596862793
40
0.0
41
0.0
42
0.0
10
72.0759963989258
20
68.4809036254883
40
0.0
41
0.0
42
0.0
10
72.1215972900391
20
67.981201171875
40
0.0
41
0.0
42
0.0
10
72.1307983398438
20
67.6150970458984
40
0.0
41
0.0
42
0.0
10
72.130500793457
20
67.5150985717773
40
0.0
41
0.0
42
0.0
10
71.9872970581055
20
67.2205963134766
40
0.0
41
0.0
42
0.0
10
71.905403137207
20
67.0059967041016
40
0.0
41
0.0
42
0.0
10
71.822998046875
20
66.9525985717773
40
0.0
41
0.0
42
0.0
10
71.6052017211914
20
66.7872009277344
40
0.0
41
0.0
42
0.0
10
71.4878005981445
20
66.7431030273438
40
0.0
41
0.0
42
0.0
10
71.1011962890625
20
66.5756988525391
40
0.0
41
0.0
42
0.0
10
70.9835968017578
20
66.5522003173828
40
0.0
41
0.0
42
0.0
10
70.6446990966797
20
66.4990997314453
40
0.0
41
0.0
42
0.0
10
70.6041030883789
20
66.4941024780273
40
0.0
41
0.0
42
0.0
10
70.6757965087891
20
66.4954986572266
40
0.0
41
0.0
42
0.0
10
70.7174987792969
20
66.5007019042969
40
0.0
41
0.0
42
0.0
10
71.0162963867188
20
66.5475006103516
40
0.0
41
0.0
42
0.0
10
71.168701171875
20
66.5779037475586
40
0.0
41
0.0
42
0.0
10
71.5121002197266
20
66.7265014648438
40
0.0
41
0.0
42
0.0
10
71.6647033691406
20
66.7838973999023
40
0.0
41
0.0
42
0.0
10
71.8564987182617
20
66.9296035766602
40
0.0
41
0.0
42
0.0
10
71.9554977416992
20
66.993896484375
40
0.0
41
0.0
42
0.0
10
72.0007019042969
20
67.1099014282227
40
0.0
41
0.0
42
0.0
10
72.1846008300781
20
67.4848022460938
40
0.0
41
0.0
42
0.0
10
72.1850967407227
20
67.7059020996094
40
0.0
41
0.0
42
0.0
10
72.1772994995117
20
68.0186996459961
40
0.0
41
0.0
42
0.0
10
72.1320037841797
20
68.5189971923828
40
0.0
41
0.0
42
0.0
10
72.1315002441406
20
68.6203994750977
40
0.0
41
0.0
42
0.0
10
72.1369018554688
20
68.9828033447266
40
0.0
41
0.0
42
0.0
10
72.1866989135742
20
69.1725997924805
40
0.0
41
0.0
42
0.0
10
72.2766036987305
20
69.4908981323242
40
0.0
41
0.0
42
0.0
10
72.5351028442383
20
69.7499008178711
40
0.0
41
0.0
42
0.0
10
72.6033020019531
20
69.8355026245117
40
0.0
41
0.0
42
0.0
10
72.6631011962891
20
69.989501953125
40
0.0
41
0.0
42
0.0
10
72.7011032104492
20
70.0485000610352
40
0.0
41
0.0
42
0.0
10
73.007698059082
20
70.2613983154297
40
0.0
41
0.0
42
0.0
10
73.1848983764648
20
70.3938980102539
40
0.0
41
0.0
42
0.0
10
73.2030029296875
20
70.4166030883789
40
0.0
41
0.0
42
0.0
10
73.2449035644531
20
70.4901962280273
40
0.0
41
0.0
42
0.0
10
73.3079986572266
20
70.6074981689453
40
0.0
41
0.0
42
0.0
10
73.3311996459961
20
70.631103515625
40
0.0
41
0.0
42
0.0
10
73.5070037841797
20
70.777702331543
40
0.0
41
0.0
42
0.0
10
73.8053970336914
20
70.9937973022461
40
0.0
41
0.0
42
0.0
10
73.8565979003906
20
71.1026992797852
40
0.0
41
0.0
42
0.0
10
73.9832000732422
20
71.4927978515625
40
0.0
41
0.0
42
0.0
10
74.0000991821289
20
71.7619018554688
40
0.0
41
0.0
42
0.0
10
74.2091979980469
20
71.7618026733398
40
0.0
41
0.0
42
0.0
10
74.2173004150391
20
71.771598815918
40
0.0
41
0.0
42
0.0
10
74.2285003662109
20
71.771598815918
40
0.0
41
0.0
42
0.0
10
74.228401184082
20
71.7827987670898
40
0.0
41
0.0
42
0.0
10
74.0690002441406
20
71.9773025512695
40
0.0
41
0.0
42
0.0
10
74.0438003540039
20
72.0037002563477
40
0.0
41
0.0
42
0.0
10
74.135498046875
20
72.2473983764648
40
0.0
41
0.0
42
0.0
10
74.135498046875
20
72.2802963256836
40
0.0
41
0.0
42
0.0
10
74.0697021484375
20
72.4960021972656
40
0.0
41
0.0
42
0.0
10
74.106201171875
20
72.5522003173828
40
0.0
41
0.0
42
0.0
10
74.1247024536133
20
72.5998001098633
40
0.0
41
0.0
42
0.0
10
74.1572036743164
20
72.9837036132812
40
0.0
41
0.0
42
0.0
10
74.2622985839844
20
73.3649978637695
40
0.0
41
0.0
42
0.0
10
74.3262023925781
20
73.4935989379883
40
0.0
41
0.0
42
0.0
10
74.3794021606445
20
73.5346984863281
40
0.0
41
0.0
42
0.0
10
74.5037994384766
20
73.6589965820312
40
0.0
41
0.0
42
0.0
10
74.5912017822266
20
73.6268005371094
40
0.0
41
0.0
42
0.0
10
74.8292007446289
20
73.4934997558594
40
0.0
41
0.0
42
0.0
10
74.9033966064453
20
73.1018981933594
40
0.0
41
0.0
42
0.0
10
74.9617004394531
20
72.9893035888672
40
0.0
41
0.0
42
0.0
10
74.9505996704102
20
72.8376007080078
40
0.0
41
0.0
42
0.0
10
74.8619003295898
20
72.5151977539062
40
0.0
41
0.0
42
0.0
10
74.8384017944336
20
72.3889007568359
40
0.0
41
0.0
42
0.0
10
74.6759033203125
20
72.0134963989258
40
0.0
41
0.0
42
0.0
10
74.6512985229492
20
71.8996963500977
40
0.0
41
0.0
42
0.0
10
74.5986022949219
20
71.7282028198242
40
0.0
41
0.0
42
0.0
10
74.5218963623047
20
71.5150985717773
40
0.0
41
0.0
42
0.0
10
74.519401550293
20
71.4951019287109
40
0.0
41
0.0
42
0.0
10
74.5
20
71.0951995849609
40
0.0
41
0.0
42
0.0
10
74.4192962646484
20
71.0925979614258
40
0.0
41
0.0
42
0.0
10
74.4192962646484
20
71.0691986083984
40
0.0
41
0.0
42
0.0
10
74.4987030029297
20
70.9763031005859
40
0.0
41
0.0
42
0.0
10
74.6151962280273
20
70.5986022949219
40
0.0
41
0.0
42
0.0
10
74.6209030151367
20
70.4821014404297
40
0.0
41
0.0
42
0.0
10
74.6379013061523
20
70.3714981079102
40
0.0
41
0.0
42
0.0
10
74.8358993530273
20
69.9898986816406
40
0.0
41
0.0
42
0.0
10
74.9943008422852
20
69.7070999145508
40
0.0
41
0.0
42
0.0
10
75.0095977783203
20
69.589599609375
40
0.0
41
0.0
42
0.0
10
75.0111999511719
20
69.5837020874023
40
0.0
41
0.0
42
0.0
10
75.0805969238281
20
69.4882965087891
40
0.0
41
0.0
42
0.0
10
75.076301574707
20
69.3646011352539
40
0.0
41
0.0
42
0.0
10
75.0762023925781
20
69.3295974731445
40
0.0
41
0.0
42
0.0
10
75.2381973266602
20
68.9852981567383
40
0.0
41
0.0
42
0.0
10
75.2608032226562
20
68.6641998291016
40
0.0
41
0.0
42
0.0
10
75.2164993286133
20
68.5136032104492
40
0.0
41
0.0
42
0.0
10
75.1166000366211
20
68.2194976806641
40
0.0
41
0.0
42
0.0
10
75.0214004516602
20
68.0102996826172
40
0.0
41
0.0
42
0.0
10
74.8208999633789
20
67.6650009155273
40
0.0
41
0.0
42
0.0
10
74.7447967529297
20
67.5102996826172
40
0.0
41
0.0
42
0.0
10
74.5815963745117
20
67.2085037231445
40
0.0
41
0.0
42
0.0
10
74.5248031616211
20
67.0151977539062
40
0.0
41
0.0
42
0.0
10
74.5096969604492
20
66.9278030395508
40
0.0
41
0.0
42
0.0
10
74.5095977783203
20
66.4879989624023
40
0.0
41
0.0
42
0.0
10
74.6305999755859
20
66.3541030883789
40
0.0
41
0.0
42
0.0
10
74.7873001098633
20
65.9921035766602
40
0.0
41
0.0
42
0.0
10
74.9635009765625
20
65.8235015869141
40
0.0
41
0.0
42
0.0
10
74.99169921875
20
65.8031997680664
40
0.0
41
0.0
42
0.0
10
75.1067962646484
20
65.7297973632812
40
0.0
41
0.0
42
0.0
10
75.2191009521484
20
65.6474990844727
40
0.0
41
0.0
42
0.0
10
75.4074020385742
20
65.497200012207
40
0.0
41
0.0
42
0.0
10
75.489501953125
20
65.4484024047852
40
0.0
41
0.0
42
0.0
10
75.6027984619141
20
65.4001007080078
40
0.0
41
0.0
42
0.0
10
75.9857025146484
20
65.2519989013672
40
0.0
41
0.0
42
0.0
10
76.0980987548828
20
65.2313995361328
40
0.0
41
0.0
42
0.0
10
76.4813003540039
20
65.1837997436523
40
0.0
41
0.0
42
0.0
10
76.5189971923828
20
65.1837005615234
40
0.0
41
0.0
42
0.0
10
76.6322021484375
20
65.1939010620117
40
0.0
41
0.0
42
0.0
10
77.0130004882812
20
65.2605972290039
40
0.0
41
0.0
42
0.0
10
77.3878021240234
20
65.4598007202148
40
0.0
41
0.0
42
0.0
10
77.4785003662109
20
65.4990005493164
40
0.0
41
0.0
42
0.0
10
77.5085983276367
20
65.513801574707
40
0.0
41
0.0
42
0.0
10
77.6213989257812
20
65.6047973632812
40
0.0
41
0.0
42
0.0
10
77.6605987548828
20
65.6396026611328
40
0.0
41
0.0
42
0.0
10
78.0046997070312
20
65.9802017211914
40
0.0
41
0.0
42
0.0
10
78.0156021118164
20
65.992301940918
40
0.0
41
0.0
42
0.0
10
78.2107009887695
20
66.3365020751953
40
0.0
41
0.0
42
0.0
10
78.3270034790039
20
66.488899230957
40
0.0
41
0.0
42
0.0
10
78.3995971679688
20
66.8320007324219
40
0.0
41
0.0
42
0.0
10
78.4241027832031
20
66.8806991577148
40
0.0
41
0.0
42
0.0
10
78.4913024902344
20
66.9860992431641
40
0.0
41
0.0
42
0.0
10
78.4912033081055
20
67.0164031982422
40
0.0
41
0.0
42
0.0
10
78.4797973632812
20
67.0490036010742
40
0.0
41
0.0
42
0.0
10
78.4216995239258
20
67.5098037719727
40
0.0
41
0.0
42
0.0
10
78.3678970336914
20
67.5607986450195
40
0.0
41
0.0
42
0.0
10
78.0261993408203
20
67.9841003417969
40
0.0
41
0.0
42
0.0
10
78.0102005004883
20
68.005500793457
40
0.0
41
0.0
42
0.0
10
77.5058975219727
20
68.4455032348633
40
0.0
41
0.0
42
0.0
10
77.4400024414062
20
68.5063018798828
40
0.0
41
0.0
42
0.0
10
77.4199981689453
20
68.5373001098633
40
0.0
41
0.0
42
0.0
10
77.2851028442383
20
68.7253036499023
40
0.0
41
0.0
42
0.0
10
77.0644989013672
20
69.0092010498047
40
0.0
41
0.0
42
0.0
10
76.9999008178711
20
69.1622009277344
40
0.0
41
0.0
42
0.0
10
76.9162979125977
20
69.5037002563477
40
0.0
41
0.0
42
0.0
10
76.9417037963867
20
69.6694030761719
40
0.0
41
0.0
42
0.0
10
76.9415969848633
20
69.7064971923828
40
0.0
41
0.0
42
0.0
10
76.9050979614258
20
70.0160980224609
40
0.0
41
0.0
42
0.0
10
76.8697967529297
20
70.1528015136719
40
0.0
41
0.0
42
0.0
10
76.9272003173828
20
70.4830017089844
40
0.0
41
0.0
42
0.0
10
76.9720001220703
20
70.8662033081055
40
0.0
41
0.0
42
0.0
10
76.9719009399414
20
70.9022979736328
40
0.0
41
0.0
42
0.0
10
76.9433975219727
20
71.0131988525391
40
0.0
41
0.0
42
0.0
10
76.8954010009766
20
71.1276016235352
40
0.0
41
0.0
42
0.0
10
76.9095993041992
20
71.4804000854492
40
0.0
41
0.0
42
0.0
10
76.9095001220703
20
71.5134963989258
40
0.0
41
0.0
42
0.0
10
76.7199020385742
20
71.7922973632812
40
0.0
41
0.0
42
0.0
10
76.722297668457
20
71.9852981567383
40
0.0
41
0.0
42
0.0
10
76.9713973999023
20
72.4574966430664
40
0.0
41
0.0
42
0.0
10
76.9710006713867
20
72.4711990356445
40
0.0
41
0.0
42
0.0
10
76.9593963623047
20
72.4713973999023
40
0.0
41
0.0
42
0.0
10
76.6108016967773
20
72.2073974609375
40
0.0
41
0.0
42
0.0
10
76.5010986328125
20
72.1122970581055
40
0.0
41
0.0
42
0.0
10
76.4485015869141
20
72.2009963989258
40
0.0
41
0.0
42
0.0
10
76.3879013061523
20
72.2950973510742
40
0.0
41
0.0
42
0.0
10
76.2319030761719
20
72.486701965332
40
0.0
41
0.0
42
0.0
10
76.2162017822266
20
72.5043029785156
40
0.0
41
0.0
42
0.0
10
76.0065994262695
20
72.6605987548828
40
0.0
41
0.0
42
0.0
10
75.9893035888672
20
72.6760025024414
40
0.0
41
0.0
42
0.0
10
75.8410034179688
20
72.8948974609375
40
0.0
41
0.0
42
0.0
10
75.7916030883789
20
73.0129013061523
40
0.0
41
0.0
42
0.0
10
75.6807022094727
20
73.3939971923828
40
0.0
41
0.0
42
0.0
10
75.6725997924805
20
73.4904022216797
40
0.0
41
0.0
42
0.0
10
75.75830078125
20
73.5960006713867
40
0.0
41
0.0
42
0.0
10
76.002197265625
20
73.8591003417969
40
0.0
41
0.0
42
0.0
10
76.1072006225586
20
73.8011016845703
40
0.0
41
0.0
42
0.0
10
76.2490005493164
20
73.6722030639648
40
0.0
41
0.0
42
0.0
10
76.4520034790039
20
73.4934997558594
40
0.0
41
0.0
42
0.0
10
76.497200012207
20
73.4188995361328
40
0.0
41
0.0
42
0.0
10
76.6352996826172
20
73.2457962036133
40
0.0
41
0.0
42
0.0
10
76.7818984985352
20
72.9894027709961
40
0.0
41
0.0
42
0.0
10
76.9983978271484
20
72.4973983764648
40
0.0
41
0.0
42
0.0
10
77.0154037475586
20
72.4729995727539
40
0.0
41
0.0
42
0.0
10
77.2130966186523
20
71.9841003417969
40
0.0
41
0.0
42
0.0
10
77.2156982421875
20
71.7158966064453
40
0.0
41
0.0
42
0.0
10
77.2315979003906
20
71.7161026000977
40
0.0
41
0.0
42
0.0
10
77.2786026000977
20
71.7317962646484
40
0.0
41
0.0
42
0.0
10
77.4961013793945
20
71.7898025512695
40
0.0
41
0.0
42
0.0
10
77.8953018188477
20
71.5933990478516
40
0.0
41
0.0
42
0.0
10
78.0258026123047
20
71.497200012207
40
0.0
41
0.0
42
0.0
10
78.0958023071289
20
71.4517974853516
40
0.0
41
0.0
42
0.0
10
78.1051025390625
20
71.4440002441406
40
0.0
41
0.0
42
0.0
10
78.4898986816406
20
71.3258972167969
40
0.0
41
0.0
42
0.0
10
78.6061019897461
20
71.2322998046875
40
0.0
41
0.0
42
0.0
10
78.6420974731445
20
71.2154998779297
40
0.0
41
0.0
42
0.0
10
78.9903030395508
20
71.1219024658203
40
0.0
41
0.0
42
0.0
10
79.0096969604492
20
71.1042022705078
40
0.0
41
0.0
42
0.0
10
79.3019027709961
20
70.9974975585938
40
0.0
41
0.0
42
0.0
10
79.4169006347656
20
70.8408966064453
40
0.0
41
0.0
42
0.0
10
79.4711990356445
20
70.8094024658203
40
0.0
41
0.0
42
0.0
10
79.4954986572266
20
70.7805023193359
40
0.0
41
0.0
42
0.0
10
79.777099609375
20
70.492301940918
40
0.0
41
0.0
42
0.0
10
79.8050003051758
20
70.4384002685547
40
0.0
41
0.0
42
0.0
10
79.8441009521484
20
70.3543014526367
40
0.0
41
0.0
42
0.0
10
79.8878021240234
20
70.2492980957031
40
0.0
41
0.0
42
0.0
10
79.9868011474609
20
69.9866027832031
40
0.0
41
0.0
42
0.0
10
80.1341018676758
20
69.486198425293
40
0.0
41
0.0
42
0.0
10
80.2978973388672
20
68.9886016845703
40
0.0
41
0.0
42
0.0
10
80.3339004516602
20
68.927001953125
40
0.0
41
0.0
42
0.0
10
80.3413009643555
20
68.9113998413086
40
0.0
41
0.0
42
0.0
10
80.4876022338867
20
68.8125991821289
40
0.0
41
0.0
42
0.0
10
80.6407012939453
20
68.7920989990234
40
0.0
41
0.0
42
0.0
10
80.9871978759766
20
68.5206985473633
40
0.0
41
0.0
42
0.0
10
81.0190963745117
20
68.5205993652344
40
0.0
41
0.0
42
0.0
10
81.1120986938477
20
68.5280990600586
40
0.0
41
0.0
42
0.0
10
81.3147964477539
20
68.5055999755859
40
0.0
41
0.0
42
0.0
10
81.3460998535156
20
68.5007019042969
40
0.0
41
0.0
42
0.0
10
81.4810028076172
20
68.4869003295898
40
0.0
41
0.0
42
0.0
10
81.5185012817383
20
68.4869003295898
40
0.0
41
0.0
42
0.0
10
81.7464981079102
20
68.5182037353516
40
0.0
41
0.0
42
0.0
10
81.9009017944336
20
68.5420989990234
40
0.0
41
0.0
42
0.0
10
82.0134963989258
20
68.5690002441406
40
0.0
41
0.0
42
0.0
10
82.127197265625
20
68.6158981323242
40
0.0
41
0.0
42
0.0
10
82.5102996826172
20
68.7648010253906
40
0.0
41
0.0
42
0.0
10
82.8291015625
20
68.9751968383789
40
0.0
41
0.0
42
0.0
10
82.8658981323242
20
68.997200012207
40
0.0
41
0.0
42
0.0
10
82.9412002563477
20
69.059700012207
40
0.0
41
0.0
42
0.0
10
83.0038986206055
20
69.1211013793945
40
0.0
41
0.0
42
0.0
10
83.2368011474609
20
69.4421997070312
40
0.0
41
0.0
42
0.0
10
83.2790985107422
20
69.4906005859375
40
0.0
41
0.0
42
0.0
10
83.4067001342773
20
69.872802734375
40
0.0
41
0.0
42
0.0
10
83.4598007202148
20
69.9863967895508
40
0.0
41
0.0
42
0.0
10
83.4757995605469
20
70.075798034668
40
0.0
41
0.0
42
0.0
10
83.503303527832
20
70.4532012939453
40
0.0
41
0.0
42
0.0
10
83.5078964233398
20
70.4813995361328
40
0.0
41
0.0
42
0.0
10
83.5074005126953
20
70.5070037841797
40
0.0
41
0.0
42
0.0
210
0.0
220
0.0
230
1.0
0
LWPOLYLINE
5
28
330
1C
100
AcDbEntity
67
0
8
0
62
256
6
ByLayer
370
-1
48
1.0
60
0
100
AcDbPolyline
90
29
70
1
38
0.0
39
0.0
10
82.9865036010742
20
84.7894973754883
40
0.0
41
0.0
42
0.0
10
83.1316986083984
20
84.7473983764648
40
0.0
41
0.0
42
0.0
10
83.4860992431641
20
84.6097030639648
40
0.0
41
0.0
42
0.0
10
83.6006011962891
20
84.5842971801758
40
0.0
41
0.0
42
0.0
10
83.8488006591797
20
84.4999008178711
40
0.0
41
0.0
42
0.0
10
83.9832992553711
20
84.4570007324219
40
0.0
41
0.0
42
0.0
10
84.0979995727539
20
84.4557037353516
40
0.0
41
0.0
42
0.0
10
84.4822998046875
20
84.3703994750977
40
0.0
41
0.0
42
0.0
10
84.5180969238281
20
84.3703002929688
40
0.0
41
0.0
42
0.0
10
84.7543029785156
20
84.4122009277344
40
0.0
41
0.0
42
0.0
10
84.9803009033203
20
84.4044036865234
40
0.0
41
0.0
42
0.0
10
84.9990005493164
20
84.4044036865234
40
0.0
41
0.0
42
0.0
10
84.9989013671875
20
84.434700012207
40
0.0
41
0.0
42
0.0
10
84.8463973999023
20
84.4402008056641
40
0.0
41
0.0
42
0.0
10
84.8086013793945
20
84.4401016235352
40
0.0
41
0.0
42
0.0
10
84.5017013549805
20
84.385498046875
40
0.0
41
0.0
42
0.0
10
84.1733016967773
20
84.4586029052734
40
0.0
41
0.0
42
0.0
10
84.0166015625
20
84.4601974487305
40
0.0
41
0.0
42
0.0
10
83.8918991088867
20
84.5
40
0.0
41
0.0
42
0.0
10
83.6691970825195
20
84.5759963989258
40
0.0
41
0.0
42
0.0
10
83.5139007568359
20
84.6103973388672
40
0.0
41
0.0
42
0.0
10
83.1380996704102
20
84.7555999755859
40
0.0
41
0.0
42
0.0
10
83.013298034668
20
84.7926025390625
40
0.0
41
0.0
42
0.0
10
82.8966979980469
20
84.8358001708984
40
0.0
41
0.0
42
0.0
10
82.5594024658203
20
84.9990005493164
40
0.0
41
0.0
42
0.0
10
82.5306015014648
20
84.9990005493164
40
0.0
41
0.0
42
0.0
10
82.530403137207
20
84.9929962158203
40
0.0
41
0.0
42
0.0
10
82.8267974853516
20
84.8494033813477
40
0.0
41
0.0
42
0.0
10
82.9865036010742
20
84.7894973754883
40
0.0
41
0.0
42
0.0
210
0.0
220
0.0
230
1.0
0
LWPOLYLINE
5
29
330
1C
100
AcDbEntity
67
0
8
0
62
256
6
ByLayer
370
-1
48
1.0
60
0
100
AcDbPolyline
90
29
70
1
38
0.0
39
0.0
10
84.4122009277344
20
65.2456970214844
40
0.0
41
0.0
42
0.0
10
84.404296875
20
65.0009994506836
40
0.0
41
0.0
42
0.0
10
84.434700012207
20
65.0009994506836
40
0.0
41
0.0
42
0.0
10
84.4402008056641
20
65.1533966064453
40
0.0
41
0.0
42
0.0
10
84.4401016235352
20
65.1912002563477
40
0.0
41
0.0
42
0.0
10
84.3855972290039
20
65.4981994628906
40
0.0
41
0.0
42
0.0
10
84.4586029052734
20
65.8264999389648
40
0.0
41
0.0
42
0.0
10
84.4601974487305
20
65.9832992553711
40
0.0
41
0.0
42
0.0
10
84.5
20
66.1079025268555
40
0.0
41
0.0
42
0.0
10
84.5759963989258
20
66.3305969238281
40
0.0
41
0.0
42
0.0
10
84.6103973388672
20
66.4860000610352
40
0.0
41
0.0
42
0.0
10
84.7490997314453
20
66.8436965942383
40
0.0
41
0.0
42
0.0
10
84.7592010498047
20
66.8714981079102
40
0.0
41
0.0
42
0.0
10
84.7926025390625
20
66.9865036010742
40
0.0
41
0.0
42
0.0
10
84.8358001708984
20
67.1032028198242
40
0.0
41
0.0
42
0.0
10
84.9990005493164
20
67.4403991699219
40
0.0
41
0.0
42
0.0
10
84.9990005493164
20
67.4692993164062
40
0.0
41
0.0
42
0.0
10
84.9931030273438
20
67.4692993164062
40
0.0
41
0.0
42
0.0
10
84.8463973999023
20
67.1667022705078
40
0.0
41
0.0
42
0.0
10
84.7895965576172
20
67.0133972167969
40
0.0
41
0.0
42
0.0
10
84.7473983764648
20
66.8682022094727
40
0.0
41
0.0
42
0.0
10
84.6097030639648
20
66.513801574707
40
0.0
41
0.0
42
0.0
10
84.5842971801758
20
66.399299621582
40
0.0
41
0.0
42
0.0
10
84.4999008178711
20
66.1510009765625
40
0.0
41
0.0
42
0.0
10
84.4570007324219
20
66.0166015625
40
0.0
41
0.0
42
0.0
10
84.4557037353516
20
65.9018020629883
40
0.0
41
0.0
42
0.0
10
84.3703994750977
20
65.5176010131836
40
0.0
41
0.0
42
0.0
10
84.3703002929688
20
65.4817962646484
40
0.0
41
0.0
42
0.0
10
84.4122009277344
20
65.2456970214844
40
0.0
41
0.0
42
0.0
210
0.0
220
0.0
230
1.0
0
LWPOLYLINE
5
2A
330
1C
100
AcDbEntity
67
0
8
0
62
256
6
ByLayer
370
-1
48
1.0
60
0
100
AcDbPolyline
90
5
70
1
38
0.0
39
0.0
10
73.9962997436523
20
74.4952011108398
40
0.0
41
0.0
42
0.0
10
74.0007019042969
20
74.4952011108398
40
0.0
41
0.0
42
0.0
10
74.0007019042969
20
74.5015029907227
40
0.0
41
0.0
42
0.0
10
73.9962997436523
20
74.5015029907227
40
0.0
41
0.0
42
0.0
10
73.9962997436523
20
74.4952011108398
40
0.0
41
0.0
42
0.0
210
0.0
220
0.0
230
1.0
0
LWPOLYLINE
5
2B
330
1C
100
AcDbEntity
67
0
8
0
62
256
6
ByLayer
370
-1
48
1.0
60
0
100
AcDbPolyline
90
5
70
1
38
0.0
39
0.0
10
74.4952011108398
20
75.9991989135742
40
0.0
41
0.0
42
0.0
10
74.5015029907227
20
75.9991989135742
40
0.0
41
0.0
42
0.0
10
74.5015029907227
20
76.0036010742188
40
0.0
41
0.0
42
0.0
10
74.4952011108398
20
76.0036010742188
40
0.0
41
0.0
42
0.0
10
74.4952011108398
20
75.9991989135742
40
0.0
41
0.0
42
0.0
210
0.0
220
0.0
230
1.0
0
LWPOLYLINE
5
2C
330
1C
100
AcDbEntity
67
0
8
0
62
256
6
ByLayer
370
-1
48
1.0
60
0
100
AcDbPolyline
90
5
70
1
38
0.0
39
0.0
10
75.4983978271484
20
73.9962997436523
40
0.0
41
0.0
42
0.0
10
75.5046997070312
20
73.9962997436523
40
0.0
41
0.0
42
0.0
10
75.5046997070312
20
74.0007019042969
40
0.0
41
0.0
42
0.0
10
75.4983978271484
20
74.0007019042969
40
0.0
41
0.0
42
0.0
10
75.4983978271484
20
73.9962997436523
40
0.0
41
0.0
42
0.0
210
0.0
220
0.0
230
1.0
0
LWPOLYLINE
5
2D
330
1C
100
AcDbEntity
67
0
8
0
62
256
6
ByLayer
370
-1
48
1.0
60
0
100
AcDbPolyline
90
5
70
1
38
0.0
39
0.0
10
75.9991989135742
20
75.4983978271484
40
0.0
41
0.0
42
0.0
10
76.0036010742188
20
75.4983978271484
40
0.0
41
0.0
42
0.0
10
76.0036010742188
20
75.5046997070312
40
0.0
41
0.0
42
0.0
10
75.9991989135742
20
75.5046997070312
40
0.0
41
0.0
42
0.0
10
75.9991989135742
20
75.4983978271484
40
0.0
41
0.0
42
0.0
210
0.0
220
0.0
230
1.0
0
VIEWPORT
5
32
330
2E
100
AcDbEntity
67
1
8
0
62
256
6
ByLayer
370
-1
48
1.0
60
0
100
AcDbViewport
10
0.0
20
0.0
30
0.0
40
297.0
41
210.0
68
1
69
1
12
50.0
22
100.0
13
0.0
23
0.0
14
10.0
24
10.0
15
10.0
25
10.0
16
0.0
26
0.0
36
1.0
17
0.0
27
0.0
37
0.0
42
50.0
43
0.0
44
0.0
45
250.0
50
0.0
51
0.0
72
1000
90
819232
110
0.0
120
0.0
130
0.0
111
1.0
121
0.0
131
0.0
112
0.0
122
1.0
132
0.0
0
ENDSEC
0
SECTION
2
OBJECTS
0
DICTIONARY
5
38
330
0
100
AcDbDictionary
280
1
281
1
3
ACAD_GROUP
350
12
3
ACAD_LAYOUT
350
31
3
ACAD_DGNDEFINITIONS
350
F
3
ACAD_DWFDEFINITIONS
350
10
3
ACAD_PDFDEFINITIONS
350
11
3
ACAD_MLINESTYLE
350
B
3
ACAD_IMAGE_DICT
350
E
3
ACAD_IMAGE_VARS
350
21
0
DICTIONARY
5
12
330
38
100
AcDbDictionary
280
1
281
1
0
DICTIONARY
5
31
330
38
100
AcDbDictionary
280
1
281
1
3
Model
350
20
3
Layout1
350
33
0
DICTIONARY
5
F
330
38
100
AcDbDictionary
280
1
281
1
0
DICTIONARY
5
10
330
38
100
AcDbDictionary
280
1
281
1
0
DICTIONARY
5
11
330
38
100
AcDbDictionary
280
1
281
1
0
DICTIONARY
5
B
330
38
100
AcDbDictionary
280
1
281
1
3
Standard
350
1B
0
DICTIONARY
5
E
330
38
100
AcDbDictionary
280
1
281
1
0
DICTIONARY
5
6
330
5
100
AcDbDictionary
280
1
281
1
3
ACAD_LAYERSTATES
360
39
0
DICTIONARY
5
39
330
6
100
AcDbDictionary
280
1
281
1
0
LAYOUT
5
20
330
31
100
AcDbPlotSettings
1

2
none_device
4
ISO_A4_(210.00_x_297.00_MM)
6

40
7.5
41
20.0
42
7.5
43
20.0
44
210.0
45
297.0
46
0.0
47
0.0
48
0.0
49
0.0
140
0.0
141
0.0
142
1.0
143
1.0
70
11952
72
1
73
1
74
1
7

75
0
76
0
77
2
78
300
147
1.0
148
0.0
149
0.0
100
AcDbLayout
1
Model
71
0
10
-20.0
20
-7.5
11
277.0
21
202.5
12
0.0
22
0.0
32
0.0
14
25.7
24
19.5
34
0.0
15
231.3
25
175.5
35
0.0
146
0.0
13
0.0
23
0.0
33
0.0
16
1.0
26
0.0
36
0.0
17
0.0
27
1.0
37
0.0
76
0
330
1C
0
LAYOUT
5
33
330
31
100
AcDbPlotSettings
1

2
none_device
4
ISO_A4_(210.00_x_297.00_MM)
6

40
7.5
41
20.0
42
7.5
43
20.0
44
210.0
45
297.0
46
0.0
47
0.0
48
0.0
49
0.0
140
0.0
141
0.0
142
1.0
143
1.0
70
688
72
1
73
1
74
1
7

75
0
76
0
77
2
78
300
147
1.0
148
0.0
149
0.0
100
AcDbLayout
1
Layout1
71
1
10
-20.0
20
-7.5
11
277.0
21
202.5
12
0.0
22
0.0
32
0.0
14
25.7
24
19.5
34
0.0
15
231.3
25
175.5
35
0.0
146
0.0
13
0.0
23
0.0
33
0.0
16
1.0
26
0.0
36
0.0
17
0.0
27
1.0
37
0.0
76
0
330
2E
0
MLINESTYLE
5
1B
330
B
100
AcDbMlineStyle
2
Standard
70
0
3

62
256
51
90.0
52
90.0
71
2
49
0.5
62
256
6
ByLayer
49
-0.5
62
256
6
ByLayer
0
RASTERVARIABLES
5
21
330
E
100
AcDbRasterVariables
90
0
70
1
71
1
72
0
0
ENDSEC
0
EOF
