999
DXF file generated by netDxf https://github.com/haplokuon/netDxf, Copyright(C) Daniel Carvajal, Licensed under MIT
0
SECTION
2
HEADER
9
$ACADVER
1
AC1015
9
$DWGCODEPAGE
3
ANSI_1252
9
$HANDSEED
5
4A
9
$ANGBASE
50
0.0
9
$ANGDIR
70
0
9
$ATTMODE
70
1
9
$AUNITS
70
0
9
$AUPREC
70
0
9
$CECOLOR
62
256
9
$CELTSCALE
40
1.0
9
$CELTYPE
6
ByLayer
9
$CELWEIGHT
370
-1
9
$CLAYER
8
0
9
$CMLJUST
70
0
9
$CMLSCALE
40
20.0
9
$CMLSTYLE
2
Standard
9
$DIMSTYLE
2
Standard
9
$TEXTSIZE
40
2.5
9
$TEXTSTYLE
7
Standard
9
$LUNITS
70
2
9
$LUPREC
70
4
9
$MIRRTEXT
70
0
9
$EXTNAMES
290
1
9
$INSBASE
10
0.0
20
0.0
30
0.0
9
$INSUNITS
70
0
9
$LTSCALE
40
1.0
9
$LWDISPLAY
290
0
9
$PDMODE
70
0
9
$PDSIZE
40
0.0
9
$PLINEGEN
70
0
9
$PSLTSCALE
70
1
9
$SPLINESEGS
70
8
9
$SURFU
70
6
9
$SURFV
70
6
9
$TDCREATE
40
2460823.48361988
9
$TDUCREATE
40
2460823.15028655
9
$TDUPDATE
40
2460823.48361988
9
$TDUUPDATE
40
2460823.15028655
9
$TDINDWG
40
0.0
9
$UCSORG
10
0.0
20
0.0
30
0.0
9
$UCSXDIR
10
1.0
20
0.0
30
0.0
9
$UCSYDIR
10
0.0
20
1.0
30
0.0
9
$DIMADEC
70
0
9
$DIMALT
70
0
9
$DIMALTD
70
2
9
$DIMALTF
40
25.4
9
$DIMALTRND
40
0.0
9
$DIMALTTD
70
2
9
$DIMALTTZ
70
0
9
$DIMALTU
70
2
9
$DIMALTZ
70
0
9
$DIMAPOST
1

9
$DIMATFIT
70
3
9
$DIMAUNIT
70
0
9
$DIMASZ
40
0.18
9
$DIMAZIN
70
0
9
$DIMSAH
70
0
9
$DIMBLK
1

9
$DIMLDRBLK
1

9
$DIMCEN
40
0.09
9
$DIMCLRD
70
0
9
$DIMCLRE
70
0
9
$DIMCLRT
70
0
9
$DIMDEC
70
4
9
$DIMDLE
40
0.0
9
$DIMDLI
40
0.38
9
$DIMDSEP
70
46
9
$DIMEXE
40
0.18
9
$DIMEXO
40
0.0625
9
$DIMFXLON
70
0
9
$DIMFXL
40
1.0
9
$DIMGAP
40
0.09
9
$DIMJUST
70
0
9
$DIMLFAC
40
1.0
9
$DIMLUNIT
70
2
9
$DIMLWD
70
-2
9
$DIMLWE
70
-2
9
$DIMPOST
1

9
$DIMRND
40
0.0
9
$DIMSCALE
40
1.0
9
$DIMSD1
70
0
9
$DIMSD2
70
0
9
$DIMSE1
70
0
9
$DIMSE2
70
0
9
$DIMSOXD
70
0
9
$DIMTAD
70
0
9
$DIMTDEC
70
4
9
$DIMTFAC
40
1.0
9
$DIMTIH
70
0
9
$DIMTIX
70
0
9
$DIMTM
40
0.0
9
$DIMTMOVE
70
0
9
$DIMTOFL
70
0
9
$DIMTOH
70
0
9
$DIMTOL
70
0
9
$DIMLIM
70
0
9
$DIMTOLJ
70
1
9
$DIMTP
40
0.0
9
$DIMTXT
40
0.18
9
$DIMTXTDIRECTION
70
0
9
$DIMTZIN
70
0
9
$DIMZIN
70
0
9
$DIMFRAC
70
0
9
$DIMLTYPE
6
ByBlock
9
$DIMLTEX1
6
ByBlock
9
$DIMLTEX2
6
ByBlock
0
ENDSEC
0
SECTION
2
CLASSES
0
CLASS
1
RASTERVARIABLES
2
AcDbRasterVariables
3
ISM
90
0
280
0
281
0
0
ENDSEC
0
SECTION
2
TABLES
0
TABLE
2
APPID
5
4
330
0
100
AcDbSymbolTable
70
5
0
APPID
5
19
330
4
100
AcDbSymbolTableRecord
100
AcDbRegAppTableRecord
2
ACAD
70
0
0
APPID
5
44
330
4
100
AcDbSymbolTableRecord
100
AcDbRegAppTableRecord
2
AcCmTransparency
70
0
0
APPID
5
45
330
4
100
AcDbSymbolTableRecord
100
AcDbRegAppTableRecord
2
AcAecLayerStandard
70
0
0
APPID
5
46
330
4
100
AcDbSymbolTableRecord
100
AcDbRegAppTableRecord
2
GradientColor1ACI
70
0
0
APPID
5
47
330
4
100
AcDbSymbolTableRecord
100
AcDbRegAppTableRecord
2
GradientColor2ACI
70
0
0
ENDTAB
0
TABLE
2
VPORT
5
1
330
0
100
AcDbSymbolTable
70
1
0
VPORT
5
2
330
1
100
AcDbSymbolTableRecord
100
AcDbViewportTableRecord
2
*Active
70
0
10
0.0
20
0.0
11
1.0
21
1.0
12
0.0
22
0.0
13
0.0
23
0.0
14
0.5
24
0.5
15
10.0
25
10.0
16
0.0
26
0.0
36
1.0
17
0.0
27
0.0
37
0.0
40
10.0
41
1.0
75
0
76
1
0
ENDTAB
0
TABLE
2
LTYPE
5
7
330
0
100
AcDbSymbolTable
70
3
0
LTYPE
5
15
330
7
100
AcDbSymbolTableRecord
100
AcDbLinetypeTableRecord
2
Continuous
70
0
3
Solid line
72
65
73
0
40
0.0
0
LTYPE
5
16
330
7
100
AcDbSymbolTableRecord
100
AcDbLinetypeTableRecord
2
ByLayer
70
0
3

72
65
73
0
40
0.0
0
LTYPE
5
17
330
7
100
AcDbSymbolTableRecord
100
AcDbLinetypeTableRecord
2
ByBlock
70
0
3

72
65
73
0
40
0.0
0
ENDTAB
0
TABLE
2
LAYER
5
5
102
{ACAD_XDICTIONARY
360
6
102
}
330
0
100
AcDbSymbolTable
70
1
0
LAYER
5
14
330
5
100
AcDbSymbolTableRecord
100
AcDbLayerTableRecord
2
0
70
0
62
7
6
Continuous
290
1
370
-3
390
0
0
ENDTAB
0
TABLE
2
STYLE
5
8
330
0
100
AcDbSymbolTable
70
1
0
STYLE
5
18
330
8
100
AcDbSymbolTableRecord
100
AcDbTextStyleTableRecord
2
Standard
3
simplex.shx
70
0
71
0
40
0.0
41
1.0
42
0.0
50
0.0
0
ENDTAB
0
TABLE
2
DIMSTYLE
5
A
330
0
100
AcDbSymbolTable
70
1
100
AcDbDimStyleTable
0
DIMSTYLE
105
1A
330
A
100
AcDbSymbolTableRecord
100
AcDbDimStyleTableRecord
2
Standard
3

4

40
1.0
41
0.18
42
0.0625
43
0.38
44
0.18
45
0.0
46
0.0
47
0.0
48
0.0
49
1.0
70
0
71
0
72
0
73
0
74
0
75
0
76
0
77
0
78
0
79
0
140
0.18
141
0.09
143
25.4
144
1.0
146
1.0
147
0.09
148
0.0
170
0
171
2
172
0
174
0
175
0
176
0
177
0
178
0
179
0
271
4
272
4
273
2
274
2
275
0
276
0
277
2
278
46
279
0
280
0
281
0
282
0
283
1
284
0
285
0
286
0
289
3
290
0
294
0
340
18
173
0
345
17
346
17
347
17
371
-2
372
-2
0
ENDTAB
0
TABLE
2
VIEW
5
3
330
0
100
AcDbSymbolTable
70
0
0
ENDTAB
0
TABLE
2
UCS
5
C
330
0
100
AcDbSymbolTable
70
0
0
ENDTAB
0
TABLE
2
BLOCK_RECORD
5
D
330
0
100
AcDbSymbolTable
70
2
0
BLOCK_RECORD
5
1C
330
D
100
AcDbSymbolTableRecord
100
AcDbBlockTableRecord
2
*Model_Space
340
20
0
BLOCK_RECORD
5
3E
330
D
100
AcDbSymbolTableRecord
100
AcDbBlockTableRecord
2
*Paper_Space
340
43
0
ENDTAB
0
ENDSEC
0
SECTION
2
BLOCKS
0
BLOCK
5
1E
330
1C
100
AcDbEntity
67
0
8
0
100
AcDbBlockBegin
2
*Model_Space
70
0
10
0.0
20
0.0
30
0.0
3
*Model_Space
4

0
ENDBLK
5
1D
330
1C
100
AcDbEntity
8
0
100
AcDbBlockEnd
0
BLOCK
5
40
330
3E
100
AcDbEntity
67
1
8
0
100
AcDbBlockBegin
2
*Paper_Space
70
0
10
0.0
20
0.0
30
0.0
3
*Paper_Space
4

0
ENDBLK
5
3F
330
3E
100
AcDbEntity
8
0
100
AcDbBlockEnd
0
ENDSEC
0
SECTION
2
ENTITIES
0
LWPOLYLINE
5
22
330
1C
100
AcDbEntity
67
0
8
0
62
256
6
ByLayer
370
-1
48
1.0
60
0
100
AcDbPolyline
90
124
70
1
38
0.0
39
0.0
10
65.0090026855469
20
68.0419006347656
40
0.0
41
0.0
42
0.0
10
65.3218002319336
20
68.4886016845703
40
0.0
41
0.0
42
0.0
10
65.4104995727539
20
68.8963012695312
40
0.0
41
0.0
42
0.0
10
65.4392013549805
20
68.9858016967773
40
0.0
41
0.0
42
0.0
10
65.4589996337891
20
69.0616989135742
40
0.0
41
0.0
42
0.0
10
65.5567016601562
20
69.4859008789062
40
0.0
41
0.0
42
0.0
10
65.5888977050781
20
69.5755996704102
40
0.0
41
0.0
42
0.0
10
65.7233963012695
20
69.9886016845703
40
0.0
41
0.0
42
0.0
10
66.002197265625
20
70.4614028930664
40
0.0
41
0.0
42
0.0
10
66.0266036987305
20
70.4962005615234
40
0.0
41
0.0
42
0.0
10
66.5106964111328
20
70.7494964599609
40
0.0
41
0.0
42
0.0
10
66.7104034423828
20
70.8422012329102
40
0.0
41
0.0
42
0.0
10
66.9820022583008
20
70.7889022827148
40
0.0
41
0.0
42
0.0
10
67.0192031860352
20
70.7889022827148
40
0.0
41
0.0
42
0.0
10
67.1932983398438
20
70.8011016845703
40
0.0
41
0.0
42
0.0
10
67.4841003417969
20
70.7111968994141
40
0.0
41
0.0
42
0.0
10
67.6494979858398
20
70.6955032348633
40
0.0
41
0.0
42
0.0
10
67.9851989746094
20
70.5759963989258
40
0.0
41
0.0
42
0.0
10
68.1508026123047
20
70.5483016967773
40
0.0
41
0.0
42
0.0
10
68.2695007324219
20
70.4990005493164
40
0.0
41
0.0
42
0.0
10
68.4909973144531
20
70.3834991455078
40
0.0
41
0.0
42
0.0
10
68.9009017944336
20
70.0877990722656
40
0.0
41
0.0
42
0.0
10
68.9916000366211
20
70.0446014404297
40
0.0
41
0.0
42
0.0
10
69.0521011352539
20
69.9915008544922
40
0.0
41
0.0
42
0.0
10
69.0723037719727
20
69.9148025512695
40
0.0
41
0.0
42
0.0
10
69.2078018188477
20
69.6548004150391
40
0.0
41
0.0
42
0.0
10
69.2826995849609
20
69.4853973388672
40
0.0
41
0.0
42
0.0
10
69.3074035644531
20
69.2418975830078
40
0.0
41
0.0
42
0.0
10
69.3692016601562
20
68.9828033447266
40
0.0
41
0.0
42
0.0
10
69.379997253418
20
68.7190017700195
40
0.0
41
0.0
42
0.0
10
69.4152984619141
20
68.4917984008789
40
0.0
41
0.0
42
0.0
10
69.4039993286133
20
68.2931976318359
40
0.0
41
0.0
42
0.0
10
69.4039001464844
20
68.254997253418
40
0.0
41
0.0
42
0.0
10
69.4300003051758
20
68.0074005126953
40
0.0
41
0.0
42
0.0
10
69.4161987304688
20
67.959602355957
40
0.0
41
0.0
42
0.0
10
69.3570022583008
20
67.8486022949219
40
0.0
41
0.0
42
0.0
10
69.3531036376953
20
67.8137969970703
40
0.0
41
0.0
42
0.0
10
69.3547973632812
20
67.5158996582031
40
0.0
41
0.0
42
0.0
10
69.2563018798828
20
67.2126998901367
40
0.0
41
0.0
42
0.0
10
69.1207962036133
20
67.0997009277344
40
0.0
41
0.0
42
0.0
10
68.9906997680664
20
66.9990997314453
40
0.0
41
0.0
42
0.0
10
68.4856033325195
20
66.7839965820312
40
0.0
41
0.0
42
0.0
10
68.2780990600586
20
66.7555999755859
40
0.0
41
0.0
42
0.0
10
67.9816970825195
20
66.7079010009766
40
0.0
41
0.0
42
0.0
10
67.7757034301758
20
66.7068023681641
40
0.0
41
0.0
42
0.0
10
67.5
20
66.688102722168
40
0.0
41
0.0
42
0.0
10
67.3227005004883
20
66.7014999389648
40
0.0
41
0.0
42
0.0
10
67.277702331543
20
66.7017974853516
40
0.0
41
0.0
42
0.0
10
66.9835968017578
20
66.6789016723633
40
0.0
41
0.0
42
0.0
10
66.5503005981445
20
66.560302734375
40
0.0
41
0.0
42
0.0
10
66.5190963745117
20
66.563102722168
40
0.0
41
0.0
42
0.0
10
66.4915008544922
20
66.563102722168
40
0.0
41
0.0
42
0.0
10
66.4570999145508
20
66.5081024169922
40
0.0
41
0.0
42
0.0
10
66.2409973144531
20
66.2180023193359
40
0.0
41
0.0
42
0.0
10
66.2408981323242
20
66.1872024536133
40
0.0
41
0.0
42
0.0
10
66.2850036621094
20
65.9851989746094
40
0.0
41
0.0
42
0.0
10
66.3377990722656
20
65.8057022094727
40
0.0
41
0.0
42
0.0
10
66.3382034301758
20
65.4824981689453
40
0.0
41
0.0
42
0.0
10
66.4188003540039
20
65.1511993408203
40
0.0
41
0.0
42
0.0
10
66.4773025512695
20
65.0009994506836
40
0.0
41
0.0
42
0.0
10
66.4960021972656
20
65.0009994506836
40
0.0
41
0.0
42
0.0
10
66.4959030151367
20
65.015998840332
40
0.0
41
0.0
42
0.0
10
66.4169998168945
20
65.2185974121094
40
0.0
41
0.0
42
0.0
10
66.3444976806641
20
65.5174026489258
40
0.0
41
0.0
42
0.0
10
66.3441009521484
20
65.8127975463867
40
0.0
41
0.0
42
0.0
10
66.3365020751953
20
65.8498001098633
40
0.0
41
0.0
42
0.0
10
66.2878036499023
20
66.0147018432617
40
0.0
41
0.0
42
0.0
10
66.2565002441406
20
66.1587982177734
40
0.0
41
0.0
42
0.0
10
66.5074005126953
20
66.4959030151367
40
0.0
41
0.0
42
0.0
10
67.0162963867188
20
66.6352996826172
40
0.0
41
0.0
42
0.0
10
67.3399963378906
20
66.6604995727539
40
0.0
41
0.0
42
0.0
10
67.4807968139648
20
66.6498031616211
40
0.0
41
0.0
42
0.0
10
67.5193023681641
20
66.6498031616211
40
0.0
41
0.0
42
0.0
10
67.8542022705078
20
66.6726989746094
40
0.0
41
0.0
42
0.0
10
68.0182037353516
20
66.6735000610352
40
0.0
41
0.0
42
0.0
10
68.3517990112305
20
66.7274017333984
40
0.0
41
0.0
42
0.0
10
68.5142974853516
20
66.7498016357422
40
0.0
41
0.0
42
0.0
10
68.9093017578125
20
66.9179992675781
40
0.0
41
0.0
42
0.0
10
69.0086975097656
20
66.9583969116211
40
0.0
41
0.0
42
0.0
10
69.0509033203125
20
66.9961013793945
40
0.0
41
0.0
42
0.0
10
69.1518020629883
20
67.0736999511719
40
0.0
41
0.0
42
0.0
10
69.2518005371094
20
67.1572036743164
40
0.0
41
0.0
42
0.0
10
69.3580017089844
20
67.4832000732422
40
0.0
41
0.0
42
0.0
10
69.356201171875
20
67.7897033691406
40
0.0
41
0.0
42
0.0
10
69.4271011352539
20
67.9227981567383
40
0.0
41
0.0
42
0.0
10
69.4445037841797
20
67.9828033447266
40
0.0
41
0.0
42
0.0
10
69.4445037841797
20
68.0188980102539
40
0.0
41
0.0
42
0.0
10
69.4227981567383
20
68.2242965698242
40
0.0
41
0.0
42
0.0
10
69.4375991821289
20
68.480598449707
40
0.0
41
0.0
42
0.0
10
69.4375
20
68.5183029174805
40
0.0
41
0.0
42
0.0
10
69.4106979370117
20
68.6912002563477
40
0.0
41
0.0
42
0.0
10
69.3972015380859
20
69.0169982910156
40
0.0
41
0.0
42
0.0
10
69.3497009277344
20
69.2162017822266
40
0.0
41
0.0
42
0.0
10
69.3195037841797
20
69.5145034790039
40
0.0
41
0.0
42
0.0
10
69.260498046875
20
69.6476974487305
40
0.0
41
0.0
42
0.0
10
69.1472015380859
20
69.8650970458984
40
0.0
41
0.0
42
0.0
10
69.1093978881836
20
70.0083999633789
40
0.0
41
0.0
42
0.0
10
69.0082015991211
20
70.097297668457
40
0.0
41
0.0
42
0.0
10
68.8274993896484
20
70.1834030151367
40
0.0
41
0.0
42
0.0
10
68.5087966918945
20
70.413200378418
40
0.0
41
0.0
42
0.0
10
68.3407974243164
20
70.5009002685547
40
0.0
41
0.0
42
0.0
10
68.2190017700195
20
70.552001953125
40
0.0
41
0.0
42
0.0
10
68.0146026611328
20
70.5861968994141
40
0.0
41
0.0
42
0.0
10
67.7202987670898
20
70.6909027099609
40
0.0
41
0.0
42
0.0
10
67.5158004760742
20
70.7104034423828
40
0.0
41
0.0
42
0.0
10
67.1818008422852
20
70.8132019042969
40
0.0
41
0.0
42
0.0
10
67.1456985473633
20
70.813102722168
40
0.0
41
0.0
42
0.0
10
67.0081024169922
20
70.8033981323242
40
0.0
41
0.0
42
0.0
10
66.6828994750977
20
70.867301940918
40
0.0
41
0.0
42
0.0
10
66.6495971679688
20
70.8672027587891
40
0.0
41
0.0
42
0.0
10
66.4893035888672
20
70.7928009033203
40
0.0
41
0.0
42
0.0
10
66.0619964599609
20
70.5691986083984
40
0.0
41
0.0
42
0.0
10
65.9901962280273
20
70.5582962036133
40
0.0
41
0.0
42
0.0
10
65.9412994384766
20
70.5075988769531
40
0.0
41
0.0
42
0.0
10
65.8806991577148
20
70.3923034667969
40
0.0
41
0.0
42
0.0
10
65.6559982299805
20
70.0112991333008
40
0.0
41
0.0
42
0.0
10
65.494499206543
20
69.5143966674805
40
0.0
41
0.0
42
0.0
10
65.4162979125977
20
69.1743011474609
40
0.0
41
0.0
42
0.0
10
65.3746032714844
20
69.0140991210938
40
0.0
41
0.0
42
0.0
10
65.315299987793
20
68.8295974731445
40
0.0
41
0.0
42
0.0
10
65.2462005615234
20
68.5113983154297
40
0.0
41
0.0
42
0.0
10
65.0009994506836
20
68.1612014770508
40
0.0
41
0.0
42
0.0
10
65.0009994506836
20
68.0419006347656
40
0.0
41
0.0
42
0.0
10
65.0090026855469
20
68.0419006347656
40
0.0
41
0.0
42
0.0
210
0.0
220
0.0
230
1.0
0
LWPOLYLINE
5
23
330
1C
100
AcDbEntity
67
0
8
0
62
256
6
ByLayer
370
-1
48
1.0
60
0
100
AcDbPolyline
90
87
70
1
38
0.0
39
0.0
10
65.0009994506836
20
73.5700988769531
40
0.0
41
0.0
42
0.0
10
65.0184020996094
20
73.5700988769531
40
0.0
41
0.0
42
0.0
10
65.3307037353516
20
73.6156997680664
40
0.0
41
0.0
42
0.0
10
65.4829025268555
20
73.5711975097656
40
0.0
41
0.0
42
0.0
10
65.5179977416992
20
73.5712966918945
40
0.0
41
0.0
42
0.0
10
65.6778030395508
20
73.6006011962891
40
0.0
41
0.0
42
0.0
10
65.7129974365234
20
73.6202011108398
40
0.0
41
0.0
42
0.0
10
66.0043029785156
20
73.8651962280273
40
0.0
41
0.0
42
0.0
10
66.0345993041992
20
73.9077987670898
40
0.0
41
0.0
42
0.0
10
66.1641998291016
20
73.9955978393555
40
0.0
41
0.0
42
0.0
10
66.4045028686523
20
74.2907028198242
40
0.0
41
0.0
42
0.0
10
66.4806976318359
20
74.3407974243164
40
0.0
41
0.0
42
0.0
10
66.5047988891602
20
74.368896484375
40
0.0
41
0.0
42
0.0
10
66.6401977539062
20
74.495002746582
40
0.0
41
0.0
42
0.0
10
66.6704025268555
20
74.5260009765625
40
0.0
41
0.0
42
0.0
10
66.8545989990234
20
74.788200378418
40
0.0
41
0.0
42
0.0
10
66.8927993774414
20
74.8291015625
40
0.0
41
0.0
42
0.0
10
67.1544036865234
20
75.2142028808594
40
0.0
41
0.0
42
0.0
10
67.1939010620117
20
75.284797668457
40
0.0
41
0.0
42
0.0
10
67.2460021972656
20
75.3883972167969
40
0.0
41
0.0
42
0.0
10
67.2861022949219
20
75.4853973388672
40
0.0
41
0.0
42
0.0
10
67.3169021606445
20
75.7282028198242
40
0.0
41
0.0
42
0.0
10
67.3168029785156
20
75.7661972045898
40
0.0
41
0.0
42
0.0
10
67.3007965087891
20
76.0139007568359
40
0.0
41
0.0
42
0.0
10
67.188102722168
20
76.2172012329102
40
0.0
41
0.0
42
0.0
10
67.1140975952148
20
76.5128021240234
40
0.0
41
0.0
42
0.0
10
67.1120986938477
20
76.5167999267578
40
0.0
41
0.0
42
0.0
10
67.0031967163086
20
76.6675033569336
40
0.0
41
0.0
42
0.0
10
66.959602355957
20
76.7216033935547
40
0.0
41
0.0
42
0.0
10
66.8347015380859
20
77.011100769043
40
0.0
41
0.0
42
0.0
10
66.6911010742188
20
77.30419921875
40
0.0
41
0.0
42
0.0
10
66.6644973754883
20
77.3420028686523
40
0.0
41
0.0
42
0.0
10
66.5214996337891
20
77.5083999633789
40
0.0
41
0.0
42
0.0
10
66.5028991699219
20
77.5483016967773
40
0.0
41
0.0
42
0.0
10
66.4795989990234
20
77.5671997070312
40
0.0
41
0.0
42
0.0
10
66.3403015136719
20
77.6485977172852
40
0.0
41
0.0
42
0.0
10
66.1523971557617
20
77.9214019775391
40
0.0
41
0.0
42
0.0
10
66.0709991455078
20
78.0064010620117
40
0.0
41
0.0
42
0.0
10
66.007698059082
20
78.0926971435547
40
0.0
41
0.0
42
0.0
10
65.7562026977539
20
78.1464996337891
40
0.0
41
0.0
42
0.0
10
65.5160980224609
20
78.2386016845703
40
0.0
41
0.0
42
0.0
10
65.4823989868164
20
78.2385025024414
40
0.0
41
0.0
42
0.0
10
65.1439971923828
20
78.1574020385742
40
0.0
41
0.0
42
0.0
10
65.0009994506836
20
78.1312026977539
40
0.0
41
0.0
42
0.0
10
65.0009994506836
20
78.0632019042969
40
0.0
41
0.0
42
0.0
10
65.0179977416992
20
78.063102722168
40
0.0
41
0.0
42
0.0
10
65.092903137207
20
78.0768966674805
40
0.0
41
0.0
42
0.0
10
65.4968032836914
20
78.1737976074219
40
0.0
41
0.0
42
0.0
10
65.6657028198242
20
78.1091003417969
40
0.0
41
0.0
42
0.0
10
65.9921035766602
20
78.0391998291016
40
0.0
41
0.0
42
0.0
10
66.0255966186523
20
77.9934005737305
40
0.0
41
0.0
42
0.0
10
66.1272964477539
20
77.8873977661133
40
0.0
41
0.0
42
0.0
10
66.2894973754883
20
77.6518020629883
40
0.0
41
0.0
42
0.0
10
66.4568023681641
20
77.5541000366211
40
0.0
41
0.0
42
0.0
10
66.4969024658203
20
77.521598815918
40
0.0
41
0.0
42
0.0
10
66.5109024047852
20
77.4914016723633
40
0.0
41
0.0
42
0.0
10
66.6669998168945
20
77.3097991943359
40
0.0
41
0.0
42
0.0
10
66.8243026733398
20
76.9887008666992
40
0.0
41
0.0
42
0.0
10
66.9641036987305
20
76.6645965576172
40
0.0
41
0.0
42
0.0
10
66.9965972900391
20
76.624397277832
40
0.0
41
0.0
42
0.0
10
67.0869979858398
20
76.4991989135742
40
0.0
41
0.0
42
0.0
10
67.0926971435547
20
76.4869003295898
40
0.0
41
0.0
42
0.0
10
67.1764984130859
20
76.152702331543
40
0.0
41
0.0
42
0.0
10
67.268798828125
20
75.9860000610352
40
0.0
41
0.0
42
0.0
10
67.2807998657227
20
75.8021011352539
40
0.0
41
0.0
42
0.0
10
67.2433013916016
20
75.5117034912109
40
0.0
41
0.0
42
0.0
10
67.209602355957
20
75.4303970336914
40
0.0
41
0.0
42
0.0
10
67.1667022705078
20
75.345100402832
40
0.0
41
0.0
42
0.0
10
67.1203994750977
20
75.2622985839844
40
0.0
41
0.0
42
0.0
10
66.9981002807617
20
75.0821990966797
40
0.0
41
0.0
42
0.0
10
66.9618988037109
20
75.0093994140625
40
0.0
41
0.0
42
0.0
10
66.8706970214844
20
74.8748016357422
40
0.0
41
0.0
42
0.0
10
66.839599609375
20
74.8416976928711
40
0.0
41
0.0
42
0.0
10
66.6302032470703
20
74.5436019897461
40
0.0
41
0.0
42
0.0
10
66.5926971435547
20
74.5048980712891
40
0.0
41
0.0
42
0.0
10
66.4951019287109
20
74.4140014648438
40
0.0
41
0.0
42
0.0
10
66.4653015136719
20
74.3790969848633
40
0.0
41
0.0
42
0.0
10
66.4044036865234
20
74.3392028808594
40
0.0
41
0.0
42
0.0
10
66.1316986083984
20
74.0043029785156
40
0.0
41
0.0
42
0.0
10
66.0283966064453
20
73.9344024658203
40
0.0
41
0.0
42
0.0
10
65.9954986572266
20
73.8879013061523
40
0.0
41
0.0
42
0.0
10
65.6769027709961
20
73.620002746582
40
0.0
41
0.0
42
0.0
10
65.5034027099609
20
73.5882034301758
40
0.0
41
0.0
42
0.0
10
65.3119964599609
20
73.6442031860352
40
0.0
41
0.0
42
0.0
10
65.276496887207
20
73.6440963745117
40
0.0
41
0.0
42
0.0
10
65.0009994506836
20
73.6035003662109
40
0.0
41
0.0
42
0.0
10
65.0009994506836
20
73.5700988769531
40
0.0
41
0.0
42
0.0
210
0.0
220
0.0
230
1.0
0
LWPOLYLINE
5
24
330
1C
100
AcDbEntity
67
0
8
0
62
256
6
ByLayer
370
-1
48
1.0
60
0
100
AcDbPolyline
90
133
70
1
38
0.0
39
0.0
10
65.015998840332
20
83.5037994384766
40
0.0
41
0.0
42
0.0
10
65.2185974121094
20
83.5827026367188
40
0.0
41
0.0
42
0.0
10
65.5145034790039
20
83.6546020507812
40
0.0
41
0.0
42
0.0
10
65.709602355957
20
83.7121963500977
40
0.0
41
0.0
42
0.0
10
66.0177001953125
20
83.7125015258789
40
0.0
41
0.0
42
0.0
10
66.1588973999023
20
83.7432022094727
40
0.0
41
0.0
42
0.0
10
66.4946975708008
20
83.4932022094727
40
0.0
41
0.0
42
0.0
10
66.6415023803711
20
83.1305999755859
40
0.0
41
0.0
42
0.0
10
66.6355972290039
20
83.019401550293
40
0.0
41
0.0
42
0.0
10
66.635498046875
20
82.9807968139648
40
0.0
41
0.0
42
0.0
10
66.6604995727539
20
82.659797668457
40
0.0
41
0.0
42
0.0
10
66.6498031616211
20
82.5190963745117
40
0.0
41
0.0
42
0.0
10
66.6498031616211
20
82.480598449707
40
0.0
41
0.0
42
0.0
10
66.6726989746094
20
82.1456985473633
40
0.0
41
0.0
42
0.0
10
66.6735000610352
20
81.9816970825195
40
0.0
41
0.0
42
0.0
10
66.7274017333984
20
81.6481018066406
40
0.0
41
0.0
42
0.0
10
66.7497024536133
20
81.4856033325195
40
0.0
41
0.0
42
0.0
10
66.9179992675781
20
81.0905990600586
40
0.0
41
0.0
42
0.0
10
66.9583969116211
20
80.9912033081055
40
0.0
41
0.0
42
0.0
10
66.9961013793945
20
80.9487991333008
40
0.0
41
0.0
42
0.0
10
67.0736999511719
20
80.8479995727539
40
0.0
41
0.0
42
0.0
10
67.157096862793
20
80.7479019165039
40
0.0
41
0.0
42
0.0
10
67.4832000732422
20
80.6417999267578
40
0.0
41
0.0
42
0.0
10
67.7897033691406
20
80.6435012817383
40
0.0
41
0.0
42
0.0
10
67.9227981567383
20
80.5726013183594
40
0.0
41
0.0
42
0.0
10
67.9826965332031
20
80.5553970336914
40
0.0
41
0.0
42
0.0
10
68.0188980102539
20
80.5552978515625
40
0.0
41
0.0
42
0.0
10
68.2244033813477
20
80.5768966674805
40
0.0
41
0.0
42
0.0
10
68.480598449707
20
80.5623016357422
40
0.0
41
0.0
42
0.0
10
68.5183029174805
20
80.5622024536133
40
0.0
41
0.0
42
0.0
10
68.6912002563477
20
80.588996887207
40
0.0
41
0.0
42
0.0
10
69.0170974731445
20
80.6025009155273
40
0.0
41
0.0
42
0.0
10
69.2163009643555
20
80.6500015258789
40
0.0
41
0.0
42
0.0
10
69.5145034790039
20
80.6801986694336
40
0.0
41
0.0
42
0.0
10
69.6476974487305
20
80.7391967773438
40
0.0
41
0.0
42
0.0
10
69.8650970458984
20
80.8525009155273
40
0.0
41
0.0
42
0.0
10
70.0083999633789
20
80.8902969360352
40
0.0
41
0.0
42
0.0
10
70.0999984741211
20
80.994499206543
40
0.0
41
0.0
42
0.0
10
70.1889038085938
20
81.0783996582031
40
0.0
41
0.0
42
0.0
10
70.3511962890625
20
81.2853012084961
40
0.0
41
0.0
42
0.0
10
70.3701019287109
20
81.3366012573242
40
0.0
41
0.0
42
0.0
10
70.4114990234375
20
81.4877014160156
40
0.0
41
0.0
42
0.0
10
70.5009002685547
20
81.6589965820312
40
0.0
41
0.0
42
0.0
10
70.552001953125
20
81.7807998657227
40
0.0
41
0.0
42
0.0
10
70.5861968994141
20
81.9851989746094
40
0.0
41
0.0
42
0.0
10
70.6909027099609
20
82.2796020507812
40
0.0
41
0.0
42
0.0
10
70.7104034423828
20
82.4841003417969
40
0.0
41
0.0
42
0.0
10
70.8132019042969
20
82.8180999755859
40
0.0
41
0.0
42
0.0
10
70.813102722168
20
82.8542022705078
40
0.0
41
0.0
42
0.0
10
70.8033981323242
20
82.9917984008789
40
0.0
41
0.0
42
0.0
10
70.867301940918
20
83.3170013427734
40
0.0
41
0.0
42
0.0
10
70.8672027587891
20
83.3503036499023
40
0.0
41
0.0
42
0.0
10
70.7927017211914
20
83.5105972290039
40
0.0
41
0.0
42
0.0
10
70.5691986083984
20
83.9378967285156
40
0.0
41
0.0
42
0.0
10
70.5581970214844
20
84.0096969604492
40
0.0
41
0.0
42
0.0
10
70.5074996948242
20
84.0584030151367
40
0.0
41
0.0
42
0.0
10
70.3921966552734
20
84.1190032958984
40
0.0
41
0.0
42
0.0
10
70.0108032226562
20
84.3439025878906
40
0.0
41
0.0
42
0.0
10
69.8991012573242
20
84.3860015869141
40
0.0
41
0.0
42
0.0
10
69.5145034790039
20
84.5052032470703
40
0.0
41
0.0
42
0.0
10
69.174201965332
20
84.5833969116211
40
0.0
41
0.0
42
0.0
10
69.0140991210938
20
84.6250991821289
40
0.0
41
0.0
42
0.0
10
68.8295974731445
20
84.6844024658203
40
0.0
41
0.0
42
0.0
10
68.5152969360352
20
84.7527008056641
40
0.0
41
0.0
42
0.0
10
68.3087005615234
20
84.8021011352539
40
0.0
41
0.0
42
0.0
10
68.1575012207031
20
84.9990005493164
40
0.0
41
0.0
42
0.0
10
68.0419006347656
20
84.9990005493164
40
0.0
41
0.0
42
0.0
10
68.0418014526367
20
84.9870986938477
40
0.0
41
0.0
42
0.0
10
68.2323989868164
20
84.7389984130859
40
0.0
41
0.0
42
0.0
10
68.4845962524414
20
84.6788024902344
40
0.0
41
0.0
42
0.0
10
68.8963012695312
20
84.5892028808594
40
0.0
41
0.0
42
0.0
10
68.9858016967773
20
84.5605010986328
40
0.0
41
0.0
42
0.0
10
69.0615997314453
20
84.5407028198242
40
0.0
41
0.0
42
0.0
10
69.4853973388672
20
84.4431991577148
40
0.0
41
0.0
42
0.0
10
69.8249969482422
20
84.3379974365234
40
0.0
41
0.0
42
0.0
10
69.9889984130859
20
84.2761001586914
40
0.0
41
0.0
42
0.0
10
70.4614028930664
20
83.9974975585938
40
0.0
41
0.0
42
0.0
10
70.4962005615234
20
83.9731979370117
40
0.0
41
0.0
42
0.0
10
70.749397277832
20
83.4891967773438
40
0.0
41
0.0
42
0.0
10
70.8422012329102
20
83.2894973754883
40
0.0
41
0.0
42
0.0
10
70.7889022827148
20
83.0178985595703
40
0.0
41
0.0
42
0.0
10
70.7889022827148
20
82.9806976318359
40
0.0
41
0.0
42
0.0
10
70.8011016845703
20
82.8066024780273
40
0.0
41
0.0
42
0.0
10
70.7111968994141
20
82.5158004760742
40
0.0
41
0.0
42
0.0
10
70.6956024169922
20
82.3504028320312
40
0.0
41
0.0
42
0.0
10
70.5759963989258
20
82.0147018432617
40
0.0
41
0.0
42
0.0
10
70.5483016967773
20
81.8490982055664
40
0.0
41
0.0
42
0.0
10
70.4990005493164
20
81.7303009033203
40
0.0
41
0.0
42
0.0
10
70.3852996826172
20
81.5121994018555
40
0.0
41
0.0
42
0.0
10
70.3525009155273
20
81.3928985595703
40
0.0
41
0.0
42
0.0
10
70.3347015380859
20
81.344596862793
40
0.0
41
0.0
42
0.0
10
70.1439971923828
20
81.1014022827148
40
0.0
41
0.0
42
0.0
10
70.0420989990234
20
81.0054016113281
40
0.0
41
0.0
42
0.0
10
69.9916000366211
20
80.9476013183594
40
0.0
41
0.0
42
0.0
10
69.9148025512695
20
80.9273986816406
40
0.0
41
0.0
42
0.0
10
69.654899597168
20
80.7919006347656
40
0.0
41
0.0
42
0.0
10
69.4853973388672
20
80.7170028686523
40
0.0
41
0.0
42
0.0
10
69.2418975830078
20
80.6923980712891
40
0.0
41
0.0
42
0.0
10
68.9829025268555
20
80.630500793457
40
0.0
41
0.0
42
0.0
10
68.7190017700195
20
80.6196975708008
40
0.0
41
0.0
42
0.0
10
68.4917984008789
20
80.5843963623047
40
0.0
41
0.0
42
0.0
10
68.2931976318359
20
80.5959014892578
40
0.0
41
0.0
42
0.0
10
68.254997253418
20
80.5958023071289
40
0.0
41
0.0
42
0.0
10
68.0074005126953
20
80.5697021484375
40
0.0
41
0.0
42
0.0
10
67.959602355957
20
80.5835037231445
40
0.0
41
0.0
42
0.0
10
67.8486022949219
20
80.6427001953125
40
0.0
41
0.0
42
0.0
10
67.8137969970703
20
80.6466979980469
40
0.0
41
0.0
42
0.0
10
67.5158996582031
20
80.6448974609375
40
0.0
41
0.0
42
0.0
10
67.2126007080078
20
80.7434997558594
40
0.0
41
0.0
42
0.0
10
67.0997009277344
20
80.8788986206055
40
0.0
41
0.0
42
0.0
10
66.9990997314453
20
81.0092010498047
40
0.0
41
0.0
42
0.0
10
66.7839965820312
20
81.5142974853516
40
0.0
41
0.0
42
0.0
10
66.7555999755859
20
81.7218017578125
40
0.0
41
0.0
42
0.0
10
66.7079010009766
20
82.0182037353516
40
0.0
41
0.0
42
0.0
10
66.7068023681641
20
82.2241973876953
40
0.0
41
0.0
42
0.0
10
66.688102722168
20
82.4999008178711
40
0.0
41
0.0
42
0.0
10
66.7014999389648
20
82.6771011352539
40
0.0
41
0.0
42
0.0
10
66.7017974853516
20
82.7220993041992
40
0.0
41
0.0
42
0.0
10
66.6799011230469
20
83.0031967163086
40
0.0
41
0.0
42
0.0
10
66.6892013549805
20
83.1707000732422
40
0.0
41
0.0
42
0.0
10
66.6891021728516
20
83.2060012817383
40
0.0
41
0.0
42
0.0
10
66.5671005249023
20
83.5056991577148
40
0.0
41
0.0
42
0.0
10
66.5080032348633
20
83.5426025390625
40
0.0
41
0.0
42
0.0
10
66.2180023193359
20
83.758903503418
40
0.0
41
0.0
42
0.0
10
66.1872024536133
20
83.7587966918945
40
0.0
41
0.0
42
0.0
10
65.9822006225586
20
83.7142028808594
40
0.0
41
0.0
42
0.0
10
65.6858978271484
20
83.7138977050781
40
0.0
41
0.0
42
0.0
10
65.6489028930664
20
83.7105026245117
40
0.0
41
0.0
42
0.0
10
65.4853973388672
20
83.6622009277344
40
0.0
41
0.0
42
0.0
10
65.1512985229492
20
83.5810012817383
40
0.0
41
0.0
42
0.0
10
65.0009994506836
20
83.5224990844727
40
0.0
41
0.0
42
0.0
10
65.0009994506836
20
83.5038986206055
40
0.0
41
0.0
42
0.0
10
65.015998840332
20
83.5037994384766
40
0.0
41
0.0
42
0.0
210
0.0
220
0.0
230
1.0
0
LWPOLYLINE
5
25
330
1C
100
AcDbEntity
67
0
8
0
62
256
6
ByLayer
370
-1
48
1.0
60
0
100
AcDbPolyline
90
236
70
1
38
0.0
39
0.0
10
69.7967987060547
20
75.6043014526367
40
0.0
41
0.0
42
0.0
10
69.6831970214844
20
75.5101013183594
40
0.0
41
0.0
42
0.0
10
69.6830978393555
20
75.484001159668
40
0.0
41
0.0
42
0.0
10
69.7642974853516
20
75.2830963134766
40
0.0
41
0.0
42
0.0
10
69.8939971923828
20
74.9932022094727
40
0.0
41
0.0
42
0.0
10
69.9355010986328
20
74.9605026245117
40
0.0
41
0.0
42
0.0
10
70.1664962768555
20
74.8188018798828
40
0.0
41
0.0
42
0.0
10
70.491096496582
20
74.5643005371094
40
0.0
41
0.0
42
0.0
10
70.5634002685547
20
74.5289001464844
40
0.0
41
0.0
42
0.0
10
70.8979034423828
20
74.3119964599609
40
0.0
41
0.0
42
0.0
10
70.9872970581055
20
74.2733001708984
40
0.0
41
0.0
42
0.0
10
71.1533966064453
20
74.2200012207031
40
0.0
41
0.0
42
0.0
10
71.4881973266602
20
74.0307998657227
40
0.0
41
0.0
42
0.0
10
71.5954971313477
20
73.9981994628906
40
0.0
41
0.0
42
0.0
10
71.4994964599609
20
73.8143997192383
40
0.0
41
0.0
42
0.0
10
71.4630966186523
20
73.686897277832
40
0.0
41
0.0
42
0.0
10
71.4375
20
73.5113983154297
40
0.0
41
0.0
42
0.0
10
71.375
20
73.4311981201172
40
0.0
41
0.0
42
0.0
10
71.3126983642578
20
73.3440017700195
40
0.0
41
0.0
42
0.0
10
71.1391983032227
20
73.0100021362305
40
0.0
41
0.0
42
0.0
10
71.0468978881836
20
72.8458023071289
40
0.0
41
0.0
42
0.0
10
70.9091033935547
20
72.5134963989258
40
0.0
41
0.0
42
0.0
10
70.9017028808594
20
72.4813003540039
40
0.0
41
0.0
42
0.0
10
70.8557968139648
20
72.3498992919922
40
0.0
41
0.0
42
0.0
10
70.8059997558594
20
72.0184020996094
40
0.0
41
0.0
42
0.0
10
70.8058013916016
20
71.9820022583008
40
0.0
41
0.0
42
0.0
10
70.8379974365234
20
71.8206024169922
40
0.0
41
0.0
42
0.0
10
70.8516998291016
20
71.783203125
40
0.0
41
0.0
42
0.0
10
70.9804992675781
20
71.5212020874023
40
0.0
41
0.0
42
0.0
10
70.9919967651367
20
71.511100769043
40
0.0
41
0.0
42
0.0
10
71.0130004882812
20
71.4998016357422
40
0.0
41
0.0
42
0.0
10
71.1289978027344
20
71.4751968383789
40
0.0
41
0.0
42
0.0
10
71.2791976928711
20
71.4365005493164
40
0.0
41
0.0
42
0.0
10
71.4815979003906
20
71.4046020507812
40
0.0
41
0.0
42
0.0
10
71.5177993774414
20
71.4045028686523
40
0.0
41
0.0
42
0.0
10
71.6980972290039
20
71.4415969848633
40
0.0
41
0.0
42
0.0
10
72.0162963867188
20
71.4723968505859
40
0.0
41
0.0
42
0.0
10
72.1155014038086
20
71.497802734375
40
0.0
41
0.0
42
0.0
10
72.2805023193359
20
71.5627975463867
40
0.0
41
0.0
42
0.0
10
72.5119018554688
20
71.6206970214844
40
0.0
41
0.0
42
0.0
10
72.6769027709961
20
71.7175979614258
40
0.0
41
0.0
42
0.0
10
73.0108032226562
20
71.8016967773438
40
0.0
41
0.0
42
0.0
10
73.4503021240234
20
71.5393981933594
40
0.0
41
0.0
42
0.0
10
73.4744033813477
20
71.5394973754883
40
0.0
41
0.0
42
0.0
10
73.4962997436523
20
71.567497253418
40
0.0
41
0.0
42
0.0
10
73.5015029907227
20
71.5663986206055
40
0.0
41
0.0
42
0.0
10
73.5130004882812
20
71.5222015380859
40
0.0
41
0.0
42
0.0
10
73.5166015625
20
71.4839019775391
40
0.0
41
0.0
42
0.0
10
73.5688018798828
20
71.3032989501953
40
0.0
41
0.0
42
0.0
10
73.6089019775391
20
71.1493988037109
40
0.0
41
0.0
42
0.0
10
73.6369018554688
20
70.9845962524414
40
0.0
41
0.0
42
0.0
10
73.6827011108398
20
70.8215026855469
40
0.0
41
0.0
42
0.0
10
73.8107986450195
20
70.4887008666992
40
0.0
41
0.0
42
0.0
10
73.9773025512695
20
70.1789016723633
40
0.0
41
0.0
42
0.0
10
73.9988021850586
20
70.1179962158203
40
0.0
41
0.0
42
0.0
10
74.0671005249023
20
70.0201034545898
40
0.0
41
0.0
42
0.0
10
74.0977020263672
20
69.9970016479492
40
0.0
41
0.0
42
0.0
10
74.3954010009766
20
69.7966995239258
40
0.0
41
0.0
42
0.0
10
74.4897994995117
20
69.6831970214844
40
0.0
41
0.0
42
0.0
10
74.5158996582031
20
69.6830978393555
40
0.0
41
0.0
42
0.0
10
74.7166976928711
20
69.7642974853516
40
0.0
41
0.0
42
0.0
10
75.0065994262695
20
69.8939971923828
40
0.0
41
0.0
42
0.0
10
75.0391998291016
20
69.9354019165039
40
0.0
41
0.0
42
0.0
10
75.0728988647461
20
69.9918975830078
40
0.0
41
0.0
42
0.0
10
75.3047027587891
20
70.2876968383789
40
0.0
41
0.0
42
0.0
10
75.3339004516602
20
70.3267974853516
40
0.0
41
0.0
42
0.0
10
75.4348983764648
20
70.4900970458984
40
0.0
41
0.0
42
0.0
10
75.4708023071289
20
70.5634002685547
40
0.0
41
0.0
42
0.0
10
75.6877975463867
20
70.8979034423828
40
0.0
41
0.0
42
0.0
10
75.7264022827148
20
70.9872970581055
40
0.0
41
0.0
42
0.0
10
75.7797012329102
20
71.1533966064453
40
0.0
41
0.0
42
0.0
10
75.9689025878906
20
71.4882965087891
40
0.0
41
0.0
42
0.0
10
76.0018005371094
20
71.5953979492188
40
0.0
41
0.0
42
0.0
10
76.1854019165039
20
71.4994964599609
40
0.0
41
0.0
42
0.0
10
76.3128967285156
20
71.4629974365234
40
0.0
41
0.0
42
0.0
10
76.4885025024414
20
71.4375
40
0.0
41
0.0
42
0.0
10
76.5684967041016
20
71.3749008178711
40
0.0
41
0.0
42
0.0
10
76.6558990478516
20
71.3125991821289
40
0.0
41
0.0
42
0.0
10
76.9898986816406
20
71.1391983032227
40
0.0
41
0.0
42
0.0
10
77.1544036865234
20
71.0466995239258
40
0.0
41
0.0
42
0.0
10
77.1791000366211
20
71.035400390625
40
0.0
41
0.0
42
0.0
10
77.2706985473633
20
70.9992980957031
40
0.0
41
0.0
42
0.0
10
77.4863967895508
20
70.9089965820312
40
0.0
41
0.0
42
0.0
10
77.5186004638672
20
70.9016036987305
40
0.0
41
0.0
42
0.0
10
77.6500015258789
20
70.8557968139648
40
0.0
41
0.0
42
0.0
10
77.9814987182617
20
70.8059997558594
40
0.0
41
0.0
42
0.0
10
78.0178985595703
20
70.8059005737305
40
0.0
41
0.0
42
0.0
10
78.17919921875
20
70.8379974365234
40
0.0
41
0.0
42
0.0
10
78.2166976928711
20
70.8517990112305
40
0.0
41
0.0
42
0.0
10
78.4785003662109
20
70.980598449707
40
0.0
41
0.0
42
0.0
10
78.4887008666992
20
70.9919967651367
40
0.0
41
0.0
42
0.0
10
78.5
20
71.0130996704102
40
0.0
41
0.0
42
0.0
10
78.5244979858398
20
71.1290969848633
40
0.0
41
0.0
42
0.0
10
78.5632019042969
20
71.2791976928711
40
0.0
41
0.0
42
0.0
10
78.5952987670898
20
71.4815979003906
40
0.0
41
0.0
42
0.0
10
78.595100402832
20
71.5188980102539
40
0.0
41
0.0
42
0.0
10
78.5669021606445
20
71.8125
40
0.0
41
0.0
42
0.0
10
78.5614013671875
20
71.8514022827148
40
0.0
41
0.0
42
0.0
10
78.5276031494141
20
72.0151977539062
40
0.0
41
0.0
42
0.0
10
78.5019989013672
20
72.1155014038086
40
0.0
41
0.0
42
0.0
10
78.4369964599609
20
72.2805023193359
40
0.0
41
0.0
42
0.0
10
78.2947006225586
20
72.8469009399414
40
0.0
41
0.0
42
0.0
10
78.1981964111328
20
73.011100769043
40
0.0
41
0.0
42
0.0
10
78.4604034423828
20
73.4503021240234
40
0.0
41
0.0
42
0.0
10
78.4601974487305
20
73.4742965698242
40
0.0
41
0.0
42
0.0
10
78.4320983886719
20
73.4962005615234
40
0.0
41
0.0
42
0.0
10
78.4349975585938
20
73.5067977905273
40
0.0
41
0.0
42
0.0
10
78.5158004760742
20
73.5165023803711
40
0.0
41
0.0
42
0.0
10
78.6965026855469
20
73.5688018798828
40
0.0
41
0.0
42
0.0
10
78.8505020141602
20
73.6089019775391
40
0.0
41
0.0
42
0.0
10
79.0152969360352
20
73.6370010375977
40
0.0
41
0.0
42
0.0
10
79.1782989501953
20
73.6827011108398
40
0.0
41
0.0
42
0.0
10
79.5111999511719
20
73.8107986450195
40
0.0
41
0.0
42
0.0
10
79.82080078125
20
73.9773025512695
40
0.0
41
0.0
42
0.0
10
79.8817977905273
20
73.9988021850586
40
0.0
41
0.0
42
0.0
10
79.9795989990234
20
74.0671997070312
40
0.0
41
0.0
42
0.0
10
80.002799987793
20
74.0978012084961
40
0.0
41
0.0
42
0.0
10
80.2030029296875
20
74.3955001831055
40
0.0
41
0.0
42
0.0
10
80.3167037963867
20
74.4897994995117
40
0.0
41
0.0
42
0.0
10
80.3165969848633
20
74.5155029296875
40
0.0
41
0.0
42
0.0
10
80.1864013671875
20
74.8067016601562
40
0.0
41
0.0
42
0.0
10
80.1054000854492
20
75.0067977905273
40
0.0
41
0.0
42
0.0
10
80.0643997192383
20
75.0391998291016
40
0.0
41
0.0
42
0.0
10
80.0080032348633
20
75.0727996826172
40
0.0
41
0.0
42
0.0
10
79.7120971679688
20
75.3047027587891
40
0.0
41
0.0
42
0.0
10
79.6731033325195
20
75.3338012695312
40
0.0
41
0.0
42
0.0
10
79.5098037719727
20
75.4348983764648
40
0.0
41
0.0
42
0.0
10
79.4363021850586
20
75.470703125
40
0.0
41
0.0
42
0.0
10
79.1018981933594
20
75.6876983642578
40
0.0
41
0.0
42
0.0
10
79.0124969482422
20
75.7263031005859
40
0.0
41
0.0
42
0.0
10
78.8464965820312
20
75.7797012329102
40
0.0
41
0.0
42
0.0
10
78.5115966796875
20
75.9689025878906
40
0.0
41
0.0
42
0.0
10
78.4041976928711
20
76.0017013549805
40
0.0
41
0.0
42
0.0
10
78.5003967285156
20
76.1855010986328
40
0.0
41
0.0
42
0.0
10
78.5366973876953
20
76.3128967285156
40
0.0
41
0.0
42
0.0
10
78.5623016357422
20
76.4885025024414
40
0.0
41
0.0
42
0.0
10
78.6249008178711
20
76.568603515625
40
0.0
41
0.0
42
0.0
10
78.6871032714844
20
76.6559982299805
40
0.0
41
0.0
42
0.0
10
78.8604965209961
20
76.9899978637695
40
0.0
41
0.0
42
0.0
10
78.9530029296875
20
77.1545028686523
40
0.0
41
0.0
42
0.0
10
78.9643020629883
20
77.17919921875
40
0.0
41
0.0
42
0.0
10
79.0005035400391
20
77.2707977294922
40
0.0
41
0.0
42
0.0
10
79.0906982421875
20
77.4863967895508
40
0.0
41
0.0
42
0.0
10
79.0980987548828
20
77.5186004638672
40
0.0
41
0.0
42
0.0
10
79.1438980102539
20
77.6500015258789
40
0.0
41
0.0
42
0.0
10
79.1939010620117
20
77.9814987182617
40
0.0
41
0.0
42
0.0
10
79.1938018798828
20
78.0178985595703
40
0.0
41
0.0
42
0.0
10
79.1616973876953
20
78.17919921875
40
0.0
41
0.0
42
0.0
10
79.1480026245117
20
78.2165985107422
40
0.0
41
0.0
42
0.0
10
79.0192031860352
20
78.4785995483398
40
0.0
41
0.0
42
0.0
10
79.0077972412109
20
78.4886016845703
40
0.0
41
0.0
42
0.0
10
78.986701965332
20
78.5
40
0.0
41
0.0
42
0.0
10
78.8706970214844
20
78.5244979858398
40
0.0
41
0.0
42
0.0
10
78.720703125
20
78.5632019042969
40
0.0
41
0.0
42
0.0
10
78.5184020996094
20
78.5951995849609
40
0.0
41
0.0
42
0.0
10
78.4741973876953
20
78.594596862793
40
0.0
41
0.0
42
0.0
10
78.1874008178711
20
78.5669021606445
40
0.0
41
0.0
42
0.0
10
78.1484985351562
20
78.5614013671875
40
0.0
41
0.0
42
0.0
10
77.9847030639648
20
78.5276031494141
40
0.0
41
0.0
42
0.0
10
77.8843002319336
20
78.5019989013672
40
0.0
41
0.0
42
0.0
10
77.7192993164062
20
78.4369964599609
40
0.0
41
0.0
42
0.0
10
77.1529998779297
20
78.2947998046875
40
0.0
41
0.0
42
0.0
10
77.0002975463867
20
78.2050018310547
40
0.0
41
0.0
42
0.0
10
76.7895965576172
20
78.3391036987305
40
0.0
41
0.0
42
0.0
10
76.7611999511719
20
78.338996887207
40
0.0
41
0.0
42
0.0
10
76.5773010253906
20
78.2360992431641
40
0.0
41
0.0
42
0.0
10
76.5
20
78.4290008544922
40
0.0
41
0.0
42
0.0
10
76.486701965332
20
78.4776000976562
40
0.0
41
0.0
42
0.0
10
76.4831008911133
20
78.515998840332
40
0.0
41
0.0
42
0.0
10
76.4309005737305
20
78.6965026855469
40
0.0
41
0.0
42
0.0
10
76.3908004760742
20
78.8505020141602
40
0.0
41
0.0
42
0.0
10
76.3629989624023
20
79.0143966674805
40
0.0
41
0.0
42
0.0
10
76.2343978881836
20
79.3482971191406
40
0.0
41
0.0
42
0.0
10
76.1884002685547
20
79.5120010375977
40
0.0
41
0.0
42
0.0
10
76.0223999023438
20
79.82080078125
40
0.0
41
0.0
42
0.0
10
76.0009994506836
20
79.8816986083984
40
0.0
41
0.0
42
0.0
10
75.932502746582
20
79.9794998168945
40
0.0
41
0.0
42
0.0
10
75.9020004272461
20
80.002799987793
40
0.0
41
0.0
42
0.0
10
75.6043014526367
20
80.2029037475586
40
0.0
41
0.0
42
0.0
10
75.5101013183594
20
80.3167037963867
40
0.0
41
0.0
42
0.0
10
75.4843978881836
20
80.3167037963867
40
0.0
41
0.0
42
0.0
10
75.1931991577148
20
80.1864013671875
40
0.0
41
0.0
42
0.0
10
74.9929962158203
20
80.1054992675781
40
0.0
41
0.0
42
0.0
10
74.9605026245117
20
80.0643005371094
40
0.0
41
0.0
42
0.0
10
74.8188018798828
20
79.8332977294922
40
0.0
41
0.0
42
0.0
10
74.5643005371094
20
79.5086975097656
40
0.0
41
0.0
42
0.0
10
74.5289993286133
20
79.4364013671875
40
0.0
41
0.0
42
0.0
10
74.3119964599609
20
79.1018981933594
40
0.0
41
0.0
42
0.0
10
74.2733993530273
20
79.0126037597656
40
0.0
41
0.0
42
0.0
10
74.220100402832
20
78.8464965820312
40
0.0
41
0.0
42
0.0
10
74.0307998657227
20
78.5115966796875
40
0.0
41
0.0
42
0.0
10
73.9981994628906
20
78.4041976928711
40
0.0
41
0.0
42
0.0
10
73.8143005371094
20
78.5002975463867
40
0.0
41
0.0
42
0.0
10
73.686897277832
20
78.5365982055664
40
0.0
41
0.0
42
0.0
10
73.5113983154297
20
78.5622024536133
40
0.0
41
0.0
42
0.0
10
73.4310989379883
20
78.6248016357422
40
0.0
41
0.0
42
0.0
10
73.3439025878906
20
78.6869964599609
40
0.0
41
0.0
42
0.0
10
73.0099029541016
20
78.8604965209961
40
0.0
41
0.0
42
0.0
10
72.845703125
20
78.9527969360352
40
0.0
41
0.0
42
0.0
10
72.5134963989258
20
79.0905990600586
40
0.0
41
0.0
42
0.0
10
72.4813003540039
20
79.0980987548828
40
0.0
41
0.0
42
0.0
10
72.3498992919922
20
79.1438980102539
40
0.0
41
0.0
42
0.0
10
72.0184020996094
20
79.1939010620117
40
0.0
41
0.0
42
0.0
10
71.9820022583008
20
79.1939010620117
40
0.0
41
0.0
42
0.0
10
71.8207015991211
20
79.1616973876953
40
0.0
41
0.0
42
0.0
10
71.783203125
20
79.1480026245117
40
0.0
41
0.0
42
0.0
10
71.5213012695312
20
79.0192031860352
40
0.0
41
0.0
42
0.0
10
71.511100769043
20
79.0077972412109
40
0.0
41
0.0
42
0.0
10
71.4998016357422
20
78.9868011474609
40
0.0
41
0.0
42
0.0
10
71.4751968383789
20
78.8706970214844
40
0.0
41
0.0
42
0.0
10
71.4365005493164
20
78.720703125
40
0.0
41
0.0
42
0.0
10
71.4046020507812
20
78.5183029174805
40
0.0
41
0.0
42
0.0
10
71.4045028686523
20
78.4821014404297
40
0.0
41
0.0
42
0.0
10
71.4415969848633
20
78.3018035888672
40
0.0
41
0.0
42
0.0
10
71.4723968505859
20
77.9835968017578
40
0.0
41
0.0
42
0.0
10
71.4977035522461
20
77.8843002319336
40
0.0
41
0.0
42
0.0
10
71.5627975463867
20
77.7192001342773
40
0.0
41
0.0
42
0.0
10
71.6206970214844
20
77.4879989624023
40
0.0
41
0.0
42
0.0
10
71.7175979614258
20
77.322998046875
40
0.0
41
0.0
42
0.0
10
71.8016967773438
20
76.9889984130859
40
0.0
41
0.0
42
0.0
10
71.5393981933594
20
76.5494995117188
40
0.0
41
0.0
42
0.0
10
71.5393981933594
20
76.5254974365234
40
0.0
41
0.0
42
0.0
10
71.5675964355469
20
76.5040969848633
40
0.0
41
0.0
42
0.0
10
71.5665969848633
20
76.4990997314453
40
0.0
41
0.0
42
0.0
10
71.5223999023438
20
76.486701965332
40
0.0
41
0.0
42
0.0
10
71.4839019775391
20
76.4831008911133
40
0.0
41
0.0
42
0.0
10
71.3032989501953
20
76.4309005737305
40
0.0
41
0.0
42
0.0
10
71.1493988037109
20
76.3908004760742
40
0.0
41
0.0
42
0.0
10
70.9854965209961
20
76.3629989624023
40
0.0
41
0.0
42
0.0
10
70.6516036987305
20
76.2343978881836
40
0.0
41
0.0
42
0.0
10
70.4878997802734
20
76.1884994506836
40
0.0
41
0.0
42
0.0
10
70.1790008544922
20
76.0223999023438
40
0.0
41
0.0
42
0.0
10
70.1181030273438
20
76.0009994506836
40
0.0
41
0.0
42
0.0
10
70.0202026367188
20
75.9327011108398
40
0.0
41
0.0
42
0.0
10
69.9971008300781
20
75.9020004272461
40
0.0
41
0.0
42
0.0
10
69.7967987060547
20
75.6043014526367
40
0.0
41
0.0
42
0.0
210
0.0
220
0.0
230
1.0
0
LWPOLYLINE
5
26
330
1C
100
AcDbEntity
67
0
8
0
62
256
6
ByLayer
370
-1
48
1.0
60
0
100
AcDbPolyline
90
237
70
1
38
0.0
39
0.0
10
69.8033981323242
20
75.5886001586914
40
0.0
41
0.0
42
0.0
10
69.8254013061523
20
75.6091995239258
40
0.0
41
0.0
42
0.0
10
70.002799987793
20
75.8729019165039
40
0.0
41
0.0
42
0.0
10
70.0276031494141
20
75.9057998657227
40
0.0
41
0.0
42
0.0
10
70.1606979370117
20
75.9988021850586
40
0.0
41
0.0
42
0.0
10
70.238899230957
20
76.0262985229492
40
0.0
41
0.0
42
0.0
10
70.5120010375977
20
76.1731033325195
40
0.0
41
0.0
42
0.0
10
70.7182998657227
20
76.2310028076172
40
0.0
41
0.0
42
0.0
10
71.0143966674805
20
76.3450012207031
40
0.0
41
0.0
42
0.0
10
71.2204971313477
20
76.3800964355469
40
0.0
41
0.0
42
0.0
10
71.3539962768555
20
76.4149017333984
40
0.0
41
0.0
42
0.0
10
71.515998840332
20
76.4617004394531
40
0.0
41
0.0
42
0.0
10
71.6098022460938
20
76.4705963134766
40
0.0
41
0.0
42
0.0
10
71.7035980224609
20
76.4960021972656
40
0.0
41
0.0
42
0.0
10
71.7033996582031
20
76.5095977783203
40
0.0
41
0.0
42
0.0
10
71.6022033691406
20
76.5877990722656
40
0.0
41
0.0
42
0.0
10
71.8294982910156
20
76.9683990478516
40
0.0
41
0.0
42
0.0
10
71.8293991088867
20
76.9989013671875
40
0.0
41
0.0
42
0.0
10
71.8239974975586
20
77.013801574707
40
0.0
41
0.0
42
0.0
10
71.7500991821289
20
77.3069000244141
40
0.0
41
0.0
42
0.0
10
71.6296997070312
20
77.5119018554688
40
0.0
41
0.0
42
0.0
10
71.5779037475586
20
77.7185974121094
40
0.0
41
0.0
42
0.0
10
71.4971008300781
20
77.9235992431641
40
0.0
41
0.0
42
0.0
10
71.4733963012695
20
78.0162963867188
40
0.0
41
0.0
42
0.0
10
71.4448013305664
20
78.3122024536133
40
0.0
41
0.0
42
0.0
10
71.4384994506836
20
78.3510971069336
40
0.0
41
0.0
42
0.0
10
71.4075012207031
20
78.5020980834961
40
0.0
41
0.0
42
0.0
10
71.4307022094727
20
78.6492004394531
40
0.0
41
0.0
42
0.0
10
71.4621963500977
20
78.7710037231445
40
0.0
41
0.0
42
0.0
10
71.5
20
78.9489974975586
40
0.0
41
0.0
42
0.0
10
71.5231018066406
20
78.9921035766602
40
0.0
41
0.0
42
0.0
10
71.5391998291016
20
79.0101013183594
40
0.0
41
0.0
42
0.0
10
71.8255996704102
20
79.1508026123047
40
0.0
41
0.0
42
0.0
10
72.002197265625
20
79.1860961914062
40
0.0
41
0.0
42
0.0
10
72.2799987792969
20
79.1443023681641
40
0.0
41
0.0
42
0.0
10
72.4449996948242
20
79.086799621582
40
0.0
41
0.0
42
0.0
10
72.4863967895508
20
79.0771026611328
40
0.0
41
0.0
42
0.0
10
72.6723022460938
20
78.999397277832
40
0.0
41
0.0
42
0.0
10
72.7508010864258
20
78.9683990478516
40
0.0
41
0.0
42
0.0
10
72.7845001220703
20
78.9529037475586
40
0.0
41
0.0
42
0.0
10
72.9898986816406
20
78.8375015258789
40
0.0
41
0.0
42
0.0
10
73.2858963012695
20
78.6837005615234
40
0.0
41
0.0
42
0.0
10
73.3977966308594
20
78.6038970947266
40
0.0
41
0.0
42
0.0
10
73.4885025024414
20
78.5330963134766
40
0.0
41
0.0
42
0.0
10
73.5761032104492
20
78.5204010009766
40
0.0
41
0.0
42
0.0
10
73.6494979858398
20
78.4994964599609
40
0.0
41
0.0
42
0.0
10
73.9850997924805
20
78.3245010375977
40
0.0
41
0.0
42
0.0
10
74.0044021606445
20
78.3245010375977
40
0.0
41
0.0
42
0.0
10
74.0543975830078
20
78.4882965087891
40
0.0
41
0.0
42
0.0
10
74.2211990356445
20
78.7834014892578
40
0.0
41
0.0
42
0.0
10
74.2866973876953
20
78.9873962402344
40
0.0
41
0.0
42
0.0
10
74.3370971679688
20
79.1039962768555
40
0.0
41
0.0
42
0.0
10
74.5286026000977
20
79.3993988037109
40
0.0
41
0.0
42
0.0
10
74.573600769043
20
79.4912033081055
40
0.0
41
0.0
42
0.0
10
74.8057022094727
20
79.7872009277344
40
0.0
41
0.0
42
0.0
10
74.8314971923828
20
79.8262023925781
40
0.0
41
0.0
42
0.0
10
74.9609985351562
20
80.0373992919922
40
0.0
41
0.0
42
0.0
10
75.0070037841797
20
80.0954971313477
40
0.0
41
0.0
42
0.0
10
75.1766967773438
20
80.1641006469727
40
0.0
41
0.0
42
0.0
10
75.496696472168
20
80.3070983886719
40
0.0
41
0.0
42
0.0
10
75.5886001586914
20
80.1962966918945
40
0.0
41
0.0
42
0.0
10
75.6091003417969
20
80.1743011474609
40
0.0
41
0.0
42
0.0
10
75.8729019165039
20
79.9970016479492
40
0.0
41
0.0
42
0.0
10
75.9057006835938
20
79.9721984863281
40
0.0
41
0.0
42
0.0
10
75.9988021850586
20
79.8392028808594
40
0.0
41
0.0
42
0.0
10
76.0261993408203
20
79.7609024047852
40
0.0
41
0.0
42
0.0
10
76.1731033325195
20
79.4878005981445
40
0.0
41
0.0
42
0.0
10
76.2310028076172
20
79.2815017700195
40
0.0
41
0.0
42
0.0
10
76.3450012207031
20
78.9854965209961
40
0.0
41
0.0
42
0.0
10
76.3800964355469
20
78.7794036865234
40
0.0
41
0.0
42
0.0
10
76.4148025512695
20
78.6457977294922
40
0.0
41
0.0
42
0.0
10
76.4617004394531
20
78.4839019775391
40
0.0
41
0.0
42
0.0
10
76.4705963134766
20
78.3899993896484
40
0.0
41
0.0
42
0.0
10
76.4998016357422
20
78.2818984985352
40
0.0
41
0.0
42
0.0
10
76.5476989746094
20
78.1628036499023
40
0.0
41
0.0
42
0.0
10
76.568000793457
20
78.1626968383789
40
0.0
41
0.0
42
0.0
10
76.802001953125
20
78.2936019897461
40
0.0
41
0.0
42
0.0
10
76.9860992431641
20
78.1766967773438
40
0.0
41
0.0
42
0.0
10
77.0141983032227
20
78.1766967773438
40
0.0
41
0.0
42
0.0
10
77.2169036865234
20
78.2957992553711
40
0.0
41
0.0
42
0.0
10
77.7185974121094
20
78.4217987060547
40
0.0
41
0.0
42
0.0
10
77.9235992431641
20
78.5026016235352
40
0.0
41
0.0
42
0.0
10
78.0151977539062
20
78.5260009765625
40
0.0
41
0.0
42
0.0
10
78.2054977416992
20
78.565299987793
40
0.0
41
0.0
42
0.0
10
78.4957962036133
20
78.5932006835938
40
0.0
41
0.0
42
0.0
10
78.6492004394531
20
78.5689010620117
40
0.0
41
0.0
42
0.0
10
78.7708969116211
20
78.53759765625
40
0.0
41
0.0
42
0.0
10
78.9488983154297
20
78.4998016357422
40
0.0
41
0.0
42
0.0
10
78.9919967651367
20
78.4766006469727
40
0.0
41
0.0
42
0.0
10
79.0100021362305
20
78.4605026245117
40
0.0
41
0.0
42
0.0
10
79.1508026123047
20
78.1743011474609
40
0.0
41
0.0
42
0.0
10
79.1860961914062
20
77.9977035522461
40
0.0
41
0.0
42
0.0
10
79.1443023681641
20
77.7199020385742
40
0.0
41
0.0
42
0.0
10
79.086799621582
20
77.554801940918
40
0.0
41
0.0
42
0.0
10
79.0772018432617
20
77.5134963989258
40
0.0
41
0.0
42
0.0
10
78.999397277832
20
77.3274002075195
40
0.0
41
0.0
42
0.0
10
78.9683990478516
20
77.2490005493164
40
0.0
41
0.0
42
0.0
10
78.9530029296875
20
77.2154006958008
40
0.0
41
0.0
42
0.0
10
78.8375015258789
20
77.0100021362305
40
0.0
41
0.0
42
0.0
10
78.6837005615234
20
76.713996887207
40
0.0
41
0.0
42
0.0
10
78.6039962768555
20
76.6019973754883
40
0.0
41
0.0
42
0.0
10
78.533203125
20
76.5113983154297
40
0.0
41
0.0
42
0.0
10
78.5204010009766
20
76.423698425293
40
0.0
41
0.0
42
0.0
10
78.4996032714844
20
76.3501968383789
40
0.0
41
0.0
42
0.0
10
78.3245010375977
20
76.0148010253906
40
0.0
41
0.0
42
0.0
10
78.3244018554688
20
75.9953994750977
40
0.0
41
0.0
42
0.0
10
78.4882965087891
20
75.9452972412109
40
0.0
41
0.0
42
0.0
10
78.7834014892578
20
75.7785034179688
40
0.0
41
0.0
42
0.0
10
78.9872970581055
20
75.7130966186523
40
0.0
41
0.0
42
0.0
10
79.1039962768555
20
75.6626968383789
40
0.0
41
0.0
42
0.0
10
79.3993988037109
20
75.4710998535156
40
0.0
41
0.0
42
0.0
10
79.4900970458984
20
75.4265975952148
40
0.0
41
0.0
42
0.0
10
79.6874008178711
20
75.3047027587891
40
0.0
41
0.0
42
0.0
10
79.9917984008789
20
75.0659027099609
40
0.0
41
0.0
42
0.0
10
80.0372009277344
20
75.0388031005859
40
0.0
41
0.0
42
0.0
10
80.0954971313477
20
74.9928970336914
40
0.0
41
0.0
42
0.0
10
80.1641006469727
20
74.8230972290039
40
0.0
41
0.0
42
0.0
10
80.3072967529297
20
74.5031967163086
40
0.0
41
0.0
42
0.0
10
80.1962966918945
20
74.4112014770508
40
0.0
41
0.0
42
0.0
10
80.1744003295898
20
74.3906021118164
40
0.0
41
0.0
42
0.0
10
79.9970016479492
20
74.1268997192383
40
0.0
41
0.0
42
0.0
10
79.9721984863281
20
74.0940017700195
40
0.0
41
0.0
42
0.0
10
79.8393020629883
20
74.0009994506836
40
0.0
41
0.0
42
0.0
10
79.7610015869141
20
73.973503112793
40
0.0
41
0.0
42
0.0
10
79.4888000488281
20
73.8271026611328
40
0.0
41
0.0
42
0.0
10
79.1915969848633
20
73.7127990722656
40
0.0
41
0.0
42
0.0
10
78.9845962524414
20
73.6545028686523
40
0.0
41
0.0
42
0.0
10
78.7794036865234
20
73.6195983886719
40
0.0
41
0.0
42
0.0
10
78.6457977294922
20
73.5848999023438
40
0.0
41
0.0
42
0.0
10
78.4839019775391
20
73.5380020141602
40
0.0
41
0.0
42
0.0
10
78.3899993896484
20
73.5290985107422
40
0.0
41
0.0
42
0.0
10
78.2963027954102
20
73.5038986206055
40
0.0
41
0.0
42
0.0
10
78.2962036132812
20
73.4901962280273
40
0.0
41
0.0
42
0.0
10
78.3974990844727
20
73.4120025634766
40
0.0
41
0.0
42
0.0
10
78.1704025268555
20
73.0314025878906
40
0.0
41
0.0
42
0.0
10
78.1703033447266
20
73.0009002685547
40
0.0
41
0.0
42
0.0
10
78.1746978759766
20
72.988899230957
40
0.0
41
0.0
42
0.0
10
78.2957992553711
20
72.7829971313477
40
0.0
41
0.0
42
0.0
10
78.4217987060547
20
72.2811965942383
40
0.0
41
0.0
42
0.0
10
78.5026016235352
20
72.0762023925781
40
0.0
41
0.0
42
0.0
10
78.5259017944336
20
71.9847030639648
40
0.0
41
0.0
42
0.0
10
78.5652008056641
20
71.7944030761719
40
0.0
41
0.0
42
0.0
10
78.5932006835938
20
71.5040969848633
40
0.0
41
0.0
42
0.0
10
78.5689010620117
20
71.350700378418
40
0.0
41
0.0
42
0.0
10
78.5376968383789
20
71.2288970947266
40
0.0
41
0.0
42
0.0
10
78.4998016357422
20
71.0509033203125
40
0.0
41
0.0
42
0.0
10
78.4766998291016
20
71.0077972412109
40
0.0
41
0.0
42
0.0
10
78.4606018066406
20
70.9897003173828
40
0.0
41
0.0
42
0.0
10
78.1744003295898
20
70.8488998413086
40
0.0
41
0.0
42
0.0
10
77.9977035522461
20
70.8135986328125
40
0.0
41
0.0
42
0.0
10
77.7199020385742
20
70.8554000854492
40
0.0
41
0.0
42
0.0
10
77.554801940918
20
70.9129028320312
40
0.0
41
0.0
42
0.0
10
77.5133972167969
20
70.9225006103516
40
0.0
41
0.0
42
0.0
10
77.3274002075195
20
71.0003967285156
40
0.0
41
0.0
42
0.0
10
77.2490005493164
20
71.0313034057617
40
0.0
41
0.0
42
0.0
10
77.2154006958008
20
71.0467987060547
40
0.0
41
0.0
42
0.0
10
77.0099029541016
20
71.1622009277344
40
0.0
41
0.0
42
0.0
10
76.7138977050781
20
71.3159027099609
40
0.0
41
0.0
42
0.0
10
76.6018981933594
20
71.3957977294922
40
0.0
41
0.0
42
0.0
10
76.5113983154297
20
71.4664993286133
40
0.0
41
0.0
42
0.0
10
76.423698425293
20
71.4794006347656
40
0.0
41
0.0
42
0.0
10
76.3501968383789
20
71.5001983642578
40
0.0
41
0.0
42
0.0
10
76.0148010253906
20
71.6754989624023
40
0.0
41
0.0
42
0.0
10
75.9953994750977
20
71.6754989624023
40
0.0
41
0.0
42
0.0
10
75.9452972412109
20
71.5115966796875
40
0.0
41
0.0
42
0.0
10
75.7785034179688
20
71.2164993286133
40
0.0
41
0.0
42
0.0
10
75.7130966186523
20
71.0126037597656
40
0.0
41
0.0
42
0.0
10
75.6628036499023
20
70.8957977294922
40
0.0
41
0.0
42
0.0
10
75.4710998535156
20
70.6004028320312
40
0.0
41
0.0
42
0.0
10
75.4265975952148
20
70.5098037719727
40
0.0
41
0.0
42
0.0
10
75.3047027587891
20
70.3125
40
0.0
41
0.0
42
0.0
10
75.0659027099609
20
70.0081024169922
40
0.0
41
0.0
42
0.0
10
75.0388031005859
20
69.9626007080078
40
0.0
41
0.0
42
0.0
10
74.9932022094727
20
69.9046020507812
40
0.0
41
0.0
42
0.0
10
74.6531982421875
20
69.7525024414062
40
0.0
41
0.0
42
0.0
10
74.5036010742188
20
69.6919021606445
40
0.0
41
0.0
42
0.0
10
74.4111022949219
20
69.8032989501953
40
0.0
41
0.0
42
0.0
10
74.3906021118164
20
69.8254013061523
40
0.0
41
0.0
42
0.0
10
74.1268005371094
20
70.002799987793
40
0.0
41
0.0
42
0.0
10
74.0940017700195
20
70.0274963378906
40
0.0
41
0.0
42
0.0
10
74.0009994506836
20
70.1605987548828
40
0.0
41
0.0
42
0.0
10
73.973503112793
20
70.2388000488281
40
0.0
41
0.0
42
0.0
10
73.8270034790039
20
70.511100769043
40
0.0
41
0.0
42
0.0
10
73.7127990722656
20
70.8082962036133
40
0.0
41
0.0
42
0.0
10
73.6545028686523
20
71.0152969360352
40
0.0
41
0.0
42
0.0
10
73.6195983886719
20
71.2204971313477
40
0.0
41
0.0
42
0.0
10
73.5848999023438
20
71.3539962768555
40
0.0
41
0.0
42
0.0
10
73.5380020141602
20
71.515998840332
40
0.0
41
0.0
42
0.0
10
73.5290985107422
20
71.6098022460938
40
0.0
41
0.0
42
0.0
10
73.5038986206055
20
71.7035980224609
40
0.0
41
0.0
42
0.0
10
73.4903030395508
20
71.703498840332
40
0.0
41
0.0
42
0.0
10
73.4120025634766
20
71.6022033691406
40
0.0
41
0.0
42
0.0
10
73.0314025878906
20
71.8294982910156
40
0.0
41
0.0
42
0.0
10
73.0009002685547
20
71.8293991088867
40
0.0
41
0.0
42
0.0
10
72.986198425293
20
71.8239974975586
40
0.0
41
0.0
42
0.0
10
72.693000793457
20
71.7501983642578
40
0.0
41
0.0
42
0.0
10
72.4879989624023
20
71.6296997070312
40
0.0
41
0.0
42
0.0
10
72.2811965942383
20
71.5780029296875
40
0.0
41
0.0
42
0.0
10
72.0762023925781
20
71.4971008300781
40
0.0
41
0.0
42
0.0
10
71.9835968017578
20
71.4733963012695
40
0.0
41
0.0
42
0.0
10
71.6876983642578
20
71.4449005126953
40
0.0
41
0.0
42
0.0
10
71.6488037109375
20
71.4385986328125
40
0.0
41
0.0
42
0.0
10
71.497802734375
20
71.4075012207031
40
0.0
41
0.0
42
0.0
10
71.350700378418
20
71.4307022094727
40
0.0
41
0.0
42
0.0
10
71.2287979125977
20
71.4620971679688
40
0.0
41
0.0
42
0.0
10
71.0507965087891
20
71.4999008178711
40
0.0
41
0.0
42
0.0
10
71.0077972412109
20
71.5230026245117
40
0.0
41
0.0
42
0.0
10
70.9897003173828
20
71.5391006469727
40
0.0
41
0.0
42
0.0
10
70.8488998413086
20
71.8255004882812
40
0.0
41
0.0
42
0.0
10
70.8135986328125
20
72.002197265625
40
0.0
41
0.0
42
0.0
10
70.8554000854492
20
72.2799987792969
40
0.0
41
0.0
42
0.0
10
70.9129028320312
20
72.4449996948242
40
0.0
41
0.0
42
0.0
10
70.9225997924805
20
72.4863967895508
40
0.0
41
0.0
42
0.0
10
71.0005035400391
20
72.6724014282227
40
0.0
41
0.0
42
0.0
10
71.0313034057617
20
72.7508010864258
40
0.0
41
0.0
42
0.0
10
71.0467987060547
20
72.7845001220703
40
0.0
41
0.0
42
0.0
10
71.1623001098633
20
72.9898986816406
40
0.0
41
0.0
42
0.0
10
71.3160018920898
20
73.286003112793
40
0.0
41
0.0
42
0.0
10
71.3958969116211
20
73.3977966308594
40
0.0
41
0.0
42
0.0
10
71.4665985107422
20
73.4885025024414
40
0.0
41
0.0
42
0.0
10
71.4794006347656
20
73.5761032104492
40
0.0
41
0.0
42
0.0
10
71.5002975463867
20
73.6495971679688
40
0.0
41
0.0
42
0.0
10
71.6754989624023
20
73.9850997924805
40
0.0
41
0.0
42
0.0
10
71.6753997802734
20
74.0044021606445
40
0.0
41
0.0
42
0.0
10
71.5115966796875
20
74.0543975830078
40
0.0
41
0.0
42
0.0
10
71.2164993286133
20
74.2211990356445
40
0.0
41
0.0
42
0.0
10
71.0124969482422
20
74.2865982055664
40
0.0
41
0.0
42
0.0
10
70.8957977294922
20
74.3370971679688
40
0.0
41
0.0
42
0.0
10
70.6003036499023
20
74.5286026000977
40
0.0
41
0.0
42
0.0
10
70.5086975097656
20
74.573600769043
40
0.0
41
0.0
42
0.0
10
70.2126007080078
20
74.8056030273438
40
0.0
41
0.0
42
0.0
10
70.1735992431641
20
74.8313980102539
40
0.0
41
0.0
42
0.0
10
69.96240234375
20
74.9608993530273
40
0.0
41
0.0
42
0.0
10
69.9046020507812
20
75.0065994262695
40
0.0
41
0.0
42
0.0
10
69.7525024414062
20
75.3467025756836
40
0.0
41
0.0
42
0.0
10
69.6920013427734
20
75.4962997436523
40
0.0
41
0.0
42
0.0
10
69.8033981323242
20
75.5886001586914
40
0.0
41
0.0
42
0.0
210
0.0
220
0.0
230
1.0
0
LWPOLYLINE
5
27
330
1C
100
AcDbEntity
67
0
8
0
62
256
6
ByLayer
370
-1
48
1.0
60
0
100
AcDbPolyline
90
76
70
1
38
0.0
39
0.0
10
71.7611999511719
20
65.4823989868164
40
0.0
41
0.0
42
0.0
10
71.8423004150391
20
65.1439971923828
40
0.0
41
0.0
42
0.0
10
71.8685989379883
20
65.0009994506836
40
0.0
41
0.0
42
0.0
10
71.9366989135742
20
65.0009994506836
40
0.0
41
0.0
42
0.0
10
71.9365997314453
20
65.0179977416992
40
0.0
41
0.0
42
0.0
10
71.9227981567383
20
65.092903137207
40
0.0
41
0.0
42
0.0
10
71.8258972167969
20
65.4968032836914
40
0.0
41
0.0
42
0.0
10
71.8906021118164
20
65.6657028198242
40
0.0
41
0.0
42
0.0
10
71.9606018066406
20
65.9922027587891
40
0.0
41
0.0
42
0.0
10
72.0064010620117
20
66.0257034301758
40
0.0
41
0.0
42
0.0
10
72.1123962402344
20
66.1274032592773
40
0.0
41
0.0
42
0.0
10
72.3479995727539
20
66.2895965576172
40
0.0
41
0.0
42
0.0
10
72.4457015991211
20
66.4568023681641
40
0.0
41
0.0
42
0.0
10
72.4783020019531
20
66.4969024658203
40
0.0
41
0.0
42
0.0
10
72.5084991455078
20
66.5110015869141
40
0.0
41
0.0
42
0.0
10
72.6901016235352
20
66.6669998168945
40
0.0
41
0.0
42
0.0
10
73.0111999511719
20
66.8243026733398
40
0.0
41
0.0
42
0.0
10
73.3351974487305
20
66.9641036987305
40
0.0
41
0.0
42
0.0
10
73.3755035400391
20
66.996696472168
40
0.0
41
0.0
42
0.0
10
73.500602722168
20
67.0870971679688
40
0.0
41
0.0
42
0.0
10
73.5130004882812
20
67.0926971435547
40
0.0
41
0.0
42
0.0
10
73.8471984863281
20
67.1764984130859
40
0.0
41
0.0
42
0.0
10
74.0139007568359
20
67.268798828125
40
0.0
41
0.0
42
0.0
10
74.1977005004883
20
67.2807998657227
40
0.0
41
0.0
42
0.0
10
74.486701965332
20
67.2442016601562
40
0.0
41
0.0
42
0.0
10
74.9167022705078
20
66.9984970092773
40
0.0
41
0.0
42
0.0
10
74.9907989501953
20
66.9617004394531
40
0.0
41
0.0
42
0.0
10
75.493896484375
20
66.5936965942383
40
0.0
41
0.0
42
0.0
10
75.5858001708984
20
66.4951019287109
40
0.0
41
0.0
42
0.0
10
75.6205978393555
20
66.465202331543
40
0.0
41
0.0
42
0.0
10
75.6605987548828
20
66.404296875
40
0.0
41
0.0
42
0.0
10
75.9955978393555
20
66.1316986083984
40
0.0
41
0.0
42
0.0
10
76.0653991699219
20
66.0282974243164
40
0.0
41
0.0
42
0.0
10
76.1166000366211
20
65.9921035766602
40
0.0
41
0.0
42
0.0
10
76.1480026245117
20
65.821403503418
40
0.0
41
0.0
42
0.0
10
76.1642990112305
20
65.7863006591797
40
0.0
41
0.0
42
0.0
10
76.4091033935547
20
65.4951019287109
40
0.0
41
0.0
42
0.0
10
76.3556976318359
20
65.311897277832
40
0.0
41
0.0
42
0.0
10
76.355598449707
20
65.276496887207
40
0.0
41
0.0
42
0.0
10
76.3963012695312
20
65.0009994506836
40
0.0
41
0.0
42
0.0
10
76.4297027587891
20
65.0009994506836
40
0.0
41
0.0
42
0.0
10
76.4296035766602
20
65.0184020996094
40
0.0
41
0.0
42
0.0
10
76.3840026855469
20
65.3307037353516
40
0.0
41
0.0
42
0.0
10
76.4284973144531
20
65.4829025268555
40
0.0
41
0.0
42
0.0
10
76.4283981323242
20
65.5121994018555
40
0.0
41
0.0
42
0.0
10
76.1626968383789
20
65.8283996582031
40
0.0
41
0.0
42
0.0
10
76.1297988891602
20
66.007698059082
40
0.0
41
0.0
42
0.0
10
76.0920028686523
20
66.0345001220703
40
0.0
41
0.0
42
0.0
10
76.0043029785156
20
66.1641998291016
40
0.0
41
0.0
42
0.0
10
75.709098815918
20
66.4045028686523
40
0.0
41
0.0
42
0.0
10
75.6591033935547
20
66.4806976318359
40
0.0
41
0.0
42
0.0
10
75.6307983398438
20
66.5046997070312
40
0.0
41
0.0
42
0.0
10
75.5058975219727
20
66.6390991210938
40
0.0
41
0.0
42
0.0
10
75.0083999633789
20
67.0028991699219
40
0.0
41
0.0
42
0.0
10
74.5130996704102
20
67.2863006591797
40
0.0
41
0.0
42
0.0
10
74.271598815918
20
67.3169021606445
40
0.0
41
0.0
42
0.0
10
74.2335968017578
20
67.3168029785156
40
0.0
41
0.0
42
0.0
10
73.9860000610352
20
67.3007965087891
40
0.0
41
0.0
42
0.0
10
73.7826995849609
20
67.188102722168
40
0.0
41
0.0
42
0.0
10
73.4869995117188
20
67.1139984130859
40
0.0
41
0.0
42
0.0
10
73.4829025268555
20
67.1121978759766
40
0.0
41
0.0
42
0.0
10
73.3321990966797
20
67.0031967163086
40
0.0
41
0.0
42
0.0
10
73.2781982421875
20
66.959602355957
40
0.0
41
0.0
42
0.0
10
72.9887008666992
20
66.8348007202148
40
0.0
41
0.0
42
0.0
10
72.6957015991211
20
66.6911010742188
40
0.0
41
0.0
42
0.0
10
72.6578979492188
20
66.6645965576172
40
0.0
41
0.0
42
0.0
10
72.4915008544922
20
66.5214996337891
40
0.0
41
0.0
42
0.0
10
72.4514999389648
20
66.5029983520508
40
0.0
41
0.0
42
0.0
10
72.432502746582
20
66.4796981811523
40
0.0
41
0.0
42
0.0
10
72.3510971069336
20
66.3403015136719
40
0.0
41
0.0
42
0.0
10
72.0783996582031
20
66.1523971557617
40
0.0
41
0.0
42
0.0
10
71.9934997558594
20
66.0709991455078
40
0.0
41
0.0
42
0.0
10
71.9069976806641
20
66.007698059082
40
0.0
41
0.0
42
0.0
10
71.8532028198242
20
65.7563018798828
40
0.0
41
0.0
42
0.0
10
71.7612991333008
20
65.5160980224609
40
0.0
41
0.0
42
0.0
10
71.7611999511719
20
65.4823989868164
40
0.0
41
0.0
42
0.0
210
0.0
220
0.0
230
1.0
0
LWPOLYLINE
5
28
330
1C
100
AcDbEntity
67
0
8
0
62
256
6
ByLayer
370
-1
48
1.0
60
0
100
AcDbPolyline
90
12
70
1
38
0.0
39
0.0
10
73.5186996459961
20
74.4312973022461
40
0.0
41
0.0
42
0.0
10
73.7213973999023
20
74.4563980102539
40
0.0
41
0.0
42
0.0
10
73.8887023925781
20
74.4964981079102
40
0.0
41
0.0
42
0.0
10
73.8887023925781
20
74.5044021606445
40
0.0
41
0.0
42
0.0
10
73.7211990356445
20
74.5557022094727
40
0.0
41
0.0
42
0.0
10
73.5193023681641
20
74.5681991577148
40
0.0
41
0.0
42
0.0
10
73.4825973510742
20
74.5680999755859
40
0.0
41
0.0
42
0.0
10
73.2342987060547
20
74.5037002563477
40
0.0
41
0.0
42
0.0
10
73.2342987060547
20
74.4918975830078
40
0.0
41
0.0
42
0.0
10
73.2829971313477
20
74.4557037353516
40
0.0
41
0.0
42
0.0
10
73.481201171875
20
74.431396484375
40
0.0
41
0.0
42
0.0
10
73.5186996459961
20
74.4312973022461
40
0.0
41
0.0
42
0.0
210
0.0
220
0.0
230
1.0
0
LWPOLYLINE
5
29
330
1C
100
AcDbEntity
67
0
8
0
62
256
6
ByLayer
370
-1
48
1.0
60
0
100
AcDbPolyline
90
10
70
1
38
0.0
39
0.0
10
73.3050003051758
20
74.5020980834961
40
0.0
41
0.0
42
0.0
10
73.5102005004883
20
74.5550003051758
40
0.0
41
0.0
42
0.0
10
73.6486968994141
20
74.5466003417969
40
0.0
41
0.0
42
0.0
10
73.7641983032227
20
74.5111999511719
40
0.0
41
0.0
42
0.0
10
73.7634963989258
20
74.4906997680664
40
0.0
41
0.0
42
0.0
10
73.6486968994141
20
74.4632034301758
40
0.0
41
0.0
42
0.0
10
73.5
20
74.4448013305664
40
0.0
41
0.0
42
0.0
10
73.3468017578125
20
74.4636001586914
40
0.0
41
0.0
42
0.0
10
73.3038024902344
20
74.4957962036133
40
0.0
41
0.0
42
0.0
10
73.3050003051758
20
74.5020980834961
40
0.0
41
0.0
42
0.0
210
0.0
220
0.0
230
1.0
0
LWPOLYLINE
5
2A
330
1C
100
AcDbEntity
67
0
8
0
62
256
6
ByLayer
370
-1
48
1.0
60
0
100
AcDbPolyline
90
84
70
1
38
0.0
39
0.0
10
73.6157989501953
20
84.6691970825195
40
0.0
41
0.0
42
0.0
10
73.5711975097656
20
84.5169982910156
40
0.0
41
0.0
42
0.0
10
73.5712966918945
20
84.4819030761719
40
0.0
41
0.0
42
0.0
10
73.6005020141602
20
84.3220977783203
40
0.0
41
0.0
42
0.0
10
73.6202011108398
20
84.2869033813477
40
0.0
41
0.0
42
0.0
10
73.8651962280273
20
83.9954986572266
40
0.0
41
0.0
42
0.0
10
73.9076995849609
20
83.965202331543
40
0.0
41
0.0
42
0.0
10
73.9954986572266
20
83.8355026245117
40
0.0
41
0.0
42
0.0
10
74.2907028198242
20
83.5951995849609
40
0.0
41
0.0
42
0.0
10
74.3406982421875
20
83.5189971923828
40
0.0
41
0.0
42
0.0
10
74.3687973022461
20
83.4951019287109
40
0.0
41
0.0
42
0.0
10
74.4949035644531
20
83.3597030639648
40
0.0
41
0.0
42
0.0
10
74.5259017944336
20
83.3294982910156
40
0.0
41
0.0
42
0.0
10
74.788200378418
20
83.1452026367188
40
0.0
41
0.0
42
0.0
10
74.8290023803711
20
83.1069030761719
40
0.0
41
0.0
42
0.0
10
75.2142028808594
20
82.8453979492188
40
0.0
41
0.0
42
0.0
10
75.284797668457
20
82.8058013916016
40
0.0
41
0.0
42
0.0
10
75.3883972167969
20
82.7537994384766
40
0.0
41
0.0
42
0.0
10
75.4853973388672
20
82.7136001586914
40
0.0
41
0.0
42
0.0
10
75.7282028198242
20
82.6829986572266
40
0.0
41
0.0
42
0.0
10
75.7661972045898
20
82.6828994750977
40
0.0
41
0.0
42
0.0
10
76.0139007568359
20
82.6989974975586
40
0.0
41
0.0
42
0.0
10
76.2172012329102
20
82.8115997314453
40
0.0
41
0.0
42
0.0
10
76.5129013061523
20
82.8856964111328
40
0.0
41
0.0
42
0.0
10
76.5167999267578
20
82.8876037597656
40
0.0
41
0.0
42
0.0
10
76.6676025390625
20
82.9965972900391
40
0.0
41
0.0
42
0.0
10
76.7216033935547
20
83.0401992797852
40
0.0
41
0.0
42
0.0
10
77.0111999511719
20
83.1650009155273
40
0.0
41
0.0
42
0.0
10
77.3042984008789
20
83.3086013793945
40
0.0
41
0.0
42
0.0
10
77.3420028686523
20
83.3351974487305
40
0.0
41
0.0
42
0.0
10
77.5083999633789
20
83.4783020019531
40
0.0
41
0.0
42
0.0
10
77.5469970703125
20
83.4963989257812
40
0.0
41
0.0
42
0.0
10
77.6485977172852
20
83.6592025756836
40
0.0
41
0.0
42
0.0
10
77.8852996826172
20
83.8453979492188
40
0.0
41
0.0
42
0.0
10
78.0077972412109
20
83.929801940918
40
0.0
41
0.0
42
0.0
10
78.0926971435547
20
83.9922027587891
40
0.0
41
0.0
42
0.0
10
78.146598815918
20
84.2435989379883
40
0.0
41
0.0
42
0.0
10
78.2386016845703
20
84.4838027954102
40
0.0
41
0.0
42
0.0
10
78.2385025024414
20
84.5175018310547
40
0.0
41
0.0
42
0.0
10
78.1574020385742
20
84.8557968139648
40
0.0
41
0.0
42
0.0
10
78.1312026977539
20
84.9990005493164
40
0.0
41
0.0
42
0.0
10
78.0632019042969
20
84.9990005493164
40
0.0
41
0.0
42
0.0
10
78.063102722168
20
84.9819030761719
40
0.0
41
0.0
42
0.0
10
78.0768966674805
20
84.9068984985352
40
0.0
41
0.0
42
0.0
10
78.1737976074219
20
84.5030975341797
40
0.0
41
0.0
42
0.0
10
78.1091003417969
20
84.334098815918
40
0.0
41
0.0
42
0.0
10
78.0391998291016
20
84.0074996948242
40
0.0
41
0.0
42
0.0
10
77.9385986328125
20
83.9363021850586
40
0.0
41
0.0
42
0.0
10
77.6520004272461
20
83.7107009887695
40
0.0
41
0.0
42
0.0
10
77.5229034423828
20
83.5035018920898
40
0.0
41
0.0
42
0.0
10
77.4915008544922
20
83.488899230957
40
0.0
41
0.0
42
0.0
10
77.3097991943359
20
83.3328018188477
40
0.0
41
0.0
42
0.0
10
76.9887008666992
20
83.1754989624023
40
0.0
41
0.0
42
0.0
10
76.6645965576172
20
83.0356979370117
40
0.0
41
0.0
42
0.0
10
76.624397277832
20
83.0031967163086
40
0.0
41
0.0
42
0.0
10
76.4992980957031
20
82.9126968383789
40
0.0
41
0.0
42
0.0
10
76.4869995117188
20
82.9069976806641
40
0.0
41
0.0
42
0.0
10
76.152702331543
20
82.8233032226562
40
0.0
41
0.0
42
0.0
10
75.9860000610352
20
82.7309036254883
40
0.0
41
0.0
42
0.0
10
75.8021011352539
20
82.7190017700195
40
0.0
41
0.0
42
0.0
10
75.5145034790039
20
82.7553024291992
40
0.0
41
0.0
42
0.0
10
75.4303970336914
20
82.7901000976562
40
0.0
41
0.0
42
0.0
10
75.345100402832
20
82.8330001831055
40
0.0
41
0.0
42
0.0
10
75.2622985839844
20
82.8793029785156
40
0.0
41
0.0
42
0.0
10
75.0821990966797
20
83.0017013549805
40
0.0
41
0.0
42
0.0
10
75.0093002319336
20
83.0378036499023
40
0.0
41
0.0
42
0.0
10
74.8747024536133
20
83.1289978027344
40
0.0
41
0.0
42
0.0
10
74.8416976928711
20
83.1601028442383
40
0.0
41
0.0
42
0.0
10
74.5436019897461
20
83.3695983886719
40
0.0
41
0.0
42
0.0
10
74.5048980712891
20
83.407096862793
40
0.0
41
0.0
42
0.0
10
74.4140014648438
20
83.5046997070312
40
0.0
41
0.0
42
0.0
10
74.3790969848633
20
83.5345001220703
40
0.0
41
0.0
42
0.0
10
74.3391036987305
20
83.5953979492188
40
0.0
41
0.0
42
0.0
10
74.0043029785156
20
83.8681030273438
40
0.0
41
0.0
42
0.0
10
73.9343032836914
20
83.9713973999023
40
0.0
41
0.0
42
0.0
10
73.8879013061523
20
84.0043029785156
40
0.0
41
0.0
42
0.0
10
73.620002746582
20
84.322998046875
40
0.0
41
0.0
42
0.0
10
73.5882034301758
20
84.4964981079102
40
0.0
41
0.0
42
0.0
10
73.6442031860352
20
84.6878967285156
40
0.0
41
0.0
42
0.0
10
73.6440963745117
20
84.7233963012695
40
0.0
41
0.0
42
0.0
10
73.6035003662109
20
84.9990005493164
40
0.0
41
0.0
42
0.0
10
73.570198059082
20
84.9990005493164
40
0.0
41
0.0
42
0.0
10
73.5700988769531
20
84.9814987182617
40
0.0
41
0.0
42
0.0
10
73.6157989501953
20
84.6691970825195
40
0.0
41
0.0
42
0.0
210
0.0
220
0.0
230
1.0
0
LWPOLYLINE
5
2B
330
1C
100
AcDbEntity
67
0
8
0
62
256
6
ByLayer
370
-1
48
1.0
60
0
100
AcDbPolyline
90
16
70
1
38
0.0
39
0.0
10
73.6986999511719
20
75.4909973144531
40
0.0
41
0.0
42
0.0
10
73.7968978881836
20
75.4173965454102
40
0.0
41
0.0
42
0.0
10
73.9854965209961
20
75.3106002807617
40
0.0
41
0.0
42
0.0
10
74.0121994018555
20
75.3105010986328
40
0.0
41
0.0
42
0.0
10
74.0996017456055
20
75.3853988647461
40
0.0
41
0.0
42
0.0
10
74.2200012207031
20
75.4931030273438
40
0.0
41
0.0
42
0.0
10
74.4224014282227
20
75.8731002807617
40
0.0
41
0.0
42
0.0
10
74.4223022460938
20
75.8966979980469
40
0.0
41
0.0
42
0.0
10
74.4011993408203
20
75.9113998413086
40
0.0
41
0.0
42
0.0
10
74.3740005493164
20
75.9113006591797
40
0.0
41
0.0
42
0.0
10
73.9991989135742
20
75.6658020019531
40
0.0
41
0.0
42
0.0
10
73.7995986938477
20
75.7763977050781
40
0.0
41
0.0
42
0.0
10
73.7708969116211
20
75.7763977050781
40
0.0
41
0.0
42
0.0
10
73.6826019287109
20
75.7229995727539
40
0.0
41
0.0
42
0.0
10
73.6826019287109
20
75.6956024169922
40
0.0
41
0.0
42
0.0
10
73.6986999511719
20
75.4909973144531
40
0.0
41
0.0
42
0.0
210
0.0
220
0.0
230
1.0
0
LWPOLYLINE
5
2C
330
1C
100
AcDbEntity
67
0
8
0
62
256
6
ByLayer
370
-1
48
1.0
60
0
100
AcDbPolyline
90
12
70
1
38
0.0
39
0.0
10
73.7218017578125
20
75.5087966918945
40
0.0
41
0.0
42
0.0
10
73.7095031738281
20
75.665901184082
40
0.0
41
0.0
42
0.0
10
73.8274002075195
20
75.7371978759766
40
0.0
41
0.0
42
0.0
10
73.9853973388672
20
75.64990234375
40
0.0
41
0.0
42
0.0
10
74.0137023925781
20
75.6498031616211
40
0.0
41
0.0
42
0.0
10
74.311897277832
20
75.8449020385742
40
0.0
41
0.0
42
0.0
10
74.3634033203125
20
75.8095016479492
40
0.0
41
0.0
42
0.0
10
74.2022018432617
20
75.5067977905273
40
0.0
41
0.0
42
0.0
10
74.0998992919922
20
75.4151992797852
40
0.0
41
0.0
42
0.0
10
73.9982986450195
20
75.3283004760742
40
0.0
41
0.0
42
0.0
10
73.8518981933594
20
75.4113006591797
40
0.0
41
0.0
42
0.0
10
73.7218017578125
20
75.5087966918945
40
0.0
41
0.0
42
0.0
210
0.0
220
0.0
230
1.0
0
LWPOLYLINE
5
2D
330
1C
100
AcDbEntity
67
0
8
0
62
256
6
ByLayer
370
-1
48
1.0
60
0
100
AcDbPolyline
90
16
70
1
38
0.0
39
0.0
10
74.2768020629883
20
73.6826019287109
40
0.0
41
0.0
42
0.0
10
74.30419921875
20
73.6826019287109
40
0.0
41
0.0
42
0.0
10
74.5087966918945
20
73.6987991333008
40
0.0
41
0.0
42
0.0
10
74.5822982788086
20
73.7969970703125
40
0.0
41
0.0
42
0.0
10
74.6893005371094
20
73.9854965209961
40
0.0
41
0.0
42
0.0
10
74.6892013549805
20
74.0121994018555
40
0.0
41
0.0
42
0.0
10
74.6144027709961
20
74.0996017456055
40
0.0
41
0.0
42
0.0
10
74.5066986083984
20
74.2200012207031
40
0.0
41
0.0
42
0.0
10
74.1267013549805
20
74.4224014282227
40
0.0
41
0.0
42
0.0
10
74.1031036376953
20
74.4224014282227
40
0.0
41
0.0
42
0.0
10
74.0885009765625
20
74.4011993408203
40
0.0
41
0.0
42
0.0
10
74.0884017944336
20
74.3740005493164
40
0.0
41
0.0
42
0.0
10
74.3339004516602
20
73.9991989135742
40
0.0
41
0.0
42
0.0
10
74.223503112793
20
73.7995986938477
40
0.0
41
0.0
42
0.0
10
74.2233963012695
20
73.7708969116211
40
0.0
41
0.0
42
0.0
10
74.2768020629883
20
73.6826019287109
40
0.0
41
0.0
42
0.0
210
0.0
220
0.0
230
1.0
0
LWPOLYLINE
5
2E
330
1C
100
AcDbEntity
67
0
8
0
62
256
6
ByLayer
370
-1
48
1.0
60
0
100
AcDbPolyline
90
12
70
1
38
0.0
39
0.0
10
74.3498992919922
20
74.0137023925781
40
0.0
41
0.0
42
0.0
10
74.1548004150391
20
74.311897277832
40
0.0
41
0.0
42
0.0
10
74.190299987793
20
74.3632965087891
40
0.0
41
0.0
42
0.0
10
74.4931030273438
20
74.2021026611328
40
0.0
41
0.0
42
0.0
10
74.5845031738281
20
74.0998001098633
40
0.0
41
0.0
42
0.0
10
74.6714019775391
20
73.9982986450195
40
0.0
41
0.0
42
0.0
10
74.5885009765625
20
73.8518981933594
40
0.0
41
0.0
42
0.0
10
74.491096496582
20
73.7218017578125
40
0.0
41
0.0
42
0.0
10
74.3339004516602
20
73.7095031738281
40
0.0
41
0.0
42
0.0
10
74.2624969482422
20
73.8274002075195
40
0.0
41
0.0
42
0.0
10
74.3499984741211
20
73.9853973388672
40
0.0
41
0.0
42
0.0
10
74.3498992919922
20
74.0137023925781
40
0.0
41
0.0
42
0.0
210
0.0
220
0.0
230
1.0
0
LWPOLYLINE
5
2F
330
1C
100
AcDbEntity
67
0
8
0
62
256
6
ByLayer
370
-1
48
1.0
60
0
100
AcDbPolyline
90
12
70
1
38
0.0
39
0.0
10
74.4570999145508
20
76.2738037109375
40
0.0
41
0.0
42
0.0
10
74.4963989257812
20
76.1110000610352
40
0.0
41
0.0
42
0.0
10
74.5044021606445
20
76.1110992431641
40
0.0
41
0.0
42
0.0
10
74.5557022094727
20
76.2787017822266
40
0.0
41
0.0
42
0.0
10
74.5681991577148
20
76.480598449707
40
0.0
41
0.0
42
0.0
10
74.5680999755859
20
76.5173034667969
40
0.0
41
0.0
42
0.0
10
74.5037002563477
20
76.7656021118164
40
0.0
41
0.0
42
0.0
10
74.4919967651367
20
76.7656021118164
40
0.0
41
0.0
42
0.0
10
74.4557037353516
20
76.7169036865234
40
0.0
41
0.0
42
0.0
10
74.431396484375
20
76.5186996459961
40
0.0
41
0.0
42
0.0
10
74.4312973022461
20
76.481201171875
40
0.0
41
0.0
42
0.0
10
74.4570999145508
20
76.2738037109375
40
0.0
41
0.0
42
0.0
210
0.0
220
0.0
230
1.0
0
LWPOLYLINE
5
30
330
1C
100
AcDbEntity
67
0
8
0
62
256
6
ByLayer
370
-1
48
1.0
60
0
100
AcDbPolyline
90
10
70
1
38
0.0
39
0.0
10
74.4961013793945
20
76.6959991455078
40
0.0
41
0.0
42
0.0
10
74.5020980834961
20
76.6948013305664
40
0.0
41
0.0
42
0.0
10
74.5550994873047
20
76.4897003173828
40
0.0
41
0.0
42
0.0
10
74.5466003417969
20
76.3511962890625
40
0.0
41
0.0
42
0.0
10
74.5111999511719
20
76.2357025146484
40
0.0
41
0.0
42
0.0
10
74.4906997680664
20
76.2363967895508
40
0.0
41
0.0
42
0.0
10
74.4632034301758
20
76.3511962890625
40
0.0
41
0.0
42
0.0
10
74.4448013305664
20
76.4999008178711
40
0.0
41
0.0
42
0.0
10
74.4636993408203
20
76.6530990600586
40
0.0
41
0.0
42
0.0
10
74.4961013793945
20
76.6959991455078
40
0.0
41
0.0
42
0.0
210
0.0
220
0.0
230
1.0
0
LWPOLYLINE
5
31
330
1C
100
AcDbEntity
67
0
8
0
62
256
6
ByLayer
370
-1
48
1.0
60
0
100
AcDbPolyline
90
9
70
1
38
0.0
39
0.0
10
74.6839981079102
20
74.9886016845703
40
0.0
41
0.0
42
0.0
10
74.9886016845703
20
74.6840972900391
40
0.0
41
0.0
42
0.0
10
75.0111999511719
20
74.6840972900391
40
0.0
41
0.0
42
0.0
10
75.315803527832
20
74.9886016845703
40
0.0
41
0.0
42
0.0
10
75.3156967163086
20
75.0111999511719
40
0.0
41
0.0
42
0.0
10
75.0112991333008
20
75.315803527832
40
0.0
41
0.0
42
0.0
10
74.9886016845703
20
75.3156967163086
40
0.0
41
0.0
42
0.0
10
74.6840972900391
20
75.0111999511719
40
0.0
41
0.0
42
0.0
10
74.6839981079102
20
74.9886016845703
40
0.0
41
0.0
42
0.0
210
0.0
220
0.0
230
1.0
0
LWPOLYLINE
5
32
330
1C
100
AcDbEntity
67
0
8
0
62
256
6
ByLayer
370
-1
48
1.0
60
0
100
AcDbPolyline
90
5
70
1
38
0.0
39
0.0
10
75.0
20
74.6998977661133
40
0.0
41
0.0
42
0.0
10
74.6999969482422
20
75.0
40
0.0
41
0.0
42
0.0
10
75.0
20
75.2995986938477
40
0.0
41
0.0
42
0.0
10
75.2996978759766
20
75.0
40
0.0
41
0.0
42
0.0
10
75.0
20
74.6998977661133
40
0.0
41
0.0
42
0.0
210
0.0
220
0.0
230
1.0
0
LWPOLYLINE
5
33
330
1C
100
AcDbEntity
67
0
8
0
62
256
6
ByLayer
370
-1
48
1.0
60
0
100
AcDbPolyline
90
16
70
1
38
0.0
39
0.0
10
75.3852996826172
20
75.9001007080078
40
0.0
41
0.0
42
0.0
10
75.4931030273438
20
75.7797012329102
40
0.0
41
0.0
42
0.0
10
75.8730010986328
20
75.5774002075195
40
0.0
41
0.0
42
0.0
10
75.8966979980469
20
75.5774993896484
40
0.0
41
0.0
42
0.0
10
75.9113998413086
20
75.5986022949219
40
0.0
41
0.0
42
0.0
10
75.9113006591797
20
75.6258010864258
40
0.0
41
0.0
42
0.0
10
75.665901184082
20
76.0007019042969
40
0.0
41
0.0
42
0.0
10
75.7763977050781
20
76.2002029418945
40
0.0
41
0.0
42
0.0
10
75.7762985229492
20
76.2288970947266
40
0.0
41
0.0
42
0.0
10
75.722900390625
20
76.3171997070312
40
0.0
41
0.0
42
0.0
10
75.6957015991211
20
76.3171005249023
40
0.0
41
0.0
42
0.0
10
75.491096496582
20
76.3011016845703
40
0.0
41
0.0
42
0.0
10
75.4173965454102
20
76.2027969360352
40
0.0
41
0.0
42
0.0
10
75.3106002807617
20
76.0143966674805
40
0.0
41
0.0
42
0.0
10
75.3105010986328
20
75.9877014160156
40
0.0
41
0.0
42
0.0
10
75.3852996826172
20
75.9001007080078
40
0.0
41
0.0
42
0.0
210
0.0
220
0.0
230
1.0
0
LWPOLYLINE
5
34
330
1C
100
AcDbEntity
67
0
8
0
62
256
6
ByLayer
370
-1
48
1.0
60
0
100
AcDbPolyline
90
12
70
1
38
0.0
39
0.0
10
75.4113006591797
20
76.1479034423828
40
0.0
41
0.0
42
0.0
10
75.508903503418
20
76.2779006958008
40
0.0
41
0.0
42
0.0
10
75.665901184082
20
76.2901992797852
40
0.0
41
0.0
42
0.0
10
75.7372970581055
20
76.1724014282227
40
0.0
41
0.0
42
0.0
10
75.64990234375
20
76.0145034790039
40
0.0
41
0.0
42
0.0
10
75.6496963500977
20
75.986198425293
40
0.0
41
0.0
42
0.0
10
75.8450012207031
20
75.6878967285156
40
0.0
41
0.0
42
0.0
10
75.8095016479492
20
75.6362991333008
40
0.0
41
0.0
42
0.0
10
75.5067977905273
20
75.7975006103516
40
0.0
41
0.0
42
0.0
10
75.4151992797852
20
75.89990234375
40
0.0
41
0.0
42
0.0
10
75.3283004760742
20
76.0016021728516
40
0.0
41
0.0
42
0.0
10
75.4113006591797
20
76.1479034423828
40
0.0
41
0.0
42
0.0
210
0.0
220
0.0
230
1.0
0
LWPOLYLINE
5
35
330
1C
100
AcDbEntity
67
0
8
0
62
256
6
ByLayer
370
-1
48
1.0
60
0
100
AcDbPolyline
90
12
70
1
38
0.0
39
0.0
10
75.4961013793945
20
73.2342987060547
40
0.0
41
0.0
42
0.0
10
75.507698059082
20
73.2342987060547
40
0.0
41
0.0
42
0.0
10
75.5439987182617
20
73.2829971313477
40
0.0
41
0.0
42
0.0
10
75.5684967041016
20
73.481201171875
40
0.0
41
0.0
42
0.0
10
75.5683975219727
20
73.5186996459961
40
0.0
41
0.0
42
0.0
10
75.5434036254883
20
73.7213973999023
40
0.0
41
0.0
42
0.0
10
75.5034027099609
20
73.8887023925781
40
0.0
41
0.0
42
0.0
10
75.4953994750977
20
73.888801574707
40
0.0
41
0.0
42
0.0
10
75.4440002441406
20
73.7211990356445
40
0.0
41
0.0
42
0.0
10
75.4317016601562
20
73.5193023681641
40
0.0
41
0.0
42
0.0
10
75.4316024780273
20
73.4825973510742
40
0.0
41
0.0
42
0.0
10
75.4961013793945
20
73.2342987060547
40
0.0
41
0.0
42
0.0
210
0.0
220
0.0
230
1.0
0
LWPOLYLINE
5
36
330
1C
100
AcDbEntity
67
0
8
0
62
256
6
ByLayer
370
-1
48
1.0
60
0
100
AcDbPolyline
90
10
70
1
38
0.0
39
0.0
10
75.4531021118164
20
73.6486968994141
40
0.0
41
0.0
42
0.0
10
75.4887008666992
20
73.7641983032227
40
0.0
41
0.0
42
0.0
10
75.5092010498047
20
73.7634963989258
40
0.0
41
0.0
42
0.0
10
75.5364990234375
20
73.6486968994141
40
0.0
41
0.0
42
0.0
10
75.5549011230469
20
73.5
40
0.0
41
0.0
42
0.0
10
75.5361022949219
20
73.3469009399414
40
0.0
41
0.0
42
0.0
10
75.5040969848633
20
73.3038024902344
40
0.0
41
0.0
42
0.0
10
75.497802734375
20
73.3050003051758
40
0.0
41
0.0
42
0.0
10
75.4447021484375
20
73.5102005004883
40
0.0
41
0.0
42
0.0
10
75.4531021118164
20
73.6486968994141
40
0.0
41
0.0
42
0.0
210
0.0
220
0.0
230
1.0
0
LWPOLYLINE
5
37
330
1C
100
AcDbEntity
67
0
8
0
62
256
6
ByLayer
370
-1
48
1.0
60
0
100
AcDbPolyline
90
16
70
1
38
0.0
39
0.0
10
75.5986022949219
20
74.0885009765625
40
0.0
41
0.0
42
0.0
10
75.6258010864258
20
74.0884017944336
40
0.0
41
0.0
42
0.0
10
76.0008010864258
20
74.3338012695312
40
0.0
41
0.0
42
0.0
10
76.2002029418945
20
74.223503112793
40
0.0
41
0.0
42
0.0
10
76.2288970947266
20
74.2233963012695
40
0.0
41
0.0
42
0.0
10
76.3171997070312
20
74.2769012451172
40
0.0
41
0.0
42
0.0
10
76.3171005249023
20
74.3041000366211
40
0.0
41
0.0
42
0.0
10
76.3010025024414
20
74.5087966918945
40
0.0
41
0.0
42
0.0
10
76.2027969360352
20
74.5822982788086
40
0.0
41
0.0
42
0.0
10
76.0143966674805
20
74.6893005371094
40
0.0
41
0.0
42
0.0
10
75.9877014160156
20
74.6893005371094
40
0.0
41
0.0
42
0.0
10
75.9001998901367
20
74.614501953125
40
0.0
41
0.0
42
0.0
10
75.7797012329102
20
74.5067977905273
40
0.0
41
0.0
42
0.0
10
75.5774002075195
20
74.1268005371094
40
0.0
41
0.0
42
0.0
10
75.5774002075195
20
74.1029968261719
40
0.0
41
0.0
42
0.0
10
75.5986022949219
20
74.0885009765625
40
0.0
41
0.0
42
0.0
210
0.0
220
0.0
230
1.0
0
LWPOLYLINE
5
38
330
1C
100
AcDbEntity
67
0
8
0
62
256
6
ByLayer
370
-1
48
1.0
60
0
100
AcDbPolyline
90
12
70
1
38
0.0
39
0.0
10
75.89990234375
20
74.584602355957
40
0.0
41
0.0
42
0.0
10
76.0016021728516
20
74.6714019775391
40
0.0
41
0.0
42
0.0
10
76.1477966308594
20
74.5884017944336
40
0.0
41
0.0
42
0.0
10
76.2779006958008
20
74.4909973144531
40
0.0
41
0.0
42
0.0
10
76.2902984619141
20
74.3339004516602
40
0.0
41
0.0
42
0.0
10
76.1724014282227
20
74.2623977661133
40
0.0
41
0.0
42
0.0
10
76.0145034790039
20
74.3499984741211
40
0.0
41
0.0
42
0.0
10
75.986198425293
20
74.3499984741211
40
0.0
41
0.0
42
0.0
10
75.6878967285156
20
74.1547012329102
40
0.0
41
0.0
42
0.0
10
75.6363983154297
20
74.190299987793
40
0.0
41
0.0
42
0.0
10
75.7975997924805
20
74.4931030273438
40
0.0
41
0.0
42
0.0
10
75.89990234375
20
74.584602355957
40
0.0
41
0.0
42
0.0
210
0.0
220
0.0
230
1.0
0
LWPOLYLINE
5
39
330
1C
100
AcDbEntity
67
0
8
0
62
256
6
ByLayer
370
-1
48
1.0
60
0
100
AcDbPolyline
90
12
70
1
38
0.0
39
0.0
10
76.5173034667969
20
75.4316024780273
40
0.0
41
0.0
42
0.0
10
76.7656021118164
20
75.4962005615234
40
0.0
41
0.0
42
0.0
10
76.7656021118164
20
75.5075988769531
40
0.0
41
0.0
42
0.0
10
76.716796875
20
75.5439987182617
40
0.0
41
0.0
42
0.0
10
76.5186996459961
20
75.5684967041016
40
0.0
41
0.0
42
0.0
10
76.4813003540039
20
75.5683975219727
40
0.0
41
0.0
42
0.0
10
76.2736968994141
20
75.5426025390625
40
0.0
41
0.0
42
0.0
10
76.1110000610352
20
75.5035018920898
40
0.0
41
0.0
42
0.0
10
76.1110000610352
20
75.4953994750977
40
0.0
41
0.0
42
0.0
10
76.2787017822266
20
75.4440002441406
40
0.0
41
0.0
42
0.0
10
76.480598449707
20
75.4317016601562
40
0.0
41
0.0
42
0.0
10
76.5173034667969
20
75.4316024780273
40
0.0
41
0.0
42
0.0
210
0.0
220
0.0
230
1.0
0
LWPOLYLINE
5
3A
330
1C
100
AcDbEntity
67
0
8
0
62
256
6
ByLayer
370
-1
48
1.0
60
0
100
AcDbPolyline
90
10
70
1
38
0.0
39
0.0
10
76.2363967895508
20
75.5092010498047
40
0.0
41
0.0
42
0.0
10
76.3511962890625
20
75.5364990234375
40
0.0
41
0.0
42
0.0
10
76.4999008178711
20
75.5549011230469
40
0.0
41
0.0
42
0.0
10
76.6530990600586
20
75.536003112793
40
0.0
41
0.0
42
0.0
10
76.6959991455078
20
75.5037994384766
40
0.0
41
0.0
42
0.0
10
76.6948013305664
20
75.497802734375
40
0.0
41
0.0
42
0.0
10
76.4897003173828
20
75.4446029663086
40
0.0
41
0.0
42
0.0
10
76.3511962890625
20
75.4531021118164
40
0.0
41
0.0
42
0.0
10
76.2357025146484
20
75.4887008666992
40
0.0
41
0.0
42
0.0
10
76.2363967895508
20
75.5092010498047
40
0.0
41
0.0
42
0.0
210
0.0
220
0.0
230
1.0
0
LWPOLYLINE
5
3B
330
1C
100
AcDbEntity
67
0
8
0
62
256
6
ByLayer
370
-1
48
1.0
60
0
100
AcDbPolyline
90
129
70
1
38
0.0
39
0.0
10
79.1325988769531
20
66.6495971679688
40
0.0
41
0.0
42
0.0
10
79.2070007324219
20
66.4891967773438
40
0.0
41
0.0
42
0.0
10
79.4306030273438
20
66.061897277832
40
0.0
41
0.0
42
0.0
10
79.4414978027344
20
65.9900970458984
40
0.0
41
0.0
42
0.0
10
79.492301940918
20
65.9412994384766
40
0.0
41
0.0
42
0.0
10
79.6074981689453
20
65.8806991577148
40
0.0
41
0.0
42
0.0
10
79.9889984130859
20
65.6557998657227
40
0.0
41
0.0
42
0.0
10
80.100700378418
20
65.6137008666992
40
0.0
41
0.0
42
0.0
10
80.4853973388672
20
65.494499206543
40
0.0
41
0.0
42
0.0
10
80.8255004882812
20
65.4162979125977
40
0.0
41
0.0
42
0.0
10
80.9858016967773
20
65.3744964599609
40
0.0
41
0.0
42
0.0
10
81.1701965332031
20
65.315299987793
40
0.0
41
0.0
42
0.0
10
81.4845962524414
20
65.2470016479492
40
0.0
41
0.0
42
0.0
10
81.6910018920898
20
65.1976013183594
40
0.0
41
0.0
42
0.0
10
81.8423004150391
20
65.0009994506836
40
0.0
41
0.0
42
0.0
10
81.9580001831055
20
65.0009994506836
40
0.0
41
0.0
42
0.0
10
81.9579010009766
20
65.0128021240234
40
0.0
41
0.0
42
0.0
10
81.7673034667969
20
65.2606964111328
40
0.0
41
0.0
42
0.0
10
81.5152969360352
20
65.3208999633789
40
0.0
41
0.0
42
0.0
10
81.1035003662109
20
65.4104995727539
40
0.0
41
0.0
42
0.0
10
81.0140991210938
20
65.4392013549805
40
0.0
41
0.0
42
0.0
10
80.938102722168
20
65.4589996337891
40
0.0
41
0.0
42
0.0
10
80.5145034790039
20
65.5565032958984
40
0.0
41
0.0
42
0.0
10
80.1747970581055
20
65.6616973876953
40
0.0
41
0.0
42
0.0
10
80.0108032226562
20
65.7236022949219
40
0.0
41
0.0
42
0.0
10
79.5383987426758
20
66.0022964477539
40
0.0
41
0.0
42
0.0
10
79.5036010742188
20
66.026496887207
40
0.0
41
0.0
42
0.0
10
79.2501983642578
20
66.5105972290039
40
0.0
41
0.0
42
0.0
10
79.1575012207031
20
66.7104034423828
40
0.0
41
0.0
42
0.0
10
79.2113037109375
20
66.9850997924805
40
0.0
41
0.0
42
0.0
10
79.3021011352539
20
67.2780990600586
40
0.0
41
0.0
42
0.0
10
79.302001953125
20
67.3142013549805
40
0.0
41
0.0
42
0.0
10
79.2902984619141
20
67.489501953125
40
0.0
41
0.0
42
0.0
10
79.4076995849609
20
67.8196029663086
40
0.0
41
0.0
42
0.0
10
79.4232025146484
20
67.9826965332031
40
0.0
41
0.0
42
0.0
10
79.4514007568359
20
68.1509017944336
40
0.0
41
0.0
42
0.0
10
79.4847030639648
20
68.2279968261719
40
0.0
41
0.0
42
0.0
10
79.5007019042969
20
68.269401550293
40
0.0
41
0.0
42
0.0
10
79.6146011352539
20
68.4878997802734
40
0.0
41
0.0
42
0.0
10
79.6649017333984
20
68.6552963256836
40
0.0
41
0.0
42
0.0
10
80.00830078125
20
69.0521011352539
40
0.0
41
0.0
42
0.0
10
80.0849990844727
20
69.0724029541016
40
0.0
41
0.0
42
0.0
10
80.3450012207031
20
69.2079010009766
40
0.0
41
0.0
42
0.0
10
80.5145034790039
20
69.2826995849609
40
0.0
41
0.0
42
0.0
10
80.7578964233398
20
69.3074035644531
40
0.0
41
0.0
42
0.0
10
81.0170974731445
20
69.3692016601562
40
0.0
41
0.0
42
0.0
10
81.2807998657227
20
69.379997253418
40
0.0
41
0.0
42
0.0
10
81.5081024169922
20
69.4152984619141
40
0.0
41
0.0
42
0.0
10
81.7067031860352
20
69.4039993286133
40
0.0
41
0.0
42
0.0
10
81.7449035644531
20
69.4039001464844
40
0.0
41
0.0
42
0.0
10
81.9925003051758
20
69.4300003051758
40
0.0
41
0.0
42
0.0
10
82.0401992797852
20
69.4160995483398
40
0.0
41
0.0
42
0.0
10
82.1512985229492
20
69.3570022583008
40
0.0
41
0.0
42
0.0
10
82.1860961914062
20
69.3531036376953
40
0.0
41
0.0
42
0.0
10
82.484001159668
20
69.3547973632812
40
0.0
41
0.0
42
0.0
10
82.7872009277344
20
69.2562026977539
40
0.0
41
0.0
42
0.0
10
82.9000015258789
20
69.1207962036133
40
0.0
41
0.0
42
0.0
10
83.000602722168
20
68.9906005859375
40
0.0
41
0.0
42
0.0
10
83.2156982421875
20
68.4856033325195
40
0.0
41
0.0
42
0.0
10
83.2441024780273
20
68.2779998779297
40
0.0
41
0.0
42
0.0
10
83.2918014526367
20
67.9816970825195
40
0.0
41
0.0
42
0.0
10
83.2929000854492
20
67.7757034301758
40
0.0
41
0.0
42
0.0
10
83.3115997314453
20
67.5
40
0.0
41
0.0
42
0.0
10
83.2982025146484
20
67.3227005004883
40
0.0
41
0.0
42
0.0
10
83.2978973388672
20
67.277702331543
40
0.0
41
0.0
42
0.0
10
83.3198013305664
20
66.996696472168
40
0.0
41
0.0
42
0.0
10
83.3106994628906
20
66.8291015625
40
0.0
41
0.0
42
0.0
10
83.3106002807617
20
66.7938003540039
40
0.0
41
0.0
42
0.0
10
83.4326019287109
20
66.4941024780273
40
0.0
41
0.0
42
0.0
10
83.4917984008789
20
66.4570007324219
40
0.0
41
0.0
42
0.0
10
83.7818984985352
20
66.2409973144531
40
0.0
41
0.0
42
0.0
10
83.8126983642578
20
66.2408981323242
40
0.0
41
0.0
42
0.0
10
84.0147018432617
20
66.2850036621094
40
0.0
41
0.0
42
0.0
10
84.1941986083984
20
66.3377990722656
40
0.0
41
0.0
42
0.0
10
84.5174026489258
20
66.3383026123047
40
0.0
41
0.0
42
0.0
10
84.8486022949219
20
66.4188003540039
40
0.0
41
0.0
42
0.0
10
84.9990005493164
20
66.4773025512695
40
0.0
41
0.0
42
0.0
10
84.9990005493164
20
66.4960021972656
40
0.0
41
0.0
42
0.0
10
84.9839019775391
20
66.4959030151367
40
0.0
41
0.0
42
0.0
10
84.7813034057617
20
66.4169998168945
40
0.0
41
0.0
42
0.0
10
84.4824981689453
20
66.3444976806641
40
0.0
41
0.0
42
0.0
10
84.1871032714844
20
66.3441009521484
40
0.0
41
0.0
42
0.0
10
84.1501007080078
20
66.3365020751953
40
0.0
41
0.0
42
0.0
10
83.9851989746094
20
66.2878036499023
40
0.0
41
0.0
42
0.0
10
83.8410034179688
20
66.2564010620117
40
0.0
41
0.0
42
0.0
10
83.504997253418
20
66.5065994262695
40
0.0
41
0.0
42
0.0
10
83.3582000732422
20
66.8692016601562
40
0.0
41
0.0
42
0.0
10
83.3643035888672
20
66.9804992675781
40
0.0
41
0.0
42
0.0
10
83.3641967773438
20
67.0190963745117
40
0.0
41
0.0
42
0.0
10
83.3392028808594
20
67.3399963378906
40
0.0
41
0.0
42
0.0
10
83.3499984741211
20
67.4806976318359
40
0.0
41
0.0
42
0.0
10
83.3498992919922
20
67.5192031860352
40
0.0
41
0.0
42
0.0
10
83.3271026611328
20
67.8542022705078
40
0.0
41
0.0
42
0.0
10
83.3262023925781
20
68.0182037353516
40
0.0
41
0.0
42
0.0
10
83.2723007202148
20
68.3517990112305
40
0.0
41
0.0
42
0.0
10
83.25
20
68.5142974853516
40
0.0
41
0.0
42
0.0
10
83.0818023681641
20
68.9092025756836
40
0.0
41
0.0
42
0.0
10
83.0412979125977
20
69.0086975097656
40
0.0
41
0.0
42
0.0
10
83.0037002563477
20
69.0509033203125
40
0.0
41
0.0
42
0.0
10
82.9260025024414
20
69.1518020629883
40
0.0
41
0.0
42
0.0
10
82.8426971435547
20
69.2518005371094
40
0.0
41
0.0
42
0.0
10
82.5167007446289
20
69.3580017089844
40
0.0
41
0.0
42
0.0
10
82.2101974487305
20
69.3561019897461
40
0.0
41
0.0
42
0.0
10
82.0770034790039
20
69.427001953125
40
0.0
41
0.0
42
0.0
10
82.0169982910156
20
69.4445037841797
40
0.0
41
0.0
42
0.0
10
81.9810028076172
20
69.4445037841797
40
0.0
41
0.0
42
0.0
10
81.7754974365234
20
69.4226989746094
40
0.0
41
0.0
42
0.0
10
81.5193023681641
20
69.4375991821289
40
0.0
41
0.0
42
0.0
10
81.4815979003906
20
69.4375
40
0.0
41
0.0
42
0.0
10
81.3086013793945
20
69.4106979370117
40
0.0
41
0.0
42
0.0
10
80.9829025268555
20
69.3972015380859
40
0.0
41
0.0
42
0.0
10
80.7835998535156
20
69.3497009277344
40
0.0
41
0.0
42
0.0
10
80.4853973388672
20
69.3195037841797
40
0.0
41
0.0
42
0.0
10
80.3520965576172
20
69.2605972290039
40
0.0
41
0.0
42
0.0
10
80.1346969604492
20
69.1473007202148
40
0.0
41
0.0
42
0.0
10
79.9915008544922
20
69.1094970703125
40
0.0
41
0.0
42
0.0
10
79.9005966186523
20
69.0062026977539
40
0.0
41
0.0
42
0.0
10
79.6490020751953
20
68.714599609375
40
0.0
41
0.0
42
0.0
10
79.5882034301758
20
68.5120010375977
40
0.0
41
0.0
42
0.0
10
79.4989013671875
20
68.3407974243164
40
0.0
41
0.0
42
0.0
10
79.4477996826172
20
68.2191009521484
40
0.0
41
0.0
42
0.0
10
79.4140014648438
20
68.0171966552734
40
0.0
41
0.0
42
0.0
10
79.3942031860352
20
67.8104019165039
40
0.0
41
0.0
42
0.0
10
79.2897033691406
20
67.5162963867188
40
0.0
41
0.0
42
0.0
10
79.2895965576172
20
67.4806976318359
40
0.0
41
0.0
42
0.0
10
79.299201965332
20
67.3436965942383
40
0.0
41
0.0
42
0.0
10
79.1975021362305
20
67.0148010253906
40
0.0
41
0.0
42
0.0
10
79.1325988769531
20
66.6828994750977
40
0.0
41
0.0
42
0.0
10
79.1325988769531
20
66.6495971679688
40
0.0
41
0.0
42
0.0
210
0.0
220
0.0
230
1.0
0
LWPOLYLINE
5
3C
330
1C
100
AcDbEntity
67
0
8
0
62
256
6
ByLayer
370
-1
48
1.0
60
0
100
AcDbPolyline
90
128
70
1
38
0.0
39
0.0
10
81.0783004760742
20
79.8108978271484
40
0.0
41
0.0
42
0.0
10
81.2853012084961
20
79.6485977172852
40
0.0
41
0.0
42
0.0
10
81.3366012573242
20
79.6296005249023
40
0.0
41
0.0
42
0.0
10
81.4877014160156
20
79.5883026123047
40
0.0
41
0.0
42
0.0
10
81.6589965820312
20
79.4989013671875
40
0.0
41
0.0
42
0.0
10
81.7807998657227
20
79.4477005004883
40
0.0
41
0.0
42
0.0
10
81.9826965332031
20
79.4140014648438
40
0.0
41
0.0
42
0.0
10
82.1894989013672
20
79.3942031860352
40
0.0
41
0.0
42
0.0
10
82.4835968017578
20
79.2897033691406
40
0.0
41
0.0
42
0.0
10
82.5192031860352
20
79.2895965576172
40
0.0
41
0.0
42
0.0
10
82.6561965942383
20
79.299201965332
40
0.0
41
0.0
42
0.0
10
82.9850997924805
20
79.1975021362305
40
0.0
41
0.0
42
0.0
10
83.3170013427734
20
79.1324996948242
40
0.0
41
0.0
42
0.0
10
83.3503036499023
20
79.1325988769531
40
0.0
41
0.0
42
0.0
10
83.5105972290039
20
79.2070007324219
40
0.0
41
0.0
42
0.0
10
83.9378967285156
20
79.4306030273438
40
0.0
41
0.0
42
0.0
10
84.0096969604492
20
79.4415969848633
40
0.0
41
0.0
42
0.0
10
84.0585021972656
20
79.492301940918
40
0.0
41
0.0
42
0.0
10
84.1190032958984
20
79.6075973510742
40
0.0
41
0.0
42
0.0
10
84.3436965942383
20
79.9886016845703
40
0.0
41
0.0
42
0.0
10
84.5053024291992
20
80.4856033325195
40
0.0
41
0.0
42
0.0
10
84.5833969116211
20
80.8255996704102
40
0.0
41
0.0
42
0.0
10
84.6251983642578
20
80.9858016967773
40
0.0
41
0.0
42
0.0
10
84.6844024658203
20
81.1701965332031
40
0.0
41
0.0
42
0.0
10
84.7537002563477
20
81.4885025024414
40
0.0
41
0.0
42
0.0
10
84.9990005493164
20
81.8386001586914
40
0.0
41
0.0
42
0.0
10
84.9990005493164
20
81.9580001831055
40
0.0
41
0.0
42
0.0
10
84.9908981323242
20
81.9580001831055
40
0.0
41
0.0
42
0.0
10
84.6780014038086
20
81.5113983154297
40
0.0
41
0.0
42
0.0
10
84.5892028808594
20
81.1035003662109
40
0.0
41
0.0
42
0.0
10
84.5605010986328
20
81.0140991210938
40
0.0
41
0.0
42
0.0
10
84.5407028198242
20
80.9382019042969
40
0.0
41
0.0
42
0.0
10
84.4430999755859
20
80.5139999389648
40
0.0
41
0.0
42
0.0
10
84.4108963012695
20
80.4243011474609
40
0.0
41
0.0
42
0.0
10
84.2763977050781
20
80.0112991333008
40
0.0
41
0.0
42
0.0
10
83.9975967407227
20
79.5383987426758
40
0.0
41
0.0
42
0.0
10
83.9731979370117
20
79.5037002563477
40
0.0
41
0.0
42
0.0
10
83.4893035888672
20
79.2502975463867
40
0.0
41
0.0
42
0.0
10
83.2894973754883
20
79.1575012207031
40
0.0
41
0.0
42
0.0
10
83.0148010253906
20
79.2113037109375
40
0.0
41
0.0
42
0.0
10
82.7218017578125
20
79.3021011352539
40
0.0
41
0.0
42
0.0
10
82.6856994628906
20
79.302001953125
40
0.0
41
0.0
42
0.0
10
82.5103988647461
20
79.2902984619141
40
0.0
41
0.0
42
0.0
10
82.1802978515625
20
79.4076995849609
40
0.0
41
0.0
42
0.0
10
82.0171966552734
20
79.4232025146484
40
0.0
41
0.0
42
0.0
10
81.8490982055664
20
79.4514007568359
40
0.0
41
0.0
42
0.0
10
81.7303009033203
20
79.5008010864258
40
0.0
41
0.0
42
0.0
10
81.5121994018555
20
79.614501953125
40
0.0
41
0.0
42
0.0
10
81.3928985595703
20
79.6472015380859
40
0.0
41
0.0
42
0.0
10
81.3444976806641
20
79.6651000976562
40
0.0
41
0.0
42
0.0
10
81.1013031005859
20
79.8557968139648
40
0.0
41
0.0
42
0.0
10
81.0053024291992
20
79.9577026367188
40
0.0
41
0.0
42
0.0
10
80.9476013183594
20
80.00830078125
40
0.0
41
0.0
42
0.0
10
80.9272994995117
20
80.0849990844727
40
0.0
41
0.0
42
0.0
10
80.7918014526367
20
80.3450012207031
40
0.0
41
0.0
42
0.0
10
80.7170028686523
20
80.5145034790039
40
0.0
41
0.0
42
0.0
10
80.6923980712891
20
80.7578964233398
40
0.0
41
0.0
42
0.0
10
80.630500793457
20
81.0169982910156
40
0.0
41
0.0
42
0.0
10
80.6196975708008
20
81.2807998657227
40
0.0
41
0.0
42
0.0
10
80.5843963623047
20
81.5081024169922
40
0.0
41
0.0
42
0.0
10
80.5959014892578
20
81.7067031860352
40
0.0
41
0.0
42
0.0
10
80.5958023071289
20
81.7449035644531
40
0.0
41
0.0
42
0.0
10
80.5697021484375
20
81.9925994873047
40
0.0
41
0.0
42
0.0
10
80.5836029052734
20
82.0401992797852
40
0.0
41
0.0
42
0.0
10
80.6427001953125
20
82.1512985229492
40
0.0
41
0.0
42
0.0
10
80.6466979980469
20
82.1860961914062
40
0.0
41
0.0
42
0.0
10
80.6448974609375
20
82.484001159668
40
0.0
41
0.0
42
0.0
10
80.7434997558594
20
82.7872009277344
40
0.0
41
0.0
42
0.0
10
80.8789978027344
20
82.9001007080078
40
0.0
41
0.0
42
0.0
10
81.0092010498047
20
83.000602722168
40
0.0
41
0.0
42
0.0
10
81.5142974853516
20
83.2156982421875
40
0.0
41
0.0
42
0.0
10
81.7219009399414
20
83.2441024780273
40
0.0
41
0.0
42
0.0
10
82.0182037353516
20
83.2918014526367
40
0.0
41
0.0
42
0.0
10
82.2241973876953
20
83.2929000854492
40
0.0
41
0.0
42
0.0
10
82.4999008178711
20
83.3115997314453
40
0.0
41
0.0
42
0.0
10
82.6771011352539
20
83.2982025146484
40
0.0
41
0.0
42
0.0
10
82.7220993041992
20
83.2978973388672
40
0.0
41
0.0
42
0.0
10
83.0162963867188
20
83.32080078125
40
0.0
41
0.0
42
0.0
10
83.4495010375977
20
83.4393005371094
40
0.0
41
0.0
42
0.0
10
83.4807968139648
20
83.4366989135742
40
0.0
41
0.0
42
0.0
10
83.50830078125
20
83.4367980957031
40
0.0
41
0.0
42
0.0
10
83.5427017211914
20
83.4917984008789
40
0.0
41
0.0
42
0.0
10
83.758903503418
20
83.7818984985352
40
0.0
41
0.0
42
0.0
10
83.7587966918945
20
83.8126983642578
40
0.0
41
0.0
42
0.0
10
83.7142028808594
20
84.0177001953125
40
0.0
41
0.0
42
0.0
10
83.7138977050781
20
84.3140029907227
40
0.0
41
0.0
42
0.0
10
83.7105026245117
20
84.3509979248047
40
0.0
41
0.0
42
0.0
10
83.6622009277344
20
84.5145034790039
40
0.0
41
0.0
42
0.0
10
83.5809020996094
20
84.8486022949219
40
0.0
41
0.0
42
0.0
10
83.5224990844727
20
84.9990005493164
40
0.0
41
0.0
42
0.0
10
83.5038986206055
20
84.9990005493164
40
0.0
41
0.0
42
0.0
10
83.5037994384766
20
84.9839019775391
40
0.0
41
0.0
42
0.0
10
83.5827026367188
20
84.7813034057617
40
0.0
41
0.0
42
0.0
10
83.6546020507812
20
84.4853973388672
40
0.0
41
0.0
42
0.0
10
83.7121963500977
20
84.2902984619141
40
0.0
41
0.0
42
0.0
10
83.7125015258789
20
83.9822006225586
40
0.0
41
0.0
42
0.0
10
83.7433013916016
20
83.8410034179688
40
0.0
41
0.0
42
0.0
10
83.4925003051758
20
83.5038986206055
40
0.0
41
0.0
42
0.0
10
82.9835968017578
20
83.3644027709961
40
0.0
41
0.0
42
0.0
10
82.659797668457
20
83.3392028808594
40
0.0
41
0.0
42
0.0
10
82.5192031860352
20
83.3499984741211
40
0.0
41
0.0
42
0.0
10
82.4806976318359
20
83.3498992919922
40
0.0
41
0.0
42
0.0
10
82.1456985473633
20
83.3271026611328
40
0.0
41
0.0
42
0.0
10
81.9816970825195
20
83.3262023925781
40
0.0
41
0.0
42
0.0
10
81.6481018066406
20
83.2723007202148
40
0.0
41
0.0
42
0.0
10
81.4856033325195
20
83.2500991821289
40
0.0
41
0.0
42
0.0
10
81.0905990600586
20
83.0818023681641
40
0.0
41
0.0
42
0.0
10
80.9912033081055
20
83.0412979125977
40
0.0
41
0.0
42
0.0
10
80.9488983154297
20
83.0037002563477
40
0.0
41
0.0
42
0.0
10
80.8479995727539
20
82.9260025024414
40
0.0
41
0.0
42
0.0
10
80.7479019165039
20
82.8426971435547
40
0.0
41
0.0
42
0.0
10
80.6417999267578
20
82.5167007446289
40
0.0
41
0.0
42
0.0
10
80.6436004638672
20
82.2101974487305
40
0.0
41
0.0
42
0.0
10
80.5727005004883
20
82.0770034790039
40
0.0
41
0.0
42
0.0
10
80.5553970336914
20
82.0170974731445
40
0.0
41
0.0
42
0.0
10
80.5552978515625
20
81.9810028076172
40
0.0
41
0.0
42
0.0
10
80.5770034790039
20
81.7753982543945
40
0.0
41
0.0
42
0.0
10
80.5623016357422
20
81.5193023681641
40
0.0
41
0.0
42
0.0
10
80.5622024536133
20
81.4815979003906
40
0.0
41
0.0
42
0.0
10
80.588996887207
20
81.3086013793945
40
0.0
41
0.0
42
0.0
10
80.6025009155273
20
80.9828033447266
40
0.0
41
0.0
42
0.0
10
80.6500015258789
20
80.7835006713867
40
0.0
41
0.0
42
0.0
10
80.6801986694336
20
80.4853973388672
40
0.0
41
0.0
42
0.0
10
80.7391967773438
20
80.3519973754883
40
0.0
41
0.0
42
0.0
10
80.8524017333984
20
80.1346969604492
40
0.0
41
0.0
42
0.0
10
80.8901977539062
20
79.9914016723633
40
0.0
41
0.0
42
0.0
10
80.994499206543
20
79.8998031616211
40
0.0
41
0.0
42
0.0
10
81.0783004760742
20
79.8108978271484
40
0.0
41
0.0
42
0.0
210
0.0
220
0.0
230
1.0
0
LWPOLYLINE
5
3D
330
1C
100
AcDbEntity
67
0
8
0
62
256
6
ByLayer
370
-1
48
1.0
60
0
100
AcDbPolyline
90
74
70
1
38
0.0
39
0.0
10
82.8856964111328
20
73.4869995117188
40
0.0
41
0.0
42
0.0
10
82.8876037597656
20
73.4829025268555
40
0.0
41
0.0
42
0.0
10
82.9965972900391
20
73.3320999145508
40
0.0
41
0.0
42
0.0
10
83.0401000976562
20
73.2781982421875
40
0.0
41
0.0
42
0.0
10
83.1650009155273
20
72.9887008666992
40
0.0
41
0.0
42
0.0
10
83.3086013793945
20
72.6956024169922
40
0.0
41
0.0
42
0.0
10
83.3351974487305
20
72.6577987670898
40
0.0
41
0.0
42
0.0
10
83.4782028198242
20
72.4914016723633
40
0.0
41
0.0
42
0.0
10
83.4972991943359
20
72.4505996704102
40
0.0
41
0.0
42
0.0
10
83.844596862793
20
72.1156005859375
40
0.0
41
0.0
42
0.0
10
83.9297027587891
20
71.9921035766602
40
0.0
41
0.0
42
0.0
10
83.9921035766602
20
71.9069976806641
40
0.0
41
0.0
42
0.0
10
84.2434997558594
20
71.8531036376953
40
0.0
41
0.0
42
0.0
10
84.4838027954102
20
71.7612991333008
40
0.0
41
0.0
42
0.0
10
84.5175018310547
20
71.7611999511719
40
0.0
41
0.0
42
0.0
10
84.8557968139648
20
71.842399597168
40
0.0
41
0.0
42
0.0
10
84.9990005493164
20
71.8685989379883
40
0.0
41
0.0
42
0.0
10
84.9990005493164
20
71.9366989135742
40
0.0
41
0.0
42
0.0
10
84.9819030761719
20
71.9365997314453
40
0.0
41
0.0
42
0.0
10
84.9068984985352
20
71.9227981567383
40
0.0
41
0.0
42
0.0
10
84.5030975341797
20
71.8258972167969
40
0.0
41
0.0
42
0.0
10
84.3339996337891
20
71.8906021118164
40
0.0
41
0.0
42
0.0
10
84.0074996948242
20
71.9606018066406
40
0.0
41
0.0
42
0.0
10
83.9371032714844
20
72.0599975585938
40
0.0
41
0.0
42
0.0
10
83.5025024414062
20
72.4791030883789
40
0.0
41
0.0
42
0.0
10
83.4888000488281
20
72.5083999633789
40
0.0
41
0.0
42
0.0
10
83.3327026367188
20
72.6901016235352
40
0.0
41
0.0
42
0.0
10
83.1753997802734
20
73.011100769043
40
0.0
41
0.0
42
0.0
10
83.0356979370117
20
73.3351974487305
40
0.0
41
0.0
42
0.0
10
83.0031967163086
20
73.3753967285156
40
0.0
41
0.0
42
0.0
10
82.91259765625
20
73.5005035400391
40
0.0
41
0.0
42
0.0
10
82.9069976806641
20
73.5130004882812
40
0.0
41
0.0
42
0.0
10
82.8231964111328
20
73.8471984863281
40
0.0
41
0.0
42
0.0
10
82.7309036254883
20
74.0139007568359
40
0.0
41
0.0
42
0.0
10
82.7190017700195
20
74.1977005004883
40
0.0
41
0.0
42
0.0
10
82.7554016113281
20
74.4858016967773
40
0.0
41
0.0
42
0.0
10
82.8331985473633
20
74.6550979614258
40
0.0
41
0.0
42
0.0
10
82.9888000488281
20
74.894401550293
40
0.0
41
0.0
42
0.0
10
83.0012969970703
20
74.9168014526367
40
0.0
41
0.0
42
0.0
10
83.0380020141602
20
74.9908981323242
40
0.0
41
0.0
42
0.0
10
83.4060974121094
20
75.4940032958984
40
0.0
41
0.0
42
0.0
10
83.5047988891602
20
75.5858001708984
40
0.0
41
0.0
42
0.0
10
83.5345001220703
20
75.6206970214844
40
0.0
41
0.0
42
0.0
10
83.5953979492188
20
75.6606979370117
40
0.0
41
0.0
42
0.0
10
83.8681030273438
20
75.9955978393555
40
0.0
41
0.0
42
0.0
10
83.9713973999023
20
76.0653991699219
40
0.0
41
0.0
42
0.0
10
84.0077972412109
20
76.1166000366211
40
0.0
41
0.0
42
0.0
10
84.1784973144531
20
76.1480026245117
40
0.0
41
0.0
42
0.0
10
84.2136001586914
20
76.1643981933594
40
0.0
41
0.0
42
0.0
10
84.5047988891602
20
76.4091033935547
40
0.0
41
0.0
42
0.0
10
84.6880035400391
20
76.3556976318359
40
0.0
41
0.0
42
0.0
10
84.7233963012695
20
76.355598449707
40
0.0
41
0.0
42
0.0
10
84.9990005493164
20
76.3963012695312
40
0.0
41
0.0
42
0.0
10
84.9990005493164
20
76.4297027587891
40
0.0
41
0.0
42
0.0
10
84.9814987182617
20
76.4296035766602
40
0.0
41
0.0
42
0.0
10
84.6690979003906
20
76.3840026855469
40
0.0
41
0.0
42
0.0
10
84.5169982910156
20
76.4284973144531
40
0.0
41
0.0
42
0.0
10
84.4876022338867
20
76.4284973144531
40
0.0
41
0.0
42
0.0
10
84.171501159668
20
76.1626968383789
40
0.0
41
0.0
42
0.0
10
83.9921035766602
20
76.1297988891602
40
0.0
41
0.0
42
0.0
10
83.965202331543
20
76.0920028686523
40
0.0
41
0.0
42
0.0
10
83.8356018066406
20
76.0043029785156
40
0.0
41
0.0
42
0.0
10
83.5952987670898
20
75.7091979980469
40
0.0
41
0.0
42
0.0
10
83.5190963745117
20
75.6592025756836
40
0.0
41
0.0
42
0.0
10
83.4952011108398
20
75.6308975219727
40
0.0
41
0.0
42
0.0
10
83.3608016967773
20
75.5058975219727
40
0.0
41
0.0
42
0.0
10
82.9964981079102
20
75.0080032348633
40
0.0
41
0.0
42
0.0
10
82.8057022094727
20
74.7147979736328
40
0.0
41
0.0
42
0.0
10
82.7136001586914
20
74.5140991210938
40
0.0
41
0.0
42
0.0
10
82.6829986572266
20
74.271598815918
40
0.0
41
0.0
42
0.0
10
82.6828994750977
20
74.2335968017578
40
0.0
41
0.0
42
0.0
10
82.6988983154297
20
73.9860000610352
40
0.0
41
0.0
42
0.0
10
82.8115997314453
20
73.7826995849609
40
0.0
41
0.0
42
0.0
10
82.8856964111328
20
73.4869995117188
40
0.0
41
0.0
42
0.0
210
0.0
220
0.0
230
1.0
0
VIEWPORT
5
42
330
3E
100
AcDbEntity
67
1
8
0
62
256
6
ByLayer
370
-1
48
1.0
60
0
100
AcDbViewport
10
0.0
20
0.0
30
0.0
40
297.0
41
210.0
68
1
69
1
12
50.0
22
100.0
13
0.0
23
0.0
14
10.0
24
10.0
15
10.0
25
10.0
16
0.0
26
0.0
36
1.0
17
0.0
27
0.0
37
0.0
42
50.0
43
0.0
44
0.0
45
250.0
50
0.0
51
0.0
72
1000
90
819232
110
0.0
120
0.0
130
0.0
111
1.0
121
0.0
131
0.0
112
0.0
122
1.0
132
0.0
0
ENDSEC
0
SECTION
2
OBJECTS
0
DICTIONARY
5
48
330
0
100
AcDbDictionary
280
1
281
1
3
ACAD_GROUP
350
12
3
ACAD_LAYOUT
350
41
3
ACAD_DGNDEFINITIONS
350
F
3
ACAD_DWFDEFINITIONS
350
10
3
ACAD_PDFDEFINITIONS
350
11
3
ACAD_MLINESTYLE
350
B
3
ACAD_IMAGE_DICT
350
E
3
ACAD_IMAGE_VARS
350
21
0
DICTIONARY
5
12
330
48
100
AcDbDictionary
280
1
281
1
0
DICTIONARY
5
41
330
48
100
AcDbDictionary
280
1
281
1
3
Model
350
20
3
Layout1
350
43
0
DICTIONARY
5
F
330
48
100
AcDbDictionary
280
1
281
1
0
DICTIONARY
5
10
330
48
100
AcDbDictionary
280
1
281
1
0
DICTIONARY
5
11
330
48
100
AcDbDictionary
280
1
281
1
0
DICTIONARY
5
B
330
48
100
AcDbDictionary
280
1
281
1
3
Standard
350
1B
0
DICTIONARY
5
E
330
48
100
AcDbDictionary
280
1
281
1
0
DICTIONARY
5
6
330
5
100
AcDbDictionary
280
1
281
1
3
ACAD_LAYERSTATES
360
49
0
DICTIONARY
5
49
330
6
100
AcDbDictionary
280
1
281
1
0
LAYOUT
5
20
330
41
100
AcDbPlotSettings
1

2
none_device
4
ISO_A4_(210.00_x_297.00_MM)
6

40
7.5
41
20.0
42
7.5
43
20.0
44
210.0
45
297.0
46
0.0
47
0.0
48
0.0
49
0.0
140
0.0
141
0.0
142
1.0
143
1.0
70
11952
72
1
73
1
74
1
7

75
0
76
0
77
2
78
300
147
1.0
148
0.0
149
0.0
100
AcDbLayout
1
Model
71
0
10
-20.0
20
-7.5
11
277.0
21
202.5
12
0.0
22
0.0
32
0.0
14
25.7
24
19.5
34
0.0
15
231.3
25
175.5
35
0.0
146
0.0
13
0.0
23
0.0
33
0.0
16
1.0
26
0.0
36
0.0
17
0.0
27
1.0
37
0.0
76
0
330
1C
0
LAYOUT
5
43
330
41
100
AcDbPlotSettings
1

2
none_device
4
ISO_A4_(210.00_x_297.00_MM)
6

40
7.5
41
20.0
42
7.5
43
20.0
44
210.0
45
297.0
46
0.0
47
0.0
48
0.0
49
0.0
140
0.0
141
0.0
142
1.0
143
1.0
70
688
72
1
73
1
74
1
7

75
0
76
0
77
2
78
300
147
1.0
148
0.0
149
0.0
100
AcDbLayout
1
Layout1
71
1
10
-20.0
20
-7.5
11
277.0
21
202.5
12
0.0
22
0.0
32
0.0
14
25.7
24
19.5
34
0.0
15
231.3
25
175.5
35
0.0
146
0.0
13
0.0
23
0.0
33
0.0
16
1.0
26
0.0
36
0.0
17
0.0
27
1.0
37
0.0
76
0
330
3E
0
MLINESTYLE
5
1B
330
B
100
AcDbMlineStyle
2
Standard
70
0
3

62
256
51
90.0
52
90.0
71
2
49
0.5
62
256
6
ByLayer
49
-0.5
62
256
6
ByLayer
0
RASTERVARIABLES
5
21
330
E
100
AcDbRasterVariables
90
0
70
1
71
1
72
0
0
ENDSEC
0
EOF
