999
DXF file generated by netDxf https://github.com/haplokuon/netDxf, Copyright(C) Daniel Carvajal, Licensed under MIT
0
SECTION
2
HEADER
9
$ACADVER
1
AC1015
9
$DWGCODEPAGE
3
ANSI_1252
9
$HANDSEED
5
42
9
$ANGBASE
50
0.0
9
$ANGDIR
70
0
9
$ATTMODE
70
1
9
$AUNITS
70
0
9
$AUPREC
70
0
9
$CECOLOR
62
256
9
$CELTSCALE
40
1.0
9
$CELTYPE
6
ByLayer
9
$CELWEIGHT
370
-1
9
$CLAYER
8
0
9
$CMLJUST
70
0
9
$CMLSCALE
40
20.0
9
$CMLSTYLE
2
Standard
9
$DIMSTYLE
2
Standard
9
$TEXTSIZE
40
2.5
9
$TEXTSTYLE
7
Standard
9
$LUNITS
70
2
9
$LUPREC
70
4
9
$MIRRTEXT
70
0
9
$EXTNAMES
290
1
9
$INSBASE
10
0.0
20
0.0
30
0.0
9
$INSUNITS
70
0
9
$LTSCALE
40
1.0
9
$LWDISPLAY
290
0
9
$PDMODE
70
0
9
$PDSIZE
40
0.0
9
$PLINEGEN
70
0
9
$PSLTSCALE
70
1
9
$SPLINESEGS
70
8
9
$SURFU
70
6
9
$SURFV
70
6
9
$TDCREATE
40
2460823.48374418
9
$TDUCREATE
40
2460823.15041084
9
$TDUPDATE
40
2460823.48374418
9
$TDUUPDATE
40
2460823.15041084
9
$TDINDWG
40
0.0
9
$UCSORG
10
0.0
20
0.0
30
0.0
9
$UCSXDIR
10
1.0
20
0.0
30
0.0
9
$UCSYDIR
10
0.0
20
1.0
30
0.0
9
$DIMADEC
70
0
9
$DIMALT
70
0
9
$DIMALTD
70
2
9
$DIMALTF
40
25.4
9
$DIMALTRND
40
0.0
9
$DIMALTTD
70
2
9
$DIMALTTZ
70
0
9
$DIMALTU
70
2
9
$DIMALTZ
70
0
9
$DIMAPOST
1

9
$DIMATFIT
70
3
9
$DIMAUNIT
70
0
9
$DIMASZ
40
0.18
9
$DIMAZIN
70
0
9
$DIMSAH
70
0
9
$DIMBLK
1

9
$DIMLDRBLK
1

9
$DIMCEN
40
0.09
9
$DIMCLRD
70
0
9
$DIMCLRE
70
0
9
$DIMCLRT
70
0
9
$DIMDEC
70
4
9
$DIMDLE
40
0.0
9
$DIMDLI
40
0.38
9
$DIMDSEP
70
46
9
$DIMEXE
40
0.18
9
$DIMEXO
40
0.0625
9
$DIMFXLON
70
0
9
$DIMFXL
40
1.0
9
$DIMGAP
40
0.09
9
$DIMJUST
70
0
9
$DIMLFAC
40
1.0
9
$DIMLUNIT
70
2
9
$DIMLWD
70
-2
9
$DIMLWE
70
-2
9
$DIMPOST
1

9
$DIMRND
40
0.0
9
$DIMSCALE
40
1.0
9
$DIMSD1
70
0
9
$DIMSD2
70
0
9
$DIMSE1
70
0
9
$DIMSE2
70
0
9
$DIMSOXD
70
0
9
$DIMTAD
70
0
9
$DIMTDEC
70
4
9
$DIMTFAC
40
1.0
9
$DIMTIH
70
0
9
$DIMTIX
70
0
9
$DIMTM
40
0.0
9
$DIMTMOVE
70
0
9
$DIMTOFL
70
0
9
$DIMTOH
70
0
9
$DIMTOL
70
0
9
$DIMLIM
70
0
9
$DIMTOLJ
70
1
9
$DIMTP
40
0.0
9
$DIMTXT
40
0.18
9
$DIMTXTDIRECTION
70
0
9
$DIMTZIN
70
0
9
$DIMZIN
70
0
9
$DIMFRAC
70
0
9
$DIMLTYPE
6
ByBlock
9
$DIMLTEX1
6
ByBlock
9
$DIMLTEX2
6
ByBlock
0
ENDSEC
0
SECTION
2
CLASSES
0
CLASS
1
RASTERVARIABLES
2
AcDbRasterVariables
3
ISM
90
0
280
0
281
0
0
ENDSEC
0
SECTION
2
TABLES
0
TABLE
2
APPID
5
4
330
0
100
AcDbSymbolTable
70
5
0
APPID
5
19
330
4
100
AcDbSymbolTableRecord
100
AcDbRegAppTableRecord
2
ACAD
70
0
0
APPID
5
3C
330
4
100
AcDbSymbolTableRecord
100
AcDbRegAppTableRecord
2
AcCmTransparency
70
0
0
APPID
5
3D
330
4
100
AcDbSymbolTableRecord
100
AcDbRegAppTableRecord
2
AcAecLayerStandard
70
0
0
APPID
5
3E
330
4
100
AcDbSymbolTableRecord
100
AcDbRegAppTableRecord
2
GradientColor1ACI
70
0
0
APPID
5
3F
330
4
100
AcDbSymbolTableRecord
100
AcDbRegAppTableRecord
2
GradientColor2ACI
70
0
0
ENDTAB
0
TABLE
2
VPORT
5
1
330
0
100
AcDbSymbolTable
70
1
0
VPORT
5
2
330
1
100
AcDbSymbolTableRecord
100
AcDbViewportTableRecord
2
*Active
70
0
10
0.0
20
0.0
11
1.0
21
1.0
12
0.0
22
0.0
13
0.0
23
0.0
14
0.5
24
0.5
15
10.0
25
10.0
16
0.0
26
0.0
36
1.0
17
0.0
27
0.0
37
0.0
40
10.0
41
1.0
75
0
76
1
0
ENDTAB
0
TABLE
2
LTYPE
5
7
330
0
100
AcDbSymbolTable
70
3
0
LTYPE
5
15
330
7
100
AcDbSymbolTableRecord
100
AcDbLinetypeTableRecord
2
Continuous
70
0
3
Solid line
72
65
73
0
40
0.0
0
LTYPE
5
16
330
7
100
AcDbSymbolTableRecord
100
AcDbLinetypeTableRecord
2
ByLayer
70
0
3

72
65
73
0
40
0.0
0
LTYPE
5
17
330
7
100
AcDbSymbolTableRecord
100
AcDbLinetypeTableRecord
2
ByBlock
70
0
3

72
65
73
0
40
0.0
0
ENDTAB
0
TABLE
2
LAYER
5
5
102
{ACAD_XDICTIONARY
360
6
102
}
330
0
100
AcDbSymbolTable
70
1
0
LAYER
5
14
330
5
100
AcDbSymbolTableRecord
100
AcDbLayerTableRecord
2
0
70
0
62
7
6
Continuous
290
1
370
-3
390
0
0
ENDTAB
0
TABLE
2
STYLE
5
8
330
0
100
AcDbSymbolTable
70
1
0
STYLE
5
18
330
8
100
AcDbSymbolTableRecord
100
AcDbTextStyleTableRecord
2
Standard
3
simplex.shx
70
0
71
0
40
0.0
41
1.0
42
0.0
50
0.0
0
ENDTAB
0
TABLE
2
DIMSTYLE
5
A
330
0
100
AcDbSymbolTable
70
1
100
AcDbDimStyleTable
0
DIMSTYLE
105
1A
330
A
100
AcDbSymbolTableRecord
100
AcDbDimStyleTableRecord
2
Standard
3

4

40
1.0
41
0.18
42
0.0625
43
0.38
44
0.18
45
0.0
46
0.0
47
0.0
48
0.0
49
1.0
70
0
71
0
72
0
73
0
74
0
75
0
76
0
77
0
78
0
79
0
140
0.18
141
0.09
143
25.4
144
1.0
146
1.0
147
0.09
148
0.0
170
0
171
2
172
0
174
0
175
0
176
0
177
0
178
0
179
0
271
4
272
4
273
2
274
2
275
0
276
0
277
2
278
46
279
0
280
0
281
0
282
0
283
1
284
0
285
0
286
0
289
3
290
0
294
0
340
18
173
0
345
17
346
17
347
17
371
-2
372
-2
0
ENDTAB
0
TABLE
2
VIEW
5
3
330
0
100
AcDbSymbolTable
70
0
0
ENDTAB
0
TABLE
2
UCS
5
C
330
0
100
AcDbSymbolTable
70
0
0
ENDTAB
0
TABLE
2
BLOCK_RECORD
5
D
330
0
100
AcDbSymbolTable
70
2
0
BLOCK_RECORD
5
1C
330
D
100
AcDbSymbolTableRecord
100
AcDbBlockTableRecord
2
*Model_Space
340
20
0
BLOCK_RECORD
5
36
330
D
100
AcDbSymbolTableRecord
100
AcDbBlockTableRecord
2
*Paper_Space
340
3B
0
ENDTAB
0
ENDSEC
0
SECTION
2
BLOCKS
0
BLOCK
5
1E
330
1C
100
AcDbEntity
67
0
8
0
100
AcDbBlockBegin
2
*Model_Space
70
0
10
0.0
20
0.0
30
0.0
3
*Model_Space
4

0
ENDBLK
5
1D
330
1C
100
AcDbEntity
8
0
100
AcDbBlockEnd
0
BLOCK
5
38
330
36
100
AcDbEntity
67
1
8
0
100
AcDbBlockBegin
2
*Paper_Space
70
0
10
0.0
20
0.0
30
0.0
3
*Paper_Space
4

0
ENDBLK
5
37
330
36
100
AcDbEntity
8
0
100
AcDbBlockEnd
0
ENDSEC
0
SECTION
2
ENTITIES
0
LWPOLYLINE
5
22
330
1C
100
AcDbEntity
67
0
8
0
62
256
6
ByLayer
370
-1
48
1.0
60
0
100
AcDbPolyline
90
27
70
1
38
0.0
39
0.0
10
65.4897994995117
20
66.7578964233398
40
0.0
41
0.0
42
0.0
10
65.9489974975586
20
66.5037994384766
40
0.0
41
0.0
42
0.0
10
65.9918975830078
20
66.4772033691406
40
0.0
41
0.0
42
0.0
10
66.0072021484375
20
66.4655990600586
40
0.0
41
0.0
42
0.0
10
66.4926986694336
20
66.1386032104492
40
0.0
41
0.0
42
0.0
10
66.6474990844727
20
66.0045013427734
40
0.0
41
0.0
42
0.0
10
66.9960021972656
20
65.6376037597656
40
0.0
41
0.0
42
0.0
10
67.0977020263672
20
65.4999008178711
40
0.0
41
0.0
42
0.0
10
67.4384002685547
20
65.0009994506836
40
0.0
41
0.0
42
0.0
10
67.4501037597656
20
65.0009994506836
40
0.0
41
0.0
42
0.0
10
67.4499969482422
20
65.0139007568359
40
0.0
41
0.0
42
0.0
10
67.4188995361328
20
65.0634002685547
40
0.0
41
0.0
42
0.0
10
67.0952987670898
20
65.5365982055664
40
0.0
41
0.0
42
0.0
10
67.0037994384766
20
65.6603012084961
40
0.0
41
0.0
42
0.0
10
66.6996002197266
20
65.9797973632812
40
0.0
41
0.0
42
0.0
10
66.6781997680664
20
66.0058975219727
40
0.0
41
0.0
42
0.0
10
66.6460037231445
20
66.0391006469727
40
0.0
41
0.0
42
0.0
10
66.5071029663086
20
66.1594009399414
40
0.0
41
0.0
42
0.0
10
66.0625991821289
20
66.4586029052734
40
0.0
41
0.0
42
0.0
10
66.0080032348633
20
66.5002975463867
40
0.0
41
0.0
42
0.0
10
65.9712982177734
20
66.5233001708984
40
0.0
41
0.0
42
0.0
10
65.5643997192383
20
66.7477035522461
40
0.0
41
0.0
42
0.0
10
65.5095977783203
20
66.7806015014648
40
0.0
41
0.0
42
0.0
10
65.0148010253906
20
67.0393981933594
40
0.0
41
0.0
42
0.0
10
65.0009994506836
20
67.0393981933594
40
0.0
41
0.0
42
0.0
10
65.0009002685547
20
67.0126037597656
40
0.0
41
0.0
42
0.0
10
65.4897994995117
20
66.7578964233398
40
0.0
41
0.0
42
0.0
210
0.0
220
0.0
230
1.0
0
LWPOLYLINE
5
23
330
1C
100
AcDbEntity
67
0
8
0
62
256
6
ByLayer
370
-1
48
1.0
60
0
100
AcDbPolyline
90
27
70
1
38
0.0
39
0.0
10
65.0009994506836
20
82.5613021850586
40
0.0
41
0.0
42
0.0
10
65.0009994506836
20
82.5497970581055
40
0.0
41
0.0
42
0.0
10
65.0134963989258
20
82.5496978759766
40
0.0
41
0.0
42
0.0
10
65.4533004760742
20
82.850700378418
40
0.0
41
0.0
42
0.0
10
65.5367965698242
20
82.9047012329102
40
0.0
41
0.0
42
0.0
10
65.6603012084961
20
82.9961013793945
40
0.0
41
0.0
42
0.0
10
65.9797973632812
20
83.3001022338867
40
0.0
41
0.0
42
0.0
10
66.0058975219727
20
83.3215026855469
40
0.0
41
0.0
42
0.0
10
66.0391998291016
20
83.3537979125977
40
0.0
41
0.0
42
0.0
10
66.1594009399414
20
83.4927978515625
40
0.0
41
0.0
42
0.0
10
66.4586029052734
20
83.9372024536133
40
0.0
41
0.0
42
0.0
10
66.5003967285156
20
83.9918975830078
40
0.0
41
0.0
42
0.0
10
66.5233993530273
20
84.0286026000977
40
0.0
41
0.0
42
0.0
10
66.747802734375
20
84.4354019165039
40
0.0
41
0.0
42
0.0
10
66.7807998657227
20
84.4901962280273
40
0.0
41
0.0
42
0.0
10
67.0393981933594
20
84.9848022460938
40
0.0
41
0.0
42
0.0
10
67.0393981933594
20
84.9990005493164
40
0.0
41
0.0
42
0.0
10
67.0126037597656
20
84.9989013671875
40
0.0
41
0.0
42
0.0
10
66.7578964233398
20
84.5100021362305
40
0.0
41
0.0
42
0.0
10
66.5038986206055
20
84.0506973266602
40
0.0
41
0.0
42
0.0
10
66.4773025512695
20
84.0080032348633
40
0.0
41
0.0
42
0.0
10
66.4656982421875
20
83.9926986694336
40
0.0
41
0.0
42
0.0
10
66.1386032104492
20
83.5072021484375
40
0.0
41
0.0
42
0.0
10
66.0046005249023
20
83.3522033691406
40
0.0
41
0.0
42
0.0
10
65.6376037597656
20
83.0038986206055
40
0.0
41
0.0
42
0.0
10
65.4999008178711
20
82.9020004272461
40
0.0
41
0.0
42
0.0
10
65.0009994506836
20
82.5613021850586
40
0.0
41
0.0
42
0.0
210
0.0
220
0.0
230
1.0
0
LWPOLYLINE
5
24
330
1C
100
AcDbEntity
67
0
8
0
62
256
6
ByLayer
370
-1
48
1.0
60
0
100
AcDbPolyline
90
83
70
1
38
0.0
39
0.0
10
65.2825012207031
20
73.9918975830078
40
0.0
41
0.0
42
0.0
10
65.4962997436523
20
73.7424011230469
40
0.0
41
0.0
42
0.0
10
65.508903503418
20
73.7256011962891
40
0.0
41
0.0
42
0.0
10
65.7310028076172
20
73.508903503418
40
0.0
41
0.0
42
0.0
10
65.7465972900391
20
73.4969024658203
40
0.0
41
0.0
42
0.0
10
65.9924011230469
20
73.3285980224609
40
0.0
41
0.0
42
0.0
10
66.0059967041016
20
73.3178024291992
40
0.0
41
0.0
42
0.0
10
66.4858016967773
20
73.1056976318359
40
0.0
41
0.0
42
0.0
10
66.9717025756836
20
73.0329971313477
40
0.0
41
0.0
42
0.0
10
66.9852981567383
20
73.0257034301758
40
0.0
41
0.0
42
0.0
10
67.0186004638672
20
73.0255966186523
40
0.0
41
0.0
42
0.0
10
67.4730987548828
20
73.0830993652344
40
0.0
41
0.0
42
0.0
10
67.4832000732422
20
73.0798034667969
40
0.0
41
0.0
42
0.0
10
67.5166015625
20
73.0799026489258
40
0.0
41
0.0
42
0.0
10
67.9524993896484
20
73.2231979370117
40
0.0
41
0.0
42
0.0
10
67.9811019897461
20
73.220100402832
40
0.0
41
0.0
42
0.0
10
68.0192031860352
20
73.2200012207031
40
0.0
41
0.0
42
0.0
10
68.0699996948242
20
73.2236022949219
40
0.0
41
0.0
42
0.0
10
68.5137023925781
20
73.4106979370117
40
0.0
41
0.0
42
0.0
10
68.568603515625
20
73.4222030639648
40
0.0
41
0.0
42
0.0
10
68.7462997436523
20
73.499397277832
40
0.0
41
0.0
42
0.0
10
69.0130004882812
20
73.6005020141602
40
0.0
41
0.0
42
0.0
10
69.0955963134766
20
73.6272964477539
40
0.0
41
0.0
42
0.0
10
69.5139007568359
20
73.7422027587891
40
0.0
41
0.0
42
0.0
10
69.5697021484375
20
73.7608032226562
40
0.0
41
0.0
42
0.0
10
70.0165023803711
20
73.8431015014648
40
0.0
41
0.0
42
0.0
10
70.4598007202148
20
73.9102020263672
40
0.0
41
0.0
42
0.0
10
70.5121002197266
20
73.9289016723633
40
0.0
41
0.0
42
0.0
10
70.5682983398438
20
73.9540023803711
40
0.0
41
0.0
42
0.0
10
70.6284027099609
20
73.9674987792969
40
0.0
41
0.0
42
0.0
10
70.7967987060547
20
74.0005035400391
40
0.0
41
0.0
42
0.0
10
71.013801574707
20
74.0395965576172
40
0.0
41
0.0
42
0.0
10
71.0682983398438
20
74.0634002685547
40
0.0
41
0.0
42
0.0
10
71.5147018432617
20
74.1669006347656
40
0.0
41
0.0
42
0.0
10
71.9974975585938
20
74.3057022094727
40
0.0
41
0.0
42
0.0
10
72.0178985595703
20
74.3153991699219
40
0.0
41
0.0
42
0.0
10
72.5012969970703
20
74.4987030029297
40
0.0
41
0.0
42
0.0
10
72.9942016601562
20
74.8303985595703
40
0.0
41
0.0
42
0.0
10
73.0115966796875
20
74.8395004272461
40
0.0
41
0.0
42
0.0
10
73.4544982910156
20
74.9947967529297
40
0.0
41
0.0
42
0.0
10
73.4542999267578
20
75.0029983520508
40
0.0
41
0.0
42
0.0
10
73.0147018432617
20
75.100700378418
40
0.0
41
0.0
42
0.0
10
72.5126037597656
20
75.2500991821289
40
0.0
41
0.0
42
0.0
10
72.4572982788086
20
75.2750015258789
40
0.0
41
0.0
42
0.0
10
72.013801574707
20
75.421501159668
40
0.0
41
0.0
42
0.0
10
71.7453994750977
20
75.4962997436523
40
0.0
41
0.0
42
0.0
10
71.6902008056641
20
75.5222015380859
40
0.0
41
0.0
42
0.0
10
71.5131988525391
20
75.5748977661133
40
0.0
41
0.0
42
0.0
10
71.4595031738281
20
75.5952987670898
40
0.0
41
0.0
42
0.0
10
71.0174026489258
20
75.6651000976562
40
0.0
41
0.0
42
0.0
10
70.5705032348633
20
75.7025985717773
40
0.0
41
0.0
42
0.0
10
70.5142974853516
20
75.7220993041992
40
0.0
41
0.0
42
0.0
10
70.4182968139648
20
75.7425003051758
40
0.0
41
0.0
42
0.0
10
70.0173034667969
20
75.7677001953125
40
0.0
41
0.0
42
0.0
10
69.8709030151367
20
75.7949981689453
40
0.0
41
0.0
42
0.0
10
69.5167007446289
20
75.8293991088867
40
0.0
41
0.0
42
0.0
10
69.2528991699219
20
75.8855972290039
40
0.0
41
0.0
42
0.0
10
69.0151977539062
20
75.9287033081055
40
0.0
41
0.0
42
0.0
10
68.5710983276367
20
76.0559997558594
40
0.0
41
0.0
42
0.0
10
68.5156021118164
20
76.0684967041016
40
0.0
41
0.0
42
0.0
10
68.4294967651367
20
76.0850982666016
40
0.0
41
0.0
42
0.0
10
68.4032974243164
20
76.0923004150391
40
0.0
41
0.0
42
0.0
10
68.0157012939453
20
76.2240982055664
40
0.0
41
0.0
42
0.0
10
67.9120025634766
20
76.2319030761719
40
0.0
41
0.0
42
0.0
10
67.5170974731445
20
76.3421020507812
40
0.0
41
0.0
42
0.0
10
67.4835968017578
20
76.3420028686523
40
0.0
41
0.0
42
0.0
10
67.4365997314453
20
76.3254013061523
40
0.0
41
0.0
42
0.0
10
67.0188980102539
20
76.3691024780273
40
0.0
41
0.0
42
0.0
10
66.9856033325195
20
76.3690032958984
40
0.0
41
0.0
42
0.0
10
66.9447021484375
20
76.3451995849609
40
0.0
41
0.0
42
0.0
10
66.4860000610352
20
76.2729034423828
40
0.0
41
0.0
42
0.0
10
66.006103515625
20
76.0569000244141
40
0.0
41
0.0
42
0.0
10
65.9925994873047
20
76.0458984375
40
0.0
41
0.0
42
0.0
10
65.9312973022461
20
76.0037002563477
40
0.0
41
0.0
42
0.0
10
65.8675003051758
20
75.9413986206055
40
0.0
41
0.0
42
0.0
10
65.4945983886719
20
75.6104965209961
40
0.0
41
0.0
42
0.0
10
65.3973999023438
20
75.5075988769531
40
0.0
41
0.0
42
0.0
10
65.165397644043
20
75.0731964111328
40
0.0
41
0.0
42
0.0
10
65.1352005004883
20
75.0140991210938
40
0.0
41
0.0
42
0.0
10
65.0942001342773
20
74.5401000976562
40
0.0
41
0.0
42
0.0
10
65.0948028564453
20
74.4839019775391
40
0.0
41
0.0
42
0.0
10
65.2723999023438
20
74.010498046875
40
0.0
41
0.0
42
0.0
10
65.2825012207031
20
73.9918975830078
40
0.0
41
0.0
42
0.0
210
0.0
220
0.0
230
1.0
0
LWPOLYLINE
5
25
330
1C
100
AcDbEntity
67
0
8
0
62
256
6
ByLayer
370
-1
48
1.0
60
0
100
AcDbPolyline
90
78
70
1
38
0.0
39
0.0
10
65.1766967773438
20
74.9859008789062
40
0.0
41
0.0
42
0.0
10
65.2962036132812
20
75.220703125
40
0.0
41
0.0
42
0.0
10
65.4412994384766
20
75.492301940918
40
0.0
41
0.0
42
0.0
10
65.5053024291992
20
75.5600967407227
40
0.0
41
0.0
42
0.0
10
65.7353973388672
20
75.7642974853516
40
0.0
41
0.0
42
0.0
10
65.9197006225586
20
75.9397964477539
40
0.0
41
0.0
42
0.0
10
65.9733963012695
20
75.9960021972656
40
0.0
41
0.0
42
0.0
10
66.0074005126953
20
76.0193023681641
40
0.0
41
0.0
42
0.0
10
66.0637969970703
20
76.0654983520508
40
0.0
41
0.0
42
0.0
10
66.5139007568359
20
76.2682037353516
40
0.0
41
0.0
42
0.0
10
66.9604034423828
20
76.3384017944336
40
0.0
41
0.0
42
0.0
10
66.996696472168
20
76.3490982055664
40
0.0
41
0.0
42
0.0
10
67.0093002319336
20
76.356201171875
40
0.0
41
0.0
42
0.0
10
67.4661026000977
20
76.3086013793945
40
0.0
41
0.0
42
0.0
10
67.5018005371094
20
76.3086013793945
40
0.0
41
0.0
42
0.0
10
67.9551010131836
20
76.1822967529297
40
0.0
41
0.0
42
0.0
10
67.9841995239258
20
76.1800994873047
40
0.0
41
0.0
42
0.0
10
68.4395980834961
20
76.0252990722656
40
0.0
41
0.0
42
0.0
10
68.4965972900391
20
76.0114974975586
40
0.0
41
0.0
42
0.0
10
68.9847030639648
20
75.8724975585938
40
0.0
41
0.0
42
0.0
10
69.4123001098633
20
75.7951965332031
40
0.0
41
0.0
42
0.0
10
69.4832000732422
20
75.7800979614258
40
0.0
41
0.0
42
0.0
10
69.943000793457
20
75.7354965209961
40
0.0
41
0.0
42
0.0
10
69.9824981689453
20
75.7282028198242
40
0.0
41
0.0
42
0.0
10
70.4558029174805
20
75.6984024047852
40
0.0
41
0.0
42
0.0
10
70.4856033325195
20
75.6921005249023
40
0.0
41
0.0
42
0.0
10
70.499397277832
20
75.6872024536133
40
0.0
41
0.0
42
0.0
10
70.9824981689453
20
75.6467971801758
40
0.0
41
0.0
42
0.0
10
71.4703979492188
20
75.5697021484375
40
0.0
41
0.0
42
0.0
10
71.486701965332
20
75.5634994506836
40
0.0
41
0.0
42
0.0
10
71.6811981201172
20
75.505500793457
40
0.0
41
0.0
42
0.0
10
71.6960983276367
20
75.4985961914062
40
0.0
41
0.0
42
0.0
10
71.986701965332
20
75.4176025390625
40
0.0
41
0.0
42
0.0
10
72.4545974731445
20
75.2630996704102
40
0.0
41
0.0
42
0.0
10
72.4877014160156
20
75.2461013793945
40
0.0
41
0.0
42
0.0
10
72.9315032958984
20
75.1150970458984
40
0.0
41
0.0
42
0.0
10
72.9859008789062
20
75.0951995849609
40
0.0
41
0.0
42
0.0
10
73.378303527832
20
75.0081024169922
40
0.0
41
0.0
42
0.0
10
73.3795013427734
20
74.9885025024414
40
0.0
41
0.0
42
0.0
10
72.9882965087891
20
74.8513031005859
40
0.0
41
0.0
42
0.0
10
72.9356994628906
20
74.8240966796875
40
0.0
41
0.0
42
0.0
10
72.4918975830078
20
74.5258026123047
40
0.0
41
0.0
42
0.0
10
72.4579010009766
20
74.5012969970703
40
0.0
41
0.0
42
0.0
10
72.0117034912109
20
74.3320999145508
40
0.0
41
0.0
42
0.0
10
71.9891967773438
20
74.3199996948242
40
0.0
41
0.0
42
0.0
10
71.9337005615234
20
74.2951965332031
40
0.0
41
0.0
42
0.0
10
71.4851989746094
20
74.1664962768555
40
0.0
41
0.0
42
0.0
10
71.0016021728516
20
74.0542984008789
40
0.0
41
0.0
42
0.0
10
70.9860992431641
20
74.0475997924805
40
0.0
41
0.0
42
0.0
10
70.7182006835938
20
73.9991989135742
40
0.0
41
0.0
42
0.0
10
70.5011978149414
20
73.956298828125
40
0.0
41
0.0
42
0.0
10
70.4704971313477
20
73.9439010620117
40
0.0
41
0.0
42
0.0
10
69.9833984375
20
73.8702011108398
40
0.0
41
0.0
42
0.0
10
69.4997024536133
20
73.7809982299805
40
0.0
41
0.0
42
0.0
10
69.0082015991211
20
73.6452026367188
40
0.0
41
0.0
42
0.0
10
68.9869995117188
20
73.6381988525391
40
0.0
41
0.0
42
0.0
10
68.6237030029297
20
73.5005035400391
40
0.0
41
0.0
42
0.0
10
68.5014038085938
20
73.4476013183594
40
0.0
41
0.0
42
0.0
10
68.4862976074219
20
73.4443969726562
40
0.0
41
0.0
42
0.0
10
68.000602722168
20
73.2396011352539
40
0.0
41
0.0
42
0.0
10
67.9682998657227
20
73.2397003173828
40
0.0
41
0.0
42
0.0
10
67.4999008178711
20
73.0856018066406
40
0.0
41
0.0
42
0.0
10
67.4621963500977
20
73.0958023071289
40
0.0
41
0.0
42
0.0
10
67.4263000488281
20
73.095703125
40
0.0
41
0.0
42
0.0
10
67.0082015991211
20
73.0428009033203
40
0.0
41
0.0
42
0.0
10
66.9581985473633
20
73.0700988769531
40
0.0
41
0.0
42
0.0
10
66.5139999389648
20
73.1364974975586
40
0.0
41
0.0
42
0.0
10
66.0639038085938
20
73.3354034423828
40
0.0
41
0.0
42
0.0
10
66.0074005126953
20
73.3808975219727
40
0.0
41
0.0
42
0.0
10
65.8292007446289
20
73.5028991699219
40
0.0
41
0.0
42
0.0
10
65.7649993896484
20
73.5521011352539
40
0.0
41
0.0
42
0.0
10
65.5524978637695
20
73.7600021362305
40
0.0
41
0.0
42
0.0
10
65.5035018920898
20
73.8247985839844
40
0.0
41
0.0
42
0.0
10
65.3464965820312
20
74.0078964233398
40
0.0
41
0.0
42
0.0
10
65.3018035888672
20
74.0914001464844
40
0.0
41
0.0
42
0.0
10
65.1426010131836
20
74.5158004760742
40
0.0
41
0.0
42
0.0
10
65.1405029296875
20
74.5693969726562
40
0.0
41
0.0
42
0.0
10
65.1766967773438
20
74.9859008789062
40
0.0
41
0.0
42
0.0
210
0.0
220
0.0
230
1.0
0
LWPOLYLINE
5
26
330
1C
100
AcDbEntity
67
0
8
0
62
256
6
ByLayer
370
-1
48
1.0
60
0
100
AcDbPolyline
90
85
70
1
38
0.0
39
0.0
10
67.5026016235352
20
79.9851989746094
40
0.0
41
0.0
42
0.0
10
67.5142974853516
20
79.9496002197266
40
0.0
41
0.0
42
0.0
10
67.7566986083984
20
79.4917984008789
40
0.0
41
0.0
42
0.0
10
67.994499206543
20
79.2154006958008
40
0.0
41
0.0
42
0.0
10
68.252197265625
20
79.0136032104492
40
0.0
41
0.0
42
0.0
10
68.2584991455078
20
79.0068969726562
40
0.0
41
0.0
42
0.0
10
68.2662963867188
20
78.9906005859375
40
0.0
41
0.0
42
0.0
10
68.2879028320312
20
78.9605026245117
40
0.0
41
0.0
42
0.0
10
68.4896011352539
20
78.8393020629883
40
0.0
41
0.0
42
0.0
10
68.9358978271484
20
78.6427001953125
40
0.0
41
0.0
42
0.0
10
68.9908981323242
20
78.5982971191406
40
0.0
41
0.0
42
0.0
10
69.2172012329102
20
78.4992980957031
40
0.0
41
0.0
42
0.0
10
69.3460006713867
20
78.4477996826172
40
0.0
41
0.0
42
0.0
10
69.4893035888672
20
78.372802734375
40
0.0
41
0.0
42
0.0
10
69.9901962280273
20
78.1324996948242
40
0.0
41
0.0
42
0.0
10
70.196403503418
20
77.9977035522461
40
0.0
41
0.0
42
0.0
10
70.3435974121094
20
77.9095001220703
40
0.0
41
0.0
42
0.0
10
70.4912033081055
20
77.8270034790039
40
0.0
41
0.0
42
0.0
10
70.9488983154297
20
77.4944000244141
40
0.0
41
0.0
42
0.0
10
70.9900970458984
20
77.4766998291016
40
0.0
41
0.0
42
0.0
10
71.4346008300781
20
77.1718978881836
40
0.0
41
0.0
42
0.0
10
71.4898986816406
20
77.1519012451172
40
0.0
41
0.0
42
0.0
10
71.693000793457
20
77.0046005249023
40
0.0
41
0.0
42
0.0
10
71.7414016723633
20
76.9853973388672
40
0.0
41
0.0
42
0.0
10
71.9894027709961
20
76.8450012207031
40
0.0
41
0.0
42
0.0
10
72.4726028442383
20
76.6164016723633
40
0.0
41
0.0
42
0.0
10
72.4884033203125
20
76.6115036010742
40
0.0
41
0.0
42
0.0
10
72.6738967895508
20
76.5048980712891
40
0.0
41
0.0
42
0.0
10
72.9859008789062
20
76.3823013305664
40
0.0
41
0.0
42
0.0
10
73.4685974121094
20
76.2744979858398
40
0.0
41
0.0
42
0.0
10
73.4813003540039
20
76.2729034423828
40
0.0
41
0.0
42
0.0
10
73.50830078125
20
76.2729034423828
40
0.0
41
0.0
42
0.0
10
73.6323013305664
20
76.4856033325195
40
0.0
41
0.0
42
0.0
10
73.6322021484375
20
76.5169982910156
40
0.0
41
0.0
42
0.0
10
73.5010986328125
20
76.83740234375
40
0.0
41
0.0
42
0.0
10
73.3993988037109
20
77.0015029907227
40
0.0
41
0.0
42
0.0
10
73.3729019165039
20
77.0661010742188
40
0.0
41
0.0
42
0.0
10
73.1438980102539
20
77.5112991333008
40
0.0
41
0.0
42
0.0
10
73.1237030029297
20
77.5625991821289
40
0.0
41
0.0
42
0.0
10
73.0022964477539
20
77.7757034301758
40
0.0
41
0.0
42
0.0
10
72.8289031982422
20
78.0062026977539
40
0.0
41
0.0
42
0.0
10
72.8046035766602
20
78.0645980834961
40
0.0
41
0.0
42
0.0
10
72.5037002563477
20
78.4785995483398
40
0.0
41
0.0
42
0.0
10
72.4766006469727
20
78.5067977905273
40
0.0
41
0.0
42
0.0
10
72.4365997314453
20
78.5683975219727
40
0.0
41
0.0
42
0.0
10
72.0671997070312
20
79.0083999633789
40
0.0
41
0.0
42
0.0
10
72.038200378418
20
79.0690002441406
40
0.0
41
0.0
42
0.0
10
71.6817016601562
20
79.5075988769531
40
0.0
41
0.0
42
0.0
10
71.5024032592773
20
79.7906036376953
40
0.0
41
0.0
42
0.0
10
71.3547973632812
20
80.0086975097656
40
0.0
41
0.0
42
0.0
10
71.3051986694336
20
80.0931015014648
40
0.0
41
0.0
42
0.0
10
71.0873031616211
20
80.5098037719727
40
0.0
41
0.0
42
0.0
10
71.0576019287109
20
80.5606994628906
40
0.0
41
0.0
42
0.0
10
71.0515975952148
20
80.568000793457
40
0.0
41
0.0
42
0.0
10
71.0017013549805
20
80.644401550293
40
0.0
41
0.0
42
0.0
10
70.8114013671875
20
81.0077972412109
40
0.0
41
0.0
42
0.0
10
70.7730026245117
20
81.0506973266602
40
0.0
41
0.0
42
0.0
10
70.5596008300781
20
81.3878021240234
40
0.0
41
0.0
42
0.0
10
70.5444030761719
20
81.3977966308594
40
0.0
41
0.0
42
0.0
10
70.5046997070312
20
81.4346008300781
40
0.0
41
0.0
42
0.0
10
70.4460983276367
20
81.5038986206055
40
0.0
41
0.0
42
0.0
10
70.4182968139648
20
81.5220031738281
40
0.0
41
0.0
42
0.0
10
70.0643005371094
20
81.8258972167969
40
0.0
41
0.0
42
0.0
10
70.0150985717773
20
81.842399597168
40
0.0
41
0.0
42
0.0
10
69.9985961914062
20
81.8447036743164
40
0.0
41
0.0
42
0.0
10
69.6921997070312
20
81.997802734375
40
0.0
41
0.0
42
0.0
10
69.5142974853516
20
82.0670013427734
40
0.0
41
0.0
42
0.0
10
69.0534973144531
20
82.1468963623047
40
0.0
41
0.0
42
0.0
10
69.0190963745117
20
82.1500015258789
40
0.0
41
0.0
42
0.0
10
68.9804000854492
20
82.14990234375
40
0.0
41
0.0
42
0.0
10
68.5087966918945
20
82.1296997070312
40
0.0
41
0.0
42
0.0
10
68.4849014282227
20
82.1255035400391
40
0.0
41
0.0
42
0.0
10
68.0786972045898
20
82.0001983642578
40
0.0
41
0.0
42
0.0
10
68.0500030517578
20
81.9872970581055
40
0.0
41
0.0
42
0.0
10
68.0416030883789
20
81.9793014526367
40
0.0
41
0.0
42
0.0
10
67.9922027587891
20
81.9568023681641
40
0.0
41
0.0
42
0.0
10
67.5477981567383
20
81.5070037841797
40
0.0
41
0.0
42
0.0
10
67.5413970947266
20
81.4965972900391
40
0.0
41
0.0
42
0.0
10
67.5248031616211
20
81.4382019042969
40
0.0
41
0.0
42
0.0
10
67.4999008178711
20
81.3757019042969
40
0.0
41
0.0
42
0.0
10
67.3992004394531
20
81.0170974731445
40
0.0
41
0.0
42
0.0
10
67.3984985351562
20
80.594596862793
40
0.0
41
0.0
42
0.0
10
67.396598815918
20
80.4820022583008
40
0.0
41
0.0
42
0.0
10
67.4900970458984
20
80.0506973266602
40
0.0
41
0.0
42
0.0
10
67.5026016235352
20
79.9851989746094
40
0.0
41
0.0
42
0.0
210
0.0
220
0.0
230
1.0
0
LWPOLYLINE
5
27
330
1C
100
AcDbEntity
67
0
8
0
62
256
6
ByLayer
370
-1
48
1.0
60
0
100
AcDbPolyline
90
84
70
1
38
0.0
39
0.0
10
67.5
20
81.1788024902344
40
0.0
41
0.0
42
0.0
10
67.513298034668
20
81.2118988037109
40
0.0
41
0.0
42
0.0
10
67.5764999389648
20
81.4332962036133
40
0.0
41
0.0
42
0.0
10
67.6119003295898
20
81.4928970336914
40
0.0
41
0.0
42
0.0
10
68.007698059082
20
81.8935012817383
40
0.0
41
0.0
42
0.0
10
68.0513000488281
20
81.9132995605469
40
0.0
41
0.0
42
0.0
10
68.0821990966797
20
81.9425964355469
40
0.0
41
0.0
42
0.0
10
68.2083969116211
20
81.9996032714844
40
0.0
41
0.0
42
0.0
10
68.5149993896484
20
82.0940017700195
40
0.0
41
0.0
42
0.0
10
68.6153030395508
20
82.1119003295898
40
0.0
41
0.0
42
0.0
10
68.9937973022461
20
82.1281967163086
40
0.0
41
0.0
42
0.0
10
69.1156997680664
20
82.1176986694336
40
0.0
41
0.0
42
0.0
10
69.4854965209961
20
82.0534973144531
40
0.0
41
0.0
42
0.0
10
69.6541976928711
20
81.9886016845703
40
0.0
41
0.0
42
0.0
10
69.9311981201172
20
81.8503036499023
40
0.0
41
0.0
42
0.0
10
69.9845962524414
20
81.8427963256836
40
0.0
41
0.0
42
0.0
10
70.0065994262695
20
81.8358001708984
40
0.0
41
0.0
42
0.0
10
70.3945999145508
20
81.5026016235352
40
0.0
41
0.0
42
0.0
10
70.4049987792969
20
81.4956970214844
40
0.0
41
0.0
42
0.0
10
70.4947967529297
20
81.3892974853516
40
0.0
41
0.0
42
0.0
10
70.5109024047852
20
81.3758010864258
40
0.0
41
0.0
42
0.0
10
70.7459030151367
20
81.0045013427734
40
0.0
41
0.0
42
0.0
10
70.7572021484375
20
80.9921035766602
40
0.0
41
0.0
42
0.0
10
70.9980010986328
20
80.5319976806641
40
0.0
41
0.0
42
0.0
10
71.0128021240234
20
80.5098037719727
40
0.0
41
0.0
42
0.0
10
71.0239028930664
20
80.4898986816406
40
0.0
41
0.0
42
0.0
10
71.2734985351562
20
80.0128021240234
40
0.0
41
0.0
42
0.0
10
71.2861022949219
20
79.991096496582
40
0.0
41
0.0
42
0.0
10
71.4973983764648
20
79.6787033081055
40
0.0
41
0.0
42
0.0
10
71.6166000366211
20
79.4922027587891
40
0.0
41
0.0
42
0.0
10
72.0073013305664
20
79.0123977661133
40
0.0
41
0.0
42
0.0
10
72.0185012817383
20
78.9917984008789
40
0.0
41
0.0
42
0.0
10
72.423698425293
20
78.5091018676758
40
0.0
41
0.0
42
0.0
10
72.4340972900391
20
78.4929962158203
40
0.0
41
0.0
42
0.0
10
72.4960021972656
20
78.4284973144531
40
0.0
41
0.0
42
0.0
10
72.8034973144531
20
78.0052032470703
40
0.0
41
0.0
42
0.0
10
72.8100967407227
20
77.989501953125
40
0.0
41
0.0
42
0.0
10
72.9974975585938
20
77.7404022216797
40
0.0
41
0.0
42
0.0
10
73.1325988769531
20
77.5030975341797
40
0.0
41
0.0
42
0.0
10
73.138801574707
20
77.4877014160156
40
0.0
41
0.0
42
0.0
10
73.3808975219727
20
77.0170974731445
40
0.0
41
0.0
42
0.0
10
73.3917007446289
20
76.9878005981445
40
0.0
41
0.0
42
0.0
10
73.4051971435547
20
76.9576034545898
40
0.0
41
0.0
42
0.0
10
73.4987030029297
20
76.8067016601562
40
0.0
41
0.0
42
0.0
10
73.6227035522461
20
76.5043029785156
40
0.0
41
0.0
42
0.0
10
73.4949035644531
20
76.2862014770508
40
0.0
41
0.0
42
0.0
10
73.4613037109375
20
76.2907028198242
40
0.0
41
0.0
42
0.0
10
73.013801574707
20
76.3907012939453
40
0.0
41
0.0
42
0.0
10
72.7323989868164
20
76.5005035400391
40
0.0
41
0.0
42
0.0
10
72.6801986694336
20
76.5232009887695
40
0.0
41
0.0
42
0.0
10
72.5113983154297
20
76.620002746582
40
0.0
41
0.0
42
0.0
10
72.4571990966797
20
76.6371994018555
40
0.0
41
0.0
42
0.0
10
72.0102996826172
20
76.8488006591797
40
0.0
41
0.0
42
0.0
10
71.7677993774414
20
76.9858016967773
40
0.0
41
0.0
42
0.0
10
71.7480010986328
20
76.9961013793945
40
0.0
41
0.0
42
0.0
10
71.7307968139648
20
77.0028991699219
40
0.0
41
0.0
42
0.0
10
71.5099029541016
20
77.1630020141602
40
0.0
41
0.0
42
0.0
10
71.4952011108398
20
77.1685028076172
40
0.0
41
0.0
42
0.0
10
71.0184020996094
20
77.4947967529297
40
0.0
41
0.0
42
0.0
10
70.5085983276367
20
77.8643035888672
40
0.0
41
0.0
42
0.0
10
70.4692993164062
20
77.8862991333008
40
0.0
41
0.0
42
0.0
10
70.2761993408203
20
78.0020980834961
40
0.0
41
0.0
42
0.0
10
70.0095977783203
20
78.176399230957
40
0.0
41
0.0
42
0.0
10
69.5506973266602
20
78.3952026367188
40
0.0
41
0.0
42
0.0
10
69.4723968505859
20
78.434700012207
40
0.0
41
0.0
42
0.0
10
69.3076019287109
20
78.5005035400391
40
0.0
41
0.0
42
0.0
10
69.0090026855469
20
78.631103515625
40
0.0
41
0.0
42
0.0
10
68.9934005737305
20
78.6435012817383
40
0.0
41
0.0
42
0.0
10
68.5102996826172
20
78.8563003540039
40
0.0
41
0.0
42
0.0
10
68.2818984985352
20
78.9934997558594
40
0.0
41
0.0
42
0.0
10
68.2710037231445
20
79.0093002319336
40
0.0
41
0.0
42
0.0
10
68.2452011108398
20
79.0630035400391
40
0.0
41
0.0
42
0.0
10
68.2375030517578
20
79.071403503418
40
0.0
41
0.0
42
0.0
10
68.0053024291992
20
79.2530975341797
40
0.0
41
0.0
42
0.0
10
67.7853012084961
20
79.5091018676758
40
0.0
41
0.0
42
0.0
10
67.7783966064453
20
79.5272979736328
40
0.0
41
0.0
42
0.0
10
67.5551986694336
20
79.9477005004883
40
0.0
41
0.0
42
0.0
10
67.5449981689453
20
79.9880981445312
40
0.0
41
0.0
42
0.0
10
67.5354995727539
20
80.0146026611328
40
0.0
41
0.0
42
0.0
10
67.4991989135742
20
80.2294006347656
40
0.0
41
0.0
42
0.0
10
67.4383010864258
20
80.5136032104492
40
0.0
41
0.0
42
0.0
10
67.4447021484375
20
80.7548980712891
40
0.0
41
0.0
42
0.0
10
67.4450988769531
20
80.9829025268555
40
0.0
41
0.0
42
0.0
10
67.5
20
81.1788024902344
40
0.0
41
0.0
42
0.0
210
0.0
220
0.0
230
1.0
0
LWPOLYLINE
5
28
330
1C
100
AcDbEntity
67
0
8
0
62
256
6
ByLayer
370
-1
48
1.0
60
0
100
AcDbPolyline
90
86
70
1
38
0.0
39
0.0
10
67.8741989135742
20
68.4849014282227
40
0.0
41
0.0
42
0.0
10
67.9999008178711
20
68.0777969360352
40
0.0
41
0.0
42
0.0
10
68.0075988769531
20
68.0557022094727
40
0.0
41
0.0
42
0.0
10
68.0130004882812
20
68.0491027832031
40
0.0
41
0.0
42
0.0
10
68.0353012084961
20
67.9996032714844
40
0.0
41
0.0
42
0.0
10
68.4928970336914
20
67.5477981567383
40
0.0
41
0.0
42
0.0
10
68.5043029785156
20
67.5408020019531
40
0.0
41
0.0
42
0.0
10
68.5728988647461
20
67.513298034668
40
0.0
41
0.0
42
0.0
10
68.9828033447266
20
67.3992004394531
40
0.0
41
0.0
42
0.0
10
69.4051971435547
20
67.3984985351562
40
0.0
41
0.0
42
0.0
10
69.5178985595703
20
67.396598815918
40
0.0
41
0.0
42
0.0
10
69.9490966796875
20
67.4900970458984
40
0.0
41
0.0
42
0.0
10
70.0147018432617
20
67.5026016235352
40
0.0
41
0.0
42
0.0
10
70.0502014160156
20
67.5142974853516
40
0.0
41
0.0
42
0.0
10
70.5080032348633
20
67.7567977905273
40
0.0
41
0.0
42
0.0
10
70.7844009399414
20
67.994499206543
40
0.0
41
0.0
42
0.0
10
70.986198425293
20
68.2524032592773
40
0.0
41
0.0
42
0.0
10
70.9931030273438
20
68.2585983276367
40
0.0
41
0.0
42
0.0
10
71.0092010498047
20
68.2664031982422
40
0.0
41
0.0
42
0.0
10
71.0391998291016
20
68.2880020141602
40
0.0
41
0.0
42
0.0
10
71.160400390625
20
68.4896011352539
40
0.0
41
0.0
42
0.0
10
71.3571014404297
20
68.9359970092773
40
0.0
41
0.0
42
0.0
10
71.4013977050781
20
68.9909973144531
40
0.0
41
0.0
42
0.0
10
71.5005035400391
20
69.2173004150391
40
0.0
41
0.0
42
0.0
10
71.5519027709961
20
69.3460998535156
40
0.0
41
0.0
42
0.0
10
71.6269989013672
20
69.4894027709961
40
0.0
41
0.0
42
0.0
10
71.8672027587891
20
69.9903030395508
40
0.0
41
0.0
42
0.0
10
72.0020980834961
20
70.196403503418
40
0.0
41
0.0
42
0.0
10
72.0906982421875
20
70.3442993164062
40
0.0
41
0.0
42
0.0
10
72.1495971679688
20
70.434700012207
40
0.0
41
0.0
42
0.0
10
72.1718978881836
20
70.4901962280273
40
0.0
41
0.0
42
0.0
10
72.5053024291992
20
70.9488983154297
40
0.0
41
0.0
42
0.0
10
72.5231018066406
20
70.9901962280273
40
0.0
41
0.0
42
0.0
10
72.8277969360352
20
71.4346008300781
40
0.0
41
0.0
42
0.0
10
72.847900390625
20
71.4898986816406
40
0.0
41
0.0
42
0.0
10
72.9951019287109
20
71.6930999755859
40
0.0
41
0.0
42
0.0
10
73.0143966674805
20
71.7414016723633
40
0.0
41
0.0
42
0.0
10
73.1539993286133
20
71.9884033203125
40
0.0
41
0.0
42
0.0
10
73.1585998535156
20
72.0026016235352
40
0.0
41
0.0
42
0.0
10
73.3889999389648
20
72.4897003173828
40
0.0
41
0.0
42
0.0
10
73.4949035644531
20
72.674201965332
40
0.0
41
0.0
42
0.0
10
73.5005035400391
20
72.6867980957031
40
0.0
41
0.0
42
0.0
10
73.6169967651367
20
72.9850006103516
40
0.0
41
0.0
42
0.0
10
73.618896484375
20
72.9985961914062
40
0.0
41
0.0
42
0.0
10
73.7269973754883
20
73.4822998046875
40
0.0
41
0.0
42
0.0
10
73.7268981933594
20
73.5078964233398
40
0.0
41
0.0
42
0.0
10
73.5142974853516
20
73.6323013305664
40
0.0
41
0.0
42
0.0
10
73.4829025268555
20
73.6323013305664
40
0.0
41
0.0
42
0.0
10
73.1623992919922
20
73.5011978149414
40
0.0
41
0.0
42
0.0
10
72.9982986450195
20
73.3994979858398
40
0.0
41
0.0
42
0.0
10
72.9337997436523
20
73.3729019165039
40
0.0
41
0.0
42
0.0
10
72.4886016845703
20
73.1439971923828
40
0.0
41
0.0
42
0.0
10
72.4371032714844
20
73.1238021850586
40
0.0
41
0.0
42
0.0
10
72.2240982055664
20
73.0024032592773
40
0.0
41
0.0
42
0.0
10
71.9935989379883
20
72.8289031982422
40
0.0
41
0.0
42
0.0
10
71.935302734375
20
72.8046035766602
40
0.0
41
0.0
42
0.0
10
71.5212020874023
20
72.5037994384766
40
0.0
41
0.0
42
0.0
10
71.4931030273438
20
72.4766998291016
40
0.0
41
0.0
42
0.0
10
71.431396484375
20
72.4365997314453
40
0.0
41
0.0
42
0.0
10
70.9914016723633
20
72.0671997070312
40
0.0
41
0.0
42
0.0
10
70.9308013916016
20
72.038200378418
40
0.0
41
0.0
42
0.0
10
70.492301940918
20
71.6817016601562
40
0.0
41
0.0
42
0.0
10
70.209098815918
20
71.5024032592773
40
0.0
41
0.0
42
0.0
10
69.9912033081055
20
71.3547973632812
40
0.0
41
0.0
42
0.0
10
69.9067001342773
20
71.3051986694336
40
0.0
41
0.0
42
0.0
10
69.4900970458984
20
71.0873031616211
40
0.0
41
0.0
42
0.0
10
69.4390029907227
20
71.0577011108398
40
0.0
41
0.0
42
0.0
10
69.4317016601562
20
71.0515975952148
40
0.0
41
0.0
42
0.0
10
69.3554000854492
20
71.0018005371094
40
0.0
41
0.0
42
0.0
10
68.9919967651367
20
70.8114013671875
40
0.0
41
0.0
42
0.0
10
68.9490966796875
20
70.7730026245117
40
0.0
41
0.0
42
0.0
10
68.6119003295898
20
70.559700012207
40
0.0
41
0.0
42
0.0
10
68.6018981933594
20
70.5444030761719
40
0.0
41
0.0
42
0.0
10
68.5652008056641
20
70.5046997070312
40
0.0
41
0.0
42
0.0
10
68.4957962036133
20
70.4461975097656
40
0.0
41
0.0
42
0.0
10
68.4776992797852
20
70.4182968139648
40
0.0
41
0.0
42
0.0
10
68.1738967895508
20
70.0643997192383
40
0.0
41
0.0
42
0.0
10
68.1573028564453
20
70.0150985717773
40
0.0
41
0.0
42
0.0
10
68.1549987792969
20
69.9987030029297
40
0.0
41
0.0
42
0.0
10
68.0018997192383
20
69.6921997070312
40
0.0
41
0.0
42
0.0
10
67.9327011108398
20
69.5142974853516
40
0.0
41
0.0
42
0.0
10
67.8527984619141
20
69.053596496582
40
0.0
41
0.0
42
0.0
10
67.8498992919922
20
69.0190963745117
40
0.0
41
0.0
42
0.0
10
67.8498001098633
20
68.9804000854492
40
0.0
41
0.0
42
0.0
10
67.870002746582
20
68.5087966918945
40
0.0
41
0.0
42
0.0
10
67.8741989135742
20
68.4849014282227
40
0.0
41
0.0
42
0.0
210
0.0
220
0.0
230
1.0
0
LWPOLYLINE
5
29
330
1C
100
AcDbEntity
67
0
8
0
62
256
6
ByLayer
370
-1
48
1.0
60
0
100
AcDbPolyline
90
83
70
1
38
0.0
39
0.0
10
68.011100769043
20
69.6541976928711
40
0.0
41
0.0
42
0.0
10
68.1493988037109
20
69.9312973022461
40
0.0
41
0.0
42
0.0
10
68.1568984985352
20
69.9845962524414
40
0.0
41
0.0
42
0.0
10
68.1640014648438
20
70.0065994262695
40
0.0
41
0.0
42
0.0
10
68.497200012207
20
70.3946990966797
40
0.0
41
0.0
42
0.0
10
68.5042037963867
20
70.4050979614258
40
0.0
41
0.0
42
0.0
10
68.6103973388672
20
70.4947967529297
40
0.0
41
0.0
42
0.0
10
68.6240005493164
20
70.5110015869141
40
0.0
41
0.0
42
0.0
10
68.9953002929688
20
70.7460021972656
40
0.0
41
0.0
42
0.0
10
69.0078964233398
20
70.7572021484375
40
0.0
41
0.0
42
0.0
10
69.4676971435547
20
70.9980010986328
40
0.0
41
0.0
42
0.0
10
69.4898986816406
20
71.0129013061523
40
0.0
41
0.0
42
0.0
10
69.9869995117188
20
71.2734985351562
40
0.0
41
0.0
42
0.0
10
70.0087966918945
20
71.2862014770508
40
0.0
41
0.0
42
0.0
10
70.3209991455078
20
71.4974975585938
40
0.0
41
0.0
42
0.0
10
70.5075988769531
20
71.61669921875
40
0.0
41
0.0
42
0.0
10
70.9873962402344
20
72.0073013305664
40
0.0
41
0.0
42
0.0
10
71.0081024169922
20
72.0185012817383
40
0.0
41
0.0
42
0.0
10
71.4906997680664
20
72.4237976074219
40
0.0
41
0.0
42
0.0
10
71.5067977905273
20
72.434196472168
40
0.0
41
0.0
42
0.0
10
71.5712966918945
20
72.4961013793945
40
0.0
41
0.0
42
0.0
10
71.9945983886719
20
72.8034973144531
40
0.0
41
0.0
42
0.0
10
72.0102005004883
20
72.8100967407227
40
0.0
41
0.0
42
0.0
10
72.2593994140625
20
72.9974975585938
40
0.0
41
0.0
42
0.0
10
72.4965972900391
20
73.1325988769531
40
0.0
41
0.0
42
0.0
10
72.5120010375977
20
73.1389007568359
40
0.0
41
0.0
42
0.0
10
72.9828033447266
20
73.3808975219727
40
0.0
41
0.0
42
0.0
10
73.0121002197266
20
73.3917999267578
40
0.0
41
0.0
42
0.0
10
73.0421981811523
20
73.4051971435547
40
0.0
41
0.0
42
0.0
10
73.1930999755859
20
73.4987030029297
40
0.0
41
0.0
42
0.0
10
73.4954986572266
20
73.6224975585938
40
0.0
41
0.0
42
0.0
10
73.711799621582
20
73.4962005615234
40
0.0
41
0.0
42
0.0
10
73.6168975830078
20
73.0712966918945
40
0.0
41
0.0
42
0.0
10
73.6093978881836
20
73.0147018432617
40
0.0
41
0.0
42
0.0
10
73.499397277832
20
72.7323989868164
40
0.0
41
0.0
42
0.0
10
73.4765014648438
20
72.6801986694336
40
0.0
41
0.0
42
0.0
10
73.3788986206055
20
72.5102005004883
40
0.0
41
0.0
42
0.0
10
73.1692962646484
20
72.0672988891602
40
0.0
41
0.0
42
0.0
10
73.1517028808594
20
72.0114974975586
40
0.0
41
0.0
42
0.0
10
73.0139007568359
20
71.7678985595703
40
0.0
41
0.0
42
0.0
10
73.003303527832
20
71.7473983764648
40
0.0
41
0.0
42
0.0
10
72.9969024658203
20
71.7309036254883
40
0.0
41
0.0
42
0.0
10
72.8367004394531
20
71.5100021362305
40
0.0
41
0.0
42
0.0
10
72.831298828125
20
71.4953002929688
40
0.0
41
0.0
42
0.0
10
72.504997253418
20
71.0184020996094
40
0.0
41
0.0
42
0.0
10
72.136100769043
20
70.5096969604492
40
0.0
41
0.0
42
0.0
10
72.1303024291992
20
70.4954986572266
40
0.0
41
0.0
42
0.0
10
71.9977035522461
20
70.2761993408203
40
0.0
41
0.0
42
0.0
10
71.8233032226562
20
70.0095977783203
40
0.0
41
0.0
42
0.0
10
71.6045989990234
20
69.5506973266602
40
0.0
41
0.0
42
0.0
10
71.5650024414062
20
69.4723968505859
40
0.0
41
0.0
42
0.0
10
71.4992980957031
20
69.3076019287109
40
0.0
41
0.0
42
0.0
10
71.3685989379883
20
69.0090026855469
40
0.0
41
0.0
42
0.0
10
71.356201171875
20
68.9934005737305
40
0.0
41
0.0
42
0.0
10
71.1434020996094
20
68.5102996826172
40
0.0
41
0.0
42
0.0
10
71.0063018798828
20
68.2819976806641
40
0.0
41
0.0
42
0.0
10
70.9906005859375
20
68.2710037231445
40
0.0
41
0.0
42
0.0
10
70.9367980957031
20
68.2452011108398
40
0.0
41
0.0
42
0.0
10
70.9282989501953
20
68.2375030517578
40
0.0
41
0.0
42
0.0
10
70.7465972900391
20
68.0054016113281
40
0.0
41
0.0
42
0.0
10
70.4907989501953
20
67.7853012084961
40
0.0
41
0.0
42
0.0
10
70.4725036621094
20
67.7783966064453
40
0.0
41
0.0
42
0.0
10
70.0521011352539
20
67.5551986694336
40
0.0
41
0.0
42
0.0
10
70.0117034912109
20
67.5449981689453
40
0.0
41
0.0
42
0.0
10
69.9852981567383
20
67.5354995727539
40
0.0
41
0.0
42
0.0
10
69.7705001831055
20
67.4992980957031
40
0.0
41
0.0
42
0.0
10
69.4862976074219
20
67.4383010864258
40
0.0
41
0.0
42
0.0
10
69.2449035644531
20
67.4447021484375
40
0.0
41
0.0
42
0.0
10
69.0169982910156
20
67.4450988769531
40
0.0
41
0.0
42
0.0
10
68.8221969604492
20
67.4997024536133
40
0.0
41
0.0
42
0.0
10
68.6336975097656
20
67.5496978759766
40
0.0
41
0.0
42
0.0
10
68.5529022216797
20
67.5823974609375
40
0.0
41
0.0
42
0.0
10
68.5066986083984
20
67.6120986938477
40
0.0
41
0.0
42
0.0
10
68.0783996582031
20
68.035400390625
40
0.0
41
0.0
42
0.0
10
68.0568008422852
20
68.0830001831055
40
0.0
41
0.0
42
0.0
10
68.0348968505859
20
68.1110000610352
40
0.0
41
0.0
42
0.0
10
68.0
20
68.2091979980469
40
0.0
41
0.0
42
0.0
10
67.9057006835938
20
68.5149993896484
40
0.0
41
0.0
42
0.0
10
67.8878021240234
20
68.6151962280273
40
0.0
41
0.0
42
0.0
10
67.8714981079102
20
68.9937973022461
40
0.0
41
0.0
42
0.0
10
67.8820037841797
20
69.1156997680664
40
0.0
41
0.0
42
0.0
10
67.9461975097656
20
69.4856033325195
40
0.0
41
0.0
42
0.0
10
68.011100769043
20
69.6541976928711
40
0.0
41
0.0
42
0.0
210
0.0
220
0.0
230
1.0
0
LWPOLYLINE
5
2A
330
1C
100
AcDbEntity
67
0
8
0
62
256
6
ByLayer
370
-1
48
1.0
60
0
100
AcDbPolyline
90
84
70
1
38
0.0
39
0.0
10
73.2236022949219
20
81.9299011230469
40
0.0
41
0.0
42
0.0
10
73.4105987548828
20
81.486198425293
40
0.0
41
0.0
42
0.0
10
73.4222030639648
20
81.4312973022461
40
0.0
41
0.0
42
0.0
10
73.499397277832
20
81.2534027099609
40
0.0
41
0.0
42
0.0
10
73.6005020141602
20
80.9869003295898
40
0.0
41
0.0
42
0.0
10
73.6272964477539
20
80.9041976928711
40
0.0
41
0.0
42
0.0
10
73.7422027587891
20
80.4860000610352
40
0.0
41
0.0
42
0.0
10
73.7608032226562
20
80.4301986694336
40
0.0
41
0.0
42
0.0
10
73.8431015014648
20
79.9833984375
40
0.0
41
0.0
42
0.0
10
73.9101028442383
20
79.5401000976562
40
0.0
41
0.0
42
0.0
10
73.9289016723633
20
79.4878005981445
40
0.0
41
0.0
42
0.0
10
73.9540023803711
20
79.4316024780273
40
0.0
41
0.0
42
0.0
10
73.9674987792969
20
79.3714981079102
40
0.0
41
0.0
42
0.0
10
74.0005035400391
20
79.2030029296875
40
0.0
41
0.0
42
0.0
10
74.0395965576172
20
78.9860992431641
40
0.0
41
0.0
42
0.0
10
74.0634002685547
20
78.9316024780273
40
0.0
41
0.0
42
0.0
10
74.1669006347656
20
78.4851989746094
40
0.0
41
0.0
42
0.0
10
74.3058013916016
20
78.0024032592773
40
0.0
41
0.0
42
0.0
10
74.3153991699219
20
77.9817962646484
40
0.0
41
0.0
42
0.0
10
74.4984970092773
20
77.4989013671875
40
0.0
41
0.0
42
0.0
10
74.8303985595703
20
77.0056991577148
40
0.0
41
0.0
42
0.0
10
74.8394012451172
20
76.9882965087891
40
0.0
41
0.0
42
0.0
10
74.9947967529297
20
76.5454025268555
40
0.0
41
0.0
42
0.0
10
75.0029983520508
20
76.5454025268555
40
0.0
41
0.0
42
0.0
10
75.1008987426758
20
76.9859008789062
40
0.0
41
0.0
42
0.0
10
75.1070022583008
20
77.0024032592773
40
0.0
41
0.0
42
0.0
10
75.2500991821289
20
77.4872970581055
40
0.0
41
0.0
42
0.0
10
75.2750015258789
20
77.5426025390625
40
0.0
41
0.0
42
0.0
10
75.421501159668
20
77.9860992431641
40
0.0
41
0.0
42
0.0
10
75.4962997436523
20
78.2544021606445
40
0.0
41
0.0
42
0.0
10
75.5222015380859
20
78.3096008300781
40
0.0
41
0.0
42
0.0
10
75.5748977661133
20
78.486701965332
40
0.0
41
0.0
42
0.0
10
75.5952987670898
20
78.540397644043
40
0.0
41
0.0
42
0.0
10
75.6651000976562
20
78.9824981689453
40
0.0
41
0.0
42
0.0
10
75.7025985717773
20
79.4292984008789
40
0.0
41
0.0
42
0.0
10
75.7220993041992
20
79.4856033325195
40
0.0
41
0.0
42
0.0
10
75.7425003051758
20
79.5814971923828
40
0.0
41
0.0
42
0.0
10
75.7677001953125
20
79.9825973510742
40
0.0
41
0.0
42
0.0
10
75.7949981689453
20
80.1288986206055
40
0.0
41
0.0
42
0.0
10
75.8293991088867
20
80.4832000732422
40
0.0
41
0.0
42
0.0
10
75.8855972290039
20
80.7469024658203
40
0.0
41
0.0
42
0.0
10
75.9287033081055
20
80.9847030639648
40
0.0
41
0.0
42
0.0
10
75.9997024536133
20
81.2342987060547
40
0.0
41
0.0
42
0.0
10
76.068603515625
20
81.4847030639648
40
0.0
41
0.0
42
0.0
10
76.0851974487305
20
81.5703964233398
40
0.0
41
0.0
42
0.0
10
76.092399597168
20
81.5964965820312
40
0.0
41
0.0
42
0.0
10
76.2240982055664
20
81.9841995239258
40
0.0
41
0.0
42
0.0
10
76.2319030761719
20
82.0877990722656
40
0.0
41
0.0
42
0.0
10
76.3421020507812
20
82.4828033447266
40
0.0
41
0.0
42
0.0
10
76.3420028686523
20
82.5162963867188
40
0.0
41
0.0
42
0.0
10
76.3254013061523
20
82.5633010864258
40
0.0
41
0.0
42
0.0
10
76.3691024780273
20
82.9810028076172
40
0.0
41
0.0
42
0.0
10
76.3690032958984
20
83.0142974853516
40
0.0
41
0.0
42
0.0
10
76.3451995849609
20
83.0551986694336
40
0.0
41
0.0
42
0.0
10
76.2729034423828
20
83.5139007568359
40
0.0
41
0.0
42
0.0
10
76.0569000244141
20
83.9936981201172
40
0.0
41
0.0
42
0.0
10
76.0457992553711
20
84.0073013305664
40
0.0
41
0.0
42
0.0
10
76.0036010742188
20
84.0683975219727
40
0.0
41
0.0
42
0.0
10
75.9413986206055
20
84.1323013305664
40
0.0
41
0.0
42
0.0
10
75.6103973388672
20
84.5053024291992
40
0.0
41
0.0
42
0.0
10
75.5074996948242
20
84.6023025512695
40
0.0
41
0.0
42
0.0
10
75.0731964111328
20
84.8342971801758
40
0.0
41
0.0
42
0.0
10
75.0139999389648
20
84.864501953125
40
0.0
41
0.0
42
0.0
10
74.5401000976562
20
84.9056015014648
40
0.0
41
0.0
42
0.0
10
74.4839019775391
20
84.904899597168
40
0.0
41
0.0
42
0.0
10
74.010498046875
20
84.7273025512695
40
0.0
41
0.0
42
0.0
10
73.9918975830078
20
84.7173004150391
40
0.0
41
0.0
42
0.0
10
73.7425003051758
20
84.5037002563477
40
0.0
41
0.0
42
0.0
10
73.7245025634766
20
84.4897003173828
40
0.0
41
0.0
42
0.0
10
73.6980972290039
20
84.459098815918
40
0.0
41
0.0
42
0.0
10
73.4962997436523
20
84.2520980834961
40
0.0
41
0.0
42
0.0
10
73.3286972045898
20
84.0074005126953
40
0.0
41
0.0
42
0.0
10
73.3178024291992
20
83.993896484375
40
0.0
41
0.0
42
0.0
10
73.1056976318359
20
83.5140991210938
40
0.0
41
0.0
42
0.0
10
73.0330963134766
20
83.0281982421875
40
0.0
41
0.0
42
0.0
10
73.0257034301758
20
83.0146026611328
40
0.0
41
0.0
42
0.0
10
73.0255966186523
20
82.9813003540039
40
0.0
41
0.0
42
0.0
10
73.0830993652344
20
82.5268020629883
40
0.0
41
0.0
42
0.0
10
73.0798034667969
20
82.5167007446289
40
0.0
41
0.0
42
0.0
10
73.0799026489258
20
82.4832992553711
40
0.0
41
0.0
42
0.0
10
73.2231979370117
20
82.0474014282227
40
0.0
41
0.0
42
0.0
10
73.2200012207031
20
82.0188980102539
40
0.0
41
0.0
42
0.0
10
73.2202987670898
20
81.9765014648438
40
0.0
41
0.0
42
0.0
10
73.2236022949219
20
81.9299011230469
40
0.0
41
0.0
42
0.0
210
0.0
220
0.0
230
1.0
0
LWPOLYLINE
5
2B
330
1C
100
AcDbEntity
67
0
8
0
62
256
6
ByLayer
370
-1
48
1.0
60
0
100
AcDbPolyline
90
77
70
1
38
0.0
39
0.0
10
73.3355026245117
20
83.9359970092773
40
0.0
41
0.0
42
0.0
10
73.3809967041016
20
83.9925003051758
40
0.0
41
0.0
42
0.0
10
73.5036010742188
20
84.1716003417969
40
0.0
41
0.0
42
0.0
10
73.6517028808594
20
84.3234024047852
40
0.0
41
0.0
42
0.0
10
73.7525024414062
20
84.440299987793
40
0.0
41
0.0
42
0.0
10
73.8247985839844
20
84.4962005615234
40
0.0
41
0.0
42
0.0
10
74.0080032348633
20
84.6531982421875
40
0.0
41
0.0
42
0.0
10
74.0914993286133
20
84.6978988647461
40
0.0
41
0.0
42
0.0
10
74.5158004760742
20
84.8571014404297
40
0.0
41
0.0
42
0.0
10
74.5693969726562
20
84.8591995239258
40
0.0
41
0.0
42
0.0
10
74.9858016967773
20
84.822998046875
40
0.0
41
0.0
42
0.0
10
75.2205963134766
20
84.703498840332
40
0.0
41
0.0
42
0.0
10
75.492301940918
20
84.5584030151367
40
0.0
41
0.0
42
0.0
10
75.5599975585938
20
84.4945983886719
40
0.0
41
0.0
42
0.0
10
75.7641983032227
20
84.2645034790039
40
0.0
41
0.0
42
0.0
10
75.9962005615234
20
84.0261001586914
40
0.0
41
0.0
42
0.0
10
76.0193023681641
20
83.9925003051758
40
0.0
41
0.0
42
0.0
10
76.0654983520508
20
83.9360961914062
40
0.0
41
0.0
42
0.0
10
76.2682037353516
20
83.4860000610352
40
0.0
41
0.0
42
0.0
10
76.3384017944336
20
83.0394973754883
40
0.0
41
0.0
42
0.0
10
76.3490982055664
20
83.0031967163086
40
0.0
41
0.0
42
0.0
10
76.3563003540039
20
82.9906005859375
40
0.0
41
0.0
42
0.0
10
76.3086013793945
20
82.5337982177734
40
0.0
41
0.0
42
0.0
10
76.3086013793945
20
82.4979019165039
40
0.0
41
0.0
42
0.0
10
76.1822967529297
20
82.0447006225586
40
0.0
41
0.0
42
0.0
10
76.1800994873047
20
82.0157012939453
40
0.0
41
0.0
42
0.0
10
76.0252990722656
20
81.5599975585938
40
0.0
41
0.0
42
0.0
10
76.0000991821289
20
81.4637985229492
40
0.0
41
0.0
42
0.0
10
75.8724975585938
20
81.0151977539062
40
0.0
41
0.0
42
0.0
10
75.7951965332031
20
80.5876007080078
40
0.0
41
0.0
42
0.0
10
75.7800979614258
20
80.5167007446289
40
0.0
41
0.0
42
0.0
10
75.7354965209961
20
80.0568008422852
40
0.0
41
0.0
42
0.0
10
75.7282028198242
20
80.0174026489258
40
0.0
41
0.0
42
0.0
10
75.6984024047852
20
79.5439987182617
40
0.0
41
0.0
42
0.0
10
75.6921005249023
20
79.5142974853516
40
0.0
41
0.0
42
0.0
10
75.6872024536133
20
79.5005035400391
40
0.0
41
0.0
42
0.0
10
75.6467971801758
20
79.0174026489258
40
0.0
41
0.0
42
0.0
10
75.5697021484375
20
78.5295028686523
40
0.0
41
0.0
42
0.0
10
75.5634994506836
20
78.5131988525391
40
0.0
41
0.0
42
0.0
10
75.5055999755859
20
78.3184967041016
40
0.0
41
0.0
42
0.0
10
75.4985961914062
20
78.3037033081055
40
0.0
41
0.0
42
0.0
10
75.4176025390625
20
78.0130996704102
40
0.0
41
0.0
42
0.0
10
75.2630996704102
20
77.5453033447266
40
0.0
41
0.0
42
0.0
10
75.2461013793945
20
77.5121002197266
40
0.0
41
0.0
42
0.0
10
75.1150970458984
20
77.0683975219727
40
0.0
41
0.0
42
0.0
10
75.0952987670898
20
77.0139999389648
40
0.0
41
0.0
42
0.0
10
75.0081024169922
20
76.6215972900391
40
0.0
41
0.0
42
0.0
10
74.9885025024414
20
76.6203994750977
40
0.0
41
0.0
42
0.0
10
74.8513031005859
20
77.0115966796875
40
0.0
41
0.0
42
0.0
10
74.8240966796875
20
77.0642013549805
40
0.0
41
0.0
42
0.0
10
74.5258026123047
20
77.5078964233398
40
0.0
41
0.0
42
0.0
10
74.5012969970703
20
77.5418014526367
40
0.0
41
0.0
42
0.0
10
74.3320007324219
20
77.9880981445312
40
0.0
41
0.0
42
0.0
10
74.3199005126953
20
78.0106964111328
40
0.0
41
0.0
42
0.0
10
74.2951965332031
20
78.0662994384766
40
0.0
41
0.0
42
0.0
10
74.1664962768555
20
78.5146026611328
40
0.0
41
0.0
42
0.0
10
74.0542984008789
20
78.9982986450195
40
0.0
41
0.0
42
0.0
10
74.0475997924805
20
79.013801574707
40
0.0
41
0.0
42
0.0
10
73.9991989135742
20
79.2816009521484
40
0.0
41
0.0
42
0.0
10
73.956298828125
20
79.4987030029297
40
0.0
41
0.0
42
0.0
10
73.9439010620117
20
79.5294036865234
40
0.0
41
0.0
42
0.0
10
73.8702011108398
20
80.0165023803711
40
0.0
41
0.0
42
0.0
10
73.7809982299805
20
80.5001983642578
40
0.0
41
0.0
42
0.0
10
73.6452026367188
20
80.9916000366211
40
0.0
41
0.0
42
0.0
10
73.6381988525391
20
81.0129013061523
40
0.0
41
0.0
42
0.0
10
73.5003967285156
20
81.3759994506836
40
0.0
41
0.0
42
0.0
10
73.4476013183594
20
81.4984970092773
40
0.0
41
0.0
42
0.0
10
73.4443969726562
20
81.5136032104492
40
0.0
41
0.0
42
0.0
10
73.2396011352539
20
81.9991989135742
40
0.0
41
0.0
42
0.0
10
73.2397003173828
20
82.0316009521484
40
0.0
41
0.0
42
0.0
10
73.0856018066406
20
82.4999008178711
40
0.0
41
0.0
42
0.0
10
73.0958023071289
20
82.5376968383789
40
0.0
41
0.0
42
0.0
10
73.095703125
20
82.573600769043
40
0.0
41
0.0
42
0.0
10
73.0428009033203
20
82.9916000366211
40
0.0
41
0.0
42
0.0
10
73.0700988769531
20
83.0417022705078
40
0.0
41
0.0
42
0.0
10
73.1365966796875
20
83.4859008789062
40
0.0
41
0.0
42
0.0
10
73.3355026245117
20
83.9359970092773
40
0.0
41
0.0
42
0.0
210
0.0
220
0.0
230
1.0
0
LWPOLYLINE
5
2C
330
1C
100
AcDbEntity
67
0
8
0
62
256
6
ByLayer
370
-1
48
1.0
60
0
100
AcDbPolyline
90
85
70
1
38
0.0
39
0.0
10
73.6576995849609
20
67.4835968017578
40
0.0
41
0.0
42
0.0
10
73.6743011474609
20
67.4365997314453
40
0.0
41
0.0
42
0.0
10
73.6307983398438
20
67.0188980102539
40
0.0
41
0.0
42
0.0
10
73.6306991577148
20
66.9815979003906
40
0.0
41
0.0
42
0.0
10
73.7001037597656
20
66.5410003662109
40
0.0
41
0.0
42
0.0
10
73.7164001464844
20
66.5046005249023
40
0.0
41
0.0
42
0.0
10
73.7251968383789
20
66.4896011352539
40
0.0
41
0.0
42
0.0
10
73.9428024291992
20
66.006103515625
40
0.0
41
0.0
42
0.0
10
73.9539031982422
20
65.9925003051758
40
0.0
41
0.0
42
0.0
10
73.9960021972656
20
65.9316024780273
40
0.0
41
0.0
42
0.0
10
74.0101013183594
20
65.918098449707
40
0.0
41
0.0
42
0.0
10
74.377197265625
20
65.5046005249023
40
0.0
41
0.0
42
0.0
10
74.3880004882812
20
65.4956970214844
40
0.0
41
0.0
42
0.0
10
74.492301940918
20
65.3973999023438
40
0.0
41
0.0
42
0.0
10
74.9264984130859
20
65.1652984619141
40
0.0
41
0.0
42
0.0
10
74.9858016967773
20
65.1352005004883
40
0.0
41
0.0
42
0.0
10
75.4597015380859
20
65.0942001342773
40
0.0
41
0.0
42
0.0
10
75.515998840332
20
65.0949020385742
40
0.0
41
0.0
42
0.0
10
75.9894027709961
20
65.2724990844727
40
0.0
41
0.0
42
0.0
10
76.0080032348633
20
65.282600402832
40
0.0
41
0.0
42
0.0
10
76.2574005126953
20
65.4962997436523
40
0.0
41
0.0
42
0.0
10
76.2741012573242
20
65.5090026855469
40
0.0
41
0.0
42
0.0
10
76.4907989501953
20
65.7311019897461
40
0.0
41
0.0
42
0.0
10
76.5028991699219
20
65.746696472168
40
0.0
41
0.0
42
0.0
10
76.6710968017578
20
65.9925003051758
40
0.0
41
0.0
42
0.0
10
76.6819000244141
20
66.0059967041016
40
0.0
41
0.0
42
0.0
10
76.8955001831055
20
66.4891967773438
40
0.0
41
0.0
42
0.0
10
76.9021987915039
20
66.5017013549805
40
0.0
41
0.0
42
0.0
10
76.9745025634766
20
66.9848022460938
40
0.0
41
0.0
42
0.0
10
76.9789962768555
20
66.9981994628906
40
0.0
41
0.0
42
0.0
10
76.9788970947266
20
67.0346984863281
40
0.0
41
0.0
42
0.0
10
76.9763031005859
20
67.0728988647461
40
0.0
41
0.0
42
0.0
10
76.9201965332031
20
67.5152969360352
40
0.0
41
0.0
42
0.0
10
76.776496887207
20
67.9524993896484
40
0.0
41
0.0
42
0.0
10
76.7798004150391
20
67.9811019897461
40
0.0
41
0.0
42
0.0
10
76.7797012329102
20
68.0192031860352
40
0.0
41
0.0
42
0.0
10
76.7761001586914
20
68.0699996948242
40
0.0
41
0.0
42
0.0
10
76.5891036987305
20
68.5137023925781
40
0.0
41
0.0
42
0.0
10
76.5775985717773
20
68.5684967041016
40
0.0
41
0.0
42
0.0
10
76.5003967285156
20
68.7462997436523
40
0.0
41
0.0
42
0.0
10
76.3992004394531
20
69.0130004882812
40
0.0
41
0.0
42
0.0
10
76.3723983764648
20
69.0955963134766
40
0.0
41
0.0
42
0.0
10
76.2574996948242
20
69.513801574707
40
0.0
41
0.0
42
0.0
10
76.238899230957
20
69.5697021484375
40
0.0
41
0.0
42
0.0
10
76.1569976806641
20
70.0145034790039
40
0.0
41
0.0
42
0.0
10
76.1371994018555
20
70.0698013305664
40
0.0
41
0.0
42
0.0
10
76.0699996948242
20
70.5139999389648
40
0.0
41
0.0
42
0.0
10
76.0457000732422
20
70.5682983398438
40
0.0
41
0.0
42
0.0
10
76.0322036743164
20
70.6284027099609
40
0.0
41
0.0
42
0.0
10
75.9992980957031
20
70.7967987060547
40
0.0
41
0.0
42
0.0
10
75.9600982666016
20
71.013801574707
40
0.0
41
0.0
42
0.0
10
75.9363021850586
20
71.0682983398438
40
0.0
41
0.0
42
0.0
10
75.8330993652344
20
71.513298034668
40
0.0
41
0.0
42
0.0
10
75.8261032104492
20
71.529296875
40
0.0
41
0.0
42
0.0
10
75.6871032714844
20
72.013298034668
40
0.0
41
0.0
42
0.0
10
75.5012969970703
20
72.5009002685547
40
0.0
41
0.0
42
0.0
10
75.4954986572266
20
72.5087966918945
40
0.0
41
0.0
42
0.0
10
75.4872970581055
20
72.5243988037109
40
0.0
41
0.0
42
0.0
10
75.1605987548828
20
73.0103988647461
40
0.0
41
0.0
42
0.0
10
75.0050964355469
20
73.4542999267578
40
0.0
41
0.0
42
0.0
10
74.9965972900391
20
73.4542007446289
40
0.0
41
0.0
42
0.0
10
74.8988037109375
20
73.0139999389648
40
0.0
41
0.0
42
0.0
10
74.755500793457
20
72.5287017822266
40
0.0
41
0.0
42
0.0
10
74.5961990356445
20
72.0483016967773
40
0.0
41
0.0
42
0.0
10
74.5777969360352
20
72.0122985839844
40
0.0
41
0.0
42
0.0
10
74.5035018920898
20
71.7453994750977
40
0.0
41
0.0
42
0.0
10
74.4776000976562
20
71.690299987793
40
0.0
41
0.0
42
0.0
10
74.4253997802734
20
71.5152969360352
40
0.0
41
0.0
42
0.0
10
74.3550033569336
20
71.0695037841797
40
0.0
41
0.0
42
0.0
10
74.3343963623047
20
71.0152969360352
40
0.0
41
0.0
42
0.0
10
74.2970962524414
20
70.5706024169922
40
0.0
41
0.0
42
0.0
10
74.2776031494141
20
70.5142974853516
40
0.0
41
0.0
42
0.0
10
74.2572021484375
20
70.4182968139648
40
0.0
41
0.0
42
0.0
10
74.2320022583008
20
70.0174026489258
40
0.0
41
0.0
42
0.0
10
74.2046966552734
20
69.8709030151367
40
0.0
41
0.0
42
0.0
10
74.1703033447266
20
69.5167007446289
40
0.0
41
0.0
42
0.0
10
74.1140975952148
20
69.2528991699219
40
0.0
41
0.0
42
0.0
10
74.0710983276367
20
69.0151977539062
40
0.0
41
0.0
42
0.0
10
73.9310989379883
20
68.5150985717773
40
0.0
41
0.0
42
0.0
10
73.9147033691406
20
68.4294967651367
40
0.0
41
0.0
42
0.0
10
73.9074020385742
20
68.4032974243164
40
0.0
41
0.0
42
0.0
10
73.7757034301758
20
68.0157012939453
40
0.0
41
0.0
42
0.0
10
73.7677993774414
20
67.9120025634766
40
0.0
41
0.0
42
0.0
10
73.6577987670898
20
67.5170974731445
40
0.0
41
0.0
42
0.0
10
73.6576995849609
20
67.4835968017578
40
0.0
41
0.0
42
0.0
210
0.0
220
0.0
230
1.0
0
LWPOLYLINE
5
2D
330
1C
100
AcDbEntity
67
0
8
0
62
256
6
ByLayer
370
-1
48
1.0
60
0
100
AcDbPolyline
90
79
70
1
38
0.0
39
0.0
10
73.8196029663086
20
67.9841995239258
40
0.0
41
0.0
42
0.0
10
73.9745025634766
20
68.4397964477539
40
0.0
41
0.0
42
0.0
10
73.9997024536133
20
68.5361022949219
40
0.0
41
0.0
42
0.0
10
74.127197265625
20
68.9847030639648
40
0.0
41
0.0
42
0.0
10
74.2044982910156
20
69.4123001098633
40
0.0
41
0.0
42
0.0
10
74.219596862793
20
69.4832000732422
40
0.0
41
0.0
42
0.0
10
74.2641983032227
20
69.943000793457
40
0.0
41
0.0
42
0.0
10
74.2714996337891
20
69.9824981689453
40
0.0
41
0.0
42
0.0
10
74.3013000488281
20
70.4558029174805
40
0.0
41
0.0
42
0.0
10
74.3076019287109
20
70.4857025146484
40
0.0
41
0.0
42
0.0
10
74.3125
20
70.499397277832
40
0.0
41
0.0
42
0.0
10
74.3531036376953
20
70.9847030639648
40
0.0
41
0.0
42
0.0
10
74.3591003417969
20
71.0003967285156
40
0.0
41
0.0
42
0.0
10
74.4356002807617
20
71.4845962524414
40
0.0
41
0.0
42
0.0
10
74.4942016601562
20
71.6811981201172
40
0.0
41
0.0
42
0.0
10
74.5010986328125
20
71.6960983276367
40
0.0
41
0.0
42
0.0
10
74.5823974609375
20
71.9876022338867
40
0.0
41
0.0
42
0.0
10
74.5905990600586
20
72.0037994384766
40
0.0
41
0.0
42
0.0
10
74.6064987182617
20
72.0422973632812
40
0.0
41
0.0
42
0.0
10
74.7534027099609
20
72.4869003295898
40
0.0
41
0.0
42
0.0
10
74.7734985351562
20
72.5414962768555
40
0.0
41
0.0
42
0.0
10
74.9044036865234
20
72.9851989746094
40
0.0
41
0.0
42
0.0
10
74.9917984008789
20
73.378303527832
40
0.0
41
0.0
42
0.0
10
75.0113983154297
20
73.3795013427734
40
0.0
41
0.0
42
0.0
10
75.1481018066406
20
72.9894027709961
40
0.0
41
0.0
42
0.0
10
75.446403503418
20
72.5456008911133
40
0.0
41
0.0
42
0.0
10
75.4747009277344
20
72.4909973144531
40
0.0
41
0.0
42
0.0
10
75.4985961914062
20
72.4579010009766
40
0.0
41
0.0
42
0.0
10
75.6676025390625
20
72.0115966796875
40
0.0
41
0.0
42
0.0
10
75.6803970336914
20
71.9878997802734
40
0.0
41
0.0
42
0.0
10
75.8085021972656
20
71.5420989990234
40
0.0
41
0.0
42
0.0
10
75.8329010009766
20
71.4866027832031
40
0.0
41
0.0
42
0.0
10
75.9453964233398
20
71.0015029907227
40
0.0
41
0.0
42
0.0
10
75.9521026611328
20
70.9860992431641
40
0.0
41
0.0
42
0.0
10
76.000602722168
20
70.7181015014648
40
0.0
41
0.0
42
0.0
10
76.0432968139648
20
70.5016021728516
40
0.0
41
0.0
42
0.0
10
76.0503997802734
20
70.4860000610352
40
0.0
41
0.0
42
0.0
10
76.1240005493164
20
70.0000991821289
40
0.0
41
0.0
42
0.0
10
76.1292037963867
20
69.9853973388672
40
0.0
41
0.0
42
0.0
10
76.2186965942383
20
69.4996032714844
40
0.0
41
0.0
42
0.0
10
76.3544998168945
20
69.0082015991211
40
0.0
41
0.0
42
0.0
10
76.3615036010742
20
68.9869003295898
40
0.0
41
0.0
42
0.0
10
76.4992980957031
20
68.6237030029297
40
0.0
41
0.0
42
0.0
10
76.5522003173828
20
68.5012969970703
40
0.0
41
0.0
42
0.0
10
76.5552978515625
20
68.486198425293
40
0.0
41
0.0
42
0.0
10
76.7600021362305
20
68.000602722168
40
0.0
41
0.0
42
0.0
10
76.7602996826172
20
67.9675979614258
40
0.0
41
0.0
42
0.0
10
76.9190979003906
20
67.4845962524414
40
0.0
41
0.0
42
0.0
10
76.9731979370117
20
67.0566024780273
40
0.0
41
0.0
42
0.0
10
76.9598999023438
20
67.0151977539062
40
0.0
41
0.0
42
0.0
10
76.8929977416992
20
66.5681991577148
40
0.0
41
0.0
42
0.0
10
76.861701965332
20
66.5106964111328
40
0.0
41
0.0
42
0.0
10
76.6642990112305
20
66.0639038085938
40
0.0
41
0.0
42
0.0
10
76.6187973022461
20
66.0074005126953
40
0.0
41
0.0
42
0.0
10
76.4969024658203
20
65.8292007446289
40
0.0
41
0.0
42
0.0
10
76.4476013183594
20
65.7650985717773
40
0.0
41
0.0
42
0.0
10
76.2397994995117
20
65.5524978637695
40
0.0
41
0.0
42
0.0
10
76.1748962402344
20
65.5036010742188
40
0.0
41
0.0
42
0.0
10
75.9918975830078
20
65.3466033935547
40
0.0
41
0.0
42
0.0
10
75.9083023071289
20
65.3019027709961
40
0.0
41
0.0
42
0.0
10
75.4841003417969
20
65.1426010131836
40
0.0
41
0.0
42
0.0
10
75.4303970336914
20
65.1405029296875
40
0.0
41
0.0
42
0.0
10
75.0139999389648
20
65.1766967773438
40
0.0
41
0.0
42
0.0
10
74.7790985107422
20
65.2962036132812
40
0.0
41
0.0
42
0.0
10
74.5074996948242
20
65.4412994384766
40
0.0
41
0.0
42
0.0
10
74.4409027099609
20
65.5039978027344
40
0.0
41
0.0
42
0.0
10
74.3976974487305
20
65.5390014648438
40
0.0
41
0.0
42
0.0
10
74.0604019165039
20
65.9191970825195
40
0.0
41
0.0
42
0.0
10
74.0345993041992
20
65.9395980834961
40
0.0
41
0.0
42
0.0
10
74.0034027099609
20
65.9738998413086
40
0.0
41
0.0
42
0.0
10
73.9804000854492
20
66.0073013305664
40
0.0
41
0.0
42
0.0
10
73.934196472168
20
66.0637969970703
40
0.0
41
0.0
42
0.0
10
73.7331008911133
20
66.5102996826172
40
0.0
41
0.0
42
0.0
10
73.7155990600586
20
66.540397644043
40
0.0
41
0.0
42
0.0
10
73.6427993774414
20
67.0034027099609
40
0.0
41
0.0
42
0.0
10
73.6911010742188
20
67.4660034179688
40
0.0
41
0.0
42
0.0
10
73.6911010742188
20
67.5018005371094
40
0.0
41
0.0
42
0.0
10
73.817497253418
20
67.9573974609375
40
0.0
41
0.0
42
0.0
10
73.8196029663086
20
67.9841995239258
40
0.0
41
0.0
42
0.0
210
0.0
220
0.0
230
1.0
0
LWPOLYLINE
5
2E
330
1C
100
AcDbEntity
67
0
8
0
62
256
6
ByLayer
370
-1
48
1.0
60
0
100
AcDbPolyline
90
83
70
1
38
0.0
39
0.0
10
76.4856033325195
20
76.3675994873047
40
0.0
41
0.0
42
0.0
10
76.5169982910156
20
76.3675003051758
40
0.0
41
0.0
42
0.0
10
76.8375015258789
20
76.4987030029297
40
0.0
41
0.0
42
0.0
10
77.0008010864258
20
76.5998001098633
40
0.0
41
0.0
42
0.0
10
77.470100402832
20
76.8406982421875
40
0.0
41
0.0
42
0.0
10
77.5626983642578
20
76.8760986328125
40
0.0
41
0.0
42
0.0
10
77.7757034301758
20
76.9974975585938
40
0.0
41
0.0
42
0.0
10
78.0063018798828
20
77.1708984375
40
0.0
41
0.0
42
0.0
10
78.0645980834961
20
77.195198059082
40
0.0
41
0.0
42
0.0
10
78.4786987304688
20
77.4961013793945
40
0.0
41
0.0
42
0.0
10
78.5067977905273
20
77.5231018066406
40
0.0
41
0.0
42
0.0
10
78.5683975219727
20
77.5632019042969
40
0.0
41
0.0
42
0.0
10
79.0143966674805
20
77.9369964599609
40
0.0
41
0.0
42
0.0
10
79.0290985107422
20
77.9434967041016
40
0.0
41
0.0
42
0.0
10
79.1137008666992
20
77.9970016479492
40
0.0
41
0.0
42
0.0
10
79.507698059082
20
78.318000793457
40
0.0
41
0.0
42
0.0
10
79.7907028198242
20
78.4974975585938
40
0.0
41
0.0
42
0.0
10
80.0086975097656
20
78.6448974609375
40
0.0
41
0.0
42
0.0
10
80.0932006835938
20
78.6945037841797
40
0.0
41
0.0
42
0.0
10
80.5149002075195
20
78.9148025512695
40
0.0
41
0.0
42
0.0
10
80.5615997314453
20
78.9427032470703
40
0.0
41
0.0
42
0.0
10
80.6443023681641
20
78.9981002807617
40
0.0
41
0.0
42
0.0
10
81.0093994140625
20
79.1892013549805
40
0.0
41
0.0
42
0.0
10
81.2899017333984
20
79.36669921875
40
0.0
41
0.0
42
0.0
10
81.3883972167969
20
79.440299987793
40
0.0
41
0.0
42
0.0
10
81.434196472168
20
79.4947967529297
40
0.0
41
0.0
42
0.0
10
81.5039978027344
20
79.553596496582
40
0.0
41
0.0
42
0.0
10
81.522102355957
20
79.5814971923828
40
0.0
41
0.0
42
0.0
10
81.8258972167969
20
79.9355010986328
40
0.0
41
0.0
42
0.0
10
81.842399597168
20
79.9848022460938
40
0.0
41
0.0
42
0.0
10
81.8448028564453
20
80.0012969970703
40
0.0
41
0.0
42
0.0
10
81.997802734375
20
80.3076019287109
40
0.0
41
0.0
42
0.0
10
82.0670013427734
20
80.4856033325195
40
0.0
41
0.0
42
0.0
10
82.1468963623047
20
80.946403503418
40
0.0
41
0.0
42
0.0
10
82.1500015258789
20
80.9807968139648
40
0.0
41
0.0
42
0.0
10
82.14990234375
20
81.0195007324219
40
0.0
41
0.0
42
0.0
10
82.1296997070312
20
81.4909973144531
40
0.0
41
0.0
42
0.0
10
82.1255035400391
20
81.5149993896484
40
0.0
41
0.0
42
0.0
10
82.0005035400391
20
81.9203033447266
40
0.0
41
0.0
42
0.0
10
81.9781036376953
20
81.9607009887695
40
0.0
41
0.0
42
0.0
10
81.9568023681641
20
82.007698059082
40
0.0
41
0.0
42
0.0
10
81.5084991455078
20
82.4504013061523
40
0.0
41
0.0
42
0.0
10
81.4375991821289
20
82.47509765625
40
0.0
41
0.0
42
0.0
10
81.3757019042969
20
82.5
40
0.0
41
0.0
42
0.0
10
81.0169982910156
20
82.6005020141602
40
0.0
41
0.0
42
0.0
10
80.594596862793
20
82.6011962890625
40
0.0
41
0.0
42
0.0
10
80.4820022583008
20
82.6031036376953
40
0.0
41
0.0
42
0.0
10
80.0507965087891
20
82.5095977783203
40
0.0
41
0.0
42
0.0
10
79.9853973388672
20
82.497200012207
40
0.0
41
0.0
42
0.0
10
79.9422988891602
20
82.4822998046875
40
0.0
41
0.0
42
0.0
10
79.4918975830078
20
82.2429962158203
40
0.0
41
0.0
42
0.0
10
79.2154006958008
20
82.0054016113281
40
0.0
41
0.0
42
0.0
10
79.0137023925781
20
81.7474975585938
40
0.0
41
0.0
42
0.0
10
79.0070037841797
20
81.7412033081055
40
0.0
41
0.0
42
0.0
10
78.9906005859375
20
81.7333984375
40
0.0
41
0.0
42
0.0
10
78.9605026245117
20
81.7118988037109
40
0.0
41
0.0
42
0.0
10
78.8393020629883
20
81.5102996826172
40
0.0
41
0.0
42
0.0
10
78.6427001953125
20
81.0639038085938
40
0.0
41
0.0
42
0.0
10
78.5983963012695
20
81.0090026855469
40
0.0
41
0.0
42
0.0
10
78.4987030029297
20
80.7811965942383
40
0.0
41
0.0
42
0.0
10
78.4663009643555
20
80.72509765625
40
0.0
41
0.0
42
0.0
10
78.4026031494141
20
80.5655975341797
40
0.0
41
0.0
42
0.0
10
78.3797988891602
20
80.5273971557617
40
0.0
41
0.0
42
0.0
10
78.1324996948242
20
80.0096969604492
40
0.0
41
0.0
42
0.0
10
77.9973983764648
20
79.8028030395508
40
0.0
41
0.0
42
0.0
10
77.9607009887695
20
79.7498016357422
40
0.0
41
0.0
42
0.0
10
77.8503036499023
20
79.5655975341797
40
0.0
41
0.0
42
0.0
10
77.8277969360352
20
79.5096969604492
40
0.0
41
0.0
42
0.0
10
77.494499206543
20
79.0509033203125
40
0.0
41
0.0
42
0.0
10
77.4766998291016
20
79.0098037719727
40
0.0
41
0.0
42
0.0
10
77.1719970703125
20
78.565299987793
40
0.0
41
0.0
42
0.0
10
77.1519012451172
20
78.5100021362305
40
0.0
41
0.0
42
0.0
10
77.0046005249023
20
78.3068008422852
40
0.0
41
0.0
42
0.0
10
76.9853973388672
20
78.2583999633789
40
0.0
41
0.0
42
0.0
10
76.8449020385742
20
78.0102996826172
40
0.0
41
0.0
42
0.0
10
76.6164016723633
20
77.5272979736328
40
0.0
41
0.0
42
0.0
10
76.6115036010742
20
77.5114974975586
40
0.0
41
0.0
42
0.0
10
76.5048980712891
20
77.325798034668
40
0.0
41
0.0
42
0.0
10
76.3823013305664
20
77.0139007568359
40
0.0
41
0.0
42
0.0
10
76.2744979858398
20
76.5313034057617
40
0.0
41
0.0
42
0.0
10
76.2729034423828
20
76.5186004638672
40
0.0
41
0.0
42
0.0
10
76.2727966308594
20
76.4919967651367
40
0.0
41
0.0
42
0.0
10
76.4856033325195
20
76.3675994873047
40
0.0
41
0.0
42
0.0
210
0.0
220
0.0
230
1.0
0
LWPOLYLINE
5
2F
330
1C
100
AcDbEntity
67
0
8
0
62
256
6
ByLayer
370
-1
48
1.0
60
0
100
AcDbPolyline
90
83
70
1
38
0.0
39
0.0
10
76.2864990234375
20
76.5071029663086
40
0.0
41
0.0
42
0.0
10
76.2908020019531
20
76.5385971069336
40
0.0
41
0.0
42
0.0
10
76.3908004760742
20
76.9860992431641
40
0.0
41
0.0
42
0.0
10
76.5005035400391
20
77.2674026489258
40
0.0
41
0.0
42
0.0
10
76.5232009887695
20
77.3196029663086
40
0.0
41
0.0
42
0.0
10
76.6201019287109
20
77.4885025024414
40
0.0
41
0.0
42
0.0
10
76.6372985839844
20
77.5426025390625
40
0.0
41
0.0
42
0.0
10
76.8488006591797
20
77.9896011352539
40
0.0
41
0.0
42
0.0
10
76.9858016967773
20
78.2320022583008
40
0.0
41
0.0
42
0.0
10
76.9962005615234
20
78.2518005371094
40
0.0
41
0.0
42
0.0
10
77.0028991699219
20
78.2689971923828
40
0.0
41
0.0
42
0.0
10
77.1631011962891
20
78.4898986816406
40
0.0
41
0.0
42
0.0
10
77.1685028076172
20
78.5046997070312
40
0.0
41
0.0
42
0.0
10
77.4947967529297
20
78.9813995361328
40
0.0
41
0.0
42
0.0
10
77.8636016845703
20
79.4901962280273
40
0.0
41
0.0
42
0.0
10
77.8694000244141
20
79.5044021606445
40
0.0
41
0.0
42
0.0
10
77.9919967651367
20
79.709098815918
40
0.0
41
0.0
42
0.0
10
78.1764984130859
20
79.9903030395508
40
0.0
41
0.0
42
0.0
10
78.4169998168945
20
80.4945983886719
40
0.0
41
0.0
42
0.0
10
78.4226989746094
20
80.5043029785156
40
0.0
41
0.0
42
0.0
10
78.4921035766602
20
80.6780014038086
40
0.0
41
0.0
42
0.0
10
78.5010986328125
20
80.693603515625
40
0.0
41
0.0
42
0.0
10
78.6312026977539
20
80.9908981323242
40
0.0
41
0.0
42
0.0
10
78.6436004638672
20
81.0064010620117
40
0.0
41
0.0
42
0.0
10
78.8563995361328
20
81.4896011352539
40
0.0
41
0.0
42
0.0
10
78.9935989379883
20
81.7177963256836
40
0.0
41
0.0
42
0.0
10
79.0093994140625
20
81.7286987304688
40
0.0
41
0.0
42
0.0
10
79.063102722168
20
81.7545013427734
40
0.0
41
0.0
42
0.0
10
79.0715026855469
20
81.7622985839844
40
0.0
41
0.0
42
0.0
10
79.2531967163086
20
81.994499206543
40
0.0
41
0.0
42
0.0
10
79.5080032348633
20
82.2136001586914
40
0.0
41
0.0
42
0.0
10
79.9188003540039
20
82.4318008422852
40
0.0
41
0.0
42
0.0
10
79.9477996826172
20
82.4446029663086
40
0.0
41
0.0
42
0.0
10
79.9830017089844
20
82.4561996459961
40
0.0
41
0.0
42
0.0
10
80.0156021118164
20
82.4643020629883
40
0.0
41
0.0
42
0.0
10
80.2602996826172
20
82.5065994262695
40
0.0
41
0.0
42
0.0
10
80.5136032104492
20
82.5614013671875
40
0.0
41
0.0
42
0.0
10
80.7548980712891
20
82.5550003051758
40
0.0
41
0.0
42
0.0
10
80.9828033447266
20
82.5546035766602
40
0.0
41
0.0
42
0.0
10
81.1788024902344
20
82.4998016357422
40
0.0
41
0.0
42
0.0
10
81.2125015258789
20
82.4862976074219
40
0.0
41
0.0
42
0.0
10
81.4913024902344
20
82.3893966674805
40
0.0
41
0.0
42
0.0
10
81.8934020996094
20
81.9921035766602
40
0.0
41
0.0
42
0.0
10
81.9142990112305
20
81.9458999633789
40
0.0
41
0.0
42
0.0
10
81.9992980957031
20
81.7921981811523
40
0.0
41
0.0
42
0.0
10
82.0940017700195
20
81.4849014282227
40
0.0
41
0.0
42
0.0
10
82.1119003295898
20
81.3844985961914
40
0.0
41
0.0
42
0.0
10
82.1281967163086
20
81.006103515625
40
0.0
41
0.0
42
0.0
10
82.1176986694336
20
80.8841018676758
40
0.0
41
0.0
42
0.0
10
82.053596496582
20
80.5142974853516
40
0.0
41
0.0
42
0.0
10
81.9886016845703
20
80.3455963134766
40
0.0
41
0.0
42
0.0
10
81.8503036499023
20
80.0687026977539
40
0.0
41
0.0
42
0.0
10
81.8427963256836
20
80.0152969360352
40
0.0
41
0.0
42
0.0
10
81.8358001708984
20
79.9933013916016
40
0.0
41
0.0
42
0.0
10
81.5027008056641
20
79.6052017211914
40
0.0
41
0.0
42
0.0
10
81.4957962036133
20
79.5947036743164
40
0.0
41
0.0
42
0.0
10
81.3893966674805
20
79.5050964355469
40
0.0
41
0.0
42
0.0
10
81.3764038085938
20
79.4896011352539
40
0.0
41
0.0
42
0.0
10
81.3461990356445
20
79.4670028686523
40
0.0
41
0.0
42
0.0
10
80.9905014038086
20
79.2417984008789
40
0.0
41
0.0
42
0.0
10
80.5318984985352
20
79.0018005371094
40
0.0
41
0.0
42
0.0
10
80.4965972900391
20
78.9788970947266
40
0.0
41
0.0
42
0.0
10
80.0129013061523
20
78.7261962890625
40
0.0
41
0.0
42
0.0
10
79.991096496582
20
78.7136001586914
40
0.0
41
0.0
42
0.0
10
79.6788024902344
20
78.5024032592773
40
0.0
41
0.0
42
0.0
10
79.492301940918
20
78.3831024169922
40
0.0
41
0.0
42
0.0
10
79.0255966186523
20
78.0028991699219
40
0.0
41
0.0
42
0.0
10
78.9924011230469
20
77.9817962646484
40
0.0
41
0.0
42
0.0
10
78.5091018676758
20
77.5759963989258
40
0.0
41
0.0
42
0.0
10
78.4931030273438
20
77.5655975341797
40
0.0
41
0.0
42
0.0
10
78.4284973144531
20
77.5037994384766
40
0.0
41
0.0
42
0.0
10
78.0053024291992
20
77.1961975097656
40
0.0
41
0.0
42
0.0
10
77.989501953125
20
77.189697265625
40
0.0
41
0.0
42
0.0
10
77.7404022216797
20
77.0022964477539
40
0.0
41
0.0
42
0.0
10
77.5030975341797
20
76.8668975830078
40
0.0
41
0.0
42
0.0
10
77.4718017578125
20
76.8550033569336
40
0.0
41
0.0
42
0.0
10
77.434196472168
20
76.8375015258789
40
0.0
41
0.0
42
0.0
10
76.9889984130859
20
76.6084976196289
40
0.0
41
0.0
42
0.0
10
76.9576034545898
20
76.5944976806641
40
0.0
41
0.0
42
0.0
10
76.8067016601562
20
76.5010986328125
40
0.0
41
0.0
42
0.0
10
76.5043029785156
20
76.3770980834961
40
0.0
41
0.0
42
0.0
10
76.3000030517578
20
76.4962997436523
40
0.0
41
0.0
42
0.0
10
76.2864990234375
20
76.5071029663086
40
0.0
41
0.0
42
0.0
210
0.0
220
0.0
230
1.0
0
LWPOLYLINE
5
30
330
1C
100
AcDbEntity
67
0
8
0
62
256
6
ByLayer
370
-1
48
1.0
60
0
100
AcDbPolyline
90
81
70
1
38
0.0
39
0.0
10
76.4987030029297
20
73.1623992919922
40
0.0
41
0.0
42
0.0
10
76.5997009277344
20
72.9989013671875
40
0.0
41
0.0
42
0.0
10
76.8405990600586
20
72.5298004150391
40
0.0
41
0.0
42
0.0
10
76.8760986328125
20
72.4369964599609
40
0.0
41
0.0
42
0.0
10
76.9974975585938
20
72.2240982055664
40
0.0
41
0.0
42
0.0
10
77.1707992553711
20
71.9934997558594
40
0.0
41
0.0
42
0.0
10
77.1950988769531
20
71.935302734375
40
0.0
41
0.0
42
0.0
10
77.4960021972656
20
71.5211029052734
40
0.0
41
0.0
42
0.0
10
77.5231018066406
20
71.4929962158203
40
0.0
41
0.0
42
0.0
10
77.563102722168
20
71.4312973022461
40
0.0
41
0.0
42
0.0
10
77.9317016601562
20
70.9922027587891
40
0.0
41
0.0
42
0.0
10
77.9970016479492
20
70.8860015869141
40
0.0
41
0.0
42
0.0
10
78.318000793457
20
70.4922027587891
40
0.0
41
0.0
42
0.0
10
78.4973983764648
20
70.209098815918
40
0.0
41
0.0
42
0.0
10
78.6448974609375
20
69.991096496582
40
0.0
41
0.0
42
0.0
10
78.6945037841797
20
69.9066009521484
40
0.0
41
0.0
42
0.0
10
78.9145965576172
20
69.4851989746094
40
0.0
41
0.0
42
0.0
10
78.9981002807617
20
69.3553009033203
40
0.0
41
0.0
42
0.0
10
79.1891021728516
20
68.9904022216797
40
0.0
41
0.0
42
0.0
10
79.3662033081055
20
68.7106018066406
40
0.0
41
0.0
42
0.0
10
79.4957962036133
20
68.5643005371094
40
0.0
41
0.0
42
0.0
10
79.5534973144531
20
68.4957962036133
40
0.0
41
0.0
42
0.0
10
79.5813980102539
20
68.4776000976562
40
0.0
41
0.0
42
0.0
10
79.9355010986328
20
68.1737976074219
40
0.0
41
0.0
42
0.0
10
79.9848022460938
20
68.1573028564453
40
0.0
41
0.0
42
0.0
10
80.0011978149414
20
68.1549987792969
40
0.0
41
0.0
42
0.0
10
80.307502746582
20
68.0018997192383
40
0.0
41
0.0
42
0.0
10
80.4856033325195
20
67.9327011108398
40
0.0
41
0.0
42
0.0
10
80.9462966918945
20
67.8527984619141
40
0.0
41
0.0
42
0.0
10
80.9807968139648
20
67.8498992919922
40
0.0
41
0.0
42
0.0
10
81.0195007324219
20
67.8498001098633
40
0.0
41
0.0
42
0.0
10
81.4909973144531
20
67.870002746582
40
0.0
41
0.0
42
0.0
10
81.5149993896484
20
67.8741989135742
40
0.0
41
0.0
42
0.0
10
81.9219970703125
20
67.9999008178711
40
0.0
41
0.0
42
0.0
10
81.9440002441406
20
68.007698059082
40
0.0
41
0.0
42
0.0
10
81.9506988525391
20
68.0130004882812
40
0.0
41
0.0
42
0.0
10
82.0000991821289
20
68.035400390625
40
0.0
41
0.0
42
0.0
10
82.4520034790039
20
68.4929962158203
40
0.0
41
0.0
42
0.0
10
82.4589004516602
20
68.5043029785156
40
0.0
41
0.0
42
0.0
10
82.4863967895508
20
68.5728988647461
40
0.0
41
0.0
42
0.0
10
82.6005020141602
20
68.9828033447266
40
0.0
41
0.0
42
0.0
10
82.6011962890625
20
69.4051971435547
40
0.0
41
0.0
42
0.0
10
82.6031036376953
20
69.5178985595703
40
0.0
41
0.0
42
0.0
10
82.5095977783203
20
69.9489974975586
40
0.0
41
0.0
42
0.0
10
82.4965972900391
20
70.0164031982422
40
0.0
41
0.0
42
0.0
10
82.4822998046875
20
70.057502746582
40
0.0
41
0.0
42
0.0
10
82.2428970336914
20
70.5080032348633
40
0.0
41
0.0
42
0.0
10
82.0053024291992
20
70.7843017578125
40
0.0
41
0.0
42
0.0
10
81.7472991943359
20
70.9860992431641
40
0.0
41
0.0
42
0.0
10
81.741096496582
20
70.9931030273438
40
0.0
41
0.0
42
0.0
10
81.7333984375
20
71.0092010498047
40
0.0
41
0.0
42
0.0
10
81.7118988037109
20
71.0392990112305
40
0.0
41
0.0
42
0.0
10
81.5102005004883
20
71.160400390625
40
0.0
41
0.0
42
0.0
10
81.0639038085938
20
71.3570022583008
40
0.0
41
0.0
42
0.0
10
81.008903503418
20
71.4013977050781
40
0.0
41
0.0
42
0.0
10
80.7811965942383
20
71.5011978149414
40
0.0
41
0.0
42
0.0
10
80.72509765625
20
71.5334014892578
40
0.0
41
0.0
42
0.0
10
80.5655975341797
20
71.5970993041992
40
0.0
41
0.0
42
0.0
10
80.5273971557617
20
71.620002746582
40
0.0
41
0.0
42
0.0
10
80.0095977783203
20
71.8672027587891
40
0.0
41
0.0
42
0.0
10
79.8028030395508
20
72.0025024414062
40
0.0
41
0.0
42
0.0
10
79.7497024536133
20
72.0390014648438
40
0.0
41
0.0
42
0.0
10
79.5655975341797
20
72.1493988037109
40
0.0
41
0.0
42
0.0
10
79.5096969604492
20
72.1718978881836
40
0.0
41
0.0
42
0.0
10
79.0509033203125
20
72.5053024291992
40
0.0
41
0.0
42
0.0
10
79.0096969604492
20
72.5230026245117
40
0.0
41
0.0
42
0.0
10
78.5652008056641
20
72.8277969360352
40
0.0
41
0.0
42
0.0
10
78.5100021362305
20
72.8478012084961
40
0.0
41
0.0
42
0.0
10
78.3067016601562
20
72.9951019287109
40
0.0
41
0.0
42
0.0
10
78.25830078125
20
73.0142974853516
40
0.0
41
0.0
42
0.0
10
78.0114974975586
20
73.1539993286133
40
0.0
41
0.0
42
0.0
10
77.9972991943359
20
73.1585006713867
40
0.0
41
0.0
42
0.0
10
77.5102005004883
20
73.3889007568359
40
0.0
41
0.0
42
0.0
10
77.325798034668
20
73.4947967529297
40
0.0
41
0.0
42
0.0
10
77.0147018432617
20
73.6169967651367
40
0.0
41
0.0
42
0.0
10
77.0012969970703
20
73.6187973022461
40
0.0
41
0.0
42
0.0
10
76.5176010131836
20
73.7269973754883
40
0.0
41
0.0
42
0.0
10
76.4919967651367
20
73.7268981933594
40
0.0
41
0.0
42
0.0
10
76.3675994873047
20
73.5142974853516
40
0.0
41
0.0
42
0.0
10
76.3675003051758
20
73.4841003417969
40
0.0
41
0.0
42
0.0
10
76.4987030029297
20
73.1623992919922
40
0.0
41
0.0
42
0.0
210
0.0
220
0.0
230
1.0
0
LWPOLYLINE
5
31
330
1C
100
AcDbEntity
67
0
8
0
62
256
6
ByLayer
370
-1
48
1.0
60
0
100
AcDbPolyline
90
82
70
1
38
0.0
39
0.0
10
76.5037002563477
20
73.711799621582
40
0.0
41
0.0
42
0.0
10
76.928596496582
20
73.6168975830078
40
0.0
41
0.0
42
0.0
10
76.9851989746094
20
73.6093978881836
40
0.0
41
0.0
42
0.0
10
77.2674026489258
20
73.4992980957031
40
0.0
41
0.0
42
0.0
10
77.3196029663086
20
73.4765014648438
40
0.0
41
0.0
42
0.0
10
77.4896011352539
20
73.3788986206055
40
0.0
41
0.0
42
0.0
10
77.9326019287109
20
73.1692962646484
40
0.0
41
0.0
42
0.0
10
77.9882965087891
20
73.1516036987305
40
0.0
41
0.0
42
0.0
10
78.2319030761719
20
73.0139007568359
40
0.0
41
0.0
42
0.0
10
78.2524032592773
20
73.0031967163086
40
0.0
41
0.0
42
0.0
10
78.2688980102539
20
72.9968032836914
40
0.0
41
0.0
42
0.0
10
78.4898986816406
20
72.8366012573242
40
0.0
41
0.0
42
0.0
10
78.5046005249023
20
72.8311996459961
40
0.0
41
0.0
42
0.0
10
78.9813003540039
20
72.5048980712891
40
0.0
41
0.0
42
0.0
10
79.4901962280273
20
72.136100769043
40
0.0
41
0.0
42
0.0
10
79.5043029785156
20
72.1303024291992
40
0.0
41
0.0
42
0.0
10
79.709098815918
20
72.007698059082
40
0.0
41
0.0
42
0.0
10
79.9901962280273
20
71.8231964111328
40
0.0
41
0.0
42
0.0
10
80.4489974975586
20
71.6045989990234
40
0.0
41
0.0
42
0.0
10
80.5035018920898
20
71.5773010253906
40
0.0
41
0.0
42
0.0
10
80.6779022216797
20
71.507698059082
40
0.0
41
0.0
42
0.0
10
80.6934967041016
20
71.4987030029297
40
0.0
41
0.0
42
0.0
10
80.9908981323242
20
71.3684997558594
40
0.0
41
0.0
42
0.0
10
81.0064010620117
20
71.3561019897461
40
0.0
41
0.0
42
0.0
10
81.4896011352539
20
71.1433029174805
40
0.0
41
0.0
42
0.0
10
81.7177963256836
20
71.0062026977539
40
0.0
41
0.0
42
0.0
10
81.7286987304688
20
70.9905014038086
40
0.0
41
0.0
42
0.0
10
81.7545013427734
20
70.9367980957031
40
0.0
41
0.0
42
0.0
10
81.7622985839844
20
70.9282989501953
40
0.0
41
0.0
42
0.0
10
81.994499206543
20
70.7465972900391
40
0.0
41
0.0
42
0.0
10
82.2135009765625
20
70.4917984008789
40
0.0
41
0.0
42
0.0
10
82.4320983886719
20
70.0802993774414
40
0.0
41
0.0
42
0.0
10
82.4456024169922
20
70.0412979125977
40
0.0
41
0.0
42
0.0
10
82.4559020996094
20
70.0177001953125
40
0.0
41
0.0
42
0.0
10
82.4643020629883
20
69.9842987060547
40
0.0
41
0.0
42
0.0
10
82.5065002441406
20
69.739501953125
40
0.0
41
0.0
42
0.0
10
82.5614013671875
20
69.4862976074219
40
0.0
41
0.0
42
0.0
10
82.5550003051758
20
69.2449035644531
40
0.0
41
0.0
42
0.0
10
82.5546035766602
20
69.0170974731445
40
0.0
41
0.0
42
0.0
10
82.5000991821289
20
68.8223037719727
40
0.0
41
0.0
42
0.0
10
82.4501037597656
20
68.6336975097656
40
0.0
41
0.0
42
0.0
10
82.4172973632812
20
68.5529022216797
40
0.0
41
0.0
42
0.0
10
82.3876037597656
20
68.5066986083984
40
0.0
41
0.0
42
0.0
10
81.9644012451172
20
68.0783996582031
40
0.0
41
0.0
42
0.0
10
81.9167022705078
20
68.0568008422852
40
0.0
41
0.0
42
0.0
10
81.888801574707
20
68.0348968505859
40
0.0
41
0.0
42
0.0
10
81.7906036376953
20
68.0
40
0.0
41
0.0
42
0.0
10
81.4849014282227
20
67.9057006835938
40
0.0
41
0.0
42
0.0
10
81.3845977783203
20
67.8878021240234
40
0.0
41
0.0
42
0.0
10
81.006103515625
20
67.8714981079102
40
0.0
41
0.0
42
0.0
10
80.8841018676758
20
67.8820037841797
40
0.0
41
0.0
42
0.0
10
80.5142974853516
20
67.9460983276367
40
0.0
41
0.0
42
0.0
10
80.3455963134766
20
68.011100769043
40
0.0
41
0.0
42
0.0
10
80.068603515625
20
68.1493988037109
40
0.0
41
0.0
42
0.0
10
80.0151977539062
20
68.1568984985352
40
0.0
41
0.0
42
0.0
10
79.9933013916016
20
68.1639022827148
40
0.0
41
0.0
42
0.0
10
79.6051025390625
20
68.4971008300781
40
0.0
41
0.0
42
0.0
10
79.5947036743164
20
68.5040969848633
40
0.0
41
0.0
42
0.0
10
79.4673004150391
20
68.6529998779297
40
0.0
41
0.0
42
0.0
10
79.24169921875
20
69.0093994140625
40
0.0
41
0.0
42
0.0
10
79.0017013549805
20
69.4677963256836
40
0.0
41
0.0
42
0.0
10
78.9788970947266
20
69.5031967163086
40
0.0
41
0.0
42
0.0
10
78.7261962890625
20
69.9869995117188
40
0.0
41
0.0
42
0.0
10
78.7135009765625
20
70.0087966918945
40
0.0
41
0.0
42
0.0
10
78.5024032592773
20
70.3209991455078
40
0.0
41
0.0
42
0.0
10
78.3831024169922
20
70.5075988769531
40
0.0
41
0.0
42
0.0
10
78.002799987793
20
70.9741973876953
40
0.0
41
0.0
42
0.0
10
77.9816970825195
20
71.0074996948242
40
0.0
41
0.0
42
0.0
10
77.5758972167969
20
71.4906997680664
40
0.0
41
0.0
42
0.0
10
77.5654983520508
20
71.5067977905273
40
0.0
41
0.0
42
0.0
10
77.5037994384766
20
71.5711975097656
40
0.0
41
0.0
42
0.0
10
77.1961975097656
20
71.9945983886719
40
0.0
41
0.0
42
0.0
10
77.1895980834961
20
72.0102005004883
40
0.0
41
0.0
42
0.0
10
77.0022964477539
20
72.2593002319336
40
0.0
41
0.0
42
0.0
10
76.8668975830078
20
72.496696472168
40
0.0
41
0.0
42
0.0
10
76.8554992675781
20
72.5268020629883
40
0.0
41
0.0
42
0.0
10
76.83740234375
20
72.5656967163086
40
0.0
41
0.0
42
0.0
10
76.6084976196289
20
73.0109024047852
40
0.0
41
0.0
42
0.0
10
76.5944976806641
20
73.0421981811523
40
0.0
41
0.0
42
0.0
10
76.5010986328125
20
73.193000793457
40
0.0
41
0.0
42
0.0
10
76.377197265625
20
73.4954986572266
40
0.0
41
0.0
42
0.0
10
76.5037002563477
20
73.711799621582
40
0.0
41
0.0
42
0.0
210
0.0
220
0.0
230
1.0
0
LWPOLYLINE
5
32
330
1C
100
AcDbEntity
67
0
8
0
62
256
6
ByLayer
370
-1
48
1.0
60
0
100
AcDbPolyline
90
83
70
1
38
0.0
39
0.0
10
76.9851989746094
20
74.8989028930664
40
0.0
41
0.0
42
0.0
10
77.4711990356445
20
74.755500793457
40
0.0
41
0.0
42
0.0
10
77.9514999389648
20
74.5961990356445
40
0.0
41
0.0
42
0.0
10
77.9876022338867
20
74.5777969360352
40
0.0
41
0.0
42
0.0
10
78.2544021606445
20
74.5035018920898
40
0.0
41
0.0
42
0.0
10
78.3095016479492
20
74.4776000976562
40
0.0
41
0.0
42
0.0
10
78.4845962524414
20
74.4253997802734
40
0.0
41
0.0
42
0.0
10
78.9303970336914
20
74.3550033569336
40
0.0
41
0.0
42
0.0
10
78.9845962524414
20
74.3343963623047
40
0.0
41
0.0
42
0.0
10
79.4292984008789
20
74.2970962524414
40
0.0
41
0.0
42
0.0
10
79.4856033325195
20
74.2776031494141
40
0.0
41
0.0
42
0.0
10
79.5814971923828
20
74.2572021484375
40
0.0
41
0.0
42
0.0
10
79.9824981689453
20
74.2320022583008
40
0.0
41
0.0
42
0.0
10
80.1288986206055
20
74.2046966552734
40
0.0
41
0.0
42
0.0
10
80.4832000732422
20
74.1703033447266
40
0.0
41
0.0
42
0.0
10
80.7469024658203
20
74.1140975952148
40
0.0
41
0.0
42
0.0
10
80.9847030639648
20
74.0709991455078
40
0.0
41
0.0
42
0.0
10
81.428596496582
20
73.9437026977539
40
0.0
41
0.0
42
0.0
10
81.4841995239258
20
73.9311981201172
40
0.0
41
0.0
42
0.0
10
81.5703964233398
20
73.9147033691406
40
0.0
41
0.0
42
0.0
10
81.5964965820312
20
73.9073028564453
40
0.0
41
0.0
42
0.0
10
81.9841995239258
20
73.7755966186523
40
0.0
41
0.0
42
0.0
10
82.0877990722656
20
73.7677993774414
40
0.0
41
0.0
42
0.0
10
82.4828033447266
20
73.6577987670898
40
0.0
41
0.0
42
0.0
10
82.5162963867188
20
73.6576995849609
40
0.0
41
0.0
42
0.0
10
82.5633010864258
20
73.6743011474609
40
0.0
41
0.0
42
0.0
10
82.9810028076172
20
73.6307983398438
40
0.0
41
0.0
42
0.0
10
83.0183029174805
20
73.6306991577148
40
0.0
41
0.0
42
0.0
10
83.4589004516602
20
73.7001037597656
40
0.0
41
0.0
42
0.0
10
83.4953002929688
20
73.7164993286133
40
0.0
41
0.0
42
0.0
10
83.5102996826172
20
73.7251968383789
40
0.0
41
0.0
42
0.0
10
83.9937973022461
20
73.9429016113281
40
0.0
41
0.0
42
0.0
10
84.0073013305664
20
73.9539031982422
40
0.0
41
0.0
42
0.0
10
84.0681991577148
20
73.9960021972656
40
0.0
41
0.0
42
0.0
10
84.0817031860352
20
74.0101013183594
40
0.0
41
0.0
42
0.0
10
84.4956970214844
20
74.3777008056641
40
0.0
41
0.0
42
0.0
10
84.6023025512695
20
74.492301940918
40
0.0
41
0.0
42
0.0
10
84.8343963623047
20
74.9265975952148
40
0.0
41
0.0
42
0.0
10
84.864501953125
20
74.9859008789062
40
0.0
41
0.0
42
0.0
10
84.9056015014648
20
75.4597015380859
40
0.0
41
0.0
42
0.0
10
84.904899597168
20
75.515998840332
40
0.0
41
0.0
42
0.0
10
84.7272033691406
20
75.9893035888672
40
0.0
41
0.0
42
0.0
10
84.7173004150391
20
76.0080032348633
40
0.0
41
0.0
42
0.0
10
84.5046005249023
20
76.2562026977539
40
0.0
41
0.0
42
0.0
10
84.2519989013672
20
76.5036010742188
40
0.0
41
0.0
42
0.0
10
84.0074005126953
20
76.6709976196289
40
0.0
41
0.0
42
0.0
10
83.993896484375
20
76.6819000244141
40
0.0
41
0.0
42
0.0
10
83.5106964111328
20
76.8955001831055
40
0.0
41
0.0
42
0.0
10
83.4981994628906
20
76.9021987915039
40
0.0
41
0.0
42
0.0
10
83.0150985717773
20
76.9745025634766
40
0.0
41
0.0
42
0.0
10
83.0017013549805
20
76.9789962768555
40
0.0
41
0.0
42
0.0
10
82.9651031494141
20
76.9788970947266
40
0.0
41
0.0
42
0.0
10
82.927001953125
20
76.9763031005859
40
0.0
41
0.0
42
0.0
10
82.4845962524414
20
76.9201965332031
40
0.0
41
0.0
42
0.0
10
82.0474014282227
20
76.776496887207
40
0.0
41
0.0
42
0.0
10
82.018798828125
20
76.7798004150391
40
0.0
41
0.0
42
0.0
10
81.9806976318359
20
76.7797012329102
40
0.0
41
0.0
42
0.0
10
81.9299011230469
20
76.7761001586914
40
0.0
41
0.0
42
0.0
10
81.486198425293
20
76.5891036987305
40
0.0
41
0.0
42
0.0
10
81.4312973022461
20
76.5775985717773
40
0.0
41
0.0
42
0.0
10
81.2535018920898
20
76.5005035400391
40
0.0
41
0.0
42
0.0
10
80.9869003295898
20
76.3992004394531
40
0.0
41
0.0
42
0.0
10
80.9041976928711
20
76.3723983764648
40
0.0
41
0.0
42
0.0
10
80.4860992431641
20
76.2574996948242
40
0.0
41
0.0
42
0.0
10
80.4301986694336
20
76.238899230957
40
0.0
41
0.0
42
0.0
10
79.9853973388672
20
76.1569976806641
40
0.0
41
0.0
42
0.0
10
79.9300994873047
20
76.1372985839844
40
0.0
41
0.0
42
0.0
10
79.4859008789062
20
76.0699996948242
40
0.0
41
0.0
42
0.0
10
79.4316024780273
20
76.0457000732422
40
0.0
41
0.0
42
0.0
10
79.3714981079102
20
76.0322036743164
40
0.0
41
0.0
42
0.0
10
79.2030029296875
20
75.9992980957031
40
0.0
41
0.0
42
0.0
10
78.9860992431641
20
75.9600982666016
40
0.0
41
0.0
42
0.0
10
78.9316024780273
20
75.9363021850586
40
0.0
41
0.0
42
0.0
10
78.4866027832031
20
75.8330993652344
40
0.0
41
0.0
42
0.0
10
78.470703125
20
75.8262023925781
40
0.0
41
0.0
42
0.0
10
77.9866027832031
20
75.6872024536133
40
0.0
41
0.0
42
0.0
10
77.4990005493164
20
75.5012969970703
40
0.0
41
0.0
42
0.0
10
77.491096496582
20
75.4954986572266
40
0.0
41
0.0
42
0.0
10
77.4753036499023
20
75.4872970581055
40
0.0
41
0.0
42
0.0
10
76.989501953125
20
75.1606979370117
40
0.0
41
0.0
42
0.0
10
76.5454025268555
20
75.0050964355469
40
0.0
41
0.0
42
0.0
10
76.5451965332031
20
74.996696472168
40
0.0
41
0.0
42
0.0
10
76.9851989746094
20
74.8989028930664
40
0.0
41
0.0
42
0.0
210
0.0
220
0.0
230
1.0
0
LWPOLYLINE
5
33
330
1C
100
AcDbEntity
67
0
8
0
62
256
6
ByLayer
370
-1
48
1.0
60
0
100
AcDbPolyline
90
78
70
1
38
0.0
39
0.0
10
77.010498046875
20
75.1482009887695
40
0.0
41
0.0
42
0.0
10
77.4542999267578
20
75.446403503418
40
0.0
41
0.0
42
0.0
10
77.508903503418
20
75.4747009277344
40
0.0
41
0.0
42
0.0
10
77.5419998168945
20
75.4985961914062
40
0.0
41
0.0
42
0.0
10
77.9880981445312
20
75.6677017211914
40
0.0
41
0.0
42
0.0
10
78.0120010375977
20
75.6803970336914
40
0.0
41
0.0
42
0.0
10
78.4578018188477
20
75.8085021972656
40
0.0
41
0.0
42
0.0
10
78.513298034668
20
75.8329010009766
40
0.0
41
0.0
42
0.0
10
78.9983978271484
20
75.9453964233398
40
0.0
41
0.0
42
0.0
10
79.013801574707
20
75.9521026611328
40
0.0
41
0.0
42
0.0
10
79.2817001342773
20
76.000602722168
40
0.0
41
0.0
42
0.0
10
79.4982986450195
20
76.0434036254883
40
0.0
41
0.0
42
0.0
10
79.5139007568359
20
76.0503997802734
40
0.0
41
0.0
42
0.0
10
79.9998016357422
20
76.1240005493164
40
0.0
41
0.0
42
0.0
10
80.0145034790039
20
76.1292037963867
40
0.0
41
0.0
42
0.0
10
80.5001983642578
20
76.2186965942383
40
0.0
41
0.0
42
0.0
10
80.9916000366211
20
76.3544998168945
40
0.0
41
0.0
42
0.0
10
81.0130004882812
20
76.3615036010742
40
0.0
41
0.0
42
0.0
10
81.3760986328125
20
76.499397277832
40
0.0
41
0.0
42
0.0
10
81.4985961914062
20
76.5522003173828
40
0.0
41
0.0
42
0.0
10
81.5137023925781
20
76.5553970336914
40
0.0
41
0.0
42
0.0
10
81.9991989135742
20
76.7600021362305
40
0.0
41
0.0
42
0.0
10
82.0322036743164
20
76.7602996826172
40
0.0
41
0.0
42
0.0
10
82.5152969360352
20
76.9190979003906
40
0.0
41
0.0
42
0.0
10
82.9432983398438
20
76.9731979370117
40
0.0
41
0.0
42
0.0
10
82.9847030639648
20
76.9598999023438
40
0.0
41
0.0
42
0.0
10
83.4317016601562
20
76.8928985595703
40
0.0
41
0.0
42
0.0
10
83.4891967773438
20
76.861701965332
40
0.0
41
0.0
42
0.0
10
83.9358978271484
20
76.6642990112305
40
0.0
41
0.0
42
0.0
10
83.9924011230469
20
76.6187973022461
40
0.0
41
0.0
42
0.0
10
84.1716003417969
20
76.4962005615234
40
0.0
41
0.0
42
0.0
10
84.3239974975586
20
76.3475036621094
40
0.0
41
0.0
42
0.0
10
84.4953002929688
20
76.1760025024414
40
0.0
41
0.0
42
0.0
10
84.6531982421875
20
75.9918975830078
40
0.0
41
0.0
42
0.0
10
84.6977996826172
20
75.9083023071289
40
0.0
41
0.0
42
0.0
10
84.8571014404297
20
75.4841003417969
40
0.0
41
0.0
42
0.0
10
84.8591995239258
20
75.4303970336914
40
0.0
41
0.0
42
0.0
10
84.822998046875
20
75.0140991210938
40
0.0
41
0.0
42
0.0
10
84.7035980224609
20
74.7790985107422
40
0.0
41
0.0
42
0.0
10
84.5584030151367
20
74.5075988769531
40
0.0
41
0.0
42
0.0
10
84.4957962036133
20
74.4410018920898
40
0.0
41
0.0
42
0.0
10
84.4607009887695
20
74.3977966308594
40
0.0
41
0.0
42
0.0
10
84.0805969238281
20
74.0605010986328
40
0.0
41
0.0
42
0.0
10
84.0602035522461
20
74.0346984863281
40
0.0
41
0.0
42
0.0
10
84.0258026123047
20
74.0035018920898
40
0.0
41
0.0
42
0.0
10
83.9925994873047
20
73.9804992675781
40
0.0
41
0.0
42
0.0
10
83.9360961914062
20
73.934196472168
40
0.0
41
0.0
42
0.0
10
83.4896011352539
20
73.7331008911133
40
0.0
41
0.0
42
0.0
10
83.4595031738281
20
73.7155990600586
40
0.0
41
0.0
42
0.0
10
82.9968032836914
20
73.6427993774414
40
0.0
41
0.0
42
0.0
10
82.5337982177734
20
73.6911010742188
40
0.0
41
0.0
42
0.0
10
82.4979019165039
20
73.6911010742188
40
0.0
41
0.0
42
0.0
10
82.0447006225586
20
73.8173980712891
40
0.0
41
0.0
42
0.0
10
82.0157012939453
20
73.8196029663086
40
0.0
41
0.0
42
0.0
10
81.5602035522461
20
73.9744033813477
40
0.0
41
0.0
42
0.0
10
81.5031967163086
20
73.9881973266602
40
0.0
41
0.0
42
0.0
10
81.0151977539062
20
74.127197265625
40
0.0
41
0.0
42
0.0
10
80.5876007080078
20
74.2044982910156
40
0.0
41
0.0
42
0.0
10
80.5167007446289
20
74.219596862793
40
0.0
41
0.0
42
0.0
10
80.0568008422852
20
74.2641983032227
40
0.0
41
0.0
42
0.0
10
80.0174026489258
20
74.2714996337891
40
0.0
41
0.0
42
0.0
10
79.5439987182617
20
74.3013000488281
40
0.0
41
0.0
42
0.0
10
79.5141983032227
20
74.3076019287109
40
0.0
41
0.0
42
0.0
10
79.5005035400391
20
74.3125
40
0.0
41
0.0
42
0.0
10
79.0151977539062
20
74.3531036376953
40
0.0
41
0.0
42
0.0
10
78.9994964599609
20
74.3591003417969
40
0.0
41
0.0
42
0.0
10
78.5152969360352
20
74.4356002807617
40
0.0
41
0.0
42
0.0
10
78.3184967041016
20
74.4942016601562
40
0.0
41
0.0
42
0.0
10
78.3037033081055
20
74.5010986328125
40
0.0
41
0.0
42
0.0
10
78.0122985839844
20
74.5823974609375
40
0.0
41
0.0
42
0.0
10
77.9961013793945
20
74.5905990600586
40
0.0
41
0.0
42
0.0
10
77.9576034545898
20
74.6064987182617
40
0.0
41
0.0
42
0.0
10
77.5130004882812
20
74.7534027099609
40
0.0
41
0.0
42
0.0
10
77.4582977294922
20
74.7733993530273
40
0.0
41
0.0
42
0.0
10
77.0147018432617
20
74.9044036865234
40
0.0
41
0.0
42
0.0
10
76.6215972900391
20
74.9917984008789
40
0.0
41
0.0
42
0.0
10
76.6203994750977
20
75.0113983154297
40
0.0
41
0.0
42
0.0
10
77.010498046875
20
75.1482009887695
40
0.0
41
0.0
42
0.0
210
0.0
220
0.0
230
1.0
0
LWPOLYLINE
5
34
330
1C
100
AcDbEntity
67
0
8
0
62
256
6
ByLayer
370
-1
48
1.0
60
0
100
AcDbPolyline
90
28
70
1
38
0.0
39
0.0
10
82.5496978759766
20
84.9990005493164
40
0.0
41
0.0
42
0.0
10
82.5496978759766
20
84.9863967895508
40
0.0
41
0.0
42
0.0
10
82.8506011962891
20
84.5466003417969
40
0.0
41
0.0
42
0.0
10
82.9046020507812
20
84.4628982543945
40
0.0
41
0.0
42
0.0
10
82.9960021972656
20
84.3394012451172
40
0.0
41
0.0
42
0.0
10
83.3001022338867
20
84.0199966430664
40
0.0
41
0.0
42
0.0
10
83.3215026855469
20
83.993896484375
40
0.0
41
0.0
42
0.0
10
83.3536987304688
20
83.9606018066406
40
0.0
41
0.0
42
0.0
10
83.4926986694336
20
83.8404006958008
40
0.0
41
0.0
42
0.0
10
83.9372024536133
20
83.5410995483398
40
0.0
41
0.0
42
0.0
10
83.9918975830078
20
83.499397277832
40
0.0
41
0.0
42
0.0
10
84.0286026000977
20
83.4764022827148
40
0.0
41
0.0
42
0.0
10
84.4354019165039
20
83.2519989013672
40
0.0
41
0.0
42
0.0
10
84.4901962280273
20
83.2190017700195
40
0.0
41
0.0
42
0.0
10
84.9671020507812
20
82.9691009521484
40
0.0
41
0.0
42
0.0
10
84.9848022460938
20
82.9605026245117
40
0.0
41
0.0
42
0.0
10
84.9990005493164
20
82.9605026245117
40
0.0
41
0.0
42
0.0
10
84.9988021850586
20
82.9870986938477
40
0.0
41
0.0
42
0.0
10
84.5100021362305
20
83.2417984008789
40
0.0
41
0.0
42
0.0
10
84.0505981445312
20
83.4957962036133
40
0.0
41
0.0
42
0.0
10
84.0078964233398
20
83.5223999023438
40
0.0
41
0.0
42
0.0
10
83.9926986694336
20
83.5341033935547
40
0.0
41
0.0
42
0.0
10
83.5071029663086
20
83.8610992431641
40
0.0
41
0.0
42
0.0
10
83.3522033691406
20
83.9952011108398
40
0.0
41
0.0
42
0.0
10
83.0037994384766
20
84.3620986938477
40
0.0
41
0.0
42
0.0
10
82.9020004272461
20
84.4998016357422
40
0.0
41
0.0
42
0.0
10
82.5614013671875
20
84.9990005493164
40
0.0
41
0.0
42
0.0
10
82.5496978759766
20
84.9990005493164
40
0.0
41
0.0
42
0.0
210
0.0
220
0.0
230
1.0
0
LWPOLYLINE
5
35
330
1C
100
AcDbEntity
67
0
8
0
62
256
6
ByLayer
370
-1
48
1.0
60
0
100
AcDbPolyline
90
27
70
1
38
0.0
39
0.0
10
82.9605026245117
20
65.0149993896484
40
0.0
41
0.0
42
0.0
10
82.9605026245117
20
65.0009994506836
40
0.0
41
0.0
42
0.0
10
82.9871978759766
20
65.0009994506836
40
0.0
41
0.0
42
0.0
10
83.2418975830078
20
65.4898986816406
40
0.0
41
0.0
42
0.0
10
83.4959030151367
20
65.9490966796875
40
0.0
41
0.0
42
0.0
10
83.5224990844727
20
65.9918975830078
40
0.0
41
0.0
42
0.0
10
83.5341033935547
20
66.0072021484375
40
0.0
41
0.0
42
0.0
10
83.861198425293
20
66.4926986694336
40
0.0
41
0.0
42
0.0
10
83.9952011108398
20
66.6475982666016
40
0.0
41
0.0
42
0.0
10
84.3621978759766
20
66.9960021972656
40
0.0
41
0.0
42
0.0
10
84.4999008178711
20
67.0978012084961
40
0.0
41
0.0
42
0.0
10
84.9990005493164
20
67.4384002685547
40
0.0
41
0.0
42
0.0
10
84.9990005493164
20
67.4501037597656
40
0.0
41
0.0
42
0.0
10
84.9860000610352
20
67.4501037597656
40
0.0
41
0.0
42
0.0
10
84.9365005493164
20
67.4189987182617
40
0.0
41
0.0
42
0.0
10
84.4632034301758
20
67.0953979492188
40
0.0
41
0.0
42
0.0
10
84.3395004272461
20
67.0037994384766
40
0.0
41
0.0
42
0.0
10
84.0199966430664
20
66.6996994018555
40
0.0
41
0.0
42
0.0
10
83.9940032958984
20
66.6782989501953
40
0.0
41
0.0
42
0.0
10
83.9606018066406
20
66.6460037231445
40
0.0
41
0.0
42
0.0
10
83.8404998779297
20
66.5072021484375
40
0.0
41
0.0
42
0.0
10
83.5411987304688
20
66.0626983642578
40
0.0
41
0.0
42
0.0
10
83.4994964599609
20
66.0080032348633
40
0.0
41
0.0
42
0.0
10
83.4764022827148
20
65.9712982177734
40
0.0
41
0.0
42
0.0
10
83.2519989013672
20
65.5644989013672
40
0.0
41
0.0
42
0.0
10
83.2191009521484
20
65.5095977783203
40
0.0
41
0.0
42
0.0
10
82.9605026245117
20
65.0149993896484
40
0.0
41
0.0
42
0.0
210
0.0
220
0.0
230
1.0
0
VIEWPORT
5
3A
330
36
100
AcDbEntity
67
1
8
0
62
256
6
ByLayer
370
-1
48
1.0
60
0
100
AcDbViewport
10
0.0
20
0.0
30
0.0
40
297.0
41
210.0
68
1
69
1
12
50.0
22
100.0
13
0.0
23
0.0
14
10.0
24
10.0
15
10.0
25
10.0
16
0.0
26
0.0
36
1.0
17
0.0
27
0.0
37
0.0
42
50.0
43
0.0
44
0.0
45
250.0
50
0.0
51
0.0
72
1000
90
819232
110
0.0
120
0.0
130
0.0
111
1.0
121
0.0
131
0.0
112
0.0
122
1.0
132
0.0
0
ENDSEC
0
SECTION
2
OBJECTS
0
DICTIONARY
5
40
330
0
100
AcDbDictionary
280
1
281
1
3
ACAD_GROUP
350
12
3
ACAD_LAYOUT
350
39
3
ACAD_DGNDEFINITIONS
350
F
3
ACAD_DWFDEFINITIONS
350
10
3
ACAD_PDFDEFINITIONS
350
11
3
ACAD_MLINESTYLE
350
B
3
ACAD_IMAGE_DICT
350
E
3
ACAD_IMAGE_VARS
350
21
0
DICTIONARY
5
12
330
40
100
AcDbDictionary
280
1
281
1
0
DICTIONARY
5
39
330
40
100
AcDbDictionary
280
1
281
1
3
Model
350
20
3
Layout1
350
3B
0
DICTIONARY
5
F
330
40
100
AcDbDictionary
280
1
281
1
0
DICTIONARY
5
10
330
40
100
AcDbDictionary
280
1
281
1
0
DICTIONARY
5
11
330
40
100
AcDbDictionary
280
1
281
1
0
DICTIONARY
5
B
330
40
100
AcDbDictionary
280
1
281
1
3
Standard
350
1B
0
DICTIONARY
5
E
330
40
100
AcDbDictionary
280
1
281
1
0
DICTIONARY
5
6
330
5
100
AcDbDictionary
280
1
281
1
3
ACAD_LAYERSTATES
360
41
0
DICTIONARY
5
41
330
6
100
AcDbDictionary
280
1
281
1
0
LAYOUT
5
20
330
39
100
AcDbPlotSettings
1

2
none_device
4
ISO_A4_(210.00_x_297.00_MM)
6

40
7.5
41
20.0
42
7.5
43
20.0
44
210.0
45
297.0
46
0.0
47
0.0
48
0.0
49
0.0
140
0.0
141
0.0
142
1.0
143
1.0
70
11952
72
1
73
1
74
1
7

75
0
76
0
77
2
78
300
147
1.0
148
0.0
149
0.0
100
AcDbLayout
1
Model
71
0
10
-20.0
20
-7.5
11
277.0
21
202.5
12
0.0
22
0.0
32
0.0
14
25.7
24
19.5
34
0.0
15
231.3
25
175.5
35
0.0
146
0.0
13
0.0
23
0.0
33
0.0
16
1.0
26
0.0
36
0.0
17
0.0
27
1.0
37
0.0
76
0
330
1C
0
LAYOUT
5
3B
330
39
100
AcDbPlotSettings
1

2
none_device
4
ISO_A4_(210.00_x_297.00_MM)
6

40
7.5
41
20.0
42
7.5
43
20.0
44
210.0
45
297.0
46
0.0
47
0.0
48
0.0
49
0.0
140
0.0
141
0.0
142
1.0
143
1.0
70
688
72
1
73
1
74
1
7

75
0
76
0
77
2
78
300
147
1.0
148
0.0
149
0.0
100
AcDbLayout
1
Layout1
71
1
10
-20.0
20
-7.5
11
277.0
21
202.5
12
0.0
22
0.0
32
0.0
14
25.7
24
19.5
34
0.0
15
231.3
25
175.5
35
0.0
146
0.0
13
0.0
23
0.0
33
0.0
16
1.0
26
0.0
36
0.0
17
0.0
27
1.0
37
0.0
76
0
330
36
0
MLINESTYLE
5
1B
330
B
100
AcDbMlineStyle
2
Standard
70
0
3

62
256
51
90.0
52
90.0
71
2
49
0.5
62
256
6
ByLayer
49
-0.5
62
256
6
ByLayer
0
RASTERVARIABLES
5
21
330
E
100
AcDbRasterVariables
90
0
70
1
71
1
72
0
0
ENDSEC
0
EOF
