999
DXF file generated by netDxf https://github.com/haplokuon/netDxf, Copyright(C) Daniel Carvajal, Licensed under MIT
0
SECTION
2
HEADER
9
$ACADVER
1
AC1015
9
$DWGCODEPAGE
3
ANSI_1252
9
$HANDSEED
5
3E
9
$ANGBASE
50
0.0
9
$ANGDIR
70
0
9
$ATTMODE
70
1
9
$AUNITS
70
0
9
$AUPREC
70
0
9
$CECOLOR
62
256
9
$CELTSCALE
40
1.0
9
$CELTYPE
6
ByLayer
9
$CELWEIGHT
370
-1
9
$CLAYER
8
0
9
$CMLJUST
70
0
9
$CMLSCALE
40
20.0
9
$CMLSTYLE
2
Standard
9
$DIMSTYLE
2
Standard
9
$TEXTSIZE
40
2.5
9
$TEXTSTYLE
7
Standard
9
$LUNITS
70
2
9
$LUPREC
70
4
9
$MIRRTEXT
70
0
9
$EXTNAMES
290
1
9
$INSBASE
10
0.0
20
0.0
30
0.0
9
$INSUNITS
70
0
9
$LTSCALE
40
1.0
9
$LWDISPLAY
290
0
9
$PDMODE
70
0
9
$PDSIZE
40
0.0
9
$PLINEGEN
70
0
9
$PSLTSCALE
70
1
9
$SPLINESEGS
70
8
9
$SURFU
70
6
9
$SURFV
70
6
9
$TDCREATE
40
2460823.48367375
9
$TDUCREATE
40
2460823.15034042
9
$TDUPDATE
40
2460823.48367375
9
$TDUUPDATE
40
2460823.15034042
9
$TDINDWG
40
0.0
9
$UCSORG
10
0.0
20
0.0
30
0.0
9
$UCSXDIR
10
1.0
20
0.0
30
0.0
9
$UCSYDIR
10
0.0
20
1.0
30
0.0
9
$DIMADEC
70
0
9
$DIMALT
70
0
9
$DIMALTD
70
2
9
$DIMALTF
40
25.4
9
$DIMALTRND
40
0.0
9
$DIMALTTD
70
2
9
$DIMALTTZ
70
0
9
$DIMALTU
70
2
9
$DIMALTZ
70
0
9
$DIMAPOST
1

9
$DIMATFIT
70
3
9
$DIMAUNIT
70
0
9
$DIMASZ
40
0.18
9
$DIMAZIN
70
0
9
$DIMSAH
70
0
9
$DIMBLK
1

9
$DIMLDRBLK
1

9
$DIMCEN
40
0.09
9
$DIMCLRD
70
0
9
$DIMCLRE
70
0
9
$DIMCLRT
70
0
9
$DIMDEC
70
4
9
$DIMDLE
40
0.0
9
$DIMDLI
40
0.38
9
$DIMDSEP
70
46
9
$DIMEXE
40
0.18
9
$DIMEXO
40
0.0625
9
$DIMFXLON
70
0
9
$DIMFXL
40
1.0
9
$DIMGAP
40
0.09
9
$DIMJUST
70
0
9
$DIMLFAC
40
1.0
9
$DIMLUNIT
70
2
9
$DIMLWD
70
-2
9
$DIMLWE
70
-2
9
$DIMPOST
1

9
$DIMRND
40
0.0
9
$DIMSCALE
40
1.0
9
$DIMSD1
70
0
9
$DIMSD2
70
0
9
$DIMSE1
70
0
9
$DIMSE2
70
0
9
$DIMSOXD
70
0
9
$DIMTAD
70
0
9
$DIMTDEC
70
4
9
$DIMTFAC
40
1.0
9
$DIMTIH
70
0
9
$DIMTIX
70
0
9
$DIMTM
40
0.0
9
$DIMTMOVE
70
0
9
$DIMTOFL
70
0
9
$DIMTOH
70
0
9
$DIMTOL
70
0
9
$DIMLIM
70
0
9
$DIMTOLJ
70
1
9
$DIMTP
40
0.0
9
$DIMTXT
40
0.18
9
$DIMTXTDIRECTION
70
0
9
$DIMTZIN
70
0
9
$DIMZIN
70
0
9
$DIMFRAC
70
0
9
$DIMLTYPE
6
ByBlock
9
$DIMLTEX1
6
ByBlock
9
$DIMLTEX2
6
ByBlock
0
ENDSEC
0
SECTION
2
CLASSES
0
CLASS
1
RASTERVARIABLES
2
AcDbRasterVariables
3
ISM
90
0
280
0
281
0
0
ENDSEC
0
SECTION
2
TABLES
0
TABLE
2
APPID
5
4
330
0
100
AcDbSymbolTable
70
5
0
APPID
5
19
330
4
100
AcDbSymbolTableRecord
100
AcDbRegAppTableRecord
2
ACAD
70
0
0
APPID
5
38
330
4
100
AcDbSymbolTableRecord
100
AcDbRegAppTableRecord
2
AcCmTransparency
70
0
0
APPID
5
39
330
4
100
AcDbSymbolTableRecord
100
AcDbRegAppTableRecord
2
AcAecLayerStandard
70
0
0
APPID
5
3A
330
4
100
AcDbSymbolTableRecord
100
AcDbRegAppTableRecord
2
GradientColor1ACI
70
0
0
APPID
5
3B
330
4
100
AcDbSymbolTableRecord
100
AcDbRegAppTableRecord
2
GradientColor2ACI
70
0
0
ENDTAB
0
TABLE
2
VPORT
5
1
330
0
100
AcDbSymbolTable
70
1
0
VPORT
5
2
330
1
100
AcDbSymbolTableRecord
100
AcDbViewportTableRecord
2
*Active
70
0
10
0.0
20
0.0
11
1.0
21
1.0
12
0.0
22
0.0
13
0.0
23
0.0
14
0.5
24
0.5
15
10.0
25
10.0
16
0.0
26
0.0
36
1.0
17
0.0
27
0.0
37
0.0
40
10.0
41
1.0
75
0
76
1
0
ENDTAB
0
TABLE
2
LTYPE
5
7
330
0
100
AcDbSymbolTable
70
3
0
LTYPE
5
15
330
7
100
AcDbSymbolTableRecord
100
AcDbLinetypeTableRecord
2
Continuous
70
0
3
Solid line
72
65
73
0
40
0.0
0
LTYPE
5
16
330
7
100
AcDbSymbolTableRecord
100
AcDbLinetypeTableRecord
2
ByLayer
70
0
3

72
65
73
0
40
0.0
0
LTYPE
5
17
330
7
100
AcDbSymbolTableRecord
100
AcDbLinetypeTableRecord
2
ByBlock
70
0
3

72
65
73
0
40
0.0
0
ENDTAB
0
TABLE
2
LAYER
5
5
102
{ACAD_XDICTIONARY
360
6
102
}
330
0
100
AcDbSymbolTable
70
1
0
LAYER
5
14
330
5
100
AcDbSymbolTableRecord
100
AcDbLayerTableRecord
2
0
70
0
62
7
6
Continuous
290
1
370
-3
390
0
0
ENDTAB
0
TABLE
2
STYLE
5
8
330
0
100
AcDbSymbolTable
70
1
0
STYLE
5
18
330
8
100
AcDbSymbolTableRecord
100
AcDbTextStyleTableRecord
2
Standard
3
simplex.shx
70
0
71
0
40
0.0
41
1.0
42
0.0
50
0.0
0
ENDTAB
0
TABLE
2
DIMSTYLE
5
A
330
0
100
AcDbSymbolTable
70
1
100
AcDbDimStyleTable
0
DIMSTYLE
105
1A
330
A
100
AcDbSymbolTableRecord
100
AcDbDimStyleTableRecord
2
Standard
3

4

40
1.0
41
0.18
42
0.0625
43
0.38
44
0.18
45
0.0
46
0.0
47
0.0
48
0.0
49
1.0
70
0
71
0
72
0
73
0
74
0
75
0
76
0
77
0
78
0
79
0
140
0.18
141
0.09
143
25.4
144
1.0
146
1.0
147
0.09
148
0.0
170
0
171
2
172
0
174
0
175
0
176
0
177
0
178
0
179
0
271
4
272
4
273
2
274
2
275
0
276
0
277
2
278
46
279
0
280
0
281
0
282
0
283
1
284
0
285
0
286
0
289
3
290
0
294
0
340
18
173
0
345
17
346
17
347
17
371
-2
372
-2
0
ENDTAB
0
TABLE
2
VIEW
5
3
330
0
100
AcDbSymbolTable
70
0
0
ENDTAB
0
TABLE
2
UCS
5
C
330
0
100
AcDbSymbolTable
70
0
0
ENDTAB
0
TABLE
2
BLOCK_RECORD
5
D
330
0
100
AcDbSymbolTable
70
2
0
BLOCK_RECORD
5
1C
330
D
100
AcDbSymbolTableRecord
100
AcDbBlockTableRecord
2
*Model_Space
340
20
0
BLOCK_RECORD
5
32
330
D
100
AcDbSymbolTableRecord
100
AcDbBlockTableRecord
2
*Paper_Space
340
37
0
ENDTAB
0
ENDSEC
0
SECTION
2
BLOCKS
0
BLOCK
5
1E
330
1C
100
AcDbEntity
67
0
8
0
100
AcDbBlockBegin
2
*Model_Space
70
0
10
0.0
20
0.0
30
0.0
3
*Model_Space
4

0
ENDBLK
5
1D
330
1C
100
AcDbEntity
8
0
100
AcDbBlockEnd
0
BLOCK
5
34
330
32
100
AcDbEntity
67
1
8
0
100
AcDbBlockBegin
2
*Paper_Space
70
0
10
0.0
20
0.0
30
0.0
3
*Paper_Space
4

0
ENDBLK
5
33
330
32
100
AcDbEntity
8
0
100
AcDbBlockEnd
0
ENDSEC
0
SECTION
2
ENTITIES
0
LWPOLYLINE
5
22
330
1C
100
AcDbEntity
67
0
8
0
62
256
6
ByLayer
370
-1
48
1.0
60
0
100
AcDbPolyline
90
30
70
1
38
0.0
39
0.0
10
65.0160980224609
20
67.5431976318359
40
0.0
41
0.0
42
0.0
10
65.3026962280273
20
67.6511993408203
40
0.0
41
0.0
42
0.0
10
65.5046997070312
20
67.6921997070312
40
0.0
41
0.0
42
0.0
10
65.5723037719727
20
67.8584976196289
40
0.0
41
0.0
42
0.0
10
65.6296997070312
20
67.9854965209961
40
0.0
41
0.0
42
0.0
10
65.6752014160156
20
68.4392013549805
40
0.0
41
0.0
42
0.0
10
65.6631011962891
20
68.9792022705078
40
0.0
41
0.0
42
0.0
10
65.6146011352539
20
69.5175018310547
40
0.0
41
0.0
42
0.0
10
65.6098022460938
20
69.5514984130859
40
0.0
41
0.0
42
0.0
10
65.5229034423828
20
70.0149993896484
40
0.0
41
0.0
42
0.0
10
65.5147018432617
20
70.0429992675781
40
0.0
41
0.0
42
0.0
10
65.5002975463867
20
70.0753021240234
40
0.0
41
0.0
42
0.0
10
65.3583984375
20
70.5113983154297
40
0.0
41
0.0
42
0.0
10
65.0718002319336
20
71.0075988769531
40
0.0
41
0.0
42
0.0
10
65.0314025878906
20
71.0539016723633
40
0.0
41
0.0
42
0.0
10
65.0112991333008
20
71.0737991333008
40
0.0
41
0.0
42
0.0
10
65.0009994506836
20
71.0737991333008
40
0.0
41
0.0
42
0.0
10
65.0009002685547
20
71.0374984741211
40
0.0
41
0.0
42
0.0
10
65.040397644043
20
70.9921035766602
40
0.0
41
0.0
42
0.0
10
65.3309020996094
20
70.4885025024414
40
0.0
41
0.0
42
0.0
10
65.4944000244141
20
69.9850997924805
40
0.0
41
0.0
42
0.0
10
65.5878982543945
20
69.4828033447266
40
0.0
41
0.0
42
0.0
10
65.6334991455078
20
68.9811019897461
40
0.0
41
0.0
42
0.0
10
65.6443023681641
20
68.5131988525391
40
0.0
41
0.0
42
0.0
10
65.5939025878906
20
68.0148010253906
40
0.0
41
0.0
42
0.0
10
65.4982986450195
20
67.7794036865234
40
0.0
41
0.0
42
0.0
10
65.4878997802734
20
67.765998840332
40
0.0
41
0.0
42
0.0
10
65.0009994506836
20
67.5824966430664
40
0.0
41
0.0
42
0.0
10
65.0009994506836
20
67.5432968139648
40
0.0
41
0.0
42
0.0
10
65.0160980224609
20
67.5431976318359
40
0.0
41
0.0
42
0.0
210
0.0
220
0.0
230
1.0
0
LWPOLYLINE
5
23
330
1C
100
AcDbEntity
67
0
8
0
62
256
6
ByLayer
370
-1
48
1.0
60
0
100
AcDbPolyline
90
22
70
1
38
0.0
39
0.0
10
65.0050964355469
20
78.6724014282227
40
0.0
41
0.0
42
0.0
10
65.0668029785156
20
78.845703125
40
0.0
41
0.0
42
0.0
10
65.1074981689453
20
78.9501037597656
40
0.0
41
0.0
42
0.0
10
65.1115036010742
20
78.9828033447266
40
0.0
41
0.0
42
0.0
10
65.1836013793945
20
79.4466018676758
40
0.0
41
0.0
42
0.0
10
65.1836013793945
20
79.4804000854492
40
0.0
41
0.0
42
0.0
10
65.2040023803711
20
79.945198059082
40
0.0
41
0.0
42
0.0
10
65.192497253418
20
80.4841003417969
40
0.0
41
0.0
42
0.0
10
65.1903991699219
20
80.5182037353516
40
0.0
41
0.0
42
0.0
10
65.1395034790039
20
81.0158996582031
40
0.0
41
0.0
42
0.0
10
65.008903503418
20
81.4598999023438
40
0.0
41
0.0
42
0.0
10
65.0066986083984
20
81.4648971557617
40
0.0
41
0.0
42
0.0
10
65.0009994506836
20
81.4648971557617
40
0.0
41
0.0
42
0.0
10
65.0009002685547
20
81.4260025024414
40
0.0
41
0.0
42
0.0
10
65.1307983398438
20
80.984001159668
40
0.0
41
0.0
42
0.0
10
65.181396484375
20
80.486198425293
40
0.0
41
0.0
42
0.0
10
65.1920013427734
20
80.010498046875
40
0.0
41
0.0
42
0.0
10
65.1699981689453
20
79.5178985595703
40
0.0
41
0.0
42
0.0
10
65.0925979614258
20
79.0197982788086
40
0.0
41
0.0
42
0.0
10
65.0009994506836
20
78.7610015869141
40
0.0
41
0.0
42
0.0
10
65.0009994506836
20
78.6724014282227
40
0.0
41
0.0
42
0.0
10
65.0050964355469
20
78.6724014282227
40
0.0
41
0.0
42
0.0
210
0.0
220
0.0
230
1.0
0
LWPOLYLINE
5
24
330
1C
100
AcDbEntity
67
0
8
0
62
256
6
ByLayer
370
-1
48
1.0
60
0
100
AcDbPolyline
90
526
70
1
38
0.0
39
0.0
10
66.9514007568359
20
76.4882965087891
40
0.0
41
0.0
42
0.0
10
66.9980010986328
20
76.3948974609375
40
0.0
41
0.0
42
0.0
10
67.2881011962891
20
75.9775009155273
40
0.0
41
0.0
42
0.0
10
67.4616012573242
20
75.7563018798828
40
0.0
41
0.0
42
0.0
10
67.4931030273438
20
75.7132034301758
40
0.0
41
0.0
42
0.0
10
67.9834976196289
20
75.5402984619141
40
0.0
41
0.0
42
0.0
10
68.0164031982422
20
75.5401992797852
40
0.0
41
0.0
42
0.0
10
68.5110015869141
20
75.7107009887695
40
0.0
41
0.0
42
0.0
10
68.8364028930664
20
75.9084014892578
40
0.0
41
0.0
42
0.0
10
68.9935989379883
20
75.9981994628906
40
0.0
41
0.0
42
0.0
10
69.5113983154297
20
76.2830963134766
40
0.0
41
0.0
42
0.0
10
69.9450988769531
20
76.4322967529297
40
0.0
41
0.0
42
0.0
10
69.999397277832
20
76.4476013183594
40
0.0
41
0.0
42
0.0
10
70.053596496582
20
76.4311981201172
40
0.0
41
0.0
42
0.0
10
70.4922027587891
20
76.3667984008789
40
0.0
41
0.0
42
0.0
10
70.7425994873047
20
75.9941024780273
40
0.0
41
0.0
42
0.0
10
70.9570999145508
20
75.8171005249023
40
0.0
41
0.0
42
0.0
10
70.9937973022461
20
75.7951965332031
40
0.0
41
0.0
42
0.0
10
71.2449035644531
20
75.4933013916016
40
0.0
41
0.0
42
0.0
10
71.4595031738281
20
75.2315979003906
40
0.0
41
0.0
42
0.0
10
71.4908981323242
20
75.2081985473633
40
0.0
41
0.0
42
0.0
10
71.5016021728516
20
75.2030029296875
40
0.0
41
0.0
42
0.0
10
71.7011032104492
20
74.9921035766602
40
0.0
41
0.0
42
0.0
10
71.5655975341797
20
74.5095977783203
40
0.0
41
0.0
42
0.0
10
71.4949035644531
20
74.429801940918
40
0.0
41
0.0
42
0.0
10
71.4600982666016
20
74.3985977172852
40
0.0
41
0.0
42
0.0
10
71.1363983154297
20
74.0095977783203
40
0.0
41
0.0
42
0.0
10
70.9965972900391
20
73.7661972045898
40
0.0
41
0.0
42
0.0
10
70.7614974975586
20
73.5426025390625
40
0.0
41
0.0
42
0.0
10
70.7083969116211
20
73.5054016113281
40
0.0
41
0.0
42
0.0
10
70.4928970336914
20
73.1389999389648
40
0.0
41
0.0
42
0.0
10
70.0914001464844
20
73.1623001098633
40
0.0
41
0.0
42
0.0
10
70.054801940918
20
73.1622009277344
40
0.0
41
0.0
42
0.0
10
70.0022964477539
20
73.1484985351562
40
0.0
41
0.0
42
0.0
10
69.5621032714844
20
73.3096008300781
40
0.0
41
0.0
42
0.0
10
69.5129013061523
20
73.3209991455078
40
0.0
41
0.0
42
0.0
10
69.1399993896484
20
73.5009002685547
40
0.0
41
0.0
42
0.0
10
69.0459976196289
20
73.5440979003906
40
0.0
41
0.0
42
0.0
10
68.513298034668
20
73.7976989746094
40
0.0
41
0.0
42
0.0
10
68.0178985595703
20
73.8974990844727
40
0.0
41
0.0
42
0.0
10
67.9860000610352
20
73.8973999023438
40
0.0
41
0.0
42
0.0
10
67.4953002929688
20
73.5913009643555
40
0.0
41
0.0
42
0.0
10
67.467399597168
20
73.5451965332031
40
0.0
41
0.0
42
0.0
10
67.4363021850586
20
73.4754028320312
40
0.0
41
0.0
42
0.0
10
67.171501159668
20
73.011100769043
40
0.0
41
0.0
42
0.0
10
66.9997024536133
20
72.5407028198242
40
0.0
41
0.0
42
0.0
10
66.9907989501953
20
72.5142974853516
40
0.0
41
0.0
42
0.0
10
66.9834976196289
20
72.481201171875
40
0.0
41
0.0
42
0.0
10
66.9158020019531
20
72.0182037353516
40
0.0
41
0.0
42
0.0
10
66.9141006469727
20
71.9460983276367
40
0.0
41
0.0
42
0.0
10
66.978401184082
20
71.4843978881836
40
0.0
41
0.0
42
0.0
10
66.9873962402344
20
71.4539031982422
40
0.0
41
0.0
42
0.0
10
66.997802734375
20
71.4384002685547
40
0.0
41
0.0
42
0.0
10
67.2520980834961
20
70.9850006103516
40
0.0
41
0.0
42
0.0
10
67.459098815918
20
70.8089981079102
40
0.0
41
0.0
42
0.0
10
67.4849014282227
20
70.7834014892578
40
0.0
41
0.0
42
0.0
10
67.9345016479492
20
70.4981002807617
40
0.0
41
0.0
42
0.0
10
67.9882965087891
20
70.4702987670898
40
0.0
41
0.0
42
0.0
10
68.4522018432617
20
70.3081970214844
40
0.0
41
0.0
42
0.0
10
68.4852981567383
20
70.2954025268555
40
0.0
41
0.0
42
0.0
10
68.9483032226562
20
70.2276992797852
40
0.0
41
0.0
42
0.0
10
68.9832992553711
20
70.2164993286133
40
0.0
41
0.0
42
0.0
10
69.0175018310547
20
70.2164001464844
40
0.0
41
0.0
42
0.0
10
69.4449005126953
20
70.3159027099609
40
0.0
41
0.0
42
0.0
10
69.4811019897461
20
70.3116989135742
40
0.0
41
0.0
42
0.0
10
69.5109024047852
20
70.3117980957031
40
0.0
41
0.0
42
0.0
10
69.6183013916016
20
70.4250030517578
40
0.0
41
0.0
42
0.0
10
69.69580078125
20
70.4927978515625
40
0.0
41
0.0
42
0.0
10
69.8849029541016
20
70.9033966064453
40
0.0
41
0.0
42
0.0
10
69.9069976806641
20
70.9858016967773
40
0.0
41
0.0
42
0.0
10
69.9998016357422
20
71.2835006713867
40
0.0
41
0.0
42
0.0
10
70.032600402832
20
71.3983993530273
40
0.0
41
0.0
42
0.0
10
70.0534973144531
20
71.4856033325195
40
0.0
41
0.0
42
0.0
10
70.1988983154297
20
71.9461975097656
40
0.0
41
0.0
42
0.0
10
70.4128036499023
20
72.4207000732422
40
0.0
41
0.0
42
0.0
10
70.467903137207
20
72.4900970458984
40
0.0
41
0.0
42
0.0
10
70.5047988891602
20
72.6022033691406
40
0.0
41
0.0
42
0.0
10
70.6752014160156
20
72.6016006469727
40
0.0
41
0.0
42
0.0
10
71.0082015991211
20
72.7639007568359
40
0.0
41
0.0
42
0.0
10
71.4044036865234
20
72.7142028808594
40
0.0
41
0.0
42
0.0
10
71.4410018920898
20
72.7142028808594
40
0.0
41
0.0
42
0.0
10
71.543701171875
20
72.7341995239258
40
0.0
41
0.0
42
0.0
10
71.9806976318359
20
72.7033004760742
40
0.0
41
0.0
42
0.0
10
72.0186996459961
20
72.7032012939453
40
0.0
41
0.0
42
0.0
10
72.0380020141602
20
72.7054977416992
40
0.0
41
0.0
42
0.0
10
72.4839019775391
20
72.6677017211914
40
0.0
41
0.0
42
0.0
10
72.505500793457
20
72.6612014770508
40
0.0
41
0.0
42
0.0
10
72.7919006347656
20
72.4935989379883
40
0.0
41
0.0
42
0.0
10
72.8026962280273
20
72.4506988525391
40
0.0
41
0.0
42
0.0
10
72.9365005493164
20
71.9879989624023
40
0.0
41
0.0
42
0.0
10
72.9366989135742
20
71.9462966918945
40
0.0
41
0.0
42
0.0
10
72.9905014038086
20
71.5065002441406
40
0.0
41
0.0
42
0.0
10
72.9901962280273
20
71.4580001831055
40
0.0
41
0.0
42
0.0
10
73.0007019042969
20
71.3757019042969
40
0.0
41
0.0
42
0.0
10
73.0727996826172
20
70.9853973388672
40
0.0
41
0.0
42
0.0
10
73.190299987793
20
70.6513977050781
40
0.0
41
0.0
42
0.0
10
73.1134033203125
20
70.5143966674805
40
0.0
41
0.0
42
0.0
10
73.1132965087891
20
70.4845962524414
40
0.0
41
0.0
42
0.0
10
73.17919921875
20
70.3459014892578
40
0.0
41
0.0
42
0.0
10
73.1623992919922
20
70.3320007324219
40
0.0
41
0.0
42
0.0
10
73.0130996704102
20
70.4401016235352
40
0.0
41
0.0
42
0.0
10
72.986701965332
20
70.4400024414062
40
0.0
41
0.0
42
0.0
10
72.7890014648438
20
70.2994995117188
40
0.0
41
0.0
42
0.0
10
72.4922027587891
20
70.0391006469727
40
0.0
41
0.0
42
0.0
10
72.4250030517578
20
70.0009994506836
40
0.0
41
0.0
42
0.0
10
71.9877014160156
20
69.8143997192383
40
0.0
41
0.0
42
0.0
10
71.5523986816406
20
69.6539001464844
40
0.0
41
0.0
42
0.0
10
71.2260971069336
20
69.5357971191406
40
0.0
41
0.0
42
0.0
10
71.2121963500977
20
69.5344009399414
40
0.0
41
0.0
42
0.0
10
71.1482009887695
20
69.5019989013672
40
0.0
41
0.0
42
0.0
10
70.9947967529297
20
69.3895034790039
40
0.0
41
0.0
42
0.0
10
70.8153991699219
20
69.1521987915039
40
0.0
41
0.0
42
0.0
10
70.7205963134766
20
69.0134963989258
40
0.0
41
0.0
42
0.0
10
70.7204971313477
20
68.9834976196289
40
0.0
41
0.0
42
0.0
10
70.7328033447266
20
68.948600769043
40
0.0
41
0.0
42
0.0
10
70.7368011474609
20
68.4841003417969
40
0.0
41
0.0
42
0.0
10
70.75
20
68.4518966674805
40
0.0
41
0.0
42
0.0
10
70.8884963989258
20
67.9876022338867
40
0.0
41
0.0
42
0.0
10
70.9983978271484
20
67.7630996704102
40
0.0
41
0.0
42
0.0
10
71.1565017700195
20
67.4912033081055
40
0.0
41
0.0
42
0.0
10
71.179801940918
20
67.4574966430664
40
0.0
41
0.0
42
0.0
10
71.4944000244141
20
67.0698013305664
40
0.0
41
0.0
42
0.0
10
71.5995025634766
20
66.9963989257812
40
0.0
41
0.0
42
0.0
10
71.6132965087891
20
66.9837036132812
40
0.0
41
0.0
42
0.0
10
71.9871978759766
20
66.752799987793
40
0.0
41
0.0
42
0.0
10
72.4813995361328
20
66.6858978271484
40
0.0
41
0.0
42
0.0
10
72.5183029174805
20
66.6857986450195
40
0.0
41
0.0
42
0.0
10
72.9684982299805
20
66.7587966918945
40
0.0
41
0.0
42
0.0
10
73.0151977539062
20
66.7652969360352
40
0.0
41
0.0
42
0.0
10
73.0479965209961
20
66.7760009765625
40
0.0
41
0.0
42
0.0
10
73.5115966796875
20
66.9514007568359
40
0.0
41
0.0
42
0.0
10
73.6047973632812
20
66.9980010986328
40
0.0
41
0.0
42
0.0
10
74.0223007202148
20
67.288200378418
40
0.0
41
0.0
42
0.0
10
74.2434997558594
20
67.4617004394531
40
0.0
41
0.0
42
0.0
10
74.2865982055664
20
67.4931030273438
40
0.0
41
0.0
42
0.0
10
74.459602355957
20
67.9834976196289
40
0.0
41
0.0
42
0.0
10
74.4595031738281
20
68.0164031982422
40
0.0
41
0.0
42
0.0
10
74.2891006469727
20
68.5109024047852
40
0.0
41
0.0
42
0.0
10
74.0914001464844
20
68.8363037109375
40
0.0
41
0.0
42
0.0
10
74.0016021728516
20
68.9935989379883
40
0.0
41
0.0
42
0.0
10
73.7166976928711
20
69.5113983154297
40
0.0
41
0.0
42
0.0
10
73.5673980712891
20
69.9450988769531
40
0.0
41
0.0
42
0.0
10
73.5521011352539
20
69.999397277832
40
0.0
41
0.0
42
0.0
10
73.5684967041016
20
70.053596496582
40
0.0
41
0.0
42
0.0
10
73.6328964233398
20
70.4922027587891
40
0.0
41
0.0
42
0.0
10
74.0056991577148
20
70.7425994873047
40
0.0
41
0.0
42
0.0
10
74.1826019287109
20
70.9570999145508
40
0.0
41
0.0
42
0.0
10
74.2045974731445
20
70.9937973022461
40
0.0
41
0.0
42
0.0
10
74.5065994262695
20
71.245002746582
40
0.0
41
0.0
42
0.0
10
74.7680969238281
20
71.459602355957
40
0.0
41
0.0
42
0.0
10
74.7914962768555
20
71.4908981323242
40
0.0
41
0.0
42
0.0
10
74.7967987060547
20
71.5016021728516
40
0.0
41
0.0
42
0.0
10
75.0077972412109
20
71.7009963989258
40
0.0
41
0.0
42
0.0
10
75.4903030395508
20
71.5654983520508
40
0.0
41
0.0
42
0.0
10
75.5699996948242
20
71.4947967529297
40
0.0
41
0.0
42
0.0
10
75.6010971069336
20
71.4600982666016
40
0.0
41
0.0
42
0.0
10
75.9901962280273
20
71.1362991333008
40
0.0
41
0.0
42
0.0
10
76.2334976196289
20
70.9965972900391
40
0.0
41
0.0
42
0.0
10
76.4613037109375
20
70.7570037841797
40
0.0
41
0.0
42
0.0
10
76.4945983886719
20
70.7082977294922
40
0.0
41
0.0
42
0.0
10
76.8607025146484
20
70.4927978515625
40
0.0
41
0.0
42
0.0
10
76.8376007080078
20
70.0914001464844
40
0.0
41
0.0
42
0.0
10
76.8375015258789
20
70.054801940918
40
0.0
41
0.0
42
0.0
10
76.8511962890625
20
70.0022964477539
40
0.0
41
0.0
42
0.0
10
76.6902008056641
20
69.5621032714844
40
0.0
41
0.0
42
0.0
10
76.6787033081055
20
69.5129013061523
40
0.0
41
0.0
42
0.0
10
76.4989013671875
20
69.1399993896484
40
0.0
41
0.0
42
0.0
10
76.4555969238281
20
69.0460968017578
40
0.0
41
0.0
42
0.0
10
76.2021026611328
20
68.513298034668
40
0.0
41
0.0
42
0.0
10
76.1024017333984
20
68.0178985595703
40
0.0
41
0.0
42
0.0
10
76.1023025512695
20
67.9860000610352
40
0.0
41
0.0
42
0.0
10
76.4084014892578
20
67.4953002929688
40
0.0
41
0.0
42
0.0
10
76.4545974731445
20
67.467399597168
40
0.0
41
0.0
42
0.0
10
76.5243988037109
20
67.4363021850586
40
0.0
41
0.0
42
0.0
10
76.9888000488281
20
67.1714019775391
40
0.0
41
0.0
42
0.0
10
77.459098815918
20
66.9997024536133
40
0.0
41
0.0
42
0.0
10
77.4856033325195
20
66.9907989501953
40
0.0
41
0.0
42
0.0
10
77.5186996459961
20
66.9833984375
40
0.0
41
0.0
42
0.0
10
77.9816970825195
20
66.9158020019531
40
0.0
41
0.0
42
0.0
10
78.0538024902344
20
66.9141006469727
40
0.0
41
0.0
42
0.0
10
78.5155029296875
20
66.978401184082
40
0.0
41
0.0
42
0.0
10
78.5458984375
20
66.9875030517578
40
0.0
41
0.0
42
0.0
10
78.5613021850586
20
66.9979019165039
40
0.0
41
0.0
42
0.0
10
79.0147018432617
20
67.252197265625
40
0.0
41
0.0
42
0.0
10
79.190803527832
20
67.4591979980469
40
0.0
41
0.0
42
0.0
10
79.2163009643555
20
67.4849014282227
40
0.0
41
0.0
42
0.0
10
79.5017013549805
20
67.9345016479492
40
0.0
41
0.0
42
0.0
10
79.5295028686523
20
67.9882965087891
40
0.0
41
0.0
42
0.0
10
79.6915969848633
20
68.4522018432617
40
0.0
41
0.0
42
0.0
10
79.7042999267578
20
68.4852981567383
40
0.0
41
0.0
42
0.0
10
79.7720031738281
20
68.9483032226562
40
0.0
41
0.0
42
0.0
10
79.7834014892578
20
68.9832992553711
40
0.0
41
0.0
42
0.0
10
79.7834014892578
20
69.0176010131836
40
0.0
41
0.0
42
0.0
10
79.6839981079102
20
69.4449005126953
40
0.0
41
0.0
42
0.0
10
79.6880035400391
20
69.4811019897461
40
0.0
41
0.0
42
0.0
10
79.6878967285156
20
69.5109024047852
40
0.0
41
0.0
42
0.0
10
79.5746994018555
20
69.6182022094727
40
0.0
41
0.0
42
0.0
10
79.5071029663086
20
69.6957015991211
40
0.0
41
0.0
42
0.0
10
79.0963973999023
20
69.8849029541016
40
0.0
41
0.0
42
0.0
10
79.0140991210938
20
69.9069976806641
40
0.0
41
0.0
42
0.0
10
78.7164993286133
20
69.9997024536133
40
0.0
41
0.0
42
0.0
10
78.5140991210938
20
70.053596496582
40
0.0
41
0.0
42
0.0
10
78.053596496582
20
70.1987991333008
40
0.0
41
0.0
42
0.0
10
77.5791015625
20
70.4126968383789
40
0.0
41
0.0
42
0.0
10
77.5098037719727
20
70.467903137207
40
0.0
41
0.0
42
0.0
10
77.3974990844727
20
70.5046997070312
40
0.0
41
0.0
42
0.0
10
77.3981018066406
20
70.6751022338867
40
0.0
41
0.0
42
0.0
10
77.2358016967773
20
71.0082015991211
40
0.0
41
0.0
42
0.0
10
77.2856979370117
20
71.4044036865234
40
0.0
41
0.0
42
0.0
10
77.2854995727539
20
71.4410018920898
40
0.0
41
0.0
42
0.0
10
77.2655029296875
20
71.5436019897461
40
0.0
41
0.0
42
0.0
10
77.296501159668
20
71.9815979003906
40
0.0
41
0.0
42
0.0
10
77.3358001708984
20
72.4433975219727
40
0.0
41
0.0
42
0.0
10
77.3350982666016
20
72.4943008422852
40
0.0
41
0.0
42
0.0
10
77.3386001586914
20
72.5055999755859
40
0.0
41
0.0
42
0.0
10
77.5063018798828
20
72.7919006347656
40
0.0
41
0.0
42
0.0
10
77.5494995117188
20
72.8029022216797
40
0.0
41
0.0
42
0.0
10
78.0120010375977
20
72.9365005493164
40
0.0
41
0.0
42
0.0
10
78.053596496582
20
72.9366989135742
40
0.0
41
0.0
42
0.0
10
78.4934005737305
20
72.9905014038086
40
0.0
41
0.0
42
0.0
10
78.5418014526367
20
72.9901962280273
40
0.0
41
0.0
42
0.0
10
78.6240997314453
20
73.0007019042969
40
0.0
41
0.0
42
0.0
10
79.0145034790039
20
73.0727996826172
40
0.0
41
0.0
42
0.0
10
79.3483963012695
20
73.190299987793
40
0.0
41
0.0
42
0.0
10
79.4853973388672
20
73.1134033203125
40
0.0
41
0.0
42
0.0
10
79.5152969360352
20
73.1134033203125
40
0.0
41
0.0
42
0.0
10
79.6524963378906
20
73.1774978637695
40
0.0
41
0.0
42
0.0
10
79.6662979125977
20
73.1608963012695
40
0.0
41
0.0
42
0.0
10
79.5597991943359
20
73.0131988525391
40
0.0
41
0.0
42
0.0
10
79.559700012207
20
72.9866027832031
40
0.0
41
0.0
42
0.0
10
79.7003021240234
20
72.7889022827148
40
0.0
41
0.0
42
0.0
10
79.9606018066406
20
72.4921035766602
40
0.0
41
0.0
42
0.0
10
79.9988021850586
20
72.4250030517578
40
0.0
41
0.0
42
0.0
10
80.185302734375
20
71.9877014160156
40
0.0
41
0.0
42
0.0
10
80.3459014892578
20
71.5522994995117
40
0.0
41
0.0
42
0.0
10
80.3696975708008
20
71.4843978881836
40
0.0
41
0.0
42
0.0
10
80.3709030151367
20
71.470100402832
40
0.0
41
0.0
42
0.0
10
80.4653015136719
20
71.2114028930664
40
0.0
41
0.0
42
0.0
10
80.4681015014648
20
71.1932983398438
40
0.0
41
0.0
42
0.0
10
80.497200012207
20
71.1491012573242
40
0.0
41
0.0
42
0.0
10
80.6102981567383
20
70.9947967529297
40
0.0
41
0.0
42
0.0
10
80.8476028442383
20
70.8153991699219
40
0.0
41
0.0
42
0.0
10
80.9863967895508
20
70.7205963134766
40
0.0
41
0.0
42
0.0
10
81.0164031982422
20
70.7204971313477
40
0.0
41
0.0
42
0.0
10
81.0513000488281
20
70.7328033447266
40
0.0
41
0.0
42
0.0
10
81.5157012939453
20
70.7368011474609
40
0.0
41
0.0
42
0.0
10
81.5479965209961
20
70.75
40
0.0
41
0.0
42
0.0
10
82.0122985839844
20
70.8886032104492
40
0.0
41
0.0
42
0.0
10
82.236701965332
20
70.9984970092773
40
0.0
41
0.0
42
0.0
10
82.5086975097656
20
71.1566009521484
40
0.0
41
0.0
42
0.0
10
82.5422973632812
20
71.1799011230469
40
0.0
41
0.0
42
0.0
10
82.9299011230469
20
71.4944000244141
40
0.0
41
0.0
42
0.0
10
83.0035018920898
20
71.5994033813477
40
0.0
41
0.0
42
0.0
10
83.015998840332
20
71.6132965087891
40
0.0
41
0.0
42
0.0
10
83.2469024658203
20
71.9871978759766
40
0.0
41
0.0
42
0.0
10
83.3140029907227
20
72.4813995361328
40
0.0
41
0.0
42
0.0
10
83.3139038085938
20
72.5183029174805
40
0.0
41
0.0
42
0.0
10
83.2408981323242
20
72.9684982299805
40
0.0
41
0.0
42
0.0
10
83.2343978881836
20
73.0151977539062
40
0.0
41
0.0
42
0.0
10
83.2237014770508
20
73.0478973388672
40
0.0
41
0.0
42
0.0
10
83.0483016967773
20
73.5114974975586
40
0.0
41
0.0
42
0.0
10
83.0018005371094
20
73.6047973632812
40
0.0
41
0.0
42
0.0
10
82.7221984863281
20
74.0074005126953
40
0.0
41
0.0
42
0.0
10
82.5550994873047
20
74.2204971313477
40
0.0
41
0.0
42
0.0
10
82.5067977905273
20
74.2864990234375
40
0.0
41
0.0
42
0.0
10
82.0164031982422
20
74.459602355957
40
0.0
41
0.0
42
0.0
10
81.9834976196289
20
74.4595031738281
40
0.0
41
0.0
42
0.0
10
81.488899230957
20
74.2891998291016
40
0.0
41
0.0
42
0.0
10
81.1633987426758
20
74.0914001464844
40
0.0
41
0.0
42
0.0
10
81.0062026977539
20
74.0016021728516
40
0.0
41
0.0
42
0.0
10
80.4885025024414
20
73.716796875
40
0.0
41
0.0
42
0.0
10
80.054801940918
20
73.5673980712891
40
0.0
41
0.0
42
0.0
10
80.0005035400391
20
73.5521011352539
40
0.0
41
0.0
42
0.0
10
79.9461975097656
20
73.5684967041016
40
0.0
41
0.0
42
0.0
10
79.5075988769531
20
73.6327972412109
40
0.0
41
0.0
42
0.0
10
79.2572021484375
20
74.0056991577148
40
0.0
41
0.0
42
0.0
10
79.0810012817383
20
74.1511001586914
40
0.0
41
0.0
42
0.0
10
79.005500793457
20
74.2052001953125
40
0.0
41
0.0
42
0.0
10
78.7547988891602
20
74.5065002441406
40
0.0
41
0.0
42
0.0
10
78.5402984619141
20
74.7680969238281
40
0.0
41
0.0
42
0.0
10
78.508903503418
20
74.7913970947266
40
0.0
41
0.0
42
0.0
10
78.4981994628906
20
74.7966995239258
40
0.0
41
0.0
42
0.0
10
78.3012008666992
20
75.004997253418
40
0.0
41
0.0
42
0.0
10
78.426399230957
20
75.4496994018555
40
0.0
41
0.0
42
0.0
10
78.4336013793945
20
75.489501953125
40
0.0
41
0.0
42
0.0
10
78.504997253418
20
75.5699996948242
40
0.0
41
0.0
42
0.0
10
78.5398025512695
20
75.6011962890625
40
0.0
41
0.0
42
0.0
10
78.8634033203125
20
75.9901962280273
40
0.0
41
0.0
42
0.0
10
79.003303527832
20
76.2335968017578
40
0.0
41
0.0
42
0.0
10
79.2427978515625
20
76.4613037109375
40
0.0
41
0.0
42
0.0
10
79.2913970947266
20
76.4945983886719
40
0.0
41
0.0
42
0.0
10
79.5071029663086
20
76.8607025146484
40
0.0
41
0.0
42
0.0
10
79.9084014892578
20
76.8376007080078
40
0.0
41
0.0
42
0.0
10
79.9449996948242
20
76.8375015258789
40
0.0
41
0.0
42
0.0
10
79.9975967407227
20
76.8511962890625
40
0.0
41
0.0
42
0.0
10
80.4376983642578
20
76.6901016235352
40
0.0
41
0.0
42
0.0
10
80.4869995117188
20
76.678596496582
40
0.0
41
0.0
42
0.0
10
80.8598022460938
20
76.4989013671875
40
0.0
41
0.0
42
0.0
10
80.9537963867188
20
76.4555969238281
40
0.0
41
0.0
42
0.0
10
81.4866027832031
20
76.2020034790039
40
0.0
41
0.0
42
0.0
10
81.9820022583008
20
76.1024017333984
40
0.0
41
0.0
42
0.0
10
82.0139007568359
20
76.1024017333984
40
0.0
41
0.0
42
0.0
10
82.5045013427734
20
76.4085006713867
40
0.0
41
0.0
42
0.0
10
82.5323028564453
20
76.4546966552734
40
0.0
41
0.0
42
0.0
10
82.5478973388672
20
76.489501953125
40
0.0
41
0.0
42
0.0
10
82.813102722168
20
76.9544982910156
40
0.0
41
0.0
42
0.0
10
82.8279037475586
20
76.9878005981445
40
0.0
41
0.0
42
0.0
10
83.0000991821289
20
77.459098815918
40
0.0
41
0.0
42
0.0
10
83.0086975097656
20
77.4848022460938
40
0.0
41
0.0
42
0.0
10
83.0764007568359
20
77.9486999511719
40
0.0
41
0.0
42
0.0
10
83.0839004516602
20
77.9822006225586
40
0.0
41
0.0
42
0.0
10
83.0838012695312
20
78.0185012817383
40
0.0
41
0.0
42
0.0
10
83.0205993652344
20
78.4728012084961
40
0.0
41
0.0
42
0.0
10
83.0208969116211
20
78.5169982910156
40
0.0
41
0.0
42
0.0
10
83.0122985839844
20
78.5458984375
40
0.0
41
0.0
42
0.0
10
83.0018997192383
20
78.5613021850586
40
0.0
41
0.0
42
0.0
10
82.753303527832
20
79.0063018798828
40
0.0
41
0.0
42
0.0
10
82.5511016845703
20
79.1781997680664
40
0.0
41
0.0
42
0.0
10
82.5068969726562
20
79.2208023071289
40
0.0
41
0.0
42
0.0
10
82.0652008056641
20
79.5017013549805
40
0.0
41
0.0
42
0.0
10
82.0115966796875
20
79.5294036865234
40
0.0
41
0.0
42
0.0
10
81.5476989746094
20
79.6914978027344
40
0.0
41
0.0
42
0.0
10
81.5146026611328
20
79.7042999267578
40
0.0
41
0.0
42
0.0
10
81.051399230957
20
79.7720031738281
40
0.0
41
0.0
42
0.0
10
81.0166015625
20
79.7834014892578
40
0.0
41
0.0
42
0.0
10
80.9822998046875
20
79.7834014892578
40
0.0
41
0.0
42
0.0
10
80.5549011230469
20
79.6838989257812
40
0.0
41
0.0
42
0.0
10
80.518798828125
20
79.6880035400391
40
0.0
41
0.0
42
0.0
10
80.4889984130859
20
79.6880035400391
40
0.0
41
0.0
42
0.0
10
80.3815002441406
20
79.5746994018555
40
0.0
41
0.0
42
0.0
10
80.3040008544922
20
79.5071029663086
40
0.0
41
0.0
42
0.0
10
80.1147994995117
20
79.0963973999023
40
0.0
41
0.0
42
0.0
10
80.0926971435547
20
79.0140991210938
40
0.0
41
0.0
42
0.0
10
80.0000991821289
20
78.7164993286133
40
0.0
41
0.0
42
0.0
10
79.9543991088867
20
78.5497970581055
40
0.0
41
0.0
42
0.0
10
79.9461975097656
20
78.5143966674805
40
0.0
41
0.0
42
0.0
10
79.8010025024414
20
78.0537033081055
40
0.0
41
0.0
42
0.0
10
79.5869979858398
20
77.5791015625
40
0.0
41
0.0
42
0.0
10
79.5317993164062
20
77.5098037719727
40
0.0
41
0.0
42
0.0
10
79.4952011108398
20
77.3974990844727
40
0.0
41
0.0
42
0.0
10
79.3246994018555
20
77.3981018066406
40
0.0
41
0.0
42
0.0
10
78.99169921875
20
77.2358016967773
40
0.0
41
0.0
42
0.0
10
78.5953979492188
20
77.2856979370117
40
0.0
41
0.0
42
0.0
10
78.5587997436523
20
77.2855987548828
40
0.0
41
0.0
42
0.0
10
78.456298828125
20
77.2655029296875
40
0.0
41
0.0
42
0.0
10
78.0183029174805
20
77.296501159668
40
0.0
41
0.0
42
0.0
10
77.556396484375
20
77.3358001708984
40
0.0
41
0.0
42
0.0
10
77.5056991577148
20
77.3350982666016
40
0.0
41
0.0
42
0.0
10
77.4942016601562
20
77.3385009765625
40
0.0
41
0.0
42
0.0
10
77.2081985473633
20
77.5059967041016
40
0.0
41
0.0
42
0.0
10
77.0710983276367
20
77.9794998168945
40
0.0
41
0.0
42
0.0
10
77.063102722168
20
78.0117034912109
40
0.0
41
0.0
42
0.0
10
77.0630035400391
20
78.0537033081055
40
0.0
41
0.0
42
0.0
10
77.0092010498047
20
78.4934005737305
40
0.0
41
0.0
42
0.0
10
77.0094985961914
20
78.5418014526367
40
0.0
41
0.0
42
0.0
10
76.9990997314453
20
78.6240997314453
40
0.0
41
0.0
42
0.0
10
76.9269027709961
20
79.0145034790039
40
0.0
41
0.0
42
0.0
10
76.8094024658203
20
79.3483963012695
40
0.0
41
0.0
42
0.0
10
76.8862991333008
20
79.4854965209961
40
0.0
41
0.0
42
0.0
10
76.8862991333008
20
79.5152969360352
40
0.0
41
0.0
42
0.0
10
76.8224029541016
20
79.6526031494141
40
0.0
41
0.0
42
0.0
10
76.838996887207
20
79.6662979125977
40
0.0
41
0.0
42
0.0
10
76.986701965332
20
79.5597991943359
40
0.0
41
0.0
42
0.0
10
77.0131988525391
20
79.5597991943359
40
0.0
41
0.0
42
0.0
10
77.2108001708984
20
79.7003021240234
40
0.0
41
0.0
42
0.0
10
77.507698059082
20
79.9606018066406
40
0.0
41
0.0
42
0.0
10
77.5747985839844
20
79.9988021850586
40
0.0
41
0.0
42
0.0
10
78.0121994018555
20
80.1854019165039
40
0.0
41
0.0
42
0.0
10
78.4475021362305
20
80.3459014892578
40
0.0
41
0.0
42
0.0
10
78.5155029296875
20
80.3696975708008
40
0.0
41
0.0
42
0.0
10
78.5297012329102
20
80.3709030151367
40
0.0
41
0.0
42
0.0
10
78.7882995605469
20
80.4653015136719
40
0.0
41
0.0
42
0.0
10
78.8065032958984
20
80.4681015014648
40
0.0
41
0.0
42
0.0
10
78.850700378418
20
80.497200012207
40
0.0
41
0.0
42
0.0
10
79.0050964355469
20
80.6103973388672
40
0.0
41
0.0
42
0.0
10
79.1844024658203
20
80.8476028442383
40
0.0
41
0.0
42
0.0
10
79.279296875
20
80.9863967895508
40
0.0
41
0.0
42
0.0
10
79.2791976928711
20
81.0162963867188
40
0.0
41
0.0
42
0.0
10
79.2668991088867
20
81.0513000488281
40
0.0
41
0.0
42
0.0
10
79.2629013061523
20
81.5167999267578
40
0.0
41
0.0
42
0.0
10
79.1251983642578
20
81.9779968261719
40
0.0
41
0.0
42
0.0
10
79.1116027832031
20
82.0113983154297
40
0.0
41
0.0
42
0.0
10
79.0014038085938
20
82.2366027832031
40
0.0
41
0.0
42
0.0
10
78.8432006835938
20
82.5086975097656
40
0.0
41
0.0
42
0.0
10
78.8198013305664
20
82.5422973632812
40
0.0
41
0.0
42
0.0
10
78.5054016113281
20
82.929801940918
40
0.0
41
0.0
42
0.0
10
78.4019012451172
20
83.0024032592773
40
0.0
41
0.0
42
0.0
10
78.0982971191406
20
83.1887969970703
40
0.0
41
0.0
42
0.0
10
78.0121994018555
20
83.2469024658203
40
0.0
41
0.0
42
0.0
10
77.5185012817383
20
83.3140029907227
40
0.0
41
0.0
42
0.0
10
77.4815979003906
20
83.3139038085938
40
0.0
41
0.0
42
0.0
10
76.9849014282227
20
83.2344970703125
40
0.0
41
0.0
42
0.0
10
76.9520034790039
20
83.2237014770508
40
0.0
41
0.0
42
0.0
10
76.4884033203125
20
83.0482025146484
40
0.0
41
0.0
42
0.0
10
76.3949966430664
20
83.0018005371094
40
0.0
41
0.0
42
0.0
10
75.9924011230469
20
82.7221984863281
40
0.0
41
0.0
42
0.0
10
75.7791976928711
20
82.5550994873047
40
0.0
41
0.0
42
0.0
10
75.7132034301758
20
82.5067977905273
40
0.0
41
0.0
42
0.0
10
75.5402984619141
20
82.0164031982422
40
0.0
41
0.0
42
0.0
10
75.5401992797852
20
81.9834976196289
40
0.0
41
0.0
42
0.0
10
75.7106018066406
20
81.488899230957
40
0.0
41
0.0
42
0.0
10
75.9083023071289
20
81.1633987426758
40
0.0
41
0.0
42
0.0
10
75.9981994628906
20
81.0062026977539
40
0.0
41
0.0
42
0.0
10
76.2830963134766
20
80.4885025024414
40
0.0
41
0.0
42
0.0
10
76.4322967529297
20
80.0547027587891
40
0.0
41
0.0
42
0.0
10
76.4476013183594
20
80.0005035400391
40
0.0
41
0.0
42
0.0
10
76.4311981201172
20
79.9461975097656
40
0.0
41
0.0
42
0.0
10
76.3668975830078
20
79.507698059082
40
0.0
41
0.0
42
0.0
10
75.9942016601562
20
79.2573013305664
40
0.0
41
0.0
42
0.0
10
75.8171997070312
20
79.0428009033203
40
0.0
41
0.0
42
0.0
10
75.7953033447266
20
79.006103515625
40
0.0
41
0.0
42
0.0
10
75.4933013916016
20
78.7547988891602
40
0.0
41
0.0
42
0.0
10
75.2315979003906
20
78.5402984619141
40
0.0
41
0.0
42
0.0
10
75.2082977294922
20
78.5090026855469
40
0.0
41
0.0
42
0.0
10
75.2031021118164
20
78.4981994628906
40
0.0
41
0.0
42
0.0
10
74.995002746582
20
78.3012008666992
40
0.0
41
0.0
42
0.0
10
74.5502014160156
20
78.426399230957
40
0.0
41
0.0
42
0.0
10
74.5103988647461
20
78.4335021972656
40
0.0
41
0.0
42
0.0
10
74.429801940918
20
78.504997253418
40
0.0
41
0.0
42
0.0
10
74.3985977172852
20
78.5397033691406
40
0.0
41
0.0
42
0.0
10
74.0095977783203
20
78.8634033203125
40
0.0
41
0.0
42
0.0
10
73.7661972045898
20
79.0031967163086
40
0.0
41
0.0
42
0.0
10
73.5425033569336
20
79.2384033203125
40
0.0
41
0.0
42
0.0
10
73.5054016113281
20
79.2912979125977
40
0.0
41
0.0
42
0.0
10
73.1389999389648
20
79.5070037841797
40
0.0
41
0.0
42
0.0
10
73.1623001098633
20
79.9084014892578
40
0.0
41
0.0
42
0.0
10
73.1622009277344
20
79.9449996948242
40
0.0
41
0.0
42
0.0
10
73.1484985351562
20
79.9975967407227
40
0.0
41
0.0
42
0.0
10
73.309700012207
20
80.4376983642578
40
0.0
41
0.0
42
0.0
10
73.3210983276367
20
80.4869995117188
40
0.0
41
0.0
42
0.0
10
73.5009994506836
20
80.8598022460938
40
0.0
41
0.0
42
0.0
10
73.5440979003906
20
80.9539031982422
40
0.0
41
0.0
42
0.0
10
73.7976989746094
20
81.4866027832031
40
0.0
41
0.0
42
0.0
10
73.8974990844727
20
81.9820022583008
40
0.0
41
0.0
42
0.0
10
73.8973007202148
20
82.0139007568359
40
0.0
41
0.0
42
0.0
10
73.5913009643555
20
82.5045013427734
40
0.0
41
0.0
42
0.0
10
73.5451965332031
20
82.5323028564453
40
0.0
41
0.0
42
0.0
10
73.5103988647461
20
82.5477981567383
40
0.0
41
0.0
42
0.0
10
73.0454025268555
20
82.813102722168
40
0.0
41
0.0
42
0.0
10
73.0121002197266
20
82.8279037475586
40
0.0
41
0.0
42
0.0
10
72.5148010253906
20
83.0087966918945
40
0.0
41
0.0
42
0.0
10
72.0512008666992
20
83.0764007568359
40
0.0
41
0.0
42
0.0
10
72.0177001953125
20
83.0839004516602
40
0.0
41
0.0
42
0.0
10
71.9813995361328
20
83.0839004516602
40
0.0
41
0.0
42
0.0
10
71.527099609375
20
83.0205993652344
40
0.0
41
0.0
42
0.0
10
71.4829025268555
20
83.0208969116211
40
0.0
41
0.0
42
0.0
10
71.4527969360352
20
83.0119018554688
40
0.0
41
0.0
42
0.0
10
71.4488983154297
20
83.0100021362305
40
0.0
41
0.0
42
0.0
10
71.4391021728516
20
83.0024032592773
40
0.0
41
0.0
42
0.0
10
70.9934997558594
20
82.7534027099609
40
0.0
41
0.0
42
0.0
10
70.82080078125
20
82.5502014160156
40
0.0
41
0.0
42
0.0
10
70.8081970214844
20
82.5398025512695
40
0.0
41
0.0
42
0.0
10
70.7791976928711
20
82.5072021484375
40
0.0
41
0.0
42
0.0
10
70.4981002807617
20
82.065299987793
40
0.0
41
0.0
42
0.0
10
70.4702987670898
20
82.0115966796875
40
0.0
41
0.0
42
0.0
10
70.3081970214844
20
81.5476989746094
40
0.0
41
0.0
42
0.0
10
70.2954025268555
20
81.5146026611328
40
0.0
41
0.0
42
0.0
10
70.2276992797852
20
81.0514984130859
40
0.0
41
0.0
42
0.0
10
70.2164993286133
20
81.0166015625
40
0.0
41
0.0
42
0.0
10
70.2164001464844
20
80.9823989868164
40
0.0
41
0.0
42
0.0
10
70.3159027099609
20
80.5549011230469
40
0.0
41
0.0
42
0.0
10
70.3116989135742
20
80.518798828125
40
0.0
41
0.0
42
0.0
10
70.3117980957031
20
80.4889984130859
40
0.0
41
0.0
42
0.0
10
70.4250030517578
20
80.3815002441406
40
0.0
41
0.0
42
0.0
10
70.4926986694336
20
80.3040008544922
40
0.0
41
0.0
42
0.0
10
70.9033966064453
20
80.1147994995117
40
0.0
41
0.0
42
0.0
10
70.9858016967773
20
80.0926971435547
40
0.0
41
0.0
42
0.0
10
71.2834014892578
20
80.0
40
0.0
41
0.0
42
0.0
10
71.3983993530273
20
79.9671020507812
40
0.0
41
0.0
42
0.0
10
71.4856033325195
20
79.9461975097656
40
0.0
41
0.0
42
0.0
10
71.9460983276367
20
79.8010025024414
40
0.0
41
0.0
42
0.0
10
72.4206008911133
20
79.5869979858398
40
0.0
41
0.0
42
0.0
10
72.4899978637695
20
79.5317993164062
40
0.0
41
0.0
42
0.0
10
72.6022033691406
20
79.4951019287109
40
0.0
41
0.0
42
0.0
10
72.6016006469727
20
79.3246002197266
40
0.0
41
0.0
42
0.0
10
72.7639007568359
20
78.99169921875
40
0.0
41
0.0
42
0.0
10
72.7142028808594
20
78.5953979492188
40
0.0
41
0.0
42
0.0
10
72.7141036987305
20
78.5587997436523
40
0.0
41
0.0
42
0.0
10
72.7341995239258
20
78.456298828125
40
0.0
41
0.0
42
0.0
10
72.7033004760742
20
78.0192031860352
40
0.0
41
0.0
42
0.0
10
72.7032012939453
20
77.981201171875
40
0.0
41
0.0
42
0.0
10
72.7054977416992
20
77.9618988037109
40
0.0
41
0.0
42
0.0
10
72.6677017211914
20
77.515998840332
40
0.0
41
0.0
42
0.0
10
72.6613006591797
20
77.4943008422852
40
0.0
41
0.0
42
0.0
10
72.493896484375
20
77.2081985473633
40
0.0
41
0.0
42
0.0
10
72.0204010009766
20
77.0710983276367
40
0.0
41
0.0
42
0.0
10
71.9881973266602
20
77.063102722168
40
0.0
41
0.0
42
0.0
10
71.9461975097656
20
77.0630035400391
40
0.0
41
0.0
42
0.0
10
71.5065002441406
20
77.0092010498047
40
0.0
41
0.0
42
0.0
10
71.4580001831055
20
77.0094985961914
40
0.0
41
0.0
42
0.0
10
71.3757019042969
20
76.9990997314453
40
0.0
41
0.0
42
0.0
10
70.9853973388672
20
76.9269027709961
40
0.0
41
0.0
42
0.0
10
70.6513977050781
20
76.8094024658203
40
0.0
41
0.0
42
0.0
10
70.5143966674805
20
76.8862991333008
40
0.0
41
0.0
42
0.0
10
70.4845962524414
20
76.8863983154297
40
0.0
41
0.0
42
0.0
10
70.3459014892578
20
76.8207015991211
40
0.0
41
0.0
42
0.0
10
70.3320007324219
20
76.8375015258789
40
0.0
41
0.0
42
0.0
10
70.4401016235352
20
76.9868011474609
40
0.0
41
0.0
42
0.0
10
70.4400024414062
20
77.0131988525391
40
0.0
41
0.0
42
0.0
10
70.2994003295898
20
77.2108001708984
40
0.0
41
0.0
42
0.0
10
70.0391006469727
20
77.507698059082
40
0.0
41
0.0
42
0.0
10
70.0009994506836
20
77.5747985839844
40
0.0
41
0.0
42
0.0
10
69.8143005371094
20
78.0121994018555
40
0.0
41
0.0
42
0.0
10
69.6539001464844
20
78.4474029541016
40
0.0
41
0.0
42
0.0
10
69.5369033813477
20
78.7705993652344
40
0.0
41
0.0
42
0.0
10
69.5015029907227
20
78.8520965576172
40
0.0
41
0.0
42
0.0
10
69.3893966674805
20
79.004997253418
40
0.0
41
0.0
42
0.0
10
69.152099609375
20
79.1843032836914
40
0.0
41
0.0
42
0.0
10
69.0134963989258
20
79.279296875
40
0.0
41
0.0
42
0.0
10
68.9835968017578
20
79.2791976928711
40
0.0
41
0.0
42
0.0
10
68.948600769043
20
79.2668991088867
40
0.0
41
0.0
42
0.0
10
68.4831008911133
20
79.2629013061523
40
0.0
41
0.0
42
0.0
10
68.0218963623047
20
79.1251983642578
40
0.0
41
0.0
42
0.0
10
67.9885025024414
20
79.1116027832031
40
0.0
41
0.0
42
0.0
10
67.7631988525391
20
79.0014038085938
40
0.0
41
0.0
42
0.0
10
67.4912033081055
20
78.8432006835938
40
0.0
41
0.0
42
0.0
10
67.4576034545898
20
78.8199005126953
40
0.0
41
0.0
42
0.0
10
67.0699005126953
20
78.505500793457
40
0.0
41
0.0
42
0.0
10
66.9974975585938
20
78.4020004272461
40
0.0
41
0.0
42
0.0
10
66.8108978271484
20
78.0983963012695
40
0.0
41
0.0
42
0.0
10
66.752799987793
20
78.0122985839844
40
0.0
41
0.0
42
0.0
10
66.6858978271484
20
77.5185012817383
40
0.0
41
0.0
42
0.0
10
66.6857986450195
20
77.4815979003906
40
0.0
41
0.0
42
0.0
10
66.7651977539062
20
76.9849014282227
40
0.0
41
0.0
42
0.0
10
66.7760009765625
20
76.9518966674805
40
0.0
41
0.0
42
0.0
10
66.9514007568359
20
76.4882965087891
40
0.0
41
0.0
42
0.0
210
0.0
220
0.0
230
1.0
0
LWPOLYLINE
5
25
330
1C
100
AcDbEntity
67
0
8
0
62
256
6
ByLayer
370
-1
48
1.0
60
0
100
AcDbPolyline
90
32
70
1
38
0.0
39
0.0
10
66.7083969116211
20
77.502197265625
40
0.0
41
0.0
42
0.0
10
66.774299621582
20
77.9871978759766
40
0.0
41
0.0
42
0.0
10
67.0047988891602
20
78.3629989624023
40
0.0
41
0.0
42
0.0
10
67.0968017578125
20
78.4944000244141
40
0.0
41
0.0
42
0.0
10
67.5080032348633
20
78.8268966674805
40
0.0
41
0.0
42
0.0
10
67.8026962280273
20
78.9983978271484
40
0.0
41
0.0
42
0.0
10
68.0122985839844
20
79.1005020141602
40
0.0
41
0.0
42
0.0
10
68.5096969604492
20
79.2490005493164
40
0.0
41
0.0
42
0.0
10
68.5176010131836
20
79.250602722168
40
0.0
41
0.0
42
0.0
10
68.9786987304688
20
79.2546997070312
40
0.0
41
0.0
42
0.0
10
68.9890975952148
20
79.2520980834961
40
0.0
41
0.0
42
0.0
10
69.3292999267578
20
78.9947967529297
40
0.0
41
0.0
42
0.0
10
69.4925003051758
20
78.7722015380859
40
0.0
41
0.0
42
0.0
10
69.4990997314453
20
78.760498046875
40
0.0
41
0.0
42
0.0
10
69.782600402832
20
77.9877014160156
40
0.0
41
0.0
42
0.0
10
69.9949035644531
20
77.4899978637695
40
0.0
41
0.0
42
0.0
10
69.9953994750977
20
77.4767990112305
40
0.0
41
0.0
42
0.0
10
69.9983978271484
20
77.4693984985352
40
0.0
41
0.0
42
0.0
10
70.3324966430664
20
77.0
40
0.0
41
0.0
42
0.0
10
69.9964981079102
20
76.5366973876953
40
0.0
41
0.0
42
0.0
10
69.9664993286133
20
76.5018997192383
40
0.0
41
0.0
42
0.0
10
69.4885025024414
20
76.3378982543945
40
0.0
41
0.0
42
0.0
10
68.9886016845703
20
76.060302734375
40
0.0
41
0.0
42
0.0
10
68.8797988891602
20
76.0017013549805
40
0.0
41
0.0
42
0.0
10
68.488899230957
20
75.7640991210938
40
0.0
41
0.0
42
0.0
10
68.0001983642578
20
75.5959014892578
40
0.0
41
0.0
42
0.0
10
67.5072021484375
20
75.7695999145508
40
0.0
41
0.0
42
0.0
10
67.3180999755859
20
76.0103988647461
40
0.0
41
0.0
42
0.0
10
67.0053024291992
20
76.4606018066406
40
0.0
41
0.0
42
0.0
10
66.9758987426758
20
76.5173034667969
40
0.0
41
0.0
42
0.0
10
66.7876968383789
20
77.0145034790039
40
0.0
41
0.0
42
0.0
10
66.7083969116211
20
77.502197265625
40
0.0
41
0.0
42
0.0
210
0.0
220
0.0
230
1.0
0
LWPOLYLINE
5
26
330
1C
100
AcDbEntity
67
0
8
0
62
256
6
ByLayer
370
-1
48
1.0
60
0
100
AcDbPolyline
90
242
70
1
38
0.0
39
0.0
10
66.9996032714844
20
72.4850997924805
40
0.0
41
0.0
42
0.0
10
67.1837997436523
20
72.9888000488281
40
0.0
41
0.0
42
0.0
10
67.4672012329102
20
73.4856033325195
40
0.0
41
0.0
42
0.0
10
67.5046005249023
20
73.5469970703125
40
0.0
41
0.0
42
0.0
10
68.0062026977539
20
73.8600997924805
40
0.0
41
0.0
42
0.0
10
68.4866027832031
20
73.763801574707
40
0.0
41
0.0
42
0.0
10
69.0460968017578
20
73.4989013671875
40
0.0
41
0.0
42
0.0
10
69.4886016845703
20
73.2845993041992
40
0.0
41
0.0
42
0.0
10
69.5140991210938
20
73.2738037109375
40
0.0
41
0.0
42
0.0
10
69.9850006103516
20
73.1011962890625
40
0.0
41
0.0
42
0.0
10
70.0550003051758
20
73.0916976928711
40
0.0
41
0.0
42
0.0
10
70.480598449707
20
73.0672988891602
40
0.0
41
0.0
42
0.0
10
70.5078964233398
20
73.0672988891602
40
0.0
41
0.0
42
0.0
10
70.7583999633789
20
73.4931030273438
40
0.0
41
0.0
42
0.0
10
71.0031967163086
20
73.7258987426758
40
0.0
41
0.0
42
0.0
10
71.1557998657227
20
73.9919967651367
40
0.0
41
0.0
42
0.0
10
71.5039978027344
20
74.4103012084961
40
0.0
41
0.0
42
0.0
10
71.5739974975586
20
74.4901962280273
40
0.0
41
0.0
42
0.0
10
71.7127990722656
20
74.9838027954102
40
0.0
41
0.0
42
0.0
10
71.7145004272461
20
74.9862976074219
40
0.0
41
0.0
42
0.0
10
71.7144012451172
20
75.0115966796875
40
0.0
41
0.0
42
0.0
10
71.5074005126953
20
75.2302017211914
40
0.0
41
0.0
42
0.0
10
71.2807006835938
20
75.5065002441406
40
0.0
41
0.0
42
0.0
10
71.0050964355469
20
75.83740234375
40
0.0
41
0.0
42
0.0
10
70.8013000488281
20
76.0055999755859
40
0.0
41
0.0
42
0.0
10
70.507698059082
20
76.4411010742188
40
0.0
41
0.0
42
0.0
10
70.1417999267578
20
76.4953002929688
40
0.0
41
0.0
42
0.0
10
70.1390991210938
20
76.5133972167969
40
0.0
41
0.0
42
0.0
10
70.5029983520508
20
76.6858978271484
40
0.0
41
0.0
42
0.0
10
70.5123977661133
20
76.7130966186523
40
0.0
41
0.0
42
0.0
10
71.0092010498047
20
76.8879013061523
40
0.0
41
0.0
42
0.0
10
71.0152969360352
20
76.8933029174805
40
0.0
41
0.0
42
0.0
10
71.521598815918
20
76.9947967529297
40
0.0
41
0.0
42
0.0
10
72.0313034057617
20
77.0565032958984
40
0.0
41
0.0
42
0.0
10
72.506103515625
20
77.1940002441406
40
0.0
41
0.0
42
0.0
10
72.6781997680664
20
77.4863967895508
40
0.0
41
0.0
42
0.0
10
72.7205963134766
20
77.9906005859375
40
0.0
41
0.0
42
0.0
10
72.755500793457
20
78.4833984375
40
0.0
41
0.0
42
0.0
10
72.7605972290039
20
78.5029983520508
40
0.0
41
0.0
42
0.0
10
72.8211975097656
20
78.9841003417969
40
0.0
41
0.0
42
0.0
10
72.8408966064453
20
79.0558013916016
40
0.0
41
0.0
42
0.0
10
72.8420028686523
20
79.5046997070312
40
0.0
41
0.0
42
0.0
10
72.5149993896484
20
79.6116027832031
40
0.0
41
0.0
42
0.0
10
72.4968032836914
20
79.6163024902344
40
0.0
41
0.0
42
0.0
10
72.0124969482422
20
79.8341979980469
40
0.0
41
0.0
42
0.0
10
71.5142974853516
20
79.9905014038086
40
0.0
41
0.0
42
0.0
10
71.4589996337891
20
80.0039978027344
40
0.0
41
0.0
42
0.0
10
71.0152969360352
20
80.1423034667969
40
0.0
41
0.0
42
0.0
10
70.9856033325195
20
80.1575012207031
40
0.0
41
0.0
42
0.0
10
70.5080032348633
20
80.3776016235352
40
0.0
41
0.0
42
0.0
10
70.3720016479492
20
80.5065994262695
40
0.0
41
0.0
42
0.0
10
70.363899230957
20
80.5195999145508
40
0.0
41
0.0
42
0.0
10
70.2507019042969
20
81.0064010620117
40
0.0
41
0.0
42
0.0
10
70.3206024169922
20
81.4850006103516
40
0.0
41
0.0
42
0.0
10
70.4961013793945
20
81.9880981445312
40
0.0
41
0.0
42
0.0
10
70.5016021728516
20
81.9991989135742
40
0.0
41
0.0
42
0.0
10
70.8144989013672
20
82.4924011230469
40
0.0
41
0.0
42
0.0
10
71.0064010620117
20
82.7180023193359
40
0.0
41
0.0
42
0.0
10
71.5130996704102
20
83.0019989013672
40
0.0
41
0.0
42
0.0
10
71.9996032714844
20
83.0706024169922
40
0.0
41
0.0
42
0.0
10
72.4850997924805
20
83.0000991821289
40
0.0
41
0.0
42
0.0
10
72.9888000488281
20
82.8159027099609
40
0.0
41
0.0
42
0.0
10
73.4856033325195
20
82.5325012207031
40
0.0
41
0.0
42
0.0
10
73.5469970703125
20
82.4953002929688
40
0.0
41
0.0
42
0.0
10
73.8600997924805
20
81.9936981201172
40
0.0
41
0.0
42
0.0
10
73.7639007568359
20
81.513298034668
40
0.0
41
0.0
42
0.0
10
73.4989013671875
20
80.9536972045898
40
0.0
41
0.0
42
0.0
10
73.2846984863281
20
80.5111999511719
40
0.0
41
0.0
42
0.0
10
73.2738037109375
20
80.4858016967773
40
0.0
41
0.0
42
0.0
10
73.1013031005859
20
80.0149002075195
40
0.0
41
0.0
42
0.0
10
73.0916976928711
20
79.9449005126953
40
0.0
41
0.0
42
0.0
10
73.0672988891602
20
79.5193023681641
40
0.0
41
0.0
42
0.0
10
73.0671005249023
20
79.4918975830078
40
0.0
41
0.0
42
0.0
10
73.4931030273438
20
79.2413024902344
40
0.0
41
0.0
42
0.0
10
73.7257995605469
20
78.9965972900391
40
0.0
41
0.0
42
0.0
10
73.9919967651367
20
78.8439025878906
40
0.0
41
0.0
42
0.0
10
74.4102020263672
20
78.4957962036133
40
0.0
41
0.0
42
0.0
10
74.4901962280273
20
78.4257965087891
40
0.0
41
0.0
42
0.0
10
74.9838027954102
20
78.2869033813477
40
0.0
41
0.0
42
0.0
10
74.9862976074219
20
78.285400390625
40
0.0
41
0.0
42
0.0
10
75.0115966796875
20
78.285400390625
40
0.0
41
0.0
42
0.0
10
75.2341995239258
20
78.4956970214844
40
0.0
41
0.0
42
0.0
10
75.5065994262695
20
78.7190017700195
40
0.0
41
0.0
42
0.0
10
75.83740234375
20
78.9947967529297
40
0.0
41
0.0
42
0.0
10
76.0056991577148
20
79.1985015869141
40
0.0
41
0.0
42
0.0
10
76.4411010742188
20
79.4922027587891
40
0.0
41
0.0
42
0.0
10
76.4953002929688
20
79.8581008911133
40
0.0
41
0.0
42
0.0
10
76.5133972167969
20
79.8608016967773
40
0.0
41
0.0
42
0.0
10
76.6857986450195
20
79.4968032836914
40
0.0
41
0.0
42
0.0
10
76.7130966186523
20
79.4872970581055
40
0.0
41
0.0
42
0.0
10
76.8877029418945
20
78.9913024902344
40
0.0
41
0.0
42
0.0
10
76.8934020996094
20
78.984001159668
40
0.0
41
0.0
42
0.0
10
76.9947967529297
20
78.4783020019531
40
0.0
41
0.0
42
0.0
10
77.0565032958984
20
77.9684982299805
40
0.0
41
0.0
42
0.0
10
77.1939010620117
20
77.4936981201172
40
0.0
41
0.0
42
0.0
10
77.4863967895508
20
77.3215026855469
40
0.0
41
0.0
42
0.0
10
77.9906005859375
20
77.2791976928711
40
0.0
41
0.0
42
0.0
10
78.4833984375
20
77.2442016601562
40
0.0
41
0.0
42
0.0
10
78.5028991699219
20
77.2390975952148
40
0.0
41
0.0
42
0.0
10
78.984001159668
20
77.1784973144531
40
0.0
41
0.0
42
0.0
10
79.0558013916016
20
77.1587982177734
40
0.0
41
0.0
42
0.0
10
79.5046997070312
20
77.1576995849609
40
0.0
41
0.0
42
0.0
10
79.6116027832031
20
77.4848022460938
40
0.0
41
0.0
42
0.0
10
79.6163024902344
20
77.5028991699219
40
0.0
41
0.0
42
0.0
10
79.8342971801758
20
77.9873962402344
40
0.0
41
0.0
42
0.0
10
79.9905014038086
20
78.4856033325195
40
0.0
41
0.0
42
0.0
10
79.9997024536133
20
78.5224990844727
40
0.0
41
0.0
42
0.0
10
80.1436004638672
20
78.9879989624023
40
0.0
41
0.0
42
0.0
10
80.157600402832
20
79.0143966674805
40
0.0
41
0.0
42
0.0
10
80.3776016235352
20
79.4918975830078
40
0.0
41
0.0
42
0.0
10
80.5065994262695
20
79.627799987793
40
0.0
41
0.0
42
0.0
10
80.5196990966797
20
79.6358032226562
40
0.0
41
0.0
42
0.0
10
81.0064010620117
20
79.7490005493164
40
0.0
41
0.0
42
0.0
10
81.4850006103516
20
79.6791000366211
40
0.0
41
0.0
42
0.0
10
81.9878997802734
20
79.5036010742188
40
0.0
41
0.0
42
0.0
10
81.9990997314453
20
79.4982986450195
40
0.0
41
0.0
42
0.0
10
82.4924011230469
20
79.1852035522461
40
0.0
41
0.0
42
0.0
10
82.7180023193359
20
78.9934997558594
40
0.0
41
0.0
42
0.0
10
83.0019989013672
20
78.4868011474609
40
0.0
41
0.0
42
0.0
10
83.0706024169922
20
78.0002975463867
40
0.0
41
0.0
42
0.0
10
83.0000991821289
20
77.5148010253906
40
0.0
41
0.0
42
0.0
10
82.8160018920898
20
77.011100769043
40
0.0
41
0.0
42
0.0
10
82.5325012207031
20
76.5142974853516
40
0.0
41
0.0
42
0.0
10
82.4953994750977
20
76.4526977539062
40
0.0
41
0.0
42
0.0
10
81.9936981201172
20
76.1396026611328
40
0.0
41
0.0
42
0.0
10
81.513298034668
20
76.2358016967773
40
0.0
41
0.0
42
0.0
10
80.9535980224609
20
76.5009002685547
40
0.0
41
0.0
42
0.0
10
80.5111999511719
20
76.7149963378906
40
0.0
41
0.0
42
0.0
10
80.4858016967773
20
76.7258987426758
40
0.0
41
0.0
42
0.0
10
80.0148010253906
20
76.8983993530273
40
0.0
41
0.0
42
0.0
10
79.9449005126953
20
76.9079971313477
40
0.0
41
0.0
42
0.0
10
79.5193023681641
20
76.9326019287109
40
0.0
41
0.0
42
0.0
10
79.4918975830078
20
76.9326019287109
40
0.0
41
0.0
42
0.0
10
79.2413024902344
20
76.5067977905273
40
0.0
41
0.0
42
0.0
10
78.9933013916016
20
76.2701034545898
40
0.0
41
0.0
42
0.0
10
78.8440017700195
20
76.0078964233398
40
0.0
41
0.0
42
0.0
10
78.4959030151367
20
75.5895004272461
40
0.0
41
0.0
42
0.0
10
78.4259033203125
20
75.5096969604492
40
0.0
41
0.0
42
0.0
10
78.2870025634766
20
75.0160980224609
40
0.0
41
0.0
42
0.0
10
78.285400390625
20
75.0136032104492
40
0.0
41
0.0
42
0.0
10
78.2853012084961
20
74.9882965087891
40
0.0
41
0.0
42
0.0
10
78.4956970214844
20
74.7655029296875
40
0.0
41
0.0
42
0.0
10
78.7190017700195
20
74.4933013916016
40
0.0
41
0.0
42
0.0
10
78.9946975708008
20
74.1623992919922
40
0.0
41
0.0
42
0.0
10
79.1984024047852
20
73.9942016601562
40
0.0
41
0.0
42
0.0
10
79.4921035766602
20
73.5586013793945
40
0.0
41
0.0
42
0.0
10
79.8581008911133
20
73.5046997070312
40
0.0
41
0.0
42
0.0
10
79.8608016967773
20
73.4866027832031
40
0.0
41
0.0
42
0.0
10
79.4969024658203
20
73.3139038085938
40
0.0
41
0.0
42
0.0
10
79.4873962402344
20
73.2865982055664
40
0.0
41
0.0
42
0.0
10
78.9913024902344
20
73.1120986938477
40
0.0
41
0.0
42
0.0
10
78.984001159668
20
73.1063003540039
40
0.0
41
0.0
42
0.0
10
78.4783020019531
20
73.004997253418
40
0.0
41
0.0
42
0.0
10
77.9685974121094
20
72.9432983398438
40
0.0
41
0.0
42
0.0
10
77.4937973022461
20
72.8059005737305
40
0.0
41
0.0
42
0.0
10
77.3216018676758
20
72.5133972167969
40
0.0
41
0.0
42
0.0
10
77.2791976928711
20
72.0093002319336
40
0.0
41
0.0
42
0.0
10
77.2443008422852
20
71.5165023803711
40
0.0
41
0.0
42
0.0
10
77.2390975952148
20
71.4970016479492
40
0.0
41
0.0
42
0.0
10
77.178596496582
20
71.0158996582031
40
0.0
41
0.0
42
0.0
10
77.1587982177734
20
70.9440002441406
40
0.0
41
0.0
42
0.0
10
77.157600402832
20
70.4951019287109
40
0.0
41
0.0
42
0.0
10
77.4847030639648
20
70.3880996704102
40
0.0
41
0.0
42
0.0
10
77.5028991699219
20
70.3834991455078
40
0.0
41
0.0
42
0.0
10
77.9873962402344
20
70.1654968261719
40
0.0
41
0.0
42
0.0
10
78.4856033325195
20
70.0092010498047
40
0.0
41
0.0
42
0.0
10
78.5224990844727
20
70.0000991821289
40
0.0
41
0.0
42
0.0
10
78.9879989624023
20
69.8561019897461
40
0.0
41
0.0
42
0.0
10
79.0142974853516
20
69.8421020507812
40
0.0
41
0.0
42
0.0
10
79.4917984008789
20
69.6221008300781
40
0.0
41
0.0
42
0.0
10
79.627799987793
20
69.4932022094727
40
0.0
41
0.0
42
0.0
10
79.6358032226562
20
69.4801025390625
40
0.0
41
0.0
42
0.0
10
79.7490005493164
20
68.9934997558594
40
0.0
41
0.0
42
0.0
10
79.6791000366211
20
68.5149002075195
40
0.0
41
0.0
42
0.0
10
79.5036010742188
20
68.0118026733398
40
0.0
41
0.0
42
0.0
10
79.4953994750977
20
67.9952011108398
40
0.0
41
0.0
42
0.0
10
79.185302734375
20
67.5074996948242
40
0.0
41
0.0
42
0.0
10
78.9934997558594
20
67.2817001342773
40
0.0
41
0.0
42
0.0
10
78.4868011474609
20
66.9977035522461
40
0.0
41
0.0
42
0.0
10
78.0002975463867
20
66.9291000366211
40
0.0
41
0.0
42
0.0
10
77.5148010253906
20
66.9996032714844
40
0.0
41
0.0
42
0.0
10
77.0110015869141
20
67.1837005615234
40
0.0
41
0.0
42
0.0
10
76.5142974853516
20
67.4672012329102
40
0.0
41
0.0
42
0.0
10
76.4526977539062
20
67.5045013427734
40
0.0
41
0.0
42
0.0
10
76.1396026611328
20
68.0062026977539
40
0.0
41
0.0
42
0.0
10
76.2359008789062
20
68.4866027832031
40
0.0
41
0.0
42
0.0
10
76.5009002685547
20
69.0460968017578
40
0.0
41
0.0
42
0.0
10
76.7151031494141
20
69.4887008666992
40
0.0
41
0.0
42
0.0
10
76.7259979248047
20
69.5140991210938
40
0.0
41
0.0
42
0.0
10
76.8984985351562
20
69.9850997924805
40
0.0
41
0.0
42
0.0
10
76.9079971313477
20
70.0550003051758
40
0.0
41
0.0
42
0.0
10
76.9326019287109
20
70.480598449707
40
0.0
41
0.0
42
0.0
10
76.932502746582
20
70.5078964233398
40
0.0
41
0.0
42
0.0
10
76.5067977905273
20
70.7583999633789
40
0.0
41
0.0
42
0.0
10
76.2701034545898
20
71.0064010620117
40
0.0
41
0.0
42
0.0
10
76.0078964233398
20
71.1557006835938
40
0.0
41
0.0
42
0.0
10
75.5895004272461
20
71.5038986206055
40
0.0
41
0.0
42
0.0
10
75.5095977783203
20
71.5738983154297
40
0.0
41
0.0
42
0.0
10
75.0160980224609
20
71.7126998901367
40
0.0
41
0.0
42
0.0
10
75.0136032104492
20
71.7145004272461
40
0.0
41
0.0
42
0.0
10
74.9882965087891
20
71.7144012451172
40
0.0
41
0.0
42
0.0
10
74.7695999145508
20
71.5074996948242
40
0.0
41
0.0
42
0.0
10
74.4933013916016
20
71.2807006835938
40
0.0
41
0.0
42
0.0
10
74.1624984741211
20
71.0050964355469
40
0.0
41
0.0
42
0.0
10
73.9942016601562
20
70.8013000488281
40
0.0
41
0.0
42
0.0
10
73.5586013793945
20
70.5077972412109
40
0.0
41
0.0
42
0.0
10
73.5046997070312
20
70.1417999267578
40
0.0
41
0.0
42
0.0
10
73.4866027832031
20
70.1390991210938
40
0.0
41
0.0
42
0.0
10
73.3139038085938
20
70.5028991699219
40
0.0
41
0.0
42
0.0
10
73.2865982055664
20
70.5122985839844
40
0.0
41
0.0
42
0.0
10
73.1119003295898
20
71.0091018676758
40
0.0
41
0.0
42
0.0
10
73.1063995361328
20
71.0152969360352
40
0.0
41
0.0
42
0.0
10
73.0048980712891
20
71.521598815918
40
0.0
41
0.0
42
0.0
10
72.9432983398438
20
72.0311965942383
40
0.0
41
0.0
42
0.0
10
72.8058013916016
20
72.506103515625
40
0.0
41
0.0
42
0.0
10
72.5133972167969
20
72.6781005859375
40
0.0
41
0.0
42
0.0
10
72.0093002319336
20
72.7205963134766
40
0.0
41
0.0
42
0.0
10
71.5165023803711
20
72.7554016113281
40
0.0
41
0.0
42
0.0
10
71.4969024658203
20
72.7605972290039
40
0.0
41
0.0
42
0.0
10
71.0158004760742
20
72.8210983276367
40
0.0
41
0.0
42
0.0
10
70.9440002441406
20
72.8408966064453
40
0.0
41
0.0
42
0.0
10
70.4951019287109
20
72.8421020507812
40
0.0
41
0.0
42
0.0
10
70.3880996704102
20
72.5150985717773
40
0.0
41
0.0
42
0.0
10
70.3835983276367
20
72.4969024658203
40
0.0
41
0.0
42
0.0
10
70.1654968261719
20
72.0124969482422
40
0.0
41
0.0
42
0.0
10
70.0092010498047
20
71.5142974853516
40
0.0
41
0.0
42
0.0
10
69.9956970214844
20
71.4589996337891
40
0.0
41
0.0
42
0.0
10
69.8573989868164
20
71.0152969360352
40
0.0
41
0.0
42
0.0
10
69.8422012329102
20
70.9856033325195
40
0.0
41
0.0
42
0.0
10
69.622200012207
20
70.5080032348633
40
0.0
41
0.0
42
0.0
10
69.4933013916016
20
70.3719024658203
40
0.0
41
0.0
42
0.0
10
69.4801025390625
20
70.363899230957
40
0.0
41
0.0
42
0.0
10
68.9934997558594
20
70.2507019042969
40
0.0
41
0.0
42
0.0
10
68.5149002075195
20
70.3206024169922
40
0.0
41
0.0
42
0.0
10
68.0118026733398
20
70.4961013793945
40
0.0
41
0.0
42
0.0
10
67.9952011108398
20
70.5044021606445
40
0.0
41
0.0
42
0.0
10
67.5074005126953
20
70.8144989013672
40
0.0
41
0.0
42
0.0
10
67.2806015014648
20
71.0074005126953
40
0.0
41
0.0
42
0.0
10
67.0025024414062
20
71.503303527832
40
0.0
41
0.0
42
0.0
10
66.9954986572266
20
71.5231018066406
40
0.0
41
0.0
42
0.0
10
66.9291000366211
20
71.9996032714844
40
0.0
41
0.0
42
0.0
10
66.9996032714844
20
72.4850997924805
40
0.0
41
0.0
42
0.0
210
0.0
220
0.0
230
1.0
0
LWPOLYLINE
5
27
330
1C
100
AcDbEntity
67
0
8
0
62
256
6
ByLayer
370
-1
48
1.0
60
0
100
AcDbPolyline
90
30
70
1
38
0.0
39
0.0
10
67.6511993408203
20
84.6969985961914
40
0.0
41
0.0
42
0.0
10
67.6921997070312
20
84.4951019287109
40
0.0
41
0.0
42
0.0
10
67.8584976196289
20
84.4273986816406
40
0.0
41
0.0
42
0.0
10
67.9853973388672
20
84.370002746582
40
0.0
41
0.0
42
0.0
10
68.4392013549805
20
84.3245010375977
40
0.0
41
0.0
42
0.0
10
68.9792022705078
20
84.3366012573242
40
0.0
41
0.0
42
0.0
10
69.5176010131836
20
84.3851013183594
40
0.0
41
0.0
42
0.0
10
69.5515975952148
20
84.3899002075195
40
0.0
41
0.0
42
0.0
10
70.0150985717773
20
84.4767990112305
40
0.0
41
0.0
42
0.0
10
70.0429992675781
20
84.4850006103516
40
0.0
41
0.0
42
0.0
10
70.0753021240234
20
84.4994964599609
40
0.0
41
0.0
42
0.0
10
70.5113983154297
20
84.6414031982422
40
0.0
41
0.0
42
0.0
10
71.0075988769531
20
84.9279022216797
40
0.0
41
0.0
42
0.0
10
71.0539016723633
20
84.9682998657227
40
0.0
41
0.0
42
0.0
10
71.0737991333008
20
84.9885025024414
40
0.0
41
0.0
42
0.0
10
71.0737991333008
20
84.9990005493164
40
0.0
41
0.0
42
0.0
10
71.03759765625
20
84.9989013671875
40
0.0
41
0.0
42
0.0
10
70.9922027587891
20
84.9592971801758
40
0.0
41
0.0
42
0.0
10
70.4885025024414
20
84.6689987182617
40
0.0
41
0.0
42
0.0
10
69.9850997924805
20
84.5053024291992
40
0.0
41
0.0
42
0.0
10
69.4828033447266
20
84.4117965698242
40
0.0
41
0.0
42
0.0
10
68.9811019897461
20
84.3662033081055
40
0.0
41
0.0
42
0.0
10
68.5131988525391
20
84.3554000854492
40
0.0
41
0.0
42
0.0
10
68.0148010253906
20
84.4058990478516
40
0.0
41
0.0
42
0.0
10
67.7794036865234
20
84.5015029907227
40
0.0
41
0.0
42
0.0
10
67.765998840332
20
84.5120010375977
40
0.0
41
0.0
42
0.0
10
67.5824966430664
20
84.9990005493164
40
0.0
41
0.0
42
0.0
10
67.5432968139648
20
84.9990005493164
40
0.0
41
0.0
42
0.0
10
67.5431976318359
20
84.9838027954102
40
0.0
41
0.0
42
0.0
10
67.6511993408203
20
84.6969985961914
40
0.0
41
0.0
42
0.0
210
0.0
220
0.0
230
1.0
0
LWPOLYLINE
5
28
330
1C
100
AcDbEntity
67
0
8
0
62
256
6
ByLayer
370
-1
48
1.0
60
0
100
AcDbPolyline
90
23
70
1
38
0.0
39
0.0
10
68.5737991333008
20
65.0009002685547
40
0.0
41
0.0
42
0.0
10
69.0158996582031
20
65.1307983398438
40
0.0
41
0.0
42
0.0
10
69.5137023925781
20
65.181396484375
40
0.0
41
0.0
42
0.0
10
69.9893035888672
20
65.1920013427734
40
0.0
41
0.0
42
0.0
10
70.4820022583008
20
65.1699981689453
40
0.0
41
0.0
42
0.0
10
70.9801025390625
20
65.0925979614258
40
0.0
41
0.0
42
0.0
10
71.2388000488281
20
65.0009994506836
40
0.0
41
0.0
42
0.0
10
71.3274993896484
20
65.0009994506836
40
0.0
41
0.0
42
0.0
10
71.3274002075195
20
65.0050964355469
40
0.0
41
0.0
42
0.0
10
71.1540985107422
20
65.0667037963867
40
0.0
41
0.0
42
0.0
10
71.0497970581055
20
65.1074981689453
40
0.0
41
0.0
42
0.0
10
71.0169982910156
20
65.1115036010742
40
0.0
41
0.0
42
0.0
10
70.5532989501953
20
65.1836013793945
40
0.0
41
0.0
42
0.0
10
70.5195007324219
20
65.1836013793945
40
0.0
41
0.0
42
0.0
10
70.0544967651367
20
65.2041015625
40
0.0
41
0.0
42
0.0
10
70.0151977539062
20
65.2040023803711
40
0.0
41
0.0
42
0.0
10
69.5158996582031
20
65.192497253418
40
0.0
41
0.0
42
0.0
10
69.4816970825195
20
65.1903991699219
40
0.0
41
0.0
42
0.0
10
68.984001159668
20
65.1395034790039
40
0.0
41
0.0
42
0.0
10
68.5398025512695
20
65.0090026855469
40
0.0
41
0.0
42
0.0
10
68.5350036621094
20
65.0066986083984
40
0.0
41
0.0
42
0.0
10
68.5350036621094
20
65.0009994506836
40
0.0
41
0.0
42
0.0
10
68.5737991333008
20
65.0009002685547
40
0.0
41
0.0
42
0.0
210
0.0
220
0.0
230
1.0
0
LWPOLYLINE
5
29
330
1C
100
AcDbEntity
67
0
8
0
62
256
6
ByLayer
370
-1
48
1.0
60
0
100
AcDbPolyline
90
31
70
1
38
0.0
39
0.0
10
70.7479019165039
20
68.9894027709961
40
0.0
41
0.0
42
0.0
10
71.004997253418
20
69.3293991088867
40
0.0
41
0.0
42
0.0
10
71.2276000976562
20
69.4926986694336
40
0.0
41
0.0
42
0.0
10
71.2393035888672
20
69.4990997314453
40
0.0
41
0.0
42
0.0
10
72.0121994018555
20
69.7826995849609
40
0.0
41
0.0
42
0.0
10
72.5098037719727
20
69.9949035644531
40
0.0
41
0.0
42
0.0
10
72.5230026245117
20
69.9953994750977
40
0.0
41
0.0
42
0.0
10
72.5302963256836
20
69.9984970092773
40
0.0
41
0.0
42
0.0
10
72.9999008178711
20
70.3323974609375
40
0.0
41
0.0
42
0.0
10
73.4629974365234
20
69.9963989257812
40
0.0
41
0.0
42
0.0
10
73.4979019165039
20
69.9664001464844
40
0.0
41
0.0
42
0.0
10
73.6617965698242
20
69.4885025024414
40
0.0
41
0.0
42
0.0
10
73.9385986328125
20
68.9899978637695
40
0.0
41
0.0
42
0.0
10
73.9981002807617
20
68.8797988891602
40
0.0
41
0.0
42
0.0
10
74.2356033325195
20
68.488899230957
40
0.0
41
0.0
42
0.0
10
74.4038009643555
20
68.0001983642578
40
0.0
41
0.0
42
0.0
10
74.2301025390625
20
67.5072021484375
40
0.0
41
0.0
42
0.0
10
73.9893035888672
20
67.3181991577148
40
0.0
41
0.0
42
0.0
10
73.5391998291016
20
67.0054016113281
40
0.0
41
0.0
42
0.0
10
73.4887008666992
20
66.978401184082
40
0.0
41
0.0
42
0.0
10
72.9853973388672
20
66.7876968383789
40
0.0
41
0.0
42
0.0
10
72.4975967407227
20
66.7083969116211
40
0.0
41
0.0
42
0.0
10
72.0127029418945
20
66.7742004394531
40
0.0
41
0.0
42
0.0
10
71.6369018554688
20
67.0047988891602
40
0.0
41
0.0
42
0.0
10
71.5054016113281
20
67.0968017578125
40
0.0
41
0.0
42
0.0
10
71.1728973388672
20
67.5080032348633
40
0.0
41
0.0
42
0.0
10
71.0014038085938
20
67.8025970458984
40
0.0
41
0.0
42
0.0
10
70.8992004394531
20
68.0122985839844
40
0.0
41
0.0
42
0.0
10
70.7490997314453
20
68.5167999267578
40
0.0
41
0.0
42
0.0
10
70.7451019287109
20
68.9789962768555
40
0.0
41
0.0
42
0.0
10
70.7479019165039
20
68.9894027709961
40
0.0
41
0.0
42
0.0
210
0.0
220
0.0
230
1.0
0
LWPOLYLINE
5
2A
330
1C
100
AcDbEntity
67
0
8
0
62
256
6
ByLayer
370
-1
48
1.0
60
0
100
AcDbPolyline
90
97
70
1
38
0.0
39
0.0
10
73.5142974853516
20
74.9136962890625
40
0.0
41
0.0
42
0.0
10
73.9919967651367
20
74.597900390625
40
0.0
41
0.0
42
0.0
10
74.1268005371094
20
74.497802734375
40
0.0
41
0.0
42
0.0
10
73.9987030029297
20
74.2891998291016
40
0.0
41
0.0
42
0.0
10
73.8880996704102
20
74.0189971923828
40
0.0
41
0.0
42
0.0
10
73.870002746582
20
74.0059967041016
40
0.0
41
0.0
42
0.0
10
73.8595962524414
20
73.9852981567383
40
0.0
41
0.0
42
0.0
10
73.8595962524414
20
73.9656982421875
40
0.0
41
0.0
42
0.0
10
73.8877029418945
20
73.9570999145508
40
0.0
41
0.0
42
0.0
10
73.9905014038086
20
73.8180999755859
40
0.0
41
0.0
42
0.0
10
74.0161972045898
20
73.818000793457
40
0.0
41
0.0
42
0.0
10
74.4013977050781
20
73.9582977294922
40
0.0
41
0.0
42
0.0
10
74.4063034057617
20
73.9609985351562
40
0.0
41
0.0
42
0.0
10
74.4302978515625
20
73.9962005615234
40
0.0
41
0.0
42
0.0
10
74.497200012207
20
74.0302963256836
40
0.0
41
0.0
42
0.0
10
74.5250015258789
20
73.9901962280273
40
0.0
41
0.0
42
0.0
10
74.5401992797852
20
73.9561004638672
40
0.0
41
0.0
42
0.0
10
74.9272003173828
20
73.4901962280273
40
0.0
41
0.0
42
0.0
10
74.9390029907227
20
73.4529037475586
40
0.0
41
0.0
42
0.0
10
74.9914016723633
20
73.350700378418
40
0.0
41
0.0
42
0.0
10
75.0081024169922
20
73.350700378418
40
0.0
41
0.0
42
0.0
10
75.0653991699219
20
73.4455032348633
40
0.0
41
0.0
42
0.0
10
75.0774993896484
20
73.4567031860352
40
0.0
41
0.0
42
0.0
10
75.0878982543945
20
73.4890975952148
40
0.0
41
0.0
42
0.0
10
75.3943023681641
20
73.9524993896484
40
0.0
41
0.0
42
0.0
10
75.3990020751953
20
73.9880981445312
40
0.0
41
0.0
42
0.0
10
75.5020980834961
20
74.1267013549805
40
0.0
41
0.0
42
0.0
10
75.7107009887695
20
73.9987030029297
40
0.0
41
0.0
42
0.0
10
75.9807968139648
20
73.8880004882812
40
0.0
41
0.0
42
0.0
10
75.9906997680664
20
73.8744964599609
40
0.0
41
0.0
42
0.0
10
76.0130996704102
20
73.874397277832
40
0.0
41
0.0
42
0.0
10
76.1455001831055
20
73.9720993041992
40
0.0
41
0.0
42
0.0
10
76.1668014526367
20
73.9613037109375
40
0.0
41
0.0
42
0.0
10
76.1810989379883
20
73.9614028930664
40
0.0
41
0.0
42
0.0
10
76.1816024780273
20
74.0162963867188
40
0.0
41
0.0
42
0.0
10
76.0413970947266
20
74.4013977050781
40
0.0
41
0.0
42
0.0
10
76.0388031005859
20
74.4063034057617
40
0.0
41
0.0
42
0.0
10
76.0036010742188
20
74.4302978515625
40
0.0
41
0.0
42
0.0
10
75.9694976806641
20
74.497200012207
40
0.0
41
0.0
42
0.0
10
76.0095977783203
20
74.5250015258789
40
0.0
41
0.0
42
0.0
10
76.0438003540039
20
74.5402984619141
40
0.0
41
0.0
42
0.0
10
76.5096969604492
20
74.9272003173828
40
0.0
41
0.0
42
0.0
10
76.5468978881836
20
74.9391021728516
40
0.0
41
0.0
42
0.0
10
76.6490020751953
20
74.9914016723633
40
0.0
41
0.0
42
0.0
10
76.6490020751953
20
75.0081024169922
40
0.0
41
0.0
42
0.0
10
76.5542984008789
20
75.0653991699219
40
0.0
41
0.0
42
0.0
10
76.5431976318359
20
75.0774002075195
40
0.0
41
0.0
42
0.0
10
76.5108032226562
20
75.0878982543945
40
0.0
41
0.0
42
0.0
10
76.0474014282227
20
75.3943023681641
40
0.0
41
0.0
42
0.0
10
76.0118026733398
20
75.3990020751953
40
0.0
41
0.0
42
0.0
10
75.8730010986328
20
75.5020980834961
40
0.0
41
0.0
42
0.0
10
76.0010986328125
20
75.7107009887695
40
0.0
41
0.0
42
0.0
10
76.1118011474609
20
75.9809036254883
40
0.0
41
0.0
42
0.0
10
76.1298980712891
20
75.993896484375
40
0.0
41
0.0
42
0.0
10
76.1401977539062
20
76.0146026611328
40
0.0
41
0.0
42
0.0
10
76.1400985717773
20
76.0341033935547
40
0.0
41
0.0
42
0.0
10
76.1120986938477
20
76.0426025390625
40
0.0
41
0.0
42
0.0
10
76.0093994140625
20
76.1818008422852
40
0.0
41
0.0
42
0.0
10
75.9837036132812
20
76.1817016601562
40
0.0
41
0.0
42
0.0
10
75.5982971191406
20
76.0413970947266
40
0.0
41
0.0
42
0.0
10
75.5934982299805
20
76.0389022827148
40
0.0
41
0.0
42
0.0
10
75.5696029663086
20
76.0036010742188
40
0.0
41
0.0
42
0.0
10
75.5026016235352
20
75.9693984985352
40
0.0
41
0.0
42
0.0
10
75.4764022827148
20
76.0072021484375
40
0.0
41
0.0
42
0.0
10
75.0703964233398
20
76.4962005615234
40
0.0
41
0.0
42
0.0
10
75.070198059082
20
76.5167007446289
40
0.0
41
0.0
42
0.0
10
75.0606002807617
20
76.5467987060547
40
0.0
41
0.0
42
0.0
10
75.0072021484375
20
76.6491012573242
40
0.0
41
0.0
42
0.0
10
74.9917984008789
20
76.6491012573242
40
0.0
41
0.0
42
0.0
10
74.9343032836914
20
76.5542984008789
40
0.0
41
0.0
42
0.0
10
74.9223022460938
20
76.5431976318359
40
0.0
41
0.0
42
0.0
10
74.9138031005859
20
76.5167007446289
40
0.0
41
0.0
42
0.0
10
74.9136962890625
20
76.4853973388672
40
0.0
41
0.0
42
0.0
10
74.5979995727539
20
76.0078964233398
40
0.0
41
0.0
42
0.0
10
74.4979019165039
20
75.8730010986328
40
0.0
41
0.0
42
0.0
10
74.2891998291016
20
76.0010986328125
40
0.0
41
0.0
42
0.0
10
74.0189971923828
20
76.111701965332
40
0.0
41
0.0
42
0.0
10
74.0058975219727
20
76.1297988891602
40
0.0
41
0.0
42
0.0
10
73.9851989746094
20
76.1401977539062
40
0.0
41
0.0
42
0.0
10
73.9656982421875
20
76.1401977539062
40
0.0
41
0.0
42
0.0
10
73.9571990966797
20
76.1120986938477
40
0.0
41
0.0
42
0.0
10
73.8180999755859
20
76.0093994140625
40
0.0
41
0.0
42
0.0
10
73.818000793457
20
75.9835968017578
40
0.0
41
0.0
42
0.0
10
73.9582977294922
20
75.5983963012695
40
0.0
41
0.0
42
0.0
10
73.9608993530273
20
75.5934982299805
40
0.0
41
0.0
42
0.0
10
73.9962005615234
20
75.5696029663086
40
0.0
41
0.0
42
0.0
10
74.030403137207
20
75.5026016235352
40
0.0
41
0.0
42
0.0
10
73.9926986694336
20
75.4765014648438
40
0.0
41
0.0
42
0.0
10
73.5036010742188
20
75.0703964233398
40
0.0
41
0.0
42
0.0
10
73.4832000732422
20
75.0702972412109
40
0.0
41
0.0
42
0.0
10
73.4531021118164
20
75.0606002807617
40
0.0
41
0.0
42
0.0
10
73.3507995605469
20
75.0072021484375
40
0.0
41
0.0
42
0.0
10
73.350700378418
20
74.99169921875
40
0.0
41
0.0
42
0.0
10
73.4453964233398
20
74.9343032836914
40
0.0
41
0.0
42
0.0
10
73.4565963745117
20
74.9223022460938
40
0.0
41
0.0
42
0.0
10
73.4832000732422
20
74.9138031005859
40
0.0
41
0.0
42
0.0
10
73.5142974853516
20
74.9136962890625
40
0.0
41
0.0
42
0.0
210
0.0
220
0.0
230
1.0
0
LWPOLYLINE
5
2B
330
1C
100
AcDbEntity
67
0
8
0
62
256
6
ByLayer
370
-1
48
1.0
60
0
100
AcDbPolyline
90
95
70
1
38
0.0
39
0.0
10
73.5119018554688
20
75.0559997558594
40
0.0
41
0.0
42
0.0
10
73.5213012695312
20
75.0589981079102
40
0.0
41
0.0
42
0.0
10
73.5467987060547
20
75.0607986450195
40
0.0
41
0.0
42
0.0
10
74.0072021484375
20
75.4431991577148
40
0.0
41
0.0
42
0.0
10
74.0353012084961
20
75.4626998901367
40
0.0
41
0.0
42
0.0
10
74.1150970458984
20
75.4038009643555
40
0.0
41
0.0
42
0.0
10
74.1270980834961
20
75.4037017822266
40
0.0
41
0.0
42
0.0
10
74.1270980834961
20
75.4184036254883
40
0.0
41
0.0
42
0.0
10
74.0879974365234
20
75.511100769043
40
0.0
41
0.0
42
0.0
10
74.0577011108398
20
75.5702972412109
40
0.0
41
0.0
42
0.0
10
74.0015029907227
20
75.5905990600586
40
0.0
41
0.0
42
0.0
10
73.8537979125977
20
75.9960021972656
40
0.0
41
0.0
42
0.0
10
74.0024032592773
20
76.1054992675781
40
0.0
41
0.0
42
0.0
10
74.268798828125
20
75.9964981079102
40
0.0
41
0.0
42
0.0
10
74.2977981567383
20
75.9420013427734
40
0.0
41
0.0
42
0.0
10
74.4859008789062
20
75.8265991210938
40
0.0
41
0.0
42
0.0
10
74.5093994140625
20
75.8265991210938
40
0.0
41
0.0
42
0.0
10
74.5939025878906
20
75.9405975341797
40
0.0
41
0.0
42
0.0
10
74.6277008056641
20
75.9769973754883
40
0.0
41
0.0
42
0.0
10
74.6276016235352
20
75.9928970336914
40
0.0
41
0.0
42
0.0
10
74.9309997558594
20
76.4515991210938
40
0.0
41
0.0
42
0.0
10
74.9320983886719
20
76.4860992431641
40
0.0
41
0.0
42
0.0
10
74.9990997314453
20
76.5966033935547
40
0.0
41
0.0
42
0.0
10
75.0002975463867
20
76.5966033935547
40
0.0
41
0.0
42
0.0
10
75.0559997558594
20
76.4878997802734
40
0.0
41
0.0
42
0.0
10
75.0589981079102
20
76.4785003662109
40
0.0
41
0.0
42
0.0
10
75.0606994628906
20
76.4531021118164
40
0.0
41
0.0
42
0.0
10
75.4409027099609
20
75.9951019287109
40
0.0
41
0.0
42
0.0
10
75.4410018920898
20
75.9766006469727
40
0.0
41
0.0
42
0.0
10
75.4726028442383
20
75.9401016235352
40
0.0
41
0.0
42
0.0
10
75.4908981323242
20
75.9138031005859
40
0.0
41
0.0
42
0.0
10
75.5149002075195
20
75.9136962890625
40
0.0
41
0.0
42
0.0
10
75.5702972412109
20
75.9421005249023
40
0.0
41
0.0
42
0.0
10
75.5906982421875
20
75.9981994628906
40
0.0
41
0.0
42
0.0
10
75.9960021972656
20
76.1458969116211
40
0.0
41
0.0
42
0.0
10
76.1054992675781
20
75.9973983764648
40
0.0
41
0.0
42
0.0
10
75.9964981079102
20
75.7310028076172
40
0.0
41
0.0
42
0.0
10
75.9420013427734
20
75.7020034790039
40
0.0
41
0.0
42
0.0
10
75.8246994018555
20
75.5110015869141
40
0.0
41
0.0
42
0.0
10
75.7944030761719
20
75.4195022583008
40
0.0
41
0.0
42
0.0
10
75.7944030761719
20
75.4039001464844
40
0.0
41
0.0
42
0.0
10
75.8059005737305
20
75.4038009643555
40
0.0
41
0.0
42
0.0
10
75.8739013671875
20
75.4601974487305
40
0.0
41
0.0
42
0.0
10
75.9868011474609
20
75.3764038085938
40
0.0
41
0.0
42
0.0
10
76.0167999267578
20
75.3765029907227
40
0.0
41
0.0
42
0.0
10
76.4839019775391
20
75.0675964355469
40
0.0
41
0.0
42
0.0
10
76.4885025024414
20
75.0661010742188
40
0.0
41
0.0
42
0.0
10
76.5966033935547
20
75.0009002685547
40
0.0
41
0.0
42
0.0
10
76.5966033935547
20
74.9991989135742
40
0.0
41
0.0
42
0.0
10
76.4865036010742
20
74.9440994262695
40
0.0
41
0.0
42
0.0
10
76.0148010253906
20
74.5523986816406
40
0.0
41
0.0
42
0.0
10
76.0034027099609
20
74.5587005615234
40
0.0
41
0.0
42
0.0
10
75.9766006469727
20
74.5587005615234
40
0.0
41
0.0
42
0.0
10
75.9401016235352
20
74.527099609375
40
0.0
41
0.0
42
0.0
10
75.9138031005859
20
74.508903503418
40
0.0
41
0.0
42
0.0
10
75.9136962890625
20
74.4850006103516
40
0.0
41
0.0
42
0.0
10
75.9420013427734
20
74.4293975830078
40
0.0
41
0.0
42
0.0
10
75.9981994628906
20
74.4091033935547
40
0.0
41
0.0
42
0.0
10
76.1458969116211
20
74.0038986206055
40
0.0
41
0.0
42
0.0
10
75.9973983764648
20
73.8942031860352
40
0.0
41
0.0
42
0.0
10
75.7309036254883
20
74.003303527832
40
0.0
41
0.0
42
0.0
10
75.7018966674805
20
74.0578002929688
40
0.0
41
0.0
42
0.0
10
75.5139999389648
20
74.1733016967773
40
0.0
41
0.0
42
0.0
10
75.4905014038086
20
74.1733016967773
40
0.0
41
0.0
42
0.0
10
75.4058990478516
20
74.059196472168
40
0.0
41
0.0
42
0.0
10
75.3720016479492
20
74.0227966308594
40
0.0
41
0.0
42
0.0
10
75.3720016479492
20
73.995002746582
40
0.0
41
0.0
42
0.0
10
75.3767013549805
20
73.9832992553711
40
0.0
41
0.0
42
0.0
10
75.0675964355469
20
73.5158996582031
40
0.0
41
0.0
42
0.0
10
75.0662002563477
20
73.5113983154297
40
0.0
41
0.0
42
0.0
10
75.0009002685547
20
73.4032974243164
40
0.0
41
0.0
42
0.0
10
74.9991989135742
20
73.4032974243164
40
0.0
41
0.0
42
0.0
10
74.9440994262695
20
73.5133972167969
40
0.0
41
0.0
42
0.0
10
74.5523986816406
20
73.9850997924805
40
0.0
41
0.0
42
0.0
10
74.5587005615234
20
73.9964981079102
40
0.0
41
0.0
42
0.0
10
74.5586013793945
20
74.0232009887695
40
0.0
41
0.0
42
0.0
10
74.527099609375
20
74.0596008300781
40
0.0
41
0.0
42
0.0
10
74.508903503418
20
74.0860977172852
40
0.0
41
0.0
42
0.0
10
74.4850006103516
20
74.0859985351562
40
0.0
41
0.0
42
0.0
10
74.4294967651367
20
74.0577011108398
40
0.0
41
0.0
42
0.0
10
74.4092025756836
20
74.0016021728516
40
0.0
41
0.0
42
0.0
10
74.0038986206055
20
73.8537979125977
40
0.0
41
0.0
42
0.0
10
73.8942031860352
20
74.0024032592773
40
0.0
41
0.0
42
0.0
10
74.0034027099609
20
74.268798828125
40
0.0
41
0.0
42
0.0
10
74.0578994750977
20
74.2978973388672
40
0.0
41
0.0
42
0.0
10
74.1729965209961
20
74.4853973388672
40
0.0
41
0.0
42
0.0
10
74.1731033325195
20
74.5093994140625
40
0.0
41
0.0
42
0.0
10
74.059196472168
20
74.5939025878906
40
0.0
41
0.0
42
0.0
10
74.0227966308594
20
74.6277008056641
40
0.0
41
0.0
42
0.0
10
74.0068969726562
20
74.6276016235352
40
0.0
41
0.0
42
0.0
10
73.5483016967773
20
74.9309997558594
40
0.0
41
0.0
42
0.0
10
73.513801574707
20
74.9320983886719
40
0.0
41
0.0
42
0.0
10
73.4032974243164
20
74.9990997314453
40
0.0
41
0.0
42
0.0
10
73.4032974243164
20
75.0003967285156
40
0.0
41
0.0
42
0.0
10
73.5119018554688
20
75.0559997558594
40
0.0
41
0.0
42
0.0
210
0.0
220
0.0
230
1.0
0
LWPOLYLINE
5
2C
330
1C
100
AcDbEntity
67
0
8
0
62
256
6
ByLayer
370
-1
48
1.0
60
0
100
AcDbPolyline
90
29
70
1
38
0.0
39
0.0
10
75.7696990966797
20
82.4926986694336
40
0.0
41
0.0
42
0.0
10
76.0074996948242
20
82.6790008544922
40
0.0
41
0.0
42
0.0
10
76.4657974243164
20
82.9979019165039
40
0.0
41
0.0
42
0.0
10
76.5113983154297
20
83.0214004516602
40
0.0
41
0.0
42
0.0
10
77.0145034790039
20
83.2119979858398
40
0.0
41
0.0
42
0.0
10
77.5015029907227
20
83.2911987304688
40
0.0
41
0.0
42
0.0
10
77.9870986938477
20
83.2254028320312
40
0.0
41
0.0
42
0.0
10
78.3629989624023
20
82.9949035644531
40
0.0
41
0.0
42
0.0
10
78.4944000244141
20
82.9029006958008
40
0.0
41
0.0
42
0.0
10
78.8267974853516
20
82.4918975830078
40
0.0
41
0.0
42
0.0
10
78.9983978271484
20
82.1970977783203
40
0.0
41
0.0
42
0.0
10
79.1004028320312
20
81.9876022338867
40
0.0
41
0.0
42
0.0
10
79.250602722168
20
81.4831008911133
40
0.0
41
0.0
42
0.0
10
79.2537994384766
20
81.0130004882812
40
0.0
41
0.0
42
0.0
10
78.9949035644531
20
80.6704025268555
40
0.0
41
0.0
42
0.0
10
78.765998840332
20
80.5028991699219
40
0.0
41
0.0
42
0.0
10
77.9826965332031
20
80.2163009643555
40
0.0
41
0.0
42
0.0
10
77.4862976074219
20
80.0046005249023
40
0.0
41
0.0
42
0.0
10
77.4797973632812
20
80.0045013427734
40
0.0
41
0.0
42
0.0
10
77.4688034057617
20
80.0009002685547
40
0.0
41
0.0
42
0.0
10
77.0
20
79.6671981811523
40
0.0
41
0.0
42
0.0
10
76.5366973876953
20
80.0034027099609
40
0.0
41
0.0
42
0.0
10
76.5018997192383
20
80.0333023071289
40
0.0
41
0.0
42
0.0
10
76.3378982543945
20
80.5113983154297
40
0.0
41
0.0
42
0.0
10
76.060302734375
20
81.0111999511719
40
0.0
41
0.0
42
0.0
10
76.0016021728516
20
81.120002746582
40
0.0
41
0.0
42
0.0
10
75.7640991210938
20
81.5110015869141
40
0.0
41
0.0
42
0.0
10
75.5959014892578
20
81.9996032714844
40
0.0
41
0.0
42
0.0
10
75.7696990966797
20
82.4926986694336
40
0.0
41
0.0
42
0.0
210
0.0
220
0.0
230
1.0
0
LWPOLYLINE
5
2D
330
1C
100
AcDbEntity
67
0
8
0
62
256
6
ByLayer
370
-1
48
1.0
60
0
100
AcDbPolyline
90
22
70
1
38
0.0
39
0.0
10
79.0166015625
20
84.888298034668
40
0.0
41
0.0
42
0.0
10
79.4813995361328
20
84.8161010742188
40
0.0
41
0.0
42
0.0
10
79.5344009399414
20
84.8167037963867
40
0.0
41
0.0
42
0.0
10
79.9802017211914
20
84.7970962524414
40
0.0
41
0.0
42
0.0
10
80.5186004638672
20
84.8093032836914
40
0.0
41
0.0
42
0.0
10
81.0158996582031
20
84.8601989746094
40
0.0
41
0.0
42
0.0
10
81.4598999023438
20
84.9907989501953
40
0.0
41
0.0
42
0.0
10
81.4648971557617
20
84.9932022094727
40
0.0
41
0.0
42
0.0
10
81.4648971557617
20
84.9990005493164
40
0.0
41
0.0
42
0.0
10
81.4260025024414
20
84.9989013671875
40
0.0
41
0.0
42
0.0
10
80.984001159668
20
84.868896484375
40
0.0
41
0.0
42
0.0
10
80.4826965332031
20
84.8180999755859
40
0.0
41
0.0
42
0.0
10
80.0130004882812
20
84.8078994750977
40
0.0
41
0.0
42
0.0
10
79.5178985595703
20
84.8296966552734
40
0.0
41
0.0
42
0.0
10
79.0197982788086
20
84.907096862793
40
0.0
41
0.0
42
0.0
10
78.7610015869141
20
84.9990005493164
40
0.0
41
0.0
42
0.0
10
78.6724014282227
20
84.9990005493164
40
0.0
41
0.0
42
0.0
10
78.6723022460938
20
84.9946975708008
40
0.0
41
0.0
42
0.0
10
78.845703125
20
84.9329986572266
40
0.0
41
0.0
42
0.0
10
78.9501037597656
20
84.8921966552734
40
0.0
41
0.0
42
0.0
10
78.9813003540039
20
84.888298034668
40
0.0
41
0.0
42
0.0
10
79.0166015625
20
84.888298034668
40
0.0
41
0.0
42
0.0
210
0.0
220
0.0
230
1.0
0
LWPOLYLINE
5
2E
330
1C
100
AcDbEntity
67
0
8
0
62
256
6
ByLayer
370
-1
48
1.0
60
0
100
AcDbPolyline
90
31
70
1
38
0.0
39
0.0
10
78.96240234375
20
65.0009002685547
40
0.0
41
0.0
42
0.0
10
79.0103988647461
20
65.0420989990234
40
0.0
41
0.0
42
0.0
10
79.5113983154297
20
65.3309020996094
40
0.0
41
0.0
42
0.0
10
80.0148010253906
20
65.4944000244141
40
0.0
41
0.0
42
0.0
10
80.5170974731445
20
65.5878982543945
40
0.0
41
0.0
42
0.0
10
81.018798828125
20
65.6334991455078
40
0.0
41
0.0
42
0.0
10
81.486701965332
20
65.6443023681641
40
0.0
41
0.0
42
0.0
10
81.9850997924805
20
65.5939025878906
40
0.0
41
0.0
42
0.0
10
82.2202987670898
20
65.4982986450195
40
0.0
41
0.0
42
0.0
10
82.2337036132812
20
65.4878005981445
40
0.0
41
0.0
42
0.0
10
82.4172973632812
20
65.0009994506836
40
0.0
41
0.0
42
0.0
10
82.4565963745117
20
65.0009994506836
40
0.0
41
0.0
42
0.0
10
82.4564971923828
20
65.0160980224609
40
0.0
41
0.0
42
0.0
10
82.348503112793
20
65.3026962280273
40
0.0
41
0.0
42
0.0
10
82.307502746582
20
65.5046997070312
40
0.0
41
0.0
42
0.0
10
82.1411972045898
20
65.5723037719727
40
0.0
41
0.0
42
0.0
10
82.0143966674805
20
65.6296997070312
40
0.0
41
0.0
42
0.0
10
81.5604019165039
20
65.6753005981445
40
0.0
41
0.0
42
0.0
10
81.5216979980469
20
65.6752014160156
40
0.0
41
0.0
42
0.0
10
81.0206985473633
20
65.6631011962891
40
0.0
41
0.0
42
0.0
10
80.4823989868164
20
65.6146011352539
40
0.0
41
0.0
42
0.0
10
80.4483032226562
20
65.6098022460938
40
0.0
41
0.0
42
0.0
10
79.9849014282227
20
65.5230026245117
40
0.0
41
0.0
42
0.0
10
79.9568023681641
20
65.5148010253906
40
0.0
41
0.0
42
0.0
10
79.9244995117188
20
65.5002975463867
40
0.0
41
0.0
42
0.0
10
79.4885025024414
20
65.3583984375
40
0.0
41
0.0
42
0.0
10
78.9922027587891
20
65.0718002319336
40
0.0
41
0.0
42
0.0
10
78.9458999633789
20
65.0314025878906
40
0.0
41
0.0
42
0.0
10
78.9261016845703
20
65.0112991333008
40
0.0
41
0.0
42
0.0
10
78.9261016845703
20
65.0009994506836
40
0.0
41
0.0
42
0.0
10
78.96240234375
20
65.0009002685547
40
0.0
41
0.0
42
0.0
210
0.0
220
0.0
230
1.0
0
LWPOLYLINE
5
2F
330
1C
100
AcDbEntity
67
0
8
0
62
256
6
ByLayer
370
-1
48
1.0
60
0
100
AcDbPolyline
90
30
70
1
38
0.0
39
0.0
10
79.6672973632812
20
72.9999008178711
40
0.0
41
0.0
42
0.0
10
80.0035018920898
20
73.4630966186523
40
0.0
41
0.0
42
0.0
10
80.0333023071289
20
73.4979019165039
40
0.0
41
0.0
42
0.0
10
80.5113983154297
20
73.6619033813477
40
0.0
41
0.0
42
0.0
10
81.0099029541016
20
73.9385986328125
40
0.0
41
0.0
42
0.0
10
81.120002746582
20
73.9981994628906
40
0.0
41
0.0
42
0.0
10
81.5110015869141
20
74.2356033325195
40
0.0
41
0.0
42
0.0
10
81.9996032714844
20
74.4038009643555
40
0.0
41
0.0
42
0.0
10
82.4926986694336
20
74.2301025390625
40
0.0
41
0.0
42
0.0
10
82.6790008544922
20
73.9924011230469
40
0.0
41
0.0
42
0.0
10
82.9979019165039
20
73.5338973999023
40
0.0
41
0.0
42
0.0
10
83.0213012695312
20
73.4885025024414
40
0.0
41
0.0
42
0.0
10
83.2119979858398
20
72.9853973388672
40
0.0
41
0.0
42
0.0
10
83.2911987304688
20
72.4983978271484
40
0.0
41
0.0
42
0.0
10
83.2255020141602
20
72.0127029418945
40
0.0
41
0.0
42
0.0
10
82.9949035644531
20
71.6369018554688
40
0.0
41
0.0
42
0.0
10
82.9029998779297
20
71.505500793457
40
0.0
41
0.0
42
0.0
10
82.4918975830078
20
71.1728973388672
40
0.0
41
0.0
42
0.0
10
82.1970977783203
20
71.0014038085938
40
0.0
41
0.0
42
0.0
10
81.9876022338867
20
70.899299621582
40
0.0
41
0.0
42
0.0
10
81.4831008911133
20
70.7490997314453
40
0.0
41
0.0
42
0.0
10
81.0208969116211
20
70.7451019287109
40
0.0
41
0.0
42
0.0
10
81.010498046875
20
70.7479019165039
40
0.0
41
0.0
42
0.0
10
80.6704025268555
20
71.004997253418
40
0.0
41
0.0
42
0.0
10
80.5028991699219
20
71.2338027954102
40
0.0
41
0.0
42
0.0
10
80.2162017822266
20
72.0171966552734
40
0.0
41
0.0
42
0.0
10
80.0043029785156
20
72.5142974853516
40
0.0
41
0.0
42
0.0
10
80.0042037963867
20
72.5233993530273
40
0.0
41
0.0
42
0.0
10
80.0012969970703
20
72.5302963256836
40
0.0
41
0.0
42
0.0
10
79.6672973632812
20
72.9999008178711
40
0.0
41
0.0
42
0.0
210
0.0
220
0.0
230
1.0
0
LWPOLYLINE
5
30
330
1C
100
AcDbEntity
67
0
8
0
62
256
6
ByLayer
370
-1
48
1.0
60
0
100
AcDbPolyline
90
30
70
1
38
0.0
39
0.0
10
84.3851013183594
20
80.4822998046875
40
0.0
41
0.0
42
0.0
10
84.3899002075195
20
80.4483032226562
40
0.0
41
0.0
42
0.0
10
84.4731979370117
20
80.0
40
0.0
41
0.0
42
0.0
10
84.4850006103516
20
79.9567031860352
40
0.0
41
0.0
42
0.0
10
84.4994964599609
20
79.9244995117188
40
0.0
41
0.0
42
0.0
10
84.6412963867188
20
79.4885025024414
40
0.0
41
0.0
42
0.0
10
84.9279022216797
20
78.9922027587891
40
0.0
41
0.0
42
0.0
10
84.9682998657227
20
78.94580078125
40
0.0
41
0.0
42
0.0
10
84.9885025024414
20
78.9261016845703
40
0.0
41
0.0
42
0.0
10
84.9990005493164
20
78.9261016845703
40
0.0
41
0.0
42
0.0
10
84.9989013671875
20
78.9623031616211
40
0.0
41
0.0
42
0.0
10
84.9576034545898
20
79.0102996826172
40
0.0
41
0.0
42
0.0
10
84.6688995361328
20
79.5113983154297
40
0.0
41
0.0
42
0.0
10
84.5053024291992
20
80.0147018432617
40
0.0
41
0.0
42
0.0
10
84.4117965698242
20
80.5170974731445
40
0.0
41
0.0
42
0.0
10
84.3662033081055
20
81.018798828125
40
0.0
41
0.0
42
0.0
10
84.3554000854492
20
81.486701965332
40
0.0
41
0.0
42
0.0
10
84.4058990478516
20
81.9850997924805
40
0.0
41
0.0
42
0.0
10
84.5016021728516
20
82.2203979492188
40
0.0
41
0.0
42
0.0
10
84.5120010375977
20
82.2337036132812
40
0.0
41
0.0
42
0.0
10
84.9990005493164
20
82.4172973632812
40
0.0
41
0.0
42
0.0
10
84.9990005493164
20
82.4565963745117
40
0.0
41
0.0
42
0.0
10
84.9838027954102
20
82.4564971923828
40
0.0
41
0.0
42
0.0
10
84.6970977783203
20
82.348503112793
40
0.0
41
0.0
42
0.0
10
84.4951019287109
20
82.3076019287109
40
0.0
41
0.0
42
0.0
10
84.4273986816406
20
82.1412963867188
40
0.0
41
0.0
42
0.0
10
84.370002746582
20
82.0145034790039
40
0.0
41
0.0
42
0.0
10
84.3245010375977
20
81.5606002807617
40
0.0
41
0.0
42
0.0
10
84.3366012573242
20
81.0205993652344
40
0.0
41
0.0
42
0.0
10
84.3851013183594
20
80.4822998046875
40
0.0
41
0.0
42
0.0
210
0.0
220
0.0
230
1.0
0
LWPOLYLINE
5
31
330
1C
100
AcDbEntity
67
0
8
0
62
256
6
ByLayer
370
-1
48
1.0
60
0
100
AcDbPolyline
90
22
70
1
38
0.0
39
0.0
10
84.7970962524414
20
70.0196990966797
40
0.0
41
0.0
42
0.0
10
84.8093032836914
20
69.4813003540039
40
0.0
41
0.0
42
0.0
10
84.8601989746094
20
68.984001159668
40
0.0
41
0.0
42
0.0
10
84.9907989501953
20
68.5399017333984
40
0.0
41
0.0
42
0.0
10
84.9932022094727
20
68.5350036621094
40
0.0
41
0.0
42
0.0
10
84.9990005493164
20
68.5350036621094
40
0.0
41
0.0
42
0.0
10
84.9989013671875
20
68.5737991333008
40
0.0
41
0.0
42
0.0
10
84.868896484375
20
69.0158996582031
40
0.0
41
0.0
42
0.0
10
84.8180999755859
20
69.5170974731445
40
0.0
41
0.0
42
0.0
10
84.8078994750977
20
69.9868011474609
40
0.0
41
0.0
42
0.0
10
84.8296966552734
20
70.4820022583008
40
0.0
41
0.0
42
0.0
10
84.907096862793
20
70.9801025390625
40
0.0
41
0.0
42
0.0
10
84.9990005493164
20
71.2388000488281
40
0.0
41
0.0
42
0.0
10
84.9990005493164
20
71.3274993896484
40
0.0
41
0.0
42
0.0
10
84.9946975708008
20
71.3274993896484
40
0.0
41
0.0
42
0.0
10
84.9329986572266
20
71.1540985107422
40
0.0
41
0.0
42
0.0
10
84.8921966552734
20
71.0497970581055
40
0.0
41
0.0
42
0.0
10
84.888298034668
20
71.0186004638672
40
0.0
41
0.0
42
0.0
10
84.888298034668
20
70.9832992553711
40
0.0
41
0.0
42
0.0
10
84.8161010742188
20
70.5185012817383
40
0.0
41
0.0
42
0.0
10
84.8167037963867
20
70.4654998779297
40
0.0
41
0.0
42
0.0
10
84.7970962524414
20
70.0196990966797
40
0.0
41
0.0
42
0.0
210
0.0
220
0.0
230
1.0
0
VIEWPORT
5
36
330
32
100
AcDbEntity
67
1
8
0
62
256
6
ByLayer
370
-1
48
1.0
60
0
100
AcDbViewport
10
0.0
20
0.0
30
0.0
40
297.0
41
210.0
68
1
69
1
12
50.0
22
100.0
13
0.0
23
0.0
14
10.0
24
10.0
15
10.0
25
10.0
16
0.0
26
0.0
36
1.0
17
0.0
27
0.0
37
0.0
42
50.0
43
0.0
44
0.0
45
250.0
50
0.0
51
0.0
72
1000
90
819232
110
0.0
120
0.0
130
0.0
111
1.0
121
0.0
131
0.0
112
0.0
122
1.0
132
0.0
0
ENDSEC
0
SECTION
2
OBJECTS
0
DICTIONARY
5
3C
330
0
100
AcDbDictionary
280
1
281
1
3
ACAD_GROUP
350
12
3
ACAD_LAYOUT
350
35
3
ACAD_DGNDEFINITIONS
350
F
3
ACAD_DWFDEFINITIONS
350
10
3
ACAD_PDFDEFINITIONS
350
11
3
ACAD_MLINESTYLE
350
B
3
ACAD_IMAGE_DICT
350
E
3
ACAD_IMAGE_VARS
350
21
0
DICTIONARY
5
12
330
3C
100
AcDbDictionary
280
1
281
1
0
DICTIONARY
5
35
330
3C
100
AcDbDictionary
280
1
281
1
3
Model
350
20
3
Layout1
350
37
0
DICTIONARY
5
F
330
3C
100
AcDbDictionary
280
1
281
1
0
DICTIONARY
5
10
330
3C
100
AcDbDictionary
280
1
281
1
0
DICTIONARY
5
11
330
3C
100
AcDbDictionary
280
1
281
1
0
DICTIONARY
5
B
330
3C
100
AcDbDictionary
280
1
281
1
3
Standard
350
1B
0
DICTIONARY
5
E
330
3C
100
AcDbDictionary
280
1
281
1
0
DICTIONARY
5
6
330
5
100
AcDbDictionary
280
1
281
1
3
ACAD_LAYERSTATES
360
3D
0
DICTIONARY
5
3D
330
6
100
AcDbDictionary
280
1
281
1
0
LAYOUT
5
20
330
35
100
AcDbPlotSettings
1

2
none_device
4
ISO_A4_(210.00_x_297.00_MM)
6

40
7.5
41
20.0
42
7.5
43
20.0
44
210.0
45
297.0
46
0.0
47
0.0
48
0.0
49
0.0
140
0.0
141
0.0
142
1.0
143
1.0
70
11952
72
1
73
1
74
1
7

75
0
76
0
77
2
78
300
147
1.0
148
0.0
149
0.0
100
AcDbLayout
1
Model
71
0
10
-20.0
20
-7.5
11
277.0
21
202.5
12
0.0
22
0.0
32
0.0
14
25.7
24
19.5
34
0.0
15
231.3
25
175.5
35
0.0
146
0.0
13
0.0
23
0.0
33
0.0
16
1.0
26
0.0
36
0.0
17
0.0
27
1.0
37
0.0
76
0
330
1C
0
LAYOUT
5
37
330
35
100
AcDbPlotSettings
1

2
none_device
4
ISO_A4_(210.00_x_297.00_MM)
6

40
7.5
41
20.0
42
7.5
43
20.0
44
210.0
45
297.0
46
0.0
47
0.0
48
0.0
49
0.0
140
0.0
141
0.0
142
1.0
143
1.0
70
688
72
1
73
1
74
1
7

75
0
76
0
77
2
78
300
147
1.0
148
0.0
149
0.0
100
AcDbLayout
1
Layout1
71
1
10
-20.0
20
-7.5
11
277.0
21
202.5
12
0.0
22
0.0
32
0.0
14
25.7
24
19.5
34
0.0
15
231.3
25
175.5
35
0.0
146
0.0
13
0.0
23
0.0
33
0.0
16
1.0
26
0.0
36
0.0
17
0.0
27
1.0
37
0.0
76
0
330
32
0
MLINESTYLE
5
1B
330
B
100
AcDbMlineStyle
2
Standard
70
0
3

62
256
51
90.0
52
90.0
71
2
49
0.5
62
256
6
ByLayer
49
-0.5
62
256
6
ByLayer
0
RASTERVARIABLES
5
21
330
E
100
AcDbRasterVariables
90
0
70
1
71
1
72
0
0
ENDSEC
0
EOF
