999
DXF file generated by netDxf https://github.com/haplokuon/netDxf, Copyright(C) Daniel Carvajal, Licensed under MIT
0
SECTION
2
HEADER
9
$ACADVER
1
AC1015
9
$DWGCODEPAGE
3
ANSI_1252
9
$HANDSEED
5
36
9
$ANGBASE
50
0.0
9
$ANGDIR
70
0
9
$ATTMODE
70
1
9
$AUNITS
70
0
9
$AUPREC
70
0
9
$CECOLOR
62
256
9
$CELTSCALE
40
1.0
9
$CELTYPE
6
ByLayer
9
$CELWEIGHT
370
-1
9
$CLAYER
8
0
9
$CMLJUST
70
0
9
$CMLSCALE
40
20.0
9
$CMLSTYLE
2
Standard
9
$DIMSTYLE
2
Standard
9
$TEXTSIZE
40
2.5
9
$TEXTSTYLE
7
Standard
9
$LUNITS
70
2
9
$LUPREC
70
4
9
$MIRRTEXT
70
0
9
$EXTNAMES
290
1
9
$INSBASE
10
0.0
20
0.0
30
0.0
9
$INSUNITS
70
0
9
$LTSCALE
40
1.0
9
$LWDISPLAY
290
0
9
$PDMODE
70
0
9
$PDSIZE
40
0.0
9
$PLINEGEN
70
0
9
$PSLTSCALE
70
1
9
$SPLINESEGS
70
8
9
$SURFU
70
6
9
$SURFV
70
6
9
$TDCREATE
40
2460823.48371383
9
$TDUCREATE
40
2460823.1503805
9
$TDUPDATE
40
2460823.48371383
9
$TDUUPDATE
40
2460823.1503805
9
$TDINDWG
40
0.0
9
$UCSORG
10
0.0
20
0.0
30
0.0
9
$UCSXDIR
10
1.0
20
0.0
30
0.0
9
$UCSYDIR
10
0.0
20
1.0
30
0.0
9
$DIMADEC
70
0
9
$DIMALT
70
0
9
$DIMALTD
70
2
9
$DIMALTF
40
25.4
9
$DIMALTRND
40
0.0
9
$DIMALTTD
70
2
9
$DIMALTTZ
70
0
9
$DIMALTU
70
2
9
$DIMALTZ
70
0
9
$DIMAPOST
1

9
$DIMATFIT
70
3
9
$DIMAUNIT
70
0
9
$DIMASZ
40
0.18
9
$DIMAZIN
70
0
9
$DIMSAH
70
0
9
$DIMBLK
1

9
$DIMLDRBLK
1

9
$DIMCEN
40
0.09
9
$DIMCLRD
70
0
9
$DIMCLRE
70
0
9
$DIMCLRT
70
0
9
$DIMDEC
70
4
9
$DIMDLE
40
0.0
9
$DIMDLI
40
0.38
9
$DIMDSEP
70
46
9
$DIMEXE
40
0.18
9
$DIMEXO
40
0.0625
9
$DIMFXLON
70
0
9
$DIMFXL
40
1.0
9
$DIMGAP
40
0.09
9
$DIMJUST
70
0
9
$DIMLFAC
40
1.0
9
$DIMLUNIT
70
2
9
$DIMLWD
70
-2
9
$DIMLWE
70
-2
9
$DIMPOST
1

9
$DIMRND
40
0.0
9
$DIMSCALE
40
1.0
9
$DIMSD1
70
0
9
$DIMSD2
70
0
9
$DIMSE1
70
0
9
$DIMSE2
70
0
9
$DIMSOXD
70
0
9
$DIMTAD
70
0
9
$DIMTDEC
70
4
9
$DIMTFAC
40
1.0
9
$DIMTIH
70
0
9
$DIMTIX
70
0
9
$DIMTM
40
0.0
9
$DIMTMOVE
70
0
9
$DIMTOFL
70
0
9
$DIMTOH
70
0
9
$DIMTOL
70
0
9
$DIMLIM
70
0
9
$DIMTOLJ
70
1
9
$DIMTP
40
0.0
9
$DIMTXT
40
0.18
9
$DIMTXTDIRECTION
70
0
9
$DIMTZIN
70
0
9
$DIMZIN
70
0
9
$DIMFRAC
70
0
9
$DIMLTYPE
6
ByBlock
9
$DIMLTEX1
6
ByBlock
9
$DIMLTEX2
6
ByBlock
0
ENDSEC
0
SECTION
2
CLASSES
0
CLASS
1
RASTERVARIABLES
2
AcDbRasterVariables
3
ISM
90
0
280
0
281
0
0
ENDSEC
0
SECTION
2
TABLES
0
TABLE
2
APPID
5
4
330
0
100
AcDbSymbolTable
70
5
0
APPID
5
19
330
4
100
AcDbSymbolTableRecord
100
AcDbRegAppTableRecord
2
ACAD
70
0
0
APPID
5
30
330
4
100
AcDbSymbolTableRecord
100
AcDbRegAppTableRecord
2
AcCmTransparency
70
0
0
APPID
5
31
330
4
100
AcDbSymbolTableRecord
100
AcDbRegAppTableRecord
2
AcAecLayerStandard
70
0
0
APPID
5
32
330
4
100
AcDbSymbolTableRecord
100
AcDbRegAppTableRecord
2
GradientColor1ACI
70
0
0
APPID
5
33
330
4
100
AcDbSymbolTableRecord
100
AcDbRegAppTableRecord
2
GradientColor2ACI
70
0
0
ENDTAB
0
TABLE
2
VPORT
5
1
330
0
100
AcDbSymbolTable
70
1
0
VPORT
5
2
330
1
100
AcDbSymbolTableRecord
100
AcDbViewportTableRecord
2
*Active
70
0
10
0.0
20
0.0
11
1.0
21
1.0
12
0.0
22
0.0
13
0.0
23
0.0
14
0.5
24
0.5
15
10.0
25
10.0
16
0.0
26
0.0
36
1.0
17
0.0
27
0.0
37
0.0
40
10.0
41
1.0
75
0
76
1
0
ENDTAB
0
TABLE
2
LTYPE
5
7
330
0
100
AcDbSymbolTable
70
3
0
LTYPE
5
15
330
7
100
AcDbSymbolTableRecord
100
AcDbLinetypeTableRecord
2
Continuous
70
0
3
Solid line
72
65
73
0
40
0.0
0
LTYPE
5
16
330
7
100
AcDbSymbolTableRecord
100
AcDbLinetypeTableRecord
2
ByLayer
70
0
3

72
65
73
0
40
0.0
0
LTYPE
5
17
330
7
100
AcDbSymbolTableRecord
100
AcDbLinetypeTableRecord
2
ByBlock
70
0
3

72
65
73
0
40
0.0
0
ENDTAB
0
TABLE
2
LAYER
5
5
102
{ACAD_XDICTIONARY
360
6
102
}
330
0
100
AcDbSymbolTable
70
1
0
LAYER
5
14
330
5
100
AcDbSymbolTableRecord
100
AcDbLayerTableRecord
2
0
70
0
62
7
6
Continuous
290
1
370
-3
390
0
0
ENDTAB
0
TABLE
2
STYLE
5
8
330
0
100
AcDbSymbolTable
70
1
0
STYLE
5
18
330
8
100
AcDbSymbolTableRecord
100
AcDbTextStyleTableRecord
2
Standard
3
simplex.shx
70
0
71
0
40
0.0
41
1.0
42
0.0
50
0.0
0
ENDTAB
0
TABLE
2
DIMSTYLE
5
A
330
0
100
AcDbSymbolTable
70
1
100
AcDbDimStyleTable
0
DIMSTYLE
105
1A
330
A
100
AcDbSymbolTableRecord
100
AcDbDimStyleTableRecord
2
Standard
3

4

40
1.0
41
0.18
42
0.0625
43
0.38
44
0.18
45
0.0
46
0.0
47
0.0
48
0.0
49
1.0
70
0
71
0
72
0
73
0
74
0
75
0
76
0
77
0
78
0
79
0
140
0.18
141
0.09
143
25.4
144
1.0
146
1.0
147
0.09
148
0.0
170
0
171
2
172
0
174
0
175
0
176
0
177
0
178
0
179
0
271
4
272
4
273
2
274
2
275
0
276
0
277
2
278
46
279
0
280
0
281
0
282
0
283
1
284
0
285
0
286
0
289
3
290
0
294
0
340
18
173
0
345
17
346
17
347
17
371
-2
372
-2
0
ENDTAB
0
TABLE
2
VIEW
5
3
330
0
100
AcDbSymbolTable
70
0
0
ENDTAB
0
TABLE
2
UCS
5
C
330
0
100
AcDbSymbolTable
70
0
0
ENDTAB
0
TABLE
2
BLOCK_RECORD
5
D
330
0
100
AcDbSymbolTable
70
2
0
BLOCK_RECORD
5
1C
330
D
100
AcDbSymbolTableRecord
100
AcDbBlockTableRecord
2
*Model_Space
340
20
0
BLOCK_RECORD
5
2A
330
D
100
AcDbSymbolTableRecord
100
AcDbBlockTableRecord
2
*Paper_Space
340
2F
0
ENDTAB
0
ENDSEC
0
SECTION
2
BLOCKS
0
BLOCK
5
1E
330
1C
100
AcDbEntity
67
0
8
0
100
AcDbBlockBegin
2
*Model_Space
70
0
10
0.0
20
0.0
30
0.0
3
*Model_Space
4

0
ENDBLK
5
1D
330
1C
100
AcDbEntity
8
0
100
AcDbBlockEnd
0
BLOCK
5
2C
330
2A
100
AcDbEntity
67
1
8
0
100
AcDbBlockBegin
2
*Paper_Space
70
0
10
0.0
20
0.0
30
0.0
3
*Paper_Space
4

0
ENDBLK
5
2B
330
2A
100
AcDbEntity
8
0
100
AcDbBlockEnd
0
ENDSEC
0
SECTION
2
ENTITIES
0
LWPOLYLINE
5
22
330
1C
100
AcDbEntity
67
0
8
0
62
256
6
ByLayer
370
-1
48
1.0
60
0
100
AcDbPolyline
90
27
70
1
38
0.0
39
0.0
10
65.154899597168
20
67.1332015991211
40
0.0
41
0.0
42
0.0
10
65.2089996337891
20
66.9873962402344
40
0.0
41
0.0
42
0.0
10
65.3432998657227
20
66.6417007446289
40
0.0
41
0.0
42
0.0
10
65.3889007568359
20
66.4850997924805
40
0.0
41
0.0
42
0.0
10
65.4294967651367
20
66.3005981445312
40
0.0
41
0.0
42
0.0
10
65.4999008178711
20
66.095703125
40
0.0
41
0.0
42
0.0
10
65.5354995727539
20
65.9832992553711
40
0.0
41
0.0
42
0.0
10
65.53759765625
20
65.7963027954102
40
0.0
41
0.0
42
0.0
10
65.6038970947266
20
65.4981994628906
40
0.0
41
0.0
42
0.0
10
65.5381011962891
20
65.1281967163086
40
0.0
41
0.0
42
0.0
10
65.5416030883789
20
65.0009994506836
40
0.0
41
0.0
42
0.0
10
65.5718002319336
20
65.0009994506836
40
0.0
41
0.0
42
0.0
10
65.5660018920898
20
65.1822967529297
40
0.0
41
0.0
42
0.0
10
65.6192016601562
20
65.4817962646484
40
0.0
41
0.0
42
0.0
10
65.6191024780273
20
65.5176010131836
40
0.0
41
0.0
42
0.0
10
65.5404968261719
20
65.8715972900391
40
0.0
41
0.0
42
0.0
10
65.5388031005859
20
66.0166015625
40
0.0
41
0.0
42
0.0
10
65.5
20
66.138801574707
40
0.0
41
0.0
42
0.0
10
65.4212036132812
20
66.3692016601562
40
0.0
41
0.0
42
0.0
10
65.3890991210938
20
66.5147018432617
40
0.0
41
0.0
42
0.0
10
65.3348999023438
20
66.6980972290039
40
0.0
41
0.0
42
0.0
10
65.2126998901367
20
67.0124969482422
40
0.0
41
0.0
42
0.0
10
65.144401550293
20
67.1967010498047
40
0.0
41
0.0
42
0.0
10
65.0067977905273
20
67.4804000854492
40
0.0
41
0.0
42
0.0
10
65.0009994506836
20
67.4804000854492
40
0.0
41
0.0
42
0.0
10
65.0009002685547
20
67.4514999389648
40
0.0
41
0.0
42
0.0
10
65.154899597168
20
67.1332015991211
40
0.0
41
0.0
42
0.0
210
0.0
220
0.0
230
1.0
0
LWPOLYLINE
5
23
330
1C
100
AcDbEntity
67
0
8
0
62
256
6
ByLayer
370
-1
48
1.0
60
0
100
AcDbPolyline
90
28
70
1
38
0.0
39
0.0
10
65.0195999145508
20
84.4280014038086
40
0.0
41
0.0
42
0.0
10
65.1822967529297
20
84.4337005615234
40
0.0
41
0.0
42
0.0
10
65.4817962646484
20
84.3806991577148
40
0.0
41
0.0
42
0.0
10
65.5177001953125
20
84.3805999755859
40
0.0
41
0.0
42
0.0
10
65.8715972900391
20
84.4591979980469
40
0.0
41
0.0
42
0.0
10
66.0166015625
20
84.4608993530273
40
0.0
41
0.0
42
0.0
10
66.138801574707
20
84.4998016357422
40
0.0
41
0.0
42
0.0
10
66.3693008422852
20
84.578498840332
40
0.0
41
0.0
42
0.0
10
66.5139007568359
20
84.6103973388672
40
0.0
41
0.0
42
0.0
10
66.8382034301758
20
84.7365036010742
40
0.0
41
0.0
42
0.0
10
67.0133972167969
20
84.7873992919922
40
0.0
41
0.0
42
0.0
10
67.1967010498047
20
84.8553009033203
40
0.0
41
0.0
42
0.0
10
67.4804000854492
20
84.9931030273438
40
0.0
41
0.0
42
0.0
10
67.4804000854492
20
84.9990005493164
40
0.0
41
0.0
42
0.0
10
67.4514999389648
20
84.9989013671875
40
0.0
41
0.0
42
0.0
10
67.1332015991211
20
84.8448028564453
40
0.0
41
0.0
42
0.0
10
66.9865036010742
20
84.790397644043
40
0.0
41
0.0
42
0.0
10
66.8416976928711
20
84.7482986450195
40
0.0
41
0.0
42
0.0
10
66.4860992431641
20
84.6110000610352
40
0.0
41
0.0
42
0.0
10
66.3005981445312
20
84.570198059082
40
0.0
41
0.0
42
0.0
10
66.0958023071289
20
84.4999008178711
40
0.0
41
0.0
42
0.0
10
65.9832992553711
20
84.4642028808594
40
0.0
41
0.0
42
0.0
10
65.7963027954102
20
84.4621963500977
40
0.0
41
0.0
42
0.0
10
65.4981994628906
20
84.3957977294922
40
0.0
41
0.0
42
0.0
10
65.1281967163086
20
84.4616012573242
40
0.0
41
0.0
42
0.0
10
65.0009994506836
20
84.4582977294922
40
0.0
41
0.0
42
0.0
10
65.0009994506836
20
84.4281005859375
40
0.0
41
0.0
42
0.0
10
65.0195999145508
20
84.4280014038086
40
0.0
41
0.0
42
0.0
210
0.0
220
0.0
230
1.0
0
LWPOLYLINE
5
24
330
1C
100
AcDbEntity
67
0
8
0
62
256
6
ByLayer
370
-1
48
1.0
60
0
100
AcDbPolyline
90
427
70
1
38
0.0
39
0.0
10
65.2615966796875
20
75.9857025146484
40
0.0
41
0.0
42
0.0
10
65.3983001708984
20
75.632698059082
40
0.0
41
0.0
42
0.0
10
65.4339981079102
20
75.5457000732422
40
0.0
41
0.0
42
0.0
10
65.4591979980469
20
75.4896011352539
40
0.0
41
0.0
42
0.0
10
65.4972991943359
20
75.4255981445312
40
0.0
41
0.0
42
0.0
10
65.6148986816406
20
75.2781982421875
40
0.0
41
0.0
42
0.0
10
65.7183990478516
20
75.1368026733398
40
0.0
41
0.0
42
0.0
10
65.8110961914062
20
74.99169921875
40
0.0
41
0.0
42
0.0
10
65.8368988037109
20
74.9557037353516
40
0.0
41
0.0
42
0.0
10
65.9921035766602
20
74.7936019897461
40
0.0
41
0.0
42
0.0
10
66.3240966796875
20
74.64990234375
40
0.0
41
0.0
42
0.0
10
66.4879989624023
20
74.5018005371094
40
0.0
41
0.0
42
0.0
10
67.0070037841797
20
74.5018997192383
40
0.0
41
0.0
42
0.0
10
67.0150985717773
20
74.5034027099609
40
0.0
41
0.0
42
0.0
10
67.2464981079102
20
74.5711975097656
40
0.0
41
0.0
42
0.0
10
67.5095977783203
20
74.7135009765625
40
0.0
41
0.0
42
0.0
10
67.5941009521484
20
74.7636032104492
40
0.0
41
0.0
42
0.0
10
67.6904983520508
20
74.8134994506836
40
0.0
41
0.0
42
0.0
10
68.0105972290039
20
74.9876022338867
40
0.0
41
0.0
42
0.0
10
68.2596969604492
20
75.1004028320312
40
0.0
41
0.0
42
0.0
10
68.5136032104492
20
75.1866989135742
40
0.0
41
0.0
42
0.0
10
68.6941986083984
20
75.2398986816406
40
0.0
41
0.0
42
0.0
10
68.9852981567383
20
75.2193984985352
40
0.0
41
0.0
42
0.0
10
69.2995986938477
20
75.0716018676758
40
0.0
41
0.0
42
0.0
10
69.334602355957
20
75.0715026855469
40
0.0
41
0.0
42
0.0
10
69.4882965087891
20
75.0771026611328
40
0.0
41
0.0
42
0.0
10
69.5755004882812
20
75.0136032104492
40
0.0
41
0.0
42
0.0
10
69.5813980102539
20
75.0120010375977
40
0.0
41
0.0
42
0.0
10
69.7288970947266
20
74.9926986694336
40
0.0
41
0.0
42
0.0
10
69.9898986816406
20
74.8466033935547
40
0.0
41
0.0
42
0.0
10
70.3414993286133
20
74.6641006469727
40
0.0
41
0.0
42
0.0
10
70.4821014404297
20
74.6425018310547
40
0.0
41
0.0
42
0.0
10
70.6286010742188
20
74.6352996826172
40
0.0
41
0.0
42
0.0
10
70.9831008911133
20
74.5260009765625
40
0.0
41
0.0
42
0.0
10
71.018798828125
20
74.5259017944336
40
0.0
41
0.0
42
0.0
10
71.0519027709961
20
74.5296020507812
40
0.0
41
0.0
42
0.0
10
71.4969024658203
20
74.551399230957
40
0.0
41
0.0
42
0.0
10
71.5150985717773
20
74.5537033081055
40
0.0
41
0.0
42
0.0
10
71.7121963500977
20
74.6244964599609
40
0.0
41
0.0
42
0.0
10
71.8026962280273
20
74.6452026367188
40
0.0
41
0.0
42
0.0
10
71.9598999023438
20
74.6937026977539
40
0.0
41
0.0
42
0.0
10
72.0137023925781
20
74.7041015625
40
0.0
41
0.0
42
0.0
10
72.3563003540039
20
74.8524017333984
40
0.0
41
0.0
42
0.0
10
72.5151977539062
20
74.8820037841797
40
0.0
41
0.0
42
0.0
10
72.7910003662109
20
74.9578018188477
40
0.0
41
0.0
42
0.0
10
72.9893035888672
20
74.972297668457
40
0.0
41
0.0
42
0.0
10
73.1318969726562
20
74.8986968994141
40
0.0
41
0.0
42
0.0
10
73.4934005737305
20
74.8301010131836
40
0.0
41
0.0
42
0.0
10
73.6158981323242
20
74.611701965332
40
0.0
41
0.0
42
0.0
10
73.6555023193359
20
74.5037994384766
40
0.0
41
0.0
42
0.0
10
73.5421981811523
20
74.3902969360352
40
0.0
41
0.0
42
0.0
10
73.4936981201172
20
74.3273010253906
40
0.0
41
0.0
42
0.0
10
73.3349990844727
20
74.2487030029297
40
0.0
41
0.0
42
0.0
10
72.9837036132812
20
74.1518020629883
40
0.0
41
0.0
42
0.0
10
72.6297988891602
20
74.1220016479492
40
0.0
41
0.0
42
0.0
10
72.5684967041016
20
74.097900390625
40
0.0
41
0.0
42
0.0
10
72.4960021972656
20
74.0510025024414
40
0.0
41
0.0
42
0.0
10
72.3490982055664
20
74.0958023071289
40
0.0
41
0.0
42
0.0
10
72.3162002563477
20
74.095703125
40
0.0
41
0.0
42
0.0
10
72.0594024658203
20
73.9992980957031
40
0.0
41
0.0
42
0.0
10
71.9832992553711
20
73.9908981323242
40
0.0
41
0.0
42
0.0
10
71.9654006958008
20
73.9871978759766
40
0.0
41
0.0
42
0.0
10
71.4913024902344
20
73.9579010009766
40
0.0
41
0.0
42
0.0
10
71.4345016479492
20
73.9355010986328
40
0.0
41
0.0
42
0.0
10
71.1438980102539
20
73.855598449707
40
0.0
41
0.0
42
0.0
10
71.1082992553711
20
73.8304977416992
40
0.0
41
0.0
42
0.0
10
70.9937973022461
20
73.7761001586914
40
0.0
41
0.0
42
0.0
10
70.7988967895508
20
73.5070037841797
40
0.0
41
0.0
42
0.0
10
70.6664962768555
20
73.3481979370117
40
0.0
41
0.0
42
0.0
10
70.6376037597656
20
73.3196029663086
40
0.0
41
0.0
42
0.0
10
70.4900970458984
20
73.2405014038086
40
0.0
41
0.0
42
0.0
10
70.3970031738281
20
73.1874008178711
40
0.0
41
0.0
42
0.0
10
70.3742980957031
20
73.1692962646484
40
0.0
41
0.0
42
0.0
10
70.2535018920898
20
73.007698059082
40
0.0
41
0.0
42
0.0
10
70.0588989257812
20
72.7274017333984
40
0.0
41
0.0
42
0.0
10
69.989501953125
20
72.6828002929688
40
0.0
41
0.0
42
0.0
10
69.8054962158203
20
72.6112976074219
40
0.0
41
0.0
42
0.0
10
69.7026977539062
20
72.5294036865234
40
0.0
41
0.0
42
0.0
10
69.4908981323242
20
72.318000793457
40
0.0
41
0.0
42
0.0
10
69.2304000854492
20
72.244499206543
40
0.0
41
0.0
42
0.0
10
68.9828033447266
20
72.1794967651367
40
0.0
41
0.0
42
0.0
10
68.6635971069336
20
72.1746978759766
40
0.0
41
0.0
42
0.0
10
68.5189971923828
20
72.1752014160156
40
0.0
41
0.0
42
0.0
10
68.0186996459961
20
72.2205963134766
40
0.0
41
0.0
42
0.0
10
67.7481002807617
20
72.2273025512695
40
0.0
41
0.0
42
0.0
10
67.4849014282227
20
72.2265014648438
40
0.0
41
0.0
42
0.0
10
67.024299621582
20
72.0007019042969
40
0.0
41
0.0
42
0.0
10
66.993896484375
20
71.9888000488281
40
0.0
41
0.0
42
0.0
10
66.9164962768555
20
71.869499206543
40
0.0
41
0.0
42
0.0
10
66.7835998535156
20
71.6947021484375
40
0.0
41
0.0
42
0.0
10
66.7148971557617
20
71.5121002197266
40
0.0
41
0.0
42
0.0
10
66.5792007446289
20
71.1986999511719
40
0.0
41
0.0
42
0.0
10
66.5429992675781
20
71.0162963867188
40
0.0
41
0.0
42
0.0
10
66.5007019042969
20
70.7465972900391
40
0.0
41
0.0
42
0.0
10
66.4953002929688
20
70.7033996582031
40
0.0
41
0.0
42
0.0
10
66.4936981201172
20
70.6309967041016
40
0.0
41
0.0
42
0.0
10
66.4990997314453
20
70.6737976074219
40
0.0
41
0.0
42
0.0
10
66.5477981567383
20
70.9835968017578
40
0.0
41
0.0
42
0.0
10
66.5771026611328
20
71.1312026977539
40
0.0
41
0.0
42
0.0
10
66.7314987182617
20
71.4878005981445
40
0.0
41
0.0
42
0.0
10
66.7869033813477
20
71.6352005004883
40
0.0
41
0.0
42
0.0
10
66.9393997192383
20
71.8363037109375
40
0.0
41
0.0
42
0.0
10
67.006103515625
20
71.9385986328125
40
0.0
41
0.0
42
0.0
10
67.1594009399414
20
71.9981994628906
40
0.0
41
0.0
42
0.0
10
67.5150985717773
20
72.1724014282227
40
0.0
41
0.0
42
0.0
10
67.6572036743164
20
72.1728973388672
40
0.0
41
0.0
42
0.0
10
67.981201171875
20
72.1648025512695
40
0.0
41
0.0
42
0.0
10
68.4809036254883
20
72.1193008422852
40
0.0
41
0.0
42
0.0
10
68.6378021240234
20
72.118896484375
40
0.0
41
0.0
42
0.0
10
69.0170974731445
20
72.1246032714844
40
0.0
41
0.0
42
0.0
10
69.1822967529297
20
72.168098449707
40
0.0
41
0.0
42
0.0
10
69.5090026855469
20
72.2602996826172
40
0.0
41
0.0
42
0.0
10
69.777702331543
20
72.5282974243164
40
0.0
41
0.0
42
0.0
10
69.8644027709961
20
72.5973968505859
40
0.0
41
0.0
42
0.0
10
70.0103988647461
20
72.6540985107422
40
0.0
41
0.0
42
0.0
10
70.0552978515625
20
72.6830978393555
40
0.0
41
0.0
42
0.0
10
70.2699966430664
20
72.9922027587891
40
0.0
41
0.0
42
0.0
10
70.4032974243164
20
73.1706008911133
40
0.0
41
0.0
42
0.0
10
70.5098037719727
20
73.2313995361328
40
0.0
41
0.0
42
0.0
10
70.6923980712891
20
73.3292999267578
40
0.0
41
0.0
42
0.0
10
70.722900390625
20
73.3592987060547
40
0.0
41
0.0
42
0.0
10
70.834098815918
20
73.4928970336914
40
0.0
41
0.0
42
0.0
10
71.006103515625
20
73.7302017211914
40
0.0
41
0.0
42
0.0
10
71.1100997924805
20
73.7796020507812
40
0.0
41
0.0
42
0.0
10
71.1591033935547
20
73.8142013549805
40
0.0
41
0.0
42
0.0
10
71.421501159668
20
73.8863983154297
40
0.0
41
0.0
42
0.0
10
71.5152969360352
20
73.9234008789062
40
0.0
41
0.0
42
0.0
10
71.9452972412109
20
73.9518966674805
40
0.0
41
0.0
42
0.0
10
72.0166015625
20
73.9669036865234
40
0.0
41
0.0
42
0.0
10
72.3223037719727
20
74.0005035400391
40
0.0
41
0.0
42
0.0
10
72.4253005981445
20
74.0391006469727
40
0.0
41
0.0
42
0.0
10
72.4831008911133
20
74.0216979980469
40
0.0
41
0.0
42
0.0
10
72.5137023925781
20
74.0216979980469
40
0.0
41
0.0
42
0.0
10
72.6110000610352
20
74.084602355957
40
0.0
41
0.0
42
0.0
10
72.7001037597656
20
74.119499206543
40
0.0
41
0.0
42
0.0
10
73.0161972045898
20
74.1462020874023
40
0.0
41
0.0
42
0.0
10
73.3277969360352
20
74.2321014404297
40
0.0
41
0.0
42
0.0
10
73.3658981323242
20
74.2494964599609
40
0.0
41
0.0
42
0.0
10
73.5063018798828
20
74.3190994262695
40
0.0
41
0.0
42
0.0
10
73.5404968261719
20
74.3635025024414
40
0.0
41
0.0
42
0.0
10
73.6656036376953
20
74.4886016845703
40
0.0
41
0.0
42
0.0
10
73.665397644043
20
74.5161972045898
40
0.0
41
0.0
42
0.0
10
73.6308975219727
20
74.6100997924805
40
0.0
41
0.0
42
0.0
10
73.5063018798828
20
74.8337020874023
40
0.0
41
0.0
42
0.0
10
73.197998046875
20
74.8919982910156
40
0.0
41
0.0
42
0.0
10
73.0148010253906
20
74.9869003295898
40
0.0
41
0.0
42
0.0
10
72.9806976318359
20
74.9868011474609
40
0.0
41
0.0
42
0.0
10
72.6958999633789
20
74.9660034179688
40
0.0
41
0.0
42
0.0
10
72.4847030639648
20
74.9077987670898
40
0.0
41
0.0
42
0.0
10
72.2852020263672
20
74.8706970214844
40
0.0
41
0.0
42
0.0
10
71.986198425293
20
74.7413024902344
40
0.0
41
0.0
42
0.0
10
71.9150009155273
20
74.7274017333984
40
0.0
41
0.0
42
0.0
10
71.7761001586914
20
74.6846008300781
40
0.0
41
0.0
42
0.0
10
71.6616973876953
20
74.6585006713867
40
0.0
41
0.0
42
0.0
10
71.4841003417969
20
74.5947036743164
40
0.0
41
0.0
42
0.0
10
71.0679016113281
20
74.572998046875
40
0.0
41
0.0
42
0.0
10
71.0073013305664
20
74.5662002563477
40
0.0
41
0.0
42
0.0
10
70.701301574707
20
74.6605987548828
40
0.0
41
0.0
42
0.0
10
70.5177993774414
20
74.6696014404297
40
0.0
41
0.0
42
0.0
10
70.3283004760742
20
74.6986999511719
40
0.0
41
0.0
42
0.0
10
70.0099029541016
20
74.8638000488281
40
0.0
41
0.0
42
0.0
10
69.7845001220703
20
74.9900970458984
40
0.0
41
0.0
42
0.0
10
69.6063003540039
20
75.013298034668
40
0.0
41
0.0
42
0.0
10
69.5133972167969
20
75.0810012817383
40
0.0
41
0.0
42
0.0
10
69.3675994873047
20
75.0768966674805
40
0.0
41
0.0
42
0.0
10
69.0145034790039
20
75.2431030273438
40
0.0
41
0.0
42
0.0
10
68.6650009155273
20
75.2677993774414
40
0.0
41
0.0
42
0.0
10
68.6278991699219
20
75.2677993774414
40
0.0
41
0.0
42
0.0
10
68.4862976074219
20
75.2263031005859
40
0.0
41
0.0
42
0.0
10
68.1817016601562
20
75.122802734375
40
0.0
41
0.0
42
0.0
10
67.9897003173828
20
75.0354995727539
40
0.0
41
0.0
42
0.0
10
67.9318008422852
20
75.0016021728516
40
0.0
41
0.0
42
0.0
10
67.6656036376953
20
74.8563995361328
40
0.0
41
0.0
42
0.0
10
67.5904998779297
20
74.8175964355469
40
0.0
41
0.0
42
0.0
10
67.4903030395508
20
74.7582015991211
40
0.0
41
0.0
42
0.0
10
67.1718978881836
20
74.5858993530273
40
0.0
41
0.0
42
0.0
10
66.9847030639648
20
74.5310974121094
40
0.0
41
0.0
42
0.0
10
66.8648986816406
20
74.510498046875
40
0.0
41
0.0
42
0.0
10
66.5119018554688
20
74.5102996826172
40
0.0
41
0.0
42
0.0
10
66.3620986938477
20
74.6455993652344
40
0.0
41
0.0
42
0.0
10
66.3249969482422
20
74.6694030761719
40
0.0
41
0.0
42
0.0
10
66.007698059082
20
74.8067016601562
40
0.0
41
0.0
42
0.0
10
65.8625030517578
20
74.9583969116211
40
0.0
41
0.0
42
0.0
10
65.8266983032227
20
75.0081024169922
40
0.0
41
0.0
42
0.0
10
65.7086029052734
20
75.193000793457
40
0.0
41
0.0
42
0.0
10
65.5780029296875
20
75.3714981079102
40
0.0
41
0.0
42
0.0
10
65.5026016235352
20
75.4660034179688
40
0.0
41
0.0
42
0.0
10
65.4763031005859
20
75.5102005004883
40
0.0
41
0.0
42
0.0
10
65.4427032470703
20
75.5849990844727
40
0.0
41
0.0
42
0.0
10
65.3967971801758
20
75.6971969604492
40
0.0
41
0.0
42
0.0
10
65.2740020751953
20
76.0141983032227
40
0.0
41
0.0
42
0.0
10
65.2396011352539
20
76.2016983032227
40
0.0
41
0.0
42
0.0
10
65.2021026611328
20
76.5027008056641
40
0.0
41
0.0
42
0.0
10
65.2173004150391
20
76.6677017211914
40
0.0
41
0.0
42
0.0
10
65.2730026245117
20
76.9869003295898
40
0.0
41
0.0
42
0.0
10
65.438102722168
20
77.2975006103516
40
0.0
41
0.0
42
0.0
10
65.5008010864258
20
77.4425964355469
40
0.0
41
0.0
42
0.0
10
65.5241012573242
20
77.4912033081055
40
0.0
41
0.0
42
0.0
10
65.657600402832
20
77.657096862793
40
0.0
41
0.0
42
0.0
10
65.9922027587891
20
77.9952011108398
40
0.0
41
0.0
42
0.0
10
66.007698059082
20
78.0090026855469
40
0.0
41
0.0
42
0.0
10
66.3634033203125
20
78.2106018066406
40
0.0
41
0.0
42
0.0
10
66.5110015869141
20
78.3233032226562
40
0.0
41
0.0
42
0.0
10
66.8678970336914
20
78.3988037109375
40
0.0
41
0.0
42
0.0
10
66.9068984985352
20
78.4184036254883
40
0.0
41
0.0
42
0.0
10
67.0030975341797
20
78.4796981811523
40
0.0
41
0.0
42
0.0
10
67.048698425293
20
78.4637985229492
40
0.0
41
0.0
42
0.0
10
67.4899978637695
20
78.4080963134766
40
0.0
41
0.0
42
0.0
10
67.5588989257812
20
78.3352966308594
40
0.0
41
0.0
42
0.0
10
67.9804992675781
20
77.9951019287109
40
0.0
41
0.0
42
0.0
10
68.4177017211914
20
77.493896484375
40
0.0
41
0.0
42
0.0
10
68.4934997558594
20
77.4115982055664
40
0.0
41
0.0
42
0.0
10
68.530403137207
20
77.3879013061523
40
0.0
41
0.0
42
0.0
10
68.7815017700195
20
77.2074966430664
40
0.0
41
0.0
42
0.0
10
68.9906005859375
20
77.0451965332031
40
0.0
41
0.0
42
0.0
10
69.0978012084961
20
76.9998016357422
40
0.0
41
0.0
42
0.0
10
69.4824981689453
20
76.9058990478516
40
0.0
41
0.0
42
0.0
10
69.5184020996094
20
76.9057998657227
40
0.0
41
0.0
42
0.0
10
69.7100982666016
20
76.9349975585938
40
0.0
41
0.0
42
0.0
10
69.9838027954102
20
76.902702331543
40
0.0
41
0.0
42
0.0
10
70.1276016235352
20
76.8656997680664
40
0.0
41
0.0
42
0.0
10
70.1636962890625
20
76.8656005859375
40
0.0
41
0.0
42
0.0
10
70.2018966674805
20
76.8701019287109
40
0.0
41
0.0
42
0.0
10
70.5168991088867
20
76.9248962402344
40
0.0
41
0.0
42
0.0
10
70.8087997436523
20
76.9589004516602
40
0.0
41
0.0
42
0.0
10
70.9866027832031
20
76.9131011962891
40
0.0
41
0.0
42
0.0
10
71.1691970825195
20
76.8367004394531
40
0.0
41
0.0
42
0.0
10
71.2044982910156
20
76.8366012573242
40
0.0
41
0.0
42
0.0
10
71.4881973266602
20
76.8479995727539
40
0.0
41
0.0
42
0.0
10
71.9607009887695
20
76.5263977050781
40
0.0
41
0.0
42
0.0
10
72.0124969482422
20
76.5261001586914
40
0.0
41
0.0
42
0.0
10
72.0127029418945
20
76.4898986816406
40
0.0
41
0.0
42
0.0
10
72.4946975708008
20
76.1537017822266
40
0.0
41
0.0
42
0.0
10
72.6144027709961
20
75.9931030273438
40
0.0
41
0.0
42
0.0
10
72.6330032348633
20
75.9720993041992
40
0.0
41
0.0
42
0.0
10
72.8050003051758
20
75.8556976318359
40
0.0
41
0.0
42
0.0
10
72.9869003295898
20
75.7794036865234
40
0.0
41
0.0
42
0.0
10
73.299201965332
20
75.6885986328125
40
0.0
41
0.0
42
0.0
10
73.3370971679688
20
75.6839981079102
40
0.0
41
0.0
42
0.0
10
73.4794006347656
20
75.6717987060547
40
0.0
41
0.0
42
0.0
10
73.5124969482422
20
75.6718978881836
40
0.0
41
0.0
42
0.0
10
73.6503982543945
20
75.7851028442383
40
0.0
41
0.0
42
0.0
10
73.8706970214844
20
75.9890975952148
40
0.0
41
0.0
42
0.0
10
73.8705978393555
20
76.0145034790039
40
0.0
41
0.0
42
0.0
10
73.772102355957
20
76.1925964355469
40
0.0
41
0.0
42
0.0
10
73.5690002441406
20
76.4161987304688
40
0.0
41
0.0
42
0.0
10
73.5063018798828
20
76.4873962402344
40
0.0
41
0.0
42
0.0
10
73.4811019897461
20
76.5027008056641
40
0.0
41
0.0
42
0.0
10
73.4141006469727
20
76.5562973022461
40
0.0
41
0.0
42
0.0
10
73.1927032470703
20
76.6828002929688
40
0.0
41
0.0
42
0.0
10
73.0428009033203
20
76.8143005371094
40
0.0
41
0.0
42
0.0
10
73.0101013183594
20
76.8348007202148
40
0.0
41
0.0
42
0.0
10
72.6321029663086
20
77.0011978149414
40
0.0
41
0.0
42
0.0
10
72.6043014526367
20
77.0177001953125
40
0.0
41
0.0
42
0.0
10
72.5080032348633
20
77.0837020874023
40
0.0
41
0.0
42
0.0
10
72.2387008666992
20
77.2723007202148
40
0.0
41
0.0
42
0.0
10
72.0158004760742
20
77.3639984130859
40
0.0
41
0.0
42
0.0
10
71.870002746582
20
77.363899230957
40
0.0
41
0.0
42
0.0
10
71.9016036987305
20
77.4826965332031
40
0.0
41
0.0
42
0.0
10
71.901496887207
20
77.510498046875
40
0.0
41
0.0
42
0.0
10
71.7605972290039
20
77.6358032226562
40
0.0
41
0.0
42
0.0
10
71.686897277832
20
77.8274002075195
40
0.0
41
0.0
42
0.0
10
71.6286010742188
20
77.8843002319336
40
0.0
41
0.0
42
0.0
10
71.5847015380859
20
78.0098037719727
40
0.0
41
0.0
42
0.0
10
71.5027008056641
20
78.1172027587891
40
0.0
41
0.0
42
0.0
10
71.4661026000977
20
78.173698425293
40
0.0
41
0.0
42
0.0
10
71.4486999511719
20
78.1947021484375
40
0.0
41
0.0
42
0.0
10
71.3518981933594
20
78.5099029541016
40
0.0
41
0.0
42
0.0
10
71.2145004272461
20
78.6804962158203
40
0.0
41
0.0
42
0.0
10
71.1259002685547
20
79.0094985961914
40
0.0
41
0.0
42
0.0
10
71.1106033325195
20
79.0262985229492
40
0.0
41
0.0
42
0.0
10
71.0022964477539
20
79.3227005004883
40
0.0
41
0.0
42
0.0
10
70.8589019775391
20
79.4281997680664
40
0.0
41
0.0
42
0.0
10
70.8258972167969
20
79.4852981567383
40
0.0
41
0.0
42
0.0
10
70.8031005859375
20
79.5043029785156
40
0.0
41
0.0
42
0.0
10
70.5081024169922
20
79.7926025390625
40
0.0
41
0.0
42
0.0
10
70.0129013061523
20
79.9970016479492
40
0.0
41
0.0
42
0.0
10
69.5137023925781
20
80.1434020996094
40
0.0
41
0.0
42
0.0
10
69.0112991333008
20
80.3088989257812
40
0.0
41
0.0
42
0.0
10
68.945198059082
20
80.347297668457
40
0.0
41
0.0
42
0.0
10
68.9223022460938
20
80.3584976196289
40
0.0
41
0.0
42
0.0
10
68.8181991577148
20
80.5121994018555
40
0.0
41
0.0
42
0.0
10
68.7988967895508
20
80.6567993164062
40
0.0
41
0.0
42
0.0
10
68.7727966308594
20
80.6921997070312
40
0.0
41
0.0
42
0.0
10
68.5240020751953
20
81.0096969604492
40
0.0
41
0.0
42
0.0
10
68.5365982055664
20
81.1658020019531
40
0.0
41
0.0
42
0.0
10
68.5364990234375
20
81.2037963867188
40
0.0
41
0.0
42
0.0
10
68.5038986206055
20
81.4981994628906
40
0.0
41
0.0
42
0.0
10
68.5273971557617
20
81.6707992553711
40
0.0
41
0.0
42
0.0
10
68.5472030639648
20
81.7990036010742
40
0.0
41
0.0
42
0.0
10
68.5919036865234
20
81.9865036010742
40
0.0
41
0.0
42
0.0
10
68.6688003540039
20
82.1727981567383
40
0.0
41
0.0
42
0.0
10
68.7919998168945
20
82.4897003173828
40
0.0
41
0.0
42
0.0
10
68.9658966064453
20
82.7530975341797
40
0.0
41
0.0
42
0.0
10
69.0027008056641
20
82.8150024414062
40
0.0
41
0.0
42
0.0
10
69.1074981689453
20
82.9410018920898
40
0.0
41
0.0
42
0.0
10
69.161003112793
20
82.9959030151367
40
0.0
41
0.0
42
0.0
10
69.4251022338867
20
83.1872024536133
40
0.0
41
0.0
42
0.0
10
69.5093002319336
20
83.2610015869141
40
0.0
41
0.0
42
0.0
10
69.8272018432617
20
83.3672027587891
40
0.0
41
0.0
42
0.0
10
70.0136032104492
20
83.4542007446289
40
0.0
41
0.0
42
0.0
10
70.1671981811523
20
83.4817962646484
40
0.0
41
0.0
42
0.0
10
70.4899978637695
20
83.5052032470703
40
0.0
41
0.0
42
0.0
10
70.5074005126953
20
83.5078964233398
40
0.0
41
0.0
42
0.0
10
70.4813995361328
20
83.5083999633789
40
0.0
41
0.0
42
0.0
10
70.4475021362305
20
83.5028991699219
40
0.0
41
0.0
42
0.0
10
70.10009765625
20
83.4776992797852
40
0.0
41
0.0
42
0.0
10
69.9863967895508
20
83.4571990966797
40
0.0
41
0.0
42
0.0
10
69.8427963256836
20
83.3901977539062
40
0.0
41
0.0
42
0.0
10
69.4906005859375
20
83.2726974487305
40
0.0
41
0.0
42
0.0
10
69.4290008544922
20
83.2185974121094
40
0.0
41
0.0
42
0.0
10
69.1327972412109
20
83.0039978027344
40
0.0
41
0.0
42
0.0
10
69.0764999389648
20
82.9461975097656
40
0.0
41
0.0
42
0.0
10
68.9971008300781
20
82.8507995605469
40
0.0
41
0.0
42
0.0
10
68.9692993164062
20
82.8041000366211
40
0.0
41
0.0
42
0.0
10
68.7753982543945
20
82.5102996826172
40
0.0
41
0.0
42
0.0
10
68.6381988525391
20
82.157096862793
40
0.0
41
0.0
42
0.0
10
68.5789031982422
20
82.0134963989258
40
0.0
41
0.0
42
0.0
10
68.5447006225586
20
81.8709030151367
40
0.0
41
0.0
42
0.0
10
68.5227966308594
20
81.7285995483398
40
0.0
41
0.0
42
0.0
10
68.4942016601562
20
81.5185012817383
40
0.0
41
0.0
42
0.0
10
68.4941024780273
20
81.4811019897461
40
0.0
41
0.0
42
0.0
10
68.5317993164062
20
81.1420974731445
40
0.0
41
0.0
42
0.0
10
68.5220031738281
20
81.0190963745117
40
0.0
41
0.0
42
0.0
10
68.5218963623047
20
80.9871978759766
40
0.0
41
0.0
42
0.0
10
68.7698974609375
20
80.6707000732422
40
0.0
41
0.0
42
0.0
10
68.7942962646484
20
80.4876022338867
40
0.0
41
0.0
42
0.0
10
68.9134979248047
20
80.3114013671875
40
0.0
41
0.0
42
0.0
10
68.9329986572266
20
80.3021011352539
40
0.0
41
0.0
42
0.0
10
68.9886016845703
20
80.2695999145508
40
0.0
41
0.0
42
0.0
10
69.486198425293
20
80.1061019897461
40
0.0
41
0.0
42
0.0
10
69.8495025634766
20
79.9999008178711
40
0.0
41
0.0
42
0.0
10
69.9262008666992
20
79.973503112793
40
0.0
41
0.0
42
0.0
10
69.9869995117188
20
79.9564971923828
40
0.0
41
0.0
42
0.0
10
70.065299987793
20
79.9220962524414
40
0.0
41
0.0
42
0.0
10
70.49169921875
20
79.7462005615234
40
0.0
41
0.0
42
0.0
10
70.7481002807617
20
79.4954986572266
40
0.0
41
0.0
42
0.0
10
70.7822036743164
20
79.4669036865234
40
0.0
41
0.0
42
0.0
10
70.8108978271484
20
79.4173965454102
40
0.0
41
0.0
42
0.0
10
70.9974975585938
20
79.2802963256836
40
0.0
41
0.0
42
0.0
10
71.0950012207031
20
79.013298034668
40
0.0
41
0.0
42
0.0
10
71.1158981323242
20
78.9903030395508
40
0.0
41
0.0
42
0.0
10
71.2014999389648
20
78.6722030639648
40
0.0
41
0.0
42
0.0
10
71.2182998657227
20
78.636100769043
40
0.0
41
0.0
42
0.0
10
71.3360977172852
20
78.4898986816406
40
0.0
41
0.0
42
0.0
10
71.4449996948242
20
78.1351013183594
40
0.0
41
0.0
42
0.0
10
71.4553985595703
20
78.1227035522461
40
0.0
41
0.0
42
0.0
10
71.4971008300781
20
78.0581970214844
40
0.0
41
0.0
42
0.0
10
71.5491027832031
20
77.9899978637695
40
0.0
41
0.0
42
0.0
10
71.5976028442383
20
77.8517990112305
40
0.0
41
0.0
42
0.0
10
71.6427993774414
20
77.807502746582
40
0.0
41
0.0
42
0.0
10
71.7255020141602
20
77.5926971435547
40
0.0
41
0.0
42
0.0
10
71.8357009887695
20
77.4946975708008
40
0.0
41
0.0
42
0.0
10
71.7922973632812
20
77.3317031860352
40
0.0
41
0.0
42
0.0
10
71.7802963256836
20
77.2957992553711
40
0.0
41
0.0
42
0.0
10
71.7801971435547
20
77.279899597168
40
0.0
41
0.0
42
0.0
10
71.9841003417969
20
77.2779006958008
40
0.0
41
0.0
42
0.0
10
72.3640975952148
20
77.1242980957031
40
0.0
41
0.0
42
0.0
10
72.4981994628906
20
77.030403137207
40
0.0
41
0.0
42
0.0
10
72.5466003417969
20
76.9983978271484
40
0.0
41
0.0
42
0.0
10
72.9897994995117
20
76.8031997680664
40
0.0
41
0.0
42
0.0
10
73.0204010009766
20
76.7841033935547
40
0.0
41
0.0
42
0.0
10
73.1371994018555
20
76.6816024780273
40
0.0
41
0.0
42
0.0
10
73.3859024047852
20
76.5393981933594
40
0.0
41
0.0
42
0.0
10
73.4386978149414
20
76.4971008300781
40
0.0
41
0.0
42
0.0
10
73.4934997558594
20
76.463996887207
40
0.0
41
0.0
42
0.0
10
73.6242980957031
20
76.3154983520508
40
0.0
41
0.0
42
0.0
10
73.7863006591797
20
76.1371994018555
40
0.0
41
0.0
42
0.0
10
73.8610000610352
20
76.002197265625
40
0.0
41
0.0
42
0.0
10
73.6194000244141
20
75.7781982421875
40
0.0
41
0.0
42
0.0
10
73.4904022216797
20
75.6735992431641
40
0.0
41
0.0
42
0.0
10
73.3639984130859
20
75.6844024658203
40
0.0
41
0.0
42
0.0
10
73.0129013061523
20
75.7864990234375
40
0.0
41
0.0
42
0.0
10
72.8648986816406
20
75.8487014770508
40
0.0
41
0.0
42
0.0
10
72.66259765625
20
75.9854965209961
40
0.0
41
0.0
42
0.0
10
72.6439971923828
20
76.0066986083984
40
0.0
41
0.0
42
0.0
10
72.5050964355469
20
76.1929016113281
40
0.0
41
0.0
42
0.0
10
72.133903503418
20
76.4514007568359
40
0.0
41
0.0
42
0.0
10
72.0734024047852
20
76.5007019042969
40
0.0
41
0.0
42
0.0
10
72.1300964355469
20
76.5662002563477
40
0.0
41
0.0
42
0.0
10
72.2922973632812
20
76.780403137207
40
0.0
41
0.0
42
0.0
10
72.2922973632812
20
76.7923965454102
40
0.0
41
0.0
42
0.0
10
72.2786026000977
20
76.7923965454102
40
0.0
41
0.0
42
0.0
10
71.9852981567383
20
76.6377029418945
40
0.0
41
0.0
42
0.0
10
71.8758010864258
20
76.6362991333008
40
0.0
41
0.0
42
0.0
10
71.5134963989258
20
76.8828964233398
40
0.0
41
0.0
42
0.0
10
71.4804000854492
20
76.8827972412109
40
0.0
41
0.0
42
0.0
10
71.157600402832
20
76.8697967529297
40
0.0
41
0.0
42
0.0
10
71.0131988525391
20
76.9304962158203
40
0.0
41
0.0
42
0.0
10
70.8722991943359
20
76.966796875
40
0.0
41
0.0
42
0.0
10
70.8361968994141
20
76.9666976928711
40
0.0
41
0.0
42
0.0
10
70.4830017089844
20
76.9255981445312
40
0.0
41
0.0
42
0.0
10
70.1828002929688
20
76.8732986450195
40
0.0
41
0.0
42
0.0
10
70.0160980224609
20
76.9162979125977
40
0.0
41
0.0
42
0.0
10
69.6461029052734
20
76.9600982666016
40
0.0
41
0.0
42
0.0
10
69.609001159668
20
76.9599990844727
40
0.0
41
0.0
42
0.0
10
69.5037002563477
20
76.9440002441406
40
0.0
41
0.0
42
0.0
10
69.2751007080078
20
76.9999008178711
40
0.0
41
0.0
42
0.0
10
69.0092010498047
20
77.1122970581055
40
0.0
41
0.0
42
0.0
10
68.5054016113281
20
77.5031967163086
40
0.0
41
0.0
42
0.0
10
68.0671005249023
20
78.0058975219727
40
0.0
41
0.0
42
0.0
10
68.0056991577148
20
78.0734024047852
40
0.0
41
0.0
42
0.0
10
67.7381973266602
20
78.272102355957
40
0.0
41
0.0
42
0.0
10
67.5323028564453
20
78.4382019042969
40
0.0
41
0.0
42
0.0
10
67.5098037719727
20
78.4619979858398
40
0.0
41
0.0
42
0.0
10
67.216796875
20
78.4990997314453
40
0.0
41
0.0
42
0.0
10
67.0467987060547
20
78.5169982910156
40
0.0
41
0.0
42
0.0
10
67.0108032226562
20
78.5168991088867
40
0.0
41
0.0
42
0.0
10
66.9877014160156
20
78.5105972290039
40
0.0
41
0.0
42
0.0
10
66.9705963134766
20
78.5017013549805
40
0.0
41
0.0
42
0.0
10
66.8594970703125
20
78.4309005737305
40
0.0
41
0.0
42
0.0
10
66.802001953125
20
78.4018020629883
40
0.0
41
0.0
42
0.0
10
66.488899230957
20
78.3358001708984
40
0.0
41
0.0
42
0.0
10
66.3066024780273
20
78.196403503418
40
0.0
41
0.0
42
0.0
10
65.992301940918
20
78.0183029174805
40
0.0
41
0.0
42
0.0
10
65.9770965576172
20
78.0046997070312
40
0.0
41
0.0
42
0.0
10
65.6661987304688
20
77.6905975341797
40
0.0
41
0.0
42
0.0
10
65.6314010620117
20
77.6513977050781
40
0.0
41
0.0
42
0.0
10
65.5162963867188
20
77.5086975097656
40
0.0
41
0.0
42
0.0
10
65.4990005493164
20
77.4728012084961
40
0.0
41
0.0
42
0.0
10
65.4496002197266
20
77.3583984375
40
0.0
41
0.0
42
0.0
10
65.265998840332
20
77.0130996704102
40
0.0
41
0.0
42
0.0
10
65.2046966552734
20
76.6622009277344
40
0.0
41
0.0
42
0.0
10
65.1917037963867
20
76.5189971923828
40
0.0
41
0.0
42
0.0
10
65.1915969848633
20
76.481201171875
40
0.0
41
0.0
42
0.0
10
65.2354965209961
20
76.1280975341797
40
0.0
41
0.0
42
0.0
10
65.2615966796875
20
75.9857025146484
40
0.0
41
0.0
42
0.0
210
0.0
220
0.0
230
1.0
0
LWPOLYLINE
5
25
330
1C
100
AcDbEntity
67
0
8
0
62
256
6
ByLayer
370
-1
48
1.0
60
0
100
AcDbPolyline
90
431
70
1
38
0.0
39
0.0
10
70.6325988769531
20
83.5056991577148
40
0.0
41
0.0
42
0.0
10
70.673698425293
20
83.5007019042969
40
0.0
41
0.0
42
0.0
10
70.9835968017578
20
83.4518966674805
40
0.0
41
0.0
42
0.0
10
71.1312026977539
20
83.4225997924805
40
0.0
41
0.0
42
0.0
10
71.4878005981445
20
83.2682037353516
40
0.0
41
0.0
42
0.0
10
71.6352005004883
20
83.2128982543945
40
0.0
41
0.0
42
0.0
10
71.8361968994141
20
83.060302734375
40
0.0
41
0.0
42
0.0
10
71.9385986328125
20
82.9937973022461
40
0.0
41
0.0
42
0.0
10
71.9981002807617
20
82.8404006958008
40
0.0
41
0.0
42
0.0
10
72.1716995239258
20
82.4865036010742
40
0.0
41
0.0
42
0.0
10
72.1642990112305
20
82.1830978393555
40
0.0
41
0.0
42
0.0
10
72.1648025512695
20
82.0175018310547
40
0.0
41
0.0
42
0.0
10
72.1194000244141
20
81.5190963745117
40
0.0
41
0.0
42
0.0
10
72.1250991821289
20
81.1119995117188
40
0.0
41
0.0
42
0.0
10
72.1246032714844
20
80.9825973510742
40
0.0
41
0.0
42
0.0
10
72.168098449707
20
80.817497253418
40
0.0
41
0.0
42
0.0
10
72.2602005004883
20
80.4908981323242
40
0.0
41
0.0
42
0.0
10
72.5282974243164
20
80.2220993041992
40
0.0
41
0.0
42
0.0
10
72.5973968505859
20
80.135498046875
40
0.0
41
0.0
42
0.0
10
72.6540985107422
20
79.989501953125
40
0.0
41
0.0
42
0.0
10
72.6829986572266
20
79.9445037841797
40
0.0
41
0.0
42
0.0
10
72.9922027587891
20
79.7296981811523
40
0.0
41
0.0
42
0.0
10
73.1706008911133
20
79.5964965820312
40
0.0
41
0.0
42
0.0
10
73.2313003540039
20
79.4900970458984
40
0.0
41
0.0
42
0.0
10
73.3292999267578
20
79.307502746582
40
0.0
41
0.0
42
0.0
10
73.3592987060547
20
79.2769012451172
40
0.0
41
0.0
42
0.0
10
73.4927978515625
20
79.1656036376953
40
0.0
41
0.0
42
0.0
10
73.7302017211914
20
78.9937973022461
40
0.0
41
0.0
42
0.0
10
73.7809982299805
20
78.8865966796875
40
0.0
41
0.0
42
0.0
10
73.8595962524414
20
78.627799987793
40
0.0
41
0.0
42
0.0
10
73.885498046875
20
78.5805969238281
40
0.0
41
0.0
42
0.0
10
73.9234008789062
20
78.4845962524414
40
0.0
41
0.0
42
0.0
10
73.9518966674805
20
78.0544967651367
40
0.0
41
0.0
42
0.0
10
73.9669036865234
20
77.9832992553711
40
0.0
41
0.0
42
0.0
10
74.0005035400391
20
77.6773986816406
40
0.0
41
0.0
42
0.0
10
74.0391998291016
20
77.5745010375977
40
0.0
41
0.0
42
0.0
10
74.0216979980469
20
77.5167999267578
40
0.0
41
0.0
42
0.0
10
74.021598815918
20
77.4860992431641
40
0.0
41
0.0
42
0.0
10
74.084602355957
20
77.3887023925781
40
0.0
41
0.0
42
0.0
10
74.119499206543
20
77.2997970581055
40
0.0
41
0.0
42
0.0
10
74.1461029052734
20
76.9835968017578
40
0.0
41
0.0
42
0.0
10
74.2321014404297
20
76.6720962524414
40
0.0
41
0.0
42
0.0
10
74.2494964599609
20
76.6340026855469
40
0.0
41
0.0
42
0.0
10
74.3190994262695
20
76.4935989379883
40
0.0
41
0.0
42
0.0
10
74.3635025024414
20
76.4591979980469
40
0.0
41
0.0
42
0.0
10
74.4886016845703
20
76.3342971801758
40
0.0
41
0.0
42
0.0
10
74.5161972045898
20
76.3342971801758
40
0.0
41
0.0
42
0.0
10
74.6101989746094
20
76.3687973022461
40
0.0
41
0.0
42
0.0
10
74.8337020874023
20
76.4934997558594
40
0.0
41
0.0
42
0.0
10
74.8920974731445
20
76.8019027709961
40
0.0
41
0.0
42
0.0
10
74.9869003295898
20
76.9850997924805
40
0.0
41
0.0
42
0.0
10
74.9868011474609
20
77.0192031860352
40
0.0
41
0.0
42
0.0
10
74.9660034179688
20
77.3039016723633
40
0.0
41
0.0
42
0.0
10
74.9077987670898
20
77.5151977539062
40
0.0
41
0.0
42
0.0
10
74.8706970214844
20
77.714599609375
40
0.0
41
0.0
42
0.0
10
74.7413024902344
20
78.0137023925781
40
0.0
41
0.0
42
0.0
10
74.7274017333984
20
78.0848007202148
40
0.0
41
0.0
42
0.0
10
74.6846008300781
20
78.2237014770508
40
0.0
41
0.0
42
0.0
10
74.6585006713867
20
78.3380966186523
40
0.0
41
0.0
42
0.0
10
74.5947036743164
20
78.5158004760742
40
0.0
41
0.0
42
0.0
10
74.572998046875
20
78.9319000244141
40
0.0
41
0.0
42
0.0
10
74.5662002563477
20
78.9925994873047
40
0.0
41
0.0
42
0.0
10
74.6605987548828
20
79.2985992431641
40
0.0
41
0.0
42
0.0
10
74.6696014404297
20
79.4821014404297
40
0.0
41
0.0
42
0.0
10
74.6986999511719
20
79.6716003417969
40
0.0
41
0.0
42
0.0
10
74.8638000488281
20
79.9898986816406
40
0.0
41
0.0
42
0.0
10
74.9900970458984
20
80.2153015136719
40
0.0
41
0.0
42
0.0
10
75.013298034668
20
80.3935012817383
40
0.0
41
0.0
42
0.0
10
75.0810012817383
20
80.4865036010742
40
0.0
41
0.0
42
0.0
10
75.0770034790039
20
80.6323013305664
40
0.0
41
0.0
42
0.0
10
75.2431030273438
20
80.9853973388672
40
0.0
41
0.0
42
0.0
10
75.2677993774414
20
81.3348007202148
40
0.0
41
0.0
42
0.0
10
75.2677993774414
20
81.3720016479492
40
0.0
41
0.0
42
0.0
10
75.2263031005859
20
81.5136032104492
40
0.0
41
0.0
42
0.0
10
75.1227035522461
20
81.8180999755859
40
0.0
41
0.0
42
0.0
10
75.0354995727539
20
82.0102005004883
40
0.0
41
0.0
42
0.0
10
75.0016021728516
20
82.068000793457
40
0.0
41
0.0
42
0.0
10
74.8175964355469
20
82.4091033935547
40
0.0
41
0.0
42
0.0
10
74.7581024169922
20
82.5095977783203
40
0.0
41
0.0
42
0.0
10
74.5858993530273
20
82.8279037475586
40
0.0
41
0.0
42
0.0
10
74.5309982299805
20
83.0151977539062
40
0.0
41
0.0
42
0.0
10
74.510498046875
20
83.1349029541016
40
0.0
41
0.0
42
0.0
10
74.5103988647461
20
83.4879989624023
40
0.0
41
0.0
42
0.0
10
74.6455993652344
20
83.6377029418945
40
0.0
41
0.0
42
0.0
10
74.6694030761719
20
83.6748962402344
40
0.0
41
0.0
42
0.0
10
74.8068008422852
20
83.9922027587891
40
0.0
41
0.0
42
0.0
10
74.9583969116211
20
84.1371994018555
40
0.0
41
0.0
42
0.0
10
75.0082015991211
20
84.1729965209961
40
0.0
41
0.0
42
0.0
10
75.1930999755859
20
84.2910995483398
40
0.0
41
0.0
42
0.0
10
75.3714981079102
20
84.4217987060547
40
0.0
41
0.0
42
0.0
10
75.4661026000977
20
84.4972991943359
40
0.0
41
0.0
42
0.0
10
75.5102996826172
20
84.5234985351562
40
0.0
41
0.0
42
0.0
10
75.5850982666016
20
84.556999206543
40
0.0
41
0.0
42
0.0
10
75.6971969604492
20
84.6029968261719
40
0.0
41
0.0
42
0.0
10
76.0148010253906
20
84.7258987426758
40
0.0
41
0.0
42
0.0
10
76.3318023681641
20
84.7654037475586
40
0.0
41
0.0
42
0.0
10
76.5003967285156
20
84.7962036132812
40
0.0
41
0.0
42
0.0
10
76.7976989746094
20
84.7443008422852
40
0.0
41
0.0
42
0.0
10
76.9860000610352
20
84.7270965576172
40
0.0
41
0.0
42
0.0
10
77.2974014282227
20
84.5615997314453
40
0.0
41
0.0
42
0.0
10
77.442497253418
20
84.4990005493164
40
0.0
41
0.0
42
0.0
10
77.4912033081055
20
84.475700378418
40
0.0
41
0.0
42
0.0
10
77.6569976806641
20
84.3422012329102
40
0.0
41
0.0
42
0.0
10
78.0085983276367
20
83.9927978515625
40
0.0
41
0.0
42
0.0
10
78.2105026245117
20
83.6364974975586
40
0.0
41
0.0
42
0.0
10
78.3233032226562
20
83.488899230957
40
0.0
41
0.0
42
0.0
10
78.3988037109375
20
83.1318969726562
40
0.0
41
0.0
42
0.0
10
78.4184036254883
20
83.092903137207
40
0.0
41
0.0
42
0.0
10
78.4796981811523
20
82.9969024658203
40
0.0
41
0.0
42
0.0
10
78.4637985229492
20
82.9511032104492
40
0.0
41
0.0
42
0.0
10
78.408203125
20
82.5099029541016
40
0.0
41
0.0
42
0.0
10
78.3354034423828
20
82.4409027099609
40
0.0
41
0.0
42
0.0
10
77.9952011108398
20
82.0193023681641
40
0.0
41
0.0
42
0.0
10
77.4940032958984
20
81.5820007324219
40
0.0
41
0.0
42
0.0
10
77.4115982055664
20
81.5063018798828
40
0.0
41
0.0
42
0.0
10
77.3879013061523
20
81.4693984985352
40
0.0
41
0.0
42
0.0
10
77.2074966430664
20
81.2182006835938
40
0.0
41
0.0
42
0.0
10
77.0451965332031
20
81.0093002319336
40
0.0
41
0.0
42
0.0
10
76.9999008178711
20
80.9020004272461
40
0.0
41
0.0
42
0.0
10
76.9058990478516
20
80.5174026489258
40
0.0
41
0.0
42
0.0
10
76.9057998657227
20
80.4814987182617
40
0.0
41
0.0
42
0.0
10
76.9349975585938
20
80.2897033691406
40
0.0
41
0.0
42
0.0
10
76.902702331543
20
80.0160980224609
40
0.0
41
0.0
42
0.0
10
76.8656997680664
20
79.8722991943359
40
0.0
41
0.0
42
0.0
10
76.8656005859375
20
79.8361968994141
40
0.0
41
0.0
42
0.0
10
76.8711013793945
20
79.7913970947266
40
0.0
41
0.0
42
0.0
10
76.9248962402344
20
79.4830017089844
40
0.0
41
0.0
42
0.0
10
76.9589004516602
20
79.1910018920898
40
0.0
41
0.0
42
0.0
10
76.913200378418
20
79.0131988525391
40
0.0
41
0.0
42
0.0
10
76.8367004394531
20
78.8307037353516
40
0.0
41
0.0
42
0.0
10
76.8366012573242
20
78.7954025268555
40
0.0
41
0.0
42
0.0
10
76.8479995727539
20
78.5117034912109
40
0.0
41
0.0
42
0.0
10
76.5263977050781
20
78.0391006469727
40
0.0
41
0.0
42
0.0
10
76.5261993408203
20
77.9871978759766
40
0.0
41
0.0
42
0.0
10
76.4918975830078
20
77.9871978759766
40
0.0
41
0.0
42
0.0
10
76.4113006591797
20
77.850700378418
40
0.0
41
0.0
42
0.0
10
76.282600402832
20
77.6925964355469
40
0.0
41
0.0
42
0.0
10
76.1832962036133
20
77.5385971069336
40
0.0
41
0.0
42
0.0
10
76.152702331543
20
77.5044021606445
40
0.0
41
0.0
42
0.0
10
75.9932022094727
20
77.3853988647461
40
0.0
41
0.0
42
0.0
10
75.9720993041992
20
77.3667984008789
40
0.0
41
0.0
42
0.0
10
75.8557968139648
20
77.1949005126953
40
0.0
41
0.0
42
0.0
10
75.7794036865234
20
77.0130004882812
40
0.0
41
0.0
42
0.0
10
75.6886978149414
20
76.7006988525391
40
0.0
41
0.0
42
0.0
10
75.6839981079102
20
76.6628036499023
40
0.0
41
0.0
42
0.0
10
75.6717987060547
20
76.5204010009766
40
0.0
41
0.0
42
0.0
10
75.6717987060547
20
76.4873962402344
40
0.0
41
0.0
42
0.0
10
75.7850036621094
20
76.3492965698242
40
0.0
41
0.0
42
0.0
10
75.9890975952148
20
76.1292037963867
40
0.0
41
0.0
42
0.0
10
76.0145034790039
20
76.1290969848633
40
0.0
41
0.0
42
0.0
10
76.1925964355469
20
76.2276992797852
40
0.0
41
0.0
42
0.0
10
76.4162979125977
20
76.4308013916016
40
0.0
41
0.0
42
0.0
10
76.4872970581055
20
76.4934997558594
40
0.0
41
0.0
42
0.0
10
76.5379028320312
20
76.5804977416992
40
0.0
41
0.0
42
0.0
10
76.6829986572266
20
76.8074035644531
40
0.0
41
0.0
42
0.0
10
76.8354034423828
20
76.991096496582
40
0.0
41
0.0
42
0.0
10
77.0011978149414
20
77.3676986694336
40
0.0
41
0.0
42
0.0
10
77.0177001953125
20
77.3955001831055
40
0.0
41
0.0
42
0.0
10
77.0837020874023
20
77.4918975830078
40
0.0
41
0.0
42
0.0
10
77.2723999023438
20
77.761100769043
40
0.0
41
0.0
42
0.0
10
77.3639984130859
20
77.9841003417969
40
0.0
41
0.0
42
0.0
10
77.3639984130859
20
78.1296997070312
40
0.0
41
0.0
42
0.0
10
77.4826965332031
20
78.0980987548828
40
0.0
41
0.0
42
0.0
10
77.515998840332
20
78.0981979370117
40
0.0
41
0.0
42
0.0
10
77.5865020751953
20
78.1253967285156
40
0.0
41
0.0
42
0.0
10
77.8283996582031
20
78.313102722168
40
0.0
41
0.0
42
0.0
10
77.9703979492188
20
78.3757019042969
40
0.0
41
0.0
42
0.0
10
78.0059967041016
20
78.4121017456055
40
0.0
41
0.0
42
0.0
10
78.117301940918
20
78.4971008300781
40
0.0
41
0.0
42
0.0
10
78.1737976074219
20
78.5335998535156
40
0.0
41
0.0
42
0.0
10
78.1948013305664
20
78.5510025024414
40
0.0
41
0.0
42
0.0
10
78.5141983032227
20
78.6491012573242
40
0.0
41
0.0
42
0.0
10
78.8265991210938
20
78.7332000732422
40
0.0
41
0.0
42
0.0
10
78.8628997802734
20
78.7552032470703
40
0.0
41
0.0
42
0.0
10
79.0063018798828
20
78.8707962036133
40
0.0
41
0.0
42
0.0
10
79.0263977050781
20
78.8890991210938
40
0.0
41
0.0
42
0.0
10
79.3227996826172
20
78.9974975585938
40
0.0
41
0.0
42
0.0
10
79.4282989501953
20
79.1408996582031
40
0.0
41
0.0
42
0.0
10
79.4852981567383
20
79.1738967895508
40
0.0
41
0.0
42
0.0
10
79.5044021606445
20
79.1966018676758
40
0.0
41
0.0
42
0.0
10
79.7932968139648
20
79.4924011230469
40
0.0
41
0.0
42
0.0
10
79.8160018920898
20
79.5362014770508
40
0.0
41
0.0
42
0.0
10
79.8563995361328
20
79.6333999633789
40
0.0
41
0.0
42
0.0
10
79.8962020874023
20
79.7188034057617
40
0.0
41
0.0
42
0.0
10
79.9970016479492
20
79.9866027832031
40
0.0
41
0.0
42
0.0
10
80.1435012817383
20
80.486198425293
40
0.0
41
0.0
42
0.0
10
80.3089981079102
20
80.9886016845703
40
0.0
41
0.0
42
0.0
10
80.347297668457
20
81.0546035766602
40
0.0
41
0.0
42
0.0
10
80.3585968017578
20
81.0774002075195
40
0.0
41
0.0
42
0.0
10
80.5075988769531
20
81.1782989501953
40
0.0
41
0.0
42
0.0
10
80.8638000488281
20
81.4573974609375
40
0.0
41
0.0
42
0.0
10
81.0044021606445
20
81.4760971069336
40
0.0
41
0.0
42
0.0
10
81.1658020019531
20
81.4633026123047
40
0.0
41
0.0
42
0.0
10
81.2037963867188
20
81.4632034301758
40
0.0
41
0.0
42
0.0
10
81.4981994628906
20
81.4957962036133
40
0.0
41
0.0
42
0.0
10
81.6707000732422
20
81.472297668457
40
0.0
41
0.0
42
0.0
10
81.7990036010742
20
81.4525985717773
40
0.0
41
0.0
42
0.0
10
81.986198425293
20
81.4077987670898
40
0.0
41
0.0
42
0.0
10
82.3028030395508
20
81.284797668457
40
0.0
41
0.0
42
0.0
10
82.4897994995117
20
81.2076034545898
40
0.0
41
0.0
42
0.0
10
82.7530975341797
20
81.0337982177734
40
0.0
41
0.0
42
0.0
10
82.8150024414062
20
80.9971008300781
40
0.0
41
0.0
42
0.0
10
82.9410018920898
20
80.8921966552734
40
0.0
41
0.0
42
0.0
10
82.9959030151367
20
80.8386993408203
40
0.0
41
0.0
42
0.0
10
83.1871032714844
20
80.5746994018555
40
0.0
41
0.0
42
0.0
10
83.2610015869141
20
80.4906005859375
40
0.0
41
0.0
42
0.0
10
83.3671035766602
20
80.1726989746094
40
0.0
41
0.0
42
0.0
10
83.4542007446289
20
79.9862976074219
40
0.0
41
0.0
42
0.0
10
83.4817962646484
20
79.8326034545898
40
0.0
41
0.0
42
0.0
10
83.5052032470703
20
79.5098037719727
40
0.0
41
0.0
42
0.0
10
83.5077972412109
20
79.4927978515625
40
0.0
41
0.0
42
0.0
10
83.50830078125
20
79.5185012817383
40
0.0
41
0.0
42
0.0
10
83.5028991699219
20
79.5522994995117
40
0.0
41
0.0
42
0.0
10
83.4776000976562
20
79.8996963500977
40
0.0
41
0.0
42
0.0
10
83.4571990966797
20
80.0134963989258
40
0.0
41
0.0
42
0.0
10
83.3900985717773
20
80.157096862793
40
0.0
41
0.0
42
0.0
10
83.2725982666016
20
80.5093002319336
40
0.0
41
0.0
42
0.0
10
83.2184982299805
20
80.57080078125
40
0.0
41
0.0
42
0.0
10
83.0038986206055
20
80.8668975830078
40
0.0
41
0.0
42
0.0
10
82.9460983276367
20
80.9233016967773
40
0.0
41
0.0
42
0.0
10
82.8507995605469
20
81.0027008056641
40
0.0
41
0.0
42
0.0
10
82.8041000366211
20
81.030403137207
40
0.0
41
0.0
42
0.0
10
82.5100021362305
20
81.2244033813477
40
0.0
41
0.0
42
0.0
10
82.3671035766602
20
81.2835006713867
40
0.0
41
0.0
42
0.0
10
82.0137023925781
20
81.4207992553711
40
0.0
41
0.0
42
0.0
10
81.8709030151367
20
81.4550018310547
40
0.0
41
0.0
42
0.0
10
81.7285995483398
20
81.4768981933594
40
0.0
41
0.0
42
0.0
10
81.5185012817383
20
81.5056991577148
40
0.0
41
0.0
42
0.0
10
81.4811019897461
20
81.5055999755859
40
0.0
41
0.0
42
0.0
10
81.1420974731445
20
81.467903137207
40
0.0
41
0.0
42
0.0
10
81.0190963745117
20
81.477897644043
40
0.0
41
0.0
42
0.0
10
80.9813995361328
20
81.4777984619141
40
0.0
41
0.0
42
0.0
10
80.8382034301758
20
81.4587020874023
40
0.0
41
0.0
42
0.0
10
80.8038024902344
20
81.4525985717773
40
0.0
41
0.0
42
0.0
10
80.492301940918
20
81.2086029052734
40
0.0
41
0.0
42
0.0
10
80.3114013671875
20
81.0863037109375
40
0.0
41
0.0
42
0.0
10
80.3021011352539
20
81.0668029785156
40
0.0
41
0.0
42
0.0
10
80.2696990966797
20
81.0112991333008
40
0.0
41
0.0
42
0.0
10
80.106201171875
20
80.5137023925781
40
0.0
41
0.0
42
0.0
10
79.9999008178711
20
80.1503982543945
40
0.0
41
0.0
42
0.0
10
79.973503112793
20
80.073600769043
40
0.0
41
0.0
42
0.0
10
79.9567031860352
20
80.0133972167969
40
0.0
41
0.0
42
0.0
10
79.866096496582
20
79.7729034423828
40
0.0
41
0.0
42
0.0
10
79.8304977416992
20
79.6965026855469
40
0.0
41
0.0
42
0.0
10
79.7785034179688
20
79.5716018676758
40
0.0
41
0.0
42
0.0
10
79.7455978393555
20
79.5074996948242
40
0.0
41
0.0
42
0.0
10
79.4954986572266
20
79.2516021728516
40
0.0
41
0.0
42
0.0
10
79.4669036865234
20
79.2174987792969
40
0.0
41
0.0
42
0.0
10
79.4175033569336
20
79.1889038085938
40
0.0
41
0.0
42
0.0
10
79.280403137207
20
79.0022964477539
40
0.0
41
0.0
42
0.0
10
79.0133972167969
20
78.9047012329102
40
0.0
41
0.0
42
0.0
10
78.9935989379883
20
78.8868026733398
40
0.0
41
0.0
42
0.0
10
78.8300018310547
20
78.7548980712891
40
0.0
41
0.0
42
0.0
10
78.4858016967773
20
78.6623992919922
40
0.0
41
0.0
42
0.0
10
78.1351013183594
20
78.5547027587891
40
0.0
41
0.0
42
0.0
10
78.1227035522461
20
78.5444030761719
40
0.0
41
0.0
42
0.0
10
78.0581970214844
20
78.502799987793
40
0.0
41
0.0
42
0.0
10
77.993896484375
20
78.4535980224609
40
0.0
41
0.0
42
0.0
10
77.9694976806641
20
78.4284973144531
40
0.0
41
0.0
42
0.0
10
77.8066024780273
20
78.3567962646484
40
0.0
41
0.0
42
0.0
10
77.6163024902344
20
78.209098815918
40
0.0
41
0.0
42
0.0
10
77.4974975585938
20
78.1632995605469
40
0.0
41
0.0
42
0.0
10
77.3317031860352
20
78.2072982788086
40
0.0
41
0.0
42
0.0
10
77.2958984375
20
78.2194976806641
40
0.0
41
0.0
42
0.0
10
77.279899597168
20
78.219596862793
40
0.0
41
0.0
42
0.0
10
77.2779998779297
20
78.0158004760742
40
0.0
41
0.0
42
0.0
10
77.1242980957031
20
77.6355972290039
40
0.0
41
0.0
42
0.0
10
77.030403137207
20
77.5015029907227
40
0.0
41
0.0
42
0.0
10
76.9983978271484
20
77.4532012939453
40
0.0
41
0.0
42
0.0
10
76.8026962280273
20
77.0087966918945
40
0.0
41
0.0
42
0.0
10
76.681396484375
20
76.8626022338867
40
0.0
41
0.0
42
0.0
10
76.5693969726562
20
76.6874008178711
40
0.0
41
0.0
42
0.0
10
76.4980010986328
20
76.5624008178711
40
0.0
41
0.0
42
0.0
10
76.463996887207
20
76.5063018798828
40
0.0
41
0.0
42
0.0
10
76.3155975341797
20
76.3755035400391
40
0.0
41
0.0
42
0.0
10
76.1372985839844
20
76.2135009765625
40
0.0
41
0.0
42
0.0
10
76.002197265625
20
76.1387023925781
40
0.0
41
0.0
42
0.0
10
75.7781982421875
20
76.3803024291992
40
0.0
41
0.0
42
0.0
10
75.6735992431641
20
76.5094985961914
40
0.0
41
0.0
42
0.0
10
75.6844024658203
20
76.6359024047852
40
0.0
41
0.0
42
0.0
10
75.7864990234375
20
76.9869995117188
40
0.0
41
0.0
42
0.0
10
75.8487014770508
20
77.1350021362305
40
0.0
41
0.0
42
0.0
10
75.9854965209961
20
77.3370971679688
40
0.0
41
0.0
42
0.0
10
76.0066986083984
20
77.3559036254883
40
0.0
41
0.0
42
0.0
10
76.1940002441406
20
77.4954986572266
40
0.0
41
0.0
42
0.0
10
76.2135009765625
20
77.5173034667969
40
0.0
41
0.0
42
0.0
10
76.2908020019531
20
77.6372985839844
40
0.0
41
0.0
42
0.0
10
76.435302734375
20
77.8147964477539
40
0.0
41
0.0
42
0.0
10
76.5010986328125
20
77.9260025024414
40
0.0
41
0.0
42
0.0
10
76.5661010742188
20
77.869499206543
40
0.0
41
0.0
42
0.0
10
76.780403137207
20
77.7072982788086
40
0.0
41
0.0
42
0.0
10
76.7923965454102
20
77.7073974609375
40
0.0
41
0.0
42
0.0
10
76.7923965454102
20
77.7211990356445
40
0.0
41
0.0
42
0.0
10
76.6377029418945
20
78.0146026611328
40
0.0
41
0.0
42
0.0
10
76.6362991333008
20
78.1240005493164
40
0.0
41
0.0
42
0.0
10
76.8828964233398
20
78.4863967895508
40
0.0
41
0.0
42
0.0
10
76.8827972412109
20
78.5195007324219
40
0.0
41
0.0
42
0.0
10
76.8699035644531
20
78.8423004150391
40
0.0
41
0.0
42
0.0
10
76.9304962158203
20
78.986701965332
40
0.0
41
0.0
42
0.0
10
76.966796875
20
79.1276016235352
40
0.0
41
0.0
42
0.0
10
76.9666976928711
20
79.1636962890625
40
0.0
41
0.0
42
0.0
10
76.9254989624023
20
79.5168991088867
40
0.0
41
0.0
42
0.0
10
76.8732986450195
20
79.8171005249023
40
0.0
41
0.0
42
0.0
10
76.9162979125977
20
79.9838027954102
40
0.0
41
0.0
42
0.0
10
76.9600982666016
20
80.3536987304688
40
0.0
41
0.0
42
0.0
10
76.9599990844727
20
80.3908004760742
40
0.0
41
0.0
42
0.0
10
76.9440002441406
20
80.4962005615234
40
0.0
41
0.0
42
0.0
10
76.9999008178711
20
80.7247009277344
40
0.0
41
0.0
42
0.0
10
77.1122970581055
20
80.9906005859375
40
0.0
41
0.0
42
0.0
10
77.503303527832
20
81.4944000244141
40
0.0
41
0.0
42
0.0
10
78.0059967041016
20
81.9326019287109
40
0.0
41
0.0
42
0.0
10
78.0735015869141
20
81.9941024780273
40
0.0
41
0.0
42
0.0
10
78.2722015380859
20
82.2615966796875
40
0.0
41
0.0
42
0.0
10
78.4383010864258
20
82.467399597168
40
0.0
41
0.0
42
0.0
10
78.4619979858398
20
82.4899978637695
40
0.0
41
0.0
42
0.0
10
78.4990997314453
20
82.7829971313477
40
0.0
41
0.0
42
0.0
10
78.5169982910156
20
82.9530029296875
40
0.0
41
0.0
42
0.0
10
78.5168991088867
20
82.9890975952148
40
0.0
41
0.0
42
0.0
10
78.5106964111328
20
83.0121994018555
40
0.0
41
0.0
42
0.0
10
78.5017013549805
20
83.0291976928711
40
0.0
41
0.0
42
0.0
10
78.4308013916016
20
83.1402969360352
40
0.0
41
0.0
42
0.0
10
78.4018020629883
20
83.1978988647461
40
0.0
41
0.0
42
0.0
10
78.3357009887695
20
83.5110015869141
40
0.0
41
0.0
42
0.0
10
78.1962966918945
20
83.6932983398438
40
0.0
41
0.0
42
0.0
10
78.0182037353516
20
84.0074996948242
40
0.0
41
0.0
42
0.0
10
78.0046997070312
20
84.0225982666016
40
0.0
41
0.0
42
0.0
10
77.6904983520508
20
84.3335037231445
40
0.0
41
0.0
42
0.0
10
77.6512985229492
20
84.3684005737305
40
0.0
41
0.0
42
0.0
10
77.507698059082
20
84.484001159668
40
0.0
41
0.0
42
0.0
10
77.5027008056641
20
84.4870986938477
40
0.0
41
0.0
42
0.0
10
77.3583984375
20
84.5502014160156
40
0.0
41
0.0
42
0.0
10
77.013801574707
20
84.7332000732422
40
0.0
41
0.0
42
0.0
10
76.872200012207
20
84.7462005615234
40
0.0
41
0.0
42
0.0
10
76.5180969238281
20
84.8081970214844
40
0.0
41
0.0
42
0.0
10
76.4819030761719
20
84.8080978393555
40
0.0
41
0.0
42
0.0
10
76.3382034301758
20
84.7817001342773
40
0.0
41
0.0
42
0.0
10
75.9850997924805
20
84.7378005981445
40
0.0
41
0.0
42
0.0
10
75.632698059082
20
84.6014022827148
40
0.0
41
0.0
42
0.0
10
75.5457000732422
20
84.565803527832
40
0.0
41
0.0
42
0.0
10
75.4896011352539
20
84.5406036376953
40
0.0
41
0.0
42
0.0
10
75.4256973266602
20
84.5026016235352
40
0.0
41
0.0
42
0.0
10
75.2781982421875
20
84.3848037719727
40
0.0
41
0.0
42
0.0
10
75.1368026733398
20
84.2813034057617
40
0.0
41
0.0
42
0.0
10
74.99169921875
20
84.1887969970703
40
0.0
41
0.0
42
0.0
10
74.9557037353516
20
84.1629028320312
40
0.0
41
0.0
42
0.0
10
74.7936019897461
20
84.007698059082
40
0.0
41
0.0
42
0.0
10
74.64990234375
20
83.6757965087891
40
0.0
41
0.0
42
0.0
10
74.5018005371094
20
83.5119018554688
40
0.0
41
0.0
42
0.0
10
74.5018997192383
20
82.9928970336914
40
0.0
41
0.0
42
0.0
10
74.5034027099609
20
82.9848022460938
40
0.0
41
0.0
42
0.0
10
74.5711975097656
20
82.7531967163086
40
0.0
41
0.0
42
0.0
10
74.7135009765625
20
82.4903030395508
40
0.0
41
0.0
42
0.0
10
74.7633972167969
20
82.4057998657227
40
0.0
41
0.0
42
0.0
10
74.9875030517578
20
81.9891967773438
40
0.0
41
0.0
42
0.0
10
75.1004028320312
20
81.7399978637695
40
0.0
41
0.0
42
0.0
10
75.1866989135742
20
81.4862976074219
40
0.0
41
0.0
42
0.0
10
75.2398986816406
20
81.3057022094727
40
0.0
41
0.0
42
0.0
10
75.2193984985352
20
81.0146026611328
40
0.0
41
0.0
42
0.0
10
75.0716018676758
20
80.7003021240234
40
0.0
41
0.0
42
0.0
10
75.0715026855469
20
80.6652984619141
40
0.0
41
0.0
42
0.0
10
75.0772018432617
20
80.5115966796875
40
0.0
41
0.0
42
0.0
10
75.0137023925781
20
80.4243011474609
40
0.0
41
0.0
42
0.0
10
75.0121002197266
20
80.4184036254883
40
0.0
41
0.0
42
0.0
10
74.9926986694336
20
80.2708969116211
40
0.0
41
0.0
42
0.0
10
74.8466033935547
20
80.0100021362305
40
0.0
41
0.0
42
0.0
10
74.6641006469727
20
79.6584014892578
40
0.0
41
0.0
42
0.0
10
74.6425018310547
20
79.5177993774414
40
0.0
41
0.0
42
0.0
10
74.6352996826172
20
79.3712997436523
40
0.0
41
0.0
42
0.0
10
74.5260009765625
20
79.0167999267578
40
0.0
41
0.0
42
0.0
10
74.5259017944336
20
78.9811019897461
40
0.0
41
0.0
42
0.0
10
74.5296020507812
20
78.9478988647461
40
0.0
41
0.0
42
0.0
10
74.551399230957
20
78.5028991699219
40
0.0
41
0.0
42
0.0
10
74.553596496582
20
78.4848022460938
40
0.0
41
0.0
42
0.0
10
74.6244964599609
20
78.28759765625
40
0.0
41
0.0
42
0.0
10
74.6452026367188
20
78.1970977783203
40
0.0
41
0.0
42
0.0
10
74.693603515625
20
78.0400009155273
40
0.0
41
0.0
42
0.0
10
74.7040023803711
20
77.986198425293
40
0.0
41
0.0
42
0.0
10
74.8524017333984
20
77.6435012817383
40
0.0
41
0.0
42
0.0
10
74.8820037841797
20
77.4845962524414
40
0.0
41
0.0
42
0.0
10
74.9578018188477
20
77.2088012695312
40
0.0
41
0.0
42
0.0
10
74.972297668457
20
77.0105972290039
40
0.0
41
0.0
42
0.0
10
74.8986968994141
20
76.8679962158203
40
0.0
41
0.0
42
0.0
10
74.8302001953125
20
76.5064010620117
40
0.0
41
0.0
42
0.0
10
74.6118011474609
20
76.383903503418
40
0.0
41
0.0
42
0.0
10
74.5037994384766
20
76.3442001342773
40
0.0
41
0.0
42
0.0
10
74.3902969360352
20
76.4576034545898
40
0.0
41
0.0
42
0.0
10
74.3273010253906
20
76.5062026977539
40
0.0
41
0.0
42
0.0
10
74.2487030029297
20
76.6649017333984
40
0.0
41
0.0
42
0.0
10
74.1518020629883
20
77.0161972045898
40
0.0
41
0.0
42
0.0
10
74.1219024658203
20
77.3701019287109
40
0.0
41
0.0
42
0.0
10
74.097900390625
20
77.4312973022461
40
0.0
41
0.0
42
0.0
10
74.0510025024414
20
77.5038986206055
40
0.0
41
0.0
42
0.0
10
74.0958023071289
20
77.6507034301758
40
0.0
41
0.0
42
0.0
10
74.095703125
20
77.6836013793945
40
0.0
41
0.0
42
0.0
10
73.9992980957031
20
77.9403991699219
40
0.0
41
0.0
42
0.0
10
73.9908981323242
20
78.0166015625
40
0.0
41
0.0
42
0.0
10
73.9870986938477
20
78.0345001220703
40
0.0
41
0.0
42
0.0
10
73.9579010009766
20
78.50830078125
40
0.0
41
0.0
42
0.0
10
73.9358978271484
20
78.5639038085938
40
0.0
41
0.0
42
0.0
10
73.9212036132812
20
78.5910034179688
40
0.0
41
0.0
42
0.0
10
73.8290023803711
20
78.8945007324219
40
0.0
41
0.0
42
0.0
10
73.7760009765625
20
79.0059967041016
40
0.0
41
0.0
42
0.0
10
73.5070037841797
20
79.200798034668
40
0.0
41
0.0
42
0.0
10
73.3480987548828
20
79.3331985473633
40
0.0
41
0.0
42
0.0
10
73.3196029663086
20
79.3622970581055
40
0.0
41
0.0
42
0.0
10
73.2405014038086
20
79.5096969604492
40
0.0
41
0.0
42
0.0
10
73.1874008178711
20
79.6027984619141
40
0.0
41
0.0
42
0.0
10
73.1692962646484
20
79.6255035400391
40
0.0
41
0.0
42
0.0
10
73.0075988769531
20
79.7462997436523
40
0.0
41
0.0
42
0.0
10
72.7274017333984
20
79.940803527832
40
0.0
41
0.0
42
0.0
10
72.6828002929688
20
80.0103988647461
40
0.0
41
0.0
42
0.0
10
72.6112976074219
20
80.1942977905273
40
0.0
41
0.0
42
0.0
10
72.529296875
20
80.2970962524414
40
0.0
41
0.0
42
0.0
10
72.3179016113281
20
80.508903503418
40
0.0
41
0.0
42
0.0
10
72.244499206543
20
80.7695007324219
40
0.0
41
0.0
42
0.0
10
72.1796035766602
20
81.0167999267578
40
0.0
41
0.0
42
0.0
10
72.1800994873047
20
81.2009963989258
40
0.0
41
0.0
42
0.0
10
72.1756973266602
20
81.4866027832031
40
0.0
41
0.0
42
0.0
10
72.2204971313477
20
81.9809036254883
40
0.0
41
0.0
42
0.0
10
72.2198028564453
20
82.2060012817383
40
0.0
41
0.0
42
0.0
10
72.2264022827148
20
82.5152969360352
40
0.0
41
0.0
42
0.0
10
72.000602722168
20
82.9755020141602
40
0.0
41
0.0
42
0.0
10
71.9887008666992
20
83.0058975219727
40
0.0
41
0.0
42
0.0
10
71.869499206543
20
83.0832977294922
40
0.0
41
0.0
42
0.0
10
71.6947021484375
20
83.2161026000977
40
0.0
41
0.0
42
0.0
10
71.5121002197266
20
83.284797668457
40
0.0
41
0.0
42
0.0
10
71.1986999511719
20
83.4205017089844
40
0.0
41
0.0
42
0.0
10
71.0162963867188
20
83.4567031860352
40
0.0
41
0.0
42
0.0
10
70.7465972900391
20
83.4990997314453
40
0.0
41
0.0
42
0.0
10
70.703498840332
20
83.5045013427734
40
0.0
41
0.0
42
0.0
10
70.6325988769531
20
83.5056991577148
40
0.0
41
0.0
42
0.0
210
0.0
220
0.0
230
1.0
0
LWPOLYLINE
5
26
330
1C
100
AcDbEntity
67
0
8
0
62
256
6
ByLayer
370
-1
48
1.0
60
0
100
AcDbPolyline
90
434
70
1
38
0.0
39
0.0
10
83.5056991577148
20
79.3669967651367
40
0.0
41
0.0
42
0.0
10
83.5007019042969
20
79.3261032104492
40
0.0
41
0.0
42
0.0
10
83.4518966674805
20
79.0162963867188
40
0.0
41
0.0
42
0.0
10
83.4226989746094
20
78.8686981201172
40
0.0
41
0.0
42
0.0
10
83.2683029174805
20
78.5121002197266
40
0.0
41
0.0
42
0.0
10
83.2128982543945
20
78.3647003173828
40
0.0
41
0.0
42
0.0
10
83.0604019165039
20
78.1635971069336
40
0.0
41
0.0
42
0.0
10
82.993896484375
20
78.0612030029297
40
0.0
41
0.0
42
0.0
10
82.8383026123047
20
78.0007019042969
40
0.0
41
0.0
42
0.0
10
82.4849014282227
20
77.8273010253906
40
0.0
41
0.0
42
0.0
10
82.3425979614258
20
77.8267974853516
40
0.0
41
0.0
42
0.0
10
82.0186996459961
20
77.8348999023438
40
0.0
41
0.0
42
0.0
10
81.5189971923828
20
77.880500793457
40
0.0
41
0.0
42
0.0
10
81.3619995117188
20
77.8807983398438
40
0.0
41
0.0
42
0.0
10
80.9828033447266
20
77.8750991821289
40
0.0
41
0.0
42
0.0
10
80.817497253418
20
77.8315963745117
40
0.0
41
0.0
42
0.0
10
80.4908981323242
20
77.739501953125
40
0.0
41
0.0
42
0.0
10
80.2221984863281
20
77.4714965820312
40
0.0
41
0.0
42
0.0
10
80.1355972290039
20
77.4022979736328
40
0.0
41
0.0
42
0.0
10
79.989501953125
20
77.3455963134766
40
0.0
41
0.0
42
0.0
10
79.9445037841797
20
77.3168029785156
40
0.0
41
0.0
42
0.0
10
79.7274017333984
20
77.0043029785156
40
0.0
41
0.0
42
0.0
10
79.5966033935547
20
76.8291015625
40
0.0
41
0.0
42
0.0
10
79.4901962280273
20
76.7684020996094
40
0.0
41
0.0
42
0.0
10
79.307502746582
20
76.6705017089844
40
0.0
41
0.0
42
0.0
10
79.2769012451172
20
76.6405029296875
40
0.0
41
0.0
42
0.0
10
79.1657028198242
20
76.5070037841797
40
0.0
41
0.0
42
0.0
10
78.9952011108398
20
76.2714996337891
40
0.0
41
0.0
42
0.0
10
78.9555969238281
20
76.2406005859375
40
0.0
41
0.0
42
0.0
10
78.8401031494141
20
76.1856002807617
40
0.0
41
0.0
42
0.0
10
78.6884994506836
20
76.125602722168
40
0.0
41
0.0
42
0.0
10
78.4831008911133
20
76.0762023925781
40
0.0
41
0.0
42
0.0
10
78.0544967651367
20
76.0478973388672
40
0.0
41
0.0
42
0.0
10
77.9832992553711
20
76.0327987670898
40
0.0
41
0.0
42
0.0
10
77.6774978637695
20
75.999397277832
40
0.0
41
0.0
42
0.0
10
77.5744018554688
20
75.9605026245117
40
0.0
41
0.0
42
0.0
10
77.5167999267578
20
75.9783020019531
40
0.0
41
0.0
42
0.0
10
77.486198425293
20
75.9782028198242
40
0.0
41
0.0
42
0.0
10
77.388801574707
20
75.9151992797852
40
0.0
41
0.0
42
0.0
10
77.2997970581055
20
75.8802032470703
40
0.0
41
0.0
42
0.0
10
76.9857025146484
20
75.8536987304688
40
0.0
41
0.0
42
0.0
10
76.8099975585938
20
75.7666015625
40
0.0
41
0.0
42
0.0
10
76.492301940918
20
75.6789016723633
40
0.0
41
0.0
42
0.0
10
76.4591979980469
20
75.6361999511719
40
0.0
41
0.0
42
0.0
10
76.3342971801758
20
75.5112991333008
40
0.0
41
0.0
42
0.0
10
76.3341979980469
20
75.4837036132812
40
0.0
41
0.0
42
0.0
10
76.3686981201172
20
75.3896026611328
40
0.0
41
0.0
42
0.0
10
76.4934997558594
20
75.1660003662109
40
0.0
41
0.0
42
0.0
10
76.8018035888672
20
75.1074981689453
40
0.0
41
0.0
42
0.0
10
76.9850997924805
20
75.0130004882812
40
0.0
41
0.0
42
0.0
10
77.0192031860352
20
75.0129013061523
40
0.0
41
0.0
42
0.0
10
77.3039016723633
20
75.0337982177734
40
0.0
41
0.0
42
0.0
10
77.5151977539062
20
75.0919036865234
40
0.0
41
0.0
42
0.0
10
77.714599609375
20
75.1289978027344
40
0.0
41
0.0
42
0.0
10
78.0127029418945
20
75.2578964233398
40
0.0
41
0.0
42
0.0
10
78.1467971801758
20
75.2994003295898
40
0.0
41
0.0
42
0.0
10
78.2237014770508
20
75.315299987793
40
0.0
41
0.0
42
0.0
10
78.4449996948242
20
75.3887023925781
40
0.0
41
0.0
42
0.0
10
78.5170974731445
20
75.4050979614258
40
0.0
41
0.0
42
0.0
10
78.9319000244141
20
75.4266967773438
40
0.0
41
0.0
42
0.0
10
78.9925003051758
20
75.4335021972656
40
0.0
41
0.0
42
0.0
10
79.2985992431641
20
75.3391036987305
40
0.0
41
0.0
42
0.0
10
79.4854965209961
20
75.3299026489258
40
0.0
41
0.0
42
0.0
10
79.8014984130859
20
75.1660003662109
40
0.0
41
0.0
42
0.0
10
79.9869003295898
20
75.1376037597656
40
0.0
41
0.0
42
0.0
10
80.2153015136719
20
75.0095977783203
40
0.0
41
0.0
42
0.0
10
80.3934020996094
20
74.9863967895508
40
0.0
41
0.0
42
0.0
10
80.4906997680664
20
74.915901184082
40
0.0
41
0.0
42
0.0
10
80.839599609375
20
74.7518005371094
40
0.0
41
0.0
42
0.0
10
80.8746032714844
20
74.7517013549805
40
0.0
41
0.0
42
0.0
10
80.993896484375
20
74.7559967041016
40
0.0
41
0.0
42
0.0
10
81.3357009887695
20
74.7320022583008
40
0.0
41
0.0
42
0.0
10
81.3719024658203
20
74.7319030761719
40
0.0
41
0.0
42
0.0
10
81.5136032104492
20
74.7733993530273
40
0.0
41
0.0
42
0.0
10
81.8180999755859
20
74.8769989013672
40
0.0
41
0.0
42
0.0
10
82.0103988647461
20
74.9643020629883
40
0.0
41
0.0
42
0.0
10
82.252197265625
20
75.1036987304688
40
0.0
41
0.0
42
0.0
10
82.334098815918
20
75.1434020996094
40
0.0
41
0.0
42
0.0
10
82.4468994140625
20
75.2101974487305
40
0.0
41
0.0
42
0.0
10
82.5102996826172
20
75.2418975830078
40
0.0
41
0.0
42
0.0
10
82.8279037475586
20
75.4139022827148
40
0.0
41
0.0
42
0.0
10
83.0151977539062
20
75.4686965942383
40
0.0
41
0.0
42
0.0
10
83.1349029541016
20
75.4891967773438
40
0.0
41
0.0
42
0.0
10
83.4879989624023
20
75.4893035888672
40
0.0
41
0.0
42
0.0
10
83.6377029418945
20
75.3541030883789
40
0.0
41
0.0
42
0.0
10
83.6747970581055
20
75.3302993774414
40
0.0
41
0.0
42
0.0
10
83.9922027587891
20
75.193000793457
40
0.0
41
0.0
42
0.0
10
84.1371994018555
20
75.0413970947266
40
0.0
41
0.0
42
0.0
10
84.1729965209961
20
74.99169921875
40
0.0
41
0.0
42
0.0
10
84.2910995483398
20
74.8068008422852
40
0.0
41
0.0
42
0.0
10
84.4216995239258
20
74.628303527832
40
0.0
41
0.0
42
0.0
10
84.497200012207
20
74.5337982177734
40
0.0
41
0.0
42
0.0
10
84.5233993530273
20
74.4896011352539
40
0.0
41
0.0
42
0.0
10
84.556999206543
20
74.4147033691406
40
0.0
41
0.0
42
0.0
10
84.6029968261719
20
74.3026962280273
40
0.0
41
0.0
42
0.0
10
84.7258987426758
20
73.9850997924805
40
0.0
41
0.0
42
0.0
10
84.7652969360352
20
73.668098449707
40
0.0
41
0.0
42
0.0
10
84.7962036132812
20
73.4994964599609
40
0.0
41
0.0
42
0.0
10
84.7443008422852
20
73.2022018432617
40
0.0
41
0.0
42
0.0
10
84.7272033691406
20
73.013801574707
40
0.0
41
0.0
42
0.0
10
84.5616989135742
20
72.7024002075195
40
0.0
41
0.0
42
0.0
10
84.4990005493164
20
72.5571975708008
40
0.0
41
0.0
42
0.0
10
84.475700378418
20
72.5086975097656
40
0.0
41
0.0
42
0.0
10
84.3422012329102
20
72.3427963256836
40
0.0
41
0.0
42
0.0
10
83.9927978515625
20
71.991096496582
40
0.0
41
0.0
42
0.0
10
83.6364974975586
20
71.7891998291016
40
0.0
41
0.0
42
0.0
10
83.488899230957
20
71.676399230957
40
0.0
41
0.0
42
0.0
10
83.1320037841797
20
71.6008987426758
40
0.0
41
0.0
42
0.0
10
83.0930023193359
20
71.581298828125
40
0.0
41
0.0
42
0.0
10
82.9969024658203
20
71.5199966430664
40
0.0
41
0.0
42
0.0
10
82.9511032104492
20
71.5358963012695
40
0.0
41
0.0
42
0.0
10
82.5098037719727
20
71.5915985107422
40
0.0
41
0.0
42
0.0
10
82.440803527832
20
71.6642990112305
40
0.0
41
0.0
42
0.0
10
82.0192031860352
20
72.0046997070312
40
0.0
41
0.0
42
0.0
10
81.581901550293
20
72.5058975219727
40
0.0
41
0.0
42
0.0
10
81.5063018798828
20
72.5880966186523
40
0.0
41
0.0
42
0.0
10
81.4692993164062
20
72.6118011474609
40
0.0
41
0.0
42
0.0
10
81.2182006835938
20
72.7921981811523
40
0.0
41
0.0
42
0.0
10
81.0092010498047
20
72.9544982910156
40
0.0
41
0.0
42
0.0
10
80.9019012451172
20
72.9999008178711
40
0.0
41
0.0
42
0.0
10
80.5174026489258
20
73.0940017700195
40
0.0
41
0.0
42
0.0
10
80.4814987182617
20
73.0939025878906
40
0.0
41
0.0
42
0.0
10
80.2897033691406
20
73.064697265625
40
0.0
41
0.0
42
0.0
10
80.0160980224609
20
73.0970993041992
40
0.0
41
0.0
42
0.0
10
79.8722991943359
20
73.1342010498047
40
0.0
41
0.0
42
0.0
10
79.8361968994141
20
73.1341018676758
40
0.0
41
0.0
42
0.0
10
79.7979965209961
20
73.1296997070312
40
0.0
41
0.0
42
0.0
10
79.5029983520508
20
73.0782012939453
40
0.0
41
0.0
42
0.0
10
79.3322982788086
20
73.1222991943359
40
0.0
41
0.0
42
0.0
10
79.2962036132812
20
73.122200012207
40
0.0
41
0.0
42
0.0
10
79.0082015991211
20
73.0886001586914
40
0.0
41
0.0
42
0.0
10
78.8307037353516
20
73.163200378418
40
0.0
41
0.0
42
0.0
10
78.7954025268555
20
73.1631011962891
40
0.0
41
0.0
42
0.0
10
78.5115966796875
20
73.1517028808594
40
0.0
41
0.0
42
0.0
10
78.0390014648438
20
73.4732971191406
40
0.0
41
0.0
42
0.0
10
77.9871978759766
20
73.4736022949219
40
0.0
41
0.0
42
0.0
10
77.9870986938477
20
73.5078964233398
40
0.0
41
0.0
42
0.0
10
77.850700378418
20
73.5884017944336
40
0.0
41
0.0
42
0.0
10
77.6925964355469
20
73.7171020507812
40
0.0
41
0.0
42
0.0
10
77.5384979248047
20
73.8163986206055
40
0.0
41
0.0
42
0.0
10
77.5043029785156
20
73.8470993041992
40
0.0
41
0.0
42
0.0
10
77.3852996826172
20
74.0065994262695
40
0.0
41
0.0
42
0.0
10
77.3667984008789
20
74.0276031494141
40
0.0
41
0.0
42
0.0
10
77.1949005126953
20
74.1438980102539
40
0.0
41
0.0
42
0.0
10
77.0149002075195
20
74.2194976806641
40
0.0
41
0.0
42
0.0
10
76.8382034301758
20
74.2344970703125
40
0.0
41
0.0
42
0.0
10
76.5170974731445
20
74.3279037475586
40
0.0
41
0.0
42
0.0
10
76.4869003295898
20
74.3274993896484
40
0.0
41
0.0
42
0.0
10
76.3494033813477
20
74.2146987915039
40
0.0
41
0.0
42
0.0
10
76.1292037963867
20
74.0108032226562
40
0.0
41
0.0
42
0.0
10
76.1290969848633
20
73.9852981567383
40
0.0
41
0.0
42
0.0
10
76.2276000976562
20
73.8071975708008
40
0.0
41
0.0
42
0.0
10
76.4307022094727
20
73.5835037231445
40
0.0
41
0.0
42
0.0
10
76.4934005737305
20
73.5123977661133
40
0.0
41
0.0
42
0.0
10
76.5810012817383
20
73.4616012573242
40
0.0
41
0.0
42
0.0
10
76.9904022216797
20
73.1645965576172
40
0.0
41
0.0
42
0.0
10
77.3676986694336
20
72.9985961914062
40
0.0
41
0.0
42
0.0
10
77.3954010009766
20
72.9820022583008
40
0.0
41
0.0
42
0.0
10
77.4917984008789
20
72.9160003662109
40
0.0
41
0.0
42
0.0
10
77.761100769043
20
72.7273025512695
40
0.0
41
0.0
42
0.0
10
77.9841003417969
20
72.6359024047852
40
0.0
41
0.0
42
0.0
10
78.1296997070312
20
72.6358032226562
40
0.0
41
0.0
42
0.0
10
78.0980987548828
20
72.5171966552734
40
0.0
41
0.0
42
0.0
10
78.0980987548828
20
72.4839019775391
40
0.0
41
0.0
42
0.0
10
78.1259002685547
20
72.4117965698242
40
0.0
41
0.0
42
0.0
10
78.1893005371094
20
72.2993011474609
40
0.0
41
0.0
42
0.0
10
78.3741989135742
20
72.0307998657227
40
0.0
41
0.0
42
0.0
10
78.4120025634766
20
71.9937973022461
40
0.0
41
0.0
42
0.0
10
78.4971008300781
20
71.8824996948242
40
0.0
41
0.0
42
0.0
10
78.5335006713867
20
71.8259963989258
40
0.0
41
0.0
42
0.0
10
78.5510025024414
20
71.8050994873047
40
0.0
41
0.0
42
0.0
10
78.6490020751953
20
71.4857025146484
40
0.0
41
0.0
42
0.0
10
78.7331008911133
20
71.1733016967773
40
0.0
41
0.0
42
0.0
10
78.7552032470703
20
71.1370010375977
40
0.0
41
0.0
42
0.0
10
78.8706970214844
20
70.9934997558594
40
0.0
41
0.0
42
0.0
10
78.8889999389648
20
70.9733963012695
40
0.0
41
0.0
42
0.0
10
78.9974975585938
20
70.6771011352539
40
0.0
41
0.0
42
0.0
10
79.1408004760742
20
70.5715026855469
40
0.0
41
0.0
42
0.0
10
79.1737976074219
20
70.5145034790039
40
0.0
41
0.0
42
0.0
10
79.1966018676758
20
70.4954986572266
40
0.0
41
0.0
42
0.0
10
79.492301940918
20
70.2063980102539
40
0.0
41
0.0
42
0.0
10
79.5362014770508
20
70.1837997436523
40
0.0
41
0.0
42
0.0
10
79.6333999633789
20
70.1433029174805
40
0.0
41
0.0
42
0.0
10
79.7188034057617
20
70.1035003662109
40
0.0
41
0.0
42
0.0
10
79.9866027832031
20
70.0027008056641
40
0.0
41
0.0
42
0.0
10
80.486198425293
20
69.8563003540039
40
0.0
41
0.0
42
0.0
10
80.9886016845703
20
69.6906967163086
40
0.0
41
0.0
42
0.0
10
81.0544967651367
20
69.6523971557617
40
0.0
41
0.0
42
0.0
10
81.0774002075195
20
69.6412963867188
40
0.0
41
0.0
42
0.0
10
81.1782989501953
20
69.492301940918
40
0.0
41
0.0
42
0.0
10
81.4573974609375
20
69.136100769043
40
0.0
41
0.0
42
0.0
10
81.4760971069336
20
68.9954986572266
40
0.0
41
0.0
42
0.0
10
81.4633026123047
20
68.834098815918
40
0.0
41
0.0
42
0.0
10
81.4632034301758
20
68.7960968017578
40
0.0
41
0.0
42
0.0
10
81.4957962036133
20
68.5017013549805
40
0.0
41
0.0
42
0.0
10
81.472297668457
20
68.3291015625
40
0.0
41
0.0
42
0.0
10
81.4526977539062
20
68.2008972167969
40
0.0
41
0.0
42
0.0
10
81.4077987670898
20
68.0137023925781
40
0.0
41
0.0
42
0.0
10
81.2848968505859
20
67.6970977783203
40
0.0
41
0.0
42
0.0
10
81.2077026367188
20
67.5101013183594
40
0.0
41
0.0
42
0.0
10
81.0337982177734
20
67.246696472168
40
0.0
41
0.0
42
0.0
10
80.997200012207
20
67.1847991943359
40
0.0
41
0.0
42
0.0
10
80.8923034667969
20
67.0587997436523
40
0.0
41
0.0
42
0.0
10
80.8387985229492
20
67.0038986206055
40
0.0
41
0.0
42
0.0
10
80.5747985839844
20
66.8125991821289
40
0.0
41
0.0
42
0.0
10
80.4916000366211
20
66.7396011352539
40
0.0
41
0.0
42
0.0
10
80.3028030395508
20
66.6513977050781
40
0.0
41
0.0
42
0.0
10
79.9851989746094
20
66.5453033447266
40
0.0
41
0.0
42
0.0
10
79.8326034545898
20
66.5178985595703
40
0.0
41
0.0
42
0.0
10
79.5098037719727
20
66.494499206543
40
0.0
41
0.0
42
0.0
10
79.4929962158203
20
66.4917984008789
40
0.0
41
0.0
42
0.0
10
79.5185012817383
20
66.4914016723633
40
0.0
41
0.0
42
0.0
10
79.5522994995117
20
66.4968032836914
40
0.0
41
0.0
42
0.0
10
79.8996963500977
20
66.522102355957
40
0.0
41
0.0
42
0.0
10
80.0147018432617
20
66.5427017211914
40
0.0
41
0.0
42
0.0
10
80.3672027587891
20
66.660400390625
40
0.0
41
0.0
42
0.0
10
80.5083999633789
20
66.7264022827148
40
0.0
41
0.0
42
0.0
10
80.57080078125
20
66.7811965942383
40
0.0
41
0.0
42
0.0
10
80.8669967651367
20
66.9959030151367
40
0.0
41
0.0
42
0.0
10
80.9233016967773
20
67.053596496582
40
0.0
41
0.0
42
0.0
10
81.0027008056641
20
67.1490020751953
40
0.0
41
0.0
42
0.0
10
81.030403137207
20
67.1957015991211
40
0.0
41
0.0
42
0.0
10
81.2244033813477
20
67.4898986816406
40
0.0
41
0.0
42
0.0
10
81.2835006713867
20
67.6327972412109
40
0.0
41
0.0
42
0.0
10
81.4207992553711
20
67.986198425293
40
0.0
41
0.0
42
0.0
10
81.4550018310547
20
68.1289978027344
40
0.0
41
0.0
42
0.0
10
81.4768981933594
20
68.2712020874023
40
0.0
41
0.0
42
0.0
10
81.5056991577148
20
68.4813995361328
40
0.0
41
0.0
42
0.0
10
81.5055999755859
20
68.518798828125
40
0.0
41
0.0
42
0.0
10
81.467903137207
20
68.8578033447266
40
0.0
41
0.0
42
0.0
10
81.477897644043
20
68.9807968139648
40
0.0
41
0.0
42
0.0
10
81.4777984619141
20
69.0185012817383
40
0.0
41
0.0
42
0.0
10
81.4587020874023
20
69.1616973876953
40
0.0
41
0.0
42
0.0
10
81.4524993896484
20
69.1960983276367
40
0.0
41
0.0
42
0.0
10
81.2085037231445
20
69.5075988769531
40
0.0
41
0.0
42
0.0
10
81.0861968994141
20
69.6884002685547
40
0.0
41
0.0
42
0.0
10
81.0668029785156
20
69.6976013183594
40
0.0
41
0.0
42
0.0
10
81.0112991333008
20
69.7300033569336
40
0.0
41
0.0
42
0.0
10
80.5137023925781
20
69.8936004638672
40
0.0
41
0.0
42
0.0
10
80.1503982543945
20
69.9999008178711
40
0.0
41
0.0
42
0.0
10
80.073600769043
20
70.0261993408203
40
0.0
41
0.0
42
0.0
10
80.0133972167969
20
70.0429992675781
40
0.0
41
0.0
42
0.0
10
79.7729034423828
20
70.1335983276367
40
0.0
41
0.0
42
0.0
10
79.6965026855469
20
70.1691970825195
40
0.0
41
0.0
42
0.0
10
79.5716018676758
20
70.2211990356445
40
0.0
41
0.0
42
0.0
10
79.5074996948242
20
70.2542037963867
40
0.0
41
0.0
42
0.0
10
79.2516021728516
20
70.5043029785156
40
0.0
41
0.0
42
0.0
10
79.2174987792969
20
70.5327987670898
40
0.0
41
0.0
42
0.0
10
79.1889038085938
20
70.5822982788086
40
0.0
41
0.0
42
0.0
10
79.0022964477539
20
70.7194976806641
40
0.0
41
0.0
42
0.0
10
78.9047012329102
20
70.9863967895508
40
0.0
41
0.0
42
0.0
10
78.8867034912109
20
71.0063018798828
40
0.0
41
0.0
42
0.0
10
78.7548980712891
20
71.1698989868164
40
0.0
41
0.0
42
0.0
10
78.6623001098633
20
71.5140991210938
40
0.0
41
0.0
42
0.0
10
78.5546035766602
20
71.8647003173828
40
0.0
41
0.0
42
0.0
10
78.5444030761719
20
71.8769989013672
40
0.0
41
0.0
42
0.0
10
78.5027008056641
20
71.9414978027344
40
0.0
41
0.0
42
0.0
10
78.453498840332
20
72.0058975219727
40
0.0
41
0.0
42
0.0
10
78.4300003051758
20
72.0289001464844
40
0.0
41
0.0
42
0.0
10
78.315299987793
20
72.1955032348633
40
0.0
41
0.0
42
0.0
10
78.2085037231445
20
72.3850021362305
40
0.0
41
0.0
42
0.0
10
78.1632995605469
20
72.5025024414062
40
0.0
41
0.0
42
0.0
10
78.2072982788086
20
72.6681976318359
40
0.0
41
0.0
42
0.0
10
78.2194976806641
20
72.7039031982422
40
0.0
41
0.0
42
0.0
10
78.2194976806641
20
72.7198028564453
40
0.0
41
0.0
42
0.0
10
78.0158004760742
20
72.7218017578125
40
0.0
41
0.0
42
0.0
10
77.6355972290039
20
72.8753967285156
40
0.0
41
0.0
42
0.0
10
77.5044021606445
20
72.967399597168
40
0.0
41
0.0
42
0.0
10
77.4531021118164
20
73.0014038085938
40
0.0
41
0.0
42
0.0
10
77.0093994140625
20
73.1967010498047
40
0.0
41
0.0
42
0.0
10
76.6867980957031
20
73.4306030273438
40
0.0
41
0.0
42
0.0
10
76.5624008178711
20
73.5018005371094
40
0.0
41
0.0
42
0.0
10
76.5063018798828
20
73.5356979370117
40
0.0
41
0.0
42
0.0
10
76.3753967285156
20
73.684196472168
40
0.0
41
0.0
42
0.0
10
76.2134017944336
20
73.8626022338867
40
0.0
41
0.0
42
0.0
10
76.138801574707
20
73.9977035522461
40
0.0
41
0.0
42
0.0
10
76.3804016113281
20
74.2216033935547
40
0.0
41
0.0
42
0.0
10
76.5046997070312
20
74.3220977783203
40
0.0
41
0.0
42
0.0
10
76.8003997802734
20
74.2360992431641
40
0.0
41
0.0
42
0.0
10
76.8384017944336
20
74.2265014648438
40
0.0
41
0.0
42
0.0
10
76.9850006103516
20
74.213996887207
40
0.0
41
0.0
42
0.0
10
77.1349029541016
20
74.1510009765625
40
0.0
41
0.0
42
0.0
10
77.3370971679688
20
74.0142974853516
40
0.0
41
0.0
42
0.0
10
77.3557968139648
20
73.9932022094727
40
0.0
41
0.0
42
0.0
10
77.4953994750977
20
73.8057022094727
40
0.0
41
0.0
42
0.0
10
77.5171966552734
20
73.7863006591797
40
0.0
41
0.0
42
0.0
10
77.6371994018555
20
73.7089004516602
40
0.0
41
0.0
42
0.0
10
77.814697265625
20
73.5643997192383
40
0.0
41
0.0
42
0.0
10
77.9261016845703
20
73.4988021850586
40
0.0
41
0.0
42
0.0
10
77.8695983886719
20
73.4336013793945
40
0.0
41
0.0
42
0.0
10
77.7072982788086
20
73.2193984985352
40
0.0
41
0.0
42
0.0
10
77.7072982788086
20
73.2072982788086
40
0.0
41
0.0
42
0.0
10
77.7211990356445
20
73.2072982788086
40
0.0
41
0.0
42
0.0
10
78.0147018432617
20
73.3619995117188
40
0.0
41
0.0
42
0.0
10
78.1240005493164
20
73.3634033203125
40
0.0
41
0.0
42
0.0
10
78.4863967895508
20
73.1169967651367
40
0.0
41
0.0
42
0.0
10
78.5195007324219
20
73.1168975830078
40
0.0
41
0.0
42
0.0
10
78.8423004150391
20
73.1298980712891
40
0.0
41
0.0
42
0.0
10
78.9841995239258
20
73.0702972412109
40
0.0
41
0.0
42
0.0
10
79.0186996459961
20
73.070198059082
40
0.0
41
0.0
42
0.0
10
79.3488998413086
20
73.1087036132812
40
0.0
41
0.0
42
0.0
10
79.4825973510742
20
73.0745010375977
40
0.0
41
0.0
42
0.0
10
79.5180969238281
20
73.0744018554688
40
0.0
41
0.0
42
0.0
10
79.8171005249023
20
73.1264038085938
40
0.0
41
0.0
42
0.0
10
79.9838027954102
20
73.0833969116211
40
0.0
41
0.0
42
0.0
10
80.3536987304688
20
73.0398025512695
40
0.0
41
0.0
42
0.0
10
80.3908004760742
20
73.0397033691406
40
0.0
41
0.0
42
0.0
10
80.4962005615234
20
73.0557022094727
40
0.0
41
0.0
42
0.0
10
80.7247009277344
20
72.9999008178711
40
0.0
41
0.0
42
0.0
10
80.9906005859375
20
72.8873977661133
40
0.0
41
0.0
42
0.0
10
81.4944000244141
20
72.4964981079102
40
0.0
41
0.0
42
0.0
10
81.9326019287109
20
71.993896484375
40
0.0
41
0.0
42
0.0
10
81.9941024780273
20
71.9262008666992
40
0.0
41
0.0
42
0.0
10
82.2615966796875
20
71.7276000976562
40
0.0
41
0.0
42
0.0
10
82.467399597168
20
71.5615005493164
40
0.0
41
0.0
42
0.0
10
82.4899978637695
20
71.5376968383789
40
0.0
41
0.0
42
0.0
10
82.7829971313477
20
71.5007019042969
40
0.0
41
0.0
42
0.0
10
82.9530029296875
20
71.4829025268555
40
0.0
41
0.0
42
0.0
10
82.9890975952148
20
71.4828033447266
40
0.0
41
0.0
42
0.0
10
83.0121994018555
20
71.4890975952148
40
0.0
41
0.0
42
0.0
10
83.0291976928711
20
71.4981002807617
40
0.0
41
0.0
42
0.0
10
83.1404037475586
20
71.5689010620117
40
0.0
41
0.0
42
0.0
10
83.197998046875
20
71.597900390625
40
0.0
41
0.0
42
0.0
10
83.5110015869141
20
71.6640014648438
40
0.0
41
0.0
42
0.0
10
83.6933975219727
20
71.8033981323242
40
0.0
41
0.0
42
0.0
10
84.0074996948242
20
71.9814987182617
40
0.0
41
0.0
42
0.0
10
84.0234985351562
20
71.9960021972656
40
0.0
41
0.0
42
0.0
10
84.3336029052734
20
72.3093032836914
40
0.0
41
0.0
42
0.0
10
84.3684005737305
20
72.348503112793
40
0.0
41
0.0
42
0.0
10
84.4877014160156
20
72.4981994628906
40
0.0
41
0.0
42
0.0
10
84.5502014160156
20
72.6414031982422
40
0.0
41
0.0
42
0.0
10
84.7332000732422
20
72.9860992431641
40
0.0
41
0.0
42
0.0
10
84.7462005615234
20
73.1277008056641
40
0.0
41
0.0
42
0.0
10
84.8081970214844
20
73.4817962646484
40
0.0
41
0.0
42
0.0
10
84.8080978393555
20
73.5179977416992
40
0.0
41
0.0
42
0.0
10
84.7817001342773
20
73.6616973876953
40
0.0
41
0.0
42
0.0
10
84.7378005981445
20
74.0148010253906
40
0.0
41
0.0
42
0.0
10
84.6014022827148
20
74.3671035766602
40
0.0
41
0.0
42
0.0
10
84.5656967163086
20
74.4541015625
40
0.0
41
0.0
42
0.0
10
84.5404968261719
20
74.5102005004883
40
0.0
41
0.0
42
0.0
10
84.5025024414062
20
74.5740966796875
40
0.0
41
0.0
42
0.0
10
84.3848037719727
20
74.7214965820312
40
0.0
41
0.0
42
0.0
10
84.2811965942383
20
74.8629989624023
40
0.0
41
0.0
42
0.0
10
84.1886978149414
20
75.0081024169922
40
0.0
41
0.0
42
0.0
10
84.1628036499023
20
75.0439987182617
40
0.0
41
0.0
42
0.0
10
84.007698059082
20
75.2061004638672
40
0.0
41
0.0
42
0.0
10
83.6756973266602
20
75.3498001098633
40
0.0
41
0.0
42
0.0
10
83.5119018554688
20
75.4979019165039
40
0.0
41
0.0
42
0.0
10
82.9928970336914
20
75.497802734375
40
0.0
41
0.0
42
0.0
10
82.9848022460938
20
75.4962997436523
40
0.0
41
0.0
42
0.0
10
82.753303527832
20
75.4284973144531
40
0.0
41
0.0
42
0.0
10
82.4897003173828
20
75.2858963012695
40
0.0
41
0.0
42
0.0
10
82.4095993041992
20
75.2457962036133
40
0.0
41
0.0
42
0.0
10
82.3094024658203
20
75.1864013671875
40
0.0
41
0.0
42
0.0
10
82.2045974731445
20
75.1355972290039
40
0.0
41
0.0
42
0.0
10
81.989501953125
20
75.0122985839844
40
0.0
41
0.0
42
0.0
10
81.7400970458984
20
74.899299621582
40
0.0
41
0.0
42
0.0
10
81.4862976074219
20
74.8130035400391
40
0.0
41
0.0
42
0.0
10
81.3057022094727
20
74.7599029541016
40
0.0
41
0.0
42
0.0
10
81.0192031860352
20
74.7800979614258
40
0.0
41
0.0
42
0.0
10
80.9803009033203
20
74.7799987792969
40
0.0
41
0.0
42
0.0
10
80.8276977539062
20
74.7743988037109
40
0.0
41
0.0
42
0.0
10
80.5092010498047
20
74.9243011474609
40
0.0
41
0.0
42
0.0
10
80.4241027832031
20
74.9860992431641
40
0.0
41
0.0
42
0.0
10
80.4182968139648
20
74.9878005981445
40
0.0
41
0.0
42
0.0
10
80.2708969116211
20
75.0070037841797
40
0.0
41
0.0
42
0.0
10
80.0130004882812
20
75.1513977050781
40
0.0
41
0.0
42
0.0
10
79.8683013916016
20
75.173698425293
40
0.0
41
0.0
42
0.0
10
79.5142974853516
20
75.3573989868164
40
0.0
41
0.0
42
0.0
10
79.3712997436523
20
75.3644027709961
40
0.0
41
0.0
42
0.0
10
79.0167999267578
20
75.4738998413086
40
0.0
41
0.0
42
0.0
10
78.9811019897461
20
75.4738006591797
40
0.0
41
0.0
42
0.0
10
78.9478988647461
20
75.470100402832
40
0.0
41
0.0
42
0.0
10
78.5028991699219
20
75.4483032226562
40
0.0
41
0.0
42
0.0
10
78.4835968017578
20
75.4458999633789
40
0.0
41
0.0
42
0.0
10
78.4488983154297
20
75.4380035400391
40
0.0
41
0.0
42
0.0
10
78.1970977783203
20
75.3545989990234
40
0.0
41
0.0
42
0.0
10
78.1364974975586
20
75.3421020507812
40
0.0
41
0.0
42
0.0
10
77.9871978759766
20
75.2960968017578
40
0.0
41
0.0
42
0.0
10
77.6435012817383
20
75.1473007202148
40
0.0
41
0.0
42
0.0
10
77.4847030639648
20
75.1176986694336
40
0.0
41
0.0
42
0.0
10
77.2088012695312
20
75.0419006347656
40
0.0
41
0.0
42
0.0
10
77.0105972290039
20
75.0273971557617
40
0.0
41
0.0
42
0.0
10
76.8679962158203
20
75.1009979248047
40
0.0
41
0.0
42
0.0
10
76.5064010620117
20
75.1696014404297
40
0.0
41
0.0
42
0.0
10
76.3837966918945
20
75.3880004882812
40
0.0
41
0.0
42
0.0
10
76.3442993164062
20
75.4961013793945
40
0.0
41
0.0
42
0.0
10
76.4576034545898
20
75.6094970703125
40
0.0
41
0.0
42
0.0
10
76.5075988769531
20
75.6741027832031
40
0.0
41
0.0
42
0.0
10
76.8290023803711
20
75.7627029418945
40
0.0
41
0.0
42
0.0
10
76.8669967651367
20
75.7748031616211
40
0.0
41
0.0
42
0.0
10
77.0141983032227
20
75.8478012084961
40
0.0
41
0.0
42
0.0
10
77.3701019287109
20
75.877799987793
40
0.0
41
0.0
42
0.0
10
77.4312973022461
20
75.9019012451172
40
0.0
41
0.0
42
0.0
10
77.5039978027344
20
75.9486999511719
40
0.0
41
0.0
42
0.0
10
77.6507034301758
20
75.9040985107422
40
0.0
41
0.0
42
0.0
10
77.6836013793945
20
75.9039993286133
40
0.0
41
0.0
42
0.0
10
77.9404983520508
20
76.0005035400391
40
0.0
41
0.0
42
0.0
10
78.0166015625
20
76.0087966918945
40
0.0
41
0.0
42
0.0
10
78.0345001220703
20
76.0126037597656
40
0.0
41
0.0
42
0.0
10
78.5065994262695
20
76.0417022705078
40
0.0
41
0.0
42
0.0
10
78.7415008544922
20
76.098503112793
40
0.0
41
0.0
42
0.0
10
78.8566970825195
20
76.1442031860352
40
0.0
41
0.0
42
0.0
10
78.9810028076172
20
76.2033004760742
40
0.0
41
0.0
42
0.0
10
79.0046005249023
20
76.2218017578125
40
0.0
41
0.0
42
0.0
10
79.200798034668
20
76.4928970336914
40
0.0
41
0.0
42
0.0
10
79.3332977294922
20
76.6517028808594
40
0.0
41
0.0
42
0.0
10
79.3623962402344
20
76.6801986694336
40
0.0
41
0.0
42
0.0
10
79.5098037719727
20
76.7592010498047
40
0.0
41
0.0
42
0.0
10
79.6027984619141
20
76.8124008178711
40
0.0
41
0.0
42
0.0
10
79.6255035400391
20
76.8304977416992
40
0.0
41
0.0
42
0.0
10
79.7462997436523
20
76.9922027587891
40
0.0
41
0.0
42
0.0
10
79.9409027099609
20
77.2723007202148
40
0.0
41
0.0
42
0.0
10
80.0103988647461
20
77.3169021606445
40
0.0
41
0.0
42
0.0
10
80.1943969726562
20
77.3884963989258
40
0.0
41
0.0
42
0.0
10
80.2970962524414
20
77.4703979492188
40
0.0
41
0.0
42
0.0
10
80.5090026855469
20
77.6818008422852
40
0.0
41
0.0
42
0.0
10
80.7695007324219
20
77.7553024291992
40
0.0
41
0.0
42
0.0
10
81.0170974731445
20
77.820198059082
40
0.0
41
0.0
42
0.0
10
81.3361968994141
20
77.8249969482422
40
0.0
41
0.0
42
0.0
10
81.4809036254883
20
77.8245010375977
40
0.0
41
0.0
42
0.0
10
81.981201171875
20
77.7790985107422
40
0.0
41
0.0
42
0.0
10
82.2517013549805
20
77.7723999023438
40
0.0
41
0.0
42
0.0
10
82.5150985717773
20
77.7732009887695
40
0.0
41
0.0
42
0.0
10
82.9756011962891
20
77.9990997314453
40
0.0
41
0.0
42
0.0
10
83.0059967041016
20
78.0110015869141
40
0.0
41
0.0
42
0.0
10
83.0833969116211
20
78.1302032470703
40
0.0
41
0.0
42
0.0
10
83.2162017822266
20
78.3051986694336
40
0.0
41
0.0
42
0.0
10
83.2848968505859
20
78.4878005981445
40
0.0
41
0.0
42
0.0
10
83.4205017089844
20
78.8012008666992
40
0.0
41
0.0
42
0.0
10
83.4567031860352
20
78.9835968017578
40
0.0
41
0.0
42
0.0
10
83.4990997314453
20
79.2531967163086
40
0.0
41
0.0
42
0.0
10
83.5045013427734
20
79.2964019775391
40
0.0
41
0.0
42
0.0
10
83.5056991577148
20
79.3669967651367
40
0.0
41
0.0
42
0.0
210
0.0
220
0.0
230
1.0
0
LWPOLYLINE
5
27
330
1C
100
AcDbEntity
67
0
8
0
62
256
6
ByLayer
370
-1
48
1.0
60
0
100
AcDbPolyline
90
428
70
1
38
0.0
39
0.0
10
79.3653030395508
20
66.4941024780273
40
0.0
41
0.0
42
0.0
10
79.3259963989258
20
66.4990997314453
40
0.0
41
0.0
42
0.0
10
79.0162963867188
20
66.5477981567383
40
0.0
41
0.0
42
0.0
10
78.8685989379883
20
66.5770034790039
40
0.0
41
0.0
42
0.0
10
78.5121002197266
20
66.7313995361328
40
0.0
41
0.0
42
0.0
10
78.3647003173828
20
66.7867965698242
40
0.0
41
0.0
42
0.0
10
78.1634979248047
20
66.9393997192383
40
0.0
41
0.0
42
0.0
10
78.0612030029297
20
67.0059967041016
40
0.0
41
0.0
42
0.0
10
78.000602722168
20
67.1614990234375
40
0.0
41
0.0
42
0.0
10
77.8280029296875
20
67.5133972167969
40
0.0
41
0.0
42
0.0
10
77.8354034423828
20
67.8167037963867
40
0.0
41
0.0
42
0.0
10
77.8349990844727
20
67.9823989868164
40
0.0
41
0.0
42
0.0
10
77.8804016113281
20
68.4807968139648
40
0.0
41
0.0
42
0.0
10
77.8746032714844
20
68.8878021240234
40
0.0
41
0.0
42
0.0
10
77.875
20
69.0173034667969
40
0.0
41
0.0
42
0.0
10
77.8315963745117
20
69.1822967529297
40
0.0
41
0.0
42
0.0
10
77.739501953125
20
69.508903503418
40
0.0
41
0.0
42
0.0
10
77.4713973999023
20
69.7776031494141
40
0.0
41
0.0
42
0.0
10
77.4022979736328
20
69.8643035888672
40
0.0
41
0.0
42
0.0
10
77.3455963134766
20
70.0102996826172
40
0.0
41
0.0
42
0.0
10
77.3167037963867
20
70.0551986694336
40
0.0
41
0.0
42
0.0
10
77.0042037963867
20
70.2723007202148
40
0.0
41
0.0
42
0.0
10
76.8291015625
20
70.4031982421875
40
0.0
41
0.0
42
0.0
10
76.7684020996094
20
70.5096969604492
40
0.0
41
0.0
42
0.0
10
76.6704025268555
20
70.6922988891602
40
0.0
41
0.0
42
0.0
10
76.6404037475586
20
70.7228012084961
40
0.0
41
0.0
42
0.0
10
76.5070037841797
20
70.834098815918
40
0.0
41
0.0
42
0.0
10
76.2714996337891
20
71.0046005249023
40
0.0
41
0.0
42
0.0
10
76.2405014038086
20
71.0441970825195
40
0.0
41
0.0
42
0.0
10
76.1856002807617
20
71.1596984863281
40
0.0
41
0.0
42
0.0
10
76.125602722168
20
71.3113021850586
40
0.0
41
0.0
42
0.0
10
76.0762023925781
20
71.5167999267578
40
0.0
41
0.0
42
0.0
10
76.0477981567383
20
71.9452972412109
40
0.0
41
0.0
42
0.0
10
76.0327987670898
20
72.0166015625
40
0.0
41
0.0
42
0.0
10
75.9992980957031
20
72.3223037719727
40
0.0
41
0.0
42
0.0
10
75.9606018066406
20
72.4253997802734
40
0.0
41
0.0
42
0.0
10
75.9783020019531
20
72.4831008911133
40
0.0
41
0.0
42
0.0
10
75.9781036376953
20
72.5137023925781
40
0.0
41
0.0
42
0.0
10
75.9151000976562
20
72.6110000610352
40
0.0
41
0.0
42
0.0
10
75.8802032470703
20
72.7001037597656
40
0.0
41
0.0
42
0.0
10
75.8536987304688
20
73.0141983032227
40
0.0
41
0.0
42
0.0
10
75.7666015625
20
73.1899032592773
40
0.0
41
0.0
42
0.0
10
75.6789016723633
20
73.5074996948242
40
0.0
41
0.0
42
0.0
10
75.6361999511719
20
73.5404968261719
40
0.0
41
0.0
42
0.0
10
75.5112991333008
20
73.6656036376953
40
0.0
41
0.0
42
0.0
10
75.4837036132812
20
73.6654968261719
40
0.0
41
0.0
42
0.0
10
75.3897018432617
20
73.6309967041016
40
0.0
41
0.0
42
0.0
10
75.1660003662109
20
73.5064010620117
40
0.0
41
0.0
42
0.0
10
75.1075973510742
20
73.197998046875
40
0.0
41
0.0
42
0.0
10
75.0130004882812
20
73.0148010253906
40
0.0
41
0.0
42
0.0
10
75.0129013061523
20
72.9806976318359
40
0.0
41
0.0
42
0.0
10
75.0337982177734
20
72.6958999633789
40
0.0
41
0.0
42
0.0
10
75.0919036865234
20
72.4847030639648
40
0.0
41
0.0
42
0.0
10
75.1289978027344
20
72.2852020263672
40
0.0
41
0.0
42
0.0
10
75.2578964233398
20
71.9872970581055
40
0.0
41
0.0
42
0.0
10
75.3767013549805
20
71.6088027954102
40
0.0
41
0.0
42
0.0
10
75.4050979614258
20
71.4828033447266
40
0.0
41
0.0
42
0.0
10
75.4266967773438
20
71.0679016113281
40
0.0
41
0.0
42
0.0
10
75.4335021972656
20
71.0074005126953
40
0.0
41
0.0
42
0.0
10
75.3391036987305
20
70.701301574707
40
0.0
41
0.0
42
0.0
10
75.3300018310547
20
70.5143966674805
40
0.0
41
0.0
42
0.0
10
75.1660003662109
20
70.1984024047852
40
0.0
41
0.0
42
0.0
10
75.1376037597656
20
70.0130004882812
40
0.0
41
0.0
42
0.0
10
75.0095977783203
20
69.7845001220703
40
0.0
41
0.0
42
0.0
10
74.9863967895508
20
69.6063003540039
40
0.0
41
0.0
42
0.0
10
74.915901184082
20
69.5092010498047
40
0.0
41
0.0
42
0.0
10
74.7518005371094
20
69.1603012084961
40
0.0
41
0.0
42
0.0
10
74.7517013549805
20
69.1252975463867
40
0.0
41
0.0
42
0.0
10
74.7559967041016
20
69.0059967041016
40
0.0
41
0.0
42
0.0
10
74.7320022583008
20
68.6641998291016
40
0.0
41
0.0
42
0.0
10
74.7319030761719
20
68.6279983520508
40
0.0
41
0.0
42
0.0
10
74.7733993530273
20
68.4862976074219
40
0.0
41
0.0
42
0.0
10
74.8768997192383
20
68.1817016601562
40
0.0
41
0.0
42
0.0
10
74.9642028808594
20
67.989501953125
40
0.0
41
0.0
42
0.0
10
75.1035995483398
20
67.7474975585938
40
0.0
41
0.0
42
0.0
10
75.1434020996094
20
67.6656036376953
40
0.0
41
0.0
42
0.0
10
75.2100982666016
20
67.5529022216797
40
0.0
41
0.0
42
0.0
10
75.2418975830078
20
67.4896011352539
40
0.0
41
0.0
42
0.0
10
75.4138031005859
20
67.1718978881836
40
0.0
41
0.0
42
0.0
10
75.4685974121094
20
66.9847030639648
40
0.0
41
0.0
42
0.0
10
75.4891967773438
20
66.8648986816406
40
0.0
41
0.0
42
0.0
10
75.4894027709961
20
66.5119018554688
40
0.0
41
0.0
42
0.0
10
75.3542022705078
20
66.3621978759766
40
0.0
41
0.0
42
0.0
10
75.3302993774414
20
66.3251037597656
40
0.0
41
0.0
42
0.0
10
75.193000793457
20
66.007698059082
40
0.0
41
0.0
42
0.0
10
75.0413970947266
20
65.8626022338867
40
0.0
41
0.0
42
0.0
10
74.9917984008789
20
65.8266983032227
40
0.0
41
0.0
42
0.0
10
74.8068008422852
20
65.7087020874023
40
0.0
41
0.0
42
0.0
10
74.628303527832
20
65.5780029296875
40
0.0
41
0.0
42
0.0
10
74.5338973999023
20
65.5026016235352
40
0.0
41
0.0
42
0.0
10
74.4897003173828
20
65.4763031005859
40
0.0
41
0.0
42
0.0
10
74.4147033691406
20
65.4427032470703
40
0.0
41
0.0
42
0.0
10
74.3026962280273
20
65.3968963623047
40
0.0
41
0.0
42
0.0
10
73.9857025146484
20
65.2740020751953
40
0.0
41
0.0
42
0.0
10
73.7981033325195
20
65.2396011352539
40
0.0
41
0.0
42
0.0
10
73.497200012207
20
65.2021026611328
40
0.0
41
0.0
42
0.0
10
73.3321990966797
20
65.2173004150391
40
0.0
41
0.0
42
0.0
10
73.0130004882812
20
65.2730026245117
40
0.0
41
0.0
42
0.0
10
72.7023010253906
20
65.438102722168
40
0.0
41
0.0
42
0.0
10
72.5571975708008
20
65.5008010864258
40
0.0
41
0.0
42
0.0
10
72.5086975097656
20
65.5240020751953
40
0.0
41
0.0
42
0.0
10
72.3427963256836
20
65.6575012207031
40
0.0
41
0.0
42
0.0
10
71.991096496582
20
66.0071029663086
40
0.0
41
0.0
42
0.0
10
71.7891998291016
20
66.3632965087891
40
0.0
41
0.0
42
0.0
10
71.676399230957
20
66.5109024047852
40
0.0
41
0.0
42
0.0
10
71.6008987426758
20
66.8678970336914
40
0.0
41
0.0
42
0.0
10
71.581298828125
20
66.9067993164062
40
0.0
41
0.0
42
0.0
10
71.5199966430664
20
67.0029983520508
40
0.0
41
0.0
42
0.0
10
71.5358963012695
20
67.048698425293
40
0.0
41
0.0
42
0.0
10
71.5915985107422
20
67.4899978637695
40
0.0
41
0.0
42
0.0
10
71.6643981933594
20
67.5588989257812
40
0.0
41
0.0
42
0.0
10
72.0046997070312
20
67.9804992675781
40
0.0
41
0.0
42
0.0
10
72.5058975219727
20
68.4178009033203
40
0.0
41
0.0
42
0.0
10
72.5880966186523
20
68.4935989379883
40
0.0
41
0.0
42
0.0
10
72.6119003295898
20
68.5305023193359
40
0.0
41
0.0
42
0.0
10
72.7922973632812
20
68.7816009521484
40
0.0
41
0.0
42
0.0
10
72.9545974731445
20
68.9906997680664
40
0.0
41
0.0
42
0.0
10
73.0
20
69.097900390625
40
0.0
41
0.0
42
0.0
10
73.0940017700195
20
69.4824981689453
40
0.0
41
0.0
42
0.0
10
73.0939025878906
20
69.5184020996094
40
0.0
41
0.0
42
0.0
10
73.064697265625
20
69.7100982666016
40
0.0
41
0.0
42
0.0
10
73.0970993041992
20
69.9838027954102
40
0.0
41
0.0
42
0.0
10
73.1342010498047
20
70.1276016235352
40
0.0
41
0.0
42
0.0
10
73.1341018676758
20
70.1636962890625
40
0.0
41
0.0
42
0.0
10
73.1296005249023
20
70.2018966674805
40
0.0
41
0.0
42
0.0
10
73.0782012939453
20
70.4969024658203
40
0.0
41
0.0
42
0.0
10
73.1222991943359
20
70.6676025390625
40
0.0
41
0.0
42
0.0
10
73.122200012207
20
70.7036972045898
40
0.0
41
0.0
42
0.0
10
73.0886001586914
20
70.99169921875
40
0.0
41
0.0
42
0.0
10
73.163200378418
20
71.1691970825195
40
0.0
41
0.0
42
0.0
10
73.1631011962891
20
71.2044982910156
40
0.0
41
0.0
42
0.0
10
73.1518020629883
20
71.4881973266602
40
0.0
41
0.0
42
0.0
10
73.4732971191406
20
71.9608001708984
40
0.0
41
0.0
42
0.0
10
73.4737014770508
20
72.0124969482422
40
0.0
41
0.0
42
0.0
10
73.5099029541016
20
72.0127029418945
40
0.0
41
0.0
42
0.0
10
73.7169036865234
20
72.3069000244141
40
0.0
41
0.0
42
0.0
10
73.8460006713867
20
72.4946975708008
40
0.0
41
0.0
42
0.0
10
74.0066986083984
20
72.614501953125
40
0.0
41
0.0
42
0.0
10
74.027702331543
20
72.6330032348633
40
0.0
41
0.0
42
0.0
10
74.1439971923828
20
72.8050003051758
40
0.0
41
0.0
42
0.0
10
74.2194976806641
20
72.9850006103516
40
0.0
41
0.0
42
0.0
10
74.2344970703125
20
73.1616973876953
40
0.0
41
0.0
42
0.0
10
74.3280029296875
20
73.4829025268555
40
0.0
41
0.0
42
0.0
10
74.3277969360352
20
73.5123977661133
40
0.0
41
0.0
42
0.0
10
74.214599609375
20
73.6503982543945
40
0.0
41
0.0
42
0.0
10
74.0108032226562
20
73.8706970214844
40
0.0
41
0.0
42
0.0
10
73.9853973388672
20
73.8706970214844
40
0.0
41
0.0
42
0.0
10
73.8072967529297
20
73.772102355957
40
0.0
41
0.0
42
0.0
10
73.5835037231445
20
73.5690002441406
40
0.0
41
0.0
42
0.0
10
73.5123977661133
20
73.5063018798828
40
0.0
41
0.0
42
0.0
10
73.497200012207
20
73.4811019897461
40
0.0
41
0.0
42
0.0
10
73.443603515625
20
73.4141998291016
40
0.0
41
0.0
42
0.0
10
73.3169021606445
20
73.1927032470703
40
0.0
41
0.0
42
0.0
10
73.1855010986328
20
73.0429000854492
40
0.0
41
0.0
42
0.0
10
73.1650009155273
20
73.0101013183594
40
0.0
41
0.0
42
0.0
10
72.9985961914062
20
72.6321029663086
40
0.0
41
0.0
42
0.0
10
72.9820022583008
20
72.6043014526367
40
0.0
41
0.0
42
0.0
10
72.9160995483398
20
72.5080032348633
40
0.0
41
0.0
42
0.0
10
72.7274017333984
20
72.2387008666992
40
0.0
41
0.0
42
0.0
10
72.6359024047852
20
72.0158004760742
40
0.0
41
0.0
42
0.0
10
72.6359024047852
20
71.870002746582
40
0.0
41
0.0
42
0.0
10
72.5171966552734
20
71.9016036987305
40
0.0
41
0.0
42
0.0
10
72.4894027709961
20
71.9016036987305
40
0.0
41
0.0
42
0.0
10
72.3639984130859
20
71.7605972290039
40
0.0
41
0.0
42
0.0
10
72.1724014282227
20
71.6869964599609
40
0.0
41
0.0
42
0.0
10
72.1155014038086
20
71.6286010742188
40
0.0
41
0.0
42
0.0
10
71.9899978637695
20
71.5847015380859
40
0.0
41
0.0
42
0.0
10
71.8825988769531
20
71.5027008056641
40
0.0
41
0.0
42
0.0
10
71.8259963989258
20
71.4663009643555
40
0.0
41
0.0
42
0.0
10
71.8051986694336
20
71.4486999511719
40
0.0
41
0.0
42
0.0
10
71.4899978637695
20
71.3519973754883
40
0.0
41
0.0
42
0.0
10
71.3193969726562
20
71.2145004272461
40
0.0
41
0.0
42
0.0
10
70.9903030395508
20
71.1259994506836
40
0.0
41
0.0
42
0.0
10
70.9733963012695
20
71.1107025146484
40
0.0
41
0.0
42
0.0
10
70.6771011352539
20
71.0024032592773
40
0.0
41
0.0
42
0.0
10
70.5716018676758
20
70.859001159668
40
0.0
41
0.0
42
0.0
10
70.5145034790039
20
70.8258972167969
40
0.0
41
0.0
42
0.0
10
70.4955978393555
20
70.8031997680664
40
0.0
41
0.0
42
0.0
10
70.206901550293
20
70.5078964233398
40
0.0
41
0.0
42
0.0
10
70.1435012817383
20
70.3667984008789
40
0.0
41
0.0
42
0.0
10
70.0027008056641
20
70.0130996704102
40
0.0
41
0.0
42
0.0
10
69.8563995361328
20
69.5137023925781
40
0.0
41
0.0
42
0.0
10
69.690803527832
20
69.0112991333008
40
0.0
41
0.0
42
0.0
10
69.6523971557617
20
68.9452972412109
40
0.0
41
0.0
42
0.0
10
69.6414031982422
20
68.9224014282227
40
0.0
41
0.0
42
0.0
10
69.4877014160156
20
68.8181991577148
40
0.0
41
0.0
42
0.0
10
69.3431015014648
20
68.7988967895508
40
0.0
41
0.0
42
0.0
10
69.3077011108398
20
68.7727966308594
40
0.0
41
0.0
42
0.0
10
68.9901962280273
20
68.5240020751953
40
0.0
41
0.0
42
0.0
10
68.834098815918
20
68.5365982055664
40
0.0
41
0.0
42
0.0
10
68.7960968017578
20
68.5364990234375
40
0.0
41
0.0
42
0.0
10
68.5017013549805
20
68.5038986206055
40
0.0
41
0.0
42
0.0
10
68.3290023803711
20
68.5273971557617
40
0.0
41
0.0
42
0.0
10
68.2008972167969
20
68.5470962524414
40
0.0
41
0.0
42
0.0
10
68.0133972167969
20
68.5919036865234
40
0.0
41
0.0
42
0.0
10
67.8271026611328
20
68.6688003540039
40
0.0
41
0.0
42
0.0
10
67.5102005004883
20
68.7919006347656
40
0.0
41
0.0
42
0.0
10
67.246696472168
20
68.9658966064453
40
0.0
41
0.0
42
0.0
10
67.184700012207
20
69.0027008056641
40
0.0
41
0.0
42
0.0
10
67.0587005615234
20
69.1074981689453
40
0.0
41
0.0
42
0.0
10
67.0038986206055
20
69.161003112793
40
0.0
41
0.0
42
0.0
10
66.8125991821289
20
69.4250030517578
40
0.0
41
0.0
42
0.0
10
66.739501953125
20
69.50830078125
40
0.0
41
0.0
42
0.0
10
66.6512985229492
20
69.6970977783203
40
0.0
41
0.0
42
0.0
10
66.5453033447266
20
70.0147018432617
40
0.0
41
0.0
42
0.0
10
66.5178985595703
20
70.1671981811523
40
0.0
41
0.0
42
0.0
10
66.494499206543
20
70.4899978637695
40
0.0
41
0.0
42
0.0
10
66.4913024902344
20
70.5099029541016
40
0.0
41
0.0
42
0.0
10
66.4913024902344
20
70.4815979003906
40
0.0
41
0.0
42
0.0
10
66.4968032836914
20
70.4475021362305
40
0.0
41
0.0
42
0.0
10
66.5220031738281
20
70.10009765625
40
0.0
41
0.0
42
0.0
10
66.5427017211914
20
69.9850997924805
40
0.0
41
0.0
42
0.0
10
66.6603012084961
20
69.632698059082
40
0.0
41
0.0
42
0.0
10
66.7264022827148
20
69.4915008544922
40
0.0
41
0.0
42
0.0
10
66.7811965942383
20
69.4289016723633
40
0.0
41
0.0
42
0.0
10
66.9957962036133
20
69.1327972412109
40
0.0
41
0.0
42
0.0
10
67.053596496582
20
69.0764007568359
40
0.0
41
0.0
42
0.0
10
67.1490020751953
20
68.9971008300781
40
0.0
41
0.0
42
0.0
10
67.1957015991211
20
68.9692993164062
40
0.0
41
0.0
42
0.0
10
67.4896011352539
20
68.7752990722656
40
0.0
41
0.0
42
0.0
10
67.8427963256836
20
68.6380996704102
40
0.0
41
0.0
42
0.0
10
67.9863967895508
20
68.5787963867188
40
0.0
41
0.0
42
0.0
10
68.1289978027344
20
68.5447006225586
40
0.0
41
0.0
42
0.0
10
68.2712020874023
20
68.5227966308594
40
0.0
41
0.0
42
0.0
10
68.4813995361328
20
68.4942016601562
40
0.0
41
0.0
42
0.0
10
68.518798828125
20
68.4941024780273
40
0.0
41
0.0
42
0.0
10
68.8578033447266
20
68.5317993164062
40
0.0
41
0.0
42
0.0
10
68.9807968139648
20
68.5220031738281
40
0.0
41
0.0
42
0.0
10
69.0127029418945
20
68.5220031738281
40
0.0
41
0.0
42
0.0
10
69.3292007446289
20
68.7698974609375
40
0.0
41
0.0
42
0.0
10
69.5122985839844
20
68.7944030761719
40
0.0
41
0.0
42
0.0
10
69.6884002685547
20
68.9135971069336
40
0.0
41
0.0
42
0.0
10
69.6976013183594
20
68.9329986572266
40
0.0
41
0.0
42
0.0
10
69.7301025390625
20
68.9886016845703
40
0.0
41
0.0
42
0.0
10
69.8936004638672
20
69.486198425293
40
0.0
41
0.0
42
0.0
10
69.9999008178711
20
69.8495025634766
40
0.0
41
0.0
42
0.0
10
70.0261993408203
20
69.9262008666992
40
0.0
41
0.0
42
0.0
10
70.043098449707
20
69.986701965332
40
0.0
41
0.0
42
0.0
10
70.1690979003906
20
70.3031005859375
40
0.0
41
0.0
42
0.0
10
70.2537994384766
20
70.4919967651367
40
0.0
41
0.0
42
0.0
10
70.5043029785156
20
70.7481994628906
40
0.0
41
0.0
42
0.0
10
70.5327987670898
20
70.7822036743164
40
0.0
41
0.0
42
0.0
10
70.5822982788086
20
70.8109970092773
40
0.0
41
0.0
42
0.0
10
70.719596862793
20
70.9974975585938
40
0.0
41
0.0
42
0.0
10
70.9865036010742
20
71.095100402832
40
0.0
41
0.0
42
0.0
10
71.0095977783203
20
71.1159973144531
40
0.0
41
0.0
42
0.0
10
71.3276977539062
20
71.2014999389648
40
0.0
41
0.0
42
0.0
10
71.3638000488281
20
71.2183990478516
40
0.0
41
0.0
42
0.0
10
71.5100021362305
20
71.3360977172852
40
0.0
41
0.0
42
0.0
10
71.8647003173828
20
71.4450988769531
40
0.0
41
0.0
42
0.0
10
71.8770980834961
20
71.4553985595703
40
0.0
41
0.0
42
0.0
10
71.9414978027344
20
71.497200012207
40
0.0
41
0.0
42
0.0
10
72.0099029541016
20
71.549201965332
40
0.0
41
0.0
42
0.0
10
72.1480026245117
20
71.5976028442383
40
0.0
41
0.0
42
0.0
10
72.1922988891602
20
71.6427993774414
40
0.0
41
0.0
42
0.0
10
72.407096862793
20
71.7256011962891
40
0.0
41
0.0
42
0.0
10
72.5052032470703
20
71.8357009887695
40
0.0
41
0.0
42
0.0
10
72.668098449707
20
71.7922973632812
40
0.0
41
0.0
42
0.0
10
72.7040023803711
20
71.7802963256836
40
0.0
41
0.0
42
0.0
10
72.7198028564453
20
71.7802963256836
40
0.0
41
0.0
42
0.0
10
72.7218017578125
20
71.9841003417969
40
0.0
41
0.0
42
0.0
10
72.8753967285156
20
72.3641967773438
40
0.0
41
0.0
42
0.0
10
72.967399597168
20
72.4953994750977
40
0.0
41
0.0
42
0.0
10
73.0014038085938
20
72.5466995239258
40
0.0
41
0.0
42
0.0
10
73.1965026855469
20
72.9897994995117
40
0.0
41
0.0
42
0.0
10
73.2156982421875
20
73.0204010009766
40
0.0
41
0.0
42
0.0
10
73.3180999755859
20
73.1371994018555
40
0.0
41
0.0
42
0.0
10
73.4602966308594
20
73.3860015869141
40
0.0
41
0.0
42
0.0
10
73.5027008056641
20
73.4387969970703
40
0.0
41
0.0
42
0.0
10
73.5357971191406
20
73.4935989379883
40
0.0
41
0.0
42
0.0
10
73.684196472168
20
73.6242980957031
40
0.0
41
0.0
42
0.0
10
73.8627014160156
20
73.7863006591797
40
0.0
41
0.0
42
0.0
10
73.9977035522461
20
73.8609008789062
40
0.0
41
0.0
42
0.0
10
74.2214965820312
20
73.6194000244141
40
0.0
41
0.0
42
0.0
10
74.3220977783203
20
73.4952011108398
40
0.0
41
0.0
42
0.0
10
74.2360992431641
20
73.1995010375977
40
0.0
41
0.0
42
0.0
10
74.2265014648438
20
73.1614990234375
40
0.0
41
0.0
42
0.0
10
74.2141036987305
20
73.0149002075195
40
0.0
41
0.0
42
0.0
10
74.1511001586914
20
72.8648986816406
40
0.0
41
0.0
42
0.0
10
74.0142974853516
20
72.6626968383789
40
0.0
41
0.0
42
0.0
10
73.9932022094727
20
72.6439971923828
40
0.0
41
0.0
42
0.0
10
73.8069000244141
20
72.5052032470703
40
0.0
41
0.0
42
0.0
10
73.7091979980469
20
72.3629989624023
40
0.0
41
0.0
42
0.0
10
73.5483016967773
20
72.133903503418
40
0.0
41
0.0
42
0.0
10
73.4991989135742
20
72.0733032226562
40
0.0
41
0.0
42
0.0
10
73.4336013793945
20
72.1300964355469
40
0.0
41
0.0
42
0.0
10
73.2193984985352
20
72.2922973632812
40
0.0
41
0.0
42
0.0
10
73.2072982788086
20
72.2923965454102
40
0.0
41
0.0
42
0.0
10
73.2072982788086
20
72.2786026000977
40
0.0
41
0.0
42
0.0
10
73.3619995117188
20
71.9851989746094
40
0.0
41
0.0
42
0.0
10
73.3634033203125
20
71.8758010864258
40
0.0
41
0.0
42
0.0
10
73.1169967651367
20
71.5134963989258
40
0.0
41
0.0
42
0.0
10
73.1168975830078
20
71.4804000854492
40
0.0
41
0.0
42
0.0
10
73.1298980712891
20
71.157600402832
40
0.0
41
0.0
42
0.0
10
73.0702972412109
20
71.0157012939453
40
0.0
41
0.0
42
0.0
10
73.070198059082
20
70.981201171875
40
0.0
41
0.0
42
0.0
10
73.1087036132812
20
70.6510009765625
40
0.0
41
0.0
42
0.0
10
73.0745010375977
20
70.5173034667969
40
0.0
41
0.0
42
0.0
10
73.0743026733398
20
70.4817962646484
40
0.0
41
0.0
42
0.0
10
73.1264038085938
20
70.1828002929688
40
0.0
41
0.0
42
0.0
10
73.0833969116211
20
70.0160980224609
40
0.0
41
0.0
42
0.0
10
73.0398025512695
20
69.6461029052734
40
0.0
41
0.0
42
0.0
10
73.0397033691406
20
69.609001159668
40
0.0
41
0.0
42
0.0
10
73.0557022094727
20
69.5037002563477
40
0.0
41
0.0
42
0.0
10
72.9999008178711
20
69.2751007080078
40
0.0
41
0.0
42
0.0
10
72.8874969482422
20
69.0093002319336
40
0.0
41
0.0
42
0.0
10
72.4964981079102
20
68.5054016113281
40
0.0
41
0.0
42
0.0
10
71.993896484375
20
68.0671005249023
40
0.0
41
0.0
42
0.0
10
71.9263000488281
20
68.0057983398438
40
0.0
41
0.0
42
0.0
10
71.7276000976562
20
67.7381973266602
40
0.0
41
0.0
42
0.0
10
71.5615005493164
20
67.5324020385742
40
0.0
41
0.0
42
0.0
10
71.5376968383789
20
67.5099029541016
40
0.0
41
0.0
42
0.0
10
71.5007019042969
20
67.216796875
40
0.0
41
0.0
42
0.0
10
71.4829025268555
20
67.0467987060547
40
0.0
41
0.0
42
0.0
10
71.4828033447266
20
67.0106964111328
40
0.0
41
0.0
42
0.0
10
71.4889984130859
20
66.9877014160156
40
0.0
41
0.0
42
0.0
10
71.4981002807617
20
66.9705963134766
40
0.0
41
0.0
42
0.0
10
71.5689010620117
20
66.8593978881836
40
0.0
41
0.0
42
0.0
10
71.597900390625
20
66.8019027709961
40
0.0
41
0.0
42
0.0
10
71.6639022827148
20
66.488899230957
40
0.0
41
0.0
42
0.0
10
71.8032989501953
20
66.3065032958984
40
0.0
41
0.0
42
0.0
10
71.9813995361328
20
65.992301940918
40
0.0
41
0.0
42
0.0
10
71.9960021972656
20
65.9761962890625
40
0.0
41
0.0
42
0.0
10
72.3093032836914
20
65.6661987304688
40
0.0
41
0.0
42
0.0
10
72.3483963012695
20
65.6314010620117
40
0.0
41
0.0
42
0.0
10
72.4981994628906
20
65.5121002197266
40
0.0
41
0.0
42
0.0
10
72.6414031982422
20
65.4495010375977
40
0.0
41
0.0
42
0.0
10
72.9868011474609
20
65.265998840332
40
0.0
41
0.0
42
0.0
10
73.3376998901367
20
65.2046966552734
40
0.0
41
0.0
42
0.0
10
73.4809036254883
20
65.1917037963867
40
0.0
41
0.0
42
0.0
10
73.5186996459961
20
65.1915969848633
40
0.0
41
0.0
42
0.0
10
73.8718032836914
20
65.2356033325195
40
0.0
41
0.0
42
0.0
10
74.0141983032227
20
65.2617034912109
40
0.0
41
0.0
42
0.0
10
74.3672027587891
20
65.3983001708984
40
0.0
41
0.0
42
0.0
10
74.4541015625
20
65.4339981079102
40
0.0
41
0.0
42
0.0
10
74.5102996826172
20
65.4591979980469
40
0.0
41
0.0
42
0.0
10
74.5740966796875
20
65.4972991943359
40
0.0
41
0.0
42
0.0
10
74.7216033935547
20
65.6149978637695
40
0.0
41
0.0
42
0.0
10
74.8630981445312
20
65.7184982299805
40
0.0
41
0.0
42
0.0
10
75.0082015991211
20
65.8110961914062
40
0.0
41
0.0
42
0.0
10
75.0440979003906
20
65.8368988037109
40
0.0
41
0.0
42
0.0
10
75.2061996459961
20
65.9922027587891
40
0.0
41
0.0
42
0.0
10
75.3498992919922
20
66.3240966796875
40
0.0
41
0.0
42
0.0
10
75.4979019165039
20
66.4879989624023
40
0.0
41
0.0
42
0.0
10
75.497802734375
20
67.0070037841797
40
0.0
41
0.0
42
0.0
10
75.4962997436523
20
67.0150985717773
40
0.0
41
0.0
42
0.0
10
75.4284973144531
20
67.2464981079102
40
0.0
41
0.0
42
0.0
10
75.2858963012695
20
67.5102005004883
40
0.0
41
0.0
42
0.0
10
75.2456970214844
20
67.5901031494141
40
0.0
41
0.0
42
0.0
10
75.1863021850586
20
67.6903991699219
40
0.0
41
0.0
42
0.0
10
75.1355972290039
20
67.7951965332031
40
0.0
41
0.0
42
0.0
10
75.0122985839844
20
68.0102996826172
40
0.0
41
0.0
42
0.0
10
74.899299621582
20
68.2596969604492
40
0.0
41
0.0
42
0.0
10
74.8130035400391
20
68.5136032104492
40
0.0
41
0.0
42
0.0
10
74.7599029541016
20
68.6940994262695
40
0.0
41
0.0
42
0.0
10
74.7800979614258
20
68.9806976318359
40
0.0
41
0.0
42
0.0
10
74.7799987792969
20
69.0195999145508
40
0.0
41
0.0
42
0.0
10
74.7743988037109
20
69.1722030639648
40
0.0
41
0.0
42
0.0
10
74.9243011474609
20
69.4906997680664
40
0.0
41
0.0
42
0.0
10
74.9860992431641
20
69.5756988525391
40
0.0
41
0.0
42
0.0
10
74.9878005981445
20
69.5814971923828
40
0.0
41
0.0
42
0.0
10
75.0070037841797
20
69.7288970947266
40
0.0
41
0.0
42
0.0
10
75.1513977050781
20
69.9869003295898
40
0.0
41
0.0
42
0.0
10
75.173698425293
20
70.1315994262695
40
0.0
41
0.0
42
0.0
10
75.3573989868164
20
70.4856033325195
40
0.0
41
0.0
42
0.0
10
75.3644027709961
20
70.6286010742188
40
0.0
41
0.0
42
0.0
10
75.4738998413086
20
70.9831008911133
40
0.0
41
0.0
42
0.0
10
75.4738006591797
20
71.018798828125
40
0.0
41
0.0
42
0.0
10
75.470100402832
20
71.0519027709961
40
0.0
41
0.0
42
0.0
10
75.4483032226562
20
71.4969024658203
40
0.0
41
0.0
42
0.0
10
75.4458999633789
20
71.5164031982422
40
0.0
41
0.0
42
0.0
10
75.4309005737305
20
71.5830993652344
40
0.0
41
0.0
42
0.0
10
75.2960968017578
20
72.0126037597656
40
0.0
41
0.0
42
0.0
10
75.1473007202148
20
72.3563003540039
40
0.0
41
0.0
42
0.0
10
75.1176986694336
20
72.5151977539062
40
0.0
41
0.0
42
0.0
10
75.0419006347656
20
72.7910003662109
40
0.0
41
0.0
42
0.0
10
75.0274963378906
20
72.9893035888672
40
0.0
41
0.0
42
0.0
10
75.1009979248047
20
73.1318969726562
40
0.0
41
0.0
42
0.0
10
75.1696014404297
20
73.4934997558594
40
0.0
41
0.0
42
0.0
10
75.3880004882812
20
73.6158981323242
40
0.0
41
0.0
42
0.0
10
75.4961013793945
20
73.655403137207
40
0.0
41
0.0
42
0.0
10
75.6093978881836
20
73.5420989990234
40
0.0
41
0.0
42
0.0
10
75.6741027832031
20
73.492301940918
40
0.0
41
0.0
42
0.0
10
75.7627029418945
20
73.1708984375
40
0.0
41
0.0
42
0.0
10
75.7748031616211
20
73.1327972412109
40
0.0
41
0.0
42
0.0
10
75.8478012084961
20
72.9857025146484
40
0.0
41
0.0
42
0.0
10
75.8777008056641
20
72.6296997070312
40
0.0
41
0.0
42
0.0
10
75.9018020629883
20
72.5684967041016
40
0.0
41
0.0
42
0.0
10
75.9486999511719
20
72.4960021972656
40
0.0
41
0.0
42
0.0
10
75.9040985107422
20
72.3490982055664
40
0.0
41
0.0
42
0.0
10
75.9039993286133
20
72.3161010742188
40
0.0
41
0.0
42
0.0
10
76.0005035400391
20
72.0593032836914
40
0.0
41
0.0
42
0.0
10
76.0087966918945
20
71.9832992553711
40
0.0
41
0.0
42
0.0
10
76.0124969482422
20
71.9654006958008
40
0.0
41
0.0
42
0.0
10
76.0417022705078
20
71.4935989379883
40
0.0
41
0.0
42
0.0
10
76.098503112793
20
71.25830078125
40
0.0
41
0.0
42
0.0
10
76.1442031860352
20
71.1430969238281
40
0.0
41
0.0
42
0.0
10
76.2033004760742
20
71.0186996459961
40
0.0
41
0.0
42
0.0
10
76.2217025756836
20
70.9952011108398
40
0.0
41
0.0
42
0.0
10
76.4927978515625
20
70.7988967895508
40
0.0
41
0.0
42
0.0
10
76.6517028808594
20
70.6664962768555
40
0.0
41
0.0
42
0.0
10
76.6800994873047
20
70.6374969482422
40
0.0
41
0.0
42
0.0
10
76.7592010498047
20
70.4900970458984
40
0.0
41
0.0
42
0.0
10
76.8123016357422
20
70.3968963623047
40
0.0
41
0.0
42
0.0
10
76.8303985595703
20
70.3741989135742
40
0.0
41
0.0
42
0.0
10
76.9922027587891
20
70.2534027099609
40
0.0
41
0.0
42
0.0
10
77.2723007202148
20
70.0588989257812
40
0.0
41
0.0
42
0.0
10
77.3169021606445
20
69.989501953125
40
0.0
41
0.0
42
0.0
10
77.3883972167969
20
69.8054962158203
40
0.0
41
0.0
42
0.0
10
77.4703979492188
20
69.7025985717773
40
0.0
41
0.0
42
0.0
10
77.6818008422852
20
69.4908981323242
40
0.0
41
0.0
42
0.0
10
77.7553024291992
20
69.2304000854492
40
0.0
41
0.0
42
0.0
10
77.8200988769531
20
68.9831008911133
40
0.0
41
0.0
42
0.0
10
77.8196029663086
20
68.7987976074219
40
0.0
41
0.0
42
0.0
10
77.8240966796875
20
68.513298034668
40
0.0
41
0.0
42
0.0
10
77.7791976928711
20
68.0189971923828
40
0.0
41
0.0
42
0.0
10
77.779899597168
20
67.7938003540039
40
0.0
41
0.0
42
0.0
10
77.7733001708984
20
67.4845962524414
40
0.0
41
0.0
42
0.0
10
77.9990997314453
20
67.0242004394531
40
0.0
41
0.0
42
0.0
10
78.0110015869141
20
66.9937973022461
40
0.0
41
0.0
42
0.0
10
78.1302032470703
20
66.9163970947266
40
0.0
41
0.0
42
0.0
10
78.3051986694336
20
66.7835998535156
40
0.0
41
0.0
42
0.0
10
78.4878005981445
20
66.7147979736328
40
0.0
41
0.0
42
0.0
10
78.8012008666992
20
66.5792007446289
40
0.0
41
0.0
42
0.0
10
78.9835968017578
20
66.5429992675781
40
0.0
41
0.0
42
0.0
10
79.2531967163086
20
66.5007019042969
40
0.0
41
0.0
42
0.0
10
79.2940979003906
20
66.4954986572266
40
0.0
41
0.0
42
0.0
10
79.3653030395508
20
66.4941024780273
40
0.0
41
0.0
42
0.0
210
0.0
220
0.0
230
1.0
0
LWPOLYLINE
5
28
330
1C
100
AcDbEntity
67
0
8
0
62
256
6
ByLayer
370
-1
48
1.0
60
0
100
AcDbPolyline
90
27
70
1
38
0.0
39
0.0
10
82.5195007324219
20
65.0009994506836
40
0.0
41
0.0
42
0.0
10
82.5483016967773
20
65.0009994506836
40
0.0
41
0.0
42
0.0
10
82.86669921875
20
65.154899597168
40
0.0
41
0.0
42
0.0
10
83.0124969482422
20
65.209098815918
40
0.0
41
0.0
42
0.0
10
83.3582000732422
20
65.3432998657227
40
0.0
41
0.0
42
0.0
10
83.5147018432617
20
65.3889007568359
40
0.0
41
0.0
42
0.0
10
83.6993026733398
20
65.4296035766602
40
0.0
41
0.0
42
0.0
10
83.9040985107422
20
65.4999008178711
40
0.0
41
0.0
42
0.0
10
84.0166015625
20
65.5354995727539
40
0.0
41
0.0
42
0.0
10
84.203498840332
20
65.5376968383789
40
0.0
41
0.0
42
0.0
10
84.5017013549805
20
65.6038970947266
40
0.0
41
0.0
42
0.0
10
84.8715972900391
20
65.5381011962891
40
0.0
41
0.0
42
0.0
10
84.9990005493164
20
65.5416030883789
40
0.0
41
0.0
42
0.0
10
84.9990005493164
20
65.5718002319336
40
0.0
41
0.0
42
0.0
10
84.817497253418
20
65.5660018920898
40
0.0
41
0.0
42
0.0
10
84.5180969238281
20
65.6192016601562
40
0.0
41
0.0
42
0.0
10
84.4822998046875
20
65.6191024780273
40
0.0
41
0.0
42
0.0
10
84.1281967163086
20
65.5404968261719
40
0.0
41
0.0
42
0.0
10
83.9832992553711
20
65.5388031005859
40
0.0
41
0.0
42
0.0
10
83.8610000610352
20
65.5
40
0.0
41
0.0
42
0.0
10
83.6305999755859
20
65.4212036132812
40
0.0
41
0.0
42
0.0
10
83.4851989746094
20
65.3891983032227
40
0.0
41
0.0
42
0.0
10
83.3018035888672
20
65.3348999023438
40
0.0
41
0.0
42
0.0
10
82.9873962402344
20
65.2126998901367
40
0.0
41
0.0
42
0.0
10
82.8031997680664
20
65.144401550293
40
0.0
41
0.0
42
0.0
10
82.5195007324219
20
65.0067977905273
40
0.0
41
0.0
42
0.0
10
82.5195007324219
20
65.0009994506836
40
0.0
41
0.0
42
0.0
210
0.0
220
0.0
230
1.0
0
LWPOLYLINE
5
29
330
1C
100
AcDbEntity
67
0
8
0
62
256
6
ByLayer
370
-1
48
1.0
60
0
100
AcDbPolyline
90
28
70
1
38
0.0
39
0.0
10
84.3806991577148
20
84.5180969238281
40
0.0
41
0.0
42
0.0
10
84.3805999755859
20
84.4822998046875
40
0.0
41
0.0
42
0.0
10
84.4591979980469
20
84.1281967163086
40
0.0
41
0.0
42
0.0
10
84.4608993530273
20
83.9832992553711
40
0.0
41
0.0
42
0.0
10
84.4998016357422
20
83.8610000610352
40
0.0
41
0.0
42
0.0
10
84.578498840332
20
83.6305999755859
40
0.0
41
0.0
42
0.0
10
84.6102981567383
20
83.4860000610352
40
0.0
41
0.0
42
0.0
10
84.7365036010742
20
83.1616973876953
40
0.0
41
0.0
42
0.0
10
84.7873001098633
20
82.9865036010742
40
0.0
41
0.0
42
0.0
10
84.8553009033203
20
82.8031997680664
40
0.0
41
0.0
42
0.0
10
84.9931030273438
20
82.5195007324219
40
0.0
41
0.0
42
0.0
10
84.9990005493164
20
82.5195007324219
40
0.0
41
0.0
42
0.0
10
84.9988021850586
20
82.5483016967773
40
0.0
41
0.0
42
0.0
10
84.8448028564453
20
82.86669921875
40
0.0
41
0.0
42
0.0
10
84.790397644043
20
83.013298034668
40
0.0
41
0.0
42
0.0
10
84.7482986450195
20
83.158203125
40
0.0
41
0.0
42
0.0
10
84.6110000610352
20
83.513801574707
40
0.0
41
0.0
42
0.0
10
84.5700988769531
20
83.6992034912109
40
0.0
41
0.0
42
0.0
10
84.4999008178711
20
83.9039993286133
40
0.0
41
0.0
42
0.0
10
84.4642028808594
20
84.0166015625
40
0.0
41
0.0
42
0.0
10
84.4621963500977
20
84.203498840332
40
0.0
41
0.0
42
0.0
10
84.3957977294922
20
84.5017013549805
40
0.0
41
0.0
42
0.0
10
84.4616012573242
20
84.8715972900391
40
0.0
41
0.0
42
0.0
10
84.4582977294922
20
84.9990005493164
40
0.0
41
0.0
42
0.0
10
84.4281005859375
20
84.9990005493164
40
0.0
41
0.0
42
0.0
10
84.4280014038086
20
84.9803009033203
40
0.0
41
0.0
42
0.0
10
84.4337005615234
20
84.817497253418
40
0.0
41
0.0
42
0.0
10
84.3806991577148
20
84.5180969238281
40
0.0
41
0.0
42
0.0
210
0.0
220
0.0
230
1.0
0
VIEWPORT
5
2E
330
2A
100
AcDbEntity
67
1
8
0
62
256
6
ByLayer
370
-1
48
1.0
60
0
100
AcDbViewport
10
0.0
20
0.0
30
0.0
40
297.0
41
210.0
68
1
69
1
12
50.0
22
100.0
13
0.0
23
0.0
14
10.0
24
10.0
15
10.0
25
10.0
16
0.0
26
0.0
36
1.0
17
0.0
27
0.0
37
0.0
42
50.0
43
0.0
44
0.0
45
250.0
50
0.0
51
0.0
72
1000
90
819232
110
0.0
120
0.0
130
0.0
111
1.0
121
0.0
131
0.0
112
0.0
122
1.0
132
0.0
0
ENDSEC
0
SECTION
2
OBJECTS
0
DICTIONARY
5
34
330
0
100
AcDbDictionary
280
1
281
1
3
ACAD_GROUP
350
12
3
ACAD_LAYOUT
350
2D
3
ACAD_DGNDEFINITIONS
350
F
3
ACAD_DWFDEFINITIONS
350
10
3
ACAD_PDFDEFINITIONS
350
11
3
ACAD_MLINESTYLE
350
B
3
ACAD_IMAGE_DICT
350
E
3
ACAD_IMAGE_VARS
350
21
0
DICTIONARY
5
12
330
34
100
AcDbDictionary
280
1
281
1
0
DICTIONARY
5
2D
330
34
100
AcDbDictionary
280
1
281
1
3
Model
350
20
3
Layout1
350
2F
0
DICTIONARY
5
F
330
34
100
AcDbDictionary
280
1
281
1
0
DICTIONARY
5
10
330
34
100
AcDbDictionary
280
1
281
1
0
DICTIONARY
5
11
330
34
100
AcDbDictionary
280
1
281
1
0
DICTIONARY
5
B
330
34
100
AcDbDictionary
280
1
281
1
3
Standard
350
1B
0
DICTIONARY
5
E
330
34
100
AcDbDictionary
280
1
281
1
0
DICTIONARY
5
6
330
5
100
AcDbDictionary
280
1
281
1
3
ACAD_LAYERSTATES
360
35
0
DICTIONARY
5
35
330
6
100
AcDbDictionary
280
1
281
1
0
LAYOUT
5
20
330
2D
100
AcDbPlotSettings
1

2
none_device
4
ISO_A4_(210.00_x_297.00_MM)
6

40
7.5
41
20.0
42
7.5
43
20.0
44
210.0
45
297.0
46
0.0
47
0.0
48
0.0
49
0.0
140
0.0
141
0.0
142
1.0
143
1.0
70
11952
72
1
73
1
74
1
7

75
0
76
0
77
2
78
300
147
1.0
148
0.0
149
0.0
100
AcDbLayout
1
Model
71
0
10
-20.0
20
-7.5
11
277.0
21
202.5
12
0.0
22
0.0
32
0.0
14
25.7
24
19.5
34
0.0
15
231.3
25
175.5
35
0.0
146
0.0
13
0.0
23
0.0
33
0.0
16
1.0
26
0.0
36
0.0
17
0.0
27
1.0
37
0.0
76
0
330
1C
0
LAYOUT
5
2F
330
2D
100
AcDbPlotSettings
1

2
none_device
4
ISO_A4_(210.00_x_297.00_MM)
6

40
7.5
41
20.0
42
7.5
43
20.0
44
210.0
45
297.0
46
0.0
47
0.0
48
0.0
49
0.0
140
0.0
141
0.0
142
1.0
143
1.0
70
688
72
1
73
1
74
1
7

75
0
76
0
77
2
78
300
147
1.0
148
0.0
149
0.0
100
AcDbLayout
1
Layout1
71
1
10
-20.0
20
-7.5
11
277.0
21
202.5
12
0.0
22
0.0
32
0.0
14
25.7
24
19.5
34
0.0
15
231.3
25
175.5
35
0.0
146
0.0
13
0.0
23
0.0
33
0.0
16
1.0
26
0.0
36
0.0
17
0.0
27
1.0
37
0.0
76
0
330
2A
0
MLINESTYLE
5
1B
330
B
100
AcDbMlineStyle
2
Standard
70
0
3

62
256
51
90.0
52
90.0
71
2
49
0.5
62
256
6
ByLayer
49
-0.5
62
256
6
ByLayer
0
RASTERVARIABLES
5
21
330
E
100
AcDbRasterVariables
90
0
70
1
71
1
72
0
0
ENDSEC
0
EOF
