999
DXF file generated by netDxf https://github.com/haplokuon/netDxf, Copyright(C) Daniel Carvajal, Licensed under MIT
0
SECTION
2
HEADER
9
$ACADVER
1
AC1015
9
$DWGCODEPAGE
3
ANSI_1252
9
$HANDSEED
5
40
9
$ANGBASE
50
0.0
9
$ANGDIR
70
0
9
$ATTMODE
70
1
9
$AUNITS
70
0
9
$AUPREC
70
0
9
$CECOLOR
62
256
9
$CELTSCALE
40
1.0
9
$CELTYPE
6
ByLayer
9
$CELWEIGHT
370
-1
9
$CLAYER
8
0
9
$CMLJUST
70
0
9
$CMLSCALE
40
20.0
9
$CMLSTYLE
2
Standard
9
$DIMSTYLE
2
Standard
9
$TEXTSIZE
40
2.5
9
$TEXTSTYLE
7
Standard
9
$LUNITS
70
2
9
$LUPREC
70
4
9
$MIRRTEXT
70
0
9
$EXTNAMES
290
1
9
$INSBASE
10
0.0
20
0.0
30
0.0
9
$INSUNITS
70
0
9
$LTSCALE
40
1.0
9
$LWDISPLAY
290
0
9
$PDMODE
70
0
9
$PDSIZE
40
0.0
9
$PLINEGEN
70
0
9
$PSLTSCALE
70
1
9
$SPLINESEGS
70
8
9
$SURFU
70
6
9
$SURFV
70
6
9
$TDCREATE
40
2460823.4837263
9
$TDUCREATE
40
2460823.15039296
9
$TDUPDATE
40
2460823.4837263
9
$TDUUPDATE
40
2460823.15039296
9
$TDINDWG
40
0.0
9
$UCSORG
10
0.0
20
0.0
30
0.0
9
$UCSXDIR
10
1.0
20
0.0
30
0.0
9
$UCSYDIR
10
0.0
20
1.0
30
0.0
9
$DIMADEC
70
0
9
$DIMALT
70
0
9
$DIMALTD
70
2
9
$DIMALTF
40
25.4
9
$DIMALTRND
40
0.0
9
$DIMALTTD
70
2
9
$DIMALTTZ
70
0
9
$DIMALTU
70
2
9
$DIMALTZ
70
0
9
$DIMAPOST
1

9
$DIMATFIT
70
3
9
$DIMAUNIT
70
0
9
$DIMASZ
40
0.18
9
$DIMAZIN
70
0
9
$DIMSAH
70
0
9
$DIMBLK
1

9
$DIMLDRBLK
1

9
$DIMCEN
40
0.09
9
$DIMCLRD
70
0
9
$DIMCLRE
70
0
9
$DIMCLRT
70
0
9
$DIMDEC
70
4
9
$DIMDLE
40
0.0
9
$DIMDLI
40
0.38
9
$DIMDSEP
70
46
9
$DIMEXE
40
0.18
9
$DIMEXO
40
0.0625
9
$DIMFXLON
70
0
9
$DIMFXL
40
1.0
9
$DIMGAP
40
0.09
9
$DIMJUST
70
0
9
$DIMLFAC
40
1.0
9
$DIMLUNIT
70
2
9
$DIMLWD
70
-2
9
$DIMLWE
70
-2
9
$DIMPOST
1

9
$DIMRND
40
0.0
9
$DIMSCALE
40
1.0
9
$DIMSD1
70
0
9
$DIMSD2
70
0
9
$DIMSE1
70
0
9
$DIMSE2
70
0
9
$DIMSOXD
70
0
9
$DIMTAD
70
0
9
$DIMTDEC
70
4
9
$DIMTFAC
40
1.0
9
$DIMTIH
70
0
9
$DIMTIX
70
0
9
$DIMTM
40
0.0
9
$DIMTMOVE
70
0
9
$DIMTOFL
70
0
9
$DIMTOH
70
0
9
$DIMTOL
70
0
9
$DIMLIM
70
0
9
$DIMTOLJ
70
1
9
$DIMTP
40
0.0
9
$DIMTXT
40
0.18
9
$DIMTXTDIRECTION
70
0
9
$DIMTZIN
70
0
9
$DIMZIN
70
0
9
$DIMFRAC
70
0
9
$DIMLTYPE
6
ByBlock
9
$DIMLTEX1
6
ByBlock
9
$DIMLTEX2
6
ByBlock
0
ENDSEC
0
SECTION
2
CLASSES
0
CLASS
1
RASTERVARIABLES
2
AcDbRasterVariables
3
ISM
90
0
280
0
281
0
0
ENDSEC
0
SECTION
2
TABLES
0
TABLE
2
APPID
5
4
330
0
100
AcDbSymbolTable
70
5
0
APPID
5
19
330
4
100
AcDbSymbolTableRecord
100
AcDbRegAppTableRecord
2
ACAD
70
0
0
APPID
5
3A
330
4
100
AcDbSymbolTableRecord
100
AcDbRegAppTableRecord
2
AcCmTransparency
70
0
0
APPID
5
3B
330
4
100
AcDbSymbolTableRecord
100
AcDbRegAppTableRecord
2
AcAecLayerStandard
70
0
0
APPID
5
3C
330
4
100
AcDbSymbolTableRecord
100
AcDbRegAppTableRecord
2
GradientColor1ACI
70
0
0
APPID
5
3D
330
4
100
AcDbSymbolTableRecord
100
AcDbRegAppTableRecord
2
GradientColor2ACI
70
0
0
ENDTAB
0
TABLE
2
VPORT
5
1
330
0
100
AcDbSymbolTable
70
1
0
VPORT
5
2
330
1
100
AcDbSymbolTableRecord
100
AcDbViewportTableRecord
2
*Active
70
0
10
0.0
20
0.0
11
1.0
21
1.0
12
0.0
22
0.0
13
0.0
23
0.0
14
0.5
24
0.5
15
10.0
25
10.0
16
0.0
26
0.0
36
1.0
17
0.0
27
0.0
37
0.0
40
10.0
41
1.0
75
0
76
1
0
ENDTAB
0
TABLE
2
LTYPE
5
7
330
0
100
AcDbSymbolTable
70
3
0
LTYPE
5
15
330
7
100
AcDbSymbolTableRecord
100
AcDbLinetypeTableRecord
2
Continuous
70
0
3
Solid line
72
65
73
0
40
0.0
0
LTYPE
5
16
330
7
100
AcDbSymbolTableRecord
100
AcDbLinetypeTableRecord
2
ByLayer
70
0
3

72
65
73
0
40
0.0
0
LTYPE
5
17
330
7
100
AcDbSymbolTableRecord
100
AcDbLinetypeTableRecord
2
ByBlock
70
0
3

72
65
73
0
40
0.0
0
ENDTAB
0
TABLE
2
LAYER
5
5
102
{ACAD_XDICTIONARY
360
6
102
}
330
0
100
AcDbSymbolTable
70
1
0
LAYER
5
14
330
5
100
AcDbSymbolTableRecord
100
AcDbLayerTableRecord
2
0
70
0
62
7
6
Continuous
290
1
370
-3
390
0
0
ENDTAB
0
TABLE
2
STYLE
5
8
330
0
100
AcDbSymbolTable
70
1
0
STYLE
5
18
330
8
100
AcDbSymbolTableRecord
100
AcDbTextStyleTableRecord
2
Standard
3
simplex.shx
70
0
71
0
40
0.0
41
1.0
42
0.0
50
0.0
0
ENDTAB
0
TABLE
2
DIMSTYLE
5
A
330
0
100
AcDbSymbolTable
70
1
100
AcDbDimStyleTable
0
DIMSTYLE
105
1A
330
A
100
AcDbSymbolTableRecord
100
AcDbDimStyleTableRecord
2
Standard
3

4

40
1.0
41
0.18
42
0.0625
43
0.38
44
0.18
45
0.0
46
0.0
47
0.0
48
0.0
49
1.0
70
0
71
0
72
0
73
0
74
0
75
0
76
0
77
0
78
0
79
0
140
0.18
141
0.09
143
25.4
144
1.0
146
1.0
147
0.09
148
0.0
170
0
171
2
172
0
174
0
175
0
176
0
177
0
178
0
179
0
271
4
272
4
273
2
274
2
275
0
276
0
277
2
278
46
279
0
280
0
281
0
282
0
283
1
284
0
285
0
286
0
289
3
290
0
294
0
340
18
173
0
345
17
346
17
347
17
371
-2
372
-2
0
ENDTAB
0
TABLE
2
VIEW
5
3
330
0
100
AcDbSymbolTable
70
0
0
ENDTAB
0
TABLE
2
UCS
5
C
330
0
100
AcDbSymbolTable
70
0
0
ENDTAB
0
TABLE
2
BLOCK_RECORD
5
D
330
0
100
AcDbSymbolTable
70
2
0
BLOCK_RECORD
5
1C
330
D
100
AcDbSymbolTableRecord
100
AcDbBlockTableRecord
2
*Model_Space
340
20
0
BLOCK_RECORD
5
34
330
D
100
AcDbSymbolTableRecord
100
AcDbBlockTableRecord
2
*Paper_Space
340
39
0
ENDTAB
0
ENDSEC
0
SECTION
2
BLOCKS
0
BLOCK
5
1E
330
1C
100
AcDbEntity
67
0
8
0
100
AcDbBlockBegin
2
*Model_Space
70
0
10
0.0
20
0.0
30
0.0
3
*Model_Space
4

0
ENDBLK
5
1D
330
1C
100
AcDbEntity
8
0
100
AcDbBlockEnd
0
BLOCK
5
36
330
34
100
AcDbEntity
67
1
8
0
100
AcDbBlockBegin
2
*Paper_Space
70
0
10
0.0
20
0.0
30
0.0
3
*Paper_Space
4

0
ENDBLK
5
35
330
34
100
AcDbEntity
8
0
100
AcDbBlockEnd
0
ENDSEC
0
SECTION
2
ENTITIES
0
LWPOLYLINE
5
22
330
1C
100
AcDbEntity
67
0
8
0
62
256
6
ByLayer
370
-1
48
1.0
60
0
100
AcDbPolyline
90
34
70
1
38
0.0
39
0.0
10
65.0009994506836
20
66.0947036743164
40
0.0
41
0.0
42
0.0
10
65.0009994506836
20
66.0712966918945
40
0.0
41
0.0
42
0.0
10
65.0105972290039
20
66.0712966918945
40
0.0
41
0.0
42
0.0
10
65.0286026000977
20
66.0910034179688
40
0.0
41
0.0
42
0.0
10
65.5087966918945
20
66.245002746582
40
0.0
41
0.0
42
0.0
10
65.6532974243164
20
66.4870986938477
40
0.0
41
0.0
42
0.0
10
65.7276992797852
20
66.9877014160156
40
0.0
41
0.0
42
0.0
10
65.7227020263672
20
67.5255966186523
40
0.0
41
0.0
42
0.0
10
65.6901016235352
20
68.0246963500977
40
0.0
41
0.0
42
0.0
10
65.6362991333008
20
68.5149993896484
40
0.0
41
0.0
42
0.0
10
65.6361999511719
20
68.52490234375
40
0.0
41
0.0
42
0.0
10
65.5258026123047
20
69.0141983032227
40
0.0
41
0.0
42
0.0
10
65.5186004638672
20
69.0348968505859
40
0.0
41
0.0
42
0.0
10
65.5007019042969
20
69.0771026611328
40
0.0
41
0.0
42
0.0
10
65.3016967773438
20
69.5077972412109
40
0.0
41
0.0
42
0.0
10
65.2814025878906
20
69.5286026000977
40
0.0
41
0.0
42
0.0
10
65.0115966796875
20
69.7850036621094
40
0.0
41
0.0
42
0.0
10
65.0009994506836
20
69.7850036621094
40
0.0
41
0.0
42
0.0
10
65.0009002685547
20
69.7005004882812
40
0.0
41
0.0
42
0.0
10
65.220100402832
20
69.4924011230469
40
0.0
41
0.0
42
0.0
10
65.3830032348633
20
69.1395034790039
40
0.0
41
0.0
42
0.0
10
65.4190979003906
20
69.0693969726562
40
0.0
41
0.0
42
0.0
10
65.4712982177734
20
68.9889984130859
40
0.0
41
0.0
42
0.0
10
65.5001983642578
20
68.8982009887695
40
0.0
41
0.0
42
0.0
10
65.5990982055664
20
68.4834976196289
40
0.0
41
0.0
42
0.0
10
65.6401977539062
20
68.1097030639648
40
0.0
41
0.0
42
0.0
10
65.6624984741211
20
67.9824981689453
40
0.0
41
0.0
42
0.0
10
65.6912002563477
20
67.5495986938477
40
0.0
41
0.0
42
0.0
10
65.7060012817383
20
67.4466018676758
40
0.0
41
0.0
42
0.0
10
65.7108993530273
20
66.978401184082
40
0.0
41
0.0
42
0.0
10
65.6406021118164
20
66.5063018798828
40
0.0
41
0.0
42
0.0
10
65.493896484375
20
66.2602996826172
40
0.0
41
0.0
42
0.0
10
65.0240020751953
20
66.1094970703125
40
0.0
41
0.0
42
0.0
10
65.0009994506836
20
66.0947036743164
40
0.0
41
0.0
42
0.0
210
0.0
220
0.0
230
1.0
0
LWPOLYLINE
5
23
330
1C
100
AcDbEntity
67
0
8
0
62
256
6
ByLayer
370
-1
48
1.0
60
0
100
AcDbPolyline
90
222
70
1
38
0.0
39
0.0
10
65.3631973266602
20
76.9886016845703
40
0.0
41
0.0
42
0.0
10
65.3646011352539
20
76.9871978759766
40
0.0
41
0.0
42
0.0
10
65.3713989257812
20
76.9503021240234
40
0.0
41
0.0
42
0.0
10
65.497200012207
20
76.5884017944336
40
0.0
41
0.0
42
0.0
10
65.5179977416992
20
76.4850006103516
40
0.0
41
0.0
42
0.0
10
65.5279998779297
20
76.4518966674805
40
0.0
41
0.0
42
0.0
10
65.7128982543945
20
75.9881973266602
40
0.0
41
0.0
42
0.0
10
65.7285003662109
20
75.9542999267578
40
0.0
41
0.0
42
0.0
10
65.9802017211914
20
75.4901962280273
40
0.0
41
0.0
42
0.0
10
66.2863998413086
20
74.9550018310547
40
0.0
41
0.0
42
0.0
10
66.4929962158203
20
74.5608978271484
40
0.0
41
0.0
42
0.0
10
66.5357971191406
20
74.4903030395508
40
0.0
41
0.0
42
0.0
10
66.5556030273438
20
74.4536972045898
40
0.0
41
0.0
42
0.0
10
66.7332000732422
20
73.9857025146484
40
0.0
41
0.0
42
0.0
10
66.7391967773438
20
73.9552001953125
40
0.0
41
0.0
42
0.0
10
66.7708969116211
20
73.5065994262695
40
0.0
41
0.0
42
0.0
10
66.6949005126953
20
73.0158004760742
40
0.0
41
0.0
42
0.0
10
66.5008010864258
20
72.2255020141602
40
0.0
41
0.0
42
0.0
10
66.4465026855469
20
72.0150985717773
40
0.0
41
0.0
42
0.0
10
66.3388977050781
20
71.5162963867188
40
0.0
41
0.0
42
0.0
10
66.2713012695312
20
71.0201034545898
40
0.0
41
0.0
42
0.0
10
66.2699966430664
20
71.0164031982422
40
0.0
41
0.0
42
0.0
10
66.2675018310547
20
70.5233001708984
40
0.0
41
0.0
42
0.0
10
66.2655029296875
20
70.5100021362305
40
0.0
41
0.0
42
0.0
10
66.2654037475586
20
70.4748992919922
40
0.0
41
0.0
42
0.0
10
66.4192962646484
20
69.9929962158203
40
0.0
41
0.0
42
0.0
10
66.4234008789062
20
69.9899978637695
40
0.0
41
0.0
42
0.0
10
66.4945983886719
20
69.9119033813477
40
0.0
41
0.0
42
0.0
10
66.9573974609375
20
69.4971008300781
40
0.0
41
0.0
42
0.0
10
66.9794998168945
20
69.4871978759766
40
0.0
41
0.0
42
0.0
10
66.9841003417969
20
69.4869995117188
40
0.0
41
0.0
42
0.0
10
67.0251007080078
20
69.4613037109375
40
0.0
41
0.0
42
0.0
10
67.4879989624023
20
69.2389984130859
40
0.0
41
0.0
42
0.0
10
67.9525985717773
20
69.0738983154297
40
0.0
41
0.0
42
0.0
10
67.9870986938477
20
69.059196472168
40
0.0
41
0.0
42
0.0
10
68.4857025146484
20
68.9098968505859
40
0.0
41
0.0
42
0.0
10
69.0210037231445
20
68.7621994018555
40
0.0
41
0.0
42
0.0
10
69.4916000366211
20
68.6087036132812
40
0.0
41
0.0
42
0.0
10
69.7193984985352
20
68.4982986450195
40
0.0
41
0.0
42
0.0
10
69.9585037231445
20
68.3483963012695
40
0.0
41
0.0
42
0.0
10
69.9914016723633
20
68.334098815918
40
0.0
41
0.0
42
0.0
10
70.0083999633789
20
68.3188018798828
40
0.0
41
0.0
42
0.0
10
70.3170013427734
20
67.9935989379883
40
0.0
41
0.0
42
0.0
10
70.497200012207
20
67.7636032104492
40
0.0
41
0.0
42
0.0
10
70.9975967407227
20
66.9418029785156
40
0.0
41
0.0
42
0.0
10
71.2934036254883
20
66.493896484375
40
0.0
41
0.0
42
0.0
10
71.2976989746094
20
66.4856033325195
40
0.0
41
0.0
42
0.0
10
71.4962997436523
20
66.1910018920898
40
0.0
41
0.0
42
0.0
10
71.6854019165039
20
65.9941024780273
40
0.0
41
0.0
42
0.0
10
71.9927978515625
20
65.6455993652344
40
0.0
41
0.0
42
0.0
10
72.3015975952148
20
65.4981994628906
40
0.0
41
0.0
42
0.0
10
72.4863967895508
20
65.3725967407227
40
0.0
41
0.0
42
0.0
10
72.5143966674805
20
65.3724975585938
40
0.0
41
0.0
42
0.0
10
72.5184020996094
20
65.3747024536133
40
0.0
41
0.0
42
0.0
10
73.0110015869141
20
65.3632965087891
40
0.0
41
0.0
42
0.0
10
73.0123977661133
20
65.3646011352539
40
0.0
41
0.0
42
0.0
10
73.0495986938477
20
65.3714981079102
40
0.0
41
0.0
42
0.0
10
73.4113998413086
20
65.497200012207
40
0.0
41
0.0
42
0.0
10
73.5149002075195
20
65.5180969238281
40
0.0
41
0.0
42
0.0
10
73.5479965209961
20
65.5279998779297
40
0.0
41
0.0
42
0.0
10
74.0117034912109
20
65.7128982543945
40
0.0
41
0.0
42
0.0
10
74.0456008911133
20
65.7285003662109
40
0.0
41
0.0
42
0.0
10
74.5096969604492
20
65.9802017211914
40
0.0
41
0.0
42
0.0
10
75.0448989868164
20
66.2863998413086
40
0.0
41
0.0
42
0.0
10
75.4389038085938
20
66.4929962158203
40
0.0
41
0.0
42
0.0
10
75.5094985961914
20
66.5357971191406
40
0.0
41
0.0
42
0.0
10
75.5462036132812
20
66.5557022094727
40
0.0
41
0.0
42
0.0
10
76.0141983032227
20
66.7332000732422
40
0.0
41
0.0
42
0.0
10
76.0446014404297
20
66.7391967773438
40
0.0
41
0.0
42
0.0
10
76.4933013916016
20
66.7708969116211
40
0.0
41
0.0
42
0.0
10
76.9841003417969
20
66.6949005126953
40
0.0
41
0.0
42
0.0
10
77.774299621582
20
66.5008010864258
40
0.0
41
0.0
42
0.0
10
77.9848022460938
20
66.4465026855469
40
0.0
41
0.0
42
0.0
10
78.4835968017578
20
66.3387985229492
40
0.0
41
0.0
42
0.0
10
78.9797973632812
20
66.2713012695312
40
0.0
41
0.0
42
0.0
10
78.9834976196289
20
66.2699966430664
40
0.0
41
0.0
42
0.0
10
79.4766998291016
20
66.2675018310547
40
0.0
41
0.0
42
0.0
10
79.4896011352539
20
66.2655029296875
40
0.0
41
0.0
42
0.0
10
79.52490234375
20
66.2654037475586
40
0.0
41
0.0
42
0.0
10
80.0067977905273
20
66.4192962646484
40
0.0
41
0.0
42
0.0
10
80.0096969604492
20
66.4234008789062
40
0.0
41
0.0
42
0.0
10
80.0878982543945
20
66.4946975708008
40
0.0
41
0.0
42
0.0
10
80.5026016235352
20
66.9574966430664
40
0.0
41
0.0
42
0.0
10
80.5127029418945
20
66.9794998168945
40
0.0
41
0.0
42
0.0
10
80.5126037597656
20
66.9829025268555
40
0.0
41
0.0
42
0.0
10
80.7398986816406
20
67.4551010131836
40
0.0
41
0.0
42
0.0
10
80.761100769043
20
67.4890975952148
40
0.0
41
0.0
42
0.0
10
80.9259033203125
20
67.9525985717773
40
0.0
41
0.0
42
0.0
10
80.9405975341797
20
67.9870986938477
40
0.0
41
0.0
42
0.0
10
81.0897979736328
20
68.4858016967773
40
0.0
41
0.0
42
0.0
10
81.2279968261719
20
68.9860000610352
40
0.0
41
0.0
42
0.0
10
81.3796005249023
20
69.4509963989258
40
0.0
41
0.0
42
0.0
10
81.3908004760742
20
69.4912033081055
40
0.0
41
0.0
42
0.0
10
81.5016021728516
20
69.7193984985352
40
0.0
41
0.0
42
0.0
10
81.6513977050781
20
69.9585037231445
40
0.0
41
0.0
42
0.0
10
81.6656036376953
20
69.9914016723633
40
0.0
41
0.0
42
0.0
10
81.6809005737305
20
70.0083999633789
40
0.0
41
0.0
42
0.0
10
82.0062026977539
20
70.3171005249023
40
0.0
41
0.0
42
0.0
10
82.2362976074219
20
70.4972991943359
40
0.0
41
0.0
42
0.0
10
83.0579986572266
20
70.9977035522461
40
0.0
41
0.0
42
0.0
10
83.5058975219727
20
71.2935028076172
40
0.0
41
0.0
42
0.0
10
83.5142974853516
20
71.2977981567383
40
0.0
41
0.0
42
0.0
10
83.8087997436523
20
71.4963989257812
40
0.0
41
0.0
42
0.0
10
84.0056991577148
20
71.6855010986328
40
0.0
41
0.0
42
0.0
10
84.3518981933594
20
71.9913024902344
40
0.0
41
0.0
42
0.0
10
84.3536987304688
20
71.9919967651367
40
0.0
41
0.0
42
0.0
10
84.5017013549805
20
72.3016967773438
40
0.0
41
0.0
42
0.0
10
84.6272964477539
20
72.4863967895508
40
0.0
41
0.0
42
0.0
10
84.627197265625
20
72.5143966674805
40
0.0
41
0.0
42
0.0
10
84.625
20
72.5183029174805
40
0.0
41
0.0
42
0.0
10
84.6364974975586
20
73.0110015869141
40
0.0
41
0.0
42
0.0
10
84.6351013183594
20
73.0122985839844
40
0.0
41
0.0
42
0.0
10
84.6281967163086
20
73.0495986938477
40
0.0
41
0.0
42
0.0
10
84.5025024414062
20
73.4113998413086
40
0.0
41
0.0
42
0.0
10
84.4816970825195
20
73.5148010253906
40
0.0
41
0.0
42
0.0
10
84.4717025756836
20
73.5479965209961
40
0.0
41
0.0
42
0.0
10
84.2870025634766
20
74.0110015869141
40
0.0
41
0.0
42
0.0
10
84.0352020263672
20
74.4755020141602
40
0.0
41
0.0
42
0.0
10
84.0192031860352
20
74.5102996826172
40
0.0
41
0.0
42
0.0
10
83.7133026123047
20
75.0447998046875
40
0.0
41
0.0
42
0.0
10
83.5066986083984
20
75.4389038085938
40
0.0
41
0.0
42
0.0
10
83.4638977050781
20
75.5094985961914
40
0.0
41
0.0
42
0.0
10
83.4440002441406
20
75.5462036132812
40
0.0
41
0.0
42
0.0
10
83.2660980224609
20
76.0154037475586
40
0.0
41
0.0
42
0.0
10
83.2330017089844
20
76.4824981689453
40
0.0
41
0.0
42
0.0
10
83.2300033569336
20
76.5008010864258
40
0.0
41
0.0
42
0.0
10
83.3049011230469
20
76.9841003417969
40
0.0
41
0.0
42
0.0
10
83.4989013671875
20
77.774299621582
40
0.0
41
0.0
42
0.0
10
83.5550994873047
20
77.9897994995117
40
0.0
41
0.0
42
0.0
10
83.66259765625
20
78.4886016845703
40
0.0
41
0.0
42
0.0
10
83.7296981811523
20
78.9813995361328
40
0.0
41
0.0
42
0.0
10
83.7322006225586
20
79.4766998291016
40
0.0
41
0.0
42
0.0
10
83.7343978881836
20
79.4897994995117
40
0.0
41
0.0
42
0.0
10
83.7342987060547
20
79.52490234375
40
0.0
41
0.0
42
0.0
10
83.5803985595703
20
80.0067977905273
40
0.0
41
0.0
42
0.0
10
83.5764007568359
20
80.0096969604492
40
0.0
41
0.0
42
0.0
10
83.5050964355469
20
80.0877990722656
40
0.0
41
0.0
42
0.0
10
83.0420989990234
20
80.5027008056641
40
0.0
41
0.0
42
0.0
10
83.0204010009766
20
80.5127029418945
40
0.0
41
0.0
42
0.0
10
83.0168991088867
20
80.5124969482422
40
0.0
41
0.0
42
0.0
10
82.5447998046875
20
80.7397994995117
40
0.0
41
0.0
42
0.0
10
82.5108032226562
20
80.761100769043
40
0.0
41
0.0
42
0.0
10
82.0473022460938
20
80.9259033203125
40
0.0
41
0.0
42
0.0
10
82.0128021240234
20
80.9405975341797
40
0.0
41
0.0
42
0.0
10
81.5140991210938
20
81.0897979736328
40
0.0
41
0.0
42
0.0
10
81.0139007568359
20
81.2279968261719
40
0.0
41
0.0
42
0.0
10
80.5488967895508
20
81.3796005249023
40
0.0
41
0.0
42
0.0
10
80.5085983276367
20
81.3908004760742
40
0.0
41
0.0
42
0.0
10
80.2802963256836
20
81.5015029907227
40
0.0
41
0.0
42
0.0
10
80.0411987304688
20
81.6513977050781
40
0.0
41
0.0
42
0.0
10
80.0083999633789
20
81.665397644043
40
0.0
41
0.0
42
0.0
10
79.9913024902344
20
81.6808013916016
40
0.0
41
0.0
42
0.0
10
79.6828002929688
20
82.0062026977539
40
0.0
41
0.0
42
0.0
10
79.5026016235352
20
82.2362976074219
40
0.0
41
0.0
42
0.0
10
79.3348999023438
20
82.5139999389648
40
0.0
41
0.0
42
0.0
10
79.002197265625
20
83.0578994750977
40
0.0
41
0.0
42
0.0
10
78.7061996459961
20
83.5058975219727
40
0.0
41
0.0
42
0.0
10
78.7018966674805
20
83.5141983032227
40
0.0
41
0.0
42
0.0
10
78.5035018920898
20
83.8087997436523
40
0.0
41
0.0
42
0.0
10
78.310302734375
20
84.0098037719727
40
0.0
41
0.0
42
0.0
10
78.3096008300781
20
84.013298034668
40
0.0
41
0.0
42
0.0
10
78.0110015869141
20
84.3520965576172
40
0.0
41
0.0
42
0.0
10
77.6980972290039
20
84.5016021728516
40
0.0
41
0.0
42
0.0
10
77.5134963989258
20
84.6272964477539
40
0.0
41
0.0
42
0.0
10
77.4854965209961
20
84.6272964477539
40
0.0
41
0.0
42
0.0
10
77.4815979003906
20
84.625
40
0.0
41
0.0
42
0.0
10
76.9886016845703
20
84.6364974975586
40
0.0
41
0.0
42
0.0
10
76.9872970581055
20
84.6351013183594
40
0.0
41
0.0
42
0.0
10
76.9503021240234
20
84.628303527832
40
0.0
41
0.0
42
0.0
10
76.5884017944336
20
84.5025024414062
40
0.0
41
0.0
42
0.0
10
76.4850997924805
20
84.4816970825195
40
0.0
41
0.0
42
0.0
10
76.4518966674805
20
84.4717025756836
40
0.0
41
0.0
42
0.0
10
75.988899230957
20
84.2871017456055
40
0.0
41
0.0
42
0.0
10
75.524299621582
20
84.0353012084961
40
0.0
41
0.0
42
0.0
10
75.4896011352539
20
84.0192031860352
40
0.0
41
0.0
42
0.0
10
74.9551010131836
20
83.7133026123047
40
0.0
41
0.0
42
0.0
10
74.5608978271484
20
83.5066986083984
40
0.0
41
0.0
42
0.0
10
74.4904022216797
20
83.4638977050781
40
0.0
41
0.0
42
0.0
10
74.4536972045898
20
83.4440994262695
40
0.0
41
0.0
42
0.0
10
73.9844970703125
20
83.2660980224609
40
0.0
41
0.0
42
0.0
10
73.5174026489258
20
83.2330017089844
40
0.0
41
0.0
42
0.0
10
73.4990997314453
20
83.2300033569336
40
0.0
41
0.0
42
0.0
10
73.0158004760742
20
83.3049011230469
40
0.0
41
0.0
42
0.0
10
72.2255020141602
20
83.4989013671875
40
0.0
41
0.0
42
0.0
10
72.0101013183594
20
83.5550003051758
40
0.0
41
0.0
42
0.0
10
71.5112991333008
20
83.66259765625
40
0.0
41
0.0
42
0.0
10
71.0185012817383
20
83.7296981811523
40
0.0
41
0.0
42
0.0
10
70.5232009887695
20
83.7322006225586
40
0.0
41
0.0
42
0.0
10
70.5102005004883
20
83.7343978881836
40
0.0
41
0.0
42
0.0
10
70.4748992919922
20
83.7342987060547
40
0.0
41
0.0
42
0.0
10
69.9928970336914
20
83.5804977416992
40
0.0
41
0.0
42
0.0
10
69.9899978637695
20
83.5764007568359
40
0.0
41
0.0
42
0.0
10
69.9119033813477
20
83.5050964355469
40
0.0
41
0.0
42
0.0
10
69.4970016479492
20
83.0420989990234
40
0.0
41
0.0
42
0.0
10
69.4871978759766
20
83.0204010009766
40
0.0
41
0.0
42
0.0
10
69.4870986938477
20
83.0157012939453
40
0.0
41
0.0
42
0.0
10
69.4613037109375
20
82.9748001098633
40
0.0
41
0.0
42
0.0
10
69.2389984130859
20
82.5119018554688
40
0.0
41
0.0
42
0.0
10
69.0738983154297
20
82.0473022460938
40
0.0
41
0.0
42
0.0
10
69.059196472168
20
82.0128021240234
40
0.0
41
0.0
42
0.0
10
68.9098968505859
20
81.5141983032227
40
0.0
41
0.0
42
0.0
10
68.7621994018555
20
80.9788970947266
40
0.0
41
0.0
42
0.0
10
68.6087036132812
20
80.5082015991211
40
0.0
41
0.0
42
0.0
10
68.4982986450195
20
80.280403137207
40
0.0
41
0.0
42
0.0
10
68.3483963012695
20
80.0412979125977
40
0.0
41
0.0
42
0.0
10
68.3342971801758
20
80.0083999633789
40
0.0
41
0.0
42
0.0
10
68.3189010620117
20
79.9914016723633
40
0.0
41
0.0
42
0.0
10
67.9936981201172
20
79.6828002929688
40
0.0
41
0.0
42
0.0
10
67.7636032104492
20
79.5026016235352
40
0.0
41
0.0
42
0.0
10
67.4859008789062
20
79.3349990844727
40
0.0
41
0.0
42
0.0
10
66.9418029785156
20
79.002197265625
40
0.0
41
0.0
42
0.0
10
66.493896484375
20
78.706298828125
40
0.0
41
0.0
42
0.0
10
66.4857025146484
20
78.7020034790039
40
0.0
41
0.0
42
0.0
10
66.1910018920898
20
78.5035018920898
40
0.0
41
0.0
42
0.0
10
65.9900970458984
20
78.310302734375
40
0.0
41
0.0
42
0.0
10
65.9863967895508
20
78.3096008300781
40
0.0
41
0.0
42
0.0
10
65.6475982666016
20
78.0110015869141
40
0.0
41
0.0
42
0.0
10
65.4981994628906
20
77.6981964111328
40
0.0
41
0.0
42
0.0
10
65.3725967407227
20
77.5134963989258
40
0.0
41
0.0
42
0.0
10
65.3724975585938
20
77.4854965209961
40
0.0
41
0.0
42
0.0
10
65.3747024536133
20
77.4814987182617
40
0.0
41
0.0
42
0.0
10
65.3631973266602
20
76.9886016845703
40
0.0
41
0.0
42
0.0
210
0.0
220
0.0
230
1.0
0
LWPOLYLINE
5
24
330
1C
100
AcDbEntity
67
0
8
0
62
256
6
ByLayer
370
-1
48
1.0
60
0
100
AcDbPolyline
90
196
70
1
38
0.0
39
0.0
10
65.3780975341797
20
77.4477996826172
40
0.0
41
0.0
42
0.0
10
65.3860015869141
20
77.4798965454102
40
0.0
41
0.0
42
0.0
10
65.3908004760742
20
77.4903030395508
40
0.0
41
0.0
42
0.0
10
65.5016021728516
20
77.654296875
40
0.0
41
0.0
42
0.0
10
65.6443023681641
20
77.9546966552734
40
0.0
41
0.0
42
0.0
10
65.6668014526367
20
77.9934005737305
40
0.0
41
0.0
42
0.0
10
66.0056991577148
20
78.293701171875
40
0.0
41
0.0
42
0.0
10
66.2164993286133
20
78.4962997436523
40
0.0
41
0.0
42
0.0
10
66.5432968139648
20
78.7177963256836
40
0.0
41
0.0
42
0.0
10
66.9636993408203
20
78.9955978393555
40
0.0
41
0.0
42
0.0
10
67.5090026855469
20
79.3304977416992
40
0.0
41
0.0
42
0.0
10
67.7828979492188
20
79.4969024658203
40
0.0
41
0.0
42
0.0
10
67.7940979003906
20
79.5068969726562
40
0.0
41
0.0
42
0.0
10
68.0062026977539
20
79.6731033325195
40
0.0
41
0.0
42
0.0
10
68.3438034057617
20
79.9933013916016
40
0.0
41
0.0
42
0.0
10
68.5015029907227
20
80.2451019287109
40
0.0
41
0.0
42
0.0
10
68.6199035644531
20
80.4878997802734
40
0.0
41
0.0
42
0.0
10
68.7823028564453
20
80.9860000610352
40
0.0
41
0.0
42
0.0
10
68.9207992553711
20
81.4858016967773
40
0.0
41
0.0
42
0.0
10
69.071403503418
20
81.9915008544922
40
0.0
41
0.0
42
0.0
10
69.2485961914062
20
82.491096496582
40
0.0
41
0.0
42
0.0
10
69.5030975341797
20
83.0223007202148
40
0.0
41
0.0
42
0.0
10
69.5402984619141
20
83.0531997680664
40
0.0
41
0.0
42
0.0
10
69.9346008300781
20
83.4933013916016
40
0.0
41
0.0
42
0.0
10
69.9450988769531
20
83.4979019165039
40
0.0
41
0.0
42
0.0
10
70.00830078125
20
83.5552978515625
40
0.0
41
0.0
42
0.0
10
70.0475006103516
20
83.5727996826172
40
0.0
41
0.0
42
0.0
10
70.5160980224609
20
83.722297668457
40
0.0
41
0.0
42
0.0
10
70.5512008666992
20
83.7244033813477
40
0.0
41
0.0
42
0.0
10
70.9809036254883
20
83.7221984863281
40
0.0
41
0.0
42
0.0
10
71.0173034667969
20
83.7191009521484
40
0.0
41
0.0
42
0.0
10
71.4835968017578
20
83.6556015014648
40
0.0
41
0.0
42
0.0
10
71.9488983154297
20
83.5558013916016
40
0.0
41
0.0
42
0.0
10
71.9843978881836
20
83.5496978759766
40
0.0
41
0.0
42
0.0
10
72.1772003173828
20
83.5002975463867
40
0.0
41
0.0
42
0.0
10
72.9834976196289
20
83.3033981323242
40
0.0
41
0.0
42
0.0
10
73.0176010131836
20
83.3000030517578
40
0.0
41
0.0
42
0.0
10
73.4815979003906
20
83.2281036376953
40
0.0
41
0.0
42
0.0
10
73.5192031860352
20
83.2279968261719
40
0.0
41
0.0
42
0.0
10
74.0154037475586
20
83.2628021240234
40
0.0
41
0.0
42
0.0
10
74.5106964111328
20
83.4499969482422
40
0.0
41
0.0
42
0.0
10
74.589599609375
20
83.4981994628906
40
0.0
41
0.0
42
0.0
10
75.0099029541016
20
83.7184982299805
40
0.0
41
0.0
42
0.0
10
75.5147018432617
20
84.0071029663086
40
0.0
41
0.0
42
0.0
10
76.0110015869141
20
84.2761993408203
40
0.0
41
0.0
42
0.0
10
76.5056991577148
20
84.4736022949219
40
0.0
41
0.0
42
0.0
10
76.5136032104492
20
84.4782028198242
40
0.0
41
0.0
42
0.0
10
76.6251983642578
20
84.5001983642578
40
0.0
41
0.0
42
0.0
10
77.0059967041016
20
84.6323013305664
40
0.0
41
0.0
42
0.0
10
77.4477005004883
20
84.6215972900391
40
0.0
41
0.0
42
0.0
10
77.4798965454102
20
84.6137008666992
40
0.0
41
0.0
42
0.0
10
77.4901962280273
20
84.609001159668
40
0.0
41
0.0
42
0.0
10
77.654296875
20
84.4981994628906
40
0.0
41
0.0
42
0.0
10
77.9546966552734
20
84.3554992675781
40
0.0
41
0.0
42
0.0
10
77.9934005737305
20
84.3330001831055
40
0.0
41
0.0
42
0.0
10
78.2936019897461
20
83.9942016601562
40
0.0
41
0.0
42
0.0
10
78.4962005615234
20
83.783203125
40
0.0
41
0.0
42
0.0
10
78.7177963256836
20
83.4565963745117
40
0.0
41
0.0
42
0.0
10
78.9955978393555
20
83.0361022949219
40
0.0
41
0.0
42
0.0
10
79.3303985595703
20
82.4907989501953
40
0.0
41
0.0
42
0.0
10
79.4968032836914
20
82.216796875
40
0.0
41
0.0
42
0.0
10
79.5068969726562
20
82.2055969238281
40
0.0
41
0.0
42
0.0
10
79.6729965209961
20
81.9935989379883
40
0.0
41
0.0
42
0.0
10
79.9933013916016
20
81.6558990478516
40
0.0
41
0.0
42
0.0
10
80.2451019287109
20
81.4981994628906
40
0.0
41
0.0
42
0.0
10
80.4878005981445
20
81.3797988891602
40
0.0
41
0.0
42
0.0
10
80.9860000610352
20
81.217399597168
40
0.0
41
0.0
42
0.0
10
81.4857025146484
20
81.0789031982422
40
0.0
41
0.0
42
0.0
10
81.9863967895508
20
80.9294967651367
40
0.0
41
0.0
42
0.0
10
82.4879989624023
20
80.7518005371094
40
0.0
41
0.0
42
0.0
10
82.9835968017578
20
80.513801574707
40
0.0
41
0.0
42
0.0
10
83.0220031738281
20
80.4971008300781
40
0.0
41
0.0
42
0.0
10
83.0531005859375
20
80.4595031738281
40
0.0
41
0.0
42
0.0
10
83.4932022094727
20
80.0652008056641
40
0.0
41
0.0
42
0.0
10
83.497802734375
20
80.0547027587891
40
0.0
41
0.0
42
0.0
10
83.5552978515625
20
79.9915008544922
40
0.0
41
0.0
42
0.0
10
83.5727996826172
20
79.9524002075195
40
0.0
41
0.0
42
0.0
10
83.722297668457
20
79.4838027954102
40
0.0
41
0.0
42
0.0
10
83.7244033813477
20
79.4486999511719
40
0.0
41
0.0
42
0.0
10
83.7221984863281
20
79.0189971923828
40
0.0
41
0.0
42
0.0
10
83.7191009521484
20
78.9825973510742
40
0.0
41
0.0
42
0.0
10
83.6556015014648
20
78.5162963867188
40
0.0
41
0.0
42
0.0
10
83.5558013916016
20
78.0510025024414
40
0.0
41
0.0
42
0.0
10
83.5496978759766
20
78.0155029296875
40
0.0
41
0.0
42
0.0
10
83.5002975463867
20
77.8226013183594
40
0.0
41
0.0
42
0.0
10
83.3033981323242
20
77.0164031982422
40
0.0
41
0.0
42
0.0
10
83.3001022338867
20
76.9822998046875
40
0.0
41
0.0
42
0.0
10
83.2281036376953
20
76.5183029174805
40
0.0
41
0.0
42
0.0
10
83.2279968261719
20
76.4806976318359
40
0.0
41
0.0
42
0.0
10
83.2627029418945
20
75.9844970703125
40
0.0
41
0.0
42
0.0
10
83.4499969482422
20
75.4891967773438
40
0.0
41
0.0
42
0.0
10
83.4981002807617
20
75.4102020263672
40
0.0
41
0.0
42
0.0
10
83.7183990478516
20
74.9899978637695
40
0.0
41
0.0
42
0.0
10
84.0070037841797
20
74.4850997924805
40
0.0
41
0.0
42
0.0
10
84.2761993408203
20
73.988899230957
40
0.0
41
0.0
42
0.0
10
84.4733963012695
20
73.4944000244141
40
0.0
41
0.0
42
0.0
10
84.4775009155273
20
73.4878005981445
40
0.0
41
0.0
42
0.0
10
84.5001983642578
20
73.3747024536133
40
0.0
41
0.0
42
0.0
10
84.6323013305664
20
72.9937973022461
40
0.0
41
0.0
42
0.0
10
84.6215972900391
20
72.5522003173828
40
0.0
41
0.0
42
0.0
10
84.6137008666992
20
72.5198974609375
40
0.0
41
0.0
42
0.0
10
84.609001159668
20
72.5095977783203
40
0.0
41
0.0
42
0.0
10
84.4981994628906
20
72.3454971313477
40
0.0
41
0.0
42
0.0
10
84.3554992675781
20
72.0451965332031
40
0.0
41
0.0
42
0.0
10
84.3330001831055
20
72.0064010620117
40
0.0
41
0.0
42
0.0
10
83.9942016601562
20
71.7061004638672
40
0.0
41
0.0
42
0.0
10
83.7833023071289
20
71.5036010742188
40
0.0
41
0.0
42
0.0
10
83.4565963745117
20
71.2819976806641
40
0.0
41
0.0
42
0.0
10
83.0361022949219
20
71.0043029785156
40
0.0
41
0.0
42
0.0
10
82.4908981323242
20
70.6692962646484
40
0.0
41
0.0
42
0.0
10
82.2169036865234
20
70.5029983520508
40
0.0
41
0.0
42
0.0
10
82.2057037353516
20
70.4928970336914
40
0.0
41
0.0
42
0.0
10
81.9936981201172
20
70.3266983032227
40
0.0
41
0.0
42
0.0
10
81.6559982299805
20
70.0065994262695
40
0.0
41
0.0
42
0.0
10
81.4981994628906
20
69.7546997070312
40
0.0
41
0.0
42
0.0
10
81.3797988891602
20
69.5121002197266
40
0.0
41
0.0
42
0.0
10
81.2174987792969
20
69.0139007568359
40
0.0
41
0.0
42
0.0
10
81.0789031982422
20
68.5141983032227
40
0.0
41
0.0
42
0.0
10
81.0
20
68.2462005615234
40
0.0
41
0.0
42
0.0
10
80.9296035766602
20
68.0133972167969
40
0.0
41
0.0
42
0.0
10
80.7518005371094
20
67.5119018554688
40
0.0
41
0.0
42
0.0
10
80.513801574707
20
67.0161972045898
40
0.0
41
0.0
42
0.0
10
80.497200012207
20
66.977897644043
40
0.0
41
0.0
42
0.0
10
80.459602355957
20
66.9467010498047
40
0.0
41
0.0
42
0.0
10
80.0652008056641
20
66.5064010620117
40
0.0
41
0.0
42
0.0
10
80.0547027587891
20
66.5019989013672
40
0.0
41
0.0
42
0.0
10
79.9916000366211
20
66.4445037841797
40
0.0
41
0.0
42
0.0
10
79.9524993896484
20
66.4269027709961
40
0.0
41
0.0
42
0.0
10
79.4838027954102
20
66.2772979736328
40
0.0
41
0.0
42
0.0
10
79.0065002441406
20
66.2791976928711
40
0.0
41
0.0
42
0.0
10
78.5525970458984
20
66.3407974243164
40
0.0
41
0.0
42
0.0
10
78.5167999267578
20
66.3440017700195
40
0.0
41
0.0
42
0.0
10
78.0509033203125
20
66.4439010620117
40
0.0
41
0.0
42
0.0
10
78.0155029296875
20
66.4499969482422
40
0.0
41
0.0
42
0.0
10
77.8225021362305
20
66.4994964599609
40
0.0
41
0.0
42
0.0
10
77.0158004760742
20
66.696403503418
40
0.0
41
0.0
42
0.0
10
76.5522994995117
20
66.7683029174805
40
0.0
41
0.0
42
0.0
10
76.518798828125
20
66.7717971801758
40
0.0
41
0.0
42
0.0
10
76.475700378418
20
66.7717971801758
40
0.0
41
0.0
42
0.0
10
75.9844970703125
20
66.7369995117188
40
0.0
41
0.0
42
0.0
10
75.4891967773438
20
66.5497970581055
40
0.0
41
0.0
42
0.0
10
75.4102020263672
20
66.5017013549805
40
0.0
41
0.0
42
0.0
10
74.9900970458984
20
66.2813034057617
40
0.0
41
0.0
42
0.0
10
74.4851989746094
20
65.9926986694336
40
0.0
41
0.0
42
0.0
10
73.9839019775391
20
65.7204971313477
40
0.0
41
0.0
42
0.0
10
73.4859008789062
20
65.5217971801758
40
0.0
41
0.0
42
0.0
10
73.3747024536133
20
65.4996032714844
40
0.0
41
0.0
42
0.0
10
72.9937973022461
20
65.3674011230469
40
0.0
41
0.0
42
0.0
10
72.5522003173828
20
65.3780975341797
40
0.0
41
0.0
42
0.0
10
72.5197982788086
20
65.3860015869141
40
0.0
41
0.0
42
0.0
10
72.5094985961914
20
65.3907012939453
40
0.0
41
0.0
42
0.0
10
72.3454971313477
20
65.5016021728516
40
0.0
41
0.0
42
0.0
10
72.0450973510742
20
65.6443023681641
40
0.0
41
0.0
42
0.0
10
72.0064010620117
20
65.6667022705078
40
0.0
41
0.0
42
0.0
10
71.7061004638672
20
66.0056991577148
40
0.0
41
0.0
42
0.0
10
71.5036010742188
20
66.2164993286133
40
0.0
41
0.0
42
0.0
10
71.2818984985352
20
66.5431976318359
40
0.0
41
0.0
42
0.0
10
71.0042037963867
20
66.9636993408203
40
0.0
41
0.0
42
0.0
10
70.6692962646484
20
67.5090026855469
40
0.0
41
0.0
42
0.0
10
70.5029983520508
20
67.7828979492188
40
0.0
41
0.0
42
0.0
10
70.4927978515625
20
67.7939987182617
40
0.0
41
0.0
42
0.0
10
70.3266983032227
20
68.0062026977539
40
0.0
41
0.0
42
0.0
10
70.0065002441406
20
68.3436965942383
40
0.0
41
0.0
42
0.0
10
69.7546997070312
20
68.5015029907227
40
0.0
41
0.0
42
0.0
10
69.5120010375977
20
68.6199035644531
40
0.0
41
0.0
42
0.0
10
69.0139007568359
20
68.7823028564453
40
0.0
41
0.0
42
0.0
10
68.5140991210938
20
68.9207992553711
40
0.0
41
0.0
42
0.0
10
68.0083999633789
20
69.0712966918945
40
0.0
41
0.0
42
0.0
10
67.5086975097656
20
69.2485961914062
40
0.0
41
0.0
42
0.0
10
66.9776000976562
20
69.5029983520508
40
0.0
41
0.0
42
0.0
10
66.9466018676758
20
69.5402984619141
40
0.0
41
0.0
42
0.0
10
66.5064010620117
20
69.9346008300781
40
0.0
41
0.0
42
0.0
10
66.5018997192383
20
69.9450988769531
40
0.0
41
0.0
42
0.0
10
66.4443969726562
20
70.00830078125
40
0.0
41
0.0
42
0.0
10
66.4269027709961
20
70.0474014282227
40
0.0
41
0.0
42
0.0
10
66.2772979736328
20
70.5160980224609
40
0.0
41
0.0
42
0.0
10
66.2791976928711
20
70.9934005737305
40
0.0
41
0.0
42
0.0
10
66.3407974243164
20
71.4473037719727
40
0.0
41
0.0
42
0.0
10
66.3440017700195
20
71.4831008911133
40
0.0
41
0.0
42
0.0
10
66.4439010620117
20
71.9489974975586
40
0.0
41
0.0
42
0.0
10
66.4501037597656
20
71.9843978881836
40
0.0
41
0.0
42
0.0
10
66.4994964599609
20
72.1772994995117
40
0.0
41
0.0
42
0.0
10
66.696403503418
20
72.9841003417969
40
0.0
41
0.0
42
0.0
10
66.7683029174805
20
73.4476013183594
40
0.0
41
0.0
42
0.0
10
66.7717971801758
20
73.4811019897461
40
0.0
41
0.0
42
0.0
10
66.7717971801758
20
73.5242004394531
40
0.0
41
0.0
42
0.0
10
66.7369003295898
20
74.0154037475586
40
0.0
41
0.0
42
0.0
10
66.5496978759766
20
74.5105972290039
40
0.0
41
0.0
42
0.0
10
66.5016021728516
20
74.589599609375
40
0.0
41
0.0
42
0.0
10
66.2811965942383
20
75.0098037719727
40
0.0
41
0.0
42
0.0
10
65.9925994873047
20
75.5147018432617
40
0.0
41
0.0
42
0.0
10
65.7203979492188
20
76.015998840332
40
0.0
41
0.0
42
0.0
10
65.5212020874023
20
76.5150985717773
40
0.0
41
0.0
42
0.0
10
65.4996032714844
20
76.6251983642578
40
0.0
41
0.0
42
0.0
10
65.3669967651367
20
77.0093994140625
40
0.0
41
0.0
42
0.0
10
65.3780975341797
20
77.4477996826172
40
0.0
41
0.0
42
0.0
210
0.0
220
0.0
230
1.0
0
LWPOLYLINE
5
25
330
1C
100
AcDbEntity
67
0
8
0
62
256
6
ByLayer
370
-1
48
1.0
60
0
100
AcDbPolyline
90
35
70
1
38
0.0
39
0.0
10
66.0910034179688
20
84.9710998535156
40
0.0
41
0.0
42
0.0
10
66.245002746582
20
84.4908981323242
40
0.0
41
0.0
42
0.0
10
66.4870986938477
20
84.3463973999023
40
0.0
41
0.0
42
0.0
10
66.9813995361328
20
84.2722015380859
40
0.0
41
0.0
42
0.0
10
67.5255966186523
20
84.2770004272461
40
0.0
41
0.0
42
0.0
10
68.0246963500977
20
84.3096008300781
40
0.0
41
0.0
42
0.0
10
68.5149993896484
20
84.3636016845703
40
0.0
41
0.0
42
0.0
10
68.5248031616211
20
84.3635025024414
40
0.0
41
0.0
42
0.0
10
69.0141983032227
20
84.4738998413086
40
0.0
41
0.0
42
0.0
10
69.0348968505859
20
84.481201171875
40
0.0
41
0.0
42
0.0
10
69.0771026611328
20
84.4990997314453
40
0.0
41
0.0
42
0.0
10
69.5078964233398
20
84.697998046875
40
0.0
41
0.0
42
0.0
10
69.5287017822266
20
84.7183990478516
40
0.0
41
0.0
42
0.0
10
69.7850036621094
20
84.9882965087891
40
0.0
41
0.0
42
0.0
10
69.7850036621094
20
84.9990005493164
40
0.0
41
0.0
42
0.0
10
69.7005996704102
20
84.9989013671875
40
0.0
41
0.0
42
0.0
10
69.4924011230469
20
84.7796020507812
40
0.0
41
0.0
42
0.0
10
69.1396026611328
20
84.6167984008789
40
0.0
41
0.0
42
0.0
10
69.0693969726562
20
84.5805969238281
40
0.0
41
0.0
42
0.0
10
68.9889984130859
20
84.5283966064453
40
0.0
41
0.0
42
0.0
10
68.8982009887695
20
84.4996032714844
40
0.0
41
0.0
42
0.0
10
68.4835968017578
20
84.4005966186523
40
0.0
41
0.0
42
0.0
10
68.1097030639648
20
84.3594970703125
40
0.0
41
0.0
42
0.0
10
67.9824981689453
20
84.3371963500977
40
0.0
41
0.0
42
0.0
10
67.5496978759766
20
84.3085021972656
40
0.0
41
0.0
42
0.0
10
67.4466018676758
20
84.293701171875
40
0.0
41
0.0
42
0.0
10
67.0158996582031
20
84.2891006469727
40
0.0
41
0.0
42
0.0
10
66.5532989501953
20
84.3579025268555
40
0.0
41
0.0
42
0.0
10
66.5074996948242
20
84.3582992553711
40
0.0
41
0.0
42
0.0
10
66.2602996826172
20
84.5059967041016
40
0.0
41
0.0
42
0.0
10
66.1094970703125
20
84.9758987426758
40
0.0
41
0.0
42
0.0
10
66.0944976806641
20
84.9990005493164
40
0.0
41
0.0
42
0.0
10
66.0712966918945
20
84.9990005493164
40
0.0
41
0.0
42
0.0
10
66.0711975097656
20
84.9891967773438
40
0.0
41
0.0
42
0.0
10
66.0910034179688
20
84.9710998535156
40
0.0
41
0.0
42
0.0
210
0.0
220
0.0
230
1.0
0
LWPOLYLINE
5
26
330
1C
100
AcDbEntity
67
0
8
0
62
256
6
ByLayer
370
-1
48
1.0
60
0
100
AcDbPolyline
90
179
70
1
38
0.0
39
0.0
10
69.4539031982422
20
73.9897994995117
40
0.0
41
0.0
42
0.0
10
69.493896484375
20
73.9506988525391
40
0.0
41
0.0
42
0.0
10
69.9617004394531
20
73.5681991577148
40
0.0
41
0.0
42
0.0
10
69.9897003173828
20
73.5552978515625
40
0.0
41
0.0
42
0.0
10
70.0854034423828
20
73.4985961914062
40
0.0
41
0.0
42
0.0
10
70.4518966674805
20
73.3361968994141
40
0.0
41
0.0
42
0.0
10
70.4847030639648
20
73.3274993896484
40
0.0
41
0.0
42
0.0
10
70.5207977294922
20
73.3203964233398
40
0.0
41
0.0
42
0.0
10
70.9860992431641
20
73.1405029296875
40
0.0
41
0.0
42
0.0
10
70.9962005615234
20
73.1380996704102
40
0.0
41
0.0
42
0.0
10
71.3080978393555
20
72.9949035644531
40
0.0
41
0.0
42
0.0
10
71.4512023925781
20
72.4960021972656
40
0.0
41
0.0
42
0.0
10
71.3640975952148
20
71.9819030761719
40
0.0
41
0.0
42
0.0
10
71.3041000366211
20
71.4837036132812
40
0.0
41
0.0
42
0.0
10
71.3040008544922
20
71.4455032348633
40
0.0
41
0.0
42
0.0
10
71.3272018432617
20
70.9813995361328
40
0.0
41
0.0
42
0.0
10
71.3300018310547
20
70.9499969482422
40
0.0
41
0.0
42
0.0
10
71.4822006225586
20
70.5790023803711
40
0.0
41
0.0
42
0.0
10
71.4957962036133
20
70.5562973022461
40
0.0
41
0.0
42
0.0
10
71.571403503418
20
70.4985961914062
40
0.0
41
0.0
42
0.0
10
71.8102035522461
20
70.4160995483398
40
0.0
41
0.0
42
0.0
10
71.950798034668
20
70.3538970947266
40
0.0
41
0.0
42
0.0
10
71.9814987182617
20
70.3496017456055
40
0.0
41
0.0
42
0.0
10
72.0166015625
20
70.3495025634766
40
0.0
41
0.0
42
0.0
10
72.0500030517578
20
70.3604965209961
40
0.0
41
0.0
42
0.0
10
72.5141983032227
20
70.4358978271484
40
0.0
41
0.0
42
0.0
10
72.6175003051758
20
70.4789962768555
40
0.0
41
0.0
42
0.0
10
72.6523971557617
20
70.4989013671875
40
0.0
41
0.0
42
0.0
10
73.0100021362305
20
70.6372985839844
40
0.0
41
0.0
42
0.0
10
73.0444030761719
20
70.6611022949219
40
0.0
41
0.0
42
0.0
10
73.5139007568359
20
70.8852005004883
40
0.0
41
0.0
42
0.0
10
73.9945983886719
20
70.9524993896484
40
0.0
41
0.0
42
0.0
10
74.4058990478516
20
70.4940032958984
40
0.0
41
0.0
42
0.0
10
74.4961013793945
20
70.3955001831055
40
0.0
41
0.0
42
0.0
10
74.7990036010742
20
69.9929962158203
40
0.0
41
0.0
42
0.0
10
74.9821014404297
20
69.7736968994141
40
0.0
41
0.0
42
0.0
10
74.9962997436523
20
69.7518997192383
40
0.0
41
0.0
42
0.0
10
75.0055999755859
20
69.7425003051758
40
0.0
41
0.0
42
0.0
10
75.3761978149414
20
69.4970016479492
40
0.0
41
0.0
42
0.0
10
75.4710998535156
20
69.4251022338867
40
0.0
41
0.0
42
0.0
10
75.4904022216797
20
69.405403137207
40
0.0
41
0.0
42
0.0
10
75.5169982910156
20
69.4001998901367
40
0.0
41
0.0
42
0.0
10
75.5537033081055
20
69.4001007080078
40
0.0
41
0.0
42
0.0
10
76.0101013183594
20
69.4539031982422
40
0.0
41
0.0
42
0.0
10
76.0490036010742
20
69.4940032958984
40
0.0
41
0.0
42
0.0
10
76.4315032958984
20
69.9617004394531
40
0.0
41
0.0
42
0.0
10
76.4443969726562
20
69.9897003173828
40
0.0
41
0.0
42
0.0
10
76.5011978149414
20
70.0854034423828
40
0.0
41
0.0
42
0.0
10
76.6634979248047
20
70.4520034790039
40
0.0
41
0.0
42
0.0
10
76.6727981567383
20
70.4865036010742
40
0.0
41
0.0
42
0.0
10
76.8523025512695
20
70.9508972167969
40
0.0
41
0.0
42
0.0
10
76.8615036010742
20
70.9960021972656
40
0.0
41
0.0
42
0.0
10
77.004997253418
20
71.3080978393555
40
0.0
41
0.0
42
0.0
10
77.5038986206055
20
71.4511032104492
40
0.0
41
0.0
42
0.0
10
78.0179977416992
20
71.3640975952148
40
0.0
41
0.0
42
0.0
10
78.5161972045898
20
71.3041000366211
40
0.0
41
0.0
42
0.0
10
78.5543975830078
20
71.3040008544922
40
0.0
41
0.0
42
0.0
10
79.0185012817383
20
71.3272018432617
40
0.0
41
0.0
42
0.0
10
79.0498962402344
20
71.3301010131836
40
0.0
41
0.0
42
0.0
10
79.4207992553711
20
71.4822006225586
40
0.0
41
0.0
42
0.0
10
79.4433975219727
20
71.4959030151367
40
0.0
41
0.0
42
0.0
10
79.5011978149414
20
71.571403503418
40
0.0
41
0.0
42
0.0
10
79.5836029052734
20
71.810302734375
40
0.0
41
0.0
42
0.0
10
79.6457977294922
20
71.950798034668
40
0.0
41
0.0
42
0.0
10
79.6502990722656
20
71.9814987182617
40
0.0
41
0.0
42
0.0
10
79.6501998901367
20
72.0183029174805
40
0.0
41
0.0
42
0.0
10
79.5752029418945
20
72.4798965454102
40
0.0
41
0.0
42
0.0
10
79.5643997192383
20
72.5126037597656
40
0.0
41
0.0
42
0.0
10
79.5206985473633
20
72.6175003051758
40
0.0
41
0.0
42
0.0
10
79.5007019042969
20
72.652702331543
40
0.0
41
0.0
42
0.0
10
79.3618011474609
20
73.0115966796875
40
0.0
41
0.0
42
0.0
10
79.1408996582031
20
73.4742965698242
40
0.0
41
0.0
42
0.0
10
79.1147003173828
20
73.5121002197266
40
0.0
41
0.0
42
0.0
10
79.0474014282227
20
73.9945983886719
40
0.0
41
0.0
42
0.0
10
79.5058975219727
20
74.4059982299805
40
0.0
41
0.0
42
0.0
10
79.6043014526367
20
74.4961013793945
40
0.0
41
0.0
42
0.0
10
80.0068969726562
20
74.7990036010742
40
0.0
41
0.0
42
0.0
10
80.2260971069336
20
74.9821014404297
40
0.0
41
0.0
42
0.0
10
80.247802734375
20
74.9963989257812
40
0.0
41
0.0
42
0.0
10
80.2572021484375
20
75.0056991577148
40
0.0
41
0.0
42
0.0
10
80.502799987793
20
75.3761978149414
40
0.0
41
0.0
42
0.0
10
80.5746002197266
20
75.4711990356445
40
0.0
41
0.0
42
0.0
10
80.5926971435547
20
75.4888000488281
40
0.0
41
0.0
42
0.0
10
80.5925979614258
20
75.5186996459961
40
0.0
41
0.0
42
0.0
10
80.5404968261719
20
75.9606018066406
40
0.0
41
0.0
42
0.0
10
80.5448989868164
20
75.9821014404297
40
0.0
41
0.0
42
0.0
10
80.5447998046875
20
76.011100769043
40
0.0
41
0.0
42
0.0
10
80.5058975219727
20
76.0490036010742
40
0.0
41
0.0
42
0.0
10
80.038200378418
20
76.4316024780273
40
0.0
41
0.0
42
0.0
10
80.0102005004883
20
76.4443969726562
40
0.0
41
0.0
42
0.0
10
79.9142990112305
20
76.5010986328125
40
0.0
41
0.0
42
0.0
10
79.5478973388672
20
76.6634979248047
40
0.0
41
0.0
42
0.0
10
79.5133972167969
20
76.6726989746094
40
0.0
41
0.0
42
0.0
10
79.0490036010742
20
76.8523025512695
40
0.0
41
0.0
42
0.0
10
79.0037994384766
20
76.8613967895508
40
0.0
41
0.0
42
0.0
10
78.6917037963867
20
77.0048980712891
40
0.0
41
0.0
42
0.0
10
78.548698425293
20
77.5037994384766
40
0.0
41
0.0
42
0.0
10
78.6298980712891
20
77.9830017089844
40
0.0
41
0.0
42
0.0
10
78.6884002685547
20
78.4730987548828
40
0.0
41
0.0
42
0.0
10
78.6911010742188
20
78.4828033447266
40
0.0
41
0.0
42
0.0
10
78.6910018920898
20
78.519401550293
40
0.0
41
0.0
42
0.0
10
78.6691970825195
20
78.9565963745117
40
0.0
41
0.0
42
0.0
10
78.6725997924805
20
78.9813003540039
40
0.0
41
0.0
42
0.0
10
78.6725006103516
20
79.0189971923828
40
0.0
41
0.0
42
0.0
10
78.6696014404297
20
79.0498962402344
40
0.0
41
0.0
42
0.0
10
78.5175018310547
20
79.4207992553711
40
0.0
41
0.0
42
0.0
10
78.5039978027344
20
79.4433975219727
40
0.0
41
0.0
42
0.0
10
78.4283981323242
20
79.5011978149414
40
0.0
41
0.0
42
0.0
10
78.1894989013672
20
79.5836029052734
40
0.0
41
0.0
42
0.0
10
78.0491027832031
20
79.6457977294922
40
0.0
41
0.0
42
0.0
10
78.0184020996094
20
79.6502990722656
40
0.0
41
0.0
42
0.0
10
77.9815979003906
20
79.6501998901367
40
0.0
41
0.0
42
0.0
10
77.5199966430664
20
79.5752029418945
40
0.0
41
0.0
42
0.0
10
77.4872970581055
20
79.5644989013672
40
0.0
41
0.0
42
0.0
10
77.3823013305664
20
79.5207977294922
40
0.0
41
0.0
42
0.0
10
77.3470993041992
20
79.5007019042969
40
0.0
41
0.0
42
0.0
10
76.9882965087891
20
79.3618011474609
40
0.0
41
0.0
42
0.0
10
76.5254974365234
20
79.1408996582031
40
0.0
41
0.0
42
0.0
10
76.4878005981445
20
79.1147003173828
40
0.0
41
0.0
42
0.0
10
76.0052032470703
20
79.0473022460938
40
0.0
41
0.0
42
0.0
10
75.5939025878906
20
79.5057983398438
40
0.0
41
0.0
42
0.0
10
75.5037002563477
20
79.6043014526367
40
0.0
41
0.0
42
0.0
10
75.2006988525391
20
80.0067977905273
40
0.0
41
0.0
42
0.0
10
75.0175018310547
20
80.2259979248047
40
0.0
41
0.0
42
0.0
10
75.0035018920898
20
80.247802734375
40
0.0
41
0.0
42
0.0
10
74.9941024780273
20
80.2571029663086
40
0.0
41
0.0
42
0.0
10
74.6235961914062
20
80.502799987793
40
0.0
41
0.0
42
0.0
10
74.5286026000977
20
80.5746002197266
40
0.0
41
0.0
42
0.0
10
74.511100769043
20
80.5926971435547
40
0.0
41
0.0
42
0.0
10
74.481201171875
20
80.5925979614258
40
0.0
41
0.0
42
0.0
10
74.0392990112305
20
80.5404968261719
40
0.0
41
0.0
42
0.0
10
74.0177993774414
20
80.5448989868164
40
0.0
41
0.0
42
0.0
10
73.9888000488281
20
80.5447998046875
40
0.0
41
0.0
42
0.0
10
73.9506988525391
20
80.5058975219727
40
0.0
41
0.0
42
0.0
10
73.5681991577148
20
80.038200378418
40
0.0
41
0.0
42
0.0
10
73.5553970336914
20
80.0102005004883
40
0.0
41
0.0
42
0.0
10
73.4987030029297
20
79.9143981933594
40
0.0
41
0.0
42
0.0
10
73.3361968994141
20
79.5479965209961
40
0.0
41
0.0
42
0.0
10
73.3274993896484
20
79.5151977539062
40
0.0
41
0.0
42
0.0
10
73.3203964233398
20
79.4791030883789
40
0.0
41
0.0
42
0.0
10
73.1405029296875
20
79.013801574707
40
0.0
41
0.0
42
0.0
10
73.1381988525391
20
79.0036010742188
40
0.0
41
0.0
42
0.0
10
72.995002746582
20
78.6917037963867
40
0.0
41
0.0
42
0.0
10
72.4961013793945
20
78.5485992431641
40
0.0
41
0.0
42
0.0
10
72.0168991088867
20
78.6298980712891
40
0.0
41
0.0
42
0.0
10
71.5267028808594
20
78.6883010864258
40
0.0
41
0.0
42
0.0
10
71.5170974731445
20
78.6911010742188
40
0.0
41
0.0
42
0.0
10
71.4804992675781
20
78.6910018920898
40
0.0
41
0.0
42
0.0
10
71.0432968139648
20
78.6691970825195
40
0.0
41
0.0
42
0.0
10
71.0186004638672
20
78.6725997924805
40
0.0
41
0.0
42
0.0
10
70.9809036254883
20
78.6725006103516
40
0.0
41
0.0
42
0.0
10
70.9499969482422
20
78.6697006225586
40
0.0
41
0.0
42
0.0
10
70.5790023803711
20
78.5175018310547
40
0.0
41
0.0
42
0.0
10
70.556396484375
20
78.5039978027344
40
0.0
41
0.0
42
0.0
10
70.4987030029297
20
78.4283981323242
40
0.0
41
0.0
42
0.0
10
70.4160995483398
20
78.1895980834961
40
0.0
41
0.0
42
0.0
10
70.3538970947266
20
78.0491027832031
40
0.0
41
0.0
42
0.0
10
70.3496017456055
20
78.0184020996094
40
0.0
41
0.0
42
0.0
10
70.3495025634766
20
77.9832992553711
40
0.0
41
0.0
42
0.0
10
70.3604965209961
20
77.9498977661133
40
0.0
41
0.0
42
0.0
10
70.4358978271484
20
77.4857025146484
40
0.0
41
0.0
42
0.0
10
70.4789962768555
20
77.3823013305664
40
0.0
41
0.0
42
0.0
10
70.4989013671875
20
77.347297668457
40
0.0
41
0.0
42
0.0
10
70.6372985839844
20
76.9897994995117
40
0.0
41
0.0
42
0.0
10
70.6611022949219
20
76.9554977416992
40
0.0
41
0.0
42
0.0
10
70.8852005004883
20
76.4860000610352
40
0.0
41
0.0
42
0.0
10
70.9524993896484
20
76.0053024291992
40
0.0
41
0.0
42
0.0
10
70.4940032958984
20
75.5939025878906
40
0.0
41
0.0
42
0.0
10
70.3955993652344
20
75.5037994384766
40
0.0
41
0.0
42
0.0
10
69.9929962158203
20
75.200798034668
40
0.0
41
0.0
42
0.0
10
69.7738037109375
20
75.0176010131836
40
0.0
41
0.0
42
0.0
10
69.7519989013672
20
75.0035018920898
40
0.0
41
0.0
42
0.0
10
69.7425994873047
20
74.9942016601562
40
0.0
41
0.0
42
0.0
10
69.4971008300781
20
74.6235961914062
40
0.0
41
0.0
42
0.0
10
69.4251022338867
20
74.5286026000977
40
0.0
41
0.0
42
0.0
10
69.405403137207
20
74.5094985961914
40
0.0
41
0.0
42
0.0
10
69.4001998901367
20
74.4829025268555
40
0.0
41
0.0
42
0.0
10
69.4001007080078
20
74.4461975097656
40
0.0
41
0.0
42
0.0
10
69.4539031982422
20
73.9897994995117
40
0.0
41
0.0
42
0.0
210
0.0
220
0.0
230
1.0
0
LWPOLYLINE
5
27
330
1C
100
AcDbEntity
67
0
8
0
62
256
6
ByLayer
370
-1
48
1.0
60
0
100
AcDbPolyline
90
141
70
1
38
0.0
39
0.0
10
69.4281005859375
20
74.4913024902344
40
0.0
41
0.0
42
0.0
10
69.502799987793
20
74.5897979736328
40
0.0
41
0.0
42
0.0
10
69.7697982788086
20
74.9941024780273
40
0.0
41
0.0
42
0.0
10
70.010498046875
20
75.195198059082
40
0.0
41
0.0
42
0.0
10
70.0434036254883
20
75.2138977050781
40
0.0
41
0.0
42
0.0
10
70.4171981811523
20
75.4961013793945
40
0.0
41
0.0
42
0.0
10
70.5028991699219
20
75.5745010375977
40
0.0
41
0.0
42
0.0
10
70.9343032836914
20
75.9608001708984
40
0.0
41
0.0
42
0.0
10
70.9648971557617
20
75.986701965332
40
0.0
41
0.0
42
0.0
10
70.965202331543
20
76.0151977539062
40
0.0
41
0.0
42
0.0
10
70.9554977416992
20
76.0357971191406
40
0.0
41
0.0
42
0.0
10
70.888801574707
20
76.513801574707
40
0.0
41
0.0
42
0.0
10
70.6513977050781
20
77.0115966796875
40
0.0
41
0.0
42
0.0
10
70.5003967285156
20
77.4024963378906
40
0.0
41
0.0
42
0.0
10
70.4537963867188
20
77.5140991210938
40
0.0
41
0.0
42
0.0
10
70.3759994506836
20
77.9945983886719
40
0.0
41
0.0
42
0.0
10
70.502197265625
20
78.3600006103516
40
0.0
41
0.0
42
0.0
10
70.6061019897461
20
78.497200012207
40
0.0
41
0.0
42
0.0
10
71.0152969360352
20
78.6651000976562
40
0.0
41
0.0
42
0.0
10
71.4931030273438
20
78.6889038085938
40
0.0
41
0.0
42
0.0
10
71.5184020996094
20
78.6831970214844
40
0.0
41
0.0
42
0.0
10
71.9829025268555
20
78.6278991699219
40
0.0
41
0.0
42
0.0
10
72.4496994018555
20
78.5485992431641
40
0.0
41
0.0
42
0.0
10
72.4831008911133
20
78.5386962890625
40
0.0
41
0.0
42
0.0
10
72.5180969238281
20
78.5385971069336
40
0.0
41
0.0
42
0.0
10
72.5502014160156
20
78.5442962646484
40
0.0
41
0.0
42
0.0
10
73.0048980712891
20
78.6746978759766
40
0.0
41
0.0
42
0.0
10
73.1328964233398
20
78.9533996582031
40
0.0
41
0.0
42
0.0
10
73.1399002075195
20
78.9769973754883
40
0.0
41
0.0
42
0.0
10
73.3361968994141
20
79.4830017089844
40
0.0
41
0.0
42
0.0
10
73.5015029907227
20
79.8589019775391
40
0.0
41
0.0
42
0.0
10
73.5804977416992
20
79.9919967651367
40
0.0
41
0.0
42
0.0
10
73.9869995117188
20
80.4887008666992
40
0.0
41
0.0
42
0.0
10
74.008903503418
20
80.5126037597656
40
0.0
41
0.0
42
0.0
10
74.0287017822266
20
80.5170974731445
40
0.0
41
0.0
42
0.0
10
74.4913024902344
20
80.5716018676758
40
0.0
41
0.0
42
0.0
10
74.5896987915039
20
80.4970016479492
40
0.0
41
0.0
42
0.0
10
74.9941024780273
20
80.2298965454102
40
0.0
41
0.0
42
0.0
10
75.1950988769531
20
79.9893035888672
40
0.0
41
0.0
42
0.0
10
75.2137985229492
20
79.9564971923828
40
0.0
41
0.0
42
0.0
10
75.4960021972656
20
79.5824966430664
40
0.0
41
0.0
42
0.0
10
75.5771026611328
20
79.4940032958984
40
0.0
41
0.0
42
0.0
10
75.9608001708984
20
79.0654983520508
40
0.0
41
0.0
42
0.0
10
75.9866027832031
20
79.034797668457
40
0.0
41
0.0
42
0.0
10
76.0151977539062
20
79.0345001220703
40
0.0
41
0.0
42
0.0
10
76.0357971191406
20
79.0441970825195
40
0.0
41
0.0
42
0.0
10
76.513801574707
20
79.1109008789062
40
0.0
41
0.0
42
0.0
10
77.0117034912109
20
79.3482971191406
40
0.0
41
0.0
42
0.0
10
77.4026031494141
20
79.499397277832
40
0.0
41
0.0
42
0.0
10
77.5141983032227
20
79.5458984375
40
0.0
41
0.0
42
0.0
10
77.9945983886719
20
79.6237030029297
40
0.0
41
0.0
42
0.0
10
78.3599014282227
20
79.4974975585938
40
0.0
41
0.0
42
0.0
10
78.497200012207
20
79.3936996459961
40
0.0
41
0.0
42
0.0
10
78.6651000976562
20
78.9845962524414
40
0.0
41
0.0
42
0.0
10
78.6889038085938
20
78.5066986083984
40
0.0
41
0.0
42
0.0
10
78.6831970214844
20
78.4813995361328
40
0.0
41
0.0
42
0.0
10
78.6279983520508
20
78.0168991088867
40
0.0
41
0.0
42
0.0
10
78.5485992431641
20
77.5502014160156
40
0.0
41
0.0
42
0.0
10
78.5386962890625
20
77.5167999267578
40
0.0
41
0.0
42
0.0
10
78.5385971069336
20
77.4817962646484
40
0.0
41
0.0
42
0.0
10
78.5441970825195
20
77.4496994018555
40
0.0
41
0.0
42
0.0
10
78.6745986938477
20
76.9949035644531
40
0.0
41
0.0
42
0.0
10
78.9533996582031
20
76.8667984008789
40
0.0
41
0.0
42
0.0
10
78.9769973754883
20
76.8598022460938
40
0.0
41
0.0
42
0.0
10
79.4830017089844
20
76.6634979248047
40
0.0
41
0.0
42
0.0
10
79.8581008911133
20
76.4985961914062
40
0.0
41
0.0
42
0.0
10
79.9919967651367
20
76.4192962646484
40
0.0
41
0.0
42
0.0
10
80.4886016845703
20
76.0127029418945
40
0.0
41
0.0
42
0.0
10
80.5126037597656
20
75.9909973144531
40
0.0
41
0.0
42
0.0
10
80.5170974731445
20
75.9710998535156
40
0.0
41
0.0
42
0.0
10
80.5717010498047
20
75.5085983276367
40
0.0
41
0.0
42
0.0
10
80.4971008300781
20
75.4101028442383
40
0.0
41
0.0
42
0.0
10
80.2300033569336
20
75.0057983398438
40
0.0
41
0.0
42
0.0
10
79.9893035888672
20
74.8046035766602
40
0.0
41
0.0
42
0.0
10
79.9564971923828
20
74.786003112793
40
0.0
41
0.0
42
0.0
10
79.5826034545898
20
74.5037994384766
40
0.0
41
0.0
42
0.0
10
79.4941024780273
20
74.4226989746094
40
0.0
41
0.0
42
0.0
10
79.0345993041992
20
74.0105972290039
40
0.0
41
0.0
42
0.0
10
79.0344009399414
20
73.9845962524414
40
0.0
41
0.0
42
0.0
10
79.0441970825195
20
73.963996887207
40
0.0
41
0.0
42
0.0
10
79.1108016967773
20
73.4860000610352
40
0.0
41
0.0
42
0.0
10
79.3482971191406
20
72.9881973266602
40
0.0
41
0.0
42
0.0
10
79.4992980957031
20
72.5971984863281
40
0.0
41
0.0
42
0.0
10
79.5457992553711
20
72.4857025146484
40
0.0
41
0.0
42
0.0
10
79.6237030029297
20
72.0053024291992
40
0.0
41
0.0
42
0.0
10
79.4975967407227
20
71.6398010253906
40
0.0
41
0.0
42
0.0
10
79.393798828125
20
71.5027008056641
40
0.0
41
0.0
42
0.0
10
78.9859008789062
20
71.3351974487305
40
0.0
41
0.0
42
0.0
10
78.9773025512695
20
71.3336029052734
40
0.0
41
0.0
42
0.0
10
78.5059967041016
20
71.3102035522461
40
0.0
41
0.0
42
0.0
10
78.0378036499023
20
71.3659973144531
40
0.0
41
0.0
42
0.0
10
78.0154037475586
20
71.3720016479492
40
0.0
41
0.0
42
0.0
10
77.5501022338867
20
71.4508972167969
40
0.0
41
0.0
42
0.0
10
77.5167999267578
20
71.4611968994141
40
0.0
41
0.0
42
0.0
10
77.4817962646484
20
71.4610977172852
40
0.0
41
0.0
42
0.0
10
77.4496994018555
20
71.4554977416992
40
0.0
41
0.0
42
0.0
10
76.995002746582
20
71.3252029418945
40
0.0
41
0.0
42
0.0
10
76.8667984008789
20
71.0464019775391
40
0.0
41
0.0
42
0.0
10
76.8599014282227
20
71.0229034423828
40
0.0
41
0.0
42
0.0
10
76.6635971069336
20
70.5168991088867
40
0.0
41
0.0
42
0.0
10
76.4987030029297
20
70.1416015625
40
0.0
41
0.0
42
0.0
10
76.4192962646484
20
70.0078964233398
40
0.0
41
0.0
42
0.0
10
76.0128021240234
20
69.5112991333008
40
0.0
41
0.0
42
0.0
10
75.991096496582
20
69.4870986938477
40
0.0
41
0.0
42
0.0
10
75.9710998535156
20
69.4825973510742
40
0.0
41
0.0
42
0.0
10
75.5085983276367
20
69.4280014038086
40
0.0
41
0.0
42
0.0
10
75.4100036621094
20
69.5027008056641
40
0.0
41
0.0
42
0.0
10
75.0056991577148
20
69.7697982788086
40
0.0
41
0.0
42
0.0
10
74.8046035766602
20
70.010498046875
40
0.0
41
0.0
42
0.0
10
74.7858963012695
20
70.0434036254883
40
0.0
41
0.0
42
0.0
10
74.5037994384766
20
70.4171981811523
40
0.0
41
0.0
42
0.0
10
74.4252014160156
20
70.5028991699219
40
0.0
41
0.0
42
0.0
10
74.0105972290039
20
70.9653015136719
40
0.0
41
0.0
42
0.0
10
73.9847030639648
20
70.9653015136719
40
0.0
41
0.0
42
0.0
10
73.963996887207
20
70.9554977416992
40
0.0
41
0.0
42
0.0
10
73.4860992431641
20
70.8889007568359
40
0.0
41
0.0
42
0.0
10
72.9882965087891
20
70.651496887207
40
0.0
41
0.0
42
0.0
10
72.597297668457
20
70.5005035400391
40
0.0
41
0.0
42
0.0
10
72.4858016967773
20
70.4539031982422
40
0.0
41
0.0
42
0.0
10
72.0053024291992
20
70.3759994506836
40
0.0
41
0.0
42
0.0
10
71.6398010253906
20
70.5020980834961
40
0.0
41
0.0
42
0.0
10
71.5026016235352
20
70.6060028076172
40
0.0
41
0.0
42
0.0
10
71.3350982666016
20
71.0139999389648
40
0.0
41
0.0
42
0.0
10
71.3336029052734
20
71.0225982666016
40
0.0
41
0.0
42
0.0
10
71.310302734375
20
71.4937973022461
40
0.0
41
0.0
42
0.0
10
71.366096496582
20
71.9618988037109
40
0.0
41
0.0
42
0.0
10
71.3720016479492
20
71.9844970703125
40
0.0
41
0.0
42
0.0
10
71.4509963989258
20
72.4497985839844
40
0.0
41
0.0
42
0.0
10
71.4611968994141
20
72.4831008911133
40
0.0
41
0.0
42
0.0
10
71.4610977172852
20
72.5180969238281
40
0.0
41
0.0
42
0.0
10
71.4553985595703
20
72.5502014160156
40
0.0
41
0.0
42
0.0
10
71.3251037597656
20
73.0048980712891
40
0.0
41
0.0
42
0.0
10
71.0463027954102
20
73.1328964233398
40
0.0
41
0.0
42
0.0
10
71.0229034423828
20
73.1398010253906
40
0.0
41
0.0
42
0.0
10
70.5168991088867
20
73.3361968994141
40
0.0
41
0.0
42
0.0
10
70.1408996582031
20
73.5015029907227
40
0.0
41
0.0
42
0.0
10
70.0077972412109
20
73.5803985595703
40
0.0
41
0.0
42
0.0
10
69.5111999511719
20
73.9869995117188
40
0.0
41
0.0
42
0.0
10
69.4870986938477
20
74.0087966918945
40
0.0
41
0.0
42
0.0
10
69.4825973510742
20
74.0287017822266
40
0.0
41
0.0
42
0.0
10
69.4281005859375
20
74.4913024902344
40
0.0
41
0.0
42
0.0
210
0.0
220
0.0
230
1.0
0
LWPOLYLINE
5
28
330
1C
100
AcDbEntity
67
0
8
0
62
256
6
ByLayer
370
-1
48
1.0
60
0
100
AcDbPolyline
90
14
70
1
38
0.0
39
0.0
10
74.0096969604492
20
74.361198425293
40
0.0
41
0.0
42
0.0
10
74.0502014160156
20
74.3610992431641
40
0.0
41
0.0
42
0.0
10
74.2895965576172
20
74.4748001098633
40
0.0
41
0.0
42
0.0
10
74.2966995239258
20
74.4860000610352
40
0.0
41
0.0
42
0.0
10
74.2966003417969
20
74.5090026855469
40
0.0
41
0.0
42
0.0
10
74.0716018676758
20
74.6671981811523
40
0.0
41
0.0
42
0.0
10
74.0173034667969
20
74.7092971801758
40
0.0
41
0.0
42
0.0
10
73.9929962158203
20
74.7092971801758
40
0.0
41
0.0
42
0.0
10
73.869499206543
20
74.5406036376953
40
0.0
41
0.0
42
0.0
10
73.8371963500977
20
74.4789962768555
40
0.0
41
0.0
42
0.0
10
73.8370971679688
20
74.4533004760742
40
0.0
41
0.0
42
0.0
10
73.9524002075195
20
74.3470993041992
40
0.0
41
0.0
42
0.0
10
73.9794998168945
20
74.3470993041992
40
0.0
41
0.0
42
0.0
10
74.0096969604492
20
74.361198425293
40
0.0
41
0.0
42
0.0
210
0.0
220
0.0
230
1.0
0
LWPOLYLINE
5
29
330
1C
100
AcDbEntity
67
0
8
0
62
256
6
ByLayer
370
-1
48
1.0
60
0
100
AcDbPolyline
90
5
70
1
38
0.0
39
0.0
10
74.0014038085938
20
74.6778030395508
40
0.0
41
0.0
42
0.0
10
74.2539978027344
20
74.5002975463867
40
0.0
41
0.0
42
0.0
10
74.0024032592773
20
74.3807983398438
40
0.0
41
0.0
42
0.0
10
73.8721008300781
20
74.5010986328125
40
0.0
41
0.0
42
0.0
10
74.0014038085938
20
74.6778030395508
40
0.0
41
0.0
42
0.0
210
0.0
220
0.0
230
1.0
0
LWPOLYLINE
5
2A
330
1C
100
AcDbEntity
67
0
8
0
62
256
6
ByLayer
370
-1
48
1.0
60
0
100
AcDbPolyline
90
14
70
1
38
0.0
39
0.0
10
74.3612976074219
20
75.9492034912109
40
0.0
41
0.0
42
0.0
10
74.4747009277344
20
75.7100982666016
40
0.0
41
0.0
42
0.0
10
74.4860000610352
20
75.7032012939453
40
0.0
41
0.0
42
0.0
10
74.5091018676758
20
75.7031021118164
40
0.0
41
0.0
42
0.0
10
74.6671981811523
20
75.9281005859375
40
0.0
41
0.0
42
0.0
10
74.7092971801758
20
75.9824981689453
40
0.0
41
0.0
42
0.0
10
74.7092971801758
20
76.0068969726562
40
0.0
41
0.0
42
0.0
10
74.5406036376953
20
76.1303024291992
40
0.0
41
0.0
42
0.0
10
74.4789962768555
20
76.1626968383789
40
0.0
41
0.0
42
0.0
10
74.4533996582031
20
76.16259765625
40
0.0
41
0.0
42
0.0
10
74.3470993041992
20
76.0474014282227
40
0.0
41
0.0
42
0.0
10
74.3469009399414
20
76.0203018188477
40
0.0
41
0.0
42
0.0
10
74.3610992431641
20
75.9903030395508
40
0.0
41
0.0
42
0.0
10
74.3612976074219
20
75.9492034912109
40
0.0
41
0.0
42
0.0
210
0.0
220
0.0
230
1.0
0
LWPOLYLINE
5
2B
330
1C
100
AcDbEntity
67
0
8
0
62
256
6
ByLayer
370
-1
48
1.0
60
0
100
AcDbPolyline
90
5
70
1
38
0.0
39
0.0
10
74.5002975463867
20
75.7456970214844
40
0.0
41
0.0
42
0.0
10
74.3808975219727
20
75.9974975585938
40
0.0
41
0.0
42
0.0
10
74.5010986328125
20
76.1276016235352
40
0.0
41
0.0
42
0.0
10
74.6779022216797
20
75.9983978271484
40
0.0
41
0.0
42
0.0
10
74.5002975463867
20
75.7456970214844
40
0.0
41
0.0
42
0.0
210
0.0
220
0.0
230
1.0
0
LWPOLYLINE
5
2C
330
1C
100
AcDbEntity
67
0
8
0
62
256
6
ByLayer
370
-1
48
1.0
60
0
100
AcDbPolyline
90
9
70
1
38
0.0
39
0.0
10
74.5422973632812
20
74.9886016845703
40
0.0
41
0.0
42
0.0
10
74.9886016845703
20
74.5423965454102
40
0.0
41
0.0
42
0.0
10
75.0111999511719
20
74.5423965454102
40
0.0
41
0.0
42
0.0
10
75.4574966430664
20
74.9886016845703
40
0.0
41
0.0
42
0.0
10
75.4573974609375
20
75.0111999511719
40
0.0
41
0.0
42
0.0
10
75.0112991333008
20
75.4574966430664
40
0.0
41
0.0
42
0.0
10
74.9886016845703
20
75.4573974609375
40
0.0
41
0.0
42
0.0
10
74.5423965454102
20
75.0112991333008
40
0.0
41
0.0
42
0.0
10
74.5422973632812
20
74.9886016845703
40
0.0
41
0.0
42
0.0
210
0.0
220
0.0
230
1.0
0
LWPOLYLINE
5
2D
330
1C
100
AcDbEntity
67
0
8
0
62
256
6
ByLayer
370
-1
48
1.0
60
0
100
AcDbPolyline
90
5
70
1
38
0.0
39
0.0
10
75.0
20
74.5681991577148
40
0.0
41
0.0
42
0.0
10
74.5682983398438
20
75.0
40
0.0
41
0.0
42
0.0
10
75.0
20
75.4312973022461
40
0.0
41
0.0
42
0.0
10
75.431396484375
20
75.0
40
0.0
41
0.0
42
0.0
10
75.0
20
74.5681991577148
40
0.0
41
0.0
42
0.0
210
0.0
220
0.0
230
1.0
0
LWPOLYLINE
5
2E
330
1C
100
AcDbEntity
67
0
8
0
62
256
6
ByLayer
370
-1
48
1.0
60
0
100
AcDbPolyline
90
14
70
1
38
0.0
39
0.0
10
75.2906036376953
20
74.0173034667969
40
0.0
41
0.0
42
0.0
10
75.2906036376953
20
73.9928970336914
40
0.0
41
0.0
42
0.0
10
75.459098815918
20
73.8694000244141
40
0.0
41
0.0
42
0.0
10
75.5207977294922
20
73.8371963500977
40
0.0
41
0.0
42
0.0
10
75.5464019775391
20
73.8371963500977
40
0.0
41
0.0
42
0.0
10
75.6528015136719
20
73.9524002075195
40
0.0
41
0.0
42
0.0
10
75.6526031494141
20
73.9794006347656
40
0.0
41
0.0
42
0.0
10
75.6384963989258
20
74.0096969604492
40
0.0
41
0.0
42
0.0
10
75.6386032104492
20
74.0502014160156
40
0.0
41
0.0
42
0.0
10
75.52490234375
20
74.2895965576172
40
0.0
41
0.0
42
0.0
10
75.5139007568359
20
74.2966995239258
40
0.0
41
0.0
42
0.0
10
75.4907989501953
20
74.2966995239258
40
0.0
41
0.0
42
0.0
10
75.3326034545898
20
74.0717010498047
40
0.0
41
0.0
42
0.0
10
75.2906036376953
20
74.0173034667969
40
0.0
41
0.0
42
0.0
210
0.0
220
0.0
230
1.0
0
LWPOLYLINE
5
2F
330
1C
100
AcDbEntity
67
0
8
0
62
256
6
ByLayer
370
-1
48
1.0
60
0
100
AcDbPolyline
90
5
70
1
38
0.0
39
0.0
10
75.4994964599609
20
74.2537994384766
40
0.0
41
0.0
42
0.0
10
75.618896484375
20
74.0024032592773
40
0.0
41
0.0
42
0.0
10
75.4987030029297
20
73.8720016479492
40
0.0
41
0.0
42
0.0
10
75.3218994140625
20
74.0014038085938
40
0.0
41
0.0
42
0.0
10
75.4994964599609
20
74.2537994384766
40
0.0
41
0.0
42
0.0
210
0.0
220
0.0
230
1.0
0
LWPOLYLINE
5
30
330
1C
100
AcDbEntity
67
0
8
0
62
256
6
ByLayer
370
-1
48
1.0
60
0
100
AcDbPolyline
90
16
70
1
38
0.0
39
0.0
10
75.6701965332031
20
75.3821029663086
40
0.0
41
0.0
42
0.0
10
75.6699981689453
20
75.3655014038086
40
0.0
41
0.0
42
0.0
10
75.6790008544922
20
75.3656005859375
40
0.0
41
0.0
42
0.0
10
75.752197265625
20
75.4583969116211
40
0.0
41
0.0
42
0.0
10
75.9866027832031
20
75.2938003540039
40
0.0
41
0.0
42
0.0
10
76.0093002319336
20
75.293701171875
40
0.0
41
0.0
42
0.0
10
76.1303024291992
20
75.4591979980469
40
0.0
41
0.0
42
0.0
10
76.1626968383789
20
75.5207977294922
40
0.0
41
0.0
42
0.0
10
76.16259765625
20
75.5464019775391
40
0.0
41
0.0
42
0.0
10
76.0474014282227
20
75.6528015136719
40
0.0
41
0.0
42
0.0
10
76.0204010009766
20
75.6528015136719
40
0.0
41
0.0
42
0.0
10
75.9903030395508
20
75.6386032104492
40
0.0
41
0.0
42
0.0
10
75.9492034912109
20
75.6383972167969
40
0.0
41
0.0
42
0.0
10
75.7101974487305
20
75.5250015258789
40
0.0
41
0.0
42
0.0
10
75.7016983032227
20
75.5115966796875
40
0.0
41
0.0
42
0.0
10
75.6701965332031
20
75.3821029663086
40
0.0
41
0.0
42
0.0
210
0.0
220
0.0
230
1.0
0
LWPOLYLINE
5
31
330
1C
100
AcDbEntity
67
0
8
0
62
256
6
ByLayer
370
-1
48
1.0
60
0
100
AcDbPolyline
90
5
70
1
38
0.0
39
0.0
10
75.9983978271484
20
75.3218002319336
40
0.0
41
0.0
42
0.0
10
75.7459030151367
20
75.4994964599609
40
0.0
41
0.0
42
0.0
10
75.9974975585938
20
75.6187973022461
40
0.0
41
0.0
42
0.0
10
76.1277008056641
20
75.4987030029297
40
0.0
41
0.0
42
0.0
10
75.9983978271484
20
75.3218002319336
40
0.0
41
0.0
42
0.0
210
0.0
220
0.0
230
1.0
0
LWPOLYLINE
5
32
330
1C
100
AcDbEntity
67
0
8
0
62
256
6
ByLayer
370
-1
48
1.0
60
0
100
AcDbPolyline
90
34
70
1
38
0.0
39
0.0
10
80.2148971557617
20
65.0115966796875
40
0.0
41
0.0
42
0.0
10
80.2148971557617
20
65.0009994506836
40
0.0
41
0.0
42
0.0
10
80.299201965332
20
65.0009994506836
40
0.0
41
0.0
42
0.0
10
80.5074996948242
20
65.220100402832
40
0.0
41
0.0
42
0.0
10
80.8601989746094
20
65.3830032348633
40
0.0
41
0.0
42
0.0
10
80.9303970336914
20
65.4191970825195
40
0.0
41
0.0
42
0.0
10
81.0109024047852
20
65.4712982177734
40
0.0
41
0.0
42
0.0
10
81.1016006469727
20
65.5001983642578
40
0.0
41
0.0
42
0.0
10
81.5164031982422
20
65.5990982055664
40
0.0
41
0.0
42
0.0
10
81.8900985717773
20
65.6401977539062
40
0.0
41
0.0
42
0.0
10
82.0174026489258
20
65.6624984741211
40
0.0
41
0.0
42
0.0
10
82.4502029418945
20
65.6912002563477
40
0.0
41
0.0
42
0.0
10
82.5532989501953
20
65.7060012817383
40
0.0
41
0.0
42
0.0
10
83.0214996337891
20
65.7108993530273
40
0.0
41
0.0
42
0.0
10
83.4934997558594
20
65.6406021118164
40
0.0
41
0.0
42
0.0
10
83.7394027709961
20
65.493896484375
40
0.0
41
0.0
42
0.0
10
83.8902969360352
20
65.0239028930664
40
0.0
41
0.0
42
0.0
10
83.9049987792969
20
65.0009994506836
40
0.0
41
0.0
42
0.0
10
83.928596496582
20
65.0009994506836
40
0.0
41
0.0
42
0.0
10
83.9284973144531
20
65.0105972290039
40
0.0
41
0.0
42
0.0
10
83.9086990356445
20
65.0286026000977
40
0.0
41
0.0
42
0.0
10
83.7546997070312
20
65.5087966918945
40
0.0
41
0.0
42
0.0
10
83.5127029418945
20
65.6532974243164
40
0.0
41
0.0
42
0.0
10
83.0121002197266
20
65.7276992797852
40
0.0
41
0.0
42
0.0
10
82.4741973876953
20
65.7227020263672
40
0.0
41
0.0
42
0.0
10
81.97509765625
20
65.6901016235352
40
0.0
41
0.0
42
0.0
10
81.4848022460938
20
65.6362991333008
40
0.0
41
0.0
42
0.0
10
81.4748992919922
20
65.6361999511719
40
0.0
41
0.0
42
0.0
10
80.9857025146484
20
65.5258026123047
40
0.0
41
0.0
42
0.0
10
80.9648971557617
20
65.5186004638672
40
0.0
41
0.0
42
0.0
10
80.9226989746094
20
65.5007019042969
40
0.0
41
0.0
42
0.0
10
80.4919967651367
20
65.3018035888672
40
0.0
41
0.0
42
0.0
10
80.4710998535156
20
65.2814025878906
40
0.0
41
0.0
42
0.0
10
80.2148971557617
20
65.0115966796875
40
0.0
41
0.0
42
0.0
210
0.0
220
0.0
230
1.0
0
LWPOLYLINE
5
33
330
1C
100
AcDbEntity
67
0
8
0
62
256
6
ByLayer
370
-1
48
1.0
60
0
100
AcDbPolyline
90
36
70
1
38
0.0
39
0.0
10
84.4738998413086
20
80.9857025146484
40
0.0
41
0.0
42
0.0
10
84.4811019897461
20
80.9648971557617
40
0.0
41
0.0
42
0.0
10
84.4990997314453
20
80.9225997924805
40
0.0
41
0.0
42
0.0
10
84.6978988647461
20
80.4919967651367
40
0.0
41
0.0
42
0.0
10
84.7183990478516
20
80.4710998535156
40
0.0
41
0.0
42
0.0
10
84.9882965087891
20
80.2148971557617
40
0.0
41
0.0
42
0.0
10
84.9990005493164
20
80.2148971557617
40
0.0
41
0.0
42
0.0
10
84.9989013671875
20
80.299201965332
40
0.0
41
0.0
42
0.0
10
84.7796020507812
20
80.5074996948242
40
0.0
41
0.0
42
0.0
10
84.61669921875
20
80.8601989746094
40
0.0
41
0.0
42
0.0
10
84.5805969238281
20
80.9303970336914
40
0.0
41
0.0
42
0.0
10
84.5283966064453
20
81.0109024047852
40
0.0
41
0.0
42
0.0
10
84.4996032714844
20
81.1016006469727
40
0.0
41
0.0
42
0.0
10
84.4005966186523
20
81.5162963867188
40
0.0
41
0.0
42
0.0
10
84.3594970703125
20
81.8900985717773
40
0.0
41
0.0
42
0.0
10
84.3371963500977
20
82.0174026489258
40
0.0
41
0.0
42
0.0
10
84.3085021972656
20
82.4502029418945
40
0.0
41
0.0
42
0.0
10
84.293701171875
20
82.5532989501953
40
0.0
41
0.0
42
0.0
10
84.2891006469727
20
82.984001159668
40
0.0
41
0.0
42
0.0
10
84.3579025268555
20
83.4466018676758
40
0.0
41
0.0
42
0.0
10
84.3583984375
20
83.492301940918
40
0.0
41
0.0
42
0.0
10
84.5059967041016
20
83.739501953125
40
0.0
41
0.0
42
0.0
10
84.9758987426758
20
83.8904037475586
40
0.0
41
0.0
42
0.0
10
84.9990005493164
20
83.9051971435547
40
0.0
41
0.0
42
0.0
10
84.9990005493164
20
83.928596496582
40
0.0
41
0.0
42
0.0
10
84.9891967773438
20
83.9284973144531
40
0.0
41
0.0
42
0.0
10
84.9711990356445
20
83.9087982177734
40
0.0
41
0.0
42
0.0
10
84.4908981323242
20
83.7546997070312
40
0.0
41
0.0
42
0.0
10
84.3464965820312
20
83.5128021240234
40
0.0
41
0.0
42
0.0
10
84.272102355957
20
83.0183029174805
40
0.0
41
0.0
42
0.0
10
84.2720031738281
20
82.9736022949219
40
0.0
41
0.0
42
0.0
10
84.2770004272461
20
82.4741973876953
40
0.0
41
0.0
42
0.0
10
84.3096008300781
20
81.97509765625
40
0.0
41
0.0
42
0.0
10
84.3636016845703
20
81.4848022460938
40
0.0
41
0.0
42
0.0
10
84.3635025024414
20
81.4756011962891
40
0.0
41
0.0
42
0.0
10
84.4738998413086
20
80.9857025146484
40
0.0
41
0.0
42
0.0
210
0.0
220
0.0
230
1.0
0
VIEWPORT
5
38
330
34
100
AcDbEntity
67
1
8
0
62
256
6
ByLayer
370
-1
48
1.0
60
0
100
AcDbViewport
10
0.0
20
0.0
30
0.0
40
297.0
41
210.0
68
1
69
1
12
50.0
22
100.0
13
0.0
23
0.0
14
10.0
24
10.0
15
10.0
25
10.0
16
0.0
26
0.0
36
1.0
17
0.0
27
0.0
37
0.0
42
50.0
43
0.0
44
0.0
45
250.0
50
0.0
51
0.0
72
1000
90
819232
110
0.0
120
0.0
130
0.0
111
1.0
121
0.0
131
0.0
112
0.0
122
1.0
132
0.0
0
ENDSEC
0
SECTION
2
OBJECTS
0
DICTIONARY
5
3E
330
0
100
AcDbDictionary
280
1
281
1
3
ACAD_GROUP
350
12
3
ACAD_LAYOUT
350
37
3
ACAD_DGNDEFINITIONS
350
F
3
ACAD_DWFDEFINITIONS
350
10
3
ACAD_PDFDEFINITIONS
350
11
3
ACAD_MLINESTYLE
350
B
3
ACAD_IMAGE_DICT
350
E
3
ACAD_IMAGE_VARS
350
21
0
DICTIONARY
5
12
330
3E
100
AcDbDictionary
280
1
281
1
0
DICTIONARY
5
37
330
3E
100
AcDbDictionary
280
1
281
1
3
Model
350
20
3
Layout1
350
39
0
DICTIONARY
5
F
330
3E
100
AcDbDictionary
280
1
281
1
0
DICTIONARY
5
10
330
3E
100
AcDbDictionary
280
1
281
1
0
DICTIONARY
5
11
330
3E
100
AcDbDictionary
280
1
281
1
0
DICTIONARY
5
B
330
3E
100
AcDbDictionary
280
1
281
1
3
Standard
350
1B
0
DICTIONARY
5
E
330
3E
100
AcDbDictionary
280
1
281
1
0
DICTIONARY
5
6
330
5
100
AcDbDictionary
280
1
281
1
3
ACAD_LAYERSTATES
360
3F
0
DICTIONARY
5
3F
330
6
100
AcDbDictionary
280
1
281
1
0
LAYOUT
5
20
330
37
100
AcDbPlotSettings
1

2
none_device
4
ISO_A4_(210.00_x_297.00_MM)
6

40
7.5
41
20.0
42
7.5
43
20.0
44
210.0
45
297.0
46
0.0
47
0.0
48
0.0
49
0.0
140
0.0
141
0.0
142
1.0
143
1.0
70
11952
72
1
73
1
74
1
7

75
0
76
0
77
2
78
300
147
1.0
148
0.0
149
0.0
100
AcDbLayout
1
Model
71
0
10
-20.0
20
-7.5
11
277.0
21
202.5
12
0.0
22
0.0
32
0.0
14
25.7
24
19.5
34
0.0
15
231.3
25
175.5
35
0.0
146
0.0
13
0.0
23
0.0
33
0.0
16
1.0
26
0.0
36
0.0
17
0.0
27
1.0
37
0.0
76
0
330
1C
0
LAYOUT
5
39
330
37
100
AcDbPlotSettings
1

2
none_device
4
ISO_A4_(210.00_x_297.00_MM)
6

40
7.5
41
20.0
42
7.5
43
20.0
44
210.0
45
297.0
46
0.0
47
0.0
48
0.0
49
0.0
140
0.0
141
0.0
142
1.0
143
1.0
70
688
72
1
73
1
74
1
7

75
0
76
0
77
2
78
300
147
1.0
148
0.0
149
0.0
100
AcDbLayout
1
Layout1
71
1
10
-20.0
20
-7.5
11
277.0
21
202.5
12
0.0
22
0.0
32
0.0
14
25.7
24
19.5
34
0.0
15
231.3
25
175.5
35
0.0
146
0.0
13
0.0
23
0.0
33
0.0
16
1.0
26
0.0
36
0.0
17
0.0
27
1.0
37
0.0
76
0
330
34
0
MLINESTYLE
5
1B
330
B
100
AcDbMlineStyle
2
Standard
70
0
3

62
256
51
90.0
52
90.0
71
2
49
0.5
62
256
6
ByLayer
49
-0.5
62
256
6
ByLayer
0
RASTERVARIABLES
5
21
330
E
100
AcDbRasterVariables
90
0
70
1
71
1
72
0
0
ENDSEC
0
EOF
