999
DXF file generated by netDxf https://github.com/haplokuon/netDxf, Copyright(C) Daniel Carvajal, Licensed under MIT
0
SECTION
2
HEADER
9
$ACADVER
1
AC1015
9
$DWGCODEPAGE
3
ANSI_1252
9
$HANDSEED
5
42
9
$ANGBASE
50
0.0
9
$ANGDIR
70
0
9
$ATTMODE
70
1
9
$AUNITS
70
0
9
$AUPREC
70
0
9
$CECOLOR
62
256
9
$CELTSCALE
40
1.0
9
$CELTYPE
6
ByLayer
9
$CELWEIGHT
370
-1
9
$CLAYER
8
0
9
$CMLJUST
70
0
9
$CMLSCALE
40
20.0
9
$CMLSTYLE
2
Standard
9
$DIMSTYLE
2
Standard
9
$TEXTSIZE
40
2.5
9
$TEXTSTYLE
7
Standard
9
$LUNITS
70
2
9
$LUPREC
70
4
9
$MIRRTEXT
70
0
9
$EXTNAMES
290
1
9
$INSBASE
10
0.0
20
0.0
30
0.0
9
$INSUNITS
70
0
9
$LTSCALE
40
1.0
9
$LWDISPLAY
290
0
9
$PDMODE
70
0
9
$PDSIZE
40
0.0
9
$PLINEGEN
70
0
9
$PSLTSCALE
70
1
9
$SPLINESEGS
70
8
9
$SURFU
70
6
9
$SURFV
70
6
9
$TDCREATE
40
2460823.48374484
9
$TDUCREATE
40
2460823.1504115
9
$TDUPDATE
40
2460823.48374484
9
$TDUUPDATE
40
2460823.1504115
9
$TDINDWG
40
0.0
9
$UCSORG
10
0.0
20
0.0
30
0.0
9
$UCSXDIR
10
1.0
20
0.0
30
0.0
9
$UCSYDIR
10
0.0
20
1.0
30
0.0
9
$DIMADEC
70
0
9
$DIMALT
70
0
9
$DIMALTD
70
2
9
$DIMALTF
40
25.4
9
$DIMALTRND
40
0.0
9
$DIMALTTD
70
2
9
$DIMALTTZ
70
0
9
$DIMALTU
70
2
9
$DIMALTZ
70
0
9
$DIMAPOST
1

9
$DIMATFIT
70
3
9
$DIMAUNIT
70
0
9
$DIMASZ
40
0.18
9
$DIMAZIN
70
0
9
$DIMSAH
70
0
9
$DIMBLK
1

9
$DIMLDRBLK
1

9
$DIMCEN
40
0.09
9
$DIMCLRD
70
0
9
$DIMCLRE
70
0
9
$DIMCLRT
70
0
9
$DIMDEC
70
4
9
$DIMDLE
40
0.0
9
$DIMDLI
40
0.38
9
$DIMDSEP
70
46
9
$DIMEXE
40
0.18
9
$DIMEXO
40
0.0625
9
$DIMFXLON
70
0
9
$DIMFXL
40
1.0
9
$DIMGAP
40
0.09
9
$DIMJUST
70
0
9
$DIMLFAC
40
1.0
9
$DIMLUNIT
70
2
9
$DIMLWD
70
-2
9
$DIMLWE
70
-2
9
$DIMPOST
1

9
$DIMRND
40
0.0
9
$DIMSCALE
40
1.0
9
$DIMSD1
70
0
9
$DIMSD2
70
0
9
$DIMSE1
70
0
9
$DIMSE2
70
0
9
$DIMSOXD
70
0
9
$DIMTAD
70
0
9
$DIMTDEC
70
4
9
$DIMTFAC
40
1.0
9
$DIMTIH
70
0
9
$DIMTIX
70
0
9
$DIMTM
40
0.0
9
$DIMTMOVE
70
0
9
$DIMTOFL
70
0
9
$DIMTOH
70
0
9
$DIMTOL
70
0
9
$DIMLIM
70
0
9
$DIMTOLJ
70
1
9
$DIMTP
40
0.0
9
$DIMTXT
40
0.18
9
$DIMTXTDIRECTION
70
0
9
$DIMTZIN
70
0
9
$DIMZIN
70
0
9
$DIMFRAC
70
0
9
$DIMLTYPE
6
ByBlock
9
$DIMLTEX1
6
ByBlock
9
$DIMLTEX2
6
ByBlock
0
ENDSEC
0
SECTION
2
CLASSES
0
CLASS
1
RASTERVARIABLES
2
AcDbRasterVariables
3
ISM
90
0
280
0
281
0
0
ENDSEC
0
SECTION
2
TABLES
0
TABLE
2
APPID
5
4
330
0
100
AcDbSymbolTable
70
5
0
APPID
5
19
330
4
100
AcDbSymbolTableRecord
100
AcDbRegAppTableRecord
2
ACAD
70
0
0
APPID
5
3C
330
4
100
AcDbSymbolTableRecord
100
AcDbRegAppTableRecord
2
AcCmTransparency
70
0
0
APPID
5
3D
330
4
100
AcDbSymbolTableRecord
100
AcDbRegAppTableRecord
2
AcAecLayerStandard
70
0
0
APPID
5
3E
330
4
100
AcDbSymbolTableRecord
100
AcDbRegAppTableRecord
2
GradientColor1ACI
70
0
0
APPID
5
3F
330
4
100
AcDbSymbolTableRecord
100
AcDbRegAppTableRecord
2
GradientColor2ACI
70
0
0
ENDTAB
0
TABLE
2
VPORT
5
1
330
0
100
AcDbSymbolTable
70
1
0
VPORT
5
2
330
1
100
AcDbSymbolTableRecord
100
AcDbViewportTableRecord
2
*Active
70
0
10
0.0
20
0.0
11
1.0
21
1.0
12
0.0
22
0.0
13
0.0
23
0.0
14
0.5
24
0.5
15
10.0
25
10.0
16
0.0
26
0.0
36
1.0
17
0.0
27
0.0
37
0.0
40
10.0
41
1.0
75
0
76
1
0
ENDTAB
0
TABLE
2
LTYPE
5
7
330
0
100
AcDbSymbolTable
70
3
0
LTYPE
5
15
330
7
100
AcDbSymbolTableRecord
100
AcDbLinetypeTableRecord
2
Continuous
70
0
3
Solid line
72
65
73
0
40
0.0
0
LTYPE
5
16
330
7
100
AcDbSymbolTableRecord
100
AcDbLinetypeTableRecord
2
ByLayer
70
0
3

72
65
73
0
40
0.0
0
LTYPE
5
17
330
7
100
AcDbSymbolTableRecord
100
AcDbLinetypeTableRecord
2
ByBlock
70
0
3

72
65
73
0
40
0.0
0
ENDTAB
0
TABLE
2
LAYER
5
5
102
{ACAD_XDICTIONARY
360
6
102
}
330
0
100
AcDbSymbolTable
70
1
0
LAYER
5
14
330
5
100
AcDbSymbolTableRecord
100
AcDbLayerTableRecord
2
0
70
0
62
7
6
Continuous
290
1
370
-3
390
0
0
ENDTAB
0
TABLE
2
STYLE
5
8
330
0
100
AcDbSymbolTable
70
1
0
STYLE
5
18
330
8
100
AcDbSymbolTableRecord
100
AcDbTextStyleTableRecord
2
Standard
3
simplex.shx
70
0
71
0
40
0.0
41
1.0
42
0.0
50
0.0
0
ENDTAB
0
TABLE
2
DIMSTYLE
5
A
330
0
100
AcDbSymbolTable
70
1
100
AcDbDimStyleTable
0
DIMSTYLE
105
1A
330
A
100
AcDbSymbolTableRecord
100
AcDbDimStyleTableRecord
2
Standard
3

4

40
1.0
41
0.18
42
0.0625
43
0.38
44
0.18
45
0.0
46
0.0
47
0.0
48
0.0
49
1.0
70
0
71
0
72
0
73
0
74
0
75
0
76
0
77
0
78
0
79
0
140
0.18
141
0.09
143
25.4
144
1.0
146
1.0
147
0.09
148
0.0
170
0
171
2
172
0
174
0
175
0
176
0
177
0
178
0
179
0
271
4
272
4
273
2
274
2
275
0
276
0
277
2
278
46
279
0
280
0
281
0
282
0
283
1
284
0
285
0
286
0
289
3
290
0
294
0
340
18
173
0
345
17
346
17
347
17
371
-2
372
-2
0
ENDTAB
0
TABLE
2
VIEW
5
3
330
0
100
AcDbSymbolTable
70
0
0
ENDTAB
0
TABLE
2
UCS
5
C
330
0
100
AcDbSymbolTable
70
0
0
ENDTAB
0
TABLE
2
BLOCK_RECORD
5
D
330
0
100
AcDbSymbolTable
70
2
0
BLOCK_RECORD
5
1C
330
D
100
AcDbSymbolTableRecord
100
AcDbBlockTableRecord
2
*Model_Space
340
20
0
BLOCK_RECORD
5
36
330
D
100
AcDbSymbolTableRecord
100
AcDbBlockTableRecord
2
*Paper_Space
340
3B
0
ENDTAB
0
ENDSEC
0
SECTION
2
BLOCKS
0
BLOCK
5
1E
330
1C
100
AcDbEntity
67
0
8
0
100
AcDbBlockBegin
2
*Model_Space
70
0
10
0.0
20
0.0
30
0.0
3
*Model_Space
4

0
ENDBLK
5
1D
330
1C
100
AcDbEntity
8
0
100
AcDbBlockEnd
0
BLOCK
5
38
330
36
100
AcDbEntity
67
1
8
0
100
AcDbBlockBegin
2
*Paper_Space
70
0
10
0.0
20
0.0
30
0.0
3
*Paper_Space
4

0
ENDBLK
5
37
330
36
100
AcDbEntity
8
0
100
AcDbBlockEnd
0
ENDSEC
0
SECTION
2
ENTITIES
0
LWPOLYLINE
5
22
330
1C
100
AcDbEntity
67
0
8
0
62
256
6
ByLayer
370
-1
48
1.0
60
0
100
AcDbPolyline
90
37
70
1
38
0.0
39
0.0
10
65.1239013671875
20
66.997802734375
40
0.0
41
0.0
42
0.0
10
65.4901962280273
20
66.8067016601562
40
0.0
41
0.0
42
0.0
10
65.6054000854492
20
66.7372970581055
40
0.0
41
0.0
42
0.0
10
65.9576034545898
20
66.5429992675781
40
0.0
41
0.0
42
0.0
10
65.9916000366211
20
66.5217971801758
40
0.0
41
0.0
42
0.0
10
66.0272979736328
20
66.4964981079102
40
0.0
41
0.0
42
0.0
10
66.0552978515625
20
66.4730987548828
40
0.0
41
0.0
42
0.0
10
66.1072006225586
20
66.4337005615234
40
0.0
41
0.0
42
0.0
10
66.4926986694336
20
66.1740036010742
40
0.0
41
0.0
42
0.0
10
66.6157989501953
20
66.0673980712891
40
0.0
41
0.0
42
0.0
10
66.6873016357422
20
65.993896484375
40
0.0
41
0.0
42
0.0
10
66.7322006225586
20
65.9390029907227
40
0.0
41
0.0
42
0.0
10
66.9960021972656
20
65.6619033813477
40
0.0
41
0.0
42
0.0
10
67.0770034790039
20
65.5522994995117
40
0.0
41
0.0
42
0.0
10
67.3821029663086
20
65.1063995361328
40
0.0
41
0.0
42
0.0
10
67.4485015869141
20
65.0009994506836
40
0.0
41
0.0
42
0.0
10
67.459602355957
20
65.0009994506836
40
0.0
41
0.0
42
0.0
10
67.4595031738281
20
65.0139007568359
40
0.0
41
0.0
42
0.0
10
67.3656997680664
20
65.1633987426758
40
0.0
41
0.0
42
0.0
10
67.0745010375977
20
65.588996887207
40
0.0
41
0.0
42
0.0
10
67.0037994384766
20
65.6846008300781
40
0.0
41
0.0
42
0.0
10
66.7679977416992
20
65.9321975708008
40
0.0
41
0.0
42
0.0
10
66.7076034545898
20
66.0058975219727
40
0.0
41
0.0
42
0.0
10
66.6144027709961
20
66.1018981933594
40
0.0
41
0.0
42
0.0
10
66.5071029663086
20
66.1948013305664
40
0.0
41
0.0
42
0.0
10
66.16259765625
20
66.4266967773438
40
0.0
41
0.0
42
0.0
10
66.114501953125
20
66.4634017944336
40
0.0
41
0.0
42
0.0
10
66.0670013427734
20
66.503303527832
40
0.0
41
0.0
42
0.0
10
66.00830078125
20
66.5446014404297
40
0.0
41
0.0
42
0.0
10
65.9797973632812
20
66.5625
40
0.0
41
0.0
42
0.0
10
65.6643981933594
20
66.7363967895508
40
0.0
41
0.0
42
0.0
10
65.5095977783203
20
66.8295974731445
40
0.0
41
0.0
42
0.0
10
65.1822967529297
20
67.0005035400391
40
0.0
41
0.0
42
0.0
10
65.0147018432617
20
67.0905990600586
40
0.0
41
0.0
42
0.0
10
65.0009994506836
20
67.0905990600586
40
0.0
41
0.0
42
0.0
10
65.0009002685547
20
67.0635986328125
40
0.0
41
0.0
42
0.0
10
65.1239013671875
20
66.997802734375
40
0.0
41
0.0
42
0.0
210
0.0
220
0.0
230
1.0
0
LWPOLYLINE
5
23
330
1C
100
AcDbEntity
67
0
8
0
62
256
6
ByLayer
370
-1
48
1.0
60
0
100
AcDbPolyline
90
39
70
1
38
0.0
39
0.0
10
65.0009994506836
20
82.5519027709961
40
0.0
41
0.0
42
0.0
10
65.0009994506836
20
82.5402984619141
40
0.0
41
0.0
42
0.0
10
65.0134963989258
20
82.5401992797852
40
0.0
41
0.0
42
0.0
10
65.3535003662109
20
82.7727966308594
40
0.0
41
0.0
42
0.0
10
65.5083999633789
20
82.8701019287109
40
0.0
41
0.0
42
0.0
10
65.588996887207
20
82.9252014160156
40
0.0
41
0.0
42
0.0
10
65.6846008300781
20
82.9961013793945
40
0.0
41
0.0
42
0.0
10
65.9321975708008
20
83.2316970825195
40
0.0
41
0.0
42
0.0
10
66.0059967041016
20
83.2920989990234
40
0.0
41
0.0
42
0.0
10
66.1019973754883
20
83.3853988647461
40
0.0
41
0.0
42
0.0
10
66.1948013305664
20
83.4927978515625
40
0.0
41
0.0
42
0.0
10
66.4268035888672
20
83.8371963500977
40
0.0
41
0.0
42
0.0
10
66.4635009765625
20
83.8852005004883
40
0.0
41
0.0
42
0.0
10
66.503303527832
20
83.9327011108398
40
0.0
41
0.0
42
0.0
10
66.5447006225586
20
83.9916000366211
40
0.0
41
0.0
42
0.0
10
66.5625991821289
20
84.0199966430664
40
0.0
41
0.0
42
0.0
10
66.7365036010742
20
84.3354034423828
40
0.0
41
0.0
42
0.0
10
66.8296966552734
20
84.4903030395508
40
0.0
41
0.0
42
0.0
10
67.0005035400391
20
84.817497253418
40
0.0
41
0.0
42
0.0
10
67.0905990600586
20
84.9848022460938
40
0.0
41
0.0
42
0.0
10
67.0905990600586
20
84.9990005493164
40
0.0
41
0.0
42
0.0
10
67.0636978149414
20
84.9989013671875
40
0.0
41
0.0
42
0.0
10
66.997802734375
20
84.8758010864258
40
0.0
41
0.0
42
0.0
10
66.8067016601562
20
84.5096969604492
40
0.0
41
0.0
42
0.0
10
66.7372970581055
20
84.3945007324219
40
0.0
41
0.0
42
0.0
10
66.5429992675781
20
84.0420989990234
40
0.0
41
0.0
42
0.0
10
66.5217971801758
20
84.00830078125
40
0.0
41
0.0
42
0.0
10
66.4965972900391
20
83.9723968505859
40
0.0
41
0.0
42
0.0
10
66.4731979370117
20
83.9445037841797
40
0.0
41
0.0
42
0.0
10
66.4337005615234
20
83.8927001953125
40
0.0
41
0.0
42
0.0
10
66.1740036010742
20
83.5072021484375
40
0.0
41
0.0
42
0.0
10
66.0673980712891
20
83.383903503418
40
0.0
41
0.0
42
0.0
10
65.993896484375
20
83.3125
40
0.0
41
0.0
42
0.0
10
65.9391021728516
20
83.2676010131836
40
0.0
41
0.0
42
0.0
10
65.6620025634766
20
83.0038986206055
40
0.0
41
0.0
42
0.0
10
65.5523986816406
20
82.9227981567383
40
0.0
41
0.0
42
0.0
10
65.4915008544922
20
82.8809967041016
40
0.0
41
0.0
42
0.0
10
65.3765029907227
20
82.8088989257812
40
0.0
41
0.0
42
0.0
10
65.0009994506836
20
82.5519027709961
40
0.0
41
0.0
42
0.0
210
0.0
220
0.0
230
1.0
0
LWPOLYLINE
5
24
330
1C
100
AcDbEntity
67
0
8
0
62
256
6
ByLayer
370
-1
48
1.0
60
0
100
AcDbPolyline
90
86
70
1
38
0.0
39
0.0
10
65.429801940918
20
73.9917984008789
40
0.0
41
0.0
42
0.0
10
65.4962997436523
20
73.9142990112305
40
0.0
41
0.0
42
0.0
10
65.5969009399414
20
73.7808990478516
40
0.0
41
0.0
42
0.0
10
65.7851028442383
20
73.5963973999023
40
0.0
41
0.0
42
0.0
10
65.9148025512695
20
73.4969024658203
40
0.0
41
0.0
42
0.0
10
65.9924011230469
20
73.443603515625
40
0.0
41
0.0
42
0.0
10
66.1059036254883
20
73.3522033691406
40
0.0
41
0.0
42
0.0
10
66.4858016967773
20
73.1843032836914
40
0.0
41
0.0
42
0.0
10
66.871696472168
20
73.1265029907227
40
0.0
41
0.0
42
0.0
10
66.9852981567383
20
73.0650024414062
40
0.0
41
0.0
42
0.0
10
67.0186004638672
20
73.0649032592773
40
0.0
41
0.0
42
0.0
10
67.3731002807617
20
73.1097030639648
40
0.0
41
0.0
42
0.0
10
67.4832000732422
20
73.0739974975586
40
0.0
41
0.0
42
0.0
10
67.5166015625
20
73.0740966796875
40
0.0
41
0.0
42
0.0
10
67.8525009155273
20
73.1845016479492
40
0.0
41
0.0
42
0.0
10
67.9811019897461
20
73.1701965332031
40
0.0
41
0.0
42
0.0
10
68.0192031860352
20
73.1700973510742
40
0.0
41
0.0
42
0.0
10
68.1699981689453
20
73.1808013916016
40
0.0
41
0.0
42
0.0
10
68.5137023925781
20
73.3256988525391
40
0.0
41
0.0
42
0.0
10
68.6685028076172
20
73.3582000732422
40
0.0
41
0.0
42
0.0
10
68.9873962402344
20
73.497200012207
40
0.0
41
0.0
42
0.0
10
69.0129013061523
20
73.5071029663086
40
0.0
41
0.0
42
0.0
10
69.2442016601562
20
73.5820007324219
40
0.0
41
0.0
42
0.0
10
69.5139007568359
20
73.6561965942383
40
0.0
41
0.0
42
0.0
10
69.6697006225586
20
73.7080001831055
40
0.0
41
0.0
42
0.0
10
70.0165023803711
20
73.7717971801758
40
0.0
41
0.0
42
0.0
10
70.3598022460938
20
73.8238983154297
40
0.0
41
0.0
42
0.0
10
70.5121002197266
20
73.8780975341797
40
0.0
41
0.0
42
0.0
10
70.6682968139648
20
73.9480972290039
40
0.0
41
0.0
42
0.0
10
70.8335037231445
20
73.9849014282227
40
0.0
41
0.0
42
0.0
10
71.013298034668
20
74.0186004638672
40
0.0
41
0.0
42
0.0
10
71.0454025268555
20
74.0343017578125
40
0.0
41
0.0
42
0.0
10
71.1685028076172
20
74.0860977172852
40
0.0
41
0.0
42
0.0
10
71.5147018432617
20
74.1662979125977
40
0.0
41
0.0
42
0.0
10
71.8977966308594
20
74.276496887207
40
0.0
41
0.0
42
0.0
10
72.0106964111328
20
74.3268966674805
40
0.0
41
0.0
42
0.0
10
72.0594024658203
20
74.3531036376953
40
0.0
41
0.0
42
0.0
10
72.4430999755859
20
74.4987030029297
40
0.0
41
0.0
42
0.0
10
72.5078964233398
20
74.5454025268555
40
0.0
41
0.0
42
0.0
10
72.8943023681641
20
74.8050003051758
40
0.0
41
0.0
42
0.0
10
73.0115966796875
20
74.8656005859375
40
0.0
41
0.0
42
0.0
10
73.3805999755859
20
74.9947967529297
40
0.0
41
0.0
42
0.0
10
73.380500793457
20
75.0030975341797
40
0.0
41
0.0
42
0.0
10
73.0139999389648
20
75.0855026245117
40
0.0
41
0.0
42
0.0
10
72.8983001708984
20
75.127799987793
40
0.0
41
0.0
42
0.0
10
72.5121002197266
20
75.2417984008789
40
0.0
41
0.0
42
0.0
10
72.3960037231445
20
75.3012008666992
40
0.0
41
0.0
42
0.0
10
72.3574981689453
20
75.3177032470703
40
0.0
41
0.0
42
0.0
10
72.013801574707
20
75.4311981201172
40
0.0
41
0.0
42
0.0
10
71.8053970336914
20
75.4891967773438
40
0.0
41
0.0
42
0.0
10
71.6502990722656
20
75.5622024536133
40
0.0
41
0.0
42
0.0
10
71.5131988525391
20
75.6029968261719
40
0.0
41
0.0
42
0.0
10
71.3594970703125
20
75.6613998413086
40
0.0
41
0.0
42
0.0
10
71.0174026489258
20
75.7154998779297
40
0.0
41
0.0
42
0.0
10
70.6705017089844
20
75.7445983886719
40
0.0
41
0.0
42
0.0
10
70.5142974853516
20
75.7988967895508
40
0.0
41
0.0
42
0.0
10
70.2388000488281
20
75.8572006225586
40
0.0
41
0.0
42
0.0
10
70.0173034667969
20
75.8712005615234
40
0.0
41
0.0
42
0.0
10
69.6054000854492
20
75.947998046875
40
0.0
41
0.0
42
0.0
10
69.5167007446289
20
75.9567031860352
40
0.0
41
0.0
42
0.0
10
69.3162994384766
20
75.999397277832
40
0.0
41
0.0
42
0.0
10
69.0145034790039
20
76.0727996826172
40
0.0
41
0.0
42
0.0
10
68.6837997436523
20
76.168701171875
40
0.0
41
0.0
42
0.0
10
68.5156021118164
20
76.2065963745117
40
0.0
41
0.0
42
0.0
10
68.2577972412109
20
76.2562026977539
40
0.0
41
0.0
42
0.0
10
68.0157012939453
20
76.3376007080078
40
0.0
41
0.0
42
0.0
10
67.7226028442383
20
76.3598022460938
40
0.0
41
0.0
42
0.0
10
67.5170974731445
20
76.4171981811523
40
0.0
41
0.0
42
0.0
10
67.4835968017578
20
76.4170989990234
40
0.0
41
0.0
42
0.0
10
67.3366012573242
20
76.3649978637695
40
0.0
41
0.0
42
0.0
10
67.0188980102539
20
76.3982009887695
40
0.0
41
0.0
42
0.0
10
66.9856033325195
20
76.3981018066406
40
0.0
41
0.0
42
0.0
10
66.8447036743164
20
76.3161010742188
40
0.0
41
0.0
42
0.0
10
66.4860000610352
20
76.2595977783203
40
0.0
41
0.0
42
0.0
10
66.1060028076172
20
76.0885009765625
40
0.0
41
0.0
42
0.0
10
66.0478973388672
20
76.0423965454102
40
0.0
41
0.0
42
0.0
10
66.0037002563477
20
76.004997253418
40
0.0
41
0.0
42
0.0
10
65.9886016845703
20
75.9871978759766
40
0.0
41
0.0
42
0.0
10
65.8956985473633
20
75.8900985717773
40
0.0
41
0.0
42
0.0
10
65.4931030273438
20
75.5072021484375
40
0.0
41
0.0
42
0.0
10
65.2417984008789
20
75.0140991210938
40
0.0
41
0.0
42
0.0
10
65.2128982543945
20
74.6797027587891
40
0.0
41
0.0
42
0.0
10
65.2127990722656
20
74.640998840332
40
0.0
41
0.0
42
0.0
10
65.2186965942383
20
74.4841003417969
40
0.0
41
0.0
42
0.0
10
65.3416976928711
20
74.1564025878906
40
0.0
41
0.0
42
0.0
10
65.429801940918
20
73.9917984008789
40
0.0
41
0.0
42
0.0
210
0.0
220
0.0
230
1.0
0
LWPOLYLINE
5
25
330
1C
100
AcDbEntity
67
0
8
0
62
256
6
ByLayer
370
-1
48
1.0
60
0
100
AcDbPolyline
90
87
70
1
38
0.0
39
0.0
10
65.2833023071289
20
74.9859008789062
40
0.0
41
0.0
42
0.0
10
65.5009002685547
20
75.4133987426758
40
0.0
41
0.0
42
0.0
10
65.5130004882812
20
75.4412002563477
40
0.0
41
0.0
42
0.0
10
65.5315017700195
20
75.4917984008789
40
0.0
41
0.0
42
0.0
10
65.8970031738281
20
75.8397979736328
40
0.0
41
0.0
42
0.0
10
65.9785003662109
20
75.9251022338867
40
0.0
41
0.0
42
0.0
10
66.0038986206055
20
75.9570999145508
40
0.0
41
0.0
42
0.0
10
66.0379028320312
20
75.995002746582
40
0.0
41
0.0
42
0.0
10
66.0802001953125
20
76.0308990478516
40
0.0
41
0.0
42
0.0
10
66.1640014648438
20
76.0971984863281
40
0.0
41
0.0
42
0.0
10
66.5139007568359
20
76.2547988891602
40
0.0
41
0.0
42
0.0
10
66.8603973388672
20
76.3093032836914
40
0.0
41
0.0
42
0.0
10
66.896598815918
20
76.3199005126953
40
0.0
41
0.0
42
0.0
10
67.0092010498047
20
76.385498046875
40
0.0
41
0.0
42
0.0
10
67.366096496582
20
76.3481979370117
40
0.0
41
0.0
42
0.0
10
67.4013977050781
20
76.3481979370117
40
0.0
41
0.0
42
0.0
10
67.5016021728516
20
76.3837966918945
40
0.0
41
0.0
42
0.0
10
67.7657012939453
20
76.3102035522461
40
0.0
41
0.0
42
0.0
10
67.9841995239258
20
76.2936019897461
40
0.0
41
0.0
42
0.0
10
68.2790985107422
20
76.1933975219727
40
0.0
41
0.0
42
0.0
10
68.2963027954102
20
76.1886978149414
40
0.0
41
0.0
42
0.0
10
68.4841995239258
20
76.1524963378906
40
0.0
41
0.0
42
0.0
10
68.6091995239258
20
76.1241989135742
40
0.0
41
0.0
42
0.0
10
68.9852981567383
20
76.0152969360352
40
0.0
41
0.0
42
0.0
10
69.0466995239258
20
76.0003967285156
40
0.0
41
0.0
42
0.0
10
69.4832000732422
20
75.9074020385742
40
0.0
41
0.0
42
0.0
10
69.6774978637695
20
75.8884963989258
40
0.0
41
0.0
42
0.0
10
69.9824981689453
20
75.8315963745117
40
0.0
41
0.0
42
0.0
10
70.2762985229492
20
75.813102722168
40
0.0
41
0.0
42
0.0
10
70.4856033325195
20
75.768798828125
40
0.0
41
0.0
42
0.0
10
70.5992965698242
20
75.7292022705078
40
0.0
41
0.0
42
0.0
10
70.9824981689453
20
75.6970977783203
40
0.0
41
0.0
42
0.0
10
71.3703994750977
20
75.6358032226562
40
0.0
41
0.0
42
0.0
10
71.486701965332
20
75.5915985107422
40
0.0
41
0.0
42
0.0
10
71.6412963867188
20
75.5456008911133
40
0.0
41
0.0
42
0.0
10
71.756103515625
20
75.4916000366211
40
0.0
41
0.0
42
0.0
10
71.9860000610352
20
75.4275970458984
40
0.0
41
0.0
42
0.0
10
72.3544998168945
20
75.3058013916016
40
0.0
41
0.0
42
0.0
10
72.4878005981445
20
75.2377014160156
40
0.0
41
0.0
42
0.0
10
72.8314971923828
20
75.1362991333008
40
0.0
41
0.0
42
0.0
10
72.9858016967773
20
75.0795974731445
40
0.0
41
0.0
42
0.0
10
73.3060989379883
20
75.0085983276367
40
0.0
41
0.0
42
0.0
10
73.3072967529297
20
74.9889984130859
40
0.0
41
0.0
42
0.0
10
72.9882965087891
20
74.8774032592773
40
0.0
41
0.0
42
0.0
10
72.8357009887695
20
74.7985992431641
40
0.0
41
0.0
42
0.0
10
72.4919967651367
20
74.5675964355469
40
0.0
41
0.0
42
0.0
10
72.39990234375
20
74.5012969970703
40
0.0
41
0.0
42
0.0
10
72.0537033081055
20
74.370002746582
40
0.0
41
0.0
42
0.0
10
71.9891967773438
20
74.3352966308594
40
0.0
41
0.0
42
0.0
10
71.8337020874023
20
74.2658996582031
40
0.0
41
0.0
42
0.0
10
71.4851989746094
20
74.165901184082
40
0.0
41
0.0
42
0.0
10
71.1015014648438
20
74.0770034790039
40
0.0
41
0.0
42
0.0
10
71.0139999389648
20
74.0401000976562
40
0.0
41
0.0
42
0.0
10
70.9866027832031
20
74.0267028808594
40
0.0
41
0.0
42
0.0
10
70.8342971801758
20
73.9991989135742
40
0.0
41
0.0
42
0.0
10
70.720100402832
20
73.9766998291016
40
0.0
41
0.0
42
0.0
10
70.6016006469727
20
73.9505004882812
40
0.0
41
0.0
42
0.0
10
70.4878005981445
20
73.8993988037109
40
0.0
41
0.0
42
0.0
10
70.3701019287109
20
73.8574981689453
40
0.0
41
0.0
42
0.0
10
69.9833984375
20
73.7988967895508
40
0.0
41
0.0
42
0.0
10
69.6001968383789
20
73.7283020019531
40
0.0
41
0.0
42
0.0
10
69.4860992431641
20
73.6903991699219
40
0.0
41
0.0
42
0.0
10
69.1567993164062
20
73.5998992919922
40
0.0
41
0.0
42
0.0
10
68.9869003295898
20
73.5448989868164
40
0.0
41
0.0
42
0.0
10
68.8697967529297
20
73.5005035400391
40
0.0
41
0.0
42
0.0
10
68.6014022827148
20
73.3835983276367
40
0.0
41
0.0
42
0.0
10
68.4862976074219
20
73.3593978881836
40
0.0
41
0.0
42
0.0
10
68.0998992919922
20
73.1965026855469
40
0.0
41
0.0
42
0.0
10
68.0037994384766
20
73.189697265625
40
0.0
41
0.0
42
0.0
10
67.9038009643555
20
73.2011032104492
40
0.0
41
0.0
42
0.0
10
67.8683013916016
20
73.2009963989258
40
0.0
41
0.0
42
0.0
10
67.4999008178711
20
73.0798034667969
40
0.0
41
0.0
42
0.0
10
67.3990020751953
20
73.1125030517578
40
0.0
41
0.0
42
0.0
10
67.3621978759766
20
73.1223983764648
40
0.0
41
0.0
42
0.0
10
67.326301574707
20
73.1222991943359
40
0.0
41
0.0
42
0.0
10
67.00830078125
20
73.0820007324219
40
0.0
41
0.0
42
0.0
10
66.8582000732422
20
73.1635971069336
40
0.0
41
0.0
42
0.0
10
66.5139999389648
20
73.2149963378906
40
0.0
41
0.0
42
0.0
10
66.1639022827148
20
73.3696975708008
40
0.0
41
0.0
42
0.0
10
66.0070037841797
20
73.4962997436523
40
0.0
41
0.0
42
0.0
10
65.8191986083984
20
73.6396026611328
40
0.0
41
0.0
42
0.0
10
65.6405029296875
20
73.8152008056641
40
0.0
41
0.0
42
0.0
10
65.4934997558594
20
74.0084991455078
40
0.0
41
0.0
42
0.0
10
65.3710021972656
20
74.2373962402344
40
0.0
41
0.0
42
0.0
10
65.2666015625
20
74.5158004760742
40
0.0
41
0.0
42
0.0
10
65.2592010498047
20
74.7091979980469
40
0.0
41
0.0
42
0.0
10
65.2833023071289
20
74.9859008789062
40
0.0
41
0.0
42
0.0
210
0.0
220
0.0
230
1.0
0
LWPOLYLINE
5
26
330
1C
100
AcDbEntity
67
0
8
0
62
256
6
ByLayer
370
-1
48
1.0
60
0
100
AcDbPolyline
90
91
70
1
38
0.0
39
0.0
10
67.8184967041016
20
79.4907989501953
40
0.0
41
0.0
42
0.0
10
67.994499206543
20
79.2861022949219
40
0.0
41
0.0
42
0.0
10
68.1869964599609
20
79.1353988647461
40
0.0
41
0.0
42
0.0
10
68.2133026123047
20
79.1067962646484
40
0.0
41
0.0
42
0.0
10
68.2692031860352
20
78.9905014038086
40
0.0
41
0.0
42
0.0
10
68.3343963623047
20
78.8964004516602
40
0.0
41
0.0
42
0.0
10
68.4896011352539
20
78.8032989501953
40
0.0
41
0.0
42
0.0
10
68.8358993530273
20
78.6507034301758
40
0.0
41
0.0
42
0.0
10
68.9907989501953
20
78.5255966186523
40
0.0
41
0.0
42
0.0
10
69.0868988037109
20
78.4848022460938
40
0.0
41
0.0
42
0.0
10
69.4894027709961
20
78.2739028930664
40
0.0
41
0.0
42
0.0
10
69.9900970458984
20
78.0310974121094
40
0.0
41
0.0
42
0.0
10
70.0771026611328
20
77.9763031005859
40
0.0
41
0.0
42
0.0
10
70.4913024902344
20
77.7449035644531
40
0.0
41
0.0
42
0.0
10
70.8342971801758
20
77.4962005615234
40
0.0
41
0.0
42
0.0
10
70.8470001220703
20
77.4843978881836
40
0.0
41
0.0
42
0.0
10
70.9900970458984
20
77.4228973388672
40
0.0
41
0.0
42
0.0
10
71.334602355957
20
77.1866989135742
40
0.0
41
0.0
42
0.0
10
71.4898986816406
20
77.129997253418
40
0.0
41
0.0
42
0.0
10
71.6477966308594
20
77.0155029296875
40
0.0
41
0.0
42
0.0
10
71.6844024658203
20
76.9992980957031
40
0.0
41
0.0
42
0.0
10
71.7956008911133
20
76.9571990966797
40
0.0
41
0.0
42
0.0
10
71.9891967773438
20
76.8477020263672
40
0.0
41
0.0
42
0.0
10
72.3725967407227
20
76.6662979125977
40
0.0
41
0.0
42
0.0
10
72.4884033203125
20
76.6297988891602
40
0.0
41
0.0
42
0.0
10
72.6361999511719
20
76.5448989868164
40
0.0
41
0.0
42
0.0
10
72.7408981323242
20
76.4992980957031
40
0.0
41
0.0
42
0.0
10
72.9860000610352
20
76.4039001464844
40
0.0
41
0.0
42
0.0
10
73.3685989379883
20
76.3184967041016
40
0.0
41
0.0
42
0.0
10
73.4813003540039
20
76.303596496582
40
0.0
41
0.0
42
0.0
10
73.5096969604492
20
76.303596496582
40
0.0
41
0.0
42
0.0
10
73.5167007446289
20
76.3125991821289
40
0.0
41
0.0
42
0.0
10
73.6175994873047
20
76.4856033325195
40
0.0
41
0.0
42
0.0
10
73.6175003051758
20
76.5168991088867
40
0.0
41
0.0
42
0.0
10
73.6044006347656
20
76.5606002807617
40
0.0
41
0.0
42
0.0
10
73.5010986328125
20
76.8126983642578
40
0.0
41
0.0
42
0.0
10
73.4206008911133
20
76.9428024291992
40
0.0
41
0.0
42
0.0
10
73.3892974853516
20
77.0131988525391
40
0.0
41
0.0
42
0.0
10
73.347297668457
20
77.127197265625
40
0.0
41
0.0
42
0.0
10
73.3310012817383
20
77.1660003662109
40
0.0
41
0.0
42
0.0
10
73.1535034179688
20
77.5112991333008
40
0.0
41
0.0
42
0.0
10
73.0960998535156
20
77.6569976806641
40
0.0
41
0.0
42
0.0
10
73.0022964477539
20
77.8216018676758
40
0.0
41
0.0
42
0.0
10
72.8676986694336
20
78.000602722168
40
0.0
41
0.0
42
0.0
10
72.7994995117188
20
78.1645965576172
40
0.0
41
0.0
42
0.0
10
72.5491027832031
20
78.5090026855469
40
0.0
41
0.0
42
0.0
10
72.5016021728516
20
78.6053009033203
40
0.0
41
0.0
42
0.0
10
72.4533996582031
20
78.6794967651367
40
0.0
41
0.0
42
0.0
10
72.1771011352539
20
79.0085983276367
40
0.0
41
0.0
42
0.0
10
72.1035995483398
20
79.1679992675781
40
0.0
41
0.0
42
0.0
10
72.0035018920898
20
79.2946014404297
40
0.0
41
0.0
42
0.0
10
71.8299026489258
20
79.507698059082
40
0.0
41
0.0
42
0.0
10
71.5150985717773
20
80.0090026855469
40
0.0
41
0.0
42
0.0
10
71.3767013549805
20
80.2446975708008
40
0.0
41
0.0
42
0.0
10
71.2380981445312
20
80.5096969604492
40
0.0
41
0.0
42
0.0
10
71.1576995849609
20
80.6454010009766
40
0.0
41
0.0
42
0.0
10
71.1399993896484
20
80.6667022705078
40
0.0
41
0.0
42
0.0
10
71.0017013549805
20
80.8787002563477
40
0.0
41
0.0
42
0.0
10
70.9340972900391
20
81.0077972412109
40
0.0
41
0.0
42
0.0
10
70.8246994018555
20
81.1297988891602
40
0.0
41
0.0
42
0.0
10
70.6595993041992
20
81.3907012939453
40
0.0
41
0.0
42
0.0
10
70.6123962402344
20
81.421501159668
40
0.0
41
0.0
42
0.0
10
70.5250015258789
20
81.5025024414062
40
0.0
41
0.0
42
0.0
10
70.5093994140625
20
81.5103988647461
40
0.0
41
0.0
42
0.0
10
70.4383010864258
20
81.5568008422852
40
0.0
41
0.0
42
0.0
10
70.1643981933594
20
81.7918014526367
40
0.0
41
0.0
42
0.0
10
70.0151977539062
20
81.8408966064453
40
0.0
41
0.0
42
0.0
10
69.8985977172852
20
81.8571014404297
40
0.0
41
0.0
42
0.0
10
69.6551971435547
20
81.9787979125977
40
0.0
41
0.0
42
0.0
10
69.5951995849609
20
82.0001983642578
40
0.0
41
0.0
42
0.0
10
69.5142974853516
20
82.0317993164062
40
0.0
41
0.0
42
0.0
10
69.2956008911133
20
82.0697021484375
40
0.0
41
0.0
42
0.0
10
69.0190963745117
20
82.0932998657227
40
0.0
41
0.0
42
0.0
10
68.9804000854492
20
82.0932006835938
40
0.0
41
0.0
42
0.0
10
68.6864013671875
20
82.0807037353516
40
0.0
41
0.0
42
0.0
10
68.4849014282227
20
82.0447998046875
40
0.0
41
0.0
42
0.0
10
68.3401031494141
20
82.0001983642578
40
0.0
41
0.0
42
0.0
10
68.0899963378906
20
81.8872985839844
40
0.0
41
0.0
42
0.0
10
68.0255966186523
20
81.8261032104492
40
0.0
41
0.0
42
0.0
10
67.9922027587891
20
81.8108978271484
40
0.0
41
0.0
42
0.0
10
67.6919021606445
20
81.5070037841797
40
0.0
41
0.0
42
0.0
10
67.6259994506836
20
81.396598815918
40
0.0
41
0.0
42
0.0
10
67.5173034667969
20
81.0154037475586
40
0.0
41
0.0
42
0.0
10
67.5147018432617
20
80.999397277832
40
0.0
41
0.0
42
0.0
10
67.503303527832
20
80.5196990966797
40
0.0
41
0.0
42
0.0
10
67.5035018920898
20
80.4785003662109
40
0.0
41
0.0
42
0.0
10
67.586799621582
20
79.9852981567383
40
0.0
41
0.0
42
0.0
10
67.5944976806641
20
79.9638977050781
40
0.0
41
0.0
42
0.0
10
67.6146011352539
20
79.883903503418
40
0.0
41
0.0
42
0.0
10
67.8068008422852
20
79.522102355957
40
0.0
41
0.0
42
0.0
10
67.8184967041016
20
79.4907989501953
40
0.0
41
0.0
42
0.0
210
0.0
220
0.0
230
1.0
0
LWPOLYLINE
5
27
330
1C
100
AcDbEntity
67
0
8
0
62
256
6
ByLayer
370
-1
48
1.0
60
0
100
AcDbPolyline
90
90
70
1
38
0.0
39
0.0
10
67.5438995361328
20
80.4626998901367
40
0.0
41
0.0
42
0.0
10
67.5407028198242
20
80.5093994140625
40
0.0
41
0.0
42
0.0
10
67.5503997802734
20
80.9131011962891
40
0.0
41
0.0
42
0.0
10
67.5615005493164
20
80.9843978881836
40
0.0
41
0.0
42
0.0
10
67.6611022949219
20
81.3333969116211
40
0.0
41
0.0
42
0.0
10
67.7559967041016
20
81.4928970336914
40
0.0
41
0.0
42
0.0
10
68.0077972412109
20
81.7474975585938
40
0.0
41
0.0
42
0.0
10
68.0353012084961
20
81.7602005004883
40
0.0
41
0.0
42
0.0
10
68.1222991943359
20
81.8425979614258
40
0.0
41
0.0
42
0.0
10
68.4698028564453
20
81.9996032714844
40
0.0
41
0.0
42
0.0
10
68.5149993896484
20
82.0133972167969
40
0.0
41
0.0
42
0.0
10
68.7929000854492
20
82.0628967285156
40
0.0
41
0.0
42
0.0
10
68.9937973022461
20
82.0716018676758
40
0.0
41
0.0
42
0.0
10
69.3576965332031
20
82.0404968261719
40
0.0
41
0.0
42
0.0
10
69.4853973388672
20
82.0183029174805
40
0.0
41
0.0
42
0.0
10
69.6168975830078
20
81.9697036743164
40
0.0
41
0.0
42
0.0
10
69.8311996459961
20
81.8627014160156
40
0.0
41
0.0
42
0.0
10
69.9847030639648
20
81.8413009643555
40
0.0
41
0.0
42
0.0
10
70.1065979003906
20
81.8018035888672
40
0.0
41
0.0
42
0.0
10
70.4154968261719
20
81.5365982055664
40
0.0
41
0.0
42
0.0
10
70.4782028198242
20
81.4957962036133
40
0.0
41
0.0
42
0.0
10
70.4951019287109
20
81.4756011962891
40
0.0
41
0.0
42
0.0
10
70.5711975097656
20
81.4051971435547
40
0.0
41
0.0
42
0.0
10
70.6101989746094
20
81.3796997070312
40
0.0
41
0.0
42
0.0
10
70.7975997924805
20
81.0836029052734
40
0.0
41
0.0
42
0.0
10
70.8797988891602
20
80.9919967651367
40
0.0
41
0.0
42
0.0
10
70.9980010986328
20
80.7661972045898
40
0.0
41
0.0
42
0.0
10
71.0983963012695
20
80.6121978759766
40
0.0
41
0.0
42
0.0
10
71.1120986938477
20
80.5958023071289
40
0.0
41
0.0
42
0.0
10
71.1744995117188
20
80.4900970458984
40
0.0
41
0.0
42
0.0
10
71.3449020385742
20
80.1644973754883
40
0.0
41
0.0
42
0.0
10
71.4468002319336
20
79.9909973144531
40
0.0
41
0.0
42
0.0
10
71.5185012817383
20
79.8832015991211
40
0.0
41
0.0
42
0.0
10
71.7648010253906
20
79.4922027587891
40
0.0
41
0.0
42
0.0
10
71.9962997436523
20
79.2081985473633
40
0.0
41
0.0
42
0.0
10
72.0734024047852
20
79.1107025146484
40
0.0
41
0.0
42
0.0
10
72.1288986206055
20
78.9913024902344
40
0.0
41
0.0
42
0.0
10
72.4404983520508
20
78.6201019287109
40
0.0
41
0.0
42
0.0
10
72.4981994628906
20
78.5313034057617
40
0.0
41
0.0
42
0.0
10
72.5180969238281
20
78.4907989501953
40
0.0
41
0.0
42
0.0
10
72.7984008789062
20
78.1052017211914
40
0.0
41
0.0
42
0.0
10
72.8488998413086
20
77.9838027954102
40
0.0
41
0.0
42
0.0
10
72.9974975585938
20
77.7863998413086
40
0.0
41
0.0
42
0.0
10
73.1051025390625
20
77.5973968505859
40
0.0
41
0.0
42
0.0
10
73.1479034423828
20
77.4886016845703
40
0.0
41
0.0
42
0.0
10
73.3391036987305
20
77.1171035766602
40
0.0
41
0.0
42
0.0
10
73.3868026733398
20
76.9878005981445
40
0.0
41
0.0
42
0.0
10
73.4261016845703
20
76.8989028930664
40
0.0
41
0.0
42
0.0
10
73.4987030029297
20
76.7819976806641
40
0.0
41
0.0
42
0.0
10
73.5932998657227
20
76.5512008666992
40
0.0
41
0.0
42
0.0
10
73.6074981689453
20
76.5037002563477
40
0.0
41
0.0
42
0.0
10
73.5165023803711
20
76.3477020263672
40
0.0
41
0.0
42
0.0
10
73.4929962158203
20
76.3171005249023
40
0.0
41
0.0
42
0.0
10
73.3612976074219
20
76.3347015380859
40
0.0
41
0.0
42
0.0
10
73.013801574707
20
76.4123992919922
40
0.0
41
0.0
42
0.0
10
72.7865982055664
20
76.5005035400391
40
0.0
41
0.0
42
0.0
10
72.6419982910156
20
76.5634002685547
40
0.0
41
0.0
42
0.0
10
72.5113983154297
20
76.638298034668
40
0.0
41
0.0
42
0.0
10
72.3572998046875
20
76.6871032714844
40
0.0
41
0.0
42
0.0
10
72.0102996826172
20
76.8511962890625
40
0.0
41
0.0
42
0.0
10
71.8014984130859
20
76.9682998657227
40
0.0
41
0.0
42
0.0
10
71.7165985107422
20
77.0005035400391
40
0.0
41
0.0
42
0.0
10
71.6848983764648
20
77.0143966674805
40
0.0
41
0.0
42
0.0
10
71.5099029541016
20
77.1411972045898
40
0.0
41
0.0
42
0.0
10
71.3952026367188
20
77.1831970214844
40
0.0
41
0.0
42
0.0
10
71.0096969604492
20
77.4474029541016
40
0.0
41
0.0
42
0.0
10
70.9049987792969
20
77.4925003051758
40
0.0
41
0.0
42
0.0
10
70.8928985595703
20
77.5036010742188
40
0.0
41
0.0
42
0.0
10
70.5085983276367
20
77.7822036743164
40
0.0
41
0.0
42
0.0
10
70.2024993896484
20
77.9532012939453
40
0.0
41
0.0
42
0.0
10
70.1211013793945
20
78.0020980834961
40
0.0
41
0.0
42
0.0
10
70.0095977783203
20
78.0748977661133
40
0.0
41
0.0
42
0.0
10
69.8175964355469
20
78.1664962768555
40
0.0
41
0.0
42
0.0
10
69.5103988647461
20
78.3159027099609
40
0.0
41
0.0
42
0.0
10
69.2128982543945
20
78.4719009399414
40
0.0
41
0.0
42
0.0
10
69.1411972045898
20
78.5005035400391
40
0.0
41
0.0
42
0.0
10
69.008903503418
20
78.5584030151367
40
0.0
41
0.0
42
0.0
10
68.8938980102539
20
78.6512985229492
40
0.0
41
0.0
42
0.0
10
68.5102005004883
20
78.8202972412109
40
0.0
41
0.0
42
0.0
10
68.3282012939453
20
78.9296035766602
40
0.0
41
0.0
42
0.0
10
68.2736968994141
20
79.0093994140625
40
0.0
41
0.0
42
0.0
10
68.1999969482422
20
79.1630020141602
40
0.0
41
0.0
42
0.0
10
68.1722030639648
20
79.1932983398438
40
0.0
41
0.0
42
0.0
10
68.0053024291992
20
79.3237991333008
40
0.0
41
0.0
42
0.0
10
67.8461990356445
20
79.5091018676758
40
0.0
41
0.0
42
0.0
10
67.8283996582031
20
79.5565032958984
40
0.0
41
0.0
42
0.0
10
67.6551971435547
20
79.882698059082
40
0.0
41
0.0
42
0.0
10
67.6270980834961
20
79.993896484375
40
0.0
41
0.0
42
0.0
10
67.6195983886719
20
80.0146026611328
40
0.0
41
0.0
42
0.0
10
67.5438995361328
20
80.4626998901367
40
0.0
41
0.0
42
0.0
210
0.0
220
0.0
230
1.0
0
LWPOLYLINE
5
28
330
1C
100
AcDbEntity
67
0
8
0
62
256
6
ByLayer
370
-1
48
1.0
60
0
100
AcDbPolyline
90
95
70
1
38
0.0
39
0.0
10
67.9549026489258
20
68.4849014282227
40
0.0
41
0.0
42
0.0
10
67.9998016357422
20
68.3392028808594
40
0.0
41
0.0
42
0.0
10
68.0688018798828
20
68.1453018188477
40
0.0
41
0.0
42
0.0
10
68.1129989624023
20
68.0891036987305
40
0.0
41
0.0
42
0.0
10
68.1305999755859
20
68.0502014160156
40
0.0
41
0.0
42
0.0
10
68.4931030273438
20
67.6915969848633
40
0.0
41
0.0
42
0.0
10
68.5790023803711
20
67.6362991333008
40
0.0
41
0.0
42
0.0
10
68.6580963134766
20
67.6037979125977
40
0.0
41
0.0
42
0.0
10
68.9842987060547
20
67.5173034667969
40
0.0
41
0.0
42
0.0
10
69.0003967285156
20
67.5147018432617
40
0.0
41
0.0
42
0.0
10
69.4802017211914
20
67.503303527832
40
0.0
41
0.0
42
0.0
10
69.5213012695312
20
67.5035018920898
40
0.0
41
0.0
42
0.0
10
70.0146026611328
20
67.586799621582
40
0.0
41
0.0
42
0.0
10
70.0358963012695
20
67.5944976806641
40
0.0
41
0.0
42
0.0
10
70.1158981323242
20
67.6147003173828
40
0.0
41
0.0
42
0.0
10
70.4776992797852
20
67.8068008422852
40
0.0
41
0.0
42
0.0
10
70.5091018676758
20
67.8184967041016
40
0.0
41
0.0
42
0.0
10
70.7136993408203
20
67.994499206543
40
0.0
41
0.0
42
0.0
10
70.8643035888672
20
68.1871032714844
40
0.0
41
0.0
42
0.0
10
70.8930969238281
20
68.2134017944336
40
0.0
41
0.0
42
0.0
10
71.0093994140625
20
68.2692031860352
40
0.0
41
0.0
42
0.0
10
71.1033020019531
20
68.3345031738281
40
0.0
41
0.0
42
0.0
10
71.196403503418
20
68.4896011352539
40
0.0
41
0.0
42
0.0
10
71.3490982055664
20
68.8359985351562
40
0.0
41
0.0
42
0.0
10
71.4740982055664
20
68.9908981323242
40
0.0
41
0.0
42
0.0
10
71.5149002075195
20
69.0868988037109
40
0.0
41
0.0
42
0.0
10
71.6424026489258
20
69.3347015380859
40
0.0
41
0.0
42
0.0
10
71.7258987426758
20
69.489501953125
40
0.0
41
0.0
42
0.0
10
71.9686965942383
20
69.9903030395508
40
0.0
41
0.0
42
0.0
10
72.0020980834961
20
70.0412979125977
40
0.0
41
0.0
42
0.0
10
72.0238037109375
20
70.0774993896484
40
0.0
41
0.0
42
0.0
10
72.1914978027344
20
70.3347015380859
40
0.0
41
0.0
42
0.0
10
72.2540969848633
20
70.4901962280273
40
0.0
41
0.0
42
0.0
10
72.5037002563477
20
70.8342971801758
40
0.0
41
0.0
42
0.0
10
72.5152969360352
20
70.8470001220703
40
0.0
41
0.0
42
0.0
10
72.5768966674805
20
70.9900970458984
40
0.0
41
0.0
42
0.0
10
72.8130035400391
20
71.3347015380859
40
0.0
41
0.0
42
0.0
10
72.8696975708008
20
71.4898986816406
40
0.0
41
0.0
42
0.0
10
72.9842987060547
20
71.6477966308594
40
0.0
41
0.0
42
0.0
10
73.0005035400391
20
71.6844024658203
40
0.0
41
0.0
42
0.0
10
73.0425033569336
20
71.7957000732422
40
0.0
41
0.0
42
0.0
10
73.1513977050781
20
71.9884033203125
40
0.0
41
0.0
42
0.0
10
73.1875991821289
20
72.1026000976562
40
0.0
41
0.0
42
0.0
10
73.3706970214844
20
72.4897003173828
40
0.0
41
0.0
42
0.0
10
73.4549026489258
20
72.6361999511719
40
0.0
41
0.0
42
0.0
10
73.5005035400391
20
72.7409973144531
40
0.0
41
0.0
42
0.0
10
73.5953979492188
20
72.9851989746094
40
0.0
41
0.0
42
0.0
10
73.6106033325195
20
73.0986022949219
40
0.0
41
0.0
42
0.0
10
73.6962966918945
20
73.4822998046875
40
0.0
41
0.0
42
0.0
10
73.6961975097656
20
73.5096969604492
40
0.0
41
0.0
42
0.0
10
73.6872024536133
20
73.5167007446289
40
0.0
41
0.0
42
0.0
10
73.5142974853516
20
73.6175994873047
40
0.0
41
0.0
42
0.0
10
73.4830017089844
20
73.6175003051758
40
0.0
41
0.0
42
0.0
10
73.4393005371094
20
73.6044998168945
40
0.0
41
0.0
42
0.0
10
73.1869964599609
20
73.5011978149414
40
0.0
41
0.0
42
0.0
10
73.056999206543
20
73.4206008911133
40
0.0
41
0.0
42
0.0
10
72.9878997802734
20
73.3898010253906
40
0.0
41
0.0
42
0.0
10
72.8727035522461
20
73.3473968505859
40
0.0
41
0.0
42
0.0
10
72.8338012695312
20
73.3311004638672
40
0.0
41
0.0
42
0.0
10
72.4886016845703
20
73.1536026000977
40
0.0
41
0.0
42
0.0
10
72.3427963256836
20
73.0961990356445
40
0.0
41
0.0
42
0.0
10
72.1781997680664
20
73.0024032592773
40
0.0
41
0.0
42
0.0
10
71.9991989135742
20
72.8676986694336
40
0.0
41
0.0
42
0.0
10
71.8352966308594
20
72.7994995117188
40
0.0
41
0.0
42
0.0
10
71.4908981323242
20
72.5491027832031
40
0.0
41
0.0
42
0.0
10
71.3945007324219
20
72.5016021728516
40
0.0
41
0.0
42
0.0
10
71.3202972412109
20
72.4533996582031
40
0.0
41
0.0
42
0.0
10
70.9913024902344
20
72.1772003173828
40
0.0
41
0.0
42
0.0
10
70.8317031860352
20
72.1035995483398
40
0.0
41
0.0
42
0.0
10
70.7052001953125
20
72.0036010742188
40
0.0
41
0.0
42
0.0
10
70.4922027587891
20
71.8300018310547
40
0.0
41
0.0
42
0.0
10
69.9908981323242
20
71.5150985717773
40
0.0
41
0.0
42
0.0
10
69.7550964355469
20
71.3767013549805
40
0.0
41
0.0
42
0.0
10
69.4901962280273
20
71.2381973266602
40
0.0
41
0.0
42
0.0
10
69.3543014526367
20
71.1576995849609
40
0.0
41
0.0
42
0.0
10
69.3330001831055
20
71.1400985717773
40
0.0
41
0.0
42
0.0
10
69.1211013793945
20
71.0018005371094
40
0.0
41
0.0
42
0.0
10
68.9919967651367
20
70.9340972900391
40
0.0
41
0.0
42
0.0
10
68.870002746582
20
70.8246994018555
40
0.0
41
0.0
42
0.0
10
68.6091003417969
20
70.6595993041992
40
0.0
41
0.0
42
0.0
10
68.5783004760742
20
70.6125030517578
40
0.0
41
0.0
42
0.0
10
68.4972991943359
20
70.5251007080078
40
0.0
41
0.0
42
0.0
10
68.4893035888672
20
70.5093994140625
40
0.0
41
0.0
42
0.0
10
68.443000793457
20
70.4383010864258
40
0.0
41
0.0
42
0.0
10
68.2079010009766
20
70.1644973754883
40
0.0
41
0.0
42
0.0
10
68.1587982177734
20
70.0151977539062
40
0.0
41
0.0
42
0.0
10
68.1426010131836
20
69.8986968994141
40
0.0
41
0.0
42
0.0
10
68.0208969116211
20
69.6551971435547
40
0.0
41
0.0
42
0.0
10
67.9996032714844
20
69.5951995849609
40
0.0
41
0.0
42
0.0
10
67.967903137207
20
69.5142974853516
40
0.0
41
0.0
42
0.0
10
67.9300003051758
20
69.2956008911133
40
0.0
41
0.0
42
0.0
10
67.9066009521484
20
69.0190963745117
40
0.0
41
0.0
42
0.0
10
67.9065017700195
20
68.9804000854492
40
0.0
41
0.0
42
0.0
10
67.9190979003906
20
68.6863021850586
40
0.0
41
0.0
42
0.0
10
67.9549026489258
20
68.4849014282227
40
0.0
41
0.0
42
0.0
210
0.0
220
0.0
230
1.0
0
LWPOLYLINE
5
29
330
1C
100
AcDbEntity
67
0
8
0
62
256
6
ByLayer
370
-1
48
1.0
60
0
100
AcDbPolyline
90
93
70
1
38
0.0
39
0.0
10
68.0299987792969
20
69.6168975830078
40
0.0
41
0.0
42
0.0
10
68.1370010375977
20
69.831298828125
40
0.0
41
0.0
42
0.0
10
68.1584014892578
20
69.9847030639648
40
0.0
41
0.0
42
0.0
10
68.197998046875
20
70.1065979003906
40
0.0
41
0.0
42
0.0
10
68.4632034301758
20
70.4157028198242
40
0.0
41
0.0
42
0.0
10
68.5039978027344
20
70.4782028198242
40
0.0
41
0.0
42
0.0
10
68.5241012573242
20
70.4952011108398
40
0.0
41
0.0
42
0.0
10
68.594596862793
20
70.5711975097656
40
0.0
41
0.0
42
0.0
10
68.6201019287109
20
70.6102981567383
40
0.0
41
0.0
42
0.0
10
68.9160995483398
20
70.7976989746094
40
0.0
41
0.0
42
0.0
10
69.0078964233398
20
70.8798980712891
40
0.0
41
0.0
42
0.0
10
69.2334976196289
20
70.9980010986328
40
0.0
41
0.0
42
0.0
10
69.3876037597656
20
71.0983963012695
40
0.0
41
0.0
42
0.0
10
69.4039001464844
20
71.1120986938477
40
0.0
41
0.0
42
0.0
10
69.5096969604492
20
71.1744995117188
40
0.0
41
0.0
42
0.0
10
69.8352966308594
20
71.3449020385742
40
0.0
41
0.0
42
0.0
10
70.0087966918945
20
71.4468002319336
40
0.0
41
0.0
42
0.0
10
70.1166000366211
20
71.5185012817383
40
0.0
41
0.0
42
0.0
10
70.507698059082
20
71.7648010253906
40
0.0
41
0.0
42
0.0
10
70.7916030883789
20
71.9962997436523
40
0.0
41
0.0
42
0.0
10
70.8891983032227
20
72.0734024047852
40
0.0
41
0.0
42
0.0
10
71.0085983276367
20
72.1288986206055
40
0.0
41
0.0
42
0.0
10
71.3796005249023
20
72.4405975341797
40
0.0
41
0.0
42
0.0
10
71.4684982299805
20
72.4981994628906
40
0.0
41
0.0
42
0.0
10
71.5091018676758
20
72.5182037353516
40
0.0
41
0.0
42
0.0
10
71.8945999145508
20
72.7984008789062
40
0.0
41
0.0
42
0.0
10
72.015998840332
20
72.8488998413086
40
0.0
41
0.0
42
0.0
10
72.2134017944336
20
72.9974975585938
40
0.0
41
0.0
42
0.0
10
72.4023971557617
20
73.1051025390625
40
0.0
41
0.0
42
0.0
10
72.5112991333008
20
73.1480026245117
40
0.0
41
0.0
42
0.0
10
72.8827972412109
20
73.3391036987305
40
0.0
41
0.0
42
0.0
10
73.0121002197266
20
73.3868026733398
40
0.0
41
0.0
42
0.0
10
73.1007995605469
20
73.4261016845703
40
0.0
41
0.0
42
0.0
10
73.2177963256836
20
73.4987030029297
40
0.0
41
0.0
42
0.0
10
73.448600769043
20
73.5932998657227
40
0.0
41
0.0
42
0.0
10
73.4962005615234
20
73.6073989868164
40
0.0
41
0.0
42
0.0
10
73.6521987915039
20
73.5164031982422
40
0.0
41
0.0
42
0.0
10
73.6808013916016
20
73.4942016601562
40
0.0
41
0.0
42
0.0
10
73.6085968017578
20
73.1713027954102
40
0.0
41
0.0
42
0.0
10
73.5876998901367
20
73.0147018432617
40
0.0
41
0.0
42
0.0
10
73.4992980957031
20
72.7866973876953
40
0.0
41
0.0
42
0.0
10
73.4363021850586
20
72.6419982910156
40
0.0
41
0.0
42
0.0
10
73.3606033325195
20
72.5102005004883
40
0.0
41
0.0
42
0.0
10
73.1983032226562
20
72.1672973632812
40
0.0
41
0.0
42
0.0
10
73.1492004394531
20
72.0115966796875
40
0.0
41
0.0
42
0.0
10
73.0314025878906
20
71.8015975952148
40
0.0
41
0.0
42
0.0
10
72.9992980957031
20
71.7165985107422
40
0.0
41
0.0
42
0.0
10
72.9852981567383
20
71.6848983764648
40
0.0
41
0.0
42
0.0
10
72.8584976196289
20
71.5100021362305
40
0.0
41
0.0
42
0.0
10
72.8165969848633
20
71.3953018188477
40
0.0
41
0.0
42
0.0
10
72.5522994995117
20
71.0098037719727
40
0.0
41
0.0
42
0.0
10
72.5073013305664
20
70.9050979614258
40
0.0
41
0.0
42
0.0
10
72.4962997436523
20
70.8929977416992
40
0.0
41
0.0
42
0.0
10
72.2182006835938
20
70.5096969604492
40
0.0
41
0.0
42
0.0
10
72.1720962524414
20
70.3952026367188
40
0.0
41
0.0
42
0.0
10
72.0462036132812
20
70.2018966674805
40
0.0
41
0.0
42
0.0
10
71.9977035522461
20
70.1211013793945
40
0.0
41
0.0
42
0.0
10
71.9247970581055
20
70.0095977783203
40
0.0
41
0.0
42
0.0
10
71.8331985473633
20
69.8177032470703
40
0.0
41
0.0
42
0.0
10
71.6837005615234
20
69.5103988647461
40
0.0
41
0.0
42
0.0
10
71.6214981079102
20
69.3952026367188
40
0.0
41
0.0
42
0.0
10
71.5279006958008
20
69.2128982543945
40
0.0
41
0.0
42
0.0
10
71.4992980957031
20
69.1411972045898
40
0.0
41
0.0
42
0.0
10
71.4412994384766
20
69.0090026855469
40
0.0
41
0.0
42
0.0
10
71.3483963012695
20
68.8938980102539
40
0.0
41
0.0
42
0.0
10
71.1794967651367
20
68.5102996826172
40
0.0
41
0.0
42
0.0
10
71.070198059082
20
68.3283004760742
40
0.0
41
0.0
42
0.0
10
70.9905014038086
20
68.2738037109375
40
0.0
41
0.0
42
0.0
10
70.836799621582
20
68.2001037597656
40
0.0
41
0.0
42
0.0
10
70.806396484375
20
68.1722030639648
40
0.0
41
0.0
42
0.0
10
70.6759033203125
20
68.0054016113281
40
0.0
41
0.0
42
0.0
10
70.4907989501953
20
67.8461990356445
40
0.0
41
0.0
42
0.0
10
70.4432983398438
20
67.8283996582031
40
0.0
41
0.0
42
0.0
10
70.1171035766602
20
67.6551971435547
40
0.0
41
0.0
42
0.0
10
70.0058975219727
20
67.6270980834961
40
0.0
41
0.0
42
0.0
10
69.9852981567383
20
67.6196975708008
40
0.0
41
0.0
42
0.0
10
69.5371017456055
20
67.5438995361328
40
0.0
41
0.0
42
0.0
10
69.4905014038086
20
67.5407028198242
40
0.0
41
0.0
42
0.0
10
69.0867004394531
20
67.5503997802734
40
0.0
41
0.0
42
0.0
10
69.0156021118164
20
67.5615005493164
40
0.0
41
0.0
42
0.0
10
68.7189025878906
20
67.6400985717773
40
0.0
41
0.0
42
0.0
10
68.6305999755859
20
67.6764984130859
40
0.0
41
0.0
42
0.0
10
68.5066986083984
20
67.7562026977539
40
0.0
41
0.0
42
0.0
10
68.173698425293
20
68.0859985351562
40
0.0
41
0.0
42
0.0
10
68.1567993164062
20
68.1231002807617
40
0.0
41
0.0
42
0.0
10
68.0960998535156
20
68.2005996704102
40
0.0
41
0.0
42
0.0
10
68.0
20
68.4705963134766
40
0.0
41
0.0
42
0.0
10
67.9862976074219
20
68.5149993896484
40
0.0
41
0.0
42
0.0
10
67.936897277832
20
68.7929000854492
40
0.0
41
0.0
42
0.0
10
67.9281997680664
20
68.9937973022461
40
0.0
41
0.0
42
0.0
10
67.9591979980469
20
69.3576965332031
40
0.0
41
0.0
42
0.0
10
67.9813995361328
20
69.4853973388672
40
0.0
41
0.0
42
0.0
10
68.0299987792969
20
69.6168975830078
40
0.0
41
0.0
42
0.0
210
0.0
220
0.0
230
1.0
0
LWPOLYLINE
5
2A
330
1C
100
AcDbEntity
67
0
8
0
62
256
6
ByLayer
370
-1
48
1.0
60
0
100
AcDbPolyline
90
84
70
1
38
0.0
39
0.0
10
73.1808013916016
20
81.8299026489258
40
0.0
41
0.0
42
0.0
10
73.3255996704102
20
81.486198425293
40
0.0
41
0.0
42
0.0
10
73.3582000732422
20
81.331298828125
40
0.0
41
0.0
42
0.0
10
73.497200012207
20
81.0123977661133
40
0.0
41
0.0
42
0.0
10
73.5071029663086
20
80.9869995117188
40
0.0
41
0.0
42
0.0
10
73.5820007324219
20
80.7555999755859
40
0.0
41
0.0
42
0.0
10
73.6561965942383
20
80.4860000610352
40
0.0
41
0.0
42
0.0
10
73.7080001831055
20
80.3302001953125
40
0.0
41
0.0
42
0.0
10
73.7717971801758
20
79.9833984375
40
0.0
41
0.0
42
0.0
10
73.8237991333008
20
79.6400985717773
40
0.0
41
0.0
42
0.0
10
73.8780975341797
20
79.4877014160156
40
0.0
41
0.0
42
0.0
10
73.9480972290039
20
79.3315963745117
40
0.0
41
0.0
42
0.0
10
73.9849014282227
20
79.1662979125977
40
0.0
41
0.0
42
0.0
10
74.0186004638672
20
78.9866027832031
40
0.0
41
0.0
42
0.0
10
74.0342025756836
20
78.9543991088867
40
0.0
41
0.0
42
0.0
10
74.0859985351562
20
78.8313980102539
40
0.0
41
0.0
42
0.0
10
74.1662979125977
20
78.4851989746094
40
0.0
41
0.0
42
0.0
10
74.2763977050781
20
78.1020965576172
40
0.0
41
0.0
42
0.0
10
74.3268966674805
20
77.9891967773438
40
0.0
41
0.0
42
0.0
10
74.3531036376953
20
77.9403991699219
40
0.0
41
0.0
42
0.0
10
74.4985961914062
20
77.5567016601562
40
0.0
41
0.0
42
0.0
10
74.5454025268555
20
77.4918975830078
40
0.0
41
0.0
42
0.0
10
74.8050003051758
20
77.105598449707
40
0.0
41
0.0
42
0.0
10
74.8656005859375
20
76.9882965087891
40
0.0
41
0.0
42
0.0
10
74.9947967529297
20
76.6193008422852
40
0.0
41
0.0
42
0.0
10
75.0030975341797
20
76.6193008422852
40
0.0
41
0.0
42
0.0
10
75.0855026245117
20
76.9859008789062
40
0.0
41
0.0
42
0.0
10
75.1278991699219
20
77.1016006469727
40
0.0
41
0.0
42
0.0
10
75.2418975830078
20
77.4878005981445
40
0.0
41
0.0
42
0.0
10
75.3013000488281
20
77.6038970947266
40
0.0
41
0.0
42
0.0
10
75.3178024291992
20
77.6424026489258
40
0.0
41
0.0
42
0.0
10
75.4311981201172
20
77.9860992431641
40
0.0
41
0.0
42
0.0
10
75.4891967773438
20
78.1943969726562
40
0.0
41
0.0
42
0.0
10
75.5622024536133
20
78.3496017456055
40
0.0
41
0.0
42
0.0
10
75.6029968261719
20
78.486701965332
40
0.0
41
0.0
42
0.0
10
75.6613998413086
20
78.6404037475586
40
0.0
41
0.0
42
0.0
10
75.7154998779297
20
78.9824981689453
40
0.0
41
0.0
42
0.0
10
75.7445983886719
20
79.3293991088867
40
0.0
41
0.0
42
0.0
10
75.7988967895508
20
79.4856033325195
40
0.0
41
0.0
42
0.0
10
75.8572006225586
20
79.7610015869141
40
0.0
41
0.0
42
0.0
10
75.8712005615234
20
79.9825973510742
40
0.0
41
0.0
42
0.0
10
75.947998046875
20
80.394401550293
40
0.0
41
0.0
42
0.0
10
75.9567031860352
20
80.4832000732422
40
0.0
41
0.0
42
0.0
10
75.999397277832
20
80.6835021972656
40
0.0
41
0.0
42
0.0
10
76.095703125
20
81.081298828125
40
0.0
41
0.0
42
0.0
10
76.2067031860352
20
81.4847030639648
40
0.0
41
0.0
42
0.0
10
76.2562026977539
20
81.7419967651367
40
0.0
41
0.0
42
0.0
10
76.3376998901367
20
81.9841995239258
40
0.0
41
0.0
42
0.0
10
76.3598022460938
20
82.2771987915039
40
0.0
41
0.0
42
0.0
10
76.4171981811523
20
82.4828033447266
40
0.0
41
0.0
42
0.0
10
76.4170989990234
20
82.5162963867188
40
0.0
41
0.0
42
0.0
10
76.3649978637695
20
82.6632995605469
40
0.0
41
0.0
42
0.0
10
76.3982009887695
20
82.9810028076172
40
0.0
41
0.0
42
0.0
10
76.3981018066406
20
83.0142974853516
40
0.0
41
0.0
42
0.0
10
76.3161010742188
20
83.1551971435547
40
0.0
41
0.0
42
0.0
10
76.2595977783203
20
83.5139007568359
40
0.0
41
0.0
42
0.0
10
76.0884017944336
20
83.8938980102539
40
0.0
41
0.0
42
0.0
10
76.0422973632812
20
83.9518966674805
40
0.0
41
0.0
42
0.0
10
76.004997253418
20
83.9961013793945
40
0.0
41
0.0
42
0.0
10
75.9868011474609
20
84.0113983154297
40
0.0
41
0.0
42
0.0
10
75.5072021484375
20
84.5065002441406
40
0.0
41
0.0
42
0.0
10
75.0139999389648
20
84.7578964233398
40
0.0
41
0.0
42
0.0
10
74.6797027587891
20
84.7870025634766
40
0.0
41
0.0
42
0.0
10
74.640998840332
20
84.7869033813477
40
0.0
41
0.0
42
0.0
10
74.4841003417969
20
84.7809982299805
40
0.0
41
0.0
42
0.0
10
74.1565017700195
20
84.6579971313477
40
0.0
41
0.0
42
0.0
10
73.9918975830078
20
84.5699005126953
40
0.0
41
0.0
42
0.0
10
73.9143981933594
20
84.5037002563477
40
0.0
41
0.0
42
0.0
10
73.7673034667969
20
84.3897018432617
40
0.0
41
0.0
42
0.0
10
73.5593032836914
20
84.1486968994141
40
0.0
41
0.0
42
0.0
10
73.4962005615234
20
84.0839996337891
40
0.0
41
0.0
42
0.0
10
73.4437026977539
20
84.0074005126953
40
0.0
41
0.0
42
0.0
10
73.3522033691406
20
83.8938980102539
40
0.0
41
0.0
42
0.0
10
73.1843032836914
20
83.5140991210938
40
0.0
41
0.0
42
0.0
10
73.1266021728516
20
83.1281967163086
40
0.0
41
0.0
42
0.0
10
73.0650024414062
20
83.0146026611328
40
0.0
41
0.0
42
0.0
10
73.0649032592773
20
82.9813003540039
40
0.0
41
0.0
42
0.0
10
73.1097030639648
20
82.6268005371094
40
0.0
41
0.0
42
0.0
10
73.0739974975586
20
82.5167007446289
40
0.0
41
0.0
42
0.0
10
73.0740966796875
20
82.4832992553711
40
0.0
41
0.0
42
0.0
10
73.1845016479492
20
82.1473999023438
40
0.0
41
0.0
42
0.0
10
73.1700973510742
20
82.0189971923828
40
0.0
41
0.0
42
0.0
10
73.1709976196289
20
81.9690017700195
40
0.0
41
0.0
42
0.0
10
73.1808013916016
20
81.8299026489258
40
0.0
41
0.0
42
0.0
210
0.0
220
0.0
230
1.0
0
LWPOLYLINE
5
2B
330
1C
100
AcDbEntity
67
0
8
0
62
256
6
ByLayer
370
-1
48
1.0
60
0
100
AcDbPolyline
90
84
70
1
38
0.0
39
0.0
10
73.3696975708008
20
83.8359985351562
40
0.0
41
0.0
42
0.0
10
73.5037994384766
20
84.0036010742188
40
0.0
41
0.0
42
0.0
10
73.7954025268555
20
84.340202331543
40
0.0
41
0.0
42
0.0
10
74.0083999633789
20
84.506103515625
40
0.0
41
0.0
42
0.0
10
74.2375030517578
20
84.6287002563477
40
0.0
41
0.0
42
0.0
10
74.5158004760742
20
84.7331008911133
40
0.0
41
0.0
42
0.0
10
74.7091979980469
20
84.7405014038086
40
0.0
41
0.0
42
0.0
10
74.9858016967773
20
84.7164001464844
40
0.0
41
0.0
42
0.0
10
75.4133987426758
20
84.4989013671875
40
0.0
41
0.0
42
0.0
10
75.4412002563477
20
84.486701965332
40
0.0
41
0.0
42
0.0
10
75.4916000366211
20
84.4682998657227
40
0.0
41
0.0
42
0.0
10
75.9253005981445
20
84.0210037231445
40
0.0
41
0.0
42
0.0
10
75.9570999145508
20
83.9960021972656
40
0.0
41
0.0
42
0.0
10
75.995002746582
20
83.9618988037109
40
0.0
41
0.0
42
0.0
10
76.0307998657227
20
83.9195022583008
40
0.0
41
0.0
42
0.0
10
76.0971984863281
20
83.8358993530273
40
0.0
41
0.0
42
0.0
10
76.2547988891602
20
83.4860000610352
40
0.0
41
0.0
42
0.0
10
76.3093032836914
20
83.1395034790039
40
0.0
41
0.0
42
0.0
10
76.3198013305664
20
83.1033020019531
40
0.0
41
0.0
42
0.0
10
76.385498046875
20
82.9906997680664
40
0.0
41
0.0
42
0.0
10
76.3481979370117
20
82.6337966918945
40
0.0
41
0.0
42
0.0
10
76.3481979370117
20
82.598503112793
40
0.0
41
0.0
42
0.0
10
76.383903503418
20
82.4982986450195
40
0.0
41
0.0
42
0.0
10
76.3102035522461
20
82.2341003417969
40
0.0
41
0.0
42
0.0
10
76.2936019897461
20
82.0157012939453
40
0.0
41
0.0
42
0.0
10
76.1933975219727
20
81.720703125
40
0.0
41
0.0
42
0.0
10
76.1886978149414
20
81.703498840332
40
0.0
41
0.0
42
0.0
10
76.1524963378906
20
81.5151977539062
40
0.0
41
0.0
42
0.0
10
76.0201034545898
20
81.0345001220703
40
0.0
41
0.0
42
0.0
10
76.0003967285156
20
80.9531021118164
40
0.0
41
0.0
42
0.0
10
75.9074020385742
20
80.5167007446289
40
0.0
41
0.0
42
0.0
10
75.8884963989258
20
80.3223037719727
40
0.0
41
0.0
42
0.0
10
75.8315963745117
20
80.0174026489258
40
0.0
41
0.0
42
0.0
10
75.813102722168
20
79.723503112793
40
0.0
41
0.0
42
0.0
10
75.768798828125
20
79.5142974853516
40
0.0
41
0.0
42
0.0
10
75.7292022705078
20
79.4005966186523
40
0.0
41
0.0
42
0.0
10
75.6970977783203
20
79.0174026489258
40
0.0
41
0.0
42
0.0
10
75.6358032226562
20
78.6295013427734
40
0.0
41
0.0
42
0.0
10
75.5915985107422
20
78.5131988525391
40
0.0
41
0.0
42
0.0
10
75.5456008911133
20
78.3584976196289
40
0.0
41
0.0
42
0.0
10
75.4916000366211
20
78.2436981201172
40
0.0
41
0.0
42
0.0
10
75.4275970458984
20
78.013801574707
40
0.0
41
0.0
42
0.0
10
75.3058013916016
20
77.6454010009766
40
0.0
41
0.0
42
0.0
10
75.2377014160156
20
77.5121002197266
40
0.0
41
0.0
42
0.0
10
75.1362991333008
20
77.1684036254883
40
0.0
41
0.0
42
0.0
10
75.0798034667969
20
77.0139999389648
40
0.0
41
0.0
42
0.0
10
75.0085983276367
20
76.6938018798828
40
0.0
41
0.0
42
0.0
10
74.9889984130859
20
76.6925964355469
40
0.0
41
0.0
42
0.0
10
74.8774032592773
20
77.0115966796875
40
0.0
41
0.0
42
0.0
10
74.7985992431641
20
77.1641998291016
40
0.0
41
0.0
42
0.0
10
74.5675964355469
20
77.5078964233398
40
0.0
41
0.0
42
0.0
10
74.5011978149414
20
77.5999984741211
40
0.0
41
0.0
42
0.0
10
74.370002746582
20
77.9460983276367
40
0.0
41
0.0
42
0.0
10
74.3352966308594
20
78.0106964111328
40
0.0
41
0.0
42
0.0
10
74.2658996582031
20
78.1662979125977
40
0.0
41
0.0
42
0.0
10
74.1660003662109
20
78.5142974853516
40
0.0
41
0.0
42
0.0
10
74.0768966674805
20
78.8983993530273
40
0.0
41
0.0
42
0.0
10
74.0401000976562
20
78.9858016967773
40
0.0
41
0.0
42
0.0
10
74.0267028808594
20
79.013298034668
40
0.0
41
0.0
42
0.0
10
73.9991989135742
20
79.1654968261719
40
0.0
41
0.0
42
0.0
10
73.9766998291016
20
79.2797012329102
40
0.0
41
0.0
42
0.0
10
73.9505004882812
20
79.3983001708984
40
0.0
41
0.0
42
0.0
10
73.8993988037109
20
79.5121002197266
40
0.0
41
0.0
42
0.0
10
73.8573989868164
20
79.6297988891602
40
0.0
41
0.0
42
0.0
10
73.7988967895508
20
80.0165023803711
40
0.0
41
0.0
42
0.0
10
73.7283020019531
20
80.3996963500977
40
0.0
41
0.0
42
0.0
10
73.6903991699219
20
80.513801574707
40
0.0
41
0.0
42
0.0
10
73.5998992919922
20
80.8430023193359
40
0.0
41
0.0
42
0.0
10
73.5448989868164
20
81.0130004882812
40
0.0
41
0.0
42
0.0
10
73.5003967285156
20
81.129997253418
40
0.0
41
0.0
42
0.0
10
73.3835983276367
20
81.3984985351562
40
0.0
41
0.0
42
0.0
10
73.3593978881836
20
81.5136032104492
40
0.0
41
0.0
42
0.0
10
73.1965026855469
20
81.9000015258789
40
0.0
41
0.0
42
0.0
10
73.189697265625
20
81.9960021972656
40
0.0
41
0.0
42
0.0
10
73.2011032104492
20
82.0960998535156
40
0.0
41
0.0
42
0.0
10
73.2009963989258
20
82.1315994262695
40
0.0
41
0.0
42
0.0
10
73.0799026489258
20
82.5
40
0.0
41
0.0
42
0.0
10
73.1125030517578
20
82.6008987426758
40
0.0
41
0.0
42
0.0
10
73.1223983764648
20
82.6377029418945
40
0.0
41
0.0
42
0.0
10
73.1222991943359
20
82.6735992431641
40
0.0
41
0.0
42
0.0
10
73.0820007324219
20
82.9916000366211
40
0.0
41
0.0
42
0.0
10
73.1635971069336
20
83.1417007446289
40
0.0
41
0.0
42
0.0
10
73.2151031494141
20
83.4859008789062
40
0.0
41
0.0
42
0.0
10
73.3696975708008
20
83.8359985351562
40
0.0
41
0.0
42
0.0
210
0.0
220
0.0
230
1.0
0
LWPOLYLINE
5
2C
330
1C
100
AcDbEntity
67
0
8
0
62
256
6
ByLayer
370
-1
48
1.0
60
0
100
AcDbPolyline
90
86
70
1
38
0.0
39
0.0
10
73.5826034545898
20
67.4835968017578
40
0.0
41
0.0
42
0.0
10
73.6346969604492
20
67.3366012573242
40
0.0
41
0.0
42
0.0
10
73.6016998291016
20
67.0188980102539
40
0.0
41
0.0
42
0.0
10
73.6016006469727
20
66.9815979003906
40
0.0
41
0.0
42
0.0
10
73.6551971435547
20
66.6408996582031
40
0.0
41
0.0
42
0.0
10
73.671501159668
20
66.6044998168945
40
0.0
41
0.0
42
0.0
10
73.7385025024414
20
66.489501953125
40
0.0
41
0.0
42
0.0
10
73.9113006591797
20
66.1059036254883
40
0.0
41
0.0
42
0.0
10
73.9572982788086
20
66.0477981567383
40
0.0
41
0.0
42
0.0
10
73.995002746582
20
66.0034027099609
40
0.0
41
0.0
42
0.0
10
74.0045013427734
20
65.9947967529297
40
0.0
41
0.0
42
0.0
10
74.0550994873047
20
65.9391021728516
40
0.0
41
0.0
42
0.0
10
74.1093978881836
20
65.8961029052734
40
0.0
41
0.0
42
0.0
10
74.4013977050781
20
65.5671997070312
40
0.0
41
0.0
42
0.0
10
74.4915008544922
20
65.4936981201172
40
0.0
41
0.0
42
0.0
10
74.9858016967773
20
65.2417984008789
40
0.0
41
0.0
42
0.0
10
75.3200988769531
20
65.2128982543945
40
0.0
41
0.0
42
0.0
10
75.3588027954102
20
65.2127990722656
40
0.0
41
0.0
42
0.0
10
75.5158004760742
20
65.2188034057617
40
0.0
41
0.0
42
0.0
10
75.8433990478516
20
65.3416976928711
40
0.0
41
0.0
42
0.0
10
76.0080032348633
20
65.4299011230469
40
0.0
41
0.0
42
0.0
10
76.0855026245117
20
65.4962997436523
40
0.0
41
0.0
42
0.0
10
76.2188034057617
20
65.5970001220703
40
0.0
41
0.0
42
0.0
10
76.4033966064453
20
65.7851028442383
40
0.0
41
0.0
42
0.0
10
76.5028991699219
20
65.9148025512695
40
0.0
41
0.0
42
0.0
10
76.5560989379883
20
65.9925003051758
40
0.0
41
0.0
42
0.0
10
76.6474990844727
20
66.1060028076172
40
0.0
41
0.0
42
0.0
10
76.8169021606445
20
66.4891967773438
40
0.0
41
0.0
42
0.0
10
76.8778991699219
20
66.6016998291016
40
0.0
41
0.0
42
0.0
10
76.935302734375
20
66.9848022460938
40
0.0
41
0.0
42
0.0
10
76.9721984863281
20
67.0982971191406
40
0.0
41
0.0
42
0.0
10
76.9720993041992
20
67.1342010498047
40
0.0
41
0.0
42
0.0
10
76.9693984985352
20
67.1728973388672
40
0.0
41
0.0
42
0.0
10
76.9260025024414
20
67.5152969360352
40
0.0
41
0.0
42
0.0
10
76.8152008056641
20
67.8525009155273
40
0.0
41
0.0
42
0.0
10
76.8296966552734
20
67.9811019897461
40
0.0
41
0.0
42
0.0
10
76.8295974731445
20
68.0192031860352
40
0.0
41
0.0
42
0.0
10
76.8189010620117
20
68.1699981689453
40
0.0
41
0.0
42
0.0
10
76.6741027832031
20
68.5136032104492
40
0.0
41
0.0
42
0.0
10
76.6416015625
20
68.6685028076172
40
0.0
41
0.0
42
0.0
10
76.5001983642578
20
68.9926986694336
40
0.0
41
0.0
42
0.0
10
76.4177017211914
20
69.2442016601562
40
0.0
41
0.0
42
0.0
10
76.3434982299805
20
69.513801574707
40
0.0
41
0.0
42
0.0
10
76.2917022705078
20
69.6697006225586
40
0.0
41
0.0
42
0.0
10
76.2283020019531
20
70.0145034790039
40
0.0
41
0.0
42
0.0
10
76.1727981567383
20
70.1697998046875
40
0.0
41
0.0
42
0.0
10
76.1207962036133
20
70.5139999389648
40
0.0
41
0.0
42
0.0
10
76.0515975952148
20
70.6682968139648
40
0.0
41
0.0
42
0.0
10
76.0148010253906
20
70.8335037231445
40
0.0
41
0.0
42
0.0
10
75.9811019897461
20
71.013298034668
40
0.0
41
0.0
42
0.0
10
75.9654998779297
20
71.0453033447266
40
0.0
41
0.0
42
0.0
10
75.9135971069336
20
71.1684036254883
40
0.0
41
0.0
42
0.0
10
75.8337020874023
20
71.5131988525391
40
0.0
41
0.0
42
0.0
10
75.7822036743164
20
71.6292037963867
40
0.0
41
0.0
42
0.0
10
75.6722030639648
20
72.0120010375977
40
0.0
41
0.0
42
0.0
10
75.646598815918
20
72.0594024658203
40
0.0
41
0.0
42
0.0
10
75.5011978149414
20
72.4429016113281
40
0.0
41
0.0
42
0.0
10
75.4535980224609
20
72.508903503418
40
0.0
41
0.0
42
0.0
10
75.3942031860352
20
72.6241989135742
40
0.0
41
0.0
42
0.0
10
75.1344985961914
20
73.0103988647461
40
0.0
41
0.0
42
0.0
10
75.0050964355469
20
73.3805999755859
40
0.0
41
0.0
42
0.0
10
74.9960021972656
20
73.3805999755859
40
0.0
41
0.0
42
0.0
10
74.9143981933594
20
73.0147018432617
40
0.0
41
0.0
42
0.0
10
74.8003997802734
20
72.6284027099609
40
0.0
41
0.0
42
0.0
10
74.7565994262695
20
72.5083999633789
40
0.0
41
0.0
42
0.0
10
74.6376037597656
20
72.1483993530273
40
0.0
41
0.0
42
0.0
10
74.5680999755859
20
72.0122985839844
40
0.0
41
0.0
42
0.0
10
74.510498046875
20
71.8053970336914
40
0.0
41
0.0
42
0.0
10
74.4375991821289
20
71.6503982543945
40
0.0
41
0.0
42
0.0
10
74.3973007202148
20
71.5152969360352
40
0.0
41
0.0
42
0.0
10
74.3426971435547
20
71.1695022583008
40
0.0
41
0.0
42
0.0
10
74.2839965820312
20
71.0152969360352
40
0.0
41
0.0
42
0.0
10
74.2550964355469
20
70.6706008911133
40
0.0
41
0.0
42
0.0
10
74.200798034668
20
70.5142974853516
40
0.0
41
0.0
42
0.0
10
74.1425018310547
20
70.2388000488281
40
0.0
41
0.0
42
0.0
10
74.1285018920898
20
70.0174026489258
40
0.0
41
0.0
42
0.0
10
74.0516967773438
20
69.6054000854492
40
0.0
41
0.0
42
0.0
10
74.0429992675781
20
69.5167007446289
40
0.0
41
0.0
42
0.0
10
74.0003967285156
20
69.3162994384766
40
0.0
41
0.0
42
0.0
10
73.9039993286133
20
68.9185028076172
40
0.0
41
0.0
42
0.0
10
73.7929992675781
20
68.5151977539062
40
0.0
41
0.0
42
0.0
10
73.7434997558594
20
68.2577972412109
40
0.0
41
0.0
42
0.0
10
73.6621017456055
20
68.0158004760742
40
0.0
41
0.0
42
0.0
10
73.6399002075195
20
67.7226028442383
40
0.0
41
0.0
42
0.0
10
73.5827026367188
20
67.5170974731445
40
0.0
41
0.0
42
0.0
10
73.5826034545898
20
67.4835968017578
40
0.0
41
0.0
42
0.0
210
0.0
220
0.0
230
1.0
0
LWPOLYLINE
5
2D
330
1C
100
AcDbEntity
67
0
8
0
62
256
6
ByLayer
370
-1
48
1.0
60
0
100
AcDbPolyline
90
85
70
1
38
0.0
39
0.0
10
73.7061004638672
20
67.9841995239258
40
0.0
41
0.0
42
0.0
10
73.8062973022461
20
68.2790985107422
40
0.0
41
0.0
42
0.0
10
73.8109970092773
20
68.2963027954102
40
0.0
41
0.0
42
0.0
10
73.847297668457
20
68.4847030639648
40
0.0
41
0.0
42
0.0
10
73.9795989990234
20
68.9653015136719
40
0.0
41
0.0
42
0.0
10
73.999397277832
20
69.0466995239258
40
0.0
41
0.0
42
0.0
10
74.0923004150391
20
69.4832000732422
40
0.0
41
0.0
42
0.0
10
74.111198425293
20
69.6774978637695
40
0.0
41
0.0
42
0.0
10
74.168098449707
20
69.9825973510742
40
0.0
41
0.0
42
0.0
10
74.1865997314453
20
70.2762985229492
40
0.0
41
0.0
42
0.0
10
74.2310028076172
20
70.4856033325195
40
0.0
41
0.0
42
0.0
10
74.2705001831055
20
70.5994033813477
40
0.0
41
0.0
42
0.0
10
74.3028030395508
20
70.9847030639648
40
0.0
41
0.0
42
0.0
10
74.3468017578125
20
71.1004028320312
40
0.0
41
0.0
42
0.0
10
74.4075012207031
20
71.4845962524414
40
0.0
41
0.0
42
0.0
10
74.4542007446289
20
71.6412963867188
40
0.0
41
0.0
42
0.0
10
74.5081024169922
20
71.756103515625
40
0.0
41
0.0
42
0.0
10
74.5726013183594
20
71.9876022338867
40
0.0
41
0.0
42
0.0
10
74.6320037841797
20
72.1037979125977
40
0.0
41
0.0
42
0.0
10
74.6479034423828
20
72.1423034667969
40
0.0
41
0.0
42
0.0
10
74.7618026733398
20
72.4869003295898
40
0.0
41
0.0
42
0.0
10
74.8184967041016
20
72.6416015625
40
0.0
41
0.0
42
0.0
10
74.9198989868164
20
72.9851989746094
40
0.0
41
0.0
42
0.0
10
74.9913024902344
20
73.3060989379883
40
0.0
41
0.0
42
0.0
10
75.0109024047852
20
73.3072967529297
40
0.0
41
0.0
42
0.0
10
75.1220016479492
20
72.9894027709961
40
0.0
41
0.0
42
0.0
10
75.3529968261719
20
72.6455993652344
40
0.0
41
0.0
42
0.0
10
75.4328002929688
20
72.4908981323242
40
0.0
41
0.0
42
0.0
10
75.4985961914062
20
72.39990234375
40
0.0
41
0.0
42
0.0
10
75.6296997070312
20
72.053596496582
40
0.0
41
0.0
42
0.0
10
75.6651000976562
20
71.9878997802734
40
0.0
41
0.0
42
0.0
10
75.7643966674805
20
71.6420974731445
40
0.0
41
0.0
42
0.0
10
75.8335037231445
20
71.4866027832031
40
0.0
41
0.0
42
0.0
10
75.9226989746094
20
71.1014022827148
40
0.0
41
0.0
42
0.0
10
75.959602355957
20
71.0139007568359
40
0.0
41
0.0
42
0.0
10
75.9729995727539
20
70.9865036010742
40
0.0
41
0.0
42
0.0
10
76.000602722168
20
70.8341979980469
40
0.0
41
0.0
42
0.0
10
76.0230026245117
20
70.7200012207031
40
0.0
41
0.0
42
0.0
10
76.049201965332
20
70.6016006469727
40
0.0
41
0.0
42
0.0
10
76.1010971069336
20
70.4859008789062
40
0.0
41
0.0
42
0.0
10
76.1595001220703
20
70.10009765625
40
0.0
41
0.0
42
0.0
10
76.2004013061523
20
69.9853973388672
40
0.0
41
0.0
42
0.0
10
76.2714004516602
20
69.6001968383789
40
0.0
41
0.0
42
0.0
10
76.3093032836914
20
69.4860000610352
40
0.0
41
0.0
42
0.0
10
76.3998031616211
20
69.1567001342773
40
0.0
41
0.0
42
0.0
10
76.4548034667969
20
68.9869003295898
40
0.0
41
0.0
42
0.0
10
76.4992980957031
20
68.8696975708008
40
0.0
41
0.0
42
0.0
10
76.6162033081055
20
68.6013031005859
40
0.0
41
0.0
42
0.0
10
76.6402969360352
20
68.486198425293
40
0.0
41
0.0
42
0.0
10
76.8031997680664
20
68.0998992919922
40
0.0
41
0.0
42
0.0
10
76.8099975585938
20
68.0037994384766
40
0.0
41
0.0
42
0.0
10
76.7987976074219
20
67.9038009643555
40
0.0
41
0.0
42
0.0
10
76.798698425293
20
67.8683013916016
40
0.0
41
0.0
42
0.0
10
76.9248962402344
20
67.4845962524414
40
0.0
41
0.0
42
0.0
10
76.9664001464844
20
67.1565017700195
40
0.0
41
0.0
42
0.0
10
76.9206008911133
20
67.0150985717773
40
0.0
41
0.0
42
0.0
10
76.8686981201172
20
66.6681976318359
40
0.0
41
0.0
42
0.0
10
76.783203125
20
66.5106964111328
40
0.0
41
0.0
42
0.0
10
76.629997253418
20
66.1639022827148
40
0.0
41
0.0
42
0.0
10
76.5034027099609
20
66.0070037841797
40
0.0
41
0.0
42
0.0
10
76.3600997924805
20
65.8192977905273
40
0.0
41
0.0
42
0.0
10
76.1846008300781
20
65.6405029296875
40
0.0
41
0.0
42
0.0
10
75.9914016723633
20
65.4935989379883
40
0.0
41
0.0
42
0.0
10
75.7622985839844
20
65.3711013793945
40
0.0
41
0.0
42
0.0
10
75.4841003417969
20
65.2666015625
40
0.0
41
0.0
42
0.0
10
75.2906036376953
20
65.2592010498047
40
0.0
41
0.0
42
0.0
10
75.0139999389648
20
65.2833023071289
40
0.0
41
0.0
42
0.0
10
74.5864028930664
20
65.5009002685547
40
0.0
41
0.0
42
0.0
10
74.5586013793945
20
65.5130004882812
40
0.0
41
0.0
42
0.0
10
74.5093994140625
20
65.5308990478516
40
0.0
41
0.0
42
0.0
10
74.4217987060547
20
65.6017990112305
40
0.0
41
0.0
42
0.0
10
74.160400390625
20
65.8964996337891
40
0.0
41
0.0
42
0.0
10
74.0875015258789
20
65.9542007446289
40
0.0
41
0.0
42
0.0
10
74.0413970947266
20
66.004997253418
40
0.0
41
0.0
42
0.0
10
74.0047988891602
20
66.0378036499023
40
0.0
41
0.0
42
0.0
10
73.9689025878906
20
66.0802001953125
40
0.0
41
0.0
42
0.0
10
73.9023971557617
20
66.1639022827148
40
0.0
41
0.0
42
0.0
10
73.7464981079102
20
66.5102996826172
40
0.0
41
0.0
42
0.0
10
73.6707992553711
20
66.6404037475586
40
0.0
41
0.0
42
0.0
10
73.6136016845703
20
67.0034027099609
40
0.0
41
0.0
42
0.0
10
73.651496887207
20
67.3654022216797
40
0.0
41
0.0
42
0.0
10
73.651496887207
20
67.4012985229492
40
0.0
41
0.0
42
0.0
10
73.6158981323242
20
67.5016021728516
40
0.0
41
0.0
42
0.0
10
73.6894989013672
20
67.7657012939453
40
0.0
41
0.0
42
0.0
10
73.7061004638672
20
67.9841995239258
40
0.0
41
0.0
42
0.0
210
0.0
220
0.0
230
1.0
0
LWPOLYLINE
5
2E
330
1C
100
AcDbEntity
67
0
8
0
62
256
6
ByLayer
370
-1
48
1.0
60
0
100
AcDbPolyline
90
94
70
1
38
0.0
39
0.0
10
76.3125
20
76.4831008911133
40
0.0
41
0.0
42
0.0
10
76.4856033325195
20
76.3823013305664
40
0.0
41
0.0
42
0.0
10
76.5168991088867
20
76.3822021484375
40
0.0
41
0.0
42
0.0
10
76.5606994628906
20
76.3953018188477
40
0.0
41
0.0
42
0.0
10
76.8127975463867
20
76.4987030029297
40
0.0
41
0.0
42
0.0
10
76.9428024291992
20
76.5791015625
40
0.0
41
0.0
42
0.0
10
77.0109024047852
20
76.6093978881836
40
0.0
41
0.0
42
0.0
10
77.3702011108398
20
76.7942962646484
40
0.0
41
0.0
42
0.0
10
77.5124969482422
20
76.8466033935547
40
0.0
41
0.0
42
0.0
10
77.6569976806641
20
76.9036026000977
40
0.0
41
0.0
42
0.0
10
77.8216018676758
20
76.9974975585938
40
0.0
41
0.0
42
0.0
10
78.0007019042969
20
77.1321029663086
40
0.0
41
0.0
42
0.0
10
78.1645965576172
20
77.2003021240234
40
0.0
41
0.0
42
0.0
10
78.5091018676758
20
77.4506988525391
40
0.0
41
0.0
42
0.0
10
78.6053009033203
20
77.4982986450195
40
0.0
41
0.0
42
0.0
10
78.6794967651367
20
77.5464019775391
40
0.0
41
0.0
42
0.0
10
79.0068969726562
20
77.8211975097656
40
0.0
41
0.0
42
0.0
10
79.013298034668
20
77.8258972167969
40
0.0
41
0.0
42
0.0
10
79.0528030395508
20
77.8434982299805
40
0.0
41
0.0
42
0.0
10
79.2955017089844
20
77.9970016479492
40
0.0
41
0.0
42
0.0
10
79.507698059082
20
78.1697998046875
40
0.0
41
0.0
42
0.0
10
80.0090026855469
20
78.4845962524414
40
0.0
41
0.0
42
0.0
10
80.2447967529297
20
78.6230010986328
40
0.0
41
0.0
42
0.0
10
80.5130004882812
20
78.7631988525391
40
0.0
41
0.0
42
0.0
10
80.6464004516602
20
78.8426971435547
40
0.0
41
0.0
42
0.0
10
80.8786010742188
20
78.9981002807617
40
0.0
41
0.0
42
0.0
10
81.0094985961914
20
79.0664978027344
40
0.0
41
0.0
42
0.0
10
81.1088027954102
20
79.1294021606445
40
0.0
41
0.0
42
0.0
10
81.3912963867188
20
79.3403015136719
40
0.0
41
0.0
42
0.0
10
81.4972991943359
20
79.4664993286133
40
0.0
41
0.0
42
0.0
10
81.5106964111328
20
79.4907989501953
40
0.0
41
0.0
42
0.0
10
81.5568008422852
20
79.5615005493164
40
0.0
41
0.0
42
0.0
10
81.7919006347656
20
79.8355026245117
40
0.0
41
0.0
42
0.0
10
81.8408966064453
20
79.9847030639648
40
0.0
41
0.0
42
0.0
10
81.8572006225586
20
80.1013031005859
40
0.0
41
0.0
42
0.0
10
81.9787979125977
20
80.344596862793
40
0.0
41
0.0
42
0.0
10
82.0002975463867
20
80.4046020507812
40
0.0
41
0.0
42
0.0
10
82.0317993164062
20
80.4856033325195
40
0.0
41
0.0
42
0.0
10
82.0697021484375
20
80.7042007446289
40
0.0
41
0.0
42
0.0
10
82.0932998657227
20
80.9807968139648
40
0.0
41
0.0
42
0.0
10
82.0932006835938
20
81.0195007324219
40
0.0
41
0.0
42
0.0
10
82.0807037353516
20
81.3134002685547
40
0.0
41
0.0
42
0.0
10
82.0447998046875
20
81.5149993896484
40
0.0
41
0.0
42
0.0
10
82.0005035400391
20
81.6588973999023
40
0.0
41
0.0
42
0.0
10
81.8248977661133
20
81.9766998291016
40
0.0
41
0.0
42
0.0
10
81.8108978271484
20
82.007698059082
40
0.0
41
0.0
42
0.0
10
81.5084991455078
20
82.3062973022461
40
0.0
41
0.0
42
0.0
10
81.0447006225586
20
82.4674987792969
40
0.0
41
0.0
42
0.0
10
81.0136032104492
20
82.4826965332031
40
0.0
41
0.0
42
0.0
10
80.999397277832
20
82.4850006103516
40
0.0
41
0.0
42
0.0
10
80.5196990966797
20
82.4963989257812
40
0.0
41
0.0
42
0.0
10
80.4785003662109
20
82.4962005615234
40
0.0
41
0.0
42
0.0
10
79.9842987060547
20
82.4128036499023
40
0.0
41
0.0
42
0.0
10
79.9112014770508
20
82.3943023681641
40
0.0
41
0.0
42
0.0
10
79.883903503418
20
82.3852996826172
40
0.0
41
0.0
42
0.0
10
79.8282012939453
20
82.3608016967773
40
0.0
41
0.0
42
0.0
10
79.4918975830078
20
82.1821975708008
40
0.0
41
0.0
42
0.0
10
79.2861022949219
20
82.0054016113281
40
0.0
41
0.0
42
0.0
10
79.135498046875
20
81.8127975463867
40
0.0
41
0.0
42
0.0
10
79.1069030761719
20
81.7863998413086
40
0.0
41
0.0
42
0.0
10
78.9905014038086
20
81.7304992675781
40
0.0
41
0.0
42
0.0
10
78.8964996337891
20
81.6652984619141
40
0.0
41
0.0
42
0.0
10
78.8032989501953
20
81.5102996826172
40
0.0
41
0.0
42
0.0
10
78.6507034301758
20
81.1639022827148
40
0.0
41
0.0
42
0.0
10
78.5255966186523
20
81.0090026855469
40
0.0
41
0.0
42
0.0
10
78.4987030029297
20
80.9476013183594
40
0.0
41
0.0
42
0.0
10
78.4072036743164
20
80.7893981933594
40
0.0
41
0.0
42
0.0
10
78.3578033447266
20
80.6656036376953
40
0.0
41
0.0
42
0.0
10
78.2944030761719
20
80.559700012207
40
0.0
41
0.0
42
0.0
10
78.2743988037109
20
80.5113983154297
40
0.0
41
0.0
42
0.0
10
78.0309982299805
20
80.0095977783203
40
0.0
41
0.0
42
0.0
10
77.9973983764648
20
79.9580001831055
40
0.0
41
0.0
42
0.0
10
77.8936996459961
20
79.8079986572266
40
0.0
41
0.0
42
0.0
10
77.8084030151367
20
79.6654968261719
40
0.0
41
0.0
42
0.0
10
77.7578964233398
20
79.5436019897461
40
0.0
41
0.0
42
0.0
10
77.7459030151367
20
79.5100021362305
40
0.0
41
0.0
42
0.0
10
77.4962005615234
20
79.165397644043
40
0.0
41
0.0
42
0.0
10
77.4844970703125
20
79.1528015136719
40
0.0
41
0.0
42
0.0
10
77.4228973388672
20
79.0098037719727
40
0.0
41
0.0
42
0.0
10
77.1867980957031
20
78.6652984619141
40
0.0
41
0.0
42
0.0
10
77.1300964355469
20
78.5100021362305
40
0.0
41
0.0
42
0.0
10
77.0156021118164
20
78.3519973754883
40
0.0
41
0.0
42
0.0
10
76.999397277832
20
78.3153991699219
40
0.0
41
0.0
42
0.0
10
76.9572982788086
20
78.2041015625
40
0.0
41
0.0
42
0.0
10
76.8475036621094
20
78.0102996826172
40
0.0
41
0.0
42
0.0
10
76.6662979125977
20
77.6272964477539
40
0.0
41
0.0
42
0.0
10
76.6297988891602
20
77.5114974975586
40
0.0
41
0.0
42
0.0
10
76.5448989868164
20
77.3636016845703
40
0.0
41
0.0
42
0.0
10
76.4992980957031
20
77.258903503418
40
0.0
41
0.0
42
0.0
10
76.4039001464844
20
77.013801574707
40
0.0
41
0.0
42
0.0
10
76.3184967041016
20
76.6313018798828
40
0.0
41
0.0
42
0.0
10
76.303596496582
20
76.5186004638672
40
0.0
41
0.0
42
0.0
10
76.3034973144531
20
76.4901962280273
40
0.0
41
0.0
42
0.0
10
76.3125
20
76.4831008911133
40
0.0
41
0.0
42
0.0
210
0.0
220
0.0
230
1.0
0
LWPOLYLINE
5
2F
330
1C
100
AcDbEntity
67
0
8
0
62
256
6
ByLayer
370
-1
48
1.0
60
0
100
AcDbPolyline
90
91
70
1
38
0.0
39
0.0
10
76.3171997070312
20
76.5070037841797
40
0.0
41
0.0
42
0.0
10
76.3348007202148
20
76.6386032104492
40
0.0
41
0.0
42
0.0
10
76.4123992919922
20
76.9860992431641
40
0.0
41
0.0
42
0.0
10
76.5005035400391
20
77.2130966186523
40
0.0
41
0.0
42
0.0
10
76.5634002685547
20
77.3578033447266
40
0.0
41
0.0
42
0.0
10
76.638298034668
20
77.4885025024414
40
0.0
41
0.0
42
0.0
10
76.6872024536133
20
77.6426010131836
40
0.0
41
0.0
42
0.0
10
76.8511962890625
20
77.9896011352539
40
0.0
41
0.0
42
0.0
10
76.9682998657227
20
78.1983032226562
40
0.0
41
0.0
42
0.0
10
77.0005035400391
20
78.283203125
40
0.0
41
0.0
42
0.0
10
77.0145034790039
20
78.3149032592773
40
0.0
41
0.0
42
0.0
10
77.1412963867188
20
78.4898986816406
40
0.0
41
0.0
42
0.0
10
77.1831970214844
20
78.6046981811523
40
0.0
41
0.0
42
0.0
10
77.4475021362305
20
78.9900970458984
40
0.0
41
0.0
42
0.0
10
77.4925994873047
20
79.0948028564453
40
0.0
41
0.0
42
0.0
10
77.5036010742188
20
79.1067962646484
40
0.0
41
0.0
42
0.0
10
77.7815017700195
20
79.4901962280273
40
0.0
41
0.0
42
0.0
10
77.8274993896484
20
79.6043014526367
40
0.0
41
0.0
42
0.0
10
77.9252014160156
20
79.7674026489258
40
0.0
41
0.0
42
0.0
10
78.0025024414062
20
79.8792037963867
40
0.0
41
0.0
42
0.0
10
78.0749969482422
20
79.9903030395508
40
0.0
41
0.0
42
0.0
10
78.1666030883789
20
80.1821975708008
40
0.0
41
0.0
42
0.0
10
78.3154983520508
20
80.4886016845703
40
0.0
41
0.0
42
0.0
10
78.3310012817383
20
80.5259017944336
40
0.0
41
0.0
42
0.0
10
78.3778991699219
20
80.6043014526367
40
0.0
41
0.0
42
0.0
10
78.4328994750977
20
80.7421035766602
40
0.0
41
0.0
42
0.0
10
78.5010986328125
20
80.8600006103516
40
0.0
41
0.0
42
0.0
10
78.5584030151367
20
80.9908981323242
40
0.0
41
0.0
42
0.0
10
78.6512985229492
20
81.1060028076172
40
0.0
41
0.0
42
0.0
10
78.8202972412109
20
81.4897003173828
40
0.0
41
0.0
42
0.0
10
78.9296035766602
20
81.671501159668
40
0.0
41
0.0
42
0.0
10
79.0093994140625
20
81.7259979248047
40
0.0
41
0.0
42
0.0
10
79.1631011962891
20
81.7996978759766
40
0.0
41
0.0
42
0.0
10
79.1933975219727
20
81.8275985717773
40
0.0
41
0.0
42
0.0
10
79.3238983154297
20
81.994499206543
40
0.0
41
0.0
42
0.0
10
79.5080032348633
20
82.152702331543
40
0.0
41
0.0
42
0.0
10
79.8039016723633
20
82.3099975585938
40
0.0
41
0.0
42
0.0
10
79.8827972412109
20
82.3444976806641
40
0.0
41
0.0
42
0.0
10
79.9104995727539
20
82.3536987304688
40
0.0
41
0.0
42
0.0
10
80.0156021118164
20
82.3802032470703
40
0.0
41
0.0
42
0.0
10
80.4626998901367
20
82.4558029174805
40
0.0
41
0.0
42
0.0
10
80.5093994140625
20
82.4589996337891
40
0.0
41
0.0
42
0.0
10
80.9131011962891
20
82.4493026733398
40
0.0
41
0.0
42
0.0
10
80.9862976074219
20
82.4380035400391
40
0.0
41
0.0
42
0.0
10
81.1091995239258
20
82.3779983520508
40
0.0
41
0.0
42
0.0
10
81.4913024902344
20
82.2453002929688
40
0.0
41
0.0
42
0.0
10
81.7474975585938
20
81.9922027587891
40
0.0
41
0.0
42
0.0
10
81.7611999511719
20
81.9619979858398
40
0.0
41
0.0
42
0.0
10
81.9992980957031
20
81.5307998657227
40
0.0
41
0.0
42
0.0
10
82.0133972167969
20
81.4849014282227
40
0.0
41
0.0
42
0.0
10
82.0628967285156
20
81.206901550293
40
0.0
41
0.0
42
0.0
10
82.0716018676758
20
81.006103515625
40
0.0
41
0.0
42
0.0
10
82.0404968261719
20
80.6420974731445
40
0.0
41
0.0
42
0.0
10
82.0184020996094
20
80.5145034790039
40
0.0
41
0.0
42
0.0
10
81.9698028564453
20
80.3828964233398
40
0.0
41
0.0
42
0.0
10
81.8627014160156
20
80.168701171875
40
0.0
41
0.0
42
0.0
10
81.8413009643555
20
80.0151977539062
40
0.0
41
0.0
42
0.0
10
81.8018035888672
20
79.8933029174805
40
0.0
41
0.0
42
0.0
10
81.5365982055664
20
79.5842971801758
40
0.0
41
0.0
42
0.0
10
81.4957962036133
20
79.5214996337891
40
0.0
41
0.0
42
0.0
10
81.4759979248047
20
79.5050964355469
40
0.0
41
0.0
42
0.0
10
81.3792037963867
20
79.3896026611328
40
0.0
41
0.0
42
0.0
10
81.1651000976562
20
79.2296981811523
40
0.0
41
0.0
42
0.0
10
80.9905014038086
20
79.1191024780273
40
0.0
41
0.0
42
0.0
10
80.7664031982422
20
79.0018997192383
40
0.0
41
0.0
42
0.0
10
80.5950012207031
20
78.8871994018555
40
0.0
41
0.0
42
0.0
10
80.4943008422852
20
78.8272018432617
40
0.0
41
0.0
42
0.0
10
80.1645965576172
20
78.6548004150391
40
0.0
41
0.0
42
0.0
10
79.991096496582
20
78.5529022216797
40
0.0
41
0.0
42
0.0
10
79.8832015991211
20
78.481201171875
40
0.0
41
0.0
42
0.0
10
79.4922027587891
20
78.2350006103516
40
0.0
41
0.0
42
0.0
10
79.2073974609375
20
78.0028991699219
40
0.0
41
0.0
42
0.0
10
79.0232009887695
20
77.8863983154297
40
0.0
41
0.0
42
0.0
10
78.9952011108398
20
77.8739013671875
40
0.0
41
0.0
42
0.0
10
78.6202011108398
20
77.559196472168
40
0.0
41
0.0
42
0.0
10
78.5314025878906
20
77.5016021728516
40
0.0
41
0.0
42
0.0
10
78.4908981323242
20
77.4815979003906
40
0.0
41
0.0
42
0.0
10
78.1053009033203
20
77.201301574707
40
0.0
41
0.0
42
0.0
10
77.9839019775391
20
77.1509017944336
40
0.0
41
0.0
42
0.0
10
77.7863998413086
20
77.0024032592773
40
0.0
41
0.0
42
0.0
10
77.5975036621094
20
76.8945999145508
40
0.0
41
0.0
42
0.0
10
77.4873962402344
20
76.8514022827148
40
0.0
41
0.0
42
0.0
10
77.3730010986328
20
76.8089981079102
40
0.0
41
0.0
42
0.0
10
77.3341979980469
20
76.7910995483398
40
0.0
41
0.0
42
0.0
10
76.9890975952148
20
76.6134033203125
40
0.0
41
0.0
42
0.0
10
76.8990020751953
20
76.573600769043
40
0.0
41
0.0
42
0.0
10
76.7819976806641
20
76.5010986328125
40
0.0
41
0.0
42
0.0
10
76.5513000488281
20
76.4065017700195
40
0.0
41
0.0
42
0.0
10
76.5037002563477
20
76.3923034667969
40
0.0
41
0.0
42
0.0
10
76.3469009399414
20
76.4838027954102
40
0.0
41
0.0
42
0.0
10
76.3171997070312
20
76.5070037841797
40
0.0
41
0.0
42
0.0
210
0.0
220
0.0
230
1.0
0
LWPOLYLINE
5
30
330
1C
100
AcDbEntity
67
0
8
0
62
256
6
ByLayer
370
-1
48
1.0
60
0
100
AcDbPolyline
90
93
70
1
38
0.0
39
0.0
10
76.3952026367188
20
73.4392013549805
40
0.0
41
0.0
42
0.0
10
76.4987030029297
20
73.1869964599609
40
0.0
41
0.0
42
0.0
10
76.5791015625
20
73.0569000244141
40
0.0
41
0.0
42
0.0
10
76.6098022460938
20
72.9879989624023
40
0.0
41
0.0
42
0.0
10
76.7942962646484
20
72.6296997070312
40
0.0
41
0.0
42
0.0
10
76.8466033935547
20
72.4873962402344
40
0.0
41
0.0
42
0.0
10
76.9036026000977
20
72.3427963256836
40
0.0
41
0.0
42
0.0
10
76.9974975585938
20
72.1781997680664
40
0.0
41
0.0
42
0.0
10
77.1320037841797
20
71.9990997314453
40
0.0
41
0.0
42
0.0
10
77.2002029418945
20
71.8352966308594
40
0.0
41
0.0
42
0.0
10
77.4505996704102
20
71.4907989501953
40
0.0
41
0.0
42
0.0
10
77.4981994628906
20
71.394401550293
40
0.0
41
0.0
42
0.0
10
77.5463027954102
20
71.320198059082
40
0.0
41
0.0
42
0.0
10
77.8218002319336
20
70.9922027587891
40
0.0
41
0.0
42
0.0
10
77.9971008300781
20
70.7041015625
40
0.0
41
0.0
42
0.0
10
78.1697998046875
20
70.4921035766602
40
0.0
41
0.0
42
0.0
10
78.4845962524414
20
69.9907989501953
40
0.0
41
0.0
42
0.0
10
78.6230010986328
20
69.754997253418
40
0.0
41
0.0
42
0.0
10
78.7630004882812
20
69.4870986938477
40
0.0
41
0.0
42
0.0
10
78.9981002807617
20
69.1210021972656
40
0.0
41
0.0
42
0.0
10
79.0663986206055
20
68.9904022216797
40
0.0
41
0.0
42
0.0
10
79.1288986206055
20
68.8917007446289
40
0.0
41
0.0
42
0.0
10
79.3715972900391
20
68.6176986694336
40
0.0
41
0.0
42
0.0
10
79.4681015014648
20
68.5015029907227
40
0.0
41
0.0
42
0.0
10
79.4906997680664
20
68.4890975952148
40
0.0
41
0.0
42
0.0
10
79.5614013671875
20
68.4429016113281
40
0.0
41
0.0
42
0.0
10
79.8354034423828
20
68.2078018188477
40
0.0
41
0.0
42
0.0
10
79.9847030639648
20
68.1587982177734
40
0.0
41
0.0
42
0.0
10
80.1011962890625
20
68.1426010131836
40
0.0
41
0.0
42
0.0
10
80.344596862793
20
68.0208969116211
40
0.0
41
0.0
42
0.0
10
80.4046020507812
20
67.9996032714844
40
0.0
41
0.0
42
0.0
10
80.4856033325195
20
67.967903137207
40
0.0
41
0.0
42
0.0
10
80.7042007446289
20
67.9300003051758
40
0.0
41
0.0
42
0.0
10
80.9807968139648
20
67.9066009521484
40
0.0
41
0.0
42
0.0
10
81.0195007324219
20
67.9065017700195
40
0.0
41
0.0
42
0.0
10
81.3134994506836
20
67.9190979003906
40
0.0
41
0.0
42
0.0
10
81.5149993896484
20
67.9549026489258
40
0.0
41
0.0
42
0.0
10
81.6605987548828
20
67.9998016357422
40
0.0
41
0.0
42
0.0
10
81.8544998168945
20
68.0689010620117
40
0.0
41
0.0
42
0.0
10
81.9106979370117
20
68.1129989624023
40
0.0
41
0.0
42
0.0
10
81.9496002197266
20
68.1306991577148
40
0.0
41
0.0
42
0.0
10
82.3081970214844
20
68.4932022094727
40
0.0
41
0.0
42
0.0
10
82.3634033203125
20
68.5790023803711
40
0.0
41
0.0
42
0.0
10
82.3958969116211
20
68.6580963134766
40
0.0
41
0.0
42
0.0
10
82.4823989868164
20
68.9842987060547
40
0.0
41
0.0
42
0.0
10
82.4850006103516
20
69.0003967285156
40
0.0
41
0.0
42
0.0
10
82.4963989257812
20
69.4802017211914
40
0.0
41
0.0
42
0.0
10
82.4962005615234
20
69.5213012695312
40
0.0
41
0.0
42
0.0
10
82.4126968383789
20
70.0156021118164
40
0.0
41
0.0
42
0.0
10
82.3945999145508
20
70.0876007080078
40
0.0
41
0.0
42
0.0
10
82.3711013793945
20
70.1414031982422
40
0.0
41
0.0
42
0.0
10
82.3603973388672
20
70.1723022460938
40
0.0
41
0.0
42
0.0
10
82.1820983886719
20
70.5080032348633
40
0.0
41
0.0
42
0.0
10
82.0053024291992
20
70.7136001586914
40
0.0
41
0.0
42
0.0
10
81.8126983642578
20
70.8641967773438
40
0.0
41
0.0
42
0.0
10
81.7863998413086
20
70.8929977416992
40
0.0
41
0.0
42
0.0
10
81.7304992675781
20
71.0093002319336
40
0.0
41
0.0
42
0.0
10
81.6652984619141
20
71.1033020019531
40
0.0
41
0.0
42
0.0
10
81.5102005004883
20
71.196403503418
40
0.0
41
0.0
42
0.0
10
81.1639022827148
20
71.3489990234375
40
0.0
41
0.0
42
0.0
10
81.008903503418
20
71.4741973876953
40
0.0
41
0.0
42
0.0
10
80.9475021362305
20
71.5010986328125
40
0.0
41
0.0
42
0.0
10
80.7892990112305
20
71.5924987792969
40
0.0
41
0.0
42
0.0
10
80.6656036376953
20
71.6419982910156
40
0.0
41
0.0
42
0.0
10
80.559700012207
20
71.7052993774414
40
0.0
41
0.0
42
0.0
10
80.5112991333008
20
71.7254028320312
40
0.0
41
0.0
42
0.0
10
80.0095977783203
20
71.9686965942383
40
0.0
41
0.0
42
0.0
10
79.9579010009766
20
72.0025024414062
40
0.0
41
0.0
42
0.0
10
79.8078994750977
20
72.1060028076172
40
0.0
41
0.0
42
0.0
10
79.665397644043
20
72.1912994384766
40
0.0
41
0.0
42
0.0
10
79.5436019897461
20
72.2417984008789
40
0.0
41
0.0
42
0.0
10
79.5100021362305
20
72.2537994384766
40
0.0
41
0.0
42
0.0
10
79.165397644043
20
72.5036010742188
40
0.0
41
0.0
42
0.0
10
79.1528015136719
20
72.5151977539062
40
0.0
41
0.0
42
0.0
10
79.0096969604492
20
72.5767974853516
40
0.0
41
0.0
42
0.0
10
78.6651992797852
20
72.8128967285156
40
0.0
41
0.0
42
0.0
10
78.5099029541016
20
72.8695983886719
40
0.0
41
0.0
42
0.0
10
78.3519973754883
20
72.9841995239258
40
0.0
41
0.0
42
0.0
10
78.315299987793
20
73.0003967285156
40
0.0
41
0.0
42
0.0
10
78.2041015625
20
73.0423965454102
40
0.0
41
0.0
42
0.0
10
78.0114974975586
20
73.1513977050781
40
0.0
41
0.0
42
0.0
10
77.8973007202148
20
73.1875
40
0.0
41
0.0
42
0.0
10
77.5183029174805
20
73.3667984008789
40
0.0
41
0.0
42
0.0
10
77.3636016845703
20
73.4548034667969
40
0.0
41
0.0
42
0.0
10
77.2587966918945
20
73.5005035400391
40
0.0
41
0.0
42
0.0
10
77.0147018432617
20
73.5953979492188
40
0.0
41
0.0
42
0.0
10
76.9012985229492
20
73.6104965209961
40
0.0
41
0.0
42
0.0
10
76.5176010131836
20
73.6962966918945
40
0.0
41
0.0
42
0.0
10
76.4901962280273
20
73.6961975097656
40
0.0
41
0.0
42
0.0
10
76.4832000732422
20
73.6873016357422
40
0.0
41
0.0
42
0.0
10
76.3823013305664
20
73.5142974853516
40
0.0
41
0.0
42
0.0
10
76.3822021484375
20
73.4830017089844
40
0.0
41
0.0
42
0.0
10
76.3952026367188
20
73.4392013549805
40
0.0
41
0.0
42
0.0
210
0.0
220
0.0
230
1.0
0
LWPOLYLINE
5
31
330
1C
100
AcDbEntity
67
0
8
0
62
256
6
ByLayer
370
-1
48
1.0
60
0
100
AcDbPolyline
90
88
70
1
38
0.0
39
0.0
10
76.4832992553711
20
73.6522979736328
40
0.0
41
0.0
42
0.0
10
76.5056991577148
20
73.6807022094727
40
0.0
41
0.0
42
0.0
10
76.8285980224609
20
73.6085968017578
40
0.0
41
0.0
42
0.0
10
76.9851989746094
20
73.5876007080078
40
0.0
41
0.0
42
0.0
10
77.2130966186523
20
73.4992980957031
40
0.0
41
0.0
42
0.0
10
77.3578033447266
20
73.4363021850586
40
0.0
41
0.0
42
0.0
10
77.4896011352539
20
73.3606033325195
40
0.0
41
0.0
42
0.0
10
77.8326034545898
20
73.1983032226562
40
0.0
41
0.0
42
0.0
10
77.9882965087891
20
73.1492004394531
40
0.0
41
0.0
42
0.0
10
78.1981964111328
20
73.0314025878906
40
0.0
41
0.0
42
0.0
10
78.283203125
20
72.9992980957031
40
0.0
41
0.0
42
0.0
10
78.3149032592773
20
72.9851989746094
40
0.0
41
0.0
42
0.0
10
78.4898986816406
20
72.8583984375
40
0.0
41
0.0
42
0.0
10
78.6045989990234
20
72.8164978027344
40
0.0
41
0.0
42
0.0
10
78.9900970458984
20
72.5522994995117
40
0.0
41
0.0
42
0.0
10
79.0947036743164
20
72.5072021484375
40
0.0
41
0.0
42
0.0
10
79.1066970825195
20
72.4962005615234
40
0.0
41
0.0
42
0.0
10
79.4900970458984
20
72.2182006835938
40
0.0
41
0.0
42
0.0
10
79.6043014526367
20
72.1723022460938
40
0.0
41
0.0
42
0.0
10
79.7674026489258
20
72.0745010375977
40
0.0
41
0.0
42
0.0
10
79.8792037963867
20
71.9972991943359
40
0.0
41
0.0
42
0.0
10
79.9901962280273
20
71.9246978759766
40
0.0
41
0.0
42
0.0
10
80.1820983886719
20
71.8331985473633
40
0.0
41
0.0
42
0.0
10
80.4886016845703
20
71.684196472168
40
0.0
41
0.0
42
0.0
10
80.5259017944336
20
71.668701171875
40
0.0
41
0.0
42
0.0
10
80.6043014526367
20
71.6218032836914
40
0.0
41
0.0
42
0.0
10
80.7419967651367
20
71.5668029785156
40
0.0
41
0.0
42
0.0
10
80.8599014282227
20
71.4987030029297
40
0.0
41
0.0
42
0.0
10
80.9908981323242
20
71.4412994384766
40
0.0
41
0.0
42
0.0
10
81.1060028076172
20
71.3483963012695
40
0.0
41
0.0
42
0.0
10
81.4896011352539
20
71.1793975830078
40
0.0
41
0.0
42
0.0
10
81.671501159668
20
71.0700988769531
40
0.0
41
0.0
42
0.0
10
81.7258987426758
20
70.9904022216797
40
0.0
41
0.0
42
0.0
10
81.7995986938477
20
70.836799621582
40
0.0
41
0.0
42
0.0
10
81.8274993896484
20
70.806396484375
40
0.0
41
0.0
42
0.0
10
81.994499206543
20
70.6759033203125
40
0.0
41
0.0
42
0.0
10
82.1526031494141
20
70.4917984008789
40
0.0
41
0.0
42
0.0
10
82.310302734375
20
70.1950988769531
40
0.0
41
0.0
42
0.0
10
82.3200988769531
20
70.1669006347656
40
0.0
41
0.0
42
0.0
10
82.353401184082
20
70.0903015136719
40
0.0
41
0.0
42
0.0
10
82.3802032470703
20
69.9842987060547
40
0.0
41
0.0
42
0.0
10
82.4558029174805
20
69.5371017456055
40
0.0
41
0.0
42
0.0
10
82.4589996337891
20
69.4905014038086
40
0.0
41
0.0
42
0.0
10
82.4493026733398
20
69.0867004394531
40
0.0
41
0.0
42
0.0
10
82.4382019042969
20
69.0157012939453
40
0.0
41
0.0
42
0.0
10
82.3595962524414
20
68.7189025878906
40
0.0
41
0.0
42
0.0
10
82.3231964111328
20
68.6305999755859
40
0.0
41
0.0
42
0.0
10
82.2434997558594
20
68.5066986083984
40
0.0
41
0.0
42
0.0
10
81.9138031005859
20
68.173698425293
40
0.0
41
0.0
42
0.0
10
81.8766021728516
20
68.1568984985352
40
0.0
41
0.0
42
0.0
10
81.799201965332
20
68.0960998535156
40
0.0
41
0.0
42
0.0
10
81.5291976928711
20
68.0
40
0.0
41
0.0
42
0.0
10
81.4849014282227
20
67.9862976074219
40
0.0
41
0.0
42
0.0
10
81.206901550293
20
67.936897277832
40
0.0
41
0.0
42
0.0
10
81.006103515625
20
67.9281997680664
40
0.0
41
0.0
42
0.0
10
80.6420974731445
20
67.9591979980469
40
0.0
41
0.0
42
0.0
10
80.5143966674805
20
67.9813003540039
40
0.0
41
0.0
42
0.0
10
80.3828964233398
20
68.029899597168
40
0.0
41
0.0
42
0.0
10
80.1686019897461
20
68.1370010375977
40
0.0
41
0.0
42
0.0
10
80.0151977539062
20
68.1584014892578
40
0.0
41
0.0
42
0.0
10
79.8932037353516
20
68.1978988647461
40
0.0
41
0.0
42
0.0
10
79.5841979980469
20
68.4632034301758
40
0.0
41
0.0
42
0.0
10
79.5216979980469
20
68.5037994384766
40
0.0
41
0.0
42
0.0
10
79.2301025390625
20
68.8339996337891
40
0.0
41
0.0
42
0.0
10
79.1190032958984
20
69.0093994140625
40
0.0
41
0.0
42
0.0
10
79.0017013549805
20
69.2335968017578
40
0.0
41
0.0
42
0.0
10
78.8273010253906
20
69.5052032470703
40
0.0
41
0.0
42
0.0
10
78.6548004150391
20
69.8352966308594
40
0.0
41
0.0
42
0.0
10
78.5529022216797
20
70.0087966918945
40
0.0
41
0.0
42
0.0
10
78.481201171875
20
70.1165008544922
40
0.0
41
0.0
42
0.0
10
78.2349014282227
20
70.507698059082
40
0.0
41
0.0
42
0.0
10
78.0027008056641
20
70.7925033569336
40
0.0
41
0.0
42
0.0
10
77.8715972900391
20
71.0075988769531
40
0.0
41
0.0
42
0.0
10
77.5590972900391
20
71.3796005249023
40
0.0
41
0.0
42
0.0
10
77.5016021728516
20
71.4683990478516
40
0.0
41
0.0
42
0.0
10
77.4815979003906
20
71.5090026855469
40
0.0
41
0.0
42
0.0
10
77.201301574707
20
71.8945999145508
40
0.0
41
0.0
42
0.0
10
77.1508026123047
20
72.0158996582031
40
0.0
41
0.0
42
0.0
10
77.0022964477539
20
72.2134017944336
40
0.0
41
0.0
42
0.0
10
76.8945007324219
20
72.4023971557617
40
0.0
41
0.0
42
0.0
10
76.8043975830078
20
72.6367034912109
40
0.0
41
0.0
42
0.0
10
76.7910003662109
20
72.6657028198242
40
0.0
41
0.0
42
0.0
10
76.6135025024414
20
73.0109024047852
40
0.0
41
0.0
42
0.0
10
76.573600769043
20
73.1007995605469
40
0.0
41
0.0
42
0.0
10
76.5010986328125
20
73.2176971435547
40
0.0
41
0.0
42
0.0
10
76.4064025878906
20
73.4485015869141
40
0.0
41
0.0
42
0.0
10
76.3923034667969
20
73.4962005615234
40
0.0
41
0.0
42
0.0
10
76.4832992553711
20
73.6522979736328
40
0.0
41
0.0
42
0.0
210
0.0
220
0.0
230
1.0
0
LWPOLYLINE
5
32
330
1C
100
AcDbEntity
67
0
8
0
62
256
6
ByLayer
370
-1
48
1.0
60
0
100
AcDbPolyline
90
86
70
1
38
0.0
39
0.0
10
76.9851989746094
20
74.9142990112305
40
0.0
41
0.0
42
0.0
10
77.3714981079102
20
74.8003997802734
40
0.0
41
0.0
42
0.0
10
77.4914016723633
20
74.7565002441406
40
0.0
41
0.0
42
0.0
10
77.8515014648438
20
74.6376037597656
40
0.0
41
0.0
42
0.0
10
77.9876022338867
20
74.5680999755859
40
0.0
41
0.0
42
0.0
10
78.1943969726562
20
74.510498046875
40
0.0
41
0.0
42
0.0
10
78.3495025634766
20
74.4375991821289
40
0.0
41
0.0
42
0.0
10
78.4845962524414
20
74.3973007202148
40
0.0
41
0.0
42
0.0
10
78.8303985595703
20
74.3426971435547
40
0.0
41
0.0
42
0.0
10
78.9845962524414
20
74.2839965820312
40
0.0
41
0.0
42
0.0
10
79.3292999267578
20
74.2550964355469
40
0.0
41
0.0
42
0.0
10
79.4856033325195
20
74.200798034668
40
0.0
41
0.0
42
0.0
10
79.7610015869141
20
74.1425018310547
40
0.0
41
0.0
42
0.0
10
79.9824981689453
20
74.1285018920898
40
0.0
41
0.0
42
0.0
10
80.394401550293
20
74.0516967773438
40
0.0
41
0.0
42
0.0
10
80.4832000732422
20
74.0429992675781
40
0.0
41
0.0
42
0.0
10
80.6835021972656
20
74.0003967285156
40
0.0
41
0.0
42
0.0
10
80.9852981567383
20
73.9269027709961
40
0.0
41
0.0
42
0.0
10
81.3160018920898
20
73.8310012817383
40
0.0
41
0.0
42
0.0
10
81.4841995239258
20
73.793098449707
40
0.0
41
0.0
42
0.0
10
81.7419967651367
20
73.7434997558594
40
0.0
41
0.0
42
0.0
10
81.9841003417969
20
73.6620025634766
40
0.0
41
0.0
42
0.0
10
82.2771987915039
20
73.6399002075195
40
0.0
41
0.0
42
0.0
10
82.4828033447266
20
73.5827026367188
40
0.0
41
0.0
42
0.0
10
82.5162963867188
20
73.5826034545898
40
0.0
41
0.0
42
0.0
10
82.6632995605469
20
73.6346969604492
40
0.0
41
0.0
42
0.0
10
82.9810028076172
20
73.6016998291016
40
0.0
41
0.0
42
0.0
10
83.0183029174805
20
73.6016006469727
40
0.0
41
0.0
42
0.0
10
83.3589019775391
20
73.6551971435547
40
0.0
41
0.0
42
0.0
10
83.3954010009766
20
73.671501159668
40
0.0
41
0.0
42
0.0
10
83.5102996826172
20
73.7385025024414
40
0.0
41
0.0
42
0.0
10
83.8938980102539
20
73.9113006591797
40
0.0
41
0.0
42
0.0
10
83.9518966674805
20
73.9573974609375
40
0.0
41
0.0
42
0.0
10
83.9963989257812
20
73.9951019287109
40
0.0
41
0.0
42
0.0
10
84.0050964355469
20
74.0046005249023
40
0.0
41
0.0
42
0.0
10
84.0606002807617
20
74.0550994873047
40
0.0
41
0.0
42
0.0
10
84.1035995483398
20
74.1094970703125
40
0.0
41
0.0
42
0.0
10
84.4326019287109
20
74.4013977050781
40
0.0
41
0.0
42
0.0
10
84.5059967041016
20
74.4915008544922
40
0.0
41
0.0
42
0.0
10
84.7578964233398
20
74.9859008789062
40
0.0
41
0.0
42
0.0
10
84.7870025634766
20
75.3200988769531
40
0.0
41
0.0
42
0.0
10
84.7869033813477
20
75.3588027954102
40
0.0
41
0.0
42
0.0
10
84.7809982299805
20
75.5157012939453
40
0.0
41
0.0
42
0.0
10
84.6579971313477
20
75.8432998657227
40
0.0
41
0.0
42
0.0
10
84.5699005126953
20
76.0080032348633
40
0.0
41
0.0
42
0.0
10
84.5045013427734
20
76.0842971801758
40
0.0
41
0.0
42
0.0
10
84.0838012695312
20
76.5037002563477
40
0.0
41
0.0
42
0.0
10
84.0074005126953
20
76.5559997558594
40
0.0
41
0.0
42
0.0
10
83.8938980102539
20
76.6474990844727
40
0.0
41
0.0
42
0.0
10
83.5105972290039
20
76.8168029785156
40
0.0
41
0.0
42
0.0
10
83.3982009887695
20
76.8778991699219
40
0.0
41
0.0
42
0.0
10
83.0150985717773
20
76.935302734375
40
0.0
41
0.0
42
0.0
10
82.9016036987305
20
76.9721984863281
40
0.0
41
0.0
42
0.0
10
82.8656997680664
20
76.9720993041992
40
0.0
41
0.0
42
0.0
10
82.8270034790039
20
76.9693984985352
40
0.0
41
0.0
42
0.0
10
82.4845962524414
20
76.9260025024414
40
0.0
41
0.0
42
0.0
10
82.1473999023438
20
76.8152008056641
40
0.0
41
0.0
42
0.0
10
82.018798828125
20
76.8296966552734
40
0.0
41
0.0
42
0.0
10
81.9806976318359
20
76.8295974731445
40
0.0
41
0.0
42
0.0
10
81.8299026489258
20
76.8189010620117
40
0.0
41
0.0
42
0.0
10
81.4862976074219
20
76.6741027832031
40
0.0
41
0.0
42
0.0
10
81.3313980102539
20
76.6416015625
40
0.0
41
0.0
42
0.0
10
81.0123977661133
20
76.5025024414062
40
0.0
41
0.0
42
0.0
10
80.9869995117188
20
76.4926986694336
40
0.0
41
0.0
42
0.0
10
80.7555999755859
20
76.4177017211914
40
0.0
41
0.0
42
0.0
10
80.4860992431641
20
76.3434982299805
40
0.0
41
0.0
42
0.0
10
80.3302001953125
20
76.2917022705078
40
0.0
41
0.0
42
0.0
10
79.9853973388672
20
76.2283020019531
40
0.0
41
0.0
42
0.0
10
79.8301010131836
20
76.1728973388672
40
0.0
41
0.0
42
0.0
10
79.4859008789062
20
76.1207962036133
40
0.0
41
0.0
42
0.0
10
79.3315963745117
20
76.0515975952148
40
0.0
41
0.0
42
0.0
10
79.1662979125977
20
76.0148010253906
40
0.0
41
0.0
42
0.0
10
78.9866027832031
20
75.981201171875
40
0.0
41
0.0
42
0.0
10
78.9543991088867
20
75.9654998779297
40
0.0
41
0.0
42
0.0
10
78.8314971923828
20
75.9136962890625
40
0.0
41
0.0
42
0.0
10
78.486701965332
20
75.8337020874023
40
0.0
41
0.0
42
0.0
10
78.3706970214844
20
75.7822036743164
40
0.0
41
0.0
42
0.0
10
77.9878997802734
20
75.6720962524414
40
0.0
41
0.0
42
0.0
10
77.9403991699219
20
75.6466979980469
40
0.0
41
0.0
42
0.0
10
77.5569000244141
20
75.5012969970703
40
0.0
41
0.0
42
0.0
10
77.4909973144531
20
75.4536972045898
40
0.0
41
0.0
42
0.0
10
77.3757019042969
20
75.3942031860352
40
0.0
41
0.0
42
0.0
10
76.989501953125
20
75.1345977783203
40
0.0
41
0.0
42
0.0
10
76.6193008422852
20
75.0050964355469
40
0.0
41
0.0
42
0.0
10
76.6192016601562
20
74.9960021972656
40
0.0
41
0.0
42
0.0
10
76.9851989746094
20
74.9142990112305
40
0.0
41
0.0
42
0.0
210
0.0
220
0.0
230
1.0
0
LWPOLYLINE
5
33
330
1C
100
AcDbEntity
67
0
8
0
62
256
6
ByLayer
370
-1
48
1.0
60
0
100
AcDbPolyline
90
84
70
1
38
0.0
39
0.0
10
77.010498046875
20
75.1220016479492
40
0.0
41
0.0
42
0.0
10
77.3543014526367
20
75.3529968261719
40
0.0
41
0.0
42
0.0
10
77.508903503418
20
75.4328994750977
40
0.0
41
0.0
42
0.0
10
77.5999984741211
20
75.4985961914062
40
0.0
41
0.0
42
0.0
10
77.9460983276367
20
75.6296997070312
40
0.0
41
0.0
42
0.0
10
78.0120010375977
20
75.6651000976562
40
0.0
41
0.0
42
0.0
10
78.3578033447266
20
75.7645034790039
40
0.0
41
0.0
42
0.0
10
78.513298034668
20
75.8335037231445
40
0.0
41
0.0
42
0.0
10
78.8984985351562
20
75.9227981567383
40
0.0
41
0.0
42
0.0
10
78.9859008789062
20
75.9597015380859
40
0.0
41
0.0
42
0.0
10
79.0133972167969
20
75.9729995727539
40
0.0
41
0.0
42
0.0
10
79.1656036376953
20
76.000602722168
40
0.0
41
0.0
42
0.0
10
79.2798004150391
20
76.0230026245117
40
0.0
41
0.0
42
0.0
10
79.3983001708984
20
76.049201965332
40
0.0
41
0.0
42
0.0
10
79.5139999389648
20
76.1010971069336
40
0.0
41
0.0
42
0.0
10
79.8998031616211
20
76.1595993041992
40
0.0
41
0.0
42
0.0
10
80.0145034790039
20
76.2005004882812
40
0.0
41
0.0
42
0.0
10
80.3996963500977
20
76.2714004516602
40
0.0
41
0.0
42
0.0
10
80.5139007568359
20
76.3093032836914
40
0.0
41
0.0
42
0.0
10
80.8430023193359
20
76.3998031616211
40
0.0
41
0.0
42
0.0
10
81.0130004882812
20
76.4549026489258
40
0.0
41
0.0
42
0.0
10
81.129997253418
20
76.499397277832
40
0.0
41
0.0
42
0.0
10
81.3985977172852
20
76.6162033081055
40
0.0
41
0.0
42
0.0
10
81.5137023925781
20
76.6404037475586
40
0.0
41
0.0
42
0.0
10
81.9000015258789
20
76.8031997680664
40
0.0
41
0.0
42
0.0
10
81.9960021972656
20
76.8099975585938
40
0.0
41
0.0
42
0.0
10
82.0960998535156
20
76.7987976074219
40
0.0
41
0.0
42
0.0
10
82.1315994262695
20
76.798698425293
40
0.0
41
0.0
42
0.0
10
82.5152969360352
20
76.9248962402344
40
0.0
41
0.0
42
0.0
10
82.8433990478516
20
76.9664001464844
40
0.0
41
0.0
42
0.0
10
82.9848022460938
20
76.9206008911133
40
0.0
41
0.0
42
0.0
10
83.3317031860352
20
76.8685989379883
40
0.0
41
0.0
42
0.0
10
83.4891967773438
20
76.783203125
40
0.0
41
0.0
42
0.0
10
83.8358993530273
20
76.629997253418
40
0.0
41
0.0
42
0.0
10
84.0040969848633
20
76.4955978393555
40
0.0
41
0.0
42
0.0
10
84.505500793457
20
75.9925994873047
40
0.0
41
0.0
42
0.0
10
84.6286010742188
20
75.7622985839844
40
0.0
41
0.0
42
0.0
10
84.7331008911133
20
75.4841003417969
40
0.0
41
0.0
42
0.0
10
84.7405014038086
20
75.2906036376953
40
0.0
41
0.0
42
0.0
10
84.7164001464844
20
75.0140991210938
40
0.0
41
0.0
42
0.0
10
84.4989013671875
20
74.5864028930664
40
0.0
41
0.0
42
0.0
10
84.4868011474609
20
74.5586013793945
40
0.0
41
0.0
42
0.0
10
84.4688034057617
20
74.5093994140625
40
0.0
41
0.0
42
0.0
10
84.3979034423828
20
74.4218978881836
40
0.0
41
0.0
42
0.0
10
84.1033020019531
20
74.1604995727539
40
0.0
41
0.0
42
0.0
10
84.0457000732422
20
74.0876007080078
40
0.0
41
0.0
42
0.0
10
83.9949035644531
20
74.0413970947266
40
0.0
41
0.0
42
0.0
10
83.9618988037109
20
74.0047988891602
40
0.0
41
0.0
42
0.0
10
83.9196014404297
20
73.9689025878906
40
0.0
41
0.0
42
0.0
10
83.8359985351562
20
73.9023971557617
40
0.0
41
0.0
42
0.0
10
83.4896011352539
20
73.7464981079102
40
0.0
41
0.0
42
0.0
10
83.3594970703125
20
73.6707992553711
40
0.0
41
0.0
42
0.0
10
82.9964981079102
20
73.6136016845703
40
0.0
41
0.0
42
0.0
10
82.6343994140625
20
73.651496887207
40
0.0
41
0.0
42
0.0
10
82.598503112793
20
73.651496887207
40
0.0
41
0.0
42
0.0
10
82.4982986450195
20
73.6157989501953
40
0.0
41
0.0
42
0.0
10
82.2341003417969
20
73.6894989013672
40
0.0
41
0.0
42
0.0
10
82.0157012939453
20
73.7061004638672
40
0.0
41
0.0
42
0.0
10
81.720703125
20
73.8062973022461
40
0.0
41
0.0
42
0.0
10
81.703498840332
20
73.8109970092773
40
0.0
41
0.0
42
0.0
10
81.5156021118164
20
73.8471984863281
40
0.0
41
0.0
42
0.0
10
81.3906021118164
20
73.8755035400391
40
0.0
41
0.0
42
0.0
10
81.0145034790039
20
73.9844970703125
40
0.0
41
0.0
42
0.0
10
80.9531021118164
20
73.999397277832
40
0.0
41
0.0
42
0.0
10
80.5167007446289
20
74.0923004150391
40
0.0
41
0.0
42
0.0
10
80.3223037719727
20
74.111198425293
40
0.0
41
0.0
42
0.0
10
80.0173034667969
20
74.168098449707
40
0.0
41
0.0
42
0.0
10
79.723503112793
20
74.1865997314453
40
0.0
41
0.0
42
0.0
10
79.5142974853516
20
74.2309036254883
40
0.0
41
0.0
42
0.0
10
79.4004974365234
20
74.2705001831055
40
0.0
41
0.0
42
0.0
10
79.0151977539062
20
74.3028030395508
40
0.0
41
0.0
42
0.0
10
78.8994979858398
20
74.3468017578125
40
0.0
41
0.0
42
0.0
10
78.5152969360352
20
74.4074020385742
40
0.0
41
0.0
42
0.0
10
78.3584976196289
20
74.4542007446289
40
0.0
41
0.0
42
0.0
10
78.2436981201172
20
74.5081024169922
40
0.0
41
0.0
42
0.0
10
78.0122985839844
20
74.5726013183594
40
0.0
41
0.0
42
0.0
10
77.8961029052734
20
74.6320037841797
40
0.0
41
0.0
42
0.0
10
77.8575973510742
20
74.6479034423828
40
0.0
41
0.0
42
0.0
10
77.5130004882812
20
74.7617034912109
40
0.0
41
0.0
42
0.0
10
77.3582992553711
20
74.8183975219727
40
0.0
41
0.0
42
0.0
10
77.0147018432617
20
74.9197998046875
40
0.0
41
0.0
42
0.0
10
76.6938018798828
20
74.9913024902344
40
0.0
41
0.0
42
0.0
10
76.6925964355469
20
75.0109024047852
40
0.0
41
0.0
42
0.0
10
77.010498046875
20
75.1220016479492
40
0.0
41
0.0
42
0.0
210
0.0
220
0.0
230
1.0
0
LWPOLYLINE
5
34
330
1C
100
AcDbEntity
67
0
8
0
62
256
6
ByLayer
370
-1
48
1.0
60
0
100
AcDbPolyline
90
40
70
1
38
0.0
39
0.0
10
82.5401992797852
20
84.9990005493164
40
0.0
41
0.0
42
0.0
10
82.5401992797852
20
84.9863967895508
40
0.0
41
0.0
42
0.0
10
82.7726974487305
20
84.6464004516602
40
0.0
41
0.0
42
0.0
10
82.8701019287109
20
84.4914016723633
40
0.0
41
0.0
42
0.0
10
82.9252014160156
20
84.4107971191406
40
0.0
41
0.0
42
0.0
10
82.9960021972656
20
84.3151016235352
40
0.0
41
0.0
42
0.0
10
83.2316970825195
20
84.067497253418
40
0.0
41
0.0
42
0.0
10
83.2920989990234
20
83.993896484375
40
0.0
41
0.0
42
0.0
10
83.3852996826172
20
83.8977966308594
40
0.0
41
0.0
42
0.0
10
83.4926986694336
20
83.8049011230469
40
0.0
41
0.0
42
0.0
10
83.8370971679688
20
83.5728988647461
40
0.0
41
0.0
42
0.0
10
83.8852005004883
20
83.5363006591797
40
0.0
41
0.0
42
0.0
10
83.9327011108398
20
83.4965972900391
40
0.0
41
0.0
42
0.0
10
83.9915008544922
20
83.4550018310547
40
0.0
41
0.0
42
0.0
10
84.0199966430664
20
83.4372024536133
40
0.0
41
0.0
42
0.0
10
84.3354034423828
20
83.263298034668
40
0.0
41
0.0
42
0.0
10
84.4901962280273
20
83.1699981689453
40
0.0
41
0.0
42
0.0
10
84.817497253418
20
82.9991989135742
40
0.0
41
0.0
42
0.0
10
84.972297668457
20
82.915397644043
40
0.0
41
0.0
42
0.0
10
84.9848022460938
20
82.9093017578125
40
0.0
41
0.0
42
0.0
10
84.9990005493164
20
82.9093017578125
40
0.0
41
0.0
42
0.0
10
84.9988021850586
20
82.9360961914062
40
0.0
41
0.0
42
0.0
10
84.8758010864258
20
83.0018997192383
40
0.0
41
0.0
42
0.0
10
84.5095977783203
20
83.193000793457
40
0.0
41
0.0
42
0.0
10
84.394401550293
20
83.2623977661133
40
0.0
41
0.0
42
0.0
10
84.0420989990234
20
83.4567031860352
40
0.0
41
0.0
42
0.0
10
84.00830078125
20
83.477897644043
40
0.0
41
0.0
42
0.0
10
83.9723968505859
20
83.5031967163086
40
0.0
41
0.0
42
0.0
10
83.9445037841797
20
83.526496887207
40
0.0
41
0.0
42
0.0
10
83.8927001953125
20
83.5660018920898
40
0.0
41
0.0
42
0.0
10
83.5071029663086
20
83.8256988525391
40
0.0
41
0.0
42
0.0
10
83.383903503418
20
83.9322967529297
40
0.0
41
0.0
42
0.0
10
83.3124008178711
20
84.0058975219727
40
0.0
41
0.0
42
0.0
10
83.2675018310547
20
84.0606994628906
40
0.0
41
0.0
42
0.0
10
83.0037994384766
20
84.3377990722656
40
0.0
41
0.0
42
0.0
10
82.9227981567383
20
84.4474029541016
40
0.0
41
0.0
42
0.0
10
82.8809967041016
20
84.5083999633789
40
0.0
41
0.0
42
0.0
10
82.8087997436523
20
84.6233978271484
40
0.0
41
0.0
42
0.0
10
82.552001953125
20
84.9990005493164
40
0.0
41
0.0
42
0.0
10
82.5401992797852
20
84.9990005493164
40
0.0
41
0.0
42
0.0
210
0.0
220
0.0
230
1.0
0
LWPOLYLINE
5
35
330
1C
100
AcDbEntity
67
0
8
0
62
256
6
ByLayer
370
-1
48
1.0
60
0
100
AcDbPolyline
90
38
70
1
38
0.0
39
0.0
10
82.9093017578125
20
65.0009994506836
40
0.0
41
0.0
42
0.0
10
82.9360961914062
20
65.0009994506836
40
0.0
41
0.0
42
0.0
10
83.0018997192383
20
65.1240005493164
40
0.0
41
0.0
42
0.0
10
83.193000793457
20
65.4901962280273
40
0.0
41
0.0
42
0.0
10
83.2624969482422
20
65.6054000854492
40
0.0
41
0.0
42
0.0
10
83.4568023681641
20
65.9577026367188
40
0.0
41
0.0
42
0.0
10
83.477897644043
20
65.9916000366211
40
0.0
41
0.0
42
0.0
10
83.503303527832
20
66.0273971557617
40
0.0
41
0.0
42
0.0
10
83.5266036987305
20
66.0553970336914
40
0.0
41
0.0
42
0.0
10
83.5660018920898
20
66.1072006225586
40
0.0
41
0.0
42
0.0
10
83.825798034668
20
66.4926986694336
40
0.0
41
0.0
42
0.0
10
83.9324035644531
20
66.6158981323242
40
0.0
41
0.0
42
0.0
10
84.0058975219727
20
66.6874008178711
40
0.0
41
0.0
42
0.0
10
84.0606994628906
20
66.7322006225586
40
0.0
41
0.0
42
0.0
10
84.3378982543945
20
66.9960021972656
40
0.0
41
0.0
42
0.0
10
84.4475021362305
20
67.0771026611328
40
0.0
41
0.0
42
0.0
10
84.8935012817383
20
67.3822021484375
40
0.0
41
0.0
42
0.0
10
84.9990005493164
20
67.4485015869141
40
0.0
41
0.0
42
0.0
10
84.9990005493164
20
67.459602355957
40
0.0
41
0.0
42
0.0
10
84.9860000610352
20
67.459602355957
40
0.0
41
0.0
42
0.0
10
84.8365020751953
20
67.3657989501953
40
0.0
41
0.0
42
0.0
10
84.4107971191406
20
67.0746002197266
40
0.0
41
0.0
42
0.0
10
84.3152008056641
20
67.0037994384766
40
0.0
41
0.0
42
0.0
10
84.0675964355469
20
66.7680969238281
40
0.0
41
0.0
42
0.0
10
83.9940032958984
20
66.7077026367188
40
0.0
41
0.0
42
0.0
10
83.8977966308594
20
66.6144027709961
40
0.0
41
0.0
42
0.0
10
83.8050003051758
20
66.5072021484375
40
0.0
41
0.0
42
0.0
10
83.5730972290039
20
66.1626968383789
40
0.0
41
0.0
42
0.0
10
83.5363998413086
20
66.114501953125
40
0.0
41
0.0
42
0.0
10
83.4965972900391
20
66.0670013427734
40
0.0
41
0.0
42
0.0
10
83.4551010131836
20
66.00830078125
40
0.0
41
0.0
42
0.0
10
83.4372024536133
20
65.9797973632812
40
0.0
41
0.0
42
0.0
10
83.263298034668
20
65.6644973754883
40
0.0
41
0.0
42
0.0
10
83.1700973510742
20
65.5096969604492
40
0.0
41
0.0
42
0.0
10
82.9992980957031
20
65.1822967529297
40
0.0
41
0.0
42
0.0
10
82.915397644043
20
65.0274963378906
40
0.0
41
0.0
42
0.0
10
82.9093017578125
20
65.0149993896484
40
0.0
41
0.0
42
0.0
10
82.9093017578125
20
65.0009994506836
40
0.0
41
0.0
42
0.0
210
0.0
220
0.0
230
1.0
0
VIEWPORT
5
3A
330
36
100
AcDbEntity
67
1
8
0
62
256
6
ByLayer
370
-1
48
1.0
60
0
100
AcDbViewport
10
0.0
20
0.0
30
0.0
40
297.0
41
210.0
68
1
69
1
12
50.0
22
100.0
13
0.0
23
0.0
14
10.0
24
10.0
15
10.0
25
10.0
16
0.0
26
0.0
36
1.0
17
0.0
27
0.0
37
0.0
42
50.0
43
0.0
44
0.0
45
250.0
50
0.0
51
0.0
72
1000
90
819232
110
0.0
120
0.0
130
0.0
111
1.0
121
0.0
131
0.0
112
0.0
122
1.0
132
0.0
0
ENDSEC
0
SECTION
2
OBJECTS
0
DICTIONARY
5
40
330
0
100
AcDbDictionary
280
1
281
1
3
ACAD_GROUP
350
12
3
ACAD_LAYOUT
350
39
3
ACAD_DGNDEFINITIONS
350
F
3
ACAD_DWFDEFINITIONS
350
10
3
ACAD_PDFDEFINITIONS
350
11
3
ACAD_MLINESTYLE
350
B
3
ACAD_IMAGE_DICT
350
E
3
ACAD_IMAGE_VARS
350
21
0
DICTIONARY
5
12
330
40
100
AcDbDictionary
280
1
281
1
0
DICTIONARY
5
39
330
40
100
AcDbDictionary
280
1
281
1
3
Model
350
20
3
Layout1
350
3B
0
DICTIONARY
5
F
330
40
100
AcDbDictionary
280
1
281
1
0
DICTIONARY
5
10
330
40
100
AcDbDictionary
280
1
281
1
0
DICTIONARY
5
11
330
40
100
AcDbDictionary
280
1
281
1
0
DICTIONARY
5
B
330
40
100
AcDbDictionary
280
1
281
1
3
Standard
350
1B
0
DICTIONARY
5
E
330
40
100
AcDbDictionary
280
1
281
1
0
DICTIONARY
5
6
330
5
100
AcDbDictionary
280
1
281
1
3
ACAD_LAYERSTATES
360
41
0
DICTIONARY
5
41
330
6
100
AcDbDictionary
280
1
281
1
0
LAYOUT
5
20
330
39
100
AcDbPlotSettings
1

2
none_device
4
ISO_A4_(210.00_x_297.00_MM)
6

40
7.5
41
20.0
42
7.5
43
20.0
44
210.0
45
297.0
46
0.0
47
0.0
48
0.0
49
0.0
140
0.0
141
0.0
142
1.0
143
1.0
70
11952
72
1
73
1
74
1
7

75
0
76
0
77
2
78
300
147
1.0
148
0.0
149
0.0
100
AcDbLayout
1
Model
71
0
10
-20.0
20
-7.5
11
277.0
21
202.5
12
0.0
22
0.0
32
0.0
14
25.7
24
19.5
34
0.0
15
231.3
25
175.5
35
0.0
146
0.0
13
0.0
23
0.0
33
0.0
16
1.0
26
0.0
36
0.0
17
0.0
27
1.0
37
0.0
76
0
330
1C
0
LAYOUT
5
3B
330
39
100
AcDbPlotSettings
1

2
none_device
4
ISO_A4_(210.00_x_297.00_MM)
6

40
7.5
41
20.0
42
7.5
43
20.0
44
210.0
45
297.0
46
0.0
47
0.0
48
0.0
49
0.0
140
0.0
141
0.0
142
1.0
143
1.0
70
688
72
1
73
1
74
1
7

75
0
76
0
77
2
78
300
147
1.0
148
0.0
149
0.0
100
AcDbLayout
1
Layout1
71
1
10
-20.0
20
-7.5
11
277.0
21
202.5
12
0.0
22
0.0
32
0.0
14
25.7
24
19.5
34
0.0
15
231.3
25
175.5
35
0.0
146
0.0
13
0.0
23
0.0
33
0.0
16
1.0
26
0.0
36
0.0
17
0.0
27
1.0
37
0.0
76
0
330
36
0
MLINESTYLE
5
1B
330
B
100
AcDbMlineStyle
2
Standard
70
0
3

62
256
51
90.0
52
90.0
71
2
49
0.5
62
256
6
ByLayer
49
-0.5
62
256
6
ByLayer
0
RASTERVARIABLES
5
21
330
E
100
AcDbRasterVariables
90
0
70
1
71
1
72
0
0
ENDSEC
0
EOF
