999
DXF file generated by netDxf https://github.com/haplokuon/netDxf, Copyright(C) Daniel Carvajal, Licensed under MIT
0
SECTION
2
HEADER
9
$ACADVER
1
AC1015
9
$DWGCODEPAGE
3
ANSI_1252
9
$HANDSEED
5
3E
9
$ANGBASE
50
0.0
9
$ANGDIR
70
0
9
$ATTMODE
70
1
9
$AUNITS
70
0
9
$AUPREC
70
0
9
$CECOLOR
62
256
9
$CELTSCALE
40
1.0
9
$CELTYPE
6
ByLayer
9
$CELWEIGHT
370
-1
9
$CLAYER
8
0
9
$CMLJUST
70
0
9
$CMLSCALE
40
20.0
9
$CMLSTYLE
2
Standard
9
$DIMSTYLE
2
Standard
9
$TEXTSIZE
40
2.5
9
$TEXTSTYLE
7
Standard
9
$LUNITS
70
2
9
$LUPREC
70
4
9
$MIRRTEXT
70
0
9
$EXTNAMES
290
1
9
$INSBASE
10
0.0
20
0.0
30
0.0
9
$INSUNITS
70
0
9
$LTSCALE
40
1.0
9
$LWDISPLAY
290
0
9
$PDMODE
70
0
9
$PDSIZE
40
0.0
9
$PLINEGEN
70
0
9
$PSLTSCALE
70
1
9
$SPLINESEGS
70
8
9
$SURFU
70
6
9
$SURFV
70
6
9
$TDCREATE
40
2460823.48362797
9
$TDUCREATE
40
2460823.15029464
9
$TDUPDATE
40
2460823.48362797
9
$TDUUPDATE
40
2460823.15029464
9
$TDINDWG
40
0.0
9
$UCSORG
10
0.0
20
0.0
30
0.0
9
$UCSXDIR
10
1.0
20
0.0
30
0.0
9
$UCSYDIR
10
0.0
20
1.0
30
0.0
9
$DIMADEC
70
0
9
$DIMALT
70
0
9
$DIMALTD
70
2
9
$DIMALTF
40
25.4
9
$DIMALTRND
40
0.0
9
$DIMALTTD
70
2
9
$DIMALTTZ
70
0
9
$DIMALTU
70
2
9
$DIMALTZ
70
0
9
$DIMAPOST
1

9
$DIMATFIT
70
3
9
$DIMAUNIT
70
0
9
$DIMASZ
40
0.18
9
$DIMAZIN
70
0
9
$DIMSAH
70
0
9
$DIMBLK
1

9
$DIMLDRBLK
1

9
$DIMCEN
40
0.09
9
$DIMCLRD
70
0
9
$DIMCLRE
70
0
9
$DIMCLRT
70
0
9
$DIMDEC
70
4
9
$DIMDLE
40
0.0
9
$DIMDLI
40
0.38
9
$DIMDSEP
70
46
9
$DIMEXE
40
0.18
9
$DIMEXO
40
0.0625
9
$DIMFXLON
70
0
9
$DIMFXL
40
1.0
9
$DIMGAP
40
0.09
9
$DIMJUST
70
0
9
$DIMLFAC
40
1.0
9
$DIMLUNIT
70
2
9
$DIMLWD
70
-2
9
$DIMLWE
70
-2
9
$DIMPOST
1

9
$DIMRND
40
0.0
9
$DIMSCALE
40
1.0
9
$DIMSD1
70
0
9
$DIMSD2
70
0
9
$DIMSE1
70
0
9
$DIMSE2
70
0
9
$DIMSOXD
70
0
9
$DIMTAD
70
0
9
$DIMTDEC
70
4
9
$DIMTFAC
40
1.0
9
$DIMTIH
70
0
9
$DIMTIX
70
0
9
$DIMTM
40
0.0
9
$DIMTMOVE
70
0
9
$DIMTOFL
70
0
9
$DIMTOH
70
0
9
$DIMTOL
70
0
9
$DIMLIM
70
0
9
$DIMTOLJ
70
1
9
$DIMTP
40
0.0
9
$DIMTXT
40
0.18
9
$DIMTXTDIRECTION
70
0
9
$DIMTZIN
70
0
9
$DIMZIN
70
0
9
$DIMFRAC
70
0
9
$DIMLTYPE
6
ByBlock
9
$DIMLTEX1
6
ByBlock
9
$DIMLTEX2
6
ByBlock
0
ENDSEC
0
SECTION
2
CLASSES
0
CLASS
1
RASTERVARIABLES
2
AcDbRasterVariables
3
ISM
90
0
280
0
281
0
0
ENDSEC
0
SECTION
2
TABLES
0
TABLE
2
APPID
5
4
330
0
100
AcDbSymbolTable
70
5
0
APPID
5
19
330
4
100
AcDbSymbolTableRecord
100
AcDbRegAppTableRecord
2
ACAD
70
0
0
APPID
5
38
330
4
100
AcDbSymbolTableRecord
100
AcDbRegAppTableRecord
2
AcCmTransparency
70
0
0
APPID
5
39
330
4
100
AcDbSymbolTableRecord
100
AcDbRegAppTableRecord
2
AcAecLayerStandard
70
0
0
APPID
5
3A
330
4
100
AcDbSymbolTableRecord
100
AcDbRegAppTableRecord
2
GradientColor1ACI
70
0
0
APPID
5
3B
330
4
100
AcDbSymbolTableRecord
100
AcDbRegAppTableRecord
2
GradientColor2ACI
70
0
0
ENDTAB
0
TABLE
2
VPORT
5
1
330
0
100
AcDbSymbolTable
70
1
0
VPORT
5
2
330
1
100
AcDbSymbolTableRecord
100
AcDbViewportTableRecord
2
*Active
70
0
10
0.0
20
0.0
11
1.0
21
1.0
12
0.0
22
0.0
13
0.0
23
0.0
14
0.5
24
0.5
15
10.0
25
10.0
16
0.0
26
0.0
36
1.0
17
0.0
27
0.0
37
0.0
40
10.0
41
1.0
75
0
76
1
0
ENDTAB
0
TABLE
2
LTYPE
5
7
330
0
100
AcDbSymbolTable
70
3
0
LTYPE
5
15
330
7
100
AcDbSymbolTableRecord
100
AcDbLinetypeTableRecord
2
Continuous
70
0
3
Solid line
72
65
73
0
40
0.0
0
LTYPE
5
16
330
7
100
AcDbSymbolTableRecord
100
AcDbLinetypeTableRecord
2
ByLayer
70
0
3

72
65
73
0
40
0.0
0
LTYPE
5
17
330
7
100
AcDbSymbolTableRecord
100
AcDbLinetypeTableRecord
2
ByBlock
70
0
3

72
65
73
0
40
0.0
0
ENDTAB
0
TABLE
2
LAYER
5
5
102
{ACAD_XDICTIONARY
360
6
102
}
330
0
100
AcDbSymbolTable
70
1
0
LAYER
5
14
330
5
100
AcDbSymbolTableRecord
100
AcDbLayerTableRecord
2
0
70
0
62
7
6
Continuous
290
1
370
-3
390
0
0
ENDTAB
0
TABLE
2
STYLE
5
8
330
0
100
AcDbSymbolTable
70
1
0
STYLE
5
18
330
8
100
AcDbSymbolTableRecord
100
AcDbTextStyleTableRecord
2
Standard
3
simplex.shx
70
0
71
0
40
0.0
41
1.0
42
0.0
50
0.0
0
ENDTAB
0
TABLE
2
DIMSTYLE
5
A
330
0
100
AcDbSymbolTable
70
1
100
AcDbDimStyleTable
0
DIMSTYLE
105
1A
330
A
100
AcDbSymbolTableRecord
100
AcDbDimStyleTableRecord
2
Standard
3

4

40
1.0
41
0.18
42
0.0625
43
0.38
44
0.18
45
0.0
46
0.0
47
0.0
48
0.0
49
1.0
70
0
71
0
72
0
73
0
74
0
75
0
76
0
77
0
78
0
79
0
140
0.18
141
0.09
143
25.4
144
1.0
146
1.0
147
0.09
148
0.0
170
0
171
2
172
0
174
0
175
0
176
0
177
0
178
0
179
0
271
4
272
4
273
2
274
2
275
0
276
0
277
2
278
46
279
0
280
0
281
0
282
0
283
1
284
0
285
0
286
0
289
3
290
0
294
0
340
18
173
0
345
17
346
17
347
17
371
-2
372
-2
0
ENDTAB
0
TABLE
2
VIEW
5
3
330
0
100
AcDbSymbolTable
70
0
0
ENDTAB
0
TABLE
2
UCS
5
C
330
0
100
AcDbSymbolTable
70
0
0
ENDTAB
0
TABLE
2
BLOCK_RECORD
5
D
330
0
100
AcDbSymbolTable
70
2
0
BLOCK_RECORD
5
1C
330
D
100
AcDbSymbolTableRecord
100
AcDbBlockTableRecord
2
*Model_Space
340
20
0
BLOCK_RECORD
5
32
330
D
100
AcDbSymbolTableRecord
100
AcDbBlockTableRecord
2
*Paper_Space
340
37
0
ENDTAB
0
ENDSEC
0
SECTION
2
BLOCKS
0
BLOCK
5
1E
330
1C
100
AcDbEntity
67
0
8
0
100
AcDbBlockBegin
2
*Model_Space
70
0
10
0.0
20
0.0
30
0.0
3
*Model_Space
4

0
ENDBLK
5
1D
330
1C
100
AcDbEntity
8
0
100
AcDbBlockEnd
0
BLOCK
5
34
330
32
100
AcDbEntity
67
1
8
0
100
AcDbBlockBegin
2
*Paper_Space
70
0
10
0.0
20
0.0
30
0.0
3
*Paper_Space
4

0
ENDBLK
5
33
330
32
100
AcDbEntity
8
0
100
AcDbBlockEnd
0
ENDSEC
0
SECTION
2
ENTITIES
0
LWPOLYLINE
5
22
330
1C
100
AcDbEntity
67
0
8
0
62
256
6
ByLayer
370
-1
48
1.0
60
0
100
AcDbPolyline
90
512
70
1
38
0.0
39
0.0
10
65.1876983642578
20
71.6996994018555
40
0.0
41
0.0
42
0.0
10
65.2142028808594
20
71.6996002197266
40
0.0
41
0.0
42
0.0
10
65.4970016479492
20
71.8239974975586
40
0.0
41
0.0
42
0.0
10
65.5470962524414
20
71.7220993041992
40
0.0
41
0.0
42
0.0
10
65.6567001342773
20
71.6253967285156
40
0.0
41
0.0
42
0.0
10
65.7850036621094
20
71.5634002685547
40
0.0
41
0.0
42
0.0
10
65.9900970458984
20
71.5204010009766
40
0.0
41
0.0
42
0.0
10
66.0152969360352
20
71.4962997436523
40
0.0
41
0.0
42
0.0
10
66.0476989746094
20
71.4745025634766
40
0.0
41
0.0
42
0.0
10
66.1563034057617
20
71.3853988647461
40
0.0
41
0.0
42
0.0
10
66.489501953125
20
71.2226028442383
40
0.0
41
0.0
42
0.0
10
66.723503112793
20
71.0963973999023
40
0.0
41
0.0
42
0.0
10
66.8879013061523
20
70.9888000488281
40
0.0
41
0.0
42
0.0
10
66.9890975952148
20
70.9425964355469
40
0.0
41
0.0
42
0.0
10
67.3161010742188
20
70.7762985229492
40
0.0
41
0.0
42
0.0
10
67.4903030395508
20
70.6695022583008
40
0.0
41
0.0
42
0.0
10
67.6903991699219
20
70.5654983520508
40
0.0
41
0.0
42
0.0
10
67.8034973144531
20
70.497200012207
40
0.0
41
0.0
42
0.0
10
67.8972015380859
20
70.423698425293
40
0.0
41
0.0
42
0.0
10
67.9919967651367
20
70.3643035888672
40
0.0
41
0.0
42
0.0
10
68.2886962890625
20
70.1318969726562
40
0.0
41
0.0
42
0.0
10
68.4340972900391
20
69.9933013916016
40
0.0
41
0.0
42
0.0
10
68.5026016235352
20
69.8843994140625
40
0.0
41
0.0
42
0.0
10
68.5509033203125
20
69.7848968505859
40
0.0
41
0.0
42
0.0
10
68.7291030883789
20
69.4888000488281
40
0.0
41
0.0
42
0.0
10
68.8287963867188
20
69.1914978027344
40
0.0
41
0.0
42
0.0
10
68.8957977294922
20
68.9860000610352
40
0.0
41
0.0
42
0.0
10
68.9530029296875
20
68.7801971435547
40
0.0
41
0.0
42
0.0
10
69.0239028930664
20
68.4853973388672
40
0.0
41
0.0
42
0.0
10
69.0861968994141
20
68.280403137207
40
0.0
41
0.0
42
0.0
10
69.2230987548828
20
67.690803527832
40
0.0
41
0.0
42
0.0
10
69.2962036132812
20
67.4857025146484
40
0.0
41
0.0
42
0.0
10
69.3600997924805
20
67.1910018920898
40
0.0
41
0.0
42
0.0
10
69.3744964599609
20
67.1531982421875
40
0.0
41
0.0
42
0.0
10
69.4552993774414
20
66.9850006103516
40
0.0
41
0.0
42
0.0
10
69.4543991088867
20
66.6494979858398
40
0.0
41
0.0
42
0.0
10
69.4552001953125
20
66.6477966308594
40
0.0
41
0.0
42
0.0
10
69.4949035644531
20
66.6116027832031
40
0.0
41
0.0
42
0.0
10
69.5994033813477
20
66.4946975708008
40
0.0
41
0.0
42
0.0
10
69.6197967529297
20
66.4761962890625
40
0.0
41
0.0
42
0.0
10
69.8755035400391
20
66.1159973144531
40
0.0
41
0.0
42
0.0
10
69.8751983642578
20
66.1151962280273
40
0.0
41
0.0
42
0.0
10
69.4832992553711
20
66.0866012573242
40
0.0
41
0.0
42
0.0
10
69.1345977783203
20
65.9992980957031
40
0.0
41
0.0
42
0.0
10
69.0273971557617
20
65.9813995361328
40
0.0
41
0.0
42
0.0
10
69.0025024414062
20
65.9880981445312
40
0.0
41
0.0
42
0.0
10
68.9657974243164
20
65.9880981445312
40
0.0
41
0.0
42
0.0
10
68.5057983398438
20
65.9620971679688
40
0.0
41
0.0
42
0.0
10
68.466796875
20
65.9664001464844
40
0.0
41
0.0
42
0.0
10
68.4281005859375
20
65.9663009643555
40
0.0
41
0.0
42
0.0
10
68.0093994140625
20
65.9568023681641
40
0.0
41
0.0
42
0.0
10
67.9509963989258
20
65.9608001708984
40
0.0
41
0.0
42
0.0
10
67.5007019042969
20
65.9568023681641
40
0.0
41
0.0
42
0.0
10
67.4047012329102
20
65.9573974609375
40
0.0
41
0.0
42
0.0
10
66.9834976196289
20
65.9390029907227
40
0.0
41
0.0
42
0.0
10
66.6494979858398
20
65.8391036987305
40
0.0
41
0.0
42
0.0
10
66.4870986938477
20
65.8149032592773
40
0.0
41
0.0
42
0.0
10
66.4113006591797
20
65.7697982788086
40
0.0
41
0.0
42
0.0
10
66.2469024658203
20
65.513801574707
40
0.0
41
0.0
42
0.0
10
66.2468032836914
20
65.4890975952148
40
0.0
41
0.0
42
0.0
10
66.4011001586914
20
65.7291030883789
40
0.0
41
0.0
42
0.0
10
66.5128021240234
20
65.7955017089844
40
0.0
41
0.0
42
0.0
10
66.7203979492188
20
65.8264999389648
40
0.0
41
0.0
42
0.0
10
67.0164031982422
20
65.9151000976562
40
0.0
41
0.0
42
0.0
10
67.3856964111328
20
65.9311981201172
40
0.0
41
0.0
42
0.0
10
67.5198974609375
20
65.9301986694336
40
0.0
41
0.0
42
0.0
10
67.8657989501953
20
65.9335021972656
40
0.0
41
0.0
42
0.0
10
67.980598449707
20
65.9259033203125
40
0.0
41
0.0
42
0.0
10
68.0196990966797
20
65.9260025024414
40
0.0
41
0.0
42
0.0
10
68.3821029663086
20
65.9340972900391
40
0.0
41
0.0
42
0.0
10
68.4811019897461
20
65.9233016967773
40
0.0
41
0.0
42
0.0
10
68.519401550293
20
65.9232025146484
40
0.0
41
0.0
42
0.0
10
68.9169998168945
20
65.9457015991211
40
0.0
41
0.0
42
0.0
10
68.9857025146484
20
65.9301986694336
40
0.0
41
0.0
42
0.0
10
69.0903015136719
20
65.8938980102539
40
0.0
41
0.0
42
0.0
10
69.1250991821289
20
65.8938980102539
40
0.0
41
0.0
42
0.0
10
69.5177001953125
20
65.959602355957
40
0.0
41
0.0
42
0.0
10
69.9785995483398
20
65.9821014404297
40
0.0
41
0.0
42
0.0
10
69.9991989135742
20
65.9059982299805
40
0.0
41
0.0
42
0.0
10
70.1611022949219
20
65.6670989990234
40
0.0
41
0.0
42
0.0
10
70.0854034423828
20
65.5149993896484
40
0.0
41
0.0
42
0.0
10
70.0852966308594
20
65.4870986938477
40
0.0
41
0.0
42
0.0
10
70.2649002075195
20
65.2566986083984
40
0.0
41
0.0
42
0.0
10
70.3589019775391
20
65.0009994506836
40
0.0
41
0.0
42
0.0
10
70.4400024414062
20
65.0009994506836
40
0.0
41
0.0
42
0.0
10
70.4397964477539
20
65.0161972045898
40
0.0
41
0.0
42
0.0
10
70.3237991333008
20
65.3320999145508
40
0.0
41
0.0
42
0.0
10
70.1917037963867
20
65.5018997192383
40
0.0
41
0.0
42
0.0
10
70.36669921875
20
65.8526000976562
40
0.0
41
0.0
42
0.0
10
70.3666000366211
20
65.8809967041016
40
0.0
41
0.0
42
0.0
10
70.286003112793
20
66.0
40
0.0
41
0.0
42
0.0
10
70.5161972045898
20
66.0204010009766
40
0.0
41
0.0
42
0.0
10
70.8520965576172
20
66.1129989624023
40
0.0
41
0.0
42
0.0
10
71.0164031982422
20
66.1139984130859
40
0.0
41
0.0
42
0.0
10
71.35009765625
20
66.2285003662109
40
0.0
41
0.0
42
0.0
10
71.5149993896484
20
66.2509002685547
40
0.0
41
0.0
42
0.0
10
71.8491973876953
20
66.3684005737305
40
0.0
41
0.0
42
0.0
10
72.0150985717773
20
66.4039993286133
40
0.0
41
0.0
42
0.0
10
72.0820999145508
20
66.4212036132812
40
0.0
41
0.0
42
0.0
10
72.2906036376953
20
66.4998016357422
40
0.0
41
0.0
42
0.0
10
72.4179000854492
20
66.5391998291016
40
0.0
41
0.0
42
0.0
10
72.5141983032227
20
66.5627975463867
40
0.0
41
0.0
42
0.0
10
72.8225021362305
20
66.6623992919922
40
0.0
41
0.0
42
0.0
10
73.3107986450195
20
66.7848968505859
40
0.0
41
0.0
42
0.0
10
73.5177993774414
20
66.8170013427734
40
0.0
41
0.0
42
0.0
10
73.7926025390625
20
66.8320999145508
40
0.0
41
0.0
42
0.0
10
73.9832000732422
20
66.8187026977539
40
0.0
41
0.0
42
0.0
10
74.2811965942383
20
66.7442016601562
40
0.0
41
0.0
42
0.0
10
74.4886016845703
20
66.6654968261719
40
0.0
41
0.0
42
0.0
10
74.7724990844727
20
66.5173034667969
40
0.0
41
0.0
42
0.0
10
74.8037033081055
20
66.4981994628906
40
0.0
41
0.0
42
0.0
10
74.9903030395508
20
66.4004974365234
40
0.0
41
0.0
42
0.0
10
75.2856979370117
20
66.217399597168
40
0.0
41
0.0
42
0.0
10
75.4905014038086
20
66.1005020141602
40
0.0
41
0.0
42
0.0
10
75.6708984375
20
65.9943008422852
40
0.0
41
0.0
42
0.0
10
75.7862014770508
20
65.9102020263672
40
0.0
41
0.0
42
0.0
10
75.9904022216797
20
65.7994995117188
40
0.0
41
0.0
42
0.0
10
76.2844009399414
20
65.619499206543
40
0.0
41
0.0
42
0.0
10
76.4878997802734
20
65.538200378418
40
0.0
41
0.0
42
0.0
10
76.5572967529297
20
65.5090026855469
40
0.0
41
0.0
42
0.0
10
76.6020965576172
20
65.5001983642578
40
0.0
41
0.0
42
0.0
10
76.7378005981445
20
65.4530029296875
40
0.0
41
0.0
42
0.0
10
76.9888000488281
20
65.1886978149414
40
0.0
41
0.0
42
0.0
10
77.1532974243164
20
65.1919021606445
40
0.0
41
0.0
42
0.0
10
77.2428970336914
20
65.1219024658203
40
0.0
41
0.0
42
0.0
10
77.4557037353516
20
65.0009994506836
40
0.0
41
0.0
42
0.0
10
78.1026992797852
20
65.0009994506836
40
0.0
41
0.0
42
0.0
10
78.3002014160156
20
65.1876983642578
40
0.0
41
0.0
42
0.0
10
78.3001022338867
20
65.2142028808594
40
0.0
41
0.0
42
0.0
10
78.1757965087891
20
65.4970016479492
40
0.0
41
0.0
42
0.0
10
78.2776031494141
20
65.5472030639648
40
0.0
41
0.0
42
0.0
10
78.3742980957031
20
65.6567001342773
40
0.0
41
0.0
42
0.0
10
78.4363021850586
20
65.7850036621094
40
0.0
41
0.0
42
0.0
10
78.4793014526367
20
65.9901962280273
40
0.0
41
0.0
42
0.0
10
78.5035018920898
20
66.0152969360352
40
0.0
41
0.0
42
0.0
10
78.5251998901367
20
66.0476989746094
40
0.0
41
0.0
42
0.0
10
78.6143035888672
20
66.1564025878906
40
0.0
41
0.0
42
0.0
10
78.777099609375
20
66.489501953125
40
0.0
41
0.0
42
0.0
10
78.9033966064453
20
66.723503112793
40
0.0
41
0.0
42
0.0
10
79.0109024047852
20
66.8880004882812
40
0.0
41
0.0
42
0.0
10
79.0574035644531
20
66.9898986816406
40
0.0
41
0.0
42
0.0
10
79.1588973999023
20
67.1552963256836
40
0.0
41
0.0
42
0.0
10
79.434196472168
20
67.6903991699219
40
0.0
41
0.0
42
0.0
10
79.5026016235352
20
67.8034973144531
40
0.0
41
0.0
42
0.0
10
79.5761032104492
20
67.8972015380859
40
0.0
41
0.0
42
0.0
10
79.6353988647461
20
67.9919967651367
40
0.0
41
0.0
42
0.0
10
79.8677978515625
20
68.2886962890625
40
0.0
41
0.0
42
0.0
10
80.0065994262695
20
68.434196472168
40
0.0
41
0.0
42
0.0
10
80.1154022216797
20
68.5027008056641
40
0.0
41
0.0
42
0.0
10
80.2149963378906
20
68.5510025024414
40
0.0
41
0.0
42
0.0
10
80.511100769043
20
68.7291030883789
40
0.0
41
0.0
42
0.0
10
80.8084030151367
20
68.8289031982422
40
0.0
41
0.0
42
0.0
10
81.0139007568359
20
68.8957977294922
40
0.0
41
0.0
42
0.0
10
81.2197036743164
20
68.9530029296875
40
0.0
41
0.0
42
0.0
10
81.5145034790039
20
69.0239028930664
40
0.0
41
0.0
42
0.0
10
81.7194976806641
20
69.0861968994141
40
0.0
41
0.0
42
0.0
10
82.3090972900391
20
69.2231979370117
40
0.0
41
0.0
42
0.0
10
82.5141983032227
20
69.2962036132812
40
0.0
41
0.0
42
0.0
10
82.8088989257812
20
69.3601989746094
40
0.0
41
0.0
42
0.0
10
82.8466033935547
20
69.3744964599609
40
0.0
41
0.0
42
0.0
10
83.0149002075195
20
69.4552993774414
40
0.0
41
0.0
42
0.0
10
83.3504028320312
20
69.4544982910156
40
0.0
41
0.0
42
0.0
10
83.3519973754883
20
69.4552001953125
40
0.0
41
0.0
42
0.0
10
83.3881988525391
20
69.4949035644531
40
0.0
41
0.0
42
0.0
10
83.5050964355469
20
69.5994033813477
40
0.0
41
0.0
42
0.0
10
83.5234985351562
20
69.6197967529297
40
0.0
41
0.0
42
0.0
10
83.883903503418
20
69.8755035400391
40
0.0
41
0.0
42
0.0
10
83.8846969604492
20
69.8751983642578
40
0.0
41
0.0
42
0.0
10
83.9131011962891
20
69.4832992553711
40
0.0
41
0.0
42
0.0
10
84.0005035400391
20
69.1344985961914
40
0.0
41
0.0
42
0.0
10
84.0183029174805
20
69.0273971557617
40
0.0
41
0.0
42
0.0
10
84.0115966796875
20
69.0025024414062
40
0.0
41
0.0
42
0.0
10
84.0115966796875
20
68.9657974243164
40
0.0
41
0.0
42
0.0
10
84.03759765625
20
68.5057983398438
40
0.0
41
0.0
42
0.0
10
84.0335006713867
20
68.466796875
40
0.0
41
0.0
42
0.0
10
84.0334014892578
20
68.4281005859375
40
0.0
41
0.0
42
0.0
10
84.0429000854492
20
68.0093994140625
40
0.0
41
0.0
42
0.0
10
84.0389022827148
20
67.9509963989258
40
0.0
41
0.0
42
0.0
10
84.0429000854492
20
67.5007019042969
40
0.0
41
0.0
42
0.0
10
84.0422973632812
20
67.4047012329102
40
0.0
41
0.0
42
0.0
10
84.0606994628906
20
66.9834976196289
40
0.0
41
0.0
42
0.0
10
84.1606979370117
20
66.6494979858398
40
0.0
41
0.0
42
0.0
10
84.1848983764648
20
66.4870986938477
40
0.0
41
0.0
42
0.0
10
84.2300033569336
20
66.4113006591797
40
0.0
41
0.0
42
0.0
10
84.4860992431641
20
66.2469024658203
40
0.0
41
0.0
42
0.0
10
84.5105972290039
20
66.2468032836914
40
0.0
41
0.0
42
0.0
10
84.2706985473633
20
66.4010009765625
40
0.0
41
0.0
42
0.0
10
84.2042007446289
20
66.5128021240234
40
0.0
41
0.0
42
0.0
10
84.1732025146484
20
66.7202987670898
40
0.0
41
0.0
42
0.0
10
84.0847015380859
20
67.0164031982422
40
0.0
41
0.0
42
0.0
10
84.0684967041016
20
67.3856964111328
40
0.0
41
0.0
42
0.0
10
84.0695037841797
20
67.5198974609375
40
0.0
41
0.0
42
0.0
10
84.0662002563477
20
67.8657989501953
40
0.0
41
0.0
42
0.0
10
84.0738983154297
20
67.980598449707
40
0.0
41
0.0
42
0.0
10
84.0737991333008
20
68.0196990966797
40
0.0
41
0.0
42
0.0
10
84.0655975341797
20
68.3821029663086
40
0.0
41
0.0
42
0.0
10
84.0765991210938
20
68.4811019897461
40
0.0
41
0.0
42
0.0
10
84.0764999389648
20
68.519401550293
40
0.0
41
0.0
42
0.0
10
84.0540008544922
20
68.9169998168945
40
0.0
41
0.0
42
0.0
10
84.0695037841797
20
68.9857025146484
40
0.0
41
0.0
42
0.0
10
84.1057968139648
20
69.0903015136719
40
0.0
41
0.0
42
0.0
10
84.1057968139648
20
69.1250991821289
40
0.0
41
0.0
42
0.0
10
84.0442962646484
20
69.4926986694336
40
0.0
41
0.0
42
0.0
10
84.1631011962891
20
69.6511001586914
40
0.0
41
0.0
42
0.0
10
84.1628036499023
20
69.6812973022461
40
0.0
41
0.0
42
0.0
10
84.0864028930664
20
69.9981002807617
40
0.0
41
0.0
42
0.0
10
84.5131988525391
20
70.0843963623047
40
0.0
41
0.0
42
0.0
10
84.6716995239258
20
70.1602020263672
40
0.0
41
0.0
42
0.0
10
84.9990005493164
20
70.356201171875
40
0.0
41
0.0
42
0.0
10
84.9990005493164
20
70.4400024414062
40
0.0
41
0.0
42
0.0
10
84.9858016967773
20
70.4399032592773
40
0.0
41
0.0
42
0.0
10
84.8430023193359
20
70.3544998168945
40
0.0
41
0.0
42
0.0
10
84.486701965332
20
70.184196472168
40
0.0
41
0.0
42
0.0
10
84.1092987060547
20
70.1075973510742
40
0.0
41
0.0
42
0.0
10
83.999397277832
20
70.2916030883789
40
0.0
41
0.0
42
0.0
10
83.9793014526367
20
70.5161972045898
40
0.0
41
0.0
42
0.0
10
83.8867034912109
20
70.8519973754883
40
0.0
41
0.0
42
0.0
10
83.8856964111328
20
71.0185012817383
40
0.0
41
0.0
42
0.0
10
83.8638000488281
20
71.1800994873047
40
0.0
41
0.0
42
0.0
10
83.7490997314453
20
71.5142974853516
40
0.0
41
0.0
42
0.0
10
83.7136993408203
20
71.67919921875
40
0.0
41
0.0
42
0.0
10
83.5960998535156
20
72.013801574707
40
0.0
41
0.0
42
0.0
10
83.578498840332
20
72.0820999145508
40
0.0
41
0.0
42
0.0
10
83.5
20
72.2906036376953
40
0.0
41
0.0
42
0.0
10
83.4605026245117
20
72.4178009033203
40
0.0
41
0.0
42
0.0
10
83.3853988647461
20
72.7192001342773
40
0.0
41
0.0
42
0.0
10
83.2897033691406
20
73.0150985717773
40
0.0
41
0.0
42
0.0
10
83.2578964233398
20
73.220703125
40
0.0
41
0.0
42
0.0
10
83.1846008300781
20
73.5093994140625
40
0.0
41
0.0
42
0.0
10
83.1971969604492
20
73.6856994628906
40
0.0
41
0.0
42
0.0
10
83.1970977783203
20
73.7244033813477
40
0.0
41
0.0
42
0.0
10
83.1826019287109
20
73.9882965087891
40
0.0
41
0.0
42
0.0
10
83.2595977783203
20
74.1912002563477
40
0.0
41
0.0
42
0.0
10
83.3336029052734
20
74.4875030517578
40
0.0
41
0.0
42
0.0
10
83.4824981689453
20
74.7724990844727
40
0.0
41
0.0
42
0.0
10
83.5016021728516
20
74.8038024902344
40
0.0
41
0.0
42
0.0
10
83.5991973876953
20
74.9904022216797
40
0.0
41
0.0
42
0.0
10
83.7824020385742
20
75.2856979370117
40
0.0
41
0.0
42
0.0
10
83.899299621582
20
75.4905014038086
40
0.0
41
0.0
42
0.0
10
84.0054016113281
20
75.6709976196289
40
0.0
41
0.0
42
0.0
10
84.0895004272461
20
75.7862014770508
40
0.0
41
0.0
42
0.0
10
84.1993026733398
20
75.988899230957
40
0.0
41
0.0
42
0.0
10
84.2814025878906
20
76.1943969726562
40
0.0
41
0.0
42
0.0
10
84.4621963500977
20
76.4896011352539
40
0.0
41
0.0
42
0.0
10
84.4907989501953
20
76.5572967529297
40
0.0
41
0.0
42
0.0
10
84.4998016357422
20
76.6027984619141
40
0.0
41
0.0
42
0.0
10
84.5467987060547
20
76.7378997802734
40
0.0
41
0.0
42
0.0
10
84.8109970092773
20
76.9888000488281
40
0.0
41
0.0
42
0.0
10
84.8078002929688
20
77.1532974243164
40
0.0
41
0.0
42
0.0
10
84.8778991699219
20
77.2429962158203
40
0.0
41
0.0
42
0.0
10
84.9990005493164
20
77.4557037353516
40
0.0
41
0.0
42
0.0
10
84.9989013671875
20
78.1026992797852
40
0.0
41
0.0
42
0.0
10
84.8121032714844
20
78.3002014160156
40
0.0
41
0.0
42
0.0
10
84.7856979370117
20
78.3002014160156
40
0.0
41
0.0
42
0.0
10
84.5010986328125
20
78.1748962402344
40
0.0
41
0.0
42
0.0
10
84.1380996704102
20
78.372200012207
40
0.0
41
0.0
42
0.0
10
84.0058975219727
20
78.4829025268555
40
0.0
41
0.0
42
0.0
10
83.9844970703125
20
78.5035018920898
40
0.0
41
0.0
42
0.0
10
83.9521026611328
20
78.5251998901367
40
0.0
41
0.0
42
0.0
10
83.8434982299805
20
78.6143035888672
40
0.0
41
0.0
42
0.0
10
83.5102996826172
20
78.7770004272461
40
0.0
41
0.0
42
0.0
10
83.2762985229492
20
78.9032974243164
40
0.0
41
0.0
42
0.0
10
83.1118011474609
20
79.0109024047852
40
0.0
41
0.0
42
0.0
10
83.0100021362305
20
79.0574035644531
40
0.0
41
0.0
42
0.0
10
82.844596862793
20
79.1588973999023
40
0.0
41
0.0
42
0.0
10
82.3094024658203
20
79.434196472168
40
0.0
41
0.0
42
0.0
10
82.1961975097656
20
79.5026016235352
40
0.0
41
0.0
42
0.0
10
82.1025009155273
20
79.5759963989258
40
0.0
41
0.0
42
0.0
10
82.0077972412109
20
79.6353988647461
40
0.0
41
0.0
42
0.0
10
81.7110977172852
20
79.8677978515625
40
0.0
41
0.0
42
0.0
10
81.5655975341797
20
80.0065002441406
40
0.0
41
0.0
42
0.0
10
81.4970016479492
20
80.1153030395508
40
0.0
41
0.0
42
0.0
10
81.4486999511719
20
80.2148971557617
40
0.0
41
0.0
42
0.0
10
81.2705993652344
20
80.511100769043
40
0.0
41
0.0
42
0.0
10
81.2030029296875
20
80.7182998657227
40
0.0
41
0.0
42
0.0
10
81.1038970947266
20
81.013801574707
40
0.0
41
0.0
42
0.0
10
81.0466995239258
20
81.2197036743164
40
0.0
41
0.0
42
0.0
10
80.9757995605469
20
81.5143966674805
40
0.0
41
0.0
42
0.0
10
80.9134979248047
20
81.7194976806641
40
0.0
41
0.0
42
0.0
10
80.8460006713867
20
82.0140991210938
40
0.0
41
0.0
42
0.0
10
80.7731018066406
20
82.2190017700195
40
0.0
41
0.0
42
0.0
10
80.7039031982422
20
82.5129013061523
40
0.0
41
0.0
42
0.0
10
80.6123962402344
20
82.7035980224609
40
0.0
41
0.0
42
0.0
10
80.5444030761719
20
83.0170974731445
40
0.0
41
0.0
42
0.0
10
80.5453033447266
20
83.3504028320312
40
0.0
41
0.0
42
0.0
10
80.5446014404297
20
83.3520965576172
40
0.0
41
0.0
42
0.0
10
80.5035018920898
20
83.3898010253906
40
0.0
41
0.0
42
0.0
10
80.4002990722656
20
83.5050964355469
40
0.0
41
0.0
42
0.0
10
80.3798980712891
20
83.5234985351562
40
0.0
41
0.0
42
0.0
10
80.124397277832
20
83.883903503418
40
0.0
41
0.0
42
0.0
10
80.1247024536133
20
83.8846969604492
40
0.0
41
0.0
42
0.0
10
80.5166015625
20
83.9131011962891
40
0.0
41
0.0
42
0.0
10
80.8654022216797
20
84.0005035400391
40
0.0
41
0.0
42
0.0
10
80.9723968505859
20
84.0183029174805
40
0.0
41
0.0
42
0.0
10
80.9972991943359
20
84.0115966796875
40
0.0
41
0.0
42
0.0
10
81.0339965820312
20
84.0115966796875
40
0.0
41
0.0
42
0.0
10
81.4941024780273
20
84.03759765625
40
0.0
41
0.0
42
0.0
10
81.5329971313477
20
84.0335006713867
40
0.0
41
0.0
42
0.0
10
81.5717010498047
20
84.0334014892578
40
0.0
41
0.0
42
0.0
10
81.9905014038086
20
84.0429000854492
40
0.0
41
0.0
42
0.0
10
82.048698425293
20
84.0390014648438
40
0.0
41
0.0
42
0.0
10
82.4991989135742
20
84.0429000854492
40
0.0
41
0.0
42
0.0
10
82.595100402832
20
84.0422973632812
40
0.0
41
0.0
42
0.0
10
83.0164031982422
20
84.0606994628906
40
0.0
41
0.0
42
0.0
10
83.3504028320312
20
84.1606979370117
40
0.0
41
0.0
42
0.0
10
83.5128021240234
20
84.1848983764648
40
0.0
41
0.0
42
0.0
10
83.5885009765625
20
84.2301025390625
40
0.0
41
0.0
42
0.0
10
83.7547988891602
20
84.4889984130859
40
0.0
41
0.0
42
0.0
10
83.8187026977539
20
84.6882019042969
40
0.0
41
0.0
42
0.0
10
83.818603515625
20
84.7245025634766
40
0.0
41
0.0
42
0.0
10
83.8061981201172
20
84.9990005493164
40
0.0
41
0.0
42
0.0
10
83.7927017211914
20
84.9990005493164
40
0.0
41
0.0
42
0.0
10
83.7926025390625
20
84.9804000854492
40
0.0
41
0.0
42
0.0
10
83.8062973022461
20
84.6773986816406
40
0.0
41
0.0
42
0.0
10
83.7529983520508
20
84.5109024047852
40
0.0
41
0.0
42
0.0
10
83.5988006591797
20
84.2706985473633
40
0.0
41
0.0
42
0.0
10
83.4870986938477
20
84.2042007446289
40
0.0
41
0.0
42
0.0
10
83.2795028686523
20
84.1732025146484
40
0.0
41
0.0
42
0.0
10
82.9834976196289
20
84.0847015380859
40
0.0
41
0.0
42
0.0
10
82.6141967773438
20
84.0684967041016
40
0.0
41
0.0
42
0.0
10
82.4800033569336
20
84.0695037841797
40
0.0
41
0.0
42
0.0
10
82.1340026855469
20
84.0662002563477
40
0.0
41
0.0
42
0.0
10
82.0193023681641
20
84.0738983154297
40
0.0
41
0.0
42
0.0
10
81.9897003173828
20
84.0737991333008
40
0.0
41
0.0
42
0.0
10
81.6175994873047
20
84.0655975341797
40
0.0
41
0.0
42
0.0
10
81.518798828125
20
84.0765991210938
40
0.0
41
0.0
42
0.0
10
81.4804992675781
20
84.0764999389648
40
0.0
41
0.0
42
0.0
10
81.0828018188477
20
84.0540008544922
40
0.0
41
0.0
42
0.0
10
81.0141983032227
20
84.0695037841797
40
0.0
41
0.0
42
0.0
10
80.9095001220703
20
84.1057968139648
40
0.0
41
0.0
42
0.0
10
80.8747024536133
20
84.1057968139648
40
0.0
41
0.0
42
0.0
10
80.4822006225586
20
84.0401000976562
40
0.0
41
0.0
42
0.0
10
80.0210037231445
20
84.0176010131836
40
0.0
41
0.0
42
0.0
10
80.000602722168
20
84.0938034057617
40
0.0
41
0.0
42
0.0
10
79.8386001586914
20
84.3327026367188
40
0.0
41
0.0
42
0.0
10
79.9144973754883
20
84.4849014282227
40
0.0
41
0.0
42
0.0
10
79.9143981933594
20
84.5127029418945
40
0.0
41
0.0
42
0.0
10
79.7348022460938
20
84.7431030273438
40
0.0
41
0.0
42
0.0
10
79.640998840332
20
84.9990005493164
40
0.0
41
0.0
42
0.0
10
79.5598983764648
20
84.9990005493164
40
0.0
41
0.0
42
0.0
10
79.5597991943359
20
84.9837036132812
40
0.0
41
0.0
42
0.0
10
79.6759033203125
20
84.6676025390625
40
0.0
41
0.0
42
0.0
10
79.8080978393555
20
84.4980010986328
40
0.0
41
0.0
42
0.0
10
79.6330032348633
20
84.1472015380859
40
0.0
41
0.0
42
0.0
10
79.6331024169922
20
84.1186981201172
40
0.0
41
0.0
42
0.0
10
79.713996887207
20
83.9998016357422
40
0.0
41
0.0
42
0.0
10
79.4837036132812
20
83.9794006347656
40
0.0
41
0.0
42
0.0
10
79.1479034423828
20
83.8867034912109
40
0.0
41
0.0
42
0.0
10
78.9813995361328
20
83.8856964111328
40
0.0
41
0.0
42
0.0
10
78.8198013305664
20
83.8638000488281
40
0.0
41
0.0
42
0.0
10
78.4856033325195
20
83.7490997314453
40
0.0
41
0.0
42
0.0
10
78.3207015991211
20
83.7136993408203
40
0.0
41
0.0
42
0.0
10
77.9860992431641
20
83.5960998535156
40
0.0
41
0.0
42
0.0
10
77.9177017211914
20
83.5785980224609
40
0.0
41
0.0
42
0.0
10
77.7091979980469
20
83.5
40
0.0
41
0.0
42
0.0
10
77.5820007324219
20
83.4605026245117
40
0.0
41
0.0
42
0.0
10
77.2807006835938
20
83.3853988647461
40
0.0
41
0.0
42
0.0
10
76.9848022460938
20
83.2897033691406
40
0.0
41
0.0
42
0.0
10
76.7791976928711
20
83.2578964233398
40
0.0
41
0.0
42
0.0
10
76.4905014038086
20
83.1846008300781
40
0.0
41
0.0
42
0.0
10
76.3142013549805
20
83.1971969604492
40
0.0
41
0.0
42
0.0
10
76.2754974365234
20
83.1970977783203
40
0.0
41
0.0
42
0.0
10
76.0115966796875
20
83.1826019287109
40
0.0
41
0.0
42
0.0
10
75.8086013793945
20
83.2595977783203
40
0.0
41
0.0
42
0.0
10
75.5123977661133
20
83.3336029052734
40
0.0
41
0.0
42
0.0
10
75.2272033691406
20
83.4823989868164
40
0.0
41
0.0
42
0.0
10
75.1959991455078
20
83.5016021728516
40
0.0
41
0.0
42
0.0
10
75.0094985961914
20
83.5990982055664
40
0.0
41
0.0
42
0.0
10
74.7142028808594
20
83.7823028564453
40
0.0
41
0.0
42
0.0
10
74.5093994140625
20
83.899299621582
40
0.0
41
0.0
42
0.0
10
74.3287963867188
20
84.0053024291992
40
0.0
41
0.0
42
0.0
10
74.2136993408203
20
84.0895004272461
40
0.0
41
0.0
42
0.0
10
74.0110015869141
20
84.1993026733398
40
0.0
41
0.0
42
0.0
10
73.8054962158203
20
84.2813034057617
40
0.0
41
0.0
42
0.0
10
73.5102996826172
20
84.4621963500977
40
0.0
41
0.0
42
0.0
10
73.442497253418
20
84.4906997680664
40
0.0
41
0.0
42
0.0
10
73.3970031738281
20
84.4998016357422
40
0.0
41
0.0
42
0.0
10
73.2619018554688
20
84.5466995239258
40
0.0
41
0.0
42
0.0
10
73.011100769043
20
84.8109970092773
40
0.0
41
0.0
42
0.0
10
72.8466033935547
20
84.8077011108398
40
0.0
41
0.0
42
0.0
10
72.7567977905273
20
84.877799987793
40
0.0
41
0.0
42
0.0
10
72.5440979003906
20
84.9990005493164
40
0.0
41
0.0
42
0.0
10
71.897102355957
20
84.9989013671875
40
0.0
41
0.0
42
0.0
10
71.6995010375977
20
84.8121032714844
40
0.0
41
0.0
42
0.0
10
71.6995010375977
20
84.7855987548828
40
0.0
41
0.0
42
0.0
10
71.8238983154297
20
84.5031967163086
40
0.0
41
0.0
42
0.0
10
71.6259002685547
20
84.3425979614258
40
0.0
41
0.0
42
0.0
10
71.5196990966797
20
84.0090026855469
40
0.0
41
0.0
42
0.0
10
71.4963989257812
20
83.9844970703125
40
0.0
41
0.0
42
0.0
10
71.4745025634766
20
83.9521026611328
40
0.0
41
0.0
42
0.0
10
71.3853988647461
20
83.8434982299805
40
0.0
41
0.0
42
0.0
10
71.2227020263672
20
83.5103988647461
40
0.0
41
0.0
42
0.0
10
71.0963973999023
20
83.2762985229492
40
0.0
41
0.0
42
0.0
10
70.9888000488281
20
83.1119003295898
40
0.0
41
0.0
42
0.0
10
70.9427032470703
20
83.0108032226562
40
0.0
41
0.0
42
0.0
10
70.7762985229492
20
82.6837997436523
40
0.0
41
0.0
42
0.0
10
70.6695022583008
20
82.5095977783203
40
0.0
41
0.0
42
0.0
10
70.5654983520508
20
82.3094024658203
40
0.0
41
0.0
42
0.0
10
70.4972991943359
20
82.1962966918945
40
0.0
41
0.0
42
0.0
10
70.423698425293
20
82.1026000976562
40
0.0
41
0.0
42
0.0
10
70.3644027709961
20
82.0078964233398
40
0.0
41
0.0
42
0.0
10
70.1320037841797
20
81.7111968994141
40
0.0
41
0.0
42
0.0
10
69.9933013916016
20
81.5656967163086
40
0.0
41
0.0
42
0.0
10
69.8844985961914
20
81.4971008300781
40
0.0
41
0.0
42
0.0
10
69.7850036621094
20
81.4487991333008
40
0.0
41
0.0
42
0.0
10
69.4887008666992
20
81.2705993652344
40
0.0
41
0.0
42
0.0
10
69.2816009521484
20
81.2031021118164
40
0.0
41
0.0
42
0.0
10
68.9860992431641
20
81.1038970947266
40
0.0
41
0.0
42
0.0
10
68.7801971435547
20
81.0466995239258
40
0.0
41
0.0
42
0.0
10
68.4854965209961
20
80.9757995605469
40
0.0
41
0.0
42
0.0
10
68.280403137207
20
80.9134979248047
40
0.0
41
0.0
42
0.0
10
67.9858016967773
20
80.8460998535156
40
0.0
41
0.0
42
0.0
10
67.7808990478516
20
80.7731018066406
40
0.0
41
0.0
42
0.0
10
67.4869995117188
20
80.7039031982422
40
0.0
41
0.0
42
0.0
10
67.2963027954102
20
80.6123962402344
40
0.0
41
0.0
42
0.0
10
66.9828033447266
20
80.5444030761719
40
0.0
41
0.0
42
0.0
10
66.6494979858398
20
80.5453033447266
40
0.0
41
0.0
42
0.0
10
66.6477966308594
20
80.5446014404297
40
0.0
41
0.0
42
0.0
10
66.611701965332
20
80.504997253418
40
0.0
41
0.0
42
0.0
10
66.4947967529297
20
80.4002990722656
40
0.0
41
0.0
42
0.0
10
66.4763031005859
20
80.3798980712891
40
0.0
41
0.0
42
0.0
10
66.1159973144531
20
80.124397277832
40
0.0
41
0.0
42
0.0
10
66.1151962280273
20
80.1247024536133
40
0.0
41
0.0
42
0.0
10
66.0866012573242
20
80.5166015625
40
0.0
41
0.0
42
0.0
10
65.9992980957031
20
80.8653030395508
40
0.0
41
0.0
42
0.0
10
65.9813995361328
20
80.9723968505859
40
0.0
41
0.0
42
0.0
10
65.9880981445312
20
80.9972991943359
40
0.0
41
0.0
42
0.0
10
65.9880981445312
20
81.0339965820312
40
0.0
41
0.0
42
0.0
10
65.9620971679688
20
81.4941024780273
40
0.0
41
0.0
42
0.0
10
65.9664001464844
20
81.5329971313477
40
0.0
41
0.0
42
0.0
10
65.9663009643555
20
81.5717010498047
40
0.0
41
0.0
42
0.0
10
65.9568023681641
20
81.9905014038086
40
0.0
41
0.0
42
0.0
10
65.9608001708984
20
82.0487976074219
40
0.0
41
0.0
42
0.0
10
65.9568023681641
20
82.4991989135742
40
0.0
41
0.0
42
0.0
10
65.9573974609375
20
82.595100402832
40
0.0
41
0.0
42
0.0
10
65.9390029907227
20
83.0164031982422
40
0.0
41
0.0
42
0.0
10
65.8391036987305
20
83.3504028320312
40
0.0
41
0.0
42
0.0
10
65.8147964477539
20
83.5127029418945
40
0.0
41
0.0
42
0.0
10
65.7696990966797
20
83.5884017944336
40
0.0
41
0.0
42
0.0
10
65.5109024047852
20
83.7547988891602
40
0.0
41
0.0
42
0.0
10
65.3116989135742
20
83.8187026977539
40
0.0
41
0.0
42
0.0
10
65.2753982543945
20
83.818603515625
40
0.0
41
0.0
42
0.0
10
65.0009994506836
20
83.8061981201172
40
0.0
41
0.0
42
0.0
10
65.0009994506836
20
83.7927017211914
40
0.0
41
0.0
42
0.0
10
65.0195007324219
20
83.7926025390625
40
0.0
41
0.0
42
0.0
10
65.3225021362305
20
83.8062973022461
40
0.0
41
0.0
42
0.0
10
65.488899230957
20
83.7528991699219
40
0.0
41
0.0
42
0.0
10
65.7289962768555
20
83.5987014770508
40
0.0
41
0.0
42
0.0
10
65.7955017089844
20
83.4870986938477
40
0.0
41
0.0
42
0.0
10
65.8264999389648
20
83.2795028686523
40
0.0
41
0.0
42
0.0
10
65.9151000976562
20
82.9834976196289
40
0.0
41
0.0
42
0.0
10
65.9311981201172
20
82.6141967773438
40
0.0
41
0.0
42
0.0
10
65.9301986694336
20
82.4800033569336
40
0.0
41
0.0
42
0.0
10
65.9335021972656
20
82.1340026855469
40
0.0
41
0.0
42
0.0
10
65.9259033203125
20
82.0193023681641
40
0.0
41
0.0
42
0.0
10
65.9260025024414
20
81.9802017211914
40
0.0
41
0.0
42
0.0
10
65.9340972900391
20
81.6175994873047
40
0.0
41
0.0
42
0.0
10
65.9233016967773
20
81.518798828125
40
0.0
41
0.0
42
0.0
10
65.9232025146484
20
81.4804992675781
40
0.0
41
0.0
42
0.0
10
65.9457015991211
20
81.0828018188477
40
0.0
41
0.0
42
0.0
10
65.9301986694336
20
81.0141983032227
40
0.0
41
0.0
42
0.0
10
65.8940963745117
20
80.9095001220703
40
0.0
41
0.0
42
0.0
10
65.8939971923828
20
80.8748016357422
40
0.0
41
0.0
42
0.0
10
65.9553985595703
20
80.5072021484375
40
0.0
41
0.0
42
0.0
10
65.8366012573242
20
80.3488006591797
40
0.0
41
0.0
42
0.0
10
65.8369979858398
20
80.318603515625
40
0.0
41
0.0
42
0.0
10
65.9134979248047
20
80.0018005371094
40
0.0
41
0.0
42
0.0
10
65.486701965332
20
79.915397644043
40
0.0
41
0.0
42
0.0
10
65.3281021118164
20
79.839599609375
40
0.0
41
0.0
42
0.0
10
65.0009994506836
20
79.6436996459961
40
0.0
41
0.0
42
0.0
10
65.0009994506836
20
79.5598983764648
40
0.0
41
0.0
42
0.0
10
65.0140991210938
20
79.5597991943359
40
0.0
41
0.0
42
0.0
10
65.1567993164062
20
79.6453018188477
40
0.0
41
0.0
42
0.0
10
65.513298034668
20
79.8154983520508
40
0.0
41
0.0
42
0.0
10
65.8904037475586
20
79.8919982910156
40
0.0
41
0.0
42
0.0
10
66.0003967285156
20
79.7081985473633
40
0.0
41
0.0
42
0.0
10
66.0203018188477
20
79.4837036132812
40
0.0
41
0.0
42
0.0
10
66.1129989624023
20
79.1477966308594
40
0.0
41
0.0
42
0.0
10
66.1139984130859
20
78.9834976196289
40
0.0
41
0.0
42
0.0
10
66.2285003662109
20
78.6498031616211
40
0.0
41
0.0
42
0.0
10
66.2508010864258
20
78.4849014282227
40
0.0
41
0.0
42
0.0
10
66.3684005737305
20
78.1505966186523
40
0.0
41
0.0
42
0.0
10
66.4039993286133
20
77.9848022460938
40
0.0
41
0.0
42
0.0
10
66.4212036132812
20
77.9177017211914
40
0.0
41
0.0
42
0.0
10
66.4998016357422
20
77.7091979980469
40
0.0
41
0.0
42
0.0
10
66.5391998291016
20
77.581901550293
40
0.0
41
0.0
42
0.0
10
66.5627975463867
20
77.4857025146484
40
0.0
41
0.0
42
0.0
10
66.6623992919922
20
77.1773986816406
40
0.0
41
0.0
42
0.0
10
66.7848968505859
20
76.6891021728516
40
0.0
41
0.0
42
0.0
10
66.8170013427734
20
76.4821014404297
40
0.0
41
0.0
42
0.0
10
66.8320999145508
20
76.2072982788086
40
0.0
41
0.0
42
0.0
10
66.8187026977539
20
76.0167007446289
40
0.0
41
0.0
42
0.0
10
66.7442016601562
20
75.7186965942383
40
0.0
41
0.0
42
0.0
10
66.6656036376953
20
75.5112991333008
40
0.0
41
0.0
42
0.0
10
66.5173034667969
20
75.2273025512695
40
0.0
41
0.0
42
0.0
10
66.4981994628906
20
75.1960983276367
40
0.0
41
0.0
42
0.0
10
66.4005966186523
20
75.0094985961914
40
0.0
41
0.0
42
0.0
10
66.217399597168
20
74.7142028808594
40
0.0
41
0.0
42
0.0
10
66.1005020141602
20
74.5093994140625
40
0.0
41
0.0
42
0.0
10
65.9944000244141
20
74.3287963867188
40
0.0
41
0.0
42
0.0
10
65.9102020263672
20
74.2136993408203
40
0.0
41
0.0
42
0.0
10
65.7995986938477
20
74.0094985961914
40
0.0
41
0.0
42
0.0
10
65.6194000244141
20
73.7154998779297
40
0.0
41
0.0
42
0.0
10
65.5091018676758
20
73.4425964355469
40
0.0
41
0.0
42
0.0
10
65.5002975463867
20
73.3976974487305
40
0.0
41
0.0
42
0.0
10
65.4530029296875
20
73.2619018554688
40
0.0
41
0.0
42
0.0
10
65.1886978149414
20
73.011100769043
40
0.0
41
0.0
42
0.0
10
65.1920013427734
20
72.8466033935547
40
0.0
41
0.0
42
0.0
10
65.1219024658203
20
72.7568969726562
40
0.0
41
0.0
42
0.0
10
65.0009994506836
20
72.5440979003906
40
0.0
41
0.0
42
0.0
10
65.0009002685547
20
71.897102355957
40
0.0
41
0.0
42
0.0
10
65.1876983642578
20
71.6996994018555
40
0.0
41
0.0
42
0.0
210
0.0
220
0.0
230
1.0
0
LWPOLYLINE
5
23
330
1C
100
AcDbEntity
67
0
8
0
62
256
6
ByLayer
370
-1
48
1.0
60
0
100
AcDbPolyline
90
7
70
1
38
0.0
39
0.0
10
84.7834014892578
20
66.2584991455078
40
0.0
41
0.0
42
0.0
10
84.9832000732422
20
66.1946029663086
40
0.0
41
0.0
42
0.0
10
84.9990005493164
20
66.1946029663086
40
0.0
41
0.0
42
0.0
10
84.9989013671875
20
66.2127990722656
40
0.0
41
0.0
42
0.0
10
84.8516998291016
20
66.2601013183594
40
0.0
41
0.0
42
0.0
10
84.8153991699219
20
66.2600021362305
40
0.0
41
0.0
42
0.0
10
84.7834014892578
20
66.2584991455078
40
0.0
41
0.0
42
0.0
210
0.0
220
0.0
230
1.0
0
LWPOLYLINE
5
24
330
1C
100
AcDbEntity
67
0
8
0
62
256
6
ByLayer
370
-1
48
1.0
60
0
100
AcDbPolyline
90
7
70
1
38
0.0
39
0.0
10
66.2584991455078
20
65.2164001464844
40
0.0
41
0.0
42
0.0
10
66.1946029663086
20
65.0167007446289
40
0.0
41
0.0
42
0.0
10
66.1946029663086
20
65.0009994506836
40
0.0
41
0.0
42
0.0
10
66.2127990722656
20
65.0009002685547
40
0.0
41
0.0
42
0.0
10
66.2601013183594
20
65.1482009887695
40
0.0
41
0.0
42
0.0
10
66.2600021362305
20
65.1845016479492
40
0.0
41
0.0
42
0.0
10
66.2584991455078
20
65.2164001464844
40
0.0
41
0.0
42
0.0
210
0.0
220
0.0
230
1.0
0
LWPOLYLINE
5
25
330
1C
100
AcDbEntity
67
0
8
0
62
256
6
ByLayer
370
-1
48
1.0
60
0
100
AcDbPolyline
90
321
70
1
38
0.0
39
0.0
10
65.111701965332
20
72.0106964111328
40
0.0
41
0.0
42
0.0
10
65.122200012207
20
72.3570022583008
40
0.0
41
0.0
42
0.0
10
65.1221008300781
20
72.3895034790039
40
0.0
41
0.0
42
0.0
10
65.0373001098633
20
72.5000991821289
40
0.0
41
0.0
42
0.0
10
65.157096862793
20
72.7107009887695
40
0.0
41
0.0
42
0.0
10
65.2128982543945
20
72.7819976806641
40
0.0
41
0.0
42
0.0
10
65.2086029052734
20
72.9897003173828
40
0.0
41
0.0
42
0.0
10
65.4462966918945
20
73.2154006958008
40
0.0
41
0.0
42
0.0
10
65.4996032714844
20
73.3681030273438
40
0.0
41
0.0
42
0.0
10
65.5068969726562
20
73.4051971435547
40
0.0
41
0.0
42
0.0
10
65.5417022705078
20
73.4878997802734
40
0.0
41
0.0
42
0.0
10
65.6082000732422
20
73.6544036865234
40
0.0
41
0.0
42
0.0
10
65.8139038085938
20
73.9905014038086
40
0.0
41
0.0
42
0.0
10
65.9039001464844
20
74.1561965942383
40
0.0
41
0.0
42
0.0
10
65.9998016357422
20
74.2874984741211
40
0.0
41
0.0
42
0.0
10
66.1190032958984
20
74.4905014038086
40
0.0
41
0.0
42
0.0
10
66.2134017944336
20
74.6557006835938
40
0.0
41
0.0
42
0.0
10
66.4208984375
20
74.9904022216797
40
0.0
41
0.0
42
0.0
10
66.5017013549805
20
75.1445999145508
40
0.0
41
0.0
42
0.0
10
66.5169982910156
20
75.1697006225586
40
0.0
41
0.0
42
0.0
10
66.6832962036133
20
75.4886016845703
40
0.0
41
0.0
42
0.0
10
66.7451019287109
20
75.6511993408203
40
0.0
41
0.0
42
0.0
10
66.8281021118164
20
75.9832992553711
40
0.0
41
0.0
42
0.0
10
66.8396987915039
20
76.1456985473633
40
0.0
41
0.0
42
0.0
10
66.839599609375
20
76.1844024658203
40
0.0
41
0.0
42
0.0
10
66.8211975097656
20
76.5177993774414
40
0.0
41
0.0
42
0.0
10
66.7959976196289
20
76.6808013916016
40
0.0
41
0.0
42
0.0
10
66.6707000732422
20
77.17919921875
40
0.0
41
0.0
42
0.0
10
66.5645980834961
20
77.5102005004883
40
0.0
41
0.0
42
0.0
10
66.5341033935547
20
77.6341018676758
40
0.0
41
0.0
42
0.0
10
66.5
20
77.7437973022461
40
0.0
41
0.0
42
0.0
10
66.4303970336914
20
77.9283981323242
40
0.0
41
0.0
42
0.0
10
66.408203125
20
78.0150985717773
40
0.0
41
0.0
42
0.0
10
66.3644027709961
20
78.2192001342773
40
0.0
41
0.0
42
0.0
10
66.2603988647461
20
78.5149993896484
40
0.0
41
0.0
42
0.0
10
66.2325973510742
20
78.720100402832
40
0.0
41
0.0
42
0.0
10
66.1309967041016
20
79.0164031982422
40
0.0
41
0.0
42
0.0
10
66.1297988891602
20
79.2220001220703
40
0.0
41
0.0
42
0.0
10
66.0485000610352
20
79.5161972045898
40
0.0
41
0.0
42
0.0
10
66.0074005126953
20
79.9900970458984
40
0.0
41
0.0
42
0.0
10
66.4817962646484
20
80.3266983032227
40
0.0
41
0.0
42
0.0
10
66.5050964355469
20
80.3522033691406
40
0.0
41
0.0
42
0.0
10
66.6643981933594
20
80.4949035644531
40
0.0
41
0.0
42
0.0
10
66.7004013061523
20
80.5343017578125
40
0.0
41
0.0
42
0.0
10
66.720100402832
20
80.5431976318359
40
0.0
41
0.0
42
0.0
10
67.0177001953125
20
80.5423965454102
40
0.0
41
0.0
42
0.0
10
67.3096008300781
20
80.6056976318359
40
0.0
41
0.0
42
0.0
10
67.3471984863281
20
80.6175003051758
40
0.0
41
0.0
42
0.0
10
67.5129013061523
20
80.6969985961914
40
0.0
41
0.0
42
0.0
10
67.8489990234375
20
80.7761993408203
40
0.0
41
0.0
42
0.0
10
68.0140991210938
20
80.8348999023438
40
0.0
41
0.0
42
0.0
10
68.3496017456055
20
80.9116973876953
40
0.0
41
0.0
42
0.0
10
68.5143966674805
20
80.961799621582
40
0.0
41
0.0
42
0.0
10
68.8497009277344
20
81.0429000854492
40
0.0
41
0.0
42
0.0
10
69.013801574707
20
81.0884017944336
40
0.0
41
0.0
42
0.0
10
69.3483963012695
20
81.200798034668
40
0.0
41
0.0
42
0.0
10
69.5111999511719
20
81.2537994384766
40
0.0
41
0.0
42
0.0
10
69.8450012207031
20
81.4544982910156
40
0.0
41
0.0
42
0.0
10
69.9245986938477
20
81.4932022094727
40
0.0
41
0.0
42
0.0
10
70.0065994262695
20
81.5448989868164
40
0.0
41
0.0
42
0.0
10
70.1149978637695
20
81.6585998535156
40
0.0
41
0.0
42
0.0
10
70.3762969970703
20
81.9919967651367
40
0.0
41
0.0
42
0.0
10
70.4437026977539
20
82.0995025634766
40
0.0
41
0.0
42
0.0
10
70.5026016235352
20
82.1747970581055
40
0.0
41
0.0
42
0.0
10
70.5558013916016
20
82.2628021240234
40
0.0
41
0.0
42
0.0
10
70.6737976074219
20
82.4903030395508
40
0.0
41
0.0
42
0.0
10
70.7985992431641
20
82.695198059082
40
0.0
41
0.0
42
0.0
10
70.9480972290039
20
82.9890975952148
40
0.0
41
0.0
42
0.0
10
70.9896011352539
20
83.0800018310547
40
0.0
41
0.0
42
0.0
10
71.1241989135742
20
83.2855987548828
40
0.0
41
0.0
42
0.0
10
71.2341995239258
20
83.4896011352539
40
0.0
41
0.0
42
0.0
10
71.3792037963867
20
83.7863998413086
40
0.0
41
0.0
42
0.0
10
71.4592971801758
20
83.8841018676758
40
0.0
41
0.0
42
0.0
10
71.5035018920898
20
83.9496994018555
40
0.0
41
0.0
42
0.0
10
71.543098449707
20
83.9909973144531
40
0.0
41
0.0
42
0.0
10
71.6372985839844
20
84.2873001098633
40
0.0
41
0.0
42
0.0
10
71.8872985839844
20
84.4898986816406
40
0.0
41
0.0
42
0.0
10
71.8871994018555
20
84.5155029296875
40
0.0
41
0.0
42
0.0
10
71.8078002929688
20
84.6960983276367
40
0.0
41
0.0
42
0.0
10
72.0106964111328
20
84.8880004882812
40
0.0
41
0.0
42
0.0
10
72.3570022583008
20
84.8777008056641
40
0.0
41
0.0
42
0.0
10
72.3895034790039
20
84.8776016235352
40
0.0
41
0.0
42
0.0
10
72.5000991821289
20
84.96240234375
40
0.0
41
0.0
42
0.0
10
72.7106018066406
20
84.8425979614258
40
0.0
41
0.0
42
0.0
10
72.7819976806641
20
84.7867965698242
40
0.0
41
0.0
42
0.0
10
72.9897003173828
20
84.7911987304688
40
0.0
41
0.0
42
0.0
10
73.2154006958008
20
84.5534973144531
40
0.0
41
0.0
42
0.0
10
73.3681030273438
20
84.5001983642578
40
0.0
41
0.0
42
0.0
10
73.4051971435547
20
84.4927978515625
40
0.0
41
0.0
42
0.0
10
73.489501953125
20
84.4573974609375
40
0.0
41
0.0
42
0.0
10
73.8244018554688
20
84.2522964477539
40
0.0
41
0.0
42
0.0
10
73.988899230957
20
84.1865997314453
40
0.0
41
0.0
42
0.0
10
74.1561965942383
20
84.0959014892578
40
0.0
41
0.0
42
0.0
10
74.2874984741211
20
83.9999008178711
40
0.0
41
0.0
42
0.0
10
74.4905014038086
20
83.8806991577148
40
0.0
41
0.0
42
0.0
10
74.6557006835938
20
83.7863006591797
40
0.0
41
0.0
42
0.0
10
74.9903030395508
20
83.5787963867188
40
0.0
41
0.0
42
0.0
10
75.1445999145508
20
83.4981002807617
40
0.0
41
0.0
42
0.0
10
75.1697006225586
20
83.4826965332031
40
0.0
41
0.0
42
0.0
10
75.4873962402344
20
83.3169021606445
40
0.0
41
0.0
42
0.0
10
75.8211975097656
20
83.2334976196289
40
0.0
41
0.0
42
0.0
10
75.9838027954102
20
83.1718978881836
40
0.0
41
0.0
42
0.0
10
76.019401550293
20
83.1717987060547
40
0.0
41
0.0
42
0.0
10
76.3326034545898
20
83.1891021728516
40
0.0
41
0.0
42
0.0
10
76.4806976318359
20
83.1787033081055
40
0.0
41
0.0
42
0.0
10
76.5173034667969
20
83.178596496582
40
0.0
41
0.0
42
0.0
10
76.8507995605469
20
83.2631988525391
40
0.0
41
0.0
42
0.0
10
77.0150985717773
20
83.2886962890625
40
0.0
41
0.0
42
0.0
10
77.3358993530273
20
83.3924026489258
40
0.0
41
0.0
42
0.0
10
77.6341018676758
20
83.4655990600586
40
0.0
41
0.0
42
0.0
10
77.7437973022461
20
83.4998016357422
40
0.0
41
0.0
42
0.0
10
77.9283981323242
20
83.5692977905273
40
0.0
41
0.0
42
0.0
10
78.0139007568359
20
83.5912017822266
40
0.0
41
0.0
42
0.0
10
78.3093032836914
20
83.6950988769531
40
0.0
41
0.0
42
0.0
10
78.5142974853516
20
83.7389984130859
40
0.0
41
0.0
42
0.0
10
78.8100967407227
20
83.8404998779297
40
0.0
41
0.0
42
0.0
10
79.0185012817383
20
83.8686981201172
40
0.0
41
0.0
42
0.0
10
79.2220993041992
20
83.8699035644531
40
0.0
41
0.0
42
0.0
10
79.5161972045898
20
83.9512023925781
40
0.0
41
0.0
42
0.0
10
79.9900970458984
20
83.9924011230469
40
0.0
41
0.0
42
0.0
10
80.3265991210938
20
83.5179977416992
40
0.0
41
0.0
42
0.0
10
80.3522033691406
20
83.4946975708008
40
0.0
41
0.0
42
0.0
10
80.4947967529297
20
83.3352966308594
40
0.0
41
0.0
42
0.0
10
80.5343017578125
20
83.2993011474609
40
0.0
41
0.0
42
0.0
10
80.5431976318359
20
83.2797012329102
40
0.0
41
0.0
42
0.0
10
80.5423965454102
20
82.9822006225586
40
0.0
41
0.0
42
0.0
10
80.6056976318359
20
82.690299987793
40
0.0
41
0.0
42
0.0
10
80.6175003051758
20
82.6526031494141
40
0.0
41
0.0
42
0.0
10
80.6969985961914
20
82.4869995117188
40
0.0
41
0.0
42
0.0
10
80.7761001586914
20
82.1509017944336
40
0.0
41
0.0
42
0.0
10
80.8348999023438
20
81.9858016967773
40
0.0
41
0.0
42
0.0
10
80.9116973876953
20
81.6502990722656
40
0.0
41
0.0
42
0.0
10
80.961799621582
20
81.4854965209961
40
0.0
41
0.0
42
0.0
10
81.0428009033203
20
81.1501998901367
40
0.0
41
0.0
42
0.0
10
81.0884017944336
20
80.9860992431641
40
0.0
41
0.0
42
0.0
10
81.2006988525391
20
80.651496887207
40
0.0
41
0.0
42
0.0
10
81.2537994384766
20
80.4887008666992
40
0.0
41
0.0
42
0.0
10
81.4543991088867
20
80.154899597168
40
0.0
41
0.0
42
0.0
10
81.4932022094727
20
80.0751037597656
40
0.0
41
0.0
42
0.0
10
81.5448989868164
20
79.9933013916016
40
0.0
41
0.0
42
0.0
10
81.6585998535156
20
79.8846969604492
40
0.0
41
0.0
42
0.0
10
81.9919967651367
20
79.6234970092773
40
0.0
41
0.0
42
0.0
10
82.0995025634766
20
79.5559997558594
40
0.0
41
0.0
42
0.0
10
82.1746978759766
20
79.497200012207
40
0.0
41
0.0
42
0.0
10
82.2628021240234
20
79.4439010620117
40
0.0
41
0.0
42
0.0
10
82.4926986694336
20
79.3246002197266
40
0.0
41
0.0
42
0.0
10
82.7942962646484
20
79.1712036132812
40
0.0
41
0.0
42
0.0
10
82.9897994995117
20
79.0513000488281
40
0.0
41
0.0
42
0.0
10
83.0795974731445
20
79.0102996826172
40
0.0
41
0.0
42
0.0
10
83.1007995605469
20
78.9977035522461
40
0.0
41
0.0
42
0.0
10
83.2855987548828
20
78.8755035400391
40
0.0
41
0.0
42
0.0
10
83.489501953125
20
78.7655029296875
40
0.0
41
0.0
42
0.0
10
83.7863006591797
20
78.6204986572266
40
0.0
41
0.0
42
0.0
10
83.8841018676758
20
78.540397644043
40
0.0
41
0.0
42
0.0
10
83.9496002197266
20
78.4962997436523
40
0.0
41
0.0
42
0.0
10
83.993896484375
20
78.4537963867188
40
0.0
41
0.0
42
0.0
10
84.2471008300781
20
78.2418975830078
40
0.0
41
0.0
42
0.0
10
84.4851989746094
20
78.1123962402344
40
0.0
41
0.0
42
0.0
10
84.5155029296875
20
78.1125030517578
40
0.0
41
0.0
42
0.0
10
84.6960983276367
20
78.1920013427734
40
0.0
41
0.0
42
0.0
10
84.8880004882812
20
77.9891967773438
40
0.0
41
0.0
42
0.0
10
84.8777008056641
20
77.6427993774414
40
0.0
41
0.0
42
0.0
10
84.8776016235352
20
77.6101989746094
40
0.0
41
0.0
42
0.0
10
84.96240234375
20
77.4997024536133
40
0.0
41
0.0
42
0.0
10
84.8425979614258
20
77.2891006469727
40
0.0
41
0.0
42
0.0
10
84.7867965698242
20
77.217903137207
40
0.0
41
0.0
42
0.0
10
84.7911987304688
20
77.0102005004883
40
0.0
41
0.0
42
0.0
10
84.5534973144531
20
76.7844009399414
40
0.0
41
0.0
42
0.0
10
84.5001983642578
20
76.6317977905273
40
0.0
41
0.0
42
0.0
10
84.4927978515625
20
76.594596862793
40
0.0
41
0.0
42
0.0
10
84.4573974609375
20
76.5102996826172
40
0.0
41
0.0
42
0.0
10
84.2522964477539
20
76.1754989624023
40
0.0
41
0.0
42
0.0
10
84.1866989135742
20
76.0110015869141
40
0.0
41
0.0
42
0.0
10
84.0959014892578
20
75.8436965942383
40
0.0
41
0.0
42
0.0
10
83.9999008178711
20
75.7123031616211
40
0.0
41
0.0
42
0.0
10
83.8806991577148
20
75.5093994140625
40
0.0
41
0.0
42
0.0
10
83.7863998413086
20
75.3442001342773
40
0.0
41
0.0
42
0.0
10
83.5787963867188
20
75.0094985961914
40
0.0
41
0.0
42
0.0
10
83.4981994628906
20
74.8552017211914
40
0.0
41
0.0
42
0.0
10
83.4826965332031
20
74.8301010131836
40
0.0
41
0.0
42
0.0
10
83.3170013427734
20
74.5124969482422
40
0.0
41
0.0
42
0.0
10
83.2334976196289
20
74.1787033081055
40
0.0
41
0.0
42
0.0
10
83.1718978881836
20
74.0160980224609
40
0.0
41
0.0
42
0.0
10
83.1717987060547
20
73.9804992675781
40
0.0
41
0.0
42
0.0
10
83.1891021728516
20
73.6672973632812
40
0.0
41
0.0
42
0.0
10
83.1787033081055
20
73.5192031860352
40
0.0
41
0.0
42
0.0
10
83.178596496582
20
73.4825973510742
40
0.0
41
0.0
42
0.0
10
83.2631988525391
20
73.1491012573242
40
0.0
41
0.0
42
0.0
10
83.2886962890625
20
72.9848022460938
40
0.0
41
0.0
42
0.0
10
83.3924026489258
20
72.6640014648438
40
0.0
41
0.0
42
0.0
10
83.4654998779297
20
72.3657989501953
40
0.0
41
0.0
42
0.0
10
83.4998016357422
20
72.2559967041016
40
0.0
41
0.0
42
0.0
10
83.5692977905273
20
72.0715026855469
40
0.0
41
0.0
42
0.0
10
83.5911026000977
20
71.9860000610352
40
0.0
41
0.0
42
0.0
10
83.6950988769531
20
71.6905975341797
40
0.0
41
0.0
42
0.0
10
83.7389984130859
20
71.4856033325195
40
0.0
41
0.0
42
0.0
10
83.8404998779297
20
71.1897964477539
40
0.0
41
0.0
42
0.0
10
83.8686981201172
20
70.9813995361328
40
0.0
41
0.0
42
0.0
10
83.8699035644531
20
70.7778015136719
40
0.0
41
0.0
42
0.0
10
83.9512023925781
20
70.4837036132812
40
0.0
41
0.0
42
0.0
10
83.9924011230469
20
70.0098037719727
40
0.0
41
0.0
42
0.0
10
83.5180969238281
20
69.6731033325195
40
0.0
41
0.0
42
0.0
10
83.4947967529297
20
69.6475982666016
40
0.0
41
0.0
42
0.0
10
83.3355026245117
20
69.504997253418
40
0.0
41
0.0
42
0.0
10
83.2994003295898
20
69.4654998779297
40
0.0
41
0.0
42
0.0
10
83.2797012329102
20
69.4564971923828
40
0.0
41
0.0
42
0.0
10
82.9847030639648
20
69.4572982788086
40
0.0
41
0.0
42
0.0
10
82.8072967529297
20
69.3721008300781
40
0.0
41
0.0
42
0.0
10
82.4857025146484
20
69.3023986816406
40
0.0
41
0.0
42
0.0
10
82.3208999633789
20
69.2436981201172
40
0.0
41
0.0
42
0.0
10
81.9847030639648
20
69.1645965576172
40
0.0
41
0.0
42
0.0
10
81.6503982543945
20
69.0879974365234
40
0.0
41
0.0
42
0.0
10
81.4854965209961
20
69.0379028320312
40
0.0
41
0.0
42
0.0
10
81.1501998901367
20
68.956901550293
40
0.0
41
0.0
42
0.0
10
80.9860992431641
20
68.9113006591797
40
0.0
41
0.0
42
0.0
10
80.4888000488281
20
68.7461013793945
40
0.0
41
0.0
42
0.0
10
80.1549987792969
20
68.5453033447266
40
0.0
41
0.0
42
0.0
10
80.0752029418945
20
68.5065002441406
40
0.0
41
0.0
42
0.0
10
79.9934005737305
20
68.4549026489258
40
0.0
41
0.0
42
0.0
10
79.8846969604492
20
68.3412017822266
40
0.0
41
0.0
42
0.0
10
79.6234970092773
20
68.0078964233398
40
0.0
41
0.0
42
0.0
10
79.5560989379883
20
67.9002990722656
40
0.0
41
0.0
42
0.0
10
79.497200012207
20
67.8249969482422
40
0.0
41
0.0
42
0.0
10
79.4440002441406
20
67.7370986938477
40
0.0
41
0.0
42
0.0
10
79.3246002197266
20
67.5070037841797
40
0.0
41
0.0
42
0.0
10
79.1712036132812
20
67.2055969238281
40
0.0
41
0.0
42
0.0
10
79.051399230957
20
67.0101013183594
40
0.0
41
0.0
42
0.0
10
79.0103988647461
20
66.9201965332031
40
0.0
41
0.0
42
0.0
10
78.9977035522461
20
66.8990020751953
40
0.0
41
0.0
42
0.0
10
78.8755035400391
20
66.7142028808594
40
0.0
41
0.0
42
0.0
10
78.7655029296875
20
66.5103988647461
40
0.0
41
0.0
42
0.0
10
78.6205978393555
20
66.2135009765625
40
0.0
41
0.0
42
0.0
10
78.540397644043
20
66.1156997680664
40
0.0
41
0.0
42
0.0
10
78.4963989257812
20
66.0501022338867
40
0.0
41
0.0
42
0.0
10
78.4573974609375
20
66.0096969604492
40
0.0
41
0.0
42
0.0
10
78.4208984375
20
65.8354034423828
40
0.0
41
0.0
42
0.0
10
78.3619995117188
20
65.7132034301758
40
0.0
41
0.0
42
0.0
10
78.2313995361328
20
65.565299987793
40
0.0
41
0.0
42
0.0
10
78.1123962402344
20
65.5070037841797
40
0.0
41
0.0
42
0.0
10
78.1125030517578
20
65.4843978881836
40
0.0
41
0.0
42
0.0
10
78.1920013427734
20
65.3037033081055
40
0.0
41
0.0
42
0.0
10
77.9891967773438
20
65.111701965332
40
0.0
41
0.0
42
0.0
10
77.6427993774414
20
65.122200012207
40
0.0
41
0.0
42
0.0
10
77.6102981567383
20
65.122200012207
40
0.0
41
0.0
42
0.0
10
77.4997024536133
20
65.0372009277344
40
0.0
41
0.0
42
0.0
10
77.2891006469727
20
65.157096862793
40
0.0
41
0.0
42
0.0
10
77.217903137207
20
65.2128982543945
40
0.0
41
0.0
42
0.0
10
77.0102005004883
20
65.2085037231445
40
0.0
41
0.0
42
0.0
10
76.7844009399414
20
65.4462966918945
40
0.0
41
0.0
42
0.0
10
76.6317977905273
20
65.4994964599609
40
0.0
41
0.0
42
0.0
10
76.594596862793
20
65.5068969726562
40
0.0
41
0.0
42
0.0
10
76.5119018554688
20
65.5416030883789
40
0.0
41
0.0
42
0.0
10
76.3454971313477
20
65.6081008911133
40
0.0
41
0.0
42
0.0
10
76.0093994140625
20
65.8139038085938
40
0.0
41
0.0
42
0.0
10
75.8436965942383
20
65.9038009643555
40
0.0
41
0.0
42
0.0
10
75.7121963500977
20
65.9998016357422
40
0.0
41
0.0
42
0.0
10
75.5093994140625
20
66.1190032958984
40
0.0
41
0.0
42
0.0
10
75.3442001342773
20
66.2133026123047
40
0.0
41
0.0
42
0.0
10
75.0094985961914
20
66.4208984375
40
0.0
41
0.0
42
0.0
10
74.8552017211914
20
66.5017013549805
40
0.0
41
0.0
42
0.0
10
74.8300018310547
20
66.5169982910156
40
0.0
41
0.0
42
0.0
10
74.5112991333008
20
66.6832962036133
40
0.0
41
0.0
42
0.0
10
74.3486022949219
20
66.7451019287109
40
0.0
41
0.0
42
0.0
10
74.0166015625
20
66.8281021118164
40
0.0
41
0.0
42
0.0
10
73.8542022705078
20
66.8396987915039
40
0.0
41
0.0
42
0.0
10
73.8154983520508
20
66.839599609375
40
0.0
41
0.0
42
0.0
10
73.4821014404297
20
66.8211975097656
40
0.0
41
0.0
42
0.0
10
73.3190994262695
20
66.7959976196289
40
0.0
41
0.0
42
0.0
10
72.8207015991211
20
66.6707000732422
40
0.0
41
0.0
42
0.0
10
72.4857025146484
20
66.5633010864258
40
0.0
41
0.0
42
0.0
10
72.3657989501953
20
66.5342025756836
40
0.0
41
0.0
42
0.0
10
72.2559967041016
20
66.5
40
0.0
41
0.0
42
0.0
10
72.0715026855469
20
66.4303970336914
40
0.0
41
0.0
42
0.0
10
71.9848022460938
20
66.408203125
40
0.0
41
0.0
42
0.0
10
71.7807006835938
20
66.3644027709961
40
0.0
41
0.0
42
0.0
10
71.4849014282227
20
66.2603988647461
40
0.0
41
0.0
42
0.0
10
71.2798004150391
20
66.2325973510742
40
0.0
41
0.0
42
0.0
10
70.9834976196289
20
66.1309967041016
40
0.0
41
0.0
42
0.0
10
70.7779006958008
20
66.1297988891602
40
0.0
41
0.0
42
0.0
10
70.4837036132812
20
66.0485000610352
40
0.0
41
0.0
42
0.0
10
70.0096969604492
20
66.0073013305664
40
0.0
41
0.0
42
0.0
10
69.6731033325195
20
66.4817962646484
40
0.0
41
0.0
42
0.0
10
69.6474990844727
20
66.5050964355469
40
0.0
41
0.0
42
0.0
10
69.5048980712891
20
66.6642990112305
40
0.0
41
0.0
42
0.0
10
69.4654006958008
20
66.7004013061523
40
0.0
41
0.0
42
0.0
10
69.4564971923828
20
66.720100402832
40
0.0
41
0.0
42
0.0
10
69.4572982788086
20
67.0151977539062
40
0.0
41
0.0
42
0.0
10
69.3721008300781
20
67.1925964355469
40
0.0
41
0.0
42
0.0
10
69.3023986816406
20
67.5141983032227
40
0.0
41
0.0
42
0.0
10
69.2436981201172
20
67.6790008544922
40
0.0
41
0.0
42
0.0
10
69.1645965576172
20
68.0151977539062
40
0.0
41
0.0
42
0.0
10
69.0879974365234
20
68.3495025634766
40
0.0
41
0.0
42
0.0
10
69.0379028320312
20
68.5143966674805
40
0.0
41
0.0
42
0.0
10
68.9568023681641
20
68.8497009277344
40
0.0
41
0.0
42
0.0
10
68.9113006591797
20
69.013801574707
40
0.0
41
0.0
42
0.0
10
68.7460021972656
20
69.511100769043
40
0.0
41
0.0
42
0.0
10
68.5453033447266
20
69.8449020385742
40
0.0
41
0.0
42
0.0
10
68.5065002441406
20
69.9245986938477
40
0.0
41
0.0
42
0.0
10
68.4549026489258
20
70.0065002441406
40
0.0
41
0.0
42
0.0
10
68.3411026000977
20
70.1149978637695
40
0.0
41
0.0
42
0.0
10
68.0077972412109
20
70.3761978149414
40
0.0
41
0.0
42
0.0
10
67.9001998901367
20
70.4437026977539
40
0.0
41
0.0
42
0.0
10
67.8249969482422
20
70.5026016235352
40
0.0
41
0.0
42
0.0
10
67.7369995117188
20
70.5558013916016
40
0.0
41
0.0
42
0.0
10
67.5095977783203
20
70.6737976074219
40
0.0
41
0.0
42
0.0
10
67.3047027587891
20
70.7985992431641
40
0.0
41
0.0
42
0.0
10
67.0108032226562
20
70.947998046875
40
0.0
41
0.0
42
0.0
10
66.9197006225586
20
70.989501953125
40
0.0
41
0.0
42
0.0
10
66.7142028808594
20
71.1241989135742
40
0.0
41
0.0
42
0.0
10
66.5102996826172
20
71.2341995239258
40
0.0
41
0.0
42
0.0
10
66.2135009765625
20
71.3792037963867
40
0.0
41
0.0
42
0.0
10
66.1156005859375
20
71.4592971801758
40
0.0
41
0.0
42
0.0
10
66.0501022338867
20
71.5035018920898
40
0.0
41
0.0
42
0.0
10
66.0096969604492
20
71.5422973632812
40
0.0
41
0.0
42
0.0
10
65.8354034423828
20
71.5787963867188
40
0.0
41
0.0
42
0.0
10
65.7132034301758
20
71.6377029418945
40
0.0
41
0.0
42
0.0
10
65.565299987793
20
71.7684020996094
40
0.0
41
0.0
42
0.0
10
65.5068969726562
20
71.8872985839844
40
0.0
41
0.0
42
0.0
10
65.4843978881836
20
71.8871994018555
40
0.0
41
0.0
42
0.0
10
65.303596496582
20
71.8077011108398
40
0.0
41
0.0
42
0.0
10
65.111701965332
20
72.0106964111328
40
0.0
41
0.0
42
0.0
210
0.0
220
0.0
230
1.0
0
LWPOLYLINE
5
26
330
1C
100
AcDbEntity
67
0
8
0
62
256
6
ByLayer
370
-1
48
1.0
60
0
100
AcDbPolyline
90
182
70
1
38
0.0
39
0.0
10
69.5531997680664
20
75.4503021240234
40
0.0
41
0.0
42
0.0
10
69.6623001098633
20
75.2855987548828
40
0.0
41
0.0
42
0.0
10
69.8142013549805
20
74.9933013916016
40
0.0
41
0.0
42
0.0
10
69.9075012207031
20
74.9151992797852
40
0.0
41
0.0
42
0.0
10
69.9934997558594
20
74.8399963378906
40
0.0
41
0.0
42
0.0
10
70.2571029663086
20
74.6207962036133
40
0.0
41
0.0
42
0.0
10
70.4223022460938
20
74.4961013793945
40
0.0
41
0.0
42
0.0
10
70.4934997558594
20
74.4328002929688
40
0.0
41
0.0
42
0.0
10
70.7884979248047
20
74.1927032470703
40
0.0
41
0.0
42
0.0
10
70.9932022094727
20
74.0103988647461
40
0.0
41
0.0
42
0.0
10
71.0184020996094
20
73.9916000366211
40
0.0
41
0.0
42
0.0
10
70.9953002929688
20
73.5821990966797
40
0.0
41
0.0
42
0.0
10
70.9857025146484
20
73.5133972167969
40
0.0
41
0.0
42
0.0
10
70.9527969360352
20
73.450798034668
40
0.0
41
0.0
42
0.0
10
70.8542022705078
20
73.2164001464844
40
0.0
41
0.0
42
0.0
10
70.7566986083984
20
73.0120010375977
40
0.0
41
0.0
42
0.0
10
70.6545028686523
20
72.7176971435547
40
0.0
41
0.0
42
0.0
10
70.5762023925781
20
72.5147018432617
40
0.0
41
0.0
42
0.0
10
70.5140991210938
20
72.0597991943359
40
0.0
41
0.0
42
0.0
10
70.5098037719727
20
72.018798828125
40
0.0
41
0.0
42
0.0
10
70.5096969604492
20
71.9833984375
40
0.0
41
0.0
42
0.0
10
70.5600967407227
20
71.8367004394531
40
0.0
41
0.0
42
0.0
10
70.5983963012695
20
71.7866973876953
40
0.0
41
0.0
42
0.0
10
70.7695999145508
20
71.496696472168
40
0.0
41
0.0
42
0.0
10
70.9294967651367
20
71.4309997558594
40
0.0
41
0.0
42
0.0
10
70.9868011474609
20
71.4008026123047
40
0.0
41
0.0
42
0.0
10
71.2771987915039
20
71.3525009155273
40
0.0
41
0.0
42
0.0
10
71.4804992675781
20
71.3424987792969
40
0.0
41
0.0
42
0.0
10
71.5192031860352
20
71.342399597168
40
0.0
41
0.0
42
0.0
10
71.8128967285156
20
71.3644027709961
40
0.0
41
0.0
42
0.0
10
72.0167999267578
20
71.388801574707
40
0.0
41
0.0
42
0.0
10
72.3113021850586
20
71.4421005249023
40
0.0
41
0.0
42
0.0
10
72.5128021240234
20
71.4761962890625
40
0.0
41
0.0
42
0.0
10
72.7781982421875
20
71.4688034057617
40
0.0
41
0.0
42
0.0
10
72.9934005737305
20
71.407096862793
40
0.0
41
0.0
42
0.0
10
73.1763000488281
20
71.1172027587891
40
0.0
41
0.0
42
0.0
10
73.2356033325195
20
70.9880981445312
40
0.0
41
0.0
42
0.0
10
73.3149032592773
20
70.7830963134766
40
0.0
41
0.0
42
0.0
10
73.4505004882812
20
70.4886016845703
40
0.0
41
0.0
42
0.0
10
73.5177001953125
20
70.3366012573242
40
0.0
41
0.0
42
0.0
10
73.7218017578125
20
69.9919967651367
40
0.0
41
0.0
42
0.0
10
73.8991012573242
20
69.7763977050781
40
0.0
41
0.0
42
0.0
10
73.9919967651367
20
69.6501998901367
40
0.0
41
0.0
42
0.0
10
74.3293991088867
20
69.5832977294922
40
0.0
41
0.0
42
0.0
10
74.4834976196289
20
69.530403137207
40
0.0
41
0.0
42
0.0
10
74.5137023925781
20
69.5302963256836
40
0.0
41
0.0
42
0.0
10
74.7143020629883
20
69.6623992919922
40
0.0
41
0.0
42
0.0
10
75.0065002441406
20
69.8143005371094
40
0.0
41
0.0
42
0.0
10
75.0845031738281
20
69.907600402832
40
0.0
41
0.0
42
0.0
10
75.159797668457
20
69.9935989379883
40
0.0
41
0.0
42
0.0
10
75.3789978027344
20
70.2572021484375
40
0.0
41
0.0
42
0.0
10
75.5037002563477
20
70.4224014282227
40
0.0
41
0.0
42
0.0
10
75.5670013427734
20
70.4934997558594
40
0.0
41
0.0
42
0.0
10
75.8071975708008
20
70.7884979248047
40
0.0
41
0.0
42
0.0
10
75.9894027709961
20
70.9933013916016
40
0.0
41
0.0
42
0.0
10
76.00830078125
20
71.0184020996094
40
0.0
41
0.0
42
0.0
10
76.4176025390625
20
70.9953002929688
40
0.0
41
0.0
42
0.0
10
76.4863967895508
20
70.9856033325195
40
0.0
41
0.0
42
0.0
10
76.5490036010742
20
70.9527969360352
40
0.0
41
0.0
42
0.0
10
76.7835006713867
20
70.8542022705078
40
0.0
41
0.0
42
0.0
10
76.9878997802734
20
70.7565994262695
40
0.0
41
0.0
42
0.0
10
77.282096862793
20
70.6545028686523
40
0.0
41
0.0
42
0.0
10
77.4851989746094
20
70.5762023925781
40
0.0
41
0.0
42
0.0
10
77.9400024414062
20
70.5140991210938
40
0.0
41
0.0
42
0.0
10
77.9811019897461
20
70.5098037719727
40
0.0
41
0.0
42
0.0
10
78.0164031982422
20
70.5096969604492
40
0.0
41
0.0
42
0.0
10
78.1631011962891
20
70.5602035522461
40
0.0
41
0.0
42
0.0
10
78.2132034301758
20
70.5983963012695
40
0.0
41
0.0
42
0.0
10
78.5031967163086
20
70.7696990966797
40
0.0
41
0.0
42
0.0
10
78.5687026977539
20
70.9296035766602
40
0.0
41
0.0
42
0.0
10
78.5983963012695
20
70.9857025146484
40
0.0
41
0.0
42
0.0
10
78.6083984375
20
71.1872024536133
40
0.0
41
0.0
42
0.0
10
78.6574020385742
20
71.4816970825195
40
0.0
41
0.0
42
0.0
10
78.6573028564453
20
71.5186996459961
40
0.0
41
0.0
42
0.0
10
78.6328964233398
20
71.722900390625
40
0.0
41
0.0
42
0.0
10
78.6108016967773
20
72.0174026489258
40
0.0
41
0.0
42
0.0
10
78.576301574707
20
72.2212982177734
40
0.0
41
0.0
42
0.0
10
78.526496887207
20
72.4964981079102
40
0.0
41
0.0
42
0.0
10
78.5813980102539
20
72.6882019042969
40
0.0
41
0.0
42
0.0
10
78.5899963378906
20
72.99169921875
40
0.0
41
0.0
42
0.0
10
78.8824996948242
20
73.1763000488281
40
0.0
41
0.0
42
0.0
10
79.0118026733398
20
73.2356033325195
40
0.0
41
0.0
42
0.0
10
79.216796875
20
73.3149032592773
40
0.0
41
0.0
42
0.0
10
79.5112991333008
20
73.4505004882812
40
0.0
41
0.0
42
0.0
10
79.663200378418
20
73.5177001953125
40
0.0
41
0.0
42
0.0
10
80.0077972412109
20
73.7218017578125
40
0.0
41
0.0
42
0.0
10
80.2232971191406
20
73.8991012573242
40
0.0
41
0.0
42
0.0
10
80.3496017456055
20
73.9921035766602
40
0.0
41
0.0
42
0.0
10
80.4163970947266
20
74.3293991088867
40
0.0
41
0.0
42
0.0
10
80.4694976806641
20
74.4834976196289
40
0.0
41
0.0
42
0.0
10
80.4693984985352
20
74.5136032104492
40
0.0
41
0.0
42
0.0
10
80.33740234375
20
74.7143020629883
40
0.0
41
0.0
42
0.0
10
80.1855010986328
20
75.0065002441406
40
0.0
41
0.0
42
0.0
10
80.0922012329102
20
75.0845031738281
40
0.0
41
0.0
42
0.0
10
80.0063018798828
20
75.1596984863281
40
0.0
41
0.0
42
0.0
10
79.7425994873047
20
75.3788986206055
40
0.0
41
0.0
42
0.0
10
79.5774002075195
20
75.5037002563477
40
0.0
41
0.0
42
0.0
10
79.5063018798828
20
75.5669021606445
40
0.0
41
0.0
42
0.0
10
79.2113037109375
20
75.8070983886719
40
0.0
41
0.0
42
0.0
10
79.0065994262695
20
75.9893035888672
40
0.0
41
0.0
42
0.0
10
78.9813003540039
20
76.00830078125
40
0.0
41
0.0
42
0.0
10
79.0044021606445
20
76.4176025390625
40
0.0
41
0.0
42
0.0
10
79.0140991210938
20
76.4865036010742
40
0.0
41
0.0
42
0.0
10
79.0468978881836
20
76.5490036010742
40
0.0
41
0.0
42
0.0
10
79.1455993652344
20
76.7835998535156
40
0.0
41
0.0
42
0.0
10
79.2431030273438
20
76.9879989624023
40
0.0
41
0.0
42
0.0
10
79.3452987670898
20
77.2822036743164
40
0.0
41
0.0
42
0.0
10
79.4235000610352
20
77.4851989746094
40
0.0
41
0.0
42
0.0
10
79.4856033325195
20
77.9400024414062
40
0.0
41
0.0
42
0.0
10
79.4900970458984
20
77.9811019897461
40
0.0
41
0.0
42
0.0
10
79.4899978637695
20
78.0164031982422
40
0.0
41
0.0
42
0.0
10
79.4395980834961
20
78.1631011962891
40
0.0
41
0.0
42
0.0
10
79.4012985229492
20
78.2132034301758
40
0.0
41
0.0
42
0.0
10
79.2301025390625
20
78.5030975341797
40
0.0
41
0.0
42
0.0
10
79.070198059082
20
78.568603515625
40
0.0
41
0.0
42
0.0
10
79.0141983032227
20
78.5983963012695
40
0.0
41
0.0
42
0.0
10
78.8126983642578
20
78.6082992553711
40
0.0
41
0.0
42
0.0
10
78.5182037353516
20
78.6574020385742
40
0.0
41
0.0
42
0.0
10
78.481201171875
20
78.6573028564453
40
0.0
41
0.0
42
0.0
10
78.2770004272461
20
78.6328964233398
40
0.0
41
0.0
42
0.0
10
77.9824981689453
20
78.6108016967773
40
0.0
41
0.0
42
0.0
10
77.7786026000977
20
78.576301574707
40
0.0
41
0.0
42
0.0
10
77.5034027099609
20
78.526496887207
40
0.0
41
0.0
42
0.0
10
77.3116989135742
20
78.5813980102539
40
0.0
41
0.0
42
0.0
10
77.0081024169922
20
78.5898971557617
40
0.0
41
0.0
42
0.0
10
76.8234024047852
20
78.8824996948242
40
0.0
41
0.0
42
0.0
10
76.7640991210938
20
79.0118026733398
40
0.0
41
0.0
42
0.0
10
76.6847991943359
20
79.216796875
40
0.0
41
0.0
42
0.0
10
76.549201965332
20
79.5112991333008
40
0.0
41
0.0
42
0.0
10
76.4820022583008
20
79.663200378418
40
0.0
41
0.0
42
0.0
10
76.2779006958008
20
80.0077972412109
40
0.0
41
0.0
42
0.0
10
76.1006011962891
20
80.2232971191406
40
0.0
41
0.0
42
0.0
10
76.0077972412109
20
80.3495025634766
40
0.0
41
0.0
42
0.0
10
75.6704025268555
20
80.4163970947266
40
0.0
41
0.0
42
0.0
10
75.5164031982422
20
80.4694976806641
40
0.0
41
0.0
42
0.0
10
75.486198425293
20
80.4693984985352
40
0.0
41
0.0
42
0.0
10
75.2855987548828
20
80.33740234375
40
0.0
41
0.0
42
0.0
10
74.9934005737305
20
80.1855010986328
40
0.0
41
0.0
42
0.0
10
74.9152984619141
20
80.0922012329102
40
0.0
41
0.0
42
0.0
10
74.8399963378906
20
80.0063018798828
40
0.0
41
0.0
42
0.0
10
74.6207962036133
20
79.7425994873047
40
0.0
41
0.0
42
0.0
10
74.4962005615234
20
79.5774002075195
40
0.0
41
0.0
42
0.0
10
74.4328002929688
20
79.5064010620117
40
0.0
41
0.0
42
0.0
10
74.1927032470703
20
79.2114028930664
40
0.0
41
0.0
42
0.0
10
74.010498046875
20
79.0066986083984
40
0.0
41
0.0
42
0.0
10
73.99169921875
20
78.9813003540039
40
0.0
41
0.0
42
0.0
10
73.5821990966797
20
79.0044021606445
40
0.0
41
0.0
42
0.0
10
73.5133972167969
20
79.0139999389648
40
0.0
41
0.0
42
0.0
10
73.450798034668
20
79.0468978881836
40
0.0
41
0.0
42
0.0
10
73.2163009643555
20
79.1455001831055
40
0.0
41
0.0
42
0.0
10
73.0119018554688
20
79.2429962158203
40
0.0
41
0.0
42
0.0
10
72.7176971435547
20
79.3452987670898
40
0.0
41
0.0
42
0.0
10
72.5147018432617
20
79.4235000610352
40
0.0
41
0.0
42
0.0
10
72.0597991943359
20
79.4856033325195
40
0.0
41
0.0
42
0.0
10
72.018798828125
20
79.4900970458984
40
0.0
41
0.0
42
0.0
10
71.9834976196289
20
79.4899978637695
40
0.0
41
0.0
42
0.0
10
71.8367004394531
20
79.4395980834961
40
0.0
41
0.0
42
0.0
10
71.7866973876953
20
79.4012985229492
40
0.0
41
0.0
42
0.0
10
71.496696472168
20
79.2302017211914
40
0.0
41
0.0
42
0.0
10
71.4310989379883
20
79.070198059082
40
0.0
41
0.0
42
0.0
10
71.4008026123047
20
79.0130996704102
40
0.0
41
0.0
42
0.0
10
71.3525009155273
20
78.7227020263672
40
0.0
41
0.0
42
0.0
10
71.3424987792969
20
78.519401550293
40
0.0
41
0.0
42
0.0
10
71.342399597168
20
78.4806976318359
40
0.0
41
0.0
42
0.0
10
71.3644027709961
20
78.1869964599609
40
0.0
41
0.0
42
0.0
10
71.388801574707
20
77.9831008911133
40
0.0
41
0.0
42
0.0
10
71.4421005249023
20
77.6885986328125
40
0.0
41
0.0
42
0.0
10
71.4761962890625
20
77.4870986938477
40
0.0
41
0.0
42
0.0
10
71.4688034057617
20
77.2217025756836
40
0.0
41
0.0
42
0.0
10
71.4072036743164
20
77.0064010620117
40
0.0
41
0.0
42
0.0
10
71.117301940918
20
76.8235015869141
40
0.0
41
0.0
42
0.0
10
70.9880981445312
20
76.7640991210938
40
0.0
41
0.0
42
0.0
10
70.7830963134766
20
76.6847991943359
40
0.0
41
0.0
42
0.0
10
70.4886016845703
20
76.5493011474609
40
0.0
41
0.0
42
0.0
10
70.3366012573242
20
76.4820022583008
40
0.0
41
0.0
42
0.0
10
69.9921035766602
20
76.2779998779297
40
0.0
41
0.0
42
0.0
10
69.776496887207
20
76.1006011962891
40
0.0
41
0.0
42
0.0
10
69.6501998901367
20
76.0078964233398
40
0.0
41
0.0
42
0.0
10
69.5832977294922
20
75.6704025268555
40
0.0
41
0.0
42
0.0
10
69.530403137207
20
75.5164031982422
40
0.0
41
0.0
42
0.0
10
69.5302963256836
20
75.4860992431641
40
0.0
41
0.0
42
0.0
10
69.5531997680664
20
75.4503021240234
40
0.0
41
0.0
42
0.0
210
0.0
220
0.0
230
1.0
0
LWPOLYLINE
5
27
330
1C
100
AcDbEntity
67
0
8
0
62
256
6
ByLayer
370
-1
48
1.0
60
0
100
AcDbPolyline
90
173
70
1
38
0.0
39
0.0
10
69.5477981567383
20
75.5029983520508
40
0.0
41
0.0
42
0.0
10
69.6184005737305
20
75.7085037231445
40
0.0
41
0.0
42
0.0
10
69.6745986938477
20
75.9919967651367
40
0.0
41
0.0
42
0.0
10
69.8328018188477
20
76.1083984375
40
0.0
41
0.0
42
0.0
10
70.0078964233398
20
76.252197265625
40
0.0
41
0.0
42
0.0
10
70.3871002197266
20
76.4767990112305
40
0.0
41
0.0
42
0.0
10
70.5112991333008
20
76.5317993164062
40
0.0
41
0.0
42
0.0
10
70.8468017578125
20
76.6862030029297
40
0.0
41
0.0
42
0.0
10
71.0118026733398
20
76.75
40
0.0
41
0.0
42
0.0
10
71.1123962402344
20
76.7963027954102
40
0.0
41
0.0
42
0.0
10
71.4245986938477
20
76.9934005737305
40
0.0
41
0.0
42
0.0
10
71.4689025878906
20
77.1482009887695
40
0.0
41
0.0
42
0.0
10
71.4783020019531
20
77.4802017211914
40
0.0
41
0.0
42
0.0
10
71.4781036376953
20
77.5182037353516
40
0.0
41
0.0
42
0.0
10
71.4505004882812
20
77.6812973022461
40
0.0
41
0.0
42
0.0
10
71.3897018432617
20
78.0167999267578
40
0.0
41
0.0
42
0.0
10
71.370002746582
20
78.1828994750977
40
0.0
41
0.0
42
0.0
10
71.3460006713867
20
78.5037002563477
40
0.0
41
0.0
42
0.0
10
71.3531036376953
20
78.6472015380859
40
0.0
41
0.0
42
0.0
10
71.4095001220703
20
78.9868011474609
40
0.0
41
0.0
42
0.0
10
71.4461975097656
20
79.0561981201172
40
0.0
41
0.0
42
0.0
10
71.503303527832
20
79.1949005126953
40
0.0
41
0.0
42
0.0
10
71.8432006835938
20
79.3955993652344
40
0.0
41
0.0
42
0.0
10
71.8864974975586
20
79.4287033081055
40
0.0
41
0.0
42
0.0
10
72.0080032348633
20
79.4703979492188
40
0.0
41
0.0
42
0.0
10
72.1141967773438
20
79.4588012695312
40
0.0
41
0.0
42
0.0
10
72.4851989746094
20
79.408203125
40
0.0
41
0.0
42
0.0
10
72.6521987915039
20
79.3439025878906
40
0.0
41
0.0
42
0.0
10
72.9878997802734
20
79.2272033691406
40
0.0
41
0.0
42
0.0
10
73.1535034179688
20
79.1483001708984
40
0.0
41
0.0
42
0.0
10
73.4206008911133
20
79.0358963012695
40
0.0
41
0.0
42
0.0
10
73.4857025146484
20
79.0017013549805
40
0.0
41
0.0
42
0.0
10
73.980598449707
20
78.9728012084961
40
0.0
41
0.0
42
0.0
10
74.0093002319336
20
78.9728012084961
40
0.0
41
0.0
42
0.0
10
74.0243988037109
20
78.9932022094727
40
0.0
41
0.0
42
0.0
10
74.1717987060547
20
79.1585998535156
40
0.0
41
0.0
42
0.0
10
74.4452972412109
20
79.4945983886719
40
0.0
41
0.0
42
0.0
10
74.5037002563477
20
79.5604019165039
40
0.0
41
0.0
42
0.0
10
74.6035995483398
20
79.6929016113281
40
0.0
41
0.0
42
0.0
10
74.8535995483398
20
79.9935989379883
40
0.0
41
0.0
42
0.0
10
74.9391021728516
20
80.0912017822266
40
0.0
41
0.0
42
0.0
10
75.0065994262695
20
80.1717987060547
40
0.0
41
0.0
42
0.0
10
75.3442993164062
20
80.347297668457
40
0.0
41
0.0
42
0.0
10
75.5029983520508
20
80.4518966674805
40
0.0
41
0.0
42
0.0
10
75.7083969116211
20
80.3813018798828
40
0.0
41
0.0
42
0.0
10
75.9919967651367
20
80.3251037597656
40
0.0
41
0.0
42
0.0
10
76.1082992553711
20
80.1669006347656
40
0.0
41
0.0
42
0.0
10
76.252197265625
20
79.9919967651367
40
0.0
41
0.0
42
0.0
10
76.4767990112305
20
79.6126022338867
40
0.0
41
0.0
42
0.0
10
76.5317993164062
20
79.4886016845703
40
0.0
41
0.0
42
0.0
10
76.6862030029297
20
79.1530990600586
40
0.0
41
0.0
42
0.0
10
76.75
20
78.9880981445312
40
0.0
41
0.0
42
0.0
10
76.7963027954102
20
78.8873977661133
40
0.0
41
0.0
42
0.0
10
76.99169921875
20
78.5777969360352
40
0.0
41
0.0
42
0.0
10
77.3181991577148
20
78.5687026977539
40
0.0
41
0.0
42
0.0
10
77.4829025268555
20
78.521598815918
40
0.0
41
0.0
42
0.0
10
77.5180969238281
20
78.5214996337891
40
0.0
41
0.0
42
0.0
10
77.8513031005859
20
78.581901550293
40
0.0
41
0.0
42
0.0
10
78.0174026489258
20
78.6100997924805
40
0.0
41
0.0
42
0.0
10
78.352897644043
20
78.6352005004883
40
0.0
41
0.0
42
0.0
10
78.4971008300781
20
78.6523971557617
40
0.0
41
0.0
42
0.0
10
78.8171997070312
20
78.5991973876953
40
0.0
41
0.0
42
0.0
10
78.9856033325195
20
78.5907974243164
40
0.0
41
0.0
42
0.0
10
79.0560989379883
20
78.5534973144531
40
0.0
41
0.0
42
0.0
10
79.1949005126953
20
78.4965972900391
40
0.0
41
0.0
42
0.0
10
79.3955001831055
20
78.1566009521484
40
0.0
41
0.0
42
0.0
10
79.428596496582
20
78.1132965087891
40
0.0
41
0.0
42
0.0
10
79.4703979492188
20
77.9918975830078
40
0.0
41
0.0
42
0.0
10
79.4588012695312
20
77.8855972290039
40
0.0
41
0.0
42
0.0
10
79.4083023071289
20
77.5147018432617
40
0.0
41
0.0
42
0.0
10
79.3439025878906
20
77.3477020263672
40
0.0
41
0.0
42
0.0
10
79.2273025512695
20
77.0120010375977
40
0.0
41
0.0
42
0.0
10
79.1483001708984
20
76.8463973999023
40
0.0
41
0.0
42
0.0
10
79.0358963012695
20
76.5792007446289
40
0.0
41
0.0
42
0.0
10
79.0017013549805
20
76.5141983032227
40
0.0
41
0.0
42
0.0
10
78.9728012084961
20
76.0193023681641
40
0.0
41
0.0
42
0.0
10
78.9727020263672
20
75.9905014038086
40
0.0
41
0.0
42
0.0
10
78.9931030273438
20
75.9753036499023
40
0.0
41
0.0
42
0.0
10
79.1585006713867
20
75.8280029296875
40
0.0
41
0.0
42
0.0
10
79.4934997558594
20
75.5552978515625
40
0.0
41
0.0
42
0.0
10
79.5605010986328
20
75.4960021972656
40
0.0
41
0.0
42
0.0
10
79.6929016113281
20
75.3962020874023
40
0.0
41
0.0
42
0.0
10
79.9934997558594
20
75.1462020874023
40
0.0
41
0.0
42
0.0
10
80.0912017822266
20
75.0606994628906
40
0.0
41
0.0
42
0.0
10
80.1717987060547
20
74.9933013916016
40
0.0
41
0.0
42
0.0
10
80.3471984863281
20
74.6556015014648
40
0.0
41
0.0
42
0.0
10
80.4518966674805
20
74.4969024658203
40
0.0
41
0.0
42
0.0
10
80.3813018798828
20
74.2913970947266
40
0.0
41
0.0
42
0.0
10
80.3252029418945
20
74.0077972412109
40
0.0
41
0.0
42
0.0
10
80.1669998168945
20
73.8914031982422
40
0.0
41
0.0
42
0.0
10
79.9919967651367
20
73.7474975585938
40
0.0
41
0.0
42
0.0
10
79.6127014160156
20
73.5230026245117
40
0.0
41
0.0
42
0.0
10
79.4886016845703
20
73.467903137207
40
0.0
41
0.0
42
0.0
10
79.1530990600586
20
73.3134994506836
40
0.0
41
0.0
42
0.0
10
78.9880981445312
20
73.2497024536133
40
0.0
41
0.0
42
0.0
10
78.8873977661133
20
73.2033996582031
40
0.0
41
0.0
42
0.0
10
78.5777969360352
20
73.0082015991211
40
0.0
41
0.0
42
0.0
10
78.5687026977539
20
72.6817016601562
40
0.0
41
0.0
42
0.0
10
78.521598815918
20
72.5169982910156
40
0.0
41
0.0
42
0.0
10
78.5214996337891
20
72.4817962646484
40
0.0
41
0.0
42
0.0
10
78.581901550293
20
72.1485977172852
40
0.0
41
0.0
42
0.0
10
78.6100997924805
20
71.9824981689453
40
0.0
41
0.0
42
0.0
10
78.6352005004883
20
71.6470031738281
40
0.0
41
0.0
42
0.0
10
78.6524963378906
20
71.502799987793
40
0.0
41
0.0
42
0.0
10
78.5991973876953
20
71.1827011108398
40
0.0
41
0.0
42
0.0
10
78.5908966064453
20
71.0142974853516
40
0.0
41
0.0
42
0.0
10
78.553596496582
20
70.943603515625
40
0.0
41
0.0
42
0.0
10
78.496696472168
20
70.8049011230469
40
0.0
41
0.0
42
0.0
10
78.1567001342773
20
70.6042022705078
40
0.0
41
0.0
42
0.0
10
78.1132965087891
20
70.5710983276367
40
0.0
41
0.0
42
0.0
10
77.9918975830078
20
70.529296875
40
0.0
41
0.0
42
0.0
10
77.8855972290039
20
70.540901184082
40
0.0
41
0.0
42
0.0
10
77.5147018432617
20
70.5914993286133
40
0.0
41
0.0
42
0.0
10
77.3477020263672
20
70.6558990478516
40
0.0
41
0.0
42
0.0
10
77.0119018554688
20
70.7723999023438
40
0.0
41
0.0
42
0.0
10
76.8462982177734
20
70.8514022827148
40
0.0
41
0.0
42
0.0
10
76.5792007446289
20
70.9637985229492
40
0.0
41
0.0
42
0.0
10
76.5141983032227
20
70.9980010986328
40
0.0
41
0.0
42
0.0
10
76.0193023681641
20
71.027099609375
40
0.0
41
0.0
42
0.0
10
75.9905014038086
20
71.027099609375
40
0.0
41
0.0
42
0.0
10
75.9753036499023
20
71.0066986083984
40
0.0
41
0.0
42
0.0
10
75.8280029296875
20
70.8414001464844
40
0.0
41
0.0
42
0.0
10
75.5556030273438
20
70.5065002441406
40
0.0
41
0.0
42
0.0
10
75.4960021972656
20
70.4393005371094
40
0.0
41
0.0
42
0.0
10
75.3962020874023
20
70.306999206543
40
0.0
41
0.0
42
0.0
10
75.1463012695312
20
70.0063018798828
40
0.0
41
0.0
42
0.0
10
75.0606994628906
20
69.9085998535156
40
0.0
41
0.0
42
0.0
10
74.9934005737305
20
69.8280029296875
40
0.0
41
0.0
42
0.0
10
74.6556015014648
20
69.6524963378906
40
0.0
41
0.0
42
0.0
10
74.4969024658203
20
69.5477981567383
40
0.0
41
0.0
42
0.0
10
74.2912979125977
20
69.6184005737305
40
0.0
41
0.0
42
0.0
10
74.0077972412109
20
69.6744995117188
40
0.0
41
0.0
42
0.0
10
73.8914031982422
20
69.8328018188477
40
0.0
41
0.0
42
0.0
10
73.7474975585938
20
70.0077972412109
40
0.0
41
0.0
42
0.0
10
73.5229034423828
20
70.3871002197266
40
0.0
41
0.0
42
0.0
10
73.467903137207
20
70.5112991333008
40
0.0
41
0.0
42
0.0
10
73.3134994506836
20
70.8468017578125
40
0.0
41
0.0
42
0.0
10
73.2497024536133
20
71.0118026733398
40
0.0
41
0.0
42
0.0
10
73.2033996582031
20
71.1123962402344
40
0.0
41
0.0
42
0.0
10
73.0065002441406
20
71.4245986938477
40
0.0
41
0.0
42
0.0
10
72.8516998291016
20
71.4689025878906
40
0.0
41
0.0
42
0.0
10
72.5196990966797
20
71.4783020019531
40
0.0
41
0.0
42
0.0
10
72.4816970825195
20
71.4782028198242
40
0.0
41
0.0
42
0.0
10
72.318603515625
20
71.4505004882812
40
0.0
41
0.0
42
0.0
10
71.9831008911133
20
71.3897018432617
40
0.0
41
0.0
42
0.0
10
71.8170013427734
20
71.370002746582
40
0.0
41
0.0
42
0.0
10
71.4962005615234
20
71.3460006713867
40
0.0
41
0.0
42
0.0
10
71.3526992797852
20
71.3529968261719
40
0.0
41
0.0
42
0.0
10
71.0130996704102
20
71.4094009399414
40
0.0
41
0.0
42
0.0
10
70.943603515625
20
71.4460983276367
40
0.0
41
0.0
42
0.0
10
70.804801940918
20
71.5031967163086
40
0.0
41
0.0
42
0.0
10
70.6042022705078
20
71.8432006835938
40
0.0
41
0.0
42
0.0
10
70.5709991455078
20
71.8864974975586
40
0.0
41
0.0
42
0.0
10
70.529296875
20
72.0080032348633
40
0.0
41
0.0
42
0.0
10
70.540901184082
20
72.1141967773438
40
0.0
41
0.0
42
0.0
10
70.5914993286133
20
72.4851989746094
40
0.0
41
0.0
42
0.0
10
70.6558990478516
20
72.6521987915039
40
0.0
41
0.0
42
0.0
10
70.7724990844727
20
72.9878997802734
40
0.0
41
0.0
42
0.0
10
70.8515014648438
20
73.1536026000977
40
0.0
41
0.0
42
0.0
10
70.9638977050781
20
73.4206008911133
40
0.0
41
0.0
42
0.0
10
70.9980010986328
20
73.4857025146484
40
0.0
41
0.0
42
0.0
10
71.027099609375
20
73.980598449707
40
0.0
41
0.0
42
0.0
10
71.0270004272461
20
74.0093994140625
40
0.0
41
0.0
42
0.0
10
71.0066986083984
20
74.0243988037109
40
0.0
41
0.0
42
0.0
10
70.8413009643555
20
74.1716995239258
40
0.0
41
0.0
42
0.0
10
70.5065002441406
20
74.4441986083984
40
0.0
41
0.0
42
0.0
10
70.4393997192383
20
74.5036010742188
40
0.0
41
0.0
42
0.0
10
70.306999206543
20
74.6035003662109
40
0.0
41
0.0
42
0.0
10
70.0062026977539
20
74.8535003662109
40
0.0
41
0.0
42
0.0
10
69.9085006713867
20
74.9390029907227
40
0.0
41
0.0
42
0.0
10
69.8280029296875
20
75.0065002441406
40
0.0
41
0.0
42
0.0
10
69.6524963378906
20
75.3442993164062
40
0.0
41
0.0
42
0.0
10
69.5477981567383
20
75.5029983520508
40
0.0
41
0.0
42
0.0
210
0.0
220
0.0
230
1.0
0
LWPOLYLINE
5
28
330
1C
100
AcDbEntity
67
0
8
0
62
256
6
ByLayer
370
-1
48
1.0
60
0
100
AcDbPolyline
90
13
70
1
38
0.0
39
0.0
10
73.8891983032227
20
75.4868011474609
40
0.0
41
0.0
42
0.0
10
73.9406967163086
20
75.4162979125977
40
0.0
41
0.0
42
0.0
10
73.9887008666992
20
75.3683013916016
40
0.0
41
0.0
42
0.0
10
74.013298034668
20
75.3682022094727
40
0.0
41
0.0
42
0.0
10
74.1172027587891
20
75.4413986206055
40
0.0
41
0.0
42
0.0
10
74.1783981323242
20
75.4900970458984
40
0.0
41
0.0
42
0.0
10
74.1782989501953
20
75.5066986083984
40
0.0
41
0.0
42
0.0
10
74.0794982910156
20
75.5533981323242
40
0.0
41
0.0
42
0.0
10
74.0141983032227
20
75.5924987792969
40
0.0
41
0.0
42
0.0
10
73.9881973266602
20
75.592399597168
40
0.0
41
0.0
42
0.0
10
73.9367980957031
20
75.5451965332031
40
0.0
41
0.0
42
0.0
10
73.8892974853516
20
75.5094985961914
40
0.0
41
0.0
42
0.0
10
73.8891983032227
20
75.4868011474609
40
0.0
41
0.0
42
0.0
210
0.0
220
0.0
230
1.0
0
LWPOLYLINE
5
29
330
1C
100
AcDbEntity
67
0
8
0
62
256
6
ByLayer
370
-1
48
1.0
60
0
100
AcDbPolyline
90
9
70
1
38
0.0
39
0.0
10
74.0016021728516
20
75.5803985595703
40
0.0
41
0.0
42
0.0
10
74.0687026977539
20
75.5402984619141
40
0.0
41
0.0
42
0.0
10
74.1552963256836
20
75.499397277832
40
0.0
41
0.0
42
0.0
10
74.0809020996094
20
75.4402008056641
40
0.0
41
0.0
42
0.0
10
74.0009994506836
20
75.3840026855469
40
0.0
41
0.0
42
0.0
10
73.9412994384766
20
75.4440002441406
40
0.0
41
0.0
42
0.0
10
73.9016036987305
20
75.4984970092773
40
0.0
41
0.0
42
0.0
10
73.9608993530273
20
75.543098449707
40
0.0
41
0.0
42
0.0
10
74.0016021728516
20
75.5803985595703
40
0.0
41
0.0
42
0.0
210
0.0
220
0.0
230
1.0
0
LWPOLYLINE
5
2A
330
1C
100
AcDbEntity
67
0
8
0
62
256
6
ByLayer
370
-1
48
1.0
60
0
100
AcDbPolyline
90
13
70
1
38
0.0
39
0.0
10
74.4073028564453
20
73.9880981445312
40
0.0
41
0.0
42
0.0
10
74.4544982910156
20
73.9367980957031
40
0.0
41
0.0
42
0.0
10
74.4904022216797
20
73.8892974853516
40
0.0
41
0.0
42
0.0
10
74.5130996704102
20
73.8891983032227
40
0.0
41
0.0
42
0.0
10
74.5836029052734
20
73.940803527832
40
0.0
41
0.0
42
0.0
10
74.6315994262695
20
73.9887008666992
40
0.0
41
0.0
42
0.0
10
74.6315002441406
20
74.013298034668
40
0.0
41
0.0
42
0.0
10
74.5584030151367
20
74.1171035766602
40
0.0
41
0.0
42
0.0
10
74.5098037719727
20
74.1783981323242
40
0.0
41
0.0
42
0.0
10
74.4932022094727
20
74.1783981323242
40
0.0
41
0.0
42
0.0
10
74.4462966918945
20
74.0795974731445
40
0.0
41
0.0
42
0.0
10
74.4074020385742
20
74.0141983032227
40
0.0
41
0.0
42
0.0
10
74.4073028564453
20
73.9880981445312
40
0.0
41
0.0
42
0.0
210
0.0
220
0.0
230
1.0
0
LWPOLYLINE
5
2B
330
1C
100
AcDbEntity
67
0
8
0
62
256
6
ByLayer
370
-1
48
1.0
60
0
100
AcDbPolyline
90
9
70
1
38
0.0
39
0.0
10
74.4593963623047
20
74.0688018798828
40
0.0
41
0.0
42
0.0
10
74.500602722168
20
74.1551971435547
40
0.0
41
0.0
42
0.0
10
74.5595016479492
20
74.0809020996094
40
0.0
41
0.0
42
0.0
10
74.6156997680664
20
74.0009994506836
40
0.0
41
0.0
42
0.0
10
74.5558013916016
20
73.9412994384766
40
0.0
41
0.0
42
0.0
10
74.5014038085938
20
73.901496887207
40
0.0
41
0.0
42
0.0
10
74.4565963745117
20
73.9608001708984
40
0.0
41
0.0
42
0.0
10
74.4192962646484
20
74.0016021728516
40
0.0
41
0.0
42
0.0
10
74.4593963623047
20
74.0688018798828
40
0.0
41
0.0
42
0.0
210
0.0
220
0.0
230
1.0
0
LWPOLYLINE
5
2C
330
1C
100
AcDbEntity
67
0
8
0
62
256
6
ByLayer
370
-1
48
1.0
60
0
100
AcDbPolyline
90
9
70
1
38
0.0
39
0.0
10
74.6399002075195
20
74.9886016845703
40
0.0
41
0.0
42
0.0
10
74.9886016845703
20
74.6399993896484
40
0.0
41
0.0
42
0.0
10
75.0111999511719
20
74.6399993896484
40
0.0
41
0.0
42
0.0
10
75.3599014282227
20
74.9886016845703
40
0.0
41
0.0
42
0.0
10
75.3598022460938
20
75.0111999511719
40
0.0
41
0.0
42
0.0
10
75.0112991333008
20
75.3599014282227
40
0.0
41
0.0
42
0.0
10
74.9886016845703
20
75.3598022460938
40
0.0
41
0.0
42
0.0
10
74.6399993896484
20
75.0111999511719
40
0.0
41
0.0
42
0.0
10
74.6399002075195
20
74.9886016845703
40
0.0
41
0.0
42
0.0
210
0.0
220
0.0
230
1.0
0
LWPOLYLINE
5
2D
330
1C
100
AcDbEntity
67
0
8
0
62
256
6
ByLayer
370
-1
48
1.0
60
0
100
AcDbPolyline
90
5
70
1
38
0.0
39
0.0
10
75.0
20
75.3394012451172
40
0.0
41
0.0
42
0.0
10
75.3395004272461
20
75.0
40
0.0
41
0.0
42
0.0
10
75.0
20
74.660400390625
40
0.0
41
0.0
42
0.0
10
74.6604995727539
20
75.0
40
0.0
41
0.0
42
0.0
10
75.0
20
75.3394012451172
40
0.0
41
0.0
42
0.0
210
0.0
220
0.0
230
1.0
0
LWPOLYLINE
5
2E
330
1C
100
AcDbEntity
67
0
8
0
62
256
6
ByLayer
370
-1
48
1.0
60
0
100
AcDbPolyline
90
13
70
1
38
0.0
39
0.0
10
75.3681030273438
20
75.9866027832031
40
0.0
41
0.0
42
0.0
10
75.4412994384766
20
75.8825988769531
40
0.0
41
0.0
42
0.0
10
75.4900970458984
20
75.8215026855469
40
0.0
41
0.0
42
0.0
10
75.5066986083984
20
75.821403503418
40
0.0
41
0.0
42
0.0
10
75.5534973144531
20
75.9201965332031
40
0.0
41
0.0
42
0.0
10
75.5924987792969
20
75.9857025146484
40
0.0
41
0.0
42
0.0
10
75.592399597168
20
76.0117034912109
40
0.0
41
0.0
42
0.0
10
75.5450973510742
20
76.0630035400391
40
0.0
41
0.0
42
0.0
10
75.5094985961914
20
76.1106033325195
40
0.0
41
0.0
42
0.0
10
75.4868011474609
20
76.1106033325195
40
0.0
41
0.0
42
0.0
10
75.4162979125977
20
76.0589981079102
40
0.0
41
0.0
42
0.0
10
75.3683013916016
20
76.0111999511719
40
0.0
41
0.0
42
0.0
10
75.3681030273438
20
75.9866027832031
40
0.0
41
0.0
42
0.0
210
0.0
220
0.0
230
1.0
0
LWPOLYLINE
5
2F
330
1C
100
AcDbEntity
67
0
8
0
62
256
6
ByLayer
370
-1
48
1.0
60
0
100
AcDbPolyline
90
9
70
1
38
0.0
39
0.0
10
75.4984970092773
20
76.0980987548828
40
0.0
41
0.0
42
0.0
10
75.543098449707
20
76.0389022827148
40
0.0
41
0.0
42
0.0
10
75.5804977416992
20
75.9983978271484
40
0.0
41
0.0
42
0.0
10
75.540397644043
20
75.9310989379883
40
0.0
41
0.0
42
0.0
10
75.499397277832
20
75.8444976806641
40
0.0
41
0.0
42
0.0
10
75.4402008056641
20
75.9188003540039
40
0.0
41
0.0
42
0.0
10
75.3841018676758
20
75.9989013671875
40
0.0
41
0.0
42
0.0
10
75.4440994262695
20
76.0584030151367
40
0.0
41
0.0
42
0.0
10
75.4984970092773
20
76.0980987548828
40
0.0
41
0.0
42
0.0
210
0.0
220
0.0
230
1.0
0
LWPOLYLINE
5
30
330
1C
100
AcDbEntity
67
0
8
0
62
256
6
ByLayer
370
-1
48
1.0
60
0
100
AcDbPolyline
90
13
70
1
38
0.0
39
0.0
10
75.821403503418
20
74.4932022094727
40
0.0
41
0.0
42
0.0
10
75.9201965332031
20
74.4461975097656
40
0.0
41
0.0
42
0.0
10
75.9857025146484
20
74.4074020385742
40
0.0
41
0.0
42
0.0
10
76.0117034912109
20
74.4074020385742
40
0.0
41
0.0
42
0.0
10
76.0630035400391
20
74.4545974731445
40
0.0
41
0.0
42
0.0
10
76.1106033325195
20
74.4904022216797
40
0.0
41
0.0
42
0.0
10
76.1104965209961
20
74.5130996704102
40
0.0
41
0.0
42
0.0
10
76.0589981079102
20
74.5835037231445
40
0.0
41
0.0
42
0.0
10
76.0111999511719
20
74.6315994262695
40
0.0
41
0.0
42
0.0
10
75.9866027832031
20
74.6315994262695
40
0.0
41
0.0
42
0.0
10
75.8825988769531
20
74.5584030151367
40
0.0
41
0.0
42
0.0
10
75.8215026855469
20
74.5098037719727
40
0.0
41
0.0
42
0.0
10
75.821403503418
20
74.4932022094727
40
0.0
41
0.0
42
0.0
210
0.0
220
0.0
230
1.0
0
LWPOLYLINE
5
31
330
1C
100
AcDbEntity
67
0
8
0
62
256
6
ByLayer
370
-1
48
1.0
60
0
100
AcDbPolyline
90
9
70
1
38
0.0
39
0.0
10
75.9188995361328
20
74.5595016479492
40
0.0
41
0.0
42
0.0
10
75.9989013671875
20
74.6156005859375
40
0.0
41
0.0
42
0.0
10
76.0584030151367
20
74.5557022094727
40
0.0
41
0.0
42
0.0
10
76.0981979370117
20
74.5015029907227
40
0.0
41
0.0
42
0.0
10
76.0389022827148
20
74.4567031860352
40
0.0
41
0.0
42
0.0
10
75.9983978271484
20
74.4191970825195
40
0.0
41
0.0
42
0.0
10
75.9309997558594
20
74.4593963623047
40
0.0
41
0.0
42
0.0
10
75.8447036743164
20
74.500602722168
40
0.0
41
0.0
42
0.0
10
75.9188995361328
20
74.5595016479492
40
0.0
41
0.0
42
0.0
210
0.0
220
0.0
230
1.0
0
VIEWPORT
5
36
330
32
100
AcDbEntity
67
1
8
0
62
256
6
ByLayer
370
-1
48
1.0
60
0
100
AcDbViewport
10
0.0
20
0.0
30
0.0
40
297.0
41
210.0
68
1
69
1
12
50.0
22
100.0
13
0.0
23
0.0
14
10.0
24
10.0
15
10.0
25
10.0
16
0.0
26
0.0
36
1.0
17
0.0
27
0.0
37
0.0
42
50.0
43
0.0
44
0.0
45
250.0
50
0.0
51
0.0
72
1000
90
819232
110
0.0
120
0.0
130
0.0
111
1.0
121
0.0
131
0.0
112
0.0
122
1.0
132
0.0
0
ENDSEC
0
SECTION
2
OBJECTS
0
DICTIONARY
5
3C
330
0
100
AcDbDictionary
280
1
281
1
3
ACAD_GROUP
350
12
3
ACAD_LAYOUT
350
35
3
ACAD_DGNDEFINITIONS
350
F
3
ACAD_DWFDEFINITIONS
350
10
3
ACAD_PDFDEFINITIONS
350
11
3
ACAD_MLINESTYLE
350
B
3
ACAD_IMAGE_DICT
350
E
3
ACAD_IMAGE_VARS
350
21
0
DICTIONARY
5
12
330
3C
100
AcDbDictionary
280
1
281
1
0
DICTIONARY
5
35
330
3C
100
AcDbDictionary
280
1
281
1
3
Model
350
20
3
Layout1
350
37
0
DICTIONARY
5
F
330
3C
100
AcDbDictionary
280
1
281
1
0
DICTIONARY
5
10
330
3C
100
AcDbDictionary
280
1
281
1
0
DICTIONARY
5
11
330
3C
100
AcDbDictionary
280
1
281
1
0
DICTIONARY
5
B
330
3C
100
AcDbDictionary
280
1
281
1
3
Standard
350
1B
0
DICTIONARY
5
E
330
3C
100
AcDbDictionary
280
1
281
1
0
DICTIONARY
5
6
330
5
100
AcDbDictionary
280
1
281
1
3
ACAD_LAYERSTATES
360
3D
0
DICTIONARY
5
3D
330
6
100
AcDbDictionary
280
1
281
1
0
LAYOUT
5
20
330
35
100
AcDbPlotSettings
1

2
none_device
4
ISO_A4_(210.00_x_297.00_MM)
6

40
7.5
41
20.0
42
7.5
43
20.0
44
210.0
45
297.0
46
0.0
47
0.0
48
0.0
49
0.0
140
0.0
141
0.0
142
1.0
143
1.0
70
11952
72
1
73
1
74
1
7

75
0
76
0
77
2
78
300
147
1.0
148
0.0
149
0.0
100
AcDbLayout
1
Model
71
0
10
-20.0
20
-7.5
11
277.0
21
202.5
12
0.0
22
0.0
32
0.0
14
25.7
24
19.5
34
0.0
15
231.3
25
175.5
35
0.0
146
0.0
13
0.0
23
0.0
33
0.0
16
1.0
26
0.0
36
0.0
17
0.0
27
1.0
37
0.0
76
0
330
1C
0
LAYOUT
5
37
330
35
100
AcDbPlotSettings
1

2
none_device
4
ISO_A4_(210.00_x_297.00_MM)
6

40
7.5
41
20.0
42
7.5
43
20.0
44
210.0
45
297.0
46
0.0
47
0.0
48
0.0
49
0.0
140
0.0
141
0.0
142
1.0
143
1.0
70
688
72
1
73
1
74
1
7

75
0
76
0
77
2
78
300
147
1.0
148
0.0
149
0.0
100
AcDbLayout
1
Layout1
71
1
10
-20.0
20
-7.5
11
277.0
21
202.5
12
0.0
22
0.0
32
0.0
14
25.7
24
19.5
34
0.0
15
231.3
25
175.5
35
0.0
146
0.0
13
0.0
23
0.0
33
0.0
16
1.0
26
0.0
36
0.0
17
0.0
27
1.0
37
0.0
76
0
330
32
0
MLINESTYLE
5
1B
330
B
100
AcDbMlineStyle
2
Standard
70
0
3

62
256
51
90.0
52
90.0
71
2
49
0.5
62
256
6
ByLayer
49
-0.5
62
256
6
ByLayer
0
RASTERVARIABLES
5
21
330
E
100
AcDbRasterVariables
90
0
70
1
71
1
72
0
0
ENDSEC
0
EOF
