999
DXF file generated by netDxf https://github.com/haplokuon/netDxf, Copyright(C) Daniel Carvajal, Licensed under MIT
0
SECTION
2
HEADER
9
$ACADVER
1
AC1015
9
$DWGCODEPAGE
3
ANSI_1252
9
$HANDSEED
5
45
9
$ANGBASE
50
0.0
9
$ANGDIR
70
0
9
$ATTMODE
70
1
9
$AUNITS
70
0
9
$AUPREC
70
0
9
$CECOLOR
62
256
9
$CELTSCALE
40
1.0
9
$CELTYPE
6
ByLayer
9
$CELWEIGHT
370
-1
9
$CLAYER
8
0
9
$CMLJUST
70
0
9
$CMLSCALE
40
20.0
9
$CMLSTYLE
2
Standard
9
$DIMSTYLE
2
Standard
9
$TEXTSIZE
40
2.5
9
$TEXTSTYLE
7
Standard
9
$LUNITS
70
2
9
$LUPREC
70
4
9
$MIRRTEXT
70
0
9
$EXTNAMES
290
1
9
$INSBASE
10
0.0
20
0.0
30
0.0
9
$INSUNITS
70
0
9
$LTSCALE
40
1.0
9
$LWDISPLAY
290
0
9
$PDMODE
70
0
9
$PDSIZE
40
0.0
9
$PLINEGEN
70
0
9
$PSLTSCALE
70
1
9
$SPLINESEGS
70
8
9
$SURFU
70
6
9
$SURFV
70
6
9
$TDCREATE
40
2460823.48370817
9
$TDUCREATE
40
2460823.15037484
9
$TDUPDATE
40
2460823.48370817
9
$TDUUPDATE
40
2460823.15037484
9
$TDINDWG
40
0.0
9
$UCSORG
10
0.0
20
0.0
30
0.0
9
$UCSXDIR
10
1.0
20
0.0
30
0.0
9
$UCSYDIR
10
0.0
20
1.0
30
0.0
9
$DIMADEC
70
0
9
$DIMALT
70
0
9
$DIMALTD
70
2
9
$DIMALTF
40
25.4
9
$DIMALTRND
40
0.0
9
$DIMALTTD
70
2
9
$DIMALTTZ
70
0
9
$DIMALTU
70
2
9
$DIMALTZ
70
0
9
$DIMAPOST
1

9
$DIMATFIT
70
3
9
$DIMAUNIT
70
0
9
$DIMASZ
40
0.18
9
$DIMAZIN
70
0
9
$DIMSAH
70
0
9
$DIMBLK
1

9
$DIMLDRBLK
1

9
$DIMCEN
40
0.09
9
$DIMCLRD
70
0
9
$DIMCLRE
70
0
9
$DIMCLRT
70
0
9
$DIMDEC
70
4
9
$DIMDLE
40
0.0
9
$DIMDLI
40
0.38
9
$DIMDSEP
70
46
9
$DIMEXE
40
0.18
9
$DIMEXO
40
0.0625
9
$DIMFXLON
70
0
9
$DIMFXL
40
1.0
9
$DIMGAP
40
0.09
9
$DIMJUST
70
0
9
$DIMLFAC
40
1.0
9
$DIMLUNIT
70
2
9
$DIMLWD
70
-2
9
$DIMLWE
70
-2
9
$DIMPOST
1

9
$DIMRND
40
0.0
9
$DIMSCALE
40
1.0
9
$DIMSD1
70
0
9
$DIMSD2
70
0
9
$DIMSE1
70
0
9
$DIMSE2
70
0
9
$DIMSOXD
70
0
9
$DIMTAD
70
0
9
$DIMTDEC
70
4
9
$DIMTFAC
40
1.0
9
$DIMTIH
70
0
9
$DIMTIX
70
0
9
$DIMTM
40
0.0
9
$DIMTMOVE
70
0
9
$DIMTOFL
70
0
9
$DIMTOH
70
0
9
$DIMTOL
70
0
9
$DIMLIM
70
0
9
$DIMTOLJ
70
1
9
$DIMTP
40
0.0
9
$DIMTXT
40
0.18
9
$DIMTXTDIRECTION
70
0
9
$DIMTZIN
70
0
9
$DIMZIN
70
0
9
$DIMFRAC
70
0
9
$DIMLTYPE
6
ByBlock
9
$DIMLTEX1
6
ByBlock
9
$DIMLTEX2
6
ByBlock
0
ENDSEC
0
SECTION
2
CLASSES
0
CLASS
1
RASTERVARIABLES
2
AcDbRasterVariables
3
ISM
90
0
280
0
281
0
0
ENDSEC
0
SECTION
2
TABLES
0
TABLE
2
APPID
5
4
330
0
100
AcDbSymbolTable
70
5
0
APPID
5
19
330
4
100
AcDbSymbolTableRecord
100
AcDbRegAppTableRecord
2
ACAD
70
0
0
APPID
5
3F
330
4
100
AcDbSymbolTableRecord
100
AcDbRegAppTableRecord
2
AcCmTransparency
70
0
0
APPID
5
40
330
4
100
AcDbSymbolTableRecord
100
AcDbRegAppTableRecord
2
AcAecLayerStandard
70
0
0
APPID
5
41
330
4
100
AcDbSymbolTableRecord
100
AcDbRegAppTableRecord
2
GradientColor1ACI
70
0
0
APPID
5
42
330
4
100
AcDbSymbolTableRecord
100
AcDbRegAppTableRecord
2
GradientColor2ACI
70
0
0
ENDTAB
0
TABLE
2
VPORT
5
1
330
0
100
AcDbSymbolTable
70
1
0
VPORT
5
2
330
1
100
AcDbSymbolTableRecord
100
AcDbViewportTableRecord
2
*Active
70
0
10
0.0
20
0.0
11
1.0
21
1.0
12
0.0
22
0.0
13
0.0
23
0.0
14
0.5
24
0.5
15
10.0
25
10.0
16
0.0
26
0.0
36
1.0
17
0.0
27
0.0
37
0.0
40
10.0
41
1.0
75
0
76
1
0
ENDTAB
0
TABLE
2
LTYPE
5
7
330
0
100
AcDbSymbolTable
70
3
0
LTYPE
5
15
330
7
100
AcDbSymbolTableRecord
100
AcDbLinetypeTableRecord
2
Continuous
70
0
3
Solid line
72
65
73
0
40
0.0
0
LTYPE
5
16
330
7
100
AcDbSymbolTableRecord
100
AcDbLinetypeTableRecord
2
ByLayer
70
0
3

72
65
73
0
40
0.0
0
LTYPE
5
17
330
7
100
AcDbSymbolTableRecord
100
AcDbLinetypeTableRecord
2
ByBlock
70
0
3

72
65
73
0
40
0.0
0
ENDTAB
0
TABLE
2
LAYER
5
5
102
{ACAD_XDICTIONARY
360
6
102
}
330
0
100
AcDbSymbolTable
70
1
0
LAYER
5
14
330
5
100
AcDbSymbolTableRecord
100
AcDbLayerTableRecord
2
0
70
0
62
7
6
Continuous
290
1
370
-3
390
0
0
ENDTAB
0
TABLE
2
STYLE
5
8
330
0
100
AcDbSymbolTable
70
1
0
STYLE
5
18
330
8
100
AcDbSymbolTableRecord
100
AcDbTextStyleTableRecord
2
Standard
3
simplex.shx
70
0
71
0
40
0.0
41
1.0
42
0.0
50
0.0
0
ENDTAB
0
TABLE
2
DIMSTYLE
5
A
330
0
100
AcDbSymbolTable
70
1
100
AcDbDimStyleTable
0
DIMSTYLE
105
1A
330
A
100
AcDbSymbolTableRecord
100
AcDbDimStyleTableRecord
2
Standard
3

4

40
1.0
41
0.18
42
0.0625
43
0.38
44
0.18
45
0.0
46
0.0
47
0.0
48
0.0
49
1.0
70
0
71
0
72
0
73
0
74
0
75
0
76
0
77
0
78
0
79
0
140
0.18
141
0.09
143
25.4
144
1.0
146
1.0
147
0.09
148
0.0
170
0
171
2
172
0
174
0
175
0
176
0
177
0
178
0
179
0
271
4
272
4
273
2
274
2
275
0
276
0
277
2
278
46
279
0
280
0
281
0
282
0
283
1
284
0
285
0
286
0
289
3
290
0
294
0
340
18
173
0
345
17
346
17
347
17
371
-2
372
-2
0
ENDTAB
0
TABLE
2
VIEW
5
3
330
0
100
AcDbSymbolTable
70
0
0
ENDTAB
0
TABLE
2
UCS
5
C
330
0
100
AcDbSymbolTable
70
0
0
ENDTAB
0
TABLE
2
BLOCK_RECORD
5
D
330
0
100
AcDbSymbolTable
70
2
0
BLOCK_RECORD
5
1C
330
D
100
AcDbSymbolTableRecord
100
AcDbBlockTableRecord
2
*Model_Space
340
20
0
BLOCK_RECORD
5
39
330
D
100
AcDbSymbolTableRecord
100
AcDbBlockTableRecord
2
*Paper_Space
340
3E
0
ENDTAB
0
ENDSEC
0
SECTION
2
BLOCKS
0
BLOCK
5
1E
330
1C
100
AcDbEntity
67
0
8
0
100
AcDbBlockBegin
2
*Model_Space
70
0
10
0.0
20
0.0
30
0.0
3
*Model_Space
4

0
ENDBLK
5
1D
330
1C
100
AcDbEntity
8
0
100
AcDbBlockEnd
0
BLOCK
5
3B
330
39
100
AcDbEntity
67
1
8
0
100
AcDbBlockBegin
2
*Paper_Space
70
0
10
0.0
20
0.0
30
0.0
3
*Paper_Space
4

0
ENDBLK
5
3A
330
39
100
AcDbEntity
8
0
100
AcDbBlockEnd
0
ENDSEC
0
SECTION
2
ENTITIES
0
LWPOLYLINE
5
22
330
1C
100
AcDbEntity
67
0
8
0
62
256
6
ByLayer
370
-1
48
1.0
60
0
100
AcDbPolyline
90
27
70
1
38
0.0
39
0.0
10
65.0008010864258
20
67.3862991333008
40
0.0
41
0.0
42
0.0
10
65.0746002197266
20
67.2776031494141
40
0.0
41
0.0
42
0.0
10
65.2409973144531
20
66.9896011352539
40
0.0
41
0.0
42
0.0
10
65.4161987304688
20
66.6141967773438
40
0.0
41
0.0
42
0.0
10
65.4811019897461
20
66.488899230957
40
0.0
41
0.0
42
0.0
10
65.5160980224609
20
66.4064025878906
40
0.0
41
0.0
42
0.0
10
65.6315994262695
20
66.1129989624023
40
0.0
41
0.0
42
0.0
10
65.6875
20
65.9877014160156
40
0.0
41
0.0
42
0.0
10
65.8196029663086
20
65.6126022338867
40
0.0
41
0.0
42
0.0
10
65.8739013671875
20
65.4873962402344
40
0.0
41
0.0
42
0.0
10
66.0008010864258
20
65.1038970947266
40
0.0
41
0.0
42
0.0
10
66.0420989990234
20
65.0009994506836
40
0.0
41
0.0
42
0.0
10
66.0636978149414
20
65.0009994506836
40
0.0
41
0.0
42
0.0
10
66.0635986328125
20
65.0158996582031
40
0.0
41
0.0
42
0.0
10
66.0018005371094
20
65.1704025268555
40
0.0
41
0.0
42
0.0
10
65.8887023925781
20
65.5124969482422
40
0.0
41
0.0
42
0.0
10
65.8172988891602
20
65.6772003173828
40
0.0
41
0.0
42
0.0
10
65.6993026733398
20
66.0121994018555
40
0.0
41
0.0
42
0.0
10
65.6259002685547
20
66.1768035888672
40
0.0
41
0.0
42
0.0
10
65.5224990844727
20
66.4391021728516
40
0.0
41
0.0
42
0.0
10
65.4919967651367
20
66.5110015869141
40
0.0
41
0.0
42
0.0
10
65.4067993164062
20
66.6756973266602
40
0.0
41
0.0
42
0.0
10
65.2507019042969
20
67.0102005004883
40
0.0
41
0.0
42
0.0
10
65.1035995483398
20
67.2647018432617
40
0.0
41
0.0
42
0.0
10
65.0087966918945
20
67.4046020507812
40
0.0
41
0.0
42
0.0
10
65.0009994506836
20
67.4046020507812
40
0.0
41
0.0
42
0.0
10
65.0008010864258
20
67.3862991333008
40
0.0
41
0.0
42
0.0
210
0.0
220
0.0
230
1.0
0
LWPOLYLINE
5
23
330
1C
100
AcDbEntity
67
0
8
0
62
256
6
ByLayer
370
-1
48
1.0
60
0
100
AcDbPolyline
90
88
70
1
38
0.0
39
0.0
10
65.0177993774414
20
75.488899230957
40
0.0
41
0.0
42
0.0
10
65.1125030517578
20
75.3258972167969
40
0.0
41
0.0
42
0.0
10
65.3308029174805
20
74.9924011230469
40
0.0
41
0.0
42
0.0
10
65.3451995849609
20
74.97509765625
40
0.0
41
0.0
42
0.0
10
65.4929962158203
20
74.831298828125
40
0.0
41
0.0
42
0.0
10
65.8230972290039
20
74.6165008544922
40
0.0
41
0.0
42
0.0
10
65.9821014404297
20
74.5830993652344
40
0.0
41
0.0
42
0.0
10
66.0145034790039
20
74.5830001831055
40
0.0
41
0.0
42
0.0
10
66.1701965332031
20
74.6692962646484
40
0.0
41
0.0
42
0.0
10
66.5133972167969
20
74.6902008056641
40
0.0
41
0.0
42
0.0
10
66.8815994262695
20
74.9170989990234
40
0.0
41
0.0
42
0.0
10
66.9544982910156
20
74.993896484375
40
0.0
41
0.0
42
0.0
10
67.0035018920898
20
75.0531997680664
40
0.0
41
0.0
42
0.0
10
67.0342025756836
20
75.0939025878906
40
0.0
41
0.0
42
0.0
10
67.0562973022461
20
75.119499206543
40
0.0
41
0.0
42
0.0
10
67.4568023681641
20
75.4924011230469
40
0.0
41
0.0
42
0.0
10
67.5015029907227
20
75.5932006835938
40
0.0
41
0.0
42
0.0
10
67.5566024780273
20
75.6745986938477
40
0.0
41
0.0
42
0.0
10
67.7906036376953
20
75.9868011474609
40
0.0
41
0.0
42
0.0
10
67.78759765625
20
76.2050018310547
40
0.0
41
0.0
42
0.0
10
67.7704010009766
20
76.5149002075195
40
0.0
41
0.0
42
0.0
10
67.6036987304688
20
76.8918991088867
40
0.0
41
0.0
42
0.0
10
67.5464019775391
20
77.0098037719727
40
0.0
41
0.0
42
0.0
10
67.5015029907227
20
77.0837020874023
40
0.0
41
0.0
42
0.0
10
67.4207992553711
20
77.243896484375
40
0.0
41
0.0
42
0.0
10
67.3766021728516
20
77.3387985229492
40
0.0
41
0.0
42
0.0
10
67.2807006835938
20
77.4795989990234
40
0.0
41
0.0
42
0.0
10
67.2630004882812
20
77.5074996948242
40
0.0
41
0.0
42
0.0
10
67.0039978027344
20
77.818603515625
40
0.0
41
0.0
42
0.0
10
66.8825988769531
20
77.9518966674805
40
0.0
41
0.0
42
0.0
10
66.7646026611328
20
78.0001983642578
40
0.0
41
0.0
42
0.0
10
66.5158004760742
20
78.0801010131836
40
0.0
41
0.0
42
0.0
10
66.3939971923828
20
78.0905990600586
40
0.0
41
0.0
42
0.0
10
66.3571014404297
20
78.0905990600586
40
0.0
41
0.0
42
0.0
10
66.3199996948242
20
78.0827026367188
40
0.0
41
0.0
42
0.0
10
65.9876022338867
20
77.9882965087891
40
0.0
41
0.0
42
0.0
10
65.8261032104492
20
77.9067993164062
40
0.0
41
0.0
42
0.0
10
65.4937973022461
20
77.6556015014648
40
0.0
41
0.0
42
0.0
10
65.429801940918
20
77.5904998779297
40
0.0
41
0.0
42
0.0
10
65.3322982788086
20
77.5059967041016
40
0.0
41
0.0
42
0.0
10
65.1150970458984
20
77.1724014282227
40
0.0
41
0.0
42
0.0
10
65.049201965332
20
77.0947036743164
40
0.0
41
0.0
42
0.0
10
65.0009994506836
20
77.0240020751953
40
0.0
41
0.0
42
0.0
10
65.0009994506836
20
76.9539031982422
40
0.0
41
0.0
42
0.0
10
65.0040969848633
20
76.9537963867188
40
0.0
41
0.0
42
0.0
10
65.0141983032227
20
76.9889984130859
40
0.0
41
0.0
42
0.0
10
65.0619964599609
20
77.0589981079102
40
0.0
41
0.0
42
0.0
10
65.111701965332
20
77.1175003051758
40
0.0
41
0.0
42
0.0
10
65.3566970825195
20
77.493896484375
40
0.0
41
0.0
42
0.0
10
65.4334030151367
20
77.5604019165039
40
0.0
41
0.0
42
0.0
10
65.506103515625
20
77.6343002319336
40
0.0
41
0.0
42
0.0
10
65.8837966918945
20
77.9197006225586
40
0.0
41
0.0
42
0.0
10
66.0122985839844
20
77.9844970703125
40
0.0
41
0.0
42
0.0
10
66.3514022827148
20
78.0811004638672
40
0.0
41
0.0
42
0.0
10
66.4841003417969
20
78.0696029663086
40
0.0
41
0.0
42
0.0
10
66.7020034790039
20
77.9996032714844
40
0.0
41
0.0
42
0.0
10
66.8272018432617
20
77.948600769043
40
0.0
41
0.0
42
0.0
10
66.9956970214844
20
77.7636032104492
40
0.0
41
0.0
42
0.0
10
67.2216033935547
20
77.4922027587891
40
0.0
41
0.0
42
0.0
10
67.2461013793945
20
77.4533996582031
40
0.0
41
0.0
42
0.0
10
67.3331985473633
20
77.3255004882812
40
0.0
41
0.0
42
0.0
10
67.3928985595703
20
77.1973037719727
40
0.0
41
0.0
42
0.0
10
67.4980010986328
20
76.988899230957
40
0.0
41
0.0
42
0.0
10
67.7204971313477
20
76.4849014282227
40
0.0
41
0.0
42
0.0
10
67.7348022460938
20
76.2259979248047
40
0.0
41
0.0
42
0.0
10
67.7384033203125
20
76.0122985839844
40
0.0
41
0.0
42
0.0
10
67.540901184082
20
75.7488021850586
40
0.0
41
0.0
42
0.0
10
67.4983978271484
20
75.6857986450195
40
0.0
41
0.0
42
0.0
10
67.4196014404297
20
75.5074996948242
40
0.0
41
0.0
42
0.0
10
67.0572967529297
20
75.1703033447266
40
0.0
41
0.0
42
0.0
10
67.0398025512695
20
75.1501007080078
40
0.0
41
0.0
42
0.0
10
66.9964981079102
20
75.0924987792969
40
0.0
41
0.0
42
0.0
10
66.9251022338867
20
75.0059967041016
40
0.0
41
0.0
42
0.0
10
66.8283004760742
20
74.9038009643555
40
0.0
41
0.0
42
0.0
10
66.4865036010742
20
74.6930999755859
40
0.0
41
0.0
42
0.0
10
66.1473007202148
20
74.6724014282227
40
0.0
41
0.0
42
0.0
10
66.1119995117188
20
74.6664962768555
40
0.0
41
0.0
42
0.0
10
65.9940032958984
20
74.6011962890625
40
0.0
41
0.0
42
0.0
10
65.8867034912109
20
74.6240997314453
40
0.0
41
0.0
42
0.0
10
65.5066986083984
20
74.8714981079102
40
0.0
41
0.0
42
0.0
10
65.3907012939453
20
74.9842987060547
40
0.0
41
0.0
42
0.0
10
65.3714981079102
20
75.0074996948242
40
0.0
41
0.0
42
0.0
10
65.1251983642578
20
75.383903503418
40
0.0
41
0.0
42
0.0
10
65.051399230957
20
75.5109024047852
40
0.0
41
0.0
42
0.0
10
65.0053024291992
20
75.6350021362305
40
0.0
41
0.0
42
0.0
10
65.0009994506836
20
75.6350021362305
40
0.0
41
0.0
42
0.0
10
65.0008010864258
20
75.5346984863281
40
0.0
41
0.0
42
0.0
10
65.0177993774414
20
75.488899230957
40
0.0
41
0.0
42
0.0
210
0.0
220
0.0
230
1.0
0
LWPOLYLINE
5
24
330
1C
100
AcDbEntity
67
0
8
0
62
256
6
ByLayer
370
-1
48
1.0
60
0
100
AcDbPolyline
90
27
70
1
38
0.0
39
0.0
10
65.0158996582031
20
83.9360961914062
40
0.0
41
0.0
42
0.0
10
65.1705017089844
20
83.9980010986328
40
0.0
41
0.0
42
0.0
10
65.5124969482422
20
84.1110992431641
40
0.0
41
0.0
42
0.0
10
65.6772994995117
20
84.182502746582
40
0.0
41
0.0
42
0.0
10
66.0121994018555
20
84.3003997802734
40
0.0
41
0.0
42
0.0
10
66.1768035888672
20
84.3738021850586
40
0.0
41
0.0
42
0.0
10
66.4392013549805
20
84.4772033691406
40
0.0
41
0.0
42
0.0
10
66.5110015869141
20
84.507698059082
40
0.0
41
0.0
42
0.0
10
66.6756973266602
20
84.592903137207
40
0.0
41
0.0
42
0.0
10
67.0102005004883
20
84.7490997314453
40
0.0
41
0.0
42
0.0
10
67.2647018432617
20
84.8961029052734
40
0.0
41
0.0
42
0.0
10
67.4046020507812
20
84.991096496582
40
0.0
41
0.0
42
0.0
10
67.4046020507812
20
84.9990005493164
40
0.0
41
0.0
42
0.0
10
67.3862991333008
20
84.9990005493164
40
0.0
41
0.0
42
0.0
10
67.2776031494141
20
84.9251022338867
40
0.0
41
0.0
42
0.0
10
66.9897003173828
20
84.7586975097656
40
0.0
41
0.0
42
0.0
10
66.6141967773438
20
84.5835037231445
40
0.0
41
0.0
42
0.0
10
66.488899230957
20
84.5186004638672
40
0.0
41
0.0
42
0.0
10
66.4064025878906
20
84.4837036132812
40
0.0
41
0.0
42
0.0
10
66.1130981445312
20
84.3681030273438
40
0.0
41
0.0
42
0.0
10
65.9877014160156
20
84.3123016357422
40
0.0
41
0.0
42
0.0
10
65.6126022338867
20
84.1800994873047
40
0.0
41
0.0
42
0.0
10
65.4875030517578
20
84.1259002685547
40
0.0
41
0.0
42
0.0
10
65.1038970947266
20
83.9989013671875
40
0.0
41
0.0
42
0.0
10
65.0009994506836
20
83.9577026367188
40
0.0
41
0.0
42
0.0
10
65.0009994506836
20
83.9362030029297
40
0.0
41
0.0
42
0.0
10
65.0158996582031
20
83.9360961914062
40
0.0
41
0.0
42
0.0
210
0.0
220
0.0
230
1.0
0
LWPOLYLINE
5
25
330
1C
100
AcDbEntity
67
0
8
0
62
256
6
ByLayer
370
-1
48
1.0
60
0
100
AcDbPolyline
90
55
70
1
38
0.0
39
0.0
10
66.4414978027344
20
69.5943984985352
40
0.0
41
0.0
42
0.0
10
66.4616012573242
20
69.4847030639648
40
0.0
41
0.0
42
0.0
10
66.4912033081055
20
69.3790969848633
40
0.0
41
0.0
42
0.0
10
66.6803970336914
20
68.9899978637695
40
0.0
41
0.0
42
0.0
10
66.692497253418
20
68.9697036743164
40
0.0
41
0.0
42
0.0
10
66.8310012817383
20
68.8240966796875
40
0.0
41
0.0
42
0.0
10
66.9337997436523
20
68.6828002929688
40
0.0
41
0.0
42
0.0
10
66.9928970336914
20
68.6315002441406
40
0.0
41
0.0
42
0.0
10
67.1839981079102
20
68.4979019165039
40
0.0
41
0.0
42
0.0
10
67.2301025390625
20
68.4742965698242
40
0.0
41
0.0
42
0.0
10
67.3255004882812
20
68.4143981933594
40
0.0
41
0.0
42
0.0
10
67.4878997802734
20
68.3277969360352
40
0.0
41
0.0
42
0.0
10
67.8207015991211
20
68.2304000854492
40
0.0
41
0.0
42
0.0
10
67.9160995483398
20
68.2039031982422
40
0.0
41
0.0
42
0.0
10
67.9828033447266
20
68.1880035400391
40
0.0
41
0.0
42
0.0
10
68.288200378418
20
68.1761016845703
40
0.0
41
0.0
42
0.0
10
68.5140991210938
20
68.1756973266602
40
0.0
41
0.0
42
0.0
10
68.6757965087891
20
68.2742004394531
40
0.0
41
0.0
42
0.0
10
69.0087966918945
20
68.3956985473633
40
0.0
41
0.0
42
0.0
10
69.0266036987305
20
68.4122009277344
40
0.0
41
0.0
42
0.0
10
69.228401184082
20
68.8228988647461
40
0.0
41
0.0
42
0.0
10
69.2401962280273
20
68.8593978881836
40
0.0
41
0.0
42
0.0
10
69.2538986206055
20
68.9828033447266
40
0.0
41
0.0
42
0.0
10
69.3134994506836
20
69.3565979003906
40
0.0
41
0.0
42
0.0
10
69.3134002685547
20
69.3943023681641
40
0.0
41
0.0
42
0.0
10
69.306396484375
20
69.5017013549805
40
0.0
41
0.0
42
0.0
10
69.325798034668
20
69.8554992675781
40
0.0
41
0.0
42
0.0
10
69.3256988525391
20
69.8927001953125
40
0.0
41
0.0
42
0.0
10
69.2984008789062
20
70.0171966552734
40
0.0
41
0.0
42
0.0
10
69.2829971313477
20
70.3884963989258
40
0.0
41
0.0
42
0.0
10
69.2076034545898
20
70.50830078125
40
0.0
41
0.0
42
0.0
10
69.004997253418
20
70.7995986938477
40
0.0
41
0.0
42
0.0
10
68.6939010620117
20
71.0016021728516
40
0.0
41
0.0
42
0.0
10
68.6815032958984
20
71.0080032348633
40
0.0
41
0.0
42
0.0
10
68.5121002197266
20
71.0693969726562
40
0.0
41
0.0
42
0.0
10
68.3544006347656
20
71.1387023925781
40
0.0
41
0.0
42
0.0
10
68.0139007568359
20
71.2339019775391
40
0.0
41
0.0
42
0.0
10
67.8899002075195
20
71.2742004394531
40
0.0
41
0.0
42
0.0
10
67.5182037353516
20
71.33740234375
40
0.0
41
0.0
42
0.0
10
67.4816970825195
20
71.3373031616211
40
0.0
41
0.0
42
0.0
10
67.117301940918
20
71.276496887207
40
0.0
41
0.0
42
0.0
10
67.0193023681641
20
71.2829971313477
40
0.0
41
0.0
42
0.0
10
66.988899230957
20
71.2828979492188
40
0.0
41
0.0
42
0.0
10
66.7443008422852
20
71.0286026000977
40
0.0
41
0.0
42
0.0
10
66.690803527832
20
71.0024032592773
40
0.0
41
0.0
42
0.0
10
66.6230010986328
20
70.9392013549805
40
0.0
41
0.0
42
0.0
10
66.6119003295898
20
70.9214019775391
40
0.0
41
0.0
42
0.0
10
66.4999008178711
20
70.6567993164062
40
0.0
41
0.0
42
0.0
10
66.4821014404297
20
70.5892028808594
40
0.0
41
0.0
42
0.0
10
66.4489974975586
20
70.5137023925781
40
0.0
41
0.0
42
0.0
10
66.4186019897461
20
70.3524017333984
40
0.0
41
0.0
42
0.0
10
66.3990020751953
20
70.0193023681641
40
0.0
41
0.0
42
0.0
10
66.3989028930664
20
69.9803009033203
40
0.0
41
0.0
42
0.0
10
66.404296875
20
69.8170013427734
40
0.0
41
0.0
42
0.0
10
66.4414978027344
20
69.5943984985352
40
0.0
41
0.0
42
0.0
210
0.0
220
0.0
230
1.0
0
LWPOLYLINE
5
26
330
1C
100
AcDbEntity
67
0
8
0
62
256
6
ByLayer
370
-1
48
1.0
60
0
100
AcDbPolyline
90
49
70
1
38
0.0
39
0.0
10
66.4802017211914
20
70.5446014404297
40
0.0
41
0.0
42
0.0
10
66.5
20
70.620002746582
40
0.0
41
0.0
42
0.0
10
66.6229019165039
20
70.9103012084961
40
0.0
41
0.0
42
0.0
10
66.7162017822266
20
70.9973983764648
40
0.0
41
0.0
42
0.0
10
66.7855987548828
20
71.0315017700195
40
0.0
41
0.0
42
0.0
10
67.0092010498047
20
71.2639007568359
40
0.0
41
0.0
42
0.0
10
67.1455993652344
20
71.254997253418
40
0.0
41
0.0
42
0.0
10
67.1831970214844
20
71.2548980712891
40
0.0
41
0.0
42
0.0
10
67.4998016357422
20
71.3077011108398
40
0.0
41
0.0
42
0.0
10
67.8199996948242
20
71.2534027099609
40
0.0
41
0.0
42
0.0
10
67.9860000610352
20
71.1994018554688
40
0.0
41
0.0
42
0.0
10
68.2779998779297
20
71.1178970336914
40
0.0
41
0.0
42
0.0
10
68.4878005981445
20
71.0253982543945
40
0.0
41
0.0
42
0.0
10
68.5593032836914
20
70.9988021850586
40
0.0
41
0.0
42
0.0
10
68.9947967529297
20
70.7158966064453
40
0.0
41
0.0
42
0.0
10
69.1509017944336
20
70.4915008544922
40
0.0
41
0.0
42
0.0
10
69.2577972412109
20
70.321403503418
40
0.0
41
0.0
42
0.0
10
69.2717971801758
20
69.9826965332031
40
0.0
41
0.0
42
0.0
10
69.3065032958984
20
69.8246994018555
40
0.0
41
0.0
42
0.0
10
69.2899017333984
20
69.519401550293
40
0.0
41
0.0
42
0.0
10
69.2898025512695
20
69.480598449707
40
0.0
41
0.0
42
0.0
10
69.2990036010742
20
69.3423004150391
40
0.0
41
0.0
42
0.0
10
69.247200012207
20
69.0170974731445
40
0.0
41
0.0
42
0.0
10
69.2304992675781
20
68.8671035766602
40
0.0
41
0.0
42
0.0
10
69.0238037109375
20
68.4461975097656
40
0.0
41
0.0
42
0.0
10
68.991096496582
20
68.4160003662109
40
0.0
41
0.0
42
0.0
10
68.6140975952148
20
68.2783966064453
40
0.0
41
0.0
42
0.0
10
68.4860000610352
20
68.2004013061523
40
0.0
41
0.0
42
0.0
10
68.3739013671875
20
68.2006988525391
40
0.0
41
0.0
42
0.0
10
68.0170974731445
20
68.2145004272461
40
0.0
41
0.0
42
0.0
10
67.9623031616211
20
68.2275009155273
40
0.0
41
0.0
42
0.0
10
67.8891983032227
20
68.2479019165039
40
0.0
41
0.0
42
0.0
10
67.5120010375977
20
68.3582992553711
40
0.0
41
0.0
42
0.0
10
67.3843994140625
20
68.4263000488281
40
0.0
41
0.0
42
0.0
10
67.3124008178711
20
68.4716033935547
40
0.0
41
0.0
42
0.0
10
67.2531967163086
20
68.5018005371094
40
0.0
41
0.0
42
0.0
10
67.0070037841797
20
68.6737976074219
40
0.0
41
0.0
42
0.0
10
66.9574966430664
20
68.716796875
40
0.0
41
0.0
42
0.0
10
66.8787002563477
20
68.8252029418945
40
0.0
41
0.0
42
0.0
10
66.722297668457
20
68.9897003173828
40
0.0
41
0.0
42
0.0
10
66.7101974487305
20
69.0099029541016
40
0.0
41
0.0
42
0.0
10
66.4953994750977
20
69.450798034668
40
0.0
41
0.0
42
0.0
10
66.4773025512695
20
69.5151977539062
40
0.0
41
0.0
42
0.0
10
66.4543991088867
20
69.6402969360352
40
0.0
41
0.0
42
0.0
10
66.4123001098633
20
69.8928985595703
40
0.0
41
0.0
42
0.0
10
66.4088973999023
20
69.9944000244141
40
0.0
41
0.0
42
0.0
10
66.4303970336914
20
70.3574981689453
40
0.0
41
0.0
42
0.0
10
66.4545974731445
20
70.486198425293
40
0.0
41
0.0
42
0.0
10
66.4802017211914
20
70.5446014404297
40
0.0
41
0.0
42
0.0
210
0.0
220
0.0
230
1.0
0
LWPOLYLINE
5
27
330
1C
100
AcDbEntity
67
0
8
0
62
256
6
ByLayer
370
-1
48
1.0
60
0
100
AcDbPolyline
90
55
70
1
38
0.0
39
0.0
10
68.3956985473633
20
80.991096496582
40
0.0
41
0.0
42
0.0
10
68.4123001098633
20
80.9730987548828
40
0.0
41
0.0
42
0.0
10
68.4860000610352
20
80.9364013671875
40
0.0
41
0.0
42
0.0
10
68.6289978027344
20
80.9204025268555
40
0.0
41
0.0
42
0.0
10
68.9848022460938
20
80.7461013793945
40
0.0
41
0.0
42
0.0
10
69.0193023681641
20
80.7460021972656
40
0.0
41
0.0
42
0.0
10
69.1175994873047
20
80.7525024414062
40
0.0
41
0.0
42
0.0
10
69.4815979003906
20
80.6945037841797
40
0.0
41
0.0
42
0.0
10
69.5177001953125
20
80.6946029663086
40
0.0
41
0.0
42
0.0
10
69.6352005004883
20
80.7202987670898
40
0.0
41
0.0
42
0.0
10
69.9804992675781
20
80.7015991210938
40
0.0
41
0.0
42
0.0
10
70.0195007324219
20
80.7014999389648
40
0.0
41
0.0
42
0.0
10
70.3884963989258
20
80.7166976928711
40
0.0
41
0.0
42
0.0
10
70.5083999633789
20
80.7920989990234
40
0.0
41
0.0
42
0.0
10
70.7995986938477
20
80.9949035644531
40
0.0
41
0.0
42
0.0
10
71.0017013549805
20
81.3059005737305
40
0.0
41
0.0
42
0.0
10
71.0080032348633
20
81.3181991577148
40
0.0
41
0.0
42
0.0
10
71.0693969726562
20
81.4878005981445
40
0.0
41
0.0
42
0.0
10
71.138801574707
20
81.6454010009766
40
0.0
41
0.0
42
0.0
10
71.2339019775391
20
81.9860000610352
40
0.0
41
0.0
42
0.0
10
71.2742004394531
20
82.1100006103516
40
0.0
41
0.0
42
0.0
10
71.33740234375
20
82.4816970825195
40
0.0
41
0.0
42
0.0
10
71.3373031616211
20
82.5182037353516
40
0.0
41
0.0
42
0.0
10
71.276496887207
20
82.8825988769531
40
0.0
41
0.0
42
0.0
10
71.2829971313477
20
82.980598449707
40
0.0
41
0.0
42
0.0
10
71.2828979492188
20
83.0110015869141
40
0.0
41
0.0
42
0.0
10
71.0286026000977
20
83.2554016113281
40
0.0
41
0.0
42
0.0
10
71.0024032592773
20
83.3089981079102
40
0.0
41
0.0
42
0.0
10
70.9392013549805
20
83.3767013549805
40
0.0
41
0.0
42
0.0
10
70.9214019775391
20
83.3878021240234
40
0.0
41
0.0
42
0.0
10
70.6567001342773
20
83.4999008178711
40
0.0
41
0.0
42
0.0
10
70.5892028808594
20
83.5176010131836
40
0.0
41
0.0
42
0.0
10
70.5149002075195
20
83.5502014160156
40
0.0
41
0.0
42
0.0
10
70.1824035644531
20
83.5699005126953
40
0.0
41
0.0
42
0.0
10
70.0179977416992
20
83.6008987426758
40
0.0
41
0.0
42
0.0
10
69.9803009033203
20
83.6007995605469
40
0.0
41
0.0
42
0.0
10
69.8170013427734
20
83.5953979492188
40
0.0
41
0.0
42
0.0
10
69.5943984985352
20
83.5581970214844
40
0.0
41
0.0
42
0.0
10
69.4847030639648
20
83.5381011962891
40
0.0
41
0.0
42
0.0
10
69.3790969848633
20
83.5086975097656
40
0.0
41
0.0
42
0.0
10
68.9921035766602
20
83.3203964233398
40
0.0
41
0.0
42
0.0
10
68.8572998046875
20
83.1922988891602
40
0.0
41
0.0
42
0.0
10
68.8235015869141
20
83.1682968139648
40
0.0
41
0.0
42
0.0
10
68.6305999755859
20
83.0055999755859
40
0.0
41
0.0
42
0.0
10
68.4980010986328
20
82.815803527832
40
0.0
41
0.0
42
0.0
10
68.4744033813477
20
82.7696990966797
40
0.0
41
0.0
42
0.0
10
68.4143981933594
20
82.6744003295898
40
0.0
41
0.0
42
0.0
10
68.3279037475586
20
82.5120010375977
40
0.0
41
0.0
42
0.0
10
68.2304000854492
20
82.17919921875
40
0.0
41
0.0
42
0.0
10
68.2040023803711
20
82.0838012695312
40
0.0
41
0.0
42
0.0
10
68.1880035400391
20
82.0170974731445
40
0.0
41
0.0
42
0.0
10
68.1761016845703
20
81.7116012573242
40
0.0
41
0.0
42
0.0
10
68.1755981445312
20
81.4858016967773
40
0.0
41
0.0
42
0.0
10
68.2741012573242
20
81.3240966796875
40
0.0
41
0.0
42
0.0
10
68.3956985473633
20
80.991096496582
40
0.0
41
0.0
42
0.0
210
0.0
220
0.0
230
1.0
0
LWPOLYLINE
5
28
330
1C
100
AcDbEntity
67
0
8
0
62
256
6
ByLayer
370
-1
48
1.0
60
0
100
AcDbPolyline
90
50
70
1
38
0.0
39
0.0
10
68.3583984375
20
82.4878997802734
40
0.0
41
0.0
42
0.0
10
68.426399230957
20
82.6155014038086
40
0.0
41
0.0
42
0.0
10
68.4717025756836
20
82.6874008178711
40
0.0
41
0.0
42
0.0
10
68.5018997192383
20
82.7465972900391
40
0.0
41
0.0
42
0.0
10
68.6747970581055
20
82.9942016601562
40
0.0
41
0.0
42
0.0
10
68.8258972167969
20
83.1215972900391
40
0.0
41
0.0
42
0.0
10
68.8506011962891
20
83.1390991210938
40
0.0
41
0.0
42
0.0
10
69.0078964233398
20
83.2885971069336
40
0.0
41
0.0
42
0.0
10
69.4508972167969
20
83.5043029785156
40
0.0
41
0.0
42
0.0
10
69.5151977539062
20
83.5223999023438
40
0.0
41
0.0
42
0.0
10
69.6402969360352
20
83.5453033447266
40
0.0
41
0.0
42
0.0
10
69.8928985595703
20
83.58740234375
40
0.0
41
0.0
42
0.0
10
69.9875030517578
20
83.5905990600586
40
0.0
41
0.0
42
0.0
10
70.1074981689453
20
83.568000793457
40
0.0
41
0.0
42
0.0
10
70.4849014282227
20
83.5457992553711
40
0.0
41
0.0
42
0.0
10
70.5446014404297
20
83.5195999145508
40
0.0
41
0.0
42
0.0
10
70.6199035644531
20
83.4998016357422
40
0.0
41
0.0
42
0.0
10
70.9102020263672
20
83.3768005371094
40
0.0
41
0.0
42
0.0
10
70.9973983764648
20
83.2835998535156
40
0.0
41
0.0
42
0.0
10
71.0314025878906
20
83.2142028808594
40
0.0
41
0.0
42
0.0
10
71.2639007568359
20
82.9906997680664
40
0.0
41
0.0
42
0.0
10
71.254997253418
20
82.8543014526367
40
0.0
41
0.0
42
0.0
10
71.2548980712891
20
82.8167037963867
40
0.0
41
0.0
42
0.0
10
71.3078002929688
20
82.5000991821289
40
0.0
41
0.0
42
0.0
10
71.2534027099609
20
82.1799011230469
40
0.0
41
0.0
42
0.0
10
71.1994018554688
20
82.0139007568359
40
0.0
41
0.0
42
0.0
10
71.1179962158203
20
81.7218017578125
40
0.0
41
0.0
42
0.0
10
71.0254974365234
20
81.5121002197266
40
0.0
41
0.0
42
0.0
10
70.9988021850586
20
81.4403991699219
40
0.0
41
0.0
42
0.0
10
70.7158966064453
20
81.0050964355469
40
0.0
41
0.0
42
0.0
10
70.4915008544922
20
80.8488998413086
40
0.0
41
0.0
42
0.0
10
70.321403503418
20
80.7418975830078
40
0.0
41
0.0
42
0.0
10
70.0026016235352
20
80.7286987304688
40
0.0
41
0.0
42
0.0
10
69.6844024658203
20
80.7462005615234
40
0.0
41
0.0
42
0.0
10
69.6472015380859
20
80.7461013793945
40
0.0
41
0.0
42
0.0
10
69.4973983764648
20
80.7132034301758
40
0.0
41
0.0
42
0.0
10
69.1832962036133
20
80.763298034668
40
0.0
41
0.0
42
0.0
10
69.1455993652344
20
80.763298034668
40
0.0
41
0.0
42
0.0
10
69.0109024047852
20
80.7544021606445
40
0.0
41
0.0
42
0.0
10
68.6773986816406
20
80.9179000854492
40
0.0
41
0.0
42
0.0
10
68.6408996582031
20
80.9281997680664
40
0.0
41
0.0
42
0.0
10
68.5139007568359
20
80.9423980712891
40
0.0
41
0.0
42
0.0
10
68.4460983276367
20
80.9760971069336
40
0.0
41
0.0
42
0.0
10
68.4160003662109
20
81.0087966918945
40
0.0
41
0.0
42
0.0
10
68.2782974243164
20
81.3858032226562
40
0.0
41
0.0
42
0.0
10
68.2004013061523
20
81.5139007568359
40
0.0
41
0.0
42
0.0
10
68.2006988525391
20
81.6259002685547
40
0.0
41
0.0
42
0.0
10
68.2145004272461
20
81.9828033447266
40
0.0
41
0.0
42
0.0
10
68.2276000976562
20
82.03759765625
40
0.0
41
0.0
42
0.0
10
68.3583984375
20
82.4878997802734
40
0.0
41
0.0
42
0.0
210
0.0
220
0.0
230
1.0
0
LWPOLYLINE
5
29
330
1C
100
AcDbEntity
67
0
8
0
62
256
6
ByLayer
370
-1
48
1.0
60
0
100
AcDbPolyline
90
96
70
1
38
0.0
39
0.0
10
69.1466979980469
20
75.8572006225586
40
0.0
41
0.0
42
0.0
10
69.2276992797852
20
75.4905014038086
40
0.0
41
0.0
42
0.0
10
69.4644012451172
20
75.2547988891602
40
0.0
41
0.0
42
0.0
10
69.4980010986328
20
75.2048034667969
40
0.0
41
0.0
42
0.0
10
69.5379028320312
20
75.1274032592773
40
0.0
41
0.0
42
0.0
10
69.6360015869141
20
74.9942016601562
40
0.0
41
0.0
42
0.0
10
69.8936004638672
20
74.7678985595703
40
0.0
41
0.0
42
0.0
10
69.9947967529297
20
74.6623001098633
40
0.0
41
0.0
42
0.0
10
70.0435028076172
20
74.6150970458984
40
0.0
41
0.0
42
0.0
10
70.1903991699219
20
74.495002746582
40
0.0
41
0.0
42
0.0
10
70.3804016113281
20
74.2723999023438
40
0.0
41
0.0
42
0.0
10
70.4953994750977
20
74.1408004760742
40
0.0
41
0.0
42
0.0
10
70.6417007446289
20
73.9891967773438
40
0.0
41
0.0
42
0.0
10
70.6535034179688
20
73.8552017211914
40
0.0
41
0.0
42
0.0
10
70.6108016967773
20
73.5157012939453
40
0.0
41
0.0
42
0.0
10
70.5738983154297
20
73.3877029418945
40
0.0
41
0.0
42
0.0
10
70.4991989135742
20
73.222297668457
40
0.0
41
0.0
42
0.0
10
70.4152984619141
20
73.0131988525391
40
0.0
41
0.0
42
0.0
10
70.3808975219727
20
72.8883972167969
40
0.0
41
0.0
42
0.0
10
70.2385025024414
20
72.5151977539062
40
0.0
41
0.0
42
0.0
10
70.227897644043
20
72.3916015625
40
0.0
41
0.0
42
0.0
10
70.1381988525391
20
72.0175018310547
40
0.0
41
0.0
42
0.0
10
70.1380996704102
20
71.9811019897461
40
0.0
41
0.0
42
0.0
10
70.1774978637695
20
71.6104965209961
40
0.0
41
0.0
42
0.0
10
70.2300033569336
20
71.4947967529297
40
0.0
41
0.0
42
0.0
10
70.4918975830078
20
71.344596862793
40
0.0
41
0.0
42
0.0
10
70.4992980957031
20
71.3385009765625
40
0.0
41
0.0
42
0.0
10
70.6110992431641
20
71.284797668457
40
0.0
41
0.0
42
0.0
10
70.9828033447266
20
71.2314987182617
40
0.0
41
0.0
42
0.0
10
71.1063995361328
20
71.2154998779297
40
0.0
41
0.0
42
0.0
10
71.1677017211914
20
71.2151031494141
40
0.0
41
0.0
42
0.0
10
71.0170974731445
20
71.2345962524414
40
0.0
41
0.0
42
0.0
10
70.6787033081055
20
71.2829971313477
40
0.0
41
0.0
42
0.0
10
70.5190963745117
20
71.3598022460938
40
0.0
41
0.0
42
0.0
10
70.5078964233398
20
71.3690032958984
40
0.0
41
0.0
42
0.0
10
70.2706985473633
20
71.504997253418
40
0.0
41
0.0
42
0.0
10
70.1917037963867
20
71.6793975830078
40
0.0
41
0.0
42
0.0
10
70.158203125
20
71.9935989379883
40
0.0
41
0.0
42
0.0
10
70.2360992431641
20
72.3182983398438
40
0.0
41
0.0
42
0.0
10
70.2503967285156
20
72.4847030639648
40
0.0
41
0.0
42
0.0
10
70.3788986206055
20
72.8215026855469
40
0.0
41
0.0
42
0.0
10
70.4244995117188
20
72.986701965332
40
0.0
41
0.0
42
0.0
10
70.500602722168
20
73.1762008666992
40
0.0
41
0.0
42
0.0
10
70.5664978027344
20
73.3220977783203
40
0.0
41
0.0
42
0.0
10
70.6132965087891
20
73.4841995239258
40
0.0
41
0.0
42
0.0
10
70.6551971435547
20
73.8163986206055
40
0.0
41
0.0
42
0.0
10
70.6563034057617
20
73.8942031860352
40
0.0
41
0.0
42
0.0
10
70.6460037231445
20
74.0106964111328
40
0.0
41
0.0
42
0.0
10
70.5044021606445
20
74.1579971313477
40
0.0
41
0.0
42
0.0
10
70.4166030883789
20
74.2584991455078
40
0.0
41
0.0
42
0.0
10
70.2064971923828
20
74.5048980712891
40
0.0
41
0.0
42
0.0
10
70.0434036254883
20
74.6380004882812
40
0.0
41
0.0
42
0.0
10
70.004997253418
20
74.6753005981445
40
0.0
41
0.0
42
0.0
10
69.9201965332031
20
74.763801574707
40
0.0
41
0.0
42
0.0
10
69.8936996459961
20
74.7890014648438
40
0.0
41
0.0
42
0.0
10
69.6470031738281
20
75.0055999755859
40
0.0
41
0.0
42
0.0
10
69.5550003051758
20
75.1305999755859
40
0.0
41
0.0
42
0.0
10
69.5018005371094
20
75.2338027954102
40
0.0
41
0.0
42
0.0
10
69.4616012573242
20
75.2932968139648
40
0.0
41
0.0
42
0.0
10
69.2446975708008
20
75.5093994140625
40
0.0
41
0.0
42
0.0
10
69.1717987060547
20
75.840202331543
40
0.0
41
0.0
42
0.0
10
69.1890029907227
20
75.9899978637695
40
0.0
41
0.0
42
0.0
10
69.5054016113281
20
76.2846984863281
40
0.0
41
0.0
42
0.0
10
69.7217025756836
20
76.4968032836914
40
0.0
41
0.0
42
0.0
10
69.7440032958984
20
76.5098037719727
40
0.0
41
0.0
42
0.0
10
70.0100021362305
20
76.6401977539062
40
0.0
41
0.0
42
0.0
10
70.1753997802734
20
76.736701965332
40
0.0
41
0.0
42
0.0
10
70.5119018554688
20
76.8871994018555
40
0.0
41
0.0
42
0.0
10
70.6567993164062
20
76.9419021606445
40
0.0
41
0.0
42
0.0
10
70.7617034912109
20
76.9970016479492
40
0.0
41
0.0
42
0.0
10
70.8168029785156
20
77.05419921875
40
0.0
41
0.0
42
0.0
10
71.005500793457
20
77.1810989379883
40
0.0
41
0.0
42
0.0
10
71.1884002685547
20
77.4108963012695
40
0.0
41
0.0
42
0.0
10
71.2322998046875
20
77.4858016967773
40
0.0
41
0.0
42
0.0
10
71.236701965332
20
77.8554992675781
40
0.0
41
0.0
42
0.0
10
71.24169921875
20
77.9769973754883
40
0.0
41
0.0
42
0.0
10
71.2417984008789
20
78.0193023681641
40
0.0
41
0.0
42
0.0
10
71.2170028686523
20
78.3828964233398
40
0.0
41
0.0
42
0.0
10
71.2173004150391
20
78.3156967163086
40
0.0
41
0.0
42
0.0
10
71.2391967773438
20
77.995002746582
40
0.0
41
0.0
42
0.0
10
71.2334976196289
20
77.8544006347656
40
0.0
41
0.0
42
0.0
10
71.2294998168945
20
77.5141983032227
40
0.0
41
0.0
42
0.0
10
71.165901184082
20
77.4052963256836
40
0.0
41
0.0
42
0.0
10
70.9944000244141
20
77.1909027099609
40
0.0
41
0.0
42
0.0
10
70.7811965942383
20
77.0477981567383
40
0.0
41
0.0
42
0.0
10
70.7380981445312
20
77.0029983520508
40
0.0
41
0.0
42
0.0
10
70.6512985229492
20
76.9572982788086
40
0.0
41
0.0
42
0.0
10
70.4879989624023
20
76.8955993652344
40
0.0
41
0.0
42
0.0
10
70.1146011352539
20
76.7287979125977
40
0.0
41
0.0
42
0.0
10
69.9898986816406
20
76.6559982299805
40
0.0
41
0.0
42
0.0
10
69.6921997070312
20
76.5100021362305
40
0.0
41
0.0
42
0.0
10
69.6803970336914
20
76.5030975341797
40
0.0
41
0.0
42
0.0
10
69.494499206543
20
76.3209991455078
40
0.0
41
0.0
42
0.0
10
69.1601028442383
20
76.0099029541016
40
0.0
41
0.0
42
0.0
10
69.1467971801758
20
75.8936996459961
40
0.0
41
0.0
42
0.0
10
69.1466979980469
20
75.8572006225586
40
0.0
41
0.0
42
0.0
210
0.0
220
0.0
230
1.0
0
LWPOLYLINE
5
2A
330
1C
100
AcDbEntity
67
0
8
0
62
256
6
ByLayer
370
-1
48
1.0
60
0
100
AcDbPolyline
90
296
70
1
38
0.0
39
0.0
10
71.2151031494141
20
78.8320007324219
40
0.0
41
0.0
42
0.0
10
71.2345962524414
20
78.9828033447266
40
0.0
41
0.0
42
0.0
10
71.2830963134766
20
79.3211975097656
40
0.0
41
0.0
42
0.0
10
71.3599014282227
20
79.480598449707
40
0.0
41
0.0
42
0.0
10
71.3690032958984
20
79.4918975830078
40
0.0
41
0.0
42
0.0
10
71.5050964355469
20
79.7291030883789
40
0.0
41
0.0
42
0.0
10
71.6793975830078
20
79.8079986572266
40
0.0
41
0.0
42
0.0
10
72.0018005371094
20
79.842399597168
40
0.0
41
0.0
42
0.0
10
72.1483001708984
20
79.8298034667969
40
0.0
41
0.0
42
0.0
10
72.486198425293
20
79.7487030029297
40
0.0
41
0.0
42
0.0
10
72.8215026855469
20
79.6207962036133
40
0.0
41
0.0
42
0.0
10
72.9866027832031
20
79.5752029418945
40
0.0
41
0.0
42
0.0
10
73.1762008666992
20
79.4991989135742
40
0.0
41
0.0
42
0.0
10
73.3221969604492
20
79.4331970214844
40
0.0
41
0.0
42
0.0
10
73.4829025268555
20
79.3869018554688
40
0.0
41
0.0
42
0.0
10
73.5189971923828
20
79.3868026733398
40
0.0
41
0.0
42
0.0
10
73.6389999389648
20
79.3974990844727
40
0.0
41
0.0
42
0.0
10
73.9794998168945
20
79.3544998168945
40
0.0
41
0.0
42
0.0
10
74.0114974975586
20
79.3544998168945
40
0.0
41
0.0
42
0.0
10
74.1579971313477
20
79.4954986572266
40
0.0
41
0.0
42
0.0
10
74.2584991455078
20
79.5830993652344
40
0.0
41
0.0
42
0.0
10
74.5048980712891
20
79.7932968139648
40
0.0
41
0.0
42
0.0
10
74.6380004882812
20
79.956298828125
40
0.0
41
0.0
42
0.0
10
74.6753005981445
20
79.9947967529297
40
0.0
41
0.0
42
0.0
10
74.7639007568359
20
80.0795974731445
40
0.0
41
0.0
42
0.0
10
74.7891006469727
20
80.1060028076172
40
0.0
41
0.0
42
0.0
10
75.0056991577148
20
80.3526992797852
40
0.0
41
0.0
42
0.0
10
75.1305999755859
20
80.4447021484375
40
0.0
41
0.0
42
0.0
10
75.2338027954102
20
80.4981002807617
40
0.0
41
0.0
42
0.0
10
75.2932968139648
20
80.5381011962891
40
0.0
41
0.0
42
0.0
10
75.5082015991211
20
80.7537002563477
40
0.0
41
0.0
42
0.0
10
75.6462020874023
20
80.7378997802734
40
0.0
41
0.0
42
0.0
10
75.6827011108398
20
80.7378997802734
40
0.0
41
0.0
42
0.0
10
75.9940032958984
20
80.8066024780273
40
0.0
41
0.0
42
0.0
10
76.2845993041992
20
80.4944000244141
40
0.0
41
0.0
42
0.0
10
76.496696472168
20
80.2780990600586
40
0.0
41
0.0
42
0.0
10
76.5098037719727
20
80.2557983398438
40
0.0
41
0.0
42
0.0
10
76.6401977539062
20
79.9897994995117
40
0.0
41
0.0
42
0.0
10
76.736701965332
20
79.8245010375977
40
0.0
41
0.0
42
0.0
10
76.8871002197266
20
79.4878997802734
40
0.0
41
0.0
42
0.0
10
76.9418029785156
20
79.3430023193359
40
0.0
41
0.0
42
0.0
10
76.9969024658203
20
79.2380981445312
40
0.0
41
0.0
42
0.0
10
77.05419921875
20
79.1829986572266
40
0.0
41
0.0
42
0.0
10
77.1809997558594
20
78.9943008422852
40
0.0
41
0.0
42
0.0
10
77.4107971191406
20
78.8113021850586
40
0.0
41
0.0
42
0.0
10
77.4860000610352
20
78.7671966552734
40
0.0
41
0.0
42
0.0
10
77.6054992675781
20
78.7623977661133
40
0.0
41
0.0
42
0.0
10
77.9904022216797
20
78.7577972412109
40
0.0
41
0.0
42
0.0
10
78.1442031860352
20
78.7577972412109
40
0.0
41
0.0
42
0.0
10
78.4944000244141
20
78.7817001342773
40
0.0
41
0.0
42
0.0
10
78.6462020874023
20
78.7629013061523
40
0.0
41
0.0
42
0.0
10
78.9832992553711
20
78.7650985717773
40
0.0
41
0.0
42
0.0
10
79.3210983276367
20
78.7166976928711
40
0.0
41
0.0
42
0.0
10
79.4804992675781
20
78.6398010253906
40
0.0
41
0.0
42
0.0
10
79.4918975830078
20
78.6306991577148
40
0.0
41
0.0
42
0.0
10
79.7289962768555
20
78.4947967529297
40
0.0
41
0.0
42
0.0
10
79.8079986572266
20
78.3205032348633
40
0.0
41
0.0
42
0.0
10
79.842399597168
20
77.9981002807617
40
0.0
41
0.0
42
0.0
10
79.8298034667969
20
77.8516006469727
40
0.0
41
0.0
42
0.0
10
79.7487030029297
20
77.5137023925781
40
0.0
41
0.0
42
0.0
10
79.6207962036133
20
77.1783981323242
40
0.0
41
0.0
42
0.0
10
79.5752029418945
20
77.0131988525391
40
0.0
41
0.0
42
0.0
10
79.4992980957031
20
76.823600769043
40
0.0
41
0.0
42
0.0
10
79.4332962036133
20
76.6776962280273
40
0.0
41
0.0
42
0.0
10
79.3869018554688
20
76.5169982910156
40
0.0
41
0.0
42
0.0
10
79.3868026733398
20
76.4809036254883
40
0.0
41
0.0
42
0.0
10
79.3974990844727
20
76.3609008789062
40
0.0
41
0.0
42
0.0
10
79.3544998168945
20
76.0186004638672
40
0.0
41
0.0
42
0.0
10
79.3544006347656
20
75.9884033203125
40
0.0
41
0.0
42
0.0
10
79.4953994750977
20
75.8416976928711
40
0.0
41
0.0
42
0.0
10
79.5830993652344
20
75.7412033081055
40
0.0
41
0.0
42
0.0
10
79.7931976318359
20
75.4949035644531
40
0.0
41
0.0
42
0.0
10
79.956298828125
20
75.361701965332
40
0.0
41
0.0
42
0.0
10
79.9947967529297
20
75.3244018554688
40
0.0
41
0.0
42
0.0
10
80.0794982910156
20
75.2359008789062
40
0.0
41
0.0
42
0.0
10
80.1060028076172
20
75.2107009887695
40
0.0
41
0.0
42
0.0
10
80.3526992797852
20
74.9942016601562
40
0.0
41
0.0
42
0.0
10
80.4447021484375
20
74.8691024780273
40
0.0
41
0.0
42
0.0
10
80.4980010986328
20
74.765998840332
40
0.0
41
0.0
42
0.0
10
80.5381011962891
20
74.7063980102539
40
0.0
41
0.0
42
0.0
10
80.7537002563477
20
74.49169921875
40
0.0
41
0.0
42
0.0
10
80.7378997802734
20
74.3536987304688
40
0.0
41
0.0
42
0.0
10
80.7378005981445
20
74.3171997070312
40
0.0
41
0.0
42
0.0
10
80.8067016601562
20
74.0058975219727
40
0.0
41
0.0
42
0.0
10
80.494499206543
20
73.7151031494141
40
0.0
41
0.0
42
0.0
10
80.2781982421875
20
73.5031967163086
40
0.0
41
0.0
42
0.0
10
80.2558975219727
20
73.4898986816406
40
0.0
41
0.0
42
0.0
10
79.988899230957
20
73.359001159668
40
0.0
41
0.0
42
0.0
10
79.6546020507812
20
73.2097015380859
40
0.0
41
0.0
42
0.0
10
79.4889984130859
20
73.1129989624023
40
0.0
41
0.0
42
0.0
10
79.3431015014648
20
73.0578002929688
40
0.0
41
0.0
42
0.0
10
79.2380981445312
20
73.0028991699219
40
0.0
41
0.0
42
0.0
10
79.1830978393555
20
72.9455032348633
40
0.0
41
0.0
42
0.0
10
78.9943008422852
20
72.8187026977539
40
0.0
41
0.0
42
0.0
10
78.8113021850586
20
72.5888977050781
40
0.0
41
0.0
42
0.0
10
78.7671966552734
20
72.5139007568359
40
0.0
41
0.0
42
0.0
10
78.7623977661133
20
72.394401550293
40
0.0
41
0.0
42
0.0
10
78.7577972412109
20
72.0093994140625
40
0.0
41
0.0
42
0.0
10
78.7577972412109
20
71.8556976318359
40
0.0
41
0.0
42
0.0
10
78.7817001342773
20
71.505500793457
40
0.0
41
0.0
42
0.0
10
78.7629013061523
20
71.3536987304688
40
0.0
41
0.0
42
0.0
10
78.7650985717773
20
71.0166015625
40
0.0
41
0.0
42
0.0
10
78.7166976928711
20
70.6788024902344
40
0.0
41
0.0
42
0.0
10
78.6399002075195
20
70.5192031860352
40
0.0
41
0.0
42
0.0
10
78.6306991577148
20
70.5080032348633
40
0.0
41
0.0
42
0.0
10
78.4947967529297
20
70.2706985473633
40
0.0
41
0.0
42
0.0
10
78.3205032348633
20
70.1917037963867
40
0.0
41
0.0
42
0.0
10
78.0063018798828
20
70.158203125
40
0.0
41
0.0
42
0.0
10
77.6816024780273
20
70.2360992431641
40
0.0
41
0.0
42
0.0
10
77.5151977539062
20
70.2503967285156
40
0.0
41
0.0
42
0.0
10
77.1783981323242
20
70.3788986206055
40
0.0
41
0.0
42
0.0
10
77.0131988525391
20
70.4244995117188
40
0.0
41
0.0
42
0.0
10
76.823600769043
20
70.500602722168
40
0.0
41
0.0
42
0.0
10
76.6776962280273
20
70.5664978027344
40
0.0
41
0.0
42
0.0
10
76.5157012939453
20
70.6131973266602
40
0.0
41
0.0
42
0.0
10
76.1835021972656
20
70.6551971435547
40
0.0
41
0.0
42
0.0
10
76.1056976318359
20
70.6564025878906
40
0.0
41
0.0
42
0.0
10
75.9891967773438
20
70.6461029052734
40
0.0
41
0.0
42
0.0
10
75.8376998901367
20
70.5007019042969
40
0.0
41
0.0
42
0.0
10
75.7413024902344
20
70.4167022705078
40
0.0
41
0.0
42
0.0
10
75.495002746582
20
70.2064971923828
40
0.0
41
0.0
42
0.0
10
75.361701965332
20
70.0435028076172
40
0.0
41
0.0
42
0.0
10
75.3245010375977
20
70.004997253418
40
0.0
41
0.0
42
0.0
10
75.2359008789062
20
69.9201965332031
40
0.0
41
0.0
42
0.0
10
75.2107009887695
20
69.893798828125
40
0.0
41
0.0
42
0.0
10
74.9943008422852
20
69.647102355957
40
0.0
41
0.0
42
0.0
10
74.8692016601562
20
69.5550003051758
40
0.0
41
0.0
42
0.0
10
74.765998840332
20
69.5018005371094
40
0.0
41
0.0
42
0.0
10
74.7064971923828
20
69.4617004394531
40
0.0
41
0.0
42
0.0
10
74.4905014038086
20
69.2446975708008
40
0.0
41
0.0
42
0.0
10
74.1596984863281
20
69.1716995239258
40
0.0
41
0.0
42
0.0
10
74.0098037719727
20
69.1889038085938
40
0.0
41
0.0
42
0.0
10
73.7151031494141
20
69.5054016113281
40
0.0
41
0.0
42
0.0
10
73.5030975341797
20
69.7216033935547
40
0.0
41
0.0
42
0.0
10
73.4898986816406
20
69.743896484375
40
0.0
41
0.0
42
0.0
10
73.359001159668
20
70.0110015869141
40
0.0
41
0.0
42
0.0
10
73.2097015380859
20
70.3452987670898
40
0.0
41
0.0
42
0.0
10
73.1129989624023
20
70.5108032226562
40
0.0
41
0.0
42
0.0
10
73.0578002929688
20
70.6567001342773
40
0.0
41
0.0
42
0.0
10
73.0028991699219
20
70.7615966796875
40
0.0
41
0.0
42
0.0
10
72.9455032348633
20
70.8167037963867
40
0.0
41
0.0
42
0.0
10
72.8187026977539
20
71.005500793457
40
0.0
41
0.0
42
0.0
10
72.5888977050781
20
71.1884002685547
40
0.0
41
0.0
42
0.0
10
72.5140991210938
20
71.2322998046875
40
0.0
41
0.0
42
0.0
10
72.144401550293
20
71.236701965332
40
0.0
41
0.0
42
0.0
10
72.0227966308594
20
71.24169921875
40
0.0
41
0.0
42
0.0
10
71.980598449707
20
71.2417984008789
40
0.0
41
0.0
42
0.0
10
71.6168975830078
20
71.2170028686523
40
0.0
41
0.0
42
0.0
10
71.684196472168
20
71.2173004150391
40
0.0
41
0.0
42
0.0
10
72.0048980712891
20
71.2391967773438
40
0.0
41
0.0
42
0.0
10
72.1455001831055
20
71.2334976196289
40
0.0
41
0.0
42
0.0
10
72.4858016967773
20
71.2294998168945
40
0.0
41
0.0
42
0.0
10
72.5943984985352
20
71.1658020019531
40
0.0
41
0.0
42
0.0
10
72.8088989257812
20
70.9943008422852
40
0.0
41
0.0
42
0.0
10
72.9520034790039
20
70.7811965942383
40
0.0
41
0.0
42
0.0
10
72.9969024658203
20
70.7380981445312
40
0.0
41
0.0
42
0.0
10
73.0423965454102
20
70.6511993408203
40
0.0
41
0.0
42
0.0
10
73.1037979125977
20
70.4889984130859
40
0.0
41
0.0
42
0.0
10
73.1764984130859
20
70.364501953125
40
0.0
41
0.0
42
0.0
10
73.3442001342773
20
69.9888000488281
40
0.0
41
0.0
42
0.0
10
73.4896011352539
20
69.6921997070312
40
0.0
41
0.0
42
0.0
10
73.496696472168
20
69.6803970336914
40
0.0
41
0.0
42
0.0
10
73.6787033081055
20
69.4944000244141
40
0.0
41
0.0
42
0.0
10
73.9899978637695
20
69.1601028442383
40
0.0
41
0.0
42
0.0
10
74.106201171875
20
69.1467971801758
40
0.0
41
0.0
42
0.0
10
74.1427001953125
20
69.1467971801758
40
0.0
41
0.0
42
0.0
10
74.5093994140625
20
69.2276992797852
40
0.0
41
0.0
42
0.0
10
74.745002746582
20
69.4644012451172
40
0.0
41
0.0
42
0.0
10
74.7948989868164
20
69.4980010986328
40
0.0
41
0.0
42
0.0
10
74.8722991943359
20
69.5380020141602
40
0.0
41
0.0
42
0.0
10
75.0056991577148
20
69.636100769043
40
0.0
41
0.0
42
0.0
10
75.2320022583008
20
69.8936996459961
40
0.0
41
0.0
42
0.0
10
75.33740234375
20
69.9947967529297
40
0.0
41
0.0
42
0.0
10
75.3846969604492
20
70.0435028076172
40
0.0
41
0.0
42
0.0
10
75.5048980712891
20
70.1904983520508
40
0.0
41
0.0
42
0.0
10
75.7274017333984
20
70.380500793457
40
0.0
41
0.0
42
0.0
10
75.8589019775391
20
70.4953994750977
40
0.0
41
0.0
42
0.0
10
76.0106964111328
20
70.6417007446289
40
0.0
41
0.0
42
0.0
10
76.1446990966797
20
70.6535034179688
40
0.0
41
0.0
42
0.0
10
76.4841995239258
20
70.6108016967773
40
0.0
41
0.0
42
0.0
10
76.6121978759766
20
70.5738983154297
40
0.0
41
0.0
42
0.0
10
76.7773971557617
20
70.4991989135742
40
0.0
41
0.0
42
0.0
10
76.986701965332
20
70.4152984619141
40
0.0
41
0.0
42
0.0
10
77.1115036010742
20
70.3808975219727
40
0.0
41
0.0
42
0.0
10
77.4847030639648
20
70.2385025024414
40
0.0
41
0.0
42
0.0
10
77.6082992553711
20
70.227897644043
40
0.0
41
0.0
42
0.0
10
77.9823989868164
20
70.1381988525391
40
0.0
41
0.0
42
0.0
10
78.018798828125
20
70.1380996704102
40
0.0
41
0.0
42
0.0
10
78.3893966674805
20
70.1775970458984
40
0.0
41
0.0
42
0.0
10
78.5050964355469
20
70.2301025390625
40
0.0
41
0.0
42
0.0
10
78.6550979614258
20
70.4918975830078
40
0.0
41
0.0
42
0.0
10
78.6612014770508
20
70.499397277832
40
0.0
41
0.0
42
0.0
10
78.7149963378906
20
70.6110992431641
40
0.0
41
0.0
42
0.0
10
78.7679977416992
20
70.9813995361328
40
0.0
41
0.0
42
0.0
10
78.7656021118164
20
71.3529968261719
40
0.0
41
0.0
42
0.0
10
78.7822036743164
20
71.4813003540039
40
0.0
41
0.0
42
0.0
10
78.782096862793
20
71.5192031860352
40
0.0
41
0.0
42
0.0
10
78.7592010498047
20
71.853401184082
40
0.0
41
0.0
42
0.0
10
78.7634963989258
20
72.3154983520508
40
0.0
41
0.0
42
0.0
10
78.7704010009766
20
72.4860992431641
40
0.0
41
0.0
42
0.0
10
78.8339004516602
20
72.5944976806641
40
0.0
41
0.0
42
0.0
10
79.0055999755859
20
72.8088989257812
40
0.0
41
0.0
42
0.0
10
79.2185974121094
20
72.9520034790039
40
0.0
41
0.0
42
0.0
10
79.2617034912109
20
72.9970016479492
40
0.0
41
0.0
42
0.0
10
79.348503112793
20
73.0423965454102
40
0.0
41
0.0
42
0.0
10
79.5109024047852
20
73.1037979125977
40
0.0
41
0.0
42
0.0
10
79.6353988647461
20
73.1764984130859
40
0.0
41
0.0
42
0.0
10
80.011100769043
20
73.3442001342773
40
0.0
41
0.0
42
0.0
10
80.3076019287109
20
73.4897003173828
40
0.0
41
0.0
42
0.0
10
80.3193969726562
20
73.496696472168
40
0.0
41
0.0
42
0.0
10
80.5054016113281
20
73.6787033081055
40
0.0
41
0.0
42
0.0
10
80.8386993408203
20
73.9890975952148
40
0.0
41
0.0
42
0.0
10
80.8385009765625
20
74.0176010131836
40
0.0
41
0.0
42
0.0
10
80.7584991455078
20
74.3802032470703
40
0.0
41
0.0
42
0.0
10
80.7703018188477
20
74.481201171875
40
0.0
41
0.0
42
0.0
10
80.7702026367188
20
74.5111999511719
40
0.0
41
0.0
42
0.0
10
80.5353012084961
20
74.745002746582
40
0.0
41
0.0
42
0.0
10
80.5018005371094
20
74.7948989868164
40
0.0
41
0.0
42
0.0
10
80.461799621582
20
74.8722991943359
40
0.0
41
0.0
42
0.0
10
80.3637008666992
20
75.0055999755859
40
0.0
41
0.0
42
0.0
10
80.1061019897461
20
75.2319030761719
40
0.0
41
0.0
42
0.0
10
80.004997253418
20
75.33740234375
40
0.0
41
0.0
42
0.0
10
79.956298828125
20
75.3845977783203
40
0.0
41
0.0
42
0.0
10
79.8093032836914
20
75.5047988891602
40
0.0
41
0.0
42
0.0
10
79.6194000244141
20
75.7273025512695
40
0.0
41
0.0
42
0.0
10
79.5044021606445
20
75.8589019775391
40
0.0
41
0.0
42
0.0
10
79.3607025146484
20
76.0078964233398
40
0.0
41
0.0
42
0.0
10
79.3995971679688
20
76.3162994384766
40
0.0
41
0.0
42
0.0
10
79.3996963500977
20
76.3939971923828
40
0.0
41
0.0
42
0.0
10
79.3910980224609
20
76.4914016723633
40
0.0
41
0.0
42
0.0
10
79.4260025024414
20
76.6121978759766
40
0.0
41
0.0
42
0.0
10
79.500602722168
20
76.7774963378906
40
0.0
41
0.0
42
0.0
10
79.584602355957
20
76.9869995117188
40
0.0
41
0.0
42
0.0
10
79.618896484375
20
77.1115036010742
40
0.0
41
0.0
42
0.0
10
79.7618026733398
20
77.486198425293
40
0.0
41
0.0
42
0.0
10
79.8509979248047
20
77.8582992553711
40
0.0
41
0.0
42
0.0
10
79.861701965332
20
77.9809036254883
40
0.0
41
0.0
42
0.0
10
79.8616027832031
20
78.018798828125
40
0.0
41
0.0
42
0.0
10
79.8220977783203
20
78.3892974853516
40
0.0
41
0.0
42
0.0
10
79.7695999145508
20
78.504997253418
40
0.0
41
0.0
42
0.0
10
79.5080032348633
20
78.6550979614258
40
0.0
41
0.0
42
0.0
10
79.5003967285156
20
78.6611022949219
40
0.0
41
0.0
42
0.0
10
79.388801574707
20
78.7149963378906
40
0.0
41
0.0
42
0.0
10
79.0185012817383
20
78.7679977416992
40
0.0
41
0.0
42
0.0
10
78.6468963623047
20
78.7656021118164
40
0.0
41
0.0
42
0.0
10
78.5186004638672
20
78.7822036743164
40
0.0
41
0.0
42
0.0
10
78.4806976318359
20
78.782096862793
40
0.0
41
0.0
42
0.0
10
78.1464996337891
20
78.7592010498047
40
0.0
41
0.0
42
0.0
10
77.6844024658203
20
78.7634963989258
40
0.0
41
0.0
42
0.0
10
77.5139007568359
20
78.7704010009766
40
0.0
41
0.0
42
0.0
10
77.4052963256836
20
78.8339004516602
40
0.0
41
0.0
42
0.0
10
77.190803527832
20
79.005500793457
40
0.0
41
0.0
42
0.0
10
77.0476989746094
20
79.2184982299805
40
0.0
41
0.0
42
0.0
10
77.0028991699219
20
79.2617034912109
40
0.0
41
0.0
42
0.0
10
76.9572982788086
20
79.348503112793
40
0.0
41
0.0
42
0.0
10
76.8955993652344
20
79.5119018554688
40
0.0
41
0.0
42
0.0
10
76.7287979125977
20
79.8852996826172
40
0.0
41
0.0
42
0.0
10
76.6559982299805
20
80.0100021362305
40
0.0
41
0.0
42
0.0
10
76.5099029541016
20
80.3076019287109
40
0.0
41
0.0
42
0.0
10
76.5030975341797
20
80.3193969726562
40
0.0
41
0.0
42
0.0
10
76.3209991455078
20
80.5054016113281
40
0.0
41
0.0
42
0.0
10
76.0108032226562
20
80.8386993408203
40
0.0
41
0.0
42
0.0
10
75.9822998046875
20
80.8386001586914
40
0.0
41
0.0
42
0.0
10
75.6196975708008
20
80.7584991455078
40
0.0
41
0.0
42
0.0
10
75.5186996459961
20
80.7703018188477
40
0.0
41
0.0
42
0.0
10
75.4887008666992
20
80.7702026367188
40
0.0
41
0.0
42
0.0
10
75.2547988891602
20
80.5353012084961
40
0.0
41
0.0
42
0.0
10
75.2049026489258
20
80.5018005371094
40
0.0
41
0.0
42
0.0
10
75.1275024414062
20
80.461799621582
40
0.0
41
0.0
42
0.0
10
74.9942016601562
20
80.3638000488281
40
0.0
41
0.0
42
0.0
10
74.7678985595703
20
80.1061019897461
40
0.0
41
0.0
42
0.0
10
74.6623992919922
20
80.004997253418
40
0.0
41
0.0
42
0.0
10
74.6150970458984
20
79.9563980102539
40
0.0
41
0.0
42
0.0
10
74.495002746582
20
79.8093032836914
40
0.0
41
0.0
42
0.0
10
74.2723999023438
20
79.6194000244141
40
0.0
41
0.0
42
0.0
10
74.1408996582031
20
79.5045013427734
40
0.0
41
0.0
42
0.0
10
73.9919967651367
20
79.3607025146484
40
0.0
41
0.0
42
0.0
10
73.6836013793945
20
79.3995971679688
40
0.0
41
0.0
42
0.0
10
73.6059036254883
20
79.3996963500977
40
0.0
41
0.0
42
0.0
10
73.5084991455078
20
79.390998840332
40
0.0
41
0.0
42
0.0
10
73.3870010375977
20
79.4261016845703
40
0.0
41
0.0
42
0.0
10
73.222297668457
20
79.500602722168
40
0.0
41
0.0
42
0.0
10
73.0128021240234
20
79.584602355957
40
0.0
41
0.0
42
0.0
10
72.8883972167969
20
79.618896484375
40
0.0
41
0.0
42
0.0
10
72.5137023925781
20
79.7618026733398
40
0.0
41
0.0
42
0.0
10
72.1416015625
20
79.8509979248047
40
0.0
41
0.0
42
0.0
10
72.0189971923828
20
79.861701965332
40
0.0
41
0.0
42
0.0
10
71.9811019897461
20
79.8616027832031
40
0.0
41
0.0
42
0.0
10
71.6106033325195
20
79.8221969604492
40
0.0
41
0.0
42
0.0
10
71.4947967529297
20
79.7696990966797
40
0.0
41
0.0
42
0.0
10
71.3447036743164
20
79.5080032348633
40
0.0
41
0.0
42
0.0
10
71.3386001586914
20
79.5005035400391
40
0.0
41
0.0
42
0.0
10
71.284797668457
20
79.388801574707
40
0.0
41
0.0
42
0.0
10
71.2314987182617
20
79.0170974731445
40
0.0
41
0.0
42
0.0
10
71.2154998779297
20
78.8935012817383
40
0.0
41
0.0
42
0.0
10
71.2151031494141
20
78.8320007324219
40
0.0
41
0.0
42
0.0
210
0.0
220
0.0
230
1.0
0
LWPOLYLINE
5
2B
330
1C
100
AcDbEntity
67
0
8
0
62
256
6
ByLayer
370
-1
48
1.0
60
0
100
AcDbPolyline
90
89
70
1
38
0.0
39
0.0
10
71.9092025756836
20
66.3572006225586
40
0.0
41
0.0
42
0.0
10
71.9170989990234
20
66.3199996948242
40
0.0
41
0.0
42
0.0
10
72.0113983154297
20
65.9876022338867
40
0.0
41
0.0
42
0.0
10
72.0930023193359
20
65.8261032104492
40
0.0
41
0.0
42
0.0
10
72.3441009521484
20
65.4937973022461
40
0.0
41
0.0
42
0.0
10
72.4092025756836
20
65.429801940918
40
0.0
41
0.0
42
0.0
10
72.493896484375
20
65.3321990966797
40
0.0
41
0.0
42
0.0
10
72.8274993896484
20
65.1150970458984
40
0.0
41
0.0
42
0.0
10
72.9050979614258
20
65.0491027832031
40
0.0
41
0.0
42
0.0
10
72.9757995605469
20
65.0009994506836
40
0.0
41
0.0
42
0.0
10
73.0459976196289
20
65.0009994506836
40
0.0
41
0.0
42
0.0
10
73.0458984375
20
65.0040969848633
40
0.0
41
0.0
42
0.0
10
73.0109024047852
20
65.0140991210938
40
0.0
41
0.0
42
0.0
10
72.940803527832
20
65.0619964599609
40
0.0
41
0.0
42
0.0
10
72.8824005126953
20
65.111701965332
40
0.0
41
0.0
42
0.0
10
72.5059967041016
20
65.3565979003906
40
0.0
41
0.0
42
0.0
10
72.4393997192383
20
65.4332962036133
40
0.0
41
0.0
42
0.0
10
72.3655014038086
20
65.5059967041016
40
0.0
41
0.0
42
0.0
10
72.0800018310547
20
65.8837966918945
40
0.0
41
0.0
42
0.0
10
72.0151977539062
20
66.0122985839844
40
0.0
41
0.0
42
0.0
10
71.918701171875
20
66.3514022827148
40
0.0
41
0.0
42
0.0
10
71.9300994873047
20
66.4841003417969
40
0.0
41
0.0
42
0.0
10
72.0001983642578
20
66.7020034790039
40
0.0
41
0.0
42
0.0
10
72.0512008666992
20
66.8273010253906
40
0.0
41
0.0
42
0.0
10
72.2360992431641
20
66.9957962036133
40
0.0
41
0.0
42
0.0
10
72.5075988769531
20
67.2217025756836
40
0.0
41
0.0
42
0.0
10
72.5463027954102
20
67.2461013793945
40
0.0
41
0.0
42
0.0
10
72.674201965332
20
67.3332977294922
40
0.0
41
0.0
42
0.0
10
72.8024978637695
20
67.3928985595703
40
0.0
41
0.0
42
0.0
10
73.0110015869141
20
67.4980010986328
40
0.0
41
0.0
42
0.0
10
73.5149993896484
20
67.7204971313477
40
0.0
41
0.0
42
0.0
10
73.7738037109375
20
67.7348022460938
40
0.0
41
0.0
42
0.0
10
73.9876022338867
20
67.7382965087891
40
0.0
41
0.0
42
0.0
10
74.2509994506836
20
67.540901184082
40
0.0
41
0.0
42
0.0
10
74.3139038085938
20
67.4983978271484
40
0.0
41
0.0
42
0.0
10
74.4914016723633
20
67.4199981689453
40
0.0
41
0.0
42
0.0
10
74.5366973876953
20
67.379997253418
40
0.0
41
0.0
42
0.0
10
74.8291015625
20
67.0577011108398
40
0.0
41
0.0
42
0.0
10
74.8943023681641
20
67.0083999633789
40
0.0
41
0.0
42
0.0
10
74.993896484375
20
66.9250030517578
40
0.0
41
0.0
42
0.0
10
75.0959014892578
20
66.8283004760742
40
0.0
41
0.0
42
0.0
10
75.3066024780273
20
66.4865036010742
40
0.0
41
0.0
42
0.0
10
75.3273010253906
20
66.1473007202148
40
0.0
41
0.0
42
0.0
10
75.3331985473633
20
66.1119003295898
40
0.0
41
0.0
42
0.0
10
75.3984985351562
20
65.993896484375
40
0.0
41
0.0
42
0.0
10
75.375602722168
20
65.8868026733398
40
0.0
41
0.0
42
0.0
10
75.1281967163086
20
65.5067977905273
40
0.0
41
0.0
42
0.0
10
75.0156021118164
20
65.3907012939453
40
0.0
41
0.0
42
0.0
10
74.9924011230469
20
65.3715972900391
40
0.0
41
0.0
42
0.0
10
74.6159973144531
20
65.1252975463867
40
0.0
41
0.0
42
0.0
10
74.4889984130859
20
65.051399230957
40
0.0
41
0.0
42
0.0
10
74.3648986816406
20
65.0053024291992
40
0.0
41
0.0
42
0.0
10
74.3648986816406
20
65.0009994506836
40
0.0
41
0.0
42
0.0
10
74.4651031494141
20
65.0009002685547
40
0.0
41
0.0
42
0.0
10
74.5110015869141
20
65.0178985595703
40
0.0
41
0.0
42
0.0
10
74.6738967895508
20
65.1126022338867
40
0.0
41
0.0
42
0.0
10
75.0074005126953
20
65.3309020996094
40
0.0
41
0.0
42
0.0
10
75.0246963500977
20
65.3451995849609
40
0.0
41
0.0
42
0.0
10
75.1684036254883
20
65.4931030273438
40
0.0
41
0.0
42
0.0
10
75.3832015991211
20
65.8230972290039
40
0.0
41
0.0
42
0.0
10
75.4168014526367
20
65.9822006225586
40
0.0
41
0.0
42
0.0
10
75.4168014526367
20
66.0145034790039
40
0.0
41
0.0
42
0.0
10
75.3303985595703
20
66.1701965332031
40
0.0
41
0.0
42
0.0
10
75.3095016479492
20
66.5133972167969
40
0.0
41
0.0
42
0.0
10
75.0826034545898
20
66.8815994262695
40
0.0
41
0.0
42
0.0
10
75.0059967041016
20
66.9543991088867
40
0.0
41
0.0
42
0.0
10
74.9457015991211
20
67.0040969848633
40
0.0
41
0.0
42
0.0
10
74.9317016601562
20
67.0173034667969
40
0.0
41
0.0
42
0.0
10
74.8806991577148
20
67.0558013916016
40
0.0
41
0.0
42
0.0
10
74.5522994995117
20
67.4178009033203
40
0.0
41
0.0
42
0.0
10
74.5083999633789
20
67.4563980102539
40
0.0
41
0.0
42
0.0
10
74.4066009521484
20
67.5015029907227
40
0.0
41
0.0
42
0.0
10
74.3251037597656
20
67.5566024780273
40
0.0
41
0.0
42
0.0
10
74.0130996704102
20
67.7906036376953
40
0.0
41
0.0
42
0.0
10
73.7947998046875
20
67.78759765625
40
0.0
41
0.0
42
0.0
10
73.4850006103516
20
67.7704010009766
40
0.0
41
0.0
42
0.0
10
73.1079025268555
20
67.6036987304688
40
0.0
41
0.0
42
0.0
10
72.9899978637695
20
67.546501159668
40
0.0
41
0.0
42
0.0
10
72.9160995483398
20
67.5016021728516
40
0.0
41
0.0
42
0.0
10
72.7559967041016
20
67.4207992553711
40
0.0
41
0.0
42
0.0
10
72.661003112793
20
67.3766021728516
40
0.0
41
0.0
42
0.0
10
72.5202026367188
20
67.2807006835938
40
0.0
41
0.0
42
0.0
10
72.492301940918
20
67.2630996704102
40
0.0
41
0.0
42
0.0
10
72.1811981201172
20
67.0040969848633
40
0.0
41
0.0
42
0.0
10
72.0477981567383
20
66.8825988769531
40
0.0
41
0.0
42
0.0
10
71.9996032714844
20
66.7647018432617
40
0.0
41
0.0
42
0.0
10
71.9196014404297
20
66.5158004760742
40
0.0
41
0.0
42
0.0
10
71.9093017578125
20
66.3940963745117
40
0.0
41
0.0
42
0.0
10
71.9092025756836
20
66.3572006225586
40
0.0
41
0.0
42
0.0
210
0.0
220
0.0
230
1.0
0
LWPOLYLINE
5
2C
330
1C
100
AcDbEntity
67
0
8
0
62
256
6
ByLayer
370
-1
48
1.0
60
0
100
AcDbPolyline
90
133
70
1
38
0.0
39
0.0
10
72.4660034179688
20
74.4888000488281
40
0.0
41
0.0
42
0.0
10
72.4960021972656
20
74.4598007202148
40
0.0
41
0.0
42
0.0
10
72.5177993774414
20
74.4275970458984
40
0.0
41
0.0
42
0.0
10
72.6155014038086
20
74.3531036376953
40
0.0
41
0.0
42
0.0
10
72.9856033325195
20
74.1968002319336
40
0.0
41
0.0
42
0.0
10
73.1464996337891
20
74.1737976074219
40
0.0
41
0.0
42
0.0
10
73.1845016479492
20
74.173698425293
40
0.0
41
0.0
42
0.0
10
73.5128021240234
20
74.1871032714844
40
0.0
41
0.0
42
0.0
10
73.757698059082
20
74.3631973266602
40
0.0
41
0.0
42
0.0
10
73.9205017089844
20
74.0134963989258
40
0.0
41
0.0
42
0.0
10
73.9568023681641
20
73.9987030029297
40
0.0
41
0.0
42
0.0
10
73.69580078125
20
73.6754989624023
40
0.0
41
0.0
42
0.0
10
73.6592025756836
20
73.5175018310547
40
0.0
41
0.0
42
0.0
10
73.6592025756836
20
73.4814987182617
40
0.0
41
0.0
42
0.0
10
73.6744003295898
20
73.3797988891602
40
0.0
41
0.0
42
0.0
10
73.5710983276367
20
73.0169982910156
40
0.0
41
0.0
42
0.0
10
73.5709991455078
20
72.9947967529297
40
0.0
41
0.0
42
0.0
10
73.924201965332
20
72.8699035644531
40
0.0
41
0.0
42
0.0
10
73.9854965209961
20
72.8351974487305
40
0.0
41
0.0
42
0.0
10
74.0109024047852
20
72.8351974487305
40
0.0
41
0.0
42
0.0
10
74.1241989135742
20
72.9541015625
40
0.0
41
0.0
42
0.0
10
74.1732025146484
20
72.9942016601562
40
0.0
41
0.0
42
0.0
10
74.3940963745117
20
73.3290023803711
40
0.0
41
0.0
42
0.0
10
74.5121994018555
20
73.4287033081055
40
0.0
41
0.0
42
0.0
10
74.6764984130859
20
73.4307022094727
40
0.0
41
0.0
42
0.0
10
74.9934997558594
20
73.4591979980469
40
0.0
41
0.0
42
0.0
10
75.0252990722656
20
73.4020004272461
40
0.0
41
0.0
42
0.0
10
75.0718994140625
20
73.3255004882812
40
0.0
41
0.0
42
0.0
10
75.1434020996094
20
72.9877014160156
40
0.0
41
0.0
42
0.0
10
75.3675003051758
20
72.617301940918
40
0.0
41
0.0
42
0.0
10
75.4751968383789
20
72.4924011230469
40
0.0
41
0.0
42
0.0
10
75.4916000366211
20
72.4661026000977
40
0.0
41
0.0
42
0.0
10
75.5110015869141
20
72.4661026000977
40
0.0
41
0.0
42
0.0
10
75.5400009155273
20
72.4961013793945
40
0.0
41
0.0
42
0.0
10
75.5720977783203
20
72.5178985595703
40
0.0
41
0.0
42
0.0
10
75.646598815918
20
72.6156005859375
40
0.0
41
0.0
42
0.0
10
75.8023986816406
20
72.9841995239258
40
0.0
41
0.0
42
0.0
10
75.8022994995117
20
73.0195007324219
40
0.0
41
0.0
42
0.0
10
75.7900009155273
20
73.3247985839844
40
0.0
41
0.0
42
0.0
10
75.8130035400391
20
73.4856033325195
40
0.0
41
0.0
42
0.0
10
75.850700378418
20
73.5765991210938
40
0.0
41
0.0
42
0.0
10
75.8506011962891
20
73.6046981811523
40
0.0
41
0.0
42
0.0
10
75.5301971435547
20
73.9844970703125
40
0.0
41
0.0
42
0.0
10
75.5345001220703
20
73.9931030273438
40
0.0
41
0.0
42
0.0
10
75.9878005981445
20
73.967399597168
40
0.0
41
0.0
42
0.0
10
76.3244018554688
20
73.69580078125
40
0.0
41
0.0
42
0.0
10
76.4823989868164
20
73.6592025756836
40
0.0
41
0.0
42
0.0
10
76.5184020996094
20
73.6592025756836
40
0.0
41
0.0
42
0.0
10
76.6201019287109
20
73.6744003295898
40
0.0
41
0.0
42
0.0
10
76.9829025268555
20
73.5710983276367
40
0.0
41
0.0
42
0.0
10
77.004997253418
20
73.5710983276367
40
0.0
41
0.0
42
0.0
10
77.1297988891602
20
73.924201965332
40
0.0
41
0.0
42
0.0
10
77.1647033691406
20
73.9854965209961
40
0.0
41
0.0
42
0.0
10
77.1645965576172
20
74.0109024047852
40
0.0
41
0.0
42
0.0
10
77.0457000732422
20
74.1241989135742
40
0.0
41
0.0
42
0.0
10
77.0056991577148
20
74.1731033325195
40
0.0
41
0.0
42
0.0
10
76.6707992553711
20
74.3939971923828
40
0.0
41
0.0
42
0.0
10
76.5709991455078
20
74.5121994018555
40
0.0
41
0.0
42
0.0
10
76.5690002441406
20
74.6764984130859
40
0.0
41
0.0
42
0.0
10
76.5406036376953
20
74.9935989379883
40
0.0
41
0.0
42
0.0
10
76.5978012084961
20
75.0252990722656
40
0.0
41
0.0
42
0.0
10
76.6744003295898
20
75.0718994140625
40
0.0
41
0.0
42
0.0
10
77.0121002197266
20
75.1434020996094
40
0.0
41
0.0
42
0.0
10
77.3824996948242
20
75.3675003051758
40
0.0
41
0.0
42
0.0
10
77.5074996948242
20
75.4751968383789
40
0.0
41
0.0
42
0.0
10
77.5338973999023
20
75.4916000366211
40
0.0
41
0.0
42
0.0
10
77.5337982177734
20
75.5110015869141
40
0.0
41
0.0
42
0.0
10
77.5037994384766
20
75.5399017333984
40
0.0
41
0.0
42
0.0
10
77.4819030761719
20
75.5720977783203
40
0.0
41
0.0
42
0.0
10
77.3843002319336
20
75.646598815918
40
0.0
41
0.0
42
0.0
10
77.0157012939453
20
75.8023986816406
40
0.0
41
0.0
42
0.0
10
76.9804000854492
20
75.8022994995117
40
0.0
41
0.0
42
0.0
10
76.6751022338867
20
75.7900009155273
40
0.0
41
0.0
42
0.0
10
76.5142974853516
20
75.8128967285156
40
0.0
41
0.0
42
0.0
10
76.4232025146484
20
75.850700378418
40
0.0
41
0.0
42
0.0
10
76.3949966430664
20
75.8506011962891
40
0.0
41
0.0
42
0.0
10
76.0154037475586
20
75.5301971435547
40
0.0
41
0.0
42
0.0
10
76.0067977905273
20
75.5345001220703
40
0.0
41
0.0
42
0.0
10
76.0323028564453
20
75.9878997802734
40
0.0
41
0.0
42
0.0
10
76.3040008544922
20
76.3244018554688
40
0.0
41
0.0
42
0.0
10
76.3412017822266
20
76.4851989746094
40
0.0
41
0.0
42
0.0
10
76.4474029541016
20
76.8579025268555
40
0.0
41
0.0
42
0.0
10
76.4473037719727
20
76.8934020996094
40
0.0
41
0.0
42
0.0
10
76.4308013916016
20
77.0043029785156
40
0.0
41
0.0
42
0.0
10
76.0755996704102
20
77.1296997070312
40
0.0
41
0.0
42
0.0
10
76.0143966674805
20
77.1647033691406
40
0.0
41
0.0
42
0.0
10
75.988899230957
20
77.1647033691406
40
0.0
41
0.0
42
0.0
10
75.8755035400391
20
77.0457000732422
40
0.0
41
0.0
42
0.0
10
75.8265991210938
20
77.0056991577148
40
0.0
41
0.0
42
0.0
10
75.6056976318359
20
76.6708984375
40
0.0
41
0.0
42
0.0
10
75.4878005981445
20
76.5709991455078
40
0.0
41
0.0
42
0.0
10
75.3233032226562
20
76.5690002441406
40
0.0
41
0.0
42
0.0
10
75.0063018798828
20
76.540397644043
40
0.0
41
0.0
42
0.0
10
74.9744033813477
20
76.5977020263672
40
0.0
41
0.0
42
0.0
10
74.9278030395508
20
76.6744003295898
40
0.0
41
0.0
42
0.0
10
74.8563995361328
20
77.0121002197266
40
0.0
41
0.0
42
0.0
10
74.6322021484375
20
77.3824996948242
40
0.0
41
0.0
42
0.0
10
74.5244979858398
20
77.5074996948242
40
0.0
41
0.0
42
0.0
10
74.50830078125
20
77.5338973999023
40
0.0
41
0.0
42
0.0
10
74.488899230957
20
77.5337982177734
40
0.0
41
0.0
42
0.0
10
74.4598999023438
20
77.5037994384766
40
0.0
41
0.0
42
0.0
10
74.4276962280273
20
77.4819030761719
40
0.0
41
0.0
42
0.0
10
74.3531036376953
20
77.3843002319336
40
0.0
41
0.0
42
0.0
10
74.1968002319336
20
77.0142974853516
40
0.0
41
0.0
42
0.0
10
74.1737976074219
20
76.853401184082
40
0.0
41
0.0
42
0.0
10
74.173698425293
20
76.8153991699219
40
0.0
41
0.0
42
0.0
10
74.1859970092773
20
76.5126037597656
40
0.0
41
0.0
42
0.0
10
74.1491012573242
20
76.4232025146484
40
0.0
41
0.0
42
0.0
10
74.1491012573242
20
76.3949966430664
40
0.0
41
0.0
42
0.0
10
74.4697036743164
20
76.0154037475586
40
0.0
41
0.0
42
0.0
10
74.4654006958008
20
76.0067977905273
40
0.0
41
0.0
42
0.0
10
74.0120010375977
20
76.0322036743164
40
0.0
41
0.0
42
0.0
10
73.6754989624023
20
76.3039016723633
40
0.0
41
0.0
42
0.0
10
73.5147018432617
20
76.3412017822266
40
0.0
41
0.0
42
0.0
10
73.1419982910156
20
76.4474029541016
40
0.0
41
0.0
42
0.0
10
73.1064987182617
20
76.4473037719727
40
0.0
41
0.0
42
0.0
10
72.9954986572266
20
76.4308013916016
40
0.0
41
0.0
42
0.0
10
72.870002746582
20
76.0755996704102
40
0.0
41
0.0
42
0.0
10
72.8351974487305
20
76.0143966674805
40
0.0
41
0.0
42
0.0
10
72.8349990844727
20
75.988899230957
40
0.0
41
0.0
42
0.0
10
72.9540023803711
20
75.8755035400391
40
0.0
41
0.0
42
0.0
10
72.9941024780273
20
75.8265991210938
40
0.0
41
0.0
42
0.0
10
73.3290023803711
20
75.6056976318359
40
0.0
41
0.0
42
0.0
10
73.4287033081055
20
75.4877014160156
40
0.0
41
0.0
42
0.0
10
73.4307022094727
20
75.3233032226562
40
0.0
41
0.0
42
0.0
10
73.4592971801758
20
75.0063018798828
40
0.0
41
0.0
42
0.0
10
73.4020004272461
20
74.9745025634766
40
0.0
41
0.0
42
0.0
10
73.3255004882812
20
74.9278030395508
40
0.0
41
0.0
42
0.0
10
72.9878005981445
20
74.8563995361328
40
0.0
41
0.0
42
0.0
10
72.6174011230469
20
74.6322021484375
40
0.0
41
0.0
42
0.0
10
72.4924011230469
20
74.5245971679688
40
0.0
41
0.0
42
0.0
10
72.4661026000977
20
74.50830078125
40
0.0
41
0.0
42
0.0
10
72.4660034179688
20
74.4888000488281
40
0.0
41
0.0
42
0.0
210
0.0
220
0.0
230
1.0
0
LWPOLYLINE
5
2D
330
1C
100
AcDbEntity
67
0
8
0
62
256
6
ByLayer
370
-1
48
1.0
60
0
100
AcDbPolyline
90
84
70
1
38
0.0
39
0.0
10
72.6725997924805
20
74.6494979858398
40
0.0
41
0.0
42
0.0
10
73.0121002197266
20
74.8548965454102
40
0.0
41
0.0
42
0.0
10
73.3871002197266
20
74.935302734375
40
0.0
41
0.0
42
0.0
10
73.4814987182617
20
74.9917984008789
40
0.0
41
0.0
42
0.0
10
73.4813995361328
20
75.0189971923828
40
0.0
41
0.0
42
0.0
10
73.4469985961914
20
75.4021987915039
40
0.0
41
0.0
42
0.0
10
73.4456024169922
20
75.5121002197266
40
0.0
41
0.0
42
0.0
10
73.3807983398438
20
75.5886993408203
40
0.0
41
0.0
42
0.0
10
73.0057983398438
20
75.8361968994141
40
0.0
41
0.0
42
0.0
10
72.9561004638672
20
75.8956985473633
40
0.0
41
0.0
42
0.0
10
72.8447036743164
20
76.0019989013672
40
0.0
41
0.0
42
0.0
10
72.8853988647461
20
76.0736999511719
40
0.0
41
0.0
42
0.0
10
73.0044021606445
20
76.4102020263672
40
0.0
41
0.0
42
0.0
10
73.1601028442383
20
76.4334030151367
40
0.0
41
0.0
42
0.0
10
73.4850997924805
20
76.3407974243164
40
0.0
41
0.0
42
0.0
10
73.6159973144531
20
76.3114013671875
40
0.0
41
0.0
42
0.0
10
73.9878005981445
20
76.011100769043
40
0.0
41
0.0
42
0.0
10
74.02490234375
20
76.0091018676758
40
0.0
41
0.0
42
0.0
10
74.0251007080078
20
75.9698028564453
40
0.0
41
0.0
42
0.0
10
74.2761993408203
20
75.5422973632812
40
0.0
41
0.0
42
0.0
10
74.2594985961914
20
75.5093994140625
40
0.0
41
0.0
42
0.0
10
74.176399230957
20
75.3816986083984
40
0.0
41
0.0
42
0.0
10
74.1380996704102
20
75.3432006835938
40
0.0
41
0.0
42
0.0
10
73.997802734375
20
75.1480026245117
40
0.0
41
0.0
42
0.0
10
73.6673965454102
20
75.3455963134766
40
0.0
41
0.0
42
0.0
10
73.6491012573242
20
75.3455963134766
40
0.0
41
0.0
42
0.0
10
73.5559997558594
20
75.0169982910156
40
0.0
41
0.0
42
0.0
10
73.5559005737305
20
74.9871978759766
40
0.0
41
0.0
42
0.0
10
73.7475967407227
20
74.7417984008789
40
0.0
41
0.0
42
0.0
10
73.8951034545898
20
74.5873031616211
40
0.0
41
0.0
42
0.0
10
73.9776992797852
20
74.4881973266602
40
0.0
41
0.0
42
0.0
10
74.0009002685547
20
74.1707992553711
40
0.0
41
0.0
42
0.0
10
74.0147018432617
20
74.0251998901367
40
0.0
41
0.0
42
0.0
10
74.0299987792969
20
74.0251998901367
40
0.0
41
0.0
42
0.0
10
74.4574966430664
20
74.2761001586914
40
0.0
41
0.0
42
0.0
10
74.4904022216797
20
74.2593994140625
40
0.0
41
0.0
42
0.0
10
74.6182022094727
20
74.1763000488281
40
0.0
41
0.0
42
0.0
10
74.6565017700195
20
74.1380996704102
40
0.0
41
0.0
42
0.0
10
74.8516998291016
20
73.9977035522461
40
0.0
41
0.0
42
0.0
10
74.6540985107422
20
73.6673965454102
40
0.0
41
0.0
42
0.0
10
74.6541976928711
20
73.6491012573242
40
0.0
41
0.0
42
0.0
10
74.9829025268555
20
73.5559997558594
40
0.0
41
0.0
42
0.0
10
75.0127029418945
20
73.5559997558594
40
0.0
41
0.0
42
0.0
10
75.2578964233398
20
73.7475967407227
40
0.0
41
0.0
42
0.0
10
75.4124984741211
20
73.8951034545898
40
0.0
41
0.0
42
0.0
10
75.4988021850586
20
73.9669036865234
40
0.0
41
0.0
42
0.0
10
75.5523986816406
20
73.8923034667969
40
0.0
41
0.0
42
0.0
10
75.8272018432617
20
73.5670013427734
40
0.0
41
0.0
42
0.0
10
75.8053970336914
20
73.5143966674805
40
0.0
41
0.0
42
0.0
10
75.7880020141602
20
73.3935012817383
40
0.0
41
0.0
42
0.0
10
75.7881011962891
20
73.3543014526367
40
0.0
41
0.0
42
0.0
10
75.802001953125
20
73.0126037597656
40
0.0
41
0.0
42
0.0
10
75.6585998535156
20
72.6712036132812
40
0.0
41
0.0
42
0.0
10
75.5542984008789
20
72.5343017578125
40
0.0
41
0.0
42
0.0
10
75.5009002685547
20
72.497802734375
40
0.0
41
0.0
42
0.0
10
75.3503036499023
20
72.6725006103516
40
0.0
41
0.0
42
0.0
10
75.1447982788086
20
73.0121002197266
40
0.0
41
0.0
42
0.0
10
75.0733032226562
20
73.3503036499023
40
0.0
41
0.0
42
0.0
10
75.0644989013672
20
73.3869018554688
40
0.0
41
0.0
42
0.0
10
75.0080032348633
20
73.4814987182617
40
0.0
41
0.0
42
0.0
10
74.9809036254883
20
73.4813995361328
40
0.0
41
0.0
42
0.0
10
74.5976028442383
20
73.4469985961914
40
0.0
41
0.0
42
0.0
10
74.4877014160156
20
73.4456024169922
40
0.0
41
0.0
42
0.0
10
74.411003112793
20
73.3808975219727
40
0.0
41
0.0
42
0.0
10
74.1635971069336
20
73.0057983398438
40
0.0
41
0.0
42
0.0
10
74.1041030883789
20
72.9561004638672
40
0.0
41
0.0
42
0.0
10
73.9979019165039
20
72.844596862793
40
0.0
41
0.0
42
0.0
10
73.9261016845703
20
72.8853988647461
40
0.0
41
0.0
42
0.0
10
73.5932998657227
20
73.0029983520508
40
0.0
41
0.0
42
0.0
10
73.6828994750977
20
73.3179016113281
40
0.0
41
0.0
42
0.0
10
73.6828002929688
20
73.353401184082
40
0.0
41
0.0
42
0.0
10
73.6614990234375
20
73.4965972900391
40
0.0
41
0.0
42
0.0
10
73.6884994506836
20
73.6159973144531
40
0.0
41
0.0
42
0.0
10
73.9882965087891
20
73.9873962402344
40
0.0
41
0.0
42
0.0
10
73.9882965087891
20
73.9916000366211
40
0.0
41
0.0
42
0.0
10
73.7967987060547
20
74.4028015136719
40
0.0
41
0.0
42
0.0
10
73.7770004272461
20
74.4028015136719
40
0.0
41
0.0
42
0.0
10
73.4870986938477
20
74.1940002441406
40
0.0
41
0.0
42
0.0
10
73.1351013183594
20
74.179801940918
40
0.0
41
0.0
42
0.0
10
73.0142974853516
20
74.1969985961914
40
0.0
41
0.0
42
0.0
10
72.6710968017578
20
74.3411026000977
40
0.0
41
0.0
42
0.0
10
72.5343017578125
20
74.4456024169922
40
0.0
41
0.0
42
0.0
10
72.4979019165039
20
74.4989013671875
40
0.0
41
0.0
42
0.0
10
72.6725997924805
20
74.6494979858398
40
0.0
41
0.0
42
0.0
210
0.0
220
0.0
230
1.0
0
LWPOLYLINE
5
2E
330
1C
100
AcDbEntity
67
0
8
0
62
256
6
ByLayer
370
-1
48
1.0
60
0
100
AcDbPolyline
90
49
70
1
38
0.0
39
0.0
10
73.9857025146484
20
75.1187973022461
40
0.0
41
0.0
42
0.0
10
74.0092010498047
20
75.1187973022461
40
0.0
41
0.0
42
0.0
10
74.1240005493164
20
75.2782974243164
40
0.0
41
0.0
42
0.0
10
74.1735992431641
20
75.3283004760742
40
0.0
41
0.0
42
0.0
10
74.2791976928711
20
75.4905014038086
40
0.0
41
0.0
42
0.0
10
74.3052978515625
20
75.5418014526367
40
0.0
41
0.0
42
0.0
10
74.3050994873047
20
75.5709991455078
40
0.0
41
0.0
42
0.0
10
74.0822982788086
20
75.9506988525391
40
0.0
41
0.0
42
0.0
10
74.5140991210938
20
75.992301940918
40
0.0
41
0.0
42
0.0
10
74.5280990600586
20
75.9981994628906
40
0.0
41
0.0
42
0.0
10
75.0047988891602
20
76.3706970214844
40
0.0
41
0.0
42
0.0
10
75.2845993041992
20
76.2914962768555
40
0.0
41
0.0
42
0.0
10
75.1187973022461
20
76.0140991210938
40
0.0
41
0.0
42
0.0
10
75.1186981201172
20
75.9906997680664
40
0.0
41
0.0
42
0.0
10
75.2781982421875
20
75.8758010864258
40
0.0
41
0.0
42
0.0
10
75.3282012939453
20
75.8261032104492
40
0.0
41
0.0
42
0.0
10
75.486198425293
20
75.7233963012695
40
0.0
41
0.0
42
0.0
10
75.5151977539062
20
75.7232971191406
40
0.0
41
0.0
42
0.0
10
75.7918014526367
20
75.8560028076172
40
0.0
41
0.0
42
0.0
10
75.9825973510742
20
75.4980010986328
40
0.0
41
0.0
42
0.0
10
75.9878005981445
20
75.4953994750977
40
0.0
41
0.0
42
0.0
10
75.9981002807617
20
75.4717025756836
40
0.0
41
0.0
42
0.0
10
76.3707962036133
20
74.9951019287109
40
0.0
41
0.0
42
0.0
10
76.2914962768555
20
74.7149963378906
40
0.0
41
0.0
42
0.0
10
76.0140991210938
20
74.881103515625
40
0.0
41
0.0
42
0.0
10
75.9906997680664
20
74.881103515625
40
0.0
41
0.0
42
0.0
10
75.8758010864258
20
74.7214965820312
40
0.0
41
0.0
42
0.0
10
75.8262023925781
20
74.6716995239258
40
0.0
41
0.0
42
0.0
10
75.7204971313477
20
74.5094985961914
40
0.0
41
0.0
42
0.0
10
75.6946029663086
20
74.4580001831055
40
0.0
41
0.0
42
0.0
10
75.6945037841797
20
74.4288024902344
40
0.0
41
0.0
42
0.0
10
75.9177017211914
20
74.0490036010742
40
0.0
41
0.0
42
0.0
10
75.4851989746094
20
74.0075988769531
40
0.0
41
0.0
42
0.0
10
75.4718017578125
20
74.0017013549805
40
0.0
41
0.0
42
0.0
10
74.9951019287109
20
73.6289978027344
40
0.0
41
0.0
42
0.0
10
74.7151031494141
20
73.7082977294922
40
0.0
41
0.0
42
0.0
10
74.881103515625
20
73.9857025146484
40
0.0
41
0.0
42
0.0
10
74.8809967041016
20
74.0092010498047
40
0.0
41
0.0
42
0.0
10
74.7214965820312
20
74.1239013671875
40
0.0
41
0.0
42
0.0
10
74.6716003417969
20
74.1735992431641
40
0.0
41
0.0
42
0.0
10
74.5093994140625
20
74.2791976928711
40
0.0
41
0.0
42
0.0
10
74.4580001831055
20
74.3052978515625
40
0.0
41
0.0
42
0.0
10
74.4288024902344
20
74.3051986694336
40
0.0
41
0.0
42
0.0
10
74.0490036010742
20
74.0820999145508
40
0.0
41
0.0
42
0.0
10
74.0074996948242
20
74.5146026611328
40
0.0
41
0.0
42
0.0
10
74.0017013549805
20
74.5279998779297
40
0.0
41
0.0
42
0.0
10
73.6289978027344
20
75.0047988891602
40
0.0
41
0.0
42
0.0
10
73.7082977294922
20
75.2845001220703
40
0.0
41
0.0
42
0.0
10
73.9857025146484
20
75.1187973022461
40
0.0
41
0.0
42
0.0
210
0.0
220
0.0
230
1.0
0
LWPOLYLINE
5
2F
330
1C
100
AcDbEntity
67
0
8
0
62
256
6
ByLayer
370
-1
48
1.0
60
0
100
AcDbPolyline
90
42
70
1
38
0.0
39
0.0
10
74.1937026977539
20
76.5195007324219
40
0.0
41
0.0
42
0.0
10
74.179801940918
20
76.8647994995117
40
0.0
41
0.0
42
0.0
10
74.1969985961914
20
76.9856033325195
40
0.0
41
0.0
42
0.0
10
74.3411026000977
20
77.3286972045898
40
0.0
41
0.0
42
0.0
10
74.4455032348633
20
77.4654998779297
40
0.0
41
0.0
42
0.0
10
74.4989013671875
20
77.5017013549805
40
0.0
41
0.0
42
0.0
10
74.6493988037109
20
77.3273010253906
40
0.0
41
0.0
42
0.0
10
74.8548965454102
20
76.9878005981445
40
0.0
41
0.0
42
0.0
10
74.935302734375
20
76.6127014160156
40
0.0
41
0.0
42
0.0
10
74.9918975830078
20
76.5184020996094
40
0.0
41
0.0
42
0.0
10
75.0189971923828
20
76.5183029174805
40
0.0
41
0.0
42
0.0
10
75.4021987915039
20
76.5526962280273
40
0.0
41
0.0
42
0.0
10
75.5121002197266
20
76.55419921875
40
0.0
41
0.0
42
0.0
10
75.5887985229492
20
76.6190032958984
40
0.0
41
0.0
42
0.0
10
75.8361968994141
20
76.9941024780273
40
0.0
41
0.0
42
0.0
10
75.8956985473633
20
77.043701171875
40
0.0
41
0.0
42
0.0
10
76.0019989013672
20
77.1549987792969
40
0.0
41
0.0
42
0.0
10
76.0736999511719
20
77.1143035888672
40
0.0
41
0.0
42
0.0
10
76.4102020263672
20
76.9954986572266
40
0.0
41
0.0
42
0.0
10
76.4334030151367
20
76.8397979736328
40
0.0
41
0.0
42
0.0
10
76.3407974243164
20
76.5148010253906
40
0.0
41
0.0
42
0.0
10
76.3114013671875
20
76.383903503418
40
0.0
41
0.0
42
0.0
10
76.011100769043
20
76.0120010375977
40
0.0
41
0.0
42
0.0
10
75.9906005859375
20
75.6492004394531
40
0.0
41
0.0
42
0.0
10
75.9710998535156
20
75.6448974609375
40
0.0
41
0.0
42
0.0
10
75.8370971679688
20
75.8957977294922
40
0.0
41
0.0
42
0.0
10
75.8144989013672
20
75.8956985473633
40
0.0
41
0.0
42
0.0
10
75.5014038085938
20
75.7454986572266
40
0.0
41
0.0
42
0.0
10
75.3815994262695
20
75.8234024047852
40
0.0
41
0.0
42
0.0
10
75.3432006835938
20
75.8616027832031
40
0.0
41
0.0
42
0.0
10
75.1481018066406
20
76.002197265625
40
0.0
41
0.0
42
0.0
10
75.3455963134766
20
76.3323974609375
40
0.0
41
0.0
42
0.0
10
75.3454971313477
20
76.3506011962891
40
0.0
41
0.0
42
0.0
10
75.0169982910156
20
76.4439010620117
40
0.0
41
0.0
42
0.0
10
74.9871978759766
20
76.4438018798828
40
0.0
41
0.0
42
0.0
10
74.7419967651367
20
76.2522964477539
40
0.0
41
0.0
42
0.0
10
74.58740234375
20
76.1046981811523
40
0.0
41
0.0
42
0.0
10
74.5010986328125
20
76.0326995849609
40
0.0
41
0.0
42
0.0
10
74.4473037719727
20
76.1073989868164
40
0.0
41
0.0
42
0.0
10
74.1725997924805
20
76.4328002929688
40
0.0
41
0.0
42
0.0
10
74.1938018798828
20
76.4841003417969
40
0.0
41
0.0
42
0.0
10
74.1937026977539
20
76.5195007324219
40
0.0
41
0.0
42
0.0
210
0.0
220
0.0
230
1.0
0
LWPOLYLINE
5
30
330
1C
100
AcDbEntity
67
0
8
0
62
256
6
ByLayer
370
-1
48
1.0
60
0
100
AcDbPolyline
90
83
70
1
38
0.0
39
0.0
10
74.6692962646484
20
83.8296966552734
40
0.0
41
0.0
42
0.0
10
74.6901016235352
20
83.4865036010742
40
0.0
41
0.0
42
0.0
10
74.9169998168945
20
83.1182022094727
40
0.0
41
0.0
42
0.0
10
74.993896484375
20
83.0453033447266
40
0.0
41
0.0
42
0.0
10
75.0531005859375
20
82.9963989257812
40
0.0
41
0.0
42
0.0
10
75.0947036743164
20
82.9647979736328
40
0.0
41
0.0
42
0.0
10
75.492301940918
20
82.5429000854492
40
0.0
41
0.0
42
0.0
10
75.5931015014648
20
82.4982986450195
40
0.0
41
0.0
42
0.0
10
75.6745986938477
20
82.4430999755859
40
0.0
41
0.0
42
0.0
10
75.9868011474609
20
82.209098815918
40
0.0
41
0.0
42
0.0
10
76.2050018310547
20
82.2120971679688
40
0.0
41
0.0
42
0.0
10
76.5149993896484
20
82.2293014526367
40
0.0
41
0.0
42
0.0
10
76.8918991088867
20
82.3960037231445
40
0.0
41
0.0
42
0.0
10
77.0099029541016
20
82.4533004760742
40
0.0
41
0.0
42
0.0
10
77.0839004516602
20
82.4983978271484
40
0.0
41
0.0
42
0.0
10
77.3386993408203
20
82.6231994628906
40
0.0
41
0.0
42
0.0
10
77.5073013305664
20
82.7365036010742
40
0.0
41
0.0
42
0.0
10
77.818603515625
20
82.9957962036133
40
0.0
41
0.0
42
0.0
10
77.9520034790039
20
83.117301940918
40
0.0
41
0.0
42
0.0
10
78.0001983642578
20
83.2350997924805
40
0.0
41
0.0
42
0.0
10
78.0801010131836
20
83.4841003417969
40
0.0
41
0.0
42
0.0
10
78.0905990600586
20
83.6059036254883
40
0.0
41
0.0
42
0.0
10
78.0905990600586
20
83.6427993774414
40
0.0
41
0.0
42
0.0
10
78.0827026367188
20
83.6799011230469
40
0.0
41
0.0
42
0.0
10
77.9881973266602
20
84.0121994018555
40
0.0
41
0.0
42
0.0
10
77.9067001342773
20
84.1737976074219
40
0.0
41
0.0
42
0.0
10
77.6556015014648
20
84.5059967041016
40
0.0
41
0.0
42
0.0
10
77.5904998779297
20
84.5699005126953
40
0.0
41
0.0
42
0.0
10
77.5058975219727
20
84.6675033569336
40
0.0
41
0.0
42
0.0
10
77.1723022460938
20
84.8845977783203
40
0.0
41
0.0
42
0.0
10
77.094596862793
20
84.9505996704102
40
0.0
41
0.0
42
0.0
10
77.0240020751953
20
84.9990005493164
40
0.0
41
0.0
42
0.0
10
76.9539031982422
20
84.9990005493164
40
0.0
41
0.0
42
0.0
10
76.9537963867188
20
84.9956970214844
40
0.0
41
0.0
42
0.0
10
76.9889984130859
20
84.9854965209961
40
0.0
41
0.0
42
0.0
10
77.0589981079102
20
84.9378967285156
40
0.0
41
0.0
42
0.0
10
77.1175003051758
20
84.8880004882812
40
0.0
41
0.0
42
0.0
10
77.4937973022461
20
84.6430969238281
40
0.0
41
0.0
42
0.0
10
77.560302734375
20
84.5663986206055
40
0.0
41
0.0
42
0.0
10
77.6342010498047
20
84.4937973022461
40
0.0
41
0.0
42
0.0
10
77.9197006225586
20
84.116096496582
40
0.0
41
0.0
42
0.0
10
77.9844970703125
20
83.9876022338867
40
0.0
41
0.0
42
0.0
10
78.0811004638672
20
83.6484985351562
40
0.0
41
0.0
42
0.0
10
78.0696029663086
20
83.5158004760742
40
0.0
41
0.0
42
0.0
10
77.9997024536133
20
83.2977981567383
40
0.0
41
0.0
42
0.0
10
77.948600769043
20
83.1725997924805
40
0.0
41
0.0
42
0.0
10
77.7637023925781
20
83.0040969848633
40
0.0
41
0.0
42
0.0
10
77.4925994873047
20
82.7782974243164
40
0.0
41
0.0
42
0.0
10
77.3768997192383
20
82.6996002197266
40
0.0
41
0.0
42
0.0
10
77.3255004882812
20
82.6666030883789
40
0.0
41
0.0
42
0.0
10
76.9888000488281
20
82.5017013549805
40
0.0
41
0.0
42
0.0
10
76.4849014282227
20
82.2791976928711
40
0.0
41
0.0
42
0.0
10
76.2259979248047
20
82.2649002075195
40
0.0
41
0.0
42
0.0
10
76.0122985839844
20
82.2613983154297
40
0.0
41
0.0
42
0.0
10
75.7487030029297
20
82.4588012695312
40
0.0
41
0.0
42
0.0
10
75.6857986450195
20
82.5014038085938
40
0.0
41
0.0
42
0.0
10
75.5075988769531
20
82.5801010131836
40
0.0
41
0.0
42
0.0
10
75.1491012573242
20
82.9606018066406
40
0.0
41
0.0
42
0.0
10
75.0924987792969
20
83.0034027099609
40
0.0
41
0.0
42
0.0
10
75.0059967041016
20
83.0746002197266
40
0.0
41
0.0
42
0.0
10
74.9038009643555
20
83.1716003417969
40
0.0
41
0.0
42
0.0
10
74.6930999755859
20
83.5133972167969
40
0.0
41
0.0
42
0.0
10
74.6724014282227
20
83.8526000976562
40
0.0
41
0.0
42
0.0
10
74.6664962768555
20
83.8879013061523
40
0.0
41
0.0
42
0.0
10
74.6011962890625
20
84.0058975219727
40
0.0
41
0.0
42
0.0
10
74.6241989135742
20
84.1130981445312
40
0.0
41
0.0
42
0.0
10
74.8715972900391
20
84.4931030273438
40
0.0
41
0.0
42
0.0
10
74.9842987060547
20
84.6091003417969
40
0.0
41
0.0
42
0.0
10
75.0074996948242
20
84.6281967163086
40
0.0
41
0.0
42
0.0
10
75.383903503418
20
84.8744964599609
40
0.0
41
0.0
42
0.0
10
75.5110015869141
20
84.9484024047852
40
0.0
41
0.0
42
0.0
10
75.6350021362305
20
84.994499206543
40
0.0
41
0.0
42
0.0
10
75.6350021362305
20
84.9990005493164
40
0.0
41
0.0
42
0.0
10
75.5346984863281
20
84.9989013671875
40
0.0
41
0.0
42
0.0
10
75.4889984130859
20
84.9819030761719
40
0.0
41
0.0
42
0.0
10
75.3259963989258
20
84.8871994018555
40
0.0
41
0.0
42
0.0
10
74.9924011230469
20
84.6689987182617
40
0.0
41
0.0
42
0.0
10
74.97509765625
20
84.6546020507812
40
0.0
41
0.0
42
0.0
10
74.8313980102539
20
84.5067977905273
40
0.0
41
0.0
42
0.0
10
74.6166000366211
20
84.1768035888672
40
0.0
41
0.0
42
0.0
10
74.5830993652344
20
84.0177993774414
40
0.0
41
0.0
42
0.0
10
74.5830001831055
20
83.9853973388672
40
0.0
41
0.0
42
0.0
10
74.6692962646484
20
83.8296966552734
40
0.0
41
0.0
42
0.0
210
0.0
220
0.0
230
1.0
0
LWPOLYLINE
5
31
330
1C
100
AcDbEntity
67
0
8
0
62
256
6
ByLayer
370
-1
48
1.0
60
0
100
AcDbPolyline
90
43
70
1
38
0.0
39
0.0
10
75.7236022949219
20
74.4574966430664
40
0.0
41
0.0
42
0.0
10
75.7403030395508
20
74.4905014038086
40
0.0
41
0.0
42
0.0
10
75.8234024047852
20
74.6182022094727
40
0.0
41
0.0
42
0.0
10
75.861701965332
20
74.6566009521484
40
0.0
41
0.0
42
0.0
10
76.002197265625
20
74.8516006469727
40
0.0
41
0.0
42
0.0
10
76.3323974609375
20
74.6540985107422
40
0.0
41
0.0
42
0.0
10
76.3506011962891
20
74.654296875
40
0.0
41
0.0
42
0.0
10
76.4439010620117
20
74.9829025268555
40
0.0
41
0.0
42
0.0
10
76.4438018798828
20
75.0127029418945
40
0.0
41
0.0
42
0.0
10
76.2522964477539
20
75.2577972412109
40
0.0
41
0.0
42
0.0
10
76.1045989990234
20
75.4123992919922
40
0.0
41
0.0
42
0.0
10
76.0327987670898
20
75.4989013671875
40
0.0
41
0.0
42
0.0
10
76.1073989868164
20
75.5523986816406
40
0.0
41
0.0
42
0.0
10
76.4328994750977
20
75.8271026611328
40
0.0
41
0.0
42
0.0
10
76.4854965209961
20
75.8053970336914
40
0.0
41
0.0
42
0.0
10
76.6063995361328
20
75.7880020141602
40
0.0
41
0.0
42
0.0
10
76.6455001831055
20
75.7881011962891
40
0.0
41
0.0
42
0.0
10
76.9872970581055
20
75.802001953125
40
0.0
41
0.0
42
0.0
10
77.3286972045898
20
75.6585998535156
40
0.0
41
0.0
42
0.0
10
77.4654998779297
20
75.55419921875
40
0.0
41
0.0
42
0.0
10
77.5018005371094
20
75.5009002685547
40
0.0
41
0.0
42
0.0
10
77.3273010253906
20
75.3503036499023
40
0.0
41
0.0
42
0.0
10
76.9878005981445
20
75.1447982788086
40
0.0
41
0.0
42
0.0
10
76.6495971679688
20
75.0733032226562
40
0.0
41
0.0
42
0.0
10
76.6129989624023
20
75.0645980834961
40
0.0
41
0.0
42
0.0
10
76.5184020996094
20
75.0080032348633
40
0.0
41
0.0
42
0.0
10
76.5183029174805
20
74.9809036254883
40
0.0
41
0.0
42
0.0
10
76.5526962280273
20
74.5976028442383
40
0.0
41
0.0
42
0.0
10
76.5541000366211
20
74.4877014160156
40
0.0
41
0.0
42
0.0
10
76.6190032958984
20
74.411003112793
40
0.0
41
0.0
42
0.0
10
76.9941024780273
20
74.1634979248047
40
0.0
41
0.0
42
0.0
10
77.043701171875
20
74.1041030883789
40
0.0
41
0.0
42
0.0
10
77.1550979614258
20
73.9979019165039
40
0.0
41
0.0
42
0.0
10
77.1143035888672
20
73.9261016845703
40
0.0
41
0.0
42
0.0
10
76.9969024658203
20
73.5932006835938
40
0.0
41
0.0
42
0.0
10
76.681999206543
20
73.6828994750977
40
0.0
41
0.0
42
0.0
10
76.6464996337891
20
73.6828002929688
40
0.0
41
0.0
42
0.0
10
76.503303527832
20
73.6614990234375
40
0.0
41
0.0
42
0.0
10
76.3837966918945
20
73.6884002685547
40
0.0
41
0.0
42
0.0
10
76.0120010375977
20
73.9886016845703
40
0.0
41
0.0
42
0.0
10
75.9748001098633
20
73.9907989501953
40
0.0
41
0.0
42
0.0
10
75.9746017456055
20
74.0299987792969
40
0.0
41
0.0
42
0.0
10
75.7236022949219
20
74.4574966430664
40
0.0
41
0.0
42
0.0
210
0.0
220
0.0
230
1.0
0
LWPOLYLINE
5
32
330
1C
100
AcDbEntity
67
0
8
0
62
256
6
ByLayer
370
-1
48
1.0
60
0
100
AcDbPolyline
90
54
70
1
38
0.0
39
0.0
10
78.654296875
20
67.3566970825195
40
0.0
41
0.0
42
0.0
10
78.7154006958008
20
66.9901962280273
40
0.0
41
0.0
42
0.0
10
78.9710998535156
20
66.7443008422852
40
0.0
41
0.0
42
0.0
10
78.9973983764648
20
66.690803527832
40
0.0
41
0.0
42
0.0
10
79.0606002807617
20
66.6230010986328
40
0.0
41
0.0
42
0.0
10
79.0783996582031
20
66.6119003295898
40
0.0
41
0.0
42
0.0
10
79.3430023193359
20
66.4999008178711
40
0.0
41
0.0
42
0.0
10
79.4105987548828
20
66.4821014404297
40
0.0
41
0.0
42
0.0
10
79.486198425293
20
66.4489974975586
40
0.0
41
0.0
42
0.0
10
79.6474990844727
20
66.4186019897461
40
0.0
41
0.0
42
0.0
10
79.980598449707
20
66.3990020751953
40
0.0
41
0.0
42
0.0
10
80.0195999145508
20
66.3989028930664
40
0.0
41
0.0
42
0.0
10
80.1828994750977
20
66.404296875
40
0.0
41
0.0
42
0.0
10
80.405403137207
20
66.4414978027344
40
0.0
41
0.0
42
0.0
10
80.5151977539062
20
66.4616012573242
40
0.0
41
0.0
42
0.0
10
80.6206970214844
20
66.4912033081055
40
0.0
41
0.0
42
0.0
10
81.0099029541016
20
66.6803970336914
40
0.0
41
0.0
42
0.0
10
81.0299987792969
20
66.6925964355469
40
0.0
41
0.0
42
0.0
10
81.1756973266602
20
66.8311004638672
40
0.0
41
0.0
42
0.0
10
81.3170013427734
20
66.9337997436523
40
0.0
41
0.0
42
0.0
10
81.3682022094727
20
66.9928970336914
40
0.0
41
0.0
42
0.0
10
81.5018005371094
20
67.1840972900391
40
0.0
41
0.0
42
0.0
10
81.5253982543945
20
67.2301025390625
40
0.0
41
0.0
42
0.0
10
81.5854034423828
20
67.3255004882812
40
0.0
41
0.0
42
0.0
10
81.6718978881836
20
67.4878997802734
40
0.0
41
0.0
42
0.0
10
81.7693023681641
20
67.8207015991211
40
0.0
41
0.0
42
0.0
10
81.7957992553711
20
67.9160995483398
40
0.0
41
0.0
42
0.0
10
81.8116989135742
20
67.9828033447266
40
0.0
41
0.0
42
0.0
10
81.8236999511719
20
68.288200378418
40
0.0
41
0.0
42
0.0
10
81.8239974975586
20
68.5140991210938
40
0.0
41
0.0
42
0.0
10
81.7255020141602
20
68.6757965087891
40
0.0
41
0.0
42
0.0
10
81.6039962768555
20
69.0086975097656
40
0.0
41
0.0
42
0.0
10
81.5875015258789
20
69.0266036987305
40
0.0
41
0.0
42
0.0
10
81.177001953125
20
69.228401184082
40
0.0
41
0.0
42
0.0
10
81.1405029296875
20
69.2401962280273
40
0.0
41
0.0
42
0.0
10
81.0170974731445
20
69.2538986206055
40
0.0
41
0.0
42
0.0
10
80.6433029174805
20
69.3134994506836
40
0.0
41
0.0
42
0.0
10
80.605598449707
20
69.3134002685547
40
0.0
41
0.0
42
0.0
10
80.4981994628906
20
69.306396484375
40
0.0
41
0.0
42
0.0
10
80.144401550293
20
69.325798034668
40
0.0
41
0.0
42
0.0
10
80.1072006225586
20
69.3256988525391
40
0.0
41
0.0
42
0.0
10
79.9826965332031
20
69.2984008789062
40
0.0
41
0.0
42
0.0
10
79.6113967895508
20
69.2829971313477
40
0.0
41
0.0
42
0.0
10
79.4915008544922
20
69.2076034545898
40
0.0
41
0.0
42
0.0
10
79.2001037597656
20
69.004997253418
40
0.0
41
0.0
42
0.0
10
78.9981002807617
20
68.6939010620117
40
0.0
41
0.0
42
0.0
10
78.99169921875
20
68.6815032958984
40
0.0
41
0.0
42
0.0
10
78.9303970336914
20
68.5121002197266
40
0.0
41
0.0
42
0.0
10
78.8610000610352
20
68.3544998168945
40
0.0
41
0.0
42
0.0
10
78.7658004760742
20
68.0139007568359
40
0.0
41
0.0
42
0.0
10
78.7255020141602
20
67.8899002075195
40
0.0
41
0.0
42
0.0
10
78.6623001098633
20
67.5175018310547
40
0.0
41
0.0
42
0.0
10
78.6544036865234
20
67.3943023681641
40
0.0
41
0.0
42
0.0
10
78.654296875
20
67.3566970825195
40
0.0
41
0.0
42
0.0
210
0.0
220
0.0
230
1.0
0
LWPOLYLINE
5
33
330
1C
100
AcDbEntity
67
0
8
0
62
256
6
ByLayer
370
-1
48
1.0
60
0
100
AcDbPolyline
90
47
70
1
38
0.0
39
0.0
10
78.6891021728516
20
67.4823989868164
40
0.0
41
0.0
42
0.0
10
78.7462997436523
20
67.8199996948242
40
0.0
41
0.0
42
0.0
10
78.8003005981445
20
67.9860000610352
40
0.0
41
0.0
42
0.0
10
78.8817977905273
20
68.2780990600586
40
0.0
41
0.0
42
0.0
10
78.9741973876953
20
68.4878005981445
40
0.0
41
0.0
42
0.0
10
78.9981002807617
20
68.5538024902344
40
0.0
41
0.0
42
0.0
10
79.2838973999023
20
68.9947967529297
40
0.0
41
0.0
42
0.0
10
79.5083999633789
20
69.1509017944336
40
0.0
41
0.0
42
0.0
10
79.6784973144531
20
69.2577972412109
40
0.0
41
0.0
42
0.0
10
80.0171966552734
20
69.2718963623047
40
0.0
41
0.0
42
0.0
10
80.1752014160156
20
69.3065032958984
40
0.0
41
0.0
42
0.0
10
80.4804992675781
20
69.2899017333984
40
0.0
41
0.0
42
0.0
10
80.5193023681641
20
69.2898025512695
40
0.0
41
0.0
42
0.0
10
80.657600402832
20
69.2990036010742
40
0.0
41
0.0
42
0.0
10
80.9828033447266
20
69.247200012207
40
0.0
41
0.0
42
0.0
10
81.1327972412109
20
69.2304000854492
40
0.0
41
0.0
42
0.0
10
81.553596496582
20
69.0236968994141
40
0.0
41
0.0
42
0.0
10
81.5837020874023
20
68.991096496582
40
0.0
41
0.0
42
0.0
10
81.7212982177734
20
68.6140975952148
40
0.0
41
0.0
42
0.0
10
81.7993011474609
20
68.4860000610352
40
0.0
41
0.0
42
0.0
10
81.7990036010742
20
68.3739013671875
40
0.0
41
0.0
42
0.0
10
81.7852020263672
20
68.0170974731445
40
0.0
41
0.0
42
0.0
10
81.772102355957
20
67.9621963500977
40
0.0
41
0.0
42
0.0
10
81.6414031982422
20
67.5120010375977
40
0.0
41
0.0
42
0.0
10
81.5735015869141
20
67.3843994140625
40
0.0
41
0.0
42
0.0
10
81.5280990600586
20
67.3125
40
0.0
41
0.0
42
0.0
10
81.4980010986328
20
67.2531967163086
40
0.0
41
0.0
42
0.0
10
81.3258972167969
20
67.0070037841797
40
0.0
41
0.0
42
0.0
10
81.2829971313477
20
66.9576034545898
40
0.0
41
0.0
42
0.0
10
81.1745986938477
20
66.8787994384766
40
0.0
41
0.0
42
0.0
10
81.0102005004883
20
66.7223968505859
40
0.0
41
0.0
42
0.0
10
80.9899978637695
20
66.7101974487305
40
0.0
41
0.0
42
0.0
10
80.5490036010742
20
66.4953994750977
40
0.0
41
0.0
42
0.0
10
80.4847030639648
20
66.4773025512695
40
0.0
41
0.0
42
0.0
10
80.3594970703125
20
66.4543991088867
40
0.0
41
0.0
42
0.0
10
80.1070022583008
20
66.4123001098633
40
0.0
41
0.0
42
0.0
10
80.005500793457
20
66.4088973999023
40
0.0
41
0.0
42
0.0
10
79.6424026489258
20
66.4303970336914
40
0.0
41
0.0
42
0.0
10
79.5137023925781
20
66.4545974731445
40
0.0
41
0.0
42
0.0
10
79.4552001953125
20
66.4802017211914
40
0.0
41
0.0
42
0.0
10
79.3798980712891
20
66.5
40
0.0
41
0.0
42
0.0
10
79.0895004272461
20
66.6229019165039
40
0.0
41
0.0
42
0.0
10
79.0024032592773
20
66.7162017822266
40
0.0
41
0.0
42
0.0
10
78.9682998657227
20
66.7854995727539
40
0.0
41
0.0
42
0.0
10
78.7353973388672
20
67.0095977783203
40
0.0
41
0.0
42
0.0
10
78.6799011230469
20
67.3425979614258
40
0.0
41
0.0
42
0.0
10
78.6891021728516
20
67.4823989868164
40
0.0
41
0.0
42
0.0
210
0.0
220
0.0
230
1.0
0
LWPOLYLINE
5
34
330
1C
100
AcDbEntity
67
0
8
0
62
256
6
ByLayer
370
-1
48
1.0
60
0
100
AcDbPolyline
90
53
70
1
38
0.0
39
0.0
10
80.7166976928711
20
79.6113967895508
40
0.0
41
0.0
42
0.0
10
80.7920989990234
20
79.4915008544922
40
0.0
41
0.0
42
0.0
10
80.9947967529297
20
79.2001037597656
40
0.0
41
0.0
42
0.0
10
81.3059005737305
20
78.9981002807617
40
0.0
41
0.0
42
0.0
10
81.3182983398438
20
78.99169921875
40
0.0
41
0.0
42
0.0
10
81.4877014160156
20
78.9302978515625
40
0.0
41
0.0
42
0.0
10
81.6453018188477
20
78.8609008789062
40
0.0
41
0.0
42
0.0
10
81.9860000610352
20
78.7658004760742
40
0.0
41
0.0
42
0.0
10
82.1100006103516
20
78.7255020141602
40
0.0
41
0.0
42
0.0
10
82.4823989868164
20
78.6623001098633
40
0.0
41
0.0
42
0.0
10
82.605598449707
20
78.6544036865234
40
0.0
41
0.0
42
0.0
10
82.6432037353516
20
78.654296875
40
0.0
41
0.0
42
0.0
10
83.0095977783203
20
78.7154006958008
40
0.0
41
0.0
42
0.0
10
83.255500793457
20
78.9711990356445
40
0.0
41
0.0
42
0.0
10
83.3089981079102
20
78.9973983764648
40
0.0
41
0.0
42
0.0
10
83.3767013549805
20
79.0606002807617
40
0.0
41
0.0
42
0.0
10
83.3879013061523
20
79.0783996582031
40
0.0
41
0.0
42
0.0
10
83.4999008178711
20
79.3431015014648
40
0.0
41
0.0
42
0.0
10
83.5176010131836
20
79.4105987548828
40
0.0
41
0.0
42
0.0
10
83.5502014160156
20
79.4849014282227
40
0.0
41
0.0
42
0.0
10
83.5699005126953
20
79.817497253418
40
0.0
41
0.0
42
0.0
10
83.6008987426758
20
79.9819030761719
40
0.0
41
0.0
42
0.0
10
83.6007995605469
20
80.0195999145508
40
0.0
41
0.0
42
0.0
10
83.5953979492188
20
80.1828994750977
40
0.0
41
0.0
42
0.0
10
83.5581970214844
20
80.405403137207
40
0.0
41
0.0
42
0.0
10
83.5381011962891
20
80.5151977539062
40
0.0
41
0.0
42
0.0
10
83.5085983276367
20
80.6206970214844
40
0.0
41
0.0
42
0.0
10
83.3202972412109
20
81.0077972412109
40
0.0
41
0.0
42
0.0
10
83.1927032470703
20
81.1418991088867
40
0.0
41
0.0
42
0.0
10
83.005500793457
20
81.3692016601562
40
0.0
41
0.0
42
0.0
10
82.815803527832
20
81.5018005371094
40
0.0
41
0.0
42
0.0
10
82.7696990966797
20
81.5252990722656
40
0.0
41
0.0
42
0.0
10
82.6744003295898
20
81.5852966308594
40
0.0
41
0.0
42
0.0
10
82.5120010375977
20
81.6717987060547
40
0.0
41
0.0
42
0.0
10
82.17919921875
20
81.7693023681641
40
0.0
41
0.0
42
0.0
10
82.0838012695312
20
81.7957000732422
40
0.0
41
0.0
42
0.0
10
82.0170974731445
20
81.8116989135742
40
0.0
41
0.0
42
0.0
10
81.7116012573242
20
81.8236999511719
40
0.0
41
0.0
42
0.0
10
81.4858016967773
20
81.8240966796875
40
0.0
41
0.0
42
0.0
10
81.3240966796875
20
81.7256011962891
40
0.0
41
0.0
42
0.0
10
80.991096496582
20
81.6039962768555
40
0.0
41
0.0
42
0.0
10
80.9730987548828
20
81.5875015258789
40
0.0
41
0.0
42
0.0
10
80.9364013671875
20
81.5139007568359
40
0.0
41
0.0
42
0.0
10
80.9205017089844
20
81.3709030151367
40
0.0
41
0.0
42
0.0
10
80.7461013793945
20
81.0150985717773
40
0.0
41
0.0
42
0.0
10
80.7460021972656
20
80.980598449707
40
0.0
41
0.0
42
0.0
10
80.7525024414062
20
80.8823013305664
40
0.0
41
0.0
42
0.0
10
80.6945037841797
20
80.5183029174805
40
0.0
41
0.0
42
0.0
10
80.6945037841797
20
80.4822006225586
40
0.0
41
0.0
42
0.0
10
80.7202987670898
20
80.3647003173828
40
0.0
41
0.0
42
0.0
10
80.7015991210938
20
80.019401550293
40
0.0
41
0.0
42
0.0
10
80.7014999389648
20
79.9909973144531
40
0.0
41
0.0
42
0.0
10
80.7166976928711
20
79.6113967895508
40
0.0
41
0.0
42
0.0
210
0.0
220
0.0
230
1.0
0
LWPOLYLINE
5
35
330
1C
100
AcDbEntity
67
0
8
0
62
256
6
ByLayer
370
-1
48
1.0
60
0
100
AcDbPolyline
90
49
70
1
38
0.0
39
0.0
10
80.7462005615234
20
80.3154983520508
40
0.0
41
0.0
42
0.0
10
80.7461013793945
20
80.3526992797852
40
0.0
41
0.0
42
0.0
10
80.7132034301758
20
80.5025024414062
40
0.0
41
0.0
42
0.0
10
80.763298034668
20
80.8165969848633
40
0.0
41
0.0
42
0.0
10
80.763298034668
20
80.8543014526367
40
0.0
41
0.0
42
0.0
10
80.7544021606445
20
80.9889984130859
40
0.0
41
0.0
42
0.0
10
80.9179000854492
20
81.3225021362305
40
0.0
41
0.0
42
0.0
10
80.9281997680664
20
81.359001159668
40
0.0
41
0.0
42
0.0
10
80.9423980712891
20
81.4860000610352
40
0.0
41
0.0
42
0.0
10
80.9761962890625
20
81.5537033081055
40
0.0
41
0.0
42
0.0
10
81.0087966918945
20
81.5837020874023
40
0.0
41
0.0
42
0.0
10
81.3858032226562
20
81.7213973999023
40
0.0
41
0.0
42
0.0
10
81.5139007568359
20
81.7993011474609
40
0.0
41
0.0
42
0.0
10
81.6259002685547
20
81.7990036010742
40
0.0
41
0.0
42
0.0
10
81.9828033447266
20
81.7852020263672
40
0.0
41
0.0
42
0.0
10
82.0374984741211
20
81.772102355957
40
0.0
41
0.0
42
0.0
10
82.1107025146484
20
81.7518005371094
40
0.0
41
0.0
42
0.0
10
82.4878997802734
20
81.6412963867188
40
0.0
41
0.0
42
0.0
10
82.6155014038086
20
81.5735015869141
40
0.0
41
0.0
42
0.0
10
82.6874008178711
20
81.5280990600586
40
0.0
41
0.0
42
0.0
10
82.7465972900391
20
81.4980010986328
40
0.0
41
0.0
42
0.0
10
82.9943008422852
20
81.3248977661133
40
0.0
41
0.0
42
0.0
10
83.1384963989258
20
81.1496963500977
40
0.0
41
0.0
42
0.0
10
83.2884979248047
20
80.9919967651367
40
0.0
41
0.0
42
0.0
10
83.5044021606445
20
80.5485992431641
40
0.0
41
0.0
42
0.0
10
83.5223999023438
20
80.4847030639648
40
0.0
41
0.0
42
0.0
10
83.5453033447266
20
80.3594970703125
40
0.0
41
0.0
42
0.0
10
83.58740234375
20
80.1070022583008
40
0.0
41
0.0
42
0.0
10
83.5905990600586
20
80.0123977661133
40
0.0
41
0.0
42
0.0
10
83.568000793457
20
79.8924026489258
40
0.0
41
0.0
42
0.0
10
83.5457992553711
20
79.5149993896484
40
0.0
41
0.0
42
0.0
10
83.5196990966797
20
79.4552001953125
40
0.0
41
0.0
42
0.0
10
83.4998016357422
20
79.379997253418
40
0.0
41
0.0
42
0.0
10
83.3768997192383
20
79.0895004272461
40
0.0
41
0.0
42
0.0
10
83.2835998535156
20
79.0025024414062
40
0.0
41
0.0
42
0.0
10
83.2142028808594
20
78.9682998657227
40
0.0
41
0.0
42
0.0
10
82.9903030395508
20
78.7353973388672
40
0.0
41
0.0
42
0.0
10
82.6573028564453
20
78.6799011230469
40
0.0
41
0.0
42
0.0
10
82.5175018310547
20
78.6891021728516
40
0.0
41
0.0
42
0.0
10
82.1799011230469
20
78.7462997436523
40
0.0
41
0.0
42
0.0
10
82.0139007568359
20
78.8003005981445
40
0.0
41
0.0
42
0.0
10
81.7217025756836
20
78.8816986083984
40
0.0
41
0.0
42
0.0
10
81.5120010375977
20
78.9742965698242
40
0.0
41
0.0
42
0.0
10
81.4403991699219
20
79.0009994506836
40
0.0
41
0.0
42
0.0
10
81.004997253418
20
79.2837982177734
40
0.0
41
0.0
42
0.0
10
80.8488006591797
20
79.50830078125
40
0.0
41
0.0
42
0.0
10
80.7418975830078
20
79.6784973144531
40
0.0
41
0.0
42
0.0
10
80.7286987304688
20
79.9972991943359
40
0.0
41
0.0
42
0.0
10
80.7462005615234
20
80.3154983520508
40
0.0
41
0.0
42
0.0
210
0.0
220
0.0
230
1.0
0
LWPOLYLINE
5
36
330
1C
100
AcDbEntity
67
0
8
0
62
256
6
ByLayer
370
-1
48
1.0
60
0
100
AcDbPolyline
90
86
70
1
38
0.0
39
0.0
10
82.2120971679688
20
73.7947998046875
40
0.0
41
0.0
42
0.0
10
82.2293014526367
20
73.4849014282227
40
0.0
41
0.0
42
0.0
10
82.3960037231445
20
73.1078033447266
40
0.0
41
0.0
42
0.0
10
82.4533004760742
20
72.9899978637695
40
0.0
41
0.0
42
0.0
10
82.4982986450195
20
72.9160995483398
40
0.0
41
0.0
42
0.0
10
82.6473999023438
20
72.6231994628906
40
0.0
41
0.0
42
0.0
10
82.7363967895508
20
72.4925994873047
40
0.0
41
0.0
42
0.0
10
82.9953002929688
20
72.1817016601562
40
0.0
41
0.0
42
0.0
10
83.1489028930664
20
72.0348968505859
40
0.0
41
0.0
42
0.0
10
83.2350997924805
20
71.9996032714844
40
0.0
41
0.0
42
0.0
10
83.4841003417969
20
71.9196014404297
40
0.0
41
0.0
42
0.0
10
83.6057968139648
20
71.9093017578125
40
0.0
41
0.0
42
0.0
10
83.6427001953125
20
71.9093017578125
40
0.0
41
0.0
42
0.0
10
83.6856002807617
20
71.918701171875
40
0.0
41
0.0
42
0.0
10
84.0121994018555
20
72.0114974975586
40
0.0
41
0.0
42
0.0
10
84.1737976074219
20
72.0930023193359
40
0.0
41
0.0
42
0.0
10
84.5059967041016
20
72.3442001342773
40
0.0
41
0.0
42
0.0
10
84.5699996948242
20
72.4092025756836
40
0.0
41
0.0
42
0.0
10
84.6675033569336
20
72.493896484375
40
0.0
41
0.0
42
0.0
10
84.8846969604492
20
72.8274993896484
40
0.0
41
0.0
42
0.0
10
84.9505996704102
20
72.9050979614258
40
0.0
41
0.0
42
0.0
10
84.9990005493164
20
72.9757995605469
40
0.0
41
0.0
42
0.0
10
84.9990005493164
20
73.0459976196289
40
0.0
41
0.0
42
0.0
10
84.9956970214844
20
73.0459976196289
40
0.0
41
0.0
42
0.0
10
84.9856033325195
20
73.0109024047852
40
0.0
41
0.0
42
0.0
10
84.9378967285156
20
72.940803527832
40
0.0
41
0.0
42
0.0
10
84.8880996704102
20
72.8824005126953
40
0.0
41
0.0
42
0.0
10
84.6430969238281
20
72.5059967041016
40
0.0
41
0.0
42
0.0
10
84.5663986206055
20
72.4393997192383
40
0.0
41
0.0
42
0.0
10
84.4937973022461
20
72.3655014038086
40
0.0
41
0.0
42
0.0
10
84.116096496582
20
72.0800018310547
40
0.0
41
0.0
42
0.0
10
83.9876022338867
20
72.0151977539062
40
0.0
41
0.0
42
0.0
10
83.6484985351562
20
71.918701171875
40
0.0
41
0.0
42
0.0
10
83.5158004760742
20
71.9300994873047
40
0.0
41
0.0
42
0.0
10
83.2976989746094
20
72.0000991821289
40
0.0
41
0.0
42
0.0
10
83.2160034179688
20
72.0335998535156
40
0.0
41
0.0
42
0.0
10
83.0045013427734
20
72.2354965209961
40
0.0
41
0.0
42
0.0
10
82.7782974243164
20
72.5072021484375
40
0.0
41
0.0
42
0.0
10
82.6989974975586
20
72.6237030029297
40
0.0
41
0.0
42
0.0
10
82.502197265625
20
73.0098037719727
40
0.0
41
0.0
42
0.0
10
82.2791976928711
20
73.5149993896484
40
0.0
41
0.0
42
0.0
10
82.2649002075195
20
73.7738037109375
40
0.0
41
0.0
42
0.0
10
82.2613983154297
20
73.9876022338867
40
0.0
41
0.0
42
0.0
10
82.4589004516602
20
74.2509994506836
40
0.0
41
0.0
42
0.0
10
82.5015029907227
20
74.3140029907227
40
0.0
41
0.0
42
0.0
10
82.5796966552734
20
74.4914016723633
40
0.0
41
0.0
42
0.0
10
82.6197967529297
20
74.5366973876953
40
0.0
41
0.0
42
0.0
10
82.9421005249023
20
74.8292007446289
40
0.0
41
0.0
42
0.0
10
82.99169921875
20
74.8948974609375
40
0.0
41
0.0
42
0.0
10
83.0042037963867
20
74.908203125
40
0.0
41
0.0
42
0.0
10
83.0746994018555
20
74.993896484375
40
0.0
41
0.0
42
0.0
10
83.1716003417969
20
75.0960006713867
40
0.0
41
0.0
42
0.0
10
83.5133972167969
20
75.3066024780273
40
0.0
41
0.0
42
0.0
10
83.8526000976562
20
75.3273010253906
40
0.0
41
0.0
42
0.0
10
83.8880004882812
20
75.3331985473633
40
0.0
41
0.0
42
0.0
10
84.0059967041016
20
75.3984985351562
40
0.0
41
0.0
42
0.0
10
84.1130981445312
20
75.375602722168
40
0.0
41
0.0
42
0.0
10
84.4931030273438
20
75.1281967163086
40
0.0
41
0.0
42
0.0
10
84.609001159668
20
75.0155029296875
40
0.0
41
0.0
42
0.0
10
84.6281967163086
20
74.9924011230469
40
0.0
41
0.0
42
0.0
10
84.8744964599609
20
74.6158981323242
40
0.0
41
0.0
42
0.0
10
84.9483032226562
20
74.488899230957
40
0.0
41
0.0
42
0.0
10
84.994499206543
20
74.3648986816406
40
0.0
41
0.0
42
0.0
10
84.9990005493164
20
74.3648986816406
40
0.0
41
0.0
42
0.0
10
84.9989013671875
20
74.4651031494141
40
0.0
41
0.0
42
0.0
10
84.9817962646484
20
74.5109024047852
40
0.0
41
0.0
42
0.0
10
84.8871994018555
20
74.6738967895508
40
0.0
41
0.0
42
0.0
10
84.6688995361328
20
75.0074005126953
40
0.0
41
0.0
42
0.0
10
84.6546020507812
20
75.0245971679688
40
0.0
41
0.0
42
0.0
10
84.5067977905273
20
75.1682968139648
40
0.0
41
0.0
42
0.0
10
84.1768035888672
20
75.3832015991211
40
0.0
41
0.0
42
0.0
10
84.0177001953125
20
75.4168014526367
40
0.0
41
0.0
42
0.0
10
83.9853973388672
20
75.4168014526367
40
0.0
41
0.0
42
0.0
10
83.8296966552734
20
75.3303985595703
40
0.0
41
0.0
42
0.0
10
83.4865036010742
20
75.3096008300781
40
0.0
41
0.0
42
0.0
10
83.1183013916016
20
75.0827026367188
40
0.0
41
0.0
42
0.0
10
83.0453033447266
20
75.0059967041016
40
0.0
41
0.0
42
0.0
10
82.9956970214844
20
74.9457015991211
40
0.0
41
0.0
42
0.0
10
82.9823989868164
20
74.9317016601562
40
0.0
41
0.0
42
0.0
10
82.9439010620117
20
74.8806991577148
40
0.0
41
0.0
42
0.0
10
82.581901550293
20
74.5522994995117
40
0.0
41
0.0
42
0.0
10
82.5432968139648
20
74.5084991455078
40
0.0
41
0.0
42
0.0
10
82.4982986450195
20
74.4067001342773
40
0.0
41
0.0
42
0.0
10
82.4431991577148
20
74.3252029418945
40
0.0
41
0.0
42
0.0
10
82.2091979980469
20
74.0130004882812
40
0.0
41
0.0
42
0.0
10
82.2120971679688
20
73.7947998046875
40
0.0
41
0.0
42
0.0
210
0.0
220
0.0
230
1.0
0
LWPOLYLINE
5
37
330
1C
100
AcDbEntity
67
0
8
0
62
256
6
ByLayer
370
-1
48
1.0
60
0
100
AcDbPolyline
90
27
70
1
38
0.0
39
0.0
10
82.7221984863281
20
65.0746002197266
40
0.0
41
0.0
42
0.0
10
83.0102005004883
20
65.241096496582
40
0.0
41
0.0
42
0.0
10
83.3856964111328
20
65.4162979125977
40
0.0
41
0.0
42
0.0
10
83.5110015869141
20
65.4811019897461
40
0.0
41
0.0
42
0.0
10
83.5933990478516
20
65.5160980224609
40
0.0
41
0.0
42
0.0
10
83.8868026733398
20
65.6316986083984
40
0.0
41
0.0
42
0.0
10
84.0121994018555
20
65.6875991821289
40
0.0
41
0.0
42
0.0
10
84.3872985839844
20
65.8197021484375
40
0.0
41
0.0
42
0.0
10
84.5124969482422
20
65.8739013671875
40
0.0
41
0.0
42
0.0
10
84.8957977294922
20
66.0009002685547
40
0.0
41
0.0
42
0.0
10
84.9990005493164
20
66.0420989990234
40
0.0
41
0.0
42
0.0
10
84.9990005493164
20
66.0636978149414
40
0.0
41
0.0
42
0.0
10
84.984001159668
20
66.0636978149414
40
0.0
41
0.0
42
0.0
10
84.8293991088867
20
66.0018005371094
40
0.0
41
0.0
42
0.0
10
84.4873962402344
20
65.8887023925781
40
0.0
41
0.0
42
0.0
10
84.3226013183594
20
65.8172988891602
40
0.0
41
0.0
42
0.0
10
83.9877014160156
20
65.6993026733398
40
0.0
41
0.0
42
0.0
10
83.8230972290039
20
65.6259994506836
40
0.0
41
0.0
42
0.0
10
83.5606994628906
20
65.5225982666016
40
0.0
41
0.0
42
0.0
10
83.488899230957
20
65.4919967651367
40
0.0
41
0.0
42
0.0
10
83.3242034912109
20
65.4068984985352
40
0.0
41
0.0
42
0.0
10
82.9897003173828
20
65.2507019042969
40
0.0
41
0.0
42
0.0
10
82.7350997924805
20
65.1036987304688
40
0.0
41
0.0
42
0.0
10
82.5952987670898
20
65.0087966918945
40
0.0
41
0.0
42
0.0
10
82.5952987670898
20
65.0009994506836
40
0.0
41
0.0
42
0.0
10
82.6135025024414
20
65.0009002685547
40
0.0
41
0.0
42
0.0
10
82.7221984863281
20
65.0746002197266
40
0.0
41
0.0
42
0.0
210
0.0
220
0.0
230
1.0
0
LWPOLYLINE
5
38
330
1C
100
AcDbEntity
67
0
8
0
62
256
6
ByLayer
370
-1
48
1.0
60
0
100
AcDbPolyline
90
27
70
1
38
0.0
39
0.0
10
84.1110000610352
20
84.4873962402344
40
0.0
41
0.0
42
0.0
10
84.182502746582
20
84.3226013183594
40
0.0
41
0.0
42
0.0
10
84.3003997802734
20
83.9877014160156
40
0.0
41
0.0
42
0.0
10
84.3738021850586
20
83.822998046875
40
0.0
41
0.0
42
0.0
10
84.4772033691406
20
83.5606994628906
40
0.0
41
0.0
42
0.0
10
84.507698059082
20
83.488899230957
40
0.0
41
0.0
42
0.0
10
84.5927963256836
20
83.3242034912109
40
0.0
41
0.0
42
0.0
10
84.7490005493164
20
82.9896011352539
40
0.0
41
0.0
42
0.0
10
84.8961029052734
20
82.7350997924805
40
0.0
41
0.0
42
0.0
10
84.991096496582
20
82.5952987670898
40
0.0
41
0.0
42
0.0
10
84.9990005493164
20
82.5952987670898
40
0.0
41
0.0
42
0.0
10
84.9989013671875
20
82.6135025024414
40
0.0
41
0.0
42
0.0
10
84.9251022338867
20
82.7221984863281
40
0.0
41
0.0
42
0.0
10
84.7585983276367
20
83.0102005004883
40
0.0
41
0.0
42
0.0
10
84.5833969116211
20
83.3856964111328
40
0.0
41
0.0
42
0.0
10
84.5186004638672
20
83.5110015869141
40
0.0
41
0.0
42
0.0
10
84.4837036132812
20
83.5933990478516
40
0.0
41
0.0
42
0.0
10
84.3679962158203
20
83.8868026733398
40
0.0
41
0.0
42
0.0
10
84.3122024536133
20
84.0121002197266
40
0.0
41
0.0
42
0.0
10
84.1800003051758
20
84.3872985839844
40
0.0
41
0.0
42
0.0
10
84.1258010864258
20
84.5123977661133
40
0.0
41
0.0
42
0.0
10
83.9988021850586
20
84.8957977294922
40
0.0
41
0.0
42
0.0
10
83.9577026367188
20
84.9990005493164
40
0.0
41
0.0
42
0.0
10
83.9362030029297
20
84.9990005493164
40
0.0
41
0.0
42
0.0
10
83.9359970092773
20
84.984001159668
40
0.0
41
0.0
42
0.0
10
83.9979019165039
20
84.8292999267578
40
0.0
41
0.0
42
0.0
10
84.1110000610352
20
84.4873962402344
40
0.0
41
0.0
42
0.0
210
0.0
220
0.0
230
1.0
0
VIEWPORT
5
3D
330
39
100
AcDbEntity
67
1
8
0
62
256
6
ByLayer
370
-1
48
1.0
60
0
100
AcDbViewport
10
0.0
20
0.0
30
0.0
40
297.0
41
210.0
68
1
69
1
12
50.0
22
100.0
13
0.0
23
0.0
14
10.0
24
10.0
15
10.0
25
10.0
16
0.0
26
0.0
36
1.0
17
0.0
27
0.0
37
0.0
42
50.0
43
0.0
44
0.0
45
250.0
50
0.0
51
0.0
72
1000
90
819232
110
0.0
120
0.0
130
0.0
111
1.0
121
0.0
131
0.0
112
0.0
122
1.0
132
0.0
0
ENDSEC
0
SECTION
2
OBJECTS
0
DICTIONARY
5
43
330
0
100
AcDbDictionary
280
1
281
1
3
ACAD_GROUP
350
12
3
ACAD_LAYOUT
350
3C
3
ACAD_DGNDEFINITIONS
350
F
3
ACAD_DWFDEFINITIONS
350
10
3
ACAD_PDFDEFINITIONS
350
11
3
ACAD_MLINESTYLE
350
B
3
ACAD_IMAGE_DICT
350
E
3
ACAD_IMAGE_VARS
350
21
0
DICTIONARY
5
12
330
43
100
AcDbDictionary
280
1
281
1
0
DICTIONARY
5
3C
330
43
100
AcDbDictionary
280
1
281
1
3
Model
350
20
3
Layout1
350
3E
0
DICTIONARY
5
F
330
43
100
AcDbDictionary
280
1
281
1
0
DICTIONARY
5
10
330
43
100
AcDbDictionary
280
1
281
1
0
DICTIONARY
5
11
330
43
100
AcDbDictionary
280
1
281
1
0
DICTIONARY
5
B
330
43
100
AcDbDictionary
280
1
281
1
3
Standard
350
1B
0
DICTIONARY
5
E
330
43
100
AcDbDictionary
280
1
281
1
0
DICTIONARY
5
6
330
5
100
AcDbDictionary
280
1
281
1
3
ACAD_LAYERSTATES
360
44
0
DICTIONARY
5
44
330
6
100
AcDbDictionary
280
1
281
1
0
LAYOUT
5
20
330
3C
100
AcDbPlotSettings
1

2
none_device
4
ISO_A4_(210.00_x_297.00_MM)
6

40
7.5
41
20.0
42
7.5
43
20.0
44
210.0
45
297.0
46
0.0
47
0.0
48
0.0
49
0.0
140
0.0
141
0.0
142
1.0
143
1.0
70
11952
72
1
73
1
74
1
7

75
0
76
0
77
2
78
300
147
1.0
148
0.0
149
0.0
100
AcDbLayout
1
Model
71
0
10
-20.0
20
-7.5
11
277.0
21
202.5
12
0.0
22
0.0
32
0.0
14
25.7
24
19.5
34
0.0
15
231.3
25
175.5
35
0.0
146
0.0
13
0.0
23
0.0
33
0.0
16
1.0
26
0.0
36
0.0
17
0.0
27
1.0
37
0.0
76
0
330
1C
0
LAYOUT
5
3E
330
3C
100
AcDbPlotSettings
1

2
none_device
4
ISO_A4_(210.00_x_297.00_MM)
6

40
7.5
41
20.0
42
7.5
43
20.0
44
210.0
45
297.0
46
0.0
47
0.0
48
0.0
49
0.0
140
0.0
141
0.0
142
1.0
143
1.0
70
688
72
1
73
1
74
1
7

75
0
76
0
77
2
78
300
147
1.0
148
0.0
149
0.0
100
AcDbLayout
1
Layout1
71
1
10
-20.0
20
-7.5
11
277.0
21
202.5
12
0.0
22
0.0
32
0.0
14
25.7
24
19.5
34
0.0
15
231.3
25
175.5
35
0.0
146
0.0
13
0.0
23
0.0
33
0.0
16
1.0
26
0.0
36
0.0
17
0.0
27
1.0
37
0.0
76
0
330
39
0
MLINESTYLE
5
1B
330
B
100
AcDbMlineStyle
2
Standard
70
0
3

62
256
51
90.0
52
90.0
71
2
49
0.5
62
256
6
ByLayer
49
-0.5
62
256
6
ByLayer
0
RASTERVARIABLES
5
21
330
E
100
AcDbRasterVariables
90
0
70
1
71
1
72
0
0
ENDSEC
0
EOF
